<svg width="16" height="16" viewBox="0 0 16 16" fill="none" xmlns="http://www.w3.org/2000/svg">
<path fill-rule="evenodd" clip-rule="evenodd" d="M6.66683 2H9.3335C10.0699 2 10.6668 2.59695 10.6668 3.33333V4H13.3335C14.0699 4 14.6668 4.59695 14.6668 5.33333V12.6667C14.6668 13.403 14.0699 14 13.3335 14H2.66683C1.93045 14 1.3335 13.403 1.3335 12.6667V5.33333C1.3335 4.59695 1.93045 4 2.66683 4H5.3335V3.33333C5.3335 2.59695 5.93045 2 6.66683 2ZM5.3335 5.33333V5.33333H2.66683V8.66668H7.3335H8.66683H13.3335V5.33333L10.6668 5.33333H5.3335ZM2.66683 12.6667V10H7.3335V10.6667H8.66683V10H13.3335V12.6667H2.66683ZM9.3335 3.33333V3.99999H6.66683V3.33333H9.3335Z" fill="#58585B"/>
</svg>
