<svg width="18" height="18" viewBox="0 0 18 18" fill="none" xmlns="http://www.w3.org/2000/svg">
<path fill-rule="evenodd" clip-rule="evenodd" d="M2.33329 4.83329H3.99996V0.666626H14V4.83329H15.6666C16.5871 4.83329 17.3333 5.57948 17.3333 6.49996V13.1666C17.3333 14.0871 16.5871 14.8333 15.6666 14.8333H14V17.3333H3.99996V14.8333H2.33329C1.41282 14.8333 0.666626 14.0871 0.666626 13.1666V6.49996C0.666626 5.57948 1.41282 4.83329 2.33329 4.83329ZM12.3333 4.83329H5.66663V2.33329H12.3333V4.83329ZM15.6666 6.49996V13.1666H14V11.5H3.99996V13.1666H2.33329V6.49996H15.6666ZM12.3333 13.1666H5.66663V15.6666H12.3333V13.1666ZM14.8333 8.16663C14.8333 7.70639 14.4602 7.33329 14 7.33329C13.5397 7.33329 13.1666 7.70639 13.1666 8.16663C13.1666 8.62686 13.5397 8.99996 14 8.99996C14.4602 8.99996 14.8333 8.62686 14.8333 8.16663Z" fill="#00AB4E"/>
</svg>
