<svg width="181" height="121" viewBox="0 0 181 121" fill="none" xmlns="http://www.w3.org/2000/svg">
<rect x="0.451172" y="0.25" width="180" height="120" rx="12" fill="white"/>
<rect x="0.5" y="0.5" width="179.902" height="119.5" rx="12.5" stroke="#EEEEEF"/>
<g filter="url(#filter0_d_3495_2053)">
<path fill-rule="evenodd" clip-rule="evenodd" d="M79.0741 48.3877C79.036 48.758 79.2126 49.1182 79.5282 49.3154L86.1923 53.4805C86.5619 53.7117 86.7334 54.1603 86.6122 54.5791L84.331 62.459C84.2137 62.8648 84.3711 63.2999 84.7206 63.5371L90.4872 67.4502C90.7807 67.6494 90.943 67.9925 90.911 68.3457L90.1064 77.2002C81.9678 78.8052 73.365 81.1704 65.3817 84.5869C64.2891 85.0544 63.0153 84.8565 62.2079 83.9844C56.4203 77.7306 48.2482 64.1221 52.7538 49.3574C52.963 48.6721 53.4059 48.0808 54.0048 47.6875C59.1282 44.3229 68.4836 40.012 80.1249 38.1768L79.0741 48.3877Z" fill="#EEEEEF"/>
</g>
<path fill-rule="evenodd" clip-rule="evenodd" d="M79.0755 48.3881C79.0601 48.5381 79.0801 48.6861 79.1302 48.8226L79.0755 49.3636C79.0376 49.7337 79.2132 50.0942 79.5286 50.2914L86.1927 54.4564C86.3447 54.5514 86.461 54.684 86.5394 54.8353L84.3323 62.4594C84.261 62.7064 84.292 62.9636 84.4056 63.181L84.3323 63.4349C84.2152 63.8405 84.3718 64.2759 84.721 64.5131L90.4886 68.4261C90.6647 68.5457 90.7926 68.7171 90.8607 68.9115L90.3587 74.4301C82.2867 75.9308 73.5351 78.2237 65.4163 81.6029C64.8925 81.8208 64.2892 81.7295 63.8851 81.3314C58.8295 76.3477 52.4445 64.7739 55.7171 51.8158C55.9128 51.0411 56.4001 50.3792 57.0823 49.9633C61.6424 47.184 69.7095 43.7017 79.722 42.1058L79.0755 48.3881Z" fill="#939597"/>
<path fill-rule="evenodd" clip-rule="evenodd" d="M79.0749 48.3876C79.0368 48.7578 79.2124 49.118 79.528 49.3153L86.1921 53.4803C86.5619 53.7115 86.7333 54.1601 86.612 54.579L84.3317 62.4589C84.2143 62.8646 84.371 63.2997 84.7204 63.537L90.488 67.4501C90.7816 67.6493 90.9439 67.9932 90.9118 68.3466L90.4479 73.4374C82.351 74.9378 73.5647 77.2351 65.4157 80.6268C64.8917 80.8449 64.2887 80.7537 63.8844 80.3553C58.8288 75.3716 52.4436 63.798 55.7165 50.8397C55.9122 50.0649 56.3993 49.4031 57.0817 48.9872C61.6572 46.1985 69.7633 42.7016 79.8229 41.1132L79.0749 48.3876Z" fill="#BBBDC0"/>
<path d="M79.0749 48.3876L79.3175 48.4125L79.3175 48.4125L79.0749 48.3876ZM79.528 49.3153L79.3987 49.5221L79.3987 49.5221L79.528 49.3153ZM86.1921 53.4803L86.0628 53.6872V53.6872L86.1921 53.4803ZM86.612 54.579L86.3777 54.5112L86.3777 54.5112L86.612 54.579ZM84.3317 62.4589L84.0974 62.3911L84.0974 62.3911L84.3317 62.4589ZM84.7204 63.537L84.5834 63.7388L84.5835 63.7388L84.7204 63.537ZM90.488 67.4501L90.6249 67.2482L90.6249 67.2482L90.488 67.4501ZM90.9118 68.3466L91.1547 68.3687L91.1547 68.3686L90.9118 68.3466ZM90.4479 73.4374L90.4924 73.6772L90.6741 73.6435L90.6908 73.4595L90.4479 73.4374ZM65.4157 80.6268L65.5094 80.852L65.5094 80.852L65.4157 80.6268ZM63.8844 80.3553L63.7132 80.529L63.7133 80.5291L63.8844 80.3553ZM55.7165 50.8397L55.48 50.78L55.48 50.78L55.7165 50.8397ZM57.0817 48.9872L56.9548 48.7789L56.9548 48.7789L57.0817 48.9872ZM79.8229 41.1132L80.0655 41.1381L80.098 40.8228L79.7849 40.8722L79.8229 41.1132ZM79.0749 48.3876L78.8323 48.3626C78.7846 48.8252 79.004 49.2754 79.3987 49.5221L79.528 49.3153L79.6573 49.1085C79.4208 48.9607 79.2889 48.6905 79.3175 48.4125L79.0749 48.3876ZM79.528 49.3153L79.3987 49.5221L86.0628 53.6872L86.1921 53.4803L86.3213 53.2735L79.6573 49.1085L79.528 49.3153ZM86.1921 53.4803L86.0628 53.6872C86.3401 53.8605 86.4687 54.1969 86.3777 54.5112L86.612 54.579L86.8463 54.6468C86.9978 54.1232 86.7837 53.5625 86.3213 53.2735L86.1921 53.4803ZM86.612 54.579L86.3777 54.5112L84.0974 62.3911L84.3317 62.4589L84.566 62.5267L86.8463 54.6468L86.612 54.579ZM84.3317 62.4589L84.0974 62.3911C83.9508 62.8981 84.1465 63.442 84.5834 63.7388L84.7204 63.537L84.8574 63.3352C84.5955 63.1573 84.4779 62.8311 84.566 62.5266L84.3317 62.4589ZM84.7204 63.537L84.5835 63.7388L90.351 67.6519L90.488 67.4501L90.6249 67.2482L84.8573 63.3352L84.7204 63.537ZM90.488 67.4501L90.351 67.6519C90.5711 67.8012 90.693 68.0592 90.6689 68.3245L90.9118 68.3466L91.1547 68.3686C91.1948 67.9271 90.9921 67.4974 90.6249 67.2482L90.488 67.4501ZM90.9118 68.3466L90.6689 68.3244L90.205 73.4152L90.4479 73.4374L90.6908 73.4595L91.1547 68.3687L90.9118 68.3466ZM90.4479 73.4374L90.4035 73.1976C82.2949 74.7001 73.4911 77.0015 65.322 80.4017L65.4157 80.6268L65.5094 80.852C73.6382 77.4686 82.407 75.1754 90.4924 73.6772L90.4479 73.4374ZM65.4157 80.6268L65.322 80.4016C64.88 80.5856 64.3836 80.5047 64.0556 80.1816L63.8844 80.3553L63.7133 80.5291C64.1938 81.0026 64.9035 81.1042 65.5094 80.852L65.4157 80.6268ZM63.8844 80.3553L64.0557 80.1817C59.0425 75.2397 52.7071 63.7507 55.953 50.8994L55.7165 50.8397L55.48 50.78C52.18 63.8453 58.6152 75.5034 63.7132 80.529L63.8844 80.3553ZM55.7165 50.8397L55.953 50.8995C56.1331 50.1864 56.581 49.578 57.2087 49.1955L57.0817 48.9872L56.9548 48.7789C56.2177 49.2282 55.6913 49.9434 55.48 50.78L55.7165 50.8397ZM57.0817 48.9872L57.2087 49.1955C61.7573 46.4232 69.8332 42.9375 79.861 41.3541L79.8229 41.1132L79.7849 40.8722C69.6934 42.4657 61.5571 45.9739 56.9548 48.7789L57.0817 48.9872ZM79.8229 41.1132L79.5803 41.0882L78.8323 48.3626L79.0749 48.3876L79.3175 48.4125L80.0655 41.1381L79.8229 41.1132Z" fill="#939597"/>
<path fill-rule="evenodd" clip-rule="evenodd" d="M70.1107 52.7134C70.2635 52.0899 70.9673 51.7807 71.5296 52.0904L85.1605 59.5972L84.3324 62.4585C84.2149 62.8644 84.3723 63.3004 84.722 63.5376L88.8656 66.3492C80.6773 67.7772 72.3136 70.4876 67.0111 74.1441C66.1985 74.7044 64.9131 73.923 65.1478 72.9644L70.1107 52.7134Z" fill="#EEEEEF"/>
<path d="M70.1107 52.7134L69.8738 52.6554L69.8738 52.6554L70.1107 52.7134ZM71.5296 52.0904L71.412 52.304V52.304L71.5296 52.0904ZM85.1605 59.5972L85.3948 59.665L85.449 59.4777L85.2781 59.3836L85.1605 59.5972ZM84.3324 62.4585L84.5666 62.5264L84.5666 62.5263L84.3324 62.4585ZM84.722 63.5376L84.5851 63.7395L84.5851 63.7395L84.722 63.5376ZM88.8656 66.3492L88.9075 66.5894L89.5014 66.4859L89.0025 66.1473L88.8656 66.3492ZM67.0111 74.1441L66.8726 73.9433L66.8726 73.9433L67.0111 74.1441ZM65.1478 72.9644L64.9109 72.9063L64.9109 72.9064L65.1478 72.9644ZM70.1107 52.7134L70.3476 52.7715C70.4622 52.3037 70.9903 52.0718 71.412 52.304L71.5296 52.0904L71.6473 51.8767C70.9442 51.4895 70.0648 51.8761 69.8738 52.6554L70.1107 52.7134ZM71.5296 52.0904L71.412 52.304L85.0428 59.8109L85.1605 59.5972L85.2781 59.3836L71.6473 51.8767L71.5296 52.0904ZM85.1605 59.5972L84.9262 59.5294L84.0981 62.3907L84.3324 62.4585L84.5666 62.5263L85.3948 59.665L85.1605 59.5972ZM84.3324 62.4585L84.0981 62.3907C83.9512 62.8982 84.148 63.4429 84.5851 63.7395L84.722 63.5376L84.859 63.3358C84.5967 63.1578 84.4785 62.8307 84.5666 62.5264L84.3324 62.4585ZM84.722 63.5376L84.5851 63.7395L88.7286 66.551L88.8656 66.3492L89.0025 66.1473L84.859 63.3358L84.722 63.5376ZM88.8656 66.3492L88.8237 66.1089C80.6204 67.5396 72.217 70.258 66.8726 73.9433L67.0111 74.1441L67.1495 74.3449C72.4102 70.7172 80.7341 68.0149 88.9075 66.5894L88.8656 66.3492ZM67.0111 74.1441L66.8726 73.9433C66.5658 74.1549 66.149 74.1244 65.8157 73.9168C65.4832 73.7097 65.2996 73.3702 65.3847 73.0224L65.1478 72.9644L64.9109 72.9064C64.7614 73.5172 65.1031 74.0477 65.5578 74.3309C66.0116 74.6135 66.6438 74.6936 67.1495 74.3449L67.0111 74.1441ZM65.1478 72.9644L65.3847 73.0225L70.3476 52.7715L70.1107 52.7134L69.8738 52.6554L64.9109 72.9063L65.1478 72.9644Z" fill="#939597"/>
<g filter="url(#filter1_d_3495_2053)">
<path fill-rule="evenodd" clip-rule="evenodd" d="M90.9892 36.1464C99.544 34.7938 109.335 34.7775 119.59 37.457C121.209 37.88 122.311 39.344 122.423 41.0136C122.957 48.99 124.925 61.8573 129.71 69.2285C130.434 70.3441 129.653 72.0972 128.323 72.123C121.69 72.2515 111.76 73.0432 101.019 75.1601L101.81 66.2988C101.841 65.9519 101.685 65.6145 101.4 65.414L95.83 61.4941C95.4967 61.2595 95.3446 60.8424 95.4482 60.4482L97.5312 52.5302C97.6399 52.117 97.4677 51.6805 97.1054 51.454L90.4238 47.2783C90.1091 47.0816 89.9329 46.7237 89.9697 46.3544L90.9892 36.1464Z" fill="#EEEEEF"/>
<path d="M90.9892 36.1464L90.9511 35.9055L90.7652 35.9349L90.7465 36.1222L90.9892 36.1464ZM119.59 37.457L119.651 37.221L119.651 37.221L119.59 37.457ZM122.423 41.0136L122.666 40.9973L122.666 40.9973L122.423 41.0136ZM129.71 69.2285L129.505 69.3613L129.505 69.3613L129.71 69.2285ZM128.323 72.123L128.318 71.8791V71.8791L128.323 72.123ZM101.019 75.1601L100.777 75.1384L100.748 75.4623L101.067 75.3994L101.019 75.1601ZM101.81 66.2988L101.568 66.2771V66.2771L101.81 66.2988ZM101.4 65.414L101.541 65.2146L101.541 65.2145L101.4 65.414ZM95.83 61.4941L95.9704 61.2946H95.9704L95.83 61.4941ZM95.4482 60.4482L95.2123 60.3861L95.2123 60.3862L95.4482 60.4482ZM97.5312 52.5302L97.2953 52.4681L97.2953 52.4682L97.5312 52.5302ZM97.1054 51.454L97.2347 51.2472L97.2347 51.2472L97.1054 51.454ZM90.4238 47.2783L90.2945 47.4851L90.2945 47.4851L90.4238 47.2783ZM89.9697 46.3544L89.727 46.3302L89.727 46.3302L89.9697 46.3544ZM90.9892 36.1464L91.0273 36.3873C99.5542 35.0392 109.311 35.0232 119.528 37.693L119.59 37.457L119.651 37.221C109.359 34.5317 99.5338 34.5485 90.9511 35.9055L90.9892 36.1464ZM119.59 37.457L119.528 37.693C121.036 38.0869 122.074 39.4543 122.179 41.0299L122.423 41.0136L122.666 40.9973C122.548 39.2337 121.382 37.6732 119.651 37.221L119.59 37.457ZM122.423 41.0136L122.179 41.0299C122.447 45.0279 123.074 50.2516 124.235 55.4016C125.394 60.5474 127.09 65.6399 129.505 69.3613L129.71 69.2285L129.914 69.0957C127.545 65.4458 125.865 60.4191 124.71 55.2944C123.557 50.1739 122.933 44.9758 122.666 40.9973L122.423 41.0136ZM129.71 69.2285L129.505 69.3613C129.813 69.835 129.809 70.4607 129.566 70.9813C129.323 71.501 128.867 71.8685 128.318 71.8791L128.323 72.123L128.328 72.3668C129.109 72.3517 129.708 71.8297 130.008 71.1875C130.307 70.5463 130.331 69.7376 129.914 69.0957L129.71 69.2285ZM128.323 72.123L128.318 71.8791C121.673 72.0079 111.728 72.8009 100.972 74.9208L101.019 75.1601L101.067 75.3994C111.791 73.2855 121.708 72.4951 128.328 72.3668L128.323 72.123ZM101.019 75.1601L101.262 75.1818L102.053 66.3205L101.81 66.2988L101.568 66.2771L100.777 75.1384L101.019 75.1601ZM101.81 66.2988L102.053 66.3205C102.092 65.8869 101.897 65.4652 101.541 65.2146L101.4 65.414L101.26 65.6134C101.473 65.7638 101.591 66.0169 101.568 66.2771L101.81 66.2988ZM101.4 65.414L101.541 65.2145L95.9704 61.2946L95.83 61.4941L95.6896 61.6935L101.26 65.6135L101.4 65.414ZM95.83 61.4941L95.9704 61.2946C95.7205 61.1188 95.6063 60.806 95.6841 60.5102L95.4482 60.4482L95.2123 60.3862C95.0828 60.8788 95.2729 61.4002 95.6896 61.6935L95.83 61.4941ZM95.4482 60.4482L95.6841 60.5102L97.7671 52.5923L97.5312 52.5302L97.2953 52.4682L95.2123 60.3861L95.4482 60.4482ZM97.5312 52.5302L97.7671 52.5923C97.9029 52.0762 97.6878 51.5305 97.2347 51.2472L97.1054 51.454L96.9761 51.6609C97.2475 51.8305 97.377 52.1579 97.2953 52.4681L97.5312 52.5302ZM97.1054 51.454L97.2347 51.2472L90.553 47.0714L90.4238 47.2783L90.2945 47.4851L96.9761 51.6609L97.1054 51.454ZM90.4238 47.2783L90.553 47.0714C90.3168 46.9238 90.1848 46.6553 90.2124 46.3786L89.9697 46.3544L89.727 46.3302C89.6809 46.792 89.9013 47.2394 90.2945 47.4851L90.4238 47.2783ZM89.9697 46.3544L90.2124 46.3787L91.2319 36.1707L90.9892 36.1464L90.7465 36.1222L89.727 46.3302L89.9697 46.3544Z" fill="#939597"/>
</g>
<path fill-rule="evenodd" clip-rule="evenodd" d="M90.6337 39.7016C98.6794 38.47 107.94 38.4402 117.74 40.8891C118.774 41.1475 119.495 42.069 119.559 43.1332C119.985 50.3257 121.753 62.1059 126.425 68.8119C126.66 69.1499 126.42 69.6295 126.008 69.6283C120.466 69.6117 111.438 70.3223 101.305 72.2152L101.762 67.2875C101.77 67.1934 101.764 67.1003 101.746 67.0102L101.81 66.2982C101.841 65.9515 101.685 65.6139 101.4 65.4135L95.83 61.4935C95.4967 61.259 95.3446 60.8418 95.4482 60.4477L95.9462 58.5531L97.3193 53.5228C97.3478 53.4183 97.3577 53.3123 97.3515 53.2084L97.5312 52.5297C97.6397 52.1166 97.4675 51.6799 97.1054 51.4535L90.4238 47.2777C90.1091 47.081 89.9329 46.7231 89.9697 46.3539L90.6337 39.7016Z" fill="#939597"/>
<path fill-rule="evenodd" clip-rule="evenodd" d="M90.6963 39.0804C98.7635 37.8039 108.089 37.7538 117.857 40.2826C118.882 40.5478 119.593 41.4657 119.649 42.5228C120.035 49.7049 121.591 61.428 126.09 68.1312C126.317 68.4701 126.076 68.9417 125.668 68.9398C120.267 68.9143 111.334 69.5511 101.354 71.3997L101.811 66.2982C101.841 65.9513 101.685 65.6139 101.4 65.4134L95.8301 61.4935C95.4967 61.2589 95.3435 60.8419 95.4473 60.4476L97.5312 52.5296C97.6398 52.1165 97.4667 51.6808 97.1045 51.4544L90.4228 47.2787C90.1081 47.0819 89.9328 46.7232 89.9697 46.3539L90.6963 39.0804Z" fill="#BBBDC0"/>
<path d="M90.6963 39.0804L90.6582 38.8395L90.4723 38.8689L90.4536 39.0562L90.6963 39.0804ZM117.857 40.2826L117.919 40.0464V40.0464L117.857 40.2826ZM119.649 42.5228L119.893 42.5097V42.5097L119.649 42.5228ZM126.09 68.1312L125.887 68.2671L125.887 68.2671L126.09 68.1312ZM125.668 68.9398L125.669 68.6959V68.6959L125.668 68.9398ZM101.354 71.3997L101.112 71.378L101.083 71.6981L101.399 71.6396L101.354 71.3997ZM101.811 66.2982L102.053 66.3199L102.053 66.3198L101.811 66.2982ZM101.4 65.4134L101.541 65.214L101.541 65.214L101.4 65.4134ZM95.8301 61.4935L95.9704 61.294H95.9704L95.8301 61.4935ZM95.4473 60.4476L95.2114 60.3855L95.2114 60.3855L95.4473 60.4476ZM97.5312 52.5296L97.7671 52.5917L97.7671 52.5916L97.5312 52.5296ZM97.1045 51.4544L97.2337 51.2476L97.2337 51.2476L97.1045 51.4544ZM90.4228 47.2787L90.2935 47.4855L90.2936 47.4855L90.4228 47.2787ZM89.9697 46.3539L90.2124 46.3781L90.2124 46.3781L89.9697 46.3539ZM90.6963 39.0804L90.7344 39.3213C98.7743 38.0491 108.065 37.9996 117.796 40.5187L117.857 40.2826L117.919 40.0464C108.112 37.508 98.7528 37.5586 90.6582 38.8395L90.6963 39.0804ZM117.857 40.2826L117.796 40.5187C118.712 40.7558 119.354 41.5787 119.406 42.5359L119.649 42.5228L119.893 42.5097C119.831 41.3528 119.052 40.3399 117.919 40.0464L117.857 40.2826ZM119.649 42.5228L119.406 42.5359C119.599 46.136 120.086 50.8755 121.089 55.5577C122.091 60.2354 123.612 64.8775 125.887 68.2671L126.09 68.1312L126.292 67.9953C124.068 64.6817 122.563 60.1106 121.566 55.4555C120.569 50.8048 120.085 46.0918 119.893 42.5097L119.649 42.5228ZM126.09 68.1312L125.887 68.2671C126.011 68.4519 125.872 68.6968 125.669 68.6959L125.668 68.9398L125.667 69.1837C126.281 69.1866 126.623 68.4884 126.292 67.9953L126.09 68.1312ZM125.668 68.9398L125.669 68.6959C120.251 68.6703 111.304 69.3087 101.31 71.1599L101.354 71.3997L101.399 71.6396C111.365 69.7935 120.282 69.1583 125.667 69.1837L125.668 68.9398ZM101.354 71.3997L101.597 71.4215L102.053 66.3199L101.811 66.2982L101.568 66.2765L101.112 71.378L101.354 71.3997ZM101.811 66.2982L102.053 66.3198C102.092 65.8863 101.897 65.4646 101.541 65.214L101.4 65.4134L101.26 65.6129C101.473 65.7632 101.591 66.0163 101.568 66.2765L101.811 66.2982ZM101.4 65.4134L101.541 65.214L95.9704 61.294L95.8301 61.4935L95.6897 61.693L101.26 65.6129L101.4 65.4134ZM95.8301 61.4935L95.9704 61.294C95.72 61.1178 95.6054 60.805 95.6831 60.5097L95.4473 60.4476L95.2114 60.3855C95.0816 60.8788 95.2733 61.3999 95.6897 61.693L95.8301 61.4935ZM95.4473 60.4476L95.6831 60.5097L97.7671 52.5917L97.5312 52.5296L97.2954 52.4676L95.2114 60.3855L95.4473 60.4476ZM97.5312 52.5296L97.7671 52.5916C97.9029 52.0751 97.6864 51.5305 97.2337 51.2476L97.1045 51.4544L96.9752 51.6613C97.247 51.8311 97.3767 52.1579 97.2953 52.4676L97.5312 52.5296ZM97.1045 51.4544L97.2337 51.2476L90.5521 47.0718L90.4228 47.2787L90.2936 47.4855L96.9752 51.6613L97.1045 51.4544ZM90.4228 47.2787L90.5521 47.0718C90.3164 46.9245 90.1847 46.6554 90.2124 46.3781L89.9697 46.3539L89.727 46.3296C89.6809 46.7909 89.8999 47.2394 90.2935 47.4855L90.4228 47.2787ZM89.9697 46.3539L90.2124 46.3781L90.939 39.1047L90.6963 39.0804L90.4536 39.0562L89.727 46.3296L89.9697 46.3539Z" fill="#939597"/>
<path fill-rule="evenodd" clip-rule="evenodd" d="M108.815 51.2132C109.252 50.9068 109.854 51.0083 110.167 51.4408L117.613 61.7513C118.138 62.4786 117.481 63.5199 116.59 63.4174C112.017 62.8913 105.971 63.2352 99.8221 64.3031L95.8309 61.4945C95.4975 61.2599 95.3443 60.8419 95.4481 60.4476L96.1883 57.6351L96.2733 57.682C97.4153 58.3109 98.8167 58.2339 99.8837 57.4847L108.815 51.2132Z" fill="#EEEEEF"/>
<path d="M108.815 51.2132L108.675 51.0136L108.675 51.0136L108.815 51.2132ZM110.167 51.4408L110.365 51.298L110.365 51.298L110.167 51.4408ZM117.613 61.7513L117.811 61.6086L117.811 61.6085L117.613 61.7513ZM116.59 63.4174L116.618 63.175L116.618 63.175L116.59 63.4174ZM99.8221 64.3031L99.6818 64.5026L99.7644 64.5607L99.8639 64.5434L99.8221 64.3031ZM95.8309 61.4945L95.6906 61.694L95.6906 61.694L95.8309 61.4945ZM95.4481 60.4476L95.2122 60.3855L95.2122 60.3856L95.4481 60.4476ZM96.1883 57.6351L96.3062 57.4216L96.0321 57.2704L95.9525 57.573L96.1883 57.6351ZM96.2733 57.682L96.1555 57.8956L96.1556 57.8956L96.2733 57.682ZM99.8837 57.4847L100.024 57.6843L100.024 57.6843L99.8837 57.4847ZM108.815 51.2132L108.955 51.4129C109.283 51.1831 109.735 51.2591 109.969 51.5836L110.167 51.4408L110.365 51.298C109.974 50.7574 109.221 50.6304 108.675 51.0136L108.815 51.2132ZM110.167 51.4408L109.969 51.5836L117.415 61.8941L117.613 61.7513L117.811 61.6085L110.365 51.298L110.167 51.4408ZM117.613 61.7513L117.415 61.8941C117.61 62.1642 117.592 62.4975 117.425 62.7669C117.257 63.0373 116.956 63.214 116.618 63.175L116.59 63.4174L116.562 63.6597C117.115 63.7233 117.587 63.4305 117.84 63.0241C118.093 62.6167 118.141 62.0658 117.811 61.6086L117.613 61.7513ZM116.59 63.4174L116.618 63.175C112.015 62.6455 105.944 62.9925 99.7804 64.0628L99.8221 64.3031L99.8639 64.5434C105.999 63.478 112.02 63.1372 116.562 63.6597L116.59 63.4174ZM99.8221 64.3031L99.9625 64.1036L95.9713 61.295L95.8309 61.4945L95.6906 61.694L99.6818 64.5026L99.8221 64.3031ZM95.8309 61.4945L95.9713 61.295C95.721 61.1189 95.6062 60.8052 95.684 60.5097L95.4481 60.4476L95.2122 60.3856C95.0825 60.8786 95.274 61.4008 95.6906 61.694L95.8309 61.4945ZM95.4481 60.4476L95.684 60.5097L96.4242 57.6972L96.1883 57.6351L95.9525 57.573L95.2122 60.3855L95.4481 60.4476ZM96.1883 57.6351L96.0705 57.8487L96.1555 57.8956L96.2733 57.682L96.3911 57.4684L96.3062 57.4216L96.1883 57.6351ZM96.2733 57.682L96.1556 57.8956C97.3793 58.5695 98.8807 58.4869 100.024 57.6843L99.8837 57.4847L99.7435 57.2851C98.7526 57.9808 97.4513 58.0523 96.391 57.4684L96.2733 57.682ZM99.8837 57.4847L100.024 57.6843L108.955 51.4129L108.815 51.2132L108.675 51.0136L99.7435 57.2851L99.8837 57.4847Z" fill="#939597"/>
<mask id="path-16-inside-1_3495_2053" fill="white">
<path d="M96.9199 43.5872C98.9404 43.5872 100.579 45.225 100.579 47.2454C100.579 49.2659 98.9405 50.9045 96.9199 50.9045C96.6242 50.9045 96.3369 50.8683 96.0615 50.802L94.0986 49.5754C93.5756 48.9427 93.2617 48.1304 93.2617 47.2454C93.2619 45.2251 94.8996 43.5873 96.9199 43.5872Z"/>
</mask>
<path d="M96.9199 43.5872C98.9404 43.5872 100.579 45.225 100.579 47.2454C100.579 49.2659 98.9405 50.9045 96.9199 50.9045C96.6242 50.9045 96.3369 50.8683 96.0615 50.802L94.0986 49.5754C93.5756 48.9427 93.2617 48.1304 93.2617 47.2454C93.2619 45.2251 94.8996 43.5873 96.9199 43.5872Z" fill="#EEEEEF"/>
<path d="M96.9199 43.5872V43.0994H96.9199L96.9199 43.5872ZM100.579 47.2454H101.067V47.2453L100.579 47.2454ZM96.9199 50.9045L96.9199 51.3923H96.9199V50.9045ZM96.0615 50.802L95.803 51.2157L95.8703 51.2577L95.9474 51.2763L96.0615 50.802ZM94.0986 49.5754L93.7227 49.8862L93.7731 49.9472L93.8401 49.9891L94.0986 49.5754ZM93.2617 47.2454L92.7739 47.2453V47.2454H93.2617ZM96.9199 43.5872V44.075C98.6711 44.075 100.091 45.4945 100.091 47.2454L100.579 47.2454L101.067 47.2453C101.067 44.9554 99.2096 43.0994 96.9199 43.0994V43.5872ZM100.579 47.2454H100.091C100.091 48.9965 98.6711 50.4167 96.9199 50.4167V50.9045V51.3923C99.2099 51.3923 101.067 49.5353 101.067 47.2454H100.579ZM96.9199 50.9045L96.92 50.4167C96.6643 50.4167 96.4152 50.3854 96.1756 50.3277L96.0615 50.802L95.9474 51.2763C96.2586 51.3511 96.5842 51.3923 96.9199 51.3923L96.9199 50.9045ZM96.0615 50.802L96.32 50.3883L94.3571 49.1618L94.0986 49.5754L93.8401 49.9891L95.803 51.2157L96.0615 50.802ZM94.0986 49.5754L94.4746 49.2646C94.0213 48.7163 93.7495 48.0131 93.7495 47.2454H93.2617H92.7739C92.7739 48.2477 93.1299 49.1691 93.7227 49.8862L94.0986 49.5754ZM93.2617 47.2454L93.7495 47.2454C93.7497 45.4945 95.169 44.0751 96.92 44.075L96.9199 43.5872L96.9199 43.0994C94.6302 43.0996 92.7741 44.9557 92.7739 47.2453L93.2617 47.2454Z" fill="#939597" mask="url(#path-16-inside-1_3495_2053)"/>
<defs>
<filter id="filter0_d_3495_2053" x="50.9634" y="38.1768" width="39.9517" height="47.6317" filterUnits="userSpaceOnUse" color-interpolation-filters="sRGB">
<feFlood flood-opacity="0" result="BackgroundImageFix"/>
<feColorMatrix in="SourceAlpha" type="matrix" values="0 0 0 0 0 0 0 0 0 0 0 0 0 0 0 0 0 0 127 0" result="hardAlpha"/>
<feOffset dx="-0.487805" dy="0.97561"/>
<feComposite in2="hardAlpha" operator="out"/>
<feColorMatrix type="matrix" values="0 0 0 0 0.576471 0 0 0 0 0.584314 0 0 0 0 0.592157 0 0 0 1 0"/>
<feBlend mode="normal" in2="BackgroundImageFix" result="effect1_dropShadow_3495_2053"/>
<feBlend mode="normal" in="SourceGraphic" in2="effect1_dropShadow_3495_2053" result="shape"/>
</filter>
<filter id="filter1_d_3495_2053" x="88.7453" y="35.0061" width="41.4849" height="41.4318" filterUnits="userSpaceOnUse" color-interpolation-filters="sRGB">
<feFlood flood-opacity="0" result="BackgroundImageFix"/>
<feColorMatrix in="SourceAlpha" type="matrix" values="0 0 0 0 0 0 0 0 0 0 0 0 0 0 0 0 0 0 127 0" result="hardAlpha"/>
<feOffset dx="-0.97561" dy="0.97561"/>
<feComposite in2="hardAlpha" operator="out"/>
<feColorMatrix type="matrix" values="0 0 0 0 0.576471 0 0 0 0 0.584314 0 0 0 0 0.592157 0 0 0 1 0"/>
<feBlend mode="normal" in2="BackgroundImageFix" result="effect1_dropShadow_3495_2053"/>
<feBlend mode="normal" in="SourceGraphic" in2="effect1_dropShadow_3495_2053" result="shape"/>
</filter>
</defs>
</svg>
