<svg width="64" height="64" viewBox="0 0 64 64" fill="none" xmlns="http://www.w3.org/2000/svg">
<circle cx="32" cy="32" r="32" fill="#E6F6EA"/>
<path fill-rule="evenodd" clip-rule="evenodd" d="M27.9233 36.0764L44.444 19.5557L46.9582 22.0698L27.9233 41.1047L17.7773 30.9587L20.2915 28.4446L27.9233 36.0764Z" fill="#00AB4E"/>
<path fill-rule="evenodd" clip-rule="evenodd" d="M46.9723 17.9781L46.7255 17.7369C45.3672 16.5309 43.3644 16.6113 42.092 17.9781L27.8226 33.3072L21.908 26.9533C20.5561 25.501 18.3796 25.501 17.0277 26.9533C15.6574 28.4254 15.6574 30.8255 17.0277 32.2976L24.4542 40.2755C26.3188 42.2786 29.3265 42.2786 31.1911 40.2755L46.9723 23.3224C48.2569 21.9423 48.3372 19.7466 47.2131 18.2646L46.9723 17.9781Z" fill="#009E3D"/>
<mask id="mask0_1273_25815" style="mask-type:alpha" maskUnits="userSpaceOnUse" x="16" y="16" width="32" height="26">
<path fill-rule="evenodd" clip-rule="evenodd" d="M46.9723 17.9781L46.7255 17.7369C45.3672 16.5309 43.3644 16.6113 42.092 17.9781L27.8226 33.3072L21.908 26.9533C20.5561 25.501 18.3796 25.501 17.0277 26.9533C15.6574 28.4254 15.6574 30.8255 17.0277 32.2976L24.4542 40.2755C26.3188 42.2786 29.3265 42.2786 31.1911 40.2755L46.9723 23.3224C48.2569 21.9423 48.3372 19.7466 47.2131 18.2646L46.9723 17.9781Z" fill="white"/>
</mask>
<g mask="url(#mask0_1273_25815)">
<rect x="10.666" y="8" width="42.6667" height="42.6667" fill="#00AB4E"/>
</g>
</svg>
