<svg width="16" height="16" viewBox="0 0 16 16" fill="none" xmlns="http://www.w3.org/2000/svg">
<path fill-rule="evenodd" clip-rule="evenodd" d="M7.99331 1.33337C4.31331 1.33337 1.33331 4.32004 1.33331 8.00004C1.33331 11.68 4.31331 14.6667 7.99331 14.6667C11.68 14.6667 14.6666 11.68 14.6666 8.00004C14.6666 4.32004 11.68 1.33337 7.99331 1.33337ZM7.99998 13.3334C5.05331 13.3334 2.66665 10.9467 2.66665 8.00004C2.66665 5.05337 5.05331 2.66671 7.99998 2.66671C10.9466 2.66671 13.3333 5.05337 13.3333 8.00004C13.3333 10.9467 10.9466 13.3334 7.99998 13.3334ZM7.81331 4.66671H7.85331C8.11998 4.66671 8.33331 4.88004 8.33331 5.14671V8.17337L10.9133 9.70671C11.1466 9.84004 11.22 10.14 11.08 10.3667C10.9466 10.5934 10.6533 10.66 10.4266 10.5267L7.65998 8.86671C7.45331 8.74671 7.33331 8.52671 7.33331 8.29337V5.14671C7.33331 4.88004 7.54665 4.66671 7.81331 4.66671Z" fill="black"/>
<mask id="mask0" mask-type="alpha" maskUnits="userSpaceOnUse" x="1" y="1" width="14" height="14">
<path fill-rule="evenodd" clip-rule="evenodd" d="M7.99331 1.33337C4.31331 1.33337 1.33331 4.32004 1.33331 8.00004C1.33331 11.68 4.31331 14.6667 7.99331 14.6667C11.68 14.6667 14.6666 11.68 14.6666 8.00004C14.6666 4.32004 11.68 1.33337 7.99331 1.33337ZM7.99998 13.3334C5.05331 13.3334 2.66665 10.9467 2.66665 8.00004C2.66665 5.05337 5.05331 2.66671 7.99998 2.66671C10.9466 2.66671 13.3333 5.05337 13.3333 8.00004C13.3333 10.9467 10.9466 13.3334 7.99998 13.3334ZM7.81331 4.66671H7.85331C8.11998 4.66671 8.33331 4.88004 8.33331 5.14671V8.17337L10.9133 9.70671C11.1466 9.84004 11.22 10.14 11.08 10.3667C10.9466 10.5934 10.6533 10.66 10.4266 10.5267L7.65998 8.86671C7.45331 8.74671 7.33331 8.52671 7.33331 8.29337V5.14671C7.33331 4.88004 7.54665 4.66671 7.81331 4.66671Z" fill="white"/>
</mask>
<g mask="url(#mask0)">
<rect width="16" height="16" fill="white"/>
</g>
</svg>
