<svg width="16" height="16" viewBox="0 0 16 16" fill="none" xmlns="http://www.w3.org/2000/svg">
<path fill-rule="evenodd" clip-rule="evenodd" d="M7.99334 1.33334C4.31334 1.33334 1.33334 4.32001 1.33334 8.00001C1.33334 11.68 4.31334 14.6667 7.99334 14.6667C11.68 14.6667 14.6667 11.68 14.6667 8.00001C14.6667 4.32001 11.68 1.33334 7.99334 1.33334ZM8.00001 13.3333C5.05334 13.3333 2.66668 10.9467 2.66668 8.00001C2.66668 5.05334 5.05334 2.66668 8.00001 2.66668C10.9467 2.66668 13.3333 5.05334 13.3333 8.00001C13.3333 10.9467 10.9467 13.3333 8.00001 13.3333ZM7.81334 4.66668H7.85334C8.12001 4.66668 8.33334 4.88001 8.33334 5.14668V8.17334L10.9133 9.70668C11.1467 9.84001 11.22 10.14 11.08 10.3667C10.9467 10.5933 10.6533 10.66 10.4267 10.5267L7.66001 8.86668C7.45334 8.74668 7.33334 8.52668 7.33334 8.29334V5.14668C7.33334 4.88001 7.54668 4.66668 7.81334 4.66668Z" fill="black"/>
<mask id="mask0" mask-type="alpha" maskUnits="userSpaceOnUse" x="1" y="1" width="14" height="14">
<path fill-rule="evenodd" clip-rule="evenodd" d="M7.99334 1.33334C4.31334 1.33334 1.33334 4.32001 1.33334 8.00001C1.33334 11.68 4.31334 14.6667 7.99334 14.6667C11.68 14.6667 14.6667 11.68 14.6667 8.00001C14.6667 4.32001 11.68 1.33334 7.99334 1.33334ZM8.00001 13.3333C5.05334 13.3333 2.66668 10.9467 2.66668 8.00001C2.66668 5.05334 5.05334 2.66668 8.00001 2.66668C10.9467 2.66668 13.3333 5.05334 13.3333 8.00001C13.3333 10.9467 10.9467 13.3333 8.00001 13.3333ZM7.81334 4.66668H7.85334C8.12001 4.66668 8.33334 4.88001 8.33334 5.14668V8.17334L10.9133 9.70668C11.1467 9.84001 11.22 10.14 11.08 10.3667C10.9467 10.5933 10.6533 10.66 10.4267 10.5267L7.66001 8.86668C7.45334 8.74668 7.33334 8.52668 7.33334 8.29334V5.14668C7.33334 4.88001 7.54668 4.66668 7.81334 4.66668Z" fill="white"/>
</mask>
<g mask="url(#mask0)">
<rect width="16" height="16" fill="#58585B"/>
</g>
</svg>
