<svg width="64" height="64" viewBox="0 0 64 64" fill="none" xmlns="http://www.w3.org/2000/svg">
<path d="M32 64C49.6731 64 64 49.6731 64 32C64 14.3269 49.6731 0 32 0C14.3269 0 0 14.3269 0 32C0 49.6731 14.3269 64 32 64Z" fill="#E8F1F9"/>
<path d="M42.02 14.65H21.28C18.988 14.65 17.13 16.508 17.13 18.8V43.69C17.13 45.982 18.988 47.84 21.28 47.84H42.02C44.312 47.84 46.17 45.982 46.17 43.69V18.8C46.17 16.508 44.312 14.65 42.02 14.65Z" fill="#A3C7E6"/>
<path d="M43.06 42.65V17.76C43.06 16.51 42.5 15.41 41.63 14.65H21.28C18.99 14.65 17.13 16.51 17.13 18.8V43.69C17.13 44.94 17.69 46.04 18.56 46.8H38.91C41.2 46.8 43.06 44.94 43.06 42.65Z" fill="#E9F1F9"/>
<path d="M42.02 48.25H21.28C19.14 48.25 17.31 46.79 16.84 44.71C16.8 44.54 16.78 44.4 16.76 44.26V44.18C16.73 44.02 16.72 43.85 16.72 43.69V18.8C16.72 18.04 16.91 17.29 17.27 16.62C17.55 16.1 17.92 15.65 18.38 15.27C19.19 14.6 20.23 14.23 21.28 14.23H42.02C44.54 14.23 46.58 16.28 46.58 18.79V43.68C46.58 46.2 44.53 48.24 42.02 48.24V48.25ZM21.28 15.06C20.41 15.06 19.57 15.36 18.91 15.91C18.54 16.22 18.23 16.59 18 17.01C17.71 17.55 17.55 18.17 17.55 18.79V43.68C17.55 43.82 17.55 43.95 17.57 44.08V44.15C17.6 44.26 17.61 44.38 17.64 44.49C18.04 46.22 19.53 47.42 21.28 47.42H42.02C44.08 47.42 45.75 45.75 45.75 43.69V18.8C45.75 16.74 44.08 15.07 42.02 15.07H21.28V15.06Z" fill="#252528"/>
<path d="M22.52 25.23H37.04C37.61 25.23 38.08 25.69 38.08 26.27C38.08 26.84 37.62 27.31 37.04 27.31H22.52C21.95 27.31 21.48 26.85 21.48 26.27C21.48 25.7 21.94 25.23 22.52 25.23Z" fill="#1968AB"/>
<path d="M22.52 33.52H37.04C37.61 33.52 38.08 33.98 38.08 34.56C38.08 35.13 37.62 35.6 37.04 35.6H22.52C21.95 35.6 21.48 35.14 21.48 34.56C21.48 33.99 21.94 33.52 22.52 33.52Z" fill="#1968AB"/>
<path fill-rule="evenodd" clip-rule="evenodd" d="M37.65 19.8301H25.65C23.24 19.8301 21.28 17.7701 21.28 15.2401V14.3901C21.28 13.3901 22.05 12.5801 23.01 12.5801H40.29C41.24 12.5801 42.02 13.3901 42.02 14.3901V15.2401C42.02 17.7801 40.06 19.8301 37.65 19.8301Z" fill="#CC9D3F"/>
<path d="M39.95 15.2401V14.3901C39.95 13.3901 39.18 12.5801 38.22 12.5801H23.01C22.06 12.5801 21.28 13.3901 21.28 14.3901V15.2401C21.28 17.7801 23.24 19.8301 25.65 19.8301H35.57C37.98 19.8301 39.94 17.7701 39.94 15.2401H39.95Z" fill="#FFC54F"/>
<path d="M37.65 20.25H25.65C23.01 20.25 20.86 18 20.86 15.24V14.39C20.86 13.16 21.82 12.16 23 12.16H40.28C41.46 12.16 42.42 13.16 42.42 14.39V15.24C42.42 18 40.27 20.25 37.63 20.25H37.65ZM23.01 12.99C22.29 12.99 21.7 13.62 21.7 14.39V15.24C21.7 17.54 23.48 19.42 25.66 19.42H37.66C39.84 19.42 41.62 17.55 41.62 15.24V14.39C41.62 13.62 41.03 12.99 40.31 12.99H23.03H23.01Z" fill="#252528"/>
<path fill-rule="evenodd" clip-rule="evenodd" d="M37.7 40.43C39.48 40.43 40.92 38.75 40.92 36.67C40.92 34.59 39.48 32.91 37.7 32.91C35.92 32.91 34.48 34.59 34.48 36.67C34.48 38.75 35.92 40.43 37.7 40.43Z" fill="#00883E"/>
<path fill-rule="evenodd" clip-rule="evenodd" d="M36.42 40.43C38.05 40.43 39.37 38.82 39.37 36.84C39.37 34.86 38.05 33.25 36.42 33.25C34.79 33.25 33.47 34.86 33.47 36.84C33.47 38.82 34.79 40.43 36.42 40.43Z" fill="#00AB4E"/>
<path fill-rule="evenodd" clip-rule="evenodd" d="M37.97 42.04C34.66 42.04 31.83 43.58 30.66 45.58C30.11 46.51 30.76 47.7 31.81 47.78C33 47.87 34.93 47.95 37.98 47.95C41.03 47.95 42.96 47.87 44.15 47.78C45.2 47.7 45.84 46.51 45.3 45.58C44.13 43.59 41.29 42.04 37.99 42.04H37.97Z" fill="#00883E"/>
<path fill-rule="evenodd" clip-rule="evenodd" d="M36.36 42.04C33.05 42.13 30.22 43.58 29.05 45.58C28.5 46.51 29.15 47.7 30.2 47.78C31.39 47.87 33.32 47.95 36.37 47.95C39.42 47.95 39.49 47.87 40.67 47.78C41.72 47.7 42.36 46.51 41.82 45.58C41.25 43.84 39.08 41.97 36.37 42.04H36.36Z" fill="#00AB4E"/>
<path d="M25.22 53.9402C24.29 54.8702 22.79 54.8702 21.86 53.9402C20.93 53.0102 20.93 51.5102 21.86 50.5802L28.03 44.4102L31.39 47.7702L25.22 53.9402Z" fill="#1868AB"/>
<path d="M28.31 50.8502L24.95 47.4902L28.02 44.4202L31.38 47.7802L28.31 50.8502Z" fill="#0F5895"/>
<path opacity="0.4" d="M36.9299 26.9801C43.4999 26.9801 48.8199 32.3001 48.8199 38.8701C48.8199 45.4401 43.4999 50.7601 36.9299 50.7601C30.3599 50.7601 25.0399 45.4401 25.0399 38.8701C25.0399 32.3001 30.3599 26.9801 36.9299 26.9801Z" fill="#E8F1F9"/>
<path d="M25.0399 38.8701C25.0399 32.3101 30.3699 26.9801 36.9299 26.9801C43.4899 26.9801 48.8199 32.3101 48.8199 38.8701C48.8199 45.4301 43.4899 50.7601 36.9299 50.7601C30.3699 50.7601 25.0399 45.4301 25.0399 38.8701ZM28.2099 38.8701C28.2099 43.6801 32.1199 47.5901 36.9299 47.5901C41.7399 47.5901 45.6499 43.6801 45.6499 38.8701C45.6499 34.0601 41.7399 30.1501 36.9299 30.1501C32.1199 30.1501 28.2099 34.0601 28.2099 38.8701Z" fill="#5297D1"/>
<path d="M36.8399 50.8901C30.1299 50.8901 24.6799 45.4301 24.6799 38.7301C24.6799 32.0301 30.1399 26.5701 36.8399 26.5701C43.5399 26.5701 48.9999 32.0301 48.9999 38.7301C48.9999 45.4301 43.5399 50.8901 36.8399 50.8901ZM36.8399 27.4001C30.5899 27.4001 25.5099 32.4801 25.5099 38.7301C25.5099 44.9801 30.5899 50.0601 36.8399 50.0601C43.0899 50.0601 48.1699 44.9801 48.1699 38.7301C48.1699 32.4801 43.0899 27.4001 36.8399 27.4001Z" fill="#252528"/>
<path d="M36.8399 48.0001C31.7299 48.0001 27.5699 43.8401 27.5699 38.7301C27.5699 33.6201 31.7299 29.4601 36.8399 29.4601C41.9499 29.4601 46.1099 33.6201 46.1099 38.7301C46.1099 43.8401 41.9499 48.0001 36.8399 48.0001ZM36.8399 30.3001C32.1899 30.3001 28.4099 34.0801 28.4099 38.7301C28.4099 43.3801 32.1899 47.1601 36.8399 47.1601C41.4899 47.1601 45.2699 43.3801 45.2699 38.7301C45.2699 34.0801 41.4899 30.3001 36.8399 30.3001Z" fill="#252528"/>
<path d="M37.13 41.08C34.81 41.08 32.91 39.16 32.91 36.8C32.91 34.44 34.8 32.52 37.13 32.52C39.46 32.52 41.35 34.44 41.35 36.8C41.35 39.16 39.46 41.08 37.13 41.08ZM37.13 33.36C35.26 33.36 33.75 34.91 33.75 36.81C33.75 38.71 35.27 40.26 37.13 40.26C38.99 40.26 40.51 38.71 40.51 36.81C40.51 34.91 38.99 33.36 37.13 33.36Z" fill="#252528"/>
<path d="M30.38 44.7001L29.71 44.2101C29.78 44.1101 31.46 41.8601 37.2 41.8601C42.31 41.8601 43.98 43.7901 44.05 43.8801L43.41 44.4101C43.41 44.4101 41.87 42.6901 37.2 42.6901C31.94 42.6901 30.4 44.6801 30.38 44.7001Z" fill="#252528"/>
<path d="M23.27 55.0001C23.27 55.0001 23.18 55.0001 23.14 55.0001C22.45 54.9601 21.85 54.6301 21.37 54.0201C20.21 52.5701 21.14 50.8001 21.79 50.0701L26.96 45.0901L27.54 45.6901L22.39 50.6501C22.39 50.6501 21.01 52.2401 22.02 53.5101C22.36 53.9301 22.74 54.1501 23.19 54.1801C24.05 54.2201 25.05 53.5401 25.71 52.8801C26.96 51.6201 30.02 48.2601 30.05 48.2301L30.67 48.7901C30.67 48.7901 27.57 52.2001 26.3 53.4701C25.83 53.9401 24.61 55.0101 23.28 55.0101L23.27 55.0001Z" fill="#252528"/>
</svg>
