<svg width="64" height="64" viewBox="0 0 64 64" fill="none" xmlns="http://www.w3.org/2000/svg">
<path d="M32 63.58C49.5571 63.58 63.79 49.3471 63.79 31.79C63.79 14.2329 49.5571 0 32 0C14.4428 0 0.209961 14.2329 0.209961 31.79C0.209961 49.3471 14.4428 63.58 32 63.58Z" fill="#EDF3F7"/>
<path d="M42.83 13.6101H21.54C19.1873 13.6101 17.28 15.5174 17.28 17.8701V43.4201C17.28 45.7728 19.1873 47.6801 21.54 47.6801H42.83C45.1828 47.6801 47.09 45.7728 47.09 43.4201V17.8701C47.09 15.5174 45.1828 13.6101 42.83 13.6101Z" fill="#A3C7E6"/>
<path d="M43.89 42.36V16.81C43.89 15.53 43.31 14.4 42.42 13.62H21.53C19.18 13.62 17.27 15.53 17.27 17.88V43.43C17.27 44.71 17.85 45.84 18.74 46.62H39.63C41.98 46.62 43.89 44.71 43.89 42.36Z" fill="#E9F1F9"/>
<path d="M42.83 48.1101H21.54C19.34 48.1101 17.47 46.6201 16.98 44.4701C16.94 44.2901 16.92 44.1501 16.9 44.0101V43.9301C16.87 43.7601 16.86 43.5901 16.86 43.4201V17.8701C16.86 17.0901 17.06 16.3201 17.43 15.6401C17.72 15.1101 18.1 14.6401 18.57 14.2601C19.41 13.5701 20.47 13.1901 21.55 13.1901H42.84C45.42 13.1901 47.53 15.2901 47.53 17.8701V43.4201C47.53 46.0001 45.43 48.1001 42.84 48.1001L42.83 48.1101ZM21.53 14.0401C20.64 14.0401 19.78 14.3501 19.09 14.9201C18.71 15.2401 18.39 15.6201 18.16 16.0501C17.86 16.6101 17.7 17.2401 17.7 17.8801V43.4301C17.7 43.5701 17.7 43.7101 17.72 43.8401V43.9101C17.75 44.0301 17.76 44.1401 17.79 44.2501C18.2 46.0301 19.73 47.2501 21.53 47.2501H42.82C44.93 47.2501 46.65 45.5301 46.65 43.4201V17.8701C46.65 15.7601 44.93 14.0401 42.82 14.0401H21.53Z" fill="#252528"/>
<path d="M24.09 24.9H38.99C39.58 24.9 40.05 25.38 40.05 25.96C40.05 26.55 39.57 27.02 38.99 27.02H24.09C23.5 27.02 23.03 26.54 23.03 25.96C23.03 25.37 23.51 24.9 24.09 24.9Z" fill="#1968AB"/>
<path d="M24.09 32.5601H38.99C39.58 32.5601 40.05 33.0401 40.05 33.6201C40.05 34.2101 39.57 34.6801 38.99 34.6801H24.09C23.5 34.6801 23.03 34.2001 23.03 33.6201C23.03 33.0301 23.51 32.5601 24.09 32.5601Z" fill="#1968AB"/>
<path fill-rule="evenodd" clip-rule="evenodd" d="M38.34 18.9301H26.03C23.55 18.9301 21.54 16.8201 21.54 14.2201V13.3401C21.54 12.3101 22.33 11.4801 23.31 11.4801H41.05C42.03 11.4801 42.82 12.3101 42.82 13.3401V14.2201C42.82 16.8201 40.81 18.9301 38.33 18.9301H38.34Z" fill="#CC9D3F"/>
<path d="M40.6999 14.2201V13.3401C40.6999 12.3101 39.9099 11.4801 38.9299 11.4801H23.3199C22.3399 11.4801 21.5499 12.3101 21.5499 13.3401V14.2201C21.5499 16.8201 23.5599 18.9301 26.0399 18.9301H36.2199C38.6999 18.9301 40.7099 16.8201 40.7099 14.2201H40.6999Z" fill="#FFC54F"/>
<path d="M38.34 19.36H26.03C23.32 19.36 21.11 17.05 21.11 14.22V13.34C21.11 12.08 22.1 11.05 23.31 11.05H41.05C42.26 11.05 43.25 12.08 43.25 13.34V14.22C43.25 17.05 41.04 19.36 38.33 19.36H38.34ZM23.31 11.91C22.57 11.91 21.96 12.55 21.96 13.35V14.23C21.96 16.59 23.78 18.52 26.02 18.52H38.33C40.57 18.52 42.39 16.6 42.39 14.23V13.35C42.39 12.56 41.79 11.91 41.04 11.91H23.3H23.31Z" fill="#252528"/>
<path d="M44.18 45.0501C43.61 44.9801 43.04 44.9201 42.48 44.8501C41.26 44.7101 40.03 44.5701 38.81 44.4301C38.01 44.3401 37.21 44.2401 36.41 44.1601C36.29 44.1501 36.23 44.1101 36.17 44.0001C35.39 42.5201 34.61 41.0501 33.84 39.5601C33.2 38.3301 33.94 36.9301 35.32 36.7601C35.67 36.7201 36.01 36.8001 36.33 36.9401C38.64 37.9401 40.94 38.9301 43.25 39.9301C45.89 41.0701 48.52 42.2101 51.16 43.3401C51.91 43.6601 52.35 44.2201 52.35 45.0401C52.35 45.8501 51.96 46.4201 51.22 46.7401C49.71 47.4001 48.2 48.0501 46.69 48.7001C43.22 50.2001 39.75 51.7001 36.28 53.1901C35.16 53.6701 33.95 53.0901 33.65 51.9201C33.54 51.4801 33.58 51.0401 33.79 50.6401C34.58 49.1201 35.38 47.6101 36.19 46.0901C36.22 46.0301 36.32 45.9801 36.39 45.9701C37.96 45.7801 39.53 45.6001 41.1 45.4201C42.09 45.3101 43.09 45.1901 44.08 45.0801C44.11 45.0801 44.15 45.0701 44.18 45.0601C44.18 45.0501 44.18 45.0301 44.18 45.0201V45.0501Z" fill="#5DC792"/>
<path d="M35.4 53.8C35.05 53.8 34.7 53.72 34.38 53.57C33.78 53.27 33.33 52.72 33.16 52.05C33.02 51.5 33.08 50.95 33.33 50.47C34.12 48.95 34.93 47.44 35.73 45.92C35.84 45.71 36.07 45.6 36.25 45.57C37.68 45.4 39.12 45.23 40.55 45.07L38.16 44.8C37.53 44.73 36.9 44.66 36.27 44.59C36.01 44.56 35.82 44.44 35.7 44.21C35.36 43.57 35.03 42.93 34.69 42.29C34.25 41.45 33.81 40.61 33.37 39.77C33 39.06 32.99 38.26 33.35 37.58C33.71 36.9 34.38 36.45 35.18 36.36C35.57 36.31 35.97 36.38 36.41 36.58L45.3 40.42C47.28 41.27 49.25 42.13 51.23 42.98C52.17 43.39 52.67 44.11 52.68 45.07C52.68 46.03 52.2 46.78 51.3 47.17C50.17 47.66 49.04 48.15 47.92 48.63L44.41 50.14C41.73 51.3 39.04 52.46 36.36 53.61C36.04 53.75 35.71 53.81 35.39 53.81L35.4 53.8ZM36.44 46.4C35.65 47.88 34.87 49.36 34.09 50.85C33.93 51.15 33.9 51.48 33.99 51.83C34.1 52.27 34.37 52.61 34.76 52.8C35.15 52.99 35.61 53 36.04 52.81C38.72 51.66 41.41 50.5 44.09 49.34L47.6 47.83C48.73 47.34 49.85 46.86 50.98 46.37C51.57 46.11 51.86 45.68 51.85 45.06C51.85 44.44 51.55 44.02 50.91 43.75C48.93 42.9 46.96 42.05 44.98 41.19L36.09 37.35C35.79 37.22 35.53 37.17 35.3 37.2C34.78 37.26 34.35 37.54 34.12 37.98C33.89 38.41 33.9 38.92 34.14 39.38C34.58 40.22 35.02 41.06 35.46 41.9C35.79 42.52 36.11 43.14 36.44 43.76C37.05 43.83 37.66 43.9 38.27 43.97L44.16 44.65C44.38 44.68 44.54 44.87 44.54 45.09H44.11L44.54 45.1C44.54 45.31 44.39 45.5 44.18 45.53C44.12 45.54 44.09 45.55 44.06 45.55L41.08 45.89C39.52 46.07 37.98 46.25 36.45 46.43L36.44 46.4Z" fill="#252528"/>
</svg>
