<svg width="96" height="96" viewBox="0 0 96 96" fill="none" xmlns="http://www.w3.org/2000/svg">
    <mask id="path-1-inside-1_36229_201195" fill="white">
        <path d="M33.5908 7.99219L29.3721 17.9277L23.6289 21.6445V20.8711L18 24.6494V83.9658C18.0001 86.1881 19.676 87.9893 21.7432 87.9893H22.8076C22.8264 87.9904 22.8452 87.9922 22.8643 87.9922H74.1172C76.2615 87.9922 78 86.1902 78 83.9678V12.0166C78 9.79422 76.2615 7.99219 74.1172 7.99219H33.5908Z"/>
    </mask>
    <path d="M33.5908 7.99219L29.3721 17.9277L23.6289 21.6445V20.8711L18 24.6494V83.9658C18.0001 86.1881 19.676 87.9893 21.7432 87.9893H22.8076C22.8264 87.9904 22.8452 87.9922 22.8643 87.9922H74.1172C76.2615 87.9922 78 86.1902 78 83.9678V12.0166C78 9.79422 76.2615 7.99219 74.1172 7.99219H33.5908Z" fill="#EEEEEF"/>
    <path d="M33.5908 7.99219L32.6704 7.60135L32.929 6.99219H33.5908V7.99219ZM29.3721 17.9277L30.2925 18.3186L30.1727 18.6007L29.9154 18.7673L29.3721 17.9277ZM23.6289 21.6445L24.1722 22.4841L22.6289 23.4828V21.6445H23.6289ZM23.6289 20.8711L23.0716 20.0408L24.6289 18.9955V20.8711H23.6289ZM18 24.6494H17V24.1163L17.4427 23.8191L18 24.6494ZM18 83.9658L17 83.9659V83.9658H18ZM22.8076 87.9893V86.9893H22.8392L22.8707 86.9912L22.8076 87.9893ZM22.8643 87.9922V88.9922H22.8642L22.8643 87.9922ZM33.5908 7.99219L34.5113 8.38303L30.2925 18.3186L29.3721 17.9277L28.4516 17.5369L32.6704 7.60135L33.5908 7.99219ZM29.3721 17.9277L29.9154 18.7673L24.1722 22.4841L23.6289 21.6445L23.0856 20.805L28.8288 17.0882L29.3721 17.9277ZM23.6289 21.6445H22.6289V20.8711H23.6289H24.6289V21.6445H23.6289ZM23.6289 20.8711L24.1862 21.7014L18.5573 25.4797L18 24.6494L17.4427 23.8191L23.0716 20.0408L23.6289 20.8711ZM18 24.6494H19V83.9658H18H17V24.6494H18ZM18 83.9658L19 83.9658C19.0001 85.705 20.2951 86.9893 21.7432 86.9893V87.9893V88.9893C19.057 88.9893 17.0002 86.6712 17 83.9659L18 83.9658ZM21.7432 87.9893V86.9893H22.8076V87.9893V88.9893H21.7432V87.9893ZM22.8076 87.9893L22.8707 86.9912C22.8796 86.9918 22.8881 86.9924 22.8918 86.9927C22.8969 86.993 22.8977 86.9931 22.8977 86.9931C22.8973 86.9931 22.8937 86.9928 22.8883 86.9926C22.8828 86.9924 22.8746 86.9922 22.8643 86.9922L22.8643 87.9922L22.8642 88.9922C22.8254 88.9922 22.793 88.9904 22.774 88.9893C22.7646 88.9887 22.7559 88.9881 22.7516 88.9878C22.749 88.9876 22.7475 88.9875 22.7461 88.9874C22.7449 88.9873 22.7445 88.9873 22.7445 88.9873L22.8076 87.9893ZM22.8643 87.9922V86.9922H74.1172V87.9922V88.9922H22.8643V87.9922ZM74.1172 87.9922V86.9922C75.6757 86.9922 77 85.672 77 83.9678H78H79C79 86.7084 76.8473 88.9922 74.1172 88.9922V87.9922ZM78 83.9678H77V12.0166H78H79V83.9678H78ZM78 12.0166H77C77 10.3124 75.6757 8.99219 74.1172 8.99219V7.99219V6.99219C76.8473 6.99219 79 9.27602 79 12.0166H78ZM74.1172 7.99219V8.99219H33.5908V7.99219V6.99219H74.1172V7.99219Z" fill="#252528" mask="url(#path-1-inside-1_36229_201195)"/>
    <path d="M32.9893 19.8516L33.083 9.26953L19.2539 24.0322L29.7051 23.1367L29.7266 23.1348H29.7471C31.5328 23.1348 32.9891 21.6714 32.9893 19.8564V19.8516Z" fill="#BBBDC0" stroke="#252528"/>
    <rect x="27.9922" y="29.4805" width="40" height="3" rx="1.5" fill="#58585B"/>
    <rect x="27.9766" y="39.4805" width="40" height="3" rx="1.5" fill="#58585B"/>
    <rect x="27.9922" y="49.4805" width="40" height="3" rx="1.5" fill="#58585B"/>
    <path d="M16 57.9805H80C81.933 57.9805 83.5 59.5475 83.5 61.4805V73.4805C83.5 75.4135 81.933 76.9805 80 76.9805H16C14.067 76.9805 12.5 75.4135 12.5 73.4805V61.4805C12.5 59.5475 14.067 57.9805 16 57.9805Z" fill="#5297D1" stroke="#252528"/>
    <path d="M37.852 71V62.54H39.712V71H37.852ZM41.4268 71V62.54H42.9748L46.0348 68.108H45.6268L48.6748 62.54H50.1988V71H48.5068V65.384H48.7708L46.3228 69.728H45.2788L42.8188 65.372H43.1068V71H41.4268ZM56.1025 71.132C55.1505 71.132 54.3425 70.952 53.6785 70.592C53.0225 70.232 52.5225 69.728 52.1785 69.08C51.8345 68.432 51.6625 67.672 51.6625 66.8C51.6625 65.904 51.8385 65.128 52.1905 64.472C52.5505 63.816 53.0665 63.308 53.7385 62.948C54.4185 62.588 55.2265 62.408 56.1625 62.408C56.5625 62.408 56.9465 62.448 57.3145 62.528C57.6825 62.6 58.0225 62.704 58.3345 62.84C58.6545 62.976 58.9265 63.14 59.1505 63.332L58.5505 64.784C58.1825 64.512 57.8065 64.32 57.4225 64.208C57.0385 64.088 56.6225 64.028 56.1745 64.028C55.3185 64.028 54.6745 64.264 54.2425 64.736C53.8185 65.208 53.6065 65.896 53.6065 66.8C53.6065 67.704 53.8225 68.388 54.2545 68.852C54.6945 69.316 55.3425 69.548 56.1985 69.548C56.4865 69.548 56.7825 69.52 57.0865 69.464C57.3905 69.408 57.6905 69.328 57.9865 69.224L57.6385 69.98V67.676H55.8145V66.332H59.1745V70.484C58.9025 70.62 58.5945 70.736 58.2505 70.832C57.9145 70.928 57.5625 71 57.1945 71.048C56.8265 71.104 56.4625 71.132 56.1025 71.132Z" fill="white"/>
</svg>
