<svg width="20" height="24" viewBox="0 0 20 24" fill="none" xmlns="http://www.w3.org/2000/svg">
<path fill-rule="evenodd" clip-rule="evenodd" d="M3.32612 2.28284C3.154 1.07797 4.08892 0 5.30602 0H14.694C15.9111 0 16.846 1.07798 16.6739 2.28284L16.6322 2.57447L17.7077 2.76775C18.4922 2.90875 19.116 3.50071 19.2573 4.28523C19.5536 5.93074 20 8.99215 20 12.5C20 16.1624 19.5134 19.8248 19.219 21.7049C19.0955 22.4939 18.4968 23.1109 17.7106 23.2514C16.0532 23.5476 13.0266 24 10 24C6.97342 24 3.94684 23.5476 2.28935 23.2514C1.5032 23.1109 0.904478 22.4939 0.780964 21.7049C0.48664 19.8248 0 16.1624 0 12.5C0 8.99684 0.445247 5.93893 0.741542 4.29184C0.883271 3.50398 1.51141 2.91054 2.29994 2.7726L3.36936 2.58552L3.32612 2.28284ZM16.2453 5.28284L16.3136 4.80483L16.3247 4.80798C16.7526 4.92966 17.1016 5.23628 17.2265 5.6633C17.5215 6.67213 18 8.86827 18 12.5C18 16.3266 17.4688 19.0906 17.1807 20.3082C17.0763 20.7494 16.7555 21.0963 16.3197 21.2214C15.2934 21.516 13.1307 22 10 22C6.86928 22 4.7066 21.516 3.68033 21.2214C3.24449 21.0963 2.92373 20.7494 2.81933 20.3082C2.53125 19.0906 2 16.3266 2 12.5C2 8.87732 2.47615 6.68309 2.77132 5.67087C2.89709 5.23959 3.25108 4.93085 3.68419 4.81156L3.68725 4.81072L3.75469 5.28284C3.89545 6.26814 4.73929 7 5.73459 7H14.2654C15.2607 7 16.1046 6.26814 16.2453 5.28284ZM5 16C5 15.4477 5.44772 15 6 15H14C14.5523 15 15 15.4477 15 16C15 16.5523 14.5523 17 14 17H6C5.44772 17 5 16.5523 5 16ZM6 10C5.44772 10 5 10.4477 5 11C5 11.5523 5.44772 12 6 12H14C14.5523 12 15 11.5523 15 11C15 10.4477 14.5523 10 14 10H6ZM6.38743 2C5.70487 2 5.2229 2.6687 5.43874 3.31623L5.77208 4.31623C5.90819 4.72457 6.29033 5 6.72076 5H13.2792C13.7097 5 14.0918 4.72457 14.2279 4.31623L14.5613 3.31623C14.7771 2.6687 14.2951 2 13.6126 2H6.38743Z" fill="#58585B"/>
</svg>
