<svg width="32" height="32" viewBox="0 0 32 32" fill="none" xmlns="http://www.w3.org/2000/svg">
<path fill-rule="evenodd" clip-rule="evenodd" d="M27.9789 25.6512C28.3549 25.5951 28.4423 25.5725 28.5185 25.4969C28.5948 25.4212 28.6416 25.312 28.6416 24.9941C28.6416 17.361 28.6416 12.2186 28.6416 10.0381C28.6416 10.0141 28.6416 9.98637 28.6416 9.95668C28.6416 9.74431 28.4694 9.57214 28.2571 9.57214C20.2756 11.4115 13.9316 7.29521 5.95014 9.13456C5.59947 9.24434 5.52584 9.3197 5.46024 9.3902C5.39463 9.4607 5.33356 9.64033 5.33358 9.79715C5.33404 15.8196 5.33407 20.8595 5.3334 24.8986C5.33338 25.0501 5.43407 25.1972 5.58226 25.1661C5.60019 25.1623 5.6184 25.1573 5.63662 25.1506C13.6181 23.3104 18.3993 27.0809 27.9789 25.6512Z" fill="#00883E"/>
<path fill-rule="evenodd" clip-rule="evenodd" d="M25.9789 22.9977C26.3549 22.9438 26.4423 22.9221 26.5185 22.8495C26.5948 22.7768 26.6416 22.6719 26.6416 22.3665C26.6416 15.0345 26.6416 10.0949 26.6416 8.00039C26.6416 7.98148 26.6416 7.96017 26.6416 7.93738C26.6416 7.72501 26.4694 7.55284 26.2571 7.55284C18.2756 9.31964 11.9316 5.36571 3.95014 7.13251C3.59947 7.23797 3.52584 7.31035 3.46024 7.37807C3.39463 7.44579 3.33356 7.61834 3.33358 7.76897C3.33404 13.5539 3.33407 18.395 3.3334 22.2749C3.33338 22.4199 3.42989 22.559 3.57273 22.5336C3.59373 22.5298 3.61516 22.5244 3.63662 22.5168C11.6181 20.7493 16.3993 24.3711 25.9789 22.9977Z" fill="#00AB4E"/>
<path fill-rule="evenodd" clip-rule="evenodd" d="M14.9875 19.3102C17.3496 19.3102 19.2644 17.3962 19.2644 15.0349C19.2644 12.6736 17.3496 10.7588 14.9875 10.7588C12.6262 10.7588 10.7122 12.6736 10.7122 15.0349C10.7122 17.3962 12.6262 19.3102 14.9875 19.3102Z" fill="white"/>
<path d="M8.56689 9.49638H5.55415" stroke="white" stroke-width="2.37474" stroke-linecap="round"/>
<path d="M24.5037 20.8831H21.4909" stroke="white" stroke-width="2.37474" stroke-linecap="round"/>
</svg>
