<svg width="40" height="40" viewBox="0 0 40 40" fill="none" xmlns="http://www.w3.org/2000/svg">
<path d="M6.6665 9.99996C6.6665 8.15901 8.15889 6.66663 9.99984 6.66663H29.9998C31.8408 6.66663 33.3332 8.15901 33.3332 9.99996V30C33.3332 31.8409 31.8408 33.3333 29.9998 33.3333H9.99984C8.15889 33.3333 6.6665 31.8409 6.6665 30V9.99996Z" fill="#1868AB"/>
<path d="M9.1665 11.6666C9.1665 10.2859 10.2858 9.16663 11.6665 9.16663H28.3332C29.7139 9.16663 30.8332 10.2859 30.8332 11.6666V28.3333C30.8332 29.714 29.7139 30.8333 28.3332 30.8333H11.6665C10.2858 30.8333 9.1665 29.714 9.1665 28.3333V11.6666Z" fill="#5297D1"/>
<mask id="mask0" style="mask-type:alpha" maskUnits="userSpaceOnUse" x="9" y="9" width="22" height="22">
<path d="M9.1665 11.6666C9.1665 10.2859 10.2858 9.16663 11.6665 9.16663H28.3332C29.7139 9.16663 30.8332 10.2859 30.8332 11.6666V28.3333C30.8332 29.714 29.7139 30.8333 28.3332 30.8333H11.6665C10.2858 30.8333 9.1665 29.714 9.1665 28.3333V11.6666Z" fill="white"/>
</mask>
<g mask="url(#mask0)">
</g>
<path d="M31.6667 12.5C32.1269 12.5 32.5 12.8731 32.5 13.3333V15C32.5 15.4602 32.1269 15.8333 31.6667 15.8333H29.1667C28.7064 15.8333 28.3333 15.4602 28.3333 15V13.3333C28.3333 12.8731 28.7064 12.5 29.1667 12.5H31.6667Z" fill="#0B4270"/>
<mask id="mask1" style="mask-type:alpha" maskUnits="userSpaceOnUse" x="28" y="12" width="5" height="4">
<path d="M31.6667 12.5C32.1269 12.5 32.5 12.8731 32.5 13.3333V15C32.5 15.4602 32.1269 15.8333 31.6667 15.8333H29.1667C28.7064 15.8333 28.3333 15.4602 28.3333 15V13.3333C28.3333 12.8731 28.7064 12.5 29.1667 12.5H31.6667Z" fill="white"/>
</mask>
<g mask="url(#mask1)">
<path d="M30.8337 12.5C31.2939 12.5 31.667 12.8731 31.667 13.3333V15C31.667 15.4602 31.2939 15.8333 30.8337 15.8333H29.167C28.7068 15.8333 28.3337 15.4602 28.3337 15V13.3333C28.3337 12.8731 28.7068 12.5 29.167 12.5H30.8337Z" fill="#0F5895"/>
</g>
<path d="M31.6667 24.1666C32.1269 24.1666 32.5 24.5397 32.5 25V26.6666C32.5 27.1269 32.1269 27.5 31.6667 27.5H29.1667C28.7064 27.5 28.3333 27.1269 28.3333 26.6666V25C28.3333 24.5397 28.7064 24.1666 29.1667 24.1666H31.6667Z" fill="#0B4270"/>
<mask id="mask2" style="mask-type:alpha" maskUnits="userSpaceOnUse" x="28" y="24" width="5" height="4">
<path d="M31.6667 24.1666C32.1269 24.1666 32.5 24.5397 32.5 25V26.6666C32.5 27.1269 32.1269 27.5 31.6667 27.5H29.1667C28.7064 27.5 28.3333 27.1269 28.3333 26.6666V25C28.3333 24.5397 28.7064 24.1666 29.1667 24.1666H31.6667Z" fill="white"/>
</mask>
<g mask="url(#mask2)">
<path d="M30.8337 24.1666C31.2939 24.1666 31.667 24.5397 31.667 25V26.6666C31.667 27.1269 31.2939 27.5 30.8337 27.5H29.167C28.7068 27.5 28.3337 27.1269 28.3337 26.6666V25C28.3337 24.5397 28.7068 24.1666 29.167 24.1666H30.8337Z" fill="#0F5895"/>
</g>
<path fill-rule="evenodd" clip-rule="evenodd" d="M25 20C25 22.762 22.761 25 20 25C17.239 25 15 22.762 15 20C15 17.238 17.239 15 20 15C22.761 15 25 17.238 25 20Z" fill="#CC9D3F"/>
<path d="M14.1665 20C14.1665 19.3096 14.7261 18.75 15.4165 18.75H24.5832C25.2735 18.75 25.8332 19.3096 25.8332 20C25.8332 20.6904 25.2735 21.25 24.5832 21.25H15.4165C14.7261 21.25 14.1665 20.6904 14.1665 20Z" fill="#FFC54F"/>
<path d="M20 14.1666C20.6904 14.1666 21.25 14.7263 21.25 15.4166V24.5833C21.25 25.2736 20.6904 25.8333 20 25.8333C19.3096 25.8333 18.75 25.2736 18.75 24.5833V15.4166C18.75 14.7263 19.3096 14.1666 20 14.1666Z" fill="#FFC54F"/>
<path fill-rule="evenodd" clip-rule="evenodd" d="M23.75 20C23.75 22.0715 22.0707 23.75 20 23.75C17.9293 23.75 16.25 22.0715 16.25 20C16.25 17.9285 17.9293 16.25 20 16.25C22.0707 16.25 23.75 17.9285 23.75 20Z" fill="#FFC54F"/>
<path fill-rule="evenodd" clip-rule="evenodd" d="M21.6668 20C21.6668 20.9207 20.9205 21.6667 20.0002 21.6667C19.0798 21.6667 18.3335 20.9207 18.3335 20C18.3335 19.0794 19.0798 18.3334 20.0002 18.3334C20.9205 18.3334 21.6668 19.0794 21.6668 20Z" fill="white"/>
</svg>
