<svg width="48" height="48" viewBox="0 0 48 48" fill="none" xmlns="http://www.w3.org/2000/svg">
<circle opacity="0.08" cx="24" cy="24" r="24" fill="#1868AB"/>
<path fill-rule="evenodd" clip-rule="evenodd" d="M12.7455 34.8579C12.3226 34.7948 12.2243 34.7694 12.1384 34.6843C12.0526 34.5992 12 34.4764 12 34.1187C12 25.5314 12 19.7463 12 17.2932C12 17.2662 12 17.235 12 17.2016C12 16.9627 12.1937 16.769 12.4326 16.769C21.4118 18.8383 28.5487 14.2075 37.5279 16.2767C37.9224 16.4002 38.0052 16.485 38.079 16.5643C38.1528 16.6437 38.2215 16.8457 38.2215 17.0222C38.221 23.7974 38.221 29.4673 38.2217 34.0113C38.2218 34.1817 38.1085 34.3472 37.9418 34.3122C37.9216 34.308 37.9011 34.3023 37.8806 34.2948C28.9014 32.2246 23.5226 36.4664 12.7455 34.8579Z" fill="#1868AB"/>
<path fill-rule="evenodd" clip-rule="evenodd" d="M10.4955 31.8726C10.0726 31.812 9.97425 31.7876 9.88844 31.7058C9.80262 31.6241 9.75 31.5061 9.75 31.1625C9.75 22.9139 9.75 17.3569 9.75 15.0006C9.75 14.9793 9.75 14.9554 9.75 14.9297C9.75 14.6908 9.94368 14.4971 10.1826 14.4971C19.1618 16.4848 26.2987 12.0366 35.2779 14.0243C35.6724 14.1429 35.7552 14.2243 35.829 14.3005C35.9028 14.3767 35.9715 14.5708 35.9715 14.7403C35.971 21.2483 35.971 26.6946 35.9717 31.0594C35.9718 31.2226 35.8632 31.3791 35.7025 31.3504C35.6789 31.3462 35.6547 31.3401 35.6306 31.3316C26.6514 29.3431 21.2726 33.4176 10.4955 31.8726Z" fill="#5297D1"/>
<path fill-rule="evenodd" clip-rule="evenodd" d="M22.861 27.724C20.2036 27.724 18.0494 25.5707 18.0494 22.9143C18.0494 20.2578 20.2036 18.1036 22.861 18.1036C25.5174 18.1036 27.6707 20.2578 27.6707 22.9143C27.6707 25.5707 25.5174 27.724 22.861 27.724Z" fill="white"/>
<path d="M30.084 16.684H33.4733" stroke="white" stroke-width="2.37474" stroke-linecap="round"/>
<path d="M12.1553 29.4941H15.5446" stroke="white" stroke-width="2.37474" stroke-linecap="round"/>
</svg>
