<svg width="24" height="24" viewBox="0 0 24 24" fill="none" xmlns="http://www.w3.org/2000/svg">
<path fill-rule="evenodd" clip-rule="evenodd" d="M12 0C12.5128 0 12.9355 0.38604 12.9933 0.883379L13 1V2.06189C16.9463 2.55399 20 5.92038 20 10V17C20.5523 17 21 17.4477 21 18C21 18.5128 20.614 18.9355 20.1166 18.9933L20 19H18H16C16 21.2093 14.2093 23 12 23C9.85766 23 8.10891 21.3162 8.00489 19.1997L8 19H6H4C3.44772 19 3 18.5523 3 18C3 17.4872 3.38604 17.0645 3.88338 17.0067L4 17V10C4 5.92038 7.05368 2.55399 11 2.06189V1C11 0.447715 11.4477 0 12 0ZM6 17H18V10C18 6.68629 15.3137 4 12 4C8.68629 4 6 6.68629 6 10V17ZM10 19C10 20.1047 10.8953 21 12 21C13.0545 21 13.9182 20.1843 13.9945 19.1493L14 19H10Z" fill="#58585B"/>
</svg>
