<svg width="32" height="32" viewBox="0 0 32 32" fill="none" xmlns="http://www.w3.org/2000/svg">
<path fill-rule="evenodd" clip-rule="evenodd" d="M14.7108 22.9291C13.9482 23.0173 4.71852 23.0173 3.95653 22.9291C3.55514 22.8829 3.27614 22.5559 3.34334 22.2049C3.43274 21.7417 3.61094 20.9545 3.97033 19.6633C4.39272 18.1441 4.69032 17.423 4.86312 17.087C4.95791 16.9028 5.14331 16.7702 5.36891 16.7306C5.8501 16.6454 12.8166 16.6454 13.2978 16.7306C13.5234 16.7702 13.7088 16.9028 13.8036 17.087C13.9764 17.423 14.274 18.1441 14.6964 19.6633C15.0557 20.9545 15.2345 21.7417 15.3233 22.2049C15.3905 22.5559 15.1115 22.8829 14.7108 22.9291Z" fill="#CC9D3F"/>
<mask id="mask0" mask-type="alpha" maskUnits="userSpaceOnUse" x="3" y="16" width="13" height="7">
<path fill-rule="evenodd" clip-rule="evenodd" d="M14.7108 22.9291C13.9482 23.0173 4.71852 23.0173 3.95653 22.9291C3.55514 22.8829 3.27614 22.5559 3.34334 22.2049C3.43274 21.7417 3.61094 20.9545 3.97033 19.6633C4.39272 18.1441 4.69032 17.423 4.86312 17.087C4.95791 16.9028 5.14331 16.7702 5.36891 16.7306C5.8501 16.6454 12.8166 16.6454 13.2978 16.7306C13.5234 16.7702 13.7088 16.9028 13.8036 17.087C13.9764 17.423 14.274 18.1441 14.6964 19.6633C15.0557 20.9545 15.2345 21.7417 15.3233 22.2049C15.3905 22.5559 15.1115 22.8829 14.7108 22.9291Z" fill="white"/>
</mask>
<g mask="url(#mask0)">
<path fill-rule="evenodd" clip-rule="evenodd" d="M12.7108 22.2624C11.9482 22.3506 2.71852 22.3506 1.95653 22.2624C1.55514 22.2162 1.27614 21.8892 1.34334 21.5382C1.43274 21.075 1.61094 20.2878 1.97033 18.9966C2.39272 17.4775 2.69032 16.7563 2.86312 16.4203C2.95791 16.2361 3.14331 16.1035 3.36891 16.0639C3.8501 15.9787 10.8166 15.9787 11.2978 16.0639C11.5234 16.1035 11.7088 16.2361 11.8036 16.4203C11.9764 16.7563 12.274 17.4775 12.6964 18.9966C13.0557 20.2878 13.2345 21.075 13.3233 21.5382C13.3905 21.8892 13.1115 22.2162 12.7108 22.2624Z" fill="#FFC54F"/>
</g>
<path fill-rule="evenodd" clip-rule="evenodd" d="M28.0441 22.9291C27.2815 23.0173 18.0519 23.0173 17.2899 22.9291C16.8885 22.8829 16.6095 22.5559 16.6767 22.2049C16.7661 21.7417 16.9443 20.9545 17.3037 19.6633C17.7261 18.1441 18.0237 17.423 18.1965 17.087C18.2913 16.9028 18.4767 16.7702 18.7023 16.7306C19.1834 16.6454 26.1499 16.6454 26.6311 16.7306C26.8567 16.7702 27.0421 16.9028 27.1369 17.087C27.3097 17.423 27.6073 18.1441 28.0297 19.6633C28.3891 20.9545 28.5679 21.7417 28.6567 22.2049C28.7239 22.5559 28.4449 22.8829 28.0441 22.9291Z" fill="#CC9D3F"/>
<mask id="mask1" mask-type="alpha" maskUnits="userSpaceOnUse" x="16" y="16" width="13" height="7">
<path fill-rule="evenodd" clip-rule="evenodd" d="M28.0441 22.9291C27.2815 23.0173 18.0519 23.0173 17.2899 22.9291C16.8885 22.8829 16.6095 22.5559 16.6767 22.2049C16.7661 21.7417 16.9443 20.9545 17.3037 19.6633C17.7261 18.1441 18.0237 17.423 18.1965 17.087C18.2913 16.9028 18.4767 16.7702 18.7023 16.7306C19.1834 16.6454 26.1499 16.6454 26.6311 16.7306C26.8567 16.7702 27.0421 16.9028 27.1369 17.087C27.3097 17.423 27.6073 18.1441 28.0297 19.6633C28.3891 20.9545 28.5679 21.7417 28.6567 22.2049C28.7239 22.5559 28.4449 22.8829 28.0441 22.9291Z" fill="white"/>
</mask>
<g mask="url(#mask1)">
<path fill-rule="evenodd" clip-rule="evenodd" d="M26.0441 22.2624C25.2815 22.3506 16.0519 22.3506 15.2899 22.2624C14.8885 22.2162 14.6095 21.8892 14.6767 21.5382C14.7661 21.075 14.9443 20.2878 15.3037 18.9966C15.7261 17.4775 16.0237 16.7563 16.1965 16.4203C16.2913 16.2361 16.4767 16.1035 16.7023 16.0639C17.1834 15.9787 24.1499 15.9787 24.6311 16.0639C24.8567 16.1035 25.0421 16.2361 25.1369 16.4203C25.3097 16.7563 25.6073 17.4775 26.0297 18.9966C26.3891 20.2878 26.5679 21.075 26.6567 21.5382C26.7239 21.8892 26.4449 22.2162 26.0441 22.2624Z" fill="#FFC54F"/>
</g>
<path fill-rule="evenodd" clip-rule="evenodd" d="M21.3774 14.9291C20.6148 15.0173 11.3852 15.0173 10.6232 14.9291C10.2218 14.8829 9.9428 14.5559 10.01 14.2049C10.0994 13.7417 10.2776 12.9545 10.637 11.6633C11.0594 10.1441 11.357 9.42296 11.5298 9.08696C11.6246 8.90276 11.81 8.77017 12.0356 8.73057C12.5168 8.64537 19.4832 8.64537 19.9644 8.73057C20.19 8.77017 20.3754 8.90276 20.4702 9.08696C20.643 9.42296 20.9406 10.1441 21.363 11.6633C21.7224 12.9545 21.9012 13.7417 21.99 14.2049C22.0572 14.5559 21.7782 14.8829 21.3774 14.9291Z" fill="#CC9D3F"/>
<mask id="mask2" mask-type="alpha" maskUnits="userSpaceOnUse" x="10" y="8" width="12" height="7">
<path fill-rule="evenodd" clip-rule="evenodd" d="M21.3774 14.9291C20.6148 15.0173 11.3852 15.0173 10.6232 14.9291C10.2218 14.8829 9.9428 14.5559 10.01 14.2049C10.0994 13.7417 10.2776 12.9545 10.637 11.6633C11.0594 10.1441 11.357 9.42296 11.5298 9.08696C11.6246 8.90276 11.81 8.77017 12.0356 8.73057C12.5168 8.64537 19.4832 8.64537 19.9644 8.73057C20.19 8.77017 20.3754 8.90276 20.4702 9.08696C20.643 9.42296 20.9406 10.1441 21.363 11.6633C21.7224 12.9545 21.9012 13.7417 21.99 14.2049C22.0572 14.5559 21.7782 14.8829 21.3774 14.9291Z" fill="white"/>
</mask>
<g mask="url(#mask2)">
<path fill-rule="evenodd" clip-rule="evenodd" d="M19.3774 14.2624C18.6148 14.3506 9.38518 14.3506 8.62319 14.2624C8.22179 14.2162 7.9428 13.8892 8.01 13.5382C8.0994 13.075 8.27759 12.2878 8.63699 10.9967C9.05938 9.47748 9.35698 8.75629 9.52977 8.42029C9.62457 8.2361 9.80997 8.1035 10.0356 8.0639C10.5168 7.9787 17.4832 7.9787 17.9644 8.0639C18.19 8.1035 18.3754 8.2361 18.4702 8.42029C18.643 8.75629 18.9406 9.47748 19.363 10.9967C19.7224 12.2878 19.9012 13.075 19.99 13.5382C20.0572 13.8892 19.7782 14.2162 19.3774 14.2624Z" fill="#FFC54F"/>
</g>
</svg>
