<svg width="24" height="24" viewBox="0 0 24 24" fill="none" xmlns="http://www.w3.org/2000/svg">
<path fill-rule="evenodd" clip-rule="evenodd" d="M12 4.09387C13.3582 4.09387 14.7163 4.15047 16.0745 4.26368C16.2042 4.15758 16.3701 4.09387 16.55 4.09387C16.7804 4.09387 16.9878 4.19839 17.1257 4.3626C17.4579 4.39743 17.7901 4.43565 18.1223 4.47725L18.9969 4.59461C20.2752 4.77758 21.2774 5.66969 21.4825 6.80725C21.8275 8.72047 22 10.6337 22 12.5469C22 14.221 21.8679 15.895 21.6038 17.5691L21.4826 18.2866C21.2774 19.4241 20.2753 20.3162 18.9969 20.4992C16.6646 20.833 14.3323 20.9999 12 20.9999C9.95924 20.9999 7.91849 20.8722 5.87773 20.6166L5.00312 20.4992C3.72475 20.3162 2.72256 19.4241 2.51745 18.2866C2.17248 16.3734 2 14.4601 2 12.5469C2 10.8728 2.13206 9.19878 2.39617 7.52471L2.51745 6.80725C2.72256 5.66969 3.72475 4.77758 5.00312 4.59461C5.73679 4.4896 6.47045 4.4011 7.20412 4.32912C7.34125 4.18431 7.53562 4.09387 7.75 4.09387C7.91718 4.09387 8.07219 4.14887 8.19738 4.24177C9.46492 4.14317 10.7325 4.09387 12 4.09387ZM12 5.48614C13.2665 5.48614 14.5332 5.53728 15.8 5.63958V7.32592C15.8 7.73784 16.1381 8.07177 16.55 8.07177C16.9619 8.07177 17.3 7.73784 17.3 7.32592V5.78461C17.4507 5.80157 17.6013 5.81927 17.752 5.83768L18.5855 5.94688L18.7294 5.97256C19.3905 6.11673 19.9039 6.59627 20.0148 7.19673C20.1239 7.78683 20.2145 8.37685 20.2868 8.9668H3.71322C3.75868 8.59572 3.81141 8.22462 3.87141 7.85348L3.98691 7.18699L4.01643 7.06207C4.18219 6.48789 4.73425 6.04194 5.42573 5.94535C5.95054 5.87205 6.47529 5.80753 7 5.75178V7.32592C7 7.73784 7.33808 8.07177 7.75 8.07177C8.16192 8.07177 8.5 7.73784 8.5 7.32592V5.61631C9.66681 5.52952 10.8334 5.48614 12 5.48614ZM3.56963 10.4585C3.52321 11.1215 3.5 11.7845 3.5 12.4475C3.5 14.1973 3.66168 15.9474 3.98517 17.6982C4.09612 18.2987 4.60947 18.7782 5.27064 18.9224L5.41449 18.9481L6.24799 19.0572C8.16579 19.2916 10.083 19.4088 12 19.4088C14.1909 19.4088 16.3822 19.2558 18.5743 18.9496C19.2658 18.853 19.8178 18.407 19.9836 17.8329L20.0131 17.7079L20.1286 17.0414C20.3762 15.5097 20.5 13.9785 20.5 12.4475C20.5 11.7845 20.4768 11.1216 20.4304 10.4585H3.56963Z" fill="#979797"/>
<mask id="mask0" style="mask-type:alpha" maskUnits="userSpaceOnUse" x="2" y="4" width="20" height="17">
<path fill-rule="evenodd" clip-rule="evenodd" d="M12 4.09387C13.3582 4.09387 14.7163 4.15047 16.0745 4.26368C16.2042 4.15758 16.3701 4.09387 16.55 4.09387C16.7804 4.09387 16.9878 4.19839 17.1257 4.3626C17.4579 4.39743 17.7901 4.43565 18.1223 4.47725L18.9969 4.59461C20.2752 4.77758 21.2774 5.66969 21.4825 6.80725C21.8275 8.72047 22 10.6337 22 12.5469C22 14.221 21.8679 15.895 21.6038 17.5691L21.4826 18.2866C21.2774 19.4241 20.2753 20.3162 18.9969 20.4992C16.6646 20.833 14.3323 20.9999 12 20.9999C9.95924 20.9999 7.91849 20.8722 5.87773 20.6166L5.00312 20.4992C3.72475 20.3162 2.72256 19.4241 2.51745 18.2866C2.17248 16.3734 2 14.4601 2 12.5469C2 10.8728 2.13206 9.19878 2.39617 7.52471L2.51745 6.80725C2.72256 5.66969 3.72475 4.77758 5.00312 4.59461C5.73679 4.4896 6.47045 4.4011 7.20412 4.32912C7.34125 4.18431 7.53562 4.09387 7.75 4.09387C7.91718 4.09387 8.07219 4.14887 8.19738 4.24177C9.46492 4.14317 10.7325 4.09387 12 4.09387ZM12 5.48614C13.2665 5.48614 14.5332 5.53728 15.8 5.63958V7.32592C15.8 7.73784 16.1381 8.07177 16.55 8.07177C16.9619 8.07177 17.3 7.73784 17.3 7.32592V5.78461C17.4507 5.80157 17.6013 5.81927 17.752 5.83768L18.5855 5.94688L18.7294 5.97256C19.3905 6.11673 19.9039 6.59627 20.0148 7.19673C20.1239 7.78683 20.2145 8.37685 20.2868 8.9668H3.71322C3.75868 8.59572 3.81141 8.22462 3.87141 7.85348L3.98691 7.18699L4.01643 7.06207C4.18219 6.48789 4.73425 6.04194 5.42573 5.94535C5.95054 5.87205 6.47529 5.80753 7 5.75178V7.32592C7 7.73784 7.33808 8.07177 7.75 8.07177C8.16192 8.07177 8.5 7.73784 8.5 7.32592V5.61631C9.66681 5.52952 10.8334 5.48614 12 5.48614ZM3.56963 10.4585C3.52321 11.1215 3.5 11.7845 3.5 12.4475C3.5 14.1973 3.66168 15.9474 3.98517 17.6982C4.09612 18.2987 4.60947 18.7782 5.27064 18.9224L5.41449 18.9481L6.24799 19.0572C8.16579 19.2916 10.083 19.4088 12 19.4088C14.1909 19.4088 16.3822 19.2558 18.5743 18.9496C19.2658 18.853 19.8178 18.407 19.9836 17.8329L20.0131 17.7079L20.1286 17.0414C20.3762 15.5097 20.5 13.9785 20.5 12.4475C20.5 11.7845 20.4768 11.1216 20.4304 10.4585H3.56963Z" fill="white"/>
</mask>
<g mask="url(#mask0)">
<rect width="24" height="24" fill="#58585B"/>
</g>
</svg>
