<svg width="40" height="40" viewBox="0 0 40 40" fill="none" xmlns="http://www.w3.org/2000/svg">
<ellipse cx="19.9998" cy="31.25" rx="8.33333" ry="2.91667" fill="#98AC26"/>
<mask id="mask0" style="mask-type:alpha" maskUnits="userSpaceOnUse" x="11" y="28" width="18" height="7">
<ellipse cx="19.9998" cy="31.25" rx="8.33333" ry="2.91667" fill="white"/>
</mask>
<g mask="url(#mask0)">
<ellipse cx="19.9998" cy="30.4167" rx="8.33333" ry="2.91667" fill="#BFD730"/>
</g>
<path fill-rule="evenodd" clip-rule="evenodd" d="M13.7479 21.9664L13.6606 21.8488C12.6956 20.5413 12.0283 18.9663 11.7784 17.2428C11.7052 16.7401 11.6665 16.2258 11.6665 15.703C11.6665 11.1765 18.3332 5.83337 18.3332 5.83337H20.8332C25.8955 5.83337 29.9998 10.2521 29.9998 15.703C29.9998 16.2258 29.9611 16.7401 29.8879 17.2428C29.6373 18.9663 28.9708 20.5413 28.0029 21.8488H28.0071L27.9206 21.9628C27.9144 21.9692 27.9082 21.9773 27.902 21.9854C27.9004 21.9875 27.8989 21.9895 27.8973 21.9915L21.4589 30.5128C21.2983 30.7249 21.0637 30.8317 20.8332 30.8334C20.599 30.835 18.3332 30.8334 18.3332 30.8334L13.7648 21.9901C13.7591 21.9815 13.7535 21.9729 13.7479 21.9664ZM20.8332 20C23.5946 20 25.8332 17.7615 25.8332 15C25.8332 12.2386 23.5946 10 20.8332 10C18.0717 10 15.8332 12.2386 15.8332 15C15.8332 17.7615 18.0717 20 20.8332 20Z" fill="#00883E"/>
<path fill-rule="evenodd" clip-rule="evenodd" d="M11.1606 21.8488C10.1956 20.5413 9.5283 18.9663 9.27842 17.2428C9.20522 16.7401 9.1665 16.2258 9.1665 15.703C9.1665 10.2521 13.2708 5.83337 18.3332 5.83337C23.3955 5.83337 27.4998 10.2521 27.4998 15.703C27.4998 16.2258 27.4611 16.7401 27.3879 17.2428C27.1373 18.9663 26.4708 20.5413 25.5029 21.8488H25.5071L25.4206 21.9628C25.4144 21.9692 25.4082 21.9773 25.402 21.9855C25.4004 21.9875 25.3989 21.9895 25.3973 21.9915L18.9589 30.5128C18.6351 30.9402 18.0284 30.9402 17.7067 30.5128L11.2648 21.9901L11.2648 21.9901C11.2591 21.9815 11.2535 21.9729 11.2479 21.9664L11.1592 21.8488H11.1606ZM18.3332 20C21.0946 20 23.3332 17.7615 23.3332 15C23.3332 12.2386 21.0946 10 18.3332 10C15.5717 10 13.3332 12.2386 13.3332 15C13.3332 17.7615 15.5717 20 18.3332 20Z" fill="#00AB4E"/>
</svg>
