<svg width="32" height="32" viewBox="0 0 32 32" fill="none" xmlns="http://www.w3.org/2000/svg">
<path d="M4.66675 22.6667H10.6667V24C10.6667 24.7364 10.0698 25.3334 9.33342 25.3334H6.00008C5.2637 25.3334 4.66675 24.7364 4.66675 24V22.6667Z" fill="#00662E"/>
<path d="M21.3333 22.6667H27.3333V24C27.3333 24.7364 26.7363 25.3334 25.9999 25.3334H22.6666C21.9302 25.3334 21.3333 24.7364 21.3333 24V22.6667Z" fill="#00662E"/>
<path d="M5.33325 13.3333C5.33325 12.597 5.93021 12 6.66659 12H7.99992C8.7363 12 9.33325 12.597 9.33325 13.3333C9.33325 14.0697 8.7363 14.6667 7.99992 14.6667H6.66658C5.93021 14.6667 5.33325 14.0697 5.33325 13.3333Z" fill="#00AB4E"/>
<path d="M22.6667 13.3333C22.6667 12.597 23.2637 12 24.0001 12H25.3334C26.0698 12 26.6667 12.597 26.6667 13.3333C26.6667 14.0697 26.0698 14.6667 25.3334 14.6667H24.0001C23.2637 14.6667 22.6667 14.0697 22.6667 13.3333Z" fill="#00AB4E"/>
<path d="M7.85328 9.82446C8.25009 7.98213 9.87903 6.66669 11.7636 6.66669H20.2366C22.1211 6.66669 23.7501 7.98214 24.1469 9.82446L25.3334 15.3334H6.66675L7.85328 9.82446Z" fill="#00883E"/>
<path d="M9.1713 10.1437C9.42059 8.89723 10.515 8 11.7862 8H20.2139C21.485 8 22.5795 8.89723 22.8288 10.1437L23.5216 13.6078C23.7691 14.8454 22.8225 16 21.5604 16H10.4396C9.17755 16 8.23097 14.8454 8.47848 13.6078L9.1713 10.1437Z" fill="#FFF3A5"/>
<path d="M4.97682 18.2791C5.17838 15.8604 7.20029 14 9.62737 14H22.3728C24.7999 14 26.8218 15.8604 27.0233 18.2791L27.3334 22H4.66675L4.97682 18.2791Z" fill="#00AB4E"/>
<path d="M4 22.3334C4 21.7811 4.44772 21.3334 5 21.3334H27C27.5523 21.3334 28 21.7811 28 22.3334C28 22.8857 27.5523 23.3334 27 23.3334H5C4.44772 23.3334 4 22.8857 4 22.3334Z" fill="#FFC54F"/>
<path d="M6.66675 17.3334C6.66675 16.9652 6.96522 16.6667 7.33341 16.6667H8.66675C9.77132 16.6667 10.6667 17.5621 10.6667 18.6667C10.6667 19.0349 10.3683 19.3334 10.0001 19.3334H8.00008C7.2637 19.3334 6.66675 18.7364 6.66675 18V17.3334Z" fill="#FFC54F"/>
<path d="M21.3333 18.6667C21.3333 17.5621 22.2287 16.6667 23.3333 16.6667H24.6666C25.0348 16.6667 25.3333 16.9652 25.3333 17.3334V18C25.3333 18.7364 24.7363 19.3334 23.9999 19.3334H21.9999C21.6317 19.3334 21.3333 19.0349 21.3333 18.6667Z" fill="#FFC54F"/>
<path d="M12.6667 18C12.6667 17.6319 12.9652 17.3334 13.3334 17.3334H18.6667C19.0349 17.3334 19.3334 17.6319 19.3334 18C19.3334 18.3682 19.0349 18.6667 18.6667 18.6667H13.3334C12.9652 18.6667 12.6667 18.3682 12.6667 18Z" fill="#40BD63"/>
</svg>
