<svg width="32" height="32" viewBox="0 0 32 32" fill="none" xmlns="http://www.w3.org/2000/svg">
<path fill-rule="evenodd" clip-rule="evenodd" d="M16 6.66663C21.5228 6.66663 26 11.1438 26 16.6666C26 22.1895 21.5228 26.6666 16 26.6666C10.4772 26.6666 6 22.1895 6 16.6666C6 11.1438 10.4772 6.66663 16 6.66663ZM16 9.33329C20.2342 9.33329 23.6667 12.7658 23.6667 17C23.6667 21.2341 20.2342 24.6666 16 24.6666C11.7658 24.6666 8.33333 21.2341 8.33333 17C8.33333 12.7658 11.7658 9.33329 16 9.33329Z" fill="#CC9D3F"/>
<mask id="mask0" mask-type="alpha" maskUnits="userSpaceOnUse" x="6" y="6" width="20" height="21">
<path fill-rule="evenodd" clip-rule="evenodd" d="M16 6.66663C21.5228 6.66663 26 11.1438 26 16.6666C26 22.1895 21.5228 26.6666 16 26.6666C10.4772 26.6666 6 22.1895 6 16.6666C6 11.1438 10.4772 6.66663 16 6.66663ZM16 9.33329C20.2342 9.33329 23.6667 12.7658 23.6667 17C23.6667 21.2341 20.2342 24.6666 16 24.6666C11.7658 24.6666 8.33333 21.2341 8.33333 17C8.33333 12.7658 11.7658 9.33329 16 9.33329Z" fill="white"/>
</mask>
<g mask="url(#mask0)">
<path fill-rule="evenodd" clip-rule="evenodd" d="M14.6667 6.66663C20.1895 6.66663 24.6667 11.1438 24.6667 16.6666C24.6667 22.1895 20.1895 26.6666 14.6667 26.6666C9.14382 26.6666 4.66667 22.1895 4.66667 16.6666C4.66667 11.1438 9.14382 6.66663 14.6667 6.66663ZM15 9.33329C19.0501 9.33329 22.3333 12.7658 22.3333 17C22.3333 21.2341 19.0501 24.6666 15 24.6666C10.9499 24.6666 7.66667 21.2341 7.66667 17C7.66667 12.7658 10.9499 9.33329 15 9.33329Z" fill="#FFC54F"/>
</g>
<path fill-rule="evenodd" clip-rule="evenodd" d="M19.0496 4.59516C19.5437 4.97893 19.5681 5.71703 19.1004 6.13253L16.6641 8.29675C16.2853 8.63327 15.7147 8.63327 15.3359 8.29675L12.8996 6.13253C12.4319 5.71703 12.4563 4.97893 12.9504 4.59516L13.7293 3.99015C13.9048 3.85388 14.1206 3.77991 14.3427 3.77991H17.6573C17.8794 3.77991 18.0952 3.85388 18.2707 3.99015L19.0496 4.59516Z" fill="#A3C7E6"/>
<mask id="mask1" mask-type="alpha" maskUnits="userSpaceOnUse" x="12" y="3" width="8" height="6">
<path fill-rule="evenodd" clip-rule="evenodd" d="M19.0496 4.59516C19.5437 4.97893 19.5681 5.71703 19.1004 6.13253L16.6641 8.29675C16.2853 8.63327 15.7147 8.63327 15.3359 8.29675L12.8996 6.13253C12.4319 5.71703 12.4563 4.97893 12.9504 4.59516L13.7293 3.99015C13.9048 3.85388 14.1206 3.77991 14.3427 3.77991H17.6573C17.8794 3.77991 18.0952 3.85388 18.2707 3.99015L19.0496 4.59516Z" fill="white"/>
</mask>
<g mask="url(#mask1)">
<path fill-rule="evenodd" clip-rule="evenodd" d="M18.2538 3.97706C18.9076 4.48488 18.6307 5.52893 17.8112 5.64601L17.6667 5.66666H14.3333L14.1888 5.64601C13.3693 5.52893 13.0924 4.48488 13.7462 3.97706C13.9107 3.84927 14.1131 3.77991 14.3214 3.77991L17.6786 3.77991C17.8869 3.77991 18.0893 3.84927 18.2538 3.97706Z" fill="#5297D1"/>
<path fill-rule="evenodd" clip-rule="evenodd" d="M19.0496 4.59516C19.5437 4.97893 19.5681 5.71703 19.1004 6.13253L16 8.88674L17.3333 5.66666L16.6667 3.77999L18 3.77991L19.0496 4.59516Z" fill="#5297D1"/>
<path fill-rule="evenodd" clip-rule="evenodd" d="M20 5.33333L17.3333 5.66666L16.6667 3.77999L18 3.77991L20 5.33333Z" fill="#A3C7E6"/>
<path fill-rule="evenodd" clip-rule="evenodd" d="M14.6667 5.66666L16 8.88674L12.8996 6.13253C12.4319 5.71703 12.4563 4.97893 12.9504 4.59516L14 3.77991L15.3333 3.77991L14.6667 5.66666Z" fill="#5297D1"/>
<path fill-rule="evenodd" clip-rule="evenodd" d="M14.6667 5.66666L12 5.33333L14 3.77991L15.3333 3.77991L14.6667 5.66666Z" fill="#A3C7E6"/>
</g>
</svg>
