<svg width="20" height="20" viewBox="0 0 20 20" fill="none" xmlns="http://www.w3.org/2000/svg">
<path fill-rule="evenodd" clip-rule="evenodd" d="M17.0182 4.67854L16.9026 4.56547C16.2659 4.00013 15.327 4.03782 14.7306 4.67854L8.04186 11.864L5.26938 8.88566C4.63568 8.2049 3.61546 8.2049 2.98176 8.88566C2.33941 9.5757 2.33941 10.7007 2.98176 11.3908L6.4629 15.1304C7.33693 16.0694 8.74679 16.0694 9.62081 15.1304L17.0182 7.18366C17.6204 6.53674 17.6581 5.50751 17.1312 4.81281L17.0182 4.67854Z" fill="#009E3D"/>
<mask id="mask0" style="mask-type:alpha" maskUnits="userSpaceOnUse" x="2" y="4" width="16" height="12">
<path fill-rule="evenodd" clip-rule="evenodd" d="M17.0182 4.67854L16.9026 4.56547C16.2659 4.00013 15.327 4.03782 14.7306 4.67854L8.04186 11.864L5.26938 8.88566C4.63568 8.2049 3.61546 8.2049 2.98176 8.88566C2.33941 9.5757 2.33941 10.7007 2.98176 11.3908L6.4629 15.1304C7.33693 16.0694 8.74679 16.0694 9.62081 15.1304L17.0182 7.18366C17.6204 6.53674 17.6581 5.50751 17.1312 4.81281L17.0182 4.67854Z" fill="white"/>
</mask>
<g mask="url(#mask0)">
<rect width="20" height="20" fill="#00AB4E"/>
</g>
</svg>
