<svg width="48" height="48" viewBox="0 0 48 48" fill="none" xmlns="http://www.w3.org/2000/svg">
<circle cx="24" cy="24" r="24" fill="#E6F6EA"/>
<mask id="mask0" style="mask-type:alpha" maskUnits="userSpaceOnUse" x="9" y="12" width="30" height="24">
<path d="M35.7467 16.4632H29.4261V14.0681C29.4261 12.9277 28.4395 12 27.2268 12H20.7735C19.5608 12 18.5742 12.9277 18.5742 14.0681V16.4632H12.2536C10.6434 16.4632 9.3335 17.695 9.3335 19.2092V33.2541C9.3335 34.7682 10.6434 36 12.2536 36H35.7467C37.3568 36 38.6668 34.7682 38.6668 33.2541V19.2092C38.6668 17.695 37.3568 16.4632 35.7467 16.4632ZM20.437 14.0681C20.437 13.8937 20.588 13.7518 20.7735 13.7518H27.2268C27.4123 13.7518 27.5632 13.8937 27.5632 14.0681V16.4632H20.437V14.0681ZM11.1963 19.2092C11.1963 18.6609 11.6706 18.2149 12.2536 18.2149H35.7467C36.3297 18.2149 36.804 18.6609 36.804 19.2092V20.5055C36.804 21.7215 35.9369 22.808 34.6955 23.1479L24.9537 25.8152C24.3299 25.986 23.6705 25.986 23.0466 25.8152L13.3048 23.1479C12.0634 22.808 11.1963 21.7215 11.1963 20.5055V19.2092ZM35.7467 34.2483H12.2536C11.6707 34.2483 11.1963 33.8023 11.1963 33.2541V24.0719C11.6657 24.4131 12.2008 24.6701 12.7841 24.8298C23.5454 27.7762 22.9923 27.6951 24.0001 27.6951C25.0213 27.6951 24.4423 27.7796 35.2162 24.8298C35.7996 24.6701 36.3346 24.4131 36.8039 24.0719V33.2541C36.804 33.8023 36.3297 34.2483 35.7467 34.2483Z" fill="black"/>
</mask>
<g mask="url(#mask0)">
<rect x="8" y="8" width="32" height="32" fill="#00AB4E"/>
</g>
</svg>
