<svg width="24" height="24" viewBox="0 0 24 24" fill="none" xmlns="http://www.w3.org/2000/svg">
<path d="M9.00246 15.8724L12.8825 11.9924L9.00246 8.11241C8.61246 7.72241 8.61246 7.09241 9.00246 6.70241C9.39246 6.31241 10.0225 6.31241 10.4125 6.70241L15.0025 11.2924C15.3925 11.6824 15.3925 12.3124 15.0025 12.7024L10.4125 17.2924C10.0225 17.6824 9.39246 17.6824 9.00246 17.2924C8.62246 16.9024 8.61246 16.2624 9.00246 15.8724Z" fill="black"/>
<mask id="mask0" mask-type="alpha" maskUnits="userSpaceOnUse" x="8" y="6" width="8" height="12">
<path d="M9.00246 15.8724L12.8825 11.9924L9.00246 8.11241C8.61246 7.72241 8.61246 7.09241 9.00246 6.70241C9.39246 6.31241 10.0225 6.31241 10.4125 6.70241L15.0025 11.2924C15.3925 11.6824 15.3925 12.3124 15.0025 12.7024L10.4125 17.2924C10.0225 17.6824 9.39246 17.6824 9.00246 17.2924C8.62246 16.9024 8.61246 16.2624 9.00246 15.8724Z" fill="white"/>
</mask>
<g mask="url(#mask0)">
<rect width="24" height="24" fill="#58585B"/>
</g>
</svg>
