<svg width="24" height="24" viewBox="0 0 24 24" fill="none" xmlns="http://www.w3.org/2000/svg">
<path d="M9.00344 15.8724L12.8834 11.9924L9.00344 8.11241C8.61344 7.72241 8.61344 7.09241 9.00344 6.70241C9.39344 6.31241 10.0234 6.31241 10.4134 6.70241L15.0034 11.2924C15.3934 11.6824 15.3934 12.3124 15.0034 12.7024L10.4134 17.2924C10.0234 17.6824 9.39344 17.6824 9.00344 17.2924C8.62344 16.9024 8.61344 16.2624 9.00344 15.8724Z" fill="#252528"/>
<mask id="mask0_457_11197" style="mask-type:alpha" maskUnits="userSpaceOnUse" x="8" y="6" width="8" height="12">
<path d="M9.00344 15.8724L12.8834 11.9924L9.00344 8.11241C8.61344 7.72241 8.61344 7.09241 9.00344 6.70241C9.39344 6.31241 10.0234 6.31241 10.4134 6.70241L15.0034 11.2924C15.3934 11.6824 15.3934 12.3124 15.0034 12.7024L10.4134 17.2924C10.0234 17.6824 9.39344 17.6824 9.00344 17.2924C8.62344 16.9024 8.61344 16.2624 9.00344 15.8724Z" fill="white"/>
</mask>
<g mask="url(#mask0_457_11197)">
<rect width="24" height="24" fill="white"/>
</g>
</svg>
