<svg width="80" height="80" viewBox="0 0 80 80" fill="none" xmlns="http://www.w3.org/2000/svg">
<circle cx="40" cy="40" r="40" fill="#E6F6EA"/>
<mask id="mask0" mask-type="alpha" maskUnits="userSpaceOnUse" x="0" y="0" width="80" height="80">
<circle cx="40" cy="40" r="40" fill="#E6F6EA"/>
</mask>
<g mask="url(#mask0)">
<rect x="20.7999" y="13.5996" width="38.4" height="52" rx="3.29487" fill="#407972"/>
<path d="M23.2 17.0983C23.2 16.4917 23.6917 16 24.2982 16H54.9017C55.5082 16 56 16.4917 56 17.0983V60.7051C56 62.5248 54.5248 64 52.7051 64H24.2982C23.6917 64 23.2 63.5083 23.2 62.9017V17.0983Z" fill="white"/>
<path d="M28.7999 13.8981C28.7999 13.2915 29.2916 12.7998 29.8982 12.7998H50.1016C50.7082 12.7998 51.1999 13.2915 51.1999 13.8981V15.1049C51.1999 16.9246 49.7248 18.3998 47.9051 18.3998H32.0948C30.2751 18.3998 28.7999 16.9246 28.7999 15.1049V13.8981Z" fill="#004D43"/>
<path fill-rule="evenodd" clip-rule="evenodd" d="M15.2 60.7036C15.2 62.5233 16.6751 63.9984 18.4948 63.9984H56L52.0768 63.9993C50.2568 63.9997 48.7812 62.5244 48.7812 60.7044V57.3491C48.7812 57.0459 48.5353 56.8 48.2321 56.8H15.7491C15.4458 56.8 15.2 57.0459 15.2 57.3491V60.7036Z" fill="#BBBDC0"/>
<path fill-rule="evenodd" clip-rule="evenodd" d="M38.3862 29.6307C41.1314 29.6307 43.653 30.8806 44.7434 32.7124C45.3763 33.7763 44.646 35.1502 43.4175 35.2391L43.0007 35.2667C41.9864 35.3279 40.677 35.3663 39.0353 35.3743L38.093 35.3755L37.0532 35.369C35.5063 35.3525 34.2858 35.3067 33.3551 35.2391C32.1265 35.1502 31.3962 33.7763 32.0292 32.7124C33.1195 30.8806 35.6411 29.6307 38.3862 29.6307ZM38.3863 22.1963C40.1733 22.1963 41.5965 23.7974 41.5965 25.7448C41.5965 27.6922 40.1733 29.2933 38.3863 29.2933C36.5993 29.2933 35.1761 27.6922 35.1761 25.7448C35.1761 23.7974 36.5993 22.1963 38.3863 22.1963Z" fill="#AE1E22"/>
<mask id="mask1" mask-type="alpha" maskUnits="userSpaceOnUse" x="31" y="22" width="14" height="14">
<path fill-rule="evenodd" clip-rule="evenodd" d="M38.3862 29.6307C41.1314 29.6307 43.653 30.8806 44.7434 32.7124C45.3763 33.7763 44.646 35.1502 43.4175 35.2391L43.0007 35.2667C41.9864 35.3279 40.677 35.3663 39.0353 35.3743L38.093 35.3755L37.0532 35.369C35.5063 35.3525 34.2858 35.3067 33.3551 35.2391C32.1265 35.1502 31.3962 33.7763 32.0292 32.7124C33.1195 30.8806 35.6411 29.6307 38.3862 29.6307ZM38.3863 22.1963C40.1733 22.1963 41.5965 23.7974 41.5965 25.7448C41.5965 27.6922 40.1733 29.2933 38.3863 29.2933C36.5993 29.2933 35.1761 27.6922 35.1761 25.7448C35.1761 23.7974 36.5993 22.1963 38.3863 22.1963Z" fill="white"/>
</mask>
<g mask="url(#mask1)">
<rect x="29.6" y="20" width="17.5726" height="17.5726" fill="#95CF72"/>
</g>
<rect x="27.8303" y="39.457" width="11.532" height="2.19658" rx="1.09829" fill="#99DCAB"/>
<rect x="42.8606" y="39.457" width="8.23718" height="2.19658" rx="1.09829" fill="#99DCAB"/>
<rect x="27.8303" y="44.9482" width="20.8675" height="2.19658" rx="1.09829" fill="#99DCAB"/>
<rect x="27.8303" y="50.4395" width="6.0406" height="2.19658" rx="1.09829" fill="#99DCAB"/>
<rect x="37.3691" y="50.4395" width="13.7286" height="2.19658" rx="1.09829" fill="#99DCAB"/>
<circle cx="46.3999" cy="31.1999" r="4.45455" stroke="#CACCCF" stroke-width="0.424242"/>
<mask id="mask2" mask-type="alpha" maskUnits="userSpaceOnUse" x="41" y="26" width="11" height="10">
<circle cx="46.3999" cy="31.1999" r="4.45455" fill="white" stroke="white" stroke-width="0.424242"/>
</mask>
<g mask="url(#mask2)">
<rect x="40.7999" y="25.5996" width="46.6667" height="46.6667" fill="#00AB4E"/>
</g>
<path fill-rule="evenodd" clip-rule="evenodd" d="M49.0201 29.2121L48.9769 29.1699C48.7392 28.9588 48.3887 28.9729 48.1661 29.2121L45.6689 31.8947L44.6339 30.7828C44.3973 30.5286 44.0164 30.5286 43.7798 30.7828C43.54 31.0404 43.54 31.4604 43.7798 31.718L45.0795 33.1141C45.4058 33.4647 45.9321 33.4647 46.2584 33.1141L49.0201 30.1473C49.2449 29.9058 49.259 29.5216 49.0623 29.2622L49.0201 29.2121Z" fill="#009E3D"/>
<mask id="mask3" mask-type="alpha" maskUnits="userSpaceOnUse" x="43" y="29" width="7" height="5">
<path fill-rule="evenodd" clip-rule="evenodd" d="M49.0201 29.2121L48.9769 29.1699C48.7392 28.9588 48.3887 28.9729 48.1661 29.2121L45.6689 31.8947L44.6339 30.7828C44.3973 30.5286 44.0164 30.5286 43.7798 30.7828C43.54 31.0404 43.54 31.4604 43.7798 31.718L45.0795 33.1141C45.4058 33.4647 45.9321 33.4647 46.2584 33.1141L49.0201 30.1473C49.2449 29.9058 49.259 29.5216 49.0623 29.2622L49.0201 29.2121Z" fill="white"/>
</mask>
<g mask="url(#mask3)">
<rect width="7.46667" height="7.46667" transform="translate(42.6666 27.4668)" fill="white"/>
<rect x="42.6666" y="27.4668" width="7.46667" height="7.46667" fill="white"/>
</g>
</g>
</svg>
