<svg width="80" height="80" viewBox="0 0 80 80" fill="none" xmlns="http://www.w3.org/2000/svg">
<g id="icon/system/image-add">
<path id="Combined Shape" fill-rule="evenodd" clip-rule="evenodd" d="M57.0124 10C48.9778 10 42.4569 16.5208 42.4569 24.5554C42.4569 32.59 48.9778 39.1109 57.0124 39.1109C65.047 39.1109 71.5678 32.59 71.5678 24.5554C71.5678 16.5208 65.047 10 57.0124 10ZM62.8346 26.011H58.4679V30.3776C58.4679 31.1782 57.8129 31.8332 57.0124 31.8332C56.2118 31.8332 55.5568 31.1782 55.5568 30.3776V26.011H51.1902C50.3897 26.011 49.7347 25.356 49.7347 24.5554C49.7347 23.7549 50.3897 23.0999 51.1902 23.0999H55.5568V18.7333C55.5568 17.9327 56.2118 17.2777 57.0124 17.2777C57.8129 17.2777 58.4679 17.9327 58.4679 18.7333V23.0999H62.8346C63.6351 23.0999 64.2901 23.7549 64.2901 24.5554C64.2901 25.356 63.6351 26.011 62.8346 26.011ZM35.7769 20.3162C37.383 20.3162 38.9378 20.3279 40.4413 20.3506C40.1299 21.5703 39.9494 22.8421 39.9156 24.1503C39.5729 24.1457 39.2276 24.1416 38.8795 24.1382L35.7769 24.123C26.8634 24.123 19.5744 24.4904 13.8711 25.0631C12.4399 25.2066 11.2339 26.5669 11.0626 28.4004C10.6412 32.9066 10.3823 38.4682 10.3823 45.0604C10.3823 51.6543 10.6411 57.2132 11.0626 61.7203C11.2339 63.554 12.4399 64.9143 13.8708 65.0578C19.5334 65.6298 26.8474 65.9979 35.7769 65.9979L37.3453 65.994C44.5847 65.9584 50.7058 65.6769 55.7107 65.2429L57.7873 65.0478C59.2139 64.9034 60.4196 63.5301 60.5901 61.6797C60.9539 57.7434 61.1715 52.2813 61.1715 45.0604L61.1693 43.8044C61.1661 42.9282 61.1596 42.0793 61.1499 41.2571C62.4463 40.9393 63.685 40.474 64.8471 39.88C64.8739 41.4994 64.8878 43.225 64.8878 45.0604L64.8855 46.3365C64.8642 52.2068 64.6948 56.897 64.416 60.5403L64.2899 62.038C63.9592 65.6262 61.4325 68.5041 58.1533 68.8361C52.342 69.426 44.8841 69.8047 35.7769 69.8047L34.1964 69.8008C26.8991 69.7651 20.6989 69.482 15.6169 69.0435L13.5074 68.8463C10.2316 68.5178 7.69728 65.6594 7.36322 62.0831C6.93051 57.4554 6.66602 51.7754 6.66602 45.0604C6.66602 38.3471 6.93061 32.6644 7.36324 28.0376C7.69728 24.4615 10.2316 21.603 13.5088 21.2744C18.6469 20.7585 25.0203 20.407 32.6555 20.3314L35.7769 20.3162ZM39.7089 39.482L39.9769 39.2105L40.277 38.9552C42.1236 37.5226 44.7685 37.8703 46.2187 39.8657L56.5424 54.0675L56.7422 54.3651C58.4864 57.1858 56.875 61.1445 53.5659 61.4813C49.2849 61.9247 43.3832 62.1911 35.6357 62.1911L34.5821 62.1894L32.0198 62.1703C26.2121 62.1018 21.5942 61.8673 18.0278 61.5148C14.4876 61.1628 12.8819 56.7235 15.1486 53.9133L20.4886 47.3035L20.7522 47.0053C22.2111 45.4945 24.4932 45.2595 26.2053 46.5195L30.1224 49.3932L30.2533 49.4638C30.4323 49.5288 30.6254 49.4769 30.7802 49.306L39.7089 39.482ZM43.1346 42.0236L43.2379 42.1392L53.5615 56.3408C53.9473 56.8718 53.6533 57.6468 53.1953 57.6935C49.5052 58.0756 44.5292 58.3242 38.1126 58.3747L34.591 58.3826L32.071 58.3639C26.3622 58.2967 21.8448 58.0676 18.3858 57.7257C17.9407 57.6814 17.6561 57.0133 17.9082 56.5025L18.0126 56.3392L23.3508 49.7315C23.5091 49.5359 23.7123 49.4725 23.9011 49.5388L24.0392 49.6127L27.9616 52.4903C29.5935 53.6826 31.7545 53.5327 33.2191 52.1834L33.5024 51.8976L42.4303 42.0744C42.5964 41.8913 42.8081 41.8434 42.9977 41.9318L43.1346 42.0236ZM22.1505 27.2953C26.2544 27.2953 29.5831 30.7051 29.5831 34.9089C29.5831 39.1143 26.2547 42.5226 22.1505 42.5226C18.0448 42.5226 14.718 39.1146 14.718 34.9089C14.718 30.7048 18.0452 27.2953 22.1505 27.2953ZM22.1505 31.1021C20.0973 31.1021 18.4342 32.8076 18.4342 34.9089C18.4342 37.0122 20.0973 38.7157 22.1505 38.7157C24.2019 38.7157 25.8668 37.0122 25.8668 34.9089C25.8668 32.8076 24.2019 31.1021 22.1505 31.1021Z" fill="#58585B"/>
</g>
</svg>
