<svg width="134" height="25" viewBox="0 0 134 25" fill="none" xmlns="http://www.w3.org/2000/svg">
<path fill-rule="evenodd" clip-rule="evenodd" d="M12.0869 6.00708C15.9339 6.00697 19.0341 9.08023 19.0369 12.8968C19.0397 16.6928 15.9307 19.7891 12.1146 19.7907C8.25373 19.7924 5.1531 16.7156 5.15527 12.8847C5.1574 9.08087 8.25519 6.00724 12.0869 6.00708ZM15.1966 10.6961C15.3522 10.7838 15.4399 10.8303 15.5246 10.8816C15.6624 10.9649 15.7876 11.0026 15.8943 10.8321C16.0076 10.651 15.8943 10.579 15.7555 10.5008C14.3649 9.71803 12.888 9.31611 11.2779 9.4893C10.2615 9.59865 9.32232 9.92851 8.4532 10.458C8.32602 10.5355 8.16055 10.6053 8.29023 10.8093C8.42197 11.0166 8.55823 10.9161 8.70053 10.8256C8.7794 10.7755 8.86432 10.7347 8.9965 10.6623C8.94362 10.7908 8.91539 10.8635 8.88417 10.9349C8.29654 12.2777 7.70896 13.6204 7.12041 14.9627C6.91877 15.4226 6.99405 15.6713 7.43231 15.9317C7.56324 16.0095 7.70488 16.0759 7.84963 16.1235C8.74454 16.4174 9.6475 16.4102 10.5531 16.1745C10.7642 16.1195 10.9621 16.0294 11.1466 15.9138C11.5443 15.6648 11.6173 15.4087 11.429 14.9798C10.7966 13.5391 10.171 12.0954 9.53098 10.658C9.44324 10.461 9.49693 10.4046 9.67698 10.3355C11.2822 9.72019 12.8781 9.75737 14.476 10.3664C14.695 10.4499 14.7098 10.5383 14.6212 10.7373C14.0066 12.1169 13.4039 13.5016 12.7972 14.8847C12.5483 15.452 12.6475 15.7386 13.2121 16.0075C13.9119 16.3409 14.6587 16.3858 15.4169 16.3173C15.8978 16.2738 16.3674 16.1785 16.7842 15.9162C17.1837 15.665 17.2607 15.4082 17.0738 14.9839C16.773 14.301 16.4737 13.6175 16.1745 12.9339C15.8583 12.2114 15.5429 11.4886 15.1966 10.6961Z" fill="#02A750"/>
<path fill-rule="evenodd" clip-rule="evenodd" d="M12.0705 24.892C8.59935 24.8456 5.6432 23.5916 3.26167 21.0877C1.34522 19.0729 0.279897 16.6554 0.0462162 13.887C0.0250565 13.6365 0.0241318 13.3844 0.00182982 13.134C-0.0101371 12.9998 0.0356635 12.9659 0.166701 12.9691C0.519508 12.9775 0.872858 12.9778 1.22566 12.9684C1.39413 12.9639 1.36067 13.0715 1.36366 13.1655C1.39353 14.1132 1.53022 15.046 1.8096 15.9525C2.32961 17.6399 3.2088 19.1197 4.46348 20.375C5.83978 21.7521 7.46897 22.7052 9.36132 23.1907C11.3813 23.709 13.3944 23.668 15.385 23.0235C17.8192 22.2355 19.7368 20.7703 21.1219 18.6391C22.3447 16.7575 22.9011 14.6867 22.8053 12.4451C22.692 9.79198 21.7046 7.49298 19.8765 5.57608C18.0611 3.6724 15.8138 2.57417 13.1727 2.3102C10.9841 2.09146 8.91827 2.49921 6.98398 3.54147C6.83499 3.62178 6.74432 3.62161 6.6556 3.46861C6.50215 3.20405 6.34544 2.94041 6.17338 2.68756C6.06927 2.53461 6.10931 2.46407 6.25884 2.38155C7.1748 1.87607 8.14292 1.49882 9.15804 1.25115C11.0366 0.792843 12.9263 0.76942 14.8121 1.2022C17.1595 1.74093 19.1783 2.8737 20.8352 4.60921C22.8953 6.76708 24.017 9.33809 24.164 12.3126C24.3076 15.2169 23.4948 17.8452 21.7204 20.1512C19.8115 22.6318 17.286 24.1526 14.1824 24.7133C13.4845 24.8396 12.7816 24.8918 12.0705 24.892Z" fill="#BAD333"/>
<path fill-rule="evenodd" clip-rule="evenodd" d="M12.1202 3.57698C15.5723 3.6928 18.2544 5.16499 20.1301 8.06419C20.2342 8.22507 20.2162 8.30322 20.0485 8.39454C19.811 8.52385 19.5784 8.6673 19.3627 8.82937C19.168 8.97563 19.066 8.96495 18.9317 8.74318C18.2717 7.65305 17.3826 6.78327 16.2957 6.10935C13.3103 4.2583 9.31054 4.62162 6.71524 6.99467C4.85918 8.69181 3.98015 10.8039 4.07937 13.3038C4.22819 17.0576 7.19702 20.311 10.9579 20.7666C14.3776 21.1808 17.0391 19.8931 18.9353 17.0457C19.0251 16.9108 19.0816 16.8762 19.2241 16.9778C19.4811 17.1613 19.7479 17.3329 20.0211 17.4916C20.1837 17.5861 20.1695 17.6705 20.0795 17.8086C18.5811 20.1092 16.4925 21.5687 13.7718 22.0569C9.56174 22.8123 5.50523 20.7399 3.6163 16.92C1.43767 12.5144 3.26562 6.97352 7.65062 4.68417C9.04809 3.95461 10.5299 3.57061 12.1202 3.57698Z" fill="#74BC46"/>
<path fill-rule="evenodd" clip-rule="evenodd" d="M15.1965 10.6961C15.5429 11.4887 15.8583 12.2114 16.1745 12.9339C16.4737 13.6174 16.7731 14.3009 17.0738 14.9838C17.2607 15.4082 17.1837 15.665 16.7842 15.9162C16.3674 16.1784 15.8978 16.2738 15.4169 16.3173C14.6587 16.3858 13.9119 16.3408 13.2121 16.0075C12.6475 15.7386 12.5484 15.452 12.7972 14.8846C13.4039 13.5016 14.0066 12.1168 14.6212 10.7373C14.7099 10.5382 14.6951 10.4498 14.476 10.3663C12.8782 9.75734 11.2823 9.7201 9.67701 10.3355C9.49691 10.4045 9.44328 10.4609 9.53101 10.658C10.171 12.0954 10.7966 13.5391 11.4291 14.9798C11.6173 15.4086 11.5443 15.6647 11.1467 15.9137C10.9621 16.0293 10.7643 16.1195 10.5532 16.1744C9.64753 16.4101 8.74452 16.4174 7.84966 16.1234C7.70486 16.0759 7.56327 16.0095 7.43234 15.9317C6.99408 15.6713 6.9188 15.4225 7.12044 14.9627C7.709 13.6203 8.29657 12.2776 8.8842 10.9348C8.91543 10.8635 8.94366 10.7908 8.99653 10.6623C8.86435 10.7347 8.77944 10.7755 8.70057 10.8256C8.55821 10.9161 8.42201 11.0166 8.29026 10.8093C8.16059 10.6053 8.32606 10.5355 8.45323 10.458C9.32236 9.92842 10.2615 9.59861 11.2779 9.48927C12.888 9.31608 14.3648 9.71799 15.7555 10.5008C15.8943 10.5789 16.0076 10.6509 15.8943 10.832C15.7876 11.0025 15.6624 10.9649 15.5246 10.8815C15.4399 10.8303 15.3522 10.7838 15.1965 10.6961ZM9.29196 11.1033C9.2554 11.1378 9.23686 11.1476 9.23027 11.1626C8.70672 12.3542 8.186 13.547 7.65929 14.7372C7.58031 14.9157 7.6774 14.9074 7.80202 14.907C8.6885 14.9049 9.57503 14.9058 10.4616 14.9057C10.6128 14.9057 10.764 14.9057 10.9558 14.9057C10.3917 13.6168 9.84412 12.3653 9.29196 11.1033ZM14.9351 11.108C14.8984 11.1416 14.8711 11.1553 14.8616 11.1768C14.3433 12.3607 13.828 13.546 13.3075 14.7291C13.2363 14.891 13.3031 14.9081 13.4436 14.9076C14.4207 14.9042 15.3977 14.9019 16.3746 14.9089C16.5866 14.9104 16.5683 14.8355 16.5008 14.6871C16.3224 14.295 16.1569 13.8971 15.9844 13.5024C15.6371 12.708 15.2884 11.9142 14.9351 11.108Z" fill="#F3FAF6"/>
<path fill-rule="evenodd" clip-rule="evenodd" d="M9.29213 11.1033C9.84434 12.3652 10.3919 13.6167 10.9559 14.9057C10.7641 14.9057 10.6129 14.9057 10.4617 14.9057C9.5752 14.9058 8.68867 14.9049 7.80214 14.907C7.67752 14.9073 7.58042 14.9156 7.6594 14.7372C8.18611 13.5469 8.70683 12.3541 9.23039 11.1625C9.23697 11.1476 9.25552 11.1378 9.29213 11.1033Z" fill="#04A650"/>
<path fill-rule="evenodd" clip-rule="evenodd" d="M14.9351 11.1079C15.2885 11.9141 15.6371 12.7079 15.9844 13.5023C16.157 13.897 16.3225 14.2949 16.5009 14.687C16.5684 14.8354 16.5866 14.9104 16.3747 14.9088C15.3978 14.9018 14.4207 14.9041 13.4437 14.9075C13.3031 14.908 13.2364 14.8909 13.3076 14.729C13.8281 13.5459 14.3434 12.3607 14.8617 11.1767C14.8711 11.1552 14.8984 11.1415 14.9351 11.1079Z" fill="#04A650"/>
<path d="M28.6166 12.9636V15.4799H27.3979V8.62684H29.7972C30.5208 8.62684 31.0825 8.79522 31.4824 9.132C31.8822 9.46878 32.0822 9.95806 32.0822 10.5998C32.0822 11.3179 31.8632 11.8929 31.4252 12.325C30.9936 12.7508 30.4097 12.9636 29.6734 12.9636H28.6166ZM28.6166 12.02H29.5401C29.9654 12.02 30.2859 11.9088 30.5017 11.6864C30.7239 11.4577 30.835 11.1272 30.835 10.6952C30.835 9.939 30.4351 9.56092 29.6353 9.56092H28.6166V12.02Z" fill="#004D43"/>
<path d="M36.3786 13.1447H33.6652C33.6715 13.6213 33.7794 13.9867 33.9889 14.2408C34.1983 14.4887 34.4871 14.6126 34.8553 14.6126C35.3059 14.6126 35.7597 14.4855 36.2167 14.2313L36.2834 15.2321C35.8518 15.4672 35.3345 15.5848 34.7315 15.5848C33.2145 15.5848 32.456 14.6856 32.456 12.8874C32.456 12.0105 32.6433 11.3624 33.0178 10.943C33.3986 10.5172 33.8968 10.3044 34.5125 10.3044C35.7566 10.3044 36.3786 11.0987 36.3786 12.6872V13.1447ZM35.2551 12.4013C35.2551 11.5879 35.0013 11.1813 34.4935 11.1813C34.2205 11.1813 34.0143 11.2956 33.8746 11.5244C33.7413 11.7531 33.6747 12.0454 33.6747 12.4013H35.2551Z" fill="#004D43"/>
<path d="M40.1608 10.7237L40.2084 10.3997H41.2747V15.4037C41.2747 16.8779 40.5956 17.615 39.2373 17.615C38.5581 17.615 37.9647 17.4911 37.4569 17.2432L37.6378 16.2043C37.8346 16.3251 38.0726 16.4235 38.3519 16.4998C38.6375 16.5824 38.9009 16.6237 39.1421 16.6237C39.7958 16.6237 40.1227 16.198 40.1227 15.3465V15.0415C39.8117 15.3783 39.4118 15.5467 38.9231 15.5467C38.3709 15.5467 37.9298 15.3338 37.5997 14.908C37.276 14.476 37.1142 13.8342 37.1142 12.9827C37.1142 12.5125 37.1745 12.0836 37.295 11.696C37.422 11.3083 37.6314 10.9811 37.9234 10.7142C38.2217 10.441 38.5835 10.3044 39.0088 10.3044C39.4341 10.3044 39.8181 10.4442 40.1608 10.7237ZM40.0846 14.2123V11.553C39.7863 11.3369 39.5197 11.2289 39.2849 11.2289C38.6629 11.2289 38.3519 11.8199 38.3519 13.0018C38.3519 14.0693 38.6533 14.603 39.2563 14.603C39.5483 14.603 39.8244 14.4728 40.0846 14.2123Z" fill="#004D43"/>
<path d="M42.8066 11.4195L42.6638 10.5331C43.1208 10.3806 43.6445 10.3044 44.2347 10.3044C44.9329 10.3044 45.428 10.4632 45.72 10.7809C46.012 11.0923 46.1579 11.6642 46.1579 12.4966V14.2885C46.1579 14.5554 46.2532 14.6888 46.4436 14.6888C46.5324 14.6888 46.634 14.6666 46.7482 14.6221L46.8339 15.4227C46.5927 15.5244 46.323 15.5752 46.0247 15.5752C45.5677 15.5752 45.2884 15.3814 45.1868 14.9938C44.7743 15.3814 44.295 15.5752 43.7492 15.5752C43.2605 15.5752 42.886 15.4259 42.6257 15.1273C42.3718 14.8286 42.2449 14.4474 42.2449 13.9835C42.2449 12.808 42.8987 12.2202 44.2062 12.2202C44.4664 12.2202 44.7362 12.252 45.0155 12.3155V12.0963C45.0155 11.5053 44.6822 11.2099 44.0158 11.2099C43.654 11.2099 43.2509 11.2797 42.8066 11.4195ZM45.0155 14.2408V13.0685C44.7996 12.9922 44.5965 12.9541 44.4061 12.9541C43.7524 12.9541 43.4255 13.2623 43.4255 13.8787C43.4255 14.1265 43.4826 14.3235 43.5969 14.4696C43.7111 14.6094 43.8793 14.6793 44.1015 14.6793C44.4442 14.6793 44.7489 14.5331 45.0155 14.2408Z" fill="#004D43"/>
<path d="M50.2284 10.6284V8.62684H51.4185V15.4799H50.3522L50.3141 15.032C49.965 15.3941 49.5492 15.5752 49.0669 15.5752C48.5146 15.5752 48.0735 15.356 47.7435 14.9176C47.4198 14.4791 47.2579 13.8342 47.2579 12.9827C47.2579 12.5125 47.3214 12.0836 47.4483 11.696C47.5753 11.302 47.7879 10.9716 48.0862 10.7047C48.3845 10.4378 48.7527 10.3044 49.1906 10.3044C49.5715 10.3044 49.9174 10.4124 50.2284 10.6284ZM50.2379 14.2504V11.5339C49.9396 11.3179 49.6762 11.2099 49.4477 11.2099C48.813 11.2099 48.4956 11.8072 48.4956 13.0018C48.4956 13.5355 48.5749 13.9422 48.7336 14.2218C48.8923 14.5014 49.1176 14.6412 49.4096 14.6412C49.7016 14.6412 49.9777 14.5109 50.2379 14.2504Z" fill="#004D43"/>
<path d="M52.9504 11.4195L52.8076 10.5331C53.2646 10.3806 53.7882 10.3044 54.3785 10.3044C55.0767 10.3044 55.5718 10.4632 55.8637 10.7809C56.1557 11.0923 56.3017 11.6642 56.3017 12.4966V14.2885C56.3017 14.5554 56.3969 14.6888 56.5873 14.6888C56.6762 14.6888 56.7777 14.6666 56.892 14.6221L56.9777 15.4227C56.7365 15.5244 56.4667 15.5752 56.1684 15.5752C55.7114 15.5752 55.4321 15.3814 55.3306 14.9938C54.918 15.3814 54.4388 15.5752 53.8929 15.5752C53.4042 15.5752 53.0297 15.4259 52.7695 15.1273C52.5156 14.8286 52.3886 14.4474 52.3886 13.9835C52.3886 12.808 53.0424 12.2202 54.3499 12.2202C54.6102 12.2202 54.8799 12.252 55.1592 12.3155V12.0963C55.1592 11.5053 54.826 11.2099 54.1595 11.2099C53.7977 11.2099 53.3947 11.2797 52.9504 11.4195ZM55.1592 14.2408V13.0685C54.9434 12.9922 54.7403 12.9541 54.5499 12.9541C53.8961 12.9541 53.5692 13.2623 53.5692 13.8787C53.5692 14.1265 53.6264 14.3235 53.7406 14.4696C53.8549 14.6094 54.0231 14.6793 54.2452 14.6793C54.588 14.6793 54.8926 14.5331 55.1592 14.2408Z" fill="#004D43"/>
<path d="M57.7517 10.3997H58.9418V15.4799H57.7517V10.3997ZM57.6565 9.07481C57.6565 8.85877 57.7199 8.69038 57.8469 8.56965C57.9738 8.44892 58.1389 8.38855 58.342 8.38855C58.5641 8.38855 58.7355 8.44892 58.8561 8.56965C58.9767 8.68402 59.037 8.85241 59.037 9.07481C59.037 9.29721 58.9703 9.46878 58.8371 9.58951C58.7101 9.70389 58.5451 9.76108 58.342 9.76108C58.1325 9.76108 57.9643 9.70071 57.8374 9.57998C57.7168 9.45289 57.6565 9.2845 57.6565 9.07481Z" fill="#004D43"/>
<path d="M60.4722 11.4195L60.3294 10.5331C60.7864 10.3806 61.31 10.3044 61.9003 10.3044C62.5985 10.3044 63.0936 10.4632 63.3855 10.7809C63.6775 11.0923 63.8235 11.6642 63.8235 12.4966V14.2885C63.8235 14.5554 63.9187 14.6888 64.1091 14.6888C64.198 14.6888 64.2995 14.6666 64.4138 14.6221L64.4995 15.4227C64.2583 15.5244 63.9885 15.5752 63.6902 15.5752C63.2332 15.5752 62.9539 15.3814 62.8524 14.9938C62.4398 15.3814 61.9606 15.5752 61.4147 15.5752C60.926 15.5752 60.5515 15.4259 60.2913 15.1273C60.0374 14.8286 59.9105 14.4474 59.9105 13.9835C59.9105 12.808 60.5642 12.2202 61.8717 12.2202C62.132 12.2202 62.4017 12.252 62.681 12.3155V12.0963C62.681 11.5053 62.3478 11.2099 61.6813 11.2099C61.3195 11.2099 60.9165 11.2797 60.4722 11.4195ZM62.681 14.2408V13.0685C62.4652 12.9922 62.2621 12.9541 62.0717 12.9541C61.4179 12.9541 61.091 13.2623 61.091 13.8787C61.091 14.1265 61.1482 14.3235 61.2624 14.4696C61.3767 14.6094 61.5449 14.6793 61.767 14.6793C62.1098 14.6793 62.4144 14.5331 62.681 14.2408Z" fill="#004D43"/>
<path d="M66.3589 10.3997L66.3969 10.9048C66.8539 10.5045 67.3554 10.3044 67.9012 10.3044C68.72 10.3044 69.1834 10.657 69.2913 11.3624C69.3167 11.5212 69.3294 11.7341 69.3294 12.001V15.4799H68.1393V12.1535C68.1393 11.9565 68.1361 11.8262 68.1297 11.7627C68.0916 11.4513 67.8822 11.2956 67.5014 11.2956C67.1713 11.2956 66.8286 11.4545 66.4731 11.7722V15.4799H65.2735V10.3997H66.3589Z" fill="#004D43"/>
<path d="M72.4521 15.0034L72.852 13.9358C73.455 14.3552 74.0357 14.5649 74.5943 14.5649C74.918 14.5649 75.1782 14.4918 75.375 14.3457C75.5781 14.1932 75.6797 13.9581 75.6797 13.6404C75.6797 13.2972 75.5718 13.0431 75.3559 12.8779C75.1465 12.7126 74.8037 12.5633 74.3277 12.4299C74.1246 12.3727 73.9532 12.3219 73.8136 12.2774C73.6803 12.2265 73.5248 12.1503 73.3471 12.0486C73.1757 11.9406 73.036 11.823 72.9281 11.696C72.8266 11.5689 72.7377 11.4005 72.6616 11.1908C72.5854 10.9811 72.5473 10.746 72.5473 10.4855C72.5473 9.88816 72.7536 9.40524 73.1662 9.03669C73.5851 8.66814 74.1214 8.48386 74.7752 8.48386C75.4416 8.48386 75.9462 8.64272 76.289 8.96044C76.6381 9.27815 76.8666 9.66576 76.9745 10.1233L75.8701 10.4473C75.6924 9.81191 75.3179 9.4942 74.7466 9.4942C74.4737 9.4942 74.2484 9.56727 74.0706 9.71342C73.8929 9.85957 73.8041 10.0756 73.8041 10.3616C73.8041 10.6666 73.9024 10.889 74.0992 11.0288C74.3023 11.1685 74.626 11.3052 75.0703 11.4386C75.667 11.6165 76.124 11.858 76.4413 12.163C76.765 12.468 76.9269 12.9096 76.9269 13.4879C76.9269 14.1487 76.7111 14.6698 76.2795 15.051C75.8542 15.4259 75.2893 15.6134 74.5848 15.6134C73.7406 15.6134 73.0297 15.41 72.4521 15.0034Z" fill="#004D43"/>
<path d="M80.6258 10.3997L81.7873 10.5236C81.2605 12.4235 80.7242 14.0121 80.1783 15.2893C80.0133 15.6769 79.8673 15.9883 79.7404 16.2234C79.6198 16.4648 79.4674 16.7031 79.2834 16.9382C79.0993 17.1733 78.8898 17.3449 78.655 17.4529C78.4265 17.561 78.1662 17.615 77.8743 17.615C77.3348 17.615 76.8365 17.4942 76.3795 17.2528L76.6842 16.271C77.1221 16.4998 77.4839 16.6142 77.7695 16.6142C78.0425 16.6142 78.2551 16.5157 78.4074 16.3187C78.5661 16.1281 78.7375 15.7913 78.9216 15.3084L77.1602 10.5141L78.4265 10.3997L79.1405 12.6586C79.3373 13.3004 79.4833 13.7802 79.5785 14.0979C79.8387 13.3417 80.1878 12.109 80.6258 10.3997Z" fill="#004D43"/>
<path d="M82.675 11.4195L82.5322 10.5331C82.9892 10.3806 83.5128 10.3044 84.1031 10.3044C84.8013 10.3044 85.2964 10.4632 85.5884 10.7809C85.8803 11.0923 86.0263 11.6642 86.0263 12.4966V14.2885C86.0263 14.5554 86.1215 14.6888 86.3119 14.6888C86.4008 14.6888 86.5024 14.6666 86.6166 14.6221L86.7023 15.4227C86.4611 15.5244 86.1913 15.5752 85.893 15.5752C85.436 15.5752 85.1567 15.3814 85.0552 14.9938C84.6426 15.3814 84.1634 15.5752 83.6175 15.5752C83.1288 15.5752 82.7543 15.4259 82.4941 15.1273C82.2402 14.8286 82.1133 14.4474 82.1133 13.9835C82.1133 12.808 82.767 12.2202 84.0745 12.2202C84.3348 12.2202 84.6045 12.252 84.8838 12.3155V12.0963C84.8838 11.5053 84.5506 11.2099 83.8841 11.2099C83.5223 11.2099 83.1193 11.2797 82.675 11.4195ZM84.8838 14.2408V13.0685C84.668 12.9922 84.4649 12.9541 84.2745 12.9541C83.6207 12.9541 83.2938 13.2623 83.2938 13.8787C83.2938 14.1265 83.351 14.3235 83.4652 14.4696C83.5795 14.6094 83.7477 14.6793 83.9698 14.6793C84.3126 14.6793 84.6172 14.5331 84.8838 14.2408Z" fill="#004D43"/>
<path d="M89.7613 10.3044C90.1104 10.3044 90.4055 10.4791 90.6467 10.8286L90.1136 11.6864C89.9612 11.4958 89.7803 11.4005 89.5709 11.4005C89.2535 11.4005 88.9552 11.5466 88.6759 11.8389V15.4799H87.4763V10.3997H88.5426L88.5902 10.9334C88.9457 10.5141 89.336 10.3044 89.7613 10.3044Z" fill="#004D43"/>
<path d="M91.2976 10.3997H92.4877V15.4799H91.2976V10.3997ZM91.2024 9.07481C91.2024 8.85877 91.2659 8.69038 91.3928 8.56965C91.5198 8.44892 91.6848 8.38855 91.8879 8.38855C92.1101 8.38855 92.2815 8.44892 92.4021 8.56965C92.5227 8.68402 92.5829 8.85241 92.5829 9.07481C92.5829 9.29721 92.5163 9.46878 92.383 9.58951C92.2561 9.70389 92.091 9.76108 91.8879 9.76108C91.6785 9.76108 91.5103 9.70071 91.3833 9.57998C91.2627 9.45289 91.2024 9.2845 91.2024 9.07481Z" fill="#004D43"/>
<path d="M94.0181 11.4195L93.8753 10.5331C94.3323 10.3806 94.856 10.3044 95.4463 10.3044C96.1444 10.3044 96.6395 10.4632 96.9315 10.7809C97.2235 11.0923 97.3695 11.6642 97.3695 12.4966V14.2885C97.3695 14.5554 97.4647 14.6888 97.6551 14.6888C97.7439 14.6888 97.8455 14.6666 97.9597 14.6221L98.0454 15.4227C97.8042 15.5244 97.5345 15.5752 97.2362 15.5752C96.7792 15.5752 96.4999 15.3814 96.3983 14.9938C95.9858 15.3814 95.5066 15.5752 94.9607 15.5752C94.472 15.5752 94.0975 15.4259 93.8372 15.1273C93.5834 14.8286 93.4564 14.4474 93.4564 13.9835C93.4564 12.808 94.1102 12.2202 95.4177 12.2202C95.6779 12.2202 95.9477 12.252 96.227 12.3155V12.0963C96.227 11.5053 95.8937 11.2099 95.2273 11.2099C94.8655 11.2099 94.4624 11.2797 94.0181 11.4195ZM96.227 14.2408V13.0685C96.0112 12.9922 95.808 12.9541 95.6176 12.9541C94.9639 12.9541 94.637 13.2623 94.637 13.8787C94.637 14.1265 94.6941 14.3235 94.8084 14.4696C94.9226 14.6094 95.0908 14.6793 95.313 14.6793C95.6557 14.6793 95.9604 14.5331 96.227 14.2408Z" fill="#004D43"/>
<path d="M101.466 10.3044C101.999 10.3044 102.368 10.4473 102.571 10.7333C102.774 11.0129 102.875 11.4354 102.875 12.001V15.4799H101.685V12.1535C101.685 11.8294 101.641 11.607 101.552 11.4863C101.469 11.3592 101.301 11.2956 101.047 11.2956C100.717 11.2956 100.375 11.4545 100.019 11.7722V15.4799H98.8195V8.62684H100.019V10.8477C100.463 10.4855 100.946 10.3044 101.466 10.3044Z" fill="#004D43"/>
<path d="M106.167 15.4799V8.62684H108.357C109.214 8.62684 109.883 8.86512 110.366 9.34169C110.848 9.81826 111.089 10.6221 111.089 11.7531C111.089 12.3377 111.035 12.8524 110.927 13.2972C110.826 13.7357 110.686 14.0915 110.508 14.3648C110.337 14.638 110.121 14.8604 109.861 15.032C109.601 15.2035 109.331 15.3211 109.052 15.3846C108.773 15.4482 108.458 15.4799 108.109 15.4799H106.167ZM107.386 9.55138V14.5554H108.185C108.738 14.5554 109.144 14.3489 109.404 13.9358C109.671 13.5228 109.804 12.8461 109.804 11.9056C109.804 11.0605 109.683 10.4569 109.442 10.0947C109.201 9.73248 108.823 9.55138 108.309 9.55138H107.386Z" fill="#BFD730"/>
<path d="M112.189 10.3997H113.379V15.4799H112.189V10.3997ZM112.094 9.07481C112.094 8.85877 112.157 8.69038 112.284 8.56965C112.411 8.44892 112.576 8.38855 112.779 8.38855C113.001 8.38855 113.173 8.44892 113.293 8.56965C113.414 8.68402 113.474 8.85241 113.474 9.07481C113.474 9.29721 113.407 9.46878 113.274 9.58951C113.147 9.70389 112.982 9.76108 112.779 9.76108C112.57 9.76108 112.401 9.70071 112.274 9.57998C112.154 9.45289 112.094 9.2845 112.094 9.07481Z" fill="#BFD730"/>
<path d="M117.461 10.7237L117.508 10.3997H118.575V15.4037C118.575 16.8779 117.896 17.615 116.537 17.615C115.858 17.615 115.265 17.4911 114.757 17.2432L114.938 16.2043C115.135 16.3251 115.373 16.4235 115.652 16.4998C115.937 16.5824 116.201 16.6237 116.442 16.6237C117.096 16.6237 117.423 16.198 117.423 15.3465V15.0415C117.112 15.3783 116.712 15.5467 116.223 15.5467C115.671 15.5467 115.23 15.3338 114.9 14.908C114.576 14.476 114.414 13.8342 114.414 12.9827C114.414 12.5125 114.474 12.0836 114.595 11.696C114.722 11.3083 114.931 10.9811 115.223 10.7142C115.522 10.441 115.884 10.3044 116.309 10.3044C116.734 10.3044 117.118 10.4442 117.461 10.7237ZM117.385 14.2123V11.553C117.086 11.3369 116.82 11.2289 116.585 11.2289C115.963 11.2289 115.652 11.8199 115.652 13.0018C115.652 14.0693 115.953 14.603 116.556 14.603C116.848 14.603 117.124 14.4728 117.385 14.2123Z" fill="#BFD730"/>
<path d="M119.869 10.3997H121.059V15.4799H119.869V10.3997ZM119.773 9.07481C119.773 8.85877 119.837 8.69038 119.964 8.56965C120.091 8.44892 120.256 8.38855 120.459 8.38855C120.681 8.38855 120.852 8.44892 120.973 8.56965C121.094 8.68402 121.154 8.85241 121.154 9.07481C121.154 9.29721 121.087 9.46878 120.954 9.58951C120.827 9.70389 120.662 9.76108 120.459 9.76108C120.249 9.76108 120.081 9.70071 119.954 9.57998C119.834 9.45289 119.773 9.2845 119.773 9.07481Z" fill="#BFD730"/>
<path d="M124.779 11.2575H123.636V13.8596C123.636 14.0121 123.643 14.136 123.655 14.2313C123.674 14.3266 123.719 14.4124 123.789 14.4887C123.865 14.5649 123.97 14.603 124.103 14.603C124.274 14.603 124.49 14.5427 124.75 14.4219L124.884 15.337C124.535 15.5022 124.16 15.5848 123.76 15.5848C122.878 15.5848 122.437 15.1209 122.437 14.1932V11.2575H121.78V10.3997H122.437V9.55138L123.636 8.96997V10.3997H124.779V11.2575Z" fill="#BFD730"/>
<path d="M125.955 11.4195L125.812 10.5331C126.269 10.3806 126.793 10.3044 127.383 10.3044C128.081 10.3044 128.576 10.4632 128.868 10.7809C129.16 11.0923 129.306 11.6642 129.306 12.4966V14.2885C129.306 14.5554 129.401 14.6888 129.592 14.6888C129.681 14.6888 129.782 14.6666 129.896 14.6221L129.982 15.4227C129.741 15.5244 129.471 15.5752 129.173 15.5752C128.716 15.5752 128.437 15.3814 128.335 14.9938C127.922 15.3814 127.443 15.5752 126.897 15.5752C126.409 15.5752 126.034 15.4259 125.774 15.1273C125.52 14.8286 125.393 14.4474 125.393 13.9835C125.393 12.808 126.047 12.2202 127.354 12.2202C127.615 12.2202 127.884 12.252 128.164 12.3155V12.0963C128.164 11.5053 127.83 11.2099 127.164 11.2099C126.802 11.2099 126.399 11.2797 125.955 11.4195ZM128.164 14.2408V13.0685C127.948 12.9922 127.745 12.9541 127.554 12.9541C126.901 12.9541 126.574 13.2623 126.574 13.8787C126.574 14.1265 126.631 14.3235 126.745 14.4696C126.859 14.6094 127.028 14.6793 127.25 14.6793C127.592 14.6793 127.897 14.5331 128.164 14.2408Z" fill="#BFD730"/>
<path d="M130.616 14.1169V8.62684H131.806V13.9454C131.806 14.1741 131.841 14.3393 131.91 14.441C131.987 14.5427 132.11 14.5935 132.282 14.5935C132.478 14.5935 132.694 14.5363 132.929 14.4219L133.072 15.337C132.729 15.5022 132.355 15.5848 131.949 15.5848C131.453 15.5848 131.108 15.4609 130.911 15.2131C130.714 14.9589 130.616 14.5935 130.616 14.1169Z" fill="#BFD730"/>
</svg>
