<svg width="365" height="48" viewBox="0 0 365 48" fill="none" xmlns="http://www.w3.org/2000/svg">
<path d="M59.328 26.83V33.694H56V15H62.552C64.528 15 66.062 15.4593 67.154 16.378C68.246 17.2967 68.792 18.6313 68.792 20.382C68.792 22.3407 68.194 23.9093 66.998 25.088C65.8193 26.2493 64.2247 26.83 62.214 26.83H59.328ZM59.328 24.256H61.85C63.0113 24.256 63.8867 23.9527 64.476 23.346C65.0827 22.722 65.386 21.8207 65.386 20.642C65.386 18.5793 64.294 17.548 62.11 17.548H59.328V24.256Z" fill="#004D43"/>
<path d="M78.1069 33.382C77.3096 33.798 76.3822 34.006 75.3249 34.006C74.2676 34.006 73.3489 33.798 72.5689 33.382C71.8062 32.966 71.2169 32.4027 70.8009 31.692C70.3849 30.9813 70.0816 30.2273 69.8909 29.43C69.7002 28.6153 69.6049 27.7487 69.6049 26.83C69.6049 24.698 70.1076 22.956 71.1129 21.604C72.1356 20.252 73.6349 19.576 75.6109 19.576C79.4069 19.576 81.3049 21.916 81.3049 26.596C81.3049 27.5667 81.1922 28.4767 80.9669 29.326C80.7589 30.1753 80.4296 30.964 79.9789 31.692C79.5282 32.4027 78.9042 32.966 78.1069 33.382ZM75.4029 31.432C77.0842 31.432 77.9249 29.8633 77.9249 26.726C77.9249 25.8593 77.8729 25.1227 77.7689 24.516C77.6822 23.9093 77.4482 23.3633 77.0669 22.878C76.7029 22.3927 76.1916 22.15 75.5329 22.15C73.8169 22.15 72.9589 23.7187 72.9589 26.856C72.9589 29.9067 73.7736 31.432 75.4029 31.432Z" fill="#004D43"/>
<path d="M90.1514 19.576C91.1047 19.576 91.9107 20.0527 92.5694 21.006L91.1134 23.346C90.6974 22.826 90.2034 22.566 89.6314 22.566C88.7647 22.566 87.9501 22.9647 87.1874 23.762V33.694H83.9114V19.836H86.8234L86.9534 21.292C87.9241 20.148 88.9901 19.576 90.1514 19.576Z" fill="#004D43"/>
<path d="M101.277 22.176H98.1568V29.274C98.1568 29.69 98.1741 30.028 98.2088 30.288C98.2608 30.548 98.3821 30.782 98.5728 30.99C98.7808 31.198 99.0668 31.302 99.4308 31.302C99.8988 31.302 100.488 31.1373 101.199 30.808L101.563 33.304C100.609 33.7547 99.5868 33.98 98.4948 33.98C96.0854 33.98 94.8808 32.7147 94.8808 30.184V22.176H93.0868V19.836H94.8808V17.522L98.1568 15.936V19.836H101.277V22.176Z" fill="#004D43"/>
<path d="M104.28 22.618L103.89 20.2C105.138 19.784 106.568 19.576 108.18 19.576C110.087 19.576 111.439 20.0093 112.236 20.876C113.034 21.7253 113.432 23.2853 113.432 25.556V30.444C113.432 31.172 113.692 31.536 114.212 31.536C114.455 31.536 114.732 31.4753 115.044 31.354L115.278 33.538C114.62 33.8153 113.883 33.954 113.068 33.954C111.82 33.954 111.058 33.4253 110.78 32.368C109.654 33.4253 108.345 33.954 106.854 33.954C105.52 33.954 104.497 33.5467 103.786 32.732C103.093 31.9173 102.746 30.8773 102.746 29.612C102.746 26.4053 104.532 24.802 108.102 24.802C108.813 24.802 109.55 24.8887 110.312 25.062V24.464C110.312 22.852 109.402 22.046 107.582 22.046C106.594 22.046 105.494 22.2367 104.28 22.618ZM110.312 30.314V27.116C109.723 26.908 109.168 26.804 108.648 26.804C106.863 26.804 105.97 27.6447 105.97 29.326C105.97 30.002 106.126 30.5393 106.438 30.938C106.75 31.3193 107.21 31.51 107.816 31.51C108.752 31.51 109.584 31.1113 110.312 30.314Z" fill="#004D43"/>
<path d="M116.8 29.976V15H120.05V29.508C120.05 30.132 120.145 30.5827 120.336 30.86C120.544 31.1373 120.882 31.276 121.35 31.276C121.887 31.276 122.477 31.12 123.118 30.808L123.508 33.304C122.572 33.7547 121.549 33.98 120.44 33.98C119.088 33.98 118.143 33.642 117.606 32.966C117.069 32.2727 116.8 31.276 116.8 29.976Z" fill="#004D43"/>
<path d="M132.025 28.1462H129.061V33.6942H127.75V20.0332H132.272C133.602 20.0332 134.634 20.3435 135.369 20.9642C136.104 21.5722 136.471 22.4715 136.471 23.6622C136.471 25.0302 136.059 26.1195 135.236 26.9302C134.425 27.7409 133.355 28.1462 132.025 28.1462ZM129.061 26.9872H131.911C132.95 26.9872 133.741 26.7212 134.286 26.1892C134.843 25.6445 135.122 24.8655 135.122 23.8522C135.122 22.8895 134.869 22.2119 134.362 21.8192C133.868 21.4139 133.102 21.2112 132.063 21.2112H129.061V26.9872Z" fill="#004D43"/>
<path d="M144.8 28.8112H139.005C139.005 31.4712 139.955 32.8012 141.855 32.8012C142.729 32.8012 143.622 32.5605 144.534 32.0792L144.648 33.2192C143.8 33.6879 142.818 33.9222 141.703 33.9222C139.031 33.9222 137.694 32.1425 137.694 28.5832C137.694 26.8225 138.03 25.5305 138.701 24.7072C139.373 23.8712 140.297 23.4532 141.475 23.4532C142.628 23.4532 143.47 23.8522 144.002 24.6502C144.534 25.4355 144.8 26.6009 144.8 28.1462V28.8112ZM143.489 27.8042C143.489 26.7402 143.306 25.9359 142.938 25.3912C142.584 24.8339 142.071 24.5552 141.399 24.5552C140.627 24.5552 140.038 24.8845 139.632 25.5432C139.227 26.1892 139.024 26.9429 139.024 27.8042H143.489Z" fill="#004D43"/>
<path d="M151.935 23.4532C153.442 23.4532 154.323 24.1119 154.576 25.4292C154.614 25.6445 154.633 26.0562 154.633 26.6642V33.6942H153.379V26.8352C153.379 26.3919 153.36 26.0499 153.322 25.8092C153.17 25.0112 152.587 24.6122 151.574 24.6122C150.649 24.6122 149.674 25.0999 148.648 26.0752V33.6942H147.375V23.6622H148.648V24.9162C149.725 23.9409 150.82 23.4532 151.935 23.4532Z" fill="#004D43"/>
<path d="M160.993 23.4532C161.715 23.4532 162.506 23.7445 163.368 24.3272V23.6622H164.641V33.4092C164.641 33.9539 164.615 34.4289 164.565 34.8342C164.514 35.2522 164.406 35.6575 164.242 36.0502C164.09 36.4429 163.881 36.7659 163.615 37.0192C163.349 37.2725 162.994 37.4752 162.551 37.6272C162.107 37.7792 161.582 37.8552 160.974 37.8552C159.77 37.8552 158.719 37.5955 157.82 37.0762L158.048 35.8792C158.402 36.0945 158.865 36.2909 159.435 36.4682C160.017 36.6582 160.575 36.7532 161.107 36.7532C161.601 36.7532 162.006 36.6582 162.323 36.4682C162.652 36.2909 162.893 36.0249 163.045 35.6702C163.197 35.3155 163.298 34.9482 163.349 34.5682C163.412 34.2009 163.444 33.7575 163.444 33.2382V32.6492C162.595 33.4725 161.696 33.8842 160.746 33.8842C159.694 33.8842 158.858 33.4599 158.238 32.6112C157.617 31.7625 157.307 30.5022 157.307 28.8302C157.307 28.1589 157.37 27.5255 157.497 26.9302C157.636 26.3222 157.839 25.7522 158.105 25.2202C158.383 24.6755 158.77 24.2449 159.264 23.9282C159.758 23.6115 160.334 23.4532 160.993 23.4532ZM158.637 28.9062C158.637 30.1349 158.852 31.0849 159.283 31.7562C159.713 32.4275 160.277 32.7632 160.974 32.7632C161.848 32.7632 162.652 32.3325 163.387 31.4712V25.5812C162.538 24.9225 161.778 24.5932 161.107 24.5932C159.46 24.5932 158.637 26.0309 158.637 28.9062Z" fill="#004D43"/>
<path d="M168.105 24.9162L167.972 23.7952C168.795 23.5672 169.752 23.4532 170.841 23.4532C172.944 23.4532 173.995 24.4919 173.995 26.5692V31.9462C173.995 32.2502 174.046 32.4655 174.147 32.5922C174.261 32.7189 174.445 32.7822 174.698 32.7822C174.901 32.7822 175.173 32.7189 175.515 32.5922L175.629 33.6372C175.11 33.8019 174.692 33.8842 174.375 33.8842C173.932 33.8842 173.577 33.7702 173.311 33.5422C173.045 33.3015 172.893 33.0102 172.855 32.6682C171.943 33.4789 170.98 33.8842 169.967 33.8842C169.042 33.8842 168.339 33.5929 167.858 33.0102C167.377 32.4275 167.136 31.6865 167.136 30.7872C167.136 29.6092 167.472 28.7415 168.143 28.1842C168.827 27.6142 169.777 27.3292 170.993 27.3292C171.601 27.3292 172.184 27.3925 172.741 27.5192V26.7972C172.741 26.0119 172.57 25.4419 172.228 25.0872C171.886 24.7325 171.291 24.5552 170.442 24.5552C169.644 24.5552 168.865 24.6755 168.105 24.9162ZM172.741 31.6612L172.76 28.5072C172.203 28.3679 171.683 28.2982 171.202 28.2982C170.29 28.2982 169.606 28.4882 169.15 28.8682C168.707 29.2482 168.485 29.8752 168.485 30.7492C168.485 31.3319 168.631 31.8132 168.922 32.1932C169.226 32.5732 169.669 32.7632 170.252 32.7632C171.126 32.7632 171.956 32.3959 172.741 31.6612Z" fill="#004D43"/>
<path d="M178.855 23.6622V35.1002C178.855 36.0122 178.665 36.6962 178.285 37.1522C177.918 37.6209 177.322 37.8552 176.499 37.8552C175.828 37.8552 175.232 37.7095 174.713 37.4182L174.941 36.2402C175.46 36.5695 175.999 36.7342 176.556 36.7342C176.936 36.7342 177.202 36.6012 177.354 36.3352C177.506 36.0692 177.582 35.6005 177.582 34.9292V23.6622H178.855ZM177.373 21.0782C177.373 20.8122 177.449 20.6095 177.601 20.4702C177.753 20.3182 177.949 20.2422 178.19 20.2422C178.747 20.2422 179.026 20.5272 179.026 21.0972C179.026 21.3759 178.95 21.5975 178.798 21.7622C178.646 21.9142 178.443 21.9902 178.19 21.9902C177.949 21.9902 177.753 21.9079 177.601 21.7432C177.449 21.5785 177.373 21.3569 177.373 21.0782Z" fill="#004D43"/>
<path d="M184.655 33.8842C183.135 33.8842 182.261 33.2319 182.033 31.9272C181.983 31.6359 181.957 31.2242 181.957 30.6922V23.8332L183.211 23.6622V30.5212C183.211 31.0025 183.237 31.3445 183.287 31.5472C183.414 32.3579 183.971 32.7632 184.959 32.7632C185.897 32.7632 186.891 32.2692 187.942 31.2812V23.6622H189.234V33.6942H187.942V32.4592C186.84 33.4092 185.745 33.8842 184.655 33.8842Z" fill="#004D43"/>
<path d="M192.69 24.9162L192.557 23.7952C193.38 23.5672 194.337 23.4532 195.426 23.4532C197.529 23.4532 198.58 24.4919 198.58 26.5692V31.9462C198.58 32.2502 198.631 32.4655 198.732 32.5922C198.846 32.7189 199.03 32.7822 199.283 32.7822C199.486 32.7822 199.758 32.7189 200.1 32.5922L200.214 33.6372C199.695 33.8019 199.277 33.8842 198.96 33.8842C198.517 33.8842 198.162 33.7702 197.896 33.5422C197.63 33.3015 197.478 33.0102 197.44 32.6682C196.528 33.4789 195.565 33.8842 194.552 33.8842C193.627 33.8842 192.924 33.5929 192.443 33.0102C191.962 32.4275 191.721 31.6865 191.721 30.7872C191.721 29.6092 192.057 28.7415 192.728 28.1842C193.412 27.6142 194.362 27.3292 195.578 27.3292C196.186 27.3292 196.769 27.3925 197.326 27.5192V26.7972C197.326 26.0119 197.155 25.4419 196.813 25.0872C196.471 24.7325 195.876 24.5552 195.027 24.5552C194.229 24.5552 193.45 24.6755 192.69 24.9162ZM197.326 31.6612L197.345 28.5072C196.788 28.3679 196.268 28.2982 195.787 28.2982C194.875 28.2982 194.191 28.4882 193.735 28.8682C193.292 29.2482 193.07 29.8752 193.07 30.7492C193.07 31.3319 193.216 31.8132 193.507 32.1932C193.811 32.5732 194.254 32.7632 194.837 32.7632C195.711 32.7632 196.541 32.3959 197.326 31.6612Z" fill="#004D43"/>
<path d="M206.727 23.4532C208.234 23.4532 209.115 24.1119 209.368 25.4292C209.406 25.6445 209.425 26.0562 209.425 26.6642V33.6942H208.171V26.8352C208.171 26.3919 208.152 26.0499 208.114 25.8092C207.962 25.0112 207.379 24.6122 206.366 24.6122C205.441 24.6122 204.466 25.0999 203.44 26.0752V33.6942H202.167V23.6622H203.44V24.9162C204.517 23.9409 205.612 23.4532 206.727 23.4532Z" fill="#004D43"/>
<path d="M220.025 28.1462H217.061V33.6942H215.75V20.0332H220.272C221.602 20.0332 222.634 20.3435 223.369 20.9642C224.104 21.5722 224.471 22.4715 224.471 23.6622C224.471 25.0302 224.059 26.1195 223.236 26.9302C222.425 27.7409 221.355 28.1462 220.025 28.1462ZM217.061 26.9872H219.911C220.95 26.9872 221.741 26.7212 222.286 26.1892C222.843 25.6445 223.122 24.8655 223.122 23.8522C223.122 22.8895 222.869 22.2119 222.362 21.8192C221.868 21.4139 221.102 21.2112 220.063 21.2112H217.061V26.9872Z" fill="#004D43"/>
<path d="M230.005 23.4532C230.917 23.4532 231.557 23.9725 231.924 25.0112L230.879 25.5812C230.727 25.2519 230.569 25.0175 230.404 24.8782C230.239 24.7262 229.999 24.6502 229.682 24.6502C229.087 24.6502 228.409 25.0872 227.649 25.9612V33.6942H226.376V23.6622H227.573V24.7832C228.384 23.8965 229.194 23.4532 230.005 23.4532Z" fill="#004D43"/>
<path d="M236.618 33.9222C235.909 33.9222 235.294 33.7702 234.775 33.4662C234.268 33.1622 233.882 32.7442 233.616 32.2122C233.35 31.6802 233.16 31.1355 233.046 30.5782C232.932 30.0082 232.875 29.3939 232.875 28.7352C232.875 27.1899 233.204 25.9232 233.863 24.9352C234.534 23.9472 235.529 23.4532 236.846 23.4532C239.303 23.4532 240.532 25.1505 240.532 28.5452C240.532 29.2292 240.462 29.8752 240.323 30.4832C240.184 31.0912 239.968 31.6612 239.677 32.1932C239.386 32.7252 238.974 33.1495 238.442 33.4662C237.923 33.7702 237.315 33.9222 236.618 33.9222ZM236.656 32.8202C237.163 32.8202 237.593 32.6935 237.948 32.4402C238.303 32.1869 238.562 31.8449 238.727 31.4142C238.904 30.9835 239.031 30.5402 239.107 30.0842C239.183 29.6282 239.221 29.1405 239.221 28.6212C239.221 25.9232 238.41 24.5742 236.789 24.5742C236.27 24.5742 235.826 24.7199 235.459 25.0112C235.104 25.2899 234.838 25.6635 234.661 26.1322C234.484 26.5882 234.357 27.0315 234.281 27.4622C234.218 27.8929 234.186 28.3299 234.186 28.7732C234.186 29.5079 234.249 30.1602 234.376 30.7302C234.515 31.3002 234.775 31.7942 235.155 32.2122C235.548 32.6175 236.048 32.8202 236.656 32.8202Z" fill="#004D43"/>
<path d="M246.302 23.4532C247.024 23.4532 247.816 23.7445 248.677 24.3272V20.0332H249.95V33.6942H248.753V32.6492C247.904 33.4725 247.005 33.8842 246.055 33.8842C245.004 33.8842 244.168 33.4599 243.547 32.6112C242.926 31.7625 242.616 30.5022 242.616 28.8302C242.616 28.1589 242.679 27.5255 242.806 26.9302C242.945 26.3222 243.148 25.7522 243.414 25.2202C243.693 24.6755 244.079 24.2449 244.573 23.9282C245.067 23.6115 245.643 23.4532 246.302 23.4532ZM243.946 28.9062C243.946 30.1349 244.161 31.0849 244.592 31.7562C245.023 32.4275 245.586 32.7632 246.283 32.7632C247.157 32.7632 247.961 32.3325 248.696 31.4712V25.5812C247.847 24.9225 247.087 24.5932 246.416 24.5932C244.769 24.5932 243.946 26.0309 243.946 28.9062Z" fill="#004D43"/>
<path d="M255.771 33.8842C254.251 33.8842 253.377 33.2319 253.149 31.9272C253.098 31.6359 253.073 31.2242 253.073 30.6922V23.8332L254.327 23.6622V30.5212C254.327 31.0025 254.352 31.3445 254.403 31.5472C254.529 32.3579 255.087 32.7632 256.075 32.7632C257.012 32.7632 258.006 32.2692 259.058 31.2812V23.6622H260.35V33.6942H259.058V32.4592C257.956 33.4092 256.86 33.8842 255.771 33.8842Z" fill="#004D43"/>
<path d="M270.417 23.7952L267.662 27.9372L270.892 33.6942H269.448L266.617 28.6972H264.888V33.6942H263.615V20.0332H264.888V27.5382H266.617L269.163 23.6622L270.417 23.7952Z" fill="#004D43"/>
<path d="M280.025 28.1462H277.061V33.6942H275.75V20.0332H280.272C281.602 20.0332 282.634 20.3435 283.369 20.9642C284.104 21.5722 284.471 22.4715 284.471 23.6622C284.471 25.0302 284.059 26.1195 283.236 26.9302C282.425 27.7409 281.355 28.1462 280.025 28.1462ZM277.061 26.9872H279.911C280.95 26.9872 281.741 26.7212 282.286 26.1892C282.843 25.6445 283.122 24.8655 283.122 23.8522C283.122 22.8895 282.869 22.2119 282.362 21.8192C281.868 21.4139 281.102 21.2112 280.063 21.2112H277.061V26.9872Z" fill="#004D43"/>
<path d="M292.8 28.8112H287.005C287.005 31.4712 287.955 32.8012 289.855 32.8012C290.729 32.8012 291.622 32.5605 292.534 32.0792L292.648 33.2192C291.8 33.6879 290.818 33.9222 289.703 33.9222C287.031 33.9222 285.694 32.1425 285.694 28.5832C285.694 26.8225 286.03 25.5305 286.701 24.7072C287.373 23.8712 288.297 23.4532 289.475 23.4532C290.628 23.4532 291.47 23.8522 292.002 24.6502C292.534 25.4355 292.8 26.6009 292.8 28.1462V28.8112ZM291.489 27.8042C291.489 26.7402 291.306 25.9359 290.938 25.3912C290.584 24.8339 290.071 24.5552 289.399 24.5552C288.627 24.5552 288.038 24.8845 287.632 25.5432C287.227 26.1892 287.024 26.9429 287.024 27.8042H291.489Z" fill="#004D43"/>
<path d="M298.472 23.4532C299.194 23.4532 299.986 23.7445 300.847 24.3272V23.6622H302.12V33.4092C302.12 33.9539 302.095 34.4289 302.044 34.8342C301.993 35.2522 301.886 35.6575 301.721 36.0502C301.569 36.4429 301.36 36.7659 301.094 37.0192C300.828 37.2725 300.473 37.4752 300.03 37.6272C299.587 37.7792 299.061 37.8552 298.453 37.8552C297.25 37.8552 296.198 37.5955 295.299 37.0762L295.527 35.8792C295.882 36.0945 296.344 36.2909 296.914 36.4682C297.497 36.6582 298.054 36.7532 298.586 36.7532C299.08 36.7532 299.485 36.6582 299.802 36.4682C300.131 36.2909 300.372 36.0249 300.524 35.6702C300.676 35.3155 300.777 34.9482 300.828 34.5682C300.891 34.2009 300.923 33.7575 300.923 33.2382V32.6492C300.074 33.4725 299.175 33.8842 298.225 33.8842C297.174 33.8842 296.338 33.4599 295.717 32.6112C295.096 31.7625 294.786 30.5022 294.786 28.8302C294.786 28.1589 294.849 27.5255 294.976 26.9302C295.115 26.3222 295.318 25.7522 295.584 25.2202C295.863 24.6755 296.249 24.2449 296.743 23.9282C297.237 23.6115 297.813 23.4532 298.472 23.4532ZM296.116 28.9062C296.116 30.1349 296.331 31.0849 296.762 31.7562C297.193 32.4275 297.756 32.7632 298.453 32.7632C299.327 32.7632 300.131 32.3325 300.866 31.4712V25.5812C300.017 24.9225 299.257 24.5932 298.586 24.5932C296.939 24.5932 296.116 26.0309 296.116 28.9062Z" fill="#004D43"/>
<path d="M305.585 24.9162L305.452 23.7952C306.275 23.5672 307.231 23.4532 308.321 23.4532C310.423 23.4532 311.475 24.4919 311.475 26.5692V31.9462C311.475 32.2502 311.525 32.4655 311.627 32.5922C311.741 32.7189 311.924 32.7822 312.178 32.7822C312.38 32.7822 312.653 32.7189 312.995 32.5922L313.109 33.6372C312.589 33.8019 312.171 33.8842 311.855 33.8842C311.411 33.8842 311.057 33.7702 310.791 33.5422C310.525 33.3015 310.373 33.0102 310.335 32.6682C309.423 33.4789 308.46 33.8842 307.447 33.8842C306.522 33.8842 305.819 33.5929 305.338 33.0102C304.856 32.4275 304.616 31.6865 304.616 30.7872C304.616 29.6092 304.951 28.7415 305.623 28.1842C306.307 27.6142 307.257 27.3292 308.473 27.3292C309.081 27.3292 309.663 27.3925 310.221 27.5192V26.7972C310.221 26.0119 310.05 25.4419 309.708 25.0872C309.366 24.7325 308.77 24.5552 307.922 24.5552C307.124 24.5552 306.345 24.6755 305.585 24.9162ZM310.221 31.6612L310.24 28.5072C309.682 28.3679 309.163 28.2982 308.682 28.2982C307.77 28.2982 307.086 28.4882 306.63 28.8682C306.186 29.2482 305.965 29.8752 305.965 30.7492C305.965 31.3319 306.11 31.8132 306.402 32.1932C306.706 32.5732 307.149 32.7632 307.732 32.7632C308.606 32.7632 309.435 32.3959 310.221 31.6612Z" fill="#004D43"/>
<path d="M317.973 23.4532C318.695 23.4532 319.487 23.7445 320.348 24.3272V20.0332H321.621V33.6942H320.424V32.6492C319.575 33.4725 318.676 33.8842 317.726 33.8842C316.675 33.8842 315.839 33.4599 315.218 32.6112C314.597 31.7625 314.287 30.5022 314.287 28.8302C314.287 28.1589 314.35 27.5255 314.477 26.9302C314.616 26.3222 314.819 25.7522 315.085 25.2202C315.364 24.6755 315.75 24.2449 316.244 23.9282C316.738 23.6115 317.314 23.4532 317.973 23.4532ZM315.617 28.9062C315.617 30.1349 315.832 31.0849 316.263 31.7562C316.694 32.4275 317.257 32.7632 317.954 32.7632C318.828 32.7632 319.632 32.3325 320.367 31.4712V25.5812C319.518 24.9225 318.758 24.5932 318.087 24.5932C316.44 24.5932 315.617 26.0309 315.617 28.9062Z" fill="#004D43"/>
<path d="M325.086 24.9162L324.953 23.7952C325.776 23.5672 326.732 23.4532 327.822 23.4532C329.924 23.4532 330.976 24.4919 330.976 26.5692V31.9462C330.976 32.2502 331.026 32.4655 331.128 32.5922C331.242 32.7189 331.425 32.7822 331.679 32.7822C331.881 32.7822 332.154 32.7189 332.496 32.5922L332.61 33.6372C332.09 33.8019 331.672 33.8842 331.356 33.8842C330.912 33.8842 330.558 33.7702 330.292 33.5422C330.026 33.3015 329.874 33.0102 329.836 32.6682C328.924 33.4789 327.961 33.8842 326.948 33.8842C326.023 33.8842 325.32 33.5929 324.839 33.0102C324.357 32.4275 324.117 31.6865 324.117 30.7872C324.117 29.6092 324.452 28.7415 325.124 28.1842C325.808 27.6142 326.758 27.3292 327.974 27.3292C328.582 27.3292 329.164 27.3925 329.722 27.5192V26.7972C329.722 26.0119 329.551 25.4419 329.209 25.0872C328.867 24.7325 328.271 24.5552 327.423 24.5552C326.625 24.5552 325.846 24.6755 325.086 24.9162ZM329.722 31.6612L329.741 28.5072C329.183 28.3679 328.664 28.2982 328.183 28.2982C327.271 28.2982 326.587 28.4882 326.131 28.8682C325.687 29.2482 325.466 29.8752 325.466 30.7492C325.466 31.3319 325.611 31.8132 325.903 32.1932C326.207 32.5732 326.65 32.7632 327.233 32.7632C328.107 32.7632 328.936 32.3959 329.722 31.6612Z" fill="#004D43"/>
<path d="M334.563 23.6622H335.817V33.6942H334.563V23.6622ZM334.354 21.0782C334.354 20.8122 334.43 20.6095 334.582 20.4702C334.734 20.3182 334.93 20.2422 335.171 20.2422C335.728 20.2422 336.007 20.5272 336.007 21.0972C336.007 21.3759 335.931 21.5975 335.779 21.7622C335.627 21.9142 335.424 21.9902 335.171 21.9902C334.93 21.9902 334.734 21.9079 334.582 21.7432C334.43 21.5785 334.354 21.3569 334.354 21.0782Z" fill="#004D43"/>
<path d="M339.28 24.9162L339.147 23.7952C339.97 23.5672 340.927 23.4532 342.016 23.4532C344.119 23.4532 345.17 24.4919 345.17 26.5692V31.9462C345.17 32.2502 345.221 32.4655 345.322 32.5922C345.436 32.7189 345.62 32.7822 345.873 32.7822C346.076 32.7822 346.348 32.7189 346.69 32.5922L346.804 33.6372C346.285 33.8019 345.867 33.8842 345.55 33.8842C345.107 33.8842 344.752 33.7702 344.486 33.5422C344.22 33.3015 344.068 33.0102 344.03 32.6682C343.118 33.4789 342.155 33.8842 341.142 33.8842C340.217 33.8842 339.514 33.5929 339.033 33.0102C338.552 32.4275 338.311 31.6865 338.311 30.7872C338.311 29.6092 338.647 28.7415 339.318 28.1842C340.002 27.6142 340.952 27.3292 342.168 27.3292C342.776 27.3292 343.359 27.3925 343.916 27.5192V26.7972C343.916 26.0119 343.745 25.4419 343.403 25.0872C343.061 24.7325 342.466 24.5552 341.617 24.5552C340.819 24.5552 340.04 24.6755 339.28 24.9162ZM343.916 31.6612L343.935 28.5072C343.378 28.3679 342.858 28.2982 342.377 28.2982C341.465 28.2982 340.781 28.4882 340.325 28.8682C339.882 29.2482 339.66 29.8752 339.66 30.7492C339.66 31.3319 339.806 31.8132 340.097 32.1932C340.401 32.5732 340.844 32.7632 341.427 32.7632C342.301 32.7632 343.131 32.3959 343.916 31.6612Z" fill="#004D43"/>
<path d="M353.317 23.4532C354.824 23.4532 355.705 24.1119 355.958 25.4292C355.996 25.6445 356.015 26.0562 356.015 26.6642V33.6942H354.761V26.8352C354.761 26.3919 354.742 26.0499 354.704 25.8092C354.552 25.0112 353.969 24.6122 352.956 24.6122C352.031 24.6122 351.056 25.0999 350.03 26.0752V33.6942H348.757V23.6622H350.03V24.9162C351.107 23.9409 352.202 23.4532 353.317 23.4532Z" fill="#004D43"/>
<path fill-rule="evenodd" clip-rule="evenodd" d="M23.9934 10C31.6301 9.99978 37.7843 16.1463 37.7898 23.7793C37.7954 31.3715 31.6237 37.564 24.0484 37.5673C16.3841 37.5707 10.2291 31.417 10.2334 23.7553C10.2376 16.1476 16.387 10.0003 23.9934 10ZM30.1663 19.378C30.4753 19.5535 30.6494 19.6465 30.8175 19.749C31.091 19.9158 31.3396 19.991 31.5514 19.65C31.7763 19.2879 31.5514 19.1438 31.2759 18.9875C28.5153 17.422 25.5836 16.6181 22.3874 16.9645C20.3698 17.1832 18.5054 17.8429 16.7801 18.9019C16.5276 19.0569 16.1992 19.1965 16.4566 19.6045C16.7181 20.0191 16.9886 19.8181 17.2711 19.6372C17.4276 19.5369 17.5962 19.4553 17.8586 19.3106C17.7536 19.5676 17.6976 19.713 17.6356 19.8557C16.4691 22.5412 15.3027 25.2266 14.1344 27.9113C13.7341 28.8311 13.8835 29.3286 14.7535 29.8494C15.0134 30.0049 15.2946 30.1378 15.582 30.2329C17.3584 30.8207 19.1509 30.8062 20.9486 30.3349C21.3677 30.225 21.7605 30.0446 22.1268 29.8134C22.9161 29.3155 23.0612 28.8032 22.6874 27.9455C21.432 25.0642 20.1901 22.1767 18.9196 19.3019C18.7454 18.908 18.852 18.7951 19.2094 18.657C22.396 17.4263 25.564 17.5006 28.7359 18.7186C29.1707 18.8856 29.2001 19.0624 29.0241 19.4605C27.8042 22.2197 26.6077 24.9892 25.4033 27.7552C24.9093 28.8899 25.1062 29.463 26.2269 30.0009C27.6162 30.6677 29.0986 30.7576 30.6036 30.6205C31.5584 30.5335 32.4905 30.343 33.3179 29.8184C34.1109 29.3159 34.2638 28.8023 33.8928 27.9536C33.2958 26.5879 32.7016 25.2208 32.1076 23.8538C31.48 22.4087 30.8538 20.9631 30.1663 19.378Z" fill="#02A750"/>
<path fill-rule="evenodd" clip-rule="evenodd" d="M23.961 48C17.0705 47.9072 11.2023 45.3993 6.47473 40.3916C2.6704 36.3618 0.555623 31.5269 0.0917436 25.9902C0.0497396 25.4891 0.047904 24.9848 0.00363236 24.484C-0.0201231 24.2156 0.0707956 24.1479 0.330918 24.1542C1.03127 24.1712 1.73271 24.1717 2.43306 24.1528C2.76748 24.1438 2.70107 24.3591 2.70701 24.547C2.76629 26.4425 3.03764 28.308 3.59222 30.121C4.62451 33.4959 6.36978 36.4555 8.86043 38.9661C11.5925 41.7202 14.8266 43.6265 18.5831 44.5975C22.5929 45.6341 26.5893 45.552 30.5407 44.2631C35.3728 42.687 39.1795 39.7567 41.929 35.4943C44.3564 31.7311 45.4608 27.5894 45.2707 23.1062C45.0458 17.8 43.0857 13.202 39.4569 9.36822C35.853 5.56087 31.392 3.3644 26.149 2.83647C21.8045 2.39899 17.7036 3.21448 13.8639 5.299C13.5681 5.45962 13.3881 5.45929 13.212 5.15329C12.9074 4.62417 12.5963 4.09688 12.2548 3.59118C12.0481 3.28528 12.1276 3.14421 12.4244 2.97917C14.2427 1.96821 16.1645 1.21371 18.1796 0.718374C21.9088 -0.198249 25.66 -0.245095 29.4035 0.620472C34.0633 1.69792 38.0707 3.96347 41.3599 7.43448C45.4495 11.7502 47.676 16.8923 47.9679 22.8412C48.253 28.6498 46.6395 33.9064 43.117 38.5184C39.3277 43.4796 34.3143 46.5212 28.1535 47.6427C26.768 47.8952 25.3728 47.9996 23.961 48Z" fill="#BAD333"/>
<path fill-rule="evenodd" clip-rule="evenodd" d="M24.0598 5.3693C30.9127 5.60093 36.2369 8.54531 39.9603 14.3437C40.167 14.6655 40.1313 14.8218 39.7983 15.0044C39.3268 15.263 38.8652 15.5499 38.437 15.8741C38.0504 16.1666 37.8479 16.1452 37.5815 15.7017C36.2713 13.5214 34.5062 11.7819 32.3487 10.434C26.4223 6.73193 18.4825 7.45857 13.3306 12.2047C9.64608 15.5989 7.90113 19.823 8.09809 24.823C8.39352 32.3304 14.2869 38.8374 21.7527 39.7485C28.5411 40.577 33.8244 38.0016 37.5885 32.3067C37.7667 32.0369 37.8789 31.9678 38.1618 32.171C38.672 32.5379 39.2017 32.8811 39.7441 33.1986C40.0668 33.3875 40.0385 33.5564 39.8599 33.8326C36.8855 38.4338 32.7394 41.3527 27.3385 42.3291C18.9811 43.84 10.9286 39.6952 7.17886 32.0554C2.85406 23.2441 6.48272 12.1624 15.1874 7.58368C17.9615 6.12455 20.9031 5.35656 24.0598 5.3693Z" fill="#74BC46"/>
<path fill-rule="evenodd" clip-rule="evenodd" d="M30.1666 19.6085C30.8541 21.1937 31.4803 22.6391 32.108 24.0841C32.702 25.4511 33.2962 26.8182 33.8932 28.184C34.2642 29.0327 34.1113 29.5463 33.3183 30.0487C32.4909 30.5732 31.5588 30.7638 30.6041 30.8508C29.099 30.9879 27.6166 30.898 26.2273 30.2312C25.1066 29.6935 24.9098 29.1202 25.4038 27.9856C26.6082 25.2195 27.8046 22.45 29.0245 19.6908C29.2005 19.2928 29.1712 19.116 28.7363 18.949C25.5644 17.731 22.3965 17.6565 19.2098 18.8873C18.8523 19.0253 18.7459 19.1382 18.92 19.5323C20.1905 22.407 21.4323 25.2945 22.6879 28.1759C23.0615 29.0334 22.9166 29.5457 22.1272 30.0438C21.761 30.275 21.3681 30.4553 20.9491 30.5652C19.1513 31.0365 17.3588 31.051 15.5824 30.4632C15.2949 30.3681 15.0139 30.2353 14.754 30.0797C13.884 29.5589 13.7345 29.0614 14.1348 28.1416C15.3031 25.457 16.4695 22.7715 17.636 20.086C17.698 19.9433 17.7541 19.7979 17.859 19.5409C17.5966 19.6858 17.4281 19.7674 17.2715 19.8675C16.9889 20.0486 16.7185 20.2494 16.457 19.8348C16.1996 19.4269 16.5281 19.2873 16.7805 19.1323C18.5058 18.0732 20.3702 17.4135 22.3878 17.1948C25.584 16.8485 28.5156 17.6523 31.2763 19.2178C31.5518 19.374 31.7767 19.5181 31.5518 19.8804C31.34 20.2214 31.0915 20.1461 30.818 19.9794C30.6497 19.8769 30.4757 19.7839 30.1666 19.6085ZM18.4455 20.4241C18.3729 20.4931 18.3361 20.5126 18.323 20.5426C17.2837 22.9258 16.25 25.3115 15.2045 27.692C15.0477 28.049 15.2404 28.0322 15.4878 28.0316C17.2475 28.0274 19.0074 28.0291 20.7672 28.0289C21.0674 28.0289 21.3676 28.0289 21.7483 28.0289C20.6286 25.4511 19.5416 22.9481 18.4455 20.4241ZM29.6476 20.4335C29.5747 20.5008 29.5205 20.5282 29.5018 20.571C28.4729 22.939 27.45 25.3096 26.4167 27.6757C26.2754 27.9995 26.4079 28.0337 26.6869 28.0328C28.6264 28.026 30.566 28.0214 32.5053 28.0354C32.926 28.0384 32.8898 27.8885 32.7557 27.5918C32.4016 26.8075 32.073 26.0116 31.7305 25.2223C31.0412 23.6335 30.349 22.0459 29.6476 20.4335Z" fill="#F3FAF6"/>
<path fill-rule="evenodd" clip-rule="evenodd" d="M18.4452 20.4219C19.5414 22.9458 20.6284 25.4487 21.748 28.0266C21.3673 28.0266 21.0671 28.0266 20.7669 28.0266C19.0072 28.0269 17.2473 28.0251 15.4875 28.0293C15.2401 28.03 15.0473 28.0466 15.2041 27.6898C16.2497 25.3092 17.2834 22.9236 18.3227 20.5404C18.3357 20.5105 18.3726 20.4908 18.4452 20.4219Z" fill="#04A650"/>
<path fill-rule="evenodd" clip-rule="evenodd" d="M29.6474 20.4316C30.3488 22.044 31.0408 23.6316 31.7303 25.2204C32.0728 26.0097 32.4014 26.8057 32.7554 27.5899C32.8894 27.8866 32.9256 28.0366 32.505 28.0335C30.5657 28.0194 28.6262 28.0241 26.6867 28.0309C26.4077 28.0319 26.2752 27.9977 26.4165 27.6738C27.4498 25.3077 28.4727 22.9371 29.5016 20.5692C29.5203 20.5263 29.5745 20.4989 29.6474 20.4316Z" fill="#04A650"/>
</svg>
