<svg width="360" height="180" viewBox="0 0 360 180" fill="none" xmlns="http://www.w3.org/2000/svg">
<path d="M25.4841 177.26C36.9668 179.635 290.912 182.004 331.327 177.26C343.292 175.856 352.869 162.742 354.266 160.467C363.003 146.237 359.727 58.4774 357.542 28.8285C356.367 12.8719 340.066 5.70261 332.419 3.3309C317.796 -1.2049 58.4779 -1.38694 24.391 4.51726C9.14035 7.15795 3.61193 19.6148 2.51437 26.5386C-0.0462374 42.6783 -1.55977 141.948 2.5451 155.32C5.82242 165.994 14.0146 174.888 25.4841 177.26Z" fill="#E6F6ED"/>
<mask id="mask0" style="mask-type:alpha" maskUnits="userSpaceOnUse" x="0" y="0" width="360" height="180">
<path fill-rule="evenodd" clip-rule="evenodd" d="M25.4841 177.26C36.9668 179.635 290.912 182.004 331.327 177.26C343.292 175.856 352.869 162.742 354.266 160.467C363.003 146.237 359.727 58.4774 357.542 28.8285C356.367 12.8719 340.066 5.70261 332.419 3.3309C317.796 -1.2049 58.4779 -1.38694 24.391 4.51726C9.14035 7.15795 3.61193 19.6148 2.51437 26.5386C-0.0462374 42.6783 -1.55977 141.948 2.5451 155.32C5.82242 165.994 14.0146 174.888 25.4841 177.26Z" fill="white"/>
</mask>
<g mask="url(#mask0)">
<rect x="1.09766" y="142.683" width="387.439" height="71.3414" fill="#EBFFE0"/>
<path d="M353.535 156.559H282.174C279.006 156.559 276.414 154.002 276.414 150.875V91.7509C276.414 88.6242 279.006 86.0664 282.174 86.0664H353.535C356.704 86.0664 359.295 88.6242 359.295 91.7509V150.875C359.295 154.002 356.704 156.559 353.535 156.559Z" fill="#C6EED5"/>
<path d="M348.043 119.683H287.232C285.578 119.683 284.225 118.347 284.225 116.715V98.8139C284.225 97.1814 285.578 95.8452 287.232 95.8452H348.043C349.697 95.8452 351.05 97.1814 351.05 98.8139V116.715C351.05 118.347 349.697 119.683 348.043 119.683Z" fill="#EAFFF2"/>
<path d="M348.043 146.984H287.232C285.578 146.984 284.225 145.648 284.225 144.016V126.115C284.225 124.482 285.578 123.147 287.232 123.147H348.043C349.697 123.147 351.05 124.482 351.05 126.115V144.016C351.05 145.648 349.697 146.984 348.043 146.984Z" fill="#EAFFF2"/>
<path d="M335.101 72.0957C335.101 72.0957 332.075 64.2196 340.607 56.4851C340.607 56.4851 345.477 64.4172 335.101 72.0957Z" fill="#C6EED5"/>
<path d="M335.559 74.1877C335.559 74.1877 327.356 71.8618 326.189 60.4875C326.189 60.4875 335.543 61.3891 335.559 74.1877Z" fill="#C6EED5"/>
<path d="M340.949 71.7295H326.768V77.9665C326.768 80.8173 329.109 83.1281 331.997 83.1281H335.718C338.607 83.1281 340.949 80.8173 340.949 77.9665V71.7295Z" fill="#DAF6E5"/>
<path d="M320.864 108.976C320.864 110.735 319.419 112.16 317.638 112.16C315.856 112.16 314.412 110.735 314.412 108.976C314.412 107.218 315.856 105.793 317.638 105.793C319.419 105.793 320.864 107.218 320.864 108.976Z" fill="#DAF6E5"/>
<path d="M321.081 134.934C321.081 136.692 319.636 138.117 317.855 138.117C316.073 138.117 314.629 136.692 314.629 134.934C314.629 133.176 316.073 131.75 317.855 131.75C319.636 131.75 321.081 133.176 321.081 134.934Z" fill="#DAF6E5"/>
<path d="M342.918 86.692H325.547C322.806 86.692 320.584 84.499 320.584 81.7944H347.881C347.881 84.499 345.658 86.692 342.918 86.692Z" fill="#DAF6E5"/>
<path d="M5.08984 110.691H74.2487V24.0962H5.08984V110.691Z" fill="#BBF0D3"/>
<mask id="mask1" style="mask-type:alpha" maskUnits="userSpaceOnUse" x="51" y="30" width="19" height="9">
<path fill-rule="evenodd" clip-rule="evenodd" d="M57.6323 34.9351C57.143 34.7797 56.6228 34.698 56.0795 34.698C53.7114 34.698 51.7207 36.2798 51.0957 38.4405V38.4425H57.6705H61.0574H69.5472C69.7178 37.8695 69.8146 37.2604 69.8146 36.6295C69.8146 33.2038 67.0369 30.4268 63.6046 30.4268C60.7676 30.4268 58.3752 32.3352 57.6323 34.9351Z" fill="white"/>
</mask>
<g mask="url(#mask1)">
<path d="M47.3809 42.156H73.5281V26.7126H47.3809V42.156Z" fill="#EDFFF5"/>
</g>
<path d="M3.97461 115.072H75.3639V109.215H3.97461V115.072Z" fill="white"/>
<path d="M3.97461 67.8816H75.3639V66.9063H3.97461V67.8816Z" fill="#EDFFF5"/>
<path d="M33.771 78.0397C32.9294 75.9318 30.8682 74.4468 28.4593 74.4468C26.0075 74.4468 23.92 75.9838 23.0994 78.1438C22.4877 77.8106 21.7857 77.6249 21.0389 77.6249C18.6444 77.6249 16.707 79.5616 16.707 81.9495C16.707 82.147 16.7235 82.3453 16.7492 82.5369H23.2456H25.322H29.5755H33.6663H37.3278C37.3587 82.3453 37.3745 82.147 37.3745 81.9495C37.3745 79.8935 35.7908 78.2011 33.771 78.0397Z" fill="white"/>
<path d="M3.55664 26.9509H82.8714V23.5713H3.55664V26.9509Z" fill="#84D7CC"/>
<path d="M84.2664 28.8002H83.5401C82.7018 28.8002 82.0215 28.12 82.0215 27.2803V23.0321C82.0215 22.1925 82.7018 21.5122 83.5401 21.5122H84.2664C85.1061 21.5122 85.7857 22.1925 85.7857 23.0321V27.2803C85.7857 28.12 85.1061 28.8002 84.2664 28.8002Z" fill="#84D7CC"/>
<path d="M79.907 49.2898C79.907 50.2716 79.1115 51.0685 78.1296 51.0685C77.1477 51.0685 76.3516 50.2716 76.3516 49.2898C76.3516 48.3085 77.1477 47.5117 78.1296 47.5117C79.1115 47.5117 79.907 48.3085 79.907 49.2898Z" fill="#84D7CC"/>
<path d="M77.9781 25.2078L78.2093 47.8832" stroke="#84D7CC" stroke-width="0.6768"/>
<path d="M51.439 98.4697C51.439 98.4697 48.4697 90.6371 56.8423 82.946C56.8423 82.946 61.6213 90.8333 51.439 98.4697Z" fill="#84D7CC"/>
<path d="M51.8878 100.55C51.8878 100.55 43.8372 98.2371 42.6934 86.926C42.6934 86.926 51.872 87.8223 51.8878 100.55Z" fill="#84D7CC"/>
<path d="M57.1766 98.1055H43.2598V104.308C43.2598 107.143 45.5574 109.44 48.3917 109.44H52.044C54.879 109.44 57.1766 107.143 57.1766 104.308V98.1055Z" fill="#DAF6E5"/>
<path d="M47.8593 98.1054L46.7754 97.1367L51.6887 97.5002L51.7789 98.1054H47.8593Z" fill="#EDFFF5"/>
<mask id="mask2" style="mask-type:alpha" maskUnits="userSpaceOnUse" x="46" y="97" width="6" height="2">
<path fill-rule="evenodd" clip-rule="evenodd" d="M47.86 98.1052H51.7796L51.6887 97.5L46.7754 97.1364L47.86 98.1052Z" fill="white"/>
</mask>
<g mask="url(#mask2)">
<path d="M42.4355 109.676H58.4874V82.9226H42.4355V109.676Z" fill="#EDFFF5"/>
</g>
<mask id="mask3" style="mask-type:alpha" maskUnits="userSpaceOnUse" x="46" y="97" width="6" height="2">
<path fill-rule="evenodd" clip-rule="evenodd" d="M47.86 98.1052H51.7796L51.6887 97.5L46.7754 97.1364L47.86 98.1052Z" fill="white"/>
</mask>
<g mask="url(#mask3)">
<path d="M42.9531 101.927H55.6003V93.3149H42.9531V101.927Z" fill="#EDFFF5"/>
</g>
<path d="M2.90625 110.691H74.2477V24.0962H2.90625V110.691Z" fill="#BBF0D3"/>
<mask id="mask4" style="mask-type:alpha" maskUnits="userSpaceOnUse" x="51" y="30" width="19" height="9">
<path fill-rule="evenodd" clip-rule="evenodd" d="M57.6323 34.9351C57.143 34.7797 56.6228 34.698 56.0795 34.698C53.7114 34.698 51.7207 36.2798 51.0957 38.4405V38.4425H57.6705H61.0574H69.5472C69.7178 37.8695 69.8146 37.2604 69.8146 36.6295C69.8146 33.2038 67.0369 30.4268 63.6046 30.4268C60.7676 30.4268 58.3752 32.3352 57.6323 34.9351Z" fill="white"/>
</mask>
<g mask="url(#mask4)">
<path d="M47.3809 42.156H73.5281V26.7126H47.3809V42.156Z" fill="#EDFFF5"/>
</g>
<path d="M-0.367188 114.703H75.3645V109.215H-0.367188V114.703Z" fill="white"/>
<path d="M0.730469 69.1016H75.3646V66.9065H0.730469V69.1016Z" fill="#EDFFF5"/>
<path d="M33.771 78.0397C32.9294 75.9318 30.8682 74.4468 28.4593 74.4468C26.0075 74.4468 23.92 75.9838 23.0994 78.1438C22.4877 77.8106 21.7857 77.6249 21.0389 77.6249C18.6444 77.6249 16.707 79.5616 16.707 81.9495C16.707 82.147 16.7235 82.3453 16.7492 82.5369H23.2456H25.322H29.5755H33.6663H37.3278C37.3587 82.3453 37.3745 82.147 37.3745 81.9495C37.3745 79.8935 35.7908 78.2011 33.771 78.0397Z" fill="white"/>
<path d="M-0.542969 26.864H82.8717V23.5713H-0.542969V26.864Z" fill="#84D7CC"/>
<path d="M84.2664 28.8002H83.5401C82.7018 28.8002 82.0215 28.12 82.0215 27.2803V23.0321C82.0215 22.1925 82.7018 21.5122 83.5401 21.5122H84.2664C85.1061 21.5122 85.7857 22.1925 85.7857 23.0321V27.2803C85.7857 28.12 85.1061 28.8002 84.2664 28.8002Z" fill="#84D7CC"/>
<path d="M79.907 49.2898C79.907 50.2716 79.1115 51.0685 78.1296 51.0685C77.1477 51.0685 76.3516 50.2716 76.3516 49.2898C76.3516 48.3085 77.1477 47.5117 78.1296 47.5117C79.1115 47.5117 79.907 48.3085 79.907 49.2898Z" fill="#84D7CC"/>
<path d="M77.9781 25.2078L78.2093 47.8832" stroke="#84D7CC" stroke-width="0.6768"/>
<path d="M51.439 98.4697C51.439 98.4697 48.4697 90.6371 56.8423 82.946C56.8423 82.946 61.6213 90.8333 51.439 98.4697Z" fill="#84D7CC"/>
<path d="M51.8878 100.55C51.8878 100.55 43.8372 98.2371 42.6934 86.926C42.6934 86.926 51.872 87.8223 51.8878 100.55Z" fill="#84D7CC"/>
<path d="M57.1786 98.1055H43.2617V104.308C43.2617 107.143 45.5594 109.44 48.3937 109.44H52.0459C54.8809 109.44 57.1786 107.143 57.1786 104.308V98.1055Z" fill="#DAF6E5"/>
<path d="M47.8593 98.1054L46.7754 97.1367L51.6887 97.5002L51.7789 98.1054H47.8593Z" fill="#EDFFF5"/>
<mask id="mask5" style="mask-type:alpha" maskUnits="userSpaceOnUse" x="46" y="97" width="6" height="2">
<path fill-rule="evenodd" clip-rule="evenodd" d="M47.86 98.1052H51.7796L51.6887 97.5L46.7754 97.1364L47.86 98.1052Z" fill="white"/>
</mask>
<g mask="url(#mask5)">
<path d="M42.4355 109.676H58.4874V82.9226H42.4355V109.676Z" fill="#EDFFF5"/>
</g>
<mask id="mask6" style="mask-type:alpha" maskUnits="userSpaceOnUse" x="46" y="97" width="6" height="2">
<path fill-rule="evenodd" clip-rule="evenodd" d="M47.86 98.1052H51.7796L51.6887 97.5L46.7754 97.1364L47.86 98.1052Z" fill="white"/>
</mask>
<g mask="url(#mask6)">
<path d="M42.9531 101.927H55.6003V93.3149H42.9531V101.927Z" fill="#EDFFF5"/>
</g>
<path d="M93.7622 131.314C93.7622 148.112 80.1485 161.73 63.3557 161.73C46.563 161.73 32.9492 148.112 32.9492 131.314C32.9492 114.516 46.563 100.898 63.3557 100.898C79.4068 100.898 92.5519 113.339 93.6835 129.106C93.736 129.835 93.7622 130.571 93.7622 131.314Z" fill="#84D7CC"/>
<path d="M93.7622 127.39C93.7622 144.187 80.1485 157.805 63.3557 157.805C46.563 157.805 32.9492 144.187 32.9492 127.39C32.9492 110.592 46.563 96.9739 63.3557 96.9739C79.4068 96.9739 92.5519 109.415 93.6835 125.182C93.736 125.911 93.7622 126.647 93.7622 127.39Z" fill="white"/>
<path d="M126.412 40.5327C126.412 55.3376 114.414 67.3398 99.6134 67.3398C84.813 67.3398 72.8145 55.3376 72.8145 40.5327C72.8145 25.7278 84.813 13.7256 99.6134 13.7256C113.76 13.7256 125.346 24.6902 126.343 38.5868C126.389 39.2291 126.412 39.8777 126.412 40.5327Z" fill="#84D7CC"/>
<path d="M126.412 37.0737C126.412 51.8786 114.414 63.8808 99.6134 63.8808C84.813 63.8808 72.8145 51.8786 72.8145 37.0737C72.8145 22.2688 84.813 10.2666 99.6134 10.2666C113.76 10.2666 125.346 21.2312 126.343 35.1278C126.389 35.7701 126.412 36.4188 126.412 37.0737Z" fill="white"/>
<rect x="94.584" y="24.7178" width="20.122" height="29.2683" rx="2.5" fill="#CC9D3F"/>
<mask id="mask7" style="mask-type:alpha" maskUnits="userSpaceOnUse" x="94" y="24" width="21" height="30">
<rect x="94.584" y="24.7178" width="20.122" height="29.2683" rx="2.5" fill="white"/>
</mask>
<g mask="url(#mask7)">
<rect x="91.8398" y="24.7178" width="20.122" height="29.2683" rx="2.5" fill="#FFC54F"/>
<path fill-rule="evenodd" clip-rule="evenodd" d="M102.646 29.5018L99.5957 31.8014C99.2224 32.0825 99.0656 32.5827 99.2085 33.0386L100.373 36.7591C100.516 37.2151 100.925 37.5227 101.387 37.5227H105.157C105.619 37.5227 106.028 37.2151 106.171 36.7591L107.336 33.0386C107.479 32.5827 107.322 32.0825 106.949 31.8014L103.899 29.5018C103.525 29.2207 103.019 29.2207 102.646 29.5018Z" fill="#CC9D3F"/>
<rect x="98.6992" y="46.6689" width="9.14634" height="1.82927" rx="0.914637" fill="#CC9D3F"/>
<rect x="98.6992" y="42.0957" width="9.14634" height="1.82927" rx="0.914635" fill="#CC9D3F"/>
</g>
<path opacity="0.5" fill-rule="evenodd" clip-rule="evenodd" d="M102.815 24.7219L106.474 24.7178V49.6568C106.474 51.0375 105.354 52.1568 103.974 52.1568H95.498V49.1085L102.815 24.7219Z" fill="#CC9D3F"/>
<rect x="84.5215" y="21.9739" width="20.122" height="29.2683" rx="2.5" fill="#CC9D3F"/>
<mask id="mask8" style="mask-type:alpha" maskUnits="userSpaceOnUse" x="84" y="21" width="21" height="31">
<rect x="84.5215" y="21.9739" width="20.122" height="29.2683" rx="2.5" fill="white"/>
</mask>
<g mask="url(#mask8)">
<rect x="81.7773" y="21.9739" width="20.122" height="29.2683" rx="2.5" fill="#FFC54F"/>
<path fill-rule="evenodd" clip-rule="evenodd" d="M92.5831 26.7579L89.5332 29.0575C89.1599 29.3386 89.0031 29.8388 89.146 30.2947L90.3106 34.0152C90.4535 34.4712 90.863 34.7788 91.3247 34.7788H95.0945C95.5562 34.7788 95.9657 34.4712 96.1086 34.0152L97.2732 30.2947C97.4161 29.8388 97.2593 29.3386 96.8861 29.0575L93.8361 26.7579C93.4629 26.4768 92.9563 26.4768 92.5831 26.7579Z" fill="#CC9D3F"/>
<rect x="88.6367" y="43.925" width="9.14635" height="1.82927" rx="0.914635" fill="#CC9D3F"/>
<rect x="88.6367" y="39.3518" width="9.14635" height="1.82927" rx="0.914635" fill="#CC9D3F"/>
</g>
<path d="M315.659 62.8166C315.659 80.4685 301.316 94.7789 283.623 94.7789C265.931 94.7789 251.588 80.4685 251.588 62.8166C251.588 45.1646 265.931 30.8542 283.623 30.8542C300.534 30.8542 314.384 43.9275 315.576 60.4965C315.631 61.2623 315.659 62.0357 315.659 62.8166Z" fill="#84D7CC"/>
<path d="M315.659 58.6923C315.659 76.3443 301.316 90.6546 283.623 90.6546C265.931 90.6546 251.588 76.3443 251.588 58.6923C251.588 41.0403 265.931 26.73 283.623 26.73C300.534 26.73 314.384 39.8032 315.576 56.3722C315.631 57.138 315.659 57.9114 315.659 58.6923Z" fill="white"/>
<path d="M301.616 44.232L300.272 42.0085L287.273 39.1812L286.006 41.9443C282.192 50.2563 279.293 58.9579 277.359 67.8972L276.799 70.4859L290.909 73.5546C290.909 73.5546 293.315 64.0431 295.653 57.1899C297.99 50.3368 301.616 44.232 301.616 44.232Z" fill="#00883E"/>
<path d="M300.275 42.012L299.009 44.7688C295.185 53.0844 292.293 61.7797 290.358 70.719L289.799 73.3131L273.293 69.7247L273.854 67.1306C275.453 59.755 277.713 52.5331 280.596 45.5642C280.633 45.4738 280.669 45.3825 280.706 45.293C281.274 43.9101 281.88 42.5453 282.504 41.1804L283.77 38.4146L287.122 39.1467L287.791 39.2913L300.275 42.012Z" fill="#00AB4E"/>
<path d="M290.79 55.609C290.081 58.8747 287.291 61.0413 284.559 60.4474C281.828 59.8527 280.19 56.7235 280.9 53.4578C281.611 50.1921 284.401 48.0255 287.131 48.6202C289.863 49.2141 291.501 52.3433 290.79 55.609Z" fill="#40C07A"/>
<path d="M294.694 47.6381C294.182 47.4275 293.937 46.8409 294.148 46.3284L295.302 43.5219C295.512 43.0094 296.099 42.7644 296.611 42.9759C297.124 43.1865 297.369 43.7732 297.158 44.2848L296.003 47.0922C295.792 47.6047 295.206 47.8487 294.694 47.6381Z" fill="#40C07A"/>
<path d="M279.898 68.4564C279.356 68.338 279.013 67.8038 279.131 67.2624L279.775 64.2968C279.893 63.7554 280.428 63.4119 280.97 63.5294C281.51 63.6478 281.854 64.182 281.736 64.7234L281.091 67.6881C280.973 68.2304 280.439 68.5739 279.898 68.4564Z" fill="#28D677"/>
<path d="M268.401 75.2342C268.585 76.4143 269.579 77.3266 270.846 77.4853C272.694 77.7192 276.072 77.9658 282.093 77.9658C288.164 77.9658 291.547 77.715 293.386 77.48C294.64 77.3202 295.638 76.4217 295.827 75.2554C296.088 73.6435 296.381 70.8462 296.381 66.4085C296.381 62.3783 296.138 59.926 295.899 58.4856C295.707 57.3299 294.715 56.4408 293.474 56.2789C291.573 56.0291 288.075 55.7402 282.093 55.7402C276.167 55.7402 272.679 56.0249 270.766 56.2715C269.512 56.4334 268.531 57.3383 268.336 58.5068C268.081 60.0361 267.805 62.5772 267.805 66.4085C267.805 70.5657 268.131 73.5069 268.401 75.2342Z" fill="#3393E3"/>
<path d="M268.701 62.7416H275.539C277.697 62.7416 279.447 64.4911 279.447 66.6491C279.447 68.8071 277.697 70.5576 275.539 70.5576H268.701C267.621 70.5576 266.747 69.6834 266.747 68.6039V64.6964C266.747 63.6169 267.621 62.7416 268.701 62.7416Z" fill="#FFC54F"/>
<path d="M273.096 66.3241C273.096 65.4478 273.807 64.7365 274.684 64.7365C275.561 64.7365 276.271 65.4478 276.271 66.3241C276.271 67.2004 275.561 67.9116 274.684 67.9116C273.807 67.9116 273.096 67.2004 273.096 66.3241Z" fill="white"/>
<path d="M290.854 80.5554C290.854 86.8563 295.962 91.9645 302.263 91.9645C308.564 91.9645 313.672 86.8563 313.672 80.5554C313.672 74.2551 308.564 69.1462 302.263 69.1462C295.962 69.1462 290.854 74.2551 290.854 80.5554Z" fill="#00AB4E"/>
<path d="M305.606 77.8692L300.912 82.401L298.886 80.7745C298.256 80.2695 297.312 80.3392 296.776 80.9342C296.239 81.526 296.314 82.417 296.945 82.9214L300.034 85.4037C300.316 85.6292 300.661 85.7414 301.005 85.7414C301.396 85.7414 301.785 85.598 302.077 85.3146L307.747 79.8393C308.324 79.2823 308.313 78.3877 307.722 77.8442C307.431 77.5768 307.053 77.4438 306.676 77.4438C306.287 77.4438 305.898 77.5858 305.606 77.8692Z" fill="white"/>
<path d="M111.951 24.5798C111.951 30.8807 117.059 35.9889 123.36 35.9889C129.661 35.9889 134.769 30.8807 134.769 24.5798C134.769 18.2795 129.661 13.1707 123.36 13.1707C117.059 13.1707 111.951 18.2795 111.951 24.5798Z" fill="#00AB4E"/>
<path d="M126.703 21.8937L122.01 26.4254L119.983 24.7989C119.354 24.2939 118.41 24.3636 117.874 24.9586C117.337 25.5504 117.412 26.4414 118.043 26.9458L121.132 29.4282C121.413 29.6536 121.759 29.7658 122.103 29.7658C122.493 29.7658 122.883 29.6224 123.175 29.339L128.845 23.8637C129.422 23.3068 129.411 22.4121 128.82 21.8686C128.528 21.6012 128.151 21.4683 127.774 21.4683C127.384 21.4683 126.996 21.6102 126.703 21.8937Z" fill="white"/>
<path d="M78.478 110.854L75.1671 114.721L73.5763 126.662L71.6375 141.198C71.5381 142.908 70.0765 144.3 68.3664 144.3H48.2227L50.4796 126.076L51.6628 116.58L51.9511 114.234C52.0605 112.365 53.6513 110.854 55.5106 110.854H78.478Z" fill="#3393E3"/>
<path d="M68.1696 144.294H48.2217C46.961 144.294 45.8474 143.785 45.0689 142.955C44.2884 142.13 43.839 140.988 43.9096 139.728H65.1261L65.0545 141C64.9541 142.821 66.3501 144.294 68.1696 144.294Z" fill="#1868AB"/>
<mask id="mask9" style="mask-type:alpha" maskUnits="userSpaceOnUse" x="75" y="110" width="7" height="5">
<path fill-rule="evenodd" clip-rule="evenodd" d="M75.168 110.856H81.3977V114.719H75.168V110.856Z" fill="white"/>
</mask>
<g mask="url(#mask9)">
<path d="M81.3503 114.719H75.168L75.2107 113.947C75.3062 112.24 76.7677 110.856 78.4739 110.856C80.181 110.856 81.4885 112.24 81.393 113.947L81.3503 114.719Z" fill="#1868AB"/>
</g>
<path fill-rule="evenodd" clip-rule="evenodd" d="M61.7828 124.901C61.7987 124.777 61.7659 124.574 61.6834 124.293C61.4249 123.484 61.235 122.873 61.1156 122.46C61.7709 121.891 62.1517 121.168 62.261 120.287C62.3227 119.781 62.2789 119.322 62.1278 118.909C61.9767 118.497 61.7599 118.17 61.4786 117.928C60.8939 117.43 60.2586 117.18 59.5735 117.18H57.0501C56.552 117.18 56.2358 117.285 56.1006 117.496C56.023 117.612 55.9733 117.716 55.9515 117.806C55.9286 117.895 55.9057 118.03 55.8838 118.208L55.0815 124.691C55.0477 124.963 55.0457 125.165 55.0765 125.299C55.1342 125.587 55.4344 125.73 55.9803 125.73C56.4784 125.73 56.7956 125.626 56.9298 125.415C57.0074 125.299 57.0571 125.195 57.0799 125.106C57.1028 125.016 57.1257 124.882 57.1466 124.702L57.3106 123.383H58.7821L59.147 123.36C59.5209 124.62 59.7376 125.325 59.7963 125.474C59.8331 125.552 59.8967 125.628 59.9852 125.701C60.0727 125.775 60.193 125.812 60.3441 125.812C60.4962 125.812 60.703 125.758 60.9665 125.649C61.4746 125.446 61.746 125.197 61.7828 124.901ZM59.0615 121.316H57.5661L57.8227 119.247H59.2942C59.5348 119.247 59.7585 119.336 59.9623 119.511C60.1661 119.686 60.2467 119.944 60.2049 120.287C60.1622 120.631 60.018 120.887 59.7714 121.058C59.5238 121.229 59.2872 121.316 59.0615 121.316Z" fill="white"/>
<path fill-rule="evenodd" clip-rule="evenodd" d="M62.9582 120.591L62.1131 127.412C62.0912 127.591 62.0803 127.724 62.0823 127.81C62.0833 127.895 62.1051 127.992 62.1509 128.102C62.1956 128.21 62.2871 128.288 62.4263 128.336C62.5635 128.382 62.7544 128.405 62.995 128.405C63.2366 128.405 63.4305 128.382 63.5766 128.336C63.7218 128.288 63.8312 128.208 63.9037 128.096C63.9763 127.983 64.0231 127.883 64.0459 127.798C64.0678 127.712 64.0907 127.58 64.1125 127.4L64.4049 125.041C64.6485 125.4 65.0889 125.579 65.7282 125.579C66.3665 125.579 67.0049 125.279 67.6442 124.679C68.2825 124.08 68.6504 123.382 68.7498 122.589C68.8482 121.794 68.6504 121.097 68.1552 120.498C67.6611 119.898 67.0973 119.598 66.462 119.598C65.8286 119.598 65.3375 119.801 64.9915 120.206C64.9935 120.003 64.9288 119.85 64.7976 119.744C64.6663 119.639 64.3939 119.586 63.9823 119.586C63.5687 119.586 63.2953 119.693 63.16 119.901C63.0924 120.012 63.0477 120.109 63.0248 120.194C63.0029 120.279 62.9801 120.412 62.9582 120.591ZM64.7538 122.6C64.7847 122.35 64.902 122.122 65.1078 121.911C65.3126 121.701 65.5652 121.596 65.8654 121.596C66.1637 121.596 66.3954 121.699 66.5564 121.905C66.7175 122.112 66.7831 122.343 66.7503 122.6C66.7195 122.857 66.5912 123.087 66.3685 123.29C66.1438 123.492 65.8903 123.593 65.6059 123.593C65.3216 123.593 65.1008 123.49 64.9437 123.284C64.7857 123.077 64.722 122.849 64.7538 122.6Z" fill="white"/>
<path d="M68.1728 132.261H53.6586C53.2559 132.261 52.9696 131.934 53.0193 131.532C53.07 131.128 53.4369 130.801 53.8395 130.801H68.3538C68.7564 130.801 69.0428 131.128 68.9931 131.532C68.9424 131.934 68.5755 132.261 68.1728 132.261Z" fill="#1868AB"/>
<path d="M66.0503 136.022H54.85C54.4473 136.022 54.161 135.696 54.2107 135.293C54.2604 134.889 54.6283 134.562 55.031 134.562H66.2313C66.634 134.562 66.9203 134.889 66.8706 135.293C66.8199 135.696 66.453 136.022 66.0503 136.022Z" fill="#1868AB"/>
<path d="M72.4395 149.702C72.4395 156.003 77.5477 161.111 83.8486 161.111C90.1495 161.111 95.2574 156.003 95.2574 149.702C95.2574 143.401 90.1495 138.292 83.8486 138.292C77.5477 138.292 72.4395 143.401 72.4395 149.702Z" fill="#00AB4E"/>
<path d="M87.1915 147.015L82.4978 151.547L80.4718 149.921C79.8424 149.416 78.8983 149.485 78.3624 150.08C77.8253 150.672 77.8998 151.563 78.5314 152.068L81.6204 154.55C81.9016 154.775 82.2468 154.888 82.5914 154.888C82.9815 154.888 83.3713 154.744 83.6631 154.461L89.3334 148.986C89.9103 148.429 89.8992 147.534 89.3081 146.99C89.0166 146.723 88.6392 146.59 88.262 146.59C87.8728 146.59 87.4842 146.732 87.1915 147.015Z" fill="white"/>
<path d="M215.5 152.092L219.134 167.354L235.122 147.004L240.937 135.376L251.838 131.015L265.647 131.742L266.374 133.196C266.374 133.196 256.2 151.365 248.205 151.365L230.035 180.436L226.402 184.797L210.413 182.617L203.871 165.901L205.324 154.272L215.5 152.092Z" fill="#F3D8BC"/>
<path d="M185.043 44.8099C185.043 44.8099 162.939 38.2607 152.297 60.3634C152.297 60.3634 148.601 67.2956 149.539 78.7289C150.264 87.5467 149.199 96.4424 145.953 104.673C143.088 111.938 140.836 120.534 143.292 125.855H203.872C203.872 125.855 207.84 117.257 206.859 97.6805C206.638 93.2771 206.693 88.8682 206.907 84.4636C207.468 72.9755 206.019 49.1288 185.043 44.8099Z" fill="#6C4A07"/>
<mask id="mask10" style="mask-type:alpha" maskUnits="userSpaceOnUse" x="127" y="103" width="94" height="85">
<path fill-rule="evenodd" clip-rule="evenodd" d="M127.318 103.752H220.609V187.253H127.318V103.752Z" fill="white"/>
</mask>
<g mask="url(#mask10)">
<path d="M175.22 103.752C175.22 103.752 155.572 108.663 149.842 111.12C144.111 113.575 141.655 113.575 138.381 121.762C135.638 128.619 129.448 146.966 127.511 152.741C127.093 153.987 127.368 155.349 128.221 156.348C130.86 159.443 137.934 165.123 153.116 162.694L149.842 184.797L208.784 187.253C208.784 187.253 203.871 164.33 205.509 159.419C205.509 159.419 214.33 160.007 219.012 156.199C220.378 155.089 220.933 153.26 220.421 151.578L211.315 121.658C210.198 117.988 208.025 114.728 205.067 112.285L186.271 104.98L175.22 103.752Z" fill="#FFC54F"/>
</g>
<path d="M134.287 158.6L131.832 181.522L146.567 183.978L151.479 158.6H134.287Z" fill="#F3D8BC"/>
<path d="M192.249 94.8395C192.249 94.8395 188.992 101.353 189.736 108.937C189.867 110.262 189.328 111.574 188.322 112.447C185.444 114.942 178.945 118.461 169.754 111.028C168.696 110.172 168.578 108.572 169.241 107.383C170.826 104.538 173.24 98.5602 171.098 91.0627L192.249 94.8395Z" fill="#F4B696"/>
<path d="M215.5 176.439C215.299 176.439 215.137 176.277 215.137 176.076C215.137 171.635 218.703 167.304 218.854 167.122C218.984 166.967 219.213 166.947 219.366 167.075C219.52 167.203 219.541 167.432 219.413 167.587C219.378 167.629 215.863 171.901 215.863 176.076C215.863 176.277 215.701 176.439 215.5 176.439Z" fill="#F4B696"/>
<path d="M263.288 113.781L243.018 134.705C242.267 135.481 242.276 136.715 243.04 137.478L251.13 145.569C251.917 146.356 253.197 146.34 253.962 145.532L277.415 120.811C278.386 119.788 278.003 118.106 276.685 117.604L265.412 113.31C264.673 113.027 263.838 113.214 263.288 113.781Z" fill="#252528"/>
<path d="M262.561 112.328L242.291 133.252C241.541 134.027 241.549 135.262 242.313 136.025L250.405 144.115C251.19 144.902 252.471 144.886 253.236 144.079L276.689 119.359C277.659 118.335 277.276 116.653 275.958 116.15L264.685 111.856C263.946 111.575 263.111 111.76 262.561 112.328Z" fill="#58585B"/>
<path d="M262.982 113.691L245.743 131.486C245.104 132.146 245.113 133.196 245.763 133.845L252.643 140.725C253.312 141.395 254.4 141.381 255.051 140.695L274.997 119.671C275.823 118.8 275.497 117.369 274.375 116.942L264.789 113.29C264.16 113.051 263.45 113.208 262.982 113.691Z" fill="#F5FBFF"/>
<mask id="mask11" style="mask-type:alpha" maskUnits="userSpaceOnUse" x="255" y="118" width="13" height="12">
<path fill-rule="evenodd" clip-rule="evenodd" d="M255.732 118.537H267.815V129.432H255.732V118.537Z" fill="white"/>
</mask>
<g mask="url(#mask11)">
<path fill-rule="evenodd" clip-rule="evenodd" d="M260.883 118.658L267.274 122.618C267.952 123.039 268.004 123.918 267.372 124.562L263.067 128.949C262.482 129.545 261.567 129.592 261.033 129.077L255.961 124.181C255.606 123.839 255.673 123.173 256.104 122.684L259.255 119.112C259.714 118.591 260.438 118.384 260.883 118.658ZM259.47 122.335C258.599 123.299 258.503 124.604 259.283 125.299C260.108 126.034 261.606 125.825 262.598 124.776C263.606 123.71 263.621 122.28 262.67 121.635C261.773 121.025 260.355 121.358 259.47 122.335Z" fill="#00AB4E"/>
</g>
<path d="M249.659 138.646C249.659 139.65 248.846 140.463 247.843 140.463C246.839 140.463 246.025 139.65 246.025 138.646C246.025 137.642 246.839 136.829 247.843 136.829C248.846 136.829 249.659 137.642 249.659 138.646Z" fill="#252528"/>
<path d="M158.273 158.276L160.484 133.222C159.886 118.258 148.352 115.551 142.191 115.176C140.876 116.513 139.694 118.477 138.38 121.761C135.637 128.619 129.448 146.966 127.511 152.741C127.093 153.987 127.368 155.349 128.221 156.349C130.861 159.443 137.934 165.123 153.116 162.694C153.396 162.694 153.663 162.682 153.92 162.66C156.241 162.461 158.068 160.596 158.273 158.276Z" fill="#DF9F1C"/>
<path d="M219.013 156.199C220.379 155.089 220.934 153.261 220.421 151.578L211.315 121.659C210.199 117.988 208.025 114.729 205.069 112.286L203.051 111.514C205.082 117.663 208.784 129.86 208.784 134.86C208.784 140.147 206.45 154.203 205.552 159.421C206.18 159.458 214.509 159.862 219.013 156.199Z" fill="#DF9F1C"/>
<path d="M198.96 59.5449C198.96 59.5449 207.965 80.0111 198.96 93.9282C192.198 104.379 178.972 100.057 172.804 97.256C170.518 96.2177 168.677 94.4046 167.584 92.1447C164.702 86.1816 160.467 73.428 169.489 62.0013C181.769 46.4466 191.592 51.3593 191.592 51.3593L198.96 59.5449Z" fill="#F3D8BC"/>
<path d="M165.489 76.6477C165.489 76.6477 159.969 74.7259 159.256 80.4211C158.544 86.1153 166.109 86.7749 166.109 86.7749L165.489 76.6477Z" fill="#F3D8BC"/>
<path d="M194.048 84.5135C193.944 84.5135 193.839 84.4739 193.759 84.3938C193.599 84.2336 193.599 83.9746 193.759 83.8154C193.909 83.665 194.366 83.0746 195.361 80.8377C195.751 79.9641 195.661 78.9411 195.121 78.1026C193.44 75.4937 192.851 72.0375 192.826 71.8915C192.789 71.6687 192.94 71.458 193.162 71.4207C193.384 71.3844 193.596 71.5348 193.633 71.7565C193.639 71.7916 194.222 75.1952 195.809 77.6592C196.498 78.7304 196.611 80.0442 196.108 81.1714C195.336 82.9077 194.74 83.991 194.338 84.3938C194.258 84.4739 194.153 84.5135 194.048 84.5135Z" fill="#F4B696"/>
<path d="M184.761 89.0574L194.112 89.7763C194.402 89.7993 194.522 90.1582 194.3 90.347C192.559 91.8265 187.231 95.6318 184.437 89.514C184.335 89.2912 184.516 89.0387 184.761 89.0574Z" fill="white"/>
<path d="M187.498 50.5398C187.498 50.5398 184.632 65.685 159.664 75.0988C156.601 76.2545 156.39 58.7265 167.032 52.9961C177.674 47.2658 187.498 50.5398 187.498 50.5398Z" fill="#6C4A07"/>
<path d="M203.872 66.0943C203.872 66.0943 192.002 58.317 187.5 49.722L190.774 47.2656C190.774 47.2656 205.51 56.27 203.872 66.0943Z" fill="#6C4A07"/>
<path d="M235.85 148.458C235.85 148.458 234.397 141.917 235.123 139.01C235.656 136.882 237.744 132.419 238.827 130.178C239.241 129.319 239.984 128.668 240.89 128.366L246.441 126.516C247.662 126.108 248.913 127.127 248.714 128.399C248.563 129.366 247.897 130.392 246.025 131.014L241.665 132.469C241.665 132.469 243.118 134.648 241.665 139.01" fill="#F3D8BC"/>
<path d="M235.85 148.458C235.85 148.458 234.397 141.917 235.123 139.01C235.656 136.882 237.744 132.419 238.827 130.178C239.241 129.319 239.984 128.668 240.89 128.366L246.441 126.516C247.662 126.108 248.913 127.127 248.714 128.399C248.563 129.366 247.897 130.392 246.025 131.014L241.665 132.469C241.665 132.469 243.118 134.648 241.665 139.01" stroke="#F4B696"/>
</g>
<path d="M117.133 90.5063L114.897 94.5941L110.811 96.8288C110.136 97.1986 110.136 98.1672 110.811 98.5371L114.897 100.772L117.133 104.86C117.501 105.535 118.472 105.535 118.84 104.86L121.076 100.772L125.164 98.5371C125.839 98.1672 125.839 97.1986 125.164 96.8288L121.076 94.5941L118.84 90.5063C118.472 89.8312 117.501 89.8312 117.133 90.5063Z" fill="#FFD37B"/>
<path d="M227.072 24.5441L225.315 27.7559L222.105 29.5117C221.574 29.8023 221.574 30.5634 222.105 30.8539L225.315 32.6098L227.072 35.8216C227.362 36.352 228.124 36.352 228.413 35.8216L230.171 32.6098L233.382 30.8539C233.913 30.5634 233.913 29.8023 233.382 29.5117L230.171 27.7559L228.413 24.5441C228.124 24.0136 227.362 24.0136 227.072 24.5441Z" fill="#FFC54F"/>
<path d="M298.414 143.081L296.657 146.293L293.447 148.048C292.916 148.339 292.916 149.1 293.447 149.391L296.657 151.146L298.414 154.358C298.703 154.889 299.466 154.889 299.755 154.358L301.512 151.146L304.724 149.391C305.255 149.1 305.255 148.339 304.724 148.048L301.512 146.293L299.755 143.081C299.466 142.55 298.703 142.55 298.414 143.081Z" fill="#FFC54F"/>
</svg>
