<svg width="18" height="18" viewBox="0 0 18 18" fill="none" xmlns="http://www.w3.org/2000/svg">
<path fill-rule="evenodd" clip-rule="evenodd" d="M8.04709 5.94829C8.47885 5.36645 8.63367 4.75324 8.14537 4.21196C7.04957 2.67865 6.31262 1.73045 5.85037 1.27382C4.97157 0.405711 3.52593 0.523136 2.76483 1.27308C2.35603 1.67588 2.21763 1.81421 1.79789 2.24055C-0.540153 4.57985 0.885705 9.52504 4.67616 13.3192C8.46575 17.1125 13.4105 18.5392 15.7534 16.1949C16.1408 15.8215 16.4687 15.4934 16.7273 15.22C17.4732 14.4317 17.5864 13.0498 16.7224 12.1521C16.2795 11.6918 15.3753 10.9904 13.7774 9.84749C13.2881 9.4099 12.7078 9.50474 12.1759 9.85374C11.92 10.0216 11.7338 10.1914 11.3821 10.5434L10.7436 11.1823C10.6595 11.2665 9.51749 10.6945 8.40893 9.5849C7.29977 8.47465 6.72825 7.33259 6.81196 7.24889L7.45093 6.60956C7.5625 6.49789 7.61583 6.44382 7.68423 6.37193C7.82674 6.22216 7.94473 6.08624 8.04709 5.94829ZM11.9214 12.3608L12.5601 11.7218C12.7536 11.5281 12.8791 11.409 12.9811 11.3269C14.3808 12.332 15.1914 12.9641 15.5226 13.3081C15.7213 13.5147 15.6905 13.8916 15.5176 14.0742C15.2785 14.327 14.9678 14.6379 14.5865 15.0057C13.0714 16.5214 9.07992 15.3698 5.85427 12.141C2.62762 8.91114 1.47657 4.91903 2.98016 3.41461C3.39822 2.99002 3.53067 2.85764 3.93363 2.46059C4.08472 2.31171 4.49627 2.27828 4.68006 2.45984C5.03595 2.8114 5.69612 3.6567 6.66726 5.00948C6.61698 5.0719 6.55419 5.14243 6.47778 5.22274C6.42169 5.28169 6.37497 5.32905 6.27282 5.4313L5.63447 6.07C4.54851 7.15587 5.47335 9.00397 7.23081 10.7632C8.98707 12.5211 10.8359 13.447 11.9214 12.3608Z" fill="#00AB4E"/>
</svg>
