<svg width="20" height="20" viewBox="0 0 20 20" fill="none" xmlns="http://www.w3.org/2000/svg">
<path fill-rule="evenodd" clip-rule="evenodd" d="M10 2.5L10.1867 2.50264C13.7825 2.60433 16.6667 5.63575 16.6667 9.36111C16.6667 13.2022 12.2349 18.3333 10 18.3333C7.76516 18.3333 3.33337 13.2022 3.33337 9.36111C3.33337 5.63575 6.21753 2.60433 9.81342 2.50264L10 2.5ZM10 6.01852C11.7937 6.01852 13.2479 7.51515 13.2479 9.36111C13.2479 11.1558 11.8734 12.6203 10.1487 12.7003L10 12.7037L9.85138 12.7003C8.12672 12.6203 6.75218 11.1558 6.75218 9.36111C6.75218 7.51515 8.20639 6.01852 10 6.01852Z" fill="#70717D"/>
<mask id="mask0" mask-type="alpha" maskUnits="userSpaceOnUse" x="3" y="2" width="14" height="17">
<path fill-rule="evenodd" clip-rule="evenodd" d="M10 2.5L10.1867 2.50264C13.7825 2.60433 16.6667 5.63575 16.6667 9.36111C16.6667 13.2022 12.2349 18.3333 10 18.3333C7.76516 18.3333 3.33337 13.2022 3.33337 9.36111C3.33337 5.63575 6.21753 2.60433 9.81342 2.50264L10 2.5ZM10 6.01852C11.7937 6.01852 13.2479 7.51515 13.2479 9.36111C13.2479 11.1558 11.8734 12.6203 10.1487 12.7003L10 12.7037L9.85138 12.7003C8.12672 12.6203 6.75218 11.1558 6.75218 9.36111C6.75218 7.51515 8.20639 6.01852 10 6.01852Z" fill="white"/>
</mask>
<g mask="url(#mask0)">
<rect width="20" height="20" fill="#00AB4E"/>
</g>
</svg>
