<svg width="48" height="48" viewBox="0 0 48 48" fill="none" xmlns="http://www.w3.org/2000/svg">
<g id="icon product/Sub-Menu/Pengaturan/Bantuan/Transaksi">
<g id="transaksi">
<g id="Icon Product/Sub-Menu/Gadai/Obligasi">
<g id="Group 29">
<path id="Fill 1" fill-rule="evenodd" clip-rule="evenodd" d="M33.6 13.1997V35.5197C33.6 36.7149 32.3952 37.6797 31.2 37.6797H14.64V13.1997C14.64 12.0045 15.6048 11.0397 16.8 11.0397C16.8 11.0397 35.0859 10.9231 35.9798 11.0397C36.8737 11.1563 33.6 13.1997 33.6 13.1997Z" fill="#5297D1"/>
<path id="Fill 5" fill-rule="evenodd" clip-rule="evenodd" d="M31.1999 37.6794H28.3199H12.4799C11.2869 37.6794 10.3199 36.7124 10.3199 35.5194V33.3594H29.0399V35.5194C29.0399 36.7146 30.0047 37.6794 31.1999 37.6794Z" fill="#1868AB"/>
<path id="Fill 15" fill-rule="evenodd" clip-rule="evenodd" d="M37.92 15.3591H33.6V13.1991C33.6 12.0039 34.5648 11.0391 35.76 11.0391C36.9552 11.0391 37.92 12.0039 37.92 13.1991V15.3591Z" fill="#1868AB"/>
</g>
</g>
<g id="Group">
<path id="Fill 6" fill-rule="evenodd" clip-rule="evenodd" d="M29.3719 24.1804C29.0794 24.1804 28.8435 23.9433 28.8435 23.652C28.8435 23.6066 28.7914 19.0894 24.2488 18.7793C21.8418 18.6186 20.2323 20.3034 20.2157 20.3223C20.0174 20.5338 19.6829 20.546 19.4702 20.3478C19.2564 20.1484 19.2442 19.8138 19.4436 19.6001C19.5234 19.5159 21.4186 17.5198 24.3197 17.7258C28.7338 18.026 29.9002 21.7335 29.9002 23.652C29.9002 23.9433 29.6643 24.1804 29.3719 24.1804Z" fill="#F5FBFF"/>
<path id="Fill 8" fill-rule="evenodd" clip-rule="evenodd" d="M29.6142 26.2138L30.9723 24.1369C31.1207 23.9087 30.9579 23.6074 30.6865 23.6074H27.9693C27.6979 23.6074 27.5351 23.9087 27.6835 24.1369L29.0416 26.2138C29.1756 26.421 29.4791 26.421 29.6142 26.2138Z" fill="#F5FBFF"/>
<path id="Fill 10" fill-rule="evenodd" clip-rule="evenodd" d="M24.0465 29.9844C23.9136 29.9844 23.7784 29.98 23.6411 29.97C19.228 29.6698 18.0627 25.9635 18.0627 24.045C18.0627 23.7536 18.2987 23.5166 18.59 23.5166C18.8824 23.5166 19.1184 23.7536 19.1184 24.045C19.1184 24.0904 19.1715 28.6076 23.712 28.9166C26.1301 29.0828 27.7296 27.3913 27.7451 27.3747C27.9445 27.162 28.2779 27.1487 28.4917 27.3492C28.7043 27.5475 28.7165 27.882 28.5171 28.0947C28.4418 28.1767 26.7216 29.9844 24.0465 29.9844Z" fill="#F5FBFF"/>
<path id="Fill 12" fill-rule="evenodd" clip-rule="evenodd" d="M18.348 21.4826L16.9888 23.5607C16.8415 23.7878 17.0032 24.089 17.2746 24.089H19.9918C20.2632 24.089 20.4271 23.7878 20.2776 23.5607L18.9196 21.4826C18.7855 21.2766 18.482 21.2766 18.348 21.4826Z" fill="#F5FBFF"/>
<path id="Fill 14" fill-rule="evenodd" clip-rule="evenodd" d="M22.1957 23.6844L22.8293 23.6755C22.9257 23.6744 23.0209 23.6367 23.1162 23.5625C23.2103 23.4894 23.2569 23.3797 23.2546 23.2335C23.2524 23.0884 23.2037 22.9788 23.1062 22.9056C23.0098 22.8325 22.9113 22.7971 22.8082 22.7993L22.1835 22.8071L22.1957 23.6844ZM24.1153 24.9228C24.1663 25.0402 24.1929 25.1255 24.1929 25.1786C24.1951 25.3038 24.0943 25.4112 23.8905 25.4999C23.7852 25.5475 23.6999 25.5719 23.6368 25.573C23.5714 25.5741 23.5183 25.5586 23.4762 25.5287C23.4352 25.4976 23.4042 25.4655 23.3831 25.4323C23.3499 25.3703 23.217 25.0723 22.9855 24.5406L22.8315 24.5528L22.2079 24.5616L22.2156 25.121C22.2167 25.1975 22.2145 25.254 22.2101 25.2927C22.2057 25.3304 22.1902 25.3736 22.1647 25.4245C22.1204 25.5143 21.9908 25.5597 21.7803 25.563C21.5488 25.5663 21.4126 25.5076 21.3716 25.3858C21.3505 25.3293 21.3394 25.244 21.3383 25.1277L21.3007 22.3773C21.2996 22.302 21.3007 22.2455 21.3062 22.2067C21.3106 22.169 21.3262 22.1247 21.3516 22.0749C21.3959 21.9852 21.5255 21.9386 21.736 21.9364L22.8071 21.922C23.0962 21.9176 23.3809 22.0206 23.6578 22.2277C23.7908 22.3274 23.9026 22.4648 23.9902 22.6398C24.0788 22.8126 24.1242 23.0076 24.1275 23.2224C24.1319 23.5957 24.0123 23.9048 23.7675 24.1485C23.8428 24.3224 23.9591 24.5805 24.1153 24.9228Z" fill="#F5FBFF"/>
<path id="Fill 16" fill-rule="evenodd" clip-rule="evenodd" d="M25.43 23.8934C25.3547 23.9831 25.3181 24.0817 25.3192 24.1869C25.3203 24.2922 25.3613 24.3896 25.44 24.4749C25.5186 24.5624 25.6183 24.6045 25.7379 24.6023C25.8598 24.6012 25.9606 24.5569 26.0448 24.4694C26.1278 24.383 26.1688 24.2844 26.1666 24.1759C26.1655 24.0662 26.1245 23.9687 26.0448 23.8823C25.9628 23.7959 25.8598 23.7538 25.7324 23.7549C25.605 23.7572 25.5042 23.8026 25.43 23.8934ZM24.4807 26.2406L24.4408 23.3462C24.4397 23.2709 24.4408 23.2144 24.4464 23.1778C24.4508 23.1413 24.4641 23.1003 24.4862 23.0538C24.5305 22.964 24.6413 22.9175 24.8163 22.9153C24.9913 22.9131 25.1099 22.9341 25.173 22.9773C25.2339 23.0205 25.2694 23.0859 25.2804 23.1712C25.4045 22.9984 25.6006 22.9098 25.8686 22.9053C26.1389 22.902 26.3959 23.0261 26.6407 23.2775C26.8844 23.529 27.0096 23.8225 27.014 24.1592C27.0184 24.496 26.9032 24.7928 26.6662 25.0509C26.4302 25.309 26.1777 25.4397 25.9063 25.4431C25.636 25.4464 25.4388 25.3733 25.3137 25.2226L25.327 26.224C25.3281 26.2993 25.3259 26.3558 25.3214 26.3924C25.317 26.4289 25.3037 26.471 25.2793 26.5197C25.255 26.5674 25.214 26.6017 25.1542 26.6228C25.0944 26.6427 25.0146 26.6538 24.9116 26.656C24.8086 26.6571 24.7266 26.6482 24.6668 26.6294C24.6048 26.6106 24.5616 26.5773 24.535 26.5319C24.5106 26.4854 24.4951 26.4444 24.4896 26.409C24.484 26.3724 24.4818 26.317 24.4807 26.2406Z" fill="#F5FBFF"/>
</g>
</g>
</g>
</svg>
