<svg width="48" height="48" viewBox="0 0 48 48" fill="none" xmlns="http://www.w3.org/2000/svg">
<g id="icon product/Sub-Menu/Emas/GTE">
<g id="Emas">
<path id="Fill 13" fill-rule="evenodd" clip-rule="evenodd" d="M38.3398 32.8223C36.3062 33.0592 11.6938 33.0592 9.66183 32.8223C8.59145 32.6982 7.84746 31.8198 8.02666 30.877C8.26506 29.6327 8.74025 27.5181 9.69863 24.0497C10.825 19.9689 11.6186 18.0316 12.0794 17.129C12.3322 16.6342 12.8266 16.278 13.4282 16.1716C14.7114 15.9428 33.2886 15.9428 34.5718 16.1716C35.1734 16.278 35.6678 16.6342 35.9206 17.129C36.3814 18.0316 37.175 19.9689 38.3014 24.0497C39.2597 27.5181 39.7365 29.6327 39.9733 30.877C40.1525 31.8198 39.4085 32.6982 38.3398 32.8223Z" fill="#CC9D3F"/>
<mask id="mask0_0_6713" style="mask-type:alpha" maskUnits="userSpaceOnUse" x="8" y="16" width="32" height="17">
<path id="Fill 13_2" fill-rule="evenodd" clip-rule="evenodd" d="M38.3398 32.8223C36.3062 33.0592 11.6938 33.0592 9.66183 32.8223C8.59145 32.6982 7.84746 31.8198 8.02666 30.877C8.26506 29.6327 8.74025 27.5181 9.69863 24.0497C10.825 19.9689 11.6186 18.0316 12.0794 17.129C12.3322 16.6342 12.8266 16.278 13.4282 16.1716C14.7114 15.9428 33.2886 15.9428 34.5718 16.1716C35.1734 16.278 35.6678 16.6342 35.9206 17.129C36.3814 18.0316 37.175 19.9689 38.3014 24.0497C39.2597 27.5181 39.7365 29.6327 39.9733 30.877C40.1525 31.8198 39.4085 32.6982 38.3398 32.8223Z" fill="white"/>
</mask>
<g mask="url(#mask0_0_6713)">
<path id="Fill 13_3" fill-rule="evenodd" clip-rule="evenodd" d="M35.3398 31.8223C33.3062 32.0592 8.6938 32.0592 6.66183 31.8223C5.59145 31.6982 4.84746 30.8198 5.02666 29.877C5.26506 28.6327 5.74025 26.5181 6.69863 23.0497C7.82501 18.9689 8.6186 17.0316 9.07939 16.129C9.33219 15.6342 9.82658 15.278 10.4282 15.1716C11.7114 14.9428 30.2886 14.9428 31.5718 15.1716C32.1734 15.278 32.6678 15.6342 32.9206 16.129C33.3814 17.0316 34.175 18.9689 35.3014 23.0497C36.2597 26.5181 36.7365 28.6327 36.9733 29.877C37.1525 30.8198 36.4085 31.6982 35.3398 31.8223Z" fill="#FFC54F"/>
</g>
</g>
<g id="Group 22">
<path id="Stroke 10" d="M42.5 35C42.5 39.1425 39.1425 42.5 35 42.5C30.8575 42.5 27.5 39.1425 27.5 35C27.5 30.8575 30.8575 27.5 35 27.5C39.1425 27.5 42.5 30.8575 42.5 35Z" fill="#00AB4E" stroke="white"/>
<path id="Shape" fill-rule="evenodd" clip-rule="evenodd" d="M29.5 35.7895C29.4999 35.755 29.505 35.7205 29.5156 35.6866L29.5415 35.6247L31.5058 31.9405L31.5437 31.8827L31.5897 31.8346L31.6363 31.7954C31.7835 31.6764 32.0327 31.5321 32.3987 31.3948C33.0603 31.1466 33.9201 31 35 31C36.0799 31 36.9397 31.1466 37.6013 31.3948C37.9673 31.5321 38.2165 31.6764 38.3637 31.7954L38.4013 31.8268C38.4213 31.8432 38.4397 31.8618 38.4563 31.8827L38.4942 31.9405L40.4585 35.6247C40.4773 35.66 40.4895 35.6967 40.4956 35.7337L40.5 35.7895C40.5 37.0104 39.4448 38 38.1429 38C36.8976 38 35.878 37.0946 35.7916 35.9474L35.7857 35.7895C35.7856 35.755 35.7907 35.7205 35.8013 35.6866L35.8272 35.6247L37.642 32.2236L37.4944 32.1538C37.4391 32.1295 37.3775 32.1044 37.3095 32.0789C36.7434 31.8666 35.9826 31.7368 35 31.7368C34.0174 31.7368 33.2566 31.8666 32.6905 32.0789C32.5544 32.13 32.4443 32.1793 32.358 32.2236L34.1728 35.6247C34.1916 35.66 34.2038 35.6967 34.2099 35.7337L34.2143 35.7895C34.2143 37.0104 33.1591 38 31.8571 38C30.6118 38 29.5923 37.0946 29.5059 35.9474L29.5 35.7895ZM31.8571 32.9291L30.3321 35.7887H33.3814L31.8571 32.9291ZM38.1429 32.9291L36.6178 35.7887H39.6671L38.1429 32.9291Z" fill="white"/>
</g>
</g>
</svg>
