<svg width="48" height="48" viewBox="0 0 48 48" fill="none" xmlns="http://www.w3.org/2000/svg">
<path fill-rule="evenodd" clip-rule="evenodd" d="M12 9C12 7.34315 13.3431 6 15 6H33C34.6569 6 36 7.34315 36 9V39C36 40.6569 34.6569 42 33 42H15C13.3431 42 12 40.6569 12 39V9Z" fill="#CC9D3F"/>
<mask id="mask0_413_785" style="mask-type:alpha" maskUnits="userSpaceOnUse" x="12" y="6" width="24" height="36">
<path fill-rule="evenodd" clip-rule="evenodd" d="M12 9C12 7.34315 13.3431 6 15 6H33C34.6569 6 36 7.34315 36 9V39C36 40.6569 34.6569 42 33 42H15C13.3431 42 12 40.6569 12 39V9Z" fill="white"/>
</mask>
<g mask="url(#mask0_413_785)">
<rect x="9" y="6" width="24" height="36" rx="3" fill="#FFC54F"/>
<path fill-rule="evenodd" clip-rule="evenodd" d="M21.5106 10.3329L16.6939 13.9646C16.1045 14.4085 15.8569 15.1984 16.0826 15.9185L17.9217 21.7941C18.1473 22.5141 18.7941 23 19.5233 23H25.4767C26.2059 23 26.8527 22.5141 27.0783 21.7941L28.9174 15.9185C29.1431 15.1984 28.8955 14.4085 28.3061 13.9646L23.4894 10.3329C22.9 9.88902 22.1 9.88902 21.5106 10.3329Z" fill="#FFC54F" stroke="#CC9D3F"/>
<path d="M22.591 13.3294C22.4694 13.3294 22.3495 13.3227 22.2301 13.3305C21.7696 13.3619 21.3314 13.4824 20.9134 13.6764C20.6294 13.8082 20.3688 13.9781 20.1307 14.1844C19.455 14.7704 19.0342 15.4993 18.8762 16.3795C18.8285 16.6464 18.8017 16.9172 18.8218 17.1869C18.8829 17.9983 19.1518 18.7316 19.6813 19.3579C20.2456 20.0257 20.956 20.4569 21.8166 20.6099C22.9899 20.8191 24.0405 20.5337 24.9392 19.7459C25.597 19.1701 25.9993 18.4395 26.1276 17.5755C26.3002 16.4177 25.9909 15.3938 25.2115 14.5169C25.0305 14.3134 24.8255 14.1362 24.6014 13.9815C24.5621 13.9545 24.5644 13.9388 24.5941 13.9069C24.7594 13.7331 24.9235 13.5581 25.0866 13.3821C25.1157 13.3507 25.1348 13.3484 25.1695 13.3748C26.0335 14.0258 26.6033 14.8735 26.8689 15.9231C26.9787 16.3577 27.0185 16.8006 26.9922 17.2475C26.9473 18.0207 26.7249 18.7395 26.3092 19.3938C25.9937 19.89 25.6015 20.3161 25.1213 20.6587C24.5134 21.0921 23.8416 21.3691 23.1009 21.4605C21.8015 21.6209 20.6338 21.294 19.6231 20.4574C18.782 19.7611 18.2694 18.864 18.071 17.7897C18.0055 17.4336 17.9853 17.0742 18.0105 16.712C18.0839 15.6742 18.4621 14.7647 19.1558 13.9904C19.7648 13.3114 20.5151 12.8606 21.3992 12.6347C21.8833 12.5113 22.3741 12.476 22.8717 12.5153C23.3351 12.5517 23.7805 12.6599 24.2103 12.836C24.2321 12.8449 24.2579 12.8489 24.2764 12.8713C24.2629 12.8864 24.25 12.9016 24.236 12.9156C23.9195 13.2363 23.6068 13.5609 23.2852 13.8761C23.135 14.0235 22.9821 14.1682 22.8364 14.319C22.0116 15.1735 21.1611 16.0033 20.3246 16.846C20.2865 16.8842 20.2893 16.9032 20.3257 16.9397C21.081 17.6932 21.8357 18.4479 22.5887 19.2043C22.6285 19.2441 22.6465 19.2363 22.6812 19.2015C23.3255 18.555 23.9704 17.9097 24.6165 17.266C24.6563 17.2267 24.6568 17.206 24.617 17.1667C24.3677 16.9212 24.1206 16.6739 23.8752 16.425C23.8371 16.3863 23.813 16.3857 23.7805 16.4266C23.7609 16.4513 23.7368 16.4715 23.7144 16.4939C23.4404 16.7642 23.1636 17.0327 22.893 17.3064C22.8145 17.3854 22.7389 17.4678 22.6621 17.5486C22.6386 17.5732 22.624 17.5749 22.5988 17.5491C22.4145 17.3624 22.2296 17.1768 22.0424 16.9924C22.0088 16.9593 22.024 16.9425 22.0486 16.9178C22.6291 16.338 23.209 15.7577 23.7895 15.1774C23.7912 15.1757 23.7928 15.1746 23.794 15.1724C23.8158 15.141 23.8354 15.1421 23.8612 15.1712C23.8982 15.2133 23.9396 15.2509 23.9794 15.2907C24.6042 15.9158 25.2283 16.541 25.8547 17.1651C25.8957 17.206 25.899 17.2262 25.8559 17.2694C25.0894 18.0341 24.3262 18.8023 23.5575 19.5648C23.4068 19.7145 23.2499 19.8586 23.1042 20.0134C22.9647 20.162 22.8168 20.3021 22.6773 20.4502C22.6459 20.4838 22.6274 20.486 22.5932 20.4518C21.4233 19.2789 20.2523 18.1065 19.0801 16.9363C19.0364 16.8931 19.0555 16.8741 19.0874 16.8421C20.0198 15.9102 20.9515 14.9778 21.8839 14.0459C22.1041 13.8256 22.3248 13.6052 22.5445 13.3843C22.5607 13.3686 22.5831 13.3557 22.591 13.3294Z" fill="#CC9D3F"/>
</g>
<path d="M19.4 34.0721C18.7174 34.0721 18.1947 33.8241 17.832 33.3281C17.4747 32.8321 17.296 32.1148 17.296 31.1761C17.296 30.2481 17.4774 29.5388 17.84 29.0481C18.2027 28.5521 18.7227 28.3041 19.4 28.3041C20.0774 28.3041 20.5974 28.5521 20.96 29.0481C21.3227 29.5388 21.504 30.2481 21.504 31.1761C21.504 32.1148 21.3227 32.8321 20.96 33.3281C20.6027 33.8241 20.0827 34.0721 19.4 34.0721ZM19.4 33.1201C19.7094 33.1201 19.9334 32.9654 20.072 32.6561C20.216 32.3468 20.288 31.8534 20.288 31.1761C20.288 30.5041 20.216 30.0161 20.072 29.7121C19.9334 29.4081 19.7094 29.2561 19.4 29.2561C19.0907 29.2561 18.864 29.4081 18.72 29.7121C18.5814 30.0161 18.512 30.5041 18.512 31.1761C18.512 31.8534 18.5814 32.3468 18.72 32.6561C18.864 32.9654 19.0907 33.1201 19.4 33.1201Z" fill="#CC9D3F"/>
<path d="M23.4849 32.7201V33.5441C23.4849 33.8481 23.4289 34.1254 23.3169 34.3761C23.2102 34.6321 23.0262 34.8908 22.7649 35.1521L22.2929 34.7761C22.5542 34.5148 22.7169 34.2561 22.7809 34.0001H22.1889V32.7201H23.4849Z" fill="#CC9D3F"/>
<path d="M27.211 31.0961C27.5417 31.1921 27.795 31.3601 27.971 31.6001C28.1524 31.8348 28.243 32.1228 28.243 32.4641C28.243 32.9601 28.0537 33.3521 27.675 33.6401C27.2964 33.9228 26.7844 34.0641 26.139 34.0641C25.7497 34.0641 25.3764 34.0081 25.019 33.8961C24.6617 33.7841 24.371 33.6294 24.147 33.4321L24.539 32.5441C25.051 32.9068 25.5657 33.0881 26.083 33.0881C26.4244 33.0881 26.6724 33.0294 26.827 32.9121C26.9817 32.7894 27.059 32.6001 27.059 32.3441C27.059 32.0934 26.9817 31.9121 26.827 31.8001C26.6724 31.6881 26.4244 31.6321 26.083 31.6321H25.275V30.6641H25.947C26.2724 30.6641 26.5124 30.6081 26.667 30.4961C26.827 30.3841 26.907 30.2108 26.907 29.9761C26.907 29.7468 26.8377 29.5708 26.699 29.4481C26.5604 29.3254 26.3604 29.2641 26.099 29.2641C25.8644 29.2641 25.619 29.3121 25.363 29.4081C25.107 29.4988 24.859 29.6321 24.619 29.8081L24.227 28.9201C24.451 28.7281 24.739 28.5761 25.091 28.4641C25.4484 28.3468 25.8137 28.2881 26.187 28.2881C26.571 28.2881 26.907 28.3521 27.195 28.4801C27.483 28.6028 27.7044 28.7788 27.859 29.0081C28.019 29.2374 28.099 29.5041 28.099 29.8081C28.099 30.1121 28.019 30.3788 27.859 30.6081C27.7044 30.8321 27.4884 30.9948 27.211 31.0961Z" fill="#CC9D3F"/>
</svg>
