<svg width="48" height="48" viewBox="0 0 48 48" fill="none" xmlns="http://www.w3.org/2000/svg">
<path fill-rule="evenodd" clip-rule="evenodd" d="M12 9C12 7.34315 13.3431 6 15 6H33C34.6569 6 36 7.34315 36 9V39C36 40.6569 34.6569 42 33 42H15C13.3431 42 12 40.6569 12 39V9Z" fill="#CC9D3F"/>
<mask id="mask0_0_10387" style="mask-type:alpha" maskUnits="userSpaceOnUse" x="12" y="6" width="24" height="36">
<path fill-rule="evenodd" clip-rule="evenodd" d="M12 9C12 7.34315 13.3431 6 15 6H33C34.6569 6 36 7.34315 36 9V39C36 40.6569 34.6569 42 33 42H15C13.3431 42 12 40.6569 12 39V9Z" fill="white"/>
</mask>
<g mask="url(#mask0_0_10387)">
<rect x="9" y="6" width="24" height="36" rx="3" fill="#FFC54F"/>
<path fill-rule="evenodd" clip-rule="evenodd" d="M21.5106 10.3329L16.6939 13.9646C16.1045 14.4085 15.8569 15.1984 16.0826 15.9185L17.9217 21.7941C18.1473 22.5141 18.7941 23 19.5233 23H25.4767C26.2059 23 26.8527 22.5141 27.0783 21.7941L28.9174 15.9185C29.1431 15.1984 28.8955 14.4085 28.3061 13.9646L23.4894 10.3329C22.9 9.88902 22.1 9.88902 21.5106 10.3329Z" fill="#FFC54F" stroke="#CC9D3F"/>
<path fill-rule="evenodd" clip-rule="evenodd" d="M19.4497 13.8016C19.5787 13.8143 19.6776 13.7795 19.709 13.8655C19.737 13.9421 19.6582 14.0004 19.61 14.0574C19.1254 14.6301 18.6397 15.2018 18.1563 15.7755C17.9898 15.9733 17.9936 16.0269 18.1733 16.2092C19.5458 17.6017 20.9196 18.993 22.2893 20.3883C22.3907 20.4916 22.4436 20.5176 22.5617 20.3969C23.9247 19.0047 25.2946 17.6193 26.6628 16.2322C26.8701 16.0221 26.8743 15.9786 26.6831 15.7519C26.2038 15.1837 25.7221 14.6176 25.2425 14.0497C25.1955 13.9942 25.1141 13.9389 25.1522 13.858C25.1914 13.775 25.2872 13.8167 25.3591 13.8078C25.4848 13.7923 25.5839 13.8413 25.6757 13.925C26.3524 14.5417 27.0322 15.1551 27.7084 15.7723C27.9072 15.9538 27.907 16.0487 27.7162 16.2312C26.0096 17.8632 24.3011 19.4932 22.5973 21.1282C22.465 21.2552 22.3795 21.2406 22.2551 21.1214C20.5555 19.4919 18.852 17.8666 17.1502 16.2395C16.9489 16.0471 16.949 15.9554 17.1561 15.766C17.8268 15.1529 18.5009 14.5436 19.1709 13.9297C19.269 13.8399 19.3729 13.7896 19.4497 13.8016Z" fill="#CC9D3F"/>
<path fill-rule="evenodd" clip-rule="evenodd" d="M22.2561 14.6977C22.2561 14.7321 22.2515 14.7672 22.2568 14.8008C22.3263 15.2417 22.2167 15.61 21.8305 15.869C21.7233 15.9409 21.7257 16.0171 21.8275 16.093C22.1993 16.3705 22.2815 16.7413 22.259 17.192C22.2235 17.8992 22.2502 18.6096 22.2487 19.3186C22.2485 19.398 22.2775 19.4977 22.1852 19.5418C22.085 19.5896 22.0213 19.5093 21.958 19.445C20.8748 18.3476 19.7925 17.2494 18.7068 16.1546C18.5715 16.0181 18.5513 15.9118 18.6883 15.7537C19.211 15.1505 19.7219 14.537 20.2337 13.9243C20.3002 13.8446 20.3643 13.8033 20.4745 13.8048C20.9907 13.8114 21.5071 13.8119 22.0233 13.8054C22.193 13.8033 22.2613 13.8709 22.2573 14.0368C22.2521 14.257 22.256 14.4774 22.2561 14.6977ZM19.6971 15.6518C20.1983 15.6518 20.6437 15.6548 21.089 15.6504C21.2624 15.6486 21.6071 15.2873 21.6097 15.1137C21.6123 14.9422 21.6046 14.7703 21.6122 14.599C21.6172 14.4884 21.5747 14.4581 21.4693 14.4608C21.2224 14.4671 20.9751 14.4629 20.728 14.4628C20.6729 14.4628 20.6228 14.4632 20.5822 14.5157C20.2985 14.8831 20.0119 15.2484 19.6971 15.6518ZM21.6096 18.0438C21.6096 17.637 21.6104 17.2214 21.6081 16.8057C21.6079 16.7745 21.5942 16.7348 21.5726 16.7135C21.3718 16.5155 21.2009 16.2622 20.853 16.3377C20.7679 16.3562 20.6753 16.3404 20.586 16.3404C20.3584 16.3404 20.1307 16.3404 19.8767 16.3404C20.4726 16.9261 21.0372 17.4811 21.6096 18.0438Z" fill="#CC9D3F"/>
<path fill-rule="evenodd" clip-rule="evenodd" d="M23.3 18.0322C23.8766 17.4633 24.4378 16.9094 25.0222 16.3329C24.8932 16.3329 24.7804 16.3329 24.6677 16.3329C24.0687 16.3329 23.4696 16.3269 22.8707 16.3362C22.6728 16.3393 22.5958 16.2616 22.5965 16.0716C22.599 15.4106 22.5953 14.7496 22.5985 14.0887C22.5996 13.8724 22.6672 13.8098 22.8879 13.8086C23.4112 13.8059 23.9345 13.8096 24.4577 13.8037C24.5589 13.8026 24.621 13.8372 24.6803 13.915C24.9681 14.2927 25.2611 14.6663 25.5509 15.0424C25.5919 15.0957 25.6527 15.1523 25.6228 15.2251C25.5912 15.3019 25.5086 15.28 25.4418 15.2898C25.1121 15.3378 24.8485 15.2477 24.6801 14.9425C24.4589 14.542 24.1234 14.417 23.6727 14.4667C23.3073 14.507 23.3037 14.4749 23.3037 14.84C23.3037 15.0466 23.3133 15.2537 23.3005 15.4595C23.2913 15.6089 23.3454 15.6418 23.4868 15.6406C24.2854 15.6342 25.0842 15.6375 25.8828 15.6378C25.9447 15.6378 26.0072 15.6353 26.0683 15.6432C26.1646 15.6557 26.2644 15.6724 26.3005 15.7831C26.3359 15.8916 26.3022 15.986 26.2271 16.0675C26.2037 16.0928 26.1787 16.1166 26.1545 16.141C25.0571 17.2442 23.9597 18.3474 22.8624 19.4506C22.8095 19.5037 22.7623 19.5766 22.6739 19.5494C22.5725 19.5182 22.6073 19.4244 22.6071 19.3557C22.6046 18.5295 22.609 17.7032 22.6027 16.877C22.6014 16.701 22.6717 16.6499 22.8367 16.6548C23.35 16.6701 23.2943 16.573 23.2994 17.1163C23.3023 17.424 23.3 17.7318 23.3 18.0322Z" fill="#CC9D3F"/>
<path fill-rule="evenodd" clip-rule="evenodd" d="M22.5 34.0717C23.1827 34.0717 23.704 33.8237 24.064 33.3277C24.424 32.8317 24.604 32.1144 24.604 31.1757C24.604 30.2477 24.4227 29.537 24.06 29.0437C23.6973 28.5504 23.1773 28.3037 22.5 28.3037C21.8227 28.3037 21.3027 28.5504 20.94 29.0437C20.5773 29.537 20.396 30.2477 20.396 31.1757C20.396 32.1144 20.576 32.8317 20.936 33.3277C21.296 33.8237 21.8173 34.0717 22.5 34.0717ZM17.652 34.0637C18.0893 34.0637 18.472 33.985 18.8 33.8277C19.128 33.6704 19.3813 33.4477 19.56 33.1597C19.7387 32.8717 19.828 32.5384 19.828 32.1597C19.828 31.8024 19.7533 31.4877 19.604 31.2157C19.4547 30.9437 19.244 30.7317 18.972 30.5797C18.7 30.4277 18.3907 30.3517 18.044 30.3517C17.6973 30.3517 17.396 30.4237 17.14 30.5677V29.3117H19.556V28.3597H15.924V31.6957H16.636C16.7853 31.573 16.952 31.477 17.136 31.4077C17.32 31.3384 17.5053 31.3037 17.692 31.3037C17.9907 31.3037 18.2267 31.3837 18.4 31.5437C18.5733 31.7037 18.66 31.9224 18.66 32.1997C18.66 32.493 18.576 32.7144 18.408 32.8637C18.24 33.013 17.9933 33.0877 17.668 33.0877C17.156 33.0877 16.6413 32.9064 16.124 32.5437L15.732 33.4317C15.9507 33.6237 16.236 33.777 16.588 33.8917C16.94 34.0064 17.2947 34.0637 17.652 34.0637ZM21.824 32.6557C21.9653 32.965 22.1907 33.1197 22.5 33.1197C22.8093 33.1197 23.0347 32.965 23.176 32.6557C23.3173 32.3464 23.388 31.853 23.388 31.1757C23.388 30.5037 23.3173 30.0157 23.176 29.7117C23.0347 29.4077 22.8093 29.2557 22.5 29.2557C22.1907 29.2557 21.9653 29.4077 21.824 29.7117C21.6827 30.0157 21.612 30.5037 21.612 31.1757C21.612 31.853 21.6827 32.3464 21.824 32.6557ZM27.3 34.0717C27.9827 34.0717 28.504 33.8237 28.864 33.3277C29.224 32.8317 29.404 32.1144 29.404 31.1757C29.404 30.2477 29.2227 29.537 28.86 29.0437C28.4973 28.5504 27.9773 28.3037 27.3 28.3037C26.6227 28.3037 26.1027 28.5504 25.74 29.0437C25.3773 29.537 25.196 30.2477 25.196 31.1757C25.196 32.1144 25.376 32.8317 25.736 33.3277C26.096 33.8237 26.6173 34.0717 27.3 34.0717ZM26.624 32.6557C26.7653 32.965 26.9907 33.1197 27.3 33.1197C27.6093 33.1197 27.8347 32.965 27.976 32.6557C28.1173 32.3464 28.188 31.853 28.188 31.1757C28.188 30.5037 28.1173 30.0157 27.976 29.7117C27.8347 29.4077 27.6093 29.2557 27.3 29.2557C26.9907 29.2557 26.7653 29.4077 26.624 29.7117C26.4827 30.0157 26.412 30.5037 26.412 31.1757C26.412 31.853 26.4827 32.3464 26.624 32.6557Z" fill="#CC9D3F"/>
</g>
</svg>
