<svg width="48" height="48" viewBox="0 0 48 48" fill="none" xmlns="http://www.w3.org/2000/svg">
<path fill-rule="evenodd" clip-rule="evenodd" d="M12.4999 13L5.9999 31V32.5H18.9999V31L12.4999 13Z" stroke="#00662E" stroke-width="1.5" stroke-linecap="round" stroke-linejoin="round"/>
<path d="M19.9999 32.9636V31H4.9999V32.9636C4.9999 32.9636 4.99989 39 12.4999 39C19.9999 39 19.9999 32.9636 19.9999 32.9636Z" fill="#00883E"/>
<path d="M16.9999 32.9634V30.9998H4.9999C4.9999 30.9998 4.99981 30.4269 4.9999 32.9634C4.99999 35.5 6.9999 39 11.4999 38.9998C16.7542 39.0001 16.9999 34 16.9999 32.9634Z" fill="#00AB4E"/>
<path fill-rule="evenodd" clip-rule="evenodd" d="M35.4999 13L28.9999 31V32.5H41.9999V31L35.4999 13Z" stroke="#00662E" stroke-width="1.5" stroke-linecap="round" stroke-linejoin="round"/>
<path d="M42.9999 32.9636V31H27.9999V32.9636C27.9999 32.9636 27.9999 39 35.4999 39C42.9999 39 42.9999 32.9636 42.9999 32.9636Z" fill="#00883E"/>
<path d="M39.9999 32.9634V30.9998H27.9999C27.9999 30.9998 27.9998 30.4269 27.9999 32.9634C28 35.5 29.9999 39 34.4999 38.9998C39.7542 39.0001 39.9999 34 39.9999 32.9634Z" fill="#00AB4E"/>
<path d="M7.9999 14.6331C7.9999 14.2465 8.21807 13.8971 8.57099 13.7394C10.717 12.7799 18.4585 9.5 23.9999 9.5C29.5413 9.5 37.2828 12.7799 39.4288 13.7394C39.7817 13.8971 39.9999 14.2465 39.9999 14.6331V16.4C39.9999 16.9523 39.5522 17.4 38.9999 17.4H37.3027C37.1052 17.4 36.9135 17.3408 36.7459 17.2365C33.6728 15.3241 27.9123 14 23.9999 14C19.058 14 12.2799 16.355 9.39303 17.451C8.72531 17.7045 7.9999 17.2118 7.9999 16.4975V14.6331Z" fill="#00883E"/>
<path d="M7.9999 14.6331C7.9999 14.2465 8.21807 13.8971 8.57099 13.7394C10.717 12.7799 18.4585 9.5 23.9999 9.5C29.5049 9.5 35.7425 12.7369 37.5102 13.7201C37.8173 13.891 37.9999 14.2151 37.9999 14.5665V16.3395C37.9999 17.093 37.1938 17.5916 36.5085 17.2785C33.9868 16.1265 28.696 14 23.9999 14C19.058 14 12.2799 16.355 9.39303 17.451C8.72531 17.7045 7.9999 17.2118 7.9999 16.4975V14.6331Z" fill="#00AB4E"/>
<path fill-rule="evenodd" clip-rule="evenodd" d="M25.9999 11.4995C25.9999 12.881 24.8802 14 23.4999 14C22.1196 14 20.9999 12.881 20.9999 11.4995C20.9999 10.119 22.1196 9 23.4999 9C24.8802 9 25.9999 10.119 25.9999 11.4995Z" fill="#9BB20E"/>
<path fill-rule="evenodd" clip-rule="evenodd" d="M24.9999 11.4995C24.9999 12.881 23.8802 14 22.4999 14C21.1196 14 19.9999 12.881 19.9999 11.4995C19.9999 10.119 21.1196 9 22.4999 9C23.8802 9 24.9999 10.119 24.9999 11.4995Z" fill="#BFD730"/>
<path d="M44.5 37C44.5 41.1425 41.1425 44.5 37 44.5C32.8575 44.5 29.5 41.1425 29.5 37C29.5 32.8575 32.8575 29.5 37 29.5C41.1425 29.5 44.5 32.8575 44.5 37Z" fill="#E07E26" stroke="white"/>
<path d="M38.6174 34.3073C38.7238 33.9798 39.1873 33.9798 39.2937 34.3073L39.674 35.4777C39.7216 35.6242 39.8581 35.7234 40.0122 35.7234H41.2428C41.5872 35.7234 41.7304 36.1642 41.4518 36.3666L40.4562 37.09C40.3316 37.1805 40.2794 37.341 40.327 37.4875L40.7073 38.6579C40.8137 38.9855 40.4388 39.2579 40.1602 39.0555L39.1645 38.3321C39.0399 38.2416 38.8712 38.2416 38.7466 38.3321L37.7509 39.0555C37.4723 39.2579 37.0974 38.9855 37.2038 38.6579L37.5841 37.4875C37.6317 37.341 37.5795 37.1805 37.4549 37.09L36.4593 36.3666C36.1807 36.1642 36.3239 35.7234 36.6683 35.7234H37.899C38.053 35.7234 38.1895 35.6242 38.2371 35.4777L38.6174 34.3073Z" fill="white"/>
<path fill-rule="evenodd" clip-rule="evenodd" d="M38.7053 41.8278C38.858 41.7778 38.8011 41.5512 38.6405 41.5456C36.5762 41.4744 34.6477 40.0596 33.9356 37.8855C33.2234 35.7113 33.9412 33.4297 35.5633 32.151C35.6893 32.0517 35.6012 31.8359 35.4488 31.8858C32.6727 32.7951 31.1512 35.7578 32.0505 38.5032C32.9497 41.2487 35.9292 42.7371 38.7053 41.8278Z" fill="white"/>
</svg>
