<svg width="78" height="15" viewBox="0 0 78 15" fill="none" xmlns="http://www.w3.org/2000/svg">
<path fill-rule="evenodd" clip-rule="evenodd" d="M7.05855 3.92075C9.30512 3.92068 11.1156 5.71342 11.1172 7.93972C11.1189 10.1541 9.30325 11.9602 7.07472 11.9612C4.82001 11.9622 3.00929 10.1674 3.01056 7.9327C3.0118 5.71379 4.82086 3.92084 7.05855 3.92075ZM8.87451 6.65599C8.96542 6.70718 9.01663 6.73428 9.06609 6.76419C9.14655 6.81283 9.21968 6.83478 9.28197 6.73532C9.34814 6.6297 9.28197 6.58767 9.20093 6.54208C8.38881 6.08546 7.52633 5.85102 6.58606 5.95204C5.99252 6.01583 5.44405 6.20825 4.93649 6.51712C4.86223 6.56233 4.76559 6.60303 4.84132 6.72204C4.91826 6.84296 4.99784 6.78434 5.08093 6.73158C5.127 6.70233 5.17658 6.67853 5.25377 6.63631C5.2229 6.71127 5.20641 6.75368 5.18818 6.7953C4.84501 7.57858 4.50187 8.36183 4.15817 9.14486C4.04041 9.41312 4.08438 9.55822 4.34031 9.71012C4.41677 9.75549 4.49949 9.79425 4.58402 9.82198C5.10663 9.99343 5.63395 9.98922 6.16282 9.85173C6.2861 9.81968 6.40166 9.76708 6.50941 9.69964C6.74162 9.55441 6.78428 9.405 6.67434 9.15484C6.305 8.31445 5.93966 7.47226 5.5659 6.63379C5.51467 6.51888 5.54602 6.48595 5.65116 6.44569C6.58861 6.08672 7.52058 6.10842 8.45371 6.46366C8.58163 6.51237 8.59027 6.56393 8.53849 6.68004C8.1796 7.48479 7.82763 8.29257 7.47332 9.09934C7.32799 9.43028 7.3859 9.59745 7.7156 9.75433C8.12429 9.94879 8.56041 9.97502 9.00316 9.93503C9.28403 9.90966 9.55824 9.85409 9.80166 9.70109C10.0349 9.55454 10.0799 9.40475 9.97078 9.1572C9.79515 8.75885 9.62034 8.36013 9.4456 7.9614C9.26097 7.53992 9.07676 7.11831 8.87451 6.65599Z" fill="#02A750"/>
<path fill-rule="evenodd" clip-rule="evenodd" d="M7.04896 14.937C5.02188 14.9099 3.29554 14.1784 1.90476 12.7178C0.78559 11.5425 0.163456 10.1323 0.0269895 8.51743C0.0146326 8.37129 0.0140926 8.2242 0.00106858 8.07812C-0.0059199 7.99986 0.0208269 7.98012 0.0973509 7.98194C0.303384 7.98689 0.509735 7.98704 0.715769 7.98153C0.814147 7.97892 0.794612 8.0417 0.796359 8.09651C0.813798 8.64937 0.893626 9.19348 1.05678 9.72226C1.36046 10.7066 1.87389 11.5698 2.6066 12.3021C3.41034 13.1054 4.36176 13.6614 5.46686 13.9446C6.64649 14.2469 7.82214 14.223 8.98458 13.847C10.4061 13.3873 11.526 12.5327 12.3349 11.2895C13.049 10.1919 13.3739 8.98387 13.3179 7.67628C13.2518 6.12864 12.6751 4.78755 11.6076 3.66936C10.5474 2.55889 9.23502 1.91825 7.69263 1.76427C6.41453 1.63667 5.20813 1.87452 4.07853 2.48251C3.99153 2.52935 3.93857 2.52926 3.88676 2.44001C3.79715 2.28568 3.70563 2.13189 3.60516 1.98439C3.54436 1.89517 3.56774 1.85403 3.65506 1.80589C4.18997 1.51103 4.75534 1.29096 5.34815 1.14649C6.44522 0.879143 7.54876 0.86548 8.65005 1.11794C10.0209 1.43219 11.1998 2.09298 12.1674 3.10536C13.3705 4.36412 14.0255 5.86387 14.1114 7.59899C14.1953 9.29315 13.7206 10.8263 12.6843 12.1715C11.5696 13.6185 10.0947 14.5057 8.2823 14.8328C7.87471 14.9064 7.46427 14.9368 7.04896 14.937Z" fill="#BAD333"/>
<path fill-rule="evenodd" clip-rule="evenodd" d="M7.07801 2.50323C9.09403 2.5708 10.6603 3.42957 11.7557 5.12077C11.8165 5.21462 11.806 5.26021 11.708 5.31348C11.5693 5.38891 11.4335 5.47259 11.3075 5.56713C11.1938 5.65245 11.1343 5.64621 11.0559 5.51685C10.6704 4.88094 10.1512 4.37357 9.51645 3.98045C7.77301 2.90067 5.43724 3.11261 3.92162 4.49689C2.83771 5.48688 2.32437 6.71891 2.38231 8.17724C2.46922 10.3669 4.20297 12.2648 6.3993 12.5305C8.39632 12.7722 9.95059 12.021 11.0579 10.36C11.1104 10.2813 11.1434 10.2611 11.2266 10.3204C11.3767 10.4274 11.5325 10.5275 11.6921 10.6201C11.787 10.6752 11.7787 10.7245 11.7261 10.805C10.8511 12.147 9.63141 12.9984 8.04254 13.2832C5.58393 13.7239 3.21499 12.5149 2.11189 10.2867C0.839604 7.71671 1.9071 4.48455 4.46787 3.1491C5.28397 2.72352 6.14933 2.49952 7.07801 2.50323Z" fill="#74BC46"/>
<path fill-rule="evenodd" clip-rule="evenodd" d="M8.87451 6.656C9.07676 7.11835 9.26097 7.53993 9.44563 7.96138C9.62037 8.36011 9.79518 8.75883 9.97081 9.15718C10.08 9.40473 10.035 9.55452 9.80169 9.70107C9.55827 9.85404 9.28406 9.90964 9.00319 9.93501C8.56044 9.975 8.12432 9.94877 7.71563 9.75431C7.38593 9.59746 7.32802 9.43026 7.47335 9.09931C7.82766 8.29255 8.17963 7.48477 8.53852 6.68002C8.5903 6.56391 8.58166 6.51235 8.45374 6.46364C7.52061 6.1084 6.58867 6.08667 5.65119 6.44567C5.54602 6.4859 5.5147 6.51883 5.56593 6.63377C5.93969 7.47224 6.305 8.31443 6.67437 9.15482C6.78428 9.40495 6.74165 9.55436 6.50944 9.69962C6.40169 9.76706 6.28613 9.81966 6.16285 9.85171C5.63398 9.98916 5.10663 9.99341 4.58405 9.82196C4.49949 9.79422 4.4168 9.7555 4.34034 9.7101C4.08441 9.5582 4.04044 9.4131 4.1582 9.14484C4.5019 8.36181 4.84504 7.57856 5.18821 6.79528C5.20644 6.75366 5.22293 6.71125 5.2538 6.63629C5.17661 6.67854 5.12703 6.70234 5.08096 6.73156C4.99783 6.78435 4.91829 6.84294 4.84135 6.72202C4.76562 6.60305 4.86226 6.56231 4.93653 6.5171C5.44408 6.20819 5.99255 6.01581 6.58609 5.95202C7.52636 5.851 8.38881 6.08544 9.20096 6.54207C9.282 6.58762 9.34817 6.62965 9.282 6.7353C9.21971 6.83476 9.14658 6.81281 9.06612 6.76417C9.01663 6.7343 8.96542 6.70716 8.87451 6.656ZM5.42633 6.89354C5.40498 6.91366 5.39415 6.91936 5.39031 6.92811C5.08456 7.62321 4.78047 8.31903 4.47288 9.01334C4.42675 9.11746 4.48345 9.11258 4.55623 9.11239C5.07392 9.11116 5.59164 9.11166 6.10936 9.1116C6.19767 9.1116 6.28598 9.1116 6.39798 9.1116C6.06857 8.35974 5.74878 7.62969 5.42633 6.89354ZM8.72182 6.89628C8.70038 6.9159 8.68444 6.92389 8.67894 6.93639C8.37624 7.62705 8.07532 8.31847 7.77136 9.00859C7.72978 9.10304 7.76875 9.11299 7.85084 9.11274C8.42141 9.11075 8.99199 9.1094 9.56251 9.11349C9.68627 9.11437 9.67562 9.07065 9.63617 8.9841C9.53201 8.75535 9.43535 8.52323 9.33459 8.293C9.13179 7.82961 8.92817 7.36657 8.72182 6.89628Z" fill="#F3FAF6"/>
<path fill-rule="evenodd" clip-rule="evenodd" d="M5.42633 6.89353C5.74882 7.62968 6.06857 8.3597 6.39795 9.11159C6.28595 9.11159 6.19764 9.11159 6.10933 9.11159C5.59164 9.11165 5.07392 9.11115 4.5562 9.11238C4.48342 9.11257 4.42672 9.11741 4.47285 9.01333C4.78043 8.31899 5.08453 7.6232 5.39028 6.9281C5.39412 6.91938 5.40495 6.91365 5.42633 6.89353Z" fill="#04A650"/>
<path fill-rule="evenodd" clip-rule="evenodd" d="M8.72182 6.89627C8.92817 7.36655 9.13176 7.8296 9.33458 8.29299C9.43535 8.52322 9.53201 8.75537 9.63617 8.98409C9.67559 9.07063 9.68623 9.11439 9.5625 9.11348C8.99199 9.10936 8.42141 9.11074 7.85083 9.11272C7.76875 9.11301 7.72977 9.10303 7.77135 9.00858C8.07532 8.31846 8.37624 7.62704 8.67894 6.93638C8.68443 6.92388 8.70038 6.91588 8.72182 6.89627Z" fill="#04A650"/>
<path d="M16.7117 7.9788V9.44664H16V5.449H17.4011C17.8237 5.449 18.1517 5.54722 18.3852 5.74368C18.6188 5.94013 18.7355 6.22554 18.7355 6.59992C18.7355 7.01877 18.6076 7.35422 18.3519 7.60628C18.0998 7.85462 17.7588 7.9788 17.3288 7.9788H16.7117ZM16.7117 7.42836H17.251C17.4993 7.42836 17.6865 7.36349 17.8126 7.23376C17.9423 7.10032 18.0072 6.90757 18.0072 6.65552C18.0072 6.21442 17.7736 5.99388 17.3066 5.99388H16.7117V7.42836Z" fill="#004D43"/>
<path d="M21.2446 8.08444H19.66C19.6637 8.36244 19.7267 8.57557 19.849 8.72384C19.9713 8.8684 20.14 8.94068 20.355 8.94068C20.6181 8.94068 20.8832 8.86654 21.15 8.71828L21.189 9.30208C20.9369 9.43922 20.6348 9.5078 20.2827 9.5078C19.3968 9.5078 18.9538 8.9833 18.9538 7.93432C18.9538 7.4228 19.0632 7.04472 19.2819 6.80008C19.5043 6.55173 19.7952 6.42756 20.1548 6.42756C20.8813 6.42756 21.2446 6.89089 21.2446 7.81756V8.08444ZM20.5885 7.65076C20.5885 7.1763 20.4402 6.93908 20.1437 6.93908C19.9843 6.93908 19.8638 7.0058 19.7823 7.13924C19.7044 7.27268 19.6655 7.44318 19.6655 7.65076H20.5885Z" fill="#004D43"/>
<path d="M23.4533 6.6722L23.4811 6.48316H24.1038V9.40216C24.1038 10.2621 23.7072 10.6921 22.914 10.6921C22.5174 10.6921 22.1708 10.6198 21.8743 10.4752L21.9799 9.8692C22.0948 9.93962 22.2338 9.99708 22.3969 10.0416C22.5637 10.0897 22.7175 10.1138 22.8584 10.1138C23.2402 10.1138 23.4311 9.86549 23.4311 9.3688V9.19088C23.2494 9.38733 23.0159 9.48556 22.7305 9.48556C22.408 9.48556 22.1504 9.36138 21.9577 9.11304C21.7686 8.86098 21.6741 8.48661 21.6741 7.98992C21.6741 7.71562 21.7093 7.46542 21.7797 7.23932C21.8539 7.01321 21.9762 6.82232 22.1467 6.66664C22.3209 6.50725 22.5322 6.42756 22.7806 6.42756C23.0289 6.42756 23.2531 6.5091 23.4533 6.6722ZM23.4088 8.70716V7.15592C23.2346 7.02989 23.0789 6.96688 22.9418 6.96688C22.5785 6.96688 22.3969 7.3116 22.3969 8.00104C22.3969 8.62376 22.573 8.93512 22.9251 8.93512C23.0956 8.93512 23.2569 8.85913 23.4088 8.70716Z" fill="#004D43"/>
<path d="M24.9984 7.07808L24.915 6.561C25.1819 6.47204 25.4877 6.42756 25.8324 6.42756C26.2402 6.42756 26.5293 6.52022 26.6998 6.70556C26.8703 6.88718 26.9555 7.22078 26.9555 7.70636V8.75164C26.9555 8.90732 27.0111 8.98516 27.1223 8.98516C27.1742 8.98516 27.2335 8.97218 27.3003 8.94624L27.3503 9.41328C27.2095 9.47258 27.0519 9.50224 26.8777 9.50224C26.6108 9.50224 26.4477 9.38918 26.3884 9.16308C26.1475 9.38918 25.8676 9.50224 25.5489 9.50224C25.2635 9.50224 25.0448 9.41513 24.8928 9.24092C24.7445 9.0667 24.6704 8.8443 24.6704 8.57372C24.6704 7.88798 25.0522 7.54512 25.8157 7.54512C25.9677 7.54512 26.1253 7.56365 26.2883 7.60072V7.47284C26.2883 7.12812 26.0937 6.95576 25.7045 6.95576C25.4933 6.95576 25.2579 6.99653 24.9984 7.07808ZM26.2883 8.72384V8.03996C26.1623 7.99548 26.0437 7.97324 25.9325 7.97324C25.5507 7.97324 25.3598 8.15301 25.3598 8.51256C25.3598 8.65712 25.3932 8.77202 25.4599 8.85728C25.5266 8.93882 25.6249 8.9796 25.7546 8.9796C25.9547 8.9796 26.1327 8.89434 26.2883 8.72384Z" fill="#004D43"/>
<path d="M29.3326 6.6166V5.449H30.0276V9.44664H29.4049L29.3827 9.18532C29.1788 9.3966 28.936 9.50224 28.6543 9.50224C28.3318 9.50224 28.0742 9.37436 27.8815 9.1186C27.6924 8.86284 27.5979 8.48661 27.5979 7.98992C27.5979 7.71562 27.635 7.46542 27.7091 7.23932C27.7832 7.0095 27.9074 6.81676 28.0816 6.66108C28.2558 6.5054 28.4708 6.42756 28.7266 6.42756C28.949 6.42756 29.151 6.49057 29.3326 6.6166ZM29.3382 8.7294V7.1448C29.164 7.01877 29.0101 6.95576 28.8767 6.95576C28.506 6.95576 28.3207 7.30418 28.3207 8.00104C28.3207 8.3124 28.367 8.54962 28.4597 8.71272C28.5524 8.87581 28.684 8.95736 28.8545 8.95736C29.025 8.95736 29.1862 8.88137 29.3382 8.7294Z" fill="#004D43"/>
<path d="M30.9222 7.07808L30.8388 6.561C31.1057 6.47204 31.4115 6.42756 31.7562 6.42756C32.1639 6.42756 32.4531 6.52022 32.6236 6.70556C32.7941 6.88718 32.8793 7.22078 32.8793 7.70636V8.75164C32.8793 8.90732 32.9349 8.98516 33.0461 8.98516C33.098 8.98516 33.1573 8.97218 33.2241 8.94624L33.2741 9.41328C33.1332 9.47258 32.9757 9.50224 32.8015 9.50224C32.5346 9.50224 32.3715 9.38918 32.3122 9.16308C32.0713 9.38918 31.7914 9.50224 31.4727 9.50224C31.1872 9.50224 30.9685 9.41513 30.8166 9.24092C30.6683 9.0667 30.5942 8.8443 30.5942 8.57372C30.5942 7.88798 30.976 7.54512 31.7395 7.54512C31.8915 7.54512 32.049 7.56365 32.2121 7.60072V7.47284C32.2121 7.12812 32.0175 6.95576 31.6283 6.95576C31.4171 6.95576 31.1817 6.99653 30.9222 7.07808ZM32.2121 8.72384V8.03996C32.0861 7.99548 31.9675 7.97324 31.8563 7.97324C31.4745 7.97324 31.2836 8.15301 31.2836 8.51256C31.2836 8.65712 31.317 8.77202 31.3837 8.85728C31.4504 8.93882 31.5486 8.9796 31.6784 8.9796C31.8785 8.9796 32.0565 8.89434 32.2121 8.72384Z" fill="#004D43"/>
<path d="M33.7261 6.48316H34.4211V9.44664H33.7261V6.48316ZM33.6705 5.71032C33.6705 5.58429 33.7076 5.48606 33.7817 5.41564C33.8558 5.34521 33.9522 5.31 34.0708 5.31C34.2006 5.31 34.3006 5.34521 34.3711 5.41564C34.4415 5.48236 34.4767 5.58058 34.4767 5.71032C34.4767 5.84005 34.4378 5.94013 34.3599 6.01056C34.2858 6.07728 34.1894 6.11064 34.0708 6.11064C33.9485 6.11064 33.8503 6.07542 33.7761 6.005C33.7057 5.93086 33.6705 5.83264 33.6705 5.71032Z" fill="#004D43"/>
<path d="M35.3148 7.07808L35.2314 6.561C35.4983 6.47204 35.8041 6.42756 36.1488 6.42756C36.5566 6.42756 36.8457 6.52022 37.0162 6.70556C37.1867 6.88718 37.272 7.22078 37.272 7.70636V8.75164C37.272 8.90732 37.3276 8.98516 37.4388 8.98516C37.4906 8.98516 37.55 8.97218 37.6167 8.94624L37.6667 9.41328C37.5259 9.47258 37.3683 9.50224 37.1941 9.50224C36.9272 9.50224 36.7641 9.38918 36.7048 9.16308C36.4639 9.38918 36.184 9.50224 35.8653 9.50224C35.5799 9.50224 35.3612 9.41513 35.2092 9.24092C35.0609 9.0667 34.9868 8.8443 34.9868 8.57372C34.9868 7.88798 35.3686 7.54512 36.1322 7.54512C36.2841 7.54512 36.4417 7.56365 36.6048 7.60072V7.47284C36.6048 7.12812 36.4102 6.95576 36.021 6.95576C35.8097 6.95576 35.5743 6.99653 35.3148 7.07808ZM36.6048 8.72384V8.03996C36.4787 7.99548 36.3601 7.97324 36.2489 7.97324C35.8671 7.97324 35.6762 8.15301 35.6762 8.51256C35.6762 8.65712 35.7096 8.77202 35.7763 8.85728C35.843 8.93882 35.9413 8.9796 36.071 8.9796C36.2712 8.9796 36.4491 8.89434 36.6048 8.72384Z" fill="#004D43"/>
<path d="M38.7526 6.48316L38.7748 6.77784C39.0417 6.54432 39.3345 6.42756 39.6533 6.42756C40.1314 6.42756 40.402 6.63328 40.465 7.04472C40.4799 7.13738 40.4873 7.26156 40.4873 7.41724V9.44664H39.7923V7.5062C39.7923 7.39129 39.7904 7.3153 39.7867 7.27824C39.7645 7.09661 39.6422 7.0058 39.4198 7.0058C39.227 7.0058 39.0269 7.09846 38.8193 7.2838V9.44664H38.1187V6.48316H38.7526Z" fill="#004D43"/>
<path d="M42.3109 9.16864L42.5444 8.54592C42.8966 8.79056 43.2357 8.91288 43.5619 8.91288C43.751 8.91288 43.9029 8.87025 44.0178 8.785C44.1365 8.69604 44.1958 8.55889 44.1958 8.37356C44.1958 8.1734 44.1327 8.02513 44.0067 7.92876C43.8844 7.83238 43.6842 7.74528 43.4062 7.66744C43.2876 7.63408 43.1875 7.60442 43.106 7.57848C43.0282 7.54882 42.9373 7.50434 42.8336 7.44504C42.7335 7.38202 42.6519 7.31345 42.5889 7.23932C42.5296 7.16518 42.4777 7.06696 42.4332 6.94464C42.3888 6.82232 42.3665 6.68517 42.3665 6.5332C42.3665 6.18477 42.487 5.90306 42.7279 5.68808C42.9726 5.47309 43.2858 5.3656 43.6676 5.3656C44.0568 5.3656 44.3514 5.45826 44.5516 5.6436C44.7555 5.82893 44.8889 6.05504 44.9519 6.32192L44.307 6.51096C44.2032 6.14029 43.9845 5.95496 43.6509 5.95496C43.4915 5.95496 43.3599 5.99758 43.2561 6.08284C43.1523 6.16809 43.1004 6.29412 43.1004 6.46092C43.1004 6.63884 43.1579 6.76857 43.2728 6.85012C43.3914 6.93166 43.5805 7.01136 43.8399 7.0892C44.1883 7.19298 44.4552 7.33384 44.6406 7.51176C44.8296 7.68968 44.9241 7.94729 44.9241 8.2846C44.9241 8.67009 44.7981 8.97404 44.546 9.19644C44.2977 9.41513 43.9678 9.52448 43.5564 9.52448C43.0634 9.52448 42.6482 9.40586 42.3109 9.16864Z" fill="#004D43"/>
<path d="M47.0842 6.48316L47.7625 6.55544C47.4549 7.66373 47.1417 8.5904 46.8229 9.33544C46.7265 9.56154 46.6413 9.74317 46.5671 9.88032C46.4967 10.0212 46.4078 10.1602 46.3003 10.2973C46.1928 10.4345 46.0704 10.5345 45.9333 10.5976C45.7999 10.6606 45.6479 10.6921 45.4774 10.6921C45.1623 10.6921 44.8713 10.6217 44.6045 10.4808L44.7824 9.90812C45.0381 10.0416 45.2494 10.1083 45.4162 10.1083C45.5756 10.1083 45.6998 10.0508 45.7887 9.93592C45.8814 9.82472 45.9815 9.62826 46.089 9.34656L45.0604 6.54988L45.7999 6.48316L46.2169 7.80088C46.3318 8.17525 46.417 8.4551 46.4726 8.64044C46.6246 8.19934 46.8285 7.48025 47.0842 6.48316Z" fill="#004D43"/>
<path d="M48.2809 7.07808L48.1975 6.561C48.4644 6.47204 48.7702 6.42756 49.1149 6.42756C49.5227 6.42756 49.8118 6.52022 49.9823 6.70556C50.1528 6.88718 50.238 7.22078 50.238 7.70636V8.75164C50.238 8.90732 50.2936 8.98516 50.4048 8.98516C50.4567 8.98516 50.516 8.97218 50.5828 8.94624L50.6328 9.41328C50.492 9.47258 50.3344 9.50224 50.1602 9.50224C49.8933 9.50224 49.7302 9.38918 49.6709 9.16308C49.43 9.38918 49.1501 9.50224 48.8314 9.50224C48.546 9.50224 48.3273 9.41513 48.1753 9.24092C48.027 9.0667 47.9529 8.8443 47.9529 8.57372C47.9529 7.88798 48.3347 7.54512 49.0982 7.54512C49.2502 7.54512 49.4078 7.56365 49.5708 7.60072V7.47284C49.5708 7.12812 49.3762 6.95576 48.987 6.95576C48.7758 6.95576 48.5404 6.99653 48.2809 7.07808ZM49.5708 8.72384V8.03996C49.4448 7.99548 49.3262 7.97324 49.215 7.97324C48.8332 7.97324 48.6423 8.15301 48.6423 8.51256C48.6423 8.65712 48.6757 8.77202 48.7424 8.85728C48.8091 8.93882 48.9074 8.9796 49.0371 8.9796C49.2372 8.9796 49.4152 8.89434 49.5708 8.72384Z" fill="#004D43"/>
<path d="M52.4192 6.42756C52.6231 6.42756 52.7954 6.52949 52.9363 6.73336L52.6249 7.23376C52.536 7.12256 52.4303 7.06696 52.308 7.06696C52.1227 7.06696 51.9485 7.15221 51.7854 7.32272V9.44664H51.0848V6.48316H51.7075L51.7353 6.79452C51.9429 6.54988 52.1709 6.42756 52.4192 6.42756Z" fill="#004D43"/>
<path d="M53.3164 6.48316H54.0114V9.44664H53.3164V6.48316ZM53.2608 5.71032C53.2608 5.58429 53.2979 5.48606 53.372 5.41564C53.4462 5.34521 53.5425 5.31 53.6611 5.31C53.7909 5.31 53.8909 5.34521 53.9614 5.41564C54.0318 5.48236 54.067 5.58058 54.067 5.71032C54.067 5.84005 54.0281 5.94013 53.9503 6.01056C53.8761 6.07728 53.7798 6.11064 53.6611 6.11064C53.5388 6.11064 53.4406 6.07542 53.3665 6.005C53.296 5.93086 53.2608 5.83264 53.2608 5.71032Z" fill="#004D43"/>
<path d="M54.9051 7.07808L54.8217 6.561C55.0886 6.47204 55.3944 6.42756 55.7391 6.42756C56.1469 6.42756 56.436 6.52022 56.6065 6.70556C56.777 6.88718 56.8623 7.22078 56.8623 7.70636V8.75164C56.8623 8.90732 56.9179 8.98516 57.0291 8.98516C57.081 8.98516 57.1403 8.97218 57.207 8.94624L57.257 9.41328C57.1162 9.47258 56.9586 9.50224 56.7844 9.50224C56.5175 9.50224 56.3545 9.38918 56.2951 9.16308C56.0542 9.38918 55.7744 9.50224 55.4556 9.50224C55.1702 9.50224 54.9515 9.41513 54.7995 9.24092C54.6512 9.0667 54.5771 8.8443 54.5771 8.57372C54.5771 7.88798 54.9589 7.54512 55.7225 7.54512C55.8744 7.54512 56.032 7.56365 56.1951 7.60072V7.47284C56.1951 7.12812 56.0005 6.95576 55.6113 6.95576C55.4 6.95576 55.1646 6.99653 54.9051 7.07808ZM56.1951 8.72384V8.03996C56.069 7.99548 55.9504 7.97324 55.8392 7.97324C55.4574 7.97324 55.2665 8.15301 55.2665 8.51256C55.2665 8.65712 55.2999 8.77202 55.3666 8.85728C55.4333 8.93882 55.5316 8.9796 55.6613 8.9796C55.8615 8.9796 56.0394 8.89434 56.1951 8.72384Z" fill="#004D43"/>
<path d="M59.2547 6.42756C59.5661 6.42756 59.7811 6.51096 59.8997 6.67776C60.0183 6.84085 60.0776 7.08734 60.0776 7.41724V9.44664H59.3826V7.5062C59.3826 7.31716 59.3567 7.18742 59.3048 7.117C59.2566 7.04286 59.1583 7.0058 59.0101 7.0058C58.8173 7.0058 58.6172 7.09846 58.4096 7.2838V9.44664H57.709V5.449H58.4096V6.74448C58.6691 6.5332 58.9508 6.42756 59.2547 6.42756Z" fill="#004D43"/>
<path d="M62 9.44664V5.449H63.2788C63.7792 5.449 64.1703 5.588 64.452 5.866C64.7337 6.144 64.8745 6.61289 64.8745 7.27268C64.8745 7.61369 64.843 7.91393 64.78 8.1734C64.7207 8.42916 64.6391 8.63673 64.5354 8.79612C64.4353 8.9555 64.3093 9.08524 64.1573 9.18532C64.0053 9.2854 63.8478 9.35397 63.6847 9.39104C63.5216 9.4281 63.3381 9.44664 63.1342 9.44664H62ZM62.7117 5.98832V8.90732H63.1787C63.5012 8.90732 63.7384 8.78685 63.8904 8.54592C64.0461 8.30498 64.1239 7.91022 64.1239 7.36164C64.1239 6.86865 64.0535 6.51652 63.9126 6.30524C63.7718 6.09396 63.5512 5.98832 63.251 5.98832H62.7117Z" fill="#BFD730"/>
<path d="M65.5166 6.48316H66.2116V9.44664H65.5166V6.48316ZM65.461 5.71032C65.461 5.58429 65.4981 5.48606 65.5722 5.41564C65.6463 5.34521 65.7427 5.31 65.8613 5.31C65.9911 5.31 66.0911 5.34521 66.1616 5.41564C66.232 5.48236 66.2672 5.58058 66.2672 5.71032C66.2672 5.84005 66.2283 5.94013 66.1505 6.01056C66.0763 6.07728 65.9799 6.11064 65.8613 6.11064C65.739 6.11064 65.6408 6.07542 65.5667 6.005C65.4962 5.93086 65.461 5.83264 65.461 5.71032Z" fill="#BFD730"/>
<path d="M68.5954 6.6722L68.6232 6.48316H69.2459V9.40216C69.2459 10.2621 68.8493 10.6921 68.0561 10.6921C67.6595 10.6921 67.3129 10.6198 67.0164 10.4752L67.122 9.8692C67.2369 9.93962 67.3759 9.99708 67.539 10.0416C67.7058 10.0897 67.8596 10.1138 68.0005 10.1138C68.3823 10.1138 68.5732 9.86549 68.5732 9.3688V9.19088C68.3916 9.38733 68.158 9.48556 67.8726 9.48556C67.5501 9.48556 67.2925 9.36138 67.0998 9.11304C66.9107 8.86098 66.8162 8.48661 66.8162 7.98992C66.8162 7.71562 66.8514 7.46542 66.9219 7.23932C66.996 7.01321 67.1183 6.82232 67.2888 6.66664C67.463 6.50725 67.6743 6.42756 67.9227 6.42756C68.171 6.42756 68.3953 6.5091 68.5954 6.6722ZM68.5509 8.70716V7.15592C68.3767 7.02989 68.221 6.96688 68.0839 6.96688C67.7206 6.96688 67.539 7.3116 67.539 8.00104C67.539 8.62376 67.7151 8.93512 68.0672 8.93512C68.2377 8.93512 68.399 8.85913 68.5509 8.70716Z" fill="#BFD730"/>
<path d="M70.0015 6.48316H70.6965V9.44664H70.0015V6.48316ZM69.9459 5.71032C69.9459 5.58429 69.983 5.48606 70.0571 5.41564C70.1313 5.34521 70.2276 5.31 70.3463 5.31C70.476 5.31 70.5761 5.34521 70.6465 5.41564C70.7169 5.48236 70.7521 5.58058 70.7521 5.71032C70.7521 5.84005 70.7132 5.94013 70.6354 6.01056C70.5612 6.07728 70.4649 6.11064 70.3463 6.11064C70.2239 6.11064 70.1257 6.07542 70.0516 6.005C69.9811 5.93086 69.9459 5.83264 69.9459 5.71032Z" fill="#BFD730"/>
<path d="M72.8691 6.98356H72.2019V8.50144C72.2019 8.5904 72.2056 8.66268 72.213 8.71828C72.2241 8.77388 72.25 8.82392 72.2908 8.8684C72.3353 8.91288 72.3965 8.93512 72.4743 8.93512C72.5744 8.93512 72.7004 8.8999 72.8524 8.82948L72.9302 9.36324C72.7264 9.45961 72.5077 9.5078 72.2741 9.5078C71.7589 9.5078 71.5013 9.23721 71.5013 8.69604V6.98356H71.1177V6.48316H71.5013V5.98832L72.2019 5.64916V6.48316H72.8691V6.98356Z" fill="#BFD730"/>
<path d="M73.5558 7.07808L73.4724 6.561C73.7393 6.47204 74.0451 6.42756 74.3898 6.42756C74.7975 6.42756 75.0867 6.52022 75.2572 6.70556C75.4277 6.88718 75.5129 7.22078 75.5129 7.70636V8.75164C75.5129 8.90732 75.5685 8.98516 75.6797 8.98516C75.7316 8.98516 75.7909 8.97218 75.8576 8.94624L75.9077 9.41328C75.7668 9.47258 75.6093 9.50224 75.4351 9.50224C75.1682 9.50224 75.0051 9.38918 74.9458 9.16308C74.7049 9.38918 74.425 9.50224 74.1062 9.50224C73.8208 9.50224 73.6021 9.41513 73.4502 9.24092C73.3019 9.0667 73.2278 8.8443 73.2278 8.57372C73.2278 7.88798 73.6096 7.54512 74.3731 7.54512C74.5251 7.54512 74.6826 7.56365 74.8457 7.60072V7.47284C74.8457 7.12812 74.6511 6.95576 74.2619 6.95576C74.0506 6.95576 73.8153 6.99653 73.5558 7.07808ZM74.8457 8.72384V8.03996C74.7197 7.99548 74.6011 7.97324 74.4899 7.97324C74.1081 7.97324 73.9172 8.15301 73.9172 8.51256C73.9172 8.65712 73.9506 8.77202 74.0173 8.85728C74.084 8.93882 74.1822 8.9796 74.312 8.9796C74.5121 8.9796 74.69 8.89434 74.8457 8.72384Z" fill="#BFD730"/>
<path d="M76.2776 8.65156V5.449H76.9726V8.55148C76.9726 8.68492 76.993 8.78129 77.0338 8.8406C77.0782 8.8999 77.1505 8.92956 77.2506 8.92956C77.3655 8.92956 77.4915 8.8962 77.6287 8.82948L77.7121 9.36324C77.5119 9.45961 77.2932 9.5078 77.056 9.5078C76.7669 9.5078 76.5649 9.43552 76.45 9.29096C76.3351 9.14269 76.2776 8.92956 76.2776 8.65156Z" fill="#BFD730"/>
</svg>
