<svg width="240" height="48" viewBox="0 0 240 48" fill="none" xmlns="http://www.w3.org/2000/svg">
<path d="M3.60206 10.72V14.416H1.81006V4.35H5.33806C6.40206 4.35 7.22806 4.59733 7.81606 5.092C8.40406 5.58667 8.69806 6.30533 8.69806 7.248C8.69806 8.30267 8.37606 9.14733 7.73206 9.782C7.09739 10.4073 6.23873 10.72 5.15606 10.72H3.60206ZM3.60206 9.334H4.96006C5.58539 9.334 6.05673 9.17067 6.37406 8.844C6.70073 8.508 6.86406 8.02267 6.86406 7.388C6.86406 6.27733 6.27606 5.722 5.10006 5.722H3.60206V9.334Z" fill="#004D43"/>
<path d="M14.9178 10.986H10.9278C10.9371 11.686 11.0958 12.2227 11.4038 12.596C11.7118 12.96 12.1364 13.142 12.6778 13.142C13.3404 13.142 14.0078 12.9553 14.6798 12.582L14.7778 14.052C14.1431 14.3973 13.3824 14.57 12.4958 14.57C10.2651 14.57 9.14978 13.2493 9.14978 10.608C9.14978 9.32 9.42511 8.368 9.97578 7.752C10.5358 7.12667 11.2684 6.814 12.1738 6.814C14.0031 6.814 14.9178 7.98067 14.9178 10.314V10.986ZM13.2658 9.894C13.2658 8.69933 12.8924 8.102 12.1458 8.102C11.7444 8.102 11.4411 8.27 11.2358 8.606C11.0398 8.942 10.9418 9.37133 10.9418 9.894H13.2658Z" fill="#004D43"/>
<path d="M20.3814 7.43L20.4514 6.954H22.0194V14.304C22.0194 16.4693 21.0207 17.552 19.0234 17.552C18.0247 17.552 17.1521 17.37 16.4054 17.006L16.6714 15.48C16.9607 15.6573 17.3107 15.802 17.7214 15.914C18.1414 16.0353 18.5287 16.096 18.8834 16.096C19.8447 16.096 20.3254 15.4707 20.3254 14.22V13.772C19.8681 14.2667 19.2801 14.514 18.5614 14.514C17.7494 14.514 17.1007 14.2013 16.6154 13.576C16.1394 12.9413 15.9014 11.9987 15.9014 10.748C15.9014 10.0573 15.9901 9.42733 16.1674 8.858C16.3541 8.28867 16.6621 7.808 17.0914 7.416C17.5301 7.01467 18.0621 6.814 18.6874 6.814C19.3127 6.814 19.8774 7.01933 20.3814 7.43ZM20.2694 12.554V8.648C19.8307 8.33067 19.4387 8.172 19.0934 8.172C18.1787 8.172 17.7214 9.04 17.7214 10.776C17.7214 12.344 18.1647 13.128 19.0514 13.128C19.4807 13.128 19.8867 12.9367 20.2694 12.554Z" fill="#004D43"/>
<path d="M24.174 8.452L23.964 7.15C24.636 6.926 25.406 6.814 26.274 6.814C27.3006 6.814 28.0286 7.04733 28.458 7.514C28.8873 7.97133 29.102 8.81133 29.102 10.034V12.666C29.102 13.058 29.242 13.254 29.522 13.254C29.6526 13.254 29.802 13.2213 29.97 13.156L30.096 14.332C29.7413 14.4813 29.3446 14.556 28.906 14.556C28.234 14.556 27.8233 14.2713 27.674 13.702C27.0673 14.2713 26.3626 14.556 25.56 14.556C24.8413 14.556 24.2906 14.3367 23.908 13.898C23.5346 13.4593 23.348 12.8993 23.348 12.218C23.348 10.4913 24.3093 9.628 26.232 9.628C26.6146 9.628 27.0113 9.67467 27.422 9.768V9.446C27.422 8.578 26.932 8.144 25.952 8.144C25.42 8.144 24.8273 8.24667 24.174 8.452ZM27.422 12.596V10.874C27.1046 10.762 26.806 10.706 26.526 10.706C25.5646 10.706 25.084 11.1587 25.084 12.064C25.084 12.428 25.168 12.7173 25.336 12.932C25.504 13.1373 25.7513 13.24 26.078 13.24C26.582 13.24 27.03 13.0253 27.422 12.596Z" fill="#004D43"/>
<path d="M34.9894 7.29V4.35H36.7394V14.416H35.1714L35.1154 13.758C34.6021 14.29 33.9907 14.556 33.2814 14.556C32.4694 14.556 31.8207 14.234 31.3354 13.59C30.8594 12.946 30.6214 11.9987 30.6214 10.748C30.6214 10.0573 30.7147 9.42733 30.9014 8.858C31.0881 8.27933 31.4007 7.794 31.8394 7.402C32.2781 7.01 32.8194 6.814 33.4634 6.814C34.0234 6.814 34.5321 6.97267 34.9894 7.29ZM35.0034 12.61V8.62C34.5647 8.30267 34.1774 8.144 33.8414 8.144C32.9081 8.144 32.4414 9.02133 32.4414 10.776C32.4414 11.56 32.5581 12.1573 32.7914 12.568C33.0247 12.9787 33.3561 13.184 33.7854 13.184C34.2147 13.184 34.6207 12.9927 35.0034 12.61Z" fill="#004D43"/>
<path d="M38.894 8.452L38.684 7.15C39.356 6.926 40.126 6.814 40.994 6.814C42.0206 6.814 42.7486 7.04733 43.178 7.514C43.6073 7.97133 43.822 8.81133 43.822 10.034V12.666C43.822 13.058 43.962 13.254 44.242 13.254C44.3726 13.254 44.522 13.2213 44.69 13.156L44.816 14.332C44.4613 14.4813 44.0646 14.556 43.626 14.556C42.954 14.556 42.5433 14.2713 42.394 13.702C41.7873 14.2713 41.0826 14.556 40.28 14.556C39.5613 14.556 39.0106 14.3367 38.628 13.898C38.2546 13.4593 38.068 12.8993 38.068 12.218C38.068 10.4913 39.0293 9.628 40.952 9.628C41.3346 9.628 41.7313 9.67467 42.142 9.768V9.446C42.142 8.578 41.652 8.144 40.672 8.144C40.14 8.144 39.5473 8.24667 38.894 8.452ZM42.142 12.596V10.874C41.8246 10.762 41.526 10.706 41.246 10.706C40.2846 10.706 39.804 11.1587 39.804 12.064C39.804 12.428 39.888 12.7173 40.056 12.932C40.224 13.1373 40.4713 13.24 40.798 13.24C41.302 13.24 41.75 13.0253 42.142 12.596Z" fill="#004D43"/>
<path d="M45.8561 6.954H47.6061V14.416H45.8561V6.954ZM45.7161 5.008C45.7161 4.69067 45.8095 4.44333 45.9961 4.266C46.1828 4.08867 46.4255 4 46.7241 4C47.0508 4 47.3028 4.08867 47.4801 4.266C47.6575 4.434 47.7461 4.68133 47.7461 5.008C47.7461 5.33467 47.6481 5.58667 47.4521 5.764C47.2655 5.932 47.0228 6.016 46.7241 6.016C46.4161 6.016 46.1688 5.92733 45.9821 5.75C45.8048 5.56333 45.7161 5.316 45.7161 5.008Z" fill="#004D43"/>
<path d="M49.7585 8.452L49.5485 7.15C50.2205 6.926 50.9905 6.814 51.8585 6.814C52.8852 6.814 53.6132 7.04733 54.0425 7.514C54.4719 7.97133 54.6865 8.81133 54.6865 10.034V12.666C54.6865 13.058 54.8265 13.254 55.1065 13.254C55.2372 13.254 55.3865 13.2213 55.5545 13.156L55.6805 14.332C55.3259 14.4813 54.9292 14.556 54.4905 14.556C53.8185 14.556 53.4079 14.2713 53.2585 13.702C52.6519 14.2713 51.9472 14.556 51.1445 14.556C50.4259 14.556 49.8752 14.3367 49.4925 13.898C49.1192 13.4593 48.9325 12.8993 48.9325 12.218C48.9325 10.4913 49.8939 9.628 51.8165 9.628C52.1992 9.628 52.5959 9.67467 53.0065 9.768V9.446C53.0065 8.578 52.5165 8.144 51.5365 8.144C51.0045 8.144 50.4119 8.24667 49.7585 8.452ZM53.0065 12.596V10.874C52.6892 10.762 52.3905 10.706 52.1105 10.706C51.1492 10.706 50.6685 11.1587 50.6685 12.064C50.6685 12.428 50.7525 12.7173 50.9205 12.932C51.0885 13.1373 51.3359 13.24 51.6625 13.24C52.1665 13.24 52.6145 13.0253 53.0065 12.596Z" fill="#004D43"/>
<path d="M58.3167 6.954L58.3727 7.696C59.0447 7.108 59.782 6.814 60.5847 6.814C61.7887 6.814 62.47 7.332 62.6287 8.368C62.666 8.60133 62.6847 8.914 62.6847 9.306V14.416H60.9347V9.53C60.9347 9.24067 60.93 9.04933 60.9207 8.956C60.8647 8.49867 60.5567 8.27 59.9967 8.27C59.5114 8.27 59.0074 8.50333 58.4847 8.97V14.416H56.7207V6.954H58.3167Z" fill="#004D43"/>
<path d="M1 38.144L1.858 35.44C2.82867 35.908 3.756 36.142 4.64 36.142C5.42 36.142 5.93133 35.908 6.174 35.44C6.434 34.972 6.564 34.218 6.564 33.178V20.022H9.892V33.256C9.892 35.2666 9.49333 36.74 8.696 37.676C7.916 38.5946 6.70267 39.054 5.056 39.054C3.46133 39.054 2.10933 38.7506 1 38.144Z" fill="#00AB4E"/>
<path d="M13.5361 27.64L13.1461 25.222C14.3941 24.806 15.8241 24.598 17.4361 24.598C19.3427 24.598 20.6947 25.0313 21.4921 25.898C22.2894 26.7473 22.6881 28.3073 22.6881 30.578V35.466C22.6881 36.194 22.9481 36.558 23.4681 36.558C23.7107 36.558 23.9881 36.4973 24.3001 36.376L24.5341 38.56C23.8754 38.8373 23.1387 38.976 22.3241 38.976C21.0761 38.976 20.3134 38.4473 20.0361 37.39C18.9094 38.4473 17.6007 38.976 16.1101 38.976C14.7754 38.976 13.7527 38.5686 13.0421 37.754C12.3487 36.9393 12.0021 35.8993 12.0021 34.634C12.0021 31.4273 13.7874 29.824 17.3581 29.824C18.0687 29.824 18.8054 29.9106 19.5681 30.084V29.486C19.5681 27.874 18.6581 27.068 16.8381 27.068C15.8501 27.068 14.7494 27.2586 13.5361 27.64ZM19.5681 35.336V32.138C18.9787 31.93 18.4241 31.826 17.9041 31.826C16.1187 31.826 15.2261 32.6666 15.2261 34.348C15.2261 35.024 15.3821 35.5613 15.6941 35.96C16.0061 36.3413 16.4654 36.532 17.0721 36.532C18.0081 36.532 18.8401 36.1333 19.5681 35.336Z" fill="#00AB4E"/>
<path d="M25.4518 37.65L26.3358 35.076C27.6358 36.0293 28.9444 36.506 30.2618 36.506C31.4751 36.506 32.0818 35.986 32.0818 34.946C32.0818 34.4606 31.8911 34.0966 31.5098 33.854C31.1458 33.594 30.5824 33.3426 29.8198 33.1C29.3518 32.944 29.0311 32.84 28.8578 32.788C28.7018 32.736 28.4158 32.6233 27.9998 32.45C27.6011 32.2766 27.3064 32.1033 27.1158 31.93C26.9424 31.7566 26.7344 31.5313 26.4918 31.254C26.2491 30.9766 26.0758 30.6473 25.9718 30.266C25.8851 29.8846 25.8418 29.46 25.8418 28.992C25.8418 27.64 26.2924 26.574 27.1938 25.794C28.1124 24.9966 29.3171 24.598 30.8078 24.598C33.3904 24.598 34.9678 25.664 35.5398 27.796L33.0698 28.758C32.6364 27.5966 31.8738 27.016 30.7818 27.016C30.2791 27.016 29.8458 27.146 29.4818 27.406C29.1351 27.6486 28.9618 28.0213 28.9618 28.524C28.9618 28.836 29.0224 29.1046 29.1438 29.33C29.2824 29.538 29.4991 29.7286 29.7938 29.902C30.0884 30.0753 30.3484 30.2053 30.5738 30.292C30.8164 30.3786 31.1718 30.4913 31.6398 30.63C32.1771 30.8033 32.6278 30.968 32.9918 31.124C33.3558 31.28 33.7371 31.514 34.1358 31.826C34.5344 32.1206 34.8378 32.5106 35.0458 32.996C35.2538 33.464 35.3578 34.0186 35.3578 34.66C35.3578 36.012 34.8984 37.078 33.9798 37.858C33.0611 38.638 31.8218 39.028 30.2618 39.028C29.3258 39.028 28.3984 38.8806 27.4798 38.586C26.5784 38.2913 25.9024 37.9793 25.4518 37.65Z" fill="#00AB4E"/>
<path d="M38.5869 27.64L38.1969 25.222C39.4449 24.806 40.8749 24.598 42.4869 24.598C44.3935 24.598 45.7455 25.0313 46.5429 25.898C47.3402 26.7473 47.7389 28.3073 47.7389 30.578V35.466C47.7389 36.194 47.9989 36.558 48.5189 36.558C48.7615 36.558 49.0389 36.4973 49.3509 36.376L49.5849 38.56C48.9262 38.8373 48.1895 38.976 47.3749 38.976C46.1269 38.976 45.3642 38.4473 45.0869 37.39C43.9602 38.4473 42.6515 38.976 41.1609 38.976C39.8262 38.976 38.8035 38.5686 38.0929 37.754C37.3995 36.9393 37.0529 35.8993 37.0529 34.634C37.0529 31.4273 38.8382 29.824 42.4089 29.824C43.1195 29.824 43.8562 29.9106 44.6189 30.084V29.486C44.6189 27.874 43.7089 27.068 41.8889 27.068C40.9009 27.068 39.8002 27.2586 38.5869 27.64ZM44.6189 35.336V32.138C44.0295 31.93 43.4749 31.826 42.9549 31.826C41.1695 31.826 40.2769 32.6666 40.2769 34.348C40.2769 35.024 40.4329 35.5613 40.7449 35.96C41.0569 36.3413 41.5162 36.532 42.1229 36.532C43.0589 36.532 43.8909 36.1333 44.6189 35.336Z" fill="#00AB4E"/>
<path d="M52.947 26.233V25.055H62.751V26.233H58.495V38.716H57.184V26.233H52.947Z" fill="#00AB4E"/>
<path d="M64.6681 28.684H65.9221V38.716H64.6681V28.684ZM64.4591 26.1C64.4591 25.834 64.5351 25.6313 64.6871 25.492C64.8391 25.34 65.0354 25.264 65.2761 25.264C65.8334 25.264 66.1121 25.549 66.1121 26.119C66.1121 26.3977 66.0361 26.6193 65.8841 26.784C65.7321 26.936 65.5294 27.012 65.2761 27.012C65.0354 27.012 64.8391 26.9297 64.6871 26.765C64.5351 26.6003 64.4591 26.3787 64.4591 26.1Z" fill="#00AB4E"/>
<path d="M73.1474 29.71H70.5254V35.904C70.5254 36.3473 70.5381 36.6893 70.5634 36.93C70.6014 37.158 70.7028 37.367 70.8674 37.557C71.0321 37.747 71.2791 37.842 71.6084 37.842C71.9758 37.842 72.4508 37.7027 73.0334 37.424L73.1664 38.488C72.5584 38.792 71.9631 38.944 71.3804 38.944C69.9744 38.944 69.2714 38.1143 69.2714 36.455V29.71H67.9794V28.684H69.2714V27.05L70.5254 26.328V28.684H73.1474V29.71Z" fill="#00AB4E"/>
<path d="M75.3556 28.684H76.6096V38.716H75.3556V28.684ZM75.1466 26.1C75.1466 25.834 75.2226 25.6313 75.3746 25.492C75.5266 25.34 75.7229 25.264 75.9636 25.264C76.5209 25.264 76.7996 25.549 76.7996 26.119C76.7996 26.3977 76.7236 26.6193 76.5716 26.784C76.4196 26.936 76.2169 27.012 75.9636 27.012C75.7229 27.012 75.5266 26.9297 75.3746 26.765C75.2226 26.6003 75.1466 26.3787 75.1466 26.1Z" fill="#00AB4E"/>
<path d="M79.8829 28.684H81.1369V29.767C82.3656 28.9057 83.3726 28.475 84.1579 28.475C85.0953 28.475 85.8299 28.8487 86.3619 29.596C86.9066 30.3307 87.1789 31.4263 87.1789 32.883C87.1789 36.8983 85.8933 38.906 83.3219 38.906C82.5366 38.906 81.8146 38.697 81.1559 38.279V42.687H79.8829V28.684ZM81.1369 30.831V36.987C81.8209 37.519 82.5873 37.785 83.4359 37.785C84.0186 37.785 84.4936 37.5507 84.8609 37.082C85.2283 36.6133 85.4753 36.0687 85.6019 35.448C85.7286 34.8273 85.7919 34.137 85.7919 33.377C85.7919 31.9837 85.6209 31.021 85.2789 30.489C84.9496 29.9443 84.4683 29.672 83.8349 29.672C83.1383 29.672 82.2389 30.0583 81.1369 30.831Z" fill="#00AB4E"/>
<path d="M90.0554 29.938L89.9224 28.817C90.7457 28.589 91.702 28.475 92.7914 28.475C94.894 28.475 95.9454 29.5137 95.9454 31.591V36.968C95.9454 37.272 95.996 37.4873 96.0974 37.614C96.2114 37.7407 96.395 37.804 96.6484 37.804C96.851 37.804 97.1234 37.7407 97.4654 37.614L97.5794 38.659C97.06 38.8237 96.642 38.906 96.3254 38.906C95.882 38.906 95.5274 38.792 95.2614 38.564C94.9954 38.3233 94.8434 38.032 94.8054 37.69C93.8934 38.5007 92.9307 38.906 91.9174 38.906C90.9927 38.906 90.2897 38.6147 89.8084 38.032C89.327 37.4493 89.0864 36.7083 89.0864 35.809C89.0864 34.631 89.422 33.7633 90.0934 33.206C90.7774 32.636 91.7274 32.351 92.9434 32.351C93.5514 32.351 94.134 32.4143 94.6914 32.541V31.819C94.6914 31.0337 94.5204 30.4637 94.1784 30.109C93.8364 29.7543 93.241 29.577 92.3924 29.577C91.5944 29.577 90.8154 29.6973 90.0554 29.938ZM94.6914 36.683L94.7104 33.529C94.153 33.3897 93.6337 33.32 93.1524 33.32C92.2404 33.32 91.5564 33.51 91.1004 33.89C90.657 34.27 90.4354 34.897 90.4354 35.771C90.4354 36.3537 90.581 36.835 90.8724 37.215C91.1764 37.595 91.6197 37.785 92.2024 37.785C93.0764 37.785 93.906 37.4177 94.6914 36.683Z" fill="#00AB4E"/>
<path d="M104.092 28.475C105.6 28.475 106.48 29.1337 106.733 30.451C106.771 30.6663 106.79 31.078 106.79 31.686V38.716H105.536V31.857C105.536 31.4137 105.517 31.0717 105.479 30.831C105.327 30.033 104.745 29.634 103.731 29.634C102.807 29.634 101.831 30.1217 100.805 31.097V38.716H99.5323V28.684H100.805V29.938C101.882 28.9627 102.978 28.475 104.092 28.475Z" fill="#00AB4E"/>
<path d="M112.543 38.716V25.055H119.877V26.233H113.854V31.021H119.098V32.199H113.854V37.519H120.124V38.716H112.543Z" fill="#00AB4E"/>
<path d="M126.987 28.475C128.165 28.475 128.937 28.9183 129.305 29.805C130.331 28.9183 131.376 28.475 132.44 28.475C133.96 28.475 134.834 29.1337 135.062 30.451C135.112 30.7423 135.138 31.154 135.138 31.686V38.716H133.884V31.857C133.884 31.3883 133.858 31.0463 133.808 30.831C133.656 30.033 133.105 29.634 132.155 29.634C131.281 29.634 130.4 30.052 129.514 30.888C129.539 31.0907 129.552 31.4263 129.552 31.895V38.716H128.298V31.857C128.298 31.3883 128.272 31.0463 128.222 30.831C128.095 30.033 127.595 29.634 126.721 29.634C125.669 29.634 124.662 30.128 123.7 31.116V38.716H122.427V28.684H123.7V29.919C124.802 28.9563 125.897 28.475 126.987 28.475Z" fill="#00AB4E"/>
<path d="M138.592 29.938L138.459 28.817C139.283 28.589 140.239 28.475 141.328 28.475C143.431 28.475 144.482 29.5137 144.482 31.591V36.968C144.482 37.272 144.533 37.4873 144.634 37.614C144.748 37.7407 144.932 37.804 145.185 37.804C145.388 37.804 145.66 37.7407 146.002 37.614L146.116 38.659C145.597 38.8237 145.179 38.906 144.862 38.906C144.419 38.906 144.064 38.792 143.798 38.564C143.532 38.3233 143.38 38.032 143.342 37.69C142.43 38.5007 141.468 38.906 140.454 38.906C139.53 38.906 138.827 38.6147 138.345 38.032C137.864 37.4493 137.623 36.7083 137.623 35.809C137.623 34.631 137.959 33.7633 138.63 33.206C139.314 32.636 140.264 32.351 141.48 32.351C142.088 32.351 142.671 32.4143 143.228 32.541V31.819C143.228 31.0337 143.057 30.4637 142.715 30.109C142.373 29.7543 141.778 29.577 140.929 29.577C140.131 29.577 139.352 29.6973 138.592 29.938ZM143.228 36.683L143.247 33.529C142.69 33.3897 142.171 33.32 141.689 33.32C140.777 33.32 140.093 33.51 139.637 33.89C139.194 34.27 138.972 34.897 138.972 35.771C138.972 36.3537 139.118 36.835 139.409 37.215C139.713 37.595 140.157 37.785 140.739 37.785C141.613 37.785 142.443 37.4177 143.228 36.683Z" fill="#00AB4E"/>
<path d="M147.195 37.88L147.537 36.702C147.816 36.9553 148.221 37.2087 148.753 37.462C149.285 37.7153 149.792 37.842 150.273 37.842C150.894 37.842 151.394 37.7027 151.774 37.424C152.154 37.1453 152.344 36.74 152.344 36.208C152.344 35.714 152.173 35.3213 151.831 35.03C151.489 34.7387 151.071 34.517 150.577 34.365C150.083 34.213 149.589 34.0483 149.095 33.871C148.614 33.6937 148.202 33.3897 147.86 32.959C147.518 32.5283 147.347 31.9647 147.347 31.268C147.347 30.4067 147.658 29.729 148.278 29.235C148.899 28.7283 149.659 28.475 150.558 28.475C151.483 28.475 152.205 28.7093 152.724 29.178C153.256 29.634 153.579 30.1723 153.693 30.793L152.667 31.211C152.515 30.679 152.249 30.28 151.869 30.014C151.489 29.7353 151.046 29.596 150.539 29.596C150.007 29.596 149.558 29.729 149.19 29.995C148.823 30.261 148.639 30.6663 148.639 31.211C148.639 31.705 148.81 32.104 149.152 32.408C149.494 32.6993 149.906 32.921 150.387 33.073C150.881 33.225 151.375 33.3897 151.869 33.567C152.363 33.7317 152.781 34.0167 153.123 34.422C153.465 34.8273 153.636 35.353 153.636 35.999C153.636 36.8603 153.339 37.5697 152.743 38.127C152.161 38.6717 151.331 38.944 150.254 38.944C149.646 38.944 149.045 38.83 148.449 38.602C147.867 38.3613 147.449 38.1207 147.195 37.88Z" fill="#00AB4E"/>
<path d="M158.543 25.055H166.181V26.233H159.854V31.021H165.155V32.199H159.854V38.716H158.543V25.055Z" fill="#00AB4E"/>
<path d="M168.093 28.684H169.347V38.716H168.093V28.684ZM167.884 26.1C167.884 25.834 167.96 25.6313 168.112 25.492C168.264 25.34 168.46 25.264 168.701 25.264C169.258 25.264 169.537 25.549 169.537 26.119C169.537 26.3977 169.461 26.6193 169.309 26.784C169.157 26.936 168.954 27.012 168.701 27.012C168.46 27.012 168.264 26.9297 168.112 26.765C167.96 26.6003 167.884 26.3787 167.884 26.1Z" fill="#00AB4E"/>
<path d="M171.746 37.88L172.088 36.702C172.367 36.9553 172.772 37.2087 173.304 37.462C173.836 37.7153 174.343 37.842 174.824 37.842C175.445 37.842 175.945 37.7027 176.325 37.424C176.705 37.1453 176.895 36.74 176.895 36.208C176.895 35.714 176.724 35.3213 176.382 35.03C176.04 34.7387 175.622 34.517 175.128 34.365C174.634 34.213 174.14 34.0483 173.646 33.871C173.165 33.6937 172.753 33.3897 172.411 32.959C172.069 32.5283 171.898 31.9647 171.898 31.268C171.898 30.4067 172.209 29.729 172.829 29.235C173.45 28.7283 174.21 28.475 175.109 28.475C176.034 28.475 176.756 28.7093 177.275 29.178C177.807 29.634 178.13 30.1723 178.244 30.793L177.218 31.211C177.066 30.679 176.8 30.28 176.42 30.014C176.04 29.7353 175.597 29.596 175.09 29.596C174.558 29.596 174.109 29.729 173.741 29.995C173.374 30.261 173.19 30.6663 173.19 31.211C173.19 31.705 173.361 32.104 173.703 32.408C174.045 32.6993 174.457 32.921 174.938 33.073C175.432 33.225 175.926 33.3897 176.42 33.567C176.914 33.7317 177.332 34.0167 177.674 34.422C178.016 34.8273 178.187 35.353 178.187 35.999C178.187 36.8603 177.89 37.5697 177.294 38.127C176.712 38.6717 175.882 38.944 174.805 38.944C174.197 38.944 173.596 38.83 173 38.602C172.418 38.3613 172 38.1207 171.746 37.88Z" fill="#00AB4E"/>
<path d="M180.729 28.684H181.983V38.716H180.729V28.684ZM180.52 26.1C180.52 25.834 180.596 25.6313 180.748 25.492C180.9 25.34 181.096 25.264 181.337 25.264C181.894 25.264 182.173 25.549 182.173 26.119C182.173 26.3977 182.097 26.6193 181.945 26.784C181.793 26.936 181.59 27.012 181.337 27.012C181.096 27.012 180.9 26.9297 180.748 26.765C180.596 26.6003 180.52 26.3787 180.52 26.1Z" fill="#00AB4E"/>
<path d="M192.058 28.817L189.303 32.959L192.533 38.716H191.089L188.258 33.719H186.529V38.716H185.256V25.055H186.529V32.56H188.258L190.804 28.684L192.058 28.817Z" fill="#00AB4E"/>
</svg>
