<svg width="56" height="9" viewBox="0 0 56 9" fill="none" xmlns="http://www.w3.org/2000/svg">
<path fill-rule="evenodd" clip-rule="evenodd" d="M6.59678 7.15166C6.076 7.60861 5.46514 7.88371 4.79041 8.00481C2.72392 8.37624 0.767332 7.15032 0.196921 5.13827C0.140372 4.93844 0.0995237 4.73554 0.0777025 4.52891C0.0467005 4.46736 0.0900767 4.39516 0.050293 4.33467C0.050293 4.15349 0.050293 3.97231 0.050293 3.79113C0.08369 3.73944 0.0590747 3.68202 0.0667919 3.62753C0.0800975 2.88921 0.375216 2.25188 0.79381 1.66823C1.37979 0.851179 2.18331 0.351063 3.15289 0.110197C3.30817 0.0715627 3.46784 0.0665003 3.62724 0.0666335C3.6907 0.0583737 3.75723 0.084885 3.81844 0.0502472C3.98875 0.0502472 4.15906 0.0502472 4.32937 0.0502472C4.38166 0.083686 4.43954 0.0590399 4.49436 0.0667667C5.2746 0.0888816 5.93749 0.412345 6.54875 0.868098C6.58308 0.893677 6.60995 0.927116 6.61541 0.972811C6.60237 1.07899 6.51681 1.13468 6.44896 1.19822C5.77237 1.82996 5.37799 2.61078 5.25598 3.52242C5.13117 4.45457 5.30733 5.33251 5.80363 6.13824C5.9774 6.42053 6.18338 6.67685 6.4258 6.90386C6.49127 6.96515 6.56245 7.0231 6.60583 7.10503C6.61195 7.12235 6.60876 7.13794 6.59678 7.15166Z" fill="#BCD430"/>
<path fill-rule="evenodd" clip-rule="evenodd" d="M6.5968 7.15166C6.59494 7.1418 6.59374 7.13194 6.59308 7.12195C6.81222 6.92078 7.01833 6.70749 7.19902 6.47049C7.66285 5.86247 7.92324 5.1785 7.99615 4.41501C8.06548 3.68948 7.93322 3.00418 7.62732 2.35166C7.40858 1.88512 7.10907 1.47226 6.71948 1.12988C6.67171 1.08792 6.61676 1.05141 6.6141 0.97814C6.62874 0.895009 6.69966 0.858107 6.757 0.815342C7.21458 0.475226 7.71966 0.234893 8.27677 0.109664C8.42686 0.0758259 8.58107 0.0694312 8.73488 0.0667667C8.79888 0.0583737 8.86594 0.084885 8.92781 0.0502472C9.08748 0.0502472 9.24715 0.0502472 9.40681 0.0502472C9.46829 0.0898142 9.54093 0.0470499 9.60374 0.0772913C10.4238 0.162287 11.1483 0.469231 11.7718 1.01145C11.7831 1.09498 11.7189 1.13508 11.6696 1.17984C11.2256 1.58403 10.8804 2.0595 10.6685 2.62157C10.133 4.04105 10.3305 5.35862 11.2402 6.57068C11.3525 6.72028 11.4843 6.85151 11.6153 6.9842C11.6616 7.03109 11.7285 7.07039 11.7137 7.15459C11.2394 7.57824 10.6803 7.84042 10.0662 7.97284C8.83933 8.23729 7.7202 7.9843 6.71749 7.22506C6.67983 7.19629 6.64763 7.15845 6.5968 7.15166Z" fill="#74BD45"/>
<path fill-rule="evenodd" clip-rule="evenodd" d="M30.416 8.60257C30.5154 8.61929 30.6146 8.63599 30.7063 8.68304L30.7382 8.68291C30.8021 8.6568 30.8659 8.6568 30.9298 8.68291H31.4727C31.4861 8.6477 31.5133 8.64852 31.5398 8.64932C31.5498 8.64962 31.5597 8.64991 31.5687 8.64827C32.1925 8.5349 32.5859 8.17427 32.7382 7.55612C32.7814 7.38013 32.8113 7.20081 32.8116 7.01936C32.8128 6.41043 32.8134 5.80153 32.814 5.19263C32.8148 4.40609 32.8156 3.61956 32.8177 2.83299C32.818 2.70643 32.7656 2.66326 32.645 2.66646C32.4484 2.67152 32.2513 2.67126 32.0547 2.66646C31.9378 2.66366 31.8364 2.67019 31.845 2.84031L31.7426 2.78516C30.9632 2.36498 30.0991 2.60704 29.7073 3.39972C29.2569 4.31095 29.2472 5.2611 29.6297 6.19765C29.8685 6.78223 30.3758 7.0588 31.0068 7.03002C31.2953 7.01696 31.5509 6.91345 31.8133 6.74413C31.8125 6.76001 31.8117 6.77566 31.8109 6.79109C31.8033 6.94492 31.7967 7.07717 31.7669 7.20854C31.6744 7.61646 31.4453 7.79458 31.0263 7.773C30.6605 7.75422 30.3147 7.6579 29.9895 7.48884C29.8262 7.40411 29.7797 7.42676 29.7463 7.61047C29.7358 7.66791 29.7261 7.72554 29.7164 7.78318C29.6944 7.91445 29.6723 8.04575 29.6409 8.1748C29.6115 8.29497 29.6545 8.35292 29.7573 8.39728C29.9089 8.46269 30.0649 8.51225 30.2222 8.56101C30.2854 8.5806 30.3507 8.59159 30.416 8.60257ZM31.7896 5.03866C31.7899 4.95315 31.7901 4.86764 31.7901 4.78215C31.7901 4.70369 31.7902 4.62522 31.7902 4.54676C31.7903 4.31136 31.7905 4.07598 31.7895 3.84067C31.7895 3.83212 31.7898 3.82357 31.7901 3.81507C31.7917 3.76814 31.7933 3.72242 31.7405 3.68453C31.3195 3.38278 30.7398 3.30245 30.5415 4.03504C30.4302 4.44696 30.4268 4.86501 30.4688 5.28506C30.4862 5.45998 30.5268 5.63051 30.6062 5.78944C30.7655 6.10798 31.0398 6.22055 31.3758 6.10584C31.493 6.06574 31.5931 5.99793 31.6909 5.9236C31.7649 5.86738 31.7943 5.80263 31.7924 5.70751C31.7881 5.4846 31.7888 5.26161 31.7896 5.03866Z" fill="#044E45"/>
<path fill-rule="evenodd" clip-rule="evenodd" d="M3.62256 0.0774171C3.62495 0.0684913 3.62628 0.0594321 3.62695 0.0502398C3.69082 0.0502398 3.75468 0.0502398 3.81855 0.0502398C3.75907 0.102596 3.68935 0.0799484 3.62256 0.0774171Z" fill="#D9E68B"/>
<path fill-rule="evenodd" clip-rule="evenodd" d="M8.73315 0.0778347C8.73542 0.0687756 8.73648 0.0595833 8.73621 0.0502577C8.80008 0.0502577 8.86395 0.0502577 8.92782 0.0502577C8.86847 0.0987506 8.79968 0.0806324 8.73315 0.0778347Z" fill="#BDDFA8"/>
<path fill-rule="evenodd" clip-rule="evenodd" d="M9.60372 0.0773006C9.5364 0.0804979 9.46641 0.103945 9.4068 0.0502565C9.47067 0.0502565 9.53453 0.0502565 9.5984 0.0502565C9.5992 0.0594488 9.60106 0.0683747 9.60372 0.0773006Z" fill="#A7D58A"/>
<path fill-rule="evenodd" clip-rule="evenodd" d="M0.0502968 4.33467C0.0977978 4.39395 0.0797022 4.46256 0.0778394 4.52891C0.0686585 4.52891 0.0594776 4.52811 0.0502968 4.52651C0.0502968 4.46256 0.0502968 4.39862 0.0502968 4.33467Z" fill="#E5EEB1"/>
<path fill-rule="evenodd" clip-rule="evenodd" d="M30.7383 8.68305C30.8022 8.62057 30.8661 8.64868 30.9299 8.68305C30.8659 8.68305 30.8021 8.68305 30.7383 8.68305Z" fill="#709A95"/>
<path fill-rule="evenodd" clip-rule="evenodd" d="M4.48907 0.0502466C4.49001 0.0590393 4.4912 0.0678319 4.4928 0.0766246C4.43625 0.0806213 4.37757 0.0979401 4.32941 0.0502466C4.38263 0.0502466 4.43585 0.0502466 4.48907 0.0502466Z" fill="#E0EBA0"/>
<path fill-rule="evenodd" clip-rule="evenodd" d="M0.0503103 3.63126C0.0584267 3.627 0.0669423 3.62554 0.0759901 3.627C0.0807801 3.68375 0.0980774 3.74264 0.0503103 3.79113C0.0503103 3.73784 0.0503103 3.68455 0.0503103 3.63126Z" fill="#DFEBA0"/>
<path fill-rule="evenodd" clip-rule="evenodd" d="M11.7137 7.15432C11.4546 6.87362 11.1809 6.60624 10.9766 6.27825C10.6338 5.72804 10.4214 5.13747 10.36 4.48814C10.2561 3.38919 10.5649 2.41893 11.2452 1.56298C11.4027 1.36475 11.5953 1.19436 11.7718 1.01117C12.1255 0.75632 12.4885 0.520118 12.899 0.36105C15.2896 -0.565644 17.9432 0.980933 18.311 3.51868C18.6269 5.69886 17.1211 7.75142 14.9587 8.06769C13.7959 8.23768 12.7449 7.95418 11.8209 7.21893C11.7881 7.19295 11.7601 7.15818 11.7137 7.15432Z" fill="#0AA94E"/>
<path fill-rule="evenodd" clip-rule="evenodd" d="M21.2658 3.34003C21.2658 3.59103 21.2658 3.84202 21.2658 4.09301C21.2658 4.35979 21.2658 4.62657 21.2658 4.89335C21.2657 5.51581 21.2656 6.13826 21.266 6.76065C21.2661 6.95049 21.2865 6.96994 21.4775 6.97087C21.6848 6.97181 21.8923 6.97141 22.0997 6.97101C22.3168 6.97047 22.3304 6.95648 22.3305 6.73161C22.3306 6.59328 22.3308 6.45496 22.3309 6.31665C22.3315 5.8799 22.3321 5.44321 22.328 5.00651C22.3271 4.90007 22.3584 4.87289 22.4609 4.87582C22.7011 4.88261 22.9417 4.88016 23.1821 4.87771L23.2107 4.87742C24.3196 4.86623 25.0385 4.22117 25.1698 3.12128C25.2591 2.37284 24.9505 1.74443 24.3471 1.44934C24.0358 1.29694 23.7029 1.23619 23.3595 1.23419C22.9005 1.23134 22.4415 1.23175 21.9825 1.23217C21.8193 1.23231 21.6561 1.23246 21.493 1.23246C21.281 1.23246 21.2661 1.24658 21.266 1.45734C21.2657 2.08492 21.2657 2.7125 21.2658 3.34003ZM22.4559 2.11679C22.3423 2.11279 22.3271 2.15915 22.3289 2.2552C22.3341 2.52138 22.3321 3.60767 22.33 3.88438C22.3293 3.95152 22.3352 3.99389 22.4217 3.99175C22.533 3.98902 22.6445 3.98936 22.756 3.98971C22.9319 3.99026 23.1077 3.99081 23.2827 3.97923C23.7187 3.95019 23.9916 3.68654 24.07 3.2553C24.0931 3.12834 24.0991 3.00138 24.0929 2.87375C24.07 2.41254 23.8258 2.15542 23.3649 2.13037C23.1981 2.12134 23.0309 2.12142 22.8637 2.1215C22.7277 2.12156 22.5917 2.12163 22.4559 2.11679Z" fill="#044E45"/>
<path fill-rule="evenodd" clip-rule="evenodd" d="M39.5538 7.02989C39.8065 6.99126 40.0263 6.88281 40.2364 6.73813C40.255 6.85465 40.2642 6.91283 40.2983 6.94189C40.3324 6.97087 40.3911 6.97087 40.5083 6.97087C40.5464 6.9709 40.5845 6.97096 40.6226 6.97101C40.7496 6.97118 40.8765 6.97135 41.0033 6.97074C41.1997 6.96967 41.2145 6.95542 41.2147 6.76425C41.2151 6.5032 41.215 6.24209 41.2149 5.98096C41.2149 5.86908 41.2149 5.7572 41.2149 5.64531C41.2149 5.29529 41.2149 4.94526 41.2149 4.59524C41.2149 3.54389 41.2149 2.49253 41.2147 1.44109C41.2147 1.24258 41.2045 1.23273 41.0065 1.23233C40.9403 1.23216 40.8741 1.23288 40.8079 1.2336C40.6664 1.23515 40.525 1.2367 40.3839 1.22953C40.2304 1.2218 40.1765 1.27656 40.1793 1.43083C40.1837 1.6751 40.1832 1.91941 40.1826 2.16374C40.1822 2.32971 40.1818 2.49569 40.183 2.66167C40.1837 2.75492 40.1746 2.7829 40.0707 2.73854C39.22 2.37564 38.4343 2.68165 38.0434 3.52068C37.872 3.88851 37.7949 4.27872 37.7783 4.68012C37.7549 5.24471 37.8082 5.79892 38.0837 6.30716C38.3865 6.86629 38.9286 7.12568 39.5538 7.02989ZM40.1875 5.05857C40.1878 4.96887 40.1881 4.87918 40.1881 4.7895L40.1882 3.81565C40.1882 3.81042 40.1883 3.80521 40.1883 3.80004C40.1888 3.75386 40.1893 3.71043 40.1404 3.67497C39.7148 3.36589 39.158 3.32006 38.9495 4.00736C38.8224 4.42634 38.8239 4.85731 38.8672 5.28842C38.8849 5.46334 38.9266 5.6336 39.0052 5.79293C39.1722 6.13132 39.4652 6.24576 39.8149 6.1084C39.9146 6.06924 40.0009 6.00835 40.0868 5.94521C40.1617 5.89019 40.1923 5.82691 40.1905 5.73125C40.1861 5.50715 40.1868 5.28284 40.1875 5.05857Z" fill="#044E45"/>
<path fill-rule="evenodd" clip-rule="evenodd" d="M51.4978 5.27613C51.4981 5.17486 51.4984 5.07126 51.4984 4.96428C51.4951 4.84773 51.4955 4.72741 51.4959 4.60456C51.4968 4.34503 51.4977 4.07419 51.4643 3.80365C51.3865 3.17377 51.0913 2.80115 50.5204 2.6622C49.9098 2.51366 49.306 2.60758 48.7064 2.74533C48.6112 2.76718 48.5831 2.83219 48.5957 2.92598C48.6177 3.08944 48.6355 3.25357 48.6524 3.41757C48.6708 3.59889 48.7064 3.62127 48.8895 3.57544C49.2307 3.48991 49.5749 3.4237 49.9294 3.46367C50.3055 3.50616 50.4525 3.66083 50.4923 4.03226C50.5054 4.15376 50.478 4.19359 50.35 4.17134C50.0596 4.12072 49.7678 4.12978 49.4767 4.17414C48.8329 4.27232 48.4125 4.65587 48.2844 5.27109C48.2352 5.50769 48.2301 5.74776 48.2739 5.98556C48.3682 6.49927 48.6389 6.86723 49.1631 6.99925C49.6676 7.12634 50.1323 7.01777 50.5526 6.71815C50.6259 6.66579 50.6564 6.66206 50.7003 6.74906C50.7824 6.91159 50.9258 6.99459 51.1036 7.02896C51.3795 7.08225 51.6425 7.02216 51.9042 6.94796C51.983 6.92571 52.0044 6.8627 51.996 6.78423C51.993 6.75583 51.9899 6.72743 51.9868 6.69902C51.9716 6.55809 51.9564 6.41709 51.948 6.27572C51.9396 6.1369 51.875 6.1032 51.7477 6.13517C51.5403 6.18739 51.5024 6.15915 51.4994 5.9428C51.4966 5.72461 51.4972 5.50642 51.4978 5.27613ZM50.4955 5.45115C50.4952 5.4427 50.4949 5.43427 50.4949 5.42588C50.4949 4.88767 50.473 4.87261 49.9714 4.89646C49.4516 4.9211 49.2256 5.20753 49.3112 5.77C49.3607 6.09586 49.566 6.23468 49.8909 6.18538C50.1061 6.15274 50.2997 6.05896 50.4492 5.90282C50.5175 5.83155 50.5077 5.74135 50.498 5.6505C50.4927 5.60141 50.4874 5.55214 50.4943 5.50555C50.497 5.4877 50.4962 5.4694 50.4955 5.45115Z" fill="#044E45"/>
<path fill-rule="evenodd" clip-rule="evenodd" d="M45.2751 5.23915C45.2754 5.13451 45.2756 5.02624 45.2756 4.91272C45.2727 4.80846 45.2731 4.699 45.2735 4.58596C45.2743 4.32706 45.2752 4.04934 45.2376 3.77207C45.1541 3.16004 44.861 2.79901 44.2986 2.66233C43.6877 2.51392 43.0841 2.60717 42.4845 2.74532C42.3902 2.76704 42.3618 2.83059 42.3751 2.92597C42.3915 3.04436 42.4033 3.16337 42.4151 3.28236C42.4196 3.32753 42.424 3.3727 42.4288 3.41783C42.4475 3.59755 42.4857 3.62073 42.6679 3.5753C43.0145 3.48897 43.3637 3.42236 43.7238 3.46539C44.0876 3.50882 44.2486 3.68361 44.2729 4.04864C44.2797 4.15082 44.2597 4.19691 44.145 4.1728C43.93 4.12764 43.711 4.1343 43.4933 4.14549C42.7016 4.18625 42.192 4.59578 42.0565 5.30132C42.016 5.51155 42.0188 5.72484 42.0438 5.93773C42.1068 6.47448 42.4367 6.87281 42.9404 6.99924C43.4453 7.12594 43.9097 7.01843 44.33 6.71868C44.4022 6.66725 44.4326 6.65966 44.4777 6.74865C44.5595 6.91052 44.7028 6.99471 44.8808 7.02908C45.1568 7.08237 45.4197 7.02242 45.6816 6.94862C45.7605 6.92637 45.783 6.86402 45.7746 6.78542C45.7737 6.77674 45.7727 6.76807 45.7718 6.75939C45.7542 6.59329 45.7367 6.42729 45.7239 6.26092C45.7147 6.13969 45.6539 6.10652 45.5417 6.1305C45.3052 6.18112 45.2792 6.16101 45.2765 5.91108C45.2742 5.69334 45.2746 5.47553 45.2751 5.23915ZM44.2738 5.45699C44.2735 5.44864 44.2732 5.4403 44.2732 5.43202C44.2732 5.39659 44.2726 5.36113 44.2721 5.32569C44.2709 5.24412 44.2697 5.16263 44.2749 5.08165C44.281 4.98653 44.2555 4.93844 44.153 4.92271C43.9572 4.89274 43.7616 4.88315 43.567 4.91845C43.3355 4.96028 43.1645 5.08285 43.1047 5.32198C43.0683 5.46666 43.0573 5.61374 43.0864 5.76401C43.1486 6.08321 43.3263 6.22443 43.647 6.18739C43.8697 6.16168 44.0665 6.0647 44.2229 5.90696C44.2938 5.83531 44.2846 5.74478 44.2754 5.65373C44.2705 5.60563 44.2656 5.55738 44.2725 5.51169C44.2752 5.49382 44.2745 5.47539 44.2738 5.45699Z" fill="#044E45"/>
<path fill-rule="evenodd" clip-rule="evenodd" d="M36.8462 5.25191C36.8465 5.15674 36.8468 5.06157 36.8468 4.96641C36.8427 4.96641 36.8386 4.96641 36.8343 4.96668C36.8343 4.88194 36.8344 4.79721 36.8345 4.71247C36.8348 4.47241 36.8352 4.23235 36.833 3.99229C36.8325 3.94103 36.8244 3.88983 36.8163 3.83861C36.8126 3.81595 36.809 3.79329 36.8061 3.77061C36.7263 3.15712 36.4302 2.79809 35.867 2.66207C35.2561 2.51432 34.6523 2.60771 34.0529 2.74626C33.9576 2.76838 33.934 2.83472 33.947 2.92904C33.9617 3.03559 33.9721 3.14271 33.9825 3.24984C33.9881 3.30693 33.9936 3.36402 33.9998 3.42103C34.0189 3.59635 34.0582 3.6226 34.2262 3.5797C34.5777 3.48991 34.9318 3.42263 35.2974 3.46593C35.6644 3.50936 35.8344 3.70067 35.8448 4.0673C35.8474 4.15922 35.8244 4.19266 35.7302 4.17401C35.5148 4.13124 35.2961 4.13511 35.0782 4.14483C34.279 4.18067 33.7655 4.59006 33.6274 5.30333C33.5878 5.50836 33.5912 5.71672 33.6134 5.92401C33.6714 6.46876 34.004 6.87309 34.5132 7.00018C35.0057 7.12301 35.4617 7.0235 35.8763 6.73587C35.8798 6.73346 35.8832 6.73108 35.8866 6.72874C35.9594 6.67792 36.0024 6.64793 36.0589 6.76371C36.1355 6.92092 36.2823 6.99672 36.4538 7.02962C36.7296 7.08265 36.9928 7.02256 37.2544 6.94809C37.3334 6.92558 37.3535 6.86123 37.3453 6.7833C37.3268 6.60851 37.3085 6.43385 37.2947 6.2588C37.2851 6.1365 37.2216 6.10679 37.1107 6.13131C36.88 6.18206 36.8519 6.16275 36.8482 5.92495C36.8446 5.70064 36.8454 5.47626 36.8462 5.25191ZM35.8449 5.44695C35.8445 5.43681 35.8441 5.42666 35.8441 5.41656C35.8441 5.38226 35.8433 5.34785 35.8424 5.31344C35.8405 5.23599 35.8385 5.1585 35.8464 5.08204C35.8584 4.96986 35.8063 4.93509 35.7091 4.92017C35.5185 4.89073 35.328 4.88354 35.1387 4.91804C34.9002 4.96147 34.7287 5.08976 34.6719 5.33649C34.6397 5.47664 34.6304 5.61839 34.6575 5.7632C34.7159 6.07468 34.8885 6.21669 35.2017 6.18831C35.4316 6.16753 35.6324 6.06735 35.7936 5.90708C35.8653 5.83573 35.856 5.74496 35.8466 5.65366C35.8416 5.6057 35.8367 5.55759 35.8434 5.51208C35.8466 5.49076 35.8458 5.46888 35.8449 5.44695Z" fill="#044E45"/>
<path fill-rule="evenodd" clip-rule="evenodd" d="M53.6119 2.98873C53.9426 2.76691 54.2733 2.61837 54.65 2.59425C54.8808 2.57947 55.1093 2.59585 55.3244 2.68165C55.81 2.87535 55.9869 3.27489 55.9925 3.76141C56.0027 4.64015 55.9966 5.51901 55.9974 6.39788C55.9976 6.52564 55.9913 6.65393 55.9992 6.7813C56.0075 6.91798 55.9552 6.97633 55.8158 6.9726C55.5979 6.96661 55.3795 6.96541 55.1616 6.973C55.0161 6.9782 54.9669 6.92264 54.9677 6.77663C54.9726 5.89777 54.9701 5.0189 54.9704 4.14003C54.9704 4.0228 54.9688 3.90583 54.9463 3.79006C54.9205 3.65617 54.843 3.56744 54.7116 3.5376C54.3068 3.44554 53.9884 3.62646 53.6928 3.87132C53.6389 3.91595 53.664 3.98136 53.664 4.03705C53.6624 4.93723 53.663 5.83728 53.6628 6.73746C53.6627 6.95835 53.6502 6.9706 53.4271 6.97087C53.2195 6.97127 53.012 6.96767 52.8046 6.9722C52.6797 6.975 52.6183 6.9309 52.6185 6.79728C52.6206 5.47625 52.6203 4.15535 52.619 2.83445C52.6189 2.71189 52.6717 2.663 52.7937 2.66633C52.9905 2.67179 53.1873 2.66739 53.3842 2.66793C53.5866 2.66833 53.594 2.67632 53.6041 2.88628C53.6053 2.91226 53.608 2.9381 53.6119 2.98873Z" fill="#044E45"/>
<path fill-rule="evenodd" clip-rule="evenodd" d="M27.357 5.06535C27.4456 5.06504 27.5343 5.06474 27.623 5.06474C27.7062 5.0647 27.7893 5.06458 27.8725 5.06446C28.1138 5.0641 28.3551 5.06375 28.5965 5.06553C28.7035 5.06633 28.7713 5.03556 28.7713 4.91393C28.7713 4.88835 28.7713 4.86276 28.7713 4.83718C28.7718 4.48984 28.7722 4.1425 28.6912 3.80152C28.5782 3.32659 28.3633 2.92252 27.8899 2.71616C26.9899 2.32382 25.9849 2.74787 25.6664 3.67589C25.4044 4.43912 25.4214 5.21661 25.6776 5.98011C25.8366 6.45424 26.1544 6.80035 26.6396 6.95169C27.3094 7.16059 27.9619 7.07333 28.5944 6.78703C28.6813 6.74786 28.7066 6.68751 28.6982 6.59652C28.688 6.4865 28.6808 6.37629 28.6737 6.26606C28.6687 6.19036 28.6638 6.11465 28.6579 6.03899C28.6439 5.85981 28.5814 5.82264 28.4204 5.9031C28.1761 6.02527 27.9206 6.10893 27.6496 6.14637C27.0926 6.2235 26.7165 5.96851 26.5909 5.4235C26.5816 5.38311 26.5759 5.34193 26.5702 5.30074C26.565 5.26286 26.5598 5.22497 26.5517 5.1877C26.5303 5.08832 26.5648 5.06034 26.6655 5.06234C26.8959 5.06696 27.1264 5.06615 27.357 5.06535ZM27.0139 4.29998C27.0622 4.30035 27.1105 4.30071 27.1587 4.30071C27.1788 4.30071 27.1988 4.30102 27.2189 4.30132C27.2625 4.30198 27.3062 4.30264 27.3497 4.30018C27.3948 4.29749 27.4481 4.30314 27.5009 4.30874C27.6075 4.32004 27.7118 4.33109 27.7411 4.27274C27.8038 4.14817 27.7414 3.97764 27.6868 3.82832C27.6831 3.81826 27.6795 3.80831 27.6759 3.79847C27.6752 3.79628 27.6746 3.79402 27.674 3.79175C27.6733 3.78889 27.6725 3.78602 27.6714 3.78328C27.5962 3.59996 27.4765 3.46634 27.2693 3.44183C27.0515 3.41612 26.8744 3.49205 26.744 3.6715C26.6316 3.82618 26.5875 4.00483 26.5555 4.18921C26.5386 4.28593 26.578 4.30564 26.6655 4.30244C26.7815 4.29821 26.8977 4.29909 27.0139 4.29998Z" fill="#044E45"/>
<path fill-rule="evenodd" clip-rule="evenodd" d="M46.4002 4.81095C46.4002 4.16682 46.3998 3.52255 46.4005 2.87829C46.4007 2.68352 46.4166 2.6686 46.6084 2.66807C46.8212 2.6674 47.0341 2.6734 47.2466 2.66593C47.3854 2.66114 47.4361 2.71656 47.435 2.85325C47.4311 3.39093 47.4334 3.92875 47.4334 4.46643C47.4334 5.2278 47.4337 5.9893 47.4333 6.75066C47.4331 6.95276 47.4157 6.97021 47.2158 6.97101C47.0084 6.97181 46.801 6.96542 46.5938 6.97314C46.4472 6.97874 46.3972 6.91892 46.3981 6.77557C46.4027 6.12079 46.4002 5.46587 46.4002 4.81095Z" fill="#044E45"/>
<path fill-rule="evenodd" clip-rule="evenodd" d="M47.5054 1.73259C47.5035 2.10068 47.2723 2.33102 46.9072 2.32836C46.552 2.32583 46.3161 2.0807 46.3192 1.71753C46.3221 1.36503 46.5583 1.13442 46.9157 1.13455C47.2892 1.13455 47.5071 1.35583 47.5054 1.73259Z" fill="#044E45"/>
<path fill-rule="evenodd" clip-rule="evenodd" d="M6.60212 0.97921C6.61117 0.977877 6.62022 0.978677 6.629 0.981341C6.94581 1.26604 7.22935 1.57924 7.45275 1.944C7.78779 2.49075 7.98378 3.08012 8.0386 3.72265C8.12242 4.70543 7.87201 5.59176 7.30825 6.39203C7.13129 6.64315 6.93729 6.88322 6.69047 7.07346C6.6604 7.09651 6.63273 7.12009 6.59321 7.12209C5.73287 6.36618 5.24216 5.4255 5.18641 4.27326C5.126 3.02377 5.56376 1.97358 6.46761 1.1143C6.51364 1.07033 6.55728 1.02424 6.60212 0.97921Z" fill="#0AA94E"/>
<path fill-rule="evenodd" clip-rule="evenodd" d="M12.5657 2.7857C12.4727 2.84126 12.4064 2.8735 12.3486 2.91679C12.2659 2.97861 12.205 2.96529 12.1494 2.88229C12.0878 2.7905 12.148 2.7468 12.2152 2.70497C12.9417 2.25281 13.7313 2.04512 14.5855 2.10893C15.2536 2.15889 15.8719 2.37405 16.4503 2.70857C16.5188 2.74827 16.6022 2.77878 16.5409 2.88802C16.4826 2.99166 16.4097 2.97461 16.3268 2.92559C16.2736 2.89401 16.2184 2.86577 16.1571 2.83246C16.1506 2.89961 16.1855 2.94237 16.2056 2.98873C16.5431 3.76888 16.8816 4.54863 17.2199 5.32865C17.3215 5.56285 17.2823 5.703 17.0684 5.84648C16.8701 5.97971 16.6449 6.04152 16.4114 6.07376C16.0069 6.12945 15.6056 6.12145 15.2115 6.00075C15.0785 5.95999 14.9519 5.90523 14.8411 5.82011C14.6633 5.68355 14.6291 5.55206 14.7188 5.34503C15.0798 4.51133 15.4376 3.67603 15.8079 2.84645C15.8695 2.70843 15.836 2.67166 15.7123 2.6241C14.7957 2.27053 13.88 2.25228 12.9579 2.60399C12.8341 2.65115 12.8144 2.69511 12.8687 2.81781C13.2379 3.65365 13.5991 4.49321 13.9629 5.33145C14.0618 5.55926 14.0255 5.69767 13.8212 5.83929C13.6199 5.97891 13.3893 6.04192 13.1506 6.07456C12.7461 6.12985 12.3447 6.12132 11.9506 6.00022C11.8433 5.96732 11.7409 5.92388 11.646 5.86407C11.4055 5.71246 11.3633 5.57524 11.4765 5.31399C11.8146 4.53398 12.1528 3.75409 12.4908 2.97408C12.5129 2.92266 12.5322 2.87017 12.5657 2.7857Z" fill="#FEFEFE"/>
<path fill-rule="evenodd" clip-rule="evenodd" d="M11.7427 5.28402C11.7622 5.23153 11.7715 5.20168 11.7839 5.17317C12.0899 4.4663 12.3962 3.75942 12.7026 3.05228C12.7416 3.07053 12.749 3.1017 12.7613 3.13008C13.0528 3.80312 13.3427 4.47682 13.6383 5.148C13.6856 5.25564 13.6826 5.28801 13.5512 5.28681C12.9555 5.28055 12.3597 5.28402 11.7427 5.28402Z" fill="#0AA94E"/>
<path fill-rule="evenodd" clip-rule="evenodd" d="M16.9496 5.27655C16.2902 5.27655 15.655 5.27655 14.9979 5.27655C15.3216 4.52798 15.6391 3.79366 15.9726 3.02257C16.3036 3.78646 16.6221 4.52132 16.9496 5.27655Z" fill="#0AA94E"/>
</svg>
