<svg width="240" height="48" viewBox="0 0 240 48" fill="none" xmlns="http://www.w3.org/2000/svg">
<path d="M2.792 10.72V14.416H1V4.35H4.528C5.592 4.35 6.418 4.59733 7.006 5.092C7.594 5.58667 7.888 6.30533 7.888 7.248C7.888 8.30267 7.566 9.14733 6.922 9.782C6.28733 10.4073 5.42867 10.72 4.346 10.72H2.792ZM2.792 9.334H4.15C4.77533 9.334 5.24667 9.17067 5.564 8.844C5.89067 8.508 6.054 8.02267 6.054 7.388C6.054 6.27733 5.466 5.722 4.29 5.722H2.792V9.334Z" fill="white"/>
<path d="M14.1077 10.986H10.1177C10.1271 11.686 10.2857 12.2227 10.5937 12.596C10.9017 12.96 11.3264 13.142 11.8677 13.142C12.5304 13.142 13.1977 12.9553 13.8697 12.582L13.9677 14.052C13.3331 14.3973 12.5724 14.57 11.6857 14.57C9.45505 14.57 8.33972 13.2493 8.33972 10.608C8.33972 9.32 8.61505 8.368 9.16572 7.752C9.72572 7.12667 10.4584 6.814 11.3637 6.814C13.1931 6.814 14.1077 7.98067 14.1077 10.314V10.986ZM12.4557 9.894C12.4557 8.69933 12.0824 8.102 11.3357 8.102C10.9344 8.102 10.6311 8.27 10.4257 8.606C10.2297 8.942 10.1317 9.37133 10.1317 9.894H12.4557Z" fill="white"/>
<path d="M19.5713 7.43L19.6413 6.954H21.2093V14.304C21.2093 16.4693 20.2107 17.552 18.2133 17.552C17.2147 17.552 16.342 17.37 15.5953 17.006L15.8613 15.48C16.1507 15.6573 16.5007 15.802 16.9113 15.914C17.3313 16.0353 17.7187 16.096 18.0733 16.096C19.0347 16.096 19.5153 15.4707 19.5153 14.22V13.772C19.058 14.2667 18.47 14.514 17.7513 14.514C16.9393 14.514 16.2907 14.2013 15.8053 13.576C15.3293 12.9413 15.0913 11.9987 15.0913 10.748C15.0913 10.0573 15.18 9.42733 15.3573 8.858C15.544 8.28867 15.852 7.808 16.2813 7.416C16.72 7.01467 17.252 6.814 17.8773 6.814C18.5027 6.814 19.0673 7.01933 19.5713 7.43ZM19.4593 12.554V8.648C19.0207 8.33067 18.6287 8.172 18.2833 8.172C17.3687 8.172 16.9113 9.04 16.9113 10.776C16.9113 12.344 17.3547 13.128 18.2413 13.128C18.6707 13.128 19.0767 12.9367 19.4593 12.554Z" fill="white"/>
<path d="M23.3639 8.452L23.1539 7.15C23.8259 6.926 24.5959 6.814 25.4639 6.814C26.4906 6.814 27.2186 7.04733 27.6479 7.514C28.0772 7.97133 28.2919 8.81133 28.2919 10.034V12.666C28.2919 13.058 28.4319 13.254 28.7119 13.254C28.8426 13.254 28.9919 13.2213 29.1599 13.156L29.2859 14.332C28.9312 14.4813 28.5346 14.556 28.0959 14.556C27.4239 14.556 27.0132 14.2713 26.8639 13.702C26.2572 14.2713 25.5526 14.556 24.7499 14.556C24.0312 14.556 23.4806 14.3367 23.0979 13.898C22.7246 13.4593 22.5379 12.8993 22.5379 12.218C22.5379 10.4913 23.4992 9.628 25.4219 9.628C25.8046 9.628 26.2012 9.67467 26.6119 9.768V9.446C26.6119 8.578 26.1219 8.144 25.1419 8.144C24.6099 8.144 24.0172 8.24667 23.3639 8.452ZM26.6119 12.596V10.874C26.2946 10.762 25.9959 10.706 25.7159 10.706C24.7546 10.706 24.2739 11.1587 24.2739 12.064C24.2739 12.428 24.3579 12.7173 24.5259 12.932C24.6939 13.1373 24.9412 13.24 25.2679 13.24C25.7719 13.24 26.2199 13.0253 26.6119 12.596Z" fill="white"/>
<path d="M34.1793 7.29V4.35H35.9293V14.416H34.3613L34.3053 13.758C33.792 14.29 33.1807 14.556 32.4713 14.556C31.6593 14.556 31.0107 14.234 30.5253 13.59C30.0493 12.946 29.8113 11.9987 29.8113 10.748C29.8113 10.0573 29.9047 9.42733 30.0913 8.858C30.278 8.27933 30.5907 7.794 31.0293 7.402C31.468 7.01 32.0093 6.814 32.6533 6.814C33.2133 6.814 33.722 6.97267 34.1793 7.29ZM34.1933 12.61V8.62C33.7547 8.30267 33.3673 8.144 33.0313 8.144C32.098 8.144 31.6313 9.02133 31.6313 10.776C31.6313 11.56 31.748 12.1573 31.9813 12.568C32.2147 12.9787 32.546 13.184 32.9753 13.184C33.4047 13.184 33.8107 12.9927 34.1933 12.61Z" fill="white"/>
<path d="M38.0839 8.452L37.8739 7.15C38.5459 6.926 39.3159 6.814 40.1839 6.814C41.2106 6.814 41.9386 7.04733 42.3679 7.514C42.7973 7.97133 43.0119 8.81133 43.0119 10.034V12.666C43.0119 13.058 43.1519 13.254 43.4319 13.254C43.5626 13.254 43.7119 13.2213 43.8799 13.156L44.0059 14.332C43.6513 14.4813 43.2546 14.556 42.8159 14.556C42.1439 14.556 41.7333 14.2713 41.5839 13.702C40.9773 14.2713 40.2726 14.556 39.4699 14.556C38.7513 14.556 38.2006 14.3367 37.8179 13.898C37.4446 13.4593 37.2579 12.8993 37.2579 12.218C37.2579 10.4913 38.2193 9.628 40.1419 9.628C40.5246 9.628 40.9213 9.67467 41.3319 9.768V9.446C41.3319 8.578 40.8419 8.144 39.8619 8.144C39.3299 8.144 38.7373 8.24667 38.0839 8.452ZM41.3319 12.596V10.874C41.0146 10.762 40.7159 10.706 40.4359 10.706C39.4746 10.706 38.9939 11.1587 38.9939 12.064C38.9939 12.428 39.0779 12.7173 39.2459 12.932C39.4139 13.1373 39.6613 13.24 39.9879 13.24C40.4919 13.24 40.9399 13.0253 41.3319 12.596Z" fill="white"/>
<path d="M45.0461 6.954H46.7961V14.416H45.0461V6.954ZM44.9061 5.008C44.9061 4.69067 44.9994 4.44333 45.1861 4.266C45.3727 4.08867 45.6154 4 45.9141 4C46.2407 4 46.4927 4.08867 46.6701 4.266C46.8474 4.434 46.9361 4.68133 46.9361 5.008C46.9361 5.33467 46.8381 5.58667 46.6421 5.764C46.4554 5.932 46.2127 6.016 45.9141 6.016C45.6061 6.016 45.3587 5.92733 45.1721 5.75C44.9947 5.56333 44.9061 5.316 44.9061 5.008Z" fill="white"/>
<path d="M48.9485 8.452L48.7385 7.15C49.4105 6.926 50.1805 6.814 51.0485 6.814C52.0751 6.814 52.8031 7.04733 53.2325 7.514C53.6618 7.97133 53.8765 8.81133 53.8765 10.034V12.666C53.8765 13.058 54.0165 13.254 54.2965 13.254C54.4271 13.254 54.5765 13.2213 54.7445 13.156L54.8705 14.332C54.5158 14.4813 54.1191 14.556 53.6805 14.556C53.0085 14.556 52.5978 14.2713 52.4485 13.702C51.8418 14.2713 51.1371 14.556 50.3345 14.556C49.6158 14.556 49.0651 14.3367 48.6825 13.898C48.3091 13.4593 48.1225 12.8993 48.1225 12.218C48.1225 10.4913 49.0838 9.628 51.0065 9.628C51.3891 9.628 51.7858 9.67467 52.1965 9.768V9.446C52.1965 8.578 51.7065 8.144 50.7265 8.144C50.1945 8.144 49.6018 8.24667 48.9485 8.452ZM52.1965 12.596V10.874C51.8791 10.762 51.5805 10.706 51.3005 10.706C50.3391 10.706 49.8585 11.1587 49.8585 12.064C49.8585 12.428 49.9425 12.7173 50.1105 12.932C50.2785 13.1373 50.5258 13.24 50.8525 13.24C51.3565 13.24 51.8045 13.0253 52.1965 12.596Z" fill="white"/>
<path d="M57.5066 6.954L57.5626 7.696C58.2346 7.108 58.972 6.814 59.7746 6.814C60.9786 6.814 61.66 7.332 61.8186 8.368C61.856 8.60133 61.8746 8.914 61.8746 9.306V14.416H60.1246V9.53C60.1246 9.24067 60.12 9.04933 60.1106 8.956C60.0546 8.49867 59.7466 8.27 59.1866 8.27C58.7013 8.27 58.1973 8.50333 57.6746 8.97V14.416H55.9106V6.954H57.5066Z" fill="white"/>
<path d="M10.208 31.7481V29.2521H16.812V37.7801C14.992 38.6467 13.0506 39.0801 10.988 39.0801C8.23198 39.0801 6.20398 38.2741 4.90398 36.6621C3.62131 35.0501 2.97998 32.5107 2.97998 29.0441C2.97998 26.1667 3.57798 23.8787 4.77398 22.1801C5.98731 20.4814 7.85065 19.6321 10.364 19.6321C12.2186 19.6321 13.6313 20.0654 14.602 20.9321C15.5726 21.7814 16.2226 23.0034 16.552 24.5981L13.458 25.3521C13.1633 24.2947 12.782 23.5234 12.314 23.0381C11.8633 22.5354 11.1786 22.2841 10.26 22.2841C7.72931 22.2841 6.46398 24.5027 6.46398 28.9401C6.46398 30.1361 6.52465 31.1587 6.64598 32.0081C6.76731 32.8574 6.99265 33.6374 7.32198 34.3481C7.65131 35.0414 8.11931 35.5701 8.72598 35.9341C9.34998 36.2807 10.1213 36.4541 11.04 36.4541C11.976 36.4541 12.8166 36.2981 13.562 35.9861V31.7481H10.208Z" fill="#BFD730"/>
<path d="M20.3945 27.6401L20.0045 25.2221C21.2525 24.8061 22.6825 24.5981 24.2945 24.5981C26.2012 24.5981 27.5532 25.0314 28.3505 25.8981C29.1478 26.7474 29.5465 28.3074 29.5465 30.5781V35.4661C29.5465 36.1941 29.8065 36.5581 30.3265 36.5581C30.5692 36.5581 30.8465 36.4974 31.1585 36.3761L31.3925 38.5601C30.7338 38.8374 29.9972 38.9761 29.1825 38.9761C27.9345 38.9761 27.1718 38.4474 26.8945 37.3901C25.7678 38.4474 24.4592 38.9761 22.9685 38.9761C21.6338 38.9761 20.6112 38.5687 19.9005 37.7541C19.2072 36.9394 18.8605 35.8994 18.8605 34.6341C18.8605 31.4274 20.6458 29.8241 24.2165 29.8241C24.9272 29.8241 25.6638 29.9107 26.4265 30.0841V29.4861C26.4265 27.8741 25.5165 27.0681 23.6965 27.0681C22.7085 27.0681 21.6078 27.2587 20.3945 27.6401ZM26.4265 35.3361V32.1381C25.8372 31.9301 25.2825 31.8261 24.7625 31.8261C22.9772 31.8261 22.0845 32.6667 22.0845 34.3481C22.0845 35.0241 22.2405 35.5614 22.5525 35.9601C22.8645 36.3414 23.3238 36.5321 23.9305 36.5321C24.8665 36.5321 25.6985 36.1334 26.4265 35.3361Z" fill="#BFD730"/>
<path d="M40.4543 25.4821V20.0221H43.7043V38.7161H40.7923L40.6883 37.4941C39.735 38.4821 38.5996 38.9761 37.2823 38.9761C35.7743 38.9761 34.5696 38.3781 33.6683 37.1821C32.7843 35.9861 32.3423 34.2267 32.3423 31.9041C32.3423 30.6214 32.5156 29.4514 32.8623 28.3941C33.209 27.3194 33.7896 26.4181 34.6043 25.6901C35.419 24.9621 36.4243 24.5981 37.6203 24.5981C38.6603 24.5981 39.605 24.8927 40.4543 25.4821ZM40.4803 35.3621V27.9521C39.6656 27.3627 38.9463 27.0681 38.3223 27.0681C36.589 27.0681 35.7223 28.6974 35.7223 31.9561C35.7223 33.4121 35.939 34.5214 36.3723 35.2841C36.8056 36.0467 37.421 36.4281 38.2183 36.4281C39.0156 36.4281 39.7696 36.0727 40.4803 35.3621Z" fill="#BFD730"/>
<path d="M47.6797 27.6401L47.2897 25.2221C48.5377 24.8061 49.9677 24.5981 51.5797 24.5981C53.4863 24.5981 54.8383 25.0314 55.6357 25.8981C56.433 26.7474 56.8317 28.3074 56.8317 30.5781V35.4661C56.8317 36.1941 57.0917 36.5581 57.6117 36.5581C57.8543 36.5581 58.1317 36.4974 58.4437 36.3761L58.6777 38.5601C58.019 38.8374 57.2823 38.9761 56.4677 38.9761C55.2197 38.9761 54.457 38.4474 54.1797 37.3901C53.053 38.4474 51.7443 38.9761 50.2537 38.9761C48.919 38.9761 47.8963 38.5687 47.1857 37.7541C46.4923 36.9394 46.1457 35.8994 46.1457 34.6341C46.1457 31.4274 47.931 29.8241 51.5017 29.8241C52.2123 29.8241 52.949 29.9107 53.7117 30.0841V29.4861C53.7117 27.8741 52.8017 27.0681 50.9817 27.0681C49.9937 27.0681 48.893 27.2587 47.6797 27.6401ZM53.7117 35.3361V32.1381C53.1223 31.9301 52.5677 31.8261 52.0477 31.8261C50.2623 31.8261 49.3697 32.6667 49.3697 34.3481C49.3697 35.0241 49.5257 35.5614 49.8377 35.9601C50.1497 36.3414 50.609 36.5321 51.2157 36.5321C52.1517 36.5321 52.9837 36.1334 53.7117 35.3361Z" fill="#BFD730"/>
<path d="M60.5834 24.8581H63.8334V38.7161H60.5834V24.8581ZM60.3234 21.2441C60.3234 20.6547 60.4967 20.1954 60.8434 19.8661C61.1901 19.5367 61.6407 19.3721 62.1954 19.3721C62.8021 19.3721 63.2701 19.5367 63.5994 19.8661C63.9287 20.1781 64.0934 20.6374 64.0934 21.2441C64.0934 21.8507 63.9114 22.3187 63.5474 22.6481C63.2007 22.9601 62.7501 23.1161 62.1954 23.1161C61.6234 23.1161 61.1641 22.9514 60.8174 22.6221C60.4881 22.2754 60.3234 21.8161 60.3234 21.2441Z" fill="#BFD730"/>
<path d="M73.8584 33.3042H70.8944V38.8522H69.5834V25.1912H74.1054C75.4354 25.1912 76.4677 25.5015 77.2024 26.1222C77.937 26.7302 78.3044 27.6295 78.3044 28.8202C78.3044 30.1882 77.8927 31.2775 77.0694 32.0882C76.2587 32.8988 75.1884 33.3042 73.8584 33.3042ZM70.8944 32.1452H73.7444C74.783 32.1452 75.5747 31.8792 76.1194 31.3472C76.6767 30.8025 76.9554 30.0235 76.9554 29.0102C76.9554 28.0475 76.702 27.3698 76.1954 26.9772C75.7014 26.5718 74.935 26.3692 73.8964 26.3692H70.8944V32.1452Z" fill="#BFD730"/>
<path d="M83.8384 28.6112C84.7504 28.6112 85.3901 29.1305 85.7574 30.1692L84.7124 30.7392C84.5604 30.4098 84.4021 30.1755 84.2374 30.0362C84.0728 29.8842 83.8321 29.8082 83.5154 29.8082C82.9201 29.8082 82.2424 30.2452 81.4824 31.1192V38.8522H80.2094V28.8202H81.4064V29.9412C82.2171 29.0545 83.0278 28.6112 83.8384 28.6112Z" fill="#BFD730"/>
<path d="M93.8143 33.9692H88.0193C88.0193 36.6292 88.9693 37.9592 90.8693 37.9592C91.7433 37.9592 92.6363 37.7185 93.5483 37.2372L93.6623 38.3772C92.8136 38.8458 91.832 39.0802 90.7173 39.0802C88.0446 39.0802 86.7083 37.3005 86.7083 33.7412C86.7083 31.9805 87.044 30.6885 87.7153 29.8652C88.3866 29.0292 89.3113 28.6112 90.4893 28.6112C91.642 28.6112 92.4843 29.0102 93.0163 29.8082C93.5483 30.5935 93.8143 31.7588 93.8143 33.3042V33.9692ZM92.5033 32.9622C92.5033 31.8982 92.3196 31.0938 91.9523 30.5492C91.5976 29.9918 91.0846 29.7132 90.4133 29.7132C89.6406 29.7132 89.0516 30.0425 88.6463 30.7012C88.241 31.3472 88.0383 32.1008 88.0383 32.9622H92.5033Z" fill="#BFD730"/>
<path d="M100.949 28.6112C102.127 28.6112 102.9 29.0545 103.267 29.9412C104.293 29.0545 105.338 28.6112 106.402 28.6112C107.922 28.6112 108.796 29.2698 109.024 30.5872C109.075 30.8785 109.1 31.2902 109.1 31.8222V38.8522H107.846V31.9932C107.846 31.5245 107.821 31.1825 107.77 30.9672C107.618 30.1692 107.067 29.7702 106.117 29.7702C105.243 29.7702 104.363 30.1882 103.476 31.0242C103.501 31.2268 103.514 31.5625 103.514 32.0312V38.8522H102.26V31.9932C102.26 31.5245 102.235 31.1825 102.184 30.9672C102.057 30.1692 101.557 29.7702 100.683 29.7702C99.6318 29.7702 98.6248 30.2642 97.6621 31.2522V38.8522H96.3891V28.8202H97.6621V30.0552C98.7641 29.0925 99.8598 28.6112 100.949 28.6112Z" fill="#BFD730"/>
<path d="M112.365 28.8202H113.619V38.8522H112.365V28.8202ZM112.156 26.2362C112.156 25.9702 112.232 25.7675 112.384 25.6282C112.536 25.4762 112.732 25.4002 112.973 25.4002C113.53 25.4002 113.809 25.6852 113.809 26.2552C113.809 26.5338 113.733 26.7555 113.581 26.9202C113.429 27.0722 113.226 27.1482 112.973 27.1482C112.732 27.1482 112.536 27.0658 112.384 26.9012C112.232 26.7365 112.156 26.5148 112.156 26.2362Z" fill="#BFD730"/>
<path d="M119.438 39.0422C117.918 39.0422 117.044 38.3898 116.816 37.0852C116.765 36.7938 116.74 36.3822 116.74 35.8502V28.9912L117.994 28.8202V35.6792C117.994 36.1605 118.019 36.5025 118.07 36.7052C118.197 37.5158 118.754 37.9212 119.742 37.9212C120.679 37.9212 121.674 37.4272 122.725 36.4392V28.8202H124.017V38.8522H122.725V37.6172C121.623 38.5672 120.527 39.0422 119.438 39.0422Z" fill="#BFD730"/>
<path d="M131.843 28.6112C133.021 28.6112 133.793 29.0545 134.161 29.9412C135.187 29.0545 136.232 28.6112 137.296 28.6112C138.816 28.6112 139.69 29.2698 139.918 30.5872C139.968 30.8785 139.994 31.2902 139.994 31.8222V38.8522H138.74V31.9932C138.74 31.5245 138.714 31.1825 138.664 30.9672C138.512 30.1692 137.961 29.7702 137.011 29.7702C136.137 29.7702 135.256 30.1882 134.37 31.0242C134.395 31.2268 134.408 31.5625 134.408 32.0312V38.8522H133.154V31.9932C133.154 31.5245 133.128 31.1825 133.078 30.9672C132.951 30.1692 132.451 29.7702 131.577 29.7702C130.525 29.7702 129.518 30.2642 128.556 31.2522V38.8522H127.283V28.8202H128.556V30.0552C129.658 29.0925 130.753 28.6112 131.843 28.6112Z" fill="#BFD730"/>
</svg>
