<svg width="1500" height="699" viewBox="0 0 1500 699" fill="none" xmlns="http://www.w3.org/2000/svg">
<path d="M417.004 428.24C417.004 470.313 382.897 504.419 340.825 504.419L313.686 504.419L313.686 76.179C313.686 34.1065 347.792 -1.0166e-05 389.865 -3.98627e-06L417.004 0L417.004 428.24Z" fill="url(#paint0_linear_367_228)"/>
<path d="M107.178 270.067C107.178 227.995 141.285 193.888 183.357 193.888L210.496 193.888L210.496 622.128C210.496 664.201 176.39 698.307 134.317 698.307L107.178 698.307L107.178 270.067Z" fill="url(#paint1_linear_367_228)"/>
<path d="M288.911 400.379C313.266 400.381 417.094 400.391 417.087 328.535L417.098 431.187C415.82 469.681 383.777 503.04 344.041 504.319L282.513 504.312L29.352 504.275L29.3493 477.329C28.065 452.949 49.21 400.984 105.611 400.99L288.911 400.379Z" fill="#72BF44"/>
<path d="M235.271 297.929C210.916 297.926 107.088 297.916 107.095 369.772L107.085 267.12C108.363 228.626 140.405 195.268 180.142 193.988L241.669 193.995L493.018 194.032L493.02 220.978C494.305 245.358 473.16 297.323 416.759 297.317L235.271 297.929Z" fill="#BFD730"/>
<path d="M522 269.23V119.213H583.798C599.883 119.213 612.299 123.256 621.046 131.342C629.794 139.286 634.168 150.493 634.168 164.963C634.168 179.574 629.794 190.923 621.046 199.009C612.299 206.953 599.883 210.925 583.798 210.925H544.01V269.23H522ZM544.01 193.264H580.624C602.069 193.264 612.792 183.83 612.792 164.963C612.792 146.237 602.069 136.874 580.624 136.874H544.01V193.264ZM698.757 271.145C681.826 271.145 668.493 266.393 658.758 256.888C649.022 247.242 644.155 234.12 644.155 217.522C644.155 206.882 646.271 197.52 650.504 189.434C654.878 181.206 660.874 174.822 668.493 170.282C676.112 165.743 684.859 163.473 694.736 163.473C708.986 163.473 720.203 168.084 728.386 177.305C736.569 186.384 740.661 198.938 740.661 214.968V222.203H664.895C666.447 243.766 677.805 254.547 698.969 254.547C704.894 254.547 710.679 253.625 716.323 251.781C722.108 249.937 727.54 246.887 732.619 242.631L738.968 257.527C734.312 261.782 728.316 265.116 720.979 267.528C713.642 269.939 706.235 271.145 698.757 271.145ZM695.582 178.581C686.694 178.581 679.639 181.348 674.419 186.88C669.198 192.413 666.024 199.789 664.895 209.01H722.672C722.249 199.364 719.709 191.916 715.053 186.667C710.397 181.277 703.907 178.581 695.582 178.581ZM810.736 309.447C801.424 309.447 792.747 308.313 784.705 306.043C776.662 303.915 769.537 300.51 763.329 295.829L769.89 280.508C776.098 284.764 782.447 287.885 788.937 289.871C795.428 291.857 802.2 292.85 809.255 292.85C829.007 292.85 838.884 282.92 838.884 263.059V246.674C835.921 252.916 831.265 257.81 824.916 261.357C818.708 264.903 811.724 266.677 803.964 266.677C794.652 266.677 786.539 264.549 779.625 260.293C772.712 255.895 767.35 249.866 763.541 242.206C759.731 234.403 757.827 225.324 757.827 214.968C757.827 204.755 759.731 195.817 763.541 188.157C767.35 180.355 772.712 174.326 779.625 170.07C786.539 165.672 794.652 163.473 803.964 163.473C811.865 163.473 818.919 165.246 825.127 168.793C831.335 172.339 835.921 177.234 838.884 183.475V165.388H859.624V260.506C859.624 276.82 855.462 289.02 847.138 297.106C838.813 305.333 826.679 309.447 810.736 309.447ZM809.043 249.866C818.073 249.866 825.268 246.745 830.63 240.503C835.991 234.261 838.672 225.75 838.672 214.968C838.672 204.187 835.991 195.746 830.63 189.646C825.268 183.405 818.073 180.284 809.043 180.284C800.013 180.284 792.817 183.405 787.456 189.646C782.094 195.746 779.414 204.187 779.414 214.968C779.414 225.75 782.094 234.261 787.456 240.503C792.817 246.745 800.013 249.866 809.043 249.866ZM922.64 271.145C915.444 271.145 909.025 269.727 903.381 266.889C897.737 264.052 893.222 260.222 889.836 255.399C886.591 250.575 884.968 245.114 884.968 239.014C884.968 231.353 886.873 225.324 890.683 220.927C894.633 216.529 901.053 213.337 909.942 211.351C918.971 209.365 931.105 208.372 946.343 208.372H953.539V202.839C953.539 194.753 951.846 188.937 948.46 185.391C945.073 181.844 939.5 180.071 931.74 180.071C925.814 180.071 919.889 180.993 913.963 182.837C908.037 184.539 901.97 187.306 895.762 191.136L889.201 176.028C894.563 172.198 901.265 169.148 909.307 166.878C917.349 164.608 925.038 163.473 932.375 163.473C946.484 163.473 956.925 166.878 963.698 173.687C970.47 180.355 973.856 190.852 973.856 205.18V269.23H953.751V251.994C951.211 257.952 947.26 262.633 941.899 266.038C936.537 269.443 930.118 271.145 922.64 271.145ZM926.873 255.824C934.492 255.824 940.841 253.129 945.92 247.738C950.999 242.347 953.539 235.538 953.539 227.31V221.565H946.555C936.255 221.565 928.142 222.061 922.217 223.055C916.432 224.048 912.27 225.75 909.73 228.161C907.331 230.431 906.132 233.623 906.132 237.737C906.132 243.128 907.966 247.525 911.635 250.93C915.303 254.193 920.382 255.824 926.873 255.824ZM1042.66 271.145C1033.63 271.145 1025.66 269.017 1018.74 264.761C1011.97 260.364 1006.68 254.122 1002.87 246.036C999.062 237.95 997.157 228.374 997.157 217.309C997.157 206.244 999.062 196.739 1002.87 188.795C1006.68 180.709 1011.97 174.467 1018.74 170.07C1025.52 165.672 1033.49 163.473 1042.66 163.473C1050.42 163.473 1057.33 165.176 1063.4 168.58C1069.47 171.985 1073.98 176.595 1076.94 182.412V119.213H1098.32V269.23H1077.37V251.143C1074.4 257.385 1069.82 262.279 1063.61 265.825C1057.54 269.372 1050.56 271.145 1042.66 271.145ZM1048.16 254.547C1056.91 254.547 1063.96 251.356 1069.33 244.972C1074.69 238.588 1077.37 229.367 1077.37 217.309C1077.37 205.251 1074.69 196.101 1069.33 189.859C1063.96 183.475 1056.91 180.284 1048.16 180.284C1039.27 180.284 1032.15 183.475 1026.79 189.859C1021.43 196.101 1018.74 205.251 1018.74 217.309C1018.74 229.367 1021.43 238.588 1026.79 244.972C1032.15 251.356 1039.27 254.547 1048.16 254.547ZM1161.35 271.145C1154.16 271.145 1147.74 269.727 1142.09 266.889C1136.45 264.052 1131.93 260.222 1128.55 255.399C1125.3 250.575 1123.68 245.114 1123.68 239.014C1123.68 231.353 1125.59 225.324 1129.4 220.927C1133.35 216.529 1139.77 213.337 1148.65 211.351C1157.68 209.365 1169.82 208.372 1185.06 208.372H1192.25V202.839C1192.25 194.753 1190.56 188.937 1187.17 185.391C1183.79 181.844 1178.21 180.071 1170.45 180.071C1164.53 180.071 1158.6 180.993 1152.68 182.837C1146.75 184.539 1140.68 187.306 1134.47 191.136L1127.91 176.028C1133.28 172.198 1139.98 169.148 1148.02 166.878C1156.06 164.608 1163.75 163.473 1171.09 163.473C1185.2 163.473 1195.64 166.878 1202.41 173.687C1209.18 180.355 1212.57 190.852 1212.57 205.18V269.23H1192.46V251.994C1189.92 257.952 1185.97 262.633 1180.61 266.038C1175.25 269.443 1168.83 271.145 1161.35 271.145ZM1165.59 255.824C1173.2 255.824 1179.55 253.129 1184.63 247.738C1189.71 242.347 1192.25 235.538 1192.25 227.31V221.565H1185.27C1174.97 221.565 1166.86 222.061 1160.93 223.055C1155.14 224.048 1150.98 225.75 1148.44 228.161C1146.04 230.431 1144.84 233.623 1144.84 237.737C1144.84 243.128 1146.68 247.525 1150.35 250.93C1154.02 254.193 1159.1 255.824 1165.59 255.824ZM1240.1 141.343V119H1265.08V141.343H1240.1ZM1242.01 269.23V165.388H1263.38V269.23H1242.01ZM1326.49 271.145C1319.29 271.145 1312.87 269.727 1307.23 266.889C1301.58 264.052 1297.07 260.222 1293.68 255.399C1290.44 250.575 1288.81 245.114 1288.81 239.014C1288.81 231.353 1290.72 225.324 1294.53 220.927C1298.48 216.529 1304.9 213.337 1313.79 211.351C1322.82 209.365 1334.95 208.372 1350.19 208.372H1357.39V202.839C1357.39 194.753 1355.69 188.937 1352.31 185.391C1348.92 181.844 1343.35 180.071 1335.59 180.071C1329.66 180.071 1323.73 180.993 1317.81 182.837C1311.88 184.539 1305.82 187.306 1299.61 191.136L1293.05 176.028C1298.41 172.198 1305.11 169.148 1313.15 166.878C1321.2 164.608 1328.88 163.473 1336.22 163.473C1350.33 163.473 1360.77 166.878 1367.54 173.687C1374.32 180.355 1377.7 190.852 1377.7 205.18V269.23H1357.6V251.994C1355.06 257.952 1351.11 262.633 1345.75 266.038C1340.38 269.443 1333.96 271.145 1326.49 271.145ZM1330.72 255.824C1338.34 255.824 1344.69 253.129 1349.77 247.738C1354.85 242.347 1357.39 235.538 1357.39 227.31V221.565H1350.4C1340.1 221.565 1331.99 222.061 1326.06 223.055C1320.28 224.048 1316.12 225.75 1313.58 228.161C1311.18 230.431 1309.98 233.623 1309.98 237.737C1309.98 243.128 1311.81 247.525 1315.48 250.93C1319.15 254.193 1324.23 255.824 1330.72 255.824ZM1407.14 269.23V165.388H1427.89V182.624C1431.41 176.382 1436.21 171.63 1442.28 168.367C1448.48 165.105 1455.4 163.473 1463.02 163.473C1487.43 163.473 1499.63 177.376 1499.63 205.18V269.23H1478.25V206.457C1478.25 197.52 1476.49 190.994 1472.96 186.88C1469.58 182.766 1464.22 180.709 1456.88 180.709C1448.27 180.709 1441.36 183.475 1436.14 189.008C1431.06 194.399 1428.52 201.563 1428.52 210.5V269.23H1407.14Z" fill="#00AB4E"/>
<path d="M522.37 537.873V388.829H580.851C606.278 388.829 625.983 395.312 639.968 408.279C653.952 421.104 660.944 439.426 660.944 463.245C660.944 487.064 653.952 505.457 639.968 518.424C625.983 531.39 606.278 537.873 580.851 537.873H522.37ZM555.213 511.024H578.944C610.727 511.024 626.619 495.098 626.619 463.245C626.619 431.534 610.727 415.678 578.944 415.678H555.213V511.024ZM737.735 540.199C725.446 540.199 714.851 538.014 705.952 533.645C697.194 529.135 690.414 522.863 685.611 514.83C680.949 506.655 678.619 497.071 678.619 486.078C678.619 475.366 680.879 465.994 685.399 457.96C690.061 449.786 696.347 443.443 704.257 438.933C712.309 434.282 721.561 431.957 732.014 431.957C747.129 431.957 759.136 436.749 768.035 446.333C776.934 455.776 781.384 468.601 781.384 484.809V492.843H709.13C710.261 501.017 713.227 507.007 718.03 510.813C722.974 514.477 729.754 516.309 738.371 516.309C744.021 516.309 749.742 515.464 755.534 513.772C761.325 512.081 766.552 509.474 771.213 505.95L779.689 527.303C774.462 531.249 768.035 534.42 760.407 536.816C752.921 539.071 745.363 540.199 737.735 540.199ZM733.286 453.098C726.505 453.098 720.996 455.141 716.758 459.229C712.662 463.316 710.119 469.024 709.13 476.353H754.898C754.051 460.849 746.846 453.098 733.286 453.098ZM839.829 540.199C830.647 540.199 822.101 539.142 814.19 537.028C806.28 534.914 799.711 532.024 794.485 528.36L802.113 507.642C807.339 510.883 813.272 513.491 819.911 515.464C826.692 517.296 833.401 518.212 840.041 518.212C845.973 518.212 850.352 517.296 853.178 515.464C856.003 513.491 857.415 510.954 857.415 507.853C857.415 502.92 853.813 499.819 846.609 498.551L824.361 494.534C815.462 492.984 808.681 489.813 804.02 485.021C799.358 480.229 797.027 473.957 797.027 466.205C797.027 459.158 799.005 453.098 802.96 448.024C806.915 442.95 812.354 439.004 819.276 436.185C826.197 433.366 834.178 431.957 843.219 431.957C850.706 431.957 857.98 432.943 865.043 434.916C872.106 436.749 878.182 439.708 883.267 443.796L875.216 464.302C870.976 461.202 865.891 458.665 859.958 456.692C854.166 454.718 848.728 453.732 843.643 453.732C837.286 453.732 832.695 454.789 829.87 456.903C827.045 458.876 825.632 461.413 825.632 464.514C825.632 469.447 828.952 472.547 835.591 473.816L857.839 477.833C867.021 479.383 874.013 482.484 878.818 487.135C883.62 491.645 886.022 497.846 886.022 505.739C886.022 516.591 881.784 525.048 873.307 531.108C864.831 537.169 853.672 540.199 839.829 540.199ZM903.012 413.987V384.178H937.549V413.987H903.012ZM904.283 537.873V434.071H936.278V537.873H904.283ZM1010.98 578.253C1000.95 578.253 991.559 577.196 982.801 575.082C974.185 572.967 966.627 569.655 960.129 565.145L968.817 543.37C974.467 546.893 980.824 549.571 987.887 551.404C995.091 553.377 1001.87 554.363 1008.23 554.363C1026.31 554.363 1035.35 546.048 1035.35 529.417V517.578C1032.52 522.934 1028.07 527.232 1022 530.474C1015.93 533.716 1009.29 535.336 1002.08 535.336C992.76 535.336 984.638 533.222 977.716 528.994C970.794 524.625 965.427 518.564 961.613 510.813C957.799 503.061 955.892 493.97 955.892 483.541C955.892 473.252 957.799 464.232 961.613 456.48C965.427 448.728 970.794 442.739 977.716 438.51C984.638 434.141 992.76 431.957 1002.08 431.957C1009.57 431.957 1016.28 433.577 1022.21 436.819C1028.15 440.061 1032.52 444.359 1035.35 449.715V434.071H1066.5V525.823C1066.5 543.3 1061.76 556.407 1052.3 565.145C1042.84 573.884 1029.06 578.253 1010.98 578.253ZM1011.62 511.447C1018.68 511.447 1024.33 508.981 1028.57 504.048C1032.95 499.115 1035.14 492.279 1035.14 483.541C1035.14 474.802 1032.95 468.037 1028.57 463.245C1024.33 458.312 1018.68 455.846 1011.62 455.846C1004.41 455.846 998.693 458.312 994.455 463.245C990.217 468.037 988.099 474.802 988.099 483.541C988.099 492.279 990.217 499.115 994.455 504.048C998.693 508.981 1004.41 511.447 1011.62 511.447ZM1091.34 537.873V434.071H1122.7V449.292C1126.23 443.655 1130.96 439.356 1136.9 436.396C1142.83 433.436 1149.47 431.957 1156.81 431.957C1169.1 431.957 1178.29 435.551 1184.36 442.739C1190.43 449.786 1193.47 460.708 1193.47 475.507V537.873H1161.48V476.987C1161.48 469.799 1160.13 464.655 1157.45 461.554C1154.77 458.312 1150.81 456.692 1145.58 456.692C1138.8 456.692 1133.37 458.806 1129.27 463.034C1125.31 467.262 1123.34 472.9 1123.34 479.947V537.873H1091.34Z" fill="#72BF44"/>
<defs>
<linearGradient id="paint0_linear_367_228" x1="365.345" y1="909.266" x2="365.345" y2="-3.4686e-05" gradientUnits="userSpaceOnUse">
<stop/>
<stop offset="1" stop-color="#00AB4E"/>
</linearGradient>
<linearGradient id="paint1_linear_367_228" x1="158.837" y1="-210.959" x2="158.837" y2="698.307" gradientUnits="userSpaceOnUse">
<stop/>
<stop offset="1" stop-color="#00AB4E"/>
</linearGradient>
</defs>
</svg>
