<svg width="240" height="48" viewBox="0 0 240 48" fill="none" xmlns="http://www.w3.org/2000/svg">
<path d="M2.792 10.72V14.416H1V4.35H4.528C5.592 4.35 6.418 4.59733 7.006 5.092C7.594 5.58667 7.888 6.30533 7.888 7.248C7.888 8.30267 7.566 9.14733 6.922 9.782C6.28733 10.4073 5.42867 10.72 4.346 10.72H2.792ZM2.792 9.334H4.15C4.77533 9.334 5.24667 9.17067 5.564 8.844C5.89067 8.508 6.054 8.02267 6.054 7.388C6.054 6.27733 5.466 5.722 4.29 5.722H2.792V9.334Z" fill="#004D43"/>
<path d="M14.1077 10.986H10.1177C10.1271 11.686 10.2857 12.2227 10.5937 12.596C10.9017 12.96 11.3264 13.142 11.8677 13.142C12.5304 13.142 13.1977 12.9553 13.8697 12.582L13.9677 14.052C13.3331 14.3973 12.5724 14.57 11.6857 14.57C9.45505 14.57 8.33972 13.2493 8.33972 10.608C8.33972 9.32 8.61505 8.368 9.16572 7.752C9.72572 7.12667 10.4584 6.814 11.3637 6.814C13.1931 6.814 14.1077 7.98067 14.1077 10.314V10.986ZM12.4557 9.894C12.4557 8.69933 12.0824 8.102 11.3357 8.102C10.9344 8.102 10.6311 8.27 10.4257 8.606C10.2297 8.942 10.1317 9.37133 10.1317 9.894H12.4557Z" fill="#004D43"/>
<path d="M19.5713 7.43L19.6413 6.954H21.2093V14.304C21.2093 16.4693 20.2107 17.552 18.2133 17.552C17.2147 17.552 16.342 17.37 15.5953 17.006L15.8613 15.48C16.1507 15.6573 16.5007 15.802 16.9113 15.914C17.3313 16.0353 17.7187 16.096 18.0733 16.096C19.0347 16.096 19.5153 15.4707 19.5153 14.22V13.772C19.058 14.2667 18.47 14.514 17.7513 14.514C16.9393 14.514 16.2907 14.2013 15.8053 13.576C15.3293 12.9413 15.0913 11.9987 15.0913 10.748C15.0913 10.0573 15.18 9.42733 15.3573 8.858C15.544 8.28867 15.852 7.808 16.2813 7.416C16.72 7.01467 17.252 6.814 17.8773 6.814C18.5027 6.814 19.0673 7.01933 19.5713 7.43ZM19.4593 12.554V8.648C19.0207 8.33067 18.6287 8.172 18.2833 8.172C17.3687 8.172 16.9113 9.04 16.9113 10.776C16.9113 12.344 17.3547 13.128 18.2413 13.128C18.6707 13.128 19.0767 12.9367 19.4593 12.554Z" fill="#004D43"/>
<path d="M23.3639 8.452L23.1539 7.15C23.8259 6.926 24.5959 6.814 25.4639 6.814C26.4906 6.814 27.2186 7.04733 27.6479 7.514C28.0772 7.97133 28.2919 8.81133 28.2919 10.034V12.666C28.2919 13.058 28.4319 13.254 28.7119 13.254C28.8426 13.254 28.9919 13.2213 29.1599 13.156L29.2859 14.332C28.9312 14.4813 28.5346 14.556 28.0959 14.556C27.4239 14.556 27.0132 14.2713 26.8639 13.702C26.2572 14.2713 25.5526 14.556 24.7499 14.556C24.0312 14.556 23.4806 14.3367 23.0979 13.898C22.7246 13.4593 22.5379 12.8993 22.5379 12.218C22.5379 10.4913 23.4992 9.628 25.4219 9.628C25.8046 9.628 26.2012 9.67467 26.6119 9.768V9.446C26.6119 8.578 26.1219 8.144 25.1419 8.144C24.6099 8.144 24.0172 8.24667 23.3639 8.452ZM26.6119 12.596V10.874C26.2946 10.762 25.9959 10.706 25.7159 10.706C24.7546 10.706 24.2739 11.1587 24.2739 12.064C24.2739 12.428 24.3579 12.7173 24.5259 12.932C24.6939 13.1373 24.9412 13.24 25.2679 13.24C25.7719 13.24 26.2199 13.0253 26.6119 12.596Z" fill="#004D43"/>
<path d="M34.1793 7.29V4.35H35.9293V14.416H34.3613L34.3053 13.758C33.792 14.29 33.1807 14.556 32.4713 14.556C31.6593 14.556 31.0107 14.234 30.5253 13.59C30.0493 12.946 29.8113 11.9987 29.8113 10.748C29.8113 10.0573 29.9047 9.42733 30.0913 8.858C30.278 8.27933 30.5907 7.794 31.0293 7.402C31.468 7.01 32.0093 6.814 32.6533 6.814C33.2133 6.814 33.722 6.97267 34.1793 7.29ZM34.1933 12.61V8.62C33.7547 8.30267 33.3673 8.144 33.0313 8.144C32.098 8.144 31.6313 9.02133 31.6313 10.776C31.6313 11.56 31.748 12.1573 31.9813 12.568C32.2147 12.9787 32.546 13.184 32.9753 13.184C33.4047 13.184 33.8107 12.9927 34.1933 12.61Z" fill="#004D43"/>
<path d="M38.0839 8.452L37.8739 7.15C38.5459 6.926 39.3159 6.814 40.1839 6.814C41.2106 6.814 41.9386 7.04733 42.3679 7.514C42.7973 7.97133 43.0119 8.81133 43.0119 10.034V12.666C43.0119 13.058 43.1519 13.254 43.4319 13.254C43.5626 13.254 43.7119 13.2213 43.8799 13.156L44.0059 14.332C43.6513 14.4813 43.2546 14.556 42.8159 14.556C42.1439 14.556 41.7333 14.2713 41.5839 13.702C40.9773 14.2713 40.2726 14.556 39.4699 14.556C38.7513 14.556 38.2006 14.3367 37.8179 13.898C37.4446 13.4593 37.2579 12.8993 37.2579 12.218C37.2579 10.4913 38.2193 9.628 40.1419 9.628C40.5246 9.628 40.9213 9.67467 41.3319 9.768V9.446C41.3319 8.578 40.8419 8.144 39.8619 8.144C39.3299 8.144 38.7373 8.24667 38.0839 8.452ZM41.3319 12.596V10.874C41.0146 10.762 40.7159 10.706 40.4359 10.706C39.4746 10.706 38.9939 11.1587 38.9939 12.064C38.9939 12.428 39.0779 12.7173 39.2459 12.932C39.4139 13.1373 39.6613 13.24 39.9879 13.24C40.4919 13.24 40.9399 13.0253 41.3319 12.596Z" fill="#004D43"/>
<path d="M45.0461 6.954H46.7961V14.416H45.0461V6.954ZM44.9061 5.008C44.9061 4.69067 44.9994 4.44333 45.1861 4.266C45.3727 4.08867 45.6154 4 45.9141 4C46.2407 4 46.4927 4.08867 46.6701 4.266C46.8474 4.434 46.9361 4.68133 46.9361 5.008C46.9361 5.33467 46.8381 5.58667 46.6421 5.764C46.4554 5.932 46.2127 6.016 45.9141 6.016C45.6061 6.016 45.3587 5.92733 45.1721 5.75C44.9947 5.56333 44.9061 5.316 44.9061 5.008Z" fill="#004D43"/>
<path d="M48.9485 8.452L48.7385 7.15C49.4105 6.926 50.1805 6.814 51.0485 6.814C52.0751 6.814 52.8031 7.04733 53.2325 7.514C53.6618 7.97133 53.8765 8.81133 53.8765 10.034V12.666C53.8765 13.058 54.0165 13.254 54.2965 13.254C54.4271 13.254 54.5765 13.2213 54.7445 13.156L54.8705 14.332C54.5158 14.4813 54.1191 14.556 53.6805 14.556C53.0085 14.556 52.5978 14.2713 52.4485 13.702C51.8418 14.2713 51.1371 14.556 50.3345 14.556C49.6158 14.556 49.0651 14.3367 48.6825 13.898C48.3091 13.4593 48.1225 12.8993 48.1225 12.218C48.1225 10.4913 49.0838 9.628 51.0065 9.628C51.3891 9.628 51.7858 9.67467 52.1965 9.768V9.446C52.1965 8.578 51.7065 8.144 50.7265 8.144C50.1945 8.144 49.6018 8.24667 48.9485 8.452ZM52.1965 12.596V10.874C51.8791 10.762 51.5805 10.706 51.3005 10.706C50.3391 10.706 49.8585 11.1587 49.8585 12.064C49.8585 12.428 49.9425 12.7173 50.1105 12.932C50.2785 13.1373 50.5258 13.24 50.8525 13.24C51.3565 13.24 51.8045 13.0253 52.1965 12.596Z" fill="#004D43"/>
<path d="M57.5066 6.954L57.5626 7.696C58.2346 7.108 58.972 6.814 59.7746 6.814C60.9786 6.814 61.66 7.332 61.8186 8.368C61.856 8.60133 61.8746 8.914 61.8746 9.306V14.416H60.1246V9.53C60.1246 9.24067 60.12 9.04933 60.1106 8.956C60.0546 8.49867 59.7466 8.27 59.1866 8.27C58.7013 8.27 58.1973 8.50333 57.6746 8.97V14.416H55.9106V6.954H57.5066Z" fill="#004D43"/>
<path d="M8.228 31.376V28.88H14.832V37.408C13.012 38.2747 11.0707 38.708 9.008 38.708C6.252 38.708 4.224 37.902 2.924 36.29C1.64133 34.678 1 32.1387 1 28.672C1 25.7947 1.598 23.5067 2.794 21.808C4.00733 20.1093 5.87067 19.26 8.384 19.26C10.2387 19.26 11.6513 19.6933 12.622 20.56C13.5927 21.4093 14.2427 22.6313 14.572 24.226L11.478 24.98C11.1833 23.9227 10.802 23.1513 10.334 22.666C9.88333 22.1633 9.19867 21.912 8.28 21.912C5.74933 21.912 4.484 24.1307 4.484 28.568C4.484 29.764 4.54467 30.7867 4.666 31.636C4.78733 32.4853 5.01267 33.2653 5.342 33.976C5.67133 34.6693 6.13933 35.198 6.746 35.562C7.37 35.9087 8.14133 36.082 9.06 36.082C9.996 36.082 10.8367 35.926 11.582 35.614V31.376H8.228Z" fill="#BFD730"/>
<path d="M18.4145 27.268L18.0245 24.85C19.2725 24.434 20.7025 24.226 22.3145 24.226C24.2212 24.226 25.5732 24.6593 26.3705 25.526C27.1678 26.3753 27.5665 27.9353 27.5665 30.206V35.094C27.5665 35.822 27.8265 36.186 28.3465 36.186C28.5892 36.186 28.8665 36.1253 29.1785 36.004L29.4125 38.188C28.7538 38.4653 28.0172 38.604 27.2025 38.604C25.9545 38.604 25.1919 38.0753 24.9145 37.018C23.7878 38.0753 22.4792 38.604 20.9885 38.604C19.6538 38.604 18.6312 38.1967 17.9205 37.382C17.2272 36.5673 16.8805 35.5273 16.8805 34.262C16.8805 31.0553 18.6658 29.452 22.2365 29.452C22.9472 29.452 23.6838 29.5387 24.4465 29.712V29.114C24.4465 27.502 23.5365 26.696 21.7165 26.696C20.7285 26.696 19.6278 26.8867 18.4145 27.268ZM24.4465 34.964V31.766C23.8572 31.558 23.3025 31.454 22.7825 31.454C20.9972 31.454 20.1045 32.2947 20.1045 33.976C20.1045 34.652 20.2605 35.1893 20.5725 35.588C20.8845 35.9693 21.3438 36.16 21.9505 36.16C22.8865 36.16 23.7185 35.7613 24.4465 34.964Z" fill="#BFD730"/>
<path d="M38.4743 25.11V19.65H41.7243V38.344H38.8123L38.7083 37.122C37.755 38.11 36.6197 38.604 35.3023 38.604C33.7943 38.604 32.5897 38.006 31.6883 36.81C30.8043 35.614 30.3623 33.8547 30.3623 31.532C30.3623 30.2493 30.5357 29.0793 30.8823 28.022C31.229 26.9473 31.8097 26.046 32.6243 25.318C33.439 24.59 34.4443 24.226 35.6403 24.226C36.6803 24.226 37.625 24.5207 38.4743 25.11ZM38.5003 34.99V27.58C37.6857 26.9907 36.9663 26.696 36.3423 26.696C34.609 26.696 33.7423 28.3253 33.7423 31.584C33.7423 33.04 33.959 34.1493 34.3923 34.912C34.8257 35.6747 35.441 36.056 36.2383 36.056C37.0357 36.056 37.7897 35.7007 38.5003 34.99Z" fill="#BFD730"/>
<path d="M45.6997 27.268L45.3097 24.85C46.5577 24.434 47.9877 24.226 49.5997 24.226C51.5064 24.226 52.8584 24.6593 53.6557 25.526C54.453 26.3753 54.8517 27.9353 54.8517 30.206V35.094C54.8517 35.822 55.1117 36.186 55.6317 36.186C55.8744 36.186 56.1517 36.1253 56.4637 36.004L56.6977 38.188C56.039 38.4653 55.3024 38.604 54.4877 38.604C53.2397 38.604 52.477 38.0753 52.1997 37.018C51.073 38.0753 49.7644 38.604 48.2737 38.604C46.939 38.604 45.9164 38.1967 45.2057 37.382C44.5124 36.5673 44.1657 35.5273 44.1657 34.262C44.1657 31.0553 45.951 29.452 49.5217 29.452C50.2324 29.452 50.969 29.5387 51.7317 29.712V29.114C51.7317 27.502 50.8217 26.696 49.0017 26.696C48.0137 26.696 46.913 26.8867 45.6997 27.268ZM51.7317 34.964V31.766C51.1424 31.558 50.5877 31.454 50.0677 31.454C48.2824 31.454 47.3897 32.2947 47.3897 33.976C47.3897 34.652 47.5457 35.1893 47.8577 35.588C48.1697 35.9693 48.629 36.16 49.2357 36.16C50.1717 36.16 51.0037 35.7613 51.7317 34.964Z" fill="#BFD730"/>
<path d="M58.6034 24.486H61.8534V38.344H58.6034V24.486ZM58.3434 20.872C58.3434 20.2827 58.5167 19.8233 58.8634 19.494C59.2101 19.1647 59.6607 19 60.2154 19C60.8221 19 61.2901 19.1647 61.6194 19.494C61.9487 19.806 62.1134 20.2653 62.1134 20.872C62.1134 21.4787 61.9314 21.9467 61.5674 22.276C61.2207 22.588 60.7701 22.744 60.2154 22.744C59.6434 22.744 59.1841 22.5793 58.8374 22.25C58.5081 21.9033 58.3434 21.444 58.3434 20.872Z" fill="#BFD730"/>
<path d="M73.8584 33.3039H70.8944V38.8519H69.5834V25.1909H74.1054C75.4354 25.1909 76.4677 25.5013 77.2024 26.1219C77.937 26.7299 78.3044 27.6293 78.3044 28.8199C78.3044 30.1879 77.8927 31.2773 77.0694 32.0879C76.2587 32.8986 75.1884 33.3039 73.8584 33.3039ZM70.8944 32.1449H73.7444C74.783 32.1449 75.5747 31.8789 76.1194 31.3469C76.6767 30.8023 76.9554 30.0233 76.9554 29.0099C76.9554 28.0473 76.702 27.3696 76.1954 26.9769C75.7014 26.5716 74.935 26.3689 73.8964 26.3689H70.8944V32.1449Z" fill="#BFD730"/>
<path d="M83.8384 28.6109C84.7504 28.6109 85.3901 29.1303 85.7574 30.1689L84.7124 30.7389C84.5604 30.4096 84.4021 30.1753 84.2374 30.0359C84.0728 29.8839 83.8321 29.8079 83.5154 29.8079C82.9201 29.8079 82.2424 30.2449 81.4824 31.1189V38.8519H80.2094V28.8199H81.4064V29.9409C82.2171 29.0543 83.0278 28.6109 83.8384 28.6109Z" fill="#BFD730"/>
<path d="M93.8143 33.9689H88.0193C88.0193 36.6289 88.9693 37.9589 90.8693 37.9589C91.7433 37.9589 92.6363 37.7183 93.5483 37.2369L93.6623 38.3769C92.8136 38.8456 91.832 39.0799 90.7173 39.0799C88.0446 39.0799 86.7083 37.3003 86.7083 33.7409C86.7083 31.9803 87.044 30.6883 87.7153 29.8649C88.3866 29.0289 89.3113 28.6109 90.4893 28.6109C91.642 28.6109 92.4843 29.0099 93.0163 29.8079C93.5483 30.5933 93.8143 31.7586 93.8143 33.3039V33.9689ZM92.5033 32.9619C92.5033 31.8979 92.3196 31.0936 91.9523 30.5489C91.5976 29.9916 91.0846 29.7129 90.4133 29.7129C89.6406 29.7129 89.0516 30.0423 88.6463 30.7009C88.241 31.3469 88.0383 32.1006 88.0383 32.9619H92.5033Z" fill="#BFD730"/>
<path d="M100.949 28.6109C102.127 28.6109 102.9 29.0543 103.267 29.9409C104.293 29.0543 105.338 28.6109 106.402 28.6109C107.922 28.6109 108.796 29.2696 109.024 30.5869C109.075 30.8783 109.1 31.2899 109.1 31.8219V38.8519H107.846V31.9929C107.846 31.5243 107.821 31.1823 107.77 30.9669C107.618 30.1689 107.067 29.7699 106.117 29.7699C105.243 29.7699 104.363 30.1879 103.476 31.0239C103.501 31.2266 103.514 31.5623 103.514 32.0309V38.8519H102.26V31.9929C102.26 31.5243 102.235 31.1823 102.184 30.9669C102.057 30.1689 101.557 29.7699 100.683 29.7699C99.6318 29.7699 98.6248 30.2639 97.6621 31.2519V38.8519H96.3891V28.8199H97.6621V30.0549C98.7641 29.0923 99.8598 28.6109 100.949 28.6109Z" fill="#BFD730"/>
<path d="M112.365 28.8199H113.619V38.8519H112.365V28.8199ZM112.156 26.2359C112.156 25.9699 112.232 25.7673 112.384 25.6279C112.536 25.4759 112.732 25.3999 112.973 25.3999C113.53 25.3999 113.809 25.6849 113.809 26.2549C113.809 26.5336 113.733 26.7553 113.581 26.9199C113.429 27.0719 113.226 27.1479 112.973 27.1479C112.732 27.1479 112.536 27.0656 112.384 26.9009C112.232 26.7363 112.156 26.5146 112.156 26.2359Z" fill="#BFD730"/>
<path d="M119.438 39.0419C117.918 39.0419 117.044 38.3896 116.816 37.0849C116.765 36.7936 116.74 36.3819 116.74 35.8499V28.9909L117.994 28.8199V35.6789C117.994 36.1603 118.019 36.5023 118.07 36.7049C118.197 37.5156 118.754 37.9209 119.742 37.9209C120.679 37.9209 121.674 37.4269 122.725 36.4389V28.8199H124.017V38.8519H122.725V37.6169C121.623 38.5669 120.527 39.0419 119.438 39.0419Z" fill="#BFD730"/>
<path d="M131.843 28.6109C133.021 28.6109 133.793 29.0543 134.161 29.9409C135.187 29.0543 136.232 28.6109 137.296 28.6109C138.816 28.6109 139.69 29.2696 139.918 30.5869C139.968 30.8783 139.994 31.2899 139.994 31.8219V38.8519H138.74V31.9929C138.74 31.5243 138.714 31.1823 138.664 30.9669C138.512 30.1689 137.961 29.7699 137.011 29.7699C136.137 29.7699 135.256 30.1879 134.37 31.0239C134.395 31.2266 134.408 31.5623 134.408 32.0309V38.8519H133.154V31.9929C133.154 31.5243 133.128 31.1823 133.078 30.9669C132.951 30.1689 132.451 29.7699 131.577 29.7699C130.525 29.7699 129.518 30.2639 128.556 31.2519V38.8519H127.283V28.8199H128.556V30.0549C129.658 29.0923 130.753 28.6109 131.843 28.6109Z" fill="#BFD730"/>
</svg>
