<svg width="240" height="48" viewBox="0 0 240 48" fill="none" xmlns="http://www.w3.org/2000/svg">
<path d="M2.792 10.5005V14.121H1V4.26046H4.528C5.592 4.26046 6.418 4.50275 7.006 4.98732C7.594 5.47189 7.888 6.17589 7.888 7.09932C7.888 8.13246 7.566 8.95989 6.922 9.5816C6.28733 10.1942 5.42867 10.5005 4.346 10.5005H2.792ZM2.792 9.14275H4.15C4.77533 9.14275 5.24667 8.98275 5.564 8.66274C5.89067 8.3336 6.054 7.85817 6.054 7.23646C6.054 6.14846 5.466 5.60446 4.29 5.60446H2.792V9.14275Z" fill="white"/>
<path d="M14.1077 10.761H10.1177C10.1271 11.4467 10.2857 11.9725 10.5937 12.3382C10.9017 12.6947 11.3264 12.873 11.8677 12.873C12.5304 12.873 13.1977 12.6902 13.8697 12.3245L13.9677 13.7645C13.3331 14.1027 12.5724 14.2719 11.6857 14.2719C9.45505 14.2719 8.33972 12.9782 8.33972 10.3907C8.33972 9.12903 8.61505 8.19646 9.16572 7.59303C9.72572 6.98046 10.4584 6.67417 11.3637 6.67417C13.1931 6.67417 14.1077 7.81703 14.1077 10.1027V10.761ZM12.4557 9.69132C12.4557 8.52103 12.0824 7.93589 11.3357 7.93589C10.9344 7.93589 10.6311 8.10046 10.4257 8.4296C10.2297 8.75875 10.1317 9.17932 10.1317 9.69132H12.4557Z" fill="white"/>
<path d="M19.5713 7.2776L19.6413 6.81132H21.2093V14.0113C21.2093 16.1325 20.2107 17.193 18.2133 17.193C17.2147 17.193 16.342 17.0147 15.5953 16.6582L15.8613 15.1633C16.1507 15.337 16.5007 15.4787 16.9113 15.5885C17.3313 15.7073 17.7187 15.7667 18.0733 15.7667C19.0347 15.7667 19.5153 15.1542 19.5153 13.929V13.4902C19.058 13.9747 18.47 14.217 17.7513 14.217C16.9393 14.217 16.2907 13.9107 15.8053 13.2982C15.3293 12.6765 15.0913 11.753 15.0913 10.5279C15.0913 9.85132 15.18 9.23417 15.3573 8.67646C15.544 8.11875 15.852 7.64789 16.2813 7.26389C16.72 6.87075 17.252 6.67417 17.8773 6.67417C18.5027 6.67417 19.0673 6.87532 19.5713 7.2776ZM19.4593 12.297V8.47075C19.0207 8.15989 18.6287 8.00446 18.2833 8.00446C17.3687 8.00446 16.9113 8.85475 16.9113 10.5553C16.9113 12.0913 17.3547 12.8593 18.2413 12.8593C18.6707 12.8593 19.0767 12.6719 19.4593 12.297Z" fill="white"/>
<path d="M23.3639 8.27875L23.1539 7.00332C23.8259 6.78389 24.5959 6.67417 25.4639 6.67417C26.4906 6.67417 27.2186 6.90275 27.6479 7.35989C28.0772 7.80789 28.2919 8.63074 28.2919 9.82846V12.4067C28.2919 12.7907 28.4319 12.9827 28.7119 12.9827C28.8426 12.9827 28.9919 12.9507 29.1599 12.8867L29.2859 14.0387C28.9312 14.185 28.5346 14.2582 28.0959 14.2582C27.4239 14.2582 27.0132 13.9793 26.8639 13.4216C26.2572 13.9793 25.5526 14.2582 24.7499 14.2582C24.0312 14.2582 23.4806 14.0433 23.0979 13.6136C22.7246 13.1839 22.5379 12.6353 22.5379 11.9679C22.5379 10.2765 23.4992 9.43075 25.4219 9.43075C25.8046 9.43075 26.2012 9.47646 26.6119 9.56789V9.25246C26.6119 8.40217 26.1219 7.97703 25.1419 7.97703C24.6099 7.97703 24.0172 8.0776 23.3639 8.27875ZM26.6119 12.3382V10.6513C26.2946 10.5416 25.9959 10.4867 25.7159 10.4867C24.7546 10.4867 24.2739 10.9302 24.2739 11.817C24.2739 12.1736 24.3579 12.457 24.5259 12.6673C24.6939 12.8685 24.9412 12.969 25.2679 12.969C25.7719 12.969 26.2199 12.7587 26.6119 12.3382Z" fill="white"/>
<path d="M34.1793 7.14046V4.26046H35.9293V14.121H34.3613L34.3053 13.4765C33.792 13.9976 33.1807 14.2582 32.4713 14.2582C31.6593 14.2582 31.0107 13.9427 30.5253 13.3119C30.0493 12.681 29.8113 11.753 29.8113 10.5279C29.8113 9.85132 29.9047 9.23417 30.0913 8.67646C30.278 8.1096 30.5907 7.63417 31.0293 7.25017C31.468 6.86617 32.0093 6.67417 32.6533 6.67417C33.2133 6.67417 33.722 6.8296 34.1793 7.14046ZM34.1933 12.3519V8.44332C33.7547 8.13246 33.3673 7.97703 33.0313 7.97703C32.098 7.97703 31.6313 8.83646 31.6313 10.5553C31.6313 11.3233 31.748 11.9085 31.9813 12.3107C32.2147 12.713 32.546 12.9142 32.9753 12.9142C33.4047 12.9142 33.8107 12.7267 34.1933 12.3519Z" fill="white"/>
<path d="M38.0839 8.27875L37.8739 7.00332C38.5459 6.78389 39.3159 6.67417 40.1839 6.67417C41.2106 6.67417 41.9386 6.90275 42.3679 7.35989C42.7973 7.80789 43.0119 8.63074 43.0119 9.82846V12.4067C43.0119 12.7907 43.1519 12.9827 43.4319 12.9827C43.5626 12.9827 43.7119 12.9507 43.8799 12.8867L44.0059 14.0387C43.6513 14.185 43.2546 14.2582 42.8159 14.2582C42.1439 14.2582 41.7333 13.9793 41.5839 13.4216C40.9773 13.9793 40.2726 14.2582 39.4699 14.2582C38.7513 14.2582 38.2006 14.0433 37.8179 13.6136C37.4446 13.1839 37.2579 12.6353 37.2579 11.9679C37.2579 10.2765 38.2193 9.43075 40.1419 9.43075C40.5246 9.43075 40.9213 9.47646 41.3319 9.56789V9.25246C41.3319 8.40217 40.8419 7.97703 39.8619 7.97703C39.3299 7.97703 38.7373 8.0776 38.0839 8.27875ZM41.3319 12.3382V10.6513C41.0146 10.5416 40.7159 10.4867 40.4359 10.4867C39.4746 10.4867 38.9939 10.9302 38.9939 11.817C38.9939 12.1736 39.0779 12.457 39.2459 12.6673C39.4139 12.8685 39.6613 12.969 39.9879 12.969C40.4919 12.969 40.9399 12.7587 41.3319 12.3382Z" fill="white"/>
<path d="M45.0461 6.81132H46.7961V14.121H45.0461V6.81132ZM44.9061 4.90503C44.9061 4.59417 44.9994 4.35189 45.1861 4.17817C45.3727 4.00446 45.6154 3.9176 45.9141 3.9176C46.2407 3.9176 46.4927 4.00446 46.6701 4.17817C46.8474 4.34275 46.9361 4.58503 46.9361 4.90503C46.9361 5.22503 46.8381 5.47189 46.6421 5.6456C46.4554 5.81017 46.2127 5.89246 45.9141 5.89246C45.6061 5.89246 45.3587 5.8056 45.1721 5.63189C44.9947 5.44903 44.9061 5.20674 44.9061 4.90503Z" fill="white"/>
<path d="M48.9485 8.27875L48.7385 7.00332C49.4105 6.78389 50.1805 6.67417 51.0485 6.67417C52.0751 6.67417 52.8031 6.90275 53.2325 7.35989C53.6618 7.80789 53.8765 8.63074 53.8765 9.82846V12.4067C53.8765 12.7907 54.0165 12.9827 54.2965 12.9827C54.4271 12.9827 54.5765 12.9507 54.7445 12.8867L54.8705 14.0387C54.5158 14.185 54.1191 14.2582 53.6805 14.2582C53.0085 14.2582 52.5978 13.9793 52.4485 13.4216C51.8418 13.9793 51.1371 14.2582 50.3345 14.2582C49.6158 14.2582 49.0651 14.0433 48.6825 13.6136C48.3091 13.1839 48.1225 12.6353 48.1225 11.9679C48.1225 10.2765 49.0838 9.43075 51.0065 9.43075C51.3891 9.43075 51.7858 9.47646 52.1965 9.56789V9.25246C52.1965 8.40217 51.7065 7.97703 50.7265 7.97703C50.1945 7.97703 49.6018 8.0776 48.9485 8.27875ZM52.1965 12.3382V10.6513C51.8791 10.5416 51.5805 10.4867 51.3005 10.4867C50.3391 10.4867 49.8585 10.9302 49.8585 11.817C49.8585 12.1736 49.9425 12.457 50.1105 12.6673C50.2785 12.8685 50.5258 12.969 50.8525 12.969C51.3565 12.969 51.8045 12.7587 52.1965 12.3382Z" fill="white"/>
<path d="M57.5066 6.81132L57.5626 7.53817C58.2346 6.96217 58.972 6.67417 59.7746 6.67417C60.9786 6.67417 61.66 7.1816 61.8186 8.19646C61.856 8.42503 61.8746 8.73132 61.8746 9.11532V14.121H60.1246V9.33475C60.1246 9.05132 60.12 8.86389 60.1106 8.77246C60.0546 8.32446 59.7466 8.10046 59.1866 8.10046C58.7013 8.10046 58.1973 8.32903 57.6746 8.78617V14.121H55.9106V6.81132H57.5066Z" fill="white"/>
<path d="M5.31201 31.2012V37.9251H1.98401V19.6126H8.53601C10.512 19.6126 12.046 20.0626 13.138 20.9625C14.23 21.8624 14.776 23.1698 14.776 24.8848C14.776 26.8035 14.178 28.3401 12.982 29.4947C11.8033 30.6324 10.2087 31.2012 8.19801 31.2012H5.31201ZM5.31201 28.6797H7.83401C8.99534 28.6797 9.87068 28.3826 10.46 27.7883C11.0667 27.177 11.37 26.2941 11.37 25.1395C11.37 23.1189 10.278 22.1086 8.09401 22.1086H5.31201V28.6797Z" fill="#72BF44"/>
<path d="M17.205 24.3499H20.455V37.9251H17.205V24.3499ZM16.945 20.8097C16.945 20.2324 17.1183 19.7824 17.465 19.4598C17.8116 19.1372 18.2623 18.9759 18.817 18.9759C19.4236 18.9759 19.8916 19.1372 20.221 19.4598C20.5503 19.7654 20.715 20.2154 20.715 20.8097C20.715 21.404 20.533 21.8624 20.169 22.185C19.8223 22.4907 19.3716 22.6435 18.817 22.6435C18.245 22.6435 17.7856 22.4822 17.439 22.1596C17.1096 21.82 16.945 21.37 16.945 20.8097Z" fill="#72BF44"/>
<path d="M26.7403 24.3499L26.8443 25.6998C28.0923 24.6301 29.4616 24.0952 30.9523 24.0952C33.1883 24.0952 34.4536 25.0376 34.7483 26.9223C34.8176 27.3468 34.8523 27.9156 34.8523 28.6288V37.9251H31.6023V29.0363C31.6023 28.5099 31.5936 28.1618 31.5763 27.9921C31.4723 27.1601 30.9003 26.7441 29.8603 26.7441C28.9589 26.7441 28.0229 27.1685 27.0523 28.0175V37.9251H23.7763V24.3499H26.7403Z" fill="#72BF44"/>
<path d="M41.4439 24.3499V39.3005C41.4439 42.187 40.0572 43.6303 37.2839 43.6303C36.0705 43.6303 35.0046 43.418 34.0859 42.9935L34.5799 40.3702C35.4465 40.7777 36.2092 40.9814 36.8679 40.9814C37.3186 40.9814 37.6479 40.8371 37.8559 40.5485C38.0639 40.2768 38.1679 39.7759 38.1679 39.0458V24.3499H41.4439ZM37.9079 20.8097C37.9079 20.2324 38.0812 19.7824 38.4279 19.4598C38.7746 19.1372 39.2252 18.9759 39.7799 18.9759C40.3866 18.9759 40.8545 19.1372 41.1839 19.4598C41.5132 19.7654 41.6779 20.2154 41.6779 20.8097C41.6779 21.404 41.4959 21.8624 41.1319 22.185C40.7852 22.4907 40.3345 22.6435 39.7799 22.6435C39.2079 22.6435 38.7486 22.4822 38.4019 22.1596C38.0725 21.82 37.9079 21.37 37.9079 20.8097Z" fill="#72BF44"/>
<path d="M45.4146 27.0752L45.0246 24.7065C46.2726 24.299 47.7026 24.0952 49.3146 24.0952C51.2212 24.0952 52.5732 24.5197 53.3706 25.3687C54.1679 26.2007 54.5666 27.7289 54.5666 29.9532V34.7414C54.5666 35.4546 54.8266 35.8112 55.3466 35.8112C55.5892 35.8112 55.8666 35.7517 56.1786 35.6329L56.4126 37.7723C55.7539 38.044 55.0172 38.1798 54.2026 38.1798C52.9546 38.1798 52.1919 37.6619 51.9146 36.6262C50.7879 37.6619 49.4792 38.1798 47.9886 38.1798C46.6539 38.1798 45.6312 37.7808 44.9206 36.9827C44.2272 36.1847 43.8806 35.1659 43.8806 33.9264C43.8806 30.7852 45.6659 29.2146 49.2366 29.2146C49.9472 29.2146 50.6839 29.2995 51.4466 29.4693V28.8835C51.4466 27.3044 50.5366 26.5148 48.7166 26.5148C47.7286 26.5148 46.6279 26.7016 45.4146 27.0752ZM51.4466 34.6141V31.4814C50.8572 31.2776 50.3026 31.1757 49.7826 31.1757C47.9972 31.1757 47.1046 31.9992 47.1046 33.6463C47.1046 34.3085 47.2606 34.8348 47.5726 35.2254C47.8846 35.5989 48.3439 35.7857 48.9506 35.7857C49.8866 35.7857 50.7186 35.3952 51.4466 34.6141Z" fill="#72BF44"/>
<path d="M65.4943 24.0952C67.037 24.0952 68.1116 24.6131 68.7183 25.6489C70.0183 24.6131 71.4223 24.0952 72.9303 24.0952C74.4036 24.0952 75.4176 24.4773 75.9723 25.2414C76.5443 25.9885 76.8303 27.1176 76.8303 28.6288V37.9251H73.5803V29.0363C73.5803 28.5948 73.5543 28.2213 73.5023 27.9156C73.3463 27.1346 72.809 26.7441 71.8903 26.7441C71.0236 26.7441 70.1483 27.1091 69.2643 27.8392C69.2816 28.1109 69.2903 28.5778 69.2903 29.2401V37.9251H66.0663V29.0363C66.0663 28.5439 66.049 28.2043 66.0143 28.0175C65.9276 27.5591 65.763 27.2365 65.5203 27.0497C65.2776 26.8459 64.931 26.7441 64.4803 26.7441C63.4923 26.7441 62.5303 27.1685 61.5943 28.0175V37.9251H58.3183V24.3499H61.2823L61.3863 25.6743C62.617 24.6216 63.9863 24.0952 65.4943 24.0952Z" fill="#72BF44"/>
<path d="M80.7993 27.0752L80.4093 24.7065C81.6573 24.299 83.0874 24.0952 84.6994 24.0952C86.606 24.0952 87.958 24.5197 88.7554 25.3687C89.5527 26.2007 89.9514 27.7289 89.9514 29.9532V34.7414C89.9514 35.4546 90.2114 35.8112 90.7314 35.8112C90.974 35.8112 91.2514 35.7517 91.5634 35.6329L91.7973 37.7723C91.1387 38.044 90.402 38.1798 89.5874 38.1798C88.3394 38.1798 87.5767 37.6619 87.2993 36.6262C86.1727 37.6619 84.864 38.1798 83.3734 38.1798C82.0387 38.1798 81.016 37.7808 80.3054 36.9827C79.612 36.1847 79.2654 35.1659 79.2654 33.9264C79.2654 30.7852 81.0507 29.2146 84.6214 29.2146C85.332 29.2146 86.0687 29.2995 86.8313 29.4693V28.8835C86.8313 27.3044 85.9213 26.5148 84.1013 26.5148C83.1133 26.5148 82.0127 26.7016 80.7993 27.0752ZM86.8313 34.6141V31.4814C86.242 31.2776 85.6874 31.1757 85.1674 31.1757C83.382 31.1757 82.4893 31.9992 82.4893 33.6463C82.4893 34.3085 82.6454 34.8348 82.9574 35.2254C83.2693 35.5989 83.7287 35.7857 84.3354 35.7857C85.2714 35.7857 86.1033 35.3952 86.8313 34.6141Z" fill="#72BF44"/>
<path d="M96.6671 24.3499L96.7711 25.6998C98.0191 24.6301 99.3884 24.0952 100.879 24.0952C103.115 24.0952 104.38 25.0376 104.675 26.9223C104.744 27.3468 104.779 27.9156 104.779 28.6288V37.9251H101.529V29.0363C101.529 28.5099 101.52 28.1618 101.503 27.9921C101.399 27.1601 100.827 26.7441 99.7871 26.7441C98.8857 26.7441 97.9497 27.1685 96.9791 28.0175V37.9251H93.7031V24.3499H96.6671Z" fill="#72BF44"/>
<path d="M111.987 24.5429V33.272C111.987 34.3143 112.088 35.0712 112.291 35.5427C112.709 36.4734 113.665 36.9387 115.16 36.9387C116.743 36.9387 117.731 36.4609 118.124 35.5055C118.301 35.0464 118.39 34.2027 118.39 32.9743V24.5429H119.701V33.3279C119.701 34.3702 119.625 35.1395 119.473 35.6358C118.916 37.3109 117.478 38.1485 115.16 38.1485C112.905 38.1485 111.506 37.404 110.961 35.915C110.771 35.3938 110.676 34.5253 110.676 33.3093V24.5429H111.987Z" fill="#72BF44"/>
<path d="M121.914 37.1062L122.256 35.9522C122.534 36.2004 122.94 36.4485 123.472 36.6967C124.004 36.9449 124.51 37.0689 124.992 37.0689C125.612 37.0689 126.113 36.9325 126.493 36.6595C126.873 36.3865 127.063 35.9894 127.063 35.4683C127.063 34.9844 126.892 34.5997 126.55 34.3143C126.208 34.0289 125.79 33.8118 125.296 33.6629C124.802 33.514 124.308 33.3527 123.814 33.179C123.332 33.0053 122.921 32.7075 122.579 32.2856C122.237 31.8637 122.066 31.3116 122.066 30.6291C122.066 29.7854 122.376 29.1215 122.997 28.6376C123.617 28.1413 124.377 27.8931 125.277 27.8931C126.201 27.8931 126.923 28.1227 127.443 28.5818C127.975 29.0285 128.298 29.5558 128.412 30.1638L127.386 30.5733C127.234 30.0521 126.968 29.6613 126.588 29.4007C126.208 29.1277 125.764 28.9912 125.258 28.9912C124.726 28.9912 124.276 29.1215 123.909 29.3821C123.541 29.6427 123.358 30.0397 123.358 30.5733C123.358 31.0572 123.529 31.448 123.871 31.7458C124.213 32.0312 124.624 32.2484 125.106 32.3973C125.6 32.5462 126.094 32.7075 126.588 32.8812C127.082 33.0425 127.5 33.3217 127.842 33.7187C128.184 34.1158 128.355 34.6307 128.355 35.2636C128.355 36.1073 128.057 36.8022 127.462 37.3481C126.879 37.8817 126.049 38.1485 124.973 38.1485C124.365 38.1485 123.763 38.0368 123.168 37.8134C122.585 37.5777 122.167 37.3419 121.914 37.1062Z" fill="#72BF44"/>
<path d="M131.086 29.3263L130.953 28.2281C131.777 28.0048 132.733 27.8931 133.822 27.8931C135.925 27.8931 136.976 28.9106 136.976 30.9455V36.2128C136.976 36.5106 137.027 36.7215 137.128 36.8456C137.242 36.9697 137.426 37.0317 137.679 37.0317C137.882 37.0317 138.154 36.9697 138.496 36.8456L138.61 37.8693C138.091 38.0306 137.673 38.1112 137.356 38.1112C136.913 38.1112 136.558 37.9996 136.292 37.7762C136.026 37.5405 135.874 37.2551 135.836 36.92C134.924 37.7142 133.962 38.1112 132.948 38.1112C132.024 38.1112 131.321 37.8258 130.839 37.2551C130.358 36.6843 130.117 35.9584 130.117 35.0774C130.117 33.9235 130.453 33.0735 131.124 32.5276C131.808 31.9692 132.758 31.69 133.974 31.69C134.582 31.69 135.165 31.752 135.722 31.8761V31.1689C135.722 30.3996 135.551 29.8412 135.209 29.4938C134.867 29.1463 134.272 28.9726 133.423 28.9726C132.625 28.9726 131.846 29.0905 131.086 29.3263ZM135.722 35.9336L135.741 32.844C135.184 32.7075 134.665 32.6392 134.183 32.6392C133.271 32.6392 132.587 32.8254 132.131 33.1976C131.688 33.5698 131.466 34.184 131.466 35.0402C131.466 35.611 131.612 36.0825 131.903 36.4547C132.207 36.827 132.651 37.0131 133.233 37.0131C134.107 37.0131 134.937 36.6533 135.722 35.9336Z" fill="#72BF44"/>
<path d="M145.123 27.8931C146.631 27.8931 147.511 28.5383 147.764 29.8288C147.802 30.0397 147.821 30.443 147.821 31.0386V37.9251H146.567V31.2061C146.567 30.7718 146.548 30.4368 146.51 30.201C146.358 29.4193 145.776 29.0285 144.762 29.0285C143.838 29.0285 142.862 29.5062 141.836 30.4616V37.9251H140.563V24.5429H141.836V29.3263C142.913 28.3708 144.009 27.8931 145.123 27.8931Z" fill="#72BF44"/>
<path d="M151.274 29.3263L151.141 28.2281C151.964 28.0048 152.92 27.8931 154.01 27.8931C156.112 27.8931 157.164 28.9106 157.164 30.9455V36.2128C157.164 36.5106 157.214 36.7215 157.316 36.8456C157.43 36.9697 157.613 37.0317 157.867 37.0317C158.069 37.0317 158.342 36.9697 158.684 36.8456L158.798 37.8693C158.278 38.0306 157.86 38.1112 157.544 38.1112C157.1 38.1112 156.746 37.9996 156.48 37.7762C156.214 37.5405 156.062 37.2551 156.024 36.92C155.112 37.7142 154.149 38.1112 153.136 38.1112C152.211 38.1112 151.508 37.8258 151.027 37.2551C150.545 36.6843 150.305 35.9584 150.305 35.0774C150.305 33.9235 150.64 33.0735 151.312 32.5276C151.996 31.9692 152.946 31.69 154.162 31.69C154.77 31.69 155.352 31.752 155.91 31.8761V31.1689C155.91 30.3996 155.739 29.8412 155.397 29.4938C155.055 29.1463 154.459 28.9726 153.611 28.9726C152.813 28.9726 152.034 29.0905 151.274 29.3263ZM155.91 35.9336L155.929 32.844C155.371 32.7075 154.852 32.6392 154.371 32.6392C153.459 32.6392 152.775 32.8254 152.319 33.1976C151.875 33.5698 151.654 34.184 151.654 35.0402C151.654 35.611 151.799 36.0825 152.091 36.4547C152.395 36.827 152.838 37.0131 153.421 37.0131C154.295 37.0131 155.124 36.6533 155.91 35.9336Z" fill="#72BF44"/>
</svg>
