<svg width="240" height="48" viewBox="0 0 240 48" fill="none" xmlns="http://www.w3.org/2000/svg">
<path d="M2.792 10.72V14.416H1V4.35H4.528C5.592 4.35 6.418 4.59733 7.006 5.092C7.594 5.58667 7.888 6.30533 7.888 7.248C7.888 8.30267 7.566 9.14733 6.922 9.782C6.28733 10.4073 5.42867 10.72 4.346 10.72H2.792ZM2.792 9.334H4.15C4.77533 9.334 5.24667 9.17067 5.564 8.844C5.89067 8.508 6.054 8.02267 6.054 7.388C6.054 6.27733 5.466 5.722 4.29 5.722H2.792V9.334Z" fill="#004D43"/>
<path d="M14.1077 10.986H10.1177C10.1271 11.686 10.2857 12.2227 10.5937 12.596C10.9017 12.96 11.3264 13.142 11.8677 13.142C12.5304 13.142 13.1977 12.9553 13.8697 12.582L13.9677 14.052C13.3331 14.3973 12.5724 14.57 11.6857 14.57C9.45505 14.57 8.33972 13.2493 8.33972 10.608C8.33972 9.32 8.61505 8.368 9.16572 7.752C9.72572 7.12667 10.4584 6.814 11.3637 6.814C13.1931 6.814 14.1077 7.98067 14.1077 10.314V10.986ZM12.4557 9.894C12.4557 8.69933 12.0824 8.102 11.3357 8.102C10.9344 8.102 10.6311 8.27 10.4257 8.606C10.2297 8.942 10.1317 9.37133 10.1317 9.894H12.4557Z" fill="#004D43"/>
<path d="M19.5713 7.43L19.6413 6.954H21.2093V14.304C21.2093 16.4693 20.2107 17.552 18.2133 17.552C17.2147 17.552 16.342 17.37 15.5953 17.006L15.8613 15.48C16.1507 15.6573 16.5007 15.802 16.9113 15.914C17.3313 16.0353 17.7187 16.096 18.0733 16.096C19.0347 16.096 19.5153 15.4707 19.5153 14.22V13.772C19.058 14.2667 18.47 14.514 17.7513 14.514C16.9393 14.514 16.2907 14.2013 15.8053 13.576C15.3293 12.9413 15.0913 11.9987 15.0913 10.748C15.0913 10.0573 15.18 9.42733 15.3573 8.858C15.544 8.28867 15.852 7.808 16.2813 7.416C16.72 7.01467 17.252 6.814 17.8773 6.814C18.5027 6.814 19.0673 7.01933 19.5713 7.43ZM19.4593 12.554V8.648C19.0207 8.33067 18.6287 8.172 18.2833 8.172C17.3687 8.172 16.9113 9.04 16.9113 10.776C16.9113 12.344 17.3547 13.128 18.2413 13.128C18.6707 13.128 19.0767 12.9367 19.4593 12.554Z" fill="#004D43"/>
<path d="M23.3639 8.452L23.1539 7.15C23.8259 6.926 24.5959 6.814 25.4639 6.814C26.4906 6.814 27.2186 7.04733 27.6479 7.514C28.0772 7.97133 28.2919 8.81133 28.2919 10.034V12.666C28.2919 13.058 28.4319 13.254 28.7119 13.254C28.8426 13.254 28.9919 13.2213 29.1599 13.156L29.2859 14.332C28.9312 14.4813 28.5346 14.556 28.0959 14.556C27.4239 14.556 27.0132 14.2713 26.8639 13.702C26.2572 14.2713 25.5526 14.556 24.7499 14.556C24.0312 14.556 23.4806 14.3367 23.0979 13.898C22.7246 13.4593 22.5379 12.8993 22.5379 12.218C22.5379 10.4913 23.4992 9.628 25.4219 9.628C25.8046 9.628 26.2012 9.67467 26.6119 9.768V9.446C26.6119 8.578 26.1219 8.144 25.1419 8.144C24.6099 8.144 24.0172 8.24667 23.3639 8.452ZM26.6119 12.596V10.874C26.2946 10.762 25.9959 10.706 25.7159 10.706C24.7546 10.706 24.2739 11.1587 24.2739 12.064C24.2739 12.428 24.3579 12.7173 24.5259 12.932C24.6939 13.1373 24.9412 13.24 25.2679 13.24C25.7719 13.24 26.2199 13.0253 26.6119 12.596Z" fill="#004D43"/>
<path d="M34.1793 7.29V4.35H35.9293V14.416H34.3613L34.3053 13.758C33.792 14.29 33.1807 14.556 32.4713 14.556C31.6593 14.556 31.0107 14.234 30.5253 13.59C30.0493 12.946 29.8113 11.9987 29.8113 10.748C29.8113 10.0573 29.9047 9.42733 30.0913 8.858C30.278 8.27933 30.5907 7.794 31.0293 7.402C31.468 7.01 32.0093 6.814 32.6533 6.814C33.2133 6.814 33.722 6.97267 34.1793 7.29ZM34.1933 12.61V8.62C33.7547 8.30267 33.3673 8.144 33.0313 8.144C32.098 8.144 31.6313 9.02133 31.6313 10.776C31.6313 11.56 31.748 12.1573 31.9813 12.568C32.2147 12.9787 32.546 13.184 32.9753 13.184C33.4047 13.184 33.8107 12.9927 34.1933 12.61Z" fill="#004D43"/>
<path d="M38.0839 8.452L37.8739 7.15C38.5459 6.926 39.3159 6.814 40.1839 6.814C41.2106 6.814 41.9386 7.04733 42.3679 7.514C42.7973 7.97133 43.0119 8.81133 43.0119 10.034V12.666C43.0119 13.058 43.1519 13.254 43.4319 13.254C43.5626 13.254 43.7119 13.2213 43.8799 13.156L44.0059 14.332C43.6513 14.4813 43.2546 14.556 42.8159 14.556C42.1439 14.556 41.7333 14.2713 41.5839 13.702C40.9773 14.2713 40.2726 14.556 39.4699 14.556C38.7513 14.556 38.2006 14.3367 37.8179 13.898C37.4446 13.4593 37.2579 12.8993 37.2579 12.218C37.2579 10.4913 38.2193 9.628 40.1419 9.628C40.5246 9.628 40.9213 9.67467 41.3319 9.768V9.446C41.3319 8.578 40.8419 8.144 39.8619 8.144C39.3299 8.144 38.7373 8.24667 38.0839 8.452ZM41.3319 12.596V10.874C41.0146 10.762 40.7159 10.706 40.4359 10.706C39.4746 10.706 38.9939 11.1587 38.9939 12.064C38.9939 12.428 39.0779 12.7173 39.2459 12.932C39.4139 13.1373 39.6613 13.24 39.9879 13.24C40.4919 13.24 40.9399 13.0253 41.3319 12.596Z" fill="#004D43"/>
<path d="M45.0461 6.954H46.7961V14.416H45.0461V6.954ZM44.9061 5.008C44.9061 4.69067 44.9994 4.44333 45.1861 4.266C45.3727 4.08867 45.6154 4 45.9141 4C46.2407 4 46.4927 4.08867 46.6701 4.266C46.8474 4.434 46.9361 4.68133 46.9361 5.008C46.9361 5.33467 46.8381 5.58667 46.6421 5.764C46.4554 5.932 46.2127 6.016 45.9141 6.016C45.6061 6.016 45.3587 5.92733 45.1721 5.75C44.9947 5.56333 44.9061 5.316 44.9061 5.008Z" fill="#004D43"/>
<path d="M48.9485 8.452L48.7385 7.15C49.4105 6.926 50.1805 6.814 51.0485 6.814C52.0751 6.814 52.8031 7.04733 53.2325 7.514C53.6618 7.97133 53.8765 8.81133 53.8765 10.034V12.666C53.8765 13.058 54.0165 13.254 54.2965 13.254C54.4271 13.254 54.5765 13.2213 54.7445 13.156L54.8705 14.332C54.5158 14.4813 54.1191 14.556 53.6805 14.556C53.0085 14.556 52.5978 14.2713 52.4485 13.702C51.8418 14.2713 51.1371 14.556 50.3345 14.556C49.6158 14.556 49.0651 14.3367 48.6825 13.898C48.3091 13.4593 48.1225 12.8993 48.1225 12.218C48.1225 10.4913 49.0838 9.628 51.0065 9.628C51.3891 9.628 51.7858 9.67467 52.1965 9.768V9.446C52.1965 8.578 51.7065 8.144 50.7265 8.144C50.1945 8.144 49.6018 8.24667 48.9485 8.452ZM52.1965 12.596V10.874C51.8791 10.762 51.5805 10.706 51.3005 10.706C50.3391 10.706 49.8585 11.1587 49.8585 12.064C49.8585 12.428 49.9425 12.7173 50.1105 12.932C50.2785 13.1373 50.5258 13.24 50.8525 13.24C51.3565 13.24 51.8045 13.0253 52.1965 12.596Z" fill="#004D43"/>
<path d="M57.5066 6.954L57.5626 7.696C58.2346 7.108 58.972 6.814 59.7746 6.814C60.9786 6.814 61.66 7.332 61.8186 8.368C61.856 8.60133 61.8746 8.914 61.8746 9.306V14.416H60.1246V9.53C60.1246 9.24067 60.12 9.04933 60.1106 8.956C60.0546 8.49867 59.7466 8.27 59.1866 8.27C58.7013 8.27 58.1973 8.50333 57.6746 8.97V14.416H55.9106V6.954H57.5066Z" fill="#004D43"/>
<path d="M5.31201 31.852V38.716H1.98401V20.022H8.53601C10.512 20.022 12.046 20.4813 13.138 21.4C14.23 22.3187 14.776 23.6533 14.776 25.404C14.776 27.3627 14.178 28.9313 12.982 30.11C11.8033 31.2713 10.2087 31.852 8.19801 31.852H5.31201ZM5.31201 29.278H7.83401C8.99534 29.278 9.87068 28.9747 10.46 28.368C11.0667 27.744 11.37 26.8427 11.37 25.664C11.37 23.6013 10.278 22.57 8.09401 22.57H5.31201V29.278Z" fill="#72BF44"/>
<path d="M17.205 24.858H20.455V38.716H17.205V24.858ZM16.945 21.244C16.945 20.6547 17.1183 20.1953 17.465 19.866C17.8116 19.5367 18.2623 19.372 18.817 19.372C19.4236 19.372 19.8916 19.5367 20.221 19.866C20.5503 20.178 20.715 20.6373 20.715 21.244C20.715 21.8507 20.533 22.3187 20.169 22.648C19.8223 22.96 19.3716 23.116 18.817 23.116C18.245 23.116 17.7856 22.9513 17.439 22.622C17.1096 22.2753 16.945 21.816 16.945 21.244Z" fill="#72BF44"/>
<path d="M26.7403 24.858L26.8443 26.236C28.0923 25.144 29.4616 24.598 30.9523 24.598C33.1883 24.598 34.4536 25.56 34.7483 27.484C34.8176 27.9173 34.8523 28.498 34.8523 29.226V38.716H31.6023V29.642C31.6023 29.1047 31.5936 28.7493 31.5763 28.576C31.4723 27.7267 30.9003 27.302 29.8603 27.302C28.9589 27.302 28.0229 27.7353 27.0523 28.602V38.716H23.7763V24.858H26.7403Z" fill="#72BF44"/>
<path d="M41.4439 24.858V40.12C41.4439 43.0667 40.0572 44.54 37.2839 44.54C36.0705 44.54 35.0046 44.3233 34.0859 43.89L34.5799 41.212C35.4465 41.628 36.2092 41.836 36.8679 41.836C37.3186 41.836 37.6479 41.6887 37.8559 41.394C38.0639 41.1167 38.1679 40.6053 38.1679 39.86V24.858H41.4439ZM37.9079 21.244C37.9079 20.6547 38.0812 20.1953 38.4279 19.866C38.7746 19.5367 39.2252 19.372 39.7799 19.372C40.3866 19.372 40.8545 19.5367 41.1839 19.866C41.5132 20.178 41.6779 20.6373 41.6779 21.244C41.6779 21.8507 41.4959 22.3187 41.1319 22.648C40.7852 22.96 40.3345 23.116 39.7799 23.116C39.2079 23.116 38.7486 22.9513 38.4019 22.622C38.0725 22.2753 37.9079 21.816 37.9079 21.244Z" fill="#72BF44"/>
<path d="M45.4146 27.64L45.0246 25.222C46.2726 24.806 47.7026 24.598 49.3146 24.598C51.2212 24.598 52.5732 25.0313 53.3706 25.898C54.1679 26.7473 54.5666 28.3073 54.5666 30.578V35.466C54.5666 36.194 54.8266 36.558 55.3466 36.558C55.5892 36.558 55.8666 36.4973 56.1786 36.376L56.4126 38.56C55.7539 38.8373 55.0172 38.976 54.2026 38.976C52.9546 38.976 52.1919 38.4473 51.9146 37.39C50.7879 38.4473 49.4792 38.976 47.9886 38.976C46.6539 38.976 45.6312 38.5687 44.9206 37.754C44.2272 36.9393 43.8806 35.8993 43.8806 34.634C43.8806 31.4273 45.6659 29.824 49.2366 29.824C49.9472 29.824 50.6839 29.9107 51.4466 30.084V29.486C51.4466 27.874 50.5366 27.068 48.7166 27.068C47.7286 27.068 46.6279 27.2587 45.4146 27.64ZM51.4466 35.336V32.138C50.8572 31.93 50.3026 31.826 49.7826 31.826C47.9972 31.826 47.1046 32.6667 47.1046 34.348C47.1046 35.024 47.2606 35.5613 47.5726 35.96C47.8846 36.3413 48.3439 36.532 48.9506 36.532C49.8866 36.532 50.7186 36.1333 51.4466 35.336Z" fill="#72BF44"/>
<path d="M65.4943 24.598C67.037 24.598 68.1116 25.1267 68.7183 26.184C70.0183 25.1267 71.4223 24.598 72.9303 24.598C74.4036 24.598 75.4176 24.988 75.9723 25.768C76.5443 26.5307 76.8303 27.6833 76.8303 29.226V38.716H73.5803V29.642C73.5803 29.1913 73.5543 28.81 73.5023 28.498C73.3463 27.7007 72.809 27.302 71.8903 27.302C71.0236 27.302 70.1483 27.6747 69.2643 28.42C69.2816 28.6973 69.2903 29.174 69.2903 29.85V38.716H66.0663V29.642C66.0663 29.1393 66.049 28.7927 66.0143 28.602C65.9276 28.134 65.763 27.8047 65.5203 27.614C65.2776 27.406 64.931 27.302 64.4803 27.302C63.4923 27.302 62.5303 27.7353 61.5943 28.602V38.716H58.3183V24.858H61.2823L61.3863 26.21C62.617 25.1353 63.9863 24.598 65.4943 24.598Z" fill="#72BF44"/>
<path d="M80.7993 27.64L80.4093 25.222C81.6573 24.806 83.0874 24.598 84.6994 24.598C86.606 24.598 87.958 25.0313 88.7554 25.898C89.5527 26.7473 89.9514 28.3073 89.9514 30.578V35.466C89.9514 36.194 90.2114 36.558 90.7314 36.558C90.974 36.558 91.2514 36.4973 91.5634 36.376L91.7973 38.56C91.1387 38.8373 90.402 38.976 89.5874 38.976C88.3394 38.976 87.5767 38.4473 87.2993 37.39C86.1727 38.4473 84.864 38.976 83.3734 38.976C82.0387 38.976 81.016 38.5687 80.3054 37.754C79.612 36.9393 79.2654 35.8993 79.2654 34.634C79.2654 31.4273 81.0507 29.824 84.6214 29.824C85.332 29.824 86.0687 29.9107 86.8313 30.084V29.486C86.8313 27.874 85.9213 27.068 84.1013 27.068C83.1133 27.068 82.0127 27.2587 80.7993 27.64ZM86.8313 35.336V32.138C86.242 31.93 85.6874 31.826 85.1674 31.826C83.382 31.826 82.4893 32.6667 82.4893 34.348C82.4893 35.024 82.6454 35.5613 82.9574 35.96C83.2693 36.3413 83.7287 36.532 84.3354 36.532C85.2714 36.532 86.1033 36.1333 86.8313 35.336Z" fill="#72BF44"/>
<path d="M96.6671 24.858L96.7711 26.236C98.0191 25.144 99.3884 24.598 100.879 24.598C103.115 24.598 104.38 25.56 104.675 27.484C104.744 27.9173 104.779 28.498 104.779 29.226V38.716H101.529V29.642C101.529 29.1047 101.52 28.7493 101.503 28.576C101.399 27.7267 100.827 27.302 99.7871 27.302C98.8857 27.302 97.9497 27.7353 96.9791 28.602V38.716H93.7031V24.858H96.6671Z" fill="#72BF44"/>
<path d="M109.669 37.633L110.277 36.417C111.278 37.3163 112.411 37.766 113.678 37.766C114.489 37.766 115.16 37.5633 115.692 37.158C116.224 36.74 116.49 36.1003 116.49 35.239C116.49 34.8336 116.427 34.479 116.3 34.175C116.186 33.8583 116.053 33.605 115.901 33.415C115.762 33.225 115.521 33.0413 115.179 32.864C114.837 32.674 114.552 32.541 114.324 32.465C114.096 32.3763 113.735 32.2496 113.241 32.085C112.836 31.9456 112.506 31.8253 112.253 31.724C112.012 31.6226 111.727 31.4706 111.398 31.268C111.081 31.0653 110.834 30.85 110.657 30.622C110.48 30.3813 110.321 30.071 110.182 29.691C110.055 29.2983 109.992 28.8613 109.992 28.38C109.992 27.278 110.378 26.404 111.151 25.758C111.924 25.0993 112.899 24.77 114.077 24.77C115.28 24.77 116.211 25.0866 116.87 25.72C117.529 26.3533 117.902 27.0626 117.991 27.848L116.794 28.19C116.629 27.4806 116.3 26.9486 115.806 26.594C115.312 26.2266 114.717 26.043 114.02 26.043C113.298 26.043 112.684 26.2393 112.177 26.632C111.67 27.012 111.417 27.5946 111.417 28.38C111.417 28.6713 111.442 28.931 111.493 29.159C111.556 29.3743 111.664 29.5706 111.816 29.748C111.968 29.9253 112.101 30.071 112.215 30.185C112.329 30.2863 112.532 30.4003 112.823 30.527C113.114 30.6536 113.323 30.7423 113.45 30.793C113.589 30.8436 113.849 30.9323 114.229 31.059C114.66 31.211 114.964 31.3186 115.141 31.382C115.318 31.4453 115.591 31.5656 115.958 31.743C116.325 31.9076 116.591 32.0786 116.756 32.256C116.933 32.4206 117.123 32.6423 117.326 32.921C117.541 33.187 117.693 33.5036 117.782 33.871C117.871 34.2256 117.915 34.631 117.915 35.087C117.915 36.2776 117.548 37.2276 116.813 37.937C116.078 38.6336 115.021 38.982 113.64 38.982C112.728 38.982 111.924 38.8426 111.227 38.564C110.53 38.2726 110.011 37.9623 109.669 37.633Z" fill="#72BF44"/>
<path d="M127.19 33.833H121.395C121.395 36.493 122.345 37.823 124.245 37.823C125.119 37.823 126.012 37.5823 126.924 37.101L127.038 38.241C126.189 38.7096 125.207 38.944 124.093 38.944C121.42 38.944 120.084 37.1643 120.084 33.605C120.084 31.8443 120.419 30.5523 121.091 29.729C121.762 28.893 122.687 28.475 123.865 28.475C125.017 28.475 125.86 28.874 126.392 29.672C126.924 30.4573 127.19 31.6226 127.19 33.168V33.833ZM125.879 32.826C125.879 31.762 125.695 30.9576 125.328 30.413C124.973 29.8556 124.46 29.577 123.789 29.577C123.016 29.577 122.427 29.9063 122.022 30.565C121.616 31.211 121.414 31.9646 121.414 32.826H125.879Z" fill="#72BF44"/>
<path d="M133.393 28.475C134.305 28.475 134.945 28.9943 135.312 30.033L134.267 30.603C134.115 30.2736 133.957 30.0393 133.792 29.9C133.628 29.748 133.387 29.672 133.07 29.672C132.475 29.672 131.797 30.109 131.037 30.983V38.716H129.764V28.684H130.961V29.805C131.772 28.9183 132.583 28.475 133.393 28.475Z" fill="#72BF44"/>
<path d="M138.292 29.786C139.52 28.9246 140.527 28.494 141.313 28.494C142.25 28.494 142.985 28.8613 143.517 29.596C144.061 30.3306 144.334 31.4263 144.334 32.883C144.334 36.8983 142.94 38.906 140.154 38.906C139.014 38.906 137.975 38.621 137.038 38.051V25.055H138.292V29.786ZM142.947 33.377C142.947 31.9836 142.776 31.021 142.434 30.489C142.104 29.957 141.623 29.691 140.99 29.691C140.293 29.691 139.394 30.0773 138.292 30.85V37.348C138.849 37.6646 139.476 37.823 140.173 37.823C141.161 37.823 141.87 37.405 142.301 36.569C142.731 35.733 142.947 34.669 142.947 33.377Z" fill="#72BF44"/>
<path d="M147.21 29.938L147.077 28.817C147.901 28.589 148.857 28.475 149.946 28.475C152.049 28.475 153.1 29.5136 153.1 31.591V36.968C153.1 37.272 153.151 37.4873 153.252 37.614C153.366 37.7406 153.55 37.804 153.803 37.804C154.006 37.804 154.278 37.7406 154.62 37.614L154.734 38.659C154.215 38.8236 153.797 38.906 153.48 38.906C153.037 38.906 152.682 38.792 152.416 38.564C152.15 38.3233 151.998 38.032 151.96 37.69C151.048 38.5006 150.086 38.906 149.072 38.906C148.148 38.906 147.445 38.6146 146.963 38.032C146.482 37.4493 146.241 36.7083 146.241 35.809C146.241 34.631 146.577 33.7633 147.248 33.206C147.932 32.636 148.882 32.351 150.098 32.351C150.706 32.351 151.289 32.4143 151.846 32.541V31.819C151.846 31.0336 151.675 30.4636 151.333 30.109C150.991 29.7543 150.396 29.577 149.547 29.577C148.749 29.577 147.97 29.6973 147.21 29.938ZM151.846 36.683L151.865 33.529C151.308 33.3896 150.789 33.32 150.307 33.32C149.395 33.32 148.711 33.51 148.255 33.89C147.812 34.27 147.59 34.897 147.59 35.771C147.59 36.3536 147.736 36.835 148.027 37.215C148.331 37.595 148.775 37.785 149.357 37.785C150.231 37.785 151.061 37.4176 151.846 36.683Z" fill="#72BF44"/>
<path d="M159.599 28.475C160.321 28.475 161.112 28.7663 161.974 29.349V28.684H163.247V38.431C163.247 38.9756 163.221 39.4506 163.171 39.856C163.12 40.274 163.012 40.6793 162.848 41.072C162.696 41.4646 162.487 41.7876 162.221 42.041C161.955 42.2943 161.6 42.497 161.157 42.649C160.713 42.801 160.188 42.877 159.58 42.877C158.376 42.877 157.325 42.6173 156.426 42.098L156.654 40.901C157.008 41.1163 157.471 41.3126 158.041 41.49C158.623 41.68 159.181 41.775 159.713 41.775C160.207 41.775 160.612 41.68 160.929 41.49C161.258 41.3126 161.499 41.0466 161.651 40.692C161.803 40.3373 161.904 39.97 161.955 39.59C162.018 39.2226 162.05 38.7793 162.05 38.26V37.671C161.201 38.4943 160.302 38.906 159.352 38.906C158.3 38.906 157.464 38.4816 156.844 37.633C156.223 36.7843 155.913 35.524 155.913 33.852C155.913 33.1806 155.976 32.5473 156.103 31.952C156.242 31.344 156.445 30.774 156.711 30.242C156.989 29.6973 157.376 29.2666 157.87 28.95C158.364 28.6333 158.94 28.475 159.599 28.475ZM157.243 33.928C157.243 35.1566 157.458 36.1066 157.889 36.778C158.319 37.4493 158.883 37.785 159.58 37.785C160.454 37.785 161.258 37.3543 161.993 36.493V30.603C161.144 29.9443 160.384 29.615 159.713 29.615C158.066 29.615 157.243 31.0526 157.243 33.928Z" fill="#72BF44"/>
<path d="M169.067 38.906C167.547 38.906 166.673 38.2536 166.445 36.949C166.394 36.6576 166.369 36.246 166.369 35.714V28.855L167.623 28.684V35.543C167.623 36.0243 167.648 36.3663 167.699 36.569C167.826 37.3796 168.383 37.785 169.371 37.785C170.308 37.785 171.303 37.291 172.354 36.303V28.684H173.646V38.716H172.354V37.481C171.252 38.431 170.156 38.906 169.067 38.906Z" fill="#72BF44"/>
<path d="M181.472 28.475C182.979 28.475 183.859 29.1336 184.113 30.451C184.151 30.6663 184.17 31.078 184.17 31.686V38.716H182.916V31.857C182.916 31.4136 182.897 31.0716 182.859 30.831C182.707 30.033 182.124 29.634 181.111 29.634C180.186 29.634 179.211 30.1216 178.185 31.097V38.716H176.912V28.684H178.185V29.938C179.261 28.9626 180.357 28.475 181.472 28.475Z" fill="#72BF44"/>
<path d="M187.622 29.938L187.489 28.817C188.313 28.589 189.269 28.475 190.358 28.475C192.461 28.475 193.512 29.5136 193.512 31.591V36.968C193.512 37.272 193.563 37.4873 193.664 37.614C193.778 37.7406 193.962 37.804 194.215 37.804C194.418 37.804 194.69 37.7406 195.032 37.614L195.146 38.659C194.627 38.8236 194.209 38.906 193.892 38.906C193.449 38.906 193.094 38.792 192.828 38.564C192.562 38.3233 192.41 38.032 192.372 37.69C191.46 38.5006 190.498 38.906 189.484 38.906C188.56 38.906 187.857 38.6146 187.375 38.032C186.894 37.4493 186.653 36.7083 186.653 35.809C186.653 34.631 186.989 33.7633 187.66 33.206C188.344 32.636 189.294 32.351 190.51 32.351C191.118 32.351 191.701 32.4143 192.258 32.541V31.819C192.258 31.0336 192.087 30.4636 191.745 30.109C191.403 29.7543 190.808 29.577 189.959 29.577C189.161 29.577 188.382 29.6973 187.622 29.938ZM192.258 36.683L192.277 33.529C191.72 33.3896 191.201 33.32 190.719 33.32C189.807 33.32 189.123 33.51 188.667 33.89C188.224 34.27 188.002 34.897 188.002 35.771C188.002 36.3536 188.148 36.835 188.439 37.215C188.743 37.595 189.187 37.785 189.769 37.785C190.643 37.785 191.473 37.4176 192.258 36.683Z" fill="#72BF44"/>
</svg>
