<svg width="240" height="48" viewBox="0 0 240 48" fill="none" xmlns="http://www.w3.org/2000/svg">
<path d="M3.60206 10.72V14.416H1.81006V4.35H5.33806C6.40206 4.35 7.22806 4.59733 7.81606 5.092C8.40406 5.58667 8.69806 6.30533 8.69806 7.248C8.69806 8.30267 8.37606 9.14733 7.73206 9.782C7.09739 10.4073 6.23873 10.72 5.15606 10.72H3.60206ZM3.60206 9.334H4.96006C5.58539 9.334 6.05673 9.17067 6.37406 8.844C6.70073 8.508 6.86406 8.02267 6.86406 7.388C6.86406 6.27733 6.27606 5.722 5.10006 5.722H3.60206V9.334Z" fill="white"/>
<path d="M14.9178 10.986H10.9278C10.9371 11.686 11.0958 12.2227 11.4038 12.596C11.7118 12.96 12.1364 13.142 12.6778 13.142C13.3404 13.142 14.0078 12.9553 14.6798 12.582L14.7778 14.052C14.1431 14.3973 13.3824 14.57 12.4958 14.57C10.2651 14.57 9.14978 13.2493 9.14978 10.608C9.14978 9.32 9.42511 8.368 9.97578 7.752C10.5358 7.12667 11.2684 6.814 12.1738 6.814C14.0031 6.814 14.9178 7.98067 14.9178 10.314V10.986ZM13.2658 9.894C13.2658 8.69933 12.8924 8.102 12.1458 8.102C11.7444 8.102 11.4411 8.27 11.2358 8.606C11.0398 8.942 10.9418 9.37133 10.9418 9.894H13.2658Z" fill="white"/>
<path d="M20.3814 7.43L20.4514 6.954H22.0194V14.304C22.0194 16.4693 21.0207 17.552 19.0234 17.552C18.0247 17.552 17.1521 17.37 16.4054 17.006L16.6714 15.48C16.9607 15.6573 17.3107 15.802 17.7214 15.914C18.1414 16.0353 18.5287 16.096 18.8834 16.096C19.8447 16.096 20.3254 15.4707 20.3254 14.22V13.772C19.8681 14.2667 19.2801 14.514 18.5614 14.514C17.7494 14.514 17.1007 14.2013 16.6154 13.576C16.1394 12.9413 15.9014 11.9987 15.9014 10.748C15.9014 10.0573 15.9901 9.42733 16.1674 8.858C16.3541 8.28867 16.6621 7.808 17.0914 7.416C17.5301 7.01467 18.0621 6.814 18.6874 6.814C19.3127 6.814 19.8774 7.01933 20.3814 7.43ZM20.2694 12.554V8.648C19.8307 8.33067 19.4387 8.172 19.0934 8.172C18.1787 8.172 17.7214 9.04 17.7214 10.776C17.7214 12.344 18.1647 13.128 19.0514 13.128C19.4807 13.128 19.8867 12.9367 20.2694 12.554Z" fill="white"/>
<path d="M24.174 8.452L23.964 7.15C24.636 6.926 25.406 6.814 26.274 6.814C27.3006 6.814 28.0286 7.04733 28.458 7.514C28.8873 7.97133 29.102 8.81133 29.102 10.034V12.666C29.102 13.058 29.242 13.254 29.522 13.254C29.6526 13.254 29.802 13.2213 29.97 13.156L30.096 14.332C29.7413 14.4813 29.3446 14.556 28.906 14.556C28.234 14.556 27.8233 14.2713 27.674 13.702C27.0673 14.2713 26.3626 14.556 25.56 14.556C24.8413 14.556 24.2906 14.3367 23.908 13.898C23.5346 13.4593 23.348 12.8993 23.348 12.218C23.348 10.4913 24.3093 9.628 26.232 9.628C26.6146 9.628 27.0113 9.67467 27.422 9.768V9.446C27.422 8.578 26.932 8.144 25.952 8.144C25.42 8.144 24.8273 8.24667 24.174 8.452ZM27.422 12.596V10.874C27.1046 10.762 26.806 10.706 26.526 10.706C25.5646 10.706 25.084 11.1587 25.084 12.064C25.084 12.428 25.168 12.7173 25.336 12.932C25.504 13.1373 25.7513 13.24 26.078 13.24C26.582 13.24 27.03 13.0253 27.422 12.596Z" fill="white"/>
<path d="M34.9894 7.29V4.35H36.7394V14.416H35.1714L35.1154 13.758C34.6021 14.29 33.9907 14.556 33.2814 14.556C32.4694 14.556 31.8207 14.234 31.3354 13.59C30.8594 12.946 30.6214 11.9987 30.6214 10.748C30.6214 10.0573 30.7147 9.42733 30.9014 8.858C31.0881 8.27933 31.4007 7.794 31.8394 7.402C32.2781 7.01 32.8194 6.814 33.4634 6.814C34.0234 6.814 34.5321 6.97267 34.9894 7.29ZM35.0034 12.61V8.62C34.5647 8.30267 34.1774 8.144 33.8414 8.144C32.9081 8.144 32.4414 9.02133 32.4414 10.776C32.4414 11.56 32.5581 12.1573 32.7914 12.568C33.0247 12.9787 33.3561 13.184 33.7854 13.184C34.2147 13.184 34.6207 12.9927 35.0034 12.61Z" fill="white"/>
<path d="M38.894 8.452L38.684 7.15C39.356 6.926 40.126 6.814 40.994 6.814C42.0206 6.814 42.7486 7.04733 43.178 7.514C43.6073 7.97133 43.822 8.81133 43.822 10.034V12.666C43.822 13.058 43.962 13.254 44.242 13.254C44.3726 13.254 44.522 13.2213 44.69 13.156L44.816 14.332C44.4613 14.4813 44.0646 14.556 43.626 14.556C42.954 14.556 42.5433 14.2713 42.394 13.702C41.7873 14.2713 41.0826 14.556 40.28 14.556C39.5613 14.556 39.0106 14.3367 38.628 13.898C38.2546 13.4593 38.068 12.8993 38.068 12.218C38.068 10.4913 39.0293 9.628 40.952 9.628C41.3346 9.628 41.7313 9.67467 42.142 9.768V9.446C42.142 8.578 41.652 8.144 40.672 8.144C40.14 8.144 39.5473 8.24667 38.894 8.452ZM42.142 12.596V10.874C41.8246 10.762 41.526 10.706 41.246 10.706C40.2846 10.706 39.804 11.1587 39.804 12.064C39.804 12.428 39.888 12.7173 40.056 12.932C40.224 13.1373 40.4713 13.24 40.798 13.24C41.302 13.24 41.75 13.0253 42.142 12.596Z" fill="white"/>
<path d="M45.8561 6.954H47.6061V14.416H45.8561V6.954ZM45.7161 5.008C45.7161 4.69067 45.8095 4.44333 45.9961 4.266C46.1828 4.08867 46.4255 4 46.7241 4C47.0508 4 47.3028 4.08867 47.4801 4.266C47.6575 4.434 47.7461 4.68133 47.7461 5.008C47.7461 5.33467 47.6481 5.58667 47.4521 5.764C47.2655 5.932 47.0228 6.016 46.7241 6.016C46.4161 6.016 46.1688 5.92733 45.9821 5.75C45.8048 5.56333 45.7161 5.316 45.7161 5.008Z" fill="white"/>
<path d="M49.7585 8.452L49.5485 7.15C50.2205 6.926 50.9905 6.814 51.8585 6.814C52.8852 6.814 53.6132 7.04733 54.0425 7.514C54.4719 7.97133 54.6865 8.81133 54.6865 10.034V12.666C54.6865 13.058 54.8265 13.254 55.1065 13.254C55.2372 13.254 55.3865 13.2213 55.5545 13.156L55.6805 14.332C55.3259 14.4813 54.9292 14.556 54.4905 14.556C53.8185 14.556 53.4079 14.2713 53.2585 13.702C52.6519 14.2713 51.9472 14.556 51.1445 14.556C50.4259 14.556 49.8752 14.3367 49.4925 13.898C49.1192 13.4593 48.9325 12.8993 48.9325 12.218C48.9325 10.4913 49.8939 9.628 51.8165 9.628C52.1992 9.628 52.5959 9.67467 53.0065 9.768V9.446C53.0065 8.578 52.5165 8.144 51.5365 8.144C51.0045 8.144 50.4119 8.24667 49.7585 8.452ZM53.0065 12.596V10.874C52.6892 10.762 52.3905 10.706 52.1105 10.706C51.1492 10.706 50.6685 11.1587 50.6685 12.064C50.6685 12.428 50.7525 12.7173 50.9205 12.932C51.0885 13.1373 51.3359 13.24 51.6625 13.24C52.1665 13.24 52.6145 13.0253 53.0065 12.596Z" fill="white"/>
<path d="M58.3167 6.954L58.3727 7.696C59.0447 7.108 59.782 6.814 60.5847 6.814C61.7887 6.814 62.47 7.332 62.6287 8.368C62.666 8.60133 62.6847 8.914 62.6847 9.306V14.416H60.9347V9.53C60.9347 9.24067 60.93 9.04933 60.9207 8.956C60.8647 8.49867 60.5567 8.27 59.9967 8.27C59.5114 8.27 59.0074 8.50333 58.4847 8.97V14.416H56.7207V6.954H58.3167Z" fill="white"/>
<path d="M1 38.144L1.858 35.44C2.82867 35.908 3.756 36.142 4.64 36.142C5.42 36.142 5.93133 35.908 6.174 35.44C6.434 34.972 6.564 34.218 6.564 33.178V20.022H9.892V33.256C9.892 35.2667 9.49333 36.74 8.696 37.676C7.916 38.5947 6.70267 39.054 5.056 39.054C3.46133 39.054 2.10933 38.7507 1 38.144Z" fill="#00AB4E"/>
<path d="M13.5361 27.64L13.1461 25.222C14.3941 24.806 15.8241 24.598 17.4361 24.598C19.3427 24.598 20.6947 25.0313 21.4921 25.898C22.2894 26.7473 22.6881 28.3073 22.6881 30.578V35.466C22.6881 36.194 22.9481 36.558 23.4681 36.558C23.7107 36.558 23.9881 36.4973 24.3001 36.376L24.5341 38.56C23.8754 38.8373 23.1387 38.976 22.3241 38.976C21.0761 38.976 20.3134 38.4473 20.0361 37.39C18.9094 38.4473 17.6007 38.976 16.1101 38.976C14.7754 38.976 13.7527 38.5687 13.0421 37.754C12.3487 36.9393 12.0021 35.8993 12.0021 34.634C12.0021 31.4273 13.7874 29.824 17.3581 29.824C18.0687 29.824 18.8054 29.9107 19.5681 30.084V29.486C19.5681 27.874 18.6581 27.068 16.8381 27.068C15.8501 27.068 14.7494 27.2587 13.5361 27.64ZM19.5681 35.336V32.138C18.9787 31.93 18.4241 31.826 17.9041 31.826C16.1187 31.826 15.2261 32.6667 15.2261 34.348C15.2261 35.024 15.3821 35.5613 15.6941 35.96C16.0061 36.3413 16.4654 36.532 17.0721 36.532C18.0081 36.532 18.8401 36.1333 19.5681 35.336Z" fill="#00AB4E"/>
<path d="M25.4518 37.65L26.3358 35.076C27.6358 36.0293 28.9444 36.506 30.2618 36.506C31.4751 36.506 32.0818 35.986 32.0818 34.946C32.0818 34.4607 31.8911 34.0967 31.5098 33.854C31.1458 33.594 30.5824 33.3427 29.8198 33.1C29.3518 32.944 29.0311 32.84 28.8578 32.788C28.7018 32.736 28.4158 32.6233 27.9998 32.45C27.6011 32.2767 27.3064 32.1033 27.1158 31.93C26.9424 31.7567 26.7344 31.5313 26.4918 31.254C26.2491 30.9767 26.0758 30.6473 25.9718 30.266C25.8851 29.8847 25.8418 29.46 25.8418 28.992C25.8418 27.64 26.2924 26.574 27.1938 25.794C28.1124 24.9967 29.3171 24.598 30.8078 24.598C33.3904 24.598 34.9678 25.664 35.5398 27.796L33.0698 28.758C32.6364 27.5967 31.8738 27.016 30.7818 27.016C30.2791 27.016 29.8458 27.146 29.4818 27.406C29.1351 27.6487 28.9618 28.0213 28.9618 28.524C28.9618 28.836 29.0224 29.1047 29.1438 29.33C29.2824 29.538 29.4991 29.7287 29.7938 29.902C30.0884 30.0753 30.3484 30.2053 30.5738 30.292C30.8164 30.3787 31.1718 30.4913 31.6398 30.63C32.1771 30.8033 32.6278 30.968 32.9918 31.124C33.3558 31.28 33.7371 31.514 34.1358 31.826C34.5344 32.1207 34.8378 32.5107 35.0458 32.996C35.2538 33.464 35.3578 34.0187 35.3578 34.66C35.3578 36.012 34.8984 37.078 33.9798 37.858C33.0611 38.638 31.8218 39.028 30.2618 39.028C29.3258 39.028 28.3984 38.8807 27.4798 38.586C26.5784 38.2913 25.9024 37.9793 25.4518 37.65Z" fill="#00AB4E"/>
<path d="M38.5869 27.64L38.1969 25.222C39.4449 24.806 40.8749 24.598 42.4869 24.598C44.3935 24.598 45.7455 25.0313 46.5429 25.898C47.3402 26.7473 47.7389 28.3073 47.7389 30.578V35.466C47.7389 36.194 47.9989 36.558 48.5189 36.558C48.7615 36.558 49.0389 36.4973 49.3509 36.376L49.5849 38.56C48.9262 38.8373 48.1895 38.976 47.3749 38.976C46.1269 38.976 45.3642 38.4473 45.0869 37.39C43.9602 38.4473 42.6515 38.976 41.1609 38.976C39.8262 38.976 38.8035 38.5687 38.0929 37.754C37.3995 36.9393 37.0529 35.8993 37.0529 34.634C37.0529 31.4273 38.8382 29.824 42.4089 29.824C43.1195 29.824 43.8562 29.9107 44.6189 30.084V29.486C44.6189 27.874 43.7089 27.068 41.8889 27.068C40.9009 27.068 39.8002 27.2587 38.5869 27.64ZM44.6189 35.336V32.138C44.0295 31.93 43.4749 31.826 42.9549 31.826C41.1695 31.826 40.2769 32.6667 40.2769 34.348C40.2769 35.024 40.4329 35.5613 40.7449 35.96C41.0569 36.3413 41.5162 36.532 42.1229 36.532C43.0589 36.532 43.8909 36.1333 44.6189 35.336Z" fill="#00AB4E"/>
<path d="M58.818 33.168H55.854V38.716H54.543V25.055H59.065C60.395 25.055 61.4273 25.3653 62.162 25.986C62.8966 26.594 63.264 27.4933 63.264 28.684C63.264 30.052 62.8523 31.1413 62.029 31.952C61.2183 32.7627 60.148 33.168 58.818 33.168ZM55.854 32.009H58.704C59.7426 32.009 60.5343 31.743 61.079 31.211C61.6363 30.6663 61.915 29.8873 61.915 28.874C61.915 27.9113 61.6616 27.2337 61.155 26.841C60.661 26.4357 59.8946 26.233 58.856 26.233H55.854V32.009Z" fill="#00AB4E"/>
<path d="M71.5932 33.833H65.7982C65.7982 36.493 66.7482 37.823 68.6482 37.823C69.5222 37.823 70.4152 37.5823 71.3272 37.101L71.4412 38.241C70.5926 38.7097 69.6109 38.944 68.4962 38.944C65.8236 38.944 64.4872 37.1643 64.4872 33.605C64.4872 31.8443 64.8229 30.5523 65.4942 29.729C66.1656 28.893 67.0902 28.475 68.2682 28.475C69.4209 28.475 70.2632 28.874 70.7952 29.672C71.3272 30.4573 71.5932 31.6227 71.5932 33.168V33.833ZM70.2822 32.826C70.2822 31.762 70.0986 30.9577 69.7312 30.413C69.3766 29.8557 68.8636 29.577 68.1922 29.577C67.4196 29.577 66.8306 29.9063 66.4252 30.565C66.0199 31.211 65.8172 31.9647 65.8172 32.826H70.2822Z" fill="#00AB4E"/>
<path d="M78.728 28.475C80.2354 28.475 81.1157 29.1337 81.369 30.451C81.407 30.6663 81.426 31.078 81.426 31.686V38.716H80.172V31.857C80.172 31.4137 80.153 31.0717 80.115 30.831C79.963 30.033 79.3804 29.634 78.367 29.634C77.4424 29.634 76.467 30.1217 75.441 31.097V38.716H74.168V28.684H75.441V29.938C76.5177 28.9627 77.6134 28.475 78.728 28.475Z" fill="#00AB4E"/>
<path d="M87.7855 28.475C88.5075 28.475 89.2992 28.7663 90.1605 29.349V28.684H91.4335V38.431C91.4335 38.9757 91.4082 39.4507 91.3575 39.856C91.3069 40.274 91.1992 40.6793 91.0345 41.072C90.8825 41.4647 90.6735 41.7877 90.4075 42.041C90.1415 42.2943 89.7869 42.497 89.3435 42.649C88.9002 42.801 88.3745 42.877 87.7665 42.877C86.5632 42.877 85.5119 42.6173 84.6125 42.098L84.8405 40.901C85.1952 41.1163 85.6575 41.3127 86.2275 41.49C86.8102 41.68 87.3675 41.775 87.8995 41.775C88.3935 41.775 88.7989 41.68 89.1155 41.49C89.4449 41.3127 89.6855 41.0467 89.8375 40.692C89.9895 40.3373 90.0909 39.97 90.1415 39.59C90.2049 39.2227 90.2365 38.7793 90.2365 38.26V37.671C89.3879 38.4943 88.4885 38.906 87.5385 38.906C86.4872 38.906 85.6512 38.4817 85.0305 37.633C84.4099 36.7843 84.0995 35.524 84.0995 33.852C84.0995 33.1807 84.1629 32.5473 84.2895 31.952C84.4289 31.344 84.6315 30.774 84.8975 30.242C85.1762 29.6973 85.5625 29.2667 86.0565 28.95C86.5505 28.6333 87.1269 28.475 87.7855 28.475ZM85.4295 33.928C85.4295 35.1567 85.6449 36.1067 86.0755 36.778C86.5062 37.4493 87.0699 37.785 87.7665 37.785C88.6405 37.785 89.4449 37.3543 90.1795 36.493V30.603C89.3309 29.9443 88.5709 29.615 87.8995 29.615C86.2529 29.615 85.4295 31.0527 85.4295 33.928Z" fill="#00AB4E"/>
<path d="M94.7081 28.684H95.9621V38.716H94.7081V28.684ZM94.4991 26.1C94.4991 25.834 94.5751 25.6313 94.7271 25.492C94.8791 25.34 95.0754 25.264 95.3161 25.264C95.8734 25.264 96.1521 25.549 96.1521 26.119C96.1521 26.3977 96.0761 26.6193 95.9241 26.784C95.7721 26.936 95.5694 27.012 95.3161 27.012C95.0754 27.012 94.8791 26.9297 94.7271 26.765C94.5751 26.6003 94.4991 26.3787 94.4991 26.1Z" fill="#00AB4E"/>
<path d="M102.864 28.475C103.776 28.475 104.416 28.9943 104.783 30.033L103.738 30.603C103.586 30.2737 103.428 30.0393 103.263 29.9C103.099 29.748 102.858 29.672 102.541 29.672C101.946 29.672 101.268 30.109 100.508 30.983V38.716H99.2354V28.684H100.432V29.805C101.243 28.9183 102.054 28.475 102.864 28.475Z" fill="#00AB4E"/>
<path d="M106.509 28.684H107.763V38.716H106.509V28.684ZM106.3 26.1C106.3 25.834 106.376 25.6313 106.528 25.492C106.68 25.34 106.876 25.264 107.117 25.264C107.674 25.264 107.953 25.549 107.953 26.119C107.953 26.3977 107.877 26.6193 107.725 26.784C107.573 26.936 107.37 27.012 107.117 27.012C106.876 27.012 106.68 26.9297 106.528 26.765C106.376 26.6003 106.3 26.3787 106.3 26.1Z" fill="#00AB4E"/>
<path d="M115.596 28.475C116.774 28.475 117.547 28.9183 117.914 29.805C118.94 28.9183 119.985 28.475 121.049 28.475C122.569 28.475 123.443 29.1337 123.671 30.451C123.722 30.7423 123.747 31.154 123.747 31.686V38.716H122.493V31.857C122.493 31.3883 122.468 31.0463 122.417 30.831C122.265 30.033 121.714 29.634 120.764 29.634C119.89 29.634 119.01 30.052 118.123 30.888C118.149 31.0907 118.161 31.4263 118.161 31.895V38.716H116.907V31.857C116.907 31.3883 116.882 31.0463 116.831 30.831C116.705 30.033 116.204 29.634 115.33 29.634C114.279 29.634 113.272 30.128 112.309 31.116V38.716H111.036V28.684H112.309V29.919C113.411 28.9563 114.507 28.475 115.596 28.475Z" fill="#00AB4E"/>
<path d="M127.202 29.938L127.069 28.817C127.892 28.589 128.848 28.475 129.938 28.475C132.04 28.475 133.092 29.5137 133.092 31.591V36.968C133.092 37.272 133.142 37.4873 133.244 37.614C133.358 37.7407 133.541 37.804 133.795 37.804C133.997 37.804 134.27 37.7407 134.612 37.614L134.726 38.659C134.206 38.8237 133.788 38.906 133.472 38.906C133.028 38.906 132.674 38.792 132.408 38.564C132.142 38.3233 131.99 38.032 131.952 37.69C131.04 38.5007 130.077 38.906 129.064 38.906C128.139 38.906 127.436 38.6147 126.955 38.032C126.473 37.4493 126.233 36.7083 126.233 35.809C126.233 34.631 126.568 33.7633 127.24 33.206C127.924 32.636 128.874 32.351 130.09 32.351C130.698 32.351 131.28 32.4143 131.838 32.541V31.819C131.838 31.0337 131.667 30.4637 131.325 30.109C130.983 29.7543 130.387 29.577 129.539 29.577C128.741 29.577 127.962 29.6973 127.202 29.938ZM131.838 36.683L131.857 33.529C131.299 33.3897 130.78 33.32 130.299 33.32C129.387 33.32 128.703 33.51 128.247 33.89C127.803 34.27 127.582 34.897 127.582 35.771C127.582 36.3537 127.727 36.835 128.019 37.215C128.323 37.595 128.766 37.785 129.349 37.785C130.223 37.785 131.052 37.4177 131.838 36.683Z" fill="#00AB4E"/>
<path d="M141.239 28.475C142.746 28.475 143.626 29.1337 143.88 30.451C143.918 30.6663 143.937 31.078 143.937 31.686V38.716H142.683V31.857C142.683 31.4137 142.664 31.0717 142.626 30.831C142.474 30.033 141.891 29.634 140.878 29.634C139.953 29.634 138.978 30.1217 137.952 31.097V38.716H136.679V28.684H137.952V29.938C139.028 28.9627 140.124 28.475 141.239 28.475Z" fill="#00AB4E"/>
<path d="M150.797 25.055V33.966C150.797 35.03 150.898 35.8027 151.101 36.284C151.519 37.234 152.475 37.709 153.97 37.709C155.553 37.709 156.541 37.2213 156.934 36.246C157.111 35.7773 157.2 34.916 157.2 33.662V25.055H158.511V34.023C158.511 35.087 158.435 35.8723 158.283 36.379C157.726 38.089 156.288 38.944 153.97 38.944C151.715 38.944 150.316 38.184 149.771 36.664C149.581 36.132 149.486 35.2453 149.486 34.004V25.055H150.797Z" fill="#00AB4E"/>
<path d="M161.584 29.938L161.451 28.817C162.274 28.589 163.23 28.475 164.32 28.475C166.422 28.475 167.474 29.5137 167.474 31.591V36.968C167.474 37.272 167.524 37.4873 167.626 37.614C167.74 37.7407 167.923 37.804 168.177 37.804C168.379 37.804 168.652 37.7407 168.994 37.614L169.108 38.659C168.588 38.8237 168.17 38.906 167.854 38.906C167.41 38.906 167.056 38.792 166.79 38.564C166.524 38.3233 166.372 38.032 166.334 37.69C165.422 38.5007 164.459 38.906 163.446 38.906C162.521 38.906 161.818 38.6147 161.337 38.032C160.855 37.4493 160.615 36.7083 160.615 35.809C160.615 34.631 160.95 33.7633 161.622 33.206C162.306 32.636 163.256 32.351 164.472 32.351C165.08 32.351 165.662 32.4143 166.22 32.541V31.819C166.22 31.0337 166.049 30.4637 165.707 30.109C165.365 29.7543 164.769 29.577 163.921 29.577C163.123 29.577 162.344 29.6973 161.584 29.938ZM166.22 36.683L166.239 33.529C165.681 33.3897 165.162 33.32 164.681 33.32C163.769 33.32 163.085 33.51 162.629 33.89C162.185 34.27 161.964 34.897 161.964 35.771C161.964 36.3537 162.109 36.835 162.401 37.215C162.705 37.595 163.148 37.785 163.731 37.785C164.605 37.785 165.434 37.4177 166.22 36.683Z" fill="#00AB4E"/>
<path d="M175.621 28.475C177.128 28.475 178.008 29.1337 178.262 30.451C178.3 30.6663 178.319 31.078 178.319 31.686V38.716H177.065V31.857C177.065 31.4137 177.046 31.0717 177.008 30.831C176.856 30.033 176.273 29.634 175.26 29.634C174.335 29.634 173.36 30.1217 172.334 31.097V38.716H171.061V28.684H172.334V29.938C173.41 28.9627 174.506 28.475 175.621 28.475Z" fill="#00AB4E"/>
<path d="M184.678 28.475C185.4 28.475 186.192 28.7663 187.053 29.349V28.684H188.326V38.431C188.326 38.9757 188.301 39.4507 188.25 39.856C188.199 40.274 188.092 40.6793 187.927 41.072C187.775 41.4647 187.566 41.7877 187.3 42.041C187.034 42.2943 186.679 42.497 186.236 42.649C185.793 42.801 185.267 42.877 184.659 42.877C183.456 42.877 182.404 42.6173 181.505 42.098L181.733 40.901C182.088 41.1163 182.55 41.3127 183.12 41.49C183.703 41.68 184.26 41.775 184.792 41.775C185.286 41.775 185.691 41.68 186.008 41.49C186.337 41.3127 186.578 41.0467 186.73 40.692C186.882 40.3373 186.983 39.97 187.034 39.59C187.097 39.2227 187.129 38.7793 187.129 38.26V37.671C186.28 38.4943 185.381 38.906 184.431 38.906C183.38 38.906 182.544 38.4817 181.923 37.633C181.302 36.7843 180.992 35.524 180.992 33.852C180.992 33.1807 181.055 32.5473 181.182 31.952C181.321 31.344 181.524 30.774 181.79 30.242C182.069 29.6973 182.455 29.2667 182.949 28.95C183.443 28.6333 184.019 28.475 184.678 28.475ZM182.322 33.928C182.322 35.1567 182.537 36.1067 182.968 36.778C183.399 37.4493 183.962 37.785 184.659 37.785C185.533 37.785 186.337 37.3543 187.072 36.493V30.603C186.223 29.9443 185.463 29.615 184.792 29.615C183.145 29.615 182.322 31.0527 182.322 33.928Z" fill="#00AB4E"/>
</svg>
