<svg width="60" height="36" viewBox="0 0 60 36" fill="none" xmlns="http://www.w3.org/2000/svg">
<path fill-rule="evenodd" clip-rule="evenodd" d="M29.838 8.46437C33.1693 8.46428 35.854 11.1466 35.8564 14.4776C35.8588 17.7908 33.1665 20.4931 29.8619 20.4946C26.5185 20.4961 23.8335 17.8106 23.8354 14.4671C23.8372 11.1471 26.5198 8.46451 29.838 8.46437ZM32.5308 12.5569C32.6656 12.6335 32.7415 12.674 32.8149 12.7188C32.9342 12.7916 33.0426 12.8244 33.135 12.6756C33.2331 12.5176 33.135 12.4547 33.0148 12.3865C31.8106 11.7033 30.5316 11.3525 29.1374 11.5036C28.2572 11.5991 27.4439 11.887 26.6913 12.3491C26.5811 12.4167 26.4379 12.4777 26.5502 12.6557C26.6642 12.8366 26.7822 12.7489 26.9055 12.67C26.9738 12.6262 27.0473 12.5906 27.1618 12.5274C27.116 12.6396 27.0915 12.703 27.0645 12.7653C26.5556 13.9373 26.0468 15.1092 25.5371 16.2808C25.3625 16.6821 25.4277 16.8992 25.8072 17.1265C25.9206 17.1944 26.0433 17.2524 26.1686 17.2939C26.9436 17.5504 27.7255 17.5441 28.5097 17.3384C28.6925 17.2904 28.8639 17.2117 29.0237 17.1108C29.368 16.8935 29.4313 16.67 29.2683 16.2957C28.7206 15.0383 28.1788 13.7782 27.6246 12.5237C27.5486 12.3517 27.5951 12.3025 27.751 12.2422C29.1411 11.7051 30.5231 11.7376 31.9068 12.2691C32.0965 12.342 32.1093 12.4192 32.0325 12.5929C31.5003 13.7969 30.9784 15.0055 30.453 16.2126C30.2375 16.7078 30.3234 16.9579 30.8123 17.1926C31.4183 17.4836 32.065 17.5228 32.7216 17.463C33.1381 17.4251 33.5447 17.3419 33.9056 17.113C34.2515 16.8937 34.3182 16.6696 34.1564 16.2992C33.896 15.7032 33.6367 15.1066 33.3776 14.5101C33.1039 13.8794 32.8307 13.2486 32.5308 12.5569Z" fill="#02A750"/>
<path fill-rule="evenodd" clip-rule="evenodd" d="M29.8237 24.9469C26.8179 24.9064 24.258 23.812 22.1956 21.6266C20.5361 19.8681 19.6135 17.7582 19.4112 15.342C19.3929 15.1233 19.3921 14.9032 19.3727 14.6847C19.3624 14.5676 19.402 14.538 19.5155 14.5408C19.821 14.5482 20.127 14.5484 20.4325 14.5401C20.5784 14.5362 20.5494 14.6302 20.552 14.7122C20.5779 15.5394 20.6963 16.3535 20.9382 17.1446C21.3885 18.6174 22.1499 19.909 23.2364 21.0046C24.4282 22.2064 25.839 23.0384 27.4777 23.4621C29.2269 23.9144 30.9703 23.8786 32.694 23.3162C34.802 22.6284 36.4625 21.3496 37.662 19.4895C38.7209 17.8473 39.2027 16.0398 39.1197 14.0834C39.0216 11.7678 38.1666 9.76128 36.5835 8.08824C35.0114 6.42673 33.0654 5.46821 30.7782 5.23782C28.883 5.04691 27.0941 5.40278 25.419 6.31245C25.29 6.38255 25.2115 6.3824 25.1347 6.24886C25.0018 6.01796 24.8661 5.78786 24.7171 5.56717C24.6269 5.43368 24.6616 5.37211 24.7911 5.30009C25.5843 4.85891 26.4226 4.52966 27.3017 4.31349C28.9285 3.91349 30.5649 3.89304 32.1979 4.27077C34.2307 4.74096 35.9789 5.72963 37.4137 7.24436C39.1977 9.12773 40.169 11.3717 40.2963 13.9678C40.4207 16.5026 39.7169 18.7966 38.1802 20.8092C36.5272 22.9742 34.3402 24.3016 31.6526 24.791C31.0482 24.9012 30.4396 24.9467 29.8237 24.9469Z" fill="#BAD333"/>
<path fill-rule="evenodd" clip-rule="evenodd" d="M29.8669 6.34345C32.8563 6.44454 35.1789 7.72945 36.8032 10.2598C36.8933 10.4003 36.8777 10.4685 36.7325 10.5482C36.5268 10.661 36.3254 10.7862 36.1386 10.9277C35.97 11.0553 35.8817 11.046 35.7654 10.8525C35.1939 9.901 34.4239 9.14187 33.4827 8.55367C30.8974 6.9381 27.4338 7.2552 25.1864 9.32637C23.5791 10.8076 22.8179 12.651 22.9038 14.8329C23.0327 18.1091 25.6036 20.9487 28.8604 21.3463C31.8217 21.7079 34.1265 20.584 35.7685 18.0988C35.8463 17.9811 35.8952 17.9509 36.0186 18.0396C36.2412 18.1997 36.4722 18.3495 36.7088 18.488C36.8496 18.5704 36.8373 18.6441 36.7594 18.7647C35.4618 20.7726 33.6532 22.0464 31.2971 22.4725C27.6514 23.1319 24.1386 21.3231 22.5028 17.9891C20.6162 14.1439 22.1991 9.30791 25.9964 7.30979C27.2065 6.67304 28.4898 6.33789 29.8669 6.34345Z" fill="#74BC46"/>
<path fill-rule="evenodd" clip-rule="evenodd" d="M32.5308 12.5569C32.8307 13.2486 33.1038 13.8794 33.3777 14.51C33.6368 15.1066 33.896 15.7031 34.1564 16.2992C34.3183 16.6695 34.2516 16.8937 33.9057 17.1129C33.5447 17.3418 33.1381 17.425 32.7216 17.463C32.0651 17.5228 31.4184 17.4835 30.8123 17.1926C30.3234 16.9579 30.2376 16.7077 30.4531 16.2126C30.9785 15.0055 31.5004 13.7969 32.0326 12.5928C32.1093 12.4191 32.0965 12.3419 31.9068 12.2691C30.5231 11.7375 29.1412 11.705 27.7511 12.2422C27.5951 12.3024 27.5487 12.3516 27.6246 12.5236C28.1789 13.7781 28.7206 15.0382 29.2683 16.2956C29.4313 16.6699 29.3681 16.8934 29.0237 17.1108C28.8639 17.2117 28.6926 17.2904 28.5098 17.3383C27.7255 17.544 26.9436 17.5503 26.1686 17.2938C26.0433 17.2523 25.9206 17.1944 25.8073 17.1264C25.4277 16.8992 25.3626 16.6821 25.5372 16.2807C26.0468 15.1091 26.5557 13.9372 27.0645 12.7653C27.0916 12.703 27.116 12.6395 27.1618 12.5274C27.0473 12.5906 26.9738 12.6262 26.9055 12.6699C26.7822 12.7489 26.6643 12.8366 26.5502 12.6556C26.4379 12.4776 26.5812 12.4167 26.6913 12.349C27.4439 11.8869 28.2572 11.599 29.1374 11.5036C30.5317 11.3524 31.8106 11.7032 33.0149 12.3864C33.135 12.4546 33.2331 12.5174 33.135 12.6755C33.0427 12.8243 32.9342 12.7915 32.8149 12.7187C32.7415 12.674 32.6656 12.6334 32.5308 12.5569ZM27.4176 12.9123C27.386 12.9424 27.3699 12.9509 27.3642 12.964C26.9108 14.004 26.4599 15.0451 26.0038 16.0839C25.9354 16.2397 26.0195 16.2324 26.1274 16.2321C26.895 16.2303 27.6627 16.231 28.4304 16.2309C28.5614 16.2309 28.6923 16.2309 28.8584 16.2309C28.37 15.106 27.8958 14.0137 27.4176 12.9123ZM32.3044 12.9164C32.2726 12.9457 32.2489 12.9577 32.2408 12.9764C31.7919 14.0097 31.3457 15.0442 30.895 16.0768C30.8333 16.2181 30.8911 16.233 31.0128 16.2326C31.8589 16.2297 32.705 16.2276 33.551 16.2338C33.7345 16.2351 33.7187 16.1697 33.6602 16.0402C33.5058 15.6979 33.3624 15.3506 33.213 15.0061C32.9123 14.3128 32.6103 13.62 32.3044 12.9164Z" fill="#F3FAF6"/>
<path fill-rule="evenodd" clip-rule="evenodd" d="M27.4176 12.9123C27.8958 14.0137 28.37 15.106 28.8584 16.2309C28.6923 16.2309 28.5613 16.2309 28.4304 16.2309C27.6627 16.231 26.895 16.2303 26.1273 16.2321C26.0194 16.2324 25.9353 16.2397 26.0037 16.0839C26.4598 15.045 26.9108 14.004 27.3641 12.964C27.3698 12.9509 27.3859 12.9424 27.4176 12.9123Z" fill="#04A650"/>
<path fill-rule="evenodd" clip-rule="evenodd" d="M32.3044 12.9164C32.6103 13.62 32.9122 14.3128 33.213 15.0061C33.3624 15.3506 33.5057 15.698 33.6602 16.0402C33.7187 16.1697 33.7344 16.2351 33.551 16.2338C32.705 16.2276 31.8589 16.2297 31.0128 16.2326C30.8911 16.2331 30.8333 16.2181 30.8949 16.0768C31.3457 15.0443 31.7919 14.0097 32.2408 12.9764C32.2489 12.9577 32.2726 12.9457 32.3044 12.9164Z" fill="#04A650"/>
<path d="M12.6059 29.6901V30.9397H12V27.5365H13.1928C13.5525 27.5365 13.8318 27.6201 14.0306 27.7873C14.2294 27.9546 14.3288 28.1976 14.3288 28.5163C14.3288 28.8728 14.2199 29.1584 14.0022 29.373C13.7876 29.5844 13.4973 29.6901 13.1313 29.6901H12.6059ZM12.6059 29.2215H13.065C13.2764 29.2215 13.4358 29.1663 13.5431 29.0559C13.6535 28.9423 13.7087 28.7782 13.7087 28.5636C13.7087 28.1881 13.5099 28.0003 13.1123 28.0003H12.6059V29.2215Z" fill="#004D43"/>
<path d="M16.4648 29.7801H15.1158C15.1189 30.0167 15.1726 30.1982 15.2767 30.3244C15.3809 30.4475 15.5244 30.509 15.7075 30.509C15.9315 30.509 16.1571 30.4459 16.3843 30.3197L16.4175 30.8167C16.2029 30.9334 15.9457 30.9918 15.6459 30.9918C14.8917 30.9918 14.5147 30.5453 14.5147 29.6523C14.5147 29.2168 14.6077 28.8949 14.7939 28.6867C14.9833 28.4752 15.231 28.3695 15.5371 28.3695C16.1555 28.3695 16.4648 28.764 16.4648 29.5529V29.7801ZM15.9063 29.4109C15.9063 29.007 15.78 28.805 15.5276 28.805C15.3919 28.805 15.2893 28.8618 15.2199 28.9754C15.1537 29.089 15.1205 29.2342 15.1205 29.4109H15.9063Z" fill="#004D43"/>
<path d="M18.3451 28.5778L18.3688 28.4169H18.8989V30.9019C18.8989 31.634 18.5613 32 17.886 32C17.5484 32 17.2533 31.9385 17.0009 31.8154L17.0908 31.2995C17.1886 31.3594 17.307 31.4083 17.4458 31.4462C17.5878 31.4872 17.7188 31.5077 17.8387 31.5077C18.1637 31.5077 18.3262 31.2963 18.3262 30.8735V30.722C18.1716 30.8892 17.9728 30.9729 17.7298 30.9729C17.4553 30.9729 17.236 30.8672 17.0719 30.6557C16.9109 30.4412 16.8305 30.1224 16.8305 29.6996C16.8305 29.4661 16.8605 29.2531 16.9204 29.0606C16.9835 28.8681 17.0877 28.7056 17.2328 28.5731C17.3811 28.4374 17.561 28.3695 17.7724 28.3695C17.9838 28.3695 18.1747 28.439 18.3451 28.5778ZM18.3073 30.3102V28.9896C18.159 28.8823 18.0264 28.8287 17.9097 28.8287C17.6004 28.8287 17.4458 29.1221 17.4458 29.7091C17.4458 30.2392 17.5957 30.5043 17.8955 30.5043C18.0406 30.5043 18.1779 30.4396 18.3073 30.3102Z" fill="#004D43"/>
<path d="M19.6605 28.9233L19.5895 28.4831C19.8167 28.4074 20.0771 28.3695 20.3705 28.3695C20.7176 28.3695 20.9638 28.4484 21.1089 28.6062C21.2541 28.7608 21.3267 29.0448 21.3267 29.4582V30.3481C21.3267 30.4806 21.374 30.5469 21.4687 30.5469C21.5128 30.5469 21.5633 30.5358 21.6201 30.5137L21.6627 30.9113C21.5428 30.9618 21.4087 30.9871 21.2604 30.9871C21.0332 30.9871 20.8944 30.8908 20.8439 30.6983C20.6388 30.8908 20.4005 30.9871 20.1291 30.9871C19.8862 30.9871 19.7 30.9129 19.5706 30.7646C19.4444 30.6163 19.3813 30.427 19.3813 30.1966C19.3813 29.6128 19.7063 29.3209 20.3563 29.3209C20.4857 29.3209 20.6198 29.3367 20.7587 29.3683V29.2594C20.7587 28.9659 20.593 28.8192 20.2617 28.8192C20.0818 28.8192 19.8814 28.8539 19.6605 28.9233ZM20.7587 30.3244V29.7422C20.6514 29.7043 20.5504 29.6854 20.4557 29.6854C20.1307 29.6854 19.9682 29.8384 19.9682 30.1445C19.9682 30.2676 19.9966 30.3654 20.0534 30.438C20.1102 30.5074 20.1938 30.5421 20.3043 30.5421C20.4747 30.5421 20.6261 30.4696 20.7587 30.3244Z" fill="#004D43"/>
<path d="M23.3503 28.5305V27.5365H23.942V30.9397H23.4118L23.3929 30.7173C23.2194 30.8971 23.0127 30.9871 22.7728 30.9871C22.4983 30.9871 22.279 30.8782 22.1149 30.6605C21.954 30.4427 21.8735 30.1224 21.8735 29.6996C21.8735 29.4661 21.9051 29.2531 21.9682 29.0606C22.0313 28.865 22.137 28.7009 22.2853 28.5683C22.4336 28.4358 22.6166 28.3695 22.8344 28.3695C23.0237 28.3695 23.1957 28.4232 23.3503 28.5305ZM23.355 30.3291V28.9801C23.2067 28.8728 23.0758 28.8192 22.9622 28.8192C22.6466 28.8192 22.4888 29.1158 22.4888 29.7091C22.4888 29.9741 22.5283 30.1761 22.6072 30.3149C22.6861 30.4538 22.7981 30.5232 22.9432 30.5232C23.0884 30.5232 23.2257 30.4585 23.355 30.3291Z" fill="#004D43"/>
<path d="M24.7036 28.9233L24.6326 28.4831C24.8598 28.4074 25.1201 28.3695 25.4136 28.3695C25.7607 28.3695 26.0068 28.4484 26.152 28.6062C26.2971 28.7608 26.3697 29.0448 26.3697 29.4582V30.3481C26.3697 30.4806 26.417 30.5469 26.5117 30.5469C26.5559 30.5469 26.6064 30.5358 26.6632 30.5137L26.7058 30.9113C26.5859 30.9618 26.4517 30.9871 26.3034 30.9871C26.0762 30.9871 25.9374 30.8908 25.8869 30.6983C25.6818 30.8908 25.4435 30.9871 25.1722 30.9871C24.9292 30.9871 24.743 30.9129 24.6136 30.7646C24.4874 30.6163 24.4243 30.427 24.4243 30.1966C24.4243 29.6128 24.7493 29.3209 25.3994 29.3209C25.5287 29.3209 25.6629 29.3367 25.8017 29.3683V29.2594C25.8017 28.9659 25.636 28.8192 25.3047 28.8192C25.1248 28.8192 24.9245 28.8539 24.7036 28.9233ZM25.8017 30.3244V29.7422C25.6944 29.7043 25.5934 29.6854 25.4988 29.6854C25.1737 29.6854 25.0112 29.8384 25.0112 30.1445C25.0112 30.2676 25.0396 30.3654 25.0964 30.438C25.1532 30.5074 25.2369 30.5421 25.3473 30.5421C25.5177 30.5421 25.6692 30.4696 25.8017 30.3244Z" fill="#004D43"/>
<path d="M27.0906 28.4169H27.6822V30.9397H27.0906V28.4169ZM27.0432 27.7589C27.0432 27.6516 27.0748 27.568 27.1379 27.5081C27.201 27.4481 27.2831 27.4181 27.384 27.4181C27.4945 27.4181 27.5797 27.4481 27.6396 27.5081C27.6996 27.5649 27.7296 27.6485 27.7296 27.7589C27.7296 27.8694 27.6964 27.9546 27.6302 28.0145C27.5671 28.0713 27.485 28.0997 27.384 28.0997C27.2799 28.0997 27.1963 28.0698 27.1332 28.0098C27.0732 27.9467 27.0432 27.8631 27.0432 27.7589Z" fill="#004D43"/>
<path d="M28.4431 28.9233L28.3721 28.4831C28.5993 28.4074 28.8596 28.3695 29.1531 28.3695C29.5002 28.3695 29.7463 28.4484 29.8915 28.6062C30.0366 28.7608 30.1092 29.0448 30.1092 29.4582V30.3481C30.1092 30.4806 30.1566 30.5469 30.2512 30.5469C30.2954 30.5469 30.3459 30.5358 30.4027 30.5137L30.4453 30.9113C30.3254 30.9618 30.1913 30.9871 30.043 30.9871C29.8158 30.9871 29.6769 30.8908 29.6264 30.6983C29.4213 30.8908 29.1831 30.9871 28.9117 30.9871C28.6687 30.9871 28.4825 30.9129 28.3532 30.7646C28.2269 30.6163 28.1638 30.427 28.1638 30.1966C28.1638 29.6128 28.4888 29.3209 29.1389 29.3209C29.2683 29.3209 29.4024 29.3367 29.5412 29.3683V29.2594C29.5412 28.9659 29.3756 28.8192 29.0442 28.8192C28.8644 28.8192 28.664 28.8539 28.4431 28.9233ZM29.5412 30.3244V29.7422C29.4339 29.7043 29.333 29.6854 29.2383 29.6854C28.9133 29.6854 28.7508 29.8384 28.7508 30.1445C28.7508 30.2676 28.7792 30.3654 28.836 30.438C28.8928 30.5074 28.9764 30.5421 29.0868 30.5421C29.2572 30.5421 29.4087 30.4696 29.5412 30.3244Z" fill="#004D43"/>
<path d="M31.3697 28.4169L31.3886 28.6677C31.6158 28.4689 31.8651 28.3695 32.1365 28.3695C32.5436 28.3695 32.7739 28.5447 32.8276 28.8949C32.8402 28.9738 32.8465 29.0795 32.8465 29.2121V30.9397H32.2548V29.2878C32.2548 29.19 32.2533 29.1253 32.2501 29.0937C32.2312 28.9391 32.127 28.8618 31.9377 28.8618C31.7736 28.8618 31.6032 28.9407 31.4265 29.0985V30.9397H30.8301V28.4169H31.3697Z" fill="#004D43"/>
<path d="M34.6451 30.9397V27.5365H35.7338C36.1598 27.5365 36.4927 27.6548 36.7325 27.8915C36.9723 28.1281 37.0923 28.5273 37.0923 29.089C37.0923 29.3793 37.0654 29.6349 37.0118 29.8558C36.9613 30.0735 36.8919 30.2502 36.8035 30.3859C36.7183 30.5216 36.611 30.6321 36.4817 30.7173C36.3523 30.8025 36.2182 30.8608 36.0793 30.8924C35.9405 30.924 35.7843 30.9397 35.6107 30.9397H34.6451ZM35.251 27.9956V30.4806H35.6486C35.9231 30.4806 36.1251 30.378 36.2545 30.1729C36.387 29.9678 36.4533 29.6318 36.4533 29.1647C36.4533 28.745 36.3933 28.4453 36.2734 28.2654C36.1535 28.0855 35.9657 27.9956 35.7101 27.9956H35.251Z" fill="#004D43"/>
<path d="M37.6389 28.4169H38.2306V30.9397H37.6389V28.4169ZM37.5916 27.7589C37.5916 27.6516 37.6231 27.568 37.6862 27.5081C37.7493 27.4481 37.8314 27.4181 37.9324 27.4181C38.0428 27.4181 38.128 27.4481 38.188 27.5081C38.2479 27.5649 38.2779 27.6485 38.2779 27.7589C38.2779 27.8694 38.2448 27.9546 38.1785 28.0145C38.1154 28.0713 38.0333 28.0997 37.9324 28.0997C37.8282 28.0997 37.7446 28.0698 37.6815 28.0098C37.6215 27.9467 37.5916 27.8631 37.5916 27.7589Z" fill="#004D43"/>
<path d="M40.2599 28.5778L40.2836 28.4169H40.8137V30.9019C40.8137 31.634 40.4761 32 39.8008 32C39.4632 32 39.1681 31.9385 38.9157 31.8154L39.0056 31.2995C39.1034 31.3594 39.2218 31.4083 39.3606 31.4462C39.5026 31.4872 39.6336 31.5077 39.7535 31.5077C40.0785 31.5077 40.241 31.2963 40.241 30.8735V30.722C40.0864 30.8892 39.8876 30.9729 39.6446 30.9729C39.3701 30.9729 39.1508 30.8672 38.9867 30.6557C38.8257 30.4412 38.7453 30.1224 38.7453 29.6996C38.7453 29.4661 38.7752 29.2531 38.8352 29.0606C38.8983 28.8681 39.0024 28.7056 39.1476 28.5731C39.2959 28.4374 39.4758 28.3695 39.6872 28.3695C39.8986 28.3695 40.0895 28.439 40.2599 28.5778ZM40.2221 30.3102V28.9896C40.0738 28.8823 39.9412 28.8287 39.8245 28.8287C39.5152 28.8287 39.3606 29.1221 39.3606 29.7091C39.3606 30.2392 39.5105 30.5043 39.8103 30.5043C39.9554 30.5043 40.0927 30.4396 40.2221 30.3102Z" fill="#004D43"/>
<path d="M41.457 28.4169H42.0487V30.9397H41.457V28.4169ZM41.4097 27.7589C41.4097 27.6516 41.4412 27.568 41.5043 27.5081C41.5674 27.4481 41.6495 27.4181 41.7505 27.4181C41.8609 27.4181 41.9461 27.4481 42.0061 27.5081C42.066 27.5649 42.096 27.6485 42.096 27.7589C42.096 27.8694 42.0629 27.9546 41.9966 28.0145C41.9335 28.0713 41.8514 28.0997 41.7505 28.0997C41.6463 28.0997 41.5627 28.0698 41.4996 28.0098C41.4396 27.9467 41.4097 27.8631 41.4097 27.7589Z" fill="#004D43"/>
<path d="M43.8982 28.8429H43.3302V30.1351C43.3302 30.2108 43.3333 30.2723 43.3396 30.3197C43.3491 30.367 43.3712 30.4096 43.4059 30.4475C43.4438 30.4853 43.4958 30.5043 43.5621 30.5043C43.6473 30.5043 43.7546 30.4743 43.884 30.4143L43.9502 30.8687C43.7767 30.9508 43.5905 30.9918 43.3917 30.9918C42.9531 30.9918 42.7338 30.7614 42.7338 30.3007V28.8429H42.4072V28.4169H42.7338V27.9956L43.3302 27.7069V28.4169H43.8982V28.8429Z" fill="#004D43"/>
<path d="M44.4828 28.9233L44.4118 28.4831C44.639 28.4074 44.8993 28.3695 45.1928 28.3695C45.5399 28.3695 45.7861 28.4484 45.9312 28.6062C46.0764 28.7608 46.1489 29.0448 46.1489 29.4582V30.3481C46.1489 30.4806 46.1963 30.5469 46.2909 30.5469C46.3351 30.5469 46.3856 30.5358 46.4424 30.5137L46.485 30.9113C46.3651 30.9618 46.231 30.9871 46.0827 30.9871C45.8555 30.9871 45.7166 30.8908 45.6661 30.6983C45.461 30.8908 45.2228 30.9871 44.9514 30.9871C44.7084 30.9871 44.5223 30.9129 44.3929 30.7646C44.2667 30.6163 44.2035 30.427 44.2035 30.1966C44.2035 29.6128 44.5286 29.3209 45.1786 29.3209C45.308 29.3209 45.4421 29.3367 45.5809 29.3683V29.2594C45.5809 28.9659 45.4153 28.8192 45.0839 28.8192C44.9041 28.8192 44.7037 28.8539 44.4828 28.9233ZM45.5809 30.3244V29.7422C45.4737 29.7043 45.3727 29.6854 45.278 29.6854C44.953 29.6854 44.7905 29.8384 44.7905 30.1445C44.7905 30.2676 44.8189 30.3654 44.8757 30.438C44.9325 30.5074 45.0161 30.5421 45.1265 30.5421C45.2969 30.5421 45.4484 30.4696 45.5809 30.3244Z" fill="#004D43"/>
<path d="M46.7999 30.2629V27.5365H47.3916V30.1777C47.3916 30.2913 47.4089 30.3733 47.4437 30.4238C47.4815 30.4743 47.5431 30.4995 47.6283 30.4995C47.7261 30.4995 47.8334 30.4711 47.9501 30.4143L48.0211 30.8687C47.8507 30.9508 47.6645 30.9918 47.4626 30.9918C47.2165 30.9918 47.0445 30.9303 46.9467 30.8072C46.8488 30.681 46.7999 30.4995 46.7999 30.2629Z" fill="#004D43"/>
</svg>
