<svg width="240" height="48" viewBox="0 0 240 48" fill="none" xmlns="http://www.w3.org/2000/svg">
<path d="M2.792 10.7244V14.4204H1V4.35439H4.528C5.592 4.35439 6.418 4.60173 7.006 5.09639C7.594 5.59106 7.888 6.30973 7.888 7.25239C7.888 8.30706 7.566 9.15173 6.922 9.78639C6.28733 10.4117 5.42867 10.7244 4.346 10.7244H2.792ZM2.792 9.33839H4.15C4.77533 9.33839 5.24667 9.17506 5.564 8.84839C5.89067 8.51239 6.054 8.02706 6.054 7.39239C6.054 6.28173 5.466 5.72639 4.29 5.72639H2.792V9.33839Z" fill="white"/>
<path d="M14.1077 10.9904H10.1177C10.1271 11.6904 10.2857 12.2271 10.5937 12.6004C10.9017 12.9644 11.3264 13.1464 11.8677 13.1464C12.5304 13.1464 13.1977 12.9597 13.8697 12.5864L13.9677 14.0564C13.3331 14.4017 12.5724 14.5744 11.6857 14.5744C9.45505 14.5744 8.33972 13.2537 8.33972 10.6124C8.33972 9.32439 8.61505 8.37239 9.16572 7.75639C9.72572 7.13106 10.4584 6.81839 11.3637 6.81839C13.1931 6.81839 14.1077 7.98506 14.1077 10.3184V10.9904ZM12.4557 9.89839C12.4557 8.70373 12.0824 8.10639 11.3357 8.10639C10.9344 8.10639 10.6311 8.27439 10.4257 8.61039C10.2297 8.94639 10.1317 9.37573 10.1317 9.89839H12.4557Z" fill="white"/>
<path d="M19.5713 7.43439L19.6413 6.95839H21.2093V14.3084C21.2093 16.4737 20.2107 17.5564 18.2133 17.5564C17.2147 17.5564 16.342 17.3744 15.5953 17.0104L15.8613 15.4844C16.1507 15.6617 16.5007 15.8064 16.9113 15.9184C17.3313 16.0397 17.7187 16.1004 18.0733 16.1004C19.0347 16.1004 19.5153 15.4751 19.5153 14.2244V13.7764C19.058 14.2711 18.47 14.5184 17.7513 14.5184C16.9393 14.5184 16.2907 14.2057 15.8053 13.5804C15.3293 12.9457 15.0913 12.0031 15.0913 10.7524C15.0913 10.0617 15.18 9.43173 15.3573 8.86239C15.544 8.29306 15.852 7.81239 16.2813 7.42039C16.72 7.01906 17.252 6.81839 17.8773 6.81839C18.5027 6.81839 19.0673 7.02373 19.5713 7.43439ZM19.4593 12.5584V8.65239C19.0207 8.33506 18.6287 8.17639 18.2833 8.17639C17.3687 8.17639 16.9113 9.04439 16.9113 10.7804C16.9113 12.3484 17.3547 13.1324 18.2413 13.1324C18.6707 13.1324 19.0767 12.9411 19.4593 12.5584Z" fill="white"/>
<path d="M23.3639 8.45639L23.1539 7.15439C23.8259 6.93039 24.5959 6.81839 25.4639 6.81839C26.4906 6.81839 27.2186 7.05173 27.6479 7.51839C28.0772 7.97573 28.2919 8.81573 28.2919 10.0384V12.6704C28.2919 13.0624 28.4319 13.2584 28.7119 13.2584C28.8426 13.2584 28.9919 13.2257 29.1599 13.1604L29.2859 14.3364C28.9312 14.4857 28.5346 14.5604 28.0959 14.5604C27.4239 14.5604 27.0132 14.2757 26.8639 13.7064C26.2572 14.2757 25.5526 14.5604 24.7499 14.5604C24.0312 14.5604 23.4806 14.3411 23.0979 13.9024C22.7246 13.4637 22.5379 12.9037 22.5379 12.2224C22.5379 10.4957 23.4992 9.63239 25.4219 9.63239C25.8046 9.63239 26.2012 9.67906 26.6119 9.77239V9.45039C26.6119 8.58239 26.1219 8.14839 25.1419 8.14839C24.6099 8.14839 24.0172 8.25106 23.3639 8.45639ZM26.6119 12.6004V10.8784C26.2946 10.7664 25.9959 10.7104 25.7159 10.7104C24.7546 10.7104 24.2739 11.1631 24.2739 12.0684C24.2739 12.4324 24.3579 12.7217 24.5259 12.9364C24.6939 13.1417 24.9412 13.2444 25.2679 13.2444C25.7719 13.2444 26.2199 13.0297 26.6119 12.6004Z" fill="white"/>
<path d="M34.1793 7.29439V4.35439H35.9293V14.4204H34.3613L34.3053 13.7624C33.792 14.2944 33.1807 14.5604 32.4713 14.5604C31.6593 14.5604 31.0107 14.2384 30.5253 13.5944C30.0493 12.9504 29.8113 12.0031 29.8113 10.7524C29.8113 10.0617 29.9047 9.43173 30.0913 8.86239C30.278 8.28373 30.5907 7.79839 31.0293 7.40639C31.468 7.01439 32.0093 6.81839 32.6533 6.81839C33.2133 6.81839 33.722 6.97706 34.1793 7.29439ZM34.1933 12.6144V8.62439C33.7547 8.30706 33.3673 8.14839 33.0313 8.14839C32.098 8.14839 31.6313 9.02573 31.6313 10.7804C31.6313 11.5644 31.748 12.1617 31.9813 12.5724C32.2147 12.9831 32.546 13.1884 32.9753 13.1884C33.4047 13.1884 33.8107 12.9971 34.1933 12.6144Z" fill="white"/>
<path d="M38.0839 8.45639L37.8739 7.15439C38.5459 6.93039 39.3159 6.81839 40.1839 6.81839C41.2106 6.81839 41.9386 7.05173 42.3679 7.51839C42.7973 7.97573 43.0119 8.81573 43.0119 10.0384V12.6704C43.0119 13.0624 43.1519 13.2584 43.4319 13.2584C43.5626 13.2584 43.7119 13.2257 43.8799 13.1604L44.0059 14.3364C43.6513 14.4857 43.2546 14.5604 42.8159 14.5604C42.1439 14.5604 41.7333 14.2757 41.5839 13.7064C40.9773 14.2757 40.2726 14.5604 39.4699 14.5604C38.7513 14.5604 38.2006 14.3411 37.8179 13.9024C37.4446 13.4637 37.2579 12.9037 37.2579 12.2224C37.2579 10.4957 38.2193 9.63239 40.1419 9.63239C40.5246 9.63239 40.9213 9.67906 41.3319 9.77239V9.45039C41.3319 8.58239 40.8419 8.14839 39.8619 8.14839C39.3299 8.14839 38.7373 8.25106 38.0839 8.45639ZM41.3319 12.6004V10.8784C41.0146 10.7664 40.7159 10.7104 40.4359 10.7104C39.4746 10.7104 38.9939 11.1631 38.9939 12.0684C38.9939 12.4324 39.0779 12.7217 39.2459 12.9364C39.4139 13.1417 39.6613 13.2444 39.9879 13.2444C40.4919 13.2444 40.9399 13.0297 41.3319 12.6004Z" fill="white"/>
<path d="M45.0461 6.95839H46.7961V14.4204H45.0461V6.95839ZM44.9061 5.01239C44.9061 4.69506 44.9994 4.44773 45.1861 4.27039C45.3727 4.09306 45.6154 4.00439 45.9141 4.00439C46.2407 4.00439 46.4927 4.09306 46.6701 4.27039C46.8474 4.43839 46.9361 4.68573 46.9361 5.01239C46.9361 5.33906 46.8381 5.59106 46.6421 5.76839C46.4554 5.93639 46.2127 6.02039 45.9141 6.02039C45.6061 6.02039 45.3587 5.93173 45.1721 5.75439C44.9947 5.56773 44.9061 5.32039 44.9061 5.01239Z" fill="white"/>
<path d="M48.9485 8.45639L48.7385 7.15439C49.4105 6.93039 50.1805 6.81839 51.0485 6.81839C52.0751 6.81839 52.8031 7.05173 53.2325 7.51839C53.6618 7.97573 53.8765 8.81573 53.8765 10.0384V12.6704C53.8765 13.0624 54.0165 13.2584 54.2965 13.2584C54.4271 13.2584 54.5765 13.2257 54.7445 13.1604L54.8705 14.3364C54.5158 14.4857 54.1191 14.5604 53.6805 14.5604C53.0085 14.5604 52.5978 14.2757 52.4485 13.7064C51.8418 14.2757 51.1371 14.5604 50.3345 14.5604C49.6158 14.5604 49.0651 14.3411 48.6825 13.9024C48.3091 13.4637 48.1225 12.9037 48.1225 12.2224C48.1225 10.4957 49.0838 9.63239 51.0065 9.63239C51.3891 9.63239 51.7858 9.67906 52.1965 9.77239V9.45039C52.1965 8.58239 51.7065 8.14839 50.7265 8.14839C50.1945 8.14839 49.6018 8.25106 48.9485 8.45639ZM52.1965 12.6004V10.8784C51.8791 10.7664 51.5805 10.7104 51.3005 10.7104C50.3391 10.7104 49.8585 11.1631 49.8585 12.0684C49.8585 12.4324 49.9425 12.7217 50.1105 12.9364C50.2785 13.1417 50.5258 13.2444 50.8525 13.2444C51.3565 13.2444 51.8045 13.0297 52.1965 12.6004Z" fill="white"/>
<path d="M57.5066 6.95839L57.5626 7.70039C58.2346 7.11239 58.972 6.81839 59.7746 6.81839C60.9786 6.81839 61.66 7.33639 61.8186 8.37239C61.856 8.60573 61.8746 8.9184 61.8746 9.31039V14.4204H60.1246V9.53439C60.1246 9.24506 60.12 9.05373 60.1106 8.96039C60.0546 8.50306 59.7466 8.27439 59.1866 8.27439C58.7013 8.27439 58.1973 8.50773 57.6746 8.97439V14.4204H55.9106V6.95839H57.5066Z" fill="white"/>
<path d="M8.35398 31.7523V29.2563H14.958V37.7843C13.138 38.651 11.1966 39.0843 9.13398 39.0843C6.37798 39.0843 4.34998 38.2783 3.04998 36.6663C1.76731 35.0543 1.12598 32.515 1.12598 29.0483C1.12598 26.171 1.72398 23.883 2.91998 22.1843C4.13331 20.4857 5.99664 19.6363 8.50998 19.6363C10.3646 19.6363 11.7773 20.0697 12.748 20.9363C13.7186 21.7857 14.3686 23.0077 14.698 24.6023L11.604 25.3563C11.3093 24.299 10.928 23.5277 10.46 23.0423C10.0093 22.5397 9.32464 22.2883 8.40598 22.2883C5.87531 22.2883 4.60998 24.507 4.60998 28.9443C4.60998 30.1403 4.67064 31.163 4.79198 32.0123C4.91331 32.8617 5.13864 33.6417 5.46798 34.3523C5.79731 35.0457 6.26531 35.5743 6.87198 35.9383C7.49598 36.285 8.26731 36.4583 9.18598 36.4583C10.122 36.4583 10.9626 36.3023 11.708 35.9903V31.7523H8.35398Z" fill="#BFD730"/>
<path d="M18.5405 27.6443L18.1505 25.2263C19.3985 24.8103 20.8285 24.6023 22.4405 24.6023C24.3472 24.6023 25.6992 25.0357 26.4965 25.9023C27.2938 26.7517 27.6925 28.3117 27.6925 30.5823V35.4703C27.6925 36.1983 27.9525 36.5623 28.4725 36.5623C28.7152 36.5623 28.9925 36.5017 29.3045 36.3803L29.5385 38.5643C28.8798 38.8417 28.1432 38.9803 27.3285 38.9803C26.0805 38.9803 25.3178 38.4517 25.0405 37.3943C23.9138 38.4517 22.6052 38.9803 21.1145 38.9803C19.7798 38.9803 18.7572 38.573 18.0465 37.7583C17.3532 36.9437 17.0065 35.9037 17.0065 34.6383C17.0065 31.4317 18.7918 29.8283 22.3625 29.8283C23.0732 29.8283 23.8098 29.915 24.5725 30.0883V29.4903C24.5725 27.8783 23.6625 27.0723 21.8425 27.0723C20.8545 27.0723 19.7538 27.263 18.5405 27.6443ZM24.5725 35.3403V32.1423C23.9832 31.9343 23.4285 31.8303 22.9085 31.8303C21.1232 31.8303 20.2305 32.671 20.2305 34.3523C20.2305 35.0283 20.3865 35.5657 20.6985 35.9643C21.0105 36.3457 21.4698 36.5363 22.0765 36.5363C23.0125 36.5363 23.8445 36.1377 24.5725 35.3403Z" fill="#BFD730"/>
<path d="M38.6003 25.4863V20.0263H41.8503V38.7203H38.9383L38.8343 37.4983C37.881 38.4863 36.7456 38.9803 35.4283 38.9803C33.9203 38.9803 32.7156 38.3823 31.8143 37.1863C30.9303 35.9903 30.4883 34.231 30.4883 31.9083C30.4883 30.6257 30.6616 29.4557 31.0083 28.3983C31.355 27.3237 31.9356 26.4223 32.7503 25.6943C33.565 24.9663 34.5703 24.6023 35.7663 24.6023C36.8063 24.6023 37.751 24.897 38.6003 25.4863ZM38.6263 35.3663V27.9563C37.8116 27.367 37.0923 27.0723 36.4683 27.0723C34.735 27.0723 33.8683 28.7017 33.8683 31.9603C33.8683 33.4163 34.085 34.5257 34.5183 35.2883C34.9516 36.051 35.567 36.4323 36.3643 36.4323C37.1616 36.4323 37.9156 36.077 38.6263 35.3663Z" fill="#BFD730"/>
<path d="M45.8257 27.6443L45.4357 25.2263C46.6837 24.8103 48.1137 24.6023 49.7257 24.6023C51.6323 24.6023 52.9843 25.0357 53.7817 25.9023C54.579 26.7517 54.9777 28.3117 54.9777 30.5823V35.4703C54.9777 36.1983 55.2377 36.5623 55.7577 36.5623C56.0003 36.5623 56.2777 36.5017 56.5897 36.3803L56.8237 38.5643C56.165 38.8417 55.4283 38.9803 54.6137 38.9803C53.3657 38.9803 52.603 38.4517 52.3257 37.3943C51.199 38.4517 49.8903 38.9803 48.3997 38.9803C47.065 38.9803 46.0423 38.573 45.3317 37.7583C44.6383 36.9437 44.2917 35.9037 44.2917 34.6383C44.2917 31.4317 46.077 29.8283 49.6477 29.8283C50.3583 29.8283 51.095 29.915 51.8577 30.0883V29.4903C51.8577 27.8783 50.9477 27.0723 49.1277 27.0723C48.1397 27.0723 47.039 27.263 45.8257 27.6443ZM51.8577 35.3403V32.1423C51.2683 31.9343 50.7137 31.8303 50.1937 31.8303C48.4083 31.8303 47.5157 32.671 47.5157 34.3523C47.5157 35.0283 47.6717 35.5657 47.9837 35.9643C48.2957 36.3457 48.755 36.5363 49.3617 36.5363C50.2977 36.5363 51.1297 36.1377 51.8577 35.3403Z" fill="#BFD730"/>
<path d="M58.7294 24.8623H61.9794V38.7203H58.7294V24.8623ZM58.4694 21.2483C58.4694 20.659 58.6427 20.1997 58.9894 19.8703C59.3361 19.541 59.7867 19.3763 60.3414 19.3763C60.9481 19.3763 61.416 19.541 61.7454 19.8703C62.0747 20.1823 62.2394 20.6417 62.2394 21.2483C62.2394 21.855 62.0574 22.323 61.6934 22.6523C61.3467 22.9643 60.896 23.1203 60.3414 23.1203C59.7694 23.1203 59.3101 22.9557 58.9634 22.6263C58.634 22.2797 58.4694 21.8203 58.4694 21.2483Z" fill="#BFD730"/>
<path d="M67.733 38.7203V25.0593H75.067V26.2373H69.044V31.0253H74.288V32.2033H69.044V37.5233H75.314V38.7203H67.733Z" fill="#BFD730"/>
<path d="M84.1719 28.8213L80.9609 33.7803L84.1529 38.7203H82.6899L80.2009 34.8253L77.6929 38.7203H76.1729L79.4979 33.7613L76.3249 28.8213L77.7879 28.6883L80.2579 32.7543L82.8039 28.6883L84.1719 28.8213Z" fill="#BFD730"/>
<path d="M86.0964 28.6883H87.3504V29.7713C88.5791 28.91 89.5861 28.4793 90.3714 28.4793C91.3087 28.4793 92.0434 28.853 92.5754 29.6003C93.1201 30.335 93.3924 31.4307 93.3924 32.8873C93.3924 36.9027 92.1067 38.9103 89.5354 38.9103C88.75 38.9103 88.028 38.7013 87.3694 38.2833V42.6913H86.0964V28.6883ZM87.3504 30.8353V36.9913C88.0344 37.5233 88.8007 37.7893 89.6494 37.7893C90.232 37.7893 90.707 37.555 91.0744 37.0863C91.4417 36.6177 91.6887 36.073 91.8154 35.4523C91.9421 34.8317 92.0054 34.1413 92.0054 33.3813C92.0054 31.988 91.8344 31.0253 91.4924 30.4933C91.1631 29.9487 90.6817 29.6763 90.0484 29.6763C89.3517 29.6763 88.4524 30.0627 87.3504 30.8353Z" fill="#BFD730"/>
<path d="M99.7078 28.4793C100.62 28.4793 101.259 28.9987 101.627 30.0373L100.582 30.6073C100.43 30.278 100.271 30.0437 100.107 29.9043C99.9421 29.7523 99.7015 29.6763 99.3848 29.6763C98.7895 29.6763 98.1118 30.1133 97.3518 30.9873V38.7203H96.0788V28.6883H97.2758V29.8093C98.0865 28.9227 98.8971 28.4793 99.7078 28.4793Z" fill="#BFD730"/>
<path d="M109.684 33.8373H103.889C103.889 36.4973 104.839 37.8273 106.739 37.8273C107.613 37.8273 108.506 37.5867 109.418 37.1053L109.532 38.2453C108.683 38.714 107.701 38.9483 106.587 38.9483C103.914 38.9483 102.578 37.1687 102.578 33.6093C102.578 31.8487 102.913 30.5567 103.585 29.7333C104.256 28.8973 105.181 28.4793 106.359 28.4793C107.511 28.4793 108.354 28.8783 108.886 29.6763C109.418 30.4617 109.684 31.627 109.684 33.1723V33.8373ZM108.373 32.8303C108.373 31.7663 108.189 30.962 107.822 30.4173C107.467 29.86 106.954 29.5813 106.283 29.5813C105.51 29.5813 104.921 29.9107 104.516 30.5693C104.11 31.2153 103.908 31.969 103.908 32.8303H108.373Z" fill="#BFD730"/>
<path d="M111.384 37.8843L111.726 36.7063C112.005 36.9597 112.41 37.213 112.942 37.4663C113.474 37.7197 113.981 37.8463 114.462 37.8463C115.083 37.8463 115.583 37.707 115.963 37.4283C116.343 37.1497 116.533 36.7443 116.533 36.2123C116.533 35.7183 116.362 35.3257 116.02 35.0343C115.678 34.743 115.26 34.5213 114.766 34.3693C114.272 34.2173 113.778 34.0527 113.284 33.8753C112.803 33.698 112.391 33.394 112.049 32.9633C111.707 32.5327 111.536 31.969 111.536 31.2723C111.536 30.411 111.847 29.7333 112.467 29.2393C113.088 28.7327 113.848 28.4793 114.747 28.4793C115.672 28.4793 116.394 28.7137 116.913 29.1823C117.445 29.6383 117.768 30.1767 117.882 30.7973L116.856 31.2153C116.704 30.6833 116.438 30.2843 116.058 30.0183C115.678 29.7397 115.235 29.6003 114.728 29.6003C114.196 29.6003 113.747 29.7333 113.379 29.9993C113.012 30.2653 112.828 30.6707 112.828 31.2153C112.828 31.7093 112.999 32.1083 113.341 32.4123C113.683 32.7037 114.095 32.9253 114.576 33.0773C115.07 33.2293 115.564 33.394 116.058 33.5713C116.552 33.736 116.97 34.021 117.312 34.4263C117.654 34.8317 117.825 35.3573 117.825 36.0033C117.825 36.8647 117.528 37.574 116.932 38.1313C116.35 38.676 115.52 38.9483 114.443 38.9483C113.835 38.9483 113.234 38.8343 112.638 38.6063C112.056 38.3657 111.638 38.125 111.384 37.8843Z" fill="#BFD730"/>
<path d="M119.493 37.8843L119.835 36.7063C120.114 36.9597 120.519 37.213 121.051 37.4663C121.583 37.7197 122.09 37.8463 122.571 37.8463C123.192 37.8463 123.692 37.707 124.072 37.4283C124.452 37.1497 124.642 36.7443 124.642 36.2123C124.642 35.7183 124.471 35.3257 124.129 35.0343C123.787 34.743 123.369 34.5213 122.875 34.3693C122.381 34.2173 121.887 34.0527 121.393 33.8753C120.912 33.698 120.5 33.394 120.158 32.9633C119.816 32.5327 119.645 31.969 119.645 31.2723C119.645 30.411 119.955 29.7333 120.576 29.2393C121.197 28.7327 121.957 28.4793 122.856 28.4793C123.781 28.4793 124.503 28.7137 125.022 29.1823C125.554 29.6383 125.877 30.1767 125.991 30.7973L124.965 31.2153C124.813 30.6833 124.547 30.2843 124.167 30.0183C123.787 29.7397 123.344 29.6003 122.837 29.6003C122.305 29.6003 121.855 29.7333 121.488 29.9993C121.121 30.2653 120.937 30.6707 120.937 31.2153C120.937 31.7093 121.108 32.1083 121.45 32.4123C121.792 32.7037 122.204 32.9253 122.685 33.0773C123.179 33.2293 123.673 33.394 124.167 33.5713C124.661 33.736 125.079 34.021 125.421 34.4263C125.763 34.8317 125.934 35.3573 125.934 36.0033C125.934 36.8647 125.636 37.574 125.041 38.1313C124.458 38.676 123.629 38.9483 122.552 38.9483C121.944 38.9483 121.342 38.8343 120.747 38.6063C120.164 38.3657 119.746 38.125 119.493 37.8843Z" fill="#BFD730"/>
</svg>
