<svg width="240" height="48" viewBox="0 0 240 48" fill="none" xmlns="http://www.w3.org/2000/svg">
<path d="M2.93995 10.72V14.416H1.14795V4.35H4.67595C5.73995 4.35 6.56595 4.59733 7.15395 5.092C7.74195 5.58667 8.03595 6.30533 8.03595 7.248C8.03595 8.30267 7.71395 9.14733 7.06995 9.782C6.43528 10.4073 5.57662 10.72 4.49395 10.72H2.93995ZM2.93995 9.334H4.29795C4.92328 9.334 5.39462 9.17067 5.71195 8.844C6.03862 8.508 6.20195 8.02267 6.20195 7.388C6.20195 6.27733 5.61395 5.722 4.43795 5.722H2.93995V9.334Z" fill="white"/>
<path d="M14.2557 10.986H10.2657C10.275 11.686 10.4337 12.2227 10.7417 12.596C11.0497 12.96 11.4743 13.142 12.0157 13.142C12.6783 13.142 13.3457 12.9553 14.0177 12.582L14.1157 14.052C13.481 14.3973 12.7203 14.57 11.8337 14.57C9.603 14.57 8.48767 13.2493 8.48767 10.608C8.48767 9.32 8.763 8.368 9.31367 7.752C9.87367 7.12667 10.6063 6.814 11.5117 6.814C13.341 6.814 14.2557 7.98067 14.2557 10.314V10.986ZM12.6037 9.894C12.6037 8.69933 12.2303 8.102 11.4837 8.102C11.0823 8.102 10.779 8.27 10.5737 8.606C10.3777 8.942 10.2797 9.37133 10.2797 9.894H12.6037Z" fill="white"/>
<path d="M19.7193 7.43L19.7893 6.954H21.3573V14.304C21.3573 16.4693 20.3586 17.552 18.3613 17.552C17.3626 17.552 16.4899 17.37 15.7433 17.006L16.0093 15.48C16.2986 15.6573 16.6486 15.802 17.0593 15.914C17.4793 16.0353 17.8666 16.096 18.2213 16.096C19.1826 16.096 19.6633 15.4707 19.6633 14.22V13.772C19.2059 14.2667 18.6179 14.514 17.8993 14.514C17.0873 14.514 16.4386 14.2013 15.9533 13.576C15.4773 12.9413 15.2393 11.9987 15.2393 10.748C15.2393 10.0573 15.3279 9.42733 15.5053 8.858C15.6919 8.28867 15.9999 7.808 16.4293 7.416C16.8679 7.01467 17.3999 6.814 18.0253 6.814C18.6506 6.814 19.2153 7.01933 19.7193 7.43ZM19.6073 12.554V8.648C19.1686 8.33067 18.7766 8.172 18.4313 8.172C17.5166 8.172 17.0593 9.04 17.0593 10.776C17.0593 12.344 17.5026 13.128 18.3893 13.128C18.8186 13.128 19.2246 12.9367 19.6073 12.554Z" fill="white"/>
<path d="M23.5119 8.452L23.3019 7.15C23.9739 6.926 24.7439 6.814 25.6119 6.814C26.6385 6.814 27.3665 7.04733 27.7959 7.514C28.2252 7.97133 28.4399 8.81133 28.4399 10.034V12.666C28.4399 13.058 28.5799 13.254 28.8599 13.254C28.9905 13.254 29.1399 13.2213 29.3079 13.156L29.4339 14.332C29.0792 14.4813 28.6825 14.556 28.2439 14.556C27.5719 14.556 27.1612 14.2713 27.0119 13.702C26.4052 14.2713 25.7005 14.556 24.8979 14.556C24.1792 14.556 23.6285 14.3367 23.2459 13.898C22.8725 13.4593 22.6859 12.8993 22.6859 12.218C22.6859 10.4913 23.6472 9.628 25.5699 9.628C25.9525 9.628 26.3492 9.67467 26.7599 9.768V9.446C26.7599 8.578 26.2699 8.144 25.2899 8.144C24.7579 8.144 24.1652 8.24667 23.5119 8.452ZM26.7599 12.596V10.874C26.4425 10.762 26.1439 10.706 25.8639 10.706C24.9025 10.706 24.4219 11.1587 24.4219 12.064C24.4219 12.428 24.5059 12.7173 24.6739 12.932C24.8419 13.1373 25.0892 13.24 25.4159 13.24C25.9199 13.24 26.3679 13.0253 26.7599 12.596Z" fill="white"/>
<path d="M34.3273 7.29V4.35H36.0773V14.416H34.5093L34.4533 13.758C33.94 14.29 33.3286 14.556 32.6193 14.556C31.8073 14.556 31.1586 14.234 30.6733 13.59C30.1973 12.946 29.9593 11.9987 29.9593 10.748C29.9593 10.0573 30.0526 9.42733 30.2393 8.858C30.426 8.27933 30.7386 7.794 31.1773 7.402C31.616 7.01 32.1573 6.814 32.8013 6.814C33.3613 6.814 33.87 6.97267 34.3273 7.29ZM34.3413 12.61V8.62C33.9026 8.30267 33.5153 8.144 33.1793 8.144C32.246 8.144 31.7793 9.02133 31.7793 10.776C31.7793 11.56 31.896 12.1573 32.1293 12.568C32.3626 12.9787 32.694 13.184 33.1233 13.184C33.5526 13.184 33.9586 12.9927 34.3413 12.61Z" fill="white"/>
<path d="M38.2319 8.452L38.0219 7.15C38.6939 6.926 39.4639 6.814 40.3319 6.814C41.3585 6.814 42.0865 7.04733 42.5159 7.514C42.9452 7.97133 43.1599 8.81133 43.1599 10.034V12.666C43.1599 13.058 43.2999 13.254 43.5799 13.254C43.7105 13.254 43.8599 13.2213 44.0279 13.156L44.1539 14.332C43.7992 14.4813 43.4025 14.556 42.9639 14.556C42.2919 14.556 41.8812 14.2713 41.7319 13.702C41.1252 14.2713 40.4205 14.556 39.6179 14.556C38.8992 14.556 38.3485 14.3367 37.9659 13.898C37.5925 13.4593 37.4059 12.8993 37.4059 12.218C37.4059 10.4913 38.3672 9.628 40.2899 9.628C40.6725 9.628 41.0692 9.67467 41.4799 9.768V9.446C41.4799 8.578 40.9899 8.144 40.0099 8.144C39.4779 8.144 38.8852 8.24667 38.2319 8.452ZM41.4799 12.596V10.874C41.1625 10.762 40.8639 10.706 40.5839 10.706C39.6225 10.706 39.1419 11.1587 39.1419 12.064C39.1419 12.428 39.2259 12.7173 39.3939 12.932C39.5619 13.1373 39.8092 13.24 40.1359 13.24C40.6399 13.24 41.0879 13.0253 41.4799 12.596Z" fill="white"/>
<path d="M45.194 6.954H46.944V14.416H45.194V6.954ZM45.054 5.008C45.054 4.69067 45.1474 4.44333 45.334 4.266C45.5207 4.08867 45.7634 4 46.062 4C46.3887 4 46.6407 4.08867 46.818 4.266C46.9954 4.434 47.084 4.68133 47.084 5.008C47.084 5.33467 46.986 5.58667 46.79 5.764C46.6034 5.932 46.3607 6.016 46.062 6.016C45.754 6.016 45.5067 5.92733 45.32 5.75C45.1427 5.56333 45.054 5.316 45.054 5.008Z" fill="white"/>
<path d="M49.0964 8.452L48.8864 7.15C49.5584 6.926 50.3284 6.814 51.1964 6.814C52.2231 6.814 52.9511 7.04733 53.3804 7.514C53.8097 7.97133 54.0244 8.81133 54.0244 10.034V12.666C54.0244 13.058 54.1644 13.254 54.4444 13.254C54.5751 13.254 54.7244 13.2213 54.8924 13.156L55.0184 14.332C54.6637 14.4813 54.2671 14.556 53.8284 14.556C53.1564 14.556 52.7458 14.2713 52.5964 13.702C51.9898 14.2713 51.2851 14.556 50.4824 14.556C49.7638 14.556 49.2131 14.3367 48.8304 13.898C48.4571 13.4593 48.2704 12.8993 48.2704 12.218C48.2704 10.4913 49.2318 9.628 51.1544 9.628C51.5371 9.628 51.9338 9.67467 52.3444 9.768V9.446C52.3444 8.578 51.8544 8.144 50.8744 8.144C50.3424 8.144 49.7497 8.24667 49.0964 8.452ZM52.3444 12.596V10.874C52.0271 10.762 51.7284 10.706 51.4484 10.706C50.4871 10.706 50.0064 11.1587 50.0064 12.064C50.0064 12.428 50.0904 12.7173 50.2584 12.932C50.4264 13.1373 50.6738 13.24 51.0004 13.24C51.5044 13.24 51.9524 13.0253 52.3444 12.596Z" fill="white"/>
<path d="M57.6546 6.954L57.7106 7.696C58.3826 7.108 59.1199 6.814 59.9226 6.814C61.1266 6.814 61.8079 7.332 61.9666 8.368C62.0039 8.60133 62.0226 8.914 62.0226 9.306V14.416H60.2726V9.53C60.2726 9.24067 60.2679 9.04933 60.2586 8.956C60.2026 8.49867 59.8946 8.27 59.3346 8.27C58.8492 8.27 58.3452 8.50333 57.8226 8.97V14.416H56.0586V6.954H57.6546Z" fill="white"/>
<path d="M5.45996 31.8521V38.7161H2.13196V20.0221H8.68396C10.66 20.0221 12.194 20.4814 13.286 21.4001C14.378 22.3187 14.924 23.6534 14.924 25.4041C14.924 27.3627 14.326 28.9314 13.13 30.1101C11.9513 31.2714 10.3566 31.8521 8.34596 31.8521H5.45996ZM5.45996 29.2781H7.98196C9.14329 29.2781 10.0186 28.9747 10.608 28.3681C11.2146 27.7441 11.518 26.8427 11.518 25.6641C11.518 23.6014 10.426 22.5701 8.24196 22.5701H5.45996V29.2781Z" fill="#BFD730"/>
<path d="M17.3529 24.8581H20.6029V38.7161H17.3529V24.8581ZM17.0929 21.2441C17.0929 20.6547 17.2663 20.1954 17.6129 19.8661C17.9596 19.5367 18.4103 19.3721 18.9649 19.3721C19.5716 19.3721 20.0396 19.5367 20.3689 19.8661C20.6983 20.1781 20.8629 20.6374 20.8629 21.2441C20.8629 21.8507 20.6809 22.3187 20.3169 22.6481C19.9703 22.9601 19.5196 23.1161 18.9649 23.1161C18.3929 23.1161 17.9336 22.9514 17.5869 22.6221C17.2576 22.2754 17.0929 21.8161 17.0929 21.2441Z" fill="#BFD730"/>
<path d="M26.8882 24.8581L26.9922 26.2361C28.2402 25.1441 29.6096 24.5981 31.1002 24.5981C33.3362 24.5981 34.6016 25.5601 34.8962 27.4841C34.9656 27.9174 35.0002 28.4981 35.0002 29.2261V38.7161H31.7502V29.6421C31.7502 29.1047 31.7416 28.7494 31.7242 28.5761C31.6202 27.7267 31.0482 27.3021 30.0082 27.3021C29.1069 27.3021 28.1709 27.7354 27.2002 28.6021V38.7161H23.9242V24.8581H26.8882Z" fill="#BFD730"/>
<path d="M41.5918 24.8581V40.1201C41.5918 43.0667 40.2052 44.5401 37.4318 44.5401C36.2185 44.5401 35.1525 44.3234 34.2338 43.8901L34.7278 41.2121C35.5945 41.6281 36.3572 41.8361 37.0158 41.8361C37.4665 41.8361 37.7958 41.6887 38.0038 41.3941C38.2118 41.1167 38.3158 40.6054 38.3158 39.8601V24.8581H41.5918ZM38.0558 21.2441C38.0558 20.6547 38.2292 20.1954 38.5758 19.8661C38.9225 19.5367 39.3732 19.3721 39.9278 19.3721C40.5345 19.3721 41.0025 19.5367 41.3318 19.8661C41.6612 20.1781 41.8258 20.6374 41.8258 21.2441C41.8258 21.8507 41.6438 22.3187 41.2798 22.6481C40.9332 22.9601 40.4825 23.1161 39.9278 23.1161C39.3558 23.1161 38.8965 22.9514 38.5498 22.6221C38.2205 22.2754 38.0558 21.8161 38.0558 21.2441Z" fill="#BFD730"/>
<path d="M45.5625 27.6401L45.1725 25.2221C46.4205 24.8061 47.8505 24.5981 49.4625 24.5981C51.3692 24.5981 52.7212 25.0314 53.5185 25.8981C54.3159 26.7474 54.7145 28.3074 54.7145 30.5781V35.4661C54.7145 36.1941 54.9745 36.5581 55.4945 36.5581C55.7372 36.5581 56.0145 36.4974 56.3265 36.3761L56.5605 38.5601C55.9019 38.8374 55.1652 38.9761 54.3505 38.9761C53.1025 38.9761 52.3399 38.4474 52.0625 37.3901C50.9359 38.4474 49.6272 38.9761 48.1365 38.9761C46.8019 38.9761 45.7792 38.5687 45.0685 37.7541C44.3752 36.9394 44.0285 35.8994 44.0285 34.6341C44.0285 31.4274 45.8139 29.8241 49.3845 29.8241C50.0952 29.8241 50.8319 29.9107 51.5945 30.0841V29.4861C51.5945 27.8741 50.6845 27.0681 48.8645 27.0681C47.8765 27.0681 46.7759 27.2587 45.5625 27.6401ZM51.5945 35.3361V32.1381C51.0052 31.9301 50.4505 31.8261 49.9305 31.8261C48.1452 31.8261 47.2525 32.6667 47.2525 34.3481C47.2525 35.0241 47.4085 35.5614 47.7205 35.9601C48.0325 36.3414 48.4919 36.5321 49.0985 36.5321C50.0345 36.5321 50.8665 36.1334 51.5945 35.3361Z" fill="#BFD730"/>
<path d="M65.6422 24.5981C67.1849 24.5981 68.2596 25.1267 68.8662 26.1841C70.1662 25.1267 71.5702 24.5981 73.0782 24.5981C74.5516 24.5981 75.5656 24.9881 76.1202 25.7681C76.6922 26.5307 76.9782 27.6834 76.9782 29.2261V38.7161H73.7282V29.6421C73.7282 29.1914 73.7022 28.8101 73.6502 28.4981C73.4942 27.7007 72.9569 27.3021 72.0382 27.3021C71.1716 27.3021 70.2962 27.6747 69.4122 28.4201C69.4296 28.6974 69.4382 29.1741 69.4382 29.8501V38.7161H66.2142V29.6421C66.2142 29.1394 66.1969 28.7927 66.1622 28.6021C66.0756 28.1341 65.9109 27.8047 65.6682 27.6141C65.4256 27.4061 65.0789 27.3021 64.6282 27.3021C63.6402 27.3021 62.6782 27.7354 61.7422 28.6021V38.7161H58.4662V24.8581H61.4302L61.5342 26.2101C62.7649 25.1354 64.1342 24.5981 65.6422 24.5981Z" fill="#BFD730"/>
<path d="M80.9473 27.6401L80.5573 25.2221C81.8053 24.8061 83.2353 24.5981 84.8473 24.5981C86.754 24.5981 88.106 25.0314 88.9033 25.8981C89.7006 26.7474 90.0993 28.3074 90.0993 30.5781V35.4661C90.0993 36.1941 90.3593 36.5581 90.8793 36.5581C91.122 36.5581 91.3993 36.4974 91.7113 36.3761L91.9453 38.5601C91.2866 38.8374 90.55 38.9761 89.7353 38.9761C88.4873 38.9761 87.7246 38.4474 87.4473 37.3901C86.3206 38.4474 85.012 38.9761 83.5213 38.9761C82.1866 38.9761 81.164 38.5687 80.4533 37.7541C79.76 36.9394 79.4133 35.8994 79.4133 34.6341C79.4133 31.4274 81.1986 29.8241 84.7693 29.8241C85.48 29.8241 86.2166 29.9107 86.9793 30.0841V29.4861C86.9793 27.8741 86.0693 27.0681 84.2493 27.0681C83.2613 27.0681 82.1606 27.2587 80.9473 27.6401ZM86.9793 35.3361V32.1381C86.39 31.9301 85.8353 31.8261 85.3153 31.8261C83.53 31.8261 82.6373 32.6667 82.6373 34.3481C82.6373 35.0241 82.7933 35.5614 83.1053 35.9601C83.4173 36.3414 83.8766 36.5321 84.4833 36.5321C85.4193 36.5321 86.2513 36.1334 86.9793 35.3361Z" fill="#BFD730"/>
<path d="M96.815 24.8581L96.919 26.2361C98.167 25.1441 99.5364 24.5981 101.027 24.5981C103.263 24.5981 104.528 25.5601 104.823 27.4841C104.892 27.9174 104.927 28.4981 104.927 29.2261V38.7161H101.677V29.6421C101.677 29.1047 101.668 28.7494 101.651 28.5761C101.547 27.7267 100.975 27.3021 99.935 27.3021C99.0337 27.3021 98.0977 27.7354 97.127 28.6021V38.7161H93.851V24.8581H96.815Z" fill="#BFD730"/>
<path d="M120.4 25.0549H121.996L122.623 38.7159H121.35L120.856 27.3159L117.094 37.3479H116.106L112.287 27.2779L111.774 38.7159H110.52L111.147 25.0549H112.876L116.619 35.3529L120.4 25.0549Z" fill="#BFD730"/>
<path d="M128.929 38.9439C128.219 38.9439 127.605 38.7919 127.086 38.4879C126.579 38.1839 126.193 37.7659 125.927 37.2339C125.661 36.7019 125.471 36.1573 125.357 35.5999C125.243 35.0299 125.186 34.4156 125.186 33.7569C125.186 32.2116 125.515 30.9449 126.174 29.9569C126.845 28.9689 127.839 28.4749 129.157 28.4749C131.614 28.4749 132.843 30.1723 132.843 33.5669C132.843 34.2509 132.773 34.8969 132.634 35.5049C132.494 36.1129 132.279 36.6829 131.988 37.2149C131.696 37.7469 131.285 38.1713 130.753 38.4879C130.233 38.7919 129.625 38.9439 128.929 38.9439ZM128.967 37.8419C129.473 37.8419 129.904 37.7153 130.259 37.4619C130.613 37.2086 130.873 36.8666 131.038 36.4359C131.215 36.0053 131.342 35.5619 131.418 35.1059C131.494 34.6499 131.532 34.1623 131.532 33.6429C131.532 30.9449 130.721 29.5959 129.1 29.5959C128.58 29.5959 128.137 29.7416 127.77 30.0329C127.415 30.3116 127.149 30.6853 126.972 31.1539C126.794 31.6099 126.668 32.0533 126.592 32.4839C126.528 32.9146 126.497 33.3516 126.497 33.7949C126.497 34.5296 126.56 35.1819 126.687 35.7519C126.826 36.3219 127.086 36.8159 127.466 37.2339C127.858 37.6393 128.359 37.8419 128.967 37.8419Z" fill="#BFD730"/>
<path d="M138.613 28.4749C139.335 28.4749 140.126 28.7663 140.988 29.3489V25.0549H142.261V38.7159H141.064V37.6709C140.215 38.4943 139.316 38.9059 138.366 38.9059C137.314 38.9059 136.478 38.4816 135.858 37.6329C135.237 36.7843 134.927 35.5239 134.927 33.8519C134.927 33.1806 134.99 32.5473 135.117 31.9519C135.256 31.3439 135.459 30.7739 135.725 30.2419C136.003 29.6973 136.39 29.2666 136.884 28.9499C137.378 28.6333 137.954 28.4749 138.613 28.4749ZM136.257 33.9279C136.257 35.1566 136.472 36.1066 136.903 36.7779C137.333 37.4493 137.897 37.7849 138.594 37.7849C139.468 37.7849 140.272 37.3543 141.007 36.4929V30.6029C140.158 29.9443 139.398 29.6149 138.727 29.6149C137.08 29.6149 136.257 31.0526 136.257 33.9279Z" fill="#BFD730"/>
<path d="M145.725 29.9379L145.592 28.8169C146.416 28.5889 147.372 28.4749 148.461 28.4749C150.564 28.4749 151.615 29.5136 151.615 31.5909V36.9679C151.615 37.2719 151.666 37.4873 151.767 37.6139C151.881 37.7406 152.065 37.8039 152.318 37.8039C152.521 37.8039 152.793 37.7406 153.135 37.6139L153.249 38.6589C152.73 38.8236 152.312 38.9059 151.995 38.9059C151.552 38.9059 151.197 38.7919 150.931 38.5639C150.665 38.3233 150.513 38.0319 150.475 37.6899C149.563 38.5006 148.601 38.9059 147.587 38.9059C146.663 38.9059 145.96 38.6146 145.478 38.0319C144.997 37.4493 144.756 36.7083 144.756 35.8089C144.756 34.6309 145.092 33.7633 145.763 33.2059C146.447 32.6359 147.397 32.3509 148.613 32.3509C149.221 32.3509 149.804 32.4143 150.361 32.5409V31.8189C150.361 31.0336 150.19 30.4636 149.848 30.1089C149.506 29.7543 148.911 29.5769 148.062 29.5769C147.264 29.5769 146.485 29.6973 145.725 29.9379ZM150.361 36.6829L150.38 33.5289C149.823 33.3896 149.304 33.3199 148.822 33.3199C147.91 33.3199 147.226 33.5099 146.77 33.8899C146.327 34.2699 146.105 34.8969 146.105 35.7709C146.105 36.3536 146.251 36.8349 146.542 37.2149C146.846 37.5949 147.29 37.7849 147.872 37.7849C148.746 37.7849 149.576 37.4176 150.361 36.6829Z" fill="#BFD730"/>
<path d="M154.903 36.3219V25.0549H156.176V36.1319C156.176 36.7273 156.258 37.1579 156.423 37.4239C156.587 37.6773 156.885 37.8039 157.316 37.8039C157.759 37.8039 158.272 37.6709 158.855 37.4049L159.007 38.4689C158.449 38.7603 157.81 38.9059 157.088 38.9059C156.264 38.9059 155.694 38.6906 155.378 38.2599C155.061 37.8166 154.903 37.1706 154.903 36.3219Z" fill="#BFD730"/>
<path d="M172.26 25.0551L168.745 31.5151L172.545 38.7161H171.063L167.605 32.1991H165.192V38.7161H163.881V25.0361H165.192V31.0211H167.662L170.892 25.0551H172.26Z" fill="#BFD730"/>
<path d="M180.709 33.8331H174.914C174.914 36.4931 175.864 37.8231 177.764 37.8231C178.638 37.8231 179.531 37.5825 180.443 37.1011L180.557 38.2411C179.708 38.7098 178.726 38.9441 177.612 38.9441C174.939 38.9441 173.603 37.1645 173.603 33.6051C173.603 31.8445 173.938 30.5525 174.61 29.7291C175.281 28.8931 176.206 28.4751 177.384 28.4751C178.536 28.4751 179.379 28.8741 179.911 29.6721C180.443 30.4575 180.709 31.6228 180.709 33.1681V33.8331ZM179.398 32.8261C179.398 31.7621 179.214 30.9578 178.847 30.4131C178.492 29.8558 177.979 29.5771 177.308 29.5771C176.535 29.5771 175.946 29.9065 175.541 30.5651C175.135 31.2111 174.933 31.9648 174.933 32.8261H179.398Z" fill="#BFD730"/>
<path d="M186.912 28.4751C187.824 28.4751 188.464 28.9945 188.831 30.0331L187.786 30.6031C187.634 30.2738 187.476 30.0395 187.311 29.9001C187.147 29.7481 186.906 29.6721 186.589 29.6721C185.994 29.6721 185.316 30.1091 184.556 30.9831V38.7161H183.283V28.6841H184.48V29.8051C185.291 28.9185 186.102 28.4751 186.912 28.4751Z" fill="#BFD730"/>
<path d="M191.83 28.6841V40.1221C191.83 41.0341 191.64 41.7181 191.26 42.1741C190.892 42.6428 190.297 42.8771 189.474 42.8771C188.802 42.8771 188.207 42.7315 187.688 42.4401L187.916 41.2621C188.435 41.5915 188.973 41.7561 189.531 41.7561C189.911 41.7561 190.177 41.6231 190.329 41.3571C190.481 41.0911 190.557 40.6225 190.557 39.9511V28.6841H191.83ZM190.348 26.1001C190.348 25.8341 190.424 25.6315 190.576 25.4921C190.728 25.3401 190.924 25.2641 191.165 25.2641C191.722 25.2641 192.001 25.5491 192.001 26.1191C192.001 26.3978 191.925 26.6195 191.773 26.7841C191.621 26.9361 191.418 27.0121 191.165 27.0121C190.924 27.0121 190.728 26.9298 190.576 26.7651C190.424 26.6005 190.348 26.3788 190.348 26.1001Z" fill="#BFD730"/>
<path d="M195.274 29.9381L195.141 28.8171C195.965 28.5891 196.921 28.4751 198.01 28.4751C200.113 28.4751 201.164 29.5138 201.164 31.5911V36.9681C201.164 37.2721 201.215 37.4875 201.316 37.6141C201.43 37.7408 201.614 37.8041 201.867 37.8041C202.07 37.8041 202.342 37.7408 202.684 37.6141L202.798 38.6591C202.279 38.8238 201.861 38.9061 201.544 38.9061C201.101 38.9061 200.746 38.7921 200.48 38.5641C200.214 38.3235 200.062 38.0321 200.024 37.6901C199.112 38.5008 198.15 38.9061 197.136 38.9061C196.212 38.9061 195.509 38.6148 195.027 38.0321C194.546 37.4495 194.305 36.7085 194.305 35.8091C194.305 34.6311 194.641 33.7635 195.312 33.2061C195.996 32.6361 196.946 32.3511 198.162 32.3511C198.77 32.3511 199.353 32.4145 199.91 32.5411V31.8191C199.91 31.0338 199.739 30.4638 199.397 30.1091C199.055 29.7545 198.46 29.5771 197.611 29.5771C196.813 29.5771 196.034 29.6975 195.274 29.9381ZM199.91 36.6831L199.929 33.5291C199.372 33.3898 198.853 33.3201 198.371 33.3201C197.459 33.3201 196.775 33.5101 196.319 33.8901C195.876 34.2701 195.654 34.8971 195.654 35.7711C195.654 36.3538 195.8 36.8351 196.091 37.2151C196.395 37.5951 196.839 37.7851 197.421 37.7851C198.295 37.7851 199.125 37.4178 199.91 36.6831Z" fill="#BFD730"/>
</svg>
