<svg width="240" height="48" viewBox="0 0 240 48" fill="none" xmlns="http://www.w3.org/2000/svg">
<path d="M2.792 10.7189V14.4149H1V4.3489H4.528C5.592 4.3489 6.418 4.59623 7.006 5.0909C7.594 5.58557 7.888 6.30423 7.888 7.2469C7.888 8.30157 7.566 9.14623 6.922 9.7809C6.28733 10.4062 5.42867 10.7189 4.346 10.7189H2.792ZM2.792 9.3329H4.15C4.77533 9.3329 5.24667 9.16957 5.564 8.8429C5.89067 8.5069 6.054 8.02157 6.054 7.3869C6.054 6.27623 5.466 5.7209 4.29 5.7209H2.792V9.3329Z" fill="white"/>
<path d="M14.1077 10.9849H10.1177C10.1271 11.6849 10.2857 12.2216 10.5937 12.5949C10.9017 12.9589 11.3264 13.1409 11.8677 13.1409C12.5304 13.1409 13.1977 12.9542 13.8697 12.5809L13.9677 14.0509C13.3331 14.3962 12.5724 14.5689 11.6857 14.5689C9.45505 14.5689 8.33972 13.2482 8.33972 10.6069C8.33972 9.3189 8.61505 8.3669 9.16572 7.7509C9.72572 7.12557 10.4584 6.8129 11.3637 6.8129C13.1931 6.8129 14.1077 7.97957 14.1077 10.3129V10.9849ZM12.4557 9.8929C12.4557 8.69823 12.0824 8.1009 11.3357 8.1009C10.9344 8.1009 10.6311 8.2689 10.4257 8.6049C10.2297 8.9409 10.1317 9.37023 10.1317 9.8929H12.4557Z" fill="white"/>
<path d="M19.5713 7.4289L19.6413 6.9529H21.2093V14.3029C21.2093 16.4682 20.2107 17.5509 18.2133 17.5509C17.2147 17.5509 16.342 17.3689 15.5953 17.0049L15.8613 15.4789C16.1507 15.6562 16.5007 15.8009 16.9113 15.9129C17.3313 16.0342 17.7187 16.0949 18.0733 16.0949C19.0347 16.0949 19.5153 15.4696 19.5153 14.2189V13.7709C19.058 14.2656 18.47 14.5129 17.7513 14.5129C16.9393 14.5129 16.2907 14.2002 15.8053 13.5749C15.3293 12.9402 15.0913 11.9976 15.0913 10.7469C15.0913 10.0562 15.18 9.42623 15.3573 8.8569C15.544 8.28757 15.852 7.8069 16.2813 7.4149C16.72 7.01357 17.252 6.8129 17.8773 6.8129C18.5027 6.8129 19.0673 7.01823 19.5713 7.4289ZM19.4593 12.5529V8.6469C19.0207 8.32957 18.6287 8.1709 18.2833 8.1709C17.3687 8.1709 16.9113 9.0389 16.9113 10.7749C16.9113 12.3429 17.3547 13.1269 18.2413 13.1269C18.6707 13.1269 19.0767 12.9356 19.4593 12.5529Z" fill="white"/>
<path d="M23.3639 8.4509L23.1539 7.1489C23.8259 6.9249 24.5959 6.8129 25.4639 6.8129C26.4906 6.8129 27.2186 7.04623 27.6479 7.5129C28.0772 7.97023 28.2919 8.81023 28.2919 10.0329V12.6649C28.2919 13.0569 28.4319 13.2529 28.7119 13.2529C28.8426 13.2529 28.9919 13.2202 29.1599 13.1549L29.2859 14.3309C28.9312 14.4802 28.5346 14.5549 28.0959 14.5549C27.4239 14.5549 27.0132 14.2702 26.8639 13.7009C26.2572 14.2702 25.5526 14.5549 24.7499 14.5549C24.0312 14.5549 23.4806 14.3356 23.0979 13.8969C22.7246 13.4582 22.5379 12.8982 22.5379 12.2169C22.5379 10.4902 23.4992 9.6269 25.4219 9.6269C25.8046 9.6269 26.2012 9.67357 26.6119 9.7669V9.4449C26.6119 8.5769 26.1219 8.1429 25.1419 8.1429C24.6099 8.1429 24.0172 8.24557 23.3639 8.4509ZM26.6119 12.5949V10.8729C26.2946 10.7609 25.9959 10.7049 25.7159 10.7049C24.7546 10.7049 24.2739 11.1576 24.2739 12.0629C24.2739 12.4269 24.3579 12.7162 24.5259 12.9309C24.6939 13.1362 24.9412 13.2389 25.2679 13.2389C25.7719 13.2389 26.2199 13.0242 26.6119 12.5949Z" fill="white"/>
<path d="M34.1793 7.2889V4.3489H35.9293V14.4149H34.3613L34.3053 13.7569C33.792 14.2889 33.1807 14.5549 32.4713 14.5549C31.6593 14.5549 31.0107 14.2329 30.5253 13.5889C30.0493 12.9449 29.8113 11.9976 29.8113 10.7469C29.8113 10.0562 29.9047 9.42623 30.0913 8.8569C30.278 8.27823 30.5907 7.7929 31.0293 7.4009C31.468 7.0089 32.0093 6.8129 32.6533 6.8129C33.2133 6.8129 33.722 6.97157 34.1793 7.2889ZM34.1933 12.6089V8.6189C33.7547 8.30157 33.3673 8.1429 33.0313 8.1429C32.098 8.1429 31.6313 9.02024 31.6313 10.7749C31.6313 11.5589 31.748 12.1562 31.9813 12.5669C32.2147 12.9776 32.546 13.1829 32.9753 13.1829C33.4047 13.1829 33.8107 12.9916 34.1933 12.6089Z" fill="white"/>
<path d="M38.0839 8.4509L37.8739 7.1489C38.5459 6.9249 39.3159 6.8129 40.1839 6.8129C41.2106 6.8129 41.9386 7.04623 42.3679 7.5129C42.7973 7.97023 43.0119 8.81023 43.0119 10.0329V12.6649C43.0119 13.0569 43.1519 13.2529 43.4319 13.2529C43.5626 13.2529 43.7119 13.2202 43.8799 13.1549L44.0059 14.3309C43.6513 14.4802 43.2546 14.5549 42.8159 14.5549C42.1439 14.5549 41.7333 14.2702 41.5839 13.7009C40.9773 14.2702 40.2726 14.5549 39.4699 14.5549C38.7513 14.5549 38.2006 14.3356 37.8179 13.8969C37.4446 13.4582 37.2579 12.8982 37.2579 12.2169C37.2579 10.4902 38.2193 9.6269 40.1419 9.6269C40.5246 9.6269 40.9213 9.67357 41.3319 9.7669V9.4449C41.3319 8.5769 40.8419 8.1429 39.8619 8.1429C39.3299 8.1429 38.7373 8.24557 38.0839 8.4509ZM41.3319 12.5949V10.8729C41.0146 10.7609 40.7159 10.7049 40.4359 10.7049C39.4746 10.7049 38.9939 11.1576 38.9939 12.0629C38.9939 12.4269 39.0779 12.7162 39.2459 12.9309C39.4139 13.1362 39.6613 13.2389 39.9879 13.2389C40.4919 13.2389 40.9399 13.0242 41.3319 12.5949Z" fill="white"/>
<path d="M45.0461 6.9529H46.7961V14.4149H45.0461V6.9529ZM44.9061 5.0069C44.9061 4.68957 44.9994 4.44223 45.1861 4.2649C45.3727 4.08757 45.6154 3.9989 45.9141 3.9989C46.2407 3.9989 46.4927 4.08757 46.6701 4.2649C46.8474 4.4329 46.9361 4.68023 46.9361 5.0069C46.9361 5.33357 46.8381 5.58557 46.6421 5.7629C46.4554 5.9309 46.2127 6.0149 45.9141 6.0149C45.6061 6.0149 45.3587 5.92623 45.1721 5.7489C44.9947 5.56223 44.9061 5.3149 44.9061 5.0069Z" fill="white"/>
<path d="M48.9485 8.4509L48.7385 7.1489C49.4105 6.9249 50.1805 6.8129 51.0485 6.8129C52.0751 6.8129 52.8031 7.04623 53.2325 7.5129C53.6618 7.97023 53.8765 8.81023 53.8765 10.0329V12.6649C53.8765 13.0569 54.0165 13.2529 54.2965 13.2529C54.4271 13.2529 54.5765 13.2202 54.7445 13.1549L54.8705 14.3309C54.5158 14.4802 54.1191 14.5549 53.6805 14.5549C53.0085 14.5549 52.5978 14.2702 52.4485 13.7009C51.8418 14.2702 51.1371 14.5549 50.3345 14.5549C49.6158 14.5549 49.0651 14.3356 48.6825 13.8969C48.3091 13.4582 48.1225 12.8982 48.1225 12.2169C48.1225 10.4902 49.0838 9.6269 51.0065 9.6269C51.3891 9.6269 51.7858 9.67357 52.1965 9.7669V9.4449C52.1965 8.5769 51.7065 8.1429 50.7265 8.1429C50.1945 8.1429 49.6018 8.24557 48.9485 8.4509ZM52.1965 12.5949V10.8729C51.8791 10.7609 51.5805 10.7049 51.3005 10.7049C50.3391 10.7049 49.8585 11.1576 49.8585 12.0629C49.8585 12.4269 49.9425 12.7162 50.1105 12.9309C50.2785 13.1362 50.5258 13.2389 50.8525 13.2389C51.3565 13.2389 51.8045 13.0242 52.1965 12.5949Z" fill="white"/>
<path d="M57.5066 6.9529L57.5626 7.6949C58.2346 7.1069 58.972 6.8129 59.7746 6.8129C60.9786 6.8129 61.66 7.3309 61.8186 8.3669C61.856 8.60023 61.8746 8.9129 61.8746 9.3049V14.4149H60.1246V9.5289C60.1246 9.23957 60.12 9.04823 60.1106 8.9549C60.0546 8.49757 59.7466 8.2689 59.1866 8.2689C58.7013 8.2689 58.1973 8.50223 57.6746 8.9689V14.4149H55.9106V6.9529H57.5066Z" fill="white"/>
<path d="M66.2705 13.7149L66.8585 12.1469C67.7452 12.7629 68.5992 13.0709 69.4205 13.0709C69.8965 13.0709 70.2792 12.9636 70.5685 12.7489C70.8672 12.5249 71.0165 12.1796 71.0165 11.7129C71.0165 11.2089 70.8578 10.8356 70.5405 10.5929C70.2325 10.3502 69.7285 10.1309 69.0285 9.9349C68.7298 9.8509 68.4778 9.77623 68.2725 9.7109C68.0765 9.63623 67.8478 9.52424 67.5865 9.3749C67.3345 9.21624 67.1292 9.04357 66.9705 8.8569C66.8212 8.67023 66.6905 8.4229 66.5785 8.1149C66.4665 7.8069 66.4105 7.46157 66.4105 7.0789C66.4105 6.20157 66.7138 5.49223 67.3205 4.9509C67.9365 4.40957 68.7252 4.1389 69.6865 4.1389C70.6665 4.1389 71.4085 4.37223 71.9125 4.8389C72.4258 5.30557 72.7618 5.8749 72.9205 6.5469L71.2965 7.0229C71.0352 6.08957 70.4845 5.6229 69.6445 5.6229C69.2432 5.6229 68.9118 5.73023 68.6505 5.9449C68.3892 6.15957 68.2585 6.4769 68.2585 6.8969C68.2585 7.3449 68.4032 7.67157 68.6925 7.8769C68.9912 8.08223 69.4672 8.2829 70.1205 8.4789C70.9978 8.74023 71.6698 9.0949 72.1365 9.5429C72.6125 9.9909 72.8505 10.6396 72.8505 11.4889C72.8505 12.4596 72.5332 13.2249 71.8985 13.7849C71.2732 14.3356 70.4425 14.6109 69.4065 14.6109C68.1652 14.6109 67.1198 14.3122 66.2705 13.7149Z" fill="white"/>
<path d="M78.1916 6.9529L79.8996 7.1349C79.125 9.92557 78.3363 12.2589 77.5336 14.1349C77.291 14.7042 77.0763 15.1616 76.8896 15.5069C76.7123 15.8616 76.4883 16.2116 76.2176 16.5569C75.947 16.9022 75.639 17.1542 75.2936 17.3129C74.9576 17.4716 74.575 17.5509 74.1456 17.5509C73.3523 17.5509 72.6196 17.3736 71.9476 17.0189L72.3956 15.5769C73.0396 15.9129 73.5716 16.0809 73.9916 16.0809C74.393 16.0809 74.7056 15.9362 74.9296 15.6469C75.1629 15.3669 75.415 14.8722 75.6856 14.1629L73.0956 7.1209L74.9576 6.9529L76.0076 10.2709C76.297 11.2136 76.5116 11.9182 76.6516 12.3849C77.0343 11.2742 77.5476 9.46357 78.1916 6.9529Z" fill="white"/>
<path d="M81.1069 8.4509L80.8969 7.1489C81.5689 6.9249 82.3389 6.8129 83.2069 6.8129C84.2336 6.8129 84.9616 7.04623 85.3909 7.5129C85.8202 7.97023 86.0349 8.81023 86.0349 10.0329V12.6649C86.0349 13.0569 86.1749 13.2529 86.4549 13.2529C86.5856 13.2529 86.7349 13.2202 86.9029 13.1549L87.0289 14.3309C86.6742 14.4802 86.2776 14.5549 85.8389 14.5549C85.1669 14.5549 84.7562 14.2702 84.6069 13.7009C84.0002 14.2702 83.2956 14.5549 82.4929 14.5549C81.7742 14.5549 81.2236 14.3356 80.8409 13.8969C80.4676 13.4582 80.2809 12.8982 80.2809 12.2169C80.2809 10.4902 81.2422 9.6269 83.1649 9.6269C83.5476 9.6269 83.9442 9.67357 84.3549 9.7669V9.4449C84.3549 8.5769 83.8649 8.1429 82.8849 8.1429C82.3529 8.1429 81.7602 8.24557 81.1069 8.4509ZM84.3549 12.5949V10.8729C84.0376 10.7609 83.7389 10.7049 83.4589 10.7049C82.4976 10.7049 82.0169 11.1576 82.0169 12.0629C82.0169 12.4269 82.1009 12.7162 82.2689 12.9309C82.4369 13.1362 82.6842 13.2389 83.0109 13.2389C83.5149 13.2389 83.9629 13.0242 84.3549 12.5949Z" fill="white"/>
<path d="M91.4291 6.8129C91.9424 6.8129 92.3764 7.06957 92.7311 7.5829L91.9471 8.8429C91.7231 8.5629 91.4571 8.4229 91.1491 8.4229C90.6824 8.4229 90.2437 8.63757 89.8331 9.0669V14.4149H88.0691V6.9529H89.6371L89.7071 7.7369C90.2297 7.1209 90.8037 6.8129 91.4291 6.8129Z" fill="white"/>
<path d="M93.5902 6.9529H95.3402V14.4149H93.5902V6.9529ZM93.4502 5.0069C93.4502 4.68957 93.5435 4.44223 93.7302 4.2649C93.9169 4.08757 94.1595 3.9989 94.4582 3.9989C94.7849 3.9989 95.0369 4.08757 95.2142 4.2649C95.3915 4.4329 95.4802 4.68023 95.4802 5.0069C95.4802 5.33357 95.3822 5.58557 95.1862 5.7629C94.9995 5.9309 94.7569 6.0149 94.4582 6.0149C94.1502 6.0149 93.9029 5.92623 93.7162 5.7489C93.5389 5.56223 93.4502 5.3149 93.4502 5.0069Z" fill="white"/>
<path d="M97.4926 8.4509L97.2826 7.1489C97.9546 6.9249 98.7246 6.8129 99.5926 6.8129C100.619 6.8129 101.347 7.04623 101.777 7.5129C102.206 7.97023 102.421 8.81023 102.421 10.0329V12.6649C102.421 13.0569 102.561 13.2529 102.841 13.2529C102.971 13.2529 103.121 13.2202 103.289 13.1549L103.415 14.3309C103.06 14.4802 102.663 14.5549 102.225 14.5549C101.553 14.5549 101.142 14.2702 100.993 13.7009C100.386 14.2702 99.6813 14.5549 98.8786 14.5549C98.1599 14.5549 97.6093 14.3356 97.2266 13.8969C96.8533 13.4582 96.6666 12.8982 96.6666 12.2169C96.6666 10.4902 97.6279 9.6269 99.5506 9.6269C99.9333 9.6269 100.33 9.67357 100.741 9.7669V9.4449C100.741 8.5769 100.251 8.1429 99.2706 8.1429C98.7386 8.1429 98.1459 8.24557 97.4926 8.4509ZM100.741 12.5949V10.8729C100.423 10.7609 100.125 10.7049 99.8446 10.7049C98.8833 10.7049 98.4026 11.1576 98.4026 12.0629C98.4026 12.4269 98.4866 12.7162 98.6546 12.9309C98.8226 13.1362 99.0699 13.2389 99.3966 13.2389C99.9006 13.2389 100.349 13.0242 100.741 12.5949Z" fill="white"/>
<path d="M108.347 6.8129C109.131 6.8129 109.672 7.0229 109.971 7.4429C110.269 7.85357 110.419 8.47423 110.419 9.3049V14.4149H108.669V9.5289C108.669 9.0529 108.603 8.72623 108.473 8.5489C108.351 8.36224 108.104 8.2689 107.731 8.2689C107.245 8.2689 106.741 8.50223 106.219 8.9689V14.4149H104.455V4.3489H106.219V7.6109C106.872 7.0789 107.581 6.8129 108.347 6.8129Z" fill="white"/>
<path d="M9.21198 36.2449C10.6506 36.2449 12.1326 35.8029 13.658 34.9188L14.282 37.7008C12.67 38.6195 10.8153 39.0788 8.71798 39.0788C7.55664 39.0788 6.51664 38.8969 5.59798 38.5329C4.69664 38.1515 3.96864 37.6662 3.41398 37.0768C2.85931 36.4702 2.40864 35.7422 2.06198 34.8928C1.71531 34.0262 1.47264 33.1595 1.33398 32.2928C1.19531 31.4262 1.12598 30.4988 1.12598 29.5108C1.12598 28.1588 1.23864 26.9368 1.46398 25.8448C1.68931 24.7355 2.05331 23.6955 2.55598 22.7248C3.07598 21.7542 3.82131 21.0002 4.79198 20.4628C5.77998 19.9082 6.95864 19.6308 8.32798 19.6308C11.8293 19.6308 13.9093 21.2862 14.568 24.5968L11.396 25.3768C11.1706 24.3888 10.824 23.6262 10.356 23.0888C9.88798 22.5515 9.21198 22.2828 8.32798 22.2828C5.86664 22.2828 4.63598 24.6315 4.63598 29.3288C4.63598 31.6168 4.99131 33.3415 5.70198 34.5028C6.42998 35.6642 7.59998 36.2449 9.21198 36.2449Z" fill="#72BF44"/>
<path d="M16.7225 24.8568H19.9725V38.7148H16.7225V24.8568ZM16.4625 21.2428C16.4625 20.6535 16.6359 20.1942 16.9825 19.8648C17.3292 19.5355 17.7799 19.3708 18.3345 19.3708C18.9412 19.3708 19.4092 19.5355 19.7385 19.8648C20.0679 20.1768 20.2325 20.6362 20.2325 21.2428C20.2325 21.8495 20.0505 22.3175 19.6865 22.6468C19.3399 22.9588 18.8892 23.1148 18.3345 23.1148C17.7625 23.1148 17.3032 22.9502 16.9565 22.6208C16.6272 22.2742 16.4625 21.8148 16.4625 21.2428Z" fill="#72BF44"/>
<path d="M29.1178 36.3228C30.2272 36.3228 31.3712 36.0195 32.5498 35.4128L32.8098 38.0908C31.5272 38.7148 30.1578 39.0268 28.7018 39.0268C27.5405 39.0268 26.5352 38.8188 25.6858 38.4028C24.8538 37.9695 24.2212 37.3975 23.7878 36.6868C23.3718 35.9588 23.0685 35.1962 22.8778 34.3988C22.6872 33.6015 22.5918 32.7435 22.5918 31.8248C22.5918 30.8542 22.6872 29.9615 22.8778 29.1468C23.0685 28.3148 23.3718 27.5522 23.7878 26.8588C24.2212 26.1482 24.8278 25.5935 25.6078 25.1948C26.4052 24.7962 27.3412 24.5968 28.4158 24.5968C29.8198 24.5968 30.9032 24.9608 31.6658 25.6888C32.4458 26.3995 32.9485 27.3355 33.1738 28.4968L30.4698 29.3808C30.2965 28.7049 30.0452 28.1762 29.7158 27.7948C29.4038 27.3962 28.9358 27.1968 28.3118 27.1968C26.7345 27.1968 25.9458 28.6875 25.9458 31.6688C25.9458 34.7715 27.0032 36.3228 29.1178 36.3228Z" fill="#72BF44"/>
<path d="M35.121 24.8568H38.371V38.7148H35.121V24.8568ZM34.861 21.2428C34.861 20.6535 35.0343 20.1942 35.381 19.8648C35.7276 19.5355 36.1783 19.3708 36.733 19.3708C37.3396 19.3708 37.8076 19.5355 38.137 19.8648C38.4663 20.1768 38.631 20.6362 38.631 21.2428C38.631 21.8495 38.449 22.3175 38.085 22.6468C37.7383 22.9588 37.2876 23.1148 36.733 23.1148C36.161 23.1148 35.7016 22.9502 35.355 22.6208C35.0256 22.2742 34.861 21.8148 34.861 21.2428Z" fill="#72BF44"/>
<path d="M41.5623 34.9968V20.0208H44.8123V34.5288C44.8123 35.1528 44.9076 35.6035 45.0983 35.8808C45.3063 36.1582 45.6443 36.2969 46.1123 36.2969C46.6496 36.2969 47.2389 36.1409 47.8803 35.8288L48.2703 38.3249C47.3343 38.7755 46.3116 39.0008 45.2023 39.0008C43.8503 39.0008 42.9056 38.6628 42.3683 37.9868C41.8309 37.2935 41.5623 36.2968 41.5623 34.9968Z" fill="#72BF44"/>
<path d="M52.733 38.7148V25.0538H60.067V26.2318H54.044V31.0198H59.288V32.1978H54.044V37.5178H60.314V38.7148H52.733Z" fill="#72BF44"/>
<path d="M67.1769 28.4738C68.3549 28.4738 69.1276 28.9172 69.4949 29.8038C70.5209 28.9172 71.5659 28.4738 72.6299 28.4738C74.1499 28.4738 75.0239 29.1325 75.2519 30.4498C75.3026 30.7412 75.3279 31.1528 75.3279 31.6848V38.7148H74.0739V31.8558C74.0739 31.3872 74.0486 31.0452 73.9979 30.8298C73.8459 30.0318 73.2949 29.6328 72.3449 29.6328C71.4709 29.6328 70.5906 30.0508 69.7039 30.8868C69.7292 31.0895 69.7419 31.4252 69.7419 31.8938V38.7148H68.4879V31.8558C68.4879 31.3872 68.4626 31.0452 68.4119 30.8298C68.2852 30.0318 67.7849 29.6328 66.9109 29.6328C65.8596 29.6328 64.8526 30.1268 63.8899 31.1148V38.7148H62.6169V28.6828H63.8899V29.9178C64.9919 28.9552 66.0876 28.4738 67.1769 28.4738Z" fill="#72BF44"/>
<path d="M78.7825 29.9368L78.6495 28.8158C79.4728 28.5878 80.4291 28.4738 81.5185 28.4738C83.6211 28.4738 84.6725 29.5125 84.6725 31.5898V36.9668C84.6725 37.2708 84.7231 37.4862 84.8245 37.6128C84.9385 37.7395 85.1221 37.8028 85.3755 37.8028C85.5781 37.8028 85.8505 37.7395 86.1925 37.6128L86.3065 38.6578C85.7871 38.8225 85.3691 38.9048 85.0525 38.9048C84.6091 38.9048 84.2545 38.7908 83.9885 38.5628C83.7225 38.3222 83.5705 38.0308 83.5325 37.6888C82.6205 38.4995 81.6578 38.9048 80.6445 38.9048C79.7198 38.9048 79.0168 38.6135 78.5355 38.0308C78.0541 37.4482 77.8135 36.7072 77.8135 35.8078C77.8135 34.6298 78.1491 33.7622 78.8205 33.2048C79.5045 32.6348 80.4545 32.3498 81.6705 32.3498C82.2785 32.3498 82.8611 32.4132 83.4185 32.5398V31.8178C83.4185 31.0325 83.2475 30.4625 82.9055 30.1078C82.5635 29.7532 81.9681 29.5758 81.1195 29.5758C80.3215 29.5758 79.5425 29.6962 78.7825 29.9368ZM83.4185 36.6818L83.4375 33.5278C82.8801 33.3885 82.3608 33.3188 81.8795 33.3188C80.9675 33.3188 80.2835 33.5088 79.8275 33.8888C79.3841 34.2688 79.1625 34.8958 79.1625 35.7698C79.1625 36.3525 79.3081 36.8338 79.5995 37.2138C79.9035 37.5938 80.3468 37.7838 80.9295 37.7838C81.8035 37.7838 82.6331 37.4165 83.4185 36.6818Z" fill="#72BF44"/>
<path d="M87.3855 37.8788L87.7275 36.7008C88.0061 36.9542 88.4115 37.2075 88.9435 37.4608C89.4755 37.7142 89.9821 37.8408 90.4635 37.8408C91.0841 37.8408 91.5845 37.7015 91.9645 37.4228C92.3445 37.1442 92.5345 36.7388 92.5345 36.2068C92.5345 35.7128 92.3635 35.3202 92.0215 35.0288C91.6795 34.7375 91.2615 34.5158 90.7675 34.3638C90.2735 34.2118 89.7795 34.0472 89.2855 33.8698C88.8041 33.6925 88.3925 33.3885 88.0505 32.9578C87.7085 32.5272 87.5375 31.9635 87.5375 31.2668C87.5375 30.4055 87.8478 29.7278 88.4685 29.2338C89.0891 28.7272 89.8491 28.4738 90.7485 28.4738C91.6731 28.4738 92.3951 28.7082 92.9145 29.1768C93.4465 29.6328 93.7695 30.1712 93.8835 30.7918L92.8575 31.2098C92.7055 30.6778 92.4395 30.2788 92.0595 30.0128C91.6795 29.7342 91.2361 29.5948 90.7295 29.5948C90.1975 29.5948 89.7478 29.7278 89.3805 29.9938C89.0131 30.2598 88.8295 30.6652 88.8295 31.2098C88.8295 31.7038 89.0005 32.1028 89.3425 32.4068C89.6845 32.6982 90.0961 32.9198 90.5775 33.0718C91.0715 33.2238 91.5655 33.3885 92.0595 33.5658C92.5535 33.7305 92.9715 34.0155 93.3135 34.4208C93.6555 34.8262 93.8265 35.3518 93.8265 35.9978C93.8265 36.8592 93.5288 37.5685 92.9335 38.1258C92.3508 38.6705 91.5211 38.9428 90.4445 38.9428C89.8365 38.9428 89.2348 38.8288 88.6395 38.6008C88.0568 38.3602 87.6388 38.1195 87.3855 37.8788Z" fill="#72BF44"/>
</svg>
