<svg width="240" height="48" viewBox="0 0 240 48" fill="none" xmlns="http://www.w3.org/2000/svg">
<path d="M3.60206 10.7212V14.4172H1.81006V4.35116H5.33806C6.40206 4.35116 7.22806 4.59849 7.81606 5.09316C8.40406 5.58783 8.69806 6.30649 8.69806 7.24916C8.69806 8.30383 8.37606 9.14849 7.73206 9.78316C7.09739 10.4085 6.23873 10.7212 5.15606 10.7212H3.60206ZM3.60206 9.33516H4.96006C5.58539 9.33516 6.05673 9.17183 6.37406 8.84516C6.70073 8.50916 6.86406 8.02383 6.86406 7.38916C6.86406 6.27849 6.27606 5.72316 5.10006 5.72316H3.60206V9.33516Z" fill="white"/>
<path d="M14.9178 10.9872H10.9278C10.9371 11.6872 11.0958 12.2238 11.4038 12.5972C11.7118 12.9612 12.1364 13.1432 12.6778 13.1432C13.3404 13.1432 14.0078 12.9565 14.6798 12.5832L14.7778 14.0532C14.1431 14.3985 13.3824 14.5712 12.4958 14.5712C10.2651 14.5712 9.14978 13.2505 9.14978 10.6092C9.14978 9.32116 9.42511 8.36916 9.97578 7.75316C10.5358 7.12783 11.2684 6.81516 12.1738 6.81516C14.0031 6.81516 14.9178 7.98183 14.9178 10.3152V10.9872ZM13.2658 9.89516C13.2658 8.70049 12.8924 8.10316 12.1458 8.10316C11.7444 8.10316 11.4411 8.27116 11.2358 8.60716C11.0398 8.94316 10.9418 9.37249 10.9418 9.89516H13.2658Z" fill="white"/>
<path d="M20.3814 7.43116L20.4514 6.95516H22.0194V14.3052C22.0194 16.4705 21.0207 17.5532 19.0234 17.5532C18.0247 17.5532 17.1521 17.3712 16.4054 17.0072L16.6714 15.4812C16.9607 15.6585 17.3107 15.8032 17.7214 15.9152C18.1414 16.0365 18.5287 16.0972 18.8834 16.0972C19.8447 16.0972 20.3254 15.4718 20.3254 14.2212V13.7732C19.8681 14.2678 19.2801 14.5152 18.5614 14.5152C17.7494 14.5152 17.1007 14.2025 16.6154 13.5772C16.1394 12.9425 15.9014 11.9998 15.9014 10.7492C15.9014 10.0585 15.9901 9.42849 16.1674 8.85916C16.3541 8.28983 16.6621 7.80916 17.0914 7.41716C17.5301 7.01583 18.0621 6.81516 18.6874 6.81516C19.3127 6.81516 19.8774 7.02049 20.3814 7.43116ZM20.2694 12.5552V8.64916C19.8307 8.33183 19.4387 8.17316 19.0934 8.17316C18.1787 8.17316 17.7214 9.04116 17.7214 10.7772C17.7214 12.3452 18.1647 13.1292 19.0514 13.1292C19.4807 13.1292 19.8867 12.9378 20.2694 12.5552Z" fill="white"/>
<path d="M24.174 8.45316L23.964 7.15116C24.636 6.92716 25.406 6.81516 26.274 6.81516C27.3006 6.81516 28.0286 7.04849 28.458 7.51516C28.8873 7.97249 29.102 8.81249 29.102 10.0352V12.6672C29.102 13.0592 29.242 13.2552 29.522 13.2552C29.6526 13.2552 29.802 13.2225 29.97 13.1572L30.096 14.3332C29.7413 14.4825 29.3446 14.5572 28.906 14.5572C28.234 14.5572 27.8233 14.2725 27.674 13.7032C27.0673 14.2725 26.3626 14.5572 25.56 14.5572C24.8413 14.5572 24.2906 14.3378 23.908 13.8992C23.5346 13.4605 23.348 12.9005 23.348 12.2192C23.348 10.4925 24.3093 9.62916 26.232 9.62916C26.6146 9.62916 27.0113 9.67583 27.422 9.76916V9.44716C27.422 8.57916 26.932 8.14516 25.952 8.14516C25.42 8.14516 24.8273 8.24783 24.174 8.45316ZM27.422 12.5972V10.8752C27.1046 10.7632 26.806 10.7072 26.526 10.7072C25.5646 10.7072 25.084 11.1598 25.084 12.0652C25.084 12.4292 25.168 12.7185 25.336 12.9332C25.504 13.1385 25.7513 13.2412 26.078 13.2412C26.582 13.2412 27.03 13.0265 27.422 12.5972Z" fill="white"/>
<path d="M34.9894 7.29116V4.35116H36.7394V14.4172H35.1714L35.1154 13.7592C34.6021 14.2912 33.9907 14.5572 33.2814 14.5572C32.4694 14.5572 31.8207 14.2352 31.3354 13.5912C30.8594 12.9472 30.6214 11.9998 30.6214 10.7492C30.6214 10.0585 30.7147 9.42849 30.9014 8.85916C31.0881 8.28049 31.4007 7.79516 31.8394 7.40316C32.2781 7.01116 32.8194 6.81516 33.4634 6.81516C34.0234 6.81516 34.5321 6.97383 34.9894 7.29116ZM35.0034 12.6112V8.62116C34.5647 8.30383 34.1774 8.14516 33.8414 8.14516C32.9081 8.14516 32.4414 9.02249 32.4414 10.7772C32.4414 11.5612 32.5581 12.1585 32.7914 12.5692C33.0247 12.9798 33.3561 13.1852 33.7854 13.1852C34.2147 13.1852 34.6207 12.9938 35.0034 12.6112Z" fill="white"/>
<path d="M38.894 8.45316L38.684 7.15116C39.356 6.92716 40.126 6.81516 40.994 6.81516C42.0206 6.81516 42.7486 7.04849 43.178 7.51516C43.6073 7.97249 43.822 8.81249 43.822 10.0352V12.6672C43.822 13.0592 43.962 13.2552 44.242 13.2552C44.3726 13.2552 44.522 13.2225 44.69 13.1572L44.816 14.3332C44.4613 14.4825 44.0646 14.5572 43.626 14.5572C42.954 14.5572 42.5433 14.2725 42.394 13.7032C41.7873 14.2725 41.0826 14.5572 40.28 14.5572C39.5613 14.5572 39.0106 14.3378 38.628 13.8992C38.2546 13.4605 38.068 12.9005 38.068 12.2192C38.068 10.4925 39.0293 9.62916 40.952 9.62916C41.3346 9.62916 41.7313 9.67583 42.142 9.76916V9.44716C42.142 8.57916 41.652 8.14516 40.672 8.14516C40.14 8.14516 39.5473 8.24783 38.894 8.45316ZM42.142 12.5972V10.8752C41.8246 10.7632 41.526 10.7072 41.246 10.7072C40.2846 10.7072 39.804 11.1598 39.804 12.0652C39.804 12.4292 39.888 12.7185 40.056 12.9332C40.224 13.1385 40.4713 13.2412 40.798 13.2412C41.302 13.2412 41.75 13.0265 42.142 12.5972Z" fill="white"/>
<path d="M45.8561 6.95516H47.6061V14.4172H45.8561V6.95516ZM45.7161 5.00916C45.7161 4.69183 45.8095 4.44449 45.9961 4.26716C46.1828 4.08983 46.4255 4.00116 46.7241 4.00116C47.0508 4.00116 47.3028 4.08983 47.4801 4.26716C47.6575 4.43516 47.7461 4.68249 47.7461 5.00916C47.7461 5.33583 47.6481 5.58783 47.4521 5.76516C47.2655 5.93316 47.0228 6.01716 46.7241 6.01716C46.4161 6.01716 46.1688 5.92849 45.9821 5.75116C45.8048 5.56449 45.7161 5.31716 45.7161 5.00916Z" fill="white"/>
<path d="M49.7585 8.45316L49.5485 7.15116C50.2205 6.92716 50.9905 6.81516 51.8585 6.81516C52.8852 6.81516 53.6132 7.04849 54.0425 7.51516C54.4719 7.97249 54.6865 8.81249 54.6865 10.0352V12.6672C54.6865 13.0592 54.8265 13.2552 55.1065 13.2552C55.2372 13.2552 55.3865 13.2225 55.5545 13.1572L55.6805 14.3332C55.3259 14.4825 54.9292 14.5572 54.4905 14.5572C53.8185 14.5572 53.4079 14.2725 53.2585 13.7032C52.6519 14.2725 51.9472 14.5572 51.1445 14.5572C50.4259 14.5572 49.8752 14.3378 49.4925 13.8992C49.1192 13.4605 48.9325 12.9005 48.9325 12.2192C48.9325 10.4925 49.8939 9.62916 51.8165 9.62916C52.1992 9.62916 52.5959 9.67583 53.0065 9.76916V9.44716C53.0065 8.57916 52.5165 8.14516 51.5365 8.14516C51.0045 8.14516 50.4119 8.24783 49.7585 8.45316ZM53.0065 12.5972V10.8752C52.6892 10.7632 52.3905 10.7072 52.1105 10.7072C51.1492 10.7072 50.6685 11.1598 50.6685 12.0652C50.6685 12.4292 50.7525 12.7185 50.9205 12.9332C51.0885 13.1385 51.3359 13.2412 51.6625 13.2412C52.1665 13.2412 52.6145 13.0265 53.0065 12.5972Z" fill="white"/>
<path d="M58.3167 6.95516L58.3727 7.69716C59.0447 7.10916 59.782 6.81516 60.5847 6.81516C61.7887 6.81516 62.47 7.33316 62.6287 8.36916C62.666 8.60249 62.6847 8.91516 62.6847 9.30716V14.4172H60.9347V9.53116C60.9347 9.24183 60.93 9.05049 60.9207 8.95716C60.8647 8.49983 60.5567 8.27116 59.9967 8.27116C59.5114 8.27116 59.0074 8.50449 58.4847 8.97116V14.4172H56.7207V6.95516H58.3167Z" fill="white"/>
<path d="M1 38.1451L1.858 35.4411C2.82867 35.9091 3.756 36.1431 4.64 36.1431C5.42 36.1431 5.93133 35.9091 6.174 35.4411C6.434 34.9731 6.564 34.2191 6.564 33.1791V20.0231H9.892V33.2571C9.892 35.2678 9.49333 36.7411 8.696 37.6771C7.916 38.5958 6.70267 39.0551 5.056 39.0551C3.46133 39.0551 2.10933 38.7518 1 38.1451Z" fill="#00AB4E"/>
<path d="M13.5361 27.6411L13.1461 25.2231C14.3941 24.8071 15.8241 24.5991 17.4361 24.5991C19.3427 24.5991 20.6947 25.0325 21.4921 25.8991C22.2894 26.7485 22.6881 28.3085 22.6881 30.5791V35.4671C22.6881 36.1951 22.9481 36.5591 23.4681 36.5591C23.7107 36.5591 23.9881 36.4985 24.3001 36.3771L24.5341 38.5611C23.8754 38.8385 23.1387 38.9771 22.3241 38.9771C21.0761 38.9771 20.3134 38.4485 20.0361 37.3911C18.9094 38.4485 17.6007 38.9771 16.1101 38.9771C14.7754 38.9771 13.7527 38.5698 13.0421 37.7551C12.3487 36.9405 12.0021 35.9005 12.0021 34.6351C12.0021 31.4285 13.7874 29.8251 17.3581 29.8251C18.0687 29.8251 18.8054 29.9118 19.5681 30.0851V29.4871C19.5681 27.8751 18.6581 27.0691 16.8381 27.0691C15.8501 27.0691 14.7494 27.2598 13.5361 27.6411ZM19.5681 35.3371V32.1391C18.9787 31.9311 18.4241 31.8271 17.9041 31.8271C16.1187 31.8271 15.2261 32.6678 15.2261 34.3491C15.2261 35.0251 15.3821 35.5625 15.6941 35.9611C16.0061 36.3425 16.4654 36.5331 17.0721 36.5331C18.0081 36.5331 18.8401 36.1345 19.5681 35.3371Z" fill="#00AB4E"/>
<path d="M25.4518 37.6511L26.3358 35.0771C27.6358 36.0305 28.9444 36.5071 30.2618 36.5071C31.4751 36.5071 32.0818 35.9871 32.0818 34.9471C32.0818 34.4618 31.8911 34.0978 31.5098 33.8551C31.1458 33.5951 30.5824 33.3438 29.8198 33.1011C29.3518 32.9451 29.0311 32.8411 28.8578 32.7891C28.7018 32.7371 28.4158 32.6245 27.9998 32.4511C27.6011 32.2778 27.3064 32.1045 27.1158 31.9311C26.9424 31.7578 26.7344 31.5325 26.4918 31.2551C26.2491 30.9778 26.0758 30.6485 25.9718 30.2671C25.8851 29.8858 25.8418 29.4611 25.8418 28.9931C25.8418 27.6411 26.2924 26.5751 27.1938 25.7951C28.1124 24.9978 29.3171 24.5991 30.8078 24.5991C33.3904 24.5991 34.9678 25.6651 35.5398 27.7971L33.0698 28.7591C32.6364 27.5978 31.8738 27.0171 30.7818 27.0171C30.2791 27.0171 29.8458 27.1471 29.4818 27.4071C29.1351 27.6498 28.9618 28.0225 28.9618 28.5251C28.9618 28.8371 29.0224 29.1058 29.1438 29.3311C29.2824 29.5391 29.4991 29.7298 29.7938 29.9031C30.0884 30.0765 30.3484 30.2065 30.5738 30.2931C30.8164 30.3798 31.1718 30.4925 31.6398 30.6311C32.1771 30.8045 32.6278 30.9691 32.9918 31.1251C33.3558 31.2811 33.7371 31.5151 34.1358 31.8271C34.5344 32.1218 34.8378 32.5118 35.0458 32.9971C35.2538 33.4651 35.3578 34.0198 35.3578 34.6611C35.3578 36.0131 34.8984 37.0791 33.9798 37.8591C33.0611 38.6391 31.8218 39.0291 30.2618 39.0291C29.3258 39.0291 28.3984 38.8818 27.4798 38.5871C26.5784 38.2925 25.9024 37.9805 25.4518 37.6511Z" fill="#00AB4E"/>
<path d="M38.5869 27.6411L38.1969 25.2231C39.4449 24.8071 40.8749 24.5991 42.4869 24.5991C44.3935 24.5991 45.7455 25.0325 46.5429 25.8991C47.3402 26.7485 47.7389 28.3085 47.7389 30.5791V35.4671C47.7389 36.1951 47.9989 36.5591 48.5189 36.5591C48.7615 36.5591 49.0389 36.4985 49.3509 36.3771L49.5849 38.5611C48.9262 38.8385 48.1895 38.9771 47.3749 38.9771C46.1269 38.9771 45.3642 38.4485 45.0869 37.3911C43.9602 38.4485 42.6515 38.9771 41.1609 38.9771C39.8262 38.9771 38.8035 38.5698 38.0929 37.7551C37.3995 36.9405 37.0529 35.9005 37.0529 34.6351C37.0529 31.4285 38.8382 29.8251 42.4089 29.8251C43.1195 29.8251 43.8562 29.9118 44.6189 30.0851V29.4871C44.6189 27.8751 43.7089 27.0691 41.8889 27.0691C40.9009 27.0691 39.8002 27.2598 38.5869 27.6411ZM44.6189 35.3371V32.1391C44.0295 31.9311 43.4749 31.8271 42.9549 31.8271C41.1695 31.8271 40.2769 32.6678 40.2769 34.3491C40.2769 35.0251 40.4329 35.5625 40.7449 35.9611C41.0569 36.3425 41.5162 36.5331 42.1229 36.5331C43.0589 36.5331 43.8909 36.1345 44.6189 35.3371Z" fill="#00AB4E"/>
<path d="M52.947 26.2342V25.0562H62.751V26.2342H58.495V38.7172H57.184V26.2342H52.947Z" fill="#00AB4E"/>
<path d="M62.6872 29.9392L62.5542 28.8182C63.3775 28.5902 64.3339 28.4762 65.4232 28.4762C67.5259 28.4762 68.5772 29.5148 68.5772 31.5922V36.9692C68.5772 37.2732 68.6279 37.4885 68.7292 37.6152C68.8432 37.7418 69.0269 37.8052 69.2802 37.8052C69.4829 37.8052 69.7552 37.7418 70.0972 37.6152L70.2112 38.6602C69.6919 38.8248 69.2739 38.9072 68.9572 38.9072C68.5139 38.9072 68.1592 38.7932 67.8932 38.5652C67.6272 38.3245 67.4752 38.0332 67.4372 37.6912C66.5252 38.5018 65.5625 38.9072 64.5492 38.9072C63.6245 38.9072 62.9215 38.6158 62.4402 38.0332C61.9589 37.4505 61.7182 36.7095 61.7182 35.8102C61.7182 34.6322 62.0539 33.7645 62.7252 33.2072C63.4092 32.6372 64.3592 32.3522 65.5752 32.3522C66.1832 32.3522 66.7659 32.4155 67.3232 32.5422V31.8202C67.3232 31.0348 67.1522 30.4648 66.8102 30.1102C66.4682 29.7555 65.8729 29.5782 65.0242 29.5782C64.2262 29.5782 63.4472 29.6985 62.6872 29.9392ZM67.3232 36.6842L67.3422 33.5302C66.7849 33.3908 66.2655 33.3212 65.7842 33.3212C64.8722 33.3212 64.1882 33.5112 63.7322 33.8912C63.2889 34.2712 63.0672 34.8982 63.0672 35.7722C63.0672 36.3548 63.2129 36.8362 63.5042 37.2162C63.8082 37.5962 64.2515 37.7862 64.8342 37.7862C65.7082 37.7862 66.5379 37.4188 67.3232 36.6842Z" fill="#00AB4E"/>
<path d="M78.9662 28.8182L76.2112 32.9602L79.4412 38.7172H77.9972L75.1662 33.7202H73.4372V38.7172H72.1642V25.0562H73.4372V32.5612H75.1662L77.7122 28.6852L78.9662 28.8182Z" fill="#00AB4E"/>
<path d="M80.4933 37.8812L80.8353 36.7032C81.114 36.9565 81.5193 37.2098 82.0513 37.4632C82.5833 37.7165 83.09 37.8432 83.5713 37.8432C84.192 37.8432 84.6923 37.7038 85.0723 37.4252C85.4523 37.1465 85.6423 36.7412 85.6423 36.2092C85.6423 35.7152 85.4713 35.3225 85.1293 35.0312C84.7873 34.7398 84.3693 34.5182 83.8753 34.3662C83.3813 34.2142 82.8873 34.0495 82.3933 33.8722C81.912 33.6948 81.5003 33.3908 81.1583 32.9602C80.8163 32.5295 80.6453 31.9658 80.6453 31.2692C80.6453 30.4078 80.9556 29.7302 81.5763 29.2362C82.197 28.7295 82.957 28.4762 83.8563 28.4762C84.781 28.4762 85.503 28.7105 86.0223 29.1792C86.5543 29.6352 86.8773 30.1735 86.9913 30.7942L85.9653 31.2122C85.8133 30.6802 85.5473 30.2812 85.1673 30.0152C84.7873 29.7365 84.344 29.5972 83.8373 29.5972C83.3053 29.5972 82.8556 29.7302 82.4883 29.9962C82.121 30.2622 81.9373 30.6675 81.9373 31.2122C81.9373 31.7062 82.1083 32.1052 82.4503 32.4092C82.7923 32.7005 83.204 32.9222 83.6853 33.0742C84.1793 33.2262 84.6733 33.3908 85.1673 33.5682C85.6613 33.7328 86.0793 34.0178 86.4213 34.4232C86.7633 34.8285 86.9343 35.3542 86.9343 36.0002C86.9343 36.8615 86.6366 37.5708 86.0413 38.1282C85.4586 38.6728 84.629 38.9452 83.5523 38.9452C82.9443 38.9452 82.3426 38.8312 81.7473 38.6032C81.1646 38.3625 80.7466 38.1218 80.4933 37.8812Z" fill="#00AB4E"/>
<path d="M89.4757 28.6852H90.7297V38.7172H89.4757V28.6852ZM89.2667 26.1012C89.2667 25.8352 89.3427 25.6325 89.4947 25.4932C89.6467 25.3412 89.843 25.2652 90.0837 25.2652C90.641 25.2652 90.9197 25.5502 90.9197 26.1202C90.9197 26.3988 90.8437 26.6205 90.6917 26.7852C90.5397 26.9372 90.337 27.0132 90.0837 27.0132C89.843 27.0132 89.6467 26.9308 89.4947 26.7662C89.3427 26.6015 89.2667 26.3798 89.2667 26.1012Z" fill="#00AB4E"/>
<path d="M97.6321 28.4762C98.5441 28.4762 99.1837 28.9955 99.5511 30.0342L98.5061 30.6042C98.3541 30.2748 98.1957 30.0405 98.0311 29.9012C97.8664 29.7492 97.6257 29.6732 97.3091 29.6732C96.7137 29.6732 96.0361 30.1102 95.2761 30.9842V38.7172H94.0031V28.6852H95.2001V29.8062C96.0107 28.9195 96.8214 28.4762 97.6321 28.4762Z" fill="#00AB4E"/>
<path d="M101.188 29.9392L101.055 28.8182C101.879 28.5902 102.835 28.4762 103.924 28.4762C106.027 28.4762 107.078 29.5148 107.078 31.5922V36.9692C107.078 37.2732 107.129 37.4885 107.23 37.6152C107.344 37.7418 107.528 37.8052 107.781 37.8052C107.984 37.8052 108.256 37.7418 108.598 37.6152L108.712 38.6602C108.193 38.8248 107.775 38.9072 107.458 38.9072C107.015 38.9072 106.66 38.7932 106.394 38.5652C106.128 38.3245 105.976 38.0332 105.938 37.6912C105.026 38.5018 104.064 38.9072 103.05 38.9072C102.126 38.9072 101.423 38.6158 100.941 38.0332C100.46 37.4505 100.219 36.7095 100.219 35.8102C100.219 34.6322 100.555 33.7645 101.226 33.2072C101.91 32.6372 102.86 32.3522 104.076 32.3522C104.684 32.3522 105.267 32.4155 105.824 32.5422V31.8202C105.824 31.0348 105.653 30.4648 105.311 30.1102C104.969 29.7555 104.374 29.5782 103.525 29.5782C102.727 29.5782 101.948 29.6985 101.188 29.9392ZM105.824 36.6842L105.843 33.5302C105.286 33.3908 104.767 33.3212 104.285 33.3212C103.373 33.3212 102.689 33.5112 102.233 33.8912C101.79 34.2712 101.568 34.8982 101.568 35.7722C101.568 36.3548 101.714 36.8362 102.005 37.2162C102.309 37.5962 102.753 37.7862 103.335 37.7862C104.209 37.7862 105.039 37.4188 105.824 36.6842Z" fill="#00AB4E"/>
<path d="M115.225 28.4762C116.732 28.4762 117.613 29.1348 117.866 30.4522C117.904 30.6675 117.923 31.0792 117.923 31.6872V38.7172H116.669V31.8582C116.669 31.4148 116.65 31.0728 116.612 30.8322C116.46 30.0342 115.877 29.6352 114.864 29.6352C113.939 29.6352 112.964 30.1228 111.938 31.0982V38.7172H110.665V28.6852H111.938V29.9392C113.015 28.9638 114.11 28.4762 115.225 28.4762Z" fill="#00AB4E"/>
</svg>
