<svg width="240" height="48" viewBox="0 0 240 48" fill="none" xmlns="http://www.w3.org/2000/svg">
<path d="M2.792 10.7174V14.4134H1V4.34744H4.528C5.592 4.34744 6.418 4.59477 7.006 5.08944C7.594 5.5841 7.888 6.30277 7.888 7.24544C7.888 8.3001 7.566 9.14477 6.922 9.77944C6.28733 10.4048 5.42867 10.7174 4.346 10.7174H2.792ZM2.792 9.33144H4.15C4.77533 9.33144 5.24667 9.1681 5.564 8.84144C5.89067 8.50544 6.054 8.0201 6.054 7.38544C6.054 6.27477 5.466 5.71944 4.29 5.71944H2.792V9.33144Z" fill="#004D43"/>
<path d="M14.1077 10.9834H10.1177C10.1271 11.6834 10.2857 12.2201 10.5937 12.5934C10.9017 12.9574 11.3264 13.1394 11.8677 13.1394C12.5304 13.1394 13.1977 12.9528 13.8697 12.5794L13.9677 14.0494C13.3331 14.3948 12.5724 14.5674 11.6857 14.5674C9.45505 14.5674 8.33972 13.2468 8.33972 10.6054C8.33972 9.31744 8.61505 8.36544 9.16572 7.74944C9.72572 7.1241 10.4584 6.81144 11.3637 6.81144C13.1931 6.81144 14.1077 7.9781 14.1077 10.3114V10.9834ZM12.4557 9.89144C12.4557 8.69677 12.0824 8.09944 11.3357 8.09944C10.9344 8.09944 10.6311 8.26744 10.4257 8.60344C10.2297 8.93944 10.1317 9.36877 10.1317 9.89144H12.4557Z" fill="#004D43"/>
<path d="M19.5713 7.42744L19.6413 6.95144H21.2093V14.3014C21.2093 16.4668 20.2107 17.5494 18.2133 17.5494C17.2147 17.5494 16.342 17.3674 15.5953 17.0034L15.8613 15.4774C16.1507 15.6548 16.5007 15.7994 16.9113 15.9114C17.3313 16.0328 17.7187 16.0934 18.0733 16.0934C19.0347 16.0934 19.5153 15.4681 19.5153 14.2174V13.7694C19.058 14.2641 18.47 14.5114 17.7513 14.5114C16.9393 14.5114 16.2907 14.1988 15.8053 13.5734C15.3293 12.9388 15.0913 11.9961 15.0913 10.7454C15.0913 10.0548 15.18 9.42477 15.3573 8.85544C15.544 8.2861 15.852 7.80544 16.2813 7.41344C16.72 7.0121 17.252 6.81144 17.8773 6.81144C18.5027 6.81144 19.0673 7.01677 19.5713 7.42744ZM19.4593 12.5514V8.64544C19.0207 8.3281 18.6287 8.16944 18.2833 8.16944C17.3687 8.16944 16.9113 9.03744 16.9113 10.7734C16.9113 12.3414 17.3547 13.1254 18.2413 13.1254C18.6707 13.1254 19.0767 12.9341 19.4593 12.5514Z" fill="#004D43"/>
<path d="M23.3639 8.44944L23.1539 7.14744C23.8259 6.92344 24.5959 6.81144 25.4639 6.81144C26.4906 6.81144 27.2186 7.04477 27.6479 7.51144C28.0772 7.96877 28.2919 8.80877 28.2919 10.0314V12.6634C28.2919 13.0554 28.4319 13.2514 28.7119 13.2514C28.8426 13.2514 28.9919 13.2188 29.1599 13.1534L29.2859 14.3294C28.9312 14.4788 28.5346 14.5534 28.0959 14.5534C27.4239 14.5534 27.0132 14.2688 26.8639 13.6994C26.2572 14.2688 25.5526 14.5534 24.7499 14.5534C24.0312 14.5534 23.4806 14.3341 23.0979 13.8954C22.7246 13.4568 22.5379 12.8968 22.5379 12.2154C22.5379 10.4888 23.4992 9.62544 25.4219 9.62544C25.8046 9.62544 26.2012 9.6721 26.6119 9.76544V9.44344C26.6119 8.57544 26.1219 8.14144 25.1419 8.14144C24.6099 8.14144 24.0172 8.2441 23.3639 8.44944ZM26.6119 12.5934V10.8714C26.2946 10.7594 25.9959 10.7034 25.7159 10.7034C24.7546 10.7034 24.2739 11.1561 24.2739 12.0614C24.2739 12.4254 24.3579 12.7148 24.5259 12.9294C24.6939 13.1348 24.9412 13.2374 25.2679 13.2374C25.7719 13.2374 26.2199 13.0228 26.6119 12.5934Z" fill="#004D43"/>
<path d="M34.1793 7.28744V4.34744H35.9293V14.4134H34.3613L34.3053 13.7554C33.792 14.2874 33.1807 14.5534 32.4713 14.5534C31.6593 14.5534 31.0107 14.2314 30.5253 13.5874C30.0493 12.9434 29.8113 11.9961 29.8113 10.7454C29.8113 10.0548 29.9047 9.42477 30.0913 8.85544C30.278 8.27677 30.5907 7.79144 31.0293 7.39944C31.468 7.00744 32.0093 6.81144 32.6533 6.81144C33.2133 6.81144 33.722 6.9701 34.1793 7.28744ZM34.1933 12.6074V8.61744C33.7547 8.3001 33.3673 8.14144 33.0313 8.14144C32.098 8.14144 31.6313 9.01877 31.6313 10.7734C31.6313 11.5574 31.748 12.1548 31.9813 12.5654C32.2147 12.9761 32.546 13.1814 32.9753 13.1814C33.4047 13.1814 33.8107 12.9901 34.1933 12.6074Z" fill="#004D43"/>
<path d="M38.0839 8.44944L37.8739 7.14744C38.5459 6.92344 39.3159 6.81144 40.1839 6.81144C41.2106 6.81144 41.9386 7.04477 42.3679 7.51144C42.7973 7.96877 43.0119 8.80877 43.0119 10.0314V12.6634C43.0119 13.0554 43.1519 13.2514 43.4319 13.2514C43.5626 13.2514 43.7119 13.2188 43.8799 13.1534L44.0059 14.3294C43.6513 14.4788 43.2546 14.5534 42.8159 14.5534C42.1439 14.5534 41.7333 14.2688 41.5839 13.6994C40.9773 14.2688 40.2726 14.5534 39.4699 14.5534C38.7513 14.5534 38.2006 14.3341 37.8179 13.8954C37.4446 13.4568 37.2579 12.8968 37.2579 12.2154C37.2579 10.4888 38.2193 9.62544 40.1419 9.62544C40.5246 9.62544 40.9213 9.6721 41.3319 9.76544V9.44344C41.3319 8.57544 40.8419 8.14144 39.8619 8.14144C39.3299 8.14144 38.7373 8.2441 38.0839 8.44944ZM41.3319 12.5934V10.8714C41.0146 10.7594 40.7159 10.7034 40.4359 10.7034C39.4746 10.7034 38.9939 11.1561 38.9939 12.0614C38.9939 12.4254 39.0779 12.7148 39.2459 12.9294C39.4139 13.1348 39.6613 13.2374 39.9879 13.2374C40.4919 13.2374 40.9399 13.0228 41.3319 12.5934Z" fill="#004D43"/>
<path d="M45.0461 6.95144H46.7961V14.4134H45.0461V6.95144ZM44.9061 5.00544C44.9061 4.6881 44.9994 4.44077 45.1861 4.26344C45.3727 4.0861 45.6154 3.99744 45.9141 3.99744C46.2407 3.99744 46.4927 4.0861 46.6701 4.26344C46.8474 4.43144 46.9361 4.67877 46.9361 5.00544C46.9361 5.3321 46.8381 5.5841 46.6421 5.76144C46.4554 5.92944 46.2127 6.01344 45.9141 6.01344C45.6061 6.01344 45.3587 5.92477 45.1721 5.74744C44.9947 5.56077 44.9061 5.31344 44.9061 5.00544Z" fill="#004D43"/>
<path d="M48.9485 8.44944L48.7385 7.14744C49.4105 6.92344 50.1805 6.81144 51.0485 6.81144C52.0751 6.81144 52.8031 7.04477 53.2325 7.51144C53.6618 7.96877 53.8765 8.80877 53.8765 10.0314V12.6634C53.8765 13.0554 54.0165 13.2514 54.2965 13.2514C54.4271 13.2514 54.5765 13.2188 54.7445 13.1534L54.8705 14.3294C54.5158 14.4788 54.1191 14.5534 53.6805 14.5534C53.0085 14.5534 52.5978 14.2688 52.4485 13.6994C51.8418 14.2688 51.1371 14.5534 50.3345 14.5534C49.6158 14.5534 49.0651 14.3341 48.6825 13.8954C48.3091 13.4568 48.1225 12.8968 48.1225 12.2154C48.1225 10.4888 49.0838 9.62544 51.0065 9.62544C51.3891 9.62544 51.7858 9.6721 52.1965 9.76544V9.44344C52.1965 8.57544 51.7065 8.14144 50.7265 8.14144C50.1945 8.14144 49.6018 8.2441 48.9485 8.44944ZM52.1965 12.5934V10.8714C51.8791 10.7594 51.5805 10.7034 51.3005 10.7034C50.3391 10.7034 49.8585 11.1561 49.8585 12.0614C49.8585 12.4254 49.9425 12.7148 50.1105 12.9294C50.2785 13.1348 50.5258 13.2374 50.8525 13.2374C51.3565 13.2374 51.8045 13.0228 52.1965 12.5934Z" fill="#004D43"/>
<path d="M57.5066 6.95144L57.5626 7.69344C58.2346 7.10544 58.972 6.81144 59.7746 6.81144C60.9786 6.81144 61.66 7.32944 61.8186 8.36544C61.856 8.59877 61.8746 8.91144 61.8746 9.30344V14.4134H60.1246V9.52744C60.1246 9.2381 60.12 9.04677 60.1106 8.95344C60.0546 8.4961 59.7466 8.26744 59.1866 8.26744C58.7013 8.26744 58.1973 8.50077 57.6746 8.96744V14.4134H55.9106V6.95144H57.5066Z" fill="#004D43"/>
<path d="M8.35398 31.7454V29.2494H14.958V37.7774C13.138 38.6441 11.1966 39.0774 9.13398 39.0774C6.37798 39.0774 4.34998 38.2714 3.04998 36.6594C1.76731 35.0474 1.12598 32.5081 1.12598 29.0414C1.12598 26.1641 1.72398 23.8761 2.91998 22.1774C4.13331 20.4787 5.99664 19.6294 8.50998 19.6294C10.3646 19.6294 11.7773 20.0627 12.748 20.9294C13.7186 21.7787 14.3686 23.0007 14.698 24.5954L11.604 25.3494C11.3093 24.2921 10.928 23.5207 10.46 23.0354C10.0093 22.5327 9.32464 22.2814 8.40598 22.2814C5.87531 22.2814 4.60998 24.5001 4.60998 28.9374C4.60998 30.1334 4.67064 31.1561 4.79198 32.0054C4.91331 32.8547 5.13864 33.6347 5.46798 34.3454C5.79731 35.0387 6.26531 35.5674 6.87198 35.9314C7.49598 36.2781 8.26731 36.4514 9.18598 36.4514C10.122 36.4514 10.9626 36.2954 11.708 35.9834V31.7454H8.35398Z" fill="#BFD730"/>
<path d="M18.5405 27.6374L18.1505 25.2194C19.3985 24.8034 20.8285 24.5954 22.4405 24.5954C24.3472 24.5954 25.6992 25.0287 26.4965 25.8954C27.2938 26.7447 27.6925 28.3047 27.6925 30.5754V35.4634C27.6925 36.1914 27.9525 36.5554 28.4725 36.5554C28.7152 36.5554 28.9925 36.4947 29.3045 36.3734L29.5385 38.5574C28.8798 38.8347 28.1432 38.9734 27.3285 38.9734C26.0805 38.9734 25.3178 38.4447 25.0405 37.3874C23.9138 38.4447 22.6052 38.9734 21.1145 38.9734C19.7798 38.9734 18.7572 38.5661 18.0465 37.7514C17.3532 36.9367 17.0065 35.8967 17.0065 34.6314C17.0065 31.4247 18.7918 29.8214 22.3625 29.8214C23.0732 29.8214 23.8098 29.9081 24.5725 30.0814V29.4834C24.5725 27.8714 23.6625 27.0654 21.8425 27.0654C20.8545 27.0654 19.7538 27.2561 18.5405 27.6374ZM24.5725 35.3334V32.1354C23.9832 31.9274 23.4285 31.8234 22.9085 31.8234C21.1232 31.8234 20.2305 32.6641 20.2305 34.3454C20.2305 35.0214 20.3865 35.5587 20.6985 35.9574C21.0105 36.3387 21.4698 36.5294 22.0765 36.5294C23.0125 36.5294 23.8445 36.1307 24.5725 35.3334Z" fill="#BFD730"/>
<path d="M38.6003 25.4794V20.0194H41.8503V38.7134H38.9383L38.8343 37.4914C37.881 38.4794 36.7456 38.9734 35.4283 38.9734C33.9203 38.9734 32.7156 38.3754 31.8143 37.1794C30.9303 35.9834 30.4883 34.2241 30.4883 31.9014C30.4883 30.6187 30.6616 29.4487 31.0083 28.3914C31.355 27.3167 31.9356 26.4154 32.7503 25.6874C33.565 24.9594 34.5703 24.5954 35.7663 24.5954C36.8063 24.5954 37.751 24.8901 38.6003 25.4794ZM38.6263 35.3594V27.9494C37.8116 27.3601 37.0923 27.0654 36.4683 27.0654C34.735 27.0654 33.8683 28.6947 33.8683 31.9534C33.8683 33.4094 34.085 34.5187 34.5183 35.2814C34.9516 36.0441 35.567 36.4254 36.3643 36.4254C37.1616 36.4254 37.9156 36.0701 38.6263 35.3594Z" fill="#BFD730"/>
<path d="M45.8257 27.6374L45.4357 25.2194C46.6837 24.8034 48.1137 24.5954 49.7257 24.5954C51.6323 24.5954 52.9843 25.0287 53.7817 25.8954C54.579 26.7447 54.9777 28.3047 54.9777 30.5754V35.4634C54.9777 36.1914 55.2377 36.5554 55.7577 36.5554C56.0003 36.5554 56.2777 36.4947 56.5897 36.3734L56.8237 38.5574C56.165 38.8347 55.4283 38.9734 54.6137 38.9734C53.3657 38.9734 52.603 38.4447 52.3257 37.3874C51.199 38.4447 49.8903 38.9734 48.3997 38.9734C47.065 38.9734 46.0423 38.5661 45.3317 37.7514C44.6383 36.9367 44.2917 35.8967 44.2917 34.6314C44.2917 31.4247 46.077 29.8214 49.6477 29.8214C50.3583 29.8214 51.095 29.9081 51.8577 30.0814V29.4834C51.8577 27.8714 50.9477 27.0654 49.1277 27.0654C48.1397 27.0654 47.039 27.2561 45.8257 27.6374ZM51.8577 35.3334V32.1354C51.2683 31.9274 50.7137 31.8234 50.1937 31.8234C48.4083 31.8234 47.5157 32.6641 47.5157 34.3454C47.5157 35.0214 47.6717 35.5587 47.9837 35.9574C48.2957 36.3387 48.755 36.5294 49.3617 36.5294C50.2977 36.5294 51.1297 36.1307 51.8577 35.3334Z" fill="#BFD730"/>
<path d="M58.7294 24.8554H61.9794V38.7134H58.7294V24.8554ZM58.4694 21.2414C58.4694 20.6521 58.6427 20.1927 58.9894 19.8634C59.3361 19.5341 59.7867 19.3694 60.3414 19.3694C60.9481 19.3694 61.416 19.5341 61.7454 19.8634C62.0747 20.1754 62.2394 20.6347 62.2394 21.2414C62.2394 21.8481 62.0574 22.3161 61.6934 22.6454C61.3467 22.9574 60.896 23.1134 60.3414 23.1134C59.7694 23.1134 59.3101 22.9487 58.9634 22.6194C58.634 22.2727 58.4694 21.8134 58.4694 21.2414Z" fill="#BFD730"/>
<path d="M75.865 25.0334H77.138V38.7134H75.865L69.006 27.3514V38.7134H67.733V25.0334H69.101L75.865 36.3004V25.0334Z" fill="#BFD730"/>
<path d="M83.8138 38.9414C83.1045 38.9414 82.4901 38.7894 81.9708 38.4854C81.4641 38.1814 81.0778 37.7634 80.8118 37.2314C80.5458 36.6994 80.3558 36.1548 80.2418 35.5974C80.1278 35.0274 80.0708 34.4131 80.0708 33.7544C80.0708 32.2091 80.4001 30.9424 81.0588 29.9544C81.7301 28.9664 82.7245 28.4724 84.0418 28.4724C86.4991 28.4724 87.7278 30.1698 87.7278 33.5644C87.7278 34.2484 87.6581 34.8944 87.5188 35.5024C87.3795 36.1104 87.1641 36.6804 86.8728 37.2124C86.5815 37.7444 86.1698 38.1688 85.6378 38.4854C85.1185 38.7894 84.5105 38.9414 83.8138 38.9414ZM83.8518 37.8394C84.3585 37.8394 84.7891 37.7128 85.1438 37.4594C85.4985 37.2061 85.7581 36.8641 85.9228 36.4334C86.1001 36.0028 86.2268 35.5594 86.3028 35.1034C86.3788 34.6474 86.4168 34.1598 86.4168 33.6404C86.4168 30.9424 85.6061 29.5934 83.9848 29.5934C83.4655 29.5934 83.0221 29.7391 82.6548 30.0304C82.3001 30.3091 82.0341 30.6828 81.8568 31.1514C81.6795 31.6074 81.5528 32.0508 81.4768 32.4814C81.4135 32.9121 81.3818 33.3491 81.3818 33.7924C81.3818 34.5271 81.4451 35.1794 81.5718 35.7494C81.7111 36.3194 81.9708 36.8134 82.3508 37.2314C82.7435 37.6368 83.2438 37.8394 83.8518 37.8394Z" fill="#BFD730"/>
<path d="M94.961 28.4724C96.4683 28.4724 97.3487 29.1311 97.602 30.4484C97.64 30.6638 97.659 31.0754 97.659 31.6834V38.7134H96.405V31.8544C96.405 31.4111 96.386 31.0691 96.348 30.8284C96.196 30.0304 95.6133 29.6314 94.6 29.6314C93.6753 29.6314 92.7 30.1191 91.674 31.0944V38.7134H90.401V28.6814H91.674V29.9354C92.7507 28.9601 93.8463 28.4724 94.961 28.4724Z" fill="#BFD730"/>
<path d="M103.733 38.7134V25.0524H111.067V26.2304H105.044V31.0184H110.288V32.1964H105.044V37.5164H111.314V38.7134H103.733Z" fill="#BFD730"/>
<path d="M118.177 28.4724C119.355 28.4724 120.127 28.9157 120.495 29.8024C121.521 28.9157 122.566 28.4724 123.63 28.4724C125.15 28.4724 126.024 29.131 126.252 30.4484C126.302 30.7397 126.328 31.1514 126.328 31.6834V38.7134H125.074V31.8544C125.074 31.3857 125.048 31.0437 124.998 30.8284C124.846 30.0304 124.295 29.6314 123.345 29.6314C122.471 29.6314 121.59 30.0494 120.704 30.8854C120.729 31.088 120.742 31.4237 120.742 31.8924V38.7134H119.488V31.8544C119.488 31.3857 119.462 31.0437 119.412 30.8284C119.285 30.0304 118.785 29.6314 117.911 29.6314C116.859 29.6314 115.852 30.1254 114.89 31.1134V38.7134H113.617V28.6814H114.89V29.9164C115.992 28.9537 117.087 28.4724 118.177 28.4724Z" fill="#BFD730"/>
<path d="M129.782 29.9354L129.649 28.8144C130.473 28.5864 131.429 28.4724 132.518 28.4724C134.621 28.4724 135.672 29.511 135.672 31.5884V36.9654C135.672 37.2694 135.723 37.4847 135.824 37.6114C135.938 37.738 136.122 37.8014 136.375 37.8014C136.578 37.8014 136.85 37.738 137.192 37.6114L137.306 38.6564C136.787 38.821 136.369 38.9034 136.052 38.9034C135.609 38.9034 135.254 38.7894 134.988 38.5614C134.722 38.3207 134.57 38.0294 134.532 37.6874C133.62 38.498 132.658 38.9034 131.644 38.9034C130.72 38.9034 130.017 38.612 129.535 38.0294C129.054 37.4467 128.813 36.7057 128.813 35.8064C128.813 34.6284 129.149 33.7607 129.82 33.2034C130.504 32.6334 131.454 32.3484 132.67 32.3484C133.278 32.3484 133.861 32.4117 134.418 32.5384V31.8164C134.418 31.031 134.247 30.461 133.905 30.1064C133.563 29.7517 132.968 29.5744 132.119 29.5744C131.321 29.5744 130.542 29.6947 129.782 29.9354ZM134.418 36.6804L134.437 33.5264C133.88 33.387 133.361 33.3174 132.879 33.3174C131.967 33.3174 131.283 33.5074 130.827 33.8874C130.384 34.2674 130.162 34.8944 130.162 35.7684C130.162 36.351 130.308 36.8324 130.599 37.2124C130.903 37.5924 131.347 37.7824 131.929 37.7824C132.803 37.7824 133.633 37.415 134.418 36.6804Z" fill="#BFD730"/>
<path d="M138.385 37.8774L138.727 36.6994C139.006 36.9527 139.411 37.206 139.943 37.4594C140.475 37.7127 140.982 37.8394 141.463 37.8394C142.084 37.8394 142.584 37.7 142.964 37.4214C143.344 37.1427 143.534 36.7374 143.534 36.2054C143.534 35.7114 143.363 35.3187 143.021 35.0274C142.679 34.736 142.261 34.5144 141.767 34.3624C141.273 34.2104 140.779 34.0457 140.285 33.8684C139.804 33.691 139.392 33.387 139.05 32.9564C138.708 32.5257 138.537 31.962 138.537 31.2654C138.537 30.404 138.848 29.7264 139.468 29.2324C140.089 28.7257 140.849 28.4724 141.748 28.4724C142.673 28.4724 143.395 28.7067 143.914 29.1754C144.446 29.6314 144.769 30.1697 144.883 30.7904L143.857 31.2084C143.705 30.6764 143.439 30.2774 143.059 30.0114C142.679 29.7327 142.236 29.5934 141.729 29.5934C141.197 29.5934 140.748 29.7264 140.38 29.9924C140.013 30.2584 139.829 30.6637 139.829 31.2084C139.829 31.7024 140 32.1014 140.342 32.4054C140.684 32.6967 141.096 32.9184 141.577 33.0704C142.071 33.2224 142.565 33.387 143.059 33.5644C143.553 33.729 143.971 34.014 144.313 34.4194C144.655 34.8247 144.826 35.3504 144.826 35.9964C144.826 36.8577 144.529 37.567 143.933 38.1244C143.351 38.669 142.521 38.9414 141.444 38.9414C140.836 38.9414 140.235 38.8274 139.639 38.5994C139.057 38.3587 138.639 38.118 138.385 37.8774Z" fill="#BFD730"/>
</svg>
