<svg width="60" height="36" viewBox="0 0 60 36" fill="none" xmlns="http://www.w3.org/2000/svg">
<path fill-rule="evenodd" clip-rule="evenodd" d="M29.838 8.46437C33.1693 8.46428 35.854 11.1466 35.8564 14.4776C35.8588 17.7908 33.1665 20.4931 29.8619 20.4946C26.5185 20.4961 23.8335 17.8106 23.8354 14.4671C23.8372 11.1471 26.5198 8.46451 29.838 8.46437ZM32.5308 12.5569C32.6656 12.6335 32.7415 12.674 32.8149 12.7188C32.9342 12.7916 33.0426 12.8244 33.135 12.6756C33.2331 12.5176 33.135 12.4547 33.0148 12.3865C31.8106 11.7033 30.5316 11.3525 29.1374 11.5036C28.2572 11.5991 27.4439 11.887 26.6913 12.3491C26.5811 12.4167 26.4379 12.4777 26.5502 12.6557C26.6642 12.8366 26.7822 12.7489 26.9055 12.67C26.9738 12.6262 27.0473 12.5906 27.1618 12.5274C27.116 12.6396 27.0915 12.703 27.0645 12.7653C26.5556 13.9373 26.0468 15.1092 25.5371 16.2808C25.3625 16.6821 25.4277 16.8992 25.8072 17.1265C25.9206 17.1944 26.0433 17.2524 26.1686 17.2939C26.9436 17.5504 27.7255 17.5441 28.5097 17.3384C28.6925 17.2904 28.8639 17.2117 29.0237 17.1108C29.368 16.8935 29.4313 16.67 29.2683 16.2957C28.7206 15.0383 28.1788 13.7782 27.6246 12.5237C27.5486 12.3517 27.5951 12.3025 27.751 12.2422C29.1411 11.7051 30.5231 11.7376 31.9068 12.2691C32.0965 12.342 32.1093 12.4192 32.0325 12.5929C31.5003 13.7969 30.9784 15.0055 30.453 16.2126C30.2375 16.7078 30.3234 16.9579 30.8123 17.1926C31.4183 17.4836 32.065 17.5228 32.7216 17.463C33.1381 17.4251 33.5447 17.3419 33.9056 17.113C34.2515 16.8937 34.3182 16.6696 34.1564 16.2992C33.896 15.7032 33.6367 15.1066 33.3776 14.5101C33.1039 13.8794 32.8307 13.2486 32.5308 12.5569Z" fill="#02A750"/>
<path fill-rule="evenodd" clip-rule="evenodd" d="M29.8237 24.9469C26.8179 24.9064 24.258 23.812 22.1956 21.6266C20.5361 19.8681 19.6135 17.7582 19.4112 15.342C19.3929 15.1233 19.3921 14.9032 19.3727 14.6847C19.3624 14.5676 19.402 14.538 19.5155 14.5408C19.821 14.5482 20.127 14.5484 20.4325 14.5401C20.5784 14.5362 20.5494 14.6302 20.552 14.7122C20.5779 15.5394 20.6963 16.3535 20.9382 17.1446C21.3885 18.6174 22.1499 19.909 23.2364 21.0046C24.4282 22.2064 25.839 23.0384 27.4777 23.4621C29.2269 23.9144 30.9703 23.8786 32.694 23.3162C34.802 22.6284 36.4625 21.3496 37.662 19.4895C38.7209 17.8473 39.2027 16.0398 39.1197 14.0834C39.0216 11.7678 38.1666 9.76128 36.5835 8.08824C35.0114 6.42673 33.0654 5.46821 30.7782 5.23782C28.883 5.04691 27.0941 5.40278 25.419 6.31245C25.29 6.38255 25.2115 6.3824 25.1347 6.24886C25.0018 6.01796 24.8661 5.78786 24.7171 5.56717C24.6269 5.43368 24.6616 5.37211 24.7911 5.30009C25.5843 4.85891 26.4226 4.52966 27.3017 4.31349C28.9285 3.91349 30.5649 3.89304 32.1979 4.27077C34.2307 4.74096 35.9789 5.72963 37.4137 7.24436C39.1977 9.12773 40.169 11.3717 40.2963 13.9678C40.4207 16.5026 39.7169 18.7966 38.1802 20.8092C36.5272 22.9742 34.3402 24.3016 31.6526 24.791C31.0482 24.9012 30.4396 24.9467 29.8237 24.9469Z" fill="#BAD333"/>
<path fill-rule="evenodd" clip-rule="evenodd" d="M29.8669 6.34345C32.8563 6.44454 35.1789 7.72945 36.8032 10.2598C36.8933 10.4003 36.8777 10.4685 36.7325 10.5482C36.5268 10.661 36.3254 10.7862 36.1386 10.9277C35.97 11.0553 35.8817 11.046 35.7654 10.8525C35.1939 9.901 34.4239 9.14187 33.4827 8.55367C30.8974 6.9381 27.4338 7.2552 25.1864 9.32637C23.5791 10.8076 22.8179 12.651 22.9038 14.8329C23.0327 18.1091 25.6036 20.9487 28.8604 21.3463C31.8217 21.7079 34.1265 20.584 35.7685 18.0988C35.8463 17.9811 35.8952 17.9509 36.0186 18.0396C36.2412 18.1997 36.4722 18.3495 36.7088 18.488C36.8496 18.5704 36.8373 18.6441 36.7594 18.7647C35.4618 20.7726 33.6532 22.0464 31.2971 22.4725C27.6514 23.1319 24.1386 21.3231 22.5028 17.9891C20.6162 14.1439 22.1991 9.30791 25.9964 7.30979C27.2065 6.67304 28.4898 6.33789 29.8669 6.34345Z" fill="#74BC46"/>
<path fill-rule="evenodd" clip-rule="evenodd" d="M32.5308 12.5569C32.8307 13.2486 33.1038 13.8794 33.3777 14.51C33.6368 15.1066 33.896 15.7031 34.1564 16.2992C34.3183 16.6695 34.2516 16.8937 33.9057 17.1129C33.5447 17.3418 33.1381 17.425 32.7216 17.463C32.0651 17.5228 31.4184 17.4835 30.8123 17.1926C30.3234 16.9579 30.2376 16.7077 30.4531 16.2126C30.9785 15.0055 31.5004 13.7969 32.0326 12.5928C32.1093 12.4191 32.0965 12.3419 31.9068 12.2691C30.5231 11.7375 29.1412 11.705 27.7511 12.2422C27.5951 12.3024 27.5487 12.3516 27.6246 12.5236C28.1789 13.7781 28.7206 15.0382 29.2683 16.2956C29.4313 16.6699 29.3681 16.8934 29.0237 17.1108C28.8639 17.2117 28.6926 17.2904 28.5098 17.3383C27.7255 17.544 26.9436 17.5503 26.1686 17.2938C26.0433 17.2523 25.9206 17.1944 25.8073 17.1264C25.4277 16.8992 25.3626 16.6821 25.5372 16.2807C26.0468 15.1091 26.5557 13.9372 27.0645 12.7653C27.0916 12.703 27.116 12.6395 27.1618 12.5274C27.0473 12.5906 26.9738 12.6262 26.9055 12.6699C26.7822 12.7489 26.6643 12.8366 26.5502 12.6556C26.4379 12.4776 26.5812 12.4167 26.6913 12.349C27.4439 11.8869 28.2572 11.599 29.1374 11.5036C30.5317 11.3524 31.8106 11.7032 33.0149 12.3864C33.135 12.4546 33.2331 12.5174 33.135 12.6755C33.0427 12.8243 32.9342 12.7915 32.8149 12.7187C32.7415 12.674 32.6656 12.6334 32.5308 12.5569ZM27.4176 12.9123C27.386 12.9424 27.3699 12.9509 27.3642 12.964C26.9108 14.004 26.4599 15.0451 26.0038 16.0839C25.9354 16.2397 26.0195 16.2324 26.1274 16.2321C26.895 16.2303 27.6627 16.231 28.4304 16.2309C28.5614 16.2309 28.6923 16.2309 28.8584 16.2309C28.37 15.106 27.8958 14.0137 27.4176 12.9123ZM32.3044 12.9164C32.2726 12.9457 32.2489 12.9577 32.2408 12.9764C31.7919 14.0097 31.3457 15.0442 30.895 16.0768C30.8333 16.2181 30.8911 16.233 31.0128 16.2326C31.8589 16.2297 32.705 16.2276 33.551 16.2338C33.7345 16.2351 33.7187 16.1697 33.6602 16.0402C33.5058 15.6979 33.3624 15.3506 33.213 15.0061C32.9123 14.3128 32.6103 13.62 32.3044 12.9164Z" fill="#F3FAF6"/>
<path fill-rule="evenodd" clip-rule="evenodd" d="M27.4176 12.9123C27.8958 14.0137 28.37 15.106 28.8584 16.2309C28.6923 16.2309 28.5613 16.2309 28.4304 16.2309C27.6627 16.231 26.895 16.2303 26.1273 16.2321C26.0194 16.2324 25.9353 16.2397 26.0037 16.0839C26.4598 15.045 26.9108 14.004 27.3641 12.964C27.3698 12.9509 27.3859 12.9424 27.4176 12.9123Z" fill="#04A650"/>
<path fill-rule="evenodd" clip-rule="evenodd" d="M32.3044 12.9164C32.6103 13.62 32.9122 14.3128 33.213 15.0061C33.3624 15.3506 33.5057 15.698 33.6602 16.0402C33.7187 16.1697 33.7344 16.2351 33.551 16.2338C32.705 16.2276 31.8589 16.2297 31.0128 16.2326C30.8911 16.2331 30.8333 16.2181 30.8949 16.0768C31.3457 15.0443 31.7919 14.0097 32.2408 12.9764C32.2489 12.9577 32.2726 12.9457 32.3044 12.9164Z" fill="#04A650"/>
<path d="M3.61184 29.2711V30.5202H3V27.1183H4.20456C4.56784 27.1183 4.84986 27.2019 5.05062 27.369C5.25138 27.5362 5.35176 27.7791 5.35176 28.0977C5.35176 28.4541 5.24182 28.7396 5.02194 28.9541C4.80525 29.1654 4.51207 29.2711 4.14242 29.2711H3.61184ZM3.61184 28.8027H4.0755C4.28901 28.8027 4.44993 28.7475 4.55828 28.6371C4.66981 28.5235 4.72558 28.3595 4.72558 28.145C4.72558 27.7696 4.52482 27.582 4.1233 27.582H3.61184V28.8027Z" fill="#00AB4E"/>
<path d="M7.50881 29.361H6.14651C6.1497 29.5975 6.20387 29.7789 6.30903 29.9051C6.41419 30.0281 6.55918 30.0896 6.74401 30.0896C6.97026 30.0896 7.19811 30.0265 7.42755 29.9004L7.46101 30.3971C7.24432 30.5139 6.9846 30.5722 6.68187 30.5722C5.92026 30.5722 5.53945 30.1259 5.53945 29.2332C5.53945 28.7979 5.63346 28.4762 5.82147 28.268C6.01267 28.0567 6.26282 27.951 6.57193 27.951C7.19652 27.951 7.50881 28.3453 7.50881 29.1339V29.361ZM6.94477 28.9919C6.94477 28.5882 6.8173 28.3863 6.56237 28.3863C6.42534 28.3863 6.32178 28.4431 6.25167 28.5566C6.18475 28.6702 6.15129 28.8153 6.15129 28.9919H6.94477Z" fill="#00AB4E"/>
<path d="M9.4077 28.1592L9.4316 27.9983H9.96696V30.4823C9.96696 31.2141 9.62599 31.58 8.94404 31.58C8.60307 31.58 8.30512 31.5185 8.05018 31.3955L8.141 30.8798C8.23979 30.9397 8.35929 30.9886 8.4995 31.0264C8.6429 31.0674 8.77515 31.0879 8.89624 31.0879C9.22447 31.0879 9.38858 30.8766 9.38858 30.4539V30.3025C9.23244 30.4697 9.03168 30.5533 8.7863 30.5533C8.50906 30.5533 8.28759 30.4476 8.12188 30.2363C7.95936 30.0218 7.8781 29.7032 7.8781 29.2805C7.8781 29.0471 7.90838 28.8342 7.96892 28.6418C8.03266 28.4494 8.13782 28.2869 8.2844 28.1545C8.43418 28.0188 8.61582 27.951 8.82932 27.951C9.04283 27.951 9.23562 28.0204 9.4077 28.1592ZM9.36946 29.8909V28.5708C9.21969 28.4636 9.08585 28.41 8.96794 28.41C8.65565 28.41 8.4995 28.7033 8.4995 29.29C8.4995 29.8199 8.65087 30.0849 8.9536 30.0849C9.10019 30.0849 9.23881 30.0202 9.36946 29.8909Z" fill="#00AB4E"/>
<path d="M10.7361 28.5046L10.6644 28.0646C10.8938 27.9889 11.1567 27.951 11.4531 27.951C11.8036 27.951 12.0521 28.0299 12.1987 28.1876C12.3453 28.3421 12.4186 28.626 12.4186 29.0392V29.9287C12.4186 30.0612 12.4664 30.1275 12.562 30.1275C12.6066 30.1275 12.6576 30.1164 12.715 30.0943L12.758 30.4918C12.6369 30.5422 12.5015 30.5675 12.3517 30.5675C12.1223 30.5675 11.982 30.4713 11.9311 30.2789C11.7239 30.4713 11.4833 30.5675 11.2093 30.5675C10.9639 30.5675 10.7759 30.4934 10.6452 30.3451C10.5178 30.1969 10.454 30.0076 10.454 29.7773C10.454 29.1938 10.7823 28.902 11.4387 28.902C11.5694 28.902 11.7048 28.9178 11.845 28.9493V28.8405C11.845 28.5472 11.6777 28.4005 11.3431 28.4005C11.1615 28.4005 10.9591 28.4352 10.7361 28.5046ZM11.845 29.9051V29.3231C11.7367 29.2853 11.6347 29.2663 11.5391 29.2663C11.2109 29.2663 11.0468 29.4193 11.0468 29.7253C11.0468 29.8483 11.0754 29.9461 11.1328 30.0186C11.1902 30.088 11.2746 30.1227 11.3861 30.1227C11.5582 30.1227 11.7112 30.0502 11.845 29.9051Z" fill="#00AB4E"/>
<path d="M14.4622 28.1119V27.1183H15.0597V30.5202H14.5244L14.5052 30.2978C14.33 30.4776 14.1212 30.5675 13.8791 30.5675C13.6018 30.5675 13.3803 30.4587 13.2146 30.241C13.0521 30.0234 12.9709 29.7032 12.9709 29.2805C12.9709 29.0471 13.0027 28.8342 13.0665 28.6418C13.1302 28.4462 13.2369 28.2822 13.3867 28.1497C13.5365 28.0173 13.7213 27.951 13.9412 27.951C14.1324 27.951 14.3061 28.0046 14.4622 28.1119ZM14.467 29.9098V28.5614C14.3172 28.4541 14.185 28.4005 14.0703 28.4005C13.7516 28.4005 13.5923 28.697 13.5923 29.29C13.5923 29.555 13.6321 29.7568 13.7118 29.8956C13.7914 30.0344 13.9045 30.1038 14.0511 30.1038C14.1977 30.1038 14.3363 30.0391 14.467 29.9098Z" fill="#00AB4E"/>
<path d="M15.8288 28.5046L15.7571 28.0646C15.9866 27.9889 16.2495 27.951 16.5458 27.951C16.8963 27.951 17.1449 28.0299 17.2915 28.1876C17.4381 28.3421 17.5114 28.626 17.5114 29.0392V29.9287C17.5114 30.0612 17.5592 30.1275 17.6548 30.1275C17.6994 30.1275 17.7504 30.1164 17.8077 30.0943L17.8508 30.4918C17.7297 30.5422 17.5942 30.5675 17.4445 30.5675C17.215 30.5675 17.0748 30.4713 17.0238 30.2789C16.8167 30.4713 16.5761 30.5675 16.302 30.5675C16.0567 30.5675 15.8686 30.4934 15.738 30.3451C15.6105 30.1969 15.5468 30.0076 15.5468 29.7773C15.5468 29.1938 15.875 28.902 16.5315 28.902C16.6621 28.902 16.7976 28.9178 16.9378 28.9493V28.8405C16.9378 28.5472 16.7705 28.4005 16.4359 28.4005C16.2542 28.4005 16.0519 28.4352 15.8288 28.5046ZM16.9378 29.9051V29.3231C16.8294 29.2853 16.7275 29.2663 16.6319 29.2663C16.3036 29.2663 16.1395 29.4193 16.1395 29.7253C16.1395 29.8483 16.1682 29.9461 16.2256 30.0186C16.2829 30.088 16.3674 30.1227 16.4789 30.1227C16.651 30.1227 16.8039 30.0502 16.9378 29.9051Z" fill="#00AB4E"/>
<path d="M18.2393 27.9983H18.8368V30.5202H18.2393V27.9983ZM18.1915 27.3407C18.1915 27.2334 18.2234 27.1498 18.2871 27.0899C18.3509 27.03 18.4337 27 18.5357 27C18.6472 27 18.7333 27.03 18.7938 27.0899C18.8544 27.1467 18.8846 27.2303 18.8846 27.3407C18.8846 27.4511 18.8512 27.5362 18.7843 27.5962C18.7205 27.6529 18.6377 27.6813 18.5357 27.6813C18.4305 27.6813 18.3461 27.6514 18.2824 27.5914C18.2218 27.5283 18.1915 27.4448 18.1915 27.3407Z" fill="#00AB4E"/>
<path d="M19.6052 28.5046L19.5335 28.0646C19.7629 27.9889 20.0258 27.951 20.3222 27.951C20.6727 27.951 20.9213 28.0299 21.0679 28.1876C21.2145 28.3421 21.2878 28.626 21.2878 29.0392V29.9287C21.2878 30.0612 21.3356 30.1275 21.4312 30.1275C21.4758 30.1275 21.5268 30.1164 21.5841 30.0943L21.6271 30.4918C21.506 30.5422 21.3706 30.5675 21.2208 30.5675C20.9914 30.5675 20.8512 30.4713 20.8002 30.2789C20.5931 30.4713 20.3525 30.5675 20.0784 30.5675C19.833 30.5675 19.645 30.4934 19.5144 30.3451C19.3869 30.1969 19.3232 30.0076 19.3232 29.7773C19.3232 29.1938 19.6514 28.902 20.3079 28.902C20.4385 28.902 20.5739 28.9178 20.7142 28.9493V28.8405C20.7142 28.5472 20.5469 28.4005 20.2123 28.4005C20.0306 28.4005 19.8283 28.4352 19.6052 28.5046ZM20.7142 29.9051V29.3231C20.6058 29.2853 20.5038 29.2663 20.4082 29.2663C20.08 29.2663 19.9159 29.4193 19.9159 29.7253C19.9159 29.8483 19.9446 29.9461 20.0019 30.0186C20.0593 30.088 20.1437 30.1227 20.2553 30.1227C20.4274 30.1227 20.5803 30.0502 20.7142 29.9051Z" fill="#00AB4E"/>
<path d="M22.5607 27.9983L22.5798 28.2491C22.8092 28.0504 23.061 27.951 23.335 27.951C23.7461 27.951 23.9787 28.1261 24.0329 28.4762C24.0456 28.5551 24.052 28.6607 24.052 28.7932V30.5202H23.4545V28.8689C23.4545 28.7711 23.4529 28.7065 23.4497 28.6749C23.4306 28.5204 23.3255 28.4431 23.1343 28.4431C22.9685 28.4431 22.7965 28.5219 22.618 28.6796V30.5202H22.0157V27.9983H22.5607Z" fill="#00AB4E"/>
<path d="M25.6198 30.2836L25.8206 29.7537C26.1233 29.9619 26.4149 30.066 26.6953 30.066C26.8578 30.066 26.9885 30.0297 27.0873 29.9571C27.1893 29.8814 27.2402 29.7647 27.2402 29.607C27.2402 29.4367 27.1861 29.3105 27.0777 29.2285C26.9726 29.1465 26.8005 29.0724 26.5615 29.0061C26.4595 28.9777 26.3735 28.9525 26.3034 28.9304C26.2364 28.9052 26.1584 28.8673 26.0691 28.8169C25.9831 28.7632 25.913 28.7049 25.8588 28.6418C25.8078 28.5787 25.7632 28.4951 25.725 28.391C25.6867 28.2869 25.6676 28.1702 25.6676 28.0409C25.6676 27.7444 25.7712 27.5047 25.9783 27.3217C26.1886 27.1388 26.4579 27.0473 26.7861 27.0473C27.1207 27.0473 27.3741 27.1262 27.5462 27.2839C27.7214 27.4416 27.8361 27.634 27.8903 27.8611L27.3358 28.022C27.2466 27.7066 27.0586 27.5488 26.7718 27.5488C26.6348 27.5488 26.5216 27.5851 26.4324 27.6577C26.3432 27.7302 26.2986 27.8375 26.2986 27.9794C26.2986 28.1308 26.348 28.2412 26.4468 28.3106C26.5487 28.38 26.7113 28.4478 26.9343 28.514C27.2339 28.6024 27.4633 28.7222 27.6226 28.8736C27.7852 29.025 27.8664 29.2443 27.8664 29.5313C27.8664 29.8593 27.7581 30.118 27.5414 30.3073C27.3279 30.4934 27.0443 30.5864 26.6905 30.5864C26.2667 30.5864 25.9098 30.4855 25.6198 30.2836Z" fill="#00AB4E"/>
<path d="M29.7235 27.9983L30.3066 28.0598C30.0422 29.003 29.7729 29.7915 29.4988 30.4255C29.416 30.6179 29.3427 30.7725 29.2789 30.8892C29.2184 31.0091 29.1419 31.1274 29.0495 31.2441C28.9571 31.3608 28.8519 31.4459 28.734 31.4996C28.6193 31.5532 28.4887 31.58 28.3421 31.58C28.0712 31.58 27.821 31.5201 27.5916 31.4002L27.7446 30.9129C27.9644 31.0264 28.1461 31.0832 28.2895 31.0832C28.4265 31.0832 28.5333 31.0343 28.6097 30.9365C28.6894 30.8419 28.7755 30.6747 28.8679 30.435L27.9836 28.0551L28.6193 27.9983L28.9778 29.1197C29.0766 29.4383 29.1499 29.6764 29.1977 29.8341C29.3283 29.4588 29.5036 28.8468 29.7235 27.9983Z" fill="#00AB4E"/>
<path d="M30.7523 28.5046L30.6806 28.0646C30.91 27.9889 31.1729 27.951 31.4693 27.951C31.8198 27.951 32.0684 28.0299 32.215 28.1876C32.3616 28.3421 32.4349 28.626 32.4349 29.0392V29.9287C32.4349 30.0612 32.4827 30.1275 32.5783 30.1275C32.6229 30.1275 32.6739 30.1164 32.7312 30.0943L32.7742 30.4918C32.6532 30.5422 32.5177 30.5675 32.3679 30.5675C32.1385 30.5675 31.9983 30.4713 31.9473 30.2789C31.7402 30.4713 31.4996 30.5675 31.2255 30.5675C30.9802 30.5675 30.7921 30.4934 30.6615 30.3451C30.534 30.1969 30.4703 30.0076 30.4703 29.7773C30.4703 29.1938 30.7985 28.902 31.455 28.902C31.5856 28.902 31.7211 28.9178 31.8613 28.9493V28.8405C31.8613 28.5472 31.694 28.4005 31.3594 28.4005C31.1777 28.4005 30.9754 28.4352 30.7523 28.5046ZM31.8613 29.9051V29.3231C31.7529 29.2853 31.6509 29.2663 31.5553 29.2663C31.2271 29.2663 31.063 29.4193 31.063 29.7253C31.063 29.8483 31.0917 29.9461 31.149 30.0186C31.2064 30.088 31.2909 30.1227 31.4024 30.1227C31.5745 30.1227 31.7274 30.0502 31.8613 29.9051Z" fill="#00AB4E"/>
<path d="M34.31 27.951C34.4853 27.951 34.6335 28.0378 34.7546 28.2112L34.4869 28.6371C34.4104 28.5424 34.3196 28.4951 34.2144 28.4951C34.0551 28.4951 33.9053 28.5677 33.7651 28.7128V30.5202H33.1628V27.9983H33.6982L33.7221 28.2633C33.9006 28.0551 34.0965 27.951 34.31 27.951Z" fill="#00AB4E"/>
<path d="M35.0814 27.9983H35.6789V30.5202H35.0814V27.9983ZM35.0336 27.3407C35.0336 27.2334 35.0654 27.1498 35.1292 27.0899C35.1929 27.03 35.2758 27 35.3777 27C35.4893 27 35.5753 27.03 35.6359 27.0899C35.6964 27.1467 35.7267 27.2303 35.7267 27.3407C35.7267 27.4511 35.6932 27.5362 35.6263 27.5962C35.5626 27.6529 35.4797 27.6813 35.3777 27.6813C35.2726 27.6813 35.1881 27.6514 35.1244 27.5914C35.0639 27.5283 35.0336 27.4448 35.0336 27.3407Z" fill="#00AB4E"/>
<path d="M36.4472 28.5046L36.3755 28.0646C36.605 27.9889 36.8679 27.951 37.1642 27.951C37.5148 27.951 37.7633 28.0299 37.9099 28.1876C38.0565 28.3421 38.1298 28.626 38.1298 29.0392V29.9287C38.1298 30.0612 38.1776 30.1275 38.2732 30.1275C38.3178 30.1275 38.3688 30.1164 38.4262 30.0943L38.4692 30.4918C38.3481 30.5422 38.2126 30.5675 38.0629 30.5675C37.8334 30.5675 37.6932 30.4713 37.6422 30.2789C37.4351 30.4713 37.1945 30.5675 36.9204 30.5675C36.6751 30.5675 36.4871 30.4934 36.3564 30.3451C36.2289 30.1969 36.1652 30.0076 36.1652 29.7773C36.1652 29.1938 36.4934 28.902 37.1499 28.902C37.2805 28.902 37.416 28.9178 37.5562 28.9493V28.8405C37.5562 28.5472 37.3889 28.4005 37.0543 28.4005C36.8727 28.4005 36.6703 28.4352 36.4472 28.5046ZM37.5562 29.9051V29.3231C37.4478 29.2853 37.3459 29.2663 37.2503 29.2663C36.922 29.2663 36.7579 29.4193 36.7579 29.7253C36.7579 29.8483 36.7866 29.9461 36.844 30.0186C36.9013 30.088 36.9858 30.1227 37.0973 30.1227C37.2694 30.1227 37.4224 30.0502 37.5562 29.9051Z" fill="#00AB4E"/>
<path d="M40.1866 27.951C40.4543 27.951 40.6391 28.022 40.7411 28.1639C40.8431 28.3027 40.894 28.5125 40.894 28.7932V30.5202H40.2965V28.8689C40.2965 28.708 40.2742 28.5976 40.2296 28.5377C40.1882 28.4746 40.1038 28.4431 39.9763 28.4431C39.8106 28.4431 39.6385 28.5219 39.46 28.6796V30.5202H38.8578V27.1183H39.46V28.2207C39.6831 28.0409 39.9253 27.951 40.1866 27.951Z" fill="#00AB4E"/>
<path d="M42.798 30.5202V27.1183H43.8968C44.3267 27.1183 44.6627 27.2366 44.9048 27.4731C45.1468 27.7097 45.2679 28.1087 45.2679 28.6702C45.2679 28.9604 45.2408 29.2159 45.1866 29.4367C45.1357 29.6543 45.0656 29.831 44.9764 29.9666C44.8905 30.1022 44.7822 30.2126 44.6516 30.2978C44.521 30.383 44.3857 30.4413 44.2455 30.4729C44.1054 30.5044 43.9478 30.5202 43.7726 30.5202H42.798ZM43.4095 27.5772V30.0612H43.8108C44.0879 30.0612 44.2917 29.9587 44.4223 29.7537C44.5561 29.5487 44.6229 29.2127 44.6229 28.7459C44.6229 28.3264 44.5624 28.0267 44.4414 27.8469C44.3204 27.6671 44.1309 27.5772 43.8729 27.5772H43.4095Z" fill="#BFD730"/>
<path d="M45.8195 27.9983H46.4167V30.5202H45.8195V27.9983ZM45.7718 27.3407C45.7718 27.2334 45.8036 27.1498 45.8673 27.0899C45.931 27.03 46.0138 27 46.1157 27C46.2272 27 46.3132 27.03 46.3737 27.0899C46.4342 27.1467 46.4645 27.2303 46.4645 27.3407C46.4645 27.4511 46.431 27.5362 46.3642 27.5962C46.3005 27.6529 46.2176 27.6813 46.1157 27.6813C46.0106 27.6813 45.9262 27.6514 45.8625 27.5914C45.802 27.5283 45.7718 27.4448 45.7718 27.3407Z" fill="#BFD730"/>
<path d="M48.4649 28.1592L48.4888 27.9983H49.0238V30.4823C49.0238 31.2141 48.6831 31.58 48.0015 31.58C47.6607 31.58 47.363 31.5185 47.1082 31.3955L47.1989 30.8798C47.2977 30.9397 47.4171 30.9886 47.5572 31.0264C47.7005 31.0674 47.8327 31.0879 47.9537 31.0879C48.2818 31.0879 48.4458 30.8766 48.4458 30.4539V30.3025C48.2897 30.4697 48.0891 30.5533 47.8439 30.5533C47.5668 30.5533 47.3454 30.4476 47.1798 30.2363C47.0174 30.0218 46.9362 29.7032 46.9362 29.2805C46.9362 29.0471 46.9664 28.8342 47.027 28.6418C47.0906 28.4494 47.1957 28.2869 47.3422 28.1545C47.4919 28.0188 47.6735 27.951 47.8869 27.951C48.1002 27.951 48.2929 28.0204 48.4649 28.1592ZM48.4267 29.8909V28.5708C48.277 28.4636 48.1432 28.41 48.0254 28.41C47.7133 28.41 47.5572 28.7033 47.5572 29.29C47.5572 29.8199 47.7085 30.0849 48.0111 30.0849C48.1576 30.0849 48.2961 30.0202 48.4267 29.8909Z" fill="#BFD730"/>
<path d="M49.673 27.9983H50.2702V30.5202H49.673V27.9983ZM49.6253 27.3407C49.6253 27.2334 49.6571 27.1498 49.7208 27.0899C49.7845 27.03 49.8673 27 49.9692 27C50.0807 27 50.1667 27.03 50.2272 27.0899C50.2877 27.1467 50.318 27.2303 50.318 27.3407C50.318 27.4511 50.2845 27.5362 50.2176 27.5962C50.154 27.6529 50.0711 27.6813 49.9692 27.6813C49.8641 27.6813 49.7797 27.6514 49.716 27.5914C49.6555 27.5283 49.6253 27.4448 49.6253 27.3407Z" fill="#BFD730"/>
<path d="M52.1369 28.4242H51.5636V29.7158C51.5636 29.7915 51.5668 29.853 51.5731 29.9004C51.5827 29.9477 51.605 29.9902 51.64 30.0281C51.6782 30.066 51.7308 30.0849 51.7977 30.0849C51.8837 30.0849 51.9919 30.0549 52.1225 29.995L52.1894 30.4492C52.0142 30.5312 51.8263 30.5722 51.6257 30.5722C51.183 30.5722 50.9617 30.3419 50.9617 29.8814V28.4242H50.632V27.9983H50.9617V27.5772L51.5636 27.2886V27.9983H52.1369V28.4242Z" fill="#BFD730"/>
<path d="M52.7269 28.5046L52.6553 28.0646C52.8846 27.9889 53.1473 27.951 53.4435 27.951C53.7938 27.951 54.0422 28.0299 54.1887 28.1876C54.3352 28.3421 54.4085 28.626 54.4085 29.0392V29.9287C54.4085 30.0612 54.4563 30.1275 54.5518 30.1275C54.5964 30.1275 54.6474 30.1164 54.7047 30.0943L54.7477 30.4918C54.6267 30.5422 54.4913 30.5675 54.3416 30.5675C54.1123 30.5675 53.9722 30.4713 53.9212 30.2789C53.7142 30.4713 53.4738 30.5675 53.1999 30.5675C52.9546 30.5675 52.7667 30.4934 52.6361 30.3451C52.5088 30.1969 52.4451 30.0076 52.4451 29.7773C52.4451 29.1938 52.7731 28.902 53.4292 28.902C53.5597 28.902 53.6951 28.9178 53.8352 28.9493V28.8405C53.8352 28.5472 53.668 28.4005 53.3336 28.4005C53.1521 28.4005 52.9499 28.4352 52.7269 28.5046ZM53.8352 29.9051V29.3231C53.7269 29.2853 53.625 29.2663 53.5295 29.2663C53.2015 29.2663 53.0374 29.4193 53.0374 29.7253C53.0374 29.8483 53.0661 29.9461 53.1234 30.0186C53.1808 30.088 53.2652 30.1227 53.3766 30.1227C53.5486 30.1227 53.7015 30.0502 53.8352 29.9051Z" fill="#BFD730"/>
<path d="M55.0655 29.8436V27.1183H55.6627V29.7584C55.6627 29.872 55.6802 29.954 55.7152 30.0044C55.7534 30.0549 55.8155 30.0801 55.9015 30.0801C56.0003 30.0801 56.1085 30.0518 56.2264 29.995L56.298 30.4492C56.1261 30.5312 55.9382 30.5722 55.7343 30.5722C55.4859 30.5722 55.3123 30.5107 55.2136 30.3877C55.1149 30.2615 55.0655 30.0801 55.0655 29.8436Z" fill="#BFD730"/>
</svg>
