<svg width="240" height="48" viewBox="0 0 240 48" fill="none" xmlns="http://www.w3.org/2000/svg">
<path d="M2.792 10.7191V14.4151H1V4.34915H4.528C5.592 4.34915 6.418 4.59648 7.006 5.09115C7.594 5.58581 7.888 6.30448 7.888 7.24715C7.888 8.30181 7.566 9.14648 6.922 9.78115C6.28733 10.4065 5.42867 10.7191 4.346 10.7191H2.792ZM2.792 9.33315H4.15C4.77533 9.33315 5.24667 9.16981 5.564 8.84315C5.89067 8.50715 6.054 8.02181 6.054 7.38715C6.054 6.27648 5.466 5.72115 4.29 5.72115H2.792V9.33315Z" fill="white"/>
<path d="M14.1077 10.9851H10.1177C10.1271 11.6851 10.2857 12.2218 10.5937 12.5951C10.9017 12.9591 11.3264 13.1411 11.8677 13.1411C12.5304 13.1411 13.1977 12.9545 13.8697 12.5811L13.9677 14.0511C13.3331 14.3965 12.5724 14.5691 11.6857 14.5691C9.45505 14.5691 8.33972 13.2485 8.33972 10.6071C8.33972 9.31915 8.61505 8.36715 9.16572 7.75115C9.72572 7.12581 10.4584 6.81315 11.3637 6.81315C13.1931 6.81315 14.1077 7.97981 14.1077 10.3131V10.9851ZM12.4557 9.89315C12.4557 8.69848 12.0824 8.10115 11.3357 8.10115C10.9344 8.10115 10.6311 8.26915 10.4257 8.60515C10.2297 8.94115 10.1317 9.37048 10.1317 9.89315H12.4557Z" fill="white"/>
<path d="M19.5713 7.42915L19.6413 6.95315H21.2093V14.3031C21.2093 16.4685 20.2107 17.5511 18.2133 17.5511C17.2147 17.5511 16.342 17.3691 15.5953 17.0051L15.8613 15.4791C16.1507 15.6565 16.5007 15.8011 16.9113 15.9131C17.3313 16.0345 17.7187 16.0951 18.0733 16.0951C19.0347 16.0951 19.5153 15.4698 19.5153 14.2191V13.7711C19.058 14.2658 18.47 14.5131 17.7513 14.5131C16.9393 14.5131 16.2907 14.2005 15.8053 13.5751C15.3293 12.9405 15.0913 11.9978 15.0913 10.7471C15.0913 10.0565 15.18 9.42648 15.3573 8.85715C15.544 8.28781 15.852 7.80715 16.2813 7.41515C16.72 7.01381 17.252 6.81315 17.8773 6.81315C18.5027 6.81315 19.0673 7.01848 19.5713 7.42915ZM19.4593 12.5531V8.64715C19.0207 8.32981 18.6287 8.17115 18.2833 8.17115C17.3687 8.17115 16.9113 9.03915 16.9113 10.7751C16.9113 12.3431 17.3547 13.1271 18.2413 13.1271C18.6707 13.1271 19.0767 12.9358 19.4593 12.5531Z" fill="white"/>
<path d="M23.3639 8.45115L23.1539 7.14915C23.8259 6.92515 24.5959 6.81315 25.4639 6.81315C26.4906 6.81315 27.2186 7.04648 27.6479 7.51315C28.0772 7.97048 28.2919 8.81048 28.2919 10.0331V12.6651C28.2919 13.0571 28.4319 13.2531 28.7119 13.2531C28.8426 13.2531 28.9919 13.2205 29.1599 13.1551L29.2859 14.3311C28.9312 14.4805 28.5346 14.5551 28.0959 14.5551C27.4239 14.5551 27.0132 14.2705 26.8639 13.7011C26.2572 14.2705 25.5526 14.5551 24.7499 14.5551C24.0312 14.5551 23.4806 14.3358 23.0979 13.8971C22.7246 13.4585 22.5379 12.8985 22.5379 12.2171C22.5379 10.4905 23.4992 9.62715 25.4219 9.62715C25.8046 9.62715 26.2012 9.67381 26.6119 9.76715V9.44515C26.6119 8.57715 26.1219 8.14315 25.1419 8.14315C24.6099 8.14315 24.0172 8.24581 23.3639 8.45115ZM26.6119 12.5951V10.8731C26.2946 10.7611 25.9959 10.7051 25.7159 10.7051C24.7546 10.7051 24.2739 11.1578 24.2739 12.0631C24.2739 12.4271 24.3579 12.7165 24.5259 12.9311C24.6939 13.1365 24.9412 13.2391 25.2679 13.2391C25.7719 13.2391 26.2199 13.0245 26.6119 12.5951Z" fill="white"/>
<path d="M34.1793 7.28915V4.34915H35.9293V14.4151H34.3613L34.3053 13.7571C33.792 14.2891 33.1807 14.5551 32.4713 14.5551C31.6593 14.5551 31.0107 14.2331 30.5253 13.5891C30.0493 12.9451 29.8113 11.9978 29.8113 10.7471C29.8113 10.0565 29.9047 9.42648 30.0913 8.85715C30.278 8.27848 30.5907 7.79315 31.0293 7.40114C31.468 7.00915 32.0093 6.81315 32.6533 6.81315C33.2133 6.81315 33.722 6.97181 34.1793 7.28915ZM34.1933 12.6091V8.61915C33.7547 8.30181 33.3673 8.14315 33.0313 8.14315C32.098 8.14315 31.6313 9.02048 31.6313 10.7751C31.6313 11.5591 31.748 12.1565 31.9813 12.5671C32.2147 12.9778 32.546 13.1831 32.9753 13.1831C33.4047 13.1831 33.8107 12.9918 34.1933 12.6091Z" fill="white"/>
<path d="M38.0839 8.45115L37.8739 7.14915C38.5459 6.92515 39.3159 6.81315 40.1839 6.81315C41.2106 6.81315 41.9386 7.04648 42.3679 7.51315C42.7973 7.97048 43.0119 8.81048 43.0119 10.0331V12.6651C43.0119 13.0571 43.1519 13.2531 43.4319 13.2531C43.5626 13.2531 43.7119 13.2205 43.8799 13.1551L44.0059 14.3311C43.6513 14.4805 43.2546 14.5551 42.8159 14.5551C42.1439 14.5551 41.7333 14.2705 41.5839 13.7011C40.9773 14.2705 40.2726 14.5551 39.4699 14.5551C38.7513 14.5551 38.2006 14.3358 37.8179 13.8971C37.4446 13.4585 37.2579 12.8985 37.2579 12.2171C37.2579 10.4905 38.2193 9.62715 40.1419 9.62715C40.5246 9.62715 40.9213 9.67381 41.3319 9.76715V9.44515C41.3319 8.57715 40.8419 8.14315 39.8619 8.14315C39.3299 8.14315 38.7373 8.24581 38.0839 8.45115ZM41.3319 12.5951V10.8731C41.0146 10.7611 40.7159 10.7051 40.4359 10.7051C39.4746 10.7051 38.9939 11.1578 38.9939 12.0631C38.9939 12.4271 39.0779 12.7165 39.2459 12.9311C39.4139 13.1365 39.6613 13.2391 39.9879 13.2391C40.4919 13.2391 40.9399 13.0245 41.3319 12.5951Z" fill="white"/>
<path d="M45.0461 6.95315H46.7961V14.4151H45.0461V6.95315ZM44.9061 5.00715C44.9061 4.68981 44.9994 4.44248 45.1861 4.26515C45.3727 4.08781 45.6154 3.99915 45.9141 3.99915C46.2407 3.99915 46.4927 4.08781 46.6701 4.26515C46.8474 4.43315 46.9361 4.68048 46.9361 5.00715C46.9361 5.33381 46.8381 5.58581 46.6421 5.76315C46.4554 5.93115 46.2127 6.01515 45.9141 6.01515C45.6061 6.01515 45.3587 5.92648 45.1721 5.74915C44.9947 5.56248 44.9061 5.31515 44.9061 5.00715Z" fill="white"/>
<path d="M48.9485 8.45115L48.7385 7.14915C49.4105 6.92515 50.1805 6.81315 51.0485 6.81315C52.0751 6.81315 52.8031 7.04648 53.2325 7.51315C53.6618 7.97048 53.8765 8.81048 53.8765 10.0331V12.6651C53.8765 13.0571 54.0165 13.2531 54.2965 13.2531C54.4271 13.2531 54.5765 13.2205 54.7445 13.1551L54.8705 14.3311C54.5158 14.4805 54.1191 14.5551 53.6805 14.5551C53.0085 14.5551 52.5978 14.2705 52.4485 13.7011C51.8418 14.2705 51.1371 14.5551 50.3345 14.5551C49.6158 14.5551 49.0651 14.3358 48.6825 13.8971C48.3091 13.4585 48.1225 12.8985 48.1225 12.2171C48.1225 10.4905 49.0838 9.62715 51.0065 9.62715C51.3891 9.62715 51.7858 9.67381 52.1965 9.76715V9.44515C52.1965 8.57715 51.7065 8.14315 50.7265 8.14315C50.1945 8.14315 49.6018 8.24581 48.9485 8.45115ZM52.1965 12.5951V10.8731C51.8791 10.7611 51.5805 10.7051 51.3005 10.7051C50.3391 10.7051 49.8585 11.1578 49.8585 12.0631C49.8585 12.4271 49.9425 12.7165 50.1105 12.9311C50.2785 13.1365 50.5258 13.2391 50.8525 13.2391C51.3565 13.2391 51.8045 13.0245 52.1965 12.5951Z" fill="white"/>
<path d="M57.5066 6.95315L57.5626 7.69515C58.2346 7.10715 58.972 6.81315 59.7746 6.81315C60.9786 6.81315 61.66 7.33115 61.8186 8.36715C61.856 8.60048 61.8746 8.91315 61.8746 9.30515V14.4151H60.1246V9.52915C60.1246 9.23981 60.12 9.04848 60.1106 8.95515C60.0546 8.49781 59.7466 8.26915 59.1866 8.26915C58.7013 8.26915 58.1973 8.50248 57.6746 8.96915V14.4151H55.9106V6.95315H57.5066Z" fill="white"/>
<path d="M66.2705 13.7151L66.8585 12.1471C67.7452 12.7631 68.5992 13.0711 69.4205 13.0711C69.8965 13.0711 70.2792 12.9638 70.5685 12.7491C70.8672 12.5251 71.0165 12.1798 71.0165 11.7131C71.0165 11.2091 70.8578 10.8358 70.5405 10.5931C70.2325 10.3505 69.7285 10.1311 69.0285 9.93515C68.7298 9.85115 68.4778 9.77648 68.2725 9.71115C68.0765 9.63648 67.8478 9.52448 67.5865 9.37515C67.3345 9.21648 67.1292 9.04381 66.9705 8.85715C66.8212 8.67048 66.6905 8.42315 66.5785 8.11515C66.4665 7.80715 66.4105 7.46181 66.4105 7.07915C66.4105 6.20181 66.7138 5.49248 67.3205 4.95115C67.9365 4.40981 68.7252 4.13915 69.6865 4.13915C70.6665 4.13915 71.4085 4.37248 71.9125 4.83915C72.4258 5.30581 72.7618 5.87515 72.9205 6.54715L71.2965 7.02315C71.0352 6.08981 70.4845 5.62315 69.6445 5.62315C69.2432 5.62315 68.9118 5.73048 68.6505 5.94515C68.3892 6.15981 68.2585 6.47715 68.2585 6.89715C68.2585 7.34515 68.4032 7.67181 68.6925 7.87715C68.9912 8.08248 69.4672 8.28315 70.1205 8.47915C70.9978 8.74048 71.6698 9.09515 72.1365 9.54315C72.6125 9.99115 72.8505 10.6398 72.8505 11.4891C72.8505 12.4598 72.5332 13.2251 71.8985 13.7851C71.2732 14.3358 70.4425 14.6111 69.4065 14.6111C68.1652 14.6111 67.1198 14.3125 66.2705 13.7151Z" fill="white"/>
<path d="M78.1916 6.95315L79.8996 7.13515C79.125 9.92581 78.3363 12.2591 77.5336 14.1351C77.291 14.7045 77.0763 15.1618 76.8896 15.5071C76.7123 15.8618 76.4883 16.2118 76.2176 16.5571C75.947 16.9025 75.639 17.1545 75.2936 17.3131C74.9576 17.4718 74.575 17.5511 74.1456 17.5511C73.3523 17.5511 72.6196 17.3738 71.9476 17.0191L72.3956 15.5771C73.0396 15.9131 73.5716 16.0811 73.9916 16.0811C74.393 16.0811 74.7056 15.9365 74.9296 15.6471C75.1629 15.3671 75.415 14.8725 75.6856 14.1631L73.0956 7.12115L74.9576 6.95315L76.0076 10.2711C76.297 11.2138 76.5116 11.9185 76.6516 12.3851C77.0343 11.2745 77.5476 9.46381 78.1916 6.95315Z" fill="white"/>
<path d="M81.1069 8.45115L80.8969 7.14915C81.5689 6.92515 82.3389 6.81315 83.2069 6.81315C84.2336 6.81315 84.9616 7.04648 85.3909 7.51315C85.8202 7.97048 86.0349 8.81048 86.0349 10.0331V12.6651C86.0349 13.0571 86.1749 13.2531 86.4549 13.2531C86.5856 13.2531 86.7349 13.2205 86.9029 13.1551L87.0289 14.3311C86.6742 14.4805 86.2776 14.5551 85.8389 14.5551C85.1669 14.5551 84.7562 14.2705 84.6069 13.7011C84.0002 14.2705 83.2956 14.5551 82.4929 14.5551C81.7742 14.5551 81.2236 14.3358 80.8409 13.8971C80.4676 13.4585 80.2809 12.8985 80.2809 12.2171C80.2809 10.4905 81.2422 9.62715 83.1649 9.62715C83.5476 9.62715 83.9442 9.67381 84.3549 9.76715V9.44515C84.3549 8.57715 83.8649 8.14315 82.8849 8.14315C82.3529 8.14315 81.7602 8.24581 81.1069 8.45115ZM84.3549 12.5951V10.8731C84.0376 10.7611 83.7389 10.7051 83.4589 10.7051C82.4976 10.7051 82.0169 11.1578 82.0169 12.0631C82.0169 12.4271 82.1009 12.7165 82.2689 12.9311C82.4369 13.1365 82.6842 13.2391 83.0109 13.2391C83.5149 13.2391 83.9629 13.0245 84.3549 12.5951Z" fill="white"/>
<path d="M91.4291 6.81315C91.9424 6.81315 92.3764 7.06981 92.7311 7.58315L91.9471 8.84315C91.7231 8.56315 91.4571 8.42315 91.1491 8.42315C90.6824 8.42315 90.2437 8.63781 89.8331 9.06715V14.4151H88.0691V6.95315H89.6371L89.7071 7.73715C90.2297 7.12115 90.8037 6.81315 91.4291 6.81315Z" fill="white"/>
<path d="M93.5902 6.95315H95.3402V14.4151H93.5902V6.95315ZM93.4502 5.00715C93.4502 4.68981 93.5435 4.44248 93.7302 4.26515C93.9169 4.08781 94.1595 3.99915 94.4582 3.99915C94.7849 3.99915 95.0369 4.08781 95.2142 4.26515C95.3915 4.43315 95.4802 4.68048 95.4802 5.00715C95.4802 5.33381 95.3822 5.58581 95.1862 5.76315C94.9995 5.93115 94.7569 6.01515 94.4582 6.01515C94.1502 6.01515 93.9029 5.92648 93.7162 5.74915C93.5389 5.56248 93.4502 5.31515 93.4502 5.00715Z" fill="white"/>
<path d="M97.4926 8.45115L97.2826 7.14915C97.9546 6.92515 98.7246 6.81315 99.5926 6.81315C100.619 6.81315 101.347 7.04648 101.777 7.51315C102.206 7.97048 102.421 8.81048 102.421 10.0331V12.6651C102.421 13.0571 102.561 13.2531 102.841 13.2531C102.971 13.2531 103.121 13.2205 103.289 13.1551L103.415 14.3311C103.06 14.4805 102.663 14.5551 102.225 14.5551C101.553 14.5551 101.142 14.2705 100.993 13.7011C100.386 14.2705 99.6813 14.5551 98.8786 14.5551C98.1599 14.5551 97.6093 14.3358 97.2266 13.8971C96.8533 13.4585 96.6666 12.8985 96.6666 12.2171C96.6666 10.4905 97.6279 9.62715 99.5506 9.62715C99.9333 9.62715 100.33 9.67381 100.741 9.76715V9.44515C100.741 8.57715 100.251 8.14315 99.2706 8.14315C98.7386 8.14315 98.1459 8.24581 97.4926 8.45115ZM100.741 12.5951V10.8731C100.423 10.7611 100.125 10.7051 99.8446 10.7051C98.8833 10.7051 98.4026 11.1578 98.4026 12.0631C98.4026 12.4271 98.4866 12.7165 98.6546 12.9311C98.8226 13.1365 99.0699 13.2391 99.3966 13.2391C99.9006 13.2391 100.349 13.0245 100.741 12.5951Z" fill="white"/>
<path d="M108.347 6.81315C109.131 6.81315 109.672 7.02315 109.971 7.44315C110.269 7.85381 110.419 8.47448 110.419 9.30515V14.4151H108.669V9.52915C108.669 9.05315 108.603 8.72648 108.473 8.54915C108.351 8.36248 108.104 8.26915 107.731 8.26915C107.245 8.26915 106.741 8.50248 106.219 8.96915V14.4151H104.455V4.34915H106.219V7.61115C106.872 7.07915 107.581 6.81315 108.347 6.81315Z" fill="white"/>
<path d="M9.21198 36.2451C10.6506 36.2451 12.1326 35.8031 13.658 34.9191L14.282 37.7011C12.67 38.6198 10.8153 39.0791 8.71798 39.0791C7.55664 39.0791 6.51664 38.8971 5.59798 38.5331C4.69664 38.1518 3.96864 37.6664 3.41398 37.0771C2.85931 36.4704 2.40864 35.7424 2.06198 34.8931C1.71531 34.0264 1.47264 33.1598 1.33398 32.2931C1.19531 31.4264 1.12598 30.4991 1.12598 29.5111C1.12598 28.1591 1.23864 26.9371 1.46398 25.8451C1.68931 24.7358 2.05331 23.6958 2.55598 22.7251C3.07598 21.7544 3.82131 21.0004 4.79198 20.4631C5.77998 19.9084 6.95864 19.6311 8.32798 19.6311C11.8293 19.6311 13.9093 21.2864 14.568 24.5971L11.396 25.3771C11.1706 24.3891 10.824 23.6264 10.356 23.0891C9.88798 22.5518 9.21198 22.2831 8.32798 22.2831C5.86664 22.2831 4.63598 24.6318 4.63598 29.3291C4.63598 31.6171 4.99131 33.3418 5.70198 34.5031C6.42998 35.6644 7.59998 36.2451 9.21198 36.2451Z" fill="#72BF44"/>
<path d="M16.7225 24.8571H19.9725V38.7151H16.7225V24.8571ZM16.4625 21.2431C16.4625 20.6538 16.6359 20.1944 16.9825 19.8651C17.3292 19.5358 17.7799 19.3711 18.3345 19.3711C18.9412 19.3711 19.4092 19.5358 19.7385 19.8651C20.0679 20.1771 20.2325 20.6364 20.2325 21.2431C20.2325 21.8498 20.0505 22.3178 19.6865 22.6471C19.3399 22.9591 18.8892 23.1151 18.3345 23.1151C17.7625 23.1151 17.3032 22.9504 16.9565 22.6211C16.6272 22.2744 16.4625 21.8151 16.4625 21.2431Z" fill="#72BF44"/>
<path d="M29.1178 36.3231C30.2272 36.3231 31.3712 36.0198 32.5498 35.4131L32.8098 38.0911C31.5272 38.7151 30.1578 39.0271 28.7018 39.0271C27.5405 39.0271 26.5352 38.8191 25.6858 38.4031C24.8538 37.9698 24.2212 37.3978 23.7878 36.6871C23.3718 35.9591 23.0685 35.1964 22.8778 34.3991C22.6872 33.6018 22.5918 32.7438 22.5918 31.8251C22.5918 30.8544 22.6872 29.9618 22.8778 29.1471C23.0685 28.3151 23.3718 27.5524 23.7878 26.8591C24.2212 26.1484 24.8278 25.5938 25.6078 25.1951C26.4052 24.7964 27.3412 24.5971 28.4158 24.5971C29.8198 24.5971 30.9032 24.9611 31.6658 25.6891C32.4458 26.3998 32.9485 27.3358 33.1738 28.4971L30.4698 29.3811C30.2965 28.7051 30.0452 28.1764 29.7158 27.7951C29.4038 27.3964 28.9358 27.1971 28.3118 27.1971C26.7345 27.1971 25.9458 28.6878 25.9458 31.6691C25.9458 34.7718 27.0032 36.3231 29.1178 36.3231Z" fill="#72BF44"/>
<path d="M35.121 24.8571H38.371V38.7151H35.121V24.8571ZM34.861 21.2431C34.861 20.6538 35.0343 20.1944 35.381 19.8651C35.7276 19.5358 36.1783 19.3711 36.733 19.3711C37.3396 19.3711 37.8076 19.5358 38.137 19.8651C38.4663 20.1771 38.631 20.6364 38.631 21.2431C38.631 21.8498 38.449 22.3178 38.085 22.6471C37.7383 22.9591 37.2876 23.1151 36.733 23.1151C36.161 23.1151 35.7016 22.9504 35.355 22.6211C35.0256 22.2744 34.861 21.8151 34.861 21.2431Z" fill="#72BF44"/>
<path d="M41.5623 34.9971V20.0211H44.8123V34.5291C44.8123 35.1531 44.9076 35.6038 45.0983 35.8811C45.3063 36.1584 45.6443 36.2971 46.1123 36.2971C46.6496 36.2971 47.2389 36.1411 47.8803 35.8291L48.2703 38.3251C47.3343 38.7758 46.3116 39.0011 45.2023 39.0011C43.8503 39.0011 42.9056 38.6631 42.3683 37.9871C41.8309 37.2938 41.5623 36.2971 41.5623 34.9971Z" fill="#72BF44"/>
<path d="M61.112 25.0542L57.597 31.5142L61.397 38.7152H59.915L56.457 32.1982H54.044V38.7152H52.733V25.0352H54.044V31.0202H56.514L59.744 25.0542H61.112Z" fill="#72BF44"/>
<path d="M69.5606 33.8322H63.7656C63.7656 36.4922 64.7156 37.8222 66.6156 37.8222C67.4896 37.8222 68.3826 37.5815 69.2946 37.1002L69.4086 38.2402C68.56 38.7088 67.5783 38.9432 66.4636 38.9432C63.791 38.9432 62.4546 37.1635 62.4546 33.6042C62.4546 31.8435 62.7903 30.5515 63.4616 29.7282C64.133 28.8922 65.0576 28.4742 66.2356 28.4742C67.3883 28.4742 68.2306 28.8732 68.7626 29.6712C69.2946 30.4565 69.5606 31.6218 69.5606 33.1672V33.8322ZM68.2496 32.8252C68.2496 31.7612 68.066 30.9568 67.6987 30.4122C67.344 29.8548 66.831 29.5762 66.1596 29.5762C65.387 29.5762 64.798 29.9055 64.3926 30.5642C63.9873 31.2102 63.7846 31.9638 63.7846 32.8252H68.2496Z" fill="#72BF44"/>
<path d="M76.6954 28.4742C78.2028 28.4742 79.0831 29.1328 79.3364 30.4502C79.3744 30.6655 79.3934 31.0772 79.3934 31.6852V38.7152H78.1394V31.8562C78.1394 31.4128 78.1204 31.0708 78.0824 30.8302C77.9304 30.0322 77.3478 29.6332 76.3344 29.6332C75.4098 29.6332 74.4344 30.1208 73.4084 31.0962V38.7152H72.1354V28.6832H73.4084V29.9372C74.4851 28.9618 75.5808 28.4742 76.6954 28.4742Z" fill="#72BF44"/>
<path d="M85.753 28.4742C86.475 28.4742 87.2666 28.7655 88.128 29.3482V25.0542H89.401V38.7152H88.204V37.6702C87.3553 38.4935 86.456 38.9052 85.506 38.9052C84.4546 38.9052 83.6186 38.4808 82.998 37.6322C82.3773 36.7835 82.067 35.5232 82.067 33.8512C82.067 33.1798 82.1303 32.5465 82.257 31.9512C82.3963 31.3432 82.599 30.7732 82.865 30.2412C83.1436 29.6965 83.53 29.2658 84.024 28.9492C84.518 28.6325 85.0943 28.4742 85.753 28.4742ZM83.397 33.9272C83.397 35.1558 83.6123 36.1058 84.043 36.7772C84.4736 37.4485 85.0373 37.7842 85.734 37.7842C86.608 37.7842 87.4123 37.3535 88.147 36.4922V30.6022C87.2983 29.9435 86.5383 29.6142 85.867 29.6142C84.2203 29.6142 83.397 31.0518 83.397 33.9272Z" fill="#72BF44"/>
<path d="M92.8655 29.9372L92.7325 28.8162C93.5558 28.5882 94.5122 28.4742 95.6015 28.4742C97.7042 28.4742 98.7555 29.5128 98.7555 31.5902V36.9672C98.7555 37.2712 98.8062 37.4865 98.9075 37.6132C99.0215 37.7398 99.2052 37.8032 99.4585 37.8032C99.6612 37.8032 99.9335 37.7398 100.275 37.6132L100.389 38.6582C99.8702 38.8228 99.4522 38.9052 99.1355 38.9052C98.6922 38.9052 98.3375 38.7912 98.0715 38.5632C97.8055 38.3225 97.6535 38.0312 97.6155 37.6892C96.7035 38.4998 95.7408 38.9052 94.7275 38.9052C93.8028 38.9052 93.0998 38.6138 92.6185 38.0312C92.1371 37.4485 91.8965 36.7075 91.8965 35.8082C91.8965 34.6302 92.2322 33.7625 92.9035 33.2052C93.5875 32.6352 94.5375 32.3502 95.7535 32.3502C96.3615 32.3502 96.9441 32.4135 97.5015 32.5402V31.8182C97.5015 31.0328 97.3305 30.4628 96.9885 30.1082C96.6465 29.7535 96.0512 29.5762 95.2025 29.5762C94.4045 29.5762 93.6255 29.6965 92.8655 29.9372ZM97.5015 36.6822L97.5205 33.5282C96.9632 33.3888 96.4438 33.3192 95.9625 33.3192C95.0505 33.3192 94.3665 33.5092 93.9105 33.8892C93.4672 34.2692 93.2455 34.8962 93.2455 35.7702C93.2455 36.3528 93.3912 36.8342 93.6825 37.2142C93.9865 37.5942 94.4298 37.7842 95.0125 37.7842C95.8865 37.7842 96.7162 37.4168 97.5015 36.6822Z" fill="#72BF44"/>
<path d="M105.971 28.4742C106.883 28.4742 107.523 28.9935 107.89 30.0322L106.845 30.6022C106.693 30.2728 106.535 30.0385 106.37 29.8992C106.206 29.7472 105.965 29.6712 105.648 29.6712C105.053 29.6712 104.375 30.1082 103.615 30.9822V38.7152H102.342V28.6832H103.539V29.8042C104.35 28.9175 105.161 28.4742 105.971 28.4742Z" fill="#72BF44"/>
<path d="M109.528 29.9372L109.395 28.8162C110.218 28.5882 111.174 28.4742 112.264 28.4742C114.366 28.4742 115.418 29.5128 115.418 31.5902V36.9672C115.418 37.2712 115.468 37.4865 115.57 37.6132C115.684 37.7398 115.867 37.8032 116.121 37.8032C116.323 37.8032 116.596 37.7398 116.938 37.6132L117.052 38.6582C116.532 38.8228 116.114 38.9052 115.798 38.9052C115.354 38.9052 115 38.7912 114.734 38.5632C114.468 38.3225 114.316 38.0312 114.278 37.6892C113.366 38.4998 112.403 38.9052 111.39 38.9052C110.465 38.9052 109.762 38.6138 109.281 38.0312C108.799 37.4485 108.559 36.7075 108.559 35.8082C108.559 34.6302 108.894 33.7625 109.566 33.2052C110.25 32.6352 111.2 32.3502 112.416 32.3502C113.024 32.3502 113.606 32.4135 114.164 32.5402V31.8182C114.164 31.0328 113.993 30.4628 113.651 30.1082C113.309 29.7535 112.713 29.5762 111.865 29.5762C111.067 29.5762 110.288 29.6965 109.528 29.9372ZM114.164 36.6822L114.183 33.5282C113.625 33.3888 113.106 33.3192 112.625 33.3192C111.713 33.3192 111.029 33.5092 110.573 33.8892C110.129 34.2692 109.908 34.8962 109.908 35.7702C109.908 36.3528 110.053 36.8342 110.345 37.2142C110.649 37.5942 111.092 37.7842 111.675 37.7842C112.549 37.7842 113.378 37.4168 114.164 36.6822Z" fill="#72BF44"/>
<path d="M119.195 29.9372L119.062 28.8162C119.885 28.5882 120.841 28.4742 121.931 28.4742C124.033 28.4742 125.085 29.5128 125.085 31.5902V36.9672C125.085 37.2712 125.135 37.4865 125.237 37.6132C125.351 37.7398 125.534 37.8032 125.788 37.8032C125.99 37.8032 126.263 37.7398 126.605 37.6132L126.719 38.6582C126.199 38.8228 125.781 38.9052 125.465 38.9052C125.021 38.9052 124.667 38.7912 124.401 38.5632C124.135 38.3225 123.983 38.0312 123.945 37.6892C123.033 38.4998 122.07 38.9052 121.057 38.9052C120.132 38.9052 119.429 38.6138 118.948 38.0312C118.466 37.4485 118.226 36.7075 118.226 35.8082C118.226 34.6302 118.561 33.7625 119.233 33.2052C119.917 32.6352 120.867 32.3502 122.083 32.3502C122.691 32.3502 123.273 32.4135 123.831 32.5402V31.8182C123.831 31.0328 123.66 30.4628 123.318 30.1082C122.976 29.7535 122.38 29.5762 121.532 29.5762C120.734 29.5762 119.955 29.6965 119.195 29.9372ZM123.831 36.6822L123.85 33.5282C123.292 33.3888 122.773 33.3192 122.292 33.3192C121.38 33.3192 120.696 33.5092 120.24 33.8892C119.796 34.2692 119.575 34.8962 119.575 35.7702C119.575 36.3528 119.72 36.8342 120.012 37.2142C120.316 37.5942 120.759 37.7842 121.342 37.7842C122.216 37.7842 123.045 37.4168 123.831 36.6822Z" fill="#72BF44"/>
<path d="M133.232 28.4742C134.739 28.4742 135.619 29.1328 135.873 30.4502C135.911 30.6655 135.93 31.0772 135.93 31.6852V38.7152H134.676V31.8562C134.676 31.4128 134.657 31.0708 134.619 30.8302C134.467 30.0322 133.884 29.6332 132.871 29.6332C131.946 29.6332 130.971 30.1208 129.945 31.0962V38.7152H128.672V28.6832H129.945V29.9372C131.021 28.9618 132.117 28.4742 133.232 28.4742Z" fill="#72BF44"/>
</svg>
