<svg width="240" height="48" viewBox="0 0 240 48" fill="none" xmlns="http://www.w3.org/2000/svg">
<path d="M2.792 10.7243V14.4203H1V4.35427H4.528C5.592 4.35427 6.418 4.60161 7.006 5.09627C7.594 5.59094 7.888 6.30961 7.888 7.25227C7.888 8.30694 7.566 9.15161 6.922 9.78627C6.28733 10.4116 5.42867 10.7243 4.346 10.7243H2.792ZM2.792 9.33827H4.15C4.77533 9.33827 5.24667 9.17494 5.564 8.84827C5.89067 8.51227 6.054 8.02694 6.054 7.39227C6.054 6.28161 5.466 5.72627 4.29 5.72627H2.792V9.33827Z" fill="white"/>
<path d="M14.1077 10.9903H10.1177C10.1271 11.6903 10.2857 12.2269 10.5937 12.6003C10.9017 12.9643 11.3264 13.1463 11.8677 13.1463C12.5304 13.1463 13.1977 12.9596 13.8697 12.5863L13.9677 14.0563C13.3331 14.4016 12.5724 14.5743 11.6857 14.5743C9.45505 14.5743 8.33972 13.2536 8.33972 10.6123C8.33972 9.32427 8.61505 8.37227 9.16572 7.75627C9.72572 7.13094 10.4584 6.81827 11.3637 6.81827C13.1931 6.81827 14.1077 7.98494 14.1077 10.3183V10.9903ZM12.4557 9.89827C12.4557 8.70361 12.0824 8.10627 11.3357 8.10627C10.9344 8.10627 10.6311 8.27427 10.4257 8.61027C10.2297 8.94627 10.1317 9.37561 10.1317 9.89827H12.4557Z" fill="white"/>
<path d="M19.5713 7.43427L19.6413 6.95827H21.2093V14.3083C21.2093 16.4736 20.2107 17.5563 18.2133 17.5563C17.2147 17.5563 16.342 17.3743 15.5953 17.0103L15.8613 15.4843C16.1507 15.6616 16.5007 15.8063 16.9113 15.9183C17.3313 16.0396 17.7187 16.1003 18.0733 16.1003C19.0347 16.1003 19.5153 15.4749 19.5153 14.2243V13.7763C19.058 14.2709 18.47 14.5183 17.7513 14.5183C16.9393 14.5183 16.2907 14.2056 15.8053 13.5803C15.3293 12.9456 15.0913 12.0029 15.0913 10.7523C15.0913 10.0616 15.18 9.43161 15.3573 8.86227C15.544 8.29294 15.852 7.81227 16.2813 7.42027C16.72 7.01894 17.252 6.81827 17.8773 6.81827C18.5027 6.81827 19.0673 7.02361 19.5713 7.43427ZM19.4593 12.5583V8.65227C19.0207 8.33494 18.6287 8.17627 18.2833 8.17627C17.3687 8.17627 16.9113 9.04427 16.9113 10.7803C16.9113 12.3483 17.3547 13.1323 18.2413 13.1323C18.6707 13.1323 19.0767 12.9409 19.4593 12.5583Z" fill="white"/>
<path d="M23.3639 8.45627L23.1539 7.15427C23.8259 6.93027 24.5959 6.81827 25.4639 6.81827C26.4906 6.81827 27.2186 7.05161 27.6479 7.51827C28.0772 7.97561 28.2919 8.81561 28.2919 10.0383V12.6703C28.2919 13.0623 28.4319 13.2583 28.7119 13.2583C28.8426 13.2583 28.9919 13.2256 29.1599 13.1603L29.2859 14.3363C28.9312 14.4856 28.5346 14.5603 28.0959 14.5603C27.4239 14.5603 27.0132 14.2756 26.8639 13.7063C26.2572 14.2756 25.5526 14.5603 24.7499 14.5603C24.0312 14.5603 23.4806 14.3409 23.0979 13.9023C22.7246 13.4636 22.5379 12.9036 22.5379 12.2223C22.5379 10.4956 23.4992 9.63227 25.4219 9.63227C25.8046 9.63227 26.2012 9.67894 26.6119 9.77227V9.45027C26.6119 8.58227 26.1219 8.14827 25.1419 8.14827C24.6099 8.14827 24.0172 8.25094 23.3639 8.45627ZM26.6119 12.6003V10.8783C26.2946 10.7663 25.9959 10.7103 25.7159 10.7103C24.7546 10.7103 24.2739 11.1629 24.2739 12.0683C24.2739 12.4323 24.3579 12.7216 24.5259 12.9363C24.6939 13.1416 24.9412 13.2443 25.2679 13.2443C25.7719 13.2443 26.2199 13.0296 26.6119 12.6003Z" fill="white"/>
<path d="M34.1793 7.29427V4.35427H35.9293V14.4203H34.3613L34.3053 13.7623C33.792 14.2943 33.1807 14.5603 32.4713 14.5603C31.6593 14.5603 31.0107 14.2383 30.5253 13.5943C30.0493 12.9503 29.8113 12.0029 29.8113 10.7523C29.8113 10.0616 29.9047 9.43161 30.0913 8.86227C30.278 8.28361 30.5907 7.79827 31.0293 7.40627C31.468 7.01427 32.0093 6.81827 32.6533 6.81827C33.2133 6.81827 33.722 6.97694 34.1793 7.29427ZM34.1933 12.6143V8.62427C33.7547 8.30694 33.3673 8.14827 33.0313 8.14827C32.098 8.14827 31.6313 9.02561 31.6313 10.7803C31.6313 11.5643 31.748 12.1616 31.9813 12.5723C32.2147 12.9829 32.546 13.1883 32.9753 13.1883C33.4047 13.1883 33.8107 12.9969 34.1933 12.6143Z" fill="white"/>
<path d="M38.0839 8.45627L37.8739 7.15427C38.5459 6.93027 39.3159 6.81827 40.1839 6.81827C41.2106 6.81827 41.9386 7.05161 42.3679 7.51827C42.7973 7.97561 43.0119 8.81561 43.0119 10.0383V12.6703C43.0119 13.0623 43.1519 13.2583 43.4319 13.2583C43.5626 13.2583 43.7119 13.2256 43.8799 13.1603L44.0059 14.3363C43.6513 14.4856 43.2546 14.5603 42.8159 14.5603C42.1439 14.5603 41.7333 14.2756 41.5839 13.7063C40.9773 14.2756 40.2726 14.5603 39.4699 14.5603C38.7513 14.5603 38.2006 14.3409 37.8179 13.9023C37.4446 13.4636 37.2579 12.9036 37.2579 12.2223C37.2579 10.4956 38.2193 9.63227 40.1419 9.63227C40.5246 9.63227 40.9213 9.67894 41.3319 9.77227V9.45027C41.3319 8.58227 40.8419 8.14827 39.8619 8.14827C39.3299 8.14827 38.7373 8.25094 38.0839 8.45627ZM41.3319 12.6003V10.8783C41.0146 10.7663 40.7159 10.7103 40.4359 10.7103C39.4746 10.7103 38.9939 11.1629 38.9939 12.0683C38.9939 12.4323 39.0779 12.7216 39.2459 12.9363C39.4139 13.1416 39.6613 13.2443 39.9879 13.2443C40.4919 13.2443 40.9399 13.0296 41.3319 12.6003Z" fill="white"/>
<path d="M45.0461 6.95827H46.7961V14.4203H45.0461V6.95827ZM44.9061 5.01227C44.9061 4.69494 44.9994 4.44761 45.1861 4.27027C45.3727 4.09294 45.6154 4.00427 45.9141 4.00427C46.2407 4.00427 46.4927 4.09294 46.6701 4.27027C46.8474 4.43827 46.9361 4.68561 46.9361 5.01227C46.9361 5.33894 46.8381 5.59094 46.6421 5.76827C46.4554 5.93627 46.2127 6.02027 45.9141 6.02027C45.6061 6.02027 45.3587 5.93161 45.1721 5.75427C44.9947 5.56761 44.9061 5.32027 44.9061 5.01227Z" fill="white"/>
<path d="M48.9485 8.45627L48.7385 7.15427C49.4105 6.93027 50.1805 6.81827 51.0485 6.81827C52.0751 6.81827 52.8031 7.05161 53.2325 7.51827C53.6618 7.97561 53.8765 8.81561 53.8765 10.0383V12.6703C53.8765 13.0623 54.0165 13.2583 54.2965 13.2583C54.4271 13.2583 54.5765 13.2256 54.7445 13.1603L54.8705 14.3363C54.5158 14.4856 54.1191 14.5603 53.6805 14.5603C53.0085 14.5603 52.5978 14.2756 52.4485 13.7063C51.8418 14.2756 51.1371 14.5603 50.3345 14.5603C49.6158 14.5603 49.0651 14.3409 48.6825 13.9023C48.3091 13.4636 48.1225 12.9036 48.1225 12.2223C48.1225 10.4956 49.0838 9.63227 51.0065 9.63227C51.3891 9.63227 51.7858 9.67894 52.1965 9.77227V9.45027C52.1965 8.58227 51.7065 8.14827 50.7265 8.14827C50.1945 8.14827 49.6018 8.25094 48.9485 8.45627ZM52.1965 12.6003V10.8783C51.8791 10.7663 51.5805 10.7103 51.3005 10.7103C50.3391 10.7103 49.8585 11.1629 49.8585 12.0683C49.8585 12.4323 49.9425 12.7216 50.1105 12.9363C50.2785 13.1416 50.5258 13.2443 50.8525 13.2443C51.3565 13.2443 51.8045 13.0296 52.1965 12.6003Z" fill="white"/>
<path d="M57.5066 6.95827L57.5626 7.70027C58.2346 7.11227 58.972 6.81827 59.7746 6.81827C60.9786 6.81827 61.66 7.33627 61.8186 8.37227C61.856 8.60561 61.8746 8.91827 61.8746 9.31027V14.4203H60.1246V9.53427C60.1246 9.24494 60.12 9.05361 60.1106 8.96027C60.0546 8.50294 59.7466 8.27427 59.1866 8.27427C58.7013 8.27427 58.1973 8.50761 57.6746 8.97427V14.4203H55.9106V6.95827H57.5066Z" fill="white"/>
<path d="M8.35398 31.7522V29.2562H14.958V37.7842C13.138 38.6509 11.1966 39.0842 9.13398 39.0842C6.37798 39.0842 4.34998 38.2782 3.04998 36.6662C1.76731 35.0542 1.12598 32.5149 1.12598 29.0482C1.12598 26.1709 1.72398 23.8829 2.91998 22.1842C4.13331 20.4856 5.99664 19.6362 8.50998 19.6362C10.3646 19.6362 11.7773 20.0696 12.748 20.9362C13.7186 21.7856 14.3686 23.0076 14.698 24.6022L11.604 25.3562C11.3093 24.2989 10.928 23.5276 10.46 23.0422C10.0093 22.5396 9.32464 22.2882 8.40598 22.2882C5.87531 22.2882 4.60998 24.5069 4.60998 28.9442C4.60998 30.1402 4.67064 31.1629 4.79198 32.0122C4.91331 32.8616 5.13864 33.6416 5.46798 34.3522C5.79731 35.0456 6.26531 35.5742 6.87198 35.9382C7.49598 36.2849 8.26731 36.4582 9.18598 36.4582C10.122 36.4582 10.9626 36.3022 11.708 35.9902V31.7522H8.35398Z" fill="#BFD730"/>
<path d="M18.5405 27.6442L18.1505 25.2262C19.3985 24.8102 20.8285 24.6022 22.4405 24.6022C24.3472 24.6022 25.6992 25.0356 26.4965 25.9022C27.2938 26.7516 27.6925 28.3116 27.6925 30.5822V35.4702C27.6925 36.1982 27.9525 36.5622 28.4725 36.5622C28.7152 36.5622 28.9925 36.5016 29.3045 36.3802L29.5385 38.5642C28.8798 38.8416 28.1432 38.9802 27.3285 38.9802C26.0805 38.9802 25.3178 38.4516 25.0405 37.3942C23.9138 38.4516 22.6052 38.9802 21.1145 38.9802C19.7798 38.9802 18.7572 38.5729 18.0465 37.7582C17.3532 36.9436 17.0065 35.9036 17.0065 34.6382C17.0065 31.4316 18.7918 29.8282 22.3625 29.8282C23.0732 29.8282 23.8098 29.9149 24.5725 30.0882V29.4902C24.5725 27.8782 23.6625 27.0722 21.8425 27.0722C20.8545 27.0722 19.7538 27.2629 18.5405 27.6442ZM24.5725 35.3402V32.1422C23.9832 31.9342 23.4285 31.8302 22.9085 31.8302C21.1232 31.8302 20.2305 32.6709 20.2305 34.3522C20.2305 35.0282 20.3865 35.5656 20.6985 35.9642C21.0105 36.3456 21.4698 36.5362 22.0765 36.5362C23.0125 36.5362 23.8445 36.1376 24.5725 35.3402Z" fill="#BFD730"/>
<path d="M38.6003 25.4862V20.0262H41.8503V38.7202H38.9383L38.8343 37.4982C37.881 38.4862 36.7456 38.9802 35.4283 38.9802C33.9203 38.9802 32.7156 38.3822 31.8143 37.1862C30.9303 35.9902 30.4883 34.2309 30.4883 31.9082C30.4883 30.6256 30.6616 29.4556 31.0083 28.3982C31.355 27.3236 31.9356 26.4222 32.7503 25.6942C33.565 24.9662 34.5703 24.6022 35.7663 24.6022C36.8063 24.6022 37.751 24.8969 38.6003 25.4862ZM38.6263 35.3662V27.9562C37.8116 27.3669 37.0923 27.0722 36.4683 27.0722C34.735 27.0722 33.8683 28.7016 33.8683 31.9602C33.8683 33.4162 34.085 34.5256 34.5183 35.2882C34.9516 36.0509 35.567 36.4322 36.3643 36.4322C37.1616 36.4322 37.9156 36.0769 38.6263 35.3662Z" fill="#BFD730"/>
<path d="M45.8257 27.6442L45.4357 25.2262C46.6837 24.8102 48.1137 24.6022 49.7257 24.6022C51.6323 24.6022 52.9843 25.0356 53.7817 25.9022C54.579 26.7516 54.9777 28.3116 54.9777 30.5822V35.4702C54.9777 36.1982 55.2377 36.5622 55.7577 36.5622C56.0003 36.5622 56.2777 36.5016 56.5897 36.3802L56.8237 38.5642C56.165 38.8416 55.4283 38.9802 54.6137 38.9802C53.3657 38.9802 52.603 38.4516 52.3257 37.3942C51.199 38.4516 49.8903 38.9802 48.3997 38.9802C47.065 38.9802 46.0423 38.5729 45.3317 37.7582C44.6383 36.9436 44.2917 35.9036 44.2917 34.6382C44.2917 31.4316 46.077 29.8282 49.6477 29.8282C50.3583 29.8282 51.095 29.9149 51.8577 30.0882V29.4902C51.8577 27.8782 50.9477 27.0722 49.1277 27.0722C48.1397 27.0722 47.039 27.2629 45.8257 27.6442ZM51.8577 35.3402V32.1422C51.2683 31.9342 50.7137 31.8302 50.1937 31.8302C48.4083 31.8302 47.5157 32.6709 47.5157 34.3522C47.5157 35.0282 47.6717 35.5656 47.9837 35.9642C48.2957 36.3456 48.755 36.5362 49.3617 36.5362C50.2977 36.5362 51.1297 36.1376 51.8577 35.3402Z" fill="#BFD730"/>
<path d="M58.7294 24.8622H61.9794V38.7202H58.7294V24.8622ZM58.4694 21.2482C58.4694 20.6589 58.6427 20.1996 58.9894 19.8702C59.3361 19.5409 59.7867 19.3762 60.3414 19.3762C60.9481 19.3762 61.416 19.5409 61.7454 19.8702C62.0747 20.1822 62.2394 20.6416 62.2394 21.2482C62.2394 21.8549 62.0574 22.3229 61.6934 22.6522C61.3467 22.9642 60.896 23.1202 60.3414 23.1202C59.7694 23.1202 59.3101 22.9556 58.9634 22.6262C58.634 22.2796 58.4694 21.8202 58.4694 21.2482Z" fill="#BFD730"/>
<path d="M67.733 38.7202V25.0592H75.067V26.2372H69.044V31.0252H74.288V32.2032H69.044V37.5232H75.314V38.7202H67.733Z" fill="#BFD730"/>
<path d="M82.1769 28.4792C83.3549 28.4792 84.1276 28.9225 84.4949 29.8092C85.5209 28.9225 86.5659 28.4792 87.6299 28.4792C89.1499 28.4792 90.0239 29.1379 90.2519 30.4552C90.3026 30.7465 90.3279 31.1582 90.3279 31.6902V38.7202H89.0739V31.8612C89.0739 31.3925 89.0486 31.0505 88.9979 30.8352C88.8459 30.0372 88.2949 29.6382 87.3449 29.6382C86.4709 29.6382 85.5906 30.0562 84.7039 30.8922C84.7292 31.0949 84.7419 31.4305 84.7419 31.8992V38.7202H83.4879V31.8612C83.4879 31.3925 83.4626 31.0505 83.4119 30.8352C83.2852 30.0372 82.7849 29.6382 81.9109 29.6382C80.8596 29.6382 79.8526 30.1322 78.8899 31.1202V38.7202H77.6169V28.6882H78.8899V29.9232C79.9919 28.9605 81.0876 28.4792 82.1769 28.4792Z" fill="#BFD730"/>
<path d="M93.7825 29.9422L93.6495 28.8212C94.4728 28.5932 95.4291 28.4792 96.5185 28.4792C98.6211 28.4792 99.6725 29.5179 99.6725 31.5952V36.9722C99.6725 37.2762 99.7231 37.4915 99.8245 37.6182C99.9385 37.7449 100.122 37.8082 100.375 37.8082C100.578 37.8082 100.85 37.7449 101.192 37.6182L101.306 38.6632C100.787 38.8279 100.369 38.9102 100.052 38.9102C99.6091 38.9102 99.2545 38.7962 98.9885 38.5682C98.7225 38.3275 98.5705 38.0362 98.5325 37.6942C97.6205 38.5049 96.6578 38.9102 95.6445 38.9102C94.7198 38.9102 94.0168 38.6189 93.5355 38.0362C93.0541 37.4535 92.8135 36.7125 92.8135 35.8132C92.8135 34.6352 93.1491 33.7675 93.8205 33.2102C94.5045 32.6402 95.4545 32.3552 96.6705 32.3552C97.2785 32.3552 97.8611 32.4185 98.4185 32.5452V31.8232C98.4185 31.0379 98.2475 30.4679 97.9055 30.1132C97.5635 29.7585 96.9681 29.5812 96.1195 29.5812C95.3215 29.5812 94.5425 29.7015 93.7825 29.9422ZM98.4185 36.6872L98.4375 33.5332C97.8801 33.3939 97.3608 33.3242 96.8795 33.3242C95.9675 33.3242 95.2835 33.5142 94.8275 33.8942C94.3841 34.2742 94.1625 34.9012 94.1625 35.7752C94.1625 36.3579 94.3081 36.8392 94.5995 37.2192C94.9035 37.5992 95.3468 37.7892 95.9295 37.7892C96.8035 37.7892 97.6331 37.4219 98.4185 36.6872Z" fill="#BFD730"/>
<path d="M102.385 37.8842L102.727 36.7062C103.006 36.9595 103.411 37.2129 103.943 37.4662C104.475 37.7195 104.982 37.8462 105.463 37.8462C106.084 37.8462 106.584 37.7069 106.964 37.4282C107.344 37.1495 107.534 36.7442 107.534 36.2122C107.534 35.7182 107.363 35.3255 107.021 35.0342C106.679 34.7429 106.261 34.5212 105.767 34.3692C105.273 34.2172 104.779 34.0525 104.285 33.8752C103.804 33.6979 103.392 33.3939 103.05 32.9632C102.708 32.5325 102.537 31.9689 102.537 31.2722C102.537 30.4109 102.848 29.7332 103.468 29.2392C104.089 28.7325 104.849 28.4792 105.748 28.4792C106.673 28.4792 107.395 28.7135 107.914 29.1822C108.446 29.6382 108.769 30.1765 108.883 30.7972L107.857 31.2152C107.705 30.6832 107.439 30.2842 107.059 30.0182C106.679 29.7395 106.236 29.6002 105.729 29.6002C105.197 29.6002 104.748 29.7332 104.38 29.9992C104.013 30.2652 103.829 30.6705 103.829 31.2152C103.829 31.7092 104 32.1082 104.342 32.4122C104.684 32.7035 105.096 32.9252 105.577 33.0772C106.071 33.2292 106.565 33.3939 107.059 33.5712C107.553 33.7359 107.971 34.0209 108.313 34.4262C108.655 34.8315 108.826 35.3572 108.826 36.0032C108.826 36.8645 108.529 37.5739 107.933 38.1312C107.351 38.6759 106.521 38.9482 105.444 38.9482C104.836 38.9482 104.235 38.8342 103.639 38.6062C103.057 38.3655 102.639 38.1249 102.385 37.8842Z" fill="#BFD730"/>
</svg>
