<svg width="240" height="48" viewBox="0 0 240 48" fill="none" xmlns="http://www.w3.org/2000/svg">
<path d="M2.792 10.7189V14.4149H1V4.3489H4.528C5.592 4.3489 6.418 4.59623 7.006 5.0909C7.594 5.58557 7.888 6.30423 7.888 7.2469C7.888 8.30157 7.566 9.14623 6.922 9.7809C6.28733 10.4062 5.42867 10.7189 4.346 10.7189H2.792ZM2.792 9.3329H4.15C4.77533 9.3329 5.24667 9.16957 5.564 8.8429C5.89067 8.5069 6.054 8.02157 6.054 7.3869C6.054 6.27623 5.466 5.7209 4.29 5.7209H2.792V9.3329Z" fill="#004D43"/>
<path d="M14.1077 10.9849H10.1177C10.1271 11.6849 10.2857 12.2216 10.5937 12.5949C10.9017 12.9589 11.3264 13.1409 11.8677 13.1409C12.5304 13.1409 13.1977 12.9542 13.8697 12.5809L13.9677 14.0509C13.3331 14.3962 12.5724 14.5689 11.6857 14.5689C9.45505 14.5689 8.33972 13.2482 8.33972 10.6069C8.33972 9.3189 8.61505 8.3669 9.16572 7.7509C9.72572 7.12557 10.4584 6.8129 11.3637 6.8129C13.1931 6.8129 14.1077 7.97957 14.1077 10.3129V10.9849ZM12.4557 9.8929C12.4557 8.69823 12.0824 8.1009 11.3357 8.1009C10.9344 8.1009 10.6311 8.2689 10.4257 8.6049C10.2297 8.9409 10.1317 9.37023 10.1317 9.8929H12.4557Z" fill="#004D43"/>
<path d="M19.5713 7.4289L19.6413 6.9529H21.2093V14.3029C21.2093 16.4682 20.2107 17.5509 18.2133 17.5509C17.2147 17.5509 16.342 17.3689 15.5953 17.0049L15.8613 15.4789C16.1507 15.6562 16.5007 15.8009 16.9113 15.9129C17.3313 16.0342 17.7187 16.0949 18.0733 16.0949C19.0347 16.0949 19.5153 15.4696 19.5153 14.2189V13.7709C19.058 14.2656 18.47 14.5129 17.7513 14.5129C16.9393 14.5129 16.2907 14.2002 15.8053 13.5749C15.3293 12.9402 15.0913 11.9976 15.0913 10.7469C15.0913 10.0562 15.18 9.42623 15.3573 8.8569C15.544 8.28757 15.852 7.8069 16.2813 7.4149C16.72 7.01357 17.252 6.8129 17.8773 6.8129C18.5027 6.8129 19.0673 7.01823 19.5713 7.4289ZM19.4593 12.5529V8.6469C19.0207 8.32957 18.6287 8.1709 18.2833 8.1709C17.3687 8.1709 16.9113 9.0389 16.9113 10.7749C16.9113 12.3429 17.3547 13.1269 18.2413 13.1269C18.6707 13.1269 19.0767 12.9356 19.4593 12.5529Z" fill="#004D43"/>
<path d="M23.3639 8.4509L23.1539 7.1489C23.8259 6.9249 24.5959 6.8129 25.4639 6.8129C26.4906 6.8129 27.2186 7.04623 27.6479 7.5129C28.0772 7.97023 28.2919 8.81023 28.2919 10.0329V12.6649C28.2919 13.0569 28.4319 13.2529 28.7119 13.2529C28.8426 13.2529 28.9919 13.2202 29.1599 13.1549L29.2859 14.3309C28.9312 14.4802 28.5346 14.5549 28.0959 14.5549C27.4239 14.5549 27.0132 14.2702 26.8639 13.7009C26.2572 14.2702 25.5526 14.5549 24.7499 14.5549C24.0312 14.5549 23.4806 14.3356 23.0979 13.8969C22.7246 13.4582 22.5379 12.8982 22.5379 12.2169C22.5379 10.4902 23.4992 9.6269 25.4219 9.6269C25.8046 9.6269 26.2012 9.67357 26.6119 9.7669V9.4449C26.6119 8.5769 26.1219 8.1429 25.1419 8.1429C24.6099 8.1429 24.0172 8.24557 23.3639 8.4509ZM26.6119 12.5949V10.8729C26.2946 10.7609 25.9959 10.7049 25.7159 10.7049C24.7546 10.7049 24.2739 11.1576 24.2739 12.0629C24.2739 12.4269 24.3579 12.7162 24.5259 12.9309C24.6939 13.1362 24.9412 13.2389 25.2679 13.2389C25.7719 13.2389 26.2199 13.0242 26.6119 12.5949Z" fill="#004D43"/>
<path d="M34.1793 7.2889V4.3489H35.9293V14.4149H34.3613L34.3053 13.7569C33.792 14.2889 33.1807 14.5549 32.4713 14.5549C31.6593 14.5549 31.0107 14.2329 30.5253 13.5889C30.0493 12.9449 29.8113 11.9976 29.8113 10.7469C29.8113 10.0562 29.9047 9.42623 30.0913 8.8569C30.278 8.27823 30.5907 7.7929 31.0293 7.4009C31.468 7.0089 32.0093 6.8129 32.6533 6.8129C33.2133 6.8129 33.722 6.97157 34.1793 7.2889ZM34.1933 12.6089V8.6189C33.7547 8.30157 33.3673 8.1429 33.0313 8.1429C32.098 8.1429 31.6313 9.02024 31.6313 10.7749C31.6313 11.5589 31.748 12.1562 31.9813 12.5669C32.2147 12.9776 32.546 13.1829 32.9753 13.1829C33.4047 13.1829 33.8107 12.9916 34.1933 12.6089Z" fill="#004D43"/>
<path d="M38.0839 8.4509L37.8739 7.1489C38.5459 6.9249 39.3159 6.8129 40.1839 6.8129C41.2106 6.8129 41.9386 7.04623 42.3679 7.5129C42.7973 7.97023 43.0119 8.81023 43.0119 10.0329V12.6649C43.0119 13.0569 43.1519 13.2529 43.4319 13.2529C43.5626 13.2529 43.7119 13.2202 43.8799 13.1549L44.0059 14.3309C43.6513 14.4802 43.2546 14.5549 42.8159 14.5549C42.1439 14.5549 41.7333 14.2702 41.5839 13.7009C40.9773 14.2702 40.2726 14.5549 39.4699 14.5549C38.7513 14.5549 38.2006 14.3356 37.8179 13.8969C37.4446 13.4582 37.2579 12.8982 37.2579 12.2169C37.2579 10.4902 38.2193 9.6269 40.1419 9.6269C40.5246 9.6269 40.9213 9.67357 41.3319 9.7669V9.4449C41.3319 8.5769 40.8419 8.1429 39.8619 8.1429C39.3299 8.1429 38.7373 8.24557 38.0839 8.4509ZM41.3319 12.5949V10.8729C41.0146 10.7609 40.7159 10.7049 40.4359 10.7049C39.4746 10.7049 38.9939 11.1576 38.9939 12.0629C38.9939 12.4269 39.0779 12.7162 39.2459 12.9309C39.4139 13.1362 39.6613 13.2389 39.9879 13.2389C40.4919 13.2389 40.9399 13.0242 41.3319 12.5949Z" fill="#004D43"/>
<path d="M45.0461 6.9529H46.7961V14.4149H45.0461V6.9529ZM44.9061 5.0069C44.9061 4.68957 44.9994 4.44223 45.1861 4.2649C45.3727 4.08757 45.6154 3.9989 45.9141 3.9989C46.2407 3.9989 46.4927 4.08757 46.6701 4.2649C46.8474 4.4329 46.9361 4.68023 46.9361 5.0069C46.9361 5.33357 46.8381 5.58557 46.6421 5.7629C46.4554 5.9309 46.2127 6.0149 45.9141 6.0149C45.6061 6.0149 45.3587 5.92623 45.1721 5.7489C44.9947 5.56223 44.9061 5.3149 44.9061 5.0069Z" fill="#004D43"/>
<path d="M48.9485 8.4509L48.7385 7.1489C49.4105 6.9249 50.1805 6.8129 51.0485 6.8129C52.0751 6.8129 52.8031 7.04623 53.2325 7.5129C53.6618 7.97023 53.8765 8.81023 53.8765 10.0329V12.6649C53.8765 13.0569 54.0165 13.2529 54.2965 13.2529C54.4271 13.2529 54.5765 13.2202 54.7445 13.1549L54.8705 14.3309C54.5158 14.4802 54.1191 14.5549 53.6805 14.5549C53.0085 14.5549 52.5978 14.2702 52.4485 13.7009C51.8418 14.2702 51.1371 14.5549 50.3345 14.5549C49.6158 14.5549 49.0651 14.3356 48.6825 13.8969C48.3091 13.4582 48.1225 12.8982 48.1225 12.2169C48.1225 10.4902 49.0838 9.6269 51.0065 9.6269C51.3891 9.6269 51.7858 9.67357 52.1965 9.7669V9.4449C52.1965 8.5769 51.7065 8.1429 50.7265 8.1429C50.1945 8.1429 49.6018 8.24557 48.9485 8.4509ZM52.1965 12.5949V10.8729C51.8791 10.7609 51.5805 10.7049 51.3005 10.7049C50.3391 10.7049 49.8585 11.1576 49.8585 12.0629C49.8585 12.4269 49.9425 12.7162 50.1105 12.9309C50.2785 13.1362 50.5258 13.2389 50.8525 13.2389C51.3565 13.2389 51.8045 13.0242 52.1965 12.5949Z" fill="#004D43"/>
<path d="M57.5066 6.9529L57.5626 7.6949C58.2346 7.1069 58.972 6.8129 59.7746 6.8129C60.9786 6.8129 61.66 7.3309 61.8186 8.3669C61.856 8.60023 61.8746 8.9129 61.8746 9.3049V14.4149H60.1246V9.5289C60.1246 9.23957 60.12 9.04823 60.1106 8.9549C60.0546 8.49757 59.7466 8.2689 59.1866 8.2689C58.7013 8.2689 58.1973 8.50223 57.6746 8.9689V14.4149H55.9106V6.9529H57.5066Z" fill="#004D43"/>
<path d="M66.2705 13.7149L66.8585 12.1469C67.7452 12.7629 68.5992 13.0709 69.4205 13.0709C69.8965 13.0709 70.2792 12.9636 70.5685 12.7489C70.8672 12.5249 71.0165 12.1796 71.0165 11.7129C71.0165 11.2089 70.8578 10.8356 70.5405 10.5929C70.2325 10.3502 69.7285 10.1309 69.0285 9.9349C68.7298 9.8509 68.4778 9.77623 68.2725 9.7109C68.0765 9.63623 67.8478 9.52424 67.5865 9.3749C67.3345 9.21624 67.1292 9.04357 66.9705 8.8569C66.8212 8.67023 66.6905 8.4229 66.5785 8.1149C66.4665 7.8069 66.4105 7.46157 66.4105 7.0789C66.4105 6.20157 66.7138 5.49223 67.3205 4.9509C67.9365 4.40957 68.7252 4.1389 69.6865 4.1389C70.6665 4.1389 71.4085 4.37223 71.9125 4.8389C72.4258 5.30557 72.7618 5.8749 72.9205 6.5469L71.2965 7.0229C71.0352 6.08957 70.4845 5.6229 69.6445 5.6229C69.2432 5.6229 68.9118 5.73023 68.6505 5.9449C68.3892 6.15957 68.2585 6.4769 68.2585 6.8969C68.2585 7.3449 68.4032 7.67157 68.6925 7.8769C68.9912 8.08223 69.4672 8.2829 70.1205 8.4789C70.9978 8.74023 71.6698 9.0949 72.1365 9.5429C72.6125 9.9909 72.8505 10.6396 72.8505 11.4889C72.8505 12.4596 72.5332 13.2249 71.8985 13.7849C71.2732 14.3356 70.4425 14.6109 69.4065 14.6109C68.1652 14.6109 67.1198 14.3122 66.2705 13.7149Z" fill="#004D43"/>
<path d="M78.1916 6.9529L79.8996 7.1349C79.125 9.92557 78.3363 12.2589 77.5336 14.1349C77.291 14.7042 77.0763 15.1616 76.8896 15.5069C76.7123 15.8616 76.4883 16.2116 76.2176 16.5569C75.947 16.9022 75.639 17.1542 75.2936 17.3129C74.9576 17.4716 74.575 17.5509 74.1456 17.5509C73.3523 17.5509 72.6196 17.3736 71.9476 17.0189L72.3956 15.5769C73.0396 15.9129 73.5716 16.0809 73.9916 16.0809C74.393 16.0809 74.7056 15.9362 74.9296 15.6469C75.1629 15.3669 75.415 14.8722 75.6856 14.1629L73.0956 7.1209L74.9576 6.9529L76.0076 10.2709C76.297 11.2136 76.5116 11.9182 76.6516 12.3849C77.0343 11.2742 77.5476 9.46357 78.1916 6.9529Z" fill="#004D43"/>
<path d="M81.1069 8.4509L80.8969 7.1489C81.5689 6.9249 82.3389 6.8129 83.2069 6.8129C84.2336 6.8129 84.9616 7.04623 85.3909 7.5129C85.8202 7.97023 86.0349 8.81023 86.0349 10.0329V12.6649C86.0349 13.0569 86.1749 13.2529 86.4549 13.2529C86.5856 13.2529 86.7349 13.2202 86.9029 13.1549L87.0289 14.3309C86.6742 14.4802 86.2776 14.5549 85.8389 14.5549C85.1669 14.5549 84.7562 14.2702 84.6069 13.7009C84.0002 14.2702 83.2956 14.5549 82.4929 14.5549C81.7742 14.5549 81.2236 14.3356 80.8409 13.8969C80.4676 13.4582 80.2809 12.8982 80.2809 12.2169C80.2809 10.4902 81.2422 9.6269 83.1649 9.6269C83.5476 9.6269 83.9442 9.67357 84.3549 9.7669V9.4449C84.3549 8.5769 83.8649 8.1429 82.8849 8.1429C82.3529 8.1429 81.7602 8.24557 81.1069 8.4509ZM84.3549 12.5949V10.8729C84.0376 10.7609 83.7389 10.7049 83.4589 10.7049C82.4976 10.7049 82.0169 11.1576 82.0169 12.0629C82.0169 12.4269 82.1009 12.7162 82.2689 12.9309C82.4369 13.1362 82.6842 13.2389 83.0109 13.2389C83.5149 13.2389 83.9629 13.0242 84.3549 12.5949Z" fill="#004D43"/>
<path d="M91.4291 6.8129C91.9424 6.8129 92.3764 7.06957 92.7311 7.5829L91.9471 8.8429C91.7231 8.5629 91.4571 8.4229 91.1491 8.4229C90.6824 8.4229 90.2437 8.63757 89.8331 9.0669V14.4149H88.0691V6.9529H89.6371L89.7071 7.7369C90.2297 7.1209 90.8037 6.8129 91.4291 6.8129Z" fill="#004D43"/>
<path d="M93.5902 6.9529H95.3402V14.4149H93.5902V6.9529ZM93.4502 5.0069C93.4502 4.68957 93.5435 4.44223 93.7302 4.2649C93.9169 4.08757 94.1595 3.9989 94.4582 3.9989C94.7849 3.9989 95.0369 4.08757 95.2142 4.2649C95.3915 4.4329 95.4802 4.68023 95.4802 5.0069C95.4802 5.33357 95.3822 5.58557 95.1862 5.7629C94.9995 5.9309 94.7569 6.0149 94.4582 6.0149C94.1502 6.0149 93.9029 5.92623 93.7162 5.7489C93.5389 5.56223 93.4502 5.3149 93.4502 5.0069Z" fill="#004D43"/>
<path d="M97.4926 8.4509L97.2826 7.1489C97.9546 6.9249 98.7246 6.8129 99.5926 6.8129C100.619 6.8129 101.347 7.04623 101.777 7.5129C102.206 7.97023 102.421 8.81023 102.421 10.0329V12.6649C102.421 13.0569 102.561 13.2529 102.841 13.2529C102.971 13.2529 103.121 13.2202 103.289 13.1549L103.415 14.3309C103.06 14.4802 102.663 14.5549 102.225 14.5549C101.553 14.5549 101.142 14.2702 100.993 13.7009C100.386 14.2702 99.6813 14.5549 98.8786 14.5549C98.1599 14.5549 97.6093 14.3356 97.2266 13.8969C96.8533 13.4582 96.6666 12.8982 96.6666 12.2169C96.6666 10.4902 97.6279 9.6269 99.5506 9.6269C99.9333 9.6269 100.33 9.67357 100.741 9.7669V9.4449C100.741 8.5769 100.251 8.1429 99.2706 8.1429C98.7386 8.1429 98.1459 8.24557 97.4926 8.4509ZM100.741 12.5949V10.8729C100.423 10.7609 100.125 10.7049 99.8446 10.7049C98.8833 10.7049 98.4026 11.1576 98.4026 12.0629C98.4026 12.4269 98.4866 12.7162 98.6546 12.9309C98.8226 13.1362 99.0699 13.2389 99.3966 13.2389C99.9006 13.2389 100.349 13.0242 100.741 12.5949Z" fill="#004D43"/>
<path d="M108.347 6.8129C109.131 6.8129 109.672 7.0229 109.971 7.4429C110.269 7.85357 110.419 8.47423 110.419 9.3049V14.4149H108.669V9.5289C108.669 9.0529 108.603 8.72623 108.473 8.5489C108.351 8.36224 108.104 8.2689 107.731 8.2689C107.245 8.2689 106.741 8.50223 106.219 8.9689V14.4149H104.455V4.3489H106.219V7.6109C106.872 7.0789 107.581 6.8129 108.347 6.8129Z" fill="#004D43"/>
<path d="M5.31201 31.8508V38.7148H1.98401V20.0208H8.53601C10.512 20.0208 12.046 20.4802 13.138 21.3988C14.23 22.3175 14.776 23.6522 14.776 25.4028C14.776 27.3615 14.178 28.9302 12.982 30.1088C11.8033 31.2702 10.2087 31.8508 8.19801 31.8508H5.31201ZM5.31201 29.2768H7.83401C8.99534 29.2768 9.87068 28.9735 10.46 28.3668C11.0667 27.7429 11.37 26.8415 11.37 25.6628C11.37 23.6002 10.278 22.5688 8.09401 22.5688H5.31201V29.2768Z" fill="#72BF44"/>
<path d="M17.205 24.8568H20.455V38.7148H17.205V24.8568ZM16.945 21.2428C16.945 20.6535 17.1183 20.1942 17.465 19.8648C17.8116 19.5355 18.2623 19.3708 18.817 19.3708C19.4236 19.3708 19.8916 19.5355 20.221 19.8648C20.5503 20.1768 20.715 20.6362 20.715 21.2428C20.715 21.8495 20.533 22.3175 20.169 22.6468C19.8223 22.9588 19.3716 23.1148 18.817 23.1148C18.245 23.1148 17.7856 22.9502 17.439 22.6208C17.1096 22.2742 16.945 21.8148 16.945 21.2428Z" fill="#72BF44"/>
<path d="M26.7403 24.8568L26.8443 26.2348C28.0923 25.1428 29.4616 24.5968 30.9523 24.5968C33.1883 24.5968 34.4536 25.5588 34.7483 27.4828C34.8176 27.9162 34.8523 28.4969 34.8523 29.2248V38.7148H31.6023V29.6409C31.6023 29.1035 31.5936 28.7482 31.5763 28.5749C31.4723 27.7255 30.9003 27.3008 29.8603 27.3008C28.9589 27.3008 28.0229 27.7342 27.0523 28.6008V38.7148H23.7763V24.8568H26.7403Z" fill="#72BF44"/>
<path d="M41.4439 24.8568V40.1188C41.4439 43.0655 40.0572 44.5388 37.2839 44.5388C36.0705 44.5388 35.0046 44.3222 34.0859 43.8888L34.5799 41.2108C35.4465 41.6269 36.2092 41.8349 36.8679 41.8349C37.3186 41.8349 37.6479 41.6875 37.8559 41.3928C38.0639 41.1155 38.1679 40.6042 38.1679 39.8589V24.8568H41.4439ZM37.9079 21.2428C37.9079 20.6535 38.0812 20.1942 38.4279 19.8648C38.7746 19.5355 39.2252 19.3708 39.7799 19.3708C40.3866 19.3708 40.8545 19.5355 41.1839 19.8648C41.5132 20.1768 41.6779 20.6362 41.6779 21.2428C41.6779 21.8495 41.4959 22.3175 41.1319 22.6468C40.7852 22.9588 40.3345 23.1148 39.7799 23.1148C39.2079 23.1148 38.7486 22.9502 38.4019 22.6208C38.0725 22.2742 37.9079 21.8148 37.9079 21.2428Z" fill="#72BF44"/>
<path d="M45.4146 27.6388L45.0246 25.2208C46.2726 24.8048 47.7026 24.5968 49.3146 24.5968C51.2212 24.5968 52.5732 25.0302 53.3706 25.8968C54.1679 26.7462 54.5666 28.3062 54.5666 30.5768V35.4648C54.5666 36.1929 54.8266 36.5568 55.3466 36.5568C55.5892 36.5568 55.8666 36.4962 56.1786 36.3748L56.4126 38.5588C55.7539 38.8362 55.0172 38.9748 54.2026 38.9748C52.9546 38.9748 52.1919 38.4462 51.9146 37.3888C50.7879 38.4462 49.4792 38.9748 47.9886 38.9748C46.6539 38.9748 45.6312 38.5675 44.9206 37.7528C44.2272 36.9382 43.8806 35.8982 43.8806 34.6328C43.8806 31.4262 45.6659 29.8228 49.2366 29.8228C49.9472 29.8228 50.6839 29.9095 51.4466 30.0828V29.4848C51.4466 27.8729 50.5366 27.0668 48.7166 27.0668C47.7286 27.0668 46.6279 27.2575 45.4146 27.6388ZM51.4466 35.3348V32.1368C50.8572 31.9288 50.3026 31.8248 49.7826 31.8248C47.9972 31.8248 47.1046 32.6655 47.1046 34.3468C47.1046 35.0228 47.2606 35.5602 47.5726 35.9588C47.8846 36.3402 48.3439 36.5308 48.9506 36.5308C49.8866 36.5308 50.7186 36.1322 51.4466 35.3348Z" fill="#72BF44"/>
<path d="M65.4943 24.5968C67.037 24.5968 68.1116 25.1255 68.7183 26.1828C70.0183 25.1255 71.4223 24.5968 72.9303 24.5968C74.4036 24.5968 75.4176 24.9868 75.9723 25.7668C76.5443 26.5295 76.8303 27.6822 76.8303 29.2248V38.7148H73.5803V29.6409C73.5803 29.1902 73.5543 28.8088 73.5023 28.4968C73.3463 27.6995 72.809 27.3008 71.8903 27.3008C71.0236 27.3008 70.1483 27.6735 69.2643 28.4188C69.2816 28.6962 69.2903 29.1729 69.2903 29.8489V38.7148H66.0663V29.6409C66.0663 29.1382 66.049 28.7915 66.0143 28.6008C65.9276 28.1328 65.763 27.8035 65.5203 27.6129C65.2776 27.4049 64.931 27.3008 64.4803 27.3008C63.4923 27.3008 62.5303 27.7342 61.5943 28.6008V38.7148H58.3183V24.8568H61.2823L61.3863 26.2088C62.617 25.1342 63.9863 24.5968 65.4943 24.5968Z" fill="#72BF44"/>
<path d="M80.7993 27.6388L80.4093 25.2208C81.6573 24.8048 83.0874 24.5968 84.6994 24.5968C86.606 24.5968 87.958 25.0302 88.7554 25.8968C89.5527 26.7462 89.9514 28.3062 89.9514 30.5768V35.4648C89.9514 36.1929 90.2114 36.5568 90.7314 36.5568C90.974 36.5568 91.2514 36.4962 91.5634 36.3748L91.7973 38.5588C91.1387 38.8362 90.402 38.9748 89.5874 38.9748C88.3394 38.9748 87.5767 38.4462 87.2993 37.3888C86.1727 38.4462 84.864 38.9748 83.3734 38.9748C82.0387 38.9748 81.016 38.5675 80.3054 37.7528C79.612 36.9382 79.2654 35.8982 79.2654 34.6328C79.2654 31.4262 81.0507 29.8228 84.6214 29.8228C85.332 29.8228 86.0687 29.9095 86.8313 30.0828V29.4848C86.8313 27.8729 85.9213 27.0668 84.1013 27.0668C83.1133 27.0668 82.0127 27.2575 80.7993 27.6388ZM86.8313 35.3348V32.1368C86.242 31.9288 85.6874 31.8248 85.1674 31.8248C83.382 31.8248 82.4893 32.6655 82.4893 34.3468C82.4893 35.0228 82.6454 35.5602 82.9574 35.9588C83.2693 36.3402 83.7287 36.5308 84.3354 36.5308C85.2714 36.5308 86.1033 36.1322 86.8313 35.3348Z" fill="#72BF44"/>
<path d="M96.6671 24.8568L96.7711 26.2348C98.0191 25.1428 99.3884 24.5968 100.879 24.5968C103.115 24.5968 104.38 25.5588 104.675 27.4828C104.744 27.9162 104.779 28.4969 104.779 29.2248V38.7148H101.529V29.6409C101.529 29.1035 101.52 28.7482 101.503 28.5749C101.399 27.7255 100.827 27.3008 99.7871 27.3008C98.8857 27.3008 97.9497 27.7342 96.9791 28.6008V38.7148H93.7031V24.8568H96.6671Z" fill="#72BF44"/>
<path d="M111.987 25.0538V33.9648C111.987 35.0288 112.088 35.8015 112.291 36.2828C112.709 37.2328 113.665 37.7078 115.16 37.7078C116.743 37.7078 117.731 37.2202 118.124 36.2448C118.301 35.7762 118.39 34.9148 118.39 33.6608V25.0538H119.701V34.0218C119.701 35.0858 119.625 35.8712 119.473 36.3778C118.916 38.0878 117.478 38.9428 115.16 38.9428C112.905 38.9428 111.506 38.1828 110.961 36.6628C110.771 36.1308 110.676 35.2442 110.676 34.0028V25.0538H111.987Z" fill="#72BF44"/>
<path d="M121.914 37.8788L122.256 36.7008C122.534 36.9542 122.94 37.2075 123.472 37.4608C124.004 37.7142 124.51 37.8408 124.992 37.8408C125.612 37.8408 126.113 37.7015 126.493 37.4228C126.873 37.1442 127.063 36.7388 127.063 36.2068C127.063 35.7128 126.892 35.3202 126.55 35.0288C126.208 34.7375 125.79 34.5158 125.296 34.3638C124.802 34.2118 124.308 34.0472 123.814 33.8698C123.332 33.6925 122.921 33.3885 122.579 32.9578C122.237 32.5272 122.066 31.9635 122.066 31.2668C122.066 30.4055 122.376 29.7278 122.997 29.2338C123.617 28.7272 124.377 28.4738 125.277 28.4738C126.201 28.4738 126.923 28.7082 127.443 29.1768C127.975 29.6328 128.298 30.1712 128.412 30.7918L127.386 31.2098C127.234 30.6778 126.968 30.2788 126.588 30.0128C126.208 29.7342 125.764 29.5948 125.258 29.5948C124.726 29.5948 124.276 29.7278 123.909 29.9938C123.541 30.2598 123.358 30.6652 123.358 31.2098C123.358 31.7038 123.529 32.1028 123.871 32.4068C124.213 32.6982 124.624 32.9198 125.106 33.0718C125.6 33.2238 126.094 33.3885 126.588 33.5658C127.082 33.7305 127.5 34.0155 127.842 34.4208C128.184 34.8262 128.355 35.3518 128.355 35.9978C128.355 36.8592 128.057 37.5685 127.462 38.1258C126.879 38.6705 126.049 38.9428 124.973 38.9428C124.365 38.9428 123.763 38.8288 123.168 38.6008C122.585 38.3602 122.167 38.1195 121.914 37.8788Z" fill="#72BF44"/>
<path d="M131.086 29.9368L130.953 28.8158C131.777 28.5878 132.733 28.4738 133.822 28.4738C135.925 28.4738 136.976 29.5125 136.976 31.5898V36.9668C136.976 37.2708 137.027 37.4862 137.128 37.6128C137.242 37.7395 137.426 37.8028 137.679 37.8028C137.882 37.8028 138.154 37.7395 138.496 37.6128L138.61 38.6578C138.091 38.8225 137.673 38.9048 137.356 38.9048C136.913 38.9048 136.558 38.7908 136.292 38.5628C136.026 38.3222 135.874 38.0308 135.836 37.6888C134.924 38.4995 133.962 38.9048 132.948 38.9048C132.024 38.9048 131.321 38.6135 130.839 38.0308C130.358 37.4482 130.117 36.7072 130.117 35.8078C130.117 34.6298 130.453 33.7622 131.124 33.2048C131.808 32.6348 132.758 32.3498 133.974 32.3498C134.582 32.3498 135.165 32.4132 135.722 32.5398V31.8178C135.722 31.0325 135.551 30.4625 135.209 30.1078C134.867 29.7532 134.272 29.5758 133.423 29.5758C132.625 29.5758 131.846 29.6962 131.086 29.9368ZM135.722 36.6818L135.741 33.5278C135.184 33.3885 134.665 33.3188 134.183 33.3188C133.271 33.3188 132.587 33.5088 132.131 33.8888C131.688 34.2688 131.466 34.8958 131.466 35.7698C131.466 36.3525 131.612 36.8338 131.903 37.2138C132.207 37.5938 132.651 37.7838 133.233 37.7838C134.107 37.7838 134.937 37.4165 135.722 36.6818Z" fill="#72BF44"/>
<path d="M145.123 28.4738C146.631 28.4738 147.511 29.1325 147.764 30.4498C147.802 30.6652 147.821 31.0768 147.821 31.6848V38.7148H146.567V31.8558C146.567 31.4125 146.548 31.0705 146.51 30.8298C146.358 30.0318 145.776 29.6328 144.762 29.6328C143.838 29.6328 142.862 30.1205 141.836 31.0958V38.7148H140.563V25.0538H141.836V29.9368C142.913 28.9615 144.009 28.4738 145.123 28.4738Z" fill="#72BF44"/>
<path d="M151.274 29.9368L151.141 28.8158C151.964 28.5878 152.92 28.4738 154.01 28.4738C156.112 28.4738 157.164 29.5125 157.164 31.5898V36.9668C157.164 37.2708 157.214 37.4862 157.316 37.6128C157.43 37.7395 157.613 37.8028 157.867 37.8028C158.069 37.8028 158.342 37.7395 158.684 37.6128L158.798 38.6578C158.278 38.8225 157.86 38.9048 157.544 38.9048C157.1 38.9048 156.746 38.7908 156.48 38.5628C156.214 38.3222 156.062 38.0308 156.024 37.6888C155.112 38.4995 154.149 38.9048 153.136 38.9048C152.211 38.9048 151.508 38.6135 151.027 38.0308C150.545 37.4482 150.305 36.7072 150.305 35.8078C150.305 34.6298 150.64 33.7622 151.312 33.2048C151.996 32.6348 152.946 32.3498 154.162 32.3498C154.77 32.3498 155.352 32.4132 155.91 32.5398V31.8178C155.91 31.0325 155.739 30.4625 155.397 30.1078C155.055 29.7532 154.459 29.5758 153.611 29.5758C152.813 29.5758 152.034 29.6962 151.274 29.9368ZM155.91 36.6818L155.929 33.5278C155.371 33.3885 154.852 33.3188 154.371 33.3188C153.459 33.3188 152.775 33.5088 152.319 33.8888C151.875 34.2688 151.654 34.8958 151.654 35.7698C151.654 36.3525 151.799 36.8338 152.091 37.2138C152.395 37.5938 152.838 37.7838 153.421 37.7838C154.295 37.7838 155.124 37.4165 155.91 36.6818Z" fill="#72BF44"/>
</svg>
