<svg width="240" height="48" viewBox="0 0 240 48" fill="none" xmlns="http://www.w3.org/2000/svg">
<path d="M3.60206 10.7213V14.4173H1.81006V4.35131H5.33806C6.40206 4.35131 7.22806 4.59865 7.81606 5.09331C8.40406 5.58798 8.69806 6.30665 8.69806 7.24931C8.69806 8.30398 8.37606 9.14865 7.73206 9.78331C7.09739 10.4086 6.23873 10.7213 5.15606 10.7213H3.60206ZM3.60206 9.33531H4.96006C5.58539 9.33531 6.05673 9.17198 6.37406 8.84531C6.70073 8.50931 6.86406 8.02398 6.86406 7.38931C6.86406 6.27865 6.27606 5.72331 5.10006 5.72331H3.60206V9.33531Z" fill="#004D43"/>
<path d="M14.9178 10.9873H10.9278C10.9371 11.6873 11.0958 12.224 11.4038 12.5973C11.7118 12.9613 12.1364 13.1433 12.6778 13.1433C13.3404 13.1433 14.0078 12.9566 14.6798 12.5833L14.7778 14.0533C14.1431 14.3986 13.3824 14.5713 12.4958 14.5713C10.2651 14.5713 9.14978 13.2506 9.14978 10.6093C9.14978 9.32131 9.42511 8.36931 9.97578 7.75331C10.5358 7.12798 11.2684 6.81531 12.1738 6.81531C14.0031 6.81531 14.9178 7.98198 14.9178 10.3153V10.9873ZM13.2658 9.89531C13.2658 8.70065 12.8924 8.10331 12.1458 8.10331C11.7444 8.10331 11.4411 8.27131 11.2358 8.60731C11.0398 8.94331 10.9418 9.37265 10.9418 9.89531H13.2658Z" fill="#004D43"/>
<path d="M20.3814 7.43131L20.4514 6.95531H22.0194V14.3053C22.0194 16.4706 21.0207 17.5533 19.0234 17.5533C18.0247 17.5533 17.1521 17.3713 16.4054 17.0073L16.6714 15.4813C16.9607 15.6586 17.3107 15.8033 17.7214 15.9153C18.1414 16.0366 18.5287 16.0973 18.8834 16.0973C19.8447 16.0973 20.3254 15.472 20.3254 14.2213V13.7733C19.8681 14.268 19.2801 14.5153 18.5614 14.5153C17.7494 14.5153 17.1007 14.2026 16.6154 13.5773C16.1394 12.9426 15.9014 12 15.9014 10.7493C15.9014 10.0586 15.9901 9.42865 16.1674 8.85931C16.3541 8.28998 16.6621 7.80931 17.0914 7.41731C17.5301 7.01598 18.0621 6.81531 18.6874 6.81531C19.3127 6.81531 19.8774 7.02065 20.3814 7.43131ZM20.2694 12.5553V8.64931C19.8307 8.33198 19.4387 8.17331 19.0934 8.17331C18.1787 8.17331 17.7214 9.04131 17.7214 10.7773C17.7214 12.3453 18.1647 13.1293 19.0514 13.1293C19.4807 13.1293 19.8867 12.938 20.2694 12.5553Z" fill="#004D43"/>
<path d="M24.174 8.45331L23.964 7.15131C24.636 6.92731 25.406 6.81531 26.274 6.81531C27.3006 6.81531 28.0286 7.04865 28.458 7.51531C28.8873 7.97265 29.102 8.81265 29.102 10.0353V12.6673C29.102 13.0593 29.242 13.2553 29.522 13.2553C29.6526 13.2553 29.802 13.2226 29.97 13.1573L30.096 14.3333C29.7413 14.4826 29.3446 14.5573 28.906 14.5573C28.234 14.5573 27.8233 14.2726 27.674 13.7033C27.0673 14.2726 26.3626 14.5573 25.56 14.5573C24.8413 14.5573 24.2906 14.338 23.908 13.8993C23.5346 13.4606 23.348 12.9006 23.348 12.2193C23.348 10.4926 24.3093 9.62931 26.232 9.62931C26.6146 9.62931 27.0113 9.67598 27.422 9.76931V9.44731C27.422 8.57931 26.932 8.14531 25.952 8.14531C25.42 8.14531 24.8273 8.24798 24.174 8.45331ZM27.422 12.5973V10.8753C27.1046 10.7633 26.806 10.7073 26.526 10.7073C25.5646 10.7073 25.084 11.16 25.084 12.0653C25.084 12.4293 25.168 12.7186 25.336 12.9333C25.504 13.1386 25.7513 13.2413 26.078 13.2413C26.582 13.2413 27.03 13.0266 27.422 12.5973Z" fill="#004D43"/>
<path d="M34.9894 7.29131V4.35131H36.7394V14.4173H35.1714L35.1154 13.7593C34.6021 14.2913 33.9907 14.5573 33.2814 14.5573C32.4694 14.5573 31.8207 14.2353 31.3354 13.5913C30.8594 12.9473 30.6214 12 30.6214 10.7493C30.6214 10.0586 30.7147 9.42865 30.9014 8.85931C31.0881 8.28065 31.4007 7.79531 31.8394 7.40331C32.2781 7.01131 32.8194 6.81531 33.4634 6.81531C34.0234 6.81531 34.5321 6.97398 34.9894 7.29131ZM35.0034 12.6113V8.62131C34.5647 8.30398 34.1774 8.14531 33.8414 8.14531C32.9081 8.14531 32.4414 9.02265 32.4414 10.7773C32.4414 11.5613 32.5581 12.1586 32.7914 12.5693C33.0247 12.98 33.3561 13.1853 33.7854 13.1853C34.2147 13.1853 34.6207 12.994 35.0034 12.6113Z" fill="#004D43"/>
<path d="M38.894 8.45331L38.684 7.15131C39.356 6.92731 40.126 6.81531 40.994 6.81531C42.0206 6.81531 42.7486 7.04865 43.178 7.51531C43.6073 7.97265 43.822 8.81265 43.822 10.0353V12.6673C43.822 13.0593 43.962 13.2553 44.242 13.2553C44.3726 13.2553 44.522 13.2226 44.69 13.1573L44.816 14.3333C44.4613 14.4826 44.0646 14.5573 43.626 14.5573C42.954 14.5573 42.5433 14.2726 42.394 13.7033C41.7873 14.2726 41.0826 14.5573 40.28 14.5573C39.5613 14.5573 39.0106 14.338 38.628 13.8993C38.2546 13.4606 38.068 12.9006 38.068 12.2193C38.068 10.4926 39.0293 9.62931 40.952 9.62931C41.3346 9.62931 41.7313 9.67598 42.142 9.76931V9.44731C42.142 8.57931 41.652 8.14531 40.672 8.14531C40.14 8.14531 39.5473 8.24798 38.894 8.45331ZM42.142 12.5973V10.8753C41.8246 10.7633 41.526 10.7073 41.246 10.7073C40.2846 10.7073 39.804 11.16 39.804 12.0653C39.804 12.4293 39.888 12.7186 40.056 12.9333C40.224 13.1386 40.4713 13.2413 40.798 13.2413C41.302 13.2413 41.75 13.0266 42.142 12.5973Z" fill="#004D43"/>
<path d="M45.8561 6.95531H47.6061V14.4173H45.8561V6.95531ZM45.7161 5.00931C45.7161 4.69198 45.8095 4.44465 45.9961 4.26731C46.1828 4.08998 46.4255 4.00131 46.7241 4.00131C47.0508 4.00131 47.3028 4.08998 47.4801 4.26731C47.6575 4.43531 47.7461 4.68265 47.7461 5.00931C47.7461 5.33598 47.6481 5.58798 47.4521 5.76531C47.2655 5.93331 47.0228 6.01731 46.7241 6.01731C46.4161 6.01731 46.1688 5.92865 45.9821 5.75131C45.8048 5.56465 45.7161 5.31731 45.7161 5.00931Z" fill="#004D43"/>
<path d="M49.7585 8.45331L49.5485 7.15131C50.2205 6.92731 50.9905 6.81531 51.8585 6.81531C52.8852 6.81531 53.6132 7.04865 54.0425 7.51531C54.4719 7.97265 54.6865 8.81265 54.6865 10.0353V12.6673C54.6865 13.0593 54.8265 13.2553 55.1065 13.2553C55.2372 13.2553 55.3865 13.2226 55.5545 13.1573L55.6805 14.3333C55.3259 14.4826 54.9292 14.5573 54.4905 14.5573C53.8185 14.5573 53.4079 14.2726 53.2585 13.7033C52.6519 14.2726 51.9472 14.5573 51.1445 14.5573C50.4259 14.5573 49.8752 14.338 49.4925 13.8993C49.1192 13.4606 48.9325 12.9006 48.9325 12.2193C48.9325 10.4926 49.8939 9.62931 51.8165 9.62931C52.1992 9.62931 52.5959 9.67598 53.0065 9.76931V9.44731C53.0065 8.57931 52.5165 8.14531 51.5365 8.14531C51.0045 8.14531 50.4119 8.24798 49.7585 8.45331ZM53.0065 12.5973V10.8753C52.6892 10.7633 52.3905 10.7073 52.1105 10.7073C51.1492 10.7073 50.6685 11.16 50.6685 12.0653C50.6685 12.4293 50.7525 12.7186 50.9205 12.9333C51.0885 13.1386 51.3359 13.2413 51.6625 13.2413C52.1665 13.2413 52.6145 13.0266 53.0065 12.5973Z" fill="#004D43"/>
<path d="M58.3167 6.95531L58.3727 7.69731C59.0447 7.10931 59.782 6.81531 60.5847 6.81531C61.7887 6.81531 62.47 7.33331 62.6287 8.36931C62.666 8.60265 62.6847 8.91531 62.6847 9.30731V14.4173H60.9347V9.53131C60.9347 9.24198 60.93 9.05065 60.9207 8.95731C60.8647 8.49998 60.5567 8.27131 59.9967 8.27131C59.5114 8.27131 59.0074 8.50465 58.4847 8.97131V14.4173H56.7207V6.95531H58.3167Z" fill="#004D43"/>
<path d="M1 38.1453L1.858 35.4413C2.82867 35.9093 3.756 36.1433 4.64 36.1433C5.42 36.1433 5.93133 35.9093 6.174 35.4413C6.434 34.9733 6.564 34.2193 6.564 33.1793V20.0233H9.892V33.2573C9.892 35.268 9.49333 36.7413 8.696 37.6773C7.916 38.596 6.70267 39.0553 5.056 39.0553C3.46133 39.0553 2.10933 38.752 1 38.1453Z" fill="#00AB4E"/>
<path d="M13.5361 27.6413L13.1461 25.2233C14.3941 24.8073 15.8241 24.5993 17.4361 24.5993C19.3427 24.5993 20.6947 25.0326 21.4921 25.8993C22.2894 26.7486 22.6881 28.3086 22.6881 30.5793V35.4673C22.6881 36.1953 22.9481 36.5593 23.4681 36.5593C23.7107 36.5593 23.9881 36.4986 24.3001 36.3773L24.5341 38.5613C23.8754 38.8387 23.1387 38.9773 22.3241 38.9773C21.0761 38.9773 20.3134 38.4486 20.0361 37.3913C18.9094 38.4486 17.6007 38.9773 16.1101 38.9773C14.7754 38.9773 13.7527 38.57 13.0421 37.7553C12.3487 36.9407 12.0021 35.9006 12.0021 34.6353C12.0021 31.4286 13.7874 29.8253 17.3581 29.8253C18.0687 29.8253 18.8054 29.912 19.5681 30.0853V29.4873C19.5681 27.8753 18.6581 27.0693 16.8381 27.0693C15.8501 27.0693 14.7494 27.26 13.5361 27.6413ZM19.5681 35.3373V32.1393C18.9787 31.9313 18.4241 31.8273 17.9041 31.8273C16.1187 31.8273 15.2261 32.668 15.2261 34.3493C15.2261 35.0253 15.3821 35.5626 15.6941 35.9613C16.0061 36.3426 16.4654 36.5333 17.0721 36.5333C18.0081 36.5333 18.8401 36.1346 19.5681 35.3373Z" fill="#00AB4E"/>
<path d="M25.4518 37.6513L26.3358 35.0773C27.6358 36.0307 28.9444 36.5073 30.2618 36.5073C31.4751 36.5073 32.0818 35.9873 32.0818 34.9473C32.0818 34.462 31.8911 34.098 31.5098 33.8553C31.1458 33.5953 30.5824 33.344 29.8198 33.1013C29.3518 32.9453 29.0311 32.8413 28.8578 32.7893C28.7018 32.7373 28.4158 32.6246 27.9998 32.4513C27.6011 32.278 27.3064 32.1047 27.1158 31.9313C26.9424 31.758 26.7344 31.5326 26.4918 31.2553C26.2491 30.978 26.0758 30.6486 25.9718 30.2673C25.8851 29.886 25.8418 29.4613 25.8418 28.9933C25.8418 27.6413 26.2924 26.5753 27.1938 25.7953C28.1124 24.998 29.3171 24.5993 30.8078 24.5993C33.3904 24.5993 34.9678 25.6653 35.5398 27.7973L33.0698 28.7593C32.6364 27.598 31.8738 27.0173 30.7818 27.0173C30.2791 27.0173 29.8458 27.1473 29.4818 27.4073C29.1351 27.65 28.9618 28.0226 28.9618 28.5253C28.9618 28.8373 29.0224 29.106 29.1438 29.3313C29.2824 29.5393 29.4991 29.73 29.7938 29.9033C30.0884 30.0766 30.3484 30.2066 30.5738 30.2933C30.8164 30.38 31.1718 30.4927 31.6398 30.6313C32.1771 30.8046 32.6278 30.9693 32.9918 31.1253C33.3558 31.2813 33.7371 31.5153 34.1358 31.8273C34.5344 32.122 34.8378 32.512 35.0458 32.9973C35.2538 33.4653 35.3578 34.02 35.3578 34.6613C35.3578 36.0133 34.8984 37.0793 33.9798 37.8593C33.0611 38.6393 31.8218 39.0293 30.2618 39.0293C29.3258 39.0293 28.3984 38.882 27.4798 38.5873C26.5784 38.2927 25.9024 37.9807 25.4518 37.6513Z" fill="#00AB4E"/>
<path d="M38.5869 27.6413L38.1969 25.2233C39.4449 24.8073 40.8749 24.5993 42.4869 24.5993C44.3935 24.5993 45.7455 25.0326 46.5429 25.8993C47.3402 26.7486 47.7389 28.3086 47.7389 30.5793V35.4673C47.7389 36.1953 47.9989 36.5593 48.5189 36.5593C48.7615 36.5593 49.0389 36.4986 49.3509 36.3773L49.5849 38.5613C48.9262 38.8387 48.1895 38.9773 47.3749 38.9773C46.1269 38.9773 45.3642 38.4486 45.0869 37.3913C43.9602 38.4486 42.6515 38.9773 41.1609 38.9773C39.8262 38.9773 38.8035 38.57 38.0929 37.7553C37.3995 36.9407 37.0529 35.9006 37.0529 34.6353C37.0529 31.4286 38.8382 29.8253 42.4089 29.8253C43.1195 29.8253 43.8562 29.912 44.6189 30.0853V29.4873C44.6189 27.8753 43.7089 27.0693 41.8889 27.0693C40.9009 27.0693 39.8002 27.26 38.5869 27.6413ZM44.6189 35.3373V32.1393C44.0295 31.9313 43.4749 31.8273 42.9549 31.8273C41.1695 31.8273 40.2769 32.668 40.2769 34.3493C40.2769 35.0253 40.4329 35.5626 40.7449 35.9613C41.0569 36.3426 41.5162 36.5333 42.1229 36.5333C43.0589 36.5333 43.8909 36.1346 44.6189 35.3373Z" fill="#00AB4E"/>
<path d="M52.947 26.2343V25.0563H62.751V26.2343H58.495V38.7173H57.184V26.2343H52.947Z" fill="#00AB4E"/>
<path d="M64.6681 28.6853H65.9221V38.7173H64.6681V28.6853ZM64.4591 26.1013C64.4591 25.8353 64.5351 25.6326 64.6871 25.4933C64.8391 25.3413 65.0354 25.2653 65.2761 25.2653C65.8334 25.2653 66.1121 25.5503 66.1121 26.1203C66.1121 26.399 66.0361 26.6206 65.8841 26.7853C65.7321 26.9373 65.5294 27.0133 65.2761 27.0133C65.0354 27.0133 64.8391 26.931 64.6871 26.7663C64.5351 26.6016 64.4591 26.38 64.4591 26.1013Z" fill="#00AB4E"/>
<path d="M73.1474 29.7113H70.5254V35.9053C70.5254 36.3486 70.5381 36.6906 70.5634 36.9313C70.6014 37.1593 70.7028 37.3683 70.8674 37.5583C71.0321 37.7483 71.2791 37.8433 71.6084 37.8433C71.9758 37.8433 72.4508 37.704 73.0334 37.4253L73.1664 38.4893C72.5584 38.7933 71.9631 38.9453 71.3804 38.9453C69.9744 38.9453 69.2714 38.1156 69.2714 36.4563V29.7113H67.9794V28.6853H69.2714V27.0513L70.5254 26.3293V28.6853H73.1474V29.7113Z" fill="#00AB4E"/>
<path d="M75.3556 28.6853H76.6096V38.7173H75.3556V28.6853ZM75.1466 26.1013C75.1466 25.8353 75.2226 25.6326 75.3746 25.4933C75.5266 25.3413 75.7229 25.2653 75.9636 25.2653C76.5209 25.2653 76.7996 25.5503 76.7996 26.1203C76.7996 26.399 76.7236 26.6206 76.5716 26.7853C76.4196 26.9373 76.2169 27.0133 75.9636 27.0133C75.7229 27.0133 75.5266 26.931 75.3746 26.7663C75.2226 26.6016 75.1466 26.38 75.1466 26.1013Z" fill="#00AB4E"/>
<path d="M79.8829 28.6853H81.1369V29.7683C82.3656 28.907 83.3726 28.4763 84.1579 28.4763C85.0953 28.4763 85.8299 28.85 86.3619 29.5973C86.9066 30.332 87.1789 31.4276 87.1789 32.8843C87.1789 36.8996 85.8933 38.9073 83.3219 38.9073C82.5366 38.9073 81.8146 38.6983 81.1559 38.2803V42.6883H79.8829V28.6853ZM81.1369 30.8323V36.9883C81.8209 37.5203 82.5873 37.7863 83.4359 37.7863C84.0186 37.7863 84.4936 37.552 84.8609 37.0833C85.2283 36.6146 85.4753 36.07 85.6019 35.4493C85.7286 34.8286 85.7919 34.1383 85.7919 33.3783C85.7919 31.985 85.6209 31.0223 85.2789 30.4903C84.9496 29.9456 84.4683 29.6733 83.8349 29.6733C83.1383 29.6733 82.2389 30.0596 81.1369 30.8323Z" fill="#00AB4E"/>
<path d="M90.0554 29.9393L89.9224 28.8183C90.7457 28.5903 91.702 28.4763 92.7914 28.4763C94.894 28.4763 95.9454 29.515 95.9454 31.5923V36.9693C95.9454 37.2733 95.996 37.4886 96.0974 37.6153C96.2114 37.742 96.395 37.8053 96.6484 37.8053C96.851 37.8053 97.1234 37.742 97.4654 37.6153L97.5794 38.6603C97.06 38.825 96.642 38.9073 96.3254 38.9073C95.882 38.9073 95.5274 38.7933 95.2614 38.5653C94.9954 38.3246 94.8434 38.0333 94.8054 37.6913C93.8934 38.502 92.9307 38.9073 91.9174 38.9073C90.9927 38.9073 90.2897 38.616 89.8084 38.0333C89.327 37.4506 89.0864 36.7096 89.0864 35.8103C89.0864 34.6323 89.422 33.7646 90.0934 33.2073C90.7774 32.6373 91.7274 32.3523 92.9434 32.3523C93.5514 32.3523 94.134 32.4156 94.6914 32.5423V31.8203C94.6914 31.035 94.5204 30.465 94.1784 30.1103C93.8364 29.7556 93.241 29.5783 92.3924 29.5783C91.5944 29.5783 90.8154 29.6986 90.0554 29.9393ZM94.6914 36.6843L94.7104 33.5303C94.153 33.391 93.6337 33.3213 93.1524 33.3213C92.2404 33.3213 91.5564 33.5113 91.1004 33.8913C90.657 34.2713 90.4354 34.8983 90.4354 35.7723C90.4354 36.355 90.581 36.8363 90.8724 37.2163C91.1764 37.5963 91.6197 37.7863 92.2024 37.7863C93.0764 37.7863 93.906 37.419 94.6914 36.6843Z" fill="#00AB4E"/>
<path d="M104.092 28.4763C105.6 28.4763 106.48 29.135 106.733 30.4523C106.771 30.6676 106.79 31.0793 106.79 31.6873V38.7173H105.536V31.8583C105.536 31.415 105.517 31.073 105.479 30.8323C105.327 30.0343 104.745 29.6353 103.731 29.6353C102.807 29.6353 101.831 30.123 100.805 31.0983V38.7173H99.5323V28.6853H100.805V29.9393C101.882 28.964 102.978 28.4763 104.092 28.4763Z" fill="#00AB4E"/>
</svg>
