<svg width="240" height="48" viewBox="0 0 240 48" fill="none" xmlns="http://www.w3.org/2000/svg">
<path d="M2.792 10.7152V14.4112H1V4.34518H4.528C5.592 4.34518 6.418 4.59251 7.006 5.08718C7.594 5.58184 7.888 6.30051 7.888 7.24318C7.888 8.29784 7.566 9.14251 6.922 9.77718C6.28733 10.4025 5.42867 10.7152 4.346 10.7152H2.792ZM2.792 9.32918H4.15C4.77533 9.32918 5.24667 9.16584 5.564 8.83918C5.89067 8.50318 6.054 8.01785 6.054 7.38318C6.054 6.27251 5.466 5.71718 4.29 5.71718H2.792V9.32918Z" fill="white"/>
<path d="M14.1077 10.9812H10.1177C10.1271 11.6812 10.2857 12.2178 10.5937 12.5912C10.9017 12.9552 11.3264 13.1372 11.8677 13.1372C12.5304 13.1372 13.1977 12.9505 13.8697 12.5772L13.9677 14.0472C13.3331 14.3925 12.5724 14.5652 11.6857 14.5652C9.45505 14.5652 8.33972 13.2445 8.33972 10.6032C8.33972 9.31518 8.61505 8.36318 9.16572 7.74718C9.72572 7.12185 10.4584 6.80918 11.3637 6.80918C13.1931 6.80918 14.1077 7.97584 14.1077 10.3092V10.9812ZM12.4557 9.88918C12.4557 8.69451 12.0824 8.09718 11.3357 8.09718C10.9344 8.09718 10.6311 8.26518 10.4257 8.60118C10.2297 8.93718 10.1317 9.36651 10.1317 9.88918H12.4557Z" fill="white"/>
<path d="M19.5713 7.42518L19.6413 6.94918H21.2093V14.2992C21.2093 16.4645 20.2107 17.5472 18.2133 17.5472C17.2147 17.5472 16.342 17.3652 15.5953 17.0012L15.8613 15.4752C16.1507 15.6525 16.5007 15.7972 16.9113 15.9092C17.3313 16.0305 17.7187 16.0912 18.0733 16.0912C19.0347 16.0912 19.5153 15.4658 19.5153 14.2152V13.7672C19.058 14.2618 18.47 14.5092 17.7513 14.5092C16.9393 14.5092 16.2907 14.1965 15.8053 13.5712C15.3293 12.9365 15.0913 11.9938 15.0913 10.7432C15.0913 10.0525 15.18 9.42251 15.3573 8.85318C15.544 8.28384 15.852 7.80318 16.2813 7.41118C16.72 7.00984 17.252 6.80918 17.8773 6.80918C18.5027 6.80918 19.0673 7.01451 19.5713 7.42518ZM19.4593 12.5492V8.64318C19.0207 8.32584 18.6287 8.16718 18.2833 8.16718C17.3687 8.16718 16.9113 9.03518 16.9113 10.7712C16.9113 12.3392 17.3547 13.1232 18.2413 13.1232C18.6707 13.1232 19.0767 12.9318 19.4593 12.5492Z" fill="white"/>
<path d="M23.3639 8.44718L23.1539 7.14518C23.8259 6.92118 24.5959 6.80918 25.4639 6.80918C26.4906 6.80918 27.2186 7.04251 27.6479 7.50918C28.0772 7.96651 28.2919 8.80651 28.2919 10.0292V12.6612C28.2919 13.0532 28.4319 13.2492 28.7119 13.2492C28.8426 13.2492 28.9919 13.2165 29.1599 13.1512L29.2859 14.3272C28.9312 14.4765 28.5346 14.5512 28.0959 14.5512C27.4239 14.5512 27.0132 14.2665 26.8639 13.6972C26.2572 14.2665 25.5526 14.5512 24.7499 14.5512C24.0312 14.5512 23.4806 14.3318 23.0979 13.8932C22.7246 13.4545 22.5379 12.8945 22.5379 12.2132C22.5379 10.4865 23.4992 9.62318 25.4219 9.62318C25.8046 9.62318 26.2012 9.66985 26.6119 9.76318V9.44118C26.6119 8.57318 26.1219 8.13918 25.1419 8.13918C24.6099 8.13918 24.0172 8.24185 23.3639 8.44718ZM26.6119 12.5912V10.8692C26.2946 10.7572 25.9959 10.7012 25.7159 10.7012C24.7546 10.7012 24.2739 11.1538 24.2739 12.0592C24.2739 12.4232 24.3579 12.7125 24.5259 12.9272C24.6939 13.1325 24.9412 13.2352 25.2679 13.2352C25.7719 13.2352 26.2199 13.0205 26.6119 12.5912Z" fill="white"/>
<path d="M34.1793 7.28518V4.34518H35.9293V14.4112H34.3613L34.3053 13.7532C33.792 14.2852 33.1807 14.5512 32.4713 14.5512C31.6593 14.5512 31.0107 14.2292 30.5253 13.5852C30.0493 12.9412 29.8113 11.9938 29.8113 10.7432C29.8113 10.0525 29.9047 9.42251 30.0913 8.85318C30.278 8.27451 30.5907 7.78918 31.0293 7.39718C31.468 7.00518 32.0093 6.80918 32.6533 6.80918C33.2133 6.80918 33.722 6.96784 34.1793 7.28518ZM34.1933 12.6052V8.61518C33.7547 8.29784 33.3673 8.13918 33.0313 8.13918C32.098 8.13918 31.6313 9.01651 31.6313 10.7712C31.6313 11.5552 31.748 12.1525 31.9813 12.5632C32.2147 12.9738 32.546 13.1792 32.9753 13.1792C33.4047 13.1792 33.8107 12.9878 34.1933 12.6052Z" fill="white"/>
<path d="M38.0839 8.44718L37.8739 7.14518C38.5459 6.92118 39.3159 6.80918 40.1839 6.80918C41.2106 6.80918 41.9386 7.04251 42.3679 7.50918C42.7973 7.96651 43.0119 8.80651 43.0119 10.0292V12.6612C43.0119 13.0532 43.1519 13.2492 43.4319 13.2492C43.5626 13.2492 43.7119 13.2165 43.8799 13.1512L44.0059 14.3272C43.6513 14.4765 43.2546 14.5512 42.8159 14.5512C42.1439 14.5512 41.7333 14.2665 41.5839 13.6972C40.9773 14.2665 40.2726 14.5512 39.4699 14.5512C38.7513 14.5512 38.2006 14.3318 37.8179 13.8932C37.4446 13.4545 37.2579 12.8945 37.2579 12.2132C37.2579 10.4865 38.2193 9.62318 40.1419 9.62318C40.5246 9.62318 40.9213 9.66985 41.3319 9.76318V9.44118C41.3319 8.57318 40.8419 8.13918 39.8619 8.13918C39.3299 8.13918 38.7373 8.24185 38.0839 8.44718ZM41.3319 12.5912V10.8692C41.0146 10.7572 40.7159 10.7012 40.4359 10.7012C39.4746 10.7012 38.9939 11.1538 38.9939 12.0592C38.9939 12.4232 39.0779 12.7125 39.2459 12.9272C39.4139 13.1325 39.6613 13.2352 39.9879 13.2352C40.4919 13.2352 40.9399 13.0205 41.3319 12.5912Z" fill="white"/>
<path d="M45.0461 6.94918H46.7961V14.4112H45.0461V6.94918ZM44.9061 5.00318C44.9061 4.68584 44.9994 4.43851 45.1861 4.26118C45.3727 4.08384 45.6154 3.99518 45.9141 3.99518C46.2407 3.99518 46.4927 4.08384 46.6701 4.26118C46.8474 4.42918 46.9361 4.67651 46.9361 5.00318C46.9361 5.32984 46.8381 5.58184 46.6421 5.75918C46.4554 5.92718 46.2127 6.01118 45.9141 6.01118C45.6061 6.01118 45.3587 5.92251 45.1721 5.74518C44.9947 5.55851 44.9061 5.31118 44.9061 5.00318Z" fill="white"/>
<path d="M48.9485 8.44718L48.7385 7.14518C49.4105 6.92118 50.1805 6.80918 51.0485 6.80918C52.0751 6.80918 52.8031 7.04251 53.2325 7.50918C53.6618 7.96651 53.8765 8.80651 53.8765 10.0292V12.6612C53.8765 13.0532 54.0165 13.2492 54.2965 13.2492C54.4271 13.2492 54.5765 13.2165 54.7445 13.1512L54.8705 14.3272C54.5158 14.4765 54.1191 14.5512 53.6805 14.5512C53.0085 14.5512 52.5978 14.2665 52.4485 13.6972C51.8418 14.2665 51.1371 14.5512 50.3345 14.5512C49.6158 14.5512 49.0651 14.3318 48.6825 13.8932C48.3091 13.4545 48.1225 12.8945 48.1225 12.2132C48.1225 10.4865 49.0838 9.62318 51.0065 9.62318C51.3891 9.62318 51.7858 9.66985 52.1965 9.76318V9.44118C52.1965 8.57318 51.7065 8.13918 50.7265 8.13918C50.1945 8.13918 49.6018 8.24185 48.9485 8.44718ZM52.1965 12.5912V10.8692C51.8791 10.7572 51.5805 10.7012 51.3005 10.7012C50.3391 10.7012 49.8585 11.1538 49.8585 12.0592C49.8585 12.4232 49.9425 12.7125 50.1105 12.9272C50.2785 13.1325 50.5258 13.2352 50.8525 13.2352C51.3565 13.2352 51.8045 13.0205 52.1965 12.5912Z" fill="white"/>
<path d="M57.5066 6.94918L57.5626 7.69118C58.2346 7.10318 58.972 6.80918 59.7746 6.80918C60.9786 6.80918 61.66 7.32718 61.8186 8.36318C61.856 8.59651 61.8746 8.90918 61.8746 9.30118V14.4112H60.1246V9.52518C60.1246 9.23585 60.12 9.04451 60.1106 8.95118C60.0546 8.49385 59.7466 8.26518 59.1866 8.26518C58.7013 8.26518 58.1973 8.49851 57.6746 8.96518V14.4112H55.9106V6.94918H57.5066Z" fill="white"/>
<path d="M4.328 30.48V37.344H1V18.65H7.552C9.528 18.65 11.062 19.1093 12.154 20.028C13.246 20.9467 13.792 22.2813 13.792 24.032C13.792 25.9907 13.194 27.5593 11.998 28.738C10.8193 29.8993 9.22467 30.48 7.214 30.48H4.328ZM4.328 27.906H6.85C8.01133 27.906 8.88667 27.6027 9.476 26.996C10.0827 26.372 10.386 25.4707 10.386 24.292C10.386 22.2293 9.294 21.198 7.11 21.198H4.328V27.906Z" fill="#72BF44"/>
<path d="M16.221 23.486H19.471V37.344H16.221V23.486ZM15.961 19.872C15.961 19.2827 16.1343 18.8233 16.481 18.494C16.8276 18.1647 17.2783 18 17.833 18C18.4396 18 18.9076 18.1647 19.237 18.494C19.5663 18.806 19.731 19.2653 19.731 19.872C19.731 20.4787 19.549 20.9467 19.185 21.276C18.8383 21.588 18.3876 21.744 17.833 21.744C17.261 21.744 16.8016 21.5793 16.455 21.25C16.1256 20.9033 15.961 20.444 15.961 19.872Z" fill="#72BF44"/>
<path d="M25.7563 23.486L25.8603 24.864C27.1083 23.772 28.4776 23.226 29.9683 23.226C32.2043 23.226 33.4696 24.188 33.7643 26.112C33.8336 26.5453 33.8683 27.126 33.8683 27.854V37.344H30.6183V28.27C30.6183 27.7327 30.6096 27.3773 30.5923 27.204C30.4883 26.3547 29.9163 25.93 28.8763 25.93C27.9749 25.93 27.0389 26.3633 26.0683 27.23V37.344H22.7923V23.486H25.7563Z" fill="#72BF44"/>
<path d="M40.4599 23.486V38.748C40.4599 41.6947 39.0732 43.168 36.2999 43.168C35.0865 43.168 34.0205 42.9513 33.1019 42.518L33.5959 39.84C34.4625 40.256 35.2252 40.464 35.8839 40.464C36.3345 40.464 36.6639 40.3167 36.8719 40.022C37.0799 39.7447 37.1839 39.2333 37.1839 38.488V23.486H40.4599ZM36.9239 19.872C36.9239 19.2827 37.0972 18.8233 37.4439 18.494C37.7905 18.1647 38.2412 18 38.7959 18C39.4025 18 39.8705 18.1647 40.1999 18.494C40.5292 18.806 40.6939 19.2653 40.6939 19.872C40.6939 20.4787 40.5119 20.9467 40.1479 21.276C39.8012 21.588 39.3505 21.744 38.7959 21.744C38.2239 21.744 37.7645 21.5793 37.4179 21.25C37.0885 20.9033 36.9239 20.444 36.9239 19.872Z" fill="#72BF44"/>
<path d="M44.4306 26.268L44.0406 23.85C45.2886 23.434 46.7186 23.226 48.3306 23.226C50.2372 23.226 51.5892 23.6593 52.3866 24.526C53.1839 25.3753 53.5826 26.9353 53.5826 29.206V34.094C53.5826 34.822 53.8426 35.186 54.3626 35.186C54.6052 35.186 54.8826 35.1253 55.1946 35.004L55.4286 37.188C54.7699 37.4653 54.0332 37.604 53.2186 37.604C51.9706 37.604 51.2079 37.0753 50.9306 36.018C49.8039 37.0753 48.4952 37.604 47.0046 37.604C45.6699 37.604 44.6472 37.1967 43.9366 36.382C43.2432 35.5673 42.8966 34.5273 42.8966 33.262C42.8966 30.0553 44.6819 28.452 48.2526 28.452C48.9632 28.452 49.6999 28.5387 50.4626 28.712V28.114C50.4626 26.502 49.5526 25.696 47.7326 25.696C46.7446 25.696 45.6439 25.8867 44.4306 26.268ZM50.4626 33.964V30.766C49.8732 30.558 49.3186 30.454 48.7986 30.454C47.0132 30.454 46.1206 31.2947 46.1206 32.976C46.1206 33.652 46.2766 34.1893 46.5886 34.588C46.9006 34.9693 47.3599 35.16 47.9666 35.16C48.9026 35.16 49.7346 34.7613 50.4626 33.964Z" fill="#72BF44"/>
<path d="M64.5103 23.226C66.0529 23.226 67.1276 23.7547 67.7343 24.812C69.0343 23.7547 70.4383 23.226 71.9463 23.226C73.4196 23.226 74.4336 23.616 74.9883 24.396C75.5603 25.1587 75.8463 26.3113 75.8463 27.854V37.344H72.5963V28.27C72.5963 27.8193 72.5703 27.438 72.5183 27.126C72.3623 26.3287 71.8249 25.93 70.9063 25.93C70.0396 25.93 69.1643 26.3027 68.2803 27.048C68.2976 27.3253 68.3063 27.802 68.3063 28.478V37.344H65.0823V28.27C65.0823 27.7673 65.0649 27.4207 65.0303 27.23C64.9436 26.762 64.7789 26.4327 64.5363 26.242C64.2936 26.034 63.9469 25.93 63.4963 25.93C62.5083 25.93 61.5463 26.3633 60.6103 27.23V37.344H57.3343V23.486H60.2983L60.4023 24.838C61.6329 23.7633 63.0023 23.226 64.5103 23.226Z" fill="#72BF44"/>
<path d="M79.8153 26.268L79.4253 23.85C80.6733 23.434 82.1033 23.226 83.7153 23.226C85.622 23.226 86.974 23.6593 87.7713 24.526C88.5687 25.3753 88.9673 26.9353 88.9673 29.206V34.094C88.9673 34.822 89.2273 35.186 89.7473 35.186C89.99 35.186 90.2673 35.1253 90.5793 35.004L90.8133 37.188C90.1547 37.4653 89.418 37.604 88.6033 37.604C87.3553 37.604 86.5927 37.0753 86.3153 36.018C85.1887 37.0753 83.88 37.604 82.3893 37.604C81.0547 37.604 80.032 37.1967 79.3214 36.382C78.628 35.5673 78.2813 34.5273 78.2813 33.262C78.2813 30.0553 80.0667 28.452 83.6373 28.452C84.348 28.452 85.0847 28.5387 85.8473 28.712V28.114C85.8473 26.502 84.9373 25.696 83.1173 25.696C82.1293 25.696 81.0287 25.8867 79.8153 26.268ZM85.8473 33.964V30.766C85.258 30.558 84.7033 30.454 84.1833 30.454C82.398 30.454 81.5053 31.2947 81.5053 32.976C81.5053 33.652 81.6613 34.1893 81.9733 34.588C82.2853 34.9693 82.7447 35.16 83.3513 35.16C84.2873 35.16 85.1193 34.7613 85.8473 33.964Z" fill="#72BF44"/>
<path d="M95.6831 23.486L95.7871 24.864C97.0351 23.772 98.4044 23.226 99.8951 23.226C102.131 23.226 103.396 24.188 103.691 26.112C103.76 26.5453 103.795 27.126 103.795 27.854V37.344H100.545V28.27C100.545 27.7327 100.536 27.3773 100.519 27.204C100.415 26.3547 99.8431 25.93 98.8031 25.93C97.9017 25.93 96.9657 26.3633 95.9951 27.23V37.344H92.7191V23.486H95.6831Z" fill="#72BF44"/>
<path d="M109.669 37.6281L110.277 36.4121C111.278 37.3115 112.411 37.7611 113.678 37.7611C114.489 37.7611 115.16 37.5585 115.692 37.1531C116.224 36.7351 116.49 36.0955 116.49 35.2341C116.49 34.8288 116.427 34.4741 116.3 34.1701C116.186 33.8535 116.053 33.6001 115.901 33.4101C115.762 33.2201 115.521 33.0365 115.179 32.8591C114.837 32.6691 114.552 32.5361 114.324 32.4601C114.096 32.3715 113.735 32.2448 113.241 32.0801C112.836 31.9408 112.506 31.8205 112.253 31.7191C112.012 31.6178 111.727 31.4658 111.398 31.2631C111.081 31.0605 110.834 30.8451 110.657 30.6171C110.48 30.3765 110.321 30.0661 110.182 29.6861C110.055 29.2935 109.992 28.8565 109.992 28.3751C109.992 27.2731 110.378 26.3991 111.151 25.7531C111.924 25.0945 112.899 24.7651 114.077 24.7651C115.28 24.7651 116.211 25.0818 116.87 25.7151C117.529 26.3485 117.902 27.0578 117.991 27.8431L116.794 28.1851C116.629 27.4758 116.3 26.9438 115.806 26.5891C115.312 26.2218 114.717 26.0381 114.02 26.0381C113.298 26.0381 112.684 26.2345 112.177 26.6271C111.67 27.0071 111.417 27.5898 111.417 28.3751C111.417 28.6665 111.442 28.9261 111.493 29.1541C111.556 29.3695 111.664 29.5658 111.816 29.7431C111.968 29.9205 112.101 30.0661 112.215 30.1801C112.329 30.2815 112.532 30.3955 112.823 30.5221C113.114 30.6488 113.323 30.7375 113.45 30.7881C113.589 30.8388 113.849 30.9275 114.229 31.0541C114.66 31.2061 114.964 31.3138 115.141 31.3771C115.318 31.4405 115.591 31.5608 115.958 31.7381C116.325 31.9028 116.591 32.0738 116.756 32.2511C116.933 32.4158 117.123 32.6375 117.326 32.9161C117.541 33.1821 117.693 33.4988 117.782 33.8661C117.871 34.2208 117.915 34.6261 117.915 35.0821C117.915 36.2728 117.548 37.2228 116.813 37.9321C116.078 38.6288 115.021 38.9771 113.64 38.9771C112.728 38.9771 111.924 38.8378 111.227 38.5591C110.53 38.2678 110.011 37.9575 109.669 37.6281Z" fill="#72BF44"/>
<path d="M127.189 33.8281H121.394C121.394 36.4881 122.344 37.8181 124.244 37.8181C125.118 37.8181 126.011 37.5775 126.923 37.0961L127.037 38.2361C126.189 38.7048 125.207 38.9391 124.092 38.9391C121.42 38.9391 120.083 37.1595 120.083 33.6001C120.083 31.8395 120.419 30.5475 121.09 29.7241C121.762 28.8881 122.686 28.4701 123.864 28.4701C125.017 28.4701 125.859 28.8691 126.391 29.6671C126.923 30.4525 127.189 31.6178 127.189 33.1631V33.8281ZM125.878 32.8211C125.878 31.7571 125.695 30.9528 125.327 30.4081C124.973 29.8508 124.46 29.5721 123.788 29.5721C123.016 29.5721 122.427 29.9015 122.021 30.5601C121.616 31.2061 121.413 31.9598 121.413 32.8211H125.878Z" fill="#72BF44"/>
<path d="M133.393 28.4701C134.305 28.4701 134.945 28.9895 135.312 30.0281L134.267 30.5981C134.115 30.2688 133.957 30.0345 133.792 29.8951C133.628 29.7431 133.387 29.6671 133.07 29.6671C132.475 29.6671 131.797 30.1041 131.037 30.9781V38.7111H129.764V28.6791H130.961V29.8001C131.772 28.9135 132.583 28.4701 133.393 28.4701Z" fill="#72BF44"/>
<path d="M138.292 29.7811C139.52 28.9198 140.527 28.4891 141.313 28.4891C142.25 28.4891 142.985 28.8565 143.517 29.5911C144.061 30.3258 144.334 31.4215 144.334 32.8781C144.334 36.8935 142.94 38.9011 140.154 38.9011C139.014 38.9011 137.975 38.6161 137.038 38.0461V25.0501H138.292V29.7811ZM142.947 33.3721C142.947 31.9788 142.776 31.0161 142.434 30.4841C142.104 29.9521 141.623 29.6861 140.99 29.6861C140.293 29.6861 139.394 30.0725 138.292 30.8451V37.3431C138.849 37.6598 139.476 37.8181 140.173 37.8181C141.161 37.8181 141.87 37.4001 142.301 36.5641C142.731 35.7281 142.947 34.6641 142.947 33.3721Z" fill="#72BF44"/>
<path d="M147.21 29.9331L147.077 28.8121C147.9 28.5841 148.857 28.4701 149.946 28.4701C152.049 28.4701 153.1 29.5088 153.1 31.5861V36.9631C153.1 37.2671 153.151 37.4825 153.252 37.6091C153.366 37.7358 153.55 37.7991 153.803 37.7991C154.006 37.7991 154.278 37.7358 154.62 37.6091L154.734 38.6541C154.215 38.8188 153.797 38.9011 153.48 38.9011C153.037 38.9011 152.682 38.7871 152.416 38.5591C152.15 38.3185 151.998 38.0271 151.96 37.6851C151.048 38.4958 150.085 38.9011 149.072 38.9011C148.147 38.9011 147.444 38.6098 146.963 38.0271C146.482 37.4445 146.241 36.7035 146.241 35.8041C146.241 34.6261 146.577 33.7585 147.248 33.2011C147.932 32.6311 148.882 32.3461 150.098 32.3461C150.706 32.3461 151.289 32.4095 151.846 32.5361V31.8141C151.846 31.0288 151.675 30.4588 151.333 30.1041C150.991 29.7495 150.396 29.5721 149.547 29.5721C148.749 29.5721 147.97 29.6925 147.21 29.9331ZM151.846 36.6781L151.865 33.5241C151.308 33.3848 150.788 33.3151 150.307 33.3151C149.395 33.3151 148.711 33.5051 148.255 33.8851C147.812 34.2651 147.59 34.8921 147.59 35.7661C147.59 36.3488 147.736 36.8301 148.027 37.2101C148.331 37.5901 148.774 37.7801 149.357 37.7801C150.231 37.7801 151.061 37.4128 151.846 36.6781Z" fill="#72BF44"/>
<path d="M159.599 28.4701C160.321 28.4701 161.112 28.7615 161.974 29.3441V28.6791H163.247V38.4261C163.247 38.9708 163.221 39.4458 163.171 39.8511C163.12 40.2691 163.012 40.6745 162.848 41.0671C162.696 41.4598 162.487 41.7828 162.221 42.0361C161.955 42.2895 161.6 42.4921 161.157 42.6441C160.713 42.7961 160.188 42.8721 159.58 42.8721C158.376 42.8721 157.325 42.6125 156.426 42.0931L156.654 40.8961C157.008 41.1115 157.471 41.3078 158.041 41.4851C158.623 41.6751 159.181 41.7701 159.713 41.7701C160.207 41.7701 160.612 41.6751 160.929 41.4851C161.258 41.3078 161.499 41.0418 161.651 40.6871C161.803 40.3325 161.904 39.9651 161.955 39.5851C162.018 39.2178 162.05 38.7745 162.05 38.2551V37.6661C161.201 38.4895 160.302 38.9011 159.352 38.9011C158.3 38.9011 157.464 38.4768 156.844 37.6281C156.223 36.7795 155.913 35.5191 155.913 33.8471C155.913 33.1758 155.976 32.5425 156.103 31.9471C156.242 31.3391 156.445 30.7691 156.711 30.2371C156.989 29.6925 157.376 29.2618 157.87 28.9451C158.364 28.6285 158.94 28.4701 159.599 28.4701ZM157.243 33.9231C157.243 35.1518 157.458 36.1018 157.889 36.7731C158.319 37.4445 158.883 37.7801 159.58 37.7801C160.454 37.7801 161.258 37.3495 161.993 36.4881V30.5981C161.144 29.9395 160.384 29.6101 159.713 29.6101C158.066 29.6101 157.243 31.0478 157.243 33.9231Z" fill="#72BF44"/>
<path d="M169.067 38.9011C167.547 38.9011 166.673 38.2488 166.445 36.9441C166.394 36.6528 166.369 36.2411 166.369 35.7091V28.8501L167.623 28.6791V35.5381C167.623 36.0195 167.648 36.3615 167.699 36.5641C167.826 37.3748 168.383 37.7801 169.371 37.7801C170.308 37.7801 171.303 37.2861 172.354 36.2981V28.6791H173.646V38.7111H172.354V37.4761C171.252 38.4261 170.156 38.9011 169.067 38.9011Z" fill="#72BF44"/>
<path d="M181.472 28.4701C182.979 28.4701 183.859 29.1288 184.113 30.4461C184.151 30.6615 184.17 31.0731 184.17 31.6811V38.7111H182.916V31.8521C182.916 31.4088 182.897 31.0668 182.859 30.8261C182.707 30.0281 182.124 29.6291 181.111 29.6291C180.186 29.6291 179.211 30.1168 178.185 31.0921V38.7111H176.912V28.6791H178.185V29.9331C179.261 28.9578 180.357 28.4701 181.472 28.4701Z" fill="#72BF44"/>
<path d="M187.622 29.9331L187.489 28.8121C188.313 28.5841 189.269 28.4701 190.358 28.4701C192.461 28.4701 193.512 29.5088 193.512 31.5861V36.9631C193.512 37.2671 193.563 37.4825 193.664 37.6091C193.778 37.7358 193.962 37.7991 194.215 37.7991C194.418 37.7991 194.69 37.7358 195.032 37.6091L195.146 38.6541C194.627 38.8188 194.209 38.9011 193.892 38.9011C193.449 38.9011 193.094 38.7871 192.828 38.5591C192.562 38.3185 192.41 38.0271 192.372 37.6851C191.46 38.4958 190.498 38.9011 189.484 38.9011C188.56 38.9011 187.857 38.6098 187.375 38.0271C186.894 37.4445 186.653 36.7035 186.653 35.8041C186.653 34.6261 186.989 33.7585 187.66 33.2011C188.344 32.6311 189.294 32.3461 190.51 32.3461C191.118 32.3461 191.701 32.4095 192.258 32.5361V31.8141C192.258 31.0288 192.087 30.4588 191.745 30.1041C191.403 29.7495 190.808 29.5721 189.959 29.5721C189.161 29.5721 188.382 29.6925 187.622 29.9331ZM192.258 36.6781L192.277 33.5241C191.72 33.3848 191.201 33.3151 190.719 33.3151C189.807 33.3151 189.123 33.5051 188.667 33.8851C188.224 34.2651 188.002 34.8921 188.002 35.7661C188.002 36.3488 188.148 36.8301 188.439 37.2101C188.743 37.5901 189.187 37.7801 189.769 37.7801C190.643 37.7801 191.473 37.4128 192.258 36.6781Z" fill="#72BF44"/>
</svg>
