<svg width="60" height="36" viewBox="0 0 60 36" fill="none" xmlns="http://www.w3.org/2000/svg">
<path fill-rule="evenodd" clip-rule="evenodd" d="M22.1287 27.7945C20.5396 29.1871 18.6757 30.0255 16.6169 30.3945C10.3114 31.5264 4.34133 27.7905 2.60085 21.6588C2.4283 21.0498 2.30366 20.4315 2.23708 19.8018C2.14248 19.6142 2.27483 19.3942 2.15344 19.2098C2.15344 18.6577 2.15344 18.1055 2.15344 17.5534C2.25535 17.3959 2.18024 17.2209 2.20379 17.0548C2.24438 14.8048 3.14487 12.8626 4.42213 11.0839C6.21012 8.59396 8.6619 7.06987 11.6204 6.33583C12.0942 6.2181 12.5813 6.20267 13.0677 6.20307C13.2614 6.1779 13.4644 6.2587 13.6511 6.15314C14.1708 6.15314 14.6905 6.15314 15.2101 6.15314C15.3697 6.25504 15.5463 6.17993 15.7136 6.20348C18.0943 6.27087 20.117 7.25662 21.9821 8.64552C22.0868 8.72347 22.1689 8.82538 22.1855 8.96463C22.1457 9.28821 21.8847 9.45791 21.6776 9.65157C19.6131 11.5768 18.4098 13.9563 18.0375 16.7345C17.6567 19.5752 18.1942 22.2507 19.7085 24.7062C20.2388 25.5665 20.8672 26.3476 21.607 27.0394C21.8067 27.2262 22.0239 27.4028 22.1563 27.6525C22.1749 27.7052 22.1652 27.7527 22.1287 27.7945Z" fill="#BCD430"/>
<path fill-rule="evenodd" clip-rule="evenodd" d="M22.1287 27.7945C22.123 27.7645 22.1193 27.7345 22.1173 27.704C22.786 27.091 23.4149 26.441 23.9662 25.7187C25.3815 23.8658 26.176 21.7814 26.3985 19.4547C26.61 17.2436 26.2065 15.1552 25.2731 13.1667C24.6056 11.7449 23.6917 10.4867 22.503 9.4433C22.3573 9.31541 22.1896 9.20417 22.1815 8.98087C22.2261 8.72753 22.4425 8.61507 22.6175 8.48475C24.0137 7.44825 25.5548 6.71584 27.2547 6.33421C27.7127 6.23109 28.1832 6.2116 28.6526 6.20348C28.8478 6.1779 29.0525 6.2587 29.2413 6.15314C29.7284 6.15314 30.2156 6.15314 30.7028 6.15314C30.8904 6.27372 31.1121 6.14339 31.3037 6.23555C33.8058 6.49458 36.0165 7.42998 37.9189 9.08237C37.9534 9.33693 37.7578 9.45913 37.6071 9.59554C36.2523 10.8273 35.1992 12.2763 34.5524 13.9892C32.9187 18.315 33.5212 22.3303 36.297 26.024C36.6396 26.4799 37.042 26.8798 37.4415 27.2842C37.5828 27.4271 37.787 27.5469 37.7419 27.8035C36.2946 29.0945 34.5886 29.8935 32.7149 30.2971C28.9713 31.103 25.5565 30.332 22.4969 28.0182C22.382 27.9306 22.2838 27.8153 22.1287 27.7945Z" fill="#74BD45"/>
<path fill-rule="evenodd" clip-rule="evenodd" d="M13.0535 6.23595C13.0608 6.20875 13.0649 6.18114 13.0669 6.15313C13.2618 6.15313 13.4567 6.15313 13.6516 6.15313C13.4701 6.31269 13.2573 6.24367 13.0535 6.23595Z" fill="#D9E68B"/>
<path fill-rule="evenodd" clip-rule="evenodd" d="M28.6473 6.23716C28.6542 6.20955 28.6574 6.18154 28.6566 6.15312C28.8515 6.15312 29.0464 6.15312 29.2412 6.15312C29.0602 6.3009 28.8503 6.24568 28.6473 6.23716Z" fill="#BDDFA8"/>
<path fill-rule="evenodd" clip-rule="evenodd" d="M31.3037 6.23554C31.0983 6.24528 30.8847 6.31673 30.7028 6.15312C30.8977 6.15312 31.0926 6.15312 31.2874 6.15312C31.2899 6.18113 31.2956 6.20833 31.3037 6.23554Z" fill="#A7D58A"/>
<path fill-rule="evenodd" clip-rule="evenodd" d="M2.15347 19.2098C2.29841 19.3905 2.24319 19.5996 2.23751 19.8018C2.2095 19.8018 2.18148 19.7993 2.15347 19.7945C2.15347 19.5996 2.15347 19.4047 2.15347 19.2098Z" fill="#E5EEB1"/>
<path fill-rule="evenodd" clip-rule="evenodd" d="M15.6974 6.15313C15.7002 6.17992 15.7039 6.20672 15.7088 6.23351C15.5362 6.24569 15.3572 6.29847 15.2102 6.15313C15.3726 6.15313 15.535 6.15313 15.6974 6.15313Z" fill="#E0EBA0"/>
<path fill-rule="evenodd" clip-rule="evenodd" d="M2.15344 17.0662C2.17821 17.0532 2.20419 17.0487 2.2318 17.0532C2.24642 17.2262 2.2992 17.4056 2.15344 17.5534C2.15344 17.391 2.15344 17.2286 2.15344 17.0662Z" fill="#DFEBA0"/>
<path fill-rule="evenodd" clip-rule="evenodd" d="M37.7419 27.8027C36.9514 26.9472 36.1163 26.1324 35.4927 25.1329C34.4469 23.4561 33.7989 21.6563 33.6113 19.6775C33.2943 16.3285 34.2366 13.3717 36.3124 10.7632C36.7931 10.1591 37.3806 9.63979 37.9193 9.08155C38.9984 8.30489 40.106 7.58506 41.3585 7.10031C48.6529 4.27623 56.75 8.98939 57.8722 16.7231C58.836 23.3672 54.2414 29.6223 47.6432 30.5861C44.0953 31.1042 40.8883 30.2402 38.0691 27.9996C37.9688 27.9204 37.8836 27.8144 37.7419 27.8027Z" fill="#0AA94E"/>
<path fill-rule="evenodd" clip-rule="evenodd" d="M22.145 8.98411C22.1726 8.98005 22.2002 8.98248 22.227 8.9906C23.1936 9.85821 24.0588 10.8127 24.7405 11.9243C25.7627 13.5905 26.3608 15.3866 26.528 17.3447C26.7838 20.3397 26.0197 23.0408 24.2996 25.4796C23.7596 26.2449 23.1676 26.9765 22.4145 27.5562C22.3228 27.6265 22.2383 27.6983 22.1178 27.7044C19.4926 25.4008 17.9953 22.5341 17.8252 19.0227C17.6409 15.2149 18.9766 12.0144 21.7345 9.39578C21.875 9.2618 22.0081 9.12133 22.145 8.98411Z" fill="#0AA94E"/>
<path fill-rule="evenodd" clip-rule="evenodd" d="M40.3415 14.4894C40.0577 14.6587 39.8555 14.7569 39.6789 14.8889C39.4268 15.0772 39.2408 15.0366 39.0711 14.7837C38.8832 14.504 39.0671 14.3708 39.2721 14.2433C41.4888 12.8654 43.898 12.2325 46.5044 12.4269C48.5429 12.5792 50.4296 13.2349 52.1944 14.2543C52.4035 14.3753 52.6581 14.4683 52.4709 14.8012C52.2931 15.117 52.0706 15.0651 51.8177 14.9157C51.6553 14.8194 51.4868 14.7334 51.3 14.6319C51.2801 14.8365 51.3865 14.9668 51.4478 15.1081C52.4778 17.4856 53.5107 19.8619 54.5427 22.239C54.8529 22.9527 54.7331 23.3798 54.0807 23.817C53.4753 24.223 52.7884 24.4114 52.0759 24.5097C50.8417 24.6794 49.6172 24.655 48.4146 24.2872C48.0086 24.1629 47.6226 23.9961 47.2844 23.7367C46.742 23.3205 46.6376 22.9198 46.9113 22.2889C48.0127 19.7482 49.1044 17.2026 50.2343 14.6745C50.4223 14.2539 50.32 14.1418 49.9428 13.9969C47.1459 12.9194 44.3519 12.8638 41.5384 13.9356C41.1604 14.0793 41.1003 14.2133 41.2659 14.5872C42.3926 17.1344 43.4948 19.693 44.6048 22.2475C44.9065 22.9417 44.7956 23.3635 44.1724 23.7951C43.5582 24.2206 42.8546 24.4126 42.1262 24.5121C40.892 24.6806 39.6671 24.6546 38.4646 24.2856C38.1374 24.1853 37.8247 24.0529 37.5353 23.8706C36.8012 23.4086 36.6725 22.9904 37.018 22.1943C38.0497 19.8172 39.0817 17.4405 40.1129 15.0634C40.1803 14.9067 40.2392 14.7468 40.3415 14.4894Z" fill="#FEFEFE"/>
<path fill-rule="evenodd" clip-rule="evenodd" d="M37.8304 22.1029C37.8897 21.943 37.9181 21.852 37.9559 21.7652C38.8897 19.611 39.8243 17.4568 40.7593 15.3018C40.8782 15.3574 40.901 15.4524 40.9383 15.5389C41.8278 17.5899 42.7125 19.643 43.6142 21.6884C43.7587 22.0165 43.7494 22.1151 43.3487 22.1115C41.5311 22.0924 39.713 22.1029 37.8304 22.1029Z" fill="#0AA94E"/>
<path fill-rule="evenodd" clip-rule="evenodd" d="M53.7182 22.0802C51.7061 22.0802 49.7679 22.0802 47.7631 22.0802C48.7508 19.7989 49.7195 17.5611 50.737 15.2112C51.7471 17.5392 52.719 19.7786 53.7182 22.0802Z" fill="#0AA94E"/>
</svg>
