<svg width="240" height="48" viewBox="0 0 240 48" fill="none" xmlns="http://www.w3.org/2000/svg">
<path d="M2.792 14.416H1V4.35H4.528C5.58267 4.35 6.404 4.59267 6.992 5.078C7.58933 5.56333 7.888 6.28667 7.888 7.248C7.888 7.78 7.804 8.26067 7.636 8.69C7.47733 9.11 7.244 9.474 6.936 9.782C6.628 10.0807 6.25467 10.314 5.816 10.482C5.37733 10.6407 4.88733 10.72 4.346 10.72H2.792V14.416ZM4.15 9.334C4.77533 9.334 5.24667 9.17067 5.564 8.844C5.89067 8.508 6.054 8.02267 6.054 7.388C6.054 6.78133 5.9 6.352 5.592 6.1C5.284 5.848 4.85 5.722 4.29 5.722H2.792V9.334H4.15Z" fill="white"/>
<path d="M10.1177 10.986C10.1364 11.6953 10.2997 12.232 10.6077 12.596C10.9157 12.96 11.3357 13.142 11.8677 13.142C12.2224 13.142 12.5631 13.0953 12.8897 13.002C13.2257 12.8993 13.5524 12.7593 13.8697 12.582L13.9677 14.052C13.7251 14.1827 13.3984 14.304 12.9877 14.416C12.5864 14.5187 12.1524 14.57 11.6857 14.57C11.0231 14.57 10.4771 14.4627 10.0477 14.248C9.61839 14.0333 9.27772 13.7487 9.02572 13.394C8.77372 13.03 8.59639 12.61 8.49372 12.134C8.39105 11.6487 8.33972 11.14 8.33972 10.608C8.33972 9.936 8.41439 9.362 8.56372 8.886C8.72239 8.40067 8.93705 8.004 9.20772 7.696C9.48772 7.388 9.80972 7.164 10.1737 7.024C10.5471 6.884 10.9437 6.814 11.3637 6.814C12.3251 6.814 13.0204 7.11733 13.4497 7.724C13.8884 8.33067 14.1077 9.194 14.1077 10.314V10.986H10.1177ZM12.4557 9.894C12.4557 9.278 12.3577 8.82533 12.1617 8.536C11.9657 8.24667 11.6904 8.102 11.3357 8.102C11.1211 8.102 10.9391 8.15333 10.7897 8.256C10.6404 8.34933 10.5144 8.48 10.4117 8.648C10.3184 8.80667 10.2484 8.99333 10.2017 9.208C10.1551 9.42267 10.1317 9.65133 10.1317 9.894H12.4557Z" fill="white"/>
<path d="M19.5713 7.43L19.6413 6.954H21.2093V14.304C21.2093 14.7427 21.1627 15.158 21.0693 15.55C20.9853 15.9513 20.8313 16.2967 20.6073 16.586C20.3833 16.8847 20.0753 17.118 19.6833 17.286C19.3007 17.4633 18.8107 17.552 18.2133 17.552C17.952 17.552 17.6953 17.5333 17.4433 17.496C17.1913 17.468 16.9487 17.426 16.7153 17.37C16.4913 17.3233 16.2813 17.2673 16.0853 17.202C15.8987 17.1367 15.7353 17.0713 15.5953 17.006L15.8613 15.48C16.1413 15.648 16.4867 15.7927 16.8973 15.914C17.3173 16.0353 17.7093 16.096 18.0733 16.096C18.6053 16.096 18.9787 15.928 19.1933 15.592C19.408 15.256 19.5153 14.7987 19.5153 14.22V13.772C19.338 13.9587 19.1047 14.1313 18.8153 14.29C18.526 14.4393 18.1713 14.514 17.7513 14.514C17.3593 14.514 17 14.4393 16.6733 14.29C16.356 14.1407 16.076 13.912 15.8333 13.604C15.6 13.296 15.418 12.9087 15.2873 12.442C15.1567 11.966 15.0913 11.4013 15.0913 10.748C15.0913 10.2627 15.1427 9.78667 15.2453 9.32C15.3573 8.844 15.5253 8.424 15.7493 8.06C15.9733 7.68667 16.258 7.388 16.6033 7.164C16.958 6.93067 17.3827 6.814 17.8773 6.814C18.2787 6.814 18.6147 6.87933 18.8853 7.01C19.156 7.13133 19.3847 7.27133 19.5713 7.43ZM19.4593 8.648C19.2727 8.51733 19.0813 8.40533 18.8853 8.312C18.6987 8.21867 18.498 8.172 18.2833 8.172C18.0967 8.172 17.9193 8.20933 17.7513 8.284C17.5927 8.35867 17.448 8.494 17.3173 8.69C17.196 8.87667 17.098 9.138 17.0233 9.474C16.9487 9.81 16.9113 10.244 16.9113 10.776C16.9113 11.5693 17.028 12.162 17.2613 12.554C17.4947 12.9367 17.8213 13.128 18.2413 13.128C18.5027 13.128 18.7313 13.072 18.9273 12.96C19.1327 12.8387 19.31 12.7033 19.4593 12.554V8.648Z" fill="white"/>
<path d="M23.1539 7.15C23.2659 7.11267 23.4059 7.07533 23.5739 7.038C23.7512 6.99133 23.9426 6.954 24.1479 6.926C24.3532 6.88867 24.5679 6.86067 24.7919 6.842C25.0159 6.82333 25.2399 6.814 25.4639 6.814C25.9586 6.814 26.3832 6.86533 26.7379 6.968C27.1019 7.07067 27.3959 7.24333 27.6199 7.486C27.8532 7.72867 28.0212 8.06 28.1239 8.48C28.2359 8.89067 28.2919 9.40867 28.2919 10.034V12.666C28.2919 12.8527 28.3199 12.9973 28.3759 13.1C28.4412 13.2027 28.5532 13.254 28.7119 13.254C28.8426 13.254 28.9919 13.2213 29.1599 13.156L29.2859 14.332C29.0992 14.4067 28.9032 14.4627 28.6979 14.5C28.4926 14.5373 28.2919 14.556 28.0959 14.556C27.7506 14.556 27.4752 14.4813 27.2699 14.332C27.0739 14.1733 26.9386 13.9633 26.8639 13.702C26.6212 13.926 26.3226 14.1267 25.9679 14.304C25.6132 14.472 25.2072 14.556 24.7499 14.556C24.3672 14.556 24.0359 14.4953 23.7559 14.374C23.4852 14.2527 23.2566 14.0847 23.0699 13.87C22.8926 13.6553 22.7572 13.408 22.6639 13.128C22.5799 12.848 22.5379 12.5447 22.5379 12.218C22.5379 11.3407 22.7852 10.692 23.2799 10.272C23.7746 9.84267 24.4886 9.628 25.4219 9.628C25.6366 9.628 25.8326 9.642 26.0099 9.67C26.1966 9.68867 26.3972 9.72133 26.6119 9.768V9.446C26.6119 8.97 26.4859 8.634 26.2339 8.438C25.9819 8.242 25.6179 8.144 25.1419 8.144C24.8152 8.144 24.4979 8.17667 24.1899 8.242C23.8819 8.30733 23.6066 8.37733 23.3639 8.452L23.1539 7.15ZM26.6119 10.874C26.4906 10.8273 26.3552 10.79 26.2059 10.762C26.0566 10.7247 25.8932 10.706 25.7159 10.706C25.2586 10.706 24.9039 10.8087 24.6519 11.014C24.3999 11.2193 24.2739 11.5693 24.2739 12.064C24.2739 12.4187 24.3532 12.7033 24.5119 12.918C24.6799 13.1327 24.9319 13.24 25.2679 13.24C25.5199 13.24 25.7672 13.1747 26.0099 13.044C26.2526 12.9133 26.4532 12.764 26.6119 12.596V10.874Z" fill="white"/>
<path d="M34.1793 7.29V4.35H35.9293V14.416H34.3613L34.3053 13.758C34.128 13.9447 33.8947 14.1267 33.6053 14.304C33.316 14.472 32.938 14.556 32.4713 14.556C32.0793 14.556 31.72 14.4813 31.3933 14.332C31.076 14.1733 30.796 13.94 30.5533 13.632C30.32 13.3147 30.138 12.918 30.0073 12.442C29.8767 11.9567 29.8113 11.392 29.8113 10.748C29.8113 10.2533 29.8627 9.77267 29.9653 9.306C30.0773 8.83 30.2453 8.41 30.4693 8.046C30.7027 7.67267 30.9967 7.374 31.3513 7.15C31.7153 6.926 32.1493 6.814 32.6533 6.814C32.9987 6.814 33.2927 6.86067 33.5353 6.954C33.778 7.04733 33.9927 7.15933 34.1793 7.29ZM34.1933 8.62C34.0067 8.48933 33.82 8.37733 33.6333 8.284C33.4467 8.19067 33.246 8.144 33.0313 8.144C32.8447 8.144 32.6673 8.186 32.4993 8.27C32.3313 8.34467 32.182 8.48 32.0513 8.676C31.93 8.872 31.8273 9.14267 31.7433 9.488C31.6687 9.824 31.6313 10.2533 31.6313 10.776C31.6313 11.5693 31.748 12.1713 31.9813 12.582C32.224 12.9833 32.5553 13.184 32.9753 13.184C33.2273 13.184 33.456 13.128 33.6613 13.016C33.8667 12.8947 34.044 12.7593 34.1933 12.61V8.62Z" fill="white"/>
<path d="M37.8739 7.15C37.9859 7.11267 38.1259 7.07533 38.2939 7.038C38.4713 6.99133 38.6626 6.954 38.8679 6.926C39.0733 6.88867 39.2879 6.86067 39.5119 6.842C39.7359 6.82333 39.9599 6.814 40.1839 6.814C40.6786 6.814 41.1033 6.86533 41.4579 6.968C41.8219 7.07067 42.1159 7.24333 42.3399 7.486C42.5733 7.72867 42.7413 8.06 42.8439 8.48C42.9559 8.89067 43.0119 9.40867 43.0119 10.034V12.666C43.0119 12.8527 43.0399 12.9973 43.0959 13.1C43.1613 13.2027 43.2733 13.254 43.4319 13.254C43.5626 13.254 43.7119 13.2213 43.8799 13.156L44.0059 14.332C43.8193 14.4067 43.6233 14.4627 43.4179 14.5C43.2126 14.5373 43.0119 14.556 42.8159 14.556C42.4706 14.556 42.1953 14.4813 41.9899 14.332C41.7939 14.1733 41.6586 13.9633 41.5839 13.702C41.3413 13.926 41.0426 14.1267 40.6879 14.304C40.3333 14.472 39.9273 14.556 39.4699 14.556C39.0873 14.556 38.7559 14.4953 38.4759 14.374C38.2053 14.2527 37.9766 14.0847 37.7899 13.87C37.6126 13.6553 37.4773 13.408 37.3839 13.128C37.2999 12.848 37.2579 12.5447 37.2579 12.218C37.2579 11.3407 37.5053 10.692 37.9999 10.272C38.4946 9.84267 39.2086 9.628 40.1419 9.628C40.3566 9.628 40.5526 9.642 40.7299 9.67C40.9166 9.68867 41.1173 9.72133 41.3319 9.768V9.446C41.3319 8.97 41.2059 8.634 40.9539 8.438C40.7019 8.242 40.3379 8.144 39.8619 8.144C39.5353 8.144 39.2179 8.17667 38.9099 8.242C38.6019 8.30733 38.3266 8.37733 38.0839 8.452L37.8739 7.15ZM41.3319 10.874C41.2106 10.8273 41.0753 10.79 40.9259 10.762C40.7766 10.7247 40.6133 10.706 40.4359 10.706C39.9786 10.706 39.6239 10.8087 39.3719 11.014C39.1199 11.2193 38.9939 11.5693 38.9939 12.064C38.9939 12.4187 39.0733 12.7033 39.2319 12.918C39.3999 13.1327 39.6519 13.24 39.9879 13.24C40.2399 13.24 40.4873 13.1747 40.7299 13.044C40.9726 12.9133 41.1733 12.764 41.3319 12.596V10.874Z" fill="white"/>
<path d="M46.7961 6.954V14.416H45.0461V6.954H46.7961ZM44.9061 5.008C44.9061 4.68133 44.9994 4.434 45.1861 4.266C45.3821 4.08867 45.6247 4 45.9141 4C46.2407 4 46.4927 4.08867 46.6701 4.266C46.8474 4.434 46.9361 4.68133 46.9361 5.008C46.9361 5.35333 46.8381 5.61 46.6421 5.778C46.4461 5.93667 46.2034 6.016 45.9141 6.016C45.6154 6.016 45.3727 5.92733 45.1861 5.75C44.9994 5.57267 44.9061 5.32533 44.9061 5.008Z" fill="white"/>
<path d="M48.7385 7.15C48.8505 7.11267 48.9905 7.07533 49.1585 7.038C49.3358 6.99133 49.5271 6.954 49.7325 6.926C49.9378 6.88867 50.1525 6.86067 50.3765 6.842C50.6005 6.82333 50.8245 6.814 51.0485 6.814C51.5431 6.814 51.9678 6.86533 52.3225 6.968C52.6865 7.07067 52.9805 7.24333 53.2045 7.486C53.4378 7.72867 53.6058 8.06 53.7085 8.48C53.8205 8.89067 53.8765 9.40867 53.8765 10.034V12.666C53.8765 12.8527 53.9045 12.9973 53.9605 13.1C54.0258 13.2027 54.1378 13.254 54.2965 13.254C54.4271 13.254 54.5765 13.2213 54.7445 13.156L54.8705 14.332C54.6838 14.4067 54.4878 14.4627 54.2825 14.5C54.0771 14.5373 53.8765 14.556 53.6805 14.556C53.3351 14.556 53.0598 14.4813 52.8545 14.332C52.6585 14.1733 52.5231 13.9633 52.4485 13.702C52.2058 13.926 51.9071 14.1267 51.5525 14.304C51.1978 14.472 50.7918 14.556 50.3345 14.556C49.9518 14.556 49.6205 14.4953 49.3405 14.374C49.0698 14.2527 48.8411 14.0847 48.6545 13.87C48.4771 13.6553 48.3418 13.408 48.2485 13.128C48.1645 12.848 48.1225 12.5447 48.1225 12.218C48.1225 11.3407 48.3698 10.692 48.8645 10.272C49.3591 9.84267 50.0731 9.628 51.0065 9.628C51.2211 9.628 51.4171 9.642 51.5945 9.67C51.7811 9.68867 51.9818 9.72133 52.1965 9.768V9.446C52.1965 8.97 52.0705 8.634 51.8185 8.438C51.5665 8.242 51.2025 8.144 50.7265 8.144C50.3998 8.144 50.0825 8.17667 49.7745 8.242C49.4665 8.30733 49.1911 8.37733 48.9485 8.452L48.7385 7.15ZM52.1965 10.874C52.0751 10.8273 51.9398 10.79 51.7905 10.762C51.6411 10.7247 51.4778 10.706 51.3005 10.706C50.8431 10.706 50.4885 10.8087 50.2365 11.014C49.9845 11.2193 49.8585 11.5693 49.8585 12.064C49.8585 12.4187 49.9378 12.7033 50.0965 12.918C50.2645 13.1327 50.5165 13.24 50.8525 13.24C51.1045 13.24 51.3518 13.1747 51.5945 13.044C51.8371 12.9133 52.0378 12.764 52.1965 12.596V10.874Z" fill="white"/>
<path d="M57.5626 7.696C57.8333 7.45333 58.1553 7.248 58.5286 7.08C58.9113 6.90267 59.3266 6.814 59.7746 6.814C60.4186 6.814 60.8993 6.94933 61.2166 7.22C61.5433 7.49067 61.744 7.87333 61.8186 8.368C61.8373 8.49867 61.8513 8.65267 61.8606 8.83C61.87 9.00733 61.8746 9.166 61.8746 9.306V14.416H60.1246V9.53C60.1246 9.43667 60.1246 9.33867 60.1246 9.236C60.1246 9.124 60.12 9.03067 60.1106 8.956C60.0826 8.71333 59.9893 8.54067 59.8306 8.438C59.672 8.326 59.4573 8.27 59.1866 8.27C58.888 8.27 58.608 8.34467 58.3466 8.494C58.0853 8.64333 57.8613 8.802 57.6746 8.97V14.416H55.9106V6.954H57.5066L57.5626 7.696Z" fill="white"/>
<path d="M8.228 29.596H14.832V38.124C14.0347 38.5053 13.1593 38.8173 12.206 39.06C11.2527 39.3027 10.1867 39.424 9.008 39.424C6.252 39.424 4.224 38.618 2.924 37.006C1.64133 35.394 1 32.8547 1 29.388C1 28.036 1.13867 26.788 1.416 25.644C1.69333 24.4827 2.12667 23.486 2.716 22.654C3.32267 21.8047 4.08533 21.146 5.004 20.678C5.94 20.21 7.06667 19.976 8.384 19.976C9.35467 19.976 10.1867 20.0973 10.88 20.34C11.5907 20.5653 12.1887 20.8947 12.674 21.328C13.1767 21.7613 13.5753 22.29 13.87 22.914C14.182 23.5207 14.416 24.1967 14.572 24.942L11.478 25.696C11.3393 25.2107 11.1833 24.7773 11.01 24.396C10.854 24.0147 10.6547 23.694 10.412 23.434C10.1693 23.174 9.87467 22.9747 9.528 22.836C9.18133 22.6973 8.76533 22.628 8.28 22.628C7.708 22.628 7.188 22.758 6.72 23.018C6.252 23.2607 5.85333 23.6507 5.524 24.188C5.19467 24.7253 4.93467 25.4187 4.744 26.268C4.57067 27.1 4.484 28.1053 4.484 29.284C4.484 30.3933 4.54467 31.4073 4.666 32.326C4.78733 33.2447 5.01267 34.042 5.342 34.718C5.68867 35.3767 6.15667 35.888 6.746 36.252C7.33533 36.616 8.10667 36.798 9.06 36.798C9.54533 36.798 9.996 36.7547 10.412 36.668C10.8453 36.5813 11.2353 36.4687 11.582 36.33V32.092H8.228V29.596Z" fill="#00AB4E"/>
<path d="M18.0245 25.566C18.2325 25.4967 18.4925 25.4273 18.8045 25.358C19.1339 25.2713 19.4892 25.202 19.8705 25.15C20.2518 25.0807 20.6505 25.0287 21.0665 24.994C21.4825 24.9593 21.8985 24.942 22.3145 24.942C23.2332 24.942 24.0218 25.0373 24.6805 25.228C25.3565 25.4187 25.9025 25.7393 26.3185 26.19C26.7519 26.6407 27.0639 27.256 27.2545 28.036C27.4625 28.7987 27.5665 29.7607 27.5665 30.922V35.81C27.5665 36.1567 27.6185 36.4253 27.7225 36.616C27.8439 36.8067 28.0518 36.902 28.3465 36.902C28.5892 36.902 28.8665 36.8413 29.1785 36.72L29.4125 38.904C29.0658 39.0427 28.7018 39.1467 28.3205 39.216C27.9392 39.2853 27.5665 39.32 27.2025 39.32C26.5612 39.32 26.0499 39.1813 25.6685 38.904C25.3045 38.6093 25.0532 38.2193 24.9145 37.734C24.4639 38.15 23.9092 38.5227 23.2505 38.852C22.5918 39.164 21.8378 39.32 20.9885 39.32C20.2778 39.32 19.6625 39.2073 19.1425 38.982C18.6398 38.7567 18.2152 38.4447 17.8685 38.046C17.5392 37.6473 17.2878 37.188 17.1145 36.668C16.9585 36.148 16.8805 35.5847 16.8805 34.978C16.8805 33.3487 17.3398 32.144 18.2585 31.364C19.1772 30.5667 20.5032 30.168 22.2365 30.168C22.6352 30.168 22.9992 30.194 23.3285 30.246C23.6752 30.2807 24.0478 30.3413 24.4465 30.428V29.83C24.4465 28.946 24.2125 28.322 23.7445 27.958C23.2765 27.594 22.6005 27.412 21.7165 27.412C21.1098 27.412 20.5205 27.4727 19.9485 27.594C19.3765 27.7153 18.8652 27.8453 18.4145 27.984L18.0245 25.566ZM24.4465 32.482C24.2212 32.3953 23.9698 32.326 23.6925 32.274C23.4152 32.2047 23.1118 32.17 22.7825 32.17C21.9332 32.17 21.2745 32.3607 20.8065 32.742C20.3385 33.1233 20.1045 33.7733 20.1045 34.692C20.1045 35.3507 20.2519 35.8793 20.5465 36.278C20.8585 36.6767 21.3265 36.876 21.9505 36.876C22.4185 36.876 22.8778 36.7547 23.3285 36.512C23.7792 36.2693 24.1518 35.992 24.4465 35.68V32.482Z" fill="#00AB4E"/>
<path d="M38.4743 25.826V20.366H41.7243V39.06H38.8123L38.7083 37.838C38.379 38.1847 37.9457 38.5227 37.4083 38.852C36.871 39.164 36.169 39.32 35.3023 39.32C34.5743 39.32 33.907 39.1813 33.3003 38.904C32.711 38.6093 32.191 38.176 31.7403 37.604C31.307 37.0147 30.969 36.278 30.7263 35.394C30.4837 34.4927 30.3623 33.444 30.3623 32.248C30.3623 31.3293 30.4577 30.4367 30.6483 29.57C30.8563 28.686 31.1683 27.906 31.5843 27.23C32.0177 26.5367 32.5637 25.982 33.2223 25.566C33.8983 25.15 34.7043 24.942 35.6403 24.942C36.2817 24.942 36.8277 25.0287 37.2783 25.202C37.729 25.3753 38.1277 25.5833 38.4743 25.826ZM38.5003 28.296C38.1537 28.0533 37.807 27.8453 37.4603 27.672C37.1137 27.4987 36.741 27.412 36.3423 27.412C35.9957 27.412 35.6663 27.49 35.3543 27.646C35.0423 27.7847 34.765 28.036 34.5223 28.4C34.297 28.764 34.1063 29.2667 33.9503 29.908C33.8117 30.532 33.7423 31.3293 33.7423 32.3C33.7423 33.7733 33.959 34.8913 34.3923 35.654C34.843 36.3993 35.4583 36.772 36.2383 36.772C36.7063 36.772 37.131 36.668 37.5123 36.46C37.8937 36.2347 38.223 35.9833 38.5003 35.706V28.296Z" fill="#00AB4E"/>
<path d="M45.3097 25.566C45.5177 25.4967 45.7777 25.4273 46.0897 25.358C46.419 25.2713 46.7744 25.202 47.1557 25.15C47.537 25.0807 47.9357 25.0287 48.3517 24.994C48.7677 24.9593 49.1837 24.942 49.5997 24.942C50.5184 24.942 51.307 25.0373 51.9657 25.228C52.6417 25.4187 53.1877 25.7393 53.6037 26.19C54.037 26.6407 54.349 27.256 54.5397 28.036C54.7477 28.7987 54.8517 29.7607 54.8517 30.922V35.81C54.8517 36.1567 54.9037 36.4253 55.0077 36.616C55.129 36.8067 55.337 36.902 55.6317 36.902C55.8744 36.902 56.1517 36.8413 56.4637 36.72L56.6977 38.904C56.351 39.0427 55.987 39.1467 55.6057 39.216C55.2244 39.2853 54.8517 39.32 54.4877 39.32C53.8464 39.32 53.335 39.1813 52.9537 38.904C52.5897 38.6093 52.3384 38.2193 52.1997 37.734C51.749 38.15 51.1944 38.5227 50.5357 38.852C49.877 39.164 49.123 39.32 48.2737 39.32C47.563 39.32 46.9477 39.2073 46.4277 38.982C45.925 38.7567 45.5004 38.4447 45.1537 38.046C44.8244 37.6473 44.573 37.188 44.3997 36.668C44.2437 36.148 44.1657 35.5847 44.1657 34.978C44.1657 33.3487 44.625 32.144 45.5437 31.364C46.4624 30.5667 47.7884 30.168 49.5217 30.168C49.9204 30.168 50.2844 30.194 50.6137 30.246C50.9604 30.2807 51.333 30.3413 51.7317 30.428V29.83C51.7317 28.946 51.4977 28.322 51.0297 27.958C50.5617 27.594 49.8857 27.412 49.0017 27.412C48.395 27.412 47.8057 27.4727 47.2337 27.594C46.6617 27.7153 46.1504 27.8453 45.6997 27.984L45.3097 25.566ZM51.7317 32.482C51.5064 32.3953 51.255 32.326 50.9777 32.274C50.7004 32.2047 50.397 32.17 50.0677 32.17C49.2184 32.17 48.5597 32.3607 48.0917 32.742C47.6237 33.1233 47.3897 33.7733 47.3897 34.692C47.3897 35.3507 47.537 35.8793 47.8317 36.278C48.1437 36.6767 48.6117 36.876 49.2357 36.876C49.7037 36.876 50.163 36.7547 50.6137 36.512C51.0644 36.2693 51.437 35.992 51.7317 35.68V32.482Z" fill="#00AB4E"/>
<path d="M61.8534 25.202V39.06H58.6034V25.202H61.8534ZM58.3434 21.588C58.3434 20.9813 58.5167 20.522 58.8634 20.21C59.2274 19.8807 59.6781 19.716 60.2154 19.716C60.8221 19.716 61.2901 19.8807 61.6194 20.21C61.9487 20.522 62.1134 20.9813 62.1134 21.588C62.1134 22.2293 61.9314 22.706 61.5674 23.018C61.2034 23.3127 60.7527 23.46 60.2154 23.46C59.6607 23.46 59.2101 23.2953 58.8634 22.966C58.5167 22.6367 58.3434 22.1773 58.3434 21.588Z" fill="#00AB4E"/>
<path d="M65.1134 25.754H74.9174V26.932H70.6614V39.415H69.3504V26.932H65.1134V25.754Z" fill="#00AB4E"/>
<path d="M78.0885 29.383V39.415H76.8345V29.383H78.0885ZM76.6255 26.799C76.6255 26.533 76.7015 26.3304 76.8535 26.191C77.0055 26.039 77.2018 25.963 77.4425 25.963C77.9998 25.963 78.2785 26.248 78.2785 26.818C78.2785 27.1094 78.2025 27.331 78.0505 27.483C77.8985 27.635 77.6958 27.711 77.4425 27.711C77.1891 27.711 76.9865 27.6287 76.8345 27.464C76.6951 27.2994 76.6255 27.0777 76.6255 26.799Z" fill="#00AB4E"/>
<path d="M82.6918 30.409V36.603C82.6918 36.869 82.6982 37.1224 82.7108 37.363C82.7362 37.6037 82.7805 37.8127 82.8438 37.99C82.9198 38.1547 83.0275 38.2877 83.1668 38.389C83.3188 38.4904 83.5215 38.541 83.7748 38.541C84.0282 38.541 84.2752 38.4967 84.5158 38.408C84.7565 38.3194 84.9845 38.2244 85.1998 38.123L85.3328 39.187C85.1428 39.2884 84.8832 39.3897 84.5538 39.491C84.2245 39.5924 83.8888 39.643 83.5468 39.643C82.7615 39.643 82.2105 39.4214 81.8938 38.978C81.5898 38.5347 81.4378 37.9267 81.4378 37.154V30.409H80.1458V29.383H81.4378V27.749L82.6918 27.027V29.383H85.3138V30.409H82.6918Z" fill="#00AB4E"/>
<path d="M88.776 29.383V39.415H87.522V29.383H88.776ZM87.313 26.799C87.313 26.533 87.389 26.3304 87.541 26.191C87.693 26.039 87.8893 25.963 88.13 25.963C88.6873 25.963 88.966 26.248 88.966 26.818C88.966 27.1094 88.89 27.331 88.738 27.483C88.586 27.635 88.3833 27.711 88.13 27.711C87.8766 27.711 87.674 27.6287 87.522 27.464C87.3826 27.2994 87.313 27.0777 87.313 26.799Z" fill="#00AB4E"/>
<path d="M93.3033 29.383V30.466C93.4933 30.3394 93.7023 30.2 93.9303 30.048C94.171 29.896 94.418 29.7567 94.6713 29.63C94.9373 29.4907 95.2097 29.383 95.4883 29.307C95.767 29.2184 96.0457 29.174 96.3243 29.174C97.2363 29.174 97.9647 29.535 98.5093 30.257C99.0667 30.979 99.3453 32.0874 99.3453 33.582C99.3453 34.4054 99.282 35.1844 99.1553 35.919C99.0287 36.6537 98.8133 37.2934 98.5093 37.838C98.218 38.3827 97.8253 38.8134 97.3313 39.13C96.8373 39.4467 96.223 39.605 95.4883 39.605C95.0577 39.605 94.646 39.5417 94.2533 39.415C93.8733 39.2757 93.563 39.13 93.3223 38.978V43.386H92.0493V29.383H93.3033ZM93.3033 37.686C93.5567 37.8887 93.867 38.0724 94.2343 38.237C94.6143 38.4017 95.0703 38.484 95.6023 38.484C96.0583 38.484 96.4383 38.351 96.7423 38.085C97.0463 37.819 97.287 37.477 97.4643 37.059C97.6543 36.6284 97.781 36.1534 97.8443 35.634C97.9203 35.1147 97.9583 34.5954 97.9583 34.076C97.9583 33.3287 97.9076 32.7144 97.8063 32.233C97.7177 31.7517 97.5847 31.378 97.4073 31.112C97.23 30.8334 97.021 30.6434 96.7803 30.542C96.5396 30.428 96.28 30.371 96.0013 30.371C95.7733 30.371 95.5327 30.409 95.2793 30.485C95.0387 30.561 94.798 30.656 94.5573 30.77C94.3293 30.884 94.1077 31.0107 93.8923 31.15C93.677 31.2767 93.4807 31.4034 93.3033 31.53V37.686Z" fill="#00AB4E"/>
<path d="M102.089 29.516C102.431 29.4147 102.868 29.3324 103.4 29.269C103.932 29.2057 104.451 29.174 104.958 29.174C105.996 29.174 106.782 29.421 107.314 29.915C107.846 30.409 108.112 31.2007 108.112 32.29V37.667C108.112 37.971 108.162 38.1864 108.264 38.313C108.378 38.4397 108.561 38.503 108.815 38.503C108.941 38.503 109.068 38.4904 109.195 38.465C109.334 38.427 109.48 38.3764 109.632 38.313L109.746 39.358C109.53 39.4214 109.328 39.4784 109.138 39.529C108.96 39.5797 108.745 39.605 108.492 39.605C108.023 39.605 107.662 39.4847 107.409 39.244C107.155 38.9907 107.01 38.7057 106.972 38.389C106.554 38.7564 106.104 39.054 105.623 39.282C105.141 39.4974 104.628 39.605 104.084 39.605C103.59 39.605 103.165 39.5227 102.811 39.358C102.456 39.1934 102.165 38.9717 101.937 38.693C101.709 38.4017 101.538 38.0724 101.424 37.705C101.31 37.325 101.253 36.926 101.253 36.508C101.253 35.9 101.341 35.3807 101.519 34.95C101.709 34.5067 101.968 34.1457 102.298 33.867C102.64 33.5884 103.045 33.3857 103.514 33.259C103.995 33.1197 104.527 33.05 105.11 33.05C105.401 33.05 105.692 33.069 105.984 33.107C106.275 33.1324 106.566 33.1767 106.858 33.24V32.518C106.858 31.7454 106.687 31.1817 106.345 30.827C106.015 30.4597 105.42 30.276 104.559 30.276C104.179 30.276 103.773 30.314 103.343 30.39C102.925 30.4534 102.551 30.5357 102.222 30.637L102.089 29.516ZM106.877 34.228C106.319 34.0887 105.8 34.019 105.319 34.019C104.432 34.019 103.754 34.2027 103.286 34.57C102.83 34.9374 102.602 35.5707 102.602 36.47C102.602 37.0147 102.741 37.4897 103.02 37.895C103.311 38.2877 103.761 38.484 104.369 38.484C104.825 38.484 105.268 38.3764 105.699 38.161C106.142 37.9457 106.528 37.686 106.858 37.382L106.877 34.228Z" fill="#00AB4E"/>
<path d="M116.259 29.174C117.766 29.174 118.646 29.8327 118.9 31.15C118.925 31.3147 118.938 31.5174 118.938 31.758C118.95 31.986 118.957 32.195 118.957 32.385V39.415H117.703V32.556C117.703 32.3914 117.696 32.214 117.684 32.024C117.684 31.8214 117.671 31.6567 117.646 31.53C117.57 31.1247 117.392 30.827 117.114 30.637C116.848 30.4344 116.442 30.333 115.898 30.333C115.328 30.333 114.796 30.485 114.302 30.789C113.808 31.093 113.364 31.4287 112.972 31.796V39.415H111.699V29.383H112.972V30.637C113.402 30.2444 113.896 29.9024 114.454 29.611C115.024 29.3197 115.625 29.174 116.259 29.174Z" fill="#00AB4E"/>
<path d="M124.957 25.6255H132.291V26.8035H126.268V31.5915H131.512V32.7695H126.268V38.0895H132.538V39.2865H124.957V25.6255Z" fill="#00AB4E"/>
<path d="M139.401 29.0455C140.021 29.0455 140.515 29.1595 140.883 29.3875C141.263 29.6028 141.541 29.9322 141.719 30.3755C142.149 30.0082 142.631 29.6978 143.163 29.4445C143.695 29.1785 144.258 29.0455 144.854 29.0455C146.374 29.0455 147.248 29.7042 147.476 31.0215C147.501 31.1862 147.52 31.3888 147.533 31.6295C147.545 31.8575 147.552 32.0665 147.552 32.2565V39.2865H146.298V32.4275C146.298 32.2628 146.291 32.0855 146.279 31.8955C146.266 31.6928 146.247 31.5282 146.222 31.4015C146.146 30.9962 145.975 30.6985 145.709 30.5085C145.443 30.3058 145.063 30.2045 144.569 30.2045C144.075 30.2045 143.6 30.3312 143.144 30.5845C142.7 30.8252 142.295 31.1165 141.928 31.4585C141.953 31.6105 141.966 31.7815 141.966 31.9715C141.966 32.1488 141.966 32.3135 141.966 32.4655V39.2865H140.712V32.4275C140.712 32.2628 140.705 32.0855 140.693 31.8955C140.68 31.6928 140.661 31.5282 140.636 31.4015C140.509 30.6035 140.009 30.2045 139.135 30.2045C138.514 30.2045 137.944 30.3628 137.425 30.6795C136.918 30.9835 136.481 31.3192 136.114 31.6865V39.2865H134.841V29.2545H136.114V30.4895C136.57 30.0842 137.07 29.7422 137.615 29.4635C138.172 29.1848 138.767 29.0455 139.401 29.0455Z" fill="#00AB4E"/>
<path d="M150.873 29.3875C151.215 29.2862 151.652 29.2038 152.184 29.1405C152.716 29.0772 153.236 29.0455 153.742 29.0455C154.781 29.0455 155.566 29.2925 156.098 29.7865C156.63 30.2805 156.896 31.0722 156.896 32.1615V37.5385C156.896 37.8425 156.947 38.0578 157.048 38.1845C157.162 38.3112 157.346 38.3745 157.599 38.3745C157.726 38.3745 157.853 38.3618 157.979 38.3365C158.119 38.2985 158.264 38.2478 158.416 38.1845L158.53 39.2295C158.315 39.2928 158.112 39.3498 157.922 39.4005C157.745 39.4512 157.53 39.4765 157.276 39.4765C156.808 39.4765 156.447 39.3562 156.193 39.1155C155.94 38.8622 155.794 38.5772 155.756 38.2605C155.338 38.6278 154.889 38.9255 154.407 39.1535C153.926 39.3688 153.413 39.4765 152.868 39.4765C152.374 39.4765 151.95 39.3942 151.595 39.2295C151.241 39.0648 150.949 38.8432 150.721 38.5645C150.493 38.2732 150.322 37.9438 150.208 37.5765C150.094 37.1965 150.037 36.7975 150.037 36.3795C150.037 35.7715 150.126 35.2522 150.303 34.8215C150.493 34.3782 150.753 34.0172 151.082 33.7385C151.424 33.4598 151.83 33.2572 152.298 33.1305C152.78 32.9912 153.312 32.9215 153.894 32.9215C154.186 32.9215 154.477 32.9405 154.768 32.9785C155.06 33.0038 155.351 33.0482 155.642 33.1115V32.3895C155.642 31.6168 155.471 31.0532 155.129 30.6985C154.8 30.3312 154.205 30.1475 153.343 30.1475C152.963 30.1475 152.558 30.1855 152.127 30.2615C151.709 30.3248 151.336 30.4072 151.006 30.5085L150.873 29.3875ZM155.661 34.0995C155.104 33.9602 154.585 33.8905 154.103 33.8905C153.217 33.8905 152.539 34.0742 152.07 34.4415C151.614 34.8088 151.386 35.4422 151.386 36.3415C151.386 36.8862 151.526 37.3612 151.804 37.7665C152.096 38.1592 152.545 38.3555 153.153 38.3555C153.609 38.3555 154.053 38.2478 154.483 38.0325C154.927 37.8172 155.313 37.5575 155.642 37.2535L155.661 34.0995Z" fill="#00AB4E"/>
<path d="M159.951 37.2725C160.065 37.3738 160.217 37.4942 160.407 37.6335C160.61 37.7602 160.832 37.8805 161.072 37.9945C161.326 38.1085 161.592 38.2098 161.87 38.2985C162.149 38.3745 162.421 38.4125 162.687 38.4125C163.283 38.4125 163.777 38.2858 164.169 38.0325C164.562 37.7665 164.758 37.3485 164.758 36.7785C164.758 36.3225 164.632 35.9742 164.378 35.7335C164.138 35.4802 163.834 35.2775 163.466 35.1255C163.099 34.9735 162.694 34.8342 162.25 34.7075C161.82 34.5808 161.421 34.4098 161.053 34.1945C160.686 33.9792 160.376 33.6942 160.122 33.3395C159.882 32.9722 159.761 32.4718 159.761 31.8385C159.761 31.3952 159.844 31.0025 160.008 30.6605C160.186 30.3058 160.42 30.0145 160.711 29.7865C161.015 29.5458 161.357 29.3622 161.737 29.2355C162.13 29.1088 162.542 29.0455 162.972 29.0455C163.479 29.0455 163.916 29.1152 164.283 29.2545C164.651 29.3938 164.961 29.5775 165.214 29.8055C165.48 30.0335 165.683 30.2868 165.822 30.5655C165.962 30.8315 166.057 31.0975 166.107 31.3635L165.081 31.7815C164.917 31.2242 164.638 30.8188 164.245 30.5655C163.865 30.2995 163.435 30.1665 162.953 30.1665C162.713 30.1665 162.478 30.1982 162.25 30.2615C162.022 30.3122 161.82 30.4008 161.642 30.5275C161.465 30.6542 161.319 30.8252 161.205 31.0405C161.104 31.2432 161.053 31.4902 161.053 31.7815C161.053 32.2375 161.174 32.5922 161.414 32.8455C161.668 33.0862 161.978 33.2888 162.345 33.4535C162.713 33.6055 163.112 33.7448 163.542 33.8715C163.986 33.9982 164.391 34.1628 164.758 34.3655C165.126 34.5682 165.43 34.8405 165.67 35.1825C165.924 35.5245 166.05 35.9868 166.05 36.5695C166.05 36.9875 165.981 37.3738 165.841 37.7285C165.702 38.0832 165.487 38.3935 165.195 38.6595C164.917 38.9255 164.562 39.1345 164.131 39.2865C163.713 39.4385 163.226 39.5145 162.668 39.5145C162.339 39.5145 162.01 39.4765 161.68 39.4005C161.364 39.3245 161.066 39.2358 160.787 39.1345C160.521 39.0205 160.281 38.9065 160.065 38.7925C159.863 38.6658 159.711 38.5518 159.609 38.4505L159.951 37.2725Z" fill="#00AB4E"/>
</svg>
