<svg width="240" height="48" viewBox="0 0 240 48" fill="none" xmlns="http://www.w3.org/2000/svg">
<path d="M3.60206 10.7193V14.4153H1.81006V4.34933H5.33806C6.40206 4.34933 7.22806 4.59666 7.81606 5.09133C8.40406 5.586 8.69806 6.30466 8.69806 7.24733C8.69806 8.302 8.37606 9.14666 7.73206 9.78133C7.09739 10.4067 6.23873 10.7193 5.15606 10.7193H3.60206ZM3.60206 9.33333H4.96006C5.58539 9.33333 6.05673 9.17 6.37406 8.84333C6.70073 8.50733 6.86406 8.022 6.86406 7.38733C6.86406 6.27666 6.27606 5.72133 5.10006 5.72133H3.60206V9.33333Z" fill="white"/>
<path d="M14.9178 10.9853H10.9278C10.9371 11.6853 11.0958 12.222 11.4038 12.5953C11.7118 12.9593 12.1364 13.1413 12.6778 13.1413C13.3404 13.1413 14.0078 12.9547 14.6798 12.5813L14.7778 14.0513C14.1431 14.3967 13.3824 14.5693 12.4958 14.5693C10.2651 14.5693 9.14978 13.2487 9.14978 10.6073C9.14978 9.31933 9.42511 8.36733 9.97578 7.75133C10.5358 7.126 11.2684 6.81333 12.1738 6.81333C14.0031 6.81333 14.9178 7.98 14.9178 10.3133V10.9853ZM13.2658 9.89333C13.2658 8.69866 12.8924 8.10133 12.1458 8.10133C11.7444 8.10133 11.4411 8.26933 11.2358 8.60533C11.0398 8.94133 10.9418 9.37066 10.9418 9.89333H13.2658Z" fill="white"/>
<path d="M20.3814 7.42933L20.4514 6.95333H22.0194V14.3033C22.0194 16.4687 21.0207 17.5513 19.0234 17.5513C18.0247 17.5513 17.1521 17.3693 16.4054 17.0053L16.6714 15.4793C16.9607 15.6567 17.3107 15.8013 17.7214 15.9133C18.1414 16.0347 18.5287 16.0953 18.8834 16.0953C19.8447 16.0953 20.3254 15.47 20.3254 14.2193V13.7713C19.8681 14.266 19.2801 14.5133 18.5614 14.5133C17.7494 14.5133 17.1007 14.2007 16.6154 13.5753C16.1394 12.9407 15.9014 11.998 15.9014 10.7473C15.9014 10.0567 15.9901 9.42666 16.1674 8.85733C16.3541 8.288 16.6621 7.80733 17.0914 7.41533C17.5301 7.014 18.0621 6.81333 18.6874 6.81333C19.3127 6.81333 19.8774 7.01866 20.3814 7.42933ZM20.2694 12.5533V8.64733C19.8307 8.33 19.4387 8.17133 19.0934 8.17133C18.1787 8.17133 17.7214 9.03933 17.7214 10.7753C17.7214 12.3433 18.1647 13.1273 19.0514 13.1273C19.4807 13.1273 19.8867 12.936 20.2694 12.5533Z" fill="white"/>
<path d="M24.174 8.45133L23.964 7.14933C24.636 6.92533 25.406 6.81333 26.274 6.81333C27.3006 6.81333 28.0286 7.04666 28.458 7.51333C28.8873 7.97066 29.102 8.81066 29.102 10.0333V12.6653C29.102 13.0573 29.242 13.2533 29.522 13.2533C29.6526 13.2533 29.802 13.2207 29.97 13.1553L30.096 14.3313C29.7413 14.4807 29.3446 14.5553 28.906 14.5553C28.234 14.5553 27.8233 14.2707 27.674 13.7013C27.0673 14.2707 26.3626 14.5553 25.56 14.5553C24.8413 14.5553 24.2906 14.336 23.908 13.8973C23.5346 13.4587 23.348 12.8987 23.348 12.2173C23.348 10.4907 24.3093 9.62733 26.232 9.62733C26.6146 9.62733 27.0113 9.674 27.422 9.76733V9.44533C27.422 8.57733 26.932 8.14333 25.952 8.14333C25.42 8.14333 24.8273 8.246 24.174 8.45133ZM27.422 12.5953V10.8733C27.1046 10.7613 26.806 10.7053 26.526 10.7053C25.5646 10.7053 25.084 11.158 25.084 12.0633C25.084 12.4273 25.168 12.7167 25.336 12.9313C25.504 13.1367 25.7513 13.2393 26.078 13.2393C26.582 13.2393 27.03 13.0247 27.422 12.5953Z" fill="white"/>
<path d="M34.9894 7.28933V4.34933H36.7394V14.4153H35.1714L35.1154 13.7573C34.6021 14.2893 33.9907 14.5553 33.2814 14.5553C32.4694 14.5553 31.8207 14.2333 31.3354 13.5893C30.8594 12.9453 30.6214 11.998 30.6214 10.7473C30.6214 10.0567 30.7147 9.42666 30.9014 8.85733C31.0881 8.27866 31.4007 7.79333 31.8394 7.40133C32.2781 7.00933 32.8194 6.81333 33.4634 6.81333C34.0234 6.81333 34.5321 6.972 34.9894 7.28933ZM35.0034 12.6093V8.61933C34.5647 8.302 34.1774 8.14333 33.8414 8.14333C32.9081 8.14333 32.4414 9.02066 32.4414 10.7753C32.4414 11.5593 32.5581 12.1567 32.7914 12.5673C33.0247 12.978 33.3561 13.1833 33.7854 13.1833C34.2147 13.1833 34.6207 12.992 35.0034 12.6093Z" fill="white"/>
<path d="M38.894 8.45133L38.684 7.14933C39.356 6.92533 40.126 6.81333 40.994 6.81333C42.0206 6.81333 42.7486 7.04666 43.178 7.51333C43.6073 7.97066 43.822 8.81066 43.822 10.0333V12.6653C43.822 13.0573 43.962 13.2533 44.242 13.2533C44.3726 13.2533 44.522 13.2207 44.69 13.1553L44.816 14.3313C44.4613 14.4807 44.0646 14.5553 43.626 14.5553C42.954 14.5553 42.5433 14.2707 42.394 13.7013C41.7873 14.2707 41.0826 14.5553 40.28 14.5553C39.5613 14.5553 39.0106 14.336 38.628 13.8973C38.2546 13.4587 38.068 12.8987 38.068 12.2173C38.068 10.4907 39.0293 9.62733 40.952 9.62733C41.3346 9.62733 41.7313 9.674 42.142 9.76733V9.44533C42.142 8.57733 41.652 8.14333 40.672 8.14333C40.14 8.14333 39.5473 8.246 38.894 8.45133ZM42.142 12.5953V10.8733C41.8246 10.7613 41.526 10.7053 41.246 10.7053C40.2846 10.7053 39.804 11.158 39.804 12.0633C39.804 12.4273 39.888 12.7167 40.056 12.9313C40.224 13.1367 40.4713 13.2393 40.798 13.2393C41.302 13.2393 41.75 13.0247 42.142 12.5953Z" fill="white"/>
<path d="M45.8561 6.95333H47.6061V14.4153H45.8561V6.95333ZM45.7161 5.00733C45.7161 4.69 45.8095 4.44266 45.9961 4.26533C46.1828 4.088 46.4255 3.99933 46.7241 3.99933C47.0508 3.99933 47.3028 4.088 47.4801 4.26533C47.6575 4.43333 47.7461 4.68066 47.7461 5.00733C47.7461 5.334 47.6481 5.586 47.4521 5.76333C47.2655 5.93133 47.0228 6.01533 46.7241 6.01533C46.4161 6.01533 46.1688 5.92666 45.9821 5.74933C45.8048 5.56266 45.7161 5.31533 45.7161 5.00733Z" fill="white"/>
<path d="M49.7585 8.45133L49.5485 7.14933C50.2205 6.92533 50.9905 6.81333 51.8585 6.81333C52.8852 6.81333 53.6132 7.04666 54.0425 7.51333C54.4719 7.97066 54.6865 8.81066 54.6865 10.0333V12.6653C54.6865 13.0573 54.8265 13.2533 55.1065 13.2533C55.2372 13.2533 55.3865 13.2207 55.5545 13.1553L55.6805 14.3313C55.3259 14.4807 54.9292 14.5553 54.4905 14.5553C53.8185 14.5553 53.4079 14.2707 53.2585 13.7013C52.6519 14.2707 51.9472 14.5553 51.1445 14.5553C50.4259 14.5553 49.8752 14.336 49.4925 13.8973C49.1192 13.4587 48.9325 12.8987 48.9325 12.2173C48.9325 10.4907 49.8939 9.62733 51.8165 9.62733C52.1992 9.62733 52.5959 9.674 53.0065 9.76733V9.44533C53.0065 8.57733 52.5165 8.14333 51.5365 8.14333C51.0045 8.14333 50.4119 8.246 49.7585 8.45133ZM53.0065 12.5953V10.8733C52.6892 10.7613 52.3905 10.7053 52.1105 10.7053C51.1492 10.7053 50.6685 11.158 50.6685 12.0633C50.6685 12.4273 50.7525 12.7167 50.9205 12.9313C51.0885 13.1367 51.3359 13.2393 51.6625 13.2393C52.1665 13.2393 52.6145 13.0247 53.0065 12.5953Z" fill="white"/>
<path d="M58.3167 6.95333L58.3727 7.69533C59.0447 7.10733 59.782 6.81333 60.5847 6.81333C61.7887 6.81333 62.47 7.33133 62.6287 8.36733C62.666 8.60066 62.6847 8.91333 62.6847 9.30533V14.4153H60.9347V9.52933C60.9347 9.24 60.93 9.04866 60.9207 8.95533C60.8647 8.498 60.5567 8.26933 59.9967 8.26933C59.5114 8.26933 59.0074 8.50266 58.4847 8.96933V14.4153H56.7207V6.95333H58.3167Z" fill="white"/>
<path d="M1 38.1433L1.858 35.4393C2.82867 35.9073 3.756 36.1413 4.64 36.1413C5.42 36.1413 5.93133 35.9073 6.174 35.4393C6.434 34.9713 6.564 34.2173 6.564 33.1773V20.0213H9.892V33.2553C9.892 35.266 9.49333 36.7393 8.696 37.6753C7.916 38.594 6.70267 39.0533 5.056 39.0533C3.46133 39.0533 2.10933 38.75 1 38.1433Z" fill="#00AB4E"/>
<path d="M13.5361 27.6393L13.1461 25.2213C14.3941 24.8053 15.8241 24.5973 17.4361 24.5973C19.3427 24.5973 20.6947 25.0307 21.4921 25.8973C22.2894 26.7467 22.6881 28.3067 22.6881 30.5773V35.4653C22.6881 36.1933 22.9481 36.5573 23.4681 36.5573C23.7107 36.5573 23.9881 36.4967 24.3001 36.3753L24.5341 38.5593C23.8754 38.8367 23.1387 38.9753 22.3241 38.9753C21.0761 38.9753 20.3134 38.4466 20.0361 37.3893C18.9094 38.4466 17.6007 38.9753 16.1101 38.9753C14.7754 38.9753 13.7527 38.568 13.0421 37.7533C12.3487 36.9387 12.0021 35.8987 12.0021 34.6333C12.0021 31.4267 13.7874 29.8233 17.3581 29.8233C18.0687 29.8233 18.8054 29.91 19.5681 30.0833V29.4853C19.5681 27.8733 18.6581 27.0673 16.8381 27.0673C15.8501 27.0673 14.7494 27.258 13.5361 27.6393ZM19.5681 35.3353V32.1373C18.9787 31.9293 18.4241 31.8253 17.9041 31.8253C16.1187 31.8253 15.2261 32.666 15.2261 34.3473C15.2261 35.0233 15.3821 35.5607 15.6941 35.9593C16.0061 36.3407 16.4654 36.5313 17.0721 36.5313C18.0081 36.5313 18.8401 36.1327 19.5681 35.3353Z" fill="#00AB4E"/>
<path d="M25.4518 37.6493L26.3358 35.0753C27.6358 36.0287 28.9444 36.5053 30.2618 36.5053C31.4751 36.5053 32.0818 35.9853 32.0818 34.9453C32.0818 34.46 31.8911 34.096 31.5098 33.8533C31.1458 33.5933 30.5824 33.342 29.8198 33.0993C29.3518 32.9433 29.0311 32.8393 28.8578 32.7873C28.7018 32.7353 28.4158 32.6227 27.9998 32.4493C27.6011 32.276 27.3064 32.1027 27.1158 31.9293C26.9424 31.756 26.7344 31.5307 26.4918 31.2533C26.2491 30.976 26.0758 30.6467 25.9718 30.2653C25.8851 29.884 25.8418 29.4593 25.8418 28.9913C25.8418 27.6393 26.2924 26.5733 27.1938 25.7933C28.1124 24.996 29.3171 24.5973 30.8078 24.5973C33.3904 24.5973 34.9678 25.6633 35.5398 27.7953L33.0698 28.7573C32.6364 27.596 31.8738 27.0153 30.7818 27.0153C30.2791 27.0153 29.8458 27.1453 29.4818 27.4053C29.1351 27.648 28.9618 28.0207 28.9618 28.5233C28.9618 28.8353 29.0224 29.104 29.1438 29.3293C29.2824 29.5373 29.4991 29.728 29.7938 29.9013C30.0884 30.0747 30.3484 30.2047 30.5738 30.2913C30.8164 30.378 31.1718 30.4907 31.6398 30.6293C32.1771 30.8027 32.6278 30.9673 32.9918 31.1233C33.3558 31.2793 33.7371 31.5133 34.1358 31.8253C34.5344 32.12 34.8378 32.51 35.0458 32.9953C35.2538 33.4633 35.3578 34.018 35.3578 34.6593C35.3578 36.0113 34.8984 37.0773 33.9798 37.8573C33.0611 38.6373 31.8218 39.0273 30.2618 39.0273C29.3258 39.0273 28.3984 38.88 27.4798 38.5853C26.5784 38.2907 25.9024 37.9787 25.4518 37.6493Z" fill="#00AB4E"/>
<path d="M38.5869 27.6393L38.1969 25.2213C39.4449 24.8053 40.8749 24.5973 42.4869 24.5973C44.3935 24.5973 45.7455 25.0307 46.5429 25.8973C47.3402 26.7467 47.7389 28.3067 47.7389 30.5773V35.4653C47.7389 36.1933 47.9989 36.5573 48.5189 36.5573C48.7615 36.5573 49.0389 36.4967 49.3509 36.3753L49.5849 38.5593C48.9262 38.8367 48.1895 38.9753 47.3749 38.9753C46.1269 38.9753 45.3642 38.4466 45.0869 37.3893C43.9602 38.4466 42.6515 38.9753 41.1609 38.9753C39.8262 38.9753 38.8035 38.568 38.0929 37.7533C37.3995 36.9387 37.0529 35.8987 37.0529 34.6333C37.0529 31.4267 38.8382 29.8233 42.4089 29.8233C43.1195 29.8233 43.8562 29.91 44.6189 30.0833V29.4853C44.6189 27.8733 43.7089 27.0673 41.8889 27.0673C40.9009 27.0673 39.8002 27.258 38.5869 27.6393ZM44.6189 35.3353V32.1373C44.0295 31.9293 43.4749 31.8253 42.9549 31.8253C41.1695 31.8253 40.2769 32.666 40.2769 34.3473C40.2769 35.0233 40.4329 35.5607 40.7449 35.9593C41.0569 36.3407 41.5162 36.5313 42.1229 36.5313C43.0589 36.5313 43.8909 36.1327 44.6189 35.3353Z" fill="#00AB4E"/>
<path d="M53.479 37.6323L54.087 36.4163C55.0877 37.3157 56.2213 37.7653 57.488 37.7653C58.2987 37.7653 58.97 37.5627 59.502 37.1573C60.034 36.7393 60.3 36.0997 60.3 35.2383C60.3 34.833 60.2367 34.4783 60.11 34.1743C59.996 33.8577 59.863 33.6043 59.711 33.4143C59.5717 33.2243 59.331 33.0407 58.989 32.8633C58.647 32.6733 58.362 32.5403 58.134 32.4643C57.906 32.3757 57.545 32.249 57.051 32.0843C56.6457 31.945 56.3163 31.8247 56.063 31.7233C55.8223 31.622 55.5373 31.47 55.208 31.2673C54.8913 31.0647 54.6443 30.8493 54.467 30.6213C54.2897 30.3807 54.1313 30.0703 53.992 29.6903C53.8653 29.2977 53.802 28.8607 53.802 28.3793C53.802 27.2773 54.1883 26.4033 54.961 25.7573C55.7337 25.0987 56.709 24.7693 57.887 24.7693C59.0903 24.7693 60.0213 25.086 60.68 25.7193C61.3387 26.3527 61.7123 27.062 61.801 27.8473L60.604 28.1893C60.4393 27.48 60.11 26.948 59.616 26.5933C59.122 26.226 58.5267 26.0423 57.83 26.0423C57.108 26.0423 56.4937 26.2387 55.987 26.6313C55.4803 27.0113 55.227 27.594 55.227 28.3793C55.227 28.6707 55.2523 28.9303 55.303 29.1583C55.3663 29.3737 55.474 29.57 55.626 29.7473C55.778 29.9247 55.911 30.0703 56.025 30.1843C56.139 30.2857 56.3417 30.3997 56.633 30.5263C56.9243 30.653 57.1333 30.7417 57.26 30.7923C57.3993 30.843 57.659 30.9317 58.039 31.0583C58.4697 31.2103 58.7737 31.318 58.951 31.3813C59.1283 31.4447 59.4007 31.565 59.768 31.7423C60.1353 31.907 60.4013 32.078 60.566 32.2553C60.7433 32.42 60.9333 32.6417 61.136 32.9203C61.3513 33.1863 61.5033 33.503 61.592 33.8703C61.6807 34.225 61.725 34.6303 61.725 35.0863C61.725 36.277 61.3577 37.227 60.623 37.9363C59.8883 38.633 58.8307 38.9813 57.45 38.9813C56.538 38.9813 55.7337 38.842 55.037 38.5633C54.3403 38.272 53.821 37.9617 53.479 37.6323Z" fill="#00AB4E"/>
<path d="M70.9995 33.8323H65.2045C65.2045 36.4923 66.1545 37.8223 68.0545 37.8223C68.9285 37.8223 69.8215 37.5817 70.7335 37.1003L70.8475 38.2403C69.9989 38.709 69.0172 38.9433 67.9025 38.9433C65.2299 38.9433 63.8935 37.1637 63.8935 33.6043C63.8935 31.8437 64.2292 30.5517 64.9005 29.7283C65.5719 28.8923 66.4965 28.4743 67.6745 28.4743C68.8272 28.4743 69.6695 28.8733 70.2015 29.6713C70.7335 30.4567 70.9995 31.622 70.9995 33.1673V33.8323ZM69.6885 32.8253C69.6885 31.7613 69.5049 30.957 69.1375 30.4123C68.7829 29.855 68.2699 29.5763 67.5985 29.5763C66.8259 29.5763 66.2369 29.9057 65.8315 30.5643C65.4262 31.2103 65.2235 31.964 65.2235 32.8253H69.6885Z" fill="#00AB4E"/>
<path d="M77.2033 28.4743C78.1153 28.4743 78.755 28.9937 79.1223 30.0323L78.0773 30.6023C77.9253 30.273 77.767 30.0387 77.6023 29.8993C77.4377 29.7473 77.197 29.6713 76.8803 29.6713C76.285 29.6713 75.6073 30.1083 74.8473 30.9823V38.7153H73.5743V28.6833H74.7713V29.8043C75.582 28.9177 76.3927 28.4743 77.2033 28.4743Z" fill="#00AB4E"/>
<path d="M85.1709 29.7093H82.5489V35.9033C82.5489 36.3467 82.5615 36.6887 82.5869 36.9293C82.6249 37.1573 82.7262 37.3663 82.8909 37.5563C83.0555 37.7463 83.3025 37.8413 83.6319 37.8413C83.9992 37.8413 84.4742 37.702 85.0569 37.4233L85.1899 38.4873C84.5819 38.7913 83.9865 38.9433 83.4039 38.9433C81.9979 38.9433 81.2949 38.1137 81.2949 36.4543V29.7093H80.0029V28.6833H81.2949V27.0493L82.5489 26.3273V28.6833H85.1709V29.7093Z" fill="#00AB4E"/>
<path d="M87.379 28.6833H88.633V38.7153H87.379V28.6833ZM87.17 26.0993C87.17 25.8333 87.246 25.6307 87.398 25.4913C87.55 25.3393 87.7463 25.2633 87.987 25.2633C88.5443 25.2633 88.823 25.5483 88.823 26.1183C88.823 26.397 88.747 26.6187 88.595 26.7833C88.443 26.9353 88.2403 27.0113 87.987 27.0113C87.7463 27.0113 87.55 26.929 87.398 26.7643C87.246 26.5997 87.17 26.378 87.17 26.0993Z" fill="#00AB4E"/>
<path d="M97.1124 29.7093H93.2364V38.7153H92.0014V29.7093H90.3864V28.6833H92.0014V27.9993C92.0014 27.0747 92.261 26.3527 92.7804 25.8333C93.2997 25.3013 94.085 25.0353 95.1364 25.0353C96.0357 25.0353 96.8274 25.1557 97.5114 25.3963L97.3404 26.4983C96.6564 26.2577 95.947 26.1373 95.2124 26.1373C94.4397 26.1373 93.914 26.3147 93.6354 26.6693C93.3694 27.0113 93.2364 27.556 93.2364 28.3033V28.6833H98.3664V38.7153H97.1124V29.7093Z" fill="#00AB4E"/>
<path d="M108.431 28.8163L105.676 32.9583L108.906 38.7153H107.462L104.631 33.7183H102.902V38.7153H101.629V25.0543H102.902V32.5593H104.631L107.177 28.6833L108.431 28.8163Z" fill="#00AB4E"/>
<path d="M111.022 29.9373L110.889 28.8163C111.712 28.5883 112.669 28.4743 113.758 28.4743C115.861 28.4743 116.912 29.513 116.912 31.5903V36.9673C116.912 37.2713 116.963 37.4867 117.064 37.6133C117.178 37.74 117.362 37.8033 117.615 37.8033C117.818 37.8033 118.09 37.74 118.432 37.6133L118.546 38.6583C118.027 38.823 117.609 38.9053 117.292 38.9053C116.849 38.9053 116.494 38.7913 116.228 38.5633C115.962 38.3227 115.81 38.0313 115.772 37.6893C114.86 38.5 113.897 38.9053 112.884 38.9053C111.959 38.9053 111.256 38.614 110.775 38.0313C110.294 37.4487 110.053 36.7077 110.053 35.8083C110.053 34.6303 110.389 33.7627 111.06 33.2053C111.744 32.6353 112.694 32.3503 113.91 32.3503C114.518 32.3503 115.101 32.4137 115.658 32.5403V31.8183C115.658 31.033 115.487 30.463 115.145 30.1083C114.803 29.7537 114.208 29.5763 113.359 29.5763C112.561 29.5763 111.782 29.6967 111.022 29.9373ZM115.658 36.6823L115.677 33.5283C115.12 33.389 114.6 33.3193 114.119 33.3193C113.207 33.3193 112.523 33.5093 112.067 33.8893C111.624 34.2693 111.402 34.8963 111.402 35.7703C111.402 36.353 111.548 36.8343 111.839 37.2143C112.143 37.5943 112.586 37.7843 113.169 37.7843C114.043 37.7843 114.873 37.417 115.658 36.6823Z" fill="#00AB4E"/>
<path d="M119.625 37.8793L119.967 36.7013C120.246 36.9547 120.651 37.208 121.183 37.4613C121.715 37.7147 122.222 37.8413 122.703 37.8413C123.324 37.8413 123.824 37.702 124.204 37.4233C124.584 37.1447 124.774 36.7393 124.774 36.2073C124.774 35.7133 124.603 35.3207 124.261 35.0293C123.919 34.738 123.501 34.5163 123.007 34.3643C122.513 34.2123 122.019 34.0477 121.525 33.8703C121.044 33.693 120.632 33.389 120.29 32.9583C119.948 32.5277 119.777 31.964 119.777 31.2673C119.777 30.406 120.087 29.7283 120.708 29.2343C121.329 28.7277 122.089 28.4743 122.988 28.4743C123.913 28.4743 124.635 28.7087 125.154 29.1773C125.686 29.6333 126.009 30.1717 126.123 30.7923L125.097 31.2103C124.945 30.6783 124.679 30.2793 124.299 30.0133C123.919 29.7347 123.476 29.5953 122.969 29.5953C122.437 29.5953 121.987 29.7283 121.62 29.9943C121.253 30.2603 121.069 30.6657 121.069 31.2103C121.069 31.7043 121.24 32.1033 121.582 32.4073C121.924 32.6987 122.336 32.9203 122.817 33.0723C123.311 33.2243 123.805 33.389 124.299 33.5663C124.793 33.731 125.211 34.016 125.553 34.4213C125.895 34.8267 126.066 35.3523 126.066 35.9983C126.066 36.8597 125.768 37.569 125.173 38.1263C124.59 38.671 123.761 38.9433 122.684 38.9433C122.076 38.9433 121.474 38.8293 120.879 38.6013C120.296 38.3607 119.878 38.12 119.625 37.8793Z" fill="#00AB4E"/>
<path d="M128.608 28.6833H129.862V38.7153H128.608V28.6833ZM128.399 26.0993C128.399 25.8333 128.475 25.6307 128.627 25.4913C128.779 25.3393 128.975 25.2633 129.216 25.2633C129.773 25.2633 130.052 25.5483 130.052 26.1183C130.052 26.397 129.976 26.6187 129.824 26.7833C129.672 26.9353 129.469 27.0113 129.216 27.0113C128.975 27.0113 128.779 26.929 128.627 26.7643C128.475 26.5997 128.399 26.378 128.399 26.0993Z" fill="#00AB4E"/>
</svg>
