<svg width="240" height="48" viewBox="0 0 240 48" fill="none" xmlns="http://www.w3.org/2000/svg">
<path d="M2.792 10.7206V14.4166H1V4.35061H4.528C5.592 4.35061 6.418 4.59794 7.006 5.09261C7.594 5.58728 7.888 6.30594 7.888 7.24861C7.888 8.30328 7.566 9.14794 6.922 9.78261C6.28733 10.4079 5.42867 10.7206 4.346 10.7206H2.792ZM2.792 9.33461H4.15C4.77533 9.33461 5.24667 9.17128 5.564 8.84461C5.89067 8.50861 6.054 8.02328 6.054 7.38861C6.054 6.27794 5.466 5.72261 4.29 5.72261H2.792V9.33461Z" fill="#004D43"/>
<path d="M14.1077 10.9866H10.1177C10.1271 11.6866 10.2857 12.2233 10.5937 12.5966C10.9017 12.9606 11.3264 13.1426 11.8677 13.1426C12.5304 13.1426 13.1977 12.9559 13.8697 12.5826L13.9677 14.0526C13.3331 14.3979 12.5724 14.5706 11.6857 14.5706C9.45505 14.5706 8.33972 13.2499 8.33972 10.6086C8.33972 9.32061 8.61505 8.36861 9.16572 7.75261C9.72572 7.12728 10.4584 6.81461 11.3637 6.81461C13.1931 6.81461 14.1077 7.98128 14.1077 10.3146V10.9866ZM12.4557 9.89461C12.4557 8.69994 12.0824 8.10261 11.3357 8.10261C10.9344 8.10261 10.6311 8.27061 10.4257 8.60661C10.2297 8.94261 10.1317 9.37194 10.1317 9.89461H12.4557Z" fill="#004D43"/>
<path d="M19.5713 7.43061L19.6413 6.95461H21.2093V14.3046C21.2093 16.4699 20.2107 17.5526 18.2133 17.5526C17.2147 17.5526 16.342 17.3706 15.5953 17.0066L15.8613 15.4806C16.1507 15.6579 16.5007 15.8026 16.9113 15.9146C17.3313 16.0359 17.7187 16.0966 18.0733 16.0966C19.0347 16.0966 19.5153 15.4713 19.5153 14.2206V13.7726C19.058 14.2673 18.47 14.5146 17.7513 14.5146C16.9393 14.5146 16.2907 14.2019 15.8053 13.5766C15.3293 12.9419 15.0913 11.9993 15.0913 10.7486C15.0913 10.0579 15.18 9.42794 15.3573 8.85861C15.544 8.28928 15.852 7.80861 16.2813 7.41661C16.72 7.01528 17.252 6.81461 17.8773 6.81461C18.5027 6.81461 19.0673 7.01994 19.5713 7.43061ZM19.4593 12.5546V8.64861C19.0207 8.33128 18.6287 8.17261 18.2833 8.17261C17.3687 8.17261 16.9113 9.04061 16.9113 10.7766C16.9113 12.3446 17.3547 13.1286 18.2413 13.1286C18.6707 13.1286 19.0767 12.9373 19.4593 12.5546Z" fill="#004D43"/>
<path d="M23.3639 8.45261L23.1539 7.15061C23.8259 6.92661 24.5959 6.81461 25.4639 6.81461C26.4906 6.81461 27.2186 7.04794 27.6479 7.51461C28.0772 7.97194 28.2919 8.81194 28.2919 10.0346V12.6666C28.2919 13.0586 28.4319 13.2546 28.7119 13.2546C28.8426 13.2546 28.9919 13.2219 29.1599 13.1566L29.2859 14.3326C28.9312 14.4819 28.5346 14.5566 28.0959 14.5566C27.4239 14.5566 27.0132 14.2719 26.8639 13.7026C26.2572 14.2719 25.5526 14.5566 24.7499 14.5566C24.0312 14.5566 23.4806 14.3373 23.0979 13.8986C22.7246 13.4599 22.5379 12.8999 22.5379 12.2186C22.5379 10.4919 23.4992 9.62861 25.4219 9.62861C25.8046 9.62861 26.2012 9.67528 26.6119 9.76861V9.44661C26.6119 8.57861 26.1219 8.14461 25.1419 8.14461C24.6099 8.14461 24.0172 8.24728 23.3639 8.45261ZM26.6119 12.5966V10.8746C26.2946 10.7626 25.9959 10.7066 25.7159 10.7066C24.7546 10.7066 24.2739 11.1593 24.2739 12.0646C24.2739 12.4286 24.3579 12.7179 24.5259 12.9326C24.6939 13.1379 24.9412 13.2406 25.2679 13.2406C25.7719 13.2406 26.2199 13.0259 26.6119 12.5966Z" fill="#004D43"/>
<path d="M34.1793 7.29061V4.35061H35.9293V14.4166H34.3613L34.3053 13.7586C33.792 14.2906 33.1807 14.5566 32.4713 14.5566C31.6593 14.5566 31.0107 14.2346 30.5253 13.5906C30.0493 12.9466 29.8113 11.9993 29.8113 10.7486C29.8113 10.0579 29.9047 9.42794 30.0913 8.85861C30.278 8.27994 30.5907 7.79461 31.0293 7.40261C31.468 7.01061 32.0093 6.81461 32.6533 6.81461C33.2133 6.81461 33.722 6.97328 34.1793 7.29061ZM34.1933 12.6106V8.62061C33.7547 8.30328 33.3673 8.14461 33.0313 8.14461C32.098 8.14461 31.6313 9.02194 31.6313 10.7766C31.6313 11.5606 31.748 12.1579 31.9813 12.5686C32.2147 12.9793 32.546 13.1846 32.9753 13.1846C33.4047 13.1846 33.8107 12.9933 34.1933 12.6106Z" fill="#004D43"/>
<path d="M38.0839 8.45261L37.8739 7.15061C38.5459 6.92661 39.3159 6.81461 40.1839 6.81461C41.2106 6.81461 41.9386 7.04794 42.3679 7.51461C42.7973 7.97194 43.0119 8.81194 43.0119 10.0346V12.6666C43.0119 13.0586 43.1519 13.2546 43.4319 13.2546C43.5626 13.2546 43.7119 13.2219 43.8799 13.1566L44.0059 14.3326C43.6513 14.4819 43.2546 14.5566 42.8159 14.5566C42.1439 14.5566 41.7333 14.2719 41.5839 13.7026C40.9773 14.2719 40.2726 14.5566 39.4699 14.5566C38.7513 14.5566 38.2006 14.3373 37.8179 13.8986C37.4446 13.4599 37.2579 12.8999 37.2579 12.2186C37.2579 10.4919 38.2193 9.62861 40.1419 9.62861C40.5246 9.62861 40.9213 9.67528 41.3319 9.76861V9.44661C41.3319 8.57861 40.8419 8.14461 39.8619 8.14461C39.3299 8.14461 38.7373 8.24728 38.0839 8.45261ZM41.3319 12.5966V10.8746C41.0146 10.7626 40.7159 10.7066 40.4359 10.7066C39.4746 10.7066 38.9939 11.1593 38.9939 12.0646C38.9939 12.4286 39.0779 12.7179 39.2459 12.9326C39.4139 13.1379 39.6613 13.2406 39.9879 13.2406C40.4919 13.2406 40.9399 13.0259 41.3319 12.5966Z" fill="#004D43"/>
<path d="M45.0461 6.95461H46.7961V14.4166H45.0461V6.95461ZM44.9061 5.00861C44.9061 4.69128 44.9994 4.44394 45.1861 4.26661C45.3727 4.08928 45.6154 4.00061 45.9141 4.00061C46.2407 4.00061 46.4927 4.08928 46.6701 4.26661C46.8474 4.43461 46.9361 4.68194 46.9361 5.00861C46.9361 5.33528 46.8381 5.58728 46.6421 5.76461C46.4554 5.93261 46.2127 6.01661 45.9141 6.01661C45.6061 6.01661 45.3587 5.92794 45.1721 5.75061C44.9947 5.56394 44.9061 5.31661 44.9061 5.00861Z" fill="#004D43"/>
<path d="M48.9485 8.45261L48.7385 7.15061C49.4105 6.92661 50.1805 6.81461 51.0485 6.81461C52.0751 6.81461 52.8031 7.04794 53.2325 7.51461C53.6618 7.97194 53.8765 8.81194 53.8765 10.0346V12.6666C53.8765 13.0586 54.0165 13.2546 54.2965 13.2546C54.4271 13.2546 54.5765 13.2219 54.7445 13.1566L54.8705 14.3326C54.5158 14.4819 54.1191 14.5566 53.6805 14.5566C53.0085 14.5566 52.5978 14.2719 52.4485 13.7026C51.8418 14.2719 51.1371 14.5566 50.3345 14.5566C49.6158 14.5566 49.0651 14.3373 48.6825 13.8986C48.3091 13.4599 48.1225 12.8999 48.1225 12.2186C48.1225 10.4919 49.0838 9.62861 51.0065 9.62861C51.3891 9.62861 51.7858 9.67528 52.1965 9.76861V9.44661C52.1965 8.57861 51.7065 8.14461 50.7265 8.14461C50.1945 8.14461 49.6018 8.24728 48.9485 8.45261ZM52.1965 12.5966V10.8746C51.8791 10.7626 51.5805 10.7066 51.3005 10.7066C50.3391 10.7066 49.8585 11.1593 49.8585 12.0646C49.8585 12.4286 49.9425 12.7179 50.1105 12.9326C50.2785 13.1379 50.5258 13.2406 50.8525 13.2406C51.3565 13.2406 51.8045 13.0259 52.1965 12.5966Z" fill="#004D43"/>
<path d="M57.5066 6.95461L57.5626 7.69661C58.2346 7.10861 58.972 6.81461 59.7746 6.81461C60.9786 6.81461 61.66 7.33261 61.8186 8.36861C61.856 8.60194 61.8746 8.91461 61.8746 9.30661V14.4166H60.1246V9.53061C60.1246 9.24128 60.12 9.04994 60.1106 8.95661C60.0546 8.49928 59.7466 8.27061 59.1866 8.27061C58.7013 8.27061 58.1973 8.50394 57.6746 8.97061V14.4166H55.9106V6.95461H57.5066Z" fill="#004D43"/>
<path d="M66.2705 13.7166L66.8585 12.1486C67.7452 12.7646 68.5992 13.0726 69.4205 13.0726C69.8965 13.0726 70.2792 12.9653 70.5685 12.7506C70.8672 12.5266 71.0165 12.1813 71.0165 11.7146C71.0165 11.2106 70.8578 10.8373 70.5405 10.5946C70.2325 10.3519 69.7285 10.1326 69.0285 9.93661C68.7298 9.85261 68.4778 9.77794 68.2725 9.71261C68.0765 9.63794 67.8478 9.52594 67.5865 9.37661C67.3345 9.21794 67.1292 9.04528 66.9705 8.85861C66.8212 8.67194 66.6905 8.42461 66.5785 8.11661C66.4665 7.80861 66.4105 7.46328 66.4105 7.08061C66.4105 6.20328 66.7138 5.49394 67.3205 4.95261C67.9365 4.41128 68.7252 4.14061 69.6865 4.14061C70.6665 4.14061 71.4085 4.37394 71.9125 4.84061C72.4258 5.30728 72.7618 5.87661 72.9205 6.54861L71.2965 7.02461C71.0352 6.09128 70.4845 5.62461 69.6445 5.62461C69.2432 5.62461 68.9118 5.73194 68.6505 5.94661C68.3892 6.16128 68.2585 6.47861 68.2585 6.89861C68.2585 7.34661 68.4032 7.67328 68.6925 7.87861C68.9912 8.08394 69.4672 8.28461 70.1205 8.48061C70.9978 8.74194 71.6698 9.09661 72.1365 9.54461C72.6125 9.99261 72.8505 10.6413 72.8505 11.4906C72.8505 12.4613 72.5332 13.2266 71.8985 13.7866C71.2732 14.3373 70.4425 14.6126 69.4065 14.6126C68.1652 14.6126 67.1198 14.3139 66.2705 13.7166Z" fill="#004D43"/>
<path d="M78.1916 6.95461L79.8996 7.13661C79.125 9.92728 78.3363 12.2606 77.5336 14.1366C77.291 14.7059 77.0763 15.1633 76.8896 15.5086C76.7123 15.8633 76.4883 16.2133 76.2176 16.5586C75.947 16.9039 75.639 17.1559 75.2936 17.3146C74.9576 17.4733 74.575 17.5526 74.1456 17.5526C73.3523 17.5526 72.6196 17.3753 71.9476 17.0206L72.3956 15.5786C73.0396 15.9146 73.5716 16.0826 73.9916 16.0826C74.393 16.0826 74.7056 15.9379 74.9296 15.6486C75.1629 15.3686 75.415 14.8739 75.6856 14.1646L73.0956 7.12261L74.9576 6.95461L76.0076 10.2726C76.297 11.2153 76.5116 11.9199 76.6516 12.3866C77.0343 11.2759 77.5476 9.46528 78.1916 6.95461Z" fill="#004D43"/>
<path d="M81.1069 8.45261L80.8969 7.15061C81.5689 6.92661 82.3389 6.81461 83.2069 6.81461C84.2336 6.81461 84.9616 7.04794 85.3909 7.51461C85.8202 7.97194 86.0349 8.81194 86.0349 10.0346V12.6666C86.0349 13.0586 86.1749 13.2546 86.4549 13.2546C86.5856 13.2546 86.7349 13.2219 86.9029 13.1566L87.0289 14.3326C86.6742 14.4819 86.2776 14.5566 85.8389 14.5566C85.1669 14.5566 84.7562 14.2719 84.6069 13.7026C84.0002 14.2719 83.2956 14.5566 82.4929 14.5566C81.7742 14.5566 81.2236 14.3373 80.8409 13.8986C80.4676 13.4599 80.2809 12.8999 80.2809 12.2186C80.2809 10.4919 81.2422 9.62861 83.1649 9.62861C83.5476 9.62861 83.9442 9.67528 84.3549 9.76861V9.44661C84.3549 8.57861 83.8649 8.14461 82.8849 8.14461C82.3529 8.14461 81.7602 8.24728 81.1069 8.45261ZM84.3549 12.5966V10.8746C84.0376 10.7626 83.7389 10.7066 83.4589 10.7066C82.4976 10.7066 82.0169 11.1593 82.0169 12.0646C82.0169 12.4286 82.1009 12.7179 82.2689 12.9326C82.4369 13.1379 82.6842 13.2406 83.0109 13.2406C83.5149 13.2406 83.9629 13.0259 84.3549 12.5966Z" fill="#004D43"/>
<path d="M91.4291 6.81461C91.9424 6.81461 92.3764 7.07128 92.7311 7.58461L91.9471 8.84461C91.7231 8.56461 91.4571 8.42461 91.1491 8.42461C90.6824 8.42461 90.2437 8.63928 89.8331 9.06861V14.4166H88.0691V6.95461H89.6371L89.7071 7.73861C90.2297 7.12261 90.8037 6.81461 91.4291 6.81461Z" fill="#004D43"/>
<path d="M93.5902 6.95461H95.3402V14.4166H93.5902V6.95461ZM93.4502 5.00861C93.4502 4.69128 93.5435 4.44394 93.7302 4.26661C93.9169 4.08928 94.1595 4.00061 94.4582 4.00061C94.7849 4.00061 95.0369 4.08928 95.2142 4.26661C95.3915 4.43461 95.4802 4.68194 95.4802 5.00861C95.4802 5.33528 95.3822 5.58728 95.1862 5.76461C94.9995 5.93261 94.7569 6.01661 94.4582 6.01661C94.1502 6.01661 93.9029 5.92794 93.7162 5.75061C93.5389 5.56394 93.4502 5.31661 93.4502 5.00861Z" fill="#004D43"/>
<path d="M97.4926 8.45261L97.2826 7.15061C97.9546 6.92661 98.7246 6.81461 99.5926 6.81461C100.619 6.81461 101.347 7.04794 101.777 7.51461C102.206 7.97194 102.421 8.81194 102.421 10.0346V12.6666C102.421 13.0586 102.561 13.2546 102.841 13.2546C102.971 13.2546 103.121 13.2219 103.289 13.1566L103.415 14.3326C103.06 14.4819 102.663 14.5566 102.225 14.5566C101.553 14.5566 101.142 14.2719 100.993 13.7026C100.386 14.2719 99.6813 14.5566 98.8786 14.5566C98.1599 14.5566 97.6093 14.3373 97.2266 13.8986C96.8533 13.4599 96.6666 12.8999 96.6666 12.2186C96.6666 10.4919 97.6279 9.62861 99.5506 9.62861C99.9333 9.62861 100.33 9.67528 100.741 9.76861V9.44661C100.741 8.57861 100.251 8.14461 99.2706 8.14461C98.7386 8.14461 98.1459 8.24728 97.4926 8.45261ZM100.741 12.5966V10.8746C100.423 10.7626 100.125 10.7066 99.8446 10.7066C98.8833 10.7066 98.4026 11.1593 98.4026 12.0646C98.4026 12.4286 98.4866 12.7179 98.6546 12.9326C98.8226 13.1379 99.0699 13.2406 99.3966 13.2406C99.9006 13.2406 100.349 13.0259 100.741 12.5966Z" fill="#004D43"/>
<path d="M108.347 6.81461C109.131 6.81461 109.672 7.02461 109.971 7.44461C110.269 7.85528 110.419 8.47594 110.419 9.30661V14.4166H108.669V9.53061C108.669 9.05461 108.603 8.72794 108.473 8.55061C108.351 8.36394 108.104 8.27061 107.731 8.27061C107.245 8.27061 106.741 8.50394 106.219 8.97061V14.4166H104.455V4.35061H106.219V7.61261C106.872 7.08061 107.581 6.81461 108.347 6.81461Z" fill="#004D43"/>
<path d="M5.31201 31.8526V38.7166H1.98401V20.0226H8.53601C10.512 20.0226 12.046 20.4819 13.138 21.4006C14.23 22.3192 14.776 23.6539 14.776 25.4046C14.776 27.3632 14.178 28.9319 12.982 30.1106C11.8033 31.2719 10.2087 31.8526 8.19801 31.8526H5.31201ZM5.31201 29.2786H7.83401C8.99534 29.2786 9.87068 28.9752 10.46 28.3686C11.0667 27.7446 11.37 26.8432 11.37 25.6646C11.37 23.6019 10.278 22.5706 8.09401 22.5706H5.31201V29.2786Z" fill="#72BF44"/>
<path d="M17.205 24.8586H20.455V38.7166H17.205V24.8586ZM16.945 21.2446C16.945 20.6552 17.1183 20.1959 17.465 19.8666C17.8116 19.5372 18.2623 19.3726 18.817 19.3726C19.4236 19.3726 19.8916 19.5372 20.221 19.8666C20.5503 20.1786 20.715 20.6379 20.715 21.2446C20.715 21.8512 20.533 22.3192 20.169 22.6486C19.8223 22.9606 19.3716 23.1166 18.817 23.1166C18.245 23.1166 17.7856 22.9519 17.439 22.6226C17.1096 22.2759 16.945 21.8166 16.945 21.2446Z" fill="#72BF44"/>
<path d="M26.7403 24.8586L26.8443 26.2366C28.0923 25.1446 29.4616 24.5986 30.9523 24.5986C33.1883 24.5986 34.4536 25.5606 34.7483 27.4846C34.8176 27.9179 34.8523 28.4986 34.8523 29.2266V38.7166H31.6023V29.6426C31.6023 29.1052 31.5936 28.7499 31.5763 28.5766C31.4723 27.7272 30.9003 27.3026 29.8603 27.3026C28.9589 27.3026 28.0229 27.7359 27.0523 28.6026V38.7166H23.7763V24.8586H26.7403Z" fill="#72BF44"/>
<path d="M41.4439 24.8586V40.1206C41.4439 43.0672 40.0572 44.5406 37.2839 44.5406C36.0705 44.5406 35.0046 44.3239 34.0859 43.8906L34.5799 41.2126C35.4465 41.6286 36.2092 41.8366 36.8679 41.8366C37.3186 41.8366 37.6479 41.6892 37.8559 41.3946C38.0639 41.1172 38.1679 40.6059 38.1679 39.8606V24.8586H41.4439ZM37.9079 21.2446C37.9079 20.6552 38.0812 20.1959 38.4279 19.8666C38.7746 19.5372 39.2252 19.3726 39.7799 19.3726C40.3866 19.3726 40.8545 19.5372 41.1839 19.8666C41.5132 20.1786 41.6779 20.6379 41.6779 21.2446C41.6779 21.8512 41.4959 22.3192 41.1319 22.6486C40.7852 22.9606 40.3345 23.1166 39.7799 23.1166C39.2079 23.1166 38.7486 22.9519 38.4019 22.6226C38.0725 22.2759 37.9079 21.8166 37.9079 21.2446Z" fill="#72BF44"/>
<path d="M45.4146 27.6406L45.0246 25.2226C46.2726 24.8066 47.7026 24.5986 49.3146 24.5986C51.2212 24.5986 52.5732 25.0319 53.3706 25.8986C54.1679 26.7479 54.5666 28.3079 54.5666 30.5786V35.4666C54.5666 36.1946 54.8266 36.5586 55.3466 36.5586C55.5892 36.5586 55.8666 36.4979 56.1786 36.3766L56.4126 38.5606C55.7539 38.8379 55.0172 38.9766 54.2026 38.9766C52.9546 38.9766 52.1919 38.4479 51.9146 37.3906C50.7879 38.4479 49.4792 38.9766 47.9886 38.9766C46.6539 38.9766 45.6312 38.5692 44.9206 37.7546C44.2272 36.9399 43.8806 35.8999 43.8806 34.6346C43.8806 31.4279 45.6659 29.8246 49.2366 29.8246C49.9472 29.8246 50.6839 29.9112 51.4466 30.0846V29.4866C51.4466 27.8746 50.5366 27.0686 48.7166 27.0686C47.7286 27.0686 46.6279 27.2592 45.4146 27.6406ZM51.4466 35.3366V32.1386C50.8572 31.9306 50.3026 31.8266 49.7826 31.8266C47.9972 31.8266 47.1046 32.6672 47.1046 34.3486C47.1046 35.0246 47.2606 35.5619 47.5726 35.9606C47.8846 36.3419 48.3439 36.5326 48.9506 36.5326C49.8866 36.5326 50.7186 36.1339 51.4466 35.3366Z" fill="#72BF44"/>
<path d="M65.4943 24.5986C67.037 24.5986 68.1116 25.1272 68.7183 26.1846C70.0183 25.1272 71.4223 24.5986 72.9303 24.5986C74.4036 24.5986 75.4176 24.9886 75.9723 25.7686C76.5443 26.5312 76.8303 27.6839 76.8303 29.2266V38.7166H73.5803V29.6426C73.5803 29.1919 73.5543 28.8106 73.5023 28.4986C73.3463 27.7012 72.809 27.3026 71.8903 27.3026C71.0236 27.3026 70.1483 27.6752 69.2643 28.4206C69.2816 28.6979 69.2903 29.1746 69.2903 29.8506V38.7166H66.0663V29.6426C66.0663 29.1399 66.049 28.7932 66.0143 28.6026C65.9276 28.1346 65.763 27.8052 65.5203 27.6146C65.2776 27.4066 64.931 27.3026 64.4803 27.3026C63.4923 27.3026 62.5303 27.7359 61.5943 28.6026V38.7166H58.3183V24.8586H61.2823L61.3863 26.2106C62.617 25.1359 63.9863 24.5986 65.4943 24.5986Z" fill="#72BF44"/>
<path d="M80.7993 27.6406L80.4093 25.2226C81.6573 24.8066 83.0874 24.5986 84.6994 24.5986C86.606 24.5986 87.958 25.0319 88.7554 25.8986C89.5527 26.7479 89.9514 28.3079 89.9514 30.5786V35.4666C89.9514 36.1946 90.2114 36.5586 90.7314 36.5586C90.974 36.5586 91.2514 36.4979 91.5634 36.3766L91.7973 38.5606C91.1387 38.8379 90.402 38.9766 89.5874 38.9766C88.3394 38.9766 87.5767 38.4479 87.2993 37.3906C86.1727 38.4479 84.864 38.9766 83.3734 38.9766C82.0387 38.9766 81.016 38.5692 80.3054 37.7546C79.612 36.9399 79.2654 35.8999 79.2654 34.6346C79.2654 31.4279 81.0507 29.8246 84.6214 29.8246C85.332 29.8246 86.0687 29.9112 86.8313 30.0846V29.4866C86.8313 27.8746 85.9213 27.0686 84.1013 27.0686C83.1133 27.0686 82.0127 27.2592 80.7993 27.6406ZM86.8313 35.3366V32.1386C86.242 31.9306 85.6874 31.8266 85.1674 31.8266C83.382 31.8266 82.4893 32.6672 82.4893 34.3486C82.4893 35.0246 82.6454 35.5619 82.9574 35.9606C83.2693 36.3419 83.7287 36.5326 84.3354 36.5326C85.2714 36.5326 86.1033 36.1339 86.8313 35.3366Z" fill="#72BF44"/>
<path d="M96.6671 24.8586L96.7711 26.2366C98.0191 25.1446 99.3884 24.5986 100.879 24.5986C103.115 24.5986 104.38 25.5606 104.675 27.4846C104.744 27.9179 104.779 28.4986 104.779 29.2266V38.7166H101.529V29.6426C101.529 29.1052 101.52 28.7499 101.503 28.5766C101.399 27.7272 100.827 27.3026 99.7871 27.3026C98.8857 27.3026 97.9497 27.7359 96.9791 28.6026V38.7166H93.7031V24.8586H96.6671Z" fill="#72BF44"/>
<path d="M109.669 37.6336L110.277 36.4176C111.278 37.317 112.411 37.7666 113.678 37.7666C114.489 37.7666 115.16 37.564 115.692 37.1586C116.224 36.7406 116.49 36.101 116.49 35.2396C116.49 34.8343 116.427 34.4796 116.3 34.1756C116.186 33.859 116.053 33.6056 115.901 33.4156C115.762 33.2256 115.521 33.042 115.179 32.8646C114.837 32.6746 114.552 32.5416 114.324 32.4656C114.096 32.377 113.735 32.2503 113.241 32.0856C112.836 31.9463 112.506 31.826 112.253 31.7246C112.012 31.6233 111.727 31.4713 111.398 31.2686C111.081 31.066 110.834 30.8506 110.657 30.6226C110.48 30.382 110.321 30.0716 110.182 29.6916C110.055 29.299 109.992 28.862 109.992 28.3806C109.992 27.2786 110.378 26.4046 111.151 25.7586C111.924 25.1 112.899 24.7706 114.077 24.7706C115.28 24.7706 116.211 25.0873 116.87 25.7206C117.529 26.354 117.902 27.0633 117.991 27.8486L116.794 28.1906C116.629 27.4813 116.3 26.9493 115.806 26.5946C115.312 26.2273 114.717 26.0436 114.02 26.0436C113.298 26.0436 112.684 26.24 112.177 26.6326C111.67 27.0126 111.417 27.5953 111.417 28.3806C111.417 28.672 111.442 28.9316 111.493 29.1596C111.556 29.375 111.664 29.5713 111.816 29.7486C111.968 29.926 112.101 30.0716 112.215 30.1856C112.329 30.287 112.532 30.401 112.823 30.5276C113.114 30.6543 113.323 30.743 113.45 30.7936C113.589 30.8443 113.849 30.933 114.229 31.0596C114.66 31.2116 114.964 31.3193 115.141 31.3826C115.318 31.446 115.591 31.5663 115.958 31.7436C116.325 31.9083 116.591 32.0793 116.756 32.2566C116.933 32.4213 117.123 32.643 117.326 32.9216C117.541 33.1876 117.693 33.5043 117.782 33.8716C117.871 34.2263 117.915 34.6316 117.915 35.0876C117.915 36.2783 117.548 37.2283 116.813 37.9376C116.078 38.6343 115.021 38.9826 113.64 38.9826C112.728 38.9826 111.924 38.8433 111.227 38.5646C110.53 38.2733 110.011 37.963 109.669 37.6336Z" fill="#72BF44"/>
<path d="M127.19 33.8336H121.395C121.395 36.4936 122.345 37.8236 124.245 37.8236C125.119 37.8236 126.012 37.583 126.924 37.1016L127.038 38.2416C126.189 38.7103 125.207 38.9446 124.093 38.9446C121.42 38.9446 120.084 37.165 120.084 33.6056C120.084 31.845 120.419 30.553 121.091 29.7296C121.762 28.8936 122.687 28.4756 123.865 28.4756C125.017 28.4756 125.86 28.8746 126.392 29.6726C126.924 30.458 127.19 31.6233 127.19 33.1686V33.8336ZM125.879 32.8266C125.879 31.7626 125.695 30.9583 125.328 30.4136C124.973 29.8563 124.46 29.5776 123.789 29.5776C123.016 29.5776 122.427 29.907 122.022 30.5656C121.616 31.2116 121.414 31.9653 121.414 32.8266H125.879Z" fill="#72BF44"/>
<path d="M133.393 28.4756C134.305 28.4756 134.945 28.995 135.312 30.0336L134.267 30.6036C134.115 30.2743 133.957 30.04 133.792 29.9006C133.628 29.7486 133.387 29.6726 133.07 29.6726C132.475 29.6726 131.797 30.1096 131.037 30.9836V38.7166H129.764V28.6846H130.961V29.8056C131.772 28.919 132.583 28.4756 133.393 28.4756Z" fill="#72BF44"/>
<path d="M138.292 29.7866C139.52 28.9253 140.527 28.4946 141.313 28.4946C142.25 28.4946 142.985 28.862 143.517 29.5966C144.061 30.3313 144.334 31.427 144.334 32.8836C144.334 36.899 142.94 38.9066 140.154 38.9066C139.014 38.9066 137.975 38.6216 137.038 38.0516V25.0556H138.292V29.7866ZM142.947 33.3776C142.947 31.9843 142.776 31.0216 142.434 30.4896C142.104 29.9576 141.623 29.6916 140.99 29.6916C140.293 29.6916 139.394 30.078 138.292 30.8506V37.3486C138.849 37.6653 139.476 37.8236 140.173 37.8236C141.161 37.8236 141.87 37.4056 142.301 36.5696C142.731 35.7336 142.947 34.6696 142.947 33.3776Z" fill="#72BF44"/>
<path d="M147.21 29.9386L147.077 28.8176C147.901 28.5896 148.857 28.4756 149.946 28.4756C152.049 28.4756 153.1 29.5143 153.1 31.5916V36.9686C153.1 37.2726 153.151 37.488 153.252 37.6146C153.366 37.7413 153.55 37.8046 153.803 37.8046C154.006 37.8046 154.278 37.7413 154.62 37.6146L154.734 38.6596C154.215 38.8243 153.797 38.9066 153.48 38.9066C153.037 38.9066 152.682 38.7926 152.416 38.5646C152.15 38.324 151.998 38.0326 151.96 37.6906C151.048 38.5013 150.086 38.9066 149.072 38.9066C148.148 38.9066 147.445 38.6153 146.963 38.0326C146.482 37.45 146.241 36.709 146.241 35.8096C146.241 34.6316 146.577 33.764 147.248 33.2066C147.932 32.6366 148.882 32.3516 150.098 32.3516C150.706 32.3516 151.289 32.415 151.846 32.5416V31.8196C151.846 31.0343 151.675 30.4643 151.333 30.1096C150.991 29.755 150.396 29.5776 149.547 29.5776C148.749 29.5776 147.97 29.698 147.21 29.9386ZM151.846 36.6836L151.865 33.5296C151.308 33.3903 150.789 33.3206 150.307 33.3206C149.395 33.3206 148.711 33.5106 148.255 33.8906C147.812 34.2706 147.59 34.8976 147.59 35.7716C147.59 36.3543 147.736 36.8356 148.027 37.2156C148.331 37.5956 148.775 37.7856 149.357 37.7856C150.231 37.7856 151.061 37.4183 151.846 36.6836Z" fill="#72BF44"/>
<path d="M159.599 28.4756C160.321 28.4756 161.112 28.767 161.974 29.3496V28.6846H163.247V38.4316C163.247 38.9763 163.221 39.4513 163.171 39.8566C163.12 40.2746 163.012 40.68 162.848 41.0726C162.696 41.4653 162.487 41.7883 162.221 42.0416C161.955 42.295 161.6 42.4976 161.157 42.6496C160.713 42.8016 160.188 42.8776 159.58 42.8776C158.376 42.8776 157.325 42.618 156.426 42.0986L156.654 40.9016C157.008 41.117 157.471 41.3133 158.041 41.4906C158.623 41.6806 159.181 41.7756 159.713 41.7756C160.207 41.7756 160.612 41.6806 160.929 41.4906C161.258 41.3133 161.499 41.0473 161.651 40.6926C161.803 40.338 161.904 39.9706 161.955 39.5906C162.018 39.2233 162.05 38.78 162.05 38.2606V37.6716C161.201 38.495 160.302 38.9066 159.352 38.9066C158.3 38.9066 157.464 38.4823 156.844 37.6336C156.223 36.785 155.913 35.5246 155.913 33.8526C155.913 33.1813 155.976 32.548 156.103 31.9526C156.242 31.3446 156.445 30.7746 156.711 30.2426C156.989 29.698 157.376 29.2673 157.87 28.9506C158.364 28.634 158.94 28.4756 159.599 28.4756ZM157.243 33.9286C157.243 35.1573 157.458 36.1073 157.889 36.7786C158.319 37.45 158.883 37.7856 159.58 37.7856C160.454 37.7856 161.258 37.355 161.993 36.4936V30.6036C161.144 29.945 160.384 29.6156 159.713 29.6156C158.066 29.6156 157.243 31.0533 157.243 33.9286Z" fill="#72BF44"/>
<path d="M169.067 38.9066C167.547 38.9066 166.673 38.2543 166.445 36.9496C166.394 36.6583 166.369 36.2466 166.369 35.7146V28.8556L167.623 28.6846V35.5436C167.623 36.025 167.648 36.367 167.699 36.5696C167.826 37.3803 168.383 37.7856 169.371 37.7856C170.308 37.7856 171.303 37.2916 172.354 36.3036V28.6846H173.646V38.7166H172.354V37.4816C171.252 38.4316 170.156 38.9066 169.067 38.9066Z" fill="#72BF44"/>
<path d="M181.472 28.4756C182.979 28.4756 183.859 29.1343 184.113 30.4516C184.151 30.667 184.17 31.0786 184.17 31.6866V38.7166H182.916V31.8576C182.916 31.4143 182.897 31.0723 182.859 30.8316C182.707 30.0336 182.124 29.6346 181.111 29.6346C180.186 29.6346 179.211 30.1223 178.185 31.0976V38.7166H176.912V28.6846H178.185V29.9386C179.261 28.9633 180.357 28.4756 181.472 28.4756Z" fill="#72BF44"/>
<path d="M187.622 29.9386L187.489 28.8176C188.313 28.5896 189.269 28.4756 190.358 28.4756C192.461 28.4756 193.512 29.5143 193.512 31.5916V36.9686C193.512 37.2726 193.563 37.488 193.664 37.6146C193.778 37.7413 193.962 37.8046 194.215 37.8046C194.418 37.8046 194.69 37.7413 195.032 37.6146L195.146 38.6596C194.627 38.8243 194.209 38.9066 193.892 38.9066C193.449 38.9066 193.094 38.7926 192.828 38.5646C192.562 38.324 192.41 38.0326 192.372 37.6906C191.46 38.5013 190.498 38.9066 189.484 38.9066C188.56 38.9066 187.857 38.6153 187.375 38.0326C186.894 37.45 186.653 36.709 186.653 35.8096C186.653 34.6316 186.989 33.764 187.66 33.2066C188.344 32.6366 189.294 32.3516 190.51 32.3516C191.118 32.3516 191.701 32.415 192.258 32.5416V31.8196C192.258 31.0343 192.087 30.4643 191.745 30.1096C191.403 29.755 190.808 29.5776 189.959 29.5776C189.161 29.5776 188.382 29.698 187.622 29.9386ZM192.258 36.6836L192.277 33.5296C191.72 33.3903 191.201 33.3206 190.719 33.3206C189.807 33.3206 189.123 33.5106 188.667 33.8906C188.224 34.2706 188.002 34.8976 188.002 35.7716C188.002 36.3543 188.148 36.8356 188.439 37.2156C188.743 37.5956 189.187 37.7856 189.769 37.7856C190.643 37.7856 191.473 37.4183 192.258 36.6836Z" fill="#72BF44"/>
</svg>
