<svg width="240" height="48" viewBox="0 0 240 48" fill="none" xmlns="http://www.w3.org/2000/svg">
<path d="M2.792 10.7205V14.4165H1V4.35049H4.528C5.592 4.35049 6.418 4.59782 7.006 5.09249C7.594 5.58715 7.888 6.30582 7.888 7.24849C7.888 8.30315 7.566 9.14782 6.922 9.78249C6.28733 10.4078 5.42867 10.7205 4.346 10.7205H2.792ZM2.792 9.33449H4.15C4.77533 9.33449 5.24667 9.17115 5.564 8.84449C5.89067 8.50849 6.054 8.02316 6.054 7.38849C6.054 6.27782 5.466 5.72249 4.29 5.72249H2.792V9.33449Z" fill="#004D43"/>
<path d="M14.1077 10.9865H10.1177C10.1271 11.6865 10.2857 12.2232 10.5937 12.5965C10.9017 12.9605 11.3264 13.1425 11.8677 13.1425C12.5304 13.1425 13.1977 12.9558 13.8697 12.5825L13.9677 14.0525C13.3331 14.3978 12.5724 14.5705 11.6857 14.5705C9.45505 14.5705 8.33972 13.2498 8.33972 10.6085C8.33972 9.32049 8.61505 8.36849 9.16572 7.75249C9.72572 7.12716 10.4584 6.81449 11.3637 6.81449C13.1931 6.81449 14.1077 7.98115 14.1077 10.3145V10.9865ZM12.4557 9.89449C12.4557 8.69982 12.0824 8.10249 11.3357 8.10249C10.9344 8.10249 10.6311 8.27049 10.4257 8.60649C10.2297 8.94249 10.1317 9.37182 10.1317 9.89449H12.4557Z" fill="#004D43"/>
<path d="M19.5713 7.43049L19.6413 6.95449H21.2093V14.3045C21.2093 16.4698 20.2107 17.5525 18.2133 17.5525C17.2147 17.5525 16.342 17.3705 15.5953 17.0065L15.8613 15.4805C16.1507 15.6578 16.5007 15.8025 16.9113 15.9145C17.3313 16.0358 17.7187 16.0965 18.0733 16.0965C19.0347 16.0965 19.5153 15.4712 19.5153 14.2205V13.7725C19.058 14.2672 18.47 14.5145 17.7513 14.5145C16.9393 14.5145 16.2907 14.2018 15.8053 13.5765C15.3293 12.9418 15.0913 11.9992 15.0913 10.7485C15.0913 10.0578 15.18 9.42782 15.3573 8.85849C15.544 8.28916 15.852 7.80849 16.2813 7.41649C16.72 7.01515 17.252 6.81449 17.8773 6.81449C18.5027 6.81449 19.0673 7.01982 19.5713 7.43049ZM19.4593 12.5545V8.64849C19.0207 8.33115 18.6287 8.17249 18.2833 8.17249C17.3687 8.17249 16.9113 9.04049 16.9113 10.7765C16.9113 12.3445 17.3547 13.1285 18.2413 13.1285C18.6707 13.1285 19.0767 12.9372 19.4593 12.5545Z" fill="#004D43"/>
<path d="M23.3639 8.45249L23.1539 7.15049C23.8259 6.92649 24.5959 6.81449 25.4639 6.81449C26.4906 6.81449 27.2186 7.04782 27.6479 7.51449C28.0772 7.97182 28.2919 8.81182 28.2919 10.0345V12.6665C28.2919 13.0585 28.4319 13.2545 28.7119 13.2545C28.8426 13.2545 28.9919 13.2218 29.1599 13.1565L29.2859 14.3325C28.9312 14.4818 28.5346 14.5565 28.0959 14.5565C27.4239 14.5565 27.0132 14.2718 26.8639 13.7025C26.2572 14.2718 25.5526 14.5565 24.7499 14.5565C24.0312 14.5565 23.4806 14.3372 23.0979 13.8985C22.7246 13.4598 22.5379 12.8998 22.5379 12.2185C22.5379 10.4918 23.4992 9.62849 25.4219 9.62849C25.8046 9.62849 26.2012 9.67516 26.6119 9.76849V9.44649C26.6119 8.57849 26.1219 8.14449 25.1419 8.14449C24.6099 8.14449 24.0172 8.24716 23.3639 8.45249ZM26.6119 12.5965V10.8745C26.2946 10.7625 25.9959 10.7065 25.7159 10.7065C24.7546 10.7065 24.2739 11.1592 24.2739 12.0645C24.2739 12.4285 24.3579 12.7178 24.5259 12.9325C24.6939 13.1378 24.9412 13.2405 25.2679 13.2405C25.7719 13.2405 26.2199 13.0258 26.6119 12.5965Z" fill="#004D43"/>
<path d="M34.1793 7.29049V4.35049H35.9293V14.4165H34.3613L34.3053 13.7585C33.792 14.2905 33.1807 14.5565 32.4713 14.5565C31.6593 14.5565 31.0107 14.2345 30.5253 13.5905C30.0493 12.9465 29.8113 11.9992 29.8113 10.7485C29.8113 10.0578 29.9047 9.42782 30.0913 8.85849C30.278 8.27982 30.5907 7.79449 31.0293 7.40249C31.468 7.01049 32.0093 6.81449 32.6533 6.81449C33.2133 6.81449 33.722 6.97316 34.1793 7.29049ZM34.1933 12.6105V8.62049C33.7547 8.30315 33.3673 8.14449 33.0313 8.14449C32.098 8.14449 31.6313 9.02182 31.6313 10.7765C31.6313 11.5605 31.748 12.1578 31.9813 12.5685C32.2147 12.9792 32.546 13.1845 32.9753 13.1845C33.4047 13.1845 33.8107 12.9932 34.1933 12.6105Z" fill="#004D43"/>
<path d="M38.0839 8.45249L37.8739 7.15049C38.5459 6.92649 39.3159 6.81449 40.1839 6.81449C41.2106 6.81449 41.9386 7.04782 42.3679 7.51449C42.7973 7.97182 43.0119 8.81182 43.0119 10.0345V12.6665C43.0119 13.0585 43.1519 13.2545 43.4319 13.2545C43.5626 13.2545 43.7119 13.2218 43.8799 13.1565L44.0059 14.3325C43.6513 14.4818 43.2546 14.5565 42.8159 14.5565C42.1439 14.5565 41.7333 14.2718 41.5839 13.7025C40.9773 14.2718 40.2726 14.5565 39.4699 14.5565C38.7513 14.5565 38.2006 14.3372 37.8179 13.8985C37.4446 13.4598 37.2579 12.8998 37.2579 12.2185C37.2579 10.4918 38.2193 9.62849 40.1419 9.62849C40.5246 9.62849 40.9213 9.67516 41.3319 9.76849V9.44649C41.3319 8.57849 40.8419 8.14449 39.8619 8.14449C39.3299 8.14449 38.7373 8.24716 38.0839 8.45249ZM41.3319 12.5965V10.8745C41.0146 10.7625 40.7159 10.7065 40.4359 10.7065C39.4746 10.7065 38.9939 11.1592 38.9939 12.0645C38.9939 12.4285 39.0779 12.7178 39.2459 12.9325C39.4139 13.1378 39.6613 13.2405 39.9879 13.2405C40.4919 13.2405 40.9399 13.0258 41.3319 12.5965Z" fill="#004D43"/>
<path d="M45.0461 6.95449H46.7961V14.4165H45.0461V6.95449ZM44.9061 5.00849C44.9061 4.69115 44.9994 4.44382 45.1861 4.26649C45.3727 4.08915 45.6154 4.00049 45.9141 4.00049C46.2407 4.00049 46.4927 4.08915 46.6701 4.26649C46.8474 4.43449 46.9361 4.68182 46.9361 5.00849C46.9361 5.33515 46.8381 5.58715 46.6421 5.76449C46.4554 5.93249 46.2127 6.01649 45.9141 6.01649C45.6061 6.01649 45.3587 5.92782 45.1721 5.75049C44.9947 5.56382 44.9061 5.31649 44.9061 5.00849Z" fill="#004D43"/>
<path d="M48.9485 8.45249L48.7385 7.15049C49.4105 6.92649 50.1805 6.81449 51.0485 6.81449C52.0751 6.81449 52.8031 7.04782 53.2325 7.51449C53.6618 7.97182 53.8765 8.81182 53.8765 10.0345V12.6665C53.8765 13.0585 54.0165 13.2545 54.2965 13.2545C54.4271 13.2545 54.5765 13.2218 54.7445 13.1565L54.8705 14.3325C54.5158 14.4818 54.1191 14.5565 53.6805 14.5565C53.0085 14.5565 52.5978 14.2718 52.4485 13.7025C51.8418 14.2718 51.1371 14.5565 50.3345 14.5565C49.6158 14.5565 49.0651 14.3372 48.6825 13.8985C48.3091 13.4598 48.1225 12.8998 48.1225 12.2185C48.1225 10.4918 49.0838 9.62849 51.0065 9.62849C51.3891 9.62849 51.7858 9.67516 52.1965 9.76849V9.44649C52.1965 8.57849 51.7065 8.14449 50.7265 8.14449C50.1945 8.14449 49.6018 8.24716 48.9485 8.45249ZM52.1965 12.5965V10.8745C51.8791 10.7625 51.5805 10.7065 51.3005 10.7065C50.3391 10.7065 49.8585 11.1592 49.8585 12.0645C49.8585 12.4285 49.9425 12.7178 50.1105 12.9325C50.2785 13.1378 50.5258 13.2405 50.8525 13.2405C51.3565 13.2405 51.8045 13.0258 52.1965 12.5965Z" fill="#004D43"/>
<path d="M57.5066 6.95449L57.5626 7.69649C58.2346 7.10849 58.972 6.81449 59.7746 6.81449C60.9786 6.81449 61.66 7.33249 61.8186 8.36849C61.856 8.60182 61.8746 8.91449 61.8746 9.30649V14.4165H60.1246V9.53049C60.1246 9.24116 60.12 9.04982 60.1106 8.95649C60.0546 8.49916 59.7466 8.27049 59.1866 8.27049C58.7013 8.27049 58.1973 8.50382 57.6746 8.97049V14.4165H55.9106V6.95449H57.5066Z" fill="#004D43"/>
<path d="M66.2705 13.7165L66.8585 12.1485C67.7452 12.7645 68.5992 13.0725 69.4205 13.0725C69.8965 13.0725 70.2792 12.9652 70.5685 12.7505C70.8672 12.5265 71.0165 12.1812 71.0165 11.7145C71.0165 11.2105 70.8578 10.8372 70.5405 10.5945C70.2325 10.3518 69.7285 10.1325 69.0285 9.93649C68.7298 9.85249 68.4778 9.77782 68.2725 9.71249C68.0765 9.63782 67.8478 9.52582 67.5865 9.37649C67.3345 9.21782 67.1292 9.04516 66.9705 8.85849C66.8212 8.67182 66.6905 8.42449 66.5785 8.11649C66.4665 7.80849 66.4105 7.46316 66.4105 7.08049C66.4105 6.20316 66.7138 5.49382 67.3205 4.95249C67.9365 4.41115 68.7252 4.14049 69.6865 4.14049C70.6665 4.14049 71.4085 4.37382 71.9125 4.84049C72.4258 5.30716 72.7618 5.87649 72.9205 6.54849L71.2965 7.02449C71.0352 6.09115 70.4845 5.62449 69.6445 5.62449C69.2432 5.62449 68.9118 5.73182 68.6505 5.94649C68.3892 6.16115 68.2585 6.47849 68.2585 6.89849C68.2585 7.34649 68.4032 7.67316 68.6925 7.87849C68.9912 8.08382 69.4672 8.28449 70.1205 8.48049C70.9978 8.74182 71.6698 9.09649 72.1365 9.54449C72.6125 9.99249 72.8505 10.6412 72.8505 11.4905C72.8505 12.4612 72.5332 13.2265 71.8985 13.7865C71.2732 14.3372 70.4425 14.6125 69.4065 14.6125C68.1652 14.6125 67.1198 14.3138 66.2705 13.7165Z" fill="#004D43"/>
<path d="M78.1916 6.95449L79.8996 7.13649C79.125 9.92715 78.3363 12.2605 77.5336 14.1365C77.291 14.7058 77.0763 15.1632 76.8896 15.5085C76.7123 15.8632 76.4883 16.2132 76.2176 16.5585C75.947 16.9038 75.639 17.1558 75.2936 17.3145C74.9576 17.4732 74.575 17.5525 74.1456 17.5525C73.3523 17.5525 72.6196 17.3752 71.9476 17.0205L72.3956 15.5785C73.0396 15.9145 73.5716 16.0825 73.9916 16.0825C74.393 16.0825 74.7056 15.9378 74.9296 15.6485C75.1629 15.3685 75.415 14.8738 75.6856 14.1645L73.0956 7.12249L74.9576 6.95449L76.0076 10.2725C76.297 11.2152 76.5116 11.9198 76.6516 12.3865C77.0343 11.2758 77.5476 9.46515 78.1916 6.95449Z" fill="#004D43"/>
<path d="M81.1069 8.45249L80.8969 7.15049C81.5689 6.92649 82.3389 6.81449 83.2069 6.81449C84.2336 6.81449 84.9616 7.04782 85.3909 7.51449C85.8202 7.97182 86.0349 8.81182 86.0349 10.0345V12.6665C86.0349 13.0585 86.1749 13.2545 86.4549 13.2545C86.5856 13.2545 86.7349 13.2218 86.9029 13.1565L87.0289 14.3325C86.6742 14.4818 86.2776 14.5565 85.8389 14.5565C85.1669 14.5565 84.7562 14.2718 84.6069 13.7025C84.0002 14.2718 83.2956 14.5565 82.4929 14.5565C81.7742 14.5565 81.2236 14.3372 80.8409 13.8985C80.4676 13.4598 80.2809 12.8998 80.2809 12.2185C80.2809 10.4918 81.2422 9.62849 83.1649 9.62849C83.5476 9.62849 83.9442 9.67516 84.3549 9.76849V9.44649C84.3549 8.57849 83.8649 8.14449 82.8849 8.14449C82.3529 8.14449 81.7602 8.24716 81.1069 8.45249ZM84.3549 12.5965V10.8745C84.0376 10.7625 83.7389 10.7065 83.4589 10.7065C82.4976 10.7065 82.0169 11.1592 82.0169 12.0645C82.0169 12.4285 82.1009 12.7178 82.2689 12.9325C82.4369 13.1378 82.6842 13.2405 83.0109 13.2405C83.5149 13.2405 83.9629 13.0258 84.3549 12.5965Z" fill="#004D43"/>
<path d="M91.4291 6.81449C91.9424 6.81449 92.3764 7.07115 92.7311 7.58449L91.9471 8.84449C91.7231 8.56449 91.4571 8.42449 91.1491 8.42449C90.6824 8.42449 90.2437 8.63915 89.8331 9.06849V14.4165H88.0691V6.95449H89.6371L89.7071 7.73849C90.2297 7.12249 90.8037 6.81449 91.4291 6.81449Z" fill="#004D43"/>
<path d="M93.5902 6.95449H95.3402V14.4165H93.5902V6.95449ZM93.4502 5.00849C93.4502 4.69115 93.5435 4.44382 93.7302 4.26649C93.9169 4.08915 94.1595 4.00049 94.4582 4.00049C94.7849 4.00049 95.0369 4.08915 95.2142 4.26649C95.3915 4.43449 95.4802 4.68182 95.4802 5.00849C95.4802 5.33515 95.3822 5.58715 95.1862 5.76449C94.9995 5.93249 94.7569 6.01649 94.4582 6.01649C94.1502 6.01649 93.9029 5.92782 93.7162 5.75049C93.5389 5.56382 93.4502 5.31649 93.4502 5.00849Z" fill="#004D43"/>
<path d="M97.4926 8.45249L97.2826 7.15049C97.9546 6.92649 98.7246 6.81449 99.5926 6.81449C100.619 6.81449 101.347 7.04782 101.777 7.51449C102.206 7.97182 102.421 8.81182 102.421 10.0345V12.6665C102.421 13.0585 102.561 13.2545 102.841 13.2545C102.971 13.2545 103.121 13.2218 103.289 13.1565L103.415 14.3325C103.06 14.4818 102.663 14.5565 102.225 14.5565C101.553 14.5565 101.142 14.2718 100.993 13.7025C100.386 14.2718 99.6813 14.5565 98.8786 14.5565C98.1599 14.5565 97.6093 14.3372 97.2266 13.8985C96.8533 13.4598 96.6666 12.8998 96.6666 12.2185C96.6666 10.4918 97.6279 9.62849 99.5506 9.62849C99.9333 9.62849 100.33 9.67516 100.741 9.76849V9.44649C100.741 8.57849 100.251 8.14449 99.2706 8.14449C98.7386 8.14449 98.1459 8.24716 97.4926 8.45249ZM100.741 12.5965V10.8745C100.423 10.7625 100.125 10.7065 99.8446 10.7065C98.8833 10.7065 98.4026 11.1592 98.4026 12.0645C98.4026 12.4285 98.4866 12.7178 98.6546 12.9325C98.8226 13.1378 99.0699 13.2405 99.3966 13.2405C99.9006 13.2405 100.349 13.0258 100.741 12.5965Z" fill="#004D43"/>
<path d="M108.347 6.81449C109.131 6.81449 109.672 7.02449 109.971 7.44449C110.269 7.85516 110.419 8.47582 110.419 9.30649V14.4165H108.669V9.53049C108.669 9.05449 108.603 8.72782 108.473 8.55049C108.351 8.36382 108.104 8.27049 107.731 8.27049C107.245 8.27049 106.741 8.50382 106.219 8.97049V14.4165H104.455V4.35049H106.219V7.61249C106.872 7.08049 107.581 6.81449 108.347 6.81449Z" fill="#004D43"/>
<path d="M8.35398 31.7486V29.2526H14.958V37.7806C13.138 38.6472 11.1966 39.0806 9.13398 39.0806C6.37798 39.0806 4.34998 38.2746 3.04998 36.6626C1.76731 35.0506 1.12598 32.5112 1.12598 29.0446C1.12598 26.1672 1.72398 23.8792 2.91998 22.1806C4.13331 20.4819 5.99664 19.6326 8.50998 19.6326C10.3646 19.6326 11.7773 20.0659 12.748 20.9326C13.7186 21.7819 14.3686 23.0039 14.698 24.5986L11.604 25.3526C11.3093 24.2952 10.928 23.5239 10.46 23.0386C10.0093 22.5359 9.32464 22.2846 8.40598 22.2846C5.87531 22.2846 4.60998 24.5032 4.60998 28.9406C4.60998 30.1366 4.67064 31.1592 4.79198 32.0086C4.91331 32.8579 5.13864 33.6379 5.46798 34.3486C5.79731 35.0419 6.26531 35.5706 6.87198 35.9346C7.49598 36.2812 8.26731 36.4546 9.18598 36.4546C10.122 36.4546 10.9626 36.2986 11.708 35.9866V31.7486H8.35398Z" fill="#BFD730"/>
<path d="M18.5405 27.6406L18.1505 25.2226C19.3985 24.8066 20.8285 24.5986 22.4405 24.5986C24.3472 24.5986 25.6992 25.0319 26.4965 25.8986C27.2938 26.7479 27.6925 28.3079 27.6925 30.5786V35.4666C27.6925 36.1946 27.9525 36.5586 28.4725 36.5586C28.7152 36.5586 28.9925 36.4979 29.3045 36.3766L29.5385 38.5606C28.8798 38.8379 28.1432 38.9766 27.3285 38.9766C26.0805 38.9766 25.3178 38.4479 25.0405 37.3906C23.9138 38.4479 22.6052 38.9766 21.1145 38.9766C19.7798 38.9766 18.7572 38.5692 18.0465 37.7546C17.3532 36.9399 17.0065 35.8999 17.0065 34.6346C17.0065 31.4279 18.7918 29.8246 22.3625 29.8246C23.0732 29.8246 23.8098 29.9112 24.5725 30.0846V29.4866C24.5725 27.8746 23.6625 27.0686 21.8425 27.0686C20.8545 27.0686 19.7538 27.2592 18.5405 27.6406ZM24.5725 35.3366V32.1386C23.9832 31.9306 23.4285 31.8266 22.9085 31.8266C21.1232 31.8266 20.2305 32.6672 20.2305 34.3486C20.2305 35.0246 20.3865 35.5619 20.6985 35.9606C21.0105 36.3419 21.4698 36.5326 22.0765 36.5326C23.0125 36.5326 23.8445 36.1339 24.5725 35.3366Z" fill="#BFD730"/>
<path d="M38.6003 25.4826V20.0226H41.8503V38.7166H38.9383L38.8343 37.4946C37.881 38.4826 36.7456 38.9766 35.4283 38.9766C33.9203 38.9766 32.7156 38.3786 31.8143 37.1826C30.9303 35.9866 30.4883 34.2272 30.4883 31.9046C30.4883 30.6219 30.6616 29.4519 31.0083 28.3946C31.355 27.3199 31.9356 26.4186 32.7503 25.6906C33.565 24.9626 34.5703 24.5986 35.7663 24.5986C36.8063 24.5986 37.751 24.8932 38.6003 25.4826ZM38.6263 35.3626V27.9526C37.8116 27.3632 37.0923 27.0686 36.4683 27.0686C34.735 27.0686 33.8683 28.6979 33.8683 31.9566C33.8683 33.4126 34.085 34.5219 34.5183 35.2846C34.9516 36.0472 35.567 36.4286 36.3643 36.4286C37.1616 36.4286 37.9156 36.0732 38.6263 35.3626Z" fill="#BFD730"/>
<path d="M45.8257 27.6406L45.4357 25.2226C46.6837 24.8066 48.1137 24.5986 49.7257 24.5986C51.6323 24.5986 52.9843 25.0319 53.7817 25.8986C54.579 26.7479 54.9777 28.3079 54.9777 30.5786V35.4666C54.9777 36.1946 55.2377 36.5586 55.7577 36.5586C56.0003 36.5586 56.2777 36.4979 56.5897 36.3766L56.8237 38.5606C56.165 38.8379 55.4283 38.9766 54.6137 38.9766C53.3657 38.9766 52.603 38.4479 52.3257 37.3906C51.199 38.4479 49.8903 38.9766 48.3997 38.9766C47.065 38.9766 46.0423 38.5692 45.3317 37.7546C44.6383 36.9399 44.2917 35.8999 44.2917 34.6346C44.2917 31.4279 46.077 29.8246 49.6477 29.8246C50.3583 29.8246 51.095 29.9112 51.8577 30.0846V29.4866C51.8577 27.8746 50.9477 27.0686 49.1277 27.0686C48.1397 27.0686 47.039 27.2592 45.8257 27.6406ZM51.8577 35.3366V32.1386C51.2683 31.9306 50.7137 31.8266 50.1937 31.8266C48.4083 31.8266 47.5157 32.6672 47.5157 34.3486C47.5157 35.0246 47.6717 35.5619 47.9837 35.9606C48.2957 36.3419 48.755 36.5326 49.3617 36.5326C50.2977 36.5326 51.1297 36.1339 51.8577 35.3366Z" fill="#BFD730"/>
<path d="M58.7294 24.8586H61.9794V38.7166H58.7294V24.8586ZM58.4694 21.2446C58.4694 20.6552 58.6427 20.1959 58.9894 19.8666C59.3361 19.5372 59.7867 19.3726 60.3414 19.3726C60.9481 19.3726 61.416 19.5372 61.7454 19.8666C62.0747 20.1786 62.2394 20.6379 62.2394 21.2446C62.2394 21.8512 62.0574 22.3192 61.6934 22.6486C61.3467 22.9606 60.896 23.1166 60.3414 23.1166C59.7694 23.1166 59.3101 22.9519 58.9634 22.6226C58.634 22.2759 58.4694 21.8166 58.4694 21.2446Z" fill="#BFD730"/>
<path d="M66.137 26.2334V25.0554H75.941V26.2334H71.685V38.7164H70.374V26.2334H66.137Z" fill="#BFD730"/>
<path d="M75.8772 29.9384L75.7442 28.8174C76.5675 28.5894 77.5239 28.4754 78.6132 28.4754C80.7159 28.4754 81.7672 29.5141 81.7672 31.5914V36.9684C81.7672 37.2724 81.8179 37.4878 81.9192 37.6144C82.0332 37.7411 82.2169 37.8044 82.4702 37.8044C82.6729 37.8044 82.9452 37.7411 83.2872 37.6144L83.4012 38.6594C82.8819 38.8241 82.4639 38.9064 82.1472 38.9064C81.7039 38.9064 81.3492 38.7924 81.0832 38.5644C80.8172 38.3238 80.6652 38.0324 80.6272 37.6904C79.7152 38.5011 78.7525 38.9064 77.7392 38.9064C76.8145 38.9064 76.1115 38.6151 75.6302 38.0324C75.1489 37.4498 74.9082 36.7088 74.9082 35.8094C74.9082 34.6314 75.2439 33.7638 75.9152 33.2064C76.5992 32.6364 77.5492 32.3514 78.7652 32.3514C79.3732 32.3514 79.9559 32.4148 80.5132 32.5414V31.8194C80.5132 31.0341 80.3422 30.4641 80.0002 30.1094C79.6582 29.7548 79.0629 29.5774 78.2142 29.5774C77.4162 29.5774 76.6372 29.6978 75.8772 29.9384ZM80.5132 36.6834L80.5322 33.5294C79.9749 33.3901 79.4555 33.3204 78.9742 33.3204C78.0622 33.3204 77.3782 33.5104 76.9222 33.8904C76.4789 34.2704 76.2572 34.8974 76.2572 35.7714C76.2572 36.3541 76.4029 36.8354 76.6942 37.2154C76.9982 37.5954 77.4415 37.7854 78.0242 37.7854C78.8982 37.7854 79.7279 37.4181 80.5132 36.6834Z" fill="#BFD730"/>
<path d="M86.6082 29.7864C87.8369 28.9251 88.8439 28.4944 89.6292 28.4944C90.5665 28.4944 91.3012 28.8618 91.8332 29.5964C92.3779 30.3311 92.6502 31.4268 92.6502 32.8834C92.6502 36.8988 91.2569 38.9064 88.4702 38.9064C87.3302 38.9064 86.2915 38.6214 85.3542 38.0514V25.0554H86.6082V29.7864ZM91.2632 33.3774C91.2632 31.9841 91.0922 31.0214 90.7502 30.4894C90.4209 29.9574 89.9395 29.6914 89.3062 29.6914C88.6095 29.6914 87.7102 30.0778 86.6082 30.8504V37.3484C87.1655 37.6651 87.7925 37.8234 88.4892 37.8234C89.4772 37.8234 90.1865 37.4054 90.6172 36.5694C91.0479 35.7334 91.2632 34.6694 91.2632 33.3774Z" fill="#BFD730"/>
<path d="M97.8826 38.9064C96.3626 38.9064 95.4886 38.2541 95.2606 36.9494C95.2099 36.6581 95.1846 36.2464 95.1846 35.7144V28.8554L96.4386 28.6844V35.5434C96.4386 36.0248 96.4639 36.3668 96.5146 36.5694C96.6413 37.3801 97.1986 37.7854 98.1866 37.7854C99.1239 37.7854 100.118 37.2914 101.17 36.3034V28.6844H102.462V38.7164H101.17V37.4814C100.068 38.4314 98.9719 38.9064 97.8826 38.9064Z" fill="#BFD730"/>
<path d="M110.287 28.4754C111.795 28.4754 112.675 29.1341 112.928 30.4514C112.966 30.6668 112.985 31.0784 112.985 31.6864V38.7164H111.731V31.8574C111.731 31.4141 111.712 31.0721 111.674 30.8314C111.522 30.0334 110.94 29.6344 109.926 29.6344C109.002 29.6344 108.026 30.1221 107 31.0974V38.7164H105.727V28.6844H107V29.9384C108.077 28.9631 109.173 28.4754 110.287 28.4754Z" fill="#BFD730"/>
<path d="M119.345 28.4754C120.067 28.4754 120.858 28.7668 121.72 29.3494V28.6844H122.993V38.4314C122.993 38.9761 122.967 39.4511 122.917 39.8564C122.866 40.2744 122.758 40.6798 122.594 41.0724C122.442 41.4651 122.233 41.7881 121.967 42.0414C121.701 42.2948 121.346 42.4974 120.903 42.6494C120.459 42.8014 119.934 42.8774 119.326 42.8774C118.122 42.8774 117.071 42.6178 116.172 42.0984L116.4 40.9014C116.754 41.1168 117.217 41.3131 117.787 41.4904C118.369 41.6804 118.927 41.7754 119.459 41.7754C119.953 41.7754 120.358 41.6804 120.675 41.4904C121.004 41.3131 121.245 41.0471 121.397 40.6924C121.549 40.3378 121.65 39.9704 121.701 39.5904C121.764 39.2231 121.796 38.7798 121.796 38.2604V37.6714C120.947 38.4948 120.048 38.9064 119.098 38.9064C118.046 38.9064 117.21 38.4821 116.59 37.6334C115.969 36.7848 115.659 35.5244 115.659 33.8524C115.659 33.1811 115.722 32.5478 115.849 31.9524C115.988 31.3444 116.191 30.7744 116.457 30.2424C116.735 29.6978 117.122 29.2671 117.616 28.9504C118.11 28.6338 118.686 28.4754 119.345 28.4754ZM116.989 33.9284C116.989 35.1571 117.204 36.1071 117.635 36.7784C118.065 37.4498 118.629 37.7854 119.326 37.7854C120.2 37.7854 121.004 37.3548 121.739 36.4934V30.6034C120.89 29.9448 120.13 29.6154 119.459 29.6154C117.812 29.6154 116.989 31.0531 116.989 33.9284Z" fill="#BFD730"/>
<path d="M126.457 29.9384L126.324 28.8174C127.148 28.5894 128.104 28.4754 129.193 28.4754C131.296 28.4754 132.347 29.5141 132.347 31.5914V36.9684C132.347 37.2724 132.398 37.4878 132.499 37.6144C132.613 37.7411 132.797 37.8044 133.05 37.8044C133.253 37.8044 133.525 37.7411 133.867 37.6144L133.981 38.6594C133.462 38.8241 133.044 38.9064 132.727 38.9064C132.284 38.9064 131.929 38.7924 131.663 38.5644C131.397 38.3238 131.245 38.0324 131.207 37.6904C130.295 38.5011 129.333 38.9064 128.319 38.9064C127.395 38.9064 126.692 38.6151 126.21 38.0324C125.729 37.4498 125.488 36.7088 125.488 35.8094C125.488 34.6314 125.824 33.7638 126.495 33.2064C127.179 32.6364 128.129 32.3514 129.345 32.3514C129.953 32.3514 130.536 32.4148 131.093 32.5414V31.8194C131.093 31.0341 130.922 30.4641 130.58 30.1094C130.238 29.7548 129.643 29.5774 128.794 29.5774C127.996 29.5774 127.217 29.6978 126.457 29.9384ZM131.093 36.6834L131.112 33.5294C130.555 33.3901 130.036 33.3204 129.554 33.3204C128.642 33.3204 127.958 33.5104 127.502 33.8904C127.059 34.2704 126.837 34.8974 126.837 35.7714C126.837 36.3541 126.983 36.8354 127.274 37.2154C127.578 37.5954 128.022 37.7854 128.604 37.7854C129.478 37.7854 130.308 37.4181 131.093 36.6834Z" fill="#BFD730"/>
<path d="M140.494 28.4754C142.002 28.4754 142.882 29.1341 143.135 30.4514C143.173 30.6668 143.192 31.0784 143.192 31.6864V38.7164H141.938V31.8574C141.938 31.4141 141.919 31.0721 141.881 30.8314C141.729 30.0334 141.147 29.6344 140.133 29.6344C139.209 29.6344 138.233 30.1221 137.207 31.0974V38.7164H135.934V28.6844H137.207V29.9384C138.284 28.9631 139.38 28.4754 140.494 28.4754Z" fill="#BFD730"/>
<path d="M148.733 38.7164V25.0554H156.067V26.2334H150.044V31.0214H155.288V32.1994H150.044V37.5194H156.314V38.7164H148.733Z" fill="#BFD730"/>
<path d="M163.177 28.4754C164.355 28.4754 165.128 28.9188 165.495 29.8054C166.521 28.9188 167.566 28.4754 168.63 28.4754C170.15 28.4754 171.024 29.1341 171.252 30.4514C171.303 30.7428 171.328 31.1544 171.328 31.6864V38.7164H170.074V31.8574C170.074 31.3888 170.049 31.0468 169.998 30.8314C169.846 30.0334 169.295 29.6344 168.345 29.6344C167.471 29.6344 166.591 30.0524 165.704 30.8884C165.729 31.0911 165.742 31.4268 165.742 31.8954V38.7164H164.488V31.8574C164.488 31.3888 164.463 31.0468 164.412 30.8314C164.285 30.0334 163.785 29.6344 162.911 29.6344C161.86 29.6344 160.853 30.1284 159.89 31.1164V38.7164H158.617V28.6844H159.89V29.9194C160.992 28.9568 162.088 28.4754 163.177 28.4754Z" fill="#BFD730"/>
<path d="M174.782 29.9384L174.649 28.8174C175.473 28.5894 176.429 28.4754 177.518 28.4754C179.621 28.4754 180.672 29.5141 180.672 31.5914V36.9684C180.672 37.2724 180.723 37.4878 180.824 37.6144C180.938 37.7411 181.122 37.8044 181.375 37.8044C181.578 37.8044 181.85 37.7411 182.192 37.6144L182.306 38.6594C181.787 38.8241 181.369 38.9064 181.052 38.9064C180.609 38.9064 180.254 38.7924 179.988 38.5644C179.722 38.3238 179.57 38.0324 179.532 37.6904C178.62 38.5011 177.658 38.9064 176.644 38.9064C175.72 38.9064 175.017 38.6151 174.535 38.0324C174.054 37.4498 173.813 36.7088 173.813 35.8094C173.813 34.6314 174.149 33.7638 174.82 33.2064C175.504 32.6364 176.454 32.3514 177.67 32.3514C178.278 32.3514 178.861 32.4148 179.418 32.5414V31.8194C179.418 31.0341 179.247 30.4641 178.905 30.1094C178.563 29.7548 177.968 29.5774 177.119 29.5774C176.321 29.5774 175.542 29.6978 174.782 29.9384ZM179.418 36.6834L179.437 33.5294C178.88 33.3901 178.361 33.3204 177.879 33.3204C176.967 33.3204 176.283 33.5104 175.827 33.8904C175.384 34.2704 175.162 34.8974 175.162 35.7714C175.162 36.3541 175.308 36.8354 175.599 37.2154C175.903 37.5954 176.347 37.7854 176.929 37.7854C177.803 37.7854 178.633 37.4181 179.418 36.6834Z" fill="#BFD730"/>
<path d="M183.385 37.8804L183.727 36.7024C184.006 36.9558 184.411 37.2091 184.943 37.4624C185.475 37.7158 185.982 37.8424 186.463 37.8424C187.084 37.8424 187.584 37.7031 187.964 37.4244C188.344 37.1458 188.534 36.7404 188.534 36.2084C188.534 35.7144 188.363 35.3218 188.021 35.0304C187.679 34.7391 187.261 34.5174 186.767 34.3654C186.273 34.2134 185.779 34.0488 185.285 33.8714C184.804 33.6941 184.392 33.3901 184.05 32.9594C183.708 32.5288 183.537 31.9651 183.537 31.2684C183.537 30.4071 183.848 29.7294 184.468 29.2354C185.089 28.7288 185.849 28.4754 186.748 28.4754C187.673 28.4754 188.395 28.7098 188.914 29.1784C189.446 29.6344 189.769 30.1728 189.883 30.7934L188.857 31.2114C188.705 30.6794 188.439 30.2804 188.059 30.0144C187.679 29.7358 187.236 29.5964 186.729 29.5964C186.197 29.5964 185.748 29.7294 185.38 29.9954C185.013 30.2614 184.829 30.6668 184.829 31.2114C184.829 31.7054 185 32.1044 185.342 32.4084C185.684 32.6998 186.096 32.9214 186.577 33.0734C187.071 33.2254 187.565 33.3901 188.059 33.5674C188.553 33.7321 188.971 34.0171 189.313 34.4224C189.655 34.8278 189.826 35.3534 189.826 35.9994C189.826 36.8608 189.529 37.5701 188.933 38.1274C188.351 38.6721 187.521 38.9444 186.444 38.9444C185.836 38.9444 185.235 38.8304 184.639 38.6024C184.057 38.3618 183.639 38.1211 183.385 37.8804Z" fill="#BFD730"/>
</svg>
