<svg width="48" height="48" viewBox="0 0 48 48" fill="none" xmlns="http://www.w3.org/2000/svg">
<path fill-rule="evenodd" clip-rule="evenodd" d="M8.98975 5H34.1479C34.5739 5 34.9869 5.17039 35.2903 5.47309C35.5936 5.77514 35.7615 6.18562 35.7615 6.61353V38.4607C35.7615 38.7195 35.4517 38.8563 35.2645 38.6821L34.0383 37.5784C33.9285 37.4758 33.7541 37.4758 33.6379 37.5784L31.9598 39.0951C31.8501 39.1978 31.6759 39.1978 31.5597 39.0951L29.8817 37.5784C29.7655 37.4758 29.5977 37.4758 29.4816 37.5784L27.8035 39.0951C27.6873 39.1978 27.5196 39.1978 27.4034 39.0951L25.7253 37.5784C25.6091 37.4758 25.4349 37.4758 25.3252 37.5784L23.6471 39.0951C23.531 39.1978 23.3565 39.1978 23.2468 39.0951L21.5687 37.5784C21.4525 37.4758 21.2783 37.4758 21.1686 37.5784L19.4905 39.0951C19.3744 39.1978 19.2002 39.1978 19.0904 39.0951L17.4058 37.5784C17.2961 37.4758 17.1219 37.4758 17.0057 37.5784L15.3276 39.0951C15.2179 39.1978 15.0437 39.1978 14.9275 39.0951L13.2495 37.5784C13.1397 37.4758 12.9655 37.4758 12.8494 37.5784L11.468 38.8247C11.2809 38.999 10.9711 38.8622 10.9711 38.6034V7.67653H8.98975V5Z" fill="#FFC54F"/>
<path fill-rule="evenodd" clip-rule="evenodd" d="M22.9402 20.9544C22.408 21.016 15.9667 21.016 15.4349 20.9544C15.1548 20.9222 14.9601 20.694 15.007 20.449C15.0694 20.1258 15.1937 19.5764 15.4445 18.6753C15.7393 17.6151 15.947 17.1118 16.0676 16.8773C16.1338 16.7488 16.2632 16.6562 16.4206 16.6286C16.7564 16.5691 21.6183 16.5691 21.9541 16.6286C22.1115 16.6562 22.2409 16.7488 22.3071 16.8773C22.4277 17.1118 22.6353 17.6151 22.9301 18.6753C23.1809 19.5764 23.3057 20.1258 23.3677 20.449C23.4146 20.694 23.2199 20.9222 22.9402 20.9544Z" fill="#CC9D3F"/>
<path fill-rule="evenodd" clip-rule="evenodd" d="M22.9402 20.9544C22.408 21.016 15.9667 21.016 15.4349 20.9544C15.1548 20.9222 14.9601 20.694 15.007 20.449C15.0694 20.1258 15.1937 19.5764 15.4445 18.6753C15.7393 17.6151 15.947 17.1118 16.0676 16.8773C16.1338 16.7488 16.2632 16.6562 16.4206 16.6286C16.7564 16.5691 21.6183 16.5691 21.9541 16.6286C22.1115 16.6562 22.2409 16.7488 22.3071 16.8773C22.4277 17.1118 22.6353 17.6151 22.9301 18.6753C23.1809 19.5764 23.3057 20.1258 23.3677 20.449C23.4146 20.694 23.2199 20.9222 22.9402 20.9544Z" fill="white"/>
<path fill-rule="evenodd" clip-rule="evenodd" d="M32.2454 20.9544C31.7132 21.016 25.2719 21.016 24.7401 20.9544C24.46 20.9222 24.2653 20.694 24.3122 20.449C24.3745 20.1258 24.4989 19.5764 24.7497 18.6753C25.0445 17.6151 25.2522 17.1118 25.3728 16.8773C25.4389 16.7488 25.5683 16.6562 25.7258 16.6286C26.0616 16.5691 30.9234 16.5691 31.2593 16.6286C31.4167 16.6562 31.5461 16.7488 31.6122 16.8773C31.7328 17.1118 31.9405 17.6151 32.2353 18.6753C32.4861 19.5764 32.6109 20.1258 32.6729 20.449C32.7198 20.694 32.5251 20.9222 32.2454 20.9544Z" fill="#CC9D3F"/>
<path fill-rule="evenodd" clip-rule="evenodd" d="M32.2454 20.9544C31.7132 21.016 25.2719 21.016 24.7401 20.9544C24.46 20.9222 24.2653 20.694 24.3122 20.449C24.3745 20.1258 24.4989 19.5764 24.7497 18.6753C25.0445 17.6151 25.2522 17.1118 25.3728 16.8773C25.4389 16.7488 25.5683 16.6562 25.7258 16.6286C26.0616 16.5691 30.9234 16.5691 31.2593 16.6286C31.4167 16.6562 31.5461 16.7488 31.6122 16.8773C31.7328 17.1118 31.9405 17.6151 32.2353 18.6753C32.4861 19.5764 32.6109 20.1258 32.6729 20.449C32.7198 20.694 32.5251 20.9222 32.2454 20.9544Z" fill="white"/>
<path fill-rule="evenodd" clip-rule="evenodd" d="M27.5928 15.3705C27.0606 15.432 20.6193 15.432 20.0875 15.3705C19.8074 15.3382 19.6127 15.11 19.6596 14.8651C19.722 14.5418 19.8463 13.9924 20.0971 13.0913C20.3919 12.0311 20.5996 11.5278 20.7202 11.2933C20.7864 11.1648 20.9157 11.0722 21.0732 11.0446C21.409 10.9851 26.2708 10.9851 26.6067 11.0446C26.7641 11.0722 26.8935 11.1648 26.9597 11.2933C27.0802 11.5278 27.2879 12.0311 27.5827 13.0913C27.8335 13.9924 27.9583 14.5418 28.0203 14.8651C28.0672 15.11 27.8725 15.3382 27.5928 15.3705Z" fill="#CC9D3F"/>
<path fill-rule="evenodd" clip-rule="evenodd" d="M27.5928 15.3705C27.0606 15.432 20.6193 15.432 20.0875 15.3705C19.8074 15.3382 19.6127 15.11 19.6596 14.8651C19.722 14.5418 19.8463 13.9924 20.0971 13.0913C20.3919 12.0311 20.5996 11.5278 20.7202 11.2933C20.7864 11.1648 20.9157 11.0722 21.0732 11.0446C21.409 10.9851 26.2708 10.9851 26.6067 11.0446C26.7641 11.0722 26.8935 11.1648 26.9597 11.2933C27.0802 11.5278 27.2879 12.0311 27.5827 13.0913C27.8335 13.9924 27.9583 14.5418 28.0203 14.8651C28.0672 15.11 27.8725 15.3382 27.5928 15.3705Z" fill="white"/>
<path fill-rule="evenodd" clip-rule="evenodd" d="M10.9707 6.98275C10.9707 6.45738 10.7566 5.95263 10.3921 5.58087C10.0196 5.20911 9.51243 5 8.98936 5C8.45837 5 7.95914 5.20911 7.58666 5.58087C7.21417 5.95263 7 6.45738 7 6.98275C7 8.50721 7 11.3531 7 11.3531H10.9707C10.9707 11.3531 10.9707 8.50721 10.9707 6.98275Z" fill="#CC9D3F"/>
<path d="M31.1786 26.9579H15.6967C15.2783 26.9579 14.9395 26.6187 14.9395 26.2006C14.9395 25.7822 15.2783 25.4434 15.6967 25.4434H31.1786C31.5966 25.4434 31.9358 25.7822 31.9358 26.2006C31.9358 26.6187 31.5966 26.9579 31.1786 26.9579Z" fill="#CC9D3F"/>
<path d="M24.7327 31.4061H15.7016C15.2832 31.4061 14.9443 31.0669 14.9443 30.6489C14.9443 30.2305 15.2832 29.8916 15.7016 29.8916H24.7327C25.1508 29.8916 25.49 30.2305 25.49 30.6489C25.49 31.0669 25.1508 31.4061 24.7327 31.4061Z" fill="#CC9D3F"/>
<path d="M45.5 36.5C45.5 41.471 41.471 45.5 36.5 45.5C31.529 45.5 27.5 41.471 27.5 36.5C27.5 31.529 31.529 27.5 36.5 27.5C41.471 27.5 45.5 31.529 45.5 36.5Z" fill="#E07E26" stroke="white"/>
<path fill-rule="evenodd" clip-rule="evenodd" d="M33.2637 36.7608V39.1517H32V33H34.6586C35.3369 33 35.8498 33.1585 36.1971 33.4756C36.5445 33.7926 36.7182 34.2507 36.7182 34.8499C36.7182 35.3152 36.5965 35.705 36.353 36.0191C36.1096 36.3332 35.7663 36.5398 35.3232 36.6386C35.6241 36.7201 35.8785 36.9499 36.0863 37.328L37.0218 39.1517H35.6268L34.6258 37.1884C34.5437 37.0371 34.4452 36.9281 34.3304 36.8612C34.2155 36.7943 34.0705 36.7608 33.8955 36.7608H33.2637ZM33.2473 35.7311H34.4699C34.8364 35.7311 35.1017 35.6627 35.2658 35.526C35.4299 35.3893 35.512 35.1755 35.512 34.8847C35.512 34.588 35.4299 34.3728 35.2658 34.239C35.1017 34.1052 34.8364 34.0383 34.4699 34.0383H33.2473V35.7311ZM38.8926 40.722V38.5405C39.013 38.7557 39.1839 38.923 39.4055 39.0422C39.627 39.1615 39.8745 39.2211 40.1481 39.2211C40.4982 39.2211 40.8072 39.131 41.0753 38.9506C41.3433 38.7703 41.5526 38.5129 41.703 38.1784C41.8534 37.8439 41.9286 37.4556 41.9286 37.0135C41.9286 36.5714 41.8534 36.1802 41.703 35.8399C41.5526 35.4996 41.342 35.2349 41.0712 35.0458C40.8004 34.8568 40.4927 34.7623 40.1481 34.7623C39.8691 34.7623 39.6174 34.8248 39.3931 34.9499C39.1689 35.0749 38.9965 35.248 38.8762 35.469V34.867H37.6536V40.722H38.8926ZM39.1141 37.9002C39.2728 38.1125 39.4971 38.2187 39.787 38.2187C40.0769 38.2187 40.3012 38.1154 40.4598 37.9089C40.6185 37.7024 40.6978 37.4043 40.6978 37.0145C40.6978 36.619 40.6185 36.3121 40.4598 36.094C40.3012 35.8758 40.0769 35.7668 39.787 35.7668C39.4971 35.7668 39.2728 35.8729 39.1141 36.0852C38.9555 36.2976 38.8762 36.6015 38.8762 36.9971C38.8762 37.3868 38.9555 37.6879 39.1141 37.9002Z" fill="white"/>
</svg>
