<svg width="48" height="48" viewBox="0 0 48 48" fill="none" xmlns="http://www.w3.org/2000/svg">
<rect x="8" y="13" width="32" height="23" rx="3" fill="#1868AB"/>
<mask id="mask0_0_11107" style="mask-type:alpha" maskUnits="userSpaceOnUse" x="8" y="13" width="32" height="23">
<rect x="8" y="13" width="32" height="23" rx="3" fill="white"/>
</mask>
<g mask="url(#mask0_0_11107)">
<rect x="5" y="12" width="32" height="23" rx="3" fill="#5297D1"/>
</g>
<path fill-rule="evenodd" clip-rule="evenodd" d="M25 24.5C25 22.0147 27.0147 20 29.5 20H39.5C40.6046 20 41.5 20.8954 41.5 22V27C41.5 28.1046 40.6046 29 39.5 29H29.5C27.0147 29 25 26.9853 25 24.5Z" fill="#CC9D3F"/>
<mask id="mask1_0_11107" style="mask-type:alpha" maskUnits="userSpaceOnUse" x="25" y="20" width="17" height="9">
<path fill-rule="evenodd" clip-rule="evenodd" d="M25 24.5C25 22.0147 27.0147 20 29.5 20H39.5C40.6046 20 41.5 20.8954 41.5 22V27C41.5 28.1046 40.6046 29 39.5 29H29.5C27.0147 29 25 26.9853 25 24.5Z" fill="white"/>
</mask>
<g mask="url(#mask1_0_11107)">
<path fill-rule="evenodd" clip-rule="evenodd" d="M25 24.5C25 22.0147 27.0147 20 29.5 20H36.5C37.6046 20 38.5 20.8954 38.5 22V27C38.5 28.1046 37.6046 29 36.5 29H29.5C27.0147 29 25 26.9853 25 24.5Z" fill="#FFC54F"/>
<circle cx="29.5" cy="24.5" r="3" fill="white"/>
</g>
</svg>
