<svg width="64" height="64" viewBox="0 0 64 64" fill="none" xmlns="http://www.w3.org/2000/svg">
<circle opacity="0.05" cx="32" cy="32" r="32" fill="url(#paint0_linear_0_11565)"/>
<path fill-rule="evenodd" clip-rule="evenodd" d="M20.4999 21L13.9999 39V40.5H26.9999V39L20.4999 21Z" stroke="#00662E" stroke-width="1.5" stroke-linecap="round" stroke-linejoin="round"/>
<path d="M27.9999 40.9636V39H12.9999V40.9636C12.9999 40.9636 12.9999 47 20.4999 47C27.9999 47 27.9999 40.9636 27.9999 40.9636Z" fill="#00883E"/>
<path d="M24.9999 40.9634V38.9998H12.9999C12.9999 38.9998 12.9998 38.4269 12.9999 40.9634C13 43.5 14.9999 47 19.4999 46.9998C24.7542 47.0001 24.9999 42 24.9999 40.9634Z" fill="#00AB4E"/>
<path fill-rule="evenodd" clip-rule="evenodd" d="M43.4999 21L36.9999 39V40.5H49.9999V39L43.4999 21Z" stroke="#00662E" stroke-width="1.5" stroke-linecap="round" stroke-linejoin="round"/>
<path d="M50.9999 40.9636V39H35.9999V40.9636C35.9999 40.9636 35.9999 47 43.4999 47C50.9999 47 50.9999 40.9636 50.9999 40.9636Z" fill="#00883E"/>
<path d="M47.9999 40.9634V38.9998H35.9999C35.9999 38.9998 35.9998 38.4269 35.9999 40.9634C36 43.5 37.9999 47 42.4999 46.9998C47.7542 47.0001 47.9999 42 47.9999 40.9634Z" fill="#00AB4E"/>
<path d="M15.9999 22.6331C15.9999 22.2465 16.2181 21.8971 16.571 21.7394C18.717 20.7799 26.4584 17.5 31.9999 17.5C37.5413 17.5 45.2828 20.7799 47.4288 21.7394C47.7817 21.8971 47.9999 22.2465 47.9999 22.6331V24.4C47.9999 24.9523 47.5522 25.4 46.9999 25.4H45.3027C45.1052 25.4 44.9135 25.3408 44.7458 25.2365C41.6728 23.3241 35.9122 22 31.9999 22C27.0579 22 20.2799 24.355 17.393 25.451C16.7253 25.7045 15.9999 25.2118 15.9999 24.4975V22.6331Z" fill="#00883E"/>
<path d="M15.9999 22.6331C15.9999 22.2465 16.2181 21.8971 16.571 21.7394C18.717 20.7799 26.4584 17.5 31.9999 17.5C37.5049 17.5 43.7425 20.7369 45.5102 21.7201C45.8173 21.891 45.9999 22.2151 45.9999 22.5665V24.3395C45.9999 25.093 45.1938 25.5916 44.5085 25.2785C41.9868 24.1265 36.696 22 31.9999 22C27.0579 22 20.2799 24.355 17.393 25.451C16.7253 25.7045 15.9999 25.2118 15.9999 24.4975V22.6331Z" fill="#00AB4E"/>
<path fill-rule="evenodd" clip-rule="evenodd" d="M33.9999 19.4995C33.9999 20.881 32.8802 22 31.4999 22C30.1196 22 28.9999 20.881 28.9999 19.4995C28.9999 18.119 30.1196 17 31.4999 17C32.8802 17 33.9999 18.119 33.9999 19.4995Z" fill="#9BB20E"/>
<path fill-rule="evenodd" clip-rule="evenodd" d="M32.9999 19.4995C32.9999 20.881 31.8802 22 30.4999 22C29.1196 22 27.9999 20.881 27.9999 19.4995C27.9999 18.119 29.1196 17 30.4999 17C31.8802 17 32.9999 18.119 32.9999 19.4995Z" fill="#BFD730"/>
<defs>
<linearGradient id="paint0_linear_0_11565" x1="0" y1="0" x2="0" y2="64" gradientUnits="userSpaceOnUse">
<stop stop-color="#00AB4E"/>
<stop offset="1" stop-color="#00AB4E"/>
</linearGradient>
</defs>
</svg>
