<svg width="64" height="64" viewBox="0 0 64 64" fill="none" xmlns="http://www.w3.org/2000/svg">
<path d="M32 63.92C49.6511 63.92 63.96 49.611 63.96 31.96C63.96 14.309 49.6511 0 32 0C14.349 0 0.0400391 14.309 0.0400391 31.96C0.0400391 49.611 14.349 63.92 32 63.92Z" fill="#E8F1F9"/>
<path fill-rule="evenodd" clip-rule="evenodd" d="M23.12 17.54C23.12 15.43 24.83 13.72 26.94 13.72H39.34C41.45 13.72 43.16 15.43 43.16 17.54V44.25C43.16 46.36 41.45 48.07 39.34 48.07H26.94C24.83 48.07 23.12 46.36 23.12 44.25V17.54Z" fill="#1868AB"/>
<path fill-rule="evenodd" clip-rule="evenodd" d="M20.25 17.54C20.25 15.43 21.96 13.72 24.07 13.72H36.47C38.58 13.72 40.29 15.43 40.29 17.54V44.25C40.29 46.36 38.58 48.07 36.47 48.07H24.07C21.96 48.07 20.25 46.36 20.25 44.25V17.54Z" fill="#5297D1"/>
<path d="M39.33 48.49H24.07C21.73 48.49 19.83 46.59 19.83 44.24V17.53C19.83 15.19 21.73 13.28 24.07 13.28H39.33C41.67 13.28 43.57 15.18 43.57 17.53V44.24C43.57 46.58 41.67 48.49 39.33 48.49ZM24.07 14.15C22.2 14.15 20.68 15.67 20.68 17.54V44.25C20.68 46.12 22.2 47.64 24.07 47.64H39.33C41.2 47.64 42.72 46.12 42.72 44.25V17.54C42.72 15.67 41.2 14.15 39.33 14.15H24.07Z" fill="#252528"/>
<path fill-rule="evenodd" clip-rule="evenodd" d="M22.1599 18.85C22.1599 17.07 23.5999 15.63 25.3799 15.63H25.4999C26.0299 15.63 26.4399 16.07 26.4499 16.6C26.4599 17.13 26.8799 17.54 27.3999 17.54H33.1199C33.6499 17.54 34.0599 17.1 34.0699 16.57C34.0799 16.04 34.4999 15.63 35.0199 15.63H35.1399C36.9199 15.63 38.3599 17.07 38.3599 18.85V43.2C38.3599 44.75 37.0999 46.01 35.5499 46.01H24.9399C23.3999 46.01 22.1499 44.76 22.1499 43.22V18.85H22.1599Z" fill="white"/>
<path d="M35.57 46.4399H24.96C23.18 46.4399 21.74 44.9899 21.74 43.2199V18.8499C21.74 16.8399 23.38 15.2 25.39 15.2H25.51C26.27 15.2 26.88 15.81 26.89 16.59C26.89 16.87 27.13 17.0999 27.41 17.0999H33.13C33.42 17.0999 33.65 16.8599 33.66 16.5499C33.67 15.7999 34.29 15.1899 35.04 15.1899H35.16C37.17 15.1899 38.81 16.83 38.81 18.84V43.1899C38.81 44.9799 37.36 46.4299 35.57 46.4299V46.4399ZM25.38 16.0499C23.84 16.0499 22.59 17.3 22.59 18.84V43.21C22.59 44.51 23.65 45.58 24.96 45.58H35.57C36.88 45.58 37.95 44.51 37.95 43.2V18.8499C37.95 17.3099 36.7 16.0599 35.16 16.0599H35.04C34.76 16.0599 34.52 16.2899 34.52 16.5699C34.51 17.3499 33.9 17.96 33.14 17.96H27.42C26.67 17.96 26.05 17.3499 26.04 16.5999C26.04 16.2899 25.8 16.0499 25.52 16.0499H25.4H25.38Z" fill="#252528"/>
<path d="M26.69 32.91H25.39V26.5701H28.79C29.33 26.5701 29.73 26.7101 30.02 27.0001C30.32 27.3101 30.5 27.7701 30.5 28.2801C30.5 29.0501 30.14 29.57 29.43 29.85C30.24 30.2 30.27 30.29 30.31 32.16C30.31 32.44 30.39 32.5701 30.59 32.6801V32.91H29.19C29.03 32.61 29 32.4201 29 31.8201C29 31.7201 29 31.5701 29 31.4001V31.1401C29 30.6201 28.76 30.3901 28.19 30.3901H26.69V32.9001V32.91ZM28.26 29.3101C28.63 29.3101 28.8 29.2701 28.95 29.1401C29.11 29.0101 29.18 28.7701 29.18 28.4601C29.18 28.1501 29.1 27.9501 28.95 27.8201C28.78 27.6901 28.64 27.6501 28.26 27.6501H26.69V29.3H28.26V29.3101Z" fill="#1868AB"/>
<path d="M32.7 28.9101C33 28.3901 33.41 28.1401 34 28.1401C34.59 28.1401 35.15 28.4401 35.46 28.8801C35.77 29.3201 35.96 29.9801 35.96 30.6401C35.96 32.0701 35.12 33.1301 33.99 33.1301C33.4 33.1301 32.98 32.8901 32.69 32.3601V34.8101H31.47V28.2201H32.69V28.9201L32.7 28.9101ZM32.7 30.6301C32.7 31.5101 33.11 32.1001 33.73 32.1001C34.35 32.1001 34.76 31.5101 34.76 30.6501C34.76 29.7501 34.35 29.1501 33.73 29.1501C33.11 29.1501 32.7 29.7401 32.7 30.6301Z" fill="#1868AB"/>
<path d="M36.8299 50.1201C35.3099 49.2301 34.1599 47.7601 33.6799 46.0301C33.5199 45.4501 33.4299 44.8301 33.4299 44.1901C33.4299 40.3901 36.5099 37.3101 40.3099 37.3101C44.1099 37.3101 47.1899 40.3901 47.1899 44.1901C47.1899 47.9901 44.1099 51.0701 40.3099 51.0701C39.0399 51.0701 37.8499 50.7301 36.8299 50.1201Z" fill="#00AB4E"/>
<path d="M40.32 51.51C39.01 51.51 37.73 51.16 36.61 50.5C34.96 49.53 33.77 47.98 33.26 46.14C33.08 45.51 32.99 44.85 32.99 44.18C32.99 40.14 36.28 36.86 40.31 36.86C44.34 36.86 47.63 40.15 47.63 44.18C47.63 48.21 44.34 51.5 40.31 51.5L40.32 51.51ZM40.32 37.75C36.77 37.75 33.88 40.64 33.88 44.19C33.88 44.78 33.96 45.36 34.11 45.91C34.56 47.53 35.6 48.89 37.06 49.74C38.04 50.32 39.17 50.63 40.32 50.63C43.87 50.63 46.76 47.74 46.76 44.19C46.76 40.64 43.87 37.75 40.32 37.75Z" fill="white"/>
<path d="M40.3199 47.8301C39.8299 47.8301 39.4299 47.4301 39.4299 46.9401V41.4401C39.4299 40.9501 39.8299 40.55 40.3199 40.55C40.8099 40.55 41.2099 40.9501 41.2099 41.4401V46.9401C41.2099 47.4301 40.8099 47.8301 40.3199 47.8301Z" fill="white"/>
<path d="M43.0699 45.0801H37.5699C37.0799 45.0801 36.6799 44.6801 36.6799 44.1901C36.6799 43.7001 37.0799 43.3 37.5699 43.3H43.0699C43.5599 43.3 43.9599 43.7001 43.9599 44.1901C43.9599 44.6801 43.5599 45.0801 43.0699 45.0801Z" fill="white"/>
<path d="M40.3199 52.3401C35.8299 52.3401 32.1699 48.6801 32.1699 44.1901C32.1699 39.7001 35.8299 36.04 40.3199 36.04C44.8099 36.04 48.4699 39.7001 48.4699 44.1901C48.4699 48.6801 44.8099 52.3401 40.3199 52.3401ZM40.3199 36.9001C36.2999 36.9001 33.0299 40.1701 33.0299 44.1901C33.0299 48.2101 36.2999 51.48 40.3199 51.48C44.3399 51.48 47.6099 48.2101 47.6099 44.1901C47.6099 40.1701 44.3399 36.9001 40.3199 36.9001Z" fill="#252528"/>
</svg>
