<svg width="21" height="21" viewBox="0 0 21 21" fill="none" xmlns="http://www.w3.org/2000/svg">
<path fill-rule="evenodd" clip-rule="evenodd" d="M10.9916 2.80931C10.747 2.62777 10.3997 2.64794 10.1778 2.86983L6.01118 7.03649L5.95067 7.10659C5.76912 7.35127 5.78929 7.69849 6.01118 7.92038L6.08128 7.98089C6.32596 8.16244 6.67318 8.14226 6.89507 7.92038L9.99479 4.82089V12.0618L10.0005 12.1466C10.0419 12.4516 10.3034 12.6868 10.6198 12.6868C10.965 12.6868 11.2448 12.4069 11.2448 12.0618V4.82089L14.3445 7.92038L14.4146 7.98089C14.6593 8.16244 15.0065 8.14226 15.2284 7.92038C15.4725 7.6763 15.4725 7.28057 15.2284 7.03649L11.0617 2.86983L10.9916 2.80931ZM17.6853 12.2701C18.0107 12.2701 18.2797 12.5052 18.3223 12.8103L18.3281 12.8951V17.0618C18.3281 17.3782 18.0863 17.6397 17.7725 17.6811L17.6853 17.6868H3.97098C3.64553 17.6868 3.37656 17.4516 3.33399 17.1466L3.32812 17.0618V12.8951C3.32812 12.5499 3.61594 12.2701 3.97098 12.2701C4.29644 12.2701 4.5654 12.5052 4.60797 12.8103L4.61384 12.8951V16.4368H17.0424V12.8951C17.0424 12.5787 17.2843 12.3172 17.598 12.2758L17.6853 12.2701Z" fill="#00AB4E"/>
</svg>
