<svg width="60" height="36" viewBox="0 0 60 36" fill="none" xmlns="http://www.w3.org/2000/svg">
<path fill-rule="evenodd" clip-rule="evenodd" d="M50.225 6.84955C50.2272 7.14134 50.2489 7.43005 50.3236 7.70012C50.3794 7.90162 50.4656 8.09342 50.5964 8.27003C50.7273 8.09342 50.8131 7.90162 50.8689 7.70012C50.9436 7.43005 50.9654 7.14134 50.9675 6.84955L51.1445 6.85013L51.3215 6.84955C51.3241 7.27456 51.3512 7.69548 51.4445 8.09117C51.5183 8.40426 51.6343 8.70179 51.8136 8.97374C51.9928 8.70179 52.1085 8.40426 52.1822 8.09117C52.2755 7.69555 52.3026 7.27461 52.3053 6.84955L52.4822 6.85013L52.6592 6.84955C52.6614 7.14134 52.6831 7.43005 52.7579 7.70012C52.8136 7.90162 52.8998 8.09342 53.0307 8.27003C53.1615 8.09342 53.2474 7.90162 53.3031 7.70012C53.3779 7.43005 53.3996 7.14134 53.4018 6.84955L53.741 6.85067C53.7388 7.16316 53.7149 7.47404 53.633 7.77002C53.5489 8.07407 53.4041 8.36108 53.1608 8.61608L53.0306 8.75266L52.9001 8.61608C52.7377 8.44581 52.6196 8.26118 52.5337 8.06689C52.5278 8.09489 52.5214 8.12288 52.5149 8.15065C52.4145 8.57621 52.2419 8.97795 51.9518 9.33522L51.8135 9.50557L51.675 9.33522C51.3848 8.97795 51.2122 8.57621 51.1119 8.15065C51.1054 8.12296 51.0993 8.09504 51.0934 8.06716C51.0075 8.26133 50.8889 8.44594 50.7266 8.61608L50.5963 8.75266L50.4659 8.61608C50.2226 8.36097 50.0779 8.07407 49.9937 7.77002C49.9118 7.47404 49.888 7.16316 49.8857 6.85067L50.225 6.84955Z" fill="#F9A11B"/>
<path fill-rule="evenodd" clip-rule="evenodd" d="M38.3253 10.0635V9.78233C38.1654 9.99359 37.9309 10.1326 37.6778 10.1326C37.4463 10.1326 37.211 10.0675 37.0599 9.92349C36.9101 9.78088 36.8442 9.5607 36.8442 9.33887C36.8442 8.8922 37.2175 8.55648 37.6778 8.5374C37.8906 8.52862 38.1436 8.57503 38.3253 8.68906V8.66968C38.3333 8.25717 38.0865 8.11376 37.8755 8.05414C37.6506 7.99068 37.3693 8.01526 37.0252 8.26381C37.0531 7.78095 37.5552 7.59199 38.0883 7.63959C38.3764 7.66528 38.6416 7.81112 38.7694 8.03585C38.8461 8.17066 38.8867 8.34896 38.8738 8.591C38.8738 9.07989 38.8738 9.56866 38.8738 10.0574C38.6909 10.0595 38.508 10.0615 38.3253 10.0635ZM38.3144 9.07421C38.3144 9.22759 38.3144 9.38101 38.3144 9.53441C38.0224 9.81042 37.7114 9.76103 37.5432 9.58036C37.3734 9.39816 37.4594 9.05545 37.6847 8.95913C37.8829 8.87442 38.2661 8.91346 38.3144 9.07421ZM44.7737 10.0635V9.78233C44.6136 9.99359 44.3787 10.1326 44.1252 10.1326C43.8933 10.1326 43.6578 10.0675 43.5064 9.92349C43.3563 9.78088 43.2903 9.5607 43.2903 9.33887C43.2903 8.8922 43.6642 8.55648 44.1252 8.5374C44.3384 8.52862 44.5918 8.57503 44.7737 8.68906V8.66968C44.7817 8.25717 44.5346 8.11376 44.3232 8.05414C44.098 7.99068 43.8162 8.01526 43.4717 8.26381C43.4995 7.78095 44.0025 7.59199 44.5363 7.63959C44.8249 7.66528 45.0905 7.81112 45.2186 8.03585C45.2954 8.17066 45.336 8.34896 45.323 8.591C45.323 9.07989 45.323 9.56866 45.323 10.0574C45.1399 10.0595 44.9568 10.0615 44.7737 10.0635ZM44.7629 9.07421C44.7629 9.22759 44.7629 9.38101 44.7629 9.53441C44.4704 9.81042 44.1588 9.76103 43.9904 9.58036C43.8204 9.39816 43.9065 9.05545 44.1321 8.95913C44.3307 8.87442 44.7144 8.91346 44.7629 9.07421ZM39.1899 10.0192C39.1899 9.25016 39.1899 8.48115 39.1899 7.71202C39.3973 7.71202 39.6048 7.71202 39.8122 7.71202C39.8073 7.83992 39.8024 7.96779 39.7975 8.09565C39.9814 7.84352 40.2109 7.70731 40.5585 7.71218C40.9988 7.71833 41.2325 7.93109 41.2555 8.25604C41.2555 8.84669 41.2555 9.43735 41.2555 10.028C41.0615 10.028 40.8677 10.028 40.6738 10.028C40.6738 9.52508 40.6738 9.02218 40.6738 8.51919C40.6811 8.23162 40.5262 8.06652 40.2477 8.08501C40.0027 8.10127 39.8281 8.26575 39.8015 8.45338C39.8015 8.97822 39.8015 9.50312 39.8015 10.028C39.5976 10.0251 39.3938 10.0221 39.1899 10.0192ZM45.6551 10.0192C45.6551 9.25016 45.6551 8.48115 45.6551 7.71202C45.8567 7.71202 46.0582 7.71202 46.2599 7.71202C46.2551 7.83992 46.2503 7.96779 46.2455 8.09565C46.4243 7.84352 46.6473 7.70731 46.9851 7.71218C47.3222 7.71702 47.5345 7.8503 47.6203 8.06554C47.7954 7.83278 48.0139 7.70754 48.3379 7.71218C48.7657 7.71833 48.9927 7.93109 49.0151 8.25604C49.0151 8.84669 49.0151 9.43735 49.0151 10.028C48.8266 10.028 48.6382 10.028 48.4499 10.028C48.4499 9.52508 48.4499 9.02218 48.4499 8.51919C48.4569 8.23162 48.3064 8.06652 48.0358 8.08501C47.8693 8.09635 47.736 8.18041 47.6623 8.29396V10.028C47.4738 10.028 47.2854 10.028 47.0971 10.028C47.0971 9.52508 47.0971 9.02218 47.0971 8.51919C47.1041 8.23162 46.9536 8.06652 46.6831 8.08501C46.4449 8.10127 46.2753 8.26575 46.2495 8.45338C46.2495 8.97822 46.2495 9.50312 46.2495 10.028C46.0514 10.0251 45.8532 10.0221 45.6551 10.0192ZM41.4834 7.76028H43.1938V8.21278H42.6366V10.0455H42.0406V8.21278H41.4834V7.76028Z" fill="#006C64"/>
<path fill-rule="evenodd" clip-rule="evenodd" d="M50.2268 6.58342C50.2334 6.32912 50.2583 6.07868 50.3236 5.84248C50.3794 5.641 50.4656 5.44915 50.5964 5.27253C50.7273 5.44915 50.8131 5.641 50.8689 5.84248C50.9274 6.05413 50.9534 6.27724 50.9629 6.50422C50.7805 6.52048 50.598 6.53926 50.4152 6.56056C50.3524 6.56785 50.2896 6.57553 50.2268 6.58342ZM51.3251 6.47534C51.3353 6.1248 51.3672 5.77937 51.4446 5.45142C51.5183 5.13837 51.6342 4.84075 51.8135 4.56886C51.9928 4.84075 52.1085 5.13837 52.1822 5.45142C52.2599 5.78112 52.2917 6.12842 52.3016 6.48107C52.1255 6.46793 51.9497 6.45717 51.7739 6.44901C51.6245 6.45594 51.4749 6.46478 51.3251 6.47534ZM52.6633 6.51142C52.6727 6.28198 52.6987 6.05632 52.7579 5.84248C52.8136 5.641 52.8998 5.44915 53.0307 5.27253C53.1615 5.44915 53.2474 5.641 53.3031 5.84248C53.3694 6.0818 53.3938 6.33579 53.4001 6.59349C53.3109 6.58194 53.2217 6.57091 53.1326 6.56056C52.976 6.5423 52.8196 6.52594 52.6633 6.51142ZM53.7404 6.64034C53.7359 6.34524 53.7104 6.05224 53.633 5.77258C53.5489 5.46853 53.4041 5.18153 53.1608 4.92651L53.0306 4.78991L52.9001 4.92651C52.7377 5.09681 52.6196 5.28144 52.5337 5.47571C52.5278 5.44766 52.5214 5.41971 52.5149 5.39198C52.4145 4.9664 52.2419 4.56463 51.9518 4.2074L51.8135 4.03703L51.675 4.2074C51.3848 4.56463 51.2122 4.9664 51.1119 5.39198C51.1054 5.41967 51.0993 5.44753 51.0933 5.47544C51.0075 5.2813 50.8889 5.09663 50.7266 4.92651L50.5963 4.78991L50.4659 4.92651C50.2226 5.18157 50.0779 5.46853 49.9937 5.77258C49.9173 6.04864 49.8915 6.33772 49.8866 6.62895C49.5788 6.67259 49.2705 6.72289 48.9618 6.7796C49.9036 6.74627 50.8413 6.72574 51.7739 6.7201C52.7065 6.72574 53.6441 6.74627 54.586 6.7796C54.3038 6.72776 54.0218 6.68127 53.7404 6.64034Z" fill="#006C64"/>
<path fill-rule="evenodd" clip-rule="evenodd" d="M9.66276 19.4995C9.97505 19.4728 10.2936 19.4455 10.3514 19.2817C10.4702 18.9446 10.6027 18.2815 9.90073 18.2815C9.19875 18.2815 8.45463 19.0982 8.45463 20.3153C8.45463 21.5325 11.5576 22.346 12.9852 21.8256C14.4128 21.3051 16.153 19.4796 15.0754 17.9017C13.9977 16.3238 11.619 15.4285 9.00905 16.0034C6.39908 16.5783 4.5 17.7756 4.5 19.7436C4.5 21.7115 5.16541 23.3983 7.65973 24.0419C10.154 24.6855 12.7941 24.6855 14.6061 23.9263C16.4182 23.1672 17.4816 22.3039 19.2886 20.3153C20.3274 19.1723 20.8431 18.1815 21.3421 17.223C21.7112 16.514 22.0711 15.8227 22.6266 15.1004C23.9333 13.4016 27.1277 10.1241 27.1277 10.1241C27.1277 10.1241 27.5858 11.4896 27.4847 12.1325C27.3139 13.218 26.4966 14.2359 25.7996 14.8589C24.644 15.8918 23.8929 15.6877 23.3748 15.5469C23.1466 15.4849 22.9637 15.4352 22.8112 15.5089C22.3127 15.7499 21.9336 16.4 22.3325 16.7953C22.5284 16.9895 22.8815 16.9561 23.2596 16.9204C23.6516 16.8834 24.0705 16.8438 24.3688 17.0526C24.9549 17.4627 25.278 18.1394 25.2162 18.8134C25.0585 20.5328 23.7315 22.1973 23.0665 22.7431C21.678 23.8827 21.0932 24.1587 20.1597 23.2949C19.2261 22.4311 20.8438 19.9785 21.7381 19.4516C22.5125 18.9953 22.7909 19.2266 22.9823 19.3857C23.012 19.4103 23.0395 19.4332 23.0665 19.4516C23.2678 19.5884 23.6688 19.5884 23.7862 19.1987C23.9035 18.809 22.3288 18.2481 21.7381 18.5508C21.1473 18.8534 19.9449 19.5069 19.4778 20.4399C19.0108 21.3728 19.0556 22.7161 19.2886 23.2949C19.5217 23.8738 20.102 24.4791 20.5051 24.622C20.9081 24.7649 24.7484 24.9771 26.3267 21.8256C27.9049 18.674 25.2162 16.4666 25.2162 16.4666C25.2162 16.4666 28.2391 15.8571 28.8761 13.6664C29.513 11.4758 27.6675 9.42594 27.6675 9.42594C27.6675 9.42594 28.9542 8.38855 30.6276 7.88965C32.301 7.39075 33.0417 7.3697 33.3987 7.71726C33.7538 8.06289 33.5352 8.33628 33.1481 8.82037L33.1416 8.82854C32.7504 9.31773 32.0236 9.90603 31.4743 10.1241C31.1797 10.2411 30.9553 10.2022 30.6962 10.1573C30.4723 10.1185 30.2225 10.0752 29.8789 10.1241C29.1379 10.2296 29.0661 10.2529 29.0979 10.4625C29.1298 10.672 29.2491 11.1815 30.0492 11.245C30.8492 11.3086 32.102 11.1888 32.8147 10.7578C33.5275 10.3267 33.909 10.0368 34.2577 9.13397C34.6064 8.23114 34.5015 7.64977 34.1941 7.18633C33.8866 6.7229 33.4709 6.58623 32.6132 6.58623C31.7554 6.58623 30.5416 6.75521 29.513 7.18633C28.4845 7.61745 26.8876 8.82854 26.8876 8.82854L25.0514 7.88965C25.0514 7.88965 20.7364 6.77179 17.7827 7.53876C14.8289 8.30573 13.0215 9.24104 12.2723 11.0884C11.523 12.9358 11.7384 15.1075 13.6632 16.2778C15.5881 17.4481 17.5183 16.8721 19.2886 15.598C21.059 14.3239 20.4797 11.7616 20.3354 11.4758C20.1911 11.19 19.6962 10.397 18.8977 10.2791C18.0992 10.1612 16.8898 10.7188 16.5873 10.9314C16.2847 11.144 16.0224 11.5923 15.9078 11.8957C15.6475 12.5851 15.7153 13.1071 15.9078 13.371C16.2982 13.9057 16.4731 13.4933 16.5693 13.2666C16.5756 13.2517 16.5816 13.2376 16.5873 13.2246C16.6238 13.1412 16.5746 12.9954 16.518 12.8278C16.4319 12.5724 16.3286 12.2663 16.4849 12.0527C16.7437 11.6988 17.3518 11.4027 18.0347 11.245C18.7177 11.0873 19.1713 11.1539 19.4355 11.4758C19.6997 11.7977 19.92 12.3899 19.5738 13.1202C19.2276 13.8505 18.3498 14.7309 17.6554 15.2309C17.5624 15.2978 17.4734 15.3647 17.3868 15.4298C16.8262 15.851 16.3647 16.1978 15.5691 16.0034C15.5389 15.996 15.5082 15.9886 15.4771 15.981C14.5639 15.7595 13.3077 15.4547 12.9852 14.0901C12.6517 12.679 14.9343 10.6522 14.9343 10.6522C14.9343 10.6522 17.1852 9.31963 18.1542 9.00743C20.345 8.3015 21.8853 8.43902 22.4752 8.49169C22.4862 8.49267 22.4969 8.49363 22.5073 8.49455C23.722 8.60232 26.3267 9.29777 26.3267 9.29777C26.3267 9.29777 24.15 10.8598 23.0665 11.9469C21.983 13.034 20.7841 14.8589 20.7841 14.8589C20.7841 14.8589 17.19 19.7949 15.7581 21.1546C13.3706 23.4218 11.6392 23.5618 11.1298 23.5618C9.90768 23.5618 8.51701 23.4843 7.65973 23.1278C6.16266 22.5052 5.21488 21.1027 5.19258 20.5855C5.13998 19.3653 5.78627 18.8289 6.65634 18.233C7.52641 17.6372 9.35291 17.061 10.3514 17.0526C11.3498 17.0441 12.326 17.0441 13.0649 17.3333C13.8039 17.6224 14.4555 17.9666 14.6061 18.7175C14.7568 19.4684 14.2035 19.9327 13.6632 20.3153C13.1229 20.6979 12.6097 20.8293 11.4954 20.9592C10.5362 21.0711 10.4614 21.0335 10.1022 20.8529C10.0441 20.8237 9.97861 20.7907 9.90073 20.7541C9.3411 20.4908 9.00905 20.1095 9.00905 19.7436C9.00905 19.5555 9.33238 19.5278 9.66276 19.4995ZM40.8836 15.888C41.1863 15.888 41.4453 15.7825 41.6606 15.5717C41.8758 15.3608 41.9835 15.1054 41.9835 14.8054C41.9835 14.5055 41.877 14.2489 41.6641 14.0357C41.4513 13.8225 41.1911 13.7159 40.8836 13.7159C40.5808 13.7159 40.323 13.8225 40.1101 14.0357C39.8972 14.2489 39.7908 14.5055 39.7908 14.8054C39.7908 15.1054 39.8972 15.3608 40.1101 15.5717C40.323 15.7825 40.5808 15.888 40.8836 15.888ZM38.6554 22.2145C38.2722 23.1143 37.6501 23.5642 36.7892 23.5642C36.3681 23.5642 36.0121 23.4482 35.7212 23.2162C35.4303 22.9842 35.2446 22.7253 35.1642 22.4395C35.1169 22.2801 35.0932 21.849 35.0932 21.146V17.5961H34.2275V17.3501C34.8236 16.933 35.3309 16.4949 35.7496 16.0356C36.1683 15.5763 36.5337 15.0632 36.8459 14.4961H37.0801V16.9002H38.6554V17.5961H37.0801V21.6522C37.0801 22.0317 37.0978 22.2766 37.1333 22.3867C37.1688 22.4969 37.2315 22.5859 37.3214 22.6539C37.4112 22.7218 37.494 22.7558 37.5697 22.7558C37.8772 22.7558 38.1682 22.5238 38.4425 22.0599L38.6554 22.2145ZM32.12 23.5642C32.4417 23.5642 32.7291 23.4857 32.9821 23.3287C33.2352 23.1717 33.4801 22.9198 33.7166 22.573L33.5037 22.4043C33.376 22.5777 33.2506 22.6644 33.1276 22.6644C33.0661 22.6644 33.0117 22.6457 32.9644 22.6082C32.9171 22.5707 32.8816 22.5133 32.858 22.4359C32.8343 22.3586 32.8225 22.17 32.8225 21.8701V19.3184C32.8225 18.6107 32.7894 18.1585 32.7231 17.9617C32.6143 17.6524 32.3766 17.3653 32.01 17.1006C31.6434 16.8358 31.1455 16.7034 30.5163 16.7034C29.9959 16.7034 29.4945 16.7854 29.0119 16.9494C28.5294 17.1135 28.1533 17.3489 27.8837 17.6559C27.614 17.9628 27.4792 18.285 27.4792 18.6224C27.4792 18.8615 27.5797 19.07 27.7808 19.2481C27.9818 19.4262 28.2314 19.5152 28.5294 19.5152C28.8085 19.5152 29.0344 19.4344 29.2071 19.2727C29.3797 19.111 29.4661 18.9153 29.4661 18.6857C29.4661 18.4983 29.3762 18.3038 29.1964 18.1023C29.064 17.957 28.9977 17.8351 28.9977 17.7367C28.9977 17.6243 29.0592 17.5259 29.1822 17.4415C29.3809 17.3056 29.634 17.2376 29.9415 17.2376C30.1307 17.2376 30.301 17.2857 30.4524 17.3817C30.6038 17.4778 30.7067 17.5903 30.7611 17.7192C30.8155 17.848 30.8427 18.1608 30.8427 18.6576V19.3184C29.3809 19.9838 28.4324 20.5169 27.9972 20.9176C27.562 21.3183 27.3444 21.7693 27.3444 22.2708C27.3444 22.641 27.4697 22.9491 27.7204 23.1951C27.9712 23.4412 28.2858 23.5642 28.6642 23.5642C29.3076 23.5642 30.0337 23.2104 30.8427 22.5027C30.89 22.8589 31.0201 23.1248 31.233 23.3006C31.4459 23.4763 31.7415 23.5642 32.12 23.5642ZM30.0196 22.3832C29.8067 22.3832 29.6411 22.32 29.5228 22.1934C29.3667 22.0294 29.2887 21.8396 29.2887 21.624C29.2887 21.3663 29.3809 21.1109 29.5654 20.8578C29.8445 20.4782 30.2703 20.1221 30.8427 19.7893V21.9896C30.5305 22.252 30.2561 22.3832 30.0196 22.3832ZM42.6789 23.2197V23.4728H39.0954V23.2197C39.3887 23.2104 39.6063 23.126 39.7482 22.9667C39.8428 22.8589 39.8901 22.573 39.8901 22.1091V18.271C39.8901 17.807 39.8357 17.5106 39.7269 17.3817C39.6181 17.2529 39.4076 17.1791 39.0954 17.1603V16.9002H41.877V22.1091C41.877 22.573 41.9314 22.8694 42.0402 22.9983C42.149 23.1272 42.3619 23.201 42.6789 23.2197ZM46.7449 23.4728V23.2197C46.4516 23.1869 46.2576 23.1084 46.163 22.9842C46.0684 22.8601 46.0211 22.5472 46.0211 22.0458V20.8649L46.4469 20.4501L47.7596 22.3551C47.9583 22.6457 48.0576 22.8448 48.0576 22.9526C48.0576 23.0182 48.0234 23.0791 47.9548 23.1354C47.8862 23.1916 47.7762 23.2197 47.6248 23.2197V23.4728H51.0522V23.2197C50.8062 23.201 50.6028 23.1119 50.4419 22.9526C50.3236 22.8401 49.9499 22.3246 49.3207 21.4061L47.7596 19.1426L48.4834 18.4397C49.1031 17.8398 49.5194 17.4802 49.7323 17.3607C49.9452 17.2412 50.1936 17.1744 50.4774 17.1603V16.9002H47.5042V17.1603C47.8069 17.1978 48.0103 17.2587 48.1144 17.3431C48.2185 17.4274 48.2705 17.5329 48.2705 17.6594C48.2705 17.7859 48.2315 17.9172 48.1534 18.0531C48.0754 18.189 47.8779 18.4092 47.5609 18.7138L46.0211 20.2111V13.9408H43.3175V14.2009C43.6108 14.2384 43.8036 14.3181 43.8958 14.4399C43.9881 14.5618 44.0342 14.871 44.0342 15.3678V22.0458C44.0342 22.5472 43.994 22.8495 43.9136 22.9526C43.7953 23.1026 43.5966 23.1916 43.3175 23.2197V23.4728H46.7449Z" fill="#2D2D32"/>
<path fill-rule="evenodd" clip-rule="evenodd" d="M46.0261 27.1117C46.1956 27.1117 46.3406 27.0569 46.4612 26.9473C46.5817 26.8377 46.6419 26.705 46.6419 26.5492C46.6419 26.3933 46.5823 26.26 46.4631 26.1492C46.344 26.0384 46.1983 25.983 46.0261 25.983C45.8566 25.983 45.7122 26.0384 45.593 26.1492C45.4738 26.26 45.4142 26.3933 45.4142 26.5492C45.4142 26.705 45.4738 26.8377 45.593 26.9473C45.7122 27.0569 45.8566 27.1117 46.0261 27.1117ZM20.2481 30.918V31.0532H17.4312V30.918H17.6099C17.7662 30.918 17.892 30.8924 17.9874 30.8413C18.0563 30.8072 18.1092 30.7487 18.1463 30.666C18.1755 30.6075 18.19 30.4541 18.19 30.2057V26.9473C18.19 26.6941 18.1755 26.5358 18.1463 26.4725C18.1172 26.4091 18.0583 26.3537 17.9695 26.3063C17.8808 26.2588 17.7609 26.235 17.6099 26.235H17.4312V26.0999H20.2481V26.235H20.0693C19.9131 26.235 19.7872 26.2606 19.6919 26.3117C19.623 26.3458 19.5687 26.4043 19.529 26.4871C19.4999 26.5455 19.4853 26.6989 19.4853 26.9473V30.2057C19.4853 30.459 19.5005 30.6172 19.531 30.6806C19.5614 30.7439 19.621 30.7993 19.7098 30.8468C19.7985 30.8943 19.9184 30.918 20.0693 30.918H20.2481ZM22.5923 30.9217V31.0532H20.713V30.9217C20.8693 30.907 20.9805 30.8608 21.0467 30.7828C21.0918 30.7293 21.1143 30.571 21.1143 30.308V28.3793C21.1143 28.1211 21.0885 27.9604 21.0368 27.8971C20.9852 27.8338 20.8772 27.7924 20.713 27.7729V27.6377H22.2268V28.0797C22.4175 27.8898 22.6003 27.7516 22.7751 27.6651C22.9499 27.5787 23.138 27.5354 23.3393 27.5354C23.5803 27.5354 23.7803 27.5969 23.9392 27.7199C24.0981 27.8429 24.2041 27.9957 24.2571 28.1783C24.2994 28.3172 24.3206 28.5838 24.3206 28.9783V30.308C24.3206 30.571 24.3465 30.7347 24.3981 30.7993C24.4498 30.8638 24.5577 30.9046 24.7219 30.9217V31.0532H22.8426V30.9217C22.983 30.9046 23.0837 30.851 23.1446 30.7609C23.187 30.7 23.2081 30.5491 23.2081 30.308V28.7884C23.2081 28.5083 23.1962 28.3318 23.1724 28.2587C23.1486 28.1857 23.1082 28.129 23.0512 28.0889C22.9943 28.0487 22.9314 28.0286 22.8625 28.0286C22.6347 28.0286 22.4228 28.1783 22.2268 28.4779V30.308C22.2268 30.5637 22.2526 30.7256 22.3043 30.7938C22.3559 30.862 22.4519 30.9046 22.5923 30.9217ZM27.7336 31.1554L29.303 30.8742V30.7536C29.1547 30.7439 29.0507 30.7195 28.9911 30.6806C28.9315 30.6416 28.8911 30.5819 28.8699 30.5016C28.854 30.4529 28.8461 30.2958 28.8461 30.0304V26.0999H27.1972V26.2533C27.372 26.2533 27.4912 26.2703 27.5548 26.3044C27.6184 26.3385 27.6661 26.3909 27.6978 26.4615C27.7217 26.5151 27.7336 26.6721 27.7336 26.9327V27.9628C27.5773 27.8045 27.4303 27.6937 27.2926 27.6304C27.1548 27.5671 26.9972 27.5354 26.8198 27.5354C26.5443 27.5354 26.2867 27.6097 26.047 27.7583C25.8073 27.9068 25.6185 28.1266 25.4808 28.4176C25.3431 28.7086 25.2742 29.038 25.2742 29.4057C25.2742 29.866 25.3855 30.2544 25.6079 30.571C25.8834 30.9606 26.2582 31.1554 26.7324 31.1554C26.9178 31.1554 27.084 31.1177 27.231 31.0422C27.378 30.9667 27.5455 30.8242 27.7336 30.6148V31.1554ZM26.8237 30.6477C26.8847 30.694 26.9681 30.7171 27.074 30.7171C27.3071 30.7171 27.527 30.5491 27.7336 30.213V28.4158C27.5376 28.07 27.2979 27.8971 27.0145 27.8971C26.9164 27.8971 26.8357 27.9214 26.7721 27.9701C26.6741 28.0456 26.594 28.1783 26.5317 28.3683C26.4695 28.5582 26.4383 28.8493 26.4383 29.2413C26.4383 29.6724 26.4728 29.9914 26.5416 30.1984C26.6105 30.4054 26.7045 30.5551 26.8237 30.6477ZM31.524 31.1554C32.0935 31.1554 32.5398 30.9582 32.863 30.5637C33.1305 30.2373 33.2643 29.8319 33.2643 29.3473C33.2643 29.0112 33.1921 28.7019 33.0477 28.4194C32.9034 28.1369 32.6921 27.919 32.414 27.7656C32.1359 27.6122 31.8352 27.5354 31.5121 27.5354C30.9744 27.5354 30.5512 27.7175 30.2427 28.0815C29.9341 28.4456 29.7798 28.8724 29.7798 29.3619C29.7798 29.8367 29.9308 30.2544 30.2327 30.6148C30.5347 30.9752 30.9651 31.1554 31.524 31.1554ZM31.1863 30.7682C31.2816 30.8583 31.3902 30.9034 31.5121 30.9034C31.6313 30.9034 31.7306 30.8729 31.8101 30.8121C31.9134 30.7293 31.9822 30.6136 32.0167 30.465C32.0697 30.2337 32.0961 29.7661 32.0961 29.0623C32.0961 28.6483 32.071 28.364 32.0207 28.2094C31.9703 28.0548 31.8962 27.9421 31.7982 27.8715C31.7293 27.8204 31.6392 27.7948 31.528 27.7948C31.3929 27.7948 31.277 27.8417 31.1803 27.9354C31.0836 28.0292 31.0201 28.2143 30.9896 28.4907C30.9592 28.7671 30.9439 29.1512 30.9439 29.6431C30.9439 29.9037 30.9625 30.1472 30.9995 30.3737C31.0287 30.5466 31.0909 30.6781 31.1863 30.7682ZM35.7117 31.0532V30.9217C35.5713 30.9046 35.4753 30.862 35.4237 30.7938C35.372 30.7256 35.3462 30.5637 35.3462 30.308V28.4779C35.5422 28.1783 35.7541 28.0286 35.9819 28.0286C36.0508 28.0286 36.1137 28.0487 36.1706 28.0889C36.2276 28.129 36.268 28.1857 36.2918 28.2587C36.3157 28.3318 36.3276 28.5083 36.3276 28.7884V30.308C36.3276 30.5491 36.3064 30.7 36.264 30.7609C36.2031 30.851 36.1024 30.9046 35.962 30.9217V31.0532H37.8414V30.9217C37.6771 30.9046 37.5692 30.8638 37.5175 30.7993C37.4659 30.7347 37.4401 30.571 37.4401 30.308V28.9783C37.4401 28.5838 37.4189 28.3172 37.3765 28.1783C37.3235 27.9957 37.2176 27.8429 37.0586 27.7199C36.8997 27.5969 36.6997 27.5354 36.4587 27.5354C36.2574 27.5354 36.0693 27.5787 35.8945 27.6651C35.7197 27.7516 35.5369 27.8898 35.3462 28.0797V27.6377H33.8324V27.7729C33.9966 27.7924 34.1046 27.8338 34.1562 27.8971C34.2079 27.9604 34.2337 28.1211 34.2337 28.3793V30.308C34.2337 30.571 34.2112 30.7293 34.1662 30.7828C34.0999 30.8608 33.9887 30.907 33.8324 30.9217V31.0532H35.7117ZM40.8332 30.9198C40.5895 31.0769 40.3074 31.1554 39.9869 31.1554C39.4359 31.1554 39.0187 30.9606 38.7353 30.571C38.5075 30.2568 38.3936 29.8672 38.3936 29.4021C38.3936 28.8322 38.5612 28.3786 38.8962 28.0414C39.2313 27.7041 39.624 27.5354 40.0743 27.5354C40.4504 27.5354 40.7769 27.6773 41.0537 27.961C41.3305 28.2447 41.4795 28.6654 41.5007 29.2231H39.4624C39.4862 29.676 39.6174 30.034 39.8558 30.297C40.0385 30.4991 40.2584 30.6002 40.5153 30.6002C40.6742 30.6002 40.8186 30.5594 40.9484 30.4778C41.0782 30.3962 41.2172 30.2495 41.3656 30.0377L41.5007 30.118C41.2993 30.4955 41.0768 30.7628 40.8332 30.9198ZM40.5233 28.9783H39.4425V28.8505C39.4425 28.473 39.5207 28.1759 39.677 27.9592C39.7644 27.835 39.8769 27.7729 40.0147 27.7729C40.1074 27.7729 40.1816 27.7948 40.2372 27.8386C40.3352 27.9141 40.4074 28.0249 40.4537 28.171C40.5001 28.3172 40.5233 28.5862 40.5233 28.9783ZM43.9759 31.0093C43.7879 31.1067 43.5799 31.1554 43.3521 31.1554C43.1747 31.1554 42.9376 31.1043 42.641 31.002C42.5615 30.9752 42.5072 30.9618 42.4781 30.9618C42.3906 30.9618 42.3178 31.0227 42.2595 31.1445H42.1284L42.0648 29.9171H42.1999C42.3191 30.2386 42.4827 30.4797 42.6906 30.6404C42.8985 30.8011 43.0952 30.8815 43.2806 30.8815C43.4078 30.8815 43.5117 30.8455 43.5925 30.7737C43.6733 30.7019 43.7137 30.6148 43.7137 30.5125C43.7137 30.3956 43.674 30.2946 43.5945 30.2093C43.5151 30.1241 43.3376 29.995 43.0621 29.8221C42.6568 29.564 42.3946 29.3667 42.2754 29.2304C42.1006 29.0307 42.0132 28.8103 42.0132 28.5692C42.0132 28.3062 42.1119 28.0682 42.3092 27.8551C42.5065 27.642 42.7919 27.5354 43.1654 27.5354C43.3667 27.5354 43.5614 27.5805 43.7495 27.6706C43.821 27.7071 43.8793 27.7254 43.9243 27.7254C43.972 27.7254 44.0104 27.7163 44.0395 27.698C44.0686 27.6797 44.115 27.628 44.1786 27.5427H44.3137L44.3733 28.708H44.2382C44.0766 28.3622 43.9091 28.126 43.7356 27.9994C43.5621 27.8727 43.3892 27.8094 43.2171 27.8094C43.1085 27.8094 43.0158 27.8429 42.9389 27.9099C42.8621 27.9768 42.8237 28.0541 42.8237 28.1418C42.8237 28.2076 42.8502 28.2709 42.9032 28.3318C42.9879 28.4316 43.225 28.6027 43.6144 28.845C44.0038 29.0873 44.26 29.2931 44.3832 29.4623C44.5064 29.6316 44.5679 29.8209 44.5679 30.0304C44.5679 30.2203 44.5163 30.4066 44.413 30.5892C44.3097 30.7719 44.164 30.9119 43.9759 31.0093ZM47.0313 30.9217V31.0532H45.0249V30.9217C45.1891 30.9168 45.3109 30.8729 45.3904 30.7901C45.4434 30.7341 45.4699 30.5856 45.4699 30.3445V28.35C45.4699 28.1089 45.4394 27.9549 45.3785 27.8879C45.3175 27.821 45.1997 27.7826 45.0249 27.7729V27.6377H46.5823V30.3445C46.5823 30.5856 46.6128 30.7396 46.6737 30.8066C46.7346 30.8736 46.8538 30.9119 47.0313 30.9217ZM50.1582 31.1006C50.3383 31.1006 50.4992 31.0599 50.6409 30.9783C50.7826 30.8967 50.9197 30.7658 51.0522 30.5856L50.933 30.4979C50.8615 30.588 50.7913 30.6331 50.7224 30.6331C50.688 30.6331 50.6575 30.6233 50.631 30.6039C50.6045 30.5844 50.5847 30.5545 50.5714 30.5144C50.5582 30.4742 50.5515 30.3762 50.5515 30.2203V28.8943C50.5515 28.5266 50.533 28.2916 50.4959 28.1893C50.435 28.0286 50.3019 27.8794 50.0966 27.7418C49.8913 27.6042 49.6125 27.5354 49.2603 27.5354C48.9689 27.5354 48.6881 27.5781 48.4179 27.6633C48.1478 27.7485 47.9372 27.8709 47.7862 28.0304C47.6352 28.1899 47.5597 28.3573 47.5597 28.5327C47.5597 28.6569 47.616 28.7652 47.7286 28.8578C47.8412 28.9503 47.9809 28.9966 48.1478 28.9966C48.3041 28.9966 48.4305 28.9546 48.5272 28.8706C48.6239 28.7865 48.6722 28.6849 48.6722 28.5656C48.6722 28.4681 48.6219 28.3671 48.5213 28.2624C48.4471 28.1869 48.41 28.1236 48.41 28.0724C48.41 28.014 48.4444 27.9628 48.5133 27.919C48.6246 27.8484 48.7663 27.8131 48.9384 27.8131C49.0444 27.8131 49.1397 27.838 49.2245 27.8879C49.3093 27.9379 49.3669 27.9963 49.3973 28.0633C49.4278 28.1302 49.443 28.2928 49.443 28.5509V28.8943C48.6246 29.2401 48.0935 29.5171 47.8498 29.7253C47.6061 29.9335 47.4843 30.1679 47.4843 30.4285C47.4843 30.6209 47.5544 30.781 47.6948 30.9089C47.8352 31.0367 48.0114 31.1006 48.2233 31.1006C48.5835 31.1006 48.9901 30.9168 49.443 30.5491C49.4695 30.7341 49.5424 30.8723 49.6616 30.9637C49.7808 31.055 49.9463 31.1006 50.1582 31.1006ZM48.704 30.3883C48.7702 30.4541 48.8629 30.487 48.9821 30.487C49.1146 30.487 49.2682 30.4188 49.443 30.2824V29.1391C49.1225 29.312 48.8841 29.497 48.7279 29.6943C48.6246 29.8258 48.5729 29.9585 48.5729 30.0924C48.5729 30.2045 48.6166 30.3031 48.704 30.3883Z" fill="#2D2D32"/>
</svg>
