<svg width="60" height="36" viewBox="0 0 60 36" fill="none" xmlns="http://www.w3.org/2000/svg">
<g id="logo / provider / axis">
<g id="Logo Axis">
<mask id="mask0_0_12493" style="mask-type:alpha" maskUnits="userSpaceOnUse" x="1" y="4" width="58" height="28">
<rect id="Mask" x="1" y="4" width="58" height="28" fill="white"/>
</mask>
<g mask="url(#mask0_0_12493)">
<g id="Group">
<path id="Path" d="M13.0445 17.248C12.6282 20.7289 15.0765 25.7754 22.7128 26.6664C27.7427 27.2577 32.8974 25.8087 35.6205 25.5172C36.395 25.434 36.9696 25.4923 37.2944 25.7421C37.7857 26.1252 37.7774 26.6165 37.3693 27.4909C36.9529 28.3819 37.5026 28.7816 38.4602 28.4402C40.9252 27.5741 45.9217 23.0107 45.1889 16.4319C44.4477 9.76152 38.3603 5.41454 29.15 6.06408C19.7899 6.72196 13.7107 11.6435 13.0445 17.248Z" fill="#703090"/>
<path id="Shape" fill-rule="evenodd" clip-rule="evenodd" d="M32.7225 14.0585C32.3811 14.0585 32.1063 14.3333 32.1063 14.6748V19.7796C32.1063 20.121 32.3811 20.3958 32.7225 20.3958C33.064 20.3958 33.3388 20.121 33.3388 19.7796V14.6748C33.3388 14.3417 33.064 14.0585 32.7225 14.0585ZM31.3485 15.1245L29.2416 17.2313L31.3652 19.3382C31.6066 19.5797 31.6066 19.9711 31.3652 20.2126C31.2402 20.3375 31.082 20.3958 30.9238 20.3958C30.7656 20.3958 30.6073 20.3375 30.4824 20.2126L28.3756 18.1057L26.2687 20.2126C26.1438 20.3375 25.9856 20.3958 25.8273 20.3958C25.6691 20.3958 25.5109 20.3375 25.386 20.2126C25.1445 19.9711 25.1445 19.5797 25.386 19.3382L27.4928 17.2313L25.386 15.1245C25.1445 14.883 25.1445 14.4916 25.386 14.2501C25.6275 14.0086 26.0189 14.0086 26.2604 14.2501L28.3672 16.3569L30.4741 14.2501C30.7156 14.0086 31.107 14.0086 31.3485 14.2501C31.59 14.4916 31.59 14.883 31.3485 15.1245ZM24.7364 19.4714C24.903 19.7712 24.803 20.146 24.5032 20.3209C24.4033 20.3791 24.3034 20.4041 24.1951 20.4041C23.9786 20.4041 23.7704 20.2959 23.6538 20.096L23.0293 19.0051H19.515L18.8905 20.096C18.7239 20.3958 18.3409 20.4957 18.0494 20.3209C17.7496 20.146 17.6497 19.7712 17.8162 19.4714L18.6157 18.0891V18.0807L20.7392 14.3916C20.8475 14.2001 21.0556 14.0835 21.2722 14.0835C21.497 14.0835 21.6969 14.2001 21.8134 14.3916L23.9286 18.0724C23.9286 18.0724 23.9286 18.0807 23.937 18.0807L24.7364 19.4714ZM22.3214 17.7643L21.2805 15.9489L20.2312 17.7643H22.3214ZM38.735 20.4041C39.7843 20.4041 40.6337 19.5547 40.6337 18.5054C40.6337 17.4645 39.7843 16.6151 38.735 16.6068H35.8454C35.479 16.6068 35.1875 16.307 35.1875 15.9489C35.1875 15.5825 35.4873 15.291 35.8454 15.291H39.8259C40.1674 15.291 40.4422 15.0162 40.4422 14.6748C40.4422 14.3333 40.1674 14.0585 39.8259 14.0585H35.8454C34.7961 14.0585 33.9467 14.9079 33.9467 15.9489C33.9467 16.9982 34.8044 17.8476 35.8454 17.8476H38.735C39.1014 17.8476 39.3929 18.1474 39.3929 18.5054C39.3929 18.8719 39.0931 19.1633 38.735 19.1633H34.7461C34.4047 19.1633 34.1299 19.4465 34.1299 19.7879C34.1299 20.1293 34.4047 20.4041 34.7461 20.4041H38.735Z" fill="white"/>
</g>
</g>
</g>
</g>
</svg>
