<svg width="60" height="36" viewBox="0 0 60 36" fill="none" xmlns="http://www.w3.org/2000/svg">
<path fill-rule="evenodd" clip-rule="evenodd" d="M47.4088 26.6118C42.6204 26.6118 38.9948 22.9212 39.0155 18.0274C39.0345 13.5692 42.4402 9.67866 47.4142 9.66199C52.1232 9.64628 55.8188 13.4031 55.8012 18.1431C55.7836 22.9271 52.132 26.6118 47.4088 26.6118ZM52.6621 18.5246C52.6655 17.2566 52.4967 16.3953 52.1375 15.5708C50.5934 12.0265 45.9656 11.2936 43.5083 14.2501C41.9654 16.1063 41.7574 18.2558 42.5778 20.4756C43.7104 23.5403 47.327 24.8136 50.0386 23.1289C51.8697 21.9912 52.6051 20.2433 52.6621 18.5246Z" fill="#4D3594"/>
<path fill-rule="evenodd" clip-rule="evenodd" d="M12.459 26.6118C7.71798 26.6118 4.06029 22.9126 4.06067 18.1182C4.06111 13.3734 7.73794 9.65553 12.4722 9.66269C17.2113 9.66979 20.8605 13.3512 20.8497 18.1487C20.8383 23.1991 16.905 26.6625 12.459 26.6118ZM12.4466 23.8537C13.781 23.8551 14.9528 23.4232 15.9229 22.5012C17.895 20.6271 18.3046 17.3969 16.8904 14.9821C15.0072 11.7669 10.5191 11.5289 8.32484 14.5414C7.24299 16.0266 6.9925 17.7028 7.331 19.4796C7.82165 22.055 9.9313 23.8502 12.4466 23.8537Z" fill="#4D3594"/>
<path fill-rule="evenodd" clip-rule="evenodd" d="M26.6773 12.8514C26.7397 13.1147 30.2419 21.4521 30.4845 21.9233C30.5962 21.8729 30.6003 21.7554 30.6375 21.6643C31.7927 18.8366 32.9448 16.0077 34.0975 13.179C34.2309 12.852 34.2313 12.8519 33.8732 12.8515C33.5248 12.8512 33.1761 12.8444 32.8279 12.8545C32.667 12.8591 32.6058 12.8155 32.6077 12.6437C32.6157 11.873 32.6161 11.1021 32.6074 10.3313C32.6055 10.1575 32.6698 10.1227 32.8276 10.1232C34.4537 10.1278 36.0798 10.1285 37.7059 10.1224C37.8827 10.1218 37.9439 10.1694 37.938 10.3512C37.9254 10.7414 37.9301 11.1325 37.9365 11.5231C37.9386 11.6558 37.8947 11.7696 37.845 11.8863C35.7936 16.7031 33.7418 21.5195 31.6957 26.3385C31.612 26.5357 31.5171 26.6134 31.2879 26.6196C29.8494 26.6583 28.898 26.002 28.3322 24.6875C26.6704 20.8268 24.9852 16.9763 23.3184 13.1177C23.2278 12.9078 23.1232 12.8352 22.9016 12.8465C22.5435 12.8648 22.1835 12.8421 21.825 12.8552C21.6295 12.8623 21.5419 12.8188 21.5453 12.5988C21.5571 11.8493 21.5527 11.0995 21.5475 10.3498C21.5465 10.1964 21.5784 10.1223 21.7553 10.1228C23.8566 10.1278 25.9579 10.1275 28.0591 10.123C28.2244 10.1227 28.2789 10.1746 28.2774 10.3398C28.2708 11.1 28.2706 11.8603 28.2775 12.6205C28.2791 12.798 28.222 12.8595 28.0412 12.8551C27.5884 12.844 27.135 12.8514 26.6773 12.8514Z" fill="#4D3594"/>
</svg>
