<svg width="60" height="36" viewBox="0 0 60 36" fill="none" xmlns="http://www.w3.org/2000/svg">
<mask id="mask0_0_12151" style="mask-type:alpha" maskUnits="userSpaceOnUse" x="16" y="4" width="28" height="28">
<path fill-rule="evenodd" clip-rule="evenodd" d="M16 4.09552H43.6035V31.6039H16V4.09552Z" fill="white"/>
</mask>
<g mask="url(#mask0_0_12151)">
<path d="M41.0118 31.6039H18.5917C17.1663 31.6039 16 30.4417 16 29.0211V6.6783C16 5.25782 17.1663 4.09552 18.5917 4.09552H41.0118C42.4373 4.09552 43.6036 5.25782 43.6036 6.6783V29.0211C43.6036 30.4417 42.4373 31.6039 41.0118 31.6039Z" fill="#E82529"/>
</g>
<path d="M21.9555 9.27538H23.2633C23.3629 9.27538 23.4394 9.36334 23.4252 9.46153L22.8178 13.6603C22.7944 13.8219 22.9203 13.9666 23.0841 13.9666H25.3783C25.4435 13.9666 25.4934 14.0243 25.4839 14.0885L25.3059 15.2944C25.2967 15.3571 25.2428 15.4036 25.1791 15.4036H22.585C21.8134 15.4036 21.0734 14.7729 21.1822 14.0116L21.7934 9.41693C21.8042 9.33593 21.8735 9.27538 21.9555 9.27538Z" fill="#FEFEFE"/>
<path d="M26.3164 10.9508L25.7178 15.2328C25.7083 15.3007 25.7612 15.3614 25.83 15.3614H27.0955C27.1855 15.3614 27.2618 15.2953 27.2743 15.2065L27.8671 10.994C27.8797 10.897 27.8039 10.8109 27.7057 10.8109H26.4776C26.3964 10.8109 26.3276 10.8706 26.3164 10.9508Z" fill="#FEFEFE"/>
<path d="M28.9268 15.033C28.5363 15.019 28.3536 15.141 28.1232 15.2779C28.1788 14.8919 28.6148 11.8833 28.6546 11.6985C28.6967 11.5014 28.7349 11.1727 28.9088 11.0069C29.1125 10.8122 29.428 10.7008 30.9973 10.6958C32.5992 10.6906 32.9096 11.8395 32.8246 12.5861C32.7521 13.2251 32.5137 14.8038 32.4465 15.2449C32.4362 15.3119 32.3787 15.3613 32.3109 15.3613H31.0735C30.9828 15.3613 30.9132 15.2817 30.9258 15.1923C30.9884 14.7512 31.1562 13.5753 31.2131 13.2339C31.2838 12.8115 31.3403 12.3467 31.2272 12.1632C31.1141 11.9801 30.7749 11.8395 30.1247 11.9523L29.6439 15.3404C29.6439 15.3404 29.3345 15.0478 28.9268 15.033Z" fill="#FEFEFE"/>
<path d="M34.1667 9.03214H35.5394C35.5904 9.03214 35.6297 9.07713 35.6227 9.12756L34.7686 15.2939C34.7623 15.3397 34.723 15.3738 34.6766 15.3738H33.3213C33.265 15.3738 33.2217 15.3242 33.2294 15.2686L34.0833 9.10464C34.089 9.06309 34.1246 9.03214 34.1667 9.03214Z" fill="#FEFEFE"/>
<path d="M35.2289 12.7475L36.7802 10.937C36.8291 10.88 36.9006 10.8471 36.9759 10.8471H38.3377C38.4361 10.8471 38.4878 10.9632 38.4221 11.0358L36.8359 12.7901L38.2859 15.898C38.3391 16.012 38.2555 16.1425 38.1294 16.1425H36.8985C36.8341 16.1425 36.7758 16.1051 36.7489 16.047L35.2289 12.7475Z" fill="#FEFEFE"/>
<path d="M28.1323 9.65141C28.0213 10.118 27.5997 10.4652 27.1582 10.4652C26.7168 10.4652 26.3783 10.087 26.4894 9.62047C26.6004 9.15388 26.9658 8.77565 27.4896 8.77565C27.931 8.77565 28.2432 9.18483 28.1323 9.65141Z" fill="#FEFEFE"/>
<path d="M29.5275 16.4529C29.4165 16.9195 28.9949 17.2667 28.5535 17.2667C28.1121 17.2667 27.7736 16.8884 27.8847 16.4219C27.9956 15.9554 28.3611 15.5771 28.8849 15.5771C29.3263 15.5771 29.6385 15.9863 29.5275 16.4529Z" fill="#FEFEFE"/>
<path d="M36.1675 22.0286C36.0739 22.4896 35.6479 22.8326 35.1838 22.8323C34.7197 22.8321 34.345 22.4581 34.4386 21.9972C34.5321 21.5361 34.8976 21.1625 35.4483 21.1628C35.9123 21.163 36.261 21.5675 36.1675 22.0286Z" fill="#FEFEFE"/>
<path fill-rule="evenodd" clip-rule="evenodd" d="M25.5693 16.4979L26.4966 22.0296C26.5141 22.1336 26.4336 22.2284 26.3277 22.2284H25.0545C24.9421 22.2284 24.8481 22.1434 24.8373 22.032L24.7436 21.0748C24.7398 21.0366 24.7075 21.0074 24.669 21.0074H23.0981C23.068 21.0074 23.0409 21.0253 23.0292 21.0529L22.5977 22.0645C22.563 22.1459 22.4831 22.199 22.3942 22.1994L21.0962 22.207C21.0079 22.2075 20.9487 22.1168 20.9849 22.0365L23.4831 16.5014C23.6006 16.244 23.8582 16.0788 24.142 16.0788H25.0726C25.3186 16.0788 25.5287 16.256 25.5693 16.4979ZM23.6523 19.7322H24.4833C24.5322 19.7322 24.5705 19.6904 24.5661 19.642L24.4035 17.853C24.4001 17.8158 24.3486 17.8083 24.3348 17.8432L23.6115 19.6726C23.6002 19.7013 23.6214 19.7322 23.6523 19.7322Z" fill="#FEFEFE"/>
<path d="M25.8774 23.0317L26.1772 23.9546C26.2311 24.1065 26.2717 24.1402 26.377 24.118C26.7557 24.0385 27.6707 23.769 28.1184 23.1655C28.702 22.3786 28.7821 20.9876 28.8851 20.2806C28.9699 19.6982 29.1557 18.2648 29.2185 17.7776C29.2298 17.6899 29.1613 17.6124 29.0726 17.6124H27.9089C27.8061 17.6124 27.7191 17.6881 27.7053 17.7896C27.6115 18.4778 27.2736 20.9524 27.2145 21.2954C27.1459 21.6946 27.1322 22.2695 26.5397 22.6126C26.244 22.7838 26.0924 22.8165 25.9754 22.8709C25.9158 22.8986 25.8486 22.9283 25.8774 23.0317Z" fill="#FEFEFE"/>
<path fill-rule="evenodd" clip-rule="evenodd" d="M33.8276 17.7435C33.8753 17.756 33.9199 17.7677 33.9615 17.778C34.1091 17.8148 34.1829 17.8608 34.1645 18.0079L33.6956 21.7139C33.6791 21.8351 33.6006 21.939 33.4879 21.9874C33.1641 22.1266 32.4341 22.3816 31.5039 22.3413C30.2347 22.2862 29.3516 21.915 29.5586 19.9901C29.7655 18.0652 30.8704 17.6142 31.8489 17.5428C32.797 17.4735 33.4248 17.638 33.8276 17.7435ZM31.3832 20.8887C31.6744 21.1065 32.2812 20.9008 32.2812 20.9008L32.5386 18.8943C32.5386 18.8943 32.1963 18.8084 32.0142 18.8205C31.8322 18.8327 31.4074 18.9415 31.2375 19.5825C31.0675 20.2235 31.0918 20.671 31.3832 20.8887Z" fill="#FEFEFE"/>
<path d="M34.8665 20.5491L35.208 17.0003C35.2203 16.8732 35.3273 16.8213 35.4555 16.8213H36.6335C36.7432 16.8213 36.7897 16.9043 36.7594 17.0403L36.0404 20.5938C36.0258 20.6626 35.9651 20.7118 35.8945 20.7118H35.0148C34.9269 20.7118 34.8581 20.6363 34.8665 20.5491Z" fill="#FEFEFE"/>
<path d="M21.0812 27.093C21.3145 27.2214 21.5869 27.2588 21.8463 27.1976C22.8794 26.9536 25.1657 26.297 30.0019 25.6003C36.0778 24.725 40.5639 24.7286 40.5639 24.7286L40.5757 24.7215C40.5757 24.7215 36.5995 24.1771 30.0737 24.8122C23.5479 25.4474 19.9056 26.4456 19.9056 26.4456L21.0812 27.093Z" fill="#FEFEFE"/>
</svg>
