<svg width="60" height="36" viewBox="0 0 60 36" fill="none" xmlns="http://www.w3.org/2000/svg">
<path d="M14.1634 28.4124C14.1924 27.8452 14.2943 27.2947 14.5695 26.789C14.9409 26.1077 15.5294 25.7519 16.2902 25.6669C16.6482 25.6266 17.0051 25.6411 17.3564 25.7273C18.0714 25.9029 18.4764 26.3874 18.6722 27.0721C18.7583 27.3742 18.7471 27.3171 18.4887 27.3831C18.2123 27.4536 17.9326 27.5162 17.6574 27.589C17.5533 27.6169 17.5019 27.5934 17.4728 27.486C17.4448 27.3786 17.4012 27.2757 17.3576 27.1728C17.07 26.4937 16.1973 26.5697 15.8818 27.0575C15.7308 27.2914 15.6435 27.5476 15.6033 27.8183C15.4936 28.55 15.4925 29.2806 15.6726 30.0022C15.78 30.4352 16.006 30.7854 16.4692 30.9118C16.8015 31.0013 17.1327 30.9689 17.4616 30.8772C17.5164 30.8615 17.5321 30.8346 17.5321 30.7832C17.531 30.4386 17.5287 30.094 17.5332 29.7494C17.5343 29.6688 17.4963 29.6655 17.4359 29.6666C17.1987 29.6688 16.9615 29.6632 16.7243 29.6688C16.6247 29.6711 16.5889 29.6375 16.59 29.5379C16.5945 29.3007 16.5934 29.0636 16.59 28.8264C16.5889 28.7357 16.6214 28.6988 16.7154 28.6988C17.3732 28.7011 18.0311 28.7022 18.6878 28.6977C18.8031 28.6966 18.8176 28.7492 18.8176 28.8454C18.8154 29.7091 18.8154 30.5717 18.8187 31.4354C18.8187 31.5149 18.793 31.5529 18.7225 31.5854C18.1989 31.8225 17.6507 31.9479 17.0778 31.9747C17.0376 31.9769 16.9883 31.949 16.9581 32.0004C16.8597 32.0004 16.7612 32.0004 16.6628 32.0004C16.5531 31.9456 16.4323 31.9624 16.3182 31.949C15.3739 31.8349 14.7116 31.3616 14.3972 30.4442C14.2383 29.9799 14.1779 29.4999 14.1622 29.0121C14.1622 28.8129 14.1634 28.6127 14.1634 28.4124Z" fill="#020202"/>
<path d="M14.2252 29.0132C14.21 29.0143 14.1948 29.0166 14.1796 29.0211C14.1796 28.8152 14.1796 28.6093 14.1796 28.4035C14.1948 28.4068 14.2122 28.4091 14.2273 28.4124C14.2273 28.6127 14.2252 28.813 14.2252 29.0132Z" fill="#BA8F52"/>
<path d="M29.8334 7.52202C29.5906 7.52202 29.3512 7.50859 29.1129 7.52426C28.1932 7.58691 27.3183 7.82745 26.4837 8.21456C25.9164 8.47748 25.3962 8.81648 24.9207 9.2282C23.5714 10.3974 22.7312 11.8518 22.4157 13.6083C22.3206 14.1409 22.2669 14.6813 22.3072 15.2194C22.4291 16.8383 22.9661 18.3017 24.0234 19.5515C25.15 20.884 26.5687 21.7443 28.2872 22.0498C30.63 22.4671 32.7277 21.8976 34.5223 20.3257C35.8358 19.1767 36.6391 17.7188 36.8953 15.9948C37.2399 13.6844 36.6223 11.6415 35.0661 9.89166C34.7047 9.48553 34.2952 9.13198 33.8477 8.82319C33.7694 8.76949 33.7738 8.73816 33.8331 8.67439C34.1632 8.32756 34.491 7.97849 34.8166 7.62719C34.8747 7.56453 34.9128 7.56006 34.9821 7.61264C36.7073 8.91158 37.8452 10.6032 38.3755 12.6976C38.5948 13.5647 38.6742 14.4486 38.6216 15.3403C38.5321 16.8831 38.088 18.3174 37.2578 19.6231C36.6279 20.6132 35.8447 21.4635 34.8859 22.1471C33.672 23.0119 32.3306 23.5646 30.8515 23.747C28.257 24.067 25.9254 23.4147 23.907 21.7454C22.2277 20.3559 21.204 18.5658 20.8079 16.4221C20.677 15.7117 20.6368 14.9945 20.6871 14.2718C20.8337 12.2009 21.5889 10.3862 22.974 8.84109C24.1901 7.48622 25.6882 6.58669 27.4537 6.13581C28.4203 5.88968 29.4004 5.81919 30.3939 5.89751C31.3192 5.97023 32.2086 6.18616 33.0667 6.53747C33.1104 6.55537 33.1618 6.5632 33.1988 6.60795C33.1719 6.63816 33.1462 6.66837 33.1182 6.69634C32.4861 7.3363 31.8618 7.98409 31.2196 8.61286C30.9197 8.9071 30.6143 9.19576 30.3234 9.49672C28.6765 11.2018 26.9782 12.8576 25.3078 14.5392C25.2317 14.6153 25.2373 14.6533 25.31 14.726C26.8182 16.2297 28.3252 17.7356 29.8289 19.2449C29.9083 19.3243 29.9441 19.3087 30.0135 19.2393C31.3001 17.9493 32.5879 16.6616 33.8779 15.3772C33.9573 15.2989 33.9584 15.2575 33.879 15.1791C33.3811 14.6891 32.8877 14.1957 32.3977 13.699C32.3216 13.6218 32.2735 13.6206 32.2086 13.7023C32.1695 13.7515 32.1213 13.7918 32.0766 13.8366C31.5295 14.3758 30.9768 14.9118 30.4364 15.4577C30.2798 15.6155 30.1287 15.7799 29.9755 15.9411C29.9285 15.9903 29.8994 15.9936 29.849 15.9422C29.481 15.5696 29.1117 15.1993 28.7381 14.8312C28.6709 14.7652 28.7011 14.7316 28.7504 14.6824C29.9095 13.5255 31.0674 12.3676 32.2265 11.2096C32.2299 11.2063 32.2332 11.204 32.2355 11.1995C32.2791 11.1369 32.3183 11.1391 32.3697 11.1973C32.4436 11.2812 32.5264 11.3562 32.6058 11.4356C33.8533 12.6831 35.0996 13.9306 36.3504 15.1758C36.4321 15.2575 36.4388 15.2977 36.3527 15.3839C34.8222 16.9099 33.2983 18.4427 31.7633 19.9643C31.4624 20.263 31.1491 20.5506 30.8582 20.8593C30.5796 21.1558 30.2843 21.4355 30.0057 21.7309C29.943 21.798 29.9061 21.8025 29.8379 21.7343C27.5018 19.3937 25.1635 17.0543 22.8229 14.7193C22.7357 14.6332 22.7737 14.5951 22.8375 14.5314C24.6992 12.6719 26.5597 10.8113 28.4214 8.95186C28.8611 8.51216 29.3019 8.07247 29.7405 7.63166C29.773 7.60033 29.8177 7.5746 29.8334 7.52202Z" fill="#BA8F52"/>
<path fill-rule="evenodd" clip-rule="evenodd" d="M21.307 28.2088C21.7813 28.267 21.9861 28.5254 21.9436 29.0132C21.5609 28.9237 21.1738 28.9069 20.7889 28.9674C20.2239 29.0569 19.7898 29.3198 19.5974 29.8904C19.5101 30.1488 19.4956 30.4162 19.5135 30.6858C19.5571 31.3236 19.9241 31.7756 20.5115 31.9076C20.8001 31.9725 21.0888 31.9546 21.3741 31.8785C21.6672 31.8002 21.9234 31.6514 22.1572 31.45C22.2568 31.7398 22.4571 31.8975 22.7401 31.9378C23.0512 31.9825 23.3555 31.9288 23.652 31.8326C23.7124 31.8125 23.7325 31.7722 23.7236 31.7084C23.699 31.5361 23.6744 31.3627 23.6598 31.1893C23.6497 31.073 23.6206 31.026 23.4864 31.0551C23.2973 31.0964 23.2011 31.0081 23.1877 30.8123C23.1832 30.7541 23.1832 30.6959 23.1832 30.6377C23.1832 30.5225 23.1833 30.4072 23.1833 30.292C23.1835 29.9463 23.1838 29.6006 23.1821 29.2549C23.181 28.9819 23.1597 28.7111 23.1082 28.4415C23.0008 27.8855 22.7122 27.4849 22.1449 27.3417C21.4032 27.1538 20.6715 27.2589 19.9476 27.4581C19.867 27.4805 19.8726 27.533 19.8838 27.5935C19.8998 27.6754 19.9153 27.7576 19.9309 27.8398C19.9536 27.9595 19.9763 28.0793 20.0002 28.1987C20.0368 28.3871 20.0382 28.3867 20.2176 28.3378L20.2228 28.3363C20.5775 28.2412 20.9355 28.1629 21.307 28.2088ZM21.953 30.2025C21.9528 30.2145 21.9525 30.2264 21.9525 30.2383C21.9525 30.2647 21.9515 30.2911 21.9506 30.3175C21.9482 30.3809 21.9459 30.4441 21.957 30.5057C21.9805 30.6534 21.9055 30.7395 21.7992 30.8167C21.6515 30.9241 21.4949 31.0047 21.3092 31.0114C21.0239 31.0215 20.8594 30.8928 20.7923 30.612C20.7587 30.4744 20.7587 30.3357 20.7833 30.1992C20.8471 29.8456 21.0899 29.6812 21.5173 29.6946C21.6616 29.6991 21.8216 29.7058 21.9245 29.7975C21.9778 29.8449 21.9684 29.9255 21.9589 30.0077C21.954 30.0498 21.9491 30.0923 21.9525 30.1309C21.954 30.1548 21.9535 30.1786 21.953 30.2025Z" fill="#020202"/>
<path fill-rule="evenodd" clip-rule="evenodd" d="M28.3275 29.8288H29.3747C29.4807 29.8288 29.5868 29.8285 29.6929 29.8282C29.9403 29.8275 30.1878 29.8268 30.4353 29.83C30.5259 29.8311 30.564 29.8042 30.564 29.7091V29.7091C30.5629 29.3869 30.5617 29.0647 30.5159 28.7447C30.3894 27.8631 29.9173 27.3585 29.0804 27.2634C28.1507 27.1582 27.3429 27.5632 27.0565 28.5791C26.8618 29.2705 26.8775 29.9687 27.0811 30.6568C27.2422 31.2016 27.5767 31.61 28.1227 31.8002C28.888 32.0665 29.6443 31.9837 30.385 31.6816C30.442 31.6581 30.4689 31.6245 30.4644 31.5596C30.4518 31.3703 30.4411 31.1805 30.4305 30.9908C30.4251 30.8947 30.4197 30.7986 30.414 30.7026C30.4096 30.6187 30.3749 30.5874 30.2932 30.6288C30.2294 30.6612 30.1646 30.6903 30.0997 30.7194C29.8345 30.8369 29.5593 30.8973 29.2695 30.9118C28.5322 30.9476 28.2659 30.4173 28.2301 29.906C28.2242 29.8264 28.2634 29.8274 28.31 29.8285C28.3157 29.8287 28.3216 29.8288 28.3275 29.8288ZM28.9291 29.0754C28.8852 29.0756 28.8413 29.0759 28.7974 29.0759C28.7534 29.0759 28.7094 29.0756 28.6655 29.0754C28.5484 29.0747 28.4315 29.074 28.3152 29.0781C28.2503 29.0792 28.2313 29.0602 28.2346 28.9953C28.2447 28.7973 28.2738 28.6037 28.3722 28.4292C28.4785 28.2401 28.643 28.1495 28.86 28.164C29.0704 28.1786 29.2024 28.3017 29.2773 28.4896C29.34 28.6485 29.3612 28.8163 29.3668 28.9875C29.3691 29.0569 29.3523 29.0804 29.2796 29.0781C29.1624 29.074 29.0459 29.0747 28.9291 29.0754Z" fill="#020202"/>
<path fill-rule="evenodd" clip-rule="evenodd" d="M45.4267 28.1286C45.4265 27.9614 45.4262 27.7942 45.4262 27.627C45.424 27.627 45.4229 27.627 45.4206 27.6281C45.4206 27.4748 45.4205 27.3216 45.4204 27.1683C45.4199 26.7085 45.4195 26.2486 45.4229 25.7888C45.424 25.6825 45.405 25.6389 45.2864 25.6434C45.0134 25.6523 44.7404 25.6501 44.4674 25.6434C44.3779 25.6411 44.332 25.6736 44.2862 25.7463C44.1416 25.9782 43.9972 26.2101 43.8529 26.4421C43.2555 27.402 42.6584 28.3615 42.0474 29.3131C41.8673 29.5939 41.7666 29.8691 41.7968 30.2003C41.8069 30.3077 41.827 30.3424 41.9389 30.3412C42.3372 30.339 42.7355 30.339 43.1338 30.339C43.5321 30.339 43.9304 30.339 44.3287 30.3368C44.4338 30.3356 44.4641 30.3636 44.4629 30.4699C44.4596 30.678 44.4599 30.8861 44.4601 31.0942C44.4604 31.3023 44.4607 31.5104 44.4573 31.7185C44.4562 31.8315 44.4775 31.8774 44.6028 31.8707C44.8265 31.8595 45.0503 31.8606 45.2741 31.8695C45.3871 31.874 45.4285 31.8505 45.4251 31.7252C45.4199 31.4877 45.4204 31.2501 45.4208 31.0126C45.4211 30.8384 45.4214 30.6642 45.4195 30.49C45.4184 30.3961 45.4441 30.3659 45.5392 30.3692C45.6413 30.3727 45.7434 30.372 45.8455 30.3712C45.9403 30.3706 46.0352 30.3699 46.13 30.3726C46.2139 30.3748 46.2385 30.3457 46.2362 30.2652C46.2318 30.0817 46.2307 29.8982 46.2362 29.7147C46.2385 29.623 46.2027 29.6017 46.1188 29.6039C46.0372 29.6059 45.9557 29.6053 45.8741 29.6046C45.7722 29.6038 45.6703 29.603 45.5683 29.6073C45.4587 29.6118 45.4229 29.5805 45.424 29.4663C45.4281 29.0204 45.4274 28.5745 45.4267 28.1286ZM44.472 26.7565C44.4739 26.7573 44.4757 26.7581 44.4775 26.7588V29.1721C44.4775 29.2094 44.4771 29.2467 44.4767 29.284C44.476 29.3586 44.4752 29.4331 44.4775 29.5077C44.4797 29.576 44.4517 29.6051 44.3835 29.6051C44.1855 29.6046 43.9876 29.6047 43.7898 29.6048C43.46 29.6048 43.1304 29.6049 42.8004 29.6028C42.6945 29.6019 42.7324 29.5498 42.7609 29.5107C42.7661 29.5035 42.771 29.4968 42.7747 29.4909C42.8888 29.3024 43.0037 29.1142 43.1187 28.926C43.2336 28.7377 43.3486 28.5495 43.4627 28.3609C43.5792 28.1685 43.695 27.9756 43.8108 27.7826C43.9543 27.5437 44.0977 27.3048 44.2425 27.0665C44.2881 26.9916 44.3374 26.9188 44.3868 26.8459C44.4089 26.8132 44.431 26.7805 44.4529 26.7476C44.4589 26.7511 44.4656 26.7539 44.472 26.7565Z" fill="#BA8F52"/>
<path d="M38.7671 31.1087C38.8499 31.1087 38.8969 31.1087 38.945 31.1087C39.7505 31.1087 40.5561 31.1099 41.3605 31.1065C41.4623 31.1065 41.5037 31.1278 41.4981 31.2385C41.4891 31.4075 41.4903 31.5786 41.4981 31.7487C41.5026 31.8449 41.4679 31.8684 41.3761 31.8684C40.7183 31.8651 40.0604 31.8662 39.4026 31.8662C38.7939 31.8662 38.1853 31.8639 37.5767 31.8684C37.4693 31.8695 37.4413 31.8438 37.429 31.7308C37.3898 31.3929 37.5051 31.1569 37.7624 30.9219C38.5444 30.2103 39.247 29.4216 39.8736 28.5679C40.1085 28.248 40.3066 27.9112 40.3614 27.5073C40.386 27.3193 40.3815 27.1325 40.3301 26.9501C40.2193 26.5552 39.8244 26.327 39.3869 26.3661C38.8834 26.4109 38.5332 26.666 38.2961 27.0945C38.2412 27.194 38.1954 27.2175 38.0913 27.1582C37.9168 27.0575 37.7367 26.968 37.5543 26.883C37.4715 26.8438 37.467 26.8047 37.5051 26.7297C37.8351 26.0763 38.3654 25.6892 39.0803 25.5628C39.5077 25.4867 39.9362 25.5035 40.348 25.6657C40.9644 25.9085 41.2978 26.3661 41.3661 27.0229C41.4243 27.5811 41.2665 28.0857 40.9767 28.55C40.6746 29.0334 40.2987 29.4585 39.9284 29.8915C39.5726 30.3088 39.1766 30.6858 38.7671 31.1087Z" fill="#BA8F52"/>
<path d="M24.2886 28.3352C24.2886 27.5342 24.2908 26.7342 24.2863 25.9331C24.2852 25.8134 24.3132 25.7664 24.443 25.7698C24.7697 25.7787 25.0964 25.7787 25.4219 25.7698C25.5495 25.7664 25.5797 25.8123 25.5786 25.9331C25.5752 27.4044 25.5763 28.8756 25.5763 30.348C25.5763 30.4375 25.5741 30.5259 25.5965 30.6142C25.6468 30.8134 25.752 30.8984 25.9601 30.8973C26.0955 30.8962 26.2264 30.8626 26.3494 30.8078C26.4445 30.7664 26.4893 30.7888 26.5038 30.8928C26.5396 31.1401 26.581 31.3873 26.6213 31.6335C26.6325 31.7028 26.6079 31.7386 26.543 31.7655C26.0832 31.9479 25.6077 32.0094 25.1232 31.9065C24.6455 31.8047 24.3803 31.4824 24.3132 30.9767C24.2875 30.7854 24.2875 30.593 24.2875 30.4017C24.2886 29.7136 24.2886 29.0244 24.2886 28.3352Z" fill="#020202"/>
<path d="M32.5264 27.7848C32.6349 27.674 32.7177 27.5733 32.8172 27.4916C33.1741 27.1985 33.6508 27.1683 33.9853 27.4055C34.067 27.4637 34.1028 27.5174 34.0703 27.627C33.9909 27.8966 33.9271 28.1708 33.8611 28.4437C33.8376 28.5422 33.8074 28.5836 33.6978 28.5232C33.3095 28.3106 32.8978 28.5042 32.6528 28.6988C32.6002 28.7413 32.617 28.7962 32.617 28.8465C32.6159 29.7953 32.6136 30.744 32.6192 31.6916C32.6203 31.827 32.5834 31.8695 32.4458 31.8662C32.1191 31.8572 31.7924 31.8595 31.4657 31.8662C31.3527 31.8684 31.3203 31.8304 31.3203 31.7185C31.3236 30.2998 31.3236 28.8823 31.3203 27.4637C31.3203 27.3596 31.346 27.3205 31.4557 27.3227C31.751 27.3294 32.0464 27.3283 32.3418 27.3227C32.4357 27.3216 32.4682 27.3585 32.476 27.4446C32.4872 27.5509 32.5073 27.655 32.5264 27.7848Z" fill="#020202"/>
<path d="M34.6253 29.5838C34.6253 28.8868 34.6297 28.1887 34.6219 27.4916C34.6208 27.3507 34.6655 27.3182 34.7976 27.3227C35.1231 27.3317 35.4498 27.3294 35.7765 27.3238C35.8828 27.3216 35.9153 27.3574 35.9153 27.4626C35.913 28.8846 35.913 30.3054 35.9153 31.7275C35.9153 31.8349 35.875 31.8673 35.7732 31.8662C35.4375 31.8617 35.103 31.8606 34.7674 31.8673C34.6521 31.8695 34.6241 31.8259 34.6241 31.7174C34.6275 31.0058 34.6253 30.2943 34.6253 29.5838Z" fill="#020202"/>
<path d="M35.2753 6.13244C35.5897 6.0765 35.8671 6.01049 36.1457 5.94448C36.7521 5.80128 37.1191 5.42759 37.2567 4.82344C37.3126 4.57954 37.3663 4.33564 37.4211 4.09174C37.4267 4.06712 37.4189 4.03691 37.4547 4.01901C37.514 4.27858 37.5767 4.53478 37.6326 4.79323C37.7691 5.42759 38.1551 5.81358 38.7872 5.95455C39.0535 6.01385 39.3186 6.07315 39.6028 6.13692C39.4182 6.17608 39.247 6.21076 39.0759 6.24768C38.8577 6.29579 38.6429 6.35397 38.4348 6.43788C38.0656 6.58668 37.8373 6.86191 37.7109 7.23335C37.5968 7.56899 37.5341 7.91583 37.4581 8.28168C37.3988 8.15861 37.3954 8.04001 37.3708 7.92925C37.3137 7.6764 37.2567 7.42467 37.1694 7.17965C37.0296 6.7903 36.761 6.53969 36.3739 6.40208C36.0696 6.29355 35.7541 6.23202 35.4397 6.16825C35.3939 6.16041 35.3513 6.14922 35.2753 6.13244Z" fill="#BA8F52"/>
<path d="M35.2563 26.8483C34.8166 26.8472 34.5425 26.5742 34.5414 26.139C34.5414 25.6904 34.8188 25.4185 35.2753 25.4218C35.7374 25.4252 35.9992 25.6892 35.9958 26.1491C35.9924 26.5854 35.7127 26.8494 35.2563 26.8483Z" fill="#020202"/>
<path d="M38.8678 7.79724C38.9562 8.10379 38.9618 8.41259 39.1844 8.63187C39.407 8.85116 39.7181 8.85563 40.0056 8.95409C39.284 8.98318 38.9148 9.3591 38.8823 10.0785C38.7816 9.78537 38.7783 9.46986 38.5545 9.24946C38.3319 9.03017 38.0242 9.01898 37.7199 8.94178C38.0186 8.85563 38.3285 8.85116 38.5512 8.63299C38.7749 8.41482 38.7805 8.10491 38.8678 7.79724Z" fill="#BA8F52"/>
</svg>
