<svg width="60" height="36" viewBox="0 0 60 36" fill="none" xmlns="http://www.w3.org/2000/svg">
<g id="logo / provider / xl">
<g id="Logo XL">
<g id="#00c89fff">
<path id="path6" d="M33.8288 4.36745C34.1391 4.16944 34.5182 3.99856 34.8908 4.1071C35.2215 4.23251 35.3359 4.61973 35.3279 4.94387C35.3293 8.98767 35.3286 13.0315 35.3279 17.0753C39.1531 17.0753 42.9784 17.0731 46.8036 17.076C47.1087 17.0745 47.4761 17.1772 47.5964 17.4896C47.7225 17.8607 47.5311 18.2384 47.3624 18.5618C46.3607 20.4055 45.3141 22.225 44.2522 24.0342C43.9369 24.4544 43.5211 24.846 42.9967 24.9729C42.5603 25.0778 42.1086 25.0741 41.6634 25.0807C40.394 25.0851 39.1252 25.0822 37.8558 25.0829C37.3036 25.0807 36.6824 25.1064 36.2468 25.4914C35.8845 25.8376 35.9292 26.3971 36.0708 26.8357C36.3795 27.7722 36.9684 28.5782 37.404 29.4545C36.9552 29.1538 36.521 28.8312 36.1067 28.485C34.8174 27.3446 33.6374 26.0781 32.6401 24.673C29.6486 20.5272 28.1012 15.4545 27.8196 10.3781C27.7705 9.26488 28.2259 8.04676 29.2218 7.46226C30.7582 6.43115 32.2939 5.40003 33.8288 4.36745Z" fill="#00C89F"/>
</g>
<g id="#002cbaff">
<path id="path9" d="M13.1192 12.4756C13.2777 12.1434 13.6773 12.0407 14.0154 12.0466C16.338 12.0473 18.6606 12.0466 20.9832 12.0473C21.3858 12.0554 21.8097 12.0715 22.1719 12.268C22.5408 12.4675 22.8188 12.7895 23.1011 13.0909C23.9489 14.0553 24.7945 15.0211 25.6415 15.9855C25.6899 16.0361 25.7765 16.149 25.8439 16.0515C26.3103 15.5462 26.7518 15.0174 27.2153 14.5085C27.6025 16.9755 28.5567 19.3318 29.8467 21.4616C31.4901 24.153 33.6499 26.5152 36.1067 28.485C36.521 28.8312 36.9552 29.1539 37.404 29.4545C37.6842 29.7604 37.9518 30.0786 38.221 30.394C38.4234 30.6287 38.5613 30.9682 38.4344 31.2711C38.2958 31.5718 37.9416 31.6942 37.6306 31.6898C35.2846 31.692 32.9385 31.6898 30.5932 31.6913C30.1994 31.6913 29.7865 31.6803 29.4272 31.4999C29.0502 31.3048 28.7605 30.9858 28.4767 30.6778C27.6429 29.7281 26.8083 28.7784 25.9767 27.8265C25.9136 27.7509 25.8373 27.6886 25.7559 27.635C24.8715 28.6251 24.0054 29.632 23.1239 30.625C22.8349 30.9462 22.5386 31.2777 22.1543 31.4874C21.7965 31.6752 21.3828 31.6913 20.9883 31.6913C18.64 31.6898 16.2918 31.692 13.9443 31.6906C13.6069 31.7001 13.2058 31.5564 13.0994 31.2051C12.9968 30.8465 13.2146 30.5135 13.4449 30.2612C15.8804 27.4605 18.3196 24.6627 20.7683 21.8737C18.3159 19.0495 15.8393 16.2466 13.3913 13.4187C13.1625 13.1708 12.988 12.8129 13.1192 12.4756Z" fill="#002CBA"/>
</g>
</g>
</g>
</svg>
