<svg width="60" height="36" viewBox="0 0 60 36" fill="none" xmlns="http://www.w3.org/2000/svg">
<path d="M4 12.6304L4 23.5167L55.8443 23.5192V12.6304L4 12.6304Z" fill="#FFCF01"/>
<path fill-rule="evenodd" clip-rule="evenodd" d="M34.3271 20.5218C34.7368 20.6786 35.4363 20.8145 36.1633 20.8145C37.8262 20.8145 38.7435 20.0825 38.7435 18.5498C38.7435 17.3006 37.8713 16.5909 36.5989 16.5909C36.3449 16.5909 36.0176 16.6432 35.8264 16.7119V14.7826H34.3271V20.5218ZM35.8264 17.6127C35.9442 17.5676 36.1268 17.5286 36.2988 17.5286C36.898 17.5286 37.2439 17.9382 37.2439 18.6572C37.2439 19.4145 36.8804 19.8443 36.2629 19.8443C36.09 19.8443 35.9173 19.8223 35.8264 19.7932V17.6127Z" fill="#231F20"/>
<path fill-rule="evenodd" clip-rule="evenodd" d="M38.934 19.4677C38.934 20.3401 39.6978 20.8144 41.2413 20.8144C42.024 20.8144 42.7789 20.6786 43.1517 20.522V18.0585C43.1517 16.9754 42.4791 16.5246 41.1442 16.5246C40.2488 16.5246 39.6425 16.7053 39.2065 16.8482L39.5713 17.6811C39.9243 17.5616 40.4874 17.4308 40.9601 17.4308C41.4699 17.4308 41.7413 17.5839 41.7413 17.9091V18.0684C40.2615 18.134 38.934 18.3852 38.934 19.4677ZM40.3246 19.4389C40.3246 18.9535 40.9341 18.8793 41.7413 18.8462V19.8903C41.6423 19.9228 41.4059 19.9528 41.1961 19.9528C40.6609 19.9528 40.3246 19.7706 40.3246 19.4389Z" fill="#231F20"/>
<path d="M46.4761 20.7234V18.0746C46.4761 17.733 46.284 17.5087 45.7485 17.5087C45.4688 17.5087 45.2216 17.613 45.2216 17.613V20.7234H43.7227V16.8482C44.2694 16.6728 44.9141 16.5246 45.767 16.5246C47.3031 16.5246 47.9753 17.0431 47.9753 17.9322V20.7234H46.4761Z" fill="#231F20"/>
<path d="M51.556 20.7234L50.0565 18.6868H50.0379V20.7234H48.5576V14.7825H50.0379V18.3938H50.0565L51.4103 16.6434H53.1004L51.5743 18.5436L53.2282 20.7234H51.556Z" fill="#231F20"/>
<path d="M31.5065 22.3544H29.9346L30.67 20.7234L28.8255 16.6434H30.4565L31.4517 19.5416L32.4368 16.6434H34.0691L31.5065 22.3544Z" fill="#231F20"/>
<path d="M23.7066 15.2441H21.9611L20.8087 18.6293L19.6547 15.2441H17.9092L17.1194 20.7234H18.5456L18.9998 16.9577L20.3363 20.7234H21.2805L22.617 16.9577L23.0717 20.7234H24.498L23.7066 15.2441Z" fill="#231F20"/>
<path fill-rule="evenodd" clip-rule="evenodd" d="M24.6876 19.4677C24.6876 20.3401 25.4499 20.8144 26.9956 20.8144C27.7764 20.8144 28.5319 20.6786 28.9035 20.522V18.0585C28.9035 16.9754 28.2318 16.5246 26.8956 16.5246C26.1318 16.5246 25.3958 16.7053 24.9593 16.8482L25.3234 17.6811C25.6773 17.5616 26.2407 17.4308 26.7137 17.4308C27.2226 17.4308 27.4952 17.5839 27.4952 17.9091V18.0684C26.0142 18.134 24.6876 18.3852 24.6876 19.4677ZM26.0773 19.4389C26.0773 18.9535 26.6862 18.8793 27.4952 18.8462V19.8903C27.394 19.9228 27.1583 19.9528 26.9501 19.9528C26.4139 19.9528 26.0773 19.7706 26.0773 19.4389Z" fill="#231F20"/>
<path fill-rule="evenodd" clip-rule="evenodd" d="M6.61484 17.9804C6.61484 15.459 8.65856 13.4168 11.1797 13.4168C13.7011 13.4168 15.7442 15.459 15.7442 17.9804C15.7442 20.5021 13.7011 22.5452 11.1797 22.5452C8.65856 22.5452 6.61484 20.5021 6.61484 17.9804ZM6.98206 17.9804C6.98206 20.2988 8.86151 22.1786 11.1797 22.1786C13.4993 22.1786 15.3779 20.2988 15.3779 17.9804C15.3779 15.6625 13.4993 13.7788 11.1797 13.7788C8.86151 13.7788 6.98206 15.6625 6.98206 17.9804Z" fill="#231F20"/>
<path d="M9.35877 17.7715C9.03207 17.6877 8.74466 18.0701 8.58502 18.3587C8.64071 17.9636 9.12612 17.3167 9.35877 17.7715Z" fill="#231F20"/>
<path d="M8.64062 17.776C8.75014 17.4011 9.00971 17.2634 9.14862 17.3742C8.9599 17.4326 8.82316 17.5443 8.64062 17.776Z" fill="#231F20"/>
<path d="M9.47448 18.3783C9.64278 18.2366 9.62545 18.0269 9.36465 17.9579C9.17191 17.909 8.7558 18.2577 8.71063 18.6416C8.87769 18.4281 9.35877 18.0349 9.47448 18.3783Z" fill="#231F20"/>
<path d="M12.0948 19.3781C12.1248 18.884 11.6446 18.6532 11.5525 18.1471C11.4624 17.6403 12.3018 16.8307 11.7718 16.0016C12.7729 16.809 11.9887 17.2879 12.4942 17.959C12.298 17.8996 12.1044 17.726 12.0456 17.6347C11.7644 18.0051 12.7355 18.5143 12.0948 19.3781Z" fill="#231F20"/>
<path d="M10.4833 15.3939C10.6014 15.3949 10.8056 15.4784 10.7224 15.5734C10.4449 15.8317 10.0696 15.7253 9.772 15.9879C9.89421 15.6628 10.4378 15.6164 10.4833 15.3939Z" fill="#231F20"/>
<path fill-rule="evenodd" clip-rule="evenodd" d="M10.9162 15.3914C11.3933 15.4499 11.4997 15.6287 11.3837 15.7599C11.3397 15.8114 11.2219 15.87 11.0943 15.9334C10.9439 16.0081 10.7799 16.0896 10.7077 16.1742C10.9857 16.1677 10.9249 16.2471 10.7894 16.4241C10.685 16.5603 10.5364 16.7544 10.4639 17.0116C10.3897 17.2734 9.80248 17.1917 9.71431 17.0571C9.86188 17.0865 10.3232 16.9863 10.5035 16.3647C10.5094 16.3493 10.4939 16.344 10.4831 16.3582C10.2557 16.6048 10.0868 16.6497 9.9912 16.5866C9.8888 16.6688 9.84239 16.7298 9.7502 16.8984C9.58221 16.7493 9.6577 16.6163 9.81826 16.4644C9.84023 16.4433 9.81455 16.4164 9.78578 16.4037C9.63913 16.34 9.60882 16.1349 9.75948 16.0578C9.71741 16.1881 9.86188 16.2664 9.98687 16.1531C10.0513 16.0951 10.1352 16.1076 10.2352 16.1225C10.3368 16.1376 10.455 16.1552 10.5864 16.1039C10.599 15.9136 10.7716 15.7988 10.909 15.7075C11.0732 15.5983 11.187 15.5227 10.9162 15.3914ZM10.0624 16.3684C10.0719 16.4347 10.1051 16.4851 10.1412 16.4851C10.1736 16.4857 10.204 16.448 10.2417 16.4013C10.2818 16.3516 10.3301 16.2917 10.398 16.2565C10.2974 16.2624 10.234 16.2598 10.1907 16.2581C10.1799 16.2576 10.1703 16.2573 10.1617 16.2571C10.2297 16.4316 10.11 16.4891 10.0624 16.3684Z" fill="#231F20"/>
<path d="M11.6319 15.4417C11.8698 15.5961 11.9821 15.6972 12.1374 15.8822C12.1668 15.6298 12.0239 15.1305 11.8114 15.0157C11.7201 14.9662 11.5883 15.3155 11.6319 15.4417Z" fill="#231F20"/>
<path d="M7.83154 17.4688C7.98499 17.0635 8.35872 16.5812 8.96509 16.2229C9.10493 15.861 9.05883 15.6166 10.5274 15.0464C10.5646 14.8305 10.5581 14.569 10.6193 14.569C10.6824 14.569 10.899 14.6674 11.054 14.8889C11.1183 14.884 11.175 14.8775 11.2142 14.8694C11.2408 14.7435 11.3287 14.3967 11.4438 14.2173C11.549 14.0524 11.7532 14.0347 12.0171 14.2529C12.2902 14.4753 12.483 14.5675 12.8576 15.0464C13.1744 15.1884 13.6697 15.3706 14.0985 15.8972C13.912 15.7725 13.7013 15.7267 13.5277 15.7081C13.8776 16.0141 14.1081 16.5206 13.9333 17.2603C13.864 16.5688 13.3557 16.2783 13.0451 16.0599C13.2134 16.6425 12.483 16.4401 12.2599 16.0017C12.3336 16.0253 12.41 16.0222 12.4561 15.9934C12.4307 15.1015 12.0124 14.5888 11.8259 14.436C11.5855 14.2365 11.4577 14.7151 11.3764 15.0727C11.351 15.1924 11.2483 15.2781 11.1183 15.2744C11.1474 15.2311 11.1796 15.1154 11.1845 15.0776C10.8158 15.1089 10.3993 15.3264 10.1438 15.4415C9.49443 15.7351 9.3317 15.8817 9.18815 16.3739C8.67366 16.5927 8.07997 17.1851 7.83154 17.4688Z" fill="#231F20"/>
<path d="M11.0712 17.3437C11.1436 17.4266 11.5715 18.0732 11.0755 18.8955C11.211 18.2907 10.8339 17.1318 10.4178 17.7252C10.7003 17.8468 10.7924 18.0772 10.7167 18.3018C10.6013 18.085 10.3077 17.8514 10.0165 17.9476C9.87144 17.9996 9.6787 18.0008 9.53484 17.7852C9.34736 17.5133 9.662 17.1723 9.12616 17.1995C9.7743 16.8713 9.58651 17.5089 9.89898 17.5872C10.2625 17.672 10.3052 17.4495 10.4305 17.3054C10.531 17.1825 10.7167 17.0906 10.9119 17.2212C11.005 16.9381 10.8692 16.4883 11.1346 16.2516C11.2327 16.1638 11.5445 16.1761 11.706 16.3027C11.4765 16.2999 11.2064 16.574 11.0712 17.3437Z" fill="#231F20"/>
<path fill-rule="evenodd" clip-rule="evenodd" d="M14.2837 19.1369C14.6243 18.4733 14.7168 17.3645 14.3864 16.213C15.5478 18.3137 14.4402 21.0019 11.9603 21.572C12.2563 21.1859 12.4942 20.6442 12.4649 20.4589C12.1425 20.6925 11.5101 20.7998 11.3657 20.7209C11.955 20.1876 11.8659 19.6239 11.5197 19.5806C11.1748 19.537 10.7732 20.066 10.8057 20.7902C10.7271 20.7554 10.6014 20.7431 10.458 20.7291C10.0701 20.6911 9.55263 20.6404 9.48961 20.0969C9.38225 19.9342 9.33554 19.6561 9.36957 19.5444C9.86821 19.8304 9.94723 19.5683 10.0329 19.2842C10.0924 19.0868 10.1552 18.8787 10.3642 18.8365C10.3088 18.6831 9.88251 18.3335 9.30893 18.9086C9.28233 19.0021 9.28882 19.3758 9.33399 19.5091C9.0701 19.4692 8.86282 19.2208 8.81517 19.1537C8.53488 19.1274 8.26356 19.0488 7.99904 18.3412C7.77846 18.198 7.66523 18.0538 7.58386 17.8933C7.58727 17.8561 7.61851 17.6792 7.78434 17.5285C7.78434 17.5285 7.72525 17.6835 7.76021 17.7491C8.05286 17.5142 8.17872 17.5801 8.29488 17.6409C8.35665 17.6732 8.41568 17.7041 8.49559 17.6875C8.49772 17.8216 8.43088 17.9346 8.36497 18.046C8.2969 18.1611 8.22982 18.2745 8.24066 18.4077C8.40494 18.8403 8.51539 18.886 8.83868 18.9346C8.97595 18.867 9.10479 18.7678 9.23502 18.6675C9.47228 18.4848 9.71419 18.2986 10.0202 18.293C10.4041 18.2899 10.8867 18.4761 10.9656 19.0067C11.0201 19.3888 10.208 19.9311 9.8887 19.8228C9.36462 20.3896 10.2411 20.5765 10.5325 20.4901C10.7413 19.5283 11.2558 19.2539 11.6596 19.3919C12.1091 19.5432 12.1688 20.113 11.8616 20.4338C12.1091 20.3747 12.4689 20.1814 12.5914 19.7198C12.6888 19.8222 12.7198 20.0691 12.7269 20.1551C12.9855 19.7764 12.9011 18.9541 12.6938 18.6379C12.8627 18.6531 13.0189 18.7184 13.1876 18.8601C13.3033 18.2531 12.9119 17.4939 12.7356 17.3645C12.8531 17.3537 13.0189 17.3645 13.2473 17.4728C13.2176 17.2922 13.1226 17.1436 13.0345 17.0058C12.9451 16.8661 12.8627 16.7373 12.8627 16.5973C12.9011 16.6731 12.9882 16.7328 13.0911 16.8033C13.339 16.9731 13.6785 17.2058 13.651 17.8778C13.5703 17.8029 13.3948 17.7259 13.3088 17.7135C13.5554 18.331 13.5387 18.9393 13.4094 19.3702C13.3559 19.2817 13.2711 19.1799 13.1876 19.1456C13.2711 19.4868 13.1647 20.4224 12.9311 20.7998C13.8712 20.1514 13.8578 19.2994 13.8465 18.577C13.839 18.0962 13.8323 17.6728 14.1083 17.4051C14.0205 17.8295 14.1158 18.2173 14.1974 18.5494C14.2522 18.7724 14.3008 18.9702 14.2837 19.1369ZM9.59139 19.9559C9.56014 19.9305 9.47445 19.8188 9.48249 19.6991C9.59139 19.7693 9.73927 19.8046 9.73927 19.8046C9.73927 19.8046 9.66935 19.9234 9.59139 19.9559ZM10.2429 19.2434C10.2638 19.2465 10.2837 19.254 10.3031 19.2613C10.3437 19.2766 10.3819 19.291 10.4214 19.2619C10.4787 19.2192 10.419 19.0469 10.3738 18.9891C10.4304 18.9795 10.6559 19.0021 10.6445 19.0825C10.6179 19.2975 10.4842 19.365 10.1619 19.5196C10.1965 19.4878 10.2058 19.4313 10.2166 19.3659C10.223 19.3271 10.2299 19.2852 10.2429 19.2434ZM9.15889 18.9123C9.10382 18.9179 8.98007 19.0033 8.95253 19.0698C8.9547 19.1936 9.20498 19.352 9.20498 19.352C9.20498 19.352 9.13692 19.0983 9.15889 18.9123ZM8.1296 18.2453C8.01173 18.163 7.82672 17.9703 7.80723 17.9004C7.83043 17.8741 7.92912 17.7683 8.05504 17.7321C8.146 17.7083 8.2057 17.7587 8.1924 17.7862C8.18714 17.7996 8.1707 17.8076 8.15142 17.817C8.12312 17.8307 8.0887 17.8474 8.07453 17.8886C8.04921 17.9612 8.09677 17.9996 8.13688 18.0321C8.1551 18.0468 8.17178 18.0603 8.17941 18.0752C8.19333 18.1058 8.2255 18.1844 8.1296 18.2453Z" fill="#231F20"/>
</svg>
