<svg width="60" height="36" viewBox="0 0 60 36" fill="none" xmlns="http://www.w3.org/2000/svg">
<path fill-rule="evenodd" clip-rule="evenodd" d="M42.4813 16.1849C42.4875 17.023 42.5499 17.8523 42.7646 18.628C42.9247 19.2068 43.1723 19.7577 43.5482 20.265C43.924 19.7577 44.1706 19.2068 44.3307 18.628C44.5454 17.8523 44.6079 17.023 44.614 16.1849L45.1223 16.1866L45.6308 16.1849C45.6384 17.4057 45.7161 18.6147 45.9842 19.7513C46.1962 20.6506 46.5293 21.5052 47.0442 22.2863C47.5589 21.5052 47.8913 20.6506 48.1031 19.7513C48.371 18.6149 48.4489 17.4058 48.4566 16.1849L48.9648 16.1866L49.4733 16.1849C49.4795 17.023 49.5419 17.8523 49.7566 18.628C49.9168 19.2068 50.1643 19.7577 50.5401 20.265C50.9159 19.7577 51.1626 19.2068 51.3228 18.628C51.5374 17.8523 51.5998 17.023 51.6061 16.1849L52.5805 16.1881C52.5741 17.0857 52.5057 17.9787 52.2703 18.8288C52.0286 19.7021 51.6128 20.5265 50.9141 21.259L50.5398 21.6513L50.1652 21.259C49.6985 20.7699 49.3593 20.2396 49.1127 19.6815C49.0956 19.762 49.0773 19.8423 49.0586 19.9221C48.7704 21.1445 48.2746 22.2984 47.4412 23.3246L47.044 23.8139L46.6462 23.3246C45.8125 22.2984 45.3169 21.1445 45.0288 19.9221C45.01 19.8426 44.9927 19.7624 44.9756 19.6823C44.729 20.24 44.3883 20.7703 43.9221 21.259L43.5479 21.6513L43.1732 21.259C42.4744 20.5262 42.0588 19.7021 41.817 18.8288C41.5818 17.9787 41.5133 17.0857 41.5068 16.1881L42.4813 16.1849Z" fill="#F9A11B"/>
<path fill-rule="evenodd" clip-rule="evenodd" d="M8.30115 25.4165V24.6089C7.84175 25.2157 7.16812 25.615 6.44135 25.615C5.77623 25.615 5.10052 25.428 4.6663 25.0144C4.23603 24.6047 4.04688 23.9723 4.04688 23.3351C4.04688 22.0521 5.119 21.0878 6.44135 21.033C7.05253 21.0078 7.7793 21.1411 8.30115 21.4686V21.413C8.32404 20.2281 7.61527 19.8162 7.00899 19.6449C6.36302 19.4626 5.55514 19.5333 4.56672 20.2472C4.64693 18.8602 6.08918 18.3175 7.62023 18.4542C8.44797 18.528 9.20961 18.9469 9.57674 19.5924C9.79703 19.9796 9.91365 20.4918 9.87652 21.187C9.87652 22.5913 9.87652 23.9952 9.87652 25.3992C9.35115 25.405 8.82596 25.4107 8.30115 25.4165ZM8.26993 22.5749C8.26993 23.0155 8.26993 23.4562 8.26993 23.8968C7.43101 24.6896 6.53764 24.5477 6.05454 24.0288C5.56699 23.5055 5.81397 22.521 6.46108 22.2444C7.03046 22.0011 8.13107 22.1132 8.26993 22.5749ZM26.8232 25.4165V24.6089C26.3632 25.2157 25.6887 25.615 24.9606 25.615C24.2945 25.615 23.618 25.428 23.183 25.0144C22.7518 24.6047 22.5624 23.9723 22.5624 23.3351C22.5624 22.0521 23.6362 21.0878 24.9606 21.033C25.5729 21.0078 26.3006 21.1411 26.8232 21.4686V21.413C26.8463 20.2281 26.1365 19.8162 25.5292 19.6449C24.8822 19.4626 24.073 19.5333 23.0833 20.2472C23.1633 18.8602 24.608 18.3175 26.1412 18.4542C26.9703 18.528 27.7331 18.9469 28.101 19.5924C28.3216 19.9796 28.4383 20.4918 28.401 21.187C28.401 22.5913 28.401 23.9952 28.401 25.3992C27.8749 25.405 27.3491 25.4107 26.8232 25.4165ZM26.7921 22.5749C26.7921 23.0155 26.7921 23.4562 26.7921 23.8968C25.9519 24.6896 25.0571 24.5477 24.5733 24.0288C24.0851 23.5055 24.3322 22.521 24.9803 22.2444C25.5508 22.0011 26.653 22.1132 26.7921 22.5749ZM10.7846 25.2892C10.7846 23.0803 10.7846 20.8715 10.7846 18.6623C11.3803 18.6623 11.9762 18.6623 12.5721 18.6623C12.558 19.0296 12.5439 19.3969 12.5298 19.7642C13.0581 19.04 13.7173 18.6487 14.7157 18.6627C15.9805 18.6804 16.6515 19.2915 16.7175 20.2249C16.7175 21.9214 16.7175 23.618 16.7175 25.3145C16.1605 25.3145 15.6037 25.3145 15.0469 25.3145C15.0469 23.87 15.0469 22.4255 15.0469 20.9807C15.0677 20.1547 14.6228 19.6805 13.8229 19.7336C13.1191 19.7803 12.6177 20.2528 12.5414 20.7917C12.5414 22.2992 12.5414 23.8069 12.5414 25.3147C11.9557 25.3062 11.3701 25.2976 10.7846 25.2892ZM29.3549 25.2892C29.3549 23.0803 29.3549 20.8715 29.3549 18.6623C29.9338 18.6623 30.5129 18.6623 31.092 18.6623C31.0783 19.0296 31.0644 19.3969 31.0508 19.7642C31.5643 19.04 32.2049 18.6487 33.175 18.6627C34.1434 18.6766 34.7533 19.0594 34.9997 19.6777C35.5026 19.0091 36.1301 18.6494 37.0607 18.6627C38.2897 18.6804 38.9417 19.2915 39.0059 20.2249C39.0059 21.9214 39.0059 23.618 39.0059 25.3145C38.4646 25.3145 37.9235 25.3145 37.3826 25.3145C37.3826 23.87 37.3826 22.4255 37.3826 20.9807C37.4027 20.1547 36.9704 19.6805 36.1932 19.7336C35.7149 19.7662 35.3321 20.0076 35.1201 20.3338V25.3145C34.5789 25.3145 34.0378 25.3145 33.4969 25.3145C33.4969 23.87 33.4969 22.4255 33.4969 20.9807C33.5169 20.1547 33.0847 19.6805 32.3075 19.7336C31.6235 19.7803 31.1362 20.2528 31.0622 20.7917C31.0622 22.2992 31.0622 23.8069 31.0622 25.3147C30.4931 25.3062 29.9238 25.2976 29.3549 25.2892ZM17.3724 18.8009H22.2851V20.1006H20.6847V25.365H18.9726V20.1006H17.3724V18.8009Z" fill="#006C64"/>
<path fill-rule="evenodd" clip-rule="evenodd" d="M42.4863 15.4205C42.5054 14.6901 42.5769 13.9707 42.7645 13.2922C42.9247 12.7135 43.1723 12.1625 43.5482 11.6551C43.924 12.1625 44.1706 12.7135 44.3307 13.2922C44.4989 13.9002 44.5734 14.541 44.6008 15.193C44.0769 15.2397 43.5526 15.2936 43.0275 15.3548C42.8472 15.3758 42.6668 15.3978 42.4863 15.4205ZM45.6412 15.1101C45.6704 14.1032 45.762 13.111 45.9843 12.169C46.1962 11.2698 46.5291 10.4149 47.0441 9.63395C47.5589 10.4149 47.8912 11.2698 48.1031 12.169C48.3264 13.116 48.4175 14.1136 48.4461 15.1265C47.9402 15.0888 47.4352 15.0578 46.9302 15.0344C46.5011 15.0543 46.0713 15.0797 45.6412 15.1101ZM49.485 15.2137C49.5118 14.5547 49.5866 13.9065 49.7566 13.2922C49.9167 12.7135 50.1643 12.1625 50.5401 11.6551C50.9159 12.1625 51.1625 12.7135 51.3227 13.2922C51.513 13.9797 51.5833 14.7092 51.6013 15.4494C51.3449 15.4162 51.089 15.3846 50.8329 15.3548C50.3832 15.3024 49.934 15.2554 49.485 15.2137ZM52.5787 15.584C52.5658 14.7364 52.4927 13.8948 52.2703 13.0915C52.0287 12.2181 51.6128 11.3938 50.9141 10.6612L50.5399 10.2689L50.1652 10.6612C49.6985 11.1504 49.3593 11.6808 49.1126 12.2388C49.0957 12.1582 49.0773 12.0779 49.0586 11.9982C48.7704 10.7758 48.2746 9.62182 47.4412 8.59573L47.044 8.10637L46.6462 8.59573C45.8125 9.62182 45.317 10.7758 45.0287 11.9982C45.01 12.0778 44.9927 12.1578 44.9755 12.238C44.7289 11.6803 44.3883 11.1499 43.9221 10.6612L43.5479 10.2689L43.1732 10.6612C42.4743 11.3939 42.0587 12.2181 41.8169 13.0915C41.5975 13.8844 41.5234 14.7148 41.5091 15.5513C40.6252 15.6766 39.7395 15.8211 38.8528 15.984C41.5582 15.8883 44.2516 15.8293 46.9302 15.8131C49.609 15.8293 52.3021 15.8883 55.0076 15.984C54.197 15.8351 53.3871 15.7016 52.5787 15.584Z" fill="#006C64"/>
</svg>
