<svg width="1280" height="832" viewBox="0 0 1280 832" fill="none" xmlns="http://www.w3.org/2000/svg">
<g clip-path="url(#clip0_629_19877)">
<rect width="1280" height="832" fill="url(#paint0_radial_629_19877)"/>
<g opacity="0.5" clip-path="url(#clip1_629_19877)">
<path d="M982.521 537.117L1507.83 11.8044L1350.71 -145.319L825.398 379.994L982.521 537.117Z" fill="#004D43"/>
<path d="M1333.42 953.267L879.275 499.293L1249.79 128.776L1703.77 582.92L1333.42 953.267Z" fill="url(#paint1_linear_629_19877)"/>
<path d="M265.054 540.521L-152.252 123.215L-246.261 217.224L171.045 634.53L265.054 540.521Z" fill="#004D43"/>
<path d="M861.592 517.208L773.376 428.992L718.226 484.142L806.442 572.358L861.592 517.208Z" fill="#00896D"/>
<path d="M304.898 417.089L144.999 257.19L51.3528 350.836L211.252 510.735L304.898 417.089Z" fill="#00896D"/>
<path d="M327.168 154.717L534.869 -52.9841H356.864L150.528 153.352L327.168 154.717Z" fill="#41BFA4"/>
<path d="M328.533 153.352L536.064 -54.3494H358.059L150.528 153.352H328.533Z" fill="url(#paint2_linear_629_19877)"/>
<path d="M328.533 153.352L536.064 361.053H358.059L150.528 153.352H328.533Z" fill="url(#paint3_linear_629_19877)"/>
<path d="M120.832 653.576L-86.6987 861.277H91.3066L299.008 653.576H120.832Z" fill="url(#paint4_linear_629_19877)"/>
<path d="M120.832 653.576L-86.6987 445.875L-85.5041 269.064L299.008 653.576H120.832Z" fill="url(#paint5_linear_629_19877)"/>
<path d="M1184.26 938.931C1273.89 938.931 1346.56 866.265 1346.56 776.627C1346.56 686.989 1273.89 614.323 1184.26 614.323C1094.62 614.323 1021.95 686.989 1021.95 776.627C1021.95 866.265 1094.62 938.931 1184.26 938.931Z" fill="url(#paint6_linear_629_19877)"/>
<path d="M1302.54 964.301C1399.38 867.46 1399.38 710.45 1302.54 613.609C1205.7 516.769 1048.69 516.769 951.845 613.609C855.005 710.45 855.005 867.46 951.845 964.301C1048.69 1061.14 1205.7 1061.14 1302.54 964.301Z" fill="#004D43"/>
<path d="M-53.9307 -2.80804L905.557 956.68" stroke="#99B7B3" stroke-opacity="0.5" stroke-width="1.70667" stroke-miterlimit="10"/>
<path d="M-238.933 338.696L65.536 643.165" stroke="#99B7B3" stroke-opacity="0.5" stroke-width="1.70667" stroke-miterlimit="10"/>
<path d="M-101.035 141.576L203.435 445.875" stroke="#99B7B3" stroke-opacity="0.5" stroke-width="1.70667" stroke-miterlimit="10"/>
<path d="M1089.54 -114.765L1393.83 189.704" stroke="#99B7B3" stroke-opacity="0.5" stroke-width="1.70667" stroke-miterlimit="10"/>
<path d="M1069.4 -94.6267L1373.7 209.843" stroke="#99B7B3" stroke-opacity="0.5" stroke-width="1.70667" stroke-miterlimit="10"/>
<path d="M1049.26 -74.488L1353.56 229.981" stroke="#99B7B3" stroke-opacity="0.5" stroke-width="1.70667" stroke-miterlimit="10"/>
<path d="M1028.95 -54.3494L1333.42 250.12" stroke="#99B7B3" stroke-opacity="0.5" stroke-width="1.70667" stroke-miterlimit="10"/>
<path d="M685.397 886.877L733.355 839.091L443.733 549.469L106.155 886.877H685.397Z" fill="url(#paint7_linear_629_19877)"/>
<path d="M651.947 362.76L443.392 154.035L915.285 -318.029L1124.01 -109.304L651.947 362.76Z" fill="url(#paint8_linear_629_19877)"/>
<path d="M1055.67 -109.318L847.02 -317.971L375.047 154.002L583.7 362.655L1055.67 -109.318Z" stroke="#99B7B3" stroke-opacity="0.5" stroke-width="1.70667" stroke-miterlimit="10"/>
<path d="M1703.94 671.178L1077.26 44.4951L566.064 555.689L1192.75 1182.37L1703.94 671.178Z" stroke="#99B7B3" stroke-opacity="0.5" stroke-width="1.70667" stroke-miterlimit="10"/>
<path d="M1135.1 1009.07C1250.29 1009.07 1343.66 915.702 1343.66 800.52C1343.66 685.338 1250.29 591.965 1135.1 591.965C1019.92 591.965 926.549 685.338 926.549 800.52C926.549 915.702 1019.92 1009.07 1135.1 1009.07Z" fill="url(#paint9_linear_629_19877)"/>
<path d="M546.475 372.488L850.944 676.957" stroke="#99B7B3" stroke-opacity="0.5" stroke-width="1.70667" stroke-miterlimit="10"/>
<path d="M440.661 -181.155L745.131 123.144" stroke="#99B7B3" stroke-opacity="0.5" stroke-width="1.70667" stroke-miterlimit="10"/>
<path d="M1157.63 340.744C1349.35 340.744 1504.77 185.326 1504.77 -6.39203C1504.77 -198.11 1349.35 -353.528 1157.63 -353.528C965.914 -353.528 810.496 -198.11 810.496 -6.39203C810.496 185.326 965.914 340.744 1157.63 340.744Z" stroke="#99B7B3" stroke-opacity="0.5" stroke-width="1.70667" stroke-miterlimit="10"/>
</g>
</g>
<defs>
<radialGradient id="paint0_radial_629_19877" cx="0" cy="0" r="1" gradientUnits="userSpaceOnUse" gradientTransform="translate(640 416) rotate(62.4805) scale(496.7 764.153)">
<stop stop-color="#003D35"/>
<stop offset="1" stop-color="#002E28"/>
</radialGradient>
<linearGradient id="paint1_linear_629_19877" x1="879.357" y1="541.075" x2="1703.79" y2="541.075" gradientUnits="userSpaceOnUse">
<stop stop-color="#00896D"/>
<stop offset="1" stop-color="#004436"/>
</linearGradient>
<linearGradient id="paint2_linear_629_19877" x1="150.456" y1="49.5508" x2="444.5" y2="50" gradientUnits="userSpaceOnUse">
<stop stop-color="#40C0A6"/>
<stop offset="1" stop-color="#004436"/>
</linearGradient>
<linearGradient id="paint3_linear_629_19877" x1="194.967" y1="108.858" x2="491.625" y2="405.516" gradientUnits="userSpaceOnUse">
<stop stop-color="#006752"/>
<stop offset="1" stop-color="#004436"/>
</linearGradient>
<linearGradient id="paint4_linear_629_19877" x1="-42.2459" y1="905.726" x2="254.412" y2="609.068" gradientUnits="userSpaceOnUse">
<stop offset="0.0228062" stop-color="#00896D"/>
<stop offset="1" stop-color="#004436"/>
</linearGradient>
<linearGradient id="paint5_linear_629_19877" x1="254.412" y1="698.09" x2="-57.0001" y2="386.5" gradientUnits="userSpaceOnUse">
<stop stop-color="#00AC89"/>
<stop offset="1" stop-color="#004436"/>
</linearGradient>
<linearGradient id="paint6_linear_629_19877" x1="1069.58" y1="661.847" x2="1299.03" y2="891.299" gradientUnits="userSpaceOnUse">
<stop stop-color="#3CD8A4"/>
<stop offset="0.2108" stop-color="#37C8A1"/>
<stop offset="0.4126" stop-color="#1EB998"/>
<stop offset="0.6673" stop-color="#37BFB5"/>
<stop offset="1" stop-color="#37D88C"/>
</linearGradient>
<linearGradient id="paint7_linear_629_19877" x1="419.722" y1="549.412" x2="419.723" y2="1236.19" gradientUnits="userSpaceOnUse">
<stop stop-color="#004D43"/>
<stop offset="1" stop-color="#001E1A"/>
</linearGradient>
<linearGradient id="paint8_linear_629_19877" x1="443.309" y1="22.3748" x2="1123.98" y2="22.3748" gradientUnits="userSpaceOnUse">
<stop stop-color="#006752"/>
<stop offset="1" stop-color="#004436"/>
</linearGradient>
<linearGradient id="paint9_linear_629_19877" x1="1020" y1="642.5" x2="1243.5" y2="875" gradientUnits="userSpaceOnUse">
<stop offset="0.121593" stop-color="#004436"/>
<stop offset="1" stop-color="#006752"/>
</linearGradient>
<clipPath id="clip0_629_19877">
<rect width="1280" height="832" fill="white"/>
</clipPath>
<clipPath id="clip1_629_19877">
<rect width="1280" height="853.333" fill="white" transform="translate(0 -11)"/>
</clipPath>
</defs>
</svg>
