<svg width="181" height="121" viewBox="0 0 181 121" fill="none" xmlns="http://www.w3.org/2000/svg">
<rect x="0.451172" y="0.25" width="180" height="120" rx="12" fill="white"/>
<rect x="0.5" y="0.5" width="179.902" height="119.5" rx="12.5" stroke="#EEEEEF"/>
<path d="M113.693 37.457C89.5021 31.136 67.8901 39.8171 59.0051 45.6521C58.4061 46.0454 57.963 46.6365 57.7538 47.3219C53.2483 62.0867 61.42 75.6947 67.2076 81.9485C68.0151 82.8209 69.2891 83.0185 70.382 82.5508C88.9066 74.6231 110.764 72.3492 122.426 72.1232C123.756 72.0975 124.537 70.3444 123.813 69.2287C119.028 61.8575 117.06 48.9906 116.526 41.0141C116.414 39.3443 115.312 37.8801 113.693 37.457Z" fill="#EEEEEF"/>
<path d="M113.693 38.4326C89.5021 32.1116 67.8901 40.7927 59.0051 46.6277C58.4061 47.021 57.963 47.6121 57.7538 48.2975C53.2483 63.0622 61.42 76.6703 67.2076 82.9241C68.0151 83.7965 69.2891 83.9941 70.382 83.5264C88.9066 75.5987 110.764 73.3248 122.426 73.0988C123.756 73.0731 124.537 71.3199 123.813 70.2043C119.028 62.8331 117.06 49.9662 116.526 41.9897C116.414 40.3199 115.312 38.8557 113.693 38.4326Z" fill="#939597"/>
<path d="M59.1387 45.8555C67.9833 40.047 89.5247 31.3945 113.631 37.6934C115.138 38.0873 116.177 39.4545 116.282 41.0303C116.55 45.0283 117.178 50.2524 118.338 55.4023C119.497 60.5479 121.193 65.6401 123.608 69.3613C123.916 69.835 123.912 70.4608 123.669 70.9814C123.427 71.501 122.971 71.8681 122.422 71.8789C110.744 72.1052 88.8508 74.3814 70.2861 82.3262C69.2762 82.7584 68.1157 82.5707 67.3867 81.7832C61.6228 75.5551 53.5194 62.0353 57.9873 47.3936C58.1798 46.7627 58.5873 46.2176 59.1387 45.8555Z" fill="#EEEEEF" stroke="#939597" stroke-width="0.487805"/>
<path d="M111.961 41.2587C90.0235 35.5799 70.3234 42.9032 62.0811 47.9268C61.3987 48.3428 60.9119 49.0049 60.7162 49.7798C57.4433 62.7381 63.8286 74.3111 68.8842 79.2948C69.2885 79.6934 69.8916 79.7852 70.4157 79.5671C88.6131 71.993 109.987 69.8692 119.772 69.9154C120.18 69.9173 120.421 69.4462 120.193 69.1073C115.694 62.4041 114.138 50.6809 113.753 43.4988C113.696 42.4416 112.986 41.524 111.961 41.2587Z" fill="#939597"/>
<path d="M111.961 40.2831C90.0235 34.6043 70.3234 41.9277 62.0811 46.9513C61.3987 47.3672 60.9119 48.0293 60.7162 48.8042C57.4433 61.7625 63.8286 73.3355 68.8842 78.3193C69.2885 78.7178 69.8916 78.8096 70.4157 78.5915C88.6131 71.0174 109.987 68.8936 119.772 68.9398C120.18 68.9418 120.421 68.4707 120.193 68.1317C115.694 61.4286 114.138 49.7054 113.753 42.5232C113.696 41.4661 112.986 40.5484 111.961 40.2831Z" fill="#BBBDC0" stroke="#939597" stroke-width="0.487805"/>
<circle cx="94.7435" cy="46.6289" r="3.41463" fill="#EEEEEF" stroke="#939597" stroke-width="0.487805"/>
<path d="M75.1099 50.6773L70.1464 70.9283C69.9115 71.887 71.1976 72.6691 72.0102 72.1088C81.3084 65.697 100.018 62.1885 110.693 63.4167C111.584 63.5192 112.241 62.4781 111.715 61.7508L104.269 51.4407C103.957 51.008 103.355 50.9068 102.918 51.2135L93.9857 57.485C92.9187 58.2341 91.5183 58.3104 90.3763 57.6814L76.5281 50.0549C75.9658 49.7452 75.2628 50.0537 75.1099 50.6773Z" fill="#EEEEEF" stroke="#939597" stroke-width="0.487805"/>
<g filter="url(#filter0_d_3495_2050)">
<mask id="path-10-inside-1_3495_2050" fill="white">
<path fill-rule="evenodd" clip-rule="evenodd" d="M108.453 62.1211C108.174 61.2273 109.045 60.4037 109.922 60.7324L114.359 62.3955C115.289 62.0705 116.288 61.8925 117.329 61.8925C122.3 61.8925 126.329 65.9221 126.329 70.8925C126.329 75.8631 122.3 79.8925 117.329 79.8925C112.359 79.8925 108.329 75.8631 108.329 70.8925C108.329 69.1376 108.832 67.5005 109.701 66.1162L108.453 62.1211Z"/>
</mask>
<path fill-rule="evenodd" clip-rule="evenodd" d="M108.453 62.1211C108.174 61.2273 109.045 60.4037 109.922 60.7324L114.359 62.3955C115.289 62.0705 116.288 61.8925 117.329 61.8925C122.3 61.8925 126.329 65.9221 126.329 70.8925C126.329 75.8631 122.3 79.8925 117.329 79.8925C112.359 79.8925 108.329 75.8631 108.329 70.8925C108.329 69.1376 108.832 67.5005 109.701 66.1162L108.453 62.1211Z" fill="#EEEEEF"/>
<path d="M108.453 62.1211L107.916 62.2887L107.916 62.2888L108.453 62.1211ZM109.922 60.7324L109.724 61.2591L109.724 61.2591L109.922 60.7324ZM114.359 62.3955L114.162 62.9222L114.353 62.9937L114.545 62.9265L114.359 62.3955ZM126.329 70.8925H126.892V70.8925L126.329 70.8925ZM108.329 70.8925L107.767 70.8925V70.8925H108.329ZM109.701 66.1162L110.178 66.4152L110.315 66.1957L110.238 65.9484L109.701 66.1162ZM108.453 62.1211L108.99 61.9534C108.851 61.5066 109.286 61.0947 109.724 61.2591L109.922 60.7324L110.119 60.2057C108.804 59.7127 107.498 60.9481 107.916 62.2887L108.453 62.1211ZM109.922 60.7324L109.724 61.2591L114.162 62.9222L114.359 62.3955L114.557 61.8687L110.119 60.2057L109.922 60.7324ZM114.359 62.3955L114.545 62.9265C115.416 62.6219 116.353 62.455 117.329 62.455V61.8925V61.33C116.224 61.33 115.162 61.5191 114.174 61.8645L114.359 62.3955ZM117.329 61.8925V62.455C121.989 62.455 125.766 66.2327 125.767 70.8926L126.329 70.8925L126.892 70.8925C126.891 65.6115 122.61 61.33 117.329 61.33V61.8925ZM126.329 70.8925H125.767C125.767 75.5524 121.989 79.33 117.329 79.33V79.8925V80.455C122.61 80.455 126.892 76.1738 126.892 70.8925H126.329ZM117.329 79.8925V79.33C112.669 79.33 108.892 75.5524 108.892 70.8925H108.329H107.767C107.767 76.1738 112.048 80.455 117.329 80.455V79.8925ZM108.329 70.8925L108.892 70.8926C108.892 69.2467 109.363 67.7128 110.178 66.4152L109.701 66.1162L109.225 65.8172C108.302 67.2883 107.767 69.0285 107.767 70.8925L108.329 70.8925ZM109.701 66.1162L110.238 65.9484L108.99 61.9533L108.453 62.1211L107.916 62.2888L109.164 66.2839L109.701 66.1162Z" fill="#939597" mask="url(#path-10-inside-1_3495_2050)"/>
</g>
<path d="M117.073 72.4499C116.875 72.4499 116.718 72.3869 116.601 72.2609C116.493 72.1259 116.439 71.9459 116.439 71.7209C116.439 71.4599 116.47 71.2169 116.533 70.9919C116.596 70.7579 116.695 70.5239 116.83 70.2899C116.974 70.0559 117.163 69.8174 117.397 69.5744C117.559 69.3854 117.69 69.2234 117.789 69.0884C117.897 68.9444 117.969 68.8094 118.005 68.6834C118.05 68.5484 118.072 68.4134 118.072 68.2784C118.072 68.0264 117.978 67.8284 117.789 67.6844C117.609 67.5404 117.348 67.4684 117.006 67.4684C116.682 67.4684 116.38 67.5089 116.101 67.5899C115.831 67.6709 115.566 67.7879 115.305 67.9409C115.071 68.0669 114.859 68.1164 114.67 68.0894C114.49 68.0534 114.346 67.9724 114.238 67.8464C114.13 67.7114 114.067 67.5539 114.049 67.3739C114.031 67.1939 114.072 67.0184 114.171 66.8474C114.27 66.6674 114.436 66.5099 114.67 66.3749C115.039 66.1589 115.449 65.9969 115.899 65.8889C116.349 65.7809 116.767 65.7269 117.154 65.7269C117.748 65.7269 118.27 65.8259 118.72 66.0239C119.17 66.2219 119.517 66.4919 119.76 66.8339C120.012 67.1759 120.138 67.5764 120.138 68.0354C120.138 68.3144 120.097 68.5754 120.016 68.8184C119.935 69.0614 119.805 69.3044 119.625 69.5474C119.445 69.7814 119.197 70.0289 118.882 70.2899C118.603 70.5239 118.383 70.7354 118.221 70.9244C118.059 71.1044 117.942 71.2799 117.87 71.4509C117.798 71.6129 117.748 71.7884 117.721 71.9774C117.694 72.1124 117.627 72.2249 117.519 72.3149C117.42 72.4049 117.271 72.4499 117.073 72.4499ZM117.046 75.4604C116.686 75.4604 116.398 75.3524 116.182 75.1364C115.975 74.9204 115.872 74.6414 115.872 74.2994C115.872 73.9664 115.975 73.6964 116.182 73.4894C116.398 73.2734 116.686 73.1654 117.046 73.1654C117.406 73.1654 117.685 73.2734 117.883 73.4894C118.09 73.6964 118.194 73.9664 118.194 74.2994C118.194 74.6414 118.09 74.9204 117.883 75.1364C117.685 75.3524 117.406 75.4604 117.046 75.4604Z" fill="#939597"/>
<defs>
<filter id="filter0_d_3495_2050" x="108.329" y="60.6586" width="18" height="20.359" filterUnits="userSpaceOnUse" color-interpolation-filters="sRGB">
<feFlood flood-opacity="0" result="BackgroundImageFix"/>
<feColorMatrix in="SourceAlpha" type="matrix" values="0 0 0 0 0 0 0 0 0 0 0 0 0 0 0 0 0 0 127 0" result="hardAlpha"/>
<feOffset dy="1.125"/>
<feComposite in2="hardAlpha" operator="out"/>
<feColorMatrix type="matrix" values="0 0 0 0 0.576471 0 0 0 0 0.584314 0 0 0 0 0.592157 0 0 0 1 0"/>
<feBlend mode="normal" in2="BackgroundImageFix" result="effect1_dropShadow_3495_2050"/>
<feBlend mode="normal" in="SourceGraphic" in2="effect1_dropShadow_3495_2050" result="shape"/>
</filter>
</defs>
</svg>
