<svg width="64" height="64" viewBox="0 0 64 64" fill="none" xmlns="http://www.w3.org/2000/svg">
<circle opacity="0.05" cx="32" cy="32" r="32" fill="url(#paint0_linear_0_11551)"/>
<path fill-rule="evenodd" clip-rule="evenodd" d="M45.437 38H21.2177C20.5786 38 20.0214 38.3147 19.8618 38.7651L17.045 46.7248C16.8168 47.3711 17.4853 48 18.4002 48H42.6202C43.2586 48 43.8165 47.6853 43.9761 47.2344L46.7929 39.2752C47.0211 38.6289 46.3519 38 45.437 38Z" fill="#BFD730"/>
<path fill-rule="evenodd" clip-rule="evenodd" d="M37.8236 42.3337C38.054 41.6829 37.5713 41 36.881 41H26.8271C26.4035 41 26.0258 41.2669 25.8844 41.6662L25.1762 43.6662C24.9458 44.317 25.4285 45 26.1189 45H36.1729C36.5966 45 36.9742 44.7331 37.1156 44.3337L37.8236 42.3337Z" fill="#98AC26"/>
<path fill-rule="evenodd" clip-rule="evenodd" d="M24.4977 32.3597L24.3929 32.2185C23.2349 30.6495 22.4342 28.7595 22.1343 26.6914C22.0465 26.088 22 25.471 22 24.8435C22 19.4118 30 13 30 13H33C39.0748 13 44 18.3025 44 24.8435C44 25.471 43.9535 26.088 43.8657 26.6914C43.565 28.7595 42.7651 30.6495 41.6037 32.2185H41.6088L41.5049 32.3554C41.4974 32.3629 41.49 32.3727 41.4826 32.3825C41.4807 32.3849 41.4789 32.3874 41.477 32.3898L33.7509 42.6153C33.5581 42.8698 33.2767 42.998 33 43C32.719 43.002 30 43 30 43L24.5179 32.3881C24.5112 32.3777 24.5044 32.3674 24.4977 32.3597ZM33 30C36.3137 30 39 27.3137 39 24C39 20.6863 36.3137 18 33 18C29.6863 18 27 20.6863 27 24C27 27.3137 29.6863 30 33 30Z" fill="#00883E"/>
<path fill-rule="evenodd" clip-rule="evenodd" d="M21.3929 32.2185C20.2349 30.6495 19.4342 28.7595 19.1343 26.6914C19.0465 26.088 19 25.471 19 24.8435C19 18.3025 23.9252 13 30 13C36.0748 13 41 18.3025 41 24.8435C41 25.471 40.9535 26.088 40.8657 26.6914C40.565 28.7595 39.7651 30.6495 38.6037 32.2185H38.6088L38.5049 32.3554C38.4974 32.3629 38.49 32.3727 38.4826 32.3825C38.4807 32.3849 38.4789 32.3874 38.477 32.3898L30.7509 42.6153C30.3624 43.1282 29.6343 43.1282 29.2483 42.6153L21.5179 32.3881C21.5112 32.3777 21.5044 32.3674 21.4977 32.3597L21.3912 32.2185H21.3929ZM30 30C33.3137 30 36 27.3137 36 24C36 20.6863 33.3137 18 30 18C26.6863 18 24 20.6863 24 24C24 27.3137 26.6863 30 30 30Z" fill="#00AB4E"/>
<defs>
<linearGradient id="paint0_linear_0_11551" x1="0" y1="0" x2="0" y2="64" gradientUnits="userSpaceOnUse">
<stop stop-color="#00AB4E"/>
<stop offset="1" stop-color="#00AB4E"/>
</linearGradient>
</defs>
</svg>
