<svg width="20" height="20" viewBox="0 0 20 20" fill="none" xmlns="http://www.w3.org/2000/svg">
<path fill-rule="evenodd" clip-rule="evenodd" d="M18.3327 9.99935C18.3327 14.6017 14.6017 18.3327 9.99935 18.3327C5.39698 18.3327 1.66602 14.6017 1.66602 9.99935C1.66602 5.39698 5.39698 1.66602 9.99935 1.66602C14.6017 1.66602 18.3327 5.39698 18.3327 9.99935ZM6.86279 6.86279C7.10973 6.61586 7.50106 6.60133 7.76498 6.81921L7.81291 6.86279L10.2771 9.32701L12.7413 6.86279L12.7893 6.81921C13.0532 6.60133 13.4445 6.61586 13.6915 6.86279C13.9538 7.12516 13.9538 7.55054 13.6915 7.81291L11.2272 10.2771L13.6915 12.7413C13.9538 13.0037 13.9538 13.4291 13.6915 13.6915C13.4445 13.9384 13.0532 13.9529 12.7893 13.735L12.7413 13.6915L10.2771 11.2272L7.8129 13.6915L7.76498 13.735C7.50105 13.9529 7.10972 13.9384 6.86278 13.6915C6.60042 13.4291 6.60042 13.0037 6.86278 12.7413L9.32701 10.2771L6.86279 7.81291C6.60042 7.55054 6.60042 7.12516 6.86279 6.86279Z" fill="#58585B"/>
</svg>
