<svg width="48" height="48" viewBox="0 0 48 48" fill="none" xmlns="http://www.w3.org/2000/svg">
<path fill-rule="evenodd" clip-rule="evenodd" d="M38.3398 32.8223C36.3062 33.0592 11.6938 33.0592 9.66183 32.8223C8.59145 32.6982 7.84746 31.8198 8.02666 30.877C8.26506 29.6327 8.74025 27.5181 9.69863 24.0497C10.825 19.9689 11.6186 18.0316 12.0794 17.129C12.3322 16.6342 12.8266 16.278 13.4282 16.1716C14.7114 15.9428 33.2886 15.9428 34.5718 16.1716C35.1734 16.278 35.6678 16.6342 35.9206 17.129C36.3814 18.0316 37.175 19.9689 38.3014 24.0497C39.2597 27.5181 39.7365 29.6327 39.9733 30.877C40.1525 31.8198 39.4085 32.6982 38.3398 32.8223Z" fill="#CC9D3F"/>
<mask id="mask0_344_10315" style="mask-type:alpha" maskUnits="userSpaceOnUse" x="8" y="16" width="32" height="17">
<path fill-rule="evenodd" clip-rule="evenodd" d="M38.3398 32.8223C36.3062 33.0592 11.6938 33.0592 9.66183 32.8223C8.59145 32.6982 7.84746 31.8198 8.02666 30.877C8.26506 29.6327 8.74025 27.5181 9.69863 24.0497C10.825 19.9689 11.6186 18.0316 12.0794 17.129C12.3322 16.6342 12.8266 16.278 13.4282 16.1716C14.7114 15.9428 33.2886 15.9428 34.5718 16.1716C35.1734 16.278 35.6678 16.6342 35.9206 17.129C36.3814 18.0316 37.175 19.9689 38.3014 24.0497C39.2597 27.5181 39.7365 29.6327 39.9733 30.877C40.1525 31.8198 39.4085 32.6982 38.3398 32.8223Z" fill="white"/>
</mask>
<g mask="url(#mask0_344_10315)">
<path fill-rule="evenodd" clip-rule="evenodd" d="M35.3398 31.8223C33.3062 32.0592 8.6938 32.0592 6.66183 31.8223C5.59145 31.6982 4.84746 30.8198 5.02666 29.877C5.26506 28.6327 5.74025 26.5181 6.69863 23.0497C7.82501 18.9689 8.6186 17.0316 9.07939 16.129C9.33219 15.6342 9.82658 15.278 10.4282 15.1716C11.7114 14.9428 30.2886 14.9428 31.5718 15.1716C32.1734 15.278 32.6678 15.6342 32.9206 16.129C33.3814 17.0316 34.175 18.9689 35.3014 23.0497C36.2597 26.5181 36.7365 28.6327 36.9733 29.877C37.1525 30.8198 36.4085 31.6982 35.3398 31.8223Z" fill="#FFC54F"/>
</g>
<path d="M42.5 35C42.5 39.1425 39.1425 42.5 35 42.5C30.8575 42.5 27.5 39.1425 27.5 35C27.5 30.8575 30.8575 27.5 35 27.5C39.1425 27.5 42.5 30.8575 42.5 35Z" fill="#E07E26" stroke="white"/>
<path fill-rule="evenodd" clip-rule="evenodd" d="M31.8455 34.909V37.0763H30.7V31.5H33.1099C33.7248 31.5 34.1897 31.6437 34.5046 31.9311C34.8194 32.2185 34.9769 32.6337 34.9769 33.1768C34.9769 33.5987 34.8665 33.952 34.6459 34.2367C34.4252 34.5215 34.1141 34.7087 33.7124 34.7983C33.9851 34.8721 34.2157 35.0804 34.4041 35.4232L35.2521 37.0763H33.9876L33.0802 35.2966C33.0058 35.1595 32.9165 35.0606 32.8124 35C32.7083 34.9394 32.5769 34.909 32.4182 34.909H31.8455ZM31.8306 33.9757H32.9389C33.2711 33.9757 33.5116 33.9137 33.6603 33.7898C33.8091 33.6659 33.8835 33.4721 33.8835 33.2085C33.8835 32.9395 33.8091 32.7444 33.6603 32.6232C33.5116 32.5019 33.2711 32.4412 32.9389 32.4412H31.8306V33.9757ZM36.9479 38.5V36.5226C37.057 36.7177 37.212 36.8693 37.4128 36.9774C37.6136 37.0855 37.838 37.1395 38.086 37.1395C38.4033 37.1395 38.6835 37.0578 38.9265 36.8944C39.1694 36.7309 39.3591 36.4976 39.4955 36.1944C39.6318 35.8911 39.7 35.5392 39.7 35.1384C39.7 34.7377 39.6318 34.3831 39.4955 34.0746C39.3591 33.7661 39.1682 33.5262 38.9227 33.3548C38.6773 33.1834 38.3984 33.0977 38.086 33.0977C37.8331 33.0977 37.605 33.1544 37.4017 33.2678C37.1984 33.3812 37.0422 33.538 36.9331 33.7384V33.1927H35.8248V38.5H36.9479ZM37.1488 35.9412C37.2926 36.1337 37.4959 36.2299 37.7587 36.2299C38.0215 36.2299 38.2248 36.1363 38.3686 35.9492C38.5124 35.762 38.5843 35.4917 38.5843 35.1384C38.5843 34.7798 38.5124 34.5017 38.3686 34.304C38.2248 34.1062 38.0215 34.0073 37.7587 34.0073C37.4959 34.0073 37.2926 34.1036 37.1488 34.296C37.005 34.4885 36.9331 34.764 36.9331 35.1226C36.9331 35.4759 37.005 35.7488 37.1488 35.9412Z" fill="white"/>
</svg>
