<svg width="96" height="96" viewBox="0 0 96 96" fill="none" xmlns="http://www.w3.org/2000/svg">
    <mask id="path-1-inside-1_36229_201208" fill="white">
        <path d="M33.583 7.99219L29.3643 17.9277L23.6211 21.6445V20.8711L17.9922 24.6494V83.9658C17.9923 86.1881 19.6682 87.9893 21.7354 87.9893H22.7998C22.8186 87.9904 22.8373 87.9922 22.8564 87.9922H74.1094C76.2537 87.9922 77.9922 86.1902 77.9922 83.9678V12.0166C77.9922 9.79422 76.2537 7.99219 74.1094 7.99219H33.583Z"/>
    </mask>
    <path d="M33.583 7.99219L29.3643 17.9277L23.6211 21.6445V20.8711L17.9922 24.6494V83.9658C17.9923 86.1881 19.6682 87.9893 21.7354 87.9893H22.7998C22.8186 87.9904 22.8373 87.9922 22.8564 87.9922H74.1094C76.2537 87.9922 77.9922 86.1902 77.9922 83.9678V12.0166C77.9922 9.79422 76.2537 7.99219 74.1094 7.99219H33.583Z" fill="#EEEEEF"/>
    <path d="M33.583 7.99219L32.6625 7.60135L32.9212 6.99219H33.583V7.99219ZM29.3643 17.9277L30.2847 18.3186L30.1649 18.6007L29.9076 18.7673L29.3643 17.9277ZM23.6211 21.6445L24.1644 22.4841L22.6211 23.4828V21.6445H23.6211ZM23.6211 20.8711L23.0638 20.0408L24.6211 18.9955V20.8711H23.6211ZM17.9922 24.6494H16.9922V24.1163L17.4349 23.8191L17.9922 24.6494ZM17.9922 83.9658L16.9922 83.9659V83.9658H17.9922ZM22.7998 87.9893V86.9893H22.8314L22.8629 86.9912L22.7998 87.9893ZM22.8564 87.9922V88.9922H22.8564L22.8564 87.9922ZM33.583 7.99219L34.5035 8.38303L30.2847 18.3186L29.3643 17.9277L28.4438 17.5369L32.6625 7.60135L33.583 7.99219ZM29.3643 17.9277L29.9076 18.7673L24.1644 22.4841L23.6211 21.6445L23.0778 20.805L28.8209 17.0882L29.3643 17.9277ZM23.6211 21.6445H22.6211V20.8711H23.6211H24.6211V21.6445H23.6211ZM23.6211 20.8711L24.1784 21.7014L18.5495 25.4797L17.9922 24.6494L17.4349 23.8191L23.0638 20.0408L23.6211 20.8711ZM17.9922 24.6494H18.9922V83.9658H17.9922H16.9922V24.6494H17.9922ZM17.9922 83.9658L18.9922 83.9658C18.9923 85.705 20.2873 86.9893 21.7354 86.9893V87.9893V88.9893C19.0491 88.9893 16.9923 86.6712 16.9922 83.9659L17.9922 83.9658ZM21.7354 87.9893V86.9893H22.7998V87.9893V88.9893H21.7354V87.9893ZM22.7998 87.9893L22.8629 86.9912C22.8718 86.9918 22.8802 86.9924 22.884 86.9927C22.8891 86.993 22.8899 86.9931 22.8899 86.9931C22.8894 86.9931 22.8859 86.9928 22.8805 86.9926C22.875 86.9924 22.8668 86.9922 22.8565 86.9922L22.8564 87.9922L22.8564 88.9922C22.8175 88.9922 22.7851 88.9904 22.7662 88.9893C22.7568 88.9887 22.7481 88.9881 22.7438 88.9878C22.7411 88.9876 22.7397 88.9875 22.7383 88.9874C22.7371 88.9873 22.7367 88.9873 22.7367 88.9873L22.7998 87.9893ZM22.8564 87.9922V86.9922H74.1094V87.9922V88.9922H22.8564V87.9922ZM74.1094 87.9922V86.9922C75.6679 86.9922 76.9922 85.672 76.9922 83.9678H77.9922H78.9922C78.9922 86.7084 76.8395 88.9922 74.1094 88.9922V87.9922ZM77.9922 83.9678H76.9922V12.0166H77.9922H78.9922V83.9678H77.9922ZM77.9922 12.0166H76.9922C76.9922 10.3124 75.6679 8.99219 74.1094 8.99219V7.99219V6.99219C76.8395 6.99219 78.9922 9.27602 78.9922 12.0166H77.9922ZM74.1094 7.99219V8.99219H33.583V7.99219V6.99219H74.1094V7.99219Z" fill="#252528" mask="url(#path-1-inside-1_36229_201208)"/>
    <path d="M32.9814 19.8516L33.0752 9.26953L19.2461 24.0322L29.6973 23.1367L29.7188 23.1348H29.7393C31.525 23.1348 32.9813 21.6714 32.9814 19.8564V19.8516Z" fill="#BBBDC0" stroke="#252528"/>
    <rect x="27.9922" y="29.4805" width="40" height="3" rx="1.5" fill="#58585B"/>
    <rect x="27.9766" y="39.4805" width="40" height="3" rx="1.5" fill="#58585B"/>
    <rect x="27.9922" y="49.4805" width="40" height="3" rx="1.5" fill="#58585B"/>
    <rect x="12.5" y="57.9805" width="71" height="19" rx="3.5" fill="#5297D1" stroke="#252528"/>
    <path d="M38.852 71V62.54H44.564V63.992H40.712V66.056H44.3V67.508H40.712V71H38.852ZM45.4678 63.968V62.276H47.4238V63.968H45.4678ZM45.5398 71V65.108H47.3518V71H45.5398ZM50.9467 71.132C50.1867 71.132 49.6307 70.936 49.2787 70.544C48.9267 70.144 48.7507 69.552 48.7507 68.768V62.54H50.5627V68.696C50.5627 68.896 50.5947 69.072 50.6587 69.224C50.7227 69.368 50.8147 69.476 50.9347 69.548C51.0627 69.62 51.2227 69.656 51.4147 69.656C51.4947 69.656 51.5787 69.652 51.6667 69.644C51.7547 69.636 51.8387 69.62 51.9187 69.596L51.8947 71C51.7427 71.04 51.5867 71.072 51.4267 71.096C51.2747 71.12 51.1147 71.132 50.9467 71.132ZM55.7482 71.132C55.0522 71.132 54.4522 71.008 53.9482 70.76C53.4522 70.504 53.0682 70.148 52.7962 69.692C52.5322 69.228 52.4002 68.684 52.4002 68.06C52.4002 67.452 52.5282 66.92 52.7842 66.464C53.0402 66 53.3962 65.64 53.8522 65.384C54.3162 65.12 54.8402 64.988 55.4242 64.988C56.0002 64.988 56.4962 65.112 56.9122 65.36C57.3282 65.6 57.6482 65.944 57.8722 66.392C58.1042 66.84 58.2202 67.372 58.2202 67.988V68.444H53.8882V67.508H56.9122L56.7202 67.676C56.7202 67.188 56.6122 66.82 56.3962 66.572C56.1882 66.316 55.8882 66.188 55.4962 66.188C55.2002 66.188 54.9482 66.256 54.7402 66.392C54.5322 66.528 54.3722 66.724 54.2602 66.98C54.1482 67.236 54.0922 67.544 54.0922 67.904V68C54.0922 68.408 54.1522 68.744 54.2722 69.008C54.4002 69.264 54.5882 69.456 54.8362 69.584C55.0922 69.712 55.4082 69.776 55.7842 69.776C56.1042 69.776 56.4282 69.728 56.7562 69.632C57.0842 69.536 57.3802 69.388 57.6442 69.188L58.1242 70.4C57.8282 70.624 57.4642 70.804 57.0322 70.94C56.6082 71.068 56.1802 71.132 55.7482 71.132Z" fill="white"/>
</svg>