<svg width="48" height="48" viewBox="0 0 48 48" fill="none" xmlns="http://www.w3.org/2000/svg">
<g id="icon product/Sub-Menu/Pembayaran &#38; Topup/BPJS">
<g id="Group">
<path id="Rectangle" fill-rule="evenodd" clip-rule="evenodd" d="M8 12.386C8 11.5523 8.51715 10.8061 9.29775 10.5133L23.2978 5.26334C23.7505 5.09355 24.2495 5.09355 24.7022 5.26334L38.7022 10.5133C39.4829 10.8061 40 11.5523 40 12.386V26C40 26 39.279 32.4536 35 37C31.3991 40.826 26.0687 42.4617 24.4698 42.884C24.1617 42.9654 23.8442 42.9584 23.5385 42.8683C21.7203 42.3325 15.0047 40.1925 12 37C8.50721 33.2889 8 26 8 26V12.386Z" fill="#1868AB"/>
<path id="Rectangle_2" fill-rule="evenodd" clip-rule="evenodd" d="M11 14.8568C11 14.1843 11.4204 13.5836 12.0522 13.3534L23.4522 9.19959C23.806 9.07068 24.194 9.07068 24.5478 9.19959L35.9478 13.3534C36.5796 13.5836 37 14.1843 37 14.8568V25.5789C37 25.5789 36.4142 30.6739 32.9375 34.2632C30 37.2959 25.6459 38.5854 24.3662 38.9124C24.1259 38.9738 23.8788 38.9685 23.6404 38.9004C22.1859 38.4848 16.6999 36.7924 14.25 34.2632C11.4121 31.3334 11 25.5789 11 25.5789V14.8568Z" fill="#5297D1"/>
<path id="BPJS" fill-rule="evenodd" clip-rule="evenodd" d="M33.8728 26.5152C33.4546 26.8329 32.8708 26.9917 32.1214 26.9917C31.687 26.9917 31.2688 26.9323 30.867 26.8135C30.4651 26.6948 30.1311 26.5304 29.865 26.3204L30.2723 25.4006C30.8262 25.7928 31.448 25.989 32.1377 25.989C32.4961 25.989 32.7717 25.9296 32.9645 25.8108C33.1573 25.692 33.2537 25.5276 33.2537 25.3177C33.2537 25.1298 33.1654 24.9834 32.9889 24.8785C32.8125 24.7735 32.4988 24.6713 32.0481 24.5718C31.5431 24.4669 31.1398 24.3398 30.8384 24.1906C30.537 24.0414 30.3171 23.8577 30.1786 23.6395C30.0401 23.4213 29.9709 23.1519 29.9709 22.8315C29.9709 22.4779 30.0673 22.163 30.2601 21.8867C30.4529 21.6105 30.723 21.3936 31.0706 21.2362C31.4182 21.0787 31.82 21 32.2762 21C32.6835 21 33.0758 21.0608 33.4533 21.1823C33.8307 21.3039 34.1307 21.4669 34.3534 21.6713L33.9461 22.5912C33.4193 22.1989 32.8654 22.0028 32.2843 22.0028C31.9531 22.0028 31.6924 22.0677 31.5023 22.1975C31.3123 22.3273 31.2172 22.5055 31.2172 22.732C31.2172 22.8646 31.2539 22.9738 31.3272 23.0594C31.4005 23.145 31.5227 23.221 31.6938 23.2873C31.8648 23.3536 32.1078 23.4227 32.4228 23.4945C33.1614 23.6602 33.6922 23.8729 34.0153 24.1326C34.3384 24.3923 34.5 24.7514 34.5 25.2099C34.5 25.7624 34.2909 26.1975 33.8728 26.5152ZM16.2289 26.9171C16.8534 26.9171 17.3435 26.7735 17.6992 26.4862C18.0549 26.1989 18.2327 25.8094 18.2327 25.3177C18.2327 24.9586 18.1418 24.6561 17.9599 24.4102C17.7779 24.1644 17.5213 23.9917 17.1901 23.8923C17.4725 23.7873 17.6938 23.6202 17.854 23.3909C18.0142 23.1616 18.0943 22.895 18.0943 22.5912C18.0943 22.1215 17.9191 21.7514 17.5689 21.4807C17.2186 21.2099 16.7448 21.0746 16.1474 21.0746H13.5V26.9171H16.2289ZM15.9356 23.453H14.7382V22.0608H15.9356C16.2614 22.0608 16.5017 22.1174 16.6565 22.2307C16.8113 22.3439 16.8887 22.5221 16.8887 22.7652C16.8887 22.9972 16.8113 23.1699 16.6565 23.2831C16.5017 23.3964 16.2614 23.453 15.9356 23.453ZM14.7382 25.9309H16.0822C16.4189 25.9309 16.6633 25.8729 16.8154 25.7569C16.9674 25.6409 17.0434 25.453 17.0434 25.1934C17.0434 24.9337 16.9674 24.7431 16.8154 24.6215C16.6633 24.5 16.4189 24.4392 16.0822 24.4392H14.7382V25.9309ZM21.4015 26.9171V24.721H22.77C23.3945 24.721 23.8805 24.5608 24.2281 24.2403C24.5756 23.9199 24.7494 23.4724 24.7494 22.8978C24.7494 22.3232 24.5756 21.8757 24.2281 21.5552C23.8805 21.2348 23.3945 21.0746 22.77 21.0746H20.1307V26.9171H21.4015ZM21.4015 23.7431H22.6071C23.2424 23.7431 23.5601 23.4641 23.5601 22.9061C23.5601 22.6188 23.4814 22.4061 23.3239 22.268C23.1664 22.1298 22.9275 22.0608 22.6071 22.0608H21.4015V23.7431ZM25.4907 27L26.2483 26.9586C27.3832 26.8923 27.9507 26.3094 27.9507 25.2099V21.0746H26.6718V25.2265C26.6718 25.453 26.6202 25.6229 26.5171 25.7362C26.4139 25.8494 26.2537 25.9116 26.0365 25.9227L25.4174 25.9641L25.4907 27Z" fill="white"/>
</g>
</g>
</svg>
