<svg width="48" height="48" viewBox="0 0 48 48" fill="none" xmlns="http://www.w3.org/2000/svg">
<g id="icon product/Sub-Menu/Pembayaran &#38; Topup/Pdam">
<g id="Group">
<path id="Fill 1" fill-rule="evenodd" clip-rule="evenodd" d="M24 41C17.6581 41 12.5 35.8011 12.5 29.4091C12.5 25.1915 14.593 22.6709 16.8087 20.0004C18.0215 18.5384 19.2758 17.0254 20.2541 15.143C21.6034 12.5435 21.5375 10.2949 21.4976 8.95191C21.4731 8.13282 21.4577 7.64136 21.8058 7.27973C21.9515 7.12982 22.2597 7 22.4667 7C24.6747 7 35.5 19.9432 35.5 29.4091C35.5 35.8011 30.3419 41 24 41Z" fill="#1868AB"/>
<g id="Object">
<mask id="mask0_0_10988" style="mask-type:alpha" maskUnits="userSpaceOnUse" x="12" y="7" width="24" height="34">
<path id="Fill 1_2" fill-rule="evenodd" clip-rule="evenodd" d="M24 41C17.6581 41 12.5 35.8011 12.5 29.4091C12.5 25.1915 14.593 22.6709 16.8087 20.0004C18.0215 18.5384 19.2758 17.0254 20.2541 15.143C21.6034 12.5435 21.5375 10.2949 21.4976 8.95191C21.4731 8.13282 21.4577 7.64136 21.8058 7.27973C21.9515 7.12982 22.2597 7 22.4667 7C24.6747 7 35.5 19.9432 35.5 29.4091C35.5 35.8011 30.3419 41 24 41Z" fill="white"/>
</mask>
<g mask="url(#mask0_0_10988)">
<path id="Fill 1_3" fill-rule="evenodd" clip-rule="evenodd" d="M23.25 37C17.8732 37 13.5 32.6421 13.5 27.2841C13.5 23.7488 15.2745 21.6359 17.153 19.3974C18.1813 18.1719 19.2447 16.9036 20.0741 15.3257C21.2181 13.1468 21.1622 11.2619 21.1284 10.1362C21.1076 9.44957 21.0946 9.03761 21.3897 8.73448C21.5132 8.60882 21.7745 8.5 21.95 8.5C23.822 8.5 33 19.3494 33 27.2841C33 32.6421 28.6268 37 23.25 37Z" fill="#5297D1"/>
<circle id="Oval" cx="29" cy="34" r="3" fill="white"/>
</g>
</g>
<circle id="Oval_2" cx="14.5" cy="12.5" r="3.5" fill="#5297D1"/>
</g>
</g>
</svg>
