<svg width="48" height="48" viewBox="0 0 48 48" fill="none" xmlns="http://www.w3.org/2000/svg">
<g id="icon product/Sub-Menu/Gadai/1.Gadai">
<g id="Group 32">
<g id="Group 5">
<g id="Group 32_2">
<path id="Stroke 3" fill-rule="evenodd" clip-rule="evenodd" d="M12.4999 13L5.99988 31V32.5H18.9999V31L12.4999 13Z" stroke="#00662E" stroke-width="1.5" stroke-linecap="round" stroke-linejoin="round"/>
<path id="Fill 23" d="M19.9999 32.9636V31H4.99988V32.9636C4.99988 32.9636 4.99987 39 12.4999 39C19.9999 39 19.9999 32.9636 19.9999 32.9636Z" fill="#00883E"/>
<path id="Fill 24" d="M16.9999 32.9634V30.9998H4.99991C4.99991 30.9998 4.99982 30.4269 4.99991 32.9634C5 35.5 6.99991 39 11.4999 38.9998C16.7542 39.0001 16.9999 34 16.9999 32.9634Z" fill="#00AB4E"/>
</g>
</g>
<g id="Group 153">
<g id="Group 32_3">
<path id="Stroke 3_2" fill-rule="evenodd" clip-rule="evenodd" d="M35.4999 13L28.9999 31V32.5H41.9999V31L35.4999 13Z" stroke="#00662E" stroke-width="1.5" stroke-linecap="round" stroke-linejoin="round"/>
<path id="Fill 23_2" d="M42.9999 32.9636V31H27.9999V32.9636C27.9999 32.9636 27.9999 39 35.4999 39C42.9999 39 42.9999 32.9636 42.9999 32.9636Z" fill="#00883E"/>
<path id="Fill 24_2" d="M39.9999 32.9634V30.9998H27.9999C27.9999 30.9998 27.9998 30.4269 27.9999 32.9634C28 35.5 29.9999 39 34.4999 38.9998C39.7542 39.0001 39.9999 34 39.9999 32.9634Z" fill="#00AB4E"/>
</g>
</g>
<g id="Group 152">
<path id="Rectangle 115" d="M7.99988 14.6331C7.99988 14.2465 8.21805 13.8971 8.57097 13.7394C10.717 12.7799 18.4584 9.5 23.9999 9.5C29.5413 9.5 37.2828 12.7799 39.4288 13.7394C39.7817 13.8971 39.9999 14.2465 39.9999 14.6331V16.4C39.9999 16.9523 39.5522 17.4 38.9999 17.4H37.3027C37.1052 17.4 36.9135 17.3408 36.7458 17.2365C33.6728 15.3241 27.9122 14 23.9999 14C19.0579 14 12.2799 16.355 9.39301 17.451C8.72529 17.7045 7.99988 17.2118 7.99988 16.4975V14.6331Z" fill="#00883E"/>
<path id="Rectangle 116" d="M7.99988 14.6331C7.99988 14.2465 8.21805 13.8971 8.57097 13.7394C10.717 12.7799 18.4584 9.5 23.9999 9.5C29.5049 9.5 35.7425 12.7369 37.5102 13.7201C37.8173 13.891 37.9999 14.2151 37.9999 14.5665V16.3395C37.9999 17.093 37.1938 17.5916 36.5085 17.2785C33.9868 16.1265 28.696 14 23.9999 14C19.0579 14 12.2799 16.355 9.39301 17.451C8.72529 17.7045 7.99988 17.2118 7.99988 16.4975V14.6331Z" fill="#00AB4E"/>
</g>
<g id="Group 29">
<path id="Fill 21" fill-rule="evenodd" clip-rule="evenodd" d="M25.9999 11.4995C25.9999 12.881 24.8802 14 23.4999 14C22.1196 14 20.9999 12.881 20.9999 11.4995C20.9999 10.119 22.1196 9 23.4999 9C24.8802 9 25.9999 10.119 25.9999 11.4995Z" fill="#9BB20E"/>
<path id="Fill 21_2" fill-rule="evenodd" clip-rule="evenodd" d="M24.9999 11.4995C24.9999 12.881 23.8802 14 22.4999 14C21.1196 14 19.9999 12.881 19.9999 11.4995C19.9999 10.119 21.1196 9 22.4999 9C23.8802 9 24.9999 10.119 24.9999 11.4995Z" fill="#BFD730"/>
</g>
</g>
</g>
</svg>
