<svg width="48" height="48" viewBox="0 0 48 48" fill="none" xmlns="http://www.w3.org/2000/svg">
<g id="icon product/Sub-Menu/CGC">
<g id="Group 8">
<g id="illu-invite">
<path id="Fill 1" fill-rule="evenodd" clip-rule="evenodd" d="M21.4999 24.001C24.8141 24.001 27.4999 20.8668 27.4999 17.001C27.4999 13.1352 24.8141 10.001 21.4999 10.001C18.1856 10.001 15.4999 13.1352 15.4999 17.001C15.4999 20.8668 18.1856 24.001 21.4999 24.001Z" fill="#00883E"/>
<path id="Fill 1_2" fill-rule="evenodd" clip-rule="evenodd" d="M19.4999 24.001C22.8141 24.001 25.4999 20.8668 25.4999 17.001C25.4999 13.1352 22.8141 10.001 19.4999 10.001C16.1856 10.001 13.4999 13.1352 13.4999 17.001C13.4999 20.8668 16.1856 24.001 19.4999 24.001Z" fill="#00AB4E"/>
<path id="Fill 4" fill-rule="evenodd" clip-rule="evenodd" d="M21.9999 27.001C15.8357 27.001 10.5573 29.8788 8.37033 33.5897C7.35398 35.3154 8.54787 37.5423 10.5049 37.6855C12.7163 37.8472 16.3129 38.001 21.9999 38.001C27.6869 38.001 31.2834 37.8472 33.4949 37.6855C35.4519 37.5423 36.6458 35.3154 35.6294 33.5897C33.4424 29.8788 28.1641 27.001 21.9999 27.001Z" fill="#00883E"/>
<path id="Fill 4_2" fill-rule="evenodd" clip-rule="evenodd" d="M18.9999 27.001C12.8357 27.001 7.55733 29.8788 5.37033 33.5897C4.35398 35.3154 5.54787 37.5423 7.5049 37.6855C9.71632 37.8472 13.3129 38.001 18.9999 38.001C24.6869 38.001 28.2834 37.8472 30.4949 37.6855C32.4519 37.5423 33.6458 35.3154 32.6294 33.5897C30.4424 29.8788 25.1641 27.001 18.9999 27.001Z" fill="#00AB4E"/>
<path id="Fill 7" fill-rule="evenodd" clip-rule="evenodd" d="M41.3635 15.3646H38.6362V12.6373C38.6362 11.7335 37.9037 11.001 36.9999 11.001C36.0961 11.001 35.3635 11.7335 35.3635 12.6373V15.3646H32.6362C31.7324 15.3646 30.9999 16.0972 30.9999 17.001C30.9999 17.9048 31.7324 18.6373 32.6362 18.6373H35.3635V21.3646C35.3635 22.2684 36.0961 23.001 36.9999 23.001C37.9037 23.001 38.6362 22.2684 38.6362 21.3646V18.6373H41.3635C42.2673 18.6373 42.9999 17.9048 42.9999 17.001C42.9999 16.0972 42.2673 15.3646 41.3635 15.3646Z" fill="#00AB4E"/>
</g>
</g>
</g>
</svg>
