<svg width="51" height="55" viewBox="0 0 51 55" fill="none" xmlns="http://www.w3.org/2000/svg">
<path d="M32.9496 45.0605L15.507 45.1005C13.3172 45.1054 11.5216 43.3179 11.5165 41.1281L11.4537 13.6208C11.4487 11.431 13.2363 9.63538 15.4259 9.63026L32.8687 9.59036C35.0585 9.58549 36.8541 11.3731 36.859 13.5626L36.9218 41.07C36.927 43.2599 35.1394 45.0555 32.9496 45.0605Z" fill="white"/>
<path d="M15.4874 8.93848H37.4874C38.7024 8.93848 39.6874 9.92345 39.6874 11.1385V42.8185C39.6874 44.0335 38.7024 45.0185 37.4874 45.0185H17.6874C15.2573 45.0185 13.2874 43.0485 13.2874 40.6185V11.1385C13.2874 9.92345 14.2723 8.93848 15.4874 8.93848Z" fill="#63B5FA"/>
<path d="M13.7122 8.93848H35.7122C36.9272 8.93848 37.9122 9.92345 37.9122 11.1385V42.8185C37.9122 44.0335 36.9272 45.0185 35.7122 45.0185H15.9122C13.4822 45.0185 11.5122 43.0485 11.5122 40.6185V11.1385C11.5122 9.92345 12.4972 8.93848 13.7122 8.93848Z" fill="#C4E4FF"/>
<path d="M14.2223 21.8845L14.2424 21.7C14.1909 21.904 14.1364 22.1337 14.0794 22.3826L14.2223 21.8845Z" fill="#FFD3B1"/>
<path d="M29.4227 14.5581C29.8784 14.5606 30.2457 14.9319 30.2433 15.3876C30.241 15.8052 29.9288 16.1487 29.5258 16.2012L29.4138 16.2081L16.2059 16.1369C15.7502 16.1344 15.3829 15.763 15.3853 15.3074C15.3876 14.8898 15.6998 14.5463 16.1028 14.4938L16.2148 14.4869L29.4227 14.5581Z" fill="#63B5FA"/>
<path d="M23.0809 20.1531C23.5366 20.1555 23.9039 20.5269 23.9015 20.9825C23.8992 21.4002 23.587 21.7437 23.184 21.7961L23.072 21.803L16.4026 21.7671C15.947 21.7646 15.5797 21.3933 15.5821 20.9377C15.5844 20.52 15.8966 20.1765 16.2996 20.124L16.4115 20.1171L23.0809 20.1531Z" fill="#63B5FA"/>
<path d="M29.5197 25.7837C29.9753 25.7862 30.3427 26.1575 30.3402 26.6132C30.338 27.0308 30.0257 27.3743 29.6228 27.4268L29.5108 27.4337L16.3028 27.3624C15.8472 27.36 15.4798 26.9886 15.4823 26.533C15.4845 26.1153 15.7967 25.7718 16.1997 25.7194L16.3117 25.7125L29.5197 25.7837Z" fill="#63B5FA"/>
<path d="M33.5431 40.93L31.4376 40.9347C30.6391 40.9365 29.9903 40.2908 29.9885 39.4923L29.9837 37.3865C29.9818 36.588 30.6275 35.9395 31.4262 35.9377L33.5316 35.9327C34.3301 35.9309 34.9791 36.5767 34.981 37.3749L34.9855 39.4809C34.9874 40.2792 34.3416 40.9282 33.5431 40.93Z" fill="#F5FBFF"/>
<path d="M27.5442 43.9959V32.7322C27.5442 32.2372 27.1792 31.8359 26.7288 31.8359H4.15964C3.70932 31.8359 3.34424 32.2372 3.34424 32.7322V47.6597C3.34424 48.1543 3.70932 48.5559 4.15964 48.5559H26.7288C27.1792 48.5559 27.5442 48.1543 27.5442 47.6597V47.0362" fill="#946F25"/>
<path d="M26.2922 44.036V32.6537C26.2922 32.1535 25.9205 31.8359 25.462 31.8359H2.48245C2.02394 31.8359 1.65222 32.1535 1.65222 32.6537V47.7383C1.65222 48.2382 2.02394 48.5559 2.48245 48.5559H25.462C25.9205 48.5559 26.2922 48.2382 26.2922 47.7383V47.1082" fill="#ECCC8B"/>
<mask id="mask0_0_11695" style="mask-type:alpha" maskUnits="userSpaceOnUse" x="1" y="31" width="26" height="18">
<path fill-rule="evenodd" clip-rule="evenodd" d="M26.2922 44.036V32.6537C26.2922 32.1535 25.9205 31.8359 25.462 31.8359H2.48245C2.02394 31.8359 1.65222 32.1535 1.65222 32.6537V47.7383C1.65222 48.2382 2.02394 48.5559 2.48245 48.5559H25.462C25.9205 48.5559 26.2922 48.2382 26.2922 47.7383V47.1082" fill="white"/>
</mask>
<g mask="url(#mask0_0_11695)">
<rect x="1.30017" y="31.5723" width="27.28" height="5.28" fill="#C69C45"/>
</g>
<path d="M13.1376 35.0697H4.63884C4.3614 35.0697 4.13623 34.8331 4.13623 34.5417C4.13623 34.2502 4.3614 34.0137 4.63884 34.0137H13.1376C13.4151 34.0137 13.6402 34.2502 13.6402 34.5417C13.6402 34.8331 13.4151 35.0697 13.1376 35.0697Z" fill="#F1E1BD"/>
<path d="M6.23448 39.6167L4.36452 40.9845C4.01781 41.2381 3.8718 41.6848 4.00178 42.0942L4.75645 44.4714C4.88829 44.8867 5.27385 45.1689 5.70957 45.1689H7.92631C8.36051 45.1689 8.7451 44.8887 8.87818 44.4753L9.64419 42.0963C9.77631 41.686 9.63062 41.2372 9.2827 40.9827L7.41525 39.6167C7.06367 39.3595 6.58606 39.3595 6.23448 39.6167Z" fill="#F1E1BD"/>
<path d="M13.429 39.1846H21.9562C22.4228 39.1846 22.801 39.5628 22.801 40.0294C22.801 40.4959 22.4228 40.8742 21.9562 40.8742H13.429C12.9625 40.8742 12.5842 40.4959 12.5842 40.0294C12.5842 39.5628 12.9625 39.1846 13.429 39.1846Z" fill="#D8B56D"/>
<path d="M13.429 43.0742H21.877C22.3436 43.0742 22.7218 43.4524 22.7218 43.919C22.7218 44.3856 22.3436 44.7638 21.877 44.7638H13.429C12.9625 44.7638 12.5842 44.3856 12.5842 43.919C12.5842 43.4524 12.9625 43.0742 13.429 43.0742Z" fill="#D8B56D"/>
</svg>
