<svg width="48" height="48" viewBox="0 0 48 48" fill="none" xmlns="http://www.w3.org/2000/svg">
<path fill-rule="evenodd" clip-rule="evenodd" d="M18.5 10.3203C24.8513 10.3203 30 15.469 30 21.8203C30 28.1716 24.8513 33.3203 18.5 33.3203C12.1487 33.3203 7 28.1716 7 21.8203C7 15.469 12.1487 10.3203 18.5 10.3203ZM18.5 13.387C23.3693 13.387 27.3167 17.3343 27.3167 22.2037C27.3167 27.073 23.3693 31.0203 18.5 31.0203C13.6307 31.0203 9.68333 27.073 9.68333 22.2037C9.68333 17.3343 13.6307 13.387 18.5 13.387Z" fill="#CC9D3F"/>
<mask id="mask0_868_1146" style="mask-type:alpha" maskUnits="userSpaceOnUse" x="7" y="10" width="23" height="24">
<path fill-rule="evenodd" clip-rule="evenodd" d="M18.5 10.3203C24.8513 10.3203 30 15.469 30 21.8203C30 28.1716 24.8513 33.3203 18.5 33.3203C12.1487 33.3203 7 28.1716 7 21.8203C7 15.469 12.1487 10.3203 18.5 10.3203ZM18.5 13.387C23.3693 13.387 27.3167 17.3343 27.3167 22.2037C27.3167 27.073 23.3693 31.0203 18.5 31.0203C13.6307 31.0203 9.68333 27.073 9.68333 22.2037C9.68333 17.3343 13.6307 13.387 18.5 13.387Z" fill="white"/>
</mask>
<g mask="url(#mask0_868_1146)">
<path fill-rule="evenodd" clip-rule="evenodd" d="M16.9667 10.3203C23.3179 10.3203 28.4667 15.469 28.4667 21.8203C28.4667 28.1716 23.3179 33.3203 16.9667 33.3203C10.6154 33.3203 5.46667 28.1716 5.46667 21.8203C5.46667 15.469 10.6154 10.3203 16.9667 10.3203ZM17.35 13.387C22.0076 13.387 25.7833 17.3343 25.7833 22.2037C25.7833 27.073 22.0076 31.0203 17.35 31.0203C12.6924 31.0203 8.91667 27.073 8.91667 22.2037C8.91667 17.3343 12.6924 13.387 17.35 13.387Z" fill="#FFC54F"/>
</g>
<path fill-rule="evenodd" clip-rule="evenodd" d="M17.2202 7.3386C17.8048 7.56145 18.0435 8.26031 17.7174 8.79423L15.6007 12.2602C15.3366 12.6926 14.7908 12.8592 14.3302 12.6479L10.639 10.9543C10.0703 10.6934 9.87821 9.98029 10.2388 9.46903L11.0261 8.35258C11.1542 8.17104 11.339 8.03729 11.5515 7.97246L15.2956 6.82993C15.5081 6.76509 15.7361 6.77285 15.9436 6.85197L17.2202 7.3386Z" fill="#A3C7E6"/>
<mask id="mask1_868_1146" style="mask-type:alpha" maskUnits="userSpaceOnUse" x="10" y="6" width="8" height="7">
<path fill-rule="evenodd" clip-rule="evenodd" d="M17.2202 7.3386C17.8048 7.56145 18.0435 8.26031 17.7174 8.79423L15.6007 12.2602C15.3366 12.6926 14.7908 12.8592 14.3302 12.6479L10.639 10.9543C10.0703 10.6934 9.87821 9.98029 10.2388 9.46903L11.0261 8.35258C11.1542 8.17104 11.339 8.03729 11.5515 7.97246L15.2956 6.82993C15.5081 6.76509 15.7361 6.77285 15.9436 6.85197L17.2202 7.3386Z" fill="white"/>
</mask>
<g mask="url(#mask1_868_1146)">
<path fill-rule="evenodd" clip-rule="evenodd" d="M16.1415 6.92741C16.9664 7.24186 17.009 8.39291 16.2095 8.76739L15.89 8.91706L12.2236 10.0359L11.875 10.0901C11.0027 10.2258 10.3953 9.24708 10.9041 8.52566L11.0261 8.35258C11.1542 8.17104 11.339 8.03729 11.5515 7.97246L15.2956 6.82993C15.5081 6.76509 15.7361 6.77285 15.9436 6.85197L16.1415 6.92741Z" fill="#5297D1"/>
<path fill-rule="evenodd" clip-rule="evenodd" d="M17.2202 7.3386C17.8048 7.56145 18.0435 8.26031 17.7174 8.79423L15.1376 13.0183L15.5234 9.02895L14.1568 7.17752L15.6234 6.72989L17.2202 7.3386Z" fill="#5297D1"/>
<path fill-rule="evenodd" clip-rule="evenodd" d="M18.3446 7.76724L15.5234 9.02895L14.1568 7.17752L15.6234 6.72989L18.3446 7.76724Z" fill="#A3C7E6"/>
<path fill-rule="evenodd" clip-rule="evenodd" d="M12.5902 9.92419L15.1376 13.0185L10.6389 10.9544C10.0703 10.6935 9.87813 9.98047 10.2387 9.4692L11.2236 8.07267L12.6902 7.62513L12.5902 9.92419Z" fill="#5297D1"/>
<path fill-rule="evenodd" clip-rule="evenodd" d="M12.5902 9.92406L9.54517 10.4525L11.2236 8.07253L12.6902 7.625L12.5902 9.92406Z" fill="#A3C7E6"/>
</g>
<path d="M22.8404 29.8721C22.5067 30.0871 22.068 30.2706 21.8904 30.3354L22.2982 32.1566L23.5077 31.3735C23.1518 31.0213 22.9145 30.2258 22.8404 29.8721Z" fill="#CC9D3F"/>
<path fill-rule="evenodd" clip-rule="evenodd" d="M30.5 16.3203C36.8513 16.3203 42 21.469 42 27.8203C42 34.1716 36.8513 39.3203 30.5 39.3203C24.1487 39.3203 19 34.1716 19 27.8203C19 21.469 24.1487 16.3203 30.5 16.3203ZM30.5 19.387C35.3693 19.387 39.3167 23.3343 39.3167 28.2037C39.3167 33.073 35.3693 37.0203 30.5 37.0203C25.6307 37.0203 21.6833 33.073 21.6833 28.2037C21.6833 23.3343 25.6307 19.387 30.5 19.387Z" fill="#CC9D3F"/>
<mask id="mask2_868_1146" style="mask-type:alpha" maskUnits="userSpaceOnUse" x="19" y="16" width="23" height="24">
<path fill-rule="evenodd" clip-rule="evenodd" d="M30.5 16.3203C36.8513 16.3203 42 21.469 42 27.8203C42 34.1716 36.8513 39.3203 30.5 39.3203C24.1487 39.3203 19 34.1716 19 27.8203C19 21.469 24.1487 16.3203 30.5 16.3203ZM30.5 19.387C35.3693 19.387 39.3167 23.3343 39.3167 28.2037C39.3167 33.073 35.3693 37.0203 30.5 37.0203C25.6307 37.0203 21.6833 33.073 21.6833 28.2037C21.6833 23.3343 25.6307 19.387 30.5 19.387Z" fill="white"/>
</mask>
<g mask="url(#mask2_868_1146)">
<path fill-rule="evenodd" clip-rule="evenodd" d="M28.9667 16.3203C35.3179 16.3203 40.4667 21.469 40.4667 27.8203C40.4667 34.1716 35.3179 39.3203 28.9667 39.3203C22.6154 39.3203 17.4667 34.1716 17.4667 27.8203C17.4667 21.469 22.6154 16.3203 28.9667 16.3203ZM29.35 19.387C34.0076 19.387 37.7833 23.3343 37.7833 28.2037C37.7833 33.073 34.0076 37.0203 29.35 37.0203C24.6924 37.0203 20.9167 33.073 20.9167 28.2037C20.9167 23.3343 24.6924 19.387 29.35 19.387Z" fill="#FFC54F"/>
</g>
<g clip-path="url(#clip0_868_1146)">
<path d="M25.0775 17.6547L25.8359 17.2969L27.3633 19.7773L24.9976 21.0433C24.9976 21.0433 25.7173 20.5518 25.7173 19.3205C25.7173 18.0892 25.0775 17.6547 25.0775 17.6547Z" fill="#CC9D3F"/>
<path fill-rule="evenodd" clip-rule="evenodd" d="M18.5 10.3193C24.8513 10.3193 30 15.4681 30 21.8193C30 28.1706 24.8513 33.3193 18.5 33.3193C12.1487 33.3193 7 28.1706 7 21.8193C7 15.4681 12.1487 10.3193 18.5 10.3193ZM18.5 13.386C23.3693 13.386 27.3167 17.3334 27.3167 22.2027C27.3167 27.072 23.3693 31.0193 18.5 31.0193C13.6307 31.0193 9.68333 27.072 9.68333 22.2027C9.68333 17.3334 13.6307 13.386 18.5 13.386Z" fill="#CC9D3F"/>
<mask id="mask3_868_1146" style="mask-type:alpha" maskUnits="userSpaceOnUse" x="7" y="10" width="23" height="24">
<path fill-rule="evenodd" clip-rule="evenodd" d="M18.5 10.3193C24.8513 10.3193 30 15.4681 30 21.8193C30 28.1706 24.8513 33.3193 18.5 33.3193C12.1487 33.3193 7 28.1706 7 21.8193C7 15.4681 12.1487 10.3193 18.5 10.3193ZM18.5 13.386C23.3693 13.386 27.3167 17.3334 27.3167 22.2027C27.3167 27.072 23.3693 31.0193 18.5 31.0193C13.6307 31.0193 9.68333 27.072 9.68333 22.2027C9.68333 17.3334 13.6307 13.386 18.5 13.386Z" fill="white"/>
</mask>
<g mask="url(#mask3_868_1146)">
<path fill-rule="evenodd" clip-rule="evenodd" d="M16.9667 10.3193C23.3179 10.3193 28.4667 15.4681 28.4667 21.8193C28.4667 28.1706 23.3179 33.3193 16.9667 33.3193C10.6154 33.3193 5.46667 28.1706 5.46667 21.8193C5.46667 15.4681 10.6154 10.3193 16.9667 10.3193ZM17.35 13.386C22.0076 13.386 25.7833 17.3334 25.7833 22.2027C25.7833 27.072 22.0076 31.0193 17.35 31.0193C12.6924 31.0193 8.91667 27.072 8.91667 22.2027C8.91667 17.3334 12.6924 13.386 17.35 13.386Z" fill="#FFC54F"/>
</g>
</g>
<path fill-rule="evenodd" clip-rule="evenodd" d="M39.4146 15.8617C39.7437 16.3937 39.5089 17.0939 38.9256 17.3201L35.1391 18.7882C34.6666 18.9714 34.1318 18.7723 33.8943 18.3247L31.9902 14.7375C31.6968 14.1849 31.9772 13.5017 32.5742 13.3145L33.8778 12.9056C34.0897 12.8392 34.3178 12.8452 34.526 12.9227L38.1944 14.2887C38.4026 14.3662 38.579 14.5109 38.6959 14.6998L39.4146 15.8617Z" fill="#A3C7E6"/>
<mask id="mask4_868_1146" style="mask-type:alpha" maskUnits="userSpaceOnUse" x="31" y="12" width="9" height="7">
<path fill-rule="evenodd" clip-rule="evenodd" d="M39.4146 15.8617C39.7437 16.3937 39.5089 17.0939 38.9256 17.3201L35.1391 18.7882C34.6666 18.9714 34.1318 18.7723 33.8943 18.3247L31.9902 14.7375C31.6968 14.1849 31.9772 13.5017 32.5742 13.3145L33.8778 12.9056C34.0897 12.8392 34.3178 12.8452 34.526 12.9227L38.1944 14.2887C38.4026 14.3662 38.579 14.5109 38.6959 14.6998L39.4146 15.8617Z" fill="white"/>
</mask>
<g mask="url(#mask4_868_1146)">
<path fill-rule="evenodd" clip-rule="evenodd" d="M38.8073 14.8799C39.2717 15.6307 38.6065 16.571 37.7439 16.383L37.3992 16.3079L33.8068 14.9702L33.4969 14.8016C32.7215 14.3796 32.8333 13.2332 33.6757 12.969L33.8778 12.9056C34.0897 12.8392 34.3178 12.8452 34.526 12.9227L38.1944 14.2887C38.4026 14.3662 38.579 14.5109 38.6959 14.6998L38.8073 14.8799Z" fill="#5297D1"/>
<path fill-rule="evenodd" clip-rule="evenodd" d="M39.4146 15.8617C39.7437 16.3937 39.5089 17.0939 38.9256 17.3201L34.3108 19.1094L37.04 16.1741L37.0786 13.8733L38.5156 14.4083L39.4146 15.8617Z" fill="#5297D1"/>
<path fill-rule="evenodd" clip-rule="evenodd" d="M40.0476 16.8851L37.04 16.1741L37.0786 13.8733L38.5156 14.4083L40.0476 16.8851Z" fill="#A3C7E6"/>
<path fill-rule="evenodd" clip-rule="evenodd" d="M34.166 15.1038L34.3107 19.1091L31.9901 14.7373C31.6968 14.1847 31.9772 13.5015 32.5741 13.3142L34.2047 12.8029L35.6416 13.3379L34.166 15.1038Z" fill="#5297D1"/>
<path fill-rule="evenodd" clip-rule="evenodd" d="M34.1661 15.1037L31.426 13.6743L34.2048 12.8028L35.6417 13.3379L34.1661 15.1037Z" fill="#A3C7E6"/>
</g>
<defs>
<clipPath id="clip0_868_1146">
<rect width="8" height="8" fill="white" transform="translate(23 14)"/>
</clipPath>
</defs>
</svg>
