<svg width="24" height="24" viewBox="0 0 24 24" fill="none" xmlns="http://www.w3.org/2000/svg">
    <path d="M14.4619 2C14.6252 2.0001 14.7817 2.06253 14.8965 2.17188L19.8193 6.85938C19.9292 6.96395 20 7.11367 20 7.27344V20.2422C20 21.2113 19.1721 21.9998 18.1543 22H5.8457C4.82794 21.9998 4 21.2113 4 20.2422V3.75781C4 2.7887 4.82794 2.00023 5.8457 2H14.4619ZM5.8457 3.17188C5.50659 3.17211 5.23047 3.43487 5.23047 3.75781V20.2422C5.23047 20.5651 5.50659 20.8279 5.8457 20.8281H18.1543C18.4934 20.8279 18.7695 20.5651 18.7695 20.2422V7.85938H15.6924C14.6744 7.85938 13.8457 7.07082 13.8457 6.10156V3.17188H5.8457ZM13.2305 17.3125C13.5703 17.3125 13.8457 17.5748 13.8457 17.8984C13.8457 18.222 13.5703 18.4844 13.2305 18.4844H8.30762C7.9678 18.4843 7.69238 18.222 7.69238 17.8984C7.69238 17.5749 7.9678 17.3125 8.30762 17.3125H13.2305ZM15.6924 14.9688C16.0322 14.9688 16.3076 15.2311 16.3076 15.5547C16.3076 15.8783 16.0322 16.1406 15.6924 16.1406H8.30762C7.9678 16.1406 7.69238 15.8783 7.69238 15.5547C7.69238 15.2311 7.9678 14.9688 8.30762 14.9688H15.6924ZM15.6924 12.625C16.0322 12.625 16.3076 12.8874 16.3076 13.2109C16.3076 13.5345 16.0322 13.7968 15.6924 13.7969H8.30762C7.9678 13.7968 7.69238 13.5345 7.69238 13.2109C7.69238 12.8874 7.9678 12.625 8.30762 12.625H15.6924ZM15.0771 6.10156C15.0771 6.42465 15.3531 6.6875 15.6924 6.6875H17.8994L15.0771 4.00098V6.10156Z"
          fill="#58585B"/>
</svg>
