<svg width="48" height="48" viewBox="0 0 48 48" fill="none" xmlns="http://www.w3.org/2000/svg">
<g id="icon product/Sub-Menu/Pembayaran &#38; Topup/TV Kabel">
<g id="Group 17">
<path id="Stroke 1" d="M18 7.5L22.503 12.003C22.778 12.277 23.222 12.277 23.497 12.003L28 7.5" stroke="#1868AB" stroke-width="1.5" stroke-linecap="round"/>
<rect id="Rectangle" x="7" y="12" width="36" height="27" rx="4" fill="#1868AB"/>
<rect id="Rectangle_2" x="5" y="12" width="35" height="27" rx="4" fill="#5297D1"/>
<path id="Rectangle_3" fill-rule="evenodd" clip-rule="evenodd" d="M8.20146 18.0868C8.25363 17.0683 9.07303 16.2683 10.0922 16.233C12.6449 16.1446 17.5725 16 22.5 16C27.4275 16 32.3551 16.1446 34.9078 16.233C35.927 16.2683 36.7464 17.0683 36.7985 18.0868C36.8868 19.8104 37 22.5552 37 25.3C37 28.0448 36.8868 30.7896 36.7985 32.5132C36.7464 33.5317 35.927 34.3317 34.9078 34.367C32.355 34.4554 27.4275 34.6 22.5 34.6C17.5725 34.6 12.6449 34.4554 10.0922 34.367C9.07303 34.3317 8.25363 33.5317 8.20146 32.5132C8.11318 30.7896 8 28.0448 8 25.3C8 22.5552 8.11318 19.8104 8.20146 18.0868Z" fill="white"/>
<path id="Stroke 11" d="M19.79 28.7497C20.65 28.2697 21.64 27.9997 22.69 27.9997C23.82 27.9997 24.88 28.3097 25.78 28.8597" stroke="#1868AB" stroke-width="2" stroke-linecap="round"/>
<path id="Stroke 13" d="M16.5 23.06C18.34 22.071 20.45 21.5 22.69 21.5C25.01 21.5 27.19 22.111 29.07 23.18" stroke="#1868AB" stroke-width="2" stroke-linecap="round"/>
<path id="Stroke 15" d="M18.29 26.15C19.59 25.42 21.1 25 22.69 25C24.36 25 25.93 25.46 27.28 26.269" stroke="#1868AB" stroke-width="2" stroke-linecap="round"/>
</g>
</g>
</svg>
