<svg width="48" height="48" viewBox="0 0 48 48" fill="none" xmlns="http://www.w3.org/2000/svg">
<g id="icon product/Sub-Menu/Cabang/Cabang">
<g id="Group 19">
<path id="Stroke 4" fill-rule="evenodd" clip-rule="evenodd" d="M37.437 30H13.2177C12.5786 30 12.0214 30.3147 11.8618 30.7651L9.045 38.7248C8.8168 39.3711 9.4853 40 10.4002 40H34.6202C35.2586 40 35.8165 39.6853 35.9761 39.2344L38.7929 31.2752C39.0211 30.6289 38.3519 30 37.437 30Z" fill="#BFD730"/>
<path id="Stroke 4_2" fill-rule="evenodd" clip-rule="evenodd" d="M29.8236 34.3337C30.0539 33.6829 29.5712 33 28.8809 33H18.827C18.4034 33 18.0258 33.2669 17.8844 33.6662L17.1762 35.6662C16.9457 36.317 17.4284 37 18.1188 37H28.1729C28.5965 37 28.9742 36.7331 29.1155 36.3337L29.8236 34.3337Z" fill="#98AC26"/>
<g id="Group">
<path id="Fill 17" fill-rule="evenodd" clip-rule="evenodd" d="M16.4977 24.3597L16.3929 24.2185C15.2349 22.6495 14.4342 20.7595 14.1343 18.6914C14.0465 18.088 14 17.471 14 16.8435C14 11.4118 22 5 22 5H25C31.0748 5 36 10.3025 36 16.8435C36 17.471 35.9535 18.088 35.8657 18.6914C35.565 20.7595 34.7651 22.6495 33.6037 24.2185H33.6088L33.5049 24.3554C33.4974 24.3629 33.49 24.3727 33.4826 24.3825C33.4807 24.3849 33.4789 24.3874 33.477 24.3898L25.7509 34.6153C25.5581 34.8698 25.2767 34.998 25 35C24.719 35.002 22 35 22 35L16.5179 24.3881C16.5112 24.3777 16.5044 24.3674 16.4977 24.3597ZM25 22C28.3137 22 31 19.3137 31 16C31 12.6863 28.3137 10 25 10C21.6863 10 19 12.6863 19 16C19 19.3137 21.6863 22 25 22Z" fill="#00883E"/>
<path id="Fill 17_2" fill-rule="evenodd" clip-rule="evenodd" d="M13.3929 24.2185C12.2349 22.6495 11.4342 20.7595 11.1343 18.6914C11.0465 18.088 11 17.471 11 16.8435C11 10.3025 15.9252 5 22 5C28.0748 5 33 10.3025 33 16.8435C33 17.471 32.9535 18.088 32.8657 18.6914C32.565 20.7595 31.7651 22.6495 30.6037 24.2185H30.6088L30.5049 24.3554C30.4974 24.3629 30.49 24.3727 30.4826 24.3825C30.4807 24.3849 30.4789 24.3874 30.477 24.3898L22.7509 34.6153C22.3624 35.1282 21.6343 35.1282 21.2483 34.6153L13.5179 24.3881C13.5112 24.3777 13.5044 24.3674 13.4977 24.3597L13.3912 24.2185H13.3929ZM22 22C25.3137 22 28 19.3137 28 16C28 12.6863 25.3137 10 22 10C18.6863 10 16 12.6863 16 16C16 19.3137 18.6863 22 22 22Z" fill="#00AB4E"/>
</g>
</g>
</g>
</svg>
