<svg width="48" height="48" viewBox="0 0 48 48" fill="none" xmlns="http://www.w3.org/2000/svg">
<g id="icon product/Sub-Menu/Gadai/Kendaraan">
<g id="Group 48">
<path id="Rectangle 4" d="M7 34H16V36C16 37.1046 15.1046 38 14 38H9C7.89543 38 7 37.1046 7 36V34Z" fill="#00662E"/>
<path id="Rectangle 5" d="M32 34H41V36C41 37.1046 40.1046 38 39 38H34C32.8954 38 32 37.1046 32 36V34Z" fill="#00662E"/>
<rect id="Rectangle 6" x="8" y="18" width="6" height="4" rx="2" fill="#00AB4E"/>
<rect id="Rectangle 7" x="34" y="18" width="6" height="4" rx="2" fill="#00AB4E"/>
<path id="Rectangle 1" d="M11.7798 14.7367C12.375 11.9732 14.8184 10 17.6453 10H30.3547C33.1816 10 35.625 11.9732 36.2202 14.7367L38 23H10L11.7798 14.7367Z" fill="#00883E"/>
<g id="Group 49">
<path id="Rectangle 8" d="M13.7569 15.2155C14.1308 13.3458 15.7725 12 17.6792 12H30.3208C32.2275 12 33.8692 13.3458 34.2431 15.2155L35.2823 20.4116C35.6536 22.268 34.2337 24 32.3406 24H15.6594C13.7663 24 12.3464 22.268 12.7177 20.4117L13.7569 15.2155Z" fill="#FFF3A5"/>
</g>
<path id="Rectangle 2" d="M7.46511 27.4187C7.76745 23.7906 10.8003 21 14.4409 21H33.5591C37.1997 21 40.2326 23.7906 40.5349 27.4187L41 33H7L7.46511 27.4187Z" fill="#00AB4E"/>
<rect id="Rectangle 3" x="6" y="32" width="36" height="3" rx="1.5" fill="#FFC54F"/>
<g id="Group 46">
<path id="Rectangle 10" d="M10 26C10 25.4477 10.4477 25 11 25H13C14.6569 25 16 26.3431 16 28C16 28.5523 15.5523 29 15 29H12C10.8954 29 10 28.1046 10 27V26Z" fill="#FFC54F"/>
</g>
<g id="Group 47">
<path id="Rectangle 10_2" d="M32 28C32 26.3431 33.3431 25 35 25H37C37.5523 25 38 25.4477 38 26V27C38 28.1046 37.1046 29 36 29H33C32.4477 29 32 28.5523 32 28Z" fill="#FFC54F"/>
</g>
<rect id="Rectangle 14" x="19" y="26" width="10" height="2" rx="1" fill="#40BD63"/>
</g>
</g>
</svg>
