<svg width="20" height="20" viewBox="0 0 20 20" fill="none" xmlns="http://www.w3.org/2000/svg">
<path fill-rule="evenodd" clip-rule="evenodd" d="M15.0352 8.89756C15.2955 9.20401 15.6644 9.39555 16.0727 9.39555C16.1776 9.39555 16.2799 9.38291 16.3785 9.35893C16.2265 10.7516 15.905 12.5093 15.2245 13.7045V13.7044H15.2245H10.0002H4.7756V13.7044C4.09505 12.5092 3.7735 10.7517 3.62158 9.35905C3.72012 9.38304 3.82243 9.39568 3.92735 9.39568C4.33574 9.39568 4.70458 9.20412 4.96496 8.89762C5.39394 9.43062 6.01732 9.7666 6.70999 9.7666C7.83131 9.7666 8.77101 8.88605 8.99842 7.7146C9.25628 7.9971 9.61016 8.17167 10 8.17167H10.0002V8.1718C10.39 8.17174 10.7438 7.99719 11.0016 7.71475C11.2291 8.88613 12.1688 9.7666 13.2901 9.7666C13.9828 9.7666 14.6062 9.43059 15.0352 8.89756Z" fill="#FFC02E"/>
<mask id="mask0_2671_28794" style="mask-type:alpha" maskUnits="userSpaceOnUse" x="2" y="5" width="16" height="11">
<path fill-rule="evenodd" clip-rule="evenodd" d="M10 5C9.21299 5 8.57269 5.71144 8.57269 6.5859C8.57269 7.02714 8.73572 7.42685 8.99837 7.71459C8.77097 8.88605 7.83127 9.76659 6.70995 9.76659C6.01728 9.76659 5.3939 9.43061 4.96492 8.89761C5.20633 8.61344 5.3545 8.23048 5.3545 7.80978C5.3545 6.93532 4.71432 6.22388 3.92731 6.22388C3.1403 6.22388 2.5 6.93532 2.5 7.80978C2.5 8.56766 2.98095 9.20309 3.62154 9.35904C3.77345 10.7517 4.095 12.5092 4.77553 13.7044V15.1681C4.77553 15.4392 4.97329 15.6589 5.21728 15.6589H10.0001H14.7827H14.7827C14.8132 15.6589 14.843 15.6555 14.8717 15.6489C14.925 15.6368 14.9747 15.6141 15.0191 15.5828C15.1425 15.4958 15.2245 15.3426 15.2245 15.1681V13.7045C15.905 12.5093 16.2265 10.7516 16.3784 9.35892C17.019 9.20299 17.5 8.56757 17.5 7.80978C17.5 6.93532 16.8597 6.22388 16.0727 6.22388C15.2857 6.22388 14.6455 6.93532 14.6455 7.80978C14.6455 8.23044 14.7937 8.61339 15.0351 8.89755C14.6062 9.43059 13.9828 9.76659 13.2901 9.76659C12.1688 9.76659 11.229 8.88612 11.0016 7.71474C11.1986 7.49891 11.3396 7.22008 11.3977 6.90797C11.4171 6.80394 11.4273 6.69622 11.4273 6.5859C11.4273 6.30211 11.3599 6.0355 11.2419 5.8048C10.9963 5.32464 10.5317 5.00005 10.0001 5H10Z" fill="white"/>
</mask>
<g mask="url(#mask0_2671_28794)">
<rect width="20" height="20" fill="#1868AB"/>
</g>
</svg>
