<svg width="64" height="64" viewBox="0 0 64 64" fill="none" xmlns="http://www.w3.org/2000/svg">
<circle opacity="0.1" cx="32" cy="32" r="32" fill="#FFC54F"/>
<rect x="27" y="19" width="22" height="32" rx="3" fill="#CC9D3F"/>
<mask id="mask0_0_11556" style="mask-type:alpha" maskUnits="userSpaceOnUse" x="27" y="19" width="22" height="32">
<rect x="27" y="19" width="22" height="32" rx="3" fill="white"/>
</mask>
<g mask="url(#mask0_0_11556)">
<rect x="24" y="19" width="22" height="32" rx="3" fill="#FFC54F"/>
<path fill-rule="evenodd" clip-rule="evenodd" d="M35.815 24.2305L32.4804 26.7447C32.0723 27.052 31.9009 27.5989 32.0572 28.0974L33.3304 32.1652C33.4866 32.6636 33.9343 33 34.4392 33H38.5608C39.0657 33 39.5134 32.6636 39.6696 32.1652L40.9428 28.0974C41.0991 27.5989 40.9277 27.052 40.5196 26.7447L37.185 24.2305C36.7769 23.9232 36.2231 23.9232 35.815 24.2305Z" fill="#CC9D3F"/>
<rect x="31.5" y="43" width="10" height="2" rx="1" fill="#CC9D3F"/>
<rect x="31.5" y="38" width="10" height="2" rx="1" fill="#CC9D3F"/>
</g>
<path opacity="0.5" fill-rule="evenodd" clip-rule="evenodd" d="M35 19.0001L39 18.9961V43.0001C39 44.657 37.6569 46.0001 36 46.0001H27V43.0001L35 19.0001Z" fill="#CC9D3F"/>
<rect x="15" y="13" width="22" height="32" rx="3" fill="#CC9D3F"/>
<mask id="mask1_0_11556" style="mask-type:alpha" maskUnits="userSpaceOnUse" x="15" y="13" width="22" height="32">
<rect x="15" y="13" width="22" height="32" rx="3" fill="white"/>
</mask>
<g mask="url(#mask1_0_11556)">
<rect x="12" y="13" width="22" height="32" rx="3" fill="#FFC54F"/>
<path fill-rule="evenodd" clip-rule="evenodd" d="M23.815 18.2305L20.4804 20.7447C20.0723 21.052 19.9009 21.5989 20.0572 22.0974L21.3304 26.1652C21.4866 26.6636 21.9343 27 22.4392 27H26.5608C27.0657 27 27.5134 26.6636 27.6696 26.1652L28.9428 22.0974C29.0991 21.5989 28.9277 21.052 28.5196 20.7447L25.185 18.2305C24.7769 17.9232 24.2231 17.9232 23.815 18.2305Z" fill="#CC9D3F"/>
<rect x="19.5" y="37" width="10" height="2" rx="1" fill="#CC9D3F"/>
<rect x="19.5" y="32" width="10" height="2" rx="1" fill="#CC9D3F"/>
</g>
</svg>
