<svg width="36" height="36" viewBox="0 0 36 36" fill="none" xmlns="http://www.w3.org/2000/svg">
<path d="M33 18C33 26.2843 26.2843 33 18 33C9.71573 33 3 26.2843 3 18C3 9.71573 9.71573 3 18 3C26.2843 3 33 9.71573 33 18Z" fill="#00AB4E"/>
<mask id="mask0_0_6256" style="mask-type:alpha" maskUnits="userSpaceOnUse" x="3" y="3" width="30" height="30">
<path d="M33 18C33 26.2843 26.2843 33 18 33C9.71573 33 3 26.2843 3 18C3 9.71573 9.71573 3 18 3C26.2843 3 33 9.71573 33 18Z" fill="white"/>
</mask>
<g mask="url(#mask0_0_6256)">
<rect width="36" height="36" fill="#00AB4E"/>
<path fill-rule="evenodd" clip-rule="evenodd" d="M21.3334 9.66669H14.6667C11.9053 9.66669 9.66675 11.9053 9.66675 14.6667V21.3334C9.66675 24.0948 11.9053 26.3334 14.6667 26.3334H21.3334C24.0948 26.3334 26.3334 24.0948 26.3334 21.3334V14.6667C26.3334 11.9053 24.0948 9.66669 21.3334 9.66669ZM11.3334 14.6667C11.3334 12.8257 12.8258 11.3334 14.6667 11.3334H21.3334C23.1744 11.3334 24.6667 12.8257 24.6667 14.6667V21.3334C24.6667 23.1743 23.1744 24.6667 21.3334 24.6667H14.6667C12.8258 24.6667 11.3334 23.1743 11.3334 21.3334V14.6667ZM18.0001 22.1667C15.6989 22.1667 13.8334 20.3012 13.8334 18C13.8334 15.6988 15.6989 13.8334 18.0001 13.8334C20.3013 13.8334 22.1667 15.6988 22.1667 18C22.1667 20.3012 20.3013 22.1667 18.0001 22.1667ZM18.0001 20.5C19.3808 20.5 20.5001 19.3807 20.5001 18C20.5001 16.6193 19.3808 15.5 18.0001 15.5C16.6194 15.5 15.5001 16.6193 15.5001 18C15.5001 19.3807 16.6194 20.5 18.0001 20.5ZM23.0001 13.8334C23.0001 14.2936 22.627 14.6667 22.1667 14.6667C21.7065 14.6667 21.3334 14.2936 21.3334 13.8334C21.3334 13.3731 21.7065 13 22.1667 13C22.627 13 23.0001 13.3731 23.0001 13.8334Z" fill="white"/>
</g>
</svg>
