<svg width="24" height="24" viewBox="0 0 24 24" fill="none" xmlns="http://www.w3.org/2000/svg">
<g id="icon system/E/Edit PIN">
<g id="Color/1. Shades/2. Secondary">
<path id="Mask" fill-rule="evenodd" clip-rule="evenodd" d="M19.0526 5C20.0991 5 20.9474 5.96431 20.9474 7.15385V10.8327C20.6132 10.6833 20.2608 10.5684 19.8947 10.4923V7.15385C19.8947 6.60156 19.5335 6.14638 19.0682 6.08417L18.9591 6.07692H3.9883C3.50846 6.07692 3.11298 6.49266 3.05893 7.02825L3.05263 7.15385V13.6154C3.05263 14.1677 3.41384 14.6229 3.87918 14.6851L3.9883 14.6923H13.6842C13.6152 15.0403 13.5789 15.4004 13.5789 15.7692H3.89474C2.8483 15.7692 2 14.8049 2 13.6154V7.15385C2 5.96431 2.8483 5 3.89474 5H19.0526ZM18.2782 10.3846L18.3257 10.4102C17.1533 10.527 16.0936 11.0374 15.2744 11.8105C15.0562 11.7761 14.8541 11.6543 14.7355 11.4615C14.5219 11.118 14.6483 10.6791 15.0169 10.4807L15.1955 10.3846L15.0169 10.2886C14.6483 10.0901 14.5219 9.65123 14.7355 9.30769C14.9477 8.96483 15.4202 8.84919 15.7873 9.04479L15.9664 9.14111V8.94874C15.9664 8.55189 16.311 8.23077 16.7368 8.23077C17.1627 8.23077 17.5073 8.55189 17.5073 8.94874V9.14111L17.6863 9.04479C18.0551 8.84704 18.526 8.96341 18.7382 9.30769C18.9518 9.65123 18.8254 10.0901 18.4568 10.2886L18.2782 10.3846ZM7.16002 9.04479C7.52874 8.84704 7.99965 8.96341 8.21186 9.30769C8.4255 9.65123 8.29911 10.0901 7.93046 10.2886L7.75184 10.3846L7.93046 10.4807C8.29911 10.6791 8.4255 11.118 8.21186 11.4615C8.07044 11.6915 7.81013 11.8205 7.54528 11.8205C7.41433 11.8205 7.28194 11.7897 7.16009 11.7244L6.98104 11.6281V11.8205C6.98104 12.2173 6.63645 12.5385 6.2106 12.5385C5.78475 12.5385 5.44016 12.2173 5.44016 11.8205V11.6281L5.26096 11.7244C5.13912 11.7897 5.00672 11.8205 4.87578 11.8205C4.61099 11.8205 4.35062 11.6915 4.2092 11.4615C3.99555 11.118 4.12195 10.6791 4.49059 10.4807L4.66921 10.3846L4.49059 10.2886C4.12195 10.0901 3.99555 9.65123 4.2092 9.30769C4.4214 8.96483 4.89391 8.84919 5.26103 9.04479L5.44008 9.14111V8.94874C5.44008 8.55189 5.78468 8.23077 6.21053 8.23077C6.63638 8.23077 6.98097 8.55189 6.98097 8.94874V9.14111L7.16002 9.04479ZM13.475 9.30769C13.2628 8.96341 12.7919 8.84704 12.4232 9.04479L12.2441 9.14111V8.94874C12.2441 8.55189 11.8995 8.23077 11.4737 8.23077C11.0478 8.23077 10.7032 8.55189 10.7032 8.94874V9.14111L10.5242 9.04479C10.1571 8.84919 9.68456 8.96483 9.47235 9.30769C9.25871 9.65123 9.3851 10.0901 9.75375 10.2886L9.93237 10.3846L9.75375 10.4807C9.3851 10.6791 9.25871 11.118 9.47235 11.4615C9.61377 11.6915 9.87415 11.8205 10.1389 11.8205C10.2699 11.8205 10.4023 11.7897 10.5241 11.7244L10.7033 11.6281V11.8205C10.7033 12.2173 11.0479 12.5385 11.4738 12.5385C11.8996 12.5385 12.2442 12.2173 12.2442 11.8205V11.6281L12.4232 11.7244C12.5451 11.7897 12.6775 11.8205 12.8084 11.8205C13.0733 11.8205 13.3336 11.6915 13.475 11.4615C13.6887 11.118 13.5623 10.6791 13.1936 10.4807L13.015 10.3846L13.1936 10.2886C13.5623 10.0901 13.6887 9.65123 13.475 9.30769ZM21.892 13.7257C22.036 13.5784 22.036 13.3403 21.892 13.193L21.0278 12.3089C20.8838 12.1615 20.6512 12.1615 20.5071 12.3089L19.8313 13.0003L21.2162 14.4171L21.892 13.7257ZM15.3518 18.8149C15.3518 18.9171 15.4347 19 15.5369 19H16.4184C16.6175 19 16.8082 18.9198 16.9474 18.7776L20.821 14.8214L19.4362 13.4046L15.5624 17.3729C15.4274 17.5112 15.3518 17.6969 15.3518 17.8901V18.8149Z" fill="#979797"/>
<mask id="mask0_0_5817" style="mask-type:alpha" maskUnits="userSpaceOnUse" x="2" y="5" width="20" height="14">
<path id="Mask_2" fill-rule="evenodd" clip-rule="evenodd" d="M19.0526 5C20.0991 5 20.9474 5.96431 20.9474 7.15385V10.8327C20.6132 10.6833 20.2608 10.5684 19.8947 10.4923V7.15385C19.8947 6.60156 19.5335 6.14638 19.0682 6.08417L18.9591 6.07692H3.9883C3.50846 6.07692 3.11298 6.49266 3.05893 7.02825L3.05263 7.15385V13.6154C3.05263 14.1677 3.41384 14.6229 3.87918 14.6851L3.9883 14.6923H13.6842C13.6152 15.0403 13.5789 15.4004 13.5789 15.7692H3.89474C2.8483 15.7692 2 14.8049 2 13.6154V7.15385C2 5.96431 2.8483 5 3.89474 5H19.0526ZM18.2782 10.3846L18.3257 10.4102C17.1533 10.527 16.0936 11.0374 15.2744 11.8105C15.0562 11.7761 14.8541 11.6543 14.7355 11.4615C14.5219 11.118 14.6483 10.6791 15.0169 10.4807L15.1955 10.3846L15.0169 10.2886C14.6483 10.0901 14.5219 9.65123 14.7355 9.30769C14.9477 8.96483 15.4202 8.84919 15.7873 9.04479L15.9664 9.14111V8.94874C15.9664 8.55189 16.311 8.23077 16.7368 8.23077C17.1627 8.23077 17.5073 8.55189 17.5073 8.94874V9.14111L17.6863 9.04479C18.0551 8.84704 18.526 8.96341 18.7382 9.30769C18.9518 9.65123 18.8254 10.0901 18.4568 10.2886L18.2782 10.3846ZM7.16002 9.04479C7.52874 8.84704 7.99965 8.96341 8.21186 9.30769C8.4255 9.65123 8.29911 10.0901 7.93046 10.2886L7.75184 10.3846L7.93046 10.4807C8.29911 10.6791 8.4255 11.118 8.21186 11.4615C8.07044 11.6915 7.81013 11.8205 7.54528 11.8205C7.41433 11.8205 7.28194 11.7897 7.16009 11.7244L6.98104 11.6281V11.8205C6.98104 12.2173 6.63645 12.5385 6.2106 12.5385C5.78475 12.5385 5.44016 12.2173 5.44016 11.8205V11.6281L5.26096 11.7244C5.13912 11.7897 5.00672 11.8205 4.87578 11.8205C4.61099 11.8205 4.35062 11.6915 4.2092 11.4615C3.99555 11.118 4.12195 10.6791 4.49059 10.4807L4.66921 10.3846L4.49059 10.2886C4.12195 10.0901 3.99555 9.65123 4.2092 9.30769C4.4214 8.96483 4.89391 8.84919 5.26103 9.04479L5.44008 9.14111V8.94874C5.44008 8.55189 5.78468 8.23077 6.21053 8.23077C6.63638 8.23077 6.98097 8.55189 6.98097 8.94874V9.14111L7.16002 9.04479ZM13.475 9.30769C13.2628 8.96341 12.7919 8.84704 12.4232 9.04479L12.2441 9.14111V8.94874C12.2441 8.55189 11.8995 8.23077 11.4737 8.23077C11.0478 8.23077 10.7032 8.55189 10.7032 8.94874V9.14111L10.5242 9.04479C10.1571 8.84919 9.68456 8.96483 9.47235 9.30769C9.25871 9.65123 9.3851 10.0901 9.75375 10.2886L9.93237 10.3846L9.75375 10.4807C9.3851 10.6791 9.25871 11.118 9.47235 11.4615C9.61377 11.6915 9.87415 11.8205 10.1389 11.8205C10.2699 11.8205 10.4023 11.7897 10.5241 11.7244L10.7033 11.6281V11.8205C10.7033 12.2173 11.0479 12.5385 11.4738 12.5385C11.8996 12.5385 12.2442 12.2173 12.2442 11.8205V11.6281L12.4232 11.7244C12.5451 11.7897 12.6775 11.8205 12.8084 11.8205C13.0733 11.8205 13.3336 11.6915 13.475 11.4615C13.6887 11.118 13.5623 10.6791 13.1936 10.4807L13.015 10.3846L13.1936 10.2886C13.5623 10.0901 13.6887 9.65123 13.475 9.30769ZM21.892 13.7257C22.036 13.5784 22.036 13.3403 21.892 13.193L21.0278 12.3089C20.8838 12.1615 20.6512 12.1615 20.5071 12.3089L19.8313 13.0003L21.2162 14.4171L21.892 13.7257ZM15.3518 18.8149C15.3518 18.9171 15.4347 19 15.5369 19H16.4184C16.6175 19 16.8082 18.9198 16.9474 18.7776L20.821 14.8214L19.4362 13.4046L15.5624 17.3729C15.4274 17.5112 15.3518 17.6969 15.3518 17.8901V18.8149Z" fill="white"/>
</mask>
<g mask="url(#mask0_0_5817)">
<g id="Color/1. Shades/2. Secondary_2">
<rect id="color" width="24" height="24" fill="#58585B"/>
</g>
</g>
</g>
</g>
</svg>
