<svg width="48" height="48" viewBox="0 0 48 48" fill="none" xmlns="http://www.w3.org/2000/svg">
<path d="M22.486 30.1668L16.7483 27.2254C16.6541 27.1771 16.5513 27.1478 16.4457 27.1391C16.3401 27.1304 16.2337 27.1426 16.1328 27.1748C16.0318 27.2071 15.9382 27.2588 15.8572 27.3271C15.7763 27.3954 15.7096 27.4788 15.661 27.5727L9.73922 39.0117C9.67612 39.1336 9.64532 39.2695 9.64974 39.4064C9.65417 39.5434 9.69367 39.6769 9.7645 39.7943C9.83532 39.9117 9.93513 40.0091 10.0544 40.0772C10.1737 40.1453 10.3086 40.1818 10.4461 40.1834L13.6517 40.2195L15.5423 42.7958C15.6235 42.9064 15.7316 42.9944 15.8566 43.0515C15.9816 43.1087 16.1192 43.133 16.2563 43.1223C16.2825 43.1202 16.3083 43.1169 16.3338 43.1124C16.4563 43.0908 16.5722 43.0413 16.6724 42.9677C16.7725 42.8942 16.8543 42.7986 16.9114 42.6884L22.8331 31.2491C22.9311 31.0595 22.9497 30.839 22.8846 30.6361C22.8195 30.4331 22.6762 30.2643 22.486 30.1668Z" fill="#00883E"/>
<path d="M22.486 28.1658L16.7483 25.2244C16.6541 25.1761 16.5513 25.1468 16.4457 25.1381C16.3401 25.1294 16.2337 25.1416 16.1328 25.1738C16.0318 25.2061 15.9382 25.2578 15.8572 25.3261C15.7763 25.3944 15.7096 25.4779 15.661 25.5717L9.73922 37.0107C9.67612 37.1326 9.64532 37.2685 9.64974 37.4055C9.65417 37.5424 9.69367 37.6759 9.7645 37.7933C9.83532 37.9107 9.93513 38.0081 10.0544 38.0762C10.1737 38.1443 10.3086 38.1808 10.4461 38.1824L13.6517 38.2185L15.5423 40.7949C15.6235 40.9054 15.7316 40.9934 15.8566 41.0506C15.9816 41.1077 16.1192 41.1321 16.2563 41.1213C16.2825 41.1192 16.3083 41.1159 16.3338 41.1114C16.4563 41.0898 16.5722 41.0403 16.6724 40.9668C16.7725 40.8932 16.8543 40.7976 16.9114 40.6875L22.8331 29.2481C22.9311 29.0585 22.9497 28.838 22.8846 28.6351C22.8195 28.4321 22.6762 28.2633 22.486 28.1658Z" fill="#00AB4E"/>
<path d="M38.5956 39.0123L32.6738 27.5729C32.6253 27.479 32.5586 27.3956 32.4776 27.3273C32.3967 27.259 32.303 27.2073 32.2021 27.175C32.1011 27.1427 31.9948 27.1306 31.8891 27.1393C31.7835 27.148 31.6807 27.1773 31.5865 27.2256L25.8488 30.1673C25.7546 30.2156 25.6709 30.2819 25.6025 30.3625C25.534 30.443 25.4822 30.5362 25.45 30.6367C25.4178 30.7373 25.4057 30.8432 25.4146 30.9484C25.4235 31.0536 25.4531 31.1561 25.5017 31.25L31.4234 42.6893C31.4804 42.7995 31.5622 42.8951 31.6624 42.9686C31.7626 43.0422 31.8784 43.0917 32.0009 43.1133C32.0264 43.1178 32.0523 43.1211 32.0784 43.1232C32.2156 43.1339 32.3532 43.1096 32.4781 43.0524C32.6031 42.9953 32.7113 42.9073 32.7924 42.7967L34.6831 40.2204L37.8886 40.1842C38.0262 40.1827 38.161 40.1461 38.2803 40.078C38.3996 40.01 38.4994 39.9126 38.5702 39.7952C38.6411 39.6778 38.6806 39.5443 38.685 39.4073C38.6894 39.2703 38.6586 39.1345 38.5955 39.0126L38.5956 39.0123Z" fill="#00883E"/>
<path d="M38.5956 37.0123L32.6738 25.5729C32.6253 25.479 32.5586 25.3956 32.4776 25.3273C32.3967 25.259 32.303 25.2073 32.2021 25.175C32.1011 25.1427 31.9948 25.1306 31.8891 25.1393C31.7835 25.148 31.6807 25.1773 31.5865 25.2256L25.8488 28.1673C25.7546 28.2156 25.6709 28.2819 25.6025 28.3625C25.534 28.443 25.4822 28.5362 25.45 28.6367C25.4178 28.7373 25.4057 28.8432 25.4146 28.9484C25.4235 29.0536 25.4531 29.1561 25.5017 29.25L31.4234 40.6893C31.4804 40.7995 31.5622 40.8951 31.6624 40.9686C31.7626 41.0422 31.8784 41.0917 32.0009 41.1133C32.0264 41.1178 32.0523 41.1211 32.0784 41.1232C32.2156 41.1339 32.3532 41.1096 32.4781 41.0524C32.6031 40.9953 32.7113 40.9073 32.7924 40.7967L34.6831 38.2204L37.8886 38.1842C38.0262 38.1827 38.161 38.1461 38.2803 38.078C38.3996 38.01 38.4994 37.9126 38.5702 37.7952C38.6411 37.6778 38.6806 37.5443 38.685 37.4073C38.6894 37.2703 38.6586 37.1345 38.5955 37.0126L38.5956 37.0123Z" fill="#00AB4E"/>
<path d="M23.4 5.72435C24.0675 5.28482 24.9325 5.28482 25.6 5.72435L27.7035 7.10958C28.0635 7.34667 28.4905 7.46108 28.9209 7.43578L31.4352 7.2879C32.233 7.24098 32.9822 7.6735 33.3404 8.38787L34.4695 10.6393C34.6628 11.0246 34.9754 11.3372 35.3607 11.5305L37.6121 12.6596C38.3265 13.0178 38.759 13.767 38.7121 14.5648L38.5642 17.0791C38.5389 17.5095 38.6533 17.9365 38.8904 18.2965L40.2757 20.4C40.7152 21.0675 40.7152 21.9325 40.2757 22.6L38.8904 24.7035C38.6533 25.0635 38.5389 25.4905 38.5642 25.9209L38.7121 28.4352C38.759 29.233 38.3265 29.9822 37.6121 30.3404L35.3607 31.4695C34.9754 31.6628 34.6628 31.9754 34.4695 32.3607L33.3404 34.6121C32.9822 35.3265 32.233 35.759 31.4352 35.7121L28.9209 35.5642C28.4905 35.5389 28.0635 35.6533 27.7035 35.8904L25.6 37.2757C24.9325 37.7152 24.0675 37.7152 23.4 37.2757L21.2965 35.8904C20.9365 35.6533 20.5095 35.5389 20.0791 35.5642L17.5648 35.7121C16.767 35.759 16.0178 35.3265 15.6596 34.6121L14.5305 32.3607C14.3372 31.9754 14.0246 31.6628 13.6393 31.4695L11.3879 30.3404C10.6735 29.9822 10.241 29.233 10.2879 28.4352L10.4358 25.9209C10.4611 25.4905 10.3467 25.0635 10.1096 24.7035L8.72435 22.6C8.28482 21.9325 8.28482 21.0675 8.72435 20.4L10.1096 18.2965C10.3467 17.9365 10.4611 17.5095 10.4358 17.0791L10.2879 14.5648C10.241 13.767 10.6735 13.0178 11.3879 12.6596L13.6393 11.5305C14.0246 11.3372 14.3372 11.0246 14.5305 10.6393L15.6596 8.38787C16.0178 7.6735 16.767 7.24098 17.5648 7.2879L20.0791 7.43578C20.5095 7.46108 20.9365 7.34667 21.2965 7.10958L23.4 5.72435Z" fill="#CC9D3F"/>
<path d="M21.7379 6.0267C22.473 5.42867 23.527 5.42867 24.2621 6.0267L25.825 7.29811C26.2671 7.65776 26.8417 7.81171 27.4044 7.7213L29.3936 7.40169C30.3293 7.25136 31.242 7.77832 31.5797 8.66379L32.2975 10.5463C32.5005 11.0789 32.9211 11.4995 33.4537 11.7025L35.3362 12.4203C36.2217 12.758 36.7486 13.6707 36.5983 14.6064L36.2787 16.5956C36.1883 17.1583 36.3422 17.7329 36.7019 18.175L37.9733 19.7379C38.5713 20.473 38.5713 21.527 37.9733 22.2621L36.7019 23.825C36.3422 24.2671 36.1883 24.8417 36.2787 25.4044L36.5983 27.3936C36.7486 28.3293 36.2217 29.242 35.3362 29.5797L33.4537 30.2975C32.9211 30.5005 32.5005 30.9211 32.2975 31.4537L31.5797 33.3362C31.242 34.2217 30.3293 34.7486 29.3936 34.5983L27.4044 34.2787C26.8417 34.1883 26.2671 34.3422 25.825 34.7019L24.2621 35.9733C23.527 36.5713 22.473 36.5713 21.7379 35.9733L20.175 34.7019C19.7329 34.3422 19.1583 34.1883 18.5956 34.2787L16.6064 34.5983C15.6707 34.7486 14.758 34.2217 14.4203 33.3362L13.7025 31.4537C13.4995 30.9211 13.0789 30.5005 12.5463 30.2975L10.6638 29.5797C9.77832 29.242 9.25136 28.3293 9.40169 27.3936L9.7213 25.4044C9.81171 24.8417 9.65776 24.2671 9.29811 23.825L8.0267 22.2621C7.42867 21.527 7.42867 20.473 8.0267 19.7379L9.29811 18.175C9.65776 17.7329 9.81171 17.1583 9.7213 16.5956L9.40169 14.6064C9.25136 13.6707 9.77832 12.758 10.6638 12.4203L12.5463 11.7025C13.0789 11.4995 13.4995 11.0789 13.7025 10.5463L14.4203 8.66379C14.758 7.77832 15.6707 7.25136 16.6064 7.40169L18.5956 7.7213C19.1583 7.81171 19.7329 7.65776 20.175 7.29811L21.7379 6.0267Z" fill="#FFC54F"/>
<path d="M32 21C32 25.6949 28.1949 29.5 23.5 29.5C18.8051 29.5 15 25.6949 15 21C15 16.3051 18.8051 12.5 23.5 12.5C28.1949 12.5 32 16.3051 32 21Z" fill="#CC9D3F" stroke="white"/>
<path fill-rule="evenodd" clip-rule="evenodd" d="M18 21.7895C17.9999 21.755 18.005 21.7205 18.0156 21.6866L18.0415 21.6247L20.0058 17.9405L20.0437 17.8827L20.0897 17.8346L20.1363 17.7954C20.2835 17.6764 20.5327 17.5321 20.8987 17.3948C21.5603 17.1466 22.4201 17 23.5 17C24.5799 17 25.4397 17.1466 26.1013 17.3948C26.4673 17.5321 26.7165 17.6764 26.8637 17.7954L26.9013 17.8268C26.9213 17.8432 26.9397 17.8618 26.9563 17.8827L26.9942 17.9405L28.9585 21.6247C28.9773 21.66 28.9895 21.6967 28.9956 21.7337L29 21.7895C29 23.0104 27.9448 24 26.6429 24C25.3976 24 24.378 23.0946 24.2916 21.9474L24.2857 21.7895C24.2856 21.755 24.2907 21.7205 24.3013 21.6866L24.3272 21.6247L26.142 18.2236L25.9944 18.1538C25.9391 18.1295 25.8775 18.1044 25.8095 18.0789C25.2434 17.8666 24.4826 17.7368 23.5 17.7368C22.5174 17.7368 21.7566 17.8666 21.1905 18.0789C21.0544 18.13 20.9443 18.1793 20.858 18.2236L22.6728 21.6247C22.6916 21.66 22.7038 21.6967 22.7099 21.7337L22.7143 21.7895C22.7143 23.0104 21.6591 24 20.3571 24C19.1118 24 18.0923 23.0946 18.0059 21.9474L18 21.7895ZM20.3571 18.9287L18.832 21.7884H21.8814L20.3571 18.9287ZM26.6429 18.9287L25.1178 21.7884H28.1672L26.6429 18.9287Z" fill="white"/>
</svg>
