<svg width="48" height="48" viewBox="0 0 48 48" fill="none" xmlns="http://www.w3.org/2000/svg">
<rect x="8" y="8" width="32" height="32" rx="4" fill="#00883E"/>
<mask id="mask0_0_6702" style="mask-type:alpha" maskUnits="userSpaceOnUse" x="8" y="8" width="32" height="32">
<rect x="8" y="8" width="32" height="32" rx="4" fill="white"/>
</mask>
<g mask="url(#mask0_0_6702)">
<rect x="5" y="7" width="32" height="32" rx="4" fill="#00AB4E"/>
<path d="M14.5 28.5006L19.6516 23.349C20.1208 22.8798 20.8792 22.8798 21.3484 23.349L23.2516 25.2522C23.7208 25.7214 24.4792 25.7214 24.9484 25.2522L30.1 20.1006" stroke="#00662E" stroke-linecap="round" stroke-linejoin="round"/>
<path fill-rule="evenodd" clip-rule="evenodd" d="M34 18.5C34 20.4334 32.4334 22 30.5 22C28.5666 22 27 20.4334 27 18.5C27 16.5666 28.5666 15 30.5 15C32.4334 15 34 16.5666 34 18.5Z" fill="#98AC26"/>
<path fill-rule="evenodd" clip-rule="evenodd" d="M32.8334 18.5C32.8334 20.4334 31.2668 22 29.3334 22C27.4 22 25.8334 20.4334 25.8334 18.5C25.8334 16.5666 27.4 15 29.3334 15C31.2668 15 32.8334 16.5666 32.8334 18.5Z" fill="#BFD730"/>
<path fill-rule="evenodd" clip-rule="evenodd" d="M19 28.5C19 30.4334 17.4334 32 15.5 32C13.5666 32 12 30.4334 12 28.5C12 26.5666 13.5666 25 15.5 25C17.4334 25 19 26.5666 19 28.5Z" fill="#98AC26"/>
<path fill-rule="evenodd" clip-rule="evenodd" d="M17.8334 28.5C17.8334 30.4334 16.2668 32 14.3334 32C12.4 32 10.8334 30.4334 10.8334 28.5C10.8334 26.5666 12.4 25 14.3334 25C16.2668 25 17.8334 26.5666 17.8334 28.5Z" fill="#BFD730"/>
</g>
</svg>
