<svg width="48" height="48" viewBox="0 0 48 48" fill="none" xmlns="http://www.w3.org/2000/svg">
<path fill-rule="evenodd" clip-rule="evenodd" d="M22.6035 9.79301C31.7733 9.79301 39.207 17.2267 39.207 26.3965C39.207 35.5664 31.7733 43 22.6035 43C13.4336 43 6 35.5664 6 26.3965C6 17.2267 13.4336 9.79301 22.6035 9.79301ZM22.6035 14.2206C29.6337 14.2206 35.3328 19.9197 35.3328 26.9499C35.3328 33.9801 29.6337 39.6792 22.6035 39.6792C15.5733 39.6792 9.87413 33.9801 9.87413 26.9499C9.87413 19.9197 15.5733 14.2206 22.6035 14.2206Z" fill="#CC9D3F"/>
<mask id="mask0_868_2471" style="mask-type:alpha" maskUnits="userSpaceOnUse" x="6" y="9" width="34" height="34">
<path fill-rule="evenodd" clip-rule="evenodd" d="M22.6035 9.79301C31.7733 9.79301 39.207 17.2267 39.207 26.3965C39.207 35.5664 31.7733 43 22.6035 43C13.4336 43 6 35.5664 6 26.3965C6 17.2267 13.4336 9.79301 22.6035 9.79301ZM22.6035 14.2206C29.6337 14.2206 35.3328 19.9197 35.3328 26.9499C35.3328 33.9801 29.6337 39.6792 22.6035 39.6792C15.5733 39.6792 9.87413 33.9801 9.87413 26.9499C9.87413 19.9197 15.5733 14.2206 22.6035 14.2206Z" fill="white"/>
</mask>
<g mask="url(#mask0_868_2471)">
<path fill-rule="evenodd" clip-rule="evenodd" d="M20.3897 9.79301C29.5596 9.79301 36.9932 17.2267 36.9932 26.3965C36.9932 35.5664 29.5596 43 20.3897 43C11.2199 43 3.78622 35.5664 3.78622 26.3965C3.78622 17.2267 11.2199 9.79301 20.3897 9.79301ZM20.9432 14.2206C27.6678 14.2206 33.1191 19.9197 33.1191 26.9499C33.1191 33.9801 27.6678 39.6792 20.9432 39.6792C14.2186 39.6792 8.7673 33.9801 8.7673 26.9499C8.7673 19.9197 14.2186 14.2206 20.9432 14.2206Z" fill="#FFC54F"/>
</g>
<path fill-rule="evenodd" clip-rule="evenodd" d="M28.2945 6.84105C28.7886 7.22482 28.813 7.96292 28.3452 8.37842L23.2676 12.8891C22.8888 13.2257 22.3182 13.2257 21.9394 12.8891L16.8617 8.37842C16.394 7.96292 16.4184 7.22482 16.9125 6.84105L19.0121 5.21024C19.1876 5.07397 19.4034 5 19.6255 5H25.5815C25.8036 5 26.0194 5.07397 26.1949 5.21024L28.2945 6.84105Z" fill="#A3C7E6"/>
<mask id="mask1_868_2471" style="mask-type:alpha" maskUnits="userSpaceOnUse" x="16" y="5" width="13" height="9">
<path fill-rule="evenodd" clip-rule="evenodd" d="M28.2945 6.84105C28.7886 7.22482 28.813 7.96292 28.3452 8.37842L23.2676 12.8891C22.8888 13.2257 22.3182 13.2257 21.9394 12.8891L16.8617 8.37842C16.394 7.96292 16.4184 7.22482 16.9125 6.84105L19.0121 5.21024C19.1876 5.07397 19.4034 5 19.6255 5H25.5815C25.8036 5 26.0194 5.07397 26.1949 5.21024L28.2945 6.84105Z" fill="white"/>
</mask>
<g mask="url(#mask1_868_2471)">
<path fill-rule="evenodd" clip-rule="evenodd" d="M27.3828 6.13294C28.08 6.67446 27.7848 7.78781 26.9108 7.91265L25.3707 8.13267H19.8363L18.2961 7.91265C17.4222 7.78781 17.127 6.67446 17.8242 6.13294L19.0121 5.21024C19.1876 5.07397 19.4034 5 19.6255 5L25.5815 5C25.8036 5 26.0194 5.07397 26.1949 5.21024L27.3828 6.13294Z" fill="#5297D1"/>
<path fill-rule="evenodd" clip-rule="evenodd" d="M28.2945 6.84105C28.7886 7.22482 28.813 7.96292 28.3452 8.37842L22.6035 13.4791L24.8173 8.13267L23.7104 5.00014L25.9242 5L28.2945 6.84105Z" fill="#5297D1"/>
<path fill-rule="evenodd" clip-rule="evenodd" d="M29.2449 7.57922L24.8173 8.13267L23.7104 5.00014L25.9242 5L29.2449 7.57922Z" fill="#A3C7E6"/>
<path fill-rule="evenodd" clip-rule="evenodd" d="M20.3897 8.13267L22.6035 13.4791L16.8617 8.37842C16.394 7.96292 16.4184 7.22482 16.9125 6.84105L19.2828 5H21.4966L20.3897 8.13267Z" fill="#5297D1"/>
<path fill-rule="evenodd" clip-rule="evenodd" d="M20.3897 8.13267L15.9621 7.57922L19.2828 5L21.4966 5L20.3897 8.13267Z" fill="#A3C7E6"/>
</g>
<path d="M41.5 35C41.5 39.1425 38.1425 42.5 34 42.5C29.8575 42.5 26.5 39.1425 26.5 35C26.5 30.8575 29.8575 27.5 34 27.5C38.1425 27.5 41.5 30.8575 41.5 35Z" fill="white" stroke="white"/>
<path fill-rule="evenodd" clip-rule="evenodd" d="M41 35C41 38.8663 37.8663 42 34 42C30.1337 42 27 38.8663 27 35C27 31.1337 30.1337 28 34 28C37.8663 28 41 31.1337 41 35Z" fill="#00AB4E"/>
<path fill-rule="evenodd" clip-rule="evenodd" d="M36.8393 32.0508H38.1978C38.6768 32.0508 39.0495 32.431 38.9946 32.8641L38.4317 37.3033C38.3849 37.6717 38.0424 37.9492 37.6349 37.9492H32.3125C31.8321 37.9492 31.4609 37.5677 31.5157 37.1361L32.0788 32.6969C32.1254 32.3285 32.4681 32.0508 32.8756 32.0508H34.3387L34.1207 33.948C34.1005 34.1197 34.2492 34.2715 34.441 34.2715H36.2938C36.4588 34.2715 36.5972 34.158 36.6144 34.0088L36.8393 32.0508ZM34.9841 32.0724H36.189L36.0036 33.6855H34.7987L34.9841 32.0724ZM29 33.5C29 33.2239 29.2239 33 29.5 33H30.5C30.7761 33 31 33.2239 31 33.5C31 33.7761 30.7761 34 30.5 34H29.5C29.2239 34 29 33.7761 29 33.5ZM28.5 35C28.2239 35 28 35.2239 28 35.5C28 35.7761 28.2239 36 28.5 36H30.5C30.7761 36 31 35.7761 31 35.5C31 35.2239 30.7761 35 30.5 35H28.5Z" fill="white"/>
</svg>
