<svg width="52" height="52" viewBox="0 0 52 52" fill="none" xmlns="http://www.w3.org/2000/svg">
<g filter="url(#filter0_dd_1208_5093)">
<circle cx="26" cy="24" r="20" fill="white"/>
<path d="M29.0025 27.8725L25.1225 23.9925L29.0025 20.1125C29.3925 19.7225 29.3925 19.0925 29.0025 18.7025C28.6125 18.3125 27.9825 18.3125 27.5925 18.7025L23.0025 23.2925C22.6125 23.6825 22.6125 24.3125 23.0025 24.7025L27.5925 29.2925C27.9825 29.6825 28.6125 29.6825 29.0025 29.2925C29.3825 28.9025 29.3925 28.2625 29.0025 27.8725Z" fill="black"/>
<mask id="mask0_1208_5093" style="mask-type:luminance" maskUnits="userSpaceOnUse" x="22" y="18" width="8" height="12">
<path d="M29.0025 27.8725L25.1225 23.9925L29.0025 20.1125C29.3925 19.7225 29.3925 19.0925 29.0025 18.7025C28.6125 18.3125 27.9825 18.3125 27.5925 18.7025L23.0025 23.2925C22.6125 23.6825 22.6125 24.3125 23.0025 24.7025L27.5925 29.2925C27.9825 29.6825 28.6125 29.6825 29.0025 29.2925C29.3825 28.9025 29.3925 28.2625 29.0025 27.8725Z" fill="white"/>
</mask>
<g mask="url(#mask0_1208_5093)">
<rect x="14" y="12" width="24" height="24" fill="#939597"/>
</g>
</g>
<defs>
<filter id="filter0_dd_1208_5093" x="0" y="0" width="52" height="52" filterUnits="userSpaceOnUse" color-interpolation-filters="sRGB">
<feFlood flood-opacity="0" result="BackgroundImageFix"/>
<feColorMatrix in="SourceAlpha" type="matrix" values="0 0 0 0 0 0 0 0 0 0 0 0 0 0 0 0 0 0 127 0" result="hardAlpha"/>
<feOffset/>
<feGaussianBlur stdDeviation="1"/>
<feColorMatrix type="matrix" values="0 0 0 0 0 0 0 0 0 0 0 0 0 0 0 0 0 0 0.08 0"/>
<feBlend mode="normal" in2="BackgroundImageFix" result="effect1_dropShadow_1208_5093"/>
<feColorMatrix in="SourceAlpha" type="matrix" values="0 0 0 0 0 0 0 0 0 0 0 0 0 0 0 0 0 0 127 0" result="hardAlpha"/>
<feOffset dy="2"/>
<feGaussianBlur stdDeviation="3"/>
<feColorMatrix type="matrix" values="0 0 0 0 0 0 0 0 0 0 0 0 0 0 0 0 0 0 0.14 0"/>
<feBlend mode="normal" in2="effect1_dropShadow_1208_5093" result="effect2_dropShadow_1208_5093"/>
<feBlend mode="normal" in="SourceGraphic" in2="effect2_dropShadow_1208_5093" result="shape"/>
</filter>
</defs>
</svg>
