<svg width="48" height="48" viewBox="0 0 48 48" fill="none" xmlns="http://www.w3.org/2000/svg">
<path fill-rule="evenodd" clip-rule="evenodd" d="M18.6592 7.82005C18.7461 7.34505 19.16 7 19.6429 7L30.0885 7C30.791 7 31.2745 7.70519 31.0213 8.36041L26.6646 19.6362C26.4114 20.2914 26.8949 20.9966 27.5974 20.9966H32.444C32.6891 20.9966 32.8307 21.2746 32.6867 21.4729L18.7707 40.6293C18.5868 40.8824 18.1867 40.7202 18.231 40.4105L19.9863 28.1372C20.0724 27.5347 19.605 26.9956 18.9964 26.9956H16.3508C15.7264 26.9956 15.2548 26.4298 15.3671 25.8157L18.6592 7.82005Z" fill="#CC9D3F"/>
<mask id="mask0_0_10981" style="mask-type:alpha" maskUnits="userSpaceOnUse" x="15" y="7" width="18" height="34">
<path fill-rule="evenodd" clip-rule="evenodd" d="M18.6592 7.82005C18.7461 7.34505 19.16 7 19.6429 7L30.0885 7C30.791 7 31.2745 7.70519 31.0213 8.36041L26.6646 19.6362C26.4114 20.2914 26.8949 20.9966 27.5974 20.9966H32.444C32.6891 20.9966 32.8307 21.2746 32.6867 21.4729L18.7707 40.6293C18.5868 40.8824 18.1867 40.7202 18.231 40.4105L19.9863 28.1372C20.0724 27.5347 19.605 26.9956 18.9964 26.9956H16.3508C15.7264 26.9956 15.2548 26.4298 15.3671 25.8157L18.6592 7.82005Z" fill="white"/>
</mask>
<g mask="url(#mask0_0_10981)">
<path fill-rule="evenodd" clip-rule="evenodd" d="M21.473 8.82022C21.5598 8.34514 21.9737 8 22.4567 8L33.0477 8C33.7611 8 34.245 8.72555 33.971 9.38418L29.7149 19.6124C29.4409 20.271 29.9248 20.9966 30.6382 20.9966H35.444C35.6891 20.9966 35.8307 21.2746 35.6867 21.4729L21.7707 40.6293C21.5868 40.8824 21.1867 40.7202 21.231 40.4105L22.9863 28.1372C23.0724 27.5347 22.605 26.9956 21.9964 26.9956H19.3506C18.7263 26.9956 18.2546 26.43 18.3669 25.8159L21.473 8.82022Z" fill="#FFC54F"/>
</g>
</svg>
