<svg width="48" height="48" viewBox="0 0 48 48" fill="none" xmlns="http://www.w3.org/2000/svg">
<path fill-rule="evenodd" clip-rule="evenodd" d="M12 9.60189C12 8.10893 13.0978 6.84317 14.5757 6.63204L29.5757 4.48918C31.383 4.23099 33 5.63338 33 7.45903V37C33 38.6569 31.6569 40 30 40H15C13.3431 40 12 38.6569 12 37L12 9.60189Z" fill="#00662E"/>
<mask id="mask0_0_11670" style="mask-type:alpha" maskUnits="userSpaceOnUse" x="12" y="4" width="21" height="36">
<path fill-rule="evenodd" clip-rule="evenodd" d="M12 9.60189C12 8.10893 13.0978 6.84317 14.5757 6.63204L29.5757 4.48918C31.383 4.23099 33 5.63338 33 7.45903V37C33 38.6569 31.6569 40 30 40H15C13.3431 40 12 38.6569 12 37L12 9.60189Z" fill="white"/>
</mask>
<g mask="url(#mask0_0_11670)">
<path fill-rule="evenodd" clip-rule="evenodd" d="M12 9.56348C12 8.08726 13.074 6.83043 14.5321 6.60019L28.6881 4.36504C29.902 4.17337 31 5.1116 31 6.34057V37C31 38.6569 29.6569 40 28 40H15C13.3431 40 12 38.6569 12 37L12 9.56348Z" fill="#00883E"/>
</g>
<path fill-rule="evenodd" clip-rule="evenodd" d="M12 10C12 8.34315 13.3431 7 15 7H33C34.6569 7 36 8.34315 36 10V40C36 41.6569 34.6569 43 33 43H15C13.3431 43 12 41.6569 12 40V10Z" fill="#00883E"/>
<mask id="mask1_0_11670" style="mask-type:alpha" maskUnits="userSpaceOnUse" x="12" y="7" width="24" height="36">
<path fill-rule="evenodd" clip-rule="evenodd" d="M12 10C12 8.34315 13.3431 7 15 7H33C34.6569 7 36 8.34315 36 10V40C36 41.6569 34.6569 43 33 43H15C13.3431 43 12 41.6569 12 40V10Z" fill="white"/>
</mask>
<g mask="url(#mask1_0_11670)">
<rect x="9" y="7" width="24" height="36" rx="3" fill="#00AB4E"/>
<path fill-rule="evenodd" clip-rule="evenodd" d="M15 19.5C15 15.3578 18.3582 12 22.5 12C26.6404 12.0048 29.9956 15.36 30 19.5C30 23.6422 26.6422 27 22.5 27C18.3582 27 15 23.6422 15 19.5ZM16.5751 18.5845C16.5267 18.8873 16.5015 19.1935 16.5 19.5C16.5015 19.8069 16.5267 20.113 16.5751 20.4159L18.4299 20.8282C18.7141 20.8912 19.0009 20.944 19.288 20.9934C19.2151 19.9991 19.2151 19.0009 19.288 18.007C19.0009 18.0564 18.7141 18.1088 18.4299 18.1718L16.5751 18.5845ZM20.8096 17.8103C21.9338 17.71 23.0651 17.71 24.1893 17.8103C24.2897 18.9346 24.2897 20.0654 24.1893 21.1897C23.0651 21.2904 21.9338 21.2904 20.8096 21.1897C20.7092 20.0654 20.7092 18.9346 20.8096 17.8103ZM26.5675 18.1718C26.2833 18.1088 25.9966 18.0564 25.7095 18.007C25.782 19.0012 25.782 19.9995 25.7095 20.9941C25.9966 20.944 26.2833 20.8912 26.5675 20.8282L28.422 20.4159C28.526 19.8098 28.526 19.1906 28.422 18.5845L26.5675 18.1718ZM27.9159 16.9358L26.8931 16.7109C26.443 16.6117 25.9929 16.533 25.5385 16.4648C25.4696 16.0104 25.3883 15.5581 25.2916 15.1102L25.0668 14.0874C26.3152 14.6818 27.3212 15.6874 27.9159 16.9358ZM23.8282 15.4329L23.4159 13.5773C22.8102 13.4744 22.1909 13.4744 21.5852 13.5773L21.1729 15.4329C21.1088 15.717 21.0564 16.0034 21.007 16.2909C22.0012 16.218 22.9999 16.218 23.9941 16.2909C23.9447 16.0034 23.8916 15.717 23.8282 15.4329ZM19.9358 14.0845L19.7109 15.1073C19.6121 15.5574 19.5333 16.0074 19.4648 16.4619C19.0104 16.53 18.5581 16.6117 18.1106 16.708L17.0874 16.9329C17.6821 15.6848 18.6874 14.6792 19.9351 14.0845H19.9358ZM18.1088 22.2894L17.0859 22.0642H17.0837C17.6788 23.3126 18.6855 24.3186 19.9343 24.913L19.7095 23.8898C19.6135 23.4423 19.5315 22.99 19.4634 22.5352C19.0089 22.467 18.5588 22.3883 18.1088 22.2894ZM21.5859 25.4227L21.1736 23.5675C21.1095 23.2837 21.0571 22.9966 21.0077 22.7102C21.5043 22.7461 22.0031 22.771 22.5018 22.771C23.0002 22.771 23.4976 22.7461 23.9949 22.7102C23.9454 22.9966 23.8923 23.2837 23.8293 23.5675L23.4166 25.4227C22.8109 25.526 22.1917 25.526 21.5859 25.4227ZM25.0662 24.9151L25.066 24.9159H25.0646C25.0651 24.9156 25.0657 24.9154 25.0662 24.9151ZM25.0662 24.9151C26.3142 24.3207 27.3203 23.3154 27.9152 22.0675L26.8923 22.2924C26.4445 22.3883 25.9915 22.47 25.5377 22.5385C25.4685 22.9929 25.3905 23.443 25.2909 23.8927L25.0662 24.9151Z" fill="#00883E"/>
<rect x="16.5" y="30" width="12" height="2.5" rx="1.25" fill="#BFD730"/>
<rect x="17.5" y="35" width="10" height="2.5" rx="1.25" fill="#BFD730"/>
</g>
</svg>
