<svg width="24" height="24" viewBox="0 0 24 24" fill="none" xmlns="http://www.w3.org/2000/svg">
<path fill-rule="evenodd" clip-rule="evenodd" d="M11.9868 2C17.5294 1.99984 21.996 6.45911 22 11.9969C22.0041 17.5049 17.5248 21.9976 12.0267 22C6.46411 22.0024 1.99687 17.538 2 11.9794C2.00306 6.46005 6.46622 2.00023 11.9868 2ZM16.6709 8.91845L16.6709 8.9185C16.7794 8.97921 16.8604 9.02457 16.9396 9.07286C17.1382 9.19385 17.3186 9.24843 17.4722 9.00105C17.6355 8.73832 17.4722 8.63378 17.2723 8.52038C15.2687 7.38458 13.1409 6.80141 10.8212 7.0527C9.35682 7.21136 8.00368 7.68999 6.75149 8.45828C6.73511 8.46834 6.71829 8.4783 6.70138 8.48832L6.70134 8.48834C6.52901 8.59041 6.34657 8.69847 6.51669 8.968C6.69823 9.25567 6.88571 9.13484 7.08107 9.00894L7.10784 8.99173C7.18276 8.94376 7.26146 8.90169 7.36098 8.84849L7.36098 8.84849L7.361 8.84848C7.41241 8.82099 7.46938 8.79054 7.53425 8.75476C7.50684 8.82184 7.48403 8.87844 7.46396 8.92824L7.4639 8.92839C7.42822 9.01694 7.4012 9.08398 7.37241 9.15023L7.30631 9.30234L7.30497 9.30544C6.48082 11.202 5.65672 13.0986 4.83127 14.9946C4.54075 15.6618 4.64922 16.0228 5.28064 16.4006C5.46928 16.5135 5.67336 16.6099 5.8819 16.6789C7.17124 17.1053 8.47218 17.0948 9.77696 16.7529C10.0811 16.6731 10.3662 16.5423 10.6321 16.3745C11.2049 16.0133 11.3102 15.6416 11.0389 15.0194C10.7448 14.3446 10.4517 13.6693 10.1585 12.994C9.54365 11.5774 8.92874 10.1609 8.30431 8.7485C8.1779 8.46267 8.25525 8.38076 8.51465 8.2806C10.8274 7.38771 13.1267 7.44167 15.4288 8.32531C15.7444 8.44646 15.7657 8.57473 15.638 8.86354C14.9765 10.3591 14.3245 11.8588 13.6725 13.3585L13.6719 13.36C13.4514 13.8671 13.231 14.3743 13.0101 14.8813C12.6516 15.7045 12.7944 16.1203 13.6078 16.5106C14.6161 16.9943 15.6921 17.0595 16.7844 16.9601C17.4773 16.8969 18.1538 16.7587 18.7544 16.3781C19.3299 16.0136 19.4409 15.641 19.1716 15.0253C18.7383 14.0344 18.307 13.0426 17.8759 12.0508C17.5759 11.3603 17.2764 10.6697 16.9643 9.95012L16.467 8.80371C16.5457 8.84836 16.6123 8.88565 16.6709 8.91845ZM7.95995 9.39456L10.3571 14.9118H9.64498L8.70018 14.9117C7.73789 14.9116 6.77557 14.9114 5.81325 14.9137L5.79088 14.9138C5.62241 14.9148 5.49858 14.9154 5.6076 14.6674C6.12259 13.4953 6.6336 12.3216 7.14461 11.1478L7.1447 11.1476C7.38666 10.5919 7.62862 10.0361 7.871 9.48054C7.87686 9.46715 7.88929 9.45659 7.91035 9.43869C7.9234 9.4276 7.93977 9.4137 7.95995 9.39456ZM16.5657 10.4933C16.4078 10.1307 16.2494 9.7669 16.0903 9.40137C16.0711 9.41905 16.0537 9.43294 16.0387 9.44494C16.0122 9.46605 15.9931 9.48131 15.9845 9.50113C15.7093 10.1343 15.4346 10.7677 15.16 11.401C14.6895 12.4863 14.2189 13.5716 13.7454 14.6556C13.6428 14.8905 13.7389 14.9153 13.9415 14.9146C15.3491 14.9097 16.7568 14.9062 18.1643 14.9165C18.4696 14.9188 18.4433 14.8099 18.3461 14.5946C18.1802 14.2273 18.0219 13.8564 17.8637 13.4856C17.7769 13.282 17.6901 13.0785 17.602 12.8756C17.258 12.0831 16.9131 11.2911 16.5657 10.4933Z" fill="#009E3D"/>
<mask id="mask0_0_6388" style="mask-type:alpha" maskUnits="userSpaceOnUse" x="2" y="2" width="20" height="20">
<path fill-rule="evenodd" clip-rule="evenodd" d="M11.9868 2C17.5294 1.99984 21.996 6.45911 22 11.9969C22.0041 17.5049 17.5248 21.9976 12.0267 22C6.46411 22.0024 1.99687 17.538 2 11.9794C2.00306 6.46005 6.46622 2.00023 11.9868 2ZM16.6709 8.91845L16.6709 8.9185C16.7794 8.97921 16.8604 9.02457 16.9396 9.07286C17.1382 9.19385 17.3186 9.24843 17.4722 9.00105C17.6355 8.73832 17.4722 8.63378 17.2723 8.52038C15.2687 7.38458 13.1409 6.80141 10.8212 7.0527C9.35682 7.21136 8.00368 7.68999 6.75149 8.45828C6.73511 8.46834 6.71829 8.4783 6.70138 8.48832L6.70134 8.48834C6.52901 8.59041 6.34657 8.69847 6.51669 8.968C6.69823 9.25567 6.88571 9.13484 7.08107 9.00894L7.10784 8.99173C7.18276 8.94376 7.26146 8.90169 7.36098 8.84849L7.36098 8.84849L7.361 8.84848C7.41241 8.82099 7.46938 8.79054 7.53425 8.75476C7.50684 8.82184 7.48403 8.87844 7.46396 8.92824L7.4639 8.92839C7.42822 9.01694 7.4012 9.08398 7.37241 9.15023L7.30631 9.30234L7.30497 9.30544C6.48082 11.202 5.65672 13.0986 4.83127 14.9946C4.54075 15.6618 4.64922 16.0228 5.28064 16.4006C5.46928 16.5135 5.67336 16.6099 5.8819 16.6789C7.17124 17.1053 8.47218 17.0948 9.77696 16.7529C10.0811 16.6731 10.3662 16.5423 10.6321 16.3745C11.2049 16.0133 11.3102 15.6416 11.0389 15.0194C10.7448 14.3446 10.4517 13.6693 10.1585 12.994C9.54365 11.5774 8.92874 10.1609 8.30431 8.7485C8.1779 8.46267 8.25525 8.38076 8.51465 8.2806C10.8274 7.38771 13.1267 7.44167 15.4288 8.32531C15.7444 8.44646 15.7657 8.57473 15.638 8.86354C14.9765 10.3591 14.3245 11.8588 13.6725 13.3585L13.6719 13.36C13.4514 13.8671 13.231 14.3743 13.0101 14.8813C12.6516 15.7045 12.7944 16.1203 13.6078 16.5106C14.6161 16.9943 15.6921 17.0595 16.7844 16.9601C17.4773 16.8969 18.1538 16.7587 18.7544 16.3781C19.3299 16.0136 19.4409 15.641 19.1716 15.0253C18.7383 14.0344 18.307 13.0426 17.8759 12.0508C17.5759 11.3603 17.2764 10.6697 16.9643 9.95012L16.467 8.80371C16.5457 8.84836 16.6123 8.88565 16.6709 8.91845ZM7.95995 9.39456L10.3571 14.9118H9.64498L8.70018 14.9117C7.73789 14.9116 6.77557 14.9114 5.81325 14.9137L5.79088 14.9138C5.62241 14.9148 5.49858 14.9154 5.6076 14.6674C6.12259 13.4953 6.6336 12.3216 7.14461 11.1478L7.1447 11.1476C7.38666 10.5919 7.62862 10.0361 7.871 9.48054C7.87686 9.46715 7.88929 9.45659 7.91035 9.43869C7.9234 9.4276 7.93977 9.4137 7.95995 9.39456ZM16.5657 10.4933C16.4078 10.1307 16.2494 9.7669 16.0903 9.40137C16.0711 9.41905 16.0537 9.43294 16.0387 9.44494C16.0122 9.46605 15.9931 9.48131 15.9845 9.50113C15.7093 10.1343 15.4346 10.7677 15.16 11.401C14.6895 12.4863 14.2189 13.5716 13.7454 14.6556C13.6428 14.8905 13.7389 14.9153 13.9415 14.9146C15.3491 14.9097 16.7568 14.9062 18.1643 14.9165C18.4696 14.9188 18.4433 14.8099 18.3461 14.5946C18.1802 14.2273 18.0219 13.8564 17.8637 13.4856C17.7769 13.282 17.6901 13.0785 17.602 12.8756C17.258 12.0831 16.9131 11.2911 16.5657 10.4933Z" fill="white"/>
</mask>
<g mask="url(#mask0_0_6388)">
<rect x="-8" y="-6.33331" width="40" height="40" fill="#00AB4E"/>
</g>
</svg>
