<svg width="64" height="64" viewBox="0 0 64 64" fill="none" xmlns="http://www.w3.org/2000/svg">
<path d="M32 64C49.6731 64 64 49.6731 64 32C64 14.3269 49.6731 0 32 0C14.3269 0 0 14.3269 0 32C0 49.6731 14.3269 64 32 64Z" fill="#FFF9ED"/>
<path fill-rule="evenodd" clip-rule="evenodd" d="M16.8101 46.0901C16.2701 46.0101 16.1401 45.9801 16.0301 45.8701C15.9201 45.76 15.8501 45.6 15.8501 45.14V23.45C15.8501 23.14 16.1001 22.9 16.4001 22.9C27.9101 25.55 37.0601 19.62 48.5801 22.27C49.0901 22.43 49.1901 22.54 49.2901 22.64C49.3801 22.74 49.4701 23 49.4701 23.23C49.4701 31.92 49.4701 39.19 49.4701 45.01C49.4701 45.23 49.3201 45.4401 49.1101 45.4C49.0801 45.4 49.0601 45.39 49.0301 45.38C37.5201 42.73 30.6201 48.16 16.8001 46.1L16.8101 46.0901Z" fill="#946F25"/>
<path d="M23.19 47.0101C21.2 47.0101 19.08 46.8701 16.74 46.5201C16.17 46.4401 15.94 46.3901 15.72 46.1701C15.46 45.9201 15.41 45.5701 15.41 45.1301V23.4401C15.41 22.8901 15.86 22.4401 16.41 22.4401H16.51C22.18 23.7601 27.39 22.9301 32.43 22.1301C37.55 21.3201 42.85 20.4701 48.69 21.8201C49.3 22.0101 49.47 22.1601 49.62 22.3201C49.83 22.5401 49.92 22.9401 49.92 23.2101V44.9901C49.92 45.2601 49.81 45.5101 49.62 45.6701C49.45 45.8101 49.24 45.8601 49.03 45.8101C48.99 45.8101 48.96 45.7901 48.92 45.7801C43.18 44.4601 38.56 45.1901 33.67 45.9601C30.41 46.4701 27.07 47.0001 23.2 47.0001L23.19 47.0101ZM16.87 45.6501C23.62 46.6601 28.65 45.8601 33.52 45.1001C38.48 44.3201 43.16 43.5801 49.02 44.9101V23.2201C49.02 23.1001 48.97 22.9601 48.95 22.9201C48.91 22.8801 48.85 22.8101 48.44 22.6801C42.8 21.3801 37.59 22.2101 32.55 23.0101C27.45 23.8201 22.17 24.6601 16.36 23.3401C16.31 23.3501 16.28 23.4001 16.28 23.4501V45.1401C16.28 45.4801 16.32 45.5501 16.32 45.5501C16.38 45.5801 16.7 45.6301 16.86 45.6501H16.87Z" fill="#252528"/>
<path fill-rule="evenodd" clip-rule="evenodd" d="M12.7701 41.71C12.2301 41.63 12.1001 41.6 11.9901 41.5C11.8801 41.4 11.8101 41.24 11.8101 40.8V19.99C11.8101 19.68 12.0601 19.44 12.3601 19.44C23.8701 21.99 33.0201 16.29 44.5401 18.83C45.0501 18.98 45.1501 19.09 45.2501 19.18C45.3401 19.28 45.4301 19.53 45.4301 19.74C45.4301 28.08 45.4301 35.07 45.4301 40.66C45.4301 40.87 45.2901 41.07 45.0801 41.03C45.0501 41.03 45.0201 41.02 44.9901 41.01C33.4801 38.46 26.5801 43.68 12.7601 41.7L12.7701 41.71Z" fill="#FFC54F"/>
<path d="M19.3401 42.61C17.3501 42.61 15.2301 42.48 12.9001 42.14C12.3401 42.06 12.1001 42.02 11.8801 41.81C11.6201 41.56 11.5701 41.22 11.5701 40.79V19.98C11.5701 19.43 12.0201 18.98 12.5701 18.98H12.6701C18.3501 20.25 23.5601 19.45 28.6001 18.68C33.7201 17.9 39.0101 17.09 44.8501 18.38C45.4601 18.56 45.6301 18.7 45.7801 18.86C45.9901 19.08 46.0901 19.46 46.0901 19.73C46.0901 28.07 46.0901 35.06 46.0901 40.65C46.0901 40.91 45.9801 41.15 45.8001 41.3C45.6401 41.44 45.4401 41.49 45.2301 41.45C45.1901 41.45 45.1401 41.43 45.1001 41.42C39.3601 40.15 34.7301 40.85 29.8401 41.59C26.5801 42.08 23.2401 42.59 19.3701 42.59L19.3401 42.61ZM13.0201 41.27C19.7801 42.24 24.8101 41.48 29.6801 40.74C34.6401 39.99 39.3201 39.28 45.1801 40.56C45.1801 34.97 45.1801 28.03 45.1801 19.74C45.1801 19.63 45.1301 19.5 45.1101 19.47C45.0701 19.43 45.0101 19.36 44.6001 19.24C38.9601 17.99 33.7401 18.79 28.7001 19.56C23.6001 20.34 18.3301 21.14 12.5101 19.87C12.4601 19.88 12.4301 19.93 12.4301 19.98V40.79C12.4301 41.09 12.4701 41.16 12.4701 41.17C12.5301 41.2 12.8501 41.25 13.0101 41.27H13.0201Z" fill="#252528"/>
<path fill-rule="evenodd" clip-rule="evenodd" d="M28.6201 36.39C25.2101 36.39 22.4501 33.63 22.4501 30.22C22.4501 26.81 25.2101 24.05 28.6201 24.05C32.0301 24.05 34.7901 26.81 34.7901 30.22C34.7901 33.63 32.0301 36.39 28.6201 36.39Z" fill="#CC9D3F"/>
<path d="M42.23 23.06H37.88C37.42 23.06 37.05 22.69 37.05 22.23C37.05 21.77 37.42 21.4 37.88 21.4H42.23C42.69 21.4 43.06 21.77 43.06 22.23C43.06 22.69 42.69 23.06 42.23 23.06Z" fill="white"/>
<path d="M19.2401 39.4801H14.8901C14.4301 39.4801 14.0601 39.1101 14.0601 38.6501C14.0601 38.1901 14.4301 37.8201 14.8901 37.8201H19.2401C19.7001 37.8201 20.0701 38.1901 20.0701 38.6501C20.0701 39.1101 19.7001 39.4801 19.2401 39.4801Z" fill="white"/>
<path d="M45.3901 50.2901C40.4001 50.2901 36.3401 46.2301 36.3401 41.2401C36.3401 36.2501 40.4001 32.1901 45.3901 32.1901C50.3801 32.1901 54.4401 36.2501 54.4401 41.2401C54.4401 46.2301 50.3801 50.2901 45.3901 50.2901ZM45.3901 33.0701C40.8801 33.0701 37.2201 36.7401 37.2201 41.2401C37.2201 45.7401 40.8901 49.41 45.3901 49.41C49.8901 49.41 53.5601 45.7401 53.5601 41.2401C53.5601 36.7401 49.8901 33.0701 45.3901 33.0701Z" fill="#252528"/>
<path d="M28.4601 36.7901C24.8101 36.7901 21.8501 33.8301 21.8501 30.1801C21.8501 26.5301 24.8201 23.5701 28.4601 23.5701C32.1001 23.5701 35.0701 26.5401 35.0701 30.1801C35.0701 33.8201 32.1101 36.7901 28.4601 36.7901ZM28.4601 24.4501C25.3001 24.4501 22.7301 27.0201 22.7301 30.1801C22.7301 33.3401 25.3001 35.9101 28.4601 35.9101C31.6201 35.9101 34.1901 33.3401 34.1901 30.1801C34.1901 27.0201 31.6201 24.4501 28.4601 24.4501Z" fill="#252528"/>
<path d="M41.5101 47.8601C39.8101 46.8601 38.5401 45.2301 38.0001 43.2901C37.8201 42.6401 37.7201 41.9501 37.7201 41.2401C37.7201 37.0001 41.1501 33.5701 45.3901 33.5701C49.6301 33.5701 53.0601 37.0001 53.0601 41.2401C53.0601 45.4801 49.6301 48.91 45.3901 48.91C43.9701 48.91 42.6501 48.5301 41.5101 47.8501V47.8601Z" fill="#00AB4E"/>
<path d="M45.3901 49.4101C43.9301 49.4101 42.5001 49.0201 41.2501 48.2901C39.4101 47.2101 38.0801 45.4801 37.5101 43.4301C37.3101 42.7301 37.2101 41.9901 37.2101 41.2501C37.2101 36.7501 40.8701 33.0801 45.3801 33.0801C49.8901 33.0801 53.5501 36.7401 53.5501 41.2501C53.5501 45.7601 49.8901 49.4201 45.3801 49.4201L45.3901 49.4101ZM45.3901 34.0601C41.4301 34.0601 38.2101 37.2801 38.2101 41.2401C38.2101 41.9001 38.3001 42.5401 38.4701 43.1601C38.9701 44.9701 40.1401 46.4801 41.7501 47.4301C42.8501 48.0801 44.1001 48.4201 45.3801 48.4201C49.3401 48.4201 52.5601 45.2001 52.5601 41.2401C52.5601 37.2801 49.3401 34.0601 45.3801 34.0601H45.3901Z" fill="white"/>
<path d="M45.39 45.3C44.84 45.3 44.4 44.8601 44.4 44.3101V38.17C44.4 37.62 44.84 37.1801 45.39 37.1801C45.94 37.1801 46.38 37.62 46.38 38.17V44.3101C46.38 44.8601 45.94 45.3 45.39 45.3Z" fill="white"/>
<path d="M48.4601 42.2301H42.3201C41.7701 42.2301 41.3301 41.7901 41.3301 41.2401C41.3301 40.6901 41.7701 40.2501 42.3201 40.2501H48.4601C49.0101 40.2501 49.4501 40.6901 49.4501 41.2401C49.4501 41.7901 49.0101 42.2301 48.4601 42.2301Z" fill="white"/>
</svg>
