<svg width="64" height="64" viewBox="0 0 64 64" fill="none" xmlns="http://www.w3.org/2000/svg">
<path d="M32 63.58C49.5571 63.58 63.79 49.3472 63.79 31.79C63.79 14.2329 49.5571 0 32 0C14.4428 0 0.209961 14.2329 0.209961 31.79C0.209961 49.3472 14.4428 63.58 32 63.58Z" fill="#E6F6F3"/>
<path d="M24.9299 41.08H12.5899C12.2599 41.08 11.9799 40.8101 11.9499 40.4801L11.6699 36.91C11.6699 36.81 11.6699 36.7001 11.7199 36.6101L18.4099 20.8501C18.5099 20.6101 18.7399 20.45 19.0099 20.46C19.2699 20.46 19.4999 20.6201 19.5999 20.8701L25.7699 36.5C25.7999 36.59 25.8199 36.68 25.8099 36.78L25.5599 40.4901C25.5399 40.8301 25.2599 41.09 24.9199 41.09L24.9299 41.08ZM13.1899 39.7901H24.3299L24.5299 36.83L18.9899 22.7901L12.9699 36.97L13.1899 39.8001V39.7901Z" fill="#252528"/>
<path fill-rule="evenodd" clip-rule="evenodd" d="M26.75 36.88V39.25C26.75 42.77 23.36 45.6201 19.19 45.6201C18.7 45.6201 18.23 45.58 17.76 45.51C14.27 44.95 11.63 42.36 11.63 39.25V36.88H26.75Z" fill="#004D43"/>
<path fill-rule="evenodd" clip-rule="evenodd" d="M24.59 36.88V39.25C24.59 42.36 21.72 44.96 17.91 45.51C14.12 44.95 11.25 42.36 11.25 39.25V36.88H24.59Z" fill="#407972"/>
<path d="M19.2 46.05C18.69 46.05 18.21 46.01 17.71 45.93C17.13 45.84 16.54 45.68 15.97 45.46C12.85 44.38 10.83 41.9399 10.83 39.2499V36.8799C10.83 36.6399 11.02 36.45 11.26 36.45H26.76C27 36.45 27.19 36.6399 27.19 36.8799V39.2499C27.19 42.9999 23.61 46.05 19.2 46.05ZM11.68 37.31V39.2499C11.68 41.5699 13.48 43.69 16.25 44.66C16.78 44.86 17.31 45 17.84 45.09C18.29 45.16 18.74 45.2 19.2 45.2C23.13 45.2 26.33 42.5299 26.33 39.2499V37.31H11.68Z" fill="#252528"/>
<path d="M47.3899 41.07H37.0299C36.7799 41.07 36.5599 40.93 36.4499 40.71L34.7799 37.2401C34.6999 37.0701 34.6999 36.88 34.7699 36.71L41.4399 20.8501C41.5399 20.6101 41.7699 20.45 42.0399 20.46C42.2999 20.46 42.5299 20.6301 42.6299 20.8701L48.7299 36.7301C48.7699 36.8501 48.7799 36.97 48.7599 37.09L48.0199 40.5601C47.9599 40.8601 47.6999 41.07 47.3899 41.07ZM37.4299 39.7901H46.8699L47.4599 37.01L41.9899 22.82L36.0499 36.94L37.4199 39.7901H37.4299Z" fill="#252528"/>
<path fill-rule="evenodd" clip-rule="evenodd" d="M49.76 36.88V39.25C49.76 42.77 46.37 45.6201 42.2 45.6201C41.71 45.6201 41.24 45.58 40.77 45.51C37.28 44.95 34.64 42.36 34.64 39.25V36.88H49.76Z" fill="#004D43"/>
<path fill-rule="evenodd" clip-rule="evenodd" d="M47.6 36.88V39.25C47.6 42.36 44.73 44.96 40.92 45.51C37.13 44.95 34.26 42.36 34.26 39.25V36.88H47.6Z" fill="#407972"/>
<path fill-rule="evenodd" clip-rule="evenodd" d="M47.5 24.05C47.5 24.38 47.24 24.64 46.91 24.64H45.6199C45.4599 24.64 45.32 24.58 45.2 24.48C44.2 23.58 38.9 19.25 30.26 19.25C22.65 19.25 17.89 22.3101 15.85 23.9901C15.43 24.3401 14.7 24.03 14.7 23.48V21.83C14.7 21.37 14.9099 20.93 15.2999 20.67C17.2999 19.29 24.06 15.04 31.11 15.04C38.67 15.04 45.9 19.94 47.2799 20.92C47.43 21.03 47.5099 21.2 47.5099 21.39V24.05H47.5Z" fill="#004D43"/>
<path fill-rule="evenodd" clip-rule="evenodd" d="M45.8199 23.72C45.8199 24.24 45.1899 24.53 44.7799 24.22C42.6199 22.61 37.2699 19.25 30.2599 19.25C23.2499 19.25 17.4299 22.91 15.4699 24.42C15.1599 24.66 14.6899 24.43 14.6899 24.05V21.7C14.6899 21.32 14.8699 20.96 15.1899 20.75C16.9699 19.59 23.2599 15.83 30.2499 15.76C37.2599 15.7 43.5599 19.57 45.3299 20.75C45.6399 20.96 45.8199 21.31 45.8199 21.69V23.71V23.72Z" fill="#407972"/>
<path d="M46.9 25.5H45.61C45.35 25.5 45.1 25.4 44.91 25.23C44.88 25.2 44.85 25.17 44.81 25.14C44.7 25.11 44.61 25.0601 44.52 24.9901C42.55 23.5201 37.22 20.1 30.26 20.1C23.3 20.1 17.72 23.6601 15.73 25.1801C15.46 25.3901 15.09 25.42 14.77 25.27C14.46 25.12 14.26 24.81 14.26 24.47V22.1201C14.26 21.6101 14.5 21.13 14.91 20.84C14.96 20.79 15 20.76 15.04 20.73C16.99 19.39 23.89 15.03 31.09 15.03C38.78 15.03 46.11 20.0001 47.51 20.9901C47.77 21.1701 47.92 21.48 47.92 21.8V24.46C47.92 25.02 47.46 25.48 46.9 25.48V25.5ZM30.25 19.25C37.47 19.25 42.99 22.78 45.02 24.3C45.02 24.3 45.05 24.32 45.1 24.33L45.2 24.35L45.28 24.42C45.35 24.48 45.42 24.54 45.47 24.58C45.51 24.62 45.56 24.63 45.6 24.63H46.89C46.98 24.63 47.06 24.56 47.06 24.46V21.8C47.06 21.8 47.06 21.7201 47 21.6801C45.64 20.7101 38.51 15.88 31.08 15.88C24.13 15.88 17.41 20.1301 15.52 21.4301C15.49 21.4601 15.47 21.48 15.45 21.5L15.41 21.53C15.22 21.66 15.11 21.8801 15.11 22.1201V24.47C15.11 24.47 15.13 24.5 15.14 24.5C15.14 24.5 15.18 24.52 15.2 24.5C17.25 22.92 22.83 19.2401 30.25 19.2401V19.25Z" fill="#252528"/>
<path fill-rule="evenodd" clip-rule="evenodd" d="M33.3699 17.17C33.3699 18.8 32.1799 20.12 30.6999 20.12C29.2199 20.12 28.0299 18.8 28.0299 17.17C28.0299 15.54 29.2199 14.22 30.6999 14.22C32.1799 14.22 33.3699 15.54 33.3699 17.17Z" fill="#98AC26"/>
<path fill-rule="evenodd" clip-rule="evenodd" d="M32.48 17.17C32.48 18.8 31.29 20.12 29.81 20.12C28.33 20.12 27.14 18.8 27.14 17.17C27.14 15.54 28.33 14.22 29.81 14.22C31.29 14.22 32.48 15.54 32.48 17.17Z" fill="#BFD730"/>
<path d="M31.12 20.45H30.23C28.52 20.45 27.14 18.9399 27.14 17.0699C27.14 15.1999 28.53 13.6899 30.23 13.6899H31.12C32.83 13.6899 34.21 15.1999 34.21 17.0699C34.21 18.9399 32.82 20.45 31.12 20.45ZM30.23 14.55C28.99 14.55 27.99 15.6799 27.99 17.0699C27.99 18.4599 29 19.59 30.23 19.59H31.12C32.36 19.59 33.36 18.4599 33.36 17.0699C33.36 15.6799 32.35 14.55 31.12 14.55H30.23Z" fill="#252528"/>
<path d="M42.24 46.05C41.73 46.05 41.25 46.01 40.75 45.93C40.17 45.84 39.58 45.68 39.01 45.46C35.89 44.38 33.87 41.9399 33.87 39.2499V36.8799C33.87 36.6399 34.06 36.45 34.3 36.45H49.8C50.04 36.45 50.23 36.6399 50.23 36.8799V39.2499C50.23 42.9999 46.65 46.05 42.24 46.05ZM34.72 37.31V39.2499C34.72 41.5699 36.52 43.69 39.29 44.66C39.82 44.86 40.35 45 40.88 45.09C41.33 45.16 41.78 45.2 42.24 45.2C46.17 45.2 49.37 42.5299 49.37 39.2499V37.31H34.72Z" fill="#252528"/>
<path d="M42.5599 47.78C41.0499 46.89 39.9099 45.44 39.4299 43.71C39.2699 43.13 39.1799 42.51 39.1799 41.88C39.1799 38.1 42.2399 35.04 46.0199 35.04C49.7999 35.04 52.8599 38.1 52.8599 41.88C52.8599 45.66 49.7999 48.72 46.0199 48.72C44.7499 48.72 43.5699 48.38 42.5599 47.78Z" fill="#00AB4E"/>
<path d="M46.0299 49.1601C44.7299 49.1601 43.4599 48.8101 42.3399 48.1601C40.6999 47.2001 39.5199 45.6601 39.0099 43.8301C38.8299 43.2101 38.7499 42.5501 38.7499 41.8801C38.7499 37.8601 42.0199 34.6001 46.0299 34.6001C50.0399 34.6001 53.3099 37.8701 53.3099 41.8801C53.3099 45.8901 50.0399 49.1601 46.0299 49.1601ZM46.0299 35.4701C42.4999 35.4701 39.6299 38.3401 39.6299 41.8701C39.6299 42.4601 39.7099 43.0301 39.8599 43.5801C40.3099 45.1901 41.3499 46.5401 42.7899 47.3901C43.7699 47.9701 44.8899 48.2701 46.0299 48.2701C49.5599 48.2701 52.4299 45.4001 52.4299 41.8701C52.4299 38.3401 49.5599 35.4701 46.0299 35.4701Z" fill="white"/>
<path d="M46.0299 45.5C45.5399 45.5 45.1499 45.1001 45.1499 44.6201V39.15C45.1499 38.66 45.5499 38.27 46.0299 38.27C46.5099 38.27 46.9099 38.67 46.9099 39.15V44.6201C46.9099 45.1101 46.5099 45.5 46.0299 45.5Z" fill="white"/>
<path d="M48.7599 42.76H43.2899C42.7999 42.76 42.4099 42.36 42.4099 41.88C42.4099 41.4 42.8099 41 43.2899 41H48.7599C49.2499 41 49.6399 41.4 49.6399 41.88C49.6399 42.36 49.2399 42.76 48.7599 42.76Z" fill="white"/>
<path d="M46.0299 49.98C41.5599 49.98 37.9199 46.3401 37.9199 41.8701C37.9199 37.4001 41.5599 33.76 46.0299 33.76C50.4999 33.76 54.1399 37.4001 54.1399 41.8701C54.1399 46.3401 50.4999 49.98 46.0299 49.98ZM46.0299 34.6201C42.0299 34.6201 38.7799 37.8701 38.7799 41.8701C38.7799 45.8701 42.0299 49.1201 46.0299 49.1201C50.0299 49.1201 53.2799 45.8701 53.2799 41.8701C53.2799 37.8701 50.0299 34.6201 46.0299 34.6201Z" fill="#252528"/>
</svg>
