<svg width="24" height="24" viewBox="0 0 24 24" fill="none" xmlns="http://www.w3.org/2000/svg">
<path d="M7.30473 12.188C8.06862 12.1874 8.80867 11.9388 9.39881 11.4846C9.98895 11.0304 10.3927 10.3986 10.5412 9.69687C10.6897 8.99517 10.5738 8.26695 10.2133 7.63627C9.85278 7.0056 9.26991 6.51148 8.564 6.23811C7.85809 5.96473 7.0728 5.92901 6.34191 6.13702C5.61103 6.34503 4.97976 6.78391 4.55566 7.37889C4.13156 7.97387 3.94085 8.68814 4.01604 9.40002C4.09122 10.1119 4.42764 10.7774 4.96798 11.283C5.27466 11.5705 5.63896 11.7985 6.03997 11.9538C6.44097 12.1091 6.87079 12.1886 7.30473 12.188ZM6.38217 8.23077C6.5956 8.03091 6.87644 7.90653 7.17683 7.87883C7.47721 7.85114 7.77856 7.92183 8.02952 8.07887C8.28048 8.23592 8.46554 8.46959 8.55315 8.74008C8.64076 9.01057 8.62551 9.30114 8.51 9.56228C8.39449 9.82342 8.18586 10.039 7.91966 10.1722C7.65346 10.3055 7.34617 10.3481 7.05013 10.293C6.75409 10.2378 6.48763 10.0883 6.29615 9.86978C6.10467 9.65128 6.00001 9.37737 6.00001 9.09471C5.99954 8.9342 6.03307 8.77519 6.09867 8.62689C6.16427 8.47859 6.26063 8.34395 6.38217 8.23077ZM16.6953 12.8105C15.9307 12.8105 15.1898 13.0587 14.5988 13.5129C14.0078 13.9671 13.6032 14.5992 13.454 15.3014C13.3048 16.0037 13.4203 16.7326 13.7807 17.3641C14.1411 17.9955 14.7242 18.4904 15.4306 18.7644C16.1369 19.0384 16.9229 19.0746 17.6545 18.8667C18.3862 18.6589 19.0183 18.2199 19.443 17.6246C19.8678 17.0293 20.059 16.3144 19.9841 15.6019C19.9091 14.8894 19.5727 14.2232 19.0321 13.7169C18.7259 13.4286 18.3617 13.2001 17.9606 13.0445C17.5595 12.8889 17.1295 12.8094 16.6953 12.8105ZM17.6178 16.7691C17.3728 16.9968 17.0415 17.1243 16.6963 17.1237C16.3511 17.1231 16.0203 16.9944 15.7762 16.7659C15.5321 16.5373 15.3947 16.2275 15.3941 15.9042C15.3934 15.581 15.5296 15.2707 15.7727 15.0413C15.8937 14.9271 16.0376 14.8365 16.1961 14.7745C16.3546 14.7125 16.5246 14.6805 16.6963 14.6802C16.8681 14.6799 17.0382 14.7113 17.1969 14.7727C17.3556 14.8342 17.4999 14.9243 17.6213 15.038C17.7428 15.1518 17.839 15.2868 17.9046 15.4355C17.9702 15.5841 18.0038 15.7434 18.0034 15.9043C18.0031 16.0651 17.9689 16.2243 17.9027 16.3727C17.8365 16.5211 17.7397 16.6559 17.6178 16.7691L17.6178 16.7691ZM18.6481 6.27427C18.7409 6.36123 18.8146 6.46446 18.8649 6.57808C18.9151 6.6917 18.941 6.81347 18.941 6.93645C18.941 7.05943 18.9151 7.1812 18.8649 7.29482C18.8146 7.40844 18.7409 7.51167 18.6481 7.59863L6.76617 18.7256C6.57838 18.9001 6.32441 18.9978 6.05986 18.9974C5.79531 18.9969 5.54174 18.8982 5.35468 18.7231C5.16761 18.5479 5.0623 18.3104 5.06179 18.0627C5.06129 17.8149 5.16563 17.5771 5.35198 17.4013L17.2339 6.27427C17.4214 6.09866 17.6758 6 17.941 6C18.2062 6 18.4606 6.09866 18.6481 6.27427Z" fill="#58585B"/>
</svg>
