<svg width="48" height="48" viewBox="0 0 48 48" fill="none" xmlns="http://www.w3.org/2000/svg">
<ellipse cx="24" cy="37.5" rx="10" ry="3.5" fill="#98AC26"/>
<mask id="mask0_0_6813" style="mask-type:alpha" maskUnits="userSpaceOnUse" x="14" y="34" width="20" height="7">
<ellipse cx="24" cy="37.5" rx="10" ry="3.5" fill="white"/>
</mask>
<g mask="url(#mask0_0_6813)">
<ellipse cx="24" cy="36.5" rx="10" ry="3.5" fill="#BFD730"/>
</g>
<path fill-rule="evenodd" clip-rule="evenodd" d="M16.4977 26.3597L16.3929 26.2185C15.2349 24.6495 14.4342 22.7595 14.1343 20.6914C14.0465 20.088 14 19.471 14 18.8435C14 13.4118 22 7 22 7H25C31.0748 7 36 12.3025 36 18.8435C36 19.471 35.9535 20.088 35.8657 20.6914C35.565 22.7595 34.7651 24.6495 33.6037 26.2185H33.6088L33.5049 26.3554C33.4974 26.3629 33.49 26.3727 33.4826 26.3825C33.4807 26.3849 33.4789 26.3874 33.477 26.3898L25.7509 36.6153C25.5581 36.8698 25.2767 36.998 25 37C24.719 37.002 22 37 22 37L16.5179 26.3881C16.5112 26.3777 16.5044 26.3674 16.4977 26.3597ZM25 24C28.3137 24 31 21.3137 31 18C31 14.6863 28.3137 12 25 12C21.6863 12 19 14.6863 19 18C19 21.3137 21.6863 24 25 24Z" fill="#00883E"/>
<path fill-rule="evenodd" clip-rule="evenodd" d="M13.3929 26.2185C12.2349 24.6495 11.4342 22.7595 11.1343 20.6914C11.0465 20.088 11 19.471 11 18.8435C11 12.3025 15.9252 7 22 7C28.0748 7 33 12.3025 33 18.8435C33 19.471 32.9535 20.088 32.8657 20.6914C32.565 22.7595 31.7651 24.6495 30.6037 26.2185H30.6088L30.5049 26.3554C30.4974 26.3629 30.49 26.3727 30.4826 26.3825C30.4807 26.3849 30.4789 26.3874 30.477 26.3898L22.7509 36.6153C22.3624 37.1282 21.6343 37.1282 21.2483 36.6153L13.5179 26.3881C13.5112 26.3777 13.5044 26.3674 13.4977 26.3597L13.3912 26.2185H13.3929ZM22 24C25.3137 24 28 21.3137 28 18C28 14.6863 25.3137 12 22 12C18.6863 12 16 14.6863 16 18C16 21.3137 18.6863 24 22 24Z" fill="#00AB4E"/>
</svg>
