<svg width="48" height="48" viewBox="0 0 48 48" fill="none" xmlns="http://www.w3.org/2000/svg">
<path d="M15.5 12C15.5 10.6193 16.6193 9.5 18 9.5H30C31.3807 9.5 32.5 10.6193 32.5 12V15.5H15.5V12Z" fill="#0F5895" stroke="#0F5895" stroke-width="3" stroke-linejoin="round"/>
<path d="M17 12C17 10.8954 17.8954 10 19 10H29C30.1046 10 31 10.8954 31 12V18H17V12Z" fill="white"/>
<rect x="7" y="12" width="36" height="27" rx="4" fill="#1868AB"/>
<rect x="5" y="12" width="35" height="27" rx="4" fill="#5297D1"/>
<path d="M8 16C8 13.7909 9.79086 12 12 12H39C41.2091 12 43 13.7909 43 16V22H12C9.79086 22 8 20.2091 8 18V16Z" fill="#0F5895"/>
<path d="M5 16C5 13.7909 6.79086 12 9 12H36C38.2091 12 40 13.7909 40 16V21C40 23.2091 38.2091 25 36 25H9C6.79086 25 5 23.2091 5 21V16Z" fill="#1868AB"/>
<rect x="29" y="22" width="4" height="6" rx="1" fill="#CC9D3F"/>
<rect x="28" y="22" width="4" height="6" rx="1" fill="#FFC54F"/>
<rect x="13" y="22" width="5" height="6" rx="1" fill="#CC9D3F"/>
<rect x="13" y="22" width="4" height="6" rx="1" fill="#FFC54F"/>
</svg>
