<svg width="24" height="24" viewBox="0 0 24 24" fill="none" xmlns="http://www.w3.org/2000/svg">
<circle cx="12" cy="12" r="9.5" stroke="#CACCCF"/>
<mask id="mask0_0_6086" style="mask-type:alpha" maskUnits="userSpaceOnUse" x="2" y="2" width="20" height="20">
<circle cx="12" cy="12" r="9.5" fill="white" stroke="white"/>
</mask>
<g mask="url(#mask0_0_6086)">
<rect width="24" height="24" fill="#58585B"/>
<path fill-rule="evenodd" clip-rule="evenodd" d="M12.9431 6.85613C12.8972 6.37572 12.4925 6 12 6C11.4768 6 11.0527 6.42415 11.0527 6.94737V11.0526H6.94737L6.85613 11.057C6.37572 11.1029 6 11.5076 6 12C6 12.5232 6.42415 12.9474 6.94737 12.9474H11.0527V17.0526L11.057 17.1439C11.1029 17.6243 11.5076 18 12 18C12.5232 18 12.9474 17.5758 12.9474 17.0526V12.9474H17.0526L17.1439 12.943C17.6243 12.8971 18 12.4924 18 12C18 11.4768 17.5758 11.0526 17.0526 11.0526H12.9474V6.94737L12.9431 6.85613Z" fill="#70717D"/>
<mask id="mask1_0_6086" style="mask-type:alpha" maskUnits="userSpaceOnUse" x="6" y="6" width="12" height="12">
<path fill-rule="evenodd" clip-rule="evenodd" d="M12.9431 6.85613C12.8972 6.37572 12.4925 6 12 6C11.4768 6 11.0527 6.42415 11.0527 6.94737V11.0526H6.94737L6.85613 11.057C6.37572 11.1029 6 11.5076 6 12C6 12.5232 6.42415 12.9474 6.94737 12.9474H11.0527V17.0526L11.057 17.1439C11.1029 17.6243 11.5076 18 12 18C12.5232 18 12.9474 17.5758 12.9474 17.0526V12.9474H17.0526L17.1439 12.943C17.6243 12.8971 18 12.4924 18 12C18 11.4768 17.5758 11.0526 17.0526 11.0526H12.9474V6.94737L12.9431 6.85613Z" fill="white"/>
</mask>
<g mask="url(#mask1_0_6086)">
<rect width="16" height="16" transform="translate(4 4)" fill="white"/>
<rect x="4" y="4" width="16" height="16" fill="white"/>
</g>
</g>
</svg>
