<svg width="24" height="24" viewBox="0 0 24 24" fill="none" xmlns="http://www.w3.org/2000/svg">
<path fill-rule="evenodd" clip-rule="evenodd" d="M11.8232 1.00009C8.96506 1.00009 6.70621 3.58223 6.70621 6.70609C6.70621 9.82995 8.96506 12.4121 11.8232 12.4121C14.6815 12.4121 16.9412 9.8298 16.9412 6.70609C16.9412 3.58239 14.6815 1.00009 11.8232 1.00009ZM11.8232 3.00009C13.5131 3.00009 14.9412 4.632 14.9412 6.70609C14.9412 8.78018 13.5131 10.4121 11.8232 10.4121C10.1336 10.4121 8.70621 8.78046 8.70621 6.70609C8.70621 4.63172 10.1336 3.00009 11.8232 3.00009ZM11.8235 13.941C8.72992 13.941 6.263 14.4493 4.36684 15.2959C2.92181 15.9419 1.99951 17.3817 1.99951 18.97C1.99951 21.196 3.80393 23 6.02951 23H17.6175C19.8431 23 21.6475 21.196 21.6475 18.97C21.6475 17.3817 20.7252 15.9419 19.2807 15.2961C17.384 14.4493 14.9171 13.941 11.8235 13.941ZM11.8235 15.941C14.6406 15.941 16.8296 16.392 18.4648 17.1221C19.1849 17.444 19.6475 18.1663 19.6475 18.97C19.6475 20.0913 18.7386 21 17.6175 21H6.02951C4.9084 21 3.99951 20.0913 3.99951 18.97C3.99951 18.1663 4.46215 17.444 5.18268 17.1219C6.81746 16.392 9.00644 15.941 11.8235 15.941Z" fill="#58585B"/>
</svg>
