<svg width="64" height="64" viewBox="0 0 64 64" fill="none" xmlns="http://www.w3.org/2000/svg">
<path d="M32 64C49.6731 64 64 49.6731 64 32C64 14.3269 49.6731 0 32 0C14.3269 0 0 14.3269 0 32C0 49.6731 14.3269 64 32 64Z" fill="#FFF9ED"/>
<path fill-rule="evenodd" clip-rule="evenodd" d="M16.8101 46.09C16.2701 46.01 16.1401 45.98 16.0301 45.87C15.9201 45.76 15.8501 45.6 15.8501 45.14V23.45C15.8501 23.14 16.1001 22.9 16.4001 22.9C27.9101 25.55 37.0601 19.62 48.5801 22.27C49.0901 22.43 49.1901 22.54 49.2901 22.64C49.3801 22.74 49.4701 23 49.4701 23.23C49.4701 31.92 49.4701 39.19 49.4701 45.01C49.4701 45.23 49.3201 45.44 49.1101 45.4C49.0801 45.4 49.0601 45.39 49.0301 45.38C37.5201 42.73 30.6201 48.16 16.8001 46.1L16.8101 46.09Z" fill="#946F25"/>
<path d="M23.19 47.0101C21.2 47.0101 19.08 46.8701 16.74 46.5201C16.17 46.4401 15.94 46.3901 15.72 46.1701C15.46 45.9201 15.41 45.5701 15.41 45.1301V23.4401C15.41 22.8901 15.86 22.4401 16.41 22.4401H16.51C22.18 23.7601 27.39 22.9301 32.43 22.1301C37.55 21.3201 42.85 20.4701 48.69 21.8201C49.3 22.0101 49.47 22.1601 49.62 22.3201C49.83 22.5401 49.92 22.9401 49.92 23.2101V44.9901C49.92 45.2601 49.81 45.5101 49.62 45.6701C49.45 45.8101 49.24 45.8601 49.03 45.8101C48.99 45.8101 48.96 45.7901 48.92 45.7801C43.18 44.4601 38.56 45.1901 33.67 45.9601C30.41 46.4701 27.07 47.0001 23.2 47.0001L23.19 47.0101ZM16.87 45.6501C23.62 46.6601 28.65 45.8601 33.52 45.1001C38.48 44.3201 43.16 43.5801 49.02 44.9101V23.2201C49.02 23.1001 48.97 22.9601 48.95 22.9201C48.91 22.8801 48.85 22.8101 48.44 22.6801C42.8 21.3801 37.59 22.2101 32.55 23.0101C27.45 23.8201 22.17 24.6601 16.36 23.3401C16.31 23.3501 16.28 23.4001 16.28 23.4501V45.1401C16.28 45.4801 16.32 45.5501 16.32 45.5501C16.38 45.5801 16.7 45.6301 16.86 45.6501H16.87Z" fill="#252528"/>
<path fill-rule="evenodd" clip-rule="evenodd" d="M12.7701 41.71C12.2301 41.63 12.1001 41.6 11.9901 41.5C11.8801 41.4 11.8101 41.24 11.8101 40.8V19.99C11.8101 19.68 12.0601 19.44 12.3601 19.44C23.8701 21.99 33.0201 16.29 44.5401 18.83C45.0501 18.98 45.1501 19.09 45.2501 19.18C45.3401 19.28 45.4301 19.53 45.4301 19.74C45.4301 28.08 45.4301 35.07 45.4301 40.66C45.4301 40.87 45.2901 41.07 45.0801 41.03C45.0501 41.03 45.0201 41.02 44.9901 41.01C33.4801 38.46 26.5801 43.68 12.7601 41.7L12.7701 41.71Z" fill="#FFC54F"/>
<path d="M19.3401 42.61C17.3501 42.61 15.2301 42.48 12.9001 42.14C12.3401 42.06 12.1001 42.02 11.8801 41.81C11.6201 41.56 11.5701 41.22 11.5701 40.79V19.98C11.5701 19.43 12.0201 18.98 12.5701 18.98H12.6701C18.3501 20.25 23.5601 19.45 28.6001 18.68C33.7201 17.9 39.0101 17.09 44.8501 18.38C45.4601 18.56 45.6301 18.7 45.7801 18.86C45.9901 19.08 46.0901 19.46 46.0901 19.73C46.0901 28.07 46.0901 35.06 46.0901 40.65C46.0901 40.91 45.9801 41.15 45.8001 41.3C45.6401 41.44 45.4401 41.49 45.2301 41.45C45.1901 41.45 45.1401 41.43 45.1001 41.42C39.3601 40.15 34.7301 40.85 29.8401 41.59C26.5801 42.08 23.2401 42.59 19.3701 42.59L19.3401 42.61ZM13.0201 41.27C19.7801 42.24 24.8101 41.48 29.6801 40.74C34.6401 39.99 39.3201 39.28 45.1801 40.56C45.1801 34.97 45.1801 28.03 45.1801 19.74C45.1801 19.63 45.1301 19.5 45.1101 19.47C45.0701 19.43 45.0101 19.36 44.6001 19.24C38.9601 17.99 33.7401 18.79 28.7001 19.56C23.6001 20.34 18.3301 21.14 12.5101 19.87C12.4601 19.88 12.4301 19.93 12.4301 19.98V40.79C12.4301 41.09 12.4701 41.16 12.4701 41.17C12.5301 41.2 12.8501 41.25 13.0101 41.27H13.0201Z" fill="#252528"/>
<path fill-rule="evenodd" clip-rule="evenodd" d="M28.6201 36.39C25.2101 36.39 22.4501 33.63 22.4501 30.22C22.4501 26.81 25.2101 24.05 28.6201 24.05C32.0301 24.05 34.7901 26.81 34.7901 30.22C34.7901 33.63 32.0301 36.39 28.6201 36.39Z" fill="#CC9D3F"/>
<path d="M42.23 23.06H37.88C37.42 23.06 37.05 22.69 37.05 22.23C37.05 21.77 37.42 21.4 37.88 21.4H42.23C42.69 21.4 43.06 21.77 43.06 22.23C43.06 22.69 42.69 23.06 42.23 23.06Z" fill="white"/>
<path d="M19.2401 39.4801H14.8901C14.4301 39.4801 14.0601 39.1101 14.0601 38.6501C14.0601 38.1901 14.4301 37.8201 14.8901 37.8201H19.2401C19.7001 37.8201 20.0701 38.1901 20.0701 38.6501C20.0701 39.1101 19.7001 39.4801 19.2401 39.4801Z" fill="white"/>
<path d="M28.4601 36.7901C24.8101 36.7901 21.8501 33.8301 21.8501 30.1801C21.8501 26.5301 24.8201 23.5701 28.4601 23.5701C32.1001 23.5701 35.0701 26.5401 35.0701 30.1801C35.0701 33.8201 32.1101 36.7901 28.4601 36.7901ZM28.4601 24.4501C25.3001 24.4501 22.7301 27.0201 22.7301 30.1801C22.7301 33.3401 25.3001 35.9101 28.4601 35.9101C31.6201 35.9101 34.1901 33.3401 34.1901 30.1801C34.1901 27.0201 31.6201 24.4501 28.4601 24.4501Z" fill="#252528"/>
<path d="M41.6201 47.89C39.8701 46.86 38.5501 45.18 38.0001 43.18C37.8101 42.51 37.7101 41.8 37.7101 41.06C37.7101 36.68 41.2501 33.14 45.6301 33.14C50.0101 33.14 53.5501 36.68 53.5501 41.06C53.5501 45.44 50.0101 48.98 45.6301 48.98C44.1601 48.98 42.8001 48.58 41.6201 47.89Z" fill="#5297D1"/>
<path d="M45.6301 49.49C44.1301 49.49 42.6501 49.09 41.3601 48.33C39.4601 47.21 38.0901 45.43 37.5001 43.31C37.3001 42.59 37.1901 41.83 37.1901 41.05C37.1901 36.4 40.9701 32.62 45.6201 32.62C50.2701 32.62 54.0501 36.4 54.0501 41.05C54.0501 45.7 50.2701 49.48 45.6201 49.48L45.6301 49.49ZM45.6301 33.65C41.5401 33.65 38.2201 36.97 38.2201 41.06C38.2201 41.74 38.3101 42.4 38.4901 43.04C39.0101 44.9 40.2101 46.47 41.8801 47.45C43.0101 48.12 44.3101 48.47 45.6301 48.47C49.7201 48.47 53.0401 45.15 53.0401 41.06C53.0401 36.97 49.7201 33.65 45.6301 33.65Z" fill="white"/>
<path d="M45.63 50.12C40.64 50.12 36.58 46.06 36.58 41.07C36.58 36.08 40.64 32.02 45.63 32.02C50.62 32.02 54.68 36.08 54.68 41.07C54.68 46.06 50.62 50.12 45.63 50.12ZM45.63 32.9C41.12 32.9 37.46 36.57 37.46 41.07C37.46 45.57 41.13 49.24 45.63 49.24C50.13 49.24 53.8 45.57 53.8 41.07C53.8 36.57 50.13 32.9 45.63 32.9Z" fill="#252528"/>
<path d="M41.55 40.06C41.56 39.98 41.58 39.91 41.59 39.83C41.66 39.38 41.85 38.99 42.18 38.67C42.48 38.38 42.84 38.2 43.24 38.09C43.57 38 43.9 37.98 44.24 37.99C44.76 37.99 45.5 37.99 46.02 37.99C46.12 37.99 46.23 37.99 46.33 37.99C46.38 37.99 46.4 37.97 46.4 37.92C46.4 37.62 46.4 37.31 46.4 37.01C46.4 36.94 46.4 36.87 46.42 36.81C46.47 36.62 46.66 36.5 46.86 36.52C46.99 36.53 47.1 36.58 47.2 36.66C47.68 37.06 48.16 37.45 48.63 37.85C48.78 37.97 48.93 38.09 49.07 38.23C49.26 38.41 49.25 38.68 49.05 38.84C48.69 39.14 48.33 39.43 47.97 39.73C47.71 39.95 47.44 40.16 47.18 40.38C47.04 40.5 46.88 40.54 46.7 40.5C46.52 40.45 46.41 40.32 46.4 40.13C46.4 39.96 46.4 39.78 46.4 39.61C46.4 39.44 46.4 39.28 46.4 39.11C46.4 39.06 46.39 39.05 46.34 39.05C45.85 39.05 45.16 39.05 44.65 39.05C44.38 39.05 44.12 39.05 43.85 39.05C43.46 39.07 43.13 39.23 42.89 39.55C42.77 39.71 42.69 39.9 42.67 40.1C42.65 40.28 42.65 40.46 42.65 40.64C42.65 40.82 42.59 40.98 42.44 41.1C42.14 41.35 41.66 41.2 41.57 40.82C41.57 40.81 41.56 40.79 41.55 40.78C41.55 40.54 41.55 40.29 41.55 40.05V40.06Z" fill="white"/>
<path d="M49.7101 42.0699C49.7001 42.1499 49.6801 42.2199 49.6701 42.2999C49.6001 42.7499 49.4101 43.1399 49.0801 43.4599C48.7801 43.7499 48.4201 43.9299 48.0201 44.0399C47.6901 44.1299 47.3601 44.1499 47.0201 44.1399C46.5001 44.1399 45.7601 44.1399 45.2401 44.1399C45.1401 44.1399 45.0301 44.1399 44.9301 44.1399C44.8801 44.1399 44.8601 44.1599 44.8601 44.2099C44.8601 44.5099 44.8601 44.82 44.8601 45.12C44.8601 45.19 44.8601 45.2599 44.8401 45.3199C44.7901 45.5099 44.6001 45.6299 44.4001 45.6099C44.2701 45.5999 44.1601 45.5499 44.0601 45.4699C43.5801 45.0699 43.1001 44.68 42.6301 44.28C42.4801 44.16 42.3301 44.04 42.1901 43.9C42.0001 43.72 42.0101 43.4499 42.2101 43.2899C42.5701 42.9899 42.9301 42.7 43.2901 42.4C43.5501 42.18 43.8201 41.97 44.0801 41.75C44.2201 41.63 44.3801 41.5899 44.5601 41.6299C44.7401 41.6799 44.8501 41.81 44.8601 42C44.8601 42.17 44.8601 42.3499 44.8601 42.5199C44.8601 42.6899 44.8601 42.8499 44.8601 43.0199C44.8601 43.0699 44.8701 43.0799 44.9201 43.0799C45.4101 43.0799 46.1001 43.0799 46.6101 43.0799C46.8801 43.0799 47.1401 43.0799 47.4101 43.0799C47.8001 43.0599 48.1301 42.8999 48.3701 42.5799C48.4901 42.4199 48.5701 42.23 48.5901 42.03C48.6101 41.85 48.6101 41.6699 48.6101 41.4899C48.6101 41.3099 48.6701 41.15 48.8201 41.03C49.1201 40.78 49.6001 40.93 49.6901 41.31C49.6901 41.32 49.7001 41.3399 49.7101 41.3499C49.7101 41.5899 49.7101 41.8399 49.7101 42.0799V42.0699Z" fill="white"/>
</svg>
