<svg width="52" height="52" viewBox="0 0 52 52" fill="none" xmlns="http://www.w3.org/2000/svg">
<g filter="url(#filter0_dd_1208_5096)">
<circle cx="26" cy="24" r="20" fill="white"/>
<path d="M23.2525 27.5498L26.8092 23.9931L23.2525 20.4365C22.895 20.079 22.895 19.5015 23.2525 19.144C23.61 18.7865 24.1875 18.7865 24.545 19.144L28.7525 23.3515C29.11 23.709 29.11 24.2865 28.7525 24.644L24.545 28.8515C24.1875 29.209 23.61 29.209 23.2525 28.8515C22.9042 28.494 22.895 27.9073 23.2525 27.5498Z" fill="black"/>
<mask id="mask0_1208_5096" style="mask-type:luminance" maskUnits="userSpaceOnUse" x="22" y="18" width="8" height="12">
<path d="M23.2525 27.5498L26.8092 23.9931L23.2525 20.4365C22.895 20.079 22.895 19.5015 23.2525 19.144C23.61 18.7865 24.1875 18.7865 24.545 19.144L28.7525 23.3515C29.11 23.709 29.11 24.2865 28.7525 24.644L24.545 28.8515C24.1875 29.209 23.61 29.209 23.2525 28.8515C22.9042 28.494 22.895 27.9073 23.2525 27.5498Z" fill="white"/>
</mask>
<g mask="url(#mask0_1208_5096)">
<rect x="15" y="13" width="22" height="22" fill="#939597"/>
</g>
</g>
<defs>
<filter id="filter0_dd_1208_5096" x="0" y="0" width="52" height="52" filterUnits="userSpaceOnUse" color-interpolation-filters="sRGB">
<feFlood flood-opacity="0" result="BackgroundImageFix"/>
<feColorMatrix in="SourceAlpha" type="matrix" values="0 0 0 0 0 0 0 0 0 0 0 0 0 0 0 0 0 0 127 0" result="hardAlpha"/>
<feOffset/>
<feGaussianBlur stdDeviation="1"/>
<feColorMatrix type="matrix" values="0 0 0 0 0 0 0 0 0 0 0 0 0 0 0 0 0 0 0.08 0"/>
<feBlend mode="normal" in2="BackgroundImageFix" result="effect1_dropShadow_1208_5096"/>
<feColorMatrix in="SourceAlpha" type="matrix" values="0 0 0 0 0 0 0 0 0 0 0 0 0 0 0 0 0 0 127 0" result="hardAlpha"/>
<feOffset dy="2"/>
<feGaussianBlur stdDeviation="3"/>
<feColorMatrix type="matrix" values="0 0 0 0 0 0 0 0 0 0 0 0 0 0 0 0 0 0 0.14 0"/>
<feBlend mode="normal" in2="effect1_dropShadow_1208_5096" result="effect2_dropShadow_1208_5096"/>
<feBlend mode="normal" in="SourceGraphic" in2="effect2_dropShadow_1208_5096" result="shape"/>
</filter>
</defs>
</svg>
