<svg width="328" height="164" viewBox="0 0 328 164" fill="none" xmlns="http://www.w3.org/2000/svg">
<path d="M23.2189 161.504C33.6809 163.667 265.053 165.826 301.876 161.504C312.777 160.224 321.503 148.276 322.776 146.203C330.736 133.238 327.751 53.2794 325.761 26.266C324.69 11.7278 309.838 5.19571 302.871 3.03482C289.548 -1.09779 53.2799 -1.26366 22.2229 4.11573C8.32787 6.52168 3.29087 17.8712 2.29087 24.1796C-0.0421274 38.8847 -1.42113 129.331 2.31887 141.514C5.30487 151.239 12.7689 159.343 23.2189 161.504Z" fill="#BBF0D3"/>
<mask id="mask0_2111_35921" style="mask-type:luminance" maskUnits="userSpaceOnUse" x="0" y="0" width="328" height="164">
<path fill-rule="evenodd" clip-rule="evenodd" d="M23.2189 161.504C33.6809 163.667 265.053 165.826 301.876 161.504C312.777 160.224 321.503 148.276 322.776 146.203C330.736 133.238 327.751 53.2794 325.761 26.266C324.69 11.7278 309.838 5.19571 302.871 3.03482C289.548 -1.09779 53.2799 -1.26366 22.2229 4.11573C8.32787 6.52168 3.29087 17.8712 2.29087 24.1796C-0.0421274 38.8847 -1.42113 129.331 2.31887 141.514C5.30487 151.239 12.7689 159.343 23.2189 161.504Z" fill="white"/>
</mask>
<g mask="url(#mask0_2111_35921)">
<path d="M-15.4414 171.888H365.359V-24.4395H-15.4414V171.888Z" fill="#DDF7E9"/>
<path d="M155.704 100.11C155.704 100.11 153.619 109.619 155.295 125.148C155.692 128.82 161.3 137.353 167.326 144.925C174.554 154.006 183.111 161.919 183.111 161.919L187.508 170.5L197.927 159.982L197.008 154.003C194.755 152.805 193.751 150.082 193.997 145.833C194.242 141.584 191.216 136.938 184.918 131.895L167.326 111.679L160.873 100.98L155.704 100.11Z" fill="#F2CBA8"/>
<path d="M178.491 133.949C178.491 133.949 179.752 135.085 180.858 135.672C181.964 136.26 187.464 133.949 187.464 133.949L183.884 131.085L178.491 133.949Z" fill="#E79E5C"/>
<path d="M210.749 115.695L162.093 143.034C157.916 145.381 152.628 143.898 150.281 139.721L106.532 61.8589C104.185 57.6825 105.668 52.3934 109.845 50.0467L158.501 22.7082C162.677 20.3616 167.966 21.8448 170.313 26.0218L214.062 103.883C216.409 108.061 214.925 113.349 210.749 115.695Z" fill="#00853E"/>
<path d="M211.112 112.863L162.457 140.202C158.28 142.549 152.991 141.065 150.644 136.889L106.895 59.0266C104.548 54.8502 106.031 49.5611 110.208 47.2145L158.864 19.876C163.04 17.5293 168.33 19.0126 170.676 23.1895L214.425 101.051C216.772 105.228 215.289 110.516 211.112 112.863Z" fill="white"/>
<path d="M141.019 101.934L166.078 88.1495" stroke="#F6923B" stroke-width="1.30648" stroke-linecap="round" stroke-linejoin="round"/>
<path d="M170.21 85.8588L180.136 80.4302" stroke="#FFD07B" stroke-width="1.68" stroke-linecap="round" stroke-linejoin="round"/>
<path d="M144.254 107.298L162.756 96.8024" stroke="#F6923B" stroke-width="1.30648" stroke-linecap="round" stroke-linejoin="round"/>
<path d="M166.414 95.0819L184.916 84.5867" stroke="#F6923B" stroke-width="1.30648" stroke-linecap="round" stroke-linejoin="round"/>
<path d="M150.611 119.826L159.796 114.693" stroke="#3390E0" stroke-width="1.288" stroke-linecap="round" stroke-linejoin="round"/>
<path d="M163.031 112.782L179.243 103.79" stroke="#3390E0" stroke-width="1.288" stroke-linecap="round" stroke-linejoin="round"/>
<path d="M153.915 123.989L172.085 113.833" stroke="#FFD07B" stroke-width="1.68" stroke-linecap="round" stroke-linejoin="round"/>
<path d="M156.467 128.88L178.985 116.158" stroke="#FFD07B" stroke-width="1.68" stroke-linecap="round" stroke-linejoin="round"/>
<path d="M181.864 114.754L190.884 109.712" stroke="#FFD07B" stroke-width="1.68" stroke-linecap="round" stroke-linejoin="round"/>
<path d="M193.723 107.75L202.744 102.708" stroke="#FFD07B" stroke-width="1.68" stroke-linecap="round" stroke-linejoin="round"/>
<path fill-rule="evenodd" clip-rule="evenodd" d="M206.492 17.0165C205.224 17.0882 203.995 17.3542 202.806 17.815C201.463 18.3353 200.308 19.0902 199.338 20.0808C198.368 21.0714 197.608 22.1511 197.056 23.3187C196.503 24.4874 196.167 25.6858 196.046 26.9128C195.925 28.1409 196.042 29.2525 196.399 30.2459C196.508 30.5276 196.677 30.7208 196.907 30.8255C197.137 30.9308 197.366 30.9386 197.594 30.8507L200.67 29.6585C200.998 29.5314 201.203 29.3634 201.282 29.1545C201.361 28.9467 201.404 28.6628 201.411 28.3033C201.497 25.5212 202.616 23.7118 204.768 22.878C206.11 22.3578 207.319 22.2855 208.396 22.6607C209.472 23.0365 210.218 23.7578 210.633 24.8262C210.862 25.4176 210.907 26.023 210.769 26.6429C210.63 27.2628 210.404 27.9169 210.088 28.6046C209.773 29.2939 209.421 30.0208 209.033 30.7852C208.645 31.5502 208.32 32.3638 208.057 33.2257C207.795 34.0875 207.64 35.0054 207.595 35.9764C207.549 36.9491 207.714 37.9935 208.089 39.1096C208.183 39.4294 208.381 39.6601 208.684 39.8012C208.986 39.9429 209.276 39.9597 209.555 39.8516L212.441 38.7333C212.719 38.6258 212.904 38.4253 212.994 38.1307C213.083 37.8378 213.094 37.5265 213.024 37.1966C212.861 36.5487 212.872 35.8818 213.057 35.1946C213.242 34.5086 213.499 33.8187 213.827 33.1249C214.155 32.4316 214.503 31.698 214.874 30.9235C215.243 30.1496 215.547 29.3365 215.785 28.4842C216.022 27.6318 216.138 26.7297 216.133 25.7771C216.127 24.8246 215.907 23.7858 215.471 22.6602C214.937 21.2826 214.2 20.1687 213.259 19.3198C212.318 18.4714 211.273 17.8576 210.122 17.4785C208.971 17.0994 207.76 16.9465 206.492 17.0165ZM214.464 41.2494C214.174 41.1032 213.89 41.0836 213.612 41.1911L210.346 42.4567C210.068 42.5648 209.871 42.7703 209.756 43.0738C209.64 43.3779 209.643 43.6842 209.763 43.9934L211.202 47.7062C211.322 48.0164 211.526 48.2443 211.816 48.3899C212.106 48.5372 212.389 48.5557 212.668 48.4482L215.934 47.1826C216.213 47.0745 216.409 46.8695 216.524 46.5654C216.64 46.2625 216.638 45.9556 216.517 45.6459L215.079 41.9331C214.959 41.6234 214.754 41.3961 214.464 41.2494Z" fill="#F9953B"/>
<path d="M169.143 67.7263C167.986 67.2457 166.076 67.3019 165.588 68.5469C164.529 71.2453 162.935 73.7875 160.202 75.2091C155.3 77.7592 149.307 76.1192 146.344 71.5884L147.244 71.1196C147.596 70.9367 147.817 70.5743 147.819 70.1779C147.821 69.7814 147.603 69.416 147.252 69.23L144.827 67.9406L141.152 65.9858C140.842 65.8206 140.47 65.8191 140.158 65.9812C140.119 66.0019 140.082 66.0242 140.046 66.0486C140.01 66.0735 139.976 66.1001 139.944 66.1287C139.863 66.1994 139.794 66.2817 139.739 66.3732C139.661 66.501 139.61 66.6455 139.591 66.7978L138.747 73.6556C138.698 74.0491 138.871 74.4373 139.197 74.6632C139.523 74.8891 139.947 74.9161 140.299 74.7332L141.276 74.2248C143.744 78.309 147.836 81.1065 152.711 81.9135C155.414 82.3601 158.207 82.0968 160.78 81.1613C165.698 79.3713 169.348 75.5385 170.886 70.6644C171.276 69.3128 170.299 68.2068 169.143 67.7263Z" fill="#3390E0"/>
<path fill-rule="evenodd" clip-rule="evenodd" d="M169.143 67.7263C167.986 67.2457 166.076 67.3019 165.588 68.5469C164.529 71.2453 162.935 73.7875 160.202 75.2091C155.3 77.7592 149.307 76.1192 146.344 71.5884L147.244 71.1196C147.596 70.9367 147.817 70.5743 147.819 70.1779C147.821 69.7814 147.603 69.416 147.252 69.23L144.827 67.9406L141.152 65.9858C140.842 65.8206 140.47 65.8191 140.158 65.9812C140.119 66.0019 140.082 66.0242 140.046 66.0486C140.01 66.0735 139.976 66.1001 139.944 66.1287C139.863 66.1994 139.794 66.2817 139.739 66.3732C139.661 66.501 139.61 66.6455 139.591 66.7978L138.747 73.6556C138.698 74.0491 138.871 74.4373 139.197 74.6632C139.523 74.8891 139.947 74.9161 140.299 74.7332L141.276 74.2248C143.744 78.309 147.836 81.1065 152.711 81.9135C155.414 82.3601 158.207 82.0968 160.78 81.1613C165.698 79.3713 169.348 75.5385 170.886 70.6644C171.276 69.3128 170.299 68.2068 169.143 67.7263Z" stroke="white" stroke-width="2.8"/>
<path d="M171.353 56.8136C171.027 56.5878 170.603 56.5607 170.252 56.7436L169.274 57.2515C166.806 53.1683 162.716 50.3708 157.841 49.5637C155.139 49.1166 152.346 49.3798 149.772 50.3148C144.853 52.1043 141.203 55.9377 139.665 60.8124C139.625 63.0539 142.897 64.5715 144.132 63.8772C144.542 63.6464 144.855 63.3259 144.963 62.9299C145.722 60.1323 147.615 57.6893 150.348 56.2677C155.251 53.7176 161.243 55.3571 164.207 59.8889L163.306 60.3572C162.955 60.5401 162.733 60.9025 162.732 61.2989C162.73 61.6954 162.948 62.0608 163.298 62.2468L165.723 63.5362L169.399 65.491C169.476 65.5322 169.557 65.5629 169.64 65.5841C169.891 65.6469 170.158 65.6169 170.393 65.4956C170.704 65.3334 170.916 65.0278 170.959 64.679L171.264 62.2028L171.804 57.8217C171.852 57.4277 171.679 57.0395 171.353 56.8136Z" fill="#3390E0"/>
<path fill-rule="evenodd" clip-rule="evenodd" d="M171.353 56.8136C171.027 56.5878 170.603 56.5607 170.252 56.7436L169.274 57.2515C166.806 53.1683 162.716 50.3708 157.841 49.5637C155.139 49.1166 152.346 49.3798 149.772 50.3148C144.853 52.1043 141.203 55.9377 139.665 60.8124C139.625 63.0539 142.897 64.5715 144.132 63.8772C144.542 63.6464 144.855 63.3259 144.963 62.9299C145.722 60.1323 147.615 57.6893 150.348 56.2677C155.251 53.7176 161.243 55.3571 164.207 59.8889L163.306 60.3572C162.955 60.5401 162.733 60.9025 162.732 61.2989C162.73 61.6954 162.948 62.0608 163.298 62.2468L165.723 63.5362L169.399 65.491C169.476 65.5322 169.557 65.5629 169.64 65.5841C169.891 65.6469 170.158 65.6169 170.393 65.4956C170.704 65.3334 170.916 65.0278 170.959 64.679L171.264 62.2028L171.804 57.8217C171.852 57.4277 171.679 57.0395 171.353 56.8136Z" stroke="white" stroke-width="2.8"/>
<path fill-rule="evenodd" clip-rule="evenodd" d="M156.468 68.1708C156.405 68.0556 156.25 67.8969 156.001 67.696C155.261 67.1257 154.708 66.6923 154.341 66.3963C154.597 65.5757 154.503 64.757 154.06 63.9409C153.806 63.472 153.48 63.0973 153.085 62.8167C152.689 62.5356 152.286 62.3623 151.877 62.2955C151.027 62.159 150.284 62.2626 149.649 62.6073L147.31 63.8773C146.848 64.128 146.62 64.3786 146.625 64.6281C146.625 64.7684 146.643 64.8822 146.677 64.9708C146.712 65.0599 146.774 65.1869 146.863 65.353L150.126 71.3621C150.264 71.6147 150.388 71.7907 150.497 71.8903C150.729 72.1104 151.097 72.083 151.603 71.8085C152.064 71.5573 152.293 71.3072 152.288 71.0577C152.287 70.918 152.27 70.8041 152.236 70.7145C152.202 70.6265 152.139 70.4984 152.049 70.3323L151.384 69.109L152.749 68.3685L153.072 68.1641C154.198 69.0672 154.835 69.5677 154.981 69.6659C155.064 69.7139 155.169 69.7487 155.296 69.7679C155.424 69.7876 155.558 69.7591 155.699 69.683C155.839 69.6059 155.997 69.4544 156.174 69.2288C156.519 68.7977 156.618 68.4455 156.468 68.1708ZM151.73 66.4402L150.344 67.1928L149.303 65.2761L150.667 64.5357C150.891 64.4139 151.152 64.3778 151.449 64.426C151.747 64.4754 151.982 64.6588 152.154 64.9757C152.327 65.2937 152.352 65.5889 152.228 65.8603C152.106 66.1338 151.939 66.3268 151.73 66.4402Z" fill="#3390E0"/>
<path fill-rule="evenodd" clip-rule="evenodd" d="M154.894 63.8528L158.328 70.1757C158.418 70.3417 158.49 70.4613 158.544 70.5339C158.598 70.6081 158.679 70.6805 158.788 70.7526C158.898 70.8241 159.03 70.8457 159.187 70.8156C159.344 70.7862 159.535 70.711 159.759 70.5893C159.982 70.4681 160.147 70.3505 160.254 70.2369C160.36 70.1234 160.411 69.9997 160.41 69.8645C160.407 69.7316 160.389 69.6212 160.357 69.5364C160.324 69.4506 160.264 69.3251 160.173 69.1592L158.985 66.972C159.434 67.1585 159.953 67.0919 160.544 66.7704C161.137 66.4494 161.543 65.8686 161.765 65.0285C161.987 64.1888 161.897 63.4008 161.497 62.6647C161.097 61.9287 160.483 61.426 159.655 61.1555C158.826 60.8862 158.117 60.9105 157.529 61.2301C156.941 61.5496 156.612 61.9718 156.541 62.4954C156.417 62.3199 156.263 62.2196 156.076 62.1944C155.889 62.1699 155.606 62.261 155.223 62.4685C154.84 62.6761 154.651 62.9049 154.656 63.1543C154.66 63.2832 154.679 63.3896 154.711 63.476C154.743 63.5614 154.804 63.6868 154.894 63.8528ZM157.8 64.6865C157.675 64.455 157.642 64.1968 157.703 63.9119C157.763 63.6264 157.932 63.4091 158.21 63.2578C158.488 63.1076 158.766 63.0803 159.042 63.1771C159.32 63.2745 159.522 63.4422 159.652 63.6807C159.781 63.9187 159.805 64.182 159.723 64.469C159.641 64.7571 159.468 64.9718 159.204 65.1155C158.941 65.2585 158.672 65.2806 158.399 65.1813C158.125 65.0825 157.926 64.9169 157.8 64.6865Z" fill="#3390E0"/>
<path d="M179.851 73C179.851 73 176.65 78.8038 177.032 79.7933C177.412 80.7819 179.976 85.0342 185.242 79.4883C185.242 79.4883 184.329 91.2269 186.776 92.4738C189.223 93.7208 189.92 94.0292 189.92 94.0292C189.92 94.0292 189.024 97.4063 192.51 98.9494C192.51 98.9494 193.312 101.929 195.391 102.521C197.469 103.113 202.982 103.911 202.982 103.911C202.982 103.911 205.417 104.824 205.945 100.792C206.473 96.759 203.052 96.886 203.052 96.886L197.503 86.391L192.531 81.8935L187.585 78.0639L182.981 74.2215L179.851 73Z" fill="#F2CBA8"/>
<path d="M171.056 49.1159L168.703 55.3571L134.238 42.3639L136.59 36.1233L171.056 49.1159Z" fill="#EAFFF2"/>
<path d="M173.14 43.5886L172.164 46.1791L137.697 33.186L138.674 30.5955L173.14 43.5886Z" fill="#EAFFF2"/>
<path d="M167.988 60.3279L171.131 57.1213L189.658 75.2771L186.516 78.4842L167.988 60.3279Z" fill="#FFD07B"/>
<path d="M168.432 61.8258L173.121 57.6359L174.318 58.9328C175.216 59.9302 175.116 61.627 174.118 62.5241L173.221 63.3227C172.223 64.2203 170.527 64.1212 169.629 63.1227L168.432 61.8258Z" fill="#F6923B"/>
<path d="M164.74 59.2319L170.826 53.8442L173.421 56.8374C174.219 57.7351 174.119 59.1317 173.221 59.9303L170.428 62.4245C169.53 63.2231 168.133 63.1228 167.335 62.2251L164.74 59.2319Z" fill="#00662E"/>
<path d="M185 79.1284C185 79.1284 187.301 84.7749 189.431 86.0444C191.56 87.3143 192.958 87.6001 194.847 91.5756C196.735 95.5517 197.747 94.8398 197.747 94.8398C197.747 94.8398 196.775 96.5616 198.918 98.1682C201.06 99.7749 202.472 100.396 202.472 100.396L205 103C205 103 198.089 76.9587 185 79.1284Z" fill="#E79E5C"/>
<path d="M187 92C187 92 195.851 98.3236 198 95.069" stroke="#FFB18D" stroke-width="0.76328" stroke-linecap="round" stroke-linejoin="round"/>
<path d="M193 99.3345C193 99.3345 198.87 102.375 201.093 101.961C201.093 101.961 202.714 102.552 201.622 99" stroke="#FFB18D" stroke-width="0.76328" stroke-linecap="round" stroke-linejoin="round"/>
<path d="M179.106 74L178 76.7896C178 76.7896 183.042 84.0477 185 79.5048L179.106 74Z" fill="#E79E5C"/>
<path d="M178.806 68.4909C176.709 70.091 179.083 75.6985 181.599 77.6659C184.113 79.6338 189.786 82.1707 192.702 85.4984C195.618 88.826 196.192 97.1881 203.788 101.924C219.013 111.415 222.581 110.717 222.238 110.512L230.037 114C230.037 114 242.149 111.827 240.911 97.7822C240.911 97.7822 229.579 93.0516 225.553 88.0474C222.342 84.055 214.016 73.9125 210.779 69.972C209.895 68.8971 208.578 68.2631 207.176 68.2294C206.526 68.2137 188.119 62.3538 185.619 64.4547C182.936 66.7104 183.958 68.7263 183.958 68.7263C183.958 68.7263 181.176 66.6837 178.806 68.4909Z" fill="#F2CBA8"/>
<path d="M331.998 28.6392C331.998 28.6392 320.561 16.1842 319.797 8L287.998 26.1326C287.998 26.1326 295.762 36.7507 295.023 42L331.677 33.9125L331.998 28.6392Z" fill="#F2CBA8"/>
<path d="M250.496 -6.14447C250.496 -6.14447 248.41 15.0497 249.162 16.3232C249.582 17.0365 252.378 17.1171 254.754 17.0495C256.881 16.9886 258.826 18.2322 259.664 20.1706L265.437 33.5207C267.208 37.6156 272.205 39.2365 276.076 36.9723L292.688 27.2565L319.114 8.51588C319.114 8.51588 325.71 -32.9109 302.87 -38.3423C280.029 -43.7738 248.993 -36.5659 250.496 -6.14447Z" fill="#F2CBA8"/>
<path d="M291.998 32.9603C291.998 32.9603 310.255 18.8506 327.001 22.6493L331.998 28.9805L326.962 30.2467L300.942 37H293.057L291.998 32.9603Z" fill="#E79E5C"/>
<mask id="mask1_2111_35921" style="mask-type:luminance" maskUnits="userSpaceOnUse" x="223" y="92" width="88" height="57">
<path fill-rule="evenodd" clip-rule="evenodd" d="M223.213 92.2632H310.022V148.263H223.213V92.2632Z" fill="white"/>
</mask>
<g mask="url(#mask1_2111_35921)">
<path d="M228.051 116.158C230.45 120.901 251.585 132.173 291.454 149.974L312.754 114.146L243.85 93.4844C241.526 92.7999 238.355 91.7476 235.328 93.4844C232.3 95.2213 224.452 109.044 228.051 116.158Z" fill="#00853E"/>
</g>
<mask id="mask2_2111_35921" style="mask-type:luminance" maskUnits="userSpaceOnUse" x="233" y="20" width="128" height="156">
<path fill-rule="evenodd" clip-rule="evenodd" d="M233.117 20.1503H360.428V175.615H233.117V20.1503Z" fill="white"/>
</mask>
<g mask="url(#mask2_2111_35921)">
<path d="M291.872 34.0994C290.203 35.2926 289.198 37.1994 289.198 39.2439C289.198 41.3856 288.103 43.3805 286.292 44.5394C286.292 44.5394 278.166 49.9832 273.773 52.4466C272.361 53.2379 260.629 60.9243 258.441 73.9719C256.012 88.4699 246.459 158.071 245.511 162.052C245.484 162.167 245.454 162.281 245.42 162.395L243.477 172.907C242.27 176.945 251.318 181 255.554 181L342.415 180.615C345.362 180.615 347.918 178.598 348.584 175.743C353.151 156.157 369.396 83.3849 362.925 65.7935C355.427 45.4138 344.43 37.9573 341.931 36.4664C340.447 35.5808 338.699 31.9797 337.523 29.1992C336.6 27.015 334.513 25.5427 332.136 25.3732C323.946 24.7886 305.066 24.6674 291.872 34.0994Z" fill="#00A84E"/>
</g>
<path d="M268.911 60.2339L268.036 61.7164C266.65 64.3916 265.417 68.575 265.582 74.9267C265.945 88.8035 262.98 160.043 262.98 160.043L261.252 177.58L296.779 170.674L301.549 144.643C301.549 144.643 310.943 94.468 299.389 73.4692C287.836 52.4705 268.911 60.2339 268.911 60.2339Z" fill="#00662E"/>
<path d="M287.102 55.4506C276.422 49.8479 267.707 55.9438 262.002 68.9719C256.298 82 256.298 161.199 256.298 161.199L252.812 184.765L291.69 178.902L298.886 146.313C298.886 146.313 311.492 92.639 299.967 69.4865C296.307 62.133 291.694 57.8594 287.102 55.4506Z" fill="#00853E"/>
<path d="M269.998 -38.1422L275.456 -6.97192C275.677 -5.70872 276.716 -4.84797 277.881 -4.73825C278.637 -4.66704 279.355 -5.10218 279.691 -5.78201C280.575 -7.57018 283.119 -11.6802 286.872 -9.18405C290.372 -6.85558 289.776 -3.80173 289.74 0.685474C289.724 2.74815 301.204 14.9726 301.636 15.4893C303.188 17.3438 305.609 18.2989 308.035 17.9168C311.631 17.3504 312.2 16.7902 313.896 16.0901L320.755 13.2594C321.91 12.7825 322.355 11.3801 321.683 10.3273L320.997 9.25165C320.414 8.33748 320.197 7.23949 320.395 6.1742C321.708 -0.894859 325.652 -29.311 307.203 -42.306C286.042 -57.2109 269.998 -38.1422 269.998 -38.1422Z" fill="#864B16"/>
<path d="M208 82C208 82 205.277 81.0709 202.193 79.4652C199.11 77.8601 196.361 76.2422 195.665 75.5793C194.968 74.9159 192.529 72.5952 190.477 71.6398C188.426 70.6849 184 69.1318 184 69.1318C184 69.1318 185.677 69.0665 187.355 69.0012C189.034 68.9355 194.169 71.496 194.169 71.496C194.169 71.496 200.401 76.4295 201.756 76.7215C203.111 77.0134 206.233 79.653 206.233 79.653L208 82Z" fill="#E79E5C"/>
<path d="M173 117.033C174.433 115.6 176.031 115.244 177.793 115.965C179.572 116.691 179.853 116.892 178.355 130.485C177.813 135.409 177.998 133.905 181.353 136.425C181.858 136.804 183.358 141.451 184.003 141.899C184.197 142.034 184.179 143.254 184.387 143.385C190.446 147.222 186.55 160.569 186.55 160.569C186.55 160.569 169.484 154.008 169.345 139.841C169.345 139.841 168.623 134.407 170.046 126.768C170.488 124.396 171.473 121.151 173 117.033Z" fill="#F2CBA8"/>
<path d="M178.488 134.463C178.488 134.463 186.667 137.071 184.48 148.781" stroke="#FFB18D" stroke-width="0.74984" stroke-linecap="round"/>
<path d="M169.98 127.702C169.98 127.702 168.538 136.317 170.344 139.841" stroke="#FFB18D" stroke-width="0.74984" stroke-linecap="round"/>
<path fill-rule="evenodd" clip-rule="evenodd" d="M172.999 43.2042C172.999 53.8744 164.35 62.5242 153.679 62.5242C143.009 62.5242 134.359 53.8744 134.359 43.2042C134.359 32.5339 143.009 23.8842 153.679 23.8842C164.35 23.8842 172.999 32.5339 172.999 43.2042Z" stroke="#00662E" stroke-width="3.70496"/>
<path d="M-17.7773 125.484H82.5427V-0.127625H-17.7773V125.484Z" fill="#BBF0D3"/>
<path d="M181.632 163.621L277.49 216.257L294.248 186.843L209.364 151.278C198.746 146.829 186.531 151.831 182.081 162.45C181.92 162.836 181.77 163.226 181.632 163.621Z" fill="#00853E"/>
<mask id="mask3_2111_35921" style="mask-type:luminance" maskUnits="userSpaceOnUse" x="32" y="12" width="29" height="12">
<path fill-rule="evenodd" clip-rule="evenodd" d="M42.4423 18.5944C41.7328 18.3682 40.9779 18.2511 40.1905 18.2511C36.7549 18.2511 33.8665 20.5455 32.9609 23.6798V23.6815H42.4977H47.4101H59.7261C59.9737 22.8521 60.1137 21.9673 60.1137 21.0523C60.1137 16.0839 56.0839 12.0553 51.1055 12.0553C46.9912 12.0553 43.5197 14.8234 42.4423 18.5944Z" fill="white"/>
</mask>
<g mask="url(#mask3_2111_35921)">
<path d="M27.5723 29.0687H65.5005V6.66754H27.5723V29.0687Z" fill="#EDFFF5"/>
</g>
<path d="M-19.3945 138.838H84.1612V130.343H-19.3945V138.838Z" fill="white"/>
<path d="M-19.3945 70.3865H84.1612V68.9719H-19.3945V70.3865Z" fill="#EDFFF5"/>
<path d="M27.8287 85.121C26.6079 82.0628 23.6175 79.9085 20.1231 79.9085C16.5677 79.9085 13.5387 82.1384 12.3492 85.2722C11.4611 84.7889 10.443 84.5184 9.35937 84.5184C5.88625 84.5184 3.07617 87.3285 3.07617 90.7927C3.07617 91.0788 3.09969 91.3661 3.13721 91.6439H12.5603H15.5731H21.7432H27.677H32.988C33.0334 91.3661 33.0558 91.0788 33.0558 90.7927C33.0558 87.8107 30.7581 85.3545 27.8287 85.121Z" fill="white"/>
<path d="M-20 11.0136H95.0526V6.11078H-20V11.0136Z" fill="#84D7CC"/>
<path d="M97.0767 13.6953H96.0228C94.8059 13.6953 93.8203 12.7085 93.8203 11.4905V5.32887C93.8203 4.11143 94.8059 3.12415 96.0228 3.12415H97.0767C98.2942 3.12415 99.2803 4.11143 99.2803 5.32887V11.4905C99.2803 12.7085 98.2942 13.6953 97.0767 13.6953Z" fill="#84D7CC"/>
<path d="M90.7527 43.4174C90.7527 44.8415 89.5986 45.9967 88.1745 45.9967C86.7504 45.9967 85.5957 44.8415 85.5957 43.4174C85.5957 41.9939 86.7504 40.838 88.1745 40.838C89.5986 40.838 90.7527 41.9939 90.7527 43.4174Z" fill="#84D7CC"/>
<path d="M87.9534 8.48462L88.2888 41.3762" stroke="#84D7CC" stroke-width="1.07744"/>
<path d="M-17.7598 132.524H82.4802" stroke="#84D7CC" stroke-width="1.07744"/>
<path d="M-16.0801 139.244H84.1599" stroke="#BBF0D3" stroke-width="2.24"/>
<path d="M53.4566 114.756C53.4566 114.756 49.1491 103.394 61.2944 92.238C61.2944 92.238 68.2261 103.679 53.4566 114.756Z" fill="#84D7CC"/>
<path d="M54.1071 117.774C54.1071 117.774 42.4288 114.419 40.7695 98.0108C40.7695 98.0108 54.0835 99.3117 54.1071 117.774Z" fill="#84D7CC"/>
<path d="M61.7806 114.227H41.5938V123.224C41.5938 127.336 44.9263 130.669 49.0378 130.669H54.3354C58.4481 130.669 61.7806 127.336 61.7806 123.224V114.227Z" fill="#DAF6E5"/>
<path d="M48.2639 114.227L46.6914 112.823L53.8185 113.35L53.9496 114.227H48.2639Z" fill="#EDFFF5"/>
<mask id="mask4_2111_35921" style="mask-type:luminance" maskUnits="userSpaceOnUse" x="46" y="112" width="8" height="3">
<path fill-rule="evenodd" clip-rule="evenodd" d="M48.2639 114.227H53.9496L53.8185 113.349L46.6914 112.823L48.2639 114.227Z" fill="white"/>
</mask>
<g mask="url(#mask4_2111_35921)">
<path d="M40.3965 131.011H63.6802V92.2041H40.3965V131.011Z" fill="#EDFFF5"/>
</g>
<mask id="mask5_2111_35921" style="mask-type:luminance" maskUnits="userSpaceOnUse" x="46" y="112" width="8" height="3">
<path fill-rule="evenodd" clip-rule="evenodd" d="M48.2639 114.227H53.9496L53.8185 113.349L46.6914 112.823L48.2639 114.227Z" fill="white"/>
</mask>
<g mask="url(#mask5_2111_35921)">
<path d="M41.1484 119.772H59.494V107.279H41.1484V119.772Z" fill="#EDFFF5"/>
</g>
<path d="M77.4 58.0724C77.4 66.1908 70.8183 72.7724 62.7 72.7724C54.5817 72.7724 48 66.1908 48 58.0724C48 49.9536 54.5817 43.3724 62.7 43.3724C70.8183 43.3724 77.4 49.9536 77.4 58.0724Z" fill="#84D7CC"/>
<path d="M77.2136 57.1417C77.2136 64.952 70.8817 71.2834 63.0719 71.2834C55.2616 71.2834 48.9297 64.952 48.9297 57.1417C48.9297 49.3319 55.2616 43 63.0719 43C70.8817 43 77.2136 49.3319 77.2136 57.1417Z" fill="white"/>
<path d="M69.7539 61.6638C69.2521 61.1004 68.201 60.6311 67.6102 61.1788C66.3289 62.366 64.7984 63.3281 62.9443 63.3841C59.6156 63.4855 56.7932 61.0265 56.3721 57.7925L56.9825 57.774C57.2216 57.7667 57.4367 57.6279 57.5408 57.4128C57.6461 57.1983 57.6231 56.943 57.482 56.7509L56.5037 55.4159L55.0203 53.3931C54.8959 53.2229 54.6943 53.1243 54.4821 53.1311C54.4563 53.1316 54.43 53.1344 54.4043 53.1378C54.3785 53.1417 54.3527 53.1473 54.3281 53.1546C54.2659 53.1719 54.206 53.1988 54.1528 53.2335C54.0772 53.2828 54.0117 53.3472 53.9613 53.4256L51.7079 56.9256C51.5785 57.1261 51.5712 57.382 51.6888 57.5903C51.8064 57.7987 52.0299 57.9241 52.2679 57.9168L52.9315 57.8967C53.2019 60.7588 54.6899 63.3477 57.1242 65.0613C58.4732 66.0116 60.0586 66.5996 61.6999 66.7648C64.8371 67.0818 67.8202 65.9567 69.9303 63.7145C70.4959 63.0828 70.2556 62.2271 69.7539 61.6638Z" fill="#FFD07B"/>
<path fill-rule="evenodd" clip-rule="evenodd" d="M69.7539 61.6638C69.2521 61.1004 68.201 60.6311 67.6102 61.1788C66.3289 62.366 64.7984 63.3281 62.9443 63.3841C59.6156 63.4855 56.7932 61.0265 56.3721 57.7925L56.9825 57.774C57.2216 57.7667 57.4367 57.6279 57.5408 57.4128C57.6461 57.1983 57.6231 56.943 57.482 56.7509L56.5037 55.4159L55.0203 53.3931C54.8959 53.2229 54.6943 53.1243 54.4821 53.1311C54.4563 53.1316 54.43 53.1344 54.4043 53.1378C54.3785 53.1417 54.3527 53.1473 54.3281 53.1546C54.2659 53.1719 54.206 53.1988 54.1528 53.2335C54.0772 53.2828 54.0117 53.3472 53.9613 53.4256L51.7079 56.9256C51.5785 57.1261 51.5712 57.382 51.6888 57.5903C51.8064 57.7987 52.0299 57.9241 52.2679 57.9168L52.9315 57.8967C53.2019 60.7588 54.6899 63.3477 57.1242 65.0613C58.4732 66.0116 60.0586 66.5996 61.6999 66.7648C64.8371 67.0818 67.8202 65.9567 69.9303 63.7145C70.4959 63.0828 70.2556 62.2271 69.7539 61.6638Z" stroke="white" stroke-width="1.68672"/>
<path d="M73.8083 56.3209C73.6907 56.1131 73.4678 55.9871 73.2287 55.9944L72.5651 56.0145C72.2952 53.1529 70.8078 50.5641 68.3735 48.8505C67.0244 47.9007 65.4402 47.3121 63.7983 47.1464C60.6606 46.8294 57.6769 47.9545 55.5663 50.1967C54.9581 51.4029 56.3368 53.0829 57.188 53.0292C57.4714 53.0118 57.7251 52.9194 57.8869 52.7329C59.031 51.4125 60.6981 50.5831 62.5528 50.5265C65.8809 50.4263 68.7033 52.8847 69.1256 56.1193L68.514 56.1377C68.2755 56.145 68.0604 56.2839 67.9557 56.4978C67.851 56.7129 67.8734 56.9677 68.0151 57.1609L68.9934 58.4953L70.4763 60.5181C70.5071 60.5606 70.5435 60.5987 70.5832 60.6317C70.7025 60.7314 70.856 60.7857 71.0144 60.7807C71.2261 60.774 71.421 60.6637 71.5352 60.4856L72.3495 59.2222L73.7892 56.9856C73.918 56.7845 73.9259 56.5286 73.8083 56.3209Z" fill="#FFD07B"/>
<path fill-rule="evenodd" clip-rule="evenodd" d="M73.8083 56.3209C73.6907 56.1131 73.4678 55.9871 73.2287 55.9944L72.5651 56.0145C72.2952 53.1529 70.8078 50.5641 68.3735 48.8505C67.0244 47.9007 65.4402 47.3121 63.7983 47.1464C60.6606 46.8294 57.6769 47.9545 55.5663 50.1967C54.9581 51.4029 56.3368 53.0829 57.188 53.0292C57.4714 53.0118 57.7251 52.9194 57.8869 52.7329C59.031 51.4125 60.6981 50.5831 62.5528 50.5265C65.8809 50.4263 68.7033 52.8847 69.1256 56.1193L68.514 56.1377C68.2755 56.145 68.0604 56.2839 67.9557 56.4978C67.851 56.7129 67.8734 56.9677 68.0151 57.1609L68.9934 58.4953L70.4763 60.5181C70.5071 60.5606 70.5435 60.5987 70.5832 60.6317C70.7025 60.7314 70.856 60.7857 71.0144 60.7807C71.2261 60.774 71.421 60.6637 71.5352 60.4856L72.3495 59.2222L73.7892 56.9856C73.918 56.7845 73.9259 56.5286 73.8083 56.3209Z" stroke="white" stroke-width="1.68672"/>
<path fill-rule="evenodd" clip-rule="evenodd" d="M62.7601 58.5879C62.7561 58.5089 62.713 58.3818 62.6307 58.2076C62.3781 57.7048 62.1917 57.3251 62.0701 57.0686C62.4235 56.69 62.587 56.2208 62.5601 55.6624C62.545 55.341 62.4661 55.0526 62.3249 54.7972C62.1838 54.5408 62.0108 54.3414 61.8058 54.198C61.3808 53.9012 60.9501 53.7629 60.5156 53.7836L58.914 53.8609C58.5976 53.876 58.4077 53.9522 58.3461 54.0888C58.3092 54.165 58.289 54.2316 58.2845 54.2888C58.2801 54.3459 58.2801 54.4316 58.2851 54.5452L58.4833 58.6596C58.4912 58.8326 58.513 58.9608 58.5466 59.0432C58.6144 59.2229 58.8216 59.3052 59.1677 59.2884C59.4835 59.2728 59.6733 59.1966 59.7361 59.06C59.7725 58.9844 59.7926 58.9177 59.7971 58.86C59.8016 58.8035 59.801 58.7178 59.796 58.6041L59.7551 57.7664L60.6897 57.7216L60.9188 57.6958C61.2929 58.4798 61.5079 58.9183 61.5617 59.0096C61.5941 59.0572 61.6412 59.1036 61.7061 59.1479C61.77 59.1921 61.8501 59.2112 61.9464 59.2067C62.0427 59.2016 62.1681 59.1613 62.3233 59.0846C62.6229 58.9412 62.769 58.776 62.7601 58.5879ZM60.6416 56.4084L59.6924 56.4543L59.6297 55.1416L60.5637 55.0968C60.7166 55.0896 60.8678 55.1377 61.0162 55.2424C61.1646 55.3466 61.2441 55.5084 61.2553 55.7252C61.2654 55.943 61.2016 56.1093 61.0638 56.2247C60.9255 56.3406 60.7844 56.4016 60.6416 56.4084Z" fill="#FFD07B"/>
<path fill-rule="evenodd" clip-rule="evenodd" d="M63.0355 55.8331L63.2433 60.1624C63.2489 60.2761 63.2567 60.3601 63.2674 60.4139C63.2769 60.4676 63.3021 60.5287 63.3424 60.5964C63.3833 60.6636 63.4494 60.7101 63.5423 60.7347C63.6353 60.7599 63.7585 60.7689 63.9119 60.7616C64.0648 60.7543 64.1846 60.7336 64.2731 60.6995C64.3599 60.6659 64.4204 60.6121 64.4551 60.5387C64.4876 60.4654 64.5072 60.401 64.5122 60.3467C64.5167 60.2918 64.5167 60.2072 64.5106 60.0935L64.4389 58.5961C64.6332 58.8145 64.9322 58.9147 65.3377 58.8951C65.7431 58.8755 66.1161 58.6667 66.4554 58.2685C66.7954 57.8715 66.9538 57.4207 66.9292 56.9161C66.9051 56.4121 66.703 55.9787 66.325 55.6152C65.9453 55.2523 65.5544 55.0799 65.1512 55.0989C64.748 55.1185 64.4596 55.2613 64.2843 55.5273C64.263 55.3996 64.2054 55.3044 64.1113 55.2423C64.0161 55.1801 63.8374 55.1555 63.5759 55.1678C63.3138 55.1801 63.1514 55.2551 63.0887 55.3918C63.0574 55.4623 63.0394 55.5251 63.035 55.5805C63.0299 55.6348 63.0299 55.7194 63.0355 55.8331ZM64.3935 57.0455C64.3868 56.8875 64.4366 56.7386 64.5436 56.5997C64.6506 56.4608 64.8001 56.3869 64.9905 56.3779C65.1803 56.369 65.3382 56.4267 65.4631 56.5521C65.588 56.6775 65.6541 56.8215 65.6619 56.9844C65.6703 57.1479 65.6138 57.2969 65.4939 57.4307C65.3741 57.5663 65.2246 57.6374 65.0437 57.6458C64.8634 57.6547 64.7116 57.5959 64.5895 57.4711C64.4669 57.3456 64.4019 57.2039 64.3935 57.0455Z" fill="#FFD07B"/>
<path d="M102.4 111.7C102.4 119.818 95.8183 126.4 87.7 126.4C79.5817 126.4 73 119.818 73 111.7C73 103.581 79.5817 97 87.7 97C95.8183 97 102.4 103.581 102.4 111.7Z" fill="#84D7CC"/>
<path d="M101.84 110.768C101.84 118.268 95.7598 124.348 88.2597 124.348C80.7596 124.348 74.6797 118.268 74.6797 110.768C74.6797 103.268 80.7596 97.1876 88.2597 97.1876C95.7598 97.1876 101.84 103.268 101.84 110.768Z" fill="white"/>
<path d="M80.9277 109.931V107.959C80.9277 107.784 81.0694 107.642 81.2441 107.642H89.8833C90.0585 107.642 90.2002 107.5 90.2002 107.325V105.759C90.2002 105.487 90.5211 105.342 90.7255 105.521L95.4866 109.693C95.7067 109.886 95.5701 110.248 95.2783 110.248H81.2441C81.0694 110.248 80.9277 110.106 80.9277 109.931Z" fill="#F67D80"/>
<path d="M96.1194 112.595V114.66C96.1194 114.809 95.9979 114.932 95.8484 114.932H87.1185C86.9684 114.932 86.8469 115.053 86.8469 115.203V116.913C86.8469 117.146 86.5725 117.271 86.3972 117.117L81.4698 112.799C81.2816 112.634 81.3987 112.324 81.649 112.324H95.8484C95.9979 112.324 96.1194 112.445 96.1194 112.595Z" fill="#F67D80"/>
</g>
</svg>
