<svg width="64" height="64" viewBox="0 0 64 64" fill="none" xmlns="http://www.w3.org/2000/svg">
<path d="M32 64C49.6731 64 64 49.6731 64 32C64 14.3269 49.6731 0 32 0C14.3269 0 0 14.3269 0 32C0 49.6731 14.3269 64 32 64Z" fill="#FFF9ED"/>
<path fill-rule="evenodd" clip-rule="evenodd" d="M16.8101 46.09C16.2701 46.01 16.1401 45.98 16.0301 45.87C15.9201 45.76 15.8501 45.6 15.8501 45.14V23.45C15.8501 23.14 16.1001 22.9 16.4001 22.9C27.9101 25.55 37.0601 19.62 48.5801 22.27C49.0901 22.43 49.1901 22.54 49.2901 22.64C49.3801 22.74 49.4701 23 49.4701 23.23C49.4701 31.92 49.4701 39.19 49.4701 45.01C49.4701 45.23 49.3201 45.44 49.1101 45.4C49.0801 45.4 49.0601 45.39 49.0301 45.38C37.5201 42.73 30.6201 48.16 16.8001 46.1L16.8101 46.09Z" fill="#946F25"/>
<path d="M23.19 47.0101C21.2 47.0101 19.08 46.8701 16.74 46.5201C16.17 46.4401 15.94 46.3901 15.72 46.1701C15.46 45.9201 15.41 45.5701 15.41 45.1301V23.4401C15.41 22.8901 15.86 22.4401 16.41 22.4401H16.51C22.18 23.7601 27.39 22.9301 32.43 22.1301C37.55 21.3201 42.85 20.4701 48.69 21.8201C49.3 22.0101 49.47 22.1601 49.62 22.3201C49.83 22.5401 49.92 22.9401 49.92 23.2101V44.9901C49.92 45.2601 49.81 45.5101 49.62 45.6701C49.45 45.8101 49.24 45.8601 49.03 45.8101C48.99 45.8101 48.96 45.7901 48.92 45.7801C43.18 44.4601 38.56 45.1901 33.67 45.9601C30.41 46.4701 27.07 47.0001 23.2 47.0001L23.19 47.0101ZM16.87 45.6501C23.62 46.6601 28.65 45.8601 33.52 45.1001C38.48 44.3201 43.16 43.5801 49.02 44.9101V23.2201C49.02 23.1001 48.97 22.9601 48.95 22.9201C48.91 22.8801 48.85 22.8101 48.44 22.6801C42.8 21.3801 37.59 22.2101 32.55 23.0101C27.45 23.8201 22.17 24.6601 16.36 23.3401C16.31 23.3501 16.28 23.4001 16.28 23.4501V45.1401C16.28 45.4801 16.32 45.5501 16.32 45.5501C16.38 45.5801 16.7 45.6301 16.86 45.6501H16.87Z" fill="#252528"/>
<path fill-rule="evenodd" clip-rule="evenodd" d="M12.7701 41.71C12.2301 41.63 12.1001 41.6 11.9901 41.5C11.8801 41.4 11.8101 41.24 11.8101 40.8V19.99C11.8101 19.68 12.0601 19.44 12.3601 19.44C23.8701 21.99 33.0201 16.29 44.5401 18.83C45.0501 18.98 45.1501 19.09 45.2501 19.18C45.3401 19.28 45.4301 19.53 45.4301 19.74C45.4301 28.08 45.4301 35.07 45.4301 40.66C45.4301 40.87 45.2901 41.07 45.0801 41.03C45.0501 41.03 45.0201 41.02 44.9901 41.01C33.4801 38.46 26.5801 43.68 12.7601 41.7L12.7701 41.71Z" fill="#FFC54F"/>
<path d="M19.3401 42.61C17.3501 42.61 15.2301 42.48 12.9001 42.14C12.3401 42.06 12.1001 42.02 11.8801 41.81C11.6201 41.56 11.5701 41.22 11.5701 40.79V19.98C11.5701 19.43 12.0201 18.98 12.5701 18.98H12.6701C18.3501 20.25 23.5601 19.45 28.6001 18.68C33.7201 17.9 39.0101 17.09 44.8501 18.38C45.4601 18.56 45.6301 18.7 45.7801 18.86C45.9901 19.08 46.0901 19.46 46.0901 19.73C46.0901 28.07 46.0901 35.06 46.0901 40.65C46.0901 40.91 45.9801 41.15 45.8001 41.3C45.6401 41.44 45.4401 41.49 45.2301 41.45C45.1901 41.45 45.1401 41.43 45.1001 41.42C39.3601 40.15 34.7301 40.85 29.8401 41.59C26.5801 42.08 23.2401 42.59 19.3701 42.59L19.3401 42.61ZM13.0201 41.27C19.7801 42.24 24.8101 41.48 29.6801 40.74C34.6401 39.99 39.3201 39.28 45.1801 40.56C45.1801 34.97 45.1801 28.03 45.1801 19.74C45.1801 19.63 45.1301 19.5 45.1101 19.47C45.0701 19.43 45.0101 19.36 44.6001 19.24C38.9601 17.99 33.7401 18.79 28.7001 19.56C23.6001 20.34 18.3301 21.14 12.5101 19.87C12.4601 19.88 12.4301 19.93 12.4301 19.98V40.79C12.4301 41.09 12.4701 41.16 12.4701 41.17C12.5301 41.2 12.8501 41.25 13.0101 41.27H13.0201Z" fill="#252528"/>
<path fill-rule="evenodd" clip-rule="evenodd" d="M28.6201 36.39C25.2101 36.39 22.4501 33.63 22.4501 30.22C22.4501 26.81 25.2101 24.05 28.6201 24.05C32.0301 24.05 34.7901 26.81 34.7901 30.22C34.7901 33.63 32.0301 36.39 28.6201 36.39Z" fill="#CC9D3F"/>
<path d="M42.23 23.06H37.88C37.42 23.06 37.05 22.69 37.05 22.23C37.05 21.77 37.42 21.4 37.88 21.4H42.23C42.69 21.4 43.06 21.77 43.06 22.23C43.06 22.69 42.69 23.06 42.23 23.06Z" fill="white"/>
<path d="M19.2401 39.4801H14.8901C14.4301 39.4801 14.0601 39.1101 14.0601 38.6501C14.0601 38.1901 14.4301 37.8201 14.8901 37.8201H19.2401C19.7001 37.8201 20.0701 38.1901 20.0701 38.6501C20.0701 39.1101 19.7001 39.4801 19.2401 39.4801Z" fill="white"/>
<path d="M28.4601 36.7901C24.8101 36.7901 21.8501 33.8301 21.8501 30.1801C21.8501 26.5301 24.8201 23.5701 28.4601 23.5701C32.1001 23.5701 35.0701 26.5401 35.0701 30.1801C35.0701 33.8201 32.1101 36.7901 28.4601 36.7901ZM28.4601 24.4501C25.3001 24.4501 22.7301 27.0201 22.7301 30.1801C22.7301 33.3401 25.3001 35.9101 28.4601 35.9101C31.6201 35.9101 34.1901 33.3401 34.1901 30.1801C34.1901 27.0201 31.6201 24.4501 28.4601 24.4501Z" fill="#252528"/>
<path d="M41.4 48.04C39.65 47.01 38.33 45.33 37.78 43.33C37.59 42.66 37.49 41.9501 37.49 41.2101C37.49 36.8301 41.03 33.29 45.41 33.29C49.79 33.29 53.33 36.8301 53.33 41.2101C53.33 45.5901 49.79 49.13 45.41 49.13C43.94 49.13 42.58 48.73 41.4 48.04Z" fill="#E07E26"/>
<path d="M45.41 49.64C43.91 49.64 42.43 49.24 41.14 48.48C39.24 47.36 37.87 45.58 37.28 43.46C37.08 42.74 36.97 41.98 36.97 41.2C36.97 36.55 40.75 32.77 45.4 32.77C50.05 32.77 53.83 36.55 53.83 41.2C53.83 45.85 50.05 49.63 45.4 49.63L45.41 49.64ZM45.41 33.8C41.32 33.8 38 37.12 38 41.21C38 41.89 38.09 42.55 38.27 43.19C38.79 45.05 39.99 46.62 41.66 47.6C42.79 48.27 44.09 48.62 45.41 48.62C49.5 48.62 52.82 45.3 52.82 41.21C52.82 37.12 49.5 33.8 45.41 33.8Z" fill="white"/>
<path d="M49.5899 39.9901L46.2899 36.69C46.1299 36.52 45.8999 36.42 45.6499 36.42C45.3999 36.42 45.1699 36.52 45.0099 36.69L41.7099 39.9901C41.3499 40.3501 41.3499 40.9201 41.7099 41.2801C42.0699 41.6401 42.6399 41.6401 42.9999 41.2801L44.7399 39.54V44.69C44.7399 45.19 45.1499 45.6 45.6499 45.6C46.1499 45.6 46.5599 45.19 46.5599 44.69V39.54L48.2999 41.2801C48.4799 41.4601 48.7099 41.55 48.9399 41.55C49.1699 41.55 49.4099 41.4601 49.5799 41.2801C49.9399 40.9201 49.9399 40.3501 49.5799 39.9901H49.5899Z" fill="white"/>
<path d="M45.41 50.26C40.42 50.26 36.36 46.2001 36.36 41.2101C36.36 36.2201 40.42 32.16 45.41 32.16C50.4 32.16 54.46 36.2201 54.46 41.2101C54.46 46.2001 50.4 50.26 45.41 50.26ZM45.41 33.04C40.9 33.04 37.24 36.7101 37.24 41.2101C37.24 45.7101 40.91 49.38 45.41 49.38C49.91 49.38 53.58 45.7101 53.58 41.2101C53.58 36.7101 49.91 33.04 45.41 33.04Z" fill="#252528"/>
</svg>
