<svg width="360" height="176" viewBox="0 0 360 176" fill="none" xmlns="http://www.w3.org/2000/svg">
<ellipse cx="390.119" cy="28.2905" rx="101.588" ry="101.814" fill="#E79E5C" fill-opacity="0.2"/>
<ellipse cx="279.853" cy="-0.360733" rx="51.5599" ry="51.6744" fill="#E79E5C" fill-opacity="0.2"/>
<path opacity="0.3" d="M467.723 5.77879C467.723 61.734 422.464 107.093 366.635 107.093C310.807 107.093 265.547 61.734 265.547 5.77879C265.547 -50.1764 310.807 -95.5352 366.635 -95.5352C422.464 -95.5352 467.723 -50.1764 467.723 5.77879Z" stroke="#E07E26"/>
<ellipse cx="-5.9155" cy="188.771" rx="84.0845" ry="84.2714" fill="#FBF2E9" fill-opacity="0.2"/>
<path opacity="0.3" d="M89.5 204.864C89.5 254.405 49.4284 294.564 0 294.564C-49.4284 294.564 -89.5 254.405 -89.5 204.864C-89.5 155.323 -49.4284 115.164 0 115.164C49.4284 115.164 89.5 155.323 89.5 204.864Z" stroke="#E07E26"/>
</svg>
