<svg width="408" height="160" viewBox="0 0 408 160" fill="none" xmlns="http://www.w3.org/2000/svg">
<path d="M27.9162 137.679L94.9194 104.4L83.722 85.605L38.0774 109.054C31.8759 111.812 26.3639 118.02 27.0533 125.609L27.9162 137.679Z" fill="#004D43"/>
<path d="M27.9162 137.679L94.9194 104.4L83.722 85.605L38.0774 109.054C31.8759 111.812 26.3639 118.02 27.0533 125.609L27.9162 137.679Z" fill="url(#paint0_linear_5439_196321)"/>
<path d="M21.3683 77.4992L88.3715 107.674L98.8023 102.661C106.803 99.225 105.424 90.2593 97.3271 87.1551L38.4205 58.8776L21.3683 77.4992Z" fill="#00AB4F"/>
<path d="M21.3683 77.4992L88.3715 107.674L98.8023 102.661C106.803 99.225 105.424 90.2593 97.3271 87.1551L38.4205 58.8776L21.3683 77.4992Z" fill="url(#paint1_linear_5439_196321)"/>
<path d="M21.368 60.6014L21.3334 77.4607L74.5238 50.5059L79.2423 59.5679L98.5363 25.9419L59.7789 22.321L64.0852 31.4602L29.4647 49.0482C24.4688 51.4622 21.368 54.9097 21.368 60.6014Z" fill="#BFD72F"/>
<path d="M21.368 60.6014L21.3334 77.4607L74.5238 50.5059L79.2423 59.5679L98.5363 25.9419L59.7789 22.321L64.0852 31.4602L29.4647 49.0482C24.4688 51.4622 21.368 54.9097 21.368 60.6014Z" fill="url(#paint2_linear_5439_196321)"/>
<path d="M125.417 94.7495C127.911 91.7936 132.168 91.1792 135.472 93.1856C138.777 95.192 142.991 96.4337 147.296 96.4337C152.583 96.4337 154.741 93.379 154.741 90.6937C154.741 87.712 150.943 86.1481 146.253 84.4339C139.33 81.972 130.692 78.6939 130.692 69.8261C130.692 62.2988 137.764 54.3204 150.051 54.3204C154.39 54.3204 158.595 55.2012 162.23 56.8467C166.642 58.8445 167.835 64.563 164.621 68.1849L163.664 69.2633C163.441 69.5168 163.046 69.5254 162.818 69.2762C159.265 65.3493 153.437 63.4159 148.712 63.4159C144.618 63.4159 141.79 65.8777 141.79 68.6317C141.79 71.3857 145.588 72.8809 150.278 74.5951C157.201 77.057 165.99 80.4081 165.99 89.0568C165.99 97.7054 158.767 105.68 146.485 105.68C136.953 105.68 128.559 102.049 124.288 96.8075C124.117 96.597 124.125 96.2876 124.301 96.0771L125.421 94.7495H125.417Z" fill="#004D43"/>
<path d="M169.633 104.786L179.44 60.2323C180.105 57.2162 182.774 55.068 185.855 55.068H202.018C211.549 55.068 217.132 61.3278 217.132 68.8594C217.132 76.391 212.146 87.1964 196.584 87.1964H184.074L181.461 99.0631C180.727 102.406 177.766 104.79 174.345 104.79H169.629L169.633 104.786ZM197.108 77.8776C202.769 77.8776 206.043 74.376 206.043 69.9034C206.043 66.6253 203.584 64.1635 199.79 64.1635H189.143L186.164 77.8776H197.108Z" fill="#004D43"/>
<path d="M242.822 99.3037L238.801 86.9688H230.535L227.866 99.2564C227.166 102.483 224.312 104.782 221.016 104.782H216.094L226.003 59.764C226.608 57.0186 229.037 55.0637 231.848 55.0637H248.259C256.302 55.0637 263.597 60.4299 263.597 69.0786C263.597 77.7272 257.49 84.8807 249.452 86.3716L256.302 104.782H250.371C246.937 104.782 243.89 102.569 242.826 99.2994L242.822 99.3037ZM243.642 77.8776C249.225 77.8776 252.504 74.5994 252.504 70.1269C252.504 66.6253 249.598 64.1635 246.174 64.1635H235.599L232.621 77.8776H243.642Z" fill="#004D43"/>
<path d="M263.967 104.786L273.833 59.9702C274.464 57.1088 276.996 55.068 279.927 55.068H285.485L275.64 99.7892C274.996 102.706 272.412 104.786 269.425 104.786H263.967Z" fill="#004D43"/>
<path d="M318.615 104.786L302.681 69.5297L296.119 99.3982C295.428 102.543 292.643 104.786 289.428 104.786H284.364L294.042 60.8252C294.78 57.4611 297.758 55.068 301.196 55.068H306.178L321.667 89.1341L327.877 60.997C328.641 57.5341 331.709 55.068 335.25 55.068H339.76L330.319 97.9546C329.439 101.946 325.907 104.786 321.826 104.786H318.615Z" fill="#004D43"/>
<path d="M350.107 104.786L358.969 64.3869H344.451L345.206 61.0099C345.983 57.5384 349.064 55.068 352.617 55.068H386.148L385.62 57.5126C384.753 61.5255 381.212 64.3869 377.109 64.3869H369.616L362.128 98.526C361.325 102.182 358.093 104.786 354.356 104.786H350.111H350.107Z" fill="#004D43"/>
<defs>
<linearGradient id="paint0_linear_5439_196321" x1="104.707" y1="80.966" x2="-7.97655" y2="156.238" gradientUnits="userSpaceOnUse">
<stop offset="0.31" stop-color="#003029"/>
<stop offset="0.46" stop-color="#215341" stop-opacity="0.83"/>
<stop offset="0.68" stop-color="#7BB585" stop-opacity="0.36"/>
<stop offset="0.82" stop-color="#C0FFB8" stop-opacity="0"/>
</linearGradient>
<linearGradient id="paint1_linear_5439_196321" x1="-3.66884" y1="50.3709" x2="110.013" y2="107.818" gradientUnits="userSpaceOnUse">
<stop offset="0.25" stop-color="#005E4C"/>
<stop offset="0.57" stop-color="#6CAD63" stop-opacity="0.51"/>
<stop offset="0.85" stop-color="#BDE874" stop-opacity="0.14"/>
<stop offset="1" stop-color="#DCFF7B" stop-opacity="0"/>
</linearGradient>
<linearGradient id="paint2_linear_5439_196321" x1="-26.5877" y1="93.6297" x2="156.201" y2="-6.3582" gradientUnits="userSpaceOnUse">
<stop offset="0.1" stop-color="#218F0D"/>
<stop offset="0.22" stop-color="#4AA825" stop-opacity="0.78"/>
<stop offset="0.39" stop-color="#7EC744" stop-opacity="0.5"/>
<stop offset="0.55" stop-color="#A7DF5C" stop-opacity="0.28"/>
<stop offset="0.71" stop-color="#C4F06D" stop-opacity="0.13"/>
<stop offset="0.86" stop-color="#D6FB77" stop-opacity="0.03"/>
<stop offset="1" stop-color="#DCFF7B" stop-opacity="0"/>
</linearGradient>
</defs>
</svg>
