<svg width="16" height="16" viewBox="0 0 16 16" fill="none" xmlns="http://www.w3.org/2000/svg">
<path d="M5.4151 6.46832L8.00177 9.05498L10.5884 6.46832C10.8484 6.20832 11.2684 6.20832 11.5284 6.46832C11.7884 6.72832 11.7884 7.14832 11.5284 7.40832L8.46844 10.4683C8.20844 10.7283 7.78844 10.7283 7.52844 10.4683L4.46844 7.40832C4.20844 7.14832 4.20844 6.72832 4.46844 6.46832C4.72844 6.21498 5.1551 6.20832 5.4151 6.46832Z" fill="black"/>
<mask id="mask0" style="mask-type:alpha" maskUnits="userSpaceOnUse" x="4" y="6" width="8" height="5">
<path d="M5.4151 6.46832L8.00177 9.05498L10.5884 6.46832C10.8484 6.20832 11.2684 6.20832 11.5284 6.46832C11.7884 6.72832 11.7884 7.14832 11.5284 7.40832L8.46844 10.4683C8.20844 10.7283 7.78844 10.7283 7.52844 10.4683L4.46844 7.40832C4.20844 7.14832 4.20844 6.72832 4.46844 6.46832C4.72844 6.21498 5.1551 6.20832 5.4151 6.46832Z" fill="white"/>
</mask>
<g mask="url(#mask0)">
<rect width="16" height="16" fill="#58585B"/>
</g>
</svg>
