<svg width="16" height="16" viewBox="0 0 16 16" fill="none" xmlns="http://www.w3.org/2000/svg">
<path fill-rule="evenodd" clip-rule="evenodd" d="M5.31876 4.18384C5.00205 3.92238 4.53245 3.93981 4.23613 4.23613C3.92129 4.55097 3.92129 5.06143 4.23613 5.37627L7.19319 8.33333L4.23613 11.2904C3.92129 11.6052 3.92129 12.1157 4.23613 12.4305C4.53245 12.7269 5.00205 12.7443 5.31876 12.4828L5.37627 12.4305L8.33333 9.47347L11.2904 12.4305L11.3479 12.4828C11.6646 12.7443 12.1342 12.7269 12.4305 12.4305C12.7454 12.1157 12.7454 11.6052 12.4305 11.2904L9.47347 8.33333L12.4305 5.37627C12.7454 5.06143 12.7454 4.55097 12.4305 4.23613C12.1342 3.93981 11.6646 3.92238 11.3479 4.18384L11.2904 4.23613L8.33333 7.19319L5.37627 4.23613L5.31876 4.18384Z" fill="white"/>
<mask id="mask0" mask-type="alpha" maskUnits="userSpaceOnUse" x="4" y="4" width="9" height="9">
<path fill-rule="evenodd" clip-rule="evenodd" d="M5.31876 4.18384C5.00205 3.92238 4.53245 3.93981 4.23613 4.23613C3.92129 4.55097 3.92129 5.06143 4.23613 5.37627L7.19319 8.33333L4.23613 11.2904C3.92129 11.6052 3.92129 12.1157 4.23613 12.4305C4.53245 12.7269 5.00205 12.7443 5.31876 12.4828L5.37627 12.4305L8.33333 9.47347L11.2904 12.4305L11.3479 12.4828C11.6646 12.7443 12.1342 12.7269 12.4305 12.4305C12.7454 12.1157 12.7454 11.6052 12.4305 11.2904L9.47347 8.33333L12.4305 5.37627C12.7454 5.06143 12.7454 4.55097 12.4305 4.23613C12.1342 3.93981 11.6646 3.92238 11.3479 4.18384L11.2904 4.23613L8.33333 7.19319L5.37627 4.23613L5.31876 4.18384Z" fill="white"/>
</mask>
<g mask="url(#mask0)">
</g>
</svg>
