<svg width="20" height="20" viewBox="0 0 20 20" fill="none" xmlns="http://www.w3.org/2000/svg">
<path fill-rule="evenodd" clip-rule="evenodd" d="M10.0061 4.16669L10.3444 4.16724C12.7859 4.17525 14.7765 4.26538 16.4319 4.40474C17.3651 4.49295 18.1079 5.2145 18.2058 6.14216C18.237 6.41966 18.2663 6.73382 18.2929 7.07938L18.3308 7.62062C18.3683 8.20486 17.9801 8.71093 17.4213 8.87351L17.3031 8.91287C16.6851 9.14572 16.263 9.73963 16.263 10.4167C16.263 11.1361 16.7395 11.7616 17.4213 11.9599L17.524 11.9943C18.0269 12.186 18.366 12.665 18.3308 13.2122C18.307 13.5884 18.2801 13.9357 18.2511 14.2475L18.2062 14.6876C18.1079 15.6189 17.3651 16.3404 16.4265 16.4291C14.8983 16.5577 13.083 16.6443 10.8994 16.6629L10.0061 16.6667C7.36681 16.6667 5.20474 16.5708 3.55046 16.4217C2.618 16.3384 1.875 15.6078 1.77833 14.6746C1.74791 14.3818 1.72033 14.0491 1.69601 13.6738L1.66842 13.2029C1.63708 12.6221 2.0254 12.1204 2.58184 11.9612L2.70109 11.9222C3.32499 11.6912 3.74996 11.0966 3.74996 10.4167C3.74996 9.69432 3.27018 9.068 2.58222 8.87159L2.47993 8.83802C1.97896 8.65061 1.63902 8.17534 1.66839 7.63109C1.69006 7.22088 1.71513 6.85464 1.74321 6.52953L1.77832 6.15896C1.875 5.22557 2.618 4.49496 3.54974 4.41171C5.1922 4.26267 7.36159 4.16669 10.0061 4.16669ZM12.461 7.18074C12.6688 6.97153 13.0055 6.97153 13.2133 7.18074C13.4021 7.37093 13.4193 7.66854 13.2648 7.87827L13.2133 7.93835L7.53939 13.6526C7.33166 13.8618 6.99486 13.8618 6.78713 13.6526C6.59828 13.4624 6.58111 13.1648 6.73562 12.9551L6.78713 12.895L12.461 7.18074ZM8.33329 8.27383C8.33329 7.58404 7.77308 7.02383 7.08329 7.02383C6.39351 7.02383 5.83329 7.58404 5.83329 8.27383C5.83329 8.96362 6.39351 9.52383 7.08329 9.52383C7.77308 9.52383 8.33329 8.96362 8.33329 8.27383ZM14.1666 12.4405C14.1666 11.7507 13.6064 11.1905 12.9166 11.1905C12.2268 11.1905 11.6666 11.7507 11.6666 12.4405C11.6666 13.1303 12.2268 13.6905 12.9166 13.6905C13.6064 13.6905 14.1666 13.1303 14.1666 12.4405Z" fill="#70717D"/>
<mask id="mask0" mask-type="alpha" maskUnits="userSpaceOnUse" x="1" y="4" width="18" height="13">
<path fill-rule="evenodd" clip-rule="evenodd" d="M10.0061 4.16669L10.3444 4.16724C12.7859 4.17525 14.7765 4.26538 16.4319 4.40474C17.3651 4.49295 18.1079 5.2145 18.2058 6.14216C18.237 6.41966 18.2663 6.73382 18.2929 7.07938L18.3308 7.62062C18.3683 8.20486 17.9801 8.71093 17.4213 8.87351L17.3031 8.91287C16.6851 9.14572 16.263 9.73963 16.263 10.4167C16.263 11.1361 16.7395 11.7616 17.4213 11.9599L17.524 11.9943C18.0269 12.186 18.366 12.665 18.3308 13.2122C18.307 13.5884 18.2801 13.9357 18.2511 14.2475L18.2062 14.6876C18.1079 15.6189 17.3651 16.3404 16.4265 16.4291C14.8983 16.5577 13.083 16.6443 10.8994 16.6629L10.0061 16.6667C7.36681 16.6667 5.20474 16.5708 3.55046 16.4217C2.618 16.3384 1.875 15.6078 1.77833 14.6746C1.74791 14.3818 1.72033 14.0491 1.69601 13.6738L1.66842 13.2029C1.63708 12.6221 2.0254 12.1204 2.58184 11.9612L2.70109 11.9222C3.32499 11.6912 3.74996 11.0966 3.74996 10.4167C3.74996 9.69432 3.27018 9.068 2.58222 8.87159L2.47993 8.83802C1.97896 8.65061 1.63902 8.17534 1.66839 7.63109C1.69006 7.22088 1.71513 6.85464 1.74321 6.52953L1.77832 6.15896C1.875 5.22557 2.618 4.49496 3.54974 4.41171C5.1922 4.26267 7.36159 4.16669 10.0061 4.16669ZM12.461 7.18074C12.6688 6.97153 13.0055 6.97153 13.2133 7.18074C13.4021 7.37093 13.4193 7.66854 13.2648 7.87827L13.2133 7.93835L7.53939 13.6526C7.33166 13.8618 6.99486 13.8618 6.78713 13.6526C6.59828 13.4624 6.58111 13.1648 6.73562 12.9551L6.78713 12.895L12.461 7.18074ZM8.33329 8.27383C8.33329 7.58404 7.77308 7.02383 7.08329 7.02383C6.39351 7.02383 5.83329 7.58404 5.83329 8.27383C5.83329 8.96362 6.39351 9.52383 7.08329 9.52383C7.77308 9.52383 8.33329 8.96362 8.33329 8.27383ZM14.1666 12.4405C14.1666 11.7507 13.6064 11.1905 12.9166 11.1905C12.2268 11.1905 11.6666 11.7507 11.6666 12.4405C11.6666 13.1303 12.2268 13.6905 12.9166 13.6905C13.6064 13.6905 14.1666 13.1303 14.1666 12.4405Z" fill="white"/>
</mask>
<g mask="url(#mask0)">
<rect width="20" height="20" fill="#00AB4E"/>
</g>
</svg>
