<svg width="328" height="164" viewBox="0 0 328 164" fill="none" xmlns="http://www.w3.org/2000/svg">
    <mask id="mask0_33756_138632" style="mask-type:luminance" maskUnits="userSpaceOnUse" x="-1" y="0" width="330" height="164">
        <path d="M23.2169 161.504C33.6769 163.664 265.047 165.824 301.877 161.504C312.777 160.224 321.507 148.274 322.777 146.204C330.737 133.244 327.757 53.2844 325.757 26.2644C324.687 11.7244 309.837 5.19443 302.867 3.03443C289.547 -1.09557 53.2769 -1.26556 22.2169 4.11444C8.31689 6.52444 3.28689 17.8744 2.28689 24.1744C-0.0431113 38.8844 -1.42311 129.324 2.31689 141.504C5.30689 151.224 12.7669 159.334 23.2169 161.494V161.504Z" fill="white"/>
    </mask>
    <g mask="url(#mask0_33756_138632)">
        <path fill-rule="evenodd" clip-rule="evenodd" d="M23.2169 161.504C33.6769 163.664 265.047 165.824 301.877 161.504C312.777 160.224 321.507 148.274 322.777 146.204C330.737 133.244 327.757 53.2844 325.757 26.2644C324.687 11.7244 309.837 5.19443 302.867 3.03443C289.547 -1.09557 53.2769 -1.26556 22.2169 4.11444C8.31689 6.52444 3.28689 17.8744 2.28689 24.1744C-0.0431113 38.8844 -1.42311 129.324 2.31689 141.504C5.30689 151.224 12.7669 159.334 23.2169 161.494V161.504Z" fill="#E6F6F3"/>
        <path d="M327.997 140.004H-4.00305V202.004H327.997V140.004Z" fill="#D0F5D9"/>
        <path d="M272.537 90.0444V105.094H318.837V90.0444H272.537Z" fill="#E6F6F3"/>
        <path d="M270.597 85.8445V90.0545H320.457V85.8445H270.597Z" fill="#99DDCF"/>
        <path d="M295.517 105.094H318.837V90.0445H320.457V85.8345H294.547V89.6545L295.517 105.094Z" fill="#40C0A6"/>
        <path d="M288.397 92.4744H279.007V94.7344H288.397V92.4744Z" fill="#40C0A6"/>
        <path d="M289.857 97.5745H277.807V102.354H289.857V97.5745Z" fill="#40C0A6"/>
        <path d="M328.997 141.324L327.897 -92.9956H323.357V-46.8456H311.637L311.417 -92.9956H306.877V-46.8456H266.557L266.347 -92.9956H261.807V-46.8456H250.127L249.907 -92.9956H245.367V141.314H251.007L250.857 109.874H261.797V141.314H267.447L267.297 109.894H306.877V141.314H312.517L312.367 109.874H323.347V141.314H328.987L328.997 141.324ZM256.047 78.8244L251.987 61.4544H260.307L256.037 78.8244H256.047ZM261.817 62.5144V103.544L256.907 82.5044L261.817 62.5144ZM261.817 2.8744L256.907 -18.1656L261.817 -38.1456V2.8744ZM260.937 6.64439H250.777L255.977 -14.4956L260.937 6.64439ZM256.047 -21.8456L251.407 -41.7756H260.937L256.047 -21.8456ZM255.147 -18.1756L250.347 1.2944L250.157 -39.5056L255.147 -18.1756ZM250.647 63.2344L255.147 82.4944L250.797 100.074L250.647 63.2344ZM256.007 86.1744L260.357 104.754H251.437L256.007 86.1744ZM250.807 56.3344L250.767 56.1744H250.617L250.407 11.7444H261.817V56.3044L250.807 56.3344ZM266.847 11.7744H306.887V56.3344H267.037L266.837 11.7744H266.847ZM317.227 -14.4856L322.157 6.6544H312.027L317.227 -14.4856ZM311.857 0.184395L311.677 -38.2756L316.387 -18.1656L311.857 0.184395ZM323.357 4.24439L318.127 -18.1556L323.357 -39.4356V4.24439ZM323.357 6.5844V6.6544H323.037L323.357 6.5844ZM323.357 63.7444V102.274L318.747 82.5144L323.357 63.7444ZM317.887 78.8344L313.827 61.4644H322.187L317.887 78.8344ZM317.267 -21.8356L312.627 -41.7656H322.197L317.277 -21.8356H317.267ZM323.357 11.7744V56.3344H312.637V56.1744L312.157 56.2844L311.947 11.7744H323.357ZM316.987 82.4944L312.337 101.394L312.157 61.7744L316.987 82.4944ZM317.847 86.1744L322.197 104.754H313.277L317.837 86.1744H317.847ZM306.887 -41.7656V6.6244H266.827L266.597 -41.7656H306.887ZM268.017 104.754H267.287L267.087 61.4544H306.887V104.754H268.017Z" fill="#99DDCF"/>
        <path d="M268.007 6.88448V1.59448H305.357L305.477 6.88448H268.007Z" fill="#40C0A6"/>
        <path d="M305.377 2.46436C305.377 2.46436 272.247 2.71436 270.107 3.19436C269.647 3.30436 269.177 5.37435 270.107 5.52435C271.037 5.67435 305.377 5.98436 305.377 5.98436V2.46436Z" fill="white"/>
        <path d="M272.347 1.38449V-3.89551H301.937L302.027 1.38449H272.347Z" fill="#99DDCF"/>
        <path d="M301.947 -3.03564C301.947 -3.03564 275.707 -2.79564 274.007 -2.30564C273.637 -2.19564 273.277 -0.165647 274.007 0.024353C274.737 0.214353 301.947 0.48436 301.947 0.48436V-3.03564Z" fill="white"/>
        <path d="M306.887 21.5044H299.387V56.4344H306.887V21.5044Z" fill="#40C0A6"/>
        <path d="M304.777 48.0545C304.777 48.3445 304.687 48.6145 304.537 48.8545C304.377 49.0945 304.157 49.2745 303.897 49.3845C303.637 49.4945 303.347 49.5245 303.067 49.4745C302.787 49.4245 302.527 49.2845 302.327 49.0845C302.127 48.8845 301.977 48.6345 301.917 48.3545C301.857 48.0745 301.877 47.7845 301.987 47.5145C302.087 47.2445 302.277 47.0245 302.507 46.8545C302.737 46.6945 303.017 46.6045 303.307 46.5945C303.497 46.5945 303.697 46.6245 303.877 46.6945C304.057 46.7645 304.217 46.8745 304.357 47.0045C304.497 47.1445 304.607 47.3045 304.677 47.4845C304.757 47.6645 304.787 47.8545 304.787 48.0445L304.777 48.0545Z" fill="white"/>
        <path d="M304.367 30.7644H302.077V45.0344H304.367V30.7644Z" fill="white"/>
        <path d="M299.277 21.5044H291.777V56.4344H299.277V21.5044Z" fill="#99DDCF"/>
        <path d="M297.157 48.0545C297.157 48.3445 297.077 48.6145 296.917 48.8545C296.757 49.0945 296.537 49.2745 296.277 49.3845C296.017 49.4945 295.727 49.5245 295.447 49.4745C295.167 49.4245 294.907 49.2845 294.707 49.0845C294.507 48.8845 294.357 48.6345 294.297 48.3545C294.237 48.0745 294.257 47.7845 294.367 47.5145C294.467 47.2445 294.657 47.0245 294.887 46.8545C295.117 46.6945 295.397 46.6045 295.687 46.5945C295.877 46.5945 296.077 46.6245 296.257 46.6945C296.437 46.7645 296.607 46.8745 296.737 47.0045C296.877 47.1445 296.987 47.3045 297.057 47.4845C297.137 47.6645 297.167 47.8545 297.167 48.0445L297.157 48.0545Z" fill="white"/>
        <path d="M296.757 30.7644H294.467V45.0344H296.757V30.7644Z" fill="white"/>
        <path d="M292.027 21.5044H284.527V56.4344H292.027V21.5044Z" fill="#E6F6F3"/>
        <path d="M289.907 48.0545C289.907 48.3445 289.817 48.6245 289.667 48.8645C289.507 49.1045 289.277 49.2845 289.017 49.3945C288.747 49.5045 288.457 49.5345 288.177 49.4745C287.897 49.4145 287.637 49.2845 287.437 49.0745C287.237 48.8745 287.097 48.6145 287.037 48.3345C286.977 48.0545 287.007 47.7645 287.117 47.4945C287.227 47.2245 287.417 47.0045 287.657 46.8445C287.897 46.6845 288.177 46.6045 288.467 46.6045C288.857 46.6045 289.217 46.7545 289.497 47.0345C289.767 47.3045 289.927 47.6745 289.927 48.0645L289.907 48.0545Z" fill="white"/>
        <path d="M289.507 30.7644H287.217V45.0344H289.507V30.7644Z" fill="white"/>
        <path d="M170.367 112.404H104.307C102.379 112.404 100.817 113.967 100.817 115.894V126.624C100.817 128.552 102.379 130.114 104.307 130.114H170.367C172.294 130.114 173.857 128.552 173.857 126.624V115.894C173.857 113.967 172.294 112.404 170.367 112.404Z" fill="#47A99C"/>
        <path d="M144.547 112.404H78.4869C76.5595 112.404 74.9969 113.967 74.9969 115.894V126.624C74.9969 128.552 76.5595 130.114 78.4869 130.114H144.547C146.474 130.114 148.037 128.552 148.037 126.624V115.894C148.037 113.967 146.474 112.404 144.547 112.404Z" fill="#84D7CC"/>
        <path d="M169.057 114.804H152.047C151.495 114.804 151.047 115.252 151.047 115.804V117.604C151.047 118.157 151.495 118.604 152.047 118.604H169.057C169.609 118.604 170.057 118.157 170.057 117.604V115.804C170.057 115.252 169.609 114.804 169.057 114.804Z" fill="#99DDCF"/>
        <path d="M139.907 116.064H98.8169C97.5632 116.064 96.5469 117.081 96.5469 118.334V122.664C96.5469 123.918 97.5632 124.934 98.8169 124.934H139.907C141.161 124.934 142.177 123.918 142.177 122.664V118.334C142.177 117.081 141.161 116.064 139.907 116.064Z" fill="#E6EDEC"/>
        <path d="M169.057 121.134H152.047C151.495 121.134 151.047 121.582 151.047 122.134V123.934C151.047 124.487 151.495 124.934 152.047 124.934H169.057C169.609 124.934 170.057 124.487 170.057 123.934V122.134C170.057 121.582 169.609 121.134 169.057 121.134Z" fill="#99DDCF"/>
        <path d="M88.3969 123.304C89.5954 123.304 90.5669 122.333 90.5669 121.134C90.5669 119.936 89.5954 118.964 88.3969 118.964C87.1985 118.964 86.2269 119.936 86.2269 121.134C86.2269 122.333 87.1985 123.304 88.3969 123.304Z" fill="#E89FA1"/>
        <path d="M81.6768 123.304C82.8753 123.304 83.8468 122.333 83.8468 121.134C83.8468 119.936 82.8753 118.964 81.6768 118.964C80.4784 118.964 79.5068 119.936 79.5068 121.134C79.5068 122.333 80.4784 123.304 81.6768 123.304Z" fill="white"/>
        <path d="M88.3969 122.564C89.1867 122.564 89.8269 121.924 89.8269 121.134C89.8269 120.345 89.1867 119.704 88.3969 119.704C87.6072 119.704 86.9669 120.345 86.9669 121.134C86.9669 121.924 87.6072 122.564 88.3969 122.564Z" fill="#AE1E22"/>
        <path d="M168.377 128.084C168.377 127.254 167.707 126.584 166.877 126.584H154.457C153.627 126.584 152.957 127.254 152.957 128.084V130.114H168.367V128.084H168.377Z" fill="#99DDCF"/>
        <path d="M132.797 128.084C132.797 127.254 132.127 126.584 131.297 126.584H103.877C103.047 126.584 102.377 127.254 102.377 128.084V130.114H132.787V128.084H132.797Z" fill="#006752"/>
        <path d="M166.737 130.115H83.1169V132.904H166.737V130.115Z" fill="#006752"/>
        <path d="M170.367 132.564H104.307C102.379 132.564 100.817 134.127 100.817 136.054V146.784C100.817 148.712 102.379 150.274 104.307 150.274H170.367C172.294 150.274 173.857 148.712 173.857 146.784V136.054C173.857 134.127 172.294 132.564 170.367 132.564Z" fill="#47A99C"/>
        <path d="M144.547 132.564H78.4869C76.5595 132.564 74.9969 134.127 74.9969 136.054V146.784C74.9969 148.712 76.5595 150.274 78.4869 150.274H144.547C146.474 150.274 148.037 148.712 148.037 146.784V136.054C148.037 134.127 146.474 132.564 144.547 132.564Z" fill="#84D7CC"/>
        <path d="M169.057 134.964H152.047C151.495 134.964 151.047 135.412 151.047 135.964V137.764C151.047 138.317 151.495 138.764 152.047 138.764H169.057C169.609 138.764 170.057 138.317 170.057 137.764V135.964C170.057 135.412 169.609 134.964 169.057 134.964Z" fill="#99DDCF"/>
        <path d="M139.907 136.234H98.8169C97.5632 136.234 96.5469 137.251 96.5469 138.504V142.834C96.5469 144.088 97.5632 145.104 98.8169 145.104H139.907C141.161 145.104 142.177 144.088 142.177 142.834V138.504C142.177 137.251 141.161 136.234 139.907 136.234Z" fill="#E6EDEC"/>
        <path d="M169.057 141.304H152.047C151.495 141.304 151.047 141.752 151.047 142.304V144.104C151.047 144.657 151.495 145.104 152.047 145.104H169.057C169.609 145.104 170.057 144.657 170.057 144.104V142.304C170.057 141.752 169.609 141.304 169.057 141.304Z" fill="#99DDCF"/>
        <path d="M88.3969 143.474C89.5954 143.474 90.5669 142.503 90.5669 141.304C90.5669 140.106 89.5954 139.134 88.3969 139.134C87.1985 139.134 86.2269 140.106 86.2269 141.304C86.2269 142.503 87.1985 143.474 88.3969 143.474Z" fill="#E89FA1"/>
        <path d="M81.6768 143.474C82.8753 143.474 83.8468 142.503 83.8468 141.304C83.8468 140.106 82.8753 139.134 81.6768 139.134C80.4784 139.134 79.5068 140.106 79.5068 141.304C79.5068 142.503 80.4784 143.474 81.6768 143.474Z" fill="white"/>
        <path d="M88.3969 142.735C89.1867 142.735 89.8269 142.094 89.8269 141.305C89.8269 140.515 89.1867 139.875 88.3969 139.875C87.6072 139.875 86.9669 140.515 86.9669 141.305C86.9669 142.094 87.6072 142.735 88.3969 142.735Z" fill="#AE1E22"/>
        <path d="M168.377 148.254C168.377 147.424 167.707 146.754 166.877 146.754H154.457C153.627 146.754 152.957 147.424 152.957 148.254V150.284H168.367V148.254H168.377Z" fill="#99DDCF"/>
        <path d="M132.797 148.254C132.797 147.424 132.127 146.754 131.297 146.754H103.877C103.047 146.754 102.377 147.424 102.377 148.254V150.284H132.787V148.254H132.797Z" fill="#006752"/>
        <path d="M166.737 150.274H83.1169V153.064H166.737V150.274Z" fill="#006752"/>
        <path d="M170.367 152.734H104.307C102.379 152.734 100.817 154.297 100.817 156.224V166.954C100.817 168.882 102.379 170.444 104.307 170.444H170.367C172.294 170.444 173.857 168.882 173.857 166.954V156.224C173.857 154.297 172.294 152.734 170.367 152.734Z" fill="#47A99C"/>
        <path d="M144.547 152.734H78.4869C76.5595 152.734 74.9969 154.297 74.9969 156.224V166.954C74.9969 168.882 76.5595 170.444 78.4869 170.444H144.547C146.474 170.444 148.037 168.882 148.037 166.954V156.224C148.037 154.297 146.474 152.734 144.547 152.734Z" fill="#84D7CC"/>
        <path d="M169.057 155.134H152.047C151.495 155.134 151.047 155.582 151.047 156.134V157.934C151.047 158.487 151.495 158.934 152.047 158.934H169.057C169.609 158.934 170.057 158.487 170.057 157.934V156.134C170.057 155.582 169.609 155.134 169.057 155.134Z" fill="#99DDCF"/>
        <path d="M139.907 156.404H98.8169C97.5632 156.404 96.5469 157.421 96.5469 158.674V163.004C96.5469 164.258 97.5632 165.274 98.8169 165.274H139.907C141.161 165.274 142.177 164.258 142.177 163.004V158.674C142.177 157.421 141.161 156.404 139.907 156.404Z" fill="#E6EDEC"/>
        <path d="M169.057 161.474H152.047C151.495 161.474 151.047 161.922 151.047 162.474V164.274C151.047 164.827 151.495 165.274 152.047 165.274H169.057C169.609 165.274 170.057 164.827 170.057 164.274V162.474C170.057 161.922 169.609 161.474 169.057 161.474Z" fill="#99DDCF"/>
        <path d="M88.3969 163.634C89.5954 163.634 90.5669 162.663 90.5669 161.464C90.5669 160.266 89.5954 159.294 88.3969 159.294C87.1985 159.294 86.2269 160.266 86.2269 161.464C86.2269 162.663 87.1985 163.634 88.3969 163.634Z" fill="#E89FA1"/>
        <path d="M81.6768 163.634C82.8753 163.634 83.8468 162.663 83.8468 161.464C83.8468 160.266 82.8753 159.294 81.6768 159.294C80.4784 159.294 79.5068 160.266 79.5068 161.464C79.5068 162.663 80.4784 163.634 81.6768 163.634Z" fill="white"/>
        <path d="M88.3969 162.894C89.1867 162.894 89.8269 162.254 89.8269 161.464C89.8269 160.675 89.1867 160.034 88.3969 160.034C87.6072 160.034 86.9669 160.675 86.9669 161.464C86.9669 162.254 87.6072 162.894 88.3969 162.894Z" fill="#AE1E22"/>
        <path d="M210.327 191.524L202.947 101.014L220.657 99.2944C222.297 107.494 225.577 128.024 225.577 144.544C225.577 165.204 219.677 189.064 218.447 192.504C215.107 193.684 211.647 192.344 210.327 191.524Z" fill="#939597"/>
        <path d="M241.567 133.974C239.007 109.774 237.487 101.104 236.497 100.284H234.437L202.997 101.264C205.787 108.804 215.497 118.004 220.497 122.004C223.647 127.514 233.157 172.964 237.997 190.504C239.637 190.834 246.527 192.074 248.497 190.504C249.977 179.194 245.687 153.014 244.517 148.734C243.497 145.004 242.577 143.504 241.567 133.974Z" fill="#939597"/>
        <path d="M204.677 48.6343C206.057 46.0743 211.647 44.4543 214.267 43.9643C215.247 43.2243 218.837 41.9943 225.337 42.9843C233.457 44.2143 235.417 45.6943 236.647 46.9243C237.877 48.1543 236.897 80.6143 236.647 85.5343C236.397 90.4543 238.367 98.0743 236.897 100.784C234.927 103.494 225.587 104.224 220.907 104.224C216.227 104.224 206.647 102.254 202.957 101.024C200.007 100.044 200.577 89.7943 201.237 84.7943H186.977C192.307 73.8043 203.307 51.1943 204.687 48.6443L204.677 48.6343Z" fill="#00AB4E"/>
        <path d="M236.647 101.024C231.337 97.0843 231.477 74.1343 232.217 63.1443L236.647 61.9143L236.998 85.4999C237.738 91.8099 237.998 101.024 236.647 101.024Z" fill="#00883E"/>
        <path d="M200.737 92.1645C200.817 80.5245 202.117 56.3045 206.637 52.5645" stroke="#00883E" stroke-width="0.49" stroke-linecap="round"/>
        <path d="M228.967 71.5044H162.907C160.98 71.5044 159.417 73.0669 159.417 74.9944V85.7244C159.417 87.6519 160.98 89.2144 162.907 89.2144H228.967C230.894 89.2144 232.457 87.6519 232.457 85.7244V74.9944C232.457 73.0669 230.894 71.5044 228.967 71.5044Z" fill="#47A99C"/>
        <path d="M203.147 71.5044H137.087C135.159 71.5044 133.597 73.0669 133.597 74.9944V85.7244C133.597 87.6519 135.159 89.2144 137.087 89.2144H203.147C205.074 89.2144 206.637 87.6519 206.637 85.7244V74.9944C206.637 73.0669 205.074 71.5044 203.147 71.5044Z" fill="#84D7CC"/>
        <path d="M227.657 73.9043H210.647C210.095 73.9043 209.647 74.352 209.647 74.9043V76.7043C209.647 77.2566 210.095 77.7043 210.647 77.7043H227.657C228.209 77.7043 228.657 77.2566 228.657 76.7043V74.9043C228.657 74.352 228.209 73.9043 227.657 73.9043Z" fill="#99DDCF"/>
        <path d="M198.507 75.1743H157.417C156.163 75.1743 155.147 76.1906 155.147 77.4443V81.7743C155.147 83.028 156.163 84.0443 157.417 84.0443H198.507C199.761 84.0443 200.777 83.028 200.777 81.7743V77.4443C200.777 76.1906 199.761 75.1743 198.507 75.1743Z" fill="#E6EDEC"/>
        <path d="M227.657 80.2444H210.647C210.095 80.2444 209.647 80.6921 209.647 81.2444V83.0444C209.647 83.5967 210.095 84.0444 210.647 84.0444H227.657C228.209 84.0444 228.657 83.5967 228.657 83.0444V81.2444C228.657 80.6921 228.209 80.2444 227.657 80.2444Z" fill="#99DDCF"/>
        <path d="M146.997 82.4044C148.195 82.4044 149.167 81.4329 149.167 80.2345C149.167 79.036 148.195 78.0645 146.997 78.0645C145.798 78.0645 144.827 79.036 144.827 80.2345C144.827 81.4329 145.798 82.4044 146.997 82.4044Z" fill="#E89FA1"/>
        <path d="M140.277 82.4044C141.475 82.4044 142.447 81.4329 142.447 80.2345C142.447 79.036 141.475 78.0645 140.277 78.0645C139.078 78.0645 138.107 79.036 138.107 80.2345C138.107 81.4329 139.078 82.4044 140.277 82.4044Z" fill="#99DCAB"/>
        <path d="M146.997 81.6644C147.787 81.6644 148.427 81.0242 148.427 80.2344C148.427 79.4447 147.787 78.8044 146.997 78.8044C146.207 78.8044 145.567 79.4447 145.567 80.2344C145.567 81.0242 146.207 81.6644 146.997 81.6644Z" fill="#AE1E22"/>
        <path d="M140.277 81.6644C141.067 81.6644 141.707 81.0242 141.707 80.2344C141.707 79.4447 141.067 78.8044 140.277 78.8044C139.487 78.8044 138.847 79.4447 138.847 80.2344C138.847 81.0242 139.487 81.6644 140.277 81.6644Z" fill="#40BD63"/>
        <path d="M226.967 87.1843C226.967 86.3543 226.297 85.6843 225.467 85.6843H213.047C212.217 85.6843 211.547 86.3543 211.547 87.1843V89.2143H226.957V87.1843H226.967Z" fill="#99DDCF"/>
        <path d="M191.387 87.1843C191.387 86.3543 190.717 85.6843 189.887 85.6843H162.467C161.637 85.6843 160.967 86.3543 160.967 87.1843V89.2143H191.377V87.1843H191.387Z" fill="#006752"/>
        <path d="M225.327 89.2144H141.707V92.0043H225.327V89.2144Z" fill="#006752"/>
        <path fill-rule="evenodd" clip-rule="evenodd" d="M147.657 66.2043L146.787 67.8043L145.187 68.6743C144.927 68.8143 144.927 69.1943 145.187 69.3443L146.787 70.2143L147.657 71.8143C147.797 72.0743 148.177 72.0743 148.327 71.8143L149.197 70.2143L150.797 69.3443C151.057 69.2043 151.057 68.8243 150.797 68.6743L149.197 67.8043L148.327 66.2043C148.187 65.9443 147.807 65.9443 147.657 66.2043Z" fill="#FFC54F"/>
        <path fill-rule="evenodd" clip-rule="evenodd" d="M142.217 70.2043L141.487 71.8043L140.157 72.6743C139.937 72.8143 139.937 73.1943 140.157 73.3443L141.487 74.2143L142.217 75.8143C142.337 76.0743 142.657 76.0743 142.767 75.8143L143.497 74.2143L144.827 73.3443C145.047 73.2043 145.047 72.8243 144.827 72.6743L143.497 71.8043L142.767 70.2043C142.647 69.9443 142.337 69.9443 142.217 70.2043Z" fill="#FFE7B8"/>
        <path fill-rule="evenodd" clip-rule="evenodd" d="M137.887 59.3644L136.287 62.2944L133.357 63.8944C132.877 64.1544 132.877 64.8544 133.357 65.1144L136.287 66.7144L137.887 69.6444C138.147 70.1244 138.847 70.1244 139.107 69.6444L140.707 66.7144L143.637 65.1144C144.117 64.8544 144.117 64.1544 143.637 63.8944L140.707 62.2944L139.107 59.3644C138.847 58.8844 138.147 58.8844 137.887 59.3644Z" fill="#FFD37B"/>
        <path d="M186.787 93.2643C186.107 93.3343 185.497 92.8343 185.437 92.1543L185.167 89.3443C185.097 88.6643 185.597 88.0543 186.277 87.9943C186.957 87.9243 187.567 88.4243 187.627 89.1043L187.897 91.9143C187.967 92.5943 187.467 93.2043 186.787 93.2643Z" fill="#FFD9B7"/>
        <path d="M184.647 93.4045C183.967 93.4745 183.357 92.9745 183.297 92.2945L183.027 89.4845C182.957 88.8045 183.457 88.1945 184.137 88.1345C184.817 88.0645 185.427 88.5645 185.487 89.2445L185.757 92.0545C185.827 92.7345 185.327 93.3445 184.647 93.4045Z" fill="#FFD9B7"/>
        <path d="M182.737 93.2443C182.057 93.3143 181.447 92.8143 181.387 92.1343L181.117 89.3243C181.047 88.6443 181.547 88.0343 182.227 87.9743C182.907 87.9043 183.517 88.4043 183.577 89.0843L183.847 91.8943C183.917 92.5743 183.417 93.1843 182.737 93.2443Z" fill="#FFD9B7"/>
        <path d="M180.647 92.9544C180.097 93.0044 179.617 92.6044 179.557 92.0644L179.237 88.7644C179.187 88.2144 179.587 87.7344 180.127 87.6744C180.677 87.6244 181.157 88.0244 181.217 88.5644L181.537 91.8644C181.587 92.4144 181.187 92.8944 180.647 92.9544Z" fill="#FFD9B7"/>
        <path d="M181.257 89.3044L181.507 92.3444L183.507 89.3744L183.617 92.7844L185.487 89.2844L185.757 92.7344" stroke="#E79E5C" stroke-width="0.49" stroke-linecap="round"/>
        <path d="M220.637 17.7644C220.637 17.7644 235.777 19.6144 227.087 34.6744L225.877 36.8744L220.637 17.7644Z" fill="#252528"/>
        <path d="M212.187 39.6445C212.187 39.6445 214.707 42.1445 213.927 45.0245C213.927 45.0245 216.397 52.1145 225.427 43.2645C225.427 43.2645 224.437 39.3545 224.737 37.0845L212.197 39.6445H212.187Z" fill="#FFB38F"/>
        <path d="M224.007 20.8643C217.877 14.6443 208.117 16.9943 207.587 25.7143C207.377 29.1843 207.917 36.3843 209.717 39.5243C209.717 39.5243 213.047 46.6243 220.927 41.4543C220.927 41.4543 225.247 38.0543 226.507 35.8043C227.607 32.4243 227.787 29.6643 227.187 26.7343C226.597 23.8043 225.987 22.8843 223.997 20.8643H224.007Z" fill="#FFD9B7"/>
        <path d="M224.017 18.8644C224.017 18.8644 216.547 10.5044 206.457 22.4244C206.457 22.4244 205.157 24.0744 203.997 24.8844C203.627 25.1444 203.687 25.6944 204.097 25.8644C206.307 26.7944 211.967 28.0944 220.457 22.5244C220.457 22.5244 224.167 20.0944 224.027 18.8644H224.017Z" fill="#252528"/>
        <path d="M219.377 21.9145C219.377 21.9145 221.057 28.7345 221.957 31.4845C222.067 31.8145 222.537 31.7845 222.607 31.4445L223.177 28.7045L226.507 35.8045L229.027 27.5145L224.317 19.3245L219.377 21.9045V21.9145Z" fill="#252528"/>
        <path d="M223.207 28.6943C223.197 28.4743 223.327 28.2843 223.537 28.2143C224.307 27.9643 226.107 27.6643 226.627 30.0943C227.117 32.3943 225.177 33.5443 224.127 33.9943C223.817 34.1243 223.477 33.9143 223.467 33.5843L223.207 28.6943Z" fill="#FFD9B7"/>
        <path d="M249.187 80.8543C248.007 61.7643 240.417 50.7643 236.647 46.9143C232.217 45.1943 232.217 57.7343 232.217 62.1643C232.217 66.5943 237.877 74.9543 238.857 76.4243C239.837 77.9043 247.707 83.8043 249.187 80.8543Z" fill="#00AB4E"/>
        <path d="M212.537 90.9343C213.127 90.5443 216.557 90.4443 218.197 90.4443C219.017 91.0143 222.477 91.6743 221.887 91.6743C221.557 92.0043 219.277 93.1943 218.687 93.3943C217.947 93.6443 214.017 93.8843 210.567 93.6443C207.817 93.4443 207.127 92.3343 207.127 91.9243H212.537C212.287 91.6743 211.947 91.3343 212.537 90.9443V90.9343Z" fill="#F2CBA8"/>
        <path d="M212.297 91.6743H215.247" stroke="#E79E5C" stroke-width="0.49" stroke-linecap="round"/>
        <path d="M243.347 77.1544C238.737 76.7044 226.467 85.3045 218.017 89.2645C217.157 90.3545 219.757 92.1145 221.157 92.8645C224.177 93.2545 231.807 90.4445 243.097 85.6045C253.617 81.0945 248.257 78.1544 243.347 77.1544Z" fill="#00AB4E"/>
        <path fill-rule="evenodd" clip-rule="evenodd" d="M-3.46313 75.7943H50.9169V7.70435H-3.46313V75.7943Z" fill="#99DDCF"/>
        <path d="M-1.79311 21.2543C-2.17311 21.1343 -2.58311 21.0643 -3.01311 21.0643C-4.87311 21.0643 -6.44311 22.3043 -6.93311 24.0043H-1.76311H7.57689C7.70689 23.5543 7.78689 23.0743 7.78689 22.5743C7.78689 19.8843 5.60689 17.6943 2.90689 17.6943C0.676895 17.6943 -1.20311 19.1943 -1.79311 21.2343V21.2543Z" fill="white"/>
        <path fill-rule="evenodd" clip-rule="evenodd" d="M-4.33313 78.6945H51.8069V74.0845H-4.33313V78.6945Z" fill="white"/>
        <path fill-rule="evenodd" clip-rule="evenodd" d="M-4.33313 41.5945H51.8069V40.8245H-4.33313V41.5945Z" fill="#EDFFF5"/>
        <path fill-rule="evenodd" clip-rule="evenodd" d="M43.7169 30.2143C43.0569 28.5543 41.4369 27.3843 39.5369 27.3843C37.6369 27.3843 35.9669 28.5943 35.3269 30.2943C34.8469 30.0343 34.2969 29.8843 33.7069 29.8843C31.8269 29.8843 30.2969 31.4043 30.2969 33.2843C30.2969 33.4443 30.3069 33.5943 30.3269 33.7443H46.5069C46.5269 33.5943 46.5469 33.4343 46.5469 33.2843C46.5469 31.6643 45.2969 30.3343 43.7169 30.2143Z" fill="white"/>
        <path fill-rule="evenodd" clip-rule="evenodd" d="M-4.66309 9.40439H57.7069V6.74438H-4.66309V9.40439Z" fill="#40C0A6"/>
        <path fill-rule="evenodd" clip-rule="evenodd" d="M58.7969 10.8545H58.2269C57.5669 10.8545 57.0369 10.3245 57.0369 9.6545V6.3145C57.0369 5.6545 57.5669 5.1145 58.2269 5.1145H58.7969C59.4569 5.1145 59.9869 5.6545 59.9869 6.3145V9.6545C59.9869 10.3145 59.4569 10.8545 58.7969 10.8545Z" fill="#40C0A6"/>
        <path fill-rule="evenodd" clip-rule="evenodd" d="M55.3769 26.9745C55.3769 27.7445 54.7469 28.3745 53.9769 28.3745C53.2069 28.3745 52.5769 27.7445 52.5769 26.9745C52.5769 26.2045 53.2069 25.5745 53.9769 25.5745C54.7469 25.5745 55.3769 26.2045 55.3769 26.9745Z" fill="#40C0A6"/>
        <path d="M53.8569 8.03442L54.0369 25.8644" stroke="#40C0A6" stroke-width="0.75"/>
        <path d="M-3.45312 75.2744H50.8869" stroke="#84D7CC" stroke-width="0.75"/>
        <path d="M-2.54309 78.9143H51.7969" stroke="#BBF0D3" stroke-width="1.57"/>
        <path opacity="0.4" d="M225.497 137.504V145.004L219.497 121.004L219.997 122.004L225.497 137.504Z" fill="#252528"/>
        <path d="M219.997 121.504L225.497 137.504" stroke="#58585B" stroke-width="0.5" stroke-linecap="round"/>
        <path d="M215.707 117.334C216.517 118.584 218.877 121.304 221.787 122.184" stroke="#58585B" stroke-width="0.5" stroke-linecap="round"/>
        <path d="M215.797 43.5045C212.757 43.5045 210.697 41.3045 210.677 41.2845C209.097 39.2845 208.057 36.2245 207.557 32.1745C207.187 29.1745 207.277 26.7245 207.277 26.6945C207.277 26.5145 207.437 26.3745 207.627 26.3745C207.807 26.3745 207.957 26.5345 207.947 26.7245C207.947 26.8245 207.637 36.3445 211.187 40.8545C211.287 40.9545 213.987 43.8245 217.767 42.4945C221.777 41.0845 226.557 36.2245 226.257 34.4445C226.227 34.2645 226.347 34.0945 226.527 34.0645C226.707 34.0345 226.877 34.1545 226.907 34.3345C227.277 36.5845 222.107 41.6745 217.977 43.1245C217.207 43.3945 216.477 43.5045 215.787 43.5045H215.797Z" fill="#252528"/>
        <path d="M214.817 29.9444C214.737 29.9444 214.657 29.9143 214.597 29.8643C214.457 29.7443 214.447 29.5343 214.567 29.3943C215.247 28.6143 215.997 28.2143 216.807 28.2043C216.817 28.2043 216.837 28.2043 216.847 28.2043C218.127 28.2043 219.047 29.1743 219.087 29.2243C219.217 29.3543 219.207 29.5744 219.067 29.6944C218.937 29.8244 218.727 29.8143 218.597 29.6743C218.597 29.6743 217.827 28.8643 216.837 28.8643C216.827 28.8643 216.817 28.8643 216.797 28.8643C216.187 28.8743 215.597 29.2043 215.047 29.8243C214.977 29.9043 214.887 29.9343 214.797 29.9343L214.817 29.9444Z" fill="#252528"/>
        <path d="M207.947 30.7443C207.867 30.7443 207.777 30.7143 207.717 30.6443C207.587 30.5143 207.587 30.3043 207.717 30.1743C208.807 29.0643 210.217 29.5143 210.817 29.9043C210.967 30.0043 211.017 30.2143 210.917 30.3643C210.817 30.5143 210.607 30.5643 210.457 30.4643C210.397 30.4243 209.177 29.6543 208.197 30.6443C208.127 30.7143 208.047 30.7443 207.957 30.7443H207.947Z" fill="#252528"/>
        <path d="M216.937 32.4755C216.976 31.7973 216.624 31.2252 216.15 31.1976C215.676 31.17 215.259 31.6974 215.22 32.3756C215.18 33.0538 215.533 33.6259 216.007 33.6535C216.481 33.6811 216.898 33.1537 216.937 32.4755Z" fill="#252528"/>
        <path d="M210.233 34.3846C210.691 34.3682 211.044 33.8181 211.02 33.1558C210.996 32.4934 210.606 31.9698 210.148 31.9861C209.69 32.0024 209.337 32.5525 209.361 33.2149C209.385 33.8772 209.775 34.4009 210.233 34.3846Z" fill="#252528"/>
        <path d="M213.567 37.3644C213.127 37.3644 212.407 37.2744 212.077 36.7744C211.457 35.8144 211.977 33.5944 212.037 33.3444C212.077 33.1644 212.257 33.0544 212.437 33.0944C212.617 33.1344 212.727 33.3144 212.687 33.4944C212.487 34.3344 212.297 35.8644 212.647 36.4044C212.837 36.6944 213.547 36.7144 213.857 36.6844C214.037 36.6644 214.207 36.7944 214.227 36.9744C214.247 37.1544 214.117 37.3244 213.937 37.3444C213.897 37.3444 213.757 37.3644 213.577 37.3644H213.567Z" fill="#252528"/>
        <path d="M214.367 40.2543C213.877 40.2543 213.357 40.1343 212.817 39.8243C212.657 39.7343 212.597 39.5343 212.697 39.3743C212.787 39.2143 212.997 39.1643 213.147 39.2543C215.047 40.3443 216.467 38.5643 216.527 38.4843C216.637 38.3343 216.847 38.3143 216.997 38.4243C217.147 38.5343 217.167 38.7443 217.057 38.8943C216.607 39.4743 215.617 40.2643 214.377 40.2643L214.367 40.2543Z" fill="#252528"/>
        <path d="M217.467 48.1345C214.867 48.1345 213.627 45.1845 213.607 45.1545L213.527 44.9545L213.677 44.7945C213.807 44.6545 213.917 43.8445 213.917 43.0545C213.917 42.8745 214.067 42.7245 214.247 42.7145C214.427 42.7245 214.577 42.8645 214.587 43.0445C214.587 43.4045 214.577 44.4945 214.307 45.0445C214.617 45.6845 215.937 48.0545 218.387 47.3245C221.037 46.5345 224.297 43.7945 225.037 43.1545C224.777 42.2745 223.947 39.2245 224.257 37.9745C224.297 37.7945 224.487 37.6845 224.657 37.7345C224.837 37.7745 224.947 37.9645 224.897 38.1345C224.637 39.1545 225.407 42.1145 225.727 43.1645L225.787 43.3645L225.627 43.5045C225.467 43.6445 221.697 47.0245 218.557 47.9645C218.167 48.0845 217.797 48.1345 217.457 48.1345H217.467Z" fill="#252528"/>
        <path fill-rule="evenodd" clip-rule="evenodd" d="M214.247 43.0543C214.247 43.0543 214.247 45.7243 217.247 45.3843C219.337 45.1543 223.947 40.3043 224.577 38.3843C224.577 38.3843 219.107 44.1343 214.247 43.0543Z" fill="#252528"/>
        <path d="M221.867 93.3943L221.777 93.3543C221.617 93.2843 217.787 91.6743 217.677 89.2743V89.0743L217.837 88.9743C218.607 88.5043 236.877 77.3743 243.857 76.3743C244.037 76.3543 244.207 76.4743 244.237 76.6543C244.267 76.8343 244.137 77.0043 243.957 77.0343C237.467 77.9643 220.307 88.2543 218.367 89.4343C218.637 91.1543 221.437 92.4643 221.957 92.6943C228.227 91.7243 237.297 87.7643 242.727 85.3843L243.617 84.9943C248.767 82.7443 248.857 80.8643 248.857 80.8443V80.4643C248.797 77.9643 248.707 73.7743 246.237 65.5243C242.887 54.3243 236.527 47.4543 235.287 46.1843C234.207 45.0843 227.877 43.7743 225.527 43.3643C225.347 43.3343 225.227 43.1643 225.257 42.9743C225.287 42.7943 225.457 42.6743 225.647 42.7043C226.537 42.8643 234.347 44.2643 235.767 45.7143C237.027 46.9943 243.487 53.9843 246.887 65.3243C249.387 73.6643 249.467 77.9043 249.527 80.4443V80.8243C249.547 81.0543 249.447 83.1843 243.897 85.6043L243.007 85.9943C237.517 88.3943 228.337 92.4043 221.977 93.3643H221.887L221.867 93.3943Z" fill="#252528"/>
        <path d="M240.247 78.0544C240.157 78.0544 240.067 78.0244 240.007 77.9544C239.937 77.8844 233.257 70.7944 231.887 63.2144C231.857 63.0344 231.977 62.8644 232.157 62.8244C232.337 62.7944 232.507 62.9144 232.547 63.0944C233.877 70.4744 240.427 77.4244 240.487 77.4944C240.617 77.6244 240.607 77.8344 240.477 77.9644C240.417 78.0244 240.327 78.0544 240.247 78.0544Z" fill="#252528"/>
        <path d="M236.917 79.3843C236.737 79.3843 236.587 79.2343 236.587 79.0543V73.7243C236.587 73.5443 236.737 73.3943 236.917 73.3943C237.097 73.3943 237.247 73.5443 237.247 73.7243V79.0543C237.247 79.2343 237.097 79.3843 236.917 79.3843Z" fill="#252528"/>
        <path d="M223.277 104.684C221.387 104.684 219.277 104.554 216.927 104.254C215.537 104.064 203.357 102.294 201.637 100.284C199.867 98.2043 200.217 93.3044 200.407 92.1044C200.437 91.9244 200.607 91.7944 200.787 91.8244C200.967 91.8544 201.097 92.0243 201.067 92.2043C200.897 93.2743 200.557 97.9843 202.147 99.8443C203.457 101.384 213.327 103.064 217.017 103.584C231.367 105.414 236.607 100.564 236.657 100.514L236.687 100.494C237.777 99.6544 237.197 92.6343 236.587 88.4143C236.557 88.2343 236.687 88.0643 236.867 88.0343C237.047 88.0043 237.217 88.1343 237.247 88.3143C237.517 90.1943 238.807 99.6343 237.117 101.004C236.817 101.284 233.037 104.664 223.287 104.664L223.277 104.684Z" fill="#252528"/>
        <path d="M201.917 71.3845C201.737 71.3845 201.587 71.2245 201.597 71.0445C201.597 71.0145 201.687 67.9745 202.317 64.1645C202.897 60.6345 204.077 55.6945 206.377 52.1945C206.477 52.0445 206.687 51.9945 206.837 52.0945C206.987 52.1945 207.037 52.4045 206.937 52.5545C202.647 59.0645 202.267 70.9345 202.267 71.0545C202.267 71.2345 202.117 71.3745 201.937 71.3745L201.917 71.3845Z" fill="#252528"/>
        <path d="M193.577 71.7145C193.577 71.7145 193.477 71.7045 193.427 71.6845C193.257 71.6045 193.197 71.4045 193.277 71.2345L204.067 49.0745C204.097 49.0045 204.927 47.1045 207.387 45.9045C209.767 44.7445 213.667 43.7445 213.837 43.7045C214.017 43.6545 214.197 43.7645 214.247 43.9445C214.297 44.1245 214.187 44.3045 214.007 44.3545C213.967 44.3645 210.007 45.3845 207.687 46.5045C205.457 47.5845 204.687 49.3345 204.677 49.3545L193.887 71.5345C193.827 71.6545 193.707 71.7245 193.587 71.7245L193.577 71.7145Z" fill="#252528"/>
        <path d="M213.447 93.9944C210.877 93.9944 208.617 93.7944 207.827 93.1644C207.657 93.0444 206.947 92.5444 206.807 91.9944L206.707 91.5844H211.967C211.967 91.4444 211.997 91.2944 212.067 91.1444C212.307 90.6644 212.927 90.3744 213.957 90.2744C216.207 90.0544 218.227 90.0544 218.247 90.0544C218.427 90.0544 218.577 90.2044 218.577 90.3844C218.577 90.5644 218.427 90.7144 218.247 90.7144C218.227 90.7144 216.237 90.7144 214.027 90.9344C212.987 91.0344 212.727 91.3244 212.667 91.4344C212.587 91.5844 212.667 91.7444 212.667 91.7444L212.937 92.2344H212.377H207.747C207.897 92.3744 208.067 92.5144 208.197 92.6044C209.037 93.2944 212.747 93.4844 218.127 93.1444H218.217C219.637 93.0444 220.017 92.4444 220.027 92.4344C220.117 92.2744 220.317 92.2244 220.477 92.3144C220.637 92.4044 220.697 92.5944 220.607 92.7544C220.557 92.8544 220.057 93.6944 218.257 93.8044H218.167C216.647 93.9044 214.977 93.9844 213.427 93.9844L213.447 93.9944Z" fill="#252528"/>
        <path d="M184.537 93.7443C184.147 93.7443 183.767 93.5943 183.477 93.3243C183.267 93.4643 183.027 93.5543 182.777 93.5743C182.237 93.6243 181.717 93.3943 181.397 92.9943C181.197 93.1543 180.957 93.2543 180.687 93.2843C180.337 93.3143 179.987 93.2143 179.717 92.9843C179.447 92.7543 179.277 92.4443 179.237 92.0843L178.917 88.7843C178.847 88.0543 179.377 87.4043 180.107 87.3343C180.457 87.3043 180.807 87.4043 181.077 87.6343C181.197 87.7243 181.287 87.8443 181.367 87.9643C181.597 87.7743 181.887 87.6643 182.197 87.6343C182.647 87.5943 183.077 87.7443 183.407 88.0443C183.617 87.9043 183.857 87.8143 184.107 87.7943C184.527 87.7543 184.937 87.8843 185.257 88.1443C185.517 87.8643 185.867 87.6943 186.247 87.6543C186.667 87.6143 187.077 87.7343 187.397 88.0043C187.717 88.2743 187.917 88.6443 187.967 89.0643L188.237 91.8743C188.277 92.2943 188.157 92.7043 187.887 93.0243C187.617 93.3443 187.247 93.5443 186.827 93.5943C186.407 93.6343 185.997 93.5043 185.677 93.2443C185.417 93.5243 185.067 93.6943 184.687 93.7343C184.637 93.7343 184.587 93.7343 184.537 93.7343V93.7443ZM183.517 92.5343C183.517 92.5343 183.537 92.5343 183.547 92.5343C183.647 92.5343 183.737 92.5943 183.797 92.6743C183.987 92.9543 184.307 93.0943 184.627 93.0743C184.937 93.0443 185.207 92.8543 185.347 92.5643C185.397 92.4543 185.507 92.3843 185.627 92.3743C185.747 92.3743 185.857 92.4243 185.927 92.5243C186.117 92.8043 186.437 92.9643 186.767 92.9343C187.007 92.9143 187.227 92.7943 187.377 92.6043C187.527 92.4143 187.607 92.1843 187.577 91.9443L187.307 89.1343C187.257 88.6343 186.817 88.2743 186.317 88.3243C186.007 88.3543 185.737 88.5443 185.597 88.8343C185.547 88.9443 185.437 89.0143 185.317 89.0243C185.197 89.0243 185.087 88.9743 185.017 88.8743C184.827 88.5943 184.507 88.4343 184.177 88.4643C183.907 88.4943 183.717 88.6343 183.617 88.7443C183.547 88.8143 183.447 88.8543 183.347 88.8443C183.247 88.8443 183.157 88.7843 183.097 88.7043C182.907 88.4243 182.587 88.2743 182.267 88.3043C181.957 88.3343 181.687 88.5243 181.547 88.8143C181.477 88.9443 181.337 89.0243 181.187 88.9943C181.037 88.9643 180.927 88.8443 180.917 88.6943V88.6043C180.887 88.4243 180.807 88.2743 180.667 88.1543C180.527 88.0443 180.357 87.9943 180.187 88.0043C180.007 88.0243 179.857 88.1043 179.737 88.2443C179.617 88.3843 179.577 88.5543 179.587 88.7243L179.907 92.0243C179.927 92.2043 180.007 92.3543 180.147 92.4743C180.287 92.5843 180.457 92.6343 180.627 92.6243C180.857 92.6043 181.047 92.4643 181.157 92.2543C181.217 92.1343 181.347 92.0643 181.477 92.0743C181.607 92.0743 181.727 92.1743 181.767 92.3043C181.897 92.7043 182.287 92.9543 182.707 92.9243C182.977 92.8943 183.167 92.7543 183.267 92.6443C183.327 92.5743 183.417 92.5443 183.507 92.5443L183.517 92.5343Z" fill="#252528"/>
        <path d="M186.287 88.3243C186.107 88.3243 185.957 88.1743 185.957 87.9943C185.957 87.8143 186.107 87.6643 186.287 87.6643C186.467 87.6643 186.617 87.8143 186.617 87.9943C186.617 88.1743 186.467 88.3243 186.287 88.3243Z" fill="#252528"/>
        <path d="M184.657 93.7342C184.477 93.7342 184.327 93.5842 184.327 93.4042C184.327 93.2242 184.477 93.0742 184.657 93.0742C184.837 93.0742 184.987 93.2242 184.987 93.4042C184.987 93.5842 184.837 93.7342 184.657 93.7342Z" fill="#252528"/>
        <path d="M184.147 88.4542C183.967 88.4542 183.817 88.3042 183.817 88.1242C183.817 87.9442 183.967 87.7942 184.147 87.7942C184.327 87.7942 184.477 87.9442 184.477 88.1242C184.477 88.3042 184.327 88.4542 184.147 88.4542Z" fill="#252528"/>
        <path d="M182.747 93.5743C182.567 93.5743 182.417 93.4243 182.417 93.2443C182.417 93.0643 182.567 92.9143 182.747 92.9143C182.927 92.9143 183.077 93.0643 183.077 93.2443C183.077 93.4243 182.927 93.5743 182.747 93.5743Z" fill="#252528"/>
        <path d="M182.237 88.3043C182.057 88.3043 181.907 88.1543 181.907 87.9743C181.907 87.7943 182.057 87.6443 182.237 87.6443C182.417 87.6443 182.567 87.7943 182.567 87.9743C182.567 88.1543 182.417 88.3043 182.237 88.3043Z" fill="#252528"/>
        <path d="M232.577 81.3145C232.397 81.3145 232.247 81.1645 232.247 80.9845V75.2944C232.247 73.3244 230.647 71.7345 228.687 71.7345H148.587C148.407 71.7345 148.257 71.5844 148.257 71.4044C148.257 71.2244 148.407 71.0745 148.587 71.0745H228.687C231.017 71.0745 232.917 72.9745 232.917 75.3045V80.9945C232.917 81.1745 232.767 81.3245 232.587 81.3245L232.577 81.3145Z" fill="#252528"/>
        <path d="M147.247 71.7144H143.577C143.397 71.7144 143.247 71.5644 143.247 71.3844C143.247 71.2044 143.397 71.0544 143.577 71.0544H147.247C147.427 71.0544 147.577 71.2044 147.577 71.3844C147.577 71.5644 147.427 71.7144 147.247 71.7144Z" fill="#252528"/>
        <path d="M179.307 89.7144H137.477C135.147 89.7144 133.247 87.8144 133.247 85.4844V75.2844C133.247 72.9544 135.147 71.0544 137.477 71.0544H141.577C141.757 71.0544 141.907 71.2044 141.907 71.3844C141.907 71.5644 141.757 71.7144 141.577 71.7144H137.477C135.507 71.7144 133.917 73.3144 133.917 75.2744V85.4744C133.917 87.4444 135.517 89.0344 137.477 89.0344H179.307C179.487 89.0344 179.637 89.1844 179.637 89.3644C179.637 89.5444 179.487 89.6944 179.307 89.6944V89.7144Z" fill="#252528"/>
        <path d="M217.967 89.7144H187.967C187.787 89.7144 187.637 89.5644 187.637 89.3844C187.637 89.2044 187.787 89.0544 187.967 89.0544H217.967C218.147 89.0544 218.297 89.2044 218.297 89.3844C218.297 89.5644 218.147 89.7144 217.967 89.7144Z" fill="#252528"/>
        <path d="M179.247 92.3844H141.577C141.397 92.3844 141.247 92.2344 141.247 92.0544V89.3844C141.247 89.2044 141.397 89.0544 141.577 89.0544H175.247C175.427 89.0544 175.577 89.2044 175.577 89.3844C175.577 89.5644 175.427 89.7144 175.247 89.7144H141.917V91.7144H179.247C179.427 91.7144 179.577 91.8644 179.577 92.0444C179.577 92.2244 179.427 92.3744 179.247 92.3744V92.3844Z" fill="#252528"/>
        <path d="M207.247 92.3844H187.917C187.737 92.3844 187.587 92.2344 187.587 92.0544C187.587 91.8744 187.737 91.7244 187.917 91.7244H207.247C207.427 91.7244 207.577 91.8744 207.577 92.0544C207.577 92.2344 207.427 92.3844 207.247 92.3844Z" fill="#252528"/>
        <path d="M202.807 89.7144H194.907C194.727 89.7144 194.577 89.5644 194.577 89.3844C194.577 89.2044 194.727 89.0544 194.907 89.0544H202.807C204.707 89.0544 206.247 87.5144 206.247 85.6144V75.1544C206.247 73.2544 204.707 71.7144 202.807 71.7144H194.907C194.727 71.7144 194.577 71.5644 194.577 71.3844C194.577 71.2044 194.727 71.0544 194.907 71.0544H202.807C205.067 71.0544 206.907 72.8944 206.907 75.1544V85.6144C206.907 87.8744 205.067 89.7144 202.807 89.7144Z" fill="#252528"/>
        <path d="M198.377 84.3844H157.447C156.047 84.3844 154.907 83.2444 154.907 81.8444V77.5844C154.907 76.1844 156.047 75.0444 157.447 75.0444H198.377C199.777 75.0444 200.917 76.1844 200.917 77.5844V81.8444C200.917 83.2444 199.777 84.3844 198.377 84.3844ZM157.447 75.7144C156.417 75.7144 155.577 76.5544 155.577 77.5844V81.8444C155.577 82.8744 156.417 83.7144 157.447 83.7144H198.377C199.407 83.7144 200.247 82.8744 200.247 81.8444V77.5844C200.247 76.5544 199.407 75.7144 198.377 75.7144H157.447Z" fill="#252528"/>
        <path d="M146.997 82.7444C145.617 82.7444 144.487 81.6244 144.487 80.2344C144.487 78.8444 145.607 77.7244 146.997 77.7244C148.387 77.7244 149.507 78.8444 149.507 80.2344C149.507 81.6244 148.387 82.7444 146.997 82.7444ZM146.997 78.4044C145.987 78.4044 145.157 79.2344 145.157 80.2444C145.157 81.2544 145.987 82.0844 146.997 82.0844C148.007 82.0844 148.837 81.2544 148.837 80.2444C148.837 79.2344 148.007 78.4044 146.997 78.4044Z" fill="#252528"/>
        <path d="M140.277 82.7444C138.897 82.7444 137.767 81.6244 137.767 80.2344C137.767 78.8444 138.887 77.7244 140.277 77.7244C141.667 77.7244 142.787 78.8444 142.787 80.2344C142.787 81.6244 141.667 82.7444 140.277 82.7444ZM140.277 78.4044C139.267 78.4044 138.437 79.2344 138.437 80.2444C138.437 81.2544 139.267 82.0844 140.277 82.0844C141.287 82.0844 142.117 81.2544 142.117 80.2444C142.117 79.2344 141.287 78.4044 140.277 78.4044Z" fill="#252528"/>
        <path d="M147.997 72.3343C147.737 72.3343 147.497 72.1943 147.367 71.9643L146.537 70.4543L145.027 69.6243C144.797 69.4943 144.657 69.2543 144.657 68.9943C144.657 68.7343 144.797 68.4943 145.027 68.3643L146.537 67.5343L147.367 66.0243C147.487 65.7943 147.727 65.6543 147.997 65.6543C148.257 65.6543 148.497 65.7943 148.627 66.0243L149.457 67.5343L150.967 68.3643C151.197 68.4943 151.337 68.7343 151.337 68.9943C151.337 69.2543 151.197 69.4943 150.967 69.6243L149.457 70.4543L148.627 71.9643C148.507 72.1943 148.267 72.3343 147.997 72.3343ZM147.997 66.3343L147.957 66.3543L147.087 67.9543C147.057 68.0143 147.007 68.0543 146.957 68.0843L145.357 68.9543C145.357 68.9543 145.337 68.9643 145.337 68.9943C145.337 69.0243 145.357 69.0343 145.357 69.0343L146.957 69.9043C147.017 69.9343 147.057 69.9843 147.087 70.0343L147.957 71.6343C147.957 71.6343 147.967 71.6543 147.997 71.6543C148.027 71.6543 148.037 71.6343 148.037 71.6343L148.907 70.0343C148.937 69.9743 148.987 69.9343 149.037 69.9043L150.637 69.0343C150.637 69.0343 150.657 69.0243 150.657 68.9943C150.657 68.9643 150.637 68.9543 150.637 68.9543L149.037 68.0843C148.977 68.0543 148.937 68.0043 148.907 67.9543L148.037 66.3543C148.037 66.3543 148.027 66.3343 147.997 66.3343Z" fill="#252528"/>
        <path d="M142.497 76.3343C142.247 76.3343 142.027 76.1843 141.917 75.9443L141.227 74.4343L139.977 73.6143C139.777 73.4843 139.657 73.2543 139.657 73.0043C139.657 72.7543 139.777 72.5243 139.977 72.3943L141.227 71.5743L141.917 70.0643C142.027 69.8243 142.257 69.6643 142.497 69.6743C142.747 69.6743 142.967 69.8243 143.077 70.0643L143.767 71.5743L145.017 72.3943C145.217 72.5243 145.337 72.7543 145.337 73.0043C145.337 73.2543 145.217 73.4843 145.017 73.6143L143.767 74.4343L143.077 75.9443C142.967 76.1843 142.747 76.3343 142.497 76.3343ZM142.497 70.3943L141.797 71.9343C141.767 71.9943 141.727 72.0443 141.677 72.0743L140.347 72.9443C140.347 72.9443 140.337 72.9643 140.337 72.9943C140.337 73.0243 140.347 73.0443 140.347 73.0543L141.677 73.9243C141.727 73.9543 141.767 74.0043 141.797 74.0643L142.497 75.6043L143.197 74.0643C143.227 74.0043 143.267 73.9543 143.317 73.9243L144.647 73.0543C144.647 73.0543 144.657 73.0343 144.657 73.0043C144.657 72.9743 144.647 72.9543 144.647 72.9443L143.317 72.0743C143.267 72.0443 143.227 71.9943 143.197 71.9343L142.497 70.3943Z" fill="#252528"/>
        <path d="M138.497 70.3343C138.117 70.3343 137.777 70.1243 137.597 69.7943L136.047 66.9543L133.207 65.4043C132.867 65.2243 132.667 64.8843 132.667 64.5043C132.667 64.1243 132.867 63.7843 133.207 63.6043L136.047 62.0543L137.607 59.2143C137.787 58.8843 138.137 58.6743 138.507 58.6743C138.877 58.6743 139.227 58.8843 139.407 59.2143L140.957 62.0543L143.797 63.6043C144.137 63.7843 144.337 64.1243 144.337 64.5043C144.337 64.8843 144.137 65.2243 143.797 65.4043L140.957 66.9543L139.407 69.7943C139.227 70.1243 138.877 70.3343 138.507 70.3343H138.497ZM138.497 59.3343C138.367 59.3343 138.247 59.4043 138.177 59.5243L136.577 62.4543C136.547 62.5143 136.497 62.5543 136.447 62.5843L133.527 64.1843C133.357 64.2743 133.337 64.4343 133.337 64.5043C133.337 64.5743 133.357 64.7343 133.527 64.8243L136.447 66.4243C136.507 66.4543 136.547 66.5043 136.577 66.5543L138.177 69.4843C138.307 69.7243 138.687 69.7243 138.817 69.4843L140.417 66.5543C140.447 66.4943 140.497 66.4543 140.547 66.4243L143.477 64.8243C143.647 64.7343 143.667 64.5743 143.667 64.5043C143.667 64.4343 143.647 64.2743 143.477 64.1843L140.547 62.5843C140.487 62.5543 140.447 62.5043 140.417 62.4543L138.817 59.5243C138.757 59.4043 138.637 59.3343 138.497 59.3343Z" fill="#252528"/>
        <path d="M181.507 92.6843C181.337 92.6843 181.187 92.5543 181.177 92.3743L180.907 88.7443C180.897 88.5643 181.027 88.4043 181.217 88.3843C181.397 88.3743 181.557 88.5043 181.577 88.6943L181.847 92.3243C181.857 92.5043 181.727 92.6643 181.537 92.6843H181.517H181.507Z" fill="#252528"/>
        <path d="M183.617 93.1145C183.447 93.1145 183.297 92.9845 183.287 92.8045L182.917 88.4145C182.897 88.2345 183.037 88.0745 183.217 88.0545C183.397 88.0445 183.557 88.1745 183.577 88.3545L183.947 92.7445C183.967 92.9245 183.827 93.0845 183.647 93.1045C183.647 93.1045 183.627 93.1045 183.617 93.1045V93.1145Z" fill="#252528"/>
        <path d="M185.767 93.0644C185.597 93.0644 185.457 92.9445 185.437 92.7745L184.917 88.7644C184.897 88.5844 185.027 88.4144 185.207 88.3944C185.387 88.3644 185.557 88.5044 185.577 88.6844L186.097 92.6944C186.117 92.8744 185.987 93.0444 185.807 93.0644C185.797 93.0644 185.777 93.0644 185.767 93.0644Z" fill="#252528"/>
        <path d="M215.037 193.374C211.157 193.374 210.017 190.934 209.957 190.804C209.937 190.774 209.937 190.734 209.927 190.694L207.187 157.054L202.917 101.064C202.907 100.884 203.037 100.724 203.227 100.704C203.407 100.684 203.567 100.824 203.587 101.014L207.857 157.004L210.597 190.574C210.817 190.994 212.497 193.794 218.177 192.234C218.867 189.194 227.317 151.574 225.177 137.544C225.147 137.364 225.277 137.194 225.457 137.164C225.637 137.134 225.807 137.264 225.837 137.444C228.067 152.124 218.877 192.174 218.777 192.574C218.747 192.694 218.657 192.784 218.547 192.824C217.187 193.214 216.027 193.374 215.047 193.374H215.037Z" fill="#252528"/>
        <path d="M248.497 190.834C248.317 190.834 248.167 190.684 248.167 190.504C248.247 171.244 246.667 155.914 243.597 146.154C242.367 142.234 241.167 133.684 241.117 133.324C239.597 116.964 236.597 101.004 236.567 100.844C236.537 100.664 236.647 100.484 236.837 100.454C237.017 100.414 237.197 100.534 237.227 100.724C237.257 100.884 240.267 116.874 241.787 133.254C241.797 133.324 243.027 142.104 244.237 145.964C247.327 155.784 248.917 171.194 248.837 190.514C248.837 190.694 248.687 190.844 248.507 190.844L248.497 190.834Z" fill="#252528"/>
        <path d="M243.897 191.944C240.837 191.944 238.047 190.884 237.877 190.814C237.777 190.774 237.697 190.684 237.677 190.584L230.717 162.114L225.577 138.864L219.677 121.614C219.617 121.444 219.707 121.254 219.887 121.194C220.057 121.134 220.247 121.224 220.307 121.404L226.207 138.674C226.207 138.674 226.207 138.694 226.217 138.714L231.357 161.974L238.277 190.264C239.297 190.624 244.927 192.434 248.397 190.124C248.547 190.024 248.757 190.064 248.857 190.214C248.957 190.364 248.917 190.574 248.767 190.674C247.317 191.634 245.567 191.954 243.897 191.954V191.944Z" fill="#252528"/>
        <path d="M222.047 122.514C222.047 122.514 222.017 122.514 221.997 122.514C218.767 122.044 215.567 117.714 215.437 117.534C215.327 117.384 215.357 117.174 215.507 117.064C215.657 116.954 215.867 116.984 215.977 117.134C216.007 117.174 219.137 121.414 222.097 121.854C222.277 121.884 222.407 122.054 222.377 122.234C222.357 122.404 222.207 122.514 222.047 122.514Z" fill="#252528"/>
        <path d="M144.687 130.384H78.4669C76.5069 130.384 74.9069 128.784 74.9069 126.824V115.604C74.9069 113.644 76.5069 112.044 78.4669 112.044H144.687C146.647 112.044 148.247 113.644 148.247 115.604V126.824C148.247 128.784 146.647 130.384 144.687 130.384ZM78.4669 112.714C76.8769 112.714 75.5769 114.014 75.5769 115.604V126.824C75.5769 128.414 76.8769 129.714 78.4669 129.714H144.687C146.277 129.714 147.577 128.414 147.577 126.824V115.604C147.577 114.014 146.277 112.714 144.687 112.714H78.4669Z" fill="#252528"/>
        <path d="M170.357 130.384H104.137C103.957 130.384 103.807 130.234 103.807 130.054C103.807 129.874 103.957 129.724 104.137 129.724H170.357C171.947 129.724 173.247 128.424 173.247 126.834V115.614C173.247 114.024 171.947 112.724 170.357 112.724H104.137C103.957 112.724 103.807 112.574 103.807 112.394C103.807 112.214 103.957 112.064 104.137 112.064H170.357C172.317 112.064 173.917 113.664 173.917 115.624V126.844C173.917 128.804 172.317 130.404 170.357 130.404V130.384Z" fill="#252528"/>
        <path d="M88.3968 123.645C87.0168 123.645 85.8868 122.525 85.8868 121.135C85.8868 119.745 87.0068 118.625 88.3968 118.625C89.7868 118.625 90.9068 119.745 90.9068 121.135C90.9068 122.525 89.7868 123.645 88.3968 123.645ZM88.3968 119.295C87.3868 119.295 86.5568 120.125 86.5568 121.135C86.5568 122.145 87.3868 122.975 88.3968 122.975C89.4068 122.975 90.2368 122.145 90.2368 121.135C90.2368 120.125 89.4068 119.295 88.3968 119.295Z" fill="#252528"/>
        <path d="M81.6769 123.645C80.2969 123.645 79.1669 122.525 79.1669 121.135C79.1669 119.745 80.2869 118.625 81.6769 118.625C83.0669 118.625 84.1869 119.745 84.1869 121.135C84.1869 122.525 83.0669 123.645 81.6769 123.645ZM81.6769 119.295C80.6669 119.295 79.8369 120.125 79.8369 121.135C79.8369 122.145 80.6669 122.975 81.6769 122.975C82.6869 122.975 83.5169 122.145 83.5169 121.135C83.5169 120.125 82.6869 119.295 81.6769 119.295Z" fill="#252528"/>
        <path d="M139.617 125.384H99.2168C97.5768 125.384 96.2468 124.054 96.2468 122.414V118.684C96.2468 117.044 97.5768 115.714 99.2168 115.714H139.617C141.257 115.714 142.587 117.044 142.587 118.684V122.414C142.587 124.054 141.257 125.384 139.617 125.384ZM99.2168 116.384C97.9468 116.384 96.9168 117.414 96.9168 118.684V122.414C96.9168 123.684 97.9468 124.714 99.2168 124.714H139.617C140.887 124.714 141.917 123.684 141.917 122.414V118.684C141.917 117.414 140.887 116.384 139.617 116.384H99.2168Z" fill="#252528"/>
        <path d="M166.577 133.054H83.2469C83.0669 133.054 82.9169 132.904 82.9169 132.724V130.054C82.9169 129.874 83.0669 129.724 83.2469 129.724H166.577C166.757 129.724 166.907 129.874 166.907 130.054V132.724C166.907 132.904 166.757 133.054 166.577 133.054ZM83.5769 132.384H166.247V130.384H83.5769V132.384Z" fill="#252528"/>
        <path d="M144.687 150.715H78.4669C76.5069 150.715 74.9069 149.115 74.9069 147.155V135.935C74.9069 133.975 76.5069 132.375 78.4669 132.375H144.687C146.647 132.375 148.247 133.975 148.247 135.935V147.155C148.247 149.115 146.647 150.715 144.687 150.715ZM78.4669 133.045C76.8769 133.045 75.5769 134.345 75.5769 135.935V147.155C75.5769 148.745 76.8769 150.045 78.4669 150.045H144.687C146.277 150.045 147.577 148.745 147.577 147.155V135.935C147.577 134.345 146.277 133.045 144.687 133.045H78.4669Z" fill="#252528"/>
        <path d="M170.357 150.714H104.137C103.957 150.714 103.807 150.564 103.807 150.384C103.807 150.204 103.957 150.054 104.137 150.054H170.357C171.947 150.054 173.247 148.754 173.247 147.164V135.944C173.247 134.354 171.947 133.054 170.357 133.054H104.137C103.957 133.054 103.807 132.904 103.807 132.724C103.807 132.544 103.957 132.394 104.137 132.394H170.357C172.317 132.394 173.917 133.994 173.917 135.954V147.174C173.917 149.134 172.317 150.734 170.357 150.734V150.714Z" fill="#252528"/>
        <path d="M139.617 145.714H99.2168C97.5768 145.714 96.2468 144.384 96.2468 142.744V139.014C96.2468 137.374 97.5768 136.044 99.2168 136.044H139.617C141.257 136.044 142.587 137.374 142.587 139.014V142.744C142.587 144.384 141.257 145.714 139.617 145.714ZM99.2168 136.714C97.9468 136.714 96.9168 137.744 96.9168 139.014V142.744C96.9168 144.014 97.9468 145.044 99.2168 145.044H139.617C140.887 145.044 141.917 144.014 141.917 142.744V139.014C141.917 137.744 140.887 136.714 139.617 136.714H99.2168Z" fill="#252528"/>
        <path d="M166.577 153.384H83.2469C83.0669 153.384 82.9169 153.234 82.9169 153.054V150.384C82.9169 150.204 83.0669 150.054 83.2469 150.054H166.577C166.757 150.054 166.907 150.204 166.907 150.384V153.054C166.907 153.234 166.757 153.384 166.577 153.384ZM83.5769 152.714H166.247V150.714H83.5769V152.714Z" fill="#252528"/>
        <path d="M88.3968 143.804C87.0168 143.804 85.8868 142.684 85.8868 141.294C85.8868 139.904 87.0068 138.784 88.3968 138.784C89.7868 138.784 90.9068 139.904 90.9068 141.294C90.9068 142.684 89.7868 143.804 88.3968 143.804ZM88.3968 139.454C87.3868 139.454 86.5568 140.284 86.5568 141.294C86.5568 142.304 87.3868 143.134 88.3968 143.134C89.4068 143.134 90.2368 142.304 90.2368 141.294C90.2368 140.284 89.4068 139.454 88.3968 139.454Z" fill="#252528"/>
        <path d="M81.6769 143.804C80.2969 143.804 79.1669 142.684 79.1669 141.294C79.1669 139.904 80.2869 138.784 81.6769 138.784C83.0669 138.784 84.1869 139.904 84.1869 141.294C84.1869 142.684 83.0669 143.804 81.6769 143.804ZM81.6769 139.454C80.6669 139.454 79.8369 140.284 79.8369 141.294C79.8369 142.304 80.6669 143.134 81.6769 143.134C82.6869 143.134 83.5169 142.304 83.5169 141.294C83.5169 140.284 82.6869 139.454 81.6769 139.454Z" fill="#252528"/>
        <path d="M144.687 171.054H78.4669C76.5069 171.054 74.9069 169.454 74.9069 167.494V156.274C74.9069 154.314 76.5069 152.714 78.4669 152.714H144.687C146.647 152.714 148.247 154.314 148.247 156.274V167.494C148.247 169.454 146.647 171.054 144.687 171.054ZM78.4669 153.384C76.8769 153.384 75.5769 154.684 75.5769 156.274V167.494C75.5769 169.084 76.8769 170.384 78.4669 170.384H144.687C146.277 170.384 147.577 169.084 147.577 167.494V156.274C147.577 154.684 146.277 153.384 144.687 153.384H78.4669Z" fill="#252528"/>
        <path d="M170.357 171.054H104.137C103.957 171.054 103.807 170.904 103.807 170.724C103.807 170.544 103.957 170.394 104.137 170.394H170.357C171.947 170.394 173.247 169.094 173.247 167.504V156.284C173.247 154.694 171.947 153.394 170.357 153.394H104.137C103.957 153.394 103.807 153.244 103.807 153.064C103.807 152.884 103.957 152.734 104.137 152.734H170.357C172.317 152.734 173.917 154.334 173.917 156.294V167.514C173.917 169.474 172.317 171.074 170.357 171.074V171.054Z" fill="#252528"/>
        <path d="M139.617 166.054H99.2168C97.5768 166.054 96.2468 164.724 96.2468 163.084V159.354C96.2468 157.714 97.5768 156.384 99.2168 156.384H139.617C141.257 156.384 142.587 157.714 142.587 159.354V163.084C142.587 164.724 141.257 166.054 139.617 166.054ZM99.2168 157.054C97.9468 157.054 96.9168 158.084 96.9168 159.354V163.084C96.9168 164.354 97.9468 165.384 99.2168 165.384H139.617C140.887 165.384 141.917 164.354 141.917 163.084V159.354C141.917 158.084 140.887 157.054 139.617 157.054H99.2168Z" fill="#252528"/>
        <path d="M88.3968 163.974C87.0168 163.974 85.8868 162.854 85.8868 161.464C85.8868 160.074 87.0068 158.954 88.3968 158.954C89.7868 158.954 90.9068 160.074 90.9068 161.464C90.9068 162.854 89.7868 163.974 88.3968 163.974ZM88.3968 159.634C87.3868 159.634 86.5568 160.464 86.5568 161.474C86.5568 162.484 87.3868 163.314 88.3968 163.314C89.4068 163.314 90.2368 162.494 90.2368 161.474C90.2368 160.454 89.4068 159.634 88.3968 159.634Z" fill="#252528"/>
        <path d="M81.6769 163.974C80.2969 163.974 79.1669 162.854 79.1669 161.464C79.1669 160.074 80.2869 158.954 81.6769 158.954C83.0669 158.954 84.1869 160.074 84.1869 161.464C84.1869 162.854 83.0669 163.974 81.6769 163.974ZM81.6769 159.634C80.6669 159.634 79.8369 160.464 79.8369 161.474C79.8369 162.484 80.6669 163.314 81.6769 163.314C82.6869 163.314 83.5169 162.494 83.5169 161.474C83.5169 160.454 82.6869 159.634 81.6769 159.634Z" fill="#252528"/>
    </g>
</svg>
