<svg width="32" height="32" viewBox="0 0 32 32" fill="none" xmlns="http://www.w3.org/2000/svg">
<path fill-rule="evenodd" clip-rule="evenodd" d="M5.99596 25.6512C5.61998 25.5951 5.53259 25.5725 5.45631 25.4969C5.38003 25.4212 5.33325 25.312 5.33325 24.9941C5.33325 17.361 5.33325 12.2186 5.33325 10.0381C5.33325 10.0141 5.33325 9.98637 5.33325 9.95668C5.33325 9.74431 5.50541 9.57214 5.71778 9.57214C13.6993 11.4115 20.0432 7.29521 28.0247 9.13456C28.3754 9.24434 28.449 9.3197 28.5146 9.3902C28.5802 9.4607 28.6413 9.64033 28.6413 9.79715C28.6408 15.8196 28.6408 20.8595 28.6414 24.8987C28.6415 25.0501 28.5408 25.1972 28.3926 25.1661C28.3747 25.1623 28.3565 25.1573 28.3382 25.1506C20.3567 23.3104 15.5755 27.0809 5.99596 25.6512Z" fill="#1868AB"/>
<path fill-rule="evenodd" clip-rule="evenodd" d="M3.99596 22.9977C3.61998 22.9438 3.53259 22.9221 3.45631 22.8495C3.38003 22.7768 3.33325 22.6719 3.33325 22.3665C3.33325 15.0345 3.33325 10.0949 3.33325 8.00039C3.33325 7.98148 3.33325 7.96017 3.33325 7.93738C3.33325 7.72501 3.50541 7.55284 3.71778 7.55284C11.6993 9.31964 18.0432 5.36571 26.0247 7.13251C26.3754 7.23797 26.449 7.31035 26.5146 7.37807C26.5802 7.44579 26.6413 7.61834 26.6413 7.76897C26.6408 13.5539 26.6408 18.395 26.6414 22.2749C26.6415 22.4199 26.545 22.559 26.4021 22.5336C26.3811 22.5298 26.3597 22.5244 26.3382 22.5168C18.3567 20.7493 13.5755 24.3711 3.99596 22.9977Z" fill="#5297D1"/>
<path fill-rule="evenodd" clip-rule="evenodd" d="M14.9874 19.3102C12.6253 19.3102 10.7104 17.3962 10.7104 15.0349C10.7104 12.6736 12.6253 10.7588 14.9874 10.7588C17.3486 10.7588 19.2627 12.6736 19.2627 15.0349C19.2627 17.3962 17.3486 19.3102 14.9874 19.3102Z" fill="white"/>
<path d="M21.408 9.49686H24.4207" stroke="white" stroke-width="2.37474" stroke-linecap="round"/>
<path d="M5.47119 20.8836H8.48394" stroke="white" stroke-width="2.37474" stroke-linecap="round"/>
</svg>
