<svg width="32" height="32" viewBox="0 0 32 32" fill="none" xmlns="http://www.w3.org/2000/svg">
<path d="M5.33325 9.33338C5.33325 7.12424 7.12411 5.33337 9.33325 5.33337H22.6666C24.8757 5.33337 26.6666 7.12424 26.6666 9.33337V24.6667C26.6666 25.7713 25.7712 26.6667 24.6666 26.6667H7.33325C6.22868 26.6667 5.33325 25.7713 5.33325 24.6667V9.33338Z" fill="#00AB4E"/>
<path fill-rule="evenodd" clip-rule="evenodd" d="M20.6667 5.33337H22.6667C24.8759 5.33337 26.6667 7.12424 26.6667 9.33337V24.6667C26.6667 25.7713 25.7713 26.6667 24.6667 26.6667H20.6667V5.33337Z" fill="#00883E"/>
<path fill-rule="evenodd" clip-rule="evenodd" d="M5.33325 9.33337H26.6666V12.6667H5.33325V9.33337Z" fill="#BFD730"/>
<path fill-rule="evenodd" clip-rule="evenodd" d="M20.6667 9.33337H26.6667V12.6667H20.6667V9.33337Z" fill="#98AC26"/>
<path d="M5.66675 14.3333H26.3334" stroke="#00662E" stroke-linecap="round" stroke-dasharray="3"/>
<path d="M8.66675 18.6666C8.66675 17.5621 9.56218 16.6666 10.6667 16.6666H14.0001C15.1046 16.6666 16.0001 17.5621 16.0001 18.6666V26.6666H8.66675V18.6666Z" fill="#98AC26"/>
<mask id="mask0" mask-type="alpha" maskUnits="userSpaceOnUse" x="8" y="16" width="8" height="11">
<path d="M8.66675 18.6666C8.66675 17.5621 9.56218 16.6666 10.6667 16.6666H14.0001C15.1046 16.6666 16.0001 17.5621 16.0001 18.6666V26.6666H8.66675V18.6666Z" fill="white"/>
</mask>
<g mask="url(#mask0)">
<path d="M10 18.6666C10 17.5621 10.8954 16.6666 12 16.6666H15.3333C16.4379 16.6666 17.3333 17.5621 17.3333 18.6666V26.6666H10V18.6666Z" fill="#BFD730"/>
</g>
</svg>
