<svg width="48" height="48" viewBox="0 0 48 48" fill="none" xmlns="http://www.w3.org/2000/svg">
<path fill-rule="evenodd" clip-rule="evenodd" d="M12 9C12 7.34315 13.3431 6 15 6H33C34.6569 6 36 7.34315 36 9V39C36 40.6569 34.6569 42 33 42H15C13.3431 42 12 40.6569 12 39V9Z" fill="#CC9D3F"/>
<mask id="mask0_6340_45028" style="mask-type:alpha" maskUnits="userSpaceOnUse" x="12" y="6" width="24" height="36">
<path fill-rule="evenodd" clip-rule="evenodd" d="M12 9C12 7.34315 13.3431 6 15 6H33C34.6569 6 36 7.34315 36 9V39C36 40.6569 34.6569 42 33 42H15C13.3431 42 12 40.6569 12 39V9Z" fill="white"/>
</mask>
<g mask="url(#mask0_6340_45028)">
<rect x="9" y="6" width="24" height="36" rx="3" fill="#FFC54F"/>
<path fill-rule="evenodd" clip-rule="evenodd" d="M21.5106 10.3329L16.6939 13.9646C16.1045 14.4085 15.8569 15.1984 16.0826 15.9185L17.9217 21.7941C18.1473 22.5141 18.7941 23 19.5233 23H25.4767C26.2059 23 26.8527 22.5141 27.0783 21.7941L28.9174 15.9185C29.1431 15.1984 28.8955 14.4085 28.3061 13.9646L23.4894 10.3329C22.9 9.88902 22.1 9.88902 21.5106 10.3329Z" fill="#FFC54F" stroke="#CC9D3F"/>
<path fill-rule="evenodd" clip-rule="evenodd" d="M19.3788 17.0579C19.3828 17.6303 19.424 18.1967 19.5654 18.7265C19.6709 19.1218 19.834 19.4981 20.0816 19.8445C20.3291 19.4981 20.4916 19.1218 20.5971 18.7265C20.7385 18.1967 20.7796 17.6303 20.7837 17.0579L21.1185 17.059L21.4535 17.0579C21.4585 17.8916 21.5097 18.7174 21.6863 19.4936C21.8259 20.1079 22.0453 20.6916 22.3845 21.2251C22.7236 20.6916 22.9425 20.1079 23.0821 19.4936C23.2586 18.7175 23.3099 17.8917 23.3149 17.0579L23.6497 17.059L23.9847 17.0579C23.9888 17.6303 24.0299 18.1967 24.1713 18.7265C24.2768 19.1218 24.4399 19.4981 24.6875 19.8445C24.935 19.4981 25.0975 19.1218 25.203 18.7265C25.3444 18.1967 25.3855 17.6303 25.3896 17.0579L26.0316 17.0601C26.0273 17.6731 25.9822 18.283 25.8272 18.8636C25.668 19.4601 25.3941 20.0231 24.9338 20.5234L24.6873 20.7913L24.4405 20.5234C24.1331 20.1894 23.9096 19.8272 23.7471 19.446C23.7359 19.501 23.7238 19.5559 23.7115 19.6103C23.5217 20.4452 23.1951 21.2333 22.6461 21.9342L22.3844 22.2684L22.1224 21.9342C21.5732 21.2333 21.2467 20.4452 21.0569 19.6103C21.0446 19.556 21.0331 19.5012 21.0219 19.4465C20.8594 19.8275 20.635 20.1896 20.3279 20.5234L20.0814 20.7913L19.8346 20.5234C19.3742 20.0229 19.1005 19.4601 18.9412 18.8636C18.7862 18.283 18.7411 17.6731 18.7368 17.0601L19.3788 17.0579Z" fill="#CC9D3F"/>
<path fill-rule="evenodd" clip-rule="evenodd" d="M19.422 16.3378C19.4347 15.8547 19.4823 15.3789 19.6074 14.9301C19.7142 14.5473 19.8793 14.1828 20.1298 13.8473C20.3803 14.1828 20.5447 14.5473 20.6514 14.9301C20.7636 15.3322 20.8132 15.7561 20.8315 16.1873C20.4822 16.2182 20.1328 16.2539 19.7828 16.2944C19.6626 16.3082 19.5423 16.3228 19.422 16.3378ZM21.525 16.1325C21.5444 15.4665 21.6055 14.8102 21.7537 14.1871C21.8949 13.5924 22.1169 13.027 22.4601 12.5104C22.8033 13.027 23.0248 13.5924 23.166 14.1871C23.3149 14.8135 23.3756 15.4734 23.3947 16.1433C23.0575 16.1184 22.7208 16.0979 22.3842 16.0824C22.0982 16.0956 21.8117 16.1124 21.525 16.1325ZM24.0872 16.201C24.1051 15.7651 24.1549 15.3364 24.2683 14.9301C24.375 14.5473 24.54 14.1828 24.7905 13.8473C25.041 14.1828 25.2054 14.5473 25.3122 14.9301C25.439 15.3848 25.4859 15.8673 25.4979 16.3569C25.327 16.335 25.1564 16.314 24.9856 16.2944C24.6859 16.2597 24.3864 16.2286 24.0872 16.201ZM26.1494 16.4459C26.1408 15.8853 26.092 15.3286 25.9438 14.7973C25.7827 14.2197 25.5055 13.6744 25.0398 13.1899L24.7903 12.9304L24.5406 13.1899C24.2295 13.5134 24.0034 13.8642 23.839 14.2333C23.8276 14.18 23.8154 14.1269 23.803 14.0742C23.6108 13.2657 23.2804 12.5024 22.7248 11.8237L22.46 11.5L22.1949 11.8237C21.6392 12.5024 21.3089 13.2657 21.1167 14.0742C21.1043 14.1268 21.0927 14.1798 21.0812 14.2328C20.9169 13.8639 20.6898 13.5131 20.3791 13.1899L20.1296 12.9304L19.8799 13.1899C19.414 13.6745 19.137 14.2197 18.9758 14.7973C18.8295 15.3218 18.7801 15.871 18.7706 16.4243C18.1814 16.5072 17.591 16.6028 17 16.7105C18.8034 16.6472 20.5987 16.6082 22.3842 16.5975C24.1698 16.6082 25.965 16.6472 27.7684 16.7105C27.2281 16.612 26.6883 16.5237 26.1494 16.4459Z" fill="#CC9D3F"/>
<path d="M24.62 34.0001V33.0001H23.404V28.3601H22.516L20.724 29.4081L21.196 30.3041L22.156 29.7441V33.0001H20.94V34.0001H24.62Z" fill="#CC9D3F"/>
</g>
</svg>
