<svg width="48" height="48" viewBox="0 0 48 48" fill="none" xmlns="http://www.w3.org/2000/svg">
<circle opacity="0.1" cx="24" cy="24" r="24" fill="#FFC54F"/>
<path fill-rule="evenodd" clip-rule="evenodd" d="M22.5496 31.7952C21.6917 31.8944 11.3083 31.8944 10.4511 31.7952C9.99952 31.7432 9.68565 31.3754 9.76125 30.9805C9.86182 30.4594 10.0623 29.5738 10.4666 28.1212C10.9418 26.4122 11.2766 25.6008 11.471 25.2228C11.5776 25.0156 11.7862 24.8664 12.04 24.8219C12.5814 24.726 20.4186 24.726 20.96 24.8219C21.2138 24.8664 21.4224 25.0156 21.529 25.2228C21.7234 25.6008 22.0582 26.4122 22.5334 28.1212C22.9377 29.5738 23.1389 30.4594 23.2388 30.9805C23.3144 31.3754 23.0005 31.7432 22.5496 31.7952Z" fill="#CC9D3F"/>
<mask id="mask0" mask-type="alpha" maskUnits="userSpaceOnUse" x="9" y="24" width="15" height="8">
<path fill-rule="evenodd" clip-rule="evenodd" d="M22.5496 31.7952C21.6917 31.8944 11.3083 31.8944 10.4511 31.7952C9.99952 31.7432 9.68565 31.3754 9.76125 30.9805C9.86182 30.4594 10.0623 29.5738 10.4666 28.1212C10.9418 26.4122 11.2766 25.6008 11.471 25.2228C11.5776 25.0156 11.7862 24.8664 12.04 24.8219C12.5814 24.726 20.4186 24.726 20.96 24.8219C21.2138 24.8664 21.4224 25.0156 21.529 25.2228C21.7234 25.6008 22.0582 26.4122 22.5334 28.1212C22.9377 29.5738 23.1389 30.4594 23.2388 30.9805C23.3144 31.3754 23.0005 31.7432 22.5496 31.7952Z" fill="white"/>
</mask>
<g mask="url(#mask0)">
<path fill-rule="evenodd" clip-rule="evenodd" d="M20.2996 31.0452C19.4417 31.1444 9.05832 31.1444 8.20109 31.0452C7.74952 30.9932 7.43565 30.6254 7.51125 30.2305C7.61182 29.7094 7.81229 28.8238 8.21661 27.3712C8.6918 25.6622 9.0266 24.8508 9.22099 24.4728C9.32764 24.2656 9.53621 24.1164 9.79001 24.0719C10.3314 23.976 18.1686 23.976 18.71 24.0719C18.9638 24.1164 19.1724 24.2656 19.279 24.4728C19.4734 24.8508 19.8082 25.6622 20.2834 27.3712C20.6877 28.8238 20.8889 29.7094 20.9888 30.2305C21.0644 30.6254 20.7505 30.9932 20.2996 31.0452Z" fill="#FFC54F"/>
</g>
<path fill-rule="evenodd" clip-rule="evenodd" d="M37.5496 31.7952C36.6917 31.8944 26.3083 31.8944 25.4511 31.7952C24.9995 31.7432 24.6856 31.3754 24.7612 30.9805C24.8618 30.4594 25.0623 29.5738 25.4666 28.1212C25.9418 26.4122 26.2766 25.6008 26.471 25.2228C26.5776 25.0156 26.7862 24.8664 27.04 24.8219C27.5814 24.726 35.4186 24.726 35.96 24.8219C36.2138 24.8664 36.4224 25.0156 36.529 25.2228C36.7234 25.6008 37.0582 26.4122 37.5334 28.1212C37.9377 29.5738 38.1389 30.4594 38.2388 30.9805C38.3144 31.3754 38.0005 31.7432 37.5496 31.7952Z" fill="#CC9D3F"/>
<mask id="mask1" mask-type="alpha" maskUnits="userSpaceOnUse" x="24" y="24" width="15" height="8">
<path fill-rule="evenodd" clip-rule="evenodd" d="M37.5496 31.7952C36.6917 31.8944 26.3083 31.8944 25.4511 31.7952C24.9995 31.7432 24.6856 31.3754 24.7612 30.9805C24.8618 30.4594 25.0623 29.5738 25.4666 28.1212C25.9418 26.4122 26.2766 25.6008 26.471 25.2228C26.5776 25.0156 26.7862 24.8664 27.04 24.8219C27.5814 24.726 35.4186 24.726 35.96 24.8219C36.2138 24.8664 36.4224 25.0156 36.529 25.2228C36.7234 25.6008 37.0582 26.4122 37.5334 28.1212C37.9377 29.5738 38.1389 30.4594 38.2388 30.9805C38.3144 31.3754 38.0005 31.7432 37.5496 31.7952Z" fill="white"/>
</mask>
<g mask="url(#mask1)">
<path fill-rule="evenodd" clip-rule="evenodd" d="M35.2996 31.0452C34.4417 31.1444 24.0583 31.1444 23.2011 31.0452C22.7495 30.9932 22.4356 30.6254 22.5112 30.2305C22.6118 29.7094 22.8123 28.8238 23.2166 27.3712C23.6918 25.6622 24.0266 24.8508 24.221 24.4728C24.3276 24.2656 24.5362 24.1164 24.79 24.0719C25.3314 23.976 33.1686 23.976 33.71 24.0719C33.9638 24.1164 34.1724 24.2656 34.279 24.4728C34.4734 24.8508 34.8082 25.6622 35.2834 27.3712C35.6877 28.8238 35.8889 29.7094 35.9888 30.2305C36.0644 30.6254 35.7505 30.9932 35.2996 31.0452Z" fill="#FFC54F"/>
</g>
<path fill-rule="evenodd" clip-rule="evenodd" d="M30.0496 22.7952C29.1917 22.8944 18.8083 22.8944 17.9511 22.7952C17.4995 22.7432 17.1856 22.3754 17.2612 21.9805C17.3618 21.4594 17.5623 20.5738 17.9666 19.1212C18.4418 17.4122 18.7766 16.6008 18.971 16.2228C19.0776 16.0156 19.2862 15.8664 19.54 15.8219C20.0814 15.726 27.9186 15.726 28.46 15.8219C28.7138 15.8664 28.9224 16.0156 29.029 16.2228C29.2234 16.6008 29.5582 17.4122 30.0334 19.1212C30.4377 20.5738 30.6389 21.4594 30.7388 21.9805C30.8144 22.3754 30.5005 22.7432 30.0496 22.7952Z" fill="#CC9D3F"/>
<mask id="mask2" mask-type="alpha" maskUnits="userSpaceOnUse" x="17" y="15" width="14" height="8">
<path fill-rule="evenodd" clip-rule="evenodd" d="M30.0496 22.7952C29.1917 22.8944 18.8083 22.8944 17.9511 22.7952C17.4995 22.7432 17.1856 22.3754 17.2612 21.9805C17.3618 21.4594 17.5623 20.5738 17.9666 19.1212C18.4418 17.4122 18.7766 16.6008 18.971 16.2228C19.0776 16.0156 19.2862 15.8664 19.54 15.8219C20.0814 15.726 27.9186 15.726 28.46 15.8219C28.7138 15.8664 28.9224 16.0156 29.029 16.2228C29.2234 16.6008 29.5582 17.4122 30.0334 19.1212C30.4377 20.5738 30.6389 21.4594 30.7388 21.9805C30.8144 22.3754 30.5005 22.7432 30.0496 22.7952Z" fill="white"/>
</mask>
<g mask="url(#mask2)">
<path fill-rule="evenodd" clip-rule="evenodd" d="M27.7996 22.0452C26.9417 22.1444 16.5583 22.1444 15.7011 22.0452C15.2495 21.9932 14.9356 21.6254 15.0112 21.2305C15.1118 20.7094 15.3123 19.8238 15.7166 18.3712C16.1918 16.6622 16.5266 15.8508 16.721 15.4728C16.8276 15.2656 17.0362 15.1164 17.29 15.0719C17.8314 14.976 25.6686 14.976 26.21 15.0719C26.4638 15.1164 26.6724 15.2656 26.779 15.4728C26.9734 15.8508 27.3082 16.6622 27.7834 18.3712C28.1877 19.8238 28.3889 20.7094 28.4888 21.2305C28.5644 21.6254 28.2505 21.9932 27.7996 22.0452Z" fill="#FFC54F"/>
</g>
</svg>
