<svg width="48" height="48" viewBox="0 0 48 48" fill="none" xmlns="http://www.w3.org/2000/svg">
<circle opacity="0.05" cx="24" cy="24" r="24" fill="url(#paint0_linear)"/>
<path fill-rule="evenodd" clip-rule="evenodd" d="M14.1481 17.625L8.16138 29.6668L8.50184 32.5903L19.1393 32.3813L20.1105 29.6496L14.1481 17.625Z" stroke="#285739" stroke-width="1.5" stroke-linecap="round" stroke-linejoin="round"/>
<path fill-rule="evenodd" clip-rule="evenodd" d="M20.6738 29.6667V31.4727C20.6738 34.1583 17.8189 36.3357 14.2988 36.3357C13.889 36.3357 13.4917 36.3063 13.0956 36.2483C10.151 35.818 7.92383 33.8458 7.92383 31.4727V29.6667H20.6738Z" fill="#00883E"/>
<path fill-rule="evenodd" clip-rule="evenodd" d="M18.848 29.6667V31.4727C18.848 33.8458 16.4286 35.8275 13.2163 36.2483C10.0174 35.818 7.59802 33.8458 7.59802 31.4727V29.6667H18.848Z" fill="#00AB4E"/>
<path fill-rule="evenodd" clip-rule="evenodd" d="M33.55 17.625L27.5648 29.6668L27.925 32.3813H39.175L39.5125 29.6668L33.55 17.625Z" stroke="#285739" stroke-width="1.5" stroke-linecap="round" stroke-linejoin="round"/>
<path fill-rule="evenodd" clip-rule="evenodd" d="M40.0758 29.6667V31.4727C40.0758 34.1583 37.2209 36.3357 33.7008 36.3357C33.291 36.3357 32.8937 36.3063 32.4976 36.2483C29.5529 35.818 27.3258 33.8458 27.3258 31.4727V29.6667H40.0758Z" fill="#00782E"/>
<path fill-rule="evenodd" clip-rule="evenodd" d="M38.25 29.6667V31.4727C38.25 33.8458 35.8306 35.8275 32.6182 36.2483C29.4194 35.818 27 33.8458 27 31.4727V29.6667H38.25Z" fill="#00AB4E"/>
<path fill-rule="evenodd" clip-rule="evenodd" d="M38.1656 19.931C38.1656 20.1519 37.9865 20.331 37.7656 20.331H36.523C36.4248 20.331 36.3308 20.2956 36.2549 20.2335C35.4938 19.6107 31.0073 16.2163 23.625 16.2163C16.9028 16.2163 12.8219 18.7722 11.2468 20.0026C10.9632 20.2242 10.5 20.0179 10.5 19.658V18.1522C10.5 17.8222 10.6608 17.5153 10.9404 17.3402C12.547 16.334 18.3144 13.007 24.3328 13.007C30.7529 13.007 36.8875 16.793 37.9902 17.509C38.1008 17.5808 38.1656 17.7039 38.1656 17.8359V19.931Z" fill="#00782E"/>
<path fill-rule="evenodd" clip-rule="evenodd" d="M36.75 19.7991C36.75 20.1378 36.3469 20.3387 36.0688 20.1454C34.3955 18.9828 29.7684 16.2163 23.625 16.2163C17.2541 16.2163 12.5138 19.1915 11.0075 20.2678C10.8009 20.4154 10.5 20.266 10.5 20.012V18.0584C10.5 17.7881 10.6332 17.5386 10.8654 17.4001C12.2844 16.5543 17.6482 13.6098 23.625 13.5598C29.6142 13.5097 34.9878 16.538 36.3934 17.3993C36.6207 17.5386 36.75 17.785 36.75 18.0516V19.7991Z" fill="#00AB4E"/>
<path fill-rule="evenodd" clip-rule="evenodd" d="M26.25 14.6246C26.25 15.8679 25.2423 16.875 24 16.875C22.7577 16.875 21.75 15.8679 21.75 14.6246C21.75 13.3821 22.7577 12.375 24 12.375C25.2423 12.375 26.25 13.3821 26.25 14.6246Z" fill="#9BB20E"/>
<path fill-rule="evenodd" clip-rule="evenodd" d="M25.5 14.6246C25.5 15.8679 24.4923 16.875 23.25 16.875C22.0077 16.875 21 15.8679 21 14.6246C21 13.3821 22.0077 12.375 23.25 12.375C24.4923 12.375 25.5 13.3821 25.5 14.6246Z" fill="#BFD730"/>
<defs>
<linearGradient id="paint0_linear" x1="0" y1="0" x2="0" y2="48" gradientUnits="userSpaceOnUse">
<stop stop-color="#00AB4E"/>
<stop offset="1" stop-color="#00AB4E"/>
</linearGradient>
</defs>
</svg>
