<svg width="48" height="48" viewBox="0 0 48 48" fill="none" xmlns="http://www.w3.org/2000/svg">
<path fill-rule="evenodd" clip-rule="evenodd" d="M22.0661 34.3936C20.9222 34.5259 7.07776 34.5259 5.93478 34.3936C5.33269 34.3243 4.9142 33.8338 5.015 33.3073C5.14909 32.6125 5.41639 31.4317 5.95548 29.495C6.58907 27.2162 7.03546 26.1344 7.29466 25.6304C7.43686 25.3541 7.71495 25.1552 8.05335 25.0958C8.77514 24.9681 19.2249 24.9681 19.9467 25.0958C20.285 25.1552 20.5631 25.3541 20.7053 25.6304C20.9645 26.1344 21.4109 27.2162 22.0445 29.495C22.5836 31.4317 22.8518 32.6125 22.985 33.3073C23.0858 33.8338 22.6673 34.3243 22.0661 34.3936Z" fill="#252528"/>
<mask id="mask0_3217_45668" style="mask-type:alpha" maskUnits="userSpaceOnUse" x="5" y="25" width="18" height="10">
<path fill-rule="evenodd" clip-rule="evenodd" d="M22.0661 34.3936C20.9222 34.5259 7.07776 34.5259 5.93478 34.3936C5.33269 34.3243 4.9142 33.8338 5.015 33.3073C5.14909 32.6125 5.41639 31.4317 5.95548 29.495C6.58907 27.2162 7.03546 26.1344 7.29466 25.6304C7.43686 25.3541 7.71495 25.1552 8.05335 25.0958C8.77514 24.9681 19.2249 24.9681 19.9467 25.0958C20.285 25.1552 20.5631 25.3541 20.7053 25.6304C20.9645 26.1344 21.4109 27.2162 22.0445 29.495C22.5836 31.4317 22.8518 32.6125 22.985 33.3073C23.0858 33.8338 22.6673 34.3243 22.0661 34.3936Z" fill="white"/>
</mask>
<g mask="url(#mask0_3217_45668)">
</g>
<path fill-rule="evenodd" clip-rule="evenodd" d="M42.0661 34.3936C40.9222 34.5259 27.0778 34.5259 25.9348 34.3936C25.3327 34.3243 24.9142 33.8338 25.015 33.3073C25.1491 32.6125 25.4164 31.4317 25.9555 29.495C26.5891 27.2162 27.0355 26.1344 27.2947 25.6304C27.4369 25.3541 27.715 25.1552 28.0533 25.0958C28.7751 24.9681 39.2249 24.9681 39.9467 25.0958C40.285 25.1552 40.5631 25.3541 40.7053 25.6304C40.9645 26.1344 41.4109 27.2162 42.0445 29.495C42.5836 31.4317 42.8518 32.6125 42.985 33.3073C43.0858 33.8338 42.6673 34.3243 42.0661 34.3936Z" fill="#252528"/>
<mask id="mask1_3217_45668" style="mask-type:alpha" maskUnits="userSpaceOnUse" x="25" y="25" width="18" height="10">
<path fill-rule="evenodd" clip-rule="evenodd" d="M42.0661 34.3936C40.9222 34.5259 27.0778 34.5259 25.9348 34.3936C25.3327 34.3243 24.9142 33.8338 25.015 33.3073C25.1491 32.6125 25.4164 31.4317 25.9555 29.495C26.5891 27.2162 27.0355 26.1344 27.2947 25.6304C27.4369 25.3541 27.715 25.1552 28.0533 25.0958C28.7751 24.9681 39.2249 24.9681 39.9467 25.0958C40.285 25.1552 40.5631 25.3541 40.7053 25.6304C40.9645 26.1344 41.4109 27.2162 42.0445 29.495C42.5836 31.4317 42.8518 32.6125 42.985 33.3073C43.0858 33.8338 42.6673 34.3243 42.0661 34.3936Z" fill="white"/>
</mask>
<g mask="url(#mask1_3217_45668)">
</g>
<path fill-rule="evenodd" clip-rule="evenodd" d="M32.0661 22.3936C30.9222 22.5259 17.0778 22.5259 15.9348 22.3936C15.3327 22.3243 14.9142 21.8338 15.015 21.3073C15.1491 20.6125 15.4164 19.4317 15.9555 17.495C16.5891 15.2162 17.0355 14.1344 17.2947 13.6304C17.4369 13.3541 17.715 13.1552 18.0533 13.0958C18.7751 12.9681 29.2249 12.9681 29.9467 13.0958C30.285 13.1552 30.5631 13.3541 30.7053 13.6304C30.9645 14.1344 31.4109 15.2162 32.0445 17.495C32.5836 19.4317 32.8518 20.6125 32.985 21.3073C33.0858 21.8338 32.6673 22.3243 32.0661 22.3936Z" fill="#252528"/>
<mask id="mask2_3217_45668" style="mask-type:alpha" maskUnits="userSpaceOnUse" x="15" y="13" width="18" height="10">
<path fill-rule="evenodd" clip-rule="evenodd" d="M32.0661 22.3936C30.9222 22.5259 17.0778 22.5259 15.9348 22.3936C15.3327 22.3243 14.9142 21.8338 15.015 21.3073C15.1491 20.6125 15.4164 19.4317 15.9555 17.495C16.5891 15.2162 17.0355 14.1344 17.2947 13.6304C17.4369 13.3541 17.715 13.1552 18.0533 13.0958C18.7751 12.9681 29.2249 12.9681 29.9467 13.0958C30.285 13.1552 30.5631 13.3541 30.7053 13.6304C30.9645 14.1344 31.4109 15.2162 32.0445 17.495C32.5836 19.4317 32.8518 20.6125 32.985 21.3073C33.0858 21.8338 32.6673 22.3243 32.0661 22.3936Z" fill="white"/>
</mask>
<g mask="url(#mask2_3217_45668)">
</g>
</svg>
