<svg width="20" height="20" viewBox="0 0 20 20" fill="none" xmlns="http://www.w3.org/2000/svg">
<circle cx="9.99935" cy="9.99984" r="7.83333" stroke="#CACCCF"/>
<mask id="mask0" style="mask-type:alpha" maskUnits="userSpaceOnUse" x="1" y="1" width="18" height="18">
<circle cx="9.99935" cy="9.99984" r="7.83333" fill="white" stroke="white"/>
</mask>
<g mask="url(#mask0)">
<rect width="20" height="20" fill="#00AB4E"/>
<path fill-rule="evenodd" clip-rule="evenodd" d="M10.7859 5.71344C10.7476 5.3131 10.4104 5 10 5C9.56399 5 9.21053 5.35346 9.21053 5.78947V9.21053H5.78947L5.71344 9.21414C5.3131 9.2524 5 9.58963 5 10C5 10.436 5.35346 10.7895 5.78947 10.7895H9.21053V14.2105L9.21414 14.2866C9.2524 14.6869 9.58963 15 10 15C10.436 15 10.7895 14.6465 10.7895 14.2105V10.7895H14.2105L14.2866 10.7859C14.6869 10.7476 15 10.4104 15 10C15 9.56399 14.6465 9.21053 14.2105 9.21053H10.7895V5.78947L10.7859 5.71344Z" fill="#70717D"/>
<mask id="mask1" style="mask-type:alpha" maskUnits="userSpaceOnUse" x="5" y="5" width="10" height="10">
<path fill-rule="evenodd" clip-rule="evenodd" d="M10.7859 5.71344C10.7476 5.3131 10.4104 5 10 5C9.56399 5 9.21053 5.35346 9.21053 5.78947V9.21053H5.78947L5.71344 9.21414C5.3131 9.2524 5 9.58963 5 10C5 10.436 5.35346 10.7895 5.78947 10.7895H9.21053V14.2105L9.21414 14.2866C9.2524 14.6869 9.58963 15 10 15C10.436 15 10.7895 14.6465 10.7895 14.2105V10.7895H14.2105L14.2866 10.7859C14.6869 10.7476 15 10.4104 15 10C15 9.56399 14.6465 9.21053 14.2105 9.21053H10.7895V5.78947L10.7859 5.71344Z" fill="white"/>
</mask>
<g mask="url(#mask1)">
<rect width="13.3333" height="13.3333" transform="translate(3.33398 3.3335)" fill="white"/>
<rect x="3.33398" y="3.3335" width="13.3333" height="13.3333" fill="white"/>
</g>
</g>
</svg>
