<svg width="24" height="24" viewBox="0 0 24 24" fill="none" xmlns="http://www.w3.org/2000/svg">
<path d="M8.12253 9.70266L12.0025 13.5827L15.8825 9.70266C16.2725 9.31266 16.9025 9.31266 17.2925 9.70266C17.6825 10.0927 17.6825 10.7227 17.2925 11.1127L12.7025 15.7027C12.3125 16.0927 11.6825 16.0927 11.2925 15.7027L6.70253 11.1127C6.31253 10.7227 6.31253 10.0927 6.70253 9.70266C7.09253 9.32266 7.73253 9.31266 8.12253 9.70266Z" fill="black"/>
<mask id="mask0" mask-type="alpha" maskUnits="userSpaceOnUse" x="6" y="9" width="12" height="7">
<path d="M8.12253 9.70266L12.0025 13.5827L15.8825 9.70266C16.2725 9.31266 16.9025 9.31266 17.2925 9.70266C17.6825 10.0927 17.6825 10.7227 17.2925 11.1127L12.7025 15.7027C12.3125 16.0927 11.6825 16.0927 11.2925 15.7027L6.70253 11.1127C6.31253 10.7227 6.31253 10.0927 6.70253 9.70266C7.09253 9.32266 7.73253 9.31266 8.12253 9.70266Z" fill="white"/>
</mask>
<g mask="url(#mask0)">
<rect width="24" height="24" fill="white"/>
</g>
</svg>
