<svg width="20" height="20" viewBox="0 0 20 20" fill="none" xmlns="http://www.w3.org/2000/svg">
<path d="M7.50205 13.2253L10.7354 9.99193L7.50205 6.75859C7.17705 6.43359 7.17705 5.90859 7.50205 5.58359C7.82705 5.25859 8.35205 5.25859 8.67705 5.58359L12.5021 9.40859C12.8271 9.73359 12.8271 10.2586 12.5021 10.5836L8.67705 14.4086C8.35205 14.7336 7.82705 14.7336 7.50205 14.4086C7.18538 14.0836 7.17705 13.5503 7.50205 13.2253Z" fill="black"/>
<mask id="mask0" mask-type="alpha" maskUnits="userSpaceOnUse" x="7" y="5" width="6" height="10">
<path d="M7.50205 13.2253L10.7354 9.99193L7.50205 6.75859C7.17705 6.43359 7.17705 5.90859 7.50205 5.58359C7.82705 5.25859 8.35205 5.25859 8.67705 5.58359L12.5021 9.40859C12.8271 9.73359 12.8271 10.2586 12.5021 10.5836L8.67705 14.4086C8.35205 14.7336 7.82705 14.7336 7.50205 14.4086C7.18538 14.0836 7.17705 13.5503 7.50205 13.2253Z" fill="white"/>
</mask>
<g mask="url(#mask0)">
<rect width="20" height="20" fill="#BBBDC0"/>
</g>
</svg>
