<svg width="18" height="18" viewBox="0 0 18 18" fill="none" xmlns="http://www.w3.org/2000/svg">
<path d="M6.75209 11.9042L9.66209 8.99425L6.75209 6.08425C6.45959 5.79175 6.45959 5.31925 6.75209 5.02675C7.04459 4.73425 7.51709 4.73425 7.80959 5.02675L11.2521 8.46925C11.5446 8.76175 11.5446 9.23425 11.2521 9.52675L7.80959 12.9692C7.51709 13.2617 7.04459 13.2617 6.75209 12.9692C6.46709 12.6767 6.45959 12.1967 6.75209 11.9042Z" fill="black"/>
<mask id="mask0_2529_27301" style="mask-type:alpha" maskUnits="userSpaceOnUse" x="6" y="4" width="6" height="10">
<path d="M6.75209 11.9042L9.66209 8.99425L6.75209 6.08425C6.45959 5.79175 6.45959 5.31925 6.75209 5.02675C7.04459 4.73425 7.51709 4.73425 7.80959 5.02675L11.2521 8.46925C11.5446 8.76175 11.5446 9.23425 11.2521 9.52675L7.80959 12.9692C7.51709 13.2617 7.04459 13.2617 6.75209 12.9692C6.46709 12.6767 6.45959 12.1967 6.75209 11.9042Z" fill="white"/>
</mask>
<g mask="url(#mask0_2529_27301)">
<rect width="18" height="18" fill="#00AB4E"/>
</g>
</svg>
