<svg width="24" height="24" viewBox="0 0 24 24" fill="none" xmlns="http://www.w3.org/2000/svg">
<path d="M15.0025 15.8725L11.1225 11.9925L15.0025 8.11253C15.3925 7.72253 15.3925 7.09253 15.0025 6.70253C14.6125 6.31253 13.9825 6.31253 13.5925 6.70253L9.00246 11.2925C8.61246 11.6825 8.61246 12.3125 9.00246 12.7025L13.5925 17.2925C13.9825 17.6825 14.6125 17.6825 15.0025 17.2925C15.3825 16.9025 15.3925 16.2625 15.0025 15.8725Z" fill="#252528"/>
<mask id="mask0" mask-type="alpha" maskUnits="userSpaceOnUse" x="8" y="6" width="8" height="12">
<path d="M15.0025 15.8725L11.1225 11.9925L15.0025 8.11253C15.3925 7.72253 15.3925 7.09253 15.0025 6.70253C14.6125 6.31253 13.9825 6.31253 13.5925 6.70253L9.00246 11.2925C8.61246 11.6825 8.61246 12.3125 9.00246 12.7025L13.5925 17.2925C13.9825 17.6825 14.6125 17.6825 15.0025 17.2925C15.3825 16.9025 15.3925 16.2625 15.0025 15.8725Z" fill="white"/>
</mask>
<g mask="url(#mask0)">
<rect width="24" height="24" fill="#58585B"/>
</g>
</svg>
