<svg width="30" height="30" viewBox="0 0 30 30" fill="none" xmlns="http://www.w3.org/2000/svg">
<path d="M10.1531 12.1281L15.0031 16.9781L19.8531 12.1281C20.3406 11.6406 21.1281 11.6406 21.6156 12.1281C22.1031 12.6156 22.1031 13.4031 21.6156 13.8906L15.8781 19.6281C15.3906 20.1156 14.6031 20.1156 14.1156 19.6281L8.37814 13.8906C7.89064 13.4031 7.89064 12.6156 8.37814 12.1281C8.86564 11.6531 9.66564 11.6406 10.1531 12.1281Z" fill="#252528"/>
<mask id="mask0" mask-type="alpha" maskUnits="userSpaceOnUse" x="8" y="11" width="14" height="9">
<path d="M10.1531 12.1281L15.0031 16.9781L19.8531 12.1281C20.3406 11.6406 21.1281 11.6406 21.6156 12.1281C22.1031 12.6156 22.1031 13.4031 21.6156 13.8906L15.8781 19.6281C15.3906 20.1156 14.6031 20.1156 14.1156 19.6281L8.37814 13.8906C7.89064 13.4031 7.89064 12.6156 8.37814 12.1281C8.86564 11.6531 9.66564 11.6406 10.1531 12.1281Z" fill="white"/>
</mask>
<g mask="url(#mask0)">
<rect width="30" height="30" fill="#58585B"/>
</g>
</svg>
