<svg width="16" height="16" viewBox="0 0 16 16" fill="none" xmlns="http://www.w3.org/2000/svg">
<path fill-rule="evenodd" clip-rule="evenodd" d="M4.711 2H4.97303L5.22348 2.00137C5.79009 2.00607 6.23315 2.02097 6.57348 2.03876C7.15272 2.06946 7.61458 2.53131 7.64527 3.11055L7.6527 3.26276C7.67071 3.6593 7.68421 4.17719 7.68421 4.84202L7.68266 5.22348C7.67796 5.79009 7.66306 6.23315 7.64527 6.57348C7.61458 7.15272 7.15272 7.61458 6.57348 7.64527L6.42128 7.6527C6.02473 7.67071 5.50684 7.68421 4.84202 7.68421L4.46055 7.68266C3.89395 7.67796 3.45088 7.66306 3.11055 7.64527C2.53131 7.61458 2.06946 7.15272 2.03876 6.57348L2.03134 6.42128C2.01452 6.05117 2.00164 5.57535 2 4.97303V4.711C2.00188 4.02263 2.01843 3.4995 2.03876 3.11055C2.06946 2.53131 2.53131 2.06946 3.11055 2.03876L3.26276 2.03134C3.63286 2.01452 4.10868 2.00164 4.711 2ZM4.7547 2.94737H4.92939L5.09636 2.94828C5.47409 2.95142 5.76947 2.96135 5.99636 2.97321C6.38251 2.99367 6.69042 3.30158 6.71088 3.68774L6.71583 3.78921C6.72784 4.05357 6.73684 4.39883 6.73684 4.84205L6.73581 5.09636C6.73267 5.47409 6.72274 5.76947 6.71088 5.99636C6.69042 6.38251 6.38251 6.69042 5.99636 6.71088L5.89489 6.71583C5.63052 6.72784 5.28526 6.73684 4.84205 6.73684L4.58773 6.73581C4.21 6.73267 3.91462 6.72274 3.68774 6.71088C3.30158 6.69042 2.99367 6.38251 2.97321 5.99636L2.96826 5.89489C2.95705 5.64815 2.94846 5.33094 2.94737 4.92939V4.7547C2.94862 4.29579 2.95966 3.94703 2.97321 3.68774C2.99367 3.30158 3.30158 2.99367 3.68774 2.97321L3.78921 2.96826C4.03594 2.95705 4.35316 2.94846 4.7547 2.94737ZM4.711 8.31579H4.97303L5.22348 8.31716C5.79009 8.32186 6.23315 8.33676 6.57348 8.35455C7.15272 8.38525 7.61458 8.8471 7.64527 9.42634L7.6527 9.57855C7.67071 9.97509 7.68421 10.493 7.68421 11.1578L7.68266 11.5393C7.67796 12.1059 7.66306 12.5489 7.64527 12.8893C7.61458 13.4685 7.15272 13.9304 6.57348 13.9611L6.42128 13.9685C6.02473 13.9865 5.50684 14 4.84202 14L4.46055 13.9985C3.89395 13.9937 3.45088 13.9789 3.11055 13.9611C2.53131 13.9304 2.06946 13.4685 2.03876 12.8893L2.03134 12.7371C2.01452 12.367 2.00164 11.8911 2 11.2888V11.0268C2.00188 10.3384 2.01843 9.81529 2.03876 9.42634C2.06946 8.8471 2.53131 8.38525 3.11055 8.35455L3.26276 8.34712C3.63286 8.33031 4.10868 8.31743 4.711 8.31579ZM3.78921 9.28405C4.03594 9.27284 4.35316 9.26425 4.7547 9.26316H4.92939L5.09636 9.26407C5.47409 9.26721 5.76947 9.27714 5.99636 9.289C6.38251 9.30946 6.69042 9.61737 6.71088 10.0035L6.71583 10.105C6.72784 10.3694 6.73684 10.7146 6.73684 11.1578L6.73581 11.4121C6.73267 11.7899 6.72274 12.0853 6.71088 12.3121C6.69042 12.6983 6.38251 13.0062 5.99636 13.0267L5.89489 13.0316C5.63052 13.0436 5.28526 13.0526 4.84205 13.0526L4.58773 13.0516C4.21 13.0485 3.91462 13.0385 3.68774 13.0267C3.30158 13.0062 2.99367 12.6983 2.97321 12.3121L2.96826 12.2107C2.95705 11.9639 2.94846 11.6467 2.94737 11.2452V11.0705C2.94862 10.6116 2.95966 10.2628 2.97321 10.0035C2.99367 9.61737 3.30158 9.30946 3.68774 9.289L3.78921 9.28405ZM11.2888 2H11.0268C10.4245 2.00164 9.94865 2.01452 9.57855 2.03134L9.42634 2.03876C8.8471 2.06946 8.38525 2.53131 8.35455 3.11055C8.33422 3.4995 8.31767 4.02263 8.31579 4.711V4.97303C8.31743 5.57535 8.33031 6.05117 8.34712 6.42128L8.35455 6.57348C8.38525 7.15272 8.8471 7.61458 9.42634 7.64527C9.76667 7.66306 10.2097 7.67796 10.7763 7.68266L11.1578 7.68421C11.8226 7.68421 12.3405 7.67071 12.7371 7.6527L12.8893 7.64527C13.4685 7.61458 13.9304 7.15272 13.9611 6.57348C13.9789 6.23315 13.9937 5.79009 13.9985 5.22348L14 4.84202C14 4.17719 13.9865 3.6593 13.9685 3.26276L13.9611 3.11055C13.9304 2.53131 13.4685 2.06946 12.8893 2.03876C12.5489 2.02097 12.1059 2.00607 11.5393 2.00137L11.2888 2ZM11.2452 2.94737H11.0705C10.6689 2.94846 10.3517 2.95705 10.105 2.96826L10.0035 2.97321C9.61737 2.99367 9.30946 3.30158 9.289 3.68774C9.27544 3.94703 9.26441 4.29579 9.26316 4.7547V4.92939C9.26425 5.33094 9.27284 5.64815 9.28405 5.89489L9.289 5.99636C9.30946 6.38251 9.61737 6.69042 10.0035 6.71088C10.2304 6.72274 10.5258 6.73267 10.9035 6.73581L11.1578 6.73684C11.6011 6.73684 11.9463 6.72784 12.2107 6.71583L12.3121 6.71088C12.6983 6.69042 13.0062 6.38251 13.0267 5.99636C13.0385 5.76947 13.0485 5.47409 13.0516 5.09636L13.0526 4.84205C13.0526 4.39883 13.0436 4.05357 13.0316 3.78921L13.0267 3.68774C13.0062 3.30158 12.6983 2.99367 12.3121 2.97321C12.0853 2.96135 11.7899 2.95142 11.4121 2.94828L11.2452 2.94737ZM9.57855 8.34712C9.94865 8.33031 10.4245 8.31743 11.0268 8.31579H11.2888L11.5393 8.31716C12.1059 8.32186 12.5489 8.33676 12.8893 8.35455C13.4685 8.38525 13.9304 8.8471 13.9611 9.42634L13.9685 9.57855C13.9865 9.97509 14 10.493 14 11.1578L13.9985 11.5393C13.9937 12.1059 13.9789 12.5489 13.9611 12.8893C13.9304 13.4685 13.4685 13.9304 12.8893 13.9611L12.7371 13.9685C12.3405 13.9865 11.8226 14 11.1578 14L10.7763 13.9985C10.2097 13.9937 9.76667 13.9789 9.42634 13.9611C8.8471 13.9304 8.38525 13.4685 8.35455 12.8893L8.34712 12.7371C8.33031 12.367 8.31743 11.8911 8.31579 11.2888V11.0268C8.31767 10.3384 8.33422 9.81529 8.35455 9.42634C8.38525 8.8471 8.8471 8.38525 9.42634 8.35455L9.57855 8.34712ZM10.105 9.28405C10.3517 9.27284 10.6689 9.26425 11.0705 9.26316H11.2452L11.4121 9.26407C11.7899 9.26721 12.0853 9.27714 12.3121 9.289C12.6983 9.30946 13.0062 9.61737 13.0267 10.0035L13.0316 10.105C13.0436 10.3694 13.0526 10.7146 13.0526 11.1578L13.0516 11.4121C13.0485 11.7899 13.0385 12.0853 13.0267 12.3121C13.0062 12.6983 12.6983 13.0062 12.3121 13.0267L12.2107 13.0316C11.9463 13.0436 11.6011 13.0526 11.1578 13.0526L10.9035 13.0516C10.5258 13.0485 10.2304 13.0385 10.0035 13.0267C9.61737 13.0062 9.30946 12.6983 9.289 12.3121L9.28405 12.2107C9.27284 11.9639 9.26425 11.6467 9.26316 11.2452V11.0705C9.26441 10.6116 9.27544 10.2628 9.289 10.0035C9.30946 9.61737 9.61737 9.30946 10.0035 9.289L10.105 9.28405Z" fill="#A0A2A8"/>
<mask id="mask0" mask-type="alpha" maskUnits="userSpaceOnUse" x="2" y="2" width="12" height="12">
<path fill-rule="evenodd" clip-rule="evenodd" d="M4.711 2H4.97303L5.22348 2.00137C5.79009 2.00607 6.23315 2.02097 6.57348 2.03876C7.15272 2.06946 7.61458 2.53131 7.64527 3.11055L7.6527 3.26276C7.67071 3.6593 7.68421 4.17719 7.68421 4.84202L7.68266 5.22348C7.67796 5.79009 7.66306 6.23315 7.64527 6.57348C7.61458 7.15272 7.15272 7.61458 6.57348 7.64527L6.42128 7.6527C6.02473 7.67071 5.50684 7.68421 4.84202 7.68421L4.46055 7.68266C3.89395 7.67796 3.45088 7.66306 3.11055 7.64527C2.53131 7.61458 2.06946 7.15272 2.03876 6.57348L2.03134 6.42128C2.01452 6.05117 2.00164 5.57535 2 4.97303V4.711C2.00188 4.02263 2.01843 3.4995 2.03876 3.11055C2.06946 2.53131 2.53131 2.06946 3.11055 2.03876L3.26276 2.03134C3.63286 2.01452 4.10868 2.00164 4.711 2ZM4.7547 2.94737H4.92939L5.09636 2.94828C5.47409 2.95142 5.76947 2.96135 5.99636 2.97321C6.38251 2.99367 6.69042 3.30158 6.71088 3.68774L6.71583 3.78921C6.72784 4.05357 6.73684 4.39883 6.73684 4.84205L6.73581 5.09636C6.73267 5.47409 6.72274 5.76947 6.71088 5.99636C6.69042 6.38251 6.38251 6.69042 5.99636 6.71088L5.89489 6.71583C5.63052 6.72784 5.28526 6.73684 4.84205 6.73684L4.58773 6.73581C4.21 6.73267 3.91462 6.72274 3.68774 6.71088C3.30158 6.69042 2.99367 6.38251 2.97321 5.99636L2.96826 5.89489C2.95705 5.64815 2.94846 5.33094 2.94737 4.92939V4.7547C2.94862 4.29579 2.95966 3.94703 2.97321 3.68774C2.99367 3.30158 3.30158 2.99367 3.68774 2.97321L3.78921 2.96826C4.03594 2.95705 4.35316 2.94846 4.7547 2.94737ZM4.711 8.31579H4.97303L5.22348 8.31716C5.79009 8.32186 6.23315 8.33676 6.57348 8.35455C7.15272 8.38525 7.61458 8.8471 7.64527 9.42634L7.6527 9.57855C7.67071 9.97509 7.68421 10.493 7.68421 11.1578L7.68266 11.5393C7.67796 12.1059 7.66306 12.5489 7.64527 12.8893C7.61458 13.4685 7.15272 13.9304 6.57348 13.9611L6.42128 13.9685C6.02473 13.9865 5.50684 14 4.84202 14L4.46055 13.9985C3.89395 13.9937 3.45088 13.9789 3.11055 13.9611C2.53131 13.9304 2.06946 13.4685 2.03876 12.8893L2.03134 12.7371C2.01452 12.367 2.00164 11.8911 2 11.2888V11.0268C2.00188 10.3384 2.01843 9.81529 2.03876 9.42634C2.06946 8.8471 2.53131 8.38525 3.11055 8.35455L3.26276 8.34712C3.63286 8.33031 4.10868 8.31743 4.711 8.31579ZM3.78921 9.28405C4.03594 9.27284 4.35316 9.26425 4.7547 9.26316H4.92939L5.09636 9.26407C5.47409 9.26721 5.76947 9.27714 5.99636 9.289C6.38251 9.30946 6.69042 9.61737 6.71088 10.0035L6.71583 10.105C6.72784 10.3694 6.73684 10.7146 6.73684 11.1578L6.73581 11.4121C6.73267 11.7899 6.72274 12.0853 6.71088 12.3121C6.69042 12.6983 6.38251 13.0062 5.99636 13.0267L5.89489 13.0316C5.63052 13.0436 5.28526 13.0526 4.84205 13.0526L4.58773 13.0516C4.21 13.0485 3.91462 13.0385 3.68774 13.0267C3.30158 13.0062 2.99367 12.6983 2.97321 12.3121L2.96826 12.2107C2.95705 11.9639 2.94846 11.6467 2.94737 11.2452V11.0705C2.94862 10.6116 2.95966 10.2628 2.97321 10.0035C2.99367 9.61737 3.30158 9.30946 3.68774 9.289L3.78921 9.28405ZM11.2888 2H11.0268C10.4245 2.00164 9.94865 2.01452 9.57855 2.03134L9.42634 2.03876C8.8471 2.06946 8.38525 2.53131 8.35455 3.11055C8.33422 3.4995 8.31767 4.02263 8.31579 4.711V4.97303C8.31743 5.57535 8.33031 6.05117 8.34712 6.42128L8.35455 6.57348C8.38525 7.15272 8.8471 7.61458 9.42634 7.64527C9.76667 7.66306 10.2097 7.67796 10.7763 7.68266L11.1578 7.68421C11.8226 7.68421 12.3405 7.67071 12.7371 7.6527L12.8893 7.64527C13.4685 7.61458 13.9304 7.15272 13.9611 6.57348C13.9789 6.23315 13.9937 5.79009 13.9985 5.22348L14 4.84202C14 4.17719 13.9865 3.6593 13.9685 3.26276L13.9611 3.11055C13.9304 2.53131 13.4685 2.06946 12.8893 2.03876C12.5489 2.02097 12.1059 2.00607 11.5393 2.00137L11.2888 2ZM11.2452 2.94737H11.0705C10.6689 2.94846 10.3517 2.95705 10.105 2.96826L10.0035 2.97321C9.61737 2.99367 9.30946 3.30158 9.289 3.68774C9.27544 3.94703 9.26441 4.29579 9.26316 4.7547V4.92939C9.26425 5.33094 9.27284 5.64815 9.28405 5.89489L9.289 5.99636C9.30946 6.38251 9.61737 6.69042 10.0035 6.71088C10.2304 6.72274 10.5258 6.73267 10.9035 6.73581L11.1578 6.73684C11.6011 6.73684 11.9463 6.72784 12.2107 6.71583L12.3121 6.71088C12.6983 6.69042 13.0062 6.38251 13.0267 5.99636C13.0385 5.76947 13.0485 5.47409 13.0516 5.09636L13.0526 4.84205C13.0526 4.39883 13.0436 4.05357 13.0316 3.78921L13.0267 3.68774C13.0062 3.30158 12.6983 2.99367 12.3121 2.97321C12.0853 2.96135 11.7899 2.95142 11.4121 2.94828L11.2452 2.94737ZM9.57855 8.34712C9.94865 8.33031 10.4245 8.31743 11.0268 8.31579H11.2888L11.5393 8.31716C12.1059 8.32186 12.5489 8.33676 12.8893 8.35455C13.4685 8.38525 13.9304 8.8471 13.9611 9.42634L13.9685 9.57855C13.9865 9.97509 14 10.493 14 11.1578L13.9985 11.5393C13.9937 12.1059 13.9789 12.5489 13.9611 12.8893C13.9304 13.4685 13.4685 13.9304 12.8893 13.9611L12.7371 13.9685C12.3405 13.9865 11.8226 14 11.1578 14L10.7763 13.9985C10.2097 13.9937 9.76667 13.9789 9.42634 13.9611C8.8471 13.9304 8.38525 13.4685 8.35455 12.8893L8.34712 12.7371C8.33031 12.367 8.31743 11.8911 8.31579 11.2888V11.0268C8.31767 10.3384 8.33422 9.81529 8.35455 9.42634C8.38525 8.8471 8.8471 8.38525 9.42634 8.35455L9.57855 8.34712ZM10.105 9.28405C10.3517 9.27284 10.6689 9.26425 11.0705 9.26316H11.2452L11.4121 9.26407C11.7899 9.26721 12.0853 9.27714 12.3121 9.289C12.6983 9.30946 13.0062 9.61737 13.0267 10.0035L13.0316 10.105C13.0436 10.3694 13.0526 10.7146 13.0526 11.1578L13.0516 11.4121C13.0485 11.7899 13.0385 12.0853 13.0267 12.3121C13.0062 12.6983 12.6983 13.0062 12.3121 13.0267L12.2107 13.0316C11.9463 13.0436 11.6011 13.0526 11.1578 13.0526L10.9035 13.0516C10.5258 13.0485 10.2304 13.0385 10.0035 13.0267C9.61737 13.0062 9.30946 12.6983 9.289 12.3121L9.28405 12.2107C9.27284 11.9639 9.26425 11.6467 9.26316 11.2452V11.0705C9.26441 10.6116 9.27544 10.2628 9.289 10.0035C9.30946 9.61737 9.61737 9.30946 10.0035 9.289L10.105 9.28405Z" fill="white"/>
</mask>
<g mask="url(#mask0)">
<rect width="16" height="16" fill="#00AB4E"/>
</g>
</svg>
