<svg width="48" height="48" viewBox="0 0 48 48" fill="none" xmlns="http://www.w3.org/2000/svg">
<path fill-rule="evenodd" clip-rule="evenodd" d="M34.2078 6C29.3871 6 25.4746 9.9125 25.4746 14.7333C25.4746 19.554 29.3871 23.4665 34.2078 23.4665C39.0286 23.4665 42.9411 19.554 42.9411 14.7333C42.9411 9.9125 39.0286 6 34.2078 6ZM37.7011 15.6066H35.0812V18.2266C35.0812 18.7069 34.6882 19.0999 34.2078 19.0999C33.7275 19.0999 33.3345 18.7069 33.3345 18.2266V15.6066H30.7145C30.2342 15.6066 29.8412 15.2136 29.8412 14.7333C29.8412 14.2529 30.2342 13.8599 30.7145 13.8599H33.3345V11.24C33.3345 10.7596 33.7275 10.3666 34.2078 10.3666C34.6882 10.3666 35.0812 10.7596 35.0812 11.24V13.8599H37.7011C38.1815 13.8599 38.5745 14.2529 38.5745 14.7333C38.5745 15.2136 38.1815 15.6066 37.7011 15.6066ZM21.4665 12.1897C22.4302 12.1897 23.3631 12.1968 24.2652 12.2104C24.0783 12.9422 23.97 13.7053 23.9497 14.4902C23.7441 14.4874 23.5369 14.485 23.3281 14.4829L21.4665 14.4738C16.1184 14.4738 11.745 14.6943 8.32302 15.0378C7.46434 15.1239 6.74071 15.9401 6.63795 17.0402C6.38514 19.744 6.22977 23.0809 6.22977 27.0363C6.22977 30.9926 6.38508 34.3279 6.63794 37.0322C6.74071 38.1324 7.46434 38.9486 8.32289 39.0347C11.7204 39.3779 16.1088 39.5987 21.4665 39.5987L22.4076 39.5964C26.7512 39.5751 30.4239 39.4061 33.4268 39.1457L34.6728 39.0287C35.5287 38.942 36.2521 38.1181 36.3544 37.0078C36.5727 34.6461 36.7033 31.3688 36.7033 27.0363L36.702 26.2826C36.7001 25.7569 36.6962 25.2476 36.6903 24.7543C37.4682 24.5636 38.2114 24.2844 38.9087 23.928C38.9247 24.8997 38.9331 25.935 38.9331 27.0363L38.9317 27.8019C38.9189 31.3241 38.8173 34.1382 38.65 36.3242L38.5743 37.2228C38.3759 39.3757 36.8599 41.1025 34.8924 41.3017C31.4056 41.6556 26.9309 41.8828 21.4665 41.8828L20.5182 41.8805C16.1398 41.859 12.4197 41.6892 9.37053 41.4261L8.10485 41.3078C6.13934 41.1107 4.61876 39.3956 4.41832 37.2498C4.1587 34.4732 4 31.0653 4 27.0363C4 23.0083 4.15876 19.5986 4.41833 16.8226C4.61876 14.6769 6.13934 12.9618 8.10564 12.7646C11.1885 12.4551 15.0126 12.2442 19.5937 12.1989L21.4665 12.1897ZM23.8257 23.6892L23.9866 23.5263L24.1666 23.3731C25.2746 22.5136 26.8615 22.7222 27.7316 23.9194L33.9258 32.4405L34.0457 32.6191C35.0922 34.3115 34.1254 36.6867 32.1399 36.8888C29.5713 37.1548 26.0303 37.3146 21.3818 37.3146L20.7497 37.3136L19.2123 37.3022C15.7276 37.2611 12.9569 37.1204 10.8171 36.9089C8.69293 36.6977 7.72954 34.0341 9.08955 32.348L12.2936 28.3821L12.4517 28.2032C13.327 27.2967 14.6963 27.1557 15.7235 27.9117L18.0739 29.6359L18.1523 29.6783C18.2598 29.7173 18.3757 29.6861 18.4685 29.5836L23.8257 23.6892ZM25.8812 25.2142L25.9431 25.2835L32.1373 33.8045C32.3688 34.1231 32.1924 34.5881 31.9175 34.6161C29.7035 34.8454 26.7179 34.9945 22.868 35.0248L20.755 35.0295L19.243 35.0183C15.8177 34.978 13.1073 34.8406 11.0319 34.6354C10.7648 34.6089 10.5941 34.208 10.7453 33.9015L10.8079 33.8035L14.0109 29.8389C14.1058 29.7216 14.2278 29.6835 14.3411 29.7233L14.4239 29.7676L16.7773 31.4942C17.7565 32.2096 19.0531 32.1196 19.9318 31.31L20.1018 31.1386L25.4586 25.2447C25.5582 25.1348 25.6852 25.1061 25.799 25.1591L25.8812 25.2142ZM13.2907 16.3772C15.753 16.3772 17.7502 18.4231 17.7502 20.9454C17.7502 23.4686 15.7532 25.5135 13.2907 25.5135C10.8273 25.5135 8.83117 23.4688 8.83117 20.9454C8.83117 18.4229 10.8275 16.3772 13.2907 16.3772ZM13.2907 18.6613C12.0588 18.6613 11.0609 19.6845 11.0609 20.9454C11.0609 22.2073 12.0588 23.2294 13.2907 23.2294C14.5215 23.2294 15.5205 22.2073 15.5205 20.9454C15.5205 19.6845 14.5215 18.6613 13.2907 18.6613Z" fill="#70717D"/>
<mask id="mask0_7041_112070" style="mask-type:alpha" maskUnits="userSpaceOnUse" x="4" y="6" width="39" height="36">
<path fill-rule="evenodd" clip-rule="evenodd" d="M34.2078 6C29.3871 6 25.4746 9.9125 25.4746 14.7333C25.4746 19.554 29.3871 23.4665 34.2078 23.4665C39.0286 23.4665 42.9411 19.554 42.9411 14.7333C42.9411 9.9125 39.0286 6 34.2078 6ZM37.7011 15.6066H35.0812V18.2266C35.0812 18.7069 34.6882 19.0999 34.2078 19.0999C33.7275 19.0999 33.3345 18.7069 33.3345 18.2266V15.6066H30.7145C30.2342 15.6066 29.8412 15.2136 29.8412 14.7333C29.8412 14.2529 30.2342 13.8599 30.7145 13.8599H33.3345V11.24C33.3345 10.7596 33.7275 10.3666 34.2078 10.3666C34.6882 10.3666 35.0812 10.7596 35.0812 11.24V13.8599H37.7011C38.1815 13.8599 38.5745 14.2529 38.5745 14.7333C38.5745 15.2136 38.1815 15.6066 37.7011 15.6066ZM21.4665 12.1897C22.4302 12.1897 23.3631 12.1968 24.2652 12.2104C24.0783 12.9422 23.97 13.7053 23.9497 14.4902C23.7441 14.4874 23.5369 14.485 23.3281 14.4829L21.4665 14.4738C16.1184 14.4738 11.745 14.6943 8.32302 15.0378C7.46434 15.1239 6.74071 15.9401 6.63795 17.0402C6.38514 19.744 6.22977 23.0809 6.22977 27.0363C6.22977 30.9926 6.38508 34.3279 6.63794 37.0322C6.74071 38.1324 7.46434 38.9486 8.32289 39.0347C11.7204 39.3779 16.1088 39.5987 21.4665 39.5987L22.4076 39.5964C26.7512 39.5751 30.4239 39.4061 33.4268 39.1457L34.6728 39.0287C35.5287 38.942 36.2521 38.1181 36.3544 37.0078C36.5727 34.6461 36.7033 31.3688 36.7033 27.0363L36.702 26.2826C36.7001 25.7569 36.6962 25.2476 36.6903 24.7543C37.4682 24.5636 38.2114 24.2844 38.9087 23.928C38.9247 24.8997 38.9331 25.935 38.9331 27.0363L38.9317 27.8019C38.9189 31.3241 38.8173 34.1382 38.65 36.3242L38.5743 37.2228C38.3759 39.3757 36.8599 41.1025 34.8924 41.3017C31.4056 41.6556 26.9309 41.8828 21.4665 41.8828L20.5182 41.8805C16.1398 41.859 12.4197 41.6892 9.37053 41.4261L8.10485 41.3078C6.13934 41.1107 4.61876 39.3956 4.41832 37.2498C4.1587 34.4732 4 31.0653 4 27.0363C4 23.0083 4.15876 19.5986 4.41833 16.8226C4.61876 14.6769 6.13934 12.9618 8.10564 12.7646C11.1885 12.4551 15.0126 12.2442 19.5937 12.1989L21.4665 12.1897ZM23.8257 23.6892L23.9866 23.5263L24.1666 23.3731C25.2746 22.5136 26.8615 22.7222 27.7316 23.9194L33.9258 32.4405L34.0457 32.6191C35.0922 34.3115 34.1254 36.6867 32.1399 36.8888C29.5713 37.1548 26.0303 37.3146 21.3818 37.3146L20.7497 37.3136L19.2123 37.3022C15.7276 37.2611 12.9569 37.1204 10.8171 36.9089C8.69293 36.6977 7.72954 34.0341 9.08955 32.348L12.2936 28.3821L12.4517 28.2032C13.327 27.2967 14.6963 27.1557 15.7235 27.9117L18.0739 29.6359L18.1523 29.6783C18.2598 29.7173 18.3757 29.6861 18.4685 29.5836L23.8257 23.6892ZM25.8812 25.2142L25.9431 25.2835L32.1373 33.8045C32.3688 34.1231 32.1924 34.5881 31.9175 34.6161C29.7035 34.8454 26.7179 34.9945 22.868 35.0248L20.755 35.0295L19.243 35.0183C15.8177 34.978 13.1073 34.8406 11.0319 34.6354C10.7648 34.6089 10.5941 34.208 10.7453 33.9015L10.8079 33.8035L14.0109 29.8389C14.1058 29.7216 14.2278 29.6835 14.3411 29.7233L14.4239 29.7676L16.7773 31.4942C17.7565 32.2096 19.0531 32.1196 19.9318 31.31L20.1018 31.1386L25.4586 25.2447C25.5582 25.1348 25.6852 25.1061 25.799 25.1591L25.8812 25.2142ZM13.2907 16.3772C15.753 16.3772 17.7502 18.4231 17.7502 20.9454C17.7502 23.4686 15.7532 25.5135 13.2907 25.5135C10.8273 25.5135 8.83117 23.4688 8.83117 20.9454C8.83117 18.4229 10.8275 16.3772 13.2907 16.3772ZM13.2907 18.6613C12.0588 18.6613 11.0609 19.6845 11.0609 20.9454C11.0609 22.2073 12.0588 23.2294 13.2907 23.2294C14.5215 23.2294 15.5205 22.2073 15.5205 20.9454C15.5205 19.6845 14.5215 18.6613 13.2907 18.6613Z" fill="white"/>
</mask>
<g mask="url(#mask0_7041_112070)">
<rect width="48" height="48" fill="#58585B"/>
</g>
</svg>
