<svg width="24" height="24" viewBox="0 0 24 24" fill="none" xmlns="http://www.w3.org/2000/svg">
<path fill-rule="evenodd" clip-rule="evenodd" d="M20.71 5.63006C21.1 6.02006 21.1 6.65006 20.71 7.04006L18.88 8.87006L15.13 5.12006L16.96 3.29006C17.35 2.90006 17.98 2.90006 18.37 3.29006L20.71 5.63006ZM3.5 21.0001C3.22386 21.0001 3 20.7762 3 20.5001V18.0922C3 17.5622 3.21036 17.0539 3.58486 16.6789L14.06 6.19006L17.81 9.94006L7.31663 20.4155C6.94166 20.7898 6.43347 21.0001 5.90363 21.0001H3.5Z" fill="black"/>
<mask id="mask0_5070_48517" style="mask-type:alpha" maskUnits="userSpaceOnUse" x="3" y="2" width="19" height="19">
<path fill-rule="evenodd" clip-rule="evenodd" d="M20.71 5.63006C21.1 6.02006 21.1 6.65006 20.71 7.04006L18.88 8.87006L15.13 5.12006L16.96 3.29006C17.35 2.90006 17.98 2.90006 18.37 3.29006L20.71 5.63006ZM3.5 21.0001C3.22386 21.0001 3 20.7762 3 20.5001V18.0922C3 17.5622 3.21036 17.0539 3.58486 16.6789L14.06 6.19006L17.81 9.94006L7.31663 20.4155C6.94166 20.7898 6.43347 21.0001 5.90363 21.0001H3.5Z" fill="white"/>
</mask>
<g mask="url(#mask0_5070_48517)">
<rect width="24" height="24" fill="#58585B"/>
</g>
</svg>
