<svg width="16" height="16" viewBox="0 0 16 16" fill="none" xmlns="http://www.w3.org/2000/svg">
<path fill-rule="evenodd" clip-rule="evenodd" d="M7.99984 2L8.14913 2.00211C11.0258 2.08346 13.3332 4.5086 13.3332 7.48889C13.3332 10.5617 9.78774 14.6667 7.99984 14.6667C6.21193 14.6667 2.6665 10.5617 2.6665 7.48889C2.6665 4.5086 4.97383 2.08346 7.85054 2.00211L7.99984 2ZM7.99984 2.84444L7.86186 2.84657C5.43311 2.92162 3.48702 4.97109 3.48702 7.48889C3.48702 8.89479 4.22914 10.457 5.43467 11.8528C6.40764 12.9793 7.57763 13.8222 7.99984 13.8222C8.42204 13.8222 9.59203 12.9793 10.565 11.8528C11.7705 10.457 12.5127 8.89479 12.5127 7.48889C12.5127 4.97109 10.5666 2.92162 8.13782 2.84657L7.99984 2.84444ZM7.99984 4.81482C9.43476 4.81482 10.5981 6.01212 10.5981 7.48889C10.5981 8.92464 9.49849 10.0962 8.11877 10.1602L7.99984 10.163L7.88091 10.1602C6.50118 10.0962 5.40155 8.92464 5.40155 7.48889C5.40155 6.01212 6.56492 4.81482 7.99984 4.81482ZM7.99984 5.65926C7.01807 5.65926 6.22206 6.47849 6.22206 7.48889C6.22206 8.46445 6.96412 9.26179 7.89896 9.31562L7.99984 9.31852L8.10071 9.31562C9.00216 9.26371 9.72436 8.52045 9.7748 7.59271L9.77762 7.48889C9.77762 6.47849 8.9816 5.65926 7.99984 5.65926Z" fill="#70717D"/>
<path d="M7.99984 2L8.00337 1.74993L7.99631 1.75002L7.99984 2ZM8.14913 2.00211L8.1562 1.75218L8.15266 1.75213L8.14913 2.00211ZM7.85054 2.00211L7.84701 1.75211L7.84348 1.75221L7.85054 2.00211ZM7.99984 2.84444L8.0037 2.59436L7.99598 2.59447L7.99984 2.84444ZM7.86186 2.84657L7.858 2.59657L7.85413 2.59669L7.86186 2.84657ZM5.43467 11.8528L5.62387 11.6894L5.43467 11.8528ZM10.565 11.8528L10.3758 11.6894L10.565 11.8528ZM8.13782 2.84657L8.14554 2.59666L8.14168 2.5966L8.13782 2.84657ZM8.11877 10.1602L8.12455 10.4102L8.13035 10.4099L8.11877 10.1602ZM7.99984 10.163L7.99405 10.4132L8.00562 10.4129L7.99984 10.163ZM7.88091 10.1602L7.86932 10.41L7.87512 10.4101L7.88091 10.1602ZM7.89896 9.31562L7.88459 9.56531L7.89179 9.56552L7.89896 9.31562ZM7.99984 9.31852L7.99266 9.56842L7.99984 9.56862L8.00701 9.56842L7.99984 9.31852ZM8.10071 9.31562L8.10789 9.56562L8.11508 9.56521L8.10071 9.31562ZM9.7748 7.59271L10.0245 7.60628L10.0247 7.59948L9.7748 7.59271ZM9.77762 7.48889L10.0276 7.49567V7.48889H9.77762ZM7.99631 2.24998L8.1456 2.25208L8.15266 1.75213L8.00337 1.75002L7.99631 2.24998ZM8.14206 2.25201C10.8774 2.32936 13.0832 4.63776 13.0832 7.48889H13.5832C13.5832 4.37944 11.1742 1.83756 8.1562 1.75221L8.14206 2.25201ZM13.0832 7.48889C13.0832 8.94375 12.2357 10.6838 11.1405 12.0755C10.5964 12.767 10.001 13.3594 9.43855 13.7764C8.86669 14.2004 8.36432 14.4167 7.99984 14.4167V14.9167C8.5293 14.9167 9.14058 14.6198 9.73634 14.1781C10.3415 13.7294 10.9677 13.1036 11.5334 12.3847C12.658 10.9557 13.5832 9.10686 13.5832 7.48889H13.0832ZM7.99984 14.4167C7.63535 14.4167 7.13299 14.2004 6.56113 13.7764C5.99862 13.3594 5.40331 12.767 4.85917 12.0755C3.76401 10.6838 2.9165 8.94375 2.9165 7.48889H2.4165C2.4165 9.10686 3.34171 10.9557 4.46624 12.3847C5.03195 13.1036 5.65822 13.7294 6.26334 14.1781C6.85909 14.6198 7.47037 14.9167 7.99984 14.9167V14.4167ZM2.9165 7.48889C2.9165 4.63776 5.12224 2.32936 7.85761 2.25201L7.84348 1.75221C4.82542 1.83756 2.4165 4.37944 2.4165 7.48889H2.9165ZM7.85407 2.25208L8.00337 2.24998L7.99631 1.75002L7.84701 1.75213L7.85407 2.25208ZM7.99598 2.59447L7.858 2.5966L7.86571 3.09654L8.00369 3.09441L7.99598 2.59447ZM7.85413 2.59669C5.28437 2.67609 3.23702 4.84213 3.23702 7.48889H3.73702C3.73702 5.10006 5.58184 3.16714 7.86958 3.09645L7.85413 2.59669ZM3.23702 7.48889C3.23702 8.9773 4.01847 10.5956 5.24547 12.0162L5.62387 11.6894C4.4398 10.3185 3.73702 8.81229 3.73702 7.48889H3.23702ZM5.24547 12.0162C5.74322 12.5925 6.29191 13.0971 6.77342 13.4597C7.01395 13.6408 7.24185 13.7896 7.44164 13.8943C7.631 13.9936 7.82949 14.0722 7.99984 14.0722V13.5722C7.95909 13.5722 7.853 13.5455 7.67384 13.4515C7.5051 13.363 7.30053 13.2307 7.07416 13.0602C6.62189 12.7197 6.09909 12.2396 5.62387 11.6894L5.24547 12.0162ZM7.99984 14.0722C8.17019 14.0722 8.36867 13.9936 8.55804 13.8943C8.75782 13.7896 8.98573 13.6408 9.22626 13.4597C9.70777 13.0971 10.2565 12.5925 10.7542 12.0162L10.3758 11.6894C9.90059 12.2396 9.37779 12.7197 8.92551 13.0602C8.69914 13.2307 8.49458 13.363 8.32584 13.4515C8.14668 13.5455 8.04059 13.5722 7.99984 13.5722V14.0722ZM10.7542 12.0162C11.9812 10.5956 12.7627 8.9773 12.7627 7.48889H12.2627C12.2627 8.81229 11.5599 10.3185 10.3758 11.6894L10.7542 12.0162ZM12.7627 7.48889C12.7627 4.84213 10.7153 2.67609 8.14554 2.59669L8.1301 3.09645C10.4178 3.16714 12.2627 5.10006 12.2627 7.48889H12.7627ZM8.14168 2.5966L8.00369 2.59447L7.99598 3.09441L8.13396 3.09654L8.14168 2.5966ZM7.99984 5.06482C9.28996 5.06482 10.3481 6.14336 10.3481 7.48889H10.8481C10.8481 5.88087 9.57956 4.56482 7.99984 4.56482V5.06482ZM10.3481 7.48889C10.3481 8.79681 9.34783 9.85295 8.10719 9.91048L8.13035 10.4099C9.64916 10.3395 10.8481 9.05247 10.8481 7.48889H10.3481ZM8.11298 9.91028L7.99405 9.91303L8.00562 10.4129L8.12455 10.4101L8.11298 9.91028ZM8.00562 9.91303L7.88669 9.91028L7.87512 10.4101L7.99405 10.4129L8.00562 9.91303ZM7.89249 9.91048C6.65185 9.85295 5.65155 8.79681 5.65155 7.48889H5.15155C5.15155 9.05247 6.35052 10.3395 7.86933 10.4099L7.89249 9.91048ZM5.65155 7.48889C5.65155 6.14336 6.70971 5.06482 7.99984 5.06482V4.56482C6.42012 4.56482 5.15155 5.88087 5.15155 7.48889H5.65155ZM7.99984 5.40926C6.87328 5.40926 5.97206 6.34724 5.97206 7.48889H6.47206C6.47206 6.60974 7.16287 5.90926 7.99984 5.90926V5.40926ZM5.97206 7.48889C5.97206 8.59145 6.81207 9.50345 7.88459 9.56521L7.91333 9.06604C7.11617 9.02013 6.47206 8.33744 6.47206 7.48889H5.97206ZM7.89179 9.56552L7.99266 9.56842L8.00701 9.06862L7.90614 9.06572L7.89179 9.56552ZM8.00701 9.56842L8.10789 9.56552L8.09354 9.06572L7.99266 9.06862L8.00701 9.56842ZM8.11508 9.56521C9.14926 9.50566 9.9674 8.65537 10.0244 7.60628L9.52517 7.57913C9.48133 8.38553 8.85507 9.02177 8.08634 9.06604L8.11508 9.56521ZM10.0247 7.59948L10.0275 7.49566L9.52771 7.48211L9.52489 7.58593L10.0247 7.59948ZM10.0276 7.48889C10.0276 6.34724 9.1264 5.40926 7.99984 5.40926V5.90926C8.8368 5.90926 9.52762 6.60974 9.52762 7.48889H10.0276Z" fill="#58585B"/>
<mask id="mask0" style="mask-type:alpha" maskUnits="userSpaceOnUse" x="2" y="2" width="12" height="13">
<path fill-rule="evenodd" clip-rule="evenodd" d="M7.99984 2L8.14913 2.00211C11.0258 2.08346 13.3332 4.5086 13.3332 7.48889C13.3332 10.5617 9.78774 14.6667 7.99984 14.6667C6.21193 14.6667 2.6665 10.5617 2.6665 7.48889C2.6665 4.5086 4.97383 2.08346 7.85054 2.00211L7.99984 2ZM7.99984 2.84444L7.86186 2.84657C5.43311 2.92162 3.48702 4.97109 3.48702 7.48889C3.48702 8.89479 4.22914 10.457 5.43467 11.8528C6.40764 12.9793 7.57763 13.8222 7.99984 13.8222C8.42204 13.8222 9.59203 12.9793 10.565 11.8528C11.7705 10.457 12.5127 8.89479 12.5127 7.48889C12.5127 4.97109 10.5666 2.92162 8.13782 2.84657L7.99984 2.84444ZM7.99984 4.81482C9.43476 4.81482 10.5981 6.01212 10.5981 7.48889C10.5981 8.92464 9.49849 10.0962 8.11877 10.1602L7.99984 10.163L7.88091 10.1602C6.50118 10.0962 5.40155 8.92464 5.40155 7.48889C5.40155 6.01212 6.56492 4.81482 7.99984 4.81482ZM7.99984 5.65926C7.01807 5.65926 6.22206 6.47849 6.22206 7.48889C6.22206 8.46445 6.96412 9.26179 7.89896 9.31562L7.99984 9.31852L8.10071 9.31562C9.00216 9.26371 9.72436 8.52045 9.7748 7.59271L9.77762 7.48889C9.77762 6.47849 8.9816 5.65926 7.99984 5.65926Z" fill="white"/>
</mask>
<g mask="url(#mask0)">
<rect width="16" height="16" fill="#58585B"/>
</g>
</svg>
