<svg width="16" height="16" viewBox="0 0 16 16" fill="none" xmlns="http://www.w3.org/2000/svg">
<path fill-rule="evenodd" clip-rule="evenodd" d="M5.29496 4.65116C5.29496 3.18697 6.50603 2 7.99996 2C9.49389 2 10.705 3.18697 10.705 4.65116V5.39098C10.8909 5.39761 11.0682 5.40497 11.2371 5.41299L11.5939 5.43162C12.4541 5.48159 13.1605 6.04417 13.2286 6.79591C13.285 7.41909 13.3216 8.20608 13.3309 9.17482L13.3333 9.67442C13.3333 10.7041 13.3048 11.5485 13.2551 12.2273L13.2286 12.5529C13.1605 13.3048 12.4538 13.8674 11.5938 13.9167C10.8104 13.9621 9.81496 13.9914 8.58459 13.9984L7.99996 14C6.69721 14 5.63256 13.9768 4.78359 13.9365L4.407 13.9167C3.54672 13.8674 2.84007 13.3048 2.77198 12.5533C2.71512 11.9324 2.67833 11.1452 2.66898 10.1749L2.66663 9.67442C2.66663 8.64241 2.69532 7.79594 2.74524 7.11983L2.77194 6.79591C2.84005 6.04417 3.54642 5.48159 4.40701 5.43159C4.6782 5.41608 4.97382 5.40246 5.29496 5.39098V4.65116ZM9.85075 5.34884H7.99996H6.14917V4.65116C6.14917 3.64934 6.9778 2.83721 7.99996 2.83721L8.10498 2.84008C9.07828 2.89344 9.85075 3.68389 9.85075 4.65116V5.34884ZM9.02844 6.19132L8.23796 6.18632L7.42294 6.18764C6.48979 6.19291 5.69456 6.21109 5.02553 6.23932L4.45717 6.26736C3.99121 6.29443 3.65035 6.5659 3.62277 6.87038C3.568 7.46795 3.53223 8.23418 3.52313 9.18409L3.52084 9.67442C3.52084 10.6858 3.54876 11.5106 3.59702 12.1655L3.62281 12.4789C3.65035 12.7829 3.99113 13.0542 4.45713 13.0809C5.22518 13.1254 6.20603 13.1543 7.42198 13.1612L7.99996 13.1628C9.28922 13.1628 10.3396 13.1399 11.1739 13.1003L11.5437 13.0809C12.0094 13.0542 12.3502 12.7829 12.3777 12.4789C12.4322 11.8771 12.4678 11.1117 12.4768 10.1637L12.4791 9.67442C12.4791 8.66488 12.4513 7.84068 12.4033 7.18426L12.3777 6.86995C12.3502 6.5659 12.0093 6.29443 11.5437 6.26738C10.8703 6.22885 10.0378 6.20209 9.02844 6.19132ZM7.99996 7.5814C7.13505 7.5814 6.43391 8.26859 6.43391 9.11628V10.2326C6.43391 11.0803 7.13505 11.7674 7.99996 11.7674C8.86487 11.7674 9.56601 11.0803 9.56601 10.2326V9.11628C9.56601 8.26859 8.86487 7.5814 7.99996 7.5814ZM7.99996 8.4186C8.3931 8.4186 8.7118 8.73096 8.7118 9.11628V10.2326C8.7118 10.6179 8.3931 10.9302 7.99996 10.9302C7.60682 10.9302 7.28812 10.6179 7.28812 10.2326V9.11628C7.28812 8.73096 7.60682 8.4186 7.99996 8.4186Z" fill="#70717D"/>
<mask id="mask0" mask-type="alpha" maskUnits="userSpaceOnUse" x="2" y="2" width="12" height="12">
<path fill-rule="evenodd" clip-rule="evenodd" d="M5.29496 4.65116C5.29496 3.18697 6.50603 2 7.99996 2C9.49389 2 10.705 3.18697 10.705 4.65116V5.39098C10.8909 5.39761 11.0682 5.40497 11.2371 5.41299L11.5939 5.43162C12.4541 5.48159 13.1605 6.04417 13.2286 6.79591C13.285 7.41909 13.3216 8.20608 13.3309 9.17482L13.3333 9.67442C13.3333 10.7041 13.3048 11.5485 13.2551 12.2273L13.2286 12.5529C13.1605 13.3048 12.4538 13.8674 11.5938 13.9167C10.8104 13.9621 9.81496 13.9914 8.58459 13.9984L7.99996 14C6.69721 14 5.63256 13.9768 4.78359 13.9365L4.407 13.9167C3.54672 13.8674 2.84007 13.3048 2.77198 12.5533C2.71512 11.9324 2.67833 11.1452 2.66898 10.1749L2.66663 9.67442C2.66663 8.64241 2.69532 7.79594 2.74524 7.11983L2.77194 6.79591C2.84005 6.04417 3.54642 5.48159 4.40701 5.43159C4.6782 5.41608 4.97382 5.40246 5.29496 5.39098V4.65116ZM9.85075 5.34884H7.99996H6.14917V4.65116C6.14917 3.64934 6.9778 2.83721 7.99996 2.83721L8.10498 2.84008C9.07828 2.89344 9.85075 3.68389 9.85075 4.65116V5.34884ZM9.02844 6.19132L8.23796 6.18632L7.42294 6.18764C6.48979 6.19291 5.69456 6.21109 5.02553 6.23932L4.45717 6.26736C3.99121 6.29443 3.65035 6.5659 3.62277 6.87038C3.568 7.46795 3.53223 8.23418 3.52313 9.18409L3.52084 9.67442C3.52084 10.6858 3.54876 11.5106 3.59702 12.1655L3.62281 12.4789C3.65035 12.7829 3.99113 13.0542 4.45713 13.0809C5.22518 13.1254 6.20603 13.1543 7.42198 13.1612L7.99996 13.1628C9.28922 13.1628 10.3396 13.1399 11.1739 13.1003L11.5437 13.0809C12.0094 13.0542 12.3502 12.7829 12.3777 12.4789C12.4322 11.8771 12.4678 11.1117 12.4768 10.1637L12.4791 9.67442C12.4791 8.66488 12.4513 7.84068 12.4033 7.18426L12.3777 6.86995C12.3502 6.5659 12.0093 6.29443 11.5437 6.26738C10.8703 6.22885 10.0378 6.20209 9.02844 6.19132ZM7.99996 7.5814C7.13505 7.5814 6.43391 8.26859 6.43391 9.11628V10.2326C6.43391 11.0803 7.13505 11.7674 7.99996 11.7674C8.86487 11.7674 9.56601 11.0803 9.56601 10.2326V9.11628C9.56601 8.26859 8.86487 7.5814 7.99996 7.5814ZM7.99996 8.4186C8.3931 8.4186 8.7118 8.73096 8.7118 9.11628V10.2326C8.7118 10.6179 8.3931 10.9302 7.99996 10.9302C7.60682 10.9302 7.28812 10.6179 7.28812 10.2326V9.11628C7.28812 8.73096 7.60682 8.4186 7.99996 8.4186Z" fill="white"/>
</mask>
<g mask="url(#mask0)">
<rect width="16" height="16" fill="white"/>
</g>
</svg>
