<svg width="202" height="32" viewBox="0 0 202 32" fill="none" xmlns="http://www.w3.org/2000/svg">
<path fill-rule="evenodd" clip-rule="evenodd" d="M24.1449 26.0464C22.2758 27.6843 20.0834 28.6704 17.6618 29.1044C10.2451 30.4358 3.22288 26.0416 1.17566 18.8296C0.97271 18.1133 0.826104 17.3861 0.747788 16.6454C0.63652 16.4248 0.792199 16.166 0.649414 15.9492C0.649414 15.2998 0.649414 14.6504 0.649414 14.0009C0.769277 13.8157 0.680932 13.6098 0.708629 13.4145C0.756383 10.7681 1.81557 8.48367 3.31792 6.39165C5.42101 3.46302 8.30488 1.6704 11.7847 0.807047C12.342 0.668566 12.9151 0.650421 13.4872 0.650898C13.7149 0.621292 13.9537 0.716318 14.1734 0.592163C14.7846 0.592163 15.3959 0.592163 16.0071 0.592163C16.1948 0.712021 16.4025 0.623679 16.5993 0.651376C19.3996 0.730644 21.7787 1.89006 23.9725 3.52366C24.0957 3.61535 24.1922 3.7352 24.2118 3.89899C24.165 4.27958 23.8579 4.47918 23.6144 4.70696C21.1861 6.97136 19.7706 9.77011 19.3327 13.0378C18.8848 16.379 19.5171 19.5259 21.2983 22.4139C21.922 23.4258 22.6612 24.3445 23.5313 25.1582C23.7662 25.3779 24.0217 25.5856 24.1774 25.8793C24.1994 25.9413 24.1879 25.9972 24.1449 26.0464Z" fill="#BCD430"/>
<path fill-rule="evenodd" clip-rule="evenodd" d="M24.1452 26.0464C24.1385 26.0111 24.1342 25.9757 24.1318 25.9399C24.9183 25.2188 25.6581 24.4543 26.3066 23.6048C27.9713 21.4254 28.9058 18.9738 29.1675 16.2372C29.4163 13.6366 28.9416 11.1802 27.8438 8.84133C27.0587 7.16905 25.9837 5.68922 24.5855 4.46199C24.4141 4.31157 24.2168 4.18073 24.2073 3.91809C24.2598 3.62012 24.5143 3.48785 24.7202 3.33456C26.3624 2.11545 28.1752 1.25401 30.1746 0.805137C30.7133 0.683847 31.2668 0.660926 31.8188 0.651376C32.0485 0.621292 32.2892 0.716318 32.5113 0.592163C33.0843 0.592163 33.6574 0.592163 34.2304 0.592163C34.451 0.733987 34.7118 0.580703 34.9372 0.6891C37.8803 0.993758 40.4805 2.09396 42.7182 4.03747C42.7588 4.33688 42.5286 4.48061 42.3515 4.64106C40.7579 6.08986 39.5192 7.79413 38.7585 9.80879C36.8368 14.8968 37.5455 19.6194 40.8104 23.9639C41.2135 24.5002 41.6867 24.9705 42.1566 25.4461C42.3228 25.6142 42.563 25.7551 42.51 26.0569C40.8076 27.5754 38.801 28.5152 36.5971 28.9898C32.1937 29.9377 28.1771 29.0309 24.5783 26.3095C24.4432 26.2064 24.3276 26.0707 24.1452 26.0464Z" fill="#74BD45"/>
<path fill-rule="evenodd" clip-rule="evenodd" d="M109.633 31.247C109.989 31.307 110.345 31.3668 110.674 31.5355C110.713 31.5355 110.751 31.5355 110.789 31.535C111.018 31.4414 111.247 31.4414 111.477 31.535H113.425C113.473 31.4088 113.571 31.4117 113.666 31.4146C113.702 31.4157 113.737 31.4167 113.77 31.4108C116.009 31.0045 117.421 29.7118 117.967 27.4961C118.122 26.8653 118.23 26.2226 118.231 25.5722C118.235 23.3895 118.237 21.2068 118.239 19.0242C118.242 16.205 118.245 13.3859 118.252 10.5666C118.253 10.113 118.065 9.95824 117.633 9.9697C116.927 9.98785 116.22 9.98689 115.514 9.9697C115.095 9.95967 114.731 9.98307 114.761 10.5929C114.589 10.5002 114.491 10.4477 114.394 10.3952C111.597 8.88907 108.495 9.75673 107.089 12.598C105.473 15.8642 105.438 19.2699 106.811 22.6269C107.668 24.7222 109.488 25.7136 111.753 25.6104C112.788 25.5636 113.706 25.1926 114.648 24.5856C114.645 24.6426 114.642 24.6987 114.639 24.754C114.612 25.3054 114.588 25.7794 114.481 26.2503C114.149 27.7125 113.327 28.3509 111.823 28.2735C110.51 28.2062 109.269 27.861 108.102 27.255C107.516 26.9513 107.349 27.0325 107.229 27.691C107.191 27.8968 107.157 28.1034 107.122 28.31C107.043 28.7805 106.964 29.2512 106.851 29.7137C106.745 30.1445 106.899 30.3522 107.269 30.5112C107.812 30.7457 108.373 30.9233 108.937 31.0981C109.164 31.1683 109.398 31.2077 109.633 31.247ZM114.562 18.4726C114.563 18.1661 114.564 17.8597 114.564 17.5532C114.564 17.2719 114.565 16.9907 114.565 16.7094C114.565 15.8657 114.566 15.022 114.562 14.1786C114.562 14.1479 114.563 14.1173 114.564 14.0868C114.57 13.9186 114.576 13.7547 114.386 13.6189C112.875 12.5373 110.795 12.2494 110.083 14.8753C109.683 16.3518 109.672 17.8502 109.822 19.3558C109.885 19.9828 110.03 20.5941 110.315 21.1637C110.887 22.3055 111.872 22.709 113.077 22.2978C113.498 22.1541 113.857 21.9111 114.208 21.6446C114.474 21.4431 114.579 21.211 114.573 20.8701C114.557 20.0711 114.56 19.2718 114.562 18.4726Z" fill="#044E45"/>
<path fill-rule="evenodd" clip-rule="evenodd" d="M13.4707 0.689541C13.4793 0.657547 13.4841 0.625076 13.4865 0.592127C13.7157 0.592127 13.9449 0.592127 14.1741 0.592127C13.9607 0.779792 13.7104 0.698614 13.4707 0.689541Z" fill="#D9E68B"/>
<path fill-rule="evenodd" clip-rule="evenodd" d="M31.8125 0.690957C31.8206 0.658485 31.8244 0.625536 31.8235 0.59211C32.0527 0.59211 32.2819 0.59211 32.5111 0.59211C32.2982 0.765927 32.0513 0.700985 31.8125 0.690957Z" fill="#BDDFA8"/>
<path fill-rule="evenodd" clip-rule="evenodd" d="M34.9367 0.689086C34.6951 0.700546 34.4439 0.78459 34.23 0.592149C34.4592 0.592149 34.6884 0.592149 34.9176 0.592149C34.9205 0.625098 34.9272 0.657092 34.9367 0.689086Z" fill="#A7D58A"/>
<path fill-rule="evenodd" clip-rule="evenodd" d="M0.649266 15.9492C0.819749 16.1617 0.754803 16.4076 0.748118 16.6454C0.715167 16.6454 0.682217 16.6426 0.649266 16.6368C0.649266 16.4076 0.649266 16.1784 0.649266 15.9492Z" fill="#E5EEB1"/>
<path fill-rule="evenodd" clip-rule="evenodd" d="M110.79 31.5354C111.019 31.3114 111.248 31.4122 111.477 31.5354C111.248 31.5354 111.018 31.5354 110.79 31.5354Z" fill="#709A95"/>
<path fill-rule="evenodd" clip-rule="evenodd" d="M16.5804 0.592091C16.5837 0.623607 16.588 0.655123 16.5937 0.68664C16.3908 0.700965 16.1802 0.763043 16.0073 0.592091C16.1983 0.592091 16.3894 0.592091 16.5804 0.592091Z" fill="#E0EBA0"/>
<path fill-rule="evenodd" clip-rule="evenodd" d="M0.649365 13.4279C0.678495 13.4126 0.709058 13.4074 0.741531 13.4126C0.758722 13.616 0.820802 13.8271 0.649365 14.0009C0.649365 13.8099 0.649365 13.6189 0.649365 13.4279Z" fill="#DFEBA0"/>
<path fill-rule="evenodd" clip-rule="evenodd" d="M42.5098 26.0559C41.58 25.0498 40.5977 24.0914 39.8642 22.9157C38.6341 20.9436 37.8719 18.8267 37.6513 16.4993C37.2783 12.5602 38.3867 9.08243 40.8284 6.01436C41.3938 5.30381 42.0848 4.69306 42.7185 4.03647C43.9878 3.12297 45.2905 2.27633 46.7637 1.70617C55.3437 -1.61546 64.8678 3.92807 66.1877 13.0244C67.3214 20.839 61.9171 28.1961 54.1561 29.3298C49.9828 29.9391 46.2107 28.9229 42.8947 26.2875C42.7767 26.1944 42.6765 26.0697 42.5098 26.0559Z" fill="#0AA94E"/>
<path fill-rule="evenodd" clip-rule="evenodd" d="M76.7924 12.384C76.7924 13.2837 76.7925 14.1833 76.7925 15.0829C76.7925 16.0392 76.7924 16.9954 76.7923 17.9517C76.7919 20.1828 76.7916 22.4139 76.793 24.6448C76.7935 25.3253 76.8665 25.395 77.5523 25.3983C78.2963 25.4017 79.0408 25.4002 79.7853 25.3988C80.5646 25.3969 80.6133 25.3468 80.6138 24.5407C80.6139 24.0449 80.6145 23.5491 80.6152 23.0533C80.6172 21.4879 80.6192 19.9226 80.6047 18.3573C80.6014 17.9758 80.7136 17.8783 81.0818 17.8888C81.9438 17.9132 82.8072 17.9044 83.6698 17.8956L83.7727 17.8946C87.7526 17.8545 90.3327 15.5423 90.804 11.5999C91.1245 8.91719 90.0171 6.66473 87.8514 5.60702C86.734 5.06074 85.5392 4.84299 84.3066 4.83582C82.6593 4.82561 81.0121 4.82709 79.3648 4.82857C78.7791 4.82909 78.1934 4.82962 77.6077 4.82962C76.8469 4.82962 76.7935 4.88023 76.793 5.63567C76.792 7.88516 76.7922 10.1347 76.7924 12.384ZM81.0636 7.9994C80.6558 7.98507 80.6014 8.15125 80.6081 8.49554C80.6267 9.44963 80.6195 13.3433 80.6119 14.3351C80.6095 14.5758 80.6305 14.7277 80.9409 14.72C81.3405 14.7102 81.7406 14.7115 82.1407 14.7127C82.7719 14.7147 83.4029 14.7166 84.0311 14.6751C85.596 14.571 86.5754 13.626 86.8567 12.0803C86.9398 11.6252 86.9613 11.1701 86.9388 10.7127C86.8567 9.05949 85.9804 8.13788 84.3262 8.0481C83.7276 8.01571 83.1276 8.016 82.5274 8.01628C82.0393 8.01651 81.5511 8.01675 81.0636 7.9994Z" fill="#044E45"/>
<path fill-rule="evenodd" clip-rule="evenodd" d="M142.429 25.61C143.335 25.4715 144.124 25.0828 144.878 24.5642C144.945 24.9816 144.978 25.1902 145.101 25.2944C145.223 25.3984 145.433 25.3984 145.854 25.3984C145.991 25.3985 146.128 25.3987 146.264 25.3989C146.72 25.3995 147.176 25.4001 147.631 25.3979C148.336 25.3941 148.389 25.343 148.39 24.6578C148.391 23.7222 148.391 22.7863 148.39 21.8504C148.39 21.4493 148.39 21.0482 148.39 20.6471C148.39 19.392 148.39 18.1368 148.39 16.8817C148.39 13.1138 148.39 9.34576 148.39 5.57749C148.39 4.86599 148.353 4.83065 147.642 4.82922C147.405 4.82861 147.167 4.8312 146.929 4.8338C146.422 4.83934 145.914 4.84488 145.408 4.81919C144.857 4.79149 144.663 4.98775 144.673 5.54072C144.689 6.41628 144.687 7.29201 144.685 8.1678C144.684 8.76269 144.683 9.35761 144.687 9.95253C144.689 10.2868 144.657 10.3871 144.284 10.2281C141.23 8.9273 138.411 10.0242 137.008 13.0316C136.392 14.35 136.116 15.7487 136.056 17.1874C135.972 19.2112 136.164 21.1977 137.152 23.0194C138.239 25.0236 140.185 25.9533 142.429 25.61ZM144.703 18.5439C144.704 18.2224 144.705 17.9009 144.705 17.5795C144.705 16.4158 144.705 15.2525 144.705 14.0888C144.705 14.0701 144.706 14.0514 144.706 14.0329C144.708 13.8673 144.709 13.7117 144.534 13.5846C143.006 12.4767 141.008 12.3124 140.26 14.776C139.804 16.2778 139.809 17.8225 139.964 19.3678C140.028 19.9948 140.177 20.6051 140.46 21.1762C141.059 22.3891 142.111 22.7993 143.366 22.3069C143.724 22.1666 144.033 21.9483 144.342 21.722C144.61 21.5248 144.72 21.2979 144.714 20.9551C144.698 20.1518 144.701 19.3478 144.703 18.5439Z" fill="#044E45"/>
<path fill-rule="evenodd" clip-rule="evenodd" d="M185.296 19.3238C185.297 18.9608 185.298 18.5894 185.298 18.206C185.286 17.7882 185.288 17.357 185.289 16.9166C185.292 15.9863 185.296 15.0155 185.176 14.0458C184.896 11.7881 183.837 10.4525 181.788 9.95443C179.597 9.422 177.43 9.75865 175.278 10.2524C174.936 10.3307 174.835 10.5637 174.881 10.8999C174.959 11.4858 175.023 12.0741 175.084 12.662C175.15 13.3119 175.278 13.3921 175.935 13.2278C177.159 12.9213 178.395 12.6839 179.667 12.8272C181.017 12.9795 181.545 13.5339 181.687 14.8653C181.734 15.3008 181.636 15.4435 181.176 15.3638C180.134 15.1823 179.087 15.2148 178.042 15.3738C175.732 15.7257 174.223 17.1005 173.763 19.3057C173.586 20.1538 173.568 21.0143 173.725 21.8667C174.064 23.708 175.035 25.0269 176.917 25.5001C178.728 25.9557 180.395 25.5665 181.904 24.4925C182.167 24.3049 182.276 24.2915 182.434 24.6033C182.728 25.1859 183.243 25.4834 183.881 25.6066C184.872 25.7976 185.815 25.5822 186.755 25.3163C187.037 25.2365 187.114 25.0107 187.084 24.7294C187.073 24.6276 187.062 24.5258 187.051 24.424C186.997 23.9188 186.942 23.4134 186.912 22.9067C186.882 22.4091 186.65 22.2883 186.193 22.4029C185.449 22.5901 185.312 22.4889 185.302 21.7134C185.292 20.9313 185.294 20.1492 185.296 19.3238ZM181.699 19.9511C181.698 19.9209 181.696 19.8906 181.696 19.8606C181.696 17.9314 181.618 17.8775 179.818 17.9629C177.952 18.0513 177.141 19.0779 177.448 21.094C177.626 22.262 178.363 22.7596 179.529 22.5829C180.301 22.4659 180.996 22.1298 181.533 21.5701C181.778 21.3147 181.743 20.9914 181.708 20.6657C181.689 20.4898 181.67 20.3131 181.695 20.1462C181.704 20.0822 181.701 20.0166 181.699 19.9511Z" fill="#044E45"/>
<path fill-rule="evenodd" clip-rule="evenodd" d="M162.963 19.1912C162.963 18.8161 162.964 18.428 162.964 18.0211C162.954 17.6474 162.955 17.2551 162.956 16.8499C162.959 15.9219 162.963 14.9264 162.828 13.9326C162.528 11.7389 161.476 10.4448 159.458 9.95484C157.265 9.42288 155.099 9.75714 152.947 10.2523C152.608 10.3302 152.507 10.5579 152.554 10.8999C152.613 11.3242 152.655 11.7508 152.698 12.1773C152.714 12.3392 152.73 12.5011 152.747 12.6629C152.814 13.307 152.951 13.3901 153.605 13.2273C154.849 12.9179 156.102 12.6791 157.395 12.8333C158.7 12.989 159.278 13.6155 159.365 14.9239C159.39 15.2902 159.318 15.4554 158.907 15.369C158.135 15.2071 157.349 15.231 156.568 15.2711C153.726 15.4172 151.897 16.8851 151.411 19.414C151.265 20.1676 151.275 20.9321 151.365 21.6952C151.591 23.6191 152.775 25.0469 154.583 25.5C156.395 25.9542 158.062 25.5688 159.57 24.4944C159.83 24.3101 159.939 24.2828 160.1 24.6018C160.394 25.182 160.908 25.4838 161.547 25.607C162.538 25.798 163.481 25.5831 164.421 25.3186C164.704 25.2388 164.785 25.0154 164.755 24.7336L164.745 24.6404C164.682 24.045 164.619 23.4499 164.573 22.8536C164.54 22.4191 164.322 22.3002 163.919 22.3861C163.07 22.5676 162.977 22.4955 162.968 21.5997C162.959 20.8192 162.961 20.0385 162.963 19.1912ZM159.369 19.972C159.368 19.9421 159.366 19.9122 159.366 19.8825C159.366 19.7555 159.365 19.6284 159.363 19.5013C159.358 19.209 159.354 18.9169 159.373 18.6266C159.395 18.2857 159.303 18.1133 158.935 18.0569C158.232 17.9495 157.53 17.9151 156.832 18.0416C156.001 18.1916 155.388 18.6309 155.173 19.4881C155.042 20.0066 155.003 20.5338 155.107 21.0725C155.33 22.2166 155.968 22.7228 157.119 22.59C157.919 22.4979 158.625 22.1502 159.186 21.5848C159.441 21.328 159.408 21.0035 159.374 20.6772C159.357 20.5048 159.339 20.3318 159.364 20.168C159.374 20.104 159.371 20.0379 159.369 19.972Z" fill="#044E45"/>
<path fill-rule="evenodd" clip-rule="evenodd" d="M132.71 19.237C132.712 18.8958 132.713 18.5547 132.713 18.2136C132.698 18.2136 132.683 18.2136 132.668 18.2146C132.668 17.9109 132.668 17.6072 132.669 17.3035C132.67 16.443 132.671 15.5825 132.663 14.722C132.662 14.5383 132.632 14.3548 132.603 14.1712C132.59 14.0899 132.577 14.0087 132.567 13.9274C132.28 11.7284 131.218 10.4415 129.196 9.95397C127.004 9.4244 124.837 9.75914 122.685 10.2558C122.344 10.335 122.259 10.5728 122.305 10.9109C122.358 11.2928 122.395 11.6768 122.433 12.0608C122.453 12.2654 122.473 12.47 122.495 12.6744C122.563 13.3028 122.705 13.3969 123.307 13.2431C124.569 12.9213 125.84 12.6801 127.152 12.8353C128.469 12.991 129.079 13.6767 129.116 14.9909C129.126 15.3203 129.043 15.4402 128.705 15.3734C127.932 15.2201 127.147 15.2339 126.365 15.2688C123.497 15.3972 121.654 16.8646 121.158 19.4213C121.016 20.1562 121.028 20.903 121.108 21.6461C121.316 23.5986 122.51 25.0479 124.337 25.5035C126.105 25.9437 127.742 25.587 129.23 24.5561C129.242 24.5474 129.254 24.5389 129.266 24.5305C129.528 24.3484 129.682 24.2409 129.885 24.6559C130.16 25.2193 130.687 25.4911 131.302 25.609C132.292 25.7991 133.237 25.5837 134.176 25.3168C134.459 25.2361 134.531 25.0054 134.502 24.7261C134.435 24.0996 134.37 23.4735 134.32 22.8461C134.286 22.4077 134.058 22.3012 133.66 22.3891C132.832 22.571 132.731 22.5018 132.718 21.6494C132.705 20.8454 132.708 20.0411 132.71 19.237ZM129.117 19.9361C129.116 19.8998 129.114 19.8634 129.114 19.8272C129.114 19.7042 129.111 19.5809 129.108 19.4576C129.101 19.18 129.094 18.9022 129.122 18.6281C129.165 18.2261 128.978 18.1014 128.629 18.0479C127.946 17.9424 127.262 17.9166 126.582 18.0403C125.726 18.196 125.111 18.6558 124.907 19.5402C124.791 20.0425 124.758 20.5506 124.855 21.0697C125.065 22.1861 125.684 22.6952 126.809 22.5935C127.634 22.519 128.354 22.1599 128.933 21.5854C129.19 21.3296 129.157 21.0043 129.123 20.6771C129.105 20.5051 129.087 20.3327 129.112 20.1696C129.123 20.0931 129.12 20.0147 129.117 19.9361Z" fill="#044E45"/>
<path fill-rule="evenodd" clip-rule="evenodd" d="M192.883 11.1248C194.07 10.3297 195.257 9.79725 196.609 9.71082C197.437 9.65782 198.257 9.71655 199.03 10.0241C200.772 10.7184 201.407 12.1505 201.427 13.8944C201.464 17.0441 201.442 20.1943 201.445 23.3445C201.445 23.8025 201.423 24.2623 201.451 24.7188C201.481 25.2087 201.294 25.4179 200.793 25.4045C200.011 25.383 199.227 25.3787 198.445 25.406C197.923 25.4246 197.746 25.2255 197.749 24.7021C197.767 21.5519 197.758 18.4017 197.759 15.2515C197.759 14.8313 197.753 14.412 197.672 13.997C197.58 13.5171 197.302 13.1991 196.83 13.0921C195.377 12.7622 194.235 13.4107 193.174 14.2883C192.98 14.4483 193.07 14.6828 193.07 14.8824C193.065 18.109 193.067 21.3351 193.066 24.5617C193.066 25.3534 193.021 25.3974 192.22 25.3983C191.475 25.3998 190.73 25.3869 189.986 25.4031C189.538 25.4131 189.317 25.2551 189.318 24.7761C189.326 20.041 189.325 15.3064 189.32 10.5718C189.319 10.1325 189.509 9.95722 189.947 9.96916C190.653 9.98874 191.359 9.97298 192.066 9.97489C192.792 9.97632 192.819 10.005 192.855 10.7575C192.86 10.8507 192.869 10.9433 192.883 11.1248Z" fill="#044E45"/>
<path fill-rule="evenodd" clip-rule="evenodd" d="M98.6535 18.5682C98.9718 18.5671 99.29 18.566 99.6082 18.566C99.9067 18.5658 100.205 18.5654 100.504 18.565C101.37 18.5637 102.236 18.5624 103.102 18.5688C103.486 18.5717 103.729 18.4614 103.729 18.0254C103.729 17.9337 103.73 17.842 103.73 17.7503C103.731 16.5053 103.733 15.2603 103.442 14.0381C103.037 12.3357 102.265 10.8874 100.566 10.1477C97.3361 8.74145 93.7292 10.2614 92.586 13.5878C91.6457 16.3235 91.7068 19.1103 92.6261 21.847C93.1968 23.5465 94.3376 24.7871 96.0787 25.3296C98.4827 26.0783 100.825 25.7655 103.095 24.7393C103.407 24.5989 103.497 24.3826 103.467 24.0565C103.431 23.6621 103.405 23.2671 103.379 22.872C103.361 22.6006 103.344 22.3293 103.323 22.0581C103.272 21.4158 103.048 21.2826 102.47 21.571C101.593 22.0089 100.676 22.3088 99.7037 22.4429C97.7048 22.7194 96.3547 21.8054 95.904 19.8519C95.8706 19.7071 95.8502 19.5595 95.8299 19.4119C95.8111 19.2761 95.7924 19.1403 95.7636 19.0067C95.6867 18.6505 95.8104 18.5502 96.1719 18.5574C96.9989 18.5739 97.8262 18.571 98.6535 18.5682ZM97.4221 15.8247C97.5955 15.8261 97.7688 15.8274 97.9421 15.8274C98.014 15.8274 98.086 15.8285 98.158 15.8296C98.3146 15.8319 98.4713 15.8343 98.6274 15.8255C98.7892 15.8158 98.9807 15.8361 99.1702 15.8561C99.5527 15.8966 99.9269 15.9363 100.032 15.7271C100.257 15.2806 100.033 14.6693 99.8374 14.1341C99.8242 14.0981 99.8111 14.0624 99.7983 14.0271C99.7955 14.0193 99.7934 14.0112 99.7913 14.003C99.7887 13.9928 99.786 13.9825 99.7821 13.9727C99.5122 13.3156 99.0825 12.8367 98.3389 12.7488C97.5572 12.6566 96.9216 12.9288 96.4536 13.572C96.0501 14.1264 95.892 14.7668 95.7769 15.4277C95.7163 15.7744 95.8576 15.845 96.1718 15.8336C96.5881 15.8184 97.0051 15.8216 97.4221 15.8247Z" fill="#044E45"/>
<path fill-rule="evenodd" clip-rule="evenodd" d="M167 17.6564C167 15.3476 166.999 13.0383 167.001 10.729C167.002 10.0309 167.059 9.97737 167.748 9.97546C168.511 9.97307 169.275 9.99456 170.038 9.96782C170.536 9.95063 170.718 10.1493 170.714 10.6392C170.7 12.5665 170.708 14.4942 170.708 16.4215C170.708 19.1505 170.709 21.88 170.708 24.6091C170.708 25.3335 170.645 25.396 169.928 25.3989C169.183 25.4018 168.439 25.3788 167.695 25.4065C167.169 25.4266 166.989 25.2122 166.993 24.6984C167.009 22.3514 167 20.0039 167 17.6564Z" fill="#044E45"/>
<path fill-rule="evenodd" clip-rule="evenodd" d="M170.967 6.62223C170.96 7.94162 170.13 8.76725 168.82 8.7577C167.545 8.74863 166.699 7.86999 166.71 6.56827C166.72 5.30475 167.568 4.47816 168.85 4.47864C170.191 4.47864 170.973 5.2718 170.967 6.62223Z" fill="#044E45"/>
<path fill-rule="evenodd" clip-rule="evenodd" d="M24.1643 3.92182C24.1967 3.91705 24.2292 3.91991 24.2607 3.92946C25.3977 4.94993 26.4154 6.07258 27.2172 7.38003C28.4196 9.33977 29.123 11.4523 29.3198 13.7554C29.6206 17.2781 28.7219 20.455 26.6986 23.3235C26.0634 24.2236 25.3672 25.0841 24.4813 25.766C24.3734 25.8486 24.2741 25.9331 24.1323 25.9403C21.0445 23.2308 19.2833 19.8591 19.0832 15.729C18.8664 11.2503 20.4375 7.48604 23.6815 4.40603C23.8467 4.24845 24.0033 4.08323 24.1643 3.92182Z" fill="#0AA94E"/>
<path fill-rule="evenodd" clip-rule="evenodd" d="M45.5676 10.3971C45.2338 10.5962 44.996 10.7118 44.7883 10.8669C44.4917 11.0885 44.273 11.0408 44.0734 10.7433C43.8523 10.4143 44.0686 10.2576 44.3098 10.1077C46.9172 8.48699 49.7509 7.74253 52.8167 7.97126C55.2144 8.15033 57.4336 8.92153 59.5095 10.1206C59.7554 10.2629 60.0548 10.3722 59.8347 10.7638C59.6255 11.1353 59.3638 11.0742 59.0663 10.8985C58.8753 10.7853 58.6771 10.6841 58.4574 10.5647C58.434 10.8053 58.5591 10.9586 58.6313 11.1248C59.8428 13.9212 61.0576 16.7161 62.2716 19.512C62.6364 20.3515 62.4955 20.8538 61.7281 21.3681C61.0161 21.8456 60.2081 22.0672 59.37 22.1828C57.9183 22.3824 56.478 22.3537 55.0635 21.9211C54.586 21.7749 54.1319 21.5787 53.7341 21.2736C53.0961 20.7841 52.9733 20.3128 53.2952 19.5707C54.5908 16.5824 55.8749 13.5883 57.2039 10.6148C57.425 10.1201 57.3046 9.98831 56.861 9.81784C53.5712 8.5505 50.2848 8.48508 46.9754 9.74573C46.5308 9.91477 46.4602 10.0724 46.655 10.5122C47.9802 13.5081 49.2767 16.5174 50.5823 19.522C50.9371 20.3386 50.8067 20.8347 50.0737 21.3423C49.3512 21.8428 48.5236 22.0686 47.6669 22.1856C46.2152 22.3838 44.7744 22.3532 43.36 21.9192C42.9751 21.8012 42.6074 21.6455 42.2669 21.4311C41.4035 20.8877 41.2521 20.3959 41.6585 19.4595C42.8719 16.6636 44.0858 13.8682 45.2988 11.0723C45.3781 10.888 45.4473 10.6998 45.5676 10.3971Z" fill="#FEFEFE"/>
<path fill-rule="evenodd" clip-rule="evenodd" d="M42.6138 19.352C42.6835 19.1638 42.7169 19.0569 42.7613 18.9547C43.8597 16.4209 44.959 13.8872 46.0588 11.3525C46.1987 11.418 46.2254 11.5297 46.2694 11.6314C47.3156 14.0438 48.3562 16.4587 49.4168 18.8644C49.5868 19.2503 49.5758 19.3663 49.1045 19.362C46.9666 19.3395 44.8281 19.352 42.6138 19.352Z" fill="#0AA94E"/>
<path fill-rule="evenodd" clip-rule="evenodd" d="M61.3015 19.3253C58.9348 19.3253 56.655 19.3253 54.2969 19.3253C55.4587 16.6421 56.5981 14.01 57.7949 11.2461C58.983 13.9842 60.1262 16.6182 61.3015 19.3253Z" fill="#0AA94E"/>
</svg>
