<svg width="102" height="25" viewBox="0 0 102 25" fill="none" xmlns="http://www.w3.org/2000/svg">
<path fill-rule="evenodd" clip-rule="evenodd" d="M12.1133 6.00708C15.9686 6.00697 19.0756 9.08023 19.0783 12.8968C19.0812 16.6928 15.9654 19.7891 12.141 19.7907C8.2717 19.7924 5.16432 16.7156 5.16651 12.8847C5.16863 9.08087 8.27317 6.00724 12.1133 6.00708ZM15.2296 10.6961C15.3857 10.7838 15.4735 10.8303 15.5584 10.8816C15.6965 10.9649 15.822 11.0026 15.9289 10.8321C16.0424 10.651 15.9289 10.579 15.7898 10.5008C14.3961 9.71803 12.916 9.31611 11.3024 9.4893C10.2839 9.59865 9.34262 9.92851 8.47161 10.458C8.34415 10.5355 8.17832 10.6053 8.30828 10.8093C8.44032 11.0166 8.57687 10.9161 8.71948 10.8256C8.79852 10.7755 8.88362 10.7347 9.01609 10.6623C8.9631 10.7908 8.93481 10.8635 8.90352 10.9349C8.31461 12.2777 7.72575 13.6204 7.13592 14.9627C6.93384 15.4226 7.00928 15.6713 7.4485 15.9317C7.57971 16.0095 7.72166 16.0759 7.86672 16.1235C8.76358 16.4174 9.6685 16.4102 10.5761 16.1745C10.7877 16.1195 10.986 16.0294 11.1709 15.9138C11.5694 15.6648 11.6426 15.4087 11.4539 14.9798C10.8201 13.5391 10.1931 12.0954 9.55174 10.658C9.46381 10.461 9.51761 10.4046 9.69805 10.3355C11.3068 9.72019 12.9062 9.75737 14.5075 10.3664C14.727 10.4499 14.7419 10.5383 14.653 10.7373C14.0371 12.1169 13.4331 13.5016 12.825 14.8847C12.5757 15.452 12.675 15.7386 13.2408 16.0075C13.9422 16.3409 14.6906 16.3858 15.4504 16.3173C15.9324 16.2738 16.403 16.1785 16.8207 15.9162C17.2211 15.665 17.2983 15.4082 17.111 14.9839C16.8095 14.301 16.5096 13.6175 16.2097 12.9339C15.8928 12.2114 15.5767 11.4886 15.2296 10.6961Z" fill="#02A750"/>
<path fill-rule="evenodd" clip-rule="evenodd" d="M12.0967 24.892C8.61806 24.8456 5.65548 23.5916 3.26877 21.0877C1.34815 19.0729 0.280506 16.6554 0.0463168 13.887C0.025111 13.6365 0.0241843 13.3844 0.0018338 13.134C-0.0101592 12.9998 0.0357412 12.9659 0.167064 12.9691C0.520638 12.9775 0.874758 12.9778 1.22833 12.9684C1.39716 12.9639 1.36363 13.0715 1.36663 13.1655C1.39656 14.1132 1.53355 15.046 1.81353 15.9525C2.33468 17.6399 3.21578 19.1197 4.47319 20.375C5.85249 21.7521 7.48522 22.7052 9.38169 23.1907C11.406 23.709 13.4236 23.668 15.4185 23.0235C17.858 22.2355 19.7797 20.7703 21.1679 18.6391C22.3933 16.7575 22.9509 14.6867 22.8549 12.4451C22.7414 9.79198 21.7518 7.49298 19.9198 5.57608C18.1004 3.6724 15.8482 2.57417 13.2013 2.3102C11.008 2.09146 8.93768 2.49921 6.99918 3.54147C6.84987 3.62178 6.75899 3.62161 6.67008 3.46861C6.5163 3.20405 6.35925 2.94041 6.18682 2.68756C6.08248 2.53461 6.1226 2.46407 6.27246 2.38155C7.19041 1.87607 8.16064 1.49882 9.17797 1.25115C11.0606 0.792843 12.9544 0.76942 14.8444 1.2022C17.1968 1.74093 19.22 2.8737 20.8805 4.60921C22.9452 6.76708 24.0692 9.33809 24.2166 12.3126C24.3605 15.2169 23.546 17.8452 21.7676 20.1512C19.8546 22.6318 17.3236 24.1526 14.2133 24.7133C13.5138 24.8396 12.8094 24.8918 12.0967 24.892Z" fill="#BAD333"/>
<path fill-rule="evenodd" clip-rule="evenodd" d="M12.1465 3.57698C15.6062 3.6928 18.2941 5.16499 20.1739 8.06419C20.2782 8.22507 20.2602 8.30322 20.0921 8.39454C19.8541 8.52385 19.621 8.6673 19.4048 8.82937C19.2097 8.97563 19.1075 8.96495 18.9729 8.74318C18.3115 7.65305 17.4204 6.78327 16.3311 6.10935C13.3392 4.2583 9.3308 4.62162 6.72985 6.99467C4.86974 8.69181 3.98881 10.8039 4.08824 13.3038C4.23739 17.0576 7.21268 20.311 10.9818 20.7666C14.4089 21.1808 17.0762 19.8931 18.9765 17.0457C19.0665 16.9108 19.1231 16.8762 19.2659 16.9778C19.5235 17.1613 19.7909 17.3329 20.0647 17.4916C20.2277 17.5861 20.2134 17.6705 20.1232 17.8086C18.6216 20.1092 16.5284 21.5687 13.8018 22.0569C9.58254 22.8123 5.5172 20.7399 3.62417 16.92C1.44079 12.5144 3.27272 6.97352 7.66727 4.68417C9.06777 3.95461 10.5528 3.57061 12.1465 3.57698Z" fill="#74BC46"/>
<path fill-rule="evenodd" clip-rule="evenodd" d="M15.2295 10.6961C15.5766 11.4887 15.8927 12.2114 16.2096 12.9339C16.5095 13.6174 16.8094 14.3009 17.1108 14.9838C17.2982 15.4082 17.221 15.665 16.8206 15.9162C16.4029 16.1784 15.9323 16.2738 15.4503 16.3173C14.6905 16.3858 13.9421 16.3408 13.2407 16.0075C12.6749 15.7386 12.5755 15.452 12.8249 14.8846C13.433 13.5016 14.037 12.1168 14.6529 10.7373C14.7417 10.5382 14.7269 10.4498 14.5074 10.3663C12.9061 9.75734 11.3067 9.7201 9.69794 10.3355C9.51745 10.4045 9.4637 10.4609 9.55163 10.658C10.193 12.0954 10.8199 13.5391 11.4538 14.9798C11.6424 15.4086 11.5693 15.6647 11.1708 15.9137C10.9859 16.0293 10.7876 16.1195 10.576 16.1744C9.6684 16.4101 8.76342 16.4174 7.86662 16.1234C7.7215 16.0759 7.57961 16.0095 7.44839 15.9317C7.00918 15.6713 6.93373 15.4225 7.13581 14.9627C7.72565 13.6203 8.3145 12.2776 8.90341 10.9348C8.9347 10.8635 8.96299 10.7908 9.01598 10.6623C8.88351 10.7347 8.79842 10.7755 8.71937 10.8256C8.57671 10.9161 8.44021 11.0166 8.30818 10.8093C8.17822 10.6053 8.34405 10.5355 8.4715 10.458C9.34252 9.92842 10.2837 9.59861 11.3023 9.48927C12.9159 9.31608 14.396 9.71799 15.7897 10.5008C15.9288 10.5789 16.0423 10.6509 15.9288 10.832C15.8219 11.0025 15.6964 10.9649 15.5583 10.8815C15.4734 10.8303 15.3855 10.7838 15.2295 10.6961ZM9.31205 11.1033C9.27542 11.1378 9.25683 11.1476 9.25023 11.1626C8.72554 12.3542 8.20369 13.547 7.67583 14.7372C7.59668 14.9157 7.69398 14.9074 7.81887 14.907C8.70728 14.9049 9.59574 14.9058 10.4842 14.9057C10.6357 14.9057 10.7873 14.9057 10.9795 14.9057C10.4142 13.6168 9.86542 12.3653 9.31205 11.1033ZM14.9675 11.108C14.9307 11.1416 14.9033 11.1553 14.8939 11.1768C14.3744 12.3607 13.858 13.546 13.3364 14.7291C13.265 14.891 13.3319 14.9081 13.4728 14.9076C14.4519 14.9042 15.4311 14.9019 16.4102 14.9089C16.6225 14.9104 16.6043 14.8355 16.5366 14.6871C16.3578 14.295 16.1919 13.8971 16.019 13.5024C15.671 12.708 15.3216 11.9142 14.9675 11.108Z" fill="#F3FAF6"/>
<path fill-rule="evenodd" clip-rule="evenodd" d="M9.31234 11.1033C9.86576 12.3652 10.4145 13.6167 10.9797 14.9057C10.7875 14.9057 10.636 14.9057 10.4844 14.9057C9.59603 14.9058 8.70757 14.9049 7.81911 14.907C7.69422 14.9073 7.59691 14.9156 7.67607 14.7372C8.20392 13.5469 8.72578 12.3541 9.25047 11.1625C9.25707 11.1476 9.27565 11.1378 9.31234 11.1033Z" fill="#04A650"/>
<path fill-rule="evenodd" clip-rule="evenodd" d="M14.9676 11.1079C15.3217 11.9141 15.6711 12.7079 16.0191 13.5023C16.192 13.897 16.3579 14.2949 16.5367 14.687C16.6043 14.8354 16.6226 14.9104 16.4103 14.9088C15.4312 14.9018 14.452 14.9041 13.4729 14.9075C13.332 14.908 13.2651 14.8909 13.3365 14.729C13.8581 13.5459 14.3745 12.3607 14.894 11.1767C14.9034 11.1552 14.9308 11.1415 14.9676 11.1079Z" fill="#04A650"/>
<path d="M28.8706 14.0564V16.5848H27.6323V9.69878H30.0701C30.8053 9.69878 31.376 9.86798 31.7823 10.2064C32.1886 10.5448 32.3918 11.0364 32.3918 11.6813C32.3918 12.4027 32.1693 12.9806 31.7243 13.4147C31.2857 13.8425 30.6924 14.0564 29.9443 14.0564H28.8706ZM28.8706 13.1083H29.8089C30.241 13.1083 30.5667 12.9965 30.7859 12.7731C31.0117 12.5432 31.1245 12.2112 31.1245 11.777C31.1245 11.0172 30.7182 10.6373 29.9056 10.6373H28.8706V13.1083Z" fill="#004D43"/>
<path d="M36.7572 14.2384H34.0002C34.0066 14.7172 34.1163 15.0844 34.3291 15.3398C34.5419 15.5888 34.8353 15.7133 35.2094 15.7133C35.6673 15.7133 36.1284 15.5856 36.5927 15.3302L36.6604 16.3358C36.2219 16.572 35.6963 16.6901 35.0836 16.6901C33.5423 16.6901 32.7716 15.7867 32.7716 13.9798C32.7716 13.0987 32.9619 12.4474 33.3424 12.026C33.7293 11.5983 34.2356 11.3844 34.8611 11.3844C36.1252 11.3844 36.7572 12.1825 36.7572 13.7787V14.2384ZM35.6157 13.4914C35.6157 12.6741 35.3577 12.2655 34.8418 12.2655C34.5645 12.2655 34.3549 12.3804 34.213 12.6102C34.0776 12.8401 34.0098 13.1338 34.0098 13.4914H35.6157Z" fill="#004D43"/>
<path d="M40.6001 11.8058L40.6485 11.4801H41.7319V16.5082C41.7319 17.9894 41.0419 18.7301 39.6618 18.7301C38.9717 18.7301 38.3687 18.6056 37.8528 18.3566L38.0366 17.3127C38.2365 17.434 38.4784 17.5329 38.7621 17.6095C39.0523 17.6925 39.32 17.7341 39.565 17.7341C40.2293 17.7341 40.5614 17.3063 40.5614 16.4507V16.1442C40.2454 16.4826 39.8391 16.6518 39.3425 16.6518C38.7815 16.6518 38.3333 16.4379 37.9979 16.0102C37.669 15.576 37.5045 14.9311 37.5045 14.0756C37.5045 13.6031 37.5658 13.1721 37.6883 12.7826C37.8173 12.3932 38.0301 12.0643 38.3268 11.7962C38.6299 11.5216 38.9975 11.3844 39.4296 11.3844C39.8617 11.3844 40.2519 11.5248 40.6001 11.8058ZM40.5227 15.311V12.639C40.2196 12.4219 39.9488 12.3134 39.7101 12.3134C39.0781 12.3134 38.7621 12.9071 38.7621 14.0947C38.7621 15.1674 39.0684 15.7037 39.6811 15.7037C39.9778 15.7037 40.2583 15.5728 40.5227 15.311Z" fill="#004D43"/>
<path d="M43.2884 12.5049L43.1433 11.6142C43.6076 11.461 44.1397 11.3844 44.7395 11.3844C45.4489 11.3844 45.9519 11.544 46.2486 11.8632C46.5452 12.1761 46.6936 12.7507 46.6936 13.5871V15.3876C46.6936 15.6558 46.7903 15.7899 46.9838 15.7899C47.074 15.7899 47.1772 15.7675 47.2933 15.7228L47.3804 16.5273C47.1353 16.6295 46.8612 16.6806 46.5581 16.6806C46.0938 16.6806 45.81 16.4858 45.7068 16.0963C45.2876 16.4858 44.8007 16.6806 44.2461 16.6806C43.7495 16.6806 43.369 16.5305 43.1046 16.2304C42.8466 15.9303 42.7177 15.5473 42.7177 15.0812C42.7177 13.9 43.3819 13.3094 44.7104 13.3094C44.9749 13.3094 45.2489 13.3413 45.5327 13.4052V13.1849C45.5327 12.5911 45.1941 12.2942 44.517 12.2942C44.1494 12.2942 43.7399 12.3644 43.2884 12.5049ZM45.5327 15.3398V14.1618C45.3134 14.0851 45.1071 14.0468 44.9136 14.0468C44.2493 14.0468 43.9172 14.3565 43.9172 14.9758C43.9172 15.2248 43.9752 15.4228 44.0913 15.5696C44.2074 15.7101 44.3783 15.7803 44.604 15.7803C44.9523 15.7803 45.2618 15.6335 45.5327 15.3398Z" fill="#004D43"/>
<path d="M50.8293 11.71V9.69878H52.0386V16.5848H50.9551L50.9164 16.1347C50.5617 16.4986 50.1393 16.6806 49.6492 16.6806C49.0881 16.6806 48.6399 16.4603 48.3045 16.0197C47.9756 15.5792 47.8112 14.9311 47.8112 14.0756C47.8112 13.6031 47.8757 13.1721 48.0046 12.7826C48.1336 12.3868 48.3497 12.0548 48.6528 11.7866C48.9559 11.5184 49.3299 11.3844 49.7749 11.3844C50.1619 11.3844 50.5133 11.4929 50.8293 11.71ZM50.839 15.3493V12.6198C50.5359 12.4027 50.2683 12.2942 50.0361 12.2942C49.3912 12.2942 49.0687 12.8944 49.0687 14.0947C49.0687 14.631 49.1494 15.0397 49.3106 15.3206C49.4718 15.6015 49.7008 15.742 49.9974 15.742C50.2941 15.742 50.5746 15.6111 50.839 15.3493Z" fill="#004D43"/>
<path d="M53.595 12.5049L53.4499 11.6142C53.9143 11.461 54.4463 11.3844 55.0461 11.3844C55.7555 11.3844 56.2585 11.544 56.5552 11.8632C56.8518 12.1761 57.0002 12.7507 57.0002 13.5871V15.3876C57.0002 15.6558 57.0969 15.7899 57.2904 15.7899C57.3807 15.7899 57.4839 15.7675 57.5999 15.7228L57.687 16.5273C57.4419 16.6295 57.1678 16.6806 56.8647 16.6806C56.4004 16.6806 56.1166 16.4858 56.0135 16.0963C55.5943 16.4858 55.1074 16.6806 54.5527 16.6806C54.0561 16.6806 53.6757 16.5305 53.4112 16.2304C53.1533 15.9303 53.0243 15.5473 53.0243 15.0812C53.0243 13.9 53.6886 13.3094 55.0171 13.3094C55.2815 13.3094 55.5556 13.3413 55.8393 13.4052V13.1849C55.8393 12.5911 55.5008 12.2942 54.8236 12.2942C54.456 12.2942 54.0465 12.3644 53.595 12.5049ZM55.8393 15.3398V14.1618C55.6201 14.0851 55.4137 14.0468 55.2202 14.0468C54.556 14.0468 54.2238 14.3565 54.2238 14.9758C54.2238 15.2248 54.2819 15.4228 54.398 15.5696C54.514 15.7101 54.6849 15.7803 54.9107 15.7803C55.2589 15.7803 55.5685 15.6335 55.8393 15.3398Z" fill="#004D43"/>
<path d="M58.4734 11.4801H59.6827V16.5848H58.4734V11.4801ZM58.3767 10.1489C58.3767 9.93183 58.4412 9.76263 58.5702 9.64132C58.6992 9.52001 58.8668 9.45935 59.0732 9.45935C59.2989 9.45935 59.4731 9.52001 59.5956 9.64132C59.7181 9.75624 59.7794 9.92544 59.7794 10.1489C59.7794 10.3724 59.7117 10.5448 59.5762 10.6661C59.4473 10.781 59.2796 10.8385 59.0732 10.8385C58.8604 10.8385 58.6895 10.7778 58.5605 10.6565C58.438 10.5288 58.3767 10.3596 58.3767 10.1489Z" fill="#004D43"/>
<path d="M61.2376 12.5049L61.0925 11.6142C61.5569 11.461 62.0889 11.3844 62.6887 11.3844C63.3981 11.3844 63.9011 11.544 64.1978 11.8632C64.4944 12.1761 64.6428 12.7507 64.6428 13.5871V15.3876C64.6428 15.6558 64.7395 15.7899 64.933 15.7899C65.0233 15.7899 65.1264 15.7675 65.2425 15.7228L65.3296 16.5273C65.0845 16.6295 64.8104 16.6806 64.5073 16.6806C64.043 16.6806 63.7592 16.4858 63.656 16.0963C63.2368 16.4858 62.7499 16.6806 62.1953 16.6806C61.6987 16.6806 61.3182 16.5305 61.0538 16.2304C60.7959 15.9303 60.6669 15.5473 60.6669 15.0812C60.6669 13.9 61.3311 13.3094 62.6596 13.3094C62.9241 13.3094 63.1982 13.3413 63.4819 13.4052V13.1849C63.4819 12.5911 63.1433 12.2942 62.4662 12.2942C62.0986 12.2942 61.6891 12.3644 61.2376 12.5049ZM63.4819 15.3398V14.1618C63.2626 14.0851 63.0563 14.0468 62.8628 14.0468C62.1985 14.0468 61.8664 14.3565 61.8664 14.9758C61.8664 15.2248 61.9244 15.4228 62.0405 15.5696C62.1566 15.7101 62.3275 15.7803 62.5532 15.7803C62.9015 15.7803 63.211 15.6335 63.4819 15.3398Z" fill="#004D43"/>
<path d="M67.2188 11.4801L67.2575 11.9877C67.7219 11.5855 68.2313 11.3844 68.786 11.3844C69.6179 11.3844 70.0887 11.7387 70.1983 12.4474C70.2241 12.6071 70.237 12.8209 70.237 13.0891V16.5848H69.0278V13.2423C69.0278 13.0444 69.0246 12.9135 69.0181 12.8497C68.9794 12.5368 68.7666 12.3804 68.3797 12.3804C68.0443 12.3804 67.6961 12.54 67.3349 12.8593V16.5848H66.116V11.4801H67.2188Z" fill="#004D43"/>
<path d="M73.9129 16.5848V9.69878H76.1379C77.0085 9.69878 77.6889 9.93821 78.179 10.4171C78.6692 10.8959 78.9142 11.7036 78.9142 12.8401C78.9142 13.4275 78.8594 13.9447 78.7498 14.3916C78.6466 14.8322 78.5047 15.1897 78.3241 15.4643C78.15 15.7388 77.9307 15.9623 77.6663 16.1347C77.4019 16.307 77.1278 16.4252 76.8441 16.489C76.5603 16.5529 76.2411 16.5848 75.8864 16.5848H73.9129ZM75.1512 10.6278V15.6558H75.9638C76.5248 15.6558 76.9376 15.4483 77.202 15.0333C77.4728 14.6183 77.6083 13.9383 77.6083 12.9933C77.6083 12.1442 77.4857 11.5376 77.2407 11.1737C76.9956 10.8097 76.6119 10.6278 76.0895 10.6278H75.1512Z" fill="#004D43"/>
<path d="M80.0314 11.4801H81.2406V16.5848H80.0314V11.4801ZM79.9346 10.1489C79.9346 9.93183 79.9991 9.76263 80.1281 9.64132C80.2571 9.52001 80.4248 9.45935 80.6311 9.45935C80.8569 9.45935 81.031 9.52001 81.1535 9.64132C81.2761 9.75624 81.3373 9.92544 81.3373 10.1489C81.3373 10.3724 81.2696 10.5448 81.1342 10.6661C81.0052 10.781 80.8375 10.8385 80.6311 10.8385C80.4183 10.8385 80.2474 10.7778 80.1184 10.6565C79.9959 10.5288 79.9346 10.3596 79.9346 10.1489Z" fill="#004D43"/>
<path d="M85.3881 11.8058L85.4365 11.4801H86.5199V16.5082C86.5199 17.9894 85.8299 18.7301 84.4498 18.7301C83.7597 18.7301 83.1567 18.6056 82.6408 18.3566L82.8246 17.3127C83.0245 17.434 83.2663 17.5329 83.5501 17.6095C83.8403 17.6925 84.108 17.7341 84.353 17.7341C85.0173 17.7341 85.3494 17.3063 85.3494 16.4507V16.1442C85.0334 16.4826 84.6271 16.6518 84.1305 16.6518C83.5695 16.6518 83.1212 16.4379 82.7859 16.0102C82.457 15.576 82.2925 14.9311 82.2925 14.0756C82.2925 13.6031 82.3538 13.1721 82.4763 12.7826C82.6053 12.3932 82.8181 12.0643 83.1148 11.7962C83.4179 11.5216 83.7855 11.3844 84.2176 11.3844C84.6497 11.3844 85.0399 11.5248 85.3881 11.8058ZM85.3107 15.311V12.639C85.0076 12.4219 84.7367 12.3134 84.4981 12.3134C83.8661 12.3134 83.5501 12.9071 83.5501 14.0947C83.5501 15.1674 83.8564 15.7037 84.4691 15.7037C84.7658 15.7037 85.0463 15.5728 85.3107 15.311Z" fill="#004D43"/>
<path d="M87.8346 11.4801H89.0438V16.5848H87.8346V11.4801ZM87.7378 10.1489C87.7378 9.93183 87.8023 9.76263 87.9313 9.64132C88.0603 9.52001 88.228 9.45935 88.4343 9.45935C88.66 9.45935 88.8342 9.52001 88.9567 9.64132C89.0792 9.75624 89.1405 9.92544 89.1405 10.1489C89.1405 10.3724 89.0728 10.5448 88.9374 10.6661C88.8084 10.781 88.6407 10.8385 88.4343 10.8385C88.2215 10.8385 88.0506 10.7778 87.9216 10.6565C87.7991 10.5288 87.7378 10.3596 87.7378 10.1489Z" fill="#004D43"/>
<path d="M92.8237 12.3421H91.6628V14.9567C91.6628 15.1099 91.6693 15.2344 91.6822 15.3302C91.7015 15.4259 91.7467 15.5121 91.8176 15.5888C91.895 15.6654 92.0014 15.7037 92.1369 15.7037C92.311 15.7037 92.5303 15.643 92.7947 15.5217L92.9301 16.4411C92.5754 16.6071 92.1949 16.6901 91.7886 16.6901C90.8922 16.6901 90.444 16.224 90.444 15.2919V12.3421H89.7765V11.4801H90.444V10.6278L91.6628 10.0436V11.4801H92.8237V12.3421Z" fill="#004D43"/>
<path d="M94.0185 12.5049L93.8734 11.6142C94.3378 11.461 94.8698 11.3844 95.4696 11.3844C96.179 11.3844 96.682 11.544 96.9787 11.8632C97.2753 12.1761 97.4237 12.7507 97.4237 13.5871V15.3876C97.4237 15.6558 97.5204 15.7899 97.7139 15.7899C97.8042 15.7899 97.9073 15.7675 98.0234 15.7228L98.1105 16.5273C97.8654 16.6295 97.5913 16.6806 97.2882 16.6806C96.8239 16.6806 96.5401 16.4858 96.437 16.0963C96.0178 16.4858 95.5309 16.6806 94.9762 16.6806C94.4796 16.6806 94.0992 16.5305 93.8347 16.2304C93.5768 15.9303 93.4478 15.5473 93.4478 15.0812C93.4478 13.9 94.112 13.3094 95.4406 13.3094C95.705 13.3094 95.9791 13.3413 96.2628 13.4052V13.1849C96.2628 12.5911 95.9242 12.2942 95.2471 12.2942C94.8795 12.2942 94.47 12.3644 94.0185 12.5049ZM96.2628 15.3398V14.1618C96.0436 14.0851 95.8372 14.0468 95.6437 14.0468C94.9795 14.0468 94.6473 14.3565 94.6473 14.9758C94.6473 15.2248 94.7054 15.4228 94.8214 15.5696C94.9375 15.7101 95.1084 15.7803 95.3342 15.7803C95.6824 15.7803 95.992 15.6335 96.2628 15.3398Z" fill="#004D43"/>
<path d="M98.7541 15.2152V9.69878H99.9633V15.0429C99.9633 15.2727 99.9988 15.4387 100.07 15.5409C100.147 15.643 100.273 15.6941 100.447 15.6941C100.647 15.6941 100.866 15.6366 101.105 15.5217L101.25 16.4411C100.902 16.6071 100.521 16.6901 100.108 16.6901C99.6054 16.6901 99.2539 16.5656 99.054 16.3166C98.8541 16.0612 98.7541 15.6941 98.7541 15.2152Z" fill="#004D43"/>
</svg>
