<svg width="202" height="48" viewBox="0 0 202 48" fill="none" xmlns="http://www.w3.org/2000/svg">
<path fill-rule="evenodd" clip-rule="evenodd" d="M24.1666 10.8057C31.8583 10.8055 38.0568 16.8239 38.0623 24.2979C38.068 31.7319 31.8518 37.7954 24.2219 37.7987C16.5024 37.802 10.303 31.7765 10.3074 24.2744C10.3116 16.8252 16.5054 10.806 24.1666 10.8057ZM30.3839 19.9883C30.6952 20.1601 30.8705 20.2511 31.0399 20.3515C31.3153 20.5148 31.5657 20.5885 31.779 20.2546C32.0055 19.9 31.779 19.7589 31.5015 19.6059C28.721 18.0729 25.7682 17.2859 22.5489 17.625C20.5168 17.8391 18.639 18.4851 16.9013 19.5221C16.647 19.6738 16.3161 19.8105 16.5754 20.21C16.8388 20.616 17.1113 20.4192 17.3958 20.242C17.5535 20.1438 17.7232 20.0639 17.9875 19.9222C17.8818 20.1739 17.8254 20.3162 17.7629 20.4559C16.588 23.0855 15.4132 25.715 14.2365 28.3438C13.8333 29.2443 13.9838 29.7315 14.8601 30.2414C15.1219 30.3937 15.4051 30.5238 15.6945 30.617C17.4838 31.1925 19.2891 31.1784 21.0998 30.7168C21.5219 30.6092 21.9176 30.4326 22.2865 30.2062C23.0815 29.7187 23.2276 29.2171 22.8512 28.3773C21.5866 25.556 20.3358 22.7286 19.0562 19.9138C18.8808 19.528 18.9881 19.4174 19.3481 19.2822C22.5576 18.0772 25.7485 18.15 28.9432 19.3426C29.3812 19.5061 29.4108 19.6792 29.2335 20.069C28.0048 22.7707 26.7997 25.4825 25.5866 28.1909C25.0891 29.3019 25.2873 29.8632 26.4161 30.3898C27.8154 31.0427 29.3086 31.1307 30.8244 30.9965C31.7861 30.9113 32.7248 30.7248 33.5583 30.2111C34.357 29.7191 34.511 29.2162 34.1373 28.3852C33.536 27.0479 32.9375 25.7093 32.3392 24.3707C31.7071 22.9557 31.0764 21.5403 30.3839 19.9883Z" fill="#02A750"/>
<path fill-rule="evenodd" clip-rule="evenodd" d="M24.1337 47.7886C17.1936 47.6977 11.283 45.2421 6.5214 40.3386C2.68965 36.3929 0.559628 31.6587 0.0924048 26.2373C0.0500981 25.7466 0.0482492 25.2529 0.00365854 24.7625C-0.0202682 24.4997 0.0713058 24.4334 0.333303 24.4396C1.03871 24.4562 1.7452 24.4567 2.4506 24.4382C2.78742 24.4294 2.72053 24.6402 2.72652 24.8242C2.78622 26.6802 3.05953 28.5069 3.61811 30.2821C4.65784 33.5867 6.41569 36.4846 8.92429 38.9429C11.6761 41.6396 14.9335 43.5062 18.7171 44.457C22.7558 45.4719 26.7809 45.3916 30.7608 44.1296C35.6278 42.5863 39.4618 39.717 42.2312 35.5434C44.6761 31.8586 45.7885 27.8032 45.597 23.4134C45.3704 18.2178 43.3962 13.7155 39.7412 9.96162C36.1114 6.23359 31.6182 4.08289 26.3375 3.56595C21.9616 3.13759 17.8312 3.93608 13.9638 5.97718C13.6659 6.13445 13.4846 6.13413 13.3072 5.8345C13.0004 5.3164 12.6871 4.8001 12.3431 4.30494C12.1349 4.00541 12.215 3.86728 12.5139 3.70568C14.3453 2.71578 16.281 1.977 18.3106 1.49198C22.0667 0.594455 25.8449 0.548586 29.6154 1.39612C34.3088 2.45113 38.3451 4.66947 41.658 8.06817C45.7771 12.294 48.0196 17.3289 48.3136 23.1539C48.6007 28.8415 46.9757 33.9886 43.4278 38.5045C39.6111 43.3624 34.5616 46.3406 28.3564 47.4387C26.9609 47.6859 25.5556 47.7882 24.1337 47.7886Z" fill="#BAD333"/>
<path fill-rule="evenodd" clip-rule="evenodd" d="M24.2332 6.04654C31.1355 6.27335 36.4981 9.15639 40.2483 14.834C40.4565 15.1491 40.4205 15.3021 40.0851 15.4809C39.6103 15.7342 39.1453 16.0151 38.714 16.3325C38.3246 16.6189 38.1207 16.598 37.8523 16.1637C36.5327 14.0288 34.7549 12.3255 32.5818 11.0058C26.6127 7.38078 18.6157 8.09229 13.4266 12.7395C9.7156 16.0631 7.95808 20.1992 8.15645 25.095C8.45401 32.446 14.3899 38.8173 21.9095 39.7095C28.7468 40.5208 34.0682 37.999 37.8594 32.4227C38.0389 32.1586 38.1519 32.0909 38.4369 32.2899C38.9508 32.6491 39.4842 32.9852 40.0305 33.2961C40.3556 33.481 40.3271 33.6464 40.1472 33.9169C37.1514 38.4222 32.9754 41.2803 27.5355 42.2363C19.1179 43.7158 11.0073 39.6573 7.2306 32.1767C2.87463 23.5489 6.52943 12.6981 15.2968 8.21479C18.0909 6.78606 21.0537 6.03407 24.2332 6.04654Z" fill="#74BC46"/>
<path fill-rule="evenodd" clip-rule="evenodd" d="M30.3838 19.9882C31.0763 21.5404 31.7069 22.9557 32.3391 24.3705C32.9374 25.7091 33.5359 27.0477 34.1372 28.385C34.5109 29.216 34.3569 29.7189 33.5582 30.2109C32.7248 30.7245 31.786 30.9111 30.8244 30.9963C29.3085 31.1305 27.8154 31.0425 26.4161 30.3896C25.2873 29.8631 25.089 29.3018 25.5866 28.1907C26.7997 25.4823 28.0047 22.7705 29.2335 20.0688C29.4107 19.679 29.3812 19.5059 28.9432 19.3424C25.7484 18.1498 22.5577 18.0769 19.348 19.2821C18.9879 19.4171 18.8807 19.5277 19.0561 19.9136C20.3358 22.7284 21.5865 25.5558 22.8511 28.3771C23.2274 29.2168 23.0815 29.7184 22.2865 30.2061C21.9175 30.4324 21.5219 30.609 21.0998 30.7166C19.2891 31.1781 17.4836 31.1924 15.6944 30.6168C15.4049 30.5237 15.1218 30.3937 14.86 30.2412C13.9838 29.7313 13.8333 29.2442 14.2364 28.3436C15.4132 25.7148 16.588 23.0853 17.7629 20.4558C17.8253 20.316 17.8818 20.1737 17.9875 19.922C17.7232 20.0639 17.5534 20.1438 17.3957 20.2418C17.1111 20.4191 16.8388 20.6158 16.5754 20.2098C16.3161 19.8104 16.6469 19.6736 16.9012 19.5219C18.6389 18.4848 20.5167 17.839 22.5489 17.6248C25.7681 17.2857 28.7209 18.0727 31.5015 19.6057C31.7789 19.7586 32.0055 19.8997 31.7789 20.2544C31.5657 20.5883 31.3153 20.5146 31.0398 20.3513C30.8704 20.251 30.6951 20.1599 30.3838 19.9882ZM18.5782 20.7856C18.5051 20.8532 18.468 20.8723 18.4548 20.9017C17.408 23.2352 16.3669 25.5712 15.3138 27.9021C15.1559 28.2516 15.35 28.2353 15.5992 28.2346C17.3716 28.2305 19.1441 28.2322 20.9167 28.232C21.219 28.232 21.5214 28.232 21.9048 28.232C20.777 25.7079 19.6822 23.257 18.5782 20.7856ZM29.861 20.7948C29.7876 20.8607 29.733 20.8875 29.7142 20.9295C28.6779 23.2481 27.6476 25.5693 26.6069 27.8862C26.4645 28.2032 26.598 28.2366 26.879 28.2358C28.8325 28.2291 30.786 28.2246 32.7393 28.2383C33.163 28.2413 33.1266 28.0945 32.9915 27.8039C32.6349 27.036 32.304 26.2567 31.959 25.4838C31.2647 23.9282 30.5675 22.3737 29.861 20.7948Z" fill="#F3FAF6"/>
<path fill-rule="evenodd" clip-rule="evenodd" d="M18.5784 20.7856C19.6825 23.257 20.7772 25.7078 21.9049 28.232C21.5215 28.232 21.2191 28.232 20.9168 28.232C19.1444 28.2322 17.3718 28.2305 15.5993 28.2346C15.3501 28.2353 15.156 28.2515 15.3139 27.9021C16.367 25.5711 17.4081 23.2352 18.4549 20.9017C18.4681 20.8724 18.5052 20.8532 18.5784 20.7856Z" fill="#04A650"/>
<path fill-rule="evenodd" clip-rule="evenodd" d="M29.8612 20.7949C30.5677 22.3737 31.2648 23.9282 31.9592 25.4839C32.3042 26.2568 32.6351 27.0362 32.9917 27.804C33.1267 28.0946 33.1631 28.2415 32.7395 28.2384C30.7862 28.2246 28.8327 28.2292 26.8792 28.2359C26.5982 28.2368 26.4647 28.2033 26.6071 27.8862C27.6478 25.5694 28.6781 23.2482 29.7144 20.9296C29.7332 20.8876 29.7878 20.8608 29.8612 20.7949Z" fill="#04A650"/>
<path d="M57.5988 26.569V31.5204H55.1284V18.0353H59.9919C61.4587 18.0353 62.5974 18.3666 63.4079 19.0293C64.2185 19.692 64.6238 20.6548 64.6238 21.9176C64.6238 23.3305 64.1799 24.4621 63.2921 25.3124C62.4172 26.1501 61.2335 26.569 59.741 26.569H57.5988ZM57.5988 24.7122H59.4708C60.3329 24.7122 60.9826 24.4934 61.4201 24.0558C61.8704 23.6056 62.0956 22.9554 62.0956 22.1052C62.0956 20.6173 61.285 19.8733 59.6638 19.8733H57.5988V24.7122Z" fill="#004D43"/>
<path d="M73.333 26.9253H67.8327C67.8455 27.8631 68.0643 28.582 68.4889 29.0822C68.9134 29.5698 69.4989 29.8136 70.2451 29.8136C71.1586 29.8136 72.0786 29.5636 73.005 29.0634L73.1401 31.0327C72.2651 31.4954 71.2165 31.7267 69.9942 31.7267C66.9192 31.7267 65.3816 29.9574 65.3816 26.4189C65.3816 24.6934 65.7612 23.4181 66.5203 22.5928C67.2923 21.7551 68.3023 21.3362 69.5503 21.3362C72.0721 21.3362 73.333 22.8992 73.333 26.0251V26.9253ZM71.0557 25.4624C71.0557 23.862 70.541 23.0617 69.5117 23.0617C68.9585 23.0617 68.5403 23.2868 68.2573 23.7369C67.9871 24.187 67.852 24.7622 67.852 25.4624H71.0557Z" fill="#004D43"/>
<path d="M81 22.1615L81.0965 21.5238H83.258V31.3703C83.258 34.2712 81.8813 35.7216 79.1279 35.7216C77.7512 35.7216 76.5482 35.4778 75.5189 34.9901L75.8856 32.9458C76.2844 33.1834 76.7669 33.3772 77.333 33.5272C77.912 33.6898 78.446 33.771 78.9349 33.771C80.2601 33.771 80.9228 32.9333 80.9228 31.2578V30.6576C80.2923 31.3203 79.4817 31.6517 78.491 31.6517C77.3716 31.6517 76.4774 31.2328 75.8084 30.3951C75.1522 29.5448 74.8241 28.282 74.8241 26.6065C74.8241 25.6812 74.9463 24.8372 75.1908 24.0745C75.4481 23.3118 75.8727 22.6679 76.4646 22.1427C77.0693 21.6051 77.8027 21.3362 78.6647 21.3362C79.5268 21.3362 80.3052 21.6113 81 22.1615ZM80.8456 29.0259V23.7932C80.2408 23.3681 79.7005 23.1555 79.2244 23.1555C77.9635 23.1555 77.333 24.3183 77.333 26.644C77.333 28.7446 77.9442 29.7949 79.1665 29.7949C79.7584 29.7949 80.318 29.5386 80.8456 29.0259Z" fill="#004D43"/>
<path d="M86.3633 23.5306L86.0738 21.7864C87.0002 21.4863 88.0616 21.3362 89.2582 21.3362C90.6735 21.3362 91.6771 21.6488 92.269 22.274C92.8608 22.8867 93.1567 24.012 93.1567 25.65V29.176C93.1567 29.7011 93.3497 29.9637 93.7357 29.9637C93.9159 29.9637 94.1217 29.9199 94.3533 29.8324L94.527 31.4079C94.0381 31.6079 93.4913 31.7079 92.8865 31.7079C91.9602 31.7079 91.394 31.3266 91.1882 30.5639C90.3519 31.3266 89.3804 31.7079 88.2739 31.7079C87.2832 31.7079 86.5241 31.4141 85.9966 30.8264C85.4819 30.2388 85.2246 29.4886 85.2246 28.5758C85.2246 26.2626 86.5498 25.1061 89.2003 25.1061C89.7278 25.1061 90.2747 25.1686 90.8408 25.2936V24.8622C90.8408 23.6994 90.1653 23.118 88.8143 23.118C88.0809 23.118 87.2639 23.2555 86.3633 23.5306ZM90.8408 29.0822V26.7753C90.4033 26.6252 89.9916 26.5502 89.6056 26.5502C88.2804 26.5502 87.6178 27.1566 87.6178 28.3695C87.6178 28.8571 87.7336 29.2447 87.9651 29.5323C88.1967 29.8074 88.5377 29.9449 88.988 29.9449C89.6828 29.9449 90.3004 29.6574 90.8408 29.0822Z" fill="#004D43"/>
<path d="M101.408 21.9739V18.0353H103.82V31.5204H101.659L101.582 30.6389C100.874 31.3516 100.031 31.7079 99.0534 31.7079C97.934 31.7079 97.0398 31.2766 96.3707 30.4138C95.7145 29.5511 95.3864 28.282 95.3864 26.6065C95.3864 25.6812 95.5151 24.8372 95.7724 24.0745C96.0298 23.2993 96.4608 22.6491 97.0655 22.124C97.6702 21.5988 98.4165 21.3362 99.3042 21.3362C100.076 21.3362 100.777 21.5488 101.408 21.9739ZM101.427 29.1009V23.7557C100.822 23.3306 100.289 23.118 99.8253 23.118C98.5387 23.118 97.8954 24.2933 97.8954 26.644C97.8954 27.6943 98.0562 28.4945 98.3779 29.0447C98.6995 29.5948 99.1563 29.8699 99.7481 29.8699C100.34 29.8699 100.9 29.6136 101.427 29.1009Z" fill="#004D43"/>
<path d="M106.926 23.5306L106.636 21.7864C107.563 21.4863 108.624 21.3362 109.821 21.3362C111.236 21.3362 112.239 21.6488 112.831 22.274C113.423 22.8867 113.719 24.012 113.719 25.65V29.176C113.719 29.7011 113.912 29.9637 114.298 29.9637C114.478 29.9637 114.684 29.9199 114.916 29.8324L115.089 31.4079C114.6 31.6079 114.054 31.7079 113.449 31.7079C112.523 31.7079 111.956 31.3266 111.751 30.5639C110.914 31.3266 109.943 31.7079 108.836 31.7079C107.846 31.7079 107.086 31.4141 106.559 30.8264C106.044 30.2388 105.787 29.4886 105.787 28.5758C105.787 26.2626 107.112 25.1061 109.763 25.1061C110.29 25.1061 110.837 25.1686 111.403 25.2936V24.8622C111.403 23.6994 110.728 23.118 109.377 23.118C108.643 23.118 107.826 23.2555 106.926 23.5306ZM111.403 29.0822V26.7753C110.966 26.6252 110.554 26.5502 110.168 26.5502C108.843 26.5502 108.18 27.1566 108.18 28.3695C108.18 28.8571 108.296 29.2447 108.527 29.5323C108.759 29.8074 109.1 29.9449 109.55 29.9449C110.245 29.9449 110.863 29.6574 111.403 29.0822Z" fill="#004D43"/>
<path d="M116.658 21.5238H119.071V31.5204H116.658V21.5238ZM116.465 18.9168C116.465 18.4917 116.594 18.1603 116.851 17.9228C117.109 17.6852 117.443 17.5664 117.855 17.5664C118.305 17.5664 118.653 17.6852 118.897 17.9228C119.142 18.1478 119.264 18.4792 119.264 18.9168C119.264 19.3544 119.129 19.692 118.859 19.9296C118.601 20.1546 118.267 20.2672 117.855 20.2672C117.43 20.2672 117.089 20.1484 116.832 19.9108C116.588 19.6608 116.465 19.3294 116.465 18.9168Z" fill="#004D43"/>
<path d="M122.173 23.5306L121.884 21.7864C122.81 21.4863 123.871 21.3362 125.068 21.3362C126.483 21.3362 127.487 21.6488 128.079 22.274C128.671 22.8867 128.966 24.012 128.966 25.65V29.176C128.966 29.7011 129.16 29.9637 129.545 29.9637C129.726 29.9637 129.931 29.9199 130.163 29.8324L130.337 31.4079C129.848 31.6079 129.301 31.7079 128.696 31.7079C127.77 31.7079 127.204 31.3266 126.998 30.5639C126.162 31.3266 125.19 31.7079 124.084 31.7079C123.093 31.7079 122.334 31.4141 121.806 30.8264C121.292 30.2388 121.034 29.4886 121.034 28.5758C121.034 26.2626 122.36 25.1061 125.01 25.1061C125.538 25.1061 126.084 25.1686 126.651 25.2936V24.8622C126.651 23.6994 125.975 23.118 124.624 23.118C123.891 23.118 123.074 23.2555 122.173 23.5306ZM126.651 29.0822V26.7753C126.213 26.6252 125.801 26.5502 125.415 26.5502C124.09 26.5502 123.428 27.1566 123.428 28.3695C123.428 28.8571 123.543 29.2447 123.775 29.5323C124.007 29.8074 124.347 29.9449 124.798 29.9449C125.493 29.9449 126.11 29.6574 126.651 29.0822Z" fill="#004D43"/>
<path d="M134.106 21.5238L134.183 22.5178C135.109 21.7301 136.126 21.3362 137.232 21.3362C138.892 21.3362 139.831 22.0302 140.05 23.4181C140.102 23.7307 140.127 24.1495 140.127 24.6747V31.5204H137.715V24.9748C137.715 24.5872 137.709 24.3308 137.696 24.2058C137.618 23.5931 137.194 23.2868 136.422 23.2868C135.753 23.2868 135.058 23.5994 134.338 24.2246V31.5204H131.906V21.5238H134.106Z" fill="#004D43"/>
<path d="M147.461 31.5204V18.0353H151.9C153.637 18.0353 154.994 18.5042 155.972 19.4419C156.95 20.3797 157.439 21.9614 157.439 24.187C157.439 25.3374 157.33 26.3502 157.111 27.2254C156.905 28.0882 156.622 28.7884 156.262 29.326C155.914 29.8637 155.477 30.3013 154.949 30.6389C154.422 30.9765 153.875 31.2078 153.309 31.3328C152.743 31.4579 152.106 31.5204 151.398 31.5204H147.461ZM149.931 19.8546V29.7011H151.553C152.672 29.7011 153.495 29.2948 154.023 28.482C154.563 27.6693 154.834 26.3377 154.834 24.4871C154.834 22.8242 154.589 21.6363 154.1 20.9236C153.611 20.2109 152.846 19.8546 151.803 19.8546H149.931Z" fill="#004D43"/>
<path d="M159.668 21.5238H162.08V31.5204H159.668V21.5238ZM159.475 18.9168C159.475 18.4917 159.603 18.1603 159.861 17.9228C160.118 17.6852 160.453 17.5664 160.864 17.5664C161.315 17.5664 161.662 17.6852 161.907 17.9228C162.151 18.1478 162.273 18.4792 162.273 18.9168C162.273 19.3544 162.138 19.692 161.868 19.9296C161.611 20.1546 161.276 20.2672 160.864 20.2672C160.44 20.2672 160.099 20.1484 159.841 19.9108C159.597 19.6608 159.475 19.3294 159.475 18.9168Z" fill="#004D43"/>
<path d="M170.355 22.1615L170.451 21.5238H172.613V31.3703C172.613 34.2712 171.236 35.7216 168.483 35.7216C167.106 35.7216 165.903 35.4778 164.874 34.9901L165.24 32.9458C165.639 33.1834 166.122 33.3772 166.688 33.5272C167.267 33.6898 167.801 33.771 168.29 33.771C169.615 33.771 170.278 32.9333 170.278 31.2578V30.6576C169.647 31.3203 168.837 31.6517 167.846 31.6517C166.726 31.6517 165.832 31.2328 165.163 30.3951C164.507 29.5448 164.179 28.282 164.179 26.6065C164.179 25.6812 164.301 24.8372 164.546 24.0745C164.803 23.3118 165.227 22.6679 165.819 22.1427C166.424 21.6051 167.157 21.3362 168.02 21.3362C168.882 21.3362 169.66 21.6113 170.355 22.1615ZM170.2 29.0259V23.7932C169.596 23.3681 169.055 23.1555 168.579 23.1555C167.318 23.1555 166.688 24.3183 166.688 26.644C166.688 28.7446 167.299 29.7949 168.521 29.7949C169.113 29.7949 169.673 29.5386 170.2 29.0259Z" fill="#004D43"/>
<path d="M175.236 21.5238H177.648V31.5204H175.236V21.5238ZM175.043 18.9168C175.043 18.4917 175.171 18.1603 175.429 17.9228C175.686 17.6852 176.02 17.5664 176.432 17.5664C176.882 17.5664 177.23 17.6852 177.474 17.9228C177.719 18.1478 177.841 18.4792 177.841 18.9168C177.841 19.3544 177.706 19.692 177.436 19.9296C177.178 20.1546 176.844 20.2672 176.432 20.2672C176.008 20.2672 175.667 20.1484 175.409 19.9108C175.165 19.6608 175.043 19.3294 175.043 18.9168Z" fill="#004D43"/>
<path d="M185.189 23.2118H182.873V28.332C182.873 28.6321 182.886 28.8759 182.912 29.0634C182.95 29.251 183.041 29.4198 183.182 29.5698C183.336 29.7199 183.549 29.7949 183.819 29.7949C184.166 29.7949 184.604 29.6761 185.131 29.4385L185.401 31.2391C184.694 31.5641 183.935 31.7267 183.124 31.7267C181.336 31.7267 180.441 30.8139 180.441 28.9884V23.2118H179.11V21.5238H180.441V19.8546L182.873 18.7105V21.5238H185.189V23.2118Z" fill="#004D43"/>
<path d="M187.573 23.5306L187.283 21.7864C188.21 21.4863 189.271 21.3362 190.468 21.3362C191.883 21.3362 192.887 21.6488 193.479 22.274C194.071 22.8867 194.366 24.012 194.366 25.65V29.176C194.366 29.7011 194.559 29.9637 194.945 29.9637C195.126 29.9637 195.331 29.9199 195.563 29.8324L195.737 31.4079C195.248 31.6079 194.701 31.7079 194.096 31.7079C193.17 31.7079 192.604 31.3266 192.398 30.5639C191.562 31.3266 190.59 31.7079 189.484 31.7079C188.493 31.7079 187.734 31.4141 187.206 30.8264C186.692 30.2388 186.434 29.4886 186.434 28.5758C186.434 26.2626 187.76 25.1061 190.41 25.1061C190.938 25.1061 191.484 25.1686 192.05 25.2936V24.8622C192.05 23.6994 191.375 23.118 190.024 23.118C189.291 23.118 188.474 23.2555 187.573 23.5306ZM192.05 29.0822V26.7753C191.613 26.6252 191.201 26.5502 190.815 26.5502C189.49 26.5502 188.827 27.1566 188.827 28.3695C188.827 28.8571 188.943 29.2447 189.175 29.5323C189.406 29.8074 189.747 29.9449 190.198 29.9449C190.893 29.9449 191.51 29.6574 192.05 29.0822Z" fill="#004D43"/>
<path d="M197.021 28.8384V18.0353H199.433V28.5008C199.433 28.9509 199.504 29.276 199.645 29.4761C199.8 29.6761 200.051 29.7761 200.398 29.7761C200.797 29.7761 201.234 29.6636 201.711 29.4385L202 31.2391C201.305 31.5641 200.546 31.7267 199.723 31.7267C198.719 31.7267 198.018 31.4829 197.619 30.9952C197.22 30.4951 197.021 29.7761 197.021 28.8384Z" fill="#004D43"/>
</svg>
