<svg width="202" height="32" viewBox="0 0 202 32" fill="none" xmlns="http://www.w3.org/2000/svg">
<path fill-rule="evenodd" clip-rule="evenodd" d="M24.1139 26.0464C22.2472 27.6843 20.0576 28.6704 17.6391 29.1044C10.232 30.4358 3.21883 26.0416 1.17425 18.8296C0.97156 18.1133 0.825144 17.3861 0.746928 16.6454C0.635805 16.4248 0.791282 16.166 0.648682 15.9492C0.648682 15.2998 0.648682 14.6504 0.648682 14.0009C0.76839 13.8157 0.680159 13.6098 0.70782 13.4145C0.755513 10.7681 1.81333 8.48367 3.31374 6.39165C5.41411 3.46302 8.29426 1.6704 11.7696 0.807047C12.3262 0.668566 12.8985 0.650421 13.4698 0.650898C13.6973 0.621292 13.9358 0.716318 14.1552 0.592163C14.7657 0.592163 15.3761 0.592163 15.9866 0.592163C16.174 0.712021 16.3815 0.623679 16.578 0.651376C19.3747 0.730644 21.7507 1.89006 23.9417 3.52366C24.0647 3.61535 24.1611 3.7352 24.1806 3.89899C24.1339 4.27958 23.8272 4.47918 23.584 4.70696C21.1588 6.97136 19.7452 9.77011 19.3079 13.0378C18.8605 16.379 19.492 19.5259 21.2709 22.4139C21.8938 23.4258 22.632 24.3445 23.501 25.1582C23.7357 25.3779 23.9908 25.5856 24.1463 25.8793C24.1682 25.9413 24.1568 25.9972 24.1139 26.0464Z" fill="#BCD430"/>
<path fill-rule="evenodd" clip-rule="evenodd" d="M24.1137 26.0464C24.107 26.0111 24.1027 25.9757 24.1003 25.9399C24.8858 25.2188 25.6246 24.4543 26.2723 23.6048C27.9348 21.4254 28.8682 18.9738 29.1295 16.2372C29.378 13.6366 28.9039 11.1802 27.8075 8.84133C27.0234 7.16905 25.9499 5.68922 24.5534 4.46199C24.3822 4.31157 24.1852 4.18073 24.1757 3.91809C24.2282 3.62012 24.4824 3.48785 24.6879 3.33456C26.3281 2.11545 28.1385 1.25401 30.1353 0.805137C30.6733 0.683847 31.2261 0.660926 31.7774 0.651376C32.0068 0.621292 32.2472 0.716318 32.4689 0.592163C33.0413 0.592163 33.6136 0.592163 34.1859 0.592163C34.4062 0.733987 34.6666 0.580703 34.8917 0.6891C37.831 0.993758 40.4279 2.09396 42.6627 4.03747C42.7033 4.33688 42.4734 4.48061 42.2965 4.64106C40.705 6.08986 39.4678 7.79413 38.7081 9.80879C36.7889 14.8968 37.4967 19.6194 40.7574 23.9639C41.1599 24.5002 41.6326 24.9705 42.1019 25.4461C42.2678 25.6142 42.5077 25.7551 42.4548 26.0569C40.7546 27.5754 38.7505 28.5152 36.5495 28.9898C32.1518 29.9377 28.1404 29.0309 24.5463 26.3095C24.4113 26.2064 24.2959 26.0707 24.1137 26.0464Z" fill="#74BD45"/>
<path fill-rule="evenodd" clip-rule="evenodd" d="M109.491 31.247C109.847 31.307 110.203 31.3668 110.532 31.5355C110.57 31.5355 110.608 31.5355 110.646 31.535C110.875 31.4414 111.104 31.4414 111.333 31.535H113.279C113.327 31.4088 113.424 31.4117 113.519 31.4146C113.555 31.4157 113.591 31.4167 113.623 31.4108C115.859 31.0045 117.269 29.7118 117.815 27.4961C117.97 26.8653 118.077 26.2226 118.078 25.5722C118.082 23.3894 118.085 21.2068 118.087 19.0241C118.09 16.205 118.092 13.3859 118.1 10.5666C118.101 10.113 117.913 9.95824 117.481 9.9697C116.776 9.98785 116.07 9.98689 115.365 9.9697C114.946 9.95967 114.583 9.98307 114.613 10.5929C114.441 10.5002 114.344 10.4477 114.246 10.3952C111.453 8.88907 108.355 9.75673 106.951 12.598C105.336 15.8642 105.302 19.2699 106.673 22.6269C107.529 24.7222 109.347 25.7136 111.609 25.6104C112.643 25.5636 113.559 25.1926 114.5 24.5856C114.497 24.6426 114.494 24.6987 114.491 24.754C114.464 25.3054 114.44 25.7794 114.333 26.2503C114.002 27.7125 113.18 28.3509 111.679 28.2735C110.368 28.2062 109.128 27.861 107.962 27.255C107.377 26.9513 107.21 27.0325 107.091 27.691C107.053 27.8968 107.018 28.1034 106.984 28.31C106.905 28.7805 106.826 29.2512 106.713 29.7137C106.608 30.1445 106.762 30.3522 107.13 30.5112C107.673 30.7457 108.233 30.9233 108.797 31.0981C109.023 31.1683 109.257 31.2077 109.491 31.247ZM114.415 18.4727C114.416 18.1661 114.417 17.8597 114.417 17.5532C114.417 17.272 114.417 16.9907 114.417 16.7095C114.417 15.8657 114.418 15.022 114.414 14.1786C114.414 14.1479 114.415 14.1173 114.416 14.0868C114.422 13.9186 114.428 13.7547 114.239 13.6189C112.73 12.5373 110.652 12.2494 109.941 14.8753C109.542 16.3518 109.53 17.8502 109.68 19.3558C109.743 19.9828 109.888 20.5941 110.173 21.1637C110.744 22.3055 111.727 22.709 112.932 22.2978C113.352 22.1541 113.71 21.9111 114.061 21.6446C114.326 21.4431 114.431 21.211 114.425 20.8701C114.409 20.0711 114.412 19.2718 114.415 18.4727Z" fill="#044E45"/>
<path fill-rule="evenodd" clip-rule="evenodd" d="M13.4531 0.689541C13.4617 0.657547 13.4665 0.625076 13.4689 0.592127C13.6978 0.592127 13.9267 0.592127 14.1556 0.592127C13.9424 0.779792 13.6925 0.698614 13.4531 0.689541Z" fill="#D9E68B"/>
<path fill-rule="evenodd" clip-rule="evenodd" d="M31.7712 0.690957C31.7793 0.658485 31.7832 0.625536 31.7822 0.59211C32.0111 0.59211 32.2401 0.59211 32.469 0.59211C32.2563 0.765927 32.0097 0.700985 31.7712 0.690957Z" fill="#BDDFA8"/>
<path fill-rule="evenodd" clip-rule="evenodd" d="M34.8919 0.689086C34.6506 0.700546 34.3997 0.78459 34.186 0.592149C34.415 0.592149 34.6439 0.592149 34.8728 0.592149C34.8757 0.625098 34.8823 0.657092 34.8919 0.689086Z" fill="#A7D58A"/>
<path fill-rule="evenodd" clip-rule="evenodd" d="M0.648545 15.9492C0.818807 16.1617 0.753945 16.4076 0.747268 16.6454C0.714361 16.6454 0.681453 16.6426 0.648545 16.6368C0.648545 16.4076 0.648545 16.1784 0.648545 15.9492Z" fill="#E5EEB1"/>
<path fill-rule="evenodd" clip-rule="evenodd" d="M110.646 31.5354C110.875 31.3114 111.104 31.4122 111.333 31.5354C111.104 31.5354 110.875 31.5354 110.646 31.5354Z" fill="#709A95"/>
<path fill-rule="evenodd" clip-rule="evenodd" d="M16.5589 0.592091C16.5622 0.623607 16.5665 0.655123 16.5722 0.68664C16.3695 0.700965 16.1592 0.763043 15.9866 0.592091C16.1773 0.592091 16.3681 0.592091 16.5589 0.592091Z" fill="#E0EBA0"/>
<path fill-rule="evenodd" clip-rule="evenodd" d="M0.648644 13.4279C0.677737 13.4126 0.70826 13.4074 0.740691 13.4126C0.75786 13.616 0.81986 13.8271 0.648644 14.0009C0.648644 13.8099 0.648644 13.6189 0.648644 13.4279Z" fill="#DFEBA0"/>
<path fill-rule="evenodd" clip-rule="evenodd" d="M42.4548 26.0559C41.5263 25.0498 40.5452 24.0914 39.8127 22.9157C38.5841 20.9436 37.823 18.8267 37.6026 16.4993C37.2301 12.5602 38.3371 9.08243 40.7756 6.01436C41.3403 5.30381 42.0304 4.69306 42.6633 4.03647C43.9309 3.12297 45.232 2.27633 46.7033 1.70617C55.2722 -1.61546 64.784 3.92807 66.1022 13.0244C67.2344 20.839 61.8371 28.1961 54.0861 29.3298C49.9182 29.9391 46.151 28.9229 42.8392 26.2875C42.7214 26.1944 42.6213 26.0697 42.4548 26.0559Z" fill="#0AA94E"/>
<path fill-rule="evenodd" clip-rule="evenodd" d="M76.6932 12.384C76.6933 13.2837 76.6934 14.1833 76.6934 15.0829C76.6934 16.0392 76.6933 16.9954 76.6931 17.9517C76.6928 20.1828 76.6925 22.4139 76.6939 24.6448C76.6943 25.3253 76.7673 25.395 77.4522 25.3983C78.1952 25.4017 78.9387 25.4002 79.6823 25.3988C80.4606 25.3969 80.5093 25.3468 80.5097 24.5407C80.5099 24.0449 80.5105 23.5491 80.5111 23.0533C80.5131 21.4878 80.5152 19.9226 80.5007 18.3573C80.4973 17.9758 80.6094 17.8783 80.9771 17.8888C81.8381 17.9132 82.7003 17.9044 83.5618 17.8956L83.6646 17.8946C87.6393 17.8545 90.2161 15.5423 90.6868 11.5999C91.0069 8.91719 89.9009 6.66473 87.738 5.60702C86.622 5.06074 85.4287 4.84299 84.1978 4.83582C82.5526 4.82561 80.9075 4.82709 79.2623 4.82857C78.6774 4.82909 78.0924 4.82962 77.5075 4.82962C76.7478 4.82962 76.6943 4.88023 76.6939 5.63567C76.6928 7.88516 76.693 10.1347 76.6932 12.384ZM80.959 7.9994C80.5517 7.98507 80.4973 8.15125 80.504 8.49554C80.5226 9.44963 80.5155 13.3433 80.5078 14.3351C80.5054 14.5758 80.5264 14.7277 80.8364 14.72C81.2355 14.7102 81.6351 14.7115 82.0347 14.7127C82.6651 14.7147 83.2953 14.7166 83.9226 14.6751C85.4855 14.571 86.4637 13.626 86.7446 12.0803C86.8276 11.6252 86.849 11.1701 86.8266 10.7127C86.7446 9.05949 85.8694 8.13788 84.2174 8.0481C83.6195 8.01571 83.0203 8.016 82.4209 8.01628C81.9334 8.01651 81.4459 8.01675 80.959 7.9994Z" fill="#044E45"/>
<path fill-rule="evenodd" clip-rule="evenodd" d="M142.245 25.61C143.15 25.4715 143.938 25.0828 144.691 24.5642C144.758 24.9818 144.791 25.1904 144.914 25.2945C145.035 25.3984 145.246 25.3984 145.666 25.3984C145.803 25.3985 145.939 25.3987 146.076 25.3989C146.531 25.3995 146.986 25.4001 147.44 25.3979C148.144 25.3941 148.197 25.343 148.198 24.6578C148.2 23.7221 148.199 22.7861 148.199 21.8501C148.199 21.4491 148.199 21.0481 148.199 20.6471C148.199 19.3926 148.199 18.1381 148.199 16.8836C148.199 13.115 148.199 9.34639 148.198 5.57749C148.198 4.86599 148.162 4.83065 147.452 4.82922C147.215 4.82861 146.977 4.8312 146.74 4.8338C146.233 4.83934 145.726 4.84488 145.22 4.81919C144.67 4.79149 144.477 4.98775 144.487 5.54072C144.503 6.41628 144.501 7.292 144.499 8.16779C144.497 8.76268 144.496 9.35761 144.5 9.95253C144.503 10.2868 144.47 10.3871 144.098 10.2281C141.048 8.9273 138.232 10.0242 136.831 13.0316C136.216 14.35 135.94 15.7487 135.881 17.1874C135.797 19.2112 135.988 21.1977 136.975 23.0194C138.061 25.0236 140.004 25.9533 142.245 25.61ZM144.516 18.5439C144.517 18.2224 144.518 17.9009 144.518 17.5795C144.518 16.4158 144.518 15.2525 144.519 14.0888C144.519 14.0701 144.519 14.0514 144.519 14.0329C144.521 13.8673 144.523 13.7117 144.348 13.5846C142.822 12.4767 140.826 12.3124 140.079 14.776C139.623 16.2778 139.628 17.8225 139.784 19.3678C139.847 19.9948 139.997 20.6051 140.278 21.1762C140.877 22.3891 141.927 22.7993 143.181 22.3069C143.538 22.1666 143.847 21.9483 144.155 21.722C144.424 21.5248 144.534 21.2979 144.527 20.9551C144.511 20.1518 144.514 19.3478 144.516 18.5439Z" fill="#044E45"/>
<path fill-rule="evenodd" clip-rule="evenodd" d="M185.057 19.3238C185.058 18.9608 185.059 18.5894 185.059 18.206C185.047 17.7882 185.048 17.357 185.05 16.9166C185.053 15.9863 185.056 15.0155 184.937 14.0458C184.658 11.7881 183.6 10.4525 181.553 9.95443C179.365 9.422 177.2 9.75865 175.051 10.2524C174.71 10.3307 174.609 10.5637 174.655 10.8999C174.733 11.4858 174.797 12.0741 174.858 12.662C174.924 13.3119 175.051 13.3921 175.708 13.2278C176.93 12.9213 178.164 12.6839 179.435 12.8272C180.783 12.9795 181.31 13.5339 181.453 14.8653C181.499 15.3008 181.401 15.4435 180.942 15.3638C179.902 15.1823 178.856 15.2148 177.812 15.3738C175.504 15.7257 173.998 17.1005 173.539 19.3057C173.362 20.1538 173.344 21.0143 173.501 21.8667C173.839 23.708 174.809 25.0269 176.688 25.5001C178.497 25.9557 180.162 25.5665 181.669 24.4925C181.931 24.3049 182.041 24.2915 182.198 24.6033C182.492 25.1859 183.006 25.4834 183.644 25.6066C184.633 25.7976 185.575 25.5822 186.513 25.3163C186.796 25.2365 186.872 25.0107 186.842 24.7294C186.832 24.6276 186.821 24.5258 186.81 24.4239C186.755 23.9188 186.7 23.4134 186.67 22.9067C186.64 22.4091 186.409 22.2883 185.952 22.4029C185.209 22.5901 185.073 22.4889 185.062 21.7134C185.052 20.9313 185.054 20.1492 185.057 19.3238ZM181.464 19.9511C181.463 19.9209 181.462 19.8906 181.462 19.8606C181.462 17.9314 181.383 17.8775 179.585 17.9629C177.722 18.0513 176.912 19.0779 177.219 21.094C177.396 22.262 178.132 22.7596 179.297 22.5829C180.068 22.4659 180.762 22.1298 181.298 21.5701C181.543 21.3147 181.508 20.9914 181.473 20.6657C181.454 20.4898 181.435 20.3131 181.46 20.1462C181.469 20.0822 181.467 20.0166 181.464 19.9511Z" fill="#044E45"/>
<path fill-rule="evenodd" clip-rule="evenodd" d="M162.752 19.1912C162.753 18.8161 162.754 18.428 162.754 18.0211C162.744 17.6474 162.745 17.2551 162.746 16.8499C162.749 15.9219 162.752 14.9264 162.617 13.9326C162.318 11.7389 161.268 10.4448 159.252 9.95484C157.062 9.42288 154.898 9.75714 152.749 10.2523C152.411 10.3302 152.31 10.5579 152.357 10.8999C152.416 11.3242 152.458 11.7508 152.501 12.1773C152.517 12.3392 152.533 12.5011 152.55 12.6629C152.617 13.307 152.754 13.3901 153.407 13.2273C154.649 12.9179 155.901 12.6791 157.191 12.8333C158.495 12.989 159.072 13.6155 159.16 14.9239C159.184 15.2902 159.113 15.4554 158.701 15.369C157.931 15.2071 157.146 15.231 156.365 15.2711C153.528 15.4172 151.701 16.8851 151.215 19.414C151.07 20.1676 151.08 20.9321 151.17 21.6952C151.395 23.6191 152.578 25.0469 154.383 25.5C156.193 25.9542 157.858 25.5688 159.364 24.4944C159.623 24.3101 159.732 24.2828 159.894 24.6018C160.187 25.182 160.701 25.4838 161.339 25.607C162.328 25.798 163.27 25.5831 164.209 25.3186C164.492 25.2388 164.572 25.0154 164.542 24.7336C164.539 24.7025 164.536 24.6714 164.532 24.6403C164.469 24.045 164.406 23.4499 164.361 22.8536C164.328 22.4191 164.11 22.3002 163.708 22.3861C162.86 22.5676 162.767 22.4955 162.757 21.5997C162.749 20.8192 162.75 20.0385 162.752 19.1912ZM159.163 19.972C159.162 19.9421 159.161 19.9122 159.161 19.8825C159.161 19.7555 159.159 19.6284 159.157 19.5013C159.153 19.209 159.148 18.9169 159.167 18.6266C159.189 18.2857 159.097 18.1133 158.73 18.0569C158.028 17.9495 157.327 17.9151 156.63 18.0416C155.8 18.1916 155.187 18.6309 154.972 19.4881C154.842 20.0066 154.803 20.5338 154.907 21.0725C155.13 22.2166 155.767 22.7228 156.916 22.59C157.715 22.4979 158.42 22.1502 158.98 21.5848C159.235 21.328 159.202 21.0035 159.169 20.6772C159.151 20.5048 159.134 20.3318 159.158 20.168C159.168 20.104 159.166 20.0379 159.163 19.972Z" fill="#044E45"/>
<path fill-rule="evenodd" clip-rule="evenodd" d="M132.539 19.237C132.54 18.8958 132.542 18.5547 132.542 18.2136C132.527 18.2136 132.512 18.2136 132.497 18.2146C132.497 17.9109 132.497 17.6072 132.497 17.3035C132.499 16.443 132.5 15.5825 132.492 14.722C132.49 14.5383 132.461 14.3548 132.432 14.1712C132.419 14.0899 132.406 14.0087 132.396 13.9274C132.109 11.7284 131.048 10.4415 129.029 9.95397C126.84 9.4244 124.676 9.75914 122.527 10.2558C122.186 10.335 122.101 10.5728 122.147 10.9109C122.2 11.2928 122.237 11.6768 122.275 12.0608C122.295 12.2654 122.315 12.47 122.337 12.6744C122.405 13.3028 122.546 13.3969 123.148 13.2431C124.408 12.9213 125.677 12.6801 126.988 12.8353C128.303 12.991 128.913 13.6767 128.95 14.9909C128.959 15.3203 128.877 15.4402 128.539 15.3734C127.767 15.2201 126.983 15.2339 126.202 15.2688C123.337 15.3972 121.497 16.8646 121.002 19.4213C120.86 20.1562 120.872 20.903 120.952 21.6461C121.16 23.5986 122.352 25.0479 124.177 25.5035C125.942 25.9437 127.577 25.587 129.063 24.5561C129.075 24.5474 129.088 24.5389 129.1 24.5305C129.361 24.3484 129.515 24.2409 129.717 24.6559C129.992 25.2193 130.518 25.4911 131.133 25.609C132.121 25.7991 133.065 25.5837 134.002 25.3168C134.286 25.2361 134.358 25.0054 134.328 24.7261C134.262 24.0996 134.196 23.4735 134.147 22.8461C134.113 22.4077 133.885 22.3012 133.487 22.3891C132.66 22.571 132.56 22.5018 132.546 21.6494C132.534 20.8454 132.536 20.0411 132.539 19.237ZM128.95 19.9361C128.949 19.8998 128.947 19.8634 128.947 19.8272C128.947 19.7042 128.944 19.5809 128.941 19.4576C128.934 19.18 128.927 18.9022 128.956 18.6281C128.998 18.2261 128.812 18.1014 128.463 18.0479C127.78 17.9424 127.097 17.9166 126.419 18.0403C125.564 18.196 124.949 18.6558 124.746 19.5402C124.63 20.0425 124.597 20.5506 124.694 21.0697C124.904 22.1861 125.522 22.6952 126.645 22.5935C127.469 22.519 128.189 22.1599 128.766 21.5854C129.024 21.3296 128.99 21.0043 128.956 20.6771C128.939 20.5051 128.921 20.3327 128.945 20.1696C128.956 20.0931 128.953 20.0147 128.95 19.9361Z" fill="#044E45"/>
<path fill-rule="evenodd" clip-rule="evenodd" d="M192.634 11.1248C193.82 10.3297 195.005 9.79725 196.355 9.71082C197.183 9.65782 198.002 9.71655 198.773 10.0241C200.513 10.7184 201.147 12.1505 201.167 13.8944C201.204 17.0441 201.182 20.1943 201.185 23.3445C201.185 23.8025 201.163 24.2623 201.191 24.7188C201.221 25.2087 201.034 25.4179 200.534 25.4045C199.753 25.383 198.97 25.3787 198.189 25.406C197.668 25.4246 197.491 25.2255 197.494 24.7021C197.512 21.5519 197.503 18.4017 197.504 15.2515C197.504 14.8313 197.498 14.412 197.417 13.997C197.325 13.5171 197.047 13.1991 196.576 13.0921C195.125 12.7622 193.984 13.4107 192.924 14.2883C192.731 14.4483 192.821 14.6828 192.821 14.8824C192.815 18.109 192.817 21.3351 192.817 24.5617C192.816 25.3534 192.772 25.3974 191.972 25.3983C191.228 25.3998 190.484 25.3869 189.741 25.4031C189.293 25.4131 189.073 25.2551 189.073 24.7761C189.081 20.041 189.08 15.3064 189.075 10.5718C189.075 10.1325 189.264 9.95722 189.702 9.96916C190.407 9.98874 191.112 9.97298 191.818 9.97489C192.544 9.97632 192.57 10.005 192.607 10.7575C192.611 10.8507 192.62 10.9433 192.634 11.1248Z" fill="#044E45"/>
<path fill-rule="evenodd" clip-rule="evenodd" d="M98.5264 18.5682C98.8442 18.5671 99.1621 18.566 99.4799 18.566C99.778 18.5658 100.076 18.5654 100.374 18.565C101.239 18.5637 102.104 18.5624 102.97 18.5688C103.353 18.5717 103.596 18.4614 103.596 18.0254C103.596 17.9337 103.596 17.842 103.596 17.7503C103.598 16.5053 103.599 15.2603 103.309 14.0381C102.904 12.3357 102.134 10.8874 100.437 10.1477C97.2107 8.74145 93.6085 10.2614 92.4667 13.5878C91.5276 16.3235 91.5887 19.1103 92.5068 21.847C93.0767 23.5465 94.2161 24.7871 95.9549 25.3296C98.3558 26.0783 100.695 25.7655 102.962 24.7393C103.273 24.5989 103.364 24.3826 103.334 24.0565C103.297 23.6621 103.272 23.2671 103.246 22.872C103.228 22.6006 103.211 22.3293 103.189 22.0581C103.139 21.4158 102.915 21.2826 102.338 21.571C101.462 22.0089 100.547 22.3088 99.5753 22.4429C97.5789 22.7194 96.2306 21.8054 95.7804 19.8519C95.7471 19.7071 95.7267 19.5595 95.7064 19.4119C95.6877 19.2761 95.669 19.1403 95.6402 19.0067C95.5634 18.6505 95.6869 18.5502 96.0479 18.5574C96.8739 18.5739 97.7001 18.571 98.5264 18.5682ZM97.2966 15.8247C97.4697 15.8261 97.6428 15.8274 97.8159 15.8274C97.8877 15.8274 97.9596 15.8285 98.0315 15.8296C98.1879 15.8319 98.3444 15.8343 98.5003 15.8255C98.6619 15.8158 98.8532 15.8361 99.0424 15.8561C99.4244 15.8966 99.7981 15.9363 99.9034 15.7271C100.128 15.2806 99.9045 14.6693 99.7087 14.1341C99.6955 14.0981 99.6825 14.0624 99.6697 14.0271C99.667 14.0193 99.6649 14.0112 99.6628 14.003C99.6601 13.9928 99.6575 13.9825 99.6535 13.9727C99.384 13.3156 98.9548 12.8367 98.2122 12.7488C97.4315 12.6566 96.7967 12.9288 96.3293 13.572C95.9263 14.1264 95.7685 14.7668 95.6535 15.4277C95.5929 15.7744 95.7341 15.845 96.0479 15.8336C96.4637 15.8184 96.8801 15.8216 97.2966 15.8247Z" fill="#044E45"/>
<path fill-rule="evenodd" clip-rule="evenodd" d="M166.785 17.6564C166.785 15.3476 166.783 13.0383 166.786 10.729C166.787 10.0309 166.843 9.97737 167.531 9.97546C168.294 9.97307 169.057 9.99456 169.818 9.96782C170.316 9.95063 170.498 10.1493 170.494 10.6392C170.48 12.5665 170.488 14.4942 170.488 16.4215C170.488 19.1505 170.489 21.88 170.488 24.6091C170.487 25.3335 170.425 25.396 169.708 25.3989C168.965 25.4018 168.221 25.3788 167.479 25.4065C166.953 25.4266 166.774 25.2122 166.777 24.6984C166.794 22.3514 166.785 20.0039 166.785 17.6564Z" fill="#044E45"/>
<path fill-rule="evenodd" clip-rule="evenodd" d="M170.746 6.62223C170.74 7.94162 169.911 8.76725 168.602 8.7577C167.329 8.74863 166.484 7.86999 166.494 6.56827C166.505 5.30475 167.352 4.47816 168.633 4.47864C169.971 4.47864 170.752 5.2718 170.746 6.62223Z" fill="#044E45"/>
<path fill-rule="evenodd" clip-rule="evenodd" d="M24.1328 3.92182C24.1652 3.91705 24.1976 3.91991 24.2291 3.92946C25.3647 4.94993 26.381 6.07258 27.1817 7.38003C28.3826 9.33977 29.0852 11.4523 29.2816 13.7554C29.5821 17.2781 28.6845 20.455 26.6638 23.3235C26.0295 24.2236 25.3341 25.0841 24.4494 25.766C24.3417 25.8486 24.2425 25.9331 24.1008 25.9403C21.017 23.2308 19.2581 19.8591 19.0583 15.729C18.8418 11.2503 20.4109 7.48604 23.6506 4.40603C23.8156 4.24845 23.972 4.08323 24.1328 3.92182Z" fill="#0AA94E"/>
<path fill-rule="evenodd" clip-rule="evenodd" d="M45.5086 10.3971C45.1752 10.5962 44.9377 10.7118 44.7303 10.8669C44.4341 11.0885 44.2157 11.0408 44.0163 10.7433C43.7955 10.4143 44.0115 10.2576 44.2524 10.1077C46.8564 8.48699 49.6865 7.74253 52.7483 7.97126C55.143 8.15033 57.3592 8.92153 59.4324 10.1206C59.678 10.2629 59.9771 10.3722 59.7572 10.7638C59.5483 11.1353 59.287 11.0742 58.9898 10.8985C58.7991 10.7853 58.6011 10.6841 58.3817 10.5647C58.3584 10.8053 58.4833 10.9586 58.5553 11.1248C59.7653 13.9212 60.9786 16.7161 62.1909 19.512C62.5553 20.3515 62.4146 20.8538 61.6482 21.3681C60.9371 21.8456 60.1302 22.0672 59.2932 22.1828C57.8433 22.3824 56.4049 22.3537 54.9922 21.9211C54.5153 21.7749 54.0618 21.5787 53.6645 21.2736C53.0273 20.7841 52.9047 20.3128 53.2262 19.5707C54.5201 16.5824 55.8025 13.5883 57.1298 10.6148C57.3506 10.1201 57.2305 9.98831 56.7874 9.81784C53.5019 8.5505 50.2197 8.48508 46.9146 9.74573C46.4706 9.91477 46.4 10.0724 46.5946 10.5122C47.918 13.5081 49.2129 16.5174 50.5168 19.522C50.8711 20.3386 50.7409 20.8347 50.0089 21.3423C49.2873 21.8428 48.4608 22.0686 47.6052 22.1856C46.1553 22.3838 44.7164 22.3532 43.3038 21.9192C42.9194 21.8012 42.5521 21.6455 42.2121 21.4311C41.3498 20.8877 41.1986 20.3959 41.6045 19.4595C42.8164 16.6636 44.0287 13.8682 45.2401 11.0723C45.3193 10.888 45.3884 10.6998 45.5086 10.3971Z" fill="#FEFEFE"/>
<path fill-rule="evenodd" clip-rule="evenodd" d="M42.5588 19.352C42.6285 19.1638 42.6619 19.0569 42.7062 18.9547C43.8031 16.4209 44.901 13.8872 45.9994 11.3525C46.1391 11.418 46.1658 11.5297 46.2097 11.6314C47.2546 14.0438 48.2939 16.4587 49.3531 18.8644C49.5229 19.2503 49.5119 19.3663 49.0412 19.362C46.906 19.3395 44.7703 19.352 42.5588 19.352Z" fill="#0AA94E"/>
<path fill-rule="evenodd" clip-rule="evenodd" d="M61.2223 19.3253C58.8587 19.3253 56.5819 19.3253 54.2268 19.3253C55.3872 16.6421 56.5251 14.01 57.7203 11.2461C58.9069 13.9842 60.0486 16.6182 61.2223 19.3253Z" fill="#0AA94E"/>
</svg>
