<svg width="360" height="180" viewBox="0 0 360 180" fill="none" xmlns="http://www.w3.org/2000/svg">
<path d="M25.4841 177.26C36.9668 179.635 290.912 182.004 331.327 177.26C343.292 175.856 352.869 162.742 354.266 160.467C363.003 146.237 359.727 58.4774 357.542 28.8285C356.367 12.8719 340.066 5.70261 332.419 3.3309C317.796 -1.2049 58.4779 -1.38694 24.391 4.51726C9.14035 7.15795 3.61193 19.6148 2.51437 26.5386C-0.0462374 42.6783 -1.55977 141.948 2.5451 155.32C5.82242 165.994 14.0146 174.888 25.4841 177.26Z" fill="#E6F6ED"/>
<mask id="mask0" style="mask-type:alpha" maskUnits="userSpaceOnUse" x="0" y="0" width="360" height="180">
<path fill-rule="evenodd" clip-rule="evenodd" d="M25.4841 177.26C36.9668 179.635 290.912 182.004 331.327 177.26C343.292 175.856 352.869 162.742 354.266 160.467C363.003 146.237 359.727 58.4774 357.542 28.8285C356.367 12.8719 340.066 5.70261 332.419 3.3309C317.796 -1.2049 58.4779 -1.38694 24.391 4.51726C9.14035 7.15795 3.61193 19.6148 2.51437 26.5386C-0.0462374 42.6783 -1.55977 141.948 2.5451 155.32C5.82242 165.994 14.0146 174.888 25.4841 177.26Z" fill="white"/>
</mask>
<g mask="url(#mask0)">
<path d="M443.415 192.073C443.415 250.265 325.234 297.439 179.451 297.439C33.668 297.439 -84.5122 250.265 -84.5122 192.073C-84.5122 133.881 33.668 86.707 179.451 86.707C325.234 86.707 443.415 133.881 443.415 192.073Z" fill="#BBF0D3"/>
</g>
<mask id="mask1" style="mask-type:alpha" maskUnits="userSpaceOnUse" x="0" y="0" width="360" height="180">
<path fill-rule="evenodd" clip-rule="evenodd" d="M25.4841 177.26C36.9668 179.635 290.912 182.004 331.327 177.26C343.292 175.856 352.869 162.742 354.266 160.467C363.003 146.237 359.727 58.4774 357.542 28.8285C356.367 12.8719 340.066 5.70261 332.419 3.3309C317.796 -1.2049 58.4779 -1.38694 24.391 4.51726C9.14035 7.15795 3.61193 19.6148 2.51437 26.5386C-0.0462374 42.6783 -1.55977 141.948 2.5451 155.32C5.82242 165.994 14.0146 174.888 25.4841 177.26Z" fill="white"/>
</mask>
<g mask="url(#mask1)">
<path d="M10.1286 159.684H11.753C11.753 152.77 11.753 150.443 11.9176 110.217C12.214 37.3065 12.7737 32.8613 12.7737 32.8613L8.91033 66.5235C6.44081 103.797 9.60179 126.011 10.1286 159.684Z" fill="#BBF0D3"/>
<mask id="mask2" style="mask-type:alpha" maskUnits="userSpaceOnUse" x="-15" y="155" width="49" height="27">
<path fill-rule="evenodd" clip-rule="evenodd" d="M-14.292 155.876H33.7812V181.493H-14.292V155.876Z" fill="white"/>
</mask>
<g mask="url(#mask2)">
<path d="M15.8359 181.493H-0.738402C-11.2849 181.493 -11.9006 174.085 -14.0727 164.064C-14.5896 161.408 -15.3425 158.803 -16.3227 156.282L-16.4873 155.876H31.5859L31.4212 156.282C30.4642 158.806 29.7299 161.411 29.2261 164.064C27.009 174.085 26.3823 181.493 15.8359 181.493Z" fill="#84D7CC"/>
</g>
<path d="M32.7605 158.313H-17.6504C-18.7667 158.322 -19.7117 157.49 -19.8456 156.381L-20.8125 149.061C-20.9881 147.862 -20.1573 146.746 -18.9576 146.57C-18.8457 146.554 -18.7304 146.546 -18.6174 146.547H33.7264C34.9381 146.535 35.9325 147.506 35.9447 148.719C35.9457 148.833 35.938 148.947 35.9215 149.061L34.9557 156.381C34.8218 157.49 33.8779 158.322 32.7605 158.313Z" fill="#47A99C"/>
<path d="M8.72361 92.0523C18.2076 75.5231 -6.38981 69.6072 -14.3252 54.8779C-23.8959 66.5121 -2.39469 111.413 8.72361 92.0523Z" fill="#BBF0D3"/>
<path d="M10.5453 73.3727C6.89046 65.0422 24.5063 54.9326 28.3039 41.3887C35.3722 49.2143 21.3783 98.0349 10.5453 73.3727Z" fill="#BBF0D3"/>
<path d="M11.5007 50.104C13.8605 30.8966 1.34828 32.543 -3.86513 21.0625C-11.6359 29.2723 9.66779 64.932 11.5007 50.104Z" fill="#BBF0D3"/>
<mask id="mask3" style="mask-type:alpha" maskUnits="userSpaceOnUse" x="10" y="16" width="12" height="33">
<path fill-rule="evenodd" clip-rule="evenodd" d="M10.188 16.4639H21.7811V48.1964H10.188V16.4639Z" fill="white"/>
</mask>
<g mask="url(#mask3)">
<path d="M10.787 43.2335C7.59416 28.6019 18.2723 30.8969 16.8795 16.4629C29.3259 27.3957 14.5966 60.6737 10.787 43.2335Z" fill="#BBF0D3"/>
</g>
<mask id="mask4" style="mask-type:alpha" maskUnits="userSpaceOnUse" x="9" y="80" width="32" height="37">
<path fill-rule="evenodd" clip-rule="evenodd" d="M9.41748 80.2646H40.3784V116.205H9.41748V80.2646Z" fill="white"/>
</mask>
<g mask="url(#mask4)">
<path d="M10.4139 102.919C13.3883 92.4157 30.4444 99.9889 39.1491 80.2646C48.4005 108.121 2.1383 132.071 10.4139 102.919Z" fill="#BBF0D3"/>
</g>
<mask id="mask5" style="mask-type:alpha" maskUnits="userSpaceOnUse" x="-20" y="98" width="32" height="30">
<path fill-rule="evenodd" clip-rule="evenodd" d="M-19.7559 98.2314H11.233V127.397H-19.7559V98.2314Z" fill="white"/>
</mask>
<g mask="url(#mask5)">
<path d="M11.2264 117.133C10.9739 107.144 0.195862 116.035 -19.5054 98.2314C-23.0285 116.572 11.7861 141.805 11.2264 117.133Z" fill="#BBF0D3"/>
</g>
</g>
<mask id="mask6" style="mask-type:alpha" maskUnits="userSpaceOnUse" x="0" y="0" width="360" height="180">
<path fill-rule="evenodd" clip-rule="evenodd" d="M25.4841 177.26C36.9668 179.635 290.912 182.004 331.327 177.26C343.292 175.856 352.869 162.742 354.266 160.467C363.003 146.237 359.727 58.4774 357.542 28.8285C356.367 12.8719 340.066 5.70261 332.419 3.3309C317.796 -1.2049 58.4779 -1.38694 24.391 4.51726C9.14035 7.15795 3.61193 19.6148 2.51437 26.5386C-0.0462374 42.6783 -1.55977 141.948 2.5451 155.32C5.82242 165.994 14.0146 174.888 25.4841 177.26Z" fill="white"/>
</mask>
<g mask="url(#mask6)">
<path d="M346.873 120.949C344.98 126.95 336.832 121.295 332.729 127.966C327.336 136.732 336.908 144.636 334.059 149.926C330.968 155.663 318.21 154.448 314.32 165.106C312.348 170.51 312.27 176.501 314.703 182.785H359.245C360.665 180.606 361.763 178.263 362.409 175.773C365.649 163.282 354.603 162.214 356.878 157.842C359.816 152.197 369.599 149.922 370.238 141.821C370.989 132.293 361.289 130.059 361.772 125.328C362.454 118.659 363.125 104.52 356.815 102.767C356.39 102.649 355.985 102.592 355.601 102.592C349.764 102.592 348.568 115.572 346.873 120.949Z" fill="#B3EC91"/>
<path d="M332.867 193.864C332.867 193.864 346.718 159.374 355.671 117.957" stroke="white" stroke-width="0.63014"/>
<path d="M350.122 142.683L340.244 131.707" stroke="white" stroke-width="0.63014" stroke-linecap="round"/>
<path fill-rule="evenodd" clip-rule="evenodd" d="M315.625 199.756C305.546 194.227 294.537 184.795 291.551 172.574C287.649 156.607 300.951 155.241 298.211 149.652C294.673 142.436 282.892 139.528 282.123 129.173C281.218 116.992 292.899 114.136 292.317 108.087C291.497 99.5626 290.689 81.4885 298.287 79.2476C306.592 76.7979 308.082 95.1647 310.259 102.49C312.538 110.161 322.35 102.932 327.291 111.459C333.785 122.668 322.257 132.77 325.689 139.532C329.411 146.866 344.774 145.313 349.459 158.939C352.482 167.733 351.808 177.744 345.906 188.196C336.938 192.063 325.5 195.761 315.625 199.756Z" fill="#84D7CC"/>
<path d="M321.741 171.44C321.741 171.44 307.846 138.614 298.865 99.1934" stroke="white" stroke-width="0.78057"/>
</g>
<mask id="mask7" style="mask-type:alpha" maskUnits="userSpaceOnUse" x="0" y="0" width="360" height="180">
<path fill-rule="evenodd" clip-rule="evenodd" d="M25.4841 177.26C36.9668 179.635 290.912 182.004 331.327 177.26C343.292 175.856 352.869 162.742 354.266 160.467C363.003 146.237 359.727 58.4774 357.542 28.8285C356.367 12.8719 340.066 5.70261 332.419 3.3309C317.796 -1.2049 58.4779 -1.38694 24.391 4.51726C9.14035 7.15795 3.61193 19.6148 2.51437 26.5386C-0.0462374 42.6783 -1.55977 141.948 2.5451 155.32C5.82242 165.994 14.0146 174.888 25.4841 177.26Z" fill="white"/>
</mask>
<g mask="url(#mask7)">
<path d="M43.7287 64.8789L28.3945 105.656L67.0975 113.493L78.0406 77.8105L43.7287 64.8789Z" fill="#FFDAB8"/>
<path d="M110.127 47.0928C110.127 47.0928 131.637 32.5084 123.837 18.2549C114.58 1.38381 96.8153 -4.11552 71.0862 -3.60121C59.0456 -3.34526 39.7502 2.48971 31.4294 23.2459C25.0186 39.2851 63.95 64.6253 59.2511 75.4911L110.127 47.0928Z" fill="#6C4A07"/>
<path d="M111.24 56.8779C111.24 56.8779 112.66 62.6272 113.126 66.3916C113.347 68.1627 112.102 69.8397 110.323 69.9725C109.328 70.0473 108.327 70.0304 107.331 69.9206L111.24 56.8779Z" fill="#FFB490"/>
<path d="M102.61 19.2276C107.674 24.6678 116.318 34.4495 110.91 58.3447C105.366 82.8858 97.2267 89.2098 92.8381 91.1246C89.955 92.4224 78.506 89.2049 73.3254 85.327C66.8216 80.4495 53.8067 67.0277 50.7305 52.2477C47.1049 34.8527 52.1032 15.1529 64.8066 11.2774C82.7666 5.8433 98.2976 14.6483 102.61 19.2276Z" fill="#FFDAB8"/>
<path d="M76.1328 87.053C80.8583 89.5992 86.0775 91.0927 91.4356 91.4295C86.1584 89.7284 81.4752 86.5616 77.9293 82.2998L76.1328 87.053Z" fill="#FFB490"/>
<path d="M93.1528 47.1653C102.321 46.7657 110.524 41.3436 114.481 33.0626C121.741 18.7269 104.951 6.16602 104.951 6.16602L93.1528 47.1653Z" fill="#6C4A07"/>
<path d="M81.6709 45.6347C87.1594 45.7446 89.2758 50.2225 90.0714 53.1105C90.3455 54.1113 91.6192 54.3914 92.2832 53.5958C101.318 42.7637 103.724 24.159 104.051 21.253C104.08 20.991 104.03 20.7423 103.905 20.5093C102.364 17.6781 91.216 -0.995462 64.6646 -1.5629C49.2484 -1.89129 37.2658 10.4125 32.1468 20.822C27.9287 29.4045 29.5578 51.8037 40.3553 74.2739C41.3139 76.2686 46.5556 78.0745 56.0806 79.6917C58.4666 80.0968 60.8973 79.2836 62.5591 77.5242C68.5367 71.196 72.221 66.0619 73.6121 62.1219C70.2159 55.1098 73.5565 45.473 81.6709 45.6347Z" fill="#6C4A07"/>
<path d="M69.5542 97.3923C108.029 95.7009 125.541 129.221 125.541 129.221C125.541 129.221 97.7402 234.687 83.4299 255.94L-25.2432 241.623C-25.2432 241.623 -23.8668 172.848 -15.8852 132.525C-15.8852 132.525 -11.4242 93.2126 28.8917 92.4725C37.157 92.3216 47.0969 98.3799 69.5542 97.3923Z" fill="#40C07A"/>
<path d="M182.534 162.766C182.352 166.019 180.272 177.632 175.962 188.325C165.238 181.072 150.966 171.729 138.559 163.752C121.208 152.498 117.627 150.118 107.883 153.142C107.86 177.848 128.632 195.539 128.632 195.539C128.632 195.539 154.309 211.257 169.56 218.915C184.272 226.309 187.764 224.032 191.444 217.773C195.125 211.516 199.711 169.788 201.622 156.737C203.533 143.686 181.005 145.669 181.775 150.004C182.452 155.742 182.704 159.996 182.534 162.766Z" fill="#FFDAB8"/>
<path d="M84.0511 114.934C85.6569 108.303 92.1704 104.19 98.8613 105.515C102.336 106.205 106.112 107.556 109.315 110.115C114.693 114.992 119.576 120.388 123.894 126.225C132.384 137.584 146.136 155.931 153.236 165.4C156.111 169.234 156.217 174.555 153.304 178.359C147.375 186.103 139.507 192.156 130.493 195.901C126.335 197.629 121.541 196.524 118.467 193.233C111.597 185.878 99.1776 172.311 93.4767 164.401C82.3766 149.042 80.7564 128.55 84.0511 114.934Z" fill="#00AB4E"/>
<mask id="mask8" style="mask-type:alpha" maskUnits="userSpaceOnUse" x="155" y="70" width="59" height="77">
<path fill-rule="evenodd" clip-rule="evenodd" d="M169.646 70.0918L213.265 79.3635L198.925 146.827L155.306 137.556L169.646 70.0918Z" fill="white"/>
</mask>
<g mask="url(#mask8)">
<path d="M210.76 90.5669L190.417 139.921C189.135 143.027 185.574 144.506 182.459 143.224L161.089 134.428C157.972 133.144 156.483 129.582 157.764 126.474L178.105 77.126C179.392 74.0253 182.568 72.389 185.2 73.472L208.32 82.9885C208.332 82.9938 208.344 82.9981 208.356 83.0026C210.963 84.1026 212.04 87.4798 210.76 90.5669Z" fill="#252528"/>
</g>
<mask id="mask9" style="mask-type:alpha" maskUnits="userSpaceOnUse" x="153" y="69" width="59" height="78">
<path fill-rule="evenodd" clip-rule="evenodd" d="M167.981 69.4404L211.627 78.7177L197.253 146.34L153.607 137.062L167.981 69.4404Z" fill="white"/>
</mask>
<g mask="url(#mask9)">
<path d="M209.118 89.9338L188.723 139.413C187.438 142.527 183.873 144.013 180.759 142.731L159.389 133.934C156.271 132.651 154.785 129.082 156.069 125.967L176.463 76.4938C177.752 73.3852 180.932 71.7421 183.564 72.8269L206.684 82.3416C206.696 82.347 206.708 82.3512 206.72 82.3566C209.327 83.4568 210.402 86.839 209.118 89.9338Z" fill="#58585B"/>
</g>
<path d="M206.561 90.2829L187.072 137.491C186.084 139.884 183.344 141.026 180.951 140.039L161.1 131.872C158.702 130.885 157.56 128.139 158.548 125.743L178.033 78.5449C178.928 76.3871 181.047 75.2126 182.766 75.9186L186.485 77.4503C186.962 77.6464 187.41 77.7499 187.284 78.377L187.144 79.0762C187.018 79.704 187.264 80.2827 187.741 80.4789L198.318 84.831C198.794 85.027 199.38 84.7904 199.735 84.2571L200.131 83.6638C200.452 83.1815 200.797 83.3299 201.213 83.5074C201.256 83.527 201.302 83.5469 201.348 83.5651L205.066 85.0948C205.074 85.0974 205.082 85.1009 205.089 85.1033C206.793 85.8219 207.451 88.1344 206.561 90.2829Z" fill="white"/>
<path d="M208.17 96.5097L206.211 101.254C206.123 101.467 205.877 101.568 205.663 101.48L204.985 101.2L207.265 95.6821L207.944 95.9644L207.947 95.9652C208.158 96.055 208.258 96.2975 208.17 96.5097Z" fill="#58585B"/>
<path d="M172.114 88.2822L171.435 88.002C171.222 87.9136 171.12 87.6676 171.209 87.4549L173.169 82.7111C173.257 82.4964 173.501 82.3953 173.715 82.4839L174.394 82.7653L172.114 88.2822Z" fill="#252528"/>
<path d="M205.516 102.935L203.556 107.678C203.467 107.892 203.224 107.994 203.01 107.905L202.331 107.625L204.609 102.107L205.289 102.387C205.291 102.389 205.292 102.389 205.293 102.389C205.504 102.478 205.604 102.723 205.516 102.935Z" fill="#58585B"/>
<path d="M197.781 81.5217L197.741 81.6182C197.627 81.8924 197.314 82.0227 197.039 81.91L192.545 80.0523C192.272 79.9399 192.142 79.6261 192.255 79.3518L192.296 79.2546C192.409 78.9811 192.723 78.8499 192.996 78.9642L197.491 80.8193C197.491 80.8195 197.493 80.8207 197.494 80.8209C197.765 80.9358 197.894 81.2483 197.781 81.5217Z" fill="#252528"/>
<path d="M191.21 78.7973C191.05 79.1836 190.606 79.3679 190.22 79.2079C189.832 79.0476 189.649 78.6043 189.809 78.218C189.968 77.8316 190.412 77.6475 190.799 77.8085C190.801 77.808 190.803 77.8084 190.804 77.8097C191.187 77.9717 191.368 78.4127 191.21 78.7973Z" fill="#252528"/>
<path d="M206.929 88.8247C206.88 89.3049 206.762 89.7986 206.561 90.283L187.072 137.491C186.084 139.883 183.345 141.025 180.951 140.039L161.594 132.075C185.383 138.492 204.859 93.7625 206.929 88.8247Z" fill="#C3DFF8"/>
<path d="M183.635 126.759L187.288 131.23L189.395 129.168L187.434 127.433L183.472 123.657C183.472 123.657 178.53 117.86 176.818 116.327C176.348 115.906 175.849 115.666 175.373 115.538C174.116 115.202 172.259 116.327 172.259 116.327L183.635 126.759Z" fill="#C4E4FF"/>
<path d="M194.823 129.063C194.823 129.063 192.928 133.748 191.701 132.804L186.361 128.702C185.707 128.218 185.12 127.646 184.616 127.002L177.189 117.565C176.614 116.833 175.795 116.334 174.881 116.163L174.592 116.108C172.743 115.762 171.412 116.26 170.745 118.036C170.532 119.507 170.597 120.571 170.94 121.228L176.613 132.091C176.979 132.79 177.388 133.898 177.84 135.415L180.105 145.259C180.693 147.825 181.185 150.822 182.541 153.068L182.443 158.06L201.622 156.737C201.677 153.929 202.467 147.21 202.932 144.871L205.606 127.404C205.921 125.814 205.535 124.167 204.545 122.896L199.968 116.509L194.823 129.063Z" fill="#FFDAB8"/>
</g>
<path d="M224.907 76.1691C225.518 75.8665 226.259 76.1166 226.561 76.7278C226.836 77.2833 226.655 77.946 226.16 78.2892L226.003 78.3822L216.555 83.0595C215.944 83.3621 215.204 83.112 214.901 82.5008C214.626 81.9453 214.808 81.2826 215.302 80.9394L215.46 80.8464L224.907 76.1691Z" fill="#FFD37B"/>
<path d="M183.384 56.5935C183.987 56.4471 184.593 56.7698 184.82 57.3276L184.876 57.5017L187.365 67.7453C187.526 68.4079 187.12 69.0756 186.457 69.2367C185.855 69.3831 185.248 69.0603 185.022 68.5026L184.966 68.3285L182.476 58.0849C182.315 57.4223 182.722 56.7545 183.384 56.5935Z" fill="#FFD37B"/>
<path d="M208.566 58.9544C209.133 59.2186 209.405 59.858 209.224 60.4387L209.164 60.5953L203.597 72.5321C203.309 73.1501 202.575 73.4175 201.956 73.1293C201.39 72.8651 201.118 72.2258 201.299 71.645L201.359 71.4884L206.925 59.5517C207.214 58.9336 207.948 58.6662 208.566 58.9544Z" fill="#FFC54F"/>
<path d="M258.573 37.1265C258.573 51.6467 246.739 63.4181 232.14 63.4181C217.542 63.4181 205.708 51.6467 205.708 37.1265C205.708 22.6064 217.542 10.835 232.14 10.835C246.094 10.835 257.521 21.5887 258.505 35.2181C258.551 35.848 258.573 36.4842 258.573 37.1265Z" fill="#84D7CC"/>
<path d="M258.573 33.734C258.573 48.2541 246.739 60.0255 232.14 60.0255C217.542 60.0255 205.708 48.2541 205.708 33.734C205.708 19.2138 217.542 7.44238 232.14 7.44238C246.094 7.44238 257.521 18.1962 258.505 31.8255C258.551 32.4555 258.573 33.0916 258.573 33.734Z" fill="white"/>
<path fill-rule="evenodd" clip-rule="evenodd" d="M240.229 51.1734H219.101C217.51 51.1734 216.22 49.8836 216.22 48.2923V20.4416C216.22 18.8513 217.51 17.5605 219.101 17.5605H240.229C241.82 17.5605 243.11 18.8513 243.11 20.4416V48.2923C243.11 49.8836 241.82 51.1734 240.229 51.1734Z" fill="#3393E3"/>
<path fill-rule="evenodd" clip-rule="evenodd" d="M238.72 50.2133H220.61C219.246 50.2133 218.14 49.1089 218.14 47.7442V23.8724C218.14 22.5077 219.246 21.4023 220.61 21.4023H238.72C240.084 21.4023 241.189 22.5077 241.189 23.8724V47.7442C241.189 49.1089 240.084 50.2133 238.72 50.2133Z" fill="#1868AB"/>
<path fill-rule="evenodd" clip-rule="evenodd" d="M238.72 48.2924H220.61C219.246 48.2924 218.14 47.188 218.14 45.8233V21.9515C218.14 20.5868 219.246 19.4814 220.61 19.4814H238.72C240.084 19.4814 241.189 20.5868 241.189 21.9515V45.8233C241.189 47.188 240.084 48.2924 238.72 48.2924Z" fill="white"/>
<path fill-rule="evenodd" clip-rule="evenodd" d="M225.483 28.3574H226.801C227.236 28.3574 227.591 28.0025 227.591 27.5669C227.591 27.1324 227.236 26.7774 226.801 26.7774H225.483V28.3574ZM228.381 32.5719C228.222 32.5719 228.061 32.5246 227.922 32.4244L225.483 30.6831V31.7825C225.483 32.2181 225.13 32.5719 224.693 32.5719C224.257 32.5719 223.903 32.2181 223.903 31.7825V29.1572V29.1388V25.9857C223.903 25.5501 224.257 25.1963 224.693 25.1963H226.801C228.107 25.1963 229.171 26.2611 229.171 27.5669C229.171 28.7642 228.28 29.7553 227.128 29.9167L228.84 31.1394C229.196 31.393 229.278 31.8874 229.025 32.2411C228.87 32.4578 228.627 32.5719 228.381 32.5719Z" fill="#3393E3"/>
<path fill-rule="evenodd" clip-rule="evenodd" d="M231.677 29.5098H232.995C233.43 29.5098 233.785 29.1548 233.785 28.7192C233.785 28.2847 233.43 27.9298 232.995 27.9298H231.677V29.5098ZM230.887 33.7242C230.451 33.7242 230.096 33.3704 230.096 32.9348V27.1381C230.096 26.7024 230.451 26.3486 230.887 26.3486H232.995C234.301 26.3486 235.365 27.4135 235.365 28.7192C235.365 30.0261 234.301 31.0898 232.995 31.0898H231.677V32.9348C231.677 33.3704 231.324 33.7242 230.887 33.7242Z" fill="#3393E3"/>
<path fill-rule="evenodd" clip-rule="evenodd" d="M223.903 38.6883H221.982C221.452 38.6883 221.021 38.259 221.021 37.7279C221.021 37.1978 221.452 36.7676 221.982 36.7676H223.903C224.434 36.7676 224.863 37.1978 224.863 37.7279C224.863 38.259 224.434 38.6883 223.903 38.6883Z" fill="#BBBDC0"/>
<path fill-rule="evenodd" clip-rule="evenodd" d="M223.903 44.451H221.982C221.452 44.451 221.021 44.0217 221.021 43.4906C221.021 42.9605 221.452 42.5303 221.982 42.5303H223.903C224.434 42.5303 224.863 42.9605 224.863 43.4906C224.863 44.0217 224.434 44.451 223.903 44.451Z" fill="#BBBDC0"/>
<path fill-rule="evenodd" clip-rule="evenodd" d="M237.348 38.6883H227.744C227.214 38.6883 226.784 38.259 226.784 37.7279C226.784 37.1978 227.214 36.7676 227.744 36.7676H237.348C237.879 36.7676 238.308 37.1978 238.308 37.7279C238.308 38.259 237.879 38.6883 237.348 38.6883Z" fill="#BBBDC0"/>
<path fill-rule="evenodd" clip-rule="evenodd" d="M237.348 44.451H227.744C227.214 44.451 226.784 44.0217 226.784 43.4906C226.784 42.9605 227.214 42.5303 227.744 42.5303H237.348C237.879 42.5303 238.308 42.9605 238.308 43.4906C238.308 44.0217 237.879 44.451 237.348 44.451Z" fill="#BBBDC0"/>
<path fill-rule="evenodd" clip-rule="evenodd" d="M237.633 23.3223V20.9099H246.215V18.5205L251.694 23.3223H237.633Z" fill="#FFC54F"/>
<path fill-rule="evenodd" clip-rule="evenodd" d="M251.693 25.2432V27.6566H243.111V30.045L237.632 25.2432H251.693Z" fill="#FFC54F"/>
<path fill-rule="evenodd" clip-rule="evenodd" d="M243.11 24.1923V23.3232H237.633L243.11 24.1923Z" fill="#00883E"/>
<path fill-rule="evenodd" clip-rule="evenodd" d="M237.633 25.2432L243.11 31.2666L243.112 30.045L237.633 25.2432Z" fill="#00883E"/>
<path d="M317.804 121.721C317.804 141.651 301.516 157.808 281.425 157.808C261.333 157.808 245.045 141.651 245.045 121.721C245.045 101.792 261.333 85.6348 281.425 85.6348C300.629 85.6348 316.356 100.395 317.71 119.102C317.772 119.966 317.804 120.84 317.804 121.721Z" fill="#84D7CC"/>
<path d="M317.804 117.065C317.804 136.995 301.516 153.151 281.425 153.151C261.333 153.151 245.045 136.995 245.045 117.065C245.045 97.1354 261.333 80.9785 281.425 80.9785C300.629 80.9785 316.356 95.7386 317.71 114.446C317.772 115.31 317.804 116.183 317.804 117.065Z" fill="white"/>
<path fill-rule="evenodd" clip-rule="evenodd" d="M278.431 125.321C276.932 128.579 274.483 130.208 271.082 130.208C268.015 130.208 265.732 128.876 264.234 126.212C262.985 123.989 262.361 121.004 262.361 117.259C262.361 114.358 262.735 111.867 263.484 109.786C264.888 105.91 267.426 103.972 271.1 103.972C274.406 103.972 276.796 105.333 278.27 108.056C279.411 110.161 279.982 113.044 279.982 116.706C279.982 120.178 279.465 123.05 278.431 125.321ZM266.677 123.662C267.533 126.076 268.996 127.283 271.065 127.283C272.729 127.283 274.055 126.545 275.042 125.071C276.029 123.597 276.522 120.85 276.522 116.831C276.522 113.93 276.165 111.543 275.452 109.67C274.739 107.797 273.353 106.861 271.296 106.861C269.406 106.861 268.024 107.75 267.15 109.527C266.276 111.305 265.839 113.924 265.839 117.384C265.839 119.988 266.118 122.081 266.677 123.662Z" fill="#00AB4E"/>
<path fill-rule="evenodd" clip-rule="evenodd" d="M289.585 129.929L298.376 113.86H297.158L288.366 129.929H289.585ZM287.971 121.916C289.032 121.916 289.936 121.543 290.682 120.797C291.429 120.051 291.802 119.151 291.802 118.097C291.802 117.043 291.429 116.141 290.682 115.391C289.936 114.641 289.032 114.266 287.971 114.266C286.918 114.266 286.018 114.641 285.271 115.391C284.525 116.141 284.152 117.043 284.152 118.097C284.152 119.151 284.525 120.051 285.271 120.797C286.018 121.543 286.918 121.916 287.971 121.916ZM286.374 119.694C286.817 120.137 287.349 120.358 287.971 120.358C288.601 120.358 289.137 120.137 289.579 119.694C290.022 119.251 290.243 118.719 290.243 118.097C290.243 117.475 290.022 116.943 289.579 116.5C289.137 116.057 288.601 115.836 287.971 115.836C287.349 115.836 286.817 116.055 286.374 116.494C285.932 116.934 285.71 117.468 285.71 118.097C285.71 118.719 285.932 119.251 286.374 119.694ZM298.749 129.512C299.803 129.512 300.703 129.138 301.449 128.392C302.196 127.646 302.569 126.746 302.569 125.692C302.569 124.638 302.196 123.738 301.449 122.992C300.703 122.246 299.803 121.873 298.749 121.873C297.688 121.873 296.785 122.246 296.038 122.992C295.292 123.738 294.919 124.638 294.919 125.692C294.919 126.746 295.292 127.646 296.038 128.392C296.785 129.138 297.688 129.512 298.749 129.512ZM297.142 127.289C297.584 127.732 298.12 127.953 298.749 127.953C299.371 127.953 299.904 127.732 300.346 127.289C300.789 126.846 301.01 126.314 301.01 125.692C301.01 125.07 300.789 124.538 300.346 124.095C299.904 123.652 299.371 123.431 298.749 123.431C298.12 123.431 297.584 123.652 297.142 124.095C296.699 124.538 296.477 125.07 296.477 125.692C296.477 126.314 296.699 126.846 297.142 127.289Z" fill="#00AB4E"/>
<path fill-rule="evenodd" clip-rule="evenodd" d="M189.934 101.695C190.604 101.952 190.938 102.704 190.681 103.374L188.859 108.12C188.602 108.79 187.85 109.125 187.18 108.868L179.36 105.866C178.69 105.609 178.356 104.857 178.613 104.187L180.435 99.441C180.692 98.7708 181.444 98.4361 182.114 98.6933L189.934 101.695ZM185.494 101.574C184.303 101.116 182.958 101.734 182.49 102.952C182.022 104.171 182.608 105.53 183.8 105.987C184.991 106.445 186.336 105.827 186.804 104.609C187.272 103.39 186.686 102.031 185.494 101.574Z" fill="#00AB4E"/>
<path d="M193.345 108.08C192.869 107.888 192.64 107.347 192.832 106.872C192.862 106.798 195.749 99.4092 188.556 95.9158C184.743 94.0708 181.014 95.7553 180.975 95.775C180.513 95.9891 179.96 95.7888 179.744 95.3261C179.527 94.8608 179.727 94.3081 180.193 94.0912C180.378 94.0066 184.777 92.0033 189.365 94.2473C196.355 97.6399 195.815 104.444 194.553 107.568C194.361 108.042 193.821 108.273 193.345 108.08Z" fill="#28D677"/>
<path d="M192.402 111.55L195.979 109.062C196.371 108.788 196.304 108.19 195.862 108.011L191.438 106.224C190.996 106.045 190.533 106.429 190.625 106.898L191.469 111.173C191.551 111.599 192.046 111.798 192.402 111.55Z" fill="#28D677"/>
<path d="M180.856 114.027C180.639 113.94 180.422 113.843 180.205 113.737C173.217 110.345 173.758 103.544 175.02 100.42C175.212 99.9455 175.752 99.7148 176.226 99.9064C176.702 100.099 176.931 100.64 176.739 101.114C176.709 101.188 173.824 108.578 181.014 112.068C184.841 113.93 188.558 112.228 188.595 112.211C189.059 111.996 189.611 112.193 189.827 112.661C190.043 113.123 189.843 113.676 189.378 113.891C189.202 113.975 185.211 115.787 180.856 114.027Z" fill="#28D677"/>
<path d="M177.17 96.4353L173.59 98.9247C173.201 99.1975 173.266 99.7945 173.708 99.973L178.132 101.76C178.574 101.939 179.039 101.556 178.945 101.088L178.101 96.8113C178.018 96.3877 177.524 96.188 177.17 96.4353Z" fill="#28D677"/>
</svg>
