<svg width="30" height="22" viewBox="0 0 30 22" fill="none" xmlns="http://www.w3.org/2000/svg">
<path fill-rule="evenodd" clip-rule="evenodd" d="M6.24366 4.83301C6.43355 4.83311 6.607 4.94077 6.69136 5.11089L11.9912 15.7994C12.0514 15.9208 12.0598 16.0614 12.0144 16.189L11.1511 18.6172C11.0815 18.8132 10.8978 18.9456 10.6898 18.9497L1.23432 19.1354C0.976851 19.1404 0.75765 18.9491 0.727861 18.6933L0.425232 16.0947C0.414024 15.9984 0.43102 15.901 0.474155 15.8142L5.79568 5.11042C5.88021 4.94038 6.05377 4.83291 6.24366 4.83301ZM23.49 4.83301C23.68 4.83315 23.8534 4.94092 23.9377 5.11114L29.2377 15.815C29.2811 15.9027 29.2979 16.0013 29.2858 16.0985L28.9858 18.5114C28.9547 18.7618 28.7419 18.9498 28.4896 18.9498H18.4896C18.2389 18.9498 18.027 18.7641 17.994 18.5155L17.6738 16.1026C17.6607 16.0039 17.6774 15.9035 17.7217 15.8143L23.0419 5.11046C23.1264 4.94037 23.3001 4.83286 23.49 4.83301ZM1.43569 16.1265L1.66863 18.1266L10.3247 17.9566L11.0012 16.0538L6.24281 6.45734L1.43569 16.1265ZM18.6852 16.1225L18.9277 17.9498H28.0479L28.2749 16.1241L23.4888 6.4581L18.6852 16.1225Z" fill="#285739"/>
<path fill-rule="evenodd" clip-rule="evenodd" d="M12.0443 16.0366V17.6419C12.0443 20.0292 9.50656 21.9646 6.3776 21.9646C6.01333 21.9646 5.66014 21.9384 5.30805 21.8869C2.69062 21.5044 0.710938 19.7513 0.710938 17.6419V16.0366H12.0443Z" fill="#00883E"/>
<path fill-rule="evenodd" clip-rule="evenodd" d="M10.4209 16.0366V17.6419C10.4209 19.7513 8.27031 21.5128 5.41489 21.8869C2.57149 21.5044 0.420898 19.7513 0.420898 17.6419V16.0366H10.4209Z" fill="#00AB4E"/>
<path fill-rule="evenodd" clip-rule="evenodd" d="M29.2904 16.0371V17.6424C29.2904 20.0296 26.7527 21.9651 23.6237 21.9651C23.2594 21.9651 22.9062 21.9389 22.5541 21.8874C19.9367 21.5049 17.957 19.7518 17.957 17.6424V16.0371H29.2904Z" fill="#00782E"/>
<path fill-rule="evenodd" clip-rule="evenodd" d="M27.667 16.0371V17.6424C27.667 19.7518 25.5164 21.5133 22.661 21.8874C19.8176 21.5049 17.667 19.7518 17.667 17.6424V16.0371H27.667Z" fill="#00AB4E"/>
<path fill-rule="evenodd" clip-rule="evenodd" d="M26.3333 7.17098C26.3333 7.50966 25.9285 7.71059 25.6491 7.51908C24.0993 6.4565 20.034 4.08085 14.6667 4.08085C9.08342 4.08085 4.90909 6.65148 3.50944 7.6407C3.30201 7.78731 3 7.63782 3 7.38381V5.76643C3 5.49607 3.13569 5.245 3.36833 5.10726C4.69265 4.32318 9.41325 1.76344 14.6667 1.71948C19.9324 1.67541 24.6629 4.30855 25.9743 5.1067C26.202 5.24531 26.3333 5.493 26.3333 5.75961V7.17098Z" fill="#00AB4E"/>
<path fill-rule="evenodd" clip-rule="evenodd" d="M17 2.66613C17 3.77132 16.1042 4.6665 15 4.6665C13.8958 4.6665 13 3.77132 13 2.66613C13 1.56169 13.8958 0.666504 15 0.666504C16.1042 0.666504 17 1.56169 17 2.66613" fill="#9BB20E"/>
<path fill-rule="evenodd" clip-rule="evenodd" d="M16.333 2.66613C16.333 3.77132 15.4372 4.6665 14.333 4.6665C13.2288 4.6665 12.333 3.77132 12.333 2.66613C12.333 1.56169 13.2288 0.666504 14.333 0.666504C15.4372 0.666504 16.333 1.56169 16.333 2.66613" fill="#BFD730"/>
</svg>
