<svg width="20" height="20" viewBox="0 0 20 20" fill="none" xmlns="http://www.w3.org/2000/svg">
<path fill-rule="evenodd" clip-rule="evenodd" d="M12.8037 12.1734H13.4988L17.2294 15.9194C17.5902 16.2799 17.5902 16.8691 17.2294 17.2296C16.8687 17.5901 16.2792 17.5901 15.9184 17.2296L12.179 13.4924V12.7977L11.9415 12.5515C10.7097 13.6067 9.02913 14.1519 7.24301 13.8529C4.79699 13.4396 2.8437 11.3995 2.54454 8.93737C2.08702 5.21773 5.21932 2.08726 8.94114 2.54452C11.4048 2.8435 13.446 4.79564 13.8596 7.24023C14.1587 9.0253 13.6132 10.7049 12.5574 11.9359L12.8037 12.1734ZM4.26028 8.2163C4.26028 10.4059 6.0288 12.1734 8.21966 12.1734C10.4105 12.1734 12.179 10.4059 12.179 8.2163C12.179 6.02673 10.4105 4.25924 8.21966 4.25924C6.0288 4.25924 4.26028 6.02673 4.26028 8.2163Z" fill="black"/>
<mask id="mask0" mask-type="alpha" maskUnits="userSpaceOnUse" x="2" y="2" width="16" height="16">
<path fill-rule="evenodd" clip-rule="evenodd" d="M12.8037 12.1734H13.4988L17.2294 15.9194C17.5902 16.2799 17.5902 16.8691 17.2294 17.2296C16.8687 17.5901 16.2792 17.5901 15.9184 17.2296L12.179 13.4924V12.7977L11.9415 12.5515C10.7097 13.6067 9.02913 14.1519 7.24301 13.8529C4.79699 13.4396 2.8437 11.3995 2.54454 8.93737C2.08702 5.21773 5.21932 2.08726 8.94114 2.54452C11.4048 2.8435 13.446 4.79564 13.8596 7.24023C14.1587 9.0253 13.6132 10.7049 12.5574 11.9359L12.8037 12.1734ZM4.26028 8.2163C4.26028 10.4059 6.0288 12.1734 8.21966 12.1734C10.4105 12.1734 12.179 10.4059 12.179 8.2163C12.179 6.02673 10.4105 4.25924 8.21966 4.25924C6.0288 4.25924 4.26028 6.02673 4.26028 8.2163Z" fill="white"/>
</mask>
<g mask="url(#mask0)">
<rect width="20" height="20" fill="#58585B"/>
</g>
</svg>
