<svg width="903" height="774" viewBox="0 0 903 774" fill="none" xmlns="http://www.w3.org/2000/svg">
<path d="M903 425.25C903 617.583 747.083 773.5 554.75 773.5C362.417 773.5 206.5 617.583 206.5 425.25C206.5 232.917 362.417 77 554.75 77C747.083 77 903 232.917 903 425.25Z" fill="#00AB4E" fill-opacity="0.2"/>
<path d="M353.5 327.25C353.5 424.866 274.366 504 176.75 504C79.1337 504 0 424.866 0 327.25C0 229.634 79.1337 150.5 176.75 150.5C274.366 150.5 353.5 229.634 353.5 327.25Z" fill="#00AB4E" fill-opacity="0.1"/>
<path d="M820.75 348.25C820.75 539.617 665.617 694.75 474.25 694.75C282.883 694.75 127.75 539.617 127.75 348.25C127.75 156.883 282.883 1.75 474.25 1.75C665.617 1.75 820.75 156.883 820.75 348.25Z" stroke="#00AB4E" stroke-opacity="0.4" stroke-width="3.5"/>
</svg>
