<svg width="20" height="20" viewBox="0 0 20 20" fill="none" xmlns="http://www.w3.org/2000/svg">
<path fill-rule="evenodd" clip-rule="evenodd" d="M15.9051 4.0887C14.3384 2.52763 12.2547 1.66754 10.0349 1.66663C5.46084 1.66663 1.7382 5.37136 1.73636 9.92478C1.73574 11.3804 2.11782 12.8013 2.84405 14.0537L1.66675 18.3333L6.06595 17.1848C7.27811 17.8429 8.64278 18.1897 10.0316 18.1901H10.035C14.6086 18.1901 18.3317 14.485 18.3334 9.9314C18.3343 7.72457 17.472 5.64968 15.9051 4.0887ZM10.0349 16.7953H10.0321C8.79446 16.7948 7.58067 16.4638 6.52152 15.8385L6.26977 15.6897L3.65921 16.3712L4.35601 13.8382L4.19195 13.5785C3.5015 12.4855 3.1369 11.2223 3.13751 9.92529C3.13894 6.1406 6.23318 3.06148 10.0377 3.06148C11.88 3.06209 13.6118 3.77702 14.914 5.07452C16.2162 6.37203 16.933 8.09668 16.9324 9.93089C16.9307 13.7159 13.8367 16.7953 10.0349 16.7953ZM13.8183 11.6542C13.611 11.5509 12.5915 11.0518 12.4014 10.9828C12.2115 10.914 12.0731 10.8797 11.935 11.0862C11.7967 11.2927 11.3994 11.7576 11.2784 11.8952C11.1574 12.0329 11.0365 12.0502 10.8291 11.9469C10.6217 11.8436 9.95368 11.6256 9.16162 10.9226C8.54526 10.3754 8.12915 9.69967 8.00813 9.49316C7.88731 9.28646 8.00711 9.18555 8.0991 9.07202C8.32356 8.79462 8.54833 8.50378 8.61743 8.36615C8.68663 8.22841 8.65198 8.10787 8.60005 8.00462C8.54833 7.90137 8.13365 6.88564 7.96091 6.47233C7.79246 6.07011 7.62166 6.12443 7.4943 6.11812C7.37348 6.11212 7.23518 6.1109 7.09689 6.1109C6.95869 6.1109 6.73403 6.16248 6.54391 6.36918C6.35389 6.57579 5.81829 7.07495 5.81829 8.09068C5.81829 9.1064 6.56128 10.0876 6.66493 10.2254C6.76857 10.3631 8.12711 12.4475 10.2071 13.3412C10.7018 13.554 11.0879 13.6809 11.3892 13.776C11.8859 13.9331 12.3378 13.9109 12.6952 13.8578C13.0936 13.7985 13.9218 13.3585 14.0948 12.8765C14.2675 12.3945 14.2675 11.9814 14.2156 11.8952C14.1639 11.8091 14.0256 11.7576 13.8183 11.6542Z" fill="#58585B"/>
</svg>
