<svg width="24" height="24" viewBox="0 0 24 24" fill="none" xmlns="http://www.w3.org/2000/svg">
<path d="M20 12C20 11.4477 19.5523 11 19 11H7.83L12.71 6.12C13.1017 5.72829 13.1006 5.09284 12.7075 4.70251C12.3164 4.31412 11.6848 4.31524 11.295 4.705L4.07921 11.9208C4.03546 11.9645 4.03546 12.0355 4.07921 12.0792L11.2947 19.2947C11.6842 19.6842 12.3158 19.6842 12.7053 19.2947C13.0946 18.9054 13.0949 18.2743 12.7059 17.8847L7.83 13H19C19.5523 13 20 12.5523 20 12Z" fill="black"/>
<mask id="mask0_0_5132" style="mask-type:alpha" maskUnits="userSpaceOnUse" x="4" y="4" width="16" height="16">
<path d="M20 12C20 11.4477 19.5523 11 19 11H7.83L12.71 6.12C13.1017 5.72829 13.1006 5.09284 12.7075 4.70251C12.3164 4.31412 11.6848 4.31524 11.295 4.705L4.07921 11.9208C4.03546 11.9645 4.03546 12.0355 4.07921 12.0792L11.2947 19.2947C11.6842 19.6842 12.3158 19.6842 12.7053 19.2947C13.0946 18.9054 13.0949 18.2743 12.7059 17.8847L7.83 13H19C19.5523 13 20 12.5523 20 12Z" fill="white"/>
</mask>
<g mask="url(#mask0_0_5132)">
<rect width="24" height="24" fill="#58585B"/>
</g>
</svg>
