<svg width="48" height="48" viewBox="0 0 48 48" fill="none" xmlns="http://www.w3.org/2000/svg">
<rect x="8" y="9" width="32" height="30" rx="4" fill="#1868AB"/>
<mask id="mask0_0_6839" style="mask-type:alpha" maskUnits="userSpaceOnUse" x="8" y="9" width="32" height="30">
<rect x="8" y="9" width="32" height="30" rx="4" fill="white"/>
</mask>
<g mask="url(#mask0_0_6839)">
<rect x="5" y="9" width="32" height="30" rx="4" fill="#5297D1"/>
</g>
<path fill-rule="evenodd" clip-rule="evenodd" d="M8 13C8 10.7909 9.79086 9 12 9H36C38.2091 9 40 10.7909 40 13V20H8V13Z" fill="#0F5895"/>
<mask id="mask1_0_6839" style="mask-type:alpha" maskUnits="userSpaceOnUse" x="8" y="9" width="32" height="11">
<path fill-rule="evenodd" clip-rule="evenodd" d="M8 13C8 10.7909 9.79086 9 12 9H36C38.2091 9 40 10.7909 40 13V20H8V13Z" fill="white"/>
</mask>
<g mask="url(#mask1_0_6839)">
<path fill-rule="evenodd" clip-rule="evenodd" d="M5 13C5 10.7909 6.79086 9 9 9H33C35.2091 9 37 10.7909 37 13V20H5V13Z" fill="#1868AB"/>
</g>
<rect x="13" y="6" width="6" height="9" rx="2" fill="#CC9D3F"/>
<mask id="mask2_0_6839" style="mask-type:alpha" maskUnits="userSpaceOnUse" x="13" y="6" width="6" height="9">
<rect x="13" y="6" width="6" height="9" rx="2" fill="white"/>
</mask>
<g mask="url(#mask2_0_6839)">
<rect x="12" y="6" width="6" height="9" rx="2" fill="#FFC54F"/>
</g>
<rect x="27" y="6" width="6" height="9" rx="2" fill="#CC9D3F"/>
<mask id="mask3_0_6839" style="mask-type:alpha" maskUnits="userSpaceOnUse" x="27" y="6" width="6" height="9">
<rect x="27" y="6" width="6" height="9" rx="2" fill="white"/>
</mask>
<g mask="url(#mask3_0_6839)">
<rect x="26" y="6" width="6" height="9" rx="2" fill="#FFC54F"/>
</g>
<path fill-rule="evenodd" clip-rule="evenodd" d="M28.2035 22.5858C28.9577 21.8047 30.1803 21.8047 30.9344 22.5858C31.6442 23.3209 31.6859 24.4859 31.0597 25.2715L30.9344 25.4142L23.2103 33.4142C22.5733 34.074 21.588 34.1848 20.8339 33.704L20.6863 33.6L16.2725 30.1714C15.4193 29.5087 15.2464 28.2551 15.8863 27.3714C16.4907 26.5369 17.6038 26.3308 18.4444 26.8687L18.5897 26.9714L21.6628 29.3588L28.2035 22.5858Z" fill="white"/>
</svg>
