<svg width="48" height="48" viewBox="0 0 48 48" fill="none" xmlns="http://www.w3.org/2000/svg">
<path fill-rule="evenodd" clip-rule="evenodd" d="M29.8546 27.039L24.1452 28.6355C23.7923 28.7341 23.4213 28.7369 23.0684 28.641L17.045 27.0265C16.0904 26.7694 15.4193 25.8468 15.4193 24.788V17.7086C15.4193 13.336 18.7151 9.79004 22.7807 9.79004H24.0966C28.1636 9.79004 31.458 13.336 31.458 17.7086V24.8061C31.458 25.8565 30.7994 26.775 29.8546 27.039Z" fill="#946F25"/>
<path fill-rule="evenodd" clip-rule="evenodd" d="M24.0973 9.79004H22.7814C22.4494 9.79004 22.1242 9.81227 21.806 9.85395C25.4103 10.3319 28.1921 13.4166 28.1921 17.1515V23.7487C28.1921 24.7255 27.5334 25.5786 26.5872 25.8246L21.9394 27.0334L23.0691 27.3141C23.422 27.403 23.7916 27.4002 24.1445 27.3085L29.8553 25.8246C30.7987 25.5786 31.4587 24.7255 31.4587 23.7487V17.1515C31.4587 13.0859 28.1629 9.79004 24.0973 9.79004Z" fill="#6C4A07"/>
<path fill-rule="evenodd" clip-rule="evenodd" d="M27.1245 28.4021C26.5771 28.2923 26.1838 27.813 26.1838 27.2544V24.6172H23.5966H21.0094V27.2544C21.0094 27.813 20.6148 28.2923 20.0702 28.4021L19.4393 28.5286V32.7637H23.5966H27.7539V28.5286L27.1245 28.4021Z" fill="#FFDAB8"/>
<mask id="mask0_0_11294" style="mask-type:alpha" maskUnits="userSpaceOnUse" x="10" y="28" width="27" height="11">
<path fill-rule="evenodd" clip-rule="evenodd" d="M10.8 28.1836H36.3928V38.9687H10.8V28.1836Z" fill="white"/>
</mask>
<g mask="url(#mask0_0_11294)">
<path fill-rule="evenodd" clip-rule="evenodd" d="M32.5114 29.8232L27.3217 28.2044C27.1591 28.1544 26.984 28.1961 26.8618 28.3114L23.5965 31.4058L20.3312 28.3114C20.209 28.1961 20.0339 28.1544 19.8713 28.2044L14.6816 29.8232C12.3807 30.5012 10.7994 32.6132 10.7994 35.0129V38.4699C10.7994 38.745 11.0231 38.9687 11.2983 38.9687H35.8947C36.1698 38.9687 36.3935 38.745 36.3935 38.4699V35.0129C36.3935 32.6132 34.8123 30.5012 32.5114 29.8232Z" fill="#40C07A"/>
</g>
<mask id="mask1_0_11294" style="mask-type:alpha" maskUnits="userSpaceOnUse" x="26" y="28" width="11" height="11">
<path fill-rule="evenodd" clip-rule="evenodd" d="M26.2518 28.1836H36.3928V38.9687H26.2518V28.1836Z" fill="white"/>
</mask>
<g mask="url(#mask1_0_11294)">
<path fill-rule="evenodd" clip-rule="evenodd" d="M32.5114 29.8232L27.3217 28.2044C27.1592 28.1544 26.9841 28.1961 26.8618 28.3114L26.2518 28.8908L29.2448 29.8232C31.5471 30.5012 33.1256 32.6132 33.1256 35.0129V38.9687H35.8948C36.1699 38.9687 36.3936 38.745 36.3936 38.4699V35.0129C36.3936 32.6132 34.8124 30.5012 32.5114 29.8232Z" fill="#00AB4E"/>
</g>
<path fill-rule="evenodd" clip-rule="evenodd" d="M23.5966 26.8098C20.0354 26.8098 17.1453 23.9211 17.1453 20.3585V18.5466C17.1453 14.984 20.0354 12.0967 23.5966 12.0967C27.1592 12.0967 30.0479 14.984 30.0479 18.5466V20.3585C30.0479 23.9211 27.1592 26.8098 23.5966 26.8098Z" fill="#FFDAB8"/>
<path fill-rule="evenodd" clip-rule="evenodd" d="M26.7798 12.9355V20.3595C26.7798 23.3566 24.7345 25.8771 21.9625 26.601C22.485 26.7372 23.0324 26.8094 23.5965 26.8094C27.1592 26.8094 30.0479 23.9221 30.0479 20.3595V18.5462C30.0479 16.1425 28.7307 14.0443 26.7798 12.9355Z" fill="#FFB490"/>
<path fill-rule="evenodd" clip-rule="evenodd" d="M20.3318 28.3114L23.5971 31.4058L21.5823 32.0922C21.0891 32.2603 20.543 32.1144 20.1998 31.7226L17.7085 28.8797L19.8719 28.2044C20.0331 28.1544 20.2082 28.1961 20.3318 28.3114Z" fill="#E6F6ED"/>
<path fill-rule="evenodd" clip-rule="evenodd" d="M26.8612 28.3114L23.5959 31.4058L25.4217 32.0283C26.0289 32.2353 26.7014 32.0547 27.1238 31.5725L29.4845 28.8797L27.3211 28.2044C27.1599 28.1544 26.9849 28.1961 26.8612 28.3114Z" fill="#E6F6ED"/>
<mask id="mask2_0_11294" style="mask-type:alpha" maskUnits="userSpaceOnUse" x="15" y="9" width="17" height="11">
<path fill-rule="evenodd" clip-rule="evenodd" d="M15.4198 9.79004H31.4585V19.2233H15.4198V9.79004Z" fill="white"/>
</mask>
<g mask="url(#mask2_0_11294)">
<path fill-rule="evenodd" clip-rule="evenodd" d="M31.4585 18.5118C31.4585 18.5118 28.6754 18.2908 27.7236 15.7314C27.7236 15.7314 20.9971 21.117 15.4198 18.5118V17.1515C15.4198 13.0859 18.7156 9.79004 22.7812 9.79004H24.0971C28.1627 9.79004 31.4585 13.0859 31.4585 17.1515V18.5118Z" fill="#946F25"/>
</g>
<path fill-rule="evenodd" clip-rule="evenodd" d="M24.0973 9.79004H22.7814C22.4494 9.79004 22.1242 9.81227 21.806 9.85395C25.2325 10.3083 27.5223 12.4273 27.7766 15.9134C28.7603 18.2756 31.4587 18.5118 31.4587 18.5118V17.1515C31.4587 13.0859 28.1629 9.79004 24.0973 9.79004Z" fill="#6C4A07"/>
<path d="M15.8041 18.9451C15.8041 18.9451 15.4671 9.19059 23.5357 9.21881C32.1239 9.24831 31.0426 18.9438 31.0426 18.9451" stroke="#00AB4E" stroke-width="0.811" stroke-linecap="round"/>
<path fill-rule="evenodd" clip-rule="evenodd" d="M30.0025 25.6067H26.1148C25.8689 25.6067 25.6702 25.4108 25.6702 25.1704C25.6702 24.9272 25.8689 24.7327 26.1148 24.7327H30.0025C30.2485 24.7327 30.4472 24.5354 30.4472 24.295V21.3049C30.4472 21.0631 30.6473 20.8672 30.8932 20.8672C31.1377 20.8672 31.3378 21.0631 31.3378 21.3049V24.295C31.3378 25.0189 30.7376 25.6067 30.0025 25.6067Z" fill="#E6F6ED"/>
<path fill-rule="evenodd" clip-rule="evenodd" d="M23.4459 25.1693C23.4459 25.6529 23.8433 26.0433 24.3352 26.0433H25.8191C26.311 26.0433 26.7098 25.6529 26.7098 25.1693C26.7098 24.6858 26.311 24.2939 25.8191 24.2939H24.3352C23.8433 24.2939 23.4459 24.6858 23.4459 25.1693Z" fill="#00883E"/>
<path fill-rule="evenodd" clip-rule="evenodd" d="M15.7605 21.7467H16.6817C17.0361 21.7467 17.3223 21.4591 17.3223 21.1062V18.5746C17.3223 18.2202 17.0361 17.9326 16.6817 17.9326H15.7605C15.302 17.9326 14.9282 18.305 14.9282 18.7649V20.9158C14.9282 21.3743 15.302 21.7467 15.7605 21.7467Z" fill="#00AB4E"/>
<path fill-rule="evenodd" clip-rule="evenodd" d="M31.4327 21.7467H30.5115C30.1572 21.7467 29.871 21.4591 29.871 21.1062V18.5746C29.871 18.2202 30.1572 17.9326 30.5115 17.9326H31.4327C31.8913 17.9326 32.265 18.305 32.265 18.7649V20.9158C32.265 21.3743 31.8913 21.7467 31.4327 21.7467Z" fill="#00AB4E"/>
</svg>
