<svg width="48" height="48" viewBox="0 0 48 48" fill="none" xmlns="http://www.w3.org/2000/svg">
<rect x="6" y="12" width="36" height="24" rx="3" fill="#1868AB"/>
<mask id="mask0_0_11656" style="mask-type:alpha" maskUnits="userSpaceOnUse" x="6" y="12" width="36" height="24">
<rect x="6" y="12" width="36" height="24" rx="3" fill="white"/>
</mask>
<g mask="url(#mask0_0_11656)">
<rect x="3" y="11" width="36" height="24" rx="3" fill="#5297D1"/>
<rect x="11" y="20" width="10" height="2" rx="1" fill="white"/>
<rect x="11" y="25" width="10" height="2" rx="1" fill="white"/>
<path d="M24.2748 23.5294C24.2748 24.776 24.6849 25.9292 25.3774 26.8598C25.428 26.9306 25.4813 26.9971 25.5389 27.0653C26.5641 28.3118 28.1199 29.1117 29.8606 29.1117C31.6021 29.1117 33.1549 28.3118 34.1796 27.0653C34.2368 26.9971 34.2879 26.9306 34.3411 26.8598C35.0332 25.9292 35.4442 24.776 35.4442 23.5294C35.4442 20.4472 32.9428 17.9463 29.8606 17.9463C26.7753 17.9463 24.2748 20.4472 24.2748 23.5294Z" fill="#C4E4FF"/>
<path d="M32.0597 22.9129C32.0597 24.1282 31.0749 25.1133 29.8597 25.1133C28.6444 25.1133 27.6597 24.1282 27.6597 22.9129C27.6597 21.6981 28.6444 20.7129 29.8597 20.7129C31.0749 20.7129 32.0597 21.6981 32.0597 22.9129Z" fill="#1868AB"/>
<path d="M34.0053 27.2635C32.9871 28.396 31.5079 29.1119 29.8609 29.1119C28.214 29.1119 26.7321 28.396 25.7135 27.2635C26.6274 25.9624 28.1471 25.1123 29.8609 25.1123C31.5752 25.1123 33.091 25.9624 34.0053 27.2635Z" fill="#1868AB"/>
</g>
</svg>
