<svg width="48" height="48" viewBox="0 0 48 48" fill="none" xmlns="http://www.w3.org/2000/svg">
<path d="M16.8421 13.3684C16.8421 12.2057 17.7847 11.2632 18.9474 11.2632H29.0527C30.2154 11.2632 31.1579 12.2057 31.1579 13.3684V16.8659H16.8421V13.3684Z" fill="#0F5895" stroke="#0F5895" stroke-width="2.52632" stroke-linejoin="round"/>
<path d="M18.1053 13.4918C18.1053 12.5617 18.8593 11.8076 19.7895 11.8076H28.2106C29.1407 11.8076 29.8948 12.5617 29.8948 13.4918V19.0335H18.1053V13.4918Z" fill="white"/>
<rect x="9.6842" y="13.6123" width="30.3158" height="24.3872" rx="3.36842" fill="#1868AB"/>
<rect x="8" y="13.6123" width="29.4737" height="24.3872" rx="3.36842" fill="#5297D1"/>
<path d="M10.5264 16.9807C10.5264 15.1204 12.0345 13.6123 13.8948 13.6123H36.6316C38.492 13.6123 40.0001 15.1204 40.0001 16.9807V22.6446H13.8948C12.0345 22.6446 10.5264 21.1365 10.5264 19.2762V16.9807Z" fill="#0F5895"/>
<path d="M8 16.9807C8 15.1204 9.50809 13.6123 11.3684 13.6123H34.1053C35.9656 13.6123 37.4737 15.1204 37.4737 16.9807V21.9859C37.4737 23.8462 35.9656 25.3543 34.1053 25.3543H11.3684C9.50809 25.3543 8 23.8462 8 21.9859V16.9807Z" fill="#1868AB"/>
<rect x="28.2105" y="22.6445" width="3.36842" height="5.41939" rx="0.842105" fill="#CC9D3F"/>
<rect x="27.3684" y="22.6445" width="3.36842" height="5.41939" rx="0.842105" fill="#FFC54F"/>
<rect x="14.7368" y="22.6445" width="4.21053" height="5.41939" rx="0.842105" fill="#CC9D3F"/>
<rect x="14.7368" y="22.6445" width="3.36842" height="5.41939" rx="0.842105" fill="#FFC54F"/>
<path d="M42 33C42 36.866 38.866 40 35 40C31.134 40 28 36.866 28 33C28 29.134 31.134 26 35 26C38.866 26 42 29.134 42 33Z" fill="#00AB4E"/>
<path fill-rule="evenodd" clip-rule="evenodd" d="M35.7085 31.762L39.3495 34.95C39.4455 35.0335 39.5 35.153 39.5001 35.2815C39.5001 35.521 39.3046 35.7165 39.0651 35.7165H38.9981C38.8966 35.7165 38.7976 35.681 38.7196 35.6155L38.6786 35.5815C38.6746 35.578 38.6701 35.574 38.6656 35.5705L35.9101 33.2745C35.8045 33.1869 35.647 33.2 35.558 33.3065C35.4691 33.413 35.4835 33.5705 35.5895 33.659L38.354 35.9625C38.447 36.0445 38.4995 36.1615 38.4995 36.2865C38.4995 36.5235 38.307 36.7165 38.0695 36.7165H37.996C37.8955 36.7165 37.7986 36.6815 37.721 36.6175L34.91 34.275C34.8035 34.186 34.646 34.201 34.5575 34.3065C34.469 34.4125 34.4835 34.57 34.5895 34.6585L36.865 36.5545C36.9505 36.626 37 36.7305 37 36.842C37 37.0485 36.832 37.2165 36.6255 37.2165C36.44 37.2165 36.258 37.1525 36.119 37.0415L35.88 36.8385L35.8775 36.836L35.25 36.3025V36.205C35.25 35.66 34.8065 35.2165 34.2615 35.2165H34.244C34.2159 35.2165 34.1887 35.2208 34.1615 35.2252C34.1485 35.2273 34.1356 35.2294 34.1225 35.231C33.953 34.926 33.6285 34.7165 33.244 34.7165C33.2148 34.7165 33.1864 34.721 33.1576 34.7257C33.146 34.7275 33.1343 34.7294 33.1225 34.731C32.953 34.426 32.6285 34.2165 32.244 34.2165C32.2145 34.2165 32.1857 34.2212 32.1569 34.2258C32.1458 34.2276 32.1347 34.2295 32.1235 34.231C31.955 33.926 31.634 33.7165 31.2615 33.7165C30.9295 33.7165 30.622 33.8815 30.439 34.1565L30.3 34.365L28 34L27.6948 31.364L29 29L30.0415 29.4515C30.429 29.774 30.9385 29.9155 31.442 29.834C32.4375 29.6775 33.3285 29.6885 34.1125 29.8485L34.1021 29.8553C34.0322 29.901 33.9632 29.946 33.895 29.9875L32.499 31.364C32.1675 31.6955 32.086 32.1985 32.296 32.6165C32.481 32.9865 32.8525 33.2165 33.2665 33.2165H33.4665C33.719 33.2165 33.9555 33.133 34.151 32.9735C34.248 32.8945 34.3595 32.8015 34.4785 32.7015C34.87 32.374 35.388 31.941 35.7085 31.762ZM39.1625 30.1548C39.127 30.1853 39.084 30.2053 39.0375 30.2123C38.0325 30.3653 37.308 30.1268 36.727 29.9348L36.7191 29.9322C36.3649 29.8158 36.0592 29.7153 35.75 29.7153C35.2247 29.7153 34.8177 29.9826 34.4243 30.2411L34.424 30.2413L34.4151 30.2471C34.3268 30.3051 34.2407 30.3615 34.1555 30.4133L32.8525 31.7163C32.674 31.8948 32.63 32.1663 32.743 32.3918C32.8425 32.5913 33.043 32.7153 33.266 32.7153H33.466C33.602 32.7153 33.7295 32.6703 33.8345 32.5853C33.93 32.5073 34.04 32.4158 34.1575 32.3173C34.798 31.7818 35.3155 31.3613 35.662 31.2313C35.691 31.2203 35.72 31.2153 35.75 31.2153C35.809 31.2153 35.8675 31.2363 35.9135 31.2763L39.527 34.4078L42 33.8238V31.5L41 29.0088L39.1625 30.1548ZM31.2615 34.2158C31.098 34.2158 30.9455 34.2973 30.855 34.4333L30.582 34.8428C30.5285 34.9228 30.5 35.0173 30.5 35.1138V35.2273C30.5 35.4973 30.7185 35.7158 30.9885 35.7158C31.152 35.7158 31.3045 35.6344 31.395 35.4983L31.668 35.0888C31.7215 35.0089 31.75 34.9144 31.75 34.8178V34.7043C31.75 34.4343 31.5315 34.2158 31.2615 34.2158ZM32.2445 34.7158H32.2615C32.5315 34.7158 32.75 34.9343 32.75 35.2044V35.3029C32.75 35.4088 32.7155 35.5114 32.652 35.5959L32.1465 36.2704C32.054 36.3934 31.9095 36.4659 31.7555 36.4659H31.7385C31.4685 36.4659 31.25 36.2473 31.25 35.9773V35.8788C31.25 35.7728 31.2845 35.6703 31.348 35.5858L31.8535 34.9113C31.946 34.7883 32.0905 34.7158 32.2445 34.7158ZM33.2615 35.2158H33.2445C33.0905 35.2158 32.946 35.2883 32.8535 35.4113L32.348 36.0858C32.2845 36.1703 32.25 36.2728 32.25 36.3788V36.4773C32.25 36.7473 32.4685 36.9658 32.7385 36.9658H32.7555C32.9095 36.9658 33.054 36.8933 33.1465 36.7703L33.652 36.0958C33.7155 36.0113 33.75 35.9088 33.75 35.8028V35.7043C33.75 35.4343 33.5315 35.2158 33.2615 35.2158ZM34.2445 35.7158H34.2615C34.5315 35.7158 34.75 35.9343 34.75 36.2043H34.7495V36.3028C34.7495 36.4083 34.7155 36.5113 34.652 36.5958L34.1465 37.2703C34.054 37.3933 33.9095 37.4658 33.7555 37.4658H33.7385C33.4685 37.4658 33.25 37.2473 33.25 36.9773V36.8788C33.25 36.7728 33.2845 36.6703 33.348 36.5858L33.8535 35.9113C33.946 35.7883 34.0905 35.7158 34.2445 35.7158ZM35.543 37.2078L35.0905 36.8223C35.0837 36.833 35.0785 36.8446 35.0734 36.8562L35.0734 36.8562C35.0672 36.8701 35.061 36.884 35.052 36.8963L34.7305 37.3248L35.067 37.6368C35.174 37.7433 35.332 37.7373 35.4265 37.6428C35.551 37.5183 35.6005 37.2798 35.543 37.2078Z" fill="white"/>
<path fill-rule="evenodd" clip-rule="evenodd" d="M43 33C43 37.4183 39.4183 41 35 41C30.5817 41 27 37.4183 27 33C27 28.5817 30.5817 25 35 25C39.4183 25 43 28.5817 43 33ZM35 40C38.866 40 42 36.866 42 33C42 29.134 38.866 26 35 26C31.134 26 28 29.134 28 33C28 36.866 31.134 40 35 40Z" fill="white"/>
</svg>
