<svg width="48" height="48" viewBox="0 0 48 48" fill="none" xmlns="http://www.w3.org/2000/svg">
<path fill-rule="evenodd" clip-rule="evenodd" d="M11.9098 37.56C11.3937 37.4856 11.2737 37.4556 11.1689 37.3553C11.0642 37.2549 11 37.11 11 36.6881C11 26.5595 11 19.736 11 16.8426C11 16.8156 11 16.7851 11 16.7524C11 16.4608 11.2364 16.2244 11.5279 16.2244C22.4858 18.6651 31.1954 13.2031 42.1533 15.6437C42.6347 15.7894 42.7358 15.8894 42.8259 15.983C42.9159 16.0765 42.9998 16.3149 42.9998 16.523C42.9991 24.5143 42.9991 31.2019 43 36.5615C43 36.762 42.8667 36.9545 42.6694 36.9185C42.6412 36.9134 42.6125 36.906 42.5837 36.8958C31.6259 34.454 25.0617 39.4572 11.9098 37.56Z" fill="#1868AB"/>
<path fill-rule="evenodd" clip-rule="evenodd" d="M27.0013 32.5C23.1346 32.5 20 29.3664 20 25.5006C20 21.6349 23.1346 18.5 27.0013 18.5C30.8667 18.5 34 21.6349 34 25.5006C34 29.3664 30.8667 32.5 27.0013 32.5Z" fill="white"/>
<path fill-rule="evenodd" clip-rule="evenodd" d="M9.90984 34.56C9.39366 34.4856 9.27367 34.4556 9.16895 34.3553C9.06422 34.2549 9 34.11 9 33.6881C9 23.5595 9 16.736 9 13.8426C9 13.8156 9 13.7851 9 13.7524C9 13.4608 9.23636 13.2244 9.52792 13.2244C20.4858 15.6651 29.1954 10.2031 40.1533 12.6437C40.6347 12.7894 40.7358 12.8894 40.8259 12.983C40.9159 13.0765 40.9998 13.3149 40.9998 13.523C40.9991 21.5143 40.9991 28.2019 41 33.5615C41 33.762 40.8667 33.9545 40.6694 33.9185C40.6412 33.9134 40.6125 33.906 40.5837 33.8958C29.6259 31.454 23.0617 36.4572 9.90984 34.56Z" fill="#5297D1"/>
<path fill-rule="evenodd" clip-rule="evenodd" d="M25.0013 30.5C21.1346 30.5 18 27.3664 18 23.5006C18 19.6349 21.1346 16.5 25.0013 16.5C28.8667 16.5 32 19.6349 32 23.5006C32 27.3664 28.8667 30.5 25.0013 30.5Z" fill="white"/>
<path fill-rule="evenodd" clip-rule="evenodd" d="M22.1818 23.4222V25.2799H21.2V20.5H23.2657C23.7928 20.5 24.1913 20.6232 24.4612 20.8695C24.7311 21.1159 24.866 21.4718 24.866 21.9374C24.866 22.299 24.7715 22.6018 24.5823 22.8459C24.3932 23.09 24.1265 23.2504 23.7822 23.3273C24.0159 23.3906 24.2136 23.5691 24.3751 23.8629L25.102 25.2799H24.0181L23.2402 23.7544C23.1765 23.6369 23.0999 23.5522 23.0107 23.5002C22.9214 23.4482 22.8088 23.4222 22.6728 23.4222H22.1818ZM22.1691 22.6223H23.1191C23.4039 22.6223 23.61 22.5692 23.7376 22.463C23.8651 22.3567 23.9288 22.1906 23.9288 21.9646C23.9288 21.7341 23.8651 21.5669 23.7376 21.4629C23.61 21.3589 23.4039 21.307 23.1191 21.307H22.1691V22.6223ZM26.5556 26.5003V24.8053C26.6491 24.9725 26.7819 25.1025 26.9541 25.1951C27.1262 25.2878 27.3186 25.3341 27.5311 25.3341C27.8031 25.3341 28.0433 25.264 28.2516 25.1239C28.4598 24.9838 28.6224 24.7838 28.7393 24.5239C28.8562 24.264 28.9147 23.9623 28.9147 23.6188C28.9147 23.2752 28.8562 22.9713 28.7393 22.7068C28.6224 22.4424 28.4588 22.2368 28.2484 22.0899C28.038 21.943 27.7989 21.8695 27.5311 21.8695C27.3143 21.8695 27.1188 21.9181 26.9445 22.0153C26.7703 22.1125 26.6364 22.2469 26.5429 22.4187V21.9509H25.5929V26.5003H26.5556ZM26.7278 24.3074C26.851 24.4724 27.0253 24.5549 27.2506 24.5549C27.4759 24.5549 27.6501 24.4746 27.7734 24.3142C27.8967 24.1537 27.9583 23.9221 27.9583 23.6192C27.9583 23.3119 27.8967 23.0734 27.7734 22.9039C27.6501 22.7344 27.4759 22.6497 27.2506 22.6497C27.0253 22.6497 26.851 22.7322 26.7278 22.8972C26.6045 23.0621 26.5429 23.2983 26.5429 23.6057C26.5429 23.9085 26.6045 24.1424 26.7278 24.3074Z" fill="#1868AB"/>
<path fill-rule="evenodd" clip-rule="evenodd" d="M9 19H12C12.5523 19 13 19.4477 13 20C13 20.5523 12.5523 21 12 21H9V19ZM9 24L11 24C11.5523 24 12 24.4477 12 25C12 25.5523 11.5523 26 11 26L9 26V24ZM9 29H12C12.5523 29 13 29.4477 13 30C13 30.5523 12.5523 31 12 31H9V29Z" fill="#1868AB"/>
<path d="M11 19H5" stroke="#FFC54F" stroke-width="2" stroke-linecap="round"/>
<path d="M10 24L7 24" stroke="#FFC54F" stroke-width="2" stroke-linecap="round"/>
<path d="M11 29L3 29" stroke="#FFC54F" stroke-width="2" stroke-linecap="round"/>
</svg>
