<svg width="48" height="48" viewBox="0 0 48 48" fill="none" xmlns="http://www.w3.org/2000/svg">
<path fill-rule="evenodd" clip-rule="evenodd" d="M8.96671 38.5026C8.41826 38.4185 8.29078 38.3846 8.17951 38.2712C8.06823 38.1577 8 37.9939 8 37.517C8 26.0673 8 18.3537 8 15.083C8 15.0428 8 14.9956 8 14.9451C8 14.6353 8.25113 14.3841 8.56091 14.3841C20.2036 17.1431 29.4576 10.9687 41.1004 13.7277C41.6119 13.8924 41.7193 14.0054 41.815 14.1112C41.9107 14.2169 41.9998 14.4864 41.9997 14.7216C41.9991 23.7553 41.999 31.3152 42 37.3739C42 37.6014 41.8486 37.8247 41.6271 37.7728C41.6042 37.7674 41.5809 37.7605 41.5577 37.7517C29.915 34.9915 22.9406 40.6473 8.96671 38.5026Z" fill="#1868AB"/>
<path fill-rule="evenodd" clip-rule="evenodd" d="M5.99407 34.4968C5.4301 34.4159 5.29901 34.3834 5.18459 34.2744C5.07016 34.1655 5 34.0081 5 33.5501C5 22.5519 5 15.1426 5 12.0008C5 11.9725 5 11.9405 5 11.9063C5 11.5878 5.25824 11.3295 5.57679 11.3295C17.549 13.9797 27.0649 8.0488 39.0372 10.699C39.5632 10.8572 39.6736 10.9658 39.772 11.0674C39.8705 11.1689 39.9621 11.4278 39.962 11.6537C39.9613 20.3311 39.9613 27.5928 39.9623 33.4125C39.9623 33.6302 39.8176 33.8387 39.6033 33.8006C39.5718 33.795 39.5397 33.7868 39.5075 33.7755C27.5352 31.1241 20.3634 36.5568 5.99407 34.4968Z" fill="#5297D1"/>
<path fill-rule="evenodd" clip-rule="evenodd" d="M22.4813 28.9658C18.9382 28.9658 16.0659 26.0948 16.0659 22.5528C16.0659 19.0109 18.9382 16.1387 22.4813 16.1387C26.0232 16.1387 28.8942 19.0109 28.8942 22.5528C28.8942 26.0948 26.0232 28.9658 22.4813 28.9658Z" fill="white"/>
<path d="M32.1121 14.2451H36.6312" stroke="white" stroke-width="2.37474" stroke-linecap="round"/>
<path d="M8.20691 31.3251H12.726" stroke="white" stroke-width="2.37474" stroke-linecap="round"/>
<circle cx="35" cy="35" r="7.5" fill="#E07E26" stroke="white"/>
<path d="M35.8182 32.75V30.5L39.5 34.25H30.5V32.75H35.8182Z" fill="white"/>
<path d="M39.5 35.75V37.25L34.1818 37.25L34.1818 39.5L30.5 35.75L39.5 35.75Z" fill="white"/>
</svg>
