<svg width="24" height="24" viewBox="0 0 24 24" fill="none" xmlns="http://www.w3.org/2000/svg">
<path fill-rule="evenodd" clip-rule="evenodd" d="M10.3457 4.66553L10.4399 4.6677C10.8835 4.7009 11.2274 5.08698 11.2044 5.5397C11.1204 7.12329 11.1249 8.70128 11.2186 10.2562L11.2729 11.0316L11.3436 11.8195L11.4195 12.5798L12.1808 12.6562C12.9921 12.7377 13.8127 12.7951 14.6342 12.8279L15.4557 12.8526L16.276 12.8609C16.9554 12.8609 17.6694 12.8388 18.455 12.7964C18.9422 12.7675 19.3527 13.1676 19.3328 13.6548C19.1558 18.4108 15.1721 22.1481 10.3903 21.9955C5.88658 21.8523 2.14846 18.1145 2.00446 13.6103C1.8554 8.90961 5.46194 4.98064 10.1008 4.67853L10.3457 4.66553ZM9.84706 6.03895L9.73311 6.05285C6.02959 6.52497 3.21587 9.74445 3.33711 13.5679C3.45863 17.3688 6.632 20.5419 10.4327 20.6627C14.177 20.7822 17.3424 18.0845 17.9138 14.4912L17.9461 14.2655L17.9581 14.1542L17.5894 14.1701L17.1405 14.1835L16.7034 14.1916L16.276 14.1943C15.1484 14.1943 14.0125 14.1488 12.8883 14.0588L12.0478 13.9829L10.2015 13.7982L10.0162 11.9454L9.94433 11.1443C9.81635 9.54112 9.78105 7.91697 9.83717 6.28634L9.84706 6.03895ZM14.624 2L14.6932 2.00338L14.8455 2.01974C18.5113 2.59078 21.4066 5.48114 21.9786 9.14179C22.1422 10.1911 21.3466 11.1598 20.2862 11.2344C18.3469 11.3695 16.4016 11.3653 14.4648 11.2214C13.5592 11.1536 12.8313 10.4275 12.7633 9.52203C12.6333 7.77807 12.6387 6.00503 12.7502 3.72434C12.7934 2.84317 13.4816 2.12666 14.3673 2.01321L14.5087 2.00037L14.624 2ZM14.5473 3.33279C14.3034 3.34615 14.0936 3.55178 14.082 3.78953C13.9729 6.02003 13.9676 7.74207 14.0929 9.42253C14.1114 9.66917 14.3158 9.87306 14.5639 9.89164C16.4367 10.0308 18.3179 10.0349 20.1931 9.90426C20.4831 9.88385 20.7031 9.61595 20.6613 9.34739C20.1912 6.3395 17.8576 3.94473 14.9098 3.3824L14.6758 3.34184L14.591 3.333L14.5473 3.33279Z" fill="#70717D"/>
<mask id="mask0_0_6091" style="mask-type:alpha" maskUnits="userSpaceOnUse" x="2" y="2" width="20" height="20">
<path fill-rule="evenodd" clip-rule="evenodd" d="M10.3457 4.66553L10.4399 4.6677C10.8835 4.7009 11.2274 5.08698 11.2044 5.5397C11.1204 7.12329 11.1249 8.70128 11.2186 10.2562L11.2729 11.0316L11.3436 11.8195L11.4195 12.5798L12.1808 12.6562C12.9921 12.7377 13.8127 12.7951 14.6342 12.8279L15.4557 12.8526L16.276 12.8609C16.9554 12.8609 17.6694 12.8388 18.455 12.7964C18.9422 12.7675 19.3527 13.1676 19.3328 13.6548C19.1558 18.4108 15.1721 22.1481 10.3903 21.9955C5.88658 21.8523 2.14846 18.1145 2.00446 13.6103C1.8554 8.90961 5.46194 4.98064 10.1008 4.67853L10.3457 4.66553ZM9.84706 6.03895L9.73311 6.05285C6.02959 6.52497 3.21587 9.74445 3.33711 13.5679C3.45863 17.3688 6.632 20.5419 10.4327 20.6627C14.177 20.7822 17.3424 18.0845 17.9138 14.4912L17.9461 14.2655L17.9581 14.1542L17.5894 14.1701L17.1405 14.1835L16.7034 14.1916L16.276 14.1943C15.1484 14.1943 14.0125 14.1488 12.8883 14.0588L12.0478 13.9829L10.2015 13.7982L10.0162 11.9454L9.94433 11.1443C9.81635 9.54112 9.78105 7.91697 9.83717 6.28634L9.84706 6.03895ZM14.624 2L14.6932 2.00338L14.8455 2.01974C18.5113 2.59078 21.4066 5.48114 21.9786 9.14179C22.1422 10.1911 21.3466 11.1598 20.2862 11.2344C18.3469 11.3695 16.4016 11.3653 14.4648 11.2214C13.5592 11.1536 12.8313 10.4275 12.7633 9.52203C12.6333 7.77807 12.6387 6.00503 12.7502 3.72434C12.7934 2.84317 13.4816 2.12666 14.3673 2.01321L14.5087 2.00037L14.624 2ZM14.5473 3.33279C14.3034 3.34615 14.0936 3.55178 14.082 3.78953C13.9729 6.02003 13.9676 7.74207 14.0929 9.42253C14.1114 9.66917 14.3158 9.87306 14.5639 9.89164C16.4367 10.0308 18.3179 10.0349 20.1931 9.90426C20.4831 9.88385 20.7031 9.61595 20.6613 9.34739C20.1912 6.3395 17.8576 3.94473 14.9098 3.3824L14.6758 3.34184L14.591 3.333L14.5473 3.33279Z" fill="white"/>
</mask>
<g mask="url(#mask0_0_6091)">
<rect width="24" height="24" fill="#58585B"/>
</g>
</svg>
