<svg width="24" height="24" viewBox="0 0 24 24" fill="none" xmlns="http://www.w3.org/2000/svg">
<path fill-rule="evenodd" clip-rule="evenodd" d="M11.8233 1.00011C8.96515 1.00011 6.7063 3.58225 6.7063 6.70611C6.7063 9.82997 8.96515 12.4121 11.8233 12.4121C14.6816 12.4121 16.9413 9.82981 16.9413 6.70611C16.9413 3.5824 14.6816 1.00011 11.8233 1.00011Z" fill="#00AB4E"/>
<path fill-rule="evenodd" clip-rule="evenodd" d="M11.8233 3.00009C13.5132 3.00009 14.9413 4.632 14.9413 6.70609C14.9413 8.78018 13.5132 10.4121 11.8233 10.4121C10.1336 10.4121 8.7063 8.78046 8.7063 6.70609C8.7063 4.63172 10.1336 3.00009 11.8233 3.00009Z" fill="#99DCAB"/>
<path fill-rule="evenodd" clip-rule="evenodd" d="M11.8235 13.941C8.72992 13.941 6.263 14.4493 4.36684 15.2959C2.92181 15.942 1.99951 17.3818 1.99951 18.97C1.99951 21.196 3.80393 23 6.02951 23H17.6175C19.8431 23 21.6475 21.196 21.6475 18.97C21.6475 17.3818 20.7252 15.942 19.2807 15.2961C17.384 14.4493 14.9171 13.941 11.8235 13.941Z" fill="#00AB4E"/>
<path fill-rule="evenodd" clip-rule="evenodd" d="M11.8235 15.941C14.6406 15.941 16.8296 16.3921 18.4648 17.1221C19.1849 17.4441 19.6475 18.1663 19.6475 18.97C19.6475 20.0913 18.7386 21 17.6175 21H6.02951C4.9084 21 3.99951 20.0913 3.99951 18.97C3.99951 18.1663 4.46215 17.4441 5.18268 17.1219C6.81746 16.3921 9.00644 15.941 11.8235 15.941Z" fill="#99DCAB"/>
</svg>
