<svg width="48" height="48" viewBox="0 0 48 48" fill="none" xmlns="http://www.w3.org/2000/svg">
<path fill-rule="evenodd" clip-rule="evenodd" d="M15 9C15 7.34315 16.3431 6 18 6H33C34.6569 6 36 7.34315 36 9V39C36 40.6569 34.6569 42 33 42H18C16.3431 42 15 40.6569 15 39V9Z" fill="#1868AB"/>
<path fill-rule="evenodd" clip-rule="evenodd" d="M12 9C12 7.34315 13.3431 6 15 6H30C31.6569 6 33 7.34315 33 9V39C33 40.6569 31.6569 42 30 42H15C13.3431 42 12 40.6569 12 39V9Z" fill="#5297D1"/>
<path fill-rule="evenodd" clip-rule="evenodd" d="M14 11C14 9.34314 15.3431 8 17 8L17.5 8C18.0523 8 18.5 8.44772 18.5 9C18.5 9.55228 18.9477 10 19.5 10H25.5C26.0523 10 26.5 9.55228 26.5 9C26.5 8.44772 26.9477 8 27.5 8H28C29.6569 8 31 9.34315 31 11V36.8529C31 38.5098 29.6569 39.8529 28 39.8529H17C15.3431 39.8529 14 38.5098 14 36.8529V11Z" fill="white"/>
<path d="M42.5 35C42.5 39.1425 39.1425 42.5 35 42.5C30.8575 42.5 27.5 39.1425 27.5 35C27.5 30.8575 30.8575 27.5 35 27.5C39.1425 27.5 42.5 30.8575 42.5 35Z" fill="#00AB4E" stroke="white"/>
<path fill-rule="evenodd" clip-rule="evenodd" d="M33.2223 39C32.977 39 32.7779 38.7984 32.7779 38.55V35.4H31.4447C31.274 35.4 31.1185 35.301 31.0438 35.1453C30.97 34.9887 30.9905 34.8042 31.0971 34.6692L34.6525 30.1683C34.7378 30.0621 34.8649 30 35 30C35.1351 30 35.2622 30.0621 35.3475 30.1683L38.9029 34.6692C39.0095 34.8042 39.03 34.9887 38.9562 35.1453C38.8815 35.301 38.726 35.4 38.5553 35.4H37.2221V38.55C37.2221 38.7984 37.023 39 36.7777 39H33.2223Z" fill="white"/>
</svg>
