<svg width="48" height="48" viewBox="0 0 48 48" fill="none" xmlns="http://www.w3.org/2000/svg">
<path fill-rule="evenodd" clip-rule="evenodd" d="M29.32 27.2052L22.6322 29.0753C22.2188 29.1909 21.7842 29.1941 21.3708 29.0818L14.3151 27.1905C13.1969 26.8894 12.4108 25.8087 12.4108 24.5684V16.2758C12.4108 11.1537 16.2715 7 21.0338 7H22.5752C27.3392 7 31.1983 11.1537 31.1983 16.2758V24.5896C31.1983 25.8201 30.4268 26.8959 29.32 27.2052Z" fill="#946F25"/>
<path fill-rule="evenodd" clip-rule="evenodd" d="M22.5763 7H21.0349C20.6459 7 20.2651 7.02604 19.8923 7.07487C24.1144 7.63477 27.3728 11.2481 27.3728 15.6231V23.351C27.3728 24.4952 26.6013 25.4945 25.4929 25.7826L20.0486 27.1987L21.3718 27.5274C21.7852 27.6316 22.2182 27.6283 22.6316 27.5209L29.3211 25.7826C30.4262 25.4945 31.1993 24.4952 31.1993 23.351V15.6231C31.1993 10.8607 27.3387 7 22.5763 7Z" fill="#6C4A07"/>
<path fill-rule="evenodd" clip-rule="evenodd" d="M26.1223 28.8018C25.481 28.6732 25.0204 28.1117 25.0204 27.4574V24.3682H21.9898H18.9592V27.4574C18.9592 28.1117 18.497 28.6732 17.8589 28.8018L17.12 28.9499V33.9108H21.9898H26.8596V28.9499L26.1223 28.8018Z" fill="#FFDAB8"/>
<mask id="mask0_4226_51179" style="mask-type:alpha" maskUnits="userSpaceOnUse" x="7" y="28" width="30" height="14">
<path fill-rule="evenodd" clip-rule="evenodd" d="M7 28.5459H36.979V41.1794H7V28.5459Z" fill="white"/>
</mask>
<g mask="url(#mask0_4226_51179)">
<path fill-rule="evenodd" clip-rule="evenodd" d="M32.4324 30.4665L26.3533 28.5703C26.1629 28.5117 25.9578 28.5606 25.8146 28.6956L21.9897 32.3203L18.1648 28.6956C18.0216 28.5606 17.8165 28.5117 17.6261 28.5703L11.5469 30.4665C8.85161 31.2608 6.99939 33.7347 6.99939 36.5456V40.5951C6.99939 40.9174 7.26144 41.1794 7.5837 41.1794H36.3957C36.7179 41.1794 36.98 40.9174 36.98 40.5951V36.5456C36.98 33.7347 35.1278 31.2608 32.4324 30.4665Z" fill="#40C07A"/>
</g>
<mask id="mask1_4226_51179" style="mask-type:alpha" maskUnits="userSpaceOnUse" x="25" y="28" width="12" height="14">
<path fill-rule="evenodd" clip-rule="evenodd" d="M25.1 28.5459H36.9789V41.1794H25.1V28.5459Z" fill="white"/>
</mask>
<g mask="url(#mask1_4226_51179)">
<path fill-rule="evenodd" clip-rule="evenodd" d="M32.4324 30.4665L26.3532 28.5703C26.1628 28.5117 25.9577 28.5606 25.8145 28.6956L25.1 29.3744L28.6058 30.4665C31.3028 31.2608 33.1518 33.7347 33.1518 36.5456V41.1794H36.3956C36.7179 41.1794 36.9799 40.9174 36.9799 40.5951V36.5456C36.9799 33.7347 35.1277 31.2608 32.4324 30.4665Z" fill="#00AB4E"/>
</g>
<path fill-rule="evenodd" clip-rule="evenodd" d="M21.9897 26.9379C17.8182 26.9379 14.4327 23.5541 14.4327 19.3809V17.2585C14.4327 13.0853 17.8182 9.70312 21.9897 9.70312C26.1629 9.70312 29.5467 13.0853 29.5467 17.2585V19.3809C29.5467 23.5541 26.1629 26.9379 21.9897 26.9379Z" fill="#FFDAB8"/>
<path fill-rule="evenodd" clip-rule="evenodd" d="M25.7185 10.6846V19.3809C25.7185 22.8917 23.3226 25.8441 20.0756 26.6921C20.6875 26.8516 21.3288 26.9363 21.9896 26.9363C26.1628 26.9363 29.5466 23.5541 29.5466 19.3809V17.2569C29.5466 14.4411 28.0037 11.9834 25.7185 10.6846Z" fill="#FFB490"/>
<path fill-rule="evenodd" clip-rule="evenodd" d="M18.1655 28.6956L21.9903 32.3203L19.6303 33.1244C19.0525 33.3213 18.4129 33.1504 18.0108 32.6914L15.0925 29.3613L17.6267 28.5703C17.8155 28.5117 18.0206 28.5606 18.1655 28.6956Z" fill="#E6F6ED"/>
<path fill-rule="evenodd" clip-rule="evenodd" d="M25.8138 28.6956L21.9889 32.3203L24.1276 33.0495C24.8388 33.292 25.6266 33.0804 26.1214 32.5156L28.8867 29.3613L26.3525 28.5703C26.1637 28.5117 25.9586 28.5606 25.8138 28.6956Z" fill="#E6F6ED"/>
<mask id="mask2_4226_51179" style="mask-type:alpha" maskUnits="userSpaceOnUse" x="12" y="7" width="20" height="12">
<path fill-rule="evenodd" clip-rule="evenodd" d="M12.4114 7H31.1989V18.05H12.4114V7Z" fill="white"/>
</mask>
<g mask="url(#mask2_4226_51179)">
<path fill-rule="evenodd" clip-rule="evenodd" d="M31.1989 17.2165C31.1989 17.2165 27.9388 16.9577 26.8239 13.9597C26.8239 13.9597 18.9446 20.2683 12.4114 17.2165V15.6231C12.4114 10.8607 16.2721 7 21.0345 7H22.5758C27.3382 7 31.1989 10.8607 31.1989 15.6231V17.2165Z" fill="#946F25"/>
</g>
<path fill-rule="evenodd" clip-rule="evenodd" d="M22.5763 7H21.0349C20.6459 7 20.2651 7.02604 19.8923 7.07487C23.906 7.6071 26.5883 10.0892 26.8862 14.1729C28.0385 16.9398 31.1993 17.2165 31.1993 17.2165V15.6231C31.1993 10.8607 27.3387 7 22.5763 7Z" fill="#6C4A07"/>
<path d="M37.454 40.5945H34.176V35.3604H40.6467V37.4018C40.6467 39.1651 39.2173 40.5945 37.454 40.5945Z" fill="#40C07A"/>
<path d="M40.7097 37.7036H33.4995C33.2263 37.7036 33.0048 37.5119 33.0048 37.2753V25.2466C33.0048 25.0101 33.2263 24.8184 33.4995 24.8184H40.7097C40.9829 24.8184 41.2045 25.0101 41.2045 25.2466V37.2753C41.2045 37.5119 40.9829 37.7036 40.7097 37.7036Z" fill="#939597"/>
<path d="M40.8185 24.8184H38.8616C39.0746 24.8184 39.2474 25.0101 39.2474 25.2466V37.2754C39.2474 37.5119 39.0746 37.7036 38.8616 37.7036H40.8185C41.0316 37.7036 41.2043 37.5119 41.2043 37.2754V25.2466C41.2043 25.0101 41.0316 24.8184 40.8185 24.8184Z" fill="#58585B"/>
<path d="M38.2604 37.5761H39.9443C40.7994 37.5761 41.4927 36.8828 41.4927 36.0276V33.5858C41.4927 33.2709 41.2375 33.0156 40.9225 33.0156H38.2604C37.9455 33.0156 37.6902 33.2709 37.6902 33.5858V37.0058C37.6902 37.3208 37.9455 37.5761 38.2604 37.5761Z" fill="#FFDAB8"/>
<path d="M40.9224 33.0156H39.0212C39.3362 33.0156 39.5915 33.2708 39.5915 33.5857V36.0281C39.5915 36.8368 38.9709 37.5003 38.1798 37.5698C38.2063 37.5735 38.2331 37.5761 38.2607 37.5761H39.9439C40.7993 37.5761 41.4928 36.883 41.4928 36.0281V33.5857C41.4928 33.2708 41.2375 33.0156 40.9224 33.0156Z" fill="#FFB490"/>
<path d="M34.7617 25.9902C34.4382 25.9902 34.176 26.2179 34.176 26.4988V27.8244C34.176 28.1053 34.4382 28.333 34.7617 28.333C35.0852 28.333 35.3474 28.1053 35.3474 27.8244V26.4988C35.3475 26.2179 35.0852 25.9902 34.7617 25.9902Z" fill="#E6E6E6"/>
</svg>
