<svg width="48" height="48" viewBox="0 0 48 48" fill="none" xmlns="http://www.w3.org/2000/svg">
<circle cx="24" cy="24" r="22" fill="#252528"/>
<path d="M27.2276 30.7644C24.3655 32.1316 20.9347 31.5427 18.6908 29.2987C16.5261 27.134 15.9021 23.8648 17.0883 21.067L17.6964 21.6752C17.8795 21.8583 18.1194 21.9498 18.3593 21.9498C18.5992 21.9498 18.8392 21.8582 19.0222 21.6753C19.3883 21.3091 19.3884 20.7156 19.0222 20.3494L17.0335 18.3606C16.7481 18.0752 16.3122 18.0045 15.9513 18.1849L13.2997 19.5108C12.8366 19.7424 12.6489 20.3055 12.8804 20.7686C13.1121 21.2318 13.6752 21.4195 14.1383 21.1879L15.2397 20.6372C13.9252 24.0654 14.7369 27.9964 17.365 30.6246C19.1617 32.4213 21.5667 33.3691 24.0043 33.3689C25.3718 33.3688 26.7501 33.0704 28.0358 32.4563C28.5029 32.233 28.7008 31.6734 28.4776 31.2062C28.2543 30.7389 27.6946 30.5413 27.2276 30.7644Z" fill="white"/>
<path d="M33.8529 25.4764L33.1945 25.8057C33.7849 22.7911 32.8661 19.6053 30.6262 17.3656C27.8215 14.5609 23.5332 13.8246 19.9555 15.5338C19.4884 15.7569 19.2904 16.3166 19.5137 16.7838C19.7369 17.251 20.2966 17.4488 20.7636 17.2256C23.6258 15.8583 27.0566 16.4474 29.3004 18.6914C31.2149 20.6058 31.9235 23.3838 31.2417 25.9359L30.2948 24.989C29.9287 24.6229 29.3352 24.6229 28.969 24.9889C28.6028 25.355 28.6028 25.9486 28.9689 26.3148L30.9576 28.3037C30.9604 28.3064 30.9634 28.3087 30.9662 28.3113C30.9737 28.3185 30.9815 28.3253 30.9893 28.3323C31.1654 28.4931 31.3913 28.5783 31.6208 28.5783C31.7631 28.5783 31.9067 28.5459 32.0399 28.4793L34.6915 27.1534C35.1545 26.9219 35.3422 26.3587 35.1108 25.8956C34.8793 25.4326 34.316 25.2447 33.8529 25.4764Z" fill="white"/>
</svg>
