<svg width="48" height="48" viewBox="0 0 48 48" fill="none" xmlns="http://www.w3.org/2000/svg">
<rect x="8" y="8" width="32" height="32" rx="4" fill="#1868AB"/>
<rect x="11" y="11" width="26" height="26" rx="3" fill="#5297D1"/>
<mask id="mask0_0_11181" style="mask-type:alpha" maskUnits="userSpaceOnUse" x="11" y="11" width="26" height="26">
<rect x="11" y="11" width="26" height="26" rx="3" fill="white"/>
</mask>
<g mask="url(#mask0_0_11181)">
</g>
<rect x="39" y="15" width="4" height="5" rx="1" transform="rotate(90 39 15)" fill="#0B4270"/>
<mask id="mask1_0_11181" style="mask-type:alpha" maskUnits="userSpaceOnUse" x="34" y="15" width="5" height="4">
<rect x="39" y="15" width="4" height="5" rx="1" transform="rotate(90 39 15)" fill="white"/>
</mask>
<g mask="url(#mask1_0_11181)">
<rect x="38" y="15" width="4" height="4" rx="1" transform="rotate(90 38 15)" fill="#0F5895"/>
</g>
<rect x="39" y="29" width="4" height="5" rx="1" transform="rotate(90 39 29)" fill="#0B4270"/>
<mask id="mask2_0_11181" style="mask-type:alpha" maskUnits="userSpaceOnUse" x="34" y="29" width="5" height="4">
<rect x="39" y="29" width="4" height="5" rx="1" transform="rotate(90 39 29)" fill="white"/>
</mask>
<g mask="url(#mask2_0_11181)">
<rect x="38" y="29" width="4" height="4" rx="1" transform="rotate(90 38 29)" fill="#0F5895"/>
</g>
<path fill-rule="evenodd" clip-rule="evenodd" d="M30 24C30 27.3144 27.3132 30 24 30C20.6868 30 18 27.3144 18 24C18 20.6856 20.6868 18 24 18C27.3132 18 30 20.6856 30 24Z" fill="#CC9D3F"/>
<rect x="17" y="22.5" width="14" height="3" rx="1.5" fill="#FFC54F"/>
<rect x="25.5" y="17" width="14" height="3" rx="1.5" transform="rotate(90 25.5 17)" fill="#FFC54F"/>
<path fill-rule="evenodd" clip-rule="evenodd" d="M28.5 24C28.5 26.4858 26.4849 28.5 24 28.5C21.5151 28.5 19.5 26.4858 19.5 24C19.5 21.5142 21.5151 19.5 24 19.5C26.4849 19.5 28.5 21.5142 28.5 24Z" fill="#FFC54F"/>
<path fill-rule="evenodd" clip-rule="evenodd" d="M26 24C26 25.1048 25.1044 26 24 26C22.8956 26 22 25.1048 22 24C22 22.8952 22.8956 22 24 22C25.1044 22 26 22.8952 26 24Z" fill="white"/>
<path d="M42.5 35C42.5 39.1425 39.1425 42.5 35 42.5C30.8575 42.5 27.5 39.1425 27.5 35C27.5 30.8575 30.8575 27.5 35 27.5C39.1425 27.5 42.5 30.8575 42.5 35Z" fill="#E07E26" stroke="white"/>
<path fill-rule="evenodd" clip-rule="evenodd" d="M31.8455 34.909V37.0763H30.7V31.5H33.1099C33.7248 31.5 34.1897 31.6437 34.5046 31.9311C34.8194 32.2185 34.9769 32.6337 34.9769 33.1768C34.9769 33.5987 34.8665 33.952 34.6459 34.2367C34.4252 34.5215 34.1141 34.7087 33.7124 34.7983C33.9851 34.8721 34.2157 35.0804 34.4041 35.4232L35.2521 37.0763H33.9876L33.0802 35.2966C33.0058 35.1595 32.9165 35.0606 32.8124 35C32.7083 34.9394 32.5769 34.909 32.4182 34.909H31.8455ZM31.8306 33.9757H32.9389C33.2711 33.9757 33.5116 33.9137 33.6603 33.7898C33.8091 33.6659 33.8835 33.4721 33.8835 33.2085C33.8835 32.9395 33.8091 32.7444 33.6603 32.6232C33.5116 32.5019 33.2711 32.4412 32.9389 32.4412H31.8306V33.9757ZM36.9479 38.5V36.5226C37.057 36.7177 37.212 36.8693 37.4128 36.9774C37.6136 37.0855 37.838 37.1395 38.086 37.1395C38.4033 37.1395 38.6835 37.0578 38.9265 36.8944C39.1694 36.7309 39.3591 36.4976 39.4955 36.1944C39.6318 35.8911 39.7 35.5392 39.7 35.1384C39.7 34.7377 39.6318 34.3831 39.4955 34.0746C39.3591 33.7661 39.1682 33.5262 38.9227 33.3548C38.6773 33.1834 38.3984 33.0977 38.086 33.0977C37.8331 33.0977 37.605 33.1544 37.4017 33.2678C37.1984 33.3812 37.0422 33.538 36.9331 33.7384V33.1927H35.8248V38.5H36.9479ZM37.1488 35.9412C37.2926 36.1337 37.4959 36.2299 37.7587 36.2299C38.0215 36.2299 38.2248 36.1363 38.3686 35.9492C38.5124 35.762 38.5843 35.4917 38.5843 35.1384C38.5843 34.7798 38.5124 34.5017 38.3686 34.304C38.2248 34.1062 38.0215 34.0073 37.7587 34.0073C37.4959 34.0073 37.2926 34.1036 37.1488 34.296C37.005 34.4885 36.9331 34.764 36.9331 35.1226C36.9331 35.4759 37.005 35.7488 37.1488 35.9412Z" fill="white"/>
</svg>
