<svg width="24" height="24" viewBox="0 0 24 24" fill="none" xmlns="http://www.w3.org/2000/svg">
<path fill-rule="evenodd" clip-rule="evenodd" d="M22.4001 12C22.4001 6.25624 17.7439 1.6 12.0001 1.6H12.0001C6.25632 1.60001 1.6001 6.25624 1.6001 12C1.6001 17.7438 6.25634 22.4 12.0001 22.4C17.7439 22.4 22.4001 17.7438 22.4001 12ZM19.902 8.83705C19.0385 6.6816 17.3185 4.96168 15.163 4.09813C15.6688 5.07437 16.0655 6.29153 16.3328 7.66722C17.7086 7.9346 18.9258 8.33132 19.902 8.83705ZM7.6673 7.66722C7.93467 6.29159 8.33136 5.07447 8.83705 4.09825C6.68176 4.96182 4.96196 6.68163 4.09841 8.83693C5.07462 8.33126 6.29171 7.93458 7.6673 7.66722ZM3.4911 12C3.4911 11.1498 5.0309 10.2273 7.38104 9.67249C7.30972 10.4219 7.2728 11.2011 7.2728 12C7.2728 12.7989 7.30972 13.5781 7.38104 14.3275C5.0309 13.7727 3.4911 12.8502 3.4911 12ZM4.09841 15.1631C5.07461 15.6687 6.29171 16.0654 7.6673 16.3328C7.93467 17.7084 8.33136 18.9255 8.83704 19.9017C6.68176 19.0382 4.96195 17.3184 4.09841 15.1631ZM16.3329 16.3328C16.0655 17.7085 15.6688 18.9256 15.163 19.9019C17.3185 19.0383 19.0385 17.3184 19.902 15.1629C18.9258 15.6687 17.7086 16.0654 16.3329 16.3328ZM16.7274 12C16.7274 12.7989 16.6904 13.5782 16.6191 14.3275C18.9694 13.7728 20.5093 12.8502 20.5093 12C20.5093 11.1498 18.9694 10.2272 16.6191 9.67243C16.6904 10.4218 16.7274 11.2011 16.7274 12ZM9.16376 12C9.16376 11.0638 9.22248 10.1655 9.32697 9.32684C10.1657 9.22235 11.0639 9.16363 12.0001 9.16363C12.9364 9.16363 13.8346 9.22235 14.6733 9.32684C14.7778 10.1655 14.8365 11.0638 14.8365 12C14.8365 12.9362 14.7778 13.8344 14.6733 14.6731C13.8346 14.7776 12.9364 14.8363 12.0001 14.8363C11.0639 14.8363 10.1657 14.7776 9.32697 14.6731C9.22248 13.8344 9.16376 12.9362 9.16376 12ZM9.6726 16.619C10.2274 18.9692 11.1499 20.5091 12.0001 20.5091C12.8503 20.5091 13.7729 18.9692 14.3277 16.619C13.5783 16.6903 12.799 16.7273 12.0001 16.7273C11.2012 16.7273 10.422 16.6903 9.6726 16.619ZM12.0001 3.49091C11.1499 3.49091 10.2274 5.03075 9.6726 7.38096C10.422 7.30964 11.2012 7.27272 12.0001 7.27272C12.799 7.27272 13.5783 7.30964 14.3277 7.38096C13.7729 5.03075 12.8503 3.49091 12.0001 3.49091Z" fill="#58585B"/>
</svg>
