<svg width="24" height="24" viewBox="0 0 24 24" fill="none" xmlns="http://www.w3.org/2000/svg">
<g id="icon system/I/Info">
<path id="Combined Shape" fill-rule="evenodd" clip-rule="evenodd" d="M12 2C17.5228 2 22 6.47715 22 12C22 17.5228 17.5228 22 12 22C6.47715 22 2 17.5228 2 12C2 6.47715 6.47715 2 12 2ZM12 4.6C7.91309 4.6 4.6 7.91309 4.6 12C4.6 16.0869 7.91309 19.4 12 19.4C16.0869 19.4 19.4 16.0869 19.4 12C19.4 7.91309 16.0869 4.6 12 4.6ZM12.25 10.5C12.8972 10.5 13.4295 10.9919 13.4935 11.6222L13.5 11.75V16.25C13.5 16.9404 12.9404 17.5 12.25 17.5C11.6028 17.5 11.0705 17.0081 11.0065 16.3778L11 16.25V13H10.75C10.1028 13 9.57047 12.5081 9.50645 11.8778L9.5 11.75C9.5 11.1028 9.99187 10.5705 10.6222 10.5065L10.75 10.5H12.25ZM11.9 9.8C12.6732 9.8 13.3 9.1732 13.3 8.4C13.3 7.6268 12.6732 7 11.9 7C11.1268 7 10.5 7.6268 10.5 8.4C10.5 9.1732 11.1268 9.8 11.9 9.8Z" fill="#70717D"/>
<mask id="mask0_0_5651" style="mask-type:alpha" maskUnits="userSpaceOnUse" x="2" y="2" width="20" height="20">
<path id="Combined Shape_2" fill-rule="evenodd" clip-rule="evenodd" d="M12 2C17.5228 2 22 6.47715 22 12C22 17.5228 17.5228 22 12 22C6.47715 22 2 17.5228 2 12C2 6.47715 6.47715 2 12 2ZM12 4.6C7.91309 4.6 4.6 7.91309 4.6 12C4.6 16.0869 7.91309 19.4 12 19.4C16.0869 19.4 19.4 16.0869 19.4 12C19.4 7.91309 16.0869 4.6 12 4.6ZM12.25 10.5C12.8972 10.5 13.4295 10.9919 13.4935 11.6222L13.5 11.75V16.25C13.5 16.9404 12.9404 17.5 12.25 17.5C11.6028 17.5 11.0705 17.0081 11.0065 16.3778L11 16.25V13H10.75C10.1028 13 9.57047 12.5081 9.50645 11.8778L9.5 11.75C9.5 11.1028 9.99187 10.5705 10.6222 10.5065L10.75 10.5H12.25ZM11.9 9.8C12.6732 9.8 13.3 9.1732 13.3 8.4C13.3 7.6268 12.6732 7 11.9 7C11.1268 7 10.5 7.6268 10.5 8.4C10.5 9.1732 11.1268 9.8 11.9 9.8Z" fill="white"/>
</mask>
<g mask="url(#mask0_0_5651)">
<g id="Color/1. Shades/2. Secondary">
<rect id="color" width="24" height="24" fill="#58585B"/>
</g>
</g>
</g>
</svg>
