<svg width="24" height="24" viewBox="0 0 24 24" fill="none" xmlns="http://www.w3.org/2000/svg">
<g id="icon system/D/Danger">
<path id="Mask" fill-rule="evenodd" clip-rule="evenodd" d="M10 5C10 3.9 10.9 3 12 3C13.1 3 14 3.9 14 5V13C14 14.1 13.1 15 12 15C10.9 15 10 14.1 10 13V5ZM12 21C13.1046 21 14 20.1046 14 19C14 17.8954 13.1046 17 12 17C10.8954 17 10 17.8954 10 19C10 20.1046 10.8954 21 12 21Z" fill="black"/>
<mask id="mask0_0_5376" style="mask-type:alpha" maskUnits="userSpaceOnUse" x="10" y="3" width="4" height="18">
<path id="Mask_2" fill-rule="evenodd" clip-rule="evenodd" d="M10 5C10 3.9 10.9 3 12 3C13.1 3 14 3.9 14 5V13C14 14.1 13.1 15 12 15C10.9 15 10 14.1 10 13V5ZM12 21C13.1046 21 14 20.1046 14 19C14 17.8954 13.1046 17 12 17C10.8954 17 10 17.8954 10 19C10 20.1046 10.8954 21 12 21Z" fill="white"/>
</mask>
<g mask="url(#mask0_0_5376)">
<g id="Color/Black/2. Black-80">
<rect id="color" width="24" height="24" fill="#58585B"/>
</g>
</g>
</g>
</svg>
