<svg width="24" height="24" viewBox="0 0 24 24" fill="none" xmlns="http://www.w3.org/2000/svg">
<path d="M8.1225 9.70253L12.0025 13.5825L15.8825 9.70253C16.2725 9.31253 16.9025 9.31253 17.2925 9.70253C17.6825 10.0925 17.6825 10.7225 17.2925 11.1125L12.7025 15.7025C12.3125 16.0925 11.6825 16.0925 11.2925 15.7025L6.7025 11.1125C6.3125 10.7225 6.3125 10.0925 6.7025 9.70253C7.0925 9.32253 7.7325 9.31253 8.1225 9.70253Z" fill="black"/>
<mask id="mask0_0_5346" style="mask-type:alpha" maskUnits="userSpaceOnUse" x="6" y="9" width="12" height="7">
<path d="M8.1225 9.70253L12.0025 13.5825L15.8825 9.70253C16.2725 9.31253 16.9025 9.31253 17.2925 9.70253C17.6825 10.0925 17.6825 10.7225 17.2925 11.1125L12.7025 15.7025C12.3125 16.0925 11.6825 16.0925 11.2925 15.7025L6.7025 11.1125C6.3125 10.7225 6.3125 10.0925 6.7025 9.70253C7.0925 9.32253 7.7325 9.31253 8.1225 9.70253Z" fill="white"/>
</mask>
<g mask="url(#mask0_0_5346)">
<rect width="24" height="24" fill="#58585B"/>
</g>
</svg>
