<svg width="48" height="48" viewBox="0 0 48 48" fill="none" xmlns="http://www.w3.org/2000/svg">
<path fill-rule="evenodd" clip-rule="evenodd" d="M39.4411 38.0218H39.4723C40.0495 38.0218 40.3375 37.3246 39.9295 36.9178L39.9079 36.895C39.3007 36.2866 38.9203 35.497 38.8183 34.639C41.4199 32.9314 42.7159 30.457 42.7159 27.8638C42.7159 23.0782 38.3179 18.2158 31.4299 18.2158C24.1339 18.2158 20.2207 22.6906 20.2207 27.445C20.2207 32.2294 24.1747 36.7018 31.4299 36.7018C32.7019 36.7018 34.0267 36.5314 35.2123 36.2206C36.3319 37.3702 37.8511 38.0218 39.4411 38.0218Z" fill="#BFD730"/>
<mask id="mask0_0_11371" style="mask-type:alpha" maskUnits="userSpaceOnUse" x="20" y="18" width="23" height="21">
<path fill-rule="evenodd" clip-rule="evenodd" d="M39.4411 38.0218H39.4723C40.0495 38.0218 40.3375 37.3246 39.9295 36.9178L39.9079 36.895C39.3007 36.2866 38.9203 35.497 38.8183 34.639C41.4199 32.9314 42.7159 30.457 42.7159 27.8638C42.7159 23.0782 38.3179 18.2158 31.4299 18.2158C24.1339 18.2158 20.2207 22.6906 20.2207 27.445C20.2207 32.2294 24.1747 36.7018 31.4299 36.7018C32.7019 36.7018 34.0267 36.5314 35.2123 36.2206C36.3319 37.3702 37.8511 38.0218 39.4411 38.0218Z" fill="white"/>
</mask>
<g mask="url(#mask0_0_11371)">
<path fill-rule="evenodd" clip-rule="evenodd" d="M28.4259 18.3486C22.4259 19.0926 19.2207 23.1486 19.2207 27.4446C19.2207 28.011 19.2807 29.1378 19.3899 29.6886C25.3575 28.941 28.5915 24.321 28.5915 19.9998C28.5915 19.443 28.5327 18.891 28.4259 18.3486Z" fill="#98AC26"/>
</g>
<path fill-rule="evenodd" clip-rule="evenodd" d="M36.1552 25.2489H26.9764C26.5468 25.2489 26.2 24.9009 26.2 24.4737C26.2 24.0453 26.5468 23.6973 26.9764 23.6973H36.1552C36.5824 23.6973 36.9304 24.0453 36.9304 24.4737C36.9304 24.9009 36.5824 25.2489 36.1552 25.2489Z" fill="white"/>
<path fill-rule="evenodd" clip-rule="evenodd" d="M36.1552 28.869H26.9764C26.5468 28.869 26.2 28.521 26.2 28.0938C26.2 27.6654 26.5468 27.3174 26.9764 27.3174H36.1552C36.5824 27.3174 36.9304 27.6654 36.9304 28.0938C36.9304 28.521 36.5824 28.869 36.1552 28.869Z" fill="white"/>
<path fill-rule="evenodd" clip-rule="evenodd" d="M36.1552 32.4881H26.9764C26.5468 32.4881 26.2 32.1401 26.2 31.7129C26.2 31.2845 26.5468 30.9365 26.9764 30.9365H36.1552C36.5824 30.9365 36.9304 31.2845 36.9304 31.7129C36.9304 32.1401 36.5824 32.4881 36.1552 32.4881Z" fill="white"/>
<mask id="mask1_0_11371" style="mask-type:alpha" maskUnits="userSpaceOnUse" x="5" y="9" width="24" height="22">
<path fill-rule="evenodd" clip-rule="evenodd" d="M5 9.60059H29V30.6006H5V9.60059Z" fill="white"/>
</mask>
<g mask="url(#mask1_0_11371)">
<path fill-rule="evenodd" clip-rule="evenodd" d="M8.27468 30.0062H8.24348C7.66628 30.0062 7.37828 29.309 7.78628 28.9022L7.80788 28.8794C8.41628 28.2722 8.79548 27.4814 8.89748 26.6234C6.29588 24.9158 4.99988 22.4414 4.99988 19.8482C4.99988 15.0626 9.39788 10.2002 16.2859 10.2002C23.5831 10.2002 27.4951 14.675 27.4951 19.4294C27.4951 24.2138 23.5411 28.6862 16.2859 28.6862C15.0139 28.6862 13.6891 28.5158 12.5035 28.205C11.3839 29.3546 9.86468 30.0062 8.27468 30.0062Z" fill="#00AB4E"/>
</g>
<path fill-rule="evenodd" clip-rule="evenodd" d="M14.8994 22.6596C14.969 22.5276 15.089 22.4316 15.2642 22.3716C15.4394 22.3128 15.7142 22.2828 16.0886 22.2828C16.4642 22.2828 16.7354 22.3656 16.901 22.5324C17.0678 22.698 17.1506 23.0196 17.1506 23.4972C17.1506 23.838 17.1086 24.0924 17.0234 24.2592C16.937 24.4248 16.8074 24.5352 16.6322 24.5904C16.4582 24.6468 16.187 24.6744 15.821 24.6744C15.4538 24.6744 15.173 24.5844 14.9762 24.4056C14.831 24.2604 14.759 24.0132 14.759 23.664V23.46C14.759 23.2632 14.7662 23.1132 14.7782 23.0112C14.7914 22.9092 14.831 22.7916 14.8994 22.6596ZM14.951 20.3772L14.9642 20.2752C14.9642 19.9092 15.0686 19.6188 15.2762 19.4052C15.4862 19.1928 15.7142 19.0524 15.9614 18.984C16.2086 18.9156 16.4366 18.8004 16.6454 18.6372C16.8542 18.4764 16.9586 18.2568 16.9586 17.9796C16.9586 17.7024 16.8794 17.4864 16.7234 17.334C16.565 17.1804 16.3274 17.1036 16.013 17.1036C15.6974 17.1036 15.4646 17.1528 15.3158 17.25C15.167 17.3484 15.0746 17.4492 15.041 17.5512L15.0026 17.7048C14.9246 17.9268 14.8358 18.0948 14.7338 18.21C14.6306 18.3252 14.4998 18.3828 14.3366 18.3828C14.1746 18.3828 13.9622 18.3312 13.6982 18.2292C13.1858 18.0336 12.9302 17.79 12.9302 17.4996C12.9302 17.3724 12.9566 17.2416 13.0082 17.1096C13.0586 16.9776 13.1006 16.8672 13.1354 16.7772C13.1702 16.6872 13.2614 16.5324 13.4102 16.3104C13.559 16.0884 13.7294 15.8952 13.9226 15.7284C14.1134 15.5628 14.3834 15.4092 14.7338 15.2688C15.083 15.1284 15.4718 15.0576 15.8978 15.0576C16.8014 15.0576 17.5382 15.3468 18.1106 15.9276C18.6806 16.5072 18.9674 17.1804 18.9674 17.9472C18.9674 18.3144 18.9002 18.6528 18.7682 18.9636C18.6362 19.2756 18.4754 19.5204 18.2882 19.6992C17.9138 20.058 17.5646 20.2968 17.2394 20.4156L17.0354 20.4792C17.0354 20.6244 17.0282 20.7348 17.0174 20.8116C17.0042 20.8884 16.9658 20.9724 16.901 21.0612C16.8374 21.1512 16.7306 21.2148 16.5818 21.2532C16.4318 21.2916 16.2338 21.3108 15.9866 21.3108C15.7394 21.3108 15.5414 21.2892 15.3926 21.2472C15.2426 21.204 15.1382 21.132 15.0782 21.03C15.0194 20.9268 14.9822 20.8356 14.9714 20.7552C14.9582 20.6736 14.951 20.5476 14.951 20.3772Z" fill="white"/>
</svg>
