<svg width="24" height="24" viewBox="0 0 24 24" fill="none" xmlns="http://www.w3.org/2000/svg">
<mask id="mask0_2618_30978" style="mask-type:alpha" maskUnits="userSpaceOnUse" x="4" y="2" width="16" height="20">
<path fill-rule="evenodd" clip-rule="evenodd" d="M14.8967 2.17168L19.8197 6.85906C19.9296 6.96363 20 7.11367 20 7.27344V20.2422C20 21.2114 19.1718 22 18.1538 22H5.84615C4.82818 22 4 21.2114 4 20.2422V3.75781C4 2.78855 4.82818 2 5.84615 2H14.4615C14.625 2 14.7818 2.06223 14.8967 2.17168ZM17.899 6.6875L15.0769 4.00051V6.10156C15.0769 6.42465 15.353 6.6875 15.6923 6.6875H17.899ZM5.84615 20.8281H18.1538C18.4932 20.8281 18.7692 20.5653 18.7692 20.2422V7.85938H15.6923C14.6743 7.85938 13.8462 7.07082 13.8462 6.10156V3.17188H5.84615C5.50683 3.17188 5.23077 3.43473 5.23077 3.75781V20.2422C5.23077 20.5653 5.50683 20.8281 5.84615 20.8281ZM15.8664 10.2045L15.9312 10.2626L15.9944 10.3317C16.2895 10.6889 16.2685 11.2182 15.9312 11.5509L11.7876 15.6379C11.298 16.1207 10.5083 16.1207 10.0187 15.6379L8.0688 13.7146C7.709 13.3597 7.709 12.7811 8.0688 12.4263C8.42376 12.0762 8.99522 12.0762 9.35018 12.4263L10.9031 13.958L14.6498 10.2626C14.9839 9.93309 15.5097 9.91371 15.8664 10.2045Z" fill="black"/>
</mask>
<g mask="url(#mask0_2618_30978)">
<rect x="-0.603027" width="25.2062" height="24" fill="#58585B"/>
</g>
</svg>
