<svg width="48" height="48" viewBox="0 0 48 48" fill="none" xmlns="http://www.w3.org/2000/svg">
<path fill-rule="evenodd" clip-rule="evenodd" d="M12 9C12 7.34315 13.3431 6 15 6H33C34.6569 6 36 7.34315 36 9V39C36 40.6569 34.6569 42 33 42H15C13.3431 42 12 40.6569 12 39V9Z" fill="#CC9D3F"/>
<mask id="mask0_0_7114" style="mask-type:alpha" maskUnits="userSpaceOnUse" x="12" y="6" width="24" height="36">
<path fill-rule="evenodd" clip-rule="evenodd" d="M12 9C12 7.34315 13.3431 6 15 6H33C34.6569 6 36 7.34315 36 9V39C36 40.6569 34.6569 42 33 42H15C13.3431 42 12 40.6569 12 39V9Z" fill="white"/>
</mask>
<g mask="url(#mask0_0_7114)">
<rect x="9" y="6" width="24" height="36" rx="3" fill="#FFC54F"/>
<path d="M16.0101 20.7506C19.7223 19.7383 23.438 20.4493 26.3276 23.0477C24.8478 15.9671 32.9129 13.7868 36.2969 19.3648C39.593 24.7975 34.1448 31.2274 28.8071 27.687C29.6127 30.1327 29.6346 33.5387 28.0625 35.6973C27.8457 38.031 24.111 41.4528 19.5233 41.0413C18.3119 41.8902 15.5133 43.4736 13.2973 39.3449C9.23286 37.8683 6.85224 31.9235 8.8003 30.3809C8.6781 27.6186 10.8434 24.2696 12.2868 23.0794C7.66382 23.9233 3.82105 17.8471 7.88909 13.0964C12.8569 7.29367 21.1185 14.2951 16.0101 20.7506Z" fill="#CC9D3F"/>
<path fill-rule="evenodd" clip-rule="evenodd" d="M21.1888 22.8926C21.7765 22.0777 23.2515 21.0197 25.2784 22.6955C27.5919 24.6081 27.7768 30.0468 24.3115 32.2856C26.2586 32.2051 28.0018 34.1812 27.5598 36.1117C27.0615 38.3531 23.481 40.8854 19.864 40.7738C20.0637 40.6438 20.8255 40.13 20.7699 39.9165C15.8448 43.4439 14.7402 41.0332 12.8731 38.1946C12.8016 38.3934 13.0369 38.8482 13.1525 39.0191C10.7355 37.547 9.00287 35.3826 8.58165 32.6708C8.26716 30.1132 10.7122 28.6424 13.2874 29.8363C11.2369 25.2002 14.7493 20.8212 18.5378 20.5965C20.74 20.4664 21.0946 22.4512 21.1888 22.8926Z" fill="#FFC54F"/>
<path d="M18.348 30.1637C18.6151 30.1688 19.4146 30.3133 19.7005 30.4304C19.9079 27.9595 21.4087 24.3668 22.7001 24.7835C23.8362 25.1498 23.5326 29.0408 21.1852 31.1317C21.4777 31.4218 21.8971 31.7786 22.0391 32.2146C20.0643 30.1586 17.1524 30.269 15.3677 30.7364C15.602 30.4448 16.3047 30.3607 16.8014 30.2126C15.7314 27.8136 17.4597 23.643 18.9475 23.8725C20.2961 24.0807 19.3756 28.633 18.348 30.1637Z" fill="#CC9D3F" stroke="#CC9D3F" stroke-width="0.5"/>
<path fill-rule="evenodd" clip-rule="evenodd" d="M18.6633 28.854C18.8657 26.7249 16.6404 28.3577 17.2827 30.1399C17.2144 30.1588 17.1059 30.1392 17.02 30.1632C16.0548 27.927 17.8031 23.8431 18.8619 24.0702C19.9204 24.2982 18.9855 28.4622 18.6633 28.854Z" fill="#FEC346"/>
<path fill-rule="evenodd" clip-rule="evenodd" d="M22.6253 25.0042C23.4379 25.2109 23.1631 29.2144 21.002 31.0044C20.9387 30.9742 20.8647 30.9152 20.7936 30.8796C22.2696 28.6669 20.7271 27.7972 20.1369 29.3259C20.3238 27.9595 21.7138 24.7718 22.6253 25.0042Z" fill="#FEC346"/>
<path d="M12.8146 31.5089C12.4197 31.6705 11.9097 31.7105 11.504 31.9225C12.2812 36.4471 19.3166 40.0947 25.2501 35.0084C24.8731 34.5355 24.4097 34.3537 23.9264 34.0642C25.0312 34.0246 26.3495 35.3599 26.1094 36.2614C25.9372 35.9525 25.7337 35.4467 25.3606 35.1306C24.4623 36.0025 23.4286 36.6195 22.3496 37.1559C20.5565 38.7033 18.9082 41.2511 16.5208 40.9664C13.7722 40.6383 13.2108 36.1353 12.7153 35.0648C12.0507 34.1697 11.5361 33.1861 11.2764 32.067C10.7674 32.3354 10.5286 32.6305 10.1413 32.8896C10.2195 32.1478 11.696 31.1777 12.8146 31.5089Z" fill="#CC9D3F" stroke="#CC9D3F" stroke-width="0.2"/>
<path d="M18.7626 31.1462C22.7845 32.0328 21.6127 35.6066 17.9721 34.9814C13.8478 34.2737 14.7139 30.2535 18.7626 31.1462Z" fill="#CC9D3F"/>
<path fill-rule="evenodd" clip-rule="evenodd" d="M17.0061 39.0117C17.0078 39.024 16.3119 39.3751 16.1732 39.7545C17.9006 38.5787 19.2521 39.5567 19.3432 39.6206C17.9937 40.9375 15.4914 41.4116 14.3548 38.7518C14.583 38.4076 16.1297 37.7931 17.0061 39.0117Z" fill="#FFC54F"/>
</g>
<path fill-rule="evenodd" clip-rule="evenodd" d="M21.5106 10.3329L16.6939 13.9646C16.1045 14.4085 15.8569 15.1984 16.0826 15.9185L17.9217 21.7941C18.1473 22.5141 18.7941 23 19.5233 23H25.4767C26.2059 23 26.8527 22.5141 27.0783 21.7941L28.9174 15.9185C29.1431 15.1984 28.8955 14.4085 28.3061 13.9646L23.4894 10.3329C22.9 9.88902 22.1 9.88902 21.5106 10.3329Z" fill="#FFC54F" stroke="#CC9D3F"/>
<path d="M22.352 19.7636C22.7893 19.7636 23.172 19.6849 23.5 19.5276C23.828 19.3702 24.0813 19.1476 24.26 18.8596C24.4387 18.5716 24.528 18.2382 24.528 17.8596C24.528 17.5022 24.4533 17.1876 24.304 16.9156C24.1547 16.6436 23.944 16.4316 23.672 16.2796C23.4 16.1276 23.0907 16.0516 22.744 16.0516C22.3973 16.0516 22.096 16.1236 21.84 16.2676V15.0116H24.256V14.0596H20.624V17.3956H21.336C21.4853 17.2729 21.652 17.1769 21.836 17.1076C22.02 17.0382 22.2053 17.0036 22.392 17.0036C22.6907 17.0036 22.9267 17.0836 23.1 17.2436C23.2733 17.4036 23.36 17.6222 23.36 17.8996C23.36 18.1929 23.276 18.4142 23.108 18.5636C22.94 18.7129 22.6933 18.7876 22.368 18.7876C21.856 18.7876 21.3413 18.6062 20.824 18.2436L20.432 19.1316C20.6507 19.3236 20.936 19.4769 21.288 19.5916C21.64 19.7062 21.9947 19.7636 22.352 19.7636Z" fill="#CC9D3F"/>
</svg>
