<svg width="24" height="24" viewBox="0 0 24 24" fill="none" xmlns="http://www.w3.org/2000/svg">
<g id="icon system/D/Danger_Round">
<g id="round">
<circle id="Combined Shape" cx="12" cy="12" r="9.54545" stroke="#CACCCF" stroke-width="0.909091"/>
<mask id="mask0_0_5384" style="mask-type:alpha" maskUnits="userSpaceOnUse" x="2" y="2" width="20" height="20">
<circle id="Combined Shape_2" cx="12" cy="12" r="9.54545" fill="white" stroke="white" stroke-width="0.909091"/>
</mask>
<g mask="url(#mask0_0_5384)">
<g id="round_color">
<rect id="color" width="100" height="100" fill="#00AB4E"/>
</g>
<path id="Combined Shape_3" fill-rule="evenodd" clip-rule="evenodd" d="M10.5 6.5C10.5 5.675 11.175 5 12 5C12.825 5 13.5 5.675 13.5 6.5V12.5C13.5 13.325 12.825 14 12 14C11.175 14 10.5 13.325 10.5 12.5V6.5ZM12 18.5C12.8284 18.5 13.5 17.8284 13.5 17C13.5 16.1716 12.8284 15.5 12 15.5C11.1716 15.5 10.5 16.1716 10.5 17C10.5 17.8284 11.1716 18.5 12 18.5Z" fill="white"/>
</g>
</g>
</g>
</svg>
