<svg width="24" height="24" viewBox="0 0 24 24" fill="none" xmlns="http://www.w3.org/2000/svg">
<g id="icon system/P/Profile/Fill">
<path id="Combined Shape" fill-rule="evenodd" clip-rule="evenodd" d="M12 13.1539C15.7492 13.1539 19.1931 14.861 20.6823 17.3628C21.5467 18.8158 20.5493 20.6922 18.8714 20.8136L18.3023 20.8513C16.917 20.935 15.1287 20.9874 12.8864 20.9983L11.5995 21L10.1794 20.9911C8.06665 20.9685 6.39974 20.9059 5.1287 20.8137C3.45069 20.6922 2.45323 18.8158 3.31776 17.3627C4.80689 14.861 8.25075 13.1539 12 13.1539ZM12.0001 3C14.4407 3 16.3844 5.18667 16.3844 7.84639C16.3844 10.5061 14.4407 12.6928 12.0001 12.6928C9.55944 12.6928 7.61572 10.5061 7.61572 7.84639C7.61572 5.18667 9.55944 3 12.0001 3Z" fill="#70717D"/>
<mask id="mask0_0_6135" style="mask-type:alpha" maskUnits="userSpaceOnUse" x="3" y="3" width="18" height="18">
<path id="Combined Shape_2" fill-rule="evenodd" clip-rule="evenodd" d="M12 13.1539C15.7492 13.1539 19.1931 14.861 20.6823 17.3628C21.5467 18.8158 20.5493 20.6922 18.8714 20.8136L18.3023 20.8513C16.917 20.935 15.1287 20.9874 12.8864 20.9983L11.5995 21L10.1794 20.9911C8.06665 20.9685 6.39974 20.9059 5.1287 20.8137C3.45069 20.6922 2.45323 18.8158 3.31776 17.3627C4.80689 14.861 8.25075 13.1539 12 13.1539ZM12.0001 3C14.4407 3 16.3844 5.18667 16.3844 7.84639C16.3844 10.5061 14.4407 12.6928 12.0001 12.6928C9.55944 12.6928 7.61572 10.5061 7.61572 7.84639C7.61572 5.18667 9.55944 3 12.0001 3Z" fill="white"/>
</mask>
<g mask="url(#mask0_0_6135)">
<g id="Color/1. Shades/2. Secondary">
<rect id="color" width="24" height="24" fill="#58585B"/>
</g>
</g>
</g>
</svg>
