<svg width="48" height="48" viewBox="0 0 48 48" fill="none" xmlns="http://www.w3.org/2000/svg">
<path d="M24 9V37.1944C24 38.1916 23.1917 39 22.1945 39V39C21.1973 39 20.3889 38.1916 20.3889 37.1944V36.7778" stroke="#00662E" stroke-width="2" stroke-linecap="round" stroke-linejoin="round"/>
<mask id="mask0_868_711" style="mask-type:alpha" maskUnits="userSpaceOnUse" x="8" y="10" width="32" height="14">
<path d="M24 10.249C16.2182 10.249 9.71865 15.7645 8.15735 23.1185C8.0774 23.495 8.45036 23.8001 8.81702 23.6828C11.9685 22.6751 15.3715 22.7483 18.4863 23.9025C18.6026 23.9455 18.7307 23.9455 18.8469 23.9025C22.1728 22.6702 25.8271 22.6702 29.153 23.9025C29.2693 23.9455 29.3974 23.9455 29.5136 23.9025C32.6285 22.7483 36.0315 22.6751 39.183 23.6828C39.5496 23.8001 39.9226 23.495 39.8427 23.1185C38.2814 15.7645 31.7818 10.249 24 10.249Z" fill="#D44C50"/>
</mask>
<g mask="url(#mask0_868_711)">
<path d="M24 10.249C16.2182 10.249 9.71865 15.7645 8.15735 23.1185C8.0774 23.495 8.45036 23.8001 8.81702 23.6828C11.9685 22.6751 15.3715 22.7483 18.4863 23.9025C18.6026 23.9455 18.7307 23.9455 18.8469 23.9025C22.1728 22.6702 25.8271 22.6702 29.153 23.9025C29.2693 23.9455 29.3974 23.9455 29.5136 23.9025C32.6285 22.7483 36.0315 22.6751 39.183 23.6828C39.5496 23.8001 39.9226 23.495 39.8427 23.1185C38.2814 15.7645 31.7818 10.249 24 10.249Z" fill="#40BD63"/>
<path d="M24 10.249C20.6841 13.2852 18.6279 18.5754 18.6667 23.9706C22.1004 22.6475 25.8996 22.6475 29.3334 23.9706C29.3721 18.5754 27.3159 13.2852 24 10.249Z" fill="#00AB4E"/>
<path d="M24 10.249C27.3159 13.2852 29.3721 18.5754 29.3333 23.9706C32.767 22.6475 36.5662 22.6475 40 23.9706C38.7769 16.1947 32.0796 10.249 24 10.249Z" fill="#00883E"/>
</g>
</svg>
