<svg width="48" height="48" viewBox="0 0 48 48" fill="none" xmlns="http://www.w3.org/2000/svg">
<path fill-rule="evenodd" clip-rule="evenodd" d="M12 9C12 7.34315 13.3431 6 15 6H33C34.6569 6 36 7.34315 36 9V39C36 40.6569 34.6569 42 33 42H15C13.3431 42 12 40.6569 12 39V9Z" fill="#CC9D3F"/>
<mask id="mask0_0_9190" style="mask-type:alpha" maskUnits="userSpaceOnUse" x="12" y="6" width="24" height="36">
<path fill-rule="evenodd" clip-rule="evenodd" d="M12 9C12 7.34315 13.3431 6 15 6H33C34.6569 6 36 7.34315 36 9V39C36 40.6569 34.6569 42 33 42H15C13.3431 42 12 40.6569 12 39V9Z" fill="white"/>
</mask>
<g mask="url(#mask0_0_9190)">
<mask id="mask1_0_9190" style="mask-type:alpha" maskUnits="userSpaceOnUse" x="9" y="6" width="24" height="36">
<rect x="9" y="6" width="24" height="36" rx="3" fill="white"/>
</mask>
<g mask="url(#mask1_0_9190)">
<path fill-rule="evenodd" clip-rule="evenodd" d="M11.5807 -1.79626C11.8424 -1.98109 12.578 -0.899987 12.578 -0.899987C12.578 -0.899987 12.3737 -1.68738 12.7264 -1.71744C13.0792 -1.74751 13.6931 -0.995031 13.6931 -0.995031C13.6931 -0.995031 13.8855 -1.5421 14.1039 -1.06446C14.3222 -0.586819 14.3222 0.451104 14.3222 0.451104C14.3222 0.451104 14.8923 0.160257 14.808 0.691654C14.7238 1.22305 14.1039 1.82793 14.1039 1.82793C14.1039 1.82793 14.4746 1.7147 14.3222 2.08845C14.1698 2.4622 13.6931 2.83505 13.6931 2.83505C13.6931 2.83505 14.7749 2.30697 14.8929 2.20791C14.9593 2.15217 14.9338 2.07436 14.9085 1.99698C14.8888 1.93685 14.8692 1.87698 14.8929 1.82793C14.9172 1.77744 14.9685 1.7842 15.0176 1.79066C15.0775 1.79856 15.1341 1.80601 15.1341 1.70816C15.1341 1.62371 15.0644 1.55277 14.9984 1.48564C14.9254 1.41132 14.857 1.34168 14.8929 1.26354C14.9263 1.19055 14.9937 1.19683 15.0797 1.20484C15.169 1.21316 15.2783 1.22334 15.3906 1.14884C15.4822 1.08814 15.5322 0.980247 15.5775 0.882598C15.6414 0.744881 15.6959 0.627533 15.8439 0.691654C16.097 0.801241 16.22 1.26354 16.22 1.50801C16.22 1.63516 16.2779 1.62924 16.3404 1.62285C16.398 1.61696 16.4596 1.61067 16.4831 1.70816C16.532 1.91131 16.3886 2.20791 16.3886 2.20791C16.3886 2.20791 17.003 2.14375 17.003 2.38086C17.003 2.61797 16.3886 2.97799 16.3886 2.97799C16.3886 2.97799 16.4849 3.62185 16.22 3.94245C15.955 4.26306 14.8929 4.78816 14.8929 4.78816C14.8929 4.78816 15.6075 5.04261 15.481 5.32891C15.3545 5.6152 14.6498 5.81121 14.4644 5.75752C14.2791 5.70383 14.4644 5.03438 14.4644 5.03438L13.8894 5.14807C13.8894 5.14807 14.3089 5.47561 14.1039 5.66923C13.8988 5.86285 13.3903 5.83136 13.2439 5.75752C13.0975 5.68368 13.2439 5.23548 13.2439 5.23548C13.2439 5.23548 12.4272 5.42383 11.7573 5.23548C11.0874 5.04713 10.5 4.46398 10.5 4.46398V-0.433411C10.5 -0.433411 10.8672 -0.664196 11.0926 -0.586819C11.318 -0.509442 11.4538 -0.10599 11.4538 -0.10599C11.4538 -0.10599 11.319 -1.61142 11.5807 -1.79626ZM22.4974 13.1336C22.4984 12.8551 22.1696 12.7058 21.9559 12.8843C21.8844 12.944 21.8423 13.0331 21.8423 13.1262V13.1415C21.8423 13.341 21.6525 13.486 21.46 13.4335C21.3491 13.4033 21.2306 13.4385 21.1542 13.5244L21.0062 13.6908C20.8919 13.8193 20.8868 14.0114 20.9942 14.1457L21.1497 14.3403C21.2256 14.4353 21.3565 14.4663 21.467 14.4155C21.6424 14.3349 21.8423 14.4631 21.8423 14.6561V14.9555C21.8423 15.0273 21.8661 15.097 21.91 15.1538C22.0988 15.3979 22.4896 15.2652 22.4907 14.9567L22.4974 13.1336ZM21.0803 14.7067C21.276 14.6723 21.4615 14.806 21.4907 15.0025L21.6008 15.7449C21.63 15.9418 21.4908 16.1239 21.2931 16.1472L20.9044 16.1931C20.7138 16.2157 20.5761 16.3863 20.5944 16.5773L20.6027 16.6641C20.6226 16.8714 20.4596 17.0507 20.2514 17.0507H20.0669C19.872 17.0507 19.714 17.2087 19.714 17.4037V17.5729C19.714 17.7844 19.5293 17.9484 19.3192 17.9234L19.0163 17.8872C18.9446 17.8787 18.8721 17.8923 18.8084 17.9263L18.2193 18.2405C18.0489 18.3314 17.8369 18.2683 17.7439 18.099L17.4608 17.5837C17.4112 17.4934 17.3247 17.4293 17.2239 17.4082L17.0519 17.3722C16.8498 17.3298 16.7271 17.1237 16.7861 16.9258L16.8988 16.5481C16.9256 16.4582 16.9155 16.3612 16.8707 16.2788L16.5304 15.6522C16.4426 15.4907 16.4936 15.2888 16.6475 15.1883L16.9536 14.9884C17.0533 14.9232 17.1135 14.8121 17.1135 14.6929V14.3081C17.1135 14.1612 17.2045 14.0297 17.342 13.9779L17.8998 13.7677C18.1199 13.6847 18.3581 13.8363 18.3761 14.0708L18.4365 14.8555C18.4483 15.0082 18.3413 15.1446 18.1902 15.1695L18.1331 15.1789C17.9474 15.2096 17.8581 15.4254 17.9634 15.5814C18.0182 15.6626 18.0213 15.7697 17.97 15.8532L17.9239 15.9281C17.8417 16.0617 17.9378 16.2336 18.0946 16.2336C18.191 16.2336 18.2738 16.3022 18.2916 16.3969L18.2943 16.4109C18.3186 16.5396 18.4502 16.6179 18.5749 16.5777L18.9108 16.4694C19.0295 16.4311 19.1192 16.333 19.1467 16.2113L19.2037 15.9595C19.2366 15.8136 19.358 15.7044 19.5065 15.6868L19.6894 15.6652C19.846 15.6466 19.9713 15.5265 19.9964 15.3708L20.0348 15.1318C20.0587 14.9834 20.174 14.8664 20.3221 14.8403L21.0803 14.7067ZM10.5 7.77037H11.2301C11.2301 7.77037 10.7881 7.37918 10.8142 7.11789C10.8403 6.85661 11.3368 6.70259 11.3368 6.70259C11.3368 6.70259 11.3368 6.18109 11.2301 6.35641C11.1234 6.53173 10.5 6.48325 10.5 6.48325V5.52222C10.5 5.52222 11.2329 5.1073 11.408 5.20417C11.583 5.30104 11.408 6.02465 11.408 6.02465C11.408 6.02465 12.5223 5.63726 12.6245 6.02465C12.6819 6.24192 12.3607 6.46096 12.1198 6.62522C11.9312 6.75383 11.7918 6.84887 11.9219 6.88318C11.9415 6.88834 11.9583 6.96346 11.9809 7.06392C12.0321 7.29276 12.1129 7.65311 12.3227 7.61765C12.4924 7.58896 12.827 7.17319 13.1414 6.7826L13.1414 6.7826C13.3862 6.4784 13.6188 6.18948 13.7515 6.11061C14.0547 5.93048 14.7103 5.76655 14.4455 6.35641C14.1807 6.94627 13.0064 7.77037 13.0064 7.77037C13.0064 7.77037 14.128 7.46204 14.658 7.18388C15.188 6.90571 16.169 6.11061 16.169 6.11061C16.169 6.11061 15.3928 6.00107 15.4326 5.81483C15.4725 5.6286 16.3147 5.42936 16.3147 5.42936C16.3147 5.42936 16.0077 4.60678 16.3147 4.48832C16.514 4.41145 16.8076 4.65791 17.0332 4.8472C17.1552 4.94962 17.2573 5.0353 17.3137 5.044C17.4744 5.06877 17.5754 4.68268 17.5754 4.68268C17.5754 4.68268 17.1536 4.67593 17.003 4.32651C16.9857 4.28636 16.9684 4.24901 16.9516 4.21303L16.9516 4.21302C16.8227 3.93587 16.7315 3.73996 17.003 2.97105L17.0373 2.8739C17.3115 2.09523 17.3437 2.00389 17.9094 1.75972C18.4567 1.52347 18.8218 1.73757 19.1815 1.94853L19.1816 1.94858C19.2086 1.9644 19.2355 1.9802 19.2625 1.9958C19.6495 2.21934 20.0328 2.70032 20.207 3.08712C20.3813 3.47391 20.3937 3.5369 20.207 4.09256C20.0509 4.5572 19.8933 4.70946 19.681 4.9146L19.6809 4.91462C19.6394 4.9548 19.5957 4.99701 19.5495 5.044C19.4954 5.09897 19.4554 5.14292 19.4228 5.17885L19.4227 5.17886L19.4227 5.17889L19.4227 5.17892L19.4227 5.17896L19.4226 5.17898C19.2849 5.3304 19.277 5.33909 18.8928 5.42936C18.4174 5.54106 17.9094 5.42936 17.9094 5.42936C17.9094 5.42936 16.7519 6.42181 16.169 6.81573C15.5861 7.20966 14.4455 7.77037 14.4455 7.77037L15.4326 8.14298C15.4326 8.14298 15.5215 7.20384 15.6913 7.11789C15.8612 7.03195 16.169 7.77037 16.169 7.77037C16.169 7.77037 16.7751 7.52523 17.0092 7.78597C16.9476 7.52197 16.9199 7.23019 17.003 7.0002C17.2054 6.44021 18.2143 5.67954 18.2143 5.67954C18.2143 5.67954 18.2608 8.3315 19.1789 8.48642C19.855 8.60051 19.8539 8.20294 19.8528 7.84022C19.8524 7.71043 19.8521 7.58511 19.8827 7.48929C19.9344 7.32798 20.0519 7.19581 20.1875 7.04339C20.3576 6.85221 20.5559 6.62917 20.6881 6.27683C20.9256 5.6436 20.5108 5.81483 20.5108 5.81483C20.5108 5.81483 20.5895 5.36437 20.8561 5.29409C21.1226 5.22381 21.6926 5.34842 21.6926 5.34842C21.6926 5.34842 22.0863 6.04996 21.9219 6.3963C21.7575 6.74263 21.3565 6.63412 21.3565 6.63412C21.3565 6.63412 21.5335 6.85607 21.4896 7.06564C21.4722 7.14882 21.4004 7.28955 21.3187 7.45C21.1944 7.69378 21.047 7.98308 21.0315 8.18522C21.0059 8.5204 21.3565 8.80567 21.3565 8.80567C21.3565 8.80567 21.4118 8.14931 21.6207 7.85292C21.8297 7.55653 22.4873 7.20167 22.4873 7.20167V9.83573H22.2044C22.2044 9.83573 21.8917 11.7151 20.7843 12.0903C19.6769 12.4655 19.2322 11.4021 19.2322 11.4021C19.2322 11.4021 18.3272 11.4574 17.7064 11.0511C17.0856 10.6447 17.4464 10.0886 17.4464 10.0886C17.4464 10.0886 17.0771 9.77734 17.0386 9.45458C17.0001 9.13182 17.2553 8.48642 17.2553 8.48642C17.2553 8.48642 17.174 8.32071 17.0954 8.08711C17.0453 8.50621 16.3147 8.60777 16.3147 8.60777C16.3147 8.60777 17.0906 9.28187 16.7627 9.59672C16.4347 9.91156 15.8485 9.14288 15.8485 9.14288C15.8485 9.14288 15.3465 8.59075 15.007 8.41594C14.6675 8.24112 13.9068 8.14298 13.9068 8.14298L12.7268 8.26557L13.1454 8.71407C13.1454 8.71407 13.3927 8.40339 13.7515 8.47038C14.1103 8.53737 14.5473 8.76316 14.4455 8.95682C14.3438 9.15047 13.3982 9.14288 13.3982 9.14288C13.3982 9.14288 13.0064 9.87962 13.1454 9.87962C13.3382 9.87962 13.5454 9.84764 13.7659 9.81361C14.0167 9.77491 14.2847 9.73356 14.5683 9.73356C15.0536 9.73356 16.169 9.87962 16.169 9.87962C16.169 9.87962 15.4522 10.9747 15.007 11.277C14.5618 11.5792 13.6107 11.6168 13.6107 11.6168C13.6107 11.6168 14.332 12.4466 14.658 13.1123C14.984 13.7779 15.0912 14.6396 15.0912 14.6396C15.0912 14.6396 13.8182 14.3365 13.3982 14.0652C12.9782 13.7939 12.7268 13.1123 12.7268 13.1123C12.7268 13.1123 12.6437 13.8519 12.202 14.4457C11.7603 15.0396 11.0873 15.3165 11.0873 15.3165C11.0873 15.3165 10.7128 14.4427 10.8142 13.7435C10.9156 13.0442 11.4982 12.4836 11.4982 12.4836L10.5 12.6612V11.2015L11.3368 10.8462L10.5 10.4405V9.14288C10.5 9.14288 10.6185 8.71916 11.3368 8.95682C12.0551 9.19447 12.7268 9.87962 12.7268 9.87962L13.0064 9.14288L12.202 8.47038L10.5 8.26557V7.77037ZM12.3401 18.4045C12.5079 18.2408 13.2014 18.14 13.2014 18.14C13.2014 18.14 13.2063 18.6903 13.0467 18.846C12.8871 19.0017 12.2699 19.0487 12.2699 19.0487C12.2699 19.0487 12.1724 18.5682 12.3401 18.4045ZM16.6765 10.5297L17.8513 11.2613L17.4026 12.4451H15.9504L15.5016 11.2613L16.6765 10.5297ZM13.9257 19.2468C13.9257 19.0217 13.4867 18.5943 13.4867 18.5943C13.4867 18.5943 13.0821 18.9411 13.0821 19.1768C13.0821 19.4124 13.4867 19.8993 13.4867 19.8993C13.4867 19.8993 13.9257 19.472 13.9257 19.2468ZM22.4873 3.30578V5.18328C22.4873 5.18328 22.0199 4.06736 21.0289 4.80765C20.038 5.54794 20.152 6.8749 20.152 6.8749C20.152 6.8749 19.318 6.3035 19.6912 5.32473C20.0644 4.34595 22.4873 3.30578 22.4873 3.30578ZM14.2448 19.0728C13.98 18.7824 13.7204 18.4977 13.7204 18.2167C13.7204 17.8515 14.1268 18.0446 14.456 18.2009L14.4561 18.2009L14.4563 18.201C14.5509 18.246 14.6391 18.2879 14.7094 18.3126C15.0246 18.4234 15.6 18.8775 15.6 18.8775C15.6 18.8775 16.8608 19.86 17.3515 20.0449C17.8422 20.2297 18.3125 19.8993 18.3125 19.8993C18.3125 19.8993 18.3103 19.5492 18.4951 19.3814C18.68 19.2137 19.1087 19.1768 19.1087 19.1768C19.1087 19.1768 18.7034 19.5994 18.7996 19.8993C18.8957 20.1993 19.6481 20.8593 19.6481 20.8593C19.6481 20.8593 20.0501 20.6006 20.3085 20.6006C20.567 20.6006 20.906 20.8593 20.906 20.8593C20.906 20.8593 20.681 21.4116 20.4641 21.5164C20.2471 21.6213 19.9046 21.3433 19.9046 21.3433C19.9046 21.3433 20.1371 21.565 20.192 21.7719C20.2468 21.9788 20.192 22.4265 20.192 22.4265C20.192 22.4265 20.5229 22.1263 20.7097 22.0257C20.8965 21.9251 21.2958 21.8319 21.2958 21.8319C21.2958 21.8319 21.1939 21.3507 21.2254 21.1408C21.2569 20.931 21.4633 20.7158 21.4633 20.7158C21.4633 20.7158 21.1441 20.4109 21.2254 20.1475C21.3067 19.8841 21.9168 19.2468 21.9168 19.2468C21.9168 19.2468 22.101 19.4248 22.1564 19.5343C22.2118 19.6439 22.2469 19.8993 22.2469 19.8993C22.2469 19.8993 22.1098 20.2187 22.1098 20.3795C22.1098 20.5403 22.2469 20.8593 22.2469 20.8593C22.2469 20.8593 22.0178 20.9903 21.9168 21.0063C21.8158 21.0222 21.6542 20.9529 21.6542 20.9529C21.6542 20.9529 21.3987 21.2759 21.4633 21.5164C21.528 21.7569 22.0122 22.2849 22.0122 22.2849C22.0122 22.2849 22.0672 21.7106 22.1564 21.5164C22.2456 21.3222 22.4873 21.2508 22.4873 21.2508V24.3297C22.4873 24.3297 22.319 24.2639 22.2469 24.1664C22.1747 24.069 22.1564 23.8825 22.1564 23.8825C22.1564 23.8825 21.9771 24.2304 21.8197 24.3297C21.6624 24.429 21.2254 24.4698 21.2254 24.4698C21.2254 24.4698 20.9565 24.0049 20.9995 23.7969C21.0425 23.5889 21.4633 23.3189 21.4633 23.3189C21.4633 23.3189 21.1668 23.3335 21.0995 23.256C21.0322 23.1785 21.0995 22.9 21.0995 22.9C21.0995 22.9 20.7125 23.1171 20.6198 23.0907C20.5272 23.0642 20.5504 22.7434 20.5504 22.7434C20.5504 22.7434 19.9592 22.8005 19.8292 22.7434C19.6992 22.6863 19.8292 22.4265 19.8292 22.4265C19.8292 22.4265 19.2724 22.1385 19.1661 21.8839C19.0598 21.6292 19.2927 21.1408 19.2927 21.1408C19.2927 21.1408 18.8897 20.9607 18.7083 20.7954C18.5269 20.63 18.3125 20.2474 18.3125 20.2474V20.6006C18.3125 20.6006 17.7186 20.6602 17.4668 20.6006C17.215 20.541 16.8208 20.2474 16.8208 20.2474C16.8208 20.2474 16.8096 20.3185 16.9407 20.5314C17.0718 20.7442 17.0876 21.0559 17.0876 21.0559C17.0876 21.0559 17.6842 20.8417 17.9013 20.9529C18.1183 21.0641 18.3125 21.6834 18.3125 21.6834C18.3125 21.6834 17.8554 21.8654 17.634 21.8319C17.4127 21.7983 17.2116 21.5164 17.2116 21.5164C17.2116 21.5164 17.303 21.7627 17.3515 22.0257C17.4 22.2887 17.4668 22.9 17.4668 22.9C17.4668 22.9 17.3416 23.1405 17.2116 23.1405C17.0815 23.1405 16.9407 22.9 16.9407 22.9C16.9407 22.9 16.9493 21.3295 16.375 20.3795C15.8007 19.4295 14.7094 18.8775 14.7094 18.8775C14.7094 18.8775 14.8823 19.1428 15.1068 19.4566C15.3313 19.7704 15.4492 20.1475 15.4492 20.1475C15.4492 20.1475 16.0419 20.1988 16.2103 20.3795C16.3787 20.5601 16.375 21.1408 16.375 21.1408C16.375 21.1408 16.0398 21.1921 15.885 21.1408C15.7302 21.0896 15.5253 20.8593 15.5253 20.8593C15.5253 20.8593 15.677 21.3375 15.6 21.5164C15.523 21.6953 15.1068 21.8319 15.1068 21.8319C15.1068 21.8319 14.7231 21.4425 14.7094 21.2508C14.6958 21.0591 15.0273 20.7158 15.0273 20.7158C15.0273 20.7158 14.9712 20.1687 14.7094 19.6682C14.604 19.4667 14.4232 19.2684 14.2448 19.0728ZM11.0538 15.749C10.8576 15.8958 10.5 16.332 10.5 16.332V17.5722C10.5 17.5722 10.9793 17.4387 11.192 17.2945C11.4047 17.1503 11.7525 16.7232 11.7525 16.7232C11.7525 16.7232 11.4681 16.622 11.3187 16.622C11.1693 16.622 10.9142 16.7232 10.9142 16.7232C10.9142 16.7232 11.4747 16.3546 11.588 16.152C11.7013 15.9495 11.588 15.5184 11.588 15.5184C11.588 15.5184 11.2501 15.6023 11.0538 15.749ZM11.7525 17.0128C11.3448 17.6653 10.5 18.3671 10.5 18.3671V20.7158H10.6549C10.6549 20.7158 11.3187 20.3366 11.3187 20.044C11.3187 19.7514 10.6549 19.6186 10.6549 19.6186C10.6549 19.6186 11.0168 19.3471 11.1165 19.1768C11.2162 19.0065 11.192 18.7011 11.192 18.7011C11.192 18.7011 10.9628 18.7849 10.8641 18.7849C10.7654 18.7849 10.6549 18.7011 10.6549 18.7011C10.6549 18.7011 11.4449 18.3563 11.8315 18.1833C12.218 18.0104 12.8562 17.7164 12.8562 17.7164C12.8562 17.7164 13.8497 17.6752 14.2146 17.7164C14.6636 17.7671 14.9828 17.8653 15.1913 17.9295C15.3085 17.9655 15.3907 17.9908 15.4412 17.9908C15.7612 17.9908 15.8875 17.5689 15.8137 17.4093C15.74 17.2498 15.1192 17.2945 15.1192 17.2945C15.1192 17.2945 15.4342 17.1626 15.5698 17.0128C15.7055 16.8629 15.8137 16.5274 15.8137 16.5274C15.8137 16.5274 15.443 16.2562 15.1192 16.332C14.7954 16.4079 14.6371 16.5227 14.4712 16.8418C14.3053 17.1609 14.6187 17.2945 14.6187 17.2945C14.6187 17.2945 14.1882 17.3233 14.0006 17.2945C13.8129 17.2657 13.533 17.1279 13.533 17.1279C13.533 17.1279 14.6947 16.1985 15.2205 15.5184C15.7463 14.8382 16.4657 13.3341 16.4657 13.3341C16.4657 13.3341 16.9407 13.1384 16.9407 13.0264C16.9407 12.9144 16.4657 12.9069 16.4657 12.9069C16.4657 12.9069 16.166 12.4576 16.0299 12.6473C15.9783 12.7193 15.8822 12.9683 15.7598 13.2853C15.5594 13.8045 15.2886 14.5064 15.027 14.9128C14.6058 15.5673 13.533 16.5274 13.533 16.5274C13.533 16.5274 13.6118 16.1691 13.6118 15.9975C13.6118 15.8258 13.533 15.6275 13.533 15.6275C13.533 15.6275 14.0414 15.6864 14.2803 15.5184C14.5191 15.3503 14.6187 14.8634 14.6187 14.8634C14.6187 14.8634 14.2841 14.7689 14.0993 14.778C13.9145 14.787 13.6118 14.9128 13.6118 14.9128C13.6118 14.9128 13.5636 14.6137 13.468 14.4619C13.3725 14.31 13.0458 14.0131 13.0458 14.0131C13.0458 14.0131 12.7022 14.269 12.7565 14.7245C12.8109 15.18 13.2253 15.5184 13.2253 15.5184C13.2253 15.5184 13.3239 16.1011 13.2253 16.332C13.1268 16.563 12.7113 16.7232 12.7113 16.7232C12.7113 16.7232 12.8047 16.819 12.9034 16.8418C13.0021 16.8646 13.2253 16.8418 13.2253 16.8418C13.2253 16.8418 12.9914 17.1258 12.7113 17.2945C12.4312 17.4631 11.7729 17.7164 11.7729 17.7164C11.7729 17.7164 12.2782 17.1067 12.4497 16.8418C12.8883 16.1644 13.0458 15.7242 13.0458 15.6275C13.0458 15.4256 12.6033 15.0887 12.4061 15.3165C12.3205 15.4154 12.2629 15.6253 12.1917 15.8844C12.0989 16.2221 11.9832 16.6436 11.7525 17.0128Z" fill="#FFC54F"/>
<path d="M22.4873 11.3926L21.2881 12.5292C21.2451 12.57 21.1924 12.5993 21.135 12.6143L20.8495 12.6894C20.725 12.7221 20.6382 12.8347 20.6382 12.9635V12.9635C20.6382 13.12 20.5113 13.2469 20.3548 13.2469H20.3314C20.1481 13.2469 20.0057 13.4065 20.0266 13.5885L20.0467 13.7647C20.0669 13.941 19.953 14.1049 19.7807 14.1475L19.7582 14.153C19.6006 14.192 19.4899 14.3334 19.4899 14.4957V14.6087C19.4899 14.8118 19.3136 14.97 19.1117 14.948V14.948C18.9385 14.9291 18.8073 14.7829 18.8073 14.6087V14.2147C18.8073 14.1238 18.8424 14.0364 18.9053 13.9707L19.0315 13.8388C19.1577 13.7069 19.1626 13.5007 19.0428 13.363L19.0092 13.3244C18.9309 13.2345 18.9118 13.1074 18.9603 12.9984V12.9984C19.0703 12.7509 18.829 12.4927 18.5746 12.5858L17.8676 12.8445C17.8288 12.8587 17.7877 12.866 17.7463 12.866H17.5722C17.4231 12.866 17.2901 12.9596 17.2399 13.1L17.1017 13.4862C17.074 13.5636 17.02 13.629 16.9492 13.6709L16.5844 13.887C16.4771 13.9505 16.4113 14.066 16.4113 14.1907V14.4807C16.4113 14.5747 16.3738 14.6648 16.3071 14.7311L15.8781 15.1572C15.7802 15.2545 15.7479 15.3999 15.7956 15.5295L16.0313 16.1704C16.0456 16.2095 16.053 16.2507 16.053 16.2923V17.0177C16.053 17.0755 16.0672 17.1324 16.0943 17.1835L16.5052 17.9561C16.5643 18.0671 16.6798 18.1365 16.8056 18.1365V18.1365C16.9559 18.1365 17.0883 18.2351 17.1315 18.3791L17.3308 19.0445C17.3816 19.214 17.5501 19.3197 17.7249 19.2916L18.3196 19.1961C18.3962 19.1838 18.4666 19.1466 18.5199 19.0903L18.9534 18.6323C19.0481 18.5323 19.1923 18.4965 19.3228 18.5406L19.6003 18.6345C19.7629 18.6895 19.9416 18.6194 20.0235 18.4685L20.3227 17.9174C20.3967 17.7813 20.5507 17.7093 20.7025 17.7398L20.7473 17.7488C20.8867 17.7769 21.0294 17.7185 21.1091 17.6007L21.7668 16.6294C21.8258 16.5423 21.9337 16.5024 22.0352 16.5301V16.5301C22.2264 16.5824 22.2803 16.8278 22.1286 16.9554L22.0553 17.017C21.9884 17.0733 21.9497 17.1562 21.9497 17.2436V17.4074C21.9497 17.5068 21.9078 17.6016 21.8343 17.6685L21.3197 18.1365L20.894 18.6303C20.8388 18.6944 20.8084 18.7762 20.8084 18.8608V19.088C20.8084 19.2391 20.7123 19.3734 20.5693 19.4221L20.0274 19.6067C19.9358 19.6379 19.8644 19.7108 19.8351 19.803V19.803C19.7591 20.0418 19.9873 20.2652 20.2244 20.1842L20.3264 20.1494C20.4044 20.1227 20.4706 20.0697 20.5135 19.9993L20.7494 19.6131C20.7878 19.5503 20.8449 19.501 20.9127 19.4722L21.0426 19.4171C21.1545 19.3695 21.2341 19.2677 21.2532 19.1477L21.2964 18.8761C21.3113 18.7824 21.3633 18.6987 21.4407 18.6438L22.0236 18.23C22.1041 18.1729 22.157 18.0846 22.1694 17.9867L22.2215 17.5768C22.2357 17.4648 22.3026 17.3663 22.4016 17.312L22.5 17.2578" stroke="#FEC346" stroke-width="0.5" stroke-linecap="round" stroke-linejoin="round"/>
<path fill-rule="evenodd" clip-rule="evenodd" d="M33.4193 -1.79626C33.1576 -1.98109 32.422 -0.899987 32.422 -0.899987C32.422 -0.899987 32.6263 -1.68738 32.2736 -1.71744C31.9208 -1.74751 31.3069 -0.995031 31.3069 -0.995031C31.3069 -0.995031 31.1145 -1.5421 30.8961 -1.06446C30.6778 -0.586819 30.6778 0.451104 30.6778 0.451104C30.6778 0.451104 30.1077 0.160257 30.192 0.691654C30.2762 1.22305 30.8961 1.82793 30.8961 1.82793C30.8961 1.82793 30.5254 1.7147 30.6778 2.08845C30.8302 2.4622 31.3069 2.83505 31.3069 2.83505C31.3069 2.83505 30.2251 2.30697 30.1071 2.20791C30.0407 2.15217 30.0662 2.07436 30.0915 1.99698C30.1112 1.93685 30.1308 1.87698 30.1071 1.82793C30.0828 1.77744 30.0315 1.7842 29.9824 1.79066C29.9225 1.79856 29.8659 1.80601 29.8659 1.70816C29.8659 1.62371 29.9356 1.55277 30.0016 1.48564C30.0746 1.41132 30.143 1.34168 30.1071 1.26354C30.0737 1.19055 30.0063 1.19683 29.9203 1.20484C29.831 1.21316 29.7217 1.22334 29.6094 1.14884C29.5178 1.08814 29.4678 0.980247 29.4225 0.882598C29.3586 0.744881 29.3041 0.627533 29.1561 0.691654C28.903 0.801241 28.78 1.26354 28.78 1.50801C28.78 1.63516 28.7221 1.62924 28.6596 1.62285C28.602 1.61696 28.5404 1.61067 28.5169 1.70816C28.468 1.91131 28.6114 2.20791 28.6114 2.20791C28.6114 2.20791 27.997 2.14375 27.997 2.38086C27.997 2.61797 28.6114 2.97799 28.6114 2.97799C28.6114 2.97799 28.5151 3.62185 28.78 3.94245C29.045 4.26306 30.1071 4.78816 30.1071 4.78816C30.1071 4.78816 29.3925 5.04261 29.519 5.32891C29.6455 5.6152 30.3502 5.81121 30.5356 5.75752C30.7209 5.70383 30.5356 5.03438 30.5356 5.03438L31.1106 5.14807C31.1106 5.14807 30.6911 5.47561 30.8961 5.66923C31.1012 5.86285 31.6097 5.83136 31.7561 5.75752C31.9025 5.68368 31.7561 5.23548 31.7561 5.23548C31.7561 5.23548 32.5728 5.42383 33.2427 5.23548C33.9126 5.04713 34.5 4.46398 34.5 4.46398V-0.433411C34.5 -0.433411 34.1328 -0.664196 33.9074 -0.586819C33.682 -0.509442 33.5462 -0.10599 33.5462 -0.10599C33.5462 -0.10599 33.681 -1.61142 33.4193 -1.79626ZM22.5026 13.1336C22.5016 12.8551 22.8304 12.7058 23.0441 12.8843C23.1156 12.944 23.1577 13.0331 23.1577 13.1262V13.1415C23.1577 13.341 23.3475 13.486 23.54 13.4335C23.6509 13.4033 23.7694 13.4385 23.8458 13.5244L23.9938 13.6908C24.1081 13.8193 24.1132 14.0114 24.0058 14.1457L23.8503 14.3403C23.7744 14.4353 23.6435 14.4663 23.533 14.4155C23.3576 14.3349 23.1577 14.4631 23.1577 14.6561V14.9555C23.1577 15.0273 23.1339 15.097 23.09 15.1538C22.9012 15.3979 22.5104 15.2652 22.5093 14.9567L22.5026 13.1336ZM23.9197 14.7067C23.724 14.6723 23.5385 14.806 23.5093 15.0025L23.3992 15.7449C23.37 15.9418 23.5092 16.1239 23.7069 16.1472L24.0956 16.1931C24.2862 16.2157 24.4239 16.3863 24.4056 16.5773L24.3973 16.6641C24.3774 16.8714 24.5404 17.0507 24.7486 17.0507H24.9331C25.128 17.0507 25.286 17.2087 25.286 17.4037V17.5729C25.286 17.7844 25.4707 17.9484 25.6808 17.9234L25.9837 17.8872C26.0554 17.8787 26.1279 17.8923 26.1916 17.9263L26.7807 18.2405C26.9511 18.3314 27.1631 18.2683 27.2561 18.099L27.5392 17.5837C27.5888 17.4934 27.6753 17.4293 27.7761 17.4082L27.9481 17.3722C28.1502 17.3298 28.2729 17.1237 28.2139 16.9258L28.1012 16.5481C28.0744 16.4582 28.0845 16.3612 28.1293 16.2788L28.4696 15.6522C28.5574 15.4907 28.5064 15.2888 28.3525 15.1883L28.0464 14.9884C27.9467 14.9232 27.8865 14.8121 27.8865 14.6929V14.3081C27.8865 14.1612 27.7955 14.0297 27.658 13.9779L27.1002 13.7677C26.8801 13.6847 26.6419 13.8363 26.6239 14.0708L26.5635 14.8555C26.5517 15.0082 26.6587 15.1446 26.8098 15.1695L26.8669 15.1789C27.0526 15.2096 27.1419 15.4254 27.0366 15.5814C26.9818 15.6626 26.9787 15.7697 27.03 15.8532L27.0761 15.9281C27.1583 16.0617 27.0622 16.2336 26.9054 16.2336C26.809 16.2336 26.7262 16.3022 26.7084 16.3969L26.7057 16.4109C26.6814 16.5396 26.5498 16.6179 26.4251 16.5777L26.0892 16.4694C25.9705 16.4311 25.8808 16.333 25.8533 16.2113L25.7963 15.9595C25.7634 15.8136 25.642 15.7044 25.4935 15.6868L25.3106 15.6652C25.154 15.6466 25.0287 15.5265 25.0036 15.3708L24.9652 15.1318C24.9413 14.9834 24.826 14.8664 24.6779 14.8403L23.9197 14.7067ZM34.5 7.77037H33.7699C33.7699 7.77037 34.2119 7.37918 34.1858 7.11789C34.1597 6.85661 33.6632 6.70259 33.6632 6.70259C33.6632 6.70259 33.6632 6.18109 33.7699 6.35641C33.8766 6.53173 34.5 6.48325 34.5 6.48325V5.52222C34.5 5.52222 33.7671 5.1073 33.592 5.20417C33.417 5.30104 33.592 6.02465 33.592 6.02465C33.592 6.02465 32.4777 5.63726 32.3755 6.02465C32.3181 6.24192 32.6393 6.46096 32.8802 6.62522C33.0688 6.75383 33.2082 6.84887 33.0781 6.88318C33.0585 6.88834 33.0417 6.96346 33.0191 7.06392C32.9679 7.29276 32.8871 7.65311 32.6773 7.61765C32.5076 7.58896 32.173 7.17319 31.8586 6.7826L31.8586 6.7826C31.6138 6.4784 31.3812 6.18948 31.2485 6.11061C30.9453 5.93048 30.2897 5.76655 30.5545 6.35641C30.8193 6.94627 31.9936 7.77037 31.9936 7.77037C31.9936 7.77037 30.872 7.46204 30.342 7.18388C29.812 6.90571 28.831 6.11061 28.831 6.11061C28.831 6.11061 29.6072 6.00107 29.5674 5.81483C29.5275 5.6286 28.6853 5.42936 28.6853 5.42936C28.6853 5.42936 28.9923 4.60678 28.6853 4.48832C28.486 4.41145 28.1924 4.65791 27.9668 4.8472C27.8448 4.94962 27.7427 5.0353 27.6863 5.044C27.5256 5.06877 27.4246 4.68268 27.4246 4.68268C27.4246 4.68268 27.8464 4.67593 27.997 4.32651C28.0143 4.28636 28.0316 4.24901 28.0484 4.21303L28.0484 4.21302C28.1773 3.93587 28.2685 3.73996 27.997 2.97105L27.9627 2.8739C27.6885 2.09523 27.6563 2.00389 27.0906 1.75972C26.5433 1.52347 26.1782 1.73757 25.8185 1.94853L25.8184 1.94858C25.7914 1.9644 25.7645 1.9802 25.7375 1.9958C25.3505 2.21934 24.9672 2.70032 24.793 3.08712C24.6187 3.47391 24.6063 3.5369 24.793 4.09256C24.9491 4.5572 25.1067 4.70946 25.319 4.9146L25.3191 4.91462C25.3606 4.9548 25.4043 4.99701 25.4505 5.044C25.5046 5.09897 25.5446 5.14292 25.5772 5.17885L25.5773 5.17886L25.5773 5.17889L25.5773 5.17892L25.5773 5.17896L25.5774 5.17898C25.7151 5.3304 25.723 5.33909 26.1072 5.42936C26.5826 5.54106 27.0906 5.42936 27.0906 5.42936C27.0906 5.42936 28.2481 6.42181 28.831 6.81573C29.4139 7.20966 30.5545 7.77037 30.5545 7.77037L29.5674 8.14298C29.5674 8.14298 29.4785 7.20384 29.3087 7.11789C29.1388 7.03195 28.831 7.77037 28.831 7.77037C28.831 7.77037 28.2249 7.52523 27.9908 7.78597C28.0524 7.52197 28.0801 7.23019 27.997 7.0002C27.7946 6.44021 26.7857 5.67954 26.7857 5.67954C26.7857 5.67954 26.7392 8.3315 25.8211 8.48642C25.145 8.60051 25.1461 8.20294 25.1472 7.84022C25.1476 7.71043 25.1479 7.58511 25.1173 7.48929C25.0656 7.32798 24.9481 7.19581 24.8125 7.04339C24.6424 6.85221 24.4441 6.62917 24.3119 6.27683C24.0744 5.6436 24.4892 5.81483 24.4892 5.81483C24.4892 5.81483 24.4105 5.36437 24.1439 5.29409C23.8774 5.22381 23.3074 5.34842 23.3074 5.34842C23.3074 5.34842 22.9137 6.04996 23.0781 6.3963C23.2425 6.74263 23.6435 6.63412 23.6435 6.63412C23.6435 6.63412 23.4665 6.85607 23.5104 7.06564C23.5278 7.14882 23.5996 7.28955 23.6813 7.45C23.8056 7.69378 23.953 7.98308 23.9685 8.18522C23.9941 8.5204 23.6435 8.80567 23.6435 8.80567C23.6435 8.80567 23.5882 8.14931 23.3793 7.85292C23.1703 7.55653 22.5127 7.20167 22.5127 7.20167V9.83573H22.7956C22.7956 9.83573 23.1083 11.7151 24.2157 12.0903C25.3231 12.4655 25.7678 11.4021 25.7678 11.4021C25.7678 11.4021 26.6728 11.4574 27.2936 11.0511C27.9144 10.6447 27.5536 10.0886 27.5536 10.0886C27.5536 10.0886 27.9229 9.77734 27.9614 9.45458C27.9999 9.13182 27.7447 8.48642 27.7447 8.48642C27.7447 8.48642 27.826 8.32071 27.9046 8.08711C27.9547 8.50621 28.6853 8.60777 28.6853 8.60777C28.6853 8.60777 27.9094 9.28187 28.2373 9.59672C28.5653 9.91156 29.1515 9.14288 29.1515 9.14288C29.1515 9.14288 29.6535 8.59075 29.993 8.41594C30.3325 8.24112 31.0932 8.14298 31.0932 8.14298L32.2732 8.26557L31.8546 8.71407C31.8546 8.71407 31.6073 8.40339 31.2485 8.47038C30.8897 8.53737 30.4527 8.76316 30.5545 8.95682C30.6562 9.15047 31.6018 9.14288 31.6018 9.14288C31.6018 9.14288 31.9936 9.87962 31.8546 9.87962C31.6618 9.87962 31.4546 9.84764 31.2341 9.81361C30.9833 9.77491 30.7153 9.73356 30.4317 9.73356C29.9464 9.73356 28.831 9.87962 28.831 9.87962C28.831 9.87962 29.5478 10.9747 29.993 11.277C30.4382 11.5792 31.3893 11.6168 31.3893 11.6168C31.3893 11.6168 30.668 12.4466 30.342 13.1123C30.016 13.7779 29.9088 14.6396 29.9088 14.6396C29.9088 14.6396 31.1818 14.3365 31.6018 14.0652C32.0218 13.7939 32.2732 13.1123 32.2732 13.1123C32.2732 13.1123 32.3563 13.8519 32.798 14.4457C33.2397 15.0396 33.9127 15.3165 33.9127 15.3165C33.9127 15.3165 34.2872 14.4427 34.1858 13.7435C34.0844 13.0442 33.5018 12.4836 33.5018 12.4836L34.5 12.6612V11.2015L33.6632 10.8462L34.5 10.4405V9.14288C34.5 9.14288 34.3815 8.71916 33.6632 8.95682C32.9449 9.19447 32.2732 9.87962 32.2732 9.87962L31.9936 9.14288L32.798 8.47038L34.5 8.26557V7.77037ZM32.6599 18.4045C32.4921 18.2408 31.7986 18.14 31.7986 18.14C31.7986 18.14 31.7937 18.6903 31.9533 18.846C32.1129 19.0017 32.7301 19.0487 32.7301 19.0487C32.7301 19.0487 32.8276 18.5682 32.6599 18.4045ZM28.3235 10.5297L27.1487 11.2613L27.5974 12.4451H29.0496L29.4984 11.2613L28.3235 10.5297ZM31.0743 19.2468C31.0743 19.0217 31.5133 18.5943 31.5133 18.5943C31.5133 18.5943 31.9179 18.9411 31.9179 19.1768C31.9179 19.4124 31.5133 19.8993 31.5133 19.8993C31.5133 19.8993 31.0743 19.472 31.0743 19.2468ZM22.5127 3.30578V5.18328C22.5127 5.18328 22.9801 4.06736 23.9711 4.80765C24.962 5.54794 24.848 6.8749 24.848 6.8749C24.848 6.8749 25.682 6.3035 25.3088 5.32473C24.9356 4.34595 22.5127 3.30578 22.5127 3.30578ZM30.7552 19.0728C31.02 18.7824 31.2796 18.4977 31.2796 18.2167C31.2796 17.8515 30.8732 18.0446 30.544 18.2009L30.5439 18.2009L30.5437 18.201C30.4491 18.246 30.3609 18.2879 30.2906 18.3126C29.9754 18.4234 29.4 18.8775 29.4 18.8775C29.4 18.8775 28.1392 19.86 27.6485 20.0449C27.1578 20.2297 26.6875 19.8993 26.6875 19.8993C26.6875 19.8993 26.6897 19.5492 26.5049 19.3814C26.32 19.2137 25.8913 19.1768 25.8913 19.1768C25.8913 19.1768 26.2966 19.5994 26.2004 19.8993C26.1043 20.1993 25.3519 20.8593 25.3519 20.8593C25.3519 20.8593 24.9499 20.6006 24.6915 20.6006C24.433 20.6006 24.094 20.8593 24.094 20.8593C24.094 20.8593 24.319 21.4116 24.5359 21.5164C24.7529 21.6213 25.0954 21.3433 25.0954 21.3433C25.0954 21.3433 24.8629 21.565 24.808 21.7719C24.7532 21.9788 24.808 22.4265 24.808 22.4265C24.808 22.4265 24.4771 22.1263 24.2903 22.0257C24.1035 21.9251 23.7042 21.8319 23.7042 21.8319C23.7042 21.8319 23.8061 21.3507 23.7746 21.1408C23.7431 20.931 23.5367 20.7158 23.5367 20.7158C23.5367 20.7158 23.8559 20.4109 23.7746 20.1475C23.6933 19.8841 23.0832 19.2468 23.0832 19.2468C23.0832 19.2468 22.899 19.4248 22.8436 19.5343C22.7882 19.6439 22.7531 19.8993 22.7531 19.8993C22.7531 19.8993 22.8902 20.2187 22.8902 20.3795C22.8902 20.5403 22.7531 20.8593 22.7531 20.8593C22.7531 20.8593 22.9822 20.9903 23.0832 21.0063C23.1842 21.0222 23.3458 20.9529 23.3458 20.9529C23.3458 20.9529 23.6013 21.2759 23.5367 21.5164C23.472 21.7569 22.9878 22.2849 22.9878 22.2849C22.9878 22.2849 22.9328 21.7106 22.8436 21.5164C22.7544 21.3222 22.5127 21.2508 22.5127 21.2508V24.3297C22.5127 24.3297 22.681 24.2639 22.7531 24.1664C22.8253 24.069 22.8436 23.8825 22.8436 23.8825C22.8436 23.8825 23.0229 24.2304 23.1803 24.3297C23.3376 24.429 23.7746 24.4698 23.7746 24.4698C23.7746 24.4698 24.0435 24.0049 24.0005 23.7969C23.9575 23.5889 23.5367 23.3189 23.5367 23.3189C23.5367 23.3189 23.8332 23.3335 23.9005 23.256C23.9678 23.1785 23.9005 22.9 23.9005 22.9C23.9005 22.9 24.2875 23.1171 24.3802 23.0907C24.4728 23.0642 24.4496 22.7434 24.4496 22.7434C24.4496 22.7434 25.0408 22.8005 25.1708 22.7434C25.3008 22.6863 25.1708 22.4265 25.1708 22.4265C25.1708 22.4265 25.7276 22.1385 25.8339 21.8839C25.9402 21.6292 25.7073 21.1408 25.7073 21.1408C25.7073 21.1408 26.1103 20.9607 26.2917 20.7954C26.4731 20.63 26.6875 20.2474 26.6875 20.2474V20.6006C26.6875 20.6006 27.2814 20.6602 27.5332 20.6006C27.785 20.541 28.1792 20.2474 28.1792 20.2474C28.1792 20.2474 28.1904 20.3185 28.0593 20.5314C27.9282 20.7442 27.9124 21.0559 27.9124 21.0559C27.9124 21.0559 27.3158 20.8417 27.0987 20.9529C26.8817 21.0641 26.6875 21.6834 26.6875 21.6834C26.6875 21.6834 27.1446 21.8654 27.366 21.8319C27.5873 21.7983 27.7884 21.5164 27.7884 21.5164C27.7884 21.5164 27.697 21.7627 27.6485 22.0257C27.6 22.2887 27.5332 22.9 27.5332 22.9C27.5332 22.9 27.6584 23.1405 27.7884 23.1405C27.9185 23.1405 28.0593 22.9 28.0593 22.9C28.0593 22.9 28.0507 21.3295 28.625 20.3795C29.1993 19.4295 30.2906 18.8775 30.2906 18.8775C30.2906 18.8775 30.1177 19.1428 29.8932 19.4566C29.6687 19.7704 29.5508 20.1475 29.5508 20.1475C29.5508 20.1475 28.9581 20.1988 28.7897 20.3795C28.6213 20.5601 28.625 21.1408 28.625 21.1408C28.625 21.1408 28.9602 21.1921 29.115 21.1408C29.2698 21.0896 29.4747 20.8593 29.4747 20.8593C29.4747 20.8593 29.323 21.3375 29.4 21.5164C29.477 21.6953 29.8932 21.8319 29.8932 21.8319C29.8932 21.8319 30.2769 21.4425 30.2906 21.2508C30.3042 21.0591 29.9727 20.7158 29.9727 20.7158C29.9727 20.7158 30.0288 20.1687 30.2906 19.6682C30.396 19.4667 30.5768 19.2684 30.7552 19.0728ZM33.9462 15.749C34.1424 15.8958 34.5 16.332 34.5 16.332V17.5722C34.5 17.5722 34.0207 17.4387 33.808 17.2945C33.5953 17.1503 33.2475 16.7232 33.2475 16.7232C33.2475 16.7232 33.5319 16.622 33.6813 16.622C33.8307 16.622 34.0858 16.7232 34.0858 16.7232C34.0858 16.7232 33.5253 16.3546 33.412 16.152C33.2987 15.9495 33.412 15.5184 33.412 15.5184C33.412 15.5184 33.7499 15.6023 33.9462 15.749ZM33.2475 17.0128C33.6552 17.6653 34.5 18.3671 34.5 18.3671V20.7158H34.3451C34.3451 20.7158 33.6813 20.3366 33.6813 20.044C33.6813 19.7514 34.3451 19.6186 34.3451 19.6186C34.3451 19.6186 33.9832 19.3471 33.8835 19.1768C33.7838 19.0065 33.808 18.7011 33.808 18.7011C33.808 18.7011 34.0372 18.7849 34.1359 18.7849C34.2346 18.7849 34.3451 18.7011 34.3451 18.7011C34.3451 18.7011 33.5551 18.3563 33.1685 18.1833C32.782 18.0104 32.1438 17.7164 32.1438 17.7164C32.1438 17.7164 31.1503 17.6752 30.7854 17.7164C30.3364 17.7671 30.0172 17.8653 29.8087 17.9295C29.6915 17.9655 29.6093 17.9908 29.5588 17.9908C29.2388 17.9908 29.1125 17.5689 29.1863 17.4093C29.26 17.2498 29.8808 17.2945 29.8808 17.2945C29.8808 17.2945 29.5658 17.1626 29.4302 17.0128C29.2945 16.8629 29.1863 16.5274 29.1863 16.5274C29.1863 16.5274 29.557 16.2562 29.8808 16.332C30.2046 16.4079 30.3629 16.5227 30.5288 16.8418C30.6947 17.1609 30.3813 17.2945 30.3813 17.2945C30.3813 17.2945 30.8118 17.3233 30.9994 17.2945C31.1871 17.2657 31.467 17.1279 31.467 17.1279C31.467 17.1279 30.3053 16.1985 29.7795 15.5184C29.2537 14.8382 28.5343 13.3341 28.5343 13.3341C28.5343 13.3341 28.0593 13.1384 28.0593 13.0264C28.0593 12.9144 28.5343 12.9069 28.5343 12.9069C28.5343 12.9069 28.834 12.4576 28.9701 12.6473C29.0217 12.7193 29.1178 12.9683 29.2402 13.2853C29.4406 13.8045 29.7114 14.5064 29.973 14.9128C30.3942 15.5673 31.467 16.5274 31.467 16.5274C31.467 16.5274 31.3882 16.1691 31.3882 15.9975C31.3882 15.8258 31.467 15.6275 31.467 15.6275C31.467 15.6275 30.9586 15.6864 30.7197 15.5184C30.4809 15.3503 30.3813 14.8634 30.3813 14.8634C30.3813 14.8634 30.7159 14.7689 30.9007 14.778C31.0855 14.787 31.3882 14.9128 31.3882 14.9128C31.3882 14.9128 31.4364 14.6137 31.532 14.4619C31.6275 14.31 31.9542 14.0131 31.9542 14.0131C31.9542 14.0131 32.2978 14.269 32.2435 14.7245C32.1891 15.18 31.7747 15.5184 31.7747 15.5184C31.7747 15.5184 31.6761 16.1011 31.7747 16.332C31.8732 16.563 32.2887 16.7232 32.2887 16.7232C32.2887 16.7232 32.1953 16.819 32.0966 16.8418C31.9979 16.8646 31.7747 16.8418 31.7747 16.8418C31.7747 16.8418 32.0086 17.1258 32.2887 17.2945C32.5688 17.4631 33.2271 17.7164 33.2271 17.7164C33.2271 17.7164 32.7218 17.1067 32.5503 16.8418C32.1117 16.1644 31.9542 15.7242 31.9542 15.6275C31.9542 15.4256 32.3967 15.0887 32.5939 15.3165C32.6795 15.4154 32.7371 15.6253 32.8083 15.8844C32.9011 16.2221 33.0168 16.6436 33.2475 17.0128Z" fill="#FFC54F"/>
<path d="M22.5127 11.3926L23.7119 12.5292C23.7549 12.57 23.8076 12.5993 23.865 12.6143L24.1505 12.6894C24.275 12.7221 24.3618 12.8347 24.3618 12.9635V12.9635C24.3618 13.12 24.4887 13.2469 24.6452 13.2469H24.6686C24.8519 13.2469 24.9943 13.4065 24.9734 13.5885L24.9533 13.7647C24.9331 13.941 25.047 14.1049 25.2193 14.1475L25.2418 14.153C25.3994 14.192 25.5101 14.3334 25.5101 14.4957V14.6087C25.5101 14.8118 25.6864 14.97 25.8883 14.948V14.948C26.0615 14.9291 26.1927 14.7829 26.1927 14.6087V14.2147C26.1927 14.1238 26.1576 14.0364 26.0947 13.9707L25.9685 13.8388C25.8423 13.7069 25.8374 13.5007 25.9572 13.363L25.9908 13.3244C26.0691 13.2345 26.0882 13.1074 26.0397 12.9984V12.9984C25.9297 12.7509 26.171 12.4927 26.4254 12.5858L27.1324 12.8445C27.1712 12.8587 27.2123 12.866 27.2537 12.866H27.4278C27.5769 12.866 27.7099 12.9596 27.7601 13.1L27.8983 13.4862C27.926 13.5636 27.98 13.629 28.0508 13.6709L28.4156 13.887C28.5229 13.9505 28.5887 14.066 28.5887 14.1907V14.4807C28.5887 14.5747 28.6262 14.6648 28.6929 14.7311L29.1219 15.1572C29.2198 15.2545 29.2521 15.3999 29.2044 15.5295L28.9687 16.1704C28.9544 16.2095 28.947 16.2507 28.947 16.2923V17.0177C28.947 17.0755 28.9328 17.1324 28.9057 17.1835L28.4948 17.9561C28.4357 18.0671 28.3202 18.1365 28.1944 18.1365V18.1365C28.0441 18.1365 27.9117 18.2351 27.8685 18.3791L27.6692 19.0445C27.6184 19.214 27.4499 19.3197 27.2751 19.2916L26.6804 19.1961C26.6038 19.1838 26.5334 19.1466 26.4801 19.0903L26.0466 18.6323C25.9519 18.5323 25.8077 18.4965 25.6772 18.5406L25.3997 18.6345C25.2371 18.6895 25.0584 18.6194 24.9765 18.4685L24.6773 17.9174C24.6033 17.7813 24.4493 17.7093 24.2975 17.7398L24.2527 17.7488C24.1133 17.7769 23.9706 17.7185 23.8909 17.6007L23.2332 16.6294C23.1742 16.5423 23.0663 16.5024 22.9648 16.5301V16.5301C22.7736 16.5824 22.7197 16.8278 22.8714 16.9554L22.9447 17.017C23.0116 17.0733 23.0503 17.1562 23.0503 17.2436V17.4074C23.0503 17.5068 23.0922 17.6016 23.1657 17.6685L23.6803 18.1365L24.106 18.6303C24.1612 18.6944 24.1916 18.7762 24.1916 18.8608V19.088C24.1916 19.2391 24.2877 19.3734 24.4307 19.4221L24.9726 19.6067C25.0642 19.6379 25.1356 19.7108 25.1649 19.803V19.803C25.2409 20.0418 25.0127 20.2652 24.7756 20.1842L24.6736 20.1494C24.5956 20.1227 24.5294 20.0697 24.4865 19.9993L24.2506 19.6131C24.2122 19.5503 24.1551 19.501 24.0873 19.4722L23.9574 19.4171C23.8455 19.3695 23.7659 19.2677 23.7468 19.1477L23.7036 18.8761C23.6887 18.7824 23.6367 18.6987 23.5593 18.6438L22.9764 18.23C22.8959 18.1729 22.843 18.0846 22.8306 17.9867L22.7785 17.5768C22.7643 17.4648 22.6974 17.3663 22.5984 17.312L22.5 17.2578" stroke="#FEC346" stroke-width="0.5" stroke-linecap="round" stroke-linejoin="round"/>
<path fill-rule="evenodd" clip-rule="evenodd" d="M33.4193 19.733C33.1576 19.5482 32.422 20.6293 32.422 20.6293C32.422 20.6293 32.6263 19.8419 32.2736 19.8119C31.9208 19.7818 31.3069 20.5343 31.3069 20.5343C31.3069 20.5343 31.1145 19.9872 30.8961 20.4648C30.6778 20.9425 30.6778 21.9804 30.6778 21.9804C30.6778 21.9804 30.1077 21.6896 30.192 22.221C30.2762 22.7523 30.8961 23.3572 30.8961 23.3572C30.8961 23.3572 30.5254 23.244 30.6778 23.6177C30.8302 23.9915 31.3069 24.3643 31.3069 24.3643C31.3069 24.3643 30.2251 23.8363 30.1071 23.7372C30.0407 23.6815 30.0662 23.6037 30.0915 23.5263C30.1112 23.4661 30.1308 23.4063 30.1071 23.3572C30.0828 23.3067 30.0315 23.3135 29.9824 23.32C29.9225 23.3279 29.8659 23.3353 29.8659 23.2375C29.8659 23.153 29.9356 23.0821 30.0016 23.0149C30.0746 22.9406 30.143 22.871 30.1071 22.7928C30.0737 22.7199 30.0063 22.7261 29.9203 22.7341C29.831 22.7425 29.7217 22.7526 29.6094 22.6781C29.5178 22.6174 29.4678 22.5095 29.4225 22.4119C29.3586 22.2742 29.3041 22.1568 29.1561 22.221C28.903 22.3305 28.78 22.7928 28.78 23.0373C28.78 23.1645 28.7221 23.1585 28.6596 23.1521C28.602 23.1463 28.5404 23.14 28.5169 23.2375C28.468 23.4406 28.6114 23.7372 28.6114 23.7372C28.6114 23.7372 27.997 23.673 27.997 23.9102C27.997 24.1473 28.6114 24.5073 28.6114 24.5073C28.6114 24.5073 28.5151 25.1511 28.78 25.4718C29.045 25.7924 30.1071 26.3175 30.1071 26.3175C30.1071 26.3175 29.3925 26.5719 29.519 26.8582C29.6455 27.1445 30.3502 27.3405 30.5356 27.2868C30.7209 27.2331 30.5356 26.5637 30.5356 26.5637L31.1106 26.6774C31.1106 26.6774 30.6911 27.0049 30.8961 27.1985C31.1012 27.3921 31.6097 27.3607 31.7561 27.2868C31.9025 27.213 31.7561 26.7648 31.7561 26.7648C31.7561 26.7648 32.5728 26.9531 33.2427 26.7648C33.9126 26.5764 34.5 25.9933 34.5 25.9933V21.0959C34.5 21.0959 34.1328 20.8651 33.9074 20.9425C33.682 21.0199 33.5462 21.4233 33.5462 21.4233C33.5462 21.4233 33.681 19.9179 33.4193 19.733ZM22.5026 34.6629C22.5016 34.3844 22.8304 34.2351 23.0441 34.4136C23.1156 34.4733 23.1577 34.5624 23.1577 34.6555V34.6708C23.1577 34.8703 23.3475 35.0153 23.54 34.9628C23.6509 34.9326 23.7694 34.9678 23.8458 35.0537L23.9938 35.2201C24.1081 35.3486 24.1132 35.5407 24.0058 35.675L23.8503 35.8696C23.7744 35.9646 23.6435 35.9956 23.533 35.9448C23.3576 35.8642 23.1577 35.9924 23.1577 36.1854V36.4848C23.1577 36.5566 23.1339 36.6263 23.09 36.6831C22.9012 36.9272 22.5104 36.7945 22.5093 36.486L22.5026 34.6629ZM23.9197 36.236C23.724 36.2016 23.5385 36.3353 23.5093 36.5318L23.3992 37.2742C23.37 37.4711 23.5092 37.6532 23.7069 37.6765L24.0956 37.7224C24.2862 37.745 24.4239 37.9156 24.4056 38.1066L24.3973 38.1934C24.3774 38.4007 24.5404 38.58 24.7486 38.58H24.9331C25.128 38.58 25.286 38.738 25.286 38.933V39.1022C25.286 39.3137 25.4707 39.4777 25.6808 39.4527L25.9837 39.4165C26.0554 39.408 26.1279 39.4216 26.1916 39.4556L26.7807 39.7698C26.9511 39.8607 27.1631 39.7976 27.2561 39.6283L27.5392 39.113C27.5888 39.0227 27.6753 38.9586 27.7761 38.9375L27.9481 38.9015C28.1502 38.8591 28.2729 38.653 28.2139 38.4551L28.1012 38.0774C28.0744 37.9875 28.0845 37.8905 28.1293 37.8081L28.4696 37.1815C28.5574 37.02 28.5064 36.8181 28.3525 36.7176L28.0464 36.5177C27.9467 36.4525 27.8865 36.3414 27.8865 36.2222V35.8374C27.8865 35.6905 27.7955 35.559 27.658 35.5072L27.1002 35.297C26.8801 35.214 26.6419 35.3656 26.6239 35.6001L26.5635 36.3848C26.5517 36.5375 26.6587 36.6739 26.8098 36.6988L26.8669 36.7082C27.0526 36.7389 27.1419 36.9547 27.0366 37.1107C26.9818 37.1919 26.9787 37.299 27.03 37.3825L27.0761 37.4574C27.1583 37.591 27.0622 37.7629 26.9054 37.7629C26.809 37.7629 26.7262 37.8315 26.7084 37.9262L26.7057 37.9402C26.6814 38.0689 26.5498 38.1472 26.4251 38.107L26.0892 37.9987C25.9705 37.9604 25.8808 37.8623 25.8533 37.7406L25.7963 37.4888C25.7634 37.3429 25.642 37.2337 25.4935 37.2161L25.3106 37.1945C25.154 37.1759 25.0287 37.0558 25.0036 36.9001L24.9652 36.6611C24.9413 36.5127 24.826 36.3957 24.6779 36.3696L23.9197 36.236ZM34.5 29.2997H33.7699C33.7699 29.2997 34.2119 28.9085 34.1858 28.6472C34.1597 28.3859 33.6632 28.2319 33.6632 28.2319C33.6632 28.2319 33.6632 27.7104 33.7699 27.8857C33.8766 28.061 34.5 28.0125 34.5 28.0125V27.0515C34.5 27.0515 33.7671 26.6366 33.592 26.7335C33.417 26.8303 33.592 27.554 33.592 27.554C33.592 27.554 32.4777 27.1666 32.3755 27.554C32.3181 27.7712 32.6393 27.9903 32.8802 28.1545C33.0688 28.2831 33.2082 28.3782 33.0781 28.4125C33.0585 28.4176 33.0417 28.4928 33.0191 28.5932C32.9679 28.8221 32.8871 29.1824 32.6773 29.1469C32.5076 29.1183 32.173 28.7025 31.8586 28.3119L31.8586 28.3119C31.6138 28.0077 31.3812 27.7188 31.2485 27.6399C30.9453 27.4598 30.2897 27.2958 30.5545 27.8857C30.8193 28.4756 31.9936 29.2997 31.9936 29.2997C31.9936 29.2997 30.872 28.9913 30.342 28.7132C29.812 28.435 28.831 27.6399 28.831 27.6399C28.831 27.6399 29.6072 27.5304 29.5674 27.3441C29.5275 27.1579 28.6853 26.9587 28.6853 26.9587C28.6853 26.9587 28.9923 26.1361 28.6853 26.0176C28.486 25.9408 28.1924 26.1872 27.9668 26.3765C27.8448 26.4789 27.7427 26.5646 27.6863 26.5733C27.5256 26.5981 27.4246 26.212 27.4246 26.212C27.4246 26.212 27.8464 26.2052 27.997 25.8558C28.0143 25.8157 28.0316 25.7783 28.0484 25.7423L28.0484 25.7423C28.1773 25.4652 28.2685 25.2693 27.997 24.5003L27.9627 24.4032C27.6885 23.6245 27.6563 23.5332 27.0906 23.289C26.5433 23.0528 26.1782 23.2669 25.8185 23.4778L25.8184 23.4779C25.7914 23.4937 25.7645 23.5095 25.7375 23.5251C25.3505 23.7486 24.9672 24.2296 24.793 24.6164C24.6187 25.0032 24.6063 25.0662 24.793 25.6219C24.9491 26.0865 25.1067 26.2388 25.319 26.4439L25.3191 26.4439C25.3606 26.4841 25.4043 26.5263 25.4505 26.5733C25.5046 26.6283 25.5446 26.6722 25.5772 26.7081L25.5773 26.7082L25.5773 26.7082L25.5773 26.7082L25.5773 26.7083L25.5774 26.7083C25.7151 26.8597 25.723 26.8684 26.1072 26.9587C26.5826 27.0704 27.0906 26.9587 27.0906 26.9587C27.0906 26.9587 28.2481 27.9511 28.831 28.345C29.4139 28.739 30.5545 29.2997 30.5545 29.2997L29.5674 29.6723C29.5674 29.6723 29.4785 28.7331 29.3087 28.6472C29.1388 28.5612 28.831 29.2997 28.831 29.2997C28.831 29.2997 28.2249 29.0545 27.9908 29.3153C28.0524 29.0513 28.0801 28.7595 27.997 28.5295C27.7946 27.9695 26.7857 27.2088 26.7857 27.2088C26.7857 27.2088 26.7392 29.8608 25.8211 30.0157C25.145 30.1298 25.1461 29.7322 25.1472 29.3695C25.1476 29.2397 25.1479 29.1144 25.1173 29.0186C25.0656 28.8573 24.9481 28.7251 24.8125 28.5727C24.6424 28.3815 24.4441 28.1585 24.3119 27.8061C24.0744 27.1729 24.4892 27.3441 24.4892 27.3441C24.4892 27.3441 24.4105 26.8937 24.1439 26.8234C23.8774 26.7531 23.3074 26.8777 23.3074 26.8777C23.3074 26.8777 22.9137 27.5793 23.0781 27.9256C23.2425 28.2719 23.6435 28.1634 23.6435 28.1634C23.6435 28.1634 23.4665 28.3854 23.5104 28.5949C23.5278 28.6781 23.5996 28.8188 23.6813 28.9793C23.8056 29.2231 23.953 29.5124 23.9685 29.7145C23.9941 30.0497 23.6435 30.335 23.6435 30.335C23.6435 30.335 23.5882 29.6786 23.3793 29.3822C23.1703 29.0858 22.5127 28.731 22.5127 28.731V31.365H22.7956C22.7956 31.365 23.1083 33.2444 24.2157 33.6196C25.3231 33.9948 25.7678 32.9314 25.7678 32.9314C25.7678 32.9314 26.6728 32.9867 27.2936 32.5804C27.9144 32.174 27.5536 31.6179 27.5536 31.6179C27.5536 31.6179 27.9229 31.3066 27.9614 30.9839C27.9999 30.6611 27.7447 30.0157 27.7447 30.0157C27.7447 30.0157 27.826 29.85 27.9046 29.6164C27.9547 30.0355 28.6853 30.1371 28.6853 30.1371C28.6853 30.1371 27.9094 30.8112 28.2373 31.126C28.5653 31.4409 29.1515 30.6722 29.1515 30.6722C29.1515 30.6722 29.6535 30.1201 29.993 29.9452C30.3325 29.7704 31.0932 29.6723 31.0932 29.6723L32.2732 29.7949L31.8546 30.2434C31.8546 30.2434 31.6073 29.9327 31.2485 29.9997C30.8897 30.0667 30.4527 30.2925 30.5545 30.4861C30.6562 30.6798 31.6018 30.6722 31.6018 30.6722C31.6018 30.6722 31.9936 31.4089 31.8546 31.4089C31.6618 31.4089 31.4546 31.3769 31.2341 31.3429C30.9833 31.3042 30.7153 31.2629 30.4317 31.2629C29.9464 31.2629 28.831 31.4089 28.831 31.4089C28.831 31.4089 29.5478 32.504 29.993 32.8063C30.4382 33.1085 31.3893 33.1461 31.3893 33.1461C31.3893 33.1461 30.668 33.9759 30.342 34.6416C30.016 35.3072 29.9088 36.1689 29.9088 36.1689C29.9088 36.1689 31.1818 35.8658 31.6018 35.5945C32.0218 35.3232 32.2732 34.6416 32.2732 34.6416C32.2732 34.6416 32.3563 35.3812 32.798 35.975C33.2397 36.5689 33.9127 36.8458 33.9127 36.8458C33.9127 36.8458 34.2872 35.972 34.1858 35.2728C34.0844 34.5735 33.5018 34.0129 33.5018 34.0129L34.5 34.1905V32.7308L33.6632 32.3755L34.5 31.9698V30.6722C34.5 30.6722 34.3815 30.2485 33.6632 30.4861C32.9449 30.7238 32.2732 31.4089 32.2732 31.4089L31.9936 30.6722L32.798 29.9997L34.5 29.7949V29.2997ZM32.6599 39.9338C32.4921 39.7701 31.7986 39.6693 31.7986 39.6693C31.7986 39.6693 31.7937 40.2196 31.9533 40.3753C32.1129 40.531 32.7301 40.578 32.7301 40.578C32.7301 40.578 32.8276 40.0975 32.6599 39.9338ZM28.3235 32.059L27.1487 32.7906L27.5974 33.9744H29.0496L29.4984 32.7906L28.3235 32.059ZM31.0743 40.7761C31.0743 40.551 31.5133 40.1236 31.5133 40.1236C31.5133 40.1236 31.9179 40.4704 31.9179 40.7061C31.9179 40.9417 31.5133 41.4286 31.5133 41.4286C31.5133 41.4286 31.0743 41.0012 31.0743 40.7761ZM22.5127 24.8351V26.7126C22.5127 26.7126 22.9801 25.5967 23.9711 26.337C24.962 27.0772 24.848 28.4042 24.848 28.4042C24.848 28.4042 25.682 27.8328 25.3088 26.854C24.9356 25.8753 22.5127 24.8351 22.5127 24.8351ZM30.7552 40.6021C31.02 40.3117 31.2796 40.027 31.2796 39.746C31.2796 39.3808 30.8732 39.5739 30.544 39.7302L30.5439 39.7302L30.5437 39.7303C30.4491 39.7753 30.3609 39.8172 30.2906 39.8419C29.9754 39.9527 29.4 40.4068 29.4 40.4068C29.4 40.4068 28.1392 41.3893 27.6485 41.5742C27.1578 41.759 26.6875 41.4286 26.6875 41.4286C26.6875 41.4286 26.6897 41.0785 26.5049 40.9107C26.32 40.743 25.8913 40.7061 25.8913 40.7061C25.8913 40.7061 26.2966 41.1287 26.2004 41.4286C26.1043 41.7286 25.3519 42.3886 25.3519 42.3886C25.3519 42.3886 24.9499 42.1299 24.6915 42.1299C24.433 42.1299 24.094 42.3886 24.094 42.3886C24.094 42.3886 24.319 42.9409 24.5359 43.0457C24.7529 43.1506 25.0954 42.8726 25.0954 42.8726C25.0954 42.8726 24.8629 43.0943 24.808 43.3012C24.7532 43.5081 24.808 43.9558 24.808 43.9558C24.808 43.9558 24.4771 43.6556 24.2903 43.555C24.1035 43.4544 23.7042 43.3612 23.7042 43.3612C23.7042 43.3612 23.8061 42.88 23.7746 42.6701C23.7431 42.4603 23.5367 42.2451 23.5367 42.2451C23.5367 42.2451 23.8559 41.9402 23.7746 41.6768C23.6933 41.4134 23.0832 40.7761 23.0832 40.7761C23.0832 40.7761 22.899 40.9541 22.8436 41.0636C22.7882 41.1732 22.7531 41.4286 22.7531 41.4286C22.7531 41.4286 22.8902 41.748 22.8902 41.9088C22.8902 42.0696 22.7531 42.3886 22.7531 42.3886C22.7531 42.3886 22.9822 42.5196 23.0832 42.5356C23.1842 42.5515 23.3458 42.4822 23.3458 42.4822C23.3458 42.4822 23.6013 42.8052 23.5367 43.0457C23.472 43.2862 22.9878 43.8142 22.9878 43.8142C22.9878 43.8142 22.9328 43.2399 22.8436 43.0457C22.7544 42.8515 22.5127 42.7801 22.5127 42.7801V45.859C22.5127 45.859 22.681 45.7932 22.7531 45.6957C22.8253 45.5983 22.8436 45.4118 22.8436 45.4118C22.8436 45.4118 23.0229 45.7597 23.1803 45.859C23.3376 45.9583 23.7746 45.9991 23.7746 45.9991C23.7746 45.9991 24.0435 45.5342 24.0005 45.3262C23.9575 45.1182 23.5367 44.8482 23.5367 44.8482C23.5367 44.8482 23.8332 44.8628 23.9005 44.7853C23.9678 44.7078 23.9005 44.4293 23.9005 44.4293C23.9005 44.4293 24.2875 44.6464 24.3802 44.62C24.4728 44.5935 24.4496 44.2727 24.4496 44.2727C24.4496 44.2727 25.0408 44.3298 25.1708 44.2727C25.3008 44.2156 25.1708 43.9558 25.1708 43.9558C25.1708 43.9558 25.7276 43.6678 25.8339 43.4132C25.9402 43.1585 25.7073 42.6701 25.7073 42.6701C25.7073 42.6701 26.1103 42.49 26.2917 42.3247C26.4731 42.1593 26.6875 41.7767 26.6875 41.7767V42.1299C26.6875 42.1299 27.2814 42.1895 27.5332 42.1299C27.785 42.0703 28.1792 41.7767 28.1792 41.7767C28.1792 41.7767 28.1904 41.8478 28.0593 42.0607C27.9282 42.2735 27.9124 42.5852 27.9124 42.5852C27.9124 42.5852 27.3158 42.371 27.0987 42.4822C26.8817 42.5934 26.6875 43.2127 26.6875 43.2127C26.6875 43.2127 27.1446 43.3947 27.366 43.3612C27.5873 43.3276 27.7884 43.0457 27.7884 43.0457C27.7884 43.0457 27.697 43.292 27.6485 43.555C27.6 43.818 27.5332 44.4293 27.5332 44.4293C27.5332 44.4293 27.6584 44.6698 27.7884 44.6698C27.9185 44.6698 28.0593 44.4293 28.0593 44.4293C28.0593 44.4293 28.0507 42.8588 28.625 41.9088C29.1993 40.9588 30.2906 40.4068 30.2906 40.4068C30.2906 40.4068 30.1177 40.6721 29.8932 40.9859C29.6687 41.2997 29.5508 41.6768 29.5508 41.6768C29.5508 41.6768 28.9581 41.7281 28.7897 41.9088C28.6213 42.0894 28.625 42.6701 28.625 42.6701C28.625 42.6701 28.9602 42.7214 29.115 42.6701C29.2698 42.6189 29.4747 42.3886 29.4747 42.3886C29.4747 42.3886 29.323 42.8668 29.4 43.0457C29.477 43.2246 29.8932 43.3612 29.8932 43.3612C29.8932 43.3612 30.2769 42.9718 30.2906 42.7801C30.3042 42.5884 29.9727 42.2451 29.9727 42.2451C29.9727 42.2451 30.0288 41.698 30.2906 41.1975C30.396 40.996 30.5768 40.7977 30.7552 40.6021ZM33.9462 37.2783C34.1424 37.4251 34.5 37.8613 34.5 37.8613V39.1015C34.5 39.1015 34.0207 38.968 33.808 38.8238C33.5953 38.6796 33.2475 38.2525 33.2475 38.2525C33.2475 38.2525 33.5319 38.1513 33.6813 38.1513C33.8307 38.1513 34.0858 38.2525 34.0858 38.2525C34.0858 38.2525 33.5253 37.8839 33.412 37.6813C33.2987 37.4788 33.412 37.0477 33.412 37.0477C33.412 37.0477 33.7499 37.1316 33.9462 37.2783ZM33.2475 38.5421C33.6552 39.1946 34.5 39.8964 34.5 39.8964V42.2451H34.3451C34.3451 42.2451 33.6813 41.8659 33.6813 41.5733C33.6813 41.2807 34.3451 41.1479 34.3451 41.1479C34.3451 41.1479 33.9832 40.8764 33.8835 40.7061C33.7838 40.5358 33.808 40.2304 33.808 40.2304C33.808 40.2304 34.0372 40.3142 34.1359 40.3142C34.2346 40.3142 34.3451 40.2304 34.3451 40.2304C34.3451 40.2304 33.5551 39.8855 33.1685 39.7126C32.782 39.5397 32.1438 39.2457 32.1438 39.2457C32.1438 39.2457 31.1503 39.2045 30.7854 39.2457C30.3364 39.2964 30.0172 39.3946 29.8087 39.4587C29.6915 39.4948 29.6093 39.5201 29.5588 39.5201C29.2388 39.5201 29.1125 39.0982 29.1863 38.9386C29.26 38.7791 29.8808 38.8238 29.8808 38.8238C29.8808 38.8238 29.5658 38.6919 29.4302 38.5421C29.2945 38.3922 29.1863 38.0567 29.1863 38.0567C29.1863 38.0567 29.557 37.7855 29.8808 37.8613C30.2046 37.9372 30.3629 38.052 30.5288 38.3711C30.6947 38.6902 30.3813 38.8238 30.3813 38.8238C30.3813 38.8238 30.8118 38.8526 30.9994 38.8238C31.1871 38.795 31.467 38.6572 31.467 38.6572C31.467 38.6572 30.3053 37.7278 29.7795 37.0477C29.2537 36.3675 28.5343 34.8634 28.5343 34.8634C28.5343 34.8634 28.0593 34.6677 28.0593 34.5557C28.0593 34.4437 28.5343 34.4362 28.5343 34.4362C28.5343 34.4362 28.834 33.9869 28.9701 34.1766C29.0217 34.2486 29.1178 34.4975 29.2402 34.8146C29.4406 35.3338 29.7114 36.0357 29.973 36.4421C30.3942 37.0966 31.467 38.0567 31.467 38.0567C31.467 38.0567 31.3882 37.6984 31.3882 37.5268C31.3882 37.3551 31.467 37.1568 31.467 37.1568C31.467 37.1568 30.9586 37.2157 30.7197 37.0477C30.4809 36.8796 30.3813 36.3927 30.3813 36.3927C30.3813 36.3927 30.7159 36.2982 30.9007 36.3073C31.0855 36.3163 31.3882 36.4421 31.3882 36.4421C31.3882 36.4421 31.4364 36.143 31.532 35.9912C31.6275 35.8393 31.9542 35.5424 31.9542 35.5424C31.9542 35.5424 32.2978 35.7983 32.2435 36.2538C32.1891 36.7093 31.7747 37.0477 31.7747 37.0477C31.7747 37.0477 31.6761 37.6304 31.7747 37.8613C31.8732 38.0923 32.2887 38.2525 32.2887 38.2525C32.2887 38.2525 32.1953 38.3483 32.0966 38.3711C31.9979 38.3939 31.7747 38.3711 31.7747 38.3711C31.7747 38.3711 32.0086 38.6551 32.2887 38.8238C32.5688 38.9924 33.2271 39.2457 33.2271 39.2457C33.2271 39.2457 32.7218 38.636 32.5503 38.3711C32.1117 37.6937 31.9542 37.2535 31.9542 37.1568C31.9542 36.9549 32.3967 36.618 32.5939 36.8458C32.6795 36.9447 32.7371 37.1546 32.8083 37.4137C32.9011 37.7514 33.0168 38.1729 33.2475 38.5421Z" fill="#FFC54F"/>
<path d="M22.5127 32.9219L23.7119 34.0585C23.7549 34.0993 23.8076 34.1286 23.865 34.1436L24.1505 34.2187C24.275 34.2514 24.3618 34.364 24.3618 34.4928V34.4928C24.3618 34.6493 24.4887 34.7762 24.6452 34.7762H24.6686C24.8519 34.7762 24.9943 34.9358 24.9734 35.1178L24.9533 35.294C24.9331 35.4703 25.047 35.6342 25.2193 35.6768L25.2418 35.6823C25.3994 35.7213 25.5101 35.8627 25.5101 36.025V36.138C25.5101 36.3411 25.6864 36.4993 25.8883 36.4773V36.4773C26.0615 36.4584 26.1927 36.3122 26.1927 36.138V35.744C26.1927 35.6531 26.1576 35.5657 26.0947 35.5L25.9685 35.3681C25.8423 35.2362 25.8374 35.03 25.9572 34.8923L25.9908 34.8537C26.0691 34.7638 26.0882 34.6367 26.0397 34.5277V34.5277C25.9297 34.2802 26.171 34.022 26.4254 34.1151L27.1324 34.3738C27.1712 34.388 27.2123 34.3952 27.2537 34.3952H27.4278C27.5769 34.3952 27.7099 34.4889 27.7601 34.6293L27.8983 35.0155C27.926 35.0929 27.98 35.1583 28.0508 35.2002L28.4156 35.4163C28.5229 35.4798 28.5887 35.5953 28.5887 35.7199V36.01C28.5887 36.104 28.6262 36.1941 28.6929 36.2604L29.1219 36.6865C29.2198 36.7838 29.2521 36.9292 29.2044 37.0588L28.9687 37.6997C28.9544 37.7388 28.947 37.78 28.947 37.8216V38.547C28.947 38.6048 28.9328 38.6617 28.9057 38.7128L28.4948 39.4854C28.4357 39.5964 28.3202 39.6658 28.1944 39.6658V39.6658C28.0441 39.6658 27.9117 39.7644 27.8685 39.9084L27.6692 40.5737C27.6184 40.7433 27.4499 40.849 27.2751 40.8209L26.6804 40.7254C26.6038 40.7131 26.5334 40.6759 26.4801 40.6195L26.0466 40.1616C25.9519 40.0616 25.8077 40.0258 25.6772 40.0699L25.3997 40.1638C25.2371 40.2188 25.0584 40.1487 24.9765 39.9978L24.6773 39.4467C24.6033 39.3106 24.4493 39.2386 24.2975 39.2691L24.2527 39.2781C24.1133 39.3061 23.9706 39.2478 23.8909 39.13L23.2332 38.1587C23.1742 38.0716 23.0663 38.0316 22.9648 38.0594V38.0594C22.7736 38.1117 22.7197 38.3571 22.8714 38.4847L22.9447 38.5463C23.0116 38.6026 23.0503 38.6855 23.0503 38.7729V38.9367C23.0503 39.0361 23.0922 39.1309 23.1657 39.1978L23.6803 39.6658L24.106 40.1596C24.1612 40.2237 24.1916 40.3055 24.1916 40.3901V40.6173C24.1916 40.7684 24.2877 40.9027 24.4307 40.9514L24.9726 41.136C25.0642 41.1672 25.1356 41.2401 25.1649 41.3323V41.3323C25.2409 41.571 25.0127 41.7945 24.7756 41.7135L24.6736 41.6787C24.5956 41.652 24.5294 41.599 24.4865 41.5286L24.2506 41.1424C24.2122 41.0796 24.1551 41.0303 24.0873 41.0015L23.9574 40.9464C23.8455 40.8988 23.7659 40.797 23.7468 40.677L23.7036 40.4054C23.6887 40.3117 23.6367 40.228 23.5593 40.1731L22.9764 39.7593C22.8959 39.7022 22.843 39.6139 22.8306 39.516L22.7785 39.1061C22.7643 38.9941 22.6974 38.8956 22.5984 38.8413L22.5 38.7871" stroke="#FEC346" stroke-width="0.5" stroke-linecap="round" stroke-linejoin="round"/>
<path fill-rule="evenodd" clip-rule="evenodd" d="M11.5807 19.733C11.8424 19.5482 12.578 20.6293 12.578 20.6293C12.578 20.6293 12.3737 19.8419 12.7264 19.8119C13.0792 19.7818 13.6931 20.5343 13.6931 20.5343C13.6931 20.5343 13.8855 19.9872 14.1039 20.4648C14.3222 20.9425 14.3222 21.9804 14.3222 21.9804C14.3222 21.9804 14.8923 21.6896 14.808 22.221C14.7238 22.7523 14.1039 23.3572 14.1039 23.3572C14.1039 23.3572 14.4746 23.244 14.3222 23.6177C14.1698 23.9915 13.6931 24.3643 13.6931 24.3643C13.6931 24.3643 14.7749 23.8363 14.8929 23.7372C14.9593 23.6815 14.9338 23.6037 14.9085 23.5263C14.8888 23.4661 14.8692 23.4063 14.8929 23.3572C14.9172 23.3067 14.9685 23.3135 15.0176 23.32C15.0775 23.3279 15.1341 23.3353 15.1341 23.2375C15.1341 23.153 15.0644 23.0821 14.9984 23.0149C14.9254 22.9406 14.857 22.871 14.8929 22.7928C14.9263 22.7199 14.9937 22.7261 15.0797 22.7341C15.169 22.7425 15.2783 22.7526 15.3906 22.6781C15.4822 22.6174 15.5322 22.5095 15.5775 22.4119C15.6414 22.2742 15.6959 22.1568 15.8439 22.221C16.097 22.3305 16.22 22.7928 16.22 23.0373C16.22 23.1645 16.2779 23.1585 16.3404 23.1521C16.398 23.1463 16.4596 23.14 16.4831 23.2375C16.532 23.4406 16.3886 23.7372 16.3886 23.7372C16.3886 23.7372 17.003 23.673 17.003 23.9102C17.003 24.1473 16.3886 24.5073 16.3886 24.5073C16.3886 24.5073 16.4849 25.1511 16.22 25.4718C15.955 25.7924 14.8929 26.3175 14.8929 26.3175C14.8929 26.3175 15.6075 26.5719 15.481 26.8582C15.3545 27.1445 14.6498 27.3405 14.4644 27.2868C14.2791 27.2331 14.4644 26.5637 14.4644 26.5637L13.8894 26.6774C13.8894 26.6774 14.3089 27.0049 14.1039 27.1985C13.8988 27.3921 13.3903 27.3607 13.2439 27.2868C13.0975 27.213 13.2439 26.7648 13.2439 26.7648C13.2439 26.7648 12.4272 26.9531 11.7573 26.7648C11.0874 26.5764 10.5 25.9933 10.5 25.9933V21.0959C10.5 21.0959 10.8672 20.8651 11.0926 20.9425C11.318 21.0199 11.4538 21.4233 11.4538 21.4233C11.4538 21.4233 11.319 19.9179 11.5807 19.733ZM22.4974 34.6629C22.4984 34.3844 22.1696 34.2351 21.9559 34.4136C21.8844 34.4733 21.8423 34.5624 21.8423 34.6555V34.6708C21.8423 34.8703 21.6525 35.0153 21.46 34.9628C21.3491 34.9326 21.2306 34.9678 21.1542 35.0537L21.0062 35.2201C20.8919 35.3486 20.8868 35.5407 20.9942 35.675L21.1497 35.8696C21.2256 35.9646 21.3565 35.9956 21.467 35.9448C21.6424 35.8642 21.8423 35.9924 21.8423 36.1854V36.4848C21.8423 36.5566 21.8661 36.6263 21.91 36.6831C22.0988 36.9272 22.4896 36.7945 22.4907 36.486L22.4974 34.6629ZM21.0803 36.236C21.276 36.2016 21.4615 36.3353 21.4907 36.5318L21.6008 37.2742C21.63 37.4711 21.4908 37.6532 21.2931 37.6765L20.9044 37.7224C20.7138 37.745 20.5761 37.9156 20.5944 38.1066L20.6027 38.1934C20.6226 38.4007 20.4596 38.58 20.2514 38.58H20.0669C19.872 38.58 19.714 38.738 19.714 38.933V39.1022C19.714 39.3137 19.5293 39.4777 19.3192 39.4527L19.0163 39.4165C18.9446 39.408 18.8721 39.4216 18.8084 39.4556L18.2193 39.7698C18.0489 39.8607 17.8369 39.7976 17.7439 39.6283L17.4608 39.113C17.4112 39.0227 17.3247 38.9586 17.2239 38.9375L17.0519 38.9015C16.8498 38.8591 16.7271 38.653 16.7861 38.4551L16.8988 38.0774C16.9256 37.9875 16.9155 37.8905 16.8707 37.8081L16.5304 37.1815C16.4426 37.02 16.4936 36.8181 16.6475 36.7176L16.9536 36.5177C17.0533 36.4525 17.1135 36.3414 17.1135 36.2222V35.8374C17.1135 35.6905 17.2045 35.559 17.342 35.5072L17.8998 35.297C18.1199 35.214 18.3581 35.3656 18.3761 35.6001L18.4365 36.3848C18.4483 36.5375 18.3413 36.6739 18.1902 36.6988L18.1331 36.7082C17.9474 36.7389 17.8581 36.9547 17.9634 37.1107C18.0182 37.1919 18.0213 37.299 17.97 37.3825L17.9239 37.4574C17.8417 37.591 17.9378 37.7629 18.0946 37.7629C18.191 37.7629 18.2738 37.8315 18.2916 37.9262L18.2943 37.9402C18.3186 38.0689 18.4502 38.1472 18.5749 38.107L18.9108 37.9987C19.0295 37.9604 19.1192 37.8623 19.1467 37.7406L19.2037 37.4888C19.2366 37.3429 19.358 37.2337 19.5065 37.2161L19.6894 37.1945C19.846 37.1759 19.9713 37.0558 19.9964 36.9001L20.0348 36.6611C20.0587 36.5127 20.174 36.3957 20.3221 36.3696L21.0803 36.236ZM10.5 29.2997H11.2301C11.2301 29.2997 10.7881 28.9085 10.8142 28.6472C10.8403 28.3859 11.3368 28.2319 11.3368 28.2319C11.3368 28.2319 11.3368 27.7104 11.2301 27.8857C11.1234 28.061 10.5 28.0125 10.5 28.0125V27.0515C10.5 27.0515 11.2329 26.6366 11.408 26.7335C11.583 26.8303 11.408 27.554 11.408 27.554C11.408 27.554 12.5223 27.1666 12.6245 27.554C12.6819 27.7712 12.3607 27.9903 12.1198 28.1545C11.9312 28.2831 11.7918 28.3782 11.9219 28.4125C11.9415 28.4176 11.9583 28.4928 11.9809 28.5932C12.0321 28.8221 12.1129 29.1824 12.3227 29.1469C12.4924 29.1183 12.827 28.7025 13.1414 28.3119L13.1414 28.3119C13.3862 28.0077 13.6188 27.7188 13.7515 27.6399C14.0547 27.4598 14.7103 27.2958 14.4455 27.8857C14.1807 28.4756 13.0064 29.2997 13.0064 29.2997C13.0064 29.2997 14.128 28.9913 14.658 28.7132C15.188 28.435 16.169 27.6399 16.169 27.6399C16.169 27.6399 15.3928 27.5304 15.4326 27.3441C15.4725 27.1579 16.3147 26.9587 16.3147 26.9587C16.3147 26.9587 16.0077 26.1361 16.3147 26.0176C16.514 25.9408 16.8076 26.1872 17.0332 26.3765C17.1552 26.4789 17.2573 26.5646 17.3137 26.5733C17.4744 26.5981 17.5754 26.212 17.5754 26.212C17.5754 26.212 17.1536 26.2052 17.003 25.8558C16.9857 25.8157 16.9684 25.7783 16.9516 25.7423L16.9516 25.7423C16.8227 25.4652 16.7315 25.2693 17.003 24.5003L17.0373 24.4032C17.3115 23.6245 17.3437 23.5332 17.9094 23.289C18.4567 23.0528 18.8218 23.2669 19.1815 23.4778L19.1816 23.4779C19.2086 23.4937 19.2355 23.5095 19.2625 23.5251C19.6495 23.7486 20.0328 24.2296 20.207 24.6164C20.3813 25.0032 20.3937 25.0662 20.207 25.6219C20.0509 26.0865 19.8933 26.2388 19.681 26.4439L19.6809 26.4439C19.6394 26.4841 19.5957 26.5263 19.5495 26.5733C19.4954 26.6283 19.4554 26.6722 19.4228 26.7081L19.4227 26.7082L19.4227 26.7082L19.4227 26.7082L19.4227 26.7083L19.4226 26.7083C19.2849 26.8597 19.277 26.8684 18.8928 26.9587C18.4174 27.0704 17.9094 26.9587 17.9094 26.9587C17.9094 26.9587 16.7519 27.9511 16.169 28.345C15.5861 28.739 14.4455 29.2997 14.4455 29.2997L15.4326 29.6723C15.4326 29.6723 15.5215 28.7331 15.6913 28.6472C15.8612 28.5612 16.169 29.2997 16.169 29.2997C16.169 29.2997 16.7751 29.0545 17.0092 29.3153C16.9476 29.0513 16.9199 28.7595 17.003 28.5295C17.2054 27.9695 18.2143 27.2088 18.2143 27.2088C18.2143 27.2088 18.2608 29.8608 19.1789 30.0157C19.855 30.1298 19.8539 29.7322 19.8528 29.3695C19.8524 29.2397 19.8521 29.1144 19.8827 29.0186C19.9344 28.8573 20.0519 28.7251 20.1875 28.5727C20.3576 28.3815 20.5559 28.1585 20.6881 27.8061C20.9256 27.1729 20.5108 27.3441 20.5108 27.3441C20.5108 27.3441 20.5895 26.8937 20.8561 26.8234C21.1226 26.7531 21.6926 26.8777 21.6926 26.8777C21.6926 26.8777 22.0863 27.5793 21.9219 27.9256C21.7575 28.2719 21.3565 28.1634 21.3565 28.1634C21.3565 28.1634 21.5335 28.3854 21.4896 28.5949C21.4722 28.6781 21.4004 28.8188 21.3187 28.9793C21.1944 29.2231 21.047 29.5124 21.0315 29.7145C21.0059 30.0497 21.3565 30.335 21.3565 30.335C21.3565 30.335 21.4118 29.6786 21.6207 29.3822C21.8297 29.0858 22.4873 28.731 22.4873 28.731V31.365H22.2044C22.2044 31.365 21.8917 33.2444 20.7843 33.6196C19.6769 33.9948 19.2322 32.9314 19.2322 32.9314C19.2322 32.9314 18.3272 32.9867 17.7064 32.5804C17.0856 32.174 17.4464 31.6179 17.4464 31.6179C17.4464 31.6179 17.0771 31.3066 17.0386 30.9839C17.0001 30.6611 17.2553 30.0157 17.2553 30.0157C17.2553 30.0157 17.174 29.85 17.0954 29.6164C17.0453 30.0355 16.3147 30.1371 16.3147 30.1371C16.3147 30.1371 17.0906 30.8112 16.7627 31.126C16.4347 31.4409 15.8485 30.6722 15.8485 30.6722C15.8485 30.6722 15.3465 30.1201 15.007 29.9452C14.6675 29.7704 13.9068 29.6723 13.9068 29.6723L12.7268 29.7949L13.1454 30.2434C13.1454 30.2434 13.3927 29.9327 13.7515 29.9997C14.1103 30.0667 14.5473 30.2925 14.4455 30.4861C14.3438 30.6798 13.3982 30.6722 13.3982 30.6722C13.3982 30.6722 13.0064 31.4089 13.1454 31.4089C13.3382 31.4089 13.5454 31.3769 13.7659 31.3429C14.0167 31.3042 14.2847 31.2629 14.5683 31.2629C15.0536 31.2629 16.169 31.4089 16.169 31.4089C16.169 31.4089 15.4522 32.504 15.007 32.8063C14.5618 33.1085 13.6107 33.1461 13.6107 33.1461C13.6107 33.1461 14.332 33.9759 14.658 34.6416C14.984 35.3072 15.0912 36.1689 15.0912 36.1689C15.0912 36.1689 13.8182 35.8658 13.3982 35.5945C12.9782 35.3232 12.7268 34.6416 12.7268 34.6416C12.7268 34.6416 12.6437 35.3812 12.202 35.975C11.7603 36.5689 11.0873 36.8458 11.0873 36.8458C11.0873 36.8458 10.7128 35.972 10.8142 35.2728C10.9156 34.5735 11.4982 34.0129 11.4982 34.0129L10.5 34.1905V32.7308L11.3368 32.3755L10.5 31.9698V30.6722C10.5 30.6722 10.6185 30.2485 11.3368 30.4861C12.0551 30.7238 12.7268 31.4089 12.7268 31.4089L13.0064 30.6722L12.202 29.9997L10.5 29.7949V29.2997ZM12.3401 39.9338C12.5079 39.7701 13.2014 39.6693 13.2014 39.6693C13.2014 39.6693 13.2063 40.2196 13.0467 40.3753C12.8871 40.531 12.2699 40.578 12.2699 40.578C12.2699 40.578 12.1724 40.0975 12.3401 39.9338ZM16.6765 32.059L17.8513 32.7906L17.4026 33.9744H15.9504L15.5016 32.7906L16.6765 32.059ZM13.9257 40.7761C13.9257 40.551 13.4867 40.1236 13.4867 40.1236C13.4867 40.1236 13.0821 40.4704 13.0821 40.7061C13.0821 40.9417 13.4867 41.4286 13.4867 41.4286C13.4867 41.4286 13.9257 41.0012 13.9257 40.7761ZM22.4873 24.8351V26.7126C22.4873 26.7126 22.0199 25.5967 21.0289 26.337C20.038 27.0772 20.152 28.4042 20.152 28.4042C20.152 28.4042 19.318 27.8328 19.6912 26.854C20.0644 25.8753 22.4873 24.8351 22.4873 24.8351ZM14.2448 40.6021C13.98 40.3117 13.7204 40.027 13.7204 39.746C13.7204 39.3808 14.1268 39.5739 14.456 39.7302L14.4561 39.7302L14.4563 39.7303C14.5509 39.7753 14.6391 39.8172 14.7094 39.8419C15.0246 39.9527 15.6 40.4068 15.6 40.4068C15.6 40.4068 16.8608 41.3893 17.3515 41.5742C17.8422 41.759 18.3125 41.4286 18.3125 41.4286C18.3125 41.4286 18.3103 41.0785 18.4951 40.9107C18.68 40.743 19.1087 40.7061 19.1087 40.7061C19.1087 40.7061 18.7034 41.1287 18.7996 41.4286C18.8957 41.7286 19.6481 42.3886 19.6481 42.3886C19.6481 42.3886 20.0501 42.1299 20.3085 42.1299C20.567 42.1299 20.906 42.3886 20.906 42.3886C20.906 42.3886 20.681 42.9409 20.4641 43.0457C20.2471 43.1506 19.9046 42.8726 19.9046 42.8726C19.9046 42.8726 20.1371 43.0943 20.192 43.3012C20.2468 43.5081 20.192 43.9558 20.192 43.9558C20.192 43.9558 20.5229 43.6556 20.7097 43.555C20.8965 43.4544 21.2958 43.3612 21.2958 43.3612C21.2958 43.3612 21.1939 42.88 21.2254 42.6701C21.2569 42.4603 21.4633 42.2451 21.4633 42.2451C21.4633 42.2451 21.1441 41.9402 21.2254 41.6768C21.3067 41.4134 21.9168 40.7761 21.9168 40.7761C21.9168 40.7761 22.101 40.9541 22.1564 41.0636C22.2118 41.1732 22.2469 41.4286 22.2469 41.4286C22.2469 41.4286 22.1098 41.748 22.1098 41.9088C22.1098 42.0696 22.2469 42.3886 22.2469 42.3886C22.2469 42.3886 22.0178 42.5196 21.9168 42.5356C21.8158 42.5515 21.6542 42.4822 21.6542 42.4822C21.6542 42.4822 21.3987 42.8052 21.4633 43.0457C21.528 43.2862 22.0122 43.8142 22.0122 43.8142C22.0122 43.8142 22.0672 43.2399 22.1564 43.0457C22.2456 42.8515 22.4873 42.7801 22.4873 42.7801V45.859C22.4873 45.859 22.319 45.7932 22.2469 45.6957C22.1747 45.5983 22.1564 45.4118 22.1564 45.4118C22.1564 45.4118 21.9771 45.7597 21.8197 45.859C21.6624 45.9583 21.2254 45.9991 21.2254 45.9991C21.2254 45.9991 20.9565 45.5342 20.9995 45.3262C21.0425 45.1182 21.4633 44.8482 21.4633 44.8482C21.4633 44.8482 21.1668 44.8628 21.0995 44.7853C21.0322 44.7078 21.0995 44.4293 21.0995 44.4293C21.0995 44.4293 20.7125 44.6464 20.6198 44.62C20.5272 44.5935 20.5504 44.2727 20.5504 44.2727C20.5504 44.2727 19.9592 44.3298 19.8292 44.2727C19.6992 44.2156 19.8292 43.9558 19.8292 43.9558C19.8292 43.9558 19.2724 43.6678 19.1661 43.4132C19.0598 43.1585 19.2927 42.6701 19.2927 42.6701C19.2927 42.6701 18.8897 42.49 18.7083 42.3247C18.5269 42.1593 18.3125 41.7767 18.3125 41.7767V42.1299C18.3125 42.1299 17.7186 42.1895 17.4668 42.1299C17.215 42.0703 16.8208 41.7767 16.8208 41.7767C16.8208 41.7767 16.8096 41.8478 16.9407 42.0607C17.0718 42.2735 17.0876 42.5852 17.0876 42.5852C17.0876 42.5852 17.6842 42.371 17.9013 42.4822C18.1183 42.5934 18.3125 43.2127 18.3125 43.2127C18.3125 43.2127 17.8554 43.3947 17.634 43.3612C17.4127 43.3276 17.2116 43.0457 17.2116 43.0457C17.2116 43.0457 17.303 43.292 17.3515 43.555C17.4 43.818 17.4668 44.4293 17.4668 44.4293C17.4668 44.4293 17.3416 44.6698 17.2116 44.6698C17.0815 44.6698 16.9407 44.4293 16.9407 44.4293C16.9407 44.4293 16.9493 42.8588 16.375 41.9088C15.8007 40.9588 14.7094 40.4068 14.7094 40.4068C14.7094 40.4068 14.8823 40.6721 15.1068 40.9859C15.3313 41.2997 15.4492 41.6768 15.4492 41.6768C15.4492 41.6768 16.0419 41.7281 16.2103 41.9088C16.3787 42.0894 16.375 42.6701 16.375 42.6701C16.375 42.6701 16.0398 42.7214 15.885 42.6701C15.7302 42.6189 15.5253 42.3886 15.5253 42.3886C15.5253 42.3886 15.677 42.8668 15.6 43.0457C15.523 43.2246 15.1068 43.3612 15.1068 43.3612C15.1068 43.3612 14.7231 42.9718 14.7094 42.7801C14.6958 42.5884 15.0273 42.2451 15.0273 42.2451C15.0273 42.2451 14.9712 41.698 14.7094 41.1975C14.604 40.996 14.4232 40.7977 14.2448 40.6021ZM11.0538 37.2783C10.8576 37.4251 10.5 37.8613 10.5 37.8613V39.1015C10.5 39.1015 10.9793 38.968 11.192 38.8238C11.4047 38.6796 11.7525 38.2525 11.7525 38.2525C11.7525 38.2525 11.4681 38.1513 11.3187 38.1513C11.1693 38.1513 10.9142 38.2525 10.9142 38.2525C10.9142 38.2525 11.4747 37.8839 11.588 37.6813C11.7013 37.4788 11.588 37.0477 11.588 37.0477C11.588 37.0477 11.2501 37.1316 11.0538 37.2783ZM11.7525 38.5421C11.3448 39.1946 10.5 39.8964 10.5 39.8964V42.2451H10.6549C10.6549 42.2451 11.3187 41.8659 11.3187 41.5733C11.3187 41.2807 10.6549 41.1479 10.6549 41.1479C10.6549 41.1479 11.0168 40.8764 11.1165 40.7061C11.2162 40.5358 11.192 40.2304 11.192 40.2304C11.192 40.2304 10.9628 40.3142 10.8641 40.3142C10.7654 40.3142 10.6549 40.2304 10.6549 40.2304C10.6549 40.2304 11.4449 39.8855 11.8315 39.7126C12.218 39.5397 12.8562 39.2457 12.8562 39.2457C12.8562 39.2457 13.8497 39.2045 14.2146 39.2457C14.6636 39.2964 14.9828 39.3946 15.1913 39.4587C15.3085 39.4948 15.3907 39.5201 15.4412 39.5201C15.7612 39.5201 15.8875 39.0982 15.8137 38.9386C15.74 38.7791 15.1192 38.8238 15.1192 38.8238C15.1192 38.8238 15.4342 38.6919 15.5698 38.5421C15.7055 38.3922 15.8137 38.0567 15.8137 38.0567C15.8137 38.0567 15.443 37.7855 15.1192 37.8613C14.7954 37.9372 14.6371 38.052 14.4712 38.3711C14.3053 38.6902 14.6187 38.8238 14.6187 38.8238C14.6187 38.8238 14.1882 38.8526 14.0006 38.8238C13.8129 38.795 13.533 38.6572 13.533 38.6572C13.533 38.6572 14.6947 37.7278 15.2205 37.0477C15.7463 36.3675 16.4657 34.8634 16.4657 34.8634C16.4657 34.8634 16.9407 34.6677 16.9407 34.5557C16.9407 34.4437 16.4657 34.4362 16.4657 34.4362C16.4657 34.4362 16.166 33.9869 16.0299 34.1766C15.9783 34.2486 15.8822 34.4975 15.7598 34.8146C15.5594 35.3338 15.2886 36.0357 15.027 36.4421C14.6058 37.0966 13.533 38.0567 13.533 38.0567C13.533 38.0567 13.6118 37.6984 13.6118 37.5268C13.6118 37.3551 13.533 37.1568 13.533 37.1568C13.533 37.1568 14.0414 37.2157 14.2803 37.0477C14.5191 36.8796 14.6187 36.3927 14.6187 36.3927C14.6187 36.3927 14.2841 36.2982 14.0993 36.3073C13.9145 36.3163 13.6118 36.4421 13.6118 36.4421C13.6118 36.4421 13.5636 36.143 13.468 35.9912C13.3725 35.8393 13.0458 35.5424 13.0458 35.5424C13.0458 35.5424 12.7022 35.7983 12.7565 36.2538C12.8109 36.7093 13.2253 37.0477 13.2253 37.0477C13.2253 37.0477 13.3239 37.6304 13.2253 37.8613C13.1268 38.0923 12.7113 38.2525 12.7113 38.2525C12.7113 38.2525 12.8047 38.3483 12.9034 38.3711C13.0021 38.3939 13.2253 38.3711 13.2253 38.3711C13.2253 38.3711 12.9914 38.6551 12.7113 38.8238C12.4312 38.9924 11.7729 39.2457 11.7729 39.2457C11.7729 39.2457 12.2782 38.636 12.4497 38.3711C12.8883 37.6937 13.0458 37.2535 13.0458 37.1568C13.0458 36.9549 12.6033 36.618 12.4061 36.8458C12.3205 36.9447 12.2629 37.1546 12.1917 37.4137C12.0989 37.7514 11.9832 38.1729 11.7525 38.5421Z" fill="#FFC54F"/>
<path d="M22.4873 32.9219L21.2881 34.0585C21.2451 34.0993 21.1924 34.1286 21.135 34.1436L20.8495 34.2187C20.725 34.2514 20.6382 34.364 20.6382 34.4928V34.4928C20.6382 34.6493 20.5113 34.7762 20.3548 34.7762H20.3314C20.1481 34.7762 20.0057 34.9358 20.0266 35.1178L20.0467 35.294C20.0669 35.4703 19.953 35.6342 19.7807 35.6768L19.7582 35.6823C19.6006 35.7213 19.4899 35.8627 19.4899 36.025V36.138C19.4899 36.3411 19.3136 36.4993 19.1117 36.4773V36.4773C18.9385 36.4584 18.8073 36.3122 18.8073 36.138V35.744C18.8073 35.6531 18.8424 35.5657 18.9053 35.5L19.0315 35.3681C19.1577 35.2362 19.1626 35.03 19.0428 34.8923L19.0092 34.8537C18.9309 34.7638 18.9118 34.6367 18.9603 34.5277V34.5277C19.0703 34.2802 18.829 34.022 18.5746 34.1151L17.8676 34.3738C17.8288 34.388 17.7877 34.3952 17.7463 34.3952H17.5722C17.4231 34.3952 17.2901 34.4889 17.2399 34.6293L17.1017 35.0155C17.074 35.0929 17.02 35.1583 16.9492 35.2002L16.5844 35.4163C16.4771 35.4798 16.4113 35.5953 16.4113 35.7199V36.01C16.4113 36.104 16.3738 36.1941 16.3071 36.2604L15.8781 36.6865C15.7802 36.7838 15.7479 36.9292 15.7956 37.0588L16.0313 37.6997C16.0456 37.7388 16.053 37.78 16.053 37.8216V38.547C16.053 38.6048 16.0672 38.6617 16.0943 38.7128L16.5052 39.4854C16.5643 39.5964 16.6798 39.6658 16.8056 39.6658V39.6658C16.9559 39.6658 17.0883 39.7644 17.1315 39.9084L17.3308 40.5737C17.3816 40.7433 17.5501 40.849 17.7249 40.8209L18.3196 40.7254C18.3962 40.7131 18.4666 40.6759 18.5199 40.6195L18.9534 40.1616C19.0481 40.0616 19.1923 40.0258 19.3228 40.0699L19.6003 40.1638C19.7629 40.2188 19.9416 40.1487 20.0235 39.9978L20.3227 39.4467C20.3967 39.3106 20.5507 39.2386 20.7025 39.2691L20.7473 39.2781C20.8867 39.3061 21.0294 39.2478 21.1091 39.13L21.7668 38.1587C21.8258 38.0716 21.9337 38.0316 22.0352 38.0594V38.0594C22.2264 38.1117 22.2803 38.3571 22.1286 38.4847L22.0553 38.5463C21.9884 38.6026 21.9497 38.6855 21.9497 38.7729V38.9367C21.9497 39.0361 21.9078 39.1309 21.8343 39.1978L21.3197 39.6658L20.894 40.1596C20.8388 40.2237 20.8084 40.3055 20.8084 40.3901V40.6173C20.8084 40.7684 20.7123 40.9027 20.5693 40.9514L20.0274 41.136C19.9358 41.1672 19.8644 41.2401 19.8351 41.3323V41.3323C19.7591 41.571 19.9873 41.7945 20.2244 41.7135L20.3264 41.6787C20.4044 41.652 20.4706 41.599 20.5135 41.5286L20.7494 41.1424C20.7878 41.0796 20.8449 41.0303 20.9127 41.0015L21.0426 40.9464C21.1545 40.8988 21.2341 40.797 21.2532 40.677L21.2964 40.4054C21.3113 40.3117 21.3633 40.228 21.4407 40.1731L22.0236 39.7593C22.1041 39.7022 22.157 39.6139 22.1694 39.516L22.2215 39.1061C22.2357 38.9941 22.3026 38.8956 22.4016 38.8413L22.5 38.7871" stroke="#FEC346" stroke-width="0.5" stroke-linecap="round" stroke-linejoin="round"/>
</g>
<path fill-rule="evenodd" clip-rule="evenodd" d="M21.5106 25.3329L16.6939 28.9646C16.1045 29.4085 15.8569 30.1984 16.0826 30.9185L17.9217 36.7941C18.1473 37.5141 18.7941 38 19.5233 38H25.4767C26.2059 38 26.8527 37.5141 27.0783 36.7941L28.9174 30.9185C29.1431 30.1984 28.8955 29.4085 28.3061 28.9646L23.4894 25.3329C22.9 24.889 22.1 24.889 21.5106 25.3329Z" fill="#FFC54F" stroke="#CC9D3F"/>
<path fill-rule="evenodd" clip-rule="evenodd" d="M22.104 34.7003V33.7003H19.776L21.032 32.3803C21.352 32.0389 21.58 31.7296 21.716 31.4523C21.852 31.1749 21.92 30.8736 21.92 30.5483C21.92 30.0736 21.7453 29.6949 21.396 29.4123C21.0466 29.1296 20.5786 28.9883 19.992 28.9883C19.624 28.9883 19.264 29.0456 18.912 29.1603C18.56 29.2749 18.272 29.4283 18.048 29.6203L18.44 30.5083C18.6853 30.3323 18.936 30.1976 19.192 30.1043C19.448 30.0109 19.6933 29.9643 19.928 29.9643C20.44 29.9643 20.696 30.1883 20.696 30.6363C20.696 30.9883 20.4986 31.3723 20.104 31.7883L18.224 33.7803V34.7003H22.104ZM24.904 34.7723C25.5866 34.7723 26.108 34.5243 26.468 34.0283C26.828 33.5323 27.008 32.8149 27.008 31.8763C27.008 30.9483 26.8266 30.2376 26.464 29.7443C26.1013 29.2509 25.5813 29.0043 24.904 29.0043C24.2266 29.0043 23.7066 29.2509 23.344 29.7443C22.9813 30.2376 22.8 30.9483 22.8 31.8763C22.8 32.8149 22.98 33.5323 23.34 34.0283C23.7 34.5243 24.2213 34.7723 24.904 34.7723ZM24.228 33.3563C24.3693 33.6656 24.5946 33.8203 24.904 33.8203C25.2133 33.8203 25.4386 33.6656 25.58 33.3563C25.7213 33.0469 25.792 32.5536 25.792 31.8763C25.792 31.2043 25.7213 30.7163 25.58 30.4123C25.4386 30.1083 25.2133 29.9563 24.904 29.9563C24.5946 29.9563 24.3693 30.1083 24.228 30.4123C24.0866 30.7163 24.016 31.2043 24.016 31.8763C24.016 32.5536 24.0866 33.0469 24.228 33.3563Z" fill="#CC9D3F"/>
</g>
</svg>
