<svg width="48" height="48" viewBox="0 0 48 48" fill="none" xmlns="http://www.w3.org/2000/svg">
<g id="icon product/Sub-Menu/Pembayaran &#38; Topup/LinkAja">
<g id="Group 31">
<rect id="Rectangle" x="8" y="8" width="32" height="32" rx="4" fill="#E82629"/>
<mask id="mask0_0_11056" style="mask-type:alpha" maskUnits="userSpaceOnUse" x="8" y="8" width="32" height="32">
<rect id="Rectangle_2" x="8" y="8" width="32" height="32" rx="4" fill="white"/>
</mask>
<g mask="url(#mask0_0_11056)">
<g id="Group">
<path id="Fill 5" fill-rule="evenodd" clip-rule="evenodd" d="M15.2842 14.5576H16.7413C16.8529 14.5576 16.9375 14.6548 16.9222 14.7646L16.2454 19.4437C16.2193 19.6228 16.3597 19.7848 16.5415 19.7848H19.0984C19.1704 19.7848 19.2262 19.8487 19.2163 19.9198L19.0174 21.2635C19.0075 21.3337 18.9472 21.3859 18.8761 21.3859H15.9862C15.1258 21.3859 14.3014 20.683 14.4229 19.8343L15.1042 14.7151C15.1159 14.6242 15.1924 14.5576 15.2842 14.5576Z" fill="white"/>
<path id="Fill 7" fill-rule="evenodd" clip-rule="evenodd" d="M20.1436 16.4242L19.4767 21.1951C19.4659 21.2707 19.5253 21.3382 19.6009 21.3382H21.0112C21.112 21.3382 21.1966 21.2644 21.211 21.1663L21.8707 16.4719C21.8851 16.3639 21.8005 16.2676 21.6916 16.2676H20.3227C20.2327 16.2676 20.1562 16.3342 20.1436 16.4242Z" fill="white"/>
<path id="Fill 9" fill-rule="evenodd" clip-rule="evenodd" d="M23.052 20.9727C22.6173 20.9565 22.4139 21.0933 22.1565 21.2454C22.2186 20.8152 22.7046 17.4636 22.7487 17.2566C22.7955 17.0379 22.8387 16.6716 23.0322 16.4871C23.259 16.2693 23.6109 16.146 25.3587 16.1397C27.1443 16.1343 27.4899 17.4141 27.3954 18.2466C27.3144 18.9585 27.0489 20.7171 26.9742 21.2085C26.9625 21.2832 26.8986 21.3381 26.823 21.3381H25.4442C25.3425 21.3381 25.2651 21.2499 25.2795 21.15C25.3497 20.6586 25.536 19.3482 25.5999 18.9675C25.6782 18.4968 25.7412 17.9793 25.6152 17.775C25.4892 17.5716 25.1112 17.4141 24.3867 17.5401L23.8512 21.3156C23.8512 21.3156 23.5065 20.9898 23.052 20.9727Z" fill="white"/>
<path id="Fill 11" fill-rule="evenodd" clip-rule="evenodd" d="M28.8906 14.2861H30.4206C30.4773 14.2861 30.5214 14.3365 30.5133 14.3923L29.5611 21.2638C29.5539 21.3151 29.5107 21.3529 29.4585 21.3529H27.9492C27.8862 21.3529 27.8376 21.2971 27.8466 21.2359L28.7979 14.3671C28.8042 14.3203 28.8438 14.2861 28.8906 14.2861Z" fill="white"/>
<path id="Fill 13" fill-rule="evenodd" clip-rule="evenodd" d="M30.074 18.4253L31.8029 16.4084C31.8569 16.3445 31.937 16.3076 32.0207 16.3076H33.5381C33.6479 16.3076 33.7055 16.4372 33.6326 16.5182L31.865 18.473L33.4805 21.9353C33.5399 22.0631 33.4463 22.208 33.3059 22.208H31.9343C31.8632 22.208 31.7984 22.1666 31.7678 22.1018L30.074 18.4253Z" fill="white"/>
<path id="Fill 15" fill-rule="evenodd" clip-rule="evenodd" d="M22.167 14.9756C22.0428 15.4958 21.573 15.8828 21.0816 15.8828C20.5902 15.8828 20.2131 15.4607 20.3364 14.9414C20.4606 14.4221 20.8674 14 21.4506 14C21.942 14 22.2903 14.4563 22.167 14.9756Z" fill="white"/>
<path id="Fill 17" fill-rule="evenodd" clip-rule="evenodd" d="M23.7212 22.5547C23.5979 23.074 23.1281 23.4619 22.6358 23.4619C22.1444 23.4619 21.7673 23.0398 21.8906 22.5205C22.0148 22.0003 22.4216 21.5791 23.0057 21.5791C23.4971 21.5791 23.8454 22.0345 23.7212 22.5547Z" fill="white"/>
<path id="Fill 19" fill-rule="evenodd" clip-rule="evenodd" d="M31.1199 28.7675C31.0155 29.2805 30.5412 29.663 30.0237 29.663C29.5071 29.6621 29.0895 29.2454 29.1939 28.7324C29.2983 28.2185 29.7051 27.8027 30.3189 27.8027C30.8355 27.8027 31.2243 28.2536 31.1199 28.7675Z" fill="white"/>
<path id="Fill 21" fill-rule="evenodd" clip-rule="evenodd" d="M20.3445 28.768L19.3113 22.6039C19.2654 22.3348 19.0323 22.1377 18.7578 22.1377H17.7201C17.4042 22.1377 17.118 22.3213 16.9866 22.6075L14.2029 28.7761C14.1624 28.8643 14.229 28.966 14.3271 28.966L15.7734 28.957C15.8724 28.957 15.9615 28.8976 16.0002 28.8067L16.4808 27.6799C16.4934 27.6493 16.524 27.6286 16.5573 27.6286H18.3078C18.351 27.6286 18.387 27.6619 18.3915 27.7033L18.495 28.7707C18.5076 28.8949 18.612 28.9894 18.7371 28.9894H20.1564C20.2743 28.9894 20.3634 28.8841 20.3445 28.768ZM18.1008 26.2075H17.1756C17.1405 26.2075 17.1171 26.1733 17.1297 26.1418L17.9352 24.1024C17.9505 24.0637 18.0081 24.0727 18.0117 24.1141L18.1935 26.1076C18.198 26.1616 18.1557 26.2075 18.1008 26.2075Z" fill="white"/>
<path id="Fill 23" fill-rule="evenodd" clip-rule="evenodd" d="M19.6546 29.8848L19.9885 30.9135C20.0479 31.0827 20.0938 31.1205 20.2108 31.0953C20.6329 31.0071 21.6526 30.7065 22.1512 30.0342C22.8019 29.1567 22.891 27.6078 23.0062 26.8203C23.1007 26.1705 23.3077 24.5739 23.377 24.0303C23.3896 23.9331 23.3131 23.8467 23.215 23.8467H21.9181C21.8038 23.8467 21.7066 23.9313 21.6913 24.0447C21.586 24.8106 21.2107 27.5682 21.1441 27.9507C21.0676 28.3953 21.0523 29.0361 20.3926 29.4177C20.0632 29.6085 19.894 29.6445 19.7635 29.7057C19.6969 29.7372 19.6222 29.7696 19.6546 29.8848Z" fill="white"/>
<path id="Fill 25" fill-rule="evenodd" clip-rule="evenodd" d="M28.6621 24.0306C28.2247 23.9217 27.4894 23.6814 26.3077 23.7687C25.2178 23.8479 23.9866 24.3501 23.7562 26.4948C23.5258 28.6404 24.5095 29.0535 25.9243 29.1147C26.9602 29.1597 27.7738 28.8762 28.1347 28.7205C28.2598 28.6665 28.3471 28.5504 28.366 28.4163L28.8879 24.2862C28.9086 24.1233 28.8268 24.0711 28.6621 24.0306ZM26.7901 27.51C26.7901 27.51 26.1133 27.7395 25.7893 27.4965C25.4644 27.2535 25.4374 26.7549 25.6264 26.0412C25.8163 25.3266 26.2897 25.206 26.4922 25.1925C26.6947 25.1781 27.0763 25.2744 27.0763 25.2744L26.7901 27.51Z" fill="white"/>
<path id="Fill 27" fill-rule="evenodd" clip-rule="evenodd" d="M29.6706 27.1183L30.0504 23.1637C30.0648 23.0224 30.1836 22.9648 30.3267 22.9648H31.6398C31.7613 22.9648 31.8135 23.0566 31.7793 23.2087L30.9783 27.1687C30.9621 27.2452 30.8946 27.2992 30.8154 27.2992H29.8362C29.7381 27.2992 29.6607 27.2155 29.6706 27.1183Z" fill="white"/>
<path id="Fill 29" fill-rule="evenodd" clip-rule="evenodd" d="M14.3104 34.4096C14.5705 34.5527 14.8738 34.5941 15.1627 34.5266C16.3138 34.2539 18.8617 33.5231 24.25 32.7464C31.0198 31.7708 36.0184 31.7753 36.0184 31.7753L36.0319 31.7672C36.0319 31.7672 31.6012 31.1606 24.3301 31.8689C17.059 32.5763 13 33.6878 13 33.6878L14.3104 34.4096Z" fill="white"/>
</g>
</g>
</g>
</g>
</svg>
