<svg width="48" height="48" viewBox="0 0 48 48" fill="none" xmlns="http://www.w3.org/2000/svg">
<g id="icon product/Sub-Menu/Pembiayaan/Wisata Religi">
<g id="Group 91">
<path id="Vector 49" d="M14.3325 25.8856C14.5092 26.9454 15.7308 28.5351 16.3196 29.1974L32.713 15.2326C33.2834 13.0983 34.3689 8.65317 34.1481 7.94667C33.8722 7.06354 32.6578 5.57321 30.5603 7.94667C28.8824 9.84544 25.014 13.9631 23.8549 15.2326C25.5108 12.0312 23.3113 8.79902 22.1012 10.0904C20.9421 12.3535 17.3742 17.4066 16.6014 19.2281C15.9832 20.6853 15.878 22.805 14.3325 25.8856Z" fill="#E79E5C"/>
<path id="Rectangle 15" d="M13.2868 25.667C13.7703 25.3063 14.4665 25.4888 14.7227 26.0349C15.3408 27.3521 16.4556 29.5856 17.5355 31.025C18.5898 32.4302 20.3696 34.0897 21.4396 35.0405C21.8908 35.4414 21.868 36.1615 21.3842 36.5224L18.019 39.0331C17.3393 39.5402 16.4041 39.5258 15.7596 38.9745C14.5343 37.9265 12.5926 36.1715 11.5374 34.728C10.5904 33.4325 9.7518 31.5536 9.25187 30.3145C8.94763 29.5604 9.20982 28.7087 9.86157 28.2225L13.2868 25.667Z" fill="#00883E"/>
<path id="Vector 8 (Stroke)" d="M24.5421 11.4279C25.5258 11.1175 26.5749 11.6633 26.8853 12.647C26.936 12.8075 26.9856 12.9683 27.0341 13.1292C27.332 14.1167 26.7729 15.1588 25.7854 15.4567C24.7978 15.7546 23.7557 15.1955 23.4578 14.2079C23.4138 14.0621 23.3689 13.9165 23.3231 13.7712C23.0126 12.7875 23.5584 11.7383 24.5421 11.4279Z" fill="#004D43"/>
<path id="Vector 8 (Stroke)_2" d="M24.1787 11.4279C25.0665 11.1175 26.0133 11.6633 26.2934 12.647C26.3392 12.8075 26.3839 12.9683 26.4277 13.1292C26.6966 14.1167 26.192 15.1588 25.3008 15.4567C24.4095 15.7546 23.4691 15.1955 23.2002 14.2079C23.1605 14.0621 23.12 13.9165 23.0786 13.7712C22.7984 12.7875 23.291 11.7383 24.1787 11.4279Z" fill="#407972"/>
<path id="Vector 44" d="M16.5379 24.8158C15.5826 27.0448 13.6524 28.2722 12.8563 28.8029C14.1082 32.3056 18.1544 36.3656 20.021 37.9577C21.9418 36.1648 23.2053 34.7292 24.0013 34.3754C29.0794 32.1185 31.9621 30.395 33.5542 28.8029C34.5294 27.8277 36.8315 24.7405 38.1781 22.3094C39.0301 20.7713 39.1321 20.4999 39.5248 18.852C39.9174 17.204 39.3921 16.1984 38.7287 16.0657L39.5248 14.0755C40.1616 12.4834 38.994 11.5546 38.3306 11.2893C39.1804 9.64748 39.1326 8.38278 38.1781 7.95326C37.5288 7.66107 36.0751 8.37035 35.5444 8.90107C35.9424 8.10498 35.5444 7.3089 35.1464 6.91087C34.7483 6.51283 33.9522 6.51283 33.1562 7.3089C28.9679 11.4972 24.4797 18.5495 23.0202 20.0089C23.0202 19.4751 24.2834 16.0657 24.1569 14.4671C24.0621 13.2691 23.0507 12.2189 22.0648 12.1828C21.0788 12.1467 20.9042 15.6011 19.2249 18.4539C17.5456 21.3067 17.732 22.0295 16.5379 24.8158Z" fill="#F2CBA8"/>
<g id="Group 92">
<path id="Rectangle 15_2" d="M12.5273 27.9351C12.9847 27.5417 13.6918 27.6756 13.9853 28.2026C14.6932 29.4737 15.9602 31.6246 17.1373 32.9856C18.2865 34.3144 20.177 35.8465 21.3103 36.7208C21.7883 37.0895 21.8155 37.8094 21.3579 38.203L18.1748 40.941C17.5319 41.494 16.5979 41.5444 15.9168 41.0392C14.6217 40.0786 12.5631 38.4625 11.4103 37.0956C10.3757 35.8689 9.40892 34.0526 8.82429 32.8511C8.4685 32.12 8.67102 31.2522 9.28748 30.7219L12.5273 27.9351Z" fill="#00AB4E"/>
<path id="Subtract" d="M9.92273 34.5684C10.4041 35.4012 10.9586 36.2583 11.5314 36.9371C12.6818 38.3005 14.7237 39.9208 16.0124 40.8881C16.6941 41.3999 17.6337 41.352 18.28 40.7961L21.3285 38.1739C21.7844 37.7818 21.7594 37.0653 21.285 36.6956C20.6257 36.1818 19.707 35.441 18.8276 34.6483C18.9048 34.9681 18.8089 35.3165 18.5534 35.5529L16.1805 37.7485C15.5422 38.3391 14.5822 38.4112 13.8818 37.8958C12.7608 37.0709 11.0937 35.7766 9.92273 34.5684Z" fill="#00883E"/>
<circle id="Ellipse 9" cx="16.7528" cy="37.2505" r="1.03561" transform="rotate(8.17469 16.7528 37.2505)" fill="#FFC54F"/>
</g>
<path id="Vector 45" d="M38.2867 11.3408C37.7011 12.749 36.2025 16.0622 34.8928 18.0498C33.5832 20.0373 32.2928 21.6256 31.8113 22.1713" stroke="#E79E5C" stroke-width="0.933866" stroke-linecap="round"/>
<path id="Vector 46" d="M35.4917 9.06152C35.4917 9.06152 34.1363 11.9854 32.2757 14.8091C30.9302 16.8511 29.0162 19.892 29.0162 19.892" stroke="#E79E5C" stroke-width="0.933866" stroke-linecap="round"/>
<path id="Vector 47" d="M38.7287 16.0654C37.0292 20.0588 36.9646 20.856 33.9523 24.0262" stroke="#E79E5C" stroke-width="0.933866" stroke-linecap="round"/>
<path id="Vector 8 (Stroke)_3" fill-rule="evenodd" clip-rule="evenodd" d="M26.0292 15.9648C27.0453 15.787 28.0131 16.4666 28.1909 17.4827C28.2488 17.8137 28.3027 18.1442 28.3526 18.4738C28.5071 19.4937 27.8055 20.4457 26.7856 20.6002C25.7657 20.7547 24.8137 20.0531 24.6593 19.0333C24.6136 18.7316 24.5643 18.4292 24.5113 18.1265C24.3335 17.1104 25.0131 16.1426 26.0292 15.9648ZM26.887 21.6706C27.9179 21.6338 28.7834 22.4396 28.8203 23.4705C28.8323 23.8082 28.8403 24.1436 28.8442 24.4763C28.8564 25.5077 28.0302 26.3538 26.9987 26.366C25.9673 26.3782 25.1212 25.5519 25.109 24.5205C25.1054 24.2177 25.0982 23.912 25.0872 23.6039C25.0503 22.573 25.8562 21.7075 26.887 21.6706ZM26.9532 27.4413C27.9768 27.5693 28.7028 28.5028 28.5748 29.5263C28.5319 29.8702 28.4839 30.2084 28.431 30.5406C28.2689 31.5592 27.3116 32.2536 26.2929 32.0915C25.2742 31.9293 24.5799 30.972 24.742 29.9533C24.7881 29.6636 24.8303 29.3667 24.8682 29.063C24.9962 28.0394 25.9297 27.3134 26.9532 27.4413ZM26.0703 33.1596C27.0124 33.5798 27.4354 34.6842 27.0152 35.6262C26.9377 35.8001 26.8572 35.9705 26.7739 36.1368C26.3117 37.059 25.1894 37.4319 24.2673 36.9697C23.3451 36.5075 22.9722 35.3853 23.4343 34.4631C23.4914 34.3493 23.5479 34.2298 23.6038 34.1045C24.024 33.1625 25.1283 32.7394 26.0703 33.1596Z" fill="#004D43"/>
<path id="Vector 8 (Stroke)_4" fill-rule="evenodd" clip-rule="evenodd" d="M25.4902 16.0279C26.3961 15.8521 27.2589 16.5243 27.4174 17.5293C27.469 17.8567 27.5171 18.1836 27.5616 18.5097C27.6993 19.5184 27.0739 20.46 26.1646 20.6128C25.2554 20.7656 24.4066 20.0717 24.2689 19.063C24.2282 18.7645 24.1842 18.4655 24.137 18.166C23.9785 17.161 24.5844 16.2038 25.4902 16.0279ZM26.255 21.6716C27.174 21.6351 27.9457 22.4322 27.9785 23.4518C27.9893 23.7858 27.9964 24.1176 27.9999 24.4466C28.0108 25.4668 27.2741 26.3036 26.3546 26.3157C25.435 26.3278 24.6808 25.5105 24.6699 24.4903C24.6667 24.1908 24.6602 23.8885 24.6504 23.5837C24.6176 22.5641 25.336 21.708 26.255 21.6716ZM26.314 27.3793C27.2265 27.5059 27.8738 28.4292 27.7597 29.4416C27.7214 29.7817 27.6786 30.1163 27.6315 30.4448C27.4869 31.4523 26.6335 32.1391 25.7253 31.9788C24.8171 31.8184 24.1981 30.8715 24.3427 29.864C24.3838 29.5774 24.4214 29.2837 24.4552 28.9833C24.5693 27.9709 25.4015 27.2528 26.314 27.3793ZM25.5269 33.0353C26.3668 33.4509 26.7439 34.5432 26.3693 35.4749C26.3001 35.647 26.2284 35.8154 26.1541 35.98C25.7421 36.8921 24.7416 37.2609 23.9194 36.8038C23.0973 36.3466 22.7648 35.2366 23.1769 34.3245C23.2277 34.212 23.2781 34.0938 23.3279 33.9699C23.7025 33.0381 24.687 32.6197 25.5269 33.0353Z" fill="#407972"/>
</g>
</g>
</svg>
