<svg width="48" height="48" viewBox="0 0 48 48" fill="none" xmlns="http://www.w3.org/2000/svg">
<g id="icon product/Sub-Menu/Gadai/Titipan Emas">
<g id="Group">
<g id="Group 4">
<g id="Group 6">
<rect id="Rectangle" x="8" y="8" width="32" height="32" rx="4" fill="#1868AB"/>
<rect id="Rectangle_2" x="11" y="11" width="26" height="26" rx="3" fill="#5297D1"/>
<mask id="mask0_0_6881" style="mask-type:alpha" maskUnits="userSpaceOnUse" x="11" y="11" width="26" height="26">
<rect id="Rectangle_3" x="11" y="11" width="26" height="26" rx="3" fill="white"/>
</mask>
<g mask="url(#mask0_0_6881)">
</g>
</g>
</g>
</g>
<g id="Group 3">
<rect id="Rectangle_4" x="39" y="15" width="4" height="5" rx="1" transform="rotate(90 39 15)" fill="#0B4270"/>
<mask id="mask1_0_6881" style="mask-type:alpha" maskUnits="userSpaceOnUse" x="34" y="15" width="5" height="4">
<rect id="Rectangle_5" x="39" y="15" width="4" height="5" rx="1" transform="rotate(90 39 15)" fill="white"/>
</mask>
<g mask="url(#mask1_0_6881)">
<rect id="Rectangle_6" x="38" y="15" width="4" height="4" rx="1" transform="rotate(90 38 15)" fill="#0F5895"/>
</g>
</g>
<g id="Group 2">
<rect id="Rectangle Copy" x="39" y="29" width="4" height="5" rx="1" transform="rotate(90 39 29)" fill="#0B4270"/>
<mask id="mask2_0_6881" style="mask-type:alpha" maskUnits="userSpaceOnUse" x="34" y="29" width="5" height="4">
<rect id="Rectangle Copy_2" x="39" y="29" width="4" height="5" rx="1" transform="rotate(90 39 29)" fill="white"/>
</mask>
<g mask="url(#mask2_0_6881)">
<rect id="Rectangle Copy_3" x="38" y="29" width="4" height="4" rx="1" transform="rotate(90 38 29)" fill="#0F5895"/>
</g>
</g>
<path id="Stroke 11" fill-rule="evenodd" clip-rule="evenodd" d="M30 24C30 27.3144 27.3132 30 24 30C20.6868 30 18 27.3144 18 24C18 20.6856 20.6868 18 24 18C27.3132 18 30 20.6856 30 24Z" fill="#CC9D3F"/>
<rect id="Rectangle_7" x="17" y="22.5" width="14" height="3" rx="1.5" fill="#FFC54F"/>
<rect id="Rectangle_8" x="25.5" y="17" width="14" height="3" rx="1.5" transform="rotate(90 25.5 17)" fill="#FFC54F"/>
<path id="Stroke 11_2" fill-rule="evenodd" clip-rule="evenodd" d="M28.5 24C28.5 26.4858 26.4849 28.5 24 28.5C21.5151 28.5 19.5 26.4858 19.5 24C19.5 21.5142 21.5151 19.5 24 19.5C26.4849 19.5 28.5 21.5142 28.5 24Z" fill="#FFC54F"/>
<path id="Stroke 11_3" fill-rule="evenodd" clip-rule="evenodd" d="M26 24C26 25.1048 25.1044 26 24 26C22.8956 26 22 25.1048 22 24C22 22.8952 22.8956 22 24 22C25.1044 22 26 22.8952 26 24Z" fill="white"/>
</g>
</svg>
