<svg width="24" height="24" viewBox="0 0 24 24" fill="none" xmlns="http://www.w3.org/2000/svg">
<g id="icon system/G/G-Point/Flat">
<path id="Combined Shape" fill-rule="evenodd" clip-rule="evenodd" d="M12 22C17.5228 22 22 17.5228 22 12C22 6.47715 17.5228 2 12 2C6.47715 2 2 6.47715 2 12C2 17.5228 6.47715 22 12 22ZM11.5225 6.88003C11.6409 6.6368 11.9418 6.53207 12.1944 6.64613C12.3013 6.69438 12.3873 6.77714 12.4374 6.88003L13.7798 9.63622L16.9857 10.0219C17.2448 10.0531 17.4287 10.2806 17.3963 10.5301C17.3838 10.6261 17.34 10.7155 17.2716 10.7856L17.2503 10.806L14.8921 12.9322L15.4888 15.9217C15.5415 16.1855 15.362 16.4405 15.088 16.4912C14.9721 16.5126 14.852 16.4943 14.7486 16.4394L11.9799 14.9693L9.21121 16.4394C8.96687 16.5692 8.65955 16.4836 8.52479 16.2484C8.46778 16.1489 8.44876 16.0333 8.47104 15.9217L9.06773 12.9322L6.75988 10.8514C6.55621 10.6677 6.54573 10.3599 6.73647 10.1638C6.81716 10.0809 6.92547 10.0277 7.04261 10.0136L10.1801 9.63622L11.5225 6.88003Z" fill="#444444"/>
<mask id="mask0_0_5501" style="mask-type:alpha" maskUnits="userSpaceOnUse" x="2" y="2" width="20" height="20">
<path id="Combined Shape_2" fill-rule="evenodd" clip-rule="evenodd" d="M12 22C17.5228 22 22 17.5228 22 12C22 6.47715 17.5228 2 12 2C6.47715 2 2 6.47715 2 12C2 17.5228 6.47715 22 12 22ZM11.5225 6.88003C11.6409 6.6368 11.9418 6.53207 12.1944 6.64613C12.3013 6.69438 12.3873 6.77714 12.4374 6.88003L13.7798 9.63622L16.9857 10.0219C17.2448 10.0531 17.4287 10.2806 17.3963 10.5301C17.3838 10.6261 17.34 10.7155 17.2716 10.7856L17.2503 10.806L14.8921 12.9322L15.4888 15.9217C15.5415 16.1855 15.362 16.4405 15.088 16.4912C14.9721 16.5126 14.852 16.4943 14.7486 16.4394L11.9799 14.9693L9.21121 16.4394C8.96687 16.5692 8.65955 16.4836 8.52479 16.2484C8.46778 16.1489 8.44876 16.0333 8.47104 15.9217L9.06773 12.9322L6.75988 10.8514C6.55621 10.6677 6.54573 10.3599 6.73647 10.1638C6.81716 10.0809 6.92547 10.0277 7.04261 10.0136L10.1801 9.63622L11.5225 6.88003Z" fill="white"/>
</mask>
<g mask="url(#mask0_0_5501)">
<g id="Color/1. Shades/2. Secondary">
<rect id="color" width="24" height="24" fill="#58585B"/>
</g>
</g>
</g>
</svg>
