<svg width="48" height="48" viewBox="0 0 48 48" fill="none" xmlns="http://www.w3.org/2000/svg">
<g id="icon product/Sub-Menu/Pembayaran &#38; Topup/Asuransi">
<g id="Group">
<path id="Rectangle" fill-rule="evenodd" clip-rule="evenodd" d="M8 12.386C8 11.5523 8.51715 10.8061 9.29775 10.5133L23.2978 5.26334C23.7505 5.09355 24.2495 5.09355 24.7022 5.26334L38.7022 10.5133C39.4829 10.8061 40 11.5523 40 12.386V26C40 26 39.279 32.4536 35 37C31.3991 40.826 26.0687 42.4617 24.4698 42.884C24.1617 42.9654 23.8442 42.9584 23.5385 42.8683C21.7203 42.3325 15.0047 40.1925 12 37C8.50721 33.2889 8 26 8 26V12.386Z" fill="#00883E"/>
<path id="Rectangle_2" fill-rule="evenodd" clip-rule="evenodd" d="M11 14.8568C11 14.1843 11.4204 13.5836 12.0522 13.3534L23.4522 9.19959C23.806 9.07068 24.194 9.07068 24.5478 9.19959L35.9478 13.3534C36.5796 13.5836 37 14.1843 37 14.8568V25.5789C37 25.5789 36.4142 30.6739 32.9375 34.2632C30 37.2959 25.6459 38.5854 24.3662 38.9124C24.1259 38.9738 23.8788 38.9685 23.6404 38.9004C22.1859 38.4848 16.6999 36.7924 14.25 34.2632C11.4121 31.3334 11 25.5789 11 25.5789V14.8568Z" fill="#00AB4E"/>
<g id="Group 2">
<path id="Fill 7" fill-rule="evenodd" clip-rule="evenodd" d="M21.2122 29.471L17.0832 25.952C16.2422 25.235 16.1412 23.972 16.8582 23.133C17.5742 22.29 18.8362 22.191 19.6772 22.907L22.3842 25.214L28.6552 18.788C29.4262 17.996 30.6932 17.983 31.4842 18.753C32.2742 19.524 32.2892 20.791 31.5182 21.581L23.9412 29.345C23.5512 29.746 23.0302 29.949 22.5092 29.949C22.0492 29.949 21.5882 29.791 21.2122 29.471Z" fill="#98AC26"/>
<mask id="mask0_0_11119" style="mask-type:alpha" maskUnits="userSpaceOnUse" x="16" y="18" width="17" height="12">
<path id="Fill 7_2" fill-rule="evenodd" clip-rule="evenodd" d="M21.2122 29.471L17.0832 25.952C16.2422 25.235 16.1412 23.972 16.8582 23.133C17.5742 22.29 18.8362 22.191 19.6772 22.907L22.3842 25.214L28.6552 18.788C29.4262 17.996 30.6932 17.983 31.4842 18.753C32.2742 19.524 32.2892 20.791 31.5182 21.581L23.9412 29.345C23.5512 29.746 23.0302 29.949 22.5092 29.949C22.0492 29.949 21.5882 29.791 21.2122 29.471Z" fill="white"/>
</mask>
<g mask="url(#mask0_0_11119)">
<path id="Fill 7_3" fill-rule="evenodd" clip-rule="evenodd" d="M21.2122 28.471L17.0832 24.952C16.2422 24.235 16.1412 22.972 16.8582 22.133C17.5742 21.29 18.8362 21.191 19.6772 21.907L22.3842 24.214L28.6552 17.788C29.4262 16.996 30.6932 16.983 31.4842 17.753C32.2742 18.524 32.2892 19.791 31.5182 20.581L23.9412 28.345C23.5512 28.746 23.0302 28.949 22.5092 28.949C22.0492 28.949 21.5882 28.791 21.2122 28.471Z" fill="#BFD730"/>
</g>
</g>
</g>
</g>
</svg>
