<svg width="24" height="24" viewBox="0 0 24 24" fill="none" xmlns="http://www.w3.org/2000/svg">
<circle cx="12" cy="12" r="12" fill="#E6F6EA"/>
<path fill-rule="evenodd" clip-rule="evenodd" d="M10.4714 13.5286L16.6667 7.33331L17.6095 8.27612L10.4714 15.4142L6.66667 11.6095L7.60948 10.6666L10.4714 13.5286Z" fill="#00AB4E"/>
<path fill-rule="evenodd" clip-rule="evenodd" d="M17.6146 6.74177L17.522 6.65132C17.0127 6.19905 16.2616 6.2292 15.7845 6.74177L10.4335 12.4902L8.2155 10.1075C7.70854 9.56286 6.89237 9.56286 6.3854 10.1075C5.87153 10.6595 5.87153 11.5595 6.3854 12.1116L9.17032 15.1033C9.86954 15.8544 10.9974 15.8544 11.6966 15.1033L17.6146 8.74586C18.0964 8.22833 18.1265 7.40495 17.7049 6.84918L17.6146 6.74177Z" fill="#009E3D"/>
<mask id="mask0_1273_25805" style="mask-type:alpha" maskUnits="userSpaceOnUse" x="6" y="6" width="12" height="10">
<path fill-rule="evenodd" clip-rule="evenodd" d="M17.6146 6.74177L17.522 6.65132C17.0127 6.19905 16.2616 6.2292 15.7845 6.74177L10.4335 12.4902L8.2155 10.1075C7.70854 9.56286 6.89237 9.56286 6.3854 10.1075C5.87153 10.6595 5.87153 11.5595 6.3854 12.1116L9.17032 15.1033C9.86954 15.8544 10.9974 15.8544 11.6966 15.1033L17.6146 8.74586C18.0964 8.22833 18.1265 7.40495 17.7049 6.84918L17.6146 6.74177Z" fill="white"/>
</mask>
<g mask="url(#mask0_1273_25805)">
<rect x="4" y="3" width="16" height="16" fill="#00AB4E"/>
</g>
</svg>
