<svg width="48" height="48" viewBox="0 0 48 48" fill="none" xmlns="http://www.w3.org/2000/svg">
<path fill-rule="evenodd" clip-rule="evenodd" d="M41.9682 38.4772C42.5322 38.3931 42.6633 38.3592 42.7777 38.2458C42.8921 38.1323 42.9623 37.9685 42.9623 37.4916C42.9623 26.0419 42.9623 18.3284 42.9623 15.0576C42.9623 15.0216 42.9623 14.98 42.9623 14.9355C42.9623 14.617 42.704 14.3587 42.3855 14.3587C30.4133 17.1177 20.8973 10.9433 8.92509 13.7023C8.39908 13.867 8.28864 13.98 8.19023 14.0858C8.09183 14.1915 8.00023 14.461 8.00024 14.6962C8.00094 23.7299 8.00099 31.2898 7.99998 37.3485C7.99995 37.5756 8.15099 37.7963 8.37327 37.7496C8.40017 37.744 8.42748 37.7364 8.4548 37.7264C20.427 34.9661 27.5988 40.6219 41.9682 38.4772Z" fill="#00883E"/>
<path fill-rule="evenodd" clip-rule="evenodd" d="M38.9682 34.4968C39.5322 34.4159 39.6633 34.3834 39.7777 34.2744C39.8921 34.1655 39.9623 34.0081 39.9623 33.5501C39.9623 22.5519 39.9623 15.1426 39.9623 12.0008C39.9623 11.9725 39.9623 11.9405 39.9623 11.9063C39.9623 11.5878 39.704 11.3295 39.3855 11.3295C27.4133 13.9797 17.8973 8.0488 5.92509 10.699C5.39908 10.8572 5.28864 10.9658 5.19023 11.0674C5.09183 11.1689 5.00023 11.4278 5.00024 11.6537C5.00094 20.3311 5.00099 27.5928 4.99998 33.4125C4.99995 33.6302 5.14472 33.8387 5.35897 33.8006C5.39047 33.795 5.42262 33.7868 5.4548 33.7755C17.427 31.1241 24.5988 36.5568 38.9682 34.4968Z" fill="#00AB4E"/>
<path fill-rule="evenodd" clip-rule="evenodd" d="M22.481 28.9658C26.0241 28.9658 28.8964 26.0948 28.8964 22.5528C28.8964 19.0109 26.0241 16.1387 22.481 16.1387C18.9391 16.1387 16.068 19.0109 16.068 22.5528C16.068 26.0948 18.9391 28.9658 22.481 28.9658Z" fill="white"/>
<path d="M12.8503 14.2451H8.33122" stroke="white" stroke-width="2.37474" stroke-linecap="round"/>
<path d="M36.7554 31.3251H32.2362" stroke="white" stroke-width="2.37474" stroke-linecap="round"/>
</svg>
