<svg width="48" height="48" viewBox="0 0 48 48" fill="none" xmlns="http://www.w3.org/2000/svg">
<path d="M16.8421 13.3684C16.8421 12.2057 17.7847 11.2632 18.9474 11.2632H29.0527C30.2154 11.2632 31.1579 12.2057 31.1579 13.3684V16.8659H16.8421V13.3684Z" fill="#0F5895" stroke="#0F5895" stroke-width="2.52632" stroke-linejoin="round"/>
<path d="M18.1053 13.4918C18.1053 12.5617 18.8593 11.8076 19.7895 11.8076H28.2106C29.1407 11.8076 29.8948 12.5617 29.8948 13.4918V19.0335H18.1053V13.4918Z" fill="white"/>
<rect x="9.6842" y="13.6123" width="30.3158" height="24.3872" rx="3.36842" fill="#1868AB"/>
<rect x="8" y="13.6123" width="29.4737" height="24.3872" rx="3.36842" fill="#5297D1"/>
<path d="M10.5264 16.9807C10.5264 15.1204 12.0345 13.6123 13.8948 13.6123H36.6316C38.492 13.6123 40.0001 15.1204 40.0001 16.9807V22.6446H13.8948C12.0345 22.6446 10.5264 21.1365 10.5264 19.2762V16.9807Z" fill="#0F5895"/>
<path d="M8 16.9807C8 15.1204 9.50809 13.6123 11.3684 13.6123H34.1053C35.9656 13.6123 37.4737 15.1204 37.4737 16.9807V21.9859C37.4737 23.8462 35.9656 25.3543 34.1053 25.3543H11.3684C9.50809 25.3543 8 23.8462 8 21.9859V16.9807Z" fill="#1868AB"/>
<rect x="28.2105" y="22.6445" width="3.36842" height="5.41939" rx="0.842105" fill="#CC9D3F"/>
<rect x="27.3684" y="22.6445" width="3.36842" height="5.41939" rx="0.842105" fill="#FFC54F"/>
<rect x="14.7368" y="22.6445" width="4.21053" height="5.41939" rx="0.842105" fill="#CC9D3F"/>
<rect x="14.7368" y="22.6445" width="3.36842" height="5.41939" rx="0.842105" fill="#FFC54F"/>
<path d="M42 33C42 36.866 38.866 40 35 40C31.134 40 28 36.866 28 33C28 29.134 31.134 26 35 26C38.866 26 42 29.134 42 33Z" fill="#00AB4E"/>
<path d="M39.4338 37.7057H36.6059C36.4632 37.7057 36.347 37.5895 36.347 37.4469V36.912L35.0797 35.6446C35.0072 35.6828 34.9258 35.7065 34.8381 35.7065C34.757 35.7065 34.6811 35.6863 34.6126 35.6532L33.6485 36.6173V36.6175C33.6514 36.6499 33.6529 36.6822 33.6529 36.716V37.4469C33.6529 37.5895 33.5382 37.7057 33.3956 37.7057H30.5676C30.425 37.7057 30.3088 37.5895 30.3088 37.4469V36.7175C30.3088 36.1822 30.7456 35.7469 31.2809 35.7469H31.4735C31.4779 35.7469 31.4809 35.7469 31.4853 35.7483C31.5147 35.719 31.5088 35.6264 31.5 35.5572C31.2059 35.4101 30.9882 35.1337 30.9191 34.8042C30.919 34.8038 30.919 34.8034 30.9189 34.8029C30.7507 34.7344 30.6318 34.57 30.6318 34.3769C30.6318 34.2379 30.6948 34.114 30.7926 34.0295V33.4837C30.7926 33.0102 31.3941 32.7969 31.9897 32.7969C32.5867 32.7969 33.1882 33.0102 33.1882 33.4837V34.0307C33.1964 34.0379 33.2052 34.044 33.213 34.0518C33.3005 34.1378 33.3486 34.2544 33.3486 34.3769C33.3486 34.571 33.2285 34.7359 33.0589 34.8039C33.0588 34.804 33.0588 34.8041 33.0588 34.8042C32.9912 35.1337 32.7735 35.4101 32.4794 35.5572C32.4706 35.6264 32.4661 35.716 32.4926 35.7469H32.6838C33.0676 35.7469 33.4 35.9704 33.5544 36.2954C33.5544 36.2954 33.5544 36.2954 33.5544 36.2955L34.3942 35.4557C34.3457 35.3765 34.3163 35.2843 34.3163 35.1846C34.3163 34.9449 34.4789 34.7451 34.6991 34.684V33.2018C34.6991 33.2016 34.6992 33.2015 34.6992 33.2013H33.4323C33.2897 33.2013 33.1735 33.0866 33.1735 32.944V32.2131C33.1735 31.6778 33.6103 31.2425 34.1456 31.2425H34.3382C34.3426 31.2425 34.3456 31.2425 34.35 31.244C34.3794 31.2146 34.3735 31.1219 34.3647 31.0528H34.3632C34.0706 30.9042 33.8529 30.6307 33.7838 30.2998V30.2993C33.6154 30.2308 33.4964 30.0664 33.4964 29.8732C33.4964 29.7341 33.5595 29.6102 33.6573 29.5256V28.9807C33.6573 28.5072 34.2588 28.2939 34.8544 28.2939C35.4514 28.2939 36.0529 28.5072 36.0529 28.9807V29.5271C36.0611 29.5343 36.0698 29.5404 36.0776 29.548C36.1651 29.6341 36.2132 29.7507 36.2132 29.8732C36.2132 30.0667 36.0938 30.2313 35.925 30.2996C35.925 30.2997 35.925 30.2998 35.925 30.2998C35.8559 30.6307 35.6382 30.9042 35.3456 31.0528H35.3441C35.3353 31.1219 35.3294 31.2131 35.3573 31.2425H35.5485C36.0823 31.2425 36.5176 31.6778 36.5176 32.2131V32.944C36.5176 33.0866 36.4014 33.2013 36.2603 33.2013H35.0018C35.0018 33.2015 35.0019 33.2016 35.0019 33.2018V34.6916C35.2094 34.7605 35.36 34.954 35.36 35.1846C35.36 35.2778 35.3335 35.364 35.2908 35.4397L36.3675 36.5165C36.3676 36.5164 36.3676 36.5162 36.3676 36.516C36.4603 36.0778 36.8514 35.7469 37.3191 35.7469H37.5103C37.5147 35.7469 37.5191 35.7469 37.5235 35.7483C37.5529 35.719 37.547 35.6264 37.5382 35.5572C37.2441 35.4101 37.0264 35.1337 36.9588 34.8042C36.9588 34.804 36.9587 34.8038 36.9587 34.8036C36.7894 34.7355 36.6696 34.5707 36.6696 34.3769C36.6696 34.2384 36.7322 34.1149 36.8294 34.0304V33.4837C36.8294 33.0102 37.4323 32.7969 38.0279 32.7969C38.625 32.7969 39.2265 33.0102 39.2265 33.4837V34.0311C39.2345 34.0381 39.2432 34.0441 39.2508 34.0518C39.3383 34.1378 39.3864 34.2544 39.3864 34.3769C39.3864 34.5708 39.2665 34.7357 39.0971 34.8037C39.0971 34.8039 39.0971 34.8041 39.097 34.8042C39.0294 35.1337 38.8118 35.4101 38.5176 35.5572C38.5088 35.6264 38.5044 35.716 38.5308 35.7469H38.7206C39.2559 35.7469 39.6912 36.1822 39.6912 36.716V37.4469C39.6912 37.5895 39.575 37.7057 39.4338 37.7057ZM31.9897 36.2263L32.2412 35.9557C32.1956 35.9028 32.1515 35.8219 32.1456 35.6822C32.0956 35.6866 32.0441 35.6881 31.9911 35.6881C31.9382 35.6881 31.8867 35.6866 31.8353 35.6807C31.8294 35.8234 31.7838 35.9042 31.7382 35.9572L31.9897 36.2263ZM32.7882 34.5807V33.8454L32.5206 33.6263C32.4382 33.7292 32.3015 33.8558 32.0985 33.9307C31.9029 34.0043 31.4985 34.0572 31.1912 34.0896V34.5807C31.1912 34.9307 31.4176 35.2293 31.7308 35.3366C31.7323 35.3366 31.7338 35.3381 31.7353 35.3381C31.9 35.3675 32.0794 35.369 32.2456 35.3381C32.247 35.3381 32.2485 35.3366 32.25 35.3366C32.5632 35.2293 32.7882 34.9307 32.7882 34.5807ZM35.1147 30.8322C35.4279 30.7249 35.6529 30.4263 35.6529 30.0778V29.3425L35.3853 29.1234C35.3029 29.2263 35.1662 29.3528 34.9632 29.4278C34.7676 29.5013 34.3632 29.5543 34.0559 29.5852V30.0778C34.0559 30.4263 34.2823 30.7249 34.5956 30.8322C34.597 30.8322 34.5985 30.8337 34.6 30.8337C34.7647 30.8645 34.9441 30.866 35.1103 30.8337C35.1117 30.8337 35.1132 30.8322 35.1147 30.8322ZM35.1059 31.4513C35.0603 31.3984 35.0162 31.3175 35.0103 31.1778C34.9603 31.1822 34.9088 31.1851 34.8558 31.1851C34.8029 31.1851 34.7514 31.1822 34.6985 31.1778C34.6926 31.319 34.6485 31.3998 34.6029 31.4528L34.8544 31.7219L35.1059 31.4513ZM38.0279 36.2263L38.2794 35.9557C38.2338 35.9028 38.1897 35.8219 38.1838 35.6822C38.0949 35.6898 37.9649 35.691 37.872 35.6807C37.8662 35.8234 37.822 35.9042 37.7765 35.9572L38.0279 36.2263ZM38.8264 34.5807V33.8454L38.5588 33.6263C38.475 33.7292 38.3397 33.8558 38.1367 33.9307C37.9412 34.0043 37.5367 34.0572 37.2294 34.0896V34.5807C37.2294 34.9307 37.4544 35.2293 37.7691 35.3366C37.7706 35.3366 37.772 35.3381 37.7735 35.3381C37.9382 35.3675 38.1161 35.369 38.2838 35.3381C38.2853 35.3381 38.2867 35.3366 38.2882 35.3366C38.6015 35.2293 38.8264 34.9307 38.8264 34.5807Z" fill="white"/>
<path fill-rule="evenodd" clip-rule="evenodd" d="M43 33C43 37.4183 39.4183 41 35 41C30.5817 41 27 37.4183 27 33C27 28.5817 30.5817 25 35 25C39.4183 25 43 28.5817 43 33ZM35 40C38.866 40 42 36.866 42 33C42 29.134 38.866 26 35 26C31.134 26 28 29.134 28 33C28 36.866 31.134 40 35 40Z" fill="white"/>
</svg>
