<svg width="48" height="48" viewBox="0 0 48 48" fill="none" xmlns="http://www.w3.org/2000/svg">
<path fill-rule="evenodd" clip-rule="evenodd" d="M8.79886 32.732C8.47606 32.2325 8.55778 31.7167 8.70064 31.1924C9.96068 26.5702 11.2168 21.9472 12.4738 17.3244C12.7427 16.3354 13.2281 16.0006 14.4055 16.0004C21.0096 15.9999 27.6136 15.9998 34.2176 16.0004C35.5008 16.0006 36.0951 16.4976 36.1323 17.5946C35.7693 20.5255 34.6919 23.2289 32.6521 25.6127C30.4119 28.2307 27.4277 29.9907 23.9546 31.1797C20.8652 32.2374 17.6487 32.8241 14.3628 33.1859C13.5074 33.28 12.6188 33.2114 11.799 33.5193C11.2714 33.606 10.7384 33.5883 10.2089 33.5615C9.55737 33.5283 9.03737 33.302 8.79886 32.732Z" fill="#F9D360"/>
<path fill-rule="evenodd" clip-rule="evenodd" d="M11.8684 33.3143C12.6107 32.8558 13.5006 33.0348 14.3107 32.9468C18.3289 32.5105 22.2481 31.7666 25.8753 30.1752C31.5732 27.6754 34.902 23.6623 35.8459 18.1884C35.8867 17.9522 35.9384 17.7106 36.1423 17.5244C37.2833 21.2073 38.1709 24.9426 39.2106 28.6466C39.433 29.4392 39.6064 30.2428 39.8567 31.0285C40.0472 31.6259 40.0557 32.2012 39.8337 32.7846C39.6059 33.2437 39.1492 33.4153 38.6253 33.4946C38.2969 33.5443 37.9632 33.534 37.6311 33.5341C29.4822 33.535 21.3334 33.5363 13.1844 33.5302C12.7366 33.5298 12.2549 33.6211 11.8684 33.3143Z" fill="#F6C257"/>
<path fill-rule="evenodd" clip-rule="evenodd" d="M11.8507 33.4461C20.639 33.4478 29.4275 33.4456 38.2159 33.4593C38.8572 33.4604 39.3299 33.2006 39.8158 32.9166C40.293 34.3207 39.6763 35.0528 37.9998 35.0532C28.8715 35.0553 19.7433 35.0553 10.615 35.0532C8.89172 35.0528 8.22856 34.2254 8.79093 32.7939C9.62026 33.6791 10.7745 33.4257 11.8507 33.4461Z" fill="#D8AB4B"/>
<path fill-rule="evenodd" clip-rule="evenodd" d="M14 11.9824C11.7122 12.4545 10.418 13.7829 9.98543 16C9.5573 13.7808 8.25763 12.4596 6 11.985C8.28091 11.4819 9.43462 10.3193 9.9849 8C10.4382 10.1939 11.6992 11.5253 14 11.9824Z" fill="#F9D360"/>
<path fill-rule="evenodd" clip-rule="evenodd" d="M17.0024 11C16.6298 9.37635 15.6695 8.44879 14 8.00606C15.6701 7.55929 16.6426 6.62039 17.0079 5C17.3534 6.63532 18.3638 7.5447 20 8.01897C18.3145 8.45093 17.3821 9.3951 17.0024 11Z" fill="#F6C357"/>
<path fill-rule="evenodd" clip-rule="evenodd" d="M8.00019 17C8.29122 18.0666 8.88891 18.705 10 18.9705C8.93951 19.3113 8.25231 19.9008 8.00172 21C7.73269 19.9405 7.09863 19.3198 6 18.9848C7.1027 18.6876 7.71438 18.0475 8.00019 17Z" fill="#F6C358"/>
<path fill-rule="evenodd" clip-rule="evenodd" d="M44 26.9755C44 26.7168 43.8852 26.4686 43.6855 26.2856C43.49 26.1026 43.2182 26 42.9378 26H31.0622C30.7775 26 30.5097 26.1026 30.31 26.2856C30.1103 26.4686 30 26.7168 30 26.9755V45H44V26.9755ZM38.7824 43.4138L40.5201 45H37.0403L38.7824 43.4138ZM31.7377 43.4138L33.4754 45H30L31.7377 43.4138ZM42.258 43.4138L44 45H40.5201L42.258 43.4138ZM35.3024 43.4138L37.0403 45H33.5647L35.3024 43.4138Z" fill="#1AAB4E"/>
<path d="M36.3094 32.36C36.8497 32.073 37.2887 31.5411 37.2887 30.6631C37.2887 29.4981 36.4191 29 35.119 29H33V35.07H34.3086V32.6471H35.1021L36.1321 35.07H37.5166L36.3094 32.36ZM34.3086 31.6593V29.9709H35.043C35.6593 29.9709 35.9717 30.1397 35.9717 30.8066C35.9717 31.3723 35.5833 31.6593 35.1021 31.6593H34.3086Z" fill="white"/>
<path d="M38.1503 30.5555V36.845H39.4251V34.8948C39.7121 35.0805 40.0582 35.1481 40.3706 35.1481C41.5441 35.1481 42 33.9746 42 32.4888C42 31.0789 41.3837 30.4795 40.5901 30.4795C40.0498 30.4795 39.6614 30.699 39.3913 30.9016L39.3491 30.5555H38.1503ZM39.4335 31.7543C39.5264 31.6952 39.8218 31.5348 40.1089 31.5348C40.4888 31.5348 40.6998 31.7796 40.6998 32.6576C40.6998 33.5863 40.5479 34.1857 39.9991 34.1857C39.6783 34.1857 39.501 34.0675 39.4335 34.0168V31.7543Z" fill="white"/>
<path d="M42 39H32V40H42V39Z" fill="#00883E"/>
<path d="M40.2616 41H34V42.0312H40.2616V41Z" fill="#00883E"/>
</svg>
