<svg width="48" height="48" viewBox="0 0 48 48" fill="none" xmlns="http://www.w3.org/2000/svg">
<path fill-rule="evenodd" clip-rule="evenodd" d="M12 9C12 7.34315 13.3431 6 15 6H33C34.6569 6 36 7.34315 36 9V39C36 40.6569 34.6569 42 33 42H15C13.3431 42 12 40.6569 12 39V9Z" fill="#CC9D3F"/>
<mask id="mask0_0_10323" style="mask-type:alpha" maskUnits="userSpaceOnUse" x="12" y="6" width="24" height="36">
<path fill-rule="evenodd" clip-rule="evenodd" d="M12 9C12 7.34315 13.3431 6 15 6H33C34.6569 6 36 7.34315 36 9V39C36 40.6569 34.6569 42 33 42H15C13.3431 42 12 40.6569 12 39V9Z" fill="white"/>
</mask>
<g mask="url(#mask0_0_10323)">
<rect x="9" y="6" width="24" height="36" rx="3" fill="#FFC54F"/>
<path fill-rule="evenodd" clip-rule="evenodd" d="M21.5106 10.3329L16.6939 13.9646C16.1045 14.4085 15.8569 15.1984 16.0826 15.9185L17.9217 21.7941C18.1473 22.5141 18.7941 23 19.5233 23H25.4767C26.2059 23 26.8527 22.5141 27.0783 21.7941L28.9174 15.9185C29.1431 15.1984 28.8955 14.4085 28.3061 13.9646L23.4894 10.3329C22.9 9.88902 22.1 9.88902 21.5106 10.3329Z" fill="#FFC54F" stroke="#CC9D3F"/>
<path fill-rule="evenodd" clip-rule="evenodd" d="M19.4497 13.8016C19.5787 13.8143 19.6776 13.7795 19.709 13.8655C19.737 13.9421 19.6582 14.0004 19.61 14.0574C19.1254 14.6301 18.6397 15.2018 18.1563 15.7755C17.9898 15.9733 17.9936 16.0269 18.1733 16.2092C19.5458 17.6017 20.9196 18.993 22.2893 20.3883C22.3907 20.4916 22.4436 20.5176 22.5617 20.3969C23.9247 19.0047 25.2946 17.6193 26.6628 16.2322C26.8701 16.0221 26.8743 15.9786 26.6831 15.7519C26.2038 15.1837 25.7221 14.6176 25.2425 14.0497C25.1955 13.9942 25.1141 13.9389 25.1522 13.858C25.1914 13.775 25.2872 13.8167 25.3591 13.8078C25.4848 13.7923 25.5839 13.8413 25.6757 13.925C26.3524 14.5417 27.0322 15.1551 27.7084 15.7723C27.9072 15.9538 27.907 16.0487 27.7162 16.2312C26.0096 17.8632 24.3011 19.4932 22.5973 21.1282C22.465 21.2552 22.3795 21.2406 22.2551 21.1214C20.5555 19.4919 18.852 17.8666 17.1502 16.2395C16.9489 16.0471 16.949 15.9554 17.1561 15.766C17.8268 15.1529 18.5009 14.5436 19.1709 13.9297C19.269 13.8399 19.3729 13.7896 19.4497 13.8016Z" fill="#CC9D3F"/>
<path fill-rule="evenodd" clip-rule="evenodd" d="M22.256 14.6977C22.2561 14.7321 22.2515 14.7672 22.2568 14.8008C22.3262 15.2417 22.2166 15.61 21.8305 15.869C21.7233 15.9409 21.7256 16.0171 21.8275 16.093C22.1992 16.3705 22.2815 16.7413 22.2589 17.192C22.2234 17.8992 22.2501 18.6096 22.2486 19.3186C22.2485 19.398 22.2775 19.4977 22.1851 19.5418C22.0849 19.5896 22.0212 19.5093 21.9579 19.445C20.8748 18.3476 19.7925 17.2494 18.7067 16.1546C18.5714 16.0181 18.5512 15.9118 18.6882 15.7537C19.2109 15.1505 19.7219 14.537 20.2336 13.9243C20.3001 13.8446 20.3643 13.8033 20.4745 13.8048C20.9906 13.8114 21.507 13.8119 22.0232 13.8054C22.1929 13.8033 22.2612 13.8709 22.2573 14.0368C22.252 14.257 22.256 14.4774 22.256 14.6977ZM19.6971 15.6518C20.1983 15.6518 20.6436 15.6548 21.0889 15.6504C21.2624 15.6486 21.607 15.2873 21.6096 15.1137C21.6122 14.9422 21.6046 14.7703 21.6122 14.599C21.6171 14.4884 21.5747 14.4581 21.4693 14.4608C21.2223 14.4671 20.975 14.4629 20.7279 14.4628C20.6728 14.4628 20.6227 14.4632 20.5822 14.5157C20.2984 14.8831 20.0119 15.2484 19.6971 15.6518ZM21.6096 18.0438C21.6096 17.637 21.6104 17.2214 21.6081 16.8057C21.6079 16.7745 21.5942 16.7348 21.5725 16.7135C21.3717 16.5155 21.2008 16.2622 20.853 16.3377C20.7678 16.3562 20.6752 16.3404 20.5859 16.3404C20.3583 16.3404 20.1306 16.3404 19.8767 16.3404C20.4726 16.9261 21.0371 17.4811 21.6096 18.0438Z" fill="#CC9D3F"/>
<path fill-rule="evenodd" clip-rule="evenodd" d="M23.2999 18.0322C23.8765 17.4633 24.4378 16.9094 25.0221 16.3329C24.8931 16.3329 24.7804 16.3329 24.6677 16.3329C24.0687 16.3329 23.4696 16.3269 22.8707 16.3362C22.6727 16.3393 22.5957 16.2616 22.5964 16.0716C22.599 15.4106 22.5952 14.7496 22.5984 14.0887C22.5995 13.8724 22.6672 13.8098 22.8879 13.8086C23.4111 13.8059 23.9344 13.8096 24.4576 13.8037C24.5589 13.8026 24.621 13.8372 24.6802 13.915C24.968 14.2927 25.261 14.6663 25.5508 15.0424C25.5919 15.0957 25.6526 15.1523 25.6227 15.2251C25.5912 15.3019 25.5085 15.28 25.4417 15.2898C25.112 15.3378 24.8485 15.2477 24.68 14.9425C24.4588 14.542 24.1233 14.417 23.6726 14.4667C23.3072 14.507 23.3037 14.4749 23.3037 14.84C23.3037 15.0466 23.3132 15.2537 23.3005 15.4595C23.2912 15.6089 23.3454 15.6418 23.4867 15.6406C24.2854 15.6342 25.0841 15.6375 25.8827 15.6378C25.9446 15.6378 26.0072 15.6353 26.0683 15.6432C26.1646 15.6557 26.2643 15.6724 26.3004 15.7831C26.3358 15.8916 26.3022 15.986 26.227 16.0675C26.2037 16.0928 26.1787 16.1166 26.1544 16.141C25.057 17.2442 23.9597 18.3474 22.8623 19.4506C22.8095 19.5037 22.7622 19.5766 22.6738 19.5494C22.5724 19.5182 22.6073 19.4244 22.607 19.3557C22.6045 18.5295 22.6089 17.7032 22.6026 16.877C22.6013 16.701 22.6716 16.6499 22.8367 16.6548C23.3499 16.6701 23.2943 16.573 23.2993 17.1163C23.3022 17.424 23.2999 17.7318 23.2999 18.0322Z" fill="#CC9D3F"/>
<path d="M22.3639 34.0641C23.0093 34.0641 23.5213 33.9214 23.8999 33.6361C24.2786 33.3508 24.4679 32.9601 24.4679 32.4641C24.4679 32.1228 24.3786 31.8334 24.1999 31.5961C24.0213 31.3588 23.7666 31.1921 23.4359 31.0961C23.7133 30.9948 23.9306 30.8308 24.0879 30.6041C24.2453 30.3774 24.3239 30.1121 24.3239 29.8081C24.3239 29.5041 24.2453 29.2374 24.0879 29.0081C23.9306 28.7788 23.7079 28.6014 23.4199 28.4761C23.1319 28.3508 22.7959 28.2881 22.4119 28.2881C22.0386 28.2881 21.6746 28.3454 21.3199 28.4601C20.9653 28.5748 20.6759 28.7281 20.4519 28.9201L20.8439 29.8081C21.0839 29.6321 21.3319 29.4974 21.5879 29.4041C21.8439 29.3108 22.0893 29.2641 22.3239 29.2641C22.5853 29.2641 22.7853 29.3254 22.9239 29.4481C23.0626 29.5708 23.1319 29.7468 23.1319 29.9761C23.1319 30.2108 23.0533 30.3841 22.8959 30.4961C22.7386 30.6081 22.4973 30.6641 22.1719 30.6641H21.4999V31.6321H22.3079C22.6493 31.6321 22.8973 31.6881 23.0519 31.8001C23.2066 31.9121 23.2839 32.0934 23.2839 32.3441C23.2839 32.6001 23.2066 32.7881 23.0519 32.9081C22.8973 33.0281 22.6493 33.0881 22.3079 33.0881C21.7906 33.0881 21.2759 32.9068 20.7639 32.5441L20.3719 33.4321C20.5959 33.6294 20.8866 33.7841 21.2439 33.8961C21.6013 34.0081 21.9746 34.0641 22.3639 34.0641Z" fill="#CC9D3F"/>
</g>
</svg>
