<svg width="36" height="36" viewBox="0 0 36 36" fill="none" xmlns="http://www.w3.org/2000/svg">
<path fill-rule="evenodd" clip-rule="evenodd" d="M18 33C26.2843 33 33 26.2843 33 18C33 9.71573 26.2843 3 18 3C9.71573 3 3 9.71573 3 18C3 26.2843 9.71573 33 18 33ZM12.5475 14.1555C13.4022 14.1555 14.0951 13.4491 14.0951 12.5778C14.0951 11.7064 13.4022 11 12.5475 11C11.6928 11 11 11.7064 11 12.5777C11 13.4491 11.6929 14.1555 12.5475 14.1555ZM11.1041 15.5544L13.9311 15.5184V24.9564L11.1041 24.993V15.5544ZM16.298 15.5544L18.9993 15.5194V16.7199L18.9999 17.0599C19.7999 16.2602 20.6245 15.6559 21.9421 15.6559C23.4965 15.6559 25 16.32 25 18.4837V24.9583L22.2578 25V20.0537C22.2578 18.9633 21.9898 18.2604 20.7124 18.2604C19.5871 18.2604 19.1159 18.4658 19.1159 19.9755V24.958L16.2982 24.9927L16.298 15.5544Z" fill="#00AB4E"/>
<mask id="mask0_1237_23117" style="mask-type:alpha" maskUnits="userSpaceOnUse" x="3" y="3" width="30" height="30">
<path fill-rule="evenodd" clip-rule="evenodd" d="M18 33C26.2843 33 33 26.2843 33 18C33 9.71573 26.2843 3 18 3C9.71573 3 3 9.71573 3 18C3 26.2843 9.71573 33 18 33ZM12.5475 14.1555C13.4022 14.1555 14.0951 13.4491 14.0951 12.5778C14.0951 11.7064 13.4022 11 12.5475 11C11.6928 11 11 11.7064 11 12.5777C11 13.4491 11.6929 14.1555 12.5475 14.1555ZM11.1041 15.5544L13.9311 15.5184V24.9564L11.1041 24.993V15.5544ZM16.298 15.5544L18.9993 15.5194V16.7199L18.9999 17.0599C19.7999 16.2602 20.6245 15.6559 21.9421 15.6559C23.4965 15.6559 25 16.32 25 18.4837V24.9583L22.2578 25V20.0537C22.2578 18.9633 21.9898 18.2604 20.7124 18.2604C19.5871 18.2604 19.1159 18.4658 19.1159 19.9755V24.958L16.2982 24.9927L16.298 15.5544Z" fill="white"/>
</mask>
<g mask="url(#mask0_1237_23117)">
<rect width="36" height="36" fill="#00AB4E"/>
</g>
</svg>
