<svg width="48" height="48" viewBox="0 0 48 48" fill="none" xmlns="http://www.w3.org/2000/svg">
<path fill-rule="evenodd" clip-rule="evenodd" d="M12 9C12 7.34315 13.3431 6 15 6H33C34.6569 6 36 7.34315 36 9V39C36 40.6569 34.6569 42 33 42H15C13.3431 42 12 40.6569 12 39V9Z" fill="#CC9D3F"/>
<mask id="mask0_0_10107" style="mask-type:alpha" maskUnits="userSpaceOnUse" x="12" y="6" width="24" height="36">
<path fill-rule="evenodd" clip-rule="evenodd" d="M12 9C12 7.34315 13.3431 6 15 6H33C34.6569 6 36 7.34315 36 9V39C36 40.6569 34.6569 42 33 42H15C13.3431 42 12 40.6569 12 39V9Z" fill="white"/>
</mask>
<g mask="url(#mask0_0_10107)">
<rect x="9" y="6" width="24" height="36" rx="3" fill="#FFC54F"/>
<path fill-rule="evenodd" clip-rule="evenodd" d="M21.5106 10.3329L16.6939 13.9646C16.1045 14.4085 15.8569 15.1984 16.0826 15.9185L17.9217 21.7941C18.1473 22.5141 18.7941 23 19.5233 23H25.4767C26.2059 23 26.8527 22.5141 27.0783 21.7941L28.9174 15.9185C29.1431 15.1984 28.8955 14.4085 28.3061 13.9646L23.4894 10.3329C22.9 9.88902 22.1 9.88902 21.5106 10.3329Z" fill="#FFC54F" stroke="#CC9D3F"/>
<path fill-rule="evenodd" clip-rule="evenodd" d="M19.3788 17.0576C19.3828 17.63 19.424 18.1964 19.5654 18.7263C19.6709 19.1216 19.834 19.4978 20.0816 19.8443C20.3291 19.4978 20.4916 19.1216 20.5971 18.7263C20.7385 18.1964 20.7796 17.63 20.7837 17.0576L21.1185 17.0588L21.4535 17.0576C21.4585 17.8914 21.5097 18.7172 21.6863 19.4934C21.8259 20.1076 22.0453 20.6913 22.3845 21.2248C22.7236 20.6913 22.9425 20.1076 23.0821 19.4934C23.2586 18.7173 23.3099 17.8915 23.3149 17.0576L23.6497 17.0588L23.9847 17.0576C23.9888 17.63 24.0299 18.1964 24.1713 18.7263C24.2768 19.1216 24.4399 19.4978 24.6875 19.8443C24.935 19.4978 25.0975 19.1216 25.203 18.7263C25.3444 18.1964 25.3855 17.63 25.3896 17.0576L26.0316 17.0598C26.0273 17.6728 25.9822 18.2827 25.8272 18.8634C25.668 19.4599 25.3941 20.0229 24.9338 20.5232L24.6873 20.7911L24.4405 20.5232C24.1331 20.1891 23.9096 19.8269 23.7471 19.4458C23.7359 19.5007 23.7238 19.5556 23.7115 19.6101C23.5217 20.4449 23.1951 21.2331 22.6461 21.934L22.3844 22.2681L22.1224 21.934C21.5732 21.2331 21.2467 20.4449 21.0569 19.6101C21.0446 19.5558 21.0331 19.501 21.0219 19.4463C20.8594 19.8272 20.635 20.1894 20.3279 20.5232L20.0814 20.7911L19.8346 20.5232C19.3742 20.0227 19.1005 19.4599 18.9412 18.8634C18.7862 18.2827 18.7411 17.6728 18.7368 17.0598L19.3788 17.0576Z" fill="#CC9D3F"/>
<path fill-rule="evenodd" clip-rule="evenodd" d="M19.422 16.3378C19.4347 15.8547 19.4823 15.3789 19.6074 14.9301C19.7142 14.5473 19.8793 14.1828 20.1298 13.8473C20.3803 14.1828 20.5447 14.5473 20.6514 14.9301C20.7636 15.3322 20.8132 15.7561 20.8315 16.1873C20.4822 16.2182 20.1328 16.2539 19.7828 16.2944C19.6626 16.3082 19.5423 16.3228 19.422 16.3378ZM21.525 16.1325C21.5444 15.4665 21.6055 14.8102 21.7537 14.1871C21.8949 13.5924 22.1169 13.027 22.4601 12.5104C22.8033 13.027 23.0248 13.5924 23.166 14.1871C23.3149 14.8135 23.3756 15.4734 23.3947 16.1433C23.0575 16.1184 22.7208 16.0979 22.3842 16.0824C22.0982 16.0956 21.8117 16.1124 21.525 16.1325ZM24.0872 16.201C24.1051 15.7651 24.1549 15.3364 24.2683 14.9301C24.375 14.5473 24.54 14.1828 24.7905 13.8473C25.041 14.1828 25.2054 14.5473 25.3122 14.9301C25.439 15.3848 25.4859 15.8673 25.4979 16.3569C25.327 16.335 25.1564 16.314 24.9856 16.2944C24.6859 16.2597 24.3864 16.2286 24.0872 16.201ZM26.1494 16.4459C26.1408 15.8853 26.092 15.3286 25.9438 14.7973C25.7827 14.2197 25.5055 13.6744 25.0398 13.1899L24.7903 12.9304L24.5406 13.1899C24.2295 13.5134 24.0034 13.8642 23.839 14.2333C23.8276 14.18 23.8154 14.1269 23.803 14.0742C23.6108 13.2657 23.2804 12.5024 22.7248 11.8237L22.46 11.5L22.1949 11.8237C21.6392 12.5024 21.3089 13.2657 21.1167 14.0742C21.1043 14.1268 21.0927 14.1798 21.0812 14.2328C20.9169 13.8639 20.6898 13.5131 20.3791 13.1899L20.1296 12.9304L19.8799 13.1899C19.414 13.6745 19.137 14.2197 18.9758 14.7973C18.8295 15.3218 18.7801 15.871 18.7706 16.4243C18.1814 16.5072 17.591 16.6028 17 16.7105C18.8034 16.6472 20.5987 16.6082 22.3842 16.5975C24.1698 16.6082 25.965 16.6472 27.7684 16.7105C27.2281 16.612 26.6883 16.5237 26.1494 16.4459Z" fill="#CC9D3F"/>
<path fill-rule="evenodd" clip-rule="evenodd" d="M19.704 33.0001V34.0001H15.824V33.0801L17.704 31.0881C18.0987 30.6721 18.296 30.2881 18.296 29.9361C18.296 29.4881 18.04 29.2641 17.528 29.2641C17.2933 29.2641 17.048 29.3108 16.792 29.4041C16.536 29.4974 16.2853 29.6321 16.04 29.8081L15.648 28.9201C15.872 28.7281 16.16 28.5748 16.512 28.4601C16.864 28.3454 17.224 28.2881 17.592 28.2881C18.1787 28.2881 18.6467 28.4294 18.996 28.7121C19.3453 28.9948 19.52 29.3734 19.52 29.8481C19.52 30.1734 19.452 30.4748 19.316 30.7521C19.18 31.0294 18.952 31.3388 18.632 31.6801L17.376 33.0001H19.704ZM23.604 33.8281C23.276 33.9854 22.8933 34.0641 22.456 34.0641C22.0987 34.0641 21.744 34.0068 21.392 33.8921C21.04 33.7774 20.7547 33.6241 20.536 33.4321L20.928 32.5441C21.4453 32.9068 21.96 33.0881 22.472 33.0881C22.7973 33.0881 23.044 33.0134 23.212 32.8641C23.38 32.7148 23.464 32.4934 23.464 32.2001C23.464 31.9228 23.3773 31.7041 23.204 31.5441C23.0307 31.3841 22.7947 31.3041 22.496 31.3041C22.3093 31.3041 22.124 31.3388 21.94 31.4081C21.756 31.4774 21.5893 31.5734 21.44 31.6961H20.728V28.3601H24.36V29.3121H21.944V30.5681C22.2 30.4241 22.5013 30.3521 22.848 30.3521C23.1947 30.3521 23.504 30.4281 23.776 30.5801C24.048 30.7321 24.2587 30.9441 24.408 31.2161C24.5573 31.4881 24.632 31.8028 24.632 32.1601C24.632 32.5388 24.5427 32.8721 24.364 33.1601C24.1853 33.4481 23.932 33.6708 23.604 33.8281ZM27.304 34.0721C27.9867 34.0721 28.508 33.8241 28.868 33.3281C29.228 32.8321 29.408 32.1148 29.408 31.1761C29.408 30.2481 29.2267 29.5374 28.864 29.0441C28.5013 28.5508 27.9813 28.3041 27.304 28.3041C26.6267 28.3041 26.1067 28.5508 25.744 29.0441C25.3813 29.5374 25.2 30.2481 25.2 31.1761C25.2 32.1148 25.38 32.8321 25.74 33.3281C26.1 33.8241 26.6213 34.0721 27.304 34.0721ZM26.628 32.6561C26.7693 32.9654 26.9947 33.1201 27.304 33.1201C27.6133 33.1201 27.8387 32.9654 27.98 32.6561C28.1213 32.3468 28.192 31.8534 28.192 31.1761C28.192 30.5041 28.1213 30.0161 27.98 29.7121C27.8387 29.4081 27.6133 29.2561 27.304 29.2561C26.9947 29.2561 26.7693 29.4081 26.628 29.7121C26.4867 30.0161 26.416 30.5041 26.416 31.1761C26.416 31.8534 26.4867 32.3468 26.628 32.6561Z" fill="#CC9D3F"/>
</g>
</svg>
