<svg width="48" height="48" viewBox="0 0 48 48" fill="none" xmlns="http://www.w3.org/2000/svg">
<path d="M10.4294 20.2108L23.7455 11.2461L37.0615 20.2108V39.9997H10.4294V20.2108Z" fill="#A3C7E6"/>
<path d="M10.4294 25.9588C10.4294 25.3526 10.7043 24.7792 11.1768 24.3996L22.2896 15.4724C23.0018 14.9002 24.0112 14.8834 24.7421 15.4316L34.7 22.9C35.2036 23.2777 35.5 23.8705 35.5 24.5V38.9997H10.4294V25.9588Z" fill="#E8F1F9"/>
<path d="M15.5995 27.0869C15.5995 26.5346 16.0473 26.0869 16.5995 26.0869H19.7211C20.2734 26.0869 20.7211 26.5346 20.7211 27.0869V38.2173H15.5995V27.0869Z" fill="#CC9D3F"/>
<path d="M12.5266 27.0869C12.5266 26.5346 12.9743 26.0869 13.5266 26.0869H18.6968C19.2491 26.0869 19.6968 26.5346 19.6968 27.0869V38.2173H12.5266V27.0869Z" fill="#FFC54F"/>
<path d="M9.40503 39.0721C9.40503 38.5598 9.8203 38.1445 10.3326 38.1445H37.1583C37.6706 38.1445 38.0858 38.5598 38.0858 39.0721C38.0858 39.5843 37.6706 39.9996 37.1583 39.9996H10.3326C9.8203 39.9996 9.40503 39.5843 9.40503 39.0721Z" fill="#1868AB"/>
<path fill-rule="evenodd" clip-rule="evenodd" d="M22.3779 8.47384C23.1463 7.85 24.3073 7.84116 25.0872 8.45321L41.1321 21.045C41.597 21.4099 41.6458 22.0962 41.2372 22.5231L39.9433 23.875C39.5877 24.2466 39.0081 24.2878 38.6035 23.9702L23.7684 12.3279L9.43853 23.9615C9.03932 24.2856 8.4594 24.2542 8.09762 23.8888L6.77653 22.5545C6.36061 22.1344 6.39791 21.4471 6.85686 21.0745L22.3779 8.47384Z" fill="#1868AB"/>
<rect x="23.8184" y="26" width="8.19451" height="5.56522" rx="1" fill="#CC9D3F"/>
<rect x="23" y="26" width="8.19451" height="5.56522" rx="1" fill="#FFC54F"/>
</svg>
