<svg width="24" height="24" viewBox="0 0 24 24" fill="none" xmlns="http://www.w3.org/2000/svg">
<g id="icon system/E/Edit Password">
<path id="Combined Shape" fill-rule="evenodd" clip-rule="evenodd" d="M6.38056 6.40636C6.38056 3.9728 8.39901 2 10.8889 2C13.3788 2 15.3972 3.9728 15.3972 6.40636V7.63597C15.7071 7.64701 16.0026 7.65923 16.2841 7.67256L16.8788 7.70352C18.3125 7.78657 19.4898 8.72162 19.6033 9.97103C19.6922 10.9495 19.7515 12.171 19.7709 13.6606C19.4694 13.607 19.159 13.5789 18.8421 13.5789C18.6749 13.5789 18.5095 13.5867 18.3463 13.602C18.33 12.437 18.2886 11.4461 18.2279 10.6165L18.1852 10.0941C18.1393 9.58876 17.5712 9.13755 16.7952 9.0926C15.6728 9.02856 14.2853 8.98408 12.603 8.96619L11.2856 8.95787L9.92719 8.96007C8.37194 8.96883 7.04655 8.99904 5.93151 9.04596L4.98425 9.09256C4.20764 9.13755 3.63954 9.58876 3.59357 10.0948C3.50229 11.088 3.44267 12.3615 3.4275 13.9403L3.42368 14.7553C3.42368 16.4363 3.47022 17.8071 3.55065 18.8956L3.59363 19.4164C3.63954 19.9218 4.20751 20.3727 4.98417 20.417C6.26425 20.491 7.899 20.539 9.92559 20.5504L10.8889 20.5531C11.9778 20.5531 12.9644 20.5433 13.8538 20.5251C14.0209 21.0207 14.2599 21.4833 14.5582 21.9004C13.7479 21.9221 12.851 21.9363 11.8633 21.9419L10.8889 21.9446C8.71764 21.9446 6.94322 21.906 5.52828 21.839L4.90062 21.8061C3.46683 21.7243 2.28907 20.7892 2.17559 19.5401C2.08083 18.5082 2.01951 17.1999 2.00392 15.5871L2 14.7553C2 13.04 2.04782 11.6331 2.13103 10.5094L2.17553 9.97104C2.28904 8.72162 3.46632 7.78657 4.90065 7.70348C5.35262 7.67769 5.84532 7.65505 6.38056 7.63598V6.40636ZM13.9735 7.56593H10.8889H7.80424V6.40636C7.80424 4.74129 9.18529 3.39148 10.8889 3.39148L11.0639 3.39626C12.6861 3.48495 13.9735 4.79871 13.9735 6.40636V7.56593ZM10.8889 11.2766C9.44738 11.2766 8.2788 12.4187 8.2788 13.8276V15.6829C8.2788 17.0918 9.44738 18.234 10.8889 18.234C12.3304 18.234 13.499 17.0918 13.499 15.6829V13.8276C13.499 12.4187 12.3304 11.2766 10.8889 11.2766ZM10.8889 12.668C11.5441 12.668 12.0753 13.1872 12.0753 13.8276V15.6829C12.0753 16.3233 11.5441 16.8425 10.8889 16.8425C10.2337 16.8425 9.70249 16.3233 9.70249 15.6829V13.8276C9.70249 13.1872 10.2337 12.668 10.8889 12.668ZM21.8974 17.1024C22.0342 16.9656 22.0342 16.7446 21.8974 16.6078L21.0764 15.7868C20.9396 15.65 20.7186 15.65 20.5818 15.7868L19.9398 16.4288L21.2554 17.7445L21.8974 17.1024ZM15.6842 21.8241C15.6842 21.9213 15.7629 22 15.8601 22H16.7022C16.8885 22 17.0672 21.9261 17.1991 21.7944L20.88 18.1198L19.5644 16.8042L15.8899 20.4835C15.7582 20.6154 15.6842 20.7942 15.6842 20.9806V21.8241Z" fill="#70717D"/>
<mask id="mask0_0_5783" style="mask-type:alpha" maskUnits="userSpaceOnUse" x="2" y="2" width="20" height="20">
<path id="Combined Shape_2" fill-rule="evenodd" clip-rule="evenodd" d="M6.38056 6.40636C6.38056 3.9728 8.39901 2 10.8889 2C13.3788 2 15.3972 3.9728 15.3972 6.40636V7.63597C15.7071 7.64701 16.0026 7.65923 16.2841 7.67256L16.8788 7.70352C18.3125 7.78657 19.4898 8.72162 19.6033 9.97103C19.6922 10.9495 19.7515 12.171 19.7709 13.6606C19.4694 13.607 19.159 13.5789 18.8421 13.5789C18.6749 13.5789 18.5095 13.5867 18.3463 13.602C18.33 12.437 18.2886 11.4461 18.2279 10.6165L18.1852 10.0941C18.1393 9.58876 17.5712 9.13755 16.7952 9.0926C15.6728 9.02856 14.2853 8.98408 12.603 8.96619L11.2856 8.95787L9.92719 8.96007C8.37194 8.96883 7.04655 8.99904 5.93151 9.04596L4.98425 9.09256C4.20764 9.13755 3.63954 9.58876 3.59357 10.0948C3.50229 11.088 3.44267 12.3615 3.4275 13.9403L3.42368 14.7553C3.42368 16.4363 3.47022 17.8071 3.55065 18.8956L3.59363 19.4164C3.63954 19.9218 4.20751 20.3727 4.98417 20.417C6.26425 20.491 7.899 20.539 9.92559 20.5504L10.8889 20.5531C11.9778 20.5531 12.9644 20.5433 13.8538 20.5251C14.0209 21.0207 14.2599 21.4833 14.5582 21.9004C13.7479 21.9221 12.851 21.9363 11.8633 21.9419L10.8889 21.9446C8.71764 21.9446 6.94322 21.906 5.52828 21.839L4.90062 21.8061C3.46683 21.7243 2.28907 20.7892 2.17559 19.5401C2.08083 18.5082 2.01951 17.1999 2.00392 15.5871L2 14.7553C2 13.04 2.04782 11.6331 2.13103 10.5094L2.17553 9.97104C2.28904 8.72162 3.46632 7.78657 4.90065 7.70348C5.35262 7.67769 5.84532 7.65505 6.38056 7.63598V6.40636ZM13.9735 7.56593H10.8889H7.80424V6.40636C7.80424 4.74129 9.18529 3.39148 10.8889 3.39148L11.0639 3.39626C12.6861 3.48495 13.9735 4.79871 13.9735 6.40636V7.56593ZM10.8889 11.2766C9.44738 11.2766 8.2788 12.4187 8.2788 13.8276V15.6829C8.2788 17.0918 9.44738 18.234 10.8889 18.234C12.3304 18.234 13.499 17.0918 13.499 15.6829V13.8276C13.499 12.4187 12.3304 11.2766 10.8889 11.2766ZM10.8889 12.668C11.5441 12.668 12.0753 13.1872 12.0753 13.8276V15.6829C12.0753 16.3233 11.5441 16.8425 10.8889 16.8425C10.2337 16.8425 9.70249 16.3233 9.70249 15.6829V13.8276C9.70249 13.1872 10.2337 12.668 10.8889 12.668ZM21.8974 17.1024C22.0342 16.9656 22.0342 16.7446 21.8974 16.6078L21.0764 15.7868C20.9396 15.65 20.7186 15.65 20.5818 15.7868L19.9398 16.4288L21.2554 17.7445L21.8974 17.1024ZM15.6842 21.8241C15.6842 21.9213 15.7629 22 15.8601 22H16.7022C16.8885 22 17.0672 21.9261 17.1991 21.7944L20.88 18.1198L19.5644 16.8042L15.8899 20.4835C15.7582 20.6154 15.6842 20.7942 15.6842 20.9806V21.8241Z" fill="white"/>
</mask>
<g mask="url(#mask0_0_5783)">
<g id="Color/1. Shades/2. Secondary">
<rect id="color" width="24" height="24" fill="#58585B"/>
</g>
</g>
</g>
</svg>
