<svg width="48" height="48" viewBox="0 0 48 48" fill="none" xmlns="http://www.w3.org/2000/svg">
<path fill-rule="evenodd" clip-rule="evenodd" d="M24 10C32.2843 10 39 16.7157 39 25C39 33.2843 32.2843 40 24 40C15.7157 40 9 33.2843 9 25C9 16.7157 15.7157 10 24 10ZM24 14C30.3513 14 35.5 19.1487 35.5 25.5C35.5 31.8513 30.3513 37 24 37C17.6487 37 12.5 31.8513 12.5 25.5C12.5 19.1487 17.6487 14 24 14Z" fill="#CC9D3F"/>
<mask id="mask0_801_4403" style="mask-type:alpha" maskUnits="userSpaceOnUse" x="9" y="10" width="30" height="30">
<path fill-rule="evenodd" clip-rule="evenodd" d="M24 10C32.2843 10 39 16.7157 39 25C39 33.2843 32.2843 40 24 40C15.7157 40 9 33.2843 9 25C9 16.7157 15.7157 10 24 10ZM24 14C30.3513 14 35.5 19.1487 35.5 25.5C35.5 31.8513 30.3513 37 24 37C17.6487 37 12.5 31.8513 12.5 25.5C12.5 19.1487 17.6487 14 24 14Z" fill="white"/>
</mask>
<g mask="url(#mask0_801_4403)">
<path fill-rule="evenodd" clip-rule="evenodd" d="M22 10C30.2843 10 37 16.7157 37 25C37 33.2843 30.2843 40 22 40C13.7157 40 7 33.2843 7 25C7 16.7157 13.7157 10 22 10ZM22.5 14C28.5751 14 33.5 19.1487 33.5 25.5C33.5 31.8513 28.5751 37 22.5 37C16.4249 37 11.5 31.8513 11.5 25.5C11.5 19.1487 16.4249 14 22.5 14Z" fill="#FFC54F"/>
</g>
<path fill-rule="evenodd" clip-rule="evenodd" d="M29.0496 7.26188C29.5437 7.64565 29.5681 8.38375 29.1004 8.79925L24.6641 12.7402C24.2853 13.0767 23.7147 13.0767 23.3359 12.7402L18.8996 8.79925C18.4319 8.38375 18.4563 7.64565 18.9504 7.26189L20.7293 5.88016C20.9048 5.74389 21.1206 5.66992 21.3427 5.66992H26.6573C26.8794 5.66992 27.0952 5.74389 27.2707 5.88016L29.0496 7.26188Z" fill="#A3C7E6"/>
<mask id="mask1_801_4403" style="mask-type:alpha" maskUnits="userSpaceOnUse" x="18" y="5" width="12" height="8">
<path fill-rule="evenodd" clip-rule="evenodd" d="M29.0496 7.26188C29.5437 7.64565 29.5681 8.38375 29.1004 8.79925L24.6641 12.7402C24.2853 13.0767 23.7147 13.0767 23.3359 12.7402L18.8996 8.79925C18.4319 8.38375 18.4563 7.64565 18.9504 7.26189L20.7293 5.88016C20.9048 5.74389 21.1206 5.66992 21.3427 5.66992H26.6573C26.8794 5.66992 27.0952 5.74389 27.2707 5.88016L29.0496 7.26188Z" fill="white"/>
</mask>
<g mask="url(#mask1_801_4403)">
<path fill-rule="evenodd" clip-rule="evenodd" d="M28.1379 6.55377C28.8351 7.09529 28.5399 8.20864 27.666 8.33348L26.5 8.50005H21.5L20.334 8.33348C19.4601 8.20864 19.1649 7.09529 19.8621 6.55377L20.7293 5.88016C20.9048 5.74389 21.1206 5.66992 21.3427 5.66992L26.6573 5.66992C26.8794 5.66992 27.0952 5.74389 27.2707 5.88016L28.1379 6.55377Z" fill="#5297D1"/>
<path fill-rule="evenodd" clip-rule="evenodd" d="M29.0496 7.26188C29.5437 7.64565 29.5681 8.38375 29.1004 8.79925L24 13.3302L26 8.50005L25 5.67005L27 5.66992L29.0496 7.26188Z" fill="#5297D1"/>
<path fill-rule="evenodd" clip-rule="evenodd" d="M30 8.00005L26 8.50005L25 5.67005L27 5.66992L30 8.00005Z" fill="#A3C7E6"/>
<path fill-rule="evenodd" clip-rule="evenodd" d="M22 8.50005L24 13.3302L18.8996 8.79925C18.4319 8.38375 18.4563 7.64565 18.9504 7.26189L21 5.66992H23L22 8.50005Z" fill="#5297D1"/>
<path fill-rule="evenodd" clip-rule="evenodd" d="M22 8.50005L18 8.00005L21 5.66992L23 5.66992L22 8.50005Z" fill="#A3C7E6"/>
</g>
<path d="M37.2394 36.1172L39.1176 34.239L42.561 37.6824C43.0796 38.201 43.0796 39.0419 42.561 39.5606C42.0423 40.0792 41.2014 40.0792 40.6828 39.5606L37.2394 36.1172Z" fill="#1868AB"/>
<path d="M37.2394 36.1172L39.1176 34.239L40.8335 35.9549L38.9553 37.8331L37.2394 36.1172Z" fill="#0F5895"/>
<path opacity="0.5" d="M40.7809 31.1404C40.7809 34.8079 37.8079 37.7809 34.1404 37.7809C30.473 37.7809 27.5 34.8079 27.5 31.1404C27.5 27.473 30.473 24.5 34.1404 24.5C37.8079 24.5 40.7809 27.473 40.7809 31.1404Z" fill="#E8F1F9"/>
<path d="M39.8955 31.1404C39.8955 34.3189 37.3189 36.8955 34.1404 36.8955C30.962 36.8955 28.3854 34.3189 28.3854 31.1404C28.3854 27.962 30.962 25.3854 34.1404 25.3854C37.3189 25.3854 39.8955 27.962 39.8955 31.1404Z" stroke="#5297D1" stroke-width="1.77079"/>
</svg>
