<svg width="64" height="64" viewBox="0 0 64 64" fill="none" xmlns="http://www.w3.org/2000/svg">
<circle cx="32" cy="32" r="32" fill="url(#paint0_linear_0_11571)"/>
<path d="M52.0124 28.667H35.3337V55.3337H52.0124C53.1097 55.3337 54.0004 54.4443 54.0004 53.347V30.6537C54.0004 29.5563 53.1097 28.667 52.0124 28.667Z" fill="#64ACFA"/>
<path d="M33.4193 7.36927L12.6193 12.0293C11.8713 12.1973 11.334 12.9333 11.334 13.7866V53.5413C11.334 54.5319 12.05 55.3346 12.934 55.3346H35.334V9.1266C35.334 7.99594 34.41 7.14794 33.4193 7.36927Z" fill="#A0EFFF"/>
<path d="M32.6666 7.33398V51.334C32.6666 52.0713 32.0693 52.6673 31.3333 52.6673H11.3333V55.334H32.6666H35.3333V52.6673V7.33398H32.6666Z" fill="#64ACFA"/>
<path d="M35.3333 55.3337H37.9999V28.667H35.3333V55.3337Z" fill="#3A90ED"/>
<path fill-rule="evenodd" clip-rule="evenodd" d="M33.4193 7.36927L12.6193 12.0293C11.8713 12.1973 11.334 12.9333 11.334 13.7866V53.5413C11.334 54.5319 12.05 55.3346 12.934 55.3346H35.334V9.1266C35.334 7.99594 34.41 7.14794 33.4193 7.36927Z" stroke="#2C4C89" stroke-width="1.33333"/>
<path d="M47.9999 38H41.3333C40.2279 38 39.3333 37.104 39.3333 36C39.3333 34.896 40.2279 34 41.3333 34H47.9999C49.1053 34 49.9999 34.896 49.9999 36C49.9999 37.104 49.1053 38 47.9999 38Z" fill="#3A90ED"/>
<path fill-rule="evenodd" clip-rule="evenodd" d="M52.0124 28.667H35.3337V55.3337H52.0124C53.1097 55.3337 54.0004 54.4443 54.0004 53.347V30.6537C54.0004 29.5563 53.1097 28.667 52.0124 28.667Z" stroke="#2C4C89" stroke-width="1.33333"/>
<path fill-rule="evenodd" clip-rule="evenodd" d="M47.9999 38H41.3333C40.2279 38 39.3333 37.104 39.3333 36C39.3333 34.896 40.2279 34 41.3333 34H47.9999C49.1053 34 49.9999 34.896 49.9999 36C49.9999 37.104 49.1053 38 47.9999 38Z" stroke="#2C4C89" stroke-width="1.33333"/>
<path d="M25.7337 46H20.9324C20.0497 46 19.3337 46.716 19.3337 47.6V55.3333H27.3337V47.6C27.3337 46.716 26.6177 46 25.7337 46Z" fill="#FF8E11"/>
<path d="M25.7337 46H20.9324C20.0497 46 19.3337 46.5114 19.3337 47.1429V52.6667H27.3337V47.1429C27.3337 46.5114 26.6177 46 25.7337 46Z" fill="#FFC54F"/>
<path fill-rule="evenodd" clip-rule="evenodd" d="M25.9999 46H20.6666C19.9306 46 19.3333 46.596 19.3333 47.3333V55.3333H27.3333V47.3333C27.3333 46.596 26.7359 46 25.9999 46Z" stroke="#2C4C89" stroke-width="1.33333"/>
<path d="M47.9999 46H41.3333C40.2279 46 39.3333 45.104 39.3333 44C39.3333 42.896 40.2279 42 41.3333 42H47.9999C49.1053 42 49.9999 42.896 49.9999 44C49.9999 45.104 49.1053 46 47.9999 46Z" fill="#3A90ED"/>
<path fill-rule="evenodd" clip-rule="evenodd" d="M47.9999 46H41.3333C40.2279 46 39.3333 45.104 39.3333 44C39.3333 42.896 40.2279 42 41.3333 42H47.9999C49.1053 42 49.9999 42.896 49.9999 44C49.9999 45.104 49.1053 46 47.9999 46Z" stroke="#2C4C89" stroke-width="1.33333"/>
<path d="M28 22H18.6666C17.5613 22 16.6666 21.104 16.6666 20C16.6666 18.896 17.5613 18 18.6666 18H28C29.1053 18 30 18.896 30 20C30 21.104 29.1053 22 28 22Z" fill="#64ACFA"/>
<path fill-rule="evenodd" clip-rule="evenodd" d="M28 22H18.6666C17.5613 22 16.6666 21.104 16.6666 20C16.6666 18.896 17.5613 18 18.6666 18H28C29.1053 18 30 18.896 30 20C30 21.104 29.1053 22 28 22Z" stroke="#2C4C89" stroke-width="1.33333"/>
<path d="M28 31.334H18.6666C17.5613 31.334 16.6666 30.438 16.6666 29.334C16.6666 28.23 17.5613 27.334 18.6666 27.334H28C29.1053 27.334 30 28.23 30 29.334C30 30.438 29.1053 31.334 28 31.334Z" fill="#64ACFA"/>
<path fill-rule="evenodd" clip-rule="evenodd" d="M28 31.334H18.6666C17.5613 31.334 16.6666 30.438 16.6666 29.334C16.6666 28.23 17.5613 27.334 18.6666 27.334H28C29.1053 27.334 30 28.23 30 29.334C30 30.438 29.1053 31.334 28 31.334Z" stroke="#2C4C89" stroke-width="1.33333"/>
<path d="M28 40.667H18.6666C17.5613 40.667 16.6666 39.771 16.6666 38.667C16.6666 37.563 17.5613 36.667 18.6666 36.667H28C29.1053 36.667 30 37.563 30 38.667C30 39.771 29.1053 40.667 28 40.667Z" fill="#64ACFA"/>
<path fill-rule="evenodd" clip-rule="evenodd" d="M28 40.667H18.6666C17.5613 40.667 16.6666 39.771 16.6666 38.667C16.6666 37.563 17.5613 36.667 18.6666 36.667H28C29.1053 36.667 30 37.563 30 38.667C30 39.771 29.1053 40.667 28 40.667Z" stroke="#2C4C89" stroke-width="1.33333"/>
<defs>
<linearGradient id="paint0_linear_0_11571" x1="0" y1="0" x2="0" y2="64" gradientUnits="userSpaceOnUse">
<stop offset="0.000791807" stop-color="#DBF7FF"/>
<stop offset="1" stop-color="white"/>
</linearGradient>
</defs>
</svg>
