<svg width="48" height="48" viewBox="0 0 48 48" fill="none" xmlns="http://www.w3.org/2000/svg">
<path fill-rule="evenodd" clip-rule="evenodd" d="M8.99407 38.4772C8.4301 38.3931 8.29901 38.3592 8.18459 38.2458C8.07016 38.1323 8 37.9685 8 37.4916C8 26.0419 8 18.3284 8 15.0576C8 15.0216 8 14.98 8 14.9355C8 14.617 8.25824 14.3587 8.57679 14.3587C20.549 17.1177 30.0649 10.9433 42.0372 13.7023C42.5632 13.867 42.6736 13.98 42.772 14.0858C42.8705 14.1915 42.9621 14.461 42.962 14.6962C42.9613 23.7299 42.9613 31.2898 42.9623 37.3485C42.9623 37.5756 42.8113 37.7963 42.589 37.7496C42.5621 37.744 42.5348 37.7364 42.5075 37.7264C30.5352 34.9661 23.3634 40.6219 8.99407 38.4772Z" fill="#1868AB"/>
<path fill-rule="evenodd" clip-rule="evenodd" d="M5.99407 34.4968C5.4301 34.4159 5.29901 34.3834 5.18459 34.2744C5.07016 34.1655 5 34.0081 5 33.5501C5 22.5519 5 15.1426 5 12.0008C5 11.9725 5 11.9405 5 11.9063C5 11.5878 5.25824 11.3295 5.57679 11.3295C17.549 13.9797 27.0649 8.0488 39.0372 10.699C39.5632 10.8572 39.6736 10.9658 39.772 11.0674C39.8705 11.1689 39.9621 11.4278 39.962 11.6537C39.9613 20.3311 39.9613 27.5928 39.9623 33.4125C39.9623 33.6302 39.8176 33.8387 39.6033 33.8006C39.5718 33.795 39.5397 33.7868 39.5075 33.7755C27.5352 31.1241 20.3634 36.5568 5.99407 34.4968Z" fill="#5297D1"/>
<path fill-rule="evenodd" clip-rule="evenodd" d="M22.4813 28.9658C18.9382 28.9658 16.0659 26.0948 16.0659 22.5528C16.0659 19.0109 18.9382 16.1387 22.4813 16.1387C26.0232 16.1387 28.8942 19.0109 28.8942 22.5528C28.8942 26.0948 26.0232 28.9658 22.4813 28.9658Z" fill="white"/>
<path d="M32.1121 14.2451H36.6312" stroke="white" stroke-width="2.37474" stroke-linecap="round"/>
<path d="M8.20691 31.3251H12.726" stroke="white" stroke-width="2.37474" stroke-linecap="round"/>
</svg>
