<svg width="64" height="64" viewBox="0 0 64 64" fill="none" xmlns="http://www.w3.org/2000/svg">
<path d="M32 64C49.6731 64 64 49.6731 64 32C64 14.3269 49.6731 0 32 0C14.3269 0 0 14.3269 0 32C0 49.6731 14.3269 64 32 64Z" fill="#F1F8EC"/>
<path d="M46.74 14.0601H42.57C41.8699 14.0601 41.31 14.6201 41.31 15.3201C41.31 16.0201 41.8699 16.5801 42.57 16.5801H43.41L40.3 19.0701L29.27 14.17C28.86 13.99 28.38 14.04 28.02 14.3L14.73 23.9401C14.17 24.3501 14.04 25.1401 14.45 25.7001C14.7 26.0401 15.08 26.22 15.47 26.22C15.73 26.22 15.99 26.14 16.21 25.98L28.91 16.7601L39.97 21.6801C40.4 21.8701 40.9 21.8101 41.27 21.5101L45.48 18.1401V19.48C45.48 20.18 46.04 20.7401 46.74 20.7401C47.44 20.7401 48 20.18 48 19.48V15.3101C48 14.6101 47.44 14.05 46.74 14.05V14.0601Z" fill="#E07E26"/>
<path d="M28.75 14.42C28.87 14.42 29 14.4501 29.12 14.5001L40.35 19.4901L44.43 16.22H42.57C42.07 16.22 41.67 15.8201 41.67 15.3201C41.67 14.8201 42.07 14.42 42.57 14.42H46.74C47.24 14.42 47.64 14.8201 47.64 15.3201V19.4901C47.64 19.9901 47.24 20.3901 46.74 20.3901C46.24 20.3901 45.84 19.9901 45.84 19.4901V17.4001L41.05 21.23C40.89 21.36 40.69 21.4301 40.49 21.4301C40.37 21.4301 40.24 21.4 40.12 21.35L28.87 16.35L16 25.6901C15.84 25.8101 15.66 25.86 15.47 25.86C15.19 25.86 14.92 25.7301 14.74 25.4901C14.45 25.0901 14.54 24.52 14.94 24.23L28.23 14.5901C28.39 14.4801 28.57 14.42 28.76 14.42M28.76 13.5801C28.39 13.5801 28.04 13.69 27.74 13.91L14.45 23.55C13.67 24.11 13.5 25.2 14.06 25.98C14.39 26.43 14.91 26.7001 15.47 26.7001C15.84 26.7001 16.19 26.5901 16.49 26.3701L28.97 17.3201L39.78 22.1301C40 22.2301 40.24 22.2801 40.49 22.2801C40.88 22.2801 41.27 22.1401 41.58 21.9001L45.01 19.16V19.5001C45.01 20.4601 45.79 21.2401 46.75 21.2401C47.71 21.2401 48.49 20.4601 48.49 19.5001V15.3301C48.49 14.3701 47.71 13.5901 46.75 13.5901H42.58C41.62 13.5901 40.84 14.3701 40.84 15.3301C40.84 16.1301 41.39 16.8101 42.13 17.0101L40.24 18.5201L29.48 13.7401C29.26 13.6401 29.02 13.5901 28.77 13.5901L28.76 13.5801Z" fill="#252528"/>
<path d="M20.95 32.35H16.79C15.6357 32.35 14.7 33.2857 14.7 34.44V45.9C14.7 47.0543 15.6357 47.99 16.79 47.99H20.95C22.1042 47.99 23.04 47.0543 23.04 45.9V34.44C23.04 33.2857 22.1042 32.35 20.95 32.35Z" fill="#CC9D3F"/>
<path d="M20.95 32.35H16.79C15.6357 32.35 14.7 33.2857 14.7 34.44V42.77C14.7 43.9243 15.6357 44.86 16.79 44.86H20.95C22.1042 44.86 23.04 43.9243 23.04 42.77V34.44C23.04 33.2857 22.1042 32.35 20.95 32.35Z" fill="#FFC54F"/>
<path d="M46.21 32.35H42.05C40.8957 32.35 39.96 33.2857 39.96 34.44V45.9C39.96 47.0543 40.8957 47.99 42.05 47.99H46.21C47.3642 47.99 48.3 47.0543 48.3 45.9V34.44C48.3 33.2857 47.3642 32.35 46.21 32.35Z" fill="#CC9D3F"/>
<path d="M46.21 32.35H42.05C40.8957 32.35 39.96 33.2857 39.96 34.44V42.77C39.96 43.9243 40.8957 44.86 42.05 44.86H46.21C47.3642 44.86 48.3 43.9243 48.3 42.77V34.44C48.3 33.2857 47.3642 32.35 46.21 32.35Z" fill="#FFC54F"/>
<path d="M33.46 26.1H29.3C28.1457 26.1 27.21 27.0357 27.21 28.19V45.9C27.21 47.0543 28.1457 47.99 29.3 47.99H33.46C34.6142 47.99 35.55 47.0543 35.55 45.9V28.19C35.55 27.0357 34.6142 26.1 33.46 26.1Z" fill="#00883E"/>
<path d="M33.46 26.1H29.3C28.1457 26.1 27.21 27.0357 27.21 28.19V42.78C27.21 43.9343 28.1457 44.87 29.3 44.87H33.46C34.6142 44.87 35.55 43.9343 35.55 42.78V28.19C35.55 27.0357 34.6142 26.1 33.46 26.1Z" fill="#00AB4E"/>
<path d="M20.95 48.4099H16.78C15.4 48.4099 14.28 47.2899 14.28 45.9099V34.4399C14.28 33.0599 15.4 31.9299 16.78 31.9299H20.95C22.33 31.9299 23.45 33.0499 23.45 34.4399V45.9099C23.45 47.2899 22.33 48.4099 20.95 48.4099ZM16.78 32.77C15.86 32.77 15.12 33.5199 15.12 34.4399V45.9099C15.12 46.8299 15.87 47.5699 16.78 47.5699H20.95C21.87 47.5699 22.61 46.8199 22.61 45.9099V34.4399C22.61 33.5199 21.86 32.77 20.95 32.77H16.78Z" fill="#252528"/>
<path d="M33.46 48.4099H29.29C27.91 48.4099 26.78 47.2899 26.78 45.9099V28.1899C26.78 26.8099 27.9 25.6899 29.29 25.6899H33.46C34.84 25.6899 35.96 26.8099 35.96 28.1899V45.9099C35.96 47.2899 34.84 48.4099 33.46 48.4099ZM29.29 26.52C28.37 26.52 27.62 27.2699 27.62 28.1799V45.9C27.62 46.82 28.37 47.5599 29.29 47.5599H33.46C34.38 47.5599 35.12 46.81 35.12 45.9V28.1799C35.12 27.2599 34.37 26.52 33.46 26.52H29.29Z" fill="#252528"/>
<path d="M46.22 48.4099H42.05C40.67 48.4099 39.55 47.2899 39.55 45.9099V34.4399C39.55 33.0599 40.67 31.9299 42.05 31.9299H46.22C47.6 31.9299 48.72 33.0499 48.72 34.4399V45.9099C48.72 47.2899 47.6 48.4099 46.22 48.4099ZM42.05 32.77C41.13 32.77 40.39 33.5199 40.39 34.4399V45.9099C40.39 46.8299 41.14 47.5699 42.05 47.5699H46.22C47.14 47.5699 47.88 46.8199 47.88 45.9099V34.4399C47.88 33.5199 47.13 32.77 46.22 32.77H42.05Z" fill="#252528"/>
<path d="M42.7699 49.7899C41.2499 48.8999 40.0999 47.4299 39.6199 45.6899C39.4599 45.1099 39.3699 44.4899 39.3699 43.8499C39.3699 40.0399 42.4499 36.96 46.2599 36.96C50.0699 36.96 53.1499 40.0399 53.1499 43.8499C53.1499 47.6599 50.0699 50.7399 46.2599 50.7399C44.9799 50.7399 43.7999 50.3999 42.7699 49.7899Z" fill="#00AB4E"/>
<path d="M46.2499 51.18C44.9399 51.18 43.6599 50.83 42.5399 50.17C40.8899 49.2 39.6999 47.65 39.1899 45.81C39.0099 45.18 38.9199 44.52 38.9199 43.85C38.9199 39.81 42.2099 36.52 46.2499 36.52C50.2899 36.52 53.5799 39.81 53.5799 43.85C53.5799 47.89 50.2899 51.18 46.2499 51.18ZM46.2499 37.4C42.6999 37.4 39.8099 40.29 39.8099 43.84C39.8099 44.43 39.8899 45.01 40.0399 45.56C40.4899 47.18 41.5399 48.54 42.9899 49.4C43.9799 49.98 45.0999 50.29 46.2499 50.29C49.7999 50.29 52.6899 47.4 52.6899 43.85C52.6899 40.3 49.7999 37.41 46.2499 37.41V37.4Z" fill="white"/>
<path d="M46.2499 47.4899C45.7599 47.4899 45.3599 47.0899 45.3599 46.5999V41.09C45.3599 40.6 45.7599 40.2 46.2499 40.2C46.7399 40.2 47.1399 40.6 47.1399 41.09V46.5999C47.1399 47.0899 46.7399 47.4899 46.2499 47.4899Z" fill="white"/>
<path d="M49.0099 44.7399H43.4999C43.0099 44.7399 42.6099 44.3399 42.6099 43.8499C42.6099 43.3599 43.0099 42.96 43.4999 42.96H49.0099C49.4999 42.96 49.8999 43.3599 49.8999 43.8499C49.8999 44.3399 49.4999 44.7399 49.0099 44.7399Z" fill="white"/>
<path d="M46.25 52.0099C41.75 52.0099 38.09 48.3499 38.09 43.8499C38.09 39.3499 41.75 35.6899 46.25 35.6899C50.75 35.6899 54.41 39.3499 54.41 43.8499C54.41 48.3499 50.75 52.0099 46.25 52.0099ZM46.25 36.5499C42.22 36.5499 38.95 39.8299 38.95 43.8499C38.95 47.8699 42.23 51.15 46.25 51.15C50.27 51.15 53.55 47.8699 53.55 43.8499C53.55 39.8299 50.27 36.5499 46.25 36.5499Z" fill="#252528"/>
</svg>
