<svg width="48" height="48" viewBox="0 0 48 48" fill="none" xmlns="http://www.w3.org/2000/svg">
<path fill-rule="evenodd" clip-rule="evenodd" d="M21.9995 37.9315C20.9271 38.0555 7.9479 38.0555 6.87636 37.9315C6.3119 37.8665 5.91956 37.4067 6.01406 36.9131C6.13978 36.2617 6.39037 35.1548 6.89576 33.339C7.48975 31.2027 7.90825 30.1885 8.15124 29.716C8.28455 29.457 8.54527 29.2705 8.86251 29.2149C9.53919 29.095 19.3358 29.095 20.0125 29.2149C20.3297 29.2705 20.5904 29.457 20.7238 29.716C20.9668 30.1885 21.3852 31.2027 21.9792 33.339C22.4846 35.1548 22.7361 36.2617 22.8609 36.9131C22.9554 37.4067 22.5631 37.8665 21.9995 37.9315Z" fill="#CC9D3F"/>
<mask id="mask0_868_562" style="mask-type:alpha" maskUnits="userSpaceOnUse" x="6" y="29" width="17" height="10">
<path fill-rule="evenodd" clip-rule="evenodd" d="M21.9995 37.9315C20.9271 38.0555 7.9479 38.0555 6.87636 37.9315C6.3119 37.8665 5.91956 37.4067 6.01406 36.9131C6.13978 36.2617 6.39037 35.1548 6.89576 33.339C7.48975 31.2027 7.90825 30.1885 8.15124 29.716C8.28455 29.457 8.54527 29.2705 8.86251 29.2149C9.53919 29.095 19.3358 29.095 20.0125 29.2149C20.3297 29.2705 20.5904 29.457 20.7238 29.716C20.9668 30.1885 21.3852 31.2027 21.9792 33.339C22.4846 35.1548 22.7361 36.2617 22.8609 36.9131C22.9554 37.4067 22.5631 37.8665 21.9995 37.9315Z" fill="white"/>
</mask>
<g mask="url(#mask0_868_562)">
<path fill-rule="evenodd" clip-rule="evenodd" d="M19.187 36.995C18.1146 37.119 5.1354 37.119 4.06386 36.995C3.4994 36.93 3.10706 36.4702 3.20156 35.9766C3.32728 35.3252 3.57787 34.2182 4.08326 32.4025C4.67725 30.2662 5.09575 29.252 5.33874 28.7795C5.47205 28.5205 5.73277 28.334 6.05001 28.2783C6.72669 28.1585 16.5233 28.1585 17.2 28.2783C17.5172 28.334 17.7779 28.5205 17.9113 28.7795C18.1543 29.252 18.5727 30.2662 19.1667 32.4025C19.6721 34.2182 19.9236 35.3252 20.0484 35.9766C20.1429 36.4702 19.7506 36.93 19.187 36.995Z" fill="#FFC54F"/>
</g>
<path fill-rule="evenodd" clip-rule="evenodd" d="M40.7495 37.9315C39.6772 38.0555 26.698 38.0555 25.6264 37.9315C25.062 37.8665 24.6696 37.4067 24.7641 36.9131C24.8898 36.2617 25.1404 35.1548 25.6458 33.339C26.2398 31.2027 26.6583 30.1885 26.9013 29.716C27.0346 29.457 27.2953 29.2705 27.6126 29.2149C28.2893 29.095 38.0859 29.095 38.7625 29.2149C39.0798 29.2705 39.3405 29.457 39.4738 29.716C39.7168 30.1885 40.1353 31.2027 40.7293 33.339C41.2347 35.1548 41.4861 36.2617 41.611 36.9131C41.7055 37.4067 41.3132 37.8665 40.7495 37.9315Z" fill="#CC9D3F"/>
<mask id="mask1_868_562" style="mask-type:alpha" maskUnits="userSpaceOnUse" x="24" y="29" width="18" height="10">
<path fill-rule="evenodd" clip-rule="evenodd" d="M40.7495 37.9315C39.6772 38.0555 26.698 38.0555 25.6264 37.9315C25.062 37.8665 24.6696 37.4067 24.7641 36.9131C24.8898 36.2617 25.1404 35.1548 25.6458 33.339C26.2398 31.2027 26.6583 30.1885 26.9013 29.716C27.0346 29.457 27.2953 29.2705 27.6126 29.2149C28.2893 29.095 38.0859 29.095 38.7625 29.2149C39.0798 29.2705 39.3405 29.457 39.4738 29.716C39.7168 30.1885 40.1353 31.2027 40.7293 33.339C41.2347 35.1548 41.4861 36.2617 41.611 36.9131C41.7055 37.4067 41.3132 37.8665 40.7495 37.9315Z" fill="white"/>
</mask>
<g mask="url(#mask1_868_562)">
<path fill-rule="evenodd" clip-rule="evenodd" d="M37.937 36.995C36.8647 37.119 23.8855 37.119 22.8139 36.995C22.2495 36.93 21.8571 36.4702 21.9516 35.9766C22.0773 35.3252 22.3279 34.2182 22.8333 32.4025C23.4273 30.2662 23.8458 29.252 24.0888 28.7795C24.2221 28.5205 24.4828 28.334 24.8001 28.2783C25.4768 28.1585 35.2734 28.1585 35.95 28.2783C36.2673 28.334 36.528 28.5205 36.6613 28.7795C36.9043 29.252 37.3228 30.2662 37.9168 32.4025C38.4222 34.2182 38.6736 35.3252 38.7985 35.9766C38.893 36.4702 38.5007 36.93 37.937 36.995Z" fill="#FFC54F"/>
</g>
<path fill-rule="evenodd" clip-rule="evenodd" d="M31.3744 26.6815C30.302 26.8055 17.3228 26.8055 16.2513 26.6815C15.6868 26.6165 15.2945 26.1567 15.389 25.6631C15.5147 25.0117 15.7653 23.9048 16.2707 22.089C16.8647 19.9527 17.2832 18.9385 17.5262 18.466C17.6595 18.207 17.9202 18.0205 18.2375 17.9649C18.9141 17.845 28.7107 17.845 29.3874 17.9649C29.7047 18.0205 29.9654 18.207 30.0987 18.466C30.3417 18.9385 30.7602 19.9527 31.3542 22.089C31.8596 23.9048 32.111 25.0117 32.2359 25.6631C32.3304 26.1567 31.938 26.6165 31.3744 26.6815Z" stroke="#FFC54F" stroke-linecap="round" stroke-dasharray="1 2"/>
<mask id="mask2_868_562" style="mask-type:alpha" maskUnits="userSpaceOnUse" x="14" y="17" width="19" height="11">
<path fill-rule="evenodd" clip-rule="evenodd" d="M31.3744 26.6815C30.302 26.8055 17.3228 26.8055 16.2513 26.6815C15.6868 26.6165 15.2945 26.1567 15.389 25.6631C15.5147 25.0117 15.7653 23.9048 16.2707 22.089C16.8647 19.9527 17.2832 18.9385 17.5262 18.466C17.6595 18.207 17.9202 18.0205 18.2375 17.9649C18.9141 17.845 28.7107 17.845 29.3874 17.9649C29.7047 18.0205 29.9654 18.207 30.0987 18.466C30.3417 18.9385 30.7602 19.9527 31.3542 22.089C31.8596 23.9048 32.111 25.0117 32.2359 25.6631C32.3304 26.1567 31.938 26.6165 31.3744 26.6815Z" stroke="white" stroke-linecap="round" stroke-dasharray="1 2"/>
</mask>
<g mask="url(#mask2_868_562)">
</g>
<path d="M41.5 17.3125C41.5 21.0753 38.4503 24.125 34.6875 24.125C30.9247 24.125 27.875 21.0753 27.875 17.3125C27.875 13.5497 30.9247 10.5 34.6875 10.5C38.4503 10.5 41.5 13.5497 41.5 17.3125Z" fill="#00AB4E" stroke="white"/>
<path d="M34.6875 13.6562L34.6875 17.7695L36.9727 19.1406" stroke="white" stroke-width="1.5" stroke-linecap="round" stroke-linejoin="round"/>
</svg>
