<svg width="48" height="48" viewBox="0 0 48 48" fill="none" xmlns="http://www.w3.org/2000/svg">
<rect x="5" y="11" width="38" height="26" rx="4" fill="#1868AB"/>
<rect x="8" y="14" width="32" height="20" rx="3" fill="#5297D1"/>
<path fill-rule="evenodd" clip-rule="evenodd" d="M21 24C21 26.762 18.761 29 16 29C13.239 29 11 26.762 11 24C11 21.238 13.239 19 16 19C18.761 19 21 21.238 21 24Z" fill="#FFC54F"/>
<path fill-rule="evenodd" clip-rule="evenodd" d="M19.5 24C19.5 25.9334 17.9327 27.5 16 27.5C14.0673 27.5 12.5 25.9334 12.5 24C12.5 22.0666 14.0673 20.5 16 20.5C17.9327 20.5 19.5 22.0666 19.5 24Z" fill="#CC9D3F"/>
<rect x="15" y="20" width="2" height="8" fill="#FFC54F"/>
<rect x="42" y="17" width="4" height="5" rx="1" transform="rotate(90 42 17)" fill="#0B4270"/>
<mask id="mask0_801_6791" style="mask-type:alpha" maskUnits="userSpaceOnUse" x="37" y="17" width="5" height="4">
<rect x="42" y="17" width="4" height="5" rx="1" transform="rotate(90 42 17)" fill="white"/>
</mask>
<g mask="url(#mask0_801_6791)">
<rect x="41" y="17" width="4" height="4" rx="1" transform="rotate(90 41 17)" fill="#0F5895"/>
</g>
<rect x="42" y="27" width="4" height="5" rx="1" transform="rotate(90 42 27)" fill="#0B4270"/>
<mask id="mask1_801_6791" style="mask-type:alpha" maskUnits="userSpaceOnUse" x="37" y="27" width="5" height="4">
<rect x="42" y="27" width="4" height="5" rx="1" transform="rotate(90 42 27)" fill="white"/>
</mask>
<g mask="url(#mask1_801_6791)">
<rect x="41" y="27" width="4" height="4" rx="1" transform="rotate(90 41 27)" fill="#0F5895"/>
</g>
<rect x="24" y="26.5" width="3" height="3" rx="1" fill="white"/>
<rect x="28" y="26.5" width="3" height="3" rx="1" fill="white"/>
<rect x="32" y="26.5" width="3" height="3" rx="1" fill="white"/>
<rect x="32" y="22.5" width="3" height="3" rx="1" fill="white"/>
<rect x="28" y="22.5" width="3" height="3" rx="1" fill="white"/>
<rect x="24" y="22.5" width="3" height="3" rx="1" fill="white"/>
<rect x="24" y="18.5" width="3" height="3" rx="1" fill="white"/>
<rect x="28" y="18.5" width="3" height="3" rx="1" fill="white"/>
<rect x="32" y="18.5" width="3" height="3" rx="1" fill="white"/>
</svg>
