<svg width="48" height="48" viewBox="0 0 48 48" fill="none" xmlns="http://www.w3.org/2000/svg">
<rect x="11" y="8" width="29" height="31" rx="4" fill="#00883E"/>
<rect x="8" y="8" width="29" height="31" rx="4" fill="#00AB4E"/>
<path d="M8 12C8 9.79086 9.79086 8 12 8H22V39H12C9.79086 39 8 37.2091 8 35V12Z" fill="#40BD63"/>
<rect x="25" y="15" width="10" height="2" rx="1" fill="#00883E"/>
<rect x="10" y="15" width="10" height="2" rx="1" fill="#00883E"/>
<rect x="25" y="19" width="10" height="2" rx="1" fill="#00883E"/>
<rect x="10" y="19" width="10" height="2" rx="1" fill="#00883E"/>
<rect x="25" y="24" width="3" height="3" rx="1.5" fill="#00883E"/>
<rect x="10" y="24" width="3" height="3" rx="1.5" fill="#00883E"/>
<path fill-rule="evenodd" clip-rule="evenodd" d="M29 28.5094C29 27.9195 29.3698 27.3928 29.9247 27.1926L35.5247 25.1715C35.8319 25.0607 36.1681 25.0607 36.4753 25.1715L42.0753 27.1926C42.6302 27.3928 43 27.9195 43 28.5094V33.8421C43 33.8421 42.6846 36.5594 40.8125 38.4737C39.3118 40.0082 37.1245 40.7059 36.3158 40.9224C36.1082 40.9779 35.8936 40.9727 35.6872 40.9127C34.7594 40.6427 32.0095 39.7616 30.75 38.4737C29.2219 36.9111 29 33.8421 29 33.8421V28.5094Z" fill="#CC9D3F"/>
<path fill-rule="evenodd" clip-rule="evenodd" d="M30 29.0473C30 28.5445 30.3134 28.0951 30.7852 27.9213L35.5852 26.1528C35.8529 26.0542 36.1471 26.0542 36.4148 26.1528L41.2148 27.9213C41.6866 28.0951 42 28.5445 42 29.0473V33.7368C42 33.7368 41.7296 36.1145 40.125 37.7895C38.5204 39.4645 36 40 36 40C36 40 32.8098 39.1567 31.5 37.7895C30.1902 36.4222 30 33.7368 30 33.7368V29.0473Z" fill="#FFC54F"/>
<path fill-rule="evenodd" clip-rule="evenodd" d="M39.8924 30.2079C40.3025 30.618 40.3025 31.2828 39.8924 31.6929L35.6924 35.8929C35.2824 36.3029 34.6176 36.3029 34.2075 35.8929L32.1075 33.7929C31.6975 33.3828 31.6975 32.718 32.1075 32.3079C32.5176 31.8979 33.1824 31.8979 33.5924 32.3079L34.95 33.6655L38.4075 30.2079C38.8176 29.7979 39.4824 29.7979 39.8924 30.2079Z" fill="white"/>
</svg>
