<svg width="36" height="36" viewBox="0 0 36 36" fill="none" xmlns="http://www.w3.org/2000/svg">
<path fill-rule="evenodd" clip-rule="evenodd" d="M18 33C26.2843 33 33 26.2843 33 18C33 9.71573 26.2843 3 18 3C9.71573 3 3 9.71573 3 18C3 26.2843 9.71573 33 18 33ZM23.7281 13.9284C24.3478 13.8497 24.9422 13.6875 25.5 13.4428C25.0819 14.0653 24.5691 14.6062 23.9587 15.0394C23.9653 15.1697 23.97 15.3009 23.97 15.4369C23.97 19.5 20.8763 24.1875 15.2175 24.1875C13.4766 24.1875 11.8622 23.6859 10.5 22.8075C10.7419 22.8384 10.9837 22.8497 11.2359 22.8497C12.6741 22.8497 14.0025 22.3566 15.0487 21.5381C13.7044 21.5091 12.5737 20.6138 12.1753 19.3959C12.3619 19.4372 12.5606 19.4484 12.7575 19.4484C13.0406 19.4484 13.3134 19.4156 13.5638 19.3472C12.1659 19.0613 11.1 17.82 11.1 16.3256V16.2919C11.5106 16.5178 11.9953 16.6613 12.4894 16.6706C11.6719 16.1241 11.1234 15.18 11.1234 14.115C11.1234 13.5478 11.2791 13.0209 11.5444 12.5606C13.0641 14.4272 15.3263 15.6525 17.8828 15.7772C17.8322 15.5541 17.8116 15.3197 17.8116 15.0759C17.8116 13.3819 19.1822 12 20.8847 12C21.7622 12 22.5666 12.3722 23.1309 12.9731C23.8303 12.8334 24.4866 12.5831 25.0809 12.2288C24.8522 12.9497 24.3656 13.5478 23.7281 13.9284Z" fill="#00AB4E"/>
<mask id="mask0_0_6274" style="mask-type:alpha" maskUnits="userSpaceOnUse" x="3" y="3" width="30" height="30">
<path fill-rule="evenodd" clip-rule="evenodd" d="M18 33C26.2843 33 33 26.2843 33 18C33 9.71573 26.2843 3 18 3C9.71573 3 3 9.71573 3 18C3 26.2843 9.71573 33 18 33ZM23.7281 13.9284C24.3478 13.8497 24.9422 13.6875 25.5 13.4428C25.0819 14.0653 24.5691 14.6062 23.9587 15.0394C23.9653 15.1697 23.97 15.3009 23.97 15.4369C23.97 19.5 20.8763 24.1875 15.2175 24.1875C13.4766 24.1875 11.8622 23.6859 10.5 22.8075C10.7419 22.8384 10.9837 22.8497 11.2359 22.8497C12.6741 22.8497 14.0025 22.3566 15.0487 21.5381C13.7044 21.5091 12.5737 20.6138 12.1753 19.3959C12.3619 19.4372 12.5606 19.4484 12.7575 19.4484C13.0406 19.4484 13.3134 19.4156 13.5638 19.3472C12.1659 19.0613 11.1 17.82 11.1 16.3256V16.2919C11.5106 16.5178 11.9953 16.6613 12.4894 16.6706C11.6719 16.1241 11.1234 15.18 11.1234 14.115C11.1234 13.5478 11.2791 13.0209 11.5444 12.5606C13.0641 14.4272 15.3263 15.6525 17.8828 15.7772C17.8322 15.5541 17.8116 15.3197 17.8116 15.0759C17.8116 13.3819 19.1822 12 20.8847 12C21.7622 12 22.5666 12.3722 23.1309 12.9731C23.8303 12.8334 24.4866 12.5831 25.0809 12.2288C24.8522 12.9497 24.3656 13.5478 23.7281 13.9284Z" fill="white"/>
</mask>
<g mask="url(#mask0_0_6274)">
<rect width="36" height="36" fill="#00AB4E"/>
</g>
</svg>
