<svg width="21" height="20" viewBox="0 0 21 20" fill="none" xmlns="http://www.w3.org/2000/svg">
<path fill-rule="evenodd" clip-rule="evenodd" d="M10.4998 1.66663C15.1022 1.66663 18.8332 5.39759 18.8332 9.99996C18.8332 14.6023 15.1022 18.3333 10.4998 18.3333C5.89746 18.3333 2.1665 14.6023 2.1665 9.99996C2.1665 5.39759 5.89746 1.66663 10.4998 1.66663ZM10.4998 3.83329C7.09408 3.83329 4.33317 6.5942 4.33317 9.99996C4.33317 13.4057 7.09408 16.1666 10.4998 16.1666C13.9056 16.1666 16.6665 13.4057 16.6665 9.99996C16.6665 6.5942 13.9056 3.83329 10.4998 3.83329ZM10.7082 8.74996C11.2475 8.74996 11.6911 9.15985 11.7445 9.68512L11.7498 9.79163V13.5416C11.7498 14.1169 11.2835 14.5833 10.7082 14.5833C10.1688 14.5833 9.72523 14.1734 9.67188 13.6481L9.6665 13.5416V10.8333H9.45817C8.91883 10.8333 8.47523 10.4234 8.42188 9.89813L8.4165 9.79163C8.4165 9.25229 8.8264 8.80868 9.35167 8.75534L9.45817 8.74996H10.7082ZM10.4165 8.16663C11.0608 8.16663 11.5832 7.64429 11.5832 6.99996C11.5832 6.35563 11.0608 5.83329 10.4165 5.83329C9.77217 5.83329 9.24984 6.35563 9.24984 6.99996C9.24984 7.64429 9.77217 8.16663 10.4165 8.16663Z" fill="white"/>
</svg>
