<svg width="24" height="24" viewBox="0 0 24 24" fill="none" xmlns="http://www.w3.org/2000/svg">
<g id="icon system/H/Help">
<path id="help" fill-rule="evenodd" clip-rule="evenodd" d="M12 3C7.02571 3 3 7.02525 3 12C3 16.9742 7.02525 21 12 21C16.9743 21 21 16.9748 21 12C21 7.02571 16.9748 3 12 3ZM12 19.7442C7.72985 19.7442 4.25582 16.2702 4.25582 12C4.25582 7.72982 7.72985 4.25582 12 4.25582C16.2702 4.25582 19.7442 7.72982 19.7442 12C19.7442 16.2702 16.2702 19.7442 12 19.7442ZM11.8877 7.48133C10.2883 7.48133 9.55386 8.42911 9.55386 9.06881C9.55386 9.53084 9.9448 9.74409 10.2647 9.74409C10.5341 9.74409 10.6438 9.58228 10.7709 9.39495C10.9454 9.1375 11.1527 8.83186 11.8521 8.83186C12.4444 8.83186 12.9184 9.09251 12.9184 9.63746C12.9184 10.1609 12.4742 10.5019 12.0985 10.7903L12.0985 10.7903C12.0151 10.8544 11.935 10.9158 11.864 10.9761C11.5204 11.2722 11.0703 11.758 11.0703 12.7768C11.0703 13.3928 11.2361 13.5705 11.7218 13.5705C12.3023 13.5705 12.4207 13.3099 12.4207 13.0848C12.4207 12.4688 12.4326 12.1134 13.0842 11.604C13.404 11.3552 14.411 10.5496 14.411 9.43602C14.411 8.32244 13.404 7.48133 11.8877 7.48133ZM11.7337 14.388C11.2361 14.388 10.8333 14.8026 10.8333 15.3001C10.8333 15.7859 11.2243 16.2124 11.7337 16.2124C12.2431 16.2124 12.6459 15.7859 12.6459 15.3001C12.6459 14.8026 12.2312 14.388 11.7337 14.388Z" fill="black"/>
<mask id="mask0_0_5665" style="mask-type:alpha" maskUnits="userSpaceOnUse" x="3" y="3" width="18" height="18">
<path id="help_2" fill-rule="evenodd" clip-rule="evenodd" d="M12 3C7.02571 3 3 7.02525 3 12C3 16.9742 7.02525 21 12 21C16.9743 21 21 16.9748 21 12C21 7.02571 16.9748 3 12 3ZM12 19.7442C7.72985 19.7442 4.25582 16.2702 4.25582 12C4.25582 7.72982 7.72985 4.25582 12 4.25582C16.2702 4.25582 19.7442 7.72982 19.7442 12C19.7442 16.2702 16.2702 19.7442 12 19.7442ZM11.8877 7.48133C10.2883 7.48133 9.55386 8.42911 9.55386 9.06881C9.55386 9.53084 9.9448 9.74409 10.2647 9.74409C10.5341 9.74409 10.6438 9.58228 10.7709 9.39495C10.9454 9.1375 11.1527 8.83186 11.8521 8.83186C12.4444 8.83186 12.9184 9.09251 12.9184 9.63746C12.9184 10.1609 12.4742 10.5019 12.0985 10.7903L12.0985 10.7903C12.0151 10.8544 11.935 10.9158 11.864 10.9761C11.5204 11.2722 11.0703 11.758 11.0703 12.7768C11.0703 13.3928 11.2361 13.5705 11.7218 13.5705C12.3023 13.5705 12.4207 13.3099 12.4207 13.0848C12.4207 12.4688 12.4326 12.1134 13.0842 11.604C13.404 11.3552 14.411 10.5496 14.411 9.43602C14.411 8.32244 13.404 7.48133 11.8877 7.48133ZM11.7337 14.388C11.2361 14.388 10.8333 14.8026 10.8333 15.3001C10.8333 15.7859 11.2243 16.2124 11.7337 16.2124C12.2431 16.2124 12.6459 15.7859 12.6459 15.3001C12.6459 14.8026 12.2312 14.388 11.7337 14.388Z" fill="white"/>
</mask>
<g mask="url(#mask0_0_5665)">
<g id="Color/1. Shades/2. Secondary">
<rect id="color" width="24" height="24" fill="#58585B"/>
</g>
</g>
</g>
</svg>
