<svg width="26" height="24" viewBox="0 0 26 24" fill="none" xmlns="http://www.w3.org/2000/svg">
<g id="icon system/NAVBAR/Home/Idle">
<path id="Fill 1" fill-rule="evenodd" clip-rule="evenodd" d="M23.1214 13.7713L21.994 13.843L22.0019 14.5582L22.0031 15.0209L21.9981 15.9893C21.9765 18.0316 21.8863 19.7095 21.7479 20.9896C21.6033 22.4253 20.5734 23.5855 19.2139 23.7579C18.364 23.862 17.3241 23.945 16.0971 23.9981C15.0084 24.046 14.0843 23.2147 14.006 22.1434L14.0006 21.9959V18.1718C14.0006 17.6138 13.633 17.1363 13.1757 17.0593C12.5949 16.9614 12.0689 17.3755 12.0054 17.9364L11.999 18.0505V21.9959C11.999 23.1373 11.0407 24.0482 9.90336 23.9981C8.67547 23.945 7.63562 23.862 6.78153 23.7573C5.42624 23.5855 4.39628 22.4253 4.25241 20.9968L4.1918 20.3754C4.07778 19.0772 4.00787 17.4484 3.99779 15.5116L3.99774 14.5582L4.005 13.843L3.13693 13.7893L2.87816 13.7713C1.15786 13.648 0.394097 11.5829 1.55117 10.3665L1.66168 10.2583L10.9346 1.80354C12.0581 0.776803 13.7449 0.734023 14.9146 1.67451L15.0641 1.80276L24.3381 10.2585C25.651 11.4561 24.8947 13.6443 23.1214 13.7713ZM22.9935 11.7686L22.9985 11.7527L22.9904 11.7362L13.7158 3.27988C13.3388 2.93542 12.7856 2.90892 12.3809 3.201L12.283 3.28066L3.00934 11.7361C2.99391 11.7502 3.00253 11.7751 3.02125 11.7764L3.81637 11.8284C4.1971 11.8511 4.61522 11.8734 5.07434 11.8954C5.6195 11.9215 6.04305 12.3799 6.02605 12.9254C6.01034 13.4295 6.00087 13.9794 5.99771 14.5702L5.99652 15.0209C5.99652 17.4378 6.08869 19.3737 6.24159 20.7892C6.29646 21.3339 6.64249 21.7237 7.02895 21.7727C7.82471 21.8702 8.8125 21.9491 9.99057 22L9.99898 21.9959V18.0505C9.99898 16.2026 11.6615 14.7758 13.5079 15.0871C14.9099 15.3231 15.9173 16.5683 15.9957 17.9929L16.0006 18.1718V21.9959L16.0099 22C17.1871 21.9491 18.1749 21.8702 18.9665 21.7732C19.3571 21.7237 19.7031 21.3339 19.7588 20.782C19.9109 19.3737 20.0031 17.4378 20.0031 15.0209L19.9983 14.1348C19.9936 13.7073 19.9853 13.3034 19.9736 12.9254C19.9566 12.3799 20.3801 11.9215 20.9253 11.8954L22.1832 11.8284L22.9783 11.7764L22.9935 11.7686Z" fill="#58585B"/>
</g>
</svg>
