<svg width="24" height="24" viewBox="0 0 24 24" fill="none" xmlns="http://www.w3.org/2000/svg">
<g id="icon system/C/Cross/Round">
<g id="round">
<circle id="Combined Shape" cx="12" cy="12" r="9.54545" stroke="#CACCCF" stroke-width="0.909091"/>
<mask id="mask0_0_5370" style="mask-type:alpha" maskUnits="userSpaceOnUse" x="2" y="2" width="20" height="20">
<circle id="Combined Shape_2" cx="12" cy="12" r="9.54545" fill="white" stroke="white" stroke-width="0.909091"/>
</mask>
<g mask="url(#mask0_0_5370)">
<g id="round_color">
<rect id="color" width="24" height="24" fill="#58585B"/>
</g>
<g id="Icon System/C/Cross/Outline">
<path id="Combined Shape_3" fill-rule="evenodd" clip-rule="evenodd" d="M9.31876 8.18384C9.00205 7.92238 8.53245 7.93981 8.23613 8.23613C7.92129 8.55097 7.92129 9.06143 8.23613 9.37627L11.1932 12.3333L8.23613 15.2904C7.92129 15.6052 7.92129 16.1157 8.23613 16.4305C8.53245 16.7269 9.00205 16.7443 9.31876 16.4828L9.37627 16.4305L12.3333 13.4735L15.2904 16.4305L15.3479 16.4828C15.6646 16.7443 16.1342 16.7269 16.4305 16.4305C16.7454 16.1157 16.7454 15.6052 16.4305 15.2904L13.4735 12.3333L16.4305 9.37627C16.7454 9.06143 16.7454 8.55097 16.4305 8.23613C16.1342 7.93981 15.6646 7.92238 15.3479 8.18384L15.2904 8.23613L12.3333 11.1932L9.37627 8.23613L9.31876 8.18384Z" fill="#70717D"/>
<mask id="mask1_0_5370" style="mask-type:alpha" maskUnits="userSpaceOnUse" x="8" y="8" width="9" height="9">
<path id="Combined Shape_4" fill-rule="evenodd" clip-rule="evenodd" d="M9.31876 8.18384C9.00205 7.92238 8.53245 7.93981 8.23613 8.23613C7.92129 8.55097 7.92129 9.06143 8.23613 9.37627L11.1932 12.3333L8.23613 15.2904C7.92129 15.6052 7.92129 16.1157 8.23613 16.4305C8.53245 16.7269 9.00205 16.7443 9.31876 16.4828L9.37627 16.4305L12.3333 13.4735L15.2904 16.4305L15.3479 16.4828C15.6646 16.7443 16.1342 16.7269 16.4305 16.4305C16.7454 16.1157 16.7454 15.6052 16.4305 15.2904L13.4735 12.3333L16.4305 9.37627C16.7454 9.06143 16.7454 8.55097 16.4305 8.23613C16.1342 7.93981 15.6646 7.92238 15.3479 8.18384L15.2904 8.23613L12.3333 11.1932L9.37627 8.23613L9.31876 8.18384Z" fill="white"/>
</mask>
<g mask="url(#mask1_0_5370)">
<g id="color/White">
<rect width="16" height="16" transform="translate(4 4)" fill="white"/>
<rect id="color_2" x="4" y="4" width="16" height="16" fill="white"/>
</g>
</g>
</g>
</g>
</g>
</g>
</svg>
