<svg width="24" height="24" viewBox="0 0 24 24" fill="none" xmlns="http://www.w3.org/2000/svg">
<g id="icon system/R/Reverese">
<path id="Icon" fill-rule="evenodd" clip-rule="evenodd" d="M6.39397 6.64297L8.87397 4.16297C9.04286 3.99408 9.32731 3.99408 9.4962 4.16297L11.9762 6.64297C12.2606 6.91852 12.0651 7.39852 11.6651 7.39852H10.074V12.7407C10.074 13.2296 9.67397 13.6296 9.18509 13.6296C8.6962 13.6296 8.2962 13.2296 8.2962 12.7407V7.39852H6.70509C6.30509 7.39852 6.10953 6.91852 6.39397 6.64297ZM15.4073 10.963V16.3052H17.0073C17.3984 16.3052 17.6029 16.7852 17.3184 17.0607L14.8384 19.5319C14.6606 19.7007 14.3851 19.7007 14.2073 19.5319L11.7273 17.0607C11.4429 16.7852 11.6384 16.3052 12.0384 16.3052H13.6295V10.963C13.6295 10.4741 14.0295 10.0741 14.5184 10.0741C15.0073 10.0741 15.4073 10.4741 15.4073 10.963Z" fill="#70717D"/>
<mask id="mask0_0_6171" style="mask-type:alpha" maskUnits="userSpaceOnUse" x="6" y="4" width="12" height="16">
<path id="Icon_2" fill-rule="evenodd" clip-rule="evenodd" d="M6.39397 6.64297L8.87397 4.16297C9.04286 3.99408 9.32731 3.99408 9.4962 4.16297L11.9762 6.64297C12.2606 6.91852 12.0651 7.39852 11.6651 7.39852H10.074V12.7407C10.074 13.2296 9.67397 13.6296 9.18509 13.6296C8.6962 13.6296 8.2962 13.2296 8.2962 12.7407V7.39852H6.70509C6.30509 7.39852 6.10953 6.91852 6.39397 6.64297ZM15.4073 10.963V16.3052H17.0073C17.3984 16.3052 17.6029 16.7852 17.3184 17.0607L14.8384 19.5319C14.6606 19.7007 14.3851 19.7007 14.2073 19.5319L11.7273 17.0607C11.4429 16.7852 11.6384 16.3052 12.0384 16.3052H13.6295V10.963C13.6295 10.4741 14.0295 10.0741 14.5184 10.0741C15.0073 10.0741 15.4073 10.4741 15.4073 10.963Z" fill="white"/>
</mask>
<g mask="url(#mask0_0_6171)">
<g id="Color/1. Shades/2. Secondary">
<rect id="color" width="24" height="24" fill="#58585B"/>
</g>
</g>
</g>
</svg>
