<svg width="48" height="48" viewBox="0 0 48 48" fill="none" xmlns="http://www.w3.org/2000/svg">
<g id="icon product/Sub-Menu/Aneka Jasa/Jasa Sertifikasi">
<g id="Group">
<path id="Rectangle" fill-rule="evenodd" clip-rule="evenodd" d="M10 10C10 7.79086 11.7909 6 14 6L40 6L39.9971 6.95014C38.3423 6.94861 37 8.28965 37 9.94444V38C37 40.2091 35.2091 42 33 42H10V10Z" fill="#5297D1"/>
<path id="Rectangle_2" fill-rule="evenodd" clip-rule="evenodd" d="M37 9C37 7.34315 38.3431 6 40 6C41.6569 6 43 7.34315 43 9V12C43 12.5523 42.5523 13 42 13H37V9Z" fill="#1868AB"/>
<path id="Rectangle_3" fill-rule="evenodd" clip-rule="evenodd" d="M5 38.0004C5 40.2096 6.79086 42.0004 9 42.0004H37L34.0009 42.0011C31.7914 42.0016 30 40.2106 30 38.0011V36.0004C30 35.4481 29.5523 35.0004 29 35.0004H6C5.44772 35.0004 5 35.4481 5 36.0004V38.0004Z" fill="#1868AB"/>
</g>
<path id="Subtract" d="M10 18.6601L13.256 22.1718C13.6533 22.6141 14.3466 22.6141 14.7439 22.1718L23.358 12.5817C23.7166 12.1824 23.6961 11.5712 23.3115 11.1968L19.2911 7.28342C19.1044 7.10169 18.8542 7 18.5936 7H10V18.6601Z" fill="#1868AB"/>
<g id="Group 106">
<rect id="Rectangle_4" x="17" y="20" width="14" height="3" rx="1.5" fill="white"/>
<rect id="Rectangle_5" x="17" y="26" width="10" height="3" rx="1.5" fill="white"/>
</g>
<g id="Group 3">
<path id="Polygon" fill-rule="evenodd" clip-rule="evenodd" d="M22.3161 8.97559C22.6986 9.34959 22.7191 9.95841 22.3624 10.3572L14.2454 19.4343C13.8479 19.8788 13.1521 19.8788 12.7546 19.4343L4.63755 10.3572C4.28094 9.95841 4.30136 9.34959 4.68388 8.97559L8.45853 5.28498C8.64538 5.10229 8.89632 5 9.15763 5H17.8424C18.1037 5 18.3546 5.10229 18.5415 5.28498L22.3161 8.97559Z" fill="#E8F1F9"/>
<mask id="mask0_801_4515" style="mask-type:alpha" maskUnits="userSpaceOnUse" x="4" y="5" width="19" height="15">
<path id="Polygon_2" fill-rule="evenodd" clip-rule="evenodd" d="M22.3161 8.97559C22.6986 9.34959 22.7191 9.95841 22.3624 10.3572L14.2454 19.4343C13.8479 19.8788 13.1521 19.8788 12.7546 19.4343L4.63755 10.3572C4.28094 9.95841 4.30136 9.34959 4.68388 8.97559L8.45853 5.28498C8.64538 5.10229 8.89632 5 9.15763 5H17.8424C18.1037 5 18.3546 5.10229 18.5415 5.28498L22.3161 8.97559Z" fill="white"/>
</mask>
<g mask="url(#mask0_801_4515)">
<path id="Polygon_3" fill-rule="evenodd" clip-rule="evenodd" d="M21.6132 8.28829C22.1943 8.85643 21.8909 9.84369 21.0911 9.98752L17.4583 10.6408H9.54167L5.90894 9.98752C5.10909 9.84369 4.80574 8.85643 5.38683 8.28829L8.45853 5.28498C8.64538 5.10229 8.89632 5 9.15763 5L17.8424 5C18.1037 5 18.3546 5.10229 18.5415 5.28498L21.6132 8.28829Z" fill="#A3C7E6"/>
<path id="Polygon_4" fill-rule="evenodd" clip-rule="evenodd" d="M22.3161 8.97559C22.6986 9.34959 22.7191 9.95841 22.3624 10.3572L13.5 20.2679L16.6667 10.6408L15.0833 5.00025L18.25 5L22.3161 8.97559Z" fill="#A3C7E6"/>
<path id="Polygon_5" fill-rule="evenodd" clip-rule="evenodd" d="M23 9.64424L16.6667 10.6408L15.0833 5.00025L18.25 5L23 9.64424Z" fill="#E8F1F9"/>
<path id="Polygon_6" fill-rule="evenodd" clip-rule="evenodd" d="M10.3333 10.6408L13.5 20.2679L4.63755 10.3572C4.28094 9.95841 4.30136 9.34959 4.68388 8.97559L8.75 5H11.9167L10.3333 10.6408Z" fill="#A3C7E6"/>
<path id="Polygon_7" fill-rule="evenodd" clip-rule="evenodd" d="M10.3333 10.6408L3.99996 9.64424L8.74996 5L11.9166 5L10.3333 10.6408Z" fill="#E8F1F9"/>
</g>
</g>
</g>
</svg>
