<svg width="48" height="48" viewBox="0 0 48 48" fill="none" xmlns="http://www.w3.org/2000/svg">
<path d="M22.486 29.1668L16.7483 26.2254C16.6541 26.1771 16.5513 26.1478 16.4457 26.1391C16.3401 26.1304 16.2337 26.1426 16.1328 26.1748C16.0318 26.2071 15.9382 26.2588 15.8572 26.3271C15.7763 26.3954 15.7096 26.4788 15.661 26.5727L9.73922 38.0117C9.67612 38.1336 9.64532 38.2695 9.64974 38.4064C9.65417 38.5434 9.69367 38.6769 9.7645 38.7943C9.83532 38.9117 9.93513 39.0091 10.0544 39.0772C10.1737 39.1453 10.3086 39.1818 10.4461 39.1834L13.6517 39.2195L15.5423 41.7958C15.6235 41.9064 15.7316 41.9944 15.8566 42.0515C15.9816 42.1087 16.1192 42.133 16.2563 42.1223C16.2825 42.1202 16.3083 42.1169 16.3338 42.1124C16.4563 42.0908 16.5722 42.0413 16.6724 41.9677C16.7725 41.8942 16.8543 41.7986 16.9114 41.6884L22.8331 30.2491C22.9311 30.0595 22.9497 29.839 22.8846 29.6361C22.8195 29.4331 22.6762 29.2643 22.486 29.1668Z" fill="#00883E"/>
<path d="M22.486 27.1658L16.7483 24.2244C16.6541 24.1761 16.5513 24.1468 16.4457 24.1381C16.3401 24.1294 16.2337 24.1416 16.1328 24.1738C16.0318 24.2061 15.9382 24.2578 15.8572 24.3261C15.7763 24.3944 15.7096 24.4779 15.661 24.5717L9.73922 36.0107C9.67612 36.1326 9.64532 36.2685 9.64974 36.4055C9.65417 36.5424 9.69367 36.6759 9.7645 36.7933C9.83532 36.9107 9.93513 37.0081 10.0544 37.0762C10.1737 37.1443 10.3086 37.1808 10.4461 37.1824L13.6517 37.2185L15.5423 39.7949C15.6235 39.9054 15.7316 39.9934 15.8566 40.0506C15.9816 40.1077 16.1192 40.1321 16.2563 40.1213C16.2825 40.1192 16.3083 40.1159 16.3338 40.1114C16.4563 40.0898 16.5722 40.0403 16.6724 39.9668C16.7725 39.8932 16.8543 39.7976 16.9114 39.6875L22.8331 28.2481C22.9311 28.0585 22.9497 27.838 22.8846 27.6351C22.8195 27.4321 22.6762 27.2633 22.486 27.1658Z" fill="#00AB4E"/>
<path d="M38.5956 38.0123L32.6738 26.5729C32.6253 26.479 32.5586 26.3956 32.4776 26.3273C32.3967 26.259 32.303 26.2073 32.2021 26.175C32.1011 26.1427 31.9948 26.1306 31.8891 26.1393C31.7835 26.148 31.6807 26.1773 31.5865 26.2256L25.8488 29.1673C25.7546 29.2156 25.6709 29.2819 25.6025 29.3625C25.534 29.443 25.4822 29.5362 25.45 29.6367C25.4178 29.7373 25.4057 29.8432 25.4146 29.9484C25.4235 30.0536 25.4531 30.1561 25.5017 30.25L31.4234 41.6893C31.4804 41.7995 31.5622 41.8951 31.6624 41.9686C31.7626 42.0422 31.8784 42.0917 32.0009 42.1133C32.0264 42.1178 32.0523 42.1211 32.0784 42.1232C32.2156 42.1339 32.3532 42.1096 32.4781 42.0524C32.6031 41.9953 32.7113 41.9073 32.7924 41.7967L34.6831 39.2204L37.8886 39.1842C38.0262 39.1827 38.161 39.1461 38.2803 39.078C38.3996 39.01 38.4994 38.9126 38.5702 38.7952C38.6411 38.6778 38.6806 38.5443 38.685 38.4073C38.6894 38.2703 38.6586 38.1345 38.5955 38.0126L38.5956 38.0123Z" fill="#00883E"/>
<path d="M38.5956 36.0123L32.6738 24.5729C32.6253 24.479 32.5586 24.3956 32.4776 24.3273C32.3967 24.259 32.303 24.2073 32.2021 24.175C32.1011 24.1427 31.9948 24.1306 31.8891 24.1393C31.7835 24.148 31.6807 24.1773 31.5865 24.2256L25.8488 27.1673C25.7546 27.2156 25.6709 27.2819 25.6025 27.3625C25.534 27.443 25.4822 27.5362 25.45 27.6367C25.4178 27.7373 25.4057 27.8432 25.4146 27.9484C25.4235 28.0536 25.4531 28.1561 25.5017 28.25L31.4234 39.6893C31.4804 39.7995 31.5622 39.8951 31.6624 39.9686C31.7626 40.0422 31.8784 40.0917 32.0009 40.1133C32.0264 40.1178 32.0523 40.1211 32.0784 40.1232C32.2156 40.1339 32.3532 40.1096 32.4781 40.0524C32.6031 39.9953 32.7113 39.9073 32.7924 39.7967L34.6831 37.2204L37.8886 37.1842C38.0262 37.1827 38.161 37.1461 38.2803 37.078C38.3996 37.01 38.4994 36.9126 38.5702 36.7952C38.6411 36.6778 38.6806 36.5443 38.685 36.4073C38.6894 36.2703 38.6586 36.1345 38.5955 36.0126L38.5956 36.0123Z" fill="#00AB4E"/>
<path d="M23.4 4.72435C24.0675 4.28482 24.9325 4.28482 25.6 4.72435L27.7035 6.10958C28.0635 6.34667 28.4905 6.46108 28.9209 6.43578L31.4352 6.2879C32.233 6.24098 32.9822 6.6735 33.3404 7.38787L34.4695 9.63928C34.6628 10.0246 34.9754 10.3372 35.3607 10.5305L37.6121 11.6596C38.3265 12.0178 38.759 12.767 38.7121 13.5648L38.5642 16.0791C38.5389 16.5095 38.6533 16.9365 38.8904 17.2965L40.2757 19.4C40.7152 20.0675 40.7152 20.9325 40.2757 21.6L38.8904 23.7035C38.6533 24.0635 38.5389 24.4905 38.5642 24.9209L38.7121 27.4352C38.759 28.233 38.3265 28.9822 37.6121 29.3404L35.3607 30.4695C34.9754 30.6628 34.6628 30.9754 34.4695 31.3607L33.3404 33.6121C32.9822 34.3265 32.233 34.759 31.4352 34.7121L28.9209 34.5642C28.4905 34.5389 28.0635 34.6533 27.7035 34.8904L25.6 36.2757C24.9325 36.7152 24.0675 36.7152 23.4 36.2757L21.2965 34.8904C20.9365 34.6533 20.5095 34.5389 20.0791 34.5642L17.5648 34.7121C16.767 34.759 16.0178 34.3265 15.6596 33.6121L14.5305 31.3607C14.3372 30.9754 14.0246 30.6628 13.6393 30.4695L11.3879 29.3404C10.6735 28.9822 10.241 28.233 10.2879 27.4352L10.4358 24.9209C10.4611 24.4905 10.3467 24.0635 10.1096 23.7035L8.72435 21.6C8.28482 20.9325 8.28482 20.0675 8.72435 19.4L10.1096 17.2965C10.3467 16.9365 10.4611 16.5095 10.4358 16.0791L10.2879 13.5648C10.241 12.767 10.6735 12.0178 11.3879 11.6596L13.6393 10.5305C14.0246 10.3372 14.3372 10.0246 14.5305 9.63928L15.6596 7.38787C16.0178 6.6735 16.767 6.24098 17.5648 6.2879L20.0791 6.43578C20.5095 6.46108 20.9365 6.34667 21.2965 6.10958L23.4 4.72435Z" fill="#BBBDC0"/>
<path d="M21.7379 5.0267C22.473 4.42867 23.527 4.42867 24.2621 5.0267L25.825 6.29811C26.2671 6.65776 26.8417 6.81171 27.4044 6.7213L29.3936 6.40169C30.3293 6.25136 31.242 6.77832 31.5797 7.66379L32.2975 9.54633C32.5005 10.0789 32.9211 10.4995 33.4537 10.7025L35.3362 11.4203C36.2217 11.758 36.7486 12.6707 36.5983 13.6064L36.2787 15.5956C36.1883 16.1583 36.3422 16.7329 36.7019 17.175L37.9733 18.7379C38.5713 19.473 38.5713 20.527 37.9733 21.2621L36.7019 22.825C36.3422 23.2671 36.1883 23.8417 36.2787 24.4044L36.5983 26.3936C36.7486 27.3293 36.2217 28.242 35.3362 28.5797L33.4537 29.2975C32.9211 29.5005 32.5005 29.9211 32.2975 30.4537L31.5797 32.3362C31.242 33.2217 30.3293 33.7486 29.3936 33.5983L27.4044 33.2787C26.8417 33.1883 26.2671 33.3422 25.825 33.7019L24.2621 34.9733C23.527 35.5713 22.473 35.5713 21.7379 34.9733L20.175 33.7019C19.7329 33.3422 19.1583 33.1883 18.5956 33.2787L16.6064 33.5983C15.6707 33.7486 14.758 33.2217 14.4203 32.3362L13.7025 30.4537C13.4995 29.9211 13.0789 29.5005 12.5463 29.2975L10.6638 28.5797C9.77832 28.242 9.25136 27.3293 9.40169 26.3936L9.7213 24.4044C9.81171 23.8417 9.65776 23.2671 9.29811 22.825L8.0267 21.2621C7.42867 20.527 7.42867 19.473 8.0267 18.7379L9.29811 17.175C9.65776 16.7329 9.81171 16.1583 9.7213 15.5956L9.40169 13.6064C9.25136 12.6707 9.77832 11.758 10.6638 11.4203L12.5463 10.7025C13.0789 10.4995 13.4995 10.0789 13.7025 9.54633L14.4203 7.66379C14.758 6.77832 15.6707 6.25136 16.6064 6.40169L18.5956 6.7213C19.1583 6.81171 19.7329 6.65776 20.175 6.29811L21.7379 5.0267Z" fill="#EEEEEF"/>
<path d="M32 20C32 24.6949 28.1949 28.5 23.5 28.5C18.8051 28.5 15 24.6949 15 20C15 15.3051 18.8051 11.5 23.5 11.5C28.1949 11.5 32 15.3051 32 20Z" fill="#BBBDC0" stroke="white"/>
<path fill-rule="evenodd" clip-rule="evenodd" d="M18 20.7895C17.9999 20.755 18.005 20.7205 18.0156 20.6866L18.0415 20.6247L20.0058 16.9405L20.0437 16.8827L20.0897 16.8346L20.1363 16.7954C20.2835 16.6764 20.5327 16.5321 20.8987 16.3948C21.5603 16.1466 22.4201 16 23.5 16C24.5799 16 25.4397 16.1466 26.1013 16.3948C26.4673 16.5321 26.7165 16.6764 26.8637 16.7954L26.9013 16.8268C26.9213 16.8432 26.9397 16.8618 26.9563 16.8827L26.9942 16.9405L28.9585 20.6247C28.9773 20.66 28.9895 20.6967 28.9956 20.7337L29 20.7895C29 22.0104 27.9448 23 26.6429 23C25.3976 23 24.378 22.0946 24.2916 20.9474L24.2857 20.7895C24.2856 20.755 24.2907 20.7205 24.3013 20.6866L24.3272 20.6247L26.142 17.2236L25.9944 17.1538C25.9391 17.1295 25.8775 17.1044 25.8095 17.0789C25.2434 16.8666 24.4826 16.7368 23.5 16.7368C22.5174 16.7368 21.7566 16.8666 21.1905 17.0789C21.0544 17.13 20.9443 17.1793 20.858 17.2236L22.6728 20.6247C22.6916 20.66 22.7038 20.6967 22.7099 20.7337L22.7143 20.7895C22.7143 22.0104 21.6591 23 20.3571 23C19.1118 23 18.0923 22.0946 18.0059 20.9474L18 20.7895ZM20.3571 17.9291L18.8321 20.7887H21.8814L20.3571 17.9291ZM26.6429 17.9291L25.1178 20.7887H28.1671L26.6429 17.9291Z" fill="white"/>
</svg>
