<svg width="64" height="64" viewBox="0 0 64 64" fill="none" xmlns="http://www.w3.org/2000/svg">
<g id="icon product/Microsite/Pembiayaan">
<g id="tangan">
<g id="Group 2">
<circle id="Oval Copy 5" cx="32" cy="32" r="32" fill="url(#paint0_linear_0_11523)"/>
<mask id="mask0_0_11523" style="mask-type:alpha" maskUnits="userSpaceOnUse" x="0" y="0" width="64" height="64">
<circle id="Oval Copy 5_2" cx="32" cy="32" r="32" fill="white"/>
</mask>
<g mask="url(#mask0_0_11523)">
<g id="stopwatch 2">
<g id="stopwatch 2_2" opacity="0.8">
<g id="stopwatch">
<g id="stopwatch copy">
<path id="Combined Shape" fill-rule="evenodd" clip-rule="evenodd" d="M37.2473 9.00568C37.3729 9.00256 37.4988 9.00098 37.6252 9.00098C45.788 9.00098 52.4052 15.5216 52.4052 23.5653C52.4052 31.609 45.7879 38.1297 37.6252 38.1297C37.5876 38.1297 37.5501 38.1295 37.5126 38.1293C37.2198 38.1319 36.9281 38.1221 36.6381 38.0993C36.5944 38.0959 36.5507 38.0923 36.5069 38.0884C36.4964 38.0877 36.486 38.0869 36.4756 38.0861C36.4764 38.086 36.4773 38.086 36.4781 38.0859C35.6571 38.0126 34.8311 37.8697 34.0075 37.6532C26.1508 35.588 21.4721 27.6058 23.5573 19.8246C25.2386 13.5505 30.804 9.32265 37.0154 9.00276C37.0749 8.9997 37.1527 9.00052 37.2473 9.00568Z" fill="url(#paint1_linear_0_11523)"/>
<circle id="Oval" cx="37.7332" cy="23.7733" r="11.4706" fill="white"/>
<path id="Combined Shape_2" fill-rule="evenodd" clip-rule="evenodd" d="M37.1427 23.3183C37.1387 23.2769 37.1366 23.2344 37.1366 23.1911V17.7505C37.1366 17.3037 37.3585 16.9414 37.6323 16.9414C37.9061 16.9414 38.128 17.3037 38.128 17.7505V23.1911C38.128 23.2043 38.1278 23.2174 38.1274 23.2304C38.7991 23.388 39.2996 23.9765 39.2996 24.6763C39.2996 24.8383 39.2727 24.9944 39.2232 25.1405L43.3609 29.2182C43.6188 29.4724 43.6188 29.8845 43.3609 30.1386C43.232 30.2656 43.0629 30.3292 42.8939 30.3292C42.7249 30.3292 42.5559 30.2657 42.4269 30.1386L38.2996 26.0711C38.1338 26.1309 37.9545 26.1636 37.7675 26.1636C36.9228 26.1636 36.2354 25.4964 36.2354 24.6763C36.2354 24.0721 36.6084 23.5509 37.1427 23.3183Z" fill="url(#paint2_linear_0_11523)"/>
</g>
</g>
</g>
</g>
<rect id="Rectangle" x="19.8" y="58.9004" width="25.4" height="2.3" rx="1.15" fill="url(#paint3_linear_0_11523)"/>
<g id="Group">
<path id="Fill 1" fill-rule="evenodd" clip-rule="evenodd" d="M39.7302 45.1002C39.389 45.0517 39.1855 44.7687 38.9064 44.6111C37.6137 43.8798 36.2337 43.3286 34.8832 42.7233C33.5345 42.1187 32.1647 41.5484 30.8058 40.9613C28.5139 39.9701 26.201 39.0309 23.8754 38.1256C19.5951 36.4606 15.2782 34.8992 10.8845 33.5518C9.36876 33.0873 7.85231 32.6276 6.33872 32.1556C5.94862 32.0344 5 31.6032 5 31.6032L10.9324 23.7002C10.9324 23.7002 19.6206 25.0036 44.8638 36.0452C45.3307 36.3465 45.9085 36.4592 46.3 36.8864C46.2784 37.132 39.696 44.4147 39.7302 45.1002Z" fill="url(#paint4_linear_0_11523)"/>
<path id="Fill 3" fill-rule="evenodd" clip-rule="evenodd" d="M5.02993 31.6006C5.02993 31.6006 11.8033 33.5899 14.4117 34.4315C16.3304 35.0506 18.2245 35.7366 20.1009 36.4739C21.6012 37.0629 23.1214 37.6005 24.6265 38.1772C25.4934 38.5094 26.3521 38.8631 27.2074 39.2245C29.122 40.0325 31.0348 40.8465 32.9439 41.6682C33.5375 41.924 34.1321 42.1895 34.708 42.4704C36.0555 43.1282 37.4643 43.654 38.7692 44.4018C39.059 44.568 39.3146 44.7386 39.4695 45.0379C39.5818 45.6273 39.377 46.1115 38.9781 46.5277C38.5598 46.9644 37.5576 48.3729 36.9467 48.0541C36.9467 48.0541 21.8152 42.998 16.3673 40.5389C13.0212 39.0286 3.90002 37.9831 3.90002 37.9831L5.02993 31.6006Z" fill="url(#paint5_linear_0_11523)"/>
<g id="Fill 11" style="mix-blend-mode:multiply">
<path fill-rule="evenodd" clip-rule="evenodd" d="M27.8499 34.1639C26.7808 36.2532 24.7764 36.6354 22.8077 35.3886C21.0125 34.2522 20.2677 31.1538 22.3999 30.0865C23.7894 29.3906 25.5183 29.1935 26.808 30.1672C27.8845 30.9807 29.0481 33.1626 28.2181 34.5592" fill="url(#paint6_linear_0_11523)" fill-opacity="0.3"/>
</g>
<path id="Hand" fill-rule="evenodd" clip-rule="evenodd" d="M61.2565 42.0284C60.532 41.8472 51.6422 39.5735 50.6521 39.294C50.5644 39.084 45.2569 36.0926 43.8186 35.4731C42.8004 35.0891 41.7181 34.9437 40.6799 34.6321C39.337 34.2292 35.8529 33.0449 34.4842 32.7691C32.7966 32.429 31.1963 31.8876 29.6259 31.2142C29.0917 30.9855 28.474 30.6941 27.8078 30.7726C27.1416 30.8511 26.9131 31.0529 26.6163 31.6806C26.5386 32.5515 26.7395 33.5516 27.3387 34.1915C27.8416 34.7288 28.9799 35.7063 30.2207 36.4176C31.4615 37.1288 35.3958 38.679 35.4077 38.9235C35.4142 39.0562 34.2251 39.7267 32.9126 39.9551C31.6002 40.1836 28.1594 41.0631 24.5103 41.3563C20.8613 41.6495 17.1832 40.5201 16.8549 40.6044C17.1238 41.8701 17.3947 42.2176 17.9428 42.6598C18.4909 43.1019 21.2988 45.159 22.5696 45.8383C23.9406 46.5712 23.7337 47.0869 24.7369 48.1627C25.1936 48.6526 26.3424 49.4089 27.351 50.1646C28.3596 50.9202 29.0871 52.1974 29.9177 52.5288C31.4428 53.1373 33.8993 53.4954 35.554 53.5128C37.8321 53.5356 40.1106 53.3645 42.3528 52.9042C43.6711 52.6335 45.0316 52.5755 46.3201 52.1643C47.3615 51.8319 59.1563 56.2975 60.2554 56.2537C60.7498 56.2333 64.6062 42.8662 61.2565 42.0284Z" fill="url(#paint7_linear_0_11523)"/>
<path id="Fill 23" fill-rule="evenodd" clip-rule="evenodd" d="M55.0784 39.5317L70.1515 43.4085C70.1515 43.4085 59.3754 57.2209 59.1167 57.4336C58.8576 57.646 50.7741 54.7199 50.7741 54.7199L55.0784 39.5317Z" fill="url(#paint8_linear_0_11523)"/>
<path id="Fill 25" fill-rule="evenodd" clip-rule="evenodd" d="M48.3617 47.3894L51.0398 39.5156L48.362 47.3894L48.3617 47.3894Z" fill="#E7B470"/>
<path id="Fill 26" fill-rule="evenodd" clip-rule="evenodd" d="M67.0229 56.5803C67.2398 55.9536 67.4589 55.3194 67.6759 54.6895C67.4588 55.3198 67.2401 55.9533 67.0229 56.5803ZM50.9715 39.3313L58.0875 41.4966L58.1396 41.3717L58.0874 41.4971L50.9715 39.3313Z" fill="#F5F9F8"/>
</g>
</g>
</g>
</g>
</g>
<defs>
<linearGradient id="paint0_linear_0_11523" x1="63.7568" y1="63.8784" x2="63.7568" y2="0.121622" gradientUnits="userSpaceOnUse">
<stop stop-color="white"/>
<stop offset="1" stop-color="#CCE5EB"/>
</linearGradient>
<linearGradient id="paint1_linear_0_11523" x1="-1.02993" y1="8.56865" x2="22.5034" y2="63.9067" gradientUnits="userSpaceOnUse">
<stop stop-color="#61E2FF"/>
<stop offset="0.502126" stop-color="#5DC5FF"/>
<stop offset="1" stop-color="#4E64FF"/>
</linearGradient>
<linearGradient id="paint2_linear_0_11523" x1="19.6992" y1="3.8706" x2="44.7315" y2="31.5315" gradientUnits="userSpaceOnUse">
<stop stop-color="#75BCFC"/>
<stop offset="1" stop-color="#74B0FD"/>
</linearGradient>
<linearGradient id="paint3_linear_0_11523" x1="19.0731" y1="61.2333" x2="45.2" y2="61.2333" gradientUnits="userSpaceOnUse">
<stop stop-color="#418DBB" stop-opacity="0.0141456"/>
<stop offset="0.467721" stop-color="#006FAB" stop-opacity="0.299"/>
<stop offset="1" stop-color="#419FBE" stop-opacity="0.01"/>
</linearGradient>
<linearGradient id="paint4_linear_0_11523" x1="-21.1647" y1="13.9643" x2="-17.4187" y2="52.3223" gradientUnits="userSpaceOnUse">
<stop stop-color="#DBED59"/>
<stop offset="1" stop-color="#00AA40"/>
</linearGradient>
<linearGradient id="paint5_linear_0_11523" x1="63.4271" y1="38.0412" x2="43.3995" y2="5.60227" gradientUnits="userSpaceOnUse">
<stop stop-color="#004D44"/>
<stop offset="1" stop-color="#5EAF11"/>
</linearGradient>
<linearGradient id="paint6_linear_0_11523" x1="18.3759" y1="27.2899" x2="19.2211" y2="36.7916" gradientUnits="userSpaceOnUse">
<stop stop-color="#68CA4C"/>
<stop offset="1" stop-color="#00AA40"/>
</linearGradient>
<linearGradient id="paint7_linear_0_11523" x1="61.3374" y1="18.733" x2="28.0135" y2="42.5535" gradientUnits="userSpaceOnUse">
<stop stop-color="#FFE1C9"/>
<stop offset="1" stop-color="#FFA174"/>
</linearGradient>
<linearGradient id="paint8_linear_0_11523" x1="49.4365" y1="27.414" x2="45.7676" y2="66.7558" gradientUnits="userSpaceOnUse">
<stop stop-color="#61E2FF"/>
<stop offset="0.502126" stop-color="#5DC5FF"/>
<stop offset="1" stop-color="#4E64FF"/>
</linearGradient>
</defs>
</svg>
