<svg width="48" height="48" viewBox="0 0 48 48" fill="none" xmlns="http://www.w3.org/2000/svg">
<g id="icon product/Sub-Menu/Gadai/Laptop">
<g id="Group">
<path id="Rectangle" d="M7 15C7 12.7909 8.79086 11 11 11H37C39.2091 11 41 12.7909 41 15V33C41 34.1046 40.1046 35 39 35H9C7.89543 35 7 34.1046 7 33V15Z" fill="#1868AB"/>
<path id="Rectangle_2" d="M7 15C7 12.7909 8.79086 11 11 11H34C36.2091 11 38 12.7909 38 15V33C38 34.1046 37.1046 35 36 35H9C7.89543 35 7 34.1046 7 33V15Z" fill="#5297D1"/>
<path id="Rectangle_3" d="M5 33.8C5 33.3582 5.35817 33 5.8 33H42.2C42.6418 33 43 33.3582 43 33.8C43 35.5673 41.5673 37 39.8 37H8.2C6.43269 37 5 35.5673 5 33.8Z" fill="#0B4270"/>
<path id="Rectangle_4" d="M5 33.8C5 33.3582 5.35817 33 5.8 33H39.2C39.6418 33 40 33.3582 40 33.8C40 35.5673 38.5673 37 36.8 37H8.2C6.43269 37 5 35.5673 5 33.8Z" fill="#1868AB"/>
<path id="Rectangle_5" d="M15.5 33H29.5C29.5 34.1046 28.6046 35 27.5 35H17.5C16.3954 35 15.5 34.1046 15.5 33Z" fill="#0B4270"/>
<path id="Rectangle_6" fill-rule="evenodd" clip-rule="evenodd" d="M9.18742 15.5899C9.23603 14.5701 10.0541 13.7659 11.0744 13.7283C13.4848 13.6396 17.9924 13.5 22.5 13.5C27.0076 13.5 31.5152 13.6396 33.9256 13.7283C34.9459 13.7659 35.764 14.5701 35.8126 15.5899C35.8948 17.3137 36 20.0568 36 22.8C36 25.3561 35.9086 27.5896 35.8297 29.0422C35.775 30.0481 34.9633 30.8334 33.9567 30.8705C31.5541 30.9592 27.0271 31.1 22.5 31.1C17.9729 31.1 13.4459 30.9592 11.0433 30.8705C10.0367 30.8334 9.225 30.0481 9.17033 29.0423C9.09138 27.5896 9 25.3561 9 22.8C9 20.0568 9.10524 17.3137 9.18742 15.5899Z" fill="white"/>
</g>
</g>
</svg>
