<svg width="60" height="36" viewBox="0 0 60 36" fill="none" xmlns="http://www.w3.org/2000/svg">
<g id="logo / provider / 3">
<g id="Logo 3">
<path id="_48208384" fill-rule="evenodd" clip-rule="evenodd" d="M37.1423 15.7005L37.1565 15.711L37.1565 15.7111L37.1587 15.7127C38.4256 16.6474 40.7816 18.3856 40.7816 21.9075C40.7816 25.7743 38.734 28.1293 37.0172 29.4239C34.9439 30.9883 32.1934 31.8855 29.4728 31.8855C22.5969 31.8855 19 27.9402 19 24.0457C19 21.5768 20.8452 19.0218 23.9295 19.0218C26.6592 19.0218 28.5357 20.808 28.1683 23.456C29.3258 23.5095 30.1155 23.1394 30.7533 22.5565C31.4277 21.941 31.7988 21.0461 31.7988 20.0387C31.7988 19.4998 31.6504 18.7147 30.1994 18.4544C30.0109 18.4207 29.7945 18.3866 29.5598 18.3495C27.878 18.0842 25.259 17.6711 25.259 16.2254C25.259 15.3792 26.6908 14.4593 27.8521 13.7133C28.6442 13.2044 29.3104 12.7764 29.3104 12.5078C29.3104 11.9612 27.8939 11.773 24.457 11.773C24.4049 11.773 24.353 11.773 24.3012 11.773C22.0558 11.7734 20.1318 11.7737 19.4318 11.0759C19.2417 10.8863 19.1415 10.6486 19.1415 10.3896C19.1415 9.30281 20.622 7.72527 22.9121 6.37127C25.4635 4.86358 28.4259 3.99998 31.0426 3.99998C36.5691 3.99998 38.5309 7.13242 38.5309 9.81447C38.5309 12.1596 37.4093 13.7975 36.8058 14.6789L36.8031 14.6828C36.6834 14.8538 36.5455 15.0611 36.4865 15.1722C36.5925 15.2937 36.8919 15.5153 37.1423 15.7005ZM25.313 16.2669C25.3135 16.2699 25.3139 16.2722 25.3124 16.2759V16.2606C25.3124 16.2632 25.3127 16.2651 25.313 16.2669Z" fill="white"/>
<path id="_76397856" fill-rule="evenodd" clip-rule="evenodd" d="M37.1565 15.711L37.1423 15.7005C36.8919 15.5153 36.5925 15.2937 36.4865 15.1722C36.5455 15.0611 36.6834 14.8538 36.8031 14.6828L36.8058 14.6789C37.4093 13.7975 38.5309 12.1596 38.5309 9.81447C38.5309 7.13242 36.5691 3.99998 31.0426 3.99998C28.4259 3.99998 25.4635 4.86358 22.9121 6.37127C20.622 7.72527 19.1415 9.30281 19.1415 10.3896C19.1415 10.6486 19.2417 10.8863 19.4318 11.0759C20.1318 11.7737 22.0558 11.7734 24.3012 11.773L24.457 11.773C27.8939 11.773 29.3104 11.9612 29.3104 12.5078C29.3104 12.7764 28.6442 13.2044 27.8521 13.7133C26.6908 14.4593 25.259 15.3792 25.259 16.2254C25.259 17.6711 27.878 18.0842 29.5598 18.3495C29.7945 18.3866 30.0109 18.4207 30.1994 18.4544C31.6504 18.7147 31.7988 19.4998 31.7988 20.0387C31.7988 21.0461 31.4277 21.941 30.7533 22.5565C30.1155 23.1394 29.3258 23.5095 28.1683 23.456C28.5357 20.808 26.6592 19.0218 23.9295 19.0218C20.8452 19.0218 19 21.5768 19 24.0457C19 27.9402 22.5969 31.8855 29.4728 31.8855C32.1934 31.8855 34.9439 30.9883 37.0172 29.4239C38.734 28.1293 40.7816 25.7743 40.7816 21.9075C40.7816 18.3856 38.4256 16.6474 37.1587 15.7127L37.1565 15.7111L37.1565 15.711ZM25.3124 16.2759C25.3139 16.2722 25.3135 16.2699 25.313 16.2669C25.3127 16.2651 25.3124 16.2632 25.3124 16.2606V16.2759ZM26.0445 16.2272H26.0509L26.0509 16.2273C26.0509 16.3279 26.2523 16.3488 26.3285 16.3488C27.6121 16.3488 29.3616 15.3359 30.902 14.3448C31.4149 14.0131 31.8206 13.6777 32.1484 13.4067L32.1484 13.4067L32.1598 13.3973L32.1694 13.3894C32.633 13.0051 32.9389 12.7514 33.2542 12.7514C33.4488 12.7514 33.6208 12.8299 33.7513 12.9782C34.0299 13.2953 34.1106 13.9861 34.0453 14.4533C34.4803 13.9226 34.7828 13.1764 34.7828 12.4584C34.7828 11.5921 34.3007 11.0482 33.9482 10.6509L33.944 10.6461L33.944 10.6461L33.944 10.6461C33.7212 10.3941 33.56 10.2118 33.56 9.99634C33.56 9.86209 33.6112 9.66072 33.8516 9.47384C34.1015 9.27926 34.5424 9.13135 35.0786 9.13362C33.5119 7.98336 32.1194 8.43737 31.0753 8.77799C30.6802 8.90823 30.3386 9.02024 30.0492 9.02024C29.7217 9.02024 29.6043 8.81568 29.6043 8.62425C29.6043 8.15525 29.9177 7.57873 30.3953 7.10157C28.5955 7.51209 26.6764 8.53807 24.9573 9.45749L24.9134 9.48094C23.756 10.0985 22.7088 10.6572 21.8448 10.9439C22.5364 11.0031 23.256 10.9972 23.9537 10.9915C24.1222 10.9902 24.2894 10.9888 24.4547 10.9884C26.7884 10.9779 28.9928 10.9702 29.7771 11.7517C29.9862 11.9599 30.096 12.2221 30.096 12.5078C30.096 13.2154 29.1842 13.7978 28.0289 14.5358C27.2434 15.0365 26.0595 15.7936 26.0445 16.2272ZM27.9655 24.2003C29.3258 24.2738 30.4375 23.9078 31.283 23.1353C32.1099 22.3805 32.583 21.2516 32.583 20.0387C32.583 19.3515 32.3403 18.8594 31.8041 18.4317C33.8158 18.8449 35.9739 19.874 37.0848 21.4847C36.5074 21.2838 36.1481 21.2298 35.7708 21.2298C35.4823 21.2298 35.2246 21.5473 35.2246 21.9288C35.2246 22.1234 35.3018 22.3615 35.4006 22.6631L35.401 22.6642C35.7035 23.5964 36.1903 25.096 34.9275 26.9867C34.9525 26.2056 34.7524 25.5788 34.503 25.2685C34.3292 25.0531 34.1528 25.0073 34.0353 25.0073C33.6461 25.0073 33.4429 25.3745 33.1613 25.8836L33.1585 25.8886C32.6483 26.8125 31.815 28.3153 29.1897 29.0505C29.5639 28.4772 29.6923 27.8621 29.5562 27.5296C29.4886 27.365 29.353 27.2657 29.192 27.2657H29.182C28.9381 27.2762 28.6369 27.3601 28.2875 27.4575L28.2517 27.4675C27.0683 27.7991 25.3229 28.2862 23.5194 26.8357C23.8859 26.8062 24.2025 26.6946 24.4166 26.5095C24.5713 26.3771 24.6561 26.2124 24.6561 26.0482C24.6561 25.801 24.4516 25.6101 24.1916 25.3687C23.6768 24.892 22.9982 24.2602 23.5421 22.9471C23.6137 23.2338 23.7458 23.4909 23.9317 23.6959C24.1504 23.9386 24.4135 24.0774 24.6552 24.0774C25.1882 24.0774 25.1882 23.6243 25.1882 23.325C25.1882 22.9308 25.5474 22.5856 25.9561 22.5856C27.1159 22.5856 27.5531 24.2983 27.168 25.2277C27.5531 24.9292 27.8516 24.4897 27.9655 24.2003L27.9655 24.2003ZM29.4728 31.0998C32.0269 31.0998 34.6041 30.2602 36.5455 28.7969L36.5456 28.7969C38.1195 27.6086 39.9964 25.4509 39.9964 21.9075C39.9964 18.7829 37.931 17.2583 36.6936 16.3449L36.6902 16.3424C36.0611 15.8784 35.6814 15.5981 35.6814 15.1908C35.6814 14.9299 35.8488 14.6846 36.1545 14.2382C36.7501 13.3715 37.7466 11.9195 37.7466 9.81444C37.7466 8.44322 37.1805 7.20586 36.1559 6.32865C34.9743 5.31849 33.2062 4.78461 31.0426 4.78461C25.332 4.78461 19.9257 8.86279 19.9257 10.3896C19.9257 10.5915 20.1185 10.7915 20.6687 10.7915C21.5609 10.7915 23.1113 9.96457 24.7587 9.08417C24.8067 9.05844 24.8552 9.03245 24.9041 9.00623C26.9053 7.93392 29.6189 6.47981 31.6073 6.61485C30.6095 7.21904 30.0479 8.08806 30.0479 8.51313C30.0479 8.66185 30.5822 8.49452 30.9433 8.37612C32.1371 7.98601 34.3116 7.34647 36.0611 9.59443C35.266 9.41436 34.5031 9.52097 34.1116 9.80762C34.0277 9.86976 33.9841 9.93826 33.9841 9.99631C33.9893 10.0559 34.1347 10.2204 34.2493 10.3499C34.255 10.3564 34.2607 10.3628 34.2663 10.3692L34.2692 10.3725C34.6421 10.7953 35.2061 11.4347 35.2061 12.4584C35.2061 13.4912 34.6718 14.5916 33.5374 15.3232C33.771 14.5068 33.7079 13.1746 33.2543 13.1746C33.0912 13.1746 32.7885 13.4257 32.4377 13.7167L32.4306 13.7225C32.0923 14.0033 31.6722 14.3512 31.1307 14.7013C29.5975 15.6879 27.8571 16.6949 26.486 16.7683C27.0187 17.0968 28.0394 17.2689 29.27 17.4763C32.2267 17.9748 36.395 18.6774 37.9185 22.244C37.1079 21.8571 36.4267 21.6485 35.8434 21.6485C35.7095 21.6825 35.6488 21.736 35.6488 21.9288C35.6488 22.0571 35.7195 22.2776 35.8021 22.5321C36.1427 23.5749 36.8141 25.9067 34.4813 28.0789C34.7284 26.9291 34.4019 25.4305 34.0354 25.4305C33.8962 25.4305 33.7309 25.7284 33.5383 26.0754L33.5283 26.0936C32.9454 27.1482 31.791 29.1684 28.2726 29.6279C28.8872 29.0687 29.3421 27.9996 29.1725 27.7696C29.0923 27.6491 28.8302 27.731 28.5637 27.8144C28.4972 27.8352 28.4303 27.8561 28.366 27.8739C27.0778 28.2367 24.6452 28.9081 22.5565 26.4206C23.7553 26.5304 24.233 26.231 24.233 26.0483C24.2308 25.9861 24.0516 25.8184 23.9225 25.6976C23.9159 25.6914 23.9095 25.6854 23.9032 25.6795C23.3222 25.1419 22.1342 23.8248 23.8011 21.966C23.6914 23.0224 24.2266 23.6533 24.6552 23.6533C24.7042 23.6533 24.7641 23.5816 24.7641 23.325C24.7641 22.6945 25.3102 22.1628 25.9561 22.1628C27.116 22.1628 27.5088 23.2242 27.5532 23.5263C27.8517 20.5445 25.4658 19.7915 23.9336 19.7915C21.34 19.7915 19.7856 21.9619 19.7856 24.0457C19.7856 27.5501 23.1144 31.0998 29.4728 31.0998Z" fill="black"/>
</g>
</g>
</svg>
