<svg width="60" height="36" viewBox="0 0 60 36" fill="none" xmlns="http://www.w3.org/2000/svg">
<path fill-rule="evenodd" clip-rule="evenodd" d="M50.9057 10.17C51.4746 10.2318 52.0401 10.3019 52.5902 10.4665C53.133 10.629 53.4214 10.9603 53.4761 11.5198C53.5365 12.1369 53.4407 12.7377 53.2512 13.3254C53.2239 13.4101 53.2064 13.4974 53.0853 13.4971C52.2194 13.4954 51.3533 13.4962 50.4826 13.4962C50.6604 12.5494 50.4985 12.346 49.5564 12.3073C49.0627 12.2871 48.5713 12.2961 48.088 12.4212C47.5103 12.5707 47.0622 13.3243 47.2164 13.9015C47.2821 14.1476 47.4752 14.2435 47.7038 14.2623C48.2439 14.3066 48.7848 14.345 49.3259 14.3725C50.1274 14.4132 50.9101 14.5518 51.6734 14.7967C52.3356 15.0093 52.6576 15.3832 52.64 16.0765C52.6073 17.3817 52.2641 18.6121 51.4785 19.6701C50.9513 20.3801 50.1582 20.7055 49.3068 20.8004C47.6761 20.9822 46.0416 20.9833 44.4153 20.7167C44.3573 20.7072 44.3008 20.6882 44.2442 20.6719C43.2085 20.3753 42.9072 19.95 43.0234 18.8854C43.0703 18.4561 43.1725 18.0327 43.2539 17.6074C43.2722 17.5119 43.2948 17.419 43.4341 17.4196C44.2907 17.4237 45.1472 17.4217 46.0127 17.4217C45.9824 17.605 45.9446 17.7876 45.9231 17.9722C45.8755 18.3823 46.0831 18.6738 46.4786 18.6898C47.1871 18.7185 47.8986 18.757 48.6041 18.6479C49.257 18.5468 49.7993 17.7031 49.632 17.065C49.5765 16.8536 49.409 16.7743 49.2169 16.738C48.5556 16.613 47.8822 16.6304 47.2153 16.5718C46.4483 16.5044 45.6926 16.4014 44.9647 16.123C44.4908 15.9417 44.2224 15.6077 44.209 15.1309C44.1719 13.8109 44.4635 12.5614 45.238 11.4745C45.798 10.6887 46.6434 10.3712 47.5716 10.2312C47.7556 10.2035 48.4764 10.1145 49.2169 10.102C49.9744 10.0891 50.7514 10.1533 50.9057 10.17Z" fill="#024982"/>
<path fill-rule="evenodd" clip-rule="evenodd" d="M55.2276 23.3334C55.1114 23.3731 55.135 23.4958 55.099 23.5793C54.8828 24.0798 54.4014 24.3399 53.8933 24.2196C53.4056 24.1043 53.0811 23.6484 53.1099 23.1191C53.1372 22.6151 53.5053 22.2052 53.9896 22.1392C54.5049 22.0689 54.9641 22.3732 55.1356 22.8903C55.1599 22.9641 55.1119 23.0755 55.2277 23.1088C55.2276 23.1836 55.2276 23.2585 55.2276 23.3334ZM54.9556 23.1755C54.9508 22.6711 54.5812 22.288 54.1146 22.3043C53.6622 22.32 53.3128 22.7018 53.3107 23.1831C53.3085 23.68 53.6765 24.0744 54.1401 24.0719C54.6109 24.0693 54.9604 23.6851 54.9556 23.1755Z" fill="#054B84"/>
<path fill-rule="evenodd" clip-rule="evenodd" d="M40.3783 15.4308C40.69 15.5332 40.9161 15.5948 41.1323 15.6811C41.5506 15.8484 41.7832 16.1667 41.771 16.6174C41.7376 17.8421 41.3933 18.9684 40.6044 19.9231C40.1361 20.4898 39.4619 20.6642 38.7681 20.7681C38.3283 20.8339 37.885 20.8504 37.4408 20.8504C35.6062 20.8499 33.7715 20.8432 31.9371 20.8578C31.6495 20.86 31.6508 20.7698 31.7109 20.5461C32.6176 17.1726 33.5204 13.7979 34.4153 10.4213C34.4688 10.2199 34.5486 10.1653 34.7526 10.1663C36.5674 10.1752 38.3823 10.1705 40.1971 10.1721C40.8429 10.1727 41.4697 10.2687 42.0737 10.5152C42.6201 10.7382 42.9018 11.1278 42.9055 11.7161C42.9121 12.7735 42.5824 13.7314 42.0105 14.6063C41.7439 15.0141 41.317 15.2062 40.8562 15.3221C40.726 15.3548 40.5944 15.3818 40.3783 15.4308ZM36.535 18.5011C36.535 18.4942 36.535 18.4873 36.535 18.4804C36.9189 18.4804 37.3043 18.5027 37.6862 18.4759C38.567 18.414 38.9044 18.0484 38.9375 17.1633C38.9564 16.6587 38.8237 16.4822 38.3263 16.4631C37.4998 16.4313 36.6722 16.4334 35.845 16.4166C35.7264 16.4142 35.6728 16.4528 35.6431 16.5711C35.497 17.1525 35.3484 17.7332 35.186 18.31C35.1347 18.4924 35.2076 18.5055 35.3533 18.5032C35.747 18.4971 36.141 18.5011 36.535 18.5011ZM36.226 14.4281C37.0825 14.4281 37.9098 14.4595 38.7333 14.4185C39.4356 14.3836 39.7375 14.0222 39.8025 13.2865C39.8477 12.775 39.7065 12.5809 39.1954 12.5613C38.4285 12.532 37.6601 12.5402 36.8925 12.529C36.7932 12.5276 36.7206 12.5447 36.6923 12.653C36.539 13.2406 36.384 13.8276 36.226 14.4281Z" fill="#024982"/>
<path fill-rule="evenodd" clip-rule="evenodd" d="M25.7199 10.1715C25.3501 11.5584 24.9864 12.9168 24.6265 14.2762C24.3519 15.313 24.0823 16.351 23.8106 17.3885C23.8055 17.4077 23.7996 17.4265 23.7959 17.4458C23.6621 18.137 23.8051 18.3561 24.4926 18.4515C25.1114 18.5375 25.7316 18.516 26.3468 18.4007C26.6961 18.3352 26.956 18.1534 27.1289 17.8327C27.4803 17.1809 27.5926 16.4547 27.7849 15.755C28.2724 13.9808 28.7404 12.201 29.2084 10.4215C29.2548 10.245 29.3109 10.1626 29.5151 10.166C30.3138 10.1794 31.1129 10.1737 31.9117 10.1695C32.0638 10.1687 32.1533 10.1737 32.0965 10.3749C31.3768 12.9217 30.7758 15.5014 29.9832 18.0282C29.9185 18.2342 29.8348 18.4349 29.7506 18.634C29.2676 19.7759 28.4087 20.4685 27.1969 20.6915C25.4743 21.0086 23.7441 21.0238 22.0294 20.6485C20.9752 20.4178 20.664 19.9734 20.6929 18.8885C20.7178 17.953 21.0085 17.0678 21.245 16.1743C21.7487 14.2717 22.2658 12.3728 22.7647 10.469C22.8252 10.2379 22.9097 10.1589 23.1569 10.1644C24.0032 10.1831 24.85 10.1715 25.7199 10.1715Z" fill="#024982"/>
<path fill-rule="evenodd" clip-rule="evenodd" d="M7.80439 10.2291C7.98917 10.2473 8.13086 10.1975 8.17589 10.3208C8.21601 10.4305 8.10309 10.5139 8.03403 10.5956C7.3398 11.4161 6.64387 12.2353 5.95134 13.0572C5.71273 13.3405 5.71823 13.4174 5.97563 13.6786C7.94202 15.6737 9.91036 17.6669 11.8728 19.666C12.018 19.814 12.0938 19.8513 12.263 19.6784C14.2157 17.6838 16.1785 15.6989 18.1387 13.7115C18.4356 13.4105 18.4416 13.3482 18.1677 13.0234C17.4811 12.2093 16.7909 11.3983 16.1038 10.5847C16.0365 10.505 15.9198 10.4258 15.9744 10.31C16.0305 10.191 16.1679 10.2508 16.2709 10.2381C16.4509 10.2158 16.5929 10.2861 16.7244 10.4059C17.6939 11.2896 18.6679 12.1683 19.6367 13.0527C19.9216 13.3127 19.9213 13.4486 19.6479 13.7101C17.2029 16.0483 14.755 18.3837 12.3139 20.7261C12.1244 20.908 12.002 20.8872 11.8238 20.7163C9.38871 18.3817 6.94808 16.0531 4.50981 13.722C4.22152 13.4463 4.2216 13.3149 4.51835 13.0435C5.47929 12.1652 6.44497 11.2922 7.40497 10.4127C7.54556 10.2841 7.69436 10.2119 7.80439 10.2291Z" fill="#054B84"/>
<path fill-rule="evenodd" clip-rule="evenodd" d="M11.8251 11.5134C11.8252 11.5627 11.8186 11.613 11.8262 11.6612C11.9257 12.2928 11.7687 12.8205 11.2154 13.1916C11.0618 13.2946 11.0652 13.4037 11.2111 13.5125C11.7438 13.91 11.8616 14.4413 11.8293 15.087C11.7784 16.1003 11.8166 17.118 11.8145 18.1338C11.8143 18.2476 11.8558 18.3905 11.7235 18.4536C11.58 18.5221 11.4887 18.407 11.398 18.315C9.84619 16.7427 8.29556 15.1692 6.74002 13.6007C6.5461 13.4052 6.51724 13.2529 6.71352 13.0264C7.46235 12.1622 8.19441 11.2832 8.92758 10.4053C9.02288 10.2912 9.1148 10.232 9.27266 10.2341C10.0122 10.2437 10.752 10.2444 11.4915 10.235C11.7347 10.232 11.8326 10.3288 11.8269 10.5666C11.8194 10.882 11.825 11.1978 11.8251 11.5134ZM8.15886 12.8804C8.87696 12.8804 9.51499 12.8847 10.153 12.8783C10.4015 12.8759 10.8953 12.3581 10.899 12.1095C10.9028 11.8637 10.8918 11.6174 10.9027 11.372C10.9097 11.2135 10.8489 11.1702 10.6979 11.1741C10.3441 11.1831 9.98983 11.1771 9.63577 11.1769C9.55689 11.1769 9.48503 11.1775 9.42696 11.2527C9.02043 11.7791 8.60992 12.3024 8.15886 12.8804ZM10.899 16.3074C10.899 15.7246 10.9001 15.1291 10.8968 14.5336C10.8965 14.4889 10.8769 14.4321 10.8459 14.4015C10.5582 14.1179 10.3133 13.7549 9.81496 13.8631C9.69299 13.8896 9.56027 13.867 9.43238 13.867C9.10625 13.867 8.78005 13.867 8.41617 13.867C9.26995 14.7062 10.0788 15.5013 10.899 16.3074Z" fill="#024982"/>
<path fill-rule="evenodd" clip-rule="evenodd" d="M13.3207 16.29C14.1468 15.4749 14.9509 14.6814 15.7881 13.8553C15.6033 13.8553 15.4418 13.8553 15.2803 13.8553C14.4221 13.8553 13.5637 13.8468 12.7057 13.8602C12.4221 13.8646 12.3118 13.7532 12.3128 13.481C12.3165 12.534 12.311 11.587 12.3157 10.6401C12.3172 10.3302 12.4141 10.2405 12.7303 10.2389C13.48 10.235 14.2298 10.2403 14.9794 10.2318C15.1244 10.2301 15.2134 10.2797 15.2983 10.3912C15.7106 10.9323 16.1304 11.4676 16.5456 12.0064C16.6044 12.0828 16.6914 12.164 16.6486 12.2682C16.6034 12.3783 16.485 12.3469 16.3893 12.3609C15.9169 12.4296 15.5393 12.3006 15.298 11.8634C14.9811 11.2895 14.5004 11.1105 13.8546 11.1817C13.3311 11.2394 13.3261 11.1935 13.3261 11.7165C13.3261 12.0124 13.3398 12.3092 13.3215 12.604C13.3082 12.8181 13.3858 12.8653 13.5884 12.8636C14.7325 12.8544 15.8769 12.859 17.0211 12.8595C17.1098 12.8595 17.1994 12.8559 17.2869 12.8672C17.4249 12.8851 17.5678 12.909 17.6196 13.0678C17.6703 13.2231 17.622 13.3584 17.5144 13.4752C17.4809 13.5114 17.4451 13.5455 17.4103 13.5805C15.8381 15.161 14.2659 16.7415 12.6938 18.3222C12.618 18.3983 12.5503 18.5027 12.4237 18.4637C12.2784 18.419 12.3283 18.2846 12.328 18.1862C12.3244 17.0025 12.3307 15.8186 12.3217 14.635C12.3198 14.3828 12.4206 14.3096 12.657 14.3166C13.3923 14.3385 13.3126 14.1993 13.3198 14.9778C13.324 15.4186 13.3207 15.8596 13.3207 16.29Z" fill="#054B84"/>
<path fill-rule="evenodd" clip-rule="evenodd" d="M29.6584 24.161C29.9118 23.5744 30.1532 23.078 30.3386 22.5616C30.4428 22.2713 30.6449 22.3884 30.8157 22.3713C31.0224 22.3506 30.9466 22.5347 30.9589 22.6261C31.0556 23.3384 31.1329 24.0534 31.2312 24.7655C31.2575 24.9557 31.214 24.995 31.0245 24.987C30.5493 24.9667 30.5549 24.9773 30.5191 24.5108C30.4891 24.1207 30.4427 23.732 30.3962 23.2692C30.1047 23.795 29.9216 24.2899 29.7119 24.7722C29.6632 24.8845 29.6538 25.0141 29.4659 25.0047C29.2873 24.9959 29.3041 24.864 29.2609 24.7657C29.0866 24.3697 28.9149 23.9725 28.7408 23.5764C28.7103 23.5068 28.6899 23.4258 28.5797 23.4003C28.5089 23.8363 28.4414 24.2701 28.4451 24.7082C28.447 24.9457 28.3626 25.0303 28.1404 24.9855C27.9157 24.9403 28.0598 24.7906 28.0733 24.6933C28.1712 23.9912 28.2775 23.2902 28.3839 22.5893C28.3979 22.4977 28.3377 22.3292 28.5232 22.3715C28.6807 22.4073 28.8914 22.235 28.9956 22.5221C29.1864 23.048 29.413 23.5608 29.6584 24.161Z" fill="#054B84"/>
<path fill-rule="evenodd" clip-rule="evenodd" d="M21.1386 23.3781C20.8288 23.8187 20.6432 24.3045 20.44 24.7823C20.397 24.8834 20.3874 25.0032 20.2143 25.0051C20.0378 25.007 20.0367 24.8844 19.9934 24.784C19.7873 24.3066 19.5834 23.8283 19.3449 23.2718C19.2176 23.827 19.2014 24.3118 19.1586 24.7926C19.1493 24.8976 19.18 24.9957 18.9988 24.9933C18.7971 24.9907 18.7438 24.967 18.7837 24.7412C18.9101 24.0238 19.0007 23.3002 19.1089 22.5794C19.1217 22.4943 19.0851 22.3384 19.2396 22.372C19.3994 22.4068 19.615 22.2363 19.7193 22.5071C19.9201 23.0279 20.1359 23.5429 20.3725 24.1271C20.6513 23.6125 20.8784 23.1437 21.03 22.6547C21.1331 22.322 21.3396 22.371 21.5668 22.3669C21.6839 22.3648 21.6823 22.4472 21.6893 22.5267C21.7585 23.3019 21.8447 24.0752 21.9754 24.8427C21.9968 24.9689 21.9562 24.9863 21.8396 24.9896C21.3137 25.0045 21.311 25.0093 21.2513 24.4869C21.2093 24.1177 21.176 23.7477 21.1386 23.3781Z" fill="#054B84"/>
<path fill-rule="evenodd" clip-rule="evenodd" d="M33.0393 22.2998C33.7822 22.3033 34.2949 22.6129 34.4798 23.1407C34.6746 23.6967 34.5113 24.3599 34.0934 24.7097C33.5846 25.1356 32.643 25.1772 32.0986 24.7977C31.6627 24.4939 31.4747 23.9089 31.6231 23.3186C31.7676 22.7444 32.1932 22.3776 32.793 22.3134C32.8907 22.303 32.9895 22.3024 33.0393 22.2998ZM32.2822 23.7036C32.2785 23.9323 32.3007 24.1555 32.405 24.3648C32.535 24.6254 32.7421 24.7793 33.0327 24.7863C33.3218 24.7933 33.5545 24.6617 33.6831 24.4013C33.9136 23.9346 33.9224 23.4513 33.716 22.9744C33.5999 22.7059 33.372 22.5692 33.082 22.5672C32.7929 22.5651 32.5717 22.7006 32.4358 22.9598C32.3138 23.1923 32.2755 23.4439 32.2822 23.7036Z" fill="#054B84"/>
<path fill-rule="evenodd" clip-rule="evenodd" d="M35.7244 22.3659C36.1035 22.3556 36.3817 22.3269 36.6528 22.3931C37.2534 22.5396 37.582 23.0198 37.5606 23.7046C37.5403 24.3611 37.1168 24.8608 36.4943 24.9761C36.042 25.0599 35.5884 24.94 35.1367 24.9969C35.0075 25.0131 35.0231 24.9242 35.0287 24.8444C35.083 24.0663 35.0851 23.288 35.0281 22.51C35.019 22.3858 35.0651 22.3599 35.1772 22.3637C35.3937 22.3709 35.6107 22.3659 35.7244 22.3659ZM36.8658 23.6502C36.8757 22.9298 36.5404 22.5784 35.8956 22.6166C35.7556 22.6249 35.7061 22.6685 35.7063 22.8063C35.7069 23.3766 35.7034 23.9469 35.6948 24.5169C35.6924 24.6815 35.7566 24.7339 35.9205 24.7379C36.5298 24.7533 36.8558 24.3848 36.8658 23.6502Z" fill="#054B84"/>
<path fill-rule="evenodd" clip-rule="evenodd" d="M44.2399 23.5848C44.7547 23.7536 44.9476 23.9725 44.8981 24.3315C44.8477 24.697 44.5569 24.9466 44.0609 24.9872C43.684 25.0181 43.3017 24.9935 42.9219 24.9976C42.7798 24.9992 42.8044 24.9162 42.8073 24.8371C42.8362 24.0599 42.8595 23.2825 42.7875 22.5064C42.775 22.3724 42.8441 22.3661 42.9575 22.3662C43.2729 22.3663 43.5884 22.3522 43.9037 22.3543C44.4103 22.3578 44.7319 22.5358 44.8036 22.8413C44.8833 23.1801 44.758 23.3454 44.2399 23.5848ZM43.5344 24.228C43.5354 24.228 43.5363 24.228 43.5374 24.228C43.5374 24.3259 43.5346 24.4239 43.5379 24.5218C43.5461 24.7496 43.6516 24.8036 43.8826 24.7003C44.1927 24.5616 44.2577 24.0249 43.983 23.8365C43.8678 23.7575 43.7194 23.7015 43.5886 23.7535C43.4782 23.7973 43.5469 23.9298 43.5359 24.0225C43.5279 24.0903 43.5344 24.1594 43.5344 24.228ZM43.5353 23.0994C43.5833 23.1958 43.4449 23.3762 43.598 23.4708C43.7025 23.5355 43.8503 23.4565 43.9527 23.379C44.1294 23.2456 44.1574 22.8899 44.0092 22.7298C43.909 22.6214 43.7711 22.5847 43.628 22.6093C43.4666 22.6372 43.5562 22.7686 43.5381 22.8533C43.5241 22.9195 43.5353 22.9902 43.5353 23.0994Z" fill="#054B84"/>
<path fill-rule="evenodd" clip-rule="evenodd" d="M48.3181 23.7982C48.3181 24.1849 48.3109 24.487 48.3213 24.7884C48.3262 24.9312 48.3116 24.9955 48.1373 24.992C47.6575 24.9823 47.6653 24.9926 47.6672 24.5082C47.6699 23.8486 47.6638 23.1888 47.6495 22.5293C47.6468 22.3978 47.6729 22.3589 47.806 22.3613C48.1702 22.368 48.5349 22.3489 48.8986 22.3617C49.3007 22.3759 49.5276 22.5569 49.5905 22.8772C49.6597 23.2299 49.5338 23.487 49.1639 23.6538C49.0215 23.7179 49.0394 23.7631 49.1034 23.8617C49.3381 24.2228 49.5696 24.5862 49.8338 24.9977C49.5872 24.9977 49.3684 24.9934 49.1497 24.9993C49.0267 25.0026 49.0185 24.9019 48.9739 24.8316C48.7693 24.5088 48.5644 24.1863 48.3181 23.7982ZM48.301 23.0984C48.2993 23.0984 48.2974 23.0984 48.2956 23.0984C48.2956 23.2156 48.2979 23.3328 48.2949 23.4499C48.2927 23.5341 48.3279 23.5805 48.4128 23.5795C48.6166 23.577 48.821 23.5468 48.8973 23.3282C48.9725 23.1132 49.0003 22.8798 48.8049 22.7029C48.6902 22.5991 48.528 22.5809 48.3879 22.6201C48.2332 22.6632 48.3252 22.819 48.3031 22.9232C48.2913 22.9792 48.301 23.0399 48.301 23.0984Z" fill="#054B84"/>
<path fill-rule="evenodd" clip-rule="evenodd" d="M6.53958 23.2475C6.53239 23.0837 6.52697 22.8075 6.50522 22.5325C6.49506 22.4044 6.52375 22.3652 6.66003 22.3611C7.20495 22.3448 7.19995 22.339 7.1909 22.8881C7.18421 23.2922 7.17812 23.6972 7.19775 24.1006C7.21646 24.4862 7.435 24.6955 7.78559 24.7105C8.13795 24.7257 8.39721 24.5045 8.43708 24.1238C8.49065 23.6127 8.49607 23.0975 8.44529 22.5873C8.41786 22.3123 8.57716 22.3825 8.72401 22.3663C8.95677 22.3405 8.88119 22.482 8.8762 22.6044C8.85918 23.0182 8.8503 23.4323 8.83955 23.8463C8.8128 24.8722 7.89325 25.4008 6.97963 24.9121C6.69371 24.7592 6.55676 24.5035 6.54204 24.1885C6.52942 23.9128 6.53958 23.6361 6.53958 23.2475Z" fill="#054B84"/>
<path fill-rule="evenodd" clip-rule="evenodd" d="M52.4793 23.2895C52.4793 23.5652 52.4952 23.842 52.4758 24.1163C52.4393 24.6307 52.0765 24.9926 51.5643 25.0342C51.3789 25.0494 51.1885 25.0488 51.0042 25.0253C50.5638 24.9689 50.2816 24.7177 50.2217 24.3032C50.1342 23.6968 50.2175 23.0828 50.1688 22.4736C50.1612 22.3782 50.2106 22.3524 50.2945 22.3642C50.3042 22.3655 50.3142 22.3659 50.3241 22.3655C50.8818 22.3425 50.8768 22.3423 50.8477 22.9067C50.8259 23.3294 50.7983 23.7532 50.8686 24.1748C50.9249 24.5127 51.1127 24.6904 51.433 24.7102C51.7562 24.7301 52.0072 24.5601 52.0749 24.2245C52.1847 23.6796 52.1226 23.125 52.1151 22.5749C52.1127 22.4053 52.1532 22.3701 52.32 22.3622C52.5301 22.3522 52.5644 22.4252 52.5416 22.6109C52.5142 22.8352 52.5158 23.0632 52.5048 23.2895C52.4962 23.2895 52.4877 23.2895 52.4793 23.2895Z" fill="#054B84"/>
<path fill-rule="evenodd" clip-rule="evenodd" d="M4.13402 23.652C4.13402 23.2879 4.13374 22.9237 4.13421 22.5596C4.1343 22.469 4.0807 22.3558 4.26905 22.3594C4.67849 22.3673 5.08933 22.3482 5.49756 22.3706C5.95727 22.396 6.19375 22.6197 6.23493 23.0152C6.27564 23.4066 6.05622 23.7163 5.64697 23.8277C5.52409 23.8611 5.38767 23.8986 5.26618 23.8817C4.8968 23.8303 4.78542 23.9719 4.84542 24.2848C4.86193 24.3709 4.84811 24.4617 4.85247 24.5502C4.87371 24.9794 4.87241 24.9581 4.39712 24.9916C4.1189 25.0113 4.11223 24.9134 4.12299 24.7145C4.14209 24.3611 4.12836 24.0062 4.12836 23.6519C4.13022 23.652 4.13207 23.652 4.13402 23.652ZM4.86861 23.1269C4.8662 23.1269 4.86369 23.1269 4.86119 23.1269C4.86119 23.2153 4.87278 23.3054 4.85905 23.3921C4.81871 23.6471 4.98175 23.6483 5.16945 23.5982C5.36532 23.5457 5.46798 23.412 5.48356 23.2275C5.50025 23.0297 5.51871 22.8263 5.31004 22.6919C5.20145 22.622 5.06438 22.581 4.94206 22.6258C4.81806 22.6712 4.88224 22.7992 4.87065 22.8912C4.86082 22.9688 4.86861 23.0482 4.86861 23.1269Z" fill="#054B84"/>
<path fill-rule="evenodd" clip-rule="evenodd" d="M11.3003 24.9556C11.6542 24.142 11.9962 23.3171 12.2915 22.4742C12.3443 22.3234 12.4377 22.3343 12.5604 22.3289C12.6844 22.3235 12.7579 22.3385 12.8016 22.4702C13.08 23.3096 13.418 24.1268 13.7708 24.9932C13.5342 24.9932 13.3246 24.9905 13.1151 24.9946C13.046 24.996 13.0026 24.9798 12.987 24.9077C12.9787 24.8694 12.9607 24.8335 12.9484 24.7961C12.7635 24.23 12.6327 24.1543 12.0457 24.2518C11.9519 24.2674 11.9061 24.3072 11.8815 24.3897C11.8562 24.4746 11.8171 24.5574 11.8062 24.6439C11.7673 24.955 11.6084 25.0674 11.3003 24.9556ZM12.3661 23.13C12.2448 23.4435 12.1479 23.6937 12.0498 23.9471C12.2647 23.9471 12.4518 23.9471 12.6448 23.9471C12.6372 23.8945 12.638 23.8644 12.6284 23.8381C12.5485 23.619 12.4667 23.4006 12.3661 23.13Z" fill="#054B84"/>
<path fill-rule="evenodd" clip-rule="evenodd" d="M22.2369 24.9635C22.5688 24.1217 22.8988 23.3028 23.2111 22.4772C23.2696 22.3225 23.3558 22.3326 23.4782 22.3298C23.5984 22.3271 23.6692 22.3381 23.7196 22.4734C24.0109 23.2556 24.3117 24.0343 24.6191 24.8103C24.6817 24.9684 24.6421 25.0058 24.4913 24.9852C24.4815 24.9839 24.4716 24.984 24.4617 24.9841C23.9426 24.9871 23.9326 24.9903 23.7774 24.4938C23.7209 24.3131 23.6391 24.2273 23.4506 24.2497C23.4021 24.2554 23.3523 24.2475 23.3031 24.2491C22.7318 24.2665 22.8587 24.1689 22.7182 24.6856C22.6373 24.983 22.5027 25.0378 22.2369 24.9635ZM23.286 23.1323C23.2224 23.2915 23.1857 23.3814 23.1503 23.472C22.9461 23.9952 22.9461 23.9954 23.5173 23.9625C23.5329 23.9617 23.5475 23.9468 23.5775 23.9302C23.4892 23.6886 23.4005 23.4456 23.286 23.1323Z" fill="#054B84"/>
<path fill-rule="evenodd" clip-rule="evenodd" d="M44.8394 24.9596C45.0837 24.3521 45.3289 23.7447 45.5719 23.1364C45.6485 22.9449 45.7242 22.7528 45.7906 22.5577C45.8409 22.4103 45.8879 22.3198 46.0891 22.3213C46.2902 22.3227 46.3098 22.4329 46.3547 22.5603C46.612 23.2926 46.8846 24.0194 47.1983 24.7293C47.3022 24.9643 47.2426 24.9992 47.0091 24.9882C46.5423 24.9665 46.5298 24.9824 46.4026 24.5499C46.3379 24.33 46.2434 24.2033 45.9988 24.2485C45.9703 24.2539 45.9398 24.2479 45.9103 24.2488C45.3467 24.2672 45.4686 24.1652 45.3253 24.686C45.2451 24.977 45.1126 25.042 44.8394 24.9596ZM45.8842 23.1534C45.8373 23.2735 45.8035 23.36 45.7697 23.4465C45.5496 24.0113 45.5496 24.0113 46.1782 23.9503C46.1079 23.6854 46.0155 23.4326 45.8842 23.1534Z" fill="#054B84"/>
<path fill-rule="evenodd" clip-rule="evenodd" d="M37.9898 23.6738C37.9898 23.2993 38.0012 22.9243 37.9845 22.5505C37.9772 22.3861 38.0235 22.353 38.1773 22.3577C38.5713 22.3698 38.9662 22.3737 39.3602 22.36C39.5308 22.3541 39.5187 22.4383 39.5241 22.5552C39.5307 22.7006 39.4692 22.7254 39.3478 22.6906C39.3198 22.6824 39.2894 22.6823 39.2599 22.68C38.6531 22.629 38.6057 22.6829 38.6611 23.3007C38.6727 23.4305 38.7189 23.4737 38.8405 23.4655C38.988 23.4554 39.1359 23.4517 39.2837 23.4451C39.3961 23.4401 39.5091 23.3918 39.5122 23.5982C39.5154 23.8053 39.417 23.785 39.2785 23.7779C38.6611 23.7462 38.6777 23.7493 38.6565 24.3748C38.6471 24.6531 38.744 24.7206 38.9908 24.6815C39.0972 24.6646 39.2081 24.6767 39.3153 24.6624C39.4267 24.6475 39.5299 24.6075 39.5182 24.7948C39.51 24.9243 39.5237 25.0088 39.3358 24.9987C38.9427 24.9774 38.547 24.9791 38.1536 24.9989C37.9717 25.0081 37.9705 24.9368 37.9739 24.7976C37.9829 24.4233 37.9769 24.0485 37.9769 23.674C37.9814 23.6738 37.9855 23.6738 37.9898 23.6738Z" fill="#054B84"/>
<path fill-rule="evenodd" clip-rule="evenodd" d="M18.3965 24.6482C18.4678 24.927 18.3919 25.0222 18.0971 24.9937C17.7462 24.9597 17.3888 24.9822 17.0349 24.9975C16.8891 25.0037 16.8529 24.9781 16.8669 24.8236C16.9343 24.077 16.9067 23.3277 16.8902 22.5799C16.8859 22.387 16.9326 22.3503 17.1125 22.358C17.4861 22.3738 17.8609 22.373 18.2348 22.3616C18.3904 22.3567 18.4308 22.3977 18.4321 22.5545C18.4336 22.7389 18.3419 22.7129 18.2288 22.6873C18.2097 22.683 18.1897 22.6813 18.1701 22.6809C17.4104 22.6658 17.5854 22.5486 17.5517 23.2768C17.5438 23.4484 17.6199 23.4765 17.76 23.4654C17.8974 23.4545 18.0354 23.453 18.1731 23.4451C18.2887 23.4385 18.3956 23.4 18.3982 23.6008C18.401 23.8112 18.2943 23.7832 18.1605 23.7766C17.5543 23.7466 17.5731 23.7493 17.5471 24.3449C17.534 24.6438 17.6317 24.7265 17.9077 24.6818C18.0616 24.657 18.22 24.6594 18.3965 24.6482Z" fill="#054B84"/>
<path fill-rule="evenodd" clip-rule="evenodd" d="M10.8668 23.0199C10.7376 22.6888 10.5405 22.5598 10.2494 22.5924C10.0949 22.6096 9.95497 22.6502 9.91273 22.8254C9.86999 23.0032 9.9366 23.1355 10.0995 23.214C10.2586 23.2907 10.4205 23.3618 10.5824 23.4324C10.9943 23.6121 11.1439 23.8542 11.1069 24.2855C11.0752 24.6555 10.8073 24.9469 10.4108 25.0226C10.2769 25.0483 10.1361 25.0509 9.99923 25.0455C9.40268 25.0218 9.33844 24.9334 9.48182 24.3237C9.59405 24.4329 9.61335 24.5967 9.74395 24.6728C9.92196 24.7765 10.1044 24.8245 10.3072 24.7571C10.4615 24.7058 10.5569 24.6103 10.5754 24.4421C10.5933 24.2795 10.5103 24.1792 10.3783 24.1124C10.1855 24.0148 9.98366 23.9342 9.79575 23.8284C9.48089 23.6511 9.3425 23.3547 9.40107 23.0088C9.45956 22.6635 9.65737 22.446 10.002 22.3604C10.1574 22.3217 10.3127 22.3076 10.4704 22.3233C10.9944 22.3754 11.0358 22.4377 10.8668 23.0199Z" fill="#054B84"/>
<path fill-rule="evenodd" clip-rule="evenodd" d="M25.0463 24.2602C25.1853 24.5782 25.3425 24.7697 25.6298 24.785C25.8492 24.7968 26.054 24.7547 26.1305 24.5146C26.2074 24.2731 26.0522 24.1534 25.858 24.0629C25.68 23.9801 25.4996 23.9003 25.3297 23.8026C25.0299 23.6302 24.9279 23.3527 24.9709 23.023C25.0145 22.6894 25.2019 22.4664 25.5303 22.3706C25.7224 22.3146 25.9176 22.3006 26.115 22.3331C26.6116 22.4148 26.6288 22.4475 26.4334 22.9773C26.3058 22.7159 26.1294 22.5538 25.8345 22.5907C25.6698 22.6113 25.5191 22.6467 25.4796 22.8397C25.4425 23.0211 25.5214 23.1457 25.6824 23.2218C25.8332 23.2931 25.9856 23.3613 26.1389 23.4275C26.5753 23.6164 26.7319 23.88 26.6727 24.3305C26.6238 24.7016 26.323 24.9801 25.9072 25.0345C25.8196 25.0459 25.7304 25.0504 25.6419 25.0496C25.0181 25.0438 24.9369 24.9504 25.0463 24.2602Z" fill="#054B84"/>
<path fill-rule="evenodd" clip-rule="evenodd" d="M14.2983 23.8508C14.2983 23.5456 14.2811 23.2391 14.3038 22.9356C14.3218 22.6969 14.2257 22.6419 14.0181 22.6757C13.9406 22.6883 13.8593 22.6787 13.783 22.695C13.6514 22.723 13.5854 22.7064 13.5901 22.5435C13.594 22.4089 13.6127 22.358 13.7666 22.361C14.3374 22.3721 14.9087 22.3725 15.4793 22.3597C15.6483 22.356 15.6386 22.4338 15.6452 22.5538C15.6532 22.7007 15.593 22.7048 15.4713 22.6974C14.9569 22.6663 14.9555 22.6709 14.9558 23.1791C14.9562 23.7107 14.947 24.2428 14.9668 24.7738C14.9742 24.9718 14.9135 24.9967 14.7383 24.9893C14.2914 24.9702 14.292 24.9794 14.2968 24.5302C14.2993 24.3037 14.2972 24.0772 14.2972 23.8509C14.2977 23.8508 14.2981 23.8508 14.2983 23.8508Z" fill="#024982"/>
<path fill-rule="evenodd" clip-rule="evenodd" d="M39.9381 23.6837C39.938 23.3103 39.9516 22.9362 39.9322 22.5639C39.9226 22.379 39.9858 22.3609 40.1445 22.3648C40.644 22.3771 40.6303 22.3696 40.611 22.8739C40.5908 23.4041 40.6072 23.9355 40.5943 24.4661C40.5895 24.6578 40.6689 24.704 40.8404 24.6875C40.9967 24.6725 41.156 24.6873 41.3114 24.6691C41.4536 24.6524 41.4974 24.6896 41.4971 24.8383C41.4969 24.9794 41.4469 25.0031 41.3242 24.9942C40.9215 24.9647 40.5178 24.9674 40.1163 25.0061C39.9391 25.0231 39.9311 24.946 39.9348 24.8041C39.9448 24.4309 39.9382 24.0573 39.9381 23.6837Z" fill="#054B84"/>
<path fill-rule="evenodd" clip-rule="evenodd" d="M55.6754 24.5746C55.0497 24.5414 55.0331 24.173 54.7948 23.965C54.6505 23.8393 54.5755 23.6489 54.2877 23.6899C53.9395 23.739 54.138 23.9592 54.0756 24.0992C54.0063 24.2545 54.254 24.5522 53.8578 24.545C53.4975 24.5383 53.6613 24.2474 53.644 24.0794C53.6175 23.8292 53.6371 23.5764 53.6371 23.3244C53.6373 22.5274 54.0813 22.3009 55.1485 22.553C55.6402 22.6692 55.9555 23.1982 55.567 23.3983C54.8314 23.7769 55.3205 24.0337 55.5722 24.346C55.6118 24.3946 55.6231 24.4556 55.6754 24.5746ZM54.5245 23.4175C54.8814 23.424 55.2502 23.4101 55.2484 23.1016C55.247 22.794 54.875 22.79 54.5488 22.7809C54.261 22.7729 54.0647 22.7885 54.066 23.0707C54.0674 23.3417 54.1669 23.4688 54.5245 23.4175Z" fill="#054B84"/>
</svg>
