<svg width="60" height="36" viewBox="0 0 60 36" fill="none" xmlns="http://www.w3.org/2000/svg">
<path d="M26.15 24.1612C23.6196 24.1612 21.0887 24.1612 18.5584 24.1612C18.3617 24.1612 18.3344 24.1024 18.4205 23.9249C18.7097 23.3286 18.9924 22.7293 19.2764 22.1312C19.4817 21.6983 19.6854 21.2643 19.8902 20.8308C20.2852 19.9948 20.6727 19.1552 21.0806 18.3261C21.1783 18.1277 21.2982 17.9357 21.3802 17.7309C21.4442 17.5721 21.5053 17.4127 21.5786 17.2573C21.8916 16.5917 22.2012 15.9244 22.5148 15.2588C22.7684 14.7206 23.0273 14.1847 23.2822 13.6465C23.4934 13.2009 23.7022 12.7535 23.9123 12.3072C24.2317 11.6288 24.5511 10.9504 24.8705 10.272C25.1655 9.64596 25.4593 9.01993 25.7549 8.39447C26.0528 7.76436 26.3524 7.13542 26.6509 6.50589C27.014 5.7408 27.3788 4.97687 27.7372 4.20945C27.793 4.0896 27.8704 4.05062 27.9978 4.0512C29.3261 4.05411 30.6544 4.05295 31.9827 4.05295C32.1724 4.05295 32.1956 4.09542 32.113 4.2688C31.7337 5.06415 31.3572 5.86065 30.9779 6.656C30.6259 7.39433 30.271 8.13149 29.9201 8.86982C29.4634 9.83156 29.0108 10.7951 28.554 11.7574C28.266 12.3648 27.9716 12.9693 27.6836 13.5767C27.4329 14.1062 27.1891 14.6391 26.9383 15.1686C26.6649 15.7463 26.3856 16.3206 26.1116 16.8977C25.7468 17.6675 25.3854 18.439 25.0206 19.2081C24.8362 19.5968 24.6489 19.9849 24.4586 20.3706C24.376 20.5388 24.4103 20.6039 24.5942 20.6039C28.1526 20.6033 31.711 20.6033 35.2688 20.6033C35.512 20.6033 35.6138 20.5527 35.4526 20.8849C35.1251 21.5599 34.8231 22.2464 34.5089 22.9277C34.3425 23.2879 34.1697 23.6457 34.0062 24.007C33.9481 24.1356 33.8538 24.1617 33.7258 24.1617C31.5102 24.1594 29.2947 24.16 27.0797 24.1594C26.7696 24.1594 26.4589 24.1594 26.1488 24.1594C26.15 24.1606 26.15 24.1612 26.15 24.1612Z" fill="#D93732"/>
<path d="M39.4399 24.1612C38.7853 24.1612 38.1313 24.1594 37.4768 24.1623C37.3523 24.1629 37.2685 24.1268 37.2127 24.0064C36.9677 23.4804 36.7146 22.958 36.4673 22.4332C36.2119 21.8903 35.9612 21.3452 35.7057 20.8017C35.3107 19.9622 34.9139 19.1238 34.5177 18.2848C34.4269 18.0922 34.3309 17.902 34.2442 17.7076C34.193 17.593 34.1104 17.5558 33.9911 17.5558C32.5372 17.5581 31.0832 17.5581 29.6287 17.5593C29.4169 17.5593 29.3907 17.5209 29.4785 17.3353C29.887 16.4742 30.2931 15.6119 30.7021 14.7508C31.2234 13.6535 31.7488 12.5585 32.2701 11.4612C32.7786 10.3907 33.2842 9.3184 33.7904 8.24669C33.8212 8.18094 33.8474 8.11287 33.8794 8.04771C33.9004 8.00465 33.9219 7.95171 33.9783 7.95287C34.0377 7.95461 34.0697 8.00232 34.0924 8.05236C34.2396 8.36829 34.3844 8.68538 34.5328 9.00072C34.8452 9.66691 35.16 10.3319 35.473 10.9975C35.8297 11.7562 36.1863 12.5155 36.543 13.2742C36.8601 13.9485 37.1777 14.6223 37.4948 15.296C37.8905 16.1367 38.2849 16.978 38.6812 17.8188C38.986 18.4663 39.2921 19.1133 39.5975 19.7603C40.0595 20.7407 40.5209 21.7216 40.9834 22.702C41.1777 23.1133 41.3732 23.5235 41.5705 23.9331C41.6566 24.1117 41.6281 24.1612 41.432 24.1612C40.7676 24.1617 40.1037 24.1617 39.4399 24.1612Z" fill="#D93732"/>
<path d="M40.394 30.3849C40.394 30.0701 40.3934 29.7553 40.394 29.4406C40.3946 29.266 40.4429 29.2189 40.6192 29.2177C40.7693 29.2172 40.9194 29.2166 41.0695 29.2177C41.251 29.2189 41.297 29.262 41.2958 29.4371C41.2947 29.5773 41.3028 29.7175 41.2854 29.8577C41.2685 29.9916 41.336 30.0625 41.4716 30.0503C41.6601 30.0334 41.8474 30.0311 42.0359 30.0521C42.1628 30.0666 42.2192 30.0009 42.2134 29.8694C42.2064 29.7198 42.2041 29.5697 42.2006 29.4196C42.1971 29.2887 42.2634 29.2206 42.3926 29.2183C42.5671 29.2154 42.7411 29.2166 42.9156 29.2172C43.0477 29.2177 43.1059 29.2829 43.1053 29.4167C43.103 30.0608 43.1047 30.7049 43.1036 31.3489C43.1036 31.5002 43.0547 31.5491 42.904 31.5514C42.7347 31.5537 42.5648 31.5532 42.3955 31.5508C42.2675 31.5491 42.2006 31.4828 42.2012 31.3518C42.2023 31.1726 42.2 30.9934 42.2035 30.8142C42.2052 30.7153 42.1633 30.6746 42.0644 30.6764C41.8561 30.6798 41.6478 30.6798 41.4396 30.6769C41.3354 30.6758 41.2918 30.7188 41.2947 30.8253C41.2999 31.0045 41.2947 31.1837 41.2982 31.3629C41.3005 31.4915 41.2359 31.5508 41.1132 31.552C40.9438 31.5537 40.774 31.5537 40.6046 31.552C40.447 31.5502 40.3958 31.5002 40.3952 31.3431C40.3934 31.0243 40.394 30.7049 40.394 30.3849Z" fill="#D93732"/>
<path fill-rule="evenodd" clip-rule="evenodd" d="M33.4378 30.1051C33.4375 30.1937 33.4372 30.2823 33.4372 30.3709C33.4372 30.4683 33.4374 30.5657 33.4376 30.6631C33.4379 30.8904 33.4383 31.1176 33.4367 31.3449C33.4355 31.4682 33.489 31.5235 33.6106 31.5223C33.7706 31.5206 33.9306 31.5188 34.0906 31.5223C34.2163 31.5252 34.264 31.4636 34.2611 31.3437C34.2587 31.2538 34.2585 31.164 34.2583 31.0743C34.2582 31.009 34.258 30.9437 34.257 30.8783C34.2559 30.8055 34.2698 30.7415 34.3449 30.7113C34.4927 30.6508 34.6858 30.7119 34.7714 30.8538C34.8633 31.0068 34.9523 31.1628 35.0332 31.3222C35.1036 31.4607 35.1961 31.5375 35.3636 31.5241C35.4686 31.5159 35.5744 31.518 35.6804 31.52C35.7395 31.5212 35.7986 31.5224 35.8576 31.5218C36.0095 31.52 36.0386 31.4764 35.9618 31.3495C35.8531 31.1701 35.7383 30.9943 35.6235 30.8187C35.6166 30.8081 35.6097 30.7975 35.6028 30.7869C35.5149 30.6531 35.5184 30.6333 35.661 30.56C35.9606 30.4058 36.0921 30.0847 35.9874 29.7635C35.8751 29.4208 35.665 29.2596 35.2967 29.255C34.9758 29.251 34.6549 29.2506 34.334 29.2503C34.0975 29.25 33.8611 29.2497 33.6246 29.248C33.4879 29.2468 33.4332 29.3033 33.4355 29.44C33.4392 29.6615 33.4385 29.8834 33.4378 30.1051ZM34.6806 29.7478V29.7426C34.7143 29.7443 34.7481 29.7457 34.7819 29.7471C34.8586 29.7503 34.9355 29.7535 35.0122 29.7612C35.1414 29.7746 35.2176 29.8595 35.213 29.9817C35.2077 30.1056 35.1181 30.1708 34.9936 30.1882C34.8214 30.2121 34.6493 30.2086 34.4771 30.2051C34.4567 30.2047 34.4363 30.2043 34.4159 30.2039C34.2564 30.2004 34.2268 30.1562 34.2274 29.9666C34.2274 29.7961 34.2605 29.7559 34.4199 29.7484C34.4793 29.7456 34.5389 29.7463 34.5984 29.7471C34.6258 29.7474 34.6532 29.7478 34.6806 29.7478Z" fill="#D93732"/>
<path fill-rule="evenodd" clip-rule="evenodd" d="M31.4275 29.2647C31.4018 29.2639 31.376 29.2631 31.3503 29.2631V29.2631C31.3503 29.2637 31.3503 29.2643 31.3508 29.2637C31.3248 29.2637 31.2988 29.2638 31.2729 29.2638C31.2212 29.264 31.1697 29.2641 31.1181 29.2637C30.8883 29.262 30.8674 29.2823 30.7766 29.497C30.6763 29.7342 30.5727 29.9699 30.4691 30.2058C30.4229 30.3108 30.3768 30.4158 30.3309 30.521C30.3049 30.5805 30.2789 30.64 30.2529 30.6994C30.1646 30.9008 30.0765 31.1021 29.9911 31.3047C29.9283 31.4537 29.962 31.506 30.1151 31.5072C30.1828 31.5078 30.2506 31.5075 30.3184 31.5072C30.3862 31.5069 30.454 31.5066 30.5218 31.5072L30.5306 31.5072C30.7645 31.5084 30.7707 31.5084 30.858 31.2803C30.9023 31.1651 30.9738 31.1249 31.0902 31.129C31.0947 31.1292 31.0993 31.1293 31.1038 31.1295C31.2448 31.1346 31.3862 31.1397 31.526 31.1284C31.6941 31.1151 31.8082 31.1599 31.85 31.3379C31.882 31.4711 31.9722 31.5229 32.1107 31.5089C32.1837 31.5018 32.2576 31.5035 32.3315 31.5052C32.3595 31.5058 32.3876 31.5065 32.4156 31.5066C32.5869 31.5072 32.673 31.5075 32.6992 31.468C32.7258 31.4281 32.6911 31.3475 32.6215 31.1855C32.5591 31.04 32.4967 30.8946 32.4342 30.7491C32.2468 30.3129 32.0593 29.8766 31.8739 29.4394C31.8204 29.3137 31.743 29.2433 31.597 29.2614C31.5413 29.2682 31.4845 29.2665 31.4275 29.2647ZM31.3749 30.657C31.3614 30.6568 31.348 30.6566 31.3346 30.6566C31.0756 30.6583 31.0553 30.6275 31.1554 30.3802C31.1722 30.3382 31.1829 30.2942 31.1937 30.2502C31.2105 30.1814 31.2273 30.1127 31.2671 30.0521C31.3194 29.9724 31.3741 29.9497 31.4154 30.0614C31.4211 30.0768 31.4268 30.0923 31.4326 30.1077C31.4804 30.2371 31.5282 30.3662 31.5714 30.4972C31.6016 30.5891 31.5667 30.6484 31.4649 30.656C31.4351 30.658 31.405 30.6575 31.3749 30.657Z" fill="#D93732"/>
<path d="M38.2716 31.5764C37.8544 31.5811 37.4623 31.5107 37.1382 31.2192C36.8415 30.9516 36.7647 30.6083 36.8042 30.2307C36.8723 29.5924 37.375 29.2573 37.9318 29.1956C38.296 29.1549 38.6561 29.1537 39.0099 29.266C39.2188 29.3324 39.3939 29.4458 39.5242 29.6238C39.633 29.7728 39.5935 29.8647 39.4119 29.8938C39.345 29.9043 39.2752 29.9089 39.2129 29.9328C39.0413 29.9997 38.9098 29.9799 38.7743 29.8339C38.5107 29.55 37.8282 29.5977 37.6531 30.1196C37.5251 30.4995 37.6572 30.8369 38.0033 31.0348C38.2221 31.1598 38.5951 31.1116 38.7795 30.905C38.9156 30.7526 39.0489 30.6892 39.2473 30.7607C39.3217 30.7875 39.4108 30.77 39.4928 30.7805C39.6452 30.8003 39.6708 30.8608 39.5964 30.9946C39.4079 31.3338 39.0913 31.4688 38.7347 31.5444C38.5817 31.5764 38.4269 31.5741 38.2716 31.5764Z" fill="#D93732"/>
<path d="M44.9165 30.3901C44.9165 30.7148 44.913 31.0394 44.9183 31.3641C44.9206 31.4996 44.87 31.5607 44.7309 31.5555C44.5663 31.5491 44.4016 31.5549 44.2369 31.5526C44.0991 31.5503 44.0339 31.4857 44.0333 31.3478C44.0321 30.7084 44.0321 30.0689 44.0333 29.4295C44.0333 29.2823 44.0967 29.2207 44.2463 29.2189C44.401 29.2172 44.5564 29.2177 44.7111 29.2183C44.8909 29.2189 44.9153 29.2416 44.9165 29.4173C44.9177 29.7408 44.9165 30.0655 44.9165 30.3901Z" fill="#D93732"/>
<path d="M25.6321 30.0899C25.6321 29.8572 25.6321 29.6244 25.6321 29.3917C25.6321 29.2678 25.7165 29.2381 25.8166 29.2352C25.9196 29.2323 25.9865 29.2841 25.9847 29.3905C25.976 29.87 26.0022 30.3494 25.969 30.8294C25.9457 31.1657 25.7439 31.3676 25.4611 31.474C24.991 31.6515 24.5133 31.655 24.056 31.4124C23.7756 31.2634 23.6313 31.0208 23.6266 30.7055C23.6202 30.2743 23.626 29.8426 23.6225 29.4109C23.6214 29.2829 23.6929 29.2375 23.8035 29.234C23.9204 29.2305 23.9833 29.2893 23.9833 29.4103C23.9827 29.7984 23.9798 30.1859 23.9844 30.574C23.9868 30.7904 24.0118 30.9993 24.2201 31.1354C24.3044 31.1907 24.3987 31.2204 24.4895 31.2372C24.8217 31.2983 25.1539 31.314 25.4512 31.1057C25.5711 31.022 25.6263 30.9009 25.6287 30.7584C25.6321 30.5356 25.6298 30.3121 25.6298 30.0893C25.6304 30.0899 25.631 30.0899 25.6321 30.0899Z" fill="#D93732"/>
<path fill-rule="evenodd" clip-rule="evenodd" d="M17.8829 31.3268C18.1529 31.513 18.4537 31.577 18.7859 31.5689C19.0349 31.5782 19.2793 31.5281 19.5201 31.4223C20.3376 31.0639 20.3655 29.9305 19.6801 29.4673C19.206 29.1473 18.6916 29.1206 18.1697 29.3143C17.7799 29.4592 17.5082 29.7356 17.4442 30.1649C17.375 30.6298 17.4669 31.04 17.8829 31.3268ZM19.2996 31.2163C19.1373 31.2768 18.9744 31.3059 18.8295 31.3001C18.4595 31.3059 18.1546 31.2186 17.9178 30.951C17.6153 30.6089 17.6833 29.9799 18.058 29.6902C18.456 29.3818 19.2537 29.3777 19.6324 29.8019C20.0252 30.2417 19.8512 31.0103 19.2996 31.2163Z" fill="#D93732"/>
<path d="M21.759 29.1997C22.0592 29.1997 22.3594 29.1991 22.6602 29.1997C22.8074 29.2003 22.8836 29.2643 22.8831 29.3841C22.8825 29.5127 22.8179 29.5686 22.666 29.5692C22.4915 29.5697 22.317 29.568 22.143 29.5686C21.9719 29.5692 21.9487 29.5919 21.9487 29.7606C21.9487 30.2935 21.9487 30.8265 21.9504 31.3594C21.9504 31.456 21.9196 31.5398 21.8253 31.566C21.7369 31.5904 21.6444 31.5834 21.5775 31.4944C21.5402 31.4455 21.5466 31.3943 21.5466 31.3425C21.546 30.8288 21.5466 30.3156 21.5478 29.8019C21.5484 29.5767 21.5396 29.5674 21.3081 29.5686C21.1481 29.5692 20.9881 29.5703 20.8287 29.5692C20.6954 29.568 20.6204 29.4999 20.6192 29.3853C20.6186 29.2713 20.6925 29.2026 20.8304 29.2015C21.1388 29.1985 21.4489 29.2003 21.759 29.1997Z" fill="#D93732"/>
<path d="M28.1357 31.5677C27.7726 31.5642 27.4224 31.5113 27.1117 31.3041C27.0878 31.2879 27.064 31.271 27.0419 31.2529C26.9732 31.1959 26.9022 31.1354 26.9558 31.0336C26.9936 30.9615 27.1501 30.944 27.2321 31.0097C27.5929 31.2995 28.0106 31.335 28.4429 31.2733C28.6459 31.2442 28.8362 31.161 28.9177 30.9411C28.9671 30.8073 28.9165 30.6618 28.7937 30.5908C28.7006 30.5373 28.6011 30.4989 28.4935 30.4879C28.2003 30.457 27.9065 30.4273 27.6126 30.3983C27.2478 30.3622 27.014 30.1225 27.0366 29.7996C27.0541 29.5604 27.2025 29.3905 27.4055 29.3167C27.9571 29.1148 28.5057 29.1223 29.0218 29.4447C29.098 29.4924 29.1923 29.5441 29.1527 29.6559C29.1242 29.735 28.9473 29.7571 28.8542 29.6861C28.5162 29.4278 28.1339 29.44 27.7436 29.4906C27.64 29.504 27.5475 29.55 27.4689 29.6145C27.2833 29.7676 27.3206 29.9898 27.5451 30.0852C27.7086 30.1545 27.8867 30.1457 28.0583 30.169C28.3021 30.2016 28.5505 30.1905 28.7902 30.2679C29.0509 30.3529 29.2336 30.5431 29.2592 30.7828C29.2836 31.0121 29.1178 31.2948 28.8938 31.4135C28.657 31.5409 28.401 31.5747 28.1357 31.5677Z" fill="#D93732"/>
<path d="M15.057 30.3709C15.057 30.0463 15.0559 29.7216 15.0576 29.3964C15.0582 29.2422 15.1094 29.2032 15.2746 29.1974C15.4177 29.1922 15.4631 29.2666 15.4625 29.3929C15.462 29.9165 15.4625 30.4402 15.462 30.9632C15.462 31.1855 15.4736 31.1977 15.7028 31.1971C16.0618 31.1965 16.4202 31.1988 16.7792 31.1948C16.9089 31.193 16.9811 31.232 16.9759 31.3757C16.9706 31.5212 16.927 31.57 16.7693 31.5706C16.2602 31.5718 15.7511 31.5695 15.2426 31.5718C15.1135 31.5724 15.057 31.5154 15.0576 31.3885C15.0582 31.0493 15.057 30.7101 15.057 30.3709Z" fill="#D93732"/>
</svg>
