<svg width="60" height="36" viewBox="0 0 60 36" fill="none" xmlns="http://www.w3.org/2000/svg">
<path fill-rule="evenodd" clip-rule="evenodd" d="M26.2435 4.0027C25.4279 4.03349 24.7041 4.89553 24.9466 5.76528C25.1817 6.48109 25.8688 6.54651 26.5228 6.23479C27.6507 5.51513 27.3458 3.92573 26.2435 4.0027ZM34.7196 13.9085C34.6976 13.8662 34.7564 13.2659 34.8519 12.5731C34.9474 11.8804 35.1421 10.3988 35.2891 9.27504C35.7043 6.0847 35.8439 5.12644 35.899 4.75699C35.9583 4.35171 35.9613 4.35172 36.3034 4.35279L36.3619 4.35291H36.9975C37.0877 4.35291 37.1702 4.3524 37.2459 4.35194C37.38 4.35113 37.4928 4.35045 37.5891 4.35291L37.6688 4.35536C37.8582 4.3609 37.9627 4.36396 38.0114 4.41762C38.0712 4.4836 38.0468 4.62608 37.9922 4.94376C37.9773 5.03064 37.9601 5.13063 37.9418 5.24574C37.9126 5.43125 37.8483 5.95154 37.7693 6.59207L37.7692 6.59243L37.7692 6.59272L37.7691 6.59369C37.6989 7.16198 37.617 7.82472 37.5376 8.43224C37.1151 11.6957 36.8396 13.6969 36.7881 13.8508C36.7404 13.9971 34.7821 14.0471 34.7123 13.9047L34.7196 13.9085ZM17.2751 12.3268C17.3303 12.9618 17.6352 13.3852 18.2745 13.72L18.2635 13.7238C18.7852 13.9971 18.7962 13.9971 20.9345 13.9701L22.6025 13.947C22.6594 13.9439 22.7123 13.9446 22.7609 13.9452C22.9541 13.9475 23.0802 13.949 23.1243 13.7123C23.1718 13.4459 23.2066 13.1953 23.2429 12.9332L23.2429 12.9331L23.243 12.9331C23.2712 12.7295 23.3004 12.5188 23.3374 12.2884C23.3741 11.9689 23.3006 11.8804 22.9626 11.8997L21.5371 11.8766C19.9425 11.8535 19.7037 11.8265 19.6082 11.6688C19.5273 11.5341 19.6155 10.6605 19.9535 8.18209C19.9898 7.91683 20.0248 7.66282 20.0579 7.42191L20.0585 7.41787L20.0585 7.41757C20.1997 6.39185 20.308 5.60429 20.3467 5.19956C20.3488 5.17814 20.3512 5.15704 20.3535 5.13639L20.3535 5.13633C20.3755 4.94183 20.393 4.78741 20.1372 4.78393C19.9851 4.77254 19.7646 4.77379 19.5129 4.77521C19.4243 4.77571 19.3318 4.77623 19.2371 4.77623H18.5464C18.1937 4.77623 18.1679 4.79547 18.1018 5.18032C17.8373 6.81205 17.2421 11.9459 17.2751 12.3268ZM39.5584 14.4858C39.4041 14.1241 38.9081 12.9888 38.4562 11.9612C38.0042 10.9337 37.6589 10.0255 37.6883 9.94852C37.7177 9.8677 38.221 9.21347 38.8089 8.49381L39.7641 7.32004L39.7729 7.30868C39.8331 7.23049 39.9005 7.14301 39.9846 7.14301C40.2438 7.14474 40.5067 7.15269 40.7674 7.16057C41.0867 7.17022 41.4026 7.17977 41.704 7.17765L41.7868 7.17663C42.1382 7.17175 42.2965 7.16955 42.0163 7.47013C41.8216 7.72028 41.4395 8.18209 41.0023 8.69008C40.3703 9.42128 39.8523 10.037 39.8523 10.064C39.8523 10.0871 40.3263 11.18 40.9068 12.4885C41.3623 13.516 41.7371 14.4396 41.8657 14.8245C41.9208 14.9553 41.873 15.0669 41.7555 15.0977C41.6012 15.1362 41.3256 15.1516 40.8516 15.1516H40.1389C39.9662 15.1708 39.8376 15.14 39.7715 14.9823L39.562 14.4974L39.5584 14.4858ZM27.8014 14.5012C27.2842 14.7163 26.8733 15.2268 26.8718 15.8985L26.8718 15.8982V15.902L26.8718 15.8985C26.8831 16.7334 27.9153 17.0373 28.6243 16.5255C29.1755 16.0829 29.4877 15.2324 29.0138 14.6551C28.7493 14.3396 28.2496 14.3357 27.8014 14.5012ZM17.1465 23.722C17.7491 22.1827 20.1666 16.6679 20.7471 15.5249C20.8574 15.2401 21.1439 15.1824 21.3423 15.1631C21.855 15.1389 22.3051 15.1427 22.7544 15.1465H22.7544H22.7544H22.7544H22.7544H22.7544H22.7544H22.7544H22.7544H22.7544L22.9038 15.1477C23.3959 15.1514 23.4239 15.3241 23.4833 15.6895L23.4917 15.7404C23.5725 16.1406 24.5755 22.4174 24.8033 23.926C24.8072 23.959 24.8116 23.9891 24.8156 24.0163C24.8418 24.1951 24.8502 24.2531 24.5792 24.2531C24.4196 24.2531 24.1761 24.2616 23.915 24.2707L23.9148 24.2707L23.9147 24.2707C23.4724 24.2861 22.98 24.3033 22.7605 24.2839C22.6466 24.2685 22.5731 24.1915 22.5585 24.103C22.5254 23.9414 22.4886 23.6643 22.4666 23.3757L22.4041 22.6252H21.1109H19.8176L19.5347 23.3487C19.4355 23.6066 19.3253 23.8606 19.2408 24.0261C19.182 24.18 19.0975 24.2531 18.9689 24.2801C18.8679 24.2788 18.6847 24.2827 18.4684 24.2873L18.4679 24.2873L18.4668 24.2873L18.4666 24.2873H18.4666C18.0063 24.2971 17.3969 24.3101 17.1098 24.2839C16.9343 24.2 17.0401 23.9594 17.1092 23.8021L17.1092 23.8021L17.1092 23.802L17.1093 23.802C17.1226 23.7717 17.1346 23.7444 17.1429 23.722H17.1465ZM31.3211 24.4648C29.1203 24.0722 29.135 21.3206 29.6274 19.7505C30.2446 17.9302 31.751 17.4029 32.9891 17.3567C34.0326 17.3183 35.4802 17.5222 35.8439 17.757C35.9431 17.8224 35.8953 18.4535 35.6161 20.7895C35.4214 22.4136 35.2083 23.8105 35.1421 23.8914C34.7931 24.3301 32.4564 24.6803 31.3211 24.4648ZM24.0758 25.7155C24.0053 25.5074 24.2563 25.4018 24.4215 25.3322C24.4457 25.322 24.4681 25.3126 24.4873 25.3037C25.156 25.0036 25.63 24.511 25.788 23.9529C25.8651 23.6835 26.0929 22.1711 26.2987 20.5856C26.5044 19 26.6881 17.7762 26.7102 17.7031L26.7122 17.6954C26.7287 17.6333 26.7746 17.4598 26.982 17.4414C27.3453 17.4389 27.6471 17.4397 27.9711 17.4405H27.9711H27.9711H27.9711H27.9711H27.9712H27.9712H27.9712H27.9713H27.9713H27.9714H27.9714H27.9715H27.9715C28.1422 17.4409 28.319 17.4414 28.5141 17.4414C28.8098 17.4123 28.7728 17.7314 28.7463 17.9615L28.7419 17.9994C28.719 18.2594 28.6584 18.7294 28.5833 19.3118L28.5545 19.5349C28.4903 20.0383 28.4074 20.6913 28.3324 21.2823L28.3321 21.284L28.2018 22.3097C28.0034 23.8606 27.8969 24.3378 27.5552 25.1383C27.151 26.0888 26.5301 26.643 25.4059 27.0355C25.3871 27.0415 25.3655 27.0487 25.3416 27.0565C25.0749 27.1443 24.522 27.3263 24.4579 27.1356C24.3437 26.7527 24.2561 26.4071 24.1624 26.0372L24.1624 26.0371L24.1623 26.0367C24.1354 25.9308 24.1081 25.8229 24.0795 25.7117L24.0758 25.7155ZM16.4668 31.4535C15.9157 31.1533 15.4822 30.8878 15.5006 30.8686C15.5704 30.7954 18.2084 30.2066 20.0527 29.8526C24.0391 29.0867 28.7787 28.4748 33.4998 28.1131C35.4434 27.963 42.4793 27.9592 43.6991 28.1054L44.5 28.2016L43.5999 28.217C41.998 28.2439 38.3276 28.5133 35.4544 28.8135C30.0095 29.3869 23.9583 30.4375 19.5825 31.5767C18.6897 31.8076 17.8483 32 17.716 32C17.5838 32 17.0253 31.7537 16.4742 31.4535H16.4668ZM37.0563 23.1525C36.2701 23.6566 36.2333 24.8804 36.9829 25.196V25.1921C38.1953 25.704 39.4959 24.1915 38.6105 23.2641C38.2541 22.8908 37.5523 22.833 37.0563 23.1525ZM33.6224 20.3282L33.6224 20.3282C33.5149 20.9925 33.4138 21.6171 33.2426 22.2866H33.2463C33.169 22.5296 32.9362 22.5476 32.6917 22.5666C32.6575 22.5692 32.623 22.5719 32.5887 22.5752C31.7069 22.5752 31.3836 21.8594 31.6922 20.5779C31.9126 19.6427 32.3352 19.2232 33.0516 19.2232C33.1875 19.2232 33.7276 19.2271 33.7497 19.5619C33.7037 19.8258 33.6626 20.0797 33.6224 20.3281L33.6224 20.3282ZM21.831 17.7339C21.8898 18.0418 22.1359 20.1353 22.1727 20.5394C22.169 20.5971 22.1617 20.6241 22.0882 20.6317C21.9817 20.6365 21.7762 20.6418 21.5559 20.6475H21.5558L21.5557 20.6475L21.5549 20.6476L21.5546 20.6476C21.2354 20.6559 20.8856 20.665 20.7618 20.6741C20.6994 20.6779 20.6553 20.6548 20.6737 20.5856C20.8169 20.093 21.6399 17.9686 21.7942 17.73L21.7957 17.7281C21.8094 17.7101 21.8168 17.7004 21.831 17.7339ZM37.0821 21.5554C37.1151 21.2821 37.1886 20.5394 37.2437 19.9044C37.2789 19.4992 37.329 18.9499 37.374 18.4565L37.3743 18.4534L37.3744 18.4525L37.3745 18.4519L37.3746 18.4507L37.3746 18.4501L37.3751 18.4448C37.4002 18.1692 37.4238 17.9116 37.4421 17.7069C37.4825 17.2682 37.5193 16.8449 37.534 16.6217C37.567 16.4216 37.7948 16.3985 37.9491 16.3946C38.1082 16.3958 38.264 16.3936 38.417 16.3915H38.417H38.4171H38.4171H38.4172H38.4173H38.4173H38.4174H38.4174H38.4174C38.752 16.3867 39.0732 16.3822 39.3857 16.4139C39.6025 16.437 39.6906 16.487 39.6906 16.6217C39.4849 17.7262 38.7464 21.5284 38.6913 21.7632C38.6435 21.9672 38.6215 22.0249 38.3276 22.0441C38.1346 22.04 37.9592 22.0446 37.7823 22.0493H37.7822H37.7822H37.7822H37.7821H37.7821H37.782H37.782C37.6254 22.0533 37.4676 22.0575 37.2951 22.0557C37.0857 22.0518 37.0269 21.9864 37.0821 21.5554ZM24.4991 8.5736C24.271 10.2423 24.0632 11.7621 23.8481 13.6584C23.8554 13.8239 23.8995 13.847 24.0979 13.8855C24.3201 13.893 24.6822 13.889 25.0096 13.8853H25.0096H25.0097L25.0098 13.8853C25.1802 13.8834 25.3413 13.8816 25.4683 13.8816L25.498 13.8816C25.7931 13.882 25.8708 13.8821 25.9312 13.5429C25.9985 13.1397 26.0651 12.746 26.1306 12.3583C26.4016 10.7553 26.6551 9.2557 26.8681 7.61637C26.9269 7.19689 26.7726 7.11608 26.1737 7.11223C25.9268 7.10299 25.6657 7.10361 25.4056 7.10422H25.4056L25.4054 7.10422C25.3405 7.10438 25.2757 7.10453 25.2111 7.10453C24.9246 7.10453 24.6821 7.13532 24.66 7.39316C24.6051 7.79876 24.5516 8.19011 24.4991 8.5736ZM28.0659 8.43609C28.2312 7.53555 28.3451 7.39316 28.5803 7.23153C28.8742 7.03141 31.0456 6.81975 31.7951 6.91981C31.8979 6.9352 32.0008 6.95444 32.0927 6.97753C34.262 7.5171 33.9563 10.0639 33.8103 11.2802L33.8048 11.3263C33.6541 12.4692 33.5072 13.5122 33.4778 13.643C33.4264 13.8701 33.3786 13.8778 32.3829 13.8778C32.0486 13.8778 31.8759 13.8662 31.6848 13.847C31.3762 13.8277 31.3505 13.7546 31.3799 13.5199C31.4396 13.0009 31.5122 12.5214 31.5838 12.049C31.6443 11.6492 31.7041 11.2545 31.7547 10.8452C31.9053 9.62525 31.8649 8.42069 30.421 8.68238C30.1748 8.74781 30.105 8.76705 30.0719 9.02874C29.959 9.78424 29.8548 10.5549 29.7519 11.315C29.6908 11.7668 29.6302 12.2149 29.5686 12.654C29.5318 12.9349 29.4804 13.2274 29.429 13.4891C29.4218 13.5209 29.4164 13.5518 29.4115 13.5801L29.4115 13.5801C29.4062 13.6099 29.4016 13.6367 29.3959 13.6584C29.3812 13.7123 29.3481 13.7662 29.3151 13.7123C29.0836 13.2697 27.9924 13.3428 27.5368 13.6699C27.5109 13.6887 27.4874 13.7066 27.4661 13.7227C27.3 13.8487 27.2717 13.8701 27.3531 13.4198C27.3605 13.366 27.3687 13.3122 27.377 13.2583L27.377 13.2582C27.3853 13.2043 27.3935 13.1504 27.4009 13.0965C27.4848 12.5237 27.5583 11.9546 27.6317 11.3854V11.3854C27.7576 10.4097 27.8835 9.43404 28.0622 8.43993L28.0659 8.43609Z" fill="#E9232A"/>
</svg>
