<svg width="141" height="42" viewBox="0 0 141 42" fill="none" xmlns="http://www.w3.org/2000/svg">
<path d="M129.772 1.44297e-05H11.2347C10.8026 1.44297e-05 10.3757 1.44297e-05 9.94478 0.00211443C9.58405 0.00421443 9.22618 0.0103149 8.86198 0.0154494C8.07077 0.0237463 7.28142 0.0857745 6.50079 0.200995C5.72126 0.318724 4.96614 0.540676 4.26099 0.859345C3.55669 1.18071 2.91316 1.59829 2.35373 2.09694C1.79137 2.59418 1.3226 3.16893 0.965439 3.79908C0.607295 4.42798 0.358957 5.1019 0.229002 5.79757C0.0978117 6.49236 0.0272168 7.19516 0.0178512 7.89967C0.00691661 8.2216 0.00576188 8.5446 0 8.86657V33.1365C0.00576188 33.4626 0.00691661 33.7784 0.0178512 34.1045C0.0272197 34.809 0.0978145 35.5118 0.229002 36.2065C0.358599 36.9026 0.606951 37.5769 0.965439 38.2061C1.32243 38.8342 1.79127 39.4066 2.35373 39.9011C2.91104 40.4019 3.55499 40.8198 4.26099 41.1387C4.96614 41.4582 5.72117 41.6815 6.50079 41.801C7.28155 41.9153 8.07082 41.9774 8.86198 41.9867C9.22618 41.9938 9.58405 41.9979 9.94478 41.9979C10.3757 42 10.8026 42 11.2347 42H129.772C130.195 42 130.625 42 131.049 41.9979C131.408 41.9979 131.776 41.9938 132.135 41.9867C132.925 41.9779 133.713 41.9158 134.492 41.801C135.274 41.6807 136.032 41.4574 136.74 41.1387C137.446 40.8196 138.089 40.4018 138.646 39.9011C139.207 39.4046 139.677 38.8326 140.038 38.2061C140.394 37.5765 140.64 36.9022 140.768 36.2065C140.899 35.5117 140.972 34.8091 140.986 34.1045C140.991 33.7784 140.991 33.4626 140.991 33.1365C141 32.7551 141 32.3757 141 31.9881V10.013C141 9.62843 141 9.24699 140.991 8.86657C140.991 8.5446 140.991 8.2216 140.986 7.89963C140.972 7.19506 140.899 6.49241 140.768 5.79753C140.639 5.10226 140.393 4.42839 140.038 3.79904C139.311 2.53597 138.157 1.50784 136.74 0.85925C136.032 0.54136 135.274 0.319467 134.492 0.2009C133.713 0.0851724 132.925 0.0231226 132.135 0.0153024C131.776 0.0101784 131.408 0.00402543 131.049 0.00197793C130.625 -0.00012207 130.195 -0.00012207 129.772 -0.00012207V1.44297e-05Z" fill="#A6A6A6"/>
<path d="M9.8422 41.0813C9.48305 41.0813 9.13257 41.0772 8.77624 41.07C8.03806 41.0615 7.30161 41.0042 6.57293 40.8988C5.89346 40.7945 5.23525 40.6006 4.61999 40.3235C4.01037 40.0486 3.45435 39.6882 2.97322 39.256C2.48514 38.829 2.07878 38.3337 1.77026 37.7897C1.45834 37.2422 1.24248 36.6554 1.13018 36.0497C1.00891 35.3988 0.943302 34.7406 0.933914 34.0809C0.92644 33.8595 0.916656 33.1222 0.916656 33.1222V8.86657C0.916656 8.86657 0.927077 8.14059 0.933973 7.9273C0.942962 7.26862 1.00819 6.6115 1.1291 5.96163C1.2416 5.35423 1.45763 4.7657 1.76972 4.21642C2.0771 3.67285 2.4812 3.17717 2.96635 2.74858C3.45095 2.31591 4.00875 1.95365 4.61941 1.67498C5.23325 1.39871 5.89023 1.20618 6.56832 1.10385C7.2994 0.99734 8.0384 0.939758 8.77914 0.931583L9.84278 0.918762H130.985L132.061 0.932097C132.795 0.939866 133.527 0.996935 134.252 1.10282C134.937 1.20644 135.601 1.40031 136.221 1.67806C137.445 2.23965 138.44 3.12813 139.068 4.21899C139.375 4.76447 139.588 5.34819 139.699 5.95035C139.821 6.60555 139.89 7.26784 139.904 7.93192C139.907 8.22928 139.907 8.54869 139.907 8.86657C139.917 9.26032 139.917 9.6351 139.917 10.0129V31.9881C139.917 32.3695 139.917 32.7417 139.907 33.117C139.907 33.4585 139.907 33.7713 139.903 34.0932C139.889 34.7454 139.822 35.3959 139.701 36.0394C139.591 36.6495 139.377 37.2409 139.065 37.7929C138.754 38.3309 138.35 38.8219 137.868 39.2479C137.386 39.6823 136.829 40.0449 136.218 40.3215C135.599 40.6008 134.936 40.7954 134.252 40.8988C133.523 41.0048 132.787 41.062 132.048 41.07C131.703 41.0772 131.342 41.0813 130.991 41.0813L129.713 41.0834L9.8422 41.0813Z" fill="black"/>
<path d="M30.0181 21.4443C30.0466 19.2316 31.2067 17.1876 33.0919 16.0286C31.8972 14.3224 29.9679 13.2794 27.886 13.2142C25.6957 12.9843 23.5723 14.5249 22.4562 14.5249C21.3184 14.5249 19.5999 13.2371 17.7494 13.2751C15.3146 13.3538 13.0998 14.7046 11.9152 16.8332C9.39258 21.2007 11.2742 27.6195 13.6907 31.1499C14.8997 32.8786 16.3126 34.8096 18.1615 34.7411C19.9707 34.6661 20.6464 33.5875 22.8303 33.5875C24.9939 33.5875 25.6278 34.7411 27.5142 34.6976C29.4556 34.6661 30.6787 32.9612 31.8453 31.2161C32.7139 29.9843 33.3824 28.6229 33.8258 27.1824C31.5201 26.2072 30.0208 23.9478 30.0181 21.4443Z" fill="white"/>
<path d="M26.4551 10.8925C27.5136 9.62175 28.0351 7.98848 27.9088 6.33948C26.2917 6.50933 24.7978 7.28223 23.725 8.50419C22.6657 9.70981 22.129 11.2871 22.2332 12.8886C23.8721 12.9055 25.4282 12.1698 26.4551 10.8925Z" fill="white"/>
<path fill-rule="evenodd" clip-rule="evenodd" d="M45.4473 28.4967H50.4174L51.6099 32.0209H53.7509L49.0434 18.982H46.8562L42.1487 32.0209H44.2538L45.4473 28.4967ZM49.9017 26.8704H45.9621L47.9052 21.1507H47.9596L49.9017 26.8704Z" fill="white"/>
<path fill-rule="evenodd" clip-rule="evenodd" d="M59.9505 32.1204C62.3365 32.1204 63.9177 30.2224 63.9177 27.2682C63.9177 24.3223 62.3273 22.415 59.9146 22.415C58.6731 22.375 57.5101 23.0207 56.8876 24.0956H56.8517V22.5145H54.9629V35.1658H56.9142V30.4572H56.9594C57.5554 31.5389 58.7171 32.1849 59.9505 32.1204ZM59.3998 24.0782C60.9174 24.0782 61.912 25.3436 61.912 27.2682C61.912 29.2103 60.9174 30.4664 59.3998 30.4664C57.9089 30.4664 56.9061 29.1836 56.9061 27.2682C56.9061 25.3702 57.9089 24.0782 59.3998 24.0782Z" fill="white"/>
<path fill-rule="evenodd" clip-rule="evenodd" d="M70.4135 32.1204C72.7996 32.1204 74.3808 30.2224 74.3808 27.2682C74.3808 24.3223 72.7904 22.4151 70.3776 22.4151C69.1361 22.375 67.9731 23.0207 67.3506 24.0957H67.3148V22.5145H65.426V35.1658H67.3773V30.4572H67.4225C68.0184 31.5389 69.1802 32.1849 70.4135 32.1204ZM69.8629 24.0782C71.3805 24.0782 72.3751 25.3436 72.3751 27.2682H72.3751C72.3751 29.2103 71.3805 30.4664 69.8629 30.4664C68.372 30.4664 67.3691 29.1837 67.3691 27.2682C67.3691 25.3702 68.372 24.0782 69.8629 24.0782Z" fill="white"/>
<path d="M81.296 28.3879C81.4406 29.681 82.6967 30.5299 84.4132 30.5299C86.0579 30.5299 87.2412 29.6809 87.2412 28.515C87.2412 27.503 86.5276 26.897 84.8377 26.4817L83.1479 26.0746C80.7536 25.4963 79.6421 24.3766 79.6421 22.5596C79.6421 20.3099 81.6026 18.7646 84.3865 18.7646C87.1417 18.7646 89.0305 20.3099 89.0941 22.5596H87.1243C87.0064 21.2583 85.9308 20.4729 84.3588 20.4729C82.7869 20.4729 81.7113 21.2676 81.7113 22.4242C81.7113 23.346 82.3983 23.8885 84.0789 24.3037L85.5155 24.6565C88.1907 25.2891 89.3022 26.3638 89.3022 28.271C89.3022 30.7104 87.3591 32.2382 84.2686 32.2382C81.377 32.2382 79.4246 30.7462 79.2985 28.3878L81.296 28.3879Z" fill="white"/>
<path d="M93.5135 20.2648V22.5145H95.3213V24.0598H93.5135V29.3005C93.5135 30.1147 93.8755 30.4941 94.6702 30.4941C94.8848 30.4904 95.0991 30.4753 95.3121 30.449V31.985C94.9548 32.0517 94.5916 32.082 94.2282 32.0752C92.3036 32.0752 91.553 31.3523 91.553 29.5087V24.0598H90.1708V22.5145H91.553V20.2648H93.5135Z" fill="white"/>
<path fill-rule="evenodd" clip-rule="evenodd" d="M100.877 22.3976C98.1299 22.3976 96.3683 24.2772 96.3683 27.2682C96.3683 30.2675 98.1124 32.1388 100.877 32.1388C103.642 32.1388 105.387 30.2675 105.387 27.2682C105.387 24.2771 103.633 22.3976 100.877 22.3976ZM100.877 24.0054C102.458 24.0054 103.398 25.2164 103.398 27.2682H103.398C103.398 29.3282 102.458 30.53 100.877 30.53C99.2957 30.53 98.3565 29.3282 98.3565 27.2682C98.3565 25.2256 99.2957 24.0054 100.877 24.0054Z" fill="white"/>
<path d="M106.995 22.5145H108.856V24.1326H108.902C109.161 23.0909 110.116 22.3741 111.188 22.415C111.413 22.4142 111.637 22.4387 111.857 22.4878V24.313C111.573 24.2263 111.277 24.1865 110.98 24.1951C110.406 24.1718 109.851 24.4005 109.46 24.821C109.069 25.2415 108.882 25.8118 108.947 26.3823V32.0209H106.995L106.995 22.5145Z" fill="white"/>
<path fill-rule="evenodd" clip-rule="evenodd" d="M116.76 32.1388C118.91 32.1388 120.591 30.9545 120.854 29.2288L119.001 29.2288C118.645 30.1108 117.752 30.6546 116.805 30.5659C116.095 30.592 115.408 30.3119 114.919 29.7967C114.43 29.2815 114.185 28.5809 114.248 27.8732V27.7553H120.962V27.0867C120.962 24.2043 119.308 22.3976 116.678 22.3976C114.004 22.3976 112.278 24.3315 112.278 27.3133C112.278 30.2859 113.995 32.1388 116.76 32.1388ZM119.01 26.3915L114.257 26.3915C114.256 25.7497 114.51 25.1338 114.965 24.6807C115.42 24.2276 116.036 23.9749 116.678 23.9788C117.315 23.9651 117.929 24.2177 118.371 24.6757C118.814 25.1337 119.045 25.7556 119.01 26.3915Z" fill="white"/>
<path fill-rule="evenodd" clip-rule="evenodd" d="M47.9284 10.0263C47.3573 9.42327 46.5459 9.1081 45.7175 9.16755H43.4545V15.4327H45.7175C47.5837 15.4327 48.6655 14.2822 48.6655 12.2806C48.77 11.4567 48.4994 10.6294 47.9284 10.0263ZM45.6088 14.5467H44.4276V10.0529H45.6088C46.1977 10.0202 46.7703 10.2524 47.1702 10.686C47.57 11.1195 47.7551 11.7091 47.675 12.2934C47.7614 12.8801 47.5789 13.4746 47.1781 13.9117C46.7773 14.3488 46.2008 14.5821 45.6088 14.5467Z" fill="white"/>
<path fill-rule="evenodd" clip-rule="evenodd" d="M50.8134 10.95C50.09 11.3989 49.6836 12.2191 49.7647 13.0665C49.6821 13.9149 50.0881 14.7367 50.8121 15.1865C51.5361 15.6364 52.4527 15.6364 53.1767 15.1865C53.9007 14.7367 54.3067 13.9149 54.2241 13.0665C54.3052 12.2191 53.8988 11.3989 53.1755 10.95C52.4521 10.5011 51.5368 10.5011 50.8134 10.95ZM51.996 11.4423C52.8039 11.4423 53.2644 12.0417 53.2644 13.0665H53.2644C53.2644 14.0955 52.804 14.6943 51.996 14.6944C51.1849 14.6944 50.7286 14.0996 50.7286 13.0666C50.7286 12.0417 51.1849 11.4423 51.996 11.4423Z" fill="white"/>
<path d="M60.1519 15.4326H59.184L58.2068 11.9504H58.1329L57.1598 15.4326H56.2011L54.8978 10.7046H55.8443L56.6912 14.3124H56.761L57.733 10.7046H58.6282L59.6003 14.3124H59.6741L60.517 10.7046H61.4501L60.1519 15.4326Z" fill="white"/>
<path d="M62.5462 10.7046H63.4444V11.4557H63.5142C63.7567 10.9026 64.3233 10.5644 64.9251 10.6133C65.3911 10.5783 65.8478 10.757 66.1661 11.0991C66.4845 11.4412 66.63 11.9095 66.5616 12.3718V15.4326H65.6285V12.6062C65.6285 11.8463 65.2984 11.4685 64.6083 11.4685C64.2922 11.4538 63.9854 11.5778 63.7684 11.8081C63.5514 12.0384 63.4458 12.352 63.4793 12.6666V15.4326H62.5462L62.5462 10.7046Z" fill="white"/>
<path d="M68.0485 8.85886H68.9816V15.4326H68.0485V8.85886Z" fill="white"/>
<path fill-rule="evenodd" clip-rule="evenodd" d="M71.3275 10.9499C70.6041 11.3988 70.1977 12.219 70.2787 13.0665C70.1962 13.9149 70.6022 14.7367 71.3263 15.1865C72.0504 15.6364 72.9669 15.6364 73.691 15.1865C74.4151 14.7367 74.8211 13.9149 74.7386 13.0665C74.8196 12.219 74.4132 11.3988 73.6898 10.9499C72.9663 10.501 72.051 10.501 71.3275 10.9499ZM72.5099 11.4423C73.3179 11.4423 73.7783 12.0417 73.7783 13.0665H73.7783C73.7783 14.0955 73.3179 14.6943 72.5099 14.6944C71.6989 14.6944 71.2426 14.0996 71.2426 13.0665C71.2426 12.0417 71.6989 11.4423 72.5099 11.4423Z" fill="white"/>
<path fill-rule="evenodd" clip-rule="evenodd" d="M77.4795 12.6841C76.3546 12.7538 75.7209 13.2445 75.7209 14.0955C75.7225 14.4991 75.8947 14.8831 76.195 15.1527C76.4953 15.4223 76.8956 15.5523 77.297 15.5105C77.8695 15.537 78.4121 15.2534 78.7171 14.7682H78.791V15.4326H79.6892V12.2022C79.6892 11.2034 79.0207 10.6133 77.8353 10.6133C76.7627 10.6133 75.9988 11.1342 75.9035 11.9463H76.8068C76.9104 11.612 77.2713 11.4208 77.7922 11.4208C78.43 11.4208 78.7602 11.7028 78.7602 12.2022V12.6103L77.4795 12.6841ZM78.7602 13.2962V13.6915C78.7398 13.9929 78.598 14.273 78.3672 14.4679C78.1364 14.6627 77.8364 14.7555 77.5359 14.7251C77.0283 14.7251 76.6592 14.4775 76.6592 14.0519C76.6592 13.6351 76.9545 13.4136 77.6056 13.3701L78.7602 13.2962Z" fill="white"/>
<path fill-rule="evenodd" clip-rule="evenodd" d="M82.8782 10.6261C81.6836 10.6261 80.9156 11.5726 80.9156 13.0666C80.9156 14.5641 81.6754 15.5106 82.8782 15.5106C83.488 15.533 84.0599 15.2153 84.3629 14.6856H84.4368V15.4326H85.3309V8.85886H84.3978V11.4556H84.3281C84.0463 10.9216 83.4814 10.5983 82.8782 10.6261ZM83.1427 14.6728C82.3522 14.6728 81.8795 14.0694 81.8795 13.0666H81.8794C81.8794 12.0719 82.3573 11.4644 83.1427 11.4644C83.9241 11.4644 84.4152 12.0853 84.4152 13.0707C84.4152 14.0607 83.9292 14.6728 83.1427 14.6728Z" fill="white"/>
<path fill-rule="evenodd" clip-rule="evenodd" d="M91.1541 10.6261C89.9595 10.6261 89.1915 11.5726 89.1915 13.0666C89.1915 14.5641 89.9513 15.5106 91.1541 15.5106C91.7639 15.533 92.3358 15.2153 92.6389 14.6856H92.7127V15.4326H93.6068V8.85886H92.6737V11.4556H92.604C92.3222 10.9216 91.7573 10.5983 91.1541 10.6261ZM91.4187 14.6728C90.6281 14.6728 90.1554 14.0694 90.1554 13.0666C90.1554 12.0719 90.6331 11.4644 91.4187 11.4644C92.2 11.4644 92.6912 12.0853 92.6912 13.0707C92.6912 14.0607 92.2051 14.6728 91.4187 14.6728Z" fill="white"/>
<path fill-rule="evenodd" clip-rule="evenodd" d="M95.363 8.72294C95.1386 8.8279 95.001 9.05915 95.0157 9.30644C95.0172 9.463 95.0825 9.61218 95.1965 9.7195C95.3105 9.82682 95.4633 9.88298 95.6197 9.87501C95.8674 9.8748 96.0899 9.72346 96.1812 9.49315C96.2724 9.26283 96.2139 9.00016 96.0335 8.83035C95.8531 8.66055 95.5874 8.61798 95.363 8.72294ZM96.0842 10.7046H95.1542V15.4326H96.0842V10.7046Z" fill="white"/>
</svg>
