<svg width="60" height="36" viewBox="0 0 60 36" fill="none" xmlns="http://www.w3.org/2000/svg">
<path d="M29.1614 9V21.2371C29.1608 22.5787 28.6276 23.8651 27.679 24.8138C26.7303 25.7624 25.4439 26.2956 24.1023 26.2962C21.3087 26.2962 19.0385 24.0318 19.0431 21.2371L19.0523 9H22.0937H29.1614ZM22.0937 9V21.182C22.0937 22.2689 22.989 23.1503 24.0931 23.1503C25.1972 23.1503 26.0924 22.2689 26.0924 21.182V9H29.1523H22.0937ZM0 9H12.3874C15.2154 9 17.5086 11.2932 17.5086 14.1212C17.5089 14.7938 17.3766 15.4598 17.1194 16.0813C16.8621 16.7028 16.4849 17.2674 16.0093 17.743C15.5337 18.2186 14.969 18.5958 14.3476 18.8531C13.7261 19.1104 13.06 19.2426 12.3874 19.2423L0 19.2228V16.1549V9ZM0 16.1549H12.3323C12.8648 16.1507 13.3738 15.9351 13.7475 15.5557C14.1211 15.1763 14.3288 14.664 14.3248 14.1315C14.3288 13.599 14.1211 13.0867 13.7475 12.7073C13.3738 12.3278 12.8648 12.1123 12.3323 12.108H0V9.00918V16.1549ZM0 16.1343H12.3874C15.2154 16.1343 17.5086 18.4274 17.5086 21.2554C17.5089 21.928 17.3766 22.5941 17.1194 23.2156C16.8621 23.837 16.4849 24.4017 16.0093 24.8773C15.5337 25.3529 14.969 25.7301 14.3476 25.9874C13.7261 26.2446 13.06 26.3769 12.3874 26.3766L0 26.3467V23.2708V16.1343ZM0 23.2708H12.3323C12.8648 23.2666 13.3738 23.0511 13.7475 22.6716C14.1211 22.2922 14.3288 21.7799 14.3248 21.2474C14.3288 20.7149 14.1211 20.2026 13.7475 19.8232C13.3738 19.4437 12.8648 19.2282 12.3323 19.224H0V16.1251V23.2708ZM13.8818 22.4915H14.0103H13.8818Z" fill="#182957"/>
<path d="M40.8843 26.2962V14.0592C40.8837 12.7178 40.3506 11.4315 39.4022 10.4829C38.4538 9.53426 37.1677 9.00091 35.8263 9C33.0327 9 30.7625 11.2645 30.7671 14.0592L30.7866 26.2962H33.8281H40.8843ZM33.8281 26.2962V14.112C33.8281 13.0251 34.7233 12.1436 35.8274 12.1436C36.9315 12.1436 37.8268 13.0251 37.8268 14.112V26.2951H40.8866" fill="#0193AC"/>
<path d="M47.9428 26.2963V14.0592C47.9422 12.7176 47.409 11.4312 46.4604 10.4825C45.5117 9.53385 44.2252 9.00064 42.8836 9.00003C40.0901 9.00003 37.8199 11.2645 37.8245 14.0592L37.844 26.2963H40.8855H47.9428ZM40.8855 26.2963V14.112C40.8855 13.0251 41.7807 12.1437 42.8848 12.1437C43.9889 12.1437 44.8841 13.0251 44.8841 14.112V26.2951H47.944L40.8855 26.2963ZM59.7656 26.2963V14.0592C59.765 12.7196 59.2333 11.4349 58.2872 10.4866C57.341 9.53823 56.0575 9.00368 54.7179 9.00003C51.9243 9.00003 49.6541 11.2645 49.6587 14.0592L49.6782 26.2963H52.7197H59.7656ZM52.7197 26.2963V14.112C52.7197 13.0251 53.6149 12.1437 54.719 12.1437C55.8231 12.1437 56.7183 13.0251 56.7183 14.112V26.2951H59.7782" fill="#0193AC"/>
</svg>
