<svg width="60" height="36" viewBox="0 0 60 36" fill="none" xmlns="http://www.w3.org/2000/svg">
<path d="M11.5897 21.7532C11.5897 21.1098 11.5967 19.3901 11.5809 19.1782C11.5947 16.6191 9.73404 14.8139 8.55856 14.9546C7.74517 15.0252 7.06349 15.3569 6.69747 16.311C6.35823 17.2002 6.66152 18.383 7.78941 18.6605C8.99545 18.9585 9.69969 19.2065 10.2094 19.5564C10.8338 19.9847 11.3436 20.803 11.3572 21.7543" fill="#0060AF"/>
<path fill-rule="evenodd" clip-rule="evenodd" d="M5.57657 24.0835C7.75914 25.1194 9.94463 25.6432 12.0712 25.6432C14.3242 25.6432 16.5663 25.145 18.5544 24.2039L18.61 24.1783L18.6364 24.123C19.6357 22.0187 20.1412 19.8523 20.1412 17.685C20.1412 15.5092 19.6148 13.2485 18.6166 11.1429L18.5911 11.087L18.5358 11.0625C16.3822 10.0393 14.1273 9.5 12.0159 9.5C9.74932 9.5 7.57737 9.98448 5.55838 10.9409L5.5038 10.9683L5.47688 11.0232C4.49671 13.0878 4 15.2524 4 17.4614C4 19.6738 4.51796 21.9351 5.4974 24.0026L5.52301 24.0572L5.57657 24.0835ZM12.0712 25.3011C10.0135 25.3011 7.89886 24.7974 5.77857 23.8C4.83915 21.7952 4.34201 19.6037 4.34201 17.4614C4.34201 15.3232 4.82038 13.2262 5.76023 11.225C7.71825 10.3068 9.82151 9.84142 12.0159 9.84142C14.0597 9.84142 16.2425 10.3624 18.3325 11.3449C19.2927 13.3885 19.8003 15.5791 19.8003 17.685C19.8003 19.7824 19.314 21.881 18.3545 23.9201C16.4229 24.8241 14.253 25.3011 12.0712 25.3011Z" fill="#0060AF"/>
<path d="M11.0858 21.7543C11.0897 20.9295 10.6294 20.2002 10.0277 19.8083C9.49407 19.4619 8.7776 19.2343 7.62177 18.9412C7.26449 18.8498 6.89075 18.6468 6.77505 18.3881C6.469 18.6964 6.4134 19.3898 6.46725 19.7949C6.52983 20.2638 7.07777 21.0366 7.9028 21.0669C8.40664 21.0871 9.04364 20.9585 9.34911 20.8936C9.87609 20.7798 10.7099 21.1098 10.8426 21.7532" fill="#0060AF"/>
<path d="M12.0159 10.9663C10.617 10.9663 9.40864 11.8888 9.41301 13.4852C9.41737 14.8276 10.4969 15.5462 10.8822 16.0595C11.4643 16.833 11.7794 17.7486 11.8121 19.1495C11.8376 20.2644 11.8363 21.3654 11.842 21.7556H12.1508C12.1454 21.3473 12.1314 20.1786 12.1474 19.115C12.1684 17.7136 12.4948 16.833 13.0773 16.0595C13.4658 15.5462 14.5445 14.8276 14.5469 13.4852C14.5521 11.8888 13.3445 10.9663 11.9467 10.9663" fill="#0060AF"/>
<path d="M12.371 21.7532C12.371 21.1098 12.3637 19.3901 12.3793 19.1782C12.3656 16.6191 14.2251 14.8139 15.4016 14.9546C16.215 15.0252 16.8959 15.3569 17.2629 16.311C17.6019 17.2002 17.2969 18.383 16.1703 18.6605C14.9637 18.9585 14.2603 19.2065 13.7493 19.5564C13.1256 19.9847 12.6514 20.803 12.6369 21.7543" fill="#0060AF"/>
<path d="M12.8747 21.7543C12.8703 20.9295 13.3305 20.2002 13.9304 19.8083C14.4662 19.4619 15.1836 19.2343 16.3384 18.9412C16.6964 18.8498 17.0697 18.6468 17.1833 18.3881C17.4909 18.6964 17.5463 19.3898 17.4925 19.7949C17.4286 20.2638 16.8821 21.0366 16.0585 21.0669C15.5548 21.0871 14.9145 20.9585 14.6103 20.8936C14.0854 20.7798 13.2493 21.1098 13.116 21.7532" fill="#0060AF"/>
<path fill-rule="evenodd" clip-rule="evenodd" d="M13.3062 24.4168L13.1272 23.1106L13.5593 23.0451C13.6645 23.0307 13.7925 23.0491 13.8438 23.115C13.9004 23.1838 13.9177 23.2407 13.9286 23.331C13.9449 23.4426 13.9126 23.5717 13.7869 23.636V23.6399C13.9273 23.6399 14.0122 23.7408 14.0368 23.9111L14.0377 23.9203C14.0419 23.9603 14.0502 24.0395 14.0404 24.1064C14.0119 24.2788 13.909 24.3343 13.7354 24.3586L13.3062 24.4168ZM13.5843 24.1829L13.6088 24.1797C13.6518 24.1742 13.694 24.1688 13.7281 24.147C13.7902 24.1064 13.7845 24.0195 13.776 23.955C13.7543 23.8133 13.7173 23.7594 13.567 23.7817L13.4725 23.7962L13.5323 24.1902L13.5843 24.1829ZM13.5101 23.5768C13.5045 23.5777 13.499 23.5785 13.4938 23.5794L13.4459 23.5843L13.4014 23.2496L13.5144 23.2314C13.6358 23.2084 13.6675 23.2677 13.6851 23.3633C13.6977 23.4341 13.6824 23.465 13.6671 23.496C13.665 23.5003 13.6629 23.5046 13.6608 23.509C13.6315 23.5582 13.5649 23.5684 13.5101 23.5768Z" fill="#0060AF"/>
<path d="M15.1779 23.6312C15.1812 23.6555 15.1852 23.6826 15.1866 23.7069C15.2215 23.9451 15.1779 24.1423 14.9101 24.1966C14.5142 24.2729 14.4384 24.0269 14.3687 23.6826L14.3316 23.4963C14.277 23.1668 14.2536 22.9174 14.6395 22.8405C14.8571 22.8008 15.0009 22.8874 15.0607 23.1039C15.07 23.1362 15.0817 23.1683 15.086 23.2007L14.8493 23.2496C14.8219 23.1683 14.7857 23.0229 14.6791 23.0351C14.4879 23.0581 14.5511 23.296 14.5707 23.3954L14.6419 23.753C14.6633 23.8612 14.7058 24.0339 14.8712 24.0006C15.0056 23.9736 14.9471 23.7644 14.9351 23.6787" fill="#0060AF"/>
<path fill-rule="evenodd" clip-rule="evenodd" d="M15.476 22.6748L15.5579 24.0265L15.8104 23.9527L15.7744 23.613L16.0526 23.5295L16.2106 23.8283L16.4611 23.7533L15.7941 22.5777L15.476 22.6748ZM15.9521 23.3365L15.7512 23.3947L15.6852 22.7896L15.9521 23.3365Z" fill="#0060AF"/>
<path d="M7.70021 23.0045C7.79976 22.6858 7.88897 22.4512 8.26881 22.5554C8.47212 22.6122 8.59816 22.7018 8.59219 22.938C8.59121 22.9906 8.57385 23.0441 8.5625 23.0961L8.32601 23.0307C8.35701 22.9003 8.37665 22.7969 8.21598 22.7474C8.03028 22.6964 7.98502 22.9216 7.95941 23.0188L7.86321 23.3732C7.83265 23.4784 7.79597 23.6523 7.95941 23.6971C8.09446 23.7335 8.1764 23.6009 8.2253 23.4074L8.05983 23.3636L8.11702 23.1585L8.50603 23.2837L8.32135 23.9667L8.14234 23.9181L8.18266 23.7737H8.17756C8.09519 23.8917 7.99462 23.9041 7.90658 23.8872C7.51756 23.782 7.55817 23.5277 7.65102 23.1881" fill="#0060AF"/>
<path fill-rule="evenodd" clip-rule="evenodd" d="M9.03098 24.1371L9.14814 23.5814L9.21901 23.5958C9.23537 23.5995 9.24915 23.6023 9.26146 23.6048C9.30147 23.6129 9.32591 23.6179 9.37298 23.6429C9.44918 23.6827 9.42838 23.7865 9.41298 23.8634C9.4125 23.8658 9.41202 23.8682 9.41155 23.8705C9.4084 23.8886 9.40425 23.9096 9.39976 23.9325C9.38248 24.0203 9.36005 24.1342 9.36906 24.2039L9.64193 24.2751L9.64019 24.2362C9.59392 24.1893 9.6515 23.9192 9.66964 23.8341C9.6713 23.8263 9.67262 23.82 9.67351 23.8157C9.69768 23.695 9.68658 23.6243 9.55258 23.5751C9.7152 23.5835 9.78217 23.4361 9.80318 23.2992C9.84044 23.0581 9.76098 22.9409 9.49785 22.8842L9.0483 22.7826L8.76727 24.08L9.03098 24.1371ZM9.37066 23.4283L9.19311 23.3805L9.26689 23.0299L9.45725 23.0684C9.55403 23.0916 9.57892 23.1383 9.55971 23.2578C9.53846 23.388 9.4785 23.4439 9.37066 23.4283Z" fill="#0060AF"/>
<path d="M10.8395 23.0725L11.1003 23.1028L10.988 24.0148C10.9334 24.304 10.8216 24.4305 10.5035 24.3909C10.1798 24.35 10.103 24.2026 10.1226 23.9111L10.2357 22.9997L10.4985 23.0299L10.3857 23.9208C10.3738 24.0176 10.3514 24.1609 10.5236 24.1783C10.6762 24.1899 10.7109 24.0888 10.728 23.963" fill="#0060AF"/>
<path fill-rule="evenodd" clip-rule="evenodd" d="M11.4663 23.1365L11.3879 24.4408L11.6443 24.4577L11.6769 23.911L11.8402 23.9201C11.9358 23.9247 12.0389 23.9111 12.119 23.8533C12.2168 23.7853 12.2519 23.66 12.2588 23.5478C12.2662 23.3633 12.2042 23.1699 11.9674 23.1582L11.4663 23.1365ZM11.8171 23.7195L11.6843 23.7121L11.7085 23.3349L11.8137 23.3385C11.9534 23.3447 12.0109 23.3704 12.0057 23.5225C11.9964 23.6808 11.9249 23.7235 11.8171 23.7195Z" fill="#0060AF"/>
<path d="M46.7282 12.2269L44.7367 15.8415C43.985 15.2311 43.0671 14.7819 41.896 14.7819C39.1246 14.7819 37.9989 16.8477 37.9989 18.3029C37.9989 19.3831 38.7062 20.9768 41.1721 20.9768C42.2072 20.9768 43.6787 20.2567 44.1022 19.9291L42.1325 24.1227C41.1937 24.31 40.8853 24.4261 40.0905 24.4507C35.6769 24.5824 33.8934 21.8711 33.8947 19.1006C33.8976 15.4381 37.1539 10.9839 42.5521 10.9839C42.8829 10.9839 43.2875 11.0983 43.6334 11.225L43.983 10.7779" fill="#0060AF"/>
<path fill-rule="evenodd" clip-rule="evenodd" d="M55.5094 24.0289L54.9455 10.8913H48.6791L46.6403 14.6406L47.7133 14.6475L42.9548 24.0289H47.5064L48.4483 21.7758H51.3101L51.3125 24.0289H55.5094ZM49.6648 18.7317L51.2828 14.9104L51.3316 18.7317H49.6648Z" fill="#0060AF"/>
<path fill-rule="evenodd" clip-rule="evenodd" d="M31.2451 10.8913C33.3235 10.9029 34.498 12.0311 34.498 13.6608C34.498 15.1632 33.2593 16.4931 31.8996 17.1807C33.2995 17.6953 33.4206 18.9585 33.4206 19.8523C33.4206 22.0114 31.254 24.0289 28.4378 24.0289H22.296L24.6917 14.7782L23.7076 14.7725L25.7194 10.8913C25.7194 10.8913 29.555 10.8797 31.2451 10.8913ZM29.2061 16.2178C29.636 16.2178 30.3951 16.109 30.5848 15.277C30.7928 14.3738 30.0804 14.3495 29.7387 14.3495L28.5177 14.3441L28.0919 16.2179L29.2061 16.2178ZM26.9175 20.6986L27.4797 18.5394H28.9648C29.5284 18.5394 30.0673 19.0105 29.8808 19.7152C29.6919 20.4178 28.921 20.6986 28.3553 20.6986H26.9175Z" fill="#0060AF"/>
</svg>
