<svg width="60" height="36" viewBox="0 0 60 36" fill="none" xmlns="http://www.w3.org/2000/svg">
<path fill-rule="evenodd" clip-rule="evenodd" d="M2.07751 20.7579C2.07751 19.9531 2.06332 19.277 2.01934 18.6739H3.55311L3.62589 19.7101H3.66858C4.01542 19.1632 4.65208 18.5153 5.83858 18.5153C6.76492 18.5153 7.48768 19.034 7.79111 19.8091H7.82077C8.06661 19.4212 8.35514 19.1338 8.6878 18.9333C9.07833 18.6602 9.52803 18.5153 10.1057 18.5153C11.2777 18.5153 12.4632 19.3058 12.4632 21.5499V25.674H10.7277V21.8073C10.7277 20.644 10.3229 19.9531 9.46915 19.9531C8.86172 19.9531 8.41287 20.3847 8.2252 20.888C8.18179 21.059 8.13838 21.2759 8.13838 21.4761V25.674H6.40232V21.6194C6.40232 20.644 6.01236 19.9531 5.18688 19.9531C4.52272 19.9531 4.0743 20.4708 3.9137 20.959C3.84193 21.1313 3.8127 21.3331 3.8127 21.5336V25.674H2.07751V20.7579Z" fill="#13549E"/>
<path fill-rule="evenodd" clip-rule="evenodd" d="M17.4894 22.2541C16.2304 22.225 15.0305 22.4977 15.0305 23.5612C15.0305 24.251 15.4797 24.5679 16.0432 24.5679C16.7509 24.5679 17.2725 24.1066 17.4316 23.6038C17.4744 23.4739 17.4894 23.3313 17.4894 23.2163V22.2541ZM19.2259 23.9927C19.2259 24.6244 19.2546 25.2419 19.3263 25.674H17.7205L17.6053 24.8983H17.5615C17.1271 25.4451 16.3895 25.8317 15.4797 25.8317C14.0613 25.8317 13.2659 24.8123 13.2659 23.748C13.2659 21.979 14.8412 21.0892 17.4466 21.1032V20.9884C17.4466 20.5283 17.2578 19.7663 16.0135 19.7663C15.3189 19.7663 14.596 19.9824 14.1187 20.2836L13.7718 19.1338C14.2925 18.8171 15.2038 18.5153 16.3171 18.5153C18.5745 18.5153 19.2259 19.9395 19.2259 21.462V23.9927Z" fill="#13549E"/>
<path fill-rule="evenodd" clip-rule="evenodd" d="M20.455 20.7579C20.455 19.9531 20.4399 19.277 20.3984 18.6739H21.9591L22.0458 19.7246H22.0897C22.3933 19.1777 23.1602 18.5153 24.3317 18.5153C25.5617 18.5153 26.8339 19.3058 26.8339 21.5206V25.674H25.0551V21.7223C25.0551 20.7153 24.6782 19.9531 23.7096 19.9531C23.0016 19.9531 22.5085 20.4563 22.3213 20.9884C22.2635 21.1464 22.2489 21.3619 22.2489 21.5623V25.674H20.455V20.7579Z" fill="#13549E"/>
<path fill-rule="evenodd" clip-rule="evenodd" d="M32.769 21.5915C32.769 21.4486 32.7547 21.2759 32.725 21.1313C32.566 20.4429 32.0028 19.8817 31.1922 19.8817C30.0494 19.8817 29.4122 20.888 29.4122 22.1959C29.4122 23.4739 30.0494 24.409 31.1783 24.409C31.9001 24.409 32.5373 23.9201 32.7105 23.1579C32.7547 23.0003 32.769 22.8271 32.769 22.6408V21.5915ZM34.5474 15.8622V23.7046C34.5474 24.423 34.5774 25.2001 34.6055 25.674H33.0153L32.9428 24.5679H32.9132C32.4939 25.3437 31.6402 25.8317 30.6137 25.8317C28.9353 25.8317 27.6055 24.409 27.6055 22.2541C27.59 19.9105 29.0652 18.5153 30.758 18.5153C31.7267 18.5153 32.4216 18.9179 32.7395 19.4373H32.769V15.8622H34.5474Z" fill="#13549E"/>
<path fill-rule="evenodd" clip-rule="evenodd" d="M35.8059 18.6739H37.6005V25.674H35.8059V18.6739Z" fill="#13549E"/>
<path fill-rule="evenodd" clip-rule="evenodd" d="M38.8578 20.9311C38.8578 19.9824 38.8435 19.3058 38.8009 18.6739H40.3489L40.4055 20.0093H40.4643C40.8116 19.019 41.6352 18.6739 42.3892 18.6739C42.5617 18.6739 42.6631 18.6451 42.807 18.6739V20.2271C42.6631 20.198 42.5046 20.1694 42.2872 20.1694C41.4328 20.1694 40.8542 20.7153 40.6956 21.5048C40.6675 21.6634 40.6378 21.8512 40.6378 22.0526V25.674H38.8578V20.9311Z" fill="#13549E"/>
<path fill-rule="evenodd" clip-rule="evenodd" d="M43.6327 18.6739H45.4251V25.674H43.6327V18.6739Z" fill="#13549E"/>
<path fill-rule="evenodd" clip-rule="evenodd" d="M56.4468 11.1602C55.5592 10.1538 54.6149 10.6092 53.8651 10.9795C53.5498 11.1343 51.2719 12.4175 51.2719 12.4175C50.0239 12.9288 49.052 12.3708 48.6704 11.9012C48.631 11.8515 48.5969 11.8051 48.5711 11.7597L48.483 11.6069C48.3466 11.3779 48.183 11.119 47.9823 10.8637C47.8748 10.7252 47.7551 10.5869 47.6231 10.456C46.7697 9.59909 45.4046 8.99951 43.1232 10.0889C42.0436 10.7108 38.5248 12.7084 38.5248 12.7084C37.2035 13.2495 36.1913 12.5904 35.8634 12.1073C35.8489 12.0891 35.8345 12.0674 35.8252 12.0492L35.782 11.9759L35.5588 11.6139C35.4633 11.4643 35.3575 11.3104 35.2358 11.1526C35.1273 11.0148 35.0067 10.8775 34.8758 10.7454C34.0275 9.89389 32.6702 9.2956 30.4092 10.3642C29.0418 11.1397 25.8619 12.9467 25.8619 12.9467C25.8612 12.9477 25.8612 12.9477 25.8609 12.9477C24.5524 13.6908 23.5332 14.269 23.5332 14.269L24.7375 15.7384C25.244 16.2182 26.1969 17.0053 27.6706 16.3416C27.6706 16.3416 31.7379 14.0014 31.7538 13.9946C35.231 12.0983 36.9476 13.9102 37.7055 15.1177C37.7318 15.1553 37.7536 15.1964 37.777 15.233L37.7788 15.2347C37.7879 15.2494 37.7943 15.2631 37.8019 15.2769L37.8883 15.4165C38.257 15.9734 38.8408 16.3328 39.5354 16.3164C39.9186 16.3088 40.1786 16.1843 40.5574 15.9755L44.4927 13.7075C44.4951 13.7062 44.4971 13.7049 44.501 13.7039C48.0215 11.7847 49.7665 13.7151 50.5117 14.9227C50.5696 15.0272 50.636 15.1265 50.7029 15.2196C51.0718 15.7169 51.5809 16.0424 52.2272 16.0268C52.6538 16.0181 53.1326 15.7636 53.2034 15.7169L57.922 13.0114C57.922 13.0114 57.4394 12.2879 56.4468 11.1602Z" fill="#F5A623"/>
</svg>
