<svg width="60" height="36" viewBox="0 0 60 36" fill="none" xmlns="http://www.w3.org/2000/svg">
<path fill-rule="evenodd" clip-rule="evenodd" d="M11.4915 25.59C9.57312 25.57 7.89839 24.9199 6.48979 23.6162C5.23105 22.4512 4.44672 21.0142 4.17354 19.3208C3.78695 16.9246 4.37966 14.7839 5.97607 12.9513C7.12041 11.6376 8.57216 10.8232 10.2964 10.5502C12.4693 10.2061 14.4324 10.7281 16.1441 12.1145C17.5467 13.2507 18.4303 14.7221 18.7782 16.4911C19.1951 18.6115 18.8074 20.5909 17.5768 22.3739C16.4404 24.0204 14.874 25.0482 12.9104 25.4556C12.4438 25.5525 11.97 25.5968 11.4915 25.59ZM15.8448 18.0403C15.8448 17.357 15.8437 16.6738 15.8456 15.9905C15.8461 15.8086 15.7889 15.6578 15.6372 15.5507C15.2082 15.2478 14.7334 15.0693 14.2081 15.0334C13.7754 15.0038 13.3542 15.0684 12.9397 15.1921C12.2756 15.3902 11.6342 15.6509 10.9861 15.8935C10.4521 16.0933 9.91555 16.2807 9.34279 16.3431C8.69228 16.4141 8.08799 16.2872 7.52665 15.9524C7.45388 15.909 7.38357 15.8609 7.30828 15.8225C7.22479 15.7799 7.18889 15.7983 7.1646 15.8882C7.14346 15.9665 7.14911 16.0474 7.14908 16.1273C7.14862 16.9284 7.14881 17.7294 7.14881 18.5305C7.14881 19.0583 7.15048 19.5861 7.14805 20.1138C7.14714 20.3103 7.22127 20.4525 7.39545 20.555C7.92138 20.8645 8.48712 21.0112 9.09578 20.992C9.50749 20.979 9.91027 20.9059 10.305 20.7908C10.8475 20.6325 11.3776 20.4364 11.9118 20.2529C12.4466 20.0692 12.9825 19.8941 13.5488 19.8295C14.2837 19.7456 14.9749 19.8631 15.6134 20.2482C15.6456 20.2676 15.6778 20.2885 15.7126 20.3017C15.7774 20.3262 15.8089 20.3094 15.8299 20.2442C15.8475 20.1894 15.8449 20.1326 15.8449 20.076C15.8448 19.3974 15.8449 18.7189 15.8448 18.0403Z" fill="#118DE9"/>
<path fill-rule="evenodd" clip-rule="evenodd" d="M37.4615 19.4961C37.4615 20.2263 37.4615 20.9564 37.4615 21.6866C37.4615 21.7195 37.4583 21.7528 37.4615 21.7854C37.4681 21.8547 37.4356 21.875 37.3704 21.874C37.1915 21.8713 37.0125 21.8733 36.8334 21.8733C36.5414 21.8733 36.2493 21.874 35.9572 21.8729C35.8488 21.8725 35.8467 21.8705 35.8465 21.7629C35.8457 21.3154 35.8462 20.8678 35.8461 20.4203C35.8461 20.3827 35.8442 20.3449 35.8459 20.3073C35.8484 20.2525 35.8224 20.2304 35.7697 20.2332C35.7462 20.2344 35.7226 20.2332 35.6991 20.2332C34.7287 20.2332 33.7583 20.2332 32.7879 20.2332C32.7784 20.2332 32.769 20.2331 32.7596 20.2332C32.622 20.2344 32.6213 20.2344 32.6212 20.3719C32.6209 20.8288 32.6214 21.2858 32.6208 21.7427C32.6207 21.872 32.6195 21.8731 32.4877 21.8732C32.0355 21.8737 31.5833 21.8737 31.131 21.8731C31.0083 21.873 31.0065 21.8717 31.0065 21.7481C31.0062 20.3113 30.9959 18.8745 31.0095 17.4379C31.0234 15.9777 32.0171 14.7002 33.4011 14.3269C34.7639 13.9592 36.2109 14.5331 36.955 15.735C37.2932 16.2814 37.4619 16.8752 37.4615 17.5176C37.4611 18.1771 37.4615 18.8366 37.4615 19.4961ZM34.2285 18.5859C34.728 18.5859 35.2275 18.5864 35.727 18.5855C35.844 18.5852 35.8458 18.583 35.8459 18.4687C35.8461 18.1295 35.8503 17.79 35.8428 17.4509C35.8223 16.5138 34.9873 15.7636 34.0493 15.8765C33.3548 15.9601 32.7557 16.526 32.6478 17.2162C32.6081 17.4698 32.6259 17.724 32.6217 17.978C32.6188 18.1523 32.6228 18.3267 32.6204 18.501C32.6196 18.5607 32.6408 18.5889 32.7017 18.5857C32.7346 18.584 32.7677 18.5857 32.8007 18.5857C33.2766 18.5857 33.7525 18.5857 34.2285 18.5859Z" fill="#118EE9"/>
<path fill-rule="evenodd" clip-rule="evenodd" d="M55.9855 19.4981C55.9855 20.2236 55.9855 20.9491 55.9854 21.6747C55.9854 21.7123 55.9826 21.7502 55.9854 21.7877C55.9905 21.8577 55.9554 21.875 55.8916 21.8743C55.6561 21.8719 55.4205 21.8733 55.185 21.8733C54.9494 21.8733 54.7138 21.8741 54.4783 21.873C54.3705 21.8725 54.3682 21.8708 54.3679 21.7631C54.3669 21.3108 54.3674 20.8585 54.3673 20.4062C54.3673 20.3732 54.3658 20.3402 54.3674 20.3073C54.37 20.2528 54.344 20.2306 54.2911 20.233C54.2582 20.2345 54.2252 20.2331 54.1922 20.2331C53.2311 20.2331 52.27 20.2331 51.3089 20.2332C51.2901 20.2332 51.2712 20.2326 51.2524 20.2331C51.1471 20.236 51.1452 20.2361 51.1451 20.3465C51.1442 20.8034 51.1448 21.2604 51.1445 21.7175C51.1445 21.8725 51.1441 21.873 50.9939 21.8732C50.5464 21.8735 50.0988 21.8737 49.6512 21.8733C49.5291 21.8732 49.5272 21.8721 49.5271 21.7485C49.5267 20.3257 49.503 18.9024 49.5337 17.4802C49.5632 16.113 50.204 15.0909 51.449 14.5035C52.9216 13.8088 54.6898 14.3907 55.5229 15.8085C55.8357 16.3408 55.9864 16.9167 55.9856 17.5335C55.9848 18.1883 55.9854 18.8432 55.9855 19.4981ZM52.7506 18.5855C53.2498 18.5855 53.7492 18.586 54.2484 18.5852C54.3652 18.5849 54.3668 18.5828 54.3671 18.4686C54.3679 18.1389 54.3672 17.8092 54.3673 17.4795C54.3673 17.3755 54.3564 17.2729 54.3351 17.171C54.1837 16.4431 53.5522 15.8532 52.7283 15.8653C51.9436 15.8769 51.2795 16.4757 51.1652 17.2562C51.1301 17.4957 51.1502 17.7358 51.1454 17.9756C51.142 18.1498 51.1463 18.3242 51.1441 18.4984C51.1434 18.557 51.1635 18.5873 51.2245 18.5853C51.2574 18.5843 51.2904 18.5857 51.3233 18.5857C51.7991 18.5857 52.2748 18.5857 52.7506 18.5855Z" fill="#118EE9"/>
<path fill-rule="evenodd" clip-rule="evenodd" d="M21.7457 18.0451C21.7457 16.8246 21.7456 15.6042 21.7457 14.3838C21.7457 14.1926 21.7349 14.2161 21.911 14.2161C22.745 14.2158 23.5793 14.2024 24.413 14.2189C25.8867 14.2481 27.0084 14.9048 27.7307 16.1892C28.5704 17.6826 28.2927 19.5717 27.0778 20.7776C26.4325 21.4181 25.6515 21.7788 24.7417 21.8556C24.5863 21.8687 24.4315 21.8734 24.276 21.8733C23.4891 21.8732 22.7022 21.8733 21.9153 21.8733C21.8823 21.8733 21.8493 21.8721 21.8163 21.873C21.7693 21.8742 21.7473 21.8511 21.7468 21.8052C21.7464 21.7628 21.7457 21.7204 21.7457 21.678C21.7457 20.467 21.7457 19.256 21.7457 18.0451ZM23.3636 18.0358C23.3636 18.7188 23.3633 19.4018 23.3638 20.0849C23.3638 20.2152 23.3651 20.2167 23.4962 20.2166C23.8354 20.2164 24.1745 20.2126 24.5137 20.2141C24.7971 20.2153 25.0657 20.1507 25.3196 20.0308C26.4867 19.4795 26.9394 18.0949 26.3045 16.9696C25.9268 16.3002 25.3407 15.9232 24.5651 15.8783C24.2035 15.8574 23.84 15.8674 23.4774 15.8634C23.4633 15.8633 23.4491 15.8642 23.435 15.8638C23.3893 15.8625 23.3644 15.883 23.3642 15.9302C23.364 15.9726 23.3636 16.015 23.3636 16.0573C23.3635 16.7168 23.3636 17.3763 23.3636 18.0358Z" fill="#118EE9"/>
<path fill-rule="evenodd" clip-rule="evenodd" d="M46.731 19.523C46.7311 20.2439 46.7311 20.9648 46.731 21.6856C46.731 21.7186 46.7284 21.7518 46.7314 21.7845C46.7376 21.8521 46.7084 21.8757 46.6417 21.8744C46.4816 21.8712 46.3213 21.8733 46.1611 21.8733C45.8596 21.8733 45.5581 21.8732 45.2565 21.8733C45.1101 21.8733 45.1136 21.8852 45.1136 21.7244C45.114 20.3204 45.1226 18.9163 45.1101 17.5124C45.1041 16.8275 44.7846 16.3121 44.1597 16.0126C43.4437 15.6694 42.5675 15.9414 42.1441 16.6234C41.973 16.8989 41.8906 17.1974 41.891 17.5218C41.8923 18.9022 41.8916 20.2827 41.8916 21.6631C41.8916 21.682 41.8916 21.7008 41.8916 21.7197C41.8917 21.8844 41.9018 21.8733 41.7393 21.8733C41.2964 21.8732 40.8535 21.8734 40.4106 21.873C40.2678 21.8729 40.267 21.8723 40.267 21.7377C40.2669 20.3431 40.2596 18.9484 40.2697 17.5539C40.2778 16.4228 40.7203 15.4936 41.6399 14.8204C43.0315 13.8017 44.9996 14.1022 46.0433 15.4783C46.5036 16.0853 46.7276 16.7711 46.7306 17.5301C46.7331 18.1944 46.731 18.8587 46.731 19.523Z" fill="#118EE9"/>
</svg>
