<svg width="60" height="36" viewBox="0 0 60 36" fill="none" xmlns="http://www.w3.org/2000/svg">
<g id="logo / provider / smartfren">
<g id="Smartfren_2015">
<path id="path3944" d="M8.04497 21.2404C8.08138 21.2541 8.11608 21.2664 8.15072 21.2825C8.30416 21.3408 8.40591 21.4169 8.51266 21.5003C9.25854 22.0093 8.89861 22.5197 9.89168 23.1188C10.5011 23.4871 11.5136 23.3977 12.086 22.8746C12.8325 22.1981 12.8375 21.086 12.163 20.4745C11.5579 19.9261 10.5218 19.8991 9.64518 19.6706C7.90121 19.2193 6.1876 18.373 5.97477 17.4072C5.70891 16.1867 7.43119 14.7986 8.58038 14.1658C11.6397 12.4799 14.4451 13.4563 14.5695 13.7562C14.7663 14.2415 13.4273 15.262 12.4232 15.6056C12.3212 15.6372 12.1914 15.5542 12.1364 15.4981C11.7104 15.0622 11.1309 14.9117 10.6009 14.9801C9.73391 15.0912 8.97567 15.757 9.07342 16.4992C9.10812 16.7454 9.28157 16.9045 9.55344 17.091C10.3717 17.6321 12.0983 17.2891 12.7251 17.0636C15.2567 16.1633 16.3922 13.8369 16.1507 13.2114C15.8591 12.4529 11.6223 10.9578 7.39984 13.1277C5.13748 14.2942 3.9446 16.3168 4.00198 17.5937C4.03101 18.3112 4.99671 19.9831 7.85651 21.1644C7.92591 21.1894 7.98727 21.2157 8.04498 21.2404" fill="#ED1C24"/>
<path id="path3946" d="M18.2769 16.217C19.0712 16.2163 19.8928 16.5119 19.8481 16.4929L19.6169 17.1267C19.5329 17.3539 19.3014 17.2868 18.9384 17.2184C18.7433 17.1781 18.5201 17.148 18.2936 17.148C17.6501 17.148 17.4316 17.4192 17.4316 17.6878C17.431 18.1174 17.8389 18.2012 18.3253 18.2695C19.0442 18.3676 19.9972 18.6411 19.9972 19.6372C19.9972 20.2063 19.8584 21.1177 18.0391 21.1177C16.9243 21.1177 16.1817 20.74 16.1817 20.74C16.1817 20.74 16.2971 20.4328 16.3992 20.185C16.5109 19.9158 16.6727 19.9218 16.8135 19.9798C16.8135 19.9798 17.2445 20.188 17.8389 20.191C18.4284 20.1913 18.853 20.1633 18.853 19.6402C18.853 19.2296 18.36 19.1849 17.8052 19.0938C17.1087 18.9791 16.3188 18.6265 16.3188 17.6954C16.3188 16.5866 17.447 16.217 18.2769 16.217" fill="#404042"/>
<path id="path3948" d="M20.9156 16.9205V21.0209H22.0574V17.513C22.1748 17.3368 22.4984 17.1957 22.8804 17.1957C23.3857 17.1957 23.6663 17.5427 23.6663 17.9106V21.0209H24.8021V17.5266C24.8021 17.5266 24.9586 17.1911 25.605 17.1911C26.4507 17.1911 26.417 18 26.417 18V20.6837C26.417 20.8725 26.5598 21.0209 26.7689 21.0209H27.5565V17.7135C27.5565 17.7135 27.5382 16.1453 25.7742 16.1453C24.6954 16.1453 24.3067 16.4772 24.3067 16.4772C24.3067 16.4772 23.7657 16.1393 22.9054 16.1393C22.0454 16.1393 21.1988 16.4745 20.9156 16.9205" fill="#404042"/>
<path id="path3950" d="M56 17.8632V21.0209H55.1947C54.9902 21.0209 54.8358 20.8471 54.8358 20.5779V17.9103C54.8358 17.5423 54.7394 17.1517 53.9268 17.1517C53.5462 17.1517 53.1275 17.3365 53.0058 17.5126V21.0209H51.8536V16.9202C52.2132 16.5603 53.0498 16.1393 53.9091 16.1393C54.7698 16.1393 55.1721 16.3658 55.4359 16.5256C55.9103 16.8071 56 17.3082 56 17.8632Z" fill="#404042"/>
<path id="path3952" fill-rule="evenodd" clip-rule="evenodd" d="M32.5816 17.7425V19.8504V20.717C32.1846 20.9575 31.2209 21.0836 30.3369 21.0836C29.7334 21.0836 28.4772 21.0663 28.4772 19.6993C28.4772 18.3567 29.8464 18.0971 29.9915 18.0696C29.994 18.0691 29.9962 18.0687 29.998 18.0684C30.3878 17.9925 30.9757 17.9946 31.3186 17.9957C31.3572 17.9959 31.3926 17.996 31.4244 17.996C31.4244 17.9577 31.426 17.9178 31.4276 17.8772C31.4411 17.5431 31.4566 17.1586 30.5941 17.1684C30.1808 17.1737 29.8035 17.2478 29.5299 17.3192C29.2618 17.3872 29.078 17.3315 29.0212 17.1624L28.8588 16.5599C28.8588 16.5599 29.2271 16.226 30.7288 16.226C32.7163 16.226 32.5816 17.7425 32.5816 17.7425ZM30.7358 20.1699C30.9593 20.1699 31.4357 20.0292 31.4357 20.0292L31.4244 18.839C31.4244 18.839 30.6178 18.8056 30.2425 18.9013C30.2387 18.9024 30.2333 18.9037 30.2262 18.9054C30.1107 18.9334 29.5797 19.0621 29.5797 19.6165C29.5797 20.1892 30.4077 20.1752 30.684 20.1706C30.7045 20.1702 30.722 20.1699 30.7358 20.1699Z" fill="#404042"/>
<path id="path3954" d="M33.6534 17.7925V21.0499H34.7992V17.6928C34.7992 17.6928 34.7468 17.2161 35.314 17.2017C35.3215 17.2017 35.7573 17.2424 35.7666 17.2438C35.9664 17.2808 36.233 17.1574 36.2877 16.8752C36.337 16.5866 36.3968 16.4078 36.3968 16.4078C36.3968 16.4078 35.6999 16.1786 34.931 16.2717C34.874 16.28 33.6534 16.4408 33.6534 17.7925Z" fill="#404042"/>
<path id="path3956" d="M43.5407 17.7925V21.0499H44.6892V17.6928C44.6892 17.6928 44.6359 17.2161 45.2026 17.2017C45.2092 17.2017 45.6433 17.2424 45.6563 17.2438C45.8548 17.2808 46.1216 17.1574 46.1743 16.8752C46.2291 16.5866 46.2848 16.4078 46.2848 16.4078C46.2848 16.4078 45.5869 16.1786 44.819 16.2717C44.7586 16.28 43.5407 16.4408 43.5407 17.7925" fill="#404042"/>
<path id="path3958" d="M37.0753 19.4171C37.0753 19.4171 36.9115 21.055 38.7051 21.071H38.8746C39.3499 21.071 39.5885 20.9919 39.5885 20.9919C39.5885 20.9919 39.5658 20.8408 39.5297 20.5339C39.4913 20.227 39.2322 20.1263 38.956 20.1263C38.9513 20.1263 38.8029 20.1263 38.7945 20.1256C38.3255 20.1119 38.2114 19.6799 38.2114 19.1979V17.1911H38.8853C39.1445 17.1911 39.4113 16.9983 39.4113 16.6453V16.2781H38.2598V14.9487C38.2598 14.9487 37.5216 15.1229 37.4025 15.1609C37.2814 15.2016 37.0752 15.3367 37.0752 15.6493L37.0753 19.4171Z" fill="#404042"/>
<path id="path3960" d="M40.5341 16.2781V17.1911V21.05H41.6606V17.1911H42.4696C42.7351 17.1911 42.9383 16.9352 42.9383 16.6907V16.2781H41.67V15.7604C41.67 15.7604 41.6503 15.258 42.2988 15.2446H42.8072C43.064 15.2446 43.1581 15.1399 43.1941 14.9511C43.2221 14.7636 43.2892 14.3823 43.2892 14.3823C43.2892 14.3823 42.9059 14.3183 42.5453 14.2999C42.5453 14.2999 42.3415 14.2886 42.112 14.2999C41.8821 14.2949 40.5341 14.3573 40.5341 16.2781C40.5341 16.4772 40.5341 16.2781 40.5341 16.2781" fill="#404042"/>
<path id="path3962" fill-rule="evenodd" clip-rule="evenodd" d="M48.8333 16.1216C51.014 16.1313 50.9561 18.2806 50.9486 18.5301V18.5301C50.9352 18.7746 50.7701 19.0348 50.4959 19.0348H47.7185C47.7185 19.7903 48.4384 20.1376 49.0902 20.1376C49.3261 20.1376 49.4351 20.1137 49.6301 20.0709C49.656 20.0652 49.6833 20.0592 49.7126 20.0529C50.0699 19.9711 50.3111 20.1206 50.3735 20.3461C50.4345 20.5779 50.4789 20.7871 50.4789 20.7871C50.4789 20.7871 50.0699 21.0386 48.8557 21.0386C46.65 21.0386 46.5163 19.1255 46.5163 18.6295C46.5163 18.1354 46.65 16.1106 48.8333 16.1216ZM47.6868 18.1891H49.8101C49.8101 18.1891 49.8564 17.0116 48.7426 17.0116C47.7335 17.0116 47.6868 18.1891 47.6868 18.1891Z" fill="#404042"/>
</g>
</g>
</svg>
