<svg width="60" height="36" viewBox="0 0 60 36" fill="none" xmlns="http://www.w3.org/2000/svg">
<path fill-rule="evenodd" clip-rule="evenodd" d="M53.1027 6.01886C53.1969 6.05515 53.2972 6.04363 53.3945 6.0542C53.5758 6.0739 53.756 6.09624 53.9314 6.14871C54.1044 6.20049 54.1964 6.30611 54.2138 6.48445C54.233 6.68113 54.2025 6.87266 54.1421 7.05998C54.1334 7.08699 54.1278 7.11481 54.0892 7.11472C53.8132 7.11416 53.5371 7.11443 53.2596 7.11443C53.3163 6.81263 53.2647 6.7478 52.9644 6.73547C52.807 6.72902 52.6504 6.73188 52.4963 6.77176C52.3122 6.81943 52.1693 7.05963 52.2185 7.24361C52.2394 7.32206 52.301 7.35263 52.3738 7.35862C52.546 7.37276 52.7184 7.38498 52.8909 7.39375C53.1464 7.40673 53.3959 7.45089 53.6392 7.52897C53.8502 7.59672 53.9529 7.71591 53.9473 7.93691C53.9368 8.35293 53.8275 8.74514 53.577 9.08239C53.409 9.30869 53.1562 9.41243 52.8848 9.44267C52.365 9.5006 51.844 9.50098 51.3256 9.41599C51.3071 9.41294 51.2891 9.4069 51.2711 9.40172C50.941 9.30715 50.8449 9.17161 50.8819 8.83226C50.8969 8.69542 50.9295 8.56046 50.9554 8.42489C50.9612 8.39443 50.9684 8.36483 51.0129 8.36502C51.2859 8.36634 51.5589 8.3657 51.8348 8.3657C51.8251 8.42411 51.8131 8.48233 51.8062 8.54117C51.7911 8.67189 51.8572 8.76481 51.9833 8.76991C52.2091 8.77905 52.4359 8.79133 52.6608 8.75655C52.8689 8.72434 53.0418 8.45538 52.9884 8.252C52.9708 8.18461 52.9174 8.15933 52.8561 8.14775C52.6453 8.1079 52.4307 8.11346 52.2181 8.09479C51.9737 8.07329 51.7328 8.04048 51.5007 7.95172C51.3497 7.89393 51.2641 7.78746 51.2599 7.63549C51.248 7.21474 51.341 6.81646 51.5878 6.47002C51.7663 6.21954 52.0358 6.11833 52.3317 6.07371C52.4503 6.0558 52.573 6.06294 52.6876 6.01889C52.7002 6.01889 52.7128 6.01889 52.7254 6.01889C52.8385 6.04195 52.9518 6.03923 53.065 6.01889C53.0776 6.01886 53.0902 6.01886 53.1027 6.01886Z" fill="#024982"/>
<path fill-rule="evenodd" clip-rule="evenodd" d="M54.7721 10.25C54.735 10.2627 54.7426 10.3018 54.7311 10.3285C54.6622 10.488 54.5087 10.5709 54.3468 10.5326C54.1913 10.4958 54.0879 10.3505 54.097 10.1817C54.1058 10.0211 54.2231 9.89043 54.3775 9.86941C54.5417 9.84701 54.6881 9.94399 54.7428 10.1088C54.7505 10.1324 54.7352 10.1679 54.7721 10.1785C54.7721 10.2023 54.7721 10.2262 54.7721 10.25ZM54.6854 10.1997C54.6839 10.039 54.566 9.91685 54.4173 9.92204C54.2731 9.92703 54.1617 10.0488 54.1611 10.2022C54.1604 10.3605 54.2776 10.4863 54.4254 10.4854C54.5755 10.4846 54.6869 10.3622 54.6854 10.1997Z" fill="#054B84"/>
<path fill-rule="evenodd" clip-rule="evenodd" d="M50.0388 7.73108C50.1382 7.76372 50.2102 7.78337 50.2791 7.81088C50.4125 7.8642 50.4866 7.96567 50.4828 8.10934C50.4721 8.49971 50.3623 8.8587 50.1109 9.16303C49.9616 9.34366 49.7467 9.39927 49.5256 9.43237C49.3854 9.45336 49.2441 9.45862 49.1025 9.45859C48.5177 9.45846 47.9329 9.4563 47.3482 9.46097C47.2565 9.46167 47.2569 9.43291 47.2761 9.3616C47.5651 8.2863 47.8529 7.21061 48.1381 6.13431C48.1551 6.0701 48.1806 6.05269 48.2456 6.05302C48.8241 6.05585 49.4026 6.05434 49.981 6.05485C50.1869 6.05504 50.3867 6.08566 50.5792 6.16423C50.7534 6.23529 50.8432 6.35948 50.8444 6.54702C50.8465 6.88408 50.7414 7.18941 50.5591 7.46827C50.4741 7.59826 50.338 7.6595 50.1911 7.69644C50.1496 7.70688 50.1077 7.71548 50.0388 7.73108ZM48.8138 8.70974C48.8138 8.70756 48.8138 8.70535 48.8138 8.70316C48.9361 8.70316 49.059 8.71028 49.1807 8.70173C49.4615 8.68201 49.569 8.56546 49.5796 8.28333C49.5856 8.1225 49.5433 8.06622 49.3847 8.06012C49.1213 8.05001 48.8575 8.05068 48.5938 8.04531C48.556 8.04456 48.5389 8.05686 48.5295 8.09458C48.4829 8.27987 48.4355 8.46498 48.3838 8.64885C48.3674 8.70699 48.3906 8.71115 48.4371 8.71042C48.5626 8.70848 48.6882 8.70974 48.8138 8.70974ZM48.7153 7.41148C48.9883 7.41148 49.252 7.42149 49.5145 7.40843C49.7383 7.39728 49.8346 7.28211 49.8553 7.0476C49.8697 6.88453 49.8247 6.82267 49.6618 6.81644C49.4173 6.8071 49.1724 6.80969 48.9277 6.80613C48.8961 6.80567 48.8729 6.81115 48.8639 6.84566C48.815 7.03295 48.7656 7.22005 48.7153 7.41148Z" fill="#024982"/>
<path fill-rule="evenodd" clip-rule="evenodd" d="M45.3664 6.05466C45.2485 6.49675 45.1326 6.92975 45.0179 7.36304C44.9303 7.69352 44.8444 8.0244 44.7578 8.35512C44.7562 8.36121 44.7543 8.36723 44.7531 8.37338C44.7105 8.5937 44.7561 8.66352 44.9752 8.69395C45.1724 8.72134 45.3701 8.71449 45.5662 8.67774C45.6776 8.65688 45.7604 8.59893 45.8155 8.49671C45.9275 8.28893 45.9633 8.05745 46.0246 7.83443C46.18 7.26888 46.3292 6.70158 46.4784 6.13436C46.4932 6.07808 46.511 6.05183 46.5761 6.0529C46.8307 6.05719 47.0854 6.05536 47.3401 6.05404C47.3886 6.05377 47.4171 6.05536 47.399 6.11949C47.1696 6.93131 46.978 7.7536 46.7253 8.559C46.7047 8.62467 46.678 8.68864 46.6512 8.75212C46.4972 9.11611 46.2235 9.33686 45.8372 9.40795C45.2881 9.50901 44.7366 9.51387 44.19 9.39424C43.854 9.32069 43.7548 9.17905 43.764 8.83322C43.772 8.53504 43.8646 8.25289 43.94 7.96806C44.1006 7.36161 44.2654 6.75632 44.4244 6.14949C44.4437 6.07584 44.4706 6.05064 44.5494 6.05239C44.8192 6.05835 45.0891 6.05466 45.3664 6.05466Z" fill="#024982"/>
<path fill-rule="evenodd" clip-rule="evenodd" d="M39.6558 6.07304C39.7147 6.07884 39.7598 6.06297 39.7742 6.10225C39.787 6.13722 39.751 6.16382 39.729 6.18986C39.5077 6.4514 39.2859 6.71251 39.0651 6.97451C38.9891 7.06481 38.9908 7.08931 39.0729 7.17257C39.6997 7.80851 40.3271 8.44386 40.9526 9.08106C40.9989 9.12825 41.023 9.14012 41.077 9.08503C41.6994 8.44922 42.3251 7.81655 42.9499 7.18306C43.0445 7.0871 43.0464 7.06724 42.9591 6.96372C42.7403 6.70423 42.5203 6.44571 42.3012 6.18638C42.2798 6.16099 42.2426 6.13574 42.26 6.0988C42.2779 6.06089 42.3217 6.07994 42.3545 6.07589C42.4119 6.0688 42.4571 6.09119 42.4991 6.1294C42.8081 6.41106 43.1186 6.69117 43.4274 6.97305C43.5182 7.05594 43.5181 7.09926 43.431 7.18261C42.6516 7.92792 41.8713 8.67232 41.0932 9.41899C41.0328 9.47697 40.9938 9.47033 40.937 9.41586C40.1608 8.6717 39.3828 7.92946 38.6056 7.18641C38.5137 7.09854 38.5138 7.05664 38.6083 6.97014C38.9146 6.69017 39.2225 6.4119 39.5285 6.13155C39.5733 6.09054 39.6207 6.06756 39.6558 6.07304Z" fill="#054B84"/>
<path fill-rule="evenodd" clip-rule="evenodd" d="M40.9374 6.48239C40.9374 6.49812 40.9353 6.51415 40.9378 6.5295C40.9695 6.73082 40.9194 6.89904 40.7431 7.01732C40.6941 7.05015 40.6952 7.08493 40.7417 7.11963C40.9115 7.24632 40.949 7.41568 40.9387 7.6215C40.9225 7.94448 40.9347 8.26888 40.934 8.59267C40.9339 8.62893 40.9472 8.6745 40.905 8.6946C40.8593 8.71645 40.8302 8.67976 40.8013 8.65043C40.3066 8.14926 39.8123 7.6477 39.3165 7.14774C39.2547 7.08542 39.2455 7.03688 39.3081 6.96468C39.5468 6.68919 39.7801 6.40901 40.0138 6.1292C40.0442 6.09283 40.0735 6.07394 40.1238 6.07462C40.3595 6.07767 40.5954 6.07788 40.8311 6.07492C40.9086 6.07394 40.9398 6.10481 40.938 6.1806C40.9356 6.28115 40.9374 6.38178 40.9374 6.48239ZM39.7688 6.91814C39.9977 6.91814 40.201 6.91952 40.4044 6.91747C40.4836 6.91668 40.641 6.75165 40.6422 6.67241C40.6434 6.59406 40.6399 6.51555 40.6434 6.43734C40.6456 6.3868 40.6262 6.37299 40.5781 6.37423C40.4653 6.37712 40.3524 6.3752 40.2395 6.37512C40.2144 6.37512 40.1915 6.37534 40.173 6.39929C40.0434 6.56708 39.9125 6.7339 39.7688 6.91814ZM40.6422 8.0105C40.6422 7.82472 40.6425 7.63491 40.6415 7.44508C40.6414 7.43084 40.6351 7.41273 40.6253 7.403C40.5336 7.31259 40.4555 7.1969 40.2967 7.23138C40.2578 7.23982 40.2155 7.23262 40.1747 7.23262C40.0708 7.23262 39.9668 7.23262 39.8508 7.23262C40.1229 7.5001 40.3808 7.75354 40.6422 8.0105Z" fill="#024982"/>
<path fill-rule="evenodd" clip-rule="evenodd" d="M41.4141 8.00495C41.6774 7.74513 41.9338 7.4922 42.2006 7.2289C42.1417 7.2289 42.0902 7.2289 42.0387 7.2289C41.7652 7.2289 41.4916 7.22618 41.2181 7.23044C41.1277 7.23184 41.0925 7.19634 41.0929 7.10957C41.094 6.80772 41.0923 6.50587 41.0938 6.20402C41.0943 6.10525 41.1251 6.07665 41.2259 6.07614C41.4649 6.07489 41.7039 6.07659 41.9428 6.0739C41.9891 6.07336 42.0174 6.08917 42.0445 6.1247C42.1759 6.29718 42.3097 6.4678 42.4421 6.63955C42.4608 6.66389 42.4885 6.68976 42.4749 6.723C42.4605 6.75808 42.4227 6.74809 42.3923 6.75255C42.2417 6.77445 42.1213 6.73334 42.0444 6.59396C41.9434 6.41104 41.7901 6.35397 41.5843 6.37666C41.4174 6.39506 41.4158 6.38041 41.4158 6.54715C41.4158 6.64147 41.4202 6.73606 41.4144 6.83003C41.4101 6.89826 41.4349 6.91332 41.4994 6.91278C41.8641 6.90984 42.2289 6.91132 42.5936 6.91146C42.6219 6.91148 42.6505 6.91032 42.6784 6.91394C42.7223 6.91963 42.7679 6.92727 42.7844 6.97785C42.8006 7.02736 42.7852 7.0705 42.7509 7.10773C42.7402 7.11928 42.7288 7.13013 42.7177 7.1413C42.2166 7.64509 41.7154 8.14888 41.2143 8.65273C41.1901 8.67699 41.1686 8.71025 41.1282 8.69781C41.0819 8.68357 41.0978 8.64075 41.0977 8.60937C41.0965 8.23206 41.0985 7.8547 41.0957 7.47741C41.0951 7.39704 41.1272 7.3737 41.2026 7.37594C41.437 7.3829 41.4115 7.33855 41.4138 7.58668C41.4152 7.72719 41.4141 7.86775 41.4141 8.00495Z" fill="#054B84"/>
<path fill-rule="evenodd" clip-rule="evenodd" d="M46.6218 10.5139C46.7026 10.3269 46.7795 10.1687 46.8386 10.004C46.8718 9.91153 46.9363 9.94884 46.9907 9.94339C47.0566 9.93678 47.0324 9.99549 47.0364 10.0246C47.0672 10.2517 47.0918 10.4796 47.1232 10.7065C47.1315 10.7672 47.1177 10.7797 47.0572 10.7772C46.9058 10.7707 46.9076 10.7741 46.8962 10.6254C46.8866 10.501 46.8718 10.3771 46.857 10.2296C46.7641 10.3972 46.7057 10.5549 46.6389 10.7087C46.6233 10.7445 46.6204 10.7858 46.5604 10.7828C46.5035 10.78 46.5089 10.7379 46.4951 10.7066C46.4395 10.5804 46.3848 10.4538 46.3293 10.3275C46.3196 10.3054 46.3131 10.2795 46.278 10.2714C46.2554 10.4104 46.2339 10.5487 46.2351 10.6883C46.2357 10.764 46.2088 10.791 46.1379 10.7767C46.0663 10.7623 46.1123 10.7146 46.1166 10.6836C46.1478 10.4598 46.1816 10.2363 46.2156 10.0129C46.22 9.9837 46.2008 9.92999 46.26 9.94345C46.3102 9.95489 46.3773 9.89996 46.4105 9.99147C46.4714 10.1591 46.5436 10.3225 46.6218 10.5139Z" fill="#054B84"/>
<path fill-rule="evenodd" clip-rule="evenodd" d="M43.9061 10.2643C43.8073 10.4047 43.7482 10.5596 43.6834 10.7119C43.6697 10.7441 43.6667 10.7823 43.6115 10.7829C43.5552 10.7835 43.5549 10.7445 43.541 10.7125C43.4754 10.5603 43.4104 10.4078 43.3344 10.2304C43.2938 10.4074 43.2886 10.5619 43.275 10.7152C43.272 10.7487 43.2818 10.7799 43.224 10.7792C43.1597 10.7783 43.1427 10.7708 43.1555 10.6988C43.1958 10.4701 43.2246 10.2395 43.2591 10.0097C43.2632 9.9826 43.2515 9.9329 43.3008 9.94361C43.3517 9.95473 43.4204 9.90036 43.4537 9.9867C43.5177 10.1527 43.5865 10.3168 43.6619 10.5031C43.7508 10.339 43.8232 10.1896 43.8715 10.0337C43.9044 9.92767 43.9702 9.94329 44.0426 9.94199C44.0799 9.94132 44.0794 9.9676 44.0816 9.99293C44.1037 10.24 44.1312 10.4865 44.1728 10.7312C44.1797 10.7714 44.1667 10.7769 44.1296 10.778C43.9619 10.7827 43.961 10.7843 43.942 10.6178C43.9286 10.5001 43.918 10.3821 43.9061 10.2643Z" fill="#054B84"/>
<path fill-rule="evenodd" clip-rule="evenodd" d="M47.6995 9.92059C47.9363 9.92173 48.0997 10.0204 48.1586 10.1886C48.2208 10.3659 48.1687 10.5773 48.0355 10.6888C47.8733 10.8245 47.5732 10.8378 47.3996 10.7168C47.2607 10.62 47.2008 10.4335 47.2481 10.2453C47.2941 10.0623 47.4298 9.94541 47.621 9.92494C47.6521 9.92162 47.6836 9.92143 47.6995 9.92059ZM47.4582 10.3681C47.457 10.441 47.464 10.5121 47.4973 10.5788C47.5388 10.6619 47.6047 10.7109 47.6974 10.7132C47.7895 10.7154 47.8637 10.6735 47.9047 10.5905C47.9782 10.4417 47.981 10.2877 47.9152 10.1356C47.8782 10.05 47.8055 10.0065 47.7131 10.0058C47.621 10.0052 47.5504 10.0483 47.5071 10.131C47.4682 10.2051 47.456 10.2853 47.4582 10.3681Z" fill="#054B84"/>
<path fill-rule="evenodd" clip-rule="evenodd" d="M48.5554 9.94167C48.6762 9.9384 48.7649 9.92926 48.8513 9.95035C49.0427 9.99706 49.1475 10.1501 49.1407 10.3684C49.1342 10.5777 48.9992 10.737 48.8008 10.7737C48.6566 10.8004 48.512 10.7622 48.368 10.7803C48.3269 10.7855 48.3318 10.7572 48.3336 10.7317C48.3509 10.4837 48.3516 10.2356 48.3334 9.98761C48.3305 9.94803 48.3452 9.93978 48.3809 9.94097C48.45 9.94329 48.5191 9.94167 48.5554 9.94167ZM48.9192 10.3511C48.9223 10.1214 48.8155 10.0094 48.6099 10.0216C48.5653 10.0242 48.5495 10.0381 48.5496 10.082C48.5498 10.2638 48.5487 10.4456 48.5459 10.6273C48.5452 10.6798 48.5656 10.6965 48.6179 10.6978C48.8121 10.7027 48.916 10.5852 48.9192 10.3511Z" fill="#054B84"/>
<path fill-rule="evenodd" clip-rule="evenodd" d="M51.2697 10.3302C51.4338 10.384 51.4953 10.4538 51.4795 10.5682C51.4635 10.6847 51.3708 10.7643 51.2127 10.7772C51.0925 10.7871 50.9707 10.7792 50.8496 10.7805C50.8043 10.781 50.8121 10.7546 50.8131 10.7294C50.8223 10.4816 50.8297 10.2338 50.8067 9.98644C50.8028 9.94373 50.8248 9.94174 50.8609 9.94176C50.9615 9.94179 51.062 9.93731 51.1625 9.93796C51.324 9.93907 51.4266 9.99583 51.4494 10.0932C51.4748 10.2012 51.4349 10.2539 51.2697 10.3302ZM51.0458 10.5352C51.0463 10.5352 51.0467 10.5352 51.0471 10.5352C51.0471 10.5664 51.0459 10.5976 51.0473 10.6289C51.0508 10.7015 51.0955 10.7187 51.1933 10.6858C51.3247 10.6415 51.3522 10.4705 51.2359 10.4104C51.1871 10.3852 51.1242 10.3674 51.0688 10.384C51.0221 10.3979 51.0512 10.4402 51.0465 10.4697C51.0431 10.4913 51.0458 10.5134 51.0458 10.5352ZM51.0468 10.1755C51.0689 10.2062 51.0052 10.2637 51.0757 10.2939C51.1238 10.3145 51.1917 10.2893 51.2389 10.2646C51.3202 10.2221 51.3331 10.1087 51.2649 10.0576C51.2188 10.0231 51.1553 10.0114 51.0895 10.0193C51.0152 10.0281 51.0564 10.07 51.0481 10.097C51.0416 10.1181 51.0468 10.1407 51.0468 10.1755Z" fill="#054B84"/>
<path fill-rule="evenodd" clip-rule="evenodd" d="M52.5697 10.3982C52.5697 10.5215 52.5674 10.6178 52.5707 10.7139C52.5722 10.7594 52.5676 10.7799 52.512 10.7787C52.3591 10.7757 52.3616 10.779 52.3622 10.6246C52.363 10.4143 52.3611 10.204 52.3566 9.99376C52.3557 9.95184 52.364 9.93945 52.4064 9.94021C52.5225 9.94234 52.6388 9.93624 52.7547 9.94034C52.8829 9.94488 52.9552 10.0026 52.9752 10.1047C52.9973 10.2171 52.9571 10.299 52.8392 10.3522C52.7939 10.3726 52.7996 10.387 52.82 10.4185C52.8948 10.5336 52.9686 10.6494 53.0528 10.7806C52.9742 10.7806 52.9044 10.7792 52.8347 10.7811C52.7955 10.7821 52.7929 10.75 52.7787 10.7276C52.7135 10.6247 52.6482 10.5219 52.5697 10.3982ZM52.5648 10.1752C52.564 10.1752 52.5633 10.1752 52.5626 10.1752C52.5626 10.2125 52.5635 10.2499 52.5623 10.2872C52.5614 10.314 52.5757 10.3288 52.6101 10.3285C52.6928 10.3277 52.7758 10.3181 52.8067 10.2484C52.8372 10.1799 52.8485 10.1055 52.7692 10.0491C52.7227 10.016 52.6569 10.0102 52.6 10.0227C52.5372 10.0364 52.5746 10.0861 52.5656 10.1193C52.5608 10.1372 52.5648 10.1565 52.5648 10.1752Z" fill="#054B84"/>
<path fill-rule="evenodd" clip-rule="evenodd" d="M39.2526 10.2227C39.2503 10.1705 39.2486 10.0824 39.2417 9.99478C39.2384 9.95393 39.2476 9.94144 39.291 9.94015C39.4647 9.93494 39.4631 9.93308 39.4602 10.1081C39.4581 10.2369 39.4562 10.366 39.4624 10.4946C39.4684 10.6175 39.538 10.6842 39.6498 10.689C39.7621 10.6939 39.8447 10.6234 39.8575 10.502C39.8745 10.3391 39.8763 10.1749 39.8601 10.0122C39.8513 9.92458 39.9021 9.94697 39.9489 9.94179C40.0231 9.93356 39.999 9.97867 39.9974 10.0177C39.992 10.1496 39.9892 10.2816 39.9857 10.4136C39.9772 10.7406 39.6841 10.909 39.3929 10.7533C39.3018 10.7045 39.2581 10.623 39.2534 10.5226C39.2494 10.4347 39.2526 10.3465 39.2526 10.2227Z" fill="#054B84"/>
<path fill-rule="evenodd" clip-rule="evenodd" d="M53.896 10.2361C53.896 10.324 53.9011 10.4122 53.8949 10.4996C53.8833 10.6636 53.7676 10.7789 53.6044 10.7922C53.5453 10.797 53.4846 10.7969 53.4259 10.7894C53.2855 10.7714 53.1955 10.6913 53.1764 10.5592C53.1485 10.3659 53.1751 10.1702 53.1596 9.976C53.1571 9.9456 53.1729 9.93737 53.1996 9.94112C53.2027 9.94155 53.2059 9.94166 53.2091 9.94152C53.3868 9.93421 53.3852 9.93413 53.376 10.1141C53.369 10.2488 53.3602 10.3839 53.3826 10.5183C53.4006 10.626 53.4604 10.6826 53.5625 10.6889C53.6656 10.6953 53.7456 10.6411 53.7671 10.5341C53.8021 10.3604 53.7824 10.1836 53.78 10.0083C53.7792 9.95423 53.7921 9.94301 53.8453 9.94047C53.9122 9.93729 53.9232 9.96057 53.9159 10.0198C53.9072 10.0913 53.9077 10.1639 53.9042 10.2361C53.9014 10.2361 53.8987 10.2361 53.896 10.2361Z" fill="#054B84"/>
<path fill-rule="evenodd" clip-rule="evenodd" d="M38.4858 10.3516C38.4858 10.2356 38.4857 10.1195 38.4859 10.0034C38.4859 9.97453 38.4688 9.93846 38.5289 9.93962C38.6594 9.94213 38.7903 9.93603 38.9205 9.94318C39.067 9.95127 39.1424 10.0226 39.1555 10.1486C39.1685 10.2734 39.0985 10.3721 38.9681 10.4076C38.9289 10.4183 38.8854 10.4302 38.8467 10.4248C38.729 10.4085 38.6935 10.4536 38.7126 10.5533C38.7179 10.5808 38.7134 10.6097 38.7148 10.6379C38.7216 10.7748 38.7212 10.768 38.5697 10.7786C38.481 10.7849 38.4789 10.7537 38.4823 10.6903C38.4884 10.5777 38.484 10.4645 38.484 10.3516C38.4846 10.3516 38.4852 10.3516 38.4858 10.3516ZM38.7215 10.1842C38.7205 10.1842 38.7195 10.1842 38.7184 10.1842C38.7184 10.2124 38.7233 10.2411 38.7175 10.2688C38.7007 10.3501 38.7688 10.3504 38.8473 10.3345C38.9292 10.3177 38.9721 10.2751 38.9786 10.2163C38.9855 10.1533 38.9933 10.0884 38.906 10.0456C38.8607 10.0233 38.8034 10.0103 38.7522 10.0245C38.7004 10.039 38.7272 10.0798 38.7224 10.1091C38.7183 10.1338 38.7215 10.1592 38.7215 10.1842Z" fill="#054B84"/>
<path fill-rule="evenodd" clip-rule="evenodd" d="M40.7701 10.7671C40.8829 10.5078 40.9919 10.2449 41.0861 9.9762C41.1029 9.92812 41.1327 9.9316 41.1718 9.92987C41.2113 9.92815 41.2347 9.93292 41.2487 9.97493C41.3374 10.2425 41.4451 10.503 41.5576 10.7791C41.4822 10.7791 41.4154 10.7783 41.3486 10.7796C41.3266 10.78 41.3127 10.7749 41.3078 10.7519C41.3051 10.7397 41.2994 10.7282 41.2954 10.7163C41.2365 10.5359 41.1948 10.5117 41.0077 10.5428C40.9778 10.5478 40.9632 10.5605 40.9554 10.5868C40.9473 10.6138 40.9349 10.6402 40.9314 10.6678C40.919 10.7669 40.8683 10.8028 40.7701 10.7671ZM41.1513 10.1852C41.0967 10.2879 41.0531 10.3698 41.009 10.4528C41.1057 10.4528 41.1898 10.4528 41.2766 10.4528C41.2732 10.4356 41.2735 10.4257 41.2692 10.4171C41.2333 10.3454 41.1965 10.2738 41.1513 10.1852Z" fill="#054B84"/>
<path fill-rule="evenodd" clip-rule="evenodd" d="M44.2562 10.7697C44.362 10.5013 44.4672 10.2403 44.5667 9.97715C44.5854 9.92785 44.6129 9.93106 44.6519 9.93017C44.6902 9.92931 44.7128 9.93282 44.7288 9.97593C44.8217 10.2253 44.9175 10.4735 45.0155 10.7208C45.0355 10.7712 45.0229 10.7831 44.9748 10.7766C44.9717 10.7762 44.9685 10.7762 44.9654 10.7762C44.7999 10.7772 44.7967 10.7782 44.7472 10.62C44.7292 10.5623 44.7032 10.535 44.6431 10.5421C44.6276 10.544 44.6117 10.5415 44.596 10.5419C44.4139 10.5475 44.4544 10.5164 44.4096 10.6811C44.3838 10.7759 44.3409 10.7933 44.2562 10.7697ZM44.6339 10.186C44.603 10.2367 44.5852 10.2654 44.568 10.2942C44.4689 10.461 44.469 10.4611 44.7461 10.4506C44.7537 10.4503 44.7608 10.4456 44.7753 10.4403C44.7325 10.3633 44.6894 10.2858 44.6339 10.186Z" fill="#054B84"/>
<path fill-rule="evenodd" clip-rule="evenodd" d="M51.4608 10.7684C51.5387 10.5748 51.6169 10.3812 51.6943 10.1873C51.7187 10.1262 51.7429 10.065 51.764 10.0028C51.7801 9.95582 51.795 9.92698 51.8592 9.92744C51.9233 9.9279 51.9295 9.96303 51.9438 10.0036C52.0258 10.2371 52.1127 10.4687 52.2127 10.695C52.2458 10.7699 52.2268 10.781 52.1524 10.7775C52.0036 10.7706 51.9996 10.7757 51.9591 10.6378C51.9385 10.5677 51.9083 10.5273 51.8304 10.5418C51.8213 10.5435 51.8116 10.5416 51.8022 10.5419C51.6225 10.5477 51.6614 10.5152 51.6157 10.6812C51.5901 10.774 51.5479 10.7947 51.4608 10.7684ZM51.8372 10.1927C51.8141 10.2317 51.7974 10.2598 51.7807 10.2879C51.672 10.4715 51.672 10.4715 51.9824 10.4516C51.9477 10.3656 51.9021 10.2834 51.8372 10.1927Z" fill="#054B84"/>
<path fill-rule="evenodd" clip-rule="evenodd" d="M49.2775 10.3586C49.2775 10.2392 49.2811 10.1197 49.2758 10.0005C49.2734 9.94812 49.2882 9.93757 49.3372 9.93905C49.4628 9.94291 49.5887 9.94418 49.7143 9.93981C49.7686 9.93792 49.7648 9.96476 49.7665 10.002C49.7686 10.0484 49.749 10.0563 49.7103 10.0452C49.7014 10.0426 49.6917 10.0425 49.6823 10.0418C49.4889 10.0255 49.4738 10.0427 49.4914 10.2396C49.4952 10.281 49.5099 10.2948 49.5486 10.2922C49.5956 10.289 49.6428 10.2878 49.6899 10.2857C49.7257 10.2841 49.7617 10.2687 49.7627 10.3345C49.7637 10.4005 49.7324 10.394 49.6883 10.3917C49.4914 10.3817 49.4967 10.3827 49.49 10.582C49.487 10.6707 49.5179 10.6922 49.5965 10.6798C49.6305 10.6744 49.6658 10.6782 49.7 10.6737C49.7355 10.6689 49.7684 10.6562 49.7647 10.7159C49.762 10.7572 49.7664 10.7841 49.7065 10.7809C49.5812 10.7741 49.4551 10.7746 49.3297 10.781C49.2717 10.7839 49.2713 10.7612 49.2724 10.7168C49.2753 10.5975 49.2734 10.478 49.2734 10.3586C49.2748 10.3586 49.2761 10.3586 49.2775 10.3586Z" fill="#054B84"/>
<path fill-rule="evenodd" clip-rule="evenodd" d="M43.0321 10.6692C43.0548 10.758 43.0306 10.7884 42.9366 10.7793C42.8248 10.7685 42.7108 10.7756 42.598 10.7805C42.5515 10.7825 42.54 10.7743 42.5445 10.7251C42.566 10.4871 42.5572 10.2483 42.5519 10.0099C42.5505 9.94841 42.5654 9.9367 42.6228 9.93916C42.7419 9.9442 42.8613 9.94393 42.9805 9.94029C43.0301 9.93875 43.043 9.95181 43.0434 10.0018C43.0439 10.0606 43.0147 10.0523 42.9786 10.0441C42.9725 10.0428 42.9661 10.0422 42.9599 10.0421C42.7177 10.0373 42.7735 9.99992 42.7628 10.232C42.7602 10.2867 42.7845 10.2957 42.8292 10.2921C42.873 10.2887 42.917 10.2882 42.9608 10.2857C42.9977 10.2836 43.0318 10.2713 43.0326 10.3353C43.0335 10.4024 42.9995 10.3934 42.9568 10.3913C42.7636 10.3818 42.7696 10.3827 42.7613 10.5725C42.7571 10.6677 42.7883 10.6941 42.8762 10.6799C42.9253 10.672 42.9758 10.6727 43.0321 10.6692Z" fill="#054B84"/>
<path fill-rule="evenodd" clip-rule="evenodd" d="M40.6319 10.1501C40.5907 10.0446 40.5279 10.0035 40.4351 10.0139C40.3859 10.0194 40.3413 10.0323 40.3278 10.0881C40.3142 10.1448 40.3354 10.187 40.3874 10.212C40.4381 10.2364 40.4897 10.2591 40.5413 10.2816C40.6726 10.3389 40.7203 10.4161 40.7085 10.5536C40.6984 10.6715 40.613 10.7644 40.4866 10.7885C40.4439 10.7967 40.399 10.7975 40.3554 10.7958C40.1652 10.7882 40.1448 10.7601 40.1905 10.5657C40.2262 10.6005 40.2324 10.6527 40.274 10.677C40.3308 10.71 40.3889 10.7253 40.4536 10.7039C40.5027 10.6875 40.5331 10.6571 40.539 10.6035C40.5448 10.5516 40.5183 10.5197 40.4762 10.4984C40.4148 10.4673 40.3504 10.4416 40.2905 10.4078C40.1902 10.3513 40.1461 10.2568 40.1647 10.1466C40.1834 10.0365 40.2464 9.96721 40.3563 9.93991C40.4058 9.92758 40.4553 9.9231 40.5056 9.92809C40.6726 9.94468 40.6858 9.96454 40.6319 10.1501Z" fill="#054B84"/>
<path fill-rule="evenodd" clip-rule="evenodd" d="M45.1517 10.5455C45.196 10.6469 45.2461 10.7079 45.3377 10.7128C45.4076 10.7165 45.4729 10.7031 45.4973 10.6266C45.5218 10.5496 45.4724 10.5114 45.4104 10.4826C45.3537 10.4562 45.2962 10.4307 45.2421 10.3996C45.1465 10.3447 45.114 10.2562 45.1277 10.1511C45.1416 10.0448 45.2013 9.97371 45.306 9.94317C45.3672 9.92531 45.4294 9.92086 45.4923 9.93122C45.6506 9.95725 45.6561 9.96767 45.5938 10.1366C45.5532 10.0532 45.497 10.0016 45.4029 10.0133C45.3505 10.0199 45.3024 10.0312 45.2898 10.0927C45.278 10.1505 45.3031 10.1902 45.3545 10.2145C45.4025 10.2372 45.4511 10.2589 45.5 10.2801C45.6391 10.3403 45.689 10.4243 45.6701 10.5679C45.6545 10.6862 45.5587 10.775 45.4261 10.7923C45.3982 10.7959 45.3697 10.7973 45.3416 10.7971C45.1427 10.7953 45.1168 10.7655 45.1517 10.5455Z" fill="#054B84"/>
<path fill-rule="evenodd" clip-rule="evenodd" d="M41.7257 10.415C41.7257 10.3177 41.7202 10.22 41.7275 10.1233C41.7332 10.0472 41.7026 10.0296 41.6364 10.0404C41.6117 10.0444 41.5858 10.0414 41.5615 10.0466C41.5195 10.0555 41.4985 10.0502 41.5 9.99829C41.5012 9.95537 41.5072 9.93915 41.5563 9.9401C41.7382 9.94363 41.9203 9.94377 42.1022 9.93969C42.156 9.93851 42.153 9.96333 42.1551 10.0016C42.1576 10.0484 42.1384 10.0497 42.0996 10.0473C41.9356 10.0374 41.9352 10.0389 41.9353 10.2009C41.9354 10.3703 41.9325 10.5399 41.9388 10.7092C41.9412 10.7723 41.9218 10.7802 41.866 10.7779C41.7235 10.7718 41.7237 10.7747 41.7253 10.6316C41.726 10.5594 41.7254 10.4872 41.7254 10.415C41.7255 10.415 41.7257 10.415 41.7257 10.415Z" fill="#024982"/>
<path fill-rule="evenodd" clip-rule="evenodd" d="M49.8985 10.3617C49.8985 10.2427 49.9028 10.1235 49.8966 10.0048C49.8936 9.94585 49.9137 9.94008 49.9643 9.94132C50.1235 9.94523 50.1192 9.94286 50.113 10.1036C50.1066 10.2726 50.1118 10.442 50.1077 10.6111C50.1062 10.6722 50.1315 10.687 50.1861 10.6817C50.2359 10.6769 50.2867 10.6816 50.3363 10.6758C50.3816 10.6705 50.3955 10.6824 50.3955 10.7298C50.3954 10.7747 50.3794 10.7823 50.3403 10.7794C50.212 10.7701 50.0833 10.7709 49.9553 10.7832C49.8988 10.7887 49.8963 10.7641 49.8975 10.7189C49.9007 10.5999 49.8985 10.4808 49.8985 10.3617Z" fill="#054B84"/>
<path fill-rule="evenodd" clip-rule="evenodd" d="M54.9148 10.6457C54.7154 10.6351 54.7101 10.5177 54.6341 10.4514C54.5881 10.4113 54.5642 10.3506 54.4725 10.3637C54.3615 10.3794 54.4248 10.4495 54.4049 10.4942C54.3828 10.5436 54.4618 10.6386 54.3355 10.6363C54.2206 10.6341 54.2728 10.5414 54.2673 10.4879C54.2589 10.4081 54.2651 10.3275 54.2651 10.2472C54.2652 9.99314 54.4067 9.92094 54.7469 10.0013C54.9036 10.0383 55.0041 10.207 54.8803 10.2707C54.6458 10.3914 54.8017 10.4733 54.8819 10.5728C54.8945 10.5883 54.8982 10.6078 54.9148 10.6457ZM54.548 10.3364C54.6617 10.3391 54.7793 10.3334 54.7787 10.2062C54.7783 10.0795 54.6597 10.0778 54.5557 10.0741C54.464 10.0708 54.4014 10.0772 54.4018 10.1935C54.4023 10.3052 54.434 10.3576 54.548 10.3364Z" fill="#054B84"/>
<path fill-rule="evenodd" clip-rule="evenodd" d="M20.4454 23.2897C17.9824 24.0969 15.6586 23.7232 14.3923 23.3644C14.3575 23.9175 14.3018 24.1492 14.2183 24.2389C14.1209 24.3584 13.3138 24.8517 12.8685 24.1492C12.6737 23.8129 12.5763 23.2075 12.5207 22.6544C9.66803 21.2643 8.34608 19.2165 8.30433 19.1417C8.23475 19.067 7.58769 18.3421 8.23475 17.4452C8.84007 16.638 10.8439 15.8234 12.6389 15.502C12.7085 13.8578 12.8755 12.5873 13.0912 12.0267C13.3291 11.405 13.6265 11.8687 13.9009 12.2966L13.901 12.2967C13.9234 12.3317 13.9457 12.3665 13.9679 12.4004C14.2044 12.7367 14.3505 14.1792 14.3644 15.3301C15.5333 15.2703 16.243 15.36 17.5441 15.6291C19.2557 15.943 20.3967 16.8847 20.3063 17.9459C20.2228 18.9923 19.3322 19.4258 18.9843 19.4556C18.6364 19.4855 18.0798 19.209 18.0798 19.209C17.6902 19.0147 18.045 18.8353 18.4973 18.6261C18.9982 18.3645 18.8869 18.1029 18.8869 18.1029C18.706 17.505 16.4865 17.1089 14.281 17.1089C14.281 18.4168 14.3297 20.5842 14.3644 21.8473C15.909 22.1612 17.064 22.0939 17.064 22.0939C17.064 22.0939 22.6997 21.922 22.8597 18.0581C23.0337 14.1866 17.224 10.4797 12.9451 9.31375C8.67309 8.11047 6.25182 8.96248 6.0431 9.07458C5.81349 9.19416 6.02222 9.23901 6.02222 9.23901C6.02222 9.23901 6.25182 9.27638 6.66928 9.42585C7.08674 9.57533 6.75278 9.79954 6.75278 9.79954C6.02222 10.0686 5.20818 9.91165 5.04815 9.55291C4.90501 9.2387 5.10145 8.94842 5.36857 8.55367C5.40008 8.50711 5.43258 8.4591 5.46561 8.40942C5.75783 7.92362 6.0918 7.93857 6.0918 7.93857C11.3796 5.95802 17.8363 9.50806 17.8363 9.50806C23.8755 12.7816 24.9053 16.6306 24.794 18.1253C24.6966 19.5976 24.1678 22.0864 20.4454 23.2972V23.2897ZM25.441 13.6934C25.9976 13.955 26.6516 14.0671 27.6118 13.7158V13.7382C29.1007 13.1926 30.5618 11.6082 30.5618 10.3377C30.5897 9.06711 29.2677 9.06711 29.2677 9.06711H29.226C28.9894 8.28984 27.6257 8.39447 27.6257 8.39447C24.8427 8.64111 23.9243 10.7188 23.799 11.2719C23.7016 11.7427 23.7434 12.4453 24.286 12.9684C24.1367 13.3938 24.2418 13.5979 24.3018 13.7144L24.3139 13.7382C24.3487 13.8877 24.5922 14.366 24.8705 14.3361C25.0514 14.3062 25.1975 14.1642 25.441 13.6934ZM40.2747 21.07C40.066 21.6156 39.4885 22.191 38.7927 21.8398C38.0831 21.481 36.9629 19.0296 36.9629 19.0296C36.9629 19.0296 36.5454 18.1178 36.4619 18.1477C36.4619 18.1477 36.3715 17.9684 36.3228 18.9699C36.3048 19.2264 36.2971 19.5457 36.2888 19.8835V19.8836C36.2652 20.8546 36.2379 21.9787 35.954 22.206C35.6061 22.5049 35.1887 22.3779 34.9521 22.0266C34.7573 21.6754 34.6738 20.8308 34.7851 19.3585C34.9104 17.8862 35.2235 16.3167 35.6201 15.8309C36.0375 15.3376 36.3715 15.6963 36.4967 15.8309C36.4967 15.8309 37.0325 16.354 37.937 17.9011L38.09 18.1851C38.09 18.1851 38.911 19.6574 38.9945 19.65C38.9945 19.65 39.0641 19.7247 39.1198 19.6649C39.2032 19.6425 39.1754 19.1642 39.1754 19.1642C39.1754 19.1642 39.0223 17.5723 38.257 14.8817C38.257 14.8817 38.1457 14.5379 38.2222 14.2091C38.2918 13.9101 38.591 14.0596 38.591 14.0596C38.591 14.0596 39.7459 14.6575 40.3095 16.6754C40.8661 18.6933 40.4904 20.5244 40.2817 21.07H40.2747ZM46.6201 16.6455C45.8061 16.8473 43.6561 16.9594 43.6561 16.9594L43.3918 17.8712C43.3918 17.8712 44.4563 17.774 45.2355 17.8563C45.2355 17.8563 45.486 17.8338 45.5138 18.1552C45.5277 18.4841 45.493 18.8279 45.493 18.8279C45.493 18.8279 45.4721 19.0296 45.2147 19.082C44.9155 19.1343 42.8978 19.2314 42.8978 19.2314L42.5707 20.4123C42.5707 20.4123 42.4525 20.6813 42.7238 20.6066C42.9743 20.5319 45.0894 20.0984 45.3677 20.1582C45.6599 20.2329 45.9939 20.6664 45.8965 21.055C45.7852 21.5259 43.6701 22.9758 42.3899 22.8786C42.3899 22.8786 41.715 22.9235 41.1514 21.9444C40.6087 21.0102 41.3392 19.2539 41.3392 19.2539C41.3392 19.2539 41.0122 18.4317 41.2558 18.1328C41.2558 18.1328 41.3949 18.0057 41.8124 17.9684L42.3342 16.8174C42.3342 16.8174 41.7428 16.8548 41.3949 16.3914C41.0749 15.943 41.047 15.7487 41.2975 15.6291C41.5619 15.4796 44.011 15.0088 45.6947 15.0685C45.6947 15.0685 46.2861 14.9938 46.808 16.0925C46.808 16.0925 47.0445 16.5409 46.6271 16.6455H46.6201ZM34.5607 15.996C34.5772 15.9596 34.5934 15.9241 34.6112 15.8907V15.8832C34.6947 15.6814 34.6251 15.5469 34.6251 15.5469C34.1172 14.949 31.4037 15.0685 31.4037 15.0685C30.4157 15.1582 28.1406 15.5917 27.8205 16.7128C27.5144 17.774 27.7927 18.1627 27.7927 18.1627C28.0438 18.6315 29.5227 18.6754 30.265 18.6974C30.3866 18.701 30.4884 18.7041 30.5618 18.7083C31.1115 18.7307 32.5309 18.9175 33.0179 19.2165C33.5119 19.5379 33.1849 19.934 33.1849 19.934C32.3708 20.913 29.6365 21.07 28.9407 20.6365C28.6624 20.4347 28.5928 20.2404 28.8711 19.9115C29.1564 19.5603 30.0748 20.076 29.9704 20.0386C29.8591 19.9713 30.4157 20.36 31.1672 20.3824C31.9464 20.3973 32.4822 20.0984 32.5239 19.7994C32.5517 19.5229 31.856 19.2539 31.856 19.2539C29.5391 18.5588 28.6346 19.1567 28.6346 19.1567C27.3752 20.0087 28.3076 21.1298 28.3076 21.1298C30.3462 23.4616 33.5049 21.9369 33.8737 21.6081C34.2285 21.2568 34.3886 20.913 34.4025 19.9414C34.4164 18.9923 34.0337 18.5737 34.0337 18.5737C33.3658 17.6918 31.5429 17.6769 31.0002 17.6769C30.4992 17.647 29.4417 17.4975 29.1773 17.4377C28.9268 17.3854 29.0799 17.1761 29.0799 17.1761C29.3095 16.8249 33.9711 16.4736 33.9711 16.4736C34.3745 16.4045 34.4733 16.1877 34.5607 15.996ZM26.916 22.4601C26.589 22.7217 25.8933 22.6096 25.6915 22.3106C25.4967 22.049 25.4271 21.0177 25.4619 19.3959C25.4664 19.2426 25.4707 19.0861 25.475 18.9281C25.5172 17.3756 25.5636 15.6734 25.8793 15.375C26.2272 15.0536 26.436 15.3376 26.5751 15.5543L26.6087 15.6079C26.7418 15.8191 26.8974 16.0658 26.923 16.5409C26.9647 17.064 27.083 19.7546 27.083 19.7546C27.083 19.7546 27.2361 22.206 26.923 22.4601H26.916ZM28.8503 10.0985C27.9736 10.248 26.6238 11.5036 25.9768 12.5424C26.9717 12.7367 28.7111 12.662 29.4904 10.9729C29.4904 10.9729 29.8591 9.91165 28.8503 10.0985ZM24.8427 11.8922C24.7105 11.6979 24.7244 11.4064 25.0027 10.9206C25.3854 10.2779 25.9489 9.97891 26.6169 9.90417C25.7472 10.5469 25.1697 11.369 24.8427 11.8922ZM48.7074 22.4078C48.0673 24.0969 47.5246 25.8083 47.2115 28.3719C47.2115 28.3719 47.1419 28.8726 46.7593 28.7082C46.3766 28.5587 45.7504 27.8861 45.6112 26.9369C45.4721 25.6962 45.987 23.6036 47.0376 21.197C46.7314 20.6739 46.5157 19.8966 46.6897 18.8054C46.6897 18.8054 46.968 16.7875 48.8465 14.9639C48.8465 14.9639 49.0692 14.7621 49.1944 14.8294C49.3475 14.9041 49.2849 15.5469 49.1596 15.8757C49.0483 16.1896 48.2134 17.7442 48.2134 17.7442C48.2134 17.7442 47.6916 18.8054 47.8377 19.635C48.8257 18.0057 51.073 14.7023 52.4645 15.7487C53.3481 16.4213 53.3481 18.5887 52.6872 19.8443C52.1653 20.8383 50.6903 22.8936 48.7213 22.4153L48.7074 22.4078ZM49.4588 20.6066C50.1824 19.067 51.1008 17.931 51.6157 17.3331C52.2001 16.6156 52.2836 17.2733 52.2836 17.2733C52.4158 18.5289 51.567 19.4781 51.1982 19.8293C50.9686 20.061 50.2242 20.5169 49.4588 20.6066ZM8.64526 18.7232C8.64526 18.7232 8.2278 18.2449 8.82615 17.9459C9.38277 17.6769 10.5656 17.3181 12.6111 17.1687C12.6111 17.2567 12.6112 17.3426 12.6113 17.4275C12.6123 18.4307 12.6131 19.2717 12.472 21.339C11.15 20.8308 9.77239 20.0162 8.64526 18.7232Z" fill="black"/>
</svg>
