<svg width="60" height="36" viewBox="0 0 60 36" fill="none" xmlns="http://www.w3.org/2000/svg">
<path fill-rule="evenodd" clip-rule="evenodd" d="M8.27745 10.8191H23.4945C24.5055 10.8191 25.3328 11.6464 25.3328 12.6574V23.3094C25.3328 24.3204 24.5055 25.1477 23.4945 25.1477H7.8383C6.82723 25.1477 6 24.3204 6 23.3094V10.1553C6 9.67532 6.3983 9.34851 6.86809 9.28723L20.9004 7.5C21.3804 7.5 21.7685 7.88809 21.7685 8.36809V9.85915H7.39915C7.39915 10.4821 7.58298 10.8294 8.27745 10.8294V10.8191ZM16.8153 22.4821C15.5387 22.7272 13.8945 22.2983 12.9957 21.3383C12.5872 20.9094 13.2409 20.2455 13.6494 20.6847C14.2519 21.3281 15.3243 21.6345 16.2026 21.614C17.3157 21.5936 18.3166 20.5723 17.6732 19.4387C16.7949 17.866 14.6298 18.3051 13.5268 17.0796C12.6281 16.0889 13.057 14.5162 14.1089 13.8217C15.2119 13.0966 17.1115 13.1272 18.0102 14.1587C18.3983 14.6081 17.7447 15.2617 17.3566 14.8123C16.6213 13.9749 14.8953 14.0872 14.2417 14.9553C13.3021 16.1911 14.7115 16.8549 15.6919 17.1511C17.04 17.5596 18.5311 18.3051 18.7762 19.8472C18.9702 21.0932 18.0102 22.2472 16.8153 22.4821Z" fill="#EE4E2C"/>
<path fill-rule="evenodd" clip-rule="evenodd" d="M16.8051 22.4923C15.5285 22.7374 13.8843 22.3085 12.9855 21.3485C12.577 20.9196 13.2306 20.2557 13.6392 20.6949C14.2417 21.3383 15.314 21.6447 16.1923 21.6243C17.3055 21.6038 18.3064 20.5826 17.663 19.4489C16.7847 17.8762 14.6196 18.3153 13.5166 17.0898C12.6179 16.0991 13.0468 14.5264 14.0987 13.8319C15.2017 13.1068 17.1013 13.1374 18 14.1689C18.3881 14.6183 17.7345 15.2719 17.3464 14.8226C16.6111 13.9851 14.8851 14.0974 14.2315 14.9655C13.2919 16.2013 14.7013 16.8651 15.6817 17.1613C17.0298 17.5698 18.5209 18.3153 18.7762 19.8574C18.9702 21.1034 18.0102 22.2574 16.8153 22.4923H16.8051Z" fill="#FEFEFE"/>
<path fill-rule="evenodd" clip-rule="evenodd" d="M28.9787 8.12298C29.714 7.65319 30.9804 7.67362 31.583 8.33745C31.8383 8.6234 31.4094 9.04213 31.1438 8.75617C30.6536 8.22511 29.4996 8.2966 29.0604 8.84809C28.4374 9.64468 29.377 10.0634 30.0306 10.2574C30.9294 10.523 31.9302 11.003 32.0936 11.9936C32.2264 12.8004 31.583 13.546 30.7864 13.6889C29.9285 13.8421 28.8255 13.5766 28.2332 12.9536C27.9677 12.6779 28.3966 12.2591 28.6723 12.5349C29.0809 12.9536 29.7957 13.1477 30.3779 13.1374C31.1132 13.117 31.777 12.4634 31.3583 11.7383C31.0403 11.186 30.4663 11.0207 29.8894 10.8546C29.4102 10.7166 28.9289 10.578 28.5906 10.2166C27.9881 9.57319 28.274 8.57234 28.9787 8.12298ZM35.9132 11.3604V13.4234C35.9132 13.8115 35.3004 13.8115 35.3004 13.4234V11.3911C35.28 10.9928 34.9328 10.7987 34.9226 10.7987C34.4834 10.6047 33.6868 10.6966 33.217 11.2991V13.4336C33.217 13.8217 32.6043 13.8217 32.6043 13.4336V8.10255C32.6043 7.71447 33.217 7.71447 33.217 8.10255V10.5026C33.9728 10.0021 34.9328 10.0532 35.3821 10.3596C35.3821 10.3596 35.9234 10.6557 35.9132 11.3604ZM41.6426 10.7579C41.9796 10.4004 42.4698 10.1655 43.0111 10.1655V10.1553C44.0221 10.1553 44.8391 10.9519 44.8391 11.9323C44.8391 12.9128 44.0221 13.7094 43.0111 13.7094C42.4698 13.7094 41.9796 13.4847 41.6426 13.117V15.3536C41.6426 15.7417 41.0298 15.7417 41.0298 15.3536V10.3289C41.0298 9.94085 41.6426 9.94085 41.6426 10.3289V10.7579ZM41.8366 11.9426C41.8366 12.5655 42.3677 13.0762 43.0111 13.0762V13.066C43.6545 13.066 44.1753 12.5553 44.1753 11.9323C44.1753 11.7791 44.1345 11.626 44.0732 11.483C43.8894 11.0847 43.4809 10.8089 43.0009 10.8089C42.9396 10.8089 42.8885 10.8089 42.8272 10.8191H42.817C42.2655 10.9111 41.8366 11.3809 41.8366 11.9426ZM38.4664 13.7196C37.4553 13.7196 36.6383 12.923 36.6383 11.9426C36.6383 10.9621 37.4553 10.1655 38.4664 10.1655C39.4774 10.1655 40.2945 10.9621 40.2945 11.9426C40.2945 12.923 39.4774 13.7196 38.4664 13.7196ZM37.2919 11.9426C37.2919 11.3196 37.823 10.8089 38.4664 10.8089C39.12 10.8089 39.6409 11.3196 39.6409 11.9426C39.6409 12.5655 39.1098 13.0762 38.4664 13.0762C37.8128 13.0762 37.2919 12.5655 37.2919 11.9426ZM51.8553 10.1962C51.0894 10.0532 50.1906 10.4515 49.8638 11.146C49.5268 11.8711 49.6698 12.8719 50.3336 13.3723C51.0587 13.9238 52.1923 13.7502 52.9379 13.3417C53.2851 13.1579 52.9787 12.637 52.6213 12.8209C52.1515 13.0762 51.5285 13.1987 51.0077 13.0353C50.6094 12.9026 50.3847 12.5757 50.3234 12.2081H52.8868C53.0502 12.2081 53.1932 12.0753 53.1932 11.9119C53.183 11.0949 52.7438 10.3596 51.8553 10.1962ZM50.3643 11.5545C50.354 11.5749 50.3438 11.5953 50.3438 11.6157H50.354H52.5498C52.4477 11.146 52.1106 10.7477 51.5285 10.7681C51.0179 10.7885 50.5072 11.0643 50.3643 11.5545ZM49.0877 11.9221C49.0774 11.1051 48.6383 10.3698 47.7498 10.2064C46.9838 10.0634 46.0851 10.4617 45.7583 11.1562C45.4213 11.8813 45.5643 12.8821 46.2281 13.3826C46.9532 13.934 48.0868 13.7604 48.8323 13.3519C49.1796 13.1681 48.8732 12.6472 48.5157 12.8311C48.046 13.0864 47.423 13.2089 46.9021 13.0455C46.5038 12.9128 46.2894 12.586 46.2179 12.2183H48.7813C48.9447 12.2183 49.0877 12.0855 49.0877 11.9221ZM46.2587 11.5647C46.2485 11.5851 46.2383 11.6055 46.2383 11.626H46.2485H48.4443C48.3421 11.1562 48.0051 10.7579 47.423 10.7783C46.9123 10.7987 46.4017 11.0745 46.2587 11.5647Z" fill="#EE4E2C"/>
<path fill-rule="evenodd" clip-rule="evenodd" d="M47.6579 28.2421H45.697L47.7906 24.2796L44.3489 17.7843H46.4732L48.8528 22.2779L51.2323 17.7843H53.1932L47.6579 28.2421ZM28.1515 25.1477H29.7957V22.1451H32.0119C34.3098 22.1451 36.1685 20.5315 36.1685 18.5502C36.1685 16.5689 34.3098 14.9553 32.0119 14.9553H28.1617C28.1617 18.3562 28.1617 21.7468 28.1617 25.1477H28.1515ZM29.7957 20.5111V16.5996H32.0119C33.2579 16.5996 34.2689 17.4779 34.2689 18.5502C34.2689 19.6328 33.2579 20.5009 32.0119 20.5009H29.7957V20.5111ZM42.3064 17.8557H43.7464V25.0864H42.3064V24.2694C41.663 24.8209 40.8357 25.1477 39.9268 25.1477C37.8945 25.1477 36.2502 23.5034 36.2502 21.4711C36.2502 19.4387 37.8945 17.7945 39.9268 17.7945C40.8357 17.7945 41.6732 18.1213 42.3064 18.6728V17.8557ZM39.9268 19.3468C41.1013 19.3468 42.0613 20.2966 42.0613 21.4813C42.0613 22.6557 41.1115 23.6157 39.9268 23.6157C38.7523 23.6157 37.7923 22.666 37.7923 21.4813C37.7923 20.3068 38.7421 19.3468 39.9268 19.3468Z" fill="#EE4E2C"/>
</svg>
