<svg width="60" height="36" viewBox="0 0 60 36" fill="none" xmlns="http://www.w3.org/2000/svg">
<g id="logo / gcash / bri">
<g id="BANK_BRI_logo">
<path id="path206" fill-rule="evenodd" clip-rule="evenodd" d="M17.2791 14.5844H20.279C21.494 14.5844 22.3997 15.1167 22.3997 16.2384C22.3997 17.0607 21.9794 17.5185 21.2504 17.7615V17.7803C22.1197 17.9581 22.5681 18.4253 22.5681 19.2195C22.5681 20.7802 21.1941 21.1071 20.0261 21.1071H17.2791V14.5844ZM19.0171 17.164H19.5031C20.073 17.164 20.6623 17.0237 20.6623 16.472C20.6623 15.8744 20.1012 15.8181 19.5213 15.8181H19.0171V17.164ZM19.5312 19.8739H19.0171V18.3414H19.5495C20.1481 18.3414 20.8302 18.4066 20.8302 19.1168C20.8302 19.78 20.1669 19.8739 19.5312 19.8739Z" fill="#00529C"/>
<path id="path210" fill-rule="evenodd" clip-rule="evenodd" d="M26.9801 14.5844H24.8495L22.3732 21.1071H24.1393L24.6535 19.7149H27.1016L27.5876 21.1071H29.494L26.9801 14.5844ZM25.896 15.9302H25.9148L26.6908 18.4817H25.055L25.896 15.9302Z" fill="#00529C"/>
<path id="path214" d="M29.7359 14.5844H31.9505L34.1562 19.014H34.1744L34.1468 14.5844H35.7357V21.1071H33.5763L31.2966 16.6493H31.2784L31.3336 21.1071H29.7359V14.5844Z" fill="#00529C"/>
<path id="path218" d="M36.3254 14.5844H38.0633V17.2479H38.0821L40.0443 14.5844H42.1374L39.7268 17.6212L42.3246 21.1071H40.1095L38.0821 18.1448H38.0633V21.1071H36.3254V14.5844Z" fill="#00529C"/>
<path id="path230" fill-rule="evenodd" clip-rule="evenodd" d="M44.48 14.5844H47.4799C48.6944 14.5844 49.6012 15.1167 49.6012 16.2384C49.6012 17.0607 49.1809 17.5185 48.4519 17.7615V17.7803C49.3212 17.9581 49.7691 18.4253 49.7691 19.2195C49.7691 20.7802 48.3956 21.1071 47.2275 21.1071H44.48V14.5844ZM46.218 17.164H46.704C47.2745 17.164 47.8626 17.0237 47.8626 16.472C47.8626 15.8744 47.3027 15.8181 46.7228 15.8181H46.218V17.164ZM46.7322 19.8739H46.218V18.3414H46.7509C47.349 18.3414 48.0311 18.4066 48.0311 19.1168C48.0311 19.78 47.3673 19.8739 46.7322 19.8739Z" fill="#00529C"/>
<path id="path234" fill-rule="evenodd" clip-rule="evenodd" d="M53.2573 14.5844H50.1547V21.1071H51.8926V18.5275H52.2571C52.9016 18.5275 53.1264 18.8086 53.4815 19.9302L53.8554 21.1071H55.6679L55.0328 19.3316C54.961 19.1576 54.9032 18.998 54.8508 18.8531C54.6638 18.337 54.5451 18.0093 54.1078 17.8924V17.8736C54.9488 17.6776 55.3597 17.0982 55.3597 16.2295C55.3597 15.1079 54.4159 14.5844 53.2573 14.5844ZM52.3505 17.2943H51.8926V15.8181H52.3505C53.0143 15.8181 53.6218 15.9302 53.6218 16.5372C53.6218 17.2755 52.9116 17.2943 52.3505 17.2943Z" fill="#00529C"/>
<path id="path236" d="M56.147 14.5156H57.8849V21.0384H56.147V14.5156Z" fill="#00529C"/>
<path id="path248" fill-rule="evenodd" clip-rule="evenodd" d="M3.99974 11H13.096C14.2006 11 15.0952 11.9173 15.0952 13.0489L15.0914 22.0574C15.0914 23.189 14.1956 24.1057 13.0911 24.1057H3.96881C2.87865 24.0891 2 23.1779 2 22.0574V13.0704V13.0489C2 11.9173 2.89522 11 3.99974 11ZM4.58459 23.0614L5.08052 23.0559C6.18504 23.0559 7.0797 22.2413 7.0797 21.2362C7.0797 20.775 6.89193 20.3542 6.58101 20.0333L4.16818 17.5763L6.74227 14.9641C7.03663 14.6582 7.21832 14.2373 7.21832 13.7734C7.21832 12.8363 6.47719 12.041 5.56264 12.041H4.55366C3.96771 12.041 3.51982 12.5148 3.49718 13.1041L3.49387 13.5525V21.8718L3.49663 21.9585C3.49663 22.5677 3.98372 23.0614 4.58459 23.0614ZM12.4979 23.0476L7.99977 23.0459C7.99977 23.0459 8.51945 21.9221 8.51945 21.2262C8.51945 20.3774 8.23614 19.6197 7.79212 19.1182L6.25352 17.5498L7.8236 15.9273C8.29137 15.4882 8.60174 14.7084 8.60174 13.8198C8.60174 13.1163 8.40734 12.4933 8.09421 12.041H9.18382C10.0984 12.041 10.8401 12.8363 10.8401 13.7734C10.8401 14.2373 10.6584 14.6582 10.364 14.9641L7.83906 17.5493L13.0833 22.8968C12.9171 23.0012 12.7078 23.0476 12.4979 23.0476ZM9.83825 17.5476L13.5964 21.3781L13.5992 13.1477C13.5992 12.5386 13.1121 12.0449 12.5112 12.0449L11.7104 12.0206C12.0263 12.4729 12.2235 13.1118 12.2235 13.8198C12.2235 14.5869 11.9921 15.2728 11.6281 15.7285L9.83825 17.5476Z" fill="#00529C"/>
</g>
<g id="Group">
<circle id="Oval" cx="50.375" cy="26.375" r="8.625" fill="#009E3D" stroke="white" stroke-width="1.5"/>
<g id="Icon System/G/G-Cash/Flat">
<rect id="Rectangle" x="45.1667" y="22.7292" width="10.4167" height="7.29167" rx="1.85033" fill="white"/>
<ellipse id="Oval_2" cx="50.375" cy="26.375" rx="2.19298" ry="2.24359" fill="#00AB4E"/>
</g>
</g>
</g>
</svg>
