<svg width="24" height="24" viewBox="0 0 24 24" fill="none" xmlns="http://www.w3.org/2000/svg">
<path d="M12 20C11.4477 20 11 19.5523 11 19V7.83L6.12 12.71C5.72829 13.1017 5.09284 13.1006 4.70251 12.7075C4.31412 12.3164 4.31524 11.6848 4.705 11.295L11.9208 4.07921C11.9645 4.03546 12.0355 4.03546 12.0792 4.07921L19.2947 11.2947C19.6842 11.6842 19.6842 12.3158 19.2947 12.7053C18.9054 13.0946 18.2743 13.0949 17.8847 12.7059L13 7.83L13 19C13 19.5523 12.5523 20 12 20Z" fill="black"/>
<mask id="mask0_0_5140" style="mask-type:alpha" maskUnits="userSpaceOnUse" x="4" y="4" width="16" height="16">
<path d="M12 20C11.4477 20 11 19.5523 11 19V7.83L6.12 12.71C5.72829 13.1017 5.09284 13.1006 4.70251 12.7075C4.31412 12.3164 4.31524 11.6848 4.705 11.295L11.9208 4.07921C11.9645 4.03546 12.0355 4.03546 12.0792 4.07921L19.2947 11.2947C19.6842 11.6842 19.6842 12.3158 19.2947 12.7053C18.9054 13.0946 18.2743 13.0949 17.8847 12.7059L13 7.83L13 19C13 19.5523 12.5523 20 12 20Z" fill="white"/>
</mask>
<g mask="url(#mask0_0_5140)">
<rect width="24" height="24" fill="#58585B"/>
</g>
</svg>
