<svg width="4608" height="304" viewBox="0 0 4608 304" fill="none" xmlns="http://www.w3.org/2000/svg">
<g clip-path="url(#clip0_5598_7809)">
<rect width="4608" height="304" fill="#004D43"/>
<g opacity="0.2" clip-path="url(#clip1_5598_7809)">
<g opacity="0.7">
<path d="M3930.09 548.47L6031.34 -1552.78L5402.84 -2181.28L3301.59 -80.0232L3930.09 548.47Z" fill="#004D43"/>
<path d="M5333.67 2213.07L3517.1 397.173L4999.17 -1084.9L6815.06 731.68L5333.67 2213.07Z" fill="url(#paint0_linear_5598_7809)"/>
<path d="M1060.21 562.085L-609.009 -1107.14L-985.043 -731.105L684.181 938.119L1060.21 562.085Z" fill="#004D43"/>
<path d="M3446.37 468.832L3093.5 115.969L2872.9 336.569L3225.77 689.433L3446.37 468.832Z" fill="#00896D"/>
<path d="M1219.59 68.3543L579.997 -571.241L205.412 -196.655L845.007 442.94L1219.59 68.3543Z" fill="#00896D"/>
<path d="M483.328 1014.3L-346.795 183.499L-342.016 -523.744L1196.03 1014.3H483.328Z" fill="url(#paint1_linear_5598_7809)"/>
<path d="M5210.15 2257.2C5597.51 1869.84 5597.51 1241.8 5210.15 854.438C4822.78 467.075 4194.74 467.075 3807.38 854.438C3420.02 1241.8 3420.02 1869.84 3807.38 2257.2C4194.74 2644.57 4822.78 2644.57 5210.15 2257.2Z" fill="#004D43"/>
<path d="M-215.723 -1611.23L3622.23 2226.72" stroke="#99B7B3" stroke-opacity="0.5" stroke-width="6.82667" stroke-miterlimit="10"/>
<path d="M-955.733 -245.216L262.144 972.662" stroke="#99B7B3" stroke-opacity="0.5" stroke-width="6.82667" stroke-miterlimit="10"/>
<path d="M-404.139 -1033.7L813.739 183.499" stroke="#99B7B3" stroke-opacity="0.5" stroke-width="6.82667" stroke-miterlimit="10"/>
<path d="M6815.76 1084.71L4309.03 -1422.02L2264.25 622.755L4770.99 3129.49L6815.76 1084.71Z" stroke="#99B7B3" stroke-opacity="0.5" stroke-width="6.82667" stroke-miterlimit="10"/>
<path d="M2185.9 -110.048L3403.78 1107.83" stroke="#99B7B3" stroke-opacity="0.5" stroke-width="6.82667" stroke-miterlimit="10"/>
</g>
</g>
</g>
<defs>
<linearGradient id="paint0_linear_5598_7809" x1="3517.43" y1="564.299" x2="6815.16" y2="564.299" gradientUnits="userSpaceOnUse">
<stop stop-color="#00896D"/>
<stop offset="1" stop-color="#004436"/>
</linearGradient>
<linearGradient id="paint1_linear_5598_7809" x1="1017.65" y1="1192.36" x2="-228.001" y2="-54" gradientUnits="userSpaceOnUse">
<stop stop-color="#00AC89"/>
<stop offset="1" stop-color="#004436"/>
</linearGradient>
<clipPath id="clip0_5598_7809">
<rect width="4608" height="304" fill="white"/>
</clipPath>
<clipPath id="clip1_5598_7809">
<rect width="5120" height="3413.33" fill="white" transform="translate(0 -1644)"/>
</clipPath>
</defs>
</svg>
