<svg width="20" height="20" viewBox="0 0 20 20" fill="none" xmlns="http://www.w3.org/2000/svg">
<path fill-rule="evenodd" clip-rule="evenodd" d="M9.99984 1.66666C14.6022 1.66666 18.3332 5.39762 18.3332 10C18.3332 14.6024 14.6022 18.3333 9.99984 18.3333C5.39746 18.3333 1.6665 14.6024 1.6665 10C1.6665 5.39762 5.39746 1.66666 9.99984 1.66666ZM9.99984 3.83333C6.59408 3.83333 3.83317 6.59424 3.83317 10C3.83317 13.4058 6.59408 16.1667 9.99984 16.1667C13.4056 16.1667 16.1665 13.4058 16.1665 10C16.1665 6.59424 13.4056 3.83333 9.99984 3.83333ZM10.2082 8.75C10.7475 8.75 11.1911 9.15989 11.2445 9.68516L11.2498 9.79166V13.5417C11.2498 14.117 10.7835 14.5833 10.2082 14.5833C9.66883 14.5833 9.22523 14.1734 9.17188 13.6482L9.1665 13.5417V10.8333H8.95817C8.41883 10.8333 7.97523 10.4234 7.92188 9.89817L7.9165 9.79166C7.9165 9.25232 8.3264 8.80872 8.85167 8.75538L8.95817 8.75H10.2082ZM9.9165 8.16666C10.5608 8.16666 11.0832 7.64433 11.0832 7C11.0832 6.35567 10.5608 5.83333 9.9165 5.83333C9.27217 5.83333 8.74984 6.35567 8.74984 7C8.74984 7.64433 9.27217 8.16666 9.9165 8.16666Z" fill="#252528"/>
</svg>
