<svg width="48" height="48" viewBox="0 0 48 48" fill="none" xmlns="http://www.w3.org/2000/svg">
<rect x="13" y="11" width="22" height="32" rx="3" fill="#CC9D3F"/>
<mask id="mask0_0_6725" style="mask-type:alpha" maskUnits="userSpaceOnUse" x="13" y="11" width="22" height="32">
<rect x="13" y="11" width="22" height="32" rx="3" fill="white"/>
</mask>
<g mask="url(#mask0_0_6725)">
<rect x="10" y="10" width="22" height="32" rx="3" fill="#FFC54F"/>
<path fill-rule="evenodd" clip-rule="evenodd" d="M21.815 16.2305L18.4804 18.7447C18.0723 19.052 17.9009 19.5989 18.0572 20.0974L19.3304 24.1652C19.4866 24.6636 19.9343 25 20.4392 25H24.5608C25.0657 25 25.5134 24.6636 25.6696 24.1652L26.9428 20.0974C27.0991 19.5989 26.9277 19.052 26.5196 18.7447L23.185 16.2305C22.7769 15.9232 22.2231 15.9232 21.815 16.2305Z" fill="#CC9D3F"/>
<rect x="17.5" y="35" width="10" height="2" rx="1" fill="#CC9D3F"/>
<rect x="17.5" y="30" width="10" height="2" rx="1" fill="#CC9D3F"/>
</g>
<path d="M38.1 13H41.4" stroke="#00AB4E" stroke-width="1.8" stroke-linecap="round"/>
<path d="M33 7.89961V4.59961" stroke="#00AB4E" stroke-width="1.8" stroke-linecap="round"/>
<path d="M36.7001 9.49986L38.9335 7.06641" stroke="#00AB4E" stroke-width="1.8" stroke-linecap="round"/>
</svg>
