<svg width="24" height="24" viewBox="0 0 24 24" fill="none" xmlns="http://www.w3.org/2000/svg">
<path fill-rule="evenodd" clip-rule="evenodd" d="M18.092 2.137C16.638 2.061 14.651 2 12 2C9.349 2 7.362 2.061 5.908 2.137C3.87 2.245 2.245 3.87 2.137 5.908C2.061 7.362 2 9.349 2 12C2 14.651 2.061 16.638 2.137 18.092C2.245 20.13 3.87 21.755 5.908 21.863C7.362 21.939 9.349 22 12 22C14.651 22 16.638 21.939 18.092 21.863C20.13 21.755 21.755 20.13 21.863 18.092C21.939 16.638 22 14.651 22 12C22 9.349 21.939 7.362 21.863 5.908C21.755 3.87 20.13 2.245 18.092 2.137Z" fill="#009E3D"/>
<mask id="mask0_0_5340" style="mask-type:alpha" maskUnits="userSpaceOnUse" x="2" y="2" width="20" height="20">
<path fill-rule="evenodd" clip-rule="evenodd" d="M18.092 2.137C16.638 2.061 14.651 2 12 2C9.349 2 7.362 2.061 5.908 2.137C3.87 2.245 2.245 3.87 2.137 5.908C2.061 7.362 2 9.349 2 12C2 14.651 2.061 16.638 2.137 18.092C2.245 20.13 3.87 21.755 5.908 21.863C7.362 21.939 9.349 22 12 22C14.651 22 16.638 21.939 18.092 21.863C20.13 21.755 21.755 20.13 21.863 18.092C21.939 16.638 22 14.651 22 12C22 9.349 21.939 7.362 21.863 5.908C21.755 3.87 20.13 2.245 18.092 2.137Z" fill="white"/>
</mask>
<g mask="url(#mask0_0_5340)">
<rect width="24" height="24" fill="#00AB4E"/>
</g>
<path fill-rule="evenodd" clip-rule="evenodd" d="M17.6146 7.74183L17.522 7.65138C17.0127 7.19911 16.2616 7.22926 15.7845 7.74183L10.4335 13.4902L8.2155 11.1075C7.70854 10.5629 6.89237 10.5629 6.3854 11.1075C5.87153 11.6596 5.87153 12.5596 6.3854 13.1116L9.17032 16.1033C9.86954 16.8545 10.9974 16.8545 11.6966 16.1033L17.6146 9.74592C18.0964 9.22839 18.1265 8.40501 17.7049 7.84925L17.6146 7.74183Z" fill="#009E3D"/>
<mask id="mask1_0_5340" style="mask-type:alpha" maskUnits="userSpaceOnUse" x="6" y="7" width="12" height="10">
<path fill-rule="evenodd" clip-rule="evenodd" d="M17.6146 7.74183L17.522 7.65138C17.0127 7.19911 16.2616 7.22926 15.7845 7.74183L10.4335 13.4902L8.2155 11.1075C7.70854 10.5629 6.89237 10.5629 6.3854 11.1075C5.87153 11.6596 5.87153 12.5596 6.3854 13.1116L9.17032 16.1033C9.86954 16.8545 10.9974 16.8545 11.6966 16.1033L17.6146 9.74592C18.0964 9.22839 18.1265 8.40501 17.7049 7.84925L17.6146 7.74183Z" fill="white"/>
</mask>
<g mask="url(#mask1_0_5340)">
<rect width="16" height="16" transform="translate(4 4)" fill="white"/>
<rect x="4" y="4" width="16" height="16" fill="white"/>
</g>
</svg>
