<svg width="48" height="48" viewBox="0 0 48 48" fill="none" xmlns="http://www.w3.org/2000/svg">
<g id="icon product/Sub-Menu/Pembayaran &#38; Topup/Telepon">
<g id="Group 29">
<g id="Group 2">
<path id="Rectangle" fill-rule="evenodd" clip-rule="evenodd" d="M6 16.4484C6 15.3231 6.62715 14.2955 7.6585 13.8453C10.6674 12.5322 17.3337 10 24 10C30.6663 10 37.3326 12.5322 40.3415 13.8453C41.3728 14.2955 42 15.3231 42 16.4484V19C42 20.6569 40.6569 22 39 22H9C7.34315 22 6 20.6569 6 19V16.4484Z" fill="#98AC26"/>
<mask id="mask0_0_10997" style="mask-type:alpha" maskUnits="userSpaceOnUse" x="6" y="10" width="36" height="12">
<path id="Rectangle_2" fill-rule="evenodd" clip-rule="evenodd" d="M6 16.4484C6 15.3231 6.62715 14.2955 7.6585 13.8453C10.6674 12.5322 17.3337 10 24 10C30.6663 10 37.3326 12.5322 40.3415 13.8453C41.3728 14.2955 42 15.3231 42 16.4484V19C42 20.6569 40.6569 22 39 22H9C7.34315 22 6 20.6569 6 19V16.4484Z" fill="white"/>
</mask>
<g mask="url(#mask0_0_10997)">
<path id="Rectangle_3" fill-rule="evenodd" clip-rule="evenodd" d="M7 13.9028C7 12.8784 7.57846 11.9446 8.52133 11.544C11.3412 10.3459 17.6706 8 24 8C30.3294 8 36.6588 10.3459 39.4787 11.544C40.4215 11.9446 41 12.8784 41 13.9028V16.3C41 17.7912 39.7912 19 38.3 19H9.7C8.20883 19 7 17.7912 7 16.3V13.9028Z" fill="#BFD730"/>
</g>
</g>
<path id="Rectangle_4" d="M13 35C13 34.4477 13.4477 34 14 34H17C17.5523 34 18 34.4477 18 35V37C18 38.1046 17.1046 39 16 39H15C13.8954 39 13 38.1046 13 37V35Z" fill="#98AC26"/>
<path id="Rectangle_5" d="M30 35C30 34.4477 30.4477 34 31 34H34C34.5523 34 35 34.4477 35 35V37C35 38.1046 34.1046 39 33 39H32C30.8954 39 30 38.1046 30 37V35Z" fill="#98AC26"/>
<g id="Group">
<path id="Rectangle_6" fill-rule="evenodd" clip-rule="evenodd" d="M15.1318 16.4884C15.6694 15.5667 16.6561 15 17.7231 15H30.2767C31.3438 15 32.3306 15.5669 32.8682 16.4887L38.5915 26.3025C38.859 26.7612 39 27.2828 39 27.8138V33C39 34.6569 37.6569 36 36 36H12C10.3431 36 9 34.6569 9 33V27.811C9 27.2799 9.14103 26.7582 9.40866 26.2994L15.1318 16.4884Z" fill="#00883E"/>
<mask id="mask1_0_10997" style="mask-type:alpha" maskUnits="userSpaceOnUse" x="9" y="15" width="30" height="21">
<path id="Rectangle_7" fill-rule="evenodd" clip-rule="evenodd" d="M15.1318 16.4884C15.6694 15.5667 16.6561 15 17.7231 15H30.2767C31.3438 15 32.3306 15.5669 32.8682 16.4887L38.5915 26.3025C38.859 26.7612 39 27.2828 39 27.8138V33C39 34.6569 37.6569 36 36 36H12C10.3431 36 9 34.6569 9 33V27.811C9 27.2799 9.14103 26.7582 9.40866 26.2994L15.1318 16.4884Z" fill="white"/>
</mask>
<g mask="url(#mask1_0_10997)">
<path id="Rectangle_8" fill-rule="evenodd" clip-rule="evenodd" d="M16.4606 15.3536C16.9164 14.5191 17.7915 14 18.7424 14L29.2575 14C30.2084 14 31.0835 14.5192 31.5394 15.3538L36.6819 24.77C36.8906 25.1522 37 25.5807 37 26.0162V30.4C37 31.8359 35.8359 33 34.4 33H13.6C12.1641 33 11 31.8359 11 30.4V26.0138C11 25.5783 11.1094 25.1497 11.3182 24.7674L16.4606 15.3536Z" fill="#00AB4E"/>
<path id="Combined Shape" fill-rule="evenodd" clip-rule="evenodd" d="M18 24.5C19.104 24.5 20 23.604 20 22.5C20 21.396 19.104 20.5 18 20.5C16.896 20.5 16 21.396 16 22.5C16 23.604 16.896 24.5 18 24.5ZM30 24.5C31.104 24.5 32 23.604 32 22.5C32 21.396 31.104 20.5 30 20.5C28.896 20.5 28 21.396 28 22.5C28 23.604 28.896 24.5 30 24.5ZM26 22.5C26 23.604 25.104 24.5 24 24.5C22.896 24.5 22 23.604 22 22.5C22 21.396 22.896 20.5 24 20.5C25.104 20.5 26 21.396 26 22.5ZM18 31C19.104 31 20 30.104 20 29C20 27.896 19.104 27 18 27C16.896 27 16 27.896 16 29C16 30.104 16.896 31 18 31ZM32 29C32 30.104 31.104 31 30 31C28.896 31 28 30.104 28 29C28 27.896 28.896 27 30 27C31.104 27 32 27.896 32 29ZM24 31C25.104 31 26 30.104 26 29C26 27.896 25.104 27 24 27C22.896 27 22 27.896 22 29C22 30.104 22.896 31 24 31Z" fill="white"/>
</g>
</g>
</g>
</g>
</svg>
