<svg width="48" height="48" viewBox="0 0 48 48" fill="none" xmlns="http://www.w3.org/2000/svg">
<g id="icon product/Sub-Menu/Gadai/Gadai TE">
<g id="Emas">
<g id="Left">
<path id="Fill 13 Copy 3" fill-rule="evenodd" clip-rule="evenodd" d="M22.0661 34.3936C20.9222 34.5259 7.07776 34.5259 5.93478 34.3936C5.33269 34.3243 4.9142 33.8338 5.015 33.3073C5.14909 32.6125 5.41639 31.4317 5.95548 29.495C6.58907 27.2162 7.03546 26.1344 7.29466 25.6304C7.43686 25.3541 7.71495 25.1552 8.05335 25.0958C8.77514 24.9681 19.2249 24.9681 19.9467 25.0958C20.285 25.1552 20.5631 25.3541 20.7053 25.6304C20.9645 26.1344 21.4109 27.2162 22.0445 29.495C22.5836 31.4317 22.8518 32.6125 22.985 33.3073C23.0858 33.8338 22.6673 34.3243 22.0661 34.3936Z" fill="#CC9D3F"/>
<mask id="mask0_0_6860" style="mask-type:alpha" maskUnits="userSpaceOnUse" x="5" y="25" width="18" height="10">
<path id="Fill 13 Copy 3_2" fill-rule="evenodd" clip-rule="evenodd" d="M22.0661 34.3936C20.9222 34.5259 7.07776 34.5259 5.93478 34.3936C5.33269 34.3243 4.9142 33.8338 5.015 33.3073C5.14909 32.6125 5.41639 31.4317 5.95548 29.495C6.58907 27.2162 7.03546 26.1344 7.29466 25.6304C7.43686 25.3541 7.71495 25.1552 8.05335 25.0958C8.77514 24.9681 19.2249 24.9681 19.9467 25.0958C20.285 25.1552 20.5631 25.3541 20.7053 25.6304C20.9645 26.1344 21.4109 27.2162 22.0445 29.495C22.5836 31.4317 22.8518 32.6125 22.985 33.3073C23.0858 33.8338 22.6673 34.3243 22.0661 34.3936Z" fill="white"/>
</mask>
<g mask="url(#mask0_0_6860)">
<path id="Fill 13 Copy 3_3" fill-rule="evenodd" clip-rule="evenodd" d="M19.0661 33.3936C17.9222 33.5259 4.07776 33.5259 2.93478 33.3936C2.33269 33.3243 1.9142 32.8338 2.015 32.3073C2.14909 31.6125 2.41639 30.4317 2.95548 28.495C3.58907 26.2162 4.03546 25.1344 4.29466 24.6304C4.43686 24.3541 4.71495 24.1552 5.05335 24.0958C5.77514 23.9681 16.2249 23.9681 16.9467 24.0958C17.285 24.1552 17.5631 24.3541 17.7053 24.6304C17.9645 25.1344 18.4109 26.2162 19.0445 28.495C19.5836 30.4317 19.8518 31.6125 19.985 32.3073C20.0858 32.8338 19.6673 33.3243 19.0661 33.3936Z" fill="#FFC54F"/>
</g>
</g>
<g id="Right">
<path id="Fill 13 Copy 4" fill-rule="evenodd" clip-rule="evenodd" d="M42.0661 34.3936C40.9222 34.5259 27.0778 34.5259 25.9348 34.3936C25.3327 34.3243 24.9142 33.8338 25.015 33.3073C25.1491 32.6125 25.4164 31.4317 25.9555 29.495C26.5891 27.2162 27.0355 26.1344 27.2947 25.6304C27.4369 25.3541 27.715 25.1552 28.0533 25.0958C28.7751 24.9681 39.2249 24.9681 39.9467 25.0958C40.285 25.1552 40.5631 25.3541 40.7053 25.6304C40.9645 26.1344 41.4109 27.2162 42.0445 29.495C42.5836 31.4317 42.8518 32.6125 42.985 33.3073C43.0858 33.8338 42.6673 34.3243 42.0661 34.3936Z" fill="#CC9D3F"/>
<mask id="mask1_0_6860" style="mask-type:alpha" maskUnits="userSpaceOnUse" x="25" y="25" width="18" height="10">
<path id="Fill 13 Copy 4_2" fill-rule="evenodd" clip-rule="evenodd" d="M42.0661 34.3936C40.9222 34.5259 27.0778 34.5259 25.9348 34.3936C25.3327 34.3243 24.9142 33.8338 25.015 33.3073C25.1491 32.6125 25.4164 31.4317 25.9555 29.495C26.5891 27.2162 27.0355 26.1344 27.2947 25.6304C27.4369 25.3541 27.715 25.1552 28.0533 25.0958C28.7751 24.9681 39.2249 24.9681 39.9467 25.0958C40.285 25.1552 40.5631 25.3541 40.7053 25.6304C40.9645 26.1344 41.4109 27.2162 42.0445 29.495C42.5836 31.4317 42.8518 32.6125 42.985 33.3073C43.0858 33.8338 42.6673 34.3243 42.0661 34.3936Z" fill="white"/>
</mask>
<g mask="url(#mask1_0_6860)">
<path id="Fill 13 Copy 4_3" fill-rule="evenodd" clip-rule="evenodd" d="M39.0661 33.3936C37.9222 33.5259 24.0778 33.5259 22.9348 33.3936C22.3327 33.3243 21.9142 32.8338 22.015 32.3073C22.1491 31.6125 22.4164 30.4317 22.9555 28.495C23.5891 26.2162 24.0355 25.1344 24.2947 24.6304C24.4369 24.3541 24.715 24.1552 25.0533 24.0958C25.7751 23.9681 36.2249 23.9681 36.9467 24.0958C37.285 24.1552 37.5631 24.3541 37.7053 24.6304C37.9645 25.1344 38.4109 26.2162 39.0445 28.495C39.5836 30.4317 39.8518 31.6125 39.985 32.3073C40.0858 32.8338 39.6673 33.3243 39.0661 33.3936Z" fill="#FFC54F"/>
</g>
</g>
<g id="Up">
<path id="Fill 13 Copy 2" fill-rule="evenodd" clip-rule="evenodd" d="M32.0661 22.3936C30.9222 22.5259 17.0778 22.5259 15.9348 22.3936C15.3327 22.3243 14.9142 21.8338 15.015 21.3073C15.1491 20.6125 15.4164 19.4317 15.9555 17.495C16.5891 15.2162 17.0355 14.1344 17.2947 13.6304C17.4369 13.3541 17.715 13.1552 18.0533 13.0958C18.7751 12.9681 29.2249 12.9681 29.9467 13.0958C30.285 13.1552 30.5631 13.3541 30.7053 13.6304C30.9645 14.1344 31.4109 15.2162 32.0445 17.495C32.5836 19.4317 32.8518 20.6125 32.985 21.3073C33.0858 21.8338 32.6673 22.3243 32.0661 22.3936Z" fill="#CC9D3F"/>
<mask id="mask2_0_6860" style="mask-type:alpha" maskUnits="userSpaceOnUse" x="15" y="13" width="18" height="10">
<path id="Fill 13 Copy 2_2" fill-rule="evenodd" clip-rule="evenodd" d="M32.0661 22.3936C30.9222 22.5259 17.0778 22.5259 15.9348 22.3936C15.3327 22.3243 14.9142 21.8338 15.015 21.3073C15.1491 20.6125 15.4164 19.4317 15.9555 17.495C16.5891 15.2162 17.0355 14.1344 17.2947 13.6304C17.4369 13.3541 17.715 13.1552 18.0533 13.0958C18.7751 12.9681 29.2249 12.9681 29.9467 13.0958C30.285 13.1552 30.5631 13.3541 30.7053 13.6304C30.9645 14.1344 31.4109 15.2162 32.0445 17.495C32.5836 19.4317 32.8518 20.6125 32.985 21.3073C33.0858 21.8338 32.6673 22.3243 32.0661 22.3936Z" fill="white"/>
</mask>
<g mask="url(#mask2_0_6860)">
<path id="Fill 13 Copy 2_3" fill-rule="evenodd" clip-rule="evenodd" d="M29.0661 21.3936C27.9222 21.5259 14.0778 21.5259 12.9348 21.3936C12.3327 21.3243 11.9142 20.8338 12.015 20.3073C12.1491 19.6125 12.4164 18.4317 12.9555 16.495C13.5891 14.2162 14.0355 13.1344 14.2947 12.6304C14.4369 12.3541 14.715 12.1552 15.0533 12.0958C15.7751 11.9681 26.2249 11.9681 26.9467 12.0958C27.285 12.1552 27.5631 12.3541 27.7053 12.6304C27.9645 13.1344 28.4109 14.2162 29.0445 16.495C29.5836 18.4317 29.8518 19.6125 29.985 20.3073C30.0858 20.8338 29.6673 21.3243 29.0661 21.3936Z" fill="#FFC54F"/>
</g>
</g>
</g>
</g>
</svg>
