<svg width="24" height="24" viewBox="0 0 24 24" fill="none" xmlns="http://www.w3.org/2000/svg">
<mask id="mask0_2595_27513" style="mask-type:alpha" maskUnits="userSpaceOnUse" x="3" y="1" width="18" height="22">
<path fill-rule="evenodd" clip-rule="evenodd" d="M12.4061 1.18052C12.1476 1.0656 11.8524 1.0656 11.5939 1.18052L3.59386 4.73607C3.23273 4.89657 3 5.2547 3 5.64989V11C3 16.55 6.84 21.74 12 23C17.16 21.74 21 16.55 21 11V5.64989C21 5.2547 20.7673 4.89657 20.4061 4.73607L12.4061 1.18052ZM19 11C19 15.52 16.02 19.69 12 20.93C7.98 19.69 5 15.52 5 11V6.94998C5 6.55474 5.23279 6.19659 5.59398 6.03611L11.594 3.3704C11.8525 3.25555 12.1475 3.25555 12.406 3.3704L18.406 6.03611C18.7672 6.19659 19 6.55474 19 6.94998V11ZM16.1796 14.3498C16.724 13.3406 16.9812 11.8565 17.1027 10.6805C17.6152 10.5489 18 10.0123 18 9.37249C18 8.63413 17.4878 8.03342 16.8582 8.03342L16.8434 8.03352C16.818 8.0339 16.7928 8.03526 16.7677 8.03757C16.1802 8.09174 15.7163 8.66978 15.7163 9.37249C15.7163 9.7277 15.8349 10.0511 16.028 10.291C15.6849 10.741 15.1862 11.0247 14.632 11.0247C14.5199 11.0247 14.4101 11.0131 14.3033 10.9909C14.0629 10.9408 13.8383 10.8367 13.6388 10.6898C13.2181 10.3799 12.9093 9.87934 12.8012 9.29225C12.9589 9.11001 13.0716 8.87458 13.1182 8.61104C13.1337 8.5232 13.1418 8.43224 13.1418 8.33909C13.1418 8.09609 13.0864 7.86801 12.9895 7.67133C12.792 7.27043 12.4225 7.00005 12.0001 7.00001H12C11.3704 7.00001 10.8582 7.60073 10.8582 8.33909C10.8582 8.71164 10.9886 9.04912 11.1987 9.29208C11.0167 10.2812 10.265 11.0247 9.36792 11.0247C9.2294 11.0247 9.09434 11.007 8.96431 10.9734C8.75617 10.9196 8.56091 10.825 8.38495 10.6973C8.2311 10.5856 8.092 10.4485 7.97193 10.291C8.15299 10.0661 8.26849 9.76781 8.28222 9.43871C8.28314 9.41677 8.2836 9.39469 8.2836 9.37249C8.2836 8.63413 7.77145 8.03342 7.14185 8.03342C6.51224 8.03342 6 8.63413 6 9.37249C6 9.41249 6.0015 9.45208 6.00445 9.49119C6.04859 10.0779 6.41677 10.5572 6.89719 10.6806C7.01872 11.8565 7.27597 13.3405 7.82039 14.3497H7.82031V15.5856C7.82031 15.8029 7.96289 15.9811 8.14433 15.9986C8.15406 15.9995 8.1639 16 8.17383 16H12.0001H15.8262C16.0214 16 16.1796 15.8145 16.1796 15.5856V14.3498Z" fill="white"/>
</mask>
<g mask="url(#mask0_2595_27513)">
<rect width="24" height="24" fill="#58585B"/>
</g>
</svg>
