<svg width="48" height="48" viewBox="0 0 48 48" fill="none" xmlns="http://www.w3.org/2000/svg">
<g id="icon product/Sub-Menu/Pembiayaan/Pembiayaan Usaha">
<g id="Group 102">
<g id="Group 56">
<rect id="Rectangle 17" x="9" y="18" width="30" height="22" fill="#E8F1F9"/>
<path id="Subtract" fill-rule="evenodd" clip-rule="evenodd" d="M39 19H9V23.4232C9.34569 24.0439 10.0071 24.45 10.7475 24.45H34C35.6569 24.45 37 25.7931 37 27.45V40H39V19Z" fill="#A3C7E6"/>
<g id="Group 57">
<path id="Rectangle 18" d="M8 39C8 38.4477 8.44772 38 9 38H39C39.5523 38 40 38.4477 40 39C40 39.5523 39.5523 40 39 40H9C8.44772 40 8 39.5523 8 39Z" fill="#1868AB"/>
</g>
<g id="Group 53">
<path id="Rectangle 19" d="M11.69 10.3512C12.2449 9.50776 13.1867 9 14.1963 9H18.2895H24H29.7105H33.8037C34.8133 9 35.7551 9.50776 36.31 10.3512L42 19H33H24H15H6L11.69 10.3512Z" fill="#5297D1"/>
<path id="Ellipse 10" d="M6 19C6 20.0609 6.47411 21.0783 7.31802 21.8284C8.16193 22.5786 9.30653 23 10.5 23C11.6935 23 12.8381 22.5786 13.682 21.8284C14.5259 21.0783 15 20.0609 15 19L6 19Z" fill="#1868AB"/>
<path id="Ellipse 11" d="M15 19C15 20.0609 15.4741 21.0783 16.318 21.8284C17.1619 22.5786 18.3065 23 19.5 23C20.6935 23 21.8381 22.5786 22.682 21.8284C23.5259 21.0783 24 20.0609 24 19L15 19Z" fill="#1868AB"/>
<path id="Ellipse 12" d="M24 19C24 20.0609 24.4741 21.0783 25.318 21.8284C26.1619 22.5786 27.3065 23 28.5 23C29.6935 23 30.8381 22.5786 31.682 21.8284C32.5259 21.0783 33 20.0609 33 19L24 19Z" fill="#1868AB"/>
<path id="Ellipse 13" d="M33 19C33 20.0609 33.4741 21.0783 34.318 21.8284C35.1619 22.5786 36.3065 23 37.5 23C38.6935 23 39.8381 22.5786 40.682 21.8284C41.5259 21.0783 42 20.0609 42 19L33 19Z" fill="#1868AB"/>
</g>
</g>
<g id="Group 104">
<rect id="Rectangle 66" x="18" y="8" width="12" height="4" rx="1" fill="#CC9D3F"/>
<rect id="Rectangle 65" x="18" y="6" width="12" height="5" rx="1" fill="#FFC54F"/>
</g>
<g id="Group 103">
<path id="Rectangle 20" d="M24 29C24 27.8954 24.8954 27 26 27H33C34.1046 27 35 27.8954 35 29V38H24V29Z" fill="#FFC54F"/>
<path id="Subtract_2" d="M33 38H35V29.2C35 27.985 34.1046 27 33 27H31C32.1046 27 33 27.985 33 29.2V38Z" fill="#CC9D3F"/>
</g>
</g>
</g>
</svg>
