<svg width="48" height="48" viewBox="0 0 48 48" fill="none" xmlns="http://www.w3.org/2000/svg">
<rect x="9" y="19" width="30" height="22" fill="#E8F1F9"/>
<path fill-rule="evenodd" clip-rule="evenodd" d="M39 20H9V24.4232C9.34569 25.0439 10.0071 25.45 10.7475 25.45H34C35.6569 25.45 37 26.7931 37 28.45V41H39V20Z" fill="#A3C7E6"/>
<path d="M8 40C8 39.4477 8.44772 39 9 39H39C39.5523 39 40 39.4477 40 40C40 40.5523 39.5523 41 39 41H9C8.44772 41 8 40.5523 8 40Z" fill="#1868AB"/>
<path d="M11.69 11.3512C12.2449 10.5078 13.1867 10 14.1963 10H18.2895H24H29.7105H33.8037C34.8133 10 35.7551 10.5078 36.31 11.3512L42 20H33H24H15H6L11.69 11.3512Z" fill="#5297D1"/>
<path d="M6 20C6 21.0609 6.47411 22.0783 7.31802 22.8284C8.16193 23.5786 9.30653 24 10.5 24C11.6935 24 12.8381 23.5786 13.682 22.8284C14.5259 22.0783 15 21.0609 15 20L6 20Z" fill="#1868AB"/>
<path d="M15 20C15 21.0609 15.4741 22.0783 16.318 22.8284C17.1619 23.5786 18.3065 24 19.5 24C20.6935 24 21.8381 23.5786 22.682 22.8284C23.5259 22.0783 24 21.0609 24 20L15 20Z" fill="#1868AB"/>
<path d="M24 20C24 21.0609 24.4741 22.0783 25.318 22.8284C26.1619 23.5786 27.3065 24 28.5 24C29.6935 24 30.8381 23.5786 31.682 22.8284C32.5259 22.0783 33 21.0609 33 20L24 20Z" fill="#1868AB"/>
<path d="M33 20C33 21.0609 33.4741 22.0783 34.318 22.8284C35.1619 23.5786 36.3065 24 37.5 24C38.6935 24 39.8381 23.5786 40.682 22.8284C41.5259 22.0783 42 21.0609 42 20L33 20Z" fill="#1868AB"/>
<rect x="18" y="9" width="12" height="4" rx="1" fill="#CC9D3F"/>
<rect x="18" y="7" width="12" height="5" rx="1" fill="#FFC54F"/>
<path d="M24 30C24 28.8954 24.8954 28 26 28H33C34.1046 28 35 28.8954 35 30V39H24V30Z" fill="#FFC54F"/>
<path d="M33 39H35V30.2C35 28.985 34.1046 28 33 28H31C32.1046 28 33 28.985 33 30.2V39Z" fill="#CC9D3F"/>
</svg>
