<svg width="64" height="64" viewBox="0 0 64 64" fill="none" xmlns="http://www.w3.org/2000/svg">
<path d="M32 64C49.6731 64 64 49.6731 64 32C64 14.3269 49.6731 0 32 0C14.3269 0 0 14.3269 0 32C0 49.6731 14.3269 64 32 64Z" fill="#E8F1F9"/>
<path fill-rule="evenodd" clip-rule="evenodd" d="M34.43 31.5C36.89 31.5 38.88 29.18 38.88 26.31C38.88 23.44 36.89 21.12 34.43 21.12C31.97 21.12 29.98 23.44 29.98 26.31C29.98 29.18 31.97 31.5 34.43 31.5Z" fill="#00883E"/>
<path fill-rule="evenodd" clip-rule="evenodd" d="M32.67 31.5C34.92 31.5 36.75 29.28 36.75 26.55C36.75 23.82 34.92 21.6 32.67 21.6C30.42 21.6 28.59 23.82 28.59 26.55C28.59 29.28 30.42 31.5 32.67 31.5Z" fill="#00AB4E"/>
<path fill-rule="evenodd" clip-rule="evenodd" d="M34.81 33.73C30.24 33.73 26.33 35.86 24.71 38.61C23.96 39.89 24.84 41.54 26.29 41.65C27.93 41.77 30.59 41.88 34.81 41.88C39.03 41.88 41.69 41.77 43.33 41.65C44.78 41.54 45.67 39.89 44.91 38.61C43.29 35.86 39.38 33.73 34.81 33.73Z" fill="#00883E"/>
<path fill-rule="evenodd" clip-rule="evenodd" d="M32.58 33.73C28.01 33.85 24.1 35.86 22.48 38.61C21.73 39.89 22.61 41.54 24.06 41.65C25.7 41.77 28.36 41.88 32.58 41.88C36.8 41.88 36.88 41.77 38.52 41.65C39.97 41.54 40.86 39.89 40.1 38.61C39.32 36.2 36.31 33.63 32.58 33.73Z" fill="#00AB4E"/>
<path d="M17.2 50.18C15.92 51.46 13.84 51.46 12.56 50.18C11.28 48.9 11.28 46.82 12.56 45.54L21.08 37.02L25.72 41.66L17.2 50.18Z" fill="#1868AB"/>
<path d="M21.47 45.9L16.83 41.26L21.07 37.02L25.71 41.66L21.47 45.9Z" fill="#0F5895"/>
<path opacity="0.4" d="M33.38 12.9301C42.45 12.9301 49.8 20.2801 49.8 29.3501C49.8 38.4201 42.45 45.7701 33.38 45.7701C24.31 45.7701 16.96 38.4201 16.96 29.3501C16.96 20.2801 24.31 12.9301 33.38 12.9301Z" fill="#E8F1F9"/>
<path d="M16.96 29.3501C16.96 20.2901 24.33 12.9301 33.38 12.9301C42.44 12.9301 49.8 20.3001 49.8 29.3501C49.8 38.4001 42.43 45.7701 33.38 45.7701C24.32 45.7701 16.96 38.4001 16.96 29.3501ZM21.34 29.3501C21.34 35.9901 26.74 41.3901 33.38 41.3901C40.02 41.3901 45.42 35.9901 45.42 29.3501C45.42 22.7101 40.02 17.3101 33.38 17.3101C26.74 17.3101 21.34 22.7101 21.34 29.3501Z" fill="#5297D1"/>
<path d="M33.2499 12.52C24.0699 12.52 16.5999 19.99 16.5999 29.17C16.5999 32.56 17.6199 35.72 19.3699 38.36L12.5599 44.92C11.6799 45.9 10.4399 48.26 11.9799 50.19C12.6299 51 13.4199 51.43 14.3299 51.49C14.3899 51.49 14.4499 51.49 14.4999 51.49C16.3399 51.49 18.0799 49.9 18.5799 49.4C20.0799 47.9 23.3899 44.28 24.3399 43.23C26.9199 44.87 29.9699 45.82 33.2399 45.82C42.4199 45.82 49.8899 38.35 49.8899 29.17C49.8899 19.99 42.4199 12.52 33.2399 12.52H33.2499ZM17.9799 48.79C17.0499 49.72 15.6099 50.69 14.3799 50.63C13.7199 50.59 13.1499 50.27 12.6599 49.66C11.1899 47.82 13.1299 45.59 13.1899 45.52L19.8799 39.08C20.9299 40.49 22.1999 41.73 23.6299 42.75C22.5799 43.9 19.4199 47.35 17.9799 48.79ZM33.2499 44.96C24.5399 44.96 17.4599 37.88 17.4599 29.17C17.4599 20.46 24.5399 13.38 33.2499 13.38C41.9599 13.38 49.0399 20.46 49.0399 29.17C49.0399 37.88 41.9599 44.96 33.2499 44.96Z" fill="#252528"/>
<path d="M33.25 16.52C26.27 16.52 20.6 22.2 20.6 29.17C20.6 36.14 26.28 41.82 33.25 41.82C40.22 41.82 45.9 36.14 45.9 29.17C45.9 22.2 40.22 16.52 33.25 16.52ZM33.25 17.38C39.75 17.38 45.04 22.67 45.04 29.17C45.04 31.75 44.21 34.13 42.8 36.07C42 35.37 39.44 33.63 33.74 33.63C27.6 33.63 24.87 35.5 23.92 36.37C22.38 34.38 21.45 31.88 21.45 29.17C21.45 22.67 26.74 17.38 33.24 17.38H33.25ZM33.25 40.97C29.77 40.97 26.63 39.45 24.47 37.04C25.22 36.33 27.73 34.49 33.74 34.49C39.29 34.49 41.67 36.22 42.27 36.76C40.1 39.33 36.87 40.97 33.25 40.97Z" fill="#252528"/>
<path d="M33.65 32.26C36.78 32.26 39.33 29.67 39.33 26.5C39.33 23.33 36.78 20.74 33.65 20.74C30.52 20.74 27.97 23.33 27.97 26.5C27.97 29.67 30.52 32.26 33.65 32.26ZM33.65 21.59C36.31 21.59 38.47 23.79 38.47 26.49C38.47 29.19 36.31 31.39 33.65 31.39C30.99 31.39 28.83 29.19 28.83 26.49C28.83 23.79 30.99 21.59 33.65 21.59Z" fill="#252528"/>
<path d="M41.0998 47.6499C39.5798 46.7599 38.4298 45.2899 37.9498 43.5499C37.7898 42.9699 37.6998 42.3499 37.6998 41.7099C37.6998 37.8999 40.7798 34.8199 44.5898 34.8199C48.3998 34.8199 51.4798 37.8999 51.4798 41.7099C51.4798 45.5199 48.3998 48.5999 44.5898 48.5999C43.3098 48.5999 42.1298 48.2599 41.0998 47.6499Z" fill="#00AB4E"/>
<path d="M44.5799 49.04C43.2699 49.04 41.9899 48.69 40.8699 48.03C39.2199 47.06 38.0299 45.51 37.5199 43.67C37.3399 43.04 37.2499 42.38 37.2499 41.71C37.2499 37.67 40.5399 34.38 44.5799 34.38C48.6199 34.38 51.9099 37.67 51.9099 41.71C51.9099 45.75 48.6199 49.04 44.5799 49.04ZM44.5799 35.26C41.0299 35.26 38.1399 38.15 38.1399 41.7C38.1399 42.29 38.2199 42.87 38.3699 43.42C38.8199 45.04 39.8699 46.4 41.3199 47.26C42.3099 47.84 43.4299 48.15 44.5799 48.15C48.1299 48.15 51.0199 45.26 51.0199 41.71C51.0199 38.16 48.1299 35.27 44.5799 35.27V35.26Z" fill="white"/>
<path d="M44.5798 45.3599C44.0898 45.3599 43.6898 44.9599 43.6898 44.4699V38.9599C43.6898 38.4699 44.0898 38.0699 44.5798 38.0699C45.0698 38.0699 45.4698 38.4699 45.4698 38.9599V44.4699C45.4698 44.9599 45.0698 45.3599 44.5798 45.3599Z" fill="white"/>
<path d="M47.3398 42.5999H41.8298C41.3398 42.5999 40.9398 42.1999 40.9398 41.7099C40.9398 41.2199 41.3398 40.8199 41.8298 40.8199H47.3398C47.8298 40.8199 48.2298 41.2199 48.2298 41.7099C48.2298 42.1999 47.8298 42.5999 47.3398 42.5999Z" fill="white"/>
<path d="M44.5799 49.87C40.0799 49.87 36.4199 46.21 36.4199 41.71C36.4199 37.21 40.0799 33.55 44.5799 33.55C49.0799 33.55 52.7399 37.21 52.7399 41.71C52.7399 46.21 49.0799 49.87 44.5799 49.87ZM44.5799 34.41C40.5499 34.41 37.2799 37.69 37.2799 41.71C37.2799 45.73 40.5599 49.01 44.5799 49.01C48.5999 49.01 51.8799 45.73 51.8799 41.71C51.8799 37.69 48.5999 34.41 44.5799 34.41Z" fill="#252528"/>
</svg>
