<svg width="48" height="48" viewBox="0 0 48 48" fill="none" xmlns="http://www.w3.org/2000/svg">
<path fill-rule="evenodd" clip-rule="evenodd" d="M29.8546 27.039L24.1452 28.6355C23.7923 28.7341 23.4213 28.7369 23.0684 28.641L17.045 27.0265C16.0904 26.7694 15.4193 25.8468 15.4193 24.788V17.7086C15.4193 13.336 18.7151 9.79004 22.7807 9.79004H24.0966C28.1636 9.79004 31.458 13.336 31.458 17.7086V24.8061C31.458 25.8565 30.7994 26.775 29.8546 27.039Z" fill="#946F25"/>
<path fill-rule="evenodd" clip-rule="evenodd" d="M24.0973 9.79004H22.7814C22.4494 9.79004 22.1242 9.81227 21.806 9.85395C25.4103 10.3319 28.1921 13.4166 28.1921 17.1515V23.7487C28.1921 24.7255 27.5334 25.5786 26.5872 25.8246L21.9394 27.0334L23.0691 27.3141C23.422 27.403 23.7916 27.4002 24.1445 27.3085L29.8553 25.8246C30.7987 25.5786 31.4587 24.7255 31.4587 23.7487V17.1515C31.4587 13.0859 28.1629 9.79004 24.0973 9.79004Z" fill="#6C4A07"/>
<path fill-rule="evenodd" clip-rule="evenodd" d="M27.1245 28.4021C26.5771 28.2923 26.1838 27.813 26.1838 27.2544V24.6172H23.5966H21.0094V27.2544C21.0094 27.813 20.6148 28.2923 20.0702 28.4021L19.4393 28.5286V32.7637H23.5966H27.7539V28.5286L27.1245 28.4021Z" fill="#FFDAB8"/>
<mask id="mask0_0_11350" style="mask-type:alpha" maskUnits="userSpaceOnUse" x="10" y="28" width="27" height="11">
<path fill-rule="evenodd" clip-rule="evenodd" d="M10.8 28.1836H36.3927V38.9687H10.8V28.1836Z" fill="white"/>
</mask>
<g mask="url(#mask0_0_11350)">
<path fill-rule="evenodd" clip-rule="evenodd" d="M32.5114 29.8232L27.3217 28.2044C27.1591 28.1544 26.984 28.1961 26.8618 28.3114L23.5965 31.4058L20.3312 28.3114C20.209 28.1961 20.0339 28.1544 19.8713 28.2044L14.6816 29.8232C12.3807 30.5012 10.7994 32.6132 10.7994 35.0129V38.4699C10.7994 38.745 11.0231 38.9687 11.2983 38.9687H35.8947C36.1698 38.9687 36.3935 38.745 36.3935 38.4699V35.0129C36.3935 32.6132 34.8123 30.5012 32.5114 29.8232Z" fill="#FFC54F"/>
</g>
<mask id="mask1_0_11350" style="mask-type:alpha" maskUnits="userSpaceOnUse" x="26" y="28" width="11" height="11">
<path fill-rule="evenodd" clip-rule="evenodd" d="M26.2518 28.1836H36.3927V38.9687H26.2518V28.1836Z" fill="white"/>
</mask>
<g mask="url(#mask1_0_11350)">
<path fill-rule="evenodd" clip-rule="evenodd" d="M32.5113 29.8232L27.3217 28.2044C27.1591 28.1544 26.984 28.1961 26.8617 28.3114L26.2518 28.8908L29.2447 29.8232C31.5471 30.5012 33.1255 32.6132 33.1255 35.0129V38.9687H35.8947C36.1698 38.9687 36.3935 38.745 36.3935 38.4699V35.0129C36.3935 32.6132 34.8123 30.5012 32.5113 29.8232Z" fill="#DF9F1C"/>
</g>
<path fill-rule="evenodd" clip-rule="evenodd" d="M23.5965 26.8098C20.0352 26.8098 17.1451 23.9211 17.1451 20.3585V18.5466C17.1451 14.984 20.0352 12.0967 23.5965 12.0967C27.1591 12.0967 30.0478 14.984 30.0478 18.5466V20.3585C30.0478 23.9211 27.1591 26.8098 23.5965 26.8098Z" fill="#FFDAB8"/>
<path fill-rule="evenodd" clip-rule="evenodd" d="M26.7798 12.9355V20.3595C26.7798 23.3566 24.7345 25.8771 21.9625 26.601C22.4849 26.7372 23.0324 26.8094 23.5965 26.8094C27.1591 26.8094 30.0478 23.9221 30.0478 20.3595V18.5462C30.0478 16.1425 28.7306 14.0443 26.7798 12.9355Z" fill="#FFB490"/>
<path fill-rule="evenodd" clip-rule="evenodd" d="M20.3318 28.3114L23.597 31.4058L21.5823 32.0922C21.089 32.2603 20.543 32.1144 20.1998 31.7226L17.7084 28.8797L19.8718 28.2044C20.033 28.1544 20.2081 28.1961 20.3318 28.3114Z" fill="#FFF9ED"/>
<path fill-rule="evenodd" clip-rule="evenodd" d="M26.8612 28.3114L23.5959 31.4058L25.4217 32.0283C26.0289 32.2353 26.7014 32.0547 27.1238 31.5725L29.4845 28.8797L27.3211 28.2044C27.1599 28.1544 26.9849 28.1961 26.8612 28.3114Z" fill="#FFF9ED"/>
<mask id="mask2_0_11350" style="mask-type:alpha" maskUnits="userSpaceOnUse" x="15" y="9" width="17" height="11">
<path fill-rule="evenodd" clip-rule="evenodd" d="M15.4197 9.79004H31.4584V19.2233H15.4197V9.79004Z" fill="white"/>
</mask>
<g mask="url(#mask2_0_11350)">
<path fill-rule="evenodd" clip-rule="evenodd" d="M31.4584 18.5118C31.4584 18.5118 28.6753 18.2908 27.7235 15.7314C27.7235 15.7314 20.997 21.117 15.4197 18.5118V17.1515C15.4197 13.0859 18.7155 9.79004 22.7811 9.79004H24.0969C28.1625 9.79004 31.4584 13.0859 31.4584 17.1515V18.5118Z" fill="#946F25"/>
</g>
<path fill-rule="evenodd" clip-rule="evenodd" d="M24.0973 9.79004H22.7814C22.4494 9.79004 22.1242 9.81227 21.806 9.85395C25.2325 10.3083 27.5223 12.4273 27.7766 15.9134C28.7603 18.2756 31.4587 18.5118 31.4587 18.5118V17.1515C31.4587 13.0859 28.1629 9.79004 24.0973 9.79004Z" fill="#6C4A07"/>
</svg>
