<svg width="24" height="24" viewBox="0 0 24 24" fill="none" xmlns="http://www.w3.org/2000/svg">
<path d="M4 12C4 11.4477 4.44771 11 5 11H16.17L11.29 6.12C10.8983 5.72829 10.8994 5.09284 11.2925 4.70251C11.6836 4.31412 12.3152 4.31524 12.705 4.705L19.9208 11.9208C19.9645 11.9645 19.9645 12.0355 19.9208 12.0792L12.7053 19.2947C12.3158 19.6842 11.6842 19.6842 11.2947 19.2947C10.9054 18.9054 10.9051 18.2743 11.2941 17.8847L16.17 13H5C4.44771 13 4 12.5523 4 12Z" fill="black"/>
<mask id="mask0_0_5136" style="mask-type:alpha" maskUnits="userSpaceOnUse" x="4" y="4" width="16" height="16">
<path d="M4 12C4 11.4477 4.44771 11 5 11H16.17L11.29 6.12C10.8983 5.72829 10.8994 5.09284 11.2925 4.70251C11.6836 4.31412 12.3152 4.31524 12.705 4.705L19.9208 11.9208C19.9645 11.9645 19.9645 12.0355 19.9208 12.0792L12.7053 19.2947C12.3158 19.6842 11.6842 19.6842 11.2947 19.2947C10.9054 18.9054 10.9051 18.2743 11.2941 17.8847L16.17 13H5C4.44771 13 4 12.5523 4 12Z" fill="white"/>
</mask>
<g mask="url(#mask0_0_5136)">
<rect width="24" height="24" fill="#58585B"/>
</g>
</svg>
