<svg width="36" height="36" viewBox="0 0 36 36" fill="none" xmlns="http://www.w3.org/2000/svg">
<path d="M30 18C30 17.1716 29.3284 16.5 28.5 16.5H11.745L19.065 9.18001C19.6526 8.59243 19.6509 7.63926 19.0612 7.05376C18.4745 6.47118 17.5271 6.47286 16.9425 7.05751L6.11881 17.8812C6.05319 17.9468 6.05319 18.0532 6.11881 18.1188L16.942 28.942C17.5263 29.5263 18.4737 29.5263 19.058 28.942C19.6419 28.3581 19.6423 27.4115 19.0589 26.827L11.745 19.5H28.5C29.3284 19.5 30 18.8284 30 18Z" fill="black"/>
<mask id="mask0" mask-type="alpha" maskUnits="userSpaceOnUse" x="6" y="6" width="24" height="24">
<path d="M30 18C30 17.1716 29.3284 16.5 28.5 16.5H11.745L19.065 9.18001C19.6526 8.59243 19.6509 7.63926 19.0612 7.05376C18.4745 6.47118 17.5271 6.47286 16.9425 7.05751L6.11881 17.8812C6.05319 17.9468 6.05319 18.0532 6.11881 18.1188L16.942 28.942C17.5263 29.5263 18.4737 29.5263 19.058 28.942C19.6419 28.3581 19.6423 27.4115 19.0589 26.827L11.745 19.5H28.5C29.3284 19.5 30 18.8284 30 18Z" fill="white"/>
</mask>
<g mask="url(#mask0)">
<rect width="36" height="36" fill="#00AB4E"/>
</g>
</svg>
