<svg width="24" height="24" viewBox="0 0 24 24" fill="none" xmlns="http://www.w3.org/2000/svg">
<path d="M12 4C12.5523 4 13 4.44771 13 5V16.17L17.88 11.29C18.2717 10.8983 18.9072 10.8994 19.2975 11.2925C19.6859 11.6836 19.6848 12.3152 19.295 12.705L12.0792 19.9208C12.0355 19.9645 11.9645 19.9645 11.9208 19.9208L4.70531 12.7053C4.31578 12.3158 4.31578 11.6842 4.70532 11.2947C5.0946 10.9054 5.72568 10.9051 6.11531 11.2941L11 16.17L11 5C11 4.44771 11.4477 4 12 4Z" fill="black"/>
<mask id="mask0_0_5128" style="mask-type:alpha" maskUnits="userSpaceOnUse" x="4" y="4" width="16" height="16">
<path d="M12 4C12.5523 4 13 4.44771 13 5V16.17L17.88 11.29C18.2717 10.8983 18.9072 10.8994 19.2975 11.2925C19.6859 11.6836 19.6848 12.3152 19.295 12.705L12.0792 19.9208C12.0355 19.9645 11.9645 19.9645 11.9208 19.9208L4.70531 12.7053C4.31578 12.3158 4.31578 11.6842 4.70532 11.2947C5.0946 10.9054 5.72568 10.9051 6.11531 11.2941L11 16.17L11 5C11 4.44771 11.4477 4 12 4Z" fill="white"/>
</mask>
<g mask="url(#mask0_0_5128)">
<rect width="24" height="24" fill="#58585B"/>
</g>
</svg>

