<svg width="24" height="24" viewBox="0 0 24 24" fill="none" xmlns="http://www.w3.org/2000/svg">
<mask id="mask0_2618_30709" style="mask-type:alpha" maskUnits="userSpaceOnUse" x="1" y="3" width="22" height="18">
<path d="M20.8099 6.34737H16.0694V4.55109C16.0694 3.69579 15.3295 3 14.4199 3H9.58001C8.67048 3 7.93052 3.69579 7.93052 4.55109V6.34737H3.19009C1.98245 6.34737 1 7.27127 1 8.40686V18.9405C1 20.0761 1.98245 21 3.19009 21H20.8099C22.0175 21 23 20.0761 23 18.9405V8.40686C23 7.27127 22.0175 6.34737 20.8099 6.34737ZM9.32766 4.55109C9.32766 4.42024 9.44087 4.31382 9.58001 4.31382H14.4199C14.5591 4.31382 14.6723 4.42028 14.6723 4.55109V6.34737H9.32766V4.55109ZM2.39713 8.40686C2.39713 7.99568 2.75283 7.66119 3.19009 7.66119H20.8099C21.2471 7.66119 21.6029 7.99568 21.6029 8.40686V9.37913C21.6029 10.2911 20.9526 11.106 20.0215 11.3609L12.7151 13.3614C12.2473 13.4895 11.7527 13.4895 11.2848 13.3614L3.97851 11.3609C3.04741 11.106 2.39713 10.2911 2.39713 9.37913V8.40686ZM20.8099 19.6862H3.19009C2.75288 19.6862 2.39713 19.3517 2.39713 18.9406V12.0539C2.74917 12.3098 3.15045 12.5026 3.58793 12.6224C11.6589 14.8321 11.2441 14.7713 12 14.7713C12.7658 14.7713 12.3316 14.8347 20.412 12.6224C20.8496 12.5026 21.2508 12.3098 21.6028 12.0539V18.9405C21.6029 19.3517 21.2471 19.6862 20.8099 19.6862Z" fill="black"/>
</mask>
<g mask="url(#mask0_2618_30709)">
<rect width="24" height="24" fill="#58585B"/>
</g>
</svg>
