<svg width="24" height="24" viewBox="0 0 24 24" fill="none" xmlns="http://www.w3.org/2000/svg">
<path d="M8.12 15.7025L12 11.8225L15.88 15.7025C16.27 16.0925 16.9 16.0925 17.29 15.7025C17.68 15.3125 17.68 14.6825 17.29 14.2925L12.7 9.70253C12.31 9.31253 11.68 9.31253 11.29 9.70253L6.7 14.2925C6.31 14.6825 6.31 15.3125 6.7 15.7025C7.09 16.0825 7.73 16.0925 8.12 15.7025Z" fill="black"/>
<mask id="mask0_0_5358" style="mask-type:alpha" maskUnits="userSpaceOnUse" x="6" y="9" width="12" height="7">
<path d="M8.12 15.7025L12 11.8225L15.88 15.7025C16.27 16.0925 16.9 16.0925 17.29 15.7025C17.68 15.3125 17.68 14.6825 17.29 14.2925L12.7 9.70253C12.31 9.31253 11.68 9.31253 11.29 9.70253L6.7 14.2925C6.31 14.6825 6.31 15.3125 6.7 15.7025C7.09 16.0825 7.73 16.0925 8.12 15.7025Z" fill="white"/>
</mask>
<g mask="url(#mask0_0_5358)">
<rect width="24" height="24" fill="#58585B"/>
</g>
</svg>
