<svg width="24" height="24" viewBox="0 0 24 24" fill="none" xmlns="http://www.w3.org/2000/svg">
<path d="M21.35 9.61538C20.4391 9.61538 19.7 10.3906 19.7 11.3462C19.7 11.6022 19.755 11.8401 19.8512 12.0601L17.3625 13.625C16.8331 13.9567 16.1491 13.7692 15.8431 13.2067L13.0416 8.0649C13.4094 7.7476 13.65 7.27163 13.65 6.73077C13.65 5.77524 12.9109 5 12 5C11.0891 5 10.35 5.77524 10.35 6.73077C10.35 7.27163 10.5906 7.7476 10.9584 8.0649L8.15687 13.2067C7.85094 13.7692 7.16344 13.9567 6.6375 13.625L4.15219 12.0601C4.245 11.8438 4.30344 11.6022 4.30344 11.3462C4.30344 10.3906 3.56437 9.61538 2.65344 9.61538C1.7425 9.61538 1 10.3906 1 11.3462C1 12.3017 1.73906 13.0769 2.65 13.0769C2.73937 13.0769 2.82875 13.0625 2.91469 13.0481L5.4 20H18.6L21.0853 13.0481C21.1712 13.0625 21.2606 13.0769 21.35 13.0769C22.2609 13.0769 23 12.3017 23 11.3462C23 10.3906 22.2609 9.61538 21.35 9.61538Z" fill="#58585B"/>
</svg>
