<svg width="48" height="48" viewBox="0 0 48 48" fill="none" xmlns="http://www.w3.org/2000/svg">
<path d="M18.5278 22.7676L38.9994 22.7555" stroke="#00883E" stroke-width="2" stroke-linecap="round" stroke-linejoin="round"/>
<path d="M23.0074 9.44691C21.1398 7.6723 14.0585 7.75679 12.5022 8.49621C16.2374 17.3693 17.5517 27.2778 16.7735 29.8657H34.4745C39.3231 29.8657 40.2658 25.4211 37.3477 25.4211H26.0088C26.0088 19.6208 24.8749 11.2215 23.0074 9.44691Z" fill="#00AB4E"/>
<path d="M15.9131 9.33044C14.0455 7.55583 11.6332 8.59101 10.0769 9.33043C13.8121 18.2035 14.6261 27.1321 13.848 29.7201H30.5485C35.397 29.7201 36.3398 25.4129 33.4217 25.4129H18.8312C18.8312 19.6125 17.7807 11.1051 15.9131 9.33044Z" fill="#40BD63"/>
<path d="M14.3506 30.3623L30.3585 30.3623" stroke="#00883E" stroke-width="2" stroke-linecap="round" stroke-linejoin="round"/>
<path fill-rule="evenodd" clip-rule="evenodd" d="M9.61565 8.48747C10.1054 8.23219 10.7094 8.42226 10.9646 8.912C13.3856 13.5564 14.5936 17.8683 15.0941 21.6839L34.8588 21.6722C35.411 21.6719 35.8591 22.1193 35.8594 22.6716C35.8598 23.2239 35.4124 23.6719 34.8601 23.6722L32.9706 23.6733C31.6553 25.9385 31.241 28.5776 31.3858 30.9447C31.5415 33.492 32.3271 35.5062 33.0942 36.3395C33.1009 36.3468 33.1075 36.3542 33.1139 36.3616C33.7324 36.1187 34.2952 35.8647 34.8025 35.6115C35.993 35.0171 36.8796 34.4259 37.4621 33.9897C37.7533 33.7716 37.9682 33.5925 38.1067 33.4715C38.176 33.411 38.2261 33.3651 38.257 33.3361C38.2725 33.3216 38.2832 33.3113 38.2891 33.3056L38.2931 33.3018C38.684 32.9122 39.3167 32.9129 39.7067 33.3035C40.0969 33.6944 40.0964 34.3275 39.7056 34.7177L38.999 34.0101C39.7056 34.7177 39.7048 34.7185 39.7048 34.7185L39.704 34.7193L39.7019 34.7214L39.6963 34.7269L39.6796 34.7432C39.674 34.7486 39.6676 34.7547 39.6604 34.7616C39.65 34.7716 39.6378 34.7832 39.6238 34.7962C39.5767 34.8404 39.5096 34.9017 39.4226 34.9777C39.2486 35.1297 38.9947 35.3406 38.661 35.5906C37.9935 36.0904 37.0052 36.7472 35.6958 37.4009C33.0737 38.7099 29.1718 40.0022 23.9995 40.0022C18.8272 40.0022 14.9253 38.7099 12.3032 37.4009C10.9938 36.7472 10.0055 36.0904 9.33806 35.5906C9.00427 35.3406 8.75042 35.1297 8.57644 34.9777C8.48944 34.9017 8.42236 34.8404 8.37521 34.7962C8.35163 34.7741 8.33303 34.7564 8.31941 34.7432L8.30269 34.7269L8.29713 34.7214L8.29505 34.7193L8.29419 34.7185C8.29419 34.7185 8.29344 34.7177 9 34.0101L8.29344 34.7177C7.90261 34.3275 7.90213 33.6944 8.29235 33.3035C8.68194 32.9133 9.31369 32.9122 9.70466 33.3005L9.70989 33.3056C9.71579 33.3113 9.72649 33.3216 9.74197 33.3361C9.77294 33.3651 9.82305 33.411 9.8923 33.4715C10.0308 33.5925 10.2457 33.7716 10.5369 33.9897C10.9396 34.2913 11.4878 34.667 12.1812 35.0666C13.3483 30.6044 15.1796 21.3251 9.19112 9.83646C8.93584 9.34671 9.12591 8.74275 9.61565 8.48747ZM14.0046 35.9929C16.361 37.0431 19.6905 38.0022 23.9995 38.0022C26.7776 38.0022 29.1485 37.6036 31.114 37.0388C30.1759 35.6259 29.5336 33.4239 29.3895 31.0668C29.2469 28.7349 29.5798 26.098 30.7151 23.6747L15.2977 23.6838C15.6961 29.1786 14.6823 33.4706 14.0046 35.9929Z" fill="#00662E"/>
</svg>
