<svg width="24" height="24" viewBox="0 0 24 24" fill="none" xmlns="http://www.w3.org/2000/svg">
<path fill-rule="evenodd" clip-rule="evenodd" d="M18.1464 9.85355C18.4614 9.53857 18.2383 9 17.7929 9H15V3.5C15 3.22386 14.7761 3 14.5 3H9.5C9.22386 3 9 3.22386 9 3.5V9H6.20711C5.76165 9 5.53857 9.53857 5.85355 9.85355L11.6464 15.6464C11.8417 15.8417 12.1583 15.8417 12.3536 15.6464L18.1464 9.85355ZM11 11V5.2C11 5.08954 11.0895 5 11.2 5H12.8C12.9105 5 13 5.08954 13 5.2V11H13.6872C13.8653 11 13.9546 11.2154 13.8286 11.3414L12.1414 13.0286C12.0633 13.1067 11.9367 13.1067 11.8586 13.0286L10.1714 11.3414C10.0454 11.2154 10.1347 11 10.3128 11H11ZM5.5 18C5.22386 18 5 18.2239 5 18.5V19.5C5 19.7761 5.22386 20 5.5 20H18.5C18.7761 20 19 19.7761 19 19.5V18.5C19 18.2239 18.7761 18 18.5 18H5.5Z" fill="black"/>
<mask id="mask0_0_6510" style="mask-type:alpha" maskUnits="userSpaceOnUse" x="5" y="3" width="14" height="17">
<path fill-rule="evenodd" clip-rule="evenodd" d="M18.1464 9.85355C18.4614 9.53857 18.2383 9 17.7929 9H15V3.5C15 3.22386 14.7761 3 14.5 3H9.5C9.22386 3 9 3.22386 9 3.5V9H6.20711C5.76165 9 5.53857 9.53857 5.85355 9.85355L11.6464 15.6464C11.8417 15.8417 12.1583 15.8417 12.3536 15.6464L18.1464 9.85355ZM11 11V5.2C11 5.08954 11.0895 5 11.2 5H12.8C12.9105 5 13 5.08954 13 5.2V11H13.6872C13.8653 11 13.9546 11.2154 13.8286 11.3414L12.1414 13.0286C12.0633 13.1067 11.9367 13.1067 11.8586 13.0286L10.1714 11.3414C10.0454 11.2154 10.1347 11 10.3128 11H11ZM5.5 18C5.22386 18 5 18.2239 5 18.5V19.5C5 19.7761 5.22386 20 5.5 20H18.5C18.7761 20 19 19.7761 19 19.5V18.5C19 18.2239 18.7761 18 18.5 18H5.5Z" fill="white"/>
</mask>
<g mask="url(#mask0_0_6510)">
<rect width="24" height="24" fill="#58585B"/>
</g>
</svg>
