<svg width="24" height="24" viewBox="0 0 24 24" fill="none" xmlns="http://www.w3.org/2000/svg">
<path fill-rule="evenodd" clip-rule="evenodd" d="M19.0526 5C20.0991 5 20.9474 5.96431 20.9474 7.15385V10.8327C20.6132 10.6833 20.2608 10.5684 19.8947 10.4923V7.15385C19.8947 6.60156 19.5335 6.14638 19.0682 6.08417L18.9591 6.07692H3.9883C3.50846 6.07692 3.11298 6.49266 3.05893 7.02825L3.05263 7.15385V13.6154C3.05263 14.1677 3.41384 14.6229 3.87918 14.6851L3.9883 14.6923H13.6842C13.6152 15.0403 13.5789 15.4004 13.5789 15.7692H3.89474C2.8483 15.7692 2 14.8049 2 13.6154V7.15385C2 5.96431 2.8483 5 3.89474 5H19.0526ZM18.2782 10.3846L18.3257 10.4102C17.1533 10.527 16.0936 11.0374 15.2744 11.8105C15.0562 11.7761 14.8541 11.6543 14.7355 11.4615C14.5219 11.118 14.6483 10.6791 15.0169 10.4807L15.1955 10.3846L15.0169 10.2886C14.6483 10.0901 14.5219 9.65123 14.7355 9.30769C14.9477 8.96483 15.4202 8.84919 15.7873 9.04479L15.9664 9.14111V8.94874C15.9664 8.55189 16.311 8.23077 16.7368 8.23077C17.1627 8.23077 17.5073 8.55189 17.5073 8.94874V9.14111L17.6863 9.04479C18.0551 8.84704 18.526 8.96341 18.7382 9.30769C18.9518 9.65123 18.8254 10.0901 18.4568 10.2886L18.2782 10.3846ZM7.16002 9.04479C7.52874 8.84704 7.99965 8.96341 8.21186 9.30769C8.4255 9.65123 8.29911 10.0901 7.93046 10.2886L7.75184 10.3846L7.93046 10.4807C8.29911 10.6791 8.4255 11.118 8.21186 11.4615C8.07044 11.6915 7.81013 11.8205 7.54528 11.8205C7.41433 11.8205 7.28194 11.7897 7.16009 11.7244L6.98104 11.6281V11.8205C6.98104 12.2173 6.63645 12.5385 6.2106 12.5385C5.78475 12.5385 5.44016 12.2173 5.44016 11.8205V11.6281L5.26096 11.7244C5.13912 11.7897 5.00672 11.8205 4.87578 11.8205C4.61099 11.8205 4.35062 11.6915 4.2092 11.4615C3.99555 11.118 4.12195 10.6791 4.49059 10.4807L4.66921 10.3846L4.49059 10.2886C4.12195 10.0901 3.99555 9.65123 4.2092 9.30769C4.4214 8.96483 4.89391 8.84919 5.26103 9.04479L5.44008 9.14111V8.94874C5.44008 8.55189 5.78468 8.23077 6.21053 8.23077C6.63638 8.23077 6.98097 8.55189 6.98097 8.94874V9.14111L7.16002 9.04479ZM13.475 9.30769C13.2628 8.96341 12.7919 8.84704 12.4232 9.04479L12.2441 9.14111V8.94874C12.2441 8.55189 11.8995 8.23077 11.4737 8.23077C11.0478 8.23077 10.7032 8.55189 10.7032 8.94874V9.14111L10.5242 9.04479C10.1571 8.84919 9.68456 8.96483 9.47235 9.30769C9.25871 9.65123 9.3851 10.0901 9.75375 10.2886L9.93237 10.3846L9.75375 10.4807C9.3851 10.6791 9.25871 11.118 9.47235 11.4615C9.61377 11.6915 9.87415 11.8205 10.1389 11.8205C10.2699 11.8205 10.4023 11.7897 10.5241 11.7244L10.7033 11.6281V11.8205C10.7033 12.2173 11.0479 12.5385 11.4738 12.5385C11.8996 12.5385 12.2442 12.2173 12.2442 11.8205V11.6281L12.4232 11.7244C12.5451 11.7897 12.6775 11.8205 12.8084 11.8205C13.0733 11.8205 13.3336 11.6915 13.475 11.4615C13.6887 11.118 13.5623 10.6791 13.1936 10.4807L13.015 10.3846L13.1936 10.2886C13.5623 10.0901 13.6887 9.65123 13.475 9.30769ZM18.922 12C17.6049 12 17 12.8684 17 13.4546C17 13.8779 17.3219 14.0733 17.5854 14.0733C17.8073 14.0733 17.8976 13.925 18.0022 13.7534C18.146 13.5175 18.3167 13.2375 18.8927 13.2375C19.3805 13.2375 19.7708 13.4763 19.7708 13.9756C19.7708 14.4552 19.405 14.7677 19.0956 15.0319C19.0269 15.0906 18.961 15.1469 18.9025 15.2022C18.6195 15.4735 18.2488 15.9186 18.2488 16.8521C18.2488 17.4165 18.3854 17.5794 18.7854 17.5794C19.2634 17.5794 19.361 17.3406 19.361 17.1343C19.361 16.5699 19.3707 16.2442 19.9073 15.7775C20.1707 15.5495 21 14.8114 21 13.791C21 12.7707 20.1707 12 18.922 12ZM18.7952 18.3284C18.3854 18.3284 18.0537 18.7083 18.0537 19.1641C18.0537 19.6092 18.3756 20 18.7952 20C19.2147 20 19.5464 19.6092 19.5464 19.1641C19.5464 18.7083 19.2049 18.3284 18.7952 18.3284Z" fill="#979797"/>
<mask id="mask0_0_5846" style="mask-type:alpha" maskUnits="userSpaceOnUse" x="2" y="5" width="19" height="15">
<path fill-rule="evenodd" clip-rule="evenodd" d="M19.0526 5C20.0991 5 20.9474 5.96431 20.9474 7.15385V10.8327C20.6132 10.6833 20.2608 10.5684 19.8947 10.4923V7.15385C19.8947 6.60156 19.5335 6.14638 19.0682 6.08417L18.9591 6.07692H3.9883C3.50846 6.07692 3.11298 6.49266 3.05893 7.02825L3.05263 7.15385V13.6154C3.05263 14.1677 3.41384 14.6229 3.87918 14.6851L3.9883 14.6923H13.6842C13.6152 15.0403 13.5789 15.4004 13.5789 15.7692H3.89474C2.8483 15.7692 2 14.8049 2 13.6154V7.15385C2 5.96431 2.8483 5 3.89474 5H19.0526ZM18.2782 10.3846L18.3257 10.4102C17.1533 10.527 16.0936 11.0374 15.2744 11.8105C15.0562 11.7761 14.8541 11.6543 14.7355 11.4615C14.5219 11.118 14.6483 10.6791 15.0169 10.4807L15.1955 10.3846L15.0169 10.2886C14.6483 10.0901 14.5219 9.65123 14.7355 9.30769C14.9477 8.96483 15.4202 8.84919 15.7873 9.04479L15.9664 9.14111V8.94874C15.9664 8.55189 16.311 8.23077 16.7368 8.23077C17.1627 8.23077 17.5073 8.55189 17.5073 8.94874V9.14111L17.6863 9.04479C18.0551 8.84704 18.526 8.96341 18.7382 9.30769C18.9518 9.65123 18.8254 10.0901 18.4568 10.2886L18.2782 10.3846ZM7.16002 9.04479C7.52874 8.84704 7.99965 8.96341 8.21186 9.30769C8.4255 9.65123 8.29911 10.0901 7.93046 10.2886L7.75184 10.3846L7.93046 10.4807C8.29911 10.6791 8.4255 11.118 8.21186 11.4615C8.07044 11.6915 7.81013 11.8205 7.54528 11.8205C7.41433 11.8205 7.28194 11.7897 7.16009 11.7244L6.98104 11.6281V11.8205C6.98104 12.2173 6.63645 12.5385 6.2106 12.5385C5.78475 12.5385 5.44016 12.2173 5.44016 11.8205V11.6281L5.26096 11.7244C5.13912 11.7897 5.00672 11.8205 4.87578 11.8205C4.61099 11.8205 4.35062 11.6915 4.2092 11.4615C3.99555 11.118 4.12195 10.6791 4.49059 10.4807L4.66921 10.3846L4.49059 10.2886C4.12195 10.0901 3.99555 9.65123 4.2092 9.30769C4.4214 8.96483 4.89391 8.84919 5.26103 9.04479L5.44008 9.14111V8.94874C5.44008 8.55189 5.78468 8.23077 6.21053 8.23077C6.63638 8.23077 6.98097 8.55189 6.98097 8.94874V9.14111L7.16002 9.04479ZM13.475 9.30769C13.2628 8.96341 12.7919 8.84704 12.4232 9.04479L12.2441 9.14111V8.94874C12.2441 8.55189 11.8995 8.23077 11.4737 8.23077C11.0478 8.23077 10.7032 8.55189 10.7032 8.94874V9.14111L10.5242 9.04479C10.1571 8.84919 9.68456 8.96483 9.47235 9.30769C9.25871 9.65123 9.3851 10.0901 9.75375 10.2886L9.93237 10.3846L9.75375 10.4807C9.3851 10.6791 9.25871 11.118 9.47235 11.4615C9.61377 11.6915 9.87415 11.8205 10.1389 11.8205C10.2699 11.8205 10.4023 11.7897 10.5241 11.7244L10.7033 11.6281V11.8205C10.7033 12.2173 11.0479 12.5385 11.4738 12.5385C11.8996 12.5385 12.2442 12.2173 12.2442 11.8205V11.6281L12.4232 11.7244C12.5451 11.7897 12.6775 11.8205 12.8084 11.8205C13.0733 11.8205 13.3336 11.6915 13.475 11.4615C13.6887 11.118 13.5623 10.6791 13.1936 10.4807L13.015 10.3846L13.1936 10.2886C13.5623 10.0901 13.6887 9.65123 13.475 9.30769ZM18.922 12C17.6049 12 17 12.8684 17 13.4546C17 13.8779 17.3219 14.0733 17.5854 14.0733C17.8073 14.0733 17.8976 13.925 18.0022 13.7534C18.146 13.5175 18.3167 13.2375 18.8927 13.2375C19.3805 13.2375 19.7708 13.4763 19.7708 13.9756C19.7708 14.4552 19.405 14.7677 19.0956 15.0319C19.0269 15.0906 18.961 15.1469 18.9025 15.2022C18.6195 15.4735 18.2488 15.9186 18.2488 16.8521C18.2488 17.4165 18.3854 17.5794 18.7854 17.5794C19.2634 17.5794 19.361 17.3406 19.361 17.1343C19.361 16.5699 19.3707 16.2442 19.9073 15.7775C20.1707 15.5495 21 14.8114 21 13.791C21 12.7707 20.1707 12 18.922 12ZM18.7952 18.3284C18.3854 18.3284 18.0537 18.7083 18.0537 19.1641C18.0537 19.6092 18.3756 20 18.7952 20C19.2147 20 19.5464 19.6092 19.5464 19.1641C19.5464 18.7083 19.2049 18.3284 18.7952 18.3284Z" fill="white"/>
</mask>
<g mask="url(#mask0_0_5846)">
<rect width="24" height="24" fill="#58585B"/>
</g>
</svg>
