<svg width="24" height="24" viewBox="0 0 24 24" fill="none" xmlns="http://www.w3.org/2000/svg">
<path fill-rule="evenodd" clip-rule="evenodd" d="M5.32612 2.28284C5.154 1.07797 6.08892 0 7.30602 0H16.694C17.9111 0 18.846 1.07798 18.6739 2.28284L18.6322 2.57447L19.7077 2.76775C20.4922 2.90875 21.116 3.50071 21.2573 4.28523C21.5536 5.93074 22 8.99215 22 12.5C22 16.1624 21.5134 19.8248 21.219 21.7049C21.0955 22.4939 20.4968 23.1109 19.7106 23.2514C18.0532 23.5476 15.0266 24 12 24C8.97342 24 5.94684 23.5476 4.28935 23.2514C3.5032 23.1109 2.90448 22.4939 2.78096 21.7049C2.48664 19.8248 2 16.1624 2 12.5C2 8.99684 2.44525 5.93893 2.74154 4.29184C2.88327 3.50398 3.51141 2.91054 4.29994 2.7726L5.36936 2.58552L5.32612 2.28284ZM18.2453 5.28284L18.3136 4.80483L18.3247 4.80798C18.7526 4.92966 19.1016 5.23628 19.2265 5.6633C19.5215 6.67213 20 8.86827 20 12.5C20 16.3266 19.4688 19.0906 19.1807 20.3082C19.0763 20.7494 18.7555 21.0963 18.3197 21.2214C17.2934 21.516 15.1307 22 12 22C8.86928 22 6.7066 21.516 5.68033 21.2214C5.24449 21.0963 4.92373 20.7494 4.81933 20.3082C4.53125 19.0906 4 16.3266 4 12.5C4 8.87732 4.47615 6.68309 4.77132 5.67087C4.89709 5.23959 5.25108 4.93085 5.68419 4.81156L5.68725 4.81072L5.75469 5.28284C5.89545 6.26814 6.73929 7 7.73459 7H16.2654C17.2607 7 18.1046 6.26814 18.2453 5.28284ZM7 16C7 15.4477 7.44772 15 8 15H16C16.5523 15 17 15.4477 17 16C17 16.5523 16.5523 17 16 17H8C7.44772 17 7 16.5523 7 16ZM8 10C7.44772 10 7 10.4477 7 11C7 11.5523 7.44772 12 8 12H16C16.5523 12 17 11.5523 17 11C17 10.4477 16.5523 10 16 10H8ZM8.38743 2C7.70487 2 7.2229 2.6687 7.43874 3.31623L7.77208 4.31623C7.90819 4.72457 8.29033 5 8.72076 5H15.2792C15.7097 5 16.0918 4.72457 16.2279 4.31623L16.5613 3.31623C16.7771 2.6687 16.2951 2 15.6126 2H8.38743Z" fill="#fff"/>
</svg>
