<svg width="24" height="24" viewBox="0 0 24 24" fill="none" xmlns="http://www.w3.org/2000/svg">
<path d="M2.75299 4.22847C2.89009 3.47326 3.47498 2.89512 4.2304 2.75915C5.87436 2.46325 8.93718 2 12 2C15.0628 2 18.1256 2.46325 19.7696 2.75915C20.525 2.89512 21.1099 3.47326 21.247 4.22847C21.5431 5.8597 22 8.95141 22 12.5C22 16.1624 21.5134 19.8248 21.219 21.7049C21.0955 22.4939 20.4968 23.1109 19.7106 23.2514C18.0532 23.5476 15.0266 24 12 24C8.97342 24 5.94684 23.5476 4.28935 23.2514C3.5032 23.1109 2.90448 22.4939 2.78096 21.7049C2.48664 19.8248 2 16.1624 2 12.5C2 8.95141 2.45687 5.8597 2.75299 4.22847Z" fill="#00AB4E"/>
<path d="M4.79996 5.57443C4.91309 5.20025 5.20354 4.91932 5.57835 4.80831C6.55879 4.51793 8.76146 4 12 4C15.2385 4 17.4412 4.51793 18.4216 4.80831C18.7965 4.91932 19.0869 5.20025 19.2 5.57443C19.4919 6.53969 20 8.75766 20 12.5C20 16.3266 19.4687 19.0906 19.1807 20.3082C19.0763 20.7494 18.7555 21.0963 18.3197 21.2214C17.2934 21.516 15.1307 22 12 22C8.86928 22 6.7066 21.516 5.68033 21.2214C5.24449 21.0963 4.92373 20.7494 4.81933 20.3082C4.53125 19.0906 4 16.3266 4 12.5C4 8.75766 4.50812 6.53969 4.79996 5.57443Z" fill="#99DCAB"/>
<rect x="7" y="15" width="10" height="2" rx="1" fill="#00AB4E"/>
<rect x="7" y="10" width="10" height="2" rx="1" fill="#00AB4E"/>
<path fill-rule="evenodd" clip-rule="evenodd" d="M5.32612 2.28284C5.154 1.07797 6.08892 0 7.30602 0H16.694C17.9111 0 18.846 1.07798 18.6739 2.28284L18.2453 5.28284C18.1046 6.26814 17.2607 7 16.2654 7H7.73459C6.73929 7 5.89545 6.26814 5.75469 5.28284L5.32612 2.28284Z" fill="#00AB4E"/>
<path fill-rule="evenodd" clip-rule="evenodd" d="M7.43874 3.31623C7.2229 2.6687 7.70487 2 8.38743 2L15.6126 2C16.2951 2 16.7771 2.6687 16.5613 3.31623L16.2279 4.31623C16.0918 4.72457 15.7097 5 15.2792 5H8.72076C8.29033 5 7.90819 4.72457 7.77208 4.31623L7.43874 3.31623Z" fill="#99DCAB"/>
</svg>
