<svg width="80" height="80" viewBox="0 0 80 80" fill="none" xmlns="http://www.w3.org/2000/svg">
<path fill-rule="evenodd" clip-rule="evenodd" d="M57.0129 10C48.9783 10 42.4574 16.5208 42.4574 24.5554C42.4574 32.59 48.9783 39.1109 57.0129 39.1109C65.0475 39.1109 71.5683 32.59 71.5683 24.5554C71.5683 16.5208 65.0475 10 57.0129 10ZM62.8351 26.011H58.4684V30.3776C58.4684 31.1782 57.8134 31.8332 57.0129 31.8332C56.2123 31.8332 55.5573 31.1782 55.5573 30.3776V26.011H51.1907C50.3901 26.011 49.7352 25.356 49.7352 24.5554C49.7352 23.7549 50.3901 23.0999 51.1907 23.0999H55.5573V18.7333C55.5573 17.9327 56.2123 17.2777 57.0129 17.2777C57.8134 17.2777 58.4684 17.9327 58.4684 18.7333V23.0999H62.8351C63.6356 23.0999 64.2906 23.7549 64.2906 24.5554C64.2906 25.356 63.6356 26.011 62.8351 26.011ZM41.3408 16.669C41.5117 16.6696 41.6821 16.6703 41.852 16.6711C41.1107 18.0888 40.5618 19.6229 40.2402 21.2385L39.9964 21.2381C30.929 21.2381 23.3371 21.5474 17.1667 22.0446L14.7743 22.2532C13.0963 22.4125 11.7649 23.8264 11.585 25.6465C11.245 29.0723 11.0162 33.6103 10.9452 39.3941L10.9238 42.1525L10.9333 46.1311C10.9789 51.552 11.1585 55.9315 11.4375 59.3779L11.5851 61.0239C11.765 62.8415 13.0975 64.2574 14.7728 64.4163C20.5453 64.9597 27.7612 65.3323 36.447 65.4124L39.9998 65.4286C50.2429 65.4286 58.6355 65.0357 65.1054 64.4254C66.7884 64.2675 68.121 62.8661 68.3015 61.0662C68.7822 56.2757 69.0779 50.3559 69.0779 43.3333C69.0779 41.0797 69.0474 38.9395 68.9901 36.9137C70.7132 35.2435 72.0873 33.2151 72.9917 30.9491C73.2098 34.6253 73.3332 38.7559 73.3332 43.3333C73.3332 50.5194 73.0293 56.6028 72.5323 61.556C72.134 65.5283 69.1832 68.6315 65.4767 68.9794C59.6592 69.5281 52.3441 69.9031 43.5818 69.9837L39.9998 70C30.8118 70 23.0977 69.6868 16.8299 69.182L14.3999 68.9702C10.6911 68.6183 7.74786 65.491 7.35365 61.5076C6.97565 57.6952 6.73305 52.6479 6.67831 46.1858L6.6665 43.3291L6.67656 40.7079C6.72052 35.0697 6.90626 30.5003 7.19865 26.8891L7.35358 25.1628C7.74764 21.1767 10.6901 18.0515 14.4014 17.6994C21.0903 17.0698 29.5955 16.6667 39.9998 16.6667L41.3408 16.669ZM28.6523 25.8095C23.5595 25.8095 19.4325 30.2432 19.4325 35.7143C19.4325 39.0328 20.9508 41.9696 23.282 43.7669C18.5124 45.996 15.1771 51.1036 15.1771 57.0476C15.1771 58.31 16.1297 59.3333 17.3048 59.3333H39.9998C41.1749 59.3333 42.1275 58.31 42.1275 57.0476C42.1275 51.1036 38.7922 45.996 34.0226 43.7669C36.3538 41.9696 37.8722 39.0328 37.8722 35.7143C37.8722 30.2432 33.7451 25.8095 28.6523 25.8095ZM28.6523 30.381C31.395 30.381 33.6169 32.7679 33.6169 35.7143C33.6169 38.6607 31.395 41.0476 28.6523 41.0476C25.9097 41.0476 23.6878 38.6607 23.6878 35.7143C23.6878 32.7679 25.9097 30.381 28.6523 30.381ZM37.5202 54.3281C36.4658 50.3532 33.158 47.3979 29.1755 47.1585L28.6523 47.1429C24.4386 47.1429 20.8846 50.1803 19.7844 54.3281L19.6793 54.7619H37.6225L37.5202 54.3281ZM61.9856 49.4286C61.9856 48.1662 61.0331 47.1429 59.858 47.1429H48.5105L48.2218 47.1637C47.1833 47.3151 46.3828 48.2714 46.3828 49.4286C46.3828 50.6909 47.3354 51.7143 48.5105 51.7143H59.858L60.1467 51.6934C61.1852 51.5421 61.9856 50.5857 61.9856 49.4286Z" fill="#70717D"/>
<mask id="mask0" style="mask-type:alpha" maskUnits="userSpaceOnUse" x="6" y="10" width="68" height="60">
<path fill-rule="evenodd" clip-rule="evenodd" d="M57.0129 10C48.9783 10 42.4574 16.5208 42.4574 24.5554C42.4574 32.59 48.9783 39.1109 57.0129 39.1109C65.0475 39.1109 71.5683 32.59 71.5683 24.5554C71.5683 16.5208 65.0475 10 57.0129 10ZM62.8351 26.011H58.4684V30.3776C58.4684 31.1782 57.8134 31.8332 57.0129 31.8332C56.2123 31.8332 55.5573 31.1782 55.5573 30.3776V26.011H51.1907C50.3901 26.011 49.7352 25.356 49.7352 24.5554C49.7352 23.7549 50.3901 23.0999 51.1907 23.0999H55.5573V18.7333C55.5573 17.9327 56.2123 17.2777 57.0129 17.2777C57.8134 17.2777 58.4684 17.9327 58.4684 18.7333V23.0999H62.8351C63.6356 23.0999 64.2906 23.7549 64.2906 24.5554C64.2906 25.356 63.6356 26.011 62.8351 26.011ZM41.3408 16.669C41.5117 16.6696 41.6821 16.6703 41.852 16.6711C41.1107 18.0888 40.5618 19.6229 40.2402 21.2385L39.9964 21.2381C30.929 21.2381 23.3371 21.5474 17.1667 22.0446L14.7743 22.2532C13.0963 22.4125 11.7649 23.8264 11.585 25.6465C11.245 29.0723 11.0162 33.6103 10.9452 39.3941L10.9238 42.1525L10.9333 46.1311C10.9789 51.552 11.1585 55.9315 11.4375 59.3779L11.5851 61.0239C11.765 62.8415 13.0975 64.2574 14.7728 64.4163C20.5453 64.9597 27.7612 65.3323 36.447 65.4124L39.9998 65.4286C50.2429 65.4286 58.6355 65.0357 65.1054 64.4254C66.7884 64.2675 68.121 62.8661 68.3015 61.0662C68.7822 56.2757 69.0779 50.3559 69.0779 43.3333C69.0779 41.0797 69.0474 38.9395 68.9901 36.9137C70.7132 35.2435 72.0873 33.2151 72.9917 30.9491C73.2098 34.6253 73.3332 38.7559 73.3332 43.3333C73.3332 50.5194 73.0293 56.6028 72.5323 61.556C72.134 65.5283 69.1832 68.6315 65.4767 68.9794C59.6592 69.5281 52.3441 69.9031 43.5818 69.9837L39.9998 70C30.8118 70 23.0977 69.6868 16.8299 69.182L14.3999 68.9702C10.6911 68.6183 7.74786 65.491 7.35365 61.5076C6.97565 57.6952 6.73305 52.6479 6.67831 46.1858L6.6665 43.3291L6.67656 40.7079C6.72052 35.0697 6.90626 30.5003 7.19865 26.8891L7.35358 25.1628C7.74764 21.1767 10.6901 18.0515 14.4014 17.6994C21.0903 17.0698 29.5955 16.6667 39.9998 16.6667L41.3408 16.669ZM28.6523 25.8095C23.5595 25.8095 19.4325 30.2432 19.4325 35.7143C19.4325 39.0328 20.9508 41.9696 23.282 43.7669C18.5124 45.996 15.1771 51.1036 15.1771 57.0476C15.1771 58.31 16.1297 59.3333 17.3048 59.3333H39.9998C41.1749 59.3333 42.1275 58.31 42.1275 57.0476C42.1275 51.1036 38.7922 45.996 34.0226 43.7669C36.3538 41.9696 37.8722 39.0328 37.8722 35.7143C37.8722 30.2432 33.7451 25.8095 28.6523 25.8095ZM28.6523 30.381C31.395 30.381 33.6169 32.7679 33.6169 35.7143C33.6169 38.6607 31.395 41.0476 28.6523 41.0476C25.9097 41.0476 23.6878 38.6607 23.6878 35.7143C23.6878 32.7679 25.9097 30.381 28.6523 30.381ZM37.5202 54.3281C36.4658 50.3532 33.158 47.3979 29.1755 47.1585L28.6523 47.1429C24.4386 47.1429 20.8846 50.1803 19.7844 54.3281L19.6793 54.7619H37.6225L37.5202 54.3281ZM61.9856 49.4286C61.9856 48.1662 61.0331 47.1429 59.858 47.1429H48.5105L48.2218 47.1637C47.1833 47.3151 46.3828 48.2714 46.3828 49.4286C46.3828 50.6909 47.3354 51.7143 48.5105 51.7143H59.858L60.1467 51.6934C61.1852 51.5421 61.9856 50.5857 61.9856 49.4286Z" fill="white"/>
</mask>
<g mask="url(#mask0)">
<rect width="80" height="80" fill="#58585B"/>
</g>
</svg>
