<svg width="48" height="48" viewBox="0 0 48 48" fill="none" xmlns="http://www.w3.org/2000/svg">
<g id="icon product/Sub-Menu/Emas/Kartu Emas">
<g id="icon product/Sub-Menu/Emas/Beli">
<g id="Group">
<rect id="Rectangle" x="6" y="12" width="36" height="24" rx="3" fill="#CC9D3F"/>
<g id="Object">
<mask id="mask0_0_6675" style="mask-type:alpha" maskUnits="userSpaceOnUse" x="6" y="12" width="36" height="24">
<rect id="Rectangle_2" x="6" y="12" width="36" height="24" rx="3" fill="white"/>
</mask>
<g mask="url(#mask0_0_6675)">
<rect id="Rectangle_3" x="3" y="11" width="36" height="24" rx="3" fill="#FFC54F"/>
<rect id="Rectangle_4" x="27" y="20" width="9" height="2" rx="1" fill="#CC9D3F"/>
<rect id="Rectangle_5" x="27" y="25" width="9" height="2" rx="1" fill="#CC9D3F"/>
</g>
</g>
<path id="Fill 13" fill-rule="evenodd" clip-rule="evenodd" d="M22.3774 26.9268C21.6148 27.0244 12.3852 27.0244 11.6232 26.9268C11.2218 26.8757 10.9428 26.514 11.01 26.1258C11.0994 25.6135 11.2776 24.7428 11.637 23.3146C12.0594 21.6342 12.357 20.8365 12.5298 20.4649C12.6246 20.2611 12.81 20.1145 13.0356 20.0707C13.5168 19.9764 20.4832 19.9764 20.9644 20.0707C21.19 20.1145 21.3754 20.2611 21.4702 20.4649C21.643 20.8365 21.9406 21.6342 22.363 23.3146C22.7224 24.7428 22.9012 25.6135 22.99 26.1258C23.0572 26.514 22.7782 26.8757 22.3774 26.9268Z" fill="#CC9D3F"/>
<mask id="mask1_0_6675" style="mask-type:alpha" maskUnits="userSpaceOnUse" x="11" y="20" width="12" height="7">
<path id="Fill 13_2" fill-rule="evenodd" clip-rule="evenodd" d="M22.3774 26.9268C21.6148 27.0244 12.3852 27.0244 11.6232 26.9268C11.2218 26.8757 10.9428 26.514 11.01 26.1258C11.0994 25.6135 11.2776 24.7428 11.637 23.3146C12.0594 21.6342 12.357 20.8365 12.5298 20.4649C12.6246 20.2611 12.81 20.1145 13.0356 20.0707C13.5168 19.9764 20.4832 19.9764 20.9644 20.0707C21.19 20.1145 21.3754 20.2611 21.4702 20.4649C21.643 20.8365 21.9406 21.6342 22.363 23.3146C22.7224 24.7428 22.9012 25.6135 22.99 26.1258C23.0572 26.514 22.7782 26.8757 22.3774 26.9268Z" fill="white"/>
</mask>
<g mask="url(#mask1_0_6675)">
</g>
</g>
</g>
</g>
</svg>
