<svg width="24" height="24" viewBox="0 0 24 24" fill="none" xmlns="http://www.w3.org/2000/svg">
<g id="icon system/C/Chevron/Right">
<path id="Mask" d="M9.00249 15.8725L12.8825 11.9925L9.00249 8.11253C8.61249 7.72253 8.61249 7.09253 9.00249 6.70253C9.39249 6.31253 10.0225 6.31253 10.4125 6.70253L15.0025 11.2925C15.3925 11.6825 15.3925 12.3125 15.0025 12.7025L10.4125 17.2925C10.0225 17.6825 9.39249 17.6825 9.00249 17.2925C8.62249 16.9025 8.61249 16.2625 9.00249 15.8725Z" fill="black"/>
<mask id="mask0_0_5354" style="mask-type:alpha" maskUnits="userSpaceOnUse" x="8" y="6" width="8" height="12">
<path id="Mask_2" d="M9.00249 15.8725L12.8825 11.9925L9.00249 8.11253C8.61249 7.72253 8.61249 7.09253 9.00249 6.70253C9.39249 6.31253 10.0225 6.31253 10.4125 6.70253L15.0025 11.2925C15.3925 11.6825 15.3925 12.3125 15.0025 12.7025L10.4125 17.2925C10.0225 17.6825 9.39249 17.6825 9.00249 17.2925C8.62249 16.9025 8.61249 16.2625 9.00249 15.8725Z" fill="white"/>
</mask>
<g mask="url(#mask0_0_5354)">
<g id="Color/1. Shades/2. Secondary">
<rect id="color" width="24" height="24" fill="#58585B"/>
</g>
</g>
</g>
</svg>
