<svg width="24" height="24" viewBox="0 0 24 24" fill="none" xmlns="http://www.w3.org/2000/svg">
<g id="icon system/B/Birthday">
<path id="Combined Shape" fill-rule="evenodd" clip-rule="evenodd" d="M12.2051 2C10.8544 2 9.74359 4.30472 9.74359 5.88085C9.74359 7.08245 10.6306 8.08035 11.7949 8.27284V9.2766H6.37292C5.06239 9.2766 4 10.3234 4 11.6148V13.117V18.6618C4 19.9532 5.06239 21 6.37292 21H17.6271C18.9376 21 20 19.9532 20 18.6618V13.117V11.6148C20 10.3234 18.9376 9.2766 17.6271 9.2766H13.0256V8.16834C13.9817 7.83531 14.6667 6.93673 14.6667 5.88085C14.6667 4.30472 13.5559 2 12.2051 2ZM12.2051 3.21277C12.6262 3.21277 13.4359 4.89267 13.4359 5.88085C13.4359 6.55045 12.8848 7.09362 12.2051 7.09362C11.5254 7.09362 10.9744 6.55045 10.9744 5.88085C10.9744 4.89267 11.784 3.21277 12.2051 3.21277ZM18.7692 13.117L18.7692 13.117L18.765 13.2416C18.7 14.1883 17.9003 14.9362 16.9231 14.9362C15.9034 14.9362 15.0769 14.1218 15.0769 13.117C15.0769 12.7821 14.8014 12.5106 14.4615 12.5106C14.1217 12.5106 13.8462 12.7821 13.8462 13.117L13.8419 13.2416C13.7769 14.1883 12.9772 14.9362 12 14.9362C10.9803 14.9362 10.1538 14.1218 10.1538 13.117C10.1538 12.7821 9.87833 12.5106 9.53846 12.5106C9.19859 12.5106 8.92308 12.7821 8.92308 13.117L8.91882 13.2416C8.85387 14.1883 8.05416 14.9362 7.07692 14.9362C6.0572 14.9362 5.23077 14.1218 5.23077 13.117V11.6148C5.23077 10.9932 5.74212 10.4894 6.37292 10.4894H17.6271C18.2579 10.4894 18.7692 10.9932 18.7692 11.6148L18.7692 13.117ZM16.9231 16.1489C15.9165 16.1489 15.0229 15.6728 14.4615 14.9366C13.9002 15.6728 13.0066 16.1489 12 16.1489C10.9934 16.1489 10.0998 15.6728 9.53846 14.9366C8.97711 15.6728 8.0835 16.1489 7.07692 16.1489C6.38422 16.1489 5.74501 15.9234 5.23077 15.5428V18.6618C5.23077 19.2834 5.74212 19.7872 6.37292 19.7872H17.6271C18.2579 19.7872 18.7692 19.2834 18.7692 18.6618V15.5428C18.255 15.9234 17.6158 16.1489 16.9231 16.1489Z" fill="#70717D"/>
<mask id="mask0_0_5208" style="mask-type:alpha" maskUnits="userSpaceOnUse" x="4" y="2" width="16" height="19">
<path id="Combined Shape_2" fill-rule="evenodd" clip-rule="evenodd" d="M12.2051 2C10.8544 2 9.74359 4.30472 9.74359 5.88085C9.74359 7.08245 10.6306 8.08035 11.7949 8.27284V9.2766H6.37292C5.06239 9.2766 4 10.3234 4 11.6148V13.117V18.6618C4 19.9532 5.06239 21 6.37292 21H17.6271C18.9376 21 20 19.9532 20 18.6618V13.117V11.6148C20 10.3234 18.9376 9.2766 17.6271 9.2766H13.0256V8.16834C13.9817 7.83531 14.6667 6.93673 14.6667 5.88085C14.6667 4.30472 13.5559 2 12.2051 2ZM12.2051 3.21277C12.6262 3.21277 13.4359 4.89267 13.4359 5.88085C13.4359 6.55045 12.8848 7.09362 12.2051 7.09362C11.5254 7.09362 10.9744 6.55045 10.9744 5.88085C10.9744 4.89267 11.784 3.21277 12.2051 3.21277ZM18.7692 13.117L18.7692 13.117L18.765 13.2416C18.7 14.1883 17.9003 14.9362 16.9231 14.9362C15.9034 14.9362 15.0769 14.1218 15.0769 13.117C15.0769 12.7821 14.8014 12.5106 14.4615 12.5106C14.1217 12.5106 13.8462 12.7821 13.8462 13.117L13.8419 13.2416C13.7769 14.1883 12.9772 14.9362 12 14.9362C10.9803 14.9362 10.1538 14.1218 10.1538 13.117C10.1538 12.7821 9.87833 12.5106 9.53846 12.5106C9.19859 12.5106 8.92308 12.7821 8.92308 13.117L8.91882 13.2416C8.85387 14.1883 8.05416 14.9362 7.07692 14.9362C6.0572 14.9362 5.23077 14.1218 5.23077 13.117V11.6148C5.23077 10.9932 5.74212 10.4894 6.37292 10.4894H17.6271C18.2579 10.4894 18.7692 10.9932 18.7692 11.6148L18.7692 13.117ZM16.9231 16.1489C15.9165 16.1489 15.0229 15.6728 14.4615 14.9366C13.9002 15.6728 13.0066 16.1489 12 16.1489C10.9934 16.1489 10.0998 15.6728 9.53846 14.9366C8.97711 15.6728 8.0835 16.1489 7.07692 16.1489C6.38422 16.1489 5.74501 15.9234 5.23077 15.5428V18.6618C5.23077 19.2834 5.74212 19.7872 6.37292 19.7872H17.6271C18.2579 19.7872 18.7692 19.2834 18.7692 18.6618V15.5428C18.255 15.9234 17.6158 16.1489 16.9231 16.1489Z" fill="white"/>
</mask>
<g mask="url(#mask0_0_5208)">
<g id="Color/1. Shades/2. Secondary">
<rect id="color" width="24" height="24" fill="#58585B"/>
</g>
</g>
</g>
</svg>
