<svg width="48" height="48" viewBox="0 0 48 48" fill="none" xmlns="http://www.w3.org/2000/svg">
<g id="icon product/Sub-Menu/Pembayaran &#38; Topup/Bayar Gadai">
<g id="Group 32">
<g id="Group 5">
<g id="Group 32_2">
<path id="Stroke 3" fill-rule="evenodd" clip-rule="evenodd" d="M12.4999 13L5.99988 31V32.5H18.9999V31L12.4999 13Z" stroke="#00662E" stroke-width="1.5" stroke-linecap="round" stroke-linejoin="round"/>
<path id="Fill 23" d="M19.9999 32.9636V31H4.99988V32.9636C4.99988 32.9636 4.99987 39 12.4999 39C19.9999 39 19.9999 32.9636 19.9999 32.9636Z" fill="#00883E"/>
<path id="Fill 24" d="M16.9999 32.9634V30.9998H4.99991C4.99991 30.9998 4.99982 30.4269 4.99991 32.9634C5 35.5 6.99991 39 11.4999 38.9998C16.7542 39.0001 16.9999 34 16.9999 32.9634Z" fill="#00AB4E"/>
</g>
</g>
<g id="Group 153">
<g id="Group 32_3">
<path id="Stroke 3_2" fill-rule="evenodd" clip-rule="evenodd" d="M35.4999 13L28.9999 31V32.5H41.9999V31L35.4999 13Z" stroke="#00662E" stroke-width="1.5" stroke-linecap="round" stroke-linejoin="round"/>
<path id="Fill 23_2" d="M42.9999 32.9636V31H27.9999V32.9636C27.9999 32.9636 27.9999 39 35.4999 39C42.9999 39 42.9999 32.9636 42.9999 32.9636Z" fill="#00883E"/>
<path id="Fill 24_2" d="M39.9999 32.9634V30.9998H27.9999C27.9999 30.9998 27.9998 30.4269 27.9999 32.9634C28 35.5 29.9999 39 34.4999 38.9998C39.7542 39.0001 39.9999 34 39.9999 32.9634Z" fill="#00AB4E"/>
</g>
</g>
<g id="Group 152">
<path id="Rectangle 115" d="M7.99988 14.6331C7.99988 14.2465 8.21805 13.8971 8.57097 13.7394C10.717 12.7799 18.4584 9.5 23.9999 9.5C29.5413 9.5 37.2828 12.7799 39.4288 13.7394C39.7817 13.8971 39.9999 14.2465 39.9999 14.6331V16.4C39.9999 16.9523 39.5522 17.4 38.9999 17.4H37.3027C37.1052 17.4 36.9135 17.3408 36.7458 17.2365C33.6728 15.3241 27.9122 14 23.9999 14C19.0579 14 12.2799 16.355 9.39301 17.451C8.72529 17.7045 7.99988 17.2118 7.99988 16.4975V14.6331Z" fill="#00883E"/>
<path id="Rectangle 116" d="M7.99988 14.6331C7.99988 14.2465 8.21805 13.8971 8.57097 13.7394C10.717 12.7799 18.4584 9.5 23.9999 9.5C29.5049 9.5 35.7425 12.7369 37.5102 13.7201C37.8173 13.891 37.9999 14.2151 37.9999 14.5665V16.3395C37.9999 17.093 37.1938 17.5916 36.5085 17.2785C33.9868 16.1265 28.696 14 23.9999 14C19.0579 14 12.2799 16.355 9.39301 17.451C8.72529 17.7045 7.99988 17.2118 7.99988 16.4975V14.6331Z" fill="#00AB4E"/>
</g>
<g id="Group 29">
<path id="Fill 21" fill-rule="evenodd" clip-rule="evenodd" d="M25.9999 11.4995C25.9999 12.881 24.8802 14 23.4999 14C22.1196 14 20.9999 12.881 20.9999 11.4995C20.9999 10.119 22.1196 9 23.4999 9C24.8802 9 25.9999 10.119 25.9999 11.4995Z" fill="#9BB20E"/>
<path id="Fill 21_2" fill-rule="evenodd" clip-rule="evenodd" d="M24.9999 11.4995C24.9999 12.881 23.8802 14 22.4999 14C21.1196 14 19.9999 12.881 19.9999 11.4995C19.9999 10.119 21.1196 9 22.4999 9C23.8802 9 24.9999 10.119 24.9999 11.4995Z" fill="#BFD730"/>
</g>
</g>
<g id="Group 22">
<path id="Stroke 10" d="M42.5 35C42.5 39.1425 39.1425 42.5 35 42.5C30.8575 42.5 27.5 39.1425 27.5 35C27.5 30.8575 30.8575 27.5 35 27.5C39.1425 27.5 42.5 30.8575 42.5 35Z" fill="#E07E26" stroke="white"/>
<path id="Rp" fill-rule="evenodd" clip-rule="evenodd" d="M31.8455 34.909V37.0763H30.7V31.5H33.1099C33.7248 31.5 34.1897 31.6437 34.5046 31.9311C34.8194 32.2185 34.9769 32.6337 34.9769 33.1768C34.9769 33.5987 34.8665 33.952 34.6459 34.2367C34.4252 34.5215 34.1141 34.7087 33.7124 34.7983C33.9851 34.8721 34.2157 35.0804 34.4041 35.4232L35.2521 37.0763H33.9876L33.0802 35.2966C33.0058 35.1595 32.9165 35.0606 32.8124 35C32.7083 34.9394 32.5769 34.909 32.4182 34.909H31.8455ZM31.8306 33.9757H32.9389C33.2711 33.9757 33.5116 33.9137 33.6603 33.7898C33.8091 33.6659 33.8835 33.4721 33.8835 33.2085C33.8835 32.9395 33.8091 32.7444 33.6603 32.6232C33.5116 32.5019 33.2711 32.4412 32.9389 32.4412H31.8306V33.9757ZM36.9479 38.5V36.5226C37.057 36.7177 37.212 36.8693 37.4128 36.9774C37.6136 37.0855 37.838 37.1395 38.086 37.1395C38.4033 37.1395 38.6835 37.0578 38.9265 36.8944C39.1694 36.7309 39.3591 36.4976 39.4955 36.1944C39.6318 35.8911 39.7 35.5392 39.7 35.1384C39.7 34.7377 39.6318 34.3831 39.4955 34.0746C39.3591 33.7661 39.1682 33.5262 38.9227 33.3548C38.6773 33.1834 38.3984 33.0977 38.086 33.0977C37.8331 33.0977 37.605 33.1544 37.4017 33.2678C37.1984 33.3812 37.0422 33.538 36.9331 33.7384V33.1927H35.8248V38.5H36.9479ZM37.1488 35.9412C37.2926 36.1337 37.4959 36.2299 37.7587 36.2299C38.0215 36.2299 38.2248 36.1363 38.3686 35.9492C38.5124 35.762 38.5843 35.4917 38.5843 35.1384C38.5843 34.7798 38.5124 34.5017 38.3686 34.304C38.2248 34.1062 38.0215 34.0073 37.7587 34.0073C37.4959 34.0073 37.2926 34.1036 37.1488 34.296C37.005 34.4885 36.9331 34.764 36.9331 35.1226C36.9331 35.4759 37.005 35.7488 37.1488 35.9412Z" fill="white"/>
</g>
</g>
</svg>
