<svg width="48" height="48" viewBox="0 0 48 48" fill="none" xmlns="http://www.w3.org/2000/svg">
<path fill-rule="evenodd" clip-rule="evenodd" d="M12 9C12 7.34315 13.3431 6 15 6H33C34.6569 6 36 7.34315 36 9V39C36 40.6569 34.6569 42 33 42H15C13.3431 42 12 40.6569 12 39V9Z" fill="#CC9D3F"/>
<mask id="mask0_0_10617" style="mask-type:alpha" maskUnits="userSpaceOnUse" x="12" y="6" width="24" height="36">
<path fill-rule="evenodd" clip-rule="evenodd" d="M12 9C12 7.34315 13.3431 6 15 6H33C34.6569 6 36 7.34315 36 9V39C36 40.6569 34.6569 42 33 42H15C13.3431 42 12 40.6569 12 39V9Z" fill="white"/>
</mask>
<g mask="url(#mask0_0_10617)">
<rect x="9" y="6" width="24" height="36" rx="3" fill="#FFC54F"/>
<path fill-rule="evenodd" clip-rule="evenodd" d="M21.5106 10.3329L16.6939 13.9646C16.1045 14.4085 15.8569 15.1984 16.0826 15.9185L17.9217 21.7941C18.1473 22.5141 18.7941 23 19.5233 23H25.4767C26.2059 23 26.8527 22.5141 27.0783 21.7941L28.9174 15.9185C29.1431 15.1984 28.8955 14.4085 28.3061 13.9646L23.4894 10.3329C22.9 9.88902 22.1 9.88902 21.5106 10.3329Z" fill="#FFC54F" stroke="#CC9D3F"/>
<path d="M22.591 13.3294C22.4694 13.3294 22.3495 13.3227 22.2301 13.3305C21.7696 13.3619 21.3314 13.4824 20.9134 13.6764C20.6294 13.8082 20.3688 13.9781 20.1307 14.1844C19.455 14.7704 19.0342 15.4993 18.8762 16.3795C18.8285 16.6464 18.8017 16.9172 18.8218 17.1869C18.8829 17.9983 19.1518 18.7316 19.6813 19.3579C20.2456 20.0257 20.956 20.4569 21.8166 20.6099C22.9899 20.8191 24.0405 20.5337 24.9392 19.7459C25.597 19.1701 25.9993 18.4395 26.1276 17.5755C26.3002 16.4177 25.9909 15.3938 25.2115 14.5169C25.0305 14.3134 24.8255 14.1362 24.6014 13.9815C24.5621 13.9545 24.5644 13.9388 24.5941 13.9069C24.7594 13.7331 24.9235 13.5581 25.0866 13.3821C25.1157 13.3507 25.1348 13.3484 25.1695 13.3748C26.0335 14.0258 26.6033 14.8735 26.8689 15.9231C26.9787 16.3577 27.0185 16.8006 26.9922 17.2475C26.9473 18.0207 26.7249 18.7395 26.3092 19.3938C25.9937 19.89 25.6015 20.3161 25.1213 20.6587C24.5134 21.0921 23.8416 21.3691 23.1009 21.4605C21.8015 21.6209 20.6338 21.294 19.6231 20.4574C18.782 19.7611 18.2694 18.864 18.071 17.7897C18.0055 17.4336 17.9853 17.0742 18.0105 16.712C18.0839 15.6742 18.4621 14.7647 19.1558 13.9904C19.7648 13.3114 20.5151 12.8606 21.3992 12.6347C21.8833 12.5113 22.3741 12.476 22.8717 12.5153C23.3351 12.5517 23.7805 12.6599 24.2103 12.836C24.2321 12.8449 24.2579 12.8489 24.2764 12.8713C24.2629 12.8864 24.25 12.9016 24.236 12.9156C23.9195 13.2363 23.6068 13.5609 23.2852 13.8761C23.135 14.0235 22.9821 14.1682 22.8364 14.319C22.0116 15.1735 21.1611 16.0033 20.3246 16.846C20.2865 16.8842 20.2893 16.9032 20.3257 16.9397C21.081 17.6932 21.8357 18.4479 22.5887 19.2043C22.6285 19.2441 22.6465 19.2363 22.6812 19.2015C23.3255 18.555 23.9704 17.9097 24.6165 17.266C24.6563 17.2267 24.6568 17.206 24.617 17.1667C24.3677 16.9212 24.1206 16.6739 23.8752 16.425C23.8371 16.3863 23.813 16.3857 23.7805 16.4266C23.7609 16.4513 23.7368 16.4715 23.7144 16.4939C23.4404 16.7642 23.1636 17.0327 22.893 17.3064C22.8145 17.3854 22.7389 17.4678 22.6621 17.5486C22.6386 17.5732 22.624 17.5749 22.5988 17.5491C22.4145 17.3624 22.2296 17.1768 22.0424 16.9924C22.0088 16.9593 22.024 16.9425 22.0486 16.9178C22.6291 16.338 23.209 15.7577 23.7895 15.1774C23.7912 15.1757 23.7928 15.1746 23.794 15.1724C23.8158 15.141 23.8354 15.1421 23.8612 15.1712C23.8982 15.2133 23.9396 15.2509 23.9794 15.2907C24.6042 15.9158 25.2283 16.541 25.8547 17.1651C25.8957 17.206 25.899 17.2262 25.8559 17.2694C25.0894 18.0341 24.3262 18.8023 23.5575 19.5648C23.4068 19.7145 23.2499 19.8586 23.1042 20.0134C22.9647 20.162 22.8168 20.3021 22.6773 20.4502C22.6459 20.4838 22.6274 20.486 22.5932 20.4518C21.4233 19.2789 20.2523 18.1065 19.0801 16.9363C19.0364 16.8931 19.0555 16.8741 19.0874 16.8421C20.0198 15.9102 20.9515 14.9778 21.8839 14.0459C22.1041 13.8256 22.3248 13.6052 22.5445 13.3843C22.5607 13.3686 22.5831 13.3557 22.591 13.3294Z" fill="#CC9D3F"/>
<path fill-rule="evenodd" clip-rule="evenodd" d="M20.1 34.0717C20.7827 34.0717 21.304 33.8237 21.664 33.3277C22.024 32.8317 22.204 32.1144 22.204 31.1757C22.204 30.2477 22.0227 29.537 21.66 29.0437C21.2973 28.5504 20.7773 28.3037 20.1 28.3037C19.4227 28.3037 18.9027 28.5504 18.54 29.0437C18.1773 29.537 17.996 30.2477 17.996 31.1757C17.996 32.1144 18.176 32.8317 18.536 33.3277C18.896 33.8237 19.4173 34.0717 20.1 34.0717ZM17.42 33.9997V32.9997H16.204V28.3597H15.316L13.524 29.4077L13.996 30.3037L14.956 29.7437V32.9997H13.74V33.9997H17.42ZM19.424 32.6557C19.5653 32.965 19.7907 33.1197 20.1 33.1197C20.4093 33.1197 20.6347 32.965 20.776 32.6557C20.9173 32.3464 20.988 31.853 20.988 31.1757C20.988 30.5037 20.9173 30.0157 20.776 29.7117C20.6347 29.4077 20.4093 29.2557 20.1 29.2557C19.7907 29.2557 19.5653 29.4077 19.424 29.7117C19.2827 30.0157 19.212 30.5037 19.212 31.1757C19.212 31.853 19.2827 32.3464 19.424 32.6557ZM24.9 34.0717C25.5827 34.0717 26.104 33.8237 26.464 33.3277C26.824 32.8317 27.004 32.1144 27.004 31.1757C27.004 30.2477 26.8227 29.537 26.46 29.0437C26.0973 28.5504 25.5773 28.3037 24.9 28.3037C24.2227 28.3037 23.7027 28.5504 23.34 29.0437C22.9773 29.537 22.796 30.2477 22.796 31.1757C22.796 32.1144 22.976 32.8317 23.336 33.3277C23.696 33.8237 24.2173 34.0717 24.9 34.0717ZM24.224 32.6557C24.3653 32.965 24.5907 33.1197 24.9 33.1197C25.2093 33.1197 25.4347 32.965 25.576 32.6557C25.7173 32.3464 25.788 31.853 25.788 31.1757C25.788 30.5037 25.7173 30.0157 25.576 29.7117C25.4347 29.4077 25.2093 29.2557 24.9 29.2557C24.5907 29.2557 24.3653 29.4077 24.224 29.7117C24.0827 30.0157 24.012 30.5037 24.012 31.1757C24.012 31.853 24.0827 32.3464 24.224 32.6557ZM29.7 34.0717C30.3827 34.0717 30.904 33.8237 31.264 33.3277C31.624 32.8317 31.804 32.1144 31.804 31.1757C31.804 30.2477 31.6227 29.537 31.26 29.0437C30.8973 28.5504 30.3773 28.3037 29.7 28.3037C29.0227 28.3037 28.5027 28.5504 28.14 29.0437C27.7773 29.537 27.596 30.2477 27.596 31.1757C27.596 32.1144 27.776 32.8317 28.136 33.3277C28.496 33.8237 29.0173 34.0717 29.7 34.0717ZM29.024 32.6557C29.1653 32.965 29.3907 33.1197 29.7 33.1197C30.0093 33.1197 30.2347 32.965 30.376 32.6557C30.5173 32.3464 30.588 31.853 30.588 31.1757C30.588 30.5037 30.5173 30.0157 30.376 29.7117C30.2347 29.4077 30.0093 29.2557 29.7 29.2557C29.3907 29.2557 29.1653 29.4077 29.024 29.7117C28.8827 30.0157 28.812 30.5037 28.812 31.1757C28.812 31.853 28.8827 32.3464 29.024 32.6557Z" fill="#CC9D3F"/>
</g>
</svg>
