<svg width="24" height="24" viewBox="0 0 24 24" fill="none" xmlns="http://www.w3.org/2000/svg">
<g id="icon system/M/Minus/Round_fill">
<circle id="Combined Shape" cx="12" cy="12" r="9.5" stroke="#CACCCF"/>
<mask id="mask0_0_5897" style="mask-type:alpha" maskUnits="userSpaceOnUse" x="2" y="2" width="20" height="20">
<circle id="Combined Shape_2" cx="12" cy="12" r="9.5" fill="white" stroke="white"/>
</mask>
<g mask="url(#mask0_0_5897)">
<g id="Color/1. Shades/2. Secondary">
<rect id="color" width="24" height="24" fill="#58585B"/>
</g>
<g id="Icon System/M/Minus/Outline">
<path id="Line" d="M17.0526 11.0526C17.5758 11.0526 18 11.4768 18 12C18 12.4925 17.6243 12.8971 17.1439 12.943L17.0526 12.9474H6.94737C6.42415 12.9474 6 12.5232 6 12C6 11.5076 6.37572 11.1029 6.85613 11.057L6.94737 11.0526H17.0526Z" fill="#979797"/>
<mask id="mask1_0_5897" style="mask-type:alpha" maskUnits="userSpaceOnUse" x="6" y="11" width="12" height="2">
<path id="Line_2" d="M17.0526 11.0526C17.5758 11.0526 18 11.4768 18 12C18 12.4925 17.6243 12.8971 17.1439 12.943L17.0526 12.9474H6.94737C6.42415 12.9474 6 12.5232 6 12C6 11.5076 6.37572 11.1029 6.85613 11.057L6.94737 11.0526H17.0526Z" fill="white"/>
</mask>
<g mask="url(#mask1_0_5897)">
<g id="color/White">
<rect width="16" height="16" transform="translate(4 4)" fill="white"/>
<rect id="color_2" x="4" y="4" width="16" height="16" fill="white"/>
</g>
</g>
</g>
</g>
</g>
</svg>
