<svg width="48" height="48" viewBox="0 0 48 48" fill="none" xmlns="http://www.w3.org/2000/svg">
<path fill-rule="evenodd" clip-rule="evenodd" d="M12 9C12 7.34315 13.3431 6 15 6H33C34.6569 6 36 7.34315 36 9V39C36 40.6569 34.6569 42 33 42H15C13.3431 42 12 40.6569 12 39V9Z" fill="#CC9D3F"/>
<mask id="mask0_0_7099" style="mask-type:alpha" maskUnits="userSpaceOnUse" x="12" y="6" width="24" height="36">
<path fill-rule="evenodd" clip-rule="evenodd" d="M12 9C12 7.34315 13.3431 6 15 6H33C34.6569 6 36 7.34315 36 9V39C36 40.6569 34.6569 42 33 42H15C13.3431 42 12 40.6569 12 39V9Z" fill="white"/>
</mask>
<g mask="url(#mask0_0_7099)">
<rect x="9" y="6" width="24" height="36" rx="3" fill="#FFC54F"/>
<path fill-rule="evenodd" clip-rule="evenodd" d="M21.5106 10.3329L16.6939 13.9646C16.1045 14.4085 15.8569 15.1984 16.0826 15.9185L17.9217 21.7941C18.1473 22.5141 18.7941 23 19.5233 23H25.4767C26.2059 23 26.8527 22.5141 27.0783 21.7941L28.9174 15.9185C29.1431 15.1984 28.8955 14.4085 28.3061 13.9646L23.4894 10.3329C22.9 9.88902 22.1 9.88902 21.5106 10.3329Z" fill="#FFC54F" stroke="#CC9D3F"/>
<path fill-rule="evenodd" clip-rule="evenodd" d="M19.3788 17.0576C19.3828 17.63 19.424 18.1964 19.5654 18.7263C19.6709 19.1216 19.834 19.4978 20.0816 19.8443C20.3291 19.4978 20.4916 19.1216 20.5971 18.7263C20.7385 18.1964 20.7796 17.63 20.7837 17.0576L21.1185 17.0588L21.4535 17.0576C21.4585 17.8914 21.5097 18.7172 21.6863 19.4934C21.8259 20.1076 22.0453 20.6913 22.3845 21.2248C22.7236 20.6913 22.9425 20.1076 23.0821 19.4934C23.2586 18.7173 23.3099 17.8915 23.3149 17.0576L23.6497 17.0588L23.9847 17.0576C23.9888 17.63 24.0299 18.1964 24.1713 18.7263C24.2768 19.1216 24.4399 19.4978 24.6875 19.8443C24.935 19.4978 25.0975 19.1216 25.203 18.7263C25.3444 18.1964 25.3855 17.63 25.3896 17.0576L26.0316 17.0598C26.0273 17.6728 25.9822 18.2827 25.8272 18.8634C25.668 19.4599 25.3941 20.0229 24.9338 20.5232L24.6873 20.7911L24.4405 20.5232C24.1331 20.1891 23.9096 19.8269 23.7471 19.4458C23.7359 19.5007 23.7238 19.5556 23.7115 19.6101C23.5217 20.4449 23.1951 21.2331 22.6461 21.934L22.3844 22.2681L22.1224 21.934C21.5732 21.2331 21.2467 20.4449 21.0569 19.6101C21.0446 19.5558 21.0331 19.501 21.0219 19.4463C20.8594 19.8272 20.635 20.1894 20.3279 20.5232L20.0814 20.7911L19.8346 20.5232C19.3742 20.0227 19.1005 19.4599 18.9412 18.8634C18.7862 18.2827 18.7411 17.6728 18.7368 17.0598L19.3788 17.0576Z" fill="#CC9D3F"/>
<path fill-rule="evenodd" clip-rule="evenodd" d="M19.422 16.3378C19.4347 15.8547 19.4823 15.3789 19.6074 14.9301C19.7142 14.5473 19.8793 14.1828 20.1298 13.8473C20.3803 14.1828 20.5447 14.5473 20.6514 14.9301C20.7636 15.3322 20.8132 15.7561 20.8315 16.1873C20.4822 16.2182 20.1328 16.2539 19.7828 16.2944C19.6626 16.3082 19.5423 16.3228 19.422 16.3378ZM21.525 16.1325C21.5444 15.4665 21.6055 14.8102 21.7537 14.1871C21.8949 13.5924 22.1169 13.027 22.4601 12.5104C22.8033 13.027 23.0248 13.5924 23.166 14.1871C23.3149 14.8135 23.3756 15.4734 23.3947 16.1433C23.0575 16.1184 22.7208 16.0979 22.3842 16.0824C22.0982 16.0956 21.8117 16.1124 21.525 16.1325ZM24.0872 16.201C24.1051 15.7651 24.1549 15.3364 24.2683 14.9301C24.375 14.5473 24.54 14.1828 24.7905 13.8473C25.041 14.1828 25.2054 14.5473 25.3122 14.9301C25.439 15.3848 25.4859 15.8673 25.4979 16.3569C25.327 16.335 25.1564 16.314 24.9856 16.2944C24.6859 16.2597 24.3864 16.2286 24.0872 16.201ZM26.1494 16.4459C26.1408 15.8853 26.092 15.3286 25.9438 14.7973C25.7827 14.2197 25.5055 13.6744 25.0398 13.1899L24.7903 12.9304L24.5406 13.1899C24.2295 13.5134 24.0034 13.8642 23.839 14.2333C23.8276 14.18 23.8154 14.1269 23.803 14.0742C23.6108 13.2657 23.2804 12.5024 22.7248 11.8237L22.46 11.5L22.1949 11.8237C21.6392 12.5024 21.3089 13.2657 21.1167 14.0742C21.1043 14.1268 21.0927 14.1798 21.0812 14.2328C20.9169 13.8639 20.6898 13.5131 20.3791 13.1899L20.1296 12.9304L19.8799 13.1899C19.414 13.6745 19.137 14.2197 18.9758 14.7973C18.8295 15.3218 18.7801 15.871 18.7706 16.4243C18.1814 16.5072 17.591 16.6028 17 16.7105C18.8034 16.6472 20.5987 16.6082 22.3842 16.5975C24.1698 16.6082 25.965 16.6472 27.7684 16.7105C27.2281 16.612 26.6883 16.5237 26.1494 16.4459Z" fill="#CC9D3F"/>
<path d="M22.452 34.0644C22.8893 34.0644 23.272 33.9857 23.6 33.8284C23.928 33.671 24.1813 33.4484 24.36 33.1604C24.5386 32.8724 24.628 32.539 24.628 32.1604C24.628 31.803 24.5533 31.4884 24.404 31.2164C24.2546 30.9444 24.044 30.7324 23.772 30.5804C23.5 30.4284 23.1906 30.3524 22.844 30.3524C22.4973 30.3524 22.196 30.4244 21.94 30.5684V29.3124H24.356V28.3604H20.724V31.6964H21.436C21.5853 31.5737 21.752 31.4777 21.936 31.4084C22.12 31.339 22.3053 31.3044 22.492 31.3044C22.7906 31.3044 23.0266 31.3844 23.2 31.5444C23.3733 31.7044 23.46 31.923 23.46 32.2004C23.46 32.4937 23.376 32.715 23.208 32.8644C23.04 33.0137 22.7933 33.0884 22.468 33.0884C21.956 33.0884 21.4413 32.907 20.924 32.5444L20.532 33.4324C20.7506 33.6244 21.036 33.7777 21.388 33.8924C21.74 34.007 22.0946 34.0644 22.452 34.0644Z" fill="#CC9D3F"/>
</g>
</svg>
