<svg width="48" height="48" viewBox="0 0 48 48" fill="none" xmlns="http://www.w3.org/2000/svg">
<g id="icon product/Sub-Menu/Gadai/Sertifikat">
<g id="Group">
<path id="Rectangle" fill-rule="evenodd" clip-rule="evenodd" d="M10 10C10 7.79086 11.7909 6 14 6L40 6L39.9971 6.95014C38.3423 6.94861 37 8.28965 37 9.94444V38C37 40.2091 35.2091 42 33 42H10V10Z" fill="#00AB4E"/>
<path id="Rectangle_2" fill-rule="evenodd" clip-rule="evenodd" d="M37 9C37 7.34315 38.3431 6 40 6C41.6569 6 43 7.34315 43 9V12C43 12.5523 42.5523 13 42 13H37V9Z" fill="#00883E"/>
<path id="Rectangle_3" fill-rule="evenodd" clip-rule="evenodd" d="M5 38.0004C5 40.2096 6.79086 42.0004 9 42.0004H34C31.7911 42.0013 30 40.2108 30 38.002V35.3504C30 35.1571 29.8433 35.0004 29.6501 35.0004H6C5.44772 35.0004 5 35.4481 5 36.0004V38.0004Z" fill="#00883E"/>
<rect id="Rectangle_4" x="14" y="29" width="19" height="3" rx="1.5" fill="white"/>
<rect id="Rectangle_5" x="19" y="15" width="14" height="3" rx="1.5" fill="white"/>
<path id="Rectangle_6" fill-rule="evenodd" clip-rule="evenodd" d="M19 23.5C19 22.6716 19.6716 22 20.5 22H31.5C32.3284 22 33 22.6716 33 23.5C33 24.3284 32.3284 25 31.5 25H20.5C19.6716 25 19 24.3284 19 23.5Z" fill="white"/>
</g>
<g id="Group 2">
<path id="Rectangle_7" fill-rule="evenodd" clip-rule="evenodd" d="M8.5 18L15.5 18V26.8276C15.5 27.8053 14.2414 28.2021 13.6808 27.4011L12 25L10.3192 27.4011C9.75855 28.2021 8.5 27.8053 8.5 26.8276V18Z" fill="#CC9D3F"/>
<path id="Rectangle_8" fill-rule="evenodd" clip-rule="evenodd" d="M8.5 16L15.5 16V24.8276C15.5 25.8053 14.2414 26.2021 13.6808 25.4011L12 23L10.3192 25.4011C9.75855 26.2021 8.5 25.8053 8.5 24.8276V16Z" fill="#FFC54F"/>
<g id="Group 3">
<circle id="Oval" cx="12" cy="15" r="5" fill="#CC9D3F"/>
<mask id="mask0_0_11611" style="mask-type:alpha" maskUnits="userSpaceOnUse" x="7" y="10" width="10" height="10">
<circle id="Oval_2" cx="12" cy="15" r="5" fill="white"/>
</mask>
<g mask="url(#mask0_0_11611)">
<circle id="Oval_3" cx="11" cy="14" r="4.5" fill="#FFC54F"/>
</g>
</g>
</g>
</g>
</svg>
