<svg width="48" height="48" viewBox="0 0 48 48" fill="none" xmlns="http://www.w3.org/2000/svg">
<path fill-rule="evenodd" clip-rule="evenodd" d="M12 9C12 7.34315 13.3431 6 15 6H33C34.6569 6 36 7.34315 36 9V39C36 40.6569 34.6569 42 33 42H15C13.3431 42 12 40.6569 12 39V9Z" fill="#CC9D3F"/>
<mask id="mask0_0_8329" style="mask-type:alpha" maskUnits="userSpaceOnUse" x="12" y="6" width="24" height="36">
<path fill-rule="evenodd" clip-rule="evenodd" d="M12 9C12 7.34315 13.3431 6 15 6H33C34.6569 6 36 7.34315 36 9V39C36 40.6569 34.6569 42 33 42H15C13.3431 42 12 40.6569 12 39V9Z" fill="white"/>
</mask>
<g mask="url(#mask0_0_8329)">
<mask id="mask1_0_8329" style="mask-type:alpha" maskUnits="userSpaceOnUse" x="9" y="6" width="24" height="36">
<rect x="9" y="6" width="24" height="36" rx="3" fill="white"/>
</mask>
<g mask="url(#mask1_0_8329)">
<path d="M20.3175 11.493C20.6942 11.1163 21.2059 10.854 21.5266 10.715C21.5268 10.7154 21.527 10.7159 21.5273 10.7164L21.9173 11.7305C22.1209 12.2599 22.8699 12.2599 23.0735 11.7305L23.4635 10.7164C23.4637 10.7159 23.464 10.7154 23.4642 10.715C23.7849 10.854 24.2966 11.1163 24.6733 11.493C25.05 11.8697 25.3123 12.3814 25.4514 12.7022C25.4509 12.7024 25.4504 12.7026 25.4499 12.7028L24.4359 13.0928C23.9065 13.2964 23.9065 14.0454 24.4359 14.2491L25.4499 14.6391C25.4504 14.6393 25.4509 14.6395 25.4514 14.6397C25.3123 14.9605 25.05 15.4721 24.6733 15.8488C24.2966 16.2255 23.7849 16.4878 23.4642 16.6269C23.464 16.6265 23.4637 16.626 23.4635 16.6254L23.0735 15.6114C22.8699 15.082 22.1209 15.082 21.9173 15.6114L21.5273 16.6254C21.527 16.626 21.5268 16.6265 21.5266 16.6269C21.2059 16.4878 20.6942 16.2255 20.3175 15.8488C19.9408 15.4721 19.6785 14.9605 19.5394 14.6397C19.5399 14.6395 19.5404 14.6393 19.5409 14.6391L20.5549 14.2491C21.0843 14.0454 21.0843 13.2964 20.5549 13.0928L19.5409 12.7028C19.5404 12.7026 19.5399 12.7024 19.5394 12.7022C19.6785 12.3814 19.9408 11.8697 20.3175 11.493Z" fill="#CC9D3F" stroke="#FFC54F" stroke-width="0.601362" stroke-linejoin="round"/>
<path fill-rule="evenodd" clip-rule="evenodd" d="M21.5392 12.3959C21.5392 12.5719 21.3965 12.7146 21.2205 12.7146C21.0444 12.7146 20.9017 12.5719 20.9017 12.3959C20.9017 12.2199 21.0444 12.0771 21.2205 12.0771C21.3965 12.0771 21.5392 12.2199 21.5392 12.3959ZM24.0891 12.3959C24.0891 12.5719 23.9464 12.7146 23.7703 12.7146C23.5943 12.7146 23.4516 12.5719 23.4516 12.3959C23.4516 12.2199 23.5943 12.0771 23.7703 12.0771C23.9464 12.0771 24.0891 12.2199 24.0891 12.3959ZM23.7703 15.2645C23.9464 15.2645 24.0891 15.1218 24.0891 14.9458C24.0891 14.7697 23.9464 14.627 23.7703 14.627C23.5943 14.627 23.4516 14.7697 23.4516 14.9458C23.4516 15.1218 23.5943 15.2645 23.7703 15.2645ZM22.7345 13.2568L22.9735 13.6708L22.7345 14.0849L22.2564 14.0849L22.0173 13.6708L22.2564 13.2568H22.7345ZM21.2205 15.2645C21.3965 15.2645 21.5392 15.1218 21.5392 14.9458C21.5392 14.7697 21.3965 14.627 21.2205 14.627C21.0444 14.627 20.9017 14.7697 20.9017 14.9458C20.9017 15.1218 21.0444 15.2645 21.2205 15.2645Z" fill="#FEC346"/>
<path d="M20.3175 22.1415C20.6942 21.7648 21.2059 21.5025 21.5266 21.3634C21.5268 21.3638 21.527 21.3643 21.5273 21.3649L21.9173 22.3789C22.1209 22.9083 22.8699 22.9083 23.0735 22.3789L23.4635 21.3649C23.4637 21.3643 23.464 21.3638 23.4642 21.3634C23.7849 21.5025 24.2966 21.7648 24.6733 22.1415C25.05 22.5182 25.3123 23.0298 25.4514 23.3506C25.4509 23.3508 25.4504 23.351 25.4499 23.3512L24.4359 23.7412C23.9065 23.9449 23.9065 24.6939 24.4359 24.8975L25.4499 25.2875C25.4504 25.2877 25.4509 25.2879 25.4514 25.2881C25.3123 25.6089 25.05 26.1206 24.6733 26.4973C24.2966 26.874 23.7849 27.1363 23.4642 27.2753C23.464 27.2749 23.4637 27.2744 23.4635 27.2739L23.0735 26.2598C22.8699 25.7304 22.1209 25.7304 21.9173 26.2598L21.5273 27.2739C21.527 27.2744 21.5268 27.2749 21.5266 27.2753C21.2059 27.1363 20.6942 26.874 20.3175 26.4973C19.9408 26.1206 19.6785 25.6089 19.5394 25.2881C19.5399 25.2879 19.5404 25.2877 19.5409 25.2875L20.5549 24.8975C21.0843 24.6939 21.0843 23.9449 20.5549 23.7412L19.5409 23.3512C19.5404 23.351 19.5399 23.3508 19.5394 23.3506C19.6785 23.0298 19.9408 22.5182 20.3175 22.1415Z" fill="#CC9D3F" stroke="#FFC54F" stroke-width="0.601362" stroke-linejoin="round"/>
<path fill-rule="evenodd" clip-rule="evenodd" d="M21.5392 23.0443C21.5392 23.2204 21.3965 23.3631 21.2205 23.3631C21.0444 23.3631 20.9017 23.2204 20.9017 23.0443C20.9017 22.8683 21.0444 22.7256 21.2205 22.7256C21.3965 22.7256 21.5392 22.8683 21.5392 23.0443ZM24.0891 23.0443C24.0891 23.2204 23.9464 23.3631 23.7703 23.3631C23.5943 23.3631 23.4516 23.2204 23.4516 23.0443C23.4516 22.8683 23.5943 22.7256 23.7703 22.7256C23.9464 22.7256 24.0891 22.8683 24.0891 23.0443ZM23.7703 25.9129C23.9464 25.9129 24.0891 25.7702 24.0891 25.5942C24.0891 25.4182 23.9464 25.2755 23.7703 25.2755C23.5943 25.2755 23.4516 25.4182 23.4516 25.5942C23.4516 25.7702 23.5943 25.9129 23.7703 25.9129ZM22.7345 23.9052L22.9735 24.3193L22.7345 24.7333L22.2564 24.7333L22.0173 24.3193L22.2564 23.9052H22.7345ZM21.2205 25.9129C21.3965 25.9129 21.5392 25.7702 21.5392 25.5942C21.5392 25.4182 21.3965 25.2755 21.2205 25.2755C21.0444 25.2755 20.9017 25.4182 20.9017 25.5942C20.9017 25.7702 21.0444 25.9129 21.2205 25.9129Z" fill="#FEC346"/>
<path d="M20.3175 32.7899C20.6942 32.4132 21.2059 32.1509 21.5266 32.0118C21.5268 32.0123 21.527 32.0128 21.5273 32.0133L21.9173 33.0273C22.1209 33.5567 22.8699 33.5567 23.0735 33.0273L23.4635 32.0133C23.4637 32.0128 23.464 32.0123 23.4642 32.0118C23.7849 32.1509 24.2966 32.4132 24.6733 32.7899C25.05 33.1666 25.3123 33.6783 25.4514 33.999C25.4509 33.9992 25.4504 33.9995 25.4499 33.9997L24.4359 34.3897C23.9065 34.5933 23.9065 35.3423 24.4359 35.5459L25.4499 35.9359C25.4504 35.9362 25.4509 35.9364 25.4514 35.9366C25.3123 36.2573 25.05 36.769 24.6733 37.1457C24.2966 37.5224 23.7849 37.7847 23.4642 37.9238C23.464 37.9233 23.4637 37.9228 23.4635 37.9223L23.0735 36.9083C22.8699 36.3789 22.1209 36.3789 21.9173 36.9083L21.5273 37.9223C21.527 37.9228 21.5268 37.9233 21.5266 37.9238C21.2059 37.7847 20.6942 37.5224 20.3175 37.1457C19.9408 36.769 19.6785 36.2573 19.5394 35.9366C19.5399 35.9364 19.5404 35.9362 19.5409 35.9359L20.5549 35.5459C21.0843 35.3423 21.0843 34.5933 20.5549 34.3897L19.5409 33.9997C19.5404 33.9995 19.5399 33.9992 19.5394 33.999C19.6785 33.6783 19.9408 33.1666 20.3175 32.7899Z" fill="#C09226" stroke="#FEC346" stroke-width="0.601362" stroke-linejoin="round"/>
<path fill-rule="evenodd" clip-rule="evenodd" d="M21.5392 33.6928C21.5392 33.8688 21.3965 34.0115 21.2205 34.0115C21.0444 34.0115 20.9017 33.8688 20.9017 33.6928C20.9017 33.5167 21.0444 33.374 21.2205 33.374C21.3965 33.374 21.5392 33.5167 21.5392 33.6928ZM24.0891 33.6928C24.0891 33.8688 23.9464 34.0115 23.7703 34.0115C23.5943 34.0115 23.4516 33.8688 23.4516 33.6928C23.4516 33.5167 23.5943 33.374 23.7703 33.374C23.9464 33.374 24.0891 33.5167 24.0891 33.6928ZM23.7703 36.5614C23.9464 36.5614 24.0891 36.4187 24.0891 36.2426C24.0891 36.0666 23.9464 35.9239 23.7703 35.9239C23.5943 35.9239 23.4516 36.0666 23.4516 36.2426C23.4516 36.4187 23.5943 36.5614 23.7703 36.5614ZM22.7345 34.5536L22.9735 34.9677L22.7345 35.3817L22.2564 35.3817L22.0173 34.9677L22.2564 34.5536H22.7345ZM21.2205 36.5614C21.3965 36.5614 21.5392 36.4187 21.5392 36.2426C21.5392 36.0666 21.3965 35.9239 21.2205 35.9239C21.0444 35.9239 20.9017 36.0666 20.9017 36.2426C20.9017 36.4187 21.0444 36.5614 21.2205 36.5614Z" fill="#FEC346"/>
<path d="M30.9661 11.493C31.3428 11.1163 31.8544 10.854 32.1752 10.715C32.1754 10.7154 32.1756 10.7159 32.1758 10.7164L32.5658 11.7305C32.7694 12.2599 33.5185 12.2599 33.7221 11.7305L34.1121 10.7164C34.1123 10.7159 34.1125 10.7154 34.1127 10.715C34.4335 10.854 34.9452 11.1163 35.3218 11.493C35.6985 11.8697 35.9609 12.3814 36.0999 12.7022C36.0995 12.7024 36.099 12.7026 36.0985 12.7028L35.0844 13.0928C34.555 13.2964 34.555 14.0454 35.0844 14.2491L36.0985 14.6391C36.099 14.6393 36.0995 14.6395 36.0999 14.6397C35.9609 14.9605 35.6985 15.4721 35.3218 15.8488C34.9452 16.2255 34.4335 16.4878 34.1127 16.6269C34.1125 16.6265 34.1123 16.626 34.1121 16.6254L33.7221 15.6114C33.5185 15.082 32.7694 15.082 32.5658 15.6114L32.1758 16.6254C32.1756 16.626 32.1754 16.6265 32.1752 16.6269C31.8544 16.4878 31.3428 16.2255 30.9661 15.8488C30.5894 15.4721 30.327 14.9605 30.188 14.6397C30.1884 14.6395 30.1889 14.6393 30.1895 14.6391L31.2035 14.2491C31.7329 14.0454 31.7329 13.2964 31.2035 13.0928L30.1895 12.7028C30.1889 12.7026 30.1884 12.7024 30.188 12.7022C30.327 12.3814 30.5894 11.8697 30.9661 11.493Z" fill="#CC9D3F" stroke="#FFC54F" stroke-width="0.601362" stroke-linejoin="round"/>
<path fill-rule="evenodd" clip-rule="evenodd" d="M32.1878 12.3959C32.1878 12.5719 32.0451 12.7146 31.869 12.7146C31.693 12.7146 31.5503 12.5719 31.5503 12.3959C31.5503 12.2199 31.693 12.0771 31.869 12.0771C32.0451 12.0771 32.1878 12.2199 32.1878 12.3959ZM34.7376 12.3959C34.7376 12.5719 34.5949 12.7146 34.4189 12.7146C34.2429 12.7146 34.1002 12.5719 34.1002 12.3959C34.1002 12.2199 34.2429 12.0771 34.4189 12.0771C34.5949 12.0771 34.7376 12.2199 34.7376 12.3959ZM34.4189 15.2645C34.5949 15.2645 34.7376 15.1218 34.7376 14.9458C34.7376 14.7697 34.5949 14.627 34.4189 14.627C34.2429 14.627 34.1002 14.7697 34.1002 14.9458C34.1002 15.1218 34.2429 15.2645 34.4189 15.2645ZM33.383 13.2568L33.6221 13.6708L33.383 14.0849L32.9049 14.0849L32.6659 13.6708L32.9049 13.2568H33.383ZM31.869 15.2645C32.0451 15.2645 32.1878 15.1218 32.1878 14.9458C32.1878 14.7697 32.0451 14.627 31.869 14.627C31.693 14.627 31.5503 14.7697 31.5503 14.9458C31.5503 15.1218 31.693 15.2645 31.869 15.2645Z" fill="#FEC346"/>
<path d="M30.9661 22.1415C31.3428 21.7648 31.8544 21.5025 32.1752 21.3634C32.1754 21.3638 32.1756 21.3643 32.1758 21.3649L32.5658 22.3789C32.7694 22.9083 33.5185 22.9083 33.7221 22.3789L34.1121 21.3649C34.1123 21.3643 34.1125 21.3638 34.1127 21.3634C34.4335 21.5025 34.9452 21.7648 35.3218 22.1415C35.6985 22.5182 35.9609 23.0298 36.0999 23.3506C36.0995 23.3508 36.099 23.351 36.0985 23.3512L35.0844 23.7412C34.555 23.9449 34.555 24.6939 35.0844 24.8975L36.0985 25.2875C36.099 25.2877 36.0995 25.2879 36.0999 25.2881C35.9609 25.6089 35.6985 26.1206 35.3218 26.4973C34.9452 26.874 34.4335 27.1363 34.1127 27.2753C34.1125 27.2749 34.1123 27.2744 34.1121 27.2739L33.7221 26.2598C33.5185 25.7304 32.7694 25.7304 32.5658 26.2598L32.1758 27.2739C32.1756 27.2744 32.1754 27.2749 32.1752 27.2753C31.8544 27.1363 31.3428 26.874 30.9661 26.4973C30.5894 26.1206 30.327 25.6089 30.188 25.2881C30.1884 25.2879 30.1889 25.2877 30.1895 25.2875L31.2035 24.8975C31.7329 24.6939 31.7329 23.9449 31.2035 23.7412L30.1895 23.3512C30.1889 23.351 30.1884 23.3508 30.188 23.3506C30.327 23.0298 30.5894 22.5182 30.9661 22.1415Z" fill="#CC9D3F" stroke="#FFC54F" stroke-width="0.601362" stroke-linejoin="round"/>
<path fill-rule="evenodd" clip-rule="evenodd" d="M32.1878 23.0443C32.1878 23.2204 32.0451 23.3631 31.869 23.3631C31.693 23.3631 31.5503 23.2204 31.5503 23.0443C31.5503 22.8683 31.693 22.7256 31.869 22.7256C32.0451 22.7256 32.1878 22.8683 32.1878 23.0443ZM34.7376 23.0443C34.7376 23.2204 34.5949 23.3631 34.4189 23.3631C34.2429 23.3631 34.1002 23.2204 34.1002 23.0443C34.1002 22.8683 34.2429 22.7256 34.4189 22.7256C34.5949 22.7256 34.7376 22.8683 34.7376 23.0443ZM34.4189 25.9129C34.5949 25.9129 34.7376 25.7702 34.7376 25.5942C34.7376 25.4182 34.5949 25.2755 34.4189 25.2755C34.2429 25.2755 34.1002 25.4182 34.1002 25.5942C34.1002 25.7702 34.2429 25.9129 34.4189 25.9129ZM33.383 23.9052L33.6221 24.3193L33.383 24.7333L32.9049 24.7333L32.6659 24.3193L32.9049 23.9052H33.383ZM31.869 25.9129C32.0451 25.9129 32.1878 25.7702 32.1878 25.5942C32.1878 25.4182 32.0451 25.2755 31.869 25.2755C31.693 25.2755 31.5503 25.4182 31.5503 25.5942C31.5503 25.7702 31.693 25.9129 31.869 25.9129Z" fill="#FEC346"/>
<path d="M30.9661 32.7899C31.3428 32.4132 31.8544 32.1509 32.1752 32.0118C32.1754 32.0123 32.1756 32.0128 32.1758 32.0133L32.5658 33.0273C32.7694 33.5567 33.5185 33.5567 33.7221 33.0273L34.1121 32.0133C34.1123 32.0128 34.1125 32.0123 34.1127 32.0118C34.4335 32.1509 34.9452 32.4132 35.3218 32.7899C35.6985 33.1666 35.9609 33.6783 36.0999 33.999C36.0995 33.9992 36.099 33.9995 36.0985 33.9997L35.0844 34.3897C34.555 34.5933 34.555 35.3423 35.0844 35.5459L36.0985 35.9359C36.099 35.9362 36.0995 35.9364 36.0999 35.9366C35.9609 36.2573 35.6985 36.769 35.3218 37.1457C34.9452 37.5224 34.4335 37.7847 34.1127 37.9238C34.1125 37.9233 34.1123 37.9228 34.1121 37.9223L33.7221 36.9083C33.5185 36.3789 32.7694 36.3789 32.5658 36.9083L32.1758 37.9223C32.1756 37.9228 32.1754 37.9233 32.1752 37.9238C31.8544 37.7847 31.3428 37.5224 30.9661 37.1457C30.5894 36.769 30.327 36.2573 30.188 35.9366C30.1884 35.9364 30.1889 35.9362 30.1895 35.9359L31.2035 35.5459C31.7329 35.3423 31.7329 34.5933 31.2035 34.3897L30.1895 33.9997C30.1889 33.9995 30.1884 33.9992 30.188 33.999C30.327 33.6783 30.5894 33.1666 30.9661 32.7899Z" fill="#CC9D3F" stroke="#FFC54F" stroke-width="0.601362" stroke-linejoin="round"/>
<path fill-rule="evenodd" clip-rule="evenodd" d="M32.1878 33.6928C32.1878 33.8688 32.0451 34.0115 31.869 34.0115C31.693 34.0115 31.5503 33.8688 31.5503 33.6928C31.5503 33.5167 31.693 33.374 31.869 33.374C32.0451 33.374 32.1878 33.5167 32.1878 33.6928ZM34.7376 33.6928C34.7376 33.8688 34.5949 34.0115 34.4189 34.0115C34.2429 34.0115 34.1002 33.8688 34.1002 33.6928C34.1002 33.5167 34.2429 33.374 34.4189 33.374C34.5949 33.374 34.7376 33.5167 34.7376 33.6928ZM34.4189 36.5614C34.5949 36.5614 34.7376 36.4187 34.7376 36.2426C34.7376 36.0666 34.5949 35.9239 34.4189 35.9239C34.2429 35.9239 34.1002 36.0666 34.1002 36.2426C34.1002 36.4187 34.2429 36.5614 34.4189 36.5614ZM33.383 34.5536L33.6221 34.9677L33.383 35.3817L32.9049 35.3817L32.6659 34.9677L32.9049 34.5536H33.383ZM31.869 36.5614C32.0451 36.5614 32.1878 36.4187 32.1878 36.2426C32.1878 36.0666 32.0451 35.9239 31.869 35.9239C31.693 35.9239 31.5503 36.0666 31.5503 36.2426C31.5503 36.4187 31.693 36.5614 31.869 36.5614Z" fill="#FEC346"/>
<path d="M9.66882 11.493C10.0455 11.1163 10.5572 10.854 10.8779 10.715C10.8782 10.7154 10.8784 10.7159 10.8786 10.7164L11.2686 11.7305C11.4722 12.2599 12.2212 12.2599 12.4248 11.7305L12.8149 10.7164C12.8151 10.7159 12.8153 10.7154 12.8155 10.715C13.1362 10.854 13.6479 11.1163 14.0246 11.493C14.4013 11.8697 14.6636 12.3814 14.8027 12.7022C14.8022 12.7024 14.8018 12.7026 14.8012 12.7028L13.7872 13.0928C13.2578 13.2964 13.2578 14.0454 13.7872 14.2491L14.8012 14.6391C14.8018 14.6393 14.8022 14.6395 14.8027 14.6397C14.6636 14.9605 14.4013 15.4721 14.0246 15.8488C13.6479 16.2255 13.1362 16.4878 12.8155 16.6269C12.8153 16.6265 12.8151 16.626 12.8149 16.6254L12.4248 15.6114C12.2212 15.082 11.4722 15.082 11.2686 15.6114L10.8786 16.6254C10.8784 16.626 10.8782 16.6265 10.8779 16.6269C10.5572 16.4878 10.0455 16.2255 9.66882 15.8488C9.29212 15.4721 9.0298 14.9605 8.89074 14.6397C8.89118 14.6395 8.89167 14.6393 8.89221 14.6391L9.90624 14.2491C10.4357 14.0454 10.4357 13.2964 9.90624 13.0928L8.89221 12.7028C8.89167 12.7026 8.89118 12.7024 8.89074 12.7022C9.0298 12.3814 9.29212 11.8697 9.66882 11.493Z" fill="#CC9D3F" stroke="#FFC54F" stroke-width="0.601362" stroke-linejoin="round"/>
<path fill-rule="evenodd" clip-rule="evenodd" d="M10.8905 12.3959C10.8905 12.5719 10.7478 12.7146 10.5718 12.7146C10.3958 12.7146 10.2531 12.5719 10.2531 12.3959C10.2531 12.2199 10.3958 12.0771 10.5718 12.0771C10.7478 12.0771 10.8905 12.2199 10.8905 12.3959ZM13.4404 12.3959C13.4404 12.5719 13.2977 12.7146 13.1217 12.7146C12.9456 12.7146 12.8029 12.5719 12.8029 12.3959C12.8029 12.2199 12.9456 12.0771 13.1217 12.0771C13.2977 12.0771 13.4404 12.2199 13.4404 12.3959ZM13.1217 15.2645C13.2977 15.2645 13.4404 15.1218 13.4404 14.9458C13.4404 14.7697 13.2977 14.627 13.1217 14.627C12.9456 14.627 12.8029 14.7697 12.8029 14.9458C12.8029 15.1218 12.9456 15.2645 13.1217 15.2645ZM12.0858 13.2568L12.3248 13.6708L12.0858 14.0849L11.6077 14.0849L11.3686 13.6708L11.6077 13.2568H12.0858ZM10.5718 15.2645C10.7478 15.2645 10.8905 15.1218 10.8905 14.9458C10.8905 14.7697 10.7478 14.627 10.5718 14.627C10.3958 14.627 10.2531 14.7697 10.2531 14.9458C10.2531 15.1218 10.3958 15.2645 10.5718 15.2645Z" fill="#FEC346"/>
<path d="M9.66882 22.1415C10.0455 21.7648 10.5572 21.5025 10.8779 21.3634C10.8782 21.3638 10.8784 21.3643 10.8786 21.3649L11.2686 22.3789C11.4722 22.9083 12.2212 22.9083 12.4248 22.3789L12.8149 21.3649C12.8151 21.3643 12.8153 21.3638 12.8155 21.3634C13.1362 21.5025 13.6479 21.7648 14.0246 22.1415C14.4013 22.5182 14.6636 23.0298 14.8027 23.3506C14.8022 23.3508 14.8018 23.351 14.8012 23.3512L13.7872 23.7412C13.2578 23.9449 13.2578 24.6939 13.7872 24.8975L14.8012 25.2875C14.8018 25.2877 14.8022 25.2879 14.8027 25.2881C14.6636 25.6089 14.4013 26.1206 14.0246 26.4973C13.6479 26.874 13.1362 27.1363 12.8155 27.2753C12.8153 27.2749 12.8151 27.2744 12.8149 27.2739L12.4248 26.2598C12.2212 25.7304 11.4722 25.7304 11.2686 26.2598L10.8786 27.2739C10.8784 27.2744 10.8782 27.2749 10.8779 27.2753C10.5572 27.1363 10.0455 26.874 9.66882 26.4973C9.29212 26.1206 9.0298 25.6089 8.89074 25.2881C8.89118 25.2879 8.89167 25.2877 8.89221 25.2875L9.90624 24.8975C10.4357 24.6939 10.4357 23.9449 9.90624 23.7412L8.89221 23.3512C8.89167 23.351 8.89118 23.3508 8.89074 23.3506C9.0298 23.0298 9.29212 22.5182 9.66882 22.1415Z" fill="#CC9D3F" stroke="#FFC54F" stroke-width="0.601362" stroke-linejoin="round"/>
<path fill-rule="evenodd" clip-rule="evenodd" d="M10.8905 23.0443C10.8905 23.2204 10.7478 23.3631 10.5718 23.3631C10.3958 23.3631 10.2531 23.2204 10.2531 23.0443C10.2531 22.8683 10.3958 22.7256 10.5718 22.7256C10.7478 22.7256 10.8905 22.8683 10.8905 23.0443ZM13.4404 23.0443C13.4404 23.2204 13.2977 23.3631 13.1217 23.3631C12.9456 23.3631 12.8029 23.2204 12.8029 23.0443C12.8029 22.8683 12.9456 22.7256 13.1217 22.7256C13.2977 22.7256 13.4404 22.8683 13.4404 23.0443ZM13.1217 25.9129C13.2977 25.9129 13.4404 25.7702 13.4404 25.5942C13.4404 25.4182 13.2977 25.2755 13.1217 25.2755C12.9456 25.2755 12.8029 25.4182 12.8029 25.5942C12.8029 25.7702 12.9456 25.9129 13.1217 25.9129ZM12.0858 23.9052L12.3248 24.3193L12.0858 24.7333L11.6077 24.7333L11.3686 24.3193L11.6077 23.9052H12.0858ZM10.5718 25.9129C10.7478 25.9129 10.8905 25.7702 10.8905 25.5942C10.8905 25.4182 10.7478 25.2755 10.5718 25.2755C10.3958 25.2755 10.2531 25.4182 10.2531 25.5942C10.2531 25.7702 10.3958 25.9129 10.5718 25.9129Z" fill="#FEC346"/>
<path d="M9.66882 32.7899C10.0455 32.4132 10.5572 32.1509 10.8779 32.0118C10.8782 32.0123 10.8784 32.0128 10.8786 32.0133L11.2686 33.0273C11.4722 33.5567 12.2212 33.5567 12.4248 33.0273L12.8149 32.0133C12.8151 32.0128 12.8153 32.0123 12.8155 32.0118C13.1362 32.1509 13.6479 32.4132 14.0246 32.7899C14.4013 33.1666 14.6636 33.6783 14.8027 33.999C14.8022 33.9992 14.8018 33.9995 14.8012 33.9997L13.7872 34.3897C13.2578 34.5933 13.2578 35.3423 13.7872 35.5459L14.8012 35.9359C14.8018 35.9362 14.8022 35.9364 14.8027 35.9366C14.6636 36.2573 14.4013 36.769 14.0246 37.1457C13.6479 37.5224 13.1362 37.7847 12.8155 37.9238C12.8153 37.9233 12.8151 37.9228 12.8149 37.9223L12.4248 36.9083C12.2212 36.3789 11.4722 36.3789 11.2686 36.9083L10.8786 37.9223C10.8784 37.9228 10.8782 37.9233 10.8779 37.9238C10.5572 37.7847 10.0455 37.5224 9.66882 37.1457C9.29212 36.769 9.0298 36.2573 8.89074 35.9366C8.89118 35.9364 8.89167 35.9362 8.89221 35.9359L9.90624 35.5459C10.4357 35.3423 10.4357 34.5933 9.90624 34.3897L8.89221 33.9997C8.89167 33.9995 8.89118 33.9992 8.89074 33.999C9.0298 33.6783 9.29212 33.1666 9.66882 32.7899Z" fill="#CC9D3F" stroke="#FFC54F" stroke-width="0.601362" stroke-linejoin="round"/>
<path fill-rule="evenodd" clip-rule="evenodd" d="M10.8905 33.6928C10.8905 33.8688 10.7478 34.0115 10.5718 34.0115C10.3958 34.0115 10.2531 33.8688 10.2531 33.6928C10.2531 33.5167 10.3958 33.374 10.5718 33.374C10.7478 33.374 10.8905 33.5167 10.8905 33.6928ZM13.4404 33.6928C13.4404 33.8688 13.2977 34.0115 13.1217 34.0115C12.9456 34.0115 12.8029 33.8688 12.8029 33.6928C12.8029 33.5167 12.9456 33.374 13.1217 33.374C13.2977 33.374 13.4404 33.5167 13.4404 33.6928ZM13.1217 36.5614C13.2977 36.5614 13.4404 36.4187 13.4404 36.2426C13.4404 36.0666 13.2977 35.9239 13.1217 35.9239C12.9456 35.9239 12.8029 36.0666 12.8029 36.2426C12.8029 36.4187 12.9456 36.5614 13.1217 36.5614ZM12.0858 34.5536L12.3248 34.9677L12.0858 35.3817L11.6077 35.3817L11.3686 34.9677L11.6077 34.5536H12.0858ZM10.5718 36.5614C10.7478 36.5614 10.8905 36.4187 10.8905 36.2426C10.8905 36.0666 10.7478 35.9239 10.5718 35.9239C10.3958 35.9239 10.2531 36.0666 10.2531 36.2426C10.2531 36.4187 10.3958 36.5614 10.5718 36.5614Z" fill="#FEC346"/>
<path d="M25.6417 16.8173C26.0184 16.4406 26.5301 16.1782 26.8508 16.0392C26.8511 16.0396 26.8513 16.0401 26.8515 16.0407L27.2415 17.0547C27.4451 17.5841 28.1941 17.5841 28.3977 17.0547L28.7878 16.0407C28.788 16.0401 28.7882 16.0396 28.7884 16.0392C29.1091 16.1782 29.6208 16.4406 29.9975 16.8173C30.3742 17.194 30.6365 17.7056 30.7756 18.0264C30.7751 18.0266 30.7747 18.0268 30.7741 18.027L29.7601 18.417C29.2307 18.6206 29.2307 19.3697 29.7601 19.5733L30.7741 19.9633C30.7747 19.9635 30.7751 19.9637 30.7756 19.9639C30.6365 20.2847 30.3742 20.7963 29.9975 21.173C29.6208 21.5497 29.1091 21.8121 28.7884 21.9511C28.7882 21.9507 28.788 21.9502 28.7878 21.9497L28.3977 20.9356C28.1941 20.4062 27.4451 20.4062 27.2415 20.9356L26.8515 21.9497C26.8513 21.9502 26.8511 21.9507 26.8508 21.9511C26.5301 21.8121 26.0184 21.5497 25.6417 21.173C25.265 20.7963 25.0027 20.2847 24.8636 19.9639C24.8641 19.9637 24.8646 19.9635 24.8651 19.9633L25.8791 19.5733C26.4086 19.3697 26.4086 18.6206 25.8791 18.417L24.8651 18.027C24.8646 18.0268 24.8641 18.0266 24.8636 18.0264C25.0027 17.7056 25.265 17.194 25.6417 16.8173Z" fill="#CC9D3F" stroke="#FFC54F" stroke-width="0.601362" stroke-linejoin="round"/>
<path fill-rule="evenodd" clip-rule="evenodd" d="M26.8634 17.7201C26.8634 17.8961 26.7207 18.0388 26.5447 18.0388C26.3687 18.0388 26.226 17.8961 26.226 17.7201C26.226 17.5441 26.3687 17.4014 26.5447 17.4014C26.7207 17.4014 26.8634 17.5441 26.8634 17.7201ZM29.4133 17.7201C29.4133 17.8961 29.2706 18.0388 29.0946 18.0388C28.9185 18.0388 28.7758 17.8961 28.7758 17.7201C28.7758 17.5441 28.9185 17.4014 29.0946 17.4014C29.2706 17.4014 29.4133 17.5441 29.4133 17.7201ZM29.0946 20.5887C29.2706 20.5887 29.4133 20.446 29.4133 20.27C29.4133 20.0939 29.2706 19.9512 29.0946 19.9512C28.9185 19.9512 28.7758 20.0939 28.7758 20.27C28.7758 20.446 28.9185 20.5887 29.0946 20.5887ZM28.0587 18.581L28.2977 18.995L28.0587 19.4091L27.5806 19.4091L27.3415 18.995L27.5806 18.581H28.0587ZM26.5447 20.5887C26.7207 20.5887 26.8634 20.446 26.8634 20.27C26.8634 20.0939 26.7207 19.9512 26.5447 19.9512C26.3687 19.9512 26.226 20.0939 26.226 20.27C26.226 20.446 26.3687 20.5887 26.5447 20.5887Z" fill="#FEC346"/>
<path d="M25.6417 27.4657C26.0184 27.089 26.5301 26.8267 26.8508 26.6876C26.8511 26.6881 26.8513 26.6885 26.8515 26.6891L27.2415 27.7031C27.4451 28.2325 28.1941 28.2325 28.3977 27.7031L28.7878 26.6891C28.788 26.6885 28.7882 26.6881 28.7884 26.6876C29.1091 26.8267 29.6208 27.089 29.9975 27.4657C30.3742 27.8424 30.6365 28.3541 30.7756 28.6748C30.7751 28.675 30.7747 28.6752 30.7741 28.6754L29.7601 29.0655C29.2307 29.2691 29.2307 30.0181 29.7601 30.2217L30.7741 30.6117C30.7747 30.6119 30.7751 30.6121 30.7756 30.6124C30.6365 30.9331 30.3742 31.4448 29.9975 31.8215C29.6208 32.1982 29.1091 32.4605 28.7884 32.5996C28.7882 32.5991 28.788 32.5986 28.7878 32.5981L28.3977 31.5841C28.1941 31.0546 27.4451 31.0546 27.2415 31.5841L26.8515 32.5981C26.8513 32.5986 26.8511 32.5991 26.8508 32.5996C26.5301 32.4605 26.0184 32.1982 25.6417 31.8215C25.265 31.4448 25.0027 30.9331 24.8636 30.6124C24.8641 30.6121 24.8646 30.6119 24.8651 30.6117L25.8791 30.2217C26.4086 30.0181 26.4086 29.2691 25.8791 29.0655L24.8651 28.6754C24.8646 28.6752 24.8641 28.675 24.8636 28.6748C25.0027 28.3541 25.265 27.8424 25.6417 27.4657Z" fill="#CC9D3F" stroke="#FFC54F" stroke-width="0.601362" stroke-linejoin="round"/>
<path fill-rule="evenodd" clip-rule="evenodd" d="M26.8634 28.3685C26.8634 28.5446 26.7207 28.6873 26.5447 28.6873C26.3687 28.6873 26.226 28.5446 26.226 28.3685C26.226 28.1925 26.3687 28.0498 26.5447 28.0498C26.7207 28.0498 26.8634 28.1925 26.8634 28.3685ZM29.4133 28.3685C29.4133 28.5446 29.2706 28.6873 29.0946 28.6873C28.9185 28.6873 28.7758 28.5446 28.7758 28.3685C28.7758 28.1925 28.9185 28.0498 29.0946 28.0498C29.2706 28.0498 29.4133 28.1925 29.4133 28.3685ZM29.0946 31.2372C29.2706 31.2372 29.4133 31.0944 29.4133 30.9184C29.4133 30.7424 29.2706 30.5997 29.0946 30.5997C28.9185 30.5997 28.7758 30.7424 28.7758 30.9184C28.7758 31.0944 28.9185 31.2372 29.0946 31.2372ZM28.0587 29.2294L28.2977 29.6435L28.0587 30.0575L27.5806 30.0575L27.3415 29.6435L27.5806 29.2294H28.0587ZM26.5447 31.2372C26.7207 31.2372 26.8634 31.0944 26.8634 30.9184C26.8634 30.7424 26.7207 30.5997 26.5447 30.5997C26.3687 30.5997 26.226 30.7424 26.226 30.9184C26.226 31.0944 26.3687 31.2372 26.5447 31.2372Z" fill="#FEC346"/>
<path d="M25.6417 38.1151C26.0184 37.7384 26.5301 37.4761 26.8508 37.337C26.8511 37.3375 26.8513 37.338 26.8515 37.3385L27.2415 38.3525C27.4451 38.8819 28.1941 38.8819 28.3977 38.3525L28.7878 37.3385C28.788 37.338 28.7882 37.3375 28.7884 37.337C29.1091 37.4761 29.6208 37.7384 29.9975 38.1151C30.3742 38.4918 30.6365 39.0035 30.7756 39.3242C30.7751 39.3244 30.7747 39.3247 30.7741 39.3249L29.7601 39.7149C29.2307 39.9185 29.2307 40.6675 29.7601 40.8711L30.7741 41.2611C30.7747 41.2613 30.7751 41.2616 30.7756 41.2618C30.6365 41.5825 30.3742 42.0942 29.9975 42.4709C29.6208 42.8476 29.1091 43.1099 28.7884 43.249C28.7882 43.2485 28.788 43.248 28.7878 43.2475L28.3977 42.2335C28.1941 41.7041 27.4451 41.7041 27.2415 42.2335L26.8515 43.2475C26.8513 43.248 26.8511 43.2485 26.8508 43.249C26.5301 43.1099 26.0184 42.8476 25.6417 42.4709C25.265 42.0942 25.0027 41.5825 24.8636 41.2618C24.8641 41.2616 24.8646 41.2613 24.8651 41.2611L25.8791 40.8711C26.4086 40.6675 26.4086 39.9185 25.8791 39.7149L24.8651 39.3249C24.8646 39.3247 24.8641 39.3244 24.8636 39.3242C25.0027 39.0035 25.265 38.4918 25.6417 38.1151Z" fill="#CC9D3F" stroke="#FFC54F" stroke-width="0.601362" stroke-linejoin="round"/>
<path fill-rule="evenodd" clip-rule="evenodd" d="M26.8634 39.018C26.8634 39.194 26.7207 39.3367 26.5447 39.3367C26.3687 39.3367 26.226 39.194 26.226 39.018C26.226 38.8419 26.3687 38.6992 26.5447 38.6992C26.7207 38.6992 26.8634 38.8419 26.8634 39.018ZM29.4133 39.018C29.4133 39.194 29.2706 39.3367 29.0946 39.3367C28.9185 39.3367 28.7758 39.194 28.7758 39.018C28.7758 38.8419 28.9185 38.6992 29.0946 38.6992C29.2706 38.6992 29.4133 38.8419 29.4133 39.018ZM29.0946 41.8866C29.2706 41.8866 29.4133 41.7439 29.4133 41.5678C29.4133 41.3918 29.2706 41.2491 29.0946 41.2491C28.9185 41.2491 28.7758 41.3918 28.7758 41.5678C28.7758 41.7439 28.9185 41.8866 29.0946 41.8866ZM28.0587 39.8788L28.2977 40.2929L28.0587 40.7069L27.5806 40.7069L27.3415 40.2929L27.5806 39.8788H28.0587ZM26.5447 41.8866C26.7207 41.8866 26.8634 41.7439 26.8634 41.5678C26.8634 41.3918 26.7207 41.2491 26.5447 41.2491C26.3687 41.2491 26.226 41.3918 26.226 41.5678C26.226 41.7439 26.3687 41.8866 26.5447 41.8866Z" fill="#FEC346"/>
<path d="M25.6417 6.16882C26.0184 5.79212 26.5301 5.5298 26.8508 5.39074C26.8511 5.39118 26.8513 5.39167 26.8515 5.39221L27.2415 6.40624C27.4451 6.93565 28.1941 6.93565 28.3977 6.40624L28.7878 5.39221C28.788 5.39167 28.7882 5.39118 28.7884 5.39074C29.1091 5.5298 29.6208 5.79212 29.9975 6.16882C30.3742 6.54551 30.6365 7.05719 30.7756 7.37794C30.7751 7.37815 30.7747 7.37837 30.7741 7.37857L29.7601 7.76858C29.2307 7.9722 29.2307 8.72122 29.7601 8.92484L30.7741 9.31485C30.7747 9.31506 30.7751 9.31527 30.7756 9.31548C30.6365 9.63624 30.3742 10.1479 29.9975 10.5246C29.6208 10.9013 29.1091 11.1636 28.7884 11.3027C28.7882 11.3022 28.788 11.3018 28.7878 11.3012L28.3977 10.2872C28.1941 9.75777 27.4451 9.75777 27.2415 10.2872L26.8515 11.3012C26.8513 11.3018 26.8511 11.3022 26.8508 11.3027C26.5301 11.1636 26.0184 10.9013 25.6417 10.5246C25.265 10.1479 25.0027 9.63624 24.8636 9.31548C24.8641 9.31527 24.8646 9.31506 24.8651 9.31485L25.8791 8.92484C26.4086 8.72122 26.4086 7.9722 25.8791 7.76858L24.8651 7.37857C24.8646 7.37837 24.8641 7.37815 24.8636 7.37795C25.0027 7.05719 25.265 6.54551 25.6417 6.16882Z" fill="#CC9D3F" stroke="#FFC54F" stroke-width="0.601362" stroke-linejoin="round"/>
<path fill-rule="evenodd" clip-rule="evenodd" d="M26.8634 7.07166C26.8634 7.2477 26.7207 7.3904 26.5447 7.3904C26.3687 7.3904 26.226 7.2477 26.226 7.07166C26.226 6.89563 26.3687 6.75293 26.5447 6.75293C26.7207 6.75293 26.8634 6.89563 26.8634 7.07166ZM29.4133 7.07166C29.4133 7.2477 29.2706 7.3904 29.0946 7.3904C28.9185 7.3904 28.7758 7.2477 28.7758 7.07166C28.7758 6.89563 28.9185 6.75293 29.0946 6.75293C29.2706 6.75293 29.4133 6.89563 29.4133 7.07166ZM29.0946 9.94028C29.2706 9.94028 29.4133 9.79757 29.4133 9.62154C29.4133 9.44551 29.2706 9.30281 29.0946 9.30281C28.9185 9.30281 28.7758 9.44551 28.7758 9.62154C28.7758 9.79757 28.9185 9.94028 29.0946 9.94028ZM28.0587 7.93255L28.2977 8.3466L28.0587 8.76065L27.5806 8.76065L27.3415 8.3466L27.5806 7.93255H28.0587ZM26.5447 9.94028C26.7207 9.94028 26.8634 9.79757 26.8634 9.62154C26.8634 9.44551 26.7207 9.30281 26.5447 9.30281C26.3687 9.30281 26.226 9.44551 26.226 9.62154C26.226 9.79757 26.3687 9.94028 26.5447 9.94028Z" fill="#FEC346"/>
<path d="M14.9932 16.8173C15.3699 16.4406 15.8815 16.1782 16.2023 16.0392C16.2025 16.0396 16.2027 16.0401 16.2029 16.0407L16.5929 17.0547C16.7965 17.5841 17.5456 17.5841 17.7492 17.0547L18.1392 16.0407C18.1394 16.0401 18.1396 16.0396 18.1398 16.0392C18.4606 16.1782 18.9723 16.4406 19.3489 16.8173C19.7256 17.194 19.988 17.7056 20.127 18.0264C20.1266 18.0266 20.1261 18.0268 20.1256 18.027L19.1115 18.417C18.5821 18.6206 18.5821 19.3697 19.1115 19.5733L20.1256 19.9633C20.1261 19.9635 20.1266 19.9637 20.127 19.9639C19.988 20.2847 19.7256 20.7963 19.3489 21.173C18.9723 21.5497 18.4606 21.8121 18.1398 21.9511C18.1396 21.9507 18.1394 21.9502 18.1392 21.9497L17.7492 20.9356C17.5456 20.4062 16.7965 20.4062 16.5929 20.9356L16.2029 21.9497C16.2027 21.9502 16.2025 21.9507 16.2023 21.9511C15.8815 21.8121 15.3699 21.5497 14.9932 21.173C14.6165 20.7963 14.3541 20.2847 14.2151 19.9639C14.2155 19.9637 14.216 19.9635 14.2166 19.9633L15.2306 19.5733C15.76 19.3697 15.76 18.6206 15.2306 18.417L14.2166 18.027C14.216 18.0268 14.2155 18.0266 14.2151 18.0264C14.3541 17.7056 14.6165 17.194 14.9932 16.8173Z" fill="#CC9D3F" stroke="#FFC54F" stroke-width="0.601362" stroke-linejoin="round"/>
<path fill-rule="evenodd" clip-rule="evenodd" d="M16.2149 17.7201C16.2149 17.8961 16.0722 18.0388 15.8961 18.0388C15.7201 18.0388 15.5774 17.8961 15.5774 17.7201C15.5774 17.5441 15.7201 17.4014 15.8961 17.4014C16.0722 17.4014 16.2149 17.5441 16.2149 17.7201ZM18.7647 17.7201C18.7647 17.8961 18.622 18.0388 18.446 18.0388C18.27 18.0388 18.1273 17.8961 18.1273 17.7201C18.1273 17.5441 18.27 17.4014 18.446 17.4014C18.622 17.4014 18.7647 17.5441 18.7647 17.7201ZM18.446 20.5887C18.622 20.5887 18.7647 20.446 18.7647 20.27C18.7647 20.0939 18.622 19.9512 18.446 19.9512C18.27 19.9512 18.1273 20.0939 18.1273 20.27C18.1273 20.446 18.27 20.5887 18.446 20.5887ZM17.4101 18.581L17.6492 18.995L17.4101 19.4091L16.932 19.4091L16.693 18.995L16.932 18.581H17.4101ZM15.8961 20.5887C16.0722 20.5887 16.2149 20.446 16.2149 20.27C16.2149 20.0939 16.0722 19.9512 15.8961 19.9512C15.7201 19.9512 15.5774 20.0939 15.5774 20.27C15.5774 20.446 15.7201 20.5887 15.8961 20.5887Z" fill="#FEC346"/>
<path d="M14.9932 27.4657C15.3699 27.089 15.8815 26.8267 16.2023 26.6876C16.2025 26.6881 16.2027 26.6885 16.2029 26.6891L16.5929 27.7031C16.7965 28.2325 17.5456 28.2325 17.7492 27.7031L18.1392 26.6891C18.1394 26.6885 18.1396 26.6881 18.1398 26.6876C18.4606 26.8267 18.9723 27.089 19.3489 27.4657C19.7256 27.8424 19.988 28.3541 20.127 28.6748C20.1266 28.675 20.1261 28.6752 20.1256 28.6754L19.1115 29.0655C18.5821 29.2691 18.5821 30.0181 19.1115 30.2217L20.1256 30.6117C20.1261 30.6119 20.1266 30.6121 20.127 30.6124C19.988 30.9331 19.7256 31.4448 19.3489 31.8215C18.9723 32.1982 18.4606 32.4605 18.1398 32.5996C18.1396 32.5991 18.1394 32.5986 18.1392 32.5981L17.7492 31.5841C17.5456 31.0546 16.7965 31.0546 16.5929 31.5841L16.2029 32.5981C16.2027 32.5986 16.2025 32.5991 16.2023 32.5996C15.8815 32.4605 15.3699 32.1982 14.9932 31.8215C14.6165 31.4448 14.3541 30.9331 14.2151 30.6124C14.2155 30.6121 14.216 30.6119 14.2166 30.6117L15.2306 30.2217C15.76 30.0181 15.76 29.2691 15.2306 29.0655L14.2166 28.6754C14.216 28.6752 14.2155 28.675 14.2151 28.6748C14.3541 28.3541 14.6165 27.8424 14.9932 27.4657Z" fill="#CC9D3F" stroke="#FFC54F" stroke-width="0.601362" stroke-linejoin="round"/>
<path fill-rule="evenodd" clip-rule="evenodd" d="M16.2149 28.3685C16.2149 28.5446 16.0722 28.6873 15.8961 28.6873C15.7201 28.6873 15.5774 28.5446 15.5774 28.3685C15.5774 28.1925 15.7201 28.0498 15.8961 28.0498C16.0722 28.0498 16.2149 28.1925 16.2149 28.3685ZM18.7647 28.3685C18.7647 28.5446 18.622 28.6873 18.446 28.6873C18.27 28.6873 18.1273 28.5446 18.1273 28.3685C18.1273 28.1925 18.27 28.0498 18.446 28.0498C18.622 28.0498 18.7647 28.1925 18.7647 28.3685ZM18.446 31.2372C18.622 31.2372 18.7647 31.0944 18.7647 30.9184C18.7647 30.7424 18.622 30.5997 18.446 30.5997C18.27 30.5997 18.1273 30.7424 18.1273 30.9184C18.1273 31.0944 18.27 31.2372 18.446 31.2372ZM17.4101 29.2294L17.6492 29.6435L17.4101 30.0575L16.932 30.0575L16.693 29.6435L16.932 29.2294H17.4101ZM15.8961 31.2372C16.0722 31.2372 16.2149 31.0944 16.2149 30.9184C16.2149 30.7424 16.0722 30.5997 15.8961 30.5997C15.7201 30.5997 15.5774 30.7424 15.5774 30.9184C15.5774 31.0944 15.7201 31.2372 15.8961 31.2372Z" fill="#FEC346"/>
<path d="M14.9932 38.1151C15.3699 37.7384 15.8815 37.4761 16.2023 37.337C16.2025 37.3375 16.2027 37.338 16.2029 37.3385L16.5929 38.3525C16.7965 38.8819 17.5456 38.8819 17.7492 38.3525L18.1392 37.3385C18.1394 37.338 18.1396 37.3375 18.1398 37.337C18.4606 37.4761 18.9723 37.7384 19.3489 38.1151C19.7256 38.4918 19.988 39.0035 20.127 39.3242C20.1266 39.3244 20.1261 39.3247 20.1256 39.3249L19.1115 39.7149C18.5821 39.9185 18.5821 40.6675 19.1115 40.8711L20.1256 41.2611C20.1261 41.2613 20.1266 41.2616 20.127 41.2618C19.988 41.5825 19.7256 42.0942 19.3489 42.4709C18.9723 42.8476 18.4606 43.1099 18.1398 43.249C18.1396 43.2485 18.1394 43.248 18.1392 43.2475L17.7492 42.2335C17.5456 41.7041 16.7965 41.7041 16.5929 42.2335L16.2029 43.2475C16.2027 43.248 16.2025 43.2485 16.2023 43.249C15.8815 43.1099 15.3699 42.8476 14.9932 42.4709C14.6165 42.0942 14.3541 41.5825 14.2151 41.2618C14.2155 41.2616 14.216 41.2613 14.2166 41.2611L15.2306 40.8711C15.76 40.6675 15.76 39.9185 15.2306 39.7149L14.2166 39.3249C14.216 39.3247 14.2155 39.3244 14.2151 39.3242C14.3541 39.0035 14.6165 38.4918 14.9932 38.1151Z" fill="#CC9D3F" stroke="#FFC54F" stroke-width="0.601362" stroke-linejoin="round"/>
<path fill-rule="evenodd" clip-rule="evenodd" d="M16.2149 39.018C16.2149 39.194 16.0722 39.3367 15.8961 39.3367C15.7201 39.3367 15.5774 39.194 15.5774 39.018C15.5774 38.8419 15.7201 38.6992 15.8961 38.6992C16.0722 38.6992 16.2149 38.8419 16.2149 39.018ZM18.7647 39.018C18.7647 39.194 18.622 39.3367 18.446 39.3367C18.27 39.3367 18.1273 39.194 18.1273 39.018C18.1273 38.8419 18.27 38.6992 18.446 38.6992C18.622 38.6992 18.7647 38.8419 18.7647 39.018ZM18.446 41.8866C18.622 41.8866 18.7647 41.7439 18.7647 41.5678C18.7647 41.3918 18.622 41.2491 18.446 41.2491C18.27 41.2491 18.1273 41.3918 18.1273 41.5678C18.1273 41.7439 18.27 41.8866 18.446 41.8866ZM17.4101 39.8788L17.6492 40.2929L17.4101 40.7069L16.932 40.7069L16.693 40.2929L16.932 39.8788H17.4101ZM15.8961 41.8866C16.0722 41.8866 16.2149 41.7439 16.2149 41.5678C16.2149 41.3918 16.0722 41.2491 15.8961 41.2491C15.7201 41.2491 15.5774 41.3918 15.5774 41.5678C15.5774 41.7439 15.7201 41.8866 15.8961 41.8866Z" fill="#FEC346"/>
<path d="M14.9932 6.16882C15.3699 5.79212 15.8815 5.5298 16.2023 5.39074C16.2025 5.39118 16.2027 5.39167 16.2029 5.39221L16.5929 6.40624C16.7965 6.93565 17.5456 6.93565 17.7492 6.40624L18.1392 5.39221C18.1394 5.39167 18.1396 5.39118 18.1398 5.39074C18.4606 5.5298 18.9723 5.79212 19.3489 6.16882C19.7256 6.54551 19.988 7.05719 20.127 7.37794C20.1266 7.37815 20.1261 7.37837 20.1256 7.37857L19.1115 7.76858C18.5821 7.9722 18.5821 8.72122 19.1115 8.92484L20.1256 9.31485C20.1261 9.31506 20.1266 9.31527 20.127 9.31548C19.988 9.63624 19.7256 10.1479 19.3489 10.5246C18.9723 10.9013 18.4606 11.1636 18.1398 11.3027C18.1396 11.3022 18.1394 11.3018 18.1392 11.3012L17.7492 10.2872C17.5456 9.75777 16.7965 9.75777 16.5929 10.2872L16.2029 11.3012C16.2027 11.3018 16.2025 11.3022 16.2023 11.3027C15.8815 11.1636 15.3699 10.9013 14.9932 10.5246C14.6165 10.1479 14.3541 9.63624 14.2151 9.31548C14.2155 9.31527 14.216 9.31506 14.2166 9.31485L15.2306 8.92484C15.76 8.72122 15.76 7.9722 15.2306 7.76858L14.2166 7.37857C14.216 7.37837 14.2155 7.37815 14.2151 7.37795C14.3541 7.05719 14.6165 6.54551 14.9932 6.16882Z" fill="#CC9D3F" stroke="#FFC54F" stroke-width="0.601362" stroke-linejoin="round"/>
<path fill-rule="evenodd" clip-rule="evenodd" d="M16.2149 7.07166C16.2149 7.2477 16.0722 7.3904 15.8961 7.3904C15.7201 7.3904 15.5774 7.2477 15.5774 7.07166C15.5774 6.89563 15.7201 6.75293 15.8961 6.75293C16.0722 6.75293 16.2149 6.89563 16.2149 7.07166ZM18.7647 7.07166C18.7647 7.2477 18.622 7.3904 18.446 7.3904C18.27 7.3904 18.1273 7.2477 18.1273 7.07166C18.1273 6.89563 18.27 6.75293 18.446 6.75293C18.622 6.75293 18.7647 6.89563 18.7647 7.07166ZM18.446 9.94028C18.622 9.94028 18.7647 9.79757 18.7647 9.62154C18.7647 9.44551 18.622 9.30281 18.446 9.30281C18.27 9.30281 18.1273 9.44551 18.1273 9.62154C18.1273 9.79757 18.27 9.94028 18.446 9.94028ZM17.4101 7.93255L17.6492 8.3466L17.4101 8.76065L16.932 8.76065L16.693 8.3466L16.932 7.93255H17.4101ZM15.8961 9.94028C16.0722 9.94028 16.2149 9.79757 16.2149 9.62154C16.2149 9.44551 16.0722 9.30281 15.8961 9.30281C15.7201 9.30281 15.5774 9.44551 15.5774 9.62154C15.5774 9.79757 15.7201 9.94028 15.8961 9.94028Z" fill="#FEC346"/>
</g>
<path fill-rule="evenodd" clip-rule="evenodd" d="M21.5106 25.3329L16.6939 28.9646C16.1045 29.4085 15.8569 30.1984 16.0826 30.9185L17.9217 36.7941C18.1473 37.5141 18.7941 38 19.5233 38H25.4767C26.2059 38 26.8527 37.5141 27.0783 36.7941L28.9174 30.9185C29.1431 30.1984 28.8955 29.4085 28.3061 28.9646L23.4894 25.3329C22.9 24.889 22.1 24.889 21.5106 25.3329Z" fill="#FFC54F" stroke="#CC9D3F"/>
<path fill-rule="evenodd" clip-rule="evenodd" d="M24.9 34.7719C25.5826 34.7719 26.104 34.5239 26.464 34.0279C26.824 33.5319 27.004 32.8146 27.004 31.8759C27.004 30.9479 26.8226 30.2372 26.46 29.7439C26.0973 29.2506 25.5773 29.0039 24.9 29.0039C24.2226 29.0039 23.7026 29.2506 23.34 29.7439C22.9773 30.2372 22.796 30.9479 22.796 31.8759C22.796 32.8146 22.976 33.5319 23.336 34.0279C23.696 34.5239 24.2173 34.7719 24.9 34.7719ZM22.22 34.6999V33.6999H21.004V29.0599H20.116L18.324 30.1079L18.796 31.0039L19.756 30.4439V33.6999H18.54V34.6999H22.22ZM24.224 33.3559C24.3653 33.6652 24.5906 33.8199 24.9 33.8199C25.2093 33.8199 25.4346 33.6652 25.576 33.3559C25.7173 33.0466 25.788 32.5532 25.788 31.8759C25.788 31.2039 25.7173 30.7159 25.576 30.4119C25.4346 30.1079 25.2093 29.9559 24.9 29.9559C24.5906 29.9559 24.3653 30.1079 24.224 30.4119C24.0826 30.7159 24.012 31.2039 24.012 31.8759C24.012 32.5532 24.0826 33.0466 24.224 33.3559Z" fill="#CC9D3F"/>
</g>
</svg>
