<svg width="48" height="48" viewBox="0 0 48 48" fill="none" xmlns="http://www.w3.org/2000/svg">
<path fill-rule="evenodd" clip-rule="evenodd" d="M22.0661 34.8985C20.9222 35.0339 7.07776 35.0339 5.93478 34.8985C5.33269 34.8275 4.9142 34.3255 5.015 33.7865C5.14909 33.0754 5.41639 31.8667 5.95548 29.8843C6.58907 27.5517 7.03546 26.4444 7.29466 25.9285C7.43686 25.6457 7.71495 25.4421 8.05335 25.3813C8.77514 25.2505 19.2249 25.2505 19.9467 25.3813C20.285 25.4421 20.5631 25.6457 20.7053 25.9285C20.9645 26.4444 21.4109 27.5517 22.0445 29.8843C22.5836 31.8667 22.8518 33.0754 22.985 33.7865C23.0858 34.3255 22.6673 34.8275 22.0661 34.8985Z" fill="#CC9D3F"/>
<mask id="mask0_868_672" style="mask-type:alpha" maskUnits="userSpaceOnUse" x="5" y="25" width="18" height="10">
<path fill-rule="evenodd" clip-rule="evenodd" d="M22.0661 34.8985C20.9222 35.0339 7.07776 35.0339 5.93478 34.8985C5.33269 34.8275 4.9142 34.3255 5.015 33.7865C5.14909 33.0754 5.41639 31.8667 5.95548 29.8843C6.58907 27.5517 7.03546 26.4444 7.29466 25.9285C7.43686 25.6457 7.71495 25.4421 8.05335 25.3813C8.77514 25.2505 19.2249 25.2505 19.9467 25.3813C20.285 25.4421 20.5631 25.6457 20.7053 25.9285C20.9645 26.4444 21.4109 27.5517 22.0445 29.8843C22.5836 31.8667 22.8518 33.0754 22.985 33.7865C23.0858 34.3255 22.6673 34.8275 22.0661 34.8985Z" fill="white"/>
</mask>
<g mask="url(#mask0_868_672)">
<path fill-rule="evenodd" clip-rule="evenodd" d="M19.0661 33.875C17.9222 34.0104 4.07776 34.0104 2.93478 33.875C2.33269 33.8041 1.9142 33.302 2.015 32.7631C2.14909 32.0519 2.41639 30.8433 2.95548 28.8608C3.58907 26.5283 4.03546 25.421 4.29466 24.9051C4.43686 24.6223 4.71495 24.4187 5.05335 24.3579C5.77514 24.2271 16.2249 24.2271 16.9467 24.3579C17.285 24.4187 17.5631 24.6223 17.7053 24.9051C17.9645 25.421 18.4109 26.5283 19.0445 28.8608C19.5836 30.8433 19.8518 32.0519 19.985 32.7631C20.0858 33.302 19.6673 33.8041 19.0661 33.875Z" fill="#FFC54F"/>
</g>
<path fill-rule="evenodd" clip-rule="evenodd" d="M42.0661 34.8985C40.9222 35.0339 27.0778 35.0339 25.9348 34.8985C25.3327 34.8275 24.9142 34.3255 25.015 33.7865C25.1491 33.0754 25.4164 31.8667 25.9555 29.8843C26.5891 27.5517 27.0355 26.4444 27.2947 25.9285C27.4369 25.6457 27.715 25.4421 28.0533 25.3813C28.7751 25.2505 39.2249 25.2505 39.9467 25.3813C40.285 25.4421 40.5631 25.6457 40.7053 25.9285C40.9645 26.4444 41.4109 27.5517 42.0445 29.8843C42.5836 31.8667 42.8518 33.0754 42.985 33.7865C43.0858 34.3255 42.6673 34.8275 42.0661 34.8985Z" fill="#CC9D3F"/>
<mask id="mask1_868_672" style="mask-type:alpha" maskUnits="userSpaceOnUse" x="25" y="25" width="18" height="10">
<path fill-rule="evenodd" clip-rule="evenodd" d="M42.0661 34.8985C40.9222 35.0339 27.0778 35.0339 25.9348 34.8985C25.3327 34.8275 24.9142 34.3255 25.015 33.7865C25.1491 33.0754 25.4164 31.8667 25.9555 29.8843C26.5891 27.5517 27.0355 26.4444 27.2947 25.9285C27.4369 25.6457 27.715 25.4421 28.0533 25.3813C28.7751 25.2505 39.2249 25.2505 39.9467 25.3813C40.285 25.4421 40.5631 25.6457 40.7053 25.9285C40.9645 26.4444 41.4109 27.5517 42.0445 29.8843C42.5836 31.8667 42.8518 33.0754 42.985 33.7865C43.0858 34.3255 42.6673 34.8275 42.0661 34.8985Z" fill="white"/>
</mask>
<g mask="url(#mask1_868_672)">
<path fill-rule="evenodd" clip-rule="evenodd" d="M39.0661 33.875C37.9222 34.0104 24.0778 34.0104 22.9348 33.875C22.3327 33.8041 21.9142 33.302 22.015 32.7631C22.1491 32.0519 22.4164 30.8433 22.9555 28.8608C23.5891 26.5283 24.0355 25.421 24.2947 24.9051C24.4369 24.6223 24.715 24.4187 25.0533 24.3579C25.7751 24.2271 36.2249 24.2271 36.9467 24.3579C37.285 24.4187 37.5631 24.6223 37.7053 24.9051C37.9645 25.421 38.4109 26.5283 39.0445 28.8608C39.5836 30.8433 39.8518 32.0519 39.985 32.7631C40.0858 33.302 39.6673 33.8041 39.0661 33.875Z" fill="#FFC54F"/>
</g>
<path fill-rule="evenodd" clip-rule="evenodd" d="M32.0661 22.6153C30.9222 22.7507 17.0778 22.7507 15.9348 22.6153C15.3327 22.5443 14.9142 22.0423 15.015 21.5033C15.1491 20.7922 15.4164 19.5835 15.9555 17.601C16.5891 15.2685 17.0355 14.1612 17.2947 13.6453C17.4369 13.3625 17.715 13.1589 18.0533 13.0981C18.7751 12.9673 29.2249 12.9673 29.9467 13.0981C30.285 13.1589 30.5631 13.3625 30.7053 13.6453C30.9645 14.1612 31.4109 15.2685 32.0445 17.601C32.5836 19.5835 32.8518 20.7922 32.985 21.5033C33.0858 22.0423 32.6673 22.5443 32.0661 22.6153Z" fill="#CC9D3F"/>
<mask id="mask2_868_672" style="mask-type:alpha" maskUnits="userSpaceOnUse" x="15" y="13" width="18" height="10">
<path fill-rule="evenodd" clip-rule="evenodd" d="M32.0661 22.6153C30.9222 22.7507 17.0778 22.7507 15.9348 22.6153C15.3327 22.5443 14.9142 22.0423 15.015 21.5033C15.1491 20.7922 15.4164 19.5835 15.9555 17.601C16.5891 15.2685 17.0355 14.1612 17.2947 13.6453C17.4369 13.3625 17.715 13.1589 18.0533 13.0981C18.7751 12.9673 29.2249 12.9673 29.9467 13.0981C30.285 13.1589 30.5631 13.3625 30.7053 13.6453C30.9645 14.1612 31.4109 15.2685 32.0445 17.601C32.5836 19.5835 32.8518 20.7922 32.985 21.5033C33.0858 22.0423 32.6673 22.5443 32.0661 22.6153Z" fill="white"/>
</mask>
<g mask="url(#mask2_868_672)">
<path fill-rule="evenodd" clip-rule="evenodd" d="M29.0661 21.5918C27.9222 21.7272 14.0778 21.7272 12.9348 21.5918C12.3327 21.5209 11.9142 21.0188 12.015 20.4799C12.1491 19.7687 12.4164 18.5601 12.9555 16.5776C13.5891 14.2451 14.0355 13.1378 14.2947 12.6219C14.4369 12.3391 14.715 12.1355 15.0533 12.0747C15.7751 11.9439 26.2249 11.9439 26.9467 12.0747C27.285 12.1355 27.5631 12.3391 27.7053 12.6219C27.9645 13.1378 28.4109 14.2451 29.0445 16.5776C29.5836 18.5601 29.8518 19.7687 29.985 20.4799C30.0858 21.0188 29.6673 21.5209 29.0661 21.5918Z" fill="#FFC54F"/>
</g>
<path d="M42.5 13C42.5 17.1425 39.1425 20.5 35 20.5C30.8575 20.5 27.5 17.1425 27.5 13C27.5 8.85748 30.8575 5.5 35 5.5C39.1425 5.5 42.5 8.85748 42.5 13Z" fill="#E07E26" stroke="white"/>
<path d="M37.8572 13.5716L35 16.4287M35 16.4287L32.1429 13.5716M35 16.4287L35 9.57157" stroke="white" stroke-width="1.625" stroke-linecap="round" stroke-linejoin="round"/>
</svg>
