<svg width="48" height="48" viewBox="0 0 48 48" fill="none" xmlns="http://www.w3.org/2000/svg">
<g id="icon product/Sub-Menu/Aneka Jasa/Safe Deposit">
<g id="Group 17">
<rect id="Rectangle" x="5" y="11" width="38" height="26" rx="4" fill="#1868AB"/>
<rect id="Rectangle_2" x="8" y="14" width="32" height="20" rx="3" fill="#5297D1"/>
<g id="Group 145">
<path id="Stroke 11" fill-rule="evenodd" clip-rule="evenodd" d="M21 24C21 26.762 18.761 29 16 29C13.239 29 11 26.762 11 24C11 21.238 13.239 19 16 19C18.761 19 21 21.238 21 24Z" fill="#FFC54F"/>
<path id="Stroke 11_2" fill-rule="evenodd" clip-rule="evenodd" d="M19.5 24C19.5 25.9334 17.9327 27.5 16 27.5C14.0673 27.5 12.5 25.9334 12.5 24C12.5 22.0666 14.0673 20.5 16 20.5C17.9327 20.5 19.5 22.0666 19.5 24Z" fill="#CC9D3F"/>
<rect id="Rectangle 107" x="15" y="20" width="2" height="8" fill="#FFC54F"/>
</g>
<g id="Group 3">
<rect id="Rectangle_3" x="42" y="17" width="4" height="5" rx="1" transform="rotate(90 42 17)" fill="#0B4270"/>
<mask id="mask0_801_6791" style="mask-type:alpha" maskUnits="userSpaceOnUse" x="37" y="17" width="5" height="4">
<rect id="Rectangle_4" x="42" y="17" width="4" height="5" rx="1" transform="rotate(90 42 17)" fill="white"/>
</mask>
<g mask="url(#mask0_801_6791)">
<rect id="Rectangle_5" x="41" y="17" width="4" height="4" rx="1" transform="rotate(90 41 17)" fill="#0F5895"/>
</g>
</g>
<g id="Group 4">
<rect id="Rectangle_6" x="42" y="27" width="4" height="5" rx="1" transform="rotate(90 42 27)" fill="#0B4270"/>
<mask id="mask1_801_6791" style="mask-type:alpha" maskUnits="userSpaceOnUse" x="37" y="27" width="5" height="4">
<rect id="Rectangle_7" x="42" y="27" width="4" height="5" rx="1" transform="rotate(90 42 27)" fill="white"/>
</mask>
<g mask="url(#mask1_801_6791)">
<rect id="Rectangle_8" x="41" y="27" width="4" height="4" rx="1" transform="rotate(90 41 27)" fill="#0F5895"/>
</g>
</g>
</g>
<g id="Group 146">
<rect id="Rectangle 98" x="24" y="26.5" width="3" height="3" rx="1" fill="white"/>
<rect id="Rectangle 99" x="28" y="26.5" width="3" height="3" rx="1" fill="white"/>
<rect id="Rectangle 100" x="32" y="26.5" width="3" height="3" rx="1" fill="white"/>
<rect id="Rectangle 101" x="32" y="22.5" width="3" height="3" rx="1" fill="white"/>
<rect id="Rectangle 102" x="28" y="22.5" width="3" height="3" rx="1" fill="white"/>
<rect id="Rectangle 103" x="24" y="22.5" width="3" height="3" rx="1" fill="white"/>
<rect id="Rectangle 104" x="24" y="18.5" width="3" height="3" rx="1" fill="white"/>
<rect id="Rectangle 105" x="28" y="18.5" width="3" height="3" rx="1" fill="white"/>
<rect id="Rectangle 106" x="32" y="18.5" width="3" height="3" rx="1" fill="white"/>
</g>
</g>
</svg>
