<svg width="48" height="48" viewBox="0 0 48 48" fill="none" xmlns="http://www.w3.org/2000/svg">
<path fill-rule="evenodd" clip-rule="evenodd" d="M12 9C12 7.34315 13.3431 6 15 6H33C34.6569 6 36 7.34315 36 9V39C36 40.6569 34.6569 42 33 42H15C13.3431 42 12 40.6569 12 39V9Z" fill="#CC9D3F"/>
<mask id="mask0_413_670" style="mask-type:alpha" maskUnits="userSpaceOnUse" x="12" y="6" width="24" height="36">
<path fill-rule="evenodd" clip-rule="evenodd" d="M12 9C12 7.34315 13.3431 6 15 6H33C34.6569 6 36 7.34315 36 9V39C36 40.6569 34.6569 42 33 42H15C13.3431 42 12 40.6569 12 39V9Z" fill="white"/>
</mask>
<g mask="url(#mask0_413_670)">
<rect x="9" y="6" width="24" height="36" rx="3" fill="#FFC54F"/>
<path fill-rule="evenodd" clip-rule="evenodd" d="M21.5106 10.3329L16.6939 13.9646C16.1045 14.4085 15.8569 15.1984 16.0826 15.9185L17.9217 21.7941C18.1473 22.5141 18.7941 23 19.5233 23H25.4767C26.2059 23 26.8527 22.5141 27.0783 21.7941L28.9174 15.9185C29.1431 15.1984 28.8955 14.4085 28.3061 13.9646L23.4894 10.3329C22.9 9.88902 22.1 9.88902 21.5106 10.3329Z" fill="#FFC54F" stroke="#CC9D3F"/>
<path fill-rule="evenodd" clip-rule="evenodd" d="M18.5158 19.5527C18.4865 19.613 18.4958 19.6329 18.5626 19.6329C19.423 19.6329 20.2835 19.6329 21.1434 19.6323H21.4599C21.6752 19.6324 21.8904 19.6324 22.1056 19.6324C22.6436 19.6325 23.1816 19.6326 23.7197 19.6331C23.7632 19.6331 23.7952 19.6242 23.815 19.5805C23.848 19.5077 23.8821 19.4352 23.9163 19.3627C23.9396 19.3131 23.963 19.2635 23.9859 19.2138C24.0202 19.1395 24.0541 19.065 24.0879 18.9906C24.1596 18.833 24.2312 18.6754 24.3068 18.5197C24.3546 18.4212 24.3343 18.4218 24.2734 18.4235C24.2645 18.4238 24.2548 18.424 24.2443 18.424C23.0346 18.424 21.8247 18.424 20.6148 18.4242C20.5523 18.4242 20.5407 18.4021 20.5688 18.345C20.6334 18.2139 20.6971 18.082 20.7599 17.95C20.8238 17.8153 20.8874 17.6803 20.951 17.5454C21.0108 17.4185 21.0707 17.2917 21.1308 17.1649C21.1745 17.0728 21.2187 16.981 21.2628 16.8891C21.3127 16.7853 21.3626 16.6815 21.4119 16.5774C21.4545 16.4874 21.4965 16.3972 21.5386 16.3069C21.5806 16.2167 21.6227 16.1264 21.6653 16.0365C21.7142 15.9333 21.7638 15.8303 21.8133 15.7274C21.8628 15.6244 21.9123 15.5215 21.9612 15.4183C22.0366 15.2595 22.1117 15.1006 22.1868 14.9418C22.2663 14.7735 22.3458 14.6052 22.4257 14.4371C22.4939 14.2937 22.5626 14.1503 22.6313 14.007C22.6827 13.8996 22.7341 13.7923 22.7854 13.6849C22.8498 13.5498 22.9141 13.4145 22.9783 13.2793C23.0426 13.1441 23.1068 13.0089 23.1713 12.8737C23.1994 12.8148 23.1915 12.8004 23.127 12.8004C23.0266 12.8004 22.9263 12.8004 22.8259 12.8004C22.4746 12.8005 22.1234 12.8006 21.7721 12.7998C21.7288 12.7996 21.7025 12.8129 21.6835 12.8536C21.5887 13.0565 21.4925 13.2586 21.3964 13.4608C21.369 13.5185 21.3415 13.5762 21.3141 13.6339C21.2751 13.7163 21.2359 13.7986 21.1968 13.881C21.1343 14.0125 21.0718 14.144 21.0095 14.2756C20.9457 14.4104 20.8822 14.5453 20.8187 14.6803C20.7821 14.758 20.7455 14.8358 20.7088 14.9136L20.383 15.6051C20.3579 15.6585 20.3328 15.7119 20.3077 15.7654C20.2615 15.8637 20.2153 15.9621 20.1688 16.0602C20.1298 16.1424 20.0906 16.2244 20.0513 16.3065C20.0033 16.4069 19.9553 16.5073 19.9078 16.608C19.8511 16.7282 19.7948 16.8486 19.7386 16.969C19.689 17.0751 19.6394 17.1812 19.5895 17.2871C19.5692 17.3301 19.5517 17.374 19.5341 17.4181C19.5301 17.428 19.5261 17.438 19.5221 17.448C19.5043 17.4923 19.4814 17.5348 19.4585 17.5772C19.4454 17.6015 19.4323 17.6257 19.4202 17.6503C19.3185 17.8568 19.2206 18.0652 19.1226 18.2737C19.087 18.3496 19.0513 18.4255 19.0155 18.5013C18.9886 18.5581 18.9619 18.6148 18.9351 18.6716C18.8924 18.7622 18.8497 18.8527 18.8067 18.9432C18.7893 18.9799 18.7719 19.0166 18.7545 19.0534C18.6754 19.2199 18.5963 19.3866 18.5158 19.5527ZM25.5726 19.7993C25.6336 19.7993 25.6947 19.7994 25.7557 19.7994C25.9827 19.7996 26.2097 19.7996 26.4369 19.7994C26.504 19.7994 26.5137 19.7821 26.4843 19.7197C26.4168 19.5765 26.35 19.4331 26.2835 19.2893C26.1844 19.0745 26.0855 18.8597 25.9866 18.6449C25.9276 18.5169 25.8686 18.3889 25.8096 18.2609C25.7795 18.1957 25.7494 18.1306 25.7193 18.0655C25.6449 17.9044 25.5705 17.7433 25.4963 17.5822C25.4171 17.4104 25.3381 17.2385 25.2591 17.0667C25.203 16.9445 25.1468 16.8224 25.0906 16.7002C25.0468 16.605 25.0029 16.5097 24.959 16.4144C24.8944 16.2741 24.8297 16.1338 24.7651 15.9934L24.3993 15.1975C24.3551 15.1015 24.3109 15.0056 24.2666 14.9096C24.2036 14.7729 24.1405 14.6363 24.0778 14.4995C24.0473 14.4333 24.0173 14.3669 23.9873 14.3006C23.9673 14.2563 23.9473 14.2121 23.9272 14.1679C23.9194 14.1504 23.9085 14.1338 23.8882 14.1331C23.8701 14.1328 23.8625 14.149 23.8557 14.1634C23.8553 14.1644 23.8548 14.1653 23.8544 14.1663C23.8483 14.179 23.8428 14.1919 23.8373 14.2049C23.833 14.2153 23.8286 14.2256 23.8239 14.2359C23.7917 14.3057 23.7594 14.3755 23.7272 14.4453C23.5864 14.7502 23.4455 15.0551 23.3041 15.3596C23.2149 15.5514 23.1255 15.743 23.036 15.9346C22.9465 16.1262 22.857 16.3178 22.7679 16.5096C22.6915 16.674 22.6155 16.8384 22.5394 17.0029C22.4762 17.1397 22.4129 17.2764 22.3495 17.4131C22.3195 17.478 22.3284 17.4914 22.4008 17.4914C22.5665 17.4913 22.7322 17.4912 22.8979 17.4911C23.2295 17.4909 23.561 17.4908 23.8925 17.4902C23.9333 17.4902 23.9616 17.5032 23.9791 17.5433C23.998 17.5867 24.0183 17.6296 24.0386 17.6725C24.05 17.6966 24.0614 17.7208 24.0726 17.7451C24.1094 17.8248 24.1463 17.9046 24.1831 17.9843C24.2818 18.1978 24.3805 18.4113 24.4789 18.625C24.5215 18.7177 24.5637 18.8105 24.6059 18.9033C24.6502 19.0007 24.6945 19.0981 24.7393 19.1953C24.7743 19.2712 24.8096 19.347 24.845 19.4229C24.895 19.5302 24.945 19.6375 24.9941 19.7453C25.0132 19.7874 25.0419 19.8 25.0845 19.7998C25.2472 19.7991 25.4099 19.7992 25.5726 19.7993Z" fill="#CC9D3F"/>
</g>
<path d="M19.4 34.0721C18.7174 34.0721 18.1947 33.8241 17.832 33.3281C17.4747 32.8321 17.296 32.1148 17.296 31.1761C17.296 30.2481 17.4774 29.5388 17.84 29.0481C18.2027 28.5521 18.7227 28.3041 19.4 28.3041C20.0774 28.3041 20.5974 28.5521 20.96 29.0481C21.3227 29.5388 21.504 30.2481 21.504 31.1761C21.504 32.1148 21.3227 32.8321 20.96 33.3281C20.6027 33.8241 20.0827 34.0721 19.4 34.0721ZM19.4 33.1201C19.7094 33.1201 19.9334 32.9654 20.072 32.6561C20.216 32.3468 20.288 31.8534 20.288 31.1761C20.288 30.5041 20.216 30.0161 20.072 29.7121C19.9334 29.4081 19.7094 29.2561 19.4 29.2561C19.0907 29.2561 18.864 29.4081 18.72 29.7121C18.5814 30.0161 18.512 30.5041 18.512 31.1761C18.512 31.8534 18.5814 32.3468 18.72 32.6561C18.864 32.9654 19.0907 33.1201 19.4 33.1201Z" fill="#CC9D3F"/>
<path d="M23.4849 32.7201V33.5441C23.4849 33.8481 23.4289 34.1254 23.3169 34.3761C23.2102 34.6321 23.0262 34.8908 22.7649 35.1521L22.2929 34.7761C22.5542 34.5148 22.7169 34.2561 22.7809 34.0001H22.1889V32.7201H23.4849Z" fill="#CC9D3F"/>
<path d="M27.211 31.0961C27.5417 31.1921 27.795 31.3601 27.971 31.6001C28.1524 31.8348 28.243 32.1228 28.243 32.4641C28.243 32.9601 28.0537 33.3521 27.675 33.6401C27.2964 33.9228 26.7844 34.0641 26.139 34.0641C25.7497 34.0641 25.3764 34.0081 25.019 33.8961C24.6617 33.7841 24.371 33.6294 24.147 33.4321L24.539 32.5441C25.051 32.9068 25.5657 33.0881 26.083 33.0881C26.4244 33.0881 26.6724 33.0294 26.827 32.9121C26.9817 32.7894 27.059 32.6001 27.059 32.3441C27.059 32.0934 26.9817 31.9121 26.827 31.8001C26.6724 31.6881 26.4244 31.6321 26.083 31.6321H25.275V30.6641H25.947C26.2724 30.6641 26.5124 30.6081 26.667 30.4961C26.827 30.3841 26.907 30.2108 26.907 29.9761C26.907 29.7468 26.8377 29.5708 26.699 29.4481C26.5604 29.3254 26.3604 29.2641 26.099 29.2641C25.8644 29.2641 25.619 29.3121 25.363 29.4081C25.107 29.4988 24.859 29.6321 24.619 29.8081L24.227 28.9201C24.451 28.7281 24.739 28.5761 25.091 28.4641C25.4484 28.3468 25.8137 28.2881 26.187 28.2881C26.571 28.2881 26.907 28.3521 27.195 28.4801C27.483 28.6028 27.7044 28.7788 27.859 29.0081C28.019 29.2374 28.099 29.5041 28.099 29.8081C28.099 30.1121 28.019 30.3788 27.859 30.6081C27.7044 30.8321 27.4884 30.9948 27.211 31.0961Z" fill="#CC9D3F"/>
</svg>
