<svg width="48" height="48" viewBox="0 0 48 48" fill="none" xmlns="http://www.w3.org/2000/svg">
<g id="icon product/Sub-Menu/Pembayaran &#38; Topup/Financial">
<g id="Group">
<path id="Rectangle" fill-rule="evenodd" clip-rule="evenodd" d="M10 9C10 6.79086 11.7909 5 14 5H34C36.2091 5 38 6.79086 38 9V36C38 38.2091 36.2091 40 34 40H14C11.7909 40 10 38.2091 10 36V9Z" fill="#00883E"/>
<path id="Rectangle_2" fill-rule="evenodd" clip-rule="evenodd" d="M10 9C10 6.79086 11.7909 5 14 5H31C33.2091 5 35 6.79086 35 9V35C35 37.2091 33.2091 39 31 39H14C11.7909 39 10 37.2091 10 35V9Z" fill="#00AB4E"/>
<path id="Combined Shape" fill-rule="evenodd" clip-rule="evenodd" d="M14 19C14 18.4477 14.4477 18 15 18H18C18.5523 18 19 18.4477 19 19V22C19 22.5523 18.5523 23 18 23H15C14.4477 23 14 22.5523 14 22V19ZM14 25.5C14 24.9477 14.4477 24.5 15 24.5H18C18.5523 24.5 19 24.9477 19 25.5V28.5C19 29.0523 18.5523 29.5 18 29.5H15C14.4477 29.5 14 29.0523 14 28.5V25.5ZM28 24.5C27.4477 24.5 27 24.9477 27 25.5V28.5C27 29.0523 27.4477 29.5 28 29.5H31C31.5523 29.5 32 29.0523 32 28.5V25.5C32 24.9477 31.5523 24.5 31 24.5H28ZM20.5 25.5C20.5 24.9477 20.9477 24.5 21.5 24.5H24.5C25.0523 24.5 25.5 24.9477 25.5 25.5V28.5C25.5 29.0523 25.0523 29.5 24.5 29.5H21.5C20.9477 29.5 20.5 29.0523 20.5 28.5V25.5ZM15 31C14.4477 31 14 31.4477 14 32V35C14 35.5523 14.4477 36 15 36H24.5C25.0523 36 25.5 35.5523 25.5 35V32C25.5 31.4477 25.0523 31 24.5 31H15ZM20.5 19C20.5 18.4477 20.9477 18 21.5 18H24.5C25.0523 18 25.5 18.4477 25.5 19V22C25.5 22.5523 25.0523 23 24.5 23H21.5C20.9477 23 20.5 22.5523 20.5 22V19ZM28 18C27.4477 18 27 18.4477 27 19V22C27 22.5523 27.4477 23 28 23H31C31.5523 23 32 22.5523 32 22V19C32 18.4477 31.5523 18 31 18H28Z" fill="#00883E"/>
<g id="Group 2">
<rect id="Rectangle_3" x="14" y="10" width="18" height="6" rx="1" fill="#98AC26"/>
<mask id="mask0_0_11157" style="mask-type:alpha" maskUnits="userSpaceOnUse" x="14" y="10" width="18" height="6">
<rect id="Rectangle_4" x="14" y="10" width="18" height="6" rx="1" fill="white"/>
</mask>
<g mask="url(#mask0_0_11157)">
<rect id="Rectangle_5" x="15" y="10" width="18" height="6" rx="1" fill="#BFD730"/>
</g>
</g>
</g>
<g id="Group 22">
<path id="Stroke 10" d="M42.5 35C42.5 39.1425 39.1425 42.5 35 42.5C30.8575 42.5 27.5 39.1425 27.5 35C27.5 30.8575 30.8575 27.5 35 27.5C39.1425 27.5 42.5 30.8575 42.5 35Z" fill="#E07E26" stroke="white"/>
<path id="Rp" fill-rule="evenodd" clip-rule="evenodd" d="M31.8455 34.909V37.0763H30.7V31.5H33.1099C33.7248 31.5 34.1897 31.6437 34.5046 31.9311C34.8194 32.2185 34.9769 32.6337 34.9769 33.1768C34.9769 33.5987 34.8665 33.952 34.6459 34.2367C34.4252 34.5215 34.1141 34.7087 33.7124 34.7983C33.9851 34.8721 34.2157 35.0804 34.4041 35.4232L35.2521 37.0763H33.9876L33.0802 35.2966C33.0058 35.1595 32.9165 35.0606 32.8124 35C32.7083 34.9394 32.5769 34.909 32.4182 34.909H31.8455ZM31.8306 33.9757H32.9389C33.2711 33.9757 33.5116 33.9137 33.6603 33.7898C33.8091 33.6659 33.8835 33.4721 33.8835 33.2085C33.8835 32.9395 33.8091 32.7444 33.6603 32.6232C33.5116 32.5019 33.2711 32.4412 32.9389 32.4412H31.8306V33.9757ZM36.9479 38.5V36.5226C37.057 36.7177 37.212 36.8693 37.4128 36.9774C37.6136 37.0855 37.838 37.1395 38.086 37.1395C38.4033 37.1395 38.6835 37.0578 38.9265 36.8944C39.1694 36.7309 39.3591 36.4976 39.4955 36.1944C39.6318 35.8911 39.7 35.5392 39.7 35.1384C39.7 34.7377 39.6318 34.3831 39.4955 34.0746C39.3591 33.7661 39.1682 33.5262 38.9227 33.3548C38.6773 33.1834 38.3984 33.0977 38.086 33.0977C37.8331 33.0977 37.605 33.1544 37.4017 33.2678C37.1984 33.3812 37.0422 33.538 36.9331 33.7384V33.1927H35.8248V38.5H36.9479ZM37.1488 35.9412C37.2926 36.1337 37.4959 36.2299 37.7587 36.2299C38.0215 36.2299 38.2248 36.1363 38.3686 35.9492C38.5124 35.762 38.5843 35.4917 38.5843 35.1384C38.5843 34.7798 38.5124 34.5017 38.3686 34.304C38.2248 34.1062 38.0215 34.0073 37.7587 34.0073C37.4959 34.0073 37.2926 34.1036 37.1488 34.296C37.005 34.4885 36.9331 34.764 36.9331 35.1226C36.9331 35.4759 37.005 35.7488 37.1488 35.9412Z" fill="white"/>
</g>
</g>
</svg>
