<svg width="48" height="48" viewBox="0 0 48 48" fill="none" xmlns="http://www.w3.org/2000/svg">
<path fill-rule="evenodd" clip-rule="evenodd" d="M12 9C12 7.34315 13.3431 6 15 6H33C34.6569 6 36 7.34315 36 9V39C36 40.6569 34.6569 42 33 42H15C13.3431 42 12 40.6569 12 39V9Z" fill="#CC9D3F"/>
<mask id="mask0_413_578" style="mask-type:alpha" maskUnits="userSpaceOnUse" x="12" y="6" width="24" height="36">
<path fill-rule="evenodd" clip-rule="evenodd" d="M12 9C12 7.34315 13.3431 6 15 6H33C34.6569 6 36 7.34315 36 9V39C36 40.6569 34.6569 42 33 42H15C13.3431 42 12 40.6569 12 39V9Z" fill="white"/>
</mask>
<g mask="url(#mask0_413_578)">
<rect x="9" y="6" width="24" height="36" rx="3" fill="#FFC54F"/>
<path fill-rule="evenodd" clip-rule="evenodd" d="M21.5106 10.3329L16.6939 13.9646C16.1045 14.4085 15.8569 15.1984 16.0826 15.9185L17.9217 21.7941C18.1473 22.5141 18.7941 23 19.5233 23H25.4767C26.2059 23 26.8527 22.5141 27.0783 21.7941L28.9174 15.9185C29.1431 15.1984 28.8955 14.4085 28.3061 13.9646L23.4894 10.3329C22.9 9.88902 22.1 9.88902 21.5106 10.3329Z" fill="#FFC54F" stroke="#CC9D3F"/>
<path d="M22.591 13.3294C22.4694 13.3294 22.3495 13.3227 22.2301 13.3305C21.7696 13.3619 21.3314 13.4824 20.9134 13.6764C20.6294 13.8082 20.3688 13.9781 20.1307 14.1844C19.455 14.7704 19.0342 15.4993 18.8762 16.3795C18.8285 16.6464 18.8017 16.9172 18.8218 17.1869C18.8829 17.9983 19.1518 18.7316 19.6813 19.3579C20.2456 20.0257 20.956 20.4569 21.8166 20.6099C22.9899 20.8191 24.0405 20.5337 24.9392 19.7459C25.597 19.1701 25.9993 18.4395 26.1276 17.5755C26.3002 16.4177 25.9909 15.3938 25.2115 14.5169C25.0305 14.3134 24.8255 14.1362 24.6014 13.9815C24.5621 13.9545 24.5644 13.9388 24.5941 13.9069C24.7594 13.7331 24.9235 13.5581 25.0866 13.3821C25.1157 13.3507 25.1348 13.3484 25.1695 13.3748C26.0335 14.0258 26.6033 14.8735 26.8689 15.9231C26.9787 16.3577 27.0185 16.8006 26.9922 17.2475C26.9473 18.0207 26.7249 18.7395 26.3092 19.3938C25.9937 19.89 25.6015 20.3161 25.1213 20.6587C24.5134 21.0921 23.8416 21.3691 23.1009 21.4605C21.8015 21.6209 20.6338 21.294 19.6231 20.4574C18.782 19.7611 18.2694 18.864 18.071 17.7897C18.0055 17.4336 17.9853 17.0742 18.0105 16.712C18.0839 15.6742 18.4621 14.7647 19.1558 13.9904C19.7648 13.3114 20.5151 12.8606 21.3992 12.6347C21.8833 12.5113 22.3741 12.476 22.8717 12.5153C23.3351 12.5517 23.7805 12.6599 24.2103 12.836C24.2321 12.8449 24.2579 12.8489 24.2764 12.8713C24.2629 12.8864 24.25 12.9016 24.236 12.9156C23.9195 13.2363 23.6068 13.5609 23.2852 13.8761C23.135 14.0235 22.9821 14.1682 22.8364 14.319C22.0116 15.1735 21.1611 16.0033 20.3246 16.846C20.2865 16.8842 20.2893 16.9032 20.3257 16.9397C21.081 17.6932 21.8357 18.4479 22.5887 19.2043C22.6285 19.2441 22.6465 19.2363 22.6812 19.2015C23.3255 18.555 23.9704 17.9097 24.6165 17.266C24.6563 17.2267 24.6568 17.206 24.617 17.1667C24.3677 16.9212 24.1206 16.6739 23.8752 16.425C23.8371 16.3863 23.813 16.3857 23.7805 16.4266C23.7609 16.4513 23.7368 16.4715 23.7144 16.4939C23.4404 16.7642 23.1636 17.0327 22.893 17.3064C22.8145 17.3854 22.7389 17.4678 22.6621 17.5486C22.6386 17.5732 22.624 17.5749 22.5988 17.5491C22.4145 17.3624 22.2296 17.1768 22.0424 16.9924C22.0088 16.9593 22.024 16.9425 22.0486 16.9178C22.6291 16.338 23.209 15.7577 23.7895 15.1774C23.7912 15.1757 23.7928 15.1746 23.794 15.1724C23.8158 15.141 23.8354 15.1421 23.8612 15.1712C23.8982 15.2133 23.9396 15.2509 23.9794 15.2907C24.6042 15.9158 25.2283 16.541 25.8547 17.1651C25.8957 17.206 25.899 17.2262 25.8559 17.2694C25.0894 18.0341 24.3262 18.8023 23.5575 19.5648C23.4068 19.7145 23.2499 19.8586 23.1042 20.0134C22.9647 20.162 22.8168 20.3021 22.6773 20.4502C22.6459 20.4838 22.6274 20.486 22.5932 20.4518C21.4233 19.2789 20.2523 18.1065 19.0801 16.9363C19.0364 16.8931 19.0555 16.8741 19.0874 16.8421C20.0198 15.9102 20.9515 14.9778 21.8839 14.0459C22.1041 13.8256 22.3248 13.6052 22.5445 13.3843C22.5607 13.3686 22.5831 13.3557 22.591 13.3294Z" fill="#CC9D3F"/>
<path d="M19.104 33.768C18.4213 33.768 17.8987 33.52 17.536 33.024C17.1787 32.528 17 31.8107 17 30.872C17 29.944 17.1813 29.2347 17.544 28.744C17.9067 28.248 18.4267 28 19.104 28C19.7813 28 20.3013 28.248 20.664 28.744C21.0267 29.2347 21.208 29.944 21.208 30.872C21.208 31.8107 21.0267 32.528 20.664 33.024C20.3067 33.52 19.7867 33.768 19.104 33.768ZM19.104 32.816C19.4133 32.816 19.6373 32.6613 19.776 32.352C19.92 32.0427 19.992 31.5493 19.992 30.872C19.992 30.2 19.92 29.712 19.776 29.408C19.6373 29.104 19.4133 28.952 19.104 28.952C18.7947 28.952 18.568 29.104 18.424 29.408C18.2853 29.712 18.216 30.2 18.216 30.872C18.216 31.5493 18.2853 32.0427 18.424 32.352C18.568 32.6613 18.7947 32.816 19.104 32.816Z" fill="#CC9D3F"/>
<path d="M23.1889 32.416V33.24C23.1889 33.544 23.1329 33.8213 23.0209 34.072C22.9142 34.328 22.7302 34.5867 22.4689 34.848L21.9969 34.472C22.2582 34.2107 22.4209 33.952 22.4849 33.696H21.8929V32.416H23.1889Z" fill="#CC9D3F"/>
<path d="M26.883 32.696H28.099V33.696H24.419V32.696H25.635V29.44L24.675 30L24.203 29.104L25.995 28.056H26.883V32.696Z" fill="#CC9D3F"/>
</g>
</svg>
