<svg width="24" height="24" viewBox="0 0 24 24" fill="none" xmlns="http://www.w3.org/2000/svg">
<g id="icon system/W/Woman">
<path id="Combined Shape" fill-rule="evenodd" clip-rule="evenodd" d="M12.5 2C17.1164 2 20.8729 5.77626 20.9968 10.4833L21 10.7234V17.9574C21 19.2017 20.0528 20.2199 18.8584 20.2936L18.7195 20.2979H17.061C17.0312 20.2979 17.0019 20.2957 16.9733 20.2916C15.7739 21.3561 14.2103 22 12.5 22C10.7897 22 9.2261 21.3561 8.02673 20.2916L8.02342 20.292L7.93902 20.2979H6.28049C5.06811 20.2979 4.07599 19.3258 4.00416 18.1L4 17.9574V10.7234C4 5.90535 7.80534 2 12.5 2ZM18.7195 19.0213H18.0946C18.8801 17.8783 19.3415 16.4839 19.3415 14.9787V12.8511C19.3415 12.8217 19.3395 12.7928 19.3358 12.7645C19.2946 12.4529 19.0344 12.2128 18.7195 12.2128C15.269 12.2128 12.9548 11.1737 11.521 9.45694C11.026 8.86423 10.6727 8.22976 10.4379 7.59724C10.3344 7.31834 10.2709 7.09093 10.2373 6.93488L10.1945 6.70976C10.0119 6.02668 8.97561 6.13392 8.97561 6.89362L8.96842 7.03568L8.9531 7.19561C8.92328 7.46335 8.86909 7.76461 8.78432 8.09085C8.54017 9.03047 8.09985 9.9719 7.41356 10.8523C6.99632 11.3876 6.49854 11.8846 5.91292 12.3361C5.90189 12.3444 5.89113 12.3531 5.88067 12.3621C5.81356 12.4198 5.76111 12.4894 5.72408 12.5655C5.68692 12.6417 5.66416 12.7265 5.65945 12.8162M5.65854 12.8585V14.9787L5.66167 15.1934C5.7033 16.6164 6.15738 17.9329 6.9054 19.0213H6.28049L6.17458 19.0158C5.65221 18.9612 5.2439 18.5078 5.2439 17.9574V10.7234L5.247 10.5038C5.36016 6.49239 8.56389 3.2766 12.5 3.2766C16.5077 3.2766 19.7561 6.61039 19.7561 10.7234V17.9574L19.7507 18.0661C19.6976 18.6022 19.2558 19.0213 18.7195 19.0213M6.90244 13.164V14.9787C6.90244 18.1519 9.40837 20.7234 12.5 20.7234C15.5259 20.7234 17.9907 18.2601 18.0942 15.1804L18.0976 14.9787V13.4784C14.6221 13.3545 12.1596 12.1832 10.5766 10.2877C10.2766 9.92853 10.0254 9.56879 9.81721 9.21814L9.76673 9.13106L9.72757 9.2455C9.45803 9.97713 9.08071 10.6998 8.57892 11.3918L8.38488 11.6498C7.96196 12.1924 7.46913 12.6992 6.90244 13.164Z" fill="#70717D"/>
<mask id="mask0_0_6370" style="mask-type:alpha" maskUnits="userSpaceOnUse" x="4" y="2" width="17" height="20">
<path id="Combined Shape_2" fill-rule="evenodd" clip-rule="evenodd" d="M12.5 2C17.1164 2 20.8729 5.77626 20.9968 10.4833L21 10.7234V17.9574C21 19.2017 20.0528 20.2199 18.8584 20.2936L18.7195 20.2979H17.061C17.0312 20.2979 17.0019 20.2957 16.9733 20.2916C15.7739 21.3561 14.2103 22 12.5 22C10.7897 22 9.2261 21.3561 8.02673 20.2916L8.02342 20.292L7.93902 20.2979H6.28049C5.06811 20.2979 4.07599 19.3258 4.00416 18.1L4 17.9574V10.7234C4 5.90535 7.80534 2 12.5 2ZM18.7195 19.0213H18.0946C18.8801 17.8783 19.3415 16.4839 19.3415 14.9787V12.8511C19.3415 12.8217 19.3395 12.7928 19.3358 12.7645C19.2946 12.4529 19.0344 12.2128 18.7195 12.2128C15.269 12.2128 12.9548 11.1737 11.521 9.45694C11.026 8.86423 10.6727 8.22976 10.4379 7.59724C10.3344 7.31834 10.2709 7.09093 10.2373 6.93488L10.1945 6.70976C10.0119 6.02668 8.97561 6.13392 8.97561 6.89362L8.96842 7.03568L8.9531 7.19561C8.92328 7.46335 8.86909 7.76461 8.78432 8.09085C8.54017 9.03047 8.09985 9.9719 7.41356 10.8523C6.99632 11.3876 6.49854 11.8846 5.91292 12.3361C5.90189 12.3444 5.89113 12.3531 5.88067 12.3621C5.81356 12.4198 5.76111 12.4894 5.72408 12.5655C5.68692 12.6417 5.66416 12.7265 5.65945 12.8162M5.65854 12.8585V14.9787L5.66167 15.1934C5.7033 16.6164 6.15738 17.9329 6.9054 19.0213H6.28049L6.17458 19.0158C5.65221 18.9612 5.2439 18.5078 5.2439 17.9574V10.7234L5.247 10.5038C5.36016 6.49239 8.56389 3.2766 12.5 3.2766C16.5077 3.2766 19.7561 6.61039 19.7561 10.7234V17.9574L19.7507 18.0661C19.6976 18.6022 19.2558 19.0213 18.7195 19.0213M6.90244 13.164V14.9787C6.90244 18.1519 9.40837 20.7234 12.5 20.7234C15.5259 20.7234 17.9907 18.2601 18.0942 15.1804L18.0976 14.9787V13.4784C14.6221 13.3545 12.1596 12.1832 10.5766 10.2877C10.2766 9.92853 10.0254 9.56879 9.81721 9.21814L9.76673 9.13106L9.72757 9.2455C9.45803 9.97713 9.08071 10.6998 8.57892 11.3918L8.38488 11.6498C7.96196 12.1924 7.46913 12.6992 6.90244 13.164Z" fill="white"/>
</mask>
<g mask="url(#mask0_0_6370)">
<g id="Color/1. Shades/2. Secondary">
<rect id="color" width="24" height="24" fill="#58585B"/>
</g>
</g>
</g>
</svg>
