<svg width="24" height="24" viewBox="0 0 24 24" fill="none" xmlns="http://www.w3.org/2000/svg">
<g id="icon system/D/Dropdown/Right">
<path id="Fill 1" fill-rule="evenodd" clip-rule="evenodd" d="M10.5673 6.83652C9.95926 6.18652 8.84726 6.53252 8.74026 7.40352L8.69752 7.78223C8.59333 8.7808 8.51112 10.1742 8.50125 12.1059L8.50026 12.4995C8.50026 14.9045 8.60926 16.5205 8.74026 17.5955C8.84726 18.4665 9.95926 18.8135 10.5673 18.1625L15.2283 13.1825C15.5903 12.7945 15.5903 12.2045 15.2283 11.8165L10.5673 6.83652Z" fill="#70717D"/>
<mask id="mask0_0_5396" style="mask-type:alpha" maskUnits="userSpaceOnUse" x="8" y="6" width="8" height="13">
<path id="Fill 1_2" fill-rule="evenodd" clip-rule="evenodd" d="M10.5673 6.83652C9.95926 6.18652 8.84726 6.53252 8.74026 7.40352L8.69752 7.78223C8.59333 8.7808 8.51112 10.1742 8.50125 12.1059L8.50026 12.4995C8.50026 14.9045 8.60926 16.5205 8.74026 17.5955C8.84726 18.4665 9.95926 18.8135 10.5673 18.1625L15.2283 13.1825C15.5903 12.7945 15.5903 12.2045 15.2283 11.8165L10.5673 6.83652Z" fill="white"/>
</mask>
<g mask="url(#mask0_0_5396)">
<g id="Color/1. Shades/2. Secondary">
<rect id="color" width="24" height="24" fill="#58585B"/>
</g>
</g>
</g>
</svg>
