<svg width="48" height="48" viewBox="0 0 48 48" fill="none" xmlns="http://www.w3.org/2000/svg">
<g id="icon product/Sub-Menu/Emas/Transfer">
<g id="Group">
<g id="Group 5">
<path id="Path" d="M7.67828 23.972C7.19854 23.8475 6.90695 23.3433 7.027 22.8458C8.0293 18.6923 10.8354 15.2662 14.6067 13.5647L14.9244 13.428L13.6355 12.7592C13.1932 12.5298 13.014 11.972 13.2352 11.5134C13.438 11.0929 13.9069 10.9018 14.3243 11.0495L14.4367 11.0983L17.5062 12.6904L17.5715 12.7278L17.6579 12.7898L17.7417 12.8671L17.8201 12.961L17.8746 13.0448L17.9109 13.1147L17.9598 13.2423L17.9857 13.349L18 13.472L17.9985 13.5947L17.9825 13.7103L17.9417 13.8536L17.9065 13.9363L17.8704 14.004L17.8092 14.0954L17.7577 14.1576L17.6647 14.2465L17.5481 14.3282L17.47 14.3691L15.64 15.1296C12.2172 16.5488 9.65939 19.5874 8.7643 23.2966C8.64426 23.7941 8.15803 24.0965 7.67828 23.972Z" fill="#00AB4E"/>
<path id="Path_2" d="M40.3217 25.028C40.8015 25.1525 41.0931 25.6567 40.973 26.1542C39.9707 30.3077 37.1646 33.7338 33.3933 35.4353L33.0756 35.572L34.3645 36.2408C34.8068 36.4702 34.986 37.028 34.7648 37.4866C34.562 37.9071 34.0931 38.0982 33.6757 37.9505L33.5633 37.9017L30.4938 36.3096L30.4285 36.2722L30.3421 36.2102L30.2583 36.1329L30.1799 36.039L30.1254 35.9552L30.0891 35.8853L30.0402 35.7577L30.0143 35.651L30 35.528L30.0015 35.4053L30.0175 35.2897L30.0583 35.1464L30.0935 35.0637L30.1296 34.996L30.1908 34.9046L30.2423 34.8424L30.3353 34.7535L30.4519 34.6718L30.53 34.6309L32.36 33.8704C35.7828 32.4512 38.3406 29.4126 39.2357 25.7034C39.3557 25.2059 39.842 24.9035 40.3217 25.028Z" fill="#00AB4E"/>
</g>
<g id="Logam L">
<path id="Fill 13" fill-rule="evenodd" clip-rule="evenodd" d="M41.9108 21.385C40.5762 21.5383 24.4241 21.5383 23.0906 21.385C22.3881 21.3047 21.8999 20.7364 22.0175 20.1263C22.1739 19.3212 22.4858 17.9529 23.1147 15.7086C23.8539 13.0681 24.3747 11.8145 24.6771 11.2305C24.843 10.9104 25.1675 10.6799 25.5623 10.6111C26.4044 10.463 38.5959 10.463 39.438 10.6111C39.8328 10.6799 40.1573 10.9104 40.3232 11.2305C40.6256 11.8145 41.1464 13.0681 41.8856 15.7086C42.5145 17.9529 42.8274 19.3212 42.9828 20.1263C43.1004 20.7364 42.6122 21.3047 41.9108 21.385Z" fill="#CC9D3F"/>
<mask id="mask0_0_6739" style="mask-type:alpha" maskUnits="userSpaceOnUse" x="22" y="10" width="22" height="12">
<path id="Fill 13_2" fill-rule="evenodd" clip-rule="evenodd" d="M41.9108 21.385C40.5762 21.5383 24.4241 21.5383 23.0906 21.385C22.3881 21.3047 21.8999 20.7364 22.0175 20.1263C22.1739 19.3212 22.4858 17.9529 23.1147 15.7086C23.8539 13.0681 24.3747 11.8145 24.6771 11.2305C24.843 10.9104 25.1675 10.6799 25.5623 10.6111C26.4044 10.463 38.5959 10.463 39.438 10.6111C39.8328 10.6799 40.1573 10.9104 40.3232 11.2305C40.6256 11.8145 41.1464 13.0681 41.8856 15.7086C42.5145 17.9529 42.8274 19.3212 42.9828 20.1263C43.1004 20.7364 42.6122 21.3047 41.9108 21.385Z" fill="white"/>
</mask>
<g mask="url(#mask0_0_6739)">
<path id="Fill 13_3" fill-rule="evenodd" clip-rule="evenodd" d="M38.9108 20.385C37.5762 20.5383 21.4241 20.5383 20.0906 20.385C19.3881 20.3047 18.8999 19.7364 19.0175 19.1263C19.1739 18.3212 19.4858 16.9529 20.1147 14.7086C20.8539 12.0681 21.3747 10.8145 21.6771 10.2305C21.843 9.91037 22.1675 9.6799 22.5623 9.61107C23.4044 9.46298 35.5959 9.46298 36.438 9.61107C36.8328 9.6799 37.1573 9.91037 37.3232 10.2305C37.6256 10.8145 38.1464 12.0681 38.8856 14.7086C39.5145 16.9529 39.8274 18.3212 39.9828 19.1263C40.1004 19.7364 39.6122 20.3047 38.9108 20.385Z" fill="#FFC54F"/>
</g>
</g>
<g id="Logam L_2">
<path id="Fill 13_4" fill-rule="evenodd" clip-rule="evenodd" d="M24.9108 37.385C23.5762 37.5383 7.4241 37.5383 6.0906 37.385C5.38815 37.3047 4.8999 36.7364 5.0175 36.1263C5.17395 35.3212 5.4858 33.9529 6.11475 31.7086C6.85395 29.0681 7.37475 27.8145 7.67715 27.2305C7.84305 26.9104 8.1675 26.6799 8.5623 26.6111C9.4044 26.463 21.5959 26.463 22.438 26.6111C22.8328 26.6799 23.1573 26.9104 23.3232 27.2305C23.6256 27.8145 24.1464 29.0681 24.8856 31.7086C25.5145 33.9529 25.8274 35.3212 25.9828 36.1263C26.1004 36.7364 25.6122 37.3047 24.9108 37.385Z" fill="#CC9D3F"/>
<mask id="mask1_0_6739" style="mask-type:alpha" maskUnits="userSpaceOnUse" x="5" y="26" width="22" height="12">
<path id="Fill 13_5" fill-rule="evenodd" clip-rule="evenodd" d="M24.9108 37.385C23.5762 37.5383 7.4241 37.5383 6.0906 37.385C5.38815 37.3047 4.8999 36.7364 5.0175 36.1263C5.17395 35.3212 5.4858 33.9529 6.11475 31.7086C6.85395 29.0681 7.37475 27.8145 7.67715 27.2305C7.84305 26.9104 8.1675 26.6799 8.5623 26.6111C9.4044 26.463 21.5959 26.463 22.438 26.6111C22.8328 26.6799 23.1573 26.9104 23.3232 27.2305C23.6256 27.8145 24.1464 29.0681 24.8856 31.7086C25.5145 33.9529 25.8274 35.3212 25.9828 36.1263C26.1004 36.7364 25.6122 37.3047 24.9108 37.385Z" fill="white"/>
</mask>
<g mask="url(#mask1_0_6739)">
<path id="Fill 13_6" fill-rule="evenodd" clip-rule="evenodd" d="M21.9108 36.385C20.5762 36.5383 4.4241 36.5383 3.0906 36.385C2.38815 36.3047 1.8999 35.7364 2.0175 35.1263C2.17395 34.3212 2.4858 32.9529 3.11475 30.7086C3.85395 28.0681 4.37475 26.8145 4.67715 26.2305C4.84305 25.9104 5.1675 25.6799 5.5623 25.6111C6.4044 25.463 18.5959 25.463 19.438 25.6111C19.8328 25.6799 20.1573 25.9104 20.3232 26.2305C20.6256 26.8145 21.1464 28.0681 21.8856 30.7086C22.5145 32.9529 22.8274 34.3212 22.9828 35.1263C23.1004 35.7364 22.6122 36.3047 21.9108 36.385Z" fill="#FFC54F"/>
</g>
</g>
</g>
</g>
</svg>
