<svg width="24" height="24" viewBox="0 0 24 24" fill="none" xmlns="http://www.w3.org/2000/svg">
<g id="icon system/C/Chevron/Left">
<path id="Mask" d="M15.0025 15.8725L11.1225 11.9925L15.0025 8.11253C15.3925 7.72253 15.3925 7.09253 15.0025 6.70253C14.6125 6.31253 13.9825 6.31253 13.5925 6.70253L9.00249 11.2925C8.61249 11.6825 8.61249 12.3125 9.00249 12.7025L13.5925 17.2925C13.9825 17.6825 14.6125 17.6825 15.0025 17.2925C15.3825 16.9025 15.3925 16.2625 15.0025 15.8725Z" fill="black"/>
<mask id="mask0_0_5350" style="mask-type:alpha" maskUnits="userSpaceOnUse" x="8" y="6" width="8" height="12">
<path id="Mask_2" d="M15.0025 15.8725L11.1225 11.9925L15.0025 8.11253C15.3925 7.72253 15.3925 7.09253 15.0025 6.70253C14.6125 6.31253 13.9825 6.31253 13.5925 6.70253L9.00249 11.2925C8.61249 11.6825 8.61249 12.3125 9.00249 12.7025L13.5925 17.2925C13.9825 17.6825 14.6125 17.6825 15.0025 17.2925C15.3825 16.9025 15.3925 16.2625 15.0025 15.8725Z" fill="white"/>
</mask>
<g mask="url(#mask0_0_5350)">
<g id="Color/1. Shades/2. Secondary">
<rect id="color" width="24" height="24" fill="#58585B"/>
</g>
</g>
</g>
</svg>
