<svg width="24" height="24" viewBox="0 0 24 24" fill="none" xmlns="http://www.w3.org/2000/svg">
<g id="icon system/A/Add Image">
<path id="Combined Shape" fill-rule="evenodd" clip-rule="evenodd" d="M17.1039 3C14.6935 3 12.7373 4.95625 12.7373 7.36663C12.7373 9.77701 14.6935 11.7333 17.1039 11.7333C19.5143 11.7333 21.4705 9.77701 21.4705 7.36663C21.4705 4.95625 19.5143 3 17.1039 3ZM18.8506 7.8033H17.5406V9.11329C17.5406 9.35345 17.3441 9.54995 17.1039 9.54995C16.8637 9.54995 16.6672 9.35345 16.6672 9.11329V7.8033H15.3573C15.1171 7.8033 14.9206 7.6068 14.9206 7.36663C14.9206 7.12647 15.1171 6.92997 15.3573 6.92997H16.6672V5.61998C16.6672 5.37982 16.8637 5.18332 17.1039 5.18332C17.3441 5.18332 17.5406 5.37982 17.5406 5.61998V6.92997H18.8506C19.0907 6.92997 19.2872 7.12647 19.2872 7.36663C19.2872 7.6068 19.0907 7.8033 18.8506 7.8033ZM10.7333 6.09485C11.2151 6.09485 11.6815 6.09838 12.1326 6.10518C12.0392 6.47108 11.985 6.85263 11.9749 7.24508C11.8721 7.2437 11.7685 7.24249 11.664 7.24145L10.7333 7.23689C8.0592 7.23689 5.87251 7.34713 4.16151 7.51892C3.73217 7.56197 3.37036 7.97007 3.31898 8.52012C3.19257 9.87199 3.11489 11.5405 3.11489 13.5181C3.11489 15.4963 3.19254 17.164 3.31897 18.5161C3.37036 19.0662 3.73217 19.4743 4.16144 19.5173C5.8602 19.6889 8.05441 19.7994 10.7333 19.7994L11.2038 19.7982C13.3756 19.7875 15.2119 19.7031 16.7134 19.5729L17.3364 19.5144C17.7644 19.471 18.1261 19.059 18.1772 18.5039C18.2864 17.323 18.3516 15.6844 18.3516 13.5181L18.351 13.1413C18.35 12.8785 18.3481 12.6238 18.3452 12.3771C18.7341 12.2818 19.1057 12.1422 19.4543 11.964C19.4624 12.4498 19.4665 12.9675 19.4665 13.5181L19.4658 13.9009C19.4594 15.662 19.4086 17.0691 19.325 18.1621L19.2872 18.6114C19.188 19.6879 18.4299 20.5512 17.4462 20.6508C15.7028 20.8278 13.4654 20.9414 10.7333 20.9414L10.2591 20.9403C8.06991 20.9295 6.20985 20.8446 4.68526 20.7131L4.05242 20.6539C3.06967 20.5553 2.30938 19.6978 2.20916 18.6249C2.07935 17.2366 2 15.5326 2 13.5181C2 11.5041 2.07938 9.79932 2.20917 8.41129C2.30938 7.33845 3.06967 6.48091 4.05282 6.38232C5.59426 6.22755 7.5063 6.1221 9.79684 6.09943L10.7333 6.09485ZM11.9129 11.8446L11.9933 11.7631L12.0833 11.6866C12.6373 11.2568 13.4307 11.3611 13.8658 11.9597L16.9629 16.2203L17.0228 16.3095C17.5461 17.1557 17.0627 18.3433 16.07 18.4444C14.7857 18.5774 13.0151 18.6573 10.6909 18.6573L10.3748 18.6568L9.60615 18.6511C7.86382 18.6305 6.47847 18.5602 5.40855 18.4544C4.34647 18.3489 3.86477 17.0171 4.54478 16.174L6.14678 14.191L6.22585 14.1016C6.66352 13.6484 7.34815 13.5778 7.86177 13.9558L9.03693 14.818L9.07617 14.8391C9.12988 14.8586 9.18783 14.8431 9.23426 14.7918L11.9129 11.8446ZM12.9406 12.6071L12.9716 12.6418L16.0686 16.9022C16.1844 17.0615 16.0962 17.2941 15.9588 17.308C14.8518 17.4227 13.3589 17.4973 11.434 17.5124L10.3775 17.5148L9.6215 17.5092C7.90884 17.489 6.55363 17.4203 5.51594 17.3177C5.38241 17.3044 5.29703 17.104 5.37264 16.9508L5.40397 16.9017L7.00544 14.9195C7.05292 14.8608 7.11388 14.8417 7.17054 14.8616L7.21194 14.8838L8.38867 15.7471C8.87825 16.1048 9.52654 16.0598 9.96592 15.655L10.0509 15.5693L12.7293 12.6223C12.7791 12.5674 12.8426 12.553 12.8995 12.5795L12.9406 12.6071ZM6.64536 8.1886C7.8765 8.1886 8.87512 9.21154 8.87512 10.4727C8.87512 11.7343 7.87661 12.7568 6.64536 12.7568C5.41365 12.7568 4.41558 11.7344 4.41558 10.4727C4.41558 9.21143 5.41375 8.1886 6.64536 8.1886ZM6.64536 9.33064C6.02938 9.33064 5.53047 9.84227 5.53047 10.4727C5.53047 11.1037 6.02938 11.6147 6.64536 11.6147C7.26077 11.6147 7.76024 11.1037 7.76024 10.4727C7.76024 9.84227 7.26077 9.33064 6.64536 9.33064Z" fill="#70717D"/>
<mask id="mask0_0_5619" style="mask-type:alpha" maskUnits="userSpaceOnUse" x="2" y="3" width="20" height="18">
<path id="Combined Shape_2" fill-rule="evenodd" clip-rule="evenodd" d="M17.1039 3C14.6935 3 12.7373 4.95625 12.7373 7.36663C12.7373 9.77701 14.6935 11.7333 17.1039 11.7333C19.5143 11.7333 21.4705 9.77701 21.4705 7.36663C21.4705 4.95625 19.5143 3 17.1039 3ZM18.8506 7.8033H17.5406V9.11329C17.5406 9.35345 17.3441 9.54995 17.1039 9.54995C16.8637 9.54995 16.6672 9.35345 16.6672 9.11329V7.8033H15.3573C15.1171 7.8033 14.9206 7.6068 14.9206 7.36663C14.9206 7.12647 15.1171 6.92997 15.3573 6.92997H16.6672V5.61998C16.6672 5.37982 16.8637 5.18332 17.1039 5.18332C17.3441 5.18332 17.5406 5.37982 17.5406 5.61998V6.92997H18.8506C19.0907 6.92997 19.2872 7.12647 19.2872 7.36663C19.2872 7.6068 19.0907 7.8033 18.8506 7.8033ZM10.7333 6.09485C11.2151 6.09485 11.6815 6.09838 12.1326 6.10518C12.0392 6.47108 11.985 6.85263 11.9749 7.24508C11.8721 7.2437 11.7685 7.24249 11.664 7.24145L10.7333 7.23689C8.0592 7.23689 5.87251 7.34713 4.16151 7.51892C3.73217 7.56197 3.37036 7.97007 3.31898 8.52012C3.19257 9.87199 3.11489 11.5405 3.11489 13.5181C3.11489 15.4963 3.19254 17.164 3.31897 18.5161C3.37036 19.0662 3.73217 19.4743 4.16144 19.5173C5.8602 19.6889 8.05441 19.7994 10.7333 19.7994L11.2038 19.7982C13.3756 19.7875 15.2119 19.7031 16.7134 19.5729L17.3364 19.5144C17.7644 19.471 18.1261 19.059 18.1772 18.5039C18.2864 17.323 18.3516 15.6844 18.3516 13.5181L18.351 13.1413C18.35 12.8785 18.3481 12.6238 18.3452 12.3771C18.7341 12.2818 19.1057 12.1422 19.4543 11.964C19.4624 12.4498 19.4665 12.9675 19.4665 13.5181L19.4658 13.9009C19.4594 15.662 19.4086 17.0691 19.325 18.1621L19.2872 18.6114C19.188 19.6879 18.4299 20.5512 17.4462 20.6508C15.7028 20.8278 13.4654 20.9414 10.7333 20.9414L10.2591 20.9403C8.06991 20.9295 6.20985 20.8446 4.68526 20.7131L4.05242 20.6539C3.06967 20.5553 2.30938 19.6978 2.20916 18.6249C2.07935 17.2366 2 15.5326 2 13.5181C2 11.5041 2.07938 9.79932 2.20917 8.41129C2.30938 7.33845 3.06967 6.48091 4.05282 6.38232C5.59426 6.22755 7.5063 6.1221 9.79684 6.09943L10.7333 6.09485ZM11.9129 11.8446L11.9933 11.7631L12.0833 11.6866C12.6373 11.2568 13.4307 11.3611 13.8658 11.9597L16.9629 16.2203L17.0228 16.3095C17.5461 17.1557 17.0627 18.3433 16.07 18.4444C14.7857 18.5774 13.0151 18.6573 10.6909 18.6573L10.3748 18.6568L9.60615 18.6511C7.86382 18.6305 6.47847 18.5602 5.40855 18.4544C4.34647 18.3489 3.86477 17.0171 4.54478 16.174L6.14678 14.191L6.22585 14.1016C6.66352 13.6484 7.34815 13.5778 7.86177 13.9558L9.03693 14.818L9.07617 14.8391C9.12988 14.8586 9.18783 14.8431 9.23426 14.7918L11.9129 11.8446ZM12.9406 12.6071L12.9716 12.6418L16.0686 16.9022C16.1844 17.0615 16.0962 17.2941 15.9588 17.308C14.8518 17.4227 13.3589 17.4973 11.434 17.5124L10.3775 17.5148L9.6215 17.5092C7.90884 17.489 6.55363 17.4203 5.51594 17.3177C5.38241 17.3044 5.29703 17.104 5.37264 16.9508L5.40397 16.9017L7.00544 14.9195C7.05292 14.8608 7.11388 14.8417 7.17054 14.8616L7.21194 14.8838L8.38867 15.7471C8.87825 16.1048 9.52654 16.0598 9.96592 15.655L10.0509 15.5693L12.7293 12.6223C12.7791 12.5674 12.8426 12.553 12.8995 12.5795L12.9406 12.6071ZM6.64536 8.1886C7.8765 8.1886 8.87512 9.21154 8.87512 10.4727C8.87512 11.7343 7.87661 12.7568 6.64536 12.7568C5.41365 12.7568 4.41558 11.7344 4.41558 10.4727C4.41558 9.21143 5.41375 8.1886 6.64536 8.1886ZM6.64536 9.33064C6.02938 9.33064 5.53047 9.84227 5.53047 10.4727C5.53047 11.1037 6.02938 11.6147 6.64536 11.6147C7.26077 11.6147 7.76024 11.1037 7.76024 10.4727C7.76024 9.84227 7.26077 9.33064 6.64536 9.33064Z" fill="white"/>
</mask>
<g mask="url(#mask0_0_5619)">
<g id="Color/1. Shades/2. Secondary">
<rect id="color" width="24" height="24" fill="#58585B"/>
</g>
</g>
</g>
</svg>
