<svg width="48" height="48" viewBox="0 0 48 48" fill="none" xmlns="http://www.w3.org/2000/svg">
<g id="icon product/Sub-Menu/Gadai/Handphone">
<g id="HP">
<path id="Rectangle" fill-rule="evenodd" clip-rule="evenodd" d="M15 9C15 7.34315 16.3431 6 18 6H33C34.6569 6 36 7.34315 36 9V39C36 40.6569 34.6569 42 33 42H18C16.3431 42 15 40.6569 15 39V9Z" fill="#1868AB"/>
<path id="Rectangle_2" fill-rule="evenodd" clip-rule="evenodd" d="M12 9C12 7.34315 13.3431 6 15 6H30C31.6569 6 33 7.34315 33 9V39C33 40.6569 31.6569 42 30 42H15C13.3431 42 12 40.6569 12 39V9Z" fill="#5297D1"/>
<path id="Rectangle_3" fill-rule="evenodd" clip-rule="evenodd" d="M14 11C14 9.34314 15.3431 8 17 8L17.5 8C18.0523 8 18.5 8.44772 18.5 9C18.5 9.55228 18.9477 10 19.5 10H25.5C26.0523 10 26.5 9.55228 26.5 9C26.5 8.44772 26.9477 8 27.5 8H28C29.6569 8 31 9.34315 31 11V36.8529C31 38.5098 29.6569 39.8529 28 39.8529H17C15.3431 39.8529 14 38.5098 14 36.8529V11Z" fill="white"/>
</g>
</g>
</svg>
