<svg width="48" height="48" viewBox="0 0 48 48" fill="none" xmlns="http://www.w3.org/2000/svg">
<g id="icon product/Sub-Menu/Cicil Emas/1.Cicil Logam Mulia">
<g id="Group 2 Copy">
<rect id="Rectangle" x="19" y="11" width="22" height="32" rx="3" fill="#CC9D3F"/>
<mask id="mask0_0_10922" style="mask-type:alpha" maskUnits="userSpaceOnUse" x="19" y="11" width="22" height="32">
<rect id="Rectangle_2" x="19" y="11" width="22" height="32" rx="3" fill="white"/>
</mask>
<g mask="url(#mask0_0_10922)">
<rect id="Rectangle_3" x="16" y="11" width="22" height="32" rx="3" fill="#FFC54F"/>
<path id="Stroke 9" fill-rule="evenodd" clip-rule="evenodd" d="M27.815 16.2305L24.4804 18.7447C24.0723 19.052 23.9009 19.5989 24.0572 20.0974L25.3304 24.1652C25.4866 24.6636 25.9343 25 26.4392 25H30.5608C31.0657 25 31.5134 24.6636 31.6696 24.1652L32.9428 20.0974C33.0991 19.5989 32.9277 19.052 32.5196 18.7447L29.185 16.2305C28.7769 15.9232 28.2231 15.9232 27.815 16.2305Z" fill="#CC9D3F"/>
<rect id="Rectangle_4" x="23.5" y="35" width="10" height="2" rx="1" fill="#CC9D3F"/>
<rect id="Rectangle_5" x="23.5" y="30" width="10" height="2" rx="1" fill="#CC9D3F"/>
</g>
</g>
<g id="Group 2">
<path id="Rectangle_6" opacity="0.5" fill-rule="evenodd" clip-rule="evenodd" d="M27 11.0001L31 10.9961V35.0001C31 36.657 29.6569 38.0001 28 38.0001H19V35.0001L27 11.0001Z" fill="#CC9D3F"/>
<rect id="Rectangle_7" x="7" y="5" width="22" height="32" rx="3" fill="#CC9D3F"/>
<mask id="mask1_0_10922" style="mask-type:alpha" maskUnits="userSpaceOnUse" x="7" y="5" width="22" height="32">
<rect id="Rectangle_8" x="7" y="5" width="22" height="32" rx="3" fill="white"/>
</mask>
<g mask="url(#mask1_0_10922)">
<rect id="Rectangle_9" x="4" y="5" width="22" height="32" rx="3" fill="#FFC54F"/>
<path id="Stroke 9_2" fill-rule="evenodd" clip-rule="evenodd" d="M15.815 10.2305L12.4804 12.7447C12.0723 13.052 11.9009 13.5989 12.0572 14.0974L13.3304 18.1652C13.4866 18.6636 13.9343 19 14.4392 19H18.5608C19.0657 19 19.5134 18.6636 19.6696 18.1652L20.9428 14.0974C21.0991 13.5989 20.9277 13.052 20.5196 12.7447L17.185 10.2305C16.7769 9.92317 16.2231 9.92317 15.815 10.2305Z" fill="#CC9D3F"/>
<rect id="Rectangle_10" x="11.5" y="29" width="10" height="2" rx="1" fill="#CC9D3F"/>
<rect id="Rectangle_11" x="11.5" y="24" width="10" height="2" rx="1" fill="#CC9D3F"/>
</g>
</g>
</g>
</svg>
