<svg width="48" height="48" viewBox="0 0 48 48" fill="none" xmlns="http://www.w3.org/2000/svg">
<path fill-rule="evenodd" clip-rule="evenodd" d="M12 9C12 7.34315 13.3431 6 15 6H33C34.6569 6 36 7.34315 36 9V39C36 40.6569 34.6569 42 33 42H15C13.3431 42 12 40.6569 12 39V9Z" fill="#CC9D3F"/>
<mask id="mask0_0_10447" style="mask-type:alpha" maskUnits="userSpaceOnUse" x="12" y="6" width="24" height="36">
<path fill-rule="evenodd" clip-rule="evenodd" d="M12 9C12 7.34315 13.3431 6 15 6H33C34.6569 6 36 7.34315 36 9V39C36 40.6569 34.6569 42 33 42H15C13.3431 42 12 40.6569 12 39V9Z" fill="white"/>
</mask>
<g mask="url(#mask0_0_10447)">
<rect x="9" y="6" width="24" height="36" rx="3" fill="#FFC54F"/>
<path fill-rule="evenodd" clip-rule="evenodd" d="M21.5106 10.3329L16.6939 13.9646C16.1045 14.4085 15.8569 15.1984 16.0826 15.9185L17.9217 21.7941C18.1473 22.5141 18.7941 23 19.5233 23H25.4767C26.2059 23 26.8527 22.5141 27.0783 21.7941L28.9174 15.9185C29.1431 15.1984 28.8955 14.4085 28.3061 13.9646L23.4894 10.3329C22.9 9.88902 22.1 9.88902 21.5106 10.3329Z" fill="#FFC54F" stroke="#CC9D3F"/>
<path fill-rule="evenodd" clip-rule="evenodd" d="M19.4497 13.8016C19.5787 13.8143 19.6776 13.7795 19.709 13.8655C19.737 13.9421 19.6582 14.0004 19.61 14.0574C19.1254 14.6301 18.6397 15.2018 18.1563 15.7755C17.9898 15.9733 17.9936 16.0269 18.1733 16.2092C19.5458 17.6017 20.9196 18.993 22.2893 20.3883C22.3907 20.4916 22.4436 20.5176 22.5617 20.3969C23.9247 19.0047 25.2946 17.6193 26.6628 16.2322C26.8701 16.0221 26.8743 15.9786 26.6831 15.7519C26.2038 15.1837 25.7221 14.6176 25.2425 14.0497C25.1955 13.9942 25.1141 13.9389 25.1522 13.858C25.1914 13.775 25.2872 13.8167 25.3591 13.8078C25.4848 13.7923 25.5839 13.8413 25.6757 13.925C26.3524 14.5417 27.0322 15.1551 27.7084 15.7723C27.9072 15.9538 27.907 16.0487 27.7162 16.2312C26.0096 17.8632 24.3011 19.4932 22.5973 21.1282C22.465 21.2552 22.3795 21.2406 22.2551 21.1214C20.5555 19.4919 18.852 17.8666 17.1502 16.2395C16.9489 16.0471 16.949 15.9554 17.1561 15.766C17.8268 15.1529 18.5009 14.5436 19.1709 13.9297C19.269 13.8399 19.3729 13.7896 19.4497 13.8016Z" fill="#CC9D3F"/>
<path fill-rule="evenodd" clip-rule="evenodd" d="M22.2561 14.6977C22.2561 14.7321 22.2515 14.7672 22.2568 14.8008C22.3263 15.2417 22.2167 15.61 21.8305 15.869C21.7233 15.9409 21.7257 16.0171 21.8275 16.093C22.1993 16.3705 22.2815 16.7413 22.259 17.192C22.2235 17.8992 22.2502 18.6096 22.2487 19.3186C22.2485 19.398 22.2775 19.4977 22.1852 19.5418C22.085 19.5896 22.0213 19.5093 21.958 19.445C20.8748 18.3476 19.7925 17.2494 18.7068 16.1546C18.5715 16.0181 18.5513 15.9118 18.6883 15.7537C19.211 15.1505 19.7219 14.537 20.2337 13.9243C20.3002 13.8446 20.3643 13.8033 20.4745 13.8048C20.9907 13.8114 21.5071 13.8119 22.0233 13.8054C22.193 13.8033 22.2613 13.8709 22.2573 14.0368C22.2521 14.257 22.256 14.4774 22.2561 14.6977ZM19.6971 15.6518C20.1983 15.6518 20.6437 15.6548 21.089 15.6504C21.2624 15.6486 21.6071 15.2873 21.6097 15.1137C21.6123 14.9422 21.6046 14.7703 21.6122 14.599C21.6172 14.4884 21.5747 14.4581 21.4693 14.4608C21.2224 14.4671 20.9751 14.4629 20.728 14.4628C20.6729 14.4628 20.6228 14.4632 20.5822 14.5157C20.2985 14.8831 20.0119 15.2484 19.6971 15.6518ZM21.6096 18.0438C21.6096 17.637 21.6104 17.2214 21.6081 16.8057C21.6079 16.7745 21.5942 16.7348 21.5726 16.7135C21.3718 16.5155 21.2009 16.2622 20.853 16.3377C20.7679 16.3562 20.6753 16.3404 20.586 16.3404C20.3584 16.3404 20.1307 16.3404 19.8767 16.3404C20.4726 16.9261 21.0372 17.4811 21.6096 18.0438Z" fill="#CC9D3F"/>
<path fill-rule="evenodd" clip-rule="evenodd" d="M23.3 18.0322C23.8766 17.4633 24.4378 16.9094 25.0222 16.3329C24.8932 16.3329 24.7804 16.3329 24.6677 16.3329C24.0687 16.3329 23.4696 16.3269 22.8707 16.3362C22.6728 16.3393 22.5958 16.2616 22.5965 16.0716C22.599 15.4106 22.5953 14.7496 22.5985 14.0887C22.5996 13.8724 22.6672 13.8098 22.8879 13.8086C23.4112 13.8059 23.9345 13.8096 24.4577 13.8037C24.5589 13.8026 24.621 13.8372 24.6803 13.915C24.9681 14.2927 25.2611 14.6663 25.5509 15.0424C25.5919 15.0957 25.6527 15.1523 25.6228 15.2251C25.5912 15.3019 25.5086 15.28 25.4418 15.2898C25.1121 15.3378 24.8485 15.2477 24.6801 14.9425C24.4589 14.542 24.1234 14.417 23.6727 14.4667C23.3073 14.507 23.3037 14.4749 23.3037 14.84C23.3037 15.0466 23.3133 15.2537 23.3005 15.4595C23.2913 15.6089 23.3454 15.6418 23.4868 15.6406C24.2854 15.6342 25.0842 15.6375 25.8828 15.6378C25.9447 15.6378 26.0072 15.6353 26.0683 15.6432C26.1646 15.6557 26.2644 15.6724 26.3005 15.7831C26.3359 15.8916 26.3022 15.986 26.2271 16.0675C26.2037 16.0928 26.1787 16.1166 26.1545 16.141C25.0571 17.2442 23.9597 18.3474 22.8624 19.4506C22.8095 19.5037 22.7623 19.5766 22.6739 19.5494C22.5725 19.5182 22.6073 19.4244 22.6071 19.3557C22.6046 18.5295 22.609 17.7032 22.6027 16.877C22.6014 16.701 22.6717 16.6499 22.8367 16.6548C23.35 16.6701 23.2943 16.573 23.2994 17.1163C23.3023 17.424 23.3 17.7318 23.3 18.0322Z" fill="#CC9D3F"/>
<path fill-rule="evenodd" clip-rule="evenodd" d="M22.104 34.0001V33.0001H19.776L21.032 31.6801C21.352 31.3388 21.58 31.0294 21.716 30.7521C21.852 30.4748 21.92 30.1734 21.92 29.8481C21.92 29.3734 21.7453 28.9948 21.396 28.7121C21.0466 28.4294 20.5786 28.2881 19.992 28.2881C19.624 28.2881 19.264 28.3454 18.912 28.4601C18.56 28.5748 18.272 28.7281 18.048 28.9201L18.44 29.8081C18.6853 29.6321 18.936 29.4974 19.192 29.4041C19.448 29.3108 19.6933 29.2641 19.928 29.2641C20.44 29.2641 20.696 29.4881 20.696 29.9361C20.696 30.2881 20.4986 30.6721 20.104 31.0881L18.224 33.0801V34.0001H22.104ZM24.904 34.0721C25.5866 34.0721 26.108 33.8241 26.468 33.3281C26.828 32.8321 27.008 32.1148 27.008 31.1761C27.008 30.2481 26.8266 29.5374 26.464 29.0441C26.1013 28.5508 25.5813 28.3041 24.904 28.3041C24.2266 28.3041 23.7066 28.5508 23.344 29.0441C22.9813 29.5374 22.8 30.2481 22.8 31.1761C22.8 32.1148 22.98 32.8321 23.34 33.3281C23.7 33.8241 24.2213 34.0721 24.904 34.0721ZM24.228 32.6561C24.3693 32.9654 24.5946 33.1201 24.904 33.1201C25.2133 33.1201 25.4386 32.9654 25.58 32.6561C25.7213 32.3468 25.792 31.8534 25.792 31.1761C25.792 30.5041 25.7213 30.0161 25.58 29.7121C25.4386 29.4081 25.2133 29.2561 24.904 29.2561C24.5946 29.2561 24.3693 29.4081 24.228 29.7121C24.0866 30.0161 24.016 30.5041 24.016 31.1761C24.016 31.8534 24.0866 32.3468 24.228 32.6561Z" fill="#CC9D3F"/>
</g>
</svg>
