<svg width="24" height="24" viewBox="0 0 24 24" fill="none" xmlns="http://www.w3.org/2000/svg">
<g id="icon system/C/Calendar">
<path id="Combined Shape" fill-rule="evenodd" clip-rule="evenodd" d="M12 4.09392C13.3582 4.09392 14.7163 4.15052 16.0745 4.26372C16.2042 4.15763 16.3701 4.09392 16.55 4.09392C16.7804 4.09392 16.9878 4.19843 17.1257 4.36264C17.4579 4.39748 17.7901 4.43569 18.1223 4.47729L18.9969 4.59465C20.2752 4.77763 21.2774 5.66974 21.4825 6.8073C21.8275 8.72052 22 10.6337 22 12.547C22 14.221 21.8679 15.8951 21.6038 17.5692L21.4826 18.2866C21.2774 19.4242 20.2753 20.3163 18.9969 20.4993C16.6646 20.8331 14.3323 21 12 21C9.95924 21 7.91849 20.8722 5.87773 20.6166L5.00312 20.4993C3.72475 20.3163 2.72256 19.4242 2.51745 18.2866C2.17248 16.3734 2 14.4602 2 12.547C2 10.8729 2.13206 9.19882 2.39617 7.52476L2.51745 6.8073C2.72256 5.66974 3.72475 4.77763 5.00312 4.59465C5.73679 4.48964 6.47045 4.40115 7.20412 4.32917C7.34125 4.18436 7.53562 4.09392 7.75 4.09392C7.91718 4.09392 8.07219 4.14892 8.19738 4.24182C9.46492 4.14322 10.7325 4.09392 12 4.09392ZM12 5.48618C13.2665 5.48618 14.5332 5.53732 15.8 5.63962V7.32596C15.8 7.73789 16.1381 8.07182 16.55 8.07182C16.9619 8.07182 17.3 7.73789 17.3 7.32596V5.78465C17.4507 5.80162 17.6013 5.81931 17.752 5.83773L18.5855 5.94692L18.7294 5.9726C19.3905 6.11677 19.9039 6.59631 20.0148 7.19677C20.1239 7.78688 20.2145 8.37689 20.2868 8.96685H3.71322C3.75868 8.59577 3.81141 8.22466 3.87141 7.85353L3.98691 7.18703L4.01643 7.06211C4.18219 6.48793 4.73425 6.04198 5.42573 5.9454C5.95054 5.8721 6.47529 5.80757 7 5.75182V7.32596C7 7.73789 7.33808 8.07182 7.75 8.07182C8.16192 8.07182 8.5 7.73789 8.5 7.32596V5.61635C9.66681 5.52957 10.8334 5.48618 12 5.48618ZM3.56963 10.4586C3.52321 11.1216 3.5 11.7846 3.5 12.4475C3.5 14.1973 3.66168 15.9474 3.98517 17.6982C4.09612 18.2987 4.60947 18.7782 5.27064 18.9224L5.41449 18.9481L6.24799 19.0573C8.16579 19.2917 10.083 19.4088 12 19.4088C14.1909 19.4088 16.3822 19.2558 18.5743 18.9496C19.2658 18.853 19.8178 18.4071 19.9836 17.8329L20.0131 17.708L20.1286 17.0415C20.3762 15.5098 20.5 13.9785 20.5 12.4475C20.5 11.7846 20.4768 11.1216 20.4304 10.4586H3.56963Z" fill="#979797"/>
<mask id="mask0_0_5258" style="mask-type:alpha" maskUnits="userSpaceOnUse" x="2" y="4" width="20" height="17">
<path id="Combined Shape_2" fill-rule="evenodd" clip-rule="evenodd" d="M12 4.09392C13.3582 4.09392 14.7163 4.15052 16.0745 4.26372C16.2042 4.15763 16.3701 4.09392 16.55 4.09392C16.7804 4.09392 16.9878 4.19843 17.1257 4.36264C17.4579 4.39748 17.7901 4.43569 18.1223 4.47729L18.9969 4.59465C20.2752 4.77763 21.2774 5.66974 21.4825 6.8073C21.8275 8.72052 22 10.6337 22 12.547C22 14.221 21.8679 15.8951 21.6038 17.5692L21.4826 18.2866C21.2774 19.4242 20.2753 20.3163 18.9969 20.4993C16.6646 20.8331 14.3323 21 12 21C9.95924 21 7.91849 20.8722 5.87773 20.6166L5.00312 20.4993C3.72475 20.3163 2.72256 19.4242 2.51745 18.2866C2.17248 16.3734 2 14.4602 2 12.547C2 10.8729 2.13206 9.19882 2.39617 7.52476L2.51745 6.8073C2.72256 5.66974 3.72475 4.77763 5.00312 4.59465C5.73679 4.48964 6.47045 4.40115 7.20412 4.32917C7.34125 4.18436 7.53562 4.09392 7.75 4.09392C7.91718 4.09392 8.07219 4.14892 8.19738 4.24182C9.46492 4.14322 10.7325 4.09392 12 4.09392ZM12 5.48618C13.2665 5.48618 14.5332 5.53732 15.8 5.63962V7.32596C15.8 7.73789 16.1381 8.07182 16.55 8.07182C16.9619 8.07182 17.3 7.73789 17.3 7.32596V5.78465C17.4507 5.80162 17.6013 5.81931 17.752 5.83773L18.5855 5.94692L18.7294 5.9726C19.3905 6.11677 19.9039 6.59631 20.0148 7.19677C20.1239 7.78688 20.2145 8.37689 20.2868 8.96685H3.71322C3.75868 8.59577 3.81141 8.22466 3.87141 7.85353L3.98691 7.18703L4.01643 7.06211C4.18219 6.48793 4.73425 6.04198 5.42573 5.9454C5.95054 5.8721 6.47529 5.80757 7 5.75182V7.32596C7 7.73789 7.33808 8.07182 7.75 8.07182C8.16192 8.07182 8.5 7.73789 8.5 7.32596V5.61635C9.66681 5.52957 10.8334 5.48618 12 5.48618ZM3.56963 10.4586C3.52321 11.1216 3.5 11.7846 3.5 12.4475C3.5 14.1973 3.66168 15.9474 3.98517 17.6982C4.09612 18.2987 4.60947 18.7782 5.27064 18.9224L5.41449 18.9481L6.24799 19.0573C8.16579 19.2917 10.083 19.4088 12 19.4088C14.1909 19.4088 16.3822 19.2558 18.5743 18.9496C19.2658 18.853 19.8178 18.4071 19.9836 17.8329L20.0131 17.708L20.1286 17.0415C20.3762 15.5098 20.5 13.9785 20.5 12.4475C20.5 11.7846 20.4768 11.1216 20.4304 10.4586H3.56963Z" fill="white"/>
</mask>
<g mask="url(#mask0_0_5258)">
<g id="Color/Black/2. Black-80">
<rect id="color" width="24" height="24" fill="#58585B"/>
</g>
</g>
</g>
</svg>
