<svg width="48" height="48" viewBox="0 0 48 48" fill="none" xmlns="http://www.w3.org/2000/svg">
<g id="icon product/Sub-Menu/Emas/Jual">
<g id="Emas">
<path id="Fill 13" fill-rule="evenodd" clip-rule="evenodd" d="M38.3398 32.8223C36.3062 33.0592 11.6938 33.0592 9.66183 32.8223C8.59145 32.6982 7.84746 31.8198 8.02666 30.877C8.26506 29.6327 8.74025 27.5181 9.69863 24.0497C10.825 19.9689 11.6186 18.0316 12.0794 17.129C12.3322 16.6342 12.8266 16.278 13.4282 16.1716C14.7114 15.9428 33.2886 15.9428 34.5718 16.1716C35.1734 16.278 35.6678 16.6342 35.9206 17.129C36.3814 18.0316 37.175 19.9689 38.3014 24.0497C39.2597 27.5181 39.7365 29.6327 39.9733 30.877C40.1525 31.8198 39.4085 32.6982 38.3398 32.8223Z" fill="#CC9D3F"/>
<mask id="mask0_0_6753" style="mask-type:alpha" maskUnits="userSpaceOnUse" x="8" y="16" width="32" height="17">
<path id="Fill 13_2" fill-rule="evenodd" clip-rule="evenodd" d="M38.3398 32.8223C36.3062 33.0592 11.6938 33.0592 9.66183 32.8223C8.59145 32.6982 7.84746 31.8198 8.02666 30.877C8.26506 29.6327 8.74025 27.5181 9.69863 24.0497C10.825 19.9689 11.6186 18.0316 12.0794 17.129C12.3322 16.6342 12.8266 16.278 13.4282 16.1716C14.7114 15.9428 33.2886 15.9428 34.5718 16.1716C35.1734 16.278 35.6678 16.6342 35.9206 17.129C36.3814 18.0316 37.175 19.9689 38.3014 24.0497C39.2597 27.5181 39.7365 29.6327 39.9733 30.877C40.1525 31.8198 39.4085 32.6982 38.3398 32.8223Z" fill="white"/>
</mask>
<g mask="url(#mask0_0_6753)">
<path id="Fill 13_3" fill-rule="evenodd" clip-rule="evenodd" d="M35.3398 31.8223C33.3062 32.0592 8.6938 32.0592 6.66183 31.8223C5.59145 31.6982 4.84746 30.8198 5.02666 29.877C5.26506 28.6327 5.74025 26.5181 6.69863 23.0497C7.82501 18.9689 8.6186 17.0316 9.07939 16.129C9.33219 15.6342 9.82658 15.278 10.4282 15.1716C11.7114 14.9428 30.2886 14.9428 31.5718 15.1716C32.1734 15.278 32.6678 15.6342 32.9206 16.129C33.3814 17.0316 34.175 18.9689 35.3014 23.0497C36.2597 26.5181 36.7365 28.6327 36.9733 29.877C37.1525 30.8198 36.4085 31.6982 35.3398 31.8223Z" fill="#FFC54F"/>
</g>
</g>
<g id="Badge">
<path id="Fill 17" d="M31.2032 19.4685L31.2029 19.4683C29.5441 18.4942 28.297 16.8996 27.7721 15.0059L27.7717 15.0043C27.5934 14.3692 27.5 13.6947 27.5 13C27.5 8.85667 30.8556 5.5 35 5.5C39.1444 5.5 42.5 8.85667 42.5 13C42.5 17.1433 39.1444 20.5 35 20.5C33.6117 20.5 32.3195 20.1252 31.2032 19.4685Z" fill="#E07E26" stroke="white"/>
<path id="Stroke 11" d="M35 9V16.5144" stroke="white" stroke-width="2" stroke-linecap="round"/>
<path id="Stroke 13" d="M32 12L35 9L38 12" stroke="white" stroke-width="2" stroke-linecap="round" stroke-linejoin="round"/>
</g>
</g>
</svg>
