<svg width="48" height="48" viewBox="0 0 48 48" fill="none" xmlns="http://www.w3.org/2000/svg">
<path fill-rule="evenodd" clip-rule="evenodd" d="M26.8408 28.377C25.868 29.9161 24.3604 29.6205 23.2047 31.0275C22.049 29.6205 21.4219 29.9161 20.4491 28.377H14.7888C13.8249 28.377 12.961 28.9719 12.6175 29.8726L10.9548 34.232C10.3746 35.7531 11.498 37.3839 13.126 37.3839H34.1641C35.7921 37.3839 36.9154 35.7531 36.3351 34.232L34.6565 29.8307C34.3226 28.9553 33.4829 28.377 32.546 28.377H26.8408Z" fill="#BFD730"/>
<mask id="mask0_0_11320" style="mask-type:alpha" maskUnits="userSpaceOnUse" x="10" y="28" width="27" height="10">
<path fill-rule="evenodd" clip-rule="evenodd" d="M26.8408 28.377C25.868 29.9161 24.3604 29.6205 23.2047 31.0275C22.049 29.6205 21.4219 29.9161 20.4491 28.377H14.7888C13.8249 28.377 12.961 28.9719 12.6175 29.8726L10.9548 34.232C10.3746 35.7531 11.498 37.3839 13.126 37.3839H34.1641C35.7921 37.3839 36.9154 35.7531 36.3351 34.232L34.6565 29.8307C34.3226 28.9553 33.4829 28.377 32.546 28.377H26.8408Z" fill="white"/>
</mask>
<g mask="url(#mask0_0_11320)">
<ellipse cx="23.6401" cy="31.8" rx="4.2" ry="1.8" fill="#98AC26"/>
</g>
<path fill-rule="evenodd" clip-rule="evenodd" d="M23.645 20.1319C21.8385 20.1319 20.3887 18.6053 20.5151 16.7719C20.6219 15.2248 21.8753 13.9712 23.4225 13.8645C25.256 13.7381 26.7826 15.188 26.7826 16.9944C26.7826 18.7272 25.3779 20.1319 23.645 20.1319ZM23.645 9.59961C19.561 9.59978 16.2504 12.9104 16.2502 16.9944C16.2164 22.4946 20.7297 29.0253 22.7208 31.6368C23.1862 32.2473 24.1038 32.2473 24.5693 31.6368C26.5603 29.0253 31.0737 22.4947 31.0398 16.9944C31.0396 12.9105 27.729 9.59978 23.645 9.59961Z" fill="#00AB4E"/>
</svg>
