<svg width="24" height="24" viewBox="0 0 24 24" fill="none" xmlns="http://www.w3.org/2000/svg">
<path d="M6.34315 17.6568C5.95262 17.2663 5.95262 16.6332 6.34315 16.2426L14.2415 8.34425L7.34017 8.34425C6.7862 8.34425 6.33767 7.89412 6.33962 7.34015C6.34157 6.78895 6.78896 6.34313 7.34017 6.34313L17.5448 6.34313C17.6067 6.34313 17.6569 6.39328 17.6569 6.45515L17.6569 16.6594C17.6569 17.2103 17.2103 17.6568 16.6594 17.6568C16.1089 17.6568 15.6624 17.2108 15.6619 16.6603L15.6557 9.75846L7.75736 17.6568C7.36683 18.0474 6.73367 18.0474 6.34315 17.6568Z" fill="black"/>
<mask id="mask0_0_6064" style="mask-type:alpha" maskUnits="userSpaceOnUse" x="6" y="6" width="12" height="12">
<path d="M6.34315 17.6568C5.95262 17.2663 5.95262 16.6332 6.34315 16.2426L14.2415 8.34425L7.34017 8.34425C6.7862 8.34425 6.33767 7.89412 6.33962 7.34015C6.34157 6.78895 6.78896 6.34313 7.34017 6.34313L17.5448 6.34313C17.6067 6.34313 17.6569 6.39328 17.6569 6.45515L17.6569 16.6594C17.6569 17.2103 17.2103 17.6568 16.6594 17.6568C16.1089 17.6568 15.6624 17.2108 15.6619 16.6603L15.6557 9.75846L7.75736 17.6568C7.36683 18.0474 6.73367 18.0474 6.34315 17.6568Z" fill="white"/>
</mask>
<g mask="url(#mask0_0_6064)">
<rect width="24" height="24" fill="#00AB4E"/>
</g>
</svg>
