<svg width="64" height="64" viewBox="0 0 64 64" fill="none" xmlns="http://www.w3.org/2000/svg">
<circle opacity="0.08" cx="32" cy="32" r="32" fill="#1868AB"/>
<path fill-rule="evenodd" clip-rule="evenodd" d="M16.9941 46.4772C16.4301 46.3931 16.299 46.3592 16.1846 46.2458C16.0702 46.1323 16 45.9685 16 45.4916C16 34.0419 16 26.3284 16 23.0576C16 23.0216 16 22.98 16 22.9355C16 22.617 16.2582 22.3587 16.5768 22.3587C28.549 25.1177 38.0649 18.9433 50.0372 21.7023C50.5632 21.867 50.6736 21.98 50.772 22.0858C50.8705 22.1915 50.9621 22.461 50.962 22.6962C50.9613 31.7299 50.9613 39.2898 50.9623 45.3485C50.9623 45.5756 50.8113 45.7963 50.589 45.7496C50.5621 45.744 50.5348 45.7364 50.5075 45.7264C38.5352 42.9661 31.3634 48.6219 16.9941 46.4772Z" fill="#1868AB"/>
<path fill-rule="evenodd" clip-rule="evenodd" d="M13.9941 42.4968C13.4301 42.4159 13.299 42.3834 13.1846 42.2744C13.0702 42.1655 13 42.0081 13 41.5501C13 30.5519 13 23.1426 13 20.0008C13 19.9725 13 19.9405 13 19.9063C13 19.5878 13.2582 19.3295 13.5768 19.3295C25.549 21.9797 35.0649 16.0488 47.0372 18.699C47.5632 18.8572 47.6736 18.9658 47.772 19.0674C47.8705 19.1689 47.9621 19.4278 47.962 19.6537C47.9613 28.3311 47.9613 35.5928 47.9623 41.4125C47.9623 41.6302 47.8176 41.8387 47.6033 41.8006C47.5718 41.795 47.5397 41.7868 47.5075 41.7755C35.5352 39.1241 28.3634 44.5568 13.9941 42.4968Z" fill="#5297D1"/>
<path fill-rule="evenodd" clip-rule="evenodd" d="M30.4813 36.9658C26.9382 36.9658 24.0659 34.0948 24.0659 30.5528C24.0659 27.0109 26.9382 24.1387 30.4813 24.1387C34.0232 24.1387 36.8942 27.0109 36.8942 30.5528C36.8942 34.0948 34.0232 36.9658 30.4813 36.9658Z" fill="white"/>
<path d="M40.1121 22.2451H44.6312" stroke="white" stroke-width="2.37474" stroke-linecap="round"/>
<path d="M16.2069 39.3251H20.726" stroke="white" stroke-width="2.37474" stroke-linecap="round"/>
</svg>
