<svg width="48" height="48" viewBox="0 0 48 48" fill="none" xmlns="http://www.w3.org/2000/svg">
<path fill-rule="evenodd" clip-rule="evenodd" d="M40 19.7109C40.4142 19.7109 40.75 20.0467 40.75 20.4609V34.1386C40.75 34.5528 40.4142 34.8886 40 34.8886C39.5858 34.8886 39.25 34.5528 39.25 34.1386V20.4609C39.25 20.0467 39.5858 19.7109 40 19.7109Z" fill="#FFC54F"/>
<path fill-rule="evenodd" clip-rule="evenodd" d="M40 19.7109C40.4142 19.7109 40.75 19.7994 40.75 19.9086V23.3569L39.25 24.0004V19.9086C39.25 19.7994 39.5858 19.7109 40 19.7109Z" fill="#CC9D3F"/>
<mask id="mask0_868_1145" style="mask-type:alpha" maskUnits="userSpaceOnUse" x="11" y="21" width="25" height="14">
<path d="M11.6274 21.9482V30.7367C11.6274 31.2165 11.8398 31.6721 12.2099 31.9881C13.4061 33.0097 16.6452 35.0003 23.724 35.0003C30.8061 35.0003 34.1107 33.008 35.3393 31.987C35.7199 31.6707 35.9394 31.2085 35.9394 30.7207V22.0235" fill="#0F5895"/>
</mask>
<g mask="url(#mask0_868_1145)">
<path d="M11.6274 21.9482V30.7368C11.6274 31.2165 11.8398 31.6721 12.2099 31.9881C13.4061 33.0097 17.92 35.0003 23.724 35.0003C29.5314 35.0003 34.1107 33.008 35.3393 31.987C35.7199 31.6707 35.9394 31.2085 35.9394 30.7207V22.0235" fill="#1868AB"/>
<path d="M4.33883 23.256L22.9962 29.9977C23.4662 30.1675 23.9826 30.1697 24.4542 30.0039L43.6569 23.251C44.114 23.0902 44.1145 22.4599 43.6576 22.2985L24.7212 15.6092C24.2611 15.4467 23.7572 15.4467 23.297 15.6092L4.34234 22.305C3.88767 22.4656 3.88528 23.0921 4.33883 23.256Z" fill="#0F5895"/>
</g>
<path d="M4.33883 20.7687L22.9962 27.5104C23.4662 27.6802 23.9826 27.6824 24.4542 27.5166L43.6569 20.7637C44.114 20.6029 44.1145 19.9726 43.6576 19.8112L24.7212 13.1219C24.2611 12.9594 23.7572 12.9594 23.297 13.1219L4.34234 19.8177C3.88767 19.9783 3.88528 20.6048 4.33883 20.7687Z" fill="#5297D1"/>
<circle cx="40" cy="30.5" r="1.5" fill="#AC9057"/>
</svg>
