<svg width="64" height="64" viewBox="0 0 64 64" fill="none" xmlns="http://www.w3.org/2000/svg">
<path d="M32 63.92C49.6511 63.92 63.96 49.611 63.96 31.96C63.96 14.309 49.6511 0 32 0C14.349 0 0.0400391 14.309 0.0400391 31.96C0.0400391 49.611 14.349 63.92 32 63.92Z" fill="#E6F6EA"/>
<path d="M26.06 38.5999H13.13C12.77 38.5999 12.48 38.31 12.48 37.95V36.46C12.48 36.39 12.49 36.3099 12.52 36.2399L18.98 18.34C19.07 18.08 19.32 17.9099 19.59 17.9099C19.86 17.9099 20.11 18.08 20.2 18.34L26.66 36.2399C26.69 36.3099 26.7 36.38 26.7 36.46V37.95C26.7 38.31 26.41 38.5999 26.05 38.5999H26.06ZM13.78 37.3099H25.42V36.58L19.6 20.4699L13.78 36.58V37.3099Z" fill="#252528"/>
<path d="M27.06 38.42V36.47H12.14V38.42C12.14 38.42 12.14 44.42 19.6 44.42C27.06 44.42 27.06 38.42 27.06 38.42Z" fill="#00883E"/>
<path d="M24.07 38.42V36.47H12.14C12.14 36.47 12.14 35.9 12.14 38.42C12.14 40.94 14.13 44.42 18.6 44.42C23.83 44.42 24.07 39.45 24.07 38.42Z" fill="#00AB4E"/>
<path d="M48.94 38.5999H36.01C35.65 38.5999 35.36 38.31 35.36 37.95V36.46C35.36 36.39 35.37 36.3099 35.4 36.2399L41.86 18.34C41.95 18.08 42.2 17.9099 42.47 17.9099C42.74 17.9099 42.99 18.08 43.08 18.34L49.54 36.2399C49.57 36.3099 49.58 36.38 49.58 36.46V37.95C49.58 38.31 49.29 38.5999 48.93 38.5999H48.94ZM36.66 37.3099H48.3V36.58L42.48 20.4699L36.66 36.58V37.3099Z" fill="#252528"/>
<path d="M49.93 38.42V36.47H35.01V38.42C35.01 38.42 35.01 44.42 42.47 44.42C49.93 44.42 49.93 38.42 49.93 38.42Z" fill="#00883E"/>
<path d="M46.95 38.42V36.47H35.02C35.02 36.47 35.02 35.9 35.02 38.42C35.02 40.94 37.01 44.42 41.48 44.42C46.71 44.42 46.95 39.45 46.95 38.42Z" fill="#00AB4E"/>
<path d="M15.12 20.1901C15.12 19.8101 15.34 19.46 15.69 19.3C17.82 18.35 25.52 15.0801 31.03 15.0801C36.54 15.0801 44.24 18.34 46.37 19.3C46.72 19.46 46.94 19.8001 46.94 20.1901V21.9501C46.94 22.5001 46.49 22.9401 45.95 22.9401H44.26C44.06 22.9401 43.87 22.8801 43.71 22.7801C40.65 20.8801 34.92 19.5601 31.03 19.5601C26.12 19.5601 19.37 21.9001 16.5 22.9901C15.84 23.2401 15.11 22.75 15.11 22.04V20.1901H15.12Z" fill="#00883E"/>
<path d="M15.12 20.1901C15.12 19.8101 15.34 19.46 15.69 19.3C17.82 18.35 25.52 15.0801 31.03 15.0801C36.54 15.0801 42.71 18.3001 44.47 19.2801C44.78 19.4501 44.96 19.7701 44.96 20.1201V21.8801C44.96 22.6301 44.16 23.1301 43.48 22.8101C40.97 21.6601 35.71 19.55 31.04 19.55C26.13 19.55 19.38 21.89 16.51 22.98C15.85 23.23 15.12 22.7401 15.12 22.0301V20.1801V20.1901Z" fill="#00AB4E"/>
<path d="M16.1499 23.4899C15.8599 23.4899 15.5699 23.3999 15.3199 23.2299C14.9299 22.9599 14.6899 22.5199 14.6899 22.0399V20.1899C14.6899 19.6299 15.0099 19.1299 15.5099 18.9099C17.7399 17.9099 25.4499 14.6599 31.0299 14.6599C36.6099 14.6599 44.3199 17.9199 46.5499 18.9099C47.0499 19.1299 47.3699 19.6399 47.3699 20.1899V21.95C47.3699 22.75 46.7999 23.2799 45.8399 23.3699H45.7299C45.0099 23.4499 44.0099 23.55 43.2899 23.21C40.6599 22.01 35.5599 19.9899 31.0299 19.9899C26.1499 19.9899 19.3499 22.37 16.6599 23.39C16.4899 23.45 16.3199 23.4799 16.1499 23.4799V23.4899ZM31.0399 15.52C25.6299 15.52 18.0599 18.72 15.8699 19.7C15.6799 19.79 15.5599 19.98 15.5599 20.2V22.0499C15.5599 22.2399 15.6499 22.42 15.8099 22.53C15.9699 22.64 16.1799 22.6699 16.3599 22.5999C19.0999 21.5599 26.0199 19.14 31.0399 19.14C35.7399 19.14 40.9599 21.2099 43.6599 22.4399C44.1799 22.6799 45.0399 22.59 45.6599 22.53H45.7699C46.5199 22.45 46.5199 22.1 46.5199 21.95V20.1899C46.5199 19.9699 46.3999 19.7799 46.2099 19.6899C44.0199 18.7099 36.4499 15.5099 31.0399 15.5099V15.52Z" fill="#252528"/>
<path fill-rule="evenodd" clip-rule="evenodd" d="M33.0199 17.0701C33.0199 18.4401 31.9099 19.5601 30.5299 19.5601C29.1499 19.5601 28.0399 18.4501 28.0399 17.0701C28.0399 15.6901 29.1499 14.5801 30.5299 14.5801C31.9099 14.5801 33.0199 15.6901 33.0199 17.0701Z" fill="#9BB20E"/>
<path fill-rule="evenodd" clip-rule="evenodd" d="M32.0299 17.0701C32.0299 18.4401 30.9199 19.5601 29.5399 19.5601C28.1599 19.5601 27.0499 18.4501 27.0499 17.0701C27.0499 15.6901 28.1599 14.5801 29.5399 14.5801C30.9199 14.5801 32.0299 15.6901 32.0299 17.0701Z" fill="#BFD730"/>
<path d="M30.93 19.99H29.94C28.33 19.99 27.02 18.68 27.02 17.07C27.02 15.46 28.33 14.15 29.94 14.15H30.93C32.54 14.15 33.85 15.46 33.85 17.07C33.85 18.68 32.54 19.99 30.93 19.99ZM29.94 15.02C28.81 15.02 27.88 15.94 27.88 17.07C27.88 18.2 28.8 19.13 29.94 19.13H30.93C32.06 19.13 32.99 18.21 32.99 17.07C32.99 15.93 32.07 15.02 30.93 15.02H29.94Z" fill="#252528"/>
<path d="M42.4699 44.85C34.5199 44.85 34.4299 38.36 34.4299 38.3V36.31C34.4299 36.07 34.6199 35.88 34.8599 35.88H50.0699C50.3099 35.88 50.4999 36.07 50.4999 36.31V38.3C50.4999 38.37 50.4099 44.85 42.4599 44.85H42.4699ZM35.2899 36.74V38.3C35.2899 38.53 35.3999 43.99 42.4699 43.99C49.5399 43.99 49.6399 38.53 49.6499 38.3V36.74H35.2999H35.2899Z" fill="#252528"/>
<path d="M19.77 44.85C11.97 44.85 11.88 38.48 11.88 38.42V36.47C11.88 36.23 12.07 36.04 12.31 36.04H27.23C27.47 36.04 27.66 36.23 27.66 36.47V38.42C27.66 38.48 27.57 44.85 19.77 44.85ZM12.74 36.8901V38.41C12.74 38.64 12.85 43.98 19.77 43.98C26.69 43.98 26.8 38.63 26.8 38.41V36.8901H12.74Z" fill="#252528"/>
<path d="M43.3199 47.7699C41.7899 46.8699 40.6399 45.3999 40.1599 43.6599C39.9999 43.0699 39.9099 42.4499 39.9099 41.8099C39.9099 37.9899 42.9999 34.8999 46.8199 34.8999C50.6399 34.8999 53.7299 37.9899 53.7299 41.8099C53.7299 45.6299 50.6399 48.7198 46.8199 48.7198C45.5399 48.7198 44.3499 48.3699 43.3199 47.7699Z" fill="#00AB4E"/>
<path d="M46.82 49.1699C45.51 49.1699 44.22 48.8199 43.09 48.1599C41.43 47.1899 40.24 45.63 39.72 43.78C39.54 43.15 39.45 42.4899 39.45 41.8099C39.45 37.7499 42.7499 34.45 46.8099 34.45C50.8699 34.45 54.1699 37.7499 54.1699 41.8099C54.1699 45.8699 50.8699 49.1699 46.8099 49.1699H46.82ZM46.82 35.34C43.25 35.34 40.3499 38.2399 40.3499 41.8099C40.3499 42.3999 40.4299 42.9799 40.5799 43.5399C41.0299 45.1699 42.08 46.54 43.54 47.39C44.53 47.97 45.6599 48.28 46.8099 48.28C50.3799 48.28 53.2799 45.3799 53.2799 41.8099C53.2799 38.2399 50.3799 35.34 46.8099 35.34H46.82Z" fill="white"/>
<path d="M46.8199 45.4599C46.3299 45.4599 45.9299 45.0599 45.9299 44.5699V39.0399C45.9299 38.5499 46.3299 38.1499 46.8199 38.1499C47.3099 38.1499 47.7099 38.5499 47.7099 39.0399V44.5699C47.7099 45.0599 47.3099 45.4599 46.8199 45.4599Z" fill="white"/>
<path d="M49.5899 42.7H44.0599C43.5699 42.7 43.1699 42.2999 43.1699 41.8099C43.1699 41.3199 43.5699 40.9199 44.0599 40.9199H49.5899C50.0799 40.9199 50.4799 41.3199 50.4799 41.8099C50.4799 42.2999 50.0799 42.7 49.5899 42.7Z" fill="white"/>
<path d="M46.82 50C42.3 50 38.63 46.33 38.63 41.81C38.63 37.29 42.3 33.62 46.82 33.62C51.34 33.62 55.01 37.29 55.01 41.81C55.01 46.33 51.34 50 46.82 50ZM46.82 34.48C42.78 34.48 39.49 37.77 39.49 41.81C39.49 45.85 42.78 49.14 46.82 49.14C50.86 49.14 54.15 45.85 54.15 41.81C54.15 37.77 50.86 34.48 46.82 34.48Z" fill="#252528"/>
</svg>
