<svg width="20" height="20" viewBox="0 0 20 20" fill="none" xmlns="http://www.w3.org/2000/svg">
<path fill-rule="evenodd" clip-rule="evenodd" d="M10 20C15.5228 20 20 15.5228 20 10C20 4.47715 15.5228 0 10 0C4.47715 0 0 4.47715 0 10C0 15.5228 4.47715 20 10 20ZM15.522 5.65132L15.6146 5.74177L15.7049 5.84918C16.1265 6.40495 16.0964 7.22833 15.6146 7.74586L9.69665 14.1033C8.99743 14.8544 7.86954 14.8544 7.17032 14.1033L4.3854 11.1116C3.87153 10.5595 3.87153 9.6595 4.3854 9.10747C4.89237 8.56286 5.70854 8.56286 6.2155 9.10747L8.43349 11.4902L13.7845 5.74177C14.2616 5.2292 15.0127 5.19905 15.522 5.65132Z" fill="#00AB4E"/>
</svg>
