<svg width="64" height="64" viewBox="0 0 64 64" fill="none" xmlns="http://www.w3.org/2000/svg">
<circle opacity="0.1" cx="32" cy="32" r="32" fill="#FFC54F"/>
<path fill-rule="evenodd" clip-rule="evenodd" d="M30.0661 42.3936C28.9222 42.5259 15.0778 42.5259 13.9348 42.3936C13.3327 42.3243 12.9142 41.8338 13.015 41.3073C13.1491 40.6125 13.4164 39.4317 13.9555 37.495C14.5891 35.2162 15.0355 34.1344 15.2947 33.6304C15.4369 33.3541 15.715 33.1552 16.0533 33.0958C16.7751 32.9681 27.2249 32.9681 27.9467 33.0958C28.285 33.1552 28.5631 33.3541 28.7053 33.6304C28.9645 34.1344 29.4109 35.2162 30.0445 37.495C30.5836 39.4317 30.8518 40.6125 30.985 41.3073C31.0858 41.8338 30.6673 42.3243 30.0661 42.3936Z" fill="#CC9D3F"/>
<mask id="mask0_0_11568" style="mask-type:alpha" maskUnits="userSpaceOnUse" x="13" y="33" width="18" height="10">
<path fill-rule="evenodd" clip-rule="evenodd" d="M30.0661 42.3936C28.9222 42.5259 15.0778 42.5259 13.9348 42.3936C13.3327 42.3243 12.9142 41.8338 13.015 41.3073C13.1491 40.6125 13.4164 39.4317 13.9555 37.495C14.5891 35.2162 15.0355 34.1344 15.2947 33.6304C15.4369 33.3541 15.715 33.1552 16.0533 33.0958C16.7751 32.9681 27.2249 32.9681 27.9467 33.0958C28.285 33.1552 28.5631 33.3541 28.7053 33.6304C28.9645 34.1344 29.4109 35.2162 30.0445 37.495C30.5836 39.4317 30.8518 40.6125 30.985 41.3073C31.0858 41.8338 30.6673 42.3243 30.0661 42.3936Z" fill="white"/>
</mask>
<g mask="url(#mask0_0_11568)">
<path fill-rule="evenodd" clip-rule="evenodd" d="M27.0661 41.3936C25.9222 41.5259 12.0778 41.5259 10.9348 41.3936C10.3327 41.3243 9.9142 40.8338 10.015 40.3073C10.1491 39.6125 10.4164 38.4317 10.9555 36.495C11.5891 34.2162 12.0355 33.1344 12.2947 32.6304C12.4369 32.3541 12.715 32.1552 13.0533 32.0958C13.7751 31.9681 24.2249 31.9681 24.9467 32.0958C25.285 32.1552 25.5631 32.3541 25.7053 32.6304C25.9645 33.1344 26.4109 34.2162 27.0445 36.495C27.5836 38.4317 27.8518 39.6125 27.985 40.3073C28.0858 40.8338 27.6673 41.3243 27.0661 41.3936Z" fill="#FFC54F"/>
</g>
<path fill-rule="evenodd" clip-rule="evenodd" d="M50.0661 42.3936C48.9222 42.5259 35.0778 42.5259 33.9348 42.3936C33.3327 42.3243 32.9142 41.8338 33.015 41.3073C33.1491 40.6125 33.4164 39.4317 33.9555 37.495C34.5891 35.2162 35.0355 34.1344 35.2947 33.6304C35.4369 33.3541 35.715 33.1552 36.0533 33.0958C36.7751 32.9681 47.2249 32.9681 47.9467 33.0958C48.285 33.1552 48.5631 33.3541 48.7053 33.6304C48.9645 34.1344 49.4109 35.2162 50.0445 37.495C50.5836 39.4317 50.8518 40.6125 50.985 41.3073C51.0858 41.8338 50.6673 42.3243 50.0661 42.3936Z" fill="#CC9D3F"/>
<mask id="mask1_0_11568" style="mask-type:alpha" maskUnits="userSpaceOnUse" x="33" y="33" width="18" height="10">
<path fill-rule="evenodd" clip-rule="evenodd" d="M50.0661 42.3936C48.9222 42.5259 35.0778 42.5259 33.9348 42.3936C33.3327 42.3243 32.9142 41.8338 33.015 41.3073C33.1491 40.6125 33.4164 39.4317 33.9555 37.495C34.5891 35.2162 35.0355 34.1344 35.2947 33.6304C35.4369 33.3541 35.715 33.1552 36.0533 33.0958C36.7751 32.9681 47.2249 32.9681 47.9467 33.0958C48.285 33.1552 48.5631 33.3541 48.7053 33.6304C48.9645 34.1344 49.4109 35.2162 50.0445 37.495C50.5836 39.4317 50.8518 40.6125 50.985 41.3073C51.0858 41.8338 50.6673 42.3243 50.0661 42.3936Z" fill="white"/>
</mask>
<g mask="url(#mask1_0_11568)">
<path fill-rule="evenodd" clip-rule="evenodd" d="M47.0661 41.3936C45.9222 41.5259 32.0778 41.5259 30.9348 41.3936C30.3327 41.3243 29.9142 40.8338 30.015 40.3073C30.1491 39.6125 30.4164 38.4317 30.9555 36.495C31.5891 34.2162 32.0355 33.1344 32.2947 32.6304C32.4369 32.3541 32.715 32.1552 33.0533 32.0958C33.7751 31.9681 44.2249 31.9681 44.9467 32.0958C45.285 32.1552 45.5631 32.3541 45.7053 32.6304C45.9645 33.1344 46.4109 34.2162 47.0445 36.495C47.5836 38.4317 47.8518 39.6125 47.985 40.3073C48.0858 40.8338 47.6673 41.3243 47.0661 41.3936Z" fill="#FFC54F"/>
</g>
<path fill-rule="evenodd" clip-rule="evenodd" d="M40.0661 30.3936C38.9222 30.5259 25.0778 30.5259 23.9348 30.3936C23.3327 30.3243 22.9142 29.8338 23.015 29.3073C23.1491 28.6125 23.4164 27.4317 23.9555 25.495C24.5891 23.2162 25.0355 22.1344 25.2947 21.6304C25.4369 21.3541 25.715 21.1552 26.0533 21.0958C26.7751 20.9681 37.2249 20.9681 37.9467 21.0958C38.285 21.1552 38.5631 21.3541 38.7053 21.6304C38.9645 22.1344 39.4109 23.2162 40.0445 25.495C40.5836 27.4317 40.8518 28.6125 40.985 29.3073C41.0858 29.8338 40.6673 30.3243 40.0661 30.3936Z" fill="#CC9D3F"/>
<mask id="mask2_0_11568" style="mask-type:alpha" maskUnits="userSpaceOnUse" x="23" y="21" width="18" height="10">
<path fill-rule="evenodd" clip-rule="evenodd" d="M40.0661 30.3936C38.9222 30.5259 25.0778 30.5259 23.9348 30.3936C23.3327 30.3243 22.9142 29.8338 23.015 29.3073C23.1491 28.6125 23.4164 27.4317 23.9555 25.495C24.5891 23.2162 25.0355 22.1344 25.2947 21.6304C25.4369 21.3541 25.715 21.1552 26.0533 21.0958C26.7751 20.9681 37.2249 20.9681 37.9467 21.0958C38.285 21.1552 38.5631 21.3541 38.7053 21.6304C38.9645 22.1344 39.4109 23.2162 40.0445 25.495C40.5836 27.4317 40.8518 28.6125 40.985 29.3073C41.0858 29.8338 40.6673 30.3243 40.0661 30.3936Z" fill="white"/>
</mask>
<g mask="url(#mask2_0_11568)">
<path fill-rule="evenodd" clip-rule="evenodd" d="M37.0661 29.3936C35.9222 29.5259 22.0778 29.5259 20.9348 29.3936C20.3327 29.3243 19.9142 28.8338 20.015 28.3073C20.1491 27.6125 20.4164 26.4317 20.9555 24.495C21.5891 22.2162 22.0355 21.1344 22.2947 20.6304C22.4369 20.3541 22.715 20.1552 23.0533 20.0958C23.7751 19.9681 34.2249 19.9681 34.9467 20.0958C35.285 20.1552 35.5631 20.3541 35.7053 20.6304C35.9645 21.1344 36.4109 22.2162 37.0445 24.495C37.5836 26.4317 37.8518 27.6125 37.985 28.3073C38.0858 28.8338 37.6673 29.3243 37.0661 29.3936Z" fill="#FFC54F"/>
</g>
</svg>
