<svg width="64" height="64" viewBox="0 0 64 64" fill="none" xmlns="http://www.w3.org/2000/svg">
<circle opacity="0.08" cx="32" cy="32" r="32" fill="#1868AB"/>
<path fill-rule="evenodd" clip-rule="evenodd" d="M14 17C14 15.3431 15.3431 14 17 14H35C36.6569 14 38 15.3431 38 17V47C38 48.6569 36.6569 50 35 50H17C15.3431 50 14 48.6569 14 47V17Z" fill="#1868AB"/>
<path fill-rule="evenodd" clip-rule="evenodd" d="M14 17C14 15.3431 15.3431 14 17 14H32C33.6569 14 35 15.3431 35 17V47C35 48.6569 33.6569 50 32 50H17C15.3431 50 14 48.6569 14 47V17Z" fill="#5297D1"/>
<path fill-rule="evenodd" clip-rule="evenodd" d="M16 19C16 17.3431 17.3431 16 19 16L19.5 16C20.0523 16 20.5 16.4477 20.5 17C20.5 17.5523 20.9477 18 21.5 18H27.5C28.0523 18 28.5 17.5523 28.5 17C28.5 16.4477 28.9477 16 29.5 16H30C31.6569 16 33 17.3431 33 19V44.8529C33 46.5098 31.6569 47.8529 30 47.8529H19C17.3431 47.8529 16 46.5098 16 44.8529V19Z" fill="white"/>
<rect x="24" y="32" width="25" height="18" rx="3" fill="#1868AB"/>
<mask id="mask0_0_11559" style="mask-type:alpha" maskUnits="userSpaceOnUse" x="24" y="32" width="25" height="18">
<rect x="24" y="32" width="25" height="18" rx="3" fill="white"/>
</mask>
<g mask="url(#mask0_0_11559)">
<rect x="21" y="31" width="25" height="18" rx="3" fill="#5297D1"/>
</g>
<path fill-rule="evenodd" clip-rule="evenodd" d="M37 41C37 39.3431 38.3431 38 40 38H48.5C49.3284 38 50 38.6716 50 39.5V42.5C50 43.3284 49.3284 44 48.5 44H40C38.3431 44 37 42.6569 37 41Z" fill="#CC9D3F"/>
<mask id="mask1_0_11559" style="mask-type:alpha" maskUnits="userSpaceOnUse" x="37" y="38" width="13" height="6">
<path fill-rule="evenodd" clip-rule="evenodd" d="M37 41C37 39.3431 38.3431 38 40 38H48.5C49.3284 38 50 38.6716 50 39.5V42.5C50 43.3284 49.3284 44 48.5 44H40C38.3431 44 37 42.6569 37 41Z" fill="white"/>
</mask>
<g mask="url(#mask1_0_11559)">
<path fill-rule="evenodd" clip-rule="evenodd" d="M34 41C34 39.3431 35.3431 38 37 38H45.5C46.3284 38 47 38.6716 47 39.5V42.5C47 43.3284 46.3284 44 45.5 44H37C35.3431 44 34 42.6569 34 41Z" fill="#FFC54F"/>
<circle cx="40" cy="41" r="2" fill="white"/>
</g>
</svg>
