<svg width="328" height="164" viewBox="0 0 328 164" fill="none" xmlns="http://www.w3.org/2000/svg">
<path d="M23.2189 161.504C33.6809 163.667 265.053 165.826 301.876 161.504C312.777 160.224 321.503 148.276 322.776 146.203C330.736 133.238 327.751 53.2794 325.761 26.266C324.69 11.7278 309.838 5.19571 302.871 3.03482C289.548 -1.09779 53.2799 -1.26366 22.2229 4.11573C8.32787 6.52168 3.29087 17.8712 2.29087 24.1796C-0.0421274 38.8847 -1.42113 129.331 2.31887 141.514C5.30487 151.239 12.7689 159.343 23.2189 161.504Z" fill="#E6F6EA"/>
<mask id="mask0_5567_145639" style="mask-type:alpha" maskUnits="userSpaceOnUse" x="0" y="0" width="328" height="164">
<path d="M23.2189 161.504C33.6809 163.667 265.053 165.826 301.876 161.504C312.777 160.224 321.503 148.276 322.776 146.203C330.736 133.238 327.751 53.2794 325.761 26.266C324.69 11.7278 309.838 5.19571 302.871 3.03482C289.548 -1.09779 53.2799 -1.26366 22.2229 4.11573C8.32787 6.52168 3.29087 17.8712 2.29087 24.1796C-0.0421274 38.8847 -1.42113 129.331 2.31887 141.514C5.30487 151.239 12.7689 159.343 23.2189 161.504Z" fill="white"/>
</mask>
<g mask="url(#mask0_5567_145639)">
<path d="M263.045 77.3645L216 100.283" stroke="#99DDCF" stroke-linecap="round" stroke-linejoin="round"/>
<path d="M258.088 47.6445L226.398 5.99987" stroke="#99DDCF" stroke-linecap="round" stroke-linejoin="round"/>
<path d="M327.326 64.8094L275 65.5165" stroke="#99DDCF" stroke-linecap="round" stroke-linejoin="round"/>
<path d="M274.5 73V147.5" stroke="#99DCAB" stroke-linecap="round" stroke-linejoin="round"/>
<circle cx="268.5" cy="71.5" r="28.5" fill="#BFD730"/>
<circle cx="269.5" cy="70.5" r="27.5" fill="white"/>
<path fill-rule="evenodd" clip-rule="evenodd" d="M256.472 83.0854C256.015 83.0153 255.909 82.9871 255.816 82.8926C255.724 82.798 255.667 82.6615 255.667 82.2641C255.667 72.7227 255.667 66.2947 255.667 63.5691C255.667 63.5356 255.667 63.4962 255.667 63.4542C255.667 63.196 255.876 62.9867 256.134 62.9867C265.836 65.2858 273.548 60.1405 283.25 62.4397C283.677 62.5769 283.766 62.6711 283.846 62.7592C283.926 62.8474 284 63.0719 284 63.2679C283.999 70.796 283.999 77.0959 284 82.1448C284 82.3344 283.874 82.5205 283.689 82.4773C283.67 82.4728 283.651 82.467 283.632 82.4597C273.929 80.1595 268.117 84.8726 256.472 83.0854Z" fill="#1868AB"/>
<path fill-rule="evenodd" clip-rule="evenodd" d="M253.995 79.7472C253.525 79.6799 253.416 79.6528 253.321 79.562C253.225 79.4711 253.167 79.34 253.167 78.9583C253.167 69.7932 253.167 63.6187 253.167 61.0006C253.167 60.977 253.167 60.9503 253.167 60.9218C253.167 60.6564 253.382 60.4412 253.647 60.4412C263.624 62.6497 271.554 57.7073 281.531 59.9158C281.969 60.0476 282.061 60.1381 282.143 60.2227C282.225 60.3074 282.302 60.523 282.302 60.7113C282.301 67.9425 282.301 73.9939 282.302 78.8437C282.302 79.0251 282.181 79.1989 282.003 79.1671C281.977 79.1624 281.95 79.1556 281.923 79.1462C271.946 76.9367 265.97 81.464 253.995 79.7472Z" fill="#5297D1"/>
<path fill-rule="evenodd" clip-rule="evenodd" d="M267.735 75.1378C264.782 75.1378 262.388 72.7452 262.388 69.7936C262.388 66.842 264.782 64.4485 267.735 64.4485C270.686 64.4485 273.079 66.842 273.079 69.7936C273.079 72.7452 270.686 75.1378 267.735 75.1378Z" fill="white"/>
<path d="M275.76 62.8712H279.526" stroke="white" stroke-width="2.02105" stroke-linecap="round"/>
<path d="M255.839 77.1044H259.605" stroke="white" stroke-width="2.02105" stroke-linecap="round"/>
<circle cx="201.5" cy="110.5" r="22.5" fill="#99DDCF"/>
<circle cx="227.5" cy="4.5" r="20.5" fill="#E5EFAC"/>
<circle cx="274.5" cy="156.5" r="22.5" fill="#E5EFAC"/>
<path d="M64 57L55 57C53.8954 57 53 57.8954 53 59L53 132" stroke="#95CF72" stroke-linecap="round" stroke-linejoin="round"/>
<path d="M64 74V83C64 84.1046 64.8954 85 66 85H131" stroke="#40C0A6" stroke-linecap="round" stroke-linejoin="round"/>
<mask id="mask1_5567_145639" style="mask-type:alpha" maskUnits="userSpaceOnUse" x="124" y="25" width="69" height="112">
<path fill-rule="evenodd" clip-rule="evenodd" d="M171.736 25.5878L131.177 30.758C131.158 30.7608 131.138 30.7635 131.116 30.767C126.531 31.3913 123.396 36.2425 124.108 41.635L135.293 127.809C135.916 132.606 139.902 136.16 144.596 136.431L144.68 136.436C145.265 136.465 145.859 136.443 146.46 136.367L183.949 131.586C188.775 130.97 192.351 127.029 192.64 122.381L192.649 122.212C192.675 121.647 192.651 121.072 192.577 120.493L181.392 34.3325C180.725 29.2768 176.917 25.5288 172.658 25.5288C172.352 25.5288 172.045 25.548 171.736 25.5878Z" fill="white"/>
</mask>
<g mask="url(#mask1_5567_145639)">
<path fill-rule="evenodd" clip-rule="evenodd" d="M120.613 18.1914L202.518 22.5644L196.05 143.727L114.144 139.354L120.613 18.1914Z" fill="#1868AB"/>
</g>
<mask id="mask2_5567_145639" style="mask-type:alpha" maskUnits="userSpaceOnUse" x="126" y="25" width="70" height="112">
<path fill-rule="evenodd" clip-rule="evenodd" d="M174.268 25.4809L133.88 30.6669C133.86 30.6696 133.839 30.6737 133.82 30.6758C129.253 31.3029 126.132 36.1705 126.84 41.5829L137.983 128.068C138.685 133.512 143.663 137.358 149.103 136.657L186.436 131.862C191.883 131.162 195.729 126.177 195.027 120.729L183.886 34.2564C183.221 29.1836 179.426 25.4226 175.186 25.4219C174.881 25.4219 174.576 25.4411 174.268 25.4809Z" fill="white"/>
</mask>
<g mask="url(#mask2_5567_145639)">
<path fill-rule="evenodd" clip-rule="evenodd" d="M123.347 18.0957L204.987 22.4543L198.498 144.007L116.858 139.649L123.347 18.0957Z" fill="#5297D1"/>
</g>
<mask id="mask3_5567_145639" style="mask-type:alpha" maskUnits="userSpaceOnUse" x="131" y="30" width="61" height="104">
<path fill-rule="evenodd" clip-rule="evenodd" d="M174.567 30.9097L168.095 31.7521C167.266 31.8599 166.521 31.8338 166.453 32.88L166.376 34.0443C166.311 35.0919 165.679 35.9022 164.849 36.0106L146.445 38.4043C145.615 38.5113 144.8 37.889 144.468 36.8942L144.099 35.7876C143.799 34.8875 143.196 34.9753 142.47 35.081C142.393 35.0926 142.315 35.1043 142.235 35.1139L135.763 35.9536C135.751 35.9557 135.737 35.9578 135.725 35.9591C132.752 36.3721 130.745 39.7517 131.232 43.5292L141.826 126.491C142.365 130.696 146.173 133.665 150.338 133.122L184.88 128.631C189.053 128.087 192.001 124.229 191.465 120.018L180.872 37.074C180.413 33.5195 177.906 30.8733 175.13 30.8733C174.943 30.8733 174.756 30.885 174.567 30.9097Z" fill="white"/>
</mask>
<g mask="url(#mask3_5567_145639)">
<path fill-rule="evenodd" clip-rule="evenodd" d="M127.592 23.7805L201.069 27.7035L195.064 140.185L121.587 136.263L127.592 23.7805Z" fill="white"/>
<rect x="145.673" y="120.074" width="42" height="9" rx="2" transform="rotate(-7 145.673 120.074)" fill="#00AB4E"/>
</g>
<path fill-rule="evenodd" clip-rule="evenodd" d="M157.034 30.8268L148.827 31.9458C148.826 31.9458 148.823 31.9465 148.821 31.9471C148.326 32.0178 147.975 32.4912 148.037 33.0099L148.061 33.1944C148.125 33.7117 148.583 34.0774 149.083 34.0095L157.289 32.8884C157.788 32.8198 158.141 32.3437 158.077 31.825L158.054 31.6418C157.995 31.1657 157.606 30.8179 157.157 30.8179C157.117 30.8179 157.075 30.8213 157.034 30.8268Z" fill="#0F5895"/>
<path fill-rule="evenodd" clip-rule="evenodd" d="M161.118 30.142C161.114 30.1407 161.111 30.1413 161.109 30.142C160.368 30.2456 159.847 30.9248 159.943 31.6679C160.04 32.4157 160.724 32.9419 161.47 32.8431C162.217 32.747 162.742 32.0637 162.645 31.3173C162.557 30.6305 161.971 30.1304 161.296 30.1304C161.237 30.1304 161.177 30.1338 161.118 30.142Z" fill="#0F5895"/>
<mask id="mask4_5567_145639" style="mask-type:alpha" maskUnits="userSpaceOnUse" x="131" y="41" width="54" height="93">
<path fill-rule="evenodd" clip-rule="evenodd" d="M131.132 43.7907L141.93 126.586C142.477 130.784 146.338 133.749 150.556 133.21L184.668 128.867C144.183 128.884 132.35 50.0071 131.171 41.3318C131.043 42.1125 131.021 42.9406 131.132 43.7907Z" fill="white"/>
</mask>
<g mask="url(#mask4_5567_145639)">
<path opacity="0.398647" fill-rule="evenodd" clip-rule="evenodd" d="M126.827 36.5513L193.954 40.1353L188.626 139.918L121.5 136.334L126.827 36.5513Z" fill="#E8F1F9"/>
</g>
<mask id="mask5_5567_145639" style="mask-type:alpha" maskUnits="userSpaceOnUse" x="141" y="108" width="32" height="21">
<path fill-rule="evenodd" clip-rule="evenodd" d="M166.495 109.138C163.297 110.788 153.505 117.65 153.505 117.65L146.011 121.817L141.813 123.379L141.318 128.161L152.01 122.344L172.494 109.665C172.494 109.665 171.02 108.521 168.991 108.521C168.223 108.521 167.373 108.685 166.495 109.138Z" fill="white"/>
</mask>
<g mask="url(#mask5_5567_145639)">
<path fill-rule="evenodd" clip-rule="evenodd" d="M139.591 101.639L177.455 104.964L174.309 135.338L136.446 132.013L139.591 101.639Z" fill="#A3C7E6"/>
</g>
<path fill-rule="evenodd" clip-rule="evenodd" d="M122.02 107.224C119.97 108.76 118.693 111.117 118.524 113.673L116.626 142.275C116.376 146.036 115.369 149.703 113.665 153.062L103 167.726L138.062 172.108L143.471 162.283C146.49 159.409 149.03 156.072 150.998 152.398L158.553 138.298C159.441 136.639 160.538 135.101 161.818 133.723L175.047 119.462C176.246 118.168 176.833 116.422 176.664 114.668C176.371 111.685 173.978 109.342 170.986 109.115L170.516 109.081C169.037 108.969 167.569 109.394 166.381 110.276L151.037 121.647C149.993 122.421 148.853 123.052 147.647 123.525L137.724 127.605C135.441 128.542 134.457 120.615 134.457 120.615L131.713 99.3467L122.02 107.224Z" fill="#F2CBA8"/>
<path fill-rule="evenodd" clip-rule="evenodd" d="M140.738 157.826C138.451 161.303 135.631 165.52 134.78 166.481C133.276 168.183 116.728 170.493 110.805 165C110.805 165 114.508 165.956 124.769 169.006C135.522 172.2 140.712 168.962 140.712 168.962L146.654 158.056C146.654 158.056 152.008 154.628 162.039 133.029C162.039 133.029 152.851 147.487 146.781 151.759C144.422 153.418 142.323 155.416 140.738 157.826Z" fill="#E79E5C"/>
<path fill-rule="evenodd" clip-rule="evenodd" d="M182.141 90.6102C182.215 91.1576 181.831 91.661 181.283 91.7346L146.699 96.3871C146.152 96.4608 145.648 96.0767 145.574 95.5294C145.501 94.982 145.885 94.4786 146.432 94.405L181.017 89.7525C181.564 89.6788 182.067 90.0628 182.141 90.6102Z" fill="#BBBDC0"/>
<path fill-rule="evenodd" clip-rule="evenodd" d="M182.14 99.6037C182.217 100.151 181.837 100.657 181.29 100.734L151.14 104.99C150.593 105.067 150.087 104.687 150.01 104.14C149.933 103.593 150.313 103.087 150.86 103.01L181.01 98.7534C181.557 98.6761 182.063 99.0569 182.14 99.6037Z" fill="#BBBDC0"/>
<path fill-rule="evenodd" clip-rule="evenodd" d="M159.277 67.7018C164.688 66.9197 170.015 68.6651 172.686 71.9655C174.237 73.8823 173.189 76.7986 170.793 77.3239L169.979 77.4971C167.997 77.9068 165.427 78.3555 162.193 78.839L160.336 79.1099L158.284 79.3933C155.23 79.8015 152.811 80.0589 150.957 80.1908C148.51 80.3656 146.679 77.8654 147.624 75.5878C149.251 71.6662 153.866 68.4839 159.277 67.7018ZM157.159 53.0463C160.682 52.5372 163.943 55.2878 164.498 59.1267C165.053 62.9655 162.704 66.5271 159.181 67.0363C155.658 67.5454 152.397 64.7948 151.842 60.9559C151.287 57.117 153.636 53.5555 157.159 53.0463Z" fill="#00AB4E"/>
<path fill-rule="evenodd" clip-rule="evenodd" d="M163.537 77.0367C163.537 81.1788 166.895 84.5368 171.037 84.5368C175.179 84.5368 178.537 81.1788 178.537 77.0367C178.537 72.895 175.179 69.5366 171.037 69.5366C166.895 69.5366 163.537 72.895 163.537 77.0367Z" fill="#95CF72"/>
<path fill-rule="evenodd" clip-rule="evenodd" d="M173.235 75.2709L170.149 78.2499L168.817 77.1807C168.404 76.8487 167.783 76.8946 167.431 77.2857C167.078 77.6747 167.127 78.2604 167.542 78.592L169.572 80.2239C169.757 80.3721 169.984 80.4458 170.211 80.4458C170.467 80.4458 170.723 80.3516 170.915 80.1653L174.643 76.5659C175.022 76.1998 175.015 75.6117 174.626 75.2544C174.435 75.0786 174.186 74.9912 173.938 74.9912C173.683 74.9912 173.427 75.0845 173.235 75.2709Z" fill="white"/>
<mask id="mask6_5567_145639" style="mask-type:alpha" maskUnits="userSpaceOnUse" x="167" y="74" width="8" height="7">
<path fill-rule="evenodd" clip-rule="evenodd" d="M173.235 75.2709L170.149 78.2499L168.817 77.1807C168.404 76.8487 167.783 76.8946 167.431 77.2857C167.078 77.6747 167.127 78.2604 167.542 78.592L169.572 80.2239C169.757 80.3721 169.984 80.4458 170.211 80.4458C170.467 80.4458 170.723 80.3516 170.915 80.1653L174.643 76.5659C175.022 76.1998 175.015 75.6117 174.626 75.2544C174.435 75.0786 174.186 74.9912 173.938 74.9912C173.683 74.9912 173.427 75.0845 173.235 75.2709Z" fill="white"/>
</mask>
<g mask="url(#mask6_5567_145639)">
</g>
<path fill-rule="evenodd" clip-rule="evenodd" d="M69.271 141.658C63.6545 151.386 51.0195 154.606 41.0506 148.851C31.0817 143.095 27.5533 130.543 33.1698 120.815C38.7863 111.086 51.4213 107.866 61.3902 113.621C70.9188 119.123 74.5627 130.833 69.9625 140.352C69.75 140.792 69.5195 141.227 69.271 141.658Z" fill="#95CF72"/>
<path fill-rule="evenodd" clip-rule="evenodd" d="M71.457 139.515C65.6345 149.6 52.7383 153.055 42.6533 147.233C32.5683 141.41 29.1128 128.514 34.9354 118.429C40.7579 108.344 53.6541 104.889 63.7391 110.711C73.3787 116.277 76.9608 128.303 72.1751 138.162C71.954 138.618 71.7146 139.069 71.457 139.515Z" fill="white"/>
<rect x="41" y="121.75" width="24" height="17.25" rx="2.25" fill="#1868AB"/>
<mask id="mask7_5567_145639" style="mask-type:alpha" maskUnits="userSpaceOnUse" x="41" y="121" width="24" height="18">
<rect x="41" y="121.75" width="24" height="17.25" rx="2.25" fill="white"/>
</mask>
<g mask="url(#mask7_5567_145639)">
<rect x="38.75" y="121" width="24" height="17.25" rx="2.25" fill="#5297D1"/>
</g>
<path fill-rule="evenodd" clip-rule="evenodd" d="M53.75 130.375C53.75 128.511 55.261 127 57.125 127H64.625C65.4534 127 66.125 127.672 66.125 128.5V132.25C66.125 133.078 65.4534 133.75 64.625 133.75H57.125C55.261 133.75 53.75 132.239 53.75 130.375Z" fill="#CC9D3F"/>
<mask id="mask8_5567_145639" style="mask-type:alpha" maskUnits="userSpaceOnUse" x="53" y="127" width="14" height="7">
<path fill-rule="evenodd" clip-rule="evenodd" d="M53.75 130.375C53.75 128.511 55.261 127 57.125 127H64.625C65.4534 127 66.125 127.672 66.125 128.5V132.25C66.125 133.078 65.4534 133.75 64.625 133.75H57.125C55.261 133.75 53.75 132.239 53.75 130.375Z" fill="white"/>
</mask>
<g mask="url(#mask8_5567_145639)">
<path fill-rule="evenodd" clip-rule="evenodd" d="M53.75 127H63.875V133.75H53.75V127Z" fill="#FFC54F"/>
<circle cx="57.125" cy="130.375" r="2.25" fill="white"/>
</g>
<path fill-rule="evenodd" clip-rule="evenodd" d="M89.0441 62.7477C80.7846 77.0535 62.204 81.7895 47.5441 73.3256C32.8841 64.8617 27.6953 46.4024 35.9548 32.0966C44.2143 17.7908 62.7949 13.0548 77.4548 21.5187C91.4673 29.6088 96.8258 46.8292 90.061 60.8277C89.7484 61.4748 89.4095 62.1148 89.0441 62.7477Z" fill="#40C0A6"/>
<path fill-rule="evenodd" clip-rule="evenodd" d="M90.2587 59.8961C81.6962 74.7267 62.7315 79.8083 47.9009 71.2458C33.0702 62.6833 27.9886 43.7186 36.5511 28.888C45.1136 14.0573 64.0783 8.97574 78.909 17.5382C93.0846 25.7225 98.3524 43.4089 91.3146 57.9067C90.9895 58.5769 90.6375 59.24 90.2587 59.8961Z" fill="white"/>
<path d="M69.0125 51.0034L72.713 45.396L69.0125 44.4425C68.5277 42.9882 67.7035 41.6146 66.54 40.4511C65.3926 39.3037 64.0353 38.4634 62.5486 37.9786L62.5001 38.0272L57.9916 37.8494L55.9877 37.9786C54.5011 38.4634 53.1437 39.3037 51.9963 40.4511L46.0057 46.4417C41.9981 50.4493 41.9981 56.9626 46.0057 60.9702C50.1264 65.0909 56.6388 64.8809 60.5494 60.9702L66.54 54.9948C67.7036 53.8312 68.5278 52.4577 69.0125 51.0034ZM56.5095 56.9302C54.6996 58.7401 51.8071 58.6917 50.0456 56.9302C48.2681 55.1526 48.2681 52.2438 50.0456 50.4663L55.9877 44.5394L59.2359 47.7552L62.5002 50.9548L56.5095 56.9302Z" fill="#FFC54F"/>
<path d="M78.9942 28.0118C74.9866 24.0042 68.4742 23.988 64.4505 28.0118L58.4598 33.9872C57.2964 35.1506 56.4722 36.5242 55.9874 37.9786C55.2763 40.1117 55.2764 42.4063 55.9874 44.5395C56.4722 45.9937 57.2964 47.3675 58.4598 48.531C59.5911 49.6622 60.9485 50.5024 62.4513 51.0033L62.4998 50.9549C64.2774 49.1773 64.2773 46.2686 62.4998 44.491C60.7222 42.7135 60.7222 39.8047 62.4998 38.0271L68.4904 32.0517C69.3631 31.179 70.4943 30.7266 71.7225 30.7266C71.7547 30.6944 72.0294 30.7105 72.0941 30.7428C72.9668 30.7427 74.114 31.2113 74.9543 32.0517C76.7319 33.8293 76.7319 36.738 74.9543 38.5156L69.0123 44.4424C69.7233 46.5755 69.7233 48.8702 69.0123 51.0033C70.4827 50.5024 71.8725 49.6621 73.0037 48.5309L78.9943 42.5555C83.0019 38.5478 83.0018 32.0193 78.9942 28.0118Z" fill="#00AB4E"/>
<path d="M62.4997 50.9546L62.4512 51.0031C60.9484 50.5022 59.5909 49.6619 58.4597 48.5307L62.4997 44.4907C64.2772 46.2684 64.2773 49.1771 62.4997 50.9546Z" fill="#00883E"/>
</g>
</svg>
