<svg width="328" height="164" viewBox="0 0 328 164" fill="none" xmlns="http://www.w3.org/2000/svg">
<path d="M2.31987 141.514C5.30487 151.239 12.7689 159.343 23.2189 161.504C33.6809 163.667 265.053 165.826 301.876 161.504C312.777 160.224 321.503 148.276 322.776 146.203C330.736 133.238 327.751 53.2794 325.761 26.266C324.69 11.7278 309.838 5.19571 302.871 3.03482C289.548 -1.09779 53.2799 -1.26366 22.2229 4.11573C8.32787 6.52168 3.29087 17.8712 2.29087 24.1796C-0.0421274 38.8847 -1.42113 129.331 2.31887 141.514H2.31987Z" fill="#E6F6ED"/>
<mask id="mask0_5570_165344" style="mask-type:alpha" maskUnits="userSpaceOnUse" x="0" y="0" width="328" height="164">
<path fill-rule="evenodd" clip-rule="evenodd" d="M23.2189 161.504C33.6809 163.667 265.053 165.826 301.876 161.504C312.777 160.224 321.503 148.276 322.776 146.203C330.736 133.238 327.751 53.2794 325.761 26.266C324.69 11.7278 309.838 5.19571 302.871 3.03482C289.548 -1.09779 53.2799 -1.26366 22.2229 4.11573C8.32787 6.52168 3.29087 17.8712 2.29087 24.1796C-0.0421274 38.8847 -1.42113 129.331 2.31887 141.514C5.30487 151.239 12.7689 159.343 23.2189 161.504Z" fill="white"/>
</mask>
<g mask="url(#mask0_5570_165344)">
<path fill-rule="evenodd" clip-rule="evenodd" d="M153.799 30.7099L152.343 33.3702L149.684 34.8245C149.245 35.0652 149.245 35.6956 149.684 35.9362L152.343 37.3906L153.799 40.0509C154.038 40.4902 154.67 40.4902 154.909 40.0509L156.365 37.3906L159.025 35.9362C159.464 35.6956 159.464 35.0652 159.025 34.8245L156.365 33.3702L154.909 30.7099C154.67 30.2705 154.038 30.2705 153.799 30.7099Z" fill="white"/>
<path fill-rule="evenodd" clip-rule="evenodd" d="M148.799 42.7099L147.343 45.3702L144.684 46.8245C144.245 47.0652 144.245 47.6956 144.684 47.9362L147.343 49.3906L148.799 52.0509C149.038 52.4902 149.67 52.4902 149.909 52.0509L151.365 49.3906L154.025 47.9362C154.464 47.6956 154.464 47.0652 154.025 46.8245L151.365 45.3702L149.909 42.7099C149.67 42.2705 149.038 42.2705 148.799 42.7099Z" fill="white"/>
<ellipse opacity="0.5" cx="180" cy="163" rx="190" ry="104" fill="#99DDB8"/>
<mask id="mask1_5570_165344" style="mask-type:alpha" maskUnits="userSpaceOnUse" x="-10" y="59" width="380" height="208">
<ellipse cx="180" cy="163" rx="190" ry="104" fill="white"/>
</mask>
<g mask="url(#mask1_5570_165344)">
<path opacity="0.158715" fill-rule="evenodd" clip-rule="evenodd" d="M3.88609 201.498L-0.616486 224.443L-5.80424 223.56V227.777L51.0653 237.778L-5.80424 240.132V244.25L13.3807 243.466L13.6743 253.958L-5.80424 255.036V257.095L13.6743 256.017L14.0658 271.706H18.1769L17.7853 258.762L24.6371 257.782L24.2456 271.706H26.3011L26.6926 257.488L40.0046 255.625L49.3034 264.057L44.4093 271.804H46.8563L50.8695 265.43L57.8191 271.804H60.8535L42.6474 255.232C47.7373 254.35 60.5598 252.193 65.9433 251.212L62.4196 271.804H66.5306L68.2925 261.508L83.5621 263.959C82.9748 266.705 82.4854 269.352 81.8981 271.804H86.107L87.2816 265.921L94.7207 271.804H101.377L88.2604 261.508L91.0011 248.172L130.937 253.86L127.707 271.902H134.657L134.95 270.039L147.871 271.902H175.963L161.77 269.843L166.37 250.722C171.46 251.702 184.772 254.252 189.862 255.232L186.73 272H190.939L192.994 261.214L239.292 269.745L238.901 272H245.851L246.927 266.411L257.401 267.882L258.282 272H260.337L259.554 268.176L282.556 271.51L282.458 272H333.944L325.429 270.823L324.646 257.978L335.608 257.39V255.33L324.45 255.919L323.765 245.035L335.608 244.544V240.426L323.569 240.916L322.688 225.816L335.706 228.071V223.854L323.275 221.207L329.344 198.458L335.902 199.635V192.673L323.373 190.319L320.73 174.63L335.902 172.767V168.649L320.045 170.61L317.5 155.313L330.91 148.744C332.085 152.666 333.944 159.236 336 166.296V151.587L334.63 146.881L336 146.194V138.546L332.77 140.115C332.085 137.761 331.204 134.525 330.323 131.388C331.693 130.897 333.749 130.211 336 129.427V127.269L329.736 129.427C328.659 125.602 327.778 122.17 327.386 120.896L330.421 110.992L335.902 111.58V109.521L331.008 108.933L334.923 96.2836L335.902 96.6758V92.2633L331.4 90.5963L335.902 79.8102V75.986L327.288 72.6521L332.672 57.1592C333.749 57.8456 334.825 58.434 335.902 59.0223V54.2176C331.987 51.9623 328.169 49.4128 324.744 46.6672L335.902 44.8042V40.6858L332.77 41.1761L326.603 30.8802L335.804 25.3891V23.0357L314.172 35.783C313.977 35.4889 313.781 35.1947 313.585 34.9005C310.942 30.7822 308.985 25.4871 307.516 19.4077L335.804 21.4668V19.4077L307.027 17.3485C306.538 15.0932 306.146 12.7399 305.754 10.3865L335.804 8.13122V4.01286L325.625 4.79731L328.659 -19.9128L335.804 -20.1089V-24.2273L329.148 -24.0312L329.833 -29.7184L335.804 -35.7979V-38.7396L330.225 -33.0523L332.77 -53.8402L335.804 -53.448V-55.5071L332.966 -55.8994L333.944 -64.1361L335.804 -63.8419V-70.8039L334.14 -71H282.654L279.424 -53.2519L264.84 -50.2121L260.533 -71H258.477L259.75 -64.7244L244.578 -62.7633L246.144 -71H239.097L237.433 -61.9788L190.841 -68.8428L191.232 -71H187.023L186.73 -69.4311L176.256 -71H148.164L186.045 -65.4108L182.423 -46.0938L131.426 -51.1927L134.95 -71H128.001L124.77 -52.8596L101.67 -71H95.0143L117.919 -52.9577L83.5621 -57.8605L86.3028 -71H82.0939C81.0172 -65.705 80.0384 -61.2925 79.5489 -58.4488L64.9645 -60.508L66.7264 -70.9019H62.6153L62.4196 -69.6272L61.0492 -70.9019H58.0149L62.028 -67.2739L60.9513 -61.0963L42.4516 -63.7439L46.9542 -70.9019H44.5072L40.2003 -64.038L26.3011 -65.9991L26.399 -70.8039H24.3434L24.2456 -66.2933L18.3726 -67.1758L18.2748 -70.9019H14.1637L14.2616 -67.7642L-5.80424 -70.6078V-63.6458L13.8701 -60.8022L12.7934 -52.9577L-5.90212 -55.311V-53.2519L6.92043 -51.683L-5.90212 -38.6415V-35.6998L9.46537 -51.3888L12.4997 -50.9966L8.97596 -24.4234L-5.90212 -24.0312V-19.9128L8.38867 -20.305L5.25644 3.32647L-5.90212 4.11092V8.22927L-0.127075 7.83705L1.92845 20.0941L-5.90212 19.5057V21.5649L-3.55295 21.761L-5.90212 23.1338V25.4871L0.0686893 21.9571L2.31998 22.1532L5.15856 38.9208L-5.90212 40.7839V44.9022L28.7481 39.1169L26.4969 68.3376C16.7086 65.1018 4.66915 60.3951 -6 54.2176V59.0223C-1.49742 61.5717 3.20092 63.827 7.89926 65.7882L2.71151 79.418L-6 75.986V79.8102L-5.41271 78.4374L12.0103 85.3013L9.07384 97.8525L-6 92.3613V96.7739L22.5816 107.168L23.3646 112.855L-5.90212 109.619V111.678L5.84373 112.953L8.38867 122.268L-5.90212 127.269V129.427C-0.518603 127.465 6.33314 125.112 8.87808 124.23L10.64 130.505L-5.90212 138.644V146.292L1.24327 142.762L9.66113 170.022L-1.00801 168.453L-5.90212 151.587V166.296C-5.70635 167.08 -5.51059 167.766 -5.21694 168.551L-5.90212 168.649V172.767L-4.04236 172.571C-1.59531 180.906 0.753864 189.241 2.2221 194.144L-5.90212 192.673V199.635L3.88609 201.498ZM21 197.366L24.0811 176L40 178.146L36.0973 200L21 197.366ZM47.84 153L56 154.457L51.776 177L44 175.834L47.84 153ZM40.5275 175L34 174.117L36.1758 159L43 160.472L40.5275 175ZM49 98L49.2935 88L58 89.5534L53.8913 98C53.1087 97.9029 52.3261 97.8058 51.4457 97.8058C50.663 97.8058 49.7826 97.9029 49 98ZM41.619 101.235C40.9524 101.824 40.381 102.412 39.8095 103L30 95.2549L42 88L41.619 101.235ZM60 100.98L69.3257 81L77 102.687L64.3714 106C63.3029 103.992 61.8457 102.285 60 100.98ZM81.3734 -34L86.7848 -31.4302L94 0L79 -4.44768L81.3734 -34ZM74.2479 -6L64 -8.12121L65.8803 -16L75 -15.3939L74.2479 -6ZM301 -49.8956C300.495 -42.7671 299.991 -34.5341 299.89 -26L297.771 -26.1004L290 -51L301 -49.8956ZM305.711 -57L319 -54.619L316.081 -32C313.564 -32.1984 307.322 -32.8929 304 -33.1905C304.503 -42.3175 305.208 -50.5516 305.711 -57ZM279 -5.65714L255.509 -3C254.827 -9.10159 252.682 -27.5048 252 -34L276.661 -31.146L279 -5.65714ZM296 -26L280.5 -26.6829L280 -31.8537L280.9 -36.6341L292.2 -38L296 -26ZM252 -1.99707L243.907 -1L240 -35L248.558 -33.9032L252 -1.99707ZM255 139L241.193 135.1L235 119.2C241.599 116.9 248.096 115 251.954 114L255 139ZM267.529 116L269 128.559L260.471 130L259 117.029L267.529 116ZM181 177.726L184.434 163L207 170.363L204.645 183C200.525 182.005 190.419 179.816 181 177.726ZM203 183.706L200.219 199L182 179L203 183.706ZM199.761 48.2076L202 72.391L191.779 75L191 46L199.761 48.2076ZM217 48L209.188 69.0476L205.029 70L203 49.7143L217 48ZM183.426 155L172 151.038L178.317 134L189 138.557L183.426 155ZM191.937 139L202 143C198.579 148.9 195.56 154.6 193.95 158L186 155.5L191.937 139ZM176 128.209L182.667 120L196 129.831L192.425 135L176 128.209ZM173.647 128L172.667 127.612L171 107.903L184.333 98L191 107.806L173.647 128ZM169.429 105L160 87.8815L174.857 84L182 95.1469C179.619 97.0379 172 102.91 169.429 105ZM184 96.837C185.12 95.9037 187.259 94.2444 188.787 93L195 101.815L190.722 107L184 96.837ZM183.638 94L177 84.2941L182.405 83L188 90.6723L183.638 94ZM153 85L158.137 66L170 80.3533L153 85ZM158 62.4987L164.871 39L187.129 44.3316L188 73.8532L171.935 78L158 62.4987ZM201 38.0462L228.605 35L230 43.5846L201.997 47L201 38.0462ZM198.229 36.5424L199 44L183 40.3644L185.41 33L198.229 36.5424ZM180.445 41L166 37.6557L168.555 29L183 33.1311L180.445 41ZM161.809 40L131 28.5279L134.49 20L165 28.8325L161.809 40ZM160 41.1L156.837 52L143 47.3C143.988 44.2 145.767 38.4 146.459 36L160 41.1ZM141 50.9877C140.314 53.0491 139.041 56.681 137.474 61L122 54.227L123.077 45L141 50.9877ZM142.97 51L157 55.4976L152.224 71L137 67.2679L142.97 51ZM152 72.8424L148.661 84.2709L130 89L136.973 69L152 72.8424ZM157.096 90L162 98.0301L147 102L149.788 91.7143L157.096 90ZM162.992 99L167.326 106.615L169 126L143 115.615L145.955 103.846L162.992 99ZM156 124.924L153.019 134L141 130.717L143.692 120L156 124.924ZM157.178 125L176 132.769L169.34 150L151 143.924L157.178 125ZM149 151.353L145.967 169L122 154.176L130.022 145L149 151.353ZM156.182 154L182 161.897L178.551 176C171.752 174.59 165.642 173.273 162.686 172.709L155 160.393L156.182 154ZM177 177.868L169.985 184L165 175L177 177.868ZM198 159.49C201.343 152.627 209.367 137.137 215.29 129.98C215.576 129.686 215.863 129.294 216.245 129L230 145.471L211.755 164L198 159.49ZM227 134.662L236.692 129L239 135.691L233.369 143L227 134.662ZM224.333 133L219 127C222.524 124.818 227.381 122.727 232.333 121L235 127.727L224.333 133ZM212.35 127.872C209.631 130.88 206.621 135.393 203.806 140L194 136.239L207.689 118L214 126.462C213.32 126.838 212.738 127.402 212.35 127.872ZM195.826 129L183 119.545L196.387 103L205 115.606L195.826 129ZM203 104.455L214.81 101L219 109.455L209.381 113L203 104.455ZM216 98.9508L226.005 96L235 102.492L220.346 108L216 98.9508ZM200.18 101L187 82.6468L213.164 76L217 95.9405L200.18 101ZM216 74.6452L245.81 67L248 85.2903L219.714 94L216 74.6452ZM212 68L219.498 47.5043L231.435 46L234 62.641L212 68ZM231 34.196L241.576 33L245 60.608L235.331 63L231 34.196ZM248 32.0588L257 30L255.6 58.9216L251.4 60L248 32.0588ZM204 33L226.005 13.7729L238.07 13L240 28.7488L204 33ZM245 12.3757L253.761 11C254.637 16.5029 255.513 22.6936 256 25.8382L246.85 28L245 12.3757ZM239 11.1818L227.857 12L227 3L238.143 3.30682L239 11.1818ZM225 12.1346L201.793 33L199 2L224.23 2.69551C224.326 5.47756 224.807 10.5449 225 12.1346ZM198 33L138 16.2685L142.653 8L197.307 25.5097L198 33ZM131 18.6923L122.111 39L115 36.7436L124.481 17L131 18.6923ZM130.677 30L146 35.3018L142.517 46L126 40.6982L130.677 30ZM121 43.7317L119.914 53L106 50.8537L112.809 41L121 43.7317ZM120.777 54.3564L137 61.4255C135.034 67.0218 132.772 73.4036 130.806 79L99.048 72.8145L96 64.96L104.947 52L120.777 54.3564ZM100 85.6129L87.2328 89L81 74.5806L93.0635 68L100 85.6129ZM100 75L130 80.8163C128.827 84.1122 127.85 87.0204 127.068 89.0561L107.329 94L100 75ZM146 92L140.269 114L132.594 108.335L129 96.1545L146 92ZM139 118.085L133.74 139L122 115.708L131.017 112L139 118.085ZM139.873 133L152 136.27L149.437 144L138 140.333L139.873 133ZM128 144.221L110.718 164L108 162.494C109.845 152.454 111.495 143.719 112.369 139L128 144.221ZM120.4 156L146 170.768L144.1 181L112 164.88L120.4 156ZM143 182.676L142.414 186L104 179.547C104.977 174.364 106.053 168.987 107.03 164L143 182.676ZM118 184.327L113.948 201L101 198.964C101.988 193.923 103.174 188.107 104.36 182L118 184.327ZM100 187.142L97.7815 199L76 193.73L77.916 184L100 187.142ZM97 200.168L94.9087 211L73 207.025L75.39 195L97 200.168ZM100.059 201L113 203.178L112.118 215L98 212.304C98.4902 209.607 99.1765 205.667 100.059 201ZM115.928 204L125 205.292L123.351 216L115 214.615L115.928 204ZM126.589 205L140 207.1L137.914 219L125 216.6L126.589 205ZM116 202.2L120.025 185L143 188.9L139.956 206L116 202.2ZM153.5 166L166 186.656L147 202L153.5 166ZM166.525 189L183 215.156L175.475 221L159 194.844L166.525 189ZM171 186.096L179.713 179L201 201.667L187.139 213L171 186.096ZM215 202.023L217.268 186C220.464 186.488 223.454 186.977 225 187.172L221.598 203L215 202.023ZM212.759 202L204 200.655L207.157 185C209.093 185.288 212.046 185.768 215 186.249L212.759 202ZM208 182.282L210.264 170L227 175.436L225.13 185L208 182.282ZM215 165.751L232.42 149L244 162.127L238.26 173L215 165.751ZM234 143.157L240.38 136L254.861 140.02L258 164.529C256.684 164.824 255.468 165.412 254.253 166L234 143.157ZM262 135.188L281.94 132L284 145.716L263.685 149L262 135.188ZM216.324 123L210 114.231L236.465 104L246 111.015C237.73 113.354 224.4 117.641 216.324 123ZM229 94.9434L248.545 89L251 109.604C250.509 109.703 249.92 109.901 249.33 110L229 94.9434ZM255.792 92L255 85.7418L273.226 75L276 92H255.792ZM255.1 83L253 66L272 72.7029L255.1 83ZM255 62.4L290 53L283.213 73L255 62.4ZM258 58L258.785 42.1951L282.725 38L284 51.3659L258 58ZM259 41L259.496 30.1043L281.81 25L283 36.8773L259 41ZM259.321 25L257 10.3742L266.083 9L268 23.135L259.321 25ZM244.909 11L244 3.08434L252.889 2C253.192 3.73494 253.495 6.44579 254 9.3735L244.909 11ZM195.09 2.57014L197 23L165 12.6425L169.394 2L195.09 2.57014ZM160.887 12L143 6.00893L143.765 1L165 1.58929L160.887 12ZM141.195 5L126 0L142 0.408165C141.698 1.93877 141.396 3.77551 141.195 5ZM141 7.5L136.292 16L105 6.9L108.237 0L119.616 0.300003L141 7.5ZM122 16.3962L112.466 37L93 30.6226L102.534 11L122 16.3962ZM111 39.4L94.8 63L87 42.7L91.7 33L111 39.4ZM80 42.7477L71.5 61L63 56.1916L66.4 40L80 42.7477ZM85.0844 48L92 66.2087L80.3117 73L77 65.0276L85.0844 48ZM85 90.3735L75.3 93L70 78.9922L75.4 68L85 90.3735ZM100.055 88L103 95.7887L78.6509 102L76 94.7042L100.055 88ZM126.531 97L130 109.249L101.055 121L96 104.668L126.531 97ZM119.718 116L131 138L94 126.292L119.718 116ZM108 138.475L104.245 158L83 154.272L87.5455 132L108 138.475ZM78 157.94L73.6886 179L62 177.402L72.7305 157L78 157.94ZM83.5824 158L105 161.74L100.816 183L79 179.949L83.5824 158ZM73 182.772L68.3371 206L56 203.736L60.4686 181L73 182.772ZM46 208.748L44.7299 218L29 215.16L30.1724 206L46 208.748ZM47.2707 210L72 214.631L70.2406 225L46 220.168L47.2707 210ZM77.3265 215L94 217.989C93.3214 221.071 92.2551 226.115 90.9949 232L75 228.544L77.3265 215ZM97.2782 218L118 221.913L114.579 247L92 243.689L97.2782 218ZM144 221.883L146.913 205.349L158.272 196L174 222.965L169.146 227L144 221.883ZM167 230.757L162.921 248C158.162 247.009 145.924 244.532 140 243.342L143.011 226L167 230.757ZM174 227.098L199 207L194.418 231L174 227.098ZM204.129 205L229 208.928L224.935 237L199 232.018L204.129 205ZM231.714 220L249 222.323L245.382 241L229 237.903L231.714 220ZM255 221.524L256.424 214L270 216.381L269.241 224L255 221.524ZM248.392 221C243.566 220.319 234.921 219.15 231 218.664L232.307 210L250 212.726L248.392 221ZM258 209.403L260.587 195.221C260.864 195.221 261.141 195.221 261.418 195.221C263.451 195.221 265.299 194.751 267.054 194L275 207.337L267.239 211L258 209.403ZM251.119 209L223 204.641L228.465 178L246.647 183.716C247.442 188.075 250.224 191.853 254 193.984L251.119 209ZM253 179C253 174.566 256.566 171 261 171C265.434 171 269 174.566 269 179C269 183.434 265.434 187 261 187C256.663 187 253 183.434 253 179ZM246.505 176L240 173.934L244.951 164L250 170C248.447 171.574 247.184 173.639 246.505 176ZM263.778 165.581L262 151.266L283.531 148L286 163.275L271.877 170C269.704 167.79 266.84 166.157 263.778 165.581ZM285 127.078L293.3 126L299 155.787L290.1 160L285 127.078ZM281 127.556L271.387 129L270 118.083L279.336 117L281 127.556ZM259.528 116L257 94H276.098L279 113.632L259.528 116ZM280 94L305 101.145L301.777 110L281.66 104.868L280 94ZM278.767 93.6877L276 76L310 88.3518L305.157 101L278.767 93.6877ZM286 73.5822L289.47 63L302 66.6986L297.566 78L286 73.5822ZM290 62.343L293.168 53.3488L310 49L302.97 66L290 62.343ZM287.589 51L285 22.3043L293.918 21L299 47.99L287.589 51ZM268.956 22L267 7.97531L279.662 6L281 19.3333L268.956 22ZM265 6.72727L256 8L255 1.90909L264.2 1L265 6.72727ZM267 1.27273L278.545 0L279 5.18182L267.727 7L267 1.27273ZM238 -2L227.048 -2.27692C226.762 -5.32307 226.19 -11.5077 226 -14L236.571 -13.6308L238 -2ZM170.216 -18L161 -18.4074C161.098 -20.8519 161.294 -26.5556 161.392 -29L171 -28.5926L170.216 -18ZM175.684 -28L192 -18L175 -18.6731L175.684 -28ZM158.713 -18L148 -18.4074C148.67 -21.8704 149.339 -25.537 149.913 -29L159 -28.5926L158.713 -18ZM146 -19L132 -20.619L134.8 -31L148 -28.9048L146 -19ZM125 -19.3043L123.469 -14L115 -14.5217L118.061 -20L125 -19.3043ZM127.34 -19L146 -16.76L145.043 -12L126 -13.4L127.34 -19ZM145 -10.6L143.73 -4L111 -4.9L114.81 -13L145 -10.6ZM148.662 -16L160 -15.5035C159.803 -12.8227 159.408 -5.57447 159.211 -2L146 -2.29787C146.493 -5.17731 147.479 -10.2411 148.662 -16ZM161.784 -16L171 -15.5942L170.02 -2L161 -2.2029L161.784 -16ZM173.982 -15L194.116 -14.1942L195 -1L173 -1.60432L173.982 -15ZM197 -14L204 -13.7293L203.659 -2L197.768 -2.18045L197 -14ZM208.3 -15L222.9 -14.3731L224 -1L208 -1.41791L208.3 -15ZM232.7 -34.1919L235 -15L224 -15.404L224.2 -35L232.7 -34.1919ZM222.808 -15L209 -15.6L209.575 -36L223 -34.6L222.808 -15ZM204.415 -16L195.537 -16.4L185 -23.1L202.171 -37L205 -36.7L204.415 -16ZM182.902 -25L175 -29.8701L175.683 -40L199 -37.6623L182.902 -25ZM171.329 -30L151 -30.9756C151.863 -35.4634 152.63 -39.3659 153.11 -42L172 -40.0488L171.329 -30ZM210 -42.4444L211.19 -51L235 -46.7222L233.81 -40L210 -42.4444ZM151 -42.7185L148.808 -31L125 -35.1481L129.582 -45L151 -42.7185ZM133 -30.56L130.219 -20L119 -21.344L124.178 -32L133 -30.56ZM111 -21.321L100.595 1L97.1591 0.0123444L90 -31L111 -21.321ZM98 2.61404L92.9409 13L77 8.41521L77.9545 -3L98 2.61404ZM92 17.5497L87.3728 27L58 20.0367L59.3077 8L92 17.5497ZM54.6098 34L50 32.9931L50.6829 5L57 7.21528L54.6098 34ZM58.2651 22L86 28.3626L81.1342 38L57 33.5088L58.2651 22ZM64 39.6667L57.557 69L49 67.9136L49.906 37L64 39.6667ZM62.4 58L71 62.6309L66 73L60 69.2752L62.4 58ZM58.3827 70.1359L65 74.3696L58.679 88L49 86.2446L49.4938 69L58.3827 70.1359ZM59 114C59 118.434 55.4337 122 51 122C46.5663 122 43 118.434 43 114C43 109.566 46.5663 106 51 106C55.4337 106 59 109.566 59 114ZM65 116.961C65.4 115.686 65.6 114.314 65.6 112.843C65.6 112.647 65.6 112.451 65.6 112.255L94.8 105L100 121.373L90.7 125L65 116.961ZM85 130.231L80.374 153L78.3071 152.609L60 124.954C60.7874 124.368 61.5748 123.684 62.2638 123L85 130.231ZM75 153L49 148.423L52.4211 128.655C54.3759 128.461 56.2331 127.876 57.8947 127L75 153ZM43.0408 158L36 156.424L38.7551 138L46 141.547L43.0408 158ZM58.2989 154L71 156.29L60.0575 178L54 177.104L58.2989 154ZM40 201.321L43.7026 179L59 181.183L54.6154 204L40 201.321ZM5 211.882L6.87444 202L27 205.809L25.8161 216L5 211.882ZM4 225.536L5.82583 216L36 222.06L34.0781 231L4 225.536ZM36 231.122L37.9597 222L70 228.486L68.6282 237L36 231.122ZM18.3962 256L18 242.397L26.9151 242L39 253.021C34.2453 253.716 23.1509 255.305 18.3962 256ZM40.7792 253L29 242.548L68 241L66.7132 248.645L40.7792 253ZM84.7251 260L69 257.517L73.5782 231L90 234.675C88.3081 242.521 86.4171 251.558 84.7251 260ZM117 247.889L120.5 224L137 226.878L132.7 250L117 247.889ZM138 255.095L139.767 245L150 247.095L148.047 257L138 255.095ZM136 265.4L137.463 257L148 259L146.439 267L136 265.4ZM157.366 268L148 266.645L151.959 247L162 249.032L157.366 268ZM168 247.589L172.015 231L194 235.315L190.846 252L168 247.589ZM193 258.527L197.354 236L217 239.771L212.443 262L193 258.527ZM323 269L307 266.732L307.19 257.85L322.333 257L323 269ZM303 258.842L302.904 267L271 262.6V256L303 258.842ZM269 254.739V262L249 259.034L250.068 253L269 254.739ZM250 251.045L250.679 247.18L303 245L302.806 256L250 251.045ZM322 255.175L307 256L307.191 245.55L321.331 245L322 255.175ZM244 245.779L239.842 267L214 262.412L218.455 241L244 245.779ZM251 243L254.82 223C259.344 223.792 267.286 225.079 270 225.574L268.19 242.307L251 243ZM270 242L272.741 216L283.804 217.962L284 241.509L270 242ZM320.038 224.6L321 240.4L306 241L306.192 222L320.038 224.6ZM305 221.37L304.8 241.183L286.2 242L286 218L305 221.37ZM327 198.432L320.951 221L307 218.568L313.732 196L327 198.432ZM305.317 217L275 211.784L312 195L305.317 217ZM305 194.931L277.436 208L269 193.624C270.864 192.418 272.433 190.91 273.708 189L305 194.931ZM321 190L276 181.721C276.098 181.234 276.098 180.747 276.098 180.26L318.457 175L321 190ZM317 170.752L275.097 176C275.097 175.901 275 175.802 275 175.703L314.472 156L317 170.752ZM328 142.6L299.583 157L297 142.804L325.417 133L328 142.6ZM325 130.621C319.309 132.575 302.042 138.437 297.508 140L295 126.517L322.878 123L325 130.621ZM284.436 124L282 108L301 112.683L297.297 122.341L284.436 124ZM300 123L307.203 103L317 107.67L312.294 121.274L300 123ZM326 110.129L323.223 118.839L314 120L318.463 108L326 110.129ZM331 94.6995L326.747 108L318.241 105.537L307 100.611L311.962 88L331 94.6995ZM335 76.9808L330.048 89L323 86.4038L327.286 74L335 76.9808ZM323 73.044L318.563 85L299 78.3681L303.639 68L323 73.044ZM330 55.498L324.153 72L305 66.7628L312.762 48.581L318.81 47C322.137 50.1621 325.968 52.9289 330 55.498ZM325.253 32L331 41.3739L321.162 43C319.214 41.1826 317.461 39.3652 316 37.4522L325.253 32ZM310.325 37.5109C311.717 39.5652 313.309 41.5217 315 43.4783L301.272 47L296 20.9783L303.361 20C305.052 26.75 307.241 32.8152 310.325 37.5109ZM304 17.4266L285.675 20L283 -7.61433L300.929 -9C301.325 0.303757 302.316 9.31058 304 17.4266ZM321.929 4.82707L305.486 6C304.495 -2.11278 304.099 -10.9098 304 -19.5113L325 -20L321.929 4.82707ZM300 -10.3913L281.523 -9L280 -25L299.898 -24.205C299.797 -19.6335 299.898 -15.0621 300 -10.3913ZM326 -30.1711L325.234 -24.1842L317 -24L317.957 -31C319.681 -30.8158 323.606 -30.4474 326 -30.1711ZM314.083 -24.2903L304 -24C304 -27.0968 304.092 -30.0968 304.183 -33L315 -31.8387L314.083 -24.2903ZM330 -64.7114L326.129 -32L318 -32.9913L322.065 -66L330 -64.7114ZM320 -65.1731L318.931 -57L306 -59.3077C306.292 -62.4808 306.583 -65.1731 306.778 -67L320 -65.1731ZM284 -52.6564L287.15 -70L303 -67.759C302.606 -64.2513 301.917 -58.4051 301.326 -51L284 -52.6564ZM287.796 -50.6129L291 -40.2581L281 -39L283.233 -51L287.796 -50.6129ZM279 -51L275.97 -35L240 -39.024L240.782 -43.2395L279 -51ZM260.327 -62L263 -49.3933L242 -45L244.768 -59.8989L260.327 -62ZM189.4 -65L237 -58.3121L235.4 -50L188 -57.9299L189.4 -65ZM188.802 -56L209 -52.3902L207.862 -44L187 -46.1463L188.802 -56ZM122 -45.3308L112.144 -25L81 -38.782L82.0841 -51L122 -45.3308ZM79 -51.7066L76.2368 -19L66.6645 -19.5983L64 -54L79 -51.7066ZM63 -20L51 -20.6774L51.1875 -29H62.25L63 -20ZM62.2931 -53.7265L64 -31H53L53.6638 -55L62.2931 -53.7265ZM15 -41.7476L17.4664 -60L37 -57.2816L34.5336 -40L15 -41.7476ZM39.4457 -58L46 -56.973L45.5109 -39L37 -39.8216L39.4457 -58ZM15 -33.1429L15.8696 -40L35 -38.0714L34.1304 -31L15 -33.1429ZM35 -30.9211L35.9184 -37L45 -36.2632L44.7959 -30L35 -30.9211ZM13 -21.4318L13.9569 -29L33 -26.9545L32.6172 -20L13 -21.4318ZM35.6121 -28L45 -27.0034L44.2414 0.202751L34 1L35.6121 -28ZM12.2134 -20L33 -18.5823L31.795 2.27848L9 4L12.2134 -20ZM51 1.7561L51.4615 -16L63 -15.3171L58.3846 4L51 1.7561ZM63.7194 -7L75 -4.83099L73.9928 7L61 3.25352L63.7194 -7ZM44 5L43.2453 33.7919L36.3585 35L34 5.80537L44 5ZM31.5 6L34 34.2581L23.3 36L20 6.87096L31.5 6ZM3 7.07976L16.9006 6L20 35.9387L8.07182 38L3 7.07976ZM31.3154 39.0488L44 37L42.9933 73C39.7718 72.2195 34.8389 70.9512 29 69.0976L31.3154 39.0488ZM5 80.0651L10.0696 67C12.0783 67.8521 13.9913 68.6095 16 69.2722L12.7478 83L5 80.0651ZM19.4601 70C29.2471 73.5 37.6502 75.8 42 76.8L41.8023 85.5L27.4677 94L16 85.2L19.4601 70ZM12 99.3924L14.8824 88L26 95.7848L22.8088 103L12 99.3924ZM25 103.814L28.0299 97L39 104.788C38.2687 105.761 37.7463 106.832 37.3284 108L25 103.814ZM25 108L36.2066 112.155C36.2066 112.459 36.2066 112.764 36.2066 113.169C36.2066 114.892 36.5041 116.514 37 118.034L26.9835 123L25 108ZM8 113L23.814 114.725L25 123.06L12.5465 129L8 113ZM28 129.36L40.9764 123C43.1557 125.186 45.9292 126.677 49 127.174L47.0189 139L28 129.36ZM3 142.549L10.4679 139L14 151.028L6.22936 153L3 142.549ZM12.6364 170.934L8 154.939L14.9091 153L20 172L12.6364 170.934ZM23.8197 172.926L14 137.372L24.5751 132L36 138.056L30.9957 174L23.8197 172.926ZM0 173L20 175.656L18.6341 185L3.02439 182.802L0 173ZM6.78146 195.026L4 186L19 188.162L17.7086 197L6.78146 195.026Z" fill="white"/>
</g>
<path fill-rule="evenodd" clip-rule="evenodd" d="M163.85 119.612C163.85 119.612 167.781 123.446 167.464 132.456L185.921 145.736L144.556 173.898L123.597 136.606L163.85 119.612Z" fill="#F2CBA8"/>
<path fill-rule="evenodd" clip-rule="evenodd" d="M43.236 82.2033L43.2342 82.2047L44.3151 77.1104L45.4659 78.9693L74.121 59.8534C76.9148 57.9903 80.5235 57.8727 83.4324 59.5526L170.036 109.68C170.6 110.007 171.066 110.421 171.432 110.892L171.415 109.917L173.524 108.714L172.373 114.633L172.372 114.632C172.169 115.87 171.484 117.044 170.306 117.834L136.686 140.384C134.004 142.183 130.512 142.22 127.793 140.477L45.5322 87.7795C43.5539 86.5121 42.7849 84.2451 43.236 82.2033Z" fill="#58585B"/>
<path d="M132.376 83.4305L118.349 72.8596L118.41 72.5363L118.459 72.3077L118.561 71.8808L118.648 71.5526C118.664 71.4956 118.68 71.4375 118.698 71.3786L118.809 71.0163L118.937 70.642C119.255 69.7611 119.713 68.8514 120.335 68.4011C122.375 66.9201 128.328 67.6829 130.031 72.1697L130.124 72.4214L130.305 72.9374C130.334 73.0247 130.363 73.1126 130.392 73.2011L130.56 73.738L130.719 74.2855L130.871 74.8408L131.014 75.401L131.149 75.9634L131.276 76.5254L131.396 77.084L131.561 77.9098L131.662 78.4482L131.842 79.4833L131.922 79.9745L132.028 80.6707L132.146 81.5085L132.32 82.9081L132.376 83.4305Z" fill="#F2CBA8"/>
<path d="M134.169 141.506C134.169 141.506 165.907 132.223 166.001 123.181L165.093 121.33L134.169 141.506Z" fill="#E79E5C"/>
<path fill-rule="evenodd" clip-rule="evenodd" d="M168.44 105.445L168.126 112.212L164.353 108.398L168.44 105.445Z" fill="#A3A3A3"/>
<path d="M104.313 68.0907C104.313 68.0907 104.537 54.5875 106.535 53.3429C108.534 52.0964 114.678 53.0206 115.942 59.8595C117.206 66.6984 116.515 75.1354 116.515 75.1354L104.313 68.0907Z" fill="#F2CBA8"/>
<path fill-rule="evenodd" clip-rule="evenodd" d="M46.6539 72.7877L75.3241 53.6618C78.1179 51.7986 81.7267 51.6811 84.6356 53.361L171.239 103.489C174.318 105.27 174.462 109.661 171.509 111.642L137.889 134.192C135.207 135.991 131.715 136.028 128.997 134.285L46.7353 81.5879C43.542 79.542 43.4996 74.8914 46.6539 72.7877Z" fill="#939597"/>
<path fill-rule="evenodd" clip-rule="evenodd" d="M48.9421 74.6449C46.9981 76.0559 47.0839 78.979 49.1059 80.2746L128.454 131.082C130.193 132.197 132.427 132.175 134.145 131.03L169.206 107.641C170.532 106.755 170.474 104.787 169.097 103.984L85.644 55.2455C82.9601 53.6919 79.6263 53.7997 77.0495 55.5156L73.9611 57.5843L72.6461 58.4534L72.6348 58.4644C72.1404 58.9429 71.8799 59.8794 72.0561 60.5452L72.2025 61.1024C72.2832 61.4104 72.1618 61.7363 71.9044 61.9124L62.3482 68.336C62.0482 68.5426 61.6873 68.6436 61.3178 68.6369L58.356 68.592C57.7801 68.5829 57.2148 68.7501 56.7371 69.0698L55.2758 70.047L48.9421 74.6449Z" fill="white"/>
<mask id="mask2_5570_165344" style="mask-type:alpha" maskUnits="userSpaceOnUse" x="47" y="54" width="124" height="78">
<path fill-rule="evenodd" clip-rule="evenodd" d="M48.9421 74.6449C46.9981 76.0559 47.0839 78.979 49.1059 80.2746L128.454 131.082C130.193 132.197 132.427 132.175 134.145 131.03L169.206 107.641C170.532 106.755 170.474 104.787 169.097 103.984L85.644 55.2455C82.9601 53.6919 79.6263 53.7997 77.0495 55.5156L73.9611 57.5843L72.6461 58.4534L72.6348 58.4644C72.1404 58.9429 71.8799 59.8794 72.0561 60.5452L72.2025 61.1024C72.2832 61.4104 72.1618 61.7363 71.9044 61.9124L62.3482 68.336C62.0482 68.5426 61.6873 68.6436 61.3178 68.6369L58.356 68.592C57.7801 68.5829 57.2148 68.7501 56.7371 69.0698L55.2758 70.047L48.9421 74.6449Z" fill="white"/>
</mask>
<g mask="url(#mask2_5570_165344)">
</g>
<path d="M134.003 81.8634C134.003 81.8634 137.198 76.5189 139.818 76.6063C142.436 76.6945 147.37 78.6733 146.986 84.0805C146.798 86.7414 145.571 88.8469 143.342 89.2899C142.387 89.479 138.353 88.9415 136.859 86.2784C135.216 83.3502 135.79 82.8953 135.79 82.8953L134.003 81.8634Z" fill="#F2CBA8"/>
<path d="M87.1284 114.422C89.0534 116.651 91.4779 114.822 100.34 115.417C112.667 116.244 125.98 130.809 130.054 135.682C132.827 138.996 137.261 146.489 137.261 146.489L154.623 163.971L144.556 173.898C144.556 173.898 126.069 160.945 116.103 155.791C106.137 150.638 94.227 146.536 86.7377 140.461C83.1845 137.578 77.7279 131.49 75.2601 128.148C72.7914 124.807 64.9574 109.043 62.5917 106.618C58.0455 101.956 52.9479 97.5437 53.6632 95.8236C54.3786 94.1035 60.7616 90.5726 68.0259 95.2272C73.8455 98.9551 77.2661 102.997 87.1284 114.422Z" fill="#F2CBA8"/>
<path fill-rule="evenodd" clip-rule="evenodd" d="M144.523 191.041L133.851 173.952C132.394 171.621 132.946 168.565 135.125 166.888L175.905 135.513C177.988 133.911 180.928 134.062 182.836 135.868L214.935 166.888L144.523 191.041Z" fill="#014F43"/>
<path d="M75.0469 100.912C75.0469 100.912 84.8989 114.607 86.067 114.949C87.2354 115.29 89.333 115.526 89.333 115.526L75.0469 100.912Z" fill="#E79E5C"/>
<path d="M173.88 137.072L130.403 164.363L134.734 167.219L173.88 137.072Z" fill="#E79E5C"/>
<ellipse cx="290.887" cy="89.6055" rx="11.1549" ry="4.39437" fill="#40C07A"/>
<path fill-rule="evenodd" clip-rule="evenodd" d="M308.69 57.0711C307.19 52.2223 303.245 48.2767 298.396 46.7761C293.264 45.1864 287.803 46.0699 283.635 49.1409C279.498 52.1906 277.028 57.076 277.028 62.2089C277.028 65.7499 278.149 69.1141 280.267 71.9371L290.721 85.3424L290.888 89.2819L290.907 89.7302L291.332 89.5883L293.361 88.9122L293.678 88.8064L293.575 88.4877L293.505 88.2709L306.243 71.9358C309.414 67.7086 310.306 62.2906 308.69 57.0711ZM291.437 86.2597L292.646 87.8108L292.829 88.3767L291.544 88.805L291.437 86.2597ZM293.255 70.946C288.438 70.946 284.518 67.026 284.518 62.2088C284.518 57.3916 288.438 53.4716 293.255 53.4716C298.073 53.4716 301.993 57.3916 301.993 62.2088C301.993 67.026 298.073 70.946 293.255 70.946Z" fill="#00883E"/>
<path fill-rule="evenodd" clip-rule="evenodd" d="M296.368 47.4521C301.217 48.9527 305.161 52.8984 306.662 57.7472C308.278 62.9666 307.386 68.3846 304.215 72.6119L291.227 89.2676L278.239 72.6131C276.12 69.7901 275 66.4259 275 62.8849C275 57.752 277.47 52.8666 281.607 49.8169C285.775 46.746 291.235 45.8624 296.368 47.4521ZM282.489 62.8848C282.489 67.702 286.41 71.622 291.227 71.622C296.044 71.622 299.965 67.702 299.965 62.8848C299.965 58.0677 296.044 54.1477 291.227 54.1477C286.41 54.1477 282.489 58.0677 282.489 62.8848Z" fill="#00AB4E"/>
<ellipse cx="104.5" cy="88.5" rx="16.5" ry="6.5" fill="#EEEEEF"/>
<path fill-rule="evenodd" clip-rule="evenodd" d="M130.833 40.376C128.613 33.2039 122.779 27.3676 115.606 25.148C108.015 22.7966 99.9378 24.1035 93.7727 28.6459C87.6531 33.1569 84 40.3832 84 47.9757C84 53.2134 85.657 58.1895 88.7908 62.3653L104.254 82.194L104.5 88.0211L104.528 88.6842L105.158 88.4743L108.158 87.4743L108.628 87.3177L108.476 86.8464L108.372 86.5257L127.214 62.3634C131.904 56.1107 133.224 48.0965 130.833 40.376ZM105.313 83.5509L107.102 85.8452L107.372 86.6823L105.472 87.3158L105.313 83.5509ZM108.002 60.8993C100.877 60.8993 95.0781 55.1009 95.0781 47.9755C95.0781 40.8501 100.877 35.0518 108.002 35.0518C115.128 35.0518 120.927 40.8501 120.927 47.9755C120.927 55.1009 115.128 60.8993 108.002 60.8993Z" fill="#00883E"/>
<path fill-rule="evenodd" clip-rule="evenodd" d="M112.606 26.148C119.779 28.3676 125.613 34.2039 127.833 41.376C130.224 49.0965 128.904 57.1107 124.214 63.3634L105.002 88L85.7908 63.3653C82.657 59.1895 81 54.2134 81 48.9757C81 41.3832 84.6531 34.1569 90.7727 29.6459C96.9378 25.1035 105.015 23.7966 112.606 26.148ZM92.0781 48.9755C92.0781 56.1009 97.8767 61.8993 105.002 61.8993C112.128 61.8993 117.927 56.1009 117.927 48.9755C117.927 41.8501 112.128 36.0518 105.002 36.0518C97.8767 36.0518 92.0781 41.8501 92.0781 48.9755Z" fill="#00AB4E"/>
<path d="M291.5 87C291.5 87 252.5 55.5 193 55.5C133.5 55.5 106 87 106 87" stroke="#00AB4E" stroke-width="3" stroke-linecap="round" stroke-dasharray="9"/>
</g>
</svg>
