<svg width="92" height="110" viewBox="0 0 92 110" fill="none" xmlns="http://www.w3.org/2000/svg">
<path fill-rule="evenodd" clip-rule="evenodd" d="M77 40.5C77 60.6588 60.6582 77 40.5 77C20.3418 77 4 60.6588 4 40.5C4 20.3412 20.3418 4 40.5 4C60.6582 4 77 20.3412 77 40.5Z" fill="#EBFFE0"/>
<mask id="mask0_5567_159494" style="mask-type:alpha" maskUnits="userSpaceOnUse" x="66" y="32" width="3" height="10">
<path fill-rule="evenodd" clip-rule="evenodd" d="M68.052 33.3011L68.104 40.5233C68.1075 40.8471 67.8461 41.1138 67.5205 41.1155L66.4865 41.1234L66.424 32.7247L67.458 32.7168C67.4598 32.7168 67.4607 32.7168 67.4624 32.7168C67.7863 32.7168 68.0485 32.9782 68.052 33.3011Z" fill="white"/>
</mask>
<g mask="url(#mask0_5567_159494)">
<path fill-rule="evenodd" clip-rule="evenodd" d="M71.7314 44.7499H62.7986V29.0903H71.7314V44.7499Z" fill="#1868AB"/>
</g>
<mask id="mask1_5567_159494" style="mask-type:alpha" maskUnits="userSpaceOnUse" x="16" y="15" width="52" height="94">
<path fill-rule="evenodd" clip-rule="evenodd" d="M17.3556 24.2003L16.7449 99.4878C16.7071 104.227 20.5157 108.101 25.2545 108.142L57.7643 108.423H57.9113C62.5867 108.386 66.3839 104.602 66.4227 99.9094L67.0334 24.6315C67.0624 19.8962 63.8381 16.0278 59.8341 15.9943L24.6614 15.689C24.6438 15.689 24.6253 15.689 24.6077 15.689C20.6275 15.689 17.3847 19.4879 17.3556 24.2003Z" fill="white"/>
</mask>
<g mask="url(#mask1_5567_159494)">
<path fill-rule="evenodd" clip-rule="evenodd" d="M70.625 62.2997L70.6596 11.4009H13.0495C13.0495 11.4009 7.91765 57.0161 12.0669 62.8173C16.2161 68.6184 28.3663 77.0396 41.1536 77.0396C53.947 77.0396 63.1447 71.4041 70.625 62.2997Z" fill="#5297D1"/>
</g>
<mask id="mask2_5567_159494" style="mask-type:alpha" maskUnits="userSpaceOnUse" x="19" y="19" width="45" height="59">
<path fill-rule="evenodd" clip-rule="evenodd" d="M19.9348 70.1425C24.6634 73.647 30.9119 77.0396 41.1534 77.1076C51.3949 77.1756 58.591 73.647 63.3311 69.5745V43.9893L63.8758 25.5501C63.8969 22.2651 61.792 19.5819 59.1775 19.5591L53.5191 19.5098C52.794 19.5027 52.1577 19.3927 51.9773 20.2763L51.7767 21.2583C51.5963 22.1419 50.9601 22.757 50.2358 22.7508L34.1459 22.6091C33.4208 22.603 32.7925 21.9764 32.6226 21.0911L32.4334 20.1047C32.2812 19.3047 31.7549 19.3083 31.1205 19.3109C31.0527 19.3109 30.9823 19.3109 30.9119 19.3109L25.2544 19.2607C25.2429 19.2607 25.2324 19.2607 25.2218 19.2607C22.6197 19.2607 20.5006 21.8972 20.4804 25.1699L19.9348 70.1425Z" fill="white"/>
</mask>
<g mask="url(#mask2_5567_159494)">
<path fill-rule="evenodd" clip-rule="evenodd" d="M68.1637 66.1757L67.5034 14.041H16.2583C16.2583 14.041 12.425 59.721 15.505 66.6766C18.585 73.6322 31.4432 77.1077 42.0437 77.1077C53.7867 76.5574 63.6062 71.8898 68.1637 66.1757Z" fill="white"/>
</g>
<mask id="mask3_5567_159494" style="mask-type:alpha" maskUnits="userSpaceOnUse" x="15" y="32" width="3" height="10">
<path fill-rule="evenodd" clip-rule="evenodd" d="M15.6281 33.3011L15.5762 40.5233C15.5727 40.8471 15.834 41.1138 16.1596 41.1155L17.1936 41.1234L17.2561 32.7247L16.2221 32.7168C16.2204 32.7168 16.2195 32.7168 16.2177 32.7168C15.8939 32.7168 15.6316 32.9782 15.6281 33.3011Z" fill="white"/>
</mask>
<g mask="url(#mask3_5567_159494)">
<path fill-rule="evenodd" clip-rule="evenodd" d="M11.9487 44.7499H20.8816V29.0903H11.9487V44.7499Z" fill="#1868AB"/>
</g>
<mask id="mask4_5567_159494" style="mask-type:alpha" maskUnits="userSpaceOnUse" x="15" y="42" width="3" height="9">
<path fill-rule="evenodd" clip-rule="evenodd" d="M15.5568 43.079L15.5049 50.3021C15.5014 50.6268 15.7628 50.8926 16.0875 50.8952L17.1224 50.9031L17.184 42.5035L16.1491 42.4956C16.1482 42.4956 16.1464 42.4956 16.1447 42.4956C15.8226 42.4956 15.5595 42.7561 15.5568 43.079Z" fill="white"/>
</mask>
<g mask="url(#mask4_5567_159494)">
<path fill-rule="evenodd" clip-rule="evenodd" d="M11.8774 54.5287H20.8094V38.8691H11.8774V54.5287Z" fill="#1868AB"/>
</g>
<mask id="mask5_5567_159494" style="mask-type:alpha" maskUnits="userSpaceOnUse" x="36" y="18" width="9" height="3">
<path fill-rule="evenodd" clip-rule="evenodd" d="M36.6513 19.4934L36.6504 19.6421C36.646 20.0575 36.9831 20.3989 37.3984 20.4016L44.2404 20.4526C44.6567 20.4553 44.9964 20.1191 44.9999 19.7029V19.5541C45.0052 19.137 44.669 18.7973 44.2519 18.7938L37.4116 18.7437C37.4099 18.7437 37.4081 18.7437 37.4072 18.7437C36.9928 18.7437 36.654 19.0781 36.6513 19.4934Z" fill="white"/>
</mask>
<g mask="url(#mask5_5567_159494)">
<path fill-rule="evenodd" clip-rule="evenodd" d="M33.0229 24.0791H48.6271V15.1172H33.0229V24.0791Z" fill="#1868AB"/>
</g>
<mask id="mask6_5567_159494" style="mask-type:alpha" maskUnits="userSpaceOnUse" x="46" y="18" width="3" height="3">
<path fill-rule="evenodd" clip-rule="evenodd" d="M46.6602 19.5566C46.6549 20.1436 47.1292 20.6249 47.7171 20.6293C48.3067 20.6337 48.7863 20.1594 48.7916 19.5707C48.7951 18.982 48.3216 18.5006 47.7329 18.4971C47.7303 18.4971 47.7276 18.4971 47.7241 18.4971C47.1389 18.4971 46.6628 18.9688 46.6602 19.5566Z" fill="white"/>
</mask>
<g mask="url(#mask6_5567_159494)">
<path fill-rule="evenodd" clip-rule="evenodd" d="M43.0327 24.2558H52.417V14.8706H43.0327V24.2558Z" fill="#1868AB"/>
</g>
<path fill-rule="evenodd" clip-rule="evenodd" d="M61.4822 33C60.9847 32.9988 60.7623 32.6037 60.6175 32.1976C59.9648 30.3651 58.656 29.2296 56.9336 28.4017C55.689 27.8026 55.689 27.2684 56.9324 26.6694C58.6531 25.8409 59.8919 24.677 60.6384 22.8833C61.1243 21.7165 61.722 21.7055 62.2884 22.8514C63.1779 24.6527 64.3785 26.0112 66.2908 26.7563C67.0791 27.0628 67.3333 27.8443 66.4113 28.225C64.3716 29.0679 63.0465 30.5111 62.1517 32.4693C61.9305 32.9537 61.7503 32.9762 61.4822 33Z" fill="#FFC54F"/>
<path fill-rule="evenodd" clip-rule="evenodd" d="M22.09 68C21.3469 67.9001 21.1488 67.3819 20.9544 66.9127C20.3875 65.548 19.5084 64.5499 18.0525 63.9808C16.7526 63.4733 16.5709 62.7151 17.9931 62.0551C19.3496 61.4262 20.3601 60.5191 20.9507 59.1348C21.5441 57.7406 22.3246 57.5346 23.0348 59.0598C23.6674 60.4156 24.7317 61.3013 26.0198 62.0006C27.2302 62.658 27.4228 63.3386 26.0115 63.9835C24.6386 64.6105 23.7075 65.6443 23.0539 66.951C22.8221 67.4131 22.6048 67.8974 22.09 68Z" fill="#FFD37B"/>
<path fill-rule="evenodd" clip-rule="evenodd" d="M28.0742 41.6647C27.3912 41.7679 26.9152 42.4396 27.0126 43.1647L27.3912 45.9945C27.4335 46.3051 27.6824 46.5378 27.9779 46.5358C29.8218 46.5228 31.437 47.9602 31.7032 49.953C31.9697 51.9456 30.7952 53.8035 29.0216 54.3372C28.7368 54.4226 28.5585 54.719 28.6 55.0296L28.9788 57.8602C29.076 58.5855 29.7085 59.0893 30.392 58.9868L54.9204 55.3455C55.6043 55.2461 56.0815 54.5768 55.9884 53.8507L55.6211 51.0189C55.5815 50.7083 55.3327 50.4753 55.0374 50.4762C53.1934 50.4783 51.5845 49.0345 51.3258 47.0403C51.0679 45.0461 52.2501 43.1939 54.0266 42.6691C54.3113 42.5846 54.4911 42.2889 54.4509 41.9783L54.0838 39.1466C53.9907 38.4204 53.3596 37.9129 52.676 38.0125" fill="#00AB4E"/>
<path d="M33.375 41.3696L35.625 57.6304" stroke="#FFF9ED" stroke-width="1.03847" stroke-linecap="round" stroke-linejoin="round" stroke-dasharray="2.32 2.78"/>
<path d="M44.0852 49.5712C44.0852 48.8144 44.2832 48.2116 44.6792 47.7628C45.0752 47.314 45.6252 47.0896 46.3292 47.0896C47.042 47.0896 47.5876 47.3096 47.966 47.7496C48.3444 48.1896 48.5336 48.8012 48.5336 49.5844C48.5336 50.3588 48.3444 50.9616 47.966 51.3928C47.5876 51.8152 47.0508 52.0264 46.3556 52.0264C45.6604 52.0264 45.106 51.8064 44.6924 51.3664C44.2876 50.9176 44.0852 50.3192 44.0852 49.5712ZM46.3028 50.4424C46.8396 50.4424 47.108 50.1432 47.108 49.5448C47.108 49.228 47.042 49.0036 46.91 48.8716C46.7868 48.7396 46.5844 48.6736 46.3028 48.6736C46.03 48.6736 45.832 48.744 45.7088 48.8848C45.5856 49.0168 45.524 49.2412 45.524 49.558C45.524 49.8748 45.5856 50.1036 45.7088 50.2444C45.8408 50.3764 46.0388 50.4424 46.3028 50.4424ZM38.528 44.7664C38.528 44.0096 38.726 43.4068 39.122 42.958C39.518 42.5092 40.068 42.2848 40.772 42.2848C41.476 42.2848 42.0172 42.5048 42.3956 42.9448C42.7828 43.3848 42.9764 43.992 42.9764 44.7664C42.9764 45.5408 42.7828 46.1436 42.3956 46.5748C42.0172 46.9972 41.4804 47.2084 40.7852 47.2084C40.0988 47.2084 39.5488 46.9884 39.1352 46.5484C38.7304 46.1084 38.528 45.5144 38.528 44.7664ZM40.7456 45.6244C41.2736 45.6244 41.5376 45.3296 41.5376 44.74C41.5376 44.4232 41.476 44.1988 41.3528 44.0668C41.2296 43.9348 41.0272 43.8688 40.7456 43.8688C40.4728 43.8688 40.2704 43.9392 40.1384 44.08C40.0152 44.212 39.9536 44.4364 39.9536 44.7532C39.9536 45.0612 40.0196 45.2856 40.1516 45.4264C40.2836 45.5584 40.4816 45.6244 40.7456 45.6244ZM45.6164 41.9548C45.7308 41.7524 45.8408 41.6512 45.9464 41.6512C46.0608 41.6512 46.2236 41.7084 46.4348 41.8228C46.646 41.9372 46.7516 42.0604 46.7516 42.1924C46.7516 42.254 46.7208 42.3376 46.6592 42.4432L41.5508 52.0924L41.5244 52.132C41.4276 52.308 41.3264 52.396 41.2208 52.396C41.1152 52.396 40.9568 52.3388 40.7456 52.2244C40.5344 52.1188 40.4288 52.0132 40.4288 51.9076C40.4288 51.802 40.4596 51.6964 40.5212 51.5908L45.6164 41.9548Z" fill="white"/>
<circle cx="12" cy="13" r="11" fill="#28D677"/>
<path d="M11.6508 6.5424C12.9136 6.5424 13.9095 6.90173 14.6384 7.6204C15.3673 8.33907 15.7318 9.15013 15.7318 10.0536C15.7318 10.9468 15.3314 11.5936 14.5306 11.994V12.1018C14.6333 12.1531 14.7821 12.2661 14.9772 12.4406C15.1825 12.6049 15.3468 12.7691 15.47 12.9334C15.8088 13.3646 15.9782 13.8574 15.9782 14.4118C15.9782 15.5103 15.5675 16.4189 14.7462 17.1376C13.9249 17.846 12.8931 18.2002 11.6508 18.2002C10.4188 18.2002 9.39213 17.8409 8.5708 17.1222C8.2628 16.845 7.99073 16.4805 7.7546 16.0288C7.67247 15.8645 7.616 15.7311 7.5852 15.6284L7.5544 15.4744C7.44147 15.1356 7.385 14.8584 7.385 14.6428C7.385 14.0473 7.88807 13.7496 8.8942 13.7496C9.30487 13.7496 9.57693 13.8009 9.7104 13.9036C9.88493 14.0371 10.0389 14.304 10.1724 14.7044C10.2751 15.0329 10.5574 15.2793 11.0194 15.4436C11.2145 15.5052 11.4301 15.536 11.6662 15.536C12.2103 15.536 12.6107 15.4282 12.8674 15.2126C13.1241 14.9867 13.2524 14.7352 13.2524 14.458C13.2524 14.1808 13.1241 13.9395 12.8674 13.7342C12.621 13.5186 12.3233 13.4108 11.9742 13.4108C11.6354 13.4108 11.4044 13.4005 11.2812 13.38C11.158 13.3595 11.0245 13.3081 10.8808 13.226C10.6036 13.0925 10.465 12.6973 10.465 12.0402C10.465 11.3215 10.6549 10.8955 11.0348 10.762C11.2093 10.7107 11.4763 10.685 11.8356 10.685C12.6159 10.685 13.006 10.4848 13.006 10.0844C13.006 9.8688 12.9033 9.66347 12.698 9.4684C12.4927 9.27333 12.2052 9.1758 11.8356 9.1758C11.4763 9.1758 11.1888 9.2374 10.9732 9.3606C10.7576 9.4838 10.6241 9.607 10.5728 9.7302L10.4804 9.915C10.2443 10.4283 9.90547 10.685 9.464 10.685C9.20733 10.685 8.925 10.5926 8.617 10.4078C8.10367 10.1101 7.847 9.76613 7.847 9.376C7.847 9.21173 7.96507 8.86267 8.2012 8.3288C8.24227 8.2364 8.3552 8.07727 8.54 7.8514C8.7248 7.61527 8.93527 7.40993 9.1714 7.2354C9.4178 7.06087 9.7566 6.90173 10.1878 6.758C10.6293 6.61427 11.1169 6.5424 11.6508 6.5424Z" fill="white"/>
</svg>
