<svg width="328" height="164" viewBox="0 0 328 164" fill="none" xmlns="http://www.w3.org/2000/svg">
<path d="M23.2189 161.504C33.6809 163.667 265.053 165.826 301.876 161.504C312.777 160.224 321.503 148.276 322.776 146.203C330.736 133.238 327.751 53.2794 325.761 26.266C324.69 11.7278 309.838 5.19571 302.871 3.03482C289.548 -1.09779 53.2799 -1.26366 22.2229 4.11573C8.32787 6.52168 3.29087 17.8712 2.29087 24.1796C-0.0421274 38.8847 -1.42113 129.331 2.31887 141.514C5.30487 151.239 12.7689 159.343 23.2189 161.504Z" fill="#E6F6ED"/>
<mask id="mask0_5567_157082" style="mask-type:alpha" maskUnits="userSpaceOnUse" x="0" y="0" width="328" height="164">
<path fill-rule="evenodd" clip-rule="evenodd" d="M23.2189 161.504C33.6809 163.667 265.053 165.826 301.876 161.504C312.777 160.224 321.503 148.276 322.776 146.203C330.736 133.238 327.751 53.2794 325.761 26.266C324.69 11.7278 309.838 5.19571 302.871 3.03482C289.548 -1.09779 53.2799 -1.26366 22.2229 4.11573C8.32787 6.52168 3.29087 17.8712 2.29087 24.1796C-0.0421274 38.8847 -1.42113 129.331 2.31887 141.514C5.30487 151.239 12.7689 159.343 23.2189 161.504Z" fill="white"/>
</mask>
<g mask="url(#mask0_5567_157082)">
<rect x="-5" y="64" width="63" height="6" fill="#BBF0D3"/>
<path d="M266.962 127.205H360.983V29.1265H266.962V127.205Z" fill="#BBF0D3"/>
<path d="M271.693 122.789H356.258V33.543H271.693V122.789Z" fill="#E8FFFC"/>
<path d="M268.921 47.2579H359.03V41.3296H268.921V47.2579Z" fill="#BBF0D3"/>
<path d="M13.1401 6H21.9227V63.9346H13.1401V6Z" fill="#BBF0D3"/>
<path d="M22.1069 64.2147H31.2166V27.5249H22.1069V64.2147Z" fill="#84D7CC"/>
<path d="M40.3228 64.2149H49.4324V17.145H40.3228V64.2149Z" fill="#84D7CC"/>
<path d="M31.0674 13.0532H39.8503V64.1365H31.0674V13.0532Z" fill="#BBF0D3"/>
<path d="M-8.65088 61.7415L-0.0347385 64.2798L13.2323 18.7917L4.61662 16.2539L-8.65088 61.7415Z" fill="#BBF0D3"/>
</g>
<mask id="mask1_5567_157082" style="mask-type:alpha" maskUnits="userSpaceOnUse" x="0" y="0" width="328" height="164">
<path fill-rule="evenodd" clip-rule="evenodd" d="M23.2189 161.504C33.6809 163.667 265.053 165.826 301.876 161.504C312.777 160.224 321.503 148.276 322.776 146.203C330.736 133.238 327.751 53.2794 325.761 26.266C324.69 11.7278 309.838 5.19571 302.871 3.03482C289.548 -1.09779 53.2799 -1.26366 22.2229 4.11573C8.32787 6.52168 3.29087 17.8712 2.29087 24.1796C-0.0421274 38.8847 -1.42113 129.331 2.31887 141.514C5.30487 151.239 12.7689 159.343 23.2189 161.504Z" fill="white"/>
</mask>
<g mask="url(#mask1_5567_157082)">
<mask id="mask2_5567_157082" style="mask-type:alpha" maskUnits="userSpaceOnUse" x="54" y="113" width="76" height="153">
<path fill-rule="evenodd" clip-rule="evenodd" d="M54 113.963H129.58V265.729H54V113.963Z" fill="white"/>
</mask>
<g mask="url(#mask2_5567_157082)">
<path d="M62.3984 113.963C62.3984 113.963 55.3144 132.538 54.0074 164.405C53.6994 171.941 62.4464 190.869 72.3294 207.981C84.1834 228.505 99.0724 247.072 99.0724 247.072L105.36 265.729L129.58 247.637L129.531 235.284C125.341 232.184 124.137 226.38 125.917 217.874C127.697 209.367 122.989 199.069 111.794 186.982L82.3754 140.839L72.5754 117.282L62.3984 113.963Z" fill="#FFDAB8"/>
</g>
<path fill-rule="evenodd" clip-rule="evenodd" d="M229.137 69.0474L151.562 73.5704C148.823 73.7314 146.133 74.3854 143.624 75.5004L59.3635 113.19C56.3175 114.529 54.6205 117.816 55.2925 121.075L69.2155 186.92C70.0685 190.761 73.8725 193.183 77.7135 192.331C78.2965 192.201 78.8605 191.999 79.3925 191.729L162.561 150.21L239.359 147.639C243.033 147.541 245.932 144.483 245.833 140.808C245.826 140.526 245.802 140.244 245.758 139.965L235.484 76.9174C234.949 73.6604 232.476 68.9494 229.137 69.0474Z" fill="#47A99C"/>
<path fill-rule="evenodd" clip-rule="evenodd" d="M229.641 71.7229L153.129 76.0349C150.417 76.1829 147.756 76.8349 145.283 77.9569L62.2582 115.436C59.2452 116.798 57.5832 120.071 58.2622 123.306L72.1852 189.181C72.9952 192.989 76.7392 195.419 80.5462 194.608C81.1342 194.483 81.7042 194.284 82.2422 194.014L164.18 152.727L239.923 150.33C243.564 150.215 246.422 147.17 246.307 143.529C246.298 143.244 246.271 142.96 246.225 142.679L235.92 79.6379C235.385 76.3509 232.943 71.6329 229.641 71.7229Z" fill="#84D7CC"/>
<path d="M156.243 87.5683L221.892 83.5273" stroke="black" stroke-width="1.508" stroke-linecap="round" stroke-linejoin="round"/>
<path d="M148.38 89.2646L160.373 144.353" stroke="#47A99C" stroke-width="1.508" stroke-linecap="round" stroke-linejoin="round"/>
<path fill-rule="evenodd" clip-rule="evenodd" d="M68.417 139.001L76.875 181.373C76.875 181.373 83.357 164.563 68.417 139.001Z" fill="#47A99C"/>
<path fill-rule="evenodd" clip-rule="evenodd" d="M69.5254 139.498C69.8194 140.252 144.649 108.14 144.649 108.14C145.063 122.986 137.088 136.803 124.025 143.871C101.502 156.497 69.5254 139.498 69.5254 139.498Z" fill="#BBF0D3"/>
<path fill-rule="evenodd" clip-rule="evenodd" d="M119.231 134.267C121.021 134.267 122.472 135.719 122.472 137.509C122.472 139.299 121.021 140.75 119.231 140.75C117.441 140.75 115.99 139.299 115.99 137.509C115.99 135.719 117.441 134.267 119.231 134.267Z" fill="#47A99C"/>
<path d="M64.8359 122.357L66.5629 121.596" stroke="#FAFAFA" stroke-width="0.754"/>
<path d="M70.1436 120.012L140.022 89.1211" stroke="#FAFAFA" stroke-width="0.754" stroke-dasharray="3.92 3.92"/>
<path d="M141.815 88.3297L143.534 87.5687" stroke="#FAFAFA" stroke-width="0.754"/>
<path d="M158.444 99.9538L224.093 95.9058" stroke="black" stroke-width="1.508" stroke-linecap="round" stroke-linejoin="round"/>
<path d="M161.399 115.399L227.048 111.351" stroke="#47A99C" stroke-width="1.508" stroke-linecap="round" stroke-linejoin="round"/>
<path fill-rule="evenodd" clip-rule="evenodd" d="M208.8 69.8486C209.209 69.2006 215.656 60.6876 226.237 72.7096C236.817 84.7306 252.557 106.209 252.557 106.209L243.279 112.777C243.279 112.777 231.593 112.016 217.479 103.268C217.479 103.268 204.257 105.545 195.812 100.583C188.155 96.0646 191.567 65.2466 191.567 65.2466L208.8 69.8486Z" fill="#FFB490"/>
<path d="M212.983 88.8643C217.208 91.5053 225.566 97.3003 233.135 96.9013" stroke="#D4823C" stroke-width="0.64" stroke-linecap="round" stroke-linejoin="round"/>
<path d="M207.692 96.1453C208.536 96.1123 210.235 96.2353 211.751 96.2083C213.443 96.1783 215.101 96.6523 216.51 97.5903C220.41 100.186 228.597 104.808 236.929 104.37" stroke="#D4823C" stroke-width="0.64" stroke-linecap="round" stroke-linejoin="round"/>
<path d="M175.262 112.423C175.262 112.423 181.379 109.197 189.786 117.511C198.194 125.824 215.905 148.539 225.858 153.389" stroke="#F4B796" stroke-width="1.28" stroke-linecap="round" stroke-linejoin="round"/>
<path d="M216.513 146.264C216.584 146.33 227.818 147.282 239.762 136.61" stroke="#F4B796" stroke-width="1.28" stroke-linecap="round" stroke-linejoin="round"/>
<path fill-rule="evenodd" clip-rule="evenodd" d="M92.2155 153.367C95.5425 150.907 98.8765 150.67 102.22 152.658C105.592 154.663 106.098 155.153 98.9665 182.152C96.3835 191.933 97.2105 188.951 103.227 195.055C104.131 195.972 105.757 205.811 106.924 206.911C107.275 207.24 106.87 209.699 107.25 210.028C118.327 219.606 106.428 245.385 106.428 245.385C106.428 245.385 73.9445 226.977 77.9425 198.325C77.9425 198.325 78.1275 187.132 83.3095 172.136C84.9185 167.478 87.8875 161.221 92.2155 153.367Z" fill="#FFDAB8"/>
<path d="M100.08 34.312L115.08 41.312" stroke="#84D653" stroke-width="2" stroke-linecap="round"/>
<path d="M183.08 37.312L199.08 30.312" stroke="#84D653" stroke-width="2" stroke-linecap="round"/>
<path d="M162.527 27.5355L167.08 14.3115" stroke="#84D653" stroke-width="2" stroke-linecap="round"/>
<path d="M119.08 17.312L127.08 27.312" stroke="#84D653" stroke-width="2" stroke-linecap="round"/>
<path fill-rule="evenodd" clip-rule="evenodd" d="M184.033 118.559L116.899 90.3792C110.405 87.6542 107.323 80.1111 110.049 73.6181L125.121 37.7081C127.846 31.2151 135.389 28.1321 141.884 30.8581L209.017 59.0371C215.511 61.7631 218.594 69.3061 215.868 75.7991L200.795 111.708C198.069 118.202 190.526 121.285 184.033 118.559Z" fill="#3393E3"/>
<path fill-rule="evenodd" clip-rule="evenodd" d="M183.513 115.305L117.633 87.6518C111.331 85.0068 108.34 77.6868 110.985 71.3848L125.412 37.0128C128.058 30.7108 135.377 27.7198 141.679 30.3648L207.559 58.0178C213.861 60.6628 216.853 67.9828 214.207 74.2838L199.78 108.657C197.135 114.958 189.815 117.95 183.513 115.305Z" fill="#63B5FA"/>
<path fill-rule="evenodd" clip-rule="evenodd" d="M174.531 78.708C173.221 81.795 173.025 85.083 173.762 88.116C173.813 88.345 173.875 88.565 173.946 88.794C175.176 92.959 178.188 96.576 182.5 98.406C186.814 100.236 191.501 99.887 195.349 97.876C195.562 97.767 195.759 97.656 195.965 97.537C198.657 95.959 200.887 93.535 202.198 90.447C205.437 82.812 201.87 73.989 194.235 70.749C186.593 67.506 177.77 71.073 174.531 78.708Z" fill="#1868AB"/>
<path fill-rule="evenodd" clip-rule="evenodd" d="M183.563 80.7357C182.286 83.7457 183.691 87.2217 186.701 88.4987C189.711 89.7767 193.185 88.3707 194.462 85.3607C195.739 82.3527 194.335 78.8777 191.325 77.5997C188.315 76.3227 184.839 77.7277 183.563 80.7357Z" fill="#EDFFF5"/>
<path fill-rule="evenodd" clip-rule="evenodd" d="M174.171 89.4687C175.504 93.3447 178.421 96.6747 182.5 98.4057C186.581 100.137 190.996 99.9177 194.71 98.1837C193.813 93.9997 190.95 90.3017 186.703 88.4997C182.458 86.6987 177.802 87.2067 174.171 89.4687Z" fill="#EDFFF5"/>
<path d="M153.146 44.7666L188.761 59.7166" stroke="#1868AB" stroke-width="3.175" stroke-linecap="round" stroke-linejoin="round"/>
<path d="M128.023 48.5674L168.029 65.3604" stroke="#FFF9ED" stroke-width="3.175" stroke-linecap="round" stroke-linejoin="round"/>
<path d="M124.747 56.3735L140.847 63.1315" stroke="#FFF9ED" stroke-width="2.116" stroke-linecap="round" stroke-linejoin="round"/>
<path d="M145.237 64.9746L161.338 71.7326" stroke="#FFC54F" stroke-width="2.116" stroke-linecap="round" stroke-linejoin="round"/>
<path d="M121.88 63.2041L133.101 67.9141" stroke="#FFC54F" stroke-width="2.116" stroke-linecap="round" stroke-linejoin="round"/>
<path d="M137.979 69.9619L163.349 80.6109" stroke="#FFF9ED" stroke-width="2.116" stroke-linecap="round" stroke-linejoin="round"/>
<path d="M118.319 70.3174L127.101 74.0044" stroke="#FFF9ED" stroke-width="2.116" stroke-linecap="round" stroke-linejoin="round"/>
<path d="M131.005 75.6421L146.617 82.1951" stroke="#FFC54F" stroke-width="2.116" stroke-linecap="round" stroke-linejoin="round"/>
<path fill-rule="evenodd" clip-rule="evenodd" d="M184.813 112L170.799 106.118C169.823 105.708 169.36 104.574 169.769 103.598L171.556 99.342C171.965 98.365 173.1 97.902 174.076 98.312L188.089 104.194C189.066 104.604 189.53 105.738 189.12 106.714L187.334 110.97C186.923 111.946 185.79 112.41 184.813 112Z" fill="#FFD37B"/>
<path d="M266.374 231.455C276.143 229.186 292.69 223.046 296.611 207.143C297.785 202.38 295.848 197.402 291.791 194.642C284.45 189.648 272.651 179.357 273.75 165.341C274.741 152.61 280.053 123.095 280.053 123.095C280.053 123.095 281.057 120.633 281.908 117.273C283.338 111.635 280.837 105.731 275.792 102.838L256.138 91.5627C256.138 91.5627 228.279 64.7947 223.174 56.9077C216.062 45.9217 213.103 46.6527 211.096 47.6837C206.236 50.1777 206.796 55.5677 209.428 59.7797C213.047 65.5727 215.256 68.4147 216.601 71.9837C217.685 74.8597 222.147 82.9097 226.19 87.2487C228.398 89.6187 230.347 92.2127 231.895 95.0587C234.702 100.219 238.833 107.525 240.946 109.878C241.054 109.991 241.149 110.095 241.24 110.187C244.393 113.25 236.188 134.229 229.994 141.701C229.994 141.701 229.86 143.628 226.583 144.596C223.307 145.562 217.998 147.72 216.065 145.834C214.133 143.948 200.085 128.768 200.085 128.768C200.085 128.768 184.904 108.035 175.251 112.4C175.251 112.4 166.034 118.168 177.799 131.059C182.195 135.875 193.055 149.084 196.857 155.671C200.66 162.259 202.992 177.842 206.915 182.614C210.839 187.385 214.127 190.315 222.833 197.097C230.041 202.712 246.611 218.652 255.032 227.933C257.891 231.083 262.229 232.417 266.374 231.455Z" fill="#FFDAB8"/>
</g>
<path d="M143.611 9.23066L142.592 11.0929L140.731 12.1109C140.423 12.2794 140.423 12.7206 140.731 12.8891L142.592 13.9071L143.611 15.7693C143.778 16.0769 144.221 16.0769 144.388 15.7693L145.407 13.9071L147.269 12.8891C147.577 12.7206 147.577 12.2794 147.269 12.1109L145.407 11.0929L144.388 9.23066C144.221 8.92311 143.778 8.92311 143.611 9.23066Z" fill="#FFC54F"/>
<path d="M93.9997 78.2966L92.6897 80.6908L90.2966 81.9997C89.9011 82.2163 89.9011 82.7837 90.2966 83.0003L92.6897 84.3092L93.9997 86.7034C94.2152 87.0989 94.7837 87.0989 94.9991 86.7034L96.3092 84.3092L98.7034 83.0003C99.0989 82.7837 99.0989 82.2163 98.7034 81.9997L96.3092 80.6908L94.9991 78.2966C94.7837 77.9011 94.2152 77.9011 93.9997 78.2966Z" fill="#FFC54F"/>
<path d="M244.611 56.2307L243.592 58.0929L241.731 59.1109C241.423 59.2794 241.423 59.7206 241.731 59.8891L243.592 60.9071L244.611 62.7693C244.778 63.0769 245.221 63.0769 245.388 62.7693L246.407 60.9071L248.269 59.8891C248.577 59.7206 248.577 59.2794 248.269 59.1109L246.407 58.0929L245.388 56.2307C245.221 55.9231 244.778 55.9231 244.611 56.2307Z" fill="#FFD37B"/>
</svg>
