<svg width="329" height="165" viewBox="0 0 329 165" fill="none" xmlns="http://www.w3.org/2000/svg">
<path d="M23.7261 161.836C34.1776 163.994 265.318 166.148 302.104 161.836C312.994 160.56 321.711 148.643 322.983 146.575C330.935 133.643 327.953 53.8904 325.965 26.9465C324.895 12.4456 310.058 5.93039 303.098 3.77506C289.788 -0.346923 53.757 -0.51236 22.7311 4.85319C8.85004 7.25295 3.81809 18.5733 2.81909 24.8655C0.488432 39.5327 -0.889184 129.746 2.84706 141.898C5.83007 151.598 13.2866 159.681 23.7261 161.836Z" fill="#E6F6ED"/>
<mask id="mask0_5567_147164" style="mask-type:alpha" maskUnits="userSpaceOnUse" x="0" y="0" width="329" height="165">
<path fill-rule="evenodd" clip-rule="evenodd" d="M23.7261 161.836C34.1776 163.994 265.318 166.148 302.104 161.836C312.994 160.56 321.711 148.643 322.983 146.575C330.935 133.643 327.953 53.8904 325.965 26.9465C324.895 12.4456 310.058 5.93039 303.098 3.77506C289.788 -0.346923 53.757 -0.51236 22.7311 4.85319C8.85004 7.25295 3.81809 18.5733 2.81909 24.8655C0.488432 39.5327 -0.889184 129.746 2.84706 141.898C5.83007 151.598 13.2866 159.681 23.7261 161.836Z" fill="white"/>
</mask>
<g mask="url(#mask0_5567_147164)">
<path d="M404.125 175.298C404.125 228.181 296.558 271.051 163.866 271.051C31.175 271.051 -76.3923 228.181 -76.3923 175.298C-76.3923 122.415 31.175 79.5449 163.866 79.5449C296.558 79.5449 404.125 122.415 404.125 175.298Z" fill="#BBF0D3"/>
</g>
<mask id="mask1_5567_147164" style="mask-type:alpha" maskUnits="userSpaceOnUse" x="0" y="0" width="329" height="165">
<path fill-rule="evenodd" clip-rule="evenodd" d="M23.7261 161.836C34.1776 163.994 265.318 166.148 302.104 161.836C312.994 160.56 321.711 148.643 322.983 146.575C330.935 133.643 327.953 53.8904 325.965 26.9465C324.895 12.4456 310.058 5.93039 303.098 3.77506C289.788 -0.346923 53.757 -0.51236 22.7311 4.85319C8.85004 7.25295 3.81809 18.5733 2.81909 24.8655C0.488432 39.5327 -0.889184 129.746 2.84706 141.898C5.83007 151.598 13.2866 159.681 23.7261 161.836Z" fill="white"/>
</mask>
<g mask="url(#mask1_5567_147164)">
<path d="M9.7495 145.864H11.228C11.228 139.58 11.228 137.465 11.3779 100.91C11.6476 34.6504 12.1571 30.6108 12.1571 30.6108L8.64061 61.2019C6.39287 95.0746 9.26998 115.263 9.7495 145.864Z" fill="#BBF0D3"/>
<mask id="mask2_5567_147164" style="mask-type:alpha" maskUnits="userSpaceOnUse" x="-13" y="142" width="45" height="24">
<path fill-rule="evenodd" clip-rule="evenodd" d="M-12.478 142.403H31.278V165.683H-12.478V142.403Z" fill="white"/>
</mask>
<g mask="url(#mask2_5567_147164)">
<path d="M14.9444 165.683H-0.141466C-9.74083 165.683 -10.3013 158.95 -12.2783 149.844C-12.7488 147.43 -13.4341 145.063 -14.3262 142.772L-14.4761 142.403H29.28L29.1301 142.772C28.259 145.066 27.5907 147.433 27.1322 149.844C25.1142 158.95 24.5438 165.683 14.9444 165.683Z" fill="#84D7CC"/>
</g>
<path d="M30.349 144.617H-15.5349C-16.5509 144.625 -17.411 143.869 -17.5329 142.861L-18.413 136.209C-18.5728 135.119 -17.8166 134.105 -16.7247 133.945C-16.6228 133.931 -16.5179 133.924 -16.415 133.924H31.2282C32.331 133.914 33.2361 134.796 33.2472 135.898C33.2481 136.002 33.2411 136.106 33.2262 136.209L32.347 142.861C32.2252 143.869 31.366 144.625 30.349 144.617Z" fill="#47A99C"/>
<path d="M8.47068 84.402C17.103 69.3808 -5.28551 64.0046 -12.5083 50.6191C-21.2195 61.1919 -1.64916 101.997 8.47068 84.402Z" fill="#BBF0D3"/>
<path d="M10.129 67.4264C6.80231 59.8559 22.8362 50.6686 26.2927 38.3604C32.7263 45.472 19.9891 89.8386 10.129 67.4264Z" fill="#BBF0D3"/>
<path d="M10.9983 46.2806C13.1461 28.8256 1.75757 30.3218 -2.98766 19.8887C-10.0606 27.3494 9.32997 59.7559 10.9983 46.2806Z" fill="#BBF0D3"/>
<mask id="mask3_5567_147164" style="mask-type:alpha" maskUnits="userSpaceOnUse" x="9" y="15" width="12" height="30">
<path fill-rule="evenodd" clip-rule="evenodd" d="M9.80347 15.7095H20.3555V44.547H9.80347V15.7095Z" fill="white"/>
</mask>
<g mask="url(#mask3_5567_147164)">
<path d="M10.3487 40.0372C7.44257 26.7405 17.1618 28.8262 15.8941 15.709C27.2227 25.6444 13.8162 55.8864 10.3487 40.0372Z" fill="#BBF0D3"/>
</g>
<mask id="mask4_5567_147164" style="mask-type:alpha" maskUnits="userSpaceOnUse" x="9" y="73" width="29" height="34">
<path fill-rule="evenodd" clip-rule="evenodd" d="M9.10205 73.6895H37.2826V106.351H9.10205V73.6895Z" fill="white"/>
</mask>
<g mask="url(#mask4_5567_147164)">
<path d="M10.009 94.2774C12.7163 84.732 28.2407 91.6142 36.1637 73.6895C44.5843 99.0042 2.47656 120.769 10.009 94.2774Z" fill="#BBF0D3"/>
</g>
<mask id="mask5_5567_147164" style="mask-type:alpha" maskUnits="userSpaceOnUse" x="-18" y="90" width="29" height="27">
<path fill-rule="evenodd" clip-rule="evenodd" d="M-17.4514 90.0176H10.7546V116.522H-17.4514V90.0176Z" fill="white"/>
</mask>
<g mask="url(#mask5_5567_147164)">
<path d="M10.7485 107.194C10.5187 98.1167 0.708588 106.197 -17.2234 90.0176C-20.4302 106.685 11.258 129.615 10.7485 107.194Z" fill="#BBF0D3"/>
</g>
</g>
<mask id="mask6_5567_147164" style="mask-type:alpha" maskUnits="userSpaceOnUse" x="0" y="0" width="329" height="165">
<path fill-rule="evenodd" clip-rule="evenodd" d="M23.7261 161.836C34.1776 163.994 265.318 166.148 302.104 161.836C312.994 160.56 321.711 148.643 322.983 146.575C330.935 133.643 327.953 53.8904 325.965 26.9465C324.895 12.4456 310.058 5.93039 303.098 3.77506C289.788 -0.346923 53.757 -0.51236 22.7311 4.85319C8.85004 7.25295 3.81809 18.5733 2.81909 24.8655C0.488432 39.5327 -0.889184 129.746 2.84706 141.898C5.83007 151.598 13.2866 159.681 23.7261 161.836Z" fill="white"/>
</mask>
<g mask="url(#mask6_5567_147164)">
<path d="M316.253 110.663C314.53 116.116 307.114 110.977 303.379 117.039C298.47 125.006 307.183 132.189 304.59 136.996C301.777 142.21 290.164 141.106 286.623 150.792C284.828 155.702 284.757 161.147 286.972 166.858H327.514C328.806 164.877 329.806 162.748 330.394 160.485C333.343 149.134 323.289 148.163 325.36 144.19C328.034 139.06 336.938 136.992 337.52 129.631C338.204 120.972 329.375 118.942 329.815 114.642C330.435 108.581 331.045 95.7325 325.303 94.1395C324.915 94.0321 324.547 93.9805 324.197 93.9805C318.884 93.9805 317.796 105.777 316.253 110.663Z" fill="#B3EC91"/>
<path d="M303.505 176.925C303.505 176.925 316.112 145.583 324.261 107.944" stroke="white" stroke-width="0.63014"/>
<path d="M319.21 130.414L310.219 120.439" stroke="white" stroke-width="0.63014" stroke-linecap="round"/>
<path fill-rule="evenodd" clip-rule="evenodd" d="M287.812 182.28C278.637 177.255 268.617 168.684 265.899 157.578C262.347 143.068 274.455 141.826 271.961 136.747C268.741 130.189 258.018 127.547 257.318 118.136C256.495 107.067 267.127 104.471 266.597 98.9744C265.85 91.2274 265.115 74.8022 272.03 72.7658C279.589 70.5396 280.946 87.2307 282.927 93.8874C285.001 100.859 293.932 94.2895 298.43 102.039C304.341 112.224 293.848 121.406 296.971 127.551C300.359 134.215 314.343 132.804 318.607 145.187C321.359 153.178 320.745 162.276 315.373 171.775C307.21 175.289 296.8 178.649 287.812 182.28Z" fill="#84D7CC"/>
<path d="M293.378 156.547C293.378 156.547 280.731 126.716 272.557 90.8916" stroke="white" stroke-width="0.78057"/>
</g>
<mask id="mask7_5567_147164" style="mask-type:alpha" maskUnits="userSpaceOnUse" x="0" y="0" width="329" height="165">
<path fill-rule="evenodd" clip-rule="evenodd" d="M23.7261 161.836C34.1776 163.994 265.318 166.148 302.104 161.836C312.994 160.56 321.711 148.643 322.983 146.575C330.935 133.643 327.953 53.8904 325.965 26.9465C324.895 12.4456 310.058 5.93039 303.098 3.77506C289.788 -0.346923 53.757 -0.51236 22.7311 4.85319C8.85004 7.25295 3.81809 18.5733 2.81909 24.8655C0.488432 39.5327 -0.889184 129.746 2.84706 141.898C5.83007 151.598 13.2866 159.681 23.7261 161.836Z" fill="white"/>
</mask>
<g mask="url(#mask7_5567_147164)">
<path d="M35.3365 59.0205L21.3794 96.0774L56.6067 103.199L66.5671 70.7723L35.3365 59.0205Z" fill="#FFDAB8"/>
<path d="M95.7725 42.857C95.7725 42.857 115.35 29.6032 108.252 16.65C99.8253 1.31813 83.6561 -3.67948 60.2375 -3.21209C49.2782 -2.97949 31.7157 2.32314 24.1421 21.1857C18.3069 35.7616 53.7422 58.7899 49.4653 68.6644L95.7725 42.857Z" fill="#6C4A07"/>
<path d="M96.7855 51.7495C96.7855 51.7495 98.0778 56.9742 98.502 60.3952C98.7031 62.0048 97.5701 63.5287 95.9504 63.6494C95.0449 63.7174 94.1339 63.7021 93.2273 63.6022L96.7855 51.7495Z" fill="#FFB490"/>
<path d="M88.93 17.5337C93.5388 22.4776 101.407 31.3669 96.4849 53.0821C91.4388 75.3843 84.03 81.1312 80.0355 82.8713C77.4114 84.0508 66.9905 81.1268 62.2752 77.6027C56.3554 73.1702 44.5093 60.9729 41.7093 47.5414C38.4093 31.7333 42.9587 13.8308 54.5213 10.3089C70.8685 5.37051 85.0047 13.3722 88.93 17.5337Z" fill="#FFDAB8"/>
<path d="M64.8306 79.1716C69.1316 81.4855 73.8822 82.8427 78.7591 83.1488C73.9558 81.6029 69.6932 78.7251 66.4657 74.8521L64.8306 79.1716Z" fill="#FFB490"/>
<path d="M80.3225 42.9229C88.6675 42.5597 96.1334 37.6323 99.7356 30.1068C106.343 17.079 91.0609 5.66406 91.0609 5.66406L80.3225 42.9229Z" fill="#6C4A07"/>
<path d="M69.8714 41.5318C74.8669 41.6316 76.7933 45.7011 77.5175 48.3255C77.7669 49.235 78.9263 49.4896 79.5307 48.7665C87.7537 38.9227 89.9438 22.0153 90.2416 19.3745C90.268 19.1364 90.2229 18.9103 90.1086 18.6986C88.7064 16.1257 78.5592 -0.844205 54.3923 -1.35987C40.3605 -1.65831 29.4539 9.52296 24.7946 18.9828C20.9553 26.7822 22.4381 47.138 32.266 67.5581C33.1385 69.3709 37.9095 71.012 46.5791 72.4817C48.7508 72.8498 50.9632 72.1108 52.4759 70.5119C57.9166 64.7611 61.2701 60.0954 62.5362 56.5148C59.445 50.1424 62.4857 41.3848 69.8714 41.5318Z" fill="#6C4A07"/>
<path d="M58.8429 88.5677C93.8625 87.0306 109.802 117.492 109.802 117.492C109.802 117.492 84.4977 213.337 71.4725 232.65L-27.4414 219.64C-27.4414 219.64 -26.1887 157.14 -18.9239 120.495C-18.9239 120.495 -14.8634 84.7693 21.832 84.0968C29.3551 83.9596 38.4023 89.4652 58.8429 88.5677Z" fill="#40C0A6"/>
<path d="M161.676 147.977C161.511 150.933 159.618 161.487 155.695 171.204C145.934 164.613 132.944 156.122 121.651 148.873C105.858 138.645 102.598 136.483 93.73 139.231C93.7088 161.683 112.616 177.76 112.616 177.76C112.616 177.76 135.987 192.044 149.867 199.004C163.259 205.723 166.437 203.653 169.787 197.966C173.137 192.28 177.311 154.359 179.051 142.498C180.79 130.637 160.285 132.44 160.986 136.379C161.602 141.594 161.832 145.46 161.676 147.977Z" fill="#FFDAB8"/>
<path d="M72.0379 104.508C73.4994 98.4828 79.4279 94.7447 85.518 95.9494C88.6806 96.5759 92.118 97.8036 95.0334 100.13C99.9279 104.561 104.373 109.465 108.303 114.769C116.03 125.092 128.548 141.765 135.01 150.37C137.627 153.855 137.723 158.69 135.072 162.147C129.675 169.184 122.513 174.686 114.309 178.089C110.525 179.659 106.161 178.655 103.363 175.664C97.1103 168.98 85.8059 156.651 80.6169 149.463C70.5137 135.505 69.039 116.882 72.0379 104.508Z" fill="#00AC89"/>
<mask id="mask8_5567_147164" style="mask-type:alpha" maskUnits="userSpaceOnUse" x="136" y="63" width="54" height="71">
<path fill-rule="evenodd" clip-rule="evenodd" d="M149.946 63.7578L189.648 72.1836L176.596 133.492L136.893 125.067L149.946 63.7578Z" fill="white"/>
</mask>
<g mask="url(#mask8_5567_147164)">
<path d="M187.368 82.3649L168.852 127.217C167.685 130.039 164.444 131.383 161.609 130.218L142.158 122.224C139.32 121.058 137.965 117.82 139.131 114.996L157.645 70.1503C158.816 67.3324 161.707 65.8454 164.104 66.8297L185.147 75.4779C185.158 75.4828 185.169 75.4867 185.18 75.4907C187.552 76.4904 188.533 79.5594 187.368 82.3649Z" fill="#252528"/>
</g>
<mask id="mask9_5567_147164" style="mask-type:alpha" maskUnits="userSpaceOnUse" x="135" y="63" width="54" height="71">
<path fill-rule="evenodd" clip-rule="evenodd" d="M148.43 63.166L188.157 71.5969L175.074 133.049L135.348 124.619L148.43 63.166Z" fill="white"/>
</mask>
<g mask="url(#mask9_5567_147164)">
<path d="M185.874 81.7897L167.309 126.755C166.14 129.585 162.896 130.935 160.061 129.77L140.61 121.776C137.772 120.61 136.42 117.367 137.589 114.536L156.151 69.5759C157.324 66.7509 160.218 65.2577 162.614 66.2436L183.658 74.8902C183.669 74.895 183.679 74.8989 183.69 74.9038C186.064 75.9036 187.042 78.9772 185.874 81.7897Z" fill="#58585B"/>
</g>
<path d="M183.546 82.1062L165.807 125.007C164.908 127.182 162.414 128.22 160.236 127.323L142.168 119.901C139.985 119.004 138.945 116.509 139.845 114.331L157.58 71.4391C158.395 69.4782 160.323 68.4109 161.888 69.0525L165.273 70.4444C165.708 70.6226 166.114 70.7166 166 71.2865L165.873 71.922C165.758 72.4925 165.982 73.0184 166.416 73.1966L176.043 77.1518C176.476 77.3298 177.01 77.1148 177.333 76.6302L177.693 76.0911C177.985 75.6527 178.3 75.7876 178.678 75.9488C178.718 75.9667 178.759 75.9848 178.801 76.0014L182.186 77.3915C182.193 77.3938 182.2 77.397 182.206 77.3992C183.757 78.0523 184.356 80.1538 183.546 82.1062Z" fill="white"/>
<path d="M185.011 87.7657L183.227 92.0775C183.147 92.2712 182.924 92.3627 182.729 92.283L182.111 92.0283L184.186 87.0137L184.805 87.2702L184.808 87.2709C185 87.3525 185.09 87.5729 185.011 87.7657Z" fill="#58585B"/>
<path d="M152.192 80.2886L151.575 80.0339C151.381 79.9535 151.287 79.73 151.369 79.5367L153.152 75.2257C153.233 75.0306 153.455 74.9387 153.65 75.0192L154.268 75.2749L152.192 80.2886Z" fill="#252528"/>
<path d="M182.595 93.6046L180.811 97.9154C180.73 98.1097 180.509 98.2025 180.314 98.122L179.696 97.8671L181.77 92.8523L182.388 93.1072C182.39 93.1084 182.391 93.1086 182.392 93.1089C182.584 93.1897 182.675 93.4119 182.595 93.6046Z" fill="#58585B"/>
<path d="M175.555 74.1448L175.518 74.2325C175.415 74.4817 175.129 74.6001 174.879 74.4976L170.789 72.8094C170.541 72.7073 170.422 72.4221 170.525 72.1728L170.562 72.0845C170.665 71.836 170.95 71.7168 171.199 71.8207L175.29 73.5064C175.291 73.5066 175.292 73.5078 175.293 73.5079C175.54 73.6123 175.657 73.8963 175.555 74.1448Z" fill="#252528"/>
<path d="M169.573 71.6694C169.427 72.0204 169.024 72.1879 168.672 72.0426C168.319 71.8969 168.152 71.494 168.298 71.143C168.442 70.7918 168.847 70.6245 169.199 70.7708C169.201 70.7703 169.203 70.7707 169.204 70.7718C169.553 70.9191 169.718 71.3198 169.573 71.6694Z" fill="#252528"/>
<path d="M183.881 80.781C183.837 81.2175 183.729 81.6661 183.546 82.1063L165.807 125.007C164.908 127.181 162.415 128.219 160.236 127.323L142.617 120.086C164.27 125.917 181.997 85.2684 183.881 80.781Z" fill="#C3DFF8"/>
<path d="M162.679 115.255L166.004 119.318L167.922 117.444L166.137 115.868L162.531 112.436C162.531 112.436 158.032 107.168 156.474 105.774C156.047 105.392 155.593 105.174 155.159 105.058C154.015 104.752 152.325 105.774 152.325 105.774L162.679 115.255Z" fill="#C4E4FF"/>
<path d="M172.862 117.348C172.862 117.348 171.137 121.607 170.021 120.749L165.159 117.021C164.565 116.581 164.03 116.061 163.571 115.476L156.811 106.899C156.288 106.235 155.543 105.781 154.711 105.626L154.447 105.576C152.765 105.261 151.553 105.714 150.946 107.328C150.752 108.665 150.811 109.632 151.123 110.229L156.287 120.101C156.62 120.736 156.993 121.743 157.404 123.122L159.466 132.067C160.001 134.399 160.448 137.122 161.683 139.163L161.594 143.7L179.05 142.498C179.101 139.947 179.819 133.84 180.243 131.714L182.677 115.841C182.963 114.397 182.612 112.9 181.71 111.745L177.545 105.94L172.862 117.348Z" fill="#FFDAB8"/>
</g>
<path d="M302.339 116.571C302.339 134.682 287.554 149.365 269.316 149.365C251.079 149.365 236.294 134.682 236.294 116.571C236.294 98.4592 251.079 83.7764 269.316 83.7764C286.748 83.7764 301.024 97.1898 302.253 114.19C302.31 114.976 302.339 115.769 302.339 116.571Z" fill="#84D7CC"/>
<path d="M302.339 112.339C302.339 130.451 287.554 145.133 269.316 145.133C251.079 145.133 236.294 130.451 236.294 112.339C236.294 94.2277 251.079 79.5449 269.316 79.5449C286.748 79.5449 301.024 92.9584 302.253 109.959C302.31 110.744 302.339 111.538 302.339 112.339Z" fill="white"/>
<path fill-rule="evenodd" clip-rule="evenodd" d="M253.27 94.1646H280.524C280.986 94.1646 281.433 94.3491 281.762 94.6771C282.09 95.0043 282.272 95.449 282.272 95.9125V130.414C282.272 130.694 281.937 130.842 281.734 130.653L280.405 129.458C280.287 129.347 280.098 129.347 279.972 129.458L278.154 131.101C278.035 131.212 277.846 131.212 277.72 131.101L275.902 129.458C275.777 129.347 275.595 129.347 275.469 129.458L273.651 131.101C273.525 131.212 273.343 131.212 273.218 131.101L271.4 129.458C271.274 129.347 271.085 129.347 270.966 129.458L269.148 131.101C269.023 131.212 268.834 131.212 268.715 131.101L266.897 129.458C266.771 129.347 266.582 129.347 266.463 129.458L264.645 131.101C264.52 131.212 264.331 131.212 264.212 131.101L262.387 129.458C262.268 129.347 262.079 129.347 261.953 129.458L260.136 131.101C260.017 131.212 259.828 131.212 259.702 131.101L257.884 129.458C257.765 129.347 257.577 129.347 257.451 129.458L255.954 130.808C255.752 130.997 255.416 130.849 255.416 130.568V97.0641H253.27V94.1646Z" fill="#FFC54F"/>
<path d="M264.354 110.909C263.014 110.909 261.99 110.405 261.283 109.398C260.576 108.379 260.222 106.932 260.222 105.057C260.222 103.16 260.576 101.718 261.283 100.732C261.99 99.7462 263.014 99.2532 264.354 99.2532C265.704 99.2532 266.728 99.7462 267.424 100.732C268.132 101.718 268.485 103.154 268.485 105.041C268.485 106.927 268.132 108.379 267.424 109.398C266.717 110.405 265.693 110.909 264.354 110.909ZM264.354 109.221C265.082 109.221 265.618 108.889 265.961 108.224C266.315 107.549 266.492 106.488 266.492 105.041C266.492 103.605 266.315 102.565 265.961 101.922C265.618 101.268 265.082 100.941 264.354 100.941C263.635 100.941 263.1 101.268 262.746 101.922C262.392 102.565 262.215 103.605 262.215 105.041C262.215 106.488 262.392 107.549 262.746 108.224C263.1 108.889 263.635 109.221 264.354 109.221Z" fill="white"/>
<path d="M270.212 110.979V106.857H272.001C272.453 106.857 272.801 106.966 273.047 107.184C273.293 107.399 273.415 107.701 273.415 108.091C273.415 108.398 273.335 108.654 273.176 108.856C273.016 109.055 272.786 109.19 272.486 109.26C272.685 109.322 272.848 109.472 272.977 109.71L273.667 110.979H272.842L272.129 109.663C272.059 109.535 271.975 109.447 271.878 109.4C271.784 109.353 271.663 109.33 271.515 109.33H270.96V110.979H270.212ZM270.96 108.775H271.872C272.418 108.775 272.69 108.552 272.69 108.108C272.69 107.668 272.418 107.447 271.872 107.447H270.96V108.775ZM274.149 112.031V108.12H274.862V108.576C274.944 108.42 275.067 108.295 275.231 108.202C275.398 108.108 275.587 108.061 275.798 108.061C276.047 108.061 276.266 108.122 276.453 108.243C276.644 108.363 276.792 108.535 276.897 108.757C277.002 108.975 277.055 109.238 277.055 109.546C277.055 109.85 277.002 110.115 276.897 110.341C276.792 110.563 276.646 110.735 276.458 110.856C276.271 110.977 276.051 111.037 275.798 111.037C275.595 111.037 275.412 110.994 275.248 110.908C275.089 110.819 274.966 110.7 274.88 110.552V112.031H274.149ZM275.593 110.482C275.811 110.482 275.987 110.404 276.119 110.248C276.252 110.088 276.318 109.854 276.318 109.546C276.318 109.234 276.252 109.003 276.119 108.851C275.987 108.695 275.811 108.617 275.593 108.617C275.375 108.617 275.2 108.695 275.067 108.851C274.935 109.003 274.868 109.234 274.868 109.546C274.868 109.854 274.935 110.088 275.067 110.248C275.2 110.404 275.375 110.482 275.593 110.482Z" fill="white"/>
<path fill-rule="evenodd" clip-rule="evenodd" d="M255.415 96.3125C255.415 95.7434 255.183 95.1966 254.789 94.7938C254.385 94.3911 253.836 94.1646 253.269 94.1646C252.694 94.1646 252.153 94.3911 251.749 94.7938C251.346 95.1966 251.114 95.7434 251.114 96.3125C251.114 97.964 251.114 101.047 251.114 101.047H255.415C255.415 101.047 255.415 97.964 255.415 96.3125Z" fill="#CC9D3F"/>
<path d="M277.307 117.953H260.535C260.082 117.953 259.715 117.585 259.715 117.132C259.715 116.679 260.082 116.312 260.535 116.312H277.307C277.76 116.312 278.128 116.679 278.128 117.132C278.128 117.585 277.76 117.953 277.307 117.953Z" fill="#CC9D3F"/>
<path d="M270.324 122.771H260.541C260.087 122.771 259.72 122.404 259.72 121.951C259.72 121.497 260.087 121.13 260.541 121.13H270.324C270.777 121.13 271.145 121.497 271.145 121.951C271.145 122.404 270.777 122.771 270.324 122.771Z" fill="#CC9D3F"/>
<path d="M292.822 128.29C292.822 133.675 288.457 138.04 283.072 138.04C277.687 138.04 273.322 133.675 273.322 128.29C273.322 122.904 277.687 118.54 283.072 118.54C288.457 118.54 292.822 122.904 292.822 128.29Z" fill="#5B9836" stroke="white" stroke-width="1.08333"/>
<path fill-rule="evenodd" clip-rule="evenodd" d="M288.109 130.872C287.389 130.956 278.672 130.956 277.952 130.872C277.573 130.828 277.31 130.517 277.373 130.183C277.458 129.743 277.626 128.994 277.965 127.765C278.364 126.32 278.645 125.634 278.809 125.314C278.898 125.139 279.073 125.013 279.286 124.975C279.741 124.894 286.32 124.894 286.775 124.975C286.988 125.013 287.163 125.139 287.252 125.314C287.416 125.634 287.697 126.32 288.096 127.765C288.435 128.994 288.604 129.743 288.688 130.183C288.751 130.517 288.488 130.828 288.109 130.872Z" fill="#CC9D3F"/>
<mask id="mask10_5567_147164" style="mask-type:alpha" maskUnits="userSpaceOnUse" x="277" y="124" width="12" height="7">
<path fill-rule="evenodd" clip-rule="evenodd" d="M288.109 130.872C287.389 130.956 278.672 130.956 277.952 130.872C277.573 130.828 277.31 130.517 277.373 130.183C277.458 129.743 277.626 128.994 277.965 127.765C278.364 126.32 278.645 125.634 278.809 125.314C278.898 125.139 279.073 125.013 279.286 124.975C279.741 124.894 286.32 124.894 286.775 124.975C286.988 125.013 287.163 125.139 287.252 125.314C287.416 125.634 287.697 126.32 288.096 127.765C288.435 128.994 288.604 129.743 288.688 130.183C288.751 130.517 288.488 130.828 288.109 130.872Z" fill="white"/>
</mask>
<g mask="url(#mask10_5567_147164)">
<path fill-rule="evenodd" clip-rule="evenodd" d="M287.047 130.518C286.326 130.602 277.609 130.602 276.89 130.518C276.511 130.474 276.247 130.163 276.311 129.829C276.395 129.389 276.563 128.64 276.903 127.411C277.302 125.966 277.583 125.28 277.746 124.96C277.836 124.785 278.011 124.659 278.224 124.621C278.678 124.54 285.258 124.54 285.712 124.621C285.925 124.659 286.1 124.785 286.19 124.96C286.353 125.28 286.634 125.966 287.033 127.411C287.372 128.64 287.541 129.389 287.625 129.829C287.689 130.163 287.425 130.474 287.047 130.518Z" fill="#FFC54F"/>
</g>
<path d="M191.516 64.6453L198.352 59.1754H227.874C229.97 59.1754 231.67 57.4779 231.67 55.3853V24.4864C231.67 22.3937 229.97 20.6963 227.874 20.6963H189.141C187.045 20.6963 185.345 22.3937 185.345 24.4864V61.6861C185.345 64.8657 189.032 66.6341 191.516 64.6453Z" fill="#99DCAB"/>
<path d="M193.143 61.6531L199.979 56.1832H229.501C231.597 56.1832 233.297 54.4858 233.297 52.3931V21.4942C233.297 19.4016 231.597 17.7041 229.501 17.7041H190.768C188.672 17.7041 186.972 19.4016 186.972 21.4942V58.6939C186.972 61.8735 190.659 63.6419 193.143 61.6531Z" fill="white"/>
<path fill-rule="evenodd" clip-rule="evenodd" d="M196.871 49.0445C196.383 48.9696 196.269 48.9395 196.17 48.8386C196.071 48.7377 196.01 48.5919 196.01 48.1677C196.01 37.9821 196.01 31.1201 196.01 28.2104C196.01 28.1749 196.01 28.1332 196.01 28.0886C196.01 27.8125 196.234 27.5887 196.51 27.5887C206.883 30.0431 215.129 24.5504 225.502 27.0048C225.958 27.1513 226.054 27.2518 226.139 27.3459C226.224 27.44 226.304 27.6797 226.304 27.889C226.303 35.9253 226.303 42.6505 226.304 48.0403C226.304 48.2427 226.169 48.4412 225.972 48.3954C225.952 48.3906 225.931 48.3844 225.91 48.3765C215.536 45.921 209.322 50.9524 196.871 49.0445Z" fill="#1868AB"/>
<path fill-rule="evenodd" clip-rule="evenodd" d="M194.223 45.4808C193.72 45.4088 193.603 45.3799 193.501 45.283C193.399 45.186 193.337 45.046 193.337 44.6385C193.337 34.8546 193.337 28.2633 193.337 25.4684C193.337 25.4434 193.337 25.4152 193.337 25.3851C193.337 25.1013 193.567 24.8712 193.851 24.8712C204.518 27.2288 212.997 21.9527 223.664 24.3103C224.133 24.451 224.231 24.5476 224.319 24.638C224.406 24.7284 224.488 24.9586 224.488 25.1596C224.487 32.879 224.487 39.339 224.488 44.5162C224.488 44.7098 224.359 44.8952 224.169 44.8615C224.141 44.8565 224.112 44.8493 224.083 44.8391C213.416 42.4804 207.026 47.3134 194.223 45.4808Z" fill="#5297D1"/>
<path fill-rule="evenodd" clip-rule="evenodd" d="M208.913 40.5599C205.756 40.5599 203.197 38.0058 203.197 34.855C203.197 31.7041 205.756 29.1489 208.913 29.1489C212.068 29.1489 214.627 31.7041 214.627 34.855C214.627 38.0058 212.068 40.5599 208.913 40.5599Z" fill="white"/>
<path d="M217.494 27.4652H221.52" stroke="white" stroke-width="2.11801" stroke-linecap="round"/>
<path d="M196.194 42.6595H200.221" stroke="white" stroke-width="2.11801" stroke-linecap="round"/>
<path fill-rule="evenodd" clip-rule="evenodd" d="M159.398 85.6022C159.731 84.7977 160.653 84.4152 161.457 84.7479L170.198 88.3624C171.002 88.6951 171.385 89.617 171.052 90.4216L165.028 104.989C164.695 105.793 163.773 106.176 162.969 105.843L154.228 102.229C153.424 101.896 153.041 100.974 153.374 100.17L159.398 85.6022Z" fill="#CC9D3F"/>
<mask id="mask11_5567_147164" style="mask-type:alpha" maskUnits="userSpaceOnUse" x="153" y="84" width="19" height="22">
<path fill-rule="evenodd" clip-rule="evenodd" d="M159.398 85.6022C159.731 84.7977 160.653 84.4152 161.457 84.7479L170.198 88.3624C171.002 88.6951 171.385 89.617 171.052 90.4216L165.028 104.989C164.695 105.793 163.773 106.176 162.969 105.843L154.228 102.229C153.424 101.896 153.041 100.974 153.374 100.17L159.398 85.6022Z" fill="white"/>
</mask>
<g mask="url(#mask11_5567_147164)">
<rect x="158.544" y="83.543" width="12.6111" height="18.9166" rx="1.57639" transform="rotate(22.4669 158.544 83.543)" fill="#FFC54F"/>
<path fill-rule="evenodd" clip-rule="evenodd" d="M163.632 88.6507L161.036 89.3245C160.718 89.4067 160.482 89.6892 160.453 90.0234L160.21 92.7501C160.181 93.0842 160.364 93.3938 160.663 93.5177L163.109 94.5292C163.409 94.6531 163.757 94.5634 163.972 94.3059L165.726 92.2042C165.941 91.9467 165.974 91.5801 165.807 91.2975L164.445 88.987C164.278 88.7044 163.95 88.5685 163.632 88.6507Z" fill="#CC9D3F"/>
<rect x="157.969" y="95.2461" width="6.30554" height="1.31365" rx="0.656827" transform="rotate(22.4669 157.969 95.2461)" fill="#CC9D3F"/>
<rect x="156.764" y="98.1597" width="6.30554" height="1.31365" rx="0.656827" transform="rotate(22.4669 156.764 98.1597)" fill="#CC9D3F"/>
</g>
<path d="M171.402 93.43L171.402 93.43C172.566 93.2599 173.639 92.6442 174.372 91.6936L174.373 91.6929C174.62 91.3746 174.828 91.0145 174.987 90.6216C175.94 88.2784 174.811 85.6092 172.463 84.6576C170.115 83.7059 167.442 84.8345 166.489 87.1778C165.537 89.521 166.665 92.1902 169.014 93.1418C169.8 93.4606 170.619 93.5452 171.402 93.43Z" fill="#00AB4E" stroke="white" stroke-width="0.612101"/>
<path d="M171.428 87.2026L170.049 90.5968" stroke="white" stroke-width="1.2242" stroke-linecap="round"/>
<path d="M169.039 88.2109L172.438 89.5885" stroke="white" stroke-width="1.2242" stroke-linecap="round"/>
</svg>
