<svg width="328" height="164" viewBox="0 0 328 164" fill="none" xmlns="http://www.w3.org/2000/svg">
<path d="M23.2189 161.504C33.6809 163.667 265.053 165.826 301.876 161.504C312.777 160.224 321.503 148.276 322.776 146.203C330.736 133.238 327.751 53.2794 325.761 26.266C324.69 11.7278 309.838 5.19571 302.871 3.03482C289.548 -1.09779 53.2799 -1.26366 22.2229 4.11573C8.32787 6.52168 3.29087 17.8712 2.29087 24.1796C-0.0421274 38.8847 -1.42113 129.331 2.31887 141.514C5.30487 151.239 12.7689 159.343 23.2189 161.504Z" fill="#EDFFF5"/>
<mask id="mask0_5567_156261" style="mask-type:alpha" maskUnits="userSpaceOnUse" x="0" y="0" width="328" height="164">
<path fill-rule="evenodd" clip-rule="evenodd" d="M23.2189 161.504C33.6809 163.667 265.053 165.826 301.876 161.504C312.777 160.224 321.503 148.276 322.776 146.203C330.736 133.238 327.751 53.2794 325.761 26.266C324.69 11.7278 309.838 5.19571 302.871 3.03482C289.548 -1.09779 53.2799 -1.26366 22.2229 4.11573C8.32787 6.52168 3.29087 17.8712 2.29087 24.1796C-0.0421274 38.8847 -1.42113 129.331 2.31887 141.514C5.30487 151.239 12.7689 159.343 23.2189 161.504Z" fill="white"/>
</mask>
<g mask="url(#mask0_5567_156261)">
<path fill-rule="evenodd" clip-rule="evenodd" d="M-6.85693 168H331.143V-6H-6.85693V168Z" fill="#BBF0D3"/>
<path fill-rule="evenodd" clip-rule="evenodd" d="M-22.2979 175.888H368.502V-30.439H-22.2979V175.888Z" fill="#E6F6ED"/>
<mask id="mask1_5567_156261" style="mask-type:alpha" maskUnits="userSpaceOnUse" x="152" y="99" width="45" height="64">
<path fill-rule="evenodd" clip-rule="evenodd" d="M153.438 124.148C153.835 127.82 159.443 136.354 165.469 143.925C172.698 153.006 181.253 160.92 181.253 160.92L182.319 163H192.09L196.07 158.982L195.151 153.004C192.897 151.806 191.894 149.081 192.139 144.833C192.385 140.585 189.359 135.938 183.06 130.895L165.469 110.679L159.016 99.9799L153.846 99.1099C153.846 99.1099 151.762 108.619 153.438 124.148Z" fill="white"/>
</mask>
<g mask="url(#mask1_5567_156261)">
<path d="M141.019 97.3705L182.447 86.2705L204.762 169.556L163.335 180.656L141.019 97.3705Z" fill="#FFDAB8"/>
</g>
<mask id="mask2_5567_156261" style="mask-type:alpha" maskUnits="userSpaceOnUse" x="176" y="130" width="10" height="5">
<path fill-rule="evenodd" clip-rule="evenodd" d="M176.633 132.949C176.633 132.949 177.894 134.085 179.001 134.672C180.107 135.259 185.606 132.949 185.606 132.949L182.026 130.085L176.633 132.949Z" fill="white"/>
</mask>
<g mask="url(#mask2_5567_156261)">
<path d="M172.006 140.173L171.244 125.644L190.18 124.651L190.942 139.18L172.006 140.173Z" fill="#FFB18D"/>
</g>
<mask id="mask3_5567_156261" style="mask-type:alpha" maskUnits="userSpaceOnUse" x="103" y="20" width="111" height="124">
<path fill-rule="evenodd" clip-rule="evenodd" d="M156.643 21.7082L107.988 49.0462C103.811 51.3942 102.328 56.6822 104.674 60.8592L148.423 138.721C150.77 142.897 156.059 144.381 160.236 142.034L208.891 114.695C213.067 112.349 214.551 107.06 212.204 102.883L168.455 25.0222C166.864 22.1892 163.918 20.5952 160.884 20.5952C159.445 20.5952 157.986 20.9532 156.643 21.7082Z" fill="white"/>
</mask>
<g mask="url(#mask3_5567_156261)">
<path d="M95.9741 20.1008L211.701 12.0088L220.905 143.643L105.179 151.735L95.9741 20.1008Z" fill="#00853E"/>
</g>
<mask id="mask4_5567_156261" style="mask-type:alpha" maskUnits="userSpaceOnUse" x="103" y="17" width="111" height="124">
<path fill-rule="evenodd" clip-rule="evenodd" d="M157.006 18.8762L108.35 46.2152C104.174 48.5612 102.69 53.8512 105.038 58.0272L148.787 135.889C151.133 140.065 156.422 141.548 160.599 139.202L209.255 111.863C213.431 109.516 214.914 104.228 212.568 100.051L168.819 22.1892C167.227 19.3562 164.282 17.7622 161.247 17.7622C159.809 17.7622 158.35 18.1212 157.006 18.8762Z" fill="white"/>
</mask>
<g mask="url(#mask4_5567_156261)">
<path d="M96.3374 17.2683L212.064 9.17529L221.268 140.81L105.542 148.902L96.3374 17.2683Z" fill="white"/>
</g>
<path d="M139.164 100.934L164.224 87.1494" stroke="#F6923B" stroke-width="1.306" stroke-linecap="round" stroke-linejoin="round"/>
<path d="M168.353 84.8587L178.279 79.4297" stroke="#FFD07B" stroke-width="1.68" stroke-linecap="round" stroke-linejoin="round"/>
<path d="M142.396 106.298L160.899 95.8027" stroke="#F6923B" stroke-width="1.306" stroke-linecap="round" stroke-linejoin="round"/>
<path d="M164.558 94.0819L183.061 83.5869" stroke="#F6923B" stroke-width="1.306" stroke-linecap="round" stroke-linejoin="round"/>
<path d="M148.755 118.826L157.939 113.693" stroke="#3390E0" stroke-width="1.288" stroke-linecap="round" stroke-linejoin="round"/>
<path d="M161.174 111.783L177.386 102.79" stroke="#3390E0" stroke-width="1.288" stroke-linecap="round" stroke-linejoin="round"/>
<path d="M152.06 122.988L170.23 112.833" stroke="#FFD07B" stroke-width="1.68" stroke-linecap="round" stroke-linejoin="round"/>
<path d="M154.611 127.88L177.129 115.158" stroke="#FFD07B" stroke-width="1.68" stroke-linecap="round" stroke-linejoin="round"/>
<path d="M180.007 113.754L189.028 108.712" stroke="#FFD07B" stroke-width="1.68" stroke-linecap="round" stroke-linejoin="round"/>
<path d="M191.868 106.75L200.889 101.708" stroke="#FFD07B" stroke-width="1.68" stroke-linecap="round" stroke-linejoin="round"/>
<path fill-rule="evenodd" clip-rule="evenodd" d="M211.755 40.1915C212.033 40.0845 212.317 40.1035 212.607 40.2495C212.897 40.3965 213.102 40.6235 213.221 40.9335L214.66 44.6465C214.78 44.9555 214.782 45.2625 214.667 45.5655C214.551 45.8695 214.356 46.0745 214.076 46.1825L210.811 47.4485C210.532 47.5565 210.248 47.5375 209.959 47.3905C209.669 47.2445 209.464 47.0165 209.345 46.7065L207.905 42.9935C207.786 42.6845 207.782 42.3785 207.899 42.0745C208.014 41.7705 208.21 41.5655 208.488 41.4575L211.755 40.1915ZM200.948 16.8155C202.138 16.3545 203.366 16.0885 204.635 16.0165C205.903 15.9465 207.113 16.0995 208.265 16.4785C209.415 16.8585 210.461 17.4715 211.401 18.3195C212.343 19.1695 213.08 20.2825 213.613 21.6605C214.05 22.7865 214.27 23.8245 214.276 24.7775C214.28 25.7305 214.165 26.6315 213.928 27.4845C213.69 28.3375 213.386 29.1495 213.017 29.9235C212.646 30.6985 212.298 31.4315 211.97 32.1255C211.642 32.8185 211.385 33.5085 211.199 34.1945C211.015 34.8815 211.004 35.5485 211.167 36.1965C211.236 36.5265 211.226 36.8375 211.137 37.1305C211.046 37.4255 210.861 37.6265 210.584 37.7335L207.698 38.8525C207.419 38.9605 207.128 38.9425 206.826 38.8015C206.524 38.6605 206.326 38.4295 206.232 38.1095C205.857 36.9935 205.693 35.9495 205.737 34.9765C205.782 34.0055 205.938 33.0875 206.2 32.2265C206.463 31.3635 206.788 30.5505 207.176 29.7855C207.564 29.0215 207.915 28.2945 208.231 27.6055C208.546 26.9175 208.774 26.2635 208.911 25.6435C209.05 25.0235 209.004 24.4185 208.776 23.8265C208.361 22.7575 207.615 22.0365 206.539 21.6615C205.461 21.2855 204.252 21.3585 202.91 21.8785C200.759 22.7125 199.64 24.5215 199.554 27.3035C199.547 27.6635 199.504 27.9465 199.425 28.1545C199.346 28.3635 199.141 28.5315 198.813 28.6585L195.736 29.8515C195.509 29.9395 195.279 29.9315 195.05 29.8255C194.819 29.7215 194.651 29.5275 194.542 29.2465C194.185 28.2535 194.068 27.1415 194.19 25.9135C194.31 24.6865 194.646 23.4875 195.198 22.3185C195.75 21.1515 196.511 20.0715 197.481 19.0815C198.45 18.0905 199.606 17.3355 200.948 16.8155Z" fill="#F9953B"/>
<path fill-rule="evenodd" clip-rule="evenodd" d="M236.306 64.9203C236.561 64.9752 236.751 65.1308 236.878 65.3879C237.003 65.6457 237.025 65.9234 236.941 66.2229L235.944 69.8161C235.862 70.1153 235.696 70.3544 235.45 70.5323C235.203 70.7105 234.954 70.7728 234.697 70.7177L231.696 70.08C231.44 70.0253 231.249 69.8697 231.124 69.6124C230.998 69.3553 230.977 69.0768 231.061 68.7774L232.057 65.1836C232.14 64.885 232.304 64.6457 232.552 64.4679C232.798 64.2892 233.048 64.2275 233.304 64.2816L236.306 64.9203ZM239.939 42.7189C241.041 42.9996 242.074 43.4392 243.039 44.0385C244.003 44.6388 244.813 45.3686 245.467 46.2303C246.119 47.0916 246.578 48.0661 246.842 49.1543C247.107 50.2448 247.089 51.4183 246.79 52.6765C246.547 53.7054 246.188 54.5601 245.716 55.2443C245.242 55.9275 244.707 56.5125 244.106 57.0006C243.505 57.4882 242.876 57.9127 242.218 58.2766C241.559 58.6403 240.937 58.9857 240.349 59.3135C239.762 59.6406 239.229 60.002 238.749 60.3969C238.271 60.7936 237.929 61.2647 237.724 61.8114C237.609 62.0827 237.446 62.2998 237.235 62.4636C237.02 62.6278 236.784 62.6765 236.528 62.611L233.854 61.9308C233.596 61.8649 233.392 61.7028 233.241 61.4471C233.09 61.1915 233.061 60.9249 233.152 60.6479C233.436 59.658 233.839 58.8277 234.358 58.1549C234.877 57.4839 235.45 56.9078 236.073 56.4268C236.698 55.9449 237.343 55.5305 238.01 55.1827C238.676 54.8356 239.297 54.496 239.873 54.1656C240.448 53.8354 240.942 53.4849 241.353 53.112C241.765 52.7401 242.034 52.2842 242.164 51.7441C242.395 50.7673 242.209 49.8694 241.609 49.0496C241.007 48.228 240.085 47.6602 238.842 47.3437C236.85 46.8367 235.125 47.5558 233.67 49.5C233.484 49.7538 233.311 49.934 233.149 50.0421C232.987 50.151 232.752 50.1659 232.449 50.0885L229.598 49.3632C229.388 49.3097 229.223 49.1861 229.109 48.9929C228.992 48.8001 228.966 48.5753 229.026 48.3185C229.262 47.4257 229.733 46.571 230.437 45.7558C231.139 44.9404 231.985 44.2558 232.974 43.7033C233.962 43.1523 235.06 42.7707 236.266 42.5605C237.472 42.3491 238.696 42.4023 239.939 42.7189Z" fill="#FFD37B"/>
<path fill-rule="evenodd" clip-rule="evenodd" d="M169.496 55.8138C169.17 55.5878 168.745 55.5608 168.394 55.7438L167.417 56.2508C164.949 52.1678 160.858 49.3708 155.983 48.5638C153.281 48.1168 150.488 48.3798 147.914 49.3148C142.996 51.1048 139.346 54.9378 137.808 59.8128C137.767 62.0538 141.04 63.5718 142.274 62.8768C142.684 62.6468 142.998 62.3258 143.105 61.9298C143.864 59.1318 145.758 56.6888 148.49 55.2678C153.393 52.7178 159.386 54.3568 162.35 58.8888L161.449 59.3568C161.098 59.5398 160.876 59.9028 160.874 60.2988C160.872 60.6948 161.09 61.0608 161.44 61.2468L163.865 62.5358L167.541 64.4908C167.618 64.5318 167.7 64.5628 167.783 64.5848C168.033 64.6468 168.301 64.6168 168.535 64.4958C168.847 64.3338 169.059 64.0278 169.101 63.6788L169.407 61.2028L169.947 56.8218C169.994 56.4278 169.821 56.0398 169.496 55.8138Z" stroke="white" stroke-width="2.8"/>
<mask id="mask5_5567_156261" style="mask-type:alpha" maskUnits="userSpaceOnUse" x="175" y="72" width="30" height="31">
<path fill-rule="evenodd" clip-rule="evenodd" d="M175.174 78.793C175.555 79.782 178.119 84.035 183.385 78.489C183.385 78.489 182.472 90.227 184.919 91.474C187.365 92.721 188.063 93.029 188.063 93.029C188.063 93.029 187.166 96.406 190.653 97.95C190.653 97.95 191.455 100.93 193.534 101.521C195.612 102.112 201.125 102.911 201.125 102.911C201.125 102.911 203.56 103.825 204.087 99.792C204.615 95.759 201.195 95.886 201.195 95.886L195.646 85.391L190.674 80.893L185.728 77.063L181.124 73.221L177.993 72C177.993 72 174.793 77.804 175.174 78.793Z" fill="white"/>
</mask>
<g mask="url(#mask5_5567_156261)">
<path d="M170.143 108H209.143V67H170.143V108Z" fill="#FFD8B6"/>
</g>
<mask id="mask6_5567_156261" style="mask-type:alpha" maskUnits="userSpaceOnUse" x="135" y="29" width="37" height="17">
<path fill-rule="evenodd" clip-rule="evenodd" d="M135.841 32.1862L170.307 45.1792L171.284 42.5892L136.817 29.5962L135.841 32.1862Z" fill="white"/>
</mask>
<g mask="url(#mask6_5567_156261)">
<path d="M130.841 50.1782H176.283V24.5952H130.841V50.1782Z" fill="#EAFFF2"/>
</g>
<mask id="mask7_5567_156261" style="mask-type:alpha" maskUnits="userSpaceOnUse" x="166" y="56" width="22" height="22">
<path fill-rule="evenodd" clip-rule="evenodd" d="M166.131 59.3281L184.659 77.4851L187.8 74.2771L169.273 56.1211L166.131 59.3281Z" fill="white"/>
</mask>
<g mask="url(#mask7_5567_156261)">
<path d="M161.131 82.4841H192.8V51.1211H161.131V82.4841Z" fill="#FFD07B"/>
</g>
<mask id="mask8_5567_156261" style="mask-type:alpha" maskUnits="userSpaceOnUse" x="166" y="56" width="8" height="7">
<path fill-rule="evenodd" clip-rule="evenodd" d="M166.575 60.8262L167.773 62.1222C168.671 63.1222 170.368 63.2212 171.366 62.3222L172.263 61.5242C173.261 60.6282 173.36 58.9302 172.462 57.9332L171.265 56.6362L166.575 60.8262Z" fill="white"/>
</mask>
<g mask="url(#mask8_5567_156261)">
<path d="M161.575 67.9382H178.078V51.6362H161.575V67.9382Z" fill="#F6923B"/>
</g>
<mask id="mask9_5567_156261" style="mask-type:alpha" maskUnits="userSpaceOnUse" x="183" y="77" width="21" height="25">
<path fill-rule="evenodd" clip-rule="evenodd" d="M183.143 78.128C183.143 78.128 185.444 83.775 187.574 85.045C189.702 86.314 191.101 86.6 192.989 90.575C194.878 94.551 195.89 93.839 195.89 93.839C195.89 93.839 194.917 95.562 197.061 97.169C199.204 98.775 200.615 99.396 200.615 99.396L203.143 102C203.143 102 196.772 78.003 184.683 77.999C184.179 77.999 183.667 78.042 183.143 78.128Z" fill="white"/>
</mask>
<g mask="url(#mask9_5567_156261)">
<path d="M178.143 107H208.143V73H178.143V107Z" fill="#FFB18D"/>
</g>
<path d="M185.143 91C185.143 91 193.995 97.324 196.143 94.069" stroke="#FFB18D" stroke-width="0.763"/>
<path d="M191.143 98.3345C191.143 98.3345 197.013 101.375 199.236 100.961C199.236 100.961 200.857 101.552 199.765 98.0005" stroke="#FFB18D" stroke-width="0.763"/>
<mask id="mask10_5567_156261" style="mask-type:alpha" maskUnits="userSpaceOnUse" x="176" y="73" width="8" height="7">
<path fill-rule="evenodd" clip-rule="evenodd" d="M176.143 75.789C176.143 75.789 181.185 83.048 183.143 78.504L177.249 73L176.143 75.789Z" fill="white"/>
</mask>
<g mask="url(#mask10_5567_156261)">
<path d="M171.143 85H188.143V68H171.143V85Z" fill="#FFB18D"/>
</g>
<mask id="mask11_5567_156261" style="mask-type:alpha" maskUnits="userSpaceOnUse" x="176" y="63" width="64" height="50">
<path fill-rule="evenodd" clip-rule="evenodd" d="M183.762 63.454C181.079 65.71 182.101 67.727 182.101 67.727C182.101 67.727 179.318 65.684 176.949 67.491C174.852 69.091 177.227 74.698 179.741 76.666C182.256 78.634 187.929 81.171 190.845 84.498C193.761 87.826 194.335 96.188 201.931 100.923C217.155 110.416 220.724 109.716 220.381 109.511L228.18 112.999C228.18 112.999 240.292 110.827 239.054 96.782C239.054 96.782 227.722 92.051 223.695 87.047C220.484 83.055 212.158 72.913 208.921 68.972C208.038 67.897 206.721 67.263 205.318 67.229C204.768 67.217 191.446 63 185.885 63C184.889 63 184.142 63.135 183.762 63.454Z" fill="white"/>
</mask>
<g mask="url(#mask11_5567_156261)">
<path d="M171.144 118H244.144V58H171.144V118Z" fill="#FFDAB8"/>
</g>
<mask id="mask12_5567_156261" style="mask-type:alpha" maskUnits="userSpaceOnUse" x="286" y="7" width="41" height="34">
<path fill-rule="evenodd" clip-rule="evenodd" d="M286.143 25.133C286.143 25.133 293.907 35.751 293.167 40.999L326.142 33.724V22.828C322.764 18.454 318.403 11.947 317.942 7L286.143 25.133Z" fill="white"/>
</mask>
<g mask="url(#mask12_5567_156261)">
<path d="M281.143 46H335.143V2H281.143V46Z" fill="#FFD8B6"/>
</g>
<mask id="mask13_5567_156261" style="mask-type:alpha" maskUnits="userSpaceOnUse" x="247" y="-1" width="72" height="38">
<path fill-rule="evenodd" clip-rule="evenodd" d="M248.075 -1C247.519 5.365 246.82 14.501 247.306 15.323C247.727 16.036 250.523 16.117 252.899 16.05C255.025 15.989 256.971 17.232 257.809 19.171L263.582 32.521C265.353 36.616 270.35 38.236 274.221 35.972L290.833 26.257L317.259 7.516C317.259 7.516 317.811 4.053 318.042 -1H248.075Z" fill="white"/>
</mask>
<g mask="url(#mask13_5567_156261)">
<path d="M242.143 42H323.143V-46H242.143V42Z" fill="#FFDAB8"/>
</g>
<mask id="mask14_5567_156261" style="mask-type:alpha" maskUnits="userSpaceOnUse" x="290" y="21" width="37" height="15">
<path fill-rule="evenodd" clip-rule="evenodd" d="M290.142 31.96L291.202 36H299.087L325.107 29.247L326.142 28.987V22.912L325.146 21.65C323.159 21.199 321.151 21 319.155 21C304.325 21.001 290.142 31.96 290.142 31.96Z" fill="white"/>
</mask>
<g mask="url(#mask14_5567_156261)">
<path d="M285.143 41H335.143V16H285.143V41Z" fill="#FFB18D"/>
</g>
<path d="M136.054 71.141C137.847 74.412 140.582 76.849 143.74 78.294C143.974 78.408 144.209 78.505 144.458 78.601C148.943 80.397 154.176 80.258 158.744 77.754C163.315 75.248 166.239 70.915 167.134 66.17C167.187 65.909 167.225 65.661 167.263 65.398C167.741 61.96 167.159 58.343 165.366 55.071C160.932 46.983 150.769 44.018 142.68 48.453C134.583 52.891 131.619 63.052 136.054 71.141Z" fill="#00AB4E"/>
<path d="M144.048 64.6512C145.796 67.8402 149.799 69.0082 152.988 67.2602C156.177 65.5122 157.344 61.5092 155.596 58.3202C153.849 55.1332 149.847 53.9642 146.657 55.7132C143.469 57.4622 142.3 61.4642 144.048 64.6512Z" fill="#BBF0D3"/>
<path d="M145.202 78.8696C149.505 80.3766 154.423 80.1236 158.745 77.7546C163.068 75.3846 165.919 71.3776 166.963 66.9396C162.691 64.8416 157.491 64.7926 152.991 67.2596C148.493 69.7246 145.728 74.1406 145.202 78.8696Z" fill="#BBF0D3"/>
<path d="M226.195 115.158C228.594 119.901 249.729 131.173 289.598 148.974L310.898 113.146L241.994 92.4853C239.67 91.8003 236.499 90.7473 233.471 92.4853C230.445 94.2213 222.595 108.043 226.195 115.158Z" fill="#63B5FA"/>
<path d="M290.016 33.0994C288.347 34.2924 287.342 36.1994 287.342 38.2444C287.342 40.3854 286.247 42.3804 284.437 43.5394C284.437 43.5394 276.311 48.9834 271.917 51.4464C270.505 52.2384 258.773 59.9244 256.586 72.9724C254.157 87.4704 244.603 157.071 243.656 161.052C243.628 161.167 243.598 161.281 243.564 161.394L241.621 171.907C240.414 175.945 249.462 179.999 253.699 179.999L340.559 179.615C343.506 179.615 346.062 177.598 346.728 174.743C351.295 155.157 367.54 82.3854 361.069 64.7934C353.572 44.4134 342.575 36.9574 340.076 35.4664C338.591 34.5804 336.843 30.9794 335.668 28.1994C334.745 26.0154 332.658 24.5424 330.281 24.3734C322.091 23.7884 303.21 23.6674 290.016 33.0994Z" fill="#3393E3"/>
<path d="M267.055 59.2342L266.18 60.7162C264.794 63.3912 263.561 67.5752 263.726 73.9262C264.089 87.8032 261.124 159.043 261.124 159.043L259.397 176.58L294.923 169.674L299.694 143.643C299.694 143.643 309.087 93.4682 297.534 72.4692C285.98 51.4702 267.055 59.2342 267.055 59.2342Z" fill="#1868AB"/>
<path d="M285.247 54.4505C274.566 48.8475 265.851 54.9435 260.146 67.9715C254.442 80.9995 254.442 160.2 254.442 160.2L250.956 183.766L289.835 177.903L297.03 145.314C297.03 145.314 309.637 91.6385 298.112 68.4865C294.451 61.1335 289.838 56.8595 285.247 54.4505Z" fill="#63B5FA"/>
<mask id="mask15_5567_156261" style="mask-type:alpha" maskUnits="userSpaceOnUse" x="287" y="-1" width="34" height="18">
<path fill-rule="evenodd" clip-rule="evenodd" d="M287.895 -1C287.89 -0.775 287.887 -0.547 287.885 -0.315C287.868 1.749 299.348 13.973 299.781 14.489C301.333 16.344 303.754 17.299 306.18 16.916C309.776 16.35 310.345 15.79 312.04 15.09L318.9 12.26C320.055 11.783 320.499 10.381 319.827 9.328L319.142 8.252C318.559 7.338 318.341 6.24 318.539 5.174C318.792 3.817 319.141 1.671 319.41 -1H287.895Z" fill="white"/>
</mask>
<g mask="url(#mask15_5567_156261)">
<path d="M263.143 22H325.143V-54H263.143V22Z" fill="#864B16"/>
</g>
<mask id="mask16_5567_156261" style="mask-type:alpha" maskUnits="userSpaceOnUse" x="182" y="68" width="25" height="13">
<path fill-rule="evenodd" clip-rule="evenodd" d="M185.564 68C185.542 68 185.52 68 185.499 68.001C183.821 68.067 182.142 68.132 182.142 68.132C182.142 68.132 186.569 69.685 188.621 70.64C190.672 71.595 193.111 73.916 193.808 74.579C194.504 75.243 197.253 76.86 200.336 78.465C203.42 80.071 206.143 81 206.143 81L204.376 78.653C204.376 78.653 201.253 76.013 199.898 75.721C198.543 75.43 192.311 70.496 192.311 70.496C192.311 70.496 187.307 68 185.565 68C185.565 68 185.565 68 185.564 68Z" fill="white"/>
</mask>
<g mask="url(#mask16_5567_156261)">
<path d="M177.143 86H211.143V63H177.143V86Z" fill="#FFB18D"/>
</g>
<mask id="mask17_5567_156261" style="mask-type:alpha" maskUnits="userSpaceOnUse" x="132" y="35" width="38" height="20">
<path fill-rule="evenodd" clip-rule="evenodd" d="M132.382 41.364L166.847 54.357L169.199 48.116L134.734 35.123L132.382 41.364Z" fill="white"/>
</mask>
<g mask="url(#mask17_5567_156261)">
<path d="M127.382 59.357H174.199V30.123H127.382V59.357Z" fill="#EAFFF2"/>
</g>
<mask id="mask18_5567_156261" style="mask-type:alpha" maskUnits="userSpaceOnUse" x="167" y="114" width="19" height="46">
<path fill-rule="evenodd" clip-rule="evenodd" d="M171.143 116.033C169.615 120.151 168.631 123.395 168.19 125.769C166.767 133.406 167.488 138.841 167.488 138.841C167.627 153.007 184.694 159.568 184.694 159.568C184.694 159.568 188.589 146.222 182.529 142.385C182.322 142.254 182.34 141.034 182.146 140.9C181.502 140.451 180 135.804 179.496 135.426C176.141 132.905 175.957 134.409 176.499 129.485C177.995 115.892 177.715 115.691 175.937 114.964C175.347 114.723 174.776 114.603 174.223 114.603C173.124 114.603 172.097 115.079 171.143 116.033Z" fill="white"/>
</mask>
<g mask="url(#mask18_5567_156261)">
<path d="M153.483 116.242L179.485 107.289L197.758 160.359L171.756 169.312L153.483 116.242Z" fill="#FFD7B5"/>
</g>
<path d="M-19.6338 124.484H80.6852V6.48389H-19.6338V124.484Z" fill="#CBFCDB"/>
<path d="M179.775 162.621L275.633 215.256L292.392 185.843L207.508 150.278C196.889 145.829 184.674 150.83 180.225 161.45C180.063 161.835 179.914 162.226 179.775 162.621Z" fill="#63B5FA"/>
<path d="M40.5845 17.5942C39.8745 17.3672 39.1195 17.2512 38.3325 17.2512C34.8975 17.2512 32.0085 19.5452 31.1035 22.6792V22.6812H40.6405H45.5525H57.8685C58.1155 21.8522 58.2565 20.9672 58.2565 20.0522C58.2565 15.0832 54.2265 11.0552 49.2475 11.0552C45.1335 11.0552 41.6615 13.8232 40.5845 17.5942Z" fill="white"/>
<mask id="mask19_5567_156261" style="mask-type:alpha" maskUnits="userSpaceOnUse" x="-2" y="129" width="85" height="9">
<path fill-rule="evenodd" clip-rule="evenodd" d="M-1.85693 129.344H82.3041V137.839H-1.85693V129.344Z" fill="white"/>
</mask>
<g mask="url(#mask19_5567_156261)">
<path d="M-26.252 142.838H87.304V124.343H-26.252V142.838Z" fill="white"/>
</g>
<mask id="mask20_5567_156261" style="mask-type:alpha" maskUnits="userSpaceOnUse" x="162" y="52" width="11" height="10">
<path fill-rule="evenodd" clip-rule="evenodd" d="M162.884 58.2322L165.479 61.2252C166.276 62.1222 167.673 62.2232 168.571 61.4252L171.366 58.9302C172.263 58.1322 172.363 56.7352 171.565 55.8372L168.97 52.8442L162.884 58.2322Z" fill="white"/>
</mask>
<g mask="url(#mask20_5567_156261)">
<path d="M157.884 66.9662H177.106V47.8442H157.884V66.9662Z" fill="#1868AB"/>
</g>
<path d="M176.632 133.462C176.632 133.462 184.811 136.07 182.623 147.78" stroke="#FFB18D" stroke-width="0.75" stroke-linecap="round"/>
<path d="M168.124 126.702C168.124 126.702 166.682 135.317 168.487 138.841" stroke="#FFB18D" stroke-width="0.75" stroke-linecap="round"/>
<path fill-rule="evenodd" clip-rule="evenodd" d="M171.142 42.2038C171.142 52.8738 162.493 61.5238 151.823 61.5238C141.152 61.5238 132.502 52.8738 132.502 42.2038C132.502 31.5338 141.152 22.8838 151.823 22.8838C162.493 22.8838 171.142 31.5338 171.142 42.2038Z" stroke="#1868AB" stroke-width="3.705"/>
<mask id="mask21_5567_156261" style="mask-type:alpha" maskUnits="userSpaceOnUse" x="-2" y="67" width="85" height="3">
<path fill-rule="evenodd" clip-rule="evenodd" d="M-1.85693 67.9712H82.3041V69.3862H-1.85693V67.9712Z" fill="white"/>
</mask>
<g mask="url(#mask21_5567_156261)">
<path d="M-26.252 74.3872H87.304V62.9722H-26.252V74.3872Z" fill="#EDFFF5"/>
</g>
<path d="M25.9713 84.1207C24.7503 81.0627 21.7603 78.9087 18.2663 78.9087C14.7103 78.9087 11.6813 81.1387 10.4923 84.2717C9.60426 83.7887 8.58526 83.5177 7.50126 83.5177C4.02926 83.5177 1.21826 86.3287 1.21826 89.7927C1.21826 90.0787 1.24226 90.3657 1.28026 90.6437H10.7023H13.7153H19.8853H25.8203H31.1303C31.1763 90.3657 31.1993 90.0787 31.1993 89.7927C31.1993 86.8107 28.9013 84.3537 25.9713 84.1207Z" fill="white"/>
<path d="M-21.8569 10.0129H93.1961V5.10986H-21.8569V10.0129Z" fill="#84D7CC"/>
<path d="M95.2189 12.695H94.1649C92.9479 12.695 91.9619 11.709 91.9619 10.49V4.32902C91.9619 3.11202 92.9479 2.12402 94.1649 2.12402H95.2189C96.4369 2.12402 97.4219 3.11202 97.4219 4.32902V10.49C97.4219 11.709 96.4369 12.695 95.2189 12.695Z" fill="#84D7CC"/>
<mask id="mask22_5567_156261" style="mask-type:alpha" maskUnits="userSpaceOnUse" x="83" y="39" width="6" height="6">
<path fill-rule="evenodd" clip-rule="evenodd" d="M83.7373 42.4169C83.7373 43.8419 84.8933 44.9969 86.3173 44.9969C87.7413 44.9969 88.8953 43.8419 88.8953 42.4169C88.8953 40.9939 87.7413 39.8389 86.3173 39.8389C84.8933 39.8389 83.7373 40.9939 83.7373 42.4169Z" fill="white"/>
</mask>
<g mask="url(#mask22_5567_156261)">
<path d="M78.7383 49.9969H93.8953V34.8379H78.7383V49.9969Z" fill="#84D7CC"/>
</g>
<path d="M86.0971 7.48486L86.4321 40.3769" stroke="#84D7CC" stroke-width="1.077"/>
<path d="M-19.6177 131.524H80.6223" stroke="#84D7CC" stroke-width="1.077"/>
<path d="M-17.937 138.244H82.302" stroke="#BBF0D3" stroke-width="2.24"/>
<mask id="mask23_5567_156261" style="mask-type:alpha" maskUnits="userSpaceOnUse" x="50" y="91" width="12" height="23">
<path fill-rule="evenodd" clip-rule="evenodd" d="M51.6002 113.756C66.3692 102.679 59.4382 91.2383 59.4382 91.2383C47.2942 102.394 51.6002 113.756 51.6002 113.756Z" fill="white"/>
</mask>
<g mask="url(#mask23_5567_156261)">
<path d="M45.8594 118.756H66.0634V86.2383H45.8594V118.756Z" fill="#84D7CC"/>
</g>
<mask id="mask24_5567_156261" style="mask-type:alpha" maskUnits="userSpaceOnUse" x="38" y="97" width="15" height="20">
<path fill-rule="evenodd" clip-rule="evenodd" d="M52.2501 116.774C52.2271 98.3112 38.9131 97.0112 38.9131 97.0112C40.5721 113.419 52.2501 116.774 52.2501 116.774Z" fill="white"/>
</mask>
<g mask="url(#mask24_5567_156261)">
<path d="M33.9121 121.774H57.2501V92.0112H33.9121V121.774Z" fill="#84D7CC"/>
</g>
<path fill-rule="evenodd" clip-rule="evenodd" d="M59.9233 113.228H39.7363V122.225C39.7363 126.337 43.0693 129.67 47.1803 129.67H52.4783C56.5913 129.67 59.9233 126.337 59.9233 122.225V113.228Z" fill="#96E2D5"/>
<mask id="mask25_5567_156261" style="mask-type:alpha" maskUnits="userSpaceOnUse" x="44" y="111" width="9" height="3">
<path fill-rule="evenodd" clip-rule="evenodd" d="M46.407 113.227H52.093L51.962 112.35L44.834 111.823L46.407 113.227Z" fill="white"/>
</mask>
<g mask="url(#mask25_5567_156261)">
<path d="M39.834 118.227H57.093V106.823H39.834V118.227Z" fill="#EDFFF5"/>
</g>
<mask id="mask26_5567_156261" style="mask-type:alpha" maskUnits="userSpaceOnUse" x="44" y="111" width="9" height="3">
<path fill-rule="evenodd" clip-rule="evenodd" d="M46.407 113.227H52.093L51.962 112.349L44.835 111.823L46.407 113.227Z" fill="white"/>
</mask>
<g mask="url(#mask26_5567_156261)">
<path d="M33.54 135.011H66.824V86.2041H33.54V135.011Z" fill="#EDFFF5"/>
</g>
<mask id="mask27_5567_156261" style="mask-type:alpha" maskUnits="userSpaceOnUse" x="44" y="111" width="9" height="3">
<path fill-rule="evenodd" clip-rule="evenodd" d="M46.407 113.227H52.093L51.962 112.349L44.835 111.823L46.407 113.227Z" fill="white"/>
</mask>
<g mask="url(#mask27_5567_156261)">
<path d="M34.291 123.772H62.637V101.279H34.291V123.772Z" fill="#EDFFF5"/>
</g>
<mask id="mask28_5567_156261" style="mask-type:alpha" maskUnits="userSpaceOnUse" x="25" y="29" width="36" height="36">
<path fill-rule="evenodd" clip-rule="evenodd" d="M25.1431 46.9439C25.1431 56.6079 32.9781 64.4439 42.6431 64.4439C52.3071 64.4439 60.1431 56.6079 60.1431 46.9439C60.1431 37.2779 52.3071 29.4429 42.6431 29.4429C32.9781 29.4429 25.1431 37.2779 25.1431 46.9439Z" fill="white"/>
</mask>
<g mask="url(#mask28_5567_156261)">
<path d="M19.1909 70.3957H66.0949V23.4907H19.1909V70.3957Z" fill="#84D7CC"/>
</g>
<mask id="mask29_5567_156261" style="mask-type:alpha" maskUnits="userSpaceOnUse" x="26" y="29" width="34" height="34">
<path fill-rule="evenodd" clip-rule="evenodd" d="M26.251 45.835C26.251 55.134 33.788 62.671 43.086 62.671C52.383 62.671 59.922 55.134 59.922 45.835C59.922 36.538 52.383 29 43.086 29C33.788 29 26.251 36.538 26.251 45.835Z" fill="white"/>
</mask>
<g mask="url(#mask29_5567_156261)">
<path d="M20.2979 68.6229H65.8739V23.0479H20.2979V68.6229Z" fill="white"/>
</g>
<mask id="mask30_5567_156261" style="mask-type:alpha" maskUnits="userSpaceOnUse" x="71" y="96" width="36" height="35">
<path fill-rule="evenodd" clip-rule="evenodd" d="M71.9102 113.768C71.9102 123.285 79.6262 130.999 89.1432 130.999C98.6592 130.999 106.375 123.285 106.375 113.768C106.375 104.251 98.6592 96.5361 89.1432 96.5361C79.6262 96.5361 71.9102 104.251 71.9102 113.768Z" fill="white"/>
</mask>
<g mask="url(#mask30_5567_156261)">
<path d="M66.0493 136.861H112.237V90.6743H66.0493V136.861Z" fill="#84D7CC"/>
</g>
<mask id="mask31_5567_156261" style="mask-type:alpha" maskUnits="userSpaceOnUse" x="72" y="96" width="34" height="34">
<path fill-rule="evenodd" clip-rule="evenodd" d="M72.2002 112.858C72.2002 122.043 79.6452 129.488 88.8292 129.488C98.0122 129.488 105.457 122.043 105.457 112.858C105.457 103.675 98.0122 96.23 88.8292 96.23C79.6452 96.23 72.2002 103.675 72.2002 112.858Z" fill="white"/>
</mask>
<g mask="url(#mask31_5567_156261)">
<path d="M67.0771 135.609H112.579V90.1069H67.0771V135.609Z" fill="white"/>
</g>
<mask id="mask32_5567_156261" style="mask-type:alpha" maskUnits="userSpaceOnUse" x="72" y="96" width="34" height="34">
<path fill-rule="evenodd" clip-rule="evenodd" d="M72.2002 112.858C72.2002 122.043 79.6452 129.488 88.8292 129.488C98.0122 129.488 105.457 122.043 105.457 112.858C105.457 103.675 98.0122 96.23 88.8292 96.23C79.6452 96.23 72.2002 103.675 72.2002 112.858Z" fill="white"/>
</mask>
<g mask="url(#mask32_5567_156261)">
<path d="M98 105L96.0302 107.197L95.0838 113.98L93.9303 122.238C93.8712 123.209 93.0016 124 91.9842 124H80L81.3428 113.647L82.0467 108.253L82.2182 106.92C82.2833 105.859 83.2297 105 84.3359 105H98Z" fill="#3393E3"/>
</g>
<mask id="mask33_5567_156261" style="mask-type:alpha" maskUnits="userSpaceOnUse" x="72" y="96" width="34" height="34">
<path fill-rule="evenodd" clip-rule="evenodd" d="M72.2002 112.858C72.2002 122.043 79.6452 129.488 88.8292 129.488C98.0122 129.488 105.457 122.043 105.457 112.858C105.457 103.675 98.0122 96.23 88.8292 96.23C79.6452 96.23 72.2002 103.675 72.2002 112.858Z" fill="white"/>
</mask>
<g mask="url(#mask33_5567_156261)">
<path d="M92 124H80.4919C79.7646 124 79.1221 123.666 78.673 123.12C78.2227 122.578 77.9635 121.828 78.0042 121H90.2442L90.2029 121.836C90.145 123.032 90.9503 124 92 124Z" fill="#1868AB"/>
</g>
<mask id="mask34_5567_156261" style="mask-type:alpha" maskUnits="userSpaceOnUse" x="72" y="96" width="34" height="34">
<path fill-rule="evenodd" clip-rule="evenodd" d="M72.2002 112.858C72.2002 122.043 79.6452 129.488 88.8292 129.488C98.0122 129.488 105.457 122.043 105.457 112.858C105.457 103.675 98.0122 96.23 88.8292 96.23C79.6452 96.23 72.2002 103.675 72.2002 112.858Z" fill="white"/>
</mask>
<g mask="url(#mask34_5567_156261)">
<path d="M99.9694 107H96L96.0275 106.601C96.0887 105.717 97.0271 105 98.1226 105C99.2187 105 100.058 105.717 99.9968 106.601L99.9694 107Z" fill="#1868AB"/>
</g>
<mask id="mask35_5567_156261" style="mask-type:alpha" maskUnits="userSpaceOnUse" x="72" y="96" width="34" height="34">
<path fill-rule="evenodd" clip-rule="evenodd" d="M72.2002 112.858C72.2002 122.043 79.6452 129.488 88.8292 129.488C98.0122 129.488 105.457 122.043 105.457 112.858C105.457 103.675 98.0122 96.23 88.8292 96.23C79.6452 96.23 72.2002 103.675 72.2002 112.858Z" fill="white"/>
</mask>
<g mask="url(#mask35_5567_156261)">
<path fill-rule="evenodd" clip-rule="evenodd" d="M87.7206 113.472C87.7294 113.4 87.7113 113.283 87.6656 113.12C87.5227 112.652 87.4177 112.297 87.3517 112.058C87.714 111.729 87.9246 111.31 87.9851 110.8C88.0192 110.507 87.995 110.241 87.9114 110.002C87.8278 109.763 87.708 109.573 87.5524 109.433C87.2291 109.145 86.8777 109 86.4989 109H85.1035C84.828 109 84.6532 109.06 84.5784 109.183C84.5355 109.25 84.508 109.31 84.4959 109.362C84.4833 109.414 84.4706 109.492 84.4585 109.596L84.0148 113.351C83.9961 113.509 83.995 113.626 84.0121 113.703C84.044 113.87 84.21 113.953 84.5119 113.953C84.7873 113.953 84.9627 113.892 85.0369 113.77C85.0798 113.703 85.1073 113.643 85.12 113.591C85.1326 113.539 85.1452 113.461 85.1568 113.357L85.2475 112.593H86.0612L86.263 112.58C86.4698 113.31 86.5896 113.718 86.6221 113.804C86.6424 113.85 86.6776 113.893 86.7265 113.936C86.7749 113.979 86.8414 114 86.925 114C87.0091 114 87.1235 113.969 87.2692 113.906C87.5502 113.788 87.7003 113.644 87.7206 113.472ZM86.2157 111.395H85.3888L85.5307 110.197H86.3444C86.4775 110.197 86.6012 110.249 86.7139 110.35C86.8266 110.451 86.8711 110.601 86.848 110.8C86.8244 110.999 86.7447 111.147 86.6083 111.246C86.4714 111.345 86.3406 111.395 86.2157 111.395Z" fill="white"/>
</g>
<mask id="mask36_5567_156261" style="mask-type:alpha" maskUnits="userSpaceOnUse" x="72" y="96" width="34" height="34">
<path fill-rule="evenodd" clip-rule="evenodd" d="M72.2002 112.858C72.2002 122.043 79.6452 129.488 88.8292 129.488C98.0122 129.488 105.457 122.043 105.457 112.858C105.457 103.675 98.0122 96.23 88.8292 96.23C79.6452 96.23 72.2002 103.675 72.2002 112.858Z" fill="white"/>
</mask>
<g mask="url(#mask36_5567_156261)">
<path fill-rule="evenodd" clip-rule="evenodd" d="M88.5237 110.57L88.0186 114.437C88.0055 114.538 87.9989 114.614 88.0001 114.662C88.0007 114.711 88.0138 114.766 88.0411 114.828C88.0679 114.89 88.1226 114.933 88.2058 114.961C88.2878 114.987 88.4019 115 88.5457 115C88.6901 115 88.806 114.987 88.8933 114.961C88.9801 114.933 89.0455 114.888 89.0888 114.825C89.1322 114.76 89.1602 114.704 89.1738 114.656C89.1869 114.607 89.2006 114.532 89.2136 114.43L89.3884 113.092C89.534 113.296 89.7972 113.397 90.1793 113.397C90.5609 113.397 90.9424 113.228 91.3245 112.887C91.706 112.548 91.9259 112.152 91.9853 111.702C92.0442 111.252 91.9259 110.857 91.63 110.517C91.3346 110.177 90.9977 110.007 90.6179 110.007C90.2394 110.007 89.9458 110.122 89.739 110.351C89.7402 110.236 89.7015 110.149 89.6231 110.09C89.5447 110.03 89.3818 110 89.1358 110C88.8886 110 88.7252 110.06 88.6443 110.179C88.6039 110.241 88.5772 110.297 88.5635 110.344C88.5504 110.393 88.5368 110.468 88.5237 110.57ZM89.597 111.709C89.6154 111.567 89.6855 111.437 89.8085 111.318C89.9309 111.199 90.0819 111.139 90.2614 111.139C90.4396 111.139 90.5781 111.198 90.6744 111.315C90.7706 111.432 90.8099 111.563 90.7903 111.709C90.7718 111.855 90.6952 111.985 90.5621 112.1C90.4277 112.214 90.2762 112.272 90.1062 112.272C89.9363 112.272 89.8044 112.213 89.7105 112.096C89.616 111.979 89.5779 111.85 89.597 111.709Z" fill="white"/>
</g>
<mask id="mask37_5567_156261" style="mask-type:alpha" maskUnits="userSpaceOnUse" x="72" y="96" width="34" height="34">
<path fill-rule="evenodd" clip-rule="evenodd" d="M72.2002 112.858C72.2002 122.043 79.6452 129.488 88.8292 129.488C98.0122 129.488 105.457 122.043 105.457 112.858C105.457 103.675 98.0122 96.23 88.8292 96.23C79.6452 96.23 72.2002 103.675 72.2002 112.858Z" fill="white"/>
</mask>
<g mask="url(#mask37_5567_156261)">
<path d="M91.535 118H83.3631C83.1364 118 82.9752 117.776 83.0032 117.5C83.0317 117.224 83.2383 117 83.465 117H91.6369C91.8636 117 92.0248 117.224 91.9968 117.5C91.9683 117.776 91.7617 118 91.535 118Z" fill="#1868AB"/>
</g>
<mask id="mask38_5567_156261" style="mask-type:alpha" maskUnits="userSpaceOnUse" x="72" y="96" width="34" height="34">
<path fill-rule="evenodd" clip-rule="evenodd" d="M72.2002 112.858C72.2002 122.043 79.6452 129.488 88.8292 129.488C98.0122 129.488 105.457 122.043 105.457 112.858C105.457 103.675 98.0122 96.23 88.8292 96.23C79.6452 96.23 72.2002 103.675 72.2002 112.858Z" fill="white"/>
</mask>
<g mask="url(#mask38_5567_156261)">
<path d="M90.5438 120H84.3563C84.1338 120 83.9756 119.777 84.0031 119.501C84.0306 119.224 84.2338 119 84.4562 119H90.6437C90.8662 119 91.0244 119.224 90.9969 119.501C90.9689 119.777 90.7662 120 90.5438 120Z" fill="#1868AB"/>
</g>
<path d="M47.6253 57.2461L35.5323 57.1771C34.8843 57.1731 34.3613 56.6451 34.3653 55.9961L34.4633 38.7291C34.4673 38.0801 34.9963 37.5581 35.6453 37.561L47.7373 37.6301C48.3863 37.6341 48.9083 38.1631 48.9043 38.8111L48.8063 56.0791C48.8023 56.7271 48.2733 57.2501 47.6253 57.2461Z" fill="#4FBA6F"/>
<path d="M51.5366 36.1477L39.4436 36.0786C38.7956 36.0747 38.2666 36.5977 38.2636 37.2457L38.1646 54.5137C38.1606 55.1617 38.6836 55.6907 39.3326 55.6937L44.8376 55.7257C46.8236 55.4967 52.6416 48.2127 52.6516 46.4557L52.7046 37.3287C52.7086 36.6797 52.1846 36.1507 51.5366 36.1477Z" fill="#67D280"/>
<path d="M40.2305 40.4756L47.1495 40.5146L40.2305 40.4756Z" fill="#387942"/>
<path d="M40.2305 40.4756L47.1495 40.5146" stroke="#3392E2" stroke-width="0.361" stroke-linecap="round" stroke-linejoin="round"/>
<path d="M40.1973 46.1917L43.3863 46.2107L40.1973 46.1917Z" fill="#3392E2"/>
<path d="M40.1973 46.1917L43.3863 46.2107" stroke="white" stroke-width="0.361" stroke-linecap="round" stroke-linejoin="round"/>
<path d="M40.1641 52.0887L42.3301 52.1007L40.1641 52.0887Z" fill="#387942"/>
<path d="M40.1641 52.0887L42.3301 52.1007" stroke="#3392E2" stroke-width="0.361" stroke-linecap="round" stroke-linejoin="round"/>
<path d="M40.2139 43.2433L45.1489 43.2713L40.2139 43.2433Z" fill="#387942"/>
<path d="M40.2139 43.2433L45.1489 43.2713" stroke="#3392E2" stroke-width="0.361" stroke-linecap="round" stroke-linejoin="round"/>
<path d="M46.2314 43.3381L50.0214 43.3591L46.2314 43.3381Z" fill="#3392E2"/>
<path d="M46.2314 43.3381L50.0214 43.3591" stroke="white" stroke-width="0.361" stroke-linecap="round" stroke-linejoin="round"/>
<path d="M40.1807 49.1403L45.1147 49.1683L40.1807 49.1403Z" fill="#3392E2"/>
<path d="M40.1807 49.1403L45.1147 49.1683" stroke="white" stroke-width="0.361" stroke-linecap="round" stroke-linejoin="round"/>
<path d="M46.1973 49.2346L49.9883 49.2566L46.1973 49.2346Z" fill="#387942"/>
<path d="M46.1973 49.2346L49.9883 49.2566" stroke="#3392E2" stroke-width="0.361" stroke-linecap="round" stroke-linejoin="round"/>
<path d="M44.2891 46.2149L50.0051 46.2479L44.2891 46.2149Z" fill="#3392E2"/>
<path d="M44.2891 46.2149L50.0051 46.2479" stroke="white" stroke-width="0.361" stroke-linecap="round" stroke-linejoin="round"/>
<path d="M49.8334 49.5761C47.3054 51.6531 45.8114 51.9291 45.8114 51.9291C45.8114 51.9291 46.6754 52.6531 46.5974 53.5621C46.5194 54.4731 45.8254 55.4161 45.1724 55.7271C45.1724 55.7271 49.6364 54.4051 52.6514 46.4741C52.6514 46.4741 51.1854 48.4661 49.8334 49.5761Z" fill="#00843E"/>
</g>
</svg>
