<svg width="328" height="165" viewBox="0 0 328 165" fill="none" xmlns="http://www.w3.org/2000/svg">
<path d="M23.357 161.528C33.8085 163.686 264.948 165.84 301.735 161.528C312.625 160.252 321.342 148.335 322.614 146.267C330.566 133.335 327.584 53.5827 325.596 26.6388C324.526 12.138 309.689 5.62276 302.729 3.46744C289.419 -0.654539 53.3878 -0.819975 22.362 4.54557C8.4809 6.94533 3.44895 18.2657 2.44995 24.5578C0.119292 39.225 -1.25833 129.438 2.47792 141.59C5.46093 151.29 12.9174 159.373 23.357 161.528Z" fill="#E6F6ED"/>
<mask id="mask0_5567_150702" style="mask-type:alpha" maskUnits="userSpaceOnUse" x="0" y="0" width="328" height="165">
<path fill-rule="evenodd" clip-rule="evenodd" d="M23.357 161.528C33.8085 163.686 264.948 165.84 301.735 161.528C312.625 160.252 321.342 148.335 322.614 146.267C330.566 133.335 327.584 53.5827 325.596 26.6388C324.526 12.138 309.689 5.62276 302.729 3.46744C289.419 -0.654539 53.3878 -0.819975 22.362 4.54557C8.4809 6.94533 3.44895 18.2657 2.44995 24.5578C0.119292 39.225 -1.25833 129.438 2.47792 141.59C5.46093 151.29 12.9174 159.373 23.357 161.528Z" fill="white"/>
</mask>
<g mask="url(#mask0_5567_150702)">
<path d="M310.958 124.763H246.005C243.122 124.763 240.763 122.438 240.763 119.597V65.867C240.763 63.0256 243.122 60.7012 246.005 60.7012H310.958C313.842 60.7012 316.201 63.0256 316.201 65.867V119.597C316.201 122.438 313.842 124.763 310.958 124.763Z" fill="#BBF0D3"/>
<path d="M305.959 91.2508H250.61C249.104 91.2508 247.872 90.0371 247.872 88.5535V72.2857C247.872 70.8022 249.104 69.5879 250.61 69.5879H305.959C307.465 69.5879 308.697 70.8022 308.697 72.2857V88.5535C308.697 90.0371 307.465 91.2508 305.959 91.2508Z" fill="#E8FFFC"/>
<path d="M305.959 116.061H250.61C249.104 116.061 247.872 114.847 247.872 113.363V97.0957C247.872 95.6121 249.104 94.3984 250.61 94.3984H305.959C307.465 94.3984 308.697 95.6121 308.697 97.0957V113.363C308.697 114.847 307.465 116.061 305.959 116.061Z" fill="#E8FFFC"/>
<path d="M262.213 50.9974C262.213 50.9974 259.459 43.8399 267.225 36.811C267.225 36.811 271.657 44.0194 262.213 50.9974Z" fill="#C6EED5"/>
<path d="M262.629 52.8985C262.629 52.8985 255.162 50.7848 254.1 40.4482C254.1 40.4482 262.614 41.2675 262.629 52.8985Z" fill="#C6EED5"/>
<path d="M267.535 50.6646H254.628V56.3325C254.628 58.9232 256.758 61.0232 259.387 61.0232H262.775C265.404 61.0232 267.535 58.9232 267.535 56.3325V50.6646Z" fill="#DAF6E5"/>
<path d="M258.893 50.6644L257.888 49.7793L262.445 50.1114L262.528 50.6644H258.893Z" fill="#EAFFF2"/>
<path d="M281.221 81.5209C281.221 83.1187 279.906 84.4138 278.285 84.4138C276.663 84.4138 275.349 83.1187 275.349 81.5209C275.349 79.923 276.663 78.6279 278.285 78.6279C279.906 78.6279 281.221 79.923 281.221 81.5209Z" fill="#DAF6E5"/>
<path d="M281.418 105.11C281.418 106.708 280.104 108.003 278.482 108.003C276.86 108.003 275.546 106.708 275.546 105.11C275.546 103.512 276.86 102.217 278.482 102.217C280.104 102.217 281.418 103.512 281.418 105.11Z" fill="#DAF6E5"/>
<path d="M309.286 61.2696H293.476C290.981 61.2696 288.958 59.2767 288.958 56.8188H313.804C313.804 59.2767 311.781 61.2696 309.286 61.2696Z" fill="#E5EFAC"/>
<path d="M6.11719 88.4189H100.044V-9.40771H6.11719V88.4189Z" fill="#BBF0D3"/>
<path d="M10.8433 84.0132H95.3234V-5.00293H10.8433V84.0132Z" fill="#E8FFFC"/>
<path d="M93.3345 84.0132H95.3233V-5.00293H93.3345V84.0132Z" fill="#84D7CC"/>
<path d="M8.07471 63.49H98.0932V57.5776H8.07471V63.49Z" fill="#C0F9D0"/>
<path d="M8.07471 8.6772H98.0932V2.76416H8.07471V8.6772Z" fill="#BBF0D3"/>
<path d="M280.591 138.795H278.105V131.732H283.196L280.591 138.795Z" fill="#F0F0F0"/>
<path d="M272.591 138.795H275.077V131.732H269.986L272.591 138.795Z" fill="#F0F0F0"/>
<path d="M196.149 138.795H209.246V61.0083H196.149V138.795Z" fill="#97D5CB"/>
<path d="M233.256 67.9206C233.253 69.1415 234.242 70.135 235.465 70.1381C236.689 70.1419 237.683 69.1547 237.687 67.9332C237.69 66.711 236.701 65.7181 235.478 65.7144H235.465C234.247 65.7181 233.259 66.7034 233.256 67.9206Z" fill="#E0FFE9"/>
<path d="M244.478 67.9206C244.474 69.1415 245.463 70.135 246.687 70.1381C247.91 70.1419 248.905 69.1547 248.908 67.9332C248.911 66.711 247.923 65.7181 246.699 65.7144H246.687C245.468 65.7181 244.481 66.7034 244.478 67.9206Z" fill="#E0FFE9"/>
<path d="M209.567 138.795H207.074V131.732H212.172L209.567 138.795Z" fill="#F0F0F0"/>
<path d="M0.754395 180.126H348.322V100.213H0.754395V180.126Z" fill="#BBF0D3"/>
<path d="M140.298 70.0782C140.446 77.0557 134.901 82.8318 127.912 82.9795C120.925 83.1278 115.139 77.5911 114.991 70.6142C114.843 63.6367 120.388 57.8607 127.376 57.7124C134.365 57.5647 140.15 63.1007 140.298 70.0782Z" fill="#C69C45"/>
<path d="M99.4808 46.6257C101.477 48.262 102.129 51.0294 101.064 53.3782C98.358 59.3472 92.9065 70.0064 87.8256 71.686C80.7055 74.0393 67.3226 67.1642 67.3226 67.1642C67.3226 67.1642 66.5611 57.2679 80.4368 61.3794L87.9917 53.5102L98.8653 46.1211L99.4808 46.6257Z" fill="#E79E5C"/>
<path d="M105.412 54.7676L95.9724 72.2987C95.0113 74.0833 93.0792 75.1258 91.0576 74.9511L73.9438 73.47C73.9438 73.47 70.6013 61.703 86.4035 64.5621C87.2814 64.7211 88.104 64.1091 88.2406 63.2281C88.4357 61.9632 88.9052 60.2175 90.0318 58.8307C90.4213 58.3506 90.1312 57.6236 89.5201 57.5287C87.4532 57.2063 83.8004 56.2242 79.9826 53.2362C79.4363 52.8089 79.3508 52.014 79.7838 51.4724C80.4597 50.6266 81.4736 49.3585 82.3774 48.2274C83.7116 46.5585 85.253 45.0679 86.9667 43.7905C87.7333 43.2193 88.7271 43.0483 89.6409 43.3311L94.8489 44.9423L102.658 47.6795C105.561 48.6968 106.869 52.0618 105.412 54.7676Z" fill="#F1AE72"/>
<path d="M141.646 70.7047C141.794 77.6822 136.249 83.4583 129.26 83.6059C122.272 83.7542 116.487 78.2176 116.339 71.2407C116.191 64.2625 121.736 58.4871 128.724 58.3388C135.712 58.1912 141.498 63.7272 141.646 70.7047Z" fill="#E1C791"/>
<path d="M-45.0031 25.5408L30.2504 45.5516C31.3405 45.8419 32.496 45.7671 33.5389 45.3392L80.2777 26.1824C83.3653 24.9169 86.8237 24.8892 89.9315 26.1058C96.9521 28.8543 117.436 36.8259 120.796 38.9297C124.158 41.0329 137.943 54.3218 139.988 55.9751C144.719 59.7994 142.881 64.9062 135.805 63.7852C127.067 62.4015 120.805 50.698 117.979 49.8069C117.555 49.6731 117.12 49.5958 116.676 49.5751C113.654 49.4349 100.28 48.9241 92.0833 45.9719C90.7655 45.4969 89.3167 45.571 88.0579 46.1862C83.1702 48.5759 72.1934 55.5484 77.64 68.0701C78.2354 69.4387 79.4079 70.4718 80.834 70.9179C81.7963 71.2189 83.0733 71.5067 84.6883 71.6519C88.9296 72.0314 92.2608 73.8393 96.5122 74.6895C100.764 75.5384 113.389 71.9837 120.071 76.5388C120.137 76.584 120.204 76.6299 120.268 76.6758C124.569 79.7108 124.41 86.8951 119.164 86.4244C113.812 85.9437 102.871 85.5642 93.4604 86.0254C76.5915 86.8505 54.3011 96.6639 29.5273 78.1474C29.4184 78.0657 29.3158 77.974 29.2145 77.8829C28.8375 77.5436 27.2465 76.4678 21.7445 75.8017C15.887 75.0923 -42.2773 69.5751 -55.3254 68.3391C-57.0108 68.1795 -58.5131 67.2086 -59.3338 65.7294C-63.4304 58.351 -73.4386 35.654 -48.2148 25.7193C-47.1927 25.3178 -46.0642 25.2587 -45.0031 25.5408Z" fill="#F2CBA8"/>
<path d="M75.7839 84.2854C75.7839 84.2854 53.7258 86.6305 40.3913 78.9297C27.0569 71.2277 26.1167 71.2472 13.8622 70.0979C1.60779 68.9479 -59.1445 65.5371 -59.1445 65.5371L-59.4365 65.5434C-59.4025 65.6043 -59.3686 65.6672 -59.3358 65.7269C-58.5139 67.2067 -57.0097 68.1794 -55.3217 68.3397C-42.268 69.5757 15.8875 75.0922 21.7444 75.8017C27.2464 76.4678 28.8374 77.5435 29.215 77.8829C29.3157 77.974 29.4183 78.0657 29.5272 78.1468C54.301 96.6632 76.5914 86.8504 93.4603 86.0254C102.871 85.5642 113.812 85.9437 119.164 86.4238C120.273 86.5237 121.258 86.2968 122.084 85.8538C122.084 85.8538 113.748 77.8464 75.7839 84.2854Z" fill="#F1AE72"/>
<path d="M70.2534 67.4957C70.2534 67.4957 74.4645 66.467 77.6409 69.2024C79.5121 70.8135 82.1642 71.1843 84.5929 71.6373C86.8725 72.0628 89.9835 72.7521 93.484 73.831C95.0713 74.3199 96.7001 74.6668 98.3535 74.8276C100.874 75.0733 105.666 73.7914 115.559 74.521" stroke="#FFB490" stroke-width="0.94122" stroke-linecap="round" stroke-linejoin="round"/>
<path d="M86.1714 41.7979C88.5919 45.034 90.3523 45.6693 90.3523 45.6693" stroke="#FFB490" stroke-width="0.94122" stroke-linecap="round" stroke-linejoin="round"/>
<path d="M171.134 157.463L62.9612 148.4V133.294L171.134 137.826V157.463Z" fill="#84D7CC"/>
<path d="M228.328 114.037L213.853 127.861V112.152L228.328 98.9561V114.037Z" fill="#00AB4E"/>
<path d="M169.167 127.861H213.852V112.152H169.167V127.861Z" fill="#28D677"/>
<path d="M166.66 157.463L276.16 55.5705L274.71 48.686L166.66 139.563V157.463Z" fill="#117367"/>
<path d="M62.9609 135.432L166.66 143.694L274.71 48.686H214.521L62.9609 135.432Z" fill="#47A99C"/>
<path d="M252.174 16.6957L255.877 18.332L258.159 21.7755L259.706 17.9456L263.005 15.6036L259.304 13.9679L257.021 10.5244L255.474 14.3538L252.174 16.6957Z" fill="white"/>
<path d="M214.459 38.0488L216.555 38.9756L217.848 40.9255L218.724 38.7563L220.593 37.4304L218.496 36.5042L217.204 34.5537L216.328 36.7229L214.459 38.0488Z" fill="#FFD37B"/>
<path d="M192.981 109.371C192.981 114.419 186.471 118.512 178.44 118.512C170.409 118.512 163.899 114.419 163.899 109.371C163.899 104.322 170.409 100.229 178.44 100.229C186.471 100.229 192.981 104.322 192.981 109.371Z" fill="#C69C45"/>
<path d="M191.4 110.984H165.479C164.606 110.984 163.898 110.277 163.898 109.405V107.185C163.898 106.313 164.606 105.606 165.479 105.606H191.4C192.273 105.606 192.981 106.313 192.981 107.185V109.405C192.981 110.277 192.273 110.984 191.4 110.984Z" fill="#DD8A4F"/>
<path d="M192.981 107.22C192.981 112.268 186.471 116.361 178.44 116.361C170.409 116.361 163.899 112.268 163.899 107.22C163.899 102.171 170.409 98.0786 178.44 98.0786C186.471 98.0786 192.981 102.171 192.981 107.22Z" fill="#E1C791"/>
<path d="M172.41 128.492C172.41 133.54 165.9 137.633 157.87 137.633C149.839 137.633 143.329 133.54 143.329 128.492C143.329 123.443 149.839 119.351 157.87 119.351C165.9 119.351 172.41 123.443 172.41 128.492Z" fill="#C69C45"/>
<path d="M170.83 130.105H144.909C144.036 130.105 143.328 129.399 143.328 128.527V126.307C143.328 125.434 144.036 124.728 144.909 124.728H170.83C171.703 124.728 172.411 125.434 172.411 126.307V128.527C172.411 129.399 171.703 130.105 170.83 130.105Z" fill="#DD8A4F"/>
<path d="M172.41 126.341C172.41 131.389 165.9 135.482 157.87 135.482C149.839 135.482 143.329 131.389 143.329 126.341C143.329 121.292 149.839 117.2 157.87 117.2C165.9 117.2 172.41 121.292 172.41 126.341Z" fill="#E1C791"/>
<path d="M116.374 126.367C116.374 131.415 109.864 135.508 101.833 135.508C93.8026 135.508 87.2917 131.415 87.2917 126.367C87.2917 121.319 93.8026 117.226 101.833 117.226C109.864 117.226 116.374 121.319 116.374 126.367Z" fill="#C69C45"/>
<path d="M114.793 127.981H88.8726C87.9996 127.981 87.2922 127.274 87.2922 126.402V124.182C87.2922 123.31 87.9996 122.603 88.8726 122.603H114.793C115.667 122.603 116.374 123.31 116.374 124.182V126.402C116.374 127.274 115.667 127.981 114.793 127.981Z" fill="#DD8A4F"/>
<path d="M116.374 124.216C116.374 129.265 109.864 133.357 101.833 133.357C93.8026 133.357 87.2917 129.265 87.2917 124.216C87.2917 119.168 93.8026 115.075 101.833 115.075C109.864 115.075 116.374 119.168 116.374 124.216Z" fill="#E1C791"/>
<path d="M136.945 124.951C136.945 129.999 130.434 134.092 122.404 134.092C114.373 134.092 107.863 129.999 107.863 124.951C107.863 119.903 114.373 115.81 122.404 115.81C130.434 115.81 136.945 119.903 136.945 124.951Z" fill="#C69C45"/>
<path d="M135.363 126.564H109.443C108.57 126.564 107.863 125.857 107.863 124.986V122.766C107.863 121.893 108.57 121.187 109.443 121.187H135.363C136.236 121.187 136.944 121.893 136.944 122.766V124.986C136.944 125.857 136.236 126.564 135.363 126.564Z" fill="#DD8A4F"/>
<path d="M136.945 122.8C136.945 127.849 130.434 131.941 122.404 131.941C114.373 131.941 107.863 127.849 107.863 122.8C107.863 117.752 114.373 113.659 122.404 113.659C130.434 113.659 136.945 117.752 136.945 122.8Z" fill="#E1C791"/>
<path d="M130.561 118.577C130.561 123.625 124.05 127.719 116.02 127.719C107.989 127.719 101.479 123.625 101.479 118.577C101.479 113.529 107.989 109.436 116.02 109.436C124.05 109.436 130.561 113.529 130.561 118.577Z" fill="#C69C45"/>
<path d="M128.98 120.191H103.059C102.186 120.191 101.478 119.484 101.478 118.612V116.392C101.478 115.52 102.186 114.813 103.059 114.813H128.98C129.853 114.813 130.561 115.52 130.561 116.392V118.612C130.561 119.484 129.853 120.191 128.98 120.191Z" fill="#DD8A4F"/>
<path d="M130.561 116.426C130.561 121.475 124.05 125.568 116.02 125.568C107.989 125.568 101.479 121.475 101.479 116.426C101.479 111.378 107.989 107.285 116.02 107.285C124.05 107.285 130.561 111.378 130.561 116.426Z" fill="#E1C791"/>
<path d="M172.144 28.1184C172.144 37.8696 164.226 45.7746 154.46 45.7746C144.694 45.7746 136.777 37.8696 136.777 28.1184C136.777 18.3673 144.694 10.4629 154.46 10.4629C164.226 10.4629 172.144 18.3673 172.144 28.1184Z" fill="#67C380"/>
<path d="M172.144 25.9345C172.144 35.6857 164.226 43.5907 154.46 43.5907C144.694 43.5907 136.777 35.6857 136.777 25.9345C136.777 16.1833 144.694 8.27832 154.46 8.27832C164.226 8.27832 172.144 16.1833 172.144 25.9345Z" fill="white"/>
<path opacity="0.30299" fill-rule="evenodd" clip-rule="evenodd" d="M216.26 59.8035C213.805 59.0887 212.805 56.1555 214.312 54.0889L222.912 42.2916C223.84 41.0184 225.474 40.4738 226.98 40.9354L261.454 51.5038C263.774 52.215 264.787 54.9327 263.497 56.9893L256.198 68.6356C255.32 70.0351 253.62 70.6825 252.035 70.2208L216.26 59.8035Z" fill="#CC9D3F"/>
<path fill-rule="evenodd" clip-rule="evenodd" d="M216.193 57.9277C213.821 57.2359 212.788 54.4557 214.151 52.3945C215.314 50.6369 216.564 48.7738 217.27 47.8058C218.268 46.4364 220.589 43.5488 222.146 41.628C223.075 40.4828 224.597 40.0086 226.014 40.4143L261.679 50.625C263.984 51.2848 265.055 53.9304 263.844 55.9996C262.638 58.0614 261.287 60.3377 260.623 61.3524C259.788 62.6275 257.817 65.3025 256.42 67.1762C255.503 68.4058 253.919 68.9295 252.447 68.5003L216.193 57.9277Z" fill="#CC9D3F"/>
<mask id="mask1_5567_150702" style="mask-type:alpha" maskUnits="userSpaceOnUse" x="213" y="40" width="52" height="29">
<path fill-rule="evenodd" clip-rule="evenodd" d="M216.193 57.9277C213.821 57.2359 212.788 54.4557 214.151 52.3945C215.314 50.6369 216.564 48.7738 217.27 47.8058C218.268 46.4364 220.589 43.5488 222.146 41.628C223.075 40.4828 224.597 40.0086 226.014 40.4143L261.679 50.625C263.984 51.2848 265.055 53.9304 263.844 55.9996C262.638 58.0614 261.287 60.3377 260.623 61.3524C259.788 62.6275 257.817 65.3025 256.42 67.1762C255.503 68.4058 253.919 68.9295 252.447 68.5003L216.193 57.9277Z" fill="white"/>
</mask>
<g mask="url(#mask1_5567_150702)">
<path fill-rule="evenodd" clip-rule="evenodd" d="M216.407 56.5501C213.885 55.8251 212.905 52.7783 214.532 50.721L222.325 40.8655C223.265 39.6775 224.835 39.1827 226.287 39.6177L260.105 49.7515C262.465 50.4586 263.482 53.2311 262.138 55.2941L255.728 65.1358C254.842 66.4962 253.17 67.119 251.609 66.6702L216.407 56.5501Z" fill="#FFC54F"/>
<path fill-rule="evenodd" clip-rule="evenodd" d="M224.199 49.1566L225.226 52.9432C225.463 53.548 226.149 54.0233 226.922 54.118L232.965 55.6116C233.738 55.7063 234.422 55.3994 234.661 54.8525L238.125 49.707C238.364 49.16 238.105 48.4969 237.48 48.0636L232.351 45.9683C231.726 45.535 230.878 45.4311 230.253 45.7105L224.849 47.6724C224.225 47.9518 223.962 48.5517 224.199 49.1566Z" fill="#CC9D3F"/>
<path fill-rule="evenodd" clip-rule="evenodd" d="M240.401 60.6898C239.602 60.2679 239.353 59.243 239.87 58.5019L245.856 49.9125C246.291 49.2884 247.124 49.0863 247.796 49.4417C248.595 49.8637 248.843 50.8886 248.327 51.6297L242.341 60.219C241.906 60.8432 241.073 61.0453 240.401 60.6898Z" fill="#CC9D3F"/>
<path fill-rule="evenodd" clip-rule="evenodd" d="M246.06 62.3559C245.257 61.9461 244.991 60.9293 245.491 60.1792L251.736 50.7959C252.161 50.1575 252.998 49.9387 253.681 50.2875C254.483 50.6972 254.749 51.714 254.25 52.4642L248.004 61.8474C247.579 62.4858 246.743 62.7046 246.06 62.3559Z" fill="#CC9D3F"/>
</g>
<path opacity="0.197684" fill-rule="evenodd" clip-rule="evenodd" d="M197.146 64.1202C194.749 63.3718 193.785 60.4996 195.245 58.4552L204.818 45.0537C205.762 43.7322 207.459 43.1818 208.998 43.6978L234.859 52.3656C237.111 53.1202 238.072 55.773 236.827 57.7957L227.169 73.4909L197.146 64.1202Z" fill="#CC9D3F"/>
<path fill-rule="evenodd" clip-rule="evenodd" d="M197.559 62.1984C195.235 61.4753 194.237 58.7416 195.565 56.7008C196.89 54.6655 198.384 52.3973 199.196 51.2612C200.274 49.7512 202.788 46.5432 204.439 44.4531C205.378 43.2639 206.95 42.7779 208.399 43.2202L243.891 54.0543C246.156 54.7454 247.191 57.3576 246.002 59.4051C244.638 61.7523 243.035 64.4811 242.276 65.656C241.366 67.0656 239.211 70.0493 237.72 72.0922C236.793 73.3624 235.159 73.8969 233.658 73.4298L197.559 62.1984Z" fill="#CC9D3F"/>
<mask id="mask2_5567_150702" style="mask-type:alpha" maskUnits="userSpaceOnUse" x="194" y="43" width="53" height="31">
<path fill-rule="evenodd" clip-rule="evenodd" d="M197.559 62.1984C195.235 61.4753 194.237 58.7416 195.565 56.7008C196.89 54.6655 198.384 52.3973 199.196 51.2612C200.274 49.7512 202.788 46.5432 204.439 44.4531C205.378 43.2639 206.95 42.7779 208.399 43.2202L243.891 54.0543C246.156 54.7454 247.191 57.3576 246.002 59.4051C244.638 61.7523 243.035 64.4811 242.276 65.656C241.366 67.0656 239.211 70.0493 237.72 72.0922C236.793 73.3624 235.159 73.8969 233.658 73.4298L197.559 62.1984Z" fill="white"/>
</mask>
<g mask="url(#mask2_5567_150702)">
<path fill-rule="evenodd" clip-rule="evenodd" d="M197.785 60.6896C195.321 59.9342 194.371 56.9542 195.945 54.9143L204.655 43.6193C205.605 42.3872 207.227 41.8821 208.71 42.3565L242.373 53.1283C244.683 53.8675 245.664 56.5925 244.353 58.6318L237.097 69.921C236.202 71.3138 234.487 71.9411 232.903 71.4556L197.785 60.6896Z" fill="#FFC54F"/>
<path fill-rule="evenodd" clip-rule="evenodd" d="M206.116 52.6789L206.987 56.7748C207.2 57.4285 207.87 57.939 208.645 58.0366L215.177 59.2026C215.951 59.3002 216.653 58.9633 216.918 58.3691L220.101 53.8467C220.365 53.2526 220.133 52.5358 219.522 52.0705L214.464 49.1717C213.853 48.7064 213.004 48.5993 212.362 48.906L206.835 51.0667C206.194 51.3734 205.903 52.0252 206.116 52.6789Z" fill="#CC9D3F"/>
<path fill-rule="evenodd" clip-rule="evenodd" d="M221.88 65.0364C221.113 64.5957 220.885 63.5961 221.385 62.8665L227.917 53.3271C228.365 52.673 229.241 52.4731 229.928 52.8682C230.695 53.3089 230.923 54.3085 230.423 55.0381L223.891 64.5775C223.443 65.2316 222.567 65.4315 221.88 65.0364Z" fill="#CC9D3F"/>
<path fill-rule="evenodd" clip-rule="evenodd" d="M227.511 66.8071C226.739 66.3788 226.494 65.3858 226.978 64.6476L233.805 54.2393C234.242 53.5732 235.119 53.3567 235.816 53.7432C236.588 54.1715 236.832 55.1645 236.348 55.9026L229.522 66.311C229.085 66.9771 228.207 67.1936 227.511 66.8071Z" fill="#CC9D3F"/>
</g>
<g clip-path="url(#clip0_5567_150702)">
<path d="M159.938 24.3474C161.1 24.3474 162.092 24.7589 162.915 25.582C163.738 26.4051 164.15 27.3977 164.15 28.5597C164.15 29.7217 163.738 30.7142 162.915 31.5373C162.092 32.3604 161.1 32.772 159.938 32.772C158.768 32.772 157.771 32.3604 156.948 31.5373C156.125 30.7142 155.713 29.7217 155.713 28.5597C155.713 27.3977 156.125 26.4051 156.948 25.582C157.771 24.7589 158.768 24.3474 159.938 24.3474ZM158.182 15.5113H159.526L149.831 33.2319H148.487L158.182 15.5113ZM148.051 22.677C148.745 22.677 149.334 22.4349 149.818 21.9508C150.311 21.4585 150.557 20.8694 150.557 20.1835C150.557 19.4976 150.311 18.9126 149.818 18.4284C149.334 17.9362 148.745 17.69 148.051 17.69C147.365 17.69 146.776 17.9321 146.284 18.4163C145.8 18.9005 145.558 19.4895 145.558 20.1835C145.558 20.8694 145.8 21.4585 146.284 21.9508C146.776 22.4349 147.365 22.677 148.051 22.677ZM148.051 15.9591C149.221 15.9591 150.218 16.3747 151.041 17.2059C151.864 18.029 152.276 19.0215 152.276 20.1835C152.276 21.3455 151.864 22.3381 151.041 23.1612C150.218 23.9843 149.221 24.3958 148.051 24.3958C146.889 24.3958 145.897 23.9843 145.074 23.1612C144.25 22.3381 143.839 21.3455 143.839 20.1835C143.839 19.0215 144.25 18.029 145.074 17.2059C145.897 16.3747 146.889 15.9591 148.051 15.9591ZM159.938 31.0532C160.624 31.0532 161.209 30.8111 161.693 30.3269C162.185 29.8347 162.431 29.2456 162.431 28.5597C162.431 27.8738 162.185 27.2887 161.693 26.8046C161.209 26.3123 160.624 26.0662 159.938 26.0662C159.244 26.0662 158.651 26.3123 158.158 26.8046C157.674 27.2887 157.432 27.8738 157.432 28.5597C157.432 29.2456 157.674 29.8347 158.158 30.3269C158.651 30.8111 159.244 31.0532 159.938 31.0532Z" fill="#00AB4E"/>
</g>
<path d="M306.609 127.122C306.609 137.557 298.136 146.017 287.684 146.017C277.233 146.017 268.76 137.557 268.76 127.122C268.76 116.687 277.233 108.228 287.684 108.228C298.136 108.228 306.609 116.687 306.609 127.122Z" fill="#67C380"/>
<path d="M306.609 124.785C306.609 135.22 298.136 143.679 287.684 143.679C277.233 143.679 268.76 135.22 268.76 124.785C268.76 114.35 277.233 105.89 287.684 105.89C298.136 105.89 306.609 114.35 306.609 124.785Z" fill="white"/>
<g clip-path="url(#clip1_5567_150702)">
<path d="M294.685 125.122C295.928 125.122 296.991 125.562 297.872 126.443C298.752 127.324 299.193 128.386 299.193 129.63C299.193 130.873 298.752 131.936 297.872 132.816C296.991 133.697 295.928 134.138 294.685 134.138C293.433 134.138 292.366 133.697 291.485 132.816C290.605 131.936 290.164 130.873 290.164 129.63C290.164 128.386 290.605 127.324 291.485 126.443C292.366 125.562 293.433 125.122 294.685 125.122ZM292.807 115.666H294.245L283.869 134.63H282.431L292.807 115.666ZM281.964 123.334C282.707 123.334 283.337 123.075 283.856 122.557C284.382 122.03 284.646 121.4 284.646 120.666C284.646 119.932 284.382 119.306 283.856 118.788C283.337 118.261 282.707 117.997 281.964 117.997C281.23 117.997 280.6 118.256 280.073 118.775C279.555 119.293 279.296 119.923 279.296 120.666C279.296 121.4 279.555 122.03 280.073 122.557C280.6 123.075 281.23 123.334 281.964 123.334ZM281.964 116.145C283.217 116.145 284.283 116.59 285.164 117.479C286.045 118.36 286.485 119.422 286.485 120.666C286.485 121.909 286.045 122.972 285.164 123.852C284.283 124.733 283.217 125.174 281.964 125.174C280.721 125.174 279.659 124.733 278.778 123.852C277.897 122.972 277.457 121.909 277.457 120.666C277.457 119.422 277.897 118.36 278.778 117.479C279.659 116.59 280.721 116.145 281.964 116.145ZM294.685 132.298C295.419 132.298 296.045 132.039 296.563 131.521C297.09 130.994 297.353 130.364 297.353 129.63C297.353 128.896 297.09 128.27 296.563 127.752C296.045 127.225 295.419 126.961 294.685 126.961C293.942 126.961 293.308 127.225 292.781 127.752C292.263 128.27 292.004 128.896 292.004 129.63C292.004 130.364 292.263 130.994 292.781 131.521C293.308 132.039 293.942 132.298 294.685 132.298Z" fill="#FFC069"/>
</g>
<path d="M57.6645 125.319C57.6645 134.214 50.4418 141.426 41.5325 141.426C32.6225 141.426 25.3999 134.214 25.3999 125.319C25.3999 116.423 32.6225 109.212 41.5325 109.212C50.4418 109.212 57.6645 116.423 57.6645 125.319Z" fill="#67C380"/>
<path d="M57.6645 123.326C57.6645 132.222 50.4418 139.433 41.5325 139.433C32.6225 139.433 25.3999 132.222 25.3999 123.326C25.3999 114.431 32.6225 107.219 41.5325 107.219C50.4418 107.219 57.6645 114.431 57.6645 123.326Z" fill="white"/>
<g clip-path="url(#clip2_5567_150702)">
<path d="M47.3523 121.338C48.4124 121.338 49.3179 121.713 50.0688 122.464C50.8197 123.215 51.1951 124.121 51.1951 125.181C51.1951 126.241 50.8197 127.146 50.0688 127.897C49.3179 128.648 48.4124 129.023 47.3523 129.023C46.2849 129.023 45.3757 128.648 44.6248 127.897C43.874 127.146 43.4985 126.241 43.4985 125.181C43.4985 124.121 43.874 123.215 44.6248 122.464C45.3757 121.713 46.2849 121.338 47.3523 121.338ZM45.7512 113.277H46.9769L38.1319 129.443H36.9061L45.7512 113.277ZM36.5086 119.814C37.1417 119.814 37.6791 119.593 38.1208 119.151C38.5699 118.702 38.7944 118.165 38.7944 117.539C38.7944 116.913 38.5699 116.38 38.1208 115.938C37.6791 115.489 37.1417 115.264 36.5086 115.264C35.8829 115.264 35.3455 115.485 34.8964 115.927C34.4547 116.369 34.2339 116.906 34.2339 117.539C34.2339 118.165 34.4547 118.702 34.8964 119.151C35.3455 119.593 35.8829 119.814 36.5086 119.814ZM36.5086 113.685C37.5761 113.685 38.4852 114.065 39.2361 114.823C39.987 115.574 40.3624 116.479 40.3624 117.539C40.3624 118.599 39.987 119.505 39.2361 120.256C38.4852 121.007 37.5761 121.382 36.5086 121.382C35.4485 121.382 34.543 121.007 33.7922 120.256C33.0413 119.505 32.6658 118.599 32.6658 117.539C32.6658 116.479 33.0413 115.574 33.7922 114.823C34.543 114.065 35.4485 113.685 36.5086 113.685ZM47.3523 127.455C47.9781 127.455 48.5118 127.235 48.9535 126.793C49.4026 126.344 49.6271 125.806 49.6271 125.181C49.6271 124.555 49.4026 124.021 48.9535 123.579C48.5118 123.13 47.9781 122.906 47.3523 122.906C46.7192 122.906 46.1782 123.13 45.7291 123.579C45.2874 124.021 45.0665 124.555 45.0665 125.181C45.0665 125.806 45.2874 126.344 45.7291 126.793C46.1782 127.235 46.7192 127.455 47.3523 127.455Z" fill="#47A99C"/>
</g>
<path fill-rule="evenodd" clip-rule="evenodd" d="M260.697 59.3935L259.001 60.3027L258.045 62.0182L257.172 60.2581L255.523 59.2678L257.218 58.3585L258.175 56.6431L259.048 58.4032L260.697 59.3935Z" fill="#FBD362"/>
</g>
<mask id="mask3_5567_150702" style="mask-type:alpha" maskUnits="userSpaceOnUse" x="6" y="-3" width="328" height="165">
<path fill-rule="evenodd" clip-rule="evenodd" d="M29.3509 158.536C39.8024 160.694 270.942 162.848 307.728 158.536C318.618 157.26 327.336 145.343 328.607 143.275C336.56 130.343 333.577 50.5905 331.589 23.6466C330.52 9.14581 315.682 2.63058 308.722 0.475251C295.413 -3.64673 59.3817 -3.81216 28.3559 1.55338C14.4748 3.95314 9.44285 15.2735 8.44385 21.5656C6.11319 36.2328 4.73557 126.446 8.47182 138.598C11.4548 148.298 18.9113 156.381 29.3509 158.536Z" fill="white"/>
</mask>
<g mask="url(#mask3_5567_150702)">
<path d="M205.288 9.81188L203.543 12.996L200.356 14.7367C199.829 15.0248 199.829 15.7793 200.356 16.0674L203.543 17.8081L205.288 20.9922C205.575 21.5181 206.333 21.5181 206.62 20.9922L208.364 17.8081L211.554 16.0674C212.08 15.7793 212.08 15.0248 211.554 14.7367L208.364 12.996L206.62 9.81188C206.333 9.28601 205.575 9.28601 205.288 9.81188Z" fill="#FFC54F"/>
</g>
<defs>
<clipPath id="clip0_5567_150702">
<rect width="23.9759" height="30.9202" fill="white" transform="translate(143.018 10.4146)"/>
</clipPath>
<clipPath id="clip1_5567_150702">
<rect width="24.9749" height="31.9176" fill="white" transform="translate(275.885 108.163)"/>
</clipPath>
<clipPath id="clip2_5567_150702">
<rect width="21.9779" height="26.9305" fill="white" transform="translate(31.1304 108.163)"/>
</clipPath>
</defs>
</svg>
