<svg width="100" height="100" viewBox="0 0 100 100" fill="none" xmlns="http://www.w3.org/2000/svg">
<mask id="mask0_5567_148447" style="mask-type:alpha" maskUnits="userSpaceOnUse" x="0" y="0" width="100" height="100">
<circle cx="50" cy="50" r="50" fill="#E6F6EA"/>
</mask>
<g mask="url(#mask0_5567_148447)">
<circle cx="50" cy="50" r="50" fill="#E6F6EA"/>
<rect x="37" y="20.9736" width="43" height="55.7554" rx="4" fill="#99DCAB"/>
<rect x="44" y="30.9302" width="29" height="3" rx="1.5" fill="#40BD63"/>
<rect x="44" y="41.8823" width="29" height="3" rx="1.5" fill="#40BD63"/>
<rect x="44" y="52.834" width="29" height="3" rx="1.5" fill="#40BD63"/>
<rect x="44" y="63.7861" width="29" height="3" rx="1.5" fill="#40BD63"/>
<path d="M29.7378 59.9641C23.8557 59.9641 18.7806 55.7973 17.6585 50.0512L13.113 32.3024C13.1079 32.2825 13.1035 32.2624 13.0995 32.2422C12.5476 29.3788 14.3444 26.5955 17.1897 25.9058L22.2172 24.6872C22.7713 24.5529 23.3283 24.891 23.463 25.4419C23.5977 25.9928 23.2585 26.5481 22.7051 26.6824L17.6777 27.901C15.9113 28.3291 14.7925 30.0501 15.1196 31.8271L19.6643 49.5733C19.6693 49.5932 19.6739 49.6133 19.6778 49.6335C20.6019 54.4297 24.8327 57.9108 29.7377 57.9108C34.6428 57.9108 38.8737 54.4297 39.7977 49.6335C39.8014 49.6133 39.8059 49.5932 39.8111 49.5733L44.3558 31.8271C44.6829 30.0501 43.5641 28.3291 41.7977 27.901L36.7703 26.6824C36.217 26.5483 35.8777 25.9928 36.0124 25.4419C36.147 24.891 36.7036 24.5528 37.2582 24.6872L42.2857 25.9058C45.131 26.5955 46.9278 29.3788 46.3759 32.2422C46.3721 32.2624 46.3677 32.2825 46.3625 32.3024L41.8171 50.0512C40.6949 55.7972 35.62 59.9641 29.7378 59.9641Z" fill="#BBBDC0"/>
<path d="M19.5652 26.4359C19.757 28.0791 22.3711 29.1268 24.0216 28.9358C25.672 28.7449 26.8545 27.2579 26.6627 25.6147C26.4709 23.9715 24.9774 22.7942 23.327 22.9851C21.6766 23.1761 19.3733 24.7927 19.5652 26.4359Z" fill="#939597"/>
<path d="M39.9103 26.4359C39.7185 28.0791 37.1044 29.1268 35.454 28.9358C33.8036 28.7449 32.6211 27.2579 32.8129 25.6147C33.0047 23.9715 34.4981 22.7942 36.1485 22.9851C37.7989 23.1761 40.1023 24.7927 39.9103 26.4359Z" fill="#939597"/>
<path d="M41.5159 90.9998C32.3636 90.9998 27.9176 83.5864 27.9176 74.4741L27.9184 60.9686C27.9184 60.7703 27.7745 60.6011 27.578 60.5684C23.4531 59.8808 19.8774 57.2417 18.0131 53.5087C17.7372 52.9567 17.7654 52.3109 18.0881 51.7811C18.4151 51.2444 18.9847 50.917 19.6121 50.9052L19.6451 50.9049C20.3274 50.9049 20.974 51.3118 21.2924 51.9414C22.9105 55.1391 26.1466 57.1257 29.7377 57.1257C33.3019 57.1257 36.6283 55.0682 38.212 51.884C38.5078 51.2892 39.1417 50.9049 39.827 50.9049C40.4629 50.9049 41.0428 51.2269 41.3784 51.7662C41.7099 52.2991 41.7416 52.9505 41.4626 53.5088C39.5984 57.2417 36.0228 59.8807 31.8976 60.5684L31.8324 60.575C31.6244 60.5961 31.4662 60.7707 31.4662 60.979L31.4717 74.4717C31.4717 81.6354 34.3233 87.4613 41.5159 87.4613H46.2924C53.4965 87.4613 56.3365 81.6468 56.3365 74.4742V43.9624H59.8906V74.4739C59.8906 83.6008 55.4592 90.9998 46.2923 90.9998H41.5159Z" fill="#407972"/>
<path d="M58.4418 51.0437C62.5518 51.0437 65.8836 47.7264 65.8836 43.6344C65.8836 39.5424 62.5518 36.2251 58.4418 36.2251C54.3318 36.2251 51 39.5424 51 43.6344C51 47.7264 54.3318 51.0437 58.4418 51.0437Z" fill="#407972"/>
<path d="M58.4417 46.5212C60.0429 46.5212 61.3409 45.2288 61.3409 43.6346C61.3409 42.0404 60.0429 40.748 58.4417 40.748C56.8405 40.748 55.5425 42.0404 55.5425 43.6346C55.5425 45.2288 56.8405 46.5212 58.4417 46.5212Z" fill="#F1F8EC"/>
<path d="M83.5 24.4585C83.5 29.4041 79.4726 33.417 74.5 33.417C69.5274 33.417 65.5 29.4041 65.5 24.4585C65.5 19.5129 69.5274 15.5 74.5 15.5C79.4726 15.5 83.5 19.5129 83.5 24.4585Z" fill="white" stroke="#99DCAB"/>
<path d="M76 22.9712H77.5283C77.9686 22.9712 78.2893 23.0277 78.4906 23.1406C78.6918 23.241 78.8239 23.3979 78.8868 23.6113C78.9623 23.8246 79 24.1133 79 24.4772C79 24.8286 78.9686 25.111 78.9057 25.3243C78.8428 25.5377 78.7358 25.6883 78.5849 25.7761C78.3585 25.8891 78.0377 25.9455 77.6226 25.9455H76V27.4704C76 27.9096 75.9434 28.2296 75.8302 28.4304C75.7296 28.6312 75.5723 28.7693 75.3585 28.8446C75.1447 28.9073 74.8553 28.9387 74.4906 28.9387C74.1384 28.9387 73.8553 28.9073 73.6415 28.8446C73.4277 28.7693 73.2767 28.6501 73.1887 28.4869C73.0755 28.2485 73.0189 27.9033 73.0189 27.4515V25.9455H71.3774C70.9623 25.9455 70.6604 25.8953 70.4717 25.7949C70.283 25.6945 70.1572 25.5377 70.0943 25.3243C70.0314 25.0984 70 24.8098 70 24.4584C70 24.107 70.0314 23.8246 70.0943 23.6113C70.1698 23.3854 70.2956 23.2285 70.4717 23.1406C70.7107 23.0277 71.0566 22.9712 71.5094 22.9712H73.0189V21.4464C73.0189 21.0071 73.0692 20.6871 73.1698 20.4863C73.2704 20.2855 73.4277 20.1537 73.6415 20.091C73.8679 20.0157 74.1572 19.978 74.5094 19.978C74.8616 19.978 75.1447 20.0157 75.3585 20.091C75.5849 20.1537 75.7421 20.2667 75.8302 20.4298C75.9434 20.6683 76 21.0134 76 21.4652V22.9712Z" fill="#AE1E22"/>
</g>
</svg>
