<svg width="328" height="164" viewBox="0 0 328 164" fill="none" xmlns="http://www.w3.org/2000/svg">
<path d="M23.2189 161.504C33.6809 163.667 265.053 165.826 301.876 161.504C312.777 160.224 321.503 148.276 322.776 146.203C330.736 133.238 327.751 53.2794 325.761 26.266C324.69 11.7278 309.838 5.19571 302.871 3.03482C289.548 -1.09779 53.2799 -1.26366 22.2229 4.11573C8.32787 6.52168 3.29087 17.8712 2.29087 24.1796C-0.0421274 38.8847 -1.42113 129.331 2.31887 141.514C5.30487 151.239 12.7689 159.343 23.2189 161.504Z" fill="#E6F6ED"/>
<mask id="mask0_5567_160792" style="mask-type:alpha" maskUnits="userSpaceOnUse" x="0" y="0" width="328" height="164">
<path fill-rule="evenodd" clip-rule="evenodd" d="M23.2189 161.504C33.6809 163.667 265.053 165.826 301.876 161.504C312.777 160.224 321.503 148.276 322.776 146.203C330.736 133.238 327.751 53.2794 325.761 26.266C324.69 11.7278 309.838 5.19571 302.871 3.03482C289.548 -1.09779 53.2799 -1.26366 22.2229 4.11573C8.32787 6.52168 3.29087 17.8712 2.29087 24.1796C-0.0421274 38.8847 -1.42113 129.331 2.31887 141.514C5.30487 151.239 12.7689 159.343 23.2189 161.504Z" fill="white"/>
</mask>
<g mask="url(#mask0_5567_160792)">
<rect x="1" y="130" width="353" height="65" fill="#EBFFE0"/>
<path d="M322.109 142.643H257.09C254.204 142.643 251.843 140.313 251.843 137.464V83.5952C251.843 80.7464 254.204 78.416 257.09 78.416H322.109C324.996 78.416 327.357 80.7464 327.357 83.5952V137.464C327.357 140.313 324.996 142.643 322.109 142.643Z" fill="#C6EED5"/>
<path d="M317.104 109.044H261.699C260.192 109.044 258.959 107.828 258.959 106.34V90.0305C258.959 88.5431 260.192 87.3257 261.699 87.3257H317.104C318.612 87.3257 319.845 88.5431 319.845 90.0305V106.34C319.845 107.828 318.612 109.044 317.104 109.044Z" fill="#EAFFF2"/>
<path d="M317.104 133.918H261.699C260.192 133.918 258.959 132.702 258.959 131.214V114.904C258.959 113.417 260.192 112.2 261.699 112.2H317.104C318.612 112.2 319.845 113.417 319.845 114.904V131.214C319.845 132.702 318.612 133.918 317.104 133.918Z" fill="#EAFFF2"/>
<path d="M305.315 65.6871C305.315 65.6871 302.557 58.5111 310.331 51.4641C310.331 51.4641 314.768 58.6911 305.315 65.6871Z" fill="#C6EED5"/>
<path d="M305.731 67.5932C305.731 67.5932 298.257 65.474 297.194 55.1108C297.194 55.1108 305.716 55.9322 305.731 67.5932Z" fill="#C6EED5"/>
<path d="M310.642 65.3535H297.722V71.0361C297.722 73.6335 299.855 75.7389 302.486 75.7389H305.877C308.509 75.7389 310.642 73.6335 310.642 71.0361V65.3535Z" fill="#DAF6E5"/>
<path d="M292.342 99.2896C292.342 100.892 291.026 102.19 289.403 102.19C287.78 102.19 286.464 100.892 286.464 99.2896C286.464 97.6876 287.78 96.3892 289.403 96.3892C291.026 96.3892 292.342 97.6876 292.342 99.2896Z" fill="#DAF6E5"/>
<path d="M292.539 122.94C292.539 124.542 291.224 125.84 289.6 125.84C287.977 125.84 286.661 124.542 286.661 122.94C286.661 121.338 287.977 120.039 289.6 120.039C291.224 120.039 292.539 121.338 292.539 122.94Z" fill="#DAF6E5"/>
<path d="M312.435 78.9859H296.609C294.112 78.9859 292.087 76.9879 292.087 74.5237H316.957C316.957 76.9879 314.933 78.9859 312.435 78.9859Z" fill="#DAF6E5"/>
<path d="M4.63672 100.852H67.6481V21.9541H4.63672V100.852Z" fill="#BBF0D3"/>
<mask id="mask1_5567_160792" style="mask-type:alpha" maskUnits="userSpaceOnUse" x="46" y="27" width="18" height="9">
<path fill-rule="evenodd" clip-rule="evenodd" d="M52.5103 31.8295C52.0645 31.6879 51.5905 31.6135 51.0955 31.6135C48.9379 31.6135 47.1241 33.0547 46.5547 35.0233V35.0251H52.5451H55.6309H63.3661C63.5215 34.5031 63.6097 33.9481 63.6097 33.3733C63.6097 30.2521 61.0789 27.7219 57.9517 27.7219C55.3669 27.7219 53.1871 29.4607 52.5103 31.8295Z" fill="white"/>
</mask>
<g mask="url(#mask1_5567_160792)">
<path d="M43.1709 38.4085H66.9939V24.3379H43.1709V38.4085Z" fill="#EDFFF5"/>
</g>
<path d="M3.62109 104.843H68.6647V99.5071H3.62109V104.843Z" fill="white"/>
<path d="M3.62109 61.8476H68.6647V60.959H3.62109V61.8476Z" fill="#EDFFF5"/>
<path d="M30.7689 71.1027C30.0021 69.1821 28.1241 67.8291 25.9293 67.8291C23.6955 67.8291 21.7935 69.2295 21.0459 71.1975C20.4885 70.8939 19.8489 70.7247 19.1685 70.7247C16.9869 70.7247 15.2217 72.4893 15.2217 74.6649C15.2217 74.8449 15.2367 75.0255 15.2601 75.2001H21.1791H23.0709H26.9463H30.6735H34.0095C34.0377 75.0255 34.0521 74.8449 34.0521 74.6649C34.0521 72.7917 32.6091 71.2497 30.7689 71.1027Z" fill="white"/>
<path d="M3.24023 24.5553H75.5048V21.4761H3.24023V24.5553Z" fill="#84D7CC"/>
<path d="M76.7759 26.2401H76.1141C75.3503 26.2401 74.7305 25.6203 74.7305 24.8553V20.9847C74.7305 20.2197 75.3503 19.5999 76.1141 19.5999H76.7759C77.5409 19.5999 78.1601 20.2197 78.1601 20.9847V24.8553C78.1601 25.6203 77.5409 26.2401 76.7759 26.2401Z" fill="#84D7CC"/>
<path d="M72.8048 44.9083C72.8048 45.8029 72.08 46.5289 71.1854 46.5289C70.2908 46.5289 69.5654 45.8029 69.5654 44.9083C69.5654 44.0143 70.2908 43.2883 71.1854 43.2883C72.08 43.2883 72.8048 44.0143 72.8048 44.9083Z" fill="#84D7CC"/>
<path d="M71.047 22.967L71.2576 43.6268" stroke="#84D7CC" stroke-width="0.6768"/>
<path d="M46.8662 89.7168C46.8662 89.7168 44.1608 82.5804 51.7892 75.573C51.7892 75.573 56.1434 82.7592 46.8662 89.7168Z" fill="#84D7CC"/>
<path d="M47.2747 91.612C47.2747 91.612 39.9397 89.5048 38.8975 79.1992C38.8975 79.1992 47.2603 80.0158 47.2747 91.612Z" fill="#84D7CC"/>
<path d="M52.0948 89.3848H39.415V95.0356C39.415 97.6186 41.5084 99.712 44.0908 99.712H47.4184C50.0014 99.712 52.0948 97.6186 52.0948 95.0356V89.3848Z" fill="#DAF6E5"/>
<path d="M43.6048 89.3847L42.6172 88.5021L47.0938 88.8333L47.176 89.3847H43.6048Z" fill="#EDFFF5"/>
<mask id="mask2_5567_160792" style="mask-type:alpha" maskUnits="userSpaceOnUse" x="42" y="88" width="6" height="2">
<path fill-rule="evenodd" clip-rule="evenodd" d="M43.6054 89.3847H47.1766L47.0938 88.8333L42.6172 88.5021L43.6054 89.3847Z" fill="white"/>
</mask>
<g mask="url(#mask2_5567_160792)">
<path d="M38.6641 99.9268H53.2891V75.5518H38.6641V99.9268Z" fill="#EDFFF5"/>
</g>
<mask id="mask3_5567_160792" style="mask-type:alpha" maskUnits="userSpaceOnUse" x="42" y="88" width="6" height="2">
<path fill-rule="evenodd" clip-rule="evenodd" d="M43.6054 89.3847H47.1766L47.0938 88.8333L42.6172 88.5021L43.6054 89.3847Z" fill="white"/>
</mask>
<g mask="url(#mask3_5567_160792)">
<path d="M39.1357 92.8671H50.6587V85.0203H39.1357V92.8671Z" fill="#EDFFF5"/>
</g>
<path d="M2.64746 100.852H67.6475V21.9541H2.64746V100.852Z" fill="#BBF0D3"/>
<mask id="mask4_5567_160792" style="mask-type:alpha" maskUnits="userSpaceOnUse" x="46" y="27" width="18" height="9">
<path fill-rule="evenodd" clip-rule="evenodd" d="M52.5103 31.8295C52.0645 31.6879 51.5905 31.6135 51.0955 31.6135C48.9379 31.6135 47.1241 33.0547 46.5547 35.0233V35.0251H52.5451H55.6309H63.3661C63.5215 34.5031 63.6097 33.9481 63.6097 33.3733C63.6097 30.2521 61.0789 27.7219 57.9517 27.7219C55.3669 27.7219 53.1871 29.4607 52.5103 31.8295Z" fill="white"/>
</mask>
<g mask="url(#mask4_5567_160792)">
<path d="M43.1709 38.4085H66.9939V24.3379H43.1709V38.4085Z" fill="#EDFFF5"/>
</g>
<path d="M-0.335938 104.507H68.6641V99.5071H-0.335938V104.507Z" fill="white"/>
<path d="M0.664062 62.959H68.6641V60.959H0.664062V62.959Z" fill="#EDFFF5"/>
<path d="M30.7689 71.1027C30.0021 69.1821 28.1241 67.8291 25.9293 67.8291C23.6955 67.8291 21.7935 69.2295 21.0459 71.1975C20.4885 70.8939 19.8489 70.7247 19.1685 70.7247C16.9869 70.7247 15.2217 72.4893 15.2217 74.6649C15.2217 74.8449 15.2367 75.0255 15.2601 75.2001H21.1791H23.0709H26.9463H30.6735H34.0095C34.0377 75.0255 34.0521 74.8449 34.0521 74.6649C34.0521 72.7917 32.6091 71.2497 30.7689 71.1027Z" fill="white"/>
<path d="M-0.495117 24.4761H75.5049V21.4761H-0.495117V24.4761Z" fill="#84D7CC"/>
<path d="M76.7759 26.2401H76.1141C75.3503 26.2401 74.7305 25.6203 74.7305 24.8553V20.9847C74.7305 20.2197 75.3503 19.5999 76.1141 19.5999H76.7759C77.5409 19.5999 78.1601 20.2197 78.1601 20.9847V24.8553C78.1601 25.6203 77.5409 26.2401 76.7759 26.2401Z" fill="#84D7CC"/>
<path d="M72.8048 44.9083C72.8048 45.8029 72.08 46.5289 71.1854 46.5289C70.2908 46.5289 69.5654 45.8029 69.5654 44.9083C69.5654 44.0143 70.2908 43.2883 71.1854 43.2883C72.08 43.2883 72.8048 44.0143 72.8048 44.9083Z" fill="#84D7CC"/>
<path d="M71.047 22.967L71.2576 43.6268" stroke="#84D7CC" stroke-width="0.6768"/>
<path d="M46.8672 89.7168C46.8672 89.7168 44.1618 82.5804 51.7902 75.573C51.7902 75.573 56.1444 82.7592 46.8672 89.7168Z" fill="#84D7CC"/>
<path d="M47.2747 91.612C47.2747 91.612 39.9397 89.5048 38.8975 79.1992C38.8975 79.1992 47.2603 80.0158 47.2747 91.612Z" fill="#84D7CC"/>
<path d="M52.0948 89.3848H39.415V95.0356C39.415 97.6186 41.5084 99.712 44.0908 99.712H47.4184C50.0014 99.712 52.0948 97.6186 52.0948 95.0356V89.3848Z" fill="#DAF6E5"/>
<path d="M43.6048 89.3847L42.6172 88.5021L47.0938 88.8333L47.176 89.3847H43.6048Z" fill="#EDFFF5"/>
<mask id="mask5_5567_160792" style="mask-type:alpha" maskUnits="userSpaceOnUse" x="42" y="88" width="6" height="2">
<path fill-rule="evenodd" clip-rule="evenodd" d="M43.6054 89.3847H47.1766L47.0938 88.8333L42.6172 88.5021L43.6054 89.3847Z" fill="white"/>
</mask>
<g mask="url(#mask5_5567_160792)">
<path d="M38.6641 99.9268H53.2891V75.5518H38.6641V99.9268Z" fill="#EDFFF5"/>
</g>
<mask id="mask6_5567_160792" style="mask-type:alpha" maskUnits="userSpaceOnUse" x="42" y="88" width="6" height="2">
<path fill-rule="evenodd" clip-rule="evenodd" d="M43.6054 89.3847H47.1766L47.0938 88.8333L42.6172 88.5021L43.6054 89.3847Z" fill="white"/>
</mask>
<g mask="url(#mask6_5567_160792)">
<path d="M39.1357 92.8671H50.6587V85.0203H39.1357V92.8671Z" fill="#EDFFF5"/>
</g>
<path d="M85.4279 119.642C85.4279 134.947 73.0243 147.354 57.7242 147.354C42.4242 147.354 30.0205 134.947 30.0205 119.642C30.0205 104.337 42.4242 91.9297 57.7242 91.9297C72.3485 91.9297 84.3252 103.264 85.3562 117.63C85.404 118.294 85.4279 118.965 85.4279 119.642Z" fill="#84D7CC"/>
<path d="M85.4279 116.066C85.4279 131.371 73.0243 143.778 57.7242 143.778C42.4242 143.778 30.0205 131.371 30.0205 116.066C30.0205 100.761 42.4242 88.354 57.7242 88.354C72.3485 88.354 84.3252 99.6888 85.3562 114.055C85.404 114.719 85.4279 115.389 85.4279 116.066Z" fill="white"/>
<path d="M115.176 36.9299C115.176 50.4187 104.244 61.3541 90.7596 61.3541C77.2748 61.3541 66.3428 50.4187 66.3428 36.9299C66.3428 23.441 77.2748 12.5056 90.7596 12.5056C103.649 12.5056 114.205 22.4956 115.113 35.1569C115.155 35.7422 115.176 36.3331 115.176 36.9299Z" fill="#84D7CC"/>
<path d="M115.176 33.7782C115.176 47.2671 104.244 58.2025 90.7596 58.2025C77.2748 58.2025 66.3428 47.2671 66.3428 33.7782C66.3428 20.2894 77.2748 9.354 90.7596 9.354C103.649 9.354 114.205 19.344 115.113 32.0053C115.155 32.5906 115.176 33.1815 115.176 33.7782Z" fill="white"/>
<rect x="86.1758" y="22.5208" width="18.3333" height="26.6667" rx="2.5" fill="#CC9D3F"/>
<mask id="mask7_5567_160792" style="mask-type:alpha" maskUnits="userSpaceOnUse" x="86" y="22" width="19" height="28">
<rect x="86.1758" y="22.5208" width="18.3333" height="26.6667" rx="2.5" fill="white"/>
</mask>
<g mask="url(#mask7_5567_160792)">
<rect x="83.6758" y="22.5208" width="18.3333" height="26.6667" rx="2.5" fill="#FFC54F"/>
<path fill-rule="evenodd" clip-rule="evenodd" d="M93.5219 26.8796L90.7431 28.9748C90.4031 29.2309 90.2602 29.6866 90.3904 30.102L91.4514 33.4918C91.5816 33.9072 91.9547 34.1875 92.3754 34.1875H95.8101C96.2308 34.1875 96.6039 33.9072 96.7341 33.4918L97.7951 30.102C97.9253 29.6866 97.7825 29.2309 97.4424 28.9748L94.6636 26.8796C94.3235 26.6235 93.862 26.6235 93.5219 26.8796Z" fill="#CC9D3F"/>
<rect x="89.9258" y="42.5208" width="8.33333" height="1.66667" rx="0.833333" fill="#CC9D3F"/>
<rect x="89.9258" y="38.354" width="8.33333" height="1.66667" rx="0.833333" fill="#CC9D3F"/>
</g>
<path opacity="0.5" fill-rule="evenodd" clip-rule="evenodd" d="M93.6764 22.5245L97.0098 22.5208V45.0208C97.0098 46.4015 95.8905 47.5208 94.5098 47.5208H87.0098V44.7434L93.6764 22.5245Z" fill="#CC9D3F"/>
<rect x="77.0098" y="20.0208" width="18.3333" height="26.6667" rx="2.5" fill="#CC9D3F"/>
<mask id="mask8_5567_160792" style="mask-type:alpha" maskUnits="userSpaceOnUse" x="77" y="20" width="19" height="27">
<rect x="77.0098" y="20.0208" width="18.3333" height="26.6667" rx="2.5" fill="white"/>
</mask>
<g mask="url(#mask8_5567_160792)">
<rect x="74.5098" y="20.0208" width="18.3333" height="26.6667" rx="2.5" fill="#FFC54F"/>
<path fill-rule="evenodd" clip-rule="evenodd" d="M84.3559 24.3796L81.5771 26.4748C81.237 26.7309 81.0942 27.1866 81.2244 27.602L82.2854 30.9918C82.4156 31.4072 82.7887 31.6875 83.2094 31.6875H86.6441C87.0648 31.6875 87.4379 31.4072 87.5681 30.9918L88.6291 27.602C88.7593 27.1866 88.6165 26.7309 88.2764 26.4748L85.4976 24.3796C85.1575 24.1235 84.696 24.1235 84.3559 24.3796Z" fill="#CC9D3F"/>
<rect x="80.7598" y="40.0208" width="8.33333" height="1.66667" rx="0.833333" fill="#CC9D3F"/>
<rect x="80.7598" y="35.854" width="8.33333" height="1.66667" rx="0.833333" fill="#CC9D3F"/>
</g>
<path d="M287.6 57.2328C287.6 73.3157 274.532 86.354 258.412 86.354C242.293 86.354 229.225 73.3157 229.225 57.2328C229.225 41.1499 242.293 28.1116 258.412 28.1116C273.82 28.1116 286.438 40.0227 287.525 55.1189C287.575 55.8167 287.6 56.5213 287.6 57.2328Z" fill="#84D7CC"/>
<path d="M287.6 53.4752C287.6 69.5581 274.532 82.5964 258.412 82.5964C242.293 82.5964 229.225 69.5581 229.225 53.4752C229.225 37.3923 242.293 24.354 258.412 24.354C273.82 24.354 286.438 36.2652 287.525 51.3614C287.575 52.0591 287.6 52.7637 287.6 53.4752Z" fill="white"/>
<path d="M274.807 40.3004L273.582 38.2745L261.738 35.6985L260.584 38.216C257.109 45.7892 254.467 53.7173 252.706 61.862L252.195 64.2206L265.051 67.0165C265.051 67.0165 267.244 58.3505 269.373 52.1065C271.503 45.8625 274.807 40.3004 274.807 40.3004Z" fill="#00883E"/>
<path d="M273.583 38.2776L272.43 40.7894C268.946 48.3659 266.311 56.2882 264.548 64.4329L264.038 66.7965L249 63.5271L249.511 61.1635C250.968 54.4435 253.027 47.8635 255.654 41.5141C255.688 41.4318 255.721 41.3486 255.754 41.2671C256.272 40.0071 256.824 38.7635 257.393 37.52L258.546 35L261.6 35.6671L262.209 35.7988L273.583 38.2776Z" fill="#00AB4E"/>
<path d="M264.942 50.666C264.296 53.6415 261.754 55.6154 259.265 55.0744C256.777 54.5325 255.284 51.6815 255.931 48.706C256.579 45.7306 259.121 43.7566 261.609 44.2985C264.097 44.8396 265.59 47.6906 264.942 50.666Z" fill="#40C07A"/>
<path d="M268.5 43.4037C268.033 43.2118 267.81 42.6774 268.003 42.2104L269.054 39.6534C269.246 39.1864 269.78 38.9632 270.247 39.156C270.714 39.3478 270.937 39.8823 270.745 40.3484L269.693 42.9063C269.501 43.3732 268.966 43.5956 268.5 43.4037Z" fill="#40C07A"/>
<path d="M255.018 62.3716C254.524 62.2637 254.212 61.777 254.319 61.2837L254.906 58.5817C255.014 58.0884 255.501 57.7755 255.995 57.8826C256.487 57.9904 256.8 58.4772 256.693 58.9704L256.105 61.6716C255.998 62.1657 255.511 62.4787 255.018 62.3716Z" fill="#28D677"/>
<path d="M244.543 68.5468C244.711 69.622 245.617 70.4532 246.771 70.5979C248.454 70.811 251.532 71.0356 257.018 71.0356C262.549 71.0356 265.632 70.8071 267.307 70.593C268.45 70.4474 269.359 69.6288 269.532 68.5661C269.769 67.0975 270.036 64.5489 270.036 60.5056C270.036 56.8336 269.815 54.5994 269.597 53.287C269.422 52.234 268.518 51.424 267.387 51.2765C265.655 51.0489 262.468 50.7856 257.018 50.7856C251.619 50.7856 248.441 51.045 246.698 51.2697C245.556 51.4173 244.662 52.2417 244.484 53.3063C244.252 54.6997 244 57.0149 244 60.5056C244 64.2934 244.297 66.9731 244.543 68.5468Z" fill="#3393E3"/>
<path d="M244.816 57.1646H251.046C253.012 57.1646 254.607 58.7586 254.607 60.7248C254.607 62.691 253.012 64.2859 251.046 64.2859H244.816C243.832 64.2859 243.036 63.4894 243.036 62.5058V58.9457C243.036 57.9621 243.832 57.1646 244.816 57.1646Z" fill="#FFC54F"/>
<path d="M248.822 60.4286C248.822 59.6301 249.469 58.9821 250.268 58.9821C251.068 58.9821 251.715 59.6301 251.715 60.4286C251.715 61.227 251.068 61.875 250.268 61.875C249.469 61.875 248.822 61.227 248.822 60.4286Z" fill="white"/>
<path d="M265 73.395C265 79.1359 269.654 83.79 275.395 83.79C281.136 83.79 285.79 79.1359 285.79 73.395C285.79 67.6547 281.136 63 275.395 63C269.654 63 265 67.6547 265 73.395Z" fill="#00AB4E"/>
<path d="M278.441 70.9476L274.165 75.0765L272.319 73.5946C271.745 73.1345 270.885 73.1981 270.397 73.7401C269.908 74.2793 269.976 75.0911 270.551 75.5507L273.365 77.8124C273.622 78.0178 273.936 78.1201 274.25 78.1201C274.605 78.1201 274.961 77.9894 275.226 77.7312L280.393 72.7426C280.918 72.2351 280.908 71.42 280.37 70.9248C280.104 70.6812 279.76 70.5601 279.417 70.5601C279.062 70.5601 278.708 70.6894 278.441 70.9476Z" fill="white"/>
<path d="M102 22.395C102 28.1359 106.654 32.79 112.395 32.79C118.136 32.79 122.79 28.1359 122.79 22.395C122.79 16.6547 118.136 12 112.395 12C106.654 12 102 16.6547 102 22.395Z" fill="#00AB4E"/>
<path d="M115.441 19.9476L111.165 24.0765L109.319 22.5946C108.745 22.1345 107.885 22.1981 107.397 22.7401C106.908 23.2793 106.976 24.0911 107.551 24.5507L110.365 26.8124C110.622 27.0178 110.936 27.1201 111.25 27.1201C111.605 27.1201 111.961 26.9894 112.226 26.7312L117.393 21.7426C117.918 21.2351 117.908 20.42 117.37 19.9248C117.104 19.6812 116.76 19.5601 116.417 19.5601C116.062 19.5601 115.708 19.6894 115.441 19.9476Z" fill="white"/>
<path d="M71.5015 101L68.485 104.524L67.0355 115.404L65.2691 128.648C65.1785 130.206 63.8468 131.474 62.2887 131.474H43.9355L45.9919 114.869L47.0699 106.218L47.3326 104.08C47.4323 102.377 48.8817 101 50.5757 101H71.5015Z" fill="#3393E3"/>
<path d="M62.1101 131.468H43.9354C42.7868 131.468 41.7722 131.005 41.0629 130.248C40.3517 129.496 39.9423 128.456 40.0066 127.308H59.3372L59.272 128.467C59.1805 130.126 60.4524 131.468 62.1101 131.468Z" fill="#1868AB"/>
<mask id="mask9_5567_160792" style="mask-type:alpha" maskUnits="userSpaceOnUse" x="68" y="101" width="7" height="4">
<path fill-rule="evenodd" clip-rule="evenodd" d="M68.4863 101.002H74.1623V104.522H68.4863V101.002Z" fill="white"/>
</mask>
<g mask="url(#mask9_5567_160792)">
<path d="M74.1191 104.522H68.4863L68.5253 103.819C68.6122 102.263 69.9439 101.002 71.4984 101.002C73.0538 101.002 74.245 102.263 74.1581 103.819L74.1191 104.522Z" fill="#1868AB"/>
</g>
<path fill-rule="evenodd" clip-rule="evenodd" d="M56.2912 113.799C56.3057 113.686 56.2758 113.501 56.2006 113.245C55.9651 112.508 55.792 111.951 55.6833 111.575C56.2803 111.057 56.6273 110.398 56.7269 109.596C56.7831 109.134 56.7432 108.716 56.6055 108.34C56.4678 107.964 56.2704 107.666 56.014 107.446C55.4813 106.992 54.9025 106.765 54.2783 106.765H51.9792C51.5253 106.765 51.2373 106.86 51.1141 107.052C51.0434 107.158 50.9981 107.253 50.9782 107.334C50.9574 107.416 50.9365 107.538 50.9166 107.701L50.1855 113.608C50.1547 113.856 50.1529 114.04 50.181 114.161C50.2336 114.424 50.5071 114.554 51.0045 114.554C51.4583 114.554 51.7473 114.459 51.8696 114.267C51.9402 114.161 51.9855 114.067 52.0064 113.985C52.0272 113.904 52.048 113.782 52.0671 113.618L52.2165 112.416H53.5572L53.8897 112.395C54.2303 113.543 54.4278 114.186 54.4812 114.321C54.5148 114.392 54.5727 114.461 54.6534 114.528C54.7331 114.595 54.8427 114.629 54.9804 114.629C55.119 114.629 55.3074 114.58 55.5475 114.48C56.0104 114.295 56.2577 114.069 56.2912 113.799ZM53.8118 110.532H52.4493L52.6831 108.648H54.0238C54.243 108.648 54.4468 108.729 54.6325 108.888C54.8182 109.047 54.8916 109.283 54.8536 109.596C54.8146 109.908 54.6832 110.142 54.4586 110.298C54.233 110.453 54.0174 110.532 53.8118 110.532Z" fill="white"/>
<path fill-rule="evenodd" clip-rule="evenodd" d="M57.3627 109.872L56.5927 116.087C56.5728 116.25 56.5629 116.371 56.5647 116.449C56.5656 116.527 56.5855 116.615 56.6272 116.715C56.6679 116.814 56.7513 116.885 56.8781 116.928C57.0031 116.971 57.177 116.992 57.3963 116.992C57.6164 116.992 57.793 116.971 57.9262 116.928C58.0585 116.885 58.1581 116.812 58.2242 116.71C58.2904 116.607 58.3329 116.516 58.3538 116.438C58.3737 116.36 58.3945 116.24 58.4145 116.076L58.6808 113.926C58.9027 114.253 59.3041 114.416 59.8865 114.416C60.4681 114.416 61.0497 114.144 61.6322 113.596C62.2137 113.051 62.5489 112.415 62.6395 111.692C62.7292 110.969 62.5489 110.333 62.0978 109.787C61.6476 109.241 61.1339 108.967 60.5551 108.967C59.978 108.967 59.5305 109.152 59.2153 109.521C59.2171 109.336 59.1582 109.197 59.0386 109.101C58.9191 109.005 58.6708 108.957 58.2958 108.957C57.919 108.957 57.6698 109.053 57.5466 109.244C57.485 109.344 57.4443 109.433 57.4234 109.51C57.4035 109.588 57.3827 109.709 57.3627 109.872ZM58.9988 111.702C59.0269 111.475 59.1337 111.267 59.3213 111.074C59.5079 110.883 59.738 110.787 60.0115 110.787C60.2833 110.787 60.4944 110.882 60.6411 111.069C60.7879 111.257 60.8477 111.469 60.8178 111.702C60.7897 111.937 60.6728 112.146 60.4699 112.331C60.2652 112.515 60.0342 112.607 59.7751 112.607C59.516 112.607 59.3149 112.513 59.1718 112.326C59.0278 112.137 58.9698 111.93 58.9988 111.702Z" fill="white"/>
<path d="M62.1134 120.505H48.8893C48.5225 120.505 48.2616 120.207 48.3069 119.84C48.3531 119.472 48.6873 119.174 49.0542 119.174H62.2783C62.6452 119.174 62.9061 119.472 62.8608 119.84C62.8146 120.207 62.4803 120.505 62.1134 120.505Z" fill="#1868AB"/>
<path d="M60.1801 123.931H49.9753C49.6084 123.931 49.3475 123.634 49.3928 123.267C49.4381 122.899 49.7733 122.601 50.1402 122.601H60.3449C60.7118 122.601 60.9727 122.899 60.9274 123.267C60.8812 123.634 60.5469 123.931 60.1801 123.931Z" fill="#1868AB"/>
<path d="M66 136.395C66 142.136 70.6542 146.79 76.395 146.79C82.1359 146.79 86.7897 142.136 86.7897 136.395C86.7897 130.655 82.1359 126 76.395 126C70.6542 126 66 130.655 66 136.395Z" fill="#00AB4E"/>
<path d="M79.4412 133.948L75.1648 138.077L73.3188 136.595C72.7453 136.135 71.8852 136.198 71.3969 136.74C70.9076 137.279 70.9755 138.091 71.5509 138.551L74.3654 140.812C74.6216 141.018 74.9361 141.12 75.25 141.12C75.6055 141.12 75.9606 140.989 76.2265 140.731L81.3928 135.743C81.9184 135.235 81.9082 134.42 81.3697 133.925C81.1041 133.681 80.7602 133.56 80.4166 133.56C80.062 133.56 79.7079 133.689 79.4412 133.948Z" fill="white"/>
<path d="M196.343 138.572L199.654 152.478L214.221 133.937L219.519 123.342L229.451 119.369L242.033 120.031L242.695 121.356C242.695 121.356 233.425 137.91 226.141 137.91L209.586 164.397L206.276 168.37L191.708 166.384L185.748 151.154L187.072 140.559L196.343 138.572Z" fill="#F3D8BC"/>
<path d="M168.594 40.8267C168.594 40.8267 148.455 34.8597 138.759 54.9977C138.759 54.9977 135.391 61.3137 136.246 71.7307C136.907 79.7647 135.936 87.8697 132.979 95.3687C130.368 101.988 128.317 109.82 130.554 114.668H185.749C185.749 114.668 189.365 106.834 188.471 88.9977C188.27 84.9857 188.32 80.9687 188.515 76.9557C189.026 66.4887 187.706 44.7617 168.594 40.8267Z" fill="#6C4A07"/>
<mask id="mask10_5567_160792" style="mask-type:alpha" maskUnits="userSpaceOnUse" x="116" y="94" width="85" height="77">
<path fill-rule="evenodd" clip-rule="evenodd" d="M116 94.5293H200.998V170.608H116V94.5293Z" fill="white"/>
</mask>
<g mask="url(#mask10_5567_160792)">
<path d="M159.643 94.5293C159.643 94.5293 141.742 99.0043 136.521 101.242C131.3 103.479 129.062 103.479 126.079 110.938C123.58 117.186 117.94 133.902 116.175 139.164C115.794 140.299 116.045 141.54 116.822 142.45C119.227 145.27 125.672 150.445 139.504 148.232L136.521 168.37L190.224 170.608C190.224 170.608 185.748 149.723 187.24 145.248C187.24 145.248 195.277 145.784 199.543 142.314C200.787 141.303 201.293 139.637 200.827 138.104L192.53 110.844C191.512 107.5 189.532 104.53 186.837 102.304L169.712 95.6483L159.643 94.5293Z" fill="#FFC54F"/>
</g>
<path d="M122.349 144.502L120.112 165.386L133.537 167.624L138.013 144.502H122.349Z" fill="#F3D8BC"/>
<path d="M175.159 86.4093C175.159 86.4093 172.192 92.3443 172.87 99.2533C172.989 100.461 172.498 101.656 171.581 102.451C168.959 104.725 163.038 107.931 154.664 101.159C153.7 100.379 153.592 98.9213 154.196 97.8383C155.641 95.2453 157.84 89.7993 155.888 82.9683L175.159 86.4093Z" fill="#F4B696"/>
<path d="M196.344 160.755C196.161 160.755 196.013 160.607 196.013 160.424C196.013 156.378 199.262 152.432 199.4 152.266C199.518 152.125 199.727 152.107 199.866 152.223C200.007 152.34 200.026 152.549 199.909 152.69C199.877 152.728 196.675 156.62 196.675 160.424C196.675 160.607 196.527 160.755 196.344 160.755Z" fill="#F4B696"/>
<path d="M239.883 103.667L221.415 122.731C220.73 123.438 220.739 124.562 221.435 125.257L228.806 132.629C229.523 133.346 230.689 133.331 231.386 132.595L252.754 110.072C253.639 109.14 253.29 107.607 252.089 107.15L241.818 103.237C241.145 102.98 240.384 103.15 239.883 103.667Z" fill="#252528"/>
<path d="M239.221 102.343L220.753 121.407C220.069 122.114 220.077 123.239 220.773 123.934L228.145 131.305C228.861 132.022 230.028 132.007 230.725 131.272L252.093 108.749C252.977 107.816 252.628 106.284 251.427 105.826L241.156 101.913C240.483 101.657 239.722 101.826 239.221 102.343Z" fill="#58585B"/>
<path d="M239.605 103.585L223.898 119.798C223.316 120.399 223.324 121.356 223.916 121.947L230.185 128.216C230.794 128.826 231.786 128.813 232.379 128.188L250.552 109.033C251.304 108.24 251.007 106.936 249.985 106.547L241.251 103.219C240.678 103.002 240.031 103.145 239.605 103.585Z" fill="#F5FBFF"/>
<mask id="mask11_5567_160792" style="mask-type:alpha" maskUnits="userSpaceOnUse" x="233" y="108" width="12" height="10">
<path fill-rule="evenodd" clip-rule="evenodd" d="M233 108H244.009V117.927H233V108Z" fill="white"/>
</mask>
<g mask="url(#mask11_5567_160792)">
<path fill-rule="evenodd" clip-rule="evenodd" d="M237.693 108.111L243.516 111.719C244.134 112.102 244.181 112.903 243.605 113.49L239.683 117.487C239.15 118.03 238.316 118.073 237.83 117.604L233.209 113.143C232.885 112.831 232.946 112.224 233.339 111.779L236.21 108.524C236.628 108.05 237.288 107.861 237.693 108.111ZM236.406 111.461C235.612 112.339 235.525 113.528 236.235 114.161C236.987 114.831 238.352 114.641 239.256 113.685C240.174 112.714 240.188 111.411 239.321 110.823C238.504 110.267 237.212 110.571 236.406 111.461Z" fill="#00AB4E"/>
</g>
<path d="M227.465 126.322C227.465 127.236 226.724 127.977 225.81 127.977C224.895 127.977 224.154 127.236 224.154 126.322C224.154 125.407 224.895 124.666 225.81 124.666C226.724 124.666 227.465 125.407 227.465 126.322Z" fill="#252528"/>
<path d="M144.203 144.207L146.217 121.38C145.672 107.746 135.164 105.28 129.55 104.938C128.352 106.156 127.275 107.946 126.078 110.938C123.579 117.186 117.94 133.902 116.175 139.164C115.794 140.299 116.045 141.54 116.822 142.451C119.227 145.27 125.672 150.445 139.504 148.232C139.759 148.232 140.003 148.221 140.237 148.201C142.351 148.02 144.016 146.321 144.203 144.207Z" fill="#DF9F1C"/>
<path d="M199.543 142.314C200.788 141.303 201.293 139.637 200.826 138.104L192.53 110.844C191.512 107.5 189.533 104.53 186.839 102.304L185 101.602C186.851 107.204 190.223 118.316 190.223 122.872C190.223 127.689 188.098 140.495 187.279 145.25C187.852 145.283 195.439 145.651 199.543 142.314Z" fill="#DF9F1C"/>
<path d="M181.273 54.2519C181.273 54.2519 189.478 72.8989 181.273 85.5789C175.112 95.1009 163.062 91.1629 157.442 88.6109C155.359 87.6649 153.682 86.0129 152.686 83.9539C150.06 78.5209 146.202 66.9009 154.422 56.4899C165.61 42.3179 174.56 46.7939 174.56 46.7939L181.273 54.2519Z" fill="#F3D8BC"/>
<path d="M150.778 69.8344C150.778 69.8344 145.748 68.0833 145.099 73.2724C144.45 78.4604 151.343 79.0613 151.343 79.0613L150.778 69.8344Z" fill="#F3D8BC"/>
<path d="M176.798 77.001C176.703 77.001 176.607 76.965 176.534 76.892C176.389 76.746 176.389 76.51 176.534 76.365C176.671 76.228 177.087 75.69 177.994 73.652C178.349 72.856 178.267 71.924 177.775 71.16C176.244 68.783 175.707 65.634 175.684 65.501C175.651 65.298 175.788 65.106 175.99 65.072C176.193 65.039 176.386 65.176 176.42 65.378C176.425 65.41 176.956 68.511 178.402 70.756C179.03 71.732 179.133 72.929 178.675 73.956C177.971 75.538 177.428 76.525 177.062 76.892C176.989 76.965 176.893 77.001 176.798 77.001Z" fill="#F4B696"/>
<path d="M168.337 81.141L176.857 81.796C177.121 81.817 177.23 82.144 177.028 82.316C175.442 83.664 170.587 87.131 168.042 81.557C167.949 81.354 168.114 81.124 168.337 81.141Z" fill="white"/>
<path d="M170.831 46.0474C170.831 46.0474 168.22 59.8464 145.471 68.4234C142.68 69.4764 142.488 53.5064 152.184 48.2854C161.88 43.0644 170.831 46.0474 170.831 46.0474Z" fill="#6C4A07"/>
<path d="M185.749 60.2192C185.749 60.2192 174.934 53.1332 170.832 45.3022L173.815 43.0642C173.815 43.0642 187.241 51.2682 185.749 60.2192Z" fill="#6C4A07"/>
<path d="M214.884 135.262C214.884 135.262 213.56 129.302 214.222 126.654C214.707 124.715 216.61 120.649 217.596 118.607C217.974 117.824 218.651 117.231 219.476 116.956L224.534 115.27C225.646 114.899 226.786 115.827 226.605 116.986C226.467 117.867 225.86 118.802 224.155 119.369L220.182 120.694C220.182 120.694 221.506 122.68 220.182 126.654" fill="#F3D8BC"/>
<path d="M214.884 135.262C214.884 135.262 213.56 129.302 214.222 126.654C214.707 124.715 216.61 120.649 217.596 118.607C217.974 117.824 218.651 117.231 219.476 116.956L224.534 115.27C225.646 114.899 226.786 115.827 226.605 116.986C226.467 117.867 225.86 118.802 224.155 119.369L220.182 120.694C220.182 120.694 221.506 122.68 220.182 126.654" stroke="#F4B696"/>
</g>
<path d="M106.722 82.4613L104.684 86.1857L100.961 88.2218C100.346 88.5587 100.346 89.4413 100.961 89.7782L104.684 91.8143L106.722 95.5387C107.057 96.1538 107.941 96.1538 108.276 95.5387L110.314 91.8143L114.039 89.7782C114.654 89.4413 114.654 88.5587 114.039 88.2218L110.314 86.1857L108.276 82.4613C107.941 81.8462 107.057 81.8462 106.722 82.4613Z" fill="#FFD37B"/>
<path d="M206.889 22.3625L205.287 25.2888L202.362 26.8885C201.879 27.1533 201.879 27.8467 202.362 28.1115L205.287 29.7112L206.889 32.6375C207.152 33.1208 207.847 33.1208 208.11 32.6375L209.711 29.7112L212.638 28.1115C213.121 27.8467 213.121 27.1533 212.638 26.8885L209.711 25.2888L208.11 22.3625C207.847 21.8792 207.152 21.8792 206.889 22.3625Z" fill="#FFC54F"/>
<path d="M271.889 130.362L270.287 133.289L267.362 134.889C266.879 135.153 266.879 135.847 267.362 136.111L270.287 137.711L271.889 140.638C272.152 141.121 272.847 141.121 273.11 140.638L274.711 137.711L277.638 136.111C278.121 135.847 278.121 135.153 277.638 134.889L274.711 133.289L273.11 130.362C272.847 129.879 272.152 129.879 271.889 130.362Z" fill="#FFC54F"/>
</svg>
