<svg width="328" height="164" viewBox="0 0 328 164" fill="none" xmlns="http://www.w3.org/2000/svg">
<path d="M23.2189 161.504C33.6809 163.667 265.053 165.826 301.876 161.504C312.777 160.224 321.503 148.276 322.776 146.203C330.736 133.238 327.751 53.2794 325.761 26.266C324.69 11.7278 309.838 5.19571 302.871 3.03482C289.548 -1.09779 53.2799 -1.26366 22.2229 4.11573C8.32787 6.52168 3.29087 17.8712 2.29087 24.1796C-0.0421274 38.8847 -1.42113 129.331 2.31887 141.514C5.30487 151.239 12.7689 159.343 23.2189 161.504Z" fill="#EAFFF2"/>
<mask id="mask0_5567_163696" style="mask-type:alpha" maskUnits="userSpaceOnUse" x="0" y="0" width="328" height="164">
<path fill-rule="evenodd" clip-rule="evenodd" d="M23.2189 161.504C33.6809 163.667 265.053 165.826 301.876 161.504C312.777 160.224 321.503 148.276 322.776 146.203C330.736 133.238 327.751 53.2794 325.761 26.266C324.69 11.7278 309.838 5.19571 302.871 3.03482C289.548 -1.09779 53.2799 -1.26366 22.2229 4.11573C8.32787 6.52168 3.29087 17.8712 2.29087 24.1796C-0.0421274 38.8847 -1.42113 129.331 2.31887 141.514C5.30487 151.239 12.7689 159.343 23.2189 161.504Z" fill="white"/>
</mask>
<g mask="url(#mask0_5567_163696)">
<path d="M-3 167.372H329.4V-0.62793H-3V167.372Z" fill="#EBFFE0"/>
<path d="M386.238 298C386.238 420.607 286.789 520 164.112 520C41.4353 520 -58.0137 420.607 -58.0137 298C-58.0137 175.393 41.4353 76 164.112 76C286.789 76 386.238 175.393 386.238 298Z" fill="#BBF0D3"/>
<path d="M251.329 77.7269C251.332 87.4517 251.285 130.777 251.367 140.501C251.386 142.793 251.08 143.806 248.925 143.785C235.767 143.653 222.606 143.677 209.448 143.758C207.629 143.769 206.992 143.189 207 140.815C207.066 121.256 207.013 68.0957 207.047 48.5357C207.055 43.5269 208.584 41.5853 212.749 41.4773C214.545 41.4293 215.286 40.9145 215.239 38.5289C215.173 35.1125 216.713 32.7749 219.051 31.1309C222.354 28.8089 226.012 27.1253 228.423 23.1701C228.897 22.3949 229.407 22.3409 229.919 23.1593C232.302 26.9633 235.791 28.7717 239.071 30.9401C241.636 32.6357 243.27 34.9949 242.934 38.8397C242.751 40.9313 243.531 41.3801 245.106 41.4281C249.982 41.5781 251.325 43.4321 251.326 49.5473C251.329 58.9409 251.327 68.3333 251.329 77.7269Z" fill="#47A99C"/>
<path d="M119.329 77.7269C119.332 87.4517 119.285 130.777 119.367 140.501C119.386 142.793 119.08 143.806 116.925 143.785C103.767 143.653 90.6062 143.677 77.4482 143.758C75.629 143.769 74.9918 143.189 75.0001 140.815C75.0662 121.256 75.0134 68.0957 75.047 48.5357C75.0554 43.5269 76.5842 41.5853 80.7494 41.4773C82.5446 41.4293 83.2862 40.9145 83.2394 38.5289C83.1734 35.1125 84.713 32.7749 87.0506 31.1309C90.3542 28.8089 94.0118 27.1253 96.4226 23.1701C96.8966 22.3949 97.4066 22.3409 97.919 23.1593C100.302 26.9633 103.791 28.7717 107.071 30.9401C109.636 32.6357 111.27 34.9949 110.934 38.8397C110.751 40.9313 111.531 41.3801 113.106 41.4281C117.982 41.5781 119.325 43.4321 119.326 49.5473C119.329 58.9409 119.327 68.3333 119.329 77.7269Z" fill="#47A99C"/>
<path d="M312.53 77.7269C312.532 87.4517 312.485 130.777 312.567 140.501C312.586 142.793 312.28 143.806 310.125 143.785C296.967 143.653 283.806 143.677 270.648 143.758C268.829 143.769 268.192 143.189 268.2 140.815C268.266 121.256 268.214 68.0957 268.247 48.5357C268.256 43.5269 269.784 41.5853 273.95 41.4773C275.745 41.4293 276.486 40.9145 276.44 38.5289C276.374 35.1125 277.913 32.7749 280.251 31.1309C283.554 28.8089 287.212 27.1253 289.623 23.1701C290.097 22.3949 290.607 22.3409 291.119 23.1593C293.502 26.9633 296.991 28.7717 300.272 30.9401C302.836 32.6357 304.47 34.9949 304.134 38.8397C303.951 40.9313 304.731 41.3801 306.306 41.4281C311.182 41.5781 312.525 43.4321 312.526 49.5473C312.53 58.9409 312.527 68.3333 312.53 77.7269Z" fill="#47A99C"/>
<path d="M58.1297 77.7269C58.1321 87.4517 58.0853 130.777 58.1669 140.501C58.1861 142.793 57.8801 143.806 55.7249 143.785C42.5669 143.653 29.4065 143.677 16.2485 143.758C14.4293 143.769 13.7921 143.189 13.8004 140.815C13.8665 121.256 13.8137 68.0957 13.8473 48.5357C13.8557 43.5269 15.3845 41.5853 19.5497 41.4773C21.3449 41.4293 22.0865 40.9145 22.0397 38.5289C21.9737 35.1125 23.5133 32.7749 25.8509 31.1309C29.1545 28.8089 32.8121 27.1253 35.2229 23.1701C35.6969 22.3949 36.2069 22.3409 36.7193 23.1593C39.1025 26.9633 42.5909 28.7717 45.8717 30.9401C48.4361 32.6357 50.0705 34.9949 49.7345 38.8397C49.5509 40.9313 50.3309 41.3801 51.9065 41.4281C56.7821 41.5781 58.1249 43.4321 58.1261 49.5473C58.1297 58.9409 58.1273 68.3333 58.1297 77.7269Z" fill="#47A99C"/>
<path d="M207 143.372H251.4" stroke="#72BF44" stroke-width="3.6"/>
<path d="M75 143.372H119.4" stroke="#72BF44" stroke-width="3.6"/>
<path d="M13.7998 143.372H58.1998" stroke="#72BF44" stroke-width="3.6"/>
<path d="M268.2 143.372H312.6" stroke="#72BF44" stroke-width="3.6"/>
<path d="M207 122.972H251.4" stroke="#E5EFAC" stroke-width="9.6"/>
<path d="M75 122.972H119.4" stroke="#E5EFAC" stroke-width="9.6"/>
<path d="M180.554 80.9659L180.603 80.9779L180.604 80.9803L180.664 80.9935L180.672 80.9959L180.816 81.0319L180.855 81.0427L181.457 81.1951L181.49 81.2047L181.562 81.2227L181.671 81.2491L181.904 81.3091L181.924 81.3151L182.028 81.3403L182.157 81.3727L182.165 81.3739L182.29 81.4075L182.424 81.4411H182.428L182.568 81.4759L182.702 81.5107L182.716 81.5143L182.864 81.5515L182.992 81.5851L183.02 81.5911L183.177 81.6307L183.299 81.6631L183.339 81.6727L184.204 81.8911L184.295 81.9139L184.385 81.9355L184.572 81.9835L184.653 82.0027L184.761 82.0327L184.953 82.0783L185.02 82.0975L186.581 82.4899L186.59 82.4935L186.795 82.5427L187.002 82.5967L187.012 82.5979L187.422 82.7011L187.449 82.7071C192.656 84.0163 199.242 85.6531 201.248 86.0767C204.725 86.8135 207.064 89.1547 207.064 89.1547C207.064 89.1547 200.121 109.822 204.67 128.543C204.67 128.543 197.712 172.066 197.979 173.603C198.249 175.142 195.705 178.619 195.705 178.619C195.705 178.619 183.651 183.634 164.64 183.634C145.626 183.634 133.8 178.172 133.8 178.172C133.8 178.172 131.032 175.142 131.298 173.603C131.567 172.066 124.612 128.543 124.612 128.543C129.158 109.822 122.214 89.1547 122.214 89.1547C122.214 89.1547 124.553 86.8135 128.031 86.0767C129.699 85.7263 134.525 84.5347 139.101 83.3923V83.3911C140.601 83.0155 142.073 82.6459 143.396 82.3147L143.492 82.2895C145.976 81.6655 147.923 81.1687 148.528 81.0163C148.672 80.9683 148.815 80.9203 148.954 80.8711H180.184C180.304 80.9059 180.429 80.9383 180.552 80.9659H180.554Z" fill="#E5EFAC"/>
<path d="M185.147 52.7547C184.103 59.8671 180.141 64.0479 180.141 64.0479C180.141 64.0479 173.598 70.6047 170.965 71.9883C169.398 72.8127 166.62 74.7144 164.686 74.6952C162.754 74.688 160.521 72.8307 158.961 71.9883C156.347 70.5735 148.792 63.8559 148.792 63.8559C148.792 63.8559 144.881 59.6283 143.924 52.5003C141.651 35.5695 137.815 14.5623 164.771 14.3367C191.721 14.8935 187.629 35.8515 185.147 52.7547Z" fill="#F2CBA8"/>
<path d="M183.02 21.3244C186.975 26.3584 187.355 33.55 186.695 41.0056C185.498 40.6024 184.006 39.0616 182.145 35.836C172.807 19.6576 151.364 28.2532 151.364 28.2532L154.804 16.462C165.431 14.794 175.975 18.1612 183.02 21.3244Z" fill="#E79E5C"/>
<mask id="mask1_5567_163696" style="mask-type:alpha" maskUnits="userSpaceOnUse" x="155" y="20" width="19" height="6">
<path fill-rule="evenodd" clip-rule="evenodd" d="M155.36 25.3088C158.023 24.3992 161.13 23.9624 164.203 23.9516C164.35 23.9504 164.491 23.9504 164.64 23.9516C164.784 23.9504 164.928 23.9504 165.077 23.9516C168.151 23.9624 171.258 24.3992 173.92 25.31C169.878 23.3 168.787 20.99 164.64 20.99C160.494 20.99 159.401 23.3 155.36 25.3088Z" fill="white"/>
</mask>
<g mask="url(#mask1_5567_163696)">
<path d="M146.82 33.8517H182.461V12.4485H146.82V33.8517Z" fill="#58585B"/>
</g>
<path fill-rule="evenodd" clip-rule="evenodd" d="M134.243 40.0819C134.123 33.9235 136.177 27.8839 142.457 18.7039C152.167 4.51147 177.113 4.51147 186.822 18.7039C193.103 27.8839 195.158 33.9235 195.036 40.0819C194.915 46.2427 195.036 56.2663 196.121 63.5131C197.209 70.7611 194.862 76.8667 190.325 79.5787C190.325 79.5787 195.158 81.4555 193.919 84.3199C192.68 87.1867 176.64 93.0667 164.64 93.0667C152.64 93.0667 136.598 87.1867 135.361 84.3199C134.124 81.4555 138.954 79.5787 138.954 79.5787C134.418 76.8667 132.07 70.7611 133.157 63.5131C134.243 56.2663 134.364 46.2427 134.243 40.0819ZM164.408 73.2379L164.64 73.2367L164.87 73.2379C166.802 73.2295 168.76 72.8299 170.316 71.9875C171.953 71.1007 175.525 68.1379 177.97 66.0475V66.0463C177.97 66.0463 181.834 62.1139 183.343 55.6519C184.852 49.1899 183.466 40.9783 181.832 34.5775C180.245 28.3366 174.722 25.9137 171.648 24.5651C171.569 24.5302 171.491 24.4961 171.415 24.4627C170.328 23.984 169.535 23.4742 168.826 23.0177C167.564 22.2063 166.564 21.5635 164.64 21.5635C162.715 21.5635 161.716 22.2061 160.454 23.0174C159.744 23.4739 158.951 23.9839 157.864 24.4627C157.787 24.4963 157.709 24.5307 157.629 24.5657C154.556 25.9145 149.035 28.3377 147.445 34.5775C145.816 40.9783 144.428 49.1899 145.937 55.6519C147.445 62.1139 151.309 66.0463 151.309 66.0463V66.0475C153.754 68.1379 157.326 71.1007 158.963 71.9875C160.52 72.8299 162.476 73.2295 164.408 73.2379Z" fill="#FFD64B"/>
<mask id="mask2_5567_163696" style="mask-type:alpha" maskUnits="userSpaceOnUse" x="134" y="22" width="56" height="66">
<path fill-rule="evenodd" clip-rule="evenodd" d="M141.21 23.3061C141.194 23.3649 136.643 39.1413 139.448 51.4893C135.614 44.0517 135.158 37.3293 135.153 37.2993C135.121 36.8469 134.951 36.4761 134.502 36.5097C134.049 36.5421 134.371 49.8801 143.249 59.9817L143.312 60.0549C145.254 62.2497 147.576 64.3365 150.354 66.1605C150.732 66.4053 151.1 66.5397 151.349 66.1605C151.596 65.7837 146.396 61.0713 144.548 58.9821L144.535 58.9713C135.821 47.9025 142.766 23.8185 142.787 23.7501C142.907 23.3133 142.652 22.8609 142.217 22.7409C142.143 22.7193 142.07 22.7097 141.997 22.7097C141.641 22.7097 141.312 22.9461 141.21 23.3061ZM186.679 34.3569C186.255 34.5093 186.035 34.9761 186.187 35.3997C186.194 35.4249 189.353 43.9137 186.337 53.9493C186.21 54.3813 186.455 54.8385 186.89 54.9669C187.321 55.0965 187.777 54.8493 187.907 54.4173C191.072 43.8681 187.731 34.8765 187.723 34.8501C187.604 34.5165 187.29 34.3089 186.954 34.3089C186.863 34.3089 186.77 34.3245 186.679 34.3569ZM138.273 79.1265C138.023 79.5045 138.127 80.0121 138.504 80.2593C138.54 80.2845 151.194 88.8609 178.523 87.1521C178.973 87.1257 179.317 86.7393 179.289 86.2869C179.265 85.8369 178.878 85.4937 178.427 85.5189C151.644 87.1941 139.442 78.9213 139.405 78.8961C139.267 78.8037 139.111 78.7605 138.956 78.7605C138.691 78.7605 138.431 78.8901 138.273 79.1265Z" fill="white"/>
</mask>
<g mask="url(#mask2_5567_163696)">
<path d="M125.834 95.9182H197.81V14.1682H125.834V95.9182Z" fill="#E8AC00"/>
</g>
<path d="M152.269 144.408L136.469 138.629L134.783 131.743C136.904 106.778 131.308 86.2521 122.68 88.6305C119.062 89.6289 109.156 135.614 109.175 145.08C109.184 149.691 109.754 154.766 112.651 156.947C113.937 157.915 115.561 159.066 117.857 159.661C122.279 160.483 125.263 159.906 128.191 158.671C128.87 158.427 134.33 156.213 135.067 155.894L152.269 144.408Z" fill="#BFD730"/>
<path d="M112.844 142.188C112.844 142.188 122.59 136.566 132.25 138.322C141.911 140.077 132.062 136.175 132.062 136.175C132.062 136.175 120.364 132.331 112.844 142.188Z" fill="#9BAD35"/>
<path d="M132.269 129.698C131.145 129.328 126.708 128.109 122.826 129.414C122.644 129.476 122.474 129.569 122.324 129.689C121.736 130.164 120.719 131.41 124.234 132.593C128.658 134.084 133.209 133.966 134.664 140.711C134.685 140.81 134.697 140.909 134.7 141.009C134.73 141.828 135.098 146.022 139.464 144.55C139.563 144.518 139.66 144.473 139.751 144.422L141.215 143.595C141.803 143.262 142.526 143.321 143.067 143.723C143.691 144.189 144.923 144.586 147.334 144.102C147.392 144.09 147.452 144.081 147.51 144.076L148.883 143.956C149.278 143.921 149.678 144.022 149.999 144.256C150.801 144.839 152.678 145.812 155.205 144.634C155.432 144.528 155.633 144.375 155.794 144.183L159.626 139.614C159.693 139.534 159.752 139.448 159.803 139.358C160.091 138.855 161.253 136.997 163.452 135.646C165.752 134.231 161.493 132.308 158.486 134.636C157.89 135.096 157.071 135.16 156.453 134.734C155.504 134.08 153.954 133.35 151.989 133.617C151.604 133.668 151.211 133.604 150.879 133.402C149.322 132.458 144.392 129.922 139.242 132.1C138.794 132.291 138.29 132.293 137.848 132.087C136.511 131.464 133.625 130.143 132.269 129.698Z" fill="#F2CBA8"/>
<path d="M136.902 138.245C136.902 138.245 137.335 140.1 138.852 138.886C140.238 137.774 144.283 133.494 147.378 136.685C147.911 137.233 147.872 138.12 147.313 138.643L142.473 143.166" stroke="#E79E5C" stroke-width="0.5"/>
<path d="M147.323 136.789C147.323 136.789 149.906 133.95 152.807 135.894C153.413 136.3 153.549 137.138 153.13 137.736L148.764 143.966" stroke="#E79E5C" stroke-width="0.5"/>
<path d="M151.387 139.949C151.924 139.902 152.461 139.856 153.044 140.345C153.044 140.345 155.986 133.72 161.309 137.382" stroke="#E79E5C" stroke-width="0.5"/>
<path d="M172.452 142.778L188.706 138.441L191.004 131.736C191.136 106.681 198.552 86.7407 206.932 89.8859C210.445 91.2047 216.18 137.894 215.311 147.319C214.888 151.913 213.864 156.915 210.784 158.827C209.416 159.675 207.695 160.676 205.354 161.063C200.877 161.483 197.957 160.639 195.153 159.147C194.497 158.844 189.258 156.149 188.553 155.765L172.452 142.778Z" fill="#BFD730"/>
<path d="M211.918 144.11C211.918 144.11 202.716 137.635 192.937 138.515C183.157 139.396 193.318 136.394 193.318 136.394C193.318 136.394 205.313 133.617 211.918 144.11Z" fill="#9BAD35"/>
<path d="M193.692 129.925C194.844 129.659 199.373 128.843 203.123 130.491C203.298 130.568 203.46 130.676 203.598 130.811C204.142 131.336 205.042 132.667 201.434 133.531C196.894 134.618 192.373 134.091 190.318 140.679C190.288 140.774 190.267 140.873 190.255 140.972C190.151 141.786 189.409 145.928 185.192 144.072C185.096 144.029 185.004 143.976 184.918 143.916L183.534 142.962C182.978 142.578 182.254 142.572 181.678 142.925C181.015 143.33 179.752 143.617 177.395 142.917C177.338 142.901 177.278 142.886 177.221 142.875L175.865 142.633C175.474 142.562 175.067 142.627 174.726 142.831C173.874 143.341 171.919 144.141 169.507 142.74C169.291 142.615 169.104 142.443 168.961 142.238L165.556 137.343C165.496 137.258 165.445 137.167 165.402 137.072C165.161 136.545 164.171 134.592 162.101 133.047C159.938 131.432 164.352 129.9 167.14 132.488C167.689 132.999 168.499 133.137 169.154 132.769C170.159 132.203 171.767 131.615 173.7 132.056C174.079 132.143 174.476 132.114 174.826 131.942C176.46 131.142 181.598 129.06 186.532 131.691C186.961 131.921 187.464 131.969 187.921 131.803C189.31 131.304 192.301 130.247 193.692 129.925Z" fill="#F2CBA8"/>
<path d="M188.311 138.021C188.311 138.021 187.712 139.83 186.312 138.484C185.031 137.253 181.386 132.626 178.017 135.526C177.438 136.025 177.396 136.912 177.906 137.482L182.32 142.421" stroke="#E79E5C" stroke-width="0.5"/>
<path d="M178.062 135.636C178.062 135.636 175.745 132.576 172.682 134.251C172.041 134.601 171.831 135.423 172.194 136.057L175.983 142.654" stroke="#E79E5C" stroke-width="0.5"/>
<path d="M173.73 138.418C173.2 138.323 172.67 138.227 172.044 138.662C172.044 138.662 169.71 131.8 164.08 134.97" stroke="#E79E5C" stroke-width="0.5"/>
<path d="M159 131.972C159 134.291 155.775 136.172 151.8 136.172C147.824 136.172 144.6 134.291 144.6 131.972C144.6 129.652 147.824 127.772 151.8 127.772C155.775 127.772 159 129.652 159 131.972Z" fill="#D39E3E"/>
<path d="M159 130.772C159 133.091 155.775 134.972 151.8 134.972C147.824 134.972 144.6 133.091 144.6 130.772C144.6 128.452 147.824 126.572 151.8 126.572C155.775 126.572 159 128.452 159 130.772Z" fill="#FFC54F"/>
<path d="M170.1 131.297C170.1 133.326 167.279 134.972 163.8 134.972C160.321 134.972 157.5 133.326 157.5 131.297C157.5 129.267 160.321 127.621 163.8 127.621C167.279 127.621 170.1 129.267 170.1 131.297Z" fill="#D39E3E"/>
<path d="M170.1 130.247C170.1 132.276 167.279 133.922 163.8 133.922C160.321 133.922 157.5 132.276 157.5 130.247C157.5 128.217 160.321 126.571 163.8 126.571C167.279 126.571 170.1 128.217 170.1 130.247Z" fill="#FFC54F"/>
<path d="M163.8 130.772C163.8 133.091 160.576 134.972 156.6 134.972C152.624 134.972 149.4 133.091 149.4 130.772C149.4 128.452 152.624 126.572 156.6 126.572C160.576 126.572 163.8 128.452 163.8 130.772Z" fill="#D39E3E"/>
<path d="M163.8 129.572C163.8 131.891 160.576 133.772 156.6 133.772C152.624 133.772 149.4 131.891 149.4 129.572C149.4 127.252 152.624 125.372 156.6 125.372C160.576 125.372 163.8 127.252 163.8 129.572Z" fill="#FFC54F"/>
<path d="M186.9 132.497C186.9 134.526 184.079 136.172 180.6 136.172C177.121 136.172 174.3 134.526 174.3 132.497C174.3 130.467 177.121 128.821 180.6 128.821C184.079 128.821 186.9 130.467 186.9 132.497Z" fill="#D39E3E"/>
<path d="M186.9 131.447C186.9 133.476 184.079 135.122 180.6 135.122C177.121 135.122 174.3 133.476 174.3 131.447C174.3 129.418 177.121 127.771 180.6 127.771C184.079 127.771 186.9 129.418 186.9 131.447Z" fill="#FFC54F"/>
<path d="M167.4 128.372C167.4 130.691 164.176 132.572 160.2 132.572C156.224 132.572 153 130.691 153 128.372C153 126.052 156.224 124.172 160.2 124.172C164.176 124.172 167.4 126.052 167.4 128.372Z" fill="#D39E3E"/>
<path d="M167.4 127.172C167.4 129.491 164.176 131.372 160.2 131.372C156.224 131.372 153 129.491 153 127.172C153 124.852 156.224 122.972 160.2 122.972C164.176 122.972 167.4 124.852 167.4 127.172Z" fill="#FFC54F"/>
<path d="M179.7 130.097C179.7 132.126 176.878 133.772 173.4 133.772C169.921 133.772 167.1 132.126 167.1 130.097C167.1 128.068 169.921 126.421 173.4 126.421C176.878 126.421 179.7 128.068 179.7 130.097Z" fill="#D39E3E"/>
<path d="M179.7 129.047C179.7 131.076 176.878 132.722 173.4 132.722C169.921 132.722 167.1 131.076 167.1 129.047C167.1 127.017 169.921 125.371 173.4 125.371C176.878 125.371 179.7 127.017 179.7 129.047Z" fill="#FFC54F"/>
<path d="M178.2 128.372C178.2 130.691 174.975 132.572 171 132.572C167.024 132.572 163.8 130.691 163.8 128.372C163.8 126.052 167.024 124.172 171 124.172C174.975 124.172 178.2 126.052 178.2 128.372Z" fill="#D39E3E"/>
<path d="M178.2 127.172C178.2 129.491 174.975 131.372 171 131.372C167.024 131.372 163.8 129.491 163.8 127.172C163.8 124.852 167.024 122.972 171 122.972C174.975 122.972 178.2 124.852 178.2 127.172Z" fill="#FFC54F"/>
<path d="M169.8 127.172C169.8 129.491 166.576 131.372 162.6 131.372C158.624 131.372 155.4 129.491 155.4 127.172C155.4 124.852 158.624 122.972 162.6 122.972C166.576 122.972 169.8 124.852 169.8 127.172Z" fill="#D39E3E"/>
<path d="M169.8 125.972C169.8 128.291 166.576 130.172 162.6 130.172C158.624 130.172 155.4 128.291 155.4 125.972C155.4 123.652 158.624 121.772 162.6 121.772C166.576 121.772 169.8 123.652 169.8 125.972Z" fill="#FFC54F"/>
<path d="M157.8 109.772C157.8 109.772 162.417 112.172 162.509 126.572" stroke="#00883E" stroke-width="1.2" stroke-linecap="round" stroke-linejoin="round"/>
<path d="M169.2 104.372C169.2 104.372 162.091 105.572 162 119.972" stroke="#00883E" stroke-width="1.2" stroke-linecap="round" stroke-linejoin="round"/>
<path d="M159.9 110.887C158.497 107.986 154.085 101.558 144.209 107.213C143.808 107.442 143.968 108.066 144.429 108.044C147.341 107.908 153.312 108.138 159.256 111.464C159.648 111.684 160.096 111.292 159.9 110.887Z" fill="#00AB4E"/>
<path d="M165.014 110.169C167.788 110.138 173.234 109.15 175.786 102.294C176.144 101.335 175.605 100.25 174.614 99.99C171.519 99.1764 165.166 98.7744 163.533 108.426C163.377 109.345 164.081 110.178 165.014 110.169Z" fill="#00AB4E"/>
<path d="M164.4 46.7717C164.4 46.7717 167.4 56.9717 163.8 58.1717" stroke="#E79E5C" stroke-width="1.2" stroke-linecap="round"/>
<path d="M13.7998 122.972H58.1998" stroke="#E5EFAC" stroke-width="9.6"/>
<path d="M268.2 122.972H312.6" stroke="#E5EFAC" stroke-width="9.6"/>
<path d="M87 82C87 91.3888 79.3888 99 70 99C60.6112 99 53 91.3888 53 82C53 72.6112 60.6112 65 70 65C79.3888 65 87 72.6112 87 82Z" fill="#F8F8F8"/>
<path d="M68.466 90C67.9427 90 67.4186 89.811 66.9917 89.4304L62.3008 85.2423C61.3423 84.3906 61.2286 82.8873 62.0444 81.8888C62.8579 80.8851 64.2918 80.7678 65.2478 81.6204L68.3243 84.3638L75.4513 76.7177C76.3265 75.7762 77.7663 75.7598 78.6654 76.6755C79.5629 77.5928 79.5802 79.1022 78.7041 80.0411L70.0937 89.2803C69.6503 89.7584 69.0586 90 68.466 90Z" fill="#00AB4E"/>
</g>
<path d="M109.055 51.5602L106.581 56.0827L102.06 58.555C101.313 58.9642 101.313 60.0358 102.06 60.445L106.581 62.9173L109.055 67.4398C109.462 68.1867 110.536 68.1867 110.943 67.4398L113.417 62.9173L117.94 60.445C118.687 60.0358 118.687 58.9642 117.94 58.555L113.417 56.0827L110.943 51.5602C110.536 50.8133 109.462 50.8133 109.055 51.5602Z" fill="#FFD37B"/>
<path d="M226.333 94.3954L224.586 97.5878L221.395 99.333C220.868 99.6218 220.868 100.378 221.395 100.667L224.586 102.412L226.333 105.605C226.62 106.132 227.378 106.132 227.666 105.605L229.412 102.412L232.605 100.667C233.132 100.378 233.132 99.6218 232.605 99.333L229.412 97.5878L227.666 94.3954C227.378 93.8682 226.62 93.8682 226.333 94.3954Z" fill="#FFF9ED"/>
<path d="M94.333 106.395L92.5862 109.588L89.3954 111.333C88.8682 111.622 88.8682 112.378 89.3954 112.667L92.5862 114.412L94.333 117.605C94.6202 118.132 95.3782 118.132 95.6655 117.605L97.4122 114.412L100.605 112.667C101.132 112.378 101.132 111.622 100.605 111.333L97.4122 109.588L95.6655 106.395C95.3782 105.868 94.6202 105.868 94.333 106.395Z" fill="#FFF9ED"/>
</svg>
