<svg width="100" height="100" viewBox="0 0 100 100" fill="none" xmlns="http://www.w3.org/2000/svg">
<circle cx="50" cy="50" r="50" fill="#E6F6EA"/>
<mask id="mask0_5567_148446" style="mask-type:alpha" maskUnits="userSpaceOnUse" x="0" y="0" width="100" height="100">
<circle cx="50" cy="50" r="50" fill="#E6F6EA"/>
</mask>
<g mask="url(#mask0_5567_148446)">
<path d="M27 32.7174L30.5651 30.479V67.8547C30.5651 69.1712 31.6266 70.2385 32.9358 70.2385H29.3705C28.0613 70.2385 26.9999 69.1712 26.9999 67.8547V32.7174H27Z" fill="#C6E5B4"/>
<path d="M33.1368 20.7245H35.6993C35.6993 19.7723 36.4669 19 37.4144 19H67.2442C68.1913 19 68.9592 19.7721 68.9592 20.7245V66.5583C68.9592 67.5108 68.1913 68.2828 67.2442 68.2828C34.7278 68.2828 37.2622 68.3834 36.7021 68.1256C36.2681 67.9258 35.9317 67.5498 35.7832 67.0886H33.137C33.1368 66.7575 33.1368 21.3709 33.1368 20.7245Z" fill="#99B7B3"/>
<path d="M33.849 19H37.4143C36.4671 19 35.6993 19.7721 35.6993 20.7245V66.5583C35.6993 67.5108 36.4671 68.2829 37.4143 68.2829H33.849C32.9018 68.2829 32.134 67.5108 32.134 66.5583V20.7245C32.134 19.7721 32.9018 19 33.849 19V19Z" fill="#99B7B3"/>
<path d="M29.3247 31.2576L33.3443 28.7339L36.8147 22.8481H60.6638C61.973 22.8481 63.0344 23.9154 63.0344 25.2319V67.8543C63.0344 69.1708 61.973 70.2381 60.6638 70.2381H29.3707C29.3552 70.2381 29.3401 70.2361 29.3247 70.2358V31.2576Z" fill="#C6E5B4"/>
<path d="M34.444 32.7171H27.0001L36.8147 22.8481V30.3333C36.8147 31.6498 35.7533 32.7171 34.444 32.7171Z" fill="#95CF72"/>
<path d="M32.6897 38.1191H57.3449C57.8185 38.1191 58.2024 37.733 58.2024 37.2568C58.2024 36.7806 57.8185 36.3945 57.3449 36.3945H32.6897C32.2161 36.3945 31.8322 36.7806 31.8322 37.2568C31.8322 37.733 32.2161 38.1191 32.6897 38.1191Z" fill="#00AB4E"/>
<path d="M32.6897 43.8242H57.3449C57.8185 43.8242 58.2024 43.4381 58.2024 42.9619C58.2024 42.4857 57.8185 42.0996 57.3449 42.0996H32.6897C32.2161 42.0996 31.8322 42.4857 31.8322 42.9619C31.8322 43.4381 32.2161 43.8242 32.6897 43.8242Z" fill="#00AB4E"/>
<path d="M71.5947 51.4585H69.8092C69.4269 50.7667 68.7124 50.3027 67.9067 50.3027C66.7766 50.3027 41.8393 50.3027 40.2495 50.3027H38.0937L35.6044 45.2945C35.2964 44.8635 34.8099 44.6025 34.2857 44.6025H24.6476C23.7376 44.6025 23 45.3747 23 46.3271V77.7007C23 78.9707 23.9836 80.0001 25.1969 80.0001H67.9067C68.2695 80.0001 68.6384 79.9017 68.9646 79.713H68.9689C69.2457 79.5525 69.4852 79.3307 69.6725 79.066H71.5946L71.5947 51.4585Z" fill="#40BD63"/>
<path d="M71.3318 50.3027H67.9067C69.1201 50.3027 70.1036 51.3322 70.1036 52.6021V77.7007C70.1036 78.9707 69.12 80.0001 67.9067 80.0001H71.3318C72.5451 80.0001 73.5286 78.9706 73.5286 77.7007V52.6022C73.5286 51.3322 72.545 50.3027 71.3318 50.3027Z" fill="#40BD63"/>
<rect x="62.4614" y="52.2598" width="4.15385" height="22.2765" rx="1.38462" fill="#004D43"/>
<ellipse cx="64.8847" cy="44.2543" rx="9.34615" ry="9.39788" fill="#EEEEEF"/>
<rect width="3.46624" height="20.1609" transform="matrix(0.867659 -0.49716 0.493035 0.87001 56.9231 37.2759)" fill="white"/>
<rect width="1.9346" height="20.1609" transform="matrix(0.867659 -0.49716 0.493035 0.87001 61.0769 35.1221)" fill="white"/>
<path fill-rule="evenodd" clip-rule="evenodd" d="M64.8847 56.4367C71.5758 56.4367 77.0001 50.9824 77.0001 44.2542C77.0001 37.526 71.5758 32.0718 64.8847 32.0718C58.1935 32.0718 52.7693 37.526 52.7693 44.2542C52.7693 50.9824 58.1935 56.4367 64.8847 56.4367ZM64.8846 53.6522C70.0464 53.6522 74.2308 49.4446 74.2308 44.2543C74.2308 39.064 70.0464 34.8564 64.8846 34.8564C59.7229 34.8564 55.5385 39.064 55.5385 44.2543C55.5385 49.4446 59.7229 53.6522 64.8846 53.6522Z" fill="#407972"/>
</g>
</svg>
