<svg width="328" height="164" viewBox="0 0 328 164" fill="none" xmlns="http://www.w3.org/2000/svg">
<path d="M23.2189 161.504C33.6809 163.667 265.053 165.826 301.876 161.504C312.777 160.224 321.503 148.276 322.776 146.203C330.736 133.238 327.751 53.2794 325.761 26.266C324.69 11.7278 309.838 5.19571 302.871 3.03482C289.548 -1.09779 53.2799 -1.26366 22.2229 4.11573C8.32787 6.52168 3.29087 17.8712 2.29087 24.1796C-0.0421274 38.8847 -1.42113 129.331 2.31887 141.514C5.30487 151.239 12.7689 159.343 23.2189 161.504Z" fill="#E8FFFC"/>
<mask id="mask0_5567_157158" style="mask-type:alpha" maskUnits="userSpaceOnUse" x="0" y="0" width="328" height="164">
<path fill-rule="evenodd" clip-rule="evenodd" d="M23.2189 161.504C33.6809 163.667 265.053 165.826 301.876 161.504C312.777 160.224 321.503 148.276 322.776 146.203C330.736 133.238 327.751 53.2794 325.761 26.266C324.69 11.7278 309.838 5.19571 302.871 3.03482C289.548 -1.09779 53.2799 -1.26366 22.2229 4.11573C8.32787 6.52168 3.29087 17.8712 2.29087 24.1796C-0.0421274 38.8847 -1.42113 129.331 2.31887 141.514C5.30487 151.239 12.7689 159.343 23.2189 161.504Z" fill="white"/>
</mask>
<g mask="url(#mask0_5567_157158)">
<path d="M327.092 98H253.907C250.658 98 248 95.3513 248 92.1134V30.8866C248 27.6487 250.658 25 253.907 25H327.092C330.342 25 333 27.6487 333 30.8866V92.1134C333 95.3513 330.342 98 327.092 98Z" fill="#84D7CC"/>
<path d="M320.895 60H258.105C256.397 60 255 58.5994 255 56.8873V38.1134C255 36.4013 256.397 35 258.105 35H320.895C322.603 35 324 36.4013 324 38.1134V56.8873C324 58.5994 322.603 60 320.895 60Z" fill="#EDFFF5"/>
<path d="M320.895 88H258.105C256.397 88 255 86.5993 255 84.8872V66.1128C255 64.4007 256.397 63 258.105 63H320.895C322.603 63 324 64.4007 324 66.1128V84.8872C324 86.5993 322.603 88 320.895 88Z" fill="#EDFFF5"/>
<path d="M271.509 14C271.509 14 268.554 5.92744 276.885 -2C276.885 -2 281.64 6.12993 271.509 14Z" fill="#84D7CC"/>
<path d="M272 16C272 16 263.245 13.6231 262 2C262 2 271.982 2.92127 272 16Z" fill="#84D7CC"/>
<path d="M278 14H263V20.5661C263 23.5673 265.476 26 268.531 26H272.468C275.523 26 278 23.5673 278 20.5661V14Z" fill="#BBF0D3"/>
<path d="M268.083 14L267 13L271.91 13.3753L272 14H268.083Z" fill="#EAFFF2"/>
<path d="M293 48.5C293 50.4332 291.432 52 289.5 52C287.567 52 286 50.4332 286 48.5C286 46.5668 287.567 45 289.5 45C291.432 45 293 46.5668 293 48.5Z" fill="#BBF0D3"/>
<path d="M294 75.5C294 77.4332 292.433 79 290.5 79C288.567 79 287 77.4332 287 75.5C287 73.5668 288.567 72 290.5 72C292.433 72 294 73.5668 294 75.5Z" fill="#DAF6E5"/>
<path d="M315.909 26H298.091C295.279 26 293 23.7612 293 21H321C321 23.7612 318.721 26 315.909 26Z" fill="#BBF0D3"/>
</g>
<mask id="mask1_5567_157158" style="mask-type:alpha" maskUnits="userSpaceOnUse" x="0" y="0" width="328" height="164">
<path fill-rule="evenodd" clip-rule="evenodd" d="M23.2189 161.504C33.6809 163.667 265.053 165.826 301.876 161.504C312.777 160.224 321.503 148.276 322.776 146.203C330.736 133.238 327.751 53.2794 325.761 26.266C324.69 11.7278 309.838 5.19571 302.871 3.03482C289.548 -1.09779 53.2799 -1.26366 22.2229 4.11573C8.32787 6.52168 3.29087 17.8712 2.29087 24.1796C-0.0421274 38.8847 -1.42113 129.331 2.31887 141.514C5.30487 151.239 12.7689 159.343 23.2189 161.504Z" fill="white"/>
</mask>
<g mask="url(#mask1_5567_157158)">
<path d="M333.689 179.143H-56.7853C-68.2968 179.143 -76.1338 167.907 -71.7802 157.647L-31.7325 63.277C-29.2439 57.4127 -23.3172 53.5796 -16.7383 53.5796H286.792C293.028 53.5796 298.711 57.0276 301.403 62.4446L348.301 156.814C353.445 167.167 345.608 179.143 333.689 179.143Z" fill="#BBF0D3"/>
<path fill-rule="evenodd" clip-rule="evenodd" d="M206.019 118.302C182.295 126.32 158.74 134.794 135.173 143.261C127.999 145.662 119.938 142 116.685 135.363C110.998 123.64 105.059 112.055 99.1253 100.456C95.9993 94.0356 99.6679 87.0354 106.648 84.9059C130.196 77.7247 153.502 69.9572 176.658 61.5992C183.955 59.2159 191.405 64.2761 194.508 70.8786C200.114 82.268 206.087 93.3816 212.653 104.248C215.975 109.732 212.924 116.023 206.019 118.302Z" fill="#3393E3"/>
<path fill-rule="evenodd" clip-rule="evenodd" d="M205.296 116.301C182.073 124.019 159 132.156 135.922 140.293C128.983 142.574 121.153 139.139 117.96 132.775C112.538 121.6 106.772 110.6 101.132 99.5355C98.0547 93.4017 101.502 86.5005 108.453 84.4449C131.569 77.4061 154.446 69.7908 177.172 61.5769C183.63 59.2115 191.988 64.4969 194.422 70.5742C199.57 81.6068 205.383 92.3178 211.696 102.724C214.907 108.071 211.969 114.131 205.296 116.301Z" fill="#63B5FA"/>
<path fill-rule="evenodd" clip-rule="evenodd" d="M170.4 98.1699C171.905 101.009 174.404 103.267 177.292 104.805C177.509 104.92 177.73 105.029 177.96 105.136C182.124 107.068 187.163 107.611 191.711 106.229C196.26 104.848 199.341 101.881 200.508 98.4016C200.574 98.2098 200.627 98.0248 200.679 97.8296C201.354 95.2769 200.975 92.3517 199.446 89.5741C195.728 82.8198 185.606 78.3127 178.117 80.6023C170.42 82.9556 166.799 91.2085 170.4 98.1699Z" fill="#1868AB"/>
<path fill-rule="evenodd" clip-rule="evenodd" d="M178.611 94.3202C180.127 97.1924 183.997 98.6723 187.255 97.7041C190.512 96.735 191.912 93.699 190.377 90.8207C188.843 87.9451 184.975 86.3075 181.735 87.2827C178.496 88.257 177.096 91.4507 178.611 94.3202Z" fill="#F1FEF5"/>
<path fill-rule="evenodd" clip-rule="evenodd" d="M179 105.446C183.084 107.142 187.887 107.521 192.255 106.229C196.626 104.936 201.414 100.072 200.971 99.0497C200.376 97.6798 191.78 96.1983 187.253 97.507C182.727 98.8149 179.791 101.865 179 105.446Z" fill="#F1FEF5"/>
<path d="M129 88C141.362 84.0872 153.693 80.0872 166 76" stroke="#1868AB" stroke-width="3.44729" stroke-linecap="round" stroke-linejoin="round"/>
<path d="M113 106C127.352 101.725 141.684 97.3918 156 93" stroke="#FFF9ED" stroke-width="3.44729" stroke-linecap="round" stroke-linejoin="round"/>
<path d="M117 113C123.911 110.984 127.299 109.985 134 108" stroke="#FFF9ED" stroke-width="2.29791" stroke-linecap="round" stroke-linejoin="round"/>
<path d="M139 106C145.866 103.986 149.252 102.987 156 101" stroke="#FFD37B" stroke-width="2.29791" stroke-linecap="round" stroke-linejoin="round"/>
<path d="M120 120C124.855 118.389 127.251 117.59 132 116" stroke="#FFD37B" stroke-width="2.29791" stroke-linecap="round" stroke-linejoin="round"/>
<path d="M137 114C145.999 111.33 154.998 108.658 164 106" stroke="#FFF9ED" stroke-width="2.29791" stroke-linecap="round" stroke-linejoin="round"/>
<path d="M123 127C127.036 125.794 129.035 125.193 133 124" stroke="#FFF9ED" stroke-width="2.29791" stroke-linecap="round" stroke-linejoin="round"/>
<path d="M137 122C143.876 119.98 147.263 118.98 154 117" stroke="#FFD37B" stroke-width="2.29791" stroke-linecap="round" stroke-linejoin="round"/>
<path fill-rule="evenodd" clip-rule="evenodd" d="M203.812 113.004C197.866 114.928 194.926 115.906 189.058 117.885C188.037 118.23 186.804 117.773 186.317 116.874C185.47 115.308 185.045 114.53 184.199 112.98C183.713 112.09 184.148 111.095 185.167 110.766C191.013 108.877 193.942 107.943 199.866 106.105C200.899 105.784 202.149 106.226 202.643 107.084C203.504 108.581 203.936 109.329 204.797 110.829C205.293 111.69 204.848 112.669 203.812 113.004Z" fill="#FFC54F"/>
<path fill-rule="evenodd" clip-rule="evenodd" d="M210.007 104.609L205.084 103.672L217.564 38.1768L222.486 39.1146L210.007 104.609Z" fill="white"/>
<path fill-rule="evenodd" clip-rule="evenodd" d="M196.969 99.1736L186.084 96.6722L198.564 31.1768L209.448 33.6789L196.969 99.1736Z" fill="white"/>
<path fill-rule="evenodd" clip-rule="evenodd" d="M-50.7857 175.143H339.689C349.799 175.143 356.969 166.525 355.772 157.591H-66.8664C-68.0745 166.587 -60.8296 175.143 -50.7857 175.143Z" fill="#84D7CC"/>
<path fill-rule="evenodd" clip-rule="evenodd" d="M231.167 123.003C231.167 123.003 222.824 133.001 223.152 135.063C223.481 137.124 226.642 146.346 238.786 137.645C238.786 137.645 232.414 160.013 236.543 163.372C240.673 166.731 241.868 167.597 241.868 167.597C241.868 167.597 238.838 173.789 244.814 178.122C244.814 178.122 245.148 184.199 248.842 186.147C252.534 188.096 262.634 191.771 262.634 191.771C262.634 191.771 266.871 194.479 269.464 186.877C272.059 179.276 265.544 178.2 265.544 178.2L259.217 155.742L251.604 145.116L243.776 135.792L236.599 126.577L231.167 123.003Z" fill="#FFDAB8"/>
<path fill-rule="evenodd" clip-rule="evenodd" d="M220.025 102.573L226.6 98.0537L252.709 136.039L246.135 140.558L220.025 102.573Z" fill="#FFC54F"/>
<path fill-rule="evenodd" clip-rule="evenodd" d="M220.29 105.337L229.897 99.6304L231.542 102.301C232.767 104.347 232.015 107.271 229.968 108.496L228.13 109.581C226.084 110.807 223.161 110.053 221.935 108.007L220.29 105.337Z" fill="#00AB4E"/>
<path fill-rule="evenodd" clip-rule="evenodd" d="M214.737 99.5531L227.19 92.2358L230.692 98.3404C231.777 100.178 231.126 102.581 229.287 103.666L223.565 107.061C221.727 108.147 219.325 107.496 218.239 105.658L214.737 99.5531Z" fill="#117367"/>
<path fill-rule="evenodd" clip-rule="evenodd" d="M238.786 137.645C238.786 137.645 240.865 149.364 244.343 152.615C247.82 155.866 250.319 156.948 252.285 165.303C254.25 173.658 256.419 172.678 256.419 172.678C256.419 172.678 253.928 175.611 257.298 179.514C260.668 183.417 263.058 185.15 263.058 185.15L266.757 191.114C266.757 191.114 264.076 138.477 238.786 137.645Z" fill="#FFB490"/>
<path d="M236.815 163.751C236.815 163.751 251.378 176.864 256.42 172.677" stroke="#FFB18D" stroke-width="1.32055" stroke-linecap="round" stroke-linejoin="round"/>
<path fill-rule="evenodd" clip-rule="evenodd" d="M229.103 125.265L225.869 129.874C225.869 129.874 233.206 145.088 238.785 137.645L229.103 125.265Z" fill="#FFB490"/>
<path fill-rule="evenodd" clip-rule="evenodd" d="M231.155 114.971C226.642 117.188 228.895 128.65 232.81 133.312C236.723 137.973 246.285 144.906 250.421 152.281C254.556 159.655 252.403 175.623 264.69 187.427C289.319 211.086 296.215 211.127 295.657 210.609L308.804 220.142C308.804 220.142 332.14 220.651 335.249 193.728C335.249 193.728 316.019 180.514 310.467 169.56C306.039 160.822 294.477 138.556 289.98 129.905C288.754 127.545 286.552 125.851 283.959 125.255C282.757 124.979 250.773 106.865 245.366 109.958C238.806 113.712 240.831 117.086 240.831 117.086C240.831 117.086 236.252 112.468 231.155 114.971Z" fill="#FFDAB8"/>
<path fill-rule="evenodd" clip-rule="evenodd" d="M282.112 150.824C282.112 150.824 277.223 148.009 271.899 143.784C266.574 139.558 261.902 135.44 260.814 133.923C259.726 132.405 255.92 127.092 252.334 124.493C248.749 121.892 240.818 117.237 240.818 117.237C240.818 117.237 244.075 117.775 247.333 118.313C250.59 118.851 259.499 125.676 259.499 125.676C259.499 125.676 269.611 137.383 272.109 138.465C274.607 139.547 279.608 145.726 279.608 145.726L282.112 150.824Z" fill="#FFB490"/>
<path fill-rule="evenodd" clip-rule="evenodd" d="M235.769 67.4688C235.769 86.4831 220.354 101.897 201.34 101.897C182.325 101.897 166.912 86.4831 166.912 67.4688C166.912 48.4544 182.325 33.0405 201.34 33.0405C220.354 33.0405 235.769 48.4544 235.769 67.4688Z" stroke="#117367" stroke-width="6.60275"/>
<path fill-rule="evenodd" clip-rule="evenodd" d="M2.37858 5.99302L6.60973 7.11337C7.07404 7.2358 7.37896 7.68009 7.31967 8.15672C6.95007 11.1312 8.82579 13.9979 11.8042 14.7864C14.7841 15.5757 17.8333 14.0133 18.9829 11.2436C19.1677 10.8017 19.6535 10.5668 20.1163 10.6885L24.3475 11.8088C25.4316 12.096 26.0784 13.2079 25.7912 14.2928L15.6126 52.7405C15.3246 53.8254 14.2135 54.4722 13.1286 54.185L-8.83955 48.3684C-9.92525 48.0812 -10.5705 46.9693 -10.2833 45.8844L-0.104669 7.43677C0.181771 6.35184 1.29365 5.70581 2.37858 5.99302Z" fill="#BBF0D3"/>
<path fill-rule="evenodd" clip-rule="evenodd" d="M-2.57568 16.1345L-1.30133 11.4429L12.0374 37.7291L8.38527 39.5155L-2.57568 16.1345Z" fill="#84D7CC"/>
<path fill-rule="evenodd" clip-rule="evenodd" d="M-31.0439 13.3479L-27.1261 11.396C-26.6972 11.1819 -26.1744 11.3143 -25.9041 11.7117C-24.2178 14.1903 -20.9184 15.1043 -18.1579 13.7306C-15.4006 12.3561 -14.1416 9.16989 -15.1056 6.3309C-15.2589 5.8766 -15.0502 5.37995 -14.6205 5.16512L-10.7028 3.21317C-9.69947 2.71344 -8.47825 3.12231 -7.97929 4.12639L9.75689 39.725C10.2574 40.7306 9.84852 41.9496 8.84444 42.4508L-11.4959 52.584C-12.5 53.0838 -13.7196 52.6764 -14.2201 51.6716L-31.9571 16.0714C-32.4561 15.0681 -32.048 13.8476 -31.0439 13.3479Z" fill="#47A99C"/>
<path fill-rule="evenodd" clip-rule="evenodd" d="M35.3328 64.0162C36.6202 64.0162 37.6635 63.2077 37.6635 62.2097V33.2593H39.0534C40.3416 33.2593 41.3842 34.0678 41.3842 35.0657V65.0934C41.3842 66.0905 40.3416 66.8998 39.0534 66.8998H-22.0215C-23.3089 66.8998 -24.353 66.0905 -24.353 65.0934V64.0162H35.3328Z" fill="#84D653"/>
<path fill-rule="evenodd" clip-rule="evenodd" d="M-22.707 66.0839H38.2555C39.2418 66.0839 40.0411 65.464 40.0411 64.6994V34.4438C40.0411 33.6784 39.2418 33.0586 38.2555 33.0586H-22.707C-23.6933 33.0586 -24.4941 33.6784 -24.4941 34.4438V64.6994C-24.4941 65.464 -23.6933 66.0839 -22.707 66.0839Z" fill="#B3EC91"/>
<path fill-rule="evenodd" clip-rule="evenodd" d="M54.9913 63.0902L58.668 61.2468C59.2994 60.9319 59.5558 60.1657 59.2424 59.5343L32.3486 5.5604C33.3142 5.41256 35.4109 5.34403 35.8706 6.26572L62.8591 60.4545C63.4274 61.5964 62.9631 62.9839 61.8212 63.5522L57.9635 65.4733C56.8208 66.0416 55.4332 65.578 54.865 64.4354L54.3098 63.2958C54.5408 63.2603 54.771 63.1995 54.9913 63.0902Z" fill="#84D653"/>
<path fill-rule="evenodd" clip-rule="evenodd" d="M55.5624 49.0103L34.6677 6.98212C34.0979 5.84021 32.7111 5.37436 31.5677 5.94339L27.7092 7.86454C26.5665 8.43434 26.1022 9.82265 26.6712 10.9646L53.6705 65.1749C54.2388 66.3183 55.6263 66.7834 56.769 66.2136L60.6275 64.2917C61.7709 63.7227 62.236 62.3359 61.6662 61.1932L59.896 57.7143" fill="#B3EC91"/>
<path fill-rule="evenodd" clip-rule="evenodd" d="M46.2509 124.381L1.96687 151.776C0.64325 152.595 -1.05285 152.494 -2.27004 151.525L-53.6244 110.619C-55.6712 108.989 -55.4034 105.809 -53.1135 104.541L-12.0112 81.788C-10.8061 81.1215 -9.32893 81.1818 -8.18248 81.9436L46.3525 118.207C48.5813 119.689 48.5275 122.973 46.2509 124.381Z" fill="#47A99C"/>
<path fill-rule="evenodd" clip-rule="evenodd" d="M46.2509 122.381L1.96687 149.776C0.64325 150.595 -1.05345 150.494 -2.27004 149.525L-53.6244 108.619C-55.6712 106.989 -55.4034 103.809 -53.1135 102.541L-12.0112 79.7885C-10.8061 79.1214 -9.32893 79.1818 -8.18248 79.9435L46.3525 116.207C48.5813 117.689 48.5275 120.974 46.2509 122.381Z" fill="#84D7CC"/>
<path fill-rule="evenodd" clip-rule="evenodd" d="M125.482 33.2626C126.089 33.1024 126.714 33.4528 126.894 34.0541L127.941 37.64C128.029 37.9295 127.994 38.2414 127.844 38.5047C127.702 38.7742 127.456 38.9744 127.164 39.0599L123.669 40.0809C123.06 40.2449 122.43 39.8938 122.249 39.2886L121.202 35.7112C121.033 35.1006 121.386 34.4676 121.994 34.2905L125.482 33.2626ZM117.114 10.6315C118.372 10.2627 119.675 10.0763 120.986 10.0771C122.243 10.0656 123.493 10.2773 124.676 10.7039C125.805 11.1158 126.833 11.7642 127.69 12.6058C129.262 14.2898 130.057 16.5543 129.884 18.8513C129.787 19.726 129.559 20.5814 129.209 21.3892C128.873 22.1753 128.466 22.9284 127.994 23.6399C127.523 24.366 127.077 25.0259 126.661 25.665C126.259 26.2702 125.914 26.9116 125.628 27.5815C125.368 28.1729 125.276 28.8243 125.363 29.4649C125.399 29.7652 125.349 30.0694 125.22 30.3427C125.105 30.6138 124.871 30.8147 124.585 30.8856L121.495 31.7865C121.198 31.8727 120.878 31.8381 120.608 31.6887C120.331 31.5616 120.132 31.3083 120.075 31.0096C119.827 30.0378 119.779 29.026 119.934 28.035C120.084 27.1472 120.352 26.2825 120.729 25.4648C121.091 24.6771 121.52 23.9217 122.011 23.2079C122.501 22.5126 122.947 21.845 123.35 21.2059C123.722 20.6353 124.032 20.0263 124.275 19.3895C124.484 18.8389 124.505 18.2337 124.335 17.6701C124.051 16.6568 123.284 15.8498 122.288 15.5118C121.072 15.0967 119.752 15.1006 118.538 15.5218C116.238 16.1932 114.881 17.841 114.468 20.4644C114.439 20.7408 114.36 21.0103 114.233 21.2575C114.075 21.4924 113.827 21.6525 113.548 21.7018L110.264 22.6558C110.033 22.7282 109.782 22.7059 109.568 22.5942C109.34 22.4787 109.173 22.2693 109.113 22.0213C108.861 20.9811 108.868 19.8954 109.135 18.8597C109.422 17.6701 109.913 16.5389 110.588 15.5179C111.334 14.4014 112.253 13.4112 113.311 12.5842C114.439 11.6903 115.731 11.0273 117.114 10.6315Z" fill="#28D677"/>
<path fill-rule="evenodd" clip-rule="evenodd" d="M148.717 58.7309C148.906 58.6339 149.128 58.6223 149.327 58.7001C149.525 58.7656 149.687 58.9111 149.772 59.102L150.894 61.4205C150.982 61.6099 150.994 61.8255 150.925 62.0227C150.854 62.2205 150.711 62.383 150.523 62.4762L148.258 63.5627C148.071 63.6574 147.851 63.6689 147.656 63.5935C147.455 63.5319 147.29 63.3886 147.201 63.1992L146.088 60.8738C145.904 60.4834 146.066 60.0176 146.451 59.8243L148.717 58.7309ZM140.456 44.2626C141.275 43.8707 142.144 43.5958 143.039 43.4472C143.888 43.2986 144.757 43.3016 145.607 43.4556C146.421 43.6104 147.191 43.9392 147.867 44.4181C148.584 44.9325 149.153 45.6247 149.519 46.4286C149.836 47.0492 150.023 47.7276 150.073 48.4221C150.104 49.0266 150.047 49.6326 149.906 50.2209C149.764 50.8022 149.57 51.3689 149.327 51.9149L148.65 53.4433C148.446 53.9022 148.284 54.3789 148.162 54.8663C148.049 55.299 148.061 55.7549 148.197 56.1814C148.249 56.3847 148.242 56.598 148.175 56.7967C148.125 56.9922 147.989 57.1547 147.804 57.2371L145.803 58.1988C145.61 58.2889 145.389 58.3028 145.186 58.2358C144.98 58.1811 144.817 58.0279 144.747 57.8277C144.466 57.1932 144.318 56.5087 144.312 55.8149C144.316 55.1935 144.401 54.5752 144.563 53.9754C144.72 53.3987 144.928 52.8366 145.186 52.2976C145.434 51.7639 145.66 51.2596 145.87 50.7768C146.057 50.3471 146.2 49.8998 146.295 49.4409C146.374 49.0405 146.324 48.6254 146.151 48.2558C145.839 47.5998 145.226 47.1378 144.509 47.0177C143.634 46.8729 142.735 47.0238 141.955 47.4481C140.485 48.1288 139.599 49.6603 139.743 51.275C139.756 51.4675 139.732 51.6608 139.671 51.844C139.588 52.0196 139.439 52.1559 139.257 52.2229L137.12 53.2547C136.97 53.3294 136.796 53.3417 136.636 53.2893C136.468 53.2346 136.332 53.1114 136.262 52.9497C135.976 52.2683 135.859 51.5283 135.922 50.7922C135.981 49.9506 136.188 49.1259 136.535 48.3567C136.913 47.5105 137.427 46.7312 138.055 46.049C138.731 45.3021 139.547 44.6946 140.456 44.2626Z" fill="#00AB4E"/>
<path fill-rule="evenodd" clip-rule="evenodd" d="M162.48 15.5247C163.495 15.8727 164.454 16.364 165.331 16.983C166.171 17.5667 166.9 18.2967 167.483 19.1367C168.038 19.9452 168.416 20.8615 168.591 21.8263C168.76 22.8574 168.661 23.9146 168.305 24.8971C168.052 25.6802 167.647 26.4055 167.11 27.03C166.631 27.5682 166.077 28.0341 165.465 28.4129C164.866 28.7756 164.236 29.0859 163.585 29.3415L161.718 30.0784C161.164 30.2894 160.633 30.5551 160.131 30.8692C159.672 31.1372 159.301 31.5314 159.06 32.0042C158.941 32.2206 158.765 32.4 158.551 32.5209C158.349 32.651 158.096 32.6756 157.873 32.5863L155.377 31.757C155.139 31.6754 154.943 31.5029 154.831 31.2773C154.696 31.0509 154.683 30.7714 154.797 30.5335C155.092 29.7681 155.538 29.069 156.11 28.4784C156.629 27.9563 157.217 27.5051 157.856 27.137C158.468 26.7782 159.113 26.4779 159.78 26.2392C160.435 26.002 161.045 25.7633 161.616 25.5608C162.132 25.3537 162.626 25.095 163.09 24.7885C163.492 24.519 163.795 24.1256 163.954 23.6682C164.239 22.8589 164.109 21.9611 163.607 21.2658C162.993 20.4134 162.11 19.792 161.101 19.5002C159.293 18.8472 157.27 19.3962 156.042 20.8746C155.891 21.0456 155.713 21.1895 155.514 21.3012C155.295 21.3797 155.052 21.3713 154.839 21.2781L152.184 20.368C151.998 20.301 151.842 20.1685 151.745 19.996C151.649 19.8089 151.638 19.5903 151.714 19.3939C152.038 18.5808 152.558 17.8593 153.227 17.2941C153.979 16.6327 154.841 16.1106 155.775 15.7503C156.8 15.3553 157.88 15.1273 158.976 15.0757C160.162 14.9949 161.353 15.1474 162.48 15.5247ZM157.358 34.5952C157.592 34.6722 157.784 34.8424 157.89 35.0665C158.01 35.2967 158.028 35.567 157.938 35.8103L156.946 38.6932C156.77 39.176 156.242 39.4332 155.753 39.2753L152.936 38.3074C152.701 38.2273 152.508 38.0541 152.404 37.8285C152.28 37.5998 152.262 37.328 152.356 37.0847L153.348 34.2018C153.428 33.9669 153.601 33.7744 153.827 33.6689C154.057 33.5488 154.326 33.5319 154.57 33.6212L157.358 34.5952Z" fill="#BBF0D3"/>
<path d="M230 29.1992L236.456 21.0703" stroke="#FFC54F" stroke-width="2.15908" stroke-linecap="round" stroke-linejoin="round"/>
<path d="M240.521 41.6315L254.746 35.5947" stroke="#FFC54F" stroke-width="2.15908" stroke-linecap="round" stroke-linejoin="round"/>
<path d="M246.188 59.9696L256.749 59.2335" stroke="#FFC54F" stroke-width="2.15908" stroke-linecap="round" stroke-linejoin="round"/>
</g>
</svg>
