<svg width="138" height="164" viewBox="0 0 138 164" fill="none" xmlns="http://www.w3.org/2000/svg">
<path fill-rule="evenodd" clip-rule="evenodd" d="M115.5 60.75C115.5 90.9881 90.9873 115.5 60.75 115.5C30.5127 115.5 6 90.9881 6 60.75C6 30.5119 30.5127 6 60.75 6C90.9873 6 115.5 30.5119 115.5 60.75Z" fill="#EBFFE0"/>
<mask id="mask0_5567_159536" style="mask-type:alpha" maskUnits="userSpaceOnUse" x="99" y="49" width="4" height="13">
<path fill-rule="evenodd" clip-rule="evenodd" d="M102.078 49.9522L102.156 60.7854C102.161 61.2712 101.769 61.6711 101.281 61.6738L99.7295 61.6856L99.6358 49.0876L101.187 49.0757C101.189 49.0757 101.191 49.0757 101.193 49.0757C101.679 49.0757 102.073 49.4677 102.078 49.9522Z" fill="white"/>
</mask>
<g mask="url(#mask0_5567_159536)">
<path fill-rule="evenodd" clip-rule="evenodd" d="M107.597 67.1251H94.1974V43.6357H107.597V67.1251Z" fill="#1868AB"/>
</g>
<mask id="mask1_5567_159536" style="mask-type:alpha" maskUnits="userSpaceOnUse" x="25" y="23" width="76" height="140">
<path fill-rule="evenodd" clip-rule="evenodd" d="M26.0332 36.3007L25.1171 149.232C25.0604 156.34 30.7733 162.152 37.8815 162.213L86.6463 162.635H86.8667C93.8799 162.579 99.5757 156.903 99.6338 149.864L100.55 36.9475C100.593 29.8446 95.7569 24.0419 89.7509 23.9917L36.9918 23.5337C36.9654 23.5337 36.9377 23.5337 36.9113 23.5337C30.941 23.5337 26.0768 29.2321 26.0332 36.3007Z" fill="white"/>
</mask>
<g mask="url(#mask1_5567_159536)">
<path fill-rule="evenodd" clip-rule="evenodd" d="M105.937 93.4503L105.989 17.1021H19.5738C19.5738 17.1021 11.876 85.5249 18.0998 94.2266C24.3236 102.928 42.5489 115.56 61.7298 115.56C80.92 115.56 94.7165 107.107 105.937 93.4503Z" fill="#5297D1"/>
</g>
<mask id="mask2_5567_159536" style="mask-type:alpha" maskUnits="userSpaceOnUse" x="29" y="28" width="67" height="88">
<path fill-rule="evenodd" clip-rule="evenodd" d="M29.9022 105.214C36.995 110.471 46.3679 115.56 61.7301 115.662C77.0924 115.764 87.8865 110.471 94.9967 104.362V65.9844L95.8137 38.3256C95.8454 33.3981 92.688 29.3734 88.7663 29.3391L80.2787 29.2652C79.191 29.2546 78.2366 29.0896 77.966 30.4149L77.6651 31.888C77.3945 33.2133 76.4401 34.136 75.3537 34.1267L51.2189 33.9142C50.1312 33.905 49.1887 32.9651 48.9339 31.6372L48.6501 30.1575C48.4218 28.9576 47.6324 28.9629 46.6807 28.9668C46.5791 28.9668 46.4735 28.9668 46.3679 28.9668L37.8816 28.8916C37.8644 28.8916 37.8486 28.8916 37.8327 28.8916C33.9295 28.8916 30.7509 32.8463 30.7206 37.7554L29.9022 105.214Z" fill="white"/>
</mask>
<g mask="url(#mask2_5567_159536)">
<path fill-rule="evenodd" clip-rule="evenodd" d="M102.245 99.264L101.255 21.062H24.387C24.387 21.062 18.637 89.582 23.257 100.015C27.877 110.449 47.1644 115.662 63.0651 115.662C80.6796 114.837 95.4088 107.835 102.245 99.264Z" fill="white"/>
</g>
<mask id="mask3_5567_159536" style="mask-type:alpha" maskUnits="userSpaceOnUse" x="23" y="49" width="3" height="13">
<path fill-rule="evenodd" clip-rule="evenodd" d="M23.4422 49.9522L23.3643 60.7854C23.359 61.2712 23.7511 61.6711 24.2395 61.6738L25.7905 61.6856L25.8842 49.0876L24.3332 49.0757C24.3306 49.0757 24.3292 49.0757 24.3266 49.0757C23.8408 49.0757 23.4475 49.4677 23.4422 49.9522Z" fill="white"/>
</mask>
<g mask="url(#mask3_5567_159536)">
<path fill-rule="evenodd" clip-rule="evenodd" d="M17.9233 67.1251H31.3227V43.6357H17.9233V67.1251Z" fill="#1868AB"/>
</g>
<mask id="mask4_5567_159536" style="mask-type:alpha" maskUnits="userSpaceOnUse" x="23" y="63" width="3" height="14">
<path fill-rule="evenodd" clip-rule="evenodd" d="M23.3353 64.6188L23.2574 75.4534C23.2521 75.9405 23.6441 76.3391 24.1312 76.3431L25.6835 76.3549L25.7759 63.7555L24.2236 63.7437C24.2223 63.7437 24.2197 63.7437 24.217 63.7437C23.7339 63.7437 23.3392 64.1344 23.3353 64.6188Z" fill="white"/>
</mask>
<g mask="url(#mask4_5567_159536)">
<path fill-rule="evenodd" clip-rule="evenodd" d="M17.8164 81.7931H31.2144V58.3037H17.8164V81.7931Z" fill="#117367"/>
</g>
<mask id="mask5_5567_159536" style="mask-type:alpha" maskUnits="userSpaceOnUse" x="54" y="28" width="14" height="3">
<path fill-rule="evenodd" clip-rule="evenodd" d="M54.977 29.2399L54.9756 29.463C54.969 30.086 55.4746 30.5982 56.0976 30.6021L66.3607 30.6787C66.985 30.6826 67.4945 30.1784 67.4998 29.554V29.331C67.5077 28.7053 67.0035 28.1958 66.3778 28.1905L56.1174 28.1152C56.1148 28.1152 56.1122 28.1152 56.1108 28.1152C55.4891 28.1152 54.9809 28.6168 54.977 29.2399Z" fill="white"/>
</mask>
<g mask="url(#mask5_5567_159536)">
<path fill-rule="evenodd" clip-rule="evenodd" d="M49.5347 36.1182H72.9409V22.6753H49.5347V36.1182Z" fill="#1868AB"/>
</g>
<mask id="mask6_5567_159536" style="mask-type:alpha" maskUnits="userSpaceOnUse" x="69" y="27" width="5" height="4">
<path fill-rule="evenodd" clip-rule="evenodd" d="M69.9908 29.3349C69.9829 30.2153 70.6943 30.9374 71.5761 30.944C72.4605 30.9506 73.1799 30.2391 73.1878 29.356C73.1931 28.4729 72.4829 27.7509 71.5999 27.7456C71.5959 27.7456 71.5919 27.7456 71.5867 27.7456C70.7089 27.7456 69.9947 28.4531 69.9908 29.3349Z" fill="white"/>
</mask>
<g mask="url(#mask6_5567_159536)">
<path fill-rule="evenodd" clip-rule="evenodd" d="M64.5498 36.3835H78.6263V22.3057H64.5498V36.3835Z" fill="#1868AB"/>
</g>
<path d="M83.8716 46.5473C84.2597 46.0621 84.9677 45.9834 85.4528 46.3716C85.8939 46.7244 85.999 47.3416 85.7228 47.8154L85.6285 47.9528L79.6285 55.4528C79.2404 55.938 78.5324 56.0167 78.0473 55.6285C77.6062 55.2757 77.5011 54.6585 77.7772 54.1847L77.8716 54.0473L83.8716 46.5473Z" fill="#FFE7B8"/>
<g clip-path="url(#clip0_5567_159536)">
<circle cx="18" cy="19.5" r="16.5" fill="#28D677"/>
<path d="M16.792 28.264C15.608 28.264 14.48 28.096 13.408 27.76C12.336 27.424 11.456 26.968 10.768 26.392L11.944 23.584C13.368 24.64 14.936 25.168 16.648 25.168C18.6 25.168 19.576 24.44 19.576 22.984C19.576 21.64 18.664 20.968 16.84 20.968H14.008V17.968H16.48C17.28 17.968 17.912 17.784 18.376 17.416C18.84 17.048 19.072 16.536 19.072 15.88C19.072 14.568 18.216 13.912 16.504 13.912C14.904 13.912 13.48 14.448 12.232 15.52L11.056 12.784C11.76 12.16 12.624 11.68 13.648 11.344C14.672 10.992 15.736 10.816 16.84 10.816C18.664 10.816 20.088 11.224 21.112 12.04C22.136 12.856 22.648 13.976 22.648 15.4C22.648 16.28 22.424 17.056 21.976 17.728C21.528 18.4 20.904 18.888 20.104 19.192C21.064 19.464 21.808 19.968 22.336 20.704C22.88 21.424 23.152 22.296 23.152 23.32C23.152 24.856 22.584 26.064 21.448 26.944C20.312 27.824 18.76 28.264 16.792 28.264Z" fill="white"/>
</g>
<path fill-rule="evenodd" clip-rule="evenodd" d="M94.95 81H32.0713C30.928 81 30 80.16 30 79.125V67.875C30 66.84 30.928 66 32.0713 66H94.95V81Z" fill="#C4E4FF"/>
<path fill-rule="evenodd" clip-rule="evenodd" d="M49.6569 61.5H103.057C104.129 61.5 105 62.3487 105 63.3973V76.1027C105 77.15 104.129 78 103.057 78H21.4432C20.3705 78 19.5 77.15 19.5 76.1027V63.3973C19.5 62.3487 20.3705 61.5 21.4432 61.5L49.9516 61.5" fill="white"/>
<path d="M49.6569 61.5H103.057C104.129 61.5 105 62.3487 105 63.3973V76.1027C105 77.15 104.129 78 103.057 78H21.4432C20.3705 78 19.5 77.15 19.5 76.1027V63.3973C19.5 62.3487 20.3705 61.5 21.4432 61.5L49.9516 61.5" stroke="#BBBDC0" stroke-width="0.7"/>
<path fill-rule="evenodd" clip-rule="evenodd" d="M23.0556 66.3324C22.7023 66.384 22.4562 66.7198 22.5065 67.0823L22.7023 68.4973C22.7242 68.6526 22.8529 68.7689 23.0058 68.7679C23.9596 68.7614 24.795 69.4801 24.9327 70.4765C25.0705 71.4728 24.463 72.4017 23.5456 72.6686C23.3984 72.7113 23.3061 72.8595 23.3276 73.0148L23.5235 74.4301C23.5738 74.7927 23.9009 75.0446 24.2545 74.9934L36.9416 73.1727C37.2953 73.1231 37.5422 72.7884 37.494 72.4254L37.304 71.0094C37.2835 70.8541 37.1548 70.7377 37.0021 70.7381C36.0483 70.7391 35.2161 70.0172 35.0823 69.0201C34.9489 68.023 35.5604 67.097 36.4793 66.8346C36.6265 66.7923 36.7195 66.6444 36.6987 66.4891L36.5088 65.0733C36.4607 64.7102 36.1343 64.4565 35.7807 64.5062" fill="#00AB4E"/>
<path fill-rule="evenodd" clip-rule="evenodd" d="M28.8445 72.6768C28.905 72.6768 28.9629 72.6264 29.0184 72.5256L29.0335 72.5029L31.9592 66.9765C31.9945 66.9161 32.0121 66.8682 32.0121 66.8329C32.0121 66.7573 31.9516 66.6867 31.8307 66.6212C31.7097 66.5557 31.6177 66.5229 31.5547 66.5229C31.4917 66.5229 31.4275 66.5809 31.362 66.6968L28.4438 72.2156C28.4085 72.2761 28.3909 72.3366 28.3909 72.3971C28.3909 72.4575 28.4514 72.5193 28.5723 72.5823C28.6933 72.6453 28.784 72.6768 28.8445 72.6768ZM28.5988 69.7057C28.9944 69.7057 29.3019 69.5835 29.5211 69.339C29.7403 69.0946 29.85 68.7506 29.85 68.3071C29.85 67.8636 29.7403 67.5158 29.5211 67.2638C29.3019 67.0118 28.9906 66.8858 28.5874 66.8858C28.1842 66.8858 27.8692 67.0143 27.6424 67.2714C27.4156 67.5284 27.3022 67.8737 27.3022 68.3071C27.3022 68.7355 27.4194 69.0757 27.6538 69.3277C27.8881 69.5797 28.2031 69.7057 28.5988 69.7057ZM28.2321 68.6813C28.3077 68.7594 28.4211 68.7985 28.5723 68.7985C28.8747 68.7985 29.0259 68.6297 29.0259 68.292C29.0259 68.1105 28.9906 67.982 28.9201 67.9064C28.8495 67.8308 28.7349 67.793 28.5761 67.793C28.4173 67.793 28.3014 67.8321 28.2283 67.9102C28.1553 67.9883 28.1187 68.1168 28.1187 68.2958C28.1187 68.4747 28.1565 68.6032 28.2321 68.6813ZM31.7853 72.4651C32.1835 72.4651 32.4909 72.3429 32.7076 72.0984C32.9244 71.854 33.0327 71.5088 33.0327 71.0627C33.0327 70.6167 32.9244 70.2677 32.7076 70.0157C32.4909 69.7637 32.1797 69.6377 31.774 69.6377C31.3683 69.6377 31.052 69.7662 30.8252 70.0232C30.5984 70.2803 30.485 70.6255 30.485 71.0589C30.485 71.4873 30.6022 71.8288 30.8365 72.0833C31.0709 72.3378 31.3872 72.4651 31.7853 72.4651ZM31.4187 71.4407C31.4917 71.5188 31.6039 71.5579 31.7551 71.5579C32.0625 71.5579 32.2162 71.3865 32.2162 71.0438C32.2162 70.8624 32.1797 70.7339 32.1066 70.6583C32.0335 70.5827 31.9176 70.5449 31.7589 70.5449C31.6001 70.5449 31.4854 70.5839 31.4149 70.662C31.3443 70.7402 31.309 70.8699 31.309 71.0514C31.309 71.2328 31.3456 71.3626 31.4187 71.4407Z" fill="white"/>
<path fill-rule="evenodd" clip-rule="evenodd" d="M79.2031 73.05V69.0526H80.5072V68.4478H79.2031V68.1927C79.2031 67.7958 79.2913 67.5013 79.4677 67.3091C79.6441 67.1169 79.9245 67.0083 80.3088 66.9831L80.7435 66.9547L80.6868 66.3594L80.3088 66.3783C79.6725 66.4161 79.2015 66.5925 78.896 66.9075C78.5904 67.2225 78.4377 67.6855 78.4377 68.2966V68.4478H77.5399V69.0526H78.4377V73.05H79.2031ZM42.0972 73.05V69.8842L45.5275 73.05H46.5292L42.8721 69.6291L46.3497 66.3877H45.3669L42.0972 69.4495V66.3877H41.3223V73.05H42.0972ZM49.2151 73.1161C49.6498 73.1161 50.0341 73.0185 50.368 72.8232C50.7019 72.6279 50.9586 72.3491 51.1382 71.9868C51.3177 71.6246 51.4075 71.2041 51.4075 70.7253C51.4075 70.2465 51.3177 69.8259 51.1382 69.4637C50.9586 69.1014 50.7019 68.8227 50.368 68.6274C50.0341 68.4321 49.6498 68.3344 49.2151 68.3344C48.7804 68.3344 48.3977 68.4321 48.0669 68.6274C47.7362 68.8227 47.481 69.1014 47.3015 69.4637C47.1219 69.8259 47.0322 70.2465 47.0322 70.7253C47.0322 71.2041 47.1219 71.6246 47.3015 71.9868C47.481 72.3491 47.7362 72.6279 48.0669 72.8232C48.3977 73.0185 48.7804 73.1161 49.2151 73.1161ZM48.1709 72.0294C48.4134 72.3318 48.7615 72.483 49.2151 72.483C49.6687 72.483 50.0168 72.3334 50.2593 72.0341C50.5019 71.7348 50.6232 71.2986 50.6232 70.7253C50.6232 70.1646 50.5003 69.7315 50.2546 69.4259C50.0089 69.1204 49.6624 68.9676 49.2151 68.9676C48.7678 68.9676 48.4213 69.1204 48.1756 69.4259C47.9299 69.7315 47.8071 70.1646 47.8071 70.7253C47.8071 71.2923 47.9283 71.727 48.1709 72.0294ZM54.5281 73.1161C54.8872 73.1161 55.2006 73.0374 55.4684 72.8799C55.7361 72.7224 55.9393 72.4987 56.0779 72.2089V73.05H56.8434V66.3877H56.0779V69.2416C55.9393 68.9518 55.7361 68.7282 55.4684 68.5707C55.2006 68.4132 54.8872 68.3344 54.5281 68.3344C54.1249 68.3344 53.769 68.4321 53.4603 68.6274C53.1516 68.8227 52.9122 69.0999 52.7421 69.459C52.572 69.8181 52.4869 70.2339 52.4869 70.7064C52.4869 71.1852 52.572 71.6057 52.7421 71.9679C52.9122 72.3302 53.1516 72.6121 53.4603 72.8137C53.769 73.0153 54.1249 73.1161 54.5281 73.1161ZM53.6351 72.0152C53.8839 72.3271 54.232 72.483 54.6793 72.483C55.1266 72.483 55.4715 72.3302 55.7141 72.0247C55.9566 71.7191 56.0779 71.286 56.0779 70.7253C56.0779 70.1646 55.9566 69.733 55.7141 69.4306C55.4715 69.1282 55.1266 68.977 54.6793 68.977C54.232 68.977 53.8839 69.1282 53.6351 69.4306C53.3862 69.733 53.2618 70.1583 53.2618 70.7064C53.2618 71.2671 53.3862 71.7034 53.6351 72.0152ZM60.5121 73.1161C60.8397 73.1161 61.161 73.061 61.476 72.9507C61.791 72.8405 62.0493 72.6909 62.2509 72.5019L61.9957 71.9443C61.5484 72.3097 61.057 72.4924 60.5215 72.4924C60.0364 72.4924 59.6616 72.3554 59.397 72.0814C59.1324 71.8073 58.9875 71.4025 58.9623 70.867H62.3265V70.5835C62.3265 69.8842 62.1532 69.3345 61.8067 68.9345C61.4602 68.5345 60.9814 68.3344 60.3703 68.3344C59.9482 68.3344 59.5718 68.4352 59.241 68.6368C58.9103 68.8384 58.6536 69.1203 58.4709 69.4826C58.2882 69.8449 58.1968 70.2622 58.1968 70.7347C58.1968 71.4781 58.4031 72.0609 58.8158 72.483C59.2284 72.9051 59.7939 73.1161 60.5121 73.1161ZM58.9812 70.3756H61.6555C61.6429 69.9094 61.5264 69.5519 61.3059 69.3031C61.0854 69.0542 60.7767 68.9298 60.3798 68.9298C59.9766 68.9298 59.6537 69.0558 59.4111 69.3078C59.1686 69.5598 59.0253 69.9157 58.9812 70.3756ZM67.188 73.05V70.2339H68.4354C68.7567 70.2339 69.0102 70.2827 69.1961 70.3804C69.3819 70.478 69.5442 70.656 69.6828 70.9143L70.8168 73.05H71.6673L70.5049 70.8765C70.3978 70.6749 70.2797 70.5142 70.1505 70.3945C70.0214 70.2748 69.8718 70.1898 69.7017 70.1394C70.2435 70.0575 70.6608 69.8575 70.9538 69.5393C71.2467 69.2212 71.3932 68.8038 71.3932 68.2872C71.3932 67.6635 71.2026 67.191 70.8215 66.8697C70.4403 66.5484 69.8875 66.3877 69.163 66.3877H66.4225V73.05H67.188ZM67.188 69.5913H69.0969C69.6135 69.5913 69.9993 69.4842 70.2545 69.27C70.5096 69.0558 70.6372 68.7313 70.6372 68.2966C70.6372 67.8682 70.5112 67.5501 70.2592 67.3422C70.0072 67.1343 69.6198 67.0303 69.0969 67.0303H67.188V69.5913ZM75.043 73.1161C75.3706 73.1161 75.6919 73.061 76.0069 72.9507C76.3219 72.8405 76.5802 72.6909 76.7818 72.5019L76.5267 71.9443C76.0794 72.3097 75.588 72.4924 75.0525 72.4924C74.5674 72.4924 74.1925 72.3554 73.9279 72.0814C73.6633 71.8073 73.5184 71.4025 73.4932 70.867H76.8574V70.5835C76.8574 69.8842 76.6842 69.3345 76.3377 68.9345C75.9912 68.5345 75.5124 68.3344 74.9013 68.3344C74.4792 68.3344 74.1027 68.4352 73.772 68.6368C73.4412 68.8384 73.1845 69.1203 73.0018 69.4826C72.8191 69.8449 72.7278 70.2622 72.7278 70.7347C72.7278 71.4781 72.9341 72.0609 73.3467 72.483C73.7594 72.9051 74.3248 73.1161 75.043 73.1161ZM73.5121 70.3756H76.1865C76.1739 69.9094 76.0573 69.5519 75.8368 69.3031C75.6163 69.0542 75.3076 68.9298 74.9107 68.9298C74.5075 68.9298 74.1846 69.0558 73.9421 69.3078C73.6995 69.5598 73.5562 69.9157 73.5121 70.3756ZM84.45 72.9507C84.135 73.061 83.8137 73.1161 83.4861 73.1161C82.7679 73.1161 82.2024 72.9051 81.7898 72.483C81.3771 72.0609 81.1708 71.4781 81.1708 70.7347C81.1708 70.2622 81.2622 69.8449 81.4449 69.4826C81.6276 69.1203 81.8843 68.8384 82.215 68.6368C82.5458 68.4352 82.9222 68.3344 83.3443 68.3344C83.9554 68.3344 84.4342 68.5345 84.7807 68.9345C85.1272 69.3345 85.3005 69.8842 85.3005 70.5835V70.867H81.9363C81.9615 71.4025 82.1064 71.8073 82.371 72.0814C82.6356 72.3554 83.0104 72.4924 83.4955 72.4924C84.031 72.4924 84.5224 72.3097 84.9697 71.9443L85.2249 72.5019C85.0233 72.6909 84.765 72.8405 84.45 72.9507ZM84.6295 70.3756H81.9552C81.9993 69.9157 82.1426 69.5598 82.3851 69.3078C82.6277 69.0558 82.9506 68.9298 83.3538 68.9298C83.7507 68.9298 84.0594 69.0542 84.2799 69.3031C84.5004 69.5519 84.6169 69.9094 84.6295 70.3756ZM87.4005 70.4229V73.05H86.635V68.4478H87.3816V69.2511C87.6399 68.7156 88.147 68.4163 88.903 68.3533L89.1771 68.3344L89.2432 68.9959L88.7424 69.0432C88.2699 69.0873 87.9281 69.2353 87.717 69.4873C87.506 69.7393 87.4005 70.0512 87.4005 70.4229ZM90.9463 73.05V70.4229C90.9463 70.0512 91.0518 69.7393 91.2629 69.4873C91.4739 69.2353 91.8157 69.0873 92.2882 69.0432L92.7891 68.9959L92.7229 68.3344L92.4489 68.3533C91.6929 68.4163 91.1857 68.7156 90.9274 69.2511V68.4478H90.1809V73.05H90.9463ZM96.0042 72.8941C95.7585 73.0421 95.475 73.1161 95.1537 73.1161C94.8576 73.1161 94.5851 73.0563 94.3362 72.9366C94.0874 72.8169 93.8905 72.6499 93.7456 72.4357C93.6007 72.2215 93.5283 71.9853 93.5283 71.727C93.5283 71.3805 93.6165 71.1111 93.7929 70.919C93.9693 70.7269 94.2591 70.5883 94.6623 70.5032C95.0655 70.4181 95.6262 70.3756 96.3444 70.3756H96.5523V70.0638C96.5523 69.6795 96.4735 69.4007 96.316 69.2274C96.1585 69.0542 95.9034 68.9676 95.5506 68.9676C95.0214 68.9676 94.4953 69.1314 93.9724 69.459L93.7173 68.9014C93.9567 68.7313 94.2449 68.5943 94.5819 68.4904C94.919 68.3864 95.245 68.3344 95.56 68.3344C96.1459 68.3344 96.5822 68.4841 96.8688 68.7833C97.1555 69.0826 97.2988 69.5377 97.2988 70.1488V73.05H96.5523V72.2656C96.4326 72.5365 96.2499 72.746 96.0042 72.8941ZM95.2576 72.5113C94.9867 72.5113 94.7615 72.431 94.5819 72.2703C94.4024 72.1097 94.3126 71.9065 94.3126 71.6608C94.3126 71.4466 94.374 71.2844 94.4969 71.1741C94.6197 71.0639 94.8261 70.9851 95.1159 70.9379C95.4057 70.8906 95.8278 70.867 96.3822 70.867H96.5523V71.1411C96.5523 71.5443 96.431 71.8734 96.1884 72.1286C95.9459 72.3837 95.6356 72.5113 95.2576 72.5113ZM99.6729 66.3877V73.05H98.9074V66.3877H99.6729Z" fill="#00883E"/>
<path d="M40.6745 73V66.3025H42.147V69.219H42.166L44.9495 66.3025H46.7165L43.6005 69.504L46.8495 73H45.0635L42.166 69.941H42.147V73H40.6745ZM49.1851 73.1045C48.6848 73.1045 48.2478 73.0063 47.8741 72.81C47.5068 72.6073 47.2218 72.3255 47.0191 71.9645C46.8164 71.5972 46.7151 71.1633 46.7151 70.663C46.7151 70.169 46.8164 69.7415 47.0191 69.3805C47.2218 69.0132 47.5068 68.7313 47.8741 68.535C48.2478 68.3387 48.6848 68.2405 49.1851 68.2405C49.6854 68.2405 50.1193 68.3387 50.4866 68.535C50.8603 68.7313 51.1484 69.0132 51.3511 69.3805C51.5601 69.7415 51.6646 70.169 51.6646 70.663C51.6646 71.1633 51.5601 71.5972 51.3511 71.9645C51.1484 72.3255 50.8603 72.6073 50.4866 72.81C50.1193 73.0063 49.6854 73.1045 49.1851 73.1045ZM49.1851 72.031C49.4891 72.031 49.7361 71.9202 49.9261 71.6985C50.1224 71.4768 50.2206 71.1317 50.2206 70.663C50.2206 70.2007 50.1224 69.8618 49.9261 69.6465C49.7361 69.4248 49.4891 69.314 49.1851 69.314C48.8811 69.314 48.6341 69.4248 48.4441 69.6465C48.2541 69.8618 48.1591 70.2007 48.1591 70.663C48.1591 71.1317 48.2541 71.4768 48.4441 71.6985C48.6341 71.9202 48.8811 72.031 49.1851 72.031ZM54.3518 73.1045C53.9465 73.1045 53.5887 73.0063 53.2783 72.81C52.9743 72.6073 52.7368 72.3255 52.5658 71.9645C52.3948 71.5972 52.3093 71.1633 52.3093 70.663C52.3093 70.1627 52.3948 69.732 52.5658 69.371C52.7368 69.01 52.9743 68.7313 53.2783 68.535C53.5887 68.3387 53.9465 68.2405 54.3518 68.2405C54.6622 68.2405 54.9472 68.307 55.2068 68.44C55.4665 68.573 55.6628 68.7503 55.7958 68.972V66.3025H57.2303V73H55.8243V72.297C55.6977 72.544 55.5013 72.7403 55.2353 72.886C54.9757 73.0317 54.6812 73.1045 54.3518 73.1045ZM54.7793 72.031C55.0833 72.031 55.3303 71.9202 55.5203 71.6985C55.7167 71.4768 55.8148 71.1317 55.8148 70.663C55.8148 70.2007 55.7167 69.8618 55.5203 69.6465C55.3303 69.4248 55.0833 69.314 54.7793 69.314C54.4753 69.314 54.2283 69.4248 54.0383 69.6465C53.8483 69.8618 53.7533 70.2007 53.7533 70.663C53.7533 71.1317 53.8483 71.4768 54.0383 71.6985C54.2283 71.9202 54.4753 72.031 54.7793 72.031ZM60.7582 73.1045C60.2072 73.1045 59.7322 73.0063 59.3332 72.81C58.9405 72.6073 58.6365 72.3255 58.4212 71.9645C58.2122 71.5972 58.1077 71.1665 58.1077 70.6725C58.1077 70.1912 58.209 69.77 58.4117 69.409C58.6207 69.0417 58.9025 68.7567 59.2572 68.554C59.6182 68.345 60.033 68.2405 60.5017 68.2405C61.1793 68.2405 61.7177 68.4558 62.1167 68.8865C62.5157 69.3108 62.7152 69.8872 62.7152 70.6155V70.9765H59.4757C59.5263 71.3438 59.6593 71.613 59.8747 71.784C60.0963 71.9487 60.4003 72.031 60.7867 72.031C61.04 72.031 61.2965 71.993 61.5562 71.917C61.8158 71.841 62.0502 71.7238 62.2592 71.5655L62.6392 72.525C62.4048 72.7023 62.1167 72.8448 61.7747 72.9525C61.439 73.0538 61.1002 73.1045 60.7582 73.1045ZM60.5587 69.1905C60.2547 69.1905 60.0077 69.2823 59.8177 69.466C59.634 69.6497 59.52 69.9062 59.4757 70.2355H61.5277C61.4897 69.5388 61.1667 69.1905 60.5587 69.1905ZM66.3171 73V66.3025H69.3761C70.1234 66.3025 70.6997 66.483 71.1051 66.844C71.5104 67.205 71.7131 67.7085 71.7131 68.3545C71.7131 68.8548 71.5832 69.2728 71.3236 69.6085C71.0702 69.9378 70.7061 70.1627 70.2311 70.283C70.5667 70.3843 70.8422 70.6282 71.0576 71.0145L72.1406 73H70.5161L69.3571 70.8625C69.2621 70.6915 69.1449 70.5743 69.0056 70.511C68.8662 70.4413 68.7016 70.4065 68.5116 70.4065H67.7896V73H66.3171ZM67.7896 69.3425H69.1101C69.9017 69.3425 70.2976 69.0258 70.2976 68.3925C70.2976 67.7655 69.9017 67.452 69.1101 67.452H67.7896V69.3425ZM75.1009 73.1045C74.5499 73.1045 74.0749 73.0063 73.6759 72.81C73.2833 72.6073 72.9793 72.3255 72.7639 71.9645C72.5549 71.5972 72.4504 71.1665 72.4504 70.6725C72.4504 70.1912 72.5518 69.77 72.7544 69.409C72.9634 69.0417 73.2453 68.7567 73.5999 68.554C73.9609 68.345 74.3758 68.2405 74.8444 68.2405C75.5221 68.2405 76.0604 68.4558 76.4594 68.8865C76.8584 69.3108 77.0579 69.8872 77.0579 70.6155V70.9765H73.8184C73.8691 71.3438 74.0021 71.613 74.2174 71.784C74.4391 71.9487 74.7431 72.031 75.1294 72.031C75.3828 72.031 75.6393 71.993 75.8989 71.917C76.1586 71.841 76.3929 71.7238 76.6019 71.5655L76.9819 72.525C76.7476 72.7023 76.4594 72.8448 76.1174 72.9525C75.7818 73.0538 75.4429 73.1045 75.1009 73.1045ZM74.9014 69.1905C74.5974 69.1905 74.3504 69.2823 74.1604 69.466C73.9768 69.6497 73.8628 69.9062 73.8184 70.2355H75.8704C75.8324 69.5388 75.5094 69.1905 74.9014 69.1905ZM78.2255 73V69.409H77.342V68.3355H78.2255C78.2381 67.6768 78.4281 67.1828 78.7955 66.8535C79.1691 66.5178 79.736 66.3278 80.496 66.2835L81.0185 66.2455L81.104 67.2905L80.6575 67.319C80.2901 67.338 80.0305 67.4172 79.8785 67.5565C79.7328 67.6895 79.66 67.8953 79.66 68.174V68.3355H80.876V69.409H79.66V73H78.2255ZM83.8031 73.1045C83.2521 73.1045 82.7771 73.0063 82.3781 72.81C81.9854 72.6073 81.6814 72.3255 81.4661 71.9645C81.2571 71.5972 81.1526 71.1665 81.1526 70.6725C81.1526 70.1912 81.2539 69.77 81.4566 69.409C81.6656 69.0417 81.9474 68.7567 82.3021 68.554C82.6631 68.345 83.0779 68.2405 83.5466 68.2405C84.2243 68.2405 84.7626 68.4558 85.1616 68.8865C85.5606 69.3108 85.7601 69.8872 85.7601 70.6155V70.9765H82.5206C82.5713 71.3438 82.7043 71.613 82.9196 71.784C83.1413 71.9487 83.4453 72.031 83.8316 72.031C84.0849 72.031 84.3414 71.993 84.6011 71.917C84.8608 71.841 85.0951 71.7238 85.3041 71.5655L85.6841 72.525C85.4498 72.7023 85.1616 72.8448 84.8196 72.9525C84.4839 73.0538 84.1451 73.1045 83.8031 73.1045ZM83.6036 69.1905C83.2996 69.1905 83.0526 69.2823 82.8626 69.466C82.6789 69.6497 82.5649 69.9062 82.5206 70.2355H84.5726C84.5346 69.5388 84.2116 69.1905 83.6036 69.1905ZM86.5945 73V68.3355H88.0005V69.143C88.2221 68.5983 88.6971 68.2975 89.4255 68.2405L89.8435 68.212L89.929 69.4185L89.1215 69.504C88.4121 69.5737 88.0575 69.9347 88.0575 70.587V73H86.5945ZM90.5095 73V68.3355H91.9155V69.143C92.1372 68.5983 92.6122 68.2975 93.3405 68.2405L93.7585 68.212L93.844 69.4185L93.0365 69.504C92.3272 69.5737 91.9725 69.9347 91.9725 70.587V73H90.5095ZM95.9551 73.1045C95.6068 73.1045 95.2996 73.038 95.0336 72.905C94.7676 72.772 94.5555 72.5915 94.3971 72.3635C94.2451 72.1355 94.1691 71.879 94.1691 71.594C94.1691 71.2583 94.2578 70.9892 94.4351 70.7865C94.6125 70.5838 94.9006 70.4413 95.2996 70.359C95.6986 70.2703 96.2275 70.226 96.8861 70.226H97.2281V70.0645C97.2281 69.7858 97.1648 69.5895 97.0381 69.4755C96.9115 69.3552 96.6961 69.295 96.3921 69.295C96.1388 69.295 95.8696 69.3362 95.5846 69.4185C95.306 69.4945 95.0273 69.6117 94.7486 69.77L94.3591 68.8105C94.5238 68.7028 94.7233 68.6047 94.9576 68.516C95.1983 68.4273 95.4485 68.3608 95.7081 68.3165C95.9678 68.2658 96.2148 68.2405 96.4491 68.2405C97.1711 68.2405 97.7095 68.4052 98.0641 68.7345C98.4188 69.0575 98.5961 69.561 98.5961 70.245V73H97.2566V72.297C97.1616 72.544 97.0001 72.7403 96.7721 72.886C96.5505 73.0317 96.2781 73.1045 95.9551 73.1045ZM96.2781 72.145C96.5441 72.145 96.769 72.0532 96.9526 71.8695C97.1363 71.6858 97.2281 71.4483 97.2281 71.157V70.967H96.8956C96.408 70.967 96.0628 71.0113 95.8601 71.1C95.6575 71.1823 95.5561 71.328 95.5561 71.537C95.5561 71.7143 95.6163 71.86 95.7366 71.974C95.8633 72.088 96.0438 72.145 96.2781 72.145ZM101.405 73.1045C100.803 73.1045 100.363 72.9493 100.084 72.639C99.8056 72.3223 99.6662 71.8537 99.6662 71.233V66.3025H101.101V71.176C101.101 71.6827 101.326 71.936 101.775 71.936C101.845 71.936 101.911 71.9328 101.975 71.9265C102.044 71.9202 102.111 71.9075 102.174 71.8885L102.155 73C101.915 73.0697 101.664 73.1045 101.405 73.1045Z" fill="#58585B"/>
<path d="M42.0473 46.3716C42.4883 46.0187 43.1135 46.0516 43.5151 46.4251L43.6285 46.5473L49.6285 54.0473C50.0167 54.5324 49.938 55.2404 49.4528 55.6285C49.0118 55.9814 48.3866 55.9484 47.9849 55.575L47.8716 55.4528L41.8716 47.9528C41.4834 47.4677 41.5621 46.7597 42.0473 46.3716Z" fill="#FFE7B8"/>
<path d="M63.75 38.625C64.3195 38.625 64.7902 39.0482 64.8647 39.5973L64.875 39.75V51.75C64.875 52.3713 64.3713 52.875 63.75 52.875C63.1805 52.875 62.7098 52.4518 62.6353 51.9027L62.625 51.75V39.75C62.625 39.1287 63.1287 38.625 63.75 38.625Z" fill="#FFD37B"/>
<defs>
<clipPath id="clip0_5567_159536">
<rect width="33" height="33" fill="white" transform="translate(1.5 3)"/>
</clipPath>
</defs>
</svg>
