<svg width="328" height="164" viewBox="0 0 328 164" fill="none" xmlns="http://www.w3.org/2000/svg">
<path d="M304.781 161.504C294.319 163.667 62.9471 165.826 26.1241 161.504C15.2231 160.224 6.49713 148.276 5.22412 146.203C-2.73587 133.238 0.249146 53.2794 2.23914 26.266C3.31015 11.7278 18.1621 5.19571 25.1291 3.03482C38.4521 -1.09779 274.72 -1.26366 305.777 4.11573C319.672 6.52168 324.709 17.8712 325.709 24.1796C328.042 38.8847 329.421 129.331 325.681 141.514C322.695 151.239 315.231 159.343 304.781 161.504Z" fill="#EDFFF5"/>
<mask id="mask0_5567_155469" style="mask-type:alpha" maskUnits="userSpaceOnUse" x="0" y="0" width="328" height="164">
<path fill-rule="evenodd" clip-rule="evenodd" d="M304.781 161.504C294.319 163.667 62.9471 165.826 26.1241 161.504C15.2231 160.224 6.49713 148.276 5.22412 146.203C-2.73587 133.238 0.249146 53.2794 2.23914 26.266C3.31015 11.7278 18.1621 5.19571 25.1291 3.03482C38.4521 -1.09779 274.72 -1.26366 305.777 4.11573C319.672 6.52168 324.709 17.8712 325.709 24.1796C328.042 38.8847 329.421 129.331 325.681 141.514C322.695 151.239 315.231 159.343 304.781 161.504Z" fill="white"/>
</mask>
<g mask="url(#mask0_5567_155469)">
<path d="M38.6865 176.581H17.5175V117.079H38.6865V176.581Z" fill="#84D7CC"/>
<path d="M17.5175 120.965L38.686 124.851V117.078H17.5175V120.965Z" fill="#47A699"/>
<path d="M74.9514 108.817C77.2182 108.817 79.0566 110.667 79.0566 112.947C79.0566 115.228 77.2182 117.079 74.9514 117.079H-18.7586C-21.0259 117.079 -22.8638 115.228 -22.8638 112.947C-22.8638 110.667 -21.0259 108.817 -18.7586 108.817H74.9514Z" fill="#84D7CC"/>
<path d="M340.936 64.2659H225.867V73.6029H340.936V64.2659Z" fill="#BBF0D3"/>
<path d="M296.734 2.64502H286.976V64.9551H296.734V2.64502Z" fill="#BBF0D3"/>
<path d="M286.976 64.9546H277.215V24.9634H286.976V64.9546Z" fill="#84D7CC"/>
<path d="M267.458 64.9546H257.698V13.6494H267.458V64.9546Z" fill="#84D7CC"/>
<path d="M277.215 9.60474H267.456V64.955H277.215V9.60474Z" fill="#BBF0D3"/>
<path d="M320.521 62.2845L311.155 65.0468L296.734 15.5436L306.099 12.7817L320.521 62.2845Z" fill="#BBF0D3"/>
<path d="M274.545 133.022C276.01 137.705 282.313 133.292 285.487 138.498C289.659 145.34 282.254 151.508 284.458 155.636C286.849 160.113 296.719 159.165 299.728 167.483C301.254 171.701 301.314 176.376 299.432 181.281H264.975C263.876 179.58 263.027 177.752 262.527 175.808C260.021 166.06 268.566 165.226 266.806 161.814C264.533 157.408 256.965 155.633 256.471 149.311C255.889 141.875 263.393 140.131 263.019 136.439C262.492 131.234 261.973 120.2 266.854 118.832C267.183 118.739 267.497 118.695 267.793 118.695C272.309 118.695 273.234 128.825 274.545 133.022Z" fill="#BBF0D3"/>
<path d="M285.469 189.665C285.469 189.665 274.57 163.017 267.525 131.016" stroke="white" stroke-width="0.63014"/>
<path d="M272.337 150.27L279.749 141.487" stroke="white" stroke-width="0.63014"/>
<path d="M299.295 194.238C307.1 189.944 315.624 182.619 317.937 173.127C320.958 160.727 310.658 159.666 312.779 155.326C315.519 149.721 324.642 147.463 325.237 139.421C325.938 129.961 316.892 127.743 317.343 123.045C317.978 116.425 318.604 102.388 312.721 100.647C306.29 98.7449 305.136 113.009 303.45 118.698C301.685 124.656 294.087 119.042 290.261 125.664C285.232 134.369 294.159 142.215 291.502 147.466C288.619 153.162 276.723 151.956 273.095 162.538C270.754 169.368 271.276 177.142 275.846 185.26C282.791 188.263 291.648 191.135 299.295 194.238Z" fill="#84D7CC"/>
<path d="M298.911 163.435C298.911 163.435 306.808 141.949 311.911 116.147" stroke="white" stroke-width="0.78057"/>
<path d="M244.748 111.639C244.748 126.741 256.915 138.983 271.925 138.983C286.935 138.983 299.103 126.741 299.103 111.639C299.103 96.5374 286.935 84.2949 271.925 84.2949C256.915 84.2949 244.748 96.5374 244.748 111.639Z" fill="#84D7CC"/>
<path d="M244.646 109.169C244.646 124.271 256.813 136.513 271.823 136.513C286.832 136.513 299 124.271 299 109.169C299 94.0674 286.832 81.825 271.823 81.825C256.813 81.825 244.646 94.0674 244.646 109.169Z" fill="white"/>
<path d="M72.605 77.4294C72.6378 77.187 73.6363 71.6459 73.6261 69.9168C73.6153 68.1871 77.2079 65.2246 77.5475 64.5309C77.8072 64.0009 82.0954 60.1394 84.1088 58.3429C84.7818 57.7422 85.828 57.8232 86.3774 58.5398C87.14 59.5347 87.6571 61.1634 85.8087 63.2878C82.6165 66.9566 78.4638 74.0385 78.4638 74.0385L75.4955 77.8271L72.605 77.4294Z" fill="#FFB38F"/>
<path fill-rule="evenodd" clip-rule="evenodd" d="M25.8873 146.534C19.1011 155.931 13.8589 163.191 12.9777 164.668C12.6506 165.215 56.0743 164.69 56.9735 164.351C58.7728 163.673 61.2212 155.95 63.8815 147.558C67.112 137.367 70.6551 126.191 73.7278 125.448C100.827 118.896 106.624 113.898 107.965 112.742C108.105 112.621 108.197 112.542 108.259 112.508C108.28 112.496 108.302 112.485 108.324 112.475C109.692 111.841 110.819 110.777 111.534 109.443L113.258 106.227C113.339 106.076 113.449 105.941 113.578 105.828C117.013 102.811 116.683 100.542 116.244 99.5264C116.109 99.215 115.853 98.9851 115.553 98.8282C115.168 98.6268 114.932 98.1978 114.994 97.7408C115.096 96.9924 113.796 89.3799 112.821 88.1368C112.7 87.9816 112.511 87.7437 112.276 87.4463C111.079 85.9337 108.666 82.8851 107.621 81.3852C106.719 80.0891 105.238 79.3281 103.665 79.3515C100.946 79.3925 96.5297 79.5289 92.8709 79.9704C89.106 80.4245 88.7975 79.5466 89.03 78.8894C89.1581 78.5283 89.453 78.2527 89.8057 78.1061C95.1825 75.8664 99.2264 71.8229 100.28 70.7047C100.457 70.5165 100.684 70.3858 100.932 70.3179C105.379 69.1061 118.34 61.5133 121.873 59.4435C122.111 59.3044 122.306 59.1902 122.452 59.1046C124.851 57.7064 125.444 53.3439 123.407 52.0763C121.371 50.8093 108.722 57.2163 108.722 57.2163C110.271 56.3669 111.106 55.3035 111.521 54.2367C112.513 51.6901 109.952 49.2239 107.43 50.2451C105.911 50.8603 104.394 51.7426 102.871 52.6284C101.76 53.2743 100.646 53.9221 99.5263 54.4695C97.4307 55.4941 94.4069 57.2272 92.0334 58.6266C88.9399 60.4504 86.1599 62.7637 83.8023 65.482C82.4715 67.0172 81.0013 68.8786 79.6144 70.9871C77.0459 74.8926 74.8669 75.9292 73.6286 76.1688C72.9096 76.3074 71.7161 76.7666 71.212 77.0872C69.905 77.9185 69.2435 79.5016 68.0472 82.3645C66.8751 85.1698 65.1894 89.204 61.8798 94.9638C57.024 103.414 38.7026 128.786 25.8873 146.534ZM96.1906 106.102C95.2931 105.485 89.0754 100.68 87.8937 98.5424C87.8937 98.5424 87.1504 94.9837 87.5229 94.0476C87.8954 93.1108 92.7376 86.3712 102.722 88.7318C102.722 88.7318 106.597 92.7212 107.768 93.1291C107.768 93.1291 107.591 98.0426 110.898 98.9913C110.898 98.9913 106.233 100.818 104.633 103.561C104.633 103.561 97.0882 106.72 96.1906 106.102Z" fill="#FFDAB8"/>
<path d="M88.4644 78.9938C88.4644 78.9938 78.6927 77.773 76.2614 79.4137C73.8301 81.0544 71.6171 84.6998 71.6171 84.6998" stroke="#FFB38F" stroke-width="0.5" stroke-linecap="round" stroke-linejoin="round"/>
<path d="M108.723 57.2161C108.723 57.2161 96.3377 61.6846 94.7603 62.4548C93.1835 63.2255 84.0162 71.0987 84.0162 71.0987C84.0162 71.0987 89.0784 60.9327 108.723 57.2161Z" fill="#FFB38F"/>
<path d="M91.2153 102.085C91.2153 102.085 84.4782 96.591 83.3289 94.2109" stroke="#FFB38F" stroke-width="0.5" stroke-linecap="round" stroke-linejoin="round"/>
<path d="M102.722 88.7321C102.722 88.7321 104.705 86.7827 105.001 84.6018" stroke="#FFB38F" stroke-width="0.5" stroke-linecap="round" stroke-linejoin="round"/>
<path d="M105.427 104.04C105.427 104.04 107.359 105.17 107.128 106.866" stroke="#FFB38F" stroke-width="0.5" stroke-linecap="round" stroke-linejoin="round"/>
<path d="M65.7806 130.178C67.8184 125.282 72.4973 122.083 77.767 121.822C88.4702 121.292 102.763 116.016 102.763 116.016C98.1115 118.327 89.5527 121.622 73.7277 125.448C68.1246 126.803 60.9577 162.85 56.9734 164.351C56.7421 164.438 54.6685 163.242 51.7269 161.411C52.5049 161.735 60.7439 142.28 65.7806 130.178Z" fill="#FFB38F"/>
<mask id="mask1_5567_155469" style="mask-type:alpha" maskUnits="userSpaceOnUse" x="138" y="46" width="58" height="93">
<path fill-rule="evenodd" clip-rule="evenodd" d="M155.671 46.2881L189.19 50.5872C189.206 50.5895 189.223 50.5918 189.24 50.5946C193.03 51.1138 195.621 55.1476 195.032 59.6316L185.789 131.287C185.274 135.276 181.979 138.23 178.101 138.456L178.031 138.46C177.548 138.484 177.056 138.466 176.56 138.403L145.577 134.427C141.589 133.915 138.633 130.638 138.394 126.773L138.387 126.633C138.366 126.163 138.385 125.685 138.447 125.203L147.69 53.5594C148.242 49.3555 151.389 46.239 154.909 46.239C155.161 46.239 155.416 46.255 155.671 46.2881Z" fill="white"/>
</mask>
<g mask="url(#mask1_5567_155469)">
<path d="M197.921 40.1379L130.231 43.7742L135.576 144.523L203.267 140.887L197.921 40.1379Z" fill="#1868A7"/>
</g>
<mask id="mask2_5567_155469" style="mask-type:alpha" maskUnits="userSpaceOnUse" x="136" y="46" width="57" height="93">
<path fill-rule="evenodd" clip-rule="evenodd" d="M153.578 46.1992L186.957 50.5115C186.974 50.5137 186.991 50.5172 187.006 50.5189C190.781 51.0403 193.36 55.0878 192.774 59.5883L183.566 131.502C182.985 136.028 178.872 139.227 174.375 138.644L143.522 134.656C139.021 134.075 135.841 129.929 136.422 125.4L145.63 53.4962C146.179 49.2781 149.315 46.1501 152.82 46.1501C153.071 46.1501 153.324 46.1661 153.578 46.1992Z" fill="white"/>
</mask>
<g mask="url(#mask2_5567_155469)">
<path d="M195.661 40.0583L128.19 43.6826L133.553 144.756L201.024 141.132L195.661 40.0583Z" fill="#3392E2"/>
</g>
<mask id="mask3_5567_155469" style="mask-type:alpha" maskUnits="userSpaceOnUse" x="139" y="50" width="51" height="86">
<path fill-rule="evenodd" clip-rule="evenodd" d="M153.331 50.7133L158.68 51.4139C159.365 51.5035 159.98 51.4818 160.037 52.3518L160.1 53.3199C160.154 54.191 160.676 54.8647 161.363 54.9548L176.572 56.9452C177.258 57.0342 177.932 56.5168 178.206 55.6896L178.511 54.7694C178.759 54.021 179.257 54.094 179.857 54.1819C179.921 54.1915 179.986 54.2012 180.051 54.2092L185.401 54.9075C185.41 54.9092 185.422 54.9109 185.432 54.9121C187.889 55.2555 189.547 58.0657 189.145 61.2067L180.389 130.191C179.944 133.688 176.797 136.156 173.355 135.704L144.808 131.971C141.359 131.518 138.922 128.31 139.366 124.809L148.12 55.8391C148.499 52.8834 150.571 50.6831 152.866 50.6831C153.02 50.6831 153.175 50.6928 153.331 50.7133Z" fill="white"/>
</mask>
<g mask="url(#mask3_5567_155469)">
<path d="M192.153 44.7854L131.429 48.0474L136.392 141.578L197.116 138.316L192.153 44.7854Z" fill="white"/>
</g>
<mask id="mask4_5567_155469" style="mask-type:alpha" maskUnits="userSpaceOnUse" x="142" y="62" width="3" height="9">
<path fill-rule="evenodd" clip-rule="evenodd" d="M143.965 62.5119L144.984 62.642L143.901 70.826L142.884 70.6977C142.564 70.6555 142.338 70.3645 142.38 70.0496L143.31 63.0122C143.349 62.7201 143.6 62.5073 143.891 62.5073C143.916 62.5073 143.941 62.5085 143.965 62.5119Z" fill="white"/>
</mask>
<g mask="url(#mask4_5567_155469)">
<path d="M148.522 58.4753L138.027 59.039L138.868 74.8789L149.363 74.3152L148.522 58.4753Z" fill="#3392E2"/>
</g>
<mask id="mask5_5567_155469" style="mask-type:alpha" maskUnits="userSpaceOnUse" x="141" y="72" width="3" height="8">
<path fill-rule="evenodd" clip-rule="evenodd" d="M142.608 72.1395C142.61 72.1395 142.611 72.1395 142.614 72.1401L143.528 72.2536L142.676 79.6082L141.762 79.4952C141.474 79.4599 141.269 79.2003 141.303 78.9151L142.033 72.5919C142.063 72.3295 142.287 72.1355 142.547 72.1355C142.567 72.1355 142.588 72.1366 142.608 72.1395Z" fill="white"/>
</mask>
<g mask="url(#mask5_5567_155469)">
<path d="M140.036 67.6152L149.037 70.43L144.84 84.0136L135.84 81.1989L140.036 67.6152Z" fill="#3392E2"/>
</g>
<mask id="mask6_5567_155469" style="mask-type:alpha" maskUnits="userSpaceOnUse" x="166" y="50" width="10" height="4">
<path fill-rule="evenodd" clip-rule="evenodd" d="M167.821 50.6444L174.603 51.5748C174.604 51.5748 174.607 51.5754 174.608 51.576C175.018 51.6347 175.307 52.0284 175.256 52.4596L175.237 52.6131C175.184 53.0432 174.805 53.3473 174.392 53.2908L167.61 52.3587C167.198 52.3016 166.906 51.9057 166.959 51.4744L166.978 51.3221C167.026 50.9262 167.348 50.637 167.719 50.637C167.753 50.637 167.787 50.6398 167.821 50.6444Z" fill="white"/>
</mask>
<g mask="url(#mask6_5567_155469)">
<path d="M178.699 46.2644L162.956 47.1099L163.516 57.67L179.259 56.8245L178.699 46.2644Z" fill="#1868A7"/>
</g>
<mask id="mask7_5567_155469" style="mask-type:alpha" maskUnits="userSpaceOnUse" x="163" y="50" width="3" height="3">
<path fill-rule="evenodd" clip-rule="evenodd" d="M164.446 50.0749C164.449 50.0737 164.451 50.0743 164.453 50.0749C165.066 50.161 165.496 50.7258 165.417 51.3436C165.336 51.9654 164.772 52.403 164.155 52.3209C163.537 52.241 163.103 51.6728 163.184 51.0521C163.257 50.4811 163.741 50.0652 164.299 50.0652C164.347 50.0652 164.397 50.068 164.446 50.0749Z" fill="white"/>
</mask>
<g mask="url(#mask7_5567_155469)">
<path d="M168.913 46.0334L159.167 46.5571L159.687 56.3625L169.434 55.8388L168.913 46.0334Z" fill="#1868A7"/>
</g>
<mask id="mask8_5567_155469" style="mask-type:alpha" maskUnits="userSpaceOnUse" x="144" y="59" width="46" height="77">
<path fill-rule="evenodd" clip-rule="evenodd" d="M189.228 61.424L180.304 130.27C179.852 133.76 176.661 136.226 173.175 135.777L144.983 132.167C178.442 132.18 188.221 66.5931 189.196 59.3794C189.301 60.0286 189.32 60.7172 189.228 61.424Z" fill="white"/>
</mask>
<g mask="url(#mask8_5567_155469)">
<path d="M192.785 55.4043L137.309 58.3845L141.712 141.355L197.188 138.375L192.785 55.4043Z" fill="#C3DFF8"/>
</g>
<mask id="mask9_5567_155469" style="mask-type:alpha" maskUnits="userSpaceOnUse" x="155" y="115" width="26" height="17">
<path fill-rule="evenodd" clip-rule="evenodd" d="M160.002 115.761C162.645 117.133 170.737 122.839 170.737 122.839L176.931 126.304L180.4 127.603L180.81 131.579L171.973 126.743L155.044 116.2C155.044 116.2 156.262 115.248 157.939 115.248C158.574 115.248 159.276 115.385 160.002 115.761Z" fill="white"/>
</mask>
<g mask="url(#mask9_5567_155469)">
<path d="M182.236 109.526L150.944 112.29L153.544 137.547L184.835 134.782L182.236 109.526Z" fill="#C3E0FF"/>
</g>
<path d="M196.758 114.17C198.452 115.447 199.508 117.407 199.648 119.532L201.217 143.316C201.423 146.443 202.255 149.492 203.663 152.285L219.765 173.029L183.501 168.122L179.03 159.952C176.536 157.563 174.436 154.788 172.809 151.733L166.566 140.008C165.832 138.629 164.925 137.35 163.868 136.204L152.935 124.346C151.944 123.27 151.458 121.819 151.598 120.36C151.841 117.879 153.818 115.931 156.29 115.742L156.679 115.714C157.901 115.621 159.115 115.975 160.097 116.708L172.778 126.163C173.64 126.806 174.582 127.332 175.579 127.725L183.78 131.117C185.667 131.897 186.48 125.305 186.48 125.305L188.748 107.62L196.758 114.17Z" fill="#FFDAB8"/>
<path d="M181.289 156.247C183.179 159.138 185.51 162.644 186.213 163.443C187.456 164.858 203.267 165.543 194.486 165.543C185.027 165.543 181.31 165.506 181.31 165.506L176.4 156.438C176.4 156.438 171.975 153.587 163.685 135.627C163.685 135.627 171.278 147.65 176.295 151.202C178.245 152.581 179.979 154.243 181.289 156.247Z" fill="#FFB08C"/>
<path d="M61.7979 45.1789C61.7979 57.0922 52.1985 66.7504 40.3579 66.7504C28.5172 66.7504 18.9185 57.0922 18.9185 45.1789C18.9185 33.2668 28.5172 23.6074 40.3579 23.6074C52.1985 23.6074 61.7979 33.2668 61.7979 45.1789Z" fill="#28D677"/>
</g>
<path d="M157.333 21.5267L155.586 24.7387L152.395 26.4946C151.868 26.7852 151.868 27.5463 152.395 27.8369L155.586 29.5927L157.333 32.8047C157.62 33.3351 158.378 33.3351 158.666 32.8047L160.412 29.5927L163.605 27.8369C164.132 27.5463 164.132 26.7852 163.605 26.4946L160.412 24.7387L158.666 21.5267C158.378 20.9963 157.62 20.9963 157.333 21.5267Z" fill="#FFE7B8"/>
<path d="M214.5 95.8811L213.19 98.2901L210.797 99.607C210.401 99.825 210.401 100.396 210.797 100.614L213.19 101.931L214.5 104.34C214.715 104.737 215.284 104.737 215.499 104.34L216.809 101.931L219.203 100.614C219.599 100.396 219.599 99.825 219.203 99.607L216.809 98.2901L215.499 95.8811C215.284 95.4833 214.715 95.4833 214.5 95.8811Z" fill="#FFD37B"/>
<path d="M109.166 129.282L106.983 133.297L102.994 135.492C102.335 135.855 102.335 136.807 102.994 137.17L106.983 139.365L109.166 143.38C109.525 144.043 110.473 144.043 110.832 143.38L113.015 139.365L117.006 137.17C117.665 136.807 117.665 135.855 117.006 135.492L113.015 133.297L110.832 129.282C110.473 128.619 109.525 128.619 109.166 129.282Z" fill="#FFD37B"/>
<path d="M46.9254 39.2027L38.1051 48.3977L34.2977 45.0975C33.115 44.0729 31.3408 44.2144 30.3338 45.4215C29.3246 46.6224 29.4646 48.4302 30.6513 49.4537L36.4563 54.4904C36.9847 54.9479 37.6334 55.1756 38.2809 55.1756C39.014 55.1756 39.7466 54.8846 40.2949 54.3096L50.9505 43.2001C52.0346 42.07 52.0136 40.2547 50.9029 39.152C50.3552 38.6094 49.6458 38.3396 48.9371 38.3396C48.2057 38.3396 47.4754 38.6277 46.9254 39.2027Z" fill="white"/>
<path d="M133.228 103.124L194.806 110.731L193.197 123.913L131.619 116.306L133.228 103.124Z" fill="#00AB4E"/>
<g clip-path="url(#clip0_5567_155469)">
<path d="M146.984 114.575L146.581 113.196L143.857 112.862L143.132 114.103L142.1 113.976L145.321 108.689L146.154 108.791L148 114.7L146.984 114.575ZM144.288 112.108L146.337 112.36L145.605 109.852L144.288 112.108ZM152.552 111.318L152.075 115.2L151.106 115.082L151.179 114.486C151.031 114.683 150.847 114.827 150.626 114.918C150.406 115.004 150.167 115.031 149.907 114.999C148.954 114.882 148.544 114.289 148.675 113.219L148.963 110.877L149.955 110.999L149.666 113.349C149.633 113.624 149.663 113.835 149.758 113.981C149.853 114.127 150.02 114.215 150.258 114.244C150.533 114.278 150.764 114.215 150.95 114.055C151.142 113.89 151.257 113.657 151.294 113.356L151.559 111.196L152.552 111.318ZM155.177 114.888C155.293 114.903 155.416 114.91 155.545 114.909L155.407 115.642C155.246 115.638 155.099 115.628 154.967 115.612C154.422 115.545 154.035 115.371 153.806 115.091C153.578 114.805 153.494 114.413 153.555 113.915L153.763 112.224L153.017 112.132L153.108 111.386L153.855 111.478L153.997 110.318L154.99 110.44L154.847 111.6L155.871 111.725L155.78 112.472L154.756 112.346L154.55 114.021C154.486 114.54 154.695 114.829 155.177 114.888ZM157.802 115.968C157.405 115.919 157.066 115.794 156.784 115.593C156.508 115.393 156.306 115.129 156.18 114.802C156.054 114.475 156.015 114.107 156.065 113.7C156.115 113.292 156.241 112.947 156.442 112.666C156.644 112.379 156.903 112.172 157.22 112.044C157.542 111.917 157.901 111.878 158.298 111.927C158.695 111.975 159.032 112.1 159.308 112.3C159.59 112.502 159.791 112.765 159.912 113.092C160.039 113.414 160.078 113.779 160.028 114.186C159.978 114.594 159.852 114.941 159.65 115.228C159.453 115.515 159.194 115.723 158.872 115.85C158.556 115.977 158.199 116.017 157.802 115.968ZM157.889 115.197C158.211 115.237 158.471 115.161 158.666 114.97C158.861 114.779 158.984 114.477 159.035 114.064C159.085 113.657 159.038 113.337 158.895 113.104C158.752 112.866 158.522 112.728 158.205 112.689C157.887 112.65 157.627 112.728 157.426 112.924C157.231 113.115 157.108 113.414 157.058 113.822C157.007 114.234 157.054 114.557 157.197 114.79C157.34 115.022 157.571 115.158 157.889 115.197ZM163.537 110.925L165.601 111.179C166.517 111.291 167.196 111.625 167.638 112.179C168.087 112.728 168.257 113.445 168.148 114.329C168.04 115.213 167.701 115.87 167.132 116.3C166.569 116.73 165.83 116.889 164.914 116.777L162.849 116.523L163.537 110.925ZM164.953 115.935C166.239 116.093 166.963 115.516 167.124 114.203C167.284 112.896 166.722 112.163 165.435 112.005L164.459 111.885L163.976 115.815L164.953 115.935ZM172.371 115.903L169.727 115.579C169.715 115.942 169.79 116.223 169.954 116.421C170.118 116.618 170.372 116.738 170.716 116.78C171.145 116.833 171.553 116.743 171.942 116.511L172.144 117.229C171.946 117.356 171.703 117.447 171.417 117.503C171.136 117.56 170.858 117.571 170.583 117.537C169.947 117.459 169.467 117.218 169.14 116.812C168.819 116.407 168.697 115.893 168.774 115.268C168.822 114.871 168.945 114.529 169.142 114.241C169.338 113.954 169.59 113.743 169.896 113.609C170.208 113.475 170.547 113.43 170.912 113.475C171.447 113.541 171.846 113.765 172.111 114.146C172.381 114.529 172.479 115.022 172.405 115.625L172.371 115.903ZM170.85 114.177C170.585 114.145 170.361 114.203 170.176 114.352C169.996 114.502 169.868 114.733 169.792 115.047L171.587 115.267C171.616 114.943 171.566 114.689 171.438 114.507C171.311 114.32 171.115 114.209 170.85 114.177ZM175.686 114.062C176.025 114.103 176.314 114.222 176.553 114.418C176.793 114.614 176.965 114.871 177.071 115.191C177.182 115.511 177.213 115.872 177.164 116.274C177.114 116.676 176.996 117.025 176.81 117.319C176.629 117.608 176.396 117.821 176.111 117.958C175.83 118.096 175.524 118.144 175.19 118.103C174.909 118.069 174.665 117.977 174.458 117.828C174.256 117.68 174.11 117.49 174.02 117.258L173.943 117.886L172.967 117.766L173.654 112.168L174.646 112.29L174.367 114.568C174.509 114.371 174.696 114.23 174.926 114.146C175.158 114.056 175.411 114.028 175.686 114.062ZM175.023 117.301C175.335 117.339 175.592 117.258 175.794 117.057C175.996 116.856 176.122 116.554 176.171 116.152C176.22 115.755 176.17 115.44 176.021 115.207C175.878 114.974 175.647 114.839 175.33 114.8C175.012 114.761 174.753 114.839 174.551 115.034C174.356 115.225 174.233 115.522 174.184 115.924C174.135 116.327 174.181 116.647 174.324 116.885C174.472 117.123 174.705 117.262 175.023 117.301ZM177.735 118.351L178.212 114.468L179.205 114.59L178.728 118.473L177.735 118.351ZM178.378 112.659L179.474 112.794L179.354 113.77L178.258 113.636L178.378 112.659ZM181.82 118.16C181.937 118.174 182.06 118.181 182.189 118.181L182.05 118.913C181.89 118.91 181.743 118.9 181.611 118.883C181.065 118.817 180.678 118.643 180.45 118.362C180.221 118.076 180.138 117.684 180.199 117.187L180.407 115.495L179.66 115.404L179.752 114.657L180.498 114.749L180.641 113.59L181.633 113.712L181.491 114.871L182.515 114.997L182.423 115.743L181.399 115.617L181.193 117.293C181.13 117.812 181.339 118.1 181.82 118.16Z" fill="white"/>
</g>
<path d="M152.674 123.751C151.702 122.658 151.241 121.198 151.407 119.742C151.692 117.266 153.703 115.353 156.178 115.208L156.567 115.186C157.791 115.115 158.998 115.49 159.967 116.24L172.482 125.916C173.05 126.355 166.447 125.633 152.674 123.751Z" fill="#FFDAB8"/>
<path d="M174.885 90.7944C174.28 90.7308 173.844 90.1862 173.908 89.5798C173.918 89.4853 174.798 80.0724 165.469 78.4392C160.525 77.5816 156.827 80.7383 156.789 80.7738C156.332 81.1711 155.638 81.1237 155.241 80.6648C154.843 80.2033 154.89 79.5044 155.35 79.1028C155.533 78.945 159.89 75.2026 165.846 76.2622C174.912 77.8467 176.514 85.8166 176.094 89.8096C176.03 90.4159 175.49 90.858 174.885 90.7944Z" fill="#B3EC91"/>
<path d="M174.935 93.4124L177.208 90.608C177.456 90.2998 177.268 89.8385 176.877 89.7974L172.963 89.386C172.572 89.3449 172.291 89.7569 172.471 90.1101L174.11 93.3257C174.272 93.6462 174.709 93.6921 174.935 93.4124Z" fill="#B3EC91"/>
<path d="M162.599 101.717C162.324 101.688 162.046 101.649 161.764 101.598C152.701 100.014 151.101 92.0468 151.521 88.0538C151.584 87.4475 152.124 87.0054 152.727 87.0687C153.332 87.1323 153.768 87.677 153.704 88.2833C153.694 88.3778 152.816 97.791 162.141 99.4214C167.107 100.293 170.785 97.1203 170.821 97.0891C171.28 96.6898 171.973 96.7346 172.371 97.1984C172.768 97.6573 172.72 98.3562 172.261 98.7555C172.087 98.9097 168.133 102.298 162.599 101.717Z" fill="#B3EC91"/>
<path d="M152.678 84.4478L150.403 87.2545C150.156 87.5614 150.343 88.0226 150.734 88.0637L154.649 88.4752C155.04 88.5163 155.322 88.1044 155.141 87.7525L153.501 84.5344C153.34 84.2154 152.902 84.1694 152.678 84.4478Z" fill="#B3EC91"/>
<path d="M156.844 92.0262C156.826 92.1908 156.981 92.3206 157.138 92.2706C157.621 92.116 158.618 91.8912 160.031 92.0398C162.084 92.2555 163.69 93.1196 163.69 93.1196C163.69 93.1196 165.171 93.9706 167.036 94.1665C168.566 94.3274 169.97 94.0061 170.423 93.8859C170.516 93.8616 170.582 93.7828 170.592 93.6874L171.471 85.3225C171.488 85.1645 171.346 85.0372 171.192 85.0741C170.621 85.2123 169.345 85.4587 167.966 85.3138C166.102 85.1178 164.621 84.2669 164.621 84.2669C164.621 84.2669 163.015 83.4027 160.962 83.187C159.307 83.013 158.223 83.3509 157.865 83.4885C157.785 83.5194 157.73 83.5931 157.721 83.6793L156.844 92.0262Z" fill="#28D677"/>
<path d="M166.659 88.9564C166.513 90.3474 165.274 91.3572 163.891 91.2119C162.508 91.0666 161.506 89.821 161.652 88.4302C161.798 87.0392 163.038 86.0292 164.42 86.1745C165.803 86.3198 166.805 87.5654 166.659 88.9564Z" fill="#BBF0D3"/>
<rect x="262.443" y="95.0811" width="26.6667" height="25" rx="3.33333" transform="rotate(11.5627 262.443 95.0811)" fill="#1868AB"/>
<mask id="mask10_5567_155469" style="mask-type:alpha" maskUnits="userSpaceOnUse" x="258" y="95" width="30" height="30">
<rect x="262.443" y="95.0811" width="26.6667" height="25" rx="3.33333" transform="rotate(11.5627 262.443 95.0811)" fill="white"/>
</mask>
<g mask="url(#mask10_5567_155469)">
<rect x="259.994" y="94.5798" width="26.6667" height="25" rx="3.33333" transform="rotate(11.5627 259.994 94.5798)" fill="#5297D1"/>
</g>
<path fill-rule="evenodd" clip-rule="evenodd" d="M261.775 98.3467C262.144 96.5432 263.905 95.3802 265.709 95.7492L285.303 99.758C287.107 100.127 288.27 101.888 287.901 103.692L286.731 109.407L260.606 104.062L261.775 98.3467Z" fill="#0F5895"/>
<mask id="mask11_5567_155469" style="mask-type:alpha" maskUnits="userSpaceOnUse" x="260" y="95" width="28" height="15">
<path fill-rule="evenodd" clip-rule="evenodd" d="M261.775 98.3467C262.144 96.5432 263.905 95.3802 265.709 95.7492L285.303 99.758C287.107 100.127 288.27 101.888 287.901 103.692L286.731 109.407L260.606 104.062L261.775 98.3467Z" fill="white"/>
</mask>
<g mask="url(#mask11_5567_155469)">
<path fill-rule="evenodd" clip-rule="evenodd" d="M259.326 97.8455C259.695 96.0419 261.456 94.879 263.26 95.248L282.854 99.2568C284.658 99.6258 285.82 101.387 285.451 103.191L284.282 108.906L258.157 103.56L259.326 97.8455Z" fill="#1868AB"/>
</g>
<rect x="267.026" y="93.467" width="5" height="7.5" rx="1.66667" transform="rotate(11.5627 267.026 93.467)" fill="#CC9D3F"/>
<mask id="mask12_5567_155469" style="mask-type:alpha" maskUnits="userSpaceOnUse" x="265" y="93" width="7" height="9">
<rect x="267.026" y="93.467" width="5" height="7.5" rx="1.66667" transform="rotate(11.5627 267.026 93.467)" fill="white"/>
</mask>
<g mask="url(#mask12_5567_155469)">
<rect x="266.21" y="93.3" width="5" height="7.5" rx="1.66667" transform="rotate(11.5627 266.21 93.3)" fill="#FFC54F"/>
</g>
<rect x="278.457" y="95.8054" width="5" height="7.5" rx="1.66667" transform="rotate(11.5627 278.457 95.8054)" fill="#CC9D3F"/>
<mask id="mask13_5567_155469" style="mask-type:alpha" maskUnits="userSpaceOnUse" x="277" y="96" width="7" height="8">
<rect x="278.457" y="95.8054" width="5" height="7.5" rx="1.66667" transform="rotate(11.5627 278.457 95.8054)" fill="white"/>
</mask>
<g mask="url(#mask13_5567_155469)">
<rect x="277.64" y="95.6384" width="5" height="7.5" rx="1.66667" transform="rotate(11.5627 277.64 95.6384)" fill="#FFC54F"/>
</g>
<circle cx="265.476" cy="111.438" r="2.91667" transform="rotate(11.5627 265.476 111.438)" fill="white"/>
<circle cx="273.641" cy="113.108" r="2.91667" transform="rotate(11.5627 273.641 113.108)" fill="white"/>
<path d="M286.267 122.071C285.575 125.453 282.273 127.633 278.891 126.941C275.509 126.249 273.329 122.947 274.021 119.565C274.713 116.183 278.015 114.003 281.397 114.695C284.779 115.387 286.959 118.689 286.267 122.071Z" fill="#E07E26" stroke="white" stroke-width="0.833333"/>
<path fill-rule="evenodd" clip-rule="evenodd" d="M277.584 120.217L277.222 121.986L276.286 121.795L277.218 117.242L279.185 117.645C279.687 117.747 280.043 117.942 280.252 118.23C280.461 118.517 280.52 118.882 280.429 119.326C280.359 119.67 280.21 119.94 279.982 120.136C279.754 120.331 279.469 120.432 279.126 120.438C279.337 120.544 279.49 120.753 279.587 121.064L280.003 122.555L278.97 122.344L278.527 120.739C278.489 120.615 278.433 120.519 278.358 120.453C278.283 120.386 278.181 120.339 278.051 120.312L277.584 120.217ZM277.727 119.452L278.632 119.637C278.903 119.693 279.11 119.682 279.252 119.606C279.394 119.53 279.487 119.384 279.531 119.169C279.576 118.949 279.548 118.778 279.447 118.654C279.346 118.53 279.16 118.44 278.888 118.385L277.984 118.199L277.727 119.452ZM281.149 124.001L281.48 122.386C281.536 122.564 281.637 122.714 281.783 122.835C281.929 122.957 282.103 123.039 282.306 123.08C282.565 123.133 282.807 123.113 283.033 123.02C283.259 122.927 283.452 122.769 283.614 122.544C283.776 122.319 283.891 122.043 283.958 121.716C284.025 121.389 284.028 121.088 283.969 120.813C283.909 120.539 283.793 120.311 283.621 120.13C283.449 119.949 283.236 119.833 282.981 119.78C282.774 119.738 282.579 119.746 282.394 119.805C282.209 119.863 282.055 119.965 281.933 120.111L282.024 119.665L281.119 119.48L280.233 123.813L281.149 124.001ZM281.741 121.945C281.826 122.126 281.976 122.239 282.191 122.283C282.405 122.327 282.587 122.284 282.735 122.155C282.884 122.027 282.988 121.818 283.047 121.53C283.107 121.237 283.095 120.998 283.01 120.812C282.926 120.627 282.776 120.512 282.562 120.468C282.347 120.424 282.165 120.469 282.016 120.602C281.866 120.735 281.761 120.948 281.701 121.241C281.642 121.529 281.656 121.764 281.741 121.945Z" fill="white"/>
<defs>
<clipPath id="clip0_5567_155469">
<rect width="42" height="12.0736" fill="white" transform="translate(142.927 105.175) rotate(7)"/>
</clipPath>
</defs>
</svg>
