<svg width="333" height="190" viewBox="0 0 333 190" fill="none" xmlns="http://www.w3.org/2000/svg">
<path fill-rule="evenodd" clip-rule="evenodd" d="M28.2189 161.519C38.6809 163.669 270.053 165.815 306.876 161.519C317.777 160.247 326.503 148.372 327.776 146.312C335.736 133.425 332.751 53.9545 330.761 27.1058C329.69 12.6562 314.838 6.16403 307.871 4.01632C294.548 -0.0910997 58.2799 -0.255952 27.2229 5.09063C13.3279 7.48192 8.29087 18.7623 7.29087 25.0322C4.95787 39.6476 3.57887 129.542 7.31887 141.651C10.3049 151.316 17.7689 159.371 28.2189 161.519Z" fill="#EDFFF5"/>
<mask id="mask0_5567_154216" style="mask-type:alpha" maskUnits="userSpaceOnUse" x="5" y="1" width="328" height="163">
<path fill-rule="evenodd" clip-rule="evenodd" d="M28.2189 161.519C38.6809 163.669 270.053 165.815 306.876 161.519C317.777 160.247 326.503 148.372 327.776 146.312C335.736 133.425 332.751 53.9545 330.761 27.1058C329.69 12.6562 314.838 6.16403 307.871 4.01632C294.548 -0.0910997 58.2799 -0.255952 27.2229 5.09063C13.3279 7.48192 8.29087 18.7623 7.29087 25.0322C4.95787 39.6476 3.57887 129.542 7.31887 141.651C10.3049 151.316 17.7689 159.371 28.2189 161.519Z" fill="white"/>
</mask>
<g mask="url(#mask0_5567_154216)">
<path fill-rule="evenodd" clip-rule="evenodd" d="M417 227C417 336.353 309.325 425 176.5 425C43.6753 425 -64 336.353 -64 227C-64 117.647 43.6753 29 176.5 29C309.325 29 417 117.647 417 227Z" fill="#BBF0D3"/>
</g>
<path fill-rule="evenodd" clip-rule="evenodd" d="M48.57 111.715H46.709H44.304H42.443H40.0293H38.1683H35.7539H33.8929H31.4886H29.6276H27.2138H25.3522H22.9379H21.0774H18.6725H16.8115H14.3972H12.5367H10.1224H8.2614H4.80866V112.724V120.37H3.45274H0V121.38V129.257H3.45274H5.31376H6.25162V130.036V137.682H4.80866V138.693V146.338H3.45274H0V147.348V155.225H3.45274H5.31376H6.25162V156.004V163.65H3.8467V164.66V172.537H7.30002H9.16104H11.5748H13.4358H15.8501H17.7106H20.1155H21.9765H24.3908H26.2518H28.6656H30.5266H32.9309H34.792H37.2063H39.0673H41.4816H43.3427H45.747H47.608H51.0654V164.66V163.881H53.4698V156.004V154.995H50.0123H48.1513H47.2182V147.348V146.569H48.57H52.0274V138.693V137.913H53.4698V130.036V129.026H50.0123H48.1513H47.2182V121.38V120.602H48.57H52.0274V112.724V111.715H48.57Z" fill="#84D7CC"/>
<path fill-rule="evenodd" clip-rule="evenodd" d="M90.7639 146.662H89.4868H88.847V141.415V140.881H89.7737H92.1463V135.476V134.783H89.7737H88.4972H86.8473H85.5701H83.9137H82.6372H80.9808H79.7036H78.0537H76.7766H75.1208H73.8436H72.1872H70.9101H69.2602H67.9836H66.3272H65.0501H63.3937H62.1166H59.7475V135.476V140.722H58.8173H56.4482V141.415V146.82H58.8173H60.0938H60.7377V147.355V152.601H59.7475V153.294V158.54H58.8173H56.4482V159.233V164.638H58.8173H60.0938H60.7377V165.172V170.419H59.0878V171.112V176.516H61.4568H62.734H64.3898H65.6669H67.3233H68.6004H70.2504H71.5275H73.1839H74.4604H76.1168H77.394H79.0439H80.3205H81.9769H83.254H84.9104H86.1875H87.8369H89.114H91.4866V171.112V170.577H93.1365V165.172V164.48H90.7639H89.4868H88.847V159.233V158.699H89.7737H92.1463V153.294V152.759H93.1365V147.355V146.662H90.7639Z" fill="#84D7CC"/>
<path fill-rule="evenodd" clip-rule="evenodd" d="M151.328 108.441H150.051H149.411V103.195V102.661H150.338H152.71V97.2559V96.5632H150.338H149.061H147.411H146.134H144.478H143.201H141.545H140.268H138.618H137.341H135.685H134.408H132.751H131.474H129.824H128.548H126.891H125.614H123.958H122.681H120.311V97.2559V102.502H119.381H117.012V103.195V108.6H119.381H120.658H121.302V109.135V114.381H120.311V115.073V120.32H119.381H117.012V121.013V126.418H119.381H120.658H121.302V126.952V132.198H119.652V132.892V138.296H122.021H123.298H124.954H126.231H127.887H129.164H130.814H132.091H133.748H135.024H136.681H137.958H139.608H140.884H142.541H143.818H145.474H146.751H148.401H149.678H152.051V132.892V132.357H153.7V126.952V126.26H151.328H150.051H149.411V121.013V120.478H150.338H152.71V115.073V114.539H153.7V109.135V108.441H151.328Z" fill="#84D7CC"/>
<path fill-rule="evenodd" clip-rule="evenodd" d="M150.051 150.189H149.411V144.943V144.409H150.338H152.71V139.004V138.311H150.338H149.061H147.411H146.134H144.478H143.201H141.545H140.268H138.618H137.341H135.684H134.408H132.751H131.474H129.824H128.548H126.891H125.614H123.958H122.681H120.311V139.004V144.25H119.381H117.012V144.943V150.348H119.381H120.658H121.301V150.883V156.129H120.311V156.822V162.068H119.381H117.012V162.761V168.166H119.381H120.658H121.301V168.7V173.946H119.652V174.64V180.044H122.021H123.297H124.954H126.231H127.887H129.164H130.814H132.091H133.747H135.024H136.681H137.958H139.608H140.884H142.541H143.818H145.474H146.751H148.401H149.678H152.051V174.64V174.105H153.7V168.7V168.008H151.328H150.051H149.411V162.761V162.226H150.338H152.71V156.822V156.287H153.7V150.883V150.189H151.328H150.051Z" fill="#84D7CC"/>
<path fill-rule="evenodd" clip-rule="evenodd" d="M327.14 96.0935H325.863H325.223V90.8474V90.3129H326.15H328.522V84.908V84.2153H326.15H324.873H323.223H321.946H320.29H319.013H317.357H316.08H314.43H313.153H311.497H310.22H308.563H307.286H305.636H304.36H302.703H301.426H299.77H298.493H296.123V84.908V90.1541H295.193H292.824V90.8474V96.2523H295.193H296.47H297.114V96.7868V102.033H296.123V102.726V107.972H295.193H292.824V108.665V114.07H295.193H296.47H297.114V114.604V119.85H295.464V120.544V125.948H297.833H299.11H300.766H302.043H303.699H304.976H306.626H307.903H309.56H310.836H312.493H313.77H315.42H316.696H318.353H319.63H321.286H322.563H324.213H325.49H327.863V120.544V120.009H329.512V114.604V113.912H327.14H325.863H325.223V108.665V108.13H326.15H328.522V102.726V102.191H329.512V96.7868V96.0935H327.14Z" fill="#84D7CC"/>
<path fill-rule="evenodd" clip-rule="evenodd" d="M325.863 137.842H325.223V132.595V132.061H326.15H328.522V126.656V125.963H326.15H324.873H323.223H321.946H320.29H319.013H317.357H316.08H314.43H313.153H311.496H310.22H308.563H307.286H305.636H304.36H302.703H301.426H299.77H298.493H296.123V126.656V131.902H295.193H292.824V132.595V138H295.193H296.47H297.113V138.535V143.781H296.123V144.474V149.72H295.193H292.824V150.413V155.818H295.193H296.47H297.113V156.352V161.599H295.464V162.292V167.696H297.833H299.109H300.766H302.043H303.699H304.976H306.626H307.903H309.559H310.836H312.493H313.77H315.42H316.696H318.353H319.63H321.286H322.563H324.213H325.49H327.863V162.292V161.757H329.512V156.352V155.66H327.14H325.863H325.223V150.413V149.879H326.15H328.522V144.474V143.939H329.512V138.535V137.842H327.14H325.863Z" fill="#84D7CC"/>
<path fill-rule="evenodd" clip-rule="evenodd" d="M279.863 146.842H279.223V141.595V141.061H280.15H282.522V135.656V134.963H280.15H278.873H277.223H275.946H274.29H273.013H271.357H270.08H268.43H267.153H265.496H264.22H262.563H261.286H259.636H258.36H256.703H255.426H253.77H252.493H250.123V135.656V140.902H249.193H246.824V141.595V147H249.193H250.47H251.113V147.535V152.781H250.123V153.474V158.72H249.193H246.824V159.413V164.818H249.193H250.47H251.113V165.352V170.599H249.464V171.292V176.696H251.833H253.109H254.766H256.043H257.699H258.976H260.626H261.903H263.559H264.836H266.493H267.77H269.42H270.696H272.353H273.63H275.286H276.563H278.213H279.49H281.863V171.292V170.757H283.512V165.352V164.66H281.14H279.863H279.223V159.413V158.879H280.15H282.522V153.474V152.939H283.512V147.535V146.842H281.14H279.863Z" fill="#84D7CC"/>
<path fill-rule="evenodd" clip-rule="evenodd" d="M103.842 103.172C103.76 102.433 103.094 101.901 102.355 101.984L81.5749 104.253C81.3314 104.279 81.1003 104.371 80.9051 104.52C80.3118 104.971 80.1972 105.817 80.6482 106.411L83.4106 110.069C83.42 110.08 83.4288 110.093 83.4377 110.105C83.8687 110.711 83.727 111.551 83.1207 111.982L14.126 161.1L19.9713 167.289L88.2998 118.655C88.8937 118.235 89.7146 118.36 90.1561 118.938L92.9662 122.64C93.1008 122.819 93.2784 122.96 93.4813 123.053C94.1581 123.361 94.9566 123.063 95.2653 122.387L103.728 103.885C103.83 103.662 103.87 103.416 103.842 103.172Z" fill="#EDFFF5"/>
<path fill-rule="evenodd" clip-rule="evenodd" d="M282.267 57.0548L270.987 81.7143C270.576 82.6158 269.512 83.0132 268.61 82.6028C268.339 82.4788 268.103 82.29 267.923 82.0525L264.178 77.1185C263.589 76.3477 262.496 76.1801 261.704 76.741L222.15 104.879C221.42 105.398 220.419 105.3 219.803 104.65L199.393 83.105C198.783 82.4682 197.8 82.3676 197.074 82.8674L47.3164 188.043C47.3164 188.043 51.2495 171.602 51.6212 171.345L198.606 68.0922C199.334 67.5947 200.315 67.697 200.925 68.3332L221.247 89.8323C221.862 90.4832 222.863 90.5808 223.594 90.0616L254.801 67.847C255.608 67.2731 255.798 66.1529 255.223 65.345C255.211 65.328 255.2 65.3121 255.187 65.2962L251.506 60.4211C250.904 59.6302 251.058 58.5019 251.848 57.9003C252.107 57.7034 252.416 57.5799 252.741 57.544L280.437 54.5205C281.422 54.4106 282.309 55.1191 282.42 56.1046C282.456 56.4292 282.403 56.7579 282.267 57.0548Z" fill="white"/>
<path fill-rule="evenodd" clip-rule="evenodd" d="M125.929 166.208H164.068V159.031H125.929V166.208Z" fill="#ECCC8B"/>
<path fill-rule="evenodd" clip-rule="evenodd" d="M125.929 159.846H164.068V159.031H125.929V159.846Z" fill="#ECCC8B"/>
<path fill-rule="evenodd" clip-rule="evenodd" d="M159.771 166.208H161.275V159.031H159.771V166.208Z" fill="#D8B56D"/>
<path fill-rule="evenodd" clip-rule="evenodd" d="M156.326 166.208H157.829V159.031H156.326V166.208Z" fill="#D8B56D"/>
<path fill-rule="evenodd" clip-rule="evenodd" d="M152.874 166.208H154.376V159.031H152.874V166.208Z" fill="#D8B56D"/>
<path fill-rule="evenodd" clip-rule="evenodd" d="M149.42 166.208H150.923V159.031H149.42V166.208Z" fill="#D8B56D"/>
<path fill-rule="evenodd" clip-rule="evenodd" d="M145.975 166.208H147.478V159.031H145.975V166.208Z" fill="#D8B56D"/>
<path fill-rule="evenodd" clip-rule="evenodd" d="M142.522 166.208H144.025V159.031H142.522V166.208Z" fill="#D8B56D"/>
<path fill-rule="evenodd" clip-rule="evenodd" d="M139.069 166.208H140.572V159.031H139.069V166.208Z" fill="#D8B56D"/>
<path fill-rule="evenodd" clip-rule="evenodd" d="M135.624 166.208H137.126V159.031H135.624V166.208Z" fill="#D8B56D"/>
<path fill-rule="evenodd" clip-rule="evenodd" d="M132.171 166.208H133.674V159.031H132.171V166.208Z" fill="#D8B56D"/>
<path fill-rule="evenodd" clip-rule="evenodd" d="M128.717 166.208H130.221V159.031H128.717V166.208Z" fill="#D8B56D"/>
<path fill-rule="evenodd" clip-rule="evenodd" d="M215.914 168.539H263.132V159.653H215.914V168.539Z" fill="#ECCC8B"/>
<path fill-rule="evenodd" clip-rule="evenodd" d="M215.914 160.662H263.132V159.652H215.914V160.662Z" fill="#FFC54F"/>
<path fill-rule="evenodd" clip-rule="evenodd" d="M257.813 168.539H259.674V159.653H257.813V168.539Z" fill="#D8B56D"/>
<path fill-rule="evenodd" clip-rule="evenodd" d="M253.548 168.539H255.409V159.653H253.548V168.539Z" fill="#D8B56D"/>
<path fill-rule="evenodd" clip-rule="evenodd" d="M249.273 168.539H251.134V159.653H249.273V168.539Z" fill="#D8B56D"/>
<path fill-rule="evenodd" clip-rule="evenodd" d="M244.998 168.539H246.859V159.653H244.998V168.539Z" fill="#D8B56D"/>
<path fill-rule="evenodd" clip-rule="evenodd" d="M240.732 168.539H242.593V159.653H240.732V168.539Z" fill="#D8B56D"/>
<path fill-rule="evenodd" clip-rule="evenodd" d="M236.458 168.539H238.319V159.653H236.458V168.539Z" fill="#D8B56D"/>
<path fill-rule="evenodd" clip-rule="evenodd" d="M232.182 168.539H234.043V159.653H232.182V168.539Z" fill="#D8B56D"/>
<path fill-rule="evenodd" clip-rule="evenodd" d="M227.917 168.539H229.778V159.653H227.917V168.539Z" fill="#D8B56D"/>
<path fill-rule="evenodd" clip-rule="evenodd" d="M223.642 168.539H225.503V159.653H223.642V168.539Z" fill="#D8B56D"/>
<path fill-rule="evenodd" clip-rule="evenodd" d="M219.367 168.539H221.228V159.653H219.367V168.539Z" fill="#D8B56D"/>
<path fill-rule="evenodd" clip-rule="evenodd" d="M174.093 159.994H212.232V152.816H174.093V159.994Z" fill="#ECCC8B"/>
<path fill-rule="evenodd" clip-rule="evenodd" d="M174.093 153.632H212.232V152.815H174.093V153.632Z" fill="#C69C45"/>
<path fill-rule="evenodd" clip-rule="evenodd" d="M207.936 159.994H209.438V152.816H207.936V159.994Z" fill="#D8B56D"/>
<path fill-rule="evenodd" clip-rule="evenodd" d="M204.491 159.994H205.994V152.816H204.491V159.994Z" fill="#D8B56D"/>
<path fill-rule="evenodd" clip-rule="evenodd" d="M201.038 159.994H202.541V152.816H201.038V159.994Z" fill="#D8B56D"/>
<path fill-rule="evenodd" clip-rule="evenodd" d="M197.584 159.994H199.087V152.816H197.584V159.994Z" fill="#D8B56D"/>
<path fill-rule="evenodd" clip-rule="evenodd" d="M194.14 159.994H195.643V152.816H194.14V159.994Z" fill="#D8B56D"/>
<path fill-rule="evenodd" clip-rule="evenodd" d="M190.686 159.994H192.189V152.816H190.686V159.994Z" fill="#D8B56D"/>
<path fill-rule="evenodd" clip-rule="evenodd" d="M187.233 159.994H188.736V152.816H187.233V159.994Z" fill="#D8B56D"/>
<path fill-rule="evenodd" clip-rule="evenodd" d="M183.788 159.994H185.291V152.816H183.788V159.994Z" fill="#D8B56D"/>
<path fill-rule="evenodd" clip-rule="evenodd" d="M180.334 159.994H181.838V152.816H180.334V159.994Z" fill="#D8B56D"/>
<path fill-rule="evenodd" clip-rule="evenodd" d="M176.881 159.994H178.385V152.816H176.881V159.994Z" fill="#D8B56D"/>
<path fill-rule="evenodd" clip-rule="evenodd" d="M169.043 153.003H207.182V145.824H169.043V153.003Z" fill="#ECCC8B"/>
<path fill-rule="evenodd" clip-rule="evenodd" d="M169.043 146.64H207.182V145.824H169.043V146.64Z" fill="#C69C45"/>
<path fill-rule="evenodd" clip-rule="evenodd" d="M202.886 153.003H204.39V145.824H202.886V153.003Z" fill="#D8B56D"/>
<path fill-rule="evenodd" clip-rule="evenodd" d="M199.441 153.003H200.944V145.824H199.441V153.003Z" fill="#D8B56D"/>
<path fill-rule="evenodd" clip-rule="evenodd" d="M195.988 153.003H197.491V145.824H195.988V153.003Z" fill="#D8B56D"/>
<path fill-rule="evenodd" clip-rule="evenodd" d="M192.535 153.003H194.038V145.824H192.535V153.003Z" fill="#D8B56D"/>
<path fill-rule="evenodd" clip-rule="evenodd" d="M189.09 153.003H190.593V145.824H189.09V153.003Z" fill="#D8B56D"/>
<path fill-rule="evenodd" clip-rule="evenodd" d="M185.637 153.003H187.14V145.824H185.637V153.003Z" fill="#D8B56D"/>
<path fill-rule="evenodd" clip-rule="evenodd" d="M182.184 153.003H183.687V145.824H182.184V153.003Z" fill="#D8B56D"/>
<path fill-rule="evenodd" clip-rule="evenodd" d="M178.739 153.003H180.242V145.824H178.739V153.003Z" fill="#D8B56D"/>
<path fill-rule="evenodd" clip-rule="evenodd" d="M175.285 153.003H176.788V145.824H175.285V153.003Z" fill="#D8B56D"/>
<path fill-rule="evenodd" clip-rule="evenodd" d="M171.833 153.003H173.335V145.824H171.833V153.003Z" fill="#D8B56D"/>
<path fill-rule="evenodd" clip-rule="evenodd" d="M172.928 146.011H211.067V138.833H172.928V146.011Z" fill="#ECCC8B"/>
<path fill-rule="evenodd" clip-rule="evenodd" d="M172.928 139.648H211.067V138.832H172.928V139.648Z" fill="#C69C45"/>
<path fill-rule="evenodd" clip-rule="evenodd" d="M206.771 146.011H208.274V138.833H206.771V146.011Z" fill="#D8B56D"/>
<path fill-rule="evenodd" clip-rule="evenodd" d="M203.325 146.011H204.829V138.833H203.325V146.011Z" fill="#D8B56D"/>
<path fill-rule="evenodd" clip-rule="evenodd" d="M199.872 146.011H201.376V138.833H199.872V146.011Z" fill="#D8B56D"/>
<path fill-rule="evenodd" clip-rule="evenodd" d="M196.419 146.011H197.923V138.833H196.419V146.011Z" fill="#D8B56D"/>
<path fill-rule="evenodd" clip-rule="evenodd" d="M192.974 146.011H194.477V138.833H192.974V146.011Z" fill="#D8B56D"/>
<path fill-rule="evenodd" clip-rule="evenodd" d="M189.521 146.011H191.025V138.833H189.521V146.011Z" fill="#D8B56D"/>
<path fill-rule="evenodd" clip-rule="evenodd" d="M186.067 146.011H187.571V138.833H186.067V146.011Z" fill="#D8B56D"/>
<path fill-rule="evenodd" clip-rule="evenodd" d="M182.623 146.011H184.126V138.833H182.623V146.011Z" fill="#D8B56D"/>
<path fill-rule="evenodd" clip-rule="evenodd" d="M179.169 146.011H180.672V138.833H179.169V146.011Z" fill="#D8B56D"/>
<path fill-rule="evenodd" clip-rule="evenodd" d="M175.716 146.011H177.22V138.833H175.716V146.011Z" fill="#D8B56D"/>
<path fill-rule="evenodd" clip-rule="evenodd" d="M123.209 159.994H161.348V152.816H123.209V159.994Z" fill="#ECCC8B"/>
<path fill-rule="evenodd" clip-rule="evenodd" d="M123.209 153.632H161.348V152.815H123.209V153.632Z" fill="#C69C45"/>
<path fill-rule="evenodd" clip-rule="evenodd" d="M157.053 159.994H158.556V152.816H157.053V159.994Z" fill="#D8B56D"/>
<path fill-rule="evenodd" clip-rule="evenodd" d="M153.607 159.994H155.11V152.816H153.607V159.994Z" fill="#D8B56D"/>
<path fill-rule="evenodd" clip-rule="evenodd" d="M150.154 159.994H151.658V152.816H150.154V159.994Z" fill="#D8B56D"/>
<path fill-rule="evenodd" clip-rule="evenodd" d="M146.702 159.994H148.205V152.816H146.702V159.994Z" fill="#D8B56D"/>
<path fill-rule="evenodd" clip-rule="evenodd" d="M143.256 159.994H144.759V152.816H143.256V159.994Z" fill="#D8B56D"/>
<path fill-rule="evenodd" clip-rule="evenodd" d="M139.803 159.994H141.306V152.816H139.803V159.994Z" fill="#D8B56D"/>
<path fill-rule="evenodd" clip-rule="evenodd" d="M136.35 159.994H137.853V152.816H136.35V159.994Z" fill="#D8B56D"/>
<path fill-rule="evenodd" clip-rule="evenodd" d="M132.905 159.994H134.408V152.816H132.905V159.994Z" fill="#D8B56D"/>
<path fill-rule="evenodd" clip-rule="evenodd" d="M129.452 159.994H130.955V152.816H129.452V159.994Z" fill="#D8B56D"/>
<path fill-rule="evenodd" clip-rule="evenodd" d="M125.999 159.994H127.501V152.816H125.999V159.994Z" fill="#D8B56D"/>
<path fill-rule="evenodd" clip-rule="evenodd" d="M62.8691 167.145H112.4V157.823H62.8691V167.145Z" fill="#ECCC8B"/>
<path fill-rule="evenodd" clip-rule="evenodd" d="M62.8691 158.882H112.4V157.822H62.8691V158.882Z" fill="#C69C45"/>
<path fill-rule="evenodd" clip-rule="evenodd" d="M106.821 167.145H108.773V157.823H106.821V167.145Z" fill="#D8B56D"/>
<path fill-rule="evenodd" clip-rule="evenodd" d="M102.347 167.145H104.299V157.823H102.347V167.145Z" fill="#D8B56D"/>
<path fill-rule="evenodd" clip-rule="evenodd" d="M97.8623 167.145H99.8145V157.823H97.8623V167.145Z" fill="#D8B56D"/>
<path fill-rule="evenodd" clip-rule="evenodd" d="M93.3774 167.145H95.3296V157.823H93.3774V167.145Z" fill="#D8B56D"/>
<path fill-rule="evenodd" clip-rule="evenodd" d="M88.9033 167.145H90.8555V157.823H88.9033V167.145Z" fill="#D8B56D"/>
<path fill-rule="evenodd" clip-rule="evenodd" d="M84.4189 167.145H86.3711V157.823H84.4189V167.145Z" fill="#D8B56D"/>
<path fill-rule="evenodd" clip-rule="evenodd" d="M79.9346 167.145H81.8867V157.823H79.9346V167.145Z" fill="#D8B56D"/>
<path fill-rule="evenodd" clip-rule="evenodd" d="M75.46 167.145H77.4121V157.823H75.46V167.145Z" fill="#D8B56D"/>
<path fill-rule="evenodd" clip-rule="evenodd" d="M70.9751 167.145H72.9273V157.823H70.9751V167.145Z" fill="#D8B56D"/>
<path fill-rule="evenodd" clip-rule="evenodd" d="M66.4912 167.145H68.4434V157.823H66.4912V167.145Z" fill="#D8B56D"/>
<path fill-rule="evenodd" clip-rule="evenodd" d="M172.928 166.985H211.067V159.807H172.928V166.985Z" fill="#ECCC8B"/>
<path fill-rule="evenodd" clip-rule="evenodd" d="M172.928 160.623H211.067V159.807H172.928V160.623Z" fill="#C69C45"/>
<path fill-rule="evenodd" clip-rule="evenodd" d="M206.771 166.985H208.274V159.807H206.771V166.985Z" fill="#D8B56D"/>
<path fill-rule="evenodd" clip-rule="evenodd" d="M203.325 166.985H204.829V159.807H203.325V166.985Z" fill="#D8B56D"/>
<path fill-rule="evenodd" clip-rule="evenodd" d="M199.872 166.985H201.376V159.807H199.872V166.985Z" fill="#D8B56D"/>
<path fill-rule="evenodd" clip-rule="evenodd" d="M196.419 166.985H197.923V159.807H196.419V166.985Z" fill="#D8B56D"/>
<path fill-rule="evenodd" clip-rule="evenodd" d="M192.974 166.985H194.477V159.807H192.974V166.985Z" fill="#D8B56D"/>
<path fill-rule="evenodd" clip-rule="evenodd" d="M189.521 166.985H191.025V159.807H189.521V166.985Z" fill="#D8B56D"/>
<path fill-rule="evenodd" clip-rule="evenodd" d="M186.067 166.985H187.571V159.807H186.067V166.985Z" fill="#D8B56D"/>
<path fill-rule="evenodd" clip-rule="evenodd" d="M182.623 166.985H184.126V159.807H182.623V166.985Z" fill="#D8B56D"/>
<path fill-rule="evenodd" clip-rule="evenodd" d="M179.169 166.985H180.672V159.807H179.169V166.985Z" fill="#D8B56D"/>
<path fill-rule="evenodd" clip-rule="evenodd" d="M175.716 166.985H177.22V159.807H175.716V166.985Z" fill="#D8B56D"/>
<path fill-rule="evenodd" clip-rule="evenodd" d="M218.318 133.915H265.536V125.028H218.318V133.915Z" fill="#ECCC8B"/>
<path fill-rule="evenodd" clip-rule="evenodd" d="M218.318 126.039H265.536V125.028H218.318V126.039Z" fill="#C69C45"/>
<path fill-rule="evenodd" clip-rule="evenodd" d="M260.218 133.915H262.079V125.028H260.218V133.915Z" fill="#D8B56D"/>
<path fill-rule="evenodd" clip-rule="evenodd" d="M255.953 133.915H257.814V125.028H255.953V133.915Z" fill="#D8B56D"/>
<path fill-rule="evenodd" clip-rule="evenodd" d="M251.677 133.915H253.538V125.028H251.677V133.915Z" fill="#D8B56D"/>
<path fill-rule="evenodd" clip-rule="evenodd" d="M247.402 133.915H249.263V125.028H247.402V133.915Z" fill="#D8B56D"/>
<path fill-rule="evenodd" clip-rule="evenodd" d="M243.137 133.915H244.998V125.028H243.137V133.915Z" fill="#D8B56D"/>
<path fill-rule="evenodd" clip-rule="evenodd" d="M238.862 133.915H240.723V125.028H238.862V133.915Z" fill="#D8B56D"/>
<path fill-rule="evenodd" clip-rule="evenodd" d="M234.587 133.915H236.448V125.028H234.587V133.915Z" fill="#D8B56D"/>
<path fill-rule="evenodd" clip-rule="evenodd" d="M230.321 133.915H232.182V125.028H230.321V133.915Z" fill="#D8B56D"/>
<path fill-rule="evenodd" clip-rule="evenodd" d="M226.046 133.915H227.907V125.028H226.046V133.915Z" fill="#D8B56D"/>
<path fill-rule="evenodd" clip-rule="evenodd" d="M221.771 133.915H223.632V125.028H221.771V133.915Z" fill="#D8B56D"/>
<path fill-rule="evenodd" clip-rule="evenodd" d="M212.066 125.259H259.285V116.373H212.066V125.259Z" fill="#ECCC8B"/>
<path fill-rule="evenodd" clip-rule="evenodd" d="M212.066 117.383H259.285V116.373H212.066V117.383Z" fill="#C69C45"/>
<path fill-rule="evenodd" clip-rule="evenodd" d="M253.967 125.259H255.828V116.373H253.967V125.259Z" fill="#D8B56D"/>
<path fill-rule="evenodd" clip-rule="evenodd" d="M249.701 125.259H251.562V116.373H249.701V125.259Z" fill="#D8B56D"/>
<path fill-rule="evenodd" clip-rule="evenodd" d="M245.426 125.259H247.287V116.373H245.426V125.259Z" fill="#D8B56D"/>
<path fill-rule="evenodd" clip-rule="evenodd" d="M241.151 125.259H243.012V116.373H241.151V125.259Z" fill="#D8B56D"/>
<path fill-rule="evenodd" clip-rule="evenodd" d="M236.885 125.259H238.746V116.373H236.885V125.259Z" fill="#D8B56D"/>
<path fill-rule="evenodd" clip-rule="evenodd" d="M232.61 125.259H234.471V116.373H232.61V125.259Z" fill="#D8B56D"/>
<path fill-rule="evenodd" clip-rule="evenodd" d="M228.335 125.259H230.196V116.373H228.335V125.259Z" fill="#D8B56D"/>
<path fill-rule="evenodd" clip-rule="evenodd" d="M224.069 125.259H225.93V116.373H224.069V125.259Z" fill="#D8B56D"/>
<path fill-rule="evenodd" clip-rule="evenodd" d="M219.794 125.259H221.655V116.373H219.794V125.259Z" fill="#D8B56D"/>
<path fill-rule="evenodd" clip-rule="evenodd" d="M215.519 125.259H217.38V116.373H215.519V125.259Z" fill="#D8B56D"/>
<path fill-rule="evenodd" clip-rule="evenodd" d="M216.875 116.603H264.094V107.717H216.875V116.603Z" fill="#ECCC8B"/>
<path fill-rule="evenodd" clip-rule="evenodd" d="M216.875 108.726H264.094V107.717H216.875V108.726Z" fill="#C69C45"/>
<path fill-rule="evenodd" clip-rule="evenodd" d="M258.775 116.603H260.636V107.717H258.775V116.603Z" fill="#D8B56D"/>
<path fill-rule="evenodd" clip-rule="evenodd" d="M254.509 116.603H256.37V107.717H254.509V116.603Z" fill="#D8B56D"/>
<path fill-rule="evenodd" clip-rule="evenodd" d="M250.235 116.603H252.096V107.717H250.235V116.603Z" fill="#D8B56D"/>
<path fill-rule="evenodd" clip-rule="evenodd" d="M245.959 116.603H247.82V107.717H245.959V116.603Z" fill="#D8B56D"/>
<path fill-rule="evenodd" clip-rule="evenodd" d="M241.694 116.603H243.555V107.717H241.694V116.603Z" fill="#D8B56D"/>
<path fill-rule="evenodd" clip-rule="evenodd" d="M237.418 116.603H239.279V107.717H237.418V116.603Z" fill="#D8B56D"/>
<path fill-rule="evenodd" clip-rule="evenodd" d="M233.144 116.603H235.005V107.717H233.144V116.603Z" fill="#D8B56D"/>
<path fill-rule="evenodd" clip-rule="evenodd" d="M228.878 116.603H230.739V107.717H228.878V116.603Z" fill="#D8B56D"/>
<path fill-rule="evenodd" clip-rule="evenodd" d="M224.604 116.603H226.465V107.717H224.604V116.603Z" fill="#D8B56D"/>
<path fill-rule="evenodd" clip-rule="evenodd" d="M220.329 116.603H222.19V107.717H220.329V116.603Z" fill="#D8B56D"/>
<path fill-rule="evenodd" clip-rule="evenodd" d="M218.318 159.883H265.536V150.996H218.318V159.883Z" fill="#ECCC8B"/>
<path fill-rule="evenodd" clip-rule="evenodd" d="M218.318 152.007H265.536V150.996H218.318V152.007Z" fill="#C69C45"/>
<path fill-rule="evenodd" clip-rule="evenodd" d="M260.218 159.883H262.079V150.996H260.218V159.883Z" fill="#D8B56D"/>
<path fill-rule="evenodd" clip-rule="evenodd" d="M255.953 159.883H257.814V150.996H255.953V159.883Z" fill="#D8B56D"/>
<path fill-rule="evenodd" clip-rule="evenodd" d="M251.677 159.883H253.538V150.996H251.677V159.883Z" fill="#D8B56D"/>
<path fill-rule="evenodd" clip-rule="evenodd" d="M247.402 159.883H249.263V150.996H247.402V159.883Z" fill="#D8B56D"/>
<path fill-rule="evenodd" clip-rule="evenodd" d="M243.137 159.883H244.998V150.996H243.137V159.883Z" fill="#D8B56D"/>
<path fill-rule="evenodd" clip-rule="evenodd" d="M238.862 159.883H240.723V150.996H238.862V159.883Z" fill="#D8B56D"/>
<path fill-rule="evenodd" clip-rule="evenodd" d="M234.587 159.883H236.448V150.996H234.587V159.883Z" fill="#D8B56D"/>
<path fill-rule="evenodd" clip-rule="evenodd" d="M230.321 159.883H232.182V150.996H230.321V159.883Z" fill="#D8B56D"/>
<path fill-rule="evenodd" clip-rule="evenodd" d="M226.046 159.883H227.907V150.996H226.046V159.883Z" fill="#D8B56D"/>
<path fill-rule="evenodd" clip-rule="evenodd" d="M221.771 159.883H223.632V150.996H221.771V159.883Z" fill="#D8B56D"/>
<path fill-rule="evenodd" clip-rule="evenodd" d="M212.066 151.227H259.285V142.341H212.066V151.227Z" fill="#ECCC8B"/>
<path fill-rule="evenodd" clip-rule="evenodd" d="M212.066 143.351H259.285V142.34H212.066V143.351Z" fill="#ECCC8B"/>
<path fill-rule="evenodd" clip-rule="evenodd" d="M253.967 151.227H255.828V142.341H253.967V151.227Z" fill="#D8B56D"/>
<path fill-rule="evenodd" clip-rule="evenodd" d="M249.701 151.227H251.562V142.341H249.701V151.227Z" fill="#D8B56D"/>
<path fill-rule="evenodd" clip-rule="evenodd" d="M245.426 151.227H247.287V142.341H245.426V151.227Z" fill="#D8B56D"/>
<path fill-rule="evenodd" clip-rule="evenodd" d="M241.151 151.227H243.012V142.341H241.151V151.227Z" fill="#D8B56D"/>
<path fill-rule="evenodd" clip-rule="evenodd" d="M236.885 151.227H238.746V142.341H236.885V151.227Z" fill="#D8B56D"/>
<path fill-rule="evenodd" clip-rule="evenodd" d="M232.61 151.227H234.471V142.341H232.61V151.227Z" fill="#D8B56D"/>
<path fill-rule="evenodd" clip-rule="evenodd" d="M228.335 151.227H230.196V142.341H228.335V151.227Z" fill="#D8B56D"/>
<path fill-rule="evenodd" clip-rule="evenodd" d="M224.069 151.227H225.93V142.341H224.069V151.227Z" fill="#D8B56D"/>
<path fill-rule="evenodd" clip-rule="evenodd" d="M219.794 151.227H221.655V142.341H219.794V151.227Z" fill="#D8B56D"/>
<path fill-rule="evenodd" clip-rule="evenodd" d="M215.519 151.227H217.38V142.341H215.519V151.227Z" fill="#D8B56D"/>
<path fill-rule="evenodd" clip-rule="evenodd" d="M216.875 142.572H264.094V133.685H216.875V142.572Z" fill="#ECCC8B"/>
<path fill-rule="evenodd" clip-rule="evenodd" d="M216.875 134.694H264.094V133.684H216.875V134.694Z" fill="#C69C45"/>
<path fill-rule="evenodd" clip-rule="evenodd" d="M258.775 142.572H260.636V133.685H258.775V142.572Z" fill="#D8B56D"/>
<path fill-rule="evenodd" clip-rule="evenodd" d="M254.509 142.572H256.37V133.685H254.509V142.572Z" fill="#D8B56D"/>
<path fill-rule="evenodd" clip-rule="evenodd" d="M250.235 142.572H252.096V133.685H250.235V142.572Z" fill="#D8B56D"/>
<path fill-rule="evenodd" clip-rule="evenodd" d="M245.959 142.572H247.82V133.685H245.959V142.572Z" fill="#D8B56D"/>
<path fill-rule="evenodd" clip-rule="evenodd" d="M241.694 142.572H243.555V133.685H241.694V142.572Z" fill="#D8B56D"/>
<path fill-rule="evenodd" clip-rule="evenodd" d="M237.418 142.572H239.279V133.685H237.418V142.572Z" fill="#D8B56D"/>
<path fill-rule="evenodd" clip-rule="evenodd" d="M233.144 142.572H235.005V133.685H233.144V142.572Z" fill="#D8B56D"/>
<path fill-rule="evenodd" clip-rule="evenodd" d="M228.878 142.572H230.739V133.685H228.878V142.572Z" fill="#D8B56D"/>
<path fill-rule="evenodd" clip-rule="evenodd" d="M224.604 142.572H226.465V133.685H224.604V142.572Z" fill="#D8B56D"/>
<path fill-rule="evenodd" clip-rule="evenodd" d="M220.329 142.572H222.19V133.685H220.329V142.572Z" fill="#D8B56D"/>
<path fill-rule="evenodd" clip-rule="evenodd" d="M150.773 67.7822C150.773 67.7822 148.942 71.4319 148.457 71.8477C147.97 72.2634 140.622 71.8435 136.861 70.4694L135.185 68.8547C134.899 68.579 134.541 68.3896 134.152 68.3085L132.481 67.9563C132.139 67.8845 131.796 68.078 131.681 68.4079L130.925 70.5746C130.808 70.908 130.961 71.2761 131.279 71.4302L133.079 72.3016C133.079 72.3016 134.68 73.7199 136.18 73.0689C136.18 73.0689 142.266 75.9907 146.41 76.3964C150.555 76.8027 151.343 75.5997 152.391 74.4901C153.438 73.3806 155.948 68.4402 155.948 68.4402L150.773 67.7822Z" fill="#FFD7B5"/>
<path fill-rule="evenodd" clip-rule="evenodd" d="M170.475 50.8519C170.475 50.8519 179.086 46.9347 181.826 44.2646C181.826 44.2646 185.695 38.0177 185.67 31.8948L184.35 29.1641C184.265 28.9883 184.223 28.7955 184.227 28.6008L184.272 26.5752C184.288 25.8631 184.903 25.3133 185.612 25.3762L187.161 25.515C187.596 25.5538 187.975 25.8196 188.164 26.2136C188.723 27.3731 189.632 29.9238 188.307 32.3135C188.307 32.3135 188.874 41.1182 185.774 46.1544C182.674 51.1894 171.506 55.7506 171.506 55.7506L170.475 50.8519Z" fill="#FFD7B5"/>
<path fill-rule="evenodd" clip-rule="evenodd" d="M177.501 80.1296L173.892 57.548C173.849 57.2781 173.969 57.0083 174.198 56.8589L178.606 53.993C178.941 53.7748 179.022 53.3191 178.783 52.9987L174.975 47.9001C174.787 47.6479 174.453 47.5538 174.161 47.6732C172.922 48.1812 169.542 49.4801 166.435 49.8882C161.262 50.5685 156.571 55.1743 153.904 56.656C151.626 57.922 149.932 65.3861 149.486 67.5358C149.417 67.8686 149.601 68.2026 149.919 68.3226L155.568 70.4558C155.968 70.6069 156.408 70.3635 156.492 69.9443C156.635 69.2228 157.656 69.1934 157.839 69.906C158.681 73.1894 160.026 78.6149 160.828 82.7738C161.158 84.4837 162.78 85.628 164.503 85.3751L174.753 83.8722C176.552 83.6082 177.788 81.9253 177.501 80.1296Z" fill="#00AB4E"/>
<path fill-rule="evenodd" clip-rule="evenodd" d="M152.806 41.1541C150.526 38.7009 153.899 35.8044 156.787 34.4726C160.988 32.5358 166.097 34.0681 163.574 38.3822C162.53 40.168 158.035 40.4579 156.705 40.2932C158.217 41.5463 159.052 47.1252 158.55 47.9378C155.477 46.7442 150.324 43.5208 152.806 41.1541Z" fill="#6C4A07"/>
<path fill-rule="evenodd" clip-rule="evenodd" d="M158.494 46.8237C159.006 48.6695 159.214 50.5887 159.093 52.5068C159.093 52.5068 160.563 52.8466 163.552 52.7884C166.54 52.729 166.044 50.8568 166.044 50.8568C164.187 50.5281 163.228 48.92 162.906 47.8745C162.847 47.6928 162.802 47.507 162.763 47.32C160.981 47.4976 159.474 47.1589 158.494 46.8237Z" fill="#FFB08C"/>
<path fill-rule="evenodd" clip-rule="evenodd" d="M197.314 132.036L193.157 133.078C192.7 133.193 192.254 132.856 192.235 132.386L191.894 123.249C191.489 112.435 186.229 102.359 177.381 95.4514L176.175 94.5106C175.67 94.1161 174.884 94.3489 174.7 94.9469L169.141 110.528C168.11 113.893 164.364 115.917 160.742 115.068L140.498 110.318C140.178 110.243 140.045 109.861 140.249 109.603L143.079 106.032C143.176 105.91 143.329 105.847 143.484 105.865L156.001 107.336C159.012 108.045 161.969 107.34 161.866 104.45L160.995 83.6003L177.628 80.7273C180.208 83.7196 184.093 87.9891 187.726 91.9299C193.885 98.6107 197.352 107.087 197.543 115.957L197.876 131.3C197.883 131.646 197.65 131.952 197.314 132.036Z" fill="#135388"/>
<path fill-rule="evenodd" clip-rule="evenodd" d="M143.228 106.18L140.648 109.954C140.538 110.118 140.371 110.236 140.18 110.286C139.497 110.463 137.802 110.988 136.994 111.894C135.965 113.046 135.296 113.628 134.649 112.981C134.001 112.335 134.425 111.673 134.786 110.979C135.082 110.413 138.751 105.284 140.102 103.411C140.336 103.086 140.789 103.012 141.114 103.246C141.147 103.27 141.179 103.297 141.207 103.326L143.138 105.277C143.374 105.52 143.411 105.895 143.228 106.18Z" fill="#0E3E66"/>
<path fill-rule="evenodd" clip-rule="evenodd" d="M193.116 133.001L197.159 130.816C197.331 130.724 197.532 130.697 197.724 130.741C198.412 130.892 200.156 131.215 201.292 130.785C202.732 130.239 203.596 130.03 203.873 130.902C204.15 131.773 203.47 132.166 202.825 132.615C202.305 132.977 196.683 135.836 194.608 136.888C194.254 137.07 193.819 136.93 193.638 136.577C193.618 136.538 193.602 136.498 193.589 136.457L192.781 133.83C192.691 133.51 192.829 133.168 193.116 133.001Z" fill="#0E3E66"/>
<path fill-rule="evenodd" clip-rule="evenodd" d="M159.134 51.4421C160.518 52.146 162.013 52.6052 163.553 52.7987L162.879 56.1767C162.879 56.1767 160.032 55.2959 158.524 54.3586L159.134 51.4421Z" fill="white"/>
<path fill-rule="evenodd" clip-rule="evenodd" d="M163.553 52.7986L165.729 55.3635C166.407 54.1087 166.836 52.7345 166.993 51.3163L164.766 50.1079C164.766 50.1079 164.156 52.0883 163.553 52.7986Z" fill="white"/>
<path fill-rule="evenodd" clip-rule="evenodd" d="M154.983 36.3506C152.956 37.8465 153.216 40.713 153.216 40.713C153.216 40.713 153.777 42.9809 155.451 43.8388C157.324 42.7439 157.009 40.7389 155.817 39.6887C157.401 39.6493 164.094 38.1593 162.935 35.3169C162.098 33.2236 157.01 34.8542 154.983 36.3506Z" fill="#6C4A07"/>
<path fill-rule="evenodd" clip-rule="evenodd" d="M165.849 43.9642C165.79 40.5079 162.536 37.3086 162.536 37.3086C159.568 39.6965 155.455 39.6418 155.455 39.6418C157.654 40.4238 157.479 44.0041 157.479 44.0041C154.366 43.0316 154.343 45.4753 155.404 46.3015C156.467 47.1264 158.092 46.6296 158.092 46.6296C158.245 47.0488 158.375 47.4745 158.494 47.9026C159.474 48.2383 160.981 48.577 162.762 48.3983C162.757 48.3742 162.749 48.3501 162.744 48.3254C162.744 48.3254 165.907 47.4204 165.849 43.9642Z" fill="#FFD7B5"/>
<path fill-rule="evenodd" clip-rule="evenodd" d="M277.892 138.551C280.656 131.036 288.988 127.184 296.503 129.947C304.019 132.71 307.871 141.043 305.108 148.558C302.344 156.073 294.012 159.925 286.497 157.162C278.981 154.399 275.129 146.067 277.892 138.551Z" fill="#ECCC8B"/>
<path fill-rule="evenodd" clip-rule="evenodd" d="M296.876 132.773C290.763 130.626 284.138 133.913 282.079 140.115C280.197 145.784 282.774 152.026 288.088 154.67C281.975 152.523 278.688 145.754 280.747 139.552C282.806 133.35 289.431 130.063 295.544 132.21C295.999 132.37 296.444 132.558 296.876 132.773Z" fill="#D8B56D"/>
<path d="M292.651 144.574C292.829 144.822 292.932 145.008 292.96 145.13C293.027 145.42 292.847 145.719 292.419 146.027C292.199 146.191 292.013 146.29 291.86 146.325C291.715 146.359 291.585 146.353 291.47 146.307C291.36 146.252 291.274 146.191 291.211 146.125C291.101 145.998 290.643 145.375 289.838 144.258L289.488 144.363L288.044 144.696L288.343 145.991C288.384 146.166 288.407 146.302 288.413 146.397C288.425 146.483 288.413 146.59 288.379 146.719C288.319 146.95 288.045 147.122 287.556 147.234C287.021 147.358 286.676 147.289 286.519 147.027C286.443 146.908 286.374 146.715 286.312 146.447L284.844 140.088C284.804 139.912 284.777 139.781 284.766 139.696C284.76 139.6 284.774 139.489 284.809 139.36C284.868 139.129 285.142 138.957 285.631 138.844L288.106 138.273C288.778 138.118 289.488 138.211 290.235 138.554C290.595 138.72 290.921 138.983 291.213 139.342C291.506 139.701 291.709 140.128 291.824 140.625C292.023 141.488 291.9 142.265 291.456 142.955C291.718 143.321 292.116 143.86 292.651 144.574ZM287.576 142.668L289.043 142.329C289.264 142.278 289.466 142.143 289.649 141.924C289.832 141.704 289.884 141.427 289.807 141.091C289.729 140.754 289.56 140.528 289.3 140.411C289.038 140.286 288.788 140.251 288.552 140.306L287.108 140.639L287.576 142.668ZM294.158 147.448L292.613 140.757C292.572 140.581 292.546 140.45 292.534 140.364C292.53 140.277 292.542 140.173 292.571 140.054C292.63 139.823 292.863 139.661 293.267 139.567C293.672 139.474 293.956 139.465 294.118 139.54C294.286 139.606 294.404 139.735 294.473 139.929C294.672 139.464 295.081 139.161 295.699 139.018C296.326 138.873 296.986 139.031 297.679 139.49C298.373 139.95 298.809 140.569 298.989 141.348C299.169 142.127 299.048 142.876 298.626 143.593C298.212 144.308 297.692 144.738 297.065 144.882C296.439 145.027 295.944 144.956 295.58 144.67L296.114 146.985C296.155 147.16 296.177 147.292 296.181 147.379C296.193 147.465 296.181 147.569 296.144 147.69C296.117 147.817 296.04 147.919 295.913 147.996C295.787 148.074 295.605 148.14 295.368 148.195C295.131 148.25 294.935 148.271 294.779 148.258C294.631 148.244 294.514 148.191 294.428 148.098C294.35 148.003 294.294 147.916 294.259 147.835C294.232 147.753 294.198 147.624 294.158 147.448ZM295.18 141.528C295.052 141.774 295.016 142.02 295.073 142.265C295.129 142.509 295.269 142.714 295.493 142.88C295.722 143.036 295.974 143.082 296.249 143.019C296.531 142.954 296.745 142.8 296.89 142.557C297.043 142.313 297.09 142.064 297.032 141.812C296.974 141.56 296.83 141.356 296.601 141.2C296.37 141.036 296.106 140.988 295.808 141.057C295.518 141.124 295.308 141.281 295.18 141.528Z" fill="white"/>
<path fill-rule="evenodd" clip-rule="evenodd" d="M87.69 65.3831C90.2872 67.5504 87.8158 74.714 82.3045 81.3049C76.7932 87.8958 70.2294 91.4809 67.6327 89.29C67.0342 88.7896 64.7033 87.1843 64.6104 86.2153C64.3094 83.0207 68.677 78.499 72.9077 73.434C76.8455 68.7205 80.2312 62.9828 83.4723 62.9458C85.4456 62.9482 86.9538 64.7698 87.69 65.3831Z" fill="#C69C45"/>
<path fill-rule="evenodd" clip-rule="evenodd" d="M65.6625 81.7168L66.0488 82.1208L72.6967 89.1697C72.5021 89.2597 72.3104 89.3379 72.1176 89.4096L65.7372 82.63L65.2485 82.1413L65.6625 81.7168Z" fill="#FFC843"/>
<path fill-rule="evenodd" clip-rule="evenodd" d="M70.0239 79.3418L76.8729 86.603C76.7165 86.7324 76.5624 86.8441 76.4148 86.9593L69.5981 79.7393L70.0239 79.3418Z" fill="#FFC843"/>
<path fill-rule="evenodd" clip-rule="evenodd" d="M77.4887 72.3047L83.9732 79.1808L83.6186 79.6582L77.063 72.7022L77.4887 72.3047Z" fill="#FFC843"/>
<path fill-rule="evenodd" clip-rule="evenodd" d="M74.0204 75.575L80.9152 82.8797C80.7865 83.0273 80.6454 83.1713 80.5154 83.313L73.5894 75.9736L74.0204 75.575Z" fill="#FFC843"/>
<path fill-rule="evenodd" clip-rule="evenodd" d="M70.7006 71.6035C76.2073 65.012 82.774 61.4246 85.3677 63.5914C87.9614 65.7587 85.6 72.8588 80.0934 79.4503C74.5867 86.0424 68.02 89.6292 65.4263 87.4624C62.8326 85.2956 65.194 78.1955 70.7006 71.6035Z" fill="#D8B56D"/>
<path fill-rule="evenodd" clip-rule="evenodd" d="M72.2835 72.5004C76.6424 67.2837 81.6615 64.2961 83.4955 65.8278C85.3289 67.3595 83.2826 72.8309 78.9238 78.0482C74.5655 83.2649 69.5458 86.2526 67.7124 84.7202C65.8784 83.1891 67.9253 77.7178 72.2835 72.5004Z" fill="#ECCC8B"/>
<path fill-rule="evenodd" clip-rule="evenodd" d="M241.93 57.525C241.072 59.6106 236.019 59.4671 230.724 57.2845C225.43 55.1012 221.83 51.6403 222.688 49.5546C222.89 49.0731 223.465 47.2667 224.04 47.0186C226.013 46.183 229.769 48.0588 233.835 49.7375C237.623 51.2904 241.954 52.3047 242.626 54.3592C243.03 55.6099 242.175 56.9305 241.93 57.525Z" fill="#83C8FF"/>
<path fill-rule="evenodd" clip-rule="evenodd" d="M242.625 54.3593C242.948 55.9945 242.237 56.7789 241.93 57.5251C241.623 58.2707 240.726 58.7599 239.471 58.931C239.314 58.9574 239.156 58.9763 238.998 58.9851C238.036 59.0421 237.07 58.991 236.119 58.834C235.983 58.834 235.848 58.791 235.708 58.7681C234.592 58.5676 233.492 58.2848 232.418 57.9214L232.029 57.7891C231.598 57.6374 231.155 57.4704 230.713 57.2875C230.27 57.1052 229.85 56.8994 229.435 56.7172L229.077 56.5461C228.098 56.0621 227.155 55.5088 226.254 54.8914L225.935 54.6656C225.148 54.11 224.428 53.4661 223.787 52.7476C223.69 52.6388 223.601 52.5341 223.515 52.4248C222.68 51.3687 222.35 50.3585 222.68 49.5547C222.897 49.0379 223.364 47.2704 224.032 47.0146C224.853 46.7829 225.723 46.7829 226.545 47.0146L226.934 47.1075C228.875 47.6049 231.322 48.7121 233.82 49.7411C236.764 50.9571 240.248 52.219 241.958 53.676C242.059 53.7613 242.156 53.8524 242.249 53.9477C242.385 54.0747 242.511 54.2123 242.625 54.3593Z" fill="#C69C45"/>
<path fill-rule="evenodd" clip-rule="evenodd" d="M227.128 46.7732L226.949 47.1001L223.795 52.7432C223.698 52.635 223.609 52.5297 223.523 52.421L226.553 47.0061L226.79 46.5874L227.128 46.7732Z" fill="#FFC843"/>
<path fill-rule="evenodd" clip-rule="evenodd" d="M229.513 49.077L226.262 54.9029L225.943 54.6777L229.175 48.8977L229.513 49.077Z" fill="#FFC843"/>
<path fill-rule="evenodd" clip-rule="evenodd" d="M235.491 52.4173L232.418 57.921L232.03 57.7893L235.137 52.2109L235.491 52.4173Z" fill="#FFC843"/>
<path fill-rule="evenodd" clip-rule="evenodd" d="M232.709 50.8635L229.443 56.7171L229.085 56.5459L232.371 50.6577L232.709 50.8635Z" fill="#FFC843"/>
<path fill-rule="evenodd" clip-rule="evenodd" d="M239.114 53.4811L236.12 58.8343C235.984 58.8343 235.847 58.7908 235.708 58.7679L238.772 53.2871L239.114 53.4811Z" fill="#FFC843"/>
<path fill-rule="evenodd" clip-rule="evenodd" d="M242.603 55.7069C241.744 57.7931 236.753 57.7114 231.455 55.524C226.157 53.3378 222.56 49.881 223.422 47.7948C224.285 45.7091 229.272 45.795 234.57 47.977C239.868 50.1603 243.46 53.6101 242.603 55.7069Z" fill="#D8B56D"/>
<path fill-rule="evenodd" clip-rule="evenodd" d="M240.8 54.9494C240.195 56.4218 236.303 56.2154 232.111 54.4873C227.92 52.7586 225.015 50.1602 225.621 48.6884C226.227 47.2167 230.119 47.4219 234.313 49.1506C238.509 50.8787 241.41 53.4777 240.8 54.9494Z" fill="#ECCC8B"/>
<path d="M124.049 35.8586L133.371 38.5781" stroke="#FFC843" stroke-width="1.5535" stroke-linecap="round" stroke-linejoin="round"/>
<path d="M144.983 14.8579L150.559 25.6705" stroke="#FFC843" stroke-width="1.5535" stroke-linecap="round" stroke-linejoin="round"/>
<path d="M177.262 18.7683L174.543 25.7602" stroke="#FFC843" stroke-width="1.5535" stroke-linecap="round" stroke-linejoin="round"/>
<path fill-rule="evenodd" clip-rule="evenodd" d="M316.333 94.3954L314.586 97.5878L311.395 99.333C310.868 99.6218 310.868 100.378 311.395 100.667L314.586 102.412L316.333 105.605C316.62 106.132 317.378 106.132 317.666 105.605L319.412 102.412L322.605 100.667C323.132 100.378 323.132 99.6218 322.605 99.333L319.412 97.5878L317.666 94.3954C317.378 93.8682 316.62 93.8682 316.333 94.3954Z" fill="#FFE7B8"/>
<path fill-rule="evenodd" clip-rule="evenodd" d="M35.333 123.395L33.5862 126.588L30.3954 128.333C29.8682 128.622 29.8682 129.378 30.3954 129.667L33.5862 131.412L35.333 134.605C35.6202 135.132 36.3782 135.132 36.6655 134.605L38.4122 131.412L41.6046 129.667C42.1318 129.378 42.1318 128.622 41.6046 128.333L38.4122 126.588L36.6655 123.395C36.3782 122.868 35.6202 122.868 35.333 123.395Z" fill="#FFD37B"/>
</svg>
