<svg width="80" height="80" viewBox="0 0 80 80" fill="none" xmlns="http://www.w3.org/2000/svg">
<path fill-rule="evenodd" clip-rule="evenodd" d="M77 40.5C77 60.6588 60.6582 77 40.5 77C20.3418 77 4 60.6588 4 40.5C4 20.3412 20.3418 4 40.5 4C60.6582 4 77 20.3412 77 40.5Z" fill="#EBFFE0"/>
<mask id="mask0_5567_159397" style="mask-type:alpha" maskUnits="userSpaceOnUse" x="65" y="32" width="3" height="10">
<path fill-rule="evenodd" clip-rule="evenodd" d="M67.052 33.3011L67.104 40.5233C67.1075 40.8471 66.8461 41.1138 66.5205 41.1155L65.4865 41.1234L65.424 32.7247L66.458 32.7168C66.4598 32.7168 66.4607 32.7168 66.4624 32.7168C66.7863 32.7168 67.0485 32.9782 67.052 33.3011Z" fill="white"/>
</mask>
<g mask="url(#mask0_5567_159397)">
<path fill-rule="evenodd" clip-rule="evenodd" d="M70.7314 44.7499H61.7986V29.0903H70.7314V44.7499Z" fill="#1868AB"/>
</g>
<mask id="mask1_5567_159397" style="mask-type:alpha" maskUnits="userSpaceOnUse" x="15" y="15" width="52" height="94">
<path fill-rule="evenodd" clip-rule="evenodd" d="M16.3556 24.2003L15.7449 99.4878C15.7071 104.227 19.5157 108.101 24.2545 108.142L56.7643 108.423H56.9113C61.5867 108.386 65.3839 104.602 65.4227 99.9094L66.0334 24.6315C66.0624 19.8962 62.8381 16.0278 58.8341 15.9943L23.6614 15.689C23.6438 15.689 23.6253 15.689 23.6077 15.689C19.6275 15.689 16.3847 19.4879 16.3556 24.2003Z" fill="white"/>
</mask>
<g mask="url(#mask1_5567_159397)">
<path fill-rule="evenodd" clip-rule="evenodd" d="M69.625 62.2997L69.6596 11.4009H12.0495C12.0495 11.4009 6.91765 57.0161 11.0669 62.8173C15.2161 68.6184 27.3663 77.0396 40.1536 77.0396C52.947 77.0396 62.1447 71.4041 69.625 62.2997Z" fill="#5297D1"/>
</g>
<mask id="mask2_5567_159397" style="mask-type:alpha" maskUnits="userSpaceOnUse" x="18" y="19" width="45" height="59">
<path fill-rule="evenodd" clip-rule="evenodd" d="M18.9348 70.1425C23.6634 73.647 29.9119 77.0396 40.1534 77.1076C50.3949 77.1756 57.591 73.647 62.3311 69.5745V43.9893L62.8758 25.5501C62.8969 22.2651 60.792 19.5819 58.1775 19.5591L52.5191 19.5098C51.794 19.5027 51.1577 19.3927 50.9773 20.2763L50.7767 21.2583C50.5963 22.1419 49.9601 22.757 49.2358 22.7508L33.1459 22.6091C32.4208 22.603 31.7925 21.9764 31.6226 21.0911L31.4334 20.1047C31.2812 19.3047 30.7549 19.3083 30.1205 19.3109C30.0527 19.3109 29.9823 19.3109 29.9119 19.3109L24.2544 19.2607C24.2429 19.2607 24.2324 19.2607 24.2218 19.2607C21.6197 19.2607 19.5006 21.8972 19.4804 25.1699L18.9348 70.1425Z" fill="white"/>
</mask>
<g mask="url(#mask2_5567_159397)">
<path fill-rule="evenodd" clip-rule="evenodd" d="M67.1637 66.1757L66.5034 14.041H15.2583C15.2583 14.041 11.425 59.721 14.505 66.6766C17.585 73.6322 30.4432 77.1077 41.0437 77.1077C52.7867 76.5574 62.6062 71.8898 67.1637 66.1757Z" fill="white"/>
</g>
<mask id="mask3_5567_159397" style="mask-type:alpha" maskUnits="userSpaceOnUse" x="14" y="32" width="3" height="10">
<path fill-rule="evenodd" clip-rule="evenodd" d="M14.6281 33.3011L14.5762 40.5233C14.5727 40.8471 14.834 41.1138 15.1596 41.1155L16.1936 41.1234L16.2561 32.7247L15.2221 32.7168C15.2204 32.7168 15.2195 32.7168 15.2177 32.7168C14.8939 32.7168 14.6316 32.9782 14.6281 33.3011Z" fill="white"/>
</mask>
<g mask="url(#mask3_5567_159397)">
<path fill-rule="evenodd" clip-rule="evenodd" d="M10.9487 44.7499H19.8816V29.0903H10.9487V44.7499Z" fill="#1868AB"/>
</g>
<mask id="mask4_5567_159397" style="mask-type:alpha" maskUnits="userSpaceOnUse" x="14" y="42" width="3" height="9">
<path fill-rule="evenodd" clip-rule="evenodd" d="M14.5568 43.079L14.5049 50.3021C14.5014 50.6268 14.7628 50.8926 15.0875 50.8952L16.1224 50.9031L16.184 42.5035L15.1491 42.4956C15.1482 42.4956 15.1464 42.4956 15.1447 42.4956C14.8226 42.4956 14.5595 42.7561 14.5568 43.079Z" fill="white"/>
</mask>
<g mask="url(#mask4_5567_159397)">
<path fill-rule="evenodd" clip-rule="evenodd" d="M10.8774 54.5287H19.8094V38.8691H10.8774V54.5287Z" fill="#1868AB"/>
</g>
<mask id="mask5_5567_159397" style="mask-type:alpha" maskUnits="userSpaceOnUse" x="35" y="18" width="9" height="3">
<path fill-rule="evenodd" clip-rule="evenodd" d="M35.6513 19.4934L35.6504 19.6421C35.646 20.0575 35.9831 20.3989 36.3984 20.4016L43.2404 20.4526C43.6567 20.4553 43.9964 20.1191 43.9999 19.7029V19.5541C44.0052 19.137 43.669 18.7973 43.2519 18.7938L36.4116 18.7437C36.4099 18.7437 36.4081 18.7437 36.4072 18.7437C35.9928 18.7437 35.654 19.0781 35.6513 19.4934Z" fill="white"/>
</mask>
<g mask="url(#mask5_5567_159397)">
<path fill-rule="evenodd" clip-rule="evenodd" d="M32.0229 24.0791H47.6271V15.1172H32.0229V24.0791Z" fill="#1868AB"/>
</g>
<mask id="mask6_5567_159397" style="mask-type:alpha" maskUnits="userSpaceOnUse" x="45" y="18" width="3" height="3">
<path fill-rule="evenodd" clip-rule="evenodd" d="M45.6602 19.5566C45.6549 20.1436 46.1292 20.6249 46.7171 20.6293C47.3067 20.6337 47.7863 20.1594 47.7916 19.5707C47.7951 18.982 47.3216 18.5006 46.7329 18.4971C46.7303 18.4971 46.7276 18.4971 46.7241 18.4971C46.1389 18.4971 45.6628 18.9688 45.6602 19.5566Z" fill="white"/>
</mask>
<g mask="url(#mask6_5567_159397)">
<path fill-rule="evenodd" clip-rule="evenodd" d="M42.0327 24.2558H51.417V14.8706H42.0327V24.2558Z" fill="#1868AB"/>
</g>
<circle cx="12" cy="13" r="11" fill="#28D677"/>
<path d="M11.3577 7.0968C11.6246 6.82987 11.9121 6.6964 12.2201 6.6964C12.5384 6.6964 12.7848 6.72207 12.9593 6.7734C13.1338 6.82473 13.2673 6.88633 13.3597 6.9582C13.4521 7.0198 13.524 7.1276 13.5753 7.2816C13.6266 7.45613 13.6523 7.7282 13.6523 8.0978V16.6756C13.6523 16.9117 13.642 17.0914 13.6215 17.2146C13.6112 17.3275 13.565 17.461 13.4829 17.615C13.3392 17.8922 12.9388 18.0308 12.2817 18.0308C11.6452 18.0308 11.2499 17.8973 11.0959 17.6304C11.0138 17.4764 10.9624 17.3378 10.9419 17.2146C10.9316 17.0811 10.9265 16.8912 10.9265 16.6448V11.147L10.7263 11.3318C10.3054 11.6501 9.94602 11.8092 9.64829 11.8092C9.35055 11.8092 9.03742 11.6295 8.70889 11.2702C8.39062 10.9109 8.23149 10.5926 8.23149 10.3154C8.23149 10.0382 8.41629 9.73533 8.78589 9.4068L11.3115 7.1276L11.3577 7.0968Z" fill="white"/>
<path fill-rule="evenodd" clip-rule="evenodd" d="M60.4822 33C59.9847 32.9988 59.7623 32.6037 59.6175 32.1976C58.9648 30.3651 57.656 29.2296 55.9336 28.4017C54.689 27.8026 54.689 27.2684 55.9324 26.6694C57.6531 25.8409 58.8919 24.677 59.6384 22.8833C60.1243 21.7165 60.722 21.7055 61.2884 22.8514C62.1779 24.6527 63.3785 26.0112 65.2908 26.7563C66.0791 27.0628 66.3333 27.8443 65.4113 28.225C63.3716 29.0679 62.0465 30.5111 61.1517 32.4693C60.9305 32.9537 60.7503 32.9762 60.4822 33Z" fill="#FFC54F"/>
<path fill-rule="evenodd" clip-rule="evenodd" d="M21.09 69C20.3469 68.9001 20.1488 68.3819 19.9544 67.9127C19.3875 66.548 18.5084 65.5499 17.0525 64.9808C15.7526 64.4733 15.5709 63.7151 16.9931 63.0551C18.3496 62.4262 19.3601 61.5191 19.9507 60.1348C20.5441 58.7406 21.3246 58.5346 22.0348 60.0598C22.6674 61.4156 23.7317 62.3013 25.0198 63.0006C26.2302 63.658 26.4228 64.3386 25.0115 64.9835C23.6386 65.6105 22.7075 66.6443 22.0539 67.951C21.8221 68.4131 21.6048 68.8974 21.09 69Z" fill="#FFD37B"/>
<circle cx="40.5" cy="49.5" r="12.5" fill="#00AB4E"/>
<path fill-rule="evenodd" clip-rule="evenodd" d="M44.642 44.5988L39.225 50.2304L37.2797 48.4205C36.4809 47.6746 35.244 47.7326 34.5122 48.5479C33.7835 49.3612 33.8384 50.624 34.6382 51.3689L37.9779 54.4768C38.3529 54.827 38.8276 55 39.2992 55C39.8073 55 40.3145 54.8011 40.6987 54.4022L47.44 47.397C48.1972 46.6086 48.185 45.3447 47.4126 44.5729C47.0315 44.1906 46.5365 44 46.0415 44C45.5334 44 45.0252 44.201 44.642 44.5988Z" fill="white"/>
<mask id="mask7_5567_159397" style="mask-type:alpha" maskUnits="userSpaceOnUse" x="34" y="44" width="14" height="11">
<path fill-rule="evenodd" clip-rule="evenodd" d="M44.642 44.5988L39.225 50.2304L37.2797 48.4205C36.4809 47.6746 35.244 47.7326 34.5122 48.5479C33.7835 49.3612 33.8384 50.624 34.6382 51.3689L37.9779 54.4768C38.3529 54.827 38.8276 55 39.2992 55C39.8073 55 40.3145 54.8011 40.6987 54.4022L47.44 47.397C48.1972 46.6086 48.185 45.3447 47.4126 44.5729C47.0315 44.1906 46.5365 44 46.0415 44C45.5334 44 45.0252 44.201 44.642 44.5988Z" fill="white"/>
</mask>
<g mask="url(#mask7_5567_159397)">
</g>
</svg>
