<svg width="328" height="164" viewBox="0 0 328 164" fill="none" xmlns="http://www.w3.org/2000/svg">
<path d="M23.2189 161.504C33.6809 163.667 265.053 165.826 301.876 161.504C312.777 160.224 321.503 148.276 322.776 146.203C330.736 133.238 327.751 53.2794 325.761 26.266C324.69 11.7278 309.838 5.19571 302.871 3.03482C289.548 -1.09779 53.2799 -1.26366 22.2229 4.11573C8.32787 6.52168 3.29087 17.8712 2.29087 24.1796C-0.0421274 38.8847 -1.42113 129.331 2.31887 141.514C5.30487 151.239 12.7689 159.343 23.2189 161.504Z" fill="#E8FFFC"/>
<mask id="mask0_5567_157435" style="mask-type:alpha" maskUnits="userSpaceOnUse" x="0" y="0" width="328" height="164">
<path fill-rule="evenodd" clip-rule="evenodd" d="M23.2189 161.504C33.6809 163.667 265.053 165.826 301.876 161.504C312.777 160.224 321.503 148.276 322.776 146.203C330.736 133.238 327.751 53.2794 325.761 26.266C324.69 11.7278 309.838 5.19571 302.871 3.03482C289.548 -1.09779 53.2799 -1.26366 22.2229 4.11573C8.32787 6.52168 3.29087 17.8712 2.29087 24.1796C-0.0421274 38.8847 -1.42113 129.331 2.31887 141.514C5.30487 151.239 12.7689 159.343 23.2189 161.504Z" fill="white"/>
</mask>
<g mask="url(#mask0_5567_157435)">
<path d="M21.228 156.444H22.708C22.708 150.105 22.708 147.972 22.858 111.097C23.128 44.2599 23.638 40.1851 23.638 40.1851L20.118 71.0432C17.868 105.212 20.748 125.576 21.228 156.444Z" fill="#BBF0D3"/>
<mask id="mask1_5567_157435" style="mask-type:alpha" maskUnits="userSpaceOnUse" x="-2" y="152" width="45" height="25">
<path fill-rule="evenodd" clip-rule="evenodd" d="M-1.02148 152.953H42.7785V176.436H-1.02148V152.953Z" fill="white"/>
</mask>
<g mask="url(#mask1_5567_157435)">
<path d="M26.4285 176.436H11.3275C1.71852 176.436 1.15752 169.644 -0.821484 160.458C-1.29248 158.024 -1.97848 155.636 -2.87148 153.325L-3.02148 152.953H40.7785L40.6285 153.325C39.7565 155.639 39.0875 158.027 38.6285 160.458C36.6085 169.644 36.0375 176.436 26.4285 176.436Z" fill="#84D7CC"/>
</g>
<path d="M41.8485 155.186H-4.08155C-5.09855 155.194 -5.95955 154.432 -6.08155 153.416L-6.96255 146.705C-7.12255 145.606 -6.36555 144.583 -5.27255 144.422C-5.17055 144.407 -5.06555 144.4 -4.96255 144.4H42.7285C43.8325 144.39 44.7385 145.28 44.7495 146.392C44.7505 146.496 44.7435 146.601 44.7285 146.705L43.8485 153.416C43.7265 154.432 42.8665 155.194 41.8485 155.186Z" fill="#47A99C"/>
<path d="M19.948 94.446C28.589 79.2936 6.17803 73.8705 -1.05197 60.3682C-9.77197 71.0332 9.81803 112.194 19.948 94.446Z" fill="#BBF0D3"/>
<path d="M21.6082 77.3217C18.2782 69.6852 34.3282 60.4177 37.7882 48.002C44.2282 55.1757 31.4782 99.9296 21.6082 77.3217Z" fill="#BBF0D3"/>
<path d="M22.4785 55.9915C24.6285 38.3841 13.2285 39.8933 8.47849 29.3691C1.39849 36.895 20.8085 69.5844 22.4785 55.9915Z" fill="#BBF0D3"/>
<mask id="mask2_5567_157435" style="mask-type:alpha" maskUnits="userSpaceOnUse" x="21" y="25" width="11" height="30">
<path fill-rule="evenodd" clip-rule="evenodd" d="M21.2822 25.1533H31.8449V54.2426H21.2822V25.1533Z" fill="white"/>
</mask>
<g mask="url(#mask2_5567_157435)">
<path d="M21.828 49.6935C18.919 36.2807 28.648 38.3845 27.379 25.1528C38.719 35.1749 25.299 65.681 21.828 49.6935Z" fill="#BBF0D3"/>
</g>
<mask id="mask3_5567_157435" style="mask-type:alpha" maskUnits="userSpaceOnUse" x="20" y="83" width="29" height="34">
<path fill-rule="evenodd" clip-rule="evenodd" d="M20.5801 83.6392H48.7889V116.585H20.5801V83.6392Z" fill="white"/>
</mask>
<g mask="url(#mask3_5567_157435)">
<path d="M21.4879 104.407C24.1979 94.7781 39.7379 101.72 47.6689 83.6392C56.0979 109.175 13.9479 131.13 21.4879 104.407Z" fill="#BBF0D3"/>
</g>
<mask id="mask4_5567_157435" style="mask-type:alpha" maskUnits="userSpaceOnUse" x="-6" y="100" width="29" height="27">
<path fill-rule="evenodd" clip-rule="evenodd" d="M-6 100.11H22.2343V126.846H-6V100.11Z" fill="white"/>
</mask>
<g mask="url(#mask4_5567_157435)">
<path d="M22.2282 117.437C21.9982 108.28 12.1782 116.43 -5.77177 100.11C-8.98177 116.922 22.7382 140.053 22.2282 117.437Z" fill="#BBF0D3"/>
</g>
<path d="M57.0967 194.086L56.0843 193.997C56.4859 189.407 56.6211 187.862 58.8548 161.149C62.9048 112.729 62.8142 109.748 62.8142 109.748L63.2669 132.306C62.6411 157.185 59.3808 171.76 57.0967 194.086Z" fill="#E5EFAC"/>
<path d="M61.8009 148.854C56.6029 137.259 72.9391 134.701 78.9596 125.3C84.5004 133.626 67.8956 162.437 61.8009 148.854Z" fill="#E5EFAC"/>
<path d="M61.178 136.257C64.0133 130.878 53.2949 123.113 51.6507 113.821C46.6532 118.669 52.7758 152.179 61.178 136.257Z" fill="#E5EFAC"/>
<path d="M61.9996 121.385C61.5107 108.255 70.0305 110.122 74.3002 102.673C79.1663 108.693 62.3847 131.522 61.9996 121.385Z" fill="#E5EFAC"/>
<mask id="mask5_5567_157435" style="mask-type:alpha" maskUnits="userSpaceOnUse" x="55" y="97" width="10" height="23">
<path fill-rule="evenodd" clip-rule="evenodd" d="M64.6172 98.2598L56.9645 97.5902L55.1053 118.841L62.758 119.511L64.6172 98.2598Z" fill="white"/>
</mask>
<g mask="url(#mask5_5567_157435)">
<path d="M62.6533 116.153C65.6182 106.538 58.435 107.459 60.2001 97.8728C51.3436 104.476 59.1167 127.612 62.6533 116.153Z" fill="#E5EFAC"/>
</g>
<mask id="mask6_5567_157435" style="mask-type:alpha" maskUnits="userSpaceOnUse" x="39" y="139" width="23" height="27">
<path fill-rule="evenodd" clip-rule="evenodd" d="M61.6201 141.524L41.2707 139.744L39.1594 163.877L59.5087 165.657L61.6201 141.524Z" fill="white"/>
</mask>
<g mask="url(#mask6_5567_157435)">
<path d="M59.6343 156.679C58.2964 149.455 46.6412 153.559 42.0787 139.814C34.3617 157.987 63.361 176.729 59.6343 156.679Z" fill="#E5EFAC"/>
</g>
<mask id="mask7_5567_157435" style="mask-type:alpha" maskUnits="userSpaceOnUse" x="57" y="152" width="23" height="23">
<path fill-rule="evenodd" clip-rule="evenodd" d="M79.9546 154.781L59.5869 152.999L57.8608 172.728L78.2285 174.51L79.9546 154.781Z" fill="white"/>
</mask>
<g mask="url(#mask7_5567_157435)">
<path d="M58.4726 165.785C59.2297 159.042 65.7875 165.677 79.7899 154.766C81.0202 167.375 56.6446 182.442 58.4726 165.785Z" fill="#E5EFAC"/>
</g>
<path d="M289.313 176.581H310.482V117.079H289.313V176.581Z" fill="#BBF0D3"/>
<path d="M310.482 120.965L289.314 124.851V117.079H310.482V120.965Z" fill="#84D7CC"/>
<path d="M253.049 108.817C250.782 108.817 248.943 110.668 248.943 112.947C248.943 115.228 250.782 117.079 253.049 117.079H346.759C349.026 117.079 350.864 115.228 350.864 112.947C350.864 110.668 349.026 108.817 346.759 108.817H253.049Z" fill="#BBF0D3"/>
<path d="M268.083 97.595L267 96.5889L271.91 96.9664L272 97.595H268.083Z" fill="#EAFFF2"/>
<path d="M315.909 109.669H298.091C295.279 109.669 293 107.416 293 104.638H321C321 107.416 318.721 109.669 315.909 109.669Z" fill="#B3EC91"/>
<path d="M121.436 29.2356L131.401 138.061C132.03 144.91 138.083 149.954 144.924 149.325L191.865 145.017C198.713 144.39 203.758 138.32 203.13 131.466L193.166 22.656C192.523 15.8142 187.316 10.6953 181.534 11.2263L130.749 15.8841L130.672 15.8917C124.928 16.4686 120.798 22.4244 121.436 29.2356Z" fill="#252528"/>
<mask id="mask8_5567_157435" style="mask-type:alpha" maskUnits="userSpaceOnUse" x="124" y="10" width="83" height="140">
<path fill-rule="evenodd" clip-rule="evenodd" d="M124.951 10.9126H206.789V149.439H124.951V10.9126Z" fill="white"/>
</mask>
<g mask="url(#mask8_5567_157435)">
<path d="M125.017 28.9892L135.01 138.09C135.64 144.957 141.693 150.015 148.535 149.386L195.477 145.079C202.325 144.452 207.366 138.368 206.736 131.497L196.746 22.4117C196.103 15.5524 190.894 10.4193 185.111 10.9503L134.326 15.607C134.3 15.6092 134.275 15.6114 134.249 15.6147C128.506 16.1916 124.376 22.1604 125.017 28.9892Z" fill="#58585B"/>
</g>
<path d="M129.791 31.2155L139.383 135.326C139.869 140.602 144.522 144.489 149.779 144.005L193.381 140.012C198.649 139.527 202.526 134.846 202.041 129.563L192.451 25.475C192.005 20.7145 188.583 17.1362 184.806 17.4804L176.636 18.231C175.589 18.3261 174.656 18.2583 174.523 19.5618L174.374 21.0139C174.244 22.3184 173.415 23.3007 172.366 23.3979L149.137 25.5263C148.089 25.6225 147.092 24.8063 146.719 23.5476L146.305 22.148C145.969 21.0117 145.207 21.0925 144.29 21.1898C144.192 21.2018 144.094 21.2116 143.993 21.2204L135.824 21.9666C135.808 21.9677 135.791 21.9699 135.776 21.9721C132.024 22.3479 129.349 26.4758 129.791 31.2155Z" fill="#84D7CC"/>
<mask id="mask9_5567_157435" style="mask-type:alpha" maskUnits="userSpaceOnUse" x="129" y="17" width="74" height="128">
<path fill-rule="evenodd" clip-rule="evenodd" d="M129.791 31.2155L139.383 135.326C139.869 140.602 144.522 144.489 149.779 144.005L193.381 140.012C198.649 139.527 202.526 134.846 202.041 129.563L192.451 25.475C192.005 20.7145 188.583 17.1362 184.806 17.4804L176.636 18.231C175.589 18.3261 174.656 18.2583 174.523 19.5618L174.374 21.0139C174.244 22.3184 173.415 23.3007 172.366 23.3979L149.137 25.5263C148.089 25.6225 147.092 24.8063 146.719 23.5476L146.305 22.148C145.969 21.0117 145.207 21.0925 144.29 21.1898C144.192 21.2018 144.094 21.2116 143.993 21.2204L135.824 21.9666C135.808 21.9677 135.791 21.9699 135.776 21.9721C132.024 22.3479 129.349 26.4758 129.791 31.2155Z" fill="white"/>
</mask>
<g mask="url(#mask9_5567_157435)">
<path d="M129.952 28.1396C129.757 29.111 129.691 30.1457 129.792 31.2153L139.382 135.326C139.869 140.602 144.523 144.488 149.78 144.004L192.297 140.11C142.072 138.303 131.016 39.0503 129.952 28.1396Z" fill="#BBF0D3"/>
</g>
<mask id="mask10_5567_157435" style="mask-type:alpha" maskUnits="userSpaceOnUse" x="129" y="17" width="74" height="128">
<path fill-rule="evenodd" clip-rule="evenodd" d="M129.791 31.2155L139.383 135.326C139.869 140.602 144.522 144.489 149.779 144.005L193.381 140.012C198.649 139.527 202.526 134.846 202.041 129.563L192.451 25.475C192.005 20.7145 188.583 17.1362 184.806 17.4804L176.636 18.231C175.589 18.3261 174.656 18.2583 174.523 19.5618L174.374 21.0139C174.244 22.3184 173.415 23.3007 172.366 23.3979L149.137 25.5263C148.089 25.6225 147.092 24.8063 146.719 23.5476L146.305 22.148C145.969 21.0117 145.207 21.0925 144.29 21.1898C144.192 21.2018 144.094 21.2116 143.993 21.2204L135.824 21.9666C135.808 21.9677 135.791 21.9699 135.776 21.9721C132.024 22.3479 129.349 26.4758 129.791 31.2155Z" fill="white"/>
</mask>
<g mask="url(#mask10_5567_157435)">
<path fill-rule="evenodd" clip-rule="evenodd" d="M174.357 59.2605C177.274 59.4928 179.699 61.6104 181.407 63.9856C183.116 66.3627 184.298 69.0591 186.087 71.3752C187.42 73.0902 189.109 74.6392 189.775 76.7196C190.839 80.0093 189.054 83.8377 190.526 86.9692C191.359 88.7409 193.095 89.938 193.967 91.6887C195.056 93.8805 194.592 96.4937 193.956 98.8517C193.519 100.483 192.945 102.195 191.624 103.267C190.54 104.034 189.283 104.521 187.964 104.686C178.064 106.581 162.293 108.55 153.083 104.433" fill="#6B4122"/>
<path d="M182.231 73.6055C182.231 73.6055 186.873 77.5362 186.313 88.0005C186.313 88.0005 191.337 99.2157 185.97 102.627" stroke="#633219" stroke-linecap="round" stroke-linejoin="round"/>
<path fill-rule="evenodd" clip-rule="evenodd" d="M161.867 59.218C155.98 57.5859 149.785 63.2701 148.882 67.6131C147.306 75.1465 148.271 76.1777 146.617 79.7251C145.526 82.0232 142.366 84.1818 140.998 86.5833C139.519 89.111 139.211 93.5556 139.907 96.4234C140.238 97.8152 141.238 100.649 142.031 102.817C142.67 104.562 144.276 105.727 146.082 105.751C149.094 105.79 153.703 105.746 156.613 105.217C157.802 105.059 158.937 104.613 159.925 103.913C160.84 103.18 159.259 100.244 159.516 99.096C160.22 95.7532 162.813 93.9915 162.349 90.6064C161.741 86.1093 158.372 85.6195 158.768 81.0949C158.94 78.6964 162.701 75.5125 163.184 73.1584C163.668 70.8032 165.606 62.6167 161.866 59.2369" fill="#7E4D23"/>
<path fill-rule="evenodd" clip-rule="evenodd" d="M176.784 98.8591C176.784 98.8591 175.233 108.586 176.576 112.252L161.186 112.112C161.186 112.112 159.986 95.9421 158.508 94.0557L176.784 98.8591Z" fill="#FFB08C"/>
<path fill-rule="evenodd" clip-rule="evenodd" d="M152.532 82.8096C152.532 82.8096 151.546 81.9972 150.653 83.0534C149.761 84.1096 148.761 89.209 154.198 90.4381L152.532 82.8096Z" fill="#FFB08C"/>
<path fill-rule="evenodd" clip-rule="evenodd" d="M183.063 80.8846C183.063 80.8846 183.959 79.9736 184.957 80.9307C185.955 81.8878 187.482 86.8547 182.203 88.6455L183.063 80.8846Z" fill="#FFB08C"/>
<path fill-rule="evenodd" clip-rule="evenodd" d="M182.845 79.3486C183.388 89.7065 180.525 102.979 168.924 103.587C157.703 104.175 152.431 91.3289 151.888 80.971C151.345 70.6131 157.836 61.8521 166.384 61.4041C174.932 60.9561 182.302 68.9907 182.845 79.3486Z" fill="#FFD7B5"/>
<mask id="mask11_5567_157435" style="mask-type:alpha" maskUnits="userSpaceOnUse" x="154" y="54" width="30" height="25">
<path fill-rule="evenodd" clip-rule="evenodd" d="M154.153 55.6543L182.774 54.1543L183.969 76.9587L155.348 78.4586L154.153 55.6543Z" fill="white"/>
</mask>
<g mask="url(#mask11_5567_157435)">
<path d="M182.746 76.0702C180.643 78.6532 175.417 76.0895 172.327 73.743C168.416 75.6501 155.997 70.7447 155.008 67.6457C154.021 64.5456 155.335 60.6499 157.591 58.3817C159.845 56.2766 162.718 55.0968 165.688 55.0589C172.7 54.6031 179.237 58.6477 182.325 65.3499C183.738 68.5507 184.268 72.663 182.75 76.0395" fill="#7E4D23"/>
</g>
<path d="M154.929 64.1279C154.929 64.1279 150.871 73.998 147.113 87.1048C143.317 100.343 148.04 104.79 148.04 104.79" stroke="#6B4122" stroke-linecap="round" stroke-linejoin="round"/>
<path d="M158.684 60.8638C158.684 60.8638 169.325 58.1298 173.29 72.068" stroke="#6B4122" stroke-linecap="round" stroke-linejoin="round"/>
<path d="M168.466 57.6812C168.466 57.6812 183.929 58.4797 180.813 77.1844" stroke="#6B4122" stroke-linecap="round" stroke-linejoin="round"/>
<mask id="mask12_5567_157435" style="mask-type:alpha" maskUnits="userSpaceOnUse" x="129" y="114" width="25" height="39">
<path fill-rule="evenodd" clip-rule="evenodd" d="M135.973 114.12L153.613 117.549L146.818 152.505L129.178 149.076L135.973 114.12Z" fill="white"/>
</mask>
<g mask="url(#mask12_5567_157435)">
<path d="M141.416 118.122C138.129 119.962 131.723 141.423 131.723 141.423L143.441 151.905C144.978 151.908 145.196 150.75 145.658 149.501C147.917 143.371 150.423 136.253 152.023 130.85C153.049 127.005 153.164 122.973 152.362 119.082C147.863 115.188 145.219 115.991 141.416 118.122Z" fill="#00AB4E"/>
</g>
<mask id="mask13_5567_157435" style="mask-type:alpha" maskUnits="userSpaceOnUse" x="179" y="111" width="29" height="40">
<path fill-rule="evenodd" clip-rule="evenodd" d="M179.48 116.923L196.666 111.669L207.048 145.628L189.863 150.882L179.48 116.923Z" fill="white"/>
</mask>
<g mask="url(#mask13_5567_157435)">
<path d="M186.691 114.785C184.185 115.705 182.643 118.268 182.729 120.958C182.821 123.798 183.386 126.612 184.407 129.281C186.564 134.488 189.8 141.305 192.687 147.165C193.276 148.359 193.615 149.488 195.144 149.325L205.702 137.675C205.702 137.675 196.755 116.49 193.626 115.514C190.923 114.672 188.896 113.976 186.691 114.785Z" fill="#00AB4E"/>
</g>
<mask id="mask14_5567_157435" style="mask-type:alpha" maskUnits="userSpaceOnUse" x="142" y="108" width="55" height="74">
<path fill-rule="evenodd" clip-rule="evenodd" d="M142.482 111.028L192.569 108.403L196.255 178.746L146.169 181.371L142.482 111.028Z" fill="white"/>
</mask>
<g mask="url(#mask14_5567_157435)">
<path d="M161.152 109.576C163.133 110.1 167.271 110.405 175.854 109.097C177.238 108.887 178.509 109.918 178.583 111.331C178.6 111.653 178.829 111.923 179.142 111.99L190.687 114.457C192.938 114.938 194.431 117.101 194.101 119.398L185.447 179.388C185.397 179.732 185.11 179.989 184.766 179.998L148.977 180.84C148.604 180.848 148.289 180.562 148.257 180.187L143.221 121.353C143.002 118.791 144.584 116.423 147.021 115.671L159.005 111.969C159.315 111.874 159.52 111.578 159.502 111.251L159.486 110.932C159.438 110.022 160.279 109.345 161.152 109.576Z" fill="#28D677"/>
</g>
</g>
<mask id="mask15_5567_157435" style="mask-type:alpha" maskUnits="userSpaceOnUse" x="129" y="17" width="74" height="128">
<path fill-rule="evenodd" clip-rule="evenodd" d="M129.791 31.2155L139.383 135.326C139.869 140.602 144.522 144.489 149.779 144.005L193.381 140.012C198.649 139.527 202.526 134.846 202.041 129.563L192.451 25.475C192.005 20.7145 188.583 17.1362 184.806 17.4804L176.636 18.231C175.589 18.3261 174.656 18.2583 174.523 19.5618L174.374 21.0139C174.244 22.3184 173.415 23.3007 172.366 23.3979L149.137 25.5263C148.089 25.6225 147.092 24.8063 146.719 23.5476L146.305 22.148C145.969 21.0117 145.207 21.0925 144.29 21.1898C144.192 21.2018 144.094 21.2116 143.993 21.2204L135.824 21.9666C135.808 21.9677 135.791 21.9699 135.776 21.9721C132.024 22.3479 129.349 26.4758 129.791 31.2155Z" fill="white"/>
</mask>
<g mask="url(#mask15_5567_157435)">
<path d="M198.133 48.0947L199.623 47.957C200.093 47.9122 200.439 47.4938 200.394 47.0239L199.427 36.5601C199.384 36.0881 198.97 35.7418 198.5 35.7855L197.006 35.9253L198.133 48.0947Z" fill="#3392E2"/>
</g>
<mask id="mask16_5567_157435" style="mask-type:alpha" maskUnits="userSpaceOnUse" x="129" y="17" width="74" height="128">
<path fill-rule="evenodd" clip-rule="evenodd" d="M129.791 31.2155L139.383 135.326C139.869 140.602 144.522 144.489 149.779 144.005L193.381 140.012C198.649 139.527 202.526 134.846 202.041 129.563L192.451 25.475C192.005 20.7145 188.583 17.1362 184.806 17.4804L176.636 18.231C175.589 18.3261 174.656 18.2583 174.523 19.5618L174.374 21.0139C174.244 22.3184 173.415 23.3007 172.366 23.3979L149.137 25.5263C148.089 25.6225 147.092 24.8063 146.719 23.5476L146.305 22.148C145.969 21.0117 145.207 21.0925 144.29 21.1898C144.192 21.2018 144.094 21.2116 143.993 21.2204L135.824 21.9666C135.808 21.9677 135.791 21.9699 135.776 21.9721C132.024 22.3479 129.349 26.4758 129.791 31.2155Z" fill="white"/>
</mask>
<g mask="url(#mask16_5567_157435)">
<path d="M152.171 19.3776L152.193 19.5917C152.248 20.1948 152.783 20.6395 153.384 20.5838L163.261 19.6649C163.861 19.6081 164.304 19.0738 164.248 18.4685L164.227 18.2544C164.171 17.6502 163.638 17.2055 163.036 17.2634L153.16 18.1801C153.159 18.1801 153.154 18.1801 153.153 18.1812C152.557 18.2402 152.118 18.7733 152.171 19.3776Z" fill="#1868A7"/>
</g>
<mask id="mask17_5567_157435" style="mask-type:alpha" maskUnits="userSpaceOnUse" x="129" y="17" width="74" height="128">
<path fill-rule="evenodd" clip-rule="evenodd" d="M129.791 31.2155L139.383 135.326C139.869 140.602 144.522 144.489 149.779 144.005L193.381 140.012C198.649 139.527 202.526 134.846 202.041 129.563L192.451 25.475C192.005 20.7145 188.583 17.1362 184.806 17.4804L176.636 18.231C175.589 18.3261 174.656 18.2583 174.523 19.5618L174.374 21.0139C174.244 22.3184 173.415 23.3007 172.366 23.3979L149.137 25.5263C148.089 25.6225 147.092 24.8063 146.719 23.5476L146.305 22.148C145.969 21.0117 145.207 21.0925 144.29 21.1898C144.192 21.2018 144.094 21.2116 143.993 21.2204L135.824 21.9666C135.808 21.9677 135.791 21.9699 135.776 21.9721C132.024 22.3479 129.349 26.4758 129.791 31.2155Z" fill="white"/>
</mask>
<g mask="url(#mask17_5567_157435)">
<path d="M166.619 18.0162C166.698 18.8685 167.453 19.4967 168.302 19.417C169.153 19.3372 169.777 18.5822 169.697 17.7289C169.621 16.8767 168.866 16.2484 168.014 16.3293C168.01 16.3271 168.007 16.3282 168.004 16.3282C167.16 16.4145 166.542 17.1662 166.619 18.0162Z" fill="#1868A7"/>
</g>
<path d="M215.495 118.054C217.659 119.732 218.986 122.284 219.132 125.035L220.768 155.815C220.984 159.86 222.006 163.817 223.776 167.452L228.917 179.146L197.532 187.598L191.903 176.96C188.727 173.83 186.066 170.206 184.018 166.23L176.162 150.966C175.237 149.171 174.09 147.503 172.746 146.002L158.847 130.488C157.587 129.081 156.985 127.196 157.189 125.312C157.541 122.109 160.122 119.622 163.311 119.418L163.813 119.389C165.39 119.288 166.947 119.766 168.203 120.73L184.392 133.165C185.493 134.012 186.7 134.706 187.978 135.231L198.493 139.753C200.911 140.792 203.708 139.657 204.737 137.215C204.803 137.057 204.863 136.895 204.912 136.731L206.739 130.669L204.629 109.397L215.495 118.054Z" fill="#FFDAB8"/>
<path d="M188.519 165.601C191.011 167.417 193.219 169.593 194.875 172.206C197.263 175.977 200.211 180.549 201.103 181.594C202.683 183.443 219.047 180.415 225.43 174.59C225.43 174.59 222.704 181.305 211.734 184.444C200.237 187.732 194.752 184.18 194.752 184.18L188.57 172.373C188.57 172.373 182.915 168.614 172.52 145.254C172.52 145.254 182.111 160.925 188.519 165.601Z" fill="#FFB08C"/>
<path d="M177.321 56.6087L187.384 55.7798L188.206 65.9389" stroke="white" stroke-width="0.5" stroke-linecap="round" stroke-linejoin="round"/>
<path d="M157.603 101.556L147.539 102.385L146.718 92.2261" stroke="white" stroke-width="0.5" stroke-linecap="round" stroke-linejoin="round"/>
<path d="M190.406 88.688L191.229 98.8471L181.163 99.676" stroke="white" stroke-width="0.5" stroke-linecap="round" stroke-linejoin="round"/>
<path d="M143.717 69.8762L142.895 59.7171L152.96 58.8882" stroke="white" stroke-width="0.5" stroke-linecap="round" stroke-linejoin="round"/>
</g>
<path d="M192.333 39.6371L190.586 42.849L187.395 44.6049C186.868 44.8955 186.868 45.6566 187.395 45.9472L190.586 47.7031L192.333 50.915C192.62 51.4455 193.378 51.4455 193.666 50.915L195.412 47.7031L198.605 45.9472C199.132 45.6566 199.132 44.8955 198.605 44.6049L195.412 42.849L193.666 39.6371C193.378 39.1066 192.62 39.1066 192.333 39.6371Z" fill="#FFC54F"/>
<path d="M107.166 88.031L104.983 92.0459L100.994 94.2408C100.335 94.604 100.335 95.5554 100.994 95.9186L104.983 98.1135L107.166 102.128C107.525 102.791 108.473 102.791 108.832 102.128L111.015 98.1135L115.006 95.9186C115.665 95.5554 115.665 94.604 115.006 94.2408L111.015 92.0459L108.832 88.031C108.473 87.3679 107.525 87.3679 107.166 88.031Z" fill="#FFD37B"/>
<path d="M229.555 119.995L228.391 122.137L226.264 123.307C225.912 123.501 225.912 124.008 226.264 124.202L228.391 125.373L229.555 127.514C229.747 127.867 230.252 127.867 230.444 127.514L231.608 125.373L233.736 124.202C234.088 124.008 234.088 123.501 233.736 123.307L231.608 122.137L230.444 119.995C230.252 119.642 229.747 119.642 229.555 119.995Z" fill="#FFD37B"/>
</svg>
