<svg width="328" height="164" viewBox="0 0 328 164" fill="none" xmlns="http://www.w3.org/2000/svg">
<path fill-rule="evenodd" clip-rule="evenodd" d="M23.2189 161.504C33.6809 163.667 265.053 165.826 301.876 161.504C312.777 160.224 321.503 148.276 322.776 146.203C330.736 133.238 327.751 53.2794 325.761 26.266C324.69 11.7278 309.838 5.19571 302.871 3.03482C289.548 -1.09779 53.2799 -1.26366 22.2229 4.11573C8.32787 6.52168 3.29087 17.8712 2.29087 24.1796C-0.0421274 38.8847 -1.42113 129.331 2.31887 141.514C5.30487 151.239 12.7689 159.343 23.2189 161.504Z" fill="#EDFFF5"/>
<mask id="mask0_5567_156981" style="mask-type:alpha" maskUnits="userSpaceOnUse" x="0" y="0" width="328" height="164">
<path fill-rule="evenodd" clip-rule="evenodd" d="M23.2189 161.504C33.6809 163.667 265.053 165.826 301.876 161.504C312.777 160.224 321.503 148.276 322.776 146.203C330.736 133.238 327.751 53.2794 325.761 26.266C324.69 11.7278 309.838 5.19571 302.871 3.03482C289.548 -1.09779 53.2799 -1.26366 22.2229 4.11573C8.32787 6.52168 3.29087 17.8712 2.29087 24.1796C-0.0421274 38.8847 -1.42113 129.331 2.31887 141.514C5.30487 151.239 12.7689 159.343 23.2189 161.504Z" fill="white"/>
</mask>
<g mask="url(#mask0_5567_156981)">
<ellipse cx="169" cy="150.5" rx="199" ry="68.5" fill="#BBF0D3"/>
<mask id="mask1_5567_156981" style="mask-type:alpha" maskUnits="userSpaceOnUse" x="130" y="31" width="64" height="102">
<path fill-rule="evenodd" clip-rule="evenodd" d="M174.306 31.5346L137.434 36.2348C137.417 36.2373 137.398 36.2398 137.379 36.2429C133.21 36.8105 130.36 41.2207 131.008 46.1229L141.175 124.463C141.742 128.824 145.366 132.054 149.633 132.301L149.709 132.306C150.241 132.332 150.781 132.312 151.327 132.243L185.409 127.896C189.796 127.337 193.047 123.754 193.31 119.528L193.318 119.375C193.341 118.861 193.32 118.339 193.252 117.812L183.084 39.4843C182.477 34.8882 179.016 31.481 175.144 31.481C174.866 31.481 174.586 31.4984 174.306 31.5346Z" fill="white"/>
</mask>
<g mask="url(#mask1_5567_156981)">
<path fill-rule="evenodd" clip-rule="evenodd" d="M127.83 24.8105L202.29 28.786L196.41 138.934L121.95 134.958L127.83 24.8105Z" fill="#252528"/>
</g>
<mask id="mask2_5567_156981" style="mask-type:alpha" maskUnits="userSpaceOnUse" x="133" y="31" width="63" height="102">
<path fill-rule="evenodd" clip-rule="evenodd" d="M176.608 31.4374L139.891 36.152C139.872 36.1545 139.853 36.1582 139.836 36.1601C135.684 36.7301 132.847 41.1553 133.491 46.0757L143.621 124.699C144.259 129.647 148.784 133.144 153.73 132.507L187.669 128.147C192.62 127.511 196.117 122.979 195.479 118.027L185.351 39.4152C184.746 34.8035 181.296 31.3844 177.441 31.3838C177.164 31.3838 176.887 31.4013 176.608 31.4374Z" fill="white"/>
</mask>
<g mask="url(#mask2_5567_156981)">
<path fill-rule="evenodd" clip-rule="evenodd" d="M130.316 24.7236L204.534 28.686L198.634 139.189L124.416 135.226L130.316 24.7236Z" fill="#58585B"/>
</g>
<mask id="mask3_5567_156981" style="mask-type:alpha" maskUnits="userSpaceOnUse" x="137" y="36" width="56" height="94">
<path fill-rule="evenodd" clip-rule="evenodd" d="M176.879 36.3729L170.996 37.1388C170.242 37.2367 169.565 37.213 169.502 38.1642L169.433 39.2226C169.373 40.175 168.8 40.9116 168.044 41.0101L151.314 43.1862C150.559 43.2835 149.818 42.7178 149.517 41.8134L149.181 40.8074C148.908 39.9891 148.36 40.0689 147.7 40.165C147.63 40.1756 147.559 40.1862 147.486 40.1949L141.602 40.9583C141.592 40.9602 141.579 40.9621 141.568 40.9633C138.866 41.3388 137.041 44.4111 137.484 47.8452L147.115 123.265C147.604 127.088 151.066 129.787 154.853 129.293L186.254 125.211C190.048 124.716 192.728 121.209 192.241 117.381L182.611 41.9768C182.194 38.7455 179.914 36.3398 177.391 36.3398C177.221 36.3398 177.051 36.3504 176.879 36.3729Z" fill="white"/>
</mask>
<g mask="url(#mask3_5567_156981)">
<path fill-rule="evenodd" clip-rule="evenodd" d="M134.175 29.8921L200.972 33.4584L195.512 135.715L128.715 132.149L134.175 29.8921Z" fill="white"/>
</g>
<path fill-rule="evenodd" clip-rule="evenodd" d="M162.886 66.1096C162.154 66.1964 161.632 66.86 161.719 67.5911C161.806 68.3223 162.469 68.8451 163.2 68.7583C163.931 68.6715 164.454 68.0086 164.367 67.2768C164.28 66.5457 163.617 66.0228 162.886 66.1096Z" fill="#FFC54F"/>
<path fill-rule="evenodd" clip-rule="evenodd" d="M149.106 74.4602C148.374 74.547 147.852 75.21 147.939 75.9417C148.026 76.6729 148.689 77.1957 149.42 77.1089C150.152 77.0221 150.674 76.3586 150.587 75.6274C150.501 74.8962 149.838 74.3734 149.106 74.4602Z" fill="#FFC54F"/>
<path fill-rule="evenodd" clip-rule="evenodd" d="M178.236 71.0027C177.505 71.0895 176.983 71.7531 177.069 72.4842C177.156 73.216 177.82 73.7382 178.551 73.6514C179.282 73.5646 179.804 72.9016 179.718 72.1699C179.631 71.4387 178.968 70.9159 178.236 71.0027Z" fill="#FFC54F"/>
<path fill-rule="evenodd" clip-rule="evenodd" d="M177.506 87.2056L153.607 90.0423L149.643 78.7166C149.399 78.0216 149.766 77.2604 150.461 77.0172C150.804 76.8972 151.181 76.9222 151.505 77.0867L158.732 80.7571L162.26 70.9553C162.509 70.2624 163.273 69.9028 163.966 70.1522C164.237 70.2502 164.47 70.433 164.628 70.6739L170.351 79.378L176.519 74.1183C177.079 73.6404 177.921 73.7069 178.399 74.2676C178.635 74.5442 178.747 74.9053 178.71 75.2666L177.506 87.2056Z" fill="#FFC54F"/>
<path fill-rule="evenodd" clip-rule="evenodd" d="M177.631 88.5336L177.946 91.1823C178.033 91.9141 177.51 92.5777 176.779 92.6645L155.593 95.1785C154.861 95.2654 154.198 94.7431 154.112 94.0113L153.797 91.3626L177.631 88.5336Z" fill="#FFC54F"/>
<mask id="mask4_5567_156981" style="mask-type:alpha" maskUnits="userSpaceOnUse" x="186" y="49" width="3" height="10">
<path fill-rule="evenodd" clip-rule="evenodd" d="M187.181 49.2721L186.06 49.4143L187.251 58.3619L188.37 58.2216C188.722 58.1754 188.971 57.8573 188.925 57.513L187.902 49.8191C187.859 49.4997 187.583 49.2671 187.263 49.2671C187.236 49.2671 187.208 49.2683 187.181 49.2721Z" fill="white"/>
</mask>
<g mask="url(#mask4_5567_156981)">
</g>
<mask id="mask5_5567_156981" style="mask-type:alpha" maskUnits="userSpaceOnUse" x="152" y="36" width="10" height="4">
<path fill-rule="evenodd" clip-rule="evenodd" d="M160.94 36.2972L153.48 37.3144C153.479 37.3144 153.475 37.315 153.474 37.3157C153.024 37.3799 152.705 37.8103 152.761 38.2818L152.783 38.4496C152.841 38.9198 153.258 39.2523 153.712 39.1905L161.173 38.1714C161.625 38.109 161.947 37.6762 161.889 37.2047L161.867 37.0381C161.814 36.6053 161.461 36.2891 161.052 36.2891C161.015 36.2891 160.977 36.2922 160.94 36.2972Z" fill="white"/>
</mask>
<g mask="url(#mask5_5567_156981)">
<path fill-rule="evenodd" clip-rule="evenodd" d="M148.975 31.5088L166.292 32.4331L165.676 43.9784L148.358 43.0541L148.975 31.5088Z" fill="#252528"/>
</g>
<mask id="mask6_5567_156981" style="mask-type:alpha" maskUnits="userSpaceOnUse" x="163" y="35" width="4" height="4">
<path fill-rule="evenodd" clip-rule="evenodd" d="M164.652 35.6747C164.649 35.6734 164.647 35.674 164.645 35.6747C163.971 35.7688 163.497 36.3863 163.585 37.0618C163.673 37.7416 164.294 38.22 164.972 38.1302C165.652 38.0429 166.129 37.4216 166.041 36.7431C165.961 36.1187 165.428 35.6641 164.815 35.6641C164.761 35.6641 164.707 35.6672 164.652 35.6747Z" fill="white"/>
</mask>
<g mask="url(#mask6_5567_156981)">
<path fill-rule="evenodd" clip-rule="evenodd" d="M159.739 31.2563L170.459 31.8289L169.887 42.5491L159.166 41.9765L159.739 31.2563Z" fill="#252528"/>
</g>
<mask id="mask7_5567_156981" style="mask-type:alpha" maskUnits="userSpaceOnUse" x="137" y="45" width="50" height="85">
<path fill-rule="evenodd" clip-rule="evenodd" d="M137.393 48.0825L147.209 123.351C147.707 127.167 151.217 129.863 155.051 129.372L186.062 125.425C149.257 125.44 138.5 53.7339 137.428 45.8472C137.312 46.5569 137.291 47.3097 137.393 48.0825Z" fill="white"/>
</mask>
<g mask="url(#mask7_5567_156981)">
<path fill-rule="evenodd" clip-rule="evenodd" d="M133.48 41.501L194.504 44.7592L189.661 135.471L128.637 132.213L133.48 41.501Z" fill="#C3DFF8"/>
</g>
<mask id="mask8_5567_156981" style="mask-type:alpha" maskUnits="userSpaceOnUse" x="146" y="106" width="29" height="19">
<path fill-rule="evenodd" clip-rule="evenodd" d="M169.541 107.49C166.633 108.989 157.732 115.228 157.732 115.228L150.919 119.016L147.103 120.436L146.652 124.783L156.373 119.495L174.995 107.969C174.995 107.969 173.655 106.928 171.81 106.928C171.111 106.928 170.339 107.078 169.541 107.49Z" fill="white"/>
</mask>
<g mask="url(#mask8_5567_156981)">
<path fill-rule="evenodd" clip-rule="evenodd" d="M145.083 100.672L179.504 103.695L176.644 131.307L142.224 128.285L145.083 100.672Z" fill="#C3E0FF"/>
</g>
<path fill-rule="evenodd" clip-rule="evenodd" d="M129.109 105.75C127.246 107.146 126.085 109.289 125.931 111.612L124.205 137.615C123.978 141.033 123.062 144.367 121.514 147.42L117.002 157.25L143.693 164.735L148.61 155.803C151.354 153.191 153.664 150.157 155.453 146.817L162.321 133.998C163.128 132.491 164.126 131.093 165.289 129.839L177.315 116.875C178.405 115.699 178.939 114.112 178.785 112.517C178.519 109.805 176.343 107.675 173.624 107.469L173.197 107.437C171.852 107.336 170.517 107.722 169.437 108.524L155.488 118.861C154.539 119.565 153.503 120.139 152.406 120.569L143.385 124.277C141.31 125.13 140.416 117.923 140.416 117.923L137.921 98.5884L129.109 105.75Z" fill="#FFDAB8"/>
<path fill-rule="evenodd" clip-rule="evenodd" d="M151.619 146.236C149.474 147.744 147.566 149.56 146.125 151.752C144.046 154.912 141.483 158.746 140.71 159.619C139.342 161.166 125.411 158.429 120.026 153.435C120.026 153.435 122.28 159.142 131.608 161.915C141.384 164.819 146.102 161.875 146.102 161.875L151.504 151.96C151.504 151.96 156.371 148.844 165.49 129.208C165.49 129.208 157.137 142.352 151.619 146.236Z" fill="#FFB08C"/>
<path fill-rule="evenodd" clip-rule="evenodd" d="M110.374 160.95L113.671 151.89C114.197 150.444 115.796 149.698 117.241 150.224C117.279 150.239 117.317 150.254 117.354 150.269L153.361 165.19C155.226 165.962 156.133 168.082 155.402 169.964L152.339 177.86C151.652 179.63 149.659 180.509 147.888 179.822C147.87 179.815 147.852 179.808 147.834 179.8L112.307 165.31C110.596 164.612 109.742 162.687 110.374 160.95Z" fill="#00AB4E"/>
<mask id="mask9_5567_156981" style="mask-type:alpha" maskUnits="userSpaceOnUse" x="292" y="14" width="38" height="18">
<path fill-rule="evenodd" clip-rule="evenodd" d="M292.169 14.998H329.845V31.1301H292.169V14.998Z" fill="white"/>
</mask>
<g mask="url(#mask9_5567_156981)">
<path fill-rule="evenodd" clip-rule="evenodd" d="M317.346 14.998C311.636 14.998 306.82 18.8385 305.325 24.0719C304.341 23.7582 303.293 23.5947 302.201 23.5947C297.434 23.5947 293.425 26.7794 292.169 31.1301H305.402H312.218H329.306C329.65 29.9791 329.845 28.7516 329.845 27.4815C329.845 20.5887 324.254 14.998 317.346 14.998Z" fill="#BBF0D3"/>
</g>
<path fill-rule="evenodd" clip-rule="evenodd" d="M7.62379 32.8979C15.6752 32.8979 22.465 38.3137 24.5743 45.6923C25.9625 45.25 27.4386 45.0204 28.9798 45.0204C35.7026 45.0204 41.3537 49.5101 43.1246 55.645H24.4656H14.8549H-9.24162C-9.72546 54.0215 -9.99951 52.2903 -9.99951 50.5005C-9.99951 40.7802 -2.11632 32.8979 7.62379 32.8979Z" fill="#BBF0D3"/>
</g>
<circle cx="258.6" cy="47.3998" r="21.6" fill="#84D7CC"/>
<circle cx="258.6" cy="45.6" r="21.6" fill="white"/>
<circle cx="258.87" cy="46.05" r="15.3" fill="#47A99C"/>
<path fill-rule="evenodd" clip-rule="evenodd" d="M252.681 43.1644C252.681 46.5329 255.412 49.2636 258.78 49.2636C262.149 49.2636 264.879 46.5329 264.879 43.1644C264.879 39.7982 262.149 37.0679 258.78 37.0679C255.412 37.0679 252.681 39.7982 252.681 43.1644Z" fill="#BBF0D3"/>
<path fill-rule="evenodd" clip-rule="evenodd" d="M247.288 56.125C250.112 59.2642 254.218 61.2486 258.783 61.2486C263.349 61.2486 267.448 59.2642 270.271 56.125C267.737 52.5188 263.536 50.1636 258.783 50.1636C254.033 50.1636 249.821 52.5188 247.288 56.125Z" fill="#BBF0D3"/>
<path fill-rule="evenodd" clip-rule="evenodd" d="M292.753 124.732C292.753 138.128 281.894 148.987 268.498 148.987C255.102 148.987 244.243 138.128 244.243 124.732C244.243 111.336 255.102 100.477 268.498 100.477C281.894 100.477 292.753 111.336 292.753 124.732Z" fill="#84D7CC"/>
<path fill-rule="evenodd" clip-rule="evenodd" d="M292.258 123.247C292.258 136.369 281.621 147.007 268.498 147.007C255.376 147.007 244.738 136.369 244.738 123.247C244.738 110.125 255.376 99.4868 268.498 99.4868C281.621 99.4868 292.258 110.125 292.258 123.247Z" fill="white"/>
<path fill-rule="evenodd" clip-rule="evenodd" d="M283.805 135.547L254.124 135.5C253.343 135.498 252.705 134.858 252.707 134.077L252.735 116.014C252.737 115.233 253.377 114.595 254.158 114.597L283.839 114.644C284.62 114.646 285.258 115.285 285.257 116.066L285.228 134.129C285.226 134.91 284.586 135.548 283.805 135.547Z" fill="#84D7CC"/>
<path fill-rule="evenodd" clip-rule="evenodd" d="M282.838 134.38L253.158 134.333C252.376 134.332 251.738 133.692 251.74 132.91L251.769 114.848C251.77 114.067 252.41 113.429 253.191 113.43L282.872 113.478C283.653 113.479 284.291 114.119 284.29 114.9L284.261 132.962C284.259 133.744 283.619 134.382 282.838 134.38Z" fill="#BBF0D3"/>
<path fill-rule="evenodd" clip-rule="evenodd" d="M259.39 119.129C259.389 119.762 258.872 120.275 258.237 120.274C257.6 120.273 257.086 119.758 257.087 119.125C257.088 118.491 257.604 117.978 258.24 117.979C258.876 117.981 259.391 118.495 259.39 119.129Z" fill="#3393E3"/>
<path fill-rule="evenodd" clip-rule="evenodd" d="M259.383 123.717C259.382 124.351 258.865 124.863 258.229 124.862C257.593 124.861 257.079 124.347 257.08 123.713C257.081 123.08 257.597 122.567 258.233 122.568C258.869 122.569 259.384 123.084 259.383 123.717Z" fill="#3393E3"/>
<path fill-rule="evenodd" clip-rule="evenodd" d="M259.375 128.178C259.374 128.811 258.858 129.324 258.222 129.323C257.586 129.322 257.071 128.808 257.072 128.174C257.073 127.541 257.589 127.028 258.226 127.029C258.862 127.03 259.376 127.544 259.375 128.178Z" fill="#3393E3"/>
<path fill-rule="evenodd" clip-rule="evenodd" d="M280.059 119.846L262.16 119.817C261.867 119.816 261.631 119.579 261.632 119.288V119.198C261.632 118.906 261.87 118.67 262.161 118.67L280.061 118.699C280.353 118.699 280.589 118.936 280.589 119.228L280.588 119.318C280.588 119.61 280.351 119.846 280.059 119.846Z" fill="#84D653"/>
<path fill-rule="evenodd" clip-rule="evenodd" d="M275.356 124.554L262.081 124.533C261.828 124.532 261.623 124.327 261.624 124.075L261.624 123.842C261.625 123.59 261.83 123.385 262.082 123.386L275.358 123.407C275.611 123.407 275.815 123.612 275.815 123.865L275.814 124.097C275.814 124.35 275.609 124.554 275.356 124.554Z" fill="#84D653"/>
<path fill-rule="evenodd" clip-rule="evenodd" d="M277.802 128.892L262.112 128.867C261.838 128.866 261.616 128.644 261.617 128.37L261.617 128.215C261.617 127.941 261.84 127.719 262.114 127.72L277.804 127.745C278.078 127.745 278.299 127.968 278.299 128.241L278.299 128.397C278.298 128.671 278.076 128.892 277.802 128.892Z" fill="#84D653"/>
<path fill-rule="evenodd" clip-rule="evenodd" d="M279.043 124.688C278.896 124.688 278.748 124.636 278.628 124.534L277.309 123.405C277.039 123.175 277.008 122.771 277.238 122.503C277.468 122.233 277.871 122.202 278.14 122.432L279.006 123.172L281.017 121.118C281.264 120.865 281.67 120.861 281.922 121.108C282.175 121.355 282.179 121.761 281.932 122.013L279.502 124.495C279.377 124.623 279.21 124.688 279.043 124.688Z" fill="#00AB4E"/>
<path fill-rule="evenodd" clip-rule="evenodd" d="M95.4467 94.593C95.4467 108.566 84.1193 119.893 70.1462 119.893C56.174 119.893 44.8462 108.566 44.8462 94.593C44.8462 80.6203 56.174 69.293 70.1462 69.293C84.1193 69.293 95.4467 80.6203 95.4467 94.593Z" fill="#84D7CC"/>
<path fill-rule="evenodd" clip-rule="evenodd" d="M95.1928 92.6465C95.1928 106.479 83.979 117.693 70.146 117.693C56.3139 117.693 45.0996 106.479 45.0996 92.6465C45.0996 78.8139 56.3139 67.6001 70.146 67.6001C83.979 67.6001 95.1928 78.8139 95.1928 92.6465Z" fill="white"/>
<path fill-rule="evenodd" clip-rule="evenodd" d="M82.5543 103.591L57.939 103.814C56.0529 103.831 54.5104 102.316 54.4938 100.431L54.3683 86.5832C54.3512 84.6976 55.8661 83.1552 57.7517 83.138L82.3671 82.9152C84.2532 82.8985 85.7957 84.413 85.8123 86.2986L85.9377 100.146C85.9549 102.032 84.4399 103.574 82.5543 103.591Z" fill="#58585B"/>
<path fill-rule="evenodd" clip-rule="evenodd" d="M82.5411 102.155L57.9258 102.378C56.0397 102.395 54.4972 100.88 54.4806 98.9945L54.3551 85.1472C54.338 83.2616 55.853 81.7191 57.7385 81.702L82.3539 81.4791C84.24 81.4625 85.7825 82.977 85.7991 84.8626L85.9246 98.7099C85.9417 100.595 84.4267 102.138 82.5411 102.155Z" fill="#939597"/>
<path fill-rule="evenodd" clip-rule="evenodd" d="M80.0303 97.7246C79.3256 97.7294 78.8594 98.0957 78.8646 98.628C78.8784 99.02 79.2381 99.2281 79.5104 99.3664C79.797 99.4905 79.8854 99.5883 79.8887 99.7005C79.8953 99.8825 79.6725 99.9676 79.4757 99.969C79.1231 99.9709 78.9084 99.8739 78.7368 99.805L78.6318 100.408C78.8029 100.477 79.1013 100.545 79.4258 100.543C80.1866 100.539 80.6528 100.172 80.6333 99.5978C80.6077 98.8831 79.6055 98.848 79.6074 98.5263C79.604 98.4279 79.6996 98.3291 79.8958 98.2996C79.9937 98.2853 80.275 98.2697 80.591 98.4217L80.6975 97.8467C80.5278 97.7916 80.3026 97.7246 80.0374 97.7246C80.0351 97.7246 80.0327 97.7246 80.0303 97.7246ZM81.894 97.7688C81.7529 97.7702 81.6431 97.8548 81.6046 97.967L80.6367 100.495L81.3841 100.49L81.5105 100.084L82.4139 100.078L82.5132 100.484L83.1633 100.48L82.5004 97.765L81.894 97.7688ZM82.0181 98.4968L82.2671 99.518L81.6887 99.5213L82.0181 98.4968ZM77.948 97.7949L77.4661 100.512L78.1704 100.508L78.6522 97.7897L77.948 97.7949ZM76.8926 97.8006L76.2258 99.652L75.8761 98.0872C75.8414 97.9061 75.6979 97.8087 75.543 97.8092L74.3483 97.8177L74.3374 97.9014C74.5779 97.9418 74.8611 98.024 75.0331 98.1209C75.1334 98.1765 75.1766 98.2179 75.2108 98.3576L75.8481 100.522L76.5932 100.517L77.6381 97.7964L76.8926 97.8006Z" fill="white"/>
<path fill-rule="evenodd" clip-rule="evenodd" d="M61.3457 83.9507L58.4727 83.9759C58.1253 83.9787 57.8525 84.2757 57.8615 84.6236V84.6369L57.9333 87.4881C57.9423 87.8497 58.2303 88.1291 58.5777 88.1263L61.4659 88.1044C61.8143 88.1016 62.0875 87.8046 62.0785 87.4558L62.0048 84.6017C61.982 84.242 61.6969 83.9507 61.3519 83.9507C61.35 83.9507 61.3481 83.9507 61.3457 83.9507ZM60.3692 86.0221L60.9161 85.4409C61.0326 85.2926 61.0939 85.0783 61.0877 84.8369C61.082 84.6093 61.0097 84.4088 60.9123 84.2624L61.167 84.2733C61.3543 84.2724 61.5187 84.4311 61.5234 84.6193L61.5909 87.2319L60.3692 86.0221ZM58.3862 87.4444V87.4173L58.3187 84.7799L58.3154 84.6326C58.3244 84.4454 58.4541 84.2971 58.6409 84.2952L58.9616 84.2928C59.2553 84.29 59.4891 84.5423 59.4967 84.8369C59.5 84.9842 59.4501 85.1192 59.3589 85.2133L58.5648 86.0496L59.3465 86.8204C59.4425 86.9273 59.5129 87.0604 59.5162 87.1944C59.5247 87.5294 59.2506 87.786 58.9032 87.7884L58.7426 87.7903C58.7416 87.7903 58.7411 87.7903 58.7407 87.7903C58.5544 87.7903 58.3909 87.6306 58.3862 87.4444ZM59.9847 87.2039C59.9776 86.9364 59.8783 86.6959 59.74 86.5358L59.2463 86.0444L59.7281 85.5317C59.8712 85.3962 59.9591 85.1411 59.9515 84.8602C59.9458 84.6321 59.8745 84.4454 59.7766 84.299L60.124 84.2957C60.4186 84.2938 60.6524 84.5461 60.66 84.8407C60.6633 84.988 60.6139 85.1225 60.5222 85.2166L59.741 86.0401L61.4431 87.7157C61.3904 87.7561 61.3239 87.7703 61.2564 87.7708L59.8389 87.7813C59.8389 87.7813 59.99 87.4187 59.9847 87.2039Z" fill="#FFFEFE"/>
<path fill-rule="evenodd" clip-rule="evenodd" d="M81.1474 94.8016C80.0782 94.8097 79.5441 94.8135 78.4754 94.8216C78.2083 94.8235 77.9874 94.6082 77.9831 94.3407C77.957 92.6285 77.9783 91.7722 77.9517 90.0606C77.9474 89.7935 78.1589 89.5749 78.425 89.5725C79.4928 89.5616 80.0264 89.5559 81.0933 89.5454C81.3603 89.5426 81.5827 89.7574 81.587 90.0249C81.615 91.7399 81.5941 92.5976 81.6226 94.3122C81.6269 94.5807 81.415 94.7997 81.1474 94.8016Z" fill="#D4B16D"/>
<path fill-rule="evenodd" clip-rule="evenodd" d="M82.1848 95.5177C80.3035 95.531 79.3626 95.5376 77.4808 95.5509C77.0902 95.5538 76.7632 95.2382 76.7547 94.8467C76.7096 92.7392 76.7523 91.6852 76.7067 89.5777C76.6986 89.1875 77.0037 88.8677 77.3929 88.8634C79.2714 88.844 80.2103 88.834 82.0883 88.8145C82.4804 88.8102 82.8087 89.1243 82.8182 89.5164C82.8677 91.6301 82.8259 92.6874 82.8753 94.8011C82.8843 95.1941 82.5773 95.5148 82.1848 95.5177Z" stroke="#D8B56D" stroke-width="0.66"/>
<path fill-rule="evenodd" clip-rule="evenodd" d="M59.7474 91.897L57.8628 91.9141L57.8713 92.8564L59.756 92.8393L59.7474 91.897Z" fill="white"/>
<path fill-rule="evenodd" clip-rule="evenodd" d="M61.9097 92.8197L61.9012 91.8774L61.895 91.2045L62.5679 91.1983L64.318 91.1826L64.3128 90.6086C64.3095 90.2579 64.0201 89.9737 63.6694 89.9766L60.4033 90.0065L60.4447 94.5827L61.9254 94.5694L61.9159 93.4926L61.9097 92.8197Z" fill="white"/>
<path fill-rule="evenodd" clip-rule="evenodd" d="M57.8774 93.5293L57.8812 93.9684C57.8846 94.3191 58.1744 94.6037 58.5251 94.6004L59.7716 94.589L59.7621 93.5122L57.8774 93.5293Z" fill="white"/>
<path fill-rule="evenodd" clip-rule="evenodd" d="M59.7301 90.0122L58.4831 90.0236C58.1329 90.0265 57.8483 90.3163 57.8516 90.667L57.8568 91.2406L59.741 91.2235L59.7301 90.0122Z" fill="white"/>
<path fill-rule="evenodd" clip-rule="evenodd" d="M62.5984 94.5637L63.7103 94.5537C64.061 94.5504 64.3457 94.261 64.3423 93.9103L64.3385 93.4712L62.5884 93.4869L62.5984 94.5637Z" fill="white"/>
<path fill-rule="evenodd" clip-rule="evenodd" d="M62.5742 91.8716L62.5828 92.8135L64.3325 92.7978L64.3239 91.8555L62.5742 91.8716Z" fill="white"/>
<path fill-rule="evenodd" clip-rule="evenodd" d="M286.978 56.0596C286.978 61.3755 282.668 65.6846 277.353 65.6846C272.037 65.6846 267.728 61.3755 267.728 56.0596C267.728 50.7436 272.037 46.4346 277.353 46.4346C282.668 46.4346 286.978 50.7436 286.978 56.0596Z" fill="#00AB4E"/>
<path fill-rule="evenodd" clip-rule="evenodd" d="M276.254 61.0647C275.961 61.0647 275.667 60.9607 275.427 60.7517L272.797 58.4481C272.26 57.9796 272.195 57.1525 272.653 56.6033C273.109 56.0518 273.913 55.9871 274.449 56.4557L276.174 57.965L280.171 53.7595C280.663 53.2417 281.47 53.2328 281.974 53.736C282.477 54.2407 282.487 55.0706 281.996 55.5879L277.167 60.6688C276.918 60.9317 276.586 61.0647 276.254 61.0647Z" fill="#FDFEFF"/>
<path fill-rule="evenodd" clip-rule="evenodd" d="M211.333 101.395L209.586 104.588L206.395 106.333C205.868 106.622 205.868 107.378 206.395 107.667L209.586 109.412L211.333 112.605C211.62 113.132 212.378 113.132 212.666 112.605L214.412 109.412L217.605 107.667C218.132 107.378 218.132 106.622 217.605 106.333L214.412 104.588L212.666 101.395C212.378 100.868 211.62 100.868 211.333 101.395Z" fill="#FFF9ED"/>
<path fill-rule="evenodd" clip-rule="evenodd" d="M106.333 54.3954L104.586 57.5878L101.395 59.333C100.868 59.6218 100.868 60.3782 101.395 60.667L104.586 62.4122L106.333 65.6046C106.62 66.1318 107.378 66.1318 107.666 65.6046L109.412 62.4122L112.605 60.667C113.132 60.3782 113.132 59.6218 112.605 59.333L109.412 57.5878L107.666 54.3954C107.378 53.8682 106.62 53.8682 106.333 54.3954Z" fill="#FFD37B"/>
<path fill-rule="evenodd" clip-rule="evenodd" d="M182.5 54.2966L181.19 56.6908L178.797 57.9997C178.401 58.2163 178.401 58.7837 178.797 59.0003L181.19 60.3092L182.5 62.7034C182.715 63.0989 183.284 63.0989 183.499 62.7034L184.809 60.3092L187.203 59.0003C187.599 58.7837 187.599 58.2163 187.203 57.9997L184.809 56.6908L183.499 54.2966C183.284 53.9011 182.715 53.9011 182.5 54.2966Z" fill="#FFD37B"/>
<path fill-rule="evenodd" clip-rule="evenodd" d="M210 17.7966L208.69 20.1908L206.297 21.4997C205.901 21.7163 205.901 22.2837 206.297 22.5003L208.69 23.8092L210 26.2034C210.215 26.5989 210.784 26.5989 210.999 26.2034L212.309 23.8092L214.703 22.5003C215.099 22.2837 215.099 21.7163 214.703 21.4997L212.309 20.1908L210.999 17.7966C210.784 17.4011 210.215 17.4011 210 17.7966Z" fill="#FFE7B8"/>
<path d="M130.5 21.5L138.5 28.5" stroke="#FFD37B" stroke-width="2" stroke-linecap="round" stroke-linejoin="round"/>
<path d="M153.5 10.5L155.5 24.5" stroke="#FFD37B" stroke-width="2" stroke-linecap="round" stroke-linejoin="round"/>
<path d="M175.5 16.5L172.5 24.5" stroke="#FFD37B" stroke-width="2" stroke-linecap="round" stroke-linejoin="round"/>
</svg>
