<svg width="329" height="165" viewBox="0 0 329 165" fill="none" xmlns="http://www.w3.org/2000/svg">
<path fill-rule="evenodd" clip-rule="evenodd" d="M23.6861 162.074C34.1376 164.232 265.277 166.385 302.064 162.074C312.954 160.798 321.671 148.881 322.943 146.813C330.895 133.881 327.913 54.128 325.925 27.184C324.855 12.6832 310.018 6.16794 303.058 4.01261C289.748 -0.109375 53.7169 -0.274812 22.6911 5.09074C8.81 7.49051 3.77805 18.8109 2.77905 25.1031C0.448393 39.7703 -0.929223 129.984 2.80703 142.136C5.79003 151.835 13.2465 159.919 23.6861 162.074Z" fill="#E8FFFC"/>
<mask id="mask0_5567_145006" style="mask-type:alpha" maskUnits="userSpaceOnUse" x="0" y="0" width="329" height="165">
<path fill-rule="evenodd" clip-rule="evenodd" d="M23.6861 162.074C34.1376 164.232 265.277 166.385 302.064 162.074C312.954 160.798 321.671 148.881 322.943 146.813C330.895 133.881 327.913 54.128 325.925 27.184C324.855 12.6832 310.018 6.16794 303.058 4.01261C289.748 -0.109375 53.7169 -0.274812 22.6911 5.09074C8.81 7.49051 3.77805 18.8109 2.77905 25.1031C0.448393 39.7703 -0.929223 129.984 2.80703 142.136C5.79003 151.835 13.2465 159.919 23.6861 162.074Z" fill="white"/>
</mask>
<g mask="url(#mask0_5567_145006)">
<path fill-rule="evenodd" clip-rule="evenodd" d="M308.221 52.052C306.498 57.5052 299.082 52.366 295.347 58.4283C290.438 66.3953 299.151 73.5775 296.558 78.3849C293.745 83.5986 282.132 82.4947 278.591 92.1805C276.796 97.0911 276.725 102.536 278.94 108.247H319.482C320.774 106.266 321.774 104.137 322.362 101.874C325.311 90.5231 315.257 89.5518 317.328 85.5792C320.002 80.4487 328.906 78.3814 329.488 71.02C330.172 62.3613 321.343 60.3308 321.783 56.0309C322.403 49.9704 323.013 37.1215 317.271 35.5284C316.883 35.4211 316.515 35.3694 316.165 35.3694C310.852 35.3688 309.764 47.1655 308.221 52.052Z" fill="#B3EC91"/>
<mask id="mask1_5567_145006" style="mask-type:alpha" maskUnits="userSpaceOnUse" x="277" y="35" width="53" height="74">
<path fill-rule="evenodd" clip-rule="evenodd" d="M308.221 52.052C306.498 57.5052 299.082 52.366 295.347 58.4283C290.438 66.3953 299.151 73.5775 296.558 78.3849C293.745 83.5986 282.132 82.4947 278.591 92.1805C276.796 97.0911 276.725 102.536 278.94 108.247H319.482C320.774 106.266 321.774 104.137 322.362 101.874C325.311 90.5231 315.257 89.5518 317.328 85.5792C320.002 80.4487 328.906 78.3814 329.488 71.02C330.172 62.3613 321.343 60.3308 321.783 56.0309C322.403 49.9704 323.013 37.1215 317.271 35.5284C316.883 35.4211 316.515 35.3694 316.165 35.3694C310.852 35.3688 309.764 47.1655 308.221 52.052Z" fill="white"/>
</mask>
<g mask="url(#mask1_5567_145006)">
</g>
<path d="M295.473 118.315C295.473 118.315 308.08 86.972 316.229 49.3333" stroke="white" stroke-width="0.63014" stroke-linecap="round"/>
<path d="M311.178 71.8029L302.188 61.8286" stroke="white" stroke-width="0.63014" stroke-linecap="round"/>
<path fill-rule="evenodd" clip-rule="evenodd" d="M279.78 123.669C270.605 118.645 260.585 110.073 257.867 98.9669C254.315 84.457 266.423 83.2149 263.929 78.1366C260.709 71.5785 249.986 68.9358 249.286 59.5256C248.463 48.4562 259.095 45.8602 258.565 40.3636C257.818 32.6166 257.083 16.1914 263.998 14.155C271.557 11.9288 272.914 28.6199 274.895 35.2766C276.969 42.2483 285.9 35.6787 290.398 43.4281C296.309 53.6136 285.816 62.7948 288.94 68.9398C292.327 75.6046 306.311 74.193 310.575 86.5759C313.327 94.5675 312.713 103.665 307.341 113.164C299.178 116.678 288.768 120.038 279.78 123.669Z" fill="#84D7CC"/>
<path d="M285.346 97.936C285.346 97.936 272.699 68.105 264.525 32.2808" stroke="white" stroke-width="0.78057" stroke-linecap="round" stroke-linejoin="round"/>
<path fill-rule="evenodd" clip-rule="evenodd" d="M-62.4463 153.907L326.408 247.71L359.703 110.116L-29.1497 16.3135L-62.4463 153.907Z" fill="#BBF0D3"/>
<path fill-rule="evenodd" clip-rule="evenodd" d="M158.883 35.1413C159.608 35.5113 159.909 36.3891 159.564 37.1252L157.475 41.4919C157.309 41.847 157.005 42.1183 156.633 42.243C156.262 42.3796 155.852 42.3617 155.494 42.1911L151.233 40.1584C150.499 39.7913 150.196 38.9076 150.544 38.1675L152.625 33.8087C152.991 33.0736 153.879 32.7674 154.619 33.1225L158.883 35.1413ZM170.366 6.06526C171.901 6.79538 173.323 7.74094 174.591 8.87402C175.816 9.94825 176.841 11.2319 177.616 12.6652C178.35 14.0377 178.784 15.5518 178.886 17.1048C178.95 20.0881 177.76 22.9617 175.604 25.0294C174.754 25.7904 173.794 26.4188 172.757 26.8966C171.753 27.3653 170.708 27.7424 169.635 28.0207C168.552 28.3149 167.549 28.5672 166.595 28.8246C165.682 29.062 164.793 29.3831 163.94 29.7831C163.176 30.1292 162.522 30.6778 162.052 31.372C161.827 31.6922 161.516 31.9435 161.155 32.0971C160.81 32.2587 160.408 32.2498 160.072 32.0712L156.304 30.2738C155.942 30.1003 155.663 29.7901 155.531 29.4121C155.372 29.051 155.399 28.6351 155.603 28.2959C156.204 27.1439 157.033 26.1255 158.04 25.3027C158.953 24.5755 159.96 23.9721 161.032 23.5083C162.063 23.0594 163.131 22.7004 164.223 22.4361C165.298 22.1877 166.307 21.9294 167.25 21.6601C168.103 21.4296 168.93 21.1105 169.715 20.7055C170.393 20.3534 170.937 19.7879 171.261 19.0977C171.862 17.8728 171.819 16.4325 171.148 15.2456C170.331 13.7943 169.053 12.6583 167.514 12.0169C164.709 10.6794 161.972 11.0983 159.302 13.2737C159.036 13.5161 158.726 13.7076 158.388 13.8362C158.032 13.926 157.655 13.8681 157.343 13.6736L153.341 11.7576C153.056 11.6289 152.832 11.3905 152.722 11.0983C152.601 10.7891 152.621 10.444 152.778 10.1517C153.433 8.92988 154.379 7.88856 155.533 7.11755C156.84 6.21687 158.293 5.55059 159.829 5.14663C161.516 4.71275 163.261 4.55117 165 4.66687C166.863 4.77758 168.686 5.25236 170.366 6.06526Z" fill="#C4E4FF"/>
<path fill-rule="evenodd" clip-rule="evenodd" d="M149.331 80.793C149.599 80.8628 149.822 81.0434 149.947 81.2907C150.083 81.5241 150.113 81.8054 150.031 82.0627L149.11 85.2705C149.032 85.5288 148.855 85.7472 148.619 85.8779C148.381 86.0086 148.101 86.0415 147.838 85.9687L144.708 85.062C144.445 84.9912 144.224 84.8136 144.099 84.5713C143.958 84.3389 143.923 84.0576 144.001 83.7983L144.936 80.5915C145.096 80.0559 145.655 79.7447 146.194 79.8923L149.331 80.793ZM153.858 59.6904C154.988 60.0186 156.066 60.5043 157.06 61.1337C158.01 61.7242 158.848 62.4772 159.537 63.359C160.189 64.2118 160.65 65.1942 160.889 66.2405C161.138 67.3557 161.09 68.5167 160.748 69.6078C160.517 70.4806 160.113 71.2975 159.559 72.0116C159.066 72.6211 158.488 73.1577 157.842 73.6035C157.203 74.0414 156.525 74.4224 155.816 74.7396L153.84 75.6293C153.246 75.8976 152.677 76.2168 152.138 76.5819C151.655 76.903 151.272 77.3539 151.034 77.8835C150.909 78.1239 150.717 78.3234 150.481 78.458C150.264 78.6047 149.99 78.6426 149.74 78.5618L146.974 77.7618C146.708 77.683 146.483 77.5055 146.345 77.2651C146.193 77.0357 146.167 76.7454 146.274 76.4921C146.551 75.6373 146.999 74.8483 147.595 74.1741C148.136 73.5776 148.751 73.053 149.428 72.6141C150.078 72.1922 150.766 71.8301 151.482 71.5319C152.183 71.2327 152.838 70.9404 153.459 70.6551C154.011 70.4028 154.537 70.0926 155.025 69.7325C155.448 69.4133 155.757 68.9695 155.911 68.4638C156.177 67.5601 155.983 66.5856 155.395 65.8505C154.673 64.9548 153.673 64.3245 152.554 64.0601C150.541 63.4477 148.36 64.1619 147.103 65.8445C146.948 66.042 146.758 66.2076 146.541 66.3313C146.309 66.43 146.047 66.433 145.813 66.3403L142.854 65.4905C142.645 65.4326 142.465 65.295 142.357 65.1065C142.241 64.909 142.216 64.6716 142.288 64.4551C142.601 63.5505 143.128 62.7346 143.825 62.0783C144.61 61.3172 145.524 60.6998 146.524 60.256C147.623 59.7662 148.793 59.457 149.991 59.3413C151.291 59.2027 152.605 59.3214 153.858 59.6904Z" fill="#3393E3"/>
<path fill-rule="evenodd" clip-rule="evenodd" d="M202.557 41.0348C203.212 42.2189 203.696 43.4907 203.995 44.8131C204.291 46.0722 204.362 47.3741 204.204 48.6586C204.049 49.8875 203.638 51.0706 202.999 52.1272C202.298 53.2422 201.328 54.1556 200.18 54.7808C199.294 55.3066 198.313 55.6474 197.295 55.7838C196.403 55.886 195.5 55.8587 194.617 55.7C193.758 55.5364 192.915 55.2988 192.096 54.9901L189.748 54.1098C189.058 53.843 188.344 53.6444 187.616 53.5168C186.967 53.3844 186.293 53.4418 185.677 53.6843C185.387 53.7885 185.075 53.8089 184.774 53.7427C184.478 53.695 184.223 53.5051 184.091 53.2324L182.461 50.3471C182.307 50.0686 182.267 49.7404 182.351 49.4337C182.413 49.1065 182.634 48.8319 182.937 48.7043C183.849 48.2311 184.845 47.9487 185.866 47.8737C186.784 47.8201 187.705 47.8902 188.606 48.0821C189.473 48.2593 190.322 48.5203 191.14 48.8582C191.945 49.1863 192.711 49.4756 193.411 49.7667C194.062 50.0063 194.736 50.1796 195.422 50.2819C196.021 50.3666 196.63 50.2507 197.157 49.9537C198.095 49.4308 198.721 48.4765 198.832 47.3965C198.971 46.0751 198.666 44.7449 197.971 43.6192C196.833 41.4798 194.496 40.2918 192.126 40.6491C191.844 40.6832 191.557 40.6696 191.281 40.6073C191.011 40.4953 190.793 40.284 190.673 40.0152L188.961 36.9186C188.844 36.6985 188.809 36.4424 188.861 36.198C188.929 35.9409 189.1 35.7257 189.334 35.6039C190.311 35.1112 191.394 34.8697 192.486 34.9009C193.734 34.9116 194.971 35.1472 196.138 35.5952C197.419 36.085 198.613 36.7822 199.675 37.6577C200.844 38.5808 201.823 39.7289 202.557 41.0348ZM181.149 54.4589C181.314 54.709 181.352 55.0076 181.259 55.2838C181.174 55.5788 180.952 55.827 180.647 55.9701L177.106 57.707C176.503 57.9903 175.752 57.8032 175.407 57.2842L173.472 54.2484C173.31 53.9948 173.273 53.6943 173.37 53.4164C173.449 53.1205 173.672 52.8695 173.981 52.731L177.521 50.9941C177.81 50.851 178.152 50.8187 178.469 50.9032C178.803 50.977 179.088 51.1731 179.249 51.4402L181.149 54.4589Z" fill="#63B5FA"/>
<path fill-rule="evenodd" clip-rule="evenodd" d="M68.5506 66.1917L55.8623 99.8798L87.8871 106.354L96.9421 76.8751L68.5506 66.1917Z" fill="#FFDAB8"/>
<path fill-rule="evenodd" clip-rule="evenodd" d="M123.493 51.4975C123.493 51.4975 141.291 39.4486 134.837 27.673C127.177 13.7349 112.478 9.19161 91.188 9.61652C81.225 9.82797 65.259 14.6485 58.3739 31.7963C53.0692 45.0472 85.2831 65.982 81.395 74.9589L123.493 51.4975Z" fill="#252528"/>
<path fill-rule="evenodd" clip-rule="evenodd" d="M124.413 59.5818C124.413 59.5818 125.588 64.3315 125.974 67.4415C126.157 68.9048 125.127 70.2902 123.654 70.3999C122.831 70.4617 122.003 70.4478 121.179 70.357L124.413 59.5818Z" fill="#FFB490"/>
<path fill-rule="evenodd" clip-rule="evenodd" d="M117.272 28.4764C121.462 32.9708 128.615 41.052 124.14 60.7931C119.553 81.0678 112.818 86.2923 109.186 87.8742C106.801 88.9465 97.3274 86.2883 93.0407 83.0846C87.6591 79.055 76.8899 67.9666 74.3445 55.7561C71.3445 41.3851 75.4803 25.1101 85.9918 21.9083C100.853 17.4189 113.704 24.6931 117.272 28.4764Z" fill="#FFDAB8"/>
<path fill-rule="evenodd" clip-rule="evenodd" d="M95.3638 84.5111C99.2738 86.6147 103.593 87.8485 108.026 88.1268C103.659 86.7214 99.7843 84.1052 96.8503 80.5842L95.3638 84.5111Z" fill="#FFB490"/>
<path fill-rule="evenodd" clip-rule="evenodd" d="M109.447 51.5575C117.033 51.2273 123.821 46.7479 127.095 39.9065C133.102 28.063 119.209 17.6858 119.209 17.6858L109.447 51.5575Z" fill="#252528"/>
<path fill-rule="evenodd" clip-rule="evenodd" d="M99.9462 50.2929C104.488 50.3837 106.239 54.0832 106.897 56.469C107.124 57.2959 108.178 57.5273 108.727 56.87C116.203 47.9211 118.194 32.5507 118.465 30.1499C118.489 29.9334 118.448 29.728 118.344 29.5355C117.069 27.1965 107.844 11.7693 85.8743 11.3005C73.1181 11.0292 63.2031 21.194 58.9674 29.7938C55.4771 36.8843 56.8251 55.3895 65.7595 73.9532C66.7151 75.9387 74.5298 77.6223 78.9287 78.4239C80.8012 78.7651 82.7015 78.135 83.9929 76.7368C86.8795 73.6115 91.8977 67.817 93.2779 63.9138C90.4677 58.1208 93.2319 50.1593 99.9462 50.2929Z" fill="#252528"/>
<path fill-rule="evenodd" clip-rule="evenodd" d="M89.9202 93.0529C121.756 91.6555 136.247 119.348 136.247 119.348C136.247 119.348 113.243 206.479 101.402 224.037L11.48 212.21C11.48 212.21 12.6188 155.391 19.2232 122.078C19.2232 122.078 22.9145 89.5998 56.274 88.9884C63.1131 88.8637 71.3379 93.8688 89.9202 93.0529Z" fill="#00AB4E"/>
<path fill-rule="evenodd" clip-rule="evenodd" d="M183.985 148.059C183.834 150.747 181.534 159.343 177.967 168.177C169.094 162.185 157.285 154.466 147.019 147.876C132.661 138.578 129.698 136.612 121.636 139.11C121.616 159.521 138.804 174.137 138.804 174.137C138.804 174.137 160.051 187.122 172.67 193.449C184.843 199.558 187.733 197.676 190.779 192.506C193.824 187.336 197.107 154.071 198.689 143.289C200.27 132.506 182.141 132.936 182.778 136.518C182.778 136.518 184.196 144.627 183.985 148.059Z" fill="#FFDAB8"/>
<path fill-rule="evenodd" clip-rule="evenodd" d="M101.916 107.544C103.244 102.066 108.634 98.6682 114.17 99.7634C117.045 100.333 120.17 101.449 122.821 103.564C127.27 107.592 131.311 112.051 134.884 116.872C141.908 126.257 153.288 141.414 159.163 149.237C161.542 152.405 161.63 156.8 159.219 159.943C154.313 166.341 147.803 171.342 140.344 174.436C136.903 175.863 132.936 174.951 130.393 172.232C124.709 166.155 114.432 154.947 109.715 148.412C100.53 135.723 99.1894 118.793 101.916 107.544Z" fill="#00883E"/>
<mask id="mask2_5567_145006" style="mask-type:alpha" maskUnits="userSpaceOnUse" x="160" y="70" width="49" height="64">
<path fill-rule="evenodd" clip-rule="evenodd" d="M172.741 70.4983L208.834 78.1581L196.968 133.894L160.875 126.234L172.741 70.4983Z" fill="white"/>
</mask>
<g mask="url(#mask2_5567_145006)">
<path fill-rule="evenodd" clip-rule="evenodd" d="M206.761 87.4139L189.928 128.188C188.867 130.754 185.921 131.976 183.343 130.917L165.661 123.65C163.082 122.589 161.849 119.646 162.91 117.078L179.741 76.3096C180.805 73.748 183.433 72.3961 185.612 73.2909L204.742 81.1529C204.752 81.1574 204.762 81.1609 204.772 81.1646C206.929 82.0734 207.82 84.8634 206.761 87.4139Z" fill="#1868A7"/>
</g>
<mask id="mask3_5567_145006" style="mask-type:alpha" maskUnits="userSpaceOnUse" x="159" y="69" width="49" height="65">
<path fill-rule="evenodd" clip-rule="evenodd" d="M171.364 69.9602L207.478 77.6246L195.585 133.491L159.47 125.826L171.364 69.9602Z" fill="white"/>
</mask>
<g mask="url(#mask3_5567_145006)">
<path fill-rule="evenodd" clip-rule="evenodd" d="M205.403 86.8909L188.526 127.768C187.463 130.341 184.514 131.568 181.936 130.509L164.254 123.242C161.674 122.182 160.445 119.234 161.507 116.66L178.382 75.7874C179.449 73.2192 182.08 71.8617 184.258 72.758L203.389 80.6185C203.399 80.623 203.408 80.6265 203.418 80.6309C205.576 81.5399 206.465 84.3341 205.403 86.8909Z" fill="#3392E2"/>
</g>
<path fill-rule="evenodd" clip-rule="evenodd" d="M203.287 87.1788L187.161 126.18C186.343 128.157 184.076 129.1 182.095 128.285L165.67 121.538C163.686 120.722 162.741 118.454 163.559 116.474L179.682 77.4814C180.422 75.6988 182.175 74.7285 183.598 75.3118L186.675 76.5771C187.07 76.7392 187.44 76.8247 187.336 77.3427L187.22 77.9204C187.115 78.4391 187.32 78.9172 187.714 79.0792L196.466 82.6748C196.86 82.8366 197.345 82.6412 197.639 82.2006L197.966 81.7105C198.231 81.312 198.517 81.4346 198.861 81.5812C198.897 81.5974 198.935 81.6139 198.973 81.6289L202.05 82.8927C202.056 82.8948 202.063 82.8977 202.069 82.8997C203.478 83.4934 204.023 85.4039 203.287 87.1788Z" fill="white"/>
<path fill-rule="evenodd" clip-rule="evenodd" d="M204.618 92.324L202.997 96.2438C202.924 96.4199 202.721 96.5031 202.544 96.4306L201.982 96.1991L203.869 91.6403L204.431 91.8735L204.434 91.8741C204.608 91.9483 204.69 92.1487 204.618 92.324Z" fill="#3392E2"/>
<path fill-rule="evenodd" clip-rule="evenodd" d="M174.783 85.5262L174.222 85.2946C174.046 85.2216 173.961 85.0184 174.035 84.8426L175.656 80.9236C175.73 80.7462 175.931 80.6627 176.108 80.7359L176.67 80.9683L174.783 85.5262Z" fill="#3392E2"/>
<path fill-rule="evenodd" clip-rule="evenodd" d="M202.422 97.6316L200.8 101.551C200.727 101.727 200.526 101.812 200.349 101.738L199.786 101.507L201.672 96.9478L202.234 97.1795C202.236 97.1805 202.236 97.1807 202.238 97.181C202.412 97.2545 202.495 97.4565 202.422 97.6316Z" fill="#3392E2"/>
<path fill-rule="evenodd" clip-rule="evenodd" d="M196.022 79.9413L195.989 80.0211C195.895 80.2476 195.635 80.3552 195.408 80.2621L191.689 78.7273C191.464 78.6345 191.356 78.3753 191.449 78.1486L191.483 78.0683C191.576 77.8424 191.836 77.734 192.062 77.8285L195.781 79.361C195.782 79.3611 195.783 79.3622 195.784 79.3624C196.008 79.4572 196.115 79.7154 196.022 79.9413Z" fill="#1868A7"/>
<path fill-rule="evenodd" clip-rule="evenodd" d="M190.584 77.6906C190.452 78.0097 190.085 78.162 189.765 78.0299C189.444 77.8974 189.292 77.5312 189.425 77.2121C189.556 76.8928 189.924 76.7407 190.244 76.8737C190.246 76.8733 190.247 76.8736 190.249 76.8747C190.566 77.0086 190.716 77.3729 190.584 77.6906Z" fill="#1868A7"/>
<path fill-rule="evenodd" clip-rule="evenodd" d="M203.591 85.9741C203.551 86.3709 203.453 86.7787 203.287 87.1789L187.16 126.18C186.343 128.156 184.077 129.1 182.096 128.285L166.079 121.706C185.763 127.007 201.878 90.0536 203.591 85.9741Z" fill="#C3DFF8"/>
<path fill-rule="evenodd" clip-rule="evenodd" d="M184.306 120.252L187.184 123.707L188.797 122.048L187.258 120.717L184.148 117.814C184.148 117.814 180.257 113.339 178.914 112.162C178.545 111.839 178.156 111.659 177.786 111.567C176.808 111.323 175.961 111.697 175.961 111.697L184.306 120.252Z" fill="#C4E4FF"/>
<mask id="mask4_5567_145006" style="mask-type:alpha" maskUnits="userSpaceOnUse" x="175" y="111" width="14" height="13">
<path fill-rule="evenodd" clip-rule="evenodd" d="M184.306 120.252L187.184 123.707L188.797 122.048L187.258 120.717L184.148 117.814C184.148 117.814 180.257 113.339 178.914 112.162C178.545 111.839 178.156 111.659 177.786 111.567C176.808 111.323 175.961 111.697 175.961 111.697L184.306 120.252Z" fill="white"/>
</mask>
<g mask="url(#mask4_5567_145006)">
</g>
<path fill-rule="evenodd" clip-rule="evenodd" d="M192.969 121.524C192.969 121.524 191.542 125.219 190.556 124.494L186.265 121.343C185.741 120.971 185.267 120.53 184.858 120.032L178.832 112.724C178.366 112.157 177.71 111.776 176.984 111.653L176.754 111.613C175.285 111.364 174.239 111.77 173.74 113.17C173.74 113.17 173.521 114.903 173.943 115.669L178.602 124.115C179.054 124.93 179.626 126.706 179.626 126.706L181.572 134.393C182.077 136.397 182.513 138.74 183.622 140.484L183.622 144.397L198.781 143.132C198.781 140.931 199.302 135.655 199.633 133.817L201.478 120.096C201.702 118.847 201.371 117.56 200.567 116.576L196.845 111.625L192.969 121.524Z" fill="#FFDAB8"/>
<mask id="mask5_5567_145006" style="mask-type:alpha" maskUnits="userSpaceOnUse" x="173" y="111" width="29" height="34">
<path fill-rule="evenodd" clip-rule="evenodd" d="M192.969 121.524C192.969 121.524 191.542 125.219 190.556 124.494L186.265 121.343C185.741 120.971 185.267 120.53 184.858 120.032L178.832 112.724C178.366 112.157 177.71 111.776 176.984 111.653L176.754 111.613C175.285 111.364 174.239 111.77 173.74 113.17C173.74 113.17 173.521 114.903 173.943 115.669L178.602 124.115C179.054 124.93 179.626 126.706 179.626 126.706L181.572 134.393C182.077 136.397 182.513 138.74 183.622 140.484L183.622 144.397L198.781 143.132C198.781 140.931 199.302 135.655 199.633 133.817L201.478 120.096C201.702 118.847 201.371 117.56 200.567 116.576L196.845 111.625L192.969 121.524Z" fill="white"/>
</mask>
<g mask="url(#mask5_5567_145006)">
</g>
<path fill-rule="evenodd" clip-rule="evenodd" d="M193.297 101.792C193.26 107.025 188.982 111.237 183.74 111.201C178.499 111.165 174.28 106.893 174.316 101.66C174.352 96.4272 178.631 92.2143 183.872 92.2505C189.114 92.2869 193.333 96.5586 193.297 101.792Z" fill="#DB4D51"/>
<path d="M179.377 103.311L187.237 100.141" stroke="white" stroke-width="3.038" stroke-linecap="round" stroke-linejoin="round"/>
<path d="M181.719 97.8022L184.895 105.649" stroke="white" stroke-width="3.038" stroke-linecap="round" stroke-linejoin="round"/>
</g>
</svg>
