<svg width="120" height="120" viewBox="0 0 120 120" fill="none" xmlns="http://www.w3.org/2000/svg">
<path fill-rule="evenodd" clip-rule="evenodd" d="M115.5 60.75C115.5 90.9881 90.9873 115.5 60.75 115.5C30.5127 115.5 6 90.9881 6 60.75C6 30.5119 30.5127 6 60.75 6C90.9873 6 115.5 30.5119 115.5 60.75" fill="#EBFFE0"/>
<mask id="mask0_5567_159537" style="mask-type:alpha" maskUnits="userSpaceOnUse" x="99" y="49" width="4" height="13">
<path fill-rule="evenodd" clip-rule="evenodd" d="M102.078 49.9522L102.156 60.7854C102.161 61.2712 101.769 61.6711 101.281 61.6738V61.6738L99.7295 61.6856L99.6358 49.0876L101.187 49.0757C101.189 49.0757 101.191 49.0757 101.193 49.0757V49.0757C101.679 49.0757 102.073 49.4677 102.078 49.9522V49.9522Z" fill="white"/>
</mask>
<g mask="url(#mask0_5567_159537)">
<path fill-rule="evenodd" clip-rule="evenodd" d="M107.597 67.1251H94.1974V43.6357H107.597V67.1251Z" fill="#1868AB"/>
</g>
<mask id="mask1_5567_159537" style="mask-type:alpha" maskUnits="userSpaceOnUse" x="25" y="23" width="76" height="140">
<path fill-rule="evenodd" clip-rule="evenodd" d="M26.0332 36.3007L25.1171 149.232C25.0604 156.34 30.7733 162.152 37.8815 162.213V162.213L86.6463 162.635H86.8667C93.8799 162.579 99.5757 156.903 99.6338 149.864V149.864L100.55 36.9475C100.593 29.8446 95.7569 24.0419 89.7509 23.9917V23.9917L36.9918 23.5337C36.9654 23.5337 36.9377 23.5337 36.9113 23.5337V23.5337C30.941 23.5337 26.0768 29.2321 26.0332 36.3007" fill="white"/>
</mask>
<g mask="url(#mask1_5567_159537)">
<path fill-rule="evenodd" clip-rule="evenodd" d="M105.937 93.4503L105.989 17.1021H19.5738C19.5738 17.1021 11.876 85.5249 18.0998 94.2266C24.3236 102.928 42.5489 115.56 61.7298 115.56C80.92 115.56 94.7165 107.107 105.937 93.4503Z" fill="#5297D1"/>
</g>
<mask id="mask2_5567_159537" style="mask-type:alpha" maskUnits="userSpaceOnUse" x="29" y="28" width="67" height="88">
<path fill-rule="evenodd" clip-rule="evenodd" d="M29.9022 105.214C36.995 110.471 46.3679 115.56 61.7301 115.662C77.0924 115.764 87.8865 110.471 94.9967 104.362V65.9844L95.8137 38.3256C95.8454 33.3981 92.688 29.3734 88.7663 29.3391L80.2787 29.2652C79.191 29.2546 78.2366 29.0896 77.966 30.4149L77.6651 31.888C77.3945 33.2133 76.4401 34.136 75.3537 34.1267L51.2189 33.9142C50.1312 33.905 49.1887 32.9651 48.9339 31.6372L48.6501 30.1575C48.4218 28.9576 47.6324 28.9629 46.6807 28.9668C46.5791 28.9668 46.4735 28.9668 46.3679 28.9668L37.8816 28.8916C37.8644 28.8916 37.8486 28.8916 37.8327 28.8916C33.9295 28.8916 30.7509 32.8463 30.7206 37.7554L29.9022 105.214Z" fill="white"/>
</mask>
<g mask="url(#mask2_5567_159537)">
<path fill-rule="evenodd" clip-rule="evenodd" d="M102.245 99.264L101.255 21.062H24.387C24.387 21.062 18.637 89.582 23.257 100.015C27.877 110.449 47.1644 115.662 63.0651 115.662C80.6796 114.837 95.4088 107.835 102.245 99.264Z" fill="white"/>
</g>
<mask id="mask3_5567_159537" style="mask-type:alpha" maskUnits="userSpaceOnUse" x="23" y="49" width="3" height="13">
<path fill-rule="evenodd" clip-rule="evenodd" d="M23.4422 49.9522L23.3643 60.7854C23.359 61.2712 23.7511 61.6711 24.2395 61.6738V61.6738L25.7905 61.6856L25.8842 49.0876L24.3332 49.0757C24.3306 49.0757 24.3292 49.0757 24.3266 49.0757V49.0757C23.8408 49.0757 23.4475 49.4677 23.4422 49.9522V49.9522Z" fill="white"/>
</mask>
<g mask="url(#mask3_5567_159537)">
<path fill-rule="evenodd" clip-rule="evenodd" d="M17.9233 67.1251H31.3227V43.6357H17.9233V67.1251Z" fill="#1868AB"/>
</g>
<mask id="mask4_5567_159537" style="mask-type:alpha" maskUnits="userSpaceOnUse" x="23" y="63" width="3" height="14">
<path fill-rule="evenodd" clip-rule="evenodd" d="M23.3353 64.6188L23.2574 75.4534C23.2521 75.9405 23.6441 76.3391 24.1312 76.3431V76.3431L25.6835 76.3549L25.7759 63.7555L24.2236 63.7437C24.2223 63.7437 24.2197 63.7437 24.217 63.7437V63.7437C23.7339 63.7437 23.3392 64.1344 23.3353 64.6188V64.6188Z" fill="white"/>
</mask>
<g mask="url(#mask4_5567_159537)">
<path fill-rule="evenodd" clip-rule="evenodd" d="M17.8164 81.7931H31.2144V58.3037H17.8164V81.7931Z" fill="#1868AB"/>
</g>
<mask id="mask5_5567_159537" style="mask-type:alpha" maskUnits="userSpaceOnUse" x="54" y="28" width="14" height="3">
<path fill-rule="evenodd" clip-rule="evenodd" d="M54.977 29.2399L54.9756 29.463C54.969 30.086 55.4746 30.5982 56.0976 30.6021V30.6021L66.3607 30.6787C66.985 30.6826 67.4945 30.1784 67.4998 29.554V29.554V29.331C67.5077 28.7053 67.0035 28.1958 66.3778 28.1905V28.1905L56.1174 28.1152C56.1148 28.1152 56.1122 28.1152 56.1108 28.1152V28.1152C55.4891 28.1152 54.9809 28.6168 54.977 29.2399V29.2399Z" fill="white"/>
</mask>
<g mask="url(#mask5_5567_159537)">
<path fill-rule="evenodd" clip-rule="evenodd" d="M49.5347 36.1182H72.9409V22.6753H49.5347V36.1182Z" fill="#1868AB"/>
</g>
<mask id="mask6_5567_159537" style="mask-type:alpha" maskUnits="userSpaceOnUse" x="69" y="27" width="5" height="4">
<path fill-rule="evenodd" clip-rule="evenodd" d="M69.9908 29.3349C69.9829 30.2153 70.6943 30.9374 71.5761 30.944V30.944C72.4605 30.9506 73.1799 30.2391 73.1878 29.356V29.356C73.1931 28.4729 72.4829 27.7509 71.5999 27.7456V27.7456C71.5959 27.7456 71.5919 27.7456 71.5867 27.7456V27.7456C70.7089 27.7456 69.9947 28.4531 69.9908 29.3349V29.3349Z" fill="white"/>
</mask>
<g mask="url(#mask6_5567_159537)">
<path fill-rule="evenodd" clip-rule="evenodd" d="M64.5498 36.3835H78.6263V22.3057H64.5498V36.3835Z" fill="#1868AB"/>
</g>
<path fill-rule="evenodd" clip-rule="evenodd" d="M92.2233 49.5C91.4771 49.4983 91.1435 48.9056 90.9263 48.2964C89.9472 45.5476 87.9839 43.8443 85.4004 42.6025C83.5335 41.7039 83.5335 40.9027 85.3986 40.0041C87.9796 38.7614 89.8378 37.0155 90.9576 34.325C91.6864 32.5747 92.5829 32.5582 93.4325 34.2772C94.7669 36.979 96.5678 39.0169 99.4363 40.1344C100.619 40.5942 101 41.7665 99.617 42.3374C96.5573 43.6019 94.5697 45.7666 93.2275 48.704C92.8957 49.4305 92.6255 49.4644 92.2233 49.5" fill="#FFC54F"/>
<path fill-rule="evenodd" clip-rule="evenodd" d="M33.1349 102C32.0204 101.85 31.7232 101.073 31.4316 100.369C30.5813 98.322 29.2627 96.8248 27.0787 95.9712C25.1288 95.2099 24.8564 94.0727 26.9897 93.0826C29.0244 92.1393 30.5402 90.7786 31.4261 88.7021C32.3161 86.6109 33.4868 86.3019 34.5521 88.5898C35.501 90.6234 37.0976 91.952 39.0296 93.001C40.8453 93.987 41.1342 95.0079 39.0173 95.9752C36.9579 96.9158 35.5613 98.4665 34.5809 100.427C34.2331 101.12 33.9072 101.846 33.1349 102" fill="#FFD37B"/>
<path fill-rule="evenodd" clip-rule="evenodd" d="M40.7578 60.9968C39.6401 61.1657 38.8613 62.2648 39.0207 63.4513L39.6401 68.082C39.7094 68.5902 40.1166 68.971 40.6001 68.9676C43.6175 68.9463 46.2605 71.2985 46.6962 74.5595C47.1322 77.8201 45.2104 80.8602 42.308 81.7336C41.8421 81.8734 41.5503 82.3584 41.6183 82.8667L42.238 87.4984C42.3971 88.6853 43.4321 89.5098 44.5505 89.342L84.6879 83.3835C85.807 83.221 86.5879 82.1256 86.4355 80.9376L85.8345 76.3036C85.7697 75.7953 85.3625 75.4142 84.8793 75.4156C81.8619 75.419 79.2292 73.0564 78.8058 69.7932C78.3839 66.5299 80.3184 63.4991 83.2253 62.6404C83.6912 62.5021 83.9854 62.0181 83.9196 61.5099L83.3189 56.8763C83.1665 55.6879 82.134 54.8575 81.0152 55.0204" fill="#C4E4FF"/>
<path fill-rule="evenodd" clip-rule="evenodd" d="M42.7578 56.9968C41.6401 57.1657 40.8613 58.2648 41.0207 59.4513L41.6401 64.082C41.7094 64.5902 42.1166 64.971 42.6001 64.9676C45.6175 64.9463 48.2605 67.2985 48.6962 70.5595C49.1322 73.8201 47.2104 76.8602 44.308 77.7336C43.8421 77.8734 43.5503 78.3584 43.6183 78.8667L44.238 83.4984C44.3971 84.6853 45.4321 85.5098 46.5505 85.342L86.6879 79.3835C87.807 79.221 88.5879 78.1256 88.4355 76.9376L87.8345 72.3036C87.7697 71.7953 87.3625 71.4142 86.8793 71.4156C83.8619 71.419 81.2292 69.0564 80.8058 65.7932C80.3839 62.5299 82.3184 59.4991 85.2253 58.6404C85.6912 58.5021 85.9854 58.0181 85.9196 57.5099L85.3189 52.8763C85.1665 51.6879 84.134 50.8575 83.0152 51.0204" fill="#28D677"/>
<path fill-rule="evenodd" clip-rule="evenodd" d="M51.1102 60.3886L50.5902 56.6303C50.5258 56.1655 50.8505 55.7365 51.3153 55.6722C51.7802 55.6079 52.2091 55.9325 52.2734 56.3974L52.7935 60.1557C52.8578 60.6206 52.5331 61.0495 52.0683 61.1138C51.6035 61.1781 51.1745 60.8535 51.1102 60.3886ZM52.2542 68.6561L51.7341 64.8978C51.6698 64.4329 51.9945 64.004 52.4593 63.9397C52.9241 63.8753 53.3531 64.2 53.4174 64.6648L53.9374 68.4232C54.0018 68.888 53.6771 69.317 53.2123 69.3813C52.7474 69.4456 52.3185 69.1209 52.2542 68.6561ZM52.8781 73.1652L53.3981 76.9236C53.4624 77.3884 53.8914 77.7131 54.3562 77.6488C54.821 77.5844 55.1457 77.1555 55.0814 76.6907L54.5614 72.9323C54.497 72.4675 54.0681 72.1428 53.6033 72.2071C53.1384 72.2714 52.8138 72.7004 52.8781 73.1652ZM54.272 83.239L54.022 81.4327C53.9577 80.9679 54.2824 80.5389 54.7472 80.4746C55.212 80.4103 55.641 80.735 55.7053 81.1998L55.9552 83.0061C56.0196 83.4709 55.6949 83.8998 55.2301 83.9642C54.7652 84.0285 54.3363 83.7038 54.272 83.239Z" fill="#FFF9ED"/>
<path fill-rule="evenodd" clip-rule="evenodd" d="M76.4847 69.992C76.2722 70.3457 76.0677 70.5364 75.871 70.5641C75.7047 70.5874 75.4586 70.5102 75.1329 70.3323L75.0083 70.2689C74.8142 70.1497 74.5104 69.9359 74.0969 69.6278C73.6835 69.3196 73.3716 69.1031 73.1613 68.9785L73.284 69.8519C73.3085 70.0258 73.3211 70.1571 73.322 70.2456C73.3229 70.3342 73.3011 70.4394 73.2565 70.5614C73.1858 70.7718 72.9085 70.911 72.4245 70.979C71.9481 71.046 71.6426 70.9848 71.5081 70.7955C71.4392 70.6895 71.393 70.5938 71.3694 70.5085C71.3458 70.4231 71.3218 70.2935 71.2974 70.1195L70.3425 63.325C70.3181 63.1511 70.3054 63.0199 70.3045 62.9313C70.3036 62.8427 70.3217 62.738 70.3587 62.6172C70.4359 62.3981 70.7164 62.2546 71.2004 62.1866C71.5634 62.1355 71.8295 62.1637 71.9988 62.271C72.1423 62.3588 72.2337 62.5156 72.2731 62.7414C72.2903 62.8084 72.3089 62.9137 72.3291 63.0574L72.8345 66.6531C72.9547 66.5206 73.1336 66.2988 73.3714 65.9878C73.6091 65.6767 73.7881 65.4549 73.9083 65.3224L74.0316 65.2125C74.2676 64.9711 74.4801 64.8372 74.6692 64.8106C74.8582 64.784 75.0972 64.9066 75.386 65.1783C75.6748 65.4501 75.8314 65.6729 75.8558 65.8468C75.8803 66.0207 75.7691 66.2446 75.5222 66.5183L74.5332 67.629L76.2172 68.6647C76.4285 68.7969 76.5646 68.9012 76.6255 68.9774C76.6863 69.0537 76.7221 69.1297 76.7327 69.2053C76.7582 69.3868 76.6755 69.649 76.4847 69.992ZM63.7843 72.2165C64.0868 72.174 64.3148 72.0956 64.4684 71.9815C64.5744 71.9126 64.6419 71.8029 64.6709 71.6523C64.6998 71.5017 64.6976 71.3073 64.6641 71.0691C64.6306 70.8309 64.5808 70.6413 64.5147 70.5002C64.4486 70.3591 64.3444 70.262 64.2019 70.2087C64.0595 70.1555 63.8333 70.1506 63.5232 70.1942L61.4474 70.4859L61.4395 70.4292L61.7071 70.2759C62.1213 70.0404 62.5731 69.6337 63.0625 69.056C63.2942 68.7844 63.4775 68.4424 63.6124 68.0302C63.7472 67.618 63.7844 67.1963 63.7238 66.7653C63.6101 65.9562 63.2253 65.2757 62.5694 64.724C61.9135 64.1723 61.1299 63.9604 60.2187 64.0885C59.3075 64.2166 58.614 64.6321 58.1383 65.3352C57.6626 66.0382 57.48 66.783 57.5906 67.5694C57.6278 67.8341 57.6738 68.0243 57.7286 68.14C57.8673 68.4135 58.2013 68.5131 58.7306 68.4387C59.207 68.3717 59.4892 68.2395 59.5771 68.0421C59.6227 67.9277 59.6454 67.8281 59.645 67.7434C59.6447 67.6586 59.6328 67.533 59.6094 67.3667L59.5999 67.2986L59.6086 67.0313C59.6068 66.8542 59.6823 66.6643 59.835 66.4616C59.9878 66.259 60.1851 66.1406 60.4271 66.1066C60.6691 66.0726 60.8629 66.08 61.0086 66.129C61.1543 66.1779 61.2649 66.2376 61.3403 66.3079C61.4157 66.3783 61.4887 66.4721 61.5592 66.5895C61.6296 66.7068 61.6696 66.7995 61.6792 66.8676C61.727 67.2079 61.6304 67.5492 61.3893 67.8915C61.1483 68.2338 60.8441 68.5523 60.4768 68.8468C60.1095 69.1413 59.7427 69.4397 59.3764 69.7417C59.0102 70.0438 58.7095 70.3868 58.4742 70.7708C58.239 71.1547 58.1501 71.5508 58.2075 71.9592C58.2458 72.2314 58.3775 72.4558 58.6028 72.6324C58.8282 72.8089 59.0769 72.878 59.3492 72.8398L63.7843 72.2165ZM67.8756 71.7803C68.6847 71.6666 69.3219 71.2898 69.7872 70.6499C70.2525 70.01 70.4302 69.2987 70.3202 68.516C70.2102 67.7333 69.8298 67.1121 69.1791 66.6521C68.5284 66.1922 67.8439 66.0127 67.1255 66.1137C66.944 66.1392 66.8127 66.1654 66.7317 66.1922C66.7241 65.6997 66.7216 65.407 66.7239 65.3142L68.709 65.0352C68.8753 65.0118 68.9974 64.9889 69.0752 64.9664C69.153 64.9439 69.2406 64.8949 69.338 64.8196C69.5132 64.6947 69.569 64.4054 69.5052 63.9517C69.435 63.4526 69.2905 63.1644 69.0714 63.0873C68.9495 63.0427 68.8461 63.0206 68.7613 63.0209C68.6766 63.0213 68.5434 63.0342 68.3619 63.0597L67.2957 63.2096L65.5699 63.4405C65.396 63.465 65.2479 63.5224 65.1257 63.6129C65.0035 63.7033 64.9166 63.7984 64.865 63.8982C64.8135 63.998 64.773 64.1078 64.7436 64.2276C64.7142 64.3474 64.6989 64.4305 64.6977 64.4769C64.6965 64.5234 64.6989 65.1168 64.705 66.2572C64.711 67.3977 64.721 68.0171 64.7348 68.1154C64.7486 68.2137 64.8032 68.3005 64.8986 68.3757C64.994 68.451 65.186 68.5416 65.4747 68.6476C65.7633 68.7535 66.0116 68.7919 66.2196 68.7627C66.4276 68.7334 66.6214 68.6175 66.8011 68.4149C66.9181 68.2596 67.09 68.1661 67.3169 68.1342C67.5438 68.1023 67.7564 68.1476 67.9548 68.2701C68.1533 68.3926 68.2703 68.5805 68.3059 68.8338C68.3415 69.0871 68.2881 69.2971 68.1457 69.4636C68.0033 69.6301 67.7639 69.737 67.4274 69.7843C67.0908 69.8316 66.8434 69.7854 66.6849 69.6458C66.356 69.4452 66.0857 69.3598 65.8739 69.3896C65.6622 69.4193 65.4604 69.5749 65.2686 69.8564C65.0292 70.1831 64.9239 70.4485 64.9526 70.6527C64.9813 70.8568 65.1568 71.0635 65.4793 71.2727L65.5812 71.3393C65.6502 71.3913 65.7548 71.4499 65.895 71.515C66.5121 71.7907 67.1723 71.8791 67.8756 71.7803Z" fill="white"/>
<g clip-path="url(#clip0_5567_159537)">
<circle cx="18" cy="19.5" r="16.5" fill="#28D677"/>
<path d="M17.992 28V24.976H10.864V22.312L18.616 11.08H21.64V22.048H23.944V24.976H21.64V28H17.992ZM17.992 22.048V16.528L14.248 22.048H17.992Z" fill="white"/>
</g>
<defs>
<clipPath id="clip0_5567_159537">
<rect width="33" height="33" fill="white" transform="translate(1.5 3)"/>
</clipPath>
</defs>
</svg>
