<svg width="328" height="164" viewBox="0 0 328 164" fill="none" xmlns="http://www.w3.org/2000/svg">
<path fill-rule="evenodd" clip-rule="evenodd" d="M304.781 161.504C294.319 163.667 62.9471 165.826 26.1241 161.504C15.2231 160.224 6.49713 148.276 5.22412 146.203C-2.73587 133.238 0.249146 53.2794 2.23914 26.266C3.31015 11.7278 18.1621 5.19571 25.1291 3.03482C38.4521 -1.09779 274.72 -1.26366 305.777 4.11573C319.672 6.52168 324.709 17.8712 325.709 24.1796C328.042 38.8847 329.421 129.331 325.681 141.514C322.695 151.239 315.231 159.343 304.781 161.504Z" fill="#E6F6ED"/>
<mask id="mask0_5567_156819" style="mask-type:alpha" maskUnits="userSpaceOnUse" x="0" y="0" width="328" height="164">
<path fill-rule="evenodd" clip-rule="evenodd" d="M304.781 161.504C294.319 163.667 62.9471 165.826 26.1241 161.504C15.2231 160.224 6.49713 148.276 5.22412 146.203C-2.73587 133.238 0.249146 53.2794 2.23914 26.266C3.31015 11.7278 18.1621 5.19571 25.1291 3.03482C38.4521 -1.09779 274.72 -1.26366 305.777 4.11573C319.672 6.52168 324.709 17.8712 325.709 24.1796C328.042 38.8847 329.421 129.331 325.681 141.514C322.695 151.239 315.231 159.343 304.781 161.504Z" fill="white"/>
</mask>
<g mask="url(#mask0_5567_156819)">
<path fill-rule="evenodd" clip-rule="evenodd" d="M293.777 37.3979C293.777 37.3979 324.302 63.2251 283.601 83.7442L277.787 86.8207L293.777 37.3979Z" fill="#6C4A07"/>
<path fill-rule="evenodd" clip-rule="evenodd" d="M278.667 92.6687C281.817 93.7404 284.566 95.7039 286.697 98.2589C290.683 103.036 300.667 107.421 307.586 112.712C319.942 122.16 339.565 185.392 339.565 185.392C339.565 185.392 263.978 223.186 220.37 199.928C220.37 199.928 217.463 191.206 217.463 179.578C217.463 179.578 201.474 194.113 186.938 182.485C176.291 173.968 165.645 163.112 160.709 157.912C158.819 155.919 158.299 152.972 159.47 150.487C161.789 145.568 166.976 138.444 177.256 139.86C178.764 140.068 180.172 140.733 181.361 141.684C185.194 144.75 194.206 151.959 194.206 151.959C194.206 151.959 216.009 115.62 217.463 112.712C218.917 109.805 223.394 102.728 234.906 101.083C239.993 100.357 244.173 100.077 246.172 97.617C249.418 93.6207 254.285 91.296 259.413 90.8389C265.046 90.3363 272.126 90.4427 278.667 92.6687Z" fill="#00AB4E"/>
<path fill-rule="evenodd" clip-rule="evenodd" d="M246.535 84.64C246.535 84.64 252.35 91.9081 249.442 99.1762C249.442 99.1762 253.803 119.527 279.968 99.1762C279.968 99.1762 278.515 87.5471 279.968 81.7329L246.535 84.64Z" fill="#FFB38F"/>
<path fill-rule="evenodd" clip-rule="evenodd" d="M296.684 49.0271C292.195 26.5816 262.988 23.4141 249.28 41.7464C243.819 49.0488 239.118 58.4113 238.54 69.3775C238.54 69.3775 235.633 89.7279 260.344 89.7279C260.344 89.7279 273.427 91.1811 280.695 85.3669C287.963 79.5527 292.324 73.7378 295.231 66.4697C298.138 59.2023 298.138 56.2952 296.684 49.0271Z" fill="#FFD9B7"/>
<path fill-rule="evenodd" clip-rule="evenodd" d="M135.134 148.12C135.134 148.12 128.777 147.508 127.747 147.128C126.718 146.749 116.059 141.493 115.03 141.222C114 140.951 114.202 137.547 118.591 137.98C122.98 138.414 126.826 140.68 130.511 141.384C134.196 142.088 135.134 148.12 135.134 148.12Z" fill="#FFB38F"/>
<path fill-rule="evenodd" clip-rule="evenodd" d="M133.707 133.366C133.922 133.905 140.858 136.723 142.76 137.161C144.406 137.538 145.977 137.5 148.079 138.246C148.094 138.254 148.117 138.262 148.132 138.27C148.255 138.309 148.387 138.354 148.517 138.408C148.525 138.416 148.533 138.416 148.533 138.416C148.695 138.477 148.863 138.547 149.041 138.624C149.041 138.624 148.187 139.609 140.92 140.972C140.204 141.11 139.426 141.249 138.587 141.387C138.587 141.387 136.146 142.573 138.256 149.078C138.256 149.078 141.835 151.733 145.415 152.38C148.987 153.035 150.367 152.725 157.68 154.188C164.993 155.651 165.547 161.08 168.803 166.769C168.803 166.769 182.593 166.84 186.21 159.404C186.21 159.404 177.816 143.065 176.515 141.657C175.552 140.617 173.951 137.662 170.696 135.36V135.352C169.54 134.536 168.169 133.797 166.546 133.258C160.364 131.195 153.375 131.303 152.289 131.357C151.212 131.411 147.362 131.319 146.17 131.342C145.269 131.357 143.844 130.525 142.667 129.979C142.282 129.802 141.928 129.648 141.62 129.571C140.372 129.247 134.468 127.515 133.707 129.571C132.953 131.634 133.491 132.819 133.707 133.366Z" fill="#FFD9B7"/>
<path fill-rule="evenodd" clip-rule="evenodd" d="M145.101 152.319C140.562 151.009 126.555 143.93 125.526 143.551C124.496 143.172 116.005 131.212 116.221 130.508C116.439 129.804 118.115 128.436 119.93 129.276C121.952 130.211 126.609 136.399 127.801 137.591C128.994 138.783 132.57 139.487 132.57 139.487L145.101 152.319Z" fill="#FFD9B7"/>
<mask id="mask1_5567_156819" style="mask-type:alpha" maskUnits="userSpaceOnUse" x="133" y="128" width="16" height="11">
<path fill-rule="evenodd" clip-rule="evenodd" d="M133.707 129.57C132.953 131.634 133.491 132.82 133.707 133.366C133.922 133.905 140.858 136.722 142.76 137.161C144.406 137.539 145.977 137.5 148.078 138.246C146.618 137.659 144.229 137.312 141.889 132.805C140.928 130.954 140.98 129.387 140.449 129.248C140.064 129.071 139.019 129.052 138.711 128.975C138.022 128.797 136.8 128.371 135.715 128.371C134.836 128.371 134.048 128.65 133.707 129.57Z" fill="white"/>
</mask>
<g mask="url(#mask1_5567_156819)">
<path fill-rule="evenodd" clip-rule="evenodd" d="M131.122 140.444H150.276V126.173H131.122V140.444Z" fill="#FFB38F"/>
</g>
<path fill-rule="evenodd" clip-rule="evenodd" d="M146.279 152.473C143.245 152.438 133.221 141.275 131.541 138.566C129.861 135.857 129.996 131.673 128.181 125.562C126.898 121.245 126.625 121.242 127.294 120.573C127.537 120.331 130.642 119.234 131.981 123.251C133.338 127.322 136.194 135.655 136.714 136.111C137.234 136.567 144.6 144.256 144.6 144.256L146.279 152.473Z" fill="#FFD9B7"/>
<path fill-rule="evenodd" clip-rule="evenodd" d="M169.615 141.907C169.615 141.907 165.208 138.728 159.572 140.535C153.938 142.341 151.824 141.384 150.018 141.167C148.212 140.95 142.811 136.995 142.233 135.333C141.739 133.912 140.504 130.905 140.158 130.065C140.096 129.916 140.065 129.774 140.059 129.613C140.025 128.729 139.82 125.495 138.573 123.604C137.86 122.524 136.179 122.953 136.074 124.243C135.928 126.056 135.755 128.626 135.821 130.005C135.93 132.281 137.393 137.266 137.772 138.241C138.151 139.217 143.786 146.206 143.786 146.206" fill="#FFD9B7"/>
<path fill-rule="evenodd" clip-rule="evenodd" d="M169.957 142.247C169.902 142.247 169.847 142.225 169.805 142.183C169.784 142.161 167.647 140.021 163.937 139.916C162.233 139.871 161.249 140.264 160.121 140.721C158.792 141.26 157.284 141.853 154.247 141.813C150.34 141.736 148.097 140.696 147.109 140.084C147.009 140.022 146.978 139.891 147.04 139.791C147.103 139.692 147.235 139.662 147.333 139.722C148.285 140.313 150.45 141.314 154.254 141.387C157.206 141.456 158.67 140.851 159.961 140.327C161.083 139.871 162.14 139.445 163.949 139.49C167.838 139.601 170.019 141.792 170.111 141.886C170.192 141.97 170.19 142.105 170.106 142.187C170.064 142.226 170.011 142.247 169.957 142.247Z" fill="#FFB38F"/>
<path fill-rule="evenodd" clip-rule="evenodd" d="M148.533 138.629C148.469 138.629 148.406 138.6 148.365 138.545C148.293 138.453 148.311 138.319 148.404 138.247C148.432 138.225 151.304 136.013 152.53 134.09C152.596 133.992 152.725 133.963 152.824 134.025C152.924 134.088 152.953 134.22 152.89 134.318C151.622 136.306 148.783 138.493 148.663 138.586C148.624 138.614 148.578 138.629 148.533 138.629Z" fill="#FFB38F"/>
<path fill-rule="evenodd" clip-rule="evenodd" d="M143.1 146.791C143.051 146.791 143.003 146.775 142.962 146.741C142.554 146.397 138.958 143.359 138.624 142.259C138.165 140.743 137.065 136.745 137.054 136.705C137.022 136.592 137.089 136.475 137.203 136.444C137.313 136.415 137.432 136.48 137.464 136.593C137.474 136.632 138.573 140.625 139.031 142.136C139.283 142.964 142.152 145.506 143.236 146.414C143.326 146.49 143.338 146.625 143.263 146.715C143.22 146.764 143.16 146.791 143.1 146.791Z" fill="#FFB38F"/>
<mask id="mask2_5567_156819" style="mask-type:alpha" maskUnits="userSpaceOnUse" x="130" y="139" width="16" height="14">
<path fill-rule="evenodd" clip-rule="evenodd" d="M145.415 152.38C137.537 149.195 132.11 139.386 132.11 139.386L130.887 139.063C137.013 150.08 145.415 152.38 145.415 152.38Z" fill="white"/>
</mask>
<g mask="url(#mask2_5567_156819)">
<path fill-rule="evenodd" clip-rule="evenodd" d="M128.69 154.577H147.612V136.866H128.69V154.577Z" fill="#FFB38F"/>
</g>
<path fill-rule="evenodd" clip-rule="evenodd" d="M247.987 66.4705C247.836 66.4705 247.683 66.4229 247.553 66.3249C246.279 65.3708 245.633 64.1528 245.633 62.7087C245.633 57.9347 253.051 52.3165 253.367 52.0799C253.688 51.8405 254.145 51.9042 254.384 52.2248C254.624 52.5461 254.56 53.0018 254.239 53.2426C252.25 54.7357 247.087 59.3487 247.087 62.7094C247.088 63.6852 247.525 64.4874 248.424 65.1622C248.746 65.403 248.811 65.8587 248.57 66.1793C248.427 66.3704 248.209 66.4705 247.987 66.4705Z" fill="#FFB38F"/>
<path fill-rule="evenodd" clip-rule="evenodd" d="M213.102 179.124C213.102 179.124 201.474 195.114 186.938 183.485C176.297 174.973 165.656 164.123 160.717 158.919C158.821 156.922 166.155 154.557 168.768 153.686C173.129 152.232 174.582 150.779 177.256 140.86C177.652 139.389 180.176 141.736 181.366 142.687L194.206 152.96C194.206 152.96 210.195 158.774 213.102 179.124Z" fill="#00AB4E"/>
<path fill-rule="evenodd" clip-rule="evenodd" d="M194.206 152.959C194.206 152.959 202.927 158.773 204.38 163.134C204.38 163.134 205.834 154.413 194.206 152.959Z" fill="#00883E"/>
<path fill-rule="evenodd" clip-rule="evenodd" d="M217.463 180.578C217.463 157.838 223.375 130.172 225.465 121.106C225.556 120.708 224.998 120.511 224.825 120.882C220.452 130.246 207.311 161.12 212.375 184.211L217.463 180.578Z" fill="#00883E"/>
<path fill-rule="evenodd" clip-rule="evenodd" d="M303.952 115.893C303.952 115.893 268.519 106.81 303.952 198.748C303.952 198.748 276.333 112.986 303.952 115.893Z" fill="#00883E"/>
<path fill-rule="evenodd" clip-rule="evenodd" d="M299.591 44.6664C299.591 44.6664 295.231 15.5947 255.983 27.2231C255.983 27.2231 250.762 28.9633 247.053 29.0781C245.886 29.1138 245.21 30.4074 245.862 31.3755C249.374 36.5968 259.92 47.5735 286.509 47.5735C286.509 47.5735 298.138 47.5735 299.591 44.6664Z" fill="#6C4A07"/>
<path fill-rule="evenodd" clip-rule="evenodd" d="M285.055 44.6665C285.055 44.6665 278.928 62.0258 276.945 69.3569C276.711 70.2242 277.783 70.8353 278.419 70.1997L283.601 65.0169L280.695 85.3673L298.138 70.8311L299.591 46.1204L285.055 44.6665Z" fill="#6C4A07"/>
<path fill-rule="evenodd" clip-rule="evenodd" d="M283.698 65.0352C283.984 64.5431 284.56 64.3065 285.109 64.457C287.143 65.0142 291.529 66.9518 289.183 73.0313C286.966 78.7804 281.044 78.5095 278.1 77.9747C277.241 77.8186 276.798 76.8652 277.237 76.1113L283.698 65.0352Z" fill="#FFD9B7"/>
<path fill-rule="evenodd" clip-rule="evenodd" d="M254.158 77.3807C252.134 77.3807 249.71 76.9999 246.982 75.8624C246.611 75.7084 246.436 75.2828 246.59 74.9125C246.746 74.5422 247.172 74.3672 247.541 74.5212C254.917 77.5928 259.759 74.6983 259.96 74.5744C260.303 74.3637 260.749 74.4701 260.961 74.8096C261.171 75.1491 261.068 75.5957 260.729 75.8078C260.578 75.9023 258.144 77.3807 254.158 77.3807Z" fill="#FFB38F"/>
<path fill-rule="evenodd" clip-rule="evenodd" d="M287.15 10.0466C287.91 10.3502 288.28 11.2125 287.976 11.9723C287.673 12.732 286.81 13.1024 286.051 12.799C285.291 12.4956 284.921 11.6337 285.224 10.8733C285.528 10.1136 286.39 9.74304 287.15 10.0466Z" fill="#FFC54F"/>
<path fill-rule="evenodd" clip-rule="evenodd" d="M299.537 22.9714C300.298 23.275 300.667 24.1367 300.364 24.8971C300.06 25.6568 299.198 26.0272 298.438 25.7238C297.678 25.4202 297.309 24.5579 297.612 23.7981C297.915 23.0384 298.777 22.6678 299.537 22.9714Z" fill="#FFC54F"/>
<path fill-rule="evenodd" clip-rule="evenodd" d="M269.267 10.883C270.027 11.1866 270.397 12.0489 270.093 12.8087C269.79 13.5691 268.928 13.9388 268.168 13.6354C267.408 13.3318 267.038 12.4701 267.342 11.7098C267.645 10.95 268.507 10.5795 269.267 10.883Z" fill="#FFC54F"/>
<path fill-rule="evenodd" clip-rule="evenodd" d="M265.501 27.8054C265.43 28.2446 265.506 28.6947 265.747 29.069C266.759 30.6439 269.937 34.9945 275.321 37.1449C280.695 39.2906 287.119 38.788 289.385 38.5164C289.925 38.4517 290.399 38.1468 290.705 37.6976L297.737 27.3851C298.198 26.7093 298.024 25.787 297.347 25.326C297.014 25.0985 296.602 25.017 296.207 25.1004L287.395 26.9613L286.428 15.427C286.359 14.6117 285.643 14.006 284.828 14.0745C284.508 14.1016 284.206 14.231 283.967 14.444L275.321 22.1398L270.214 14.7211C269.751 14.0471 268.828 13.8765 268.154 14.3408C267.821 14.5698 267.597 14.9249 267.532 15.3233L265.501 27.8054Z" fill="#FFC54F"/>
<path fill-rule="evenodd" clip-rule="evenodd" d="M224.698 47.6378C223.497 107.026 159.707 124.493 94.3553 124.493C15.6694 124.493 -25.176 93.0527 -23.9742 35.9927C-22.6505 -26.8757 32.4876 -52.5073 94.3553 -52.5073C159.707 -52.5073 226.187 -25.9404 224.698 47.6378Z" fill="#EDFFF5"/>
<mask id="mask3_5567_156819" style="mask-type:alpha" maskUnits="userSpaceOnUse" x="-24" y="-53" width="249" height="178">
<path fill-rule="evenodd" clip-rule="evenodd" d="M224.698 47.6378C223.497 107.026 159.707 124.493 94.3553 124.493C15.6694 124.493 -25.176 93.0527 -23.9742 35.9927C-22.6505 -26.8757 32.4876 -52.5073 94.3553 -52.5073C159.707 -52.5073 226.187 -25.9404 224.698 47.6378Z" fill="white"/>
</mask>
<g mask="url(#mask3_5567_156819)">
<rect x="-36.1001" y="75.0928" width="272.8" height="58.3" fill="#84D7CC"/>
<path fill-rule="evenodd" clip-rule="evenodd" d="M196.213 85.2826L190.199 71.094L177.937 63.2838L176.335 63.4449L173.999 57.9332L161.737 50.123L144.805 51.8334L141.749 66.9379L132.14 67.9084L129.084 83.0129L141.346 90.823L142.019 90.2572L167.092 88.7497L165.69 85.0279L170.212 87.9079L196.213 85.2826Z" fill="#BBF0D3"/>
<path fill-rule="evenodd" clip-rule="evenodd" d="M128.352 90.1523H93.9534C89.3114 90.1523 85.5483 86.3892 85.5483 81.7461V47.3491C85.5483 42.706 89.3114 38.9429 93.9534 38.9429H128.352C132.995 38.9429 136.758 42.706 136.758 47.3491V81.7461C136.758 86.3892 132.995 90.1523 128.352 90.1523Z" fill="#BBF0D3"/>
<path fill-rule="evenodd" clip-rule="evenodd" d="M85.4516 90.6428H51.0535C46.4115 90.6428 42.6484 88.7836 42.6484 86.4897V69.4959C42.6484 67.2019 46.4115 65.3428 51.0535 65.3428H85.4516C90.0947 65.3428 93.8578 67.2019 93.8578 69.4959V86.4897C93.8578 88.7836 90.0947 90.6428 85.4516 90.6428Z" fill="#BBF0D3"/>
<path fill-rule="evenodd" clip-rule="evenodd" d="M40.6016 90.6432H12.3037C8.48491 90.6432 5.38916 88.299 5.38916 85.4067V63.9797C5.38916 61.0873 8.48491 58.7432 12.3037 58.7432H40.6016C44.4213 58.7432 47.517 61.0873 47.517 63.9797V85.4067C47.517 88.299 44.4213 90.6432 40.6016 90.6432Z" fill="#BBF0D3"/>
<path d="M99.7217 41.2286C99.7217 41.2286 100.179 27.9692 111.154 27.9692C122.126 27.9692 121.669 41.2286 121.669 41.2286" stroke="#BBF0D3" stroke-width="3.201"/>
<path d="M17.0488 60.9429C17.0488 60.9429 17.4253 49.9429 26.4537 49.9429C35.4803 49.9429 35.1039 60.9429 35.1039 60.9429" stroke="#BBF0D3" stroke-width="3.201"/>
<path fill-rule="evenodd" clip-rule="evenodd" d="M105.343 52.483L108.66 53.5907C109.023 53.7117 109.242 54.0768 109.169 54.4461C108.71 56.7558 110.049 59.1033 112.384 59.8832C114.719 60.6634 117.239 59.6056 118.31 57.4996C118.481 57.1634 118.883 57.0051 119.245 57.126L122.561 58.2336C123.411 58.5181 123.866 59.424 123.577 60.2576L113.332 89.8156C113.043 90.65 112.119 91.0957 111.269 90.812L94.0525 85.06C93.2019 84.7762 92.7478 83.8704 93.0367 83.036L103.282 53.478C103.571 52.6444 104.493 52.1992 105.343 52.483Z" fill="#63B5FA"/>
<path fill-rule="evenodd" clip-rule="evenodd" d="M101.442 59.207L102.741 55.6973L112.393 76.544L109.28 77.6973L101.442 59.207Z" fill="#3393E3"/>
<path fill-rule="evenodd" clip-rule="evenodd" d="M104.307 65.7167L101.87 64.9658C101.568 64.873 101.399 64.5533 101.492 64.2518C101.585 63.9504 101.905 63.7813 102.206 63.8741L104.644 64.625C104.945 64.7179 105.114 65.0376 105.021 65.339C104.928 65.6405 104.609 65.8096 104.307 65.7167ZM109.669 67.3685L107.232 66.6176C106.93 66.5248 106.761 66.2051 106.854 65.9036C106.947 65.6022 107.266 65.4331 107.568 65.5259L110.005 66.2768C110.307 66.3697 110.476 66.6894 110.383 66.9908C110.29 67.2923 109.971 67.4614 109.669 67.3685ZM112.594 68.2694L115.031 69.0203C115.332 69.1132 115.652 68.9441 115.745 68.6426C115.838 68.3412 115.669 68.0215 115.367 67.9286L112.93 67.1777C112.628 67.0849 112.309 67.2539 112.216 67.5554C112.123 67.8569 112.292 68.1765 112.594 68.2694ZM119.127 70.2821L117.955 69.9212C117.654 69.8283 117.485 69.5087 117.578 69.2072C117.671 68.9057 117.99 68.7366 118.292 68.8295L119.463 69.1904C119.765 69.2833 119.934 69.6029 119.841 69.9044C119.748 70.2059 119.428 70.3749 119.127 70.2821Z" fill="#C4E4FF"/>
<path fill-rule="evenodd" clip-rule="evenodd" d="M78.5352 55.971L81.7673 54.6706C82.1206 54.5275 82.5305 54.659 82.7242 54.9812C83.9349 56.9965 86.5171 57.8858 88.7944 56.9703C91.0695 56.0537 92.2466 53.651 91.633 51.3954C91.5352 51.0345 91.7283 50.6614 92.0834 50.5178L95.3147 49.2173C96.1425 48.884 97.0944 49.2681 97.4387 50.074L109.647 78.6589C109.992 79.4664 109.6 80.3901 108.77 80.7239L91.9918 87.477C91.1632 87.8101 90.2127 87.427 89.8676 86.6211L77.6587 58.0344C77.3152 57.2288 77.7066 56.3042 78.5352 55.971Z" fill="#84D653"/>
<path fill-rule="evenodd" clip-rule="evenodd" d="M121.76 94.2529C122.647 94.2521 123.365 93.6943 123.365 93.0071L123.354 73.0592L124.311 73.0587C125.198 73.0578 125.916 73.6148 125.916 74.3022L125.929 94.9922C125.929 95.6794 125.211 96.2372 124.324 96.238L82.2665 96.2676C81.3797 96.2685 80.6609 95.7114 80.6602 95.024L80.6603 94.282L121.76 94.2529Z" fill="#117367"/>
<path fill-rule="evenodd" clip-rule="evenodd" d="M81.8173 95.2937L123.613 95.3535C124.29 95.3548 124.837 94.9391 124.835 94.4246L124.779 74.0851C124.778 73.5714 124.228 73.1534 123.551 73.1522L81.755 73.0923C81.0795 73.0911 80.5314 73.5074 80.5332 74.0218L80.5892 94.3614C80.5911 94.8751 81.1403 95.293 81.8173 95.2937Z" fill="#47A99C"/>
<path fill-rule="evenodd" clip-rule="evenodd" d="M123.766 89.5038L139.486 81.5354C142.65 79.9316 147.302 79.9921 149.875 81.6707L155.101 85.0807C156.425 85.9431 156.941 87.0662 156.7 88.1717C156.7 88.1717 156.581 91.1109 156.578 91.1593C156.505 92.3286 155.58 93.5144 153.858 94.3867L138.138 102.355C134.974 103.96 130.323 103.898 127.749 102.22L122.523 98.8109C121.316 98.0233 120.78 97.0201 120.879 96.0103L121.044 93.0194C120.972 91.7588 121.903 90.4476 123.766 89.5038Z" fill="#C69C45"/>
<path fill-rule="evenodd" clip-rule="evenodd" d="M139.486 81.5359L123.766 89.5043C120.601 91.1081 120.122 93.7701 122.696 95.4487L127.922 98.8576C130.496 100.536 135.148 100.598 138.312 98.9929L154.032 91.0245C157.197 89.4207 157.676 86.7598 155.102 85.0801L149.875 81.6712C147.303 79.9926 142.651 79.9321 139.486 81.5359Z" fill="#D8B56D"/>
<path fill-rule="evenodd" clip-rule="evenodd" d="M167.36 98.9686C158.002 97.114 148.646 95.2605 139.288 93.4059C136.165 92.7877 134.643 89.7792 135.498 87.7585C136.507 85.3792 136.81 84.7401 137.913 82.2035C138.85 80.0497 142.547 77.7881 145.671 78.4063C155.029 80.2609 162.681 81.7767 172.037 83.6313C175.161 84.2506 178.123 88.2513 177.084 90.4513C175.86 93.0407 175.503 93.4917 174.58 95.6928C173.798 97.5628 170.484 99.5879 167.36 98.9686Z" fill="#C69C45"/>
<path fill-rule="evenodd" clip-rule="evenodd" d="M166.354 96.3298L139.584 91.0256C136.604 90.4349 135.099 87.8356 135.872 86.1273C136.783 84.1154 137.057 83.5764 138.055 81.4314C138.903 79.6109 142.37 77.7519 145.349 78.3426C154.273 80.1103 163.196 81.8791 172.12 83.6479C175.099 84.2375 176.366 87.3912 175.421 89.2491C174.309 91.4359 173.981 91.8143 173.148 93.6755C172.441 95.2562 169.333 96.9205 166.354 96.3298Z" fill="#D8B56D"/>
<path fill-rule="evenodd" clip-rule="evenodd" d="M165.975 94.628C157.778 93.0033 149.579 91.3786 141.382 89.755C138.644 89.2127 137.22 87.0358 137.896 85.6366C138.693 83.9888 138.935 83.5477 139.809 81.7921C140.552 80.3016 143.69 78.8276 146.427 79.3688C154.626 80.9935 162.823 82.6182 171.022 84.2429C173.759 84.7852 174.975 87.4164 174.145 88.9355C173.166 90.7252 172.873 91.031 172.144 92.5556C171.527 93.8503 168.712 95.1703 165.975 94.628Z" fill="#C69C45"/>
<path fill-rule="evenodd" clip-rule="evenodd" d="M166.179 88.5696C165.88 90.0821 164.41 91.0655 162.898 90.7652C161.385 90.466 160.402 88.9964 160.702 87.4839C161.002 85.9714 162.471 84.988 163.984 85.2883C165.496 85.5875 166.478 87.0571 166.179 88.5696Z" fill="#ECCC8B"/>
<path d="M151.854 82.8848L149.358 87.2694" stroke="#ECCC8B" stroke-width="1.595" stroke-linecap="round" stroke-linejoin="round"/>
<path d="M147.159 81.9546L144.663 86.3392" stroke="#ECCC8B" stroke-width="1.595" stroke-linecap="round" stroke-linejoin="round"/>
<path fill-rule="evenodd" clip-rule="evenodd" d="M32.0369 71.727L36.9858 69.9945C37.1387 69.9362 37.3213 69.9076 37.5039 69.9098L69.0662 70.3036C69.9187 70.3146 70.5787 70.9922 70.5677 71.8425L70.3015 93.2298C70.2696 95.7532 68.2071 97.7651 65.6837 97.7343L35.2753 97.3548C32.7508 97.3229 30.7389 95.2604 30.7719 92.737L31.015 73.1438C31.0238 72.5058 31.4253 71.9327 32.0369 71.727Z" fill="#FFC54F"/>
<path fill-rule="evenodd" clip-rule="evenodd" d="M30.7715 92.7366C30.7396 95.2556 32.757 97.3225 35.276 97.3544L50.4791 97.5447L50.8223 70.0755L32.834 69.762C31.9617 69.7466 31.162 70.3593 31.0509 71.2239C31.0421 71.291 30.7715 92.7366 30.7715 92.7366Z" fill="#DF9F1C"/>
<path fill-rule="evenodd" clip-rule="evenodd" d="M55.3833 70.133L55.0401 97.6011L45.9189 97.4878L46.261 70.0186L55.3833 70.133Z" fill="#3393E3"/>
<path fill-rule="evenodd" clip-rule="evenodd" d="M31.7857 55.3201C32.328 53.2279 33.8999 51.6054 36.0064 50.963C38.0821 50.3492 40.2964 50.8332 41.8903 52.3138L45.3784 55.4587L46.1363 50.8156C46.4971 48.6915 47.8875 46.9139 49.9357 46.0878C50.3317 45.9415 50.7299 45.8238 51.1259 45.7677C52.8012 45.4542 54.5315 45.8414 55.9175 46.893C57.7545 48.2537 58.6686 50.5153 58.3375 52.7615C57.9756 55.0077 56.4301 56.9041 54.262 57.6378L50.9631 58.7829L46.8997 60.2228H46.87L39.8135 62.7187C39.1106 62.953 38.3791 63.0663 37.6795 63.0575C36.1901 63.0388 34.7381 62.4734 33.5952 61.4251C31.9111 59.8829 31.2115 57.5322 31.7857 55.3201Z" fill="#3393E3"/>
<path fill-rule="evenodd" clip-rule="evenodd" d="M25.8659 69.0642L27.8624 74.8073C28.0978 75.4178 28.672 75.7907 29.2803 75.7984C29.4629 75.8006 29.6455 75.772 29.7973 75.7126L45.59 70.1928L47.0772 65.4969L50.8689 66.3956L54.2041 67.1986L69.9957 61.6777C70.791 61.384 71.1969 60.5062 70.9329 59.7428L68.9056 54.0008C68.525 52.8392 67.6846 51.9163 66.5956 51.3861C65.5077 50.8559 64.2625 50.7789 63.102 51.1903L51.0053 55.4187L50.1814 55.7124C50.1814 55.7124 46.822 61.6315 46.7307 61.6304C46.6691 61.6304 45.3711 60.8835 44.1028 60.1685C42.8356 59.4535 41.5662 58.7066 41.5662 58.7066L28.6764 63.2298C27.5159 63.6412 26.5919 64.4805 26.0628 65.5695C25.5315 66.6574 25.4556 67.9037 25.8659 69.0642Z" fill="#FFD37B"/>
<path fill-rule="evenodd" clip-rule="evenodd" d="M25.8658 69.0644L27.8623 74.8075C28.0977 75.418 28.6719 75.7909 29.2802 75.7986C29.4628 75.8008 29.6454 75.7722 29.7972 75.7128L45.5899 70.193L47.0771 65.4971L50.8688 66.3958L51.0063 55.4189L50.1813 55.7126C50.1813 55.7126 46.8219 61.6317 46.7306 61.6306C46.6701 61.6306 45.371 60.8837 44.1027 60.1687C42.8355 59.4537 41.5661 58.7068 41.5661 58.7068L28.6763 63.23C27.5158 63.6414 26.5918 64.4807 26.0627 65.5697C25.5314 66.6576 25.4555 67.9039 25.8658 69.0644Z" fill="#FFC54F"/>
<path fill-rule="evenodd" clip-rule="evenodd" d="M50.1804 55.7129L50.9735 57.9734L54.2031 67.198L50.8437 68.3728L47.0256 69.6939L45.589 70.1933L41.5663 58.7071L50.1804 55.7129Z" fill="#3393E3"/>
<path fill-rule="evenodd" clip-rule="evenodd" d="M90.5024 84.954C91.2538 85.0676 91.7773 85.8064 91.6702 86.604L91.2538 89.7168C91.2072 90.0585 90.9335 90.3145 90.6084 90.3122C88.5801 90.2979 86.8034 91.8791 86.5105 94.0712C86.2174 96.263 87.5093 98.3067 89.4604 98.8938C89.7736 98.9877 89.9697 99.3138 89.924 99.6555L89.5074 102.769C89.4005 103.567 88.7047 104.121 87.9529 104.008L60.9717 100.003C60.2194 99.8936 59.6944 99.1573 59.7969 98.3587L60.2009 95.2436C60.2444 94.9019 60.5182 94.6457 60.843 94.6467C62.8713 94.649 64.6411 93.0608 64.9257 90.8672C65.2094 88.6735 63.9089 86.6362 61.9549 86.0589C61.6416 85.9659 61.4439 85.6406 61.4881 85.2989L61.8919 82.1841C61.9944 81.3852 62.6885 80.827 63.4405 80.9366" fill="#28D677"/>
<path fill-rule="evenodd" clip-rule="evenodd" d="M186.202 9.05412C186.954 9.16767 187.477 9.9065 187.37 10.7041L186.954 13.8169C186.907 14.1586 186.633 14.4146 186.308 14.4123C184.28 14.398 182.503 15.9791 182.21 18.1713C181.917 20.3631 183.209 22.4068 185.16 22.9939C185.473 23.0878 185.669 23.4139 185.624 23.7556L185.207 26.8691C185.1 27.667 184.404 28.2212 183.653 28.1084L156.671 24.103C155.919 23.9937 155.394 23.2574 155.497 22.4588L155.901 19.3437C155.944 19.002 156.218 18.7458 156.543 18.7468C158.571 18.7491 160.341 17.1609 160.625 14.9673C160.909 12.7736 159.609 10.7363 157.655 10.159C157.341 10.066 157.144 9.74069 157.188 9.39904L157.592 6.28421C157.694 5.48534 158.388 4.92714 159.14 5.03667" fill="#BBF0D3"/>
<path fill-rule="evenodd" clip-rule="evenodd" d="M180.587 11.3342L180.937 8.80772C180.98 8.49525 180.762 8.2069 180.449 8.16366C180.137 8.12043 179.849 8.33868 179.805 8.65115L179.456 11.1776C179.413 11.4901 179.631 11.7784 179.943 11.8217C180.256 11.8649 180.544 11.6466 180.587 11.3342ZM179.818 16.8917L180.168 14.3653C180.211 14.0528 179.993 13.7645 179.68 13.7212C179.368 13.678 179.08 13.8963 179.036 14.2087L178.687 16.7352C178.644 17.0476 178.862 17.336 179.174 17.3792C179.487 17.4225 179.775 17.2042 179.818 16.8917ZM179.399 19.9229L179.049 22.4493C179.006 22.7618 178.718 22.98 178.405 22.9368C178.093 22.8936 177.875 22.6052 177.918 22.2928L178.267 19.7663C178.311 19.4538 178.599 19.2356 178.911 19.2788C179.224 19.3221 179.442 19.6104 179.399 19.9229ZM178.462 26.6947L178.63 25.4804C178.673 25.168 178.455 24.8796 178.142 24.8364C177.83 24.7932 177.542 25.0114 177.498 25.3239L177.33 26.5381C177.287 26.8506 177.505 27.1389 177.818 27.1822C178.13 27.2254 178.419 27.0071 178.462 26.6947Z" fill="#FFF9ED"/>
<path fill-rule="evenodd" clip-rule="evenodd" d="M172.841 23.0585C172.725 23.0585 172.614 22.9617 172.507 22.7681L172.478 22.7246L166.859 12.1105C166.791 11.9943 166.757 11.9023 166.757 11.8346C166.757 11.6894 166.873 11.5539 167.106 11.428C167.338 11.3022 167.515 11.2393 167.636 11.2393C167.757 11.2393 167.88 11.3506 168.006 11.5732L173.611 22.1728C173.678 22.289 173.712 22.4051 173.712 22.5213C173.712 22.6375 173.596 22.756 173.364 22.877C173.132 22.998 172.957 23.0585 172.841 23.0585ZM173.313 17.3522C172.553 17.3522 171.963 17.1174 171.542 16.648C171.121 16.1785 170.91 15.5178 170.91 14.666C170.91 13.8141 171.121 13.1462 171.542 12.6622C171.963 12.1782 172.56 11.9362 173.335 11.9362C174.109 11.9362 174.714 12.1831 175.15 12.6767C175.585 13.1704 175.803 13.8335 175.803 14.666C175.803 15.4888 175.578 16.1422 175.128 16.6262C174.678 17.1102 174.073 17.3522 173.313 17.3522ZM174.017 15.3847C173.872 15.5348 173.654 15.6098 173.364 15.6098C172.783 15.6098 172.493 15.2855 172.493 14.6369C172.493 14.2885 172.56 14.0416 172.696 13.8964C172.831 13.7512 173.052 13.6786 173.357 13.6786C173.662 13.6786 173.884 13.7536 174.025 13.9037C174.165 14.0537 174.235 14.3006 174.235 14.6442C174.235 14.9878 174.162 15.2347 174.017 15.3847ZM167.193 22.652C166.428 22.652 165.838 22.4172 165.421 21.9478C165.005 21.4783 164.797 20.8152 164.797 19.9585C164.797 19.1018 165.005 18.4315 165.421 17.9475C165.838 17.4635 166.435 17.2215 167.215 17.2215C167.994 17.2215 168.601 17.4683 169.037 17.962C169.473 18.4557 169.69 19.1188 169.69 19.9513C169.69 20.7741 169.465 21.4299 169.015 21.9187C168.565 22.4076 167.958 22.652 167.193 22.652ZM167.897 20.6845C167.757 20.8346 167.541 20.9096 167.251 20.9096C166.66 20.9096 166.365 20.5805 166.365 19.9222C166.365 19.5737 166.435 19.3269 166.576 19.1817C166.716 19.0365 166.939 18.9639 167.244 18.9639C167.549 18.9639 167.769 19.0389 167.904 19.189C168.04 19.339 168.108 19.5883 168.108 19.9367C168.108 20.2852 168.037 20.5345 167.897 20.6845Z" fill="white"/>
<path fill-rule="evenodd" clip-rule="evenodd" d="M19.6255 21.1175C19.0244 21.2084 18.6056 21.7994 18.6913 22.4375L19.0244 24.9278C19.0617 25.2011 19.2807 25.4059 19.5407 25.4041C21.1634 25.3926 22.5847 26.6575 22.819 28.4112C23.0535 30.1647 22.02 31.7996 20.4592 32.2693C20.2086 32.3445 20.0517 32.6053 20.0882 32.8787L20.4215 35.3695C20.507 36.0078 21.0636 36.4512 21.6651 36.3609L43.2501 33.1566C43.8519 33.0692 44.2719 32.4801 44.19 31.8412L43.8667 29.3492C43.8319 29.0758 43.6129 28.8709 43.3531 28.8717C41.7304 28.8735 40.3145 27.6029 40.0869 25.848C39.8599 24.0931 40.9003 22.4632 42.4636 22.0014C42.7141 21.927 42.8723 21.6668 42.837 21.3935L42.5139 18.9016C42.4319 18.2625 41.8767 17.8159 41.275 17.9036" fill="#BBF0D3"/>
<path fill-rule="evenodd" clip-rule="evenodd" d="M24.117 22.9417L23.8374 20.9205C23.8028 20.6705 23.9774 20.4398 24.2274 20.4052C24.4773 20.3707 24.708 20.5453 24.7426 20.7952L25.0223 22.8164C25.0569 23.0664 24.8823 23.2971 24.6323 23.3316C24.3823 23.3662 24.1516 23.1916 24.117 22.9417ZM24.7322 27.3877L24.4526 25.3666C24.418 25.1166 24.5926 24.8859 24.8426 24.8513C25.0925 24.8167 25.3232 24.9913 25.3578 25.2413L25.6375 27.2625C25.6721 27.5124 25.4975 27.7431 25.2475 27.7777C24.9975 27.8123 24.7668 27.6377 24.7322 27.3877ZM25.0678 29.8126L25.3474 31.8338C25.382 32.0837 25.6127 32.2584 25.8627 32.2238C26.1127 32.1892 26.2873 31.9585 26.2527 31.7085L25.973 29.6874C25.9384 29.4374 25.7077 29.2628 25.4578 29.2974C25.2078 29.332 25.0332 29.5626 25.0678 29.8126ZM25.8174 35.2301L25.683 34.2587C25.6484 34.0087 25.823 33.778 26.073 33.7434C26.3229 33.7088 26.5536 33.8834 26.5882 34.1334L26.7226 35.1048C26.7572 35.3548 26.5826 35.5855 26.3326 35.62C26.0826 35.6546 25.852 35.48 25.8174 35.2301Z" fill="#FFF9ED"/>
<path fill-rule="evenodd" clip-rule="evenodd" d="M34.3803 32.3211C34.2874 32.3211 34.1984 32.2437 34.1132 32.0888L34.0899 32.054L29.5945 23.5627C29.5403 23.4698 29.5132 23.3962 29.5132 23.342C29.5132 23.2258 29.6062 23.1174 29.792 23.0167C29.9779 22.9161 30.1192 22.8657 30.216 22.8657C30.3128 22.8657 30.4115 22.9548 30.5122 23.1329L34.996 31.6126C35.0502 31.7055 35.0773 31.7984 35.0773 31.8914C35.0773 31.9843 34.9844 32.0791 34.7985 32.1759C34.6127 32.2727 34.4733 32.3211 34.3803 32.3211ZM34.7579 27.7561C34.15 27.7561 33.6776 27.5683 33.3407 27.1927C33.0038 26.8171 32.8354 26.2886 32.8354 25.6071C32.8354 24.9256 33.0038 24.3913 33.3407 24.0041C33.6776 23.6169 34.1558 23.4233 34.7753 23.4233C35.3948 23.4233 35.8788 23.6208 36.2273 24.0157C36.5758 24.4107 36.75 24.9411 36.75 25.6071C36.75 26.2653 36.57 26.7881 36.2099 27.1753C35.8498 27.5625 35.3658 27.7561 34.7579 27.7561ZM35.3212 26.1821C35.2051 26.3021 35.0308 26.3621 34.7985 26.3621C34.3339 26.3621 34.1016 26.1027 34.1016 25.5839C34.1016 25.3051 34.1558 25.1076 34.2642 24.9915C34.3726 24.8753 34.5488 24.8172 34.7927 24.8172C35.0366 24.8172 35.2148 24.8772 35.327 24.9973C35.4393 25.1173 35.4955 25.3148 35.4955 25.5897C35.4955 25.8646 35.4374 26.0621 35.3212 26.1821ZM29.8617 31.9959C29.2499 31.9959 28.7776 31.8081 28.4446 31.4325C28.1116 31.0569 27.9451 30.5265 27.9451 29.8411C27.9451 29.1558 28.1116 28.6195 28.4446 28.2323C28.7776 27.8451 29.2557 27.6515 29.8791 27.6515C30.5025 27.6515 30.9885 27.849 31.3369 28.2439C31.6854 28.6389 31.8597 29.1693 31.8597 29.8353C31.8597 30.4936 31.6796 31.0182 31.3195 31.4093C30.9594 31.8004 30.4735 31.9959 29.8617 31.9959ZM30.4251 30.4219C30.3128 30.542 30.1405 30.602 29.9082 30.602C29.4358 30.602 29.1996 30.3387 29.1996 29.8121C29.1996 29.5333 29.2557 29.3358 29.368 29.2197C29.4803 29.1035 29.6584 29.0454 29.9024 29.0454C30.1463 29.0454 30.3225 29.1055 30.4309 29.2255C30.5393 29.3455 30.5935 29.5449 30.5935 29.8237C30.5935 30.1025 30.5374 30.3019 30.4251 30.4219Z" fill="white"/>
<path fill-rule="evenodd" clip-rule="evenodd" d="M84.8876 87.2341L85.2372 84.7076C85.2805 84.3952 85.0622 84.1068 84.7497 84.0636C84.4373 84.0203 84.1489 84.2386 84.1057 84.551L83.7561 87.0775C83.7129 87.39 83.9311 87.6783 84.2436 87.7216C84.556 87.7648 84.8444 87.5465 84.8876 87.2341ZM84.1186 92.7917L84.4682 90.2652C84.5115 89.9527 84.2932 89.6644 83.9807 89.6211C83.6683 89.5779 83.3799 89.7962 83.3367 90.1086L82.9871 92.6351C82.9439 92.9475 83.1621 93.2359 83.4746 93.2791C83.787 93.3224 84.0754 93.1041 84.1186 92.7917ZM83.6992 95.8228L83.3496 98.3492C83.3064 98.6617 83.0181 98.8799 82.7056 98.8367C82.3931 98.7935 82.1749 98.5051 82.2181 98.1927L82.5677 95.6662C82.6109 95.3537 82.8993 95.1355 83.2117 95.1787C83.5242 95.222 83.7425 95.5103 83.6992 95.8228ZM82.7622 102.595L82.9302 101.38C82.9735 101.068 82.7552 100.78 82.4427 100.736C82.1303 100.693 81.8419 100.911 81.7987 101.224L81.6307 102.438C81.5874 102.75 81.8057 103.039 82.1182 103.082C82.4306 103.125 82.719 102.907 82.7622 102.595Z" fill="#FFF9ED"/>
<path fill-rule="evenodd" clip-rule="evenodd" d="M97.6484 60.6532L99.9577 59.5704C100.243 59.4364 100.366 59.0964 100.232 58.8107C100.098 58.5251 99.7583 58.4022 99.4727 58.5361L97.1634 59.6189C96.8778 59.7528 96.7549 60.0929 96.8888 60.3785C97.0227 60.6641 97.3628 60.7871 97.6484 60.6532ZM92.5686 63.0351L94.8779 61.9523C95.1635 61.8184 95.2864 61.4783 95.1525 61.1927C95.0186 60.9071 94.6785 60.7841 94.3929 60.918L92.0836 62.0009C91.798 62.1348 91.6751 62.4749 91.809 62.7605C91.9429 63.0461 92.283 63.169 92.5686 63.0351ZM89.7981 64.3342L87.4888 65.4171C87.2032 65.551 86.8631 65.428 86.7292 65.1424C86.5953 64.8568 86.7182 64.5167 87.0038 64.3828L89.3131 63.3C89.5987 63.1661 89.9388 63.289 90.0727 63.5746C90.2066 63.8602 90.0837 64.2003 89.7981 64.3342ZM83.6084 67.2366L84.7183 66.7162C85.0039 66.5823 85.1268 66.2422 84.9929 65.9566C84.859 65.671 84.5189 65.548 84.2333 65.6819L83.1235 66.2023C82.8379 66.3362 82.7149 66.6763 82.8488 66.9619C82.9827 67.2475 83.3228 67.3705 83.6084 67.2366Z" fill="#EBFFE0"/>
<path fill-rule="evenodd" clip-rule="evenodd" d="M77.1409 98.9584C77.0248 98.9584 76.9135 98.8616 76.807 98.668L76.7779 98.6245L71.1587 88.0104C71.0909 87.8942 71.0571 87.8022 71.0571 87.7345C71.0571 87.5893 71.1732 87.4538 71.4055 87.3279C71.6379 87.2021 71.8145 87.1392 71.9355 87.1392C72.0565 87.1392 72.1799 87.2505 72.3058 87.4731L77.9105 98.0727C77.9783 98.1889 78.0121 98.305 78.0121 98.4212C78.0121 98.5374 77.896 98.6559 77.6637 98.7769C77.4313 98.8979 77.2571 98.9584 77.1409 98.9584ZM77.6128 93.2521C76.853 93.2521 76.2625 93.0173 75.8414 92.5479C75.4203 92.0784 75.2098 91.4177 75.2098 90.5659C75.2098 89.714 75.4203 89.0461 75.8414 88.5621C76.2625 88.0781 76.8602 87.8361 77.6346 87.8361C78.409 87.8361 79.014 88.083 79.4496 88.5766C79.8852 89.0703 80.103 89.7334 80.103 90.5659C80.103 91.3887 79.878 92.0421 79.4278 92.5261C78.9777 93.0101 78.3727 93.2521 77.6128 93.2521ZM78.3171 91.2846C78.1719 91.4347 77.9541 91.5097 77.6637 91.5097C77.0829 91.5097 76.7925 91.1854 76.7925 90.5368C76.7925 90.1884 76.8602 89.9415 76.9957 89.7963C77.1313 89.6511 77.3515 89.5785 77.6564 89.5785C77.9613 89.5785 78.184 89.6535 78.3243 89.8036C78.4647 89.9536 78.5349 90.2005 78.5349 90.5441C78.5349 90.8877 78.4623 91.1346 78.3171 91.2846ZM71.4927 98.5519C70.7279 98.5519 70.1375 98.3171 69.7212 97.8477C69.305 97.3782 69.0969 96.7151 69.0969 95.8584C69.0969 95.0017 69.305 94.3314 69.7212 93.8474C70.1375 93.3634 70.7352 93.1214 71.5144 93.1214C72.2937 93.1214 72.9011 93.3682 73.3367 93.8619C73.7723 94.3556 73.9901 95.0187 73.9901 95.8512C73.9901 96.674 73.765 97.3298 73.3149 97.8186C72.8648 98.3075 72.2574 98.5519 71.4927 98.5519ZM72.1969 96.5844C72.0565 96.7345 71.8411 96.8095 71.5507 96.8095C70.9603 96.8095 70.665 96.4804 70.665 95.8221C70.665 95.4736 70.7352 95.2268 70.8756 95.0816C71.0159 94.9364 71.2386 94.8638 71.5435 94.8638C71.8484 94.8638 72.0686 94.9388 72.2041 95.0889C72.3397 95.2389 72.4074 95.4882 72.4074 95.8366C72.4074 96.1851 72.3372 96.4344 72.1969 96.5844Z" fill="white"/>
</g>
</g>
<path fill-rule="evenodd" clip-rule="evenodd" d="M313.166 45.1977L312.293 46.7939L310.698 47.6665C310.434 47.8109 310.434 48.1891 310.698 48.3335L312.293 49.2061L313.166 50.8023C313.31 51.0659 313.689 51.0659 313.833 50.8023L314.706 49.2061L316.302 48.3335C316.566 48.1891 316.566 47.8109 316.302 47.6665L314.706 46.7939L313.833 45.1977C313.689 44.9341 313.31 44.9341 313.166 45.1977Z" fill="#FFC54F"/>
<path fill-rule="evenodd" clip-rule="evenodd" d="M243.5 9.29656L242.19 11.6908L239.797 12.9997C239.401 13.2163 239.401 13.7837 239.797 14.0003L242.19 15.3092L243.5 17.7034C243.715 18.0989 244.284 18.0989 244.499 17.7034L245.809 15.3092L248.203 14.0003C248.599 13.7837 248.599 13.2163 248.203 12.9997L245.809 11.6908L244.499 9.29656C244.284 8.90115 243.715 8.90115 243.5 9.29656Z" fill="#FFD37B"/>
<path fill-rule="evenodd" clip-rule="evenodd" d="M212.5 51.2966L211.19 53.6908L208.797 54.9997C208.401 55.2163 208.401 55.7837 208.797 56.0003L211.19 57.3092L212.5 59.7034C212.715 60.0989 213.284 60.0989 213.499 59.7034L214.809 57.3092L217.203 56.0003C217.599 55.7837 217.599 55.2163 217.203 54.9997L214.809 53.6908L213.499 51.2966C213.284 50.9011 212.715 50.9011 212.5 51.2966Z" fill="#FFE7B8"/>
</svg>
