<svg width="120" height="120" viewBox="0 0 120 120" fill="none" xmlns="http://www.w3.org/2000/svg">
<path fill-rule="evenodd" clip-rule="evenodd" d="M115.5 60.75C115.5 90.9881 90.9873 115.5 60.75 115.5C30.5127 115.5 6 90.9881 6 60.75C6 30.5119 30.5127 6 60.75 6C90.9873 6 115.5 30.5119 115.5 60.75Z" fill="#EBFFE0"/>
<mask id="mask0_5567_159535" style="mask-type:alpha" maskUnits="userSpaceOnUse" x="99" y="49" width="4" height="13">
<path fill-rule="evenodd" clip-rule="evenodd" d="M102.078 49.9522L102.156 60.7854C102.161 61.2712 101.769 61.6711 101.281 61.6738L99.7295 61.6856L99.6358 49.0876L101.187 49.0757C101.189 49.0757 101.191 49.0757 101.193 49.0757C101.679 49.0757 102.073 49.4677 102.078 49.9522Z" fill="white"/>
</mask>
<g mask="url(#mask0_5567_159535)">
<path fill-rule="evenodd" clip-rule="evenodd" d="M107.597 67.1251H94.1974V43.6357H107.597V67.1251Z" fill="#1868AB"/>
</g>
<mask id="mask1_5567_159535" style="mask-type:alpha" maskUnits="userSpaceOnUse" x="25" y="23" width="76" height="140">
<path fill-rule="evenodd" clip-rule="evenodd" d="M26.0332 36.3007L25.1171 149.232C25.0604 156.34 30.7733 162.152 37.8815 162.213L86.6463 162.635H86.8667C93.8799 162.579 99.5757 156.903 99.6338 149.864L100.55 36.9475C100.593 29.8446 95.7569 24.0419 89.7509 23.9917L36.9918 23.5337C36.9654 23.5337 36.9377 23.5337 36.9113 23.5337C30.941 23.5337 26.0768 29.2321 26.0332 36.3007Z" fill="white"/>
</mask>
<g mask="url(#mask1_5567_159535)">
<path fill-rule="evenodd" clip-rule="evenodd" d="M105.937 93.4503L105.989 17.1021H19.5738C19.5738 17.1021 11.876 85.5249 18.0998 94.2266C24.3236 102.928 42.5489 115.56 61.7298 115.56C80.92 115.56 94.7165 107.107 105.937 93.4503Z" fill="#5297D1"/>
</g>
<mask id="mask2_5567_159535" style="mask-type:alpha" maskUnits="userSpaceOnUse" x="29" y="28" width="67" height="88">
<path fill-rule="evenodd" clip-rule="evenodd" d="M29.9022 105.214C36.995 110.471 46.3679 115.56 61.7301 115.662C77.0924 115.764 87.8865 110.471 94.9967 104.362V65.9844L95.8137 38.3256C95.8454 33.3981 92.688 29.3734 88.7663 29.3391L80.2787 29.2652C79.191 29.2546 78.2366 29.0896 77.966 30.4149L77.6651 31.888C77.3945 33.2133 76.4401 34.136 75.3537 34.1267L51.2189 33.9142C50.1312 33.905 49.1887 32.9651 48.9339 31.6372L48.6501 30.1575C48.4218 28.9576 47.6324 28.9629 46.6807 28.9668C46.5791 28.9668 46.4735 28.9668 46.3679 28.9668L37.8816 28.8916C37.8644 28.8916 37.8486 28.8916 37.8327 28.8916C33.9295 28.8916 30.7509 32.8463 30.7206 37.7554L29.9022 105.214Z" fill="white"/>
</mask>
<g mask="url(#mask2_5567_159535)">
<path fill-rule="evenodd" clip-rule="evenodd" d="M102.245 99.264L101.255 21.062H24.387C24.387 21.062 18.637 89.582 23.257 100.015C27.877 110.449 47.1644 115.662 63.0651 115.662C80.6796 114.837 95.4088 107.835 102.245 99.264Z" fill="white"/>
</g>
<mask id="mask3_5567_159535" style="mask-type:alpha" maskUnits="userSpaceOnUse" x="23" y="49" width="3" height="13">
<path fill-rule="evenodd" clip-rule="evenodd" d="M23.4422 49.9522L23.3643 60.7854C23.359 61.2712 23.7511 61.6711 24.2395 61.6738L25.7905 61.6856L25.8842 49.0876L24.3332 49.0757C24.3306 49.0757 24.3292 49.0757 24.3266 49.0757C23.8408 49.0757 23.4475 49.4677 23.4422 49.9522Z" fill="white"/>
</mask>
<g mask="url(#mask3_5567_159535)">
<path fill-rule="evenodd" clip-rule="evenodd" d="M17.9233 67.1251H31.3227V43.6357H17.9233V67.1251Z" fill="#1868AB"/>
</g>
<mask id="mask4_5567_159535" style="mask-type:alpha" maskUnits="userSpaceOnUse" x="23" y="63" width="3" height="14">
<path fill-rule="evenodd" clip-rule="evenodd" d="M23.3353 64.6188L23.2574 75.4534C23.2521 75.9405 23.6441 76.3391 24.1312 76.3431L25.6835 76.3549L25.7759 63.7555L24.2236 63.7437C24.2223 63.7437 24.2197 63.7437 24.217 63.7437C23.7339 63.7437 23.3392 64.1344 23.3353 64.6188Z" fill="white"/>
</mask>
<g mask="url(#mask4_5567_159535)">
<path fill-rule="evenodd" clip-rule="evenodd" d="M17.8164 81.7931H31.2144V58.3037H17.8164V81.7931Z" fill="#1868AB"/>
</g>
<mask id="mask5_5567_159535" style="mask-type:alpha" maskUnits="userSpaceOnUse" x="54" y="28" width="14" height="3">
<path fill-rule="evenodd" clip-rule="evenodd" d="M54.977 29.2399L54.9756 29.463C54.969 30.086 55.4746 30.5982 56.0976 30.6021L66.3607 30.6787C66.985 30.6826 67.4945 30.1784 67.4998 29.554V29.331C67.5077 28.7053 67.0035 28.1958 66.3778 28.1905L56.1174 28.1152C56.1148 28.1152 56.1122 28.1152 56.1108 28.1152C55.4891 28.1152 54.9809 28.6168 54.977 29.2399Z" fill="white"/>
</mask>
<g mask="url(#mask5_5567_159535)">
<path fill-rule="evenodd" clip-rule="evenodd" d="M49.5347 36.1182H72.9409V22.6753H49.5347V36.1182Z" fill="#1868AB"/>
</g>
<mask id="mask6_5567_159535" style="mask-type:alpha" maskUnits="userSpaceOnUse" x="69" y="27" width="5" height="4">
<path fill-rule="evenodd" clip-rule="evenodd" d="M69.9908 29.3349C69.9829 30.2153 70.6943 30.9374 71.5761 30.944C72.4605 30.9506 73.1799 30.2391 73.1878 29.356C73.1931 28.4729 72.4829 27.7509 71.5999 27.7456C71.5959 27.7456 71.5919 27.7456 71.5867 27.7456C70.7089 27.7456 69.9947 28.4531 69.9908 29.3349Z" fill="white"/>
</mask>
<g mask="url(#mask6_5567_159535)">
<path fill-rule="evenodd" clip-rule="evenodd" d="M64.5498 36.3835H78.6263V22.3057H64.5498V36.3835Z" fill="#1868AB"/>
</g>
<g clip-path="url(#clip0_5567_159535)">
<circle cx="18" cy="19.5" r="16.5" fill="#28D677"/>
<path d="M11.776 28V25.24L17.08 19.672C17.752 18.936 18.232 18.296 18.52 17.752C18.824 17.192 18.976 16.632 18.976 16.072C18.976 14.632 18.088 13.912 16.312 13.912C15.624 13.912 14.936 14.048 14.248 14.32C13.56 14.576 12.888 14.976 12.232 15.52L11.032 12.784C11.736 12.176 12.6 11.696 13.624 11.344C14.664 10.992 15.728 10.816 16.816 10.816C18.704 10.816 20.144 11.24 21.136 12.088C22.144 12.92 22.648 14.112 22.648 15.664C22.648 16.688 22.408 17.672 21.928 18.616C21.464 19.544 20.696 20.552 19.624 21.64L16.36 24.952H23.272V28H11.776Z" fill="white"/>
</g>
<rect x="30.1499" y="75.1499" width="64.8" height="5.4" rx="0.9" fill="#C4E4FF"/>
<path fill-rule="evenodd" clip-rule="evenodd" d="M64.3788 105.206H33.6892C32.8441 105.206 32.1597 104.522 32.1597 103.677V84.9295C32.1597 84.0844 32.8441 83.3999 33.6892 83.3999H64.3788C65.2239 83.3999 65.9097 84.0844 65.9097 84.9295V103.677C65.9097 104.522 65.2239 105.206 64.3788 105.206Z" fill="#BBF0D3"/>
<path fill-rule="evenodd" clip-rule="evenodd" d="M94.9479 105.206H71.6535C70.7678 105.206 70.0479 104.522 70.0479 103.677V84.9295C70.0479 84.0844 70.7678 83.3999 71.6535 83.3999H94.9479V105.206Z" fill="#BBF0D3"/>
<path fill-rule="evenodd" clip-rule="evenodd" d="M103.52 79.5H19.4782C17.8335 79.5 16.5 77.9518 16.5 76.0424V67.96C16.5 66.0482 17.8335 64.5 19.4782 64.5H103.52C105.166 64.5 106.5 66.0482 106.5 67.96V76.0424C106.5 77.9518 105.166 79.5 103.52 79.5Z" fill="#00AB4E"/>
<path fill-rule="evenodd" clip-rule="evenodd" d="M55.0107 69V74.9327H54V69H55.0107ZM57.1762 72.6017V74.9327H56.1969V70.8177H57.1527V71.432C57.2832 71.202 57.4582 71.0252 57.6776 70.9018C57.897 70.7784 58.145 70.7167 58.4219 70.7167C58.8815 70.7167 59.2236 70.8569 59.4482 71.1374C59.6728 71.418 59.7851 71.8415 59.7851 72.4081V74.9327H58.8058V72.467C58.8058 72.1473 58.7496 71.9144 58.6373 71.7686C58.525 71.6227 58.3487 71.5498 58.1085 71.5498C57.8264 71.5498 57.6005 71.6452 57.4308 71.8359C57.261 72.0266 57.1762 72.2819 57.1762 72.6017ZM62.2718 75C62.7628 75 63.1519 74.8878 63.4392 74.6634C63.7264 74.439 63.8701 74.136 63.8701 73.7546C63.8701 73.4404 63.7813 73.1865 63.6037 72.993C63.4261 72.7994 63.1467 72.6578 62.7654 72.568L62.1151 72.4081C61.948 72.3689 61.8265 72.3128 61.7508 72.2398C61.6751 72.1669 61.6372 72.0743 61.6372 71.9621C61.6372 71.8107 61.6973 71.6928 61.8174 71.6087C61.9375 71.5245 62.1047 71.4825 62.3188 71.4825C62.7158 71.4825 63.1127 71.6367 63.5097 71.9453L63.7839 71.23C63.5906 71.0673 63.3673 70.9411 63.114 70.8513C62.8607 70.7616 62.5982 70.7167 62.3266 70.7167C62.0133 70.7167 61.7378 70.77 61.5001 70.8766C61.2625 70.9832 61.077 71.1332 60.9439 71.3268C60.8107 71.5203 60.7441 71.7433 60.7441 71.9958C60.7441 72.2987 60.8303 72.5456 61.0026 72.7363C61.175 72.9271 61.4387 73.0645 61.7939 73.1487L62.4207 73.3001C62.6296 73.3562 62.7745 73.418 62.8555 73.4853C62.9364 73.5526 62.9769 73.648 62.9769 73.7714C62.9769 73.9173 62.9182 74.0295 62.8006 74.108C62.6831 74.1865 62.5121 74.2258 62.2875 74.2258C61.76 74.2258 61.2925 74.0659 60.8851 73.7461L60.6109 74.4783C60.8094 74.6466 61.0509 74.7756 61.3356 74.8654C61.6202 74.9551 61.9323 75 62.2718 75ZM66.9365 74.9663C66.7799 74.9832 66.6362 74.9916 66.5056 74.9916C65.9677 74.9916 65.5707 74.8583 65.3148 74.5919C65.0589 74.3254 64.9309 73.9285 64.9309 73.4011V71.6087H64.1945V70.8177H64.9309V69.5891H65.9102V70.8177H66.9209V71.6087H65.9102V73.3843C65.9102 73.9341 66.1479 74.209 66.6232 74.209C66.7381 74.209 66.8582 74.2006 66.9836 74.1837L66.9365 74.9663ZM68.8592 75C69.1099 75 69.3306 74.9383 69.5212 74.8149C69.7118 74.6914 69.8516 74.5203 69.9404 74.3015V74.9327H70.8727V72.4334C70.8727 71.8499 70.7421 71.418 70.4809 71.1374C70.2198 70.8569 69.8202 70.7167 69.2823 70.7167C69.0107 70.7167 68.7234 70.7644 68.4205 70.8597C68.1175 70.9551 67.859 71.0757 67.6448 71.2216L67.919 71.9453C68.1332 71.8107 68.3512 71.7055 68.5732 71.6297C68.7952 71.554 69.008 71.5161 69.2117 71.5161C69.4729 71.5161 69.6596 71.5778 69.7719 71.7013C69.8842 71.8247 69.9404 72.0266 69.9404 72.3072V72.5007H69.7445C69.1752 72.5007 68.7286 72.54 68.4048 72.6185C68.081 72.6971 67.8472 72.8233 67.7036 72.9972C67.56 73.1711 67.4881 73.4095 67.4881 73.7125C67.4881 73.9537 67.5482 74.1725 67.6683 74.3689C67.7885 74.5652 67.953 74.7195 68.1619 74.8317C68.3708 74.9439 68.6033 75 68.8592 75ZM68.6163 74.0701C68.7312 74.1851 68.8775 74.2426 69.0551 74.2426C69.3162 74.2426 69.529 74.1487 69.6936 73.9607C69.8581 73.7728 69.9404 73.5302 69.9404 73.2328V73.0561H69.7993C69.4494 73.0561 69.1778 73.0729 68.9845 73.1066C68.7913 73.1403 68.6529 73.1992 68.5693 73.2833C68.4857 73.3675 68.444 73.4825 68.444 73.6283C68.444 73.8079 68.5014 73.9551 68.6163 74.0701ZM72.9285 74.9327V69H71.9492V74.9327H72.9285ZM75 69V74.9327H74.0207V69H75Z" fill="white"/>
<path fill-rule="evenodd" clip-rule="evenodd" d="M98.932 101.735C97.6997 103.313 96.1118 104.486 94.5242 105.685C91.993 101.814 90.7429 95.0453 91.6028 90.4378C91.8674 89.0473 93.6751 86.2163 96.4102 84.9959C99.1993 83.7526 102.342 84.5599 102.342 84.5599C105.266 81.7789 108.765 82.0899 111.15 81.9697C110.637 86.426 104.597 94.4801 98.932 101.735Z" fill="#FFDAB8"/>
<path fill-rule="evenodd" clip-rule="evenodd" d="M92.5373 88.3669C92.0135 89.1553 91.6841 89.9032 91.5815 90.4378C91.4681 91.048 91.3898 91.6974 91.3493 92.3724C91.0752 96.7882 97.5647 103.167 98.9106 101.735C99.5127 101.101 100.273 100.262 100.828 99.6246L93.6294 87.021L92.5373 88.3669Z" fill="#FFB490"/>
<path fill-rule="evenodd" clip-rule="evenodd" d="M89.4757 108.901C89.1504 109.069 88.8169 109.238 88.4916 109.397C85.5499 110.826 82.3896 111.877 79.0699 112.474C78.3004 111.669 77.7442 110.765 77.5107 109.763C76.4901 105.26 80.6265 101.115 82.8864 99.2372C83.6991 98.5582 84.2701 98.1802 84.2701 98.1802C84.2701 98.1802 87.0984 103.618 89.4757 108.901Z" fill="#FFDAB8"/>
<path fill-rule="evenodd" clip-rule="evenodd" d="M79.695 109.349C78.5421 106.08 80.0609 102.7 81.8847 100.12C79.6032 102.244 76.6278 105.868 77.5107 109.765C77.7443 110.766 78.3005 111.669 79.07 112.474C79.9097 112.323 80.7399 112.142 81.5594 111.934C80.7089 111.187 80.0487 110.333 79.695 109.349Z" fill="#FFB490"/>
<path fill-rule="evenodd" clip-rule="evenodd" d="M98.9327 101.735C97.5867 103.167 96.1098 104.486 94.5236 105.685C92.9387 106.892 91.2525 107.968 89.4759 108.902C89.1506 109.071 88.8158 109.24 88.4918 109.398L82.8866 99.2362L73.5176 79.9002C71.7963 76.7938 71.5115 72.625 74.6165 70.9146C75.6209 70.3692 76.7036 70.1046 77.7647 70.114C80.0057 70.1343 82.5491 73.2123 83.7128 75.3142L90.5546 86.5395L98.9327 101.735Z" fill="#FFDAB8"/>
<path fill-rule="evenodd" clip-rule="evenodd" d="M84.4555 98.2202L74.9218 78.5413C73.611 76.1747 73.1196 73.2034 74.2792 71.1284C71.5401 72.9482 71.8573 76.9132 73.5124 79.9007L82.8814 99.2368L88.4866 109.397C88.812 109.239 89.1468 109.07 89.4708 108.901C89.6989 108.781 89.9109 108.64 90.1363 108.515L84.4555 98.2202Z" fill="#FFB490"/>
<path fill-rule="evenodd" clip-rule="evenodd" d="M63.0981 44.9258C66.4003 44.9257 69.0615 47.5846 69.0639 50.8865C69.0663 54.1707 66.3976 56.8494 63.1219 56.8509C59.8077 56.8523 57.1461 54.1904 57.148 50.8761C57.1498 47.5851 59.8089 44.9259 63.0981 44.9258ZM65.7674 48.9825C65.901 49.0585 65.9763 49.0987 66.049 49.143C66.1672 49.2152 66.2747 49.2477 66.3663 49.1002C66.4635 48.9435 66.3663 48.8812 66.2472 48.8136C65.0534 48.1364 63.7857 47.7886 62.4036 47.9385C61.5311 48.0331 60.7249 48.3185 59.9789 48.7766C59.8697 48.8436 59.7277 48.904 59.839 49.0805C59.9521 49.2598 60.069 49.1729 60.1912 49.0946C60.2589 49.0513 60.3318 49.016 60.4452 48.9533C60.3999 49.0645 60.3756 49.1274 60.3488 49.1891C59.8444 50.3509 59.34 51.5125 58.8348 52.6739C58.6617 53.0717 58.7263 53.2869 59.1025 53.5122C59.2149 53.5795 59.3365 53.637 59.4608 53.6781C60.229 53.9324 61.0041 53.9262 61.7814 53.7222C61.9627 53.6747 62.1325 53.5967 62.2909 53.4967C62.6322 53.2813 62.6949 53.0597 62.5333 52.6887C61.9904 51.4422 61.4534 50.1932 60.904 48.9496C60.8287 48.7792 60.8748 48.7303 61.0294 48.6706C62.4073 48.1382 63.7772 48.1704 65.1488 48.6973C65.3369 48.7695 65.3496 48.846 65.2734 49.0182C64.7459 50.2118 64.2286 51.4098 63.7077 52.6063C63.4941 53.0972 63.5792 53.3451 64.0639 53.5778C64.6646 53.8662 65.3057 53.9051 65.9565 53.8458C66.3693 53.8082 66.7724 53.7258 67.1302 53.4988C67.4731 53.2815 67.5392 53.0593 67.3788 52.6922C67.1206 52.1014 66.8637 51.51 66.6068 50.9186C66.3354 50.2935 66.0646 49.6682 65.7674 48.9825Z" fill="#02A750"/>
<path fill-rule="evenodd" clip-rule="evenodd" d="M63.0839 61.2644C60.1043 61.2242 57.5668 60.1394 55.5225 57.9731C53.8774 56.2299 52.9629 54.1384 52.7623 51.7433C52.7442 51.5266 52.7434 51.3084 52.7242 51.0918C52.714 50.9757 52.7533 50.9464 52.8658 50.9491C53.1686 50.9565 53.4719 50.9567 53.7748 50.9485C53.9194 50.9447 53.8907 51.0378 53.8932 51.1191C53.9189 51.939 54.0362 52.746 54.276 53.5303C54.7224 54.9902 55.4771 56.2705 56.5541 57.3565C57.7355 58.5478 59.134 59.3725 60.7584 59.7925C62.4923 60.2409 64.2204 60.2054 65.9291 59.6479C68.0186 58.9661 69.6647 57.6985 70.8537 55.8547C71.9033 54.2268 72.3809 52.4351 72.2987 50.4958C72.2014 48.2004 71.3538 46.2114 69.7846 44.553C68.2263 42.906 66.2972 41.9559 64.03 41.7275C62.1514 41.5382 60.3781 41.891 58.7177 42.7927C58.5898 42.8622 58.512 42.8621 58.4358 42.7297C58.3041 42.5008 58.1696 42.2727 58.0219 42.054C57.9325 41.9216 57.9669 41.8606 58.0952 41.7892C58.8815 41.3519 59.7125 41.0255 60.5839 40.8112C62.1965 40.4147 63.8186 40.3945 65.4374 40.7689C67.4523 41.235 69.1852 42.215 70.6075 43.7165C72.376 45.5834 73.3388 47.8078 73.465 50.3812C73.5883 52.8938 72.8906 55.1678 71.3674 57.1628C69.7288 59.3089 67.5609 60.6247 64.8968 61.1098C64.2977 61.219 63.6944 61.2642 63.0839 61.2644Z" fill="#BAD333"/>
<path fill-rule="evenodd" clip-rule="evenodd" d="M63.1265 42.8233C66.0899 42.9235 68.3922 44.1972 70.0023 46.7055C70.0916 46.8447 70.0762 46.9123 69.9322 46.9913C69.7283 47.1032 69.5287 47.2273 69.3435 47.3675C69.1764 47.494 69.0888 47.4848 68.9736 47.2929C68.4071 46.3498 67.6438 45.5973 66.7108 45.0142C64.1481 43.4128 60.7148 43.7271 58.487 45.7802C56.8937 47.2485 56.1392 49.0757 56.2243 51.2386C56.3521 54.4862 58.9005 57.301 62.1289 57.6951C65.0643 58.0535 67.3489 56.9394 68.9766 54.4759C69.0537 54.3592 69.1022 54.3293 69.2245 54.4172C69.4452 54.5759 69.6742 54.7244 69.9087 54.8617C70.0483 54.9434 70.0361 55.0165 69.9588 55.136C68.6726 57.1264 66.8798 58.389 64.5443 58.8114C60.9304 59.465 57.4483 57.672 55.8268 54.3672C53.9567 50.5556 55.5258 45.7619 59.2899 43.7812C60.4895 43.15 61.7615 42.8178 63.1265 42.8233Z" fill="#74BC46"/>
<path fill-rule="evenodd" clip-rule="evenodd" d="M65.7674 48.9828C66.0647 49.6686 66.3354 50.2938 66.6069 50.9189C66.8637 51.5103 67.1207 52.1016 67.3788 52.6924C67.5393 53.0596 67.4732 53.2817 67.1302 53.4991C66.7724 53.726 66.3694 53.8084 65.9565 53.846C65.3057 53.9053 64.6647 53.8665 64.0639 53.578C63.5793 53.3454 63.4942 53.0974 63.7078 52.6066C64.2286 51.4101 64.746 50.212 65.2735 49.0185C65.3496 48.8463 65.3369 48.7698 65.1489 48.6975C63.7773 48.1707 62.4074 48.1384 61.0294 48.6709C60.8748 48.7305 60.8288 48.7794 60.9041 48.9499C61.4535 50.1934 61.9905 51.4425 62.5334 52.6889C62.695 53.0599 62.6323 53.2815 62.291 53.4969C62.1326 53.5969 61.9627 53.675 61.7815 53.7225C61.0041 53.9264 60.229 53.9327 59.4608 53.6784C59.3366 53.6372 59.215 53.5798 59.1026 53.5125C58.7264 53.2872 58.6618 53.072 58.8349 52.6741C59.3401 51.5128 59.8445 50.3511 60.3489 49.1894C60.3757 49.1277 60.3999 49.0648 60.4453 48.9536C60.3319 49.0163 60.259 49.0516 60.1913 49.0949C60.0691 49.1732 59.9521 49.2601 59.8391 49.0807C59.7277 48.9043 59.8698 48.8439 59.9789 48.7768C60.725 48.3187 61.5312 48.0333 62.4036 47.9387C63.7857 47.7889 65.0535 48.1366 66.2472 48.8138C66.3664 48.8814 66.4636 48.9437 66.3664 49.1004C66.2748 49.2479 66.1673 49.2154 66.049 49.1433C65.9763 49.099 65.901 49.0587 65.7674 48.9828ZM60.6989 49.3351C60.6675 49.365 60.6516 49.3734 60.646 49.3864C60.1965 50.4173 59.7495 51.4493 59.2974 52.4791C59.2296 52.6335 59.313 52.6263 59.4199 52.626C60.1809 52.6242 60.9419 52.6249 61.7029 52.6248C61.8327 52.6248 61.9625 52.6248 62.1271 52.6248C61.6429 51.5097 61.1729 50.4269 60.6989 49.3351ZM65.5429 49.3392C65.5114 49.3683 65.488 49.3801 65.4799 49.3987C65.035 50.423 64.5926 51.4485 64.1458 52.472C64.0847 52.6121 64.142 52.6269 64.2627 52.6265C65.1014 52.6235 65.9401 52.6215 66.7787 52.6276C66.9606 52.6289 66.9449 52.5641 66.8869 52.4357C66.7338 52.0964 66.5917 51.7522 66.4436 51.4107C66.1455 50.7234 65.8462 50.0367 65.5429 49.3392Z" fill="#F3FAF6"/>
<path fill-rule="evenodd" clip-rule="evenodd" d="M60.699 49.335C61.173 50.4268 61.643 51.5095 62.1272 52.6246C61.9625 52.6246 61.8327 52.6246 61.7029 52.6246C60.942 52.6247 60.181 52.624 59.42 52.6258C59.313 52.6261 59.2297 52.6333 59.2975 52.4789C59.7496 51.4491 60.1966 50.4172 60.646 49.3862C60.6516 49.3733 60.6676 49.3648 60.699 49.335Z" fill="#04A650"/>
<path fill-rule="evenodd" clip-rule="evenodd" d="M65.5429 49.3389C65.8462 50.0364 66.1455 50.7231 66.4436 51.4104C66.5917 51.7518 66.7338 52.0962 66.8869 52.4354C66.9448 52.5637 66.9605 52.6286 66.7786 52.6273C65.94 52.6212 65.1013 52.6232 64.2626 52.6262C64.142 52.6266 64.0847 52.6118 64.1458 52.4717C64.5926 51.4482 65.0349 50.4227 65.4799 49.3984C65.4879 49.3798 65.5114 49.368 65.5429 49.3389Z" fill="#04A650"/>
<defs>
<clipPath id="clip0_5567_159535">
<rect width="33" height="33" fill="white" transform="translate(1.5 3)"/>
</clipPath>
</defs>
</svg>
