<svg width="329" height="165" viewBox="0 0 329 165" fill="none" xmlns="http://www.w3.org/2000/svg">
<path d="M23.7874 162.074C34.2389 164.232 265.379 166.385 302.165 162.074C313.055 160.798 321.772 148.881 323.044 146.813C330.996 133.881 328.014 54.128 326.026 27.184C324.956 12.6832 310.119 6.16794 303.159 4.01261C289.849 -0.109375 53.8182 -0.274812 22.7924 5.09074C8.91131 7.49051 3.87937 18.8109 2.88037 25.1031C0.549712 39.7703 -0.827904 129.984 2.90834 142.136C5.89135 151.835 13.3479 159.919 23.7874 162.074Z" fill="#D4F7E4"/>
<mask id="mask0_5567_145068" style="mask-type:alpha" maskUnits="userSpaceOnUse" x="0" y="0" width="329" height="165">
<path fill-rule="evenodd" clip-rule="evenodd" d="M23.7874 162.074C34.2389 164.232 265.379 166.385 302.165 162.074C313.055 160.798 321.772 148.881 323.044 146.813C330.996 133.881 328.014 54.128 326.026 27.184C324.956 12.6832 310.119 6.16794 303.159 4.01261C289.849 -0.109375 53.8182 -0.274812 22.7924 5.09074C8.91131 7.49051 3.87937 18.8109 2.88037 25.1031C0.549712 39.7703 -0.827904 129.984 2.90834 142.136C5.89135 151.835 13.3479 159.919 23.7874 162.074Z" fill="white"/>
</mask>
<g mask="url(#mask0_5567_145068)">
<path d="M354.237 239.763C354.237 344.092 269.48 428.668 164.927 428.668C60.3737 428.668 -24.3831 344.092 -24.3831 239.763C-24.3831 135.433 60.3737 50.8569 164.927 50.8569C269.48 50.8569 354.237 135.433 354.237 239.763Z" fill="#EDFFF5"/>
</g>
<mask id="mask1_5567_145068" style="mask-type:alpha" maskUnits="userSpaceOnUse" x="0" y="0" width="329" height="165">
<path fill-rule="evenodd" clip-rule="evenodd" d="M23.7874 162.074C34.2389 164.232 265.379 166.385 302.165 162.074C313.055 160.798 321.772 148.881 323.044 146.813C330.996 133.881 328.014 54.128 326.026 27.184C324.956 12.6832 310.119 6.16794 303.159 4.01261C289.849 -0.109375 53.8182 -0.274812 22.7924 5.09074C8.91131 7.49051 3.87937 18.8109 2.88037 25.1031C0.549712 39.7703 -0.827904 129.984 2.90834 142.136C5.89135 151.835 13.3479 159.919 23.7874 162.074Z" fill="white"/>
</mask>
<g mask="url(#mask1_5567_145068)">
<path d="M193.667 149.391C193.667 149.391 205.791 148.223 207.754 147.501C209.718 146.779 230.046 136.771 232.009 136.254C233.973 135.74 233.588 129.257 225.217 130.082C216.846 130.908 209.512 135.223 202.484 136.564C195.457 137.904 193.667 149.391 193.667 149.391Z" fill="#E79E5C"/>
<mask id="mask2_5567_145068" style="mask-type:alpha" maskUnits="userSpaceOnUse" x="96" y="112" width="102" height="73">
<path fill-rule="evenodd" clip-rule="evenodd" d="M96.2568 112.186H197.13V184.9H96.2568V112.186Z" fill="white"/>
</mask>
<g mask="url(#mask2_5567_145068)">
<path d="M196.389 121.297C195.977 122.323 182.752 127.688 179.124 128.524C175.983 129.242 172.988 129.169 168.98 130.59C168.951 130.605 168.906 130.62 168.877 130.634C168.643 130.708 168.392 130.796 168.143 130.898C168.129 130.913 168.113 130.913 168.113 130.913C167.805 131.03 167.483 131.162 167.144 131.308C167.144 131.308 168.774 133.185 182.633 135.78C183.999 136.042 185.482 136.307 187.082 136.57C187.082 136.57 191.736 138.828 187.713 151.214C187.713 151.214 180.886 156.271 174.06 157.502C167.247 158.748 164.615 158.159 150.669 160.945C136.722 163.73 135.664 174.068 129.455 184.9C129.455 184.9 103.157 185.037 96.2568 170.877C96.2568 170.877 112.267 139.766 114.748 137.083C116.584 135.105 119.637 129.477 125.847 125.093V125.078C128.049 123.526 130.663 122.118 133.76 121.091C145.549 117.163 158.879 117.368 160.95 117.471C163.005 117.574 170.346 117.398 172.621 117.442C174.338 117.471 177.055 115.888 179.301 114.848C180.035 114.51 180.71 114.218 181.297 114.07C183.675 113.455 194.936 110.157 196.389 114.07C197.827 117.999 196.8 120.256 196.389 121.297Z" fill="#F2CBA8"/>
</g>
<path d="M174.66 157.387C183.315 154.892 210.028 141.413 211.991 140.691C213.955 139.969 230.149 117.197 229.736 115.856C229.322 114.515 226.126 111.911 222.663 113.509C218.808 115.291 209.925 127.072 207.651 129.342C205.378 131.612 198.558 132.954 198.558 132.954L174.66 157.387Z" fill="#F2CBA8"/>
<mask id="mask3_5567_145068" style="mask-type:alpha" maskUnits="userSpaceOnUse" x="168" y="111" width="30" height="20">
<path fill-rule="evenodd" clip-rule="evenodd" d="M192.558 111.785C190.491 111.785 188.159 112.597 186.846 112.938C186.258 113.083 184.266 113.118 183.53 113.455C182.517 113.72 182.615 116.702 180.784 120.228C176.322 128.811 171.765 129.47 168.98 130.59C172.987 129.169 175.983 129.242 179.124 128.523C182.751 127.688 195.978 122.324 196.39 121.297C196.8 120.256 197.827 117.999 196.39 114.071C195.74 112.319 194.237 111.785 192.562 111.785C192.561 111.785 192.56 111.785 192.558 111.785Z" fill="white"/>
</mask>
<g mask="url(#mask3_5567_145068)">
<path d="M164.79 134.774H201.32V107.601H164.79V134.774Z" fill="#E79E5C"/>
</g>
<path d="M172.412 157.68C178.199 157.613 197.318 136.358 200.521 131.199C203.725 126.041 203.466 118.071 206.928 106.436C209.374 98.2162 209.895 98.2122 208.618 96.9371C208.156 96.4751 202.234 94.3877 199.68 102.037C197.092 109.788 191.645 125.655 190.653 126.522C189.661 127.392 175.616 142.033 175.616 142.033L172.412 157.68Z" fill="#F2CBA8"/>
<path d="M127.908 137.561C127.908 137.561 136.313 131.508 147.059 134.948C157.808 138.387 161.837 136.565 165.282 136.151C168.727 135.739 179.026 128.206 180.129 125.043C181.072 122.336 183.426 116.61 184.087 115.011C184.204 114.728 184.263 114.457 184.274 114.151C184.338 112.467 184.731 106.31 187.11 102.709C188.468 100.651 191.675 101.469 191.874 103.926C192.153 107.378 192.483 112.273 192.357 114.897C192.15 119.23 189.361 128.722 188.637 130.58C187.914 132.437 177.167 145.746 177.167 145.746" fill="#F2CBA8"/>
<path d="M170.615 133.745C168.746 134.901 164.548 136.833 157.209 136.976C146.681 137.184 146.06 133.159 138.725 133.365C131.387 133.571 127.254 137.803 127.254 137.803" stroke="#E79E5C" stroke-width="0.812" stroke-linecap="round"/>
<path d="M168.113 130.913C168.113 130.913 162.553 126.659 160.147 122.894" stroke="#E79E5C" stroke-width="0.812" stroke-linecap="round"/>
<path d="M189.615 127.548C189.615 127.548 187.508 135.2 186.622 138.112C186.002 140.151 178.476 146.453 178.476 146.453" stroke="#E79E5C" stroke-width="0.812" stroke-linecap="round"/>
<mask id="mask4_5567_145068" style="mask-type:alpha" maskUnits="userSpaceOnUse" x="174" y="132" width="28" height="26">
<path fill-rule="evenodd" clip-rule="evenodd" d="M199.434 132.76C199.434 132.76 189.085 151.438 174.059 157.502C174.059 157.502 190.085 153.124 201.766 132.144L199.434 132.76Z" fill="white"/>
</mask>
<g mask="url(#mask4_5567_145068)">
<path d="M169.87 161.686H205.957V127.961H169.87V161.686Z" fill="#E79E5C"/>
</g>
<path d="M163.159 18.6132L158.242 17.9963C156.588 17.7184 154.872 18.496 153.436 20.4188L147.222 28.744C144.161 32.8457 143.537 40.5954 145.828 46.0548L157.204 73.1748C158.449 76.1439 160.302 77.8221 162.224 78.0771C162.302 78.0874 167.14 78.6204 167.14 78.6204C168.937 79.1476 170.848 78.4148 172.421 76.3071L178.636 67.9807C181.696 63.8813 182.32 56.1316 180.03 50.6722L168.654 23.5522C167.306 20.3384 165.249 18.6361 163.159 18.6132Z" fill="#C69C45"/>
<path d="M179.587 68.0401L173.268 76.3211C170.155 80.3983 165.744 79.3016 163.415 73.8719L151.845 46.9005C149.516 41.4696 150.151 33.7621 153.264 29.6849L159.583 21.4039C162.696 17.3256 167.107 18.4223 169.436 23.852L181.005 50.8257C183.335 56.2554 182.7 63.9641 179.587 68.0401Z" fill="#ECCC8B"/>
<path d="M150.441 36.4484L144.666 35.8955C144.485 37.0137 144.415 38.1715 144.461 39.3261L150.223 39.8852C150.182 38.7275 150.256 37.5676 150.441 36.4484Z" fill="#D8B56D"/>
<path d="M163.332 22.0361C163.628 21.913 164.009 21.8332 164.583 22.1843C165.033 22.4602 165.907 23.1989 166.7 25.0479L178.248 51.9639C179.174 54.1242 179.577 56.9365 179.351 59.6793C179.131 62.3377 178.346 64.7271 177.195 66.2353L170.887 74.499C170.316 75.2469 169.828 75.5569 169.519 75.6869C169.222 75.8111 168.842 75.8909 168.267 75.5398C167.817 75.264 166.944 74.5264 166.15 72.6762L154.603 45.7602C153.675 43.5988 153.274 40.7864 153.5 38.0448C153.718 35.3864 154.505 32.9958 155.656 31.4876L161.963 23.2251C162.534 22.4773 163.022 22.166 163.332 22.0361Z" fill="#C69C45"/>
<path d="M166.978 36.4967C167.921 38.6342 167.319 42.1072 165.635 44.2553C163.95 46.4022 161.82 46.4082 160.877 44.2707C159.934 42.1333 160.535 38.6591 162.221 36.5133C163.906 34.3664 166.036 34.3581 166.978 36.4967Z" fill="#ECCC8B"/>
<path d="M172.101 54.4781L167.695 60.5388C167.344 61.0223 166.847 60.8926 166.584 60.2488C166.321 59.6061 166.393 58.6915 166.744 58.208L171.148 52.1461C171.5 51.6627 171.998 51.7935 172.261 52.4373C172.524 53.08 172.452 53.9946 172.101 54.4781Z" fill="#F6D185"/>
<path d="M175.097 61.4596L170.693 67.5202C170.341 68.0048 169.843 67.8751 169.58 67.2301C169.317 66.5874 169.39 65.6729 169.74 65.1895L174.145 59.1288C174.497 58.6443 174.994 58.7762 175.257 59.4189C175.52 60.0627 175.449 60.9761 175.097 61.4596Z" fill="#F6D185"/>
<path d="M211.11 90.451L223.928 72.3642C226.509 68.7226 227.281 62.9319 225.654 59.4306L222.349 52.3186C221.512 50.518 220.204 49.6724 218.779 49.7712C218.779 49.7712 215.087 49.3858 215.026 49.3811C213.551 49.2598 211.902 50.1934 210.499 52.1735L197.681 70.2604C195.1 73.902 194.328 79.6939 195.955 83.1951L199.26 90.3071C200.024 91.9507 201.179 92.7975 202.458 92.8582L206.223 93.1959C207.784 93.5147 209.591 92.5942 211.11 90.451Z" fill="#C69C45"/>
<path d="M223.928 72.1754L211.11 90.4257C208.529 94.1002 205.119 94.213 203.491 90.6801L200.187 83.5038C198.559 79.9697 199.331 74.1266 201.912 70.4521L214.73 52.2018C217.309 48.5284 220.721 48.4144 222.349 51.9486L225.653 59.1248C227.281 62.6578 226.509 68.5008 223.928 72.1754Z" fill="#ECCC8B"/>
<path d="M126.221 14.4678L125.058 16.5905L122.933 17.751C122.581 17.943 122.581 18.446 122.933 18.6381L125.058 19.7986L126.221 21.9213C126.412 22.2719 126.917 22.2719 127.108 21.9213L128.272 19.7986L130.398 18.6381C130.749 18.446 130.749 17.943 130.398 17.751L128.272 16.5905L127.108 14.4678C126.917 14.1172 126.412 14.1172 126.221 14.4678Z" fill="#FFD37B"/>
<path d="M155.532 120.481C142.323 115.022 129.114 109.562 115.905 104.103C111.496 102.281 110.139 97.4173 111.988 94.701C114.167 91.5008 114.797 90.6515 117.162 87.2482C119.169 84.3599 125.265 82.1189 129.676 83.9418C142.884 89.3996 153.686 93.8648 166.894 99.3238C171.305 101.147 174.487 107.89 172.315 110.815C169.757 114.262 169.103 114.819 167.103 117.782C165.406 120.299 159.942 122.303 155.532 120.481Z" fill="#C69C45"/>
<path d="M154.826 116.445C142.23 111.254 129.632 106.064 117.035 100.875C112.829 99.1423 111.378 94.8985 113.015 92.623C114.942 89.9438 115.504 89.233 117.597 86.3847C119.374 83.9664 125.015 82.2565 129.22 83.989C141.817 89.1794 154.414 94.3686 167.011 99.559C171.217 101.292 172.156 106.277 170.224 108.722C167.949 111.6 167.355 112.056 165.587 114.538C164.087 116.647 159.033 118.177 154.826 116.445Z" fill="#ECCC8B"/>
<path d="M154.768 113.451C143.194 108.78 131.622 104.11 120.05 99.4404C116.186 97.8811 114.729 94.3531 116.134 92.5407C117.787 90.4053 118.271 89.8419 120.069 87.5747C121.596 85.648 126.641 84.4304 130.505 85.9897C142.078 90.6607 153.65 95.3305 165.224 100C169.087 101.56 170.103 105.68 168.439 107.621C166.478 109.907 165.955 110.262 164.44 112.24C163.153 113.92 158.631 115.01 154.768 113.451Z" fill="#C69C45"/>
<path d="M156.84 104.756C155.957 106.792 153.51 107.76 151.375 106.917C149.24 106.075 148.225 103.742 149.108 101.707C149.992 99.6713 152.438 98.7038 154.574 99.546C156.709 100.388 157.723 102.721 156.84 104.756Z" fill="#ECCC8B"/>
<path d="M137.451 92.26L132.501 98.2446" stroke="#ECCC8B" stroke-width="1.92" stroke-linecap="round" stroke-linejoin="round"/>
<path d="M130.824 89.2676L125.873 95.2522" stroke="#ECCC8B" stroke-width="1.92" stroke-linecap="round" stroke-linejoin="round"/>
</g>
<path d="M225.255 34.2622L223.655 37.181L220.733 38.7766C220.25 39.0407 220.25 39.7323 220.733 39.9964L223.655 41.592L225.255 44.5108C225.518 44.9929 226.212 44.9929 226.475 44.5108L228.075 41.592L230.998 39.9964C231.481 39.7323 231.481 39.0407 230.998 38.7766L228.075 37.181L226.475 34.2622C226.212 33.7801 225.518 33.7801 225.255 34.2622Z" fill="#FFD37B"/>
<path d="M96.1619 92.2445L93.9808 96.2246L89.9962 98.4005C89.3379 98.7606 89.3379 99.7037 89.9962 100.064L93.9808 102.24L96.1619 106.22C96.5207 106.877 97.4672 106.877 97.826 106.22L100.007 102.24L103.994 100.064C104.652 99.7037 104.652 98.7606 103.994 98.4005L100.007 96.2246L97.826 92.2445C97.4672 91.5871 96.5207 91.5871 96.1619 92.2445Z" fill="#FFE7B8"/>
</svg>
