<svg width="80" height="80" viewBox="0 0 80 80" fill="none" xmlns="http://www.w3.org/2000/svg">
<path fill-rule="evenodd" clip-rule="evenodd" d="M77 40.5C77 60.6588 60.6582 77 40.5 77C20.3418 77 4 60.6588 4 40.5C4 20.3412 20.3418 4 40.5 4C60.6582 4 77 20.3412 77 40.5Z" fill="#EBFFE0"/>
<mask id="mask0_5567_159438" style="mask-type:alpha" maskUnits="userSpaceOnUse" x="65" y="32" width="3" height="10">
<path fill-rule="evenodd" clip-rule="evenodd" d="M67.052 33.3011L67.104 40.5233C67.1075 40.8471 66.8461 41.1138 66.5205 41.1155L65.4865 41.1234L65.424 32.7247L66.458 32.7168C66.4598 32.7168 66.4607 32.7168 66.4624 32.7168C66.7863 32.7168 67.0485 32.9782 67.052 33.3011Z" fill="white"/>
</mask>
<g mask="url(#mask0_5567_159438)">
<path fill-rule="evenodd" clip-rule="evenodd" d="M70.7314 44.7499H61.7986V29.0903H70.7314V44.7499Z" fill="#1868AB"/>
</g>
<mask id="mask1_5567_159438" style="mask-type:alpha" maskUnits="userSpaceOnUse" x="15" y="15" width="52" height="94">
<path fill-rule="evenodd" clip-rule="evenodd" d="M16.3556 24.2003L15.7449 99.4878C15.7071 104.227 19.5157 108.101 24.2545 108.142L56.7643 108.423H56.9113C61.5867 108.386 65.3839 104.602 65.4227 99.9094L66.0334 24.6315C66.0624 19.8962 62.8381 16.0278 58.8341 15.9943L23.6614 15.689C23.6438 15.689 23.6253 15.689 23.6077 15.689C19.6275 15.689 16.3847 19.4879 16.3556 24.2003Z" fill="white"/>
</mask>
<g mask="url(#mask1_5567_159438)">
<path fill-rule="evenodd" clip-rule="evenodd" d="M69.625 62.2997L69.6596 11.4009H12.0495C12.0495 11.4009 6.91765 57.0161 11.0669 62.8173C15.2161 68.6184 27.3663 77.0396 40.1536 77.0396C52.947 77.0396 62.1447 71.4041 69.625 62.2997Z" fill="#5297D1"/>
</g>
<mask id="mask2_5567_159438" style="mask-type:alpha" maskUnits="userSpaceOnUse" x="18" y="19" width="45" height="59">
<path fill-rule="evenodd" clip-rule="evenodd" d="M18.9348 70.1425C23.6634 73.647 29.9119 77.0396 40.1534 77.1076C50.3949 77.1756 57.591 73.647 62.3311 69.5745V43.9893L62.8758 25.5501C62.8969 22.2651 60.792 19.5819 58.1775 19.5591L52.5191 19.5098C51.794 19.5027 51.1577 19.3927 50.9773 20.2763L50.7767 21.2583C50.5963 22.1419 49.9601 22.757 49.2358 22.7508L33.1459 22.6091C32.4208 22.603 31.7925 21.9764 31.6226 21.0911L31.4334 20.1047C31.2812 19.3047 30.7549 19.3083 30.1205 19.3109C30.0527 19.3109 29.9823 19.3109 29.9119 19.3109L24.2544 19.2607C24.2429 19.2607 24.2324 19.2607 24.2218 19.2607C21.6197 19.2607 19.5006 21.8972 19.4804 25.1699L18.9348 70.1425Z" fill="white"/>
</mask>
<g mask="url(#mask2_5567_159438)">
<path fill-rule="evenodd" clip-rule="evenodd" d="M67.1637 66.1757L66.5034 14.041H15.2583C15.2583 14.041 11.425 59.721 14.505 66.6766C17.585 73.6322 30.4432 77.1077 41.0437 77.1077C52.7867 76.5574 62.6062 71.8898 67.1637 66.1757Z" fill="white"/>
</g>
<mask id="mask3_5567_159438" style="mask-type:alpha" maskUnits="userSpaceOnUse" x="14" y="32" width="3" height="10">
<path fill-rule="evenodd" clip-rule="evenodd" d="M14.6281 33.3011L14.5762 40.5233C14.5727 40.8471 14.834 41.1138 15.1596 41.1155L16.1936 41.1234L16.2561 32.7247L15.2221 32.7168C15.2204 32.7168 15.2195 32.7168 15.2177 32.7168C14.8939 32.7168 14.6316 32.9782 14.6281 33.3011Z" fill="white"/>
</mask>
<g mask="url(#mask3_5567_159438)">
<path fill-rule="evenodd" clip-rule="evenodd" d="M10.9487 44.7499H19.8816V29.0903H10.9487V44.7499Z" fill="#1868AB"/>
</g>
<mask id="mask4_5567_159438" style="mask-type:alpha" maskUnits="userSpaceOnUse" x="14" y="42" width="3" height="9">
<path fill-rule="evenodd" clip-rule="evenodd" d="M14.5568 43.079L14.5049 50.3021C14.5014 50.6268 14.7628 50.8926 15.0875 50.8952L16.1224 50.9031L16.184 42.5035L15.1491 42.4956C15.1482 42.4956 15.1464 42.4956 15.1447 42.4956C14.8226 42.4956 14.5595 42.7561 14.5568 43.079Z" fill="white"/>
</mask>
<g mask="url(#mask4_5567_159438)">
<path fill-rule="evenodd" clip-rule="evenodd" d="M10.8774 54.5287H19.8094V38.8691H10.8774V54.5287Z" fill="#1868AB"/>
</g>
<mask id="mask5_5567_159438" style="mask-type:alpha" maskUnits="userSpaceOnUse" x="35" y="18" width="9" height="3">
<path fill-rule="evenodd" clip-rule="evenodd" d="M35.6513 19.4934L35.6504 19.6421C35.646 20.0575 35.9831 20.3989 36.3984 20.4016L43.2404 20.4526C43.6567 20.4553 43.9964 20.1191 43.9999 19.7029V19.5541C44.0052 19.137 43.669 18.7973 43.2519 18.7938L36.4116 18.7437C36.4099 18.7437 36.4081 18.7437 36.4072 18.7437C35.9928 18.7437 35.654 19.0781 35.6513 19.4934Z" fill="white"/>
</mask>
<g mask="url(#mask5_5567_159438)">
<path fill-rule="evenodd" clip-rule="evenodd" d="M32.0229 24.0791H47.6271V15.1172H32.0229V24.0791Z" fill="#1868AB"/>
</g>
<mask id="mask6_5567_159438" style="mask-type:alpha" maskUnits="userSpaceOnUse" x="45" y="18" width="3" height="3">
<path fill-rule="evenodd" clip-rule="evenodd" d="M45.6602 19.5566C45.6549 20.1436 46.1292 20.6249 46.7171 20.6293C47.3067 20.6337 47.7863 20.1594 47.7916 19.5707C47.7951 18.982 47.3216 18.5006 46.7329 18.4971C46.7303 18.4971 46.7276 18.4971 46.7241 18.4971C46.1389 18.4971 45.6628 18.9688 45.6602 19.5566Z" fill="white"/>
</mask>
<g mask="url(#mask6_5567_159438)">
<path fill-rule="evenodd" clip-rule="evenodd" d="M42.0327 24.2558H51.417V14.8706H42.0327V24.2558Z" fill="#1868AB"/>
</g>
<path fill-rule="evenodd" clip-rule="evenodd" d="M41.0981 37.4551C44.0532 37.4551 46.4487 39.8613 46.4487 42.8284C46.4487 45.7956 44.0532 48.2018 41.0981 48.2018C38.1421 48.2018 35.7466 45.7956 35.7466 42.8284C35.7466 39.8613 38.1421 37.4551 41.0981 37.4551Z" fill="#FFC54F"/>
<path fill-rule="evenodd" clip-rule="evenodd" d="M42.2693 47.6976C39.3142 47.6976 36.9178 45.2914 36.9178 42.3242C36.9178 40.3355 37.9975 38.602 39.5983 37.6733C37.373 38.3254 35.7466 40.3836 35.7466 42.8285C35.7466 45.7956 38.1421 48.2018 41.0981 48.2018C42.0726 48.2018 42.982 47.9355 43.7691 47.4794C43.2926 47.6185 42.7904 47.6976 42.2693 47.6976Z" fill="#FFC54F"/>
<path fill-rule="evenodd" clip-rule="evenodd" d="M41.2135 39.632C41.0629 39.5642 40.8841 39.626 40.8139 39.7712L40.0157 41.4171L38.1506 41.6422C38.0804 41.6508 38.0163 41.6826 37.9683 41.7315C37.8546 41.8492 37.8614 42.0331 37.9829 42.143L39.3543 43.3843L38.9993 45.1694C38.9856 45.2356 38.9976 45.3052 39.0318 45.3644C39.1114 45.5053 39.2945 45.556 39.4399 45.4787L41.086 44.6007L42.7321 45.4787C42.7937 45.5113 42.8655 45.5216 42.934 45.5096C43.0965 45.4796 43.2035 45.3275 43.1718 45.1694L42.8176 43.3843L44.2199 42.1155L44.2319 42.1035C44.2729 42.0614 44.2986 42.0081 44.3063 41.9506C44.326 41.8011 44.2165 41.6654 44.0625 41.6473L42.1563 41.4171L41.3581 39.7712C41.3281 39.7102 41.2768 39.6604 41.2135 39.632Z" fill="white"/>
<path fill-rule="evenodd" clip-rule="evenodd" d="M30.5915 45.0877C32.3035 44.4451 34.2114 45.3179 34.8513 47.0377C35.493 48.7567 34.6238 50.6715 32.9109 51.3149C31.1981 51.9583 29.2902 51.0856 28.6503 49.3657C28.0095 47.6468 28.8787 45.7311 30.5915 45.0877Z" fill="#FFC54F"/>
<path fill-rule="evenodd" clip-rule="evenodd" d="M33.2043 50.4566C31.7079 51.0184 30.0404 50.2564 29.48 48.754C29.1053 47.7454 29.3252 46.663 29.96 45.8882C28.9564 46.6416 28.5209 47.9937 28.9812 49.2316C29.5425 50.7341 31.2091 51.4969 32.7063 50.9351C33.1991 50.7495 33.6106 50.442 33.9229 50.0614C33.7082 50.2229 33.4686 50.3578 33.2043 50.4566Z" fill="#FFC54F"/>
<path fill-rule="evenodd" clip-rule="evenodd" d="M31.1654 46.4385C31.0705 46.4316 30.9858 46.502 30.9772 46.5948L30.8771 47.6471L29.9129 48.1488C29.877 48.1677 29.8487 48.1978 29.8325 48.2339C29.7948 48.3198 29.835 48.4194 29.9232 48.4538L30.9156 48.8472L31.0833 49.885C31.0901 49.9236 31.1107 49.9588 31.1406 49.9837C31.2125 50.043 31.3211 50.0344 31.3844 49.9631L32.098 49.153L33.1657 49.2931C33.2059 49.2982 33.247 49.2896 33.2812 49.269C33.3633 49.2192 33.3907 49.1152 33.342 49.0362L32.7893 48.1428L33.2923 47.1712L33.2975 47.1618C33.3112 47.1317 33.3146 47.0973 33.3069 47.0647C33.2863 46.9797 33.2008 46.9281 33.1127 46.9496L32.0355 47.2125L31.2715 46.4848C31.2433 46.4565 31.2056 46.441 31.1654 46.4385Z" fill="white"/>
<path fill-rule="evenodd" clip-rule="evenodd" d="M51.7238 47.711C53.1765 48.6044 53.6325 50.5123 52.7427 51.971C51.8521 53.4296 49.9536 53.8875 48.5 52.9941C47.0473 52.0998 46.5913 50.1936 47.4811 48.7341C48.3709 47.2754 50.271 46.8176 51.7238 47.711Z" fill="#FFC54F"/>
<path fill-rule="evenodd" clip-rule="evenodd" d="M49.3676 53.0229C47.9739 52.1656 47.517 50.3676 48.3469 49.0077C48.903 48.0963 49.8963 47.6152 50.911 47.653C49.6799 47.3068 48.3367 47.7793 47.6531 48.8986C46.8232 50.2593 47.2809 52.0565 48.6737 52.9138C49.134 53.1964 49.6362 53.339 50.135 53.3579C49.8724 53.284 49.6131 53.1741 49.3676 53.0229Z" fill="#FFC54F"/>
<path fill-rule="evenodd" clip-rule="evenodd" d="M51.017 49.0415C50.9717 48.9754 50.8827 48.9556 50.8168 48.9977L50.0699 49.4762L49.2409 49.0948C49.2101 49.0802 49.175 49.0768 49.1425 49.0853C49.0664 49.1042 49.0219 49.1816 49.0441 49.258L49.2982 50.1222L48.701 50.7717C48.6788 50.7957 48.666 50.8266 48.6651 50.8601C48.6625 50.9383 48.725 51.0062 48.8054 51.0113L49.7089 51.0672L50.1692 51.8506C50.1854 51.8798 50.2128 51.9022 50.2445 51.9142C50.3198 51.9434 50.4019 51.9073 50.4293 51.8343L50.733 51.0045L51.6347 50.8361L51.6424 50.8344C51.6707 50.8275 51.6946 50.812 51.7117 50.7897C51.7571 50.733 51.7468 50.6488 51.6878 50.6016L50.9563 50.0217L51.041 49.136C51.0444 49.1034 51.0359 49.0699 51.017 49.0415Z" fill="white"/>
<path fill-rule="evenodd" clip-rule="evenodd" d="M38.0843 52.3107C39.3882 52.1286 40.5928 53.0426 40.7742 54.3518C40.9547 55.661 40.0453 56.8705 38.7414 57.0527C37.4367 57.2339 36.2329 56.3207 36.0515 55.0116C35.8693 53.7015 36.7805 52.4928 38.0843 52.3107Z" fill="#FFC54F"/>
<path fill-rule="evenodd" clip-rule="evenodd" d="M38.268 53.2635C38.1978 53.2438 38.1225 53.2816 38.1003 53.3503L37.8487 54.1252L37.0385 54.3399C37.0086 54.3476 36.9821 54.3657 36.965 54.3906C36.9213 54.449 36.935 54.5298 36.9958 54.5701L37.6776 55.0349L37.6297 55.8441C37.628 55.8742 37.6374 55.9034 37.6554 55.9283C37.6999 55.985 37.7837 55.9962 37.8428 55.9532L38.5152 55.4644L39.2955 55.7505C39.3246 55.7608 39.3562 55.7608 39.387 55.7513C39.4572 55.7281 39.4948 55.6543 39.4709 55.5864L39.2057 54.8201L39.7464 54.175L39.7506 54.1681C39.7669 54.1466 39.7746 54.1217 39.7746 54.0968C39.7737 54.0298 39.7173 53.9765 39.648 53.9774L38.7924 53.9937L38.3407 53.3168C38.3227 53.291 38.2979 53.273 38.268 53.2635Z" fill="white"/>
<path fill-rule="evenodd" clip-rule="evenodd" d="M49.9269 66.9965H32.3828C32.0988 66.9965 31.8687 66.7654 31.8687 66.4802V55.1983C31.8687 54.9131 32.0988 54.6812 32.3828 54.6812H49.9269C50.2109 54.6812 50.4419 54.9131 50.4419 55.1983V66.4802C50.4419 66.7654 50.2109 66.9965 49.9269 66.9965Z" fill="#28D677"/>
<path fill-rule="evenodd" clip-rule="evenodd" d="M37.7051 66.9967H44.4905V54.6187H37.7051V66.9967Z" fill="#00AB4E"/>
<path fill-rule="evenodd" clip-rule="evenodd" d="M34.339 65.2952C33.9104 65.2952 33.5639 64.9464 33.5639 64.516V55.0828C33.5639 54.8612 33.3842 54.6816 33.1635 54.6816H32.8084C32.2891 54.6816 31.8682 55.1043 31.8682 55.6249V66.0537C31.8682 66.5743 32.2891 66.9961 32.8084 66.9961H49.5029C50.0213 66.9961 50.4414 66.5743 50.4414 66.0537V65.6972C50.4414 65.4747 50.2626 65.2952 50.0419 65.2952H34.339Z" fill="#00AB4E"/>
<path fill-rule="evenodd" clip-rule="evenodd" d="M37.7051 67.0135H44.4905V65.2954H37.7051V67.0135Z" fill="#00AB4E"/>
<path d="M26.3571 37.3333L31 41" stroke="#FFE7B8" stroke-width="2.2" stroke-linecap="round"/>
<path d="M40.5 28.375V33.625" stroke="#FFD37B" stroke-width="2.2" stroke-linecap="round"/>
<path d="M51.3571 40.6667L55.6429 37.3333" stroke="#FFE7B8" stroke-width="2.2" stroke-linecap="round"/>
<circle cx="12" cy="13" r="11" fill="#28D677"/>
<path d="M14.7929 15.2896C15.2138 15.2896 15.5116 15.3409 15.6861 15.4436C15.8709 15.536 15.9941 15.6849 16.0557 15.8902C16.1173 16.0853 16.1481 16.3471 16.1481 16.6756C16.1481 16.9939 16.1122 17.2505 16.0403 17.4456C15.9787 17.6407 15.8709 17.7741 15.7169 17.846C15.491 17.9692 15.1728 18.0308 14.7621 18.0308H8.74069C8.37109 18.0308 8.05282 17.8922 7.78589 17.615C7.51895 17.3378 7.38549 17.0144 7.38549 16.6448C7.38549 16.0904 7.57542 15.5822 7.95529 15.1202C8.34542 14.6479 8.81255 14.2475 9.35669 13.919C9.90082 13.5802 10.445 13.2517 10.9891 12.9334C11.5332 12.6049 11.9952 12.2353 12.3751 11.8246C12.7652 11.4139 12.9603 10.9776 12.9603 10.5156C12.9603 10.4232 12.9244 10.2949 12.8525 10.1306C12.7806 9.95607 12.6985 9.81747 12.6061 9.7148C12.524 9.60187 12.3905 9.4992 12.2057 9.4068C12.0209 9.3144 11.7642 9.2682 11.4357 9.2682C11.1072 9.2682 10.8197 9.3914 10.5733 9.6378C10.3372 9.87393 10.2037 10.1101 10.1729 10.3462L10.1113 10.7004V10.7928C10.1113 11.0187 10.101 11.1881 10.0805 11.301C10.0702 11.4139 10.024 11.5423 9.94189 11.686C9.78789 11.9324 9.38749 12.0556 8.74069 12.0556C8.02202 12.0556 7.59595 11.8605 7.46249 11.4704C7.41115 11.3061 7.38549 11.0443 7.38549 10.685C7.38549 9.61727 7.76535 8.66247 8.52509 7.8206C9.29509 6.96847 10.2961 6.5424 11.5281 6.5424C12.7704 6.5424 13.7765 6.9736 14.5465 7.836C15.3165 8.68813 15.7015 9.66347 15.7015 10.762C15.7015 11.3472 15.5732 11.9016 15.3165 12.4252C15.0598 12.9488 14.7518 13.3697 14.3925 13.688C13.6328 14.3656 12.9552 14.8225 12.3597 15.0586L11.9747 15.2126V15.2896H14.7929Z" fill="white"/>
</svg>
