<svg width="328" height="164" viewBox="0 0 328 164" fill="none" xmlns="http://www.w3.org/2000/svg">
<path fill-rule="evenodd" clip-rule="evenodd" d="M23.2189 161.504C33.6809 163.667 265.053 165.826 301.876 161.504C312.777 160.224 321.503 148.276 322.776 146.203C330.736 133.238 327.751 53.2794 325.761 26.266C324.69 11.7278 309.838 5.19571 302.871 3.03482C289.548 -1.09779 53.2799 -1.26366 22.2229 4.11573C8.32787 6.52168 3.29087 17.8712 2.29087 24.1796C-0.0421274 38.8847 -1.42113 129.331 2.31887 141.514C5.30487 151.239 12.7689 159.343 23.2189 161.504Z" fill="#EBFFE0"/>
<mask id="mask0_5567_152830" style="mask-type:alpha" maskUnits="userSpaceOnUse" x="0" y="0" width="328" height="164">
<path fill-rule="evenodd" clip-rule="evenodd" d="M23.2189 161.504C33.6809 163.667 265.053 165.826 301.876 161.504C312.777 160.224 321.503 148.276 322.776 146.203C330.736 133.238 327.751 53.2794 325.761 26.266C324.69 11.7278 309.838 5.19571 302.871 3.03482C289.548 -1.09779 53.2799 -1.26366 22.2229 4.11573C8.32787 6.52168 3.29087 17.8712 2.29087 24.1796C-0.0421274 38.8847 -1.42113 129.331 2.31887 141.514C5.30487 151.239 12.7689 159.343 23.2189 161.504Z" fill="white"/>
</mask>
<g mask="url(#mask0_5567_152830)">
<ellipse cx="164.5" cy="244.5" rx="224.5" ry="174.5" fill="#BBF0D3"/>
<path fill-rule="evenodd" clip-rule="evenodd" d="M310.772 40.6796C310.835 36.6881 308.048 32.9162 304.553 32.1998C277.157 26.2724 250.105 18.8618 222.865 12.2252C219.283 11.3756 216.306 13.9433 216.236 17.9294C215.735 46.8383 215.263 75.7472 214.814 104.656H214.811C214.75 108.669 214.719 110.675 214.659 114.688C214.598 118.672 217.221 122.463 220.58 123.22C248.052 129.657 275.237 137.334 302.785 143.426C306.303 144.166 309.176 141.483 309.239 137.499C309.394 127.663 309.549 117.827 309.704 107.99C310.06 85.5527 310.415 63.1166 310.772 40.6796Z" fill="#47A99C"/>
<path fill-rule="evenodd" clip-rule="evenodd" d="M306.272 35.7869C306.335 31.9763 303.548 28.3745 300.053 27.6905C272.657 22.0313 245.605 14.9555 218.365 8.61769C214.783 7.80679 211.806 10.2584 211.736 14.0645C211.235 41.6666 210.763 69.2696 210.314 96.8726H210.311C210.25 100.705 210.219 102.62 210.159 106.452C210.098 110.255 212.721 113.874 216.08 114.596C243.552 120.744 270.737 128.075 298.285 133.891C301.803 134.598 304.676 132.036 304.739 128.232C304.894 118.84 305.049 109.448 305.204 100.056C305.56 78.6323 305.915 57.2096 306.272 35.7869Z" fill="#F8F8F8"/>
<path fill-rule="evenodd" clip-rule="evenodd" d="M306.271 35.7735C306.153 42.8619 306.094 46.4052 305.976 53.4927C274.21 47.307 242.998 38.7777 211.417 31.7532C211.543 24.672 211.607 21.1314 211.737 14.052C211.806 10.2549 214.779 7.80515 218.355 8.61425C245.602 14.9529 272.66 22.0305 300.062 27.6915C303.552 28.3737 306.334 31.9719 306.271 35.7735Z" fill="#84D7CC"/>
<path fill-rule="evenodd" clip-rule="evenodd" d="M229.836 23.3273C228.615 23.0375 227.577 22.7918 226.693 22.5839C224.004 21.953 221.869 19.109 221.94 16.2335C222.004 13.5281 222.037 12.1754 222.103 9.47095C223.394 9.76885 224.038 9.91915 225.327 10.2197C225.258 12.9233 225.224 14.2751 225.155 16.9787C225.13 17.9624 225.859 18.938 226.781 19.154C227.666 19.3628 230.72 23.537 229.836 23.3273Z" fill="#47A99C"/>
<path fill-rule="evenodd" clip-rule="evenodd" d="M287.557 37.1518C287.557 37.1518 285.326 36.6604 284.451 36.4651C281.8 35.8738 279.688 33.0343 279.746 30.1543L279.882 23.3818C281.145 23.6707 281.776 23.8138 283.039 24.0964C282.985 26.8063 282.959 28.1617 282.907 30.8707C282.888 31.8562 283.61 32.8246 284.516 33.0271C285.391 33.2224 287.575 36.2023 287.557 37.1518Z" fill="#47A99C"/>
<path fill-rule="evenodd" clip-rule="evenodd" d="M232.65 13.5592C232.65 11.8249 232.65 10.9582 232.651 9.22392C232.651 8.24022 231.899 7.27902 230.971 7.08462C230.674 7.02162 230.525 6.99012 230.228 6.92802C229.3 6.73272 228.544 7.37622 228.545 8.36082C228.548 12.7978 228.549 15.0172 228.552 19.456C228.553 20.4406 229.307 21.3973 230.232 21.5908C231.122 21.778 231.843 22.6969 231.843 23.6437C231.843 24.5914 231.122 25.2061 230.233 25.0198C227.532 24.4546 225.327 21.6646 225.322 18.7882C225.315 14.3485 225.311 12.1282 225.304 7.68942C225.3 4.81212 227.515 2.92752 230.228 3.49812C230.525 3.56202 230.674 3.59262 230.971 3.65472C233.681 4.22712 235.877 7.03602 235.875 9.90972C235.874 11.644 235.873 12.5107 235.872 14.245C234.584 13.9696 233.94 13.8328 232.65 13.5592Z" fill="#117367"/>
<path fill-rule="evenodd" clip-rule="evenodd" d="M290.582 25.7197C290.566 23.9791 290.557 23.1097 290.541 21.3691C290.532 20.3809 289.785 19.4404 288.875 19.2703C288.585 19.2145 288.439 19.1875 288.148 19.1335C287.238 18.9607 286.506 19.6222 286.514 20.6086C286.551 25.0591 286.57 27.2839 286.606 31.7344C286.615 32.7208 287.364 33.6676 288.276 33.8404C289.154 34.0078 289.873 34.9114 289.881 35.8609C289.89 36.8104 289.184 37.4476 288.307 37.2811C285.639 36.7726 283.451 33.9979 283.429 31.1152C283.394 26.6674 283.378 24.4426 283.344 19.9939C283.321 17.1112 285.463 15.1906 288.118 15.6928C288.408 15.7477 288.554 15.7747 288.845 15.8305C291.5 16.3282 293.685 19.0633 293.713 21.9496C293.73 23.6902 293.738 24.5605 293.755 26.3011C292.485 26.0725 291.851 25.9564 290.582 25.7197Z" fill="#117367"/>
<path fill-rule="evenodd" clip-rule="evenodd" d="M229.547 57.7156C226.522 56.9992 225.012 56.6473 221.999 55.9588C221.167 55.7689 220.51 54.8842 220.53 53.9815C220.607 50.7118 220.645 49.0774 220.722 45.8086C220.743 44.905 221.437 44.3272 222.274 44.5189C225.303 45.2128 226.819 45.5683 229.852 46.2874C230.689 46.4854 231.348 47.3791 231.325 48.2809C231.236 51.5461 231.193 53.1778 231.104 56.4421C231.08 57.3439 230.383 57.9136 229.547 57.7156Z" fill="#00662E"/>
<path fill-rule="evenodd" clip-rule="evenodd" d="M251.208 62.9917C248.164 62.2393 246.643 61.8631 243.602 61.1161C242.764 60.91 242.104 60.0118 242.129 59.1109C242.22 55.8484 242.265 54.2167 242.357 50.9533C242.381 50.0524 243.082 49.4881 243.921 49.6951C246.959 50.4421 248.479 50.8174 251.518 51.568C252.358 51.775 253.018 52.6732 252.994 53.575C252.907 56.8393 252.863 58.4719 252.775 61.7353C252.751 62.6362 252.05 63.1987 251.208 62.9917Z" fill="#47A99C"/>
<path fill-rule="evenodd" clip-rule="evenodd" d="M272.942 68.2905C269.897 67.5678 268.373 67.2006 265.326 66.4599C264.485 66.2556 263.82 65.3574 263.843 64.4556C263.923 61.1886 263.963 59.5551 264.043 56.2881C264.065 55.3854 264.763 54.8202 265.602 55.0236C268.64 55.7598 270.159 56.1252 273.194 56.8443C274.033 57.0432 274.696 57.9351 274.677 58.8378C274.606 62.1093 274.571 63.7446 274.5 67.0152C274.48 67.9188 273.782 68.4903 272.942 68.2905Z" fill="#00AB4E"/>
<path fill-rule="evenodd" clip-rule="evenodd" d="M294.606 73.1439C291.581 72.5166 290.066 72.1908 287.032 71.523C286.194 71.3385 285.528 70.4547 285.545 69.5502C285.606 66.2751 285.637 64.638 285.7 61.3629C285.717 60.4584 286.408 59.8761 287.244 60.0597C290.271 60.7239 291.783 61.0479 294.803 61.6716C295.637 61.8435 296.301 62.7147 296.285 63.6201C296.23 66.8988 296.202 68.5377 296.146 71.8155C296.131 72.7209 295.441 73.3158 294.606 73.1439Z" fill="#84D7CC"/>
<path fill-rule="evenodd" clip-rule="evenodd" d="M228.94 80.6418C225.933 79.9335 224.435 79.5852 221.452 78.9102C220.629 78.723 219.979 77.8428 220 76.9392C220.074 73.6695 220.112 72.0351 220.188 68.7645C220.208 67.8618 220.896 67.2804 221.723 67.4685C224.722 68.1498 226.226 68.5008 229.243 69.2136C230.075 69.4107 230.732 70.3017 230.708 71.2035C230.62 74.4678 230.576 76.1004 230.489 79.3647C230.465 80.2665 229.771 80.838 228.94 80.6418Z" fill="#00662E"/>
<path fill-rule="evenodd" clip-rule="evenodd" d="M250.585 85.9073C247.53 85.1522 246.006 84.7742 242.964 84.0272C242.123 83.8211 241.463 82.9238 241.488 82.0229C241.579 78.7595 241.625 77.1278 241.716 73.8644C241.741 72.9635 242.442 72.4001 243.282 72.6062C246.323 73.3532 247.846 73.7303 250.896 74.4845C251.738 74.6924 252.401 75.5915 252.377 76.4933C252.288 79.7576 252.244 81.3893 252.156 84.6527C252.132 85.5545 251.428 86.1161 250.585 85.9073Z" fill="#47A99C"/>
<path fill-rule="evenodd" clip-rule="evenodd" d="M266.219 91.543C265.567 91.3837 264.943 90.9544 264.492 90.3478C263.297 88.7404 262.7 87.9367 261.508 86.3293C260.897 85.5049 260.924 84.4195 261.569 83.9038C262.212 83.3881 263.23 83.6374 263.84 84.46C264.805 85.7587 265.288 86.4085 266.254 87.7063C268.939 84.9424 270.279 83.5573 272.951 80.7745C273.529 80.1733 274.541 80.3047 275.214 81.0652C275.886 81.8275 275.964 82.9336 275.388 83.5357C272.502 86.5498 271.055 88.0492 268.151 91.0399C267.698 91.5088 267.038 91.7014 266.342 91.5691C266.301 91.5619 266.26 91.5529 266.219 91.543Z" fill="#00AB4E"/>
<path fill-rule="evenodd" clip-rule="evenodd" d="M294.2 96.6668C291.165 96.0341 289.643 95.7047 286.593 95.0297C285.751 94.8434 285.082 93.9569 285.099 93.0524C285.161 89.7782 285.193 88.1402 285.255 84.866C285.272 83.9624 285.967 83.381 286.807 83.5664C289.849 84.2378 291.368 84.5654 294.399 85.1954C295.235 85.3691 295.9 86.2412 295.885 87.1466C295.829 90.4244 295.801 92.0642 295.744 95.3411C295.729 96.2465 295.038 96.8405 294.2 96.6668Z" fill="#84D7CC"/>
<path fill-rule="evenodd" clip-rule="evenodd" d="M249.9 110.974C246.836 110.214 245.308 109.835 242.264 109.088C241.423 108.882 240.764 107.986 240.789 107.084C240.881 103.821 240.926 102.189 241.016 98.9255C241.042 98.0246 241.743 97.4612 242.582 97.6673C245.625 98.4152 247.153 98.7932 250.213 99.551C251.058 99.7598 251.723 100.66 251.699 101.562C251.61 104.825 251.566 106.457 251.477 109.721C251.453 110.622 250.746 111.183 249.9 110.974Z" fill="#47A99C"/>
<path fill-rule="evenodd" clip-rule="evenodd" d="M271.868 116.363C268.783 115.624 267.239 115.249 264.156 114.494C263.304 114.285 262.632 113.384 262.654 112.482C262.736 109.216 262.777 107.583 262.858 104.316C262.88 103.414 263.587 102.851 264.436 103.059C267.512 103.811 269.051 104.184 272.125 104.919C272.974 105.122 273.647 106.018 273.626 106.92C273.554 110.191 273.518 111.826 273.445 115.096C273.426 116 272.719 116.567 271.868 116.363Z" fill="#00AB4E"/>
<path fill-rule="evenodd" clip-rule="evenodd" d="M226.914 99.6525C228.606 98.2341 229.457 97.5285 231.163 96.1218C231.797 95.5989 231.827 94.5135 231.229 93.6981C230.629 92.8827 229.631 92.646 228.998 93.1707C227.297 94.5819 226.45 95.2902 224.762 96.714C223.166 94.5342 222.369 93.4461 220.777 91.2753C220.185 90.4689 219.201 90.2493 218.581 90.7857C217.961 91.323 217.937 92.4102 218.527 93.2148C220.114 95.3784 220.907 96.4629 222.498 98.6364C220.82 100.068 219.986 100.787 218.329 102.235C217.712 102.774 217.69 103.862 218.276 104.664C218.569 105.066 218.959 105.321 219.353 105.408C219.747 105.494 220.146 105.415 220.456 105.147C222.12 103.707 222.958 102.991 224.642 101.566C226.235 103.745 227.034 104.836 228.634 107.024C228.932 107.431 229.329 107.693 229.731 107.788C230.133 107.883 230.54 107.81 230.856 107.548C231.489 107.025 231.518 105.94 230.922 105.124C229.314 102.932 228.513 101.838 226.914 99.6525Z" fill="#C25659"/>
<path fill-rule="evenodd" clip-rule="evenodd" d="M103.76 76.0795C103.76 76.0795 88.8002 90.1595 87.9202 104.239V106.879L52.7202 89.2795L84.4002 53.1995C84.4002 53.1995 101.12 75.1995 103.76 76.0795Z" fill="#E79E5C"/>
<mask id="mask1_5567_152830" style="mask-type:alpha" maskUnits="userSpaceOnUse" x="159" y="79" width="83" height="19">
<path fill-rule="evenodd" clip-rule="evenodd" d="M159.277 79.3577H241.111V97.3946H159.277V79.3577Z" fill="white"/>
</mask>
<g mask="url(#mask1_5567_152830)">
<path fill-rule="evenodd" clip-rule="evenodd" d="M237.123 84.7128L160.599 97.3892C160.296 97.4393 159.993 97.1349 159.923 96.7098L159.292 92.9012C159.222 92.4753 159.41 92.0898 159.713 92.0388L236.237 79.3633C236.298 79.3527 236.362 79.3571 236.425 79.3765L240.608 80.6393C241.137 80.7994 241.299 81.7727 240.85 82.0948L237.297 84.6397C237.243 84.6776 237.184 84.7022 237.123 84.7128Z" fill="#3393E3"/>
</g>
<mask id="mask2_5567_152830" style="mask-type:alpha" maskUnits="userSpaceOnUse" x="236" y="78" width="8" height="7">
<path fill-rule="evenodd" clip-rule="evenodd" d="M236 78.9001H243.197V84.7438H236V78.9001Z" fill="white"/>
</mask>
<g mask="url(#mask2_5567_152830)">
<path fill-rule="evenodd" clip-rule="evenodd" d="M239.297 84.3023L242.93 81.6995C243.39 81.3701 243.225 80.3747 242.683 80.2109L238.405 78.9194C238.341 78.8996 238.275 78.8951 238.212 78.905L236 79.2713C236.532 80.0309 237.222 81.6617 236.904 84.7442L239.118 84.377C239.182 84.3662 239.242 84.341 239.297 84.3023Z" fill="#FFD6B4"/>
</g>
<mask id="mask3_5567_152830" style="mask-type:alpha" maskUnits="userSpaceOnUse" x="240" y="79" width="4" height="4">
<path fill-rule="evenodd" clip-rule="evenodd" d="M240.783 79.6367H243.197V82.7363H240.783V79.6367Z" fill="white"/>
</mask>
<g mask="url(#mask3_5567_152830)">
<path fill-rule="evenodd" clip-rule="evenodd" d="M242.684 80.2109L240.783 79.6367C241.166 80.2757 241.526 81.2783 241.483 82.7363L242.93 81.6995C243.39 81.3701 243.225 80.3747 242.684 80.2109Z" fill="#554E56"/>
</g>
<mask id="mask4_5567_152830" style="mask-type:alpha" maskUnits="userSpaceOnUse" x="117" y="79" width="95" height="107">
<path fill-rule="evenodd" clip-rule="evenodd" d="M117.4 79.7327H211.338V185.159H117.4V79.7327Z" fill="white"/>
</mask>
<g mask="url(#mask4_5567_152830)">
<path fill-rule="evenodd" clip-rule="evenodd" d="M157.875 135.455C157.875 135.455 161.625 129.625 162.307 126.619C162.827 124.322 166.143 107.696 167.676 99.9915C168.178 97.4755 169.592 95.2219 171.657 93.6449L185.796 82.8543C187.123 81.8415 188.684 81.1683 190.338 80.8937L196.465 79.8791C198.319 79.5719 200.219 79.7497 201.974 80.3965L209.775 83.2653C210.682 83.5988 211.035 84.7375 210.393 85.4556C209.708 86.2195 208.488 86.8557 206.339 86.3435C206.339 86.3435 213.598 87.4559 210.622 90.8421C210.622 90.8421 209.367 93.9432 202.402 91.0463C202.402 91.0463 199.924 92.0653 196.663 91.9967L202.854 97.3365C202.854 97.3365 204.655 101.088 202.546 102.595C202.546 102.595 204.083 106.371 204.054 109.708C204.044 110.782 203.459 111.819 202.447 112.231C201.549 112.597 200.355 112.505 199.168 110.676C199.168 110.676 198.165 106.02 197.468 105.75C197.197 105.646 196.919 105.508 196.665 105.326C196.055 104.889 195.179 105.056 194.816 105.71C193.9 107.361 192.137 109.527 189.04 110.04C189.04 110.04 190.397 128.91 177.758 134.475L149.671 178.474C149.671 178.474 118.678 193.433 117.4 178.599L157.875 135.455Z" fill="#F2CBA8"/>
</g>
<path fill-rule="evenodd" clip-rule="evenodd" d="M147.083 16.1621C145.845 35.9727 145.311 56.7689 136.615 74.6117C133.799 80.3898 129.574 88.0704 123.225 89.078C116.513 90.1437 109.299 85.1973 106.123 83.2542C98.1198 78.3588 89.9675 73.3357 83.9404 66.147C77.9124 58.9583 74.2745 49.0926 76.8142 40.0612C79.3846 30.9224 87.485 24.5688 95.3338 19.2272C108.214 10.4615 123.195 2.30477 138.573 4.81277C141.486 5.28797 144.497 6.24365 146.446 8.45861C148.396 10.6753 148.804 14.4426 146.647 16.4569" fill="#FFD6B4"/>
<path fill-rule="evenodd" clip-rule="evenodd" d="M41.28 79.5996C41.28 79.5996 90.56 91.0396 102 110.4C113.44 129.76 138.08 173.76 138.08 173.76L-8 167.6C-8 167.6 20.16 98.9596 41.28 79.5996Z" fill="#FFC54F"/>
<path fill-rule="evenodd" clip-rule="evenodd" d="M206.339 86.344L203.909 85.4649C202.624 85.0011 201.237 84.8744 199.883 85.0988L190.942 86.5807C189.887 86.7549 188.884 87.1351 187.982 87.7036C186.324 88.7481 183.457 90.5169 181.276 91.653C179.899 92.3711 178.883 92.7178 178.167 92.8797C177.749 92.9748 177.5 92.4424 177.845 92.1907C180.312 90.3902 186.406 86.0518 189.045 85.1577C191.311 84.3913 196.029 83.7489 198.842 83.4127C200.305 83.2385 201.782 83.3678 203.188 83.7885L209.998 85.8248C209.998 85.8248 208.247 87.1853 206.339 86.344Z" fill="#E79E5C"/>
<path d="M177.712 98.6081C178.86 98.418 179.62 99.4494 182.877 97.7519C186.133 96.0561 191.405 92.2888 194.849 91.7195" stroke="#E79E5C" stroke-width="0.77176" stroke-linecap="round" stroke-linejoin="round"/>
<path d="M184.291 102.726C184.291 102.726 187.253 102.814 194.06 97.6363C194.06 97.6363 196.169 96.1298 198.356 98.6598L202.617 102.38" stroke="#E79E5C" stroke-width="0.77176" stroke-linecap="round" stroke-linejoin="round"/>
<path fill-rule="evenodd" clip-rule="evenodd" d="M176.144 131.85L146.292 177.972C148.287 178.412 149.671 178.474 149.671 178.474L177.758 134.475C190.396 128.909 189.039 110.041 189.039 110.041C189.039 110.041 183.897 128.829 176.144 131.85Z" fill="#E79E5C"/>
<path fill-rule="evenodd" clip-rule="evenodd" d="M71.2892 120.418C67.6161 131.476 60.591 155.192 62.2586 170.402C62.2692 170.495 62.3466 170.566 62.4399 170.569L70.7277 170.92C70.8421 170.925 70.9354 170.835 70.924 170.721C70.6626 168.076 68.0957 140.726 71.9263 120.586C72.0037 120.178 71.4203 120.024 71.2892 120.418Z" fill="#DF9F1C"/>
<path fill-rule="evenodd" clip-rule="evenodd" d="M144.647 45.6799C145.959 48.7274 147.27 51.7748 148.581 54.8223C148.847 55.4391 149.118 56.1229 148.919 56.7644C148.751 57.303 148.288 57.6884 147.848 58.0413L139.39 64.8243C136.639 59.6235 136.869 52.9699 139.972 47.9715C140.715 46.7755 141.916 45.5471 143.298 45.8199" fill="#FFD6B4"/>
<path fill-rule="evenodd" clip-rule="evenodd" d="M96.2798 41.3196C96.2798 41.3196 94.4591 82.552 60.1998 109.96C55.7998 113.48 46.8229 110.985 46.1198 109.96C41.6045 103.373 36.4592 83.3246 67.6798 51.4396L72.0798 43.5196L96.2798 41.3196Z" fill="#84621F"/>
<mask id="mask5_5567_152830" style="mask-type:alpha" maskUnits="userSpaceOnUse" x="14" y="-26" width="141" height="147">
<path fill-rule="evenodd" clip-rule="evenodd" d="M14.8667 -25.1201H154.225V120.407H14.8667V-25.1201Z" fill="white"/>
</mask>
<g mask="url(#mask5_5567_152830)">
<path fill-rule="evenodd" clip-rule="evenodd" d="M153.04 6.55964C156.083 16.4508 156.496 25.0264 112.748 36.2693C88.3925 42.5279 67.2224 57.9684 54.5891 79.7114C48.5725 90.0655 44.4929 101.741 45.5137 113.686C45.8463 117.587 42.4917 120.853 38.6074 120.357C32.5741 119.588 24.4104 116.319 18.9236 105.31C12.0913 91.5993 14.0774 75.1468 23.4609 63.0398C25.5553 60.3382 28.0043 57.4368 30.8423 54.4422C40.3621 44.3935 47.3564 32.1668 50.5349 18.694C51.0603 16.4693 51.3322 14.1435 51.84 11.8396C57.56 -14.1204 75.6 -25.1204 99.36 -25.1204C123.12 -25.1204 145.85 -16.8105 153.04 6.55964Z" fill="#946F25"/>
</g>
<path fill-rule="evenodd" clip-rule="evenodd" d="M100.889 34.4402C100.889 34.4402 93.7201 24.5367 87.7529 35.7382C81.7856 46.9397 95.6139 52.6465 95.6139 52.6465L100.889 34.4402Z" fill="#F2CBA8"/>
<path fill-rule="evenodd" clip-rule="evenodd" d="M109.04 31.1996C109.04 31.1996 101.004 43.619 101.573 53.8138C101.618 54.6269 100.515 54.9411 100.129 54.223C98.2505 50.7294 96.1667 43.1077 100.24 28.5596L109.04 31.1996Z" fill="#906F25"/>
<path fill-rule="evenodd" clip-rule="evenodd" d="M137.581 -12.1602C141.169 -6.54846 139.812 0.275943 136.101 5.4873C131.944 11.3243 124.917 14.1659 118.254 16.0323C105.644 19.5673 92.9314 21.8527 80.7803 26.9663C59.1517 36.0682 38.4154 53.3039 34.275 77.6174C32.1313 90.2119 34.6807 103.405 42.503 113.635C43.5211 114.966 45.8153 113.653 44.7822 112.303C27.5667 89.7895 38.4198 60.013 58.255 43.3748C69.1124 34.2677 82.3115 28.4606 95.7923 24.4258C107.452 20.9366 121.004 20.0469 131.436 13.3483C140.078 7.80082 145.926 -4.00614 139.86 -13.4934C138.947 -14.9199 136.662 -13.5973 137.581 -12.1602Z" fill="#84621F"/>
<path fill-rule="evenodd" clip-rule="evenodd" d="M148.091 0.759627C147.128 23.71 116.097 26.6272 101.767 38.1517C100.442 39.2165 102.321 41.0742 103.633 40.0182C118.899 27.7404 149.696 25.4216 150.731 0.759627C150.802 -0.938773 148.162 -0.936133 148.091 0.759627Z" fill="#84621F"/>
</g>
<path fill-rule="evenodd" clip-rule="evenodd" d="M129.967 127.578C129.967 137.2 122.14 145 112.484 145C102.828 145 95 137.2 95 127.578C95 117.956 102.828 110.156 112.484 110.156C122.14 110.156 129.967 117.956 129.967 127.578Z" fill="#67C880"/>
<path fill-rule="evenodd" clip-rule="evenodd" d="M129.967 125.422C129.967 135.045 122.14 142.845 112.484 142.845C102.828 142.845 95 135.045 95 125.422C95 115.8 102.828 108 112.484 108C122.14 108 129.967 115.8 129.967 125.422Z" fill="white"/>
<path d="M108.696 135.676L106.876 134.636L117.666 115.994L119.486 117.034L108.696 135.676ZM106.798 127.642C105.394 127.642 104.293 127.165 103.496 126.212C102.699 125.259 102.3 123.863 102.3 122.026C102.3 120.189 102.699 118.802 103.496 117.866C104.293 116.913 105.394 116.436 106.798 116.436C108.219 116.436 109.329 116.913 110.126 117.866C110.923 118.802 111.322 120.189 111.322 122.026C111.322 123.881 110.923 125.285 110.126 126.238C109.329 127.174 108.219 127.642 106.798 127.642ZM106.798 125.874C107.561 125.874 108.124 125.571 108.488 124.964C108.852 124.34 109.034 123.361 109.034 122.026C109.034 120.709 108.852 119.747 108.488 119.14C108.124 118.533 107.561 118.23 106.798 118.23C106.035 118.23 105.472 118.533 105.108 119.14C104.761 119.729 104.588 120.691 104.588 122.026C104.588 123.361 104.761 124.34 105.108 124.964C105.472 125.571 106.035 125.874 106.798 125.874ZM119.564 135.182C118.143 135.182 117.033 134.714 116.236 133.778C115.439 132.825 115.04 131.421 115.04 129.566C115.04 127.729 115.439 126.342 116.236 125.406C117.033 124.453 118.143 123.976 119.564 123.976C120.968 123.976 122.069 124.453 122.866 125.406C123.681 126.342 124.088 127.729 124.088 129.566C124.088 131.403 123.689 132.799 122.892 133.752C122.095 134.705 120.985 135.182 119.564 135.182ZM119.564 133.414C120.327 133.414 120.881 133.111 121.228 132.504C121.592 131.88 121.774 130.901 121.774 129.566C121.774 128.249 121.592 127.287 121.228 126.68C120.864 126.056 120.309 125.744 119.564 125.744C118.801 125.744 118.238 126.047 117.874 126.654C117.51 127.261 117.328 128.231 117.328 129.566C117.328 130.901 117.51 131.88 117.874 132.504C118.238 133.111 118.801 133.414 119.564 133.414Z" fill="#84D7CC"/>
<path fill-rule="evenodd" clip-rule="evenodd" d="M190.746 43.228C190.746 49.7292 185.43 55 178.873 55C172.316 55 167 49.7292 167 43.228C167 36.7268 172.316 31.4561 178.873 31.4561C185.43 31.4561 190.746 36.7268 190.746 43.228Z" fill="#67C880"/>
<path fill-rule="evenodd" clip-rule="evenodd" d="M299.746 142.228C299.746 148.729 294.43 154 287.873 154C281.316 154 276 148.729 276 142.228C276 135.727 281.316 130.456 287.873 130.456C294.43 130.456 299.746 135.727 299.746 142.228Z" fill="#67C880"/>
<path fill-rule="evenodd" clip-rule="evenodd" d="M190.746 41.7717C190.746 48.2729 185.43 53.5437 178.873 53.5437C172.316 53.5437 167 48.2729 167 41.7717C167 35.2705 172.316 29.9998 178.873 29.9998C185.43 29.9998 190.746 35.2705 190.746 41.7717Z" fill="white"/>
<path fill-rule="evenodd" clip-rule="evenodd" d="M299.746 140.772C299.746 147.273 294.43 152.544 287.873 152.544C281.316 152.544 276 147.273 276 140.772C276 134.271 281.316 129 287.873 129C294.43 129 299.746 134.271 299.746 140.772Z" fill="white"/>
<path d="M176.144 47.364L175.164 46.804L180.974 36.766L181.954 37.326L176.144 47.364ZM175.122 43.038C174.366 43.038 173.773 42.7813 173.344 42.268C172.915 41.7547 172.7 41.0033 172.7 40.014C172.7 39.0247 172.915 38.278 173.344 37.774C173.773 37.2607 174.366 37.004 175.122 37.004C175.887 37.004 176.485 37.2607 176.914 37.774C177.343 38.278 177.558 39.0247 177.558 40.014C177.558 41.0127 177.343 41.7687 176.914 42.282C176.485 42.786 175.887 43.038 175.122 43.038ZM175.122 42.086C175.533 42.086 175.836 41.9227 176.032 41.596C176.228 41.26 176.326 40.7327 176.326 40.014C176.326 39.3047 176.228 38.7867 176.032 38.46C175.836 38.1333 175.533 37.97 175.122 37.97C174.711 37.97 174.408 38.1333 174.212 38.46C174.025 38.7773 173.932 39.2953 173.932 40.014C173.932 40.7327 174.025 41.26 174.212 41.596C174.408 41.9227 174.711 42.086 175.122 42.086ZM181.996 47.098C181.231 47.098 180.633 46.846 180.204 46.342C179.775 45.8287 179.56 45.0727 179.56 44.074C179.56 43.0847 179.775 42.338 180.204 41.834C180.633 41.3207 181.231 41.064 181.996 41.064C182.752 41.064 183.345 41.3207 183.774 41.834C184.213 42.338 184.432 43.0847 184.432 44.074C184.432 45.0633 184.217 45.8147 183.788 46.328C183.359 46.8413 182.761 47.098 181.996 47.098ZM181.996 46.146C182.407 46.146 182.705 45.9827 182.892 45.656C183.088 45.32 183.186 44.7927 183.186 44.074C183.186 43.3647 183.088 42.8467 182.892 42.52C182.696 42.184 182.397 42.016 181.996 42.016C181.585 42.016 181.282 42.1793 181.086 42.506C180.89 42.8327 180.792 43.3553 180.792 44.074C180.792 44.7927 180.89 45.32 181.086 45.656C181.282 45.9827 181.585 46.146 181.996 46.146Z" fill="#00AB4E"/>
<path d="M285.144 146.364L284.164 145.804L289.974 135.766L290.954 136.326L285.144 146.364ZM284.122 142.038C283.366 142.038 282.773 141.781 282.344 141.268C281.915 140.755 281.7 140.003 281.7 139.014C281.7 138.025 281.915 137.278 282.344 136.774C282.773 136.261 283.366 136.004 284.122 136.004C284.887 136.004 285.485 136.261 285.914 136.774C286.343 137.278 286.558 138.025 286.558 139.014C286.558 140.013 286.343 140.769 285.914 141.282C285.485 141.786 284.887 142.038 284.122 142.038ZM284.122 141.086C284.533 141.086 284.836 140.923 285.032 140.596C285.228 140.26 285.326 139.733 285.326 139.014C285.326 138.305 285.228 137.787 285.032 137.46C284.836 137.133 284.533 136.97 284.122 136.97C283.711 136.97 283.408 137.133 283.212 137.46C283.025 137.777 282.932 138.295 282.932 139.014C282.932 139.733 283.025 140.26 283.212 140.596C283.408 140.923 283.711 141.086 284.122 141.086ZM290.996 146.098C290.231 146.098 289.633 145.846 289.204 145.342C288.775 144.829 288.56 144.073 288.56 143.074C288.56 142.085 288.775 141.338 289.204 140.834C289.633 140.321 290.231 140.064 290.996 140.064C291.752 140.064 292.345 140.321 292.774 140.834C293.213 141.338 293.432 142.085 293.432 143.074C293.432 144.063 293.217 144.815 292.788 145.328C292.359 145.841 291.761 146.098 290.996 146.098ZM290.996 145.146C291.407 145.146 291.705 144.983 291.892 144.656C292.088 144.32 292.186 143.793 292.186 143.074C292.186 142.365 292.088 141.847 291.892 141.52C291.696 141.184 291.397 141.016 290.996 141.016C290.585 141.016 290.282 141.179 290.086 141.506C289.89 141.833 289.792 142.355 289.792 143.074C289.792 143.793 289.89 144.32 290.086 144.656C290.282 144.983 290.585 145.146 290.996 145.146Z" fill="#00AB4E"/>
</svg>
