<svg width="328" height="164" viewBox="0 0 328 164" fill="none" xmlns="http://www.w3.org/2000/svg">
<mask id="mask0_5567_160329" style="mask-type:alpha" maskUnits="userSpaceOnUse" x="0" y="0" width="328" height="164">
<path d="M304.781 161.504C294.319 163.667 62.9471 165.826 26.1241 161.504C15.2231 160.224 6.49713 148.276 5.22412 146.203C-2.73587 133.238 0.249146 53.2794 2.23914 26.266C3.31015 11.7278 18.1621 5.19571 25.1291 3.03482C38.4521 -1.09779 274.72 -1.26366 305.777 4.11573C319.672 6.52168 324.709 17.8712 325.709 24.1796C328.042 38.8847 329.421 129.331 325.681 141.514C322.695 151.239 315.231 159.343 304.781 161.504Z" fill="white"/>
</mask>
<g mask="url(#mask0_5567_160329)">
<path d="M304.781 161.504C294.319 163.667 62.9471 165.826 26.1241 161.504C15.2231 160.224 6.49713 148.276 5.22412 146.203C-2.73587 133.238 0.249146 53.2794 2.23914 26.266C3.31015 11.7278 18.1621 5.19571 25.1291 3.03482C38.4521 -1.09779 274.72 -1.26366 305.777 4.11573C319.672 6.52168 324.709 17.8712 325.709 24.1796C328.042 38.8847 329.421 129.331 325.681 141.514C322.695 151.239 315.231 159.343 304.781 161.504Z" fill="#E6F6ED"/>
<path fill-rule="evenodd" clip-rule="evenodd" d="M38.6865 176.504H17.5175V117.365H38.6865V176.504Z" fill="#84D7CC"/>
<path fill-rule="evenodd" clip-rule="evenodd" d="M17.5175 121.227L38.686 125.09V117.364H17.5175V121.227Z" fill="#47A699"/>
<mask id="mask1_5567_160329" style="mask-type:alpha" maskUnits="userSpaceOnUse" x="-23" y="109" width="103" height="9">
<path d="M74.9514 109.153C77.2182 109.153 79.0566 110.993 79.0566 113.258C79.0566 115.525 77.2182 117.365 74.9514 117.365H-18.7586C-21.0259 117.365 -22.8638 115.525 -22.8638 113.258C-22.8638 110.993 -21.0259 109.153 -18.7586 109.153H74.9514Z" fill="white"/>
</mask>
<g mask="url(#mask1_5567_160329)">
<path d="M74.9514 109.153C77.2182 109.153 79.0566 110.993 79.0566 113.258C79.0566 115.525 77.2182 117.365 74.9514 117.365H-18.7586C-21.0259 117.365 -22.8638 115.525 -22.8638 113.258C-22.8638 110.993 -21.0259 109.153 -18.7586 109.153H74.9514Z" fill="#84D7CC"/>
</g>
<mask id="mask2_5567_160329" style="mask-type:alpha" maskUnits="userSpaceOnUse" x="225" y="64" width="116" height="11">
<path d="M340.936 64.874H225.867V74.1541H340.936V64.874Z" fill="white"/>
</mask>
<g mask="url(#mask2_5567_160329)">
<path d="M340.936 64.874H225.867V74.1541H340.936V64.874Z" fill="#BBF0D3"/>
</g>
<mask id="mask3_5567_160329" style="mask-type:alpha" maskUnits="userSpaceOnUse" x="286" y="3" width="11" height="63">
<path d="M296.734 3.62891H286.976V65.559H296.734V3.62891Z" fill="white"/>
</mask>
<g mask="url(#mask3_5567_160329)">
<path d="M296.734 3.62891H286.976V65.559H296.734V3.62891Z" fill="#BBF0D3"/>
</g>
<path fill-rule="evenodd" clip-rule="evenodd" d="M286.976 65.5586H277.215V25.8113H286.976V65.5586Z" fill="#84D7CC"/>
<path fill-rule="evenodd" clip-rule="evenodd" d="M267.458 65.5585H257.698V14.5662H267.458V65.5585Z" fill="#84D7CC"/>
<mask id="mask4_5567_160329" style="mask-type:alpha" maskUnits="userSpaceOnUse" x="267" y="10" width="11" height="56">
<path d="M277.215 10.5461H267.456V65.5589H277.215V10.5461Z" fill="white"/>
</mask>
<g mask="url(#mask4_5567_160329)">
<path d="M277.215 10.5461H267.456V65.5589H277.215V10.5461Z" fill="#BBF0D3"/>
</g>
<mask id="mask5_5567_160329" style="mask-type:alpha" maskUnits="userSpaceOnUse" x="296" y="13" width="25" height="53">
<path d="M320.521 62.9048L311.155 65.6502L296.734 16.4488L306.099 13.7039L320.521 62.9048Z" fill="white"/>
</mask>
<g mask="url(#mask5_5567_160329)">
<path d="M320.521 62.9048L311.155 65.6502L296.734 16.4488L306.099 13.7039L320.521 62.9048Z" fill="#BBF0D3"/>
</g>
<mask id="mask6_5567_160329" style="mask-type:alpha" maskUnits="userSpaceOnUse" x="256" y="118" width="45" height="64">
<path d="M274.545 133.211C276.01 137.865 282.313 133.479 285.487 138.653C289.659 145.453 282.254 151.584 284.458 155.687C286.849 160.137 296.719 159.195 299.728 167.462C301.254 171.654 301.314 176.301 299.432 181.175H264.975C263.876 179.485 263.027 177.668 262.527 175.736C260.021 166.047 268.566 165.218 266.806 161.828C264.533 157.448 256.965 155.684 256.471 149.401C255.889 142.01 263.393 140.277 263.019 136.607C262.492 131.434 261.973 120.467 266.854 119.107C267.183 119.015 267.497 118.971 267.793 118.971C272.309 118.971 273.234 129.04 274.545 133.211Z" fill="white"/>
</mask>
<g mask="url(#mask6_5567_160329)">
<path d="M274.545 133.211C276.01 137.865 282.313 133.479 285.487 138.653C289.659 145.453 282.254 151.584 284.458 155.687C286.849 160.137 296.719 159.195 299.728 167.462C301.254 171.654 301.314 176.301 299.432 181.175H264.975C263.876 179.485 263.027 177.668 262.527 175.736C260.021 166.047 268.566 165.218 266.806 161.828C264.533 157.448 256.965 155.684 256.471 149.401C255.889 142.01 263.393 140.277 263.019 136.607C262.492 131.434 261.973 120.467 266.854 119.107C267.183 119.015 267.497 118.971 267.793 118.971C272.309 118.971 273.234 129.04 274.545 133.211Z" fill="#BBF0D3"/>
</g>
<path d="M285.469 189.508C285.469 189.508 274.57 163.023 267.525 131.217" stroke="white" stroke-width="0.63014"/>
<path d="M272.337 150.354L279.749 141.624" stroke="white" stroke-width="0.63014"/>
<path fill-rule="evenodd" clip-rule="evenodd" d="M299.295 194.053C307.1 189.785 315.624 182.505 317.937 173.071C320.958 160.747 310.658 159.692 312.779 155.379C315.519 149.808 324.642 147.564 325.237 139.571C325.938 130.169 316.892 127.964 317.343 123.295C317.978 116.715 318.604 102.763 312.721 101.034C306.29 99.1427 305.136 113.32 303.45 118.974C301.685 124.896 294.087 119.316 290.261 125.898C285.232 134.549 294.159 142.347 291.502 147.567C288.619 153.228 276.723 152.029 273.095 162.547C270.754 169.335 271.276 177.062 275.846 185.13C282.791 188.115 291.648 190.969 299.295 194.053Z" fill="#84D7CC"/>
<path d="M298.911 163.438C298.911 163.438 306.808 142.084 311.911 116.438" stroke="white" stroke-width="0.78057"/>
<mask id="mask7_5567_160329" style="mask-type:alpha" maskUnits="userSpaceOnUse" x="130" y="33" width="69" height="111">
<path d="M150.916 33.7504L191.139 38.8779C191.158 38.8806 191.179 38.8833 191.2 38.8867C195.747 39.5059 198.856 44.317 198.15 49.665L187.058 135.127C186.44 139.885 182.486 143.408 177.832 143.678L177.748 143.683C177.168 143.711 176.579 143.689 175.983 143.614L138.803 138.872C134.018 138.262 130.471 134.353 130.184 129.743L130.175 129.576C130.15 129.016 130.173 128.446 130.247 127.871L141.339 42.4228C142.001 37.4089 145.778 33.6919 150.001 33.6919C150.305 33.6919 150.61 33.7109 150.916 33.7504Z" fill="white"/>
</mask>
<g mask="url(#mask7_5567_160329)">
<path fill-rule="evenodd" clip-rule="evenodd" d="M201.617 26.415L120.388 30.7519L126.803 150.913L208.032 146.576L201.617 26.415Z" fill="#252528"/>
</g>
<mask id="mask8_5567_160329" style="mask-type:alpha" maskUnits="userSpaceOnUse" x="127" y="33" width="69" height="111">
<path d="M148.404 33.6442L188.459 38.7874C188.479 38.7901 188.5 38.7942 188.519 38.7962C193.048 39.4181 196.143 44.2455 195.441 49.6132L184.39 135.384C183.693 140.782 178.757 144.596 173.362 143.902L136.338 139.146C130.936 138.452 127.121 133.508 127.818 128.105L138.867 42.3472C139.526 37.3163 143.289 33.5857 147.495 33.5857C147.797 33.5857 148.1 33.6047 148.404 33.6442Z" fill="white"/>
</mask>
<g mask="url(#mask8_5567_160329)">
<path fill-rule="evenodd" clip-rule="evenodd" d="M198.905 26.3201L117.939 30.6426L124.375 151.191L205.341 146.869L198.905 26.3201Z" fill="#58585B"/>
</g>
<mask id="mask9_5567_160329" style="mask-type:alpha" maskUnits="userSpaceOnUse" x="131" y="38" width="61" height="103">
<path d="M148.108 39.0282L154.527 39.8638C155.349 39.9706 156.087 39.9447 156.155 40.9824L156.231 42.137C156.296 43.176 156.922 43.9795 157.746 44.087L175.997 46.4609C176.821 46.5671 177.63 45.95 177.958 44.9634L178.324 43.8659C178.622 42.9732 179.22 43.0603 179.94 43.1651C180.016 43.1766 180.094 43.1882 180.173 43.1977L186.592 44.0305C186.603 44.0326 186.617 44.0346 186.629 44.036C189.577 44.4456 191.568 47.7972 191.085 51.5435L180.578 133.82C180.044 137.99 176.267 140.934 172.137 140.396L137.881 135.942C133.742 135.403 130.818 131.576 131.35 127.401L141.856 45.1416C142.31 41.6165 144.797 38.9922 147.55 38.9922C147.735 38.9922 147.921 39.0038 148.108 39.0282Z" fill="white"/>
</mask>
<g mask="url(#mask9_5567_160329)">
<path fill-rule="evenodd" clip-rule="evenodd" d="M194.695 31.958L121.826 35.8485L127.781 147.401L200.651 143.511L194.695 31.958Z" fill="white"/>
</g>
<mask id="mask10_5567_160329" style="mask-type:alpha" maskUnits="userSpaceOnUse" x="134" y="53" width="5" height="11">
<path d="M136.87 53.1002L138.092 53.2553L136.793 63.0163L135.572 62.8632C135.188 62.8129 134.916 62.4659 134.967 62.0903L136.083 53.6969C136.129 53.3485 136.431 53.0947 136.78 53.0947C136.81 53.0947 136.84 53.0961 136.87 53.1002Z" fill="white"/>
</mask>
<g mask="url(#mask10_5567_160329)">
<path fill-rule="evenodd" clip-rule="evenodd" d="M142.338 48.2859L129.743 48.9581L130.752 67.8501L143.346 67.1779L142.338 48.2859Z" fill="#252528"/>
</g>
<mask id="mask11_5567_160329" style="mask-type:alpha" maskUnits="userSpaceOnUse" x="133" y="64" width="4" height="10">
<path d="M135.241 64.5826C135.243 64.5826 135.244 64.5826 135.247 64.5833L136.344 64.7187L135.322 73.4904L134.225 73.3557C133.879 73.3135 133.634 73.004 133.674 72.6638L134.551 65.1222C134.586 64.8092 134.856 64.5779 135.168 64.5779C135.192 64.5779 135.216 64.5792 135.241 64.5826Z" fill="white"/>
</mask>
<g mask="url(#mask11_5567_160329)">
<path fill-rule="evenodd" clip-rule="evenodd" d="M132.154 59.1865L142.955 62.5436L137.919 78.7446L127.119 75.3875L132.154 59.1865Z" fill="#252528"/>
</g>
<mask id="mask12_5567_160329" style="mask-type:alpha" maskUnits="userSpaceOnUse" x="164" y="38" width="11" height="5">
<path d="M165.497 38.9459L173.635 40.0556C173.636 40.0556 173.64 40.0563 173.641 40.057C174.132 40.127 174.48 40.5965 174.419 41.1109L174.395 41.2939C174.332 41.8069 173.877 42.1696 173.381 42.1022L165.243 40.9905C164.749 40.9224 164.399 40.4502 164.462 39.9358L164.485 39.7542C164.543 39.282 164.929 38.937 165.374 38.937C165.414 38.937 165.456 38.9404 165.497 38.9459Z" fill="white"/>
</mask>
<g mask="url(#mask12_5567_160329)">
<path fill-rule="evenodd" clip-rule="evenodd" d="M178.55 33.7219L159.658 34.7303L160.33 47.3252L179.222 46.3168L178.55 33.7219Z" fill="#252528"/>
</g>
<mask id="mask13_5567_160329" style="mask-type:alpha" maskUnits="userSpaceOnUse" x="159" y="38" width="4" height="3">
<path d="M161.446 38.2669C161.45 38.2656 161.453 38.2663 161.455 38.2669C162.19 38.3697 162.706 39.0433 162.611 39.7801C162.515 40.5218 161.837 41.0437 161.097 40.9457C160.356 40.8504 159.835 40.1727 159.932 39.4325C160.019 38.7514 160.6 38.2554 161.269 38.2554C161.328 38.2554 161.387 38.2588 161.446 38.2669Z" fill="white"/>
</mask>
<g mask="url(#mask13_5567_160329)">
<path fill-rule="evenodd" clip-rule="evenodd" d="M166.807 33.4465L155.112 34.0711L155.736 45.7659L167.431 45.1412L166.807 33.4465Z" fill="#252528"/>
</g>
<mask id="mask14_5567_160329" style="mask-type:alpha" maskUnits="userSpaceOnUse" x="138" y="49" width="54" height="92">
<path d="M191.184 51.8028L180.476 133.914C179.933 138.077 176.104 141.018 171.92 140.483L138.09 136.176C178.241 136.193 189.976 57.9679 191.146 49.3643C191.272 50.1386 191.295 50.9598 191.184 51.8028Z" fill="white"/>
</mask>
<g mask="url(#mask14_5567_160329)">
<path fill-rule="evenodd" clip-rule="evenodd" d="M195.454 44.623L128.882 48.1775L134.165 147.136L200.737 143.581L195.454 44.623Z" fill="#C3DFF8"/>
</g>
<mask id="mask15_5567_160329" style="mask-type:alpha" maskUnits="userSpaceOnUse" x="152" y="113" width="30" height="21">
<path d="M157.853 113.857C160.874 115.537 170.12 122.525 170.12 122.525L177.196 126.769L181.161 128.359L181.628 133.228L171.532 127.305L152.188 114.394C152.188 114.394 153.58 113.228 155.496 113.228C156.222 113.228 157.024 113.396 157.853 113.857Z" fill="white"/>
</mask>
<g mask="url(#mask15_5567_160329)">
<path fill-rule="evenodd" clip-rule="evenodd" d="M183.259 107.228L147.504 110.385L150.474 139.228L186.229 136.071L183.259 107.228Z" fill="#C3DFF8"/>
</g>
<path fill-rule="evenodd" clip-rule="evenodd" d="M199.851 112.699C201.787 114.155 202.992 116.39 203.152 118.814L204.945 145.938C205.181 149.504 206.132 152.981 207.741 156.167L212.427 166.42L184.703 174.228L179.595 164.911C176.744 162.186 174.345 159.021 172.487 155.537L165.353 142.166C164.514 140.593 163.478 139.135 162.27 137.828L149.778 124.303C148.645 123.077 148.091 121.421 148.251 119.758C148.528 116.929 150.787 114.707 153.612 114.492L154.056 114.459C155.453 114.353 156.839 114.756 157.961 115.592L172.45 126.376C173.436 127.109 174.513 127.709 175.652 128.157L185.022 132.025C187.178 132.915 188.107 125.397 188.107 125.397L190.698 105.228L199.851 112.699Z" fill="#FFDAB8"/>
<path fill-rule="evenodd" clip-rule="evenodd" d="M164.938 55.6106C161.106 55.2079 157.694 57.9682 157.289 61.7991C156.885 65.6094 159.655 69.0429 163.456 69.4441C167.301 69.8499 170.714 67.0859 171.116 63.2401C171.515 59.4215 168.754 56.0118 164.938 55.6106ZM161.346 59.992C161.181 60.0638 161.089 60.1013 160.999 60.1439C160.853 60.2131 160.725 60.2378 160.636 60.0555C160.543 59.8619 160.663 59.8014 160.81 59.7375C162.277 59.0973 163.791 58.8484 165.376 59.1908C166.377 59.407 167.277 59.8364 168.087 60.4589C168.206 60.55 168.363 60.6374 168.212 60.8286C168.059 61.0229 167.934 60.9078 167.802 60.8021C167.729 60.7435 167.648 60.6936 167.524 60.6072C167.563 60.7417 167.584 60.8176 167.607 60.8925C168.051 62.3019 168.495 63.7113 168.939 65.1204C169.092 65.6031 168.99 65.8449 168.526 66.0605C168.388 66.1248 168.24 66.1767 168.09 66.2093C167.168 66.4106 166.27 66.3088 165.392 65.9775C165.188 65.9002 165 65.789 164.829 65.6536C164.459 65.3621 164.413 65.0973 164.646 64.6865C165.428 63.3065 166.203 61.9228 166.992 60.5469C167.101 60.3583 167.053 60.296 166.881 60.2079C165.347 59.4221 163.754 59.2924 162.098 59.7365C161.871 59.7973 161.847 59.8845 161.914 60.0936C162.381 61.5428 162.835 62.9959 163.293 64.4478C163.481 65.0433 163.352 65.3206 162.762 65.5315C162.03 65.7929 161.281 65.7598 160.533 65.6117C160.059 65.5176 159.601 65.3729 159.214 65.0659C158.842 64.7719 158.793 64.5061 159.024 64.0997C159.395 63.4457 159.765 62.7909 160.136 62.136C160.527 61.4438 160.917 60.7513 161.346 59.992Z" fill="#02A750"/>
<path fill-rule="evenodd" clip-rule="evenodd" d="M162.962 74.5695C166.424 74.8863 169.5 73.937 172.136 71.6728C174.258 69.8509 175.574 67.5357 176.099 64.7812C176.146 64.5319 176.174 64.2789 176.222 64.0298C176.248 63.8964 176.206 63.8577 176.075 63.8471C175.723 63.8187 175.371 63.7819 175.021 63.7355C174.853 63.7134 174.875 63.8249 174.863 63.9189C174.733 64.8672 174.498 65.7892 174.124 66.6699C173.428 68.3094 172.397 69.7028 171.015 70.8316C169.498 72.0698 167.775 72.8561 165.839 73.1453C163.773 73.4541 161.772 73.2022 159.858 72.3469C157.516 71.301 155.761 69.6295 154.606 67.3452C153.587 65.3284 153.251 63.1914 153.583 60.9512C153.976 58.2998 155.202 56.0954 157.225 54.3625C159.234 52.6416 161.588 51.7744 164.246 51.7859C166.449 51.7955 168.464 52.421 170.28 53.6698C170.42 53.766 170.51 53.7753 170.615 53.631C170.796 53.3815 170.98 53.1332 171.178 52.8974C171.297 52.7548 171.265 52.6798 171.125 52.5813C170.266 51.978 169.341 51.498 168.357 51.1431C166.534 50.4864 164.654 50.265 162.73 50.5021C160.336 50.7971 158.205 51.7229 156.372 53.2916C154.092 55.2421 152.704 57.7055 152.244 60.676C151.794 63.5764 152.327 66.2998 153.851 68.8004C155.49 71.4903 157.845 73.2813 160.877 74.1691C161.559 74.3689 162.253 74.495 162.962 74.5695Z" fill="#BAD333"/>
<path fill-rule="evenodd" clip-rule="evenodd" d="M165.161 53.1676C161.71 52.9226 158.884 54.1196 156.71 56.8336C156.589 56.9842 156.599 57.0645 156.756 57.1737C156.979 57.3284 157.196 57.4968 157.393 57.682C157.572 57.8492 157.675 57.8492 157.832 57.6406C158.604 56.6154 159.581 55.8354 160.735 55.2727C163.904 53.727 167.849 54.5105 170.183 57.1643C171.853 59.0622 172.506 61.2743 172.143 63.7735C171.599 67.526 168.299 70.4811 164.505 70.5447C161.055 70.6026 158.54 69.0314 156.952 65.9745C156.877 65.8297 156.824 65.7891 156.672 65.8762C156.396 66.0334 156.112 66.1778 155.824 66.3085C155.652 66.3863 155.657 66.4726 155.732 66.6206C156.982 69.0869 158.908 70.7705 161.566 71.5454C165.68 72.7445 169.938 71.0888 172.223 67.452C174.857 63.2576 173.621 57.5041 169.496 54.747C168.181 53.8684 166.745 53.3278 165.161 53.1676Z" fill="#74BC46"/>
<path fill-rule="evenodd" clip-rule="evenodd" d="M161.346 59.992C160.917 60.7514 160.527 61.4439 160.136 62.136C159.766 62.7908 159.395 63.4456 159.024 64.0996C158.793 64.5061 158.843 64.7719 159.214 65.0659C159.601 65.3728 160.059 65.5176 160.533 65.6116C161.281 65.7598 162.03 65.7928 162.762 65.5315C163.353 65.3207 163.482 65.0433 163.294 64.4478C162.835 62.9959 162.381 61.5428 161.915 60.0936C161.847 59.8845 161.871 59.7973 162.098 59.7364C163.754 59.2924 165.347 59.422 166.881 60.2079C167.053 60.2959 167.101 60.3582 166.993 60.5468C166.204 61.9227 165.428 63.3065 164.646 64.6865C164.414 65.0972 164.459 65.362 164.829 65.6536C165.001 65.7889 165.188 65.9002 165.393 65.9774C166.27 66.3088 167.168 66.4106 168.091 66.2092C168.24 66.1767 168.388 66.1248 168.527 66.0604C168.991 65.8449 169.092 65.6031 168.939 65.1203C168.495 63.7113 168.051 62.3019 167.608 60.8925C167.584 60.8176 167.564 60.7417 167.525 60.6071C167.649 60.6937 167.729 60.7435 167.802 60.802C167.934 60.9078 168.059 61.0229 168.213 60.8286C168.363 60.6374 168.206 60.55 168.087 60.4589C167.278 59.8363 166.377 59.4069 165.376 59.1908C163.791 58.8484 162.278 59.0972 160.81 59.7374C160.663 59.8013 160.543 59.8618 160.637 60.0554C160.725 60.2378 160.854 60.2131 161 60.1438C161.089 60.1013 161.182 60.0638 161.346 59.992ZM167.184 61.0189C167.217 61.0573 167.234 61.0691 167.239 61.0848C167.635 62.3358 168.028 63.5877 168.427 64.8376C168.486 65.0251 168.391 65.0065 168.266 64.9931C167.384 64.8982 166.501 64.8063 165.618 64.7134C165.467 64.6976 165.317 64.6817 165.126 64.6616C165.823 63.4269 166.501 62.2279 167.184 61.0189ZM161.563 60.4329C161.596 60.4705 161.622 60.4871 161.629 60.5096C162.02 61.7524 162.408 62.9961 162.802 64.2382C162.856 64.4082 162.787 64.4183 162.648 64.4032C161.675 64.2975 160.702 64.1929 159.728 64.0977C159.517 64.077 159.543 64.0036 159.626 63.8618C159.845 63.4868 160.052 63.1047 160.265 62.7266C160.695 61.9655 161.126 61.2052 161.563 60.4329Z" fill="#F3FAF6"/>
<path fill-rule="evenodd" clip-rule="evenodd" d="M167.184 61.019C166.501 62.228 165.823 63.4269 165.126 64.6617C165.317 64.6818 165.467 64.6976 165.618 64.7135C166.501 64.8064 167.384 64.8983 168.266 64.9932C168.391 65.0066 168.486 65.0251 168.427 64.8377C168.028 63.5877 167.635 62.3359 167.239 61.0849C167.234 61.0692 167.217 61.0574 167.184 61.019Z" fill="#04A650"/>
<path fill-rule="evenodd" clip-rule="evenodd" d="M161.563 60.4328C161.126 61.2051 160.695 61.9654 160.265 62.7265C160.052 63.1046 159.845 63.4868 159.626 63.8617C159.543 64.0036 159.517 64.077 159.728 64.0976C160.702 64.1928 161.675 64.2974 162.647 64.4031C162.787 64.4183 162.856 64.4081 162.802 64.2381C162.408 62.9961 162.02 61.7523 161.629 60.5095C161.622 60.487 161.596 60.4704 161.563 60.4328Z" fill="#04A650"/>
<path fill-rule="evenodd" clip-rule="evenodd" d="M176.469 154.763C178.697 156.317 180.679 158.187 182.176 160.443C184.335 163.699 186.998 167.646 187.801 168.546C189.222 170.139 203.693 167.321 209.286 162.178C209.286 162.178 206.944 168.055 197.255 170.91C187.101 173.9 182.2 170.869 182.2 170.869L176.589 160.659C176.589 160.659 171.534 157.449 162.061 137.228C162.061 137.228 170.737 150.764 176.469 154.763Z" fill="#FFB08C"/>
<path fill-rule="evenodd" clip-rule="evenodd" d="M218.491 167.307L215.795 159.757C215.364 158.552 214.057 157.931 212.874 158.369C212.843 158.381 212.812 158.393 212.782 158.406L183.329 170.84C181.804 171.484 181.063 173.251 181.66 174.819L184.166 181.399C184.728 182.874 186.358 183.606 187.806 183.034C187.821 183.028 187.836 183.022 187.851 183.015L216.911 170.94C218.31 170.359 219.008 168.754 218.491 167.307Z" fill="#00AB4E"/>
<mask id="mask16_5567_160329" style="mask-type:alpha" maskUnits="userSpaceOnUse" x="27" y="41" width="44" height="44">
<path d="M70.7979 62.9033C70.7979 74.744 61.1985 84.3433 49.3579 84.3433C37.5172 84.3433 27.9185 74.744 27.9185 62.9033C27.9185 51.0638 37.5172 41.4634 49.3579 41.4634C61.1985 41.4634 70.7979 51.0638 70.7979 62.9033Z" fill="white"/>
</mask>
<g mask="url(#mask16_5567_160329)">
<path d="M70.7979 62.9033C70.7979 74.744 61.1985 84.3433 49.3579 84.3433C37.5172 84.3433 27.9185 74.744 27.9185 62.9033C27.9185 51.0638 37.5172 41.4634 49.3579 41.4634C61.1985 41.4634 70.7979 51.0638 70.7979 62.9033Z" fill="#00AB4E"/>
</g>
<path d="M55.2652 55.8579L46.445 64.9968L42.6376 61.7167C41.4548 60.6983 39.6807 60.839 38.6737 62.0387C37.6644 63.2323 37.8044 65.0291 38.9912 66.0463L44.7961 71.0523C45.3246 71.5071 45.9732 71.7333 46.6207 71.7333C47.3539 71.7333 48.0864 71.4441 48.6347 70.8726L59.2903 59.8308C60.3745 58.7076 60.3535 56.9034 59.2427 55.8074C58.695 55.2682 57.9857 55 57.2769 55C56.5455 55 55.8152 55.2863 55.2652 55.8579Z" fill="white"/>
</g>
<path fill-rule="evenodd" clip-rule="evenodd" d="M127.364 73.9194L199.513 83.2501C201.684 83.531 203.227 85.5054 202.973 87.6802L201.61 99.3766C201.354 101.571 199.368 103.142 197.173 102.886C197.157 102.885 197.14 102.883 197.123 102.88L124.975 93.5496C122.803 93.2688 121.261 91.2943 121.515 89.1195L122.878 77.4232C123.134 75.2289 125.12 73.6575 127.314 73.9133C127.331 73.9152 127.348 73.9172 127.364 73.9194Z" fill="#00AB4E"/>
<path d="M137.677 88.8549L138.216 84.4599L141.053 89.2695L141.92 89.3759L142.693 83.0782L141.612 82.9455L141.073 87.3316L138.235 82.5309L137.378 82.4256L136.605 88.7233L137.677 88.8549ZM145.659 89.9076C146.105 89.9624 146.508 89.9182 146.867 89.7749C147.227 89.6316 147.518 89.3984 147.742 89.0753C147.966 88.7522 148.106 88.3613 148.163 87.9028C148.219 87.4442 148.177 87.0326 148.038 86.6679C147.898 86.3031 147.671 86.0078 147.358 85.7819C147.044 85.5559 146.664 85.4156 146.217 85.3607C145.77 85.3059 145.367 85.3501 145.008 85.4934C144.649 85.6367 144.356 85.8682 144.13 86.188C143.903 86.5078 143.761 86.8969 143.705 87.3555C143.649 87.814 143.692 88.2273 143.834 88.5954C143.976 88.9635 144.204 89.2605 144.518 89.4864C144.832 89.7123 145.212 89.8527 145.659 89.9076ZM145.756 89.04C145.399 88.9961 145.14 88.8434 144.978 88.5818C144.817 88.3201 144.765 87.9571 144.822 87.4926C144.878 87.034 145.018 86.696 145.241 86.4786C145.464 86.2612 145.754 86.1744 146.112 86.2183C146.469 86.2621 146.728 86.4164 146.889 86.681C147.05 86.9456 147.102 87.3071 147.046 87.7657C146.989 88.2302 146.851 88.5699 146.631 88.7847C146.411 88.9995 146.119 89.0846 145.756 89.04ZM150.425 90.4202L150.724 87.9815C150.769 87.6183 150.887 87.3456 151.079 87.1636C151.27 86.9816 151.512 86.9085 151.804 86.9444C152.06 86.9758 152.234 87.0742 152.325 87.2396C152.417 87.405 152.442 87.6544 152.401 87.9879L152.077 90.6231L153.194 90.7602L153.493 88.3216C153.538 87.9583 153.656 87.6856 153.848 87.5036C154.039 87.3216 154.284 87.2489 154.582 87.2855C154.832 87.3162 155.004 87.4144 155.099 87.5802C155.193 87.7459 155.22 87.9955 155.179 88.329L154.856 90.9643L155.972 91.1014L156.301 88.4215C156.376 87.814 156.309 87.3479 156.101 87.0232C155.893 86.6984 155.542 86.5057 155.048 86.445C154.732 86.4062 154.437 86.4441 154.163 86.5586C153.889 86.673 153.668 86.8499 153.5 87.0891C153.353 86.5149 152.948 86.1872 152.287 86.1061C151.99 86.0695 151.717 86.098 151.47 86.1916C151.223 86.2851 151.019 86.443 150.859 86.6651L150.934 86.0487L149.845 85.9149L149.308 90.2831L150.425 90.4202ZM159.586 91.6176C160.033 91.6725 160.436 91.6283 160.795 91.485C161.154 91.3417 161.446 91.1084 161.67 90.7853C161.894 90.4622 162.034 90.0714 162.09 89.6129C162.146 89.1543 162.105 88.7427 161.965 88.3779C161.826 88.0132 161.599 87.7179 161.285 87.4919C160.971 87.266 160.591 87.1256 160.144 87.0708C159.698 87.0159 159.295 87.0602 158.936 87.2035C158.577 87.3468 158.284 87.5783 158.057 87.8981C157.83 88.2178 157.689 88.607 157.633 89.0655C157.576 89.5241 157.619 89.9374 157.761 90.3055C157.904 90.6736 158.132 90.9706 158.445 91.1965C158.759 91.4224 159.139 91.5628 159.586 91.6176ZM159.684 90.75C159.326 90.7062 159.067 90.5534 158.906 90.2918C158.744 90.0302 158.692 89.6672 158.749 89.2026C158.806 88.7441 158.945 88.4061 159.168 88.1887C159.392 87.9712 159.682 87.8845 160.039 87.9283C160.396 87.9722 160.656 88.1264 160.817 88.391C160.977 88.6556 161.03 89.0172 160.973 89.4758C160.916 89.9403 160.778 90.2799 160.558 90.4947C160.338 90.7095 160.047 90.7947 159.684 90.75ZM164.352 92.1303L164.642 89.772C164.724 89.0991 165.14 88.7692 165.888 88.7825L166.547 88.8L166.591 87.8533L166.248 87.8384C165.534 87.799 165.031 88.0275 164.741 88.5238L164.835 87.7555L163.772 87.625L163.236 91.9932L164.352 92.1303ZM173.062 93.2813C173.479 93.3325 173.886 93.3175 174.282 93.2362C174.679 93.155 175.014 93.0162 175.286 92.8199L174.961 91.7735C174.661 91.9483 174.37 92.0667 174.087 92.1287C173.805 92.1907 173.518 92.2038 173.226 92.168C172.666 92.0993 172.258 91.8663 172.001 91.4691C171.745 91.0718 171.659 90.5278 171.744 89.837C171.829 89.1462 172.043 88.6406 172.388 88.3202C172.733 87.9998 173.185 87.874 173.745 87.9427C174.036 87.9785 174.312 88.0607 174.571 88.1893C174.83 88.3178 175.084 88.5032 175.333 88.7452L175.901 87.8085C175.685 87.5522 175.394 87.3367 175.028 87.1619C174.663 86.987 174.272 86.874 173.855 86.8228C173.218 86.7446 172.646 86.8089 172.14 87.0158C171.634 87.2226 171.225 87.5547 170.911 88.012C170.598 88.4692 170.402 89.0194 170.323 89.6626C170.244 90.3058 170.302 90.8871 170.495 91.4065C170.688 91.9259 171.005 92.3487 171.445 92.6748C171.886 93.0009 172.425 93.2031 173.062 93.2813ZM178.061 93.8136L178.834 87.5158L177.441 87.3447L176.668 93.6425L178.061 93.8136ZM181.184 94.197L181.51 91.5439L184.207 91.8751L184.342 90.7764L181.644 90.4451L181.822 88.998L184.699 89.3512L184.833 88.2524L180.581 87.7303L179.808 94.028L181.184 94.197Z" fill="white"/>
<path d="M191.807 23.0046C192.252 22.5703 192.964 22.5785 193.398 23.0229C193.793 23.4269 193.822 24.0523 193.49 24.4889L193.38 24.6138L186.511 31.3267C186.066 31.7609 185.354 31.7527 184.92 31.3084C184.525 30.9044 184.496 30.279 184.828 29.8424L184.938 29.7175L191.807 23.0046Z" fill="#FFD37B"/>
<path d="M150.316 17.7332C150.797 17.4367 151.414 17.5456 151.767 17.9652L151.864 18.1003L156.906 26.2756C157.232 26.8045 157.067 27.4975 156.539 27.8237C156.058 28.1201 155.441 28.0113 155.088 27.5917L154.99 27.4566L149.949 19.2813C149.623 18.7524 149.787 18.0593 150.316 17.7332Z" fill="#FFD37B"/>
<path d="M172.801 12.6893C173.366 12.7588 173.782 13.2362 173.789 13.7903L173.781 13.9431L172.318 25.8536C172.243 26.4703 171.681 26.9089 171.065 26.8331C170.499 26.7637 170.084 26.2863 170.077 25.7322L170.085 25.5794L171.547 13.6689C171.623 13.0522 172.184 12.6136 172.801 12.6893Z" fill="#FFC54F"/>
</svg>
