<svg width="328" height="164" viewBox="0 0 328 164" fill="none" xmlns="http://www.w3.org/2000/svg">
<path fill-rule="evenodd" clip-rule="evenodd" d="M23.2189 161.504C33.6809 163.667 265.053 165.826 301.876 161.504C312.777 160.224 321.503 148.276 322.776 146.203C330.736 133.238 327.751 53.2794 325.761 26.266C324.69 11.7278 309.838 5.19571 302.871 3.03482C289.548 -1.09779 53.2799 -1.26366 22.2229 4.11573C8.32787 6.52168 3.29087 17.8712 2.29087 24.1796C-0.0421274 38.8847 -1.42113 129.331 2.31887 141.514C5.30487 151.239 12.7689 159.343 23.2189 161.504Z" fill="#EAFFF2"/>
<mask id="mask0_5567_161447" style="mask-type:alpha" maskUnits="userSpaceOnUse" x="0" y="0" width="328" height="164">
<path fill-rule="evenodd" clip-rule="evenodd" d="M23.2189 161.504C33.6809 163.667 265.053 165.826 301.876 161.504C312.777 160.224 321.503 148.276 322.776 146.203C330.736 133.238 327.751 53.2794 325.761 26.266C324.69 11.7278 309.838 5.19571 302.871 3.03482C289.548 -1.09779 53.2799 -1.26366 22.2229 4.11573C8.32787 6.52168 3.29087 17.8712 2.29087 24.1796C-0.0421274 38.8847 -1.42113 129.331 2.31887 141.514C5.30487 151.239 12.7689 159.343 23.2189 161.504Z" fill="white"/>
</mask>
<g mask="url(#mask0_5567_161447)">
<path fill-rule="evenodd" clip-rule="evenodd" d="M104.61 166.163C104.61 166.163 217.172 74.3145 361.71 103.103C361.71 103.103 433.34 115.441 487.702 161.365L104.61 166.163Z" fill="#BBF0D3"/>
<path fill-rule="evenodd" clip-rule="evenodd" d="M-43 166.431C-43 166.431 37.2445 98.9846 140.286 120.125C140.286 120.125 191.351 129.185 230.105 162.907L-43 166.431Z" fill="#84D7CC"/>
<path fill-rule="evenodd" clip-rule="evenodd" d="M172.051 152.622C172.051 154.538 166.616 156.091 159.911 156.091C153.206 156.091 147.771 154.538 147.771 152.622C147.771 150.706 153.206 149.153 159.911 149.153C166.616 149.153 172.051 150.706 172.051 152.622Z" fill="#47A699"/>
<path fill-rule="evenodd" clip-rule="evenodd" d="M190.062 147.33C190.062 148.619 186.18 149.665 181.39 149.665C176.601 149.665 172.719 148.619 172.719 147.33C172.719 146.04 176.601 144.995 181.39 144.995C186.18 144.995 190.062 146.04 190.062 147.33Z" fill="#47A699"/>
<path fill-rule="evenodd" clip-rule="evenodd" d="M140.187 138.981L60.4043 140.921C58.8542 140.959 57.5633 139.879 57.5206 138.509L57.4986 137.803C57.4559 136.433 58.6776 135.292 60.2278 135.254L140.011 133.314C141.561 133.276 142.852 134.356 142.894 135.726L142.916 136.433C142.959 137.802 141.737 138.943 140.187 138.981Z" fill="#47A699"/>
<path fill-rule="evenodd" clip-rule="evenodd" d="M124.596 82.3123C120.128 82.4173 116.419 78.9336 116.313 74.5311L115.713 49.7635C115.478 40.0616 107.276 32.3571 97.4294 32.5888C87.5825 32.8201 79.7628 40.9019 79.9975 50.603L80.5974 75.3709C80.704 79.7731 77.1678 83.4274 72.6999 83.5324C68.2315 83.6374 64.5226 80.1537 64.416 75.7511L63.8165 50.9836C63.3682 32.4908 78.2739 17.087 97.0427 16.6457C115.812 16.2043 131.446 30.8905 131.894 49.3829L132.494 74.1504C132.601 78.553 129.065 82.2073 124.596 82.3123Z" fill="#004D43"/>
<path fill-rule="evenodd" clip-rule="evenodd" d="M72.7 83.5324C77.1679 83.4299 80.7041 79.8619 80.5975 75.5638L80.1674 58.2273L63.9863 58.5989L64.4161 75.9351C64.5227 80.2335 68.2316 83.6349 72.7 83.5324Z" fill="#002E28"/>
<path fill-rule="evenodd" clip-rule="evenodd" d="M115.883 57.3605L116.313 74.697C116.42 78.9951 120.128 82.3969 124.596 82.294C129.065 82.1918 132.601 78.6239 132.494 74.3254L132.064 56.9893L115.883 57.3605Z" fill="#002E28"/>
<path fill-rule="evenodd" clip-rule="evenodd" d="M133.315 65.0547L63.1216 66.7069C58.9546 66.8049 55.658 70.2164 55.7571 74.3263L57.1182 130.59C57.2176 134.7 60.6756 137.952 64.8419 137.854L135.036 136.202C139.202 136.104 142.499 132.693 142.4 128.582L141.04 72.3191C140.94 68.2088 137.481 64.9566 133.315 65.0547Z" fill="#FFC54F"/>
<path fill-rule="evenodd" clip-rule="evenodd" d="M108.245 98.7212C108.123 93.7363 103.862 89.7919 98.728 89.9108C93.5943 90.0297 89.5316 94.1672 89.6541 99.1517C89.7251 102.033 91.1804 104.565 93.3864 106.168L93.8087 123.337L105.284 123.072L104.862 105.902C106.986 104.199 108.316 101.603 108.245 98.7212Z" fill="#DF9F1C"/>
<path fill-rule="evenodd" clip-rule="evenodd" d="M142.4 128.577L141.039 72.3714C141.012 71.2212 140.713 70.1428 140.216 69.1821C140.105 70.2851 133.731 132.413 107.814 136.828L135.037 136.188C139.203 136.09 142.5 132.683 142.4 128.577Z" fill="#DF9F1C"/>
<path fill-rule="evenodd" clip-rule="evenodd" d="M149.324 92.3003C149.45 92.2861 149.575 92.2492 149.676 92.1765C150.629 91.4868 150.404 90.0448 150.058 88.976C149.835 88.2878 149.095 87.8791 148.34 88.0057C146.807 88.2626 143.972 88.3413 142.375 88.3658C141.816 88.3743 141.425 87.8493 141.623 87.359C143.463 82.8187 143.392 81.1634 142.334 79.5078C141.743 78.5827 141.949 78.2081 140.633 78.0889C136.475 81.6363 134.775 88.3814 135.152 90.1502C135.53 91.9239 138.176 93.3429 138.176 93.3429H140.128C140.136 93.3418 140.143 93.3404 140.15 93.3397L149.324 92.3003Z" fill="#DC9C1C"/>
<path fill-rule="evenodd" clip-rule="evenodd" d="M162.152 156.083L154.238 155.331C153.437 155.255 152.858 154.666 152.953 154.023C153.048 153.379 153.782 152.915 154.584 152.991L162.497 153.743C163.299 153.819 163.877 154.408 163.782 155.051C163.688 155.695 162.954 156.159 162.152 156.083Z" fill="#0E3E66"/>
<path fill-rule="evenodd" clip-rule="evenodd" d="M164.855 150.737H158.674C158.067 150.737 157.57 150.448 157.57 150.094V149.985C157.57 149.631 158.067 149.342 158.674 149.342H164.855C165.462 149.342 165.959 149.631 165.959 149.985V150.094C165.959 150.448 165.462 150.737 164.855 150.737Z" fill="#0E3E66"/>
<path fill-rule="evenodd" clip-rule="evenodd" d="M177.047 109.219C181.208 106.581 182.318 101.256 179.527 97.325C176.735 93.3933 171.1 92.3446 166.939 94.982C162.778 97.6196 161.668 102.945 164.459 106.876C167.251 110.808 172.886 111.856 177.047 109.219Z" stroke="#387942" stroke-width="2.646"/>
<path fill-rule="evenodd" clip-rule="evenodd" d="M178.371 145.009L175.004 112.66C174.915 111.804 174.129 111.18 173.249 111.267C172.369 111.354 171.727 112.118 171.816 112.974L175.183 145.323C175.273 146.18 176.058 146.803 176.939 146.717C177.819 146.63 178.46 145.866 178.371 145.009Z" fill="#387942"/>
<path fill-rule="evenodd" clip-rule="evenodd" d="M176.599 139.818L184.945 139.197C185.749 139.137 186.336 138.61 186.254 138.018C186.172 137.427 185.454 136.996 184.65 137.056L176.304 137.677C175.499 137.737 174.913 138.264 174.994 138.856C175.076 139.447 175.794 139.878 176.599 139.818Z" fill="#387942"/>
<path fill-rule="evenodd" clip-rule="evenodd" d="M177.217 145.93L185.563 145.309C186.368 145.249 186.954 144.721 186.873 144.13C186.791 143.539 186.073 143.108 185.268 143.167L176.922 143.789C176.118 143.848 175.531 144.376 175.613 144.968C175.695 145.559 176.413 145.99 177.217 145.93Z" fill="#387942"/>
<path fill-rule="evenodd" clip-rule="evenodd" d="M144.602 102.448C144.602 102.448 144.602 138.787 152.54 152.878L156.32 151.765C156.32 151.765 152.414 120.816 154.901 113.201C154.986 112.942 155.356 112.936 155.447 113.192L160.545 126.525C161.213 128.4 161.21 130.444 160.521 132.312C159.258 135.736 156.69 146.549 157.454 148.799L161.612 148.428L168.625 129.991C169.223 128.725 169.357 127.295 169.002 125.944L161.234 101.336L144.602 102.448Z" fill="#135385"/>
<path fill-rule="evenodd" clip-rule="evenodd" d="M149.581 74.1199C149.581 74.1199 143.266 74.4855 140.503 78.1417C137.741 81.7979 136.162 88.7447 136.557 90.5728C136.951 92.401 139.714 93.8634 139.714 93.8634H142.871C142.871 93.8634 141.687 98.6165 144.45 101.907C144.45 101.907 150.776 105.814 162.433 101.953C163.619 101.56 164.238 100.346 163.818 99.2461C162.884 96.7965 161.42 92.681 161.42 90.9385C161.42 88.3791 161.045 84.9057 161.045 84.9057L166.945 89.8416L168.919 90.9385L171.629 93.315C171.629 93.315 173.519 92.5838 173.519 89.2932C173.519 85.4761 162.21 77.4105 162.21 77.4105C162.21 77.4105 160.631 76.3136 158.658 75.948C156.684 75.5824 153.098 74.8826 153.098 74.8826L149.581 74.1199Z" fill="#3390E0"/>
<path fill-rule="evenodd" clip-rule="evenodd" d="M151.645 92.3758C151.773 92.3624 151.9 92.327 152.002 92.2565C152.975 91.5859 152.754 90.1736 152.409 89.1261C152.186 88.4516 151.437 88.0482 150.67 88.1683C149.111 88.4123 146.233 88.4761 144.61 88.492C144.043 88.4977 143.648 87.9823 143.853 87.5034C145.747 83.0691 145.684 81.4488 144.619 79.8236C144.024 78.9153 142.486 78.571 141.151 78.4478C138.457 81.9143 136.893 88.4711 137.265 90.204C137.639 91.9415 140.318 93.3429 140.318 93.3429L142.3 93.3521C142.308 93.351 142.316 93.35 142.323 93.3493L151.645 92.3758Z" fill="#1868A8"/>
<path fill-rule="evenodd" clip-rule="evenodd" d="M150.272 87.9851C150.272 87.9851 151.406 86.4567 152.918 86.202C154.43 85.9472 152.918 87.4756 152.918 87.4756L151.406 88.2398L150.272 87.9851Z" fill="#FFD7B5"/>
<path fill-rule="evenodd" clip-rule="evenodd" d="M156.5 91.6211L153.122 92.084C152.374 92.1862 151.806 91.492 152.012 90.7258L154.046 83.1514C154.188 82.6243 154.658 82.2468 155.172 82.2468L158.528 82.2472C159.223 82.2472 159.692 82.9211 159.491 83.6311L157.478 90.7422C157.346 91.2076 156.956 91.5586 156.5 91.6211Z" fill="#387942"/>
<path fill-rule="evenodd" clip-rule="evenodd" d="M156.878 91.6211L153.5 92.084C152.752 92.1862 152.184 91.492 152.39 90.7258L154.424 83.1514C154.566 82.6243 155.036 82.2468 155.55 82.2468L158.906 82.2472C159.601 82.2472 160.07 82.9211 159.869 83.6311L157.856 90.7422C157.724 91.2076 157.333 91.5586 156.878 91.6211Z" fill="#72BC44"/>
<path fill-rule="evenodd" clip-rule="evenodd" d="M151.554 93.3977L142.871 94.384C142.871 94.384 142.046 97.3686 143.387 100.076C144.297 95.9052 151.554 93.3977 151.554 93.3977Z" fill="#1868A8"/>
<path fill-rule="evenodd" clip-rule="evenodd" d="M157.076 72.8286C157.076 72.8286 155.379 73.5728 154.528 74.7822C153.823 75.7834 152.456 76.2956 151.132 76.1036C149.711 75.8977 148.192 75.1525 148.571 73.6573C148.571 73.6573 149.02 71.1617 150.591 69.0115L157.076 72.8286Z" fill="#FFB18D"/>
<path fill-rule="evenodd" clip-rule="evenodd" d="M161.8 63.4009C161.8 63.4009 161.4 73.07 156.2 73.4419C151 73.8138 149 70.4668 149 65.6322C149 63.8192 149.731 62.5816 150.645 61.7426C152.001 60.4986 153.964 60.0126 155.836 60.3391L160.6 61.1695L161.8 63.4009Z" fill="#FFD7B5"/>
<path fill-rule="evenodd" clip-rule="evenodd" d="M148.089 65.1692C147.823 63.2663 147.951 60.1381 151.334 59.1249C151.334 59.1249 158.964 53.6375 163.617 63.0495C163.983 63.7909 163.51 64.6557 162.631 64.8423C160.667 65.2594 157.153 65.3511 153.824 62.1096C153.824 62.1096 153.229 65.2051 150.277 66.3158C149.306 66.6811 148.221 66.1076 148.089 65.1692Z" fill="#834B16"/>
<path fill-rule="evenodd" clip-rule="evenodd" d="M166.904 91.1047C166.904 91.1047 165.951 90.8839 165.315 91.5462C164.882 91.9964 164.891 92.5488 164.941 92.8562C164.976 93.0736 165.185 93.2697 165.489 93.3261C165.855 93.3946 166.38 93.2791 166.904 92.4293V91.1047Z" fill="#FFB18D"/>
<path fill-rule="evenodd" clip-rule="evenodd" d="M169.842 89.4756L168.363 89.7178C167.618 89.8401 166.984 90.2508 166.692 90.826C166.223 91.7518 165.856 93.1428 167.282 93.9214C167.282 93.9214 167.95 94.041 169.55 93.9214C171.043 93.8102 172.337 93.3924 172.574 92.1792C172.669 91.6954 172.669 91.163 172.456 90.655C172.09 89.781 170.948 89.2944 169.842 89.4756Z" fill="#FFD7B5"/>
<path fill-rule="evenodd" clip-rule="evenodd" d="M151.028 88.4901C151.028 88.4901 156.32 85.0233 156.698 87.5446C156.698 87.5446 157.076 88.175 156.698 89.1205C156.698 89.1205 157.076 90.066 156.698 90.3811C155.942 91.0115 151.406 91.6418 151.406 91.6418L151.028 88.4901Z" fill="#FFD7B5"/>
<path fill-rule="evenodd" clip-rule="evenodd" d="M151.315 92.5208C151.447 92.507 151.577 92.4708 151.683 92.3988C152.682 91.7135 152.456 90.2705 152.1 89.2004C151.872 88.5112 151.102 88.099 150.313 88.2217C148.71 88.4711 145.751 88.536 144.082 88.5523C143.498 88.5583 143.094 88.0316 143.304 87.5421C145.251 83.0114 145.187 81.356 144.092 79.6953C143.479 78.7673 141.899 78.4155 140.525 78.2896C137.756 81.8313 136.148 88.5307 136.531 90.3014C136.915 92.0767 139.67 93.5086 139.67 93.5086L141.708 93.5182C141.715 93.5172 141.723 93.5157 141.731 93.5147L151.315 92.5208Z" fill="#3393E3"/>
<path fill-rule="evenodd" clip-rule="evenodd" d="M278.217 64.8588H184.261C178.498 64.8588 173.783 60.1436 173.783 54.381V41.6946C173.783 35.932 178.498 31.2168 184.261 31.2168H278.217C283.98 31.2168 288.695 35.932 288.695 41.6946V54.381C288.695 60.1436 283.98 64.8588 278.217 64.8588Z" fill="#84D7CC"/>
<path fill-rule="evenodd" clip-rule="evenodd" d="M197 63.0002L176.792 72.8669C175.607 73.4433 174.458 72.0262 175.276 70.9991L183.781 63.0002H197Z" fill="#84D7CC"/>
<path fill-rule="evenodd" clip-rule="evenodd" d="M193.136 49.4493H184.669C184.085 49.4493 183.611 48.9757 183.611 48.3909C183.611 47.8065 184.085 47.3325 184.669 47.3325H193.136C193.721 47.3325 194.195 47.8065 194.195 48.3909C194.195 48.9757 193.721 49.4493 193.136 49.4493Z" fill="white"/>
<path fill-rule="evenodd" clip-rule="evenodd" d="M186.786 53.1159C186.202 53.1159 185.728 52.6418 185.728 52.0575C185.728 51.8715 185.777 51.6893 185.87 51.5283L190.103 44.1936C190.417 43.7003 191.071 43.5547 191.564 43.8681C192.029 44.1633 192.189 44.7647 191.934 45.252L187.701 52.5867C187.512 52.9133 187.164 53.1151 186.786 53.1159Z" fill="white"/>
<path fill-rule="evenodd" clip-rule="evenodd" d="M191.02 53.1159C190.642 53.1159 190.293 52.914 190.104 52.5867L185.87 45.252C185.599 44.7341 185.799 44.0945 186.317 43.8235C186.804 43.5687 187.405 43.7294 187.701 44.1936L191.935 51.5283C192.227 52.0344 192.053 52.6819 191.547 52.9741C191.386 53.0671 191.203 53.1159 191.018 53.1159H191.02Z" fill="white"/>
<path fill-rule="evenodd" clip-rule="evenodd" d="M209.769 49.4493H201.302C200.717 49.4493 200.243 48.9757 200.243 48.3909C200.243 47.8065 200.717 47.3325 201.302 47.3325H209.769C210.353 47.3325 210.827 47.8065 210.827 48.3909C210.827 48.9757 210.353 49.4493 209.769 49.4493Z" fill="white"/>
<path fill-rule="evenodd" clip-rule="evenodd" d="M203.418 53.1159C202.833 53.1159 202.359 52.6418 202.36 52.0575C202.36 51.8715 202.409 51.6893 202.502 51.5283L206.735 44.1936C207.049 43.7003 207.703 43.5547 208.196 43.8681C208.66 44.1633 208.821 44.7647 208.566 45.252L204.333 52.5867C204.144 52.9133 203.796 53.1151 203.418 53.1159Z" fill="white"/>
<path fill-rule="evenodd" clip-rule="evenodd" d="M207.652 53.1159C207.274 53.1159 206.924 52.914 206.735 52.5867L202.502 45.252C202.231 44.7341 202.431 44.0945 202.949 43.8235C203.436 43.5687 204.037 43.7294 204.333 44.1936L208.566 51.5283C208.859 52.0344 208.685 52.6819 208.179 52.9741C208.018 53.0671 207.835 53.1159 207.65 53.1159H207.652Z" fill="white"/>
<path fill-rule="evenodd" clip-rule="evenodd" d="M226.401 49.4493H217.933C217.349 49.4493 216.875 48.9757 216.875 48.3909C216.875 47.8065 217.349 47.3325 217.933 47.3325H226.401C226.985 47.3325 227.459 47.8065 227.459 48.3909C227.459 48.9757 226.985 49.4493 226.401 49.4493Z" fill="white"/>
<path fill-rule="evenodd" clip-rule="evenodd" d="M220.051 53.1159C219.466 53.1159 218.992 52.6418 218.992 52.0575C218.992 51.8715 219.041 51.6893 219.134 51.5283L223.367 44.1936C223.681 43.7003 224.335 43.5547 224.829 43.8681C225.293 44.1633 225.453 44.7647 225.198 45.252L220.965 52.5867C220.776 52.9133 220.428 53.1151 220.051 53.1159Z" fill="white"/>
<path fill-rule="evenodd" clip-rule="evenodd" d="M224.283 53.1159C223.905 53.1159 223.556 52.914 223.367 52.5867L219.134 45.252C218.863 44.7341 219.063 44.0945 219.581 43.8235C220.068 43.5687 220.669 43.7294 220.965 44.1936L225.198 51.5283C225.49 52.0344 225.317 52.6819 224.811 52.9741C224.65 53.0671 224.467 53.1159 224.282 53.1159H224.283Z" fill="white"/>
<path fill-rule="evenodd" clip-rule="evenodd" d="M243.032 49.4493H234.565C233.981 49.4493 233.507 48.9757 233.507 48.3909C233.507 47.8065 233.981 47.3325 234.565 47.3325H243.032C243.617 47.3325 244.091 47.8065 244.091 48.3909C244.091 48.9757 243.617 49.4493 243.032 49.4493Z" fill="white"/>
<path fill-rule="evenodd" clip-rule="evenodd" d="M236.682 53.1159C236.098 53.1159 235.624 52.6418 235.624 52.0575C235.624 51.8715 235.673 51.6893 235.766 51.5283L239.999 44.1936C240.313 43.7003 240.967 43.5547 241.46 43.8681C241.925 44.1633 242.085 44.7647 241.83 45.252L237.597 52.5867C237.408 52.9133 237.06 53.1151 236.682 53.1159Z" fill="white"/>
<path fill-rule="evenodd" clip-rule="evenodd" d="M240.916 53.1159C240.538 53.1159 240.189 52.914 240 52.5867L235.766 45.252C235.495 44.7341 235.695 44.0945 236.213 43.8235C236.7 43.5687 237.301 43.7294 237.597 44.1936L241.831 51.5283C242.123 52.0344 241.949 52.6819 241.443 52.9741C241.282 53.0671 241.099 53.1159 240.914 53.1159H240.916Z" fill="white"/>
<path fill-rule="evenodd" clip-rule="evenodd" d="M259.665 49.4493H251.198C250.613 49.4493 250.139 48.9757 250.139 48.3909C250.139 47.8065 250.613 47.3325 251.198 47.3325H259.665C260.249 47.3325 260.723 47.8065 260.723 48.3909C260.723 48.9757 260.249 49.4493 259.665 49.4493Z" fill="white"/>
<path fill-rule="evenodd" clip-rule="evenodd" d="M253.314 53.1159C252.729 53.1159 252.255 52.6418 252.256 52.0575C252.256 51.8715 252.305 51.6893 252.398 51.5283L256.631 44.1936C256.945 43.7003 257.599 43.5547 258.092 43.8681C258.556 44.1633 258.717 44.7647 258.462 45.252L254.229 52.5867C254.04 52.9133 253.692 53.1151 253.314 53.1159Z" fill="white"/>
<path fill-rule="evenodd" clip-rule="evenodd" d="M257.548 53.1159C257.17 53.1159 256.82 52.914 256.631 52.5867L252.398 45.252C252.127 44.7341 252.327 44.0945 252.845 43.8235C253.332 43.5687 253.933 43.7294 254.229 44.1936L258.462 51.5283C258.755 52.0344 258.581 52.6819 258.075 52.9741C257.914 53.0671 257.731 53.1159 257.546 53.1159H257.548Z" fill="white"/>
<path fill-rule="evenodd" clip-rule="evenodd" d="M276.297 49.4493H267.829C267.245 49.4493 266.771 48.9757 266.771 48.3909C266.771 47.8065 267.245 47.3325 267.829 47.3325H276.297C276.881 47.3325 277.355 47.8065 277.355 48.3909C277.355 48.9757 276.881 49.4493 276.297 49.4493Z" fill="white"/>
<path fill-rule="evenodd" clip-rule="evenodd" d="M269.946 53.1159C269.361 53.1159 268.887 52.6418 268.888 52.0575C268.888 51.8715 268.936 51.6893 269.029 51.5283L273.263 44.1936C273.576 43.7003 274.231 43.5547 274.724 43.8681C275.188 44.1633 275.349 44.7647 275.094 45.252L270.86 52.5867C270.672 52.9133 270.323 53.1151 269.946 53.1159Z" fill="white"/>
<path fill-rule="evenodd" clip-rule="evenodd" d="M274.179 53.1159C273.801 53.1159 273.452 52.914 273.263 52.5867L269.03 45.252C268.759 44.7341 268.959 44.0945 269.477 43.8235C269.964 43.5687 270.565 43.7294 270.861 44.1936L275.094 51.5283C275.386 52.0344 275.213 52.6819 274.707 52.9741C274.546 53.0671 274.363 53.1159 274.178 53.1159H274.179Z" fill="white"/>
<mask id="mask1_5567_161447" style="mask-type:alpha" maskUnits="userSpaceOnUse" x="149" y="10" width="28" height="12">
<path fill-rule="evenodd" clip-rule="evenodd" d="M158.831 16.7702C158.119 16.5626 157.363 16.4551 156.574 16.4551C153.13 16.4551 150.234 18.5582 149.327 21.4312H158.886H163.81H176.155C176.403 20.671 176.543 19.8606 176.543 19.0219C176.543 14.4695 172.504 10.7778 167.515 10.7778C163.39 10.7778 159.911 13.3146 158.831 16.7702Z" fill="white"/>
</mask>
<g mask="url(#mask1_5567_161447)">
<path fill-rule="evenodd" clip-rule="evenodd" d="M149.328 21.6575H177.407V10.7773H149.328V21.6575Z" fill="#B8EDD0"/>
</g>
<mask id="mask2_5567_161447" style="mask-type:alpha" maskUnits="userSpaceOnUse" x="18" y="31" width="52" height="22">
<path fill-rule="evenodd" clip-rule="evenodd" d="M18.7729 47.3956C18.7729 49.0479 19.036 50.646 19.5015 52.1443H42.6337H51.8604H69.7729V52.1429C68.0727 46.4798 62.647 42.3351 56.1931 42.3351C54.7143 42.3351 53.2975 42.5475 51.9637 42.9559C49.9397 36.1442 43.421 31.1443 35.6925 31.1443C26.3421 31.1443 18.7729 38.4214 18.7729 47.3956Z" fill="white"/>
</mask>
<g mask="url(#mask2_5567_161447)">
<path fill-rule="evenodd" clip-rule="evenodd" d="M4.77295 62.1443H75.7729V20.1443H4.77295V62.1443Z" fill="#BBF0D3"/>
</g>
<path fill-rule="evenodd" clip-rule="evenodd" d="M296.843 55.8464L287.673 52.4523C287.506 52.3899 287.322 52.3899 287.155 52.4523L277.986 55.8464C277.694 55.9545 277.502 56.2319 277.502 56.5438V64.475C277.502 73.4974 287.128 76.1476 287.225 76.1737C287.287 76.1903 287.352 76.1986 287.415 76.1986C287.479 76.1986 287.543 76.1903 287.606 76.1737C287.703 76.1476 297.328 73.4974 297.328 64.475V56.5438C297.328 56.2319 297.135 55.9545 296.843 55.8464Z" fill="#387942"/>
<path fill-rule="evenodd" clip-rule="evenodd" d="M286.141 69.608C285.765 69.608 285.389 69.4784 285.081 69.2172L281.71 66.3428C281.022 65.7577 280.939 64.7261 281.526 64.0408C282.111 63.3525 283.141 63.2716 283.828 63.8567L286.039 65.7399L291.161 60.4922C291.791 59.8458 292.825 59.8348 293.472 60.4631C294.117 61.0924 294.129 62.1281 293.499 62.773L287.311 69.114C286.993 69.4421 286.567 69.608 286.141 69.608Z" fill="white"/>
<path fill-rule="evenodd" clip-rule="evenodd" d="M156.131 83.5024C156.131 83.7788 155.877 84.0024 155.564 84.0024C155.251 84.0024 154.997 83.7788 154.997 83.5024C154.997 83.2261 155.251 83.0024 155.564 83.0024C155.877 83.0024 156.131 83.2261 156.131 83.5024Z" fill="#387942"/>
<path fill-rule="evenodd" clip-rule="evenodd" d="M157.548 83.7861C157.548 84.0621 157.421 84.2861 157.265 84.2861C157.108 84.2861 156.981 84.0621 156.981 83.7861C156.981 83.5101 157.108 83.2861 157.265 83.2861C157.421 83.2861 157.548 83.5101 157.548 83.7861Z" fill="#FFC24F"/>
</g>
</svg>
