<svg width="328" height="164" viewBox="0 0 328 164" fill="none" xmlns="http://www.w3.org/2000/svg">
<rect width="328" height="164" fill="white"/>
<mask id="mask0_5567_145122" style="mask-type:alpha" maskUnits="userSpaceOnUse" x="0" y="0" width="328" height="164">
<path d="M23.2189 161.504C33.6809 163.667 265.053 165.826 301.876 161.504C312.777 160.224 321.503 148.276 322.776 146.203C330.736 133.238 327.751 53.2794 325.761 26.266C324.69 11.7278 309.838 5.19571 302.871 3.03482C289.548 -1.09779 53.2799 -1.26366 22.2229 4.11573C8.32787 6.52168 3.29087 17.8712 2.29087 24.1796C-0.0421274 38.8847 -1.42113 129.331 2.31887 141.514C5.30487 151.239 12.7689 159.343 23.2189 161.504Z" fill="white"/>
</mask>
<g mask="url(#mask0_5567_145122)">
<path d="M23.2189 161.504C33.6809 163.667 265.053 165.826 301.876 161.504C312.777 160.224 321.503 148.276 322.776 146.203C330.736 133.238 327.751 53.2794 325.761 26.266C324.69 11.7278 309.838 5.19571 302.871 3.03482C289.548 -1.09779 53.2799 -1.26366 22.2229 4.11573C8.32787 6.52168 3.29087 17.8712 2.29087 24.1796C-0.0421274 38.8847 -1.42113 129.331 2.31887 141.514C5.30487 151.239 12.7689 159.343 23.2189 161.504Z" fill="#EDFFF5"/>
<path fill-rule="evenodd" clip-rule="evenodd" d="M322.109 123.643H257.091C254.204 123.643 251.843 121.313 251.843 118.464V64.5955C251.843 61.7467 254.204 59.4163 257.091 59.4163H322.109C324.996 59.4163 327.357 61.7467 327.357 64.5955V118.464C327.357 121.313 324.996 123.643 322.109 123.643Z" fill="#C6EED5"/>
<path fill-rule="evenodd" clip-rule="evenodd" d="M317.105 90.0447H261.7C260.192 90.0447 258.959 88.8279 258.959 87.3405V71.0307C258.959 69.5433 260.192 68.3259 261.7 68.3259H317.105C318.612 68.3259 319.845 69.5433 319.845 71.0307V87.3405C319.845 88.8279 318.612 90.0447 317.105 90.0447Z" fill="#EAFFF2"/>
<path fill-rule="evenodd" clip-rule="evenodd" d="M317.105 114.919H261.7C260.192 114.919 258.959 113.702 258.959 112.214V95.9046C258.959 94.4172 260.192 93.2004 261.7 93.2004H317.105C318.612 93.2004 319.845 94.4172 319.845 95.9046V112.214C319.845 113.702 318.612 114.919 317.105 114.919Z" fill="#EAFFF2"/>
<path fill-rule="evenodd" clip-rule="evenodd" d="M305.315 46.6874C305.315 46.6874 302.558 39.5114 310.332 32.4644C310.332 32.4644 314.768 39.6914 305.315 46.6874Z" fill="#C6EED5"/>
<path fill-rule="evenodd" clip-rule="evenodd" d="M305.731 48.5935C305.731 48.5935 298.257 46.4743 297.194 36.1111C297.194 36.1111 305.716 36.9325 305.731 48.5935Z" fill="#C6EED5"/>
<path fill-rule="evenodd" clip-rule="evenodd" d="M310.642 46.3538H297.722V52.0364C297.722 54.6338 299.855 56.7392 302.486 56.7392H305.877C308.509 56.7392 310.642 54.6338 310.642 52.0364V46.3538Z" fill="#DAF6E5"/>
<path fill-rule="evenodd" clip-rule="evenodd" d="M269.991 49.3537L268.985 48.4663L273.547 48.7993L273.63 49.3537H269.991Z" fill="#EAFFF2"/>
<path fill-rule="evenodd" clip-rule="evenodd" d="M292.342 80.2898C292.342 81.8918 291.025 83.1902 289.403 83.1902C287.779 83.1902 286.464 81.8918 286.464 80.2898C286.464 78.6878 287.779 77.3894 289.403 77.3894C291.025 77.3894 292.342 78.6878 292.342 80.2898Z" fill="#DAF6E5"/>
<path fill-rule="evenodd" clip-rule="evenodd" d="M292.539 103.94C292.539 105.542 291.223 106.84 289.6 106.84C287.977 106.84 286.661 105.542 286.661 103.94C286.661 102.338 287.977 101.04 289.6 101.04C291.223 101.04 292.539 102.338 292.539 103.94Z" fill="#DAF6E5"/>
<path fill-rule="evenodd" clip-rule="evenodd" d="M312.435 59.9861H296.609C294.111 59.9861 292.087 57.9881 292.087 55.5239H316.957C316.957 57.9881 314.932 59.9861 312.435 59.9861Z" fill="#DAF6E5"/>
<path d="M354 113H1V178H354V113Z" fill="#BBF0D3"/>
<mask id="mask1_5567_145122" style="mask-type:alpha" maskUnits="userSpaceOnUse" x="268" y="48" width="6" height="2">
<path d="M269.749 49.3537H273.34L273.258 48.7987L268.756 48.4663L269.749 49.3537Z" fill="white"/>
</mask>
<g mask="url(#mask1_5567_145122)">
<path fill-rule="evenodd" clip-rule="evenodd" d="M264.78 59.9546H279.487V35.4434H264.78V59.9546Z" fill="#EAFFF2"/>
<path fill-rule="evenodd" clip-rule="evenodd" d="M265.255 52.8552H276.842V44.9646H265.255V52.8552Z" fill="#EAFFF2"/>
</g>
<path fill-rule="evenodd" clip-rule="evenodd" d="M4.63647 81.8519H67.6479V2.95435H4.63647V81.8519Z" fill="#BBF0D3"/>
<mask id="mask2_5567_145122" style="mask-type:alpha" maskUnits="userSpaceOnUse" x="46" y="8" width="18" height="9">
<path d="M52.5098 12.8298C52.064 12.6882 51.59 12.6138 51.095 12.6138C48.9374 12.6138 47.1236 14.055 46.5542 16.0236V16.0254H52.5446H55.6304H63.3656C63.521 15.5034 63.6092 14.9484 63.6092 14.3736C63.6092 11.2524 61.0784 8.72217 57.9512 8.72217C55.3664 8.72217 53.1866 10.461 52.5098 12.8298Z" fill="white"/>
</mask>
<g mask="url(#mask2_5567_145122)">
<path fill-rule="evenodd" clip-rule="evenodd" d="M43.1702 19.4087H66.9932V5.33813H43.1702V19.4087Z" fill="#EDFFF5"/>
</g>
<path fill-rule="evenodd" clip-rule="evenodd" d="M3.62061 85.8431H68.6642V80.5073H3.62061V85.8431Z" fill="white"/>
<path fill-rule="evenodd" clip-rule="evenodd" d="M3.62061 42.8478H68.6642V41.9592H3.62061V42.8478Z" fill="#EDFFF5"/>
<path fill-rule="evenodd" clip-rule="evenodd" d="M30.7689 52.1029C30.0021 50.1823 28.1241 48.8293 25.9293 48.8293C23.6955 48.8293 21.7935 50.2297 21.0459 52.1977C20.4885 51.8941 19.8489 51.7249 19.1685 51.7249C16.9869 51.7249 15.2217 53.4895 15.2217 55.6651C15.2217 55.8451 15.2367 56.0257 15.2601 56.2003H21.1791H23.0709H26.9463H30.6735H34.0095C34.0377 56.0257 34.0521 55.8451 34.0521 55.6651C34.0521 53.7919 32.6091 52.2499 30.7689 52.1029Z" fill="white"/>
<path fill-rule="evenodd" clip-rule="evenodd" d="M3.24023 5.55552H75.5048V2.47632H3.24023V5.55552Z" fill="#84D7CC"/>
<path fill-rule="evenodd" clip-rule="evenodd" d="M76.7764 7.2403H76.1146C75.3508 7.2403 74.731 6.6205 74.731 5.8555V1.9849C74.731 1.2199 75.3508 0.600098 76.1146 0.600098H76.7764C77.5414 0.600098 78.1606 1.2199 78.1606 1.9849V5.8555C78.1606 6.6205 77.5414 7.2403 76.7764 7.2403Z" fill="#84D7CC"/>
<path fill-rule="evenodd" clip-rule="evenodd" d="M72.8043 25.9086C72.8043 26.8032 72.0795 27.5292 71.1849 27.5292C70.2903 27.5292 69.5649 26.8032 69.5649 25.9086C69.5649 25.0146 70.2903 24.2886 71.1849 24.2886C72.0795 24.2886 72.8043 25.0146 72.8043 25.9086Z" fill="#84D7CC"/>
<path d="M71.0466 3.96729L71.2572 24.6271" stroke="#84D7CC" stroke-width="0.6768"/>
<path fill-rule="evenodd" clip-rule="evenodd" d="M46.8667 70.717C46.8667 70.717 44.1613 63.5806 51.7897 56.5732C51.7897 56.5732 56.1439 63.7594 46.8667 70.717Z" fill="#84D7CC"/>
<path fill-rule="evenodd" clip-rule="evenodd" d="M47.2749 72.6123C47.2749 72.6123 39.9399 70.5051 38.8977 60.1995C38.8977 60.1995 47.2605 61.0161 47.2749 72.6123Z" fill="#84D7CC"/>
<path fill-rule="evenodd" clip-rule="evenodd" d="M52.0948 70.385H39.415V76.0358C39.415 78.6188 41.5084 80.7122 44.0908 80.7122H47.4184C50.0014 80.7122 52.0948 78.6188 52.0948 76.0358V70.385Z" fill="#DAF6E5"/>
<path fill-rule="evenodd" clip-rule="evenodd" d="M43.605 70.385L42.6174 69.5024L47.094 69.8336L47.1762 70.385H43.605Z" fill="#EDFFF5"/>
<mask id="mask3_5567_145122" style="mask-type:alpha" maskUnits="userSpaceOnUse" x="42" y="69" width="6" height="2">
<path d="M43.6051 70.3848H47.1763L47.0935 69.8334L42.6169 69.5022L43.6051 70.3848Z" fill="white"/>
</mask>
<g mask="url(#mask3_5567_145122)">
<path fill-rule="evenodd" clip-rule="evenodd" d="M38.6636 80.9268H53.2886V56.5518H38.6636V80.9268Z" fill="#EDFFF5"/>
<path fill-rule="evenodd" clip-rule="evenodd" d="M39.1353 73.8673H50.6583V66.0205H39.1353V73.8673Z" fill="#EDFFF5"/>
</g>
<mask id="mask4_5567_145122" style="mask-type:alpha" maskUnits="userSpaceOnUse" x="256" y="137" width="78" height="49">
<path d="M256.158 137.524H333.2V185.831H256.158V137.524Z" fill="white"/>
</mask>
<g mask="url(#mask4_5567_145122)">
</g>
<mask id="mask5_5567_145122" style="mask-type:alpha" maskUnits="userSpaceOnUse" x="127" y="33" width="79" height="119">
<path d="M176.664 33.6112L134.751 41.8763C134.731 41.8815 134.71 41.8857 134.689 41.8898C129.952 42.8668 127.029 48.145 128.153 53.7169L145.923 142.754C147.041 148.357 152.523 151.997 158.171 150.882L196.911 143.241C201.899 142.258 205.345 137.897 205.319 133.033L205.316 132.85C205.303 132.26 205.238 131.664 205.118 131.066L187.35 42.0417C186.382 37.2404 182.725 33.7804 178.692 33.4868C178.023 33.438 177.344 33.477 176.664 33.6112Z" fill="white"/>
</mask>
<g mask="url(#mask5_5567_145122)">
<path fill-rule="evenodd" clip-rule="evenodd" d="M122.847 29.5257L208.539 28.2762L210.386 155.04L124.696 156.289L122.847 29.5257Z" fill="#1868A7"/>
</g>
<mask id="mask6_5567_145122" style="mask-type:alpha" maskUnits="userSpaceOnUse" x="130" y="33" width="78" height="119">
<path d="M179.297 33.3193L137.562 41.5907C137.54 41.5948 137.52 41.599 137.499 41.6032C132.784 42.5798 129.874 47.8761 130.997 53.468L148.746 142.834C149.863 148.458 155.325 152.115 160.947 150.999L199.524 143.353C205.152 142.236 208.808 136.768 207.689 131.139L189.944 41.7859C188.976 36.9647 185.326 33.489 181.307 33.1963C180.643 33.148 179.971 33.1856 179.297 33.3193Z" fill="white"/>
</mask>
<g mask="url(#mask6_5567_145122)">
<path fill-rule="evenodd" clip-rule="evenodd" d="M125.691 29.2318L211.105 27.9868L212.958 155.159L127.545 156.404L125.691 29.2318Z" fill="#3392E2"/>
</g>
<mask id="mask7_5567_145122" style="mask-type:alpha" maskUnits="userSpaceOnUse" x="135" y="38" width="70" height="110">
<path d="M179.993 38.9583L173.306 40.2957C172.448 40.4664 171.671 40.4916 171.674 41.5863L171.678 42.8065C171.682 43.9032 171.082 44.793 170.224 44.9647L151.209 48.7647C150.352 48.9364 149.457 48.345 149.041 47.3316L148.578 46.2025C148.2 45.2871 147.579 45.4217 146.829 45.5822C146.75 45.6002 146.669 45.6181 146.587 45.6331L139.899 46.9676C139.887 46.9705 139.872 46.9732 139.861 46.9752C136.792 47.6168 134.937 51.2827 135.712 55.1857L152.639 140.917C153.498 145.263 157.68 148.088 161.984 147.226L197.672 140.096C201.984 139.232 204.783 135.002 203.926 130.651L187.002 44.9369C186.327 41.5379 183.877 39.0746 181.223 38.8813C180.816 38.8517 180.404 38.8759 179.993 38.9583Z" fill="white"/>
</mask>
<g mask="url(#mask7_5567_145122)">
<path fill-rule="evenodd" clip-rule="evenodd" d="M130.519 34.8571L207.392 33.7362L209.108 151.418L132.235 152.539L130.519 34.8571Z" fill="white"/>
</g>
<mask id="mask8_5567_145122" style="mask-type:alpha" maskUnits="userSpaceOnUse" x="129" y="63" width="5" height="11">
<path d="M130.594 63.5663C130.592 63.5661 130.588 63.5668 130.587 63.5667C130.189 63.6491 129.934 64.0283 130.013 64.4204L131.786 73.1621C131.864 73.556 132.256 73.811 132.657 73.7327L133.93 73.4828L131.867 63.3145L130.594 63.5663Z" fill="white"/>
</mask>
<g mask="url(#mask8_5567_145122)">
<path fill-rule="evenodd" clip-rule="evenodd" d="M125.171 58.6661L138.457 58.4726L138.748 78.4025L125.461 78.596L125.171 58.6661Z" fill="#3392E2"/>
</g>
<mask id="mask9_5567_145122" style="mask-type:alpha" maskUnits="userSpaceOnUse" x="191" y="52" width="5" height="12">
<path d="M192.813 52.9457L191.538 53.1964L193.601 63.3638L194.874 63.1158C195.274 63.0355 195.535 62.6519 195.454 62.2597L193.681 53.517C193.616 53.1897 193.335 52.957 193.012 52.9335C192.946 52.9287 192.88 52.9325 192.813 52.9457Z" fill="white"/>
</mask>
<g mask="url(#mask9_5567_145122)">
<path fill-rule="evenodd" clip-rule="evenodd" d="M186.72 48.2765L200.007 48.083L200.297 68.0128L187.011 68.2064L186.72 48.2765Z" fill="#3392E2"/>
</g>
<mask id="mask10_5567_145122" style="mask-type:alpha" maskUnits="userSpaceOnUse" x="133" y="75" width="4" height="12">
<path d="M133.622 75.8596C133.618 75.8603 133.618 75.8603 133.615 75.8611C133.218 75.9425 132.96 76.3253 133.04 76.7156L134.815 85.4574C134.893 85.8514 135.281 86.1081 135.684 86.0289L136.957 85.779L134.896 75.6108L133.622 75.8596Z" fill="white"/>
</mask>
<g mask="url(#mask10_5567_145122)">
<path fill-rule="evenodd" clip-rule="evenodd" d="M128.198 70.9623L141.485 70.7688L141.775 90.6986L128.488 90.8921L128.198 70.9623Z" fill="#3392E2"/>
</g>
<mask id="mask11_5567_145122" style="mask-type:alpha" maskUnits="userSpaceOnUse" x="152" y="40" width="11" height="5">
<path d="M161.709 40.1146L153.235 41.8633C153.233 41.8632 153.23 41.8639 153.228 41.8647C152.716 41.974 152.385 42.4914 152.485 43.0297L152.524 43.22C152.627 43.7538 153.13 44.1026 153.647 43.9956L162.123 42.246C162.637 42.1388 162.971 41.6168 162.869 41.0812L162.83 40.8919C162.745 40.4451 162.383 40.1275 161.965 40.0971C161.881 40.0909 161.795 40.0961 161.709 40.1146Z" fill="white"/>
</mask>
<g mask="url(#mask11_5567_145122)">
<path fill-rule="evenodd" clip-rule="evenodd" d="M147.616 35.5571L167.545 35.2668L167.739 48.5527L147.809 48.8439L147.616 35.5571Z" fill="#1868A7"/>
</g>
<mask id="mask12_5567_145122" style="mask-type:alpha" maskUnits="userSpaceOnUse" x="164" y="39" width="4" height="3">
<path d="M165.918 39.1115C165.915 39.1103 165.912 39.111 165.909 39.1118C165.144 39.273 164.65 40.0184 164.802 40.785C164.957 41.5576 165.706 42.0576 166.477 41.9025C167.25 41.7494 167.749 40.9987 167.593 40.228C167.467 39.5868 166.926 39.1325 166.304 39.0872C166.177 39.078 166.048 39.0848 165.918 39.1115Z" fill="white"/>
</mask>
<g mask="url(#mask12_5567_145122)">
<path fill-rule="evenodd" clip-rule="evenodd" d="M159.939 34.428L172.277 34.2482L172.456 46.5862L160.119 46.766L159.939 34.428Z" fill="#1868A7"/>
</g>
<mask id="mask13_5567_145122" style="mask-type:alpha" maskUnits="userSpaceOnUse" x="135" y="52" width="63" height="96">
<path d="M135.628 55.466L152.755 141.009C153.624 145.345 157.858 148.162 162.216 147.302L197.468 140.357C155.266 143.246 137.338 61.8591 135.493 52.9C135.416 53.7224 135.451 54.5871 135.628 55.466Z" fill="white"/>
</mask>
<g mask="url(#mask13_5567_145122)">
<path fill-rule="evenodd" clip-rule="evenodd" d="M129.405 51.9415L199.634 50.9173L201.157 155.313L130.927 156.337L129.405 51.9415Z" fill="#C3DFF8"/>
</g>
<mask id="mask14_5567_145122" style="mask-type:alpha" maskUnits="userSpaceOnUse" x="170" y="123" width="34" height="23">
<path d="M170.385 124.734L192.25 138.639L203.66 145.003L203.116 139.679L198.639 137.986L190.64 133.424C190.64 133.424 180.187 125.884 176.775 124.081C176.006 123.675 175.258 123.484 174.563 123.434C172.172 123.26 170.385 124.734 170.385 124.734Z" fill="white"/>
</mask>
<g mask="url(#mask14_5567_145122)">
<path fill-rule="evenodd" clip-rule="evenodd" d="M205.408 115.428L165.084 119.549L168.54 153.364L208.864 149.243L205.408 115.428Z" fill="#C3E0FF"/>
</g>
<mask id="mask15_5567_145122" style="mask-type:alpha" maskUnits="userSpaceOnUse" x="164" y="113" width="62" height="57">
<path d="M206.847 131.573L205.373 136.775C205.332 136.915 205.285 137.054 205.23 137.19C204.383 139.291 201.994 140.307 199.893 139.459L190.764 135.776C189.654 135.35 188.603 134.777 187.641 134.073L173.493 123.733C172.396 122.931 171.047 122.55 169.69 122.66L169.259 122.695C166.515 122.922 164.334 125.087 164.083 127.826C163.94 129.436 164.489 131.035 165.596 132.214L177.822 145.22C179.005 146.477 180.019 147.882 180.846 149.398L187.864 162.291C188.791 163.996 189.854 165.621 191.04 167.15L225.384 169.651L222.125 162.673C220.54 159.602 219.595 156.243 219.342 152.794L217.427 126.558C217.256 124.214 216.07 122.06 214.179 120.663L204.679 113.457L206.847 131.573Z" fill="white"/>
</mask>
<g mask="url(#mask15_5567_145122)">
<path fill-rule="evenodd" clip-rule="evenodd" d="M224.778 106.633L157.742 113.484L165.419 188.588L232.453 181.737L224.778 106.633Z" fill="#FFDAB8"/>
</g>
<path fill-rule="evenodd" clip-rule="evenodd" d="M164.086 58.7183C160.959 59.0688 158.719 61.8593 159.066 64.9741C159.411 68.0721 162.222 70.3154 165.325 69.969C168.464 69.6184 170.703 66.8249 170.351 63.6989C170.001 60.595 167.201 58.3691 164.086 58.7183ZM161.987 62.8282C161.869 62.914 161.802 62.9599 161.737 63.0094C161.633 63.09 161.535 63.1322 161.432 63.0028C161.324 62.8653 161.409 62.7962 161.515 62.7198C162.574 61.9542 163.738 61.4916 165.063 61.4862C165.899 61.4828 166.693 61.6664 167.448 62.0192C167.558 62.0709 167.699 62.1127 167.612 62.291C167.524 62.4722 167.404 62.4026 167.28 62.3418C167.212 62.3081 167.139 62.2825 167.025 62.2355C167.079 62.3355 167.109 62.3923 167.141 62.4477C167.742 63.4899 168.342 64.532 168.943 65.5738C169.149 65.9307 169.111 66.1406 168.778 66.393C168.679 66.4684 168.57 66.5355 168.457 66.5875C167.756 66.909 167.021 66.9854 166.263 66.8756C166.087 66.85 165.918 66.7944 165.757 66.7169C165.411 66.55 165.328 66.3476 165.442 65.9805C165.824 64.7472 166.201 63.512 166.59 62.2807C166.643 62.1119 166.594 62.0708 166.442 62.0309C165.08 61.675 163.786 61.8508 162.543 62.4934C162.372 62.5815 162.368 62.655 162.459 62.8094C163.085 63.8792 163.701 64.9543 164.321 66.0276C164.575 66.4679 164.521 66.7108 164.086 66.9817C163.548 67.3175 162.945 67.4223 162.322 67.4355C161.927 67.4438 161.537 67.4089 161.174 67.2328C160.826 67.0642 160.74 66.8617 160.853 66.4983C161.035 65.9137 161.216 65.3286 161.397 64.7435C161.588 64.1251 161.778 63.5065 161.987 62.8282Z" fill="#02A750"/>
<path fill-rule="evenodd" clip-rule="evenodd" d="M165.827 74.1279C168.645 73.7736 170.934 72.4809 172.641 70.2205C174.015 68.4016 174.66 66.3317 174.596 64.0513C174.59 63.8449 174.568 63.639 174.563 63.4326C174.561 63.3221 174.521 63.2986 174.414 63.3131C174.128 63.3522 173.841 63.3846 173.553 63.4091C173.416 63.4208 173.453 63.5056 173.459 63.5825C173.522 64.3586 173.496 65.1323 173.352 65.8975C173.083 67.322 172.504 68.6097 171.599 69.7484C170.606 70.9976 169.368 71.9239 167.874 72.4926C166.279 73.0997 164.639 73.2497 162.962 72.9053C160.911 72.484 159.217 71.4632 157.896 69.8503C156.73 68.4263 156.088 66.787 155.961 64.949C155.81 62.7736 156.403 60.8075 157.714 59.0766C159.015 57.3576 160.742 56.2566 162.865 55.8004C164.624 55.4224 166.341 55.5669 168.009 56.2411C168.138 56.2931 168.211 56.2847 168.27 56.1517C168.37 55.9218 168.473 55.6924 168.59 55.4704C168.661 55.3361 168.622 55.2822 168.493 55.2285C167.702 54.8995 166.88 54.6798 166.032 54.5703C164.463 54.3675 162.924 54.5206 161.431 55.0457C159.572 55.6993 158.034 56.8077 156.846 58.375C155.368 60.3237 154.692 62.524 154.844 64.9648C154.993 67.3479 155.895 69.4187 157.548 71.1387C159.327 72.989 161.519 73.9999 164.094 74.1746C164.673 74.214 165.249 74.1925 165.827 74.1279Z" fill="#BAD333"/>
<path fill-rule="evenodd" clip-rule="evenodd" d="M163.837 56.7382C161.041 57.1474 158.995 58.5932 157.735 61.1301C157.665 61.2709 157.687 61.333 157.832 61.3923C158.037 61.4761 158.239 61.572 158.429 61.6846C158.601 61.7862 158.683 61.7682 158.772 61.575C159.208 60.6252 159.852 59.8344 160.674 59.1854C162.931 57.4027 166.216 57.3346 168.544 59.0346C170.208 60.2503 171.116 61.8937 171.264 63.9429C171.486 67.0197 169.37 69.9453 166.354 70.6599C163.612 71.3096 161.33 70.5014 159.528 68.3506C159.443 68.2487 159.394 68.2256 159.287 68.3215C159.095 68.4947 158.894 68.659 158.686 68.8135C158.563 68.9054 158.582 68.973 158.668 69.0775C160.096 70.8183 161.928 71.8189 164.185 71.9693C167.677 72.2021 170.785 70.1411 171.971 66.8517C173.339 63.0579 171.346 58.7029 167.572 57.2343C166.369 56.7663 165.129 56.5881 163.837 56.7382Z" fill="#74BC46"/>
<path fill-rule="evenodd" clip-rule="evenodd" d="M161.987 62.8281C161.778 63.5065 161.588 64.125 161.397 64.7434C161.216 65.3285 161.035 65.9135 160.853 66.4982C160.74 66.8616 160.826 67.0641 161.174 67.2327C161.537 67.4087 161.927 67.4437 162.322 67.4353C162.945 67.4222 163.548 67.3174 164.086 66.9816C164.521 66.7107 164.575 66.4677 164.321 66.0275C163.701 64.9541 163.085 63.879 162.459 62.8092C162.368 62.6549 162.372 62.5814 162.543 62.4933C163.786 61.8507 165.08 61.6748 166.442 62.0307C166.594 62.0706 166.643 62.1118 166.59 62.2806C166.201 63.5119 165.824 64.7471 165.442 65.9804C165.328 66.3475 165.411 66.5498 165.757 66.7168C165.918 66.7943 166.087 66.8499 166.263 66.8755C167.021 66.9852 167.756 66.9088 168.457 66.5874C168.57 66.5354 168.679 66.4683 168.778 66.3929C169.111 66.1404 169.149 65.9306 168.943 65.5737C168.342 64.5319 167.742 63.4898 167.141 62.4476C167.109 62.3922 167.079 62.3354 167.025 62.2354C167.139 62.2824 167.212 62.308 167.28 62.3417C167.404 62.4026 167.524 62.4721 167.612 62.2909C167.699 62.1127 167.558 62.0708 167.448 62.0191C166.693 61.6662 165.899 61.4827 165.063 61.4861C163.738 61.4915 162.574 61.9541 161.515 62.7196C161.409 62.796 161.324 62.8651 161.432 63.0026C161.535 63.132 161.633 63.0899 161.737 63.0093C161.802 62.9598 161.869 62.9138 161.987 62.8281ZM166.825 62.6222C166.858 62.647 166.874 62.6533 166.88 62.6649C167.415 63.5896 167.948 64.5155 168.485 65.4388C168.565 65.5773 168.486 65.5793 168.384 65.5904C167.663 65.6695 166.943 65.751 166.222 65.8317C166.099 65.8455 165.976 65.8593 165.82 65.8768C166.161 64.7735 166.491 63.7023 166.825 62.6222ZM162.237 63.1404C162.27 63.1645 162.294 63.1732 162.303 63.1898C162.833 64.1087 163.361 65.029 163.892 65.947C163.965 66.0727 163.912 66.0927 163.798 66.1051C163.003 66.1914 162.208 66.2786 161.415 66.3734C161.243 66.3939 161.251 66.3311 161.292 66.2038C161.401 65.8676 161.499 65.5278 161.603 65.19C161.813 64.51 162.024 63.8305 162.237 63.1404Z" fill="#F3FAF6"/>
<path fill-rule="evenodd" clip-rule="evenodd" d="M166.825 62.6224C166.491 63.7025 166.161 64.7737 165.82 65.877C165.976 65.8595 166.099 65.8457 166.222 65.8319C166.942 65.7512 167.663 65.6697 168.384 65.5906C168.485 65.5795 168.565 65.5774 168.485 65.439C167.947 64.5157 167.415 63.5898 166.88 62.6651C166.874 62.6535 166.858 62.6472 166.825 62.6224Z" fill="#04A650"/>
<path fill-rule="evenodd" clip-rule="evenodd" d="M162.237 63.1405C162.024 63.8306 161.813 64.5101 161.603 65.1901C161.499 65.5279 161.401 65.8677 161.292 66.2039C161.251 66.3312 161.243 66.394 161.415 66.3735C162.208 66.2786 163.003 66.1915 163.798 66.1052C163.912 66.0928 163.965 66.0728 163.892 65.9471C163.36 65.0291 162.833 64.1088 162.303 63.1899C162.294 63.1733 162.27 63.1646 162.237 63.1405Z" fill="#04A650"/>
<path d="M171.723 17.3533C171.971 16.8827 172.554 16.7025 173.025 16.9509C173.453 17.1767 173.64 17.679 173.484 18.1221L173.427 18.2529L169.587 25.5287C169.339 25.9993 168.756 26.1795 168.285 25.9311C167.857 25.7052 167.669 25.203 167.825 24.7599L167.883 24.6291L171.723 17.3533Z" fill="#FFD37B"/>
<path d="M136.508 23.94C136.823 23.5721 137.354 23.4991 137.752 23.7486L137.867 23.8332L144.122 29.1767C144.527 29.5224 144.575 30.1306 144.229 30.5353C143.915 30.9031 143.384 30.9761 142.986 30.7266L142.871 30.6421L136.615 25.2986C136.211 24.9529 136.163 24.3446 136.508 23.94Z" fill="#FFD37B"/>
<path d="M153.519 13.9285C153.998 13.8368 154.462 14.117 154.614 14.567L154.647 14.6938L156.579 24.7892C156.679 25.3119 156.336 25.8167 155.814 25.9168C155.335 26.0085 154.87 25.7282 154.719 25.2782L154.686 25.1515L152.754 15.0561C152.654 14.5334 152.996 14.0285 153.519 13.9285Z" fill="#FFC54F"/>
<path fill-rule="evenodd" clip-rule="evenodd" d="M130.812 89.0583C130.417 87.1801 131.623 85.3425 133.504 84.9547L198.696 71.5171C200.575 71.1296 202.418 72.3364 202.813 74.2131L204.911 84.192C205.306 86.0702 204.1 87.9078 202.219 88.2956L137.027 101.733C135.148 102.121 133.305 100.914 132.91 99.0372L130.812 89.0583Z" fill="#00AB4E"/>
<path fill-rule="evenodd" clip-rule="evenodd" d="M174.673 88.251C174.315 88.5611 173.864 88.774 173.319 88.8898C172.768 89.0068 172.268 88.996 171.819 88.8575C171.37 88.7189 170.994 88.4639 170.69 88.0925C170.385 87.7211 170.176 87.255 170.062 86.6943C169.948 86.1336 169.957 85.6225 170.089 85.1611C170.221 84.6997 170.467 84.3137 170.827 84.0031C171.188 83.6925 171.643 83.4787 172.193 83.3618C172.744 83.2448 173.244 83.2556 173.693 83.3941C174.142 83.5327 174.517 83.7867 174.818 84.1561C175.119 84.5255 175.326 84.9906 175.44 85.5513C175.554 86.112 175.544 86.6247 175.41 87.0892C175.276 87.5537 175.031 87.941 174.673 88.251ZM160.375 91.4493C160.177 91.6137 159.937 91.726 159.654 91.7861C159.317 91.8577 159 91.84 158.702 91.7331C158.404 91.6262 158.152 91.4393 157.944 91.1723C157.737 90.9053 157.593 90.5782 157.514 90.1908C157.436 89.8034 157.44 89.4488 157.528 89.127C157.616 88.8052 157.774 88.5375 158.004 88.3238C158.234 88.1102 158.52 87.967 158.862 87.8943C159.145 87.8341 159.407 87.8368 159.649 87.9024C159.891 87.968 160.092 88.0902 160.251 88.2692L159.803 86.0671L160.804 85.8542L161.901 91.2446L160.908 91.4558L160.785 90.8518C160.71 91.0858 160.573 91.2849 160.375 91.4493ZM147.981 91.5884L148.492 94.0963L147.458 94.316L146.361 88.9256L147.395 88.7059L147.885 91.1144L149.911 88.171L151.146 87.9087L148.94 91.0815L152.371 93.2718L151.112 93.5393L147.981 91.5884ZM155.87 92.3429C155.6 92.565 155.265 92.7187 154.864 92.8039C154.463 92.8891 154.096 92.8847 153.762 92.7909C153.428 92.697 153.148 92.5199 152.922 92.2594C152.696 91.999 152.543 91.6725 152.464 91.28C152.384 90.8875 152.397 90.5271 152.503 90.1988C152.609 89.8705 152.797 89.5953 153.066 89.3731C153.336 89.1509 153.671 88.9972 154.072 88.9121C154.473 88.8269 154.84 88.8312 155.174 88.9251C155.508 89.019 155.787 89.1951 156.009 89.4536C156.232 89.712 156.383 90.0375 156.463 90.43C156.543 90.8225 156.531 91.1839 156.429 91.5142C156.326 91.8445 156.14 92.1207 155.87 92.3429ZM154.705 92.0639C154.385 92.1321 154.118 92.0824 153.905 91.9148C153.693 91.7472 153.546 91.4647 153.465 91.0671C153.385 90.6746 153.411 90.3567 153.543 90.1133C153.675 89.87 153.901 89.7142 154.221 89.6461C154.542 89.578 154.809 89.6289 155.022 89.799C155.235 89.9691 155.381 90.2504 155.461 90.6429C155.542 91.0405 155.518 91.3594 155.388 91.5997C155.259 91.8399 155.031 91.9947 154.705 92.0639ZM159.767 90.9881C159.452 91.0551 159.184 91.0003 158.964 90.8237C158.744 90.6471 158.595 90.3651 158.516 89.9777C158.438 89.5954 158.467 89.2836 158.602 89.0422C158.737 88.8008 158.964 88.6461 159.285 88.5779C159.6 88.5109 159.866 88.5622 160.081 88.7317C160.297 88.9013 160.444 89.1797 160.523 89.5671C160.602 89.9545 160.576 90.2712 160.445 90.5171C160.314 90.763 160.088 90.92 159.767 90.9881ZM166.056 90.2898C165.798 90.4349 165.53 90.537 165.252 90.5961C164.611 90.7324 164.07 90.6666 163.628 90.3989C163.186 90.1313 162.904 89.6967 162.781 89.0952C162.703 88.7129 162.715 88.3569 162.815 88.0272C162.915 87.6974 163.094 87.4201 163.352 87.1951C163.61 86.9701 163.923 86.8184 164.292 86.74C164.832 86.6253 165.292 86.7004 165.672 86.9653C166.052 87.2302 166.301 87.6532 166.419 88.2343L166.473 88.5019L163.804 89.0692C163.907 89.409 164.069 89.6431 164.29 89.7716C164.512 89.9 164.796 89.9274 165.143 89.8535C165.576 89.7616 165.944 89.545 166.248 89.2039L166.671 89.8001C166.518 89.9814 166.313 90.1447 166.056 90.2898ZM165.512 88.1719L163.7 88.5569C163.675 88.2431 163.728 87.9873 163.858 87.7896C163.987 87.5918 164.186 87.4646 164.453 87.4078C164.72 87.351 164.945 87.387 165.127 87.5158C165.31 87.6445 165.438 87.8632 165.512 88.1719ZM173.158 88.1024C172.634 88.2137 172.192 88.1295 171.831 87.8499C171.471 87.5702 171.225 87.1118 171.096 86.4747C170.966 85.8375 171.012 85.3185 171.235 84.9176C171.457 84.5168 171.83 84.2607 172.353 84.1494C172.872 84.0392 173.311 84.1227 173.671 84.3998C174.031 84.6769 174.276 85.134 174.406 85.7712C174.536 86.4083 174.49 86.9286 174.268 87.332C174.046 87.7354 173.676 87.9922 173.158 88.1024ZM178.573 82.9235L179.505 87.5035L178.471 87.7232L177.539 83.1433L175.695 83.535L175.53 82.7246L180.251 81.7213L180.416 82.5317L178.573 82.9235ZM183.533 86.6474L183.106 84.5524L184.541 84.2475C185.145 84.1192 185.586 83.874 185.863 83.5119C186.141 83.1498 186.226 82.7088 186.121 82.1888C186.015 81.6689 185.764 81.3007 185.369 81.0843C184.974 80.8678 184.474 80.8237 183.87 80.9521L181.402 81.4767L182.499 86.8671L183.533 86.6474ZM182.952 83.7954L184.258 83.5178C184.969 83.3667 185.264 82.9956 185.144 82.4043C185.083 82.1035 184.949 81.8992 184.743 81.7914C184.537 81.6837 184.255 81.6678 183.897 81.7439L182.591 82.0215L182.952 83.7954Z" fill="white"/>
<mask id="mask16_5567_145122" style="mask-type:alpha" maskUnits="userSpaceOnUse" x="179" y="143" width="51" height="23">
<path d="M195.759 165.819H202.156C202.047 165.678 201.939 165.54 201.832 165.402C200.119 163.201 197.943 161.436 195.543 160.017C189.366 156.366 179.403 143.135 179.403 143.135C188.982 160.094 194.336 164.778 195.759 165.819ZM228.803 165.819H229.294C229.547 165.298 229.642 164.989 229.642 164.989C229.384 165.27 229.103 165.547 228.803 165.819Z" fill="white"/>
</mask>
<g mask="url(#mask16_5567_145122)">
<path fill-rule="evenodd" clip-rule="evenodd" d="M228.446 129.41L173.611 139.079L182.068 187.041L236.903 177.372L228.446 129.41Z" fill="#FFB490"/>
</g>
<path fill-rule="evenodd" clip-rule="evenodd" d="M102.055 24.5602L99.5805 29.0827L95.0602 31.555C94.3133 31.9642 94.3133 33.0358 95.0602 33.445L99.5805 35.9173L102.055 40.4398C102.462 41.1867 103.536 41.1867 103.943 40.4398L106.417 35.9173L110.94 33.445C111.687 33.0358 111.687 31.9642 110.94 31.555L106.417 29.0827L103.943 24.5602C103.536 23.8133 102.462 23.8133 102.055 24.5602Z" fill="#FFD37B"/>
<path fill-rule="evenodd" clip-rule="evenodd" d="M235.889 121.362L234.287 124.289L231.362 125.889C230.879 126.153 230.879 126.847 231.362 127.111L234.287 128.711L235.889 131.638C236.152 132.121 236.847 132.121 237.11 131.638L238.711 128.711L241.638 127.111C242.121 126.847 242.121 126.153 241.638 125.889L238.711 124.289L237.11 121.362C236.847 120.879 236.152 120.879 235.889 121.362Z" fill="#FFC54F"/>
</g>
</svg>
