<svg width="328" height="164" viewBox="0 0 328 164" fill="none" xmlns="http://www.w3.org/2000/svg">
<path d="M23.2189 161.504C33.6809 163.667 265.053 165.826 301.876 161.504C312.777 160.224 321.503 148.276 322.776 146.203C330.736 133.238 327.751 53.2794 325.761 26.266C324.69 11.7278 309.838 5.19571 302.871 3.03482C289.548 -1.09779 53.2799 -1.26366 22.2229 4.11573C8.32787 6.52168 3.29087 17.8712 2.29087 24.1796C-0.0421274 38.8847 -1.42113 129.331 2.31887 141.514C5.30487 151.239 12.7689 159.343 23.2189 161.504Z" fill="#E6F6ED"/>
<mask id="mask0_5567_156208" style="mask-type:alpha" maskUnits="userSpaceOnUse" x="0" y="0" width="328" height="164">
<path fill-rule="evenodd" clip-rule="evenodd" d="M23.2189 161.504C33.6809 163.667 265.053 165.826 301.876 161.504C312.777 160.224 321.503 148.276 322.776 146.203C330.736 133.238 327.751 53.2794 325.761 26.266C324.69 11.7278 309.838 5.19571 302.871 3.03482C289.548 -1.09779 53.2799 -1.26366 22.2229 4.11573C8.32787 6.52168 3.29087 17.8712 2.29087 24.1796C-0.0421274 38.8847 -1.42113 129.331 2.31887 141.514C5.30487 151.239 12.7689 159.343 23.2189 161.504Z" fill="white"/>
</mask>
<g mask="url(#mask0_5567_156208)">
<path d="M150.301 15.9914C154.419 15.2175 158.378 17.9501 159.146 22.0889C159.915 26.2287 157.201 30.2144 153.085 30.9874C148.972 31.7604 145.01 29.0335 144.241 24.89C143.473 20.7511 146.185 16.7654 150.301 15.9914Z" fill="#BBF0D3"/>
<path d="M225.364 33.2191C229.481 32.4452 233.439 35.174 234.208 39.3166C234.976 43.4564 232.262 47.4421 228.148 48.2151C224.03 48.989 220.071 46.2574 219.303 42.1176C218.534 37.9779 221.246 33.9931 225.364 33.2191Z" fill="#BBF0D3"/>
<path d="M86.1367 58.7991C90.2541 58.0251 94.2127 60.7568 94.981 64.8966C95.7512 69.0392 93.0352 73.0221 88.9207 73.7951C84.8033 74.569 80.8457 71.8402 80.0765 67.6976C79.3082 63.5578 82.0194 59.573 86.1367 58.7991Z" fill="#BBF0D3"/>
<path d="M129.118 156.654L216.749 140.85C220.433 140.186 223.158 137.027 223.294 133.266L226.001 58.714C226.117 54.9784 223.017 51.8778 219.237 52.1659C217.727 52.2819 216.326 53.014 215.247 54.0837L188.327 80.726L158.792 41.2003C156.704 38.4069 152.791 37.8469 150.051 39.951C148.978 40.7763 148.199 41.9315 147.832 43.2465L134.556 90.7702L99.6372 75.5584C96.4658 74.1759 92.8048 75.6592 91.4629 78.8738C90.7995 80.4588 90.8062 82.2548 91.4781 83.8436L120.403 151.923C121.858 155.349 125.473 157.311 129.118 156.654Z" fill="#BBF0D3"/>
<path d="M127.183 174.614H80.7968C78.4702 174.614 76.585 172.717 76.585 170.377V149.377C76.585 147.037 78.4702 145.14 80.7968 145.14H127.183C129.51 145.14 131.395 147.037 131.395 149.377V170.377C131.395 172.717 129.51 174.614 127.183 174.614Z" fill="#E5EFAC"/>
<path d="M189.553 170.867H140.332C138.005 170.867 136.12 168.969 136.12 166.629V145.63C136.12 143.29 138.005 141.392 140.332 141.392H189.553C191.88 141.392 193.765 143.29 193.765 145.63V166.629C193.765 168.969 191.88 170.867 189.553 170.867Z" fill="#84D7CC"/>
<path d="M250.978 182.276H202.702C200.375 182.276 198.49 180.378 198.49 178.038V157.039C198.49 154.699 200.375 152.801 202.702 152.801H250.978C253.304 152.801 255.19 154.699 255.19 157.039V178.038C255.19 180.378 253.304 182.276 250.978 182.276Z" fill="#B3EC91"/>
<path d="M293.71 79.749C293.71 90.7668 284.832 99.6977 273.883 99.6977C262.932 99.6977 254.055 90.7668 254.055 79.749C254.055 68.7311 262.932 59.8003 273.883 59.8003C284.832 59.8003 293.71 68.7311 293.71 79.749Z" fill="#00AB4E"/>
<path d="M271.545 89.8714C270.937 89.8714 270.328 89.6603 269.832 89.2362L264.383 84.5621C263.271 83.6113 263.138 81.9332 264.086 80.8188C265.031 79.6997 266.696 79.5685 267.806 80.5193L271.379 83.5819L279.657 75.0484C280.675 73.9978 282.347 73.9797 283.391 75.0009C284.433 76.0249 284.453 77.7088 283.437 78.7585L273.435 89.068C272.921 89.6014 272.233 89.8714 271.545 89.8714Z" fill="#FDFEFF"/>
<path d="M218.155 133.913C217.838 133.913 217.558 133.745 217.406 133.466L216.473 131.75C216.442 131.692 216.396 131.645 216.339 131.615L214.632 130.675C214.354 130.523 214.189 130.241 214.189 129.922C214.189 129.602 214.354 129.319 214.632 129.167L216.339 128.228C216.396 128.196 216.442 128.15 216.473 128.094L217.406 126.378C217.558 126.097 217.838 125.93 218.155 125.93C218.473 125.93 218.752 126.097 218.905 126.378L219.838 128.094C219.868 128.15 219.915 128.196 219.972 128.228L221.679 129.167C221.956 129.319 222.122 129.602 222.122 129.922C222.122 130.241 221.956 130.523 221.679 130.675L219.972 131.615C219.915 131.645 219.868 131.692 219.838 131.749L218.905 133.466C218.752 133.745 218.473 133.913 218.155 133.913Z" fill="#FFC14F"/>
<path d="M158.286 30.5989C158.251 30.6626 158.208 30.7234 158.155 30.7748C157.549 31.3519 153.479 35.6428 158.227 42.4686C158.227 42.4686 159.906 44.7201 159.346 46.267C159.208 46.6493 159.433 47.0705 159.808 47.2207L162.471 48.2922C162.563 48.3293 162.662 48.3493 162.762 48.3493H163.29C163.722 48.3493 164.072 47.9966 164.072 47.562V45.4085V42.8023C164.072 42.6483 164.027 42.4981 163.944 42.3697L159.842 36.0869C159.742 35.9357 159.699 35.7541 159.718 35.5734L160.014 32.6944V31.9661L162.047 31.8244C162.178 31.8149 162.308 31.8387 162.426 31.8929L166.011 33.5321C166.175 33.6072 166.307 33.7355 166.388 33.8972L167.7 36.5385C167.716 36.5718 167.73 36.606 167.743 36.6412L168.029 37.5055C168.07 37.6272 168.079 37.7565 168.058 37.8839L167.37 42.037C167.363 42.0797 167.36 42.1225 167.36 42.1663V46.326C167.36 46.4477 167.388 46.5685 167.442 46.6778L167.874 47.5468C168.006 47.813 168.278 47.9813 168.574 47.9813H170.552C170.837 47.9813 171.098 48.1363 171.236 48.3864L174.491 54.2823C174.608 54.4933 174.811 54.636 175.048 54.6769C176.607 54.9459 182.554 55.4118 185.865 47.7608C186.095 47.2302 185.687 46.6322 185.114 46.6616C182.466 46.7985 176.367 46.0816 174.666 36.9559C172.487 25.263 161.643 24.4681 158.286 30.5989Z" fill="#6C4A07"/>
<path d="M148.201 37.3449C148.201 37.3449 145.341 34.2434 145.115 33.6216C144.889 32.9988 147.945 26.019 150.626 22.8681L152.788 21.8279C153.157 21.6501 153.469 21.3715 153.688 21.0245L154.63 19.5298C154.823 19.2237 154.76 18.8215 154.483 18.5895L152.666 17.0692C152.386 16.8353 151.976 16.8495 151.713 17.1025L150.224 18.5334C150.224 18.5334 148.278 19.5726 148.365 21.2641C148.365 21.2641 143.352 26.1103 141.465 29.9848C139.579 33.8593 140.455 35.0621 141.148 36.4807C141.841 37.9002 145.7 42.1284 145.7 42.1284L148.201 37.3449Z" fill="#FFDAB8"/>
<path d="M146.759 112.055C145.632 111.9 144.21 111.808 142.885 112.538C140.727 113.727 138.683 115.424 138.195 116.039C137.71 116.655 137.184 116.275 136.763 115.005C136.314 113.594 136.703 112.05 137.765 111.025C138.892 109.975 139.988 109.183 140.44 108.465C140.89 107.745 142.734 107.626 143.826 107.852C143.826 107.852 144.207 107.834 144.584 107.833C146.27 107.824 148.848 107.274 148.848 107.274L149.621 112.303C149.621 112.303 147.887 112.22 146.759 112.055Z" fill="#FFDAB8"/>
<path d="M135.354 115.768C135.569 113.632 137.59 112.079 137.428 110.007C137.266 107.936 138.301 105.145 141.002 106.355C141.508 106.574 141.994 106.836 142.456 107.139C142.648 107.292 142.864 107.409 143.098 107.482C143.384 107.54 143.678 107.557 143.969 107.533C144.101 107.509 144.235 107.512 144.367 107.541C144.498 107.575 144.588 107.695 144.585 107.83L143.851 107.849C143.791 107.845 143.732 107.86 143.681 107.891C143.548 107.987 143.658 108.195 143.646 108.357C143.644 108.594 143.418 108.755 143.215 108.871C143.215 108.871 142.904 110.178 142.967 110.325C143.131 110.759 143.399 111.147 143.746 111.454C144.037 111.661 144.357 111.82 144.697 111.926C144.722 111.934 144.745 111.948 144.763 111.966C144.785 111.993 144.792 112.032 144.78 112.066C144.74 112.158 144.662 112.229 144.567 112.26C144.029 112.515 143.477 112.742 142.915 112.938C142.462 113.101 141.84 113.342 141.536 113.742C141.332 114.016 141.169 114.317 141.05 114.638C140.872 115.165 140.742 115.708 140.659 116.259C140.507 117.082 140.347 117.904 140.164 118.719C140.09 119.14 139.956 119.547 139.772 119.931C139.183 121.038 137.786 121.13 136.83 120.424C136.358 120.097 135.985 119.645 135.752 119.119C135.247 118.034 135.249 116.794 135.354 115.768Z" fill="#D8B56D"/>
<path d="M175.856 126.674C175.445 127.656 174.897 128.918 175.233 130.29C175.777 132.513 176.8 134.77 177.229 135.349C177.658 135.925 177.199 136.316 175.965 136.393C174.6 136.46 173.317 135.739 172.657 134.536C171.991 133.27 171.549 132.088 171.015 131.509C170.481 130.929 170.604 130.016 171.069 129.086C171.533 128.155 171.955 123.002 171.955 123.002L176.991 123.923C176.991 123.923 176.266 125.696 175.856 126.674Z" fill="#FFDAB8"/>
<path d="M171.399 126.959C171.24 127.824 170.967 128.663 170.586 129.454C170.363 129.936 170.057 130.712 170.265 131.287C170.516 132.17 171.509 132.787 171.859 133.993C172.21 135.201 172.6 137.295 174.68 138.546C176.759 139.796 178.706 139.696 179.35 139.204C179.994 138.712 179.828 137.973 178.671 136.678C177.443 135.305 176.318 132.119 176.318 132.119C176.047 131.194 175.765 130.279 175.789 129.168L175.841 127.942C175.847 127.56 173.291 126.661 172.844 127.056L172.446 127.007L171.399 126.959Z" fill="#D8B56D"/>
<path d="M148.173 107.358L160.038 106.028C160.038 106.028 155.915 91.6842 154.831 86.4244C153.953 82.1791 153.844 77.7522 155.305 74.0773C158.958 69.6666 170.991 76.6416 170.991 76.6416L172.142 76.9449C174.725 83.882 179.938 95.591 182.683 102.495C183.529 104.623 183.378 105.274 182.219 108.796C180.56 113.756 178.983 119.223 176.82 124.334C175.601 124.472 172.794 124.137 171.938 123.196C172.183 118.1 171.928 109.498 175.381 104.926C172.423 101.21 168.992 93.8663 166.069 89.7218C166.474 92.6103 168.246 105.08 167.902 109.13C167.685 111.676 166.683 113.477 163.925 113.495C160.09 113.517 148.105 112.317 148.105 112.317C147.32 111.723 147.328 108.552 148.173 107.358Z" fill="#3393E3"/>
<path d="M166.074 89.7301L165.804 87.0726C167.092 86.022 168.18 84.7431 169.013 83.3008C169.013 83.3008 168.101 85.5836 166.618 87.1933L166.679 89.1073L172.362 100.932L166.074 89.7301Z" fill="#1868AB"/>
<path d="M174.362 43.1948C174.362 43.1948 182.544 36.0619 184.686 32.2197C184.686 32.2197 186.909 24.06 184.897 17.3055L182.564 14.7203C182.415 14.5539 182.305 14.3543 182.247 14.1384L181.64 11.8869C181.427 11.0949 181.923 10.2877 182.723 10.1261L184.467 9.77426C184.958 9.67538 185.458 9.84557 185.795 10.2183C186.783 11.3174 188.607 13.838 187.928 16.909C187.928 16.909 191.403 26.4474 189.632 33.0194C187.861 39.5903 177.082 48.2683 177.082 48.2683L174.362 43.1948Z" fill="#FFDAB8"/>
<path d="M189.445 37.136C189.594 36.1662 185.874 34.6696 184.048 33.9965C183.457 33.7787 182.795 33.9385 182.364 34.4006L175.209 42.0535C175.209 42.0535 173.965 42.6459 171.835 43.8268C170.119 44.8413 168.46 45.9423 166.866 47.1251L163.509 47.7136L159.592 46.8921C159.383 46.7666 159.172 46.6402 158.972 46.528C156.842 45.348 155.599 44.7557 155.599 44.7557L148.561 36.5113C148.235 36.1291 147.684 36.0369 147.255 36.2964C145.557 37.3195 141.594 39.7954 142.154 40.2632C142.864 40.8565 150.542 47.205 151.962 49.4916C152.206 49.8929 154.83 53.0419 155.417 53.6247L157.797 57.9737C158.304 59.9276 158.327 61.8529 158.071 64.2185C157.785 66.8608 156.649 69.3623 154.782 71.244C154.679 71.3476 154.578 71.4446 154.482 71.534C153.707 72.2471 153.699 73.4888 154.486 74.1914C160.696 79.7422 169.646 78.2513 172.839 77.7512C173.577 77.6362 175.648 59.2012 175.648 57.1855C175.648 55.1698 174.851 51.437 174.851 51.437C176.36 50.0298 189.305 38.0526 189.445 37.136Z" fill="#FFC54F"/>
<path d="M162.892 43.2204V46.9532C162.892 46.9532 162.211 47.7186 163.607 50.1679C165.002 52.6171 168.894 54.8943 169.97 52.8738C171.047 50.8543 168.555 48.3899 168.11 47.1215C167.665 45.8522 167.754 40.5239 167.754 40.5239L162.892 43.2204Z" fill="#FFB08C"/>
<mask id="mask1_5567_156208" style="mask-type:alpha" maskUnits="userSpaceOnUse" x="162" y="40" width="9" height="14">
<path fill-rule="evenodd" clip-rule="evenodd" d="M162.892 43.2204V46.9542C162.892 46.9542 162.213 47.7186 163.607 50.1679C165.003 52.6181 168.893 54.8952 169.97 52.8748C171.047 50.8543 168.555 48.3908 168.11 47.1215C167.665 45.8522 167.753 40.5239 167.753 40.5239L162.892 43.2204Z" fill="white"/>
</mask>
<g mask="url(#mask1_5567_156208)">
<path d="M162.888 45.9453C163.616 46.6974 164.506 47.2926 165.497 47.6901C166.439 47.9373 167.435 47.9164 168.366 47.6292C168.27 47.4666 168.19 47.2964 168.126 47.1205C167.68 45.8522 167.768 40.5229 167.768 40.5229L162.873 43.2299L162.888 45.9453Z" fill="#FFB08C"/>
</g>
<mask id="mask2_5567_156208" style="mask-type:alpha" maskUnits="userSpaceOnUse" x="162" y="40" width="9" height="14">
<path fill-rule="evenodd" clip-rule="evenodd" d="M162.892 43.2204V46.9542C162.892 46.9542 162.213 47.7186 163.607 50.1679C165.003 52.6181 168.893 54.8952 169.97 52.8748C171.047 50.8543 168.555 48.3908 168.11 47.1215C167.665 45.8522 167.753 40.5239 167.753 40.5239L162.892 43.2204Z" fill="white"/>
</mask>
<g mask="url(#mask2_5567_156208)">
<path d="M162.888 45.9453C163.616 46.6974 164.506 47.2926 165.497 47.6901C166.439 47.9373 167.435 47.9164 168.366 47.6292C168.27 47.4666 168.19 47.2964 168.126 47.1205C167.68 45.8522 167.768 40.5229 167.768 40.5229L162.873 43.2299L162.888 45.9453Z" fill="#FFB08C"/>
</g>
<path d="M165.36 32.5774C163.588 30.6321 163.856 29.7032 161.546 30.4638C159.236 31.2244 158.438 34.266 158.438 34.6911C158.349 35.9661 158.439 37.2468 158.707 38.499C159.148 41.0319 160.572 43.1503 162.344 43.9946C164.116 44.8389 165.712 44.1629 167.131 42.8099C168.018 41.9114 168.633 40.7999 168.908 39.5953L169.53 39.427C170.152 39.2587 171.306 37.6537 170.861 36.5527C170.416 35.4517 168.731 36.973 168.731 36.973C167.713 35.4365 166.586 33.9684 165.36 32.5774Z" fill="#FFDAB8"/>
<mask id="mask3_5567_156208" style="mask-type:alpha" maskUnits="userSpaceOnUse" x="292" y="15" width="38" height="17">
<path fill-rule="evenodd" clip-rule="evenodd" d="M292.169 15.0898H329.845V31.3209H292.169V15.0898Z" fill="white"/>
</mask>
<g mask="url(#mask3_5567_156208)">
<path d="M317.346 15.0898C311.636 15.0898 306.82 18.9539 305.325 24.2194C304.341 23.9037 303.293 23.7392 302.201 23.7392C297.434 23.7392 293.425 26.9434 292.169 31.3209H305.402H312.218H329.306C329.65 30.1628 329.845 28.9278 329.845 27.6499C329.845 20.7148 324.254 15.0898 317.346 15.0898Z" fill="#E5EFAC"/>
</g>
<path d="M7.62379 33.0996C15.6752 33.0996 22.465 38.5486 24.5743 45.9725C25.9625 45.5275 27.4386 45.2964 28.9798 45.2964C35.7026 45.2964 41.3537 49.8137 43.1246 55.9863H24.4656H14.8549H-9.24162C-9.72546 54.3528 -9.99951 52.6109 -9.99951 50.8101C-9.99951 41.0302 -2.11632 33.0996 7.62379 33.0996Z" fill="#B3EC91"/>
<path d="M131.868 16.4175L136.593 20.2207" stroke="#84D653" stroke-width="1.36836" stroke-linecap="round" stroke-linejoin="round"/>
<path d="M117.692 24.9746L129.977 27.827" stroke="#84D653" stroke-width="1.36836" stroke-linecap="round" stroke-linejoin="round"/>
<path d="M116.748 42.0891L127.143 40.1875" stroke="#84D653" stroke-width="1.36836" stroke-linecap="round" stroke-linejoin="round"/>
</g>
<path d="M75.333 107.048L73.5862 110.26L70.3954 112.016C69.8682 112.307 69.8682 113.068 70.3954 113.358L73.5862 115.114L75.333 118.326C75.6202 118.857 76.3782 118.857 76.6655 118.326L78.4122 115.114L81.6046 113.358C82.1318 113.068 82.1318 112.307 81.6046 112.016L78.4122 110.26L76.6655 107.048C76.3782 106.518 75.6202 106.518 75.333 107.048Z" fill="#FFE7B8"/>
<path d="M81.333 30.5819L79.5862 33.7939L76.3954 35.5498C75.8682 35.8403 75.8682 36.6014 76.3954 36.892L79.5862 38.6479L81.333 41.8599C81.6202 42.3903 82.3782 42.3903 82.6655 41.8599L84.4122 38.6479L87.6046 36.892C88.1318 36.6014 88.1318 35.8403 87.6046 35.5498L84.4122 33.7939L82.6655 30.5819C82.3782 30.0515 81.6202 30.0515 81.333 30.5819Z" fill="#FFD37B"/>
</svg>
