<svg width="164" height="164" viewBox="0 0 164 164" fill="none" xmlns="http://www.w3.org/2000/svg">
<path d="M82 164C127.287 164 164 127.287 164 82C164 36.7127 127.287 0 82 0C36.7127 0 0 36.7127 0 82C0 127.287 36.7127 164 82 164Z" fill="#ECFAEF"/>
<mask id="mask0_5567_145730" style="mask-type:alpha" maskUnits="userSpaceOnUse" x="30" y="28" width="67" height="111">
<path d="M32.0505 30.9529C31.3613 30.9857 30.8202 31.6574 30.8438 32.4531L33.941 136.782C33.9645 137.577 34.5416 138.198 35.2308 138.165L95.1658 135.423C95.855 135.39 96.3947 134.719 96.3712 133.925L93.2767 29.5954C93.2518 28.8196 92.7038 28.2107 92.0367 28.2107C92.0188 28.2107 92.0021 28.2121 91.9855 28.2121L32.0505 30.9529Z" fill="white"/>
</mask>
<g mask="url(#mask0_5567_145730)">
<path d="M24.8873 19.3254L105.257 21.3342L102.328 148.162L21.9578 146.153L24.8873 19.3254Z" fill="#009E3D"/>
</g>
<mask id="mask1_5567_145730" style="mask-type:alpha" maskUnits="userSpaceOnUse" x="30" y="28" width="67" height="111">
<path d="M32.0505 30.9529C31.3613 30.9857 30.8202 31.6574 30.8438 32.4531L33.941 136.782C33.9645 137.577 34.5416 138.198 35.2308 138.165L95.1658 135.423C95.855 135.39 96.3947 134.719 96.3712 133.925L93.2767 29.5954C93.2518 28.8196 92.7038 28.2107 92.0367 28.2107C92.0188 28.2107 92.0021 28.2121 91.9855 28.2121L32.0505 30.9529Z" fill="white"/>
</mask>
<g mask="url(#mask1_5567_145730)">
<path d="M45.0041 27.1001L40.8391 145.097L57.499 148.162L55.4165 27.1001H45.0041Z" fill="#00782E"/>
</g>
<mask id="mask2_5567_145730" style="mask-type:alpha" maskUnits="userSpaceOnUse" x="43" y="24" width="88" height="118">
<path d="M48.6108 25.466L43.8655 138.305C43.8335 139.079 44.4347 139.732 45.2094 139.765L87.8254 141.556L123.658 98.8389C123.658 98.8389 127.761 94.1339 128.11 88.7888C128.43 83.945 130.287 37.5694 130.632 28.9021C130.662 28.1288 130.061 27.4846 129.289 27.4513L50.0713 24.1235C50.0505 24.1221 50.031 24.1221 50.0116 24.1221C49.2633 24.1221 48.6413 24.7121 48.6108 25.466Z" fill="white"/>
</mask>
<g mask="url(#mask2_5567_145730)">
<path d="M36.8474 148.574H137.649V17.104H36.8474V148.574Z" fill="white"/>
</g>
<mask id="mask3_5567_145730" style="mask-type:alpha" maskUnits="userSpaceOnUse" x="43" y="24" width="88" height="118">
<path d="M48.6108 25.466L43.8655 138.305C43.8335 139.079 44.4347 139.732 45.2094 139.765L87.8254 141.556L123.658 98.8389C123.658 98.8389 127.761 94.1339 128.11 88.7888C128.43 83.945 130.287 37.5694 130.632 28.9021C130.662 28.1288 130.061 27.4846 129.289 27.4513L50.0713 24.1235C50.0505 24.1221 50.031 24.1221 50.0116 24.1221C49.2633 24.1221 48.6413 24.7121 48.6108 25.466Z" fill="white"/>
</mask>
<g mask="url(#mask3_5567_145730)">
<path d="M66.9426 78.9248L75.2563 79.2152L75.8785 61.3999L67.5647 61.1096L66.9426 78.9248Z" fill="#00782E"/>
<path d="M97.8221 80.0031L106.136 80.2935L106.965 56.5398L98.6516 56.2495L97.8221 80.0031Z" fill="#BCD430"/>
<path d="M82.3823 79.464L90.6961 79.7543L91.7745 48.8746L83.4607 48.5842L82.3823 79.464Z" fill="#47CF66"/>
<path d="M70.5558 50.3632L88.0244 37.0753L103.261 50.2419" stroke="#333333" stroke-width="1.69772"/>
<path d="M91.9438 37.2121C91.8708 39.3018 90.0583 40.9366 87.8923 40.8609C85.7262 40.7853 84.0321 39.0281 84.1051 36.9383C84.1781 34.8486 85.9906 33.2138 88.1567 33.2895C90.3227 33.3651 92.0168 35.1223 91.9438 37.2121Z" fill="#333333"/>
<path d="M75.8256 49.2838C75.7527 51.3736 73.9402 53.0083 71.7741 52.9327C69.608 52.8571 67.914 51.0998 67.9869 49.0101C68.0599 46.9204 69.8724 45.2856 72.0385 45.3612C74.2046 45.4369 75.8986 47.1941 75.8256 49.2838Z" fill="#333333"/>
<path d="M107.18 50.3788C107.107 52.4685 105.295 54.1033 103.129 54.0277C100.963 53.952 99.2687 52.1948 99.3417 50.1051C99.4147 48.0153 101.227 46.3806 103.393 46.4562C105.559 46.5318 107.253 48.2891 107.18 50.3788Z" fill="#333333"/>
</g>
<mask id="mask4_5567_145730" style="mask-type:alpha" maskUnits="userSpaceOnUse" x="87" y="91" width="41" height="51">
<path d="M112.477 108.067C98.7169 119.503 90.5577 121.058 90.5577 121.058C90.5577 121.058 95.3058 124.987 94.9046 129.965C94.5061 134.945 90.7451 140.128 87.1799 141.845C87.1799 141.845 111.546 134.478 127.79 91.0239C127.79 91.0239 119.829 101.954 112.477 108.067Z" fill="white"/>
</mask>
<g mask="url(#mask4_5567_145730)">
<path d="M80.1624 148.864H134.807V84.0059H80.1624V148.864Z" fill="#47CF66"/>
</g>
<path d="M56.571 84.5302L115.955 86.6039C117.595 86.6612 118.878 88.037 118.821 89.6768C118.763 91.3167 117.388 92.5996 115.748 92.5423L56.3636 90.4686C54.7238 90.4113 53.4409 89.0356 53.4981 87.3957C53.5554 85.7559 54.9312 84.4729 56.571 84.5302Z" fill="#E9ECEF"/>
<path d="M67.2668 99.9794L102.897 101.224C104.537 101.281 105.82 102.657 105.763 104.297C105.706 105.936 104.33 107.219 102.69 107.162L67.0594 105.918C65.4196 105.861 64.1367 104.485 64.1939 102.845C64.2512 101.205 65.627 99.9222 67.2668 99.9794Z" fill="#E9ECEF"/>
<path d="M68.9451 132.432L75.1672 126.209L43.6269 94.6694L37.4048 100.891L68.9451 132.432Z" fill="#A3E7B2" fill-opacity="0.4"/>
<path d="M30.8669 106.977L62.057 138.169L64.1076 136.115L32.9189 104.925L30.8669 106.977Z" fill="#A3E7B2" fill-opacity="0.4"/>
<path d="M14.9112 148.52C14.1613 149.269 13.7803 150.249 13.7668 151.232V151.332C13.7803 152.315 14.1613 153.294 14.9112 154.044C16.4366 155.566 18.9091 155.566 20.4329 154.044L37.0907 137.382L31.569 131.862L14.9112 148.52Z" fill="#47CF66"/>
<path d="M21.9583 141.498L27.5122 147.051L35.2862 139.278L29.7322 133.723L21.9583 141.498Z" fill="#00782E"/>
<path d="M33.1623 96.679C22.103 107.526 22.1139 125.105 33.1732 135.95C44.2232 146.782 62.1594 146.795 73.2187 135.95C84.2812 125.105 84.2812 107.512 73.2297 96.679C67.7 91.258 60.4484 88.5459 53.1968 88.5459C45.9451 88.5459 38.692 91.258 33.1623 96.679ZM37.454 131.755C28.7442 123.218 28.7442 109.399 37.4415 100.874C46.1497 92.337 60.2439 92.337 68.9536 100.874C77.6478 109.399 77.6478 123.218 68.9427 131.755C64.5933 136.018 58.895 138.15 53.1968 138.15C47.4985 138.15 41.8018 136.018 37.454 131.755Z" fill="#1F4C44"/>
<path d="M25.4292 134.372C24.688 135.113 24.688 136.317 25.4292 137.058L31.8954 143.523C32.6366 144.264 33.8382 144.264 34.5794 143.523L38.2012 139.9L29.051 130.751L25.4292 134.372Z" fill="#1F4C44"/>
</svg>
