<svg width="329" height="165" viewBox="0 0 329 165" fill="none" xmlns="http://www.w3.org/2000/svg">
<path d="M24.0952 161.528C34.5467 163.686 265.687 165.84 302.473 161.528C313.363 160.252 322.08 148.335 323.352 146.267C331.304 133.335 328.322 53.5827 326.334 26.6388C325.264 12.138 310.427 5.62276 303.467 3.46744C290.157 -0.654539 54.1261 -0.819975 23.1002 4.54557C9.21918 6.94533 4.18723 18.2657 3.18823 24.5578C0.857573 39.225 -0.520044 129.438 3.21621 141.59C6.19921 151.29 13.6557 159.373 24.0952 161.528Z" fill="#EBFFE0"/>
<mask id="mask0_5567_150983" style="mask-type:alpha" maskUnits="userSpaceOnUse" x="0" y="0" width="329" height="165">
<path fill-rule="evenodd" clip-rule="evenodd" d="M24.0952 161.528C34.5467 163.686 265.687 165.84 302.473 161.528C313.363 160.252 322.08 148.335 323.352 146.267C331.304 133.335 328.322 53.5827 326.334 26.6388C325.264 12.138 310.427 5.62276 303.467 3.46744C290.157 -0.654539 54.1261 -0.819975 23.1002 4.54557C9.21918 6.94533 4.18723 18.2657 3.18823 24.5578C0.857573 39.225 -0.520044 129.438 3.21621 141.59C6.19921 151.29 13.6557 159.373 24.0952 161.528Z" fill="white"/>
</mask>
<g mask="url(#mask0_5567_150983)">
<path fill-rule="evenodd" clip-rule="evenodd" d="M-28.0713 -23.4268L-27.3335 194.844L352.928 193.562L352.191 -24.7085L-28.0713 -23.4268Z" fill="#E6F6ED"/>
<path fill-rule="evenodd" clip-rule="evenodd" d="M36.2648 -1.66694L33.489 -4.91895L-14.2866 51.0762L-11.5108 54.3282L36.2648 -1.66694Z" fill="#BBF0D3"/>
<path fill-rule="evenodd" clip-rule="evenodd" d="M-14.2866 -1.66694L-11.5108 -4.91895L36.2648 51.0762L33.489 54.3282L-14.2866 -1.66694Z" fill="#BBF0D3"/>
<path fill-rule="evenodd" clip-rule="evenodd" d="M84.6142 -1.66694L81.8384 -4.91895L34.0627 51.0762L36.8386 54.3282L84.6142 -1.66694Z" fill="#BBF0D3"/>
<path fill-rule="evenodd" clip-rule="evenodd" d="M34.0625 -1.66694L36.8383 -4.91895L84.614 51.0762L81.8381 54.3282L34.0625 -1.66694Z" fill="#BBF0D3"/>
<path fill-rule="evenodd" clip-rule="evenodd" d="M36.2648 53.1961L33.489 49.9375L-14.2866 105.933L-11.5108 109.185L36.2648 53.1961Z" fill="#BBF0D3"/>
<path fill-rule="evenodd" clip-rule="evenodd" d="M-14.2866 53.1961L-11.5108 49.9375L36.2648 105.933L33.489 109.185L-14.2866 53.1961Z" fill="#BBF0D3"/>
<path fill-rule="evenodd" clip-rule="evenodd" d="M84.6142 53.1961L81.8384 49.9375L34.0627 105.933L36.8386 109.185L84.6142 53.1961Z" fill="#BBF0D3"/>
<path fill-rule="evenodd" clip-rule="evenodd" d="M34.0625 53.1961L36.8383 49.9375L84.614 105.933L81.8381 109.185L34.0625 53.1961Z" fill="#BBF0D3"/>
<path fill-rule="evenodd" clip-rule="evenodd" d="M36.2648 108.052L33.489 104.8L-14.2866 160.789L-11.5108 164.047L36.2648 108.052Z" fill="#BBF0D3"/>
<path fill-rule="evenodd" clip-rule="evenodd" d="M-14.2866 108.052L-11.5108 104.8L36.2648 160.789L33.489 164.047L-14.2866 108.052Z" fill="#BBF0D3"/>
<path fill-rule="evenodd" clip-rule="evenodd" d="M84.6142 108.052L81.8384 104.8L34.0627 160.789L36.8386 164.047L84.6142 108.052Z" fill="#BBF0D3"/>
<path fill-rule="evenodd" clip-rule="evenodd" d="M34.0625 108.052L36.8383 104.8L84.614 160.789L81.8381 164.047L34.0625 108.052Z" fill="#BBF0D3"/>
<path fill-rule="evenodd" clip-rule="evenodd" d="M-14.2866 54.3352H117.581V49.9443H-14.2866V54.3352Z" fill="#C6EED5"/>
<path fill-rule="evenodd" clip-rule="evenodd" d="M-14.2866 109.191H117.581V104.8H-14.2866V109.191Z" fill="#BBF0D3"/>
<path fill-rule="evenodd" clip-rule="evenodd" d="M-14.28 164.048H117.588V159.657H-14.28V164.048Z" fill="#C6EED5"/>
<path fill-rule="evenodd" clip-rule="evenodd" d="M16.4849 186.963H20.8826V-10.2773H16.4849V186.963Z" fill="#BBF0D3"/>
<path fill-rule="evenodd" clip-rule="evenodd" d="M82.4187 186.963H86.8165V-10.2773H82.4187V186.963Z" fill="#BBF0D3"/>
<path fill-rule="evenodd" clip-rule="evenodd" d="M115.385 186.963H119.783V-10.2773H115.385V186.963Z" fill="#BBF0D3"/>
<path fill-rule="evenodd" clip-rule="evenodd" d="M18.6804 54.3352H117.581V49.9443H18.6804V54.3352Z" fill="#BBF0D3"/>
<path fill-rule="evenodd" clip-rule="evenodd" d="M18.6804 109.191H117.581V104.8H18.6804V109.191Z" fill="#BBF0D3"/>
<path fill-rule="evenodd" clip-rule="evenodd" d="M18.687 164.048H117.588V159.657H18.687V164.048Z" fill="#C6EED5"/>
<path d="M51.2778 85.9268H31.5504C31.0328 85.9235 30.6115 86.3396 30.6082 86.8557C30.6076 86.9307 30.6161 87.0058 30.6339 87.0788L34.5174 104.063C34.6137 104.495 34.9974 104.802 35.4405 104.8H47.3877C47.8301 104.802 48.2145 104.495 48.3108 104.063L52.2009 87.0788C52.3176 86.5719 52.0004 86.067 51.4927 85.9505C51.4222 85.9347 51.3497 85.9268 51.2778 85.9268Z" fill="#BBF0D3"/>
<path d="M104.025 85.9268H84.2975C83.7799 85.9235 83.3586 86.3396 83.3553 86.8557C83.3546 86.9307 83.3632 87.0058 83.381 87.0788L87.2645 104.063C87.3608 104.495 87.7445 104.802 88.1876 104.8H100.135C100.577 104.802 100.962 104.495 101.058 104.063L104.948 87.0788C105.065 86.5719 104.748 86.067 104.24 85.9505C104.169 85.9347 104.097 85.9268 104.025 85.9268Z" fill="#BBF0D3"/>
<path d="M68.5044 91.0163C68.7991 87.8512 75.2811 75.0815 82.7184 71.5898C78.9259 75.0815 74.3376 91.7464 74.3376 91.7464L68.5044 91.0163Z" fill="#84D7CC"/>
<path d="M66.5456 91.1797C65.8632 88.0745 68.182 73.9428 74.184 68.3584C71.6363 72.8368 72.3293 90.112 72.3293 90.112L66.5456 91.1797Z" fill="#84D7CC"/>
<path d="M67.6421 91.1415C68.7333 88.1509 68.2151 73.8394 62.9444 67.5474C64.9085 72.3089 62.0437 89.3385 62.0437 89.3385L67.6421 91.1415Z" fill="#84D7CC"/>
<path d="M66.2182 90.0414C66.3764 87.399 62.6604 76.0564 56.9802 72.2383C59.6598 75.5936 61.318 89.9051 61.318 89.9051L66.2182 90.0414Z" fill="#84D7CC"/>
<path d="M63.7791 89.8233C63.6096 87.8945 59.6925 80.0989 55.1741 77.9521C57.4719 80.0877 60.2272 90.2538 60.2272 90.2538L63.7791 89.8233Z" fill="#84D7CC"/>
<path d="M104.183 127.084H59.625L68.3349 159.657H95.4732L104.183 127.084Z" fill="#BBF0D3"/>
<path d="M58.4313 122.89H105.37C106.305 122.89 107.064 123.648 107.064 124.582V126.702C107.064 127.636 106.305 128.394 105.37 128.394H58.4313C57.4957 128.394 56.7368 127.636 56.7368 126.702V124.582C56.7368 123.648 57.4957 122.89 58.4313 122.89Z" fill="#BBF0D3"/>
<path d="M77.6513 85.9268H57.924C57.4064 85.9235 56.9851 86.3396 56.9817 86.8557C56.9811 86.9307 56.9897 87.0058 57.0075 87.0788L60.891 104.063C60.9872 104.495 61.371 104.802 61.814 104.8H73.7612C74.2037 104.802 74.5881 104.495 74.6843 104.063L78.5744 87.0788C78.6911 86.5719 78.374 86.067 77.8663 85.9505C77.7957 85.9347 77.7232 85.9268 77.6513 85.9268Z" fill="#BBF0D3"/>
<path d="M166.11 121.072C166.11 121.072 168.864 130.085 160.299 147.476C160.299 147.476 159.071 148.375 159.681 159.054L111.844 154.472C111.844 154.472 118.932 123.288 116.745 103.471L126.117 96.4482L154.615 104.448L166.11 121.072Z" fill="#3393E3"/>
<path d="M257.723 74.9259C255.041 71.5811 268.341 79.4236 272.257 81.436L283.55 94.9019C286.821 96.5887 289.262 93.6946 288.133 90.3095L280.419 67.1569C279.692 64.9738 281.137 62.5835 283.55 62.0271L306.772 56.6163C308.865 56.1281 310.944 57.209 311.579 59.1159L316.999 75.3828C318.119 78.7446 323.066 78.9014 324.714 75.6361L334.668 55.8656C336.124 52.9713 340.343 52.6764 342.015 55.3427L346.608 62.6859C347.435 64.0147 347.35 65.698 346.351 66.9916C339.468 75.8402 319.674 111.969 353.266 170.036C353.366 170.209 353.456 170.358 353.588 170.507C355.232 172.592 364.368 190.437 386.649 199.95C389.602 201.216 389.842 205.075 387.022 206.804C382.969 209.29 377.954 212.478 374.339 215.164C363.823 222.972 344.738 218.968 338.234 217.275C336.819 216.91 335.307 217.283 334.22 218.271C329.058 222.958 313.86 236.192 306.362 236.636C303.814 236.788 301.637 236.816 299.823 236.776C296.714 236.729 294.915 233.643 296.467 231.037C308.542 132.251 284.455 108.236 257.723 74.9259Z" fill="#946F25"/>
<mask id="mask1_5567_150983" style="mask-type:alpha" maskUnits="userSpaceOnUse" x="190" y="-69" width="147" height="136">
<path fill-rule="evenodd" clip-rule="evenodd" d="M190.913 -68.7212H336.41V66.3487H190.913V-68.7212Z" fill="white"/>
</mask>
<g mask="url(#mask1_5567_150983)">
<path d="M336.41 -40.9091C336.41 -56.2699 323.086 -68.7217 306.649 -68.7217C296.987 -68.7217 288.421 -64.3973 282.985 -57.7248C281.02 -58.1072 278.976 -58.31 276.889 -58.31C260.452 -58.31 247.129 -45.8589 247.129 -30.4981C247.129 -30.3921 247.146 -30.2947 247.146 -30.1893C245.772 -30.3763 244.381 -30.4981 242.954 -30.4981C226.517 -30.4981 213.194 -18.047 213.194 -2.68617C213.194 -0.751427 213.411 1.14185 213.812 2.96272C205.166 6.36021 199.097 14.3493 199.097 23.663C199.097 26.9064 199.844 29.9781 201.166 32.7581C195.079 35.7323 190.913 41.6814 190.913 48.5415C190.913 58.3752 199.445 66.3486 209.968 66.3486C217.482 66.3486 223.96 62.277 227.065 56.3681C230.579 58.7498 234.883 60.1717 239.554 60.1717C251.329 60.1717 260.869 51.2478 260.869 40.243C260.869 39.7473 260.826 39.2601 260.791 38.7723C263.478 39.7065 266.366 40.243 269.401 40.243C280.115 40.243 289.212 33.8634 292.639 24.9473C293.813 25.0533 295.005 25.1178 296.205 25.1178C315.72 25.1178 331.531 10.3344 331.531 -7.89596C331.531 -12.8694 330.322 -17.5592 328.217 -21.7934C333.288 -26.7754 336.41 -33.4973 336.41 -40.9091Z" fill="#00AB4E"/>
</g>
<path d="M342.052 41.8897C342.503 40.0551 342.769 38.1447 342.769 36.1864C342.769 23.6338 332.975 13.2408 320.12 11.2151C316.903 6.35289 311.156 3.10547 304.58 3.10547C294.847 3.10547 286.919 10.2124 286.376 19.1631C285.372 19.0486 284.357 18.972 283.313 18.972C271.143 18.972 260.99 27.0066 258.625 37.7052C257.303 37.3617 255.909 37.1613 254.466 37.1613C246.259 37.1613 239.57 43.1215 239.058 50.6493C236.568 49.2163 233.639 48.3853 230.504 48.3853C223.323 48.3853 217.238 52.7036 215.015 58.6924C212.516 55.2724 208.305 53.0286 203.531 53.0286C195.849 53.0286 189.63 58.8363 189.63 65.9912C189.63 73.1561 195.859 78.9538 203.531 78.9538C204.658 78.9538 205.754 78.8107 206.8 78.5816C206.174 79.9287 205.816 81.419 205.816 82.9858C205.816 89.0992 211.132 94.0473 217.678 94.0473C222.913 94.0473 227.308 90.8665 228.886 86.4816C231.426 90.0927 235.79 92.4813 240.769 92.4813C248.032 92.4813 254.004 87.3985 254.855 80.8456C258.419 86.6441 265.119 90.5608 272.802 90.5608C282.278 90.5608 290.247 84.6192 292.696 76.5181C296.158 78.2474 300.113 79.2316 304.313 79.2316C307.591 79.2316 310.715 78.6203 313.574 77.5402C316.432 78.6203 319.557 79.2316 322.834 79.2316C336.439 79.2316 347.472 68.943 347.472 56.2566C347.482 50.8211 345.443 45.825 342.052 41.8897Z" fill="#28D677"/>
<rect x="298.601" y="42.3325" width="13.986" height="21.2784" rx="2" fill="#CC9D3F"/>
<mask id="mask2_5567_150983" style="mask-type:alpha" maskUnits="userSpaceOnUse" x="298" y="42" width="15" height="22">
<rect x="298.601" y="42.3325" width="13.986" height="21.2784" rx="2" fill="white"/>
</mask>
<g mask="url(#mask2_5567_150983)">
<rect x="296.603" y="42.3325" width="14.6519" height="21.2784" rx="2" fill="#FFC54F"/>
<path fill-rule="evenodd" clip-rule="evenodd" d="M304.471 45.8105L302.251 47.4823C301.979 47.6867 301.865 48.0503 301.969 48.3818L302.817 51.0867C302.921 51.4181 303.219 51.6418 303.555 51.6418H306.3C306.636 51.6418 306.935 51.4181 307.039 51.0867L307.887 48.3818C307.991 48.0503 307.876 47.6867 307.605 47.4823L305.384 45.8105C305.112 45.6061 304.743 45.6061 304.471 45.8105Z" fill="#CC9D3F"/>
<rect x="301.598" y="58.2915" width="6.65997" height="1.3299" rx="0.664951" fill="#CC9D3F"/>
<rect x="301.598" y="54.9668" width="6.65997" height="1.3299" rx="0.664949" fill="#CC9D3F"/>
</g>
<rect x="266.633" y="57.2935" width="15.9839" height="24.3182" rx="2.28571" fill="#CC9D3F"/>
<mask id="mask3_5567_150983" style="mask-type:alpha" maskUnits="userSpaceOnUse" x="266" y="57" width="17" height="25">
<rect x="266.633" y="57.2935" width="15.9839" height="24.3182" rx="2.28571" fill="white"/>
</mask>
<g mask="url(#mask3_5567_150983)">
<rect x="264.349" y="57.2935" width="16.7451" height="24.3182" rx="2.28571" fill="#FFC54F"/>
<path fill-rule="evenodd" clip-rule="evenodd" d="M273.342 61.2684L270.804 63.1791C270.493 63.4126 270.363 63.8282 270.482 64.2071L271.451 67.2983C271.57 67.6771 271.911 67.9328 272.295 67.9328H275.432C275.816 67.9328 276.157 67.6771 276.276 67.2983L277.245 64.2071C277.364 63.8282 277.233 63.4126 276.923 63.1791L274.385 61.2684C274.074 61.0349 273.653 61.0349 273.342 61.2684Z" fill="#CC9D3F"/>
<rect x="270.058" y="75.5322" width="7.61139" height="1.51989" rx="0.759945" fill="#CC9D3F"/>
<rect x="270.058" y="71.7324" width="7.61139" height="1.51989" rx="0.759945" fill="#CC9D3F"/>
</g>
<path d="M171.741 -1.83834C172.891 10.7954 184.785 20.0464 198.301 18.8192C201.558 18.5237 204.606 17.6331 207.348 16.2999C210.286 17.1178 213.445 17.4443 216.702 17.1487C220.875 16.7696 224.714 15.4333 227.997 13.3991C231.164 21.2449 239.621 26.4438 249.035 25.5895C256.668 24.8963 262.969 20.3907 265.986 14.2951C267.424 20.7451 273.819 25.2669 281.034 24.6123C285.981 24.1627 290.1 21.3904 292.297 17.5658C294.261 21.7897 298.916 24.5612 304.117 24.0892C310.62 23.4989 315.453 18.0911 314.899 12.0025C314.758 10.4426 314.266 8.99029 313.523 7.70509C314.582 7.83973 315.684 7.88306 316.803 7.78169C324.426 7.08996 330.088 0.752949 329.439 -6.38257C328.791 -13.508 322.086 -18.7316 314.453 -18.0383C309.711 -17.6074 305.731 -14.9921 303.557 -11.3609C300.806 -17.1253 294.369 -20.8764 287.234 -20.2288C284.12 -19.9456 281.285 -18.8539 278.942 -17.2019C277.75 -24.6523 270.564 -29.9858 262.412 -29.2453C260.977 -29.1153 259.611 -28.7904 258.329 -28.3277C255.008 -38.7694 244.193 -45.8546 232.103 -44.7575C231.065 -44.6631 230.064 -44.4951 229.076 -44.2909C227.726 -53.1557 219.204 -59.5183 209.536 -58.6408C203.002 -58.0474 197.586 -54.2947 194.832 -49.1624C182.242 -45.9854 173.455 -34.7513 174.593 -22.2506C174.77 -20.3 175.208 -18.4213 175.822 -16.6355C172.81 -12.4101 171.238 -7.25072 171.741 -1.83834Z" fill="#00AB4E"/>
<path d="M148.476 79.9428C148.476 79.9428 144.381 90.3111 147.208 97.4247L147.819 98.7202L126.442 98.2179L133.663 73.188C133.663 73.188 146.974 80.1212 148.476 79.9428Z" fill="#E79E5C"/>
<path d="M208.802 70.2813C208.802 70.2813 209.352 66.1333 208.951 64.3164C208.644 62.928 206.175 52.9956 205.029 48.3941C204.655 46.8905 204.848 45.2961 205.572 43.9044L210.526 34.3749C210.991 33.4809 211.671 32.7113 212.505 32.1367L215.595 30.0064C216.53 29.3619 217.615 28.9709 218.742 28.8721L223.748 28.4331C224.33 28.3824 224.816 28.913 224.65 29.4699C224.472 30.063 223.968 30.7246 222.661 30.9978C222.661 30.9978 226.918 29.7378 226.162 32.3526C226.162 32.3526 226.274 34.369 221.719 34.5783C221.719 34.5783 220.626 35.7725 218.825 36.5729L223.586 37.8974C223.586 37.8974 225.538 39.4833 224.772 40.848C224.772 40.848 226.586 42.5141 227.429 44.3455C227.7 44.934 227.648 45.6503 227.2 46.1361C226.804 46.5666 226.127 46.8234 225.006 46.1302C225.006 46.1302 223.258 43.8452 222.807 43.8775C222.632 43.89 222.445 43.886 222.259 43.8518C221.813 43.7702 221.376 44.0861 221.346 44.5377C221.271 45.6746 220.864 47.3105 219.302 48.3875C219.302 48.3875 224.905 58.3436 219.426 64.633L212.988 101.065C212.988 101.065 202.296 112.024 197.776 104.252L208.802 70.2813Z" fill="#F2CBA8"/>
<path d="M151.471 38.8934C157.129 48.0609 163.408 57.4444 165.138 68.0727C165.699 71.5149 166.23 76.2402 163.728 78.6733C161.082 81.2459 156.331 81.3104 154.311 81.4428C149.225 81.7765 144.032 82.1004 139.104 80.8003C134.176 79.5001 129.47 76.2659 127.768 71.4688C126.046 66.6145 127.65 61.2638 129.46 56.4418C132.431 48.527 136.526 40.2252 144.137 36.5255C145.579 35.8251 147.215 35.3064 148.775 35.679C150.334 36.0509 151.696 37.5926 151.369 39.1607" fill="#F2CBA8"/>
<path d="M222.661 30.9974L221.106 31.1422C220.284 31.2192 219.492 31.5069 218.809 31.9776L214.3 35.0854C213.769 35.4528 213.318 35.9189 212.971 36.4606C212.333 37.4573 211.22 39.161 210.32 40.342C209.751 41.0878 209.285 41.5394 208.936 41.8113C208.731 41.9706 208.458 41.7448 208.582 41.5177C209.467 39.9003 211.683 35.9636 212.896 34.7971C213.939 33.7952 216.353 32.2317 217.806 31.3246C218.561 30.8532 219.403 30.5438 220.28 30.4115L224.529 29.7729C224.529 29.7729 223.922 30.9658 222.661 30.9974Z" fill="#E79E5C"/>
<path d="M210.162 45.057C210.741 44.6581 211.423 45.0261 212.766 43.2619C214.111 41.4976 216.024 38.085 217.76 36.8882" stroke="#E79E5C" stroke-width="0.55" stroke-linecap="round" stroke-linejoin="round"/>
<path d="M214.82 45.6145C214.82 45.6145 216.463 44.9009 218.853 40.3218C218.853 40.3218 219.618 38.9571 221.467 39.7767L224.755 40.7128" stroke="#E79E5C" stroke-width="0.55" stroke-linecap="round" stroke-linejoin="round"/>
<path d="M159.639 52.7378C161.176 53.6778 162.713 54.6179 164.25 55.5586C164.561 55.7489 164.895 55.9674 165.008 56.3143C165.103 56.6053 165.018 56.9206 164.933 57.2149C164.39 59.099 163.847 60.983 163.303 62.8671C160.453 61.4228 158.47 58.4025 158.281 55.2163C158.236 54.4533 158.385 53.533 159.084 53.2216" fill="#F2CBA8"/>
<path d="M136.803 65.9365C136.803 65.9365 148.914 84.7804 142.295 107.645C141.445 110.581 136.678 112.284 136.045 112.049C131.976 110.543 123.41 103.267 127.278 79.3692L126.75 74.4819L136.803 65.9365Z" fill="#84621F"/>
<path d="M151.106 32.7743C155.557 36.2061 158.427 39.8781 142.53 58.5462C133.68 68.9401 129.121 82.4056 130.325 95.995C130.9 102.465 132.747 108.917 136.943 113.892C138.313 115.516 137.847 118.012 135.968 119.008C133.048 120.555 128.4 121.66 122.515 118.497C115.186 114.558 110.913 106.646 111.285 98.3438C111.367 96.492 111.546 94.4394 111.867 92.2249C112.945 84.7926 112.218 77.1853 109.407 70.2205C108.944 69.0698 108.336 67.954 107.839 66.7743C102.244 53.4792 106.805 42.9609 117.352 35.5274C127.899 28.0945 140.592 24.6667 151.106 32.7743Z" fill="#906F25"/>
<path d="M136.693 61.446C136.693 61.446 130.407 59.2999 131.268 66.1311C132.129 72.9623 140.056 71.1658 140.056 71.1658L136.693 61.446Z" fill="#F2CBA8"/>
<path d="M139.296 57.46C139.296 57.46 139.62 65.4781 143.067 69.8182C143.342 70.1645 142.95 70.649 142.554 70.4515C140.626 69.4911 137.313 66.765 134.562 59.0425L139.296 57.46Z" fill="#906F25"/>
<path d="M138.485 29.3527C143.21 31.3349 144.093 37.2589 142.475 41.6037C140.818 46.0571 137.22 49.4645 134.145 52.9568C128.265 59.6346 122.94 67.0266 120.052 75.5168C114.987 90.4121 119.127 109.581 135.697 114.849C136.579 115.129 136.956 113.747 136.078 113.468C127.148 110.629 121.128 102.466 119.66 93.3896C117.914 82.6021 122.037 71.8843 128.016 63.0689C130.788 58.9809 134.005 55.2687 137.291 51.5928C139.771 48.818 142.259 45.9485 143.665 42.4569C145.796 37.1654 144.521 30.3435 138.867 27.9716C138.017 27.6155 137.646 29.0005 138.485 29.3527Z" fill="#84621F"/>
<path d="M147.059 31.7006C153.712 42.3809 141.149 52.9651 138.261 62.7481C138 63.6335 139.383 64.012 139.644 63.1286C142.666 52.8907 155.354 42.3052 148.298 30.9778C147.811 30.1971 146.57 30.9153 147.059 31.7006Z" fill="#84621F"/>
<path d="M160.292 101.065L199.955 97.5404L206.579 92.5334L215.124 91.8218L211.757 106.271C210.775 109.587 207.918 112.007 204.482 112.436L158.868 118.128C158.868 118.128 151.747 106.042 160.292 101.065Z" fill="#F2CBA8"/>
<path d="M135.732 101.248C135.732 101.248 137.767 93.9147 170.622 94.6863C172.798 94.737 174.796 95.9153 175.879 97.7994C178.581 102.495 182.359 111.889 175.819 120.26C174.695 121.699 173.003 122.591 171.177 122.682C163.579 123.061 141.555 123.328 136.015 114.165C130.077 104.342 135.732 101.248 135.732 101.248Z" fill="#1868AB"/>
<path d="M214.587 87.7542C213.275 95.2477 208.715 110.308 208.715 110.308C210.463 110.182 213.106 101.904 214.056 98.7301C214.289 97.9547 214.465 97.1667 214.587 96.3668L219.426 64.6334C224.905 58.3434 219.302 48.3872 219.302 48.3872C219.302 48.3872 221.33 59.9707 216.909 63.4972C216.909 63.4972 216.006 79.644 214.587 87.7542Z" fill="#E79E5C"/>
<path d="M233.479 181.406H-7.76465V146.568H188.406C190.42 146.568 192.371 147.272 193.921 148.558L233.479 181.406Z" fill="#84D7CC"/>
<path d="M36.1138 26.2273C36.1673 21.8595 37.8466 17.5042 41.2119 14.1916C45.3743 10.095 51.1454 8.55523 56.5019 9.60325C59.7511 10.2411 62.8836 11.8217 65.3931 14.3641C68.5361 17.547 70.2867 21.7515 70.3212 26.2082C70.3368 27.064 69.6287 27.7618 68.7702 27.777C67.9131 27.7928 67.2142 27.0858 67.199 26.2293C67.1812 22.5856 65.7544 19.1512 63.179 16.5431C61.2801 14.6202 58.9593 13.3747 56.5006 12.7861C51.9366 11.6999 46.9593 12.8934 43.3949 16.4022C40.6494 19.1039 39.2391 22.6718 39.2352 26.2497C39.2127 29.4102 40.2453 32.578 42.3591 35.1611C42.6426 35.4929 42.9479 35.8464 43.2532 36.1558C43.7332 36.6417 44.258 37.0847 44.8257 37.5277C45.5041 38.0366 45.6294 39.0036 45.1184 39.6804C44.6081 40.4019 43.6178 40.5039 42.9406 39.9944C42.7211 39.8173 42.5246 39.6619 42.3281 39.4631C41.8475 39.1083 41.4321 38.7324 41.0398 38.3348C37.722 34.9742 36.1046 30.5952 36.1138 26.2273Z" fill="#28D677"/>
<path d="M42.3465 45.5542C42.3506 45.0276 42.3908 39.3649 42.4284 34.1413C42.4396 32.6048 42.4278 31.1342 42.4594 29.8393C42.4759 27.5128 42.4884 25.7565 42.4911 25.3622C44.6042 24.9817 53.982 23.249 53.982 23.249C54.0915 23.2714 55.058 23.4096 56.4855 23.6177C61.0976 24.2654 70.4529 25.561 70.4529 25.561C70.4734 25.8032 70.3092 45.7537 70.3092 45.7537C70.2907 48.3 68.2092 50.3914 65.6154 50.3738L46.9739 50.2407C44.3794 50.2216 42.3289 48.0999 42.3465 45.5542Z" fill="#28D677"/>
<path d="M66.3645 40.8743L79.6482 27.7998L84.0137 32.2203L68.5159 47.4745L66.3645 40.8743Z" fill="#28D677"/>
<path d="M63.1792 16.5428C61.2803 14.6199 58.9594 13.3744 56.5007 12.7859L56.5021 9.60303C59.7506 10.2409 62.8831 11.8215 65.3932 14.3632C68.5363 17.5467 70.2868 21.7513 70.3211 26.208C70.3369 27.0638 69.6282 27.7616 68.7704 27.7767C67.9132 27.7925 67.2143 27.0855 67.1985 26.2291C67.1807 22.5854 65.7545 19.151 63.1792 16.5428Z" fill="#28D677"/>
<path d="M56.4852 23.6177C61.0972 24.2648 70.4532 25.561 70.4532 25.561C70.473 25.8026 70.3088 45.7531 70.3088 45.7531C70.2897 48.2994 68.2088 50.3914 65.615 50.3738L56.2939 50.3065L56.4852 23.6177Z" fill="#28D677"/>
<path d="M42.5242 20.7087C42.5084 19.8523 43.2171 19.1551 44.0743 19.1834L68.9584 19.3605C69.8162 19.3454 70.5144 20.0524 70.4867 20.9082L70.4531 25.5611C70.1893 25.5591 63.3302 25.5104 56.4718 25.4617L42.4912 25.3616L42.5242 20.7087Z" fill="#00AB4E"/>
<path d="M56.5161 19.272L68.9585 19.3608C69.8156 19.345 70.5145 20.0527 70.4862 20.9079L70.4532 25.5614C70.1894 25.5594 63.3304 25.5107 56.4719 25.4613L56.5161 19.272Z" fill="#00AB4E"/>
<path d="M77.4343 29.9787L78.1939 25.1053C78.5677 24.0131 79.9609 23.6952 80.7719 24.5167L87.3171 31.1452C88.1288 31.9674 87.7899 33.3538 86.6914 33.7106L81.7998 34.3998L77.4343 29.9787Z" fill="#00AB4E"/>
<path d="M52.9398 32.4269C55.4861 30.533 59.0881 31.0583 60.985 33.6007C62.8826 36.1431 62.3558 39.7394 59.8094 41.6333C57.2637 43.5272 53.6611 43.0019 51.7642 40.4595C49.8673 37.9172 50.3934 34.3209 52.9398 32.4269Z" fill="#FFC54F"/>
<path fill-rule="evenodd" clip-rule="evenodd" d="M54.1601 37.2299V38.6689H53.7683V35.2646H55.1708C55.5416 35.2646 55.8246 35.3467 56.0196 35.5109C56.2147 35.6751 56.3122 35.9165 56.3122 36.2352C56.3122 36.4992 56.2372 36.7125 56.0873 36.875C55.9374 37.0376 55.7238 37.1398 55.4465 37.1816C55.5336 37.2074 55.6101 37.2509 55.6762 37.312C55.7423 37.3732 55.8028 37.4553 55.8576 37.5583L56.4525 38.6689H56.0172L55.4368 37.5776C55.3659 37.4456 55.2829 37.3547 55.1878 37.3048C55.0927 37.2549 54.9629 37.2299 54.7984 37.2299H54.1601ZM54.1601 36.9016H55.137C55.4014 36.9016 55.5989 36.8469 55.7294 36.7374C55.86 36.628 55.9253 36.4622 55.9253 36.24C55.9253 36.0211 55.8608 35.8586 55.7319 35.7523C55.6029 35.6461 55.4046 35.593 55.137 35.593H54.1601V36.9016ZM57.4197 39.5381V38.2391C57.4907 38.3872 57.5946 38.5015 57.7317 38.582C57.8687 38.6624 58.0291 38.7027 58.2129 38.7027C58.4225 38.7027 58.6054 38.6528 58.7618 38.553C58.9182 38.4532 59.0399 38.3124 59.1269 38.1305C59.214 37.9486 59.2575 37.7353 59.2575 37.4907C59.2575 37.246 59.214 37.0311 59.1269 36.846C59.0399 36.6609 58.9174 36.5169 58.7594 36.4139C58.6014 36.3109 58.4192 36.2594 58.2129 36.2594C58.0291 36.2594 57.8687 36.2996 57.7317 36.3801C57.5946 36.4606 57.4907 36.5748 57.4197 36.7229V36.3173H57.028V39.5381H57.4197ZM57.6059 38.145C57.7301 38.3011 57.9066 38.3792 58.1355 38.3792C58.3644 38.3792 58.5417 38.3019 58.6675 38.1474C58.7932 37.9929 58.8561 37.774 58.8561 37.4907C58.8561 37.2074 58.7932 36.9861 58.6675 36.8267C58.5417 36.6674 58.3644 36.5877 58.1355 36.5877C57.9066 36.5877 57.7301 36.665 57.6059 36.8195C57.4818 36.974 57.4197 37.1945 57.4197 37.481C57.4197 37.7675 57.4818 37.9888 57.6059 38.145Z" fill="black"/>
<path fill-rule="evenodd" clip-rule="evenodd" d="M54.1601 37.2299V38.6689H53.7683V35.2646H55.1708C55.5416 35.2646 55.8246 35.3467 56.0196 35.5109C56.2147 35.6751 56.3122 35.9165 56.3122 36.2352C56.3122 36.4992 56.2372 36.7125 56.0873 36.875C55.9374 37.0376 55.7238 37.1398 55.4465 37.1816C55.5336 37.2074 55.6101 37.2509 55.6762 37.312C55.7423 37.3732 55.8028 37.4553 55.8576 37.5583L56.4525 38.6689H56.0172L55.4368 37.5776C55.3659 37.4456 55.2829 37.3547 55.1878 37.3048C55.0927 37.2549 54.9629 37.2299 54.7984 37.2299H54.1601ZM54.1601 36.9016H55.137C55.4014 36.9016 55.5989 36.8469 55.7294 36.7374C55.86 36.628 55.9253 36.4622 55.9253 36.24C55.9253 36.0211 55.8608 35.8586 55.7319 35.7523C55.6029 35.6461 55.4046 35.593 55.137 35.593H54.1601V36.9016ZM57.4197 39.5381V38.2391C57.4907 38.3872 57.5946 38.5015 57.7317 38.582C57.8687 38.6624 58.0291 38.7027 58.2129 38.7027C58.4225 38.7027 58.6054 38.6528 58.7618 38.553C58.9182 38.4532 59.0399 38.3124 59.1269 38.1305C59.214 37.9486 59.2575 37.7353 59.2575 37.4907C59.2575 37.246 59.214 37.0311 59.1269 36.846C59.0399 36.6609 58.9174 36.5169 58.7594 36.4139C58.6014 36.3109 58.4192 36.2594 58.2129 36.2594C58.0291 36.2594 57.8687 36.2996 57.7317 36.3801C57.5946 36.4606 57.4907 36.5748 57.4197 36.7229V36.3173H57.028V39.5381H57.4197ZM57.6059 38.145C57.7301 38.3011 57.9066 38.3792 58.1355 38.3792C58.3644 38.3792 58.5417 38.3019 58.6675 38.1474C58.7932 37.9929 58.8561 37.774 58.8561 37.4907C58.8561 37.2074 58.7932 36.9861 58.6675 36.8267C58.5417 36.6674 58.3644 36.5877 58.1355 36.5877C57.9066 36.5877 57.7301 36.665 57.6059 36.8195C57.4818 36.974 57.4197 37.1945 57.4197 37.481C57.4197 37.7675 57.4818 37.9888 57.6059 38.145Z" fill="white"/>
<path d="M31.203 94.9409C31.203 94.9409 25.1846 106.208 30.4507 128.741H32.4446C32.4446 128.741 26.1637 114.527 32.4446 96.0962L31.203 94.9409Z" fill="#00AB4E"/>
<path d="M26.347 99.1128C22.5169 95.2907 15.0216 94.8477 9.7185 94.8477C9.16861 94.8477 8.7229 95.292 8.7229 95.841C8.7229 101.138 9.16664 108.621 12.9954 112.446C14.7928 114.044 17.142 114.882 19.5466 114.781C22.0264 114.879 24.4521 114.046 26.347 112.446C29.2 109.596 29.7235 102.484 26.347 99.1128Z" fill="#84D653"/>
<path d="M51.5679 98.7793C46.2628 98.7793 38.7675 99.2223 34.9367 103.044C31.553 106.423 32.0844 113.525 34.9367 116.376C36.8323 117.976 39.2594 118.809 41.7398 118.711C44.1444 118.811 46.4936 117.974 48.291 116.376C52.1211 112.552 52.5635 105.068 52.5635 99.7714C52.5622 99.223 52.1171 98.7793 51.5679 98.7793Z" fill="#84D653"/>
<path d="M29.6259 134.6C29.076 134.6 28.6303 134.155 28.6303 133.606C28.6303 112.527 20.8883 107.239 17.974 105.249C17.6219 105.025 17.2896 104.773 16.9784 104.495C16.5967 104.1 16.6072 103.472 17.0028 103.09C17.3885 102.718 18.0004 102.718 18.3861 103.09C18.611 103.28 18.849 103.453 19.0989 103.609C21.6861 105.376 27.7823 109.54 29.8903 123.199C31.5201 116.058 36.3491 110.063 42.986 106.942C43.4937 106.703 44.1003 106.895 44.3792 107.381C44.6311 107.824 44.4755 108.387 44.0317 108.639C44.0153 108.649 43.9981 108.657 43.981 108.666L43.8194 108.742C32.9067 113.864 30.6149 125.089 30.6149 133.606C30.6149 134.153 30.1731 134.597 29.6259 134.6Z" fill="#00AB4E"/>
<path d="M40.1139 155.601H21.3867C20.3245 155.601 19.3955 154.676 19.1193 153.346L14.2 129.643H47.3L42.3807 153.346C42.1051 154.676 41.1754 155.601 40.1139 155.601Z" fill="#FBD362"/>
<path d="M39.8321 129.643L34.9135 153.346C34.6372 154.676 33.7075 155.601 32.646 155.601H40.1137C41.1752 155.601 42.1049 154.676 42.3811 153.346L47.3004 129.643H39.8321Z" fill="#F9AE5D"/>
<path d="M48.1424 133.857H13.3578C12.7683 133.857 12.2903 133.38 12.2903 132.791V128.72C12.2903 128.13 12.7683 127.654 13.3578 127.654H48.1424C48.7326 127.654 49.2099 128.13 49.2099 128.72V132.791C49.2106 133.38 48.7326 133.857 48.1424 133.857Z" fill="#F5C258"/>
<path d="M48.1424 127.653H41.1257V133.856H48.1424C48.7319 133.856 49.2099 133.379 49.2099 132.79V128.719C49.2105 128.13 48.7325 127.653 48.1424 127.653Z" fill="#DF9F1C"/>
<path d="M16.9847 159.55H1.21068C0.31662 159.55 -0.466674 158.771 -0.698761 157.651L-4.84204 137.686H23.0381L18.8941 157.651C18.662 158.771 17.8787 159.55 16.9847 159.55Z" fill="#FBD362"/>
<path d="M16.7473 137.686L12.604 157.652C12.3719 158.772 11.5886 159.55 10.6946 159.55H16.9847C17.8787 159.55 18.662 158.772 18.8941 157.652L23.038 137.686H16.7473Z" fill="#F9AE5D"/>
<path d="M23.747 141.236H-5.55201C-6.04849 141.236 -6.45068 140.833 -6.45068 140.338V136.908C-6.45068 136.412 -6.04849 136.011 -5.55201 136.011H23.747C24.2435 136.011 24.6463 136.412 24.6463 136.908V140.338C24.6463 140.833 24.2435 141.236 23.747 141.236Z" fill="#F5C258"/>
<path d="M23.747 136.01H17.8374V141.235H23.747C24.2435 141.235 24.6464 140.834 24.6464 140.338V136.908C24.6464 136.412 24.2435 136.01 23.747 136.01Z" fill="#DF9F1C"/>
<path d="M33.4954 76.105L28.6084 82.2601L33.7301 93.8212L37.3334 82.5024L36.8752 76.7244L33.4954 76.105Z" fill="#D8B56D"/>
<path d="M40.2553 77.3446L36.8755 76.7251L33.7305 93.8212L42.6322 84.8321L40.2553 77.3446Z" fill="#ECCC8B"/>
<path d="M30.4733 80.5113C34.9113 81.3249 37.8486 85.5769 37.033 90.0079C37.033 90.0079 31.3489 97.1505 30.5801 96.8022C26.2786 94.853 23.6867 90.1699 24.5788 85.3208L25.6271 79.6226L30.4733 80.5113Z" fill="#C69C45"/>
<path d="M32.0004 89.0847L30.5808 96.8013C31.3496 97.1496 32.1725 97.4116 33.0408 97.5709L36.8999 92.6396L35.5891 83.7183C33.7713 84.8966 32.423 86.7886 32.0004 89.0847Z" fill="#D8B56D"/>
<path d="M41.5117 82.5353C39.3735 82.143 37.2788 82.6229 35.5889 83.7183L33.0405 97.5709C38.7649 98.6209 44.2585 94.8383 45.3095 89.1223L46.3578 83.424L41.5117 82.5353Z" fill="#D8B56D"/>
</g>
<path d="M178.221 23.6771L176.913 26.0653L174.522 27.3708C174.127 27.5868 174.127 28.1527 174.522 28.3688L176.913 29.6743L178.221 32.0624C178.437 32.4568 179.004 32.4568 179.22 32.0624L180.528 29.6743L182.92 28.3688C183.315 28.1527 183.315 27.5868 182.92 27.3708L180.528 26.0653L179.22 23.6771C179.004 23.2827 178.437 23.2827 178.221 23.6771Z" fill="#FFC54F"/>
<path d="M252.147 94.494L250.838 96.8821L248.448 98.1877C248.053 98.4037 248.053 98.9696 248.448 99.1857L250.838 100.491L252.147 102.879C252.362 103.274 252.93 103.274 253.145 102.879L254.454 100.491L256.846 99.1857C257.241 98.9696 257.241 98.4037 256.846 98.1877L254.454 96.8821L253.145 94.494C252.93 94.0996 252.362 94.0996 252.147 94.494Z" fill="#FFE7B8"/>
<path d="M232.278 47.5494L231.26 49.4068L229.401 50.4222C229.094 50.5903 229.094 51.0304 229.401 51.1984L231.26 52.2138L232.278 54.0713C232.446 54.378 232.887 54.378 233.055 54.0713L234.073 52.2138L235.933 51.1984C236.24 51.0304 236.24 50.5903 235.933 50.4222L234.073 49.4068L233.055 47.5494C232.887 47.2426 232.446 47.2426 232.278 47.5494Z" fill="#FFD37B"/>
<path d="M60.4508 113.379L59.4329 115.237L57.5734 116.252C57.2662 116.42 57.2662 116.86 57.5734 117.029L59.4329 118.044L60.4508 119.901C60.6182 120.208 61.0599 120.208 61.2273 119.901L62.2452 118.044L64.1056 117.029C64.4128 116.86 64.4128 116.42 64.1056 116.252L62.2452 115.237L61.2273 113.379C61.0599 113.073 60.6182 113.073 60.4508 113.379Z" fill="#FFC54F"/>
<path d="M46.8531 66.5663L45.5444 68.9544L43.1537 70.2599C42.7587 70.476 42.7587 71.0419 43.1537 71.2579L45.5444 72.5634L46.8531 74.9515C47.0684 75.3459 47.6363 75.3459 47.8515 74.9515L49.1603 72.5634L51.5521 71.2579C51.9472 71.0419 51.9472 70.476 51.5521 70.2599L49.1603 68.9544L47.8515 66.5663C47.6363 66.1719 47.0684 66.1719 46.8531 66.5663Z" fill="#FFC54F"/>
<path d="M284.226 42.5626L283.208 44.42L281.349 45.4354C281.042 45.6034 281.042 46.0436 281.349 46.2116L283.208 47.227L284.226 49.0844C284.394 49.3912 284.835 49.3912 285.003 49.0844L286.021 47.227L287.881 46.2116C288.188 46.0436 288.188 45.6034 287.881 45.4354L286.021 44.42L285.003 42.5626C284.835 42.2558 284.394 42.2558 284.226 42.5626Z" fill="#FFD37B"/>
<path fill-rule="evenodd" clip-rule="evenodd" d="M229.503 41.9191C228.211 41.0035 228.109 39.1257 229.301 38.082C230.813 36.7586 232.669 35.1477 233.597 34.3973C234.733 33.479 237.331 31.5437 238.962 30.3365C239.811 29.7087 240.965 29.6959 241.829 30.3004L262.1 44.4717C263.368 45.3581 263.511 47.1783 262.393 48.2477C260.797 49.7735 258.752 51.7147 257.866 52.4936C256.865 53.3732 254.553 55.2219 253.032 56.4281C252.178 57.106 250.98 57.1346 250.09 56.5043L229.503 41.9191Z" fill="#CC9D3F"/>
<mask id="mask4_5567_150983" style="mask-type:alpha" maskUnits="userSpaceOnUse" x="228" y="29" width="36" height="28">
<path fill-rule="evenodd" clip-rule="evenodd" d="M229.503 41.9191C228.211 41.0035 228.109 39.1257 229.301 38.082C230.813 36.7586 232.669 35.1477 233.597 34.3973C234.733 33.479 237.331 31.5437 238.962 30.3365C239.811 29.7087 240.965 29.6959 241.829 30.3004L262.1 44.4717C263.368 45.3581 263.511 47.1783 262.393 48.2477C260.797 49.7735 258.752 51.7147 257.866 52.4936C256.865 53.3732 254.553 55.2219 253.032 56.4281C252.178 57.106 250.98 57.1346 250.09 56.5043L229.503 41.9191Z" fill="white"/>
</mask>
<g mask="url(#mask4_5567_150983)">
<path fill-rule="evenodd" clip-rule="evenodd" d="M230.014 40.8439C228.647 39.886 228.61 37.8775 229.941 36.8715L239.333 29.767C240.197 29.1141 241.386 29.1014 242.264 29.7357L261.381 43.5518C262.659 44.4755 262.751 46.344 261.569 47.3866L253.182 54.7854C252.328 55.5382 251.069 55.6081 250.137 54.9543L230.014 40.8439Z" fill="#FFC54F"/>
<path fill-rule="evenodd" clip-rule="evenodd" d="M237.735 36.6596L237.208 39.7691C237.172 40.2786 237.473 40.7667 237.953 40.9758L241.904 42.9866C242.383 43.1957 242.932 43.0785 243.263 42.6975L246.55 40.0065C246.881 39.6255 246.921 39.067 246.647 38.6221L244.121 35.6258C243.847 35.1809 243.321 34.9515 242.82 35.0578L238.635 35.6258C238.135 35.7321 237.771 36.1501 237.735 36.6596Z" fill="#CC9D3F"/>
<rect width="11.2297" height="2.04653" rx="1.02327" transform="matrix(0.766542 -0.642194 0.643381 0.765546 244.01 47.5498)" fill="#CC9D3F"/>
<rect width="11.9313" height="2.04658" rx="1.02329" transform="matrix(0.75522 -0.655471 0.656646 0.754199 247.2 49.8511)" fill="#CC9D3F"/>
</g>
</svg>
