<svg width="100" height="100" viewBox="0 0 100 100" fill="none" xmlns="http://www.w3.org/2000/svg">
<circle cx="50" cy="50" r="50" fill="#E6F6EA"/>
<mask id="mask0_5567_148444" style="mask-type:alpha" maskUnits="userSpaceOnUse" x="0" y="0" width="100" height="100">
<circle cx="50" cy="50" r="50" fill="#E6F6EA"/>
</mask>
<g mask="url(#mask0_5567_148444)">
<rect width="5.53166" height="11.0195" transform="matrix(0.99367 0.112339 -0.113246 0.993567 55.76 76.5273)" fill="#FFDAB8"/>
<path fill-rule="evenodd" clip-rule="evenodd" d="M65.9712 80.856C59.6573 81.6431 54.7709 79.4932 54.5122 78.1013C54.2534 76.7094 58.499 57.7356 59.6573 55.187C60.8157 52.6573 61.8508 52.2887 61.8508 52.2887L61.9944 52.231C61.2972 55.3765 59.7468 63.1428 59.6573 70.3521C59.6438 70.2978 63.0298 75.1517 61.0407 75.3255" fill="#00883E"/>
<mask id="mask1_5567_148444" style="mask-type:alpha" maskUnits="userSpaceOnUse" x="58" y="48" width="32" height="42">
<path fill-rule="evenodd" clip-rule="evenodd" d="M89.7224 48.7368H58.9502V90.0002H89.7224V48.7368Z" fill="white"/>
</mask>
<g mask="url(#mask1_5567_148444)">
<path fill-rule="evenodd" clip-rule="evenodd" d="M68.8189 49.17C68.8189 49.17 74.7094 48.4385 77.0696 48.8767C79.4296 49.315 88.3535 52.1574 89.5314 54.5046C90.7097 56.8518 86.0508 64.8767 86.0508 64.8767C86.0508 64.8767 83.2508 77.939 83.2508 78.8192C83.2508 79.6995 84.1344 80.8731 85.4618 88.0634C85.4884 88.2119 85.5152 88.3645 85.5382 88.5167C80.6358 89.6374 75.6094 90.1266 70.5822 89.9725C64.8177 89.7248 61.096 88.1548 58.9502 86.8403C60.1398 81.2122 61.2644 77.1617 61.1534 75.7366C61.0437 74.3279 60.0865 72.3529 59.5656 70.206C59.6544 62.9627 61.3034 55.3915 61.9941 52.2311L68.8189 49.17Z" fill="#00AB4E"/>
</g>
<path fill-rule="evenodd" clip-rule="evenodd" d="M72.898 47.278C70.9574 47.155 69.2635 47.1806 68.3351 48.8849C67.2855 50.6818 66.8199 53.074 66.616 54.6801C66.5378 55.2953 67.2702 55.6737 67.731 55.2573C68.8495 54.2466 70.414 52.9077 71.1626 52.6088C72.3999 52.1152 75.2471 52.4838 76.4875 54.4617C76.8689 55.0596 77.2301 55.6699 77.5704 56.2917C77.9375 56.9629 78.9057 56.9607 79.2648 56.2852C80.1025 54.7093 81.1079 52.158 80.4066 49.899C79.2947 46.3183 72.898 47.278 72.898 47.278Z" fill="#F5FBFF"/>
<path fill-rule="evenodd" clip-rule="evenodd" d="M97.7854 79.4463L89.9469 80.3678L83.7309 67.4144C83.7309 67.4144 81.8743 51.7842 88.0463 53.3562C92.3003 54.4397 97.7854 79.4463 97.7854 79.4463Z" fill="#00883E"/>
<path fill-rule="evenodd" clip-rule="evenodd" d="M69.0338 25.5935C65.049 27.1551 62.9939 32.6502 64.0251 37.5126C65.4057 44.0225 61.2852 44.7552 64.2917 46.4964C67.2982 48.2376 78.2099 52.0715 85.2902 46.0987C87.2094 44.4797 85.1493 37.9612 85.287 34.1483C85.4997 28.2589 81.1402 23.8974 75.1651 25.2418C75.1651 25.2418 73.0186 24.0318 69.0338 25.5935Z" fill="#99762F"/>
<path fill-rule="evenodd" clip-rule="evenodd" d="M70.7267 43.5896C70.7267 43.5896 71.391 43.0047 70.6329 47.1611C69.8747 51.3175 71.9327 56.0903 73.5813 55.2165C75.2301 54.3428 77.8011 49.7771 77.7215 46.8101C77.6421 43.8433 78.0071 40.9126 78.0071 40.9126L70.7267 43.5896Z" fill="#FFB490"/>
<path fill-rule="evenodd" clip-rule="evenodd" d="M82.2729 35.0786C81.4079 40.3897 81.1556 42.6545 78.1609 45.1289C73.6511 48.8637 67.2879 46.631 66.5405 41.1698C65.8684 36.2584 67.3973 28.3965 72.8716 26.7927C76.778 25.6258 80.8957 27.826 82.0697 31.7068C82.4008 32.8 82.4699 33.9544 82.2729 35.0786Z" fill="#FFDAB8"/>
<path d="M75.6873 43.1319C74.8869 43.776 72.4083 43.5747 71.2691 43.3935C71.5797 43.9121 72.4941 44.944 73.6671 44.9223C74.8402 44.9006 75.5027 43.7197 75.6873 43.1319Z" fill="white"/>
<path fill-rule="evenodd" clip-rule="evenodd" d="M71.006 37.3563C70.8764 37.3402 70.7583 37.4323 70.7422 37.5618L70.3932 40.3664C70.352 40.698 70.4857 41.0272 70.7466 41.2359L71.4678 41.813C71.5697 41.8946 71.7185 41.8781 71.8002 41.7761C71.8818 41.6741 71.8654 41.5254 71.7634 41.4438L71.0423 40.8667C70.9096 40.7605 70.8416 40.5932 70.8626 40.4245L71.2115 37.62C71.2276 37.4904 71.1356 37.3723 71.006 37.3563Z" fill="#FFB490"/>
<path fill-rule="evenodd" clip-rule="evenodd" d="M77.6766 34.3096C80.0832 36.7581 77.9581 40.7687 81.853 37.8936C83.7098 36.5216 83.4899 29.4782 82.4088 28.1832C81.3281 26.8882 76.9662 25.1986 74.8069 26.121C67.5605 29.2089 74.9622 31.553 77.6766 34.3096Z" fill="#99762F"/>
<path fill-rule="evenodd" clip-rule="evenodd" d="M83.5258 39.8964C83.0149 40.8902 82.1277 41.6419 81.0595 41.9867C79.6379 42.4297 78.8795 41.1784 79.2327 39.8228C79.552 38.6 80.6777 36.901 82.1201 37.0316C83.562 37.1622 84.1424 38.6631 83.5258 39.8964Z" fill="#FFDAB8"/>
<path fill-rule="evenodd" clip-rule="evenodd" d="M74.5834 27.0957C71.0994 29.8624 69.7803 28.3398 68.0632 31.1805C68.6514 27.1505 71.0908 26.0221 73.4594 25.9292C75.828 25.8362 76.557 26.0991 75.6726 26.8047" fill="#99762F"/>
<path fill-rule="evenodd" clip-rule="evenodd" d="M74.6382 57.8524C74.3767 61.171 74.2606 69.0746 78.1656 75.2559C78.7081 76.1143 78.1362 77.2358 77.1186 77.3151L62.8021 78.4305C62.2213 78.4758 61.6765 78.1494 61.4436 77.6193C60.3522 75.1345 57.5027 67.6886 58.0527 58.751C58.0942 58.0769 58.6261 57.5346 59.305 57.4817L73.171 56.4014C74.0051 56.3364 74.7033 57.0252 74.6382 57.8524Z" fill="#95CF72"/>
<path fill-rule="evenodd" clip-rule="evenodd" d="M78.8393 72.6249L78.073 70.9023C77.7995 70.2868 77.3156 69.7853 76.7055 69.4847L75.3149 68.564L75.4465 71.3542C75.4465 71.3542 69.4999 69.7963 69.0319 70.5806C68.7437 71.0636 69.9526 71.9879 69.9526 71.9879C69.9526 71.9879 70.9974 74.8725 71.3137 75.4959C71.6301 76.1192 76.5733 77.4941 77.3586 77.6328C77.9434 77.7579 78.5209 77.9135 79.089 78.0985C79.089 78.0985 92.7542 84.3308 94.0121 84.7964C95.2697 85.2621 97.7854 83.0917 97.7854 80.7675C97.7854 78.4433 96.3714 77.666 95.1174 77.2005C94.1113 76.8268 84.6328 74.9841 80.9232 74.2697C79.9965 74.0915 79.2182 73.4768 78.8393 72.6249Z" fill="#FFDAB8"/>
<rect x="31" y="16" width="25.8423" height="17.5312" rx="1.45142" fill="#C6E5B4"/>
<path d="M50.2079 37.3932L44.8303 32.2048L50.8227 32.2048L50.8227 37.132C50.8227 37.4522 50.4383 37.6155 50.2079 37.3932Z" fill="#C6E5B4"/>
<rect x="20" y="82" width="75" height="25" fill="#E5EFAC"/>
<path fill-rule="evenodd" clip-rule="evenodd" d="M13.9817 50.1362L10.8745 64.5854L24.3112 65.2481L26.1962 52.7298L13.9817 50.1362Z" fill="#ECB17D"/>
<path fill-rule="evenodd" clip-rule="evenodd" d="M35.2116 38.9174C35.2116 38.9174 36.5689 38.0976 38.2166 36.0072C40.2713 33.4002 39.6187 29.0679 38.1474 29.758C35.8284 30.8456 34.1848 28.8635 31.0908 27.2452C28.2854 25.7779 24.6403 24.9511 19.7411 25.7891C15.697 26.4862 9.49022 29.4218 7.73488 36.8029C6.38485 42.5056 20.7826 49.0248 19.7481 52.9062C30.0571 43.5803 35.2116 38.9174 35.2116 38.9174Z" fill="#001E1A"/>
<path fill-rule="evenodd" clip-rule="evenodd" d="M36.3258 44.0267C36.3258 44.0267 37.0946 45.8821 37.4417 47.1204C37.6056 47.703 37.2709 48.3284 36.678 48.4633C36.3466 48.5389 36.0085 48.584 35.6673 48.5977L36.3258 44.0267Z" fill="#D39660"/>
<path fill-rule="evenodd" clip-rule="evenodd" d="M31.516 31.8421C33.4969 33.4089 36.9036 36.2495 36.2885 44.535C35.6599 53.0441 33.2367 55.5774 31.8546 56.4421C30.9488 57.0236 26.9285 56.5261 24.9871 55.489C22.5493 54.1839 17.4861 50.3448 15.703 45.5459C13.6028 39.8981 14.292 33.0399 18.3766 31.0957C24.1538 28.3622 29.8316 30.5258 31.516 31.8421Z" fill="#ECB17D"/>
<path fill-rule="evenodd" clip-rule="evenodd" d="M26.0203 55.9256C27.7412 56.5393 29.5752 56.7751 31.3976 56.616C29.5336 56.3136 27.7956 55.4897 26.3856 54.2408L26.0203 55.9256Z" fill="#D39660"/>
<path fill-rule="evenodd" clip-rule="evenodd" d="M25.7944 41.7583C27.6493 41.5165 28.5886 42.9103 29.0025 43.8381C29.1454 44.1598 29.5454 44.1515 29.7723 43.8886C32.4803 40.751 33.3423 38.8171 32.3548 32.2625C32.1893 31.1638 26.6554 25.6406 17.6803 26.7982C12.4693 27.4707 9.0532 32.2039 7.85411 35.9536C6.86632 39.045 8.54656 46.4719 13.3197 53.457C13.7438 54.0778 15.6046 54.4172 18.902 54.4753L18.902 54.4753C19.7205 54.4898 20.4926 54.0961 20.9615 53.4251C22.6584 50.9975 23.6418 49.0874 23.9117 47.6948C22.4132 45.5163 23.0521 42.1159 25.7944 41.7583Z" fill="#001E1A"/>
<path d="M10.3174 56.6389L9.80319 58.4387C9.64079 59.0071 10.0042 59.5916 10.5858 59.6973L25.1085 62.3378C25.6144 62.4298 26.1077 62.1231 26.2489 61.6286L26.8079 59.6721C26.9233 59.2684 26.7769 58.8324 26.4218 58.6083C22.1705 55.9251 15.2663 55.5551 11.1586 55.9306C10.7576 55.9672 10.428 56.2517 10.3174 56.6389Z" fill="#EEEEEF"/>
<path fill-rule="evenodd" clip-rule="evenodd" d="M23.3022 60.2461C36.4125 59.6726 41 72.1576 41 72.1576C41 72.1576 32.9066 106.795 28.0303 114L-9 109.146C-9 109.146 -8.53101 85.8288 -5.81129 72.1576C-5.81129 72.1576 -4.29119 58.829 9.44646 58.5781C12.2629 58.5269 15.6499 60.5809 23.3022 60.2461Z" fill="#BBBDC0"/>
<path fill-rule="evenodd" clip-rule="evenodd" d="M36.8072 65.0762C37.8283 65.7195 38.8648 66.6091 39.5718 67.811C40.6882 70.012 41.5842 72.3172 42.2466 74.6922C57.188 127.264 41.2379 133.185 27.9252 83.0501C26.2652 76.8317 28.2449 70.1494 30.9506 66.2441C32.2685 64.3425 34.8408 63.838 36.8072 65.0762Z" fill="#EEEEEF"/>
</g>
</svg>
