<svg width="328" height="164" viewBox="0 0 328 164" fill="none" xmlns="http://www.w3.org/2000/svg">
<path fill-rule="evenodd" clip-rule="evenodd" d="M304.781 161.504C294.319 163.667 62.9471 165.826 26.1241 161.504C15.2231 160.224 6.49713 148.276 5.22412 146.203C-2.73587 133.238 0.249146 53.2794 2.23914 26.266C3.31015 11.7278 18.1621 5.19571 25.1291 3.03482C38.4521 -1.09779 274.72 -1.26366 305.777 4.11573C319.672 6.52168 324.709 17.8712 325.709 24.1796C328.042 38.8847 329.421 129.331 325.681 141.514C322.695 151.239 315.231 159.343 304.781 161.504Z" fill="#EDFFF5"/>
<mask id="mask0_5567_156493" style="mask-type:alpha" maskUnits="userSpaceOnUse" x="0" y="0" width="328" height="164">
<path fill-rule="evenodd" clip-rule="evenodd" d="M304.781 161.504C294.319 163.667 62.9471 165.826 26.1241 161.504C15.2231 160.224 6.49713 148.276 5.22412 146.203C-2.73587 133.238 0.249146 53.2794 2.23914 26.266C3.31015 11.7278 18.1621 5.19571 25.1291 3.03482C38.4521 -1.09779 274.72 -1.26366 305.777 4.11573C319.672 6.52168 324.709 17.8712 325.709 24.1796C328.042 38.8847 329.421 129.331 325.681 141.514C322.695 151.239 315.231 159.343 304.781 161.504Z" fill="white"/>
</mask>
<g mask="url(#mask0_5567_156493)">
<path fill-rule="evenodd" clip-rule="evenodd" d="M299.998 89.8633H302.385H305.469H307.856H310.951H313.338H316.434H318.82H321.904H324.29H327.386H329.773H332.869H335.255H338.339H340.726H343.822H346.208H349.304H351.691H356.118V91.158V100.963H357.857H362.285V102.259V112.36H357.857H355.471H354.268V113.359V123.165H356.118V124.46V134.265H357.857H362.285V135.56V145.662H357.857H355.471H354.268V146.661V156.466H357.352V157.762V167.863H352.923H350.537H347.441H345.055H341.959H339.573H336.489H334.102H331.006H328.619H325.524H323.137H320.054H317.667H314.571H312.185H309.088H306.702H303.619H301.232H296.798V157.762V156.762H293.715V146.661V145.367H298.149H300.535H301.732V135.56V134.562H299.998H295.564V124.46V123.46H293.715V113.359V112.064H298.149H300.535H301.732V102.259V101.26H299.998H295.564V91.158V89.8633H299.998Z" fill="#BBF0D3"/>
<path fill-rule="evenodd" clip-rule="evenodd" d="M242.236 145.661H243.513H244.153V140.415V139.881H243.226H240.854V134.476V133.783H243.226H244.503H246.153H247.43H249.086H250.363H252.019H253.296H254.946H256.223H257.879H259.156H260.813H262.09H263.74H265.016H266.673H267.95H269.606H270.883H273.252V134.476V139.722H274.183H276.552V140.415V145.82H274.183H272.906H272.262V146.355V151.601H273.252V152.293V157.54H274.183H276.552V158.233V163.638H274.183H272.906H272.262V164.172V169.418H273.912V170.112V175.516H271.543H270.266H268.61H267.333H265.677H264.4H262.75H261.472H259.816H258.54H256.883H255.606H253.956H252.68H251.023H249.746H248.09H246.812H245.163H243.886H241.513V170.112V169.577H239.863V164.172V163.48H242.236H243.513H244.153V158.233V157.699H243.226H240.854V152.293V151.759H239.863V146.355V145.661H242.236Z" fill="#84D7CC"/>
<path fill-rule="evenodd" clip-rule="evenodd" d="M181.672 117.442H182.949H183.589V112.196V111.661H182.662H180.29V106.256V105.563H182.662H183.939H185.589H186.866H188.522H189.799H191.455H192.732H194.382H195.659H197.315H198.592H200.249H201.526H203.176H204.452H206.109H207.386H209.042H210.319H212.689V106.256V111.502H213.619H215.988V112.196V117.6H213.619H212.342H211.698V118.135V123.381H212.689V124.074V129.32H213.619H215.988V130.013V135.418H213.619H212.342H211.698V135.952V141.199H213.348V141.892V147.296H210.979H209.702H208.046H206.769H205.113H203.836H202.186H200.909H199.252H197.976H196.319H195.042H193.392H192.116H190.459H189.182H187.526H186.249H184.599H183.322H180.949V141.892V141.357H179.3V135.952V135.26H181.672H182.949H183.589V130.013V129.479H182.662H180.29V124.074V123.539H179.3V118.135V117.442H181.672Z" fill="#BBF0D3"/>
<path fill-rule="evenodd" clip-rule="evenodd" d="M5.8601 95.0935H7.13724H7.77698V89.8474V89.3129H6.85029H4.47771V83.908V83.2153H6.85029H8.12684H9.77677H11.0539H12.7103H13.9868H15.6432H16.9204H18.5703H19.8474H21.5033H22.7804H24.4368H25.7139H27.3638H28.6404H30.2968H31.5739H33.2303H34.5075H36.8765V83.908V89.1541H37.8073H40.1758V89.8474V95.2523H37.8073H36.5302H35.8863V95.7868V101.033H36.8765V101.726V106.972H37.8073H40.1758V107.665V113.07H37.8073H36.5302H35.8863V113.604V118.85H37.5362V119.544V124.948H35.1672H33.8901H32.2337H30.9571H29.3007H28.0236H26.3737H25.0965H23.4401H22.1636H20.5072H19.23H17.5801H16.3036H14.6472H13.37H11.7136H10.4365H8.78716H7.51003H5.13745V119.544V119.009H3.48752V113.604V112.912H5.8601H7.13724H7.77698V107.665V107.13H6.85029H4.47771V101.726V101.191H3.48752V95.7868V95.0935H5.8601Z" fill="#BBF0D3"/>
<path fill-rule="evenodd" clip-rule="evenodd" d="M7.13724 136.842H7.77698V131.595V131.061H6.85029H4.47771V125.656V124.963H6.85029H8.12684H9.77677H11.0539H12.7103H13.9868H15.6432H16.9204H18.5703H19.8474H21.5038H22.7804H24.4368H25.7139H27.3638H28.6404H30.2968H31.5739H33.2303H34.5075H36.8765V125.656V130.902H37.8073H40.1758V131.595V137H37.8073H36.5302H35.8869V137.535V142.781H36.8765V143.474V148.72H37.8073H40.1758V149.413V154.818H37.8073H36.5302H35.8869V155.352V160.599H37.5362V161.292V166.696H35.1672H33.8906H32.2337H30.9571H29.3007H28.0236H26.3737H25.0965H23.4407H22.1636H20.5072H19.23H17.5801H16.3036H14.6472H13.37H11.7136H10.4365H8.78716H7.51003H5.13745V161.292V160.757H3.48752V155.352V154.66H5.8601H7.13724H7.77698V149.413V148.879H6.85029H4.47771V143.474V142.939H3.48752V137.535V136.842H5.8601H7.13724Z" fill="#BBF0D3"/>
<path fill-rule="evenodd" clip-rule="evenodd" d="M113.137 145.842H113.777V140.595V140.061H112.85H110.478V134.656V133.963H112.85H114.127H115.777H117.054H118.71H119.987H121.643H122.92H124.57H125.847H127.504H128.78H130.437H131.714H133.364H134.64H136.297H137.574H139.23H140.507H142.877V134.656V139.902H143.807H146.176V140.595V146H143.807H142.53H141.887V146.535V151.781H142.877V152.474V157.72H143.807H146.176V158.413V163.818H143.807H142.53H141.887V164.352V169.599H143.536V170.292V175.696H141.167H139.891H138.234H136.957H135.301H134.024H132.374H131.097H129.441H128.164H126.507H125.23H123.58H122.304H120.647H119.37H117.714H116.437H114.787H113.51H111.137V170.292V169.757H109.488V164.352V163.66H111.86H113.137H113.777V158.413V157.879H112.85H110.478V152.474V151.939H109.488V146.535V145.842H111.86H113.137Z" fill="#BBF0D3"/>
<path fill-rule="evenodd" clip-rule="evenodd" d="M188.071 165.208H149.932V158.031H188.071V165.208Z" fill="#ECCC8B"/>
<path fill-rule="evenodd" clip-rule="evenodd" d="M188.071 158.846H149.932V158.031H188.071V158.846Z" fill="#ECCC8B"/>
<path fill-rule="evenodd" clip-rule="evenodd" d="M203.229 165.208H201.725V158.031H203.229V165.208Z" fill="#D8B56D"/>
<path fill-rule="evenodd" clip-rule="evenodd" d="M157.674 165.208H156.171V158.031H157.674V165.208Z" fill="#D8B56D"/>
<path fill-rule="evenodd" clip-rule="evenodd" d="M161.126 165.208H159.624V158.031H161.126V165.208Z" fill="#D8B56D"/>
<path fill-rule="evenodd" clip-rule="evenodd" d="M164.58 165.208H163.077V158.031H164.58V165.208Z" fill="#D8B56D"/>
<path fill-rule="evenodd" clip-rule="evenodd" d="M168.025 165.208H166.522V158.031H168.025V165.208Z" fill="#D8B56D"/>
<path fill-rule="evenodd" clip-rule="evenodd" d="M171.478 165.208H169.975V158.031H171.478V165.208Z" fill="#D8B56D"/>
<path fill-rule="evenodd" clip-rule="evenodd" d="M174.931 165.208H173.428V158.031H174.931V165.208Z" fill="#D8B56D"/>
<path fill-rule="evenodd" clip-rule="evenodd" d="M178.376 165.208H176.874V158.031H178.376V165.208Z" fill="#D8B56D"/>
<path fill-rule="evenodd" clip-rule="evenodd" d="M181.829 165.208H180.326V158.031H181.829V165.208Z" fill="#D8B56D"/>
<path fill-rule="evenodd" clip-rule="evenodd" d="M185.283 165.208H183.779V158.031H185.283V165.208Z" fill="#D8B56D"/>
<path fill-rule="evenodd" clip-rule="evenodd" d="M79.0864 167.539H31.8683V158.653H79.0864V167.539Z" fill="#ECCC8B"/>
<path fill-rule="evenodd" clip-rule="evenodd" d="M79.0864 159.662H31.8683V158.652H79.0864V159.662Z" fill="#FFC54F"/>
<path fill-rule="evenodd" clip-rule="evenodd" d="M37.1865 167.539H35.3255V158.653H37.1865V167.539Z" fill="#D8B56D"/>
<path fill-rule="evenodd" clip-rule="evenodd" d="M41.4521 167.539H39.5911V158.653H41.4521V167.539Z" fill="#D8B56D"/>
<path fill-rule="evenodd" clip-rule="evenodd" d="M45.7271 167.539H43.866V158.653H45.7271V167.539Z" fill="#D8B56D"/>
<path fill-rule="evenodd" clip-rule="evenodd" d="M50.002 167.539H48.1409V158.653H50.002V167.539Z" fill="#D8B56D"/>
<path fill-rule="evenodd" clip-rule="evenodd" d="M54.2676 167.539H52.4066V158.653H54.2676V167.539Z" fill="#D8B56D"/>
<path fill-rule="evenodd" clip-rule="evenodd" d="M58.543 167.539H56.6819V158.653H58.543V167.539Z" fill="#D8B56D"/>
<path fill-rule="evenodd" clip-rule="evenodd" d="M62.8179 167.539H60.9569V158.653H62.8179V167.539Z" fill="#D8B56D"/>
<path fill-rule="evenodd" clip-rule="evenodd" d="M67.0835 167.539H65.2225V158.653H67.0835V167.539Z" fill="#D8B56D"/>
<path fill-rule="evenodd" clip-rule="evenodd" d="M71.3584 167.539H69.4974V158.653H71.3584V167.539Z" fill="#D8B56D"/>
<path fill-rule="evenodd" clip-rule="evenodd" d="M75.6338 167.539H73.7728V158.653H75.6338V167.539Z" fill="#D8B56D"/>
<path fill-rule="evenodd" clip-rule="evenodd" d="M120.907 158.995H82.7684V151.816H120.907V158.995Z" fill="#ECCC8B"/>
<path fill-rule="evenodd" clip-rule="evenodd" d="M120.907 152.632H82.7684V151.816H120.907V152.632Z" fill="#C69C45"/>
<path fill-rule="evenodd" clip-rule="evenodd" d="M87.0645 158.995H85.5615V151.816H87.0645V158.995Z" fill="#D8B56D"/>
<path fill-rule="evenodd" clip-rule="evenodd" d="M90.5093 158.995H89.0063V151.816H90.5093V158.995Z" fill="#D8B56D"/>
<path fill-rule="evenodd" clip-rule="evenodd" d="M93.9619 158.995H92.459V151.816H93.9619V158.995Z" fill="#D8B56D"/>
<path fill-rule="evenodd" clip-rule="evenodd" d="M97.4155 158.995H95.9126V151.816H97.4155V158.995Z" fill="#D8B56D"/>
<path fill-rule="evenodd" clip-rule="evenodd" d="M100.86 158.995H99.3574V151.816H100.86V158.995Z" fill="#D8B56D"/>
<path fill-rule="evenodd" clip-rule="evenodd" d="M104.314 158.995H102.811V151.816H104.314V158.995Z" fill="#D8B56D"/>
<path fill-rule="evenodd" clip-rule="evenodd" d="M107.767 158.995H106.264V151.816H107.767V158.995Z" fill="#D8B56D"/>
<path fill-rule="evenodd" clip-rule="evenodd" d="M111.212 158.995H109.709V151.816H111.212V158.995Z" fill="#D8B56D"/>
<path fill-rule="evenodd" clip-rule="evenodd" d="M114.666 158.995H113.162V151.816H114.666V158.995Z" fill="#D8B56D"/>
<path fill-rule="evenodd" clip-rule="evenodd" d="M118.119 158.995H116.616V151.816H118.119V158.995Z" fill="#D8B56D"/>
<path fill-rule="evenodd" clip-rule="evenodd" d="M125.957 152.003H87.8177V144.825H125.957V152.003Z" fill="#ECCC8B"/>
<path fill-rule="evenodd" clip-rule="evenodd" d="M125.957 145.641H87.8177V144.825H125.957V145.641Z" fill="#C69C45"/>
<path fill-rule="evenodd" clip-rule="evenodd" d="M92.1138 152.003H90.6103V144.825H92.1138V152.003Z" fill="#D8B56D"/>
<path fill-rule="evenodd" clip-rule="evenodd" d="M95.5591 152.003H94.0556V144.825H95.5591V152.003Z" fill="#D8B56D"/>
<path fill-rule="evenodd" clip-rule="evenodd" d="M99.0122 152.003H97.5087V144.825H99.0122V152.003Z" fill="#D8B56D"/>
<path fill-rule="evenodd" clip-rule="evenodd" d="M102.465 152.003H100.962V144.825H102.465V152.003Z" fill="#D8B56D"/>
<path fill-rule="evenodd" clip-rule="evenodd" d="M105.91 152.003H104.407V144.825H105.91V152.003Z" fill="#D8B56D"/>
<path fill-rule="evenodd" clip-rule="evenodd" d="M109.363 152.003H107.86V144.825H109.363V152.003Z" fill="#D8B56D"/>
<path fill-rule="evenodd" clip-rule="evenodd" d="M112.816 152.003H111.313V144.825H112.816V152.003Z" fill="#D8B56D"/>
<path fill-rule="evenodd" clip-rule="evenodd" d="M116.261 152.003H114.758V144.825H116.261V152.003Z" fill="#D8B56D"/>
<path fill-rule="evenodd" clip-rule="evenodd" d="M119.715 152.003H118.212V144.825H119.715V152.003Z" fill="#D8B56D"/>
<path fill-rule="evenodd" clip-rule="evenodd" d="M123.167 152.003H121.665V144.825H123.167V152.003Z" fill="#D8B56D"/>
<path fill-rule="evenodd" clip-rule="evenodd" d="M122.072 145.011H83.9334V137.833H122.072V145.011Z" fill="#ECCC8B"/>
<path fill-rule="evenodd" clip-rule="evenodd" d="M122.072 138.649H83.9334V137.833H122.072V138.649Z" fill="#C69C45"/>
<path fill-rule="evenodd" clip-rule="evenodd" d="M88.2295 145.011H86.726V137.833H88.2295V145.011Z" fill="#D8B56D"/>
<path fill-rule="evenodd" clip-rule="evenodd" d="M91.6748 145.011H90.1713V137.833H91.6748V145.011Z" fill="#D8B56D"/>
<path fill-rule="evenodd" clip-rule="evenodd" d="M95.1279 145.011H93.6244V137.833H95.1279V145.011Z" fill="#D8B56D"/>
<path fill-rule="evenodd" clip-rule="evenodd" d="M98.5811 145.011H97.0775V137.833H98.5811V145.011Z" fill="#D8B56D"/>
<path fill-rule="evenodd" clip-rule="evenodd" d="M102.026 145.011H100.523V137.833H102.026V145.011Z" fill="#D8B56D"/>
<path fill-rule="evenodd" clip-rule="evenodd" d="M105.479 145.011H103.976V137.833H105.479V145.011Z" fill="#D8B56D"/>
<path fill-rule="evenodd" clip-rule="evenodd" d="M108.933 145.011H107.429V137.833H108.933V145.011Z" fill="#D8B56D"/>
<path fill-rule="evenodd" clip-rule="evenodd" d="M112.377 145.011H110.874V137.833H112.377V145.011Z" fill="#D8B56D"/>
<path fill-rule="evenodd" clip-rule="evenodd" d="M115.831 145.011H114.328V137.833H115.831V145.011Z" fill="#D8B56D"/>
<path fill-rule="evenodd" clip-rule="evenodd" d="M119.284 145.011H117.78V137.833H119.284V145.011Z" fill="#D8B56D"/>
<path fill-rule="evenodd" clip-rule="evenodd" d="M190.791 158.995H152.652V151.816H190.791V158.995Z" fill="#ECCC8B"/>
<path fill-rule="evenodd" clip-rule="evenodd" d="M193.791 151.995H155.652V144.816H193.791V151.995Z" fill="#ECCC8B"/>
<path fill-rule="evenodd" clip-rule="evenodd" d="M127.791 137.995H89.6517V130.816H127.791V137.995Z" fill="#ECCC8B"/>
<path fill-rule="evenodd" clip-rule="evenodd" d="M122.791 130.995H84.6517V123.816H122.791V130.995Z" fill="#ECCC8B"/>
<path fill-rule="evenodd" clip-rule="evenodd" d="M190.791 152.632H152.652V151.816H190.791V152.632Z" fill="#C69C45"/>
<path fill-rule="evenodd" clip-rule="evenodd" d="M127.791 131.632H89.6517V130.816H127.791V131.632Z" fill="#C69C45"/>
<path fill-rule="evenodd" clip-rule="evenodd" d="M122.791 124.632H84.6517V123.816H122.791V124.632Z" fill="#C69C45"/>
<path fill-rule="evenodd" clip-rule="evenodd" d="M156.947 158.995H155.444V151.816H156.947V158.995Z" fill="#D8B56D"/>
<path fill-rule="evenodd" clip-rule="evenodd" d="M159.947 151.995H158.444V144.816H159.947V151.995Z" fill="#D8B56D"/>
<path fill-rule="evenodd" clip-rule="evenodd" d="M93.9473 137.995H92.4437V130.816H93.9473V137.995Z" fill="#D8B56D"/>
<path fill-rule="evenodd" clip-rule="evenodd" d="M88.9473 130.995H87.4437V123.816H88.9473V130.995Z" fill="#D8B56D"/>
<path fill-rule="evenodd" clip-rule="evenodd" d="M160.393 158.995H158.89V151.816H160.393V158.995Z" fill="#D8B56D"/>
<path fill-rule="evenodd" clip-rule="evenodd" d="M163.393 151.995H161.89V144.816H163.393V151.995Z" fill="#D8B56D"/>
<path fill-rule="evenodd" clip-rule="evenodd" d="M97.3931 137.995H95.8896V130.816H97.3931V137.995Z" fill="#D8B56D"/>
<path fill-rule="evenodd" clip-rule="evenodd" d="M92.3931 130.995H90.8896V123.816H92.3931V130.995Z" fill="#D8B56D"/>
<path fill-rule="evenodd" clip-rule="evenodd" d="M163.846 158.995H162.342V151.816H163.846V158.995Z" fill="#D8B56D"/>
<path fill-rule="evenodd" clip-rule="evenodd" d="M166.846 151.995H165.342V144.816H166.846V151.995Z" fill="#D8B56D"/>
<path fill-rule="evenodd" clip-rule="evenodd" d="M100.846 137.995H99.3422V130.816H100.846V137.995Z" fill="#D8B56D"/>
<path fill-rule="evenodd" clip-rule="evenodd" d="M95.8457 130.995H94.3422V123.816H95.8457V130.995Z" fill="#D8B56D"/>
<path fill-rule="evenodd" clip-rule="evenodd" d="M167.298 158.995H165.795V151.816H167.298V158.995Z" fill="#D8B56D"/>
<path fill-rule="evenodd" clip-rule="evenodd" d="M170.298 151.995H168.795V144.816H170.298V151.995Z" fill="#D8B56D"/>
<path fill-rule="evenodd" clip-rule="evenodd" d="M104.299 137.995H102.796V130.816H104.299V137.995Z" fill="#D8B56D"/>
<path fill-rule="evenodd" clip-rule="evenodd" d="M99.2988 130.995H97.7959V123.816H99.2988V130.995Z" fill="#D8B56D"/>
<path fill-rule="evenodd" clip-rule="evenodd" d="M170.744 158.995H169.241V151.816H170.744V158.995Z" fill="#D8B56D"/>
<path fill-rule="evenodd" clip-rule="evenodd" d="M173.744 151.995H172.241V144.816H173.744V151.995Z" fill="#D8B56D"/>
<path fill-rule="evenodd" clip-rule="evenodd" d="M107.744 137.995H106.241V130.816H107.744V137.995Z" fill="#D8B56D"/>
<path fill-rule="evenodd" clip-rule="evenodd" d="M102.744 130.995H101.241V123.816H102.744V130.995Z" fill="#D8B56D"/>
<path fill-rule="evenodd" clip-rule="evenodd" d="M174.197 158.995H172.694V151.816H174.197V158.995Z" fill="#D8B56D"/>
<path fill-rule="evenodd" clip-rule="evenodd" d="M177.197 151.995H175.694V144.816H177.197V151.995Z" fill="#D8B56D"/>
<path fill-rule="evenodd" clip-rule="evenodd" d="M111.197 137.995H109.694V130.816H111.197V137.995Z" fill="#D8B56D"/>
<path fill-rule="evenodd" clip-rule="evenodd" d="M106.197 130.995H104.694V123.816H106.197V130.995Z" fill="#D8B56D"/>
<path fill-rule="evenodd" clip-rule="evenodd" d="M177.65 158.995H176.147V151.816H177.65V158.995Z" fill="#D8B56D"/>
<path fill-rule="evenodd" clip-rule="evenodd" d="M180.65 151.995H179.147V144.816H180.65V151.995Z" fill="#D8B56D"/>
<path fill-rule="evenodd" clip-rule="evenodd" d="M114.65 137.995H113.147V130.816H114.65V137.995Z" fill="#D8B56D"/>
<path fill-rule="evenodd" clip-rule="evenodd" d="M109.65 130.995H108.147V123.816H109.65V130.995Z" fill="#D8B56D"/>
<path fill-rule="evenodd" clip-rule="evenodd" d="M181.095 158.995H179.592V151.816H181.095V158.995Z" fill="#D8B56D"/>
<path fill-rule="evenodd" clip-rule="evenodd" d="M184.095 151.995H182.592V144.816H184.095V151.995Z" fill="#D8B56D"/>
<path fill-rule="evenodd" clip-rule="evenodd" d="M118.095 137.995H116.592V130.816H118.095V137.995Z" fill="#D8B56D"/>
<path fill-rule="evenodd" clip-rule="evenodd" d="M113.095 130.995H111.592V123.816H113.095V130.995Z" fill="#D8B56D"/>
<path fill-rule="evenodd" clip-rule="evenodd" d="M184.548 158.995H183.045V151.816H184.548V158.995Z" fill="#D8B56D"/>
<path fill-rule="evenodd" clip-rule="evenodd" d="M187.548 151.995H186.045V144.816H187.548V151.995Z" fill="#D8B56D"/>
<path fill-rule="evenodd" clip-rule="evenodd" d="M121.548 137.995H120.045V130.816H121.548V137.995Z" fill="#D8B56D"/>
<path fill-rule="evenodd" clip-rule="evenodd" d="M116.548 130.995H115.045V123.816H116.548V130.995Z" fill="#D8B56D"/>
<path fill-rule="evenodd" clip-rule="evenodd" d="M188.001 158.995H186.499V151.816H188.001V158.995Z" fill="#D8B56D"/>
<path fill-rule="evenodd" clip-rule="evenodd" d="M191.001 151.995H189.499V144.816H191.001V151.995Z" fill="#D8B56D"/>
<path fill-rule="evenodd" clip-rule="evenodd" d="M125.001 137.995H123.499V130.816H125.001V137.995Z" fill="#D8B56D"/>
<path fill-rule="evenodd" clip-rule="evenodd" d="M120.001 130.995H118.499V123.816H120.001V130.995Z" fill="#D8B56D"/>
<path fill-rule="evenodd" clip-rule="evenodd" d="M122.072 165.985H83.9334V158.808H122.072V165.985Z" fill="#ECCC8B"/>
<path fill-rule="evenodd" clip-rule="evenodd" d="M122.072 159.623H83.9334V158.808H122.072V159.623Z" fill="#C69C45"/>
<path fill-rule="evenodd" clip-rule="evenodd" d="M88.2295 165.985H86.726V158.808H88.2295V165.985Z" fill="#D8B56D"/>
<path fill-rule="evenodd" clip-rule="evenodd" d="M91.6748 165.985H90.1713V158.808H91.6748V165.985Z" fill="#D8B56D"/>
<path fill-rule="evenodd" clip-rule="evenodd" d="M95.1279 165.985H93.6244V158.808H95.1279V165.985Z" fill="#D8B56D"/>
<path fill-rule="evenodd" clip-rule="evenodd" d="M98.5811 165.985H97.0775V158.808H98.5811V165.985Z" fill="#D8B56D"/>
<path fill-rule="evenodd" clip-rule="evenodd" d="M102.026 165.985H100.523V158.808H102.026V165.985Z" fill="#D8B56D"/>
<path fill-rule="evenodd" clip-rule="evenodd" d="M105.479 165.985H103.976V158.808H105.479V165.985Z" fill="#D8B56D"/>
<path fill-rule="evenodd" clip-rule="evenodd" d="M108.933 165.985H107.429V158.808H108.933V165.985Z" fill="#D8B56D"/>
<path fill-rule="evenodd" clip-rule="evenodd" d="M112.377 165.985H110.874V158.808H112.377V165.985Z" fill="#D8B56D"/>
<path fill-rule="evenodd" clip-rule="evenodd" d="M115.831 165.985H114.328V158.808H115.831V165.985Z" fill="#D8B56D"/>
<path fill-rule="evenodd" clip-rule="evenodd" d="M119.284 165.985H117.78V158.808H119.284V165.985Z" fill="#D8B56D"/>
<path fill-rule="evenodd" clip-rule="evenodd" d="M76.6821 132.916H29.464V124.029H76.6821V132.916Z" fill="#ECCC8B"/>
<path fill-rule="evenodd" clip-rule="evenodd" d="M76.6821 125.039H29.464V124.029H76.6821V125.039Z" fill="#C69C45"/>
<path fill-rule="evenodd" clip-rule="evenodd" d="M34.7822 132.916H32.9212V124.029H34.7822V132.916Z" fill="#D8B56D"/>
<path fill-rule="evenodd" clip-rule="evenodd" d="M39.0474 132.916H37.1863V124.029H39.0474V132.916Z" fill="#D8B56D"/>
<path fill-rule="evenodd" clip-rule="evenodd" d="M43.3228 132.916H41.4617V124.029H43.3228V132.916Z" fill="#D8B56D"/>
<path fill-rule="evenodd" clip-rule="evenodd" d="M47.5977 132.916H45.7366V124.029H47.5977V132.916Z" fill="#D8B56D"/>
<path fill-rule="evenodd" clip-rule="evenodd" d="M51.8633 132.916H50.0023V124.029H51.8633V132.916Z" fill="#D8B56D"/>
<path fill-rule="evenodd" clip-rule="evenodd" d="M56.1382 132.916H54.2772V124.029H56.1382V132.916Z" fill="#D8B56D"/>
<path fill-rule="evenodd" clip-rule="evenodd" d="M60.4131 132.916H58.5521V124.029H60.4131V132.916Z" fill="#D8B56D"/>
<path fill-rule="evenodd" clip-rule="evenodd" d="M64.6792 132.916H62.8182V124.029H64.6792V132.916Z" fill="#D8B56D"/>
<path fill-rule="evenodd" clip-rule="evenodd" d="M68.9541 132.916H67.0931V124.029H68.9541V132.916Z" fill="#D8B56D"/>
<path fill-rule="evenodd" clip-rule="evenodd" d="M73.229 132.916H71.368V124.029H73.229V132.916Z" fill="#D8B56D"/>
<path fill-rule="evenodd" clip-rule="evenodd" d="M82.9336 124.26H35.7154V115.374H82.9336V124.26Z" fill="#ECCC8B"/>
<path fill-rule="evenodd" clip-rule="evenodd" d="M82.9336 116.383H35.7154V115.373H82.9336V116.383Z" fill="#C69C45"/>
<path fill-rule="evenodd" clip-rule="evenodd" d="M41.0332 124.26H39.1722V115.374H41.0332V124.26Z" fill="#D8B56D"/>
<path fill-rule="evenodd" clip-rule="evenodd" d="M45.2993 124.26H43.4383V115.374H45.2993V124.26Z" fill="#D8B56D"/>
<path fill-rule="evenodd" clip-rule="evenodd" d="M49.5742 124.26H47.7132V115.374H49.5742V124.26Z" fill="#D8B56D"/>
<path fill-rule="evenodd" clip-rule="evenodd" d="M53.8491 124.26H51.9881V115.374H53.8491V124.26Z" fill="#D8B56D"/>
<path fill-rule="evenodd" clip-rule="evenodd" d="M58.1147 124.26H56.2537V115.374H58.1147V124.26Z" fill="#D8B56D"/>
<path fill-rule="evenodd" clip-rule="evenodd" d="M62.3901 124.26H60.5291V115.374H62.3901V124.26Z" fill="#D8B56D"/>
<path fill-rule="evenodd" clip-rule="evenodd" d="M66.6646 124.26H64.8035V115.374H66.6646V124.26Z" fill="#D8B56D"/>
<path fill-rule="evenodd" clip-rule="evenodd" d="M70.9307 124.26H69.0696V115.374H70.9307V124.26Z" fill="#D8B56D"/>
<path fill-rule="evenodd" clip-rule="evenodd" d="M75.2056 124.26H73.3445V115.374H75.2056V124.26Z" fill="#D8B56D"/>
<path fill-rule="evenodd" clip-rule="evenodd" d="M79.481 124.26H77.6199V115.374H79.481V124.26Z" fill="#D8B56D"/>
<path fill-rule="evenodd" clip-rule="evenodd" d="M78.125 115.604H30.9062V106.717H78.125V115.604Z" fill="#ECCC8B"/>
<path fill-rule="evenodd" clip-rule="evenodd" d="M78.125 107.726H30.9062V106.717H78.125V107.726Z" fill="#C69C45"/>
<path fill-rule="evenodd" clip-rule="evenodd" d="M36.2246 115.604H34.3636V106.717H36.2246V115.604Z" fill="#D8B56D"/>
<path fill-rule="evenodd" clip-rule="evenodd" d="M40.4907 115.604H38.6297V106.717H40.4907V115.604Z" fill="#D8B56D"/>
<path fill-rule="evenodd" clip-rule="evenodd" d="M44.7651 115.604H42.9041V106.717H44.7651V115.604Z" fill="#D8B56D"/>
<path fill-rule="evenodd" clip-rule="evenodd" d="M49.0405 115.604H47.1795V106.717H49.0405V115.604Z" fill="#D8B56D"/>
<path fill-rule="evenodd" clip-rule="evenodd" d="M53.3062 115.604H51.4451V106.717H53.3062V115.604Z" fill="#D8B56D"/>
<path fill-rule="evenodd" clip-rule="evenodd" d="M57.5815 115.604H55.7205V106.717H57.5815V115.604Z" fill="#D8B56D"/>
<path fill-rule="evenodd" clip-rule="evenodd" d="M61.856 115.604H59.9949V106.717H61.856V115.604Z" fill="#D8B56D"/>
<path fill-rule="evenodd" clip-rule="evenodd" d="M66.1216 115.604H64.2606V106.717H66.1216V115.604Z" fill="#D8B56D"/>
<path fill-rule="evenodd" clip-rule="evenodd" d="M70.396 115.604H68.535V106.717H70.396V115.604Z" fill="#D8B56D"/>
<path fill-rule="evenodd" clip-rule="evenodd" d="M74.6714 115.604H72.8104V106.717H74.6714V115.604Z" fill="#D8B56D"/>
<path fill-rule="evenodd" clip-rule="evenodd" d="M76.6821 158.884H29.464V149.997H76.6821V158.884Z" fill="#ECCC8B"/>
<path fill-rule="evenodd" clip-rule="evenodd" d="M76.6821 151.007H29.464V149.997H76.6821V151.007Z" fill="#C69C45"/>
<path fill-rule="evenodd" clip-rule="evenodd" d="M34.7822 158.884H32.9212V149.997H34.7822V158.884Z" fill="#D8B56D"/>
<path fill-rule="evenodd" clip-rule="evenodd" d="M39.0474 158.884H37.1863V149.997H39.0474V158.884Z" fill="#D8B56D"/>
<path fill-rule="evenodd" clip-rule="evenodd" d="M43.3228 158.884H41.4617V149.997H43.3228V158.884Z" fill="#D8B56D"/>
<path fill-rule="evenodd" clip-rule="evenodd" d="M47.5977 158.884H45.7366V149.997H47.5977V158.884Z" fill="#D8B56D"/>
<path fill-rule="evenodd" clip-rule="evenodd" d="M51.8633 158.884H50.0023V149.997H51.8633V158.884Z" fill="#D8B56D"/>
<path fill-rule="evenodd" clip-rule="evenodd" d="M56.1382 158.884H54.2772V149.997H56.1382V158.884Z" fill="#D8B56D"/>
<path fill-rule="evenodd" clip-rule="evenodd" d="M60.4131 158.884H58.5521V149.997H60.4131V158.884Z" fill="#D8B56D"/>
<path fill-rule="evenodd" clip-rule="evenodd" d="M64.6792 158.884H62.8182V149.997H64.6792V158.884Z" fill="#D8B56D"/>
<path fill-rule="evenodd" clip-rule="evenodd" d="M68.9541 158.884H67.0931V149.997H68.9541V158.884Z" fill="#D8B56D"/>
<path fill-rule="evenodd" clip-rule="evenodd" d="M73.229 158.884H71.368V149.997H73.229V158.884Z" fill="#D8B56D"/>
<path fill-rule="evenodd" clip-rule="evenodd" d="M82.9336 150.228H35.7154V141.341H82.9336V150.228Z" fill="#ECCC8B"/>
<path fill-rule="evenodd" clip-rule="evenodd" d="M82.9336 142.351H35.7154V141.341H82.9336V142.351Z" fill="#ECCC8B"/>
<path fill-rule="evenodd" clip-rule="evenodd" d="M41.0332 150.228H39.1722V141.341H41.0332V150.228Z" fill="#D8B56D"/>
<path fill-rule="evenodd" clip-rule="evenodd" d="M45.2993 150.228H43.4383V141.341H45.2993V150.228Z" fill="#D8B56D"/>
<path fill-rule="evenodd" clip-rule="evenodd" d="M49.5742 150.228H47.7132V141.341H49.5742V150.228Z" fill="#D8B56D"/>
<path fill-rule="evenodd" clip-rule="evenodd" d="M53.8491 150.228H51.9881V141.341H53.8491V150.228Z" fill="#D8B56D"/>
<path fill-rule="evenodd" clip-rule="evenodd" d="M58.1147 150.228H56.2537V141.341H58.1147V150.228Z" fill="#D8B56D"/>
<path fill-rule="evenodd" clip-rule="evenodd" d="M62.3901 150.228H60.5291V141.341H62.3901V150.228Z" fill="#D8B56D"/>
<path fill-rule="evenodd" clip-rule="evenodd" d="M66.6646 150.228H64.8035V141.341H66.6646V150.228Z" fill="#D8B56D"/>
<path fill-rule="evenodd" clip-rule="evenodd" d="M70.9307 150.228H69.0696V141.341H70.9307V150.228Z" fill="#D8B56D"/>
<path fill-rule="evenodd" clip-rule="evenodd" d="M75.2056 150.228H73.3445V141.341H75.2056V150.228Z" fill="#D8B56D"/>
<path fill-rule="evenodd" clip-rule="evenodd" d="M79.481 150.228H77.6199V141.341H79.481V150.228Z" fill="#D8B56D"/>
<path fill-rule="evenodd" clip-rule="evenodd" d="M78.125 141.572H30.9062V132.685H78.125V141.572Z" fill="#ECCC8B"/>
<path fill-rule="evenodd" clip-rule="evenodd" d="M78.125 133.694H30.9062V132.685H78.125V133.694Z" fill="#C69C45"/>
<path fill-rule="evenodd" clip-rule="evenodd" d="M36.2246 141.572H34.3636V132.685H36.2246V141.572Z" fill="#D8B56D"/>
<path fill-rule="evenodd" clip-rule="evenodd" d="M40.4907 141.572H38.6297V132.685H40.4907V141.572Z" fill="#D8B56D"/>
<path fill-rule="evenodd" clip-rule="evenodd" d="M44.7651 141.572H42.9041V132.685H44.7651V141.572Z" fill="#D8B56D"/>
<path fill-rule="evenodd" clip-rule="evenodd" d="M49.0405 141.572H47.1795V132.685H49.0405V141.572Z" fill="#D8B56D"/>
<path fill-rule="evenodd" clip-rule="evenodd" d="M53.3062 141.572H51.4451V132.685H53.3062V141.572Z" fill="#D8B56D"/>
<path fill-rule="evenodd" clip-rule="evenodd" d="M57.5815 141.572H55.7205V132.685H57.5815V141.572Z" fill="#D8B56D"/>
<path fill-rule="evenodd" clip-rule="evenodd" d="M61.856 141.572H59.9949V132.685H61.856V141.572Z" fill="#D8B56D"/>
<path fill-rule="evenodd" clip-rule="evenodd" d="M66.1216 141.572H64.2606V132.685H66.1216V141.572Z" fill="#D8B56D"/>
<path fill-rule="evenodd" clip-rule="evenodd" d="M70.396 141.572H68.535V132.685H70.396V141.572Z" fill="#D8B56D"/>
<path fill-rule="evenodd" clip-rule="evenodd" d="M74.6714 141.572H72.8104V132.685H74.6714V141.572Z" fill="#D8B56D"/>
<path fill-rule="evenodd" clip-rule="evenodd" d="M259.31 55.3831C256.713 57.5504 259.184 64.714 264.695 71.3049C270.207 77.8958 276.771 81.4809 279.367 79.29C279.966 78.7896 282.297 77.1843 282.39 76.2153C282.691 73.0207 278.323 68.499 274.092 63.434C270.154 58.7205 266.769 52.9828 263.528 52.9458C261.554 52.9482 260.046 54.7698 259.31 55.3831Z" fill="#C69C45"/>
<path fill-rule="evenodd" clip-rule="evenodd" d="M281.338 71.7168L280.951 72.1208L274.303 79.1697C274.498 79.2597 274.69 79.3379 274.882 79.4096L281.263 72.63L281.751 72.1413L281.338 71.7168Z" fill="#FFC843"/>
<path fill-rule="evenodd" clip-rule="evenodd" d="M276.976 69.3418L270.127 76.603C270.284 76.7324 270.438 76.8441 270.585 76.9593L277.402 69.7393L276.976 69.3418Z" fill="#FFC843"/>
<path fill-rule="evenodd" clip-rule="evenodd" d="M269.511 62.3047L263.027 69.1808L263.381 69.6582L269.937 62.7022L269.511 62.3047Z" fill="#FFC843"/>
<path fill-rule="evenodd" clip-rule="evenodd" d="M272.98 65.5752L266.085 72.8799C266.214 73.0275 266.355 73.1716 266.485 73.3133L273.411 65.9739L272.98 65.5752Z" fill="#FFC843"/>
<path fill-rule="evenodd" clip-rule="evenodd" d="M276.299 61.6037C270.793 55.0122 264.226 51.4248 261.632 53.5916C259.039 55.759 261.4 62.8591 266.907 69.4506C272.413 76.0426 278.98 79.6294 281.574 77.4627C284.167 75.2959 281.806 68.1958 276.299 61.6037Z" fill="#D8B56D"/>
<path fill-rule="evenodd" clip-rule="evenodd" d="M274.716 62.5007C270.358 57.2839 265.338 54.2963 263.504 55.8281C261.671 57.3598 263.717 62.8311 268.076 68.0485C272.434 73.2652 277.454 76.2528 279.288 74.7205C281.122 73.1893 279.075 67.718 274.716 62.5007Z" fill="#ECCC8B"/>
<path fill-rule="evenodd" clip-rule="evenodd" d="M73.0696 31.5252C73.9281 33.6108 78.9814 33.4674 84.2757 31.2847C89.5701 29.1015 93.1704 25.6405 92.3119 23.5549C92.1097 23.0733 91.5352 21.267 90.9601 21.0188C88.9868 20.1833 85.2312 22.059 81.1646 23.7377C77.3773 25.2906 73.0461 26.3049 72.374 28.3594C71.9701 29.6101 72.825 30.9307 73.0696 31.5252Z" fill="#83C8FF"/>
<path fill-rule="evenodd" clip-rule="evenodd" d="M72.3745 28.3593C72.0523 29.9945 72.7632 30.7789 73.0701 31.5251C73.3771 32.2707 74.2738 32.7599 75.5286 32.931C75.6855 32.9574 75.8437 32.9763 76.0025 32.9851C76.9644 33.0421 77.9299 32.991 78.8807 32.834C79.0166 32.834 79.1524 32.791 79.2923 32.7681C80.4084 32.5676 81.5079 32.2848 82.5822 31.9214L82.9709 31.7891C83.4019 31.6374 83.8446 31.4704 84.2874 31.2875C84.7302 31.1052 85.15 30.8994 85.5651 30.7172L85.9226 30.5461C86.9022 30.0621 87.8454 29.5088 88.7462 28.8914L89.0649 28.6656C89.8516 28.11 90.5719 27.4661 91.2129 26.7476C91.3099 26.6388 91.3993 26.5341 91.4845 26.4248C92.3201 25.3687 92.6499 24.3585 92.3201 23.5547C92.1025 23.0379 91.6362 21.2704 90.9683 21.0146C90.1468 20.7829 89.2772 20.7829 88.4551 21.0146L88.0665 21.1075C86.1249 21.6049 83.6776 22.7121 81.1804 23.7411C78.2357 24.9571 74.7518 26.219 73.0425 27.676C72.9408 27.7613 72.8437 27.8524 72.7514 27.9477C72.615 28.0747 72.4892 28.2123 72.3745 28.3593Z" fill="#C69C45"/>
<path fill-rule="evenodd" clip-rule="evenodd" d="M87.8721 20.7732L88.0509 21.1001L91.2049 26.7432C91.3019 26.635 91.3913 26.5297 91.4766 26.421L88.4472 21.0061L88.2102 20.5874L87.8721 20.7732Z" fill="#FFC843"/>
<path fill-rule="evenodd" clip-rule="evenodd" d="M85.4874 23.0773L88.7384 28.9032L89.0571 28.678L85.8255 22.8979L85.4874 23.0773Z" fill="#FFC843"/>
<path fill-rule="evenodd" clip-rule="evenodd" d="M79.5092 26.4173L82.5821 31.921L82.9702 31.7893L79.8626 26.2109L79.5092 26.4173Z" fill="#FFC843"/>
<path fill-rule="evenodd" clip-rule="evenodd" d="M82.2907 24.8635L85.557 30.7171L85.9146 30.5459L82.6288 24.6577L82.2907 24.8635Z" fill="#FFC843"/>
<path fill-rule="evenodd" clip-rule="evenodd" d="M75.8857 27.4816L78.8804 32.8348C79.0162 32.8348 79.1526 32.7913 79.292 32.7683L76.2279 27.2876L75.8857 27.4816Z" fill="#FFC843"/>
<path fill-rule="evenodd" clip-rule="evenodd" d="M72.3974 29.7071C73.2559 31.7934 78.2474 31.7116 83.5453 29.5243C88.8432 27.3381 92.44 23.8812 91.578 21.795C90.7154 19.7094 85.728 19.7952 80.4301 21.9773C75.1322 24.1605 71.5395 27.6103 72.3974 29.7071Z" fill="#D8B56D"/>
<path fill-rule="evenodd" clip-rule="evenodd" d="M74.1998 28.9497C74.8054 30.422 78.6974 30.2157 82.8887 28.4875C87.0799 26.7588 89.9852 24.1604 89.379 22.6887C88.7734 21.2169 84.8814 21.4221 80.6866 23.1508C76.4912 24.879 73.59 27.4779 74.1998 28.9497Z" fill="#ECCC8B"/>
<path fill-rule="evenodd" clip-rule="evenodd" d="M216.949 159.19H217.589V153.944V153.409H216.662H214.29V148.004V147.312H216.662H217.939H219.589H220.866H222.522H223.799H225.455H226.732H228.382H229.659H231.316H232.592H234.249H235.526H237.176H238.452H240.109H241.386H243.042H244.319H246.689V148.004V153.25H247.619H249.988V153.944V159.348H247.619H246.342H245.699V159.883V165.129H246.689V165.822V171.068H247.619H249.988V171.761V177.166H247.619H246.342H245.699V177.701V182.947H247.348V183.64V189.044H244.979H243.703H242.046H240.769H239.113H237.836H236.186H234.909H233.253H231.976H230.319H229.042H227.392H226.116H224.459H223.182H221.526H220.249H218.599H217.322H214.949V183.64V183.105H213.3V177.701V177.008H215.672H216.949H217.589V171.761V171.227H216.662H214.29V165.822V165.287H213.3V159.883V159.19H215.672H216.949Z" fill="#BBF0D3"/>
<path fill-rule="evenodd" clip-rule="evenodd" d="M183.981 78C183.981 77.6626 183.639 69.9061 183.981 67.5458C184.323 65.1847 179.88 60.4633 179.538 59.4511C179.276 58.6789 174.034 52.5978 171.569 49.7652C170.745 48.8185 169.272 48.732 168.371 49.6078C167.12 50.8242 166.092 52.9515 168.264 56.2009C172.017 61.813 176.462 72.2672 176.462 72.2672L179.88 78H183.981Z" fill="#FFB490"/>
<path fill-rule="evenodd" clip-rule="evenodd" d="M158.362 103.007C156.389 105.628 147.179 110.87 145.863 111.526C144.548 112.181 135.008 106.611 135.008 106.611C133.364 102.68 127.443 99.4032 127.443 99.4032C132.048 98.7476 132.706 92.1957 132.706 92.1957C134.351 91.8672 140.271 87.2812 140.271 87.2812C154.087 85.9701 159.35 95.7998 159.678 97.1094C160.007 98.4198 158.362 103.007 158.362 103.007ZM230.428 175.862C227.792 169.737 201.489 121.515 193.887 103.007C187.043 86.3417 187.802 80.2365 184.633 77.5794C184.015 77.0623 182.499 76.2349 181.561 75.9192C179.943 75.3757 177.212 73.602 174.481 67.9502C173.005 64.8994 171.374 62.1598 169.87 59.8797C167.204 55.8418 163.899 52.265 160.085 49.2793C157.158 46.9894 153.42 44.1362 150.797 42.3951C147.473 40.1884 144.299 37.2368 140.972 35.3458C137.777 33.5305 133.895 36.3352 134.76 39.8962C135.122 41.3875 136.049 42.9515 137.969 44.3603C137.969 44.3603 122.18 33.5487 119.22 34.8598C116.26 36.1702 116.26 42.0673 119.22 44.3603C122.098 46.5912 139.901 60.5883 146.025 63.1704C146.347 63.3067 146.627 63.5202 146.829 63.8025C148.038 65.4793 152.722 71.5838 159.522 75.5377C159.968 75.7966 160.313 76.2152 160.419 76.7179C160.611 77.6331 160.038 78.7414 155.073 77.4514C150.249 76.1986 144.354 75.2107 140.716 74.6603C138.612 74.3416 136.488 75.0805 135.042 76.6361C133.04 78.7906 128.008 83.5287 126.842 84.6476C125.309 86.1192 122.18 95.9845 122.18 96.9966C122.18 97.6144 121.785 98.1397 121.233 98.3373C120.802 98.491 120.416 98.7484 120.179 99.1382C119.406 100.406 118.55 103.356 122.605 107.987C122.757 108.161 122.88 108.359 122.961 108.575L124.686 113.157C125.402 115.059 126.719 116.677 128.437 117.767C128.466 117.785 128.493 117.804 128.52 117.823C129.33 118.42 133.637 126.229 172.451 141.3C179.715 144.121 182.756 193.267 187.824 195.986C188.968 196.6 230.766 176.648 230.428 175.862Z" fill="#FFDAB8"/>
<path d="M162 77C162 77 175.603 77.1697 178.626 79.8779C181.649 82.5852 184 88 184 88" stroke="#FFB38F" stroke-width="0.866" stroke-linecap="round" stroke-linejoin="round"/>
<path fill-rule="evenodd" clip-rule="evenodd" d="M139 45C139 45 154.484 53.2143 156.419 54.5292C158.355 55.8433 169 68 169 68C169 68 164.161 53.543 139 45Z" fill="#FFB490"/>
<path fill-rule="evenodd" clip-rule="evenodd" d="M122 99C122 99 123.277 100.831 128 100.028C128 100.028 124.096 102.791 122 99Z" fill="#FFB38F"/>
<path d="M154 107C154 107 164.027 100.273 166 97" stroke="#FFB38F" stroke-width="0.866" stroke-linecap="round" stroke-linejoin="round"/>
<path d="M140 88C140 88 138 84.9992 138 82" stroke="#FFB38F" stroke-width="0.866" stroke-linecap="round" stroke-linejoin="round"/>
<path d="M134 107C134 107 132 108.334 132 111" stroke="#FFB38F" stroke-width="0.866" stroke-linecap="round" stroke-linejoin="round"/>
<path fill-rule="evenodd" clip-rule="evenodd" d="M182.882 149.716C181.047 142.8 175.372 137.666 168.372 136.35C154.154 133.676 136 124 136 124C141.8 127.942 152.647 133.918 173.114 141.937C180.36 144.777 183.395 194.249 188.45 196.986C188.744 197.145 191.734 195.928 196 194.023C194.901 194.313 187.418 166.809 182.882 149.716Z" fill="#FFB490"/>
<path fill-rule="evenodd" clip-rule="evenodd" d="M237.781 171.539H284.999V162.653H237.781V171.539Z" fill="#ECCC8B"/>
<path fill-rule="evenodd" clip-rule="evenodd" d="M237.781 163.662H284.999V162.652H237.781V163.662Z" fill="#FFC54F"/>
<path fill-rule="evenodd" clip-rule="evenodd" d="M279.681 171.539H281.542V162.653H279.681V171.539Z" fill="#D8B56D"/>
<path fill-rule="evenodd" clip-rule="evenodd" d="M275.415 171.539H277.276V162.653H275.415V171.539Z" fill="#D8B56D"/>
<path fill-rule="evenodd" clip-rule="evenodd" d="M271.14 171.539H273.001V162.653H271.14V171.539Z" fill="#D8B56D"/>
<path fill-rule="evenodd" clip-rule="evenodd" d="M266.865 171.539H268.726V162.653H266.865V171.539Z" fill="#D8B56D"/>
<path fill-rule="evenodd" clip-rule="evenodd" d="M262.6 171.539H264.461V162.653H262.6V171.539Z" fill="#D8B56D"/>
<path fill-rule="evenodd" clip-rule="evenodd" d="M258.324 171.539H260.185V162.653H258.324V171.539Z" fill="#D8B56D"/>
<path fill-rule="evenodd" clip-rule="evenodd" d="M254.049 171.539H255.91V162.653H254.049V171.539Z" fill="#D8B56D"/>
<path fill-rule="evenodd" clip-rule="evenodd" d="M249.784 171.539H251.645V162.653H249.784V171.539Z" fill="#D8B56D"/>
<path fill-rule="evenodd" clip-rule="evenodd" d="M245.509 171.539H247.37V162.653H245.509V171.539Z" fill="#D8B56D"/>
<path fill-rule="evenodd" clip-rule="evenodd" d="M241.233 171.539H243.094V162.653H241.233V171.539Z" fill="#D8B56D"/>
<path fill-rule="evenodd" clip-rule="evenodd" d="M240.185 136.916H287.403V128.029H240.185V136.916Z" fill="#ECCC8B"/>
<path fill-rule="evenodd" clip-rule="evenodd" d="M240.185 129.039H287.403V128.029H240.185V129.039Z" fill="#C69C45"/>
<path fill-rule="evenodd" clip-rule="evenodd" d="M282.085 136.916H283.946V128.029H282.085V136.916Z" fill="#D8B56D"/>
<path fill-rule="evenodd" clip-rule="evenodd" d="M277.819 136.916H279.68V128.029H277.819V136.916Z" fill="#D8B56D"/>
<path fill-rule="evenodd" clip-rule="evenodd" d="M273.544 136.916H275.405V128.029H273.544V136.916Z" fill="#D8B56D"/>
<path fill-rule="evenodd" clip-rule="evenodd" d="M269.27 136.916H271.131V128.029H269.27V136.916Z" fill="#D8B56D"/>
<path fill-rule="evenodd" clip-rule="evenodd" d="M265.004 136.916H266.865V128.029H265.004V136.916Z" fill="#D8B56D"/>
<path fill-rule="evenodd" clip-rule="evenodd" d="M260.729 136.916H262.59V128.029H260.729V136.916Z" fill="#D8B56D"/>
<path fill-rule="evenodd" clip-rule="evenodd" d="M256.454 136.916H258.315V128.029H256.454V136.916Z" fill="#D8B56D"/>
<path fill-rule="evenodd" clip-rule="evenodd" d="M252.188 136.916H254.049V128.029H252.188V136.916Z" fill="#D8B56D"/>
<path fill-rule="evenodd" clip-rule="evenodd" d="M247.913 136.916H249.774V128.029H247.913V136.916Z" fill="#D8B56D"/>
<path fill-rule="evenodd" clip-rule="evenodd" d="M243.638 136.916H245.499V128.029H243.638V136.916Z" fill="#D8B56D"/>
<path fill-rule="evenodd" clip-rule="evenodd" d="M233.934 128.26H281.152V119.374H233.934V128.26Z" fill="#ECCC8B"/>
<path fill-rule="evenodd" clip-rule="evenodd" d="M233.934 120.383H281.152V119.373H233.934V120.383Z" fill="#C69C45"/>
<path fill-rule="evenodd" clip-rule="evenodd" d="M275.834 128.26H277.695V119.374H275.834V128.26Z" fill="#D8B56D"/>
<path fill-rule="evenodd" clip-rule="evenodd" d="M271.568 128.26H273.429V119.374H271.568V128.26Z" fill="#D8B56D"/>
<path fill-rule="evenodd" clip-rule="evenodd" d="M267.293 128.26H269.154V119.374H267.293V128.26Z" fill="#D8B56D"/>
<path fill-rule="evenodd" clip-rule="evenodd" d="M263.018 128.26H264.879V119.374H263.018V128.26Z" fill="#D8B56D"/>
<path fill-rule="evenodd" clip-rule="evenodd" d="M258.752 128.26H260.613V119.374H258.752V128.26Z" fill="#D8B56D"/>
<path fill-rule="evenodd" clip-rule="evenodd" d="M254.477 128.26H256.338V119.374H254.477V128.26Z" fill="#D8B56D"/>
<path fill-rule="evenodd" clip-rule="evenodd" d="M250.202 128.26H252.063V119.374H250.202V128.26Z" fill="#D8B56D"/>
<path fill-rule="evenodd" clip-rule="evenodd" d="M245.937 128.26H247.798V119.374H245.937V128.26Z" fill="#D8B56D"/>
<path fill-rule="evenodd" clip-rule="evenodd" d="M241.662 128.26H243.523V119.374H241.662V128.26Z" fill="#D8B56D"/>
<path fill-rule="evenodd" clip-rule="evenodd" d="M237.386 128.26H239.247V119.374H237.386V128.26Z" fill="#D8B56D"/>
<path fill-rule="evenodd" clip-rule="evenodd" d="M238.742 119.604H285.961V110.717H238.742V119.604Z" fill="#ECCC8B"/>
<path fill-rule="evenodd" clip-rule="evenodd" d="M238.742 111.726H285.961V110.717H238.742V111.726Z" fill="#C69C45"/>
<path fill-rule="evenodd" clip-rule="evenodd" d="M280.643 119.604H282.504V110.717H280.643V119.604Z" fill="#D8B56D"/>
<path fill-rule="evenodd" clip-rule="evenodd" d="M276.376 119.604H278.237V110.717H276.376V119.604Z" fill="#D8B56D"/>
<path fill-rule="evenodd" clip-rule="evenodd" d="M272.102 119.604H273.963V110.717H272.102V119.604Z" fill="#D8B56D"/>
<path fill-rule="evenodd" clip-rule="evenodd" d="M267.827 119.604H269.688V110.717H267.827V119.604Z" fill="#D8B56D"/>
<path fill-rule="evenodd" clip-rule="evenodd" d="M263.561 119.604H265.422V110.717H263.561V119.604Z" fill="#D8B56D"/>
<path fill-rule="evenodd" clip-rule="evenodd" d="M259.286 119.604H261.147V110.717H259.286V119.604Z" fill="#D8B56D"/>
<path fill-rule="evenodd" clip-rule="evenodd" d="M255.011 119.604H256.872V110.717H255.011V119.604Z" fill="#D8B56D"/>
<path fill-rule="evenodd" clip-rule="evenodd" d="M250.746 119.604H252.607V110.717H250.746V119.604Z" fill="#D8B56D"/>
<path fill-rule="evenodd" clip-rule="evenodd" d="M246.471 119.604H248.332V110.717H246.471V119.604Z" fill="#D8B56D"/>
<path fill-rule="evenodd" clip-rule="evenodd" d="M242.196 119.604H244.057V110.717H242.196V119.604Z" fill="#D8B56D"/>
<path fill-rule="evenodd" clip-rule="evenodd" d="M240.185 162.884H287.403V153.997H240.185V162.884Z" fill="#ECCC8B"/>
<path fill-rule="evenodd" clip-rule="evenodd" d="M240.185 155.007H287.403V153.997H240.185V155.007Z" fill="#C69C45"/>
<path fill-rule="evenodd" clip-rule="evenodd" d="M282.085 162.884H283.946V153.997H282.085V162.884Z" fill="#D8B56D"/>
<path fill-rule="evenodd" clip-rule="evenodd" d="M277.819 162.884H279.68V153.997H277.819V162.884Z" fill="#D8B56D"/>
<path fill-rule="evenodd" clip-rule="evenodd" d="M273.544 162.884H275.405V153.997H273.544V162.884Z" fill="#D8B56D"/>
<path fill-rule="evenodd" clip-rule="evenodd" d="M269.27 162.884H271.131V153.997H269.27V162.884Z" fill="#D8B56D"/>
<path fill-rule="evenodd" clip-rule="evenodd" d="M265.004 162.884H266.865V153.997H265.004V162.884Z" fill="#D8B56D"/>
<path fill-rule="evenodd" clip-rule="evenodd" d="M260.729 162.884H262.59V153.997H260.729V162.884Z" fill="#D8B56D"/>
<path fill-rule="evenodd" clip-rule="evenodd" d="M256.454 162.884H258.315V153.997H256.454V162.884Z" fill="#D8B56D"/>
<path fill-rule="evenodd" clip-rule="evenodd" d="M252.188 162.884H254.049V153.997H252.188V162.884Z" fill="#D8B56D"/>
<path fill-rule="evenodd" clip-rule="evenodd" d="M247.913 162.884H249.774V153.997H247.913V162.884Z" fill="#D8B56D"/>
<path fill-rule="evenodd" clip-rule="evenodd" d="M243.638 162.884H245.499V153.997H243.638V162.884Z" fill="#D8B56D"/>
<path fill-rule="evenodd" clip-rule="evenodd" d="M233.934 154.228H281.152V145.341H233.934V154.228Z" fill="#ECCC8B"/>
<path fill-rule="evenodd" clip-rule="evenodd" d="M233.934 146.351H281.152V145.341H233.934V146.351Z" fill="#ECCC8B"/>
<path fill-rule="evenodd" clip-rule="evenodd" d="M275.834 154.228H277.695V145.341H275.834V154.228Z" fill="#D8B56D"/>
<path fill-rule="evenodd" clip-rule="evenodd" d="M271.568 154.228H273.429V145.341H271.568V154.228Z" fill="#D8B56D"/>
<path fill-rule="evenodd" clip-rule="evenodd" d="M267.293 154.228H269.154V145.341H267.293V154.228Z" fill="#D8B56D"/>
<path fill-rule="evenodd" clip-rule="evenodd" d="M263.018 154.228H264.879V145.341H263.018V154.228Z" fill="#D8B56D"/>
<path fill-rule="evenodd" clip-rule="evenodd" d="M258.752 154.228H260.613V145.341H258.752V154.228Z" fill="#D8B56D"/>
<path fill-rule="evenodd" clip-rule="evenodd" d="M254.477 154.228H256.338V145.341H254.477V154.228Z" fill="#D8B56D"/>
<path fill-rule="evenodd" clip-rule="evenodd" d="M250.202 154.228H252.063V145.341H250.202V154.228Z" fill="#D8B56D"/>
<path fill-rule="evenodd" clip-rule="evenodd" d="M245.937 154.228H247.798V145.341H245.937V154.228Z" fill="#D8B56D"/>
<path fill-rule="evenodd" clip-rule="evenodd" d="M241.662 154.228H243.523V145.341H241.662V154.228Z" fill="#D8B56D"/>
<path fill-rule="evenodd" clip-rule="evenodd" d="M237.386 154.228H239.247V145.341H237.386V154.228Z" fill="#D8B56D"/>
<path fill-rule="evenodd" clip-rule="evenodd" d="M238.742 145.572H285.961V136.685H238.742V145.572Z" fill="#ECCC8B"/>
<path fill-rule="evenodd" clip-rule="evenodd" d="M238.742 137.694H285.961V136.685H238.742V137.694Z" fill="#C69C45"/>
<path fill-rule="evenodd" clip-rule="evenodd" d="M280.643 145.572H282.504V136.685H280.643V145.572Z" fill="#D8B56D"/>
<path fill-rule="evenodd" clip-rule="evenodd" d="M276.376 145.572H278.237V136.685H276.376V145.572Z" fill="#D8B56D"/>
<path fill-rule="evenodd" clip-rule="evenodd" d="M272.102 145.572H273.963V136.685H272.102V145.572Z" fill="#D8B56D"/>
<path fill-rule="evenodd" clip-rule="evenodd" d="M267.827 145.572H269.688V136.685H267.827V145.572Z" fill="#D8B56D"/>
<path fill-rule="evenodd" clip-rule="evenodd" d="M263.561 145.572H265.422V136.685H263.561V145.572Z" fill="#D8B56D"/>
<path fill-rule="evenodd" clip-rule="evenodd" d="M259.286 145.572H261.147V136.685H259.286V145.572Z" fill="#D8B56D"/>
<path fill-rule="evenodd" clip-rule="evenodd" d="M255.011 145.572H256.872V136.685H255.011V145.572Z" fill="#D8B56D"/>
<path fill-rule="evenodd" clip-rule="evenodd" d="M250.746 145.572H252.607V136.685H250.746V145.572Z" fill="#D8B56D"/>
<path fill-rule="evenodd" clip-rule="evenodd" d="M246.471 145.572H248.332V136.685H246.471V145.572Z" fill="#D8B56D"/>
<path fill-rule="evenodd" clip-rule="evenodd" d="M242.196 145.572H244.057V136.685H242.196V145.572Z" fill="#D8B56D"/>
</g>
<path fill-rule="evenodd" clip-rule="evenodd" d="M98.5003 56.2966L99.8103 58.6908L102.203 59.9997C102.599 60.2163 102.599 60.7837 102.203 61.0003L99.8103 62.3092L98.5003 64.7034C98.2848 65.0989 97.7163 65.0989 97.5009 64.7034L96.1908 62.3092L93.7966 61.0003C93.4011 60.7837 93.4011 60.2163 93.7966 59.9997L96.1908 58.6908L97.5009 56.2966C97.7163 55.9011 98.2848 55.9011 98.5003 56.2966Z" fill="#FFC54F"/>
<path fill-rule="evenodd" clip-rule="evenodd" d="M230.667 76.3954L232.414 79.5878L235.605 81.333C236.132 81.6218 236.132 82.3782 235.605 82.667L232.414 84.4122L230.667 87.6046C230.38 88.1318 229.622 88.1318 229.334 87.6046L227.588 84.4122L224.395 82.667C223.868 82.3782 223.868 81.6218 224.395 81.333L227.588 79.5878L229.334 76.3954C229.622 75.8682 230.38 75.8682 230.667 76.3954Z" fill="#FFD37B"/>
<path fill-rule="evenodd" clip-rule="evenodd" d="M178.667 16.3954L180.414 19.5878L183.605 21.333C184.132 21.6218 184.132 22.3782 183.605 22.667L180.414 24.4122L178.667 27.6046C178.38 28.1318 177.622 28.1318 177.334 27.6046L175.588 24.4122L172.395 22.667C171.868 22.3782 171.868 21.6218 172.395 21.333L175.588 19.5878L177.334 16.3954C177.622 15.8682 178.38 15.8682 178.667 16.3954Z" fill="#FFC54F"/>
<path fill-rule="evenodd" clip-rule="evenodd" d="M64.6003 70.2626C64.6003 81.2133 55.723 90.0896 44.7733 90.0896C33.8226 90.0896 24.9453 81.2133 24.9453 70.2626C24.9453 59.3119 33.8226 50.4355 44.7733 50.4355C55.723 50.4355 64.6003 59.3119 64.6003 70.2626Z" fill="#00AB4E"/>
<path fill-rule="evenodd" clip-rule="evenodd" d="M42.6374 78.3235C42.0298 78.3235 41.4212 78.1137 40.9251 77.6922L35.4762 73.0466C34.3639 72.1016 34.2307 70.4337 35.1785 69.3261C36.1235 68.2139 37.7886 68.0835 38.899 69.0285L42.472 72.0723L50.7502 63.5909C51.768 62.5467 53.4397 62.5287 54.4839 63.5437C55.5263 64.5614 55.5461 66.235 54.5293 67.2783L44.5274 77.5249C44.0133 78.0551 43.3254 78.3235 42.6374 78.3235Z" fill="#FDFEFF"/>
</svg>
