<svg width="120" height="120" viewBox="0 0 120 120" fill="none" xmlns="http://www.w3.org/2000/svg">
<path fill-rule="evenodd" clip-rule="evenodd" d="M115.5 60.75C115.5 90.9881 90.9873 115.5 60.75 115.5C30.5127 115.5 6 90.9881 6 60.75C6 30.5119 30.5127 6 60.75 6C90.9873 6 115.5 30.5119 115.5 60.75Z" fill="#EBFFE0"/>
<mask id="mask0_5567_159396" style="mask-type:alpha" maskUnits="userSpaceOnUse" x="99" y="49" width="4" height="13">
<path fill-rule="evenodd" clip-rule="evenodd" d="M102.078 49.9522L102.156 60.7854C102.161 61.2712 101.769 61.6711 101.281 61.6738L99.7295 61.6856L99.6358 49.0876L101.187 49.0757C101.189 49.0757 101.191 49.0757 101.193 49.0757C101.679 49.0757 102.073 49.4677 102.078 49.9522Z" fill="white"/>
</mask>
<g mask="url(#mask0_5567_159396)">
<path fill-rule="evenodd" clip-rule="evenodd" d="M107.597 67.1251H94.1974V43.6357H107.597V67.1251Z" fill="#1868AB"/>
</g>
<mask id="mask1_5567_159396" style="mask-type:alpha" maskUnits="userSpaceOnUse" x="25" y="23" width="76" height="140">
<path fill-rule="evenodd" clip-rule="evenodd" d="M26.0332 36.3007L25.1171 149.232C25.0604 156.34 30.7733 162.152 37.8815 162.213L86.6463 162.635H86.8667C93.8799 162.579 99.5757 156.903 99.6338 149.864L100.55 36.9475C100.593 29.8446 95.7569 24.0419 89.7509 23.9917L36.9918 23.5337C36.9654 23.5337 36.9377 23.5337 36.9113 23.5337C30.941 23.5337 26.0768 29.2321 26.0332 36.3007Z" fill="white"/>
</mask>
<g mask="url(#mask1_5567_159396)">
<path fill-rule="evenodd" clip-rule="evenodd" d="M105.937 93.4503L105.989 17.1021H19.5738C19.5738 17.1021 11.876 85.5249 18.0998 94.2266C24.3236 102.928 42.5489 115.56 61.7298 115.56C80.92 115.56 94.7165 107.107 105.937 93.4503Z" fill="#5297D1"/>
</g>
<mask id="mask2_5567_159396" style="mask-type:alpha" maskUnits="userSpaceOnUse" x="29" y="28" width="67" height="88">
<path fill-rule="evenodd" clip-rule="evenodd" d="M29.9022 105.214C36.995 110.471 46.3679 115.56 61.7301 115.662C77.0924 115.764 87.8865 110.471 94.9967 104.362V65.9844L95.8137 38.3256C95.8454 33.3981 92.688 29.3734 88.7663 29.3391L80.2787 29.2652C79.191 29.2546 78.2366 29.0896 77.966 30.4149L77.6651 31.888C77.3945 33.2133 76.4401 34.136 75.3537 34.1267L51.2189 33.9142C50.1312 33.905 49.1887 32.9651 48.9339 31.6372L48.6501 30.1575C48.4218 28.9576 47.6324 28.9629 46.6807 28.9668C46.5791 28.9668 46.4735 28.9668 46.3679 28.9668L37.8816 28.8916C37.8644 28.8916 37.8486 28.8916 37.8327 28.8916C33.9295 28.8916 30.7509 32.8463 30.7206 37.7554L29.9022 105.214Z" fill="white"/>
</mask>
<g mask="url(#mask2_5567_159396)">
<path fill-rule="evenodd" clip-rule="evenodd" d="M102.245 99.264L101.255 21.062H24.387C24.387 21.062 18.637 89.582 23.257 100.015C27.877 110.449 47.1644 115.662 63.0651 115.662C80.6796 114.837 95.4088 107.835 102.245 99.264Z" fill="#F8F8F8"/>
</g>
<mask id="mask3_5567_159396" style="mask-type:alpha" maskUnits="userSpaceOnUse" x="23" y="49" width="3" height="13">
<path fill-rule="evenodd" clip-rule="evenodd" d="M23.4422 49.9522L23.3643 60.7854C23.359 61.2712 23.7511 61.6711 24.2395 61.6738L25.7905 61.6856L25.8842 49.0876L24.3332 49.0757C24.3306 49.0757 24.3292 49.0757 24.3266 49.0757C23.8408 49.0757 23.4475 49.4677 23.4422 49.9522Z" fill="white"/>
</mask>
<g mask="url(#mask3_5567_159396)">
<path fill-rule="evenodd" clip-rule="evenodd" d="M17.9233 67.1251H31.3227V43.6357H17.9233V67.1251Z" fill="#1868AB"/>
</g>
<mask id="mask4_5567_159396" style="mask-type:alpha" maskUnits="userSpaceOnUse" x="23" y="63" width="3" height="14">
<path fill-rule="evenodd" clip-rule="evenodd" d="M23.3353 64.6188L23.2574 75.4534C23.2521 75.9405 23.6441 76.3391 24.1312 76.3431L25.6835 76.3549L25.7759 63.7555L24.2236 63.7437C24.2223 63.7437 24.2197 63.7437 24.217 63.7437C23.7339 63.7437 23.3392 64.1344 23.3353 64.6188Z" fill="white"/>
</mask>
<g mask="url(#mask4_5567_159396)">
<path fill-rule="evenodd" clip-rule="evenodd" d="M17.8164 81.7931H31.2144V58.3037H17.8164V81.7931Z" fill="#1868AB"/>
</g>
<mask id="mask5_5567_159396" style="mask-type:alpha" maskUnits="userSpaceOnUse" x="54" y="28" width="14" height="3">
<path fill-rule="evenodd" clip-rule="evenodd" d="M54.977 29.2399L54.9756 29.463C54.969 30.086 55.4746 30.5982 56.0976 30.6021L66.3607 30.6787C66.985 30.6826 67.4945 30.1784 67.4998 29.554V29.331C67.5077 28.7053 67.0035 28.1958 66.3778 28.1905L56.1174 28.1152C56.1148 28.1152 56.1122 28.1152 56.1108 28.1152C55.4891 28.1152 54.9809 28.6168 54.977 29.2399Z" fill="white"/>
</mask>
<g mask="url(#mask5_5567_159396)">
<path fill-rule="evenodd" clip-rule="evenodd" d="M49.5347 36.1182H72.9409V22.6753H49.5347V36.1182Z" fill="#1868AB"/>
</g>
<mask id="mask6_5567_159396" style="mask-type:alpha" maskUnits="userSpaceOnUse" x="69" y="27" width="5" height="4">
<path fill-rule="evenodd" clip-rule="evenodd" d="M69.9908 29.3349C69.9829 30.2153 70.6943 30.9374 71.5761 30.944C72.4605 30.9506 73.1799 30.2391 73.1878 29.356C73.1931 28.4729 72.4829 27.7509 71.5999 27.7456C71.5959 27.7456 71.5919 27.7456 71.5867 27.7456C70.7089 27.7456 69.9947 28.4531 69.9908 29.3349Z" fill="white"/>
</mask>
<g mask="url(#mask6_5567_159396)">
<path fill-rule="evenodd" clip-rule="evenodd" d="M64.5498 36.3835H78.6263V22.3057H64.5498V36.3835Z" fill="#1868AB"/>
</g>
<g clip-path="url(#clip0_5567_159396)">
<circle cx="18" cy="19.5" r="16.5" fill="#28D677"/>
<path d="M12.4 28V24.952H16.192V15.232L13.288 16.936L11.872 14.224L17.272 11.08H19.912V24.952H23.464V28H12.4Z" fill="white"/>
</g>
<path fill-rule="evenodd" clip-rule="evenodd" d="M30.2998 77.3149V59.3149H62.64C63.8337 59.3149 64.7998 60.3229 64.7998 61.5649V75.0649C64.7998 76.3069 63.8337 77.3149 62.64 77.3149H30.2998Z" fill="#C4E4FF"/>
<path fill-rule="evenodd" clip-rule="evenodd" d="M95.0145 77.3149H72.602C71.4759 77.3149 70.5645 76.3069 70.5645 75.0649V61.5649C70.5645 60.3229 71.4759 59.3149 72.602 59.3149H95.0145V77.3149Z" fill="#C4E4FF"/>
<path d="M58.021 58.7388H64.564C65.6694 58.7388 66.564 59.6333 66.564 60.7388V71.3063C66.564 72.4103 65.6693 73.3063 64.564 73.3063H12.064C10.96 73.3063 10.064 72.4102 10.064 71.3063V60.7388C10.064 59.6334 10.9599 58.7388 12.064 58.7388H53.6005H58.021Z" fill="white" stroke="#BBBDC0" stroke-width="0.5"/>
<path fill-rule="evenodd" clip-rule="evenodd" d="M80.6635 73.5563H75.064C73.8205 73.5563 72.814 72.5483 72.814 71.3063V60.7388C72.814 59.4953 73.8205 58.4888 75.064 58.4888H106.564C107.806 58.4888 108.814 59.4953 108.814 60.7388V71.3063C108.814 72.5483 107.806 73.5563 106.564 73.5563H84.4645" fill="#00AB4E"/>
<path fill-rule="evenodd" clip-rule="evenodd" d="M106.017 56.2635C105.396 56.2635 104.892 55.7595 104.892 55.1385V50.6895C104.892 50.0685 105.396 49.5645 106.017 49.5645C106.64 49.5645 107.142 50.0685 107.142 50.6895V55.1385C107.142 55.7595 106.64 56.2635 106.017 56.2635Z" fill="#FFC54F"/>
<path fill-rule="evenodd" clip-rule="evenodd" d="M111.139 60.9147C111.023 60.3042 111.424 59.7147 112.036 59.5992L116.407 58.7727C117.016 58.6572 117.605 59.0592 117.721 59.6697C117.836 60.2802 117.434 60.8682 116.824 60.9837L112.453 61.8117C111.842 61.9257 111.254 61.5237 111.139 60.9147Z" fill="#FFC54F"/>
<path fill-rule="evenodd" clip-rule="evenodd" d="M109.535 57.2025C109.075 56.7855 109.042 56.073 109.459 55.6125L113.725 50.9145C114.142 50.454 114.854 50.421 115.315 50.838C115.774 51.255 115.808 51.9675 115.39 52.4265L111.125 57.1245C110.707 57.585 109.996 57.6195 109.535 57.2025Z" fill="#FFC54F"/>
<path fill-rule="evenodd" clip-rule="evenodd" d="M28.1908 68.1208C27.8597 68.2538 27.47 68.3203 27.0216 68.3203C26.5993 68.3203 26.2031 68.2629 25.8329 68.1482C25.4627 68.0335 25.1499 67.8719 24.8944 67.6633L25.2307 66.9282C25.4966 67.1315 25.7768 67.2801 26.0714 67.374C26.366 67.4678 26.6853 67.5148 27.0294 67.5148C27.41 67.5148 27.7033 67.4483 27.9092 67.3153C28.1152 67.1824 28.2182 66.996 28.2182 66.7562C28.2182 66.5476 28.123 66.3886 27.9327 66.2791C27.7424 66.1696 27.4257 66.0653 26.9825 65.9663C26.5237 65.8672 26.1509 65.7525 25.8642 65.6222C25.5774 65.4918 25.361 65.325 25.2151 65.1217C25.0691 64.9183 24.9961 64.6603 24.9961 64.3474C24.9961 64.0242 25.0847 63.7348 25.262 63.4794C25.4392 63.2239 25.6895 63.0245 26.0128 62.8811C26.336 62.7377 26.7088 62.666 27.1311 62.666C27.5169 62.666 27.8845 62.7247 28.2338 62.842C28.5831 62.9593 28.8699 63.1196 29.0941 63.3229L28.7578 64.0581C28.2677 63.667 27.7255 63.4715 27.1311 63.4715C26.7766 63.4715 26.4963 63.5432 26.2904 63.6866C26.0844 63.83 25.9815 64.0294 25.9815 64.2849C25.9815 64.4986 26.0727 64.6629 26.2552 64.7776C26.4377 64.8923 26.7479 64.9991 27.1858 65.0982C27.6499 65.2025 28.0265 65.3185 28.3159 65.4462C28.6053 65.574 28.8269 65.7369 28.9807 65.935C29.1345 66.1331 29.2114 66.3834 29.2114 66.6858C29.2114 67.0142 29.124 67.3023 28.9494 67.5499C28.7747 67.7976 28.5218 67.9879 28.1908 68.1208ZM15.1031 68.2499V66.1071H16.503C17.0921 66.1071 17.5509 65.9585 17.8794 65.6613C18.2078 65.3641 18.3721 64.9496 18.3721 64.4178C18.3721 63.886 18.2078 63.4728 17.8794 63.1783C17.5509 62.8837 17.0921 62.7364 16.503 62.7364H14.0942V68.2499H15.1031ZM16.3778 65.3328H15.1031V63.5185H16.3778C16.7272 63.5185 16.9878 63.5928 17.1599 63.7413C17.3319 63.8899 17.418 64.118 17.418 64.4256C17.418 65.0304 17.0713 65.3328 16.3778 65.3328ZM23.389 67.5226C22.8911 68.0075 22.1911 68.2499 21.2891 68.2499H19.2558V62.7364H21.2891C22.1911 62.7364 22.8911 62.9775 23.389 63.4598C23.8869 63.9421 24.1358 64.6185 24.1358 65.4892C24.1358 66.3599 23.8869 67.0377 23.389 67.5226ZM21.2266 67.4287H20.2647V63.5576H21.2266C22.4935 63.5576 23.127 64.2015 23.127 65.4892C23.127 66.7822 22.4935 67.4287 21.2266 67.4287ZM33.8255 68.2499V67.4366H31.3777L32.7306 65.9976C33.0539 65.6535 33.2833 65.3419 33.4188 65.063C33.5544 64.7841 33.6222 64.4856 33.6222 64.1676C33.6222 63.7088 33.4605 63.3438 33.1373 63.0727C32.814 62.8016 32.3761 62.666 31.8234 62.666C31.4793 62.666 31.1365 62.7247 30.795 62.842C30.4535 62.9593 30.1733 63.1144 29.9543 63.3073L30.2906 64.0424C30.7911 63.6618 31.289 63.4715 31.7843 63.4715C32.0606 63.4715 32.2705 63.5354 32.4139 63.6631C32.5573 63.7909 32.6289 63.9799 32.6289 64.2301C32.6289 64.4282 32.5781 64.6277 32.4764 64.8284C32.3748 65.0291 32.2145 65.2494 31.9955 65.4892L30.1185 67.5069V68.2499H33.8255ZM38.0877 67.593C37.7436 68.0778 37.2457 68.3203 36.594 68.3203C35.9422 68.3203 35.4443 68.0791 35.1002 67.5969C34.7561 67.1146 34.5841 66.4121 34.5841 65.4892C34.5841 64.5768 34.7561 63.8808 35.1002 63.4011C35.4443 62.9215 35.9422 62.6817 36.594 62.6817C37.2457 62.6817 37.7436 62.9215 38.0877 63.4011C38.4318 63.8808 38.6038 64.5768 38.6038 65.4892C38.6038 66.4068 38.4318 67.1081 38.0877 67.593ZM36.594 67.5304C36.2394 67.5304 35.9814 67.3675 35.8197 67.0416C35.6581 66.7158 35.5773 66.1983 35.5773 65.4892C35.5773 64.7854 35.6581 64.2731 35.8197 63.9525C35.9814 63.6319 36.2394 63.4715 36.594 63.4715C36.9485 63.4715 37.2066 63.6319 37.3682 63.9525C37.5298 64.2731 37.6106 64.7854 37.6106 65.4892C37.6106 66.1983 37.5298 66.7158 37.3682 67.0416C37.2066 67.3675 36.9485 67.5304 36.594 67.5304ZM43.218 67.4366V68.2499H39.511V67.5069L41.388 65.4892C41.6069 65.2494 41.7673 65.0291 41.8689 64.8284C41.9706 64.6277 42.0214 64.4282 42.0214 64.2301C42.0214 63.9799 41.9497 63.7909 41.8064 63.6631C41.663 63.5354 41.4531 63.4715 41.1768 63.4715C40.6815 63.4715 40.1836 63.6618 39.6831 64.0424L39.3468 63.3073C39.5658 63.1144 39.846 62.9593 40.1875 62.842C40.529 62.7247 40.8718 62.666 41.2159 62.666C41.7686 62.666 42.2065 62.8016 42.5298 63.0727C42.853 63.3438 43.0146 63.7088 43.0146 64.1676C43.0146 64.4856 42.9469 64.7841 42.8113 65.063C42.6757 65.3419 42.4463 65.6535 42.1231 65.9976L40.7701 67.4366H43.218ZM45.9864 68.3203C46.6382 68.3203 47.1361 68.0778 47.4802 67.593C47.8243 67.1081 47.9963 66.4068 47.9963 65.4892C47.9963 64.5768 47.8243 63.8808 47.4802 63.4011C47.1361 62.9215 46.6382 62.6817 45.9864 62.6817C45.3347 62.6817 44.8368 62.9215 44.4927 63.4011C44.1486 63.8808 43.9766 64.5768 43.9766 65.4892C43.9766 66.4121 44.1486 67.1146 44.4927 67.5969C44.8368 68.0791 45.3347 68.3203 45.9864 68.3203ZM45.2122 67.0416C45.3738 67.3675 45.6319 67.5304 45.9864 67.5304C46.341 67.5304 46.5991 67.3675 46.7607 67.0416C46.9223 66.7158 47.0031 66.1983 47.0031 65.4892C47.0031 64.7854 46.9223 64.2731 46.7607 63.9525C46.5991 63.6319 46.341 63.4715 45.9864 63.4715C45.6319 63.4715 45.3738 63.6319 45.2122 63.9525C45.0506 64.2731 44.9698 64.7854 44.9698 65.4892C44.9698 66.1983 45.0506 66.7158 45.2122 67.0416Z" fill="#58585B"/>
<path fill-rule="evenodd" clip-rule="evenodd" d="M92.1059 63.6672V62.5645H90.839V63.6672H92.1059ZM79.1082 68.25C79.7077 68.25 80.1783 68.1144 80.5198 67.8433C80.8613 67.5722 81.032 67.2046 81.032 66.7406C81.032 66.4017 80.9447 66.1163 80.77 65.8843C80.5954 65.6523 80.349 65.4893 80.031 65.3955C80.3021 65.2964 80.5146 65.1387 80.6684 64.9223C80.8222 64.706 80.8991 64.4544 80.8991 64.1677C80.8991 63.7245 80.7309 63.3752 80.3946 63.1197C80.0584 62.8642 79.6035 62.7365 79.03 62.7365H76.4883V68.25H79.1082ZM78.8266 64.981H77.677V63.6672H78.8266C79.1394 63.6672 79.3702 63.7206 79.5187 63.8275C79.6673 63.9344 79.7416 64.1025 79.7416 64.3319C79.7416 64.5509 79.6673 64.7138 79.5187 64.8207C79.3702 64.9276 79.1394 64.981 78.8266 64.981ZM77.677 67.3193H78.9674C79.2906 67.3193 79.5253 67.2646 79.6712 67.1551C79.8172 67.0456 79.8902 66.8684 79.8902 66.6233C79.8902 66.3783 79.8172 66.1984 79.6712 66.0837C79.5253 65.969 79.2906 65.9116 78.9674 65.9116H77.677V67.3193ZM83.0184 68.3126C83.2635 68.3126 83.4772 68.2565 83.6597 68.1444C83.8422 68.0323 83.9725 67.8772 84.0508 67.6791V68.25H85.1691V65.982C85.1691 65.4137 85.0322 64.994 84.7585 64.7229C84.4848 64.4518 84.0612 64.3163 83.4877 64.3163C83.2113 64.3163 82.9129 64.3619 82.5922 64.4531C82.2716 64.5444 82.0018 64.6578 81.7828 64.7933L82.0956 65.5832C82.3042 65.4633 82.5231 65.3694 82.7525 65.3016C82.9819 65.2339 83.1905 65.2 83.3782 65.2C83.6232 65.2 83.7953 65.2469 83.8943 65.3407C83.9934 65.4346 84.0429 65.5962 84.0429 65.8256V65.9664H83.8396C83.2869 65.9664 82.8516 66.0029 82.5336 66.0759C82.2155 66.1489 81.9848 66.2662 81.8414 66.4278C81.6981 66.5894 81.6264 66.811 81.6264 67.0926C81.6264 67.322 81.6876 67.5305 81.8102 67.7182C81.9327 67.9059 82.0995 68.0519 82.3107 68.1561C82.5218 68.2604 82.7578 68.3126 83.0184 68.3126ZM82.9129 67.3585C83.0093 67.4523 83.1305 67.4992 83.2765 67.4992C83.5059 67.4992 83.691 67.4223 83.8318 67.2685C83.9725 67.1147 84.0429 66.9153 84.0429 66.6702V66.5373H83.91C83.4877 66.5373 83.1918 66.5712 83.0224 66.639C82.8529 66.7067 82.7682 66.8293 82.7682 67.0065C82.7682 67.1473 82.8164 67.2646 82.9129 67.3585ZM87.8672 69.7203C88.5606 69.7203 89.0846 69.5612 89.4391 69.2432C89.7936 68.9252 89.9709 68.4559 89.9709 67.8355V64.4101H88.7978V64.9497C88.6831 64.7516 88.5176 64.5965 88.3012 64.4844C88.0849 64.3723 87.8437 64.3163 87.5778 64.3163C87.2441 64.3163 86.9483 64.3958 86.6902 64.5548C86.4321 64.7138 86.2301 64.938 86.0841 65.2274C85.9381 65.5167 85.8651 65.8517 85.8651 66.2323C85.8651 66.6129 85.9381 66.9479 86.0841 67.2372C86.2301 67.5266 86.4321 67.7495 86.6902 67.9059C86.9483 68.0623 87.2441 68.1405 87.5778 68.1405C87.8489 68.1405 88.094 68.0832 88.313 67.9685C88.5319 67.8538 88.6962 67.6973 88.8056 67.4992V67.9215C88.8056 68.5315 88.4824 68.8365 87.8359 68.8365C87.3458 68.8365 86.8531 68.701 86.3578 68.4299L86.045 69.2432C86.2848 69.3944 86.5625 69.5117 86.8779 69.5951C87.1933 69.6785 87.5231 69.7203 87.8672 69.7203ZM87.2728 66.9713C87.4292 67.1512 87.6456 67.2411 87.9219 67.2411C88.1983 67.2411 88.4133 67.1525 88.5671 66.9752C88.7209 66.798 88.7978 66.5503 88.7978 66.2323C88.7978 65.9143 88.7209 65.6653 88.5671 65.4854C88.4133 65.3056 88.1983 65.2156 87.9219 65.2156C87.6456 65.2156 87.4292 65.3056 87.2728 65.4854C87.1164 65.6653 87.0382 65.9143 87.0382 66.2323C87.0382 66.5451 87.1164 66.7915 87.2728 66.9713ZM92.059 64.4101V68.25H90.8781V64.4101H92.059ZM94.1471 68.25V66.5373L95.6173 68.25H97.0641L95.3593 66.2479L96.9703 64.4179H95.5626L94.1471 66.0524V62.7365H92.9662V68.25H94.1471ZM99.207 68.1444C99.0245 68.2565 98.8107 68.3126 98.5657 68.3126C98.305 68.3126 98.0691 68.2604 97.8579 68.1561C97.6468 68.0519 97.4799 67.9059 97.3574 67.7182C97.2349 67.5305 97.1736 67.322 97.1736 67.0926C97.1736 66.811 97.2453 66.5894 97.3887 66.4278C97.5321 66.2662 97.7628 66.1489 98.0808 66.0759C98.3989 66.0029 98.8342 65.9664 99.3869 65.9664H99.5902V65.8256C99.5902 65.5962 99.5407 65.4346 99.4416 65.3407C99.3425 65.2469 99.1705 65.2 98.9254 65.2C98.7377 65.2 98.5292 65.2339 98.2998 65.3016C98.0704 65.3694 97.8514 65.4633 97.6429 65.5832L97.33 64.7933C97.549 64.6578 97.8188 64.5444 98.1395 64.4531C98.4601 64.3619 98.7586 64.3163 99.0349 64.3163C99.6084 64.3163 100.032 64.4518 100.306 64.7229C100.579 64.994 100.716 65.4137 100.716 65.982V68.25H99.598V67.6791C99.5198 67.8772 99.3895 68.0323 99.207 68.1444ZM98.8238 67.4992C98.6778 67.4992 98.5566 67.4523 98.4601 67.3585C98.3637 67.2646 98.3154 67.1473 98.3154 67.0065C98.3154 66.8293 98.4002 66.7067 98.5696 66.639C98.739 66.5712 99.0349 66.5373 99.4572 66.5373H99.5902V66.6702C99.5902 66.9153 99.5198 67.1147 99.379 67.2685C99.2383 67.4223 99.0532 67.4992 98.8238 67.4992ZM102.781 66.0993V68.25H101.6V64.4101H102.75V64.9575C102.885 64.749 103.061 64.59 103.278 64.4805C103.494 64.371 103.738 64.3163 104.009 64.3163C104.468 64.3163 104.809 64.4505 105.033 64.719C105.257 64.9875 105.37 65.3929 105.37 65.9351V68.25H104.189V65.9899C104.189 65.7292 104.14 65.5389 104.044 65.419C103.948 65.299 103.798 65.2391 103.594 65.2391C103.349 65.2391 103.152 65.3173 103.004 65.4737C102.855 65.6301 102.781 65.8387 102.781 66.0993Z" fill="white"/>
<defs>
<clipPath id="clip0_5567_159396">
<rect width="33" height="33" fill="white" transform="translate(1.5 3)"/>
</clipPath>
</defs>
</svg>
