<svg width="329" height="165" viewBox="0 0 329 165" fill="none" xmlns="http://www.w3.org/2000/svg">
<path d="M24.0952 161.836C34.5467 163.994 265.687 166.148 302.473 161.836C313.363 160.56 322.08 148.643 323.352 146.575C331.304 133.643 328.322 53.8904 326.334 26.9465C325.264 12.4456 310.427 5.93039 303.467 3.77506C290.157 -0.346923 54.1261 -0.51236 23.1002 4.85319C9.21918 7.25295 4.18723 18.5733 3.18823 24.8655C0.857573 39.5327 -0.520044 129.746 3.21621 141.898C6.19921 151.598 13.6557 159.681 24.0952 161.836Z" fill="#E6F6ED"/>
<mask id="mask0_5567_147456" style="mask-type:alpha" maskUnits="userSpaceOnUse" x="0" y="0" width="329" height="165">
<path fill-rule="evenodd" clip-rule="evenodd" d="M24.0952 161.836C34.5467 163.994 265.687 166.148 302.473 161.836C313.363 160.56 322.08 148.643 323.352 146.575C331.304 133.643 328.322 53.8904 326.334 26.9465C325.264 12.4456 310.427 5.93039 303.467 3.77506C290.157 -0.346923 54.1261 -0.51236 23.1002 4.85319C9.21918 7.25295 4.18723 18.5733 3.18823 24.8655C0.857573 39.5327 -0.520044 129.746 3.21621 141.898C6.19921 151.598 13.6557 159.681 24.0952 161.836Z" fill="white"/>
</mask>
<g mask="url(#mask0_5567_147456)">
<path fill-rule="evenodd" clip-rule="evenodd" d="M-215.883 173.403C-215.883 173.403 -115.79 97.3333 12.7391 121.176C12.7391 121.176 76.4349 131.394 124.775 169.429L-215.883 173.403Z" fill="#BBF0D3"/>
<mask id="mask1_5567_147456" style="mask-type:alpha" maskUnits="userSpaceOnUse" x="158" y="116" width="198" height="53">
<path fill-rule="evenodd" clip-rule="evenodd" d="M158.041 116.739H355.916V168.418H158.041V116.739Z" fill="white"/>
</mask>
<g mask="url(#mask1_5567_147456)">
<path d="M151.748 180.098C151.748 180.098 209.889 110.952 284.546 132.625C284.546 132.625 321.544 141.913 349.623 176.486L151.748 180.098Z" fill="#BBF0D3"/>
</g>
<path fill-rule="evenodd" clip-rule="evenodd" d="M-85.014 183.277C-85.014 183.277 15.8249 107.208 145.311 131.05C145.311 131.05 209.481 141.269 258.182 179.303L-85.014 183.277Z" fill="#84D7CC"/>
<path opacity="0.498605" fill-rule="evenodd" clip-rule="evenodd" d="M143.737 140.117C143.797 140.579 143.737 141.029 143.579 141.443C154.035 140.668 176.615 148.039 159.567 152.483C141.713 157.136 131.985 151.871 130.183 149.932C129.002 148.66 130.388 146.184 134.196 144.166L86.3174 149.365C84.4069 149.557 40.0825 144.93 39.8642 143.245C39.6462 141.561 49.442 136.092 51.3525 135.899L129.274 136.897C131.185 136.705 143.519 138.433 143.737 140.117Z" fill="#47A99C"/>
<path fill-rule="evenodd" clip-rule="evenodd" d="M-3.09644 39.8984C-3.09644 41.5465 -2.83363 43.1405 -2.36864 44.6349V44.6349H20.7403H29.9578H47.8524V44.6336C46.1539 38.9851 40.7336 34.851 34.2862 34.851V34.851C32.8088 34.851 31.3935 35.0628 30.061 35.4702V35.4702C28.0391 28.676 21.5268 23.689 13.8062 23.689V23.689C4.46513 23.689 -3.09644 30.9474 -3.09644 39.8984V39.8984Z" fill="#BBF0D3"/>
<path fill-rule="evenodd" clip-rule="evenodd" d="M330.342 70.9624C330.342 72.6105 330.079 74.2045 329.614 75.6989V75.6989H306.505H297.288H279.393V75.6975C281.091 70.049 286.512 65.9149 292.959 65.9149V65.9149C294.437 65.9149 295.852 66.1268 297.184 66.5342V66.5342C299.206 59.7399 305.719 54.7529 313.439 54.7529V54.7529C322.78 54.7529 330.342 62.0113 330.342 70.9624V70.9624Z" fill="#BBF0D3"/>
</g>
<path d="M298.6 124.464C298.6 137.654 287.866 148.347 274.625 148.347C261.383 148.347 250.649 137.654 250.649 124.464C250.649 111.273 261.383 100.58 274.625 100.58C287.281 100.58 297.646 110.349 298.538 122.73C298.58 123.302 298.6 123.88 298.6 124.464Z" fill="#84D7CC"/>
<path d="M298.601 121.382C298.601 134.572 287.866 145.265 274.625 145.265C261.384 145.265 250.649 134.572 250.649 121.382C250.649 108.192 261.384 97.4985 274.625 97.4985C287.281 97.4985 297.646 107.267 298.539 119.648C298.58 120.221 298.601 120.799 298.601 121.382Z" fill="white"/>
<path fill-rule="evenodd" clip-rule="evenodd" d="M287.463 111.887L275.203 107.357C274.98 107.274 274.734 107.274 274.511 107.357L262.252 111.887C261.862 112.032 261.604 112.402 261.604 112.818V123.406C261.604 135.449 274.474 138.987 274.604 139.022C274.687 139.044 274.773 139.055 274.858 139.055C274.943 139.055 275.029 139.044 275.112 139.022C275.243 138.987 288.112 135.449 288.112 123.406V112.818C288.112 112.402 287.853 112.032 287.463 111.887Z" fill="#A3C7E6"/>
<path fill-rule="evenodd" clip-rule="evenodd" d="M286.284 112.943L275.17 108.836C274.969 108.76 274.746 108.76 274.543 108.836L263.431 112.943C263.077 113.074 262.844 113.409 262.844 113.787V123.384C262.844 134.302 274.51 137.508 274.627 137.54C274.703 137.56 274.781 137.57 274.858 137.57C274.935 137.57 275.013 137.56 275.088 137.54C275.207 137.508 286.872 134.302 286.872 123.384V113.787C286.872 113.409 286.638 113.074 286.284 112.943Z" fill="#5297D1"/>
<path fill-rule="evenodd" clip-rule="evenodd" d="M273.494 129.463C273.033 129.463 272.569 129.303 272.192 128.983L268.047 125.45C267.201 124.731 267.1 123.463 267.82 122.621C268.539 121.775 269.806 121.675 270.65 122.394L273.368 124.709L279.665 118.26C280.439 117.465 281.711 117.451 282.505 118.224C283.298 118.997 283.313 120.27 282.54 121.063L274.932 128.855C274.54 129.259 274.017 129.463 273.494 129.463Z" fill="#0F5895"/>
<path fill-rule="evenodd" clip-rule="evenodd" d="M273.165 128.151C272.704 128.151 272.24 127.991 271.863 127.671L267.718 124.138C266.872 123.419 266.771 122.151 267.491 121.309C268.21 120.463 269.477 120.363 270.321 121.082L273.04 123.397L279.336 116.948C280.11 116.153 281.382 116.139 282.176 116.912C282.969 117.685 282.984 118.958 282.211 119.751L274.603 127.543C274.212 127.947 273.688 128.151 273.165 128.151Z" fill="#ECF5FF"/>
<path fill-rule="evenodd" clip-rule="evenodd" d="M263.747 54.9414C263.747 77.71 245.16 96.1684 222.233 96.1684C199.306 96.1684 180.719 77.71 180.719 54.9414C180.719 32.1727 199.306 13.7144 222.233 13.7144C244.148 13.7144 262.095 30.577 263.64 51.9488C263.711 52.9366 263.747 53.9341 263.747 54.9414Z" fill="#99DDCF"/>
<path fill-rule="evenodd" clip-rule="evenodd" d="M260.75 51.9492C260.75 74.7178 242.163 93.1762 219.236 93.1762C196.309 93.1762 177.722 74.7178 177.722 51.9492C177.722 29.1805 196.309 10.7222 219.236 10.7222C241.15 10.7222 259.097 27.5848 260.642 48.9566C260.714 49.9444 260.75 50.9419 260.75 51.9492Z" fill="white"/>
<path d="M164.833 78.2858L184.4 72.748L190.9 80.248H165.105C163.944 80.248 163.716 78.602 164.833 78.2858Z" fill="white"/>
<mask id="mask2_5567_147456" style="mask-type:alpha" maskUnits="userSpaceOnUse" x="246" y="46" width="3" height="11">
<path d="M248.213 47.6114L248.269 55.3794C248.273 55.7277 247.993 56.0145 247.645 56.0164L246.54 56.0249L246.473 46.9914L247.578 46.9829C247.58 46.9829 247.581 46.9829 247.583 46.9829C247.929 46.9829 248.21 47.264 248.213 47.6114Z" fill="white"/>
</mask>
<g mask="url(#mask2_5567_147456)">
<path d="M248.213 47.6114L248.269 55.3794C248.273 55.7277 247.993 56.0145 247.645 56.0164L246.54 56.0249L246.473 46.9914L247.578 46.9829C247.58 46.9829 247.581 46.9829 247.583 46.9829C247.929 46.9829 248.21 47.264 248.213 47.6114Z" fill="#407972"/>
</g>
<mask id="mask3_5567_147456" style="mask-type:alpha" maskUnits="userSpaceOnUse" x="193" y="28" width="55" height="101">
<path d="M194.014 37.8226L193.361 118.8C193.32 123.897 197.392 128.064 202.459 128.108L237.215 128.411H237.372C242.371 128.37 246.43 124.3 246.472 119.253L247.125 38.2864C247.155 33.1932 243.708 29.0324 239.428 28.9964L201.824 28.668C201.806 28.668 201.786 28.668 201.767 28.668C197.512 28.668 194.045 32.754 194.014 37.8226Z" fill="white"/>
</mask>
<g mask="url(#mask3_5567_147456)">
<path fill-rule="evenodd" clip-rule="evenodd" d="M250.964 78.8017L251.001 24.0562H189.41C185.753 56.7646 185.402 75.1986 188.36 79.3583C192.796 85.5979 205.785 94.6554 219.456 94.6554C233.134 94.6554 242.967 88.5941 250.964 78.8017Z" fill="#004D43"/>
</g>
<mask id="mask4_5567_147456" style="mask-type:alpha" maskUnits="userSpaceOnUse" x="196" y="32" width="48" height="63">
<path d="M196.771 87.2368C201.827 91.0063 208.507 94.6552 219.457 94.7284C230.406 94.8015 238.099 91.0063 243.167 86.626V59.1071L243.75 39.2744C243.772 35.7411 241.521 32.8552 238.726 32.8306L232.677 32.7776C231.902 32.7701 231.221 32.6517 231.028 33.602L230.814 34.6583C230.621 35.6086 229.941 36.2702 229.167 36.2636L211.965 36.1112C211.19 36.1046 210.518 35.4307 210.336 34.4785L210.134 33.4175C209.971 32.5571 209.409 32.5609 208.73 32.5637C208.658 32.5637 208.583 32.5637 208.507 32.5637L202.459 32.5098C202.447 32.5098 202.435 32.5098 202.424 32.5098C199.642 32.5098 197.377 35.3455 197.355 38.8656L196.771 87.2368Z" fill="white"/>
</mask>
<g mask="url(#mask4_5567_147456)">
<path fill-rule="evenodd" clip-rule="evenodd" d="M248.333 82.9703L247.627 26.8955H192.841C190.109 59.6503 189.841 78.5215 192.036 83.509C195.329 90.9902 209.075 94.7284 220.408 94.7284C232.963 94.1365 243.461 89.1162 248.333 82.9703Z" fill="#E6F6F3"/>
<path d="M239.728 79.3887H200.768C199.664 79.3887 198.77 80.2818 198.77 81.3835V98.3398C198.77 99.4415 199.664 100.335 200.768 100.335H239.728C240.832 100.335 241.726 99.4415 241.726 98.3398V81.3835C241.726 80.2818 240.832 79.3887 239.728 79.3887Z" fill="#99DCAB"/>
</g>
<mask id="mask5_5567_147456" style="mask-type:alpha" maskUnits="userSpaceOnUse" x="192" y="46" width="2" height="11">
<path d="M192.167 47.6114L192.112 55.3794C192.108 55.7277 192.387 56.0145 192.735 56.0164L193.841 56.0249L193.908 46.9914L192.802 46.9829C192.8 46.9829 192.799 46.9829 192.797 46.9829C192.451 46.9829 192.171 47.264 192.167 47.6114Z" fill="white"/>
</mask>
<g mask="url(#mask5_5567_147456)">
<path d="M192.167 47.6114L192.112 55.3794C192.108 55.7277 192.387 56.0145 192.735 56.0164L193.841 56.0249L193.908 46.9914L192.802 46.9829C192.8 46.9829 192.799 46.9829 192.797 46.9829C192.451 46.9829 192.171 47.264 192.167 47.6114Z" fill="#002E28"/>
</g>
<mask id="mask6_5567_147456" style="mask-type:alpha" maskUnits="userSpaceOnUse" x="192" y="57" width="2" height="10">
<path d="M192.091 58.128L192.035 65.8969C192.032 66.2462 192.311 66.532 192.658 66.5349L193.765 66.5434L193.831 57.509L192.724 57.5005C192.723 57.5005 192.721 57.5005 192.719 57.5005C192.375 57.5005 192.094 57.7807 192.091 58.128Z" fill="white"/>
</mask>
<g mask="url(#mask6_5567_147456)">
<path d="M192.091 58.128L192.035 65.8969C192.032 66.2462 192.311 66.532 192.658 66.5349L193.765 66.5434L193.831 57.509L192.724 57.5005C192.723 57.5005 192.721 57.5005 192.719 57.5005C192.375 57.5005 192.094 57.7807 192.091 58.128Z" fill="#002E28"/>
</g>
<mask id="mask7_5567_147456" style="mask-type:alpha" maskUnits="userSpaceOnUse" x="214" y="31" width="10" height="3">
<path d="M214.643 32.76L214.642 32.92C214.637 33.3667 214.998 33.734 215.442 33.7368L222.757 33.7917C223.202 33.7946 223.565 33.433 223.569 32.9853V32.8253C223.574 32.3767 223.215 32.0114 222.769 32.0076L215.456 31.9536C215.454 31.9536 215.452 31.9536 215.451 31.9536C215.008 31.9536 214.646 32.3133 214.643 32.76Z" fill="white"/>
</mask>
<g mask="url(#mask7_5567_147456)">
<path d="M214.643 32.76L214.642 32.92C214.637 33.3667 214.998 33.734 215.442 33.7368L222.757 33.7917C223.202 33.7946 223.565 33.433 223.569 32.9853V32.8253C223.574 32.3767 223.215 32.0114 222.769 32.0076L215.456 31.9536C215.454 31.9536 215.452 31.9536 215.451 31.9536C215.008 31.9536 214.646 32.3133 214.643 32.76Z" fill="#407972"/>
</g>
<mask id="mask8_5567_147456" style="mask-type:alpha" maskUnits="userSpaceOnUse" x="225" y="31" width="3" height="3">
<path d="M225.344 32.8281C225.338 33.4594 225.845 33.9771 226.474 33.9819C227.104 33.9866 227.617 33.4764 227.622 32.8432C227.626 32.21 227.12 31.6923 226.491 31.6885C226.488 31.6885 226.485 31.6885 226.481 31.6885C225.856 31.6885 225.347 32.1958 225.344 32.8281Z" fill="white"/>
</mask>
<g mask="url(#mask8_5567_147456)">
<path d="M225.344 32.8281C225.338 33.4594 225.845 33.9771 226.474 33.9819C227.104 33.9866 227.617 33.4764 227.622 32.8432C227.626 32.21 227.12 31.6923 226.491 31.6885C226.488 31.6885 226.485 31.6885 226.481 31.6885C225.856 31.6885 225.347 32.1958 225.344 32.8281Z" fill="#407972"/>
</g>
<path fill-rule="evenodd" clip-rule="evenodd" d="M243.133 76.8563H198.317C197.502 76.8563 196.841 76.254 196.841 75.5119V67.4451C196.841 66.7029 197.502 66.1006 198.317 66.1006H243.133V76.8563Z" fill="#C4E4FF"/>
<path fill-rule="evenodd" clip-rule="evenodd" d="M210.851 62.874H248.911C249.676 62.874 250.296 63.4826 250.296 64.2345V73.3449C250.296 74.0959 249.676 74.7053 248.911 74.7053H190.742C189.978 74.7053 189.357 74.0959 189.357 73.3449V64.2345C189.357 63.4826 189.978 62.874 190.742 62.874H211.061" fill="#00AB4E"/>
<path fill-rule="evenodd" clip-rule="evenodd" d="M220.333 45.6621C223.082 45.6621 225.298 47.8721 225.3 50.6166C225.302 53.3464 223.08 55.5729 220.353 55.5741C217.594 55.5753 215.378 53.3628 215.38 50.6079C215.381 47.8725 217.595 45.6622 220.333 45.6621ZM222.556 49.034C222.667 49.0971 222.729 49.1306 222.79 49.1674C222.888 49.2274 222.978 49.2544 223.054 49.1318C223.135 49.0016 223.054 48.9498 222.955 48.8936C221.961 48.3307 220.906 48.0417 219.755 48.1662C219.029 48.2449 218.358 48.4821 217.737 48.8628C217.646 48.9186 217.527 48.9688 217.62 49.1155C217.714 49.2645 217.812 49.1923 217.913 49.1272C217.97 49.0912 218.03 49.0618 218.125 49.0098C218.087 49.1022 218.067 49.1545 218.045 49.2058C217.625 50.1714 217.205 51.1369 216.784 52.1022C216.64 52.4329 216.694 52.6118 217.007 52.7991C217.101 52.855 217.202 52.9028 217.305 52.937C217.945 53.1483 218.59 53.1431 219.237 52.9736C219.388 52.9341 219.53 52.8693 219.661 52.7861C219.946 52.6071 219.998 52.4229 219.863 52.1145C219.411 51.0785 218.964 50.0403 218.507 49.0067C218.444 48.865 218.482 48.8244 218.611 48.7748C219.758 48.3323 220.899 48.359 222.041 48.7969C222.197 48.857 222.208 48.9206 222.144 49.0637C221.705 50.0558 221.274 51.0516 220.841 52.0461C220.663 52.4541 220.734 52.6602 221.137 52.8536C221.637 53.0933 222.171 53.1256 222.713 53.0763C223.057 53.0451 223.392 52.9766 223.69 52.7879C223.976 52.6073 224.031 52.4226 223.897 52.1174C223.682 51.6264 223.468 51.1348 223.254 50.6433C223.028 50.1237 222.803 49.604 222.556 49.034Z" fill="#02A750"/>
<path fill-rule="evenodd" clip-rule="evenodd" d="M220.322 59.2426C217.841 59.2092 215.729 58.3075 214.027 56.5069C212.657 55.058 211.896 53.3196 211.729 51.3288C211.714 51.1487 211.713 50.9673 211.697 50.7873C211.689 50.6908 211.721 50.6664 211.815 50.6687C212.067 50.6748 212.32 50.675 212.572 50.6682C212.692 50.665 212.668 50.7424 212.67 50.8099C212.692 51.4915 212.789 52.1622 212.989 52.8141C213.361 54.0276 213.989 55.0917 214.885 55.9944C215.869 56.9847 217.033 57.6701 218.386 58.0192C219.829 58.3919 221.268 58.3624 222.69 57.899C224.43 57.3323 225.8 56.2787 226.79 54.7461C227.664 53.393 228.061 51.9038 227.993 50.2919C227.912 48.384 227.206 46.7308 225.9 45.3523C224.603 43.9833 222.997 43.1936 221.109 43.0038C219.545 42.8465 218.069 43.1397 216.687 43.8892C216.58 43.9469 216.515 43.9468 216.452 43.8368C216.342 43.6465 216.23 43.4569 216.107 43.2751C216.033 43.1651 216.062 43.1144 216.168 43.0551C216.823 42.6916 217.515 42.4203 218.24 42.2422C219.583 41.9126 220.933 41.8958 222.281 42.207C223.958 42.5944 225.401 43.409 226.585 44.657C228.057 46.2088 228.859 48.0576 228.964 50.1966C229.066 52.2851 228.486 54.1752 227.217 55.8334C225.853 57.6173 224.049 58.7109 221.831 59.1142C221.332 59.2049 220.83 59.2426 220.322 59.2426Z" fill="#BAD333"/>
<path fill-rule="evenodd" clip-rule="evenodd" d="M220.357 43.9146C222.824 43.9979 224.741 45.0566 226.081 47.1415C226.155 47.2572 226.143 47.3134 226.023 47.379C225.853 47.472 225.687 47.5752 225.533 47.6917C225.393 47.7969 225.321 47.7892 225.225 47.6297C224.753 46.8458 224.118 46.2203 223.341 45.7357C221.207 44.4046 218.349 44.6659 216.495 46.3724C215.168 47.5928 214.54 49.1116 214.611 50.9094C214.717 53.6087 216.839 55.9483 219.526 56.2759C221.97 56.5738 223.872 55.6478 225.227 53.6002C225.291 53.5032 225.332 53.4783 225.434 53.5514C225.617 53.6833 225.808 53.8067 226.003 53.9209C226.119 53.9888 226.109 54.0495 226.045 54.1488C224.974 55.8032 223.482 56.8527 221.537 57.2038C218.529 57.7471 215.63 56.2568 214.28 53.5098C212.723 50.3417 214.029 46.3572 217.163 44.7109C218.162 44.1862 219.221 43.9101 220.357 43.9146Z" fill="#74BC46"/>
<path fill-rule="evenodd" clip-rule="evenodd" d="M222.555 49.0342C222.803 49.6041 223.028 50.1238 223.254 50.6434C223.468 51.1349 223.682 51.6265 223.897 52.1175C224.031 52.4227 223.976 52.6074 223.69 52.788C223.392 52.9766 223.057 53.0451 222.713 53.0764C222.171 53.1257 221.637 53.0934 221.137 52.8536C220.734 52.6603 220.663 52.4542 220.841 52.0462C221.274 51.0516 221.705 50.0558 222.144 49.0638C222.208 48.9206 222.197 48.8571 222.041 48.797C220.899 48.3591 219.758 48.3323 218.611 48.7749C218.482 48.8245 218.444 48.8651 218.507 49.0068C218.964 50.0404 219.411 51.0786 219.863 52.1146C219.998 52.423 219.946 52.6072 219.661 52.7862C219.53 52.8694 219.388 52.9342 219.237 52.9737C218.59 53.1432 217.945 53.1484 217.305 52.937C217.202 52.9029 217.101 52.8551 217.007 52.7992C216.694 52.6119 216.64 52.433 216.784 52.1023C217.205 51.137 217.625 50.1715 218.045 49.2059C218.067 49.1545 218.087 49.1023 218.125 49.0099C218.03 49.0619 217.97 49.0913 217.913 49.1273C217.812 49.1924 217.714 49.2646 217.62 49.1155C217.528 48.9689 217.646 48.9187 217.737 48.8629C218.358 48.4821 219.029 48.245 219.755 48.1663C220.906 48.0418 221.961 48.3308 222.955 48.8937C223.054 48.9499 223.135 49.0017 223.054 49.1319C222.978 49.2545 222.888 49.2275 222.79 49.1675C222.729 49.1307 222.667 49.0972 222.555 49.0342ZM218.336 49.327C218.31 49.3518 218.297 49.3588 218.292 49.3696C217.918 50.2265 217.546 51.0843 217.169 51.9402C217.113 52.0686 217.182 52.0625 217.271 52.0623C217.905 52.0608 218.538 52.0614 219.172 52.0613C219.28 52.0613 219.388 52.0613 219.525 52.0613C219.122 51.1345 218.731 50.2345 218.336 49.327ZM222.369 49.3304C222.342 49.3545 222.323 49.3644 222.316 49.3798C221.946 50.2312 221.578 51.0836 221.206 51.9343C221.155 52.0508 221.202 52.063 221.303 52.0627C222.001 52.0603 222.699 52.0586 223.397 52.0637C223.549 52.0647 223.536 52.0108 223.488 51.9041C223.36 51.6222 223.242 51.336 223.118 51.0522C222.87 50.4809 222.621 49.9101 222.369 49.3304Z" fill="#F3FAF6"/>
<path fill-rule="evenodd" clip-rule="evenodd" d="M218.336 49.3271C218.73 50.2347 219.122 51.1346 219.525 52.0615C219.388 52.0615 219.28 52.0615 219.172 52.0615C218.538 52.0616 217.905 52.061 217.271 52.0625C217.182 52.0627 217.113 52.0687 217.169 51.9404C217.545 51.0844 217.918 50.2267 218.292 49.3698C218.296 49.359 218.31 49.3519 218.336 49.3271Z" fill="#04A650"/>
<path fill-rule="evenodd" clip-rule="evenodd" d="M222.369 49.3301C222.621 49.9098 222.87 50.4807 223.119 51.0519C223.242 51.3357 223.36 51.6219 223.488 51.9039C223.536 52.0106 223.549 52.0645 223.397 52.0634C222.699 52.0583 222.001 52.06 221.303 52.0625C221.202 52.0628 221.155 52.0505 221.206 51.9341C221.578 51.0833 221.946 50.2309 222.316 49.3795C222.323 49.3641 222.342 49.3543 222.369 49.3301Z" fill="#04A650"/>
<path d="M192.745 70.5757V66.6982H194.521C194.936 66.6982 195.255 66.788 195.478 66.9677C195.706 67.1474 195.819 67.393 195.819 67.7047C195.819 67.91 195.768 68.0879 195.665 68.2382C195.563 68.3849 195.42 68.4949 195.236 68.5682C195.456 68.6305 195.625 68.7405 195.742 68.8982C195.863 69.0559 195.924 69.2502 195.924 69.4812C195.924 69.8259 195.803 70.0954 195.561 70.2897C195.323 70.4804 194.996 70.5757 194.582 70.5757H192.745ZM193.559 68.2932H194.373C194.791 68.2932 195 68.1319 195 67.8092C195 67.4902 194.791 67.3307 194.373 67.3307H193.559V68.2932ZM193.559 69.9432H194.466C194.686 69.9432 194.848 69.901 194.95 69.8167C195.053 69.7324 195.104 69.604 195.104 69.4317C195.104 69.263 195.053 69.1365 194.95 69.0522C194.848 68.9679 194.686 68.9257 194.466 68.9257H193.559V69.9432ZM197.493 70.6362C197.149 70.6362 196.894 70.5409 196.729 70.3502C196.567 70.1595 196.487 69.8735 196.487 69.4922V67.8752H197.317V69.5142C197.317 69.8332 197.455 69.9927 197.73 69.9927C197.887 69.9927 198.016 69.9377 198.115 69.8277C198.217 69.714 198.269 69.5655 198.269 69.3822V67.8752H199.099V70.5757H198.291V70.2072C198.111 70.4932 197.845 70.6362 197.493 70.6362ZM199.742 70.5757V66.6982H200.572V68.9917H200.583L201.579 67.8752H202.563L201.419 69.1677L202.618 70.5757H201.617L200.583 69.4097H200.572V70.5757H199.742ZM203.695 70.6362C203.493 70.6362 203.315 70.5977 203.161 70.5207C203.007 70.4437 202.885 70.3392 202.793 70.2072C202.705 70.0752 202.661 69.9267 202.661 69.7617C202.661 69.5674 202.712 69.4115 202.815 69.2942C202.918 69.1769 203.084 69.0944 203.315 69.0467C203.546 68.9954 203.853 68.9697 204.234 68.9697H204.432V68.8762C204.432 68.7149 204.395 68.6012 204.322 68.5352C204.249 68.4655 204.124 68.4307 203.948 68.4307C203.801 68.4307 203.645 68.4545 203.48 68.5022C203.319 68.5462 203.158 68.614 202.996 68.7057L202.771 68.1502C202.866 68.0879 202.982 68.031 203.117 67.9797C203.257 67.9284 203.402 67.8899 203.552 67.8642C203.702 67.8349 203.845 67.8202 203.981 67.8202C204.399 67.8202 204.711 67.9155 204.916 68.1062C205.121 68.2932 205.224 68.5847 205.224 68.9807V70.5757H204.448V70.1687C204.393 70.3117 204.3 70.4254 204.168 70.5097C204.04 70.594 203.882 70.6362 203.695 70.6362ZM203.882 70.0807C204.036 70.0807 204.166 70.0275 204.272 69.9212C204.379 69.8149 204.432 69.6774 204.432 69.5087V69.3987H204.239C203.957 69.3987 203.757 69.4244 203.64 69.4757C203.523 69.5234 203.464 69.6077 203.464 69.7287C203.464 69.8314 203.499 69.9157 203.568 69.9817C203.642 70.0477 203.746 70.0807 203.882 70.0807ZM208.37 70.5757V67.4022H207.088V66.6982H210.504V67.4022H209.222V70.5757H208.37ZM211.327 70.6362C211.126 70.6362 210.948 70.5977 210.794 70.5207C210.64 70.4437 210.517 70.3392 210.425 70.2072C210.337 70.0752 210.293 69.9267 210.293 69.7617C210.293 69.5674 210.345 69.4115 210.447 69.2942C210.55 69.1769 210.717 69.0944 210.948 69.0467C211.179 68.9954 211.485 68.9697 211.866 68.9697H212.064V68.8762C212.064 68.7149 212.028 68.6012 211.954 68.5352C211.881 68.4655 211.756 68.4307 211.58 68.4307C211.434 68.4307 211.278 68.4545 211.113 68.5022C210.951 68.5462 210.79 68.614 210.629 68.7057L210.403 68.1502C210.499 68.0879 210.614 68.031 210.75 67.9797C210.889 67.9284 211.034 67.8899 211.184 67.8642C211.335 67.8349 211.478 67.8202 211.613 67.8202C212.031 67.8202 212.343 67.9155 212.548 68.1062C212.754 68.2932 212.856 68.5847 212.856 68.9807V70.5757H212.081V70.1687C212.026 70.3117 211.932 70.4254 211.8 70.5097C211.672 70.594 211.514 70.6362 211.327 70.6362ZM211.514 70.0807C211.668 70.0807 211.798 70.0275 211.905 69.9212C212.011 69.8149 212.064 69.6774 212.064 69.5087V69.3987H211.872C211.589 69.3987 211.39 69.4244 211.272 69.4757C211.155 69.5234 211.096 69.6077 211.096 69.7287C211.096 69.8314 211.131 69.9157 211.201 69.9817C211.274 70.0477 211.379 70.0807 211.514 70.0807ZM215.142 70.6362C214.952 70.6362 214.779 70.594 214.625 70.5097C214.475 70.4254 214.363 70.3135 214.29 70.1742V70.5757H213.476V66.6982H214.306V68.2382C214.387 68.1099 214.501 68.009 214.647 67.9357C214.798 67.8587 214.963 67.8202 215.142 67.8202C215.377 67.8202 215.582 67.877 215.758 67.9907C215.938 68.1044 216.077 68.2657 216.176 68.4747C216.275 68.6837 216.325 68.933 216.325 69.2227C216.325 69.5124 216.275 69.7635 216.176 69.9762C216.077 70.1852 215.938 70.3484 215.758 70.4657C215.582 70.5794 215.377 70.6362 215.142 70.6362ZM214.895 70.0147C215.071 70.0147 215.214 69.9505 215.324 69.8222C215.434 69.6939 215.489 69.494 215.489 69.2227C215.489 68.955 215.434 68.7589 215.324 68.6342C215.214 68.5059 215.071 68.4417 214.895 68.4417C214.715 68.4417 214.57 68.5059 214.46 68.6342C214.35 68.7589 214.295 68.955 214.295 69.2227C214.295 69.494 214.35 69.6939 214.46 69.8222C214.57 69.9505 214.715 70.0147 214.895 70.0147ZM217.828 70.6362C217.484 70.6362 217.229 70.5409 217.064 70.3502C216.902 70.1595 216.822 69.8735 216.822 69.4922V67.8752H217.652V69.5142C217.652 69.8332 217.79 69.9927 218.065 69.9927C218.222 69.9927 218.351 69.9377 218.45 69.8277C218.552 69.714 218.604 69.5655 218.604 69.3822V67.8752H219.434V70.5757H218.626V70.2072C218.446 70.4932 218.18 70.6362 217.828 70.6362ZM220.077 70.5757V67.8752H220.891V68.2712C220.982 68.1245 221.105 68.0127 221.259 67.9357C221.413 67.8587 221.586 67.8202 221.776 67.8202C222.095 67.8202 222.334 67.9137 222.491 68.1007C222.649 68.284 222.728 68.5682 222.728 68.9532V70.5757H221.897V68.9917C221.897 68.8047 221.862 68.6709 221.793 68.5902C221.723 68.5059 221.62 68.4637 221.485 68.4637C221.309 68.4637 221.168 68.5187 221.061 68.6287C220.959 68.7387 220.907 68.8854 220.907 69.0687V70.5757H220.077ZM224.646 71.6262C224.385 71.6262 224.142 71.5987 223.914 71.5437C223.691 71.4887 223.494 71.4025 223.326 71.2852L223.551 70.7187C223.698 70.8104 223.863 70.88 224.046 70.9277C224.233 70.979 224.409 71.0047 224.574 71.0047C225.044 71.0047 225.278 70.7884 225.278 70.3557V70.0477C225.205 70.187 225.089 70.2989 224.932 70.3832C224.774 70.4675 224.602 70.5097 224.415 70.5097C224.173 70.5097 223.962 70.4547 223.782 70.3447C223.603 70.231 223.463 70.0734 223.364 69.8717C223.265 69.67 223.216 69.4335 223.216 69.1622C223.216 68.8945 223.265 68.6599 223.364 68.4582C223.463 68.2565 223.603 68.1007 223.782 67.9907C223.962 67.877 224.173 67.8202 224.415 67.8202C224.609 67.8202 224.783 67.8624 224.937 67.9467C225.091 68.031 225.205 68.1429 225.278 68.2822V67.8752H226.087V70.2622C226.087 70.7169 225.964 71.0579 225.718 71.2852C225.473 71.5125 225.115 71.6262 224.646 71.6262ZM224.662 69.8882C224.846 69.8882 224.992 69.824 225.102 69.6957C225.216 69.5674 225.273 69.3895 225.273 69.1622C225.273 68.9349 225.216 68.7589 225.102 68.6342C224.992 68.5059 224.846 68.4417 224.662 68.4417C224.475 68.4417 224.327 68.5059 224.217 68.6342C224.107 68.7589 224.052 68.9349 224.052 69.1622C224.052 69.3895 224.107 69.5674 224.217 69.6957C224.327 69.824 224.475 69.8882 224.662 69.8882ZM227.645 70.6362C227.443 70.6362 227.265 70.5977 227.111 70.5207C226.957 70.4437 226.834 70.3392 226.743 70.2072C226.655 70.0752 226.611 69.9267 226.611 69.7617C226.611 69.5674 226.662 69.4115 226.765 69.2942C226.867 69.1769 227.034 69.0944 227.265 69.0467C227.496 68.9954 227.802 68.9697 228.184 68.9697H228.382V68.8762C228.382 68.7149 228.345 68.6012 228.272 68.5352C228.198 68.4655 228.074 68.4307 227.898 68.4307C227.751 68.4307 227.595 68.4545 227.43 68.5022C227.269 68.5462 227.107 68.614 226.946 68.7057L226.721 68.1502C226.816 68.0879 226.931 68.031 227.067 67.9797C227.206 67.9284 227.351 67.8899 227.502 67.8642C227.652 67.8349 227.795 67.8202 227.931 67.8202C228.349 67.8202 228.66 67.9155 228.866 68.1062C229.071 68.2932 229.174 68.5847 229.174 68.9807V70.5757H228.398V70.1687C228.343 70.3117 228.25 70.4254 228.118 70.5097C227.989 70.594 227.832 70.6362 227.645 70.6362ZM227.832 70.0807C227.986 70.0807 228.116 70.0275 228.222 69.9212C228.328 69.8149 228.382 69.6774 228.382 69.5087V69.3987H228.189C227.907 69.3987 227.707 69.4244 227.59 69.4757C227.472 69.5234 227.414 69.6077 227.414 69.7287C227.414 69.8314 227.448 69.9157 227.518 69.9817C227.591 70.0477 227.696 70.0807 227.832 70.0807ZM229.793 70.5757V67.8752H230.607V68.2712C230.699 68.1245 230.822 68.0127 230.976 67.9357C231.13 67.8587 231.302 67.8202 231.493 67.8202C231.812 67.8202 232.05 67.9137 232.208 68.1007C232.365 68.284 232.444 68.5682 232.444 68.9532V70.5757H231.614V68.9917C231.614 68.8047 231.579 68.6709 231.509 68.5902C231.439 68.5059 231.337 68.4637 231.201 68.4637C231.025 68.4637 230.884 68.5187 230.778 68.6287C230.675 68.7387 230.624 68.8854 230.624 69.0687V70.5757H229.793ZM234.666 70.5757V66.6982H237.323V67.3637H235.48V68.2712H237.202V68.9422H235.48V69.9102H237.323V70.5757H234.666ZM237.936 70.5757V67.8752H238.75V68.2657C238.831 68.1264 238.941 68.0182 239.08 67.9412C239.223 67.8605 239.388 67.8202 239.575 67.8202C239.766 67.8202 239.927 67.8624 240.059 67.9467C240.195 68.031 240.297 68.1594 240.367 68.3317C240.451 68.1704 240.572 68.0457 240.73 67.9577C240.891 67.866 241.069 67.8202 241.263 67.8202C241.571 67.8202 241.801 67.9137 241.951 68.1007C242.101 68.284 242.176 68.5682 242.176 68.9532V70.5757H241.346V68.9807C241.346 68.801 241.317 68.6709 241.258 68.5902C241.203 68.5059 241.108 68.4637 240.972 68.4637C240.814 68.4637 240.691 68.5187 240.603 68.6287C240.515 68.7387 240.471 68.8945 240.471 69.0962V70.5757H239.641V68.9807C239.641 68.801 239.612 68.6709 239.553 68.5902C239.494 68.5059 239.399 68.4637 239.267 68.4637C239.109 68.4637 238.986 68.5187 238.898 68.6287C238.81 68.7387 238.766 68.8945 238.766 69.0962V70.5757H237.936ZM243.726 70.6362C243.524 70.6362 243.346 70.5977 243.192 70.5207C243.038 70.4437 242.915 70.3392 242.824 70.2072C242.736 70.0752 242.692 69.9267 242.692 69.7617C242.692 69.5674 242.743 69.4115 242.846 69.2942C242.948 69.1769 243.115 69.0944 243.346 69.0467C243.577 68.9954 243.883 68.9697 244.265 68.9697H244.463V68.8762C244.463 68.7149 244.426 68.6012 244.353 68.5352C244.279 68.4655 244.155 68.4307 243.979 68.4307C243.832 68.4307 243.676 68.4545 243.511 68.5022C243.35 68.5462 243.188 68.614 243.027 68.7057L242.802 68.1502C242.897 68.0879 243.012 68.031 243.148 67.9797C243.287 67.9284 243.432 67.8899 243.583 67.8642C243.733 67.8349 243.876 67.8202 244.012 67.8202C244.43 67.8202 244.741 67.9155 244.947 68.1062C245.152 68.2932 245.255 68.5847 245.255 68.9807V70.5757H244.479V70.1687C244.424 70.3117 244.331 70.4254 244.199 70.5097C244.07 70.594 243.913 70.6362 243.726 70.6362ZM243.913 70.0807C244.067 70.0807 244.197 70.0275 244.303 69.9212C244.409 69.8149 244.463 69.6774 244.463 69.5087V69.3987H244.27C243.988 69.3987 243.788 69.4244 243.671 69.4757C243.553 69.5234 243.495 69.6077 243.495 69.7287C243.495 69.8314 243.529 69.9157 243.599 69.9817C243.672 70.0477 243.777 70.0807 243.913 70.0807ZM246.908 70.6362C246.67 70.6362 246.448 70.6087 246.243 70.5537C246.037 70.4987 245.867 70.4235 245.731 70.3282L245.929 69.7892C246.065 69.8735 246.219 69.9414 246.391 69.9927C246.567 70.0404 246.741 70.0642 246.914 70.0642C247.068 70.0642 247.181 70.0404 247.255 69.9927C247.328 69.9414 247.365 69.8754 247.365 69.7947C247.365 69.6664 247.271 69.5857 247.084 69.5527L246.507 69.4482C246.276 69.4079 246.1 69.3254 245.979 69.2007C245.858 69.076 245.797 68.9129 245.797 68.7112C245.797 68.5279 245.849 68.3702 245.951 68.2382C246.054 68.1062 246.195 68.0035 246.375 67.9302C246.554 67.8569 246.762 67.8202 246.996 67.8202C247.191 67.8202 247.379 67.8459 247.563 67.8972C247.746 67.9449 247.904 68.0219 248.036 68.1282L247.827 68.6617C247.717 68.581 247.585 68.515 247.431 68.4637C247.28 68.4124 247.139 68.3867 247.007 68.3867C246.842 68.3867 246.723 68.4142 246.65 68.4692C246.576 68.5205 246.54 68.5865 246.54 68.6672C246.54 68.7955 246.626 68.8762 246.798 68.9092L247.376 69.0137C247.614 69.054 247.796 69.1347 247.92 69.2557C248.045 69.373 248.107 69.5344 248.107 69.7397C248.107 70.022 247.997 70.242 247.777 70.3997C247.557 70.5574 247.268 70.6362 246.908 70.6362Z" fill="white"/>
<path fill-rule="evenodd" clip-rule="evenodd" d="M83.5462 146.946L63.5999 129.002L61.1198 128.773L61.6991 127.292L50.9308 117.605L71.0555 103.365L98.7652 105.926L103.673 132.706L83.5462 146.946Z" fill="#99762F"/>
<path fill-rule="evenodd" clip-rule="evenodd" d="M78.4056 120.115L51.1342 117.517L41.3829 142.973L83.2654 146.963L78.4056 120.115Z" fill="#CC9D3F"/>
<path fill-rule="evenodd" clip-rule="evenodd" d="M50.9437 117.821L70.8679 103.377L98.3351 106.024L78.4099 120.469L50.9437 117.821Z" fill="#FFC54F"/>
<path fill-rule="evenodd" clip-rule="evenodd" d="M124.488 68.5588C124.16 65.2614 121.22 62.8538 117.923 63.1812L85.7945 66.3713C82.497 66.6988 80.0901 69.6372 80.4185 72.9346L87.0814 139.828C87.4099 143.125 90.3493 145.533 93.6468 145.205L125.775 142.015C129.072 141.688 131.479 138.749 131.151 135.452L124.488 68.5588Z" fill="#CC9D3F"/>
<mask id="mask9_5567_147456" style="mask-type:alpha" maskUnits="userSpaceOnUse" x="80" y="63" width="52" height="83">
<path fill-rule="evenodd" clip-rule="evenodd" d="M124.488 68.5588C124.16 65.2614 121.22 62.8538 117.923 63.1812L85.7945 66.3713C82.497 66.6988 80.0901 69.6372 80.4185 72.9346L87.0814 139.828C87.4099 143.125 90.3493 145.533 93.6468 145.205L125.775 142.015C129.072 141.688 131.479 138.749 131.151 135.452L124.488 68.5588Z" fill="white"/>
</mask>
<g mask="url(#mask9_5567_147456)">
<rect width="44.2862" height="79.2239" rx="6" transform="matrix(-0.995107 0.0988073 0.0991154 0.995076 129.402 62.0415)" fill="#FFC54F"/>
<path fill-rule="evenodd" clip-rule="evenodd" d="M107.662 79.5336L115.707 84.4243C116.692 85.022 117.198 86.2092 116.959 87.361L115.009 96.7596C114.77 97.9114 113.84 98.7648 112.707 98.8773L103.457 99.7958C102.324 99.9083 101.244 99.2544 100.782 98.1722L97.0172 89.3411C96.5553 88.2589 96.8179 86.9953 97.6651 86.2157L104.588 79.8389C105.435 79.0593 106.678 78.9359 107.662 79.5336Z" fill="#CC9D3F"/>
<rect width="22.1431" height="4.60604" rx="2.30302" transform="matrix(-0.995107 0.0988072 0.0991155 0.995076 120.013 107.409)" fill="#CC9D3F"/>
<rect width="22.1431" height="4.60604" rx="2.30302" transform="matrix(-0.995107 0.0988073 0.0991154 0.995076 121.109 118.409)" fill="#CC9D3F"/>
</g>
<path d="M140.763 142.102L147.471 149.667C147.933 150.187 148.145 150.916 147.928 151.576C147.672 152.354 146.832 152.995 144.359 152.008C139.864 150.213 137.166 147.52 138.065 143.031L140.763 142.102Z" fill="#00883E"/>
<mask id="mask10_5567_147456" style="mask-type:alpha" maskUnits="userSpaceOnUse" x="143" y="139" width="11" height="9">
<path fill-rule="evenodd" clip-rule="evenodd" d="M143.235 139.391H153.903V147.993H143.235V139.391Z" fill="white"/>
</mask>
<g mask="url(#mask10_5567_147456)">
<path d="M144.359 139.391L147.056 140.339L153.118 144.877C153.793 145.384 154.069 146.263 153.802 147.064L153.754 147.208C153.538 147.855 152.809 148.172 152.187 147.89L144.09 144.215C143.632 144.007 143.31 143.579 143.257 143.079C143.173 142.278 143.286 140.968 144.359 139.391Z" fill="#00883E"/>
</g>
<path d="M136.267 135.85L138.066 143.031C138.066 143.031 138.965 144.827 140.763 143.031L139.864 134.952L136.267 135.85Z" fill="#FFDAB8"/>
<path d="M148.855 132.259L147.056 140.338C147.056 140.338 145.258 142.134 144.359 140.338L145.258 131.361L148.855 132.259Z" fill="#FFDAB8"/>
<path d="M145.563 79.0229L144.845 96.8393L141.662 95.4542V79.2958L145.563 79.0229Z" fill="#F4B795"/>
<path d="M135.368 135.85L131.772 118.794C131.772 118.794 124.579 100.84 127.276 91.8633H142.561L152.059 112.553C152.315 113.111 152.407 113.73 152.323 114.339L149.754 133.157C149.754 133.157 146.157 134.952 144.359 133.157L145.224 115.877C145.247 115.436 145.154 114.996 144.956 114.599L138.066 100.84L139.864 117.896L140.763 135.85C140.763 135.85 138.066 138.543 135.368 135.85Z" fill="#464649"/>
<mask id="mask11_5567_147456" style="mask-type:alpha" maskUnits="userSpaceOnUse" x="125" y="45" width="27" height="26">
<path fill-rule="evenodd" clip-rule="evenodd" d="M125.033 45.6323H151.102V70.9746H125.033V45.6323Z" fill="white"/>
</mask>
<g mask="url(#mask11_5567_147456)">
<path d="M140.146 46.1099C140.146 46.1099 136.419 45.6296 134.122 50.8748C132.804 53.8847 131.005 56.7142 128.576 59.0967C125.926 61.6946 123.487 65.3123 126.254 68.2243C130.275 72.4569 141.992 70.7388 146.077 69.9838C146.738 69.8608 147.085 69.1427 146.775 68.5466C146.127 67.297 145.354 65.1013 145.867 62.3266C146.357 59.673 148.265 57.4997 149.714 56.1846C150.862 55.1433 151.365 53.6513 150.968 52.2267C150.063 48.9834 147.47 44.0775 140.146 46.1099Z" fill="#6C4A07"/>
</g>
<path d="M136.267 62.2393L129.598 64.6603C127.577 65.3946 126.041 67.0607 125.475 69.1308L122.781 77.4999C122.781 77.4999 124.579 80.193 128.175 79.2953C128.175 79.2953 125.478 90.0675 127.276 93.6582C127.276 93.6582 137.166 99.0443 144.359 92.7605C144.359 92.7605 142.561 83.7837 143.46 79.2953C143.46 79.2953 147.056 79.2953 147.955 77.4999L145.827 69.708C145.457 68.3525 144.678 67.1433 143.598 66.2438L139.864 63.1369L136.267 62.2393Z" fill="#00AB4E"/>
<path d="M147.758 76.7762L145.827 69.7087C145.457 68.3523 144.678 67.144 143.597 66.2445L142.561 65.3818V66.8424C142.561 68.2589 142.787 69.6665 143.274 70.9978C143.92 72.7671 144.611 75.8479 143.46 79.296C143.46 79.296 145.958 79.296 147.31 78.2564C147.753 77.9171 147.905 77.3148 147.758 76.7762Z" fill="#00883E"/>
<path d="M138.066 101.289C137.817 101.289 137.616 101.088 137.616 100.84C137.616 98.7449 140.498 97.762 140.621 97.7207C140.857 97.6417 141.11 97.7691 141.189 98.0052C141.268 98.2404 141.14 98.4945 140.906 98.5735C140.24 98.7961 138.515 99.6381 138.515 100.84C138.515 101.088 138.314 101.289 138.066 101.289Z" fill="#252528"/>
<path d="M149.589 76.1326L152.325 77.1631C153.092 77.4531 153.434 78.279 153.065 78.9531L148.11 88.009C147.782 88.6086 147.005 88.8725 146.324 88.6158L143.586 87.5853C142.82 87.2971 142.479 86.4703 142.847 85.7962L147.803 76.7394C148.13 76.1398 148.907 75.8759 149.589 76.1326Z" fill="#58585B"/>
<path d="M142.561 62.2394C142.561 62.2394 140.763 64.0348 140.763 65.8302C140.763 65.8302 135.368 66.7279 135.368 63.1371L138.065 59.5464L142.561 62.2394Z" fill="#F4B795"/>
<path d="M149.135 55.6938C149.135 55.6938 146.683 63.0647 142.597 63.0647C138.512 63.0647 136.877 61.5898 136.877 58.6418C136.877 55.6938 140.146 49.7969 144.232 51.27C148.317 52.7449 149.135 55.6938 149.135 55.6938Z" fill="#FFDAB8"/>
<path d="M142.598 51.2701C142.598 51.2701 141.78 54.956 138.512 55.6939C135.243 56.43 136.878 55.6939 136.878 55.6939C136.878 55.6939 136.878 48.3221 142.598 51.2701Z" fill="#6C4A07"/>
<path d="M140.963 49.7966C140.963 49.7966 142.197 54.8021 148.412 55.6343C150.063 55.8551 151.444 54.514 151.017 53.0579C150.448 51.118 149.379 48.7455 147.501 48.3217C144.232 47.5847 140.963 49.7966 140.963 49.7966Z" fill="#6C4A07"/>
<path d="M124.661 77.4766L123.9 83.7604C123.778 84.7712 124.487 85.694 125.497 85.8385L142.561 88.2721L146.526 87.6123C147.382 87.4705 148.051 86.8017 148.194 85.948L148.514 84.0297C148.683 83.0189 147.819 82.1364 146.803 82.2819L143.436 82.7612C142.868 82.8429 142.341 83.1059 141.935 83.5117L140.763 84.6814L129.074 81.9883L129.973 78.3976L124.661 77.4766Z" fill="#FFDAB8"/>
<path d="M130.873 68.5231C130.521 66.769 129.069 66.1191 127.433 65.9683C126.505 66.8049 125.813 67.8929 125.475 69.1308L122.781 77.4999C122.935 77.7055 123.101 77.8904 123.273 78.0619C123.328 78.1166 123.391 78.1732 123.457 78.2306C123.507 78.2764 123.561 78.3123 123.608 78.359C125.261 79.9865 128.25 79.7693 129.829 79.5107C130.454 79.4084 130.928 78.9012 130.996 78.2719C131.206 76.3087 131.551 71.9064 130.873 68.5231Z" fill="#00883E"/>
<path fill-rule="evenodd" clip-rule="evenodd" d="M94.8056 37.9486L96.1143 40.3367L98.505 41.6423C98.9 41.8583 98.9 42.4242 98.505 42.6403L96.1143 43.9458L94.8056 46.3339C94.5903 46.7283 94.0224 46.7283 93.8071 46.3339L92.4984 43.9458L90.1066 42.6403C89.7115 42.4242 89.7115 41.8583 90.1066 41.6423L92.4984 40.3367L93.8071 37.9486C94.0224 37.5542 94.5903 37.5542 94.8056 37.9486Z" fill="#FFC54F"/>
<path fill-rule="evenodd" clip-rule="evenodd" d="M164.736 97.7943L166.044 100.182L168.435 101.488C168.83 101.704 168.83 102.27 168.435 102.486L166.044 103.791L164.736 106.18C164.52 106.574 163.952 106.574 163.737 106.18L162.428 103.791L160.036 102.486C159.641 102.27 159.641 101.704 160.036 101.488L162.428 100.182L163.737 97.7943C163.952 97.3999 164.52 97.3999 164.736 97.7943Z" fill="#CC9D3F"/>
<path fill-rule="evenodd" clip-rule="evenodd" d="M50.5169 75.9496L52.2618 79.1337L55.4495 80.8744C55.9762 81.1625 55.9762 81.917 55.4495 82.2051L52.2618 83.9458L50.5169 87.1299C50.2299 87.6558 49.4727 87.6558 49.1856 87.1299L47.4407 83.9458L44.2515 82.2051C43.7248 81.917 43.7248 81.1625 44.2515 80.8744L47.4407 79.1337L49.1856 75.9496C49.4727 75.4237 50.2299 75.4237 50.5169 75.9496Z" fill="#FFD37B"/>
</svg>
