<svg width="328" height="164" viewBox="0 0 328 164" fill="none" xmlns="http://www.w3.org/2000/svg">
<path d="M23.2189 161.504C33.6809 163.667 265.053 165.826 301.876 161.504C312.777 160.224 321.503 148.276 322.776 146.203C330.736 133.238 327.751 53.2794 325.761 26.266C324.69 11.7278 309.838 5.19571 302.871 3.03482C289.548 -1.09779 53.2799 -1.26366 22.2229 4.11573C8.32787 6.52168 3.29087 17.8712 2.29087 24.1796C-0.0421274 38.8847 -1.42113 129.331 2.31887 141.514C5.30487 151.239 12.7689 159.343 23.2189 161.504Z" fill="#EBFFE0"/>
<mask id="mask0_5567_163427" style="mask-type:alpha" maskUnits="userSpaceOnUse" x="0" y="0" width="328" height="164">
<path fill-rule="evenodd" clip-rule="evenodd" d="M23.2189 161.504C33.6809 163.667 265.053 165.826 301.876 161.504C312.777 160.224 321.503 148.276 322.776 146.203C330.736 133.238 327.751 53.2794 325.761 26.266C324.69 11.7278 309.838 5.19571 302.871 3.03482C289.548 -1.09779 53.2799 -1.26366 22.2229 4.11573C8.32787 6.52168 3.29087 17.8712 2.29087 24.1796C-0.0421274 38.8847 -1.42113 129.331 2.31887 141.514C5.30487 151.239 12.7689 159.343 23.2189 161.504Z" fill="white"/>
</mask>
<g mask="url(#mask0_5567_163427)">
<path d="M411.612 253.785C411.612 363.138 322.914 451.785 213.5 451.785C104.085 451.785 15.3877 363.138 15.3877 253.785C15.3877 144.433 104.085 55.7854 213.5 55.7854C322.914 55.7854 411.612 144.433 411.612 253.785Z" fill="#BBF0D3"/>
</g>
<mask id="mask1_5567_163427" style="mask-type:alpha" maskUnits="userSpaceOnUse" x="0" y="0" width="328" height="164">
<path fill-rule="evenodd" clip-rule="evenodd" d="M23.2189 161.504C33.6809 163.667 265.053 165.826 301.876 161.504C312.777 160.224 321.503 148.276 322.776 146.203C330.736 133.238 327.751 53.2794 325.761 26.266C324.69 11.7278 309.838 5.19571 302.871 3.03482C289.548 -1.09779 53.2799 -1.26366 22.2229 4.11573C8.32787 6.52168 3.29087 17.8712 2.29087 24.1796C-0.0421274 38.8847 -1.42113 129.331 2.31887 141.514C5.30487 151.239 12.7689 159.343 23.2189 161.504Z" fill="white"/>
</mask>
<g mask="url(#mask1_5567_163427)">
<path d="M47.7311 78.113C44.6981 79.1655 42.0611 81.0974 40.0019 83.5613C36.0752 88.2589 27.3793 95.9394 19.46 99.1998C7.305 104.205 -12 170.7 -12 170.7C-12 170.7 66.65 206.45 109.55 183.57C109.55 183.57 112.41 174.99 112.41 163.55C112.41 163.55 123.85 179.28 138.15 167.84C148.618 159.466 159.087 148.792 163.944 143.674C165.809 141.708 166.324 138.801 165.167 136.353C162.883 131.514 157.781 124.515 147.675 125.906C146.191 126.111 144.801 126.769 143.631 127.705L131 137.81C131 137.81 118.13 100.63 116.7 97.7698C115.27 94.9098 110.98 86.3298 99.54 86.3298C88.1 86.3298 77.375 78.0801 77.375 78.0801C77.375 78.0801 61.3275 73.3983 47.7311 78.113Z" fill="#80B655"/>
<path d="M41.8828 160.565C41.8828 160.565 47.2153 160.565 49.2902 158.194C51.3637 155.823 61.7341 144.266 63.5116 143.08C65.2891 141.895 65.2891 140.117 65.2891 140.117L64.105 137.45H62.0301L59.0671 135.079L54.9201 135.673L50.7717 142.488L47.8087 151.971L41.8828 160.565Z" fill="#E79E5C"/>
<path d="M79.5199 70.6C79.5199 70.6 73.7999 77.75 76.6599 84.9C76.6599 84.9 72.3699 104.92 46.6299 84.9C46.6299 84.9 48.0599 73.46 46.6299 67.74L79.5199 70.6Z" fill="#E79E5C"/>
<path d="M58.785 11.2549C58.785 11.2549 87.385 26.9849 88.815 54.1549C88.815 54.1549 90.245 75.6049 65.935 75.6049C65.935 75.6049 53.065 77.0349 45.915 71.3149C38.765 65.5949 34.475 59.8749 31.615 52.7249L25.895 38.4249C25.895 38.4249 30.185 15.5449 58.785 11.2549Z" fill="#F2CBA8"/>
<path d="M189.113 133.049C189.113 133.049 195.368 132.446 196.38 132.073C197.392 131.699 207.879 126.528 208.891 126.262C209.904 125.996 209.705 122.647 205.388 123.074C201.069 123.5 197.285 125.729 193.662 126.423C190.037 127.116 189.113 133.049 189.113 133.049Z" fill="#E79E5C"/>
<path d="M190.517 118.535C190.305 119.065 183.483 121.837 181.611 122.269C179.991 122.639 178.446 122.602 176.378 123.335C176.363 123.344 176.34 123.351 176.326 123.358C176.204 123.397 176.075 123.443 175.947 123.496C175.939 123.503 175.931 123.503 175.931 123.503C175.772 123.563 175.606 123.631 175.432 123.707C175.432 123.707 176.273 124.677 183.421 126.017C184.125 126.152 184.89 126.29 185.715 126.426C185.715 126.426 188.116 127.591 186.041 133.992C186.041 133.992 182.52 136.604 178.998 137.239C175.485 137.884 174.128 137.58 166.932 139.018C159.739 140.458 159.193 145.798 155.989 151.395C155.989 151.395 142.425 151.465 138.865 144.15C138.865 144.15 147.123 128.076 148.403 126.692C149.35 125.668 150.924 122.76 154.129 120.497V120.488C155.264 119.686 156.613 118.96 158.21 118.429C164.292 116.398 171.168 116.506 172.236 116.559C173.297 116.611 177.082 116.52 178.256 116.543C179.141 116.559 180.543 115.741 181.702 115.203C182.081 115.028 182.429 114.877 182.732 114.801C183.959 114.484 189.768 112.779 190.517 114.801C191.259 116.832 190.728 117.997 190.517 118.535Z" fill="#F2CBA8"/>
<path d="M179.308 137.181C183.772 135.892 197.552 128.928 198.564 128.555C199.576 128.182 207.93 116.416 207.717 115.724C207.504 115.031 205.856 113.686 204.069 114.511C202.08 115.432 197.499 121.518 196.326 122.691C195.153 123.863 191.636 124.557 191.636 124.557L179.308 137.181Z" fill="#F2CBA8"/>
<mask id="mask2_5567_163427" style="mask-type:alpha" maskUnits="userSpaceOnUse" x="176" y="113" width="15" height="11">
<path fill-rule="evenodd" clip-rule="evenodd" d="M185.595 114.215C185.29 114.291 184.262 114.309 183.884 114.482C183.361 114.621 183.411 116.161 182.467 117.982C180.166 122.416 177.814 122.756 176.378 123.336C178.445 122.6 179.991 122.641 181.611 122.267C183.483 121.837 190.305 119.064 190.517 118.535C190.728 117.997 191.259 116.832 190.517 114.801C190.181 113.896 189.406 113.619 188.541 113.619C187.474 113.619 186.271 114.041 185.595 114.215Z" fill="white"/>
</mask>
<g mask="url(#mask2_5567_163427)">
<path d="M174.218 125.498H193.061V111.459H174.218V125.498Z" fill="#E79E5C"/>
</g>
<path d="M178.148 137.332C181.134 137.297 190.995 126.316 192.648 123.651C194.3 120.985 194.167 116.868 195.953 110.857C197.214 106.611 197.483 106.608 196.825 105.949C196.586 105.71 193.532 104.632 192.213 108.583C190.879 112.588 188.069 120.787 187.557 121.234C187.047 121.683 179.801 129.248 179.801 129.248L178.148 137.332Z" fill="#F2CBA8"/>
<path d="M155.192 126.938C155.192 126.938 159.526 123.81 165.07 125.588C170.614 127.364 172.694 126.423 174.47 126.21C176.247 125.997 181.56 122.104 182.129 120.471C182.615 119.073 183.829 116.114 184.171 115.288C184.231 115.14 184.261 115 184.268 114.843C184.3 113.973 184.503 110.792 185.73 108.931C186.43 107.869 188.085 108.291 188.188 109.56C188.331 111.344 188.501 113.872 188.437 115.229C188.329 117.467 186.891 122.372 186.517 123.331C186.144 124.289 180.602 131.166 180.602 131.166" fill="#F2CBA8"/>
<path d="M177.222 124.966C176.258 125.563 174.093 126.562 170.306 126.634C164.876 126.742 164.556 124.664 160.771 124.77C156.987 124.877 154.854 127.062 154.854 127.062" stroke="#E79E5C" stroke-width="0.55" stroke-linecap="round"/>
<path d="M187.022 121.764C187.022 121.764 185.935 125.717 185.479 127.223C185.159 128.275 181.276 131.533 181.276 131.533" stroke="#E79E5C" stroke-width="0.55" stroke-linecap="round"/>
<mask id="mask3_5567_163427" style="mask-type:alpha" maskUnits="userSpaceOnUse" x="178" y="124" width="16" height="14">
<path fill-rule="evenodd" clip-rule="evenodd" d="M192.087 124.457C192.087 124.457 186.749 134.106 178.998 137.239C178.998 137.239 187.265 134.979 193.291 124.139L192.087 124.457Z" fill="white"/>
</mask>
<g mask="url(#mask3_5567_163427)">
<path d="M176.837 139.402H195.453V121.977H176.837V139.402Z" fill="#E79E5C"/>
</g>
<mask id="mask4_5567_163427" style="mask-type:alpha" maskUnits="userSpaceOnUse" x="32" y="36" width="20" height="38">
<path fill-rule="evenodd" clip-rule="evenodd" d="M32 36.427H51.6267V73.9998H32V36.427Z" fill="white"/>
</mask>
<g mask="url(#mask4_5567_163427)">
<path d="M40.1945 36.4265C40.1945 36.4265 49.3892 53.7349 51.5265 60.6679C51.7465 61.3794 51.7545 64.3552 48.8612 61.9782C45.2625 59.0208 49.1465 71.0537 51.5278 73.7713C53.2678 75.7578 31.5278 64.5989 32.0078 48.2275L40.1945 36.4265Z" fill="#59320F"/>
</g>
<path d="M39.2301 53.9998C37.8462 54.3632 34.8622 55.6291 36.4568 59.6002C37.9673 63.3545 41.9965 63.1774 44 62.8285" fill="#FFD9B7"/>
<path d="M39.4799 33.4202C39.4799 33.4202 46.4812 51.4253 48.7735 58.9914C49.0094 59.7679 48.0485 60.3328 47.485 59.7508C44.3376 56.4989 38.2801 51.5497 35.1899 57.7302C35.1899 57.7302 33.3595 60.6073 30.6997 46.2987L39.4799 33.4202Z" fill="#59320F"/>
<path d="M72.3701 39.1401C72.3701 39.1401 83.8101 47.7201 78.0901 52.0101" stroke="#E79E5C" stroke-width="1.43" stroke-linecap="round"/>
<path d="M42.8956 80.7693C42.8956 80.7693 59.4994 76.3206 69.5094 89.1906L72.3694 94.9106C72.3694 94.9106 68.4597 81.6073 79.7095 79.6782L85.4868 82.8385L75.2294 102.061L37.6704 86.2305L42.8956 80.7693Z" fill="#80B655"/>
<path d="M72.3701 94.9102C72.3701 94.9102 83.8101 106.35 76.6601 176.42H79.5201C79.5201 176.42 90.9601 116.36 72.3701 94.9102Z" fill="#609835"/>
<path d="M69.5098 59.16L85.2398 56.3C85.2398 56.3 80.9498 69.17 69.5098 59.16Z" fill="white"/>
<path d="M33.76 124.94C32.433 112.994 31.615 105.635 21.605 104.205C17.0762 103.557 11.738 107.611 9.66307 111.69C-0.777359 132.227 -12 170.7 -12 170.7C-12 170.7 3.87872 177.914 25.2529 183.787C28.6921 173.447 36.1295 146.26 33.76 124.94Z" fill="#00883E"/>
<path d="M112.41 163.55C112.41 163.55 123.85 179.28 138.15 167.84C148.618 159.466 159.087 148.792 163.945 143.674C165.809 141.71 158.595 139.382 156.025 138.525C151.735 137.095 150.305 135.665 147.675 125.907C147.285 124.461 144.801 126.769 143.631 127.706L131 137.81C131 137.81 118.13 100.63 116.7 97.77C115.36 95.0888 111.508 87.3854 101.611 86.4287C105.081 90.0366 108.817 94.8014 109.55 99.2C109.55 99.2 115.27 143.53 112.41 163.55Z" fill="#00883E"/>
<path fill-rule="evenodd" clip-rule="evenodd" d="M112.308 167.219C112.369 166.034 112.409 164.812 112.409 163.55C112.225 164.844 112.202 166.064 112.308 167.219Z" stroke="white" stroke-width="1.43"/>
<path d="M131 137.81C131 137.81 122.42 143.53 120.99 147.82C120.99 147.82 119.56 139.24 131 137.81Z" fill="#296434"/>
<path d="M46.0478 131.23L48.9893 146.016C49.5242 148.701 52.5415 150.053 54.8952 148.654C61.2702 144.868 74.6936 140.044 98.3072 144.689C100.088 145.038 101.881 144.128 102.653 142.488L109.504 127.932C110.452 125.92 109.573 123.513 107.536 122.62C99.4054 119.056 78.0012 112.73 48.2715 126.851C46.6184 127.636 45.6903 129.434 46.0478 131.23Z" fill="#84D7CC"/>
<path d="M47.7008 131.543L49.4626 146.517C49.7829 149.237 52.683 150.821 55.1411 149.614C61.7949 146.344 75.5587 142.597 98.7318 149.097C100.478 149.586 102.338 148.822 103.238 147.246L111.219 133.279C112.323 131.349 111.638 128.879 109.677 127.828C101.855 123.631 81.0184 115.632 50.2634 127.355C48.5531 128.007 47.4878 129.726 47.7008 131.543Z" fill="#E8FFFC"/>
<path d="M101.68 131.32C101.248 130.887 100.545 130.895 100.122 131.336L97.8051 133.75L92.3691 131.951C92.2355 131.907 92.0884 131.942 91.9889 132.041L91.2975 132.732C91.1275 132.902 91.1608 133.187 91.3655 133.313L95.677 135.967L93.2924 138.452L91.9516 138.232C91.8333 138.213 91.7129 138.251 91.6281 138.336L91.1092 138.855C90.9152 139.049 90.9905 139.379 91.2494 139.47L92.9386 140.061L93.5303 141.751C93.621 142.01 93.9509 142.085 94.1449 141.891L94.6638 141.372C94.7486 141.287 94.7873 141.167 94.7679 141.048L94.5478 139.708L97.0327 137.323L99.6873 141.634C99.8134 141.839 100.098 141.873 100.268 141.703L100.959 141.011C101.058 140.912 101.093 140.764 101.049 140.631L99.2502 135.195L101.664 132.878C102.105 132.455 102.113 131.752 101.68 131.32Z" fill="#00883E"/>
<path d="M34.4752 157.115C35.3032 157.304 36.8319 151.016 39.2157 145.452C41.8826 139.229 43.9561 131.82 46.3271 129.745C48.0588 128.231 51.3693 126.241 53.0295 125.279C53.6687 124.909 54.4195 124.789 55.1416 124.939L61.1648 126.184C62.0628 126.37 62.7892 127.032 63.0567 127.912L64.674 133.226C64.6883 133.276 64.684 133.327 64.6568 133.37C64.3851 133.82 62.7492 136.259 60.8659 133.334C60.8545 133.317 60.8402 133.3 60.8244 133.289C60.7429 133.231 60.4398 132.968 60.1838 132.05C60.0108 131.434 59.4688 130.992 58.831 130.94C58.2376 130.89 57.431 130.755 56.4686 130.421C55.8394 130.203 55.1473 130.261 54.5768 130.603L60.2152 132.805C61.149 133.13 61.7153 134.68 61.6452 135.665C61.6452 135.665 61.4379 138.428 61.4379 138.933C61.4379 139.386 59.4902 146.131 58.9197 147.867C58.7524 148.375 55.9252 151.395 54.9514 151.321C53.6801 151.224 53.796 149.049 54.4323 147.929L56.2441 144.737C56.3113 144.617 56.227 144.47 56.0911 144.468C55.552 144.467 54.3623 144.385 52.9308 143.815C52.8164 143.769 52.6906 143.845 52.682 143.966C52.5519 146.016 51.6252 158.109 44.4852 161.405C37.7728 164.504 31.834 163.981 34.4752 157.115Z" fill="#F2CBA8"/>
<path d="M52.2529 138.236C52.2529 138.236 58.5592 139.484 60.9302 140.67" stroke="#E79E5C" stroke-width="0.715"/>
<path d="M52.2529 133.946C52.2529 133.946 58.5592 135.194 60.9302 136.38" stroke="#E79E5C" stroke-width="0.89375" stroke-linecap="round" stroke-linejoin="round"/>
<path d="M34.1417 157.671C36.0065 160.041 39.7731 162.473 47.2863 161.479C49.3012 161.212 50.8227 163.27 49.9575 165.109L39.8145 186.659C39.3126 187.729 38.1457 188.316 36.9889 188.085L17.8555 184.258C16.1051 183.908 15.2371 181.924 16.1681 180.401L29.9232 157.894C30.8627 156.356 33.0278 156.254 34.1417 157.671Z" fill="#3B8646"/>
<path d="M77.4611 27.1198C71.5796 20.0227 64.9086 15.1578 61.3479 12.8298C59.7334 11.7744 57.7686 11.3826 55.8767 11.7701C35.7094 15.9186 28.7868 29.6837 26.6976 35.6397C26.1141 37.3028 26.1713 39.1132 26.8263 40.7505C27.853 43.3174 29.5948 47.676 31.3694 52.1119C35.4091 40.4288 47.1065 19.0917 77.4611 27.1198Z" fill="#003D35"/>
<mask id="mask5_5567_163427" style="mask-type:alpha" maskUnits="userSpaceOnUse" x="116" y="-100" width="297" height="218">
<path fill-rule="evenodd" clip-rule="evenodd" d="M257.555 -99.5701C183.91 -99.5701 118.276 -68.0943 116.7 9.10993C115.27 79.1799 163.89 117.79 257.555 117.79C335.347 117.79 411.28 96.3399 412.71 23.4099C414.48 -66.946 335.347 -99.5701 257.555 -99.5701Z" fill="white"/>
</mask>
<g mask="url(#mask5_5567_163427)">
<path d="M93.105 152.825H387.685V-91.7051H93.105V152.825Z" fill="#117367"/>
</g>
<mask id="mask6_5567_163427" style="mask-type:alpha" maskUnits="userSpaceOnUse" x="116" y="-100" width="297" height="218">
<path fill-rule="evenodd" clip-rule="evenodd" d="M257.555 -99.5701C183.91 -99.5701 118.276 -68.0943 116.7 9.10993C115.27 79.1799 163.89 117.79 257.555 117.79C335.347 117.79 411.28 96.3399 412.71 23.4099C414.48 -66.946 335.347 -99.5701 257.555 -99.5701Z" fill="white"/>
</mask>
<g mask="url(#mask6_5567_163427)">
<path d="M161.364 80.6758C161.378 80.6715 161.394 80.6686 161.408 80.6615C161.448 80.6457 161.481 80.6171 161.52 80.5971C161.88 80.3268 162.528 78.0646 162.528 78.0646C163.539 74.9658 162.019 72.7049 159.672 70.9403C157.128 69.027 154.652 67.0693 152.711 63.9919C152.424 63.5372 151.763 63.5558 151.493 64.022C149.456 67.5326 146.222 69.4145 143.536 71.8712C141.757 73.4972 140.961 75.5135 141.633 77.8944C141.793 78.4678 141.91 78.9283 141.998 79.2987C142.195 80.1509 142.956 80.7473 143.829 80.7473H159.755C159.755 80.7473 160.386 80.7458 161.228 80.7001C161.272 80.6901 161.321 80.6901 161.364 80.6758Z" fill="#DF9F1C"/>
</g>
<mask id="mask7_5567_163427" style="mask-type:alpha" maskUnits="userSpaceOnUse" x="116" y="-100" width="297" height="218">
<path fill-rule="evenodd" clip-rule="evenodd" d="M257.555 -99.5701C183.91 -99.5701 118.276 -68.0943 116.7 9.10993C115.27 79.1799 163.89 117.79 257.555 117.79C335.347 117.79 411.28 96.3399 412.71 23.4099C414.48 -66.946 335.347 -99.5701 257.555 -99.5701Z" fill="white"/>
</mask>
<g mask="url(#mask7_5567_163427)">
<path d="M163.129 69.1714C163.108 69.18 163.088 69.1857 163.066 69.1914C163.088 69.1843 163.108 69.18 163.129 69.1714Z" fill="#F5C50B"/>
</g>
<mask id="mask8_5567_163427" style="mask-type:alpha" maskUnits="userSpaceOnUse" x="116" y="-100" width="297" height="218">
<path fill-rule="evenodd" clip-rule="evenodd" d="M257.555 -99.5701C183.91 -99.5701 118.276 -68.0943 116.7 9.10993C115.27 79.1799 163.89 117.79 257.555 117.79C335.347 117.79 411.28 96.3399 412.71 23.4099C414.48 -66.946 335.347 -99.5701 257.555 -99.5701Z" fill="white"/>
</mask>
<g mask="url(#mask8_5567_163427)">
<path d="M162.869 69.2257C161.646 69.2943 160.727 69.2943 160.727 69.2943H162.475C162.613 69.2943 162.739 69.2557 162.869 69.2257Z" fill="#F5C50B"/>
</g>
<mask id="mask9_5567_163427" style="mask-type:alpha" maskUnits="userSpaceOnUse" x="116" y="-100" width="297" height="218">
<path fill-rule="evenodd" clip-rule="evenodd" d="M257.555 -99.5701C183.91 -99.5701 118.276 -68.0943 116.7 9.10993C115.27 79.1799 163.89 117.79 257.555 117.79C335.347 117.79 411.28 96.3399 412.71 23.4099C414.48 -66.946 335.347 -99.5701 257.555 -99.5701Z" fill="white"/>
</mask>
<g mask="url(#mask9_5567_163427)">
<path d="M192.981 68.0408C193.003 68.035 193.024 68.0293 193.046 68.0207C193.104 67.9979 193.153 67.955 193.209 67.9278C193.734 67.5345 194.675 64.2455 194.675 64.2455C196.145 59.741 193.934 56.4549 190.523 53.8895C186.825 51.1067 183.225 48.261 180.403 43.7894C179.986 43.1273 179.025 43.1545 178.633 43.8309C175.673 48.9345 170.971 51.6715 167.066 55.2408C164.479 57.606 163.322 60.5347 164.297 63.9981C164.532 64.8304 164.705 65.5011 164.829 66.0402C165.115 67.2771 166.222 68.1451 167.492 68.1451H190.643C190.643 68.1451 191.561 68.1437 192.784 68.0751C192.85 68.0608 192.92 68.0622 192.981 68.0408Z" fill="#FFD37B"/>
</g>
<mask id="mask10_5567_163427" style="mask-type:alpha" maskUnits="userSpaceOnUse" x="116" y="-100" width="297" height="218">
<path fill-rule="evenodd" clip-rule="evenodd" d="M257.555 -99.5701C183.91 -99.5701 118.276 -68.0943 116.7 9.10993C115.27 79.1799 163.89 117.79 257.555 117.79C335.347 117.79 411.28 96.3399 412.71 23.4099C414.48 -66.946 335.347 -99.5701 257.555 -99.5701Z" fill="white"/>
</mask>
<g mask="url(#mask10_5567_163427)">
<path d="M160.237 122.169H144.744C143.303 122.169 142.134 121.001 142.134 119.56V85.6571C142.134 84.2157 143.303 83.0488 144.744 83.0488H160.237C161.678 83.0488 162.846 84.2157 162.846 85.6571V119.56C162.846 121.001 161.678 122.169 160.237 122.169Z" fill="#4BA859"/>
</g>
<mask id="mask11_5567_163427" style="mask-type:alpha" maskUnits="userSpaceOnUse" x="116" y="-100" width="297" height="218">
<path fill-rule="evenodd" clip-rule="evenodd" d="M257.555 -99.5701C183.91 -99.5701 118.276 -68.0943 116.7 9.10993C115.27 79.1799 163.89 117.79 257.555 117.79C335.347 117.79 411.28 96.3399 412.71 23.4099C414.48 -66.946 335.347 -99.5701 257.555 -99.5701Z" fill="white"/>
</mask>
<g mask="url(#mask11_5567_163427)">
<path d="M190.126 115.32H168.965C167.184 115.32 165.738 113.876 165.738 112.094V73.6728C165.738 71.8896 167.184 70.4453 168.965 70.4453H190.126C191.908 70.4453 193.353 71.8896 193.353 73.6728V112.094C193.353 113.876 191.908 115.32 190.126 115.32Z" fill="#00883E"/>
</g>
<mask id="mask12_5567_163427" style="mask-type:alpha" maskUnits="userSpaceOnUse" x="116" y="-100" width="297" height="218">
<path fill-rule="evenodd" clip-rule="evenodd" d="M257.555 -99.5701C183.91 -99.5701 118.276 -68.0943 116.7 9.10993C115.27 79.1799 163.89 117.79 257.555 117.79C335.347 117.79 411.28 96.3399 412.71 23.4099C414.48 -66.946 335.347 -99.5701 257.555 -99.5701Z" fill="white"/>
</mask>
<g mask="url(#mask12_5567_163427)">
<path d="M155.938 115.38H148.997C148.36 115.38 147.843 114.863 147.843 114.225V102.315C147.843 102.007 147.964 101.714 148.182 101.498L151.651 98.0274C152.103 97.5755 152.833 97.5755 153.285 98.0274L156.755 101.498C156.972 101.714 157.093 102.007 157.093 102.315V114.225C157.093 114.863 156.576 115.38 155.938 115.38Z" fill="white"/>
</g>
<mask id="mask13_5567_163427" style="mask-type:alpha" maskUnits="userSpaceOnUse" x="116" y="-100" width="297" height="218">
<path fill-rule="evenodd" clip-rule="evenodd" d="M257.555 -99.5701C183.91 -99.5701 118.276 -68.0943 116.7 9.10993C115.27 79.1799 163.89 117.79 257.555 117.79C335.347 117.79 411.28 96.3399 412.71 23.4099C414.48 -66.946 335.347 -99.5701 257.555 -99.5701Z" fill="white"/>
</mask>
<g mask="url(#mask13_5567_163427)">
<path d="M215.444 72.6758C215.458 72.6715 215.474 72.6686 215.486 72.6615C215.528 72.6457 215.561 72.6171 215.599 72.5971C215.96 72.3268 216.608 70.0646 216.608 70.0646C217.619 66.9658 216.099 64.7049 213.752 62.9403C211.208 61.027 208.731 59.0693 206.791 55.9919C206.503 55.5372 205.843 55.5558 205.572 56.022C203.536 59.5326 200.301 61.4145 197.616 63.8712C195.837 65.4972 195.04 67.5135 195.712 69.8944C195.873 70.4678 195.99 70.9283 196.077 71.2987C196.274 72.1509 197.035 72.7473 197.909 72.7473H213.835C213.835 72.7473 214.465 72.7458 215.308 72.7001C215.352 72.6901 215.401 72.6901 215.444 72.6758Z" fill="#DF9F1C"/>
</g>
<mask id="mask14_5567_163427" style="mask-type:alpha" maskUnits="userSpaceOnUse" x="116" y="-100" width="297" height="218">
<path fill-rule="evenodd" clip-rule="evenodd" d="M257.555 -99.5701C183.91 -99.5701 118.276 -68.0943 116.7 9.10993C115.27 79.1799 163.89 117.79 257.555 117.79C335.347 117.79 411.28 96.3399 412.71 23.4099C414.48 -66.946 335.347 -99.5701 257.555 -99.5701Z" fill="white"/>
</mask>
<g mask="url(#mask14_5567_163427)">
<path d="M214.316 114.169H198.824C197.382 114.169 196.214 113.001 196.214 111.56V77.6571C196.214 76.2157 197.382 75.0488 198.824 75.0488H214.316C215.758 75.0488 216.926 76.2157 216.926 77.6571V111.56C216.926 113.001 215.758 114.169 214.316 114.169Z" fill="#4BA859"/>
</g>
<mask id="mask15_5567_163427" style="mask-type:alpha" maskUnits="userSpaceOnUse" x="116" y="-100" width="297" height="218">
<path fill-rule="evenodd" clip-rule="evenodd" d="M257.555 -99.5701C183.91 -99.5701 118.276 -68.0943 116.7 9.10993C115.27 79.1799 163.89 117.79 257.555 117.79C335.347 117.79 411.28 96.3399 412.71 23.4099C414.48 -66.946 335.347 -99.5701 257.555 -99.5701Z" fill="white"/>
</mask>
<g mask="url(#mask15_5567_163427)">
<path d="M210.017 107.38H203.076C202.44 107.38 201.922 106.863 201.922 106.225V94.3145C201.922 94.0071 202.043 93.7139 202.261 93.498L205.73 90.0274C206.182 89.5755 206.913 89.5755 207.364 90.0274L210.834 93.498C211.051 93.7139 211.173 94.0071 211.173 94.3145V106.225C211.173 106.863 210.655 107.38 210.017 107.38Z" fill="#FFE7B8"/>
</g>
<mask id="mask16_5567_163427" style="mask-type:alpha" maskUnits="userSpaceOnUse" x="116" y="-100" width="297" height="218">
<path fill-rule="evenodd" clip-rule="evenodd" d="M257.555 -99.5701C183.91 -99.5701 118.276 -68.0943 116.7 9.10993C115.27 79.1799 163.89 117.79 257.555 117.79C335.347 117.79 411.28 96.3399 412.71 23.4099C414.48 -66.946 335.347 -99.5701 257.555 -99.5701Z" fill="white"/>
</mask>
<g mask="url(#mask16_5567_163427)">
<path d="M184.51 121.365H174.581C173.669 121.365 172.93 120.791 172.93 120.084V95.6777C172.93 95.3374 173.104 95.0114 173.413 94.7711L178.378 90.923C179.023 90.4225 180.07 90.4225 180.715 90.923L185.678 94.7711C185.988 95.0114 186.161 95.3374 186.161 95.6777V120.084C186.161 120.791 185.422 121.365 184.51 121.365Z" fill="#FFE7B8"/>
</g>
<mask id="mask17_5567_163427" style="mask-type:alpha" maskUnits="userSpaceOnUse" x="116" y="-100" width="297" height="218">
<path fill-rule="evenodd" clip-rule="evenodd" d="M257.555 -99.5701C183.91 -99.5701 118.276 -68.0943 116.7 9.10993C115.27 79.1799 163.89 117.79 257.555 117.79C335.347 117.79 411.28 96.3399 412.71 23.4099C414.48 -66.946 335.347 -99.5701 257.555 -99.5701Z" fill="white"/>
</mask>
<g mask="url(#mask17_5567_163427)">
<path d="M272.901 -8.82896C274.923 -9.67838 277.2 -9.68553 279.227 -8.85041L339.857 16.1131C342.961 17.3915 344.979 20.4274 344.956 23.785L344.36 112.722C344.334 116.396 341.882 119.608 338.344 120.599L278.778 137.277C277.439 137.652 276.024 137.682 274.671 137.363L214.194 123.134C210.454 122.253 207.82 118.904 207.844 115.063L208.442 23.6635C208.464 20.3673 210.449 17.4015 213.489 16.1245L272.901 -8.82896Z" fill="#163C35"/>
</g>
<mask id="mask18_5567_163427" style="mask-type:alpha" maskUnits="userSpaceOnUse" x="116" y="-100" width="297" height="218">
<path fill-rule="evenodd" clip-rule="evenodd" d="M257.555 -99.5701C183.91 -99.5701 118.276 -68.0943 116.7 9.10993C115.27 79.1799 163.89 117.79 257.555 117.79C335.347 117.79 411.28 96.3399 412.71 23.4099C414.48 -66.946 335.347 -99.5701 257.555 -99.5701Z" fill="white"/>
</mask>
<g mask="url(#mask18_5567_163427)">
<path d="M339.856 16.114L279.227 -8.8509C277.2 -9.68602 274.923 -9.67887 272.902 -8.82945L213.489 16.1241C210.449 17.401 208.464 20.3669 208.442 23.6644L208.236 55.0529L276.736 30.61L344.758 53.2912L344.956 23.7846C344.979 20.4269 342.961 17.3925 339.856 16.114Z" fill="#47A99C"/>
</g>
<mask id="mask19_5567_163427" style="mask-type:alpha" maskUnits="userSpaceOnUse" x="116" y="-100" width="297" height="218">
<path fill-rule="evenodd" clip-rule="evenodd" d="M257.555 -99.5701C183.91 -99.5701 118.276 -68.0943 116.7 9.10993C115.27 79.1799 163.89 117.79 257.555 117.79C335.347 117.79 411.28 96.3399 412.71 23.4099C414.48 -66.946 335.347 -99.5701 257.555 -99.5701Z" fill="white"/>
</mask>
<g mask="url(#mask19_5567_163427)">
<path d="M344.853 39.1656L344.956 23.7845C344.979 20.4269 342.961 17.391 339.857 16.114L279.227 -8.85239C277.2 -9.68608 274.923 -9.67893 272.902 -8.82951L213.489 16.124C210.449 17.401 208.464 20.3668 208.442 23.6644L208.342 38.9339L276.736 15.6249L344.853 39.1656Z" fill="#FFD37B"/>
</g>
<mask id="mask20_5567_163427" style="mask-type:alpha" maskUnits="userSpaceOnUse" x="116" y="-100" width="297" height="218">
<path fill-rule="evenodd" clip-rule="evenodd" d="M257.555 -99.5701C183.91 -99.5701 118.276 -68.0943 116.7 9.10993C115.27 79.1799 163.89 117.79 257.555 117.79C335.347 117.79 411.28 96.3399 412.71 23.4099C414.48 -66.946 335.347 -99.5701 257.555 -99.5701Z" fill="white"/>
</mask>
<g mask="url(#mask20_5567_163427)">
<path d="M324.043 56.39V67.9487C324.043 68.7223 324.566 69.3973 325.316 69.5903L330.896 71.0304C331.968 71.3078 333.015 70.497 333.015 69.3887V58.2519C333.015 57.5226 332.547 56.8734 331.855 56.6431L326.277 54.7813C325.177 54.4152 324.043 55.2317 324.043 56.39Z" fill="#FFE7B8"/>
</g>
<mask id="mask21_5567_163427" style="mask-type:alpha" maskUnits="userSpaceOnUse" x="116" y="-100" width="297" height="218">
<path fill-rule="evenodd" clip-rule="evenodd" d="M257.555 -99.5701C183.91 -99.5701 118.276 -68.0943 116.7 9.10993C115.27 79.1799 163.89 117.79 257.555 117.79C335.347 117.79 411.28 96.3399 412.71 23.4099C414.48 -66.946 335.347 -99.5701 257.555 -99.5701Z" fill="white"/>
</mask>
<g mask="url(#mask21_5567_163427)">
<path d="M208.182 63.5419L208.105 75.3237C208.097 76.4634 209.194 77.2856 210.288 76.9596L215.975 75.255C216.693 75.0405 217.185 74.3799 217.185 73.6306V61.58C217.185 60.4116 216.03 59.5923 214.927 59.9798L209.314 61.9532C208.639 62.1906 208.186 62.8269 208.182 63.5419Z" fill="#117367"/>
</g>
<mask id="mask22_5567_163427" style="mask-type:alpha" maskUnits="userSpaceOnUse" x="116" y="-100" width="297" height="218">
<path fill-rule="evenodd" clip-rule="evenodd" d="M257.555 -99.5701C183.91 -99.5701 118.276 -68.0943 116.7 9.10993C115.27 79.1799 163.89 117.79 257.555 117.79C335.347 117.79 411.28 96.3399 412.71 23.4099C414.48 -66.946 335.347 -99.5701 257.555 -99.5701Z" fill="white"/>
</mask>
<g mask="url(#mask22_5567_163427)">
<path d="M223.943 58.0125V70.5894C223.943 71.7248 225.038 72.5399 226.125 72.2139L231.705 70.5422C232.423 70.3277 232.915 69.667 232.915 68.9177V56.0506C232.915 54.8823 231.759 54.0629 230.657 54.4518L225.077 56.4124C224.398 56.6512 223.943 57.2932 223.943 58.0125Z" fill="#FFE7B8"/>
</g>
<mask id="mask23_5567_163427" style="mask-type:alpha" maskUnits="userSpaceOnUse" x="116" y="-100" width="297" height="218">
<path fill-rule="evenodd" clip-rule="evenodd" d="M257.555 -99.5701C183.91 -99.5701 118.276 -68.0943 116.7 9.10993C115.27 79.1799 163.89 117.79 257.555 117.79C335.347 117.79 411.28 96.3399 412.71 23.4099C414.48 -66.946 335.347 -99.5701 257.555 -99.5701Z" fill="white"/>
</mask>
<g mask="url(#mask23_5567_163427)">
<path d="M308.313 51.1427V63.8883C308.313 64.6619 308.836 65.3369 309.586 65.5314L315.166 66.9699C316.238 67.2474 317.285 66.4366 317.285 65.3283V53.0046C317.285 52.2738 316.817 51.626 316.125 51.3958L310.547 49.534C309.447 49.1679 308.313 49.9844 308.313 51.1427Z" fill="#117367"/>
</g>
<mask id="mask24_5567_163427" style="mask-type:alpha" maskUnits="userSpaceOnUse" x="116" y="-100" width="297" height="218">
<path fill-rule="evenodd" clip-rule="evenodd" d="M257.555 -99.5701C183.91 -99.5701 118.276 -68.0943 116.7 9.10993C115.27 79.1799 163.89 117.79 257.555 117.79C335.347 117.79 411.28 96.3399 412.71 23.4099C414.48 -66.946 335.347 -99.5701 257.555 -99.5701Z" fill="white"/>
</mask>
<g mask="url(#mask24_5567_163427)">
<path d="M292.583 45.8954V59.8279C292.583 60.6015 293.106 61.2765 293.856 61.471L299.436 62.9095C300.508 63.187 301.555 62.3761 301.555 61.2679V47.7558C301.555 47.0265 301.087 46.3787 300.395 46.1471L294.817 44.2866C293.717 43.9206 292.583 44.7371 292.583 45.8954Z" fill="#FFE7B8"/>
</g>
<mask id="mask25_5567_163427" style="mask-type:alpha" maskUnits="userSpaceOnUse" x="116" y="-100" width="297" height="218">
<path fill-rule="evenodd" clip-rule="evenodd" d="M257.555 -99.5701C183.91 -99.5701 118.276 -68.0943 116.7 9.10993C115.27 79.1799 163.89 117.79 257.555 117.79C335.347 117.79 411.28 96.3399 412.71 23.4099C414.48 -66.946 335.347 -99.5701 257.555 -99.5701Z" fill="white"/>
</mask>
<g mask="url(#mask25_5567_163427)">
<path d="M276.188 38.4471L272.267 39.8242C271.588 40.063 271.133 40.7051 271.133 41.4258V56.4508C271.133 57.5862 272.228 58.4013 273.316 58.0753L276.282 57.1873C276.578 57.0972 276.894 57.0929 277.193 57.1687L283.705 58.8504C284.779 59.1264 285.825 58.317 285.825 57.2087V42.5083C285.825 41.779 285.358 41.1298 284.666 40.8996L277.288 38.4385C276.93 38.3184 276.543 38.3227 276.188 38.4471Z" fill="#117367"/>
</g>
<mask id="mask26_5567_163427" style="mask-type:alpha" maskUnits="userSpaceOnUse" x="116" y="-100" width="297" height="218">
<path fill-rule="evenodd" clip-rule="evenodd" d="M257.555 -99.5701C183.91 -99.5701 118.276 -68.0943 116.7 9.10993C115.27 79.1799 163.89 117.79 257.555 117.79C335.347 117.79 411.28 96.3399 412.71 23.4099C414.48 -66.946 335.347 -99.5701 257.555 -99.5701Z" fill="white"/>
</mask>
<g mask="url(#mask26_5567_163427)">
<path d="M239.673 52.4832V65.8766C239.673 67.012 240.768 67.8271 241.855 67.5011L247.435 65.8294C248.153 65.6149 248.645 64.9542 248.645 64.2049V50.5227C248.645 49.3529 247.489 48.535 246.387 48.9225L240.807 50.883C240.128 51.1219 239.673 51.7639 239.673 52.4832Z" fill="#117367"/>
</g>
<mask id="mask27_5567_163427" style="mask-type:alpha" maskUnits="userSpaceOnUse" x="116" y="-100" width="297" height="218">
<path fill-rule="evenodd" clip-rule="evenodd" d="M257.555 -99.5701C183.91 -99.5701 118.276 -68.0943 116.7 9.10993C115.27 79.1799 163.89 117.79 257.555 117.79C335.347 117.79 411.28 96.3399 412.71 23.4099C414.48 -66.946 335.347 -99.5701 257.555 -99.5701Z" fill="white"/>
</mask>
<g mask="url(#mask27_5567_163427)">
<path d="M255.403 46.9545V61.1644C255.403 62.2998 256.499 63.1149 257.586 62.7889L263.165 61.1172C263.883 60.9013 264.375 60.2421 264.375 59.4928V44.9926C264.375 43.8242 263.22 43.0049 262.117 43.3924L256.537 45.3543C255.858 45.5932 255.403 46.2352 255.403 46.9545Z" fill="#FFE7B8"/>
</g>
<mask id="mask28_5567_163427" style="mask-type:alpha" maskUnits="userSpaceOnUse" x="116" y="-100" width="297" height="218">
<path fill-rule="evenodd" clip-rule="evenodd" d="M257.555 -99.5701C183.91 -99.5701 118.276 -68.0943 116.7 9.10993C115.27 79.1799 163.89 117.79 257.555 117.79C335.347 117.79 411.28 96.3399 412.71 23.4099C414.48 -66.946 335.347 -99.5701 257.555 -99.5701Z" fill="white"/>
</mask>
<g mask="url(#mask28_5567_163427)">
<path d="M308.213 96.8421L294.955 95.1847C292.458 94.873 290.252 96.8206 290.252 99.3374V134.065L311.878 128.009V100.995C311.878 98.8841 310.306 97.1038 308.213 96.8421Z" fill="#BBF0D3"/>
</g>
<mask id="mask29_5567_163427" style="mask-type:alpha" maskUnits="userSpaceOnUse" x="116" y="-100" width="297" height="218">
<path fill-rule="evenodd" clip-rule="evenodd" d="M257.555 -99.5701C183.91 -99.5701 118.276 -68.0943 116.7 9.10993C115.27 79.1799 163.89 117.79 257.555 117.79C335.347 117.79 411.28 96.3399 412.71 23.4099C414.48 -66.946 335.347 -99.5701 257.555 -99.5701Z" fill="white"/>
</mask>
<g mask="url(#mask29_5567_163427)">
<path d="M276.736 -8.80347V138.525" stroke="#357067" stroke-width="1.35135"/>
</g>
<path d="M90.3901 122.08L88.4839 126.707" stroke="#2FAE71" stroke-width="1.0296" stroke-linecap="round" stroke-linejoin="round"/>
<path d="M86.4186 131.726L83.3198 139.254" stroke="#2FAE71" stroke-width="1.0296" stroke-linecap="round" stroke-linejoin="round" stroke-dasharray="5.43 5.43"/>
<path d="M82.2856 141.762L80.3794 146.389" stroke="#2FAE71" stroke-width="1.0296" stroke-linecap="round" stroke-linejoin="round"/>
<path d="M153.815 12.4628C154.468 11.9709 153.931 11.2973 153.068 11.2644C148.299 11.0814 141.901 13.4352 141.901 20.4279C141.901 27.6394 147.445 29.7744 153.429 29.8445C154.262 29.8544 154.738 29.0894 154.098 28.6232C151.445 26.6899 147.445 24.2102 147.445 20.4279C147.445 16.8329 151.169 14.4533 153.815 12.4628Z" fill="#F2C363"/>
</g>
<mask id="mask30_5567_163427" style="mask-type:alpha" maskUnits="userSpaceOnUse" x="71" y="64" width="16" height="11">
<path fill-rule="evenodd" clip-rule="evenodd" d="M71 64H87V75H71V64Z" fill="white"/>
</mask>
<g mask="url(#mask30_5567_163427)">
<path d="M72.0571 69.1423C76.144 68.8603 84.0654 67.8213 87 64V71.8709C87 75.4574 78.074 76.8649 71.4097 71.1271C70.6321 70.458 71.0243 69.2131 72.0571 69.1423Z" fill="#59320F"/>
</g>
<path d="M246.333 85.3954L244.586 88.5878L241.395 90.333C240.868 90.6218 240.868 91.3782 241.395 91.667L244.586 93.4122L246.333 96.6046C246.62 97.1318 247.378 97.1318 247.666 96.6046L249.412 93.4122L252.605 91.667C253.132 91.3782 253.132 90.6218 252.605 90.333L249.412 88.5878L247.666 85.3954C247.378 84.8682 246.62 84.8682 246.333 85.3954Z" fill="#D8B56D"/>
<path d="M96.333 12.3954L94.5862 15.5878L91.3954 17.333C90.8682 17.6218 90.8682 18.3782 91.3954 18.667L94.5862 20.4122L96.333 23.6046C96.6202 24.1318 97.3782 24.1318 97.6655 23.6046L99.4122 20.4122L102.605 18.667C103.132 18.3782 103.132 17.6218 102.605 17.333L99.4122 15.5878L97.6655 12.3954C97.3782 11.8682 96.6202 11.8682 96.333 12.3954Z" fill="#D8B56D"/>
<path d="M217.555 134.264L216.391 136.392L214.264 137.555C213.912 137.748 213.912 138.252 214.264 138.445L216.391 139.608L217.555 141.736C217.747 142.088 218.252 142.088 218.444 141.736L219.608 139.608L221.736 138.445C222.088 138.252 222.088 137.748 221.736 137.555L219.608 136.392L218.444 134.264C218.252 133.912 217.747 133.912 217.555 134.264Z" fill="#D8B56D"/>
<path d="M137.555 93.2636L136.391 95.3918L134.264 96.5553C133.912 96.7479 133.912 97.2521 134.264 97.4447L136.391 98.6082L137.555 100.736C137.747 101.088 138.252 101.088 138.444 100.736L139.608 98.6082L141.736 97.4447C142.088 97.2521 142.088 96.7479 141.736 96.5553L139.608 95.3918L138.444 93.2636C138.252 92.9121 137.747 92.9121 137.555 93.2636Z" fill="#FFC54F"/>
<path d="M163.555 16.2636L162.391 18.3918L160.264 19.5553C159.912 19.7479 159.912 20.2521 160.264 20.4447L162.391 21.6082L163.555 23.7364C163.747 24.0879 164.252 24.0879 164.444 23.7364L165.608 21.6082L167.736 20.4447C168.088 20.2521 168.088 19.7479 167.736 19.5553L165.608 18.3918L164.444 16.2636C164.252 15.9121 163.747 15.9121 163.555 16.2636Z" fill="#D8B56D"/>
</svg>
