<svg width="328" height="164" viewBox="0 0 328 164" fill="none" xmlns="http://www.w3.org/2000/svg">
<path fill-rule="evenodd" clip-rule="evenodd" d="M23.2189 161.504C33.6809 163.667 265.053 165.826 301.876 161.504C312.777 160.224 321.503 148.276 322.776 146.203C330.736 133.238 327.751 53.2794 325.761 26.266C324.69 11.7278 309.838 5.19571 302.871 3.03482C289.548 -1.09779 53.2799 -1.26366 22.2229 4.11573C8.32787 6.52168 3.29087 17.8712 2.29087 24.1796C-0.0421274 38.8847 -1.42113 129.331 2.31887 141.514C5.30487 151.239 12.7689 159.343 23.2189 161.504Z" fill="#EDFFF5"/>
<mask id="mask0_5567_159219" style="mask-type:alpha" maskUnits="userSpaceOnUse" x="0" y="0" width="328" height="164">
<path fill-rule="evenodd" clip-rule="evenodd" d="M23.2189 161.504C33.6809 163.667 265.053 165.826 301.876 161.504C312.777 160.224 321.503 148.276 322.776 146.203C330.736 133.238 327.751 53.2794 325.761 26.266C324.69 11.7278 309.838 5.19571 302.871 3.03482C289.548 -1.09779 53.2799 -1.26366 22.2229 4.11573C8.32787 6.52168 3.29087 17.8712 2.29087 24.1796C-0.0421274 38.8847 -1.42113 129.331 2.31887 141.514C5.30487 151.239 12.7689 159.343 23.2189 161.504Z" fill="white"/>
</mask>
<g mask="url(#mask0_5567_159219)">
<path fill-rule="evenodd" clip-rule="evenodd" d="M-16.4438 94.3751H53.7802V6.44678H-16.4438V94.3751Z" fill="#BBF0D3"/>
<mask id="mask1_5567_159219" style="mask-type:alpha" maskUnits="userSpaceOnUse" x="19" y="9" width="20" height="9">
<path fill-rule="evenodd" clip-rule="evenodd" d="M25.7092 13.9524C25.2126 13.794 24.6841 13.7121 24.133 13.7121C21.7281 13.7121 19.7061 15.3181 19.0723 17.5121V17.5133H25.748H29.1866H37.8079C37.9812 16.9328 38.0792 16.3134 38.0792 15.6729C38.0792 12.195 35.2583 9.375 31.7735 9.375C28.8934 9.375 26.4634 11.3127 25.7092 13.9524Z" fill="white"/>
</mask>
<g mask="url(#mask1_5567_159219)">
<path fill-rule="evenodd" clip-rule="evenodd" d="M15.3003 21.2843H41.8501V5.60352H15.3003V21.2843Z" fill="#EDFFF5"/>
</g>
<path fill-rule="evenodd" clip-rule="evenodd" d="M-17.5762 98.1229H54.9129V92.1763H-17.5762V98.1229Z" fill="white"/>
<path fill-rule="evenodd" clip-rule="evenodd" d="M-17.5762 50.2065H54.9129V49.2163H-17.5762V50.2065Z" fill="#EDFFF5"/>
<path fill-rule="evenodd" clip-rule="evenodd" d="M15.4796 60.5208C14.6251 58.3801 12.5318 56.8721 10.0857 56.8721C7.5969 56.8721 5.47657 58.433 4.64396 60.6266C4.02225 60.2884 3.30959 60.099 2.55107 60.099C0.119888 60.099 -1.84717 62.0661 -1.84717 64.491C-1.84717 64.6913 -1.8307 64.8924 -1.80444 65.0868H4.79174H6.9007H11.2198H15.3734H19.0911C19.1229 64.8924 19.1386 64.6913 19.1386 64.491C19.1386 62.4036 17.5302 60.6843 15.4796 60.5208Z" fill="white"/>
<path fill-rule="evenodd" clip-rule="evenodd" d="M-18 8.64583H62.5368V5.21387H-18V8.64583Z" fill="#84D7CC"/>
<path fill-rule="evenodd" clip-rule="evenodd" d="M63.9533 10.5228H63.2156C62.3637 10.5228 61.6738 9.83213 61.6738 8.97953V4.66635C61.6738 3.81414 62.3637 3.12305 63.2156 3.12305H63.9533C64.8055 3.12305 65.4958 3.81414 65.4958 4.66635V8.97953C65.4958 9.83213 64.8055 10.5228 63.9533 10.5228Z" fill="#84D7CC"/>
<path fill-rule="evenodd" clip-rule="evenodd" d="M59.5264 31.3285C59.5264 32.3254 58.7185 33.1341 57.7217 33.1341C56.7248 33.1341 55.9165 32.3254 55.9165 31.3285C55.9165 30.332 56.7248 29.5229 57.7217 29.5229C58.7185 29.5229 59.5264 30.332 59.5264 31.3285Z" fill="#84D7CC"/>
<path d="M57.5674 6.87549L57.8022 29.8996" stroke="#84D7CC" stroke-width="0.754208"/>
<path d="M-16.4326 93.7028H53.7354" stroke="#84D7CC" stroke-width="0.754208"/>
<path d="M-15.2563 98.4069H54.9117" stroke="#BBF0D3" stroke-width="1.568"/>
<path fill-rule="evenodd" clip-rule="evenodd" d="M39.0202 81.2656C39.0202 81.2656 36.005 73.3124 44.5067 65.5029C44.5067 65.5029 49.3588 73.5119 39.0202 81.2656Z" fill="#84D7CC"/>
<path fill-rule="evenodd" clip-rule="evenodd" d="M39.4749 83.378C39.4749 83.378 31.3002 81.0295 30.1387 69.5439C30.1387 69.5439 39.4585 70.4546 39.4749 83.378Z" fill="#84D7CC"/>
<path fill-rule="evenodd" clip-rule="evenodd" d="M44.8461 80.895H30.7153V87.1925C30.7153 90.0713 33.0481 92.4045 35.9262 92.4045H39.6345C42.5134 92.4045 44.8461 90.0713 44.8461 87.1925V80.895Z" fill="#DAF6E5"/>
<path fill-rule="evenodd" clip-rule="evenodd" d="M35.3849 80.8952L34.2842 79.9121L39.2732 80.281L39.3649 80.8952H35.3849Z" fill="#EDFFF5"/>
<mask id="mask2_5567_159219" style="mask-type:alpha" maskUnits="userSpaceOnUse" x="34" y="79" width="6" height="2">
<path fill-rule="evenodd" clip-rule="evenodd" d="M35.3849 80.8953H39.3649L39.2732 80.2807L34.2842 79.9126L35.3849 80.8953Z" fill="white"/>
</mask>
<g mask="url(#mask2_5567_159219)">
<path fill-rule="evenodd" clip-rule="evenodd" d="M29.8779 92.6438H46.1765V65.479H29.8779V92.6438Z" fill="#EDFFF5"/>
<path fill-rule="evenodd" clip-rule="evenodd" d="M30.4038 84.7764H43.2457V76.0312H30.4038V84.7764Z" fill="#EDFFF5"/>
</g>
<rect x="-7.479" y="139.86" width="347" height="46" fill="#EBFFE0"/>
<path d="M46.7446 124.204C46.7446 124.204 47.1596 112.149 57.1366 112.149C67.1116 112.149 66.6956 124.204 66.6956 124.204" stroke="#BBF0D3" stroke-width="2.91"/>
<path fill-rule="evenodd" clip-rule="evenodd" d="M154.035 150.375L147.541 135.053L134.299 126.619L132.569 126.793L130.047 120.841L116.805 112.408L98.5205 114.254L95.2215 130.565L84.8445 131.613L81.5435 147.924L94.7855 156.358L95.5125 155.748L122.588 154.119L121.074 150.1L125.957 153.21L154.035 150.375Z" fill="#BBF0D3"/>
<path fill-rule="evenodd" clip-rule="evenodd" d="M308.925 152.36L303.458 139.461L292.311 132.361L290.854 132.507L288.731 127.497L277.583 120.396L262.191 121.951L259.413 135.683L250.677 136.565L247.899 150.296L259.047 157.396L259.658 156.882L282.452 155.512L281.177 152.128L285.288 154.746L308.925 152.36Z" fill="#BBF0D3"/>
<path fill-rule="evenodd" clip-rule="evenodd" d="M252.978 109.365C252.721 108.504 252.253 107.719 251.607 107.074C251.478 106.945 251.343 106.823 251.204 106.708C250.924 106.478 250.624 106.277 250.31 106.106C249.836 105.849 249.328 105.662 248.795 105.552C248.441 105.478 248.076 105.439 247.705 105.436L241.331 105.406C241.348 105.375 241.368 105.346 241.385 105.316C242.698 102.894 242.571 99.9383 241.043 97.6413C239.6 95.4703 237.168 94.2393 234.514 94.3363C231.906 94.4543 229.572 95.8793 228.337 98.1933L225.598 103.155L222.906 98.1583C221.657 95.8783 219.372 94.3993 216.71 94.2643C216.2 94.2533 215.702 94.2763 215.228 94.3683C213.193 94.6713 211.373 95.7933 210.207 97.5373C208.648 99.8143 208.496 102.753 209.759 105.184C209.779 105.22 209.801 105.255 209.822 105.291L203.707 105.268C202.222 105.257 200.832 105.834 199.8 106.868C198.768 107.902 198.173 109.285 198.197 110.758L198.147 118.105C198.147 119.08 198.956 119.92 199.977 119.942L201.927 119.949V143.797C201.927 146.842 204.385 149.301 207.43 149.301H220.271H225.774H231.277H244.118C247.163 149.301 249.621 146.842 249.621 143.797V143.779V120.159C249.621 120.141 249.617 120.124 249.617 120.106L251.343 120.112C251.541 120.119 251.76 120.079 251.967 120.005C252.658 119.757 253.165 119.106 253.193 118.317L253.207 110.982C253.211 110.425 253.133 109.882 252.978 109.365Z" fill="#BBF0D3"/>
<path fill-rule="evenodd" clip-rule="evenodd" d="M214.534 128.18C214.366 127.617 214.06 127.104 213.637 126.682C213.553 126.597 213.465 126.517 213.374 126.442C213.191 126.292 212.994 126.16 212.789 126.048C212.479 125.88 212.147 125.758 211.798 125.686C211.566 125.638 211.328 125.612 211.085 125.61L206.916 125.591C206.927 125.57 206.94 125.551 206.951 125.532C207.81 123.948 207.727 122.014 206.728 120.512C205.784 119.092 204.193 118.287 202.457 118.35C200.751 118.427 199.225 119.359 198.417 120.873L196.625 124.118L194.865 120.85C194.048 119.359 192.553 118.391 190.812 118.303C190.478 118.296 190.153 118.311 189.843 118.371C188.512 118.569 187.321 119.303 186.559 120.444C185.539 121.933 185.439 123.855 186.266 125.445C186.279 125.469 186.293 125.492 186.307 125.515L182.307 125.5C181.336 125.493 180.427 125.871 179.752 126.547C179.077 127.223 178.687 128.128 178.703 129.091L178.67 133.897C178.67 134.534 179.2 135.084 179.867 135.098L181.143 135.103V150.701C181.143 152.693 182.751 154.301 184.742 154.301H193.141H196.741H200.34H208.739C210.731 154.301 212.338 152.693 212.338 150.701V150.689V135.24C212.338 135.228 212.336 135.217 212.336 135.206L213.465 135.209C213.594 135.214 213.737 135.188 213.873 135.139C214.325 134.977 214.656 134.551 214.675 134.035L214.684 129.238C214.686 128.873 214.635 128.518 214.534 128.18Z" fill="#BBF0D3"/>
<path fill-rule="evenodd" clip-rule="evenodd" d="M72.6259 152.963H41.4161C37.6085 152.963 34.521 150.279 34.521 146.969V124.872C34.521 121.562 37.6085 118.878 41.4161 118.878H72.6259C76.4346 118.878 79.521 121.562 79.521 124.872V146.969C79.521 150.279 76.4346 152.963 72.6259 152.963Z" fill="#BBF0D3"/>
<path fill-rule="evenodd" clip-rule="evenodd" d="M176.334 146.39H145.063C140.843 146.39 137.422 142.969 137.422 138.748V107.478C137.422 103.257 140.843 99.8364 145.063 99.8364H176.334C180.555 99.8364 183.976 103.257 183.976 107.478V138.748C183.976 142.969 180.555 146.39 176.334 146.39Z" fill="#BBF0D3"/>
<path d="M150.307 101.914C150.307 101.914 150.723 89.8604 160.7 89.8604C170.675 89.8604 170.259 101.914 170.259 101.914" stroke="#BBF0D3" stroke-width="2.91"/>
<path fill-rule="evenodd" clip-rule="evenodd" d="M224.325 111.351C226.669 111.888 228.905 111.833 231.897 112.896C231.918 112.907 231.952 112.918 231.974 112.928C232.149 112.984 232.335 113.05 232.521 113.126C232.532 113.137 232.543 113.137 232.543 113.137C232.774 113.225 233.014 113.323 233.267 113.432C233.267 113.432 232.05 114.836 221.706 116.776C220.686 116.972 219.579 117.17 218.384 117.367C218.384 117.367 214.911 119.055 217.914 128.315C217.914 128.315 223.009 132.096 228.104 133.016C233.19 133.948 235.005 134.49 245.565 135.59C257.749 136.859 262.765 144.401 267.4 152.499C267.4 152.499 275.704 168.421 278.985 168C285.198 167.203 306.629 166.471 310 159.543C310 159.543 275.378 122.75 271.749 118.859C270.205 117.204 268.589 115.133 267.243 113.298C264.476 109.531 260.671 106.627 256.274 105.042C256.089 104.975 255.914 104.914 255.749 104.859C246.949 101.922 239.437 103.01 237.89 103.088C236.357 103.165 230.877 103.033 229.179 103.066C227.897 103.088 225.87 101.905 224.192 101.127C223.645 100.874 223.141 100.656 222.703 100.545C220.927 100.085 212.522 97.6186 211.437 100.545C210.364 103.483 211.13 105.17 211.437 105.948C211.745 106.715 221.617 110.727 224.325 111.351Z" fill="#FFDAB8"/>
<path fill-rule="evenodd" clip-rule="evenodd" d="M277.898 126.385C273.462 128.837 265.133 134.42 262.712 142.812C262.232 144.477 262.614 146.274 263.717 147.61L274.912 161.172C276.933 163.622 280.649 163.734 282.815 161.412L299.217 143.836C301.48 141.413 300.962 137.527 298.146 135.778L283.229 126.514C281.606 125.507 279.57 125.461 277.898 126.385Z" fill="#E8FFFC"/>
<path fill-rule="evenodd" clip-rule="evenodd" d="M283.537 128.1C278.166 131.069 268.078 137.83 265.146 147.994C264.564 150.01 265.027 152.185 266.363 153.803L279.921 170.227C282.369 173.194 286.867 173.33 289.49 170.518L324.304 153.746C327.044 150.811 326.418 146.105 323.007 143.988L289.992 128.257C288.027 127.037 285.562 126.98 283.537 128.1Z" fill="#00AB4E"/>
<mask id="mask3_5567_159219" style="mask-type:alpha" maskUnits="userSpaceOnUse" x="210" y="98" width="22" height="15">
<path fill-rule="evenodd" clip-rule="evenodd" d="M214.293 98.8359C213.043 98.8359 211.922 99.2359 211.437 100.545C210.364 103.482 211.131 105.17 211.437 105.948C211.743 106.716 221.617 110.726 224.325 111.35C226.669 111.888 228.906 111.833 231.897 112.895C229.818 112.059 226.416 111.566 223.085 105.149C221.718 102.513 221.791 100.283 221.036 100.085C220.487 99.8329 218.999 99.8069 218.56 99.6979C217.581 99.4439 215.84 98.8359 214.296 98.8359H214.293Z" fill="white"/>
</mask>
<g mask="url(#mask3_5567_159219)">
<path fill-rule="evenodd" clip-rule="evenodd" d="M204.027 119.752H238.752V91.98H204.027V119.752Z" fill="#FFB490"/>
</g>
<path d="M232.543 113.137C232.543 113.137 236.693 109.957 238.489 107.142" stroke="#FFB490" stroke-width="0.606" stroke-linecap="round"/>
<path fill-rule="evenodd" clip-rule="evenodd" d="M216.337 56.9926L220.551 57.9488C221.011 58.0532 221.328 58.4814 221.286 58.9526C221.026 61.8996 222.977 64.6614 225.942 65.3349C228.91 66.0085 231.862 64.3605 232.899 61.589C233.065 61.1466 233.537 60.8968 233.996 61.0012L238.21 61.9574C239.289 62.2033 239.966 63.2772 239.721 64.3567L231.03 102.636C230.785 103.716 229.71 104.393 228.631 104.148L206.759 99.1812C205.678 98.9362 205.002 97.8625 205.247 96.7819L213.939 58.5029C214.184 57.4234 215.256 56.7476 216.337 56.9926Z" fill="#63B5FA"/>
<mask id="mask4_5567_159219" style="mask-type:alpha" maskUnits="userSpaceOnUse" x="229" y="57" width="28" height="48">
<path fill-rule="evenodd" clip-rule="evenodd" d="M233.07 57.9946L256.979 60.0863L253.057 104.915L229.148 102.823L233.07 57.9946Z" fill="white"/>
</mask>
<g mask="url(#mask4_5567_159219)">
<path fill-rule="evenodd" clip-rule="evenodd" d="M247.421 104.422L234.783 103.316C231.671 103.044 229.369 100.3 229.641 97.1869L232.577 63.6311C232.849 60.518 235.593 58.2154 238.705 58.4877L251.343 59.5933C254.455 59.8656 256.758 62.6097 256.485 65.7228L253.55 99.2787C253.277 102.392 250.533 104.694 247.421 104.422Z" fill="#D8B56D"/>
</g>
<path fill-rule="evenodd" clip-rule="evenodd" d="M246.132 101.8L236.51 100.958C233.919 100.731 232.003 98.4474 232.23 95.8563L234.895 65.3907C235.122 62.7996 237.405 60.8833 239.997 61.11L249.618 61.9518C252.209 62.1784 254.125 64.4622 253.898 67.0533L251.233 97.5189C251.006 100.11 248.723 102.026 246.132 101.8Z" fill="#C69C45"/>
<path fill-rule="evenodd" clip-rule="evenodd" d="M247.811 73.0868C247.619 75.2874 245.679 76.9155 243.478 76.723C241.277 76.5304 239.649 74.5902 239.842 72.3896C240.034 70.189 241.975 68.5609 244.175 68.7534C246.376 68.9459 248.004 70.8862 247.811 73.0868Z" fill="#F5D084"/>
<path fill-rule="evenodd" clip-rule="evenodd" d="M247.435 88.8641L237.473 87.9925C236.785 87.9324 236.276 87.3257 236.336 86.6383C236.397 85.9509 237.003 85.4419 237.691 85.502L247.653 86.3736C248.34 86.4337 248.849 87.0404 248.789 87.7278C248.729 88.4151 248.122 88.9242 247.435 88.8641Z" fill="#F5D084"/>
<path fill-rule="evenodd" clip-rule="evenodd" d="M246.912 94.8411L236.95 93.9695C236.262 93.9094 235.753 93.3027 235.813 92.6154C235.874 91.928 236.48 91.4189 237.168 91.4791L247.13 92.3506C247.817 92.4108 248.326 93.0174 248.266 93.7048C248.206 94.3922 247.599 94.9012 246.912 94.8411Z" fill="#F5D084"/>
<mask id="mask5_5567_159219" style="mask-type:alpha" maskUnits="userSpaceOnUse" x="222" y="48" width="28" height="48">
<path fill-rule="evenodd" clip-rule="evenodd" d="M226.071 48.9946L249.979 51.0863L246.057 95.9151L222.149 93.8234L226.071 48.9946Z" fill="white"/>
</mask>
<g mask="url(#mask5_5567_159219)">
<path fill-rule="evenodd" clip-rule="evenodd" d="M240.422 95.4221L227.784 94.3164C224.672 94.0442 222.369 91.3 222.642 88.1869L225.577 54.6311C225.85 51.518 228.594 49.2154 231.706 49.4877L244.344 50.5933C247.456 50.8656 249.758 53.6097 249.486 56.7228L246.55 90.2787C246.278 93.3918 243.534 95.6944 240.422 95.4221Z" fill="#D8B56D"/>
</g>
<path fill-rule="evenodd" clip-rule="evenodd" d="M239.132 92.7995L229.51 91.9578C226.919 91.7311 225.003 89.4474 225.23 86.8563L227.895 56.3907C228.122 53.7996 230.405 51.8833 232.997 52.11L242.618 52.9518C245.209 53.1784 247.125 55.4622 246.898 58.0533L244.233 88.5189C244.006 91.11 241.723 93.0262 239.132 92.7995Z" fill="#C69C45"/>
<path fill-rule="evenodd" clip-rule="evenodd" d="M213.29 38.6722C212.608 38.3813 212.636 37.3901 213.333 37.1403C214.645 36.6711 215.595 36.1633 216.182 35.6159C216.799 35.0403 217.414 34.0541 218.024 32.6538C218.324 31.9664 219.3 31.9902 219.564 32.6917C220.115 34.1557 220.663 35.1946 221.21 35.8099C221.731 36.3984 222.589 36.9812 223.783 37.5563C224.435 37.8692 224.42 38.8139 223.742 39.066C222.532 39.5178 221.639 40.0143 221.06 40.5541C220.463 41.1129 219.855 42.0474 219.235 43.3567C218.918 44.0248 217.967 43.9849 217.705 43.294C217.197 41.9575 216.641 40.979 216.035 40.3604C215.457 39.769 214.541 39.2066 213.29 38.6722Z" fill="#FFD37B"/>
<path fill-rule="evenodd" clip-rule="evenodd" d="M267.23 60.6921C266.759 60.4913 266.778 59.8068 267.259 59.6343C268.165 59.3103 268.821 58.9596 269.226 58.5816C269.653 58.1841 270.077 57.5031 270.499 56.5361C270.706 56.0614 271.38 56.0779 271.562 56.5623C271.943 57.5732 272.321 58.2907 272.698 58.7155C273.059 59.122 273.651 59.5244 274.476 59.9216C274.926 60.1376 274.915 60.79 274.447 60.9641C273.611 61.2761 272.995 61.6189 272.595 61.9917C272.183 62.3775 271.763 63.0229 271.335 63.927C271.116 64.3884 270.459 64.3609 270.278 63.8837C269.928 62.9608 269.543 62.2851 269.125 61.8579C268.726 61.4496 268.094 61.0611 267.23 60.6921Z" fill="#FFD37B"/>
<path fill-rule="evenodd" clip-rule="evenodd" d="M174.23 81.6921C173.759 81.4913 173.778 80.8068 174.259 80.6343C175.165 80.3103 175.821 79.9596 176.226 79.5816C176.653 79.1841 177.077 78.5031 177.499 77.5361C177.706 77.0614 178.38 77.0779 178.562 77.5623C178.943 78.5732 179.321 79.2907 179.698 79.7155C180.059 80.122 180.651 80.5244 181.476 80.9216C181.926 81.1376 181.915 81.79 181.447 81.9641C180.611 82.2761 179.995 82.6189 179.595 82.9917C179.183 83.3775 178.763 84.0229 178.335 84.927C178.116 85.3884 177.459 85.3609 177.278 84.8837C176.928 83.9608 176.543 83.2851 176.125 82.8579C175.726 82.4496 175.094 82.0611 174.23 81.6921Z" fill="#FFC54F"/>
<path fill-rule="evenodd" clip-rule="evenodd" d="M240.812 64.0867C240.619 66.2872 238.679 67.9153 236.478 67.7228C234.278 67.5303 232.65 65.59 232.842 63.3894C233.035 61.1888 234.975 59.5607 237.176 59.7533C239.376 59.9458 241.004 61.8861 240.812 64.0867Z" fill="#ECCC8B"/>
<path fill-rule="evenodd" clip-rule="evenodd" d="M240.435 79.8639L230.473 78.9924C229.786 78.9322 229.277 78.3256 229.337 77.6382C229.397 76.9508 230.004 76.4418 230.691 76.5019L240.653 77.3735C241.34 77.4336 241.849 78.0403 241.789 78.7276C241.729 79.415 241.122 79.9241 240.435 79.8639Z" fill="#ECCC8B"/>
<path fill-rule="evenodd" clip-rule="evenodd" d="M239.912 85.8411L229.95 84.9695C229.263 84.9094 228.754 84.3027 228.814 83.6154C228.874 82.928 229.481 82.4189 230.168 82.4791L240.13 83.3506C240.817 83.4108 241.326 84.0174 241.266 84.7048C241.206 85.3922 240.6 85.9012 239.912 85.8411Z" fill="#F5D084"/>
<path fill-rule="evenodd" clip-rule="evenodd" d="M211.807 67.1687L212.899 62.4966L226.978 87.9557L223.438 89.8454L211.807 67.1687Z" fill="#3393E3"/>
<path fill-rule="evenodd" clip-rule="evenodd" d="M183.631 65.4191L187.427 63.3568C187.842 63.1302 188.362 63.2428 188.642 63.6243C190.393 66.0102 193.679 66.7964 196.354 65.3444C199.026 63.8913 200.155 60.7052 199.105 57.9383C198.938 57.4955 199.126 56.9994 199.543 56.772L203.338 54.7097C204.31 54.1812 205.529 54.5421 206.057 55.5143L224.798 90.0036C225.327 90.9779 224.968 92.1948 223.993 92.7241L204.287 103.433C203.314 103.961 202.097 103.601 201.568 102.629L182.826 68.1376C182.299 67.1654 182.658 65.9475 183.631 65.4191Z" fill="#28D677"/>
<path fill-rule="evenodd" clip-rule="evenodd" d="M253.858 110.318C255.122 110.184 256.062 109.282 255.959 108.303L252.954 79.8892L254.318 79.7452C255.582 79.6112 256.689 80.2972 256.793 81.2762L259.91 110.747C260.013 111.726 259.073 112.628 257.809 112.762L197.866 119.101C196.602 119.235 195.494 118.549 195.39 117.57L195.279 116.513L253.858 110.318Z" fill="#DF9F1C"/>
<path fill-rule="evenodd" clip-rule="evenodd" d="M197.109 118.372L256.941 112.044C257.91 111.942 258.63 111.251 258.55 110.5L255.411 80.8053C255.331 80.0553 254.481 79.5293 253.513 79.6313L193.68 85.9593C192.713 86.0613 191.991 86.7533 192.071 87.5043L195.211 117.199C195.291 117.949 196.14 118.475 197.109 118.372Z" fill="#FFC54F"/>
<mask id="mask6_5567_159219" style="mask-type:alpha" maskUnits="userSpaceOnUse" x="184" y="112" width="30" height="15">
<path fill-rule="evenodd" clip-rule="evenodd" d="M184.848 117.131C186.314 117.517 201.488 124.999 202.953 125.539C204.418 126.078 213.468 126.951 213.468 126.951C213.468 126.951 212.133 118.365 206.887 117.362C201.642 116.359 196.167 113.134 189.919 112.516C189.545 112.479 189.193 112.462 188.862 112.462C183.642 112.462 183.47 116.769 184.848 117.131Z" fill="white"/>
</mask>
<g mask="url(#mask6_5567_159219)">
<path fill-rule="evenodd" clip-rule="evenodd" d="M180.387 130.68H217.197V108.733H180.387V130.68Z" fill="#FFB490"/>
</g>
<mask id="mask7_5567_159219" style="mask-type:alpha" maskUnits="userSpaceOnUse" x="186" y="99" width="42" height="34">
<path fill-rule="evenodd" clip-rule="evenodd" d="M190.152 99.75C188.283 99.75 186.786 101.101 186.545 101.88C186.237 102.883 198.325 119.908 199.792 120.448C201.257 120.987 221.196 131.064 227.656 132.93L209.818 114.663C209.818 114.663 204.728 113.659 203.031 111.963C201.333 110.265 194.703 101.458 191.825 100.125C191.253 99.861 190.691 99.75 190.158 99.75C190.156 99.75 190.154 99.75 190.152 99.75Z" fill="white"/>
</mask>
<g mask="url(#mask7_5567_159219)">
<path fill-rule="evenodd" clip-rule="evenodd" d="M182.811 136.659H231.385V96.021H182.811V136.659Z" fill="#FFDAB8"/>
</g>
<mask id="mask8_5567_159219" style="mask-type:alpha" maskUnits="userSpaceOnUse" x="201" y="87" width="29" height="47">
<path fill-rule="evenodd" clip-rule="evenodd" d="M202.308 87.7358C201.356 88.6888 201.745 88.6918 203.57 94.8378C206.154 103.537 205.961 109.495 208.353 113.351C210.744 117.208 225.015 133.098 229.336 133.149L226.944 121.451C226.944 121.451 216.46 110.505 215.718 109.854C214.978 109.206 210.913 97.3428 208.98 91.5478C207.819 88.0608 205.721 87.2808 204.183 87.2808C203.198 87.2808 202.443 87.6018 202.308 87.7358Z" fill="white"/>
</mask>
<g mask="url(#mask8_5567_159219)">
<path fill-rule="evenodd" clip-rule="evenodd" d="M198.077 136.877H233.064V83.5527H198.077V136.877Z" fill="#FFDAB8"/>
</g>
<mask id="mask9_5567_159219" style="mask-type:alpha" maskUnits="userSpaceOnUse" x="214" y="91" width="49" height="34">
<path fill-rule="evenodd" clip-rule="evenodd" d="M214.808 92.9608C214.599 95.5418 214.353 99.2008 214.447 101.163C214.601 104.403 216.683 111.499 217.225 112.888C217.763 114.277 225.785 124.227 225.785 124.227L262.554 118.107C262.554 118.107 256.281 113.582 248.259 116.154C240.236 118.725 237.228 117.363 234.657 117.053C232.085 116.745 224.397 111.113 223.575 108.749C222.87 106.725 221.113 102.443 220.619 101.248C220.533 101.037 220.489 100.834 220.48 100.606C220.433 99.3468 220.139 94.7428 218.364 92.0508C217.968 91.4498 217.361 91.1768 216.761 91.1768C215.823 91.1768 214.899 91.8418 214.808 92.9608Z" fill="white"/>
</mask>
<g mask="url(#mask9_5567_159219)">
<path fill-rule="evenodd" clip-rule="evenodd" d="M210.698 127.956H266.283V87.4487H210.698V127.956Z" fill="#FFDAB8"/>
</g>
<path d="M230.676 115.254C232.071 116.118 235.204 117.563 240.683 117.67C248.541 117.825 249.005 114.816 254.481 114.97C259.957 115.125 263.043 118.288 263.043 118.288" stroke="#FFB490" stroke-width="0.606" stroke-linecap="round"/>
<path d="M216.494 110.621C216.494 110.621 218.067 116.342 218.728 118.519C219.191 120.043 224.808 124.755 224.808 124.755" stroke="#FFB490" stroke-width="0.606" stroke-linecap="round"/>
<mask id="mask10_5567_159219" style="mask-type:alpha" maskUnits="userSpaceOnUse" x="207" y="114" width="22" height="20">
<path fill-rule="evenodd" clip-rule="evenodd" d="M228.105 133.016C216.889 128.482 209.163 114.518 209.163 114.518L207.424 114.058C216.143 129.742 228.105 133.016 228.105 133.016Z" fill="white"/>
</mask>
<g mask="url(#mask10_5567_159219)">
<path fill-rule="evenodd" clip-rule="evenodd" d="M200.566 139.873H234.961V107.202H200.566V139.873Z" fill="#FFB490"/>
</g>
<path fill-rule="evenodd" clip-rule="evenodd" d="M132.234 87.5806L139.212 90.5713C140.904 91.2958 141.075 93.6943 139.452 94.5619C138.488 95.0776 137 95.4988 134.724 95.6743C126.631 96.2962 132.234 87.5806 132.234 87.5806Z" fill="#FFDAB8"/>
<path fill-rule="evenodd" clip-rule="evenodd" d="M134.724 90.8687C136.849 91.9316 138.407 91.8605 139.496 91.4294C139.686 91.3547 139.848 91.2485 139.996 91.1297C139.788 90.8993 139.526 90.7058 139.211 90.5708L132.233 87.5801L132.227 87.5909C132.459 88.8815 133.164 90.0893 134.724 90.8687Z" fill="#FFB490"/>
<path fill-rule="evenodd" clip-rule="evenodd" d="M133.478 80.1104L140.13 86.7623C141.131 87.7631 140.811 89.4884 139.497 90.0095C138.408 90.4406 136.849 90.5117 134.724 89.4479C129.743 86.9585 133.478 80.1104 133.478 80.1104Z" fill="#FFDAB8"/>
<path fill-rule="evenodd" clip-rule="evenodd" d="M134.189 83.4863C135.43 83.9516 136.475 84.0659 137.349 83.9804L133.479 80.1104C133.479 80.1104 132.959 81.0635 132.566 82.3874C132.986 82.8527 133.516 83.2343 134.189 83.4863Z" fill="#FFB490"/>
<path fill-rule="evenodd" clip-rule="evenodd" d="M132.234 60.1885L138.071 61.8562C139.96 62.3962 140.583 64.765 139.2 66.16C137.838 67.5325 135.42 68.7961 131.129 68.8303L132.234 60.1885Z" fill="#FFDAB8"/>
<path fill-rule="evenodd" clip-rule="evenodd" d="M133.307 69.9238L139.008 77.6908C139.988 79.0255 139.465 80.9596 137.919 81.5527C136.853 81.9622 135.396 82.0738 133.478 81.3547C128.498 79.4872 131.129 70.7302 131.129 70.7302L133.307 69.9238Z" fill="#FFDAB8"/>
<path fill-rule="evenodd" clip-rule="evenodd" d="M84.9053 128.514C84.9053 128.514 97.3414 129.726 104.911 118.817C112.482 107.908 110.859 107.908 110.859 107.908L105.452 104.878L101.126 102.454L90.8531 108.514L84.9053 121.242V128.514Z" fill="#FFB490"/>
<path fill-rule="evenodd" clip-rule="evenodd" d="M92.823 52.4217C94.5753 73.4709 96.0144 94.5453 97.6371 115.605C97.926 119.326 101.036 121.877 104.578 121.365C114.298 119.96 119.102 118.947 129.016 117.366C132.631 116.79 135.356 113.493 135.049 109.944C133.423 90.949 131.86 71.9499 130.33 52.9464C130.034 49.3608 127.389 46.5069 124.435 46.434C115.624 46.1037 106.809 45.4701 97.9872 45.4917C97.9737 45.4926 97.9593 45.4926 97.9449 45.4926C94.8291 45.5439 92.4963 48.6273 92.823 52.4217Z" fill="#1868A7"/>
<path fill-rule="evenodd" clip-rule="evenodd" d="M94.7944 52.3902C96.499 73.4412 97.9156 94.5138 99.5149 115.573C99.8002 119.297 102.903 121.83 106.443 121.295C116.161 119.828 120.973 118.814 130.924 117.269C134.553 116.706 137.288 113.413 136.976 109.855C135.326 90.8886 133.732 71.9166 132.177 52.9419C131.877 49.3554 129.221 46.5375 126.263 46.497C117.476 46.2738 108.711 45.6186 99.9199 45.5151H99.8785C96.7951 45.5232 94.4758 48.5841 94.7944 52.3902Z" fill="#3392E2"/>
<path d="M88.9755 43.081L82.3498 36.05" stroke="#FFE7B8" stroke-width="2.619" stroke-linecap="round"/>
<path d="M112.306 36.3555L111.15 24.3502" stroke="#FFD37B" stroke-width="2.619" stroke-linecap="round"/>
<path d="M132.494 42.023L139.95 35.1504" stroke="#FFE7B8" stroke-width="2.619" stroke-linecap="round"/>
<path fill-rule="evenodd" clip-rule="evenodd" d="M97.3811 53.8061C98.9174 73.8626 100.321 93.929 101.805 113.99C102.022 116.866 104.406 118.83 107.127 118.415C116.157 117.043 120.629 116.155 129.841 114.709C132.624 114.272 134.713 111.723 134.478 108.985C132.906 90.7916 131.417 72.5909 129.948 54.3884C129.742 51.8882 128.003 49.8911 126.07 49.8668C124.396 49.847 123.561 49.8245 121.889 49.7705C121.354 49.7525 120.877 49.6544 120.801 50.3303C120.767 50.6309 120.75 50.7812 120.715 51.0827C120.64 51.7613 120.21 52.2257 119.673 52.2077C114.914 52.0421 112.54 51.899 107.684 51.746C107.138 51.7298 106.621 51.2204 106.436 50.5157C106.353 50.2025 106.312 50.045 106.229 49.7327C106.062 49.0973 105.661 49.0919 105.178 49.0856C105.127 49.0856 105.074 49.0847 105.021 49.082C103.299 49.0361 102.432 49.019 100.682 49.0073H100.657C98.6492 49.0109 97.1687 51.1466 97.3811 53.8061Z" fill="#F5FBFF"/>
<path fill-rule="evenodd" clip-rule="evenodd" d="M108.145 88.0888C107.669 89.2327 108.428 90.6043 109.509 90.5971C110.728 90.5899 112.71 90.4828 115.835 90.0553C118.958 89.6278 120.926 89.2417 122.135 88.9807C123.202 88.7503 123.752 87.3004 123.112 86.3581C121.735 84.3286 118.697 82.9903 115.315 83.2801C111.932 83.5699 109.171 85.6255 108.145 88.0888Z" fill="#28D677"/>
<mask id="mask11_5567_159219" style="mask-type:alpha" maskUnits="userSpaceOnUse" x="120" y="77" width="8" height="7">
<path fill-rule="evenodd" clip-rule="evenodd" d="M120.712 77.3735H127.907V83.7323H120.712V77.3735Z" fill="white"/>
</mask>
<g mask="url(#mask11_5567_159219)">
<path fill-rule="evenodd" clip-rule="evenodd" d="M123.125 78.3122C123.176 78.9053 123.202 79.1978 123.253 79.7783C122.6 79.8143 122.273 79.8323 121.619 79.8674C121.079 79.8962 120.673 80.3201 120.715 80.8106C120.757 81.302 121.232 81.6674 121.772 81.6278C122.427 81.5801 122.753 81.5558 123.406 81.509C123.458 82.0832 123.483 82.3703 123.535 82.9481C123.578 83.4278 124.05 83.7779 124.593 83.7275C125.134 83.6771 125.539 83.2523 125.497 82.7807C125.444 82.2119 125.419 81.9311 125.367 81.3659C126.021 81.3182 126.347 81.2939 127.001 81.2462C127.543 81.2066 127.946 80.8016 127.904 80.3381C127.861 79.8764 127.388 79.5272 126.846 79.5623C126.192 79.6046 125.867 79.6244 125.213 79.664C125.162 79.0925 125.136 78.8054 125.085 78.2195C125.043 77.7335 124.569 77.3528 124.029 77.3744C123.488 77.3978 123.083 77.8199 123.125 78.3122Z" fill="#28D677"/>
</g>
<mask id="mask12_5567_159219" style="mask-type:alpha" maskUnits="userSpaceOnUse" x="110" y="74" width="9" height="9">
<path fill-rule="evenodd" clip-rule="evenodd" d="M110.825 74.3003H118.956V82.3422H110.825V74.3003Z" fill="white"/>
</mask>
<g mask="url(#mask12_5567_159219)">
<path fill-rule="evenodd" clip-rule="evenodd" d="M118.943 78.2501C119.116 80.3714 117.441 82.1624 115.201 82.3307C112.961 82.499 111.007 80.8124 110.837 78.5399C110.668 76.2665 112.345 74.3225 114.583 74.3C116.82 74.2775 118.771 76.1288 118.943 78.2501Z" fill="#28D677"/>
</g>
<path fill-rule="evenodd" clip-rule="evenodd" d="M93.5797 59.9081C93.7741 62.3183 93.8704 63.5378 94.063 65.9921C94.0837 66.2684 94.3096 66.4817 94.5652 66.47C94.8883 66.4529 95.0503 66.4448 95.3734 66.4295C95.1538 63.5756 95.0431 62.1581 94.8208 59.3618C94.4959 59.3744 94.3321 59.3816 94.0054 59.3969H94.0009C93.748 59.4104 93.559 59.6381 93.5797 59.9081Z" fill="#3392E2"/>
<path fill-rule="evenodd" clip-rule="evenodd" d="M132.779 66.3835C133.089 66.3655 133.245 66.3565 133.555 66.3376C133.8 66.3214 133.983 66.1081 133.961 65.8615C133.778 63.67 133.686 62.5738 133.504 60.3823C133.483 60.1357 133.269 59.9458 133.024 59.9575C132.715 59.9728 132.559 59.98 132.25 59.9935C132.46 62.5486 132.566 63.8266 132.779 66.3835Z" fill="#3392E2"/>
<path fill-rule="evenodd" clip-rule="evenodd" d="M94.2328 68.1705C94.4245 70.6365 94.519 71.8785 94.7089 74.367C94.7305 74.6469 94.951 74.8611 95.2039 74.8458C95.5261 74.826 95.6863 74.8152 96.0076 74.7963C95.7907 71.9064 95.6818 70.4637 95.464 67.6035C95.1409 67.6188 94.9789 67.6269 94.6558 67.6431C94.6531 67.6431 94.6522 67.6431 94.6504 67.644C94.3984 67.6584 94.2103 67.8942 94.2328 68.1705Z" fill="#3392E2"/>
<path fill-rule="evenodd" clip-rule="evenodd" d="M109.312 48.6454C109.316 48.6913 109.318 48.7156 109.321 48.7615C109.345 49.0873 109.62 49.3627 109.932 49.3762C111.985 49.4581 113.004 49.5067 115.034 49.5976C115.343 49.6102 115.574 49.3591 115.551 49.036C115.547 48.9901 115.546 48.9676 115.541 48.9217C115.518 48.5986 115.248 48.325 114.938 48.3115C112.907 48.2152 111.887 48.1648 109.834 48.0775H109.831C109.52 48.0667 109.289 48.3187 109.312 48.6454Z" fill="#1868A7"/>
<path fill-rule="evenodd" clip-rule="evenodd" d="M116.769 48.9688C116.804 49.4233 117.185 49.8094 117.621 49.8265C118.058 49.8454 118.38 49.4908 118.347 49.0372C118.314 48.5845 117.932 48.2011 117.497 48.1822C117.495 48.1813 117.493 48.1813 117.491 48.1813C117.066 48.1732 116.736 48.5161 116.769 48.9688Z" fill="#1868A7"/>
<path fill-rule="evenodd" clip-rule="evenodd" d="M97.4848 52.1064C97.375 52.6347 97.3327 53.2062 97.3813 53.8065C98.9176 73.863 100.32 93.9285 101.805 113.99C102.023 116.867 104.405 118.83 107.127 118.416C115.933 117.077 120.295 116.218 129.268 114.8C103.424 115.428 99.1489 70.281 97.4848 52.1064Z" fill="#C4E4FF"/>
<mask id="mask13_5567_159219" style="mask-type:alpha" maskUnits="userSpaceOnUse" x="0" y="65" width="104" height="110">
<path fill-rule="evenodd" clip-rule="evenodd" d="M0 65.3452H103.284V174.198H0V65.3452Z" fill="white"/>
</mask>
<g mask="url(#mask13_5567_159219)">
<path fill-rule="evenodd" clip-rule="evenodd" d="M26.0855 149.301C26.0855 149.301 79.9328 110.031 84.9053 97.9554C89.2226 87.4686 89.4478 77.374 92.7924 74.3L96.8102 66.8662C98.6507 64.2193 102.82 65.2129 103.213 68.4124C103.414 70.0594 103.21 72.331 102.289 75.4612L100.193 82.5883C99.2969 85.6348 99.0269 88.8352 99.4328 91.9852C100.596 101 103.848 118.701 93.5781 124.955C82.3439 131.797 42.0726 182.052 42.0726 182.052L-9.94988e-05 174.198C-9.94988e-05 174.198 -0.533381 136.238 6.32494 128.452C7.63076 126.969 26.0855 149.301 26.0855 149.301Z" fill="#FFDAB8"/>
<path fill-rule="evenodd" clip-rule="evenodd" d="M-52.6438 79.6934C-50.6461 73.0374 -43.3487 69.1198 -36.0488 70.7194C-32.258 71.5511 -28.1592 73.0646 -24.7328 75.7805C-19.0008 80.927 -13.8295 86.5818 -9.29547 92.6601C-0.375402 104.494 14.076 123.609 21.5371 133.474C24.5578 137.469 24.4863 142.864 21.1529 146.606C14.3686 154.224 5.51522 160.056 -4.51457 163.504C-9.14123 165.095 -14.3663 163.792 -17.625 160.34C-24.9077 152.625 -38.0647 138.404 -44.0445 130.171C-55.6891 114.185 -56.7432 93.3619 -52.6438 79.6934Z" fill="#63B5FA"/>
</g>
<path fill-rule="evenodd" clip-rule="evenodd" d="M256.63 11.9263C256.63 11.9263 257.006 34.4794 259.702 34.8169C263.177 35.2507 277.927 18.9409 277.927 18.9409C277.927 18.9409 258.504 12.6121 256.63 11.9263Z" fill="#97D4CC"/>
<path fill-rule="evenodd" clip-rule="evenodd" d="M280.031 19.6343C280.031 19.6343 282.407 42.0533 285.113 42.1415C288.612 42.2648 301.845 24.704 301.845 24.704C301.845 24.704 281.963 20.1518 280.031 19.6343Z" fill="#E5EFAC"/>
<path fill-rule="evenodd" clip-rule="evenodd" d="M304.028 25.0884C304.028 25.0884 308.422 47.2113 311.133 47.061C314.629 46.881 326.231 28.1853 326.231 28.1853C326.231 28.1853 306.013 25.4421 304.028 25.0884Z" fill="#97D4CC"/>
<path fill-rule="evenodd" clip-rule="evenodd" d="M327.237 28.3901C327.237 28.3901 332.917 50.2214 335.605 49.9082C339.09 49.5077 349.571 30.182 349.571 30.182C349.571 30.182 329.22 28.6187 327.237 28.3901Z" fill="#BBF0D3"/>
<path fill-rule="evenodd" clip-rule="evenodd" d="M234.226 2.36719C234.226 2.36719 232.827 24.8798 235.488 25.4333C238.922 26.1398 254.906 11.0387 254.906 11.0387C254.906 11.0387 236.036 3.21139 234.226 2.36719Z" fill="#E5EFAC"/>
<path fill-rule="evenodd" clip-rule="evenodd" d="M419.035 23.2933L418.478 23.4202L416.85 23.782L414.195 24.3544L412.503 24.7234L410.558 25.1005L406.002 25.9555L400.554 26.8411C399.579 27.004 398.561 27.1435 397.521 27.2713L394.272 27.7177C393.717 27.7897 393.156 27.8734 392.582 27.9427L390.838 28.1389L387.185 28.5313C375.569 29.7175 363.892 30.1981 352.219 29.9695C345.629 29.8066 338.727 29.4601 331.569 28.8184C324.411 28.1758 317.064 27.1975 309.571 25.9141L303.99 24.9295L298.5 23.8243L297.141 23.5462L295.798 23.242L293.117 22.6372L290.462 22.0333L287.839 21.37C286.103 20.9236 284.372 20.5204 282.676 20.0407L277.638 18.634C275.977 18.1651 274.352 17.6413 272.734 17.1553L270.33 16.4173L267.996 15.6415C261.712 13.6327 255.853 11.3494 250.425 9.19568C245.006 6.96368 240.009 4.75328 235.537 2.55098L232.265 0.959777C231.169 0.437777 230.182 -0.106724 229.179 -0.620624C227.204 -1.68442 225.303 -2.61232 223.599 -3.62752C221.894 -4.64182 220.25 -5.47252 218.781 -6.32572L214.8 -8.69812C214.188 -9.02842 213.629 -9.38482 213.104 -9.71512L211.641 -10.6412L209.357 -12.0992L207.948 -12.9965L207.478 -13.3115L207.973 -13.0442L209.391 -12.1631L211.693 -10.7231L213.162 -9.80782C213.675 -9.48292 214.257 -9.15712 214.855 -8.79982L218.853 -6.44542C220.324 -5.59852 221.944 -4.73272 223.674 -3.76612C225.403 -2.79952 227.279 -1.82302 229.276 -0.801523C230.263 -0.270523 231.282 0.278477 232.36 0.769876L235.635 2.35568C240.113 4.53458 245.12 6.71618 250.53 8.96348C255.974 11.1118 261.821 13.3672 268.096 15.3787L270.431 16.1545L272.839 16.8871C274.451 17.3704 276.074 17.8942 277.736 18.3631L282.768 19.7671C284.462 20.2387 286.193 20.6419 287.928 21.0874L290.546 21.748L293.18 22.4302L295.856 23.0323L297.205 23.3401L298.563 23.6173L304.047 24.7198L309.622 25.7071C317.123 26.9608 324.483 27.9049 331.608 28.6051C338.734 29.3053 345.652 29.5987 352.239 29.767C363.904 30.0082 375.574 29.5456 387.184 28.3792L390.808 27.9778L392.57 27.7978L394.261 27.5737L397.5 27.1435C398.54 27.0157 399.563 26.8789 400.533 26.7133L405.986 25.8439L410.564 25.0132L412.493 24.6766C413.094 24.5461 413.658 24.43 414.185 24.322L416.845 23.7658L418.48 23.4283C418.841 23.3203 419.035 23.2933 419.035 23.2933Z" fill="#E9FFF1"/>
<path fill-rule="evenodd" clip-rule="evenodd" d="M224.938 -2.30654L223.338 -3.16874L221.55 -4.13174C220.484 -4.70684 219.463 -5.29094 218.509 -5.84624L213.892 -8.59574C213.508 -8.80274 213.14 -9.00074 212.822 -9.24104L207.66 -12.5251C207.319 -12.7087 207.151 -12.8608 207.151 -12.8608L207.614 -13.5898L208.106 -13.2892L213.299 -10.0501C213.64 -9.86654 213.986 -9.63884 214.341 -9.42824L218.972 -6.70484C219.899 -6.16394 220.9 -5.61854 221.95 -5.03894L223.791 -4.04714C225.128 -3.28484 226.564 -2.55224 228.058 -1.74764L229.349 -1.05194L230.416 -0.476844C231.056 -0.132144 231.712 0.221556 232.405 0.532956L235.681 2.11876C239.739 4.09156 244.472 6.16696 250.548 8.71216C255.66 10.7228 261.687 13.0682 268.085 15.1184L272.843 16.6358L274.557 17.1596C275.602 17.4818 276.66 17.804 277.73 18.1055L282.763 19.5095C283.851 19.8137 284.955 20.0909 286.066 20.3663L287.915 20.8325L293.176 22.0916L298.546 23.2778L304.031 24.3812L309.599 25.3649C316.778 26.5682 324.166 27.5348 331.555 28.2458C338.169 28.8353 345.1 29.2313 352.155 29.4122C363.803 29.6444 375.453 29.1809 387.045 28.0226L395.061 27.083L397.755 26.723C398.653 26.6015 399.519 26.4899 400.355 26.3423L405.81 25.481L413.983 23.9303L418.278 23.0375L418.85 22.9322L419.031 23.7737L418.462 23.9078L410.536 25.5764L405.976 26.4377L400.515 27.3224C399.673 27.4682 398.788 27.5897 397.881 27.7139L393.639 28.2926C393.271 28.3484 392.896 28.3943 392.526 28.4429L387.159 29.0405C375.521 30.2294 363.822 30.7118 352.127 30.485C345.05 30.3068 338.094 29.918 331.454 29.3267C324.032 28.6256 316.617 27.659 309.407 26.4512L303.819 25.4639L290.388 22.502L287.759 21.836L285.9 21.3644C284.783 21.0863 283.677 20.8136 282.583 20.5067L277.545 19.1C276.465 18.7931 275.398 18.4601 274.335 18.1343L272.64 17.6132L267.857 16.0895C261.414 13.9952 255.404 11.6723 250.266 9.63286C244.164 7.09576 239.424 4.98256 235.351 2.97376L232.079 1.38256C231.378 1.04686 230.703 0.689556 230.038 0.338556L228.972 -0.236544L227.702 -0.920544C226.74 -1.35704 225.824 -1.82954 224.938 -2.30654Z" fill="#84D7CC"/>
</g>
</svg>
