<svg width="100" height="100" viewBox="0 0 100 100" fill="none" xmlns="http://www.w3.org/2000/svg">
<circle cx="50" cy="50" r="50" fill="#E6F6EA"/>
<mask id="mask0_5567_148448" style="mask-type:alpha" maskUnits="userSpaceOnUse" x="0" y="0" width="100" height="100">
<circle cx="50" cy="50" r="50" fill="#E6F6EA"/>
</mask>
<g mask="url(#mask0_5567_148448)">
<rect x="26.0662" y="22" width="51.9339" height="58.9159" rx="5.20879" fill="#C6E5B4"/>
<path d="M42.4119 51.3631C42.4119 54.3082 40.0379 56.6932 37.1125 56.6932C34.1871 56.6932 31.8131 54.3082 31.8131 51.3631C31.8131 48.4181 34.1871 46.0331 37.1125 46.0331C40.0379 46.0331 42.4119 48.4181 42.4119 51.3631Z" stroke="#CACCCF" stroke-width="0.526141"/>
<mask id="mask1_5567_148448" style="mask-type:alpha" maskUnits="userSpaceOnUse" x="31" y="45" width="12" height="12">
<path d="M42.4119 51.3631C42.4119 54.3082 40.0379 56.6932 37.1125 56.6932C34.1871 56.6932 31.8131 54.3082 31.8131 51.3631C31.8131 48.4181 34.1871 46.0331 37.1125 46.0331C40.0379 46.0331 42.4119 48.4181 42.4119 51.3631Z" fill="white" stroke="white" stroke-width="0.526141"/>
</mask>
<g mask="url(#mask1_5567_148448)">
<rect x="30.4365" y="44.6519" width="13.3499" height="13.4235" fill="#D44C50"/>
<path fill-rule="evenodd" clip-rule="evenodd" d="M38.9745 49.2293C39.1506 49.0831 39.4118 49.0928 39.5767 49.2585C39.7518 49.4346 39.7518 49.7201 39.5767 49.8962L37.9318 51.5501L39.5767 53.2041C39.7518 53.3802 39.7518 53.6657 39.5767 53.8418C39.4118 54.0075 39.1506 54.0172 38.9745 53.871L38.9425 53.8418L37.2976 52.1878L35.6528 53.8418L35.6208 53.871C35.4446 54.0172 35.1834 54.0075 35.0186 53.8418C34.8434 53.6657 34.8434 53.3802 35.0186 53.2041L36.6634 51.5501L35.0186 49.8962C34.8434 49.7201 34.8434 49.4346 35.0186 49.2585C35.1834 49.0928 35.4446 49.0831 35.6208 49.2293L35.6528 49.2585L37.2976 50.9124L38.9425 49.2585L38.9745 49.2293Z" fill="#70717D"/>
<path d="M39.5767 49.2585L39.4228 49.4116V49.4116L39.5767 49.2585ZM38.9745 49.2293L38.8357 49.0621L38.828 49.0691L38.9745 49.2293ZM39.5767 49.8962L39.4228 49.7432V49.7432L39.5767 49.8962ZM37.9318 51.5501L37.7779 51.3971L37.6257 51.5501L37.7779 51.7032L37.9318 51.5501ZM39.5767 53.2041L39.7306 53.051L39.5767 53.2041ZM39.5767 53.8418L39.7306 53.9948L39.7306 53.9948L39.5767 53.8418ZM38.9745 53.871L38.8278 54.0314L38.8358 54.038L38.9745 53.871ZM38.9425 53.8418L38.7884 53.995L38.796 54.0019L38.9425 53.8418ZM37.2976 52.1878L37.4515 52.0348L37.2976 51.8801L37.1437 52.0348L37.2976 52.1878ZM35.6528 53.8418L35.7994 54.0021L35.8066 53.9948L35.6528 53.8418ZM35.6208 53.871L35.7595 54.0382L35.7672 54.0312L35.6208 53.871ZM35.0186 53.8418L34.8647 53.9948H34.8647L35.0186 53.8418ZM35.0186 53.2041L34.8647 53.051L35.0186 53.2041ZM36.6634 51.5501L36.8173 51.7032L36.9695 51.5501L36.8173 51.3971L36.6634 51.5501ZM35.0186 49.8962L35.1724 49.7432L35.0186 49.8962ZM35.0186 49.2585L35.1724 49.4116L35.0186 49.2585ZM35.6208 49.2293L35.7674 49.0689L35.7594 49.0623L35.6208 49.2293ZM35.6528 49.2585L35.8068 49.1053L35.7992 49.0984L35.6528 49.2585ZM37.2976 50.9124L37.1437 51.0655L37.2976 51.2202L37.4515 51.0655L37.2976 50.9124ZM38.9425 49.2585L38.7959 49.0982L38.7886 49.1055L38.9425 49.2585ZM39.7305 49.1055C39.4858 48.8594 39.0977 48.8449 38.8358 49.0623L39.1131 49.3963C39.2036 49.3212 39.3378 49.3262 39.4228 49.4116L39.7305 49.1055ZM39.7305 50.0493C39.9899 49.7885 39.9899 49.3662 39.7305 49.1055L39.4228 49.4116C39.5137 49.503 39.5137 49.6518 39.4228 49.7432L39.7305 50.0493ZM38.0857 51.7032L39.7305 50.0493L39.4228 49.7432L37.7779 51.3971L38.0857 51.7032ZM37.7779 51.7032L39.4228 53.3571L39.7306 53.051L38.0857 51.3971L37.7779 51.7032ZM39.4228 53.3571C39.5137 53.4485 39.5137 53.5973 39.4228 53.6887L39.7306 53.9948C39.9899 53.734 39.9899 53.3118 39.7306 53.051L39.4228 53.3571ZM39.4228 53.6887C39.3379 53.7741 39.2036 53.7791 39.1131 53.704L38.8358 54.038C39.0977 54.2553 39.4858 54.2409 39.7306 53.9948L39.4228 53.6887ZM39.1209 53.7108L39.0889 53.6816L38.796 54.0019L38.828 54.0312L39.1209 53.7108ZM39.0964 53.6887L37.4515 52.0348L37.1437 52.3409L38.7886 53.9948L39.0964 53.6887ZM35.8066 53.9948L37.4515 52.3409L37.1437 52.0348L35.4989 53.6887L35.8066 53.9948ZM35.7672 54.0312L35.7992 54.0019L35.5063 53.6816L35.4743 53.7108L35.7672 54.0312ZM34.8647 53.9948C35.1094 54.2409 35.4976 54.2553 35.7594 54.038L35.4821 53.704C35.3916 53.7791 35.2574 53.7741 35.1724 53.6887L34.8647 53.9948ZM34.8647 53.051C34.6053 53.3118 34.6053 53.734 34.8647 53.9948L35.1724 53.6887C35.0815 53.5973 35.0815 53.4485 35.1724 53.3571L34.8647 53.051ZM36.5095 51.3971L34.8647 53.051L35.1724 53.3571L36.8173 51.7032L36.5095 51.3971ZM36.8173 51.3971L35.1724 49.7432L34.8647 50.0493L36.5095 51.7032L36.8173 51.3971ZM35.1724 49.7432C35.0815 49.6518 35.0815 49.503 35.1724 49.4116L34.8647 49.1055C34.6053 49.3662 34.6053 49.7885 34.8647 50.0493L35.1724 49.7432ZM35.1724 49.4116C35.2574 49.3262 35.3916 49.3212 35.4821 49.3963L35.7594 49.0623C35.4976 48.8449 35.1094 48.8594 34.8647 49.1055L35.1724 49.4116ZM35.4743 49.3895L35.5063 49.4187L35.7992 49.0984L35.7672 49.0691L35.4743 49.3895ZM35.4989 49.4116L37.1437 51.0655L37.4515 50.7594L35.8066 49.1055L35.4989 49.4116ZM38.7886 49.1055L37.1437 50.7594L37.4515 51.0655L39.0963 49.4116L38.7886 49.1055ZM38.828 49.0691L38.796 49.0984L39.0889 49.4187L39.1209 49.3895L38.828 49.0691Z" fill="white"/>
<mask id="mask2_5567_148448" style="mask-type:alpha" maskUnits="userSpaceOnUse" x="34" y="49" width="6" height="5">
<path fill-rule="evenodd" clip-rule="evenodd" d="M38.9745 49.2293C39.1506 49.0831 39.4118 49.0928 39.5767 49.2585C39.7518 49.4346 39.7518 49.7201 39.5767 49.8962L37.9318 51.5501L39.5767 53.2041C39.7518 53.3802 39.7518 53.6657 39.5767 53.8418C39.4118 54.0075 39.1506 54.0172 38.9745 53.871L38.9425 53.8418L37.2976 52.1878L35.6528 53.8418L35.6208 53.871C35.4446 54.0172 35.1834 54.0075 35.0186 53.8418C34.8434 53.6657 34.8434 53.3802 35.0186 53.2041L36.6634 51.5501L35.0186 49.8962C34.8434 49.7201 34.8434 49.4346 35.0186 49.2585C35.1834 49.0928 35.4446 49.0831 35.6208 49.2293L35.6528 49.2585L37.2976 50.9124L38.9425 49.2585L38.9745 49.2293Z" fill="white"/>
</mask>
<g mask="url(#mask2_5567_148448)">
<rect width="8.89994" height="8.94897" transform="translate(32.6621 46.8892)" fill="white"/>
<rect x="32.6621" y="46.8892" width="8.89994" height="8.94897" fill="white"/>
</g>
</g>
<path d="M42.4109 68.1429C42.4109 71.088 40.0369 73.4729 37.1115 73.4729C34.1861 73.4729 31.8121 71.088 31.8121 68.1429C31.8121 65.1978 34.1861 62.8129 37.1115 62.8129C40.0369 62.8129 42.4109 65.1978 42.4109 68.1429Z" stroke="#CACCCF" stroke-width="0.526141"/>
<mask id="mask3_5567_148448" style="mask-type:alpha" maskUnits="userSpaceOnUse" x="31" y="62" width="12" height="12">
<path d="M42.4109 68.1429C42.4109 71.088 40.0369 73.4729 37.1115 73.4729C34.1861 73.4729 31.8121 71.088 31.8121 68.1429C31.8121 65.1978 34.1861 62.8129 37.1115 62.8129C40.0369 62.8129 42.4109 65.1978 42.4109 68.1429Z" fill="white" stroke="white" stroke-width="0.526141"/>
</mask>
<g mask="url(#mask3_5567_148448)">
<rect x="30.4365" y="61.4312" width="55.6246" height="55.9311" fill="#00AB4E"/>
</g>
<path fill-rule="evenodd" clip-rule="evenodd" d="M39.8735 65.7034L39.8251 65.6561C39.5586 65.4195 39.1657 65.4353 38.9161 65.7034L36.1169 68.7105L34.9566 67.4641C34.6914 67.1792 34.2644 67.1792 33.9992 67.4641C33.7304 67.7529 33.7304 68.2237 33.9992 68.5125L35.4561 70.0775C35.8219 70.4705 36.4119 70.4705 36.7777 70.0775L39.8735 66.7518C40.1255 66.4811 40.1412 66.0503 39.9207 65.7596L39.8735 65.7034Z" fill="#009E3D"/>
<mask id="mask4_5567_148448" style="mask-type:alpha" maskUnits="userSpaceOnUse" x="33" y="65" width="8" height="6">
<path fill-rule="evenodd" clip-rule="evenodd" d="M39.8735 65.7034L39.8251 65.6561C39.5586 65.4195 39.1657 65.4353 38.9161 65.7034L36.1169 68.7105L34.9566 67.4641C34.6914 67.1792 34.2644 67.1792 33.9992 67.4641C33.7304 67.7529 33.7304 68.2237 33.9992 68.5125L35.4561 70.0775C35.8219 70.4705 36.4119 70.4705 36.7777 70.0775L39.8735 66.7518C40.1255 66.4811 40.1412 66.0503 39.9207 65.7596L39.8735 65.7034Z" fill="white"/>
</mask>
<g mask="url(#mask4_5567_148448)">
<rect width="8.36996" height="8.36996" transform="translate(32.7515 63.7461)" fill="white"/>
<rect x="32.7515" y="63.7461" width="8.36996" height="8.36996" fill="white"/>
</g>
<path d="M42.4109 34.5843C42.4109 37.5294 40.0369 39.9144 37.1115 39.9144C34.1861 39.9144 31.8121 37.5294 31.8121 34.5843C31.8121 31.6393 34.1861 29.2543 37.1115 29.2543C40.0369 29.2543 42.4109 31.6393 42.4109 34.5843Z" stroke="#CACCCF" stroke-width="0.526141"/>
<mask id="mask5_5567_148448" style="mask-type:alpha" maskUnits="userSpaceOnUse" x="31" y="28" width="12" height="13">
<path d="M42.4109 34.5843C42.4109 37.5294 40.0369 39.9144 37.1115 39.9144C34.1861 39.9144 31.8121 37.5294 31.8121 34.5843C31.8121 31.6393 34.1861 29.2543 37.1115 29.2543C40.0369 29.2543 42.4109 31.6393 42.4109 34.5843Z" fill="white" stroke="white" stroke-width="0.526141"/>
</mask>
<g mask="url(#mask5_5567_148448)">
<rect x="30.4365" y="27.8726" width="55.6246" height="55.9311" fill="#00AB4E"/>
</g>
<path fill-rule="evenodd" clip-rule="evenodd" d="M39.8735 32.1448L39.8251 32.0975C39.5586 31.8609 39.1657 31.8767 38.9161 32.1448L36.1169 35.1519L34.9566 33.9055C34.6914 33.6206 34.2644 33.6206 33.9992 33.9055C33.7304 34.1943 33.7304 34.6651 33.9992 34.9539L35.4561 36.5189C35.8219 36.9119 36.4119 36.9119 36.7777 36.5189L39.8735 33.1932C40.1255 32.9225 40.1412 32.4917 39.9207 32.201L39.8735 32.1448Z" fill="#009E3D"/>
<mask id="mask6_5567_148448" style="mask-type:alpha" maskUnits="userSpaceOnUse" x="33" y="31" width="8" height="6">
<path fill-rule="evenodd" clip-rule="evenodd" d="M39.8735 32.1448L39.8251 32.0975C39.5586 31.8609 39.1657 31.8767 38.9161 32.1448L36.1169 35.1519L34.9566 33.9055C34.6914 33.6206 34.2644 33.6206 33.9992 33.9055C33.7304 34.1943 33.7304 34.6651 33.9992 34.9539L35.4561 36.5189C35.8219 36.9119 36.4119 36.9119 36.7777 36.5189L39.8735 33.1932C40.1255 32.9225 40.1412 32.4917 39.9207 32.201L39.8735 32.1448Z" fill="white"/>
</mask>
<g mask="url(#mask6_5567_148448)">
<rect width="8.36996" height="8.36996" transform="translate(32.7515 30.1875)" fill="white"/>
<rect x="32.7515" y="30.1875" width="8.36996" height="8.36996" fill="white"/>
</g>
<rect x="46.2896" y="66.4648" width="15.0186" height="3.35586" rx="1.67793" fill="#95CF72"/>
<rect x="62.9768" y="66.4648" width="9.17806" height="3.35586" rx="1.67793" fill="#95CF72"/>
<rect x="46.2896" y="49.686" width="25.8654" height="3.35586" rx="1.67793" fill="#95CF72"/>
<rect x="46.2896" y="32.9062" width="7.50932" height="3.35586" rx="1.67793" fill="#95CF72"/>
<rect x="55.4675" y="32.9062" width="16.6874" height="3.35586" rx="1.67793" fill="#95CF72"/>
<path d="M43.3914 80.4236L34.3365 95.3424C33.9693 95.9473 33.5583 96.5252 33.1094 97.0689C32.6587 97.6131 32.1704 98.1249 31.6457 98.6002C30.8987 99.2746 30.2039 100.001 29.566 100.776C28.9276 101.548 28.3449 102.367 27.8225 103.227L9.98111 92.279L11.6207 89.5776C11.8857 89.141 12.0112 88.647 11.9959 88.1523C11.9829 87.6591 11.8311 87.1649 11.5427 86.7336C11.2648 86.3164 10.9474 85.7004 10.6636 85.1049C10.1362 83.9964 9.92364 82.769 10.0457 81.5597L10.868 73.4291C11.0079 72.0388 11.9545 70.8737 13.2874 70.4511L15.0254 69.8995C16.0338 69.5805 16.849 68.8434 17.2669 67.878C17.3161 67.7631 17.3722 67.6524 17.435 67.5489C18.1933 66.2995 19.8604 65.8854 21.1681 66.6878C21.2848 66.7594 21.3975 66.8348 21.505 66.9164C21.9195 67.2207 22.2703 67.5858 22.5517 67.9894L31.8289 52.7045C32.2705 51.9768 32.9685 51.5033 33.7435 51.3235C34.516 51.1453 35.3636 51.2613 36.1029 51.7149C37.5791 52.6209 38.0621 54.5338 37.1796 55.988L29.8808 68.0133C30.3224 67.2857 31.0205 66.8121 31.7943 66.6316C32.5686 66.453 33.415 66.5682 34.1543 67.0219C35.6318 67.9285 36.1129 69.8419 35.2303 71.2961L34.1283 73.1117C34.5692 72.3852 35.268 71.9106 36.0411 71.7312C36.8143 71.5518 37.663 71.6685 38.4011 72.1215C39.8786 73.0281 40.3616 74.9411 39.479 76.3952L38.7282 77.6322C39.4886 76.3793 41.1365 75.9394 42.422 76.7001C43.0831 77.0918 43.5191 77.7135 43.6919 78.3954C43.8595 79.0647 43.773 79.7949 43.3914 80.4236Z" fill="#F5D5B9"/>
<path d="M22.5513 67.9893L17.5541 76.2225C17.2123 76.0127 16.9856 75.6864 16.8959 75.3301C16.8058 74.9721 16.8521 74.5823 17.0564 74.2457L21.5049 66.9165C21.9193 67.2208 22.27 67.5858 22.5513 67.9893Z" fill="#ECB17D"/>
</g>
</svg>
