<svg width="328" height="164" viewBox="0 0 328 164" fill="none" xmlns="http://www.w3.org/2000/svg">
<rect width="328" height="164" fill="white"/>
<mask id="mask0_5567_145286" style="mask-type:alpha" maskUnits="userSpaceOnUse" x="0" y="0" width="328" height="164">
<path d="M23.2189 161.504C33.6809 163.667 265.053 165.826 301.876 161.504C312.777 160.224 321.503 148.276 322.776 146.203C330.736 133.238 327.751 53.2794 325.761 26.266C324.69 11.7278 309.838 5.19571 302.871 3.03482C289.548 -1.09779 53.2799 -1.26366 22.2229 4.11573C8.32787 6.52168 3.29087 17.8712 2.29087 24.1796C-0.0421274 38.8847 -1.42113 129.331 2.31887 141.514C5.30487 151.239 12.7689 159.343 23.2189 161.504Z" fill="white"/>
</mask>
<g mask="url(#mask0_5567_145286)">
<path d="M23.2189 161.504C33.6809 163.667 265.053 165.826 301.876 161.504C312.777 160.224 321.503 148.276 322.776 146.203C330.736 133.238 327.751 53.2794 325.761 26.266C324.69 11.7278 309.838 5.19571 302.871 3.03482C289.548 -1.09779 53.2799 -1.26366 22.2229 4.11573C8.32787 6.52168 3.29087 17.8712 2.29087 24.1796C-0.0421274 38.8847 -1.42113 129.331 2.31887 141.514C5.30487 151.239 12.7689 159.343 23.2189 161.504Z" fill="#EDFFF5"/>
<path fill-rule="evenodd" clip-rule="evenodd" d="M322.109 123.643H257.091C254.204 123.643 251.843 121.313 251.843 118.464V64.5955C251.843 61.7467 254.204 59.4163 257.091 59.4163H322.109C324.996 59.4163 327.357 61.7467 327.357 64.5955V118.464C327.357 121.313 324.996 123.643 322.109 123.643Z" fill="#C6EED5"/>
<path fill-rule="evenodd" clip-rule="evenodd" d="M317.105 90.0447H261.7C260.192 90.0447 258.959 88.8279 258.959 87.3405V71.0307C258.959 69.5433 260.192 68.3259 261.7 68.3259H317.105C318.612 68.3259 319.845 69.5433 319.845 71.0307V87.3405C319.845 88.8279 318.612 90.0447 317.105 90.0447Z" fill="#EAFFF2"/>
<path fill-rule="evenodd" clip-rule="evenodd" d="M317.105 114.919H261.7C260.192 114.919 258.959 113.702 258.959 112.214V95.9046C258.959 94.4172 260.192 93.2004 261.7 93.2004H317.105C318.612 93.2004 319.845 94.4172 319.845 95.9046V112.214C319.845 113.702 318.612 114.919 317.105 114.919Z" fill="#EAFFF2"/>
<path fill-rule="evenodd" clip-rule="evenodd" d="M305.315 46.6874C305.315 46.6874 302.558 39.5114 310.332 32.4644C310.332 32.4644 314.768 39.6914 305.315 46.6874Z" fill="#C6EED5"/>
<path fill-rule="evenodd" clip-rule="evenodd" d="M305.731 48.5935C305.731 48.5935 298.257 46.4743 297.194 36.1111C297.194 36.1111 305.716 36.9325 305.731 48.5935Z" fill="#C6EED5"/>
<path fill-rule="evenodd" clip-rule="evenodd" d="M310.642 46.3538H297.722V52.0364C297.722 54.6338 299.855 56.7392 302.486 56.7392H305.877C308.509 56.7392 310.642 54.6338 310.642 52.0364V46.3538Z" fill="#DAF6E5"/>
<path fill-rule="evenodd" clip-rule="evenodd" d="M269.991 49.3537L268.985 48.4663L273.547 48.7993L273.63 49.3537H269.991Z" fill="#EAFFF2"/>
<path fill-rule="evenodd" clip-rule="evenodd" d="M292.342 80.2898C292.342 81.8918 291.025 83.1902 289.403 83.1902C287.779 83.1902 286.464 81.8918 286.464 80.2898C286.464 78.6878 287.779 77.3894 289.403 77.3894C291.025 77.3894 292.342 78.6878 292.342 80.2898Z" fill="#DAF6E5"/>
<path fill-rule="evenodd" clip-rule="evenodd" d="M292.539 103.94C292.539 105.542 291.223 106.84 289.6 106.84C287.977 106.84 286.661 105.542 286.661 103.94C286.661 102.338 287.977 101.04 289.6 101.04C291.223 101.04 292.539 102.338 292.539 103.94Z" fill="#DAF6E5"/>
<path fill-rule="evenodd" clip-rule="evenodd" d="M312.435 59.9861H296.609C294.111 59.9861 292.087 57.9881 292.087 55.5239H316.957C316.957 57.9881 314.932 59.9861 312.435 59.9861Z" fill="#DAF6E5"/>
<path d="M354 113H1V178H354V113Z" fill="#BBF0D3"/>
<mask id="mask1_5567_145286" style="mask-type:alpha" maskUnits="userSpaceOnUse" x="268" y="48" width="6" height="2">
<path d="M269.749 49.3537H273.34L273.258 48.7987L268.756 48.4663L269.749 49.3537Z" fill="white"/>
</mask>
<g mask="url(#mask1_5567_145286)">
<path fill-rule="evenodd" clip-rule="evenodd" d="M264.78 59.9546H279.487V35.4434H264.78V59.9546Z" fill="#EAFFF2"/>
<path fill-rule="evenodd" clip-rule="evenodd" d="M265.255 52.8552H276.842V44.9646H265.255V52.8552Z" fill="#EAFFF2"/>
</g>
<path fill-rule="evenodd" clip-rule="evenodd" d="M4.63647 81.8519H67.6479V2.95435H4.63647V81.8519Z" fill="#BBF0D3"/>
<mask id="mask2_5567_145286" style="mask-type:alpha" maskUnits="userSpaceOnUse" x="46" y="8" width="18" height="9">
<path d="M52.5098 12.8298C52.064 12.6882 51.59 12.6138 51.095 12.6138C48.9374 12.6138 47.1236 14.055 46.5542 16.0236V16.0254H52.5446H55.6304H63.3656C63.521 15.5034 63.6092 14.9484 63.6092 14.3736C63.6092 11.2524 61.0784 8.72217 57.9512 8.72217C55.3664 8.72217 53.1866 10.461 52.5098 12.8298Z" fill="white"/>
</mask>
<g mask="url(#mask2_5567_145286)">
<path fill-rule="evenodd" clip-rule="evenodd" d="M43.1702 19.4087H66.9932V5.33813H43.1702V19.4087Z" fill="#EDFFF5"/>
</g>
<path fill-rule="evenodd" clip-rule="evenodd" d="M3.62061 85.8431H68.6642V80.5073H3.62061V85.8431Z" fill="white"/>
<path fill-rule="evenodd" clip-rule="evenodd" d="M3.62061 42.8478H68.6642V41.9592H3.62061V42.8478Z" fill="#EDFFF5"/>
<path fill-rule="evenodd" clip-rule="evenodd" d="M30.7689 52.1029C30.0021 50.1823 28.1241 48.8293 25.9293 48.8293C23.6955 48.8293 21.7935 50.2297 21.0459 52.1977C20.4885 51.8941 19.8489 51.7249 19.1685 51.7249C16.9869 51.7249 15.2217 53.4895 15.2217 55.6651C15.2217 55.8451 15.2367 56.0257 15.2601 56.2003H21.1791H23.0709H26.9463H30.6735H34.0095C34.0377 56.0257 34.0521 55.8451 34.0521 55.6651C34.0521 53.7919 32.6091 52.2499 30.7689 52.1029Z" fill="white"/>
<path fill-rule="evenodd" clip-rule="evenodd" d="M3.24023 5.55552H75.5048V2.47632H3.24023V5.55552Z" fill="#84D7CC"/>
<path fill-rule="evenodd" clip-rule="evenodd" d="M76.7764 7.2403H76.1146C75.3508 7.2403 74.731 6.6205 74.731 5.8555V1.9849C74.731 1.2199 75.3508 0.600098 76.1146 0.600098H76.7764C77.5414 0.600098 78.1606 1.2199 78.1606 1.9849V5.8555C78.1606 6.6205 77.5414 7.2403 76.7764 7.2403Z" fill="#84D7CC"/>
<path fill-rule="evenodd" clip-rule="evenodd" d="M72.8043 25.9086C72.8043 26.8032 72.0795 27.5292 71.1849 27.5292C70.2903 27.5292 69.5649 26.8032 69.5649 25.9086C69.5649 25.0146 70.2903 24.2886 71.1849 24.2886C72.0795 24.2886 72.8043 25.0146 72.8043 25.9086Z" fill="#84D7CC"/>
<path d="M71.0466 3.96729L71.2572 24.6271" stroke="#84D7CC" stroke-width="0.6768"/>
<path fill-rule="evenodd" clip-rule="evenodd" d="M46.8667 70.717C46.8667 70.717 44.1613 63.5806 51.7897 56.5732C51.7897 56.5732 56.1439 63.7594 46.8667 70.717Z" fill="#84D7CC"/>
<path fill-rule="evenodd" clip-rule="evenodd" d="M47.2749 72.6123C47.2749 72.6123 39.9399 70.5051 38.8977 60.1995C38.8977 60.1995 47.2605 61.0161 47.2749 72.6123Z" fill="#84D7CC"/>
<path fill-rule="evenodd" clip-rule="evenodd" d="M52.0948 70.385H39.415V76.0358C39.415 78.6188 41.5084 80.7122 44.0908 80.7122H47.4184C50.0014 80.7122 52.0948 78.6188 52.0948 76.0358V70.385Z" fill="#DAF6E5"/>
<path fill-rule="evenodd" clip-rule="evenodd" d="M43.605 70.385L42.6174 69.5024L47.094 69.8336L47.1762 70.385H43.605Z" fill="#EDFFF5"/>
<mask id="mask3_5567_145286" style="mask-type:alpha" maskUnits="userSpaceOnUse" x="42" y="69" width="6" height="2">
<path d="M43.6051 70.3848H47.1763L47.0935 69.8334L42.6169 69.5022L43.6051 70.3848Z" fill="white"/>
</mask>
<g mask="url(#mask3_5567_145286)">
<path fill-rule="evenodd" clip-rule="evenodd" d="M38.6636 80.9268H53.2886V56.5518H38.6636V80.9268Z" fill="#EDFFF5"/>
<path fill-rule="evenodd" clip-rule="evenodd" d="M39.1353 73.8673H50.6583V66.0205H39.1353V73.8673Z" fill="#EDFFF5"/>
</g>
<mask id="mask4_5567_145286" style="mask-type:alpha" maskUnits="userSpaceOnUse" x="256" y="137" width="78" height="49">
<path d="M256.158 137.524H333.2V185.831H256.158V137.524Z" fill="white"/>
</mask>
<g mask="url(#mask4_5567_145286)">
</g>
<mask id="mask5_5567_145286" style="mask-type:alpha" maskUnits="userSpaceOnUse" x="127" y="33" width="79" height="119">
<path d="M176.664 33.611L134.751 41.8761C134.731 41.8813 134.71 41.8854 134.689 41.8896C129.952 42.8666 127.029 48.1448 128.153 53.7167L145.923 142.754C147.041 148.357 152.523 151.997 158.171 150.882L196.911 143.24C201.899 142.258 205.345 137.896 205.319 133.032L205.316 132.849C205.303 132.259 205.238 131.664 205.118 131.066L187.35 42.0414C186.382 37.2402 182.725 33.7802 178.692 33.4865C178.023 33.4378 177.344 33.4768 176.664 33.611Z" fill="white"/>
</mask>
<g mask="url(#mask5_5567_145286)">
<path fill-rule="evenodd" clip-rule="evenodd" d="M122.847 29.5255L208.539 28.2759L210.386 155.04L124.696 156.289L122.847 29.5255Z" fill="#1868A7"/>
</g>
<mask id="mask6_5567_145286" style="mask-type:alpha" maskUnits="userSpaceOnUse" x="130" y="33" width="78" height="119">
<path d="M179.297 33.3193L137.562 41.5907C137.54 41.5948 137.52 41.599 137.499 41.6032C132.784 42.5798 129.874 47.8761 130.997 53.468L148.746 142.834C149.863 148.458 155.325 152.115 160.947 150.999L199.524 143.353C205.152 142.236 208.808 136.768 207.689 131.139L189.944 41.7859C188.976 36.9647 185.326 33.489 181.307 33.1963C180.643 33.148 179.971 33.1856 179.297 33.3193Z" fill="white"/>
</mask>
<g mask="url(#mask6_5567_145286)">
<path fill-rule="evenodd" clip-rule="evenodd" d="M125.691 29.2318L211.105 27.9868L212.958 155.159L127.545 156.404L125.691 29.2318Z" fill="#3392E2"/>
</g>
<mask id="mask7_5567_145286" style="mask-type:alpha" maskUnits="userSpaceOnUse" x="135" y="38" width="70" height="110">
<path d="M179.993 38.958L173.306 40.2954C172.448 40.4662 171.671 40.4914 171.674 41.586L171.678 42.8063C171.682 43.903 171.082 44.7928 170.224 44.9645L151.209 48.7645C150.352 48.9361 149.457 48.3447 149.041 47.3314L148.578 46.2023C148.2 45.2869 147.579 45.4215 146.829 45.582C146.75 45.6 146.669 45.6179 146.587 45.6328L139.899 46.9673C139.887 46.9702 139.872 46.973 139.861 46.975C136.792 47.6166 134.937 51.2825 135.712 55.1855L152.639 140.917C153.498 145.263 157.68 148.087 161.984 147.225L197.672 140.095C201.984 139.232 204.783 135.001 203.926 130.651L187.002 44.9367C186.327 41.5376 183.877 39.0744 181.223 38.8811C180.816 38.8514 180.404 38.8757 179.993 38.958Z" fill="white"/>
</mask>
<g mask="url(#mask7_5567_145286)">
<path fill-rule="evenodd" clip-rule="evenodd" d="M130.519 34.8569L207.392 33.736L209.108 151.417L132.235 152.538L130.519 34.8569Z" fill="white"/>
</g>
<mask id="mask8_5567_145286" style="mask-type:alpha" maskUnits="userSpaceOnUse" x="129" y="63" width="5" height="11">
<path d="M130.594 63.5663C130.592 63.5661 130.588 63.5668 130.587 63.5667C130.189 63.6491 129.934 64.0283 130.013 64.4204L131.786 73.1621C131.864 73.556 132.256 73.811 132.657 73.7327L133.93 73.4828L131.868 63.3145L130.594 63.5663Z" fill="white"/>
</mask>
<g mask="url(#mask8_5567_145286)">
<path fill-rule="evenodd" clip-rule="evenodd" d="M125.171 58.6661L138.458 58.4726L138.748 78.4025L125.461 78.596L125.171 58.6661Z" fill="#3392E2"/>
</g>
<mask id="mask9_5567_145286" style="mask-type:alpha" maskUnits="userSpaceOnUse" x="191" y="52" width="5" height="12">
<path d="M192.813 52.9457L191.538 53.1964L193.601 63.3638L194.874 63.1158C195.274 63.0355 195.535 62.6519 195.454 62.2597L193.681 53.517C193.616 53.1897 193.335 52.957 193.012 52.9335C192.946 52.9287 192.88 52.9325 192.813 52.9457Z" fill="white"/>
</mask>
<g mask="url(#mask9_5567_145286)">
<path fill-rule="evenodd" clip-rule="evenodd" d="M186.72 48.2765L200.007 48.083L200.297 68.0128L187.011 68.2064L186.72 48.2765Z" fill="#3392E2"/>
</g>
<mask id="mask10_5567_145286" style="mask-type:alpha" maskUnits="userSpaceOnUse" x="133" y="75" width="4" height="12">
<path d="M133.622 75.8594C133.618 75.8601 133.618 75.8601 133.615 75.8608C133.218 75.9423 132.96 76.3251 133.04 76.7154L134.815 85.4572C134.893 85.8512 135.281 86.1078 135.684 86.0286L136.957 85.7788L134.896 75.6106L133.622 75.8594Z" fill="white"/>
</mask>
<g mask="url(#mask10_5567_145286)">
<path fill-rule="evenodd" clip-rule="evenodd" d="M128.198 70.962L141.485 70.7685L141.775 90.6984L128.488 90.8919L128.198 70.962Z" fill="#3392E2"/>
</g>
<mask id="mask11_5567_145286" style="mask-type:alpha" maskUnits="userSpaceOnUse" x="152" y="40" width="11" height="5">
<path d="M161.709 40.1143L153.235 41.8631C153.233 41.8629 153.23 41.8637 153.228 41.8645C152.717 41.9738 152.385 42.4911 152.486 43.0295L152.524 43.2198C152.627 43.7535 153.131 44.1023 153.648 43.9953L162.123 42.2457C162.637 42.1385 162.971 41.6166 162.869 41.081L162.831 40.8917C162.745 40.4448 162.383 40.1272 161.965 40.0968C161.881 40.0907 161.795 40.0958 161.709 40.1143Z" fill="white"/>
</mask>
<g mask="url(#mask11_5567_145286)">
<path fill-rule="evenodd" clip-rule="evenodd" d="M147.616 35.5568L167.546 35.2665L167.739 48.5525L147.809 48.8437L147.616 35.5568Z" fill="#1868A7"/>
</g>
<mask id="mask12_5567_145286" style="mask-type:alpha" maskUnits="userSpaceOnUse" x="164" y="39" width="4" height="3">
<path d="M165.918 39.1115C165.915 39.1103 165.912 39.111 165.909 39.1118C165.144 39.273 164.65 40.0184 164.802 40.785C164.957 41.5576 165.706 42.0576 166.477 41.9025C167.25 41.7494 167.749 40.9987 167.593 40.228C167.467 39.5868 166.926 39.1325 166.304 39.0872C166.177 39.078 166.048 39.0848 165.918 39.1115Z" fill="white"/>
</mask>
<g mask="url(#mask12_5567_145286)">
<path fill-rule="evenodd" clip-rule="evenodd" d="M159.939 34.428L172.277 34.2482L172.456 46.5862L160.119 46.766L159.939 34.428Z" fill="#1868A7"/>
</g>
<mask id="mask13_5567_145286" style="mask-type:alpha" maskUnits="userSpaceOnUse" x="135" y="52" width="63" height="96">
<path d="M135.628 55.4658L152.755 141.009C153.624 145.345 157.858 148.162 162.216 147.301L197.468 140.357C155.266 143.246 137.338 61.8589 135.493 52.8998C135.416 53.7221 135.451 54.5869 135.628 55.4658Z" fill="white"/>
</mask>
<g mask="url(#mask13_5567_145286)">
<path fill-rule="evenodd" clip-rule="evenodd" d="M129.405 51.9413L199.634 50.9171L201.157 155.313L130.927 156.337L129.405 51.9413Z" fill="#C3DFF8"/>
</g>
<mask id="mask14_5567_145286" style="mask-type:alpha" maskUnits="userSpaceOnUse" x="170" y="123" width="34" height="23">
<path d="M170.385 124.734L192.25 138.639L203.66 145.003L203.116 139.679L198.639 137.986L190.641 133.424C190.641 133.424 180.188 125.884 176.775 124.081C176.006 123.675 175.259 123.484 174.564 123.434C172.173 123.26 170.385 124.734 170.385 124.734Z" fill="white"/>
</mask>
<g mask="url(#mask14_5567_145286)">
<path fill-rule="evenodd" clip-rule="evenodd" d="M205.409 115.428L165.084 119.549L168.541 153.364L208.865 149.243L205.409 115.428Z" fill="#C3E0FF"/>
</g>
<mask id="mask15_5567_145286" style="mask-type:alpha" maskUnits="userSpaceOnUse" x="164" y="113" width="62" height="57">
<path d="M206.847 131.573L205.373 136.775C205.332 136.915 205.285 137.054 205.23 137.19C204.384 139.291 201.994 140.307 199.894 139.459L190.764 135.776C189.654 135.35 188.603 134.777 187.641 134.073L173.493 123.733C172.396 122.931 171.047 122.55 169.69 122.66L169.26 122.695C166.516 122.922 164.334 125.087 164.083 127.826C163.94 129.436 164.489 131.035 165.596 132.214L177.822 145.22C179.005 146.477 180.02 147.882 180.846 149.398L187.864 162.291C188.791 163.996 189.854 165.621 191.041 167.15L225.385 169.651L222.125 162.673C220.541 159.602 219.596 156.243 219.342 152.794L217.427 126.558C217.256 124.214 216.07 122.06 214.179 120.663L204.679 113.457L206.847 131.573Z" fill="white"/>
</mask>
<g mask="url(#mask15_5567_145286)">
<path fill-rule="evenodd" clip-rule="evenodd" d="M224.778 106.633L157.743 113.484L165.419 188.588L232.453 181.737L224.778 106.633Z" fill="#FFDAB8"/>
</g>
<mask id="mask16_5567_145286" style="mask-type:alpha" maskUnits="userSpaceOnUse" x="179" y="143" width="51" height="23">
<path d="M195.759 165.819H202.156C202.047 165.678 201.939 165.54 201.832 165.402C200.119 163.201 197.943 161.436 195.543 160.017C189.366 156.366 179.403 143.135 179.403 143.135C188.982 160.094 194.336 164.778 195.759 165.819ZM228.803 165.819H229.294C229.547 165.298 229.642 164.989 229.642 164.989C229.384 165.27 229.103 165.547 228.803 165.819Z" fill="white"/>
</mask>
<g mask="url(#mask16_5567_145286)">
<path fill-rule="evenodd" clip-rule="evenodd" d="M228.446 129.41L173.611 139.079L182.068 187.041L236.903 177.372L228.446 129.41Z" fill="#FFB490"/>
</g>
<path fill-rule="evenodd" clip-rule="evenodd" d="M102.055 24.5602L99.5805 29.0827L95.0602 31.555C94.3133 31.9642 94.3133 33.0358 95.0602 33.445L99.5805 35.9173L102.055 40.4398C102.462 41.1867 103.536 41.1867 103.943 40.4398L106.417 35.9173L110.94 33.445C111.687 33.0358 111.687 31.9642 110.94 31.555L106.417 29.0827L103.943 24.5602C103.536 23.8133 102.462 23.8133 102.055 24.5602Z" fill="#FFD37B"/>
<path fill-rule="evenodd" clip-rule="evenodd" d="M235.889 121.362L234.287 124.289L231.362 125.889C230.879 126.153 230.879 126.847 231.362 127.111L234.287 128.711L235.889 131.638C236.152 132.121 236.847 132.121 237.11 131.638L238.711 128.711L241.638 127.111C242.121 126.847 242.121 126.153 241.638 125.889L238.711 124.289L237.11 121.362C236.847 120.879 236.152 120.879 235.889 121.362Z" fill="#FFC54F"/>
</g>
<path d="M270.619 67.1515C270.619 77.0087 262.645 84.9999 252.81 84.9999C242.974 84.9999 235 77.0087 235 67.1515C235 57.2942 242.974 49.303 252.81 49.303C262.211 49.303 269.91 56.6034 270.573 65.8559C270.604 66.2835 270.619 66.7154 270.619 67.1515Z" fill="#84D7CC"/>
<path d="M270.619 64.8485C270.619 74.7057 262.645 82.697 252.81 82.697C242.974 82.697 235 74.7057 235 64.8485C235 54.9912 242.974 47 252.81 47C262.211 47 269.91 54.3004 270.573 63.5529C270.604 63.9806 270.619 64.4124 270.619 64.8485Z" fill="white"/>
<path fill-rule="evenodd" clip-rule="evenodd" d="M257.147 65.1523L253.103 66.2832C252.853 66.3531 252.59 66.355 252.34 66.2871L248.073 65.1435C247.397 64.9614 246.922 64.3079 246.922 63.5579V58.5433C246.922 55.446 249.256 52.9343 252.136 52.9343H253.068C255.949 52.9343 258.283 55.446 258.283 58.5433V63.5707C258.283 64.3148 257.816 64.9653 257.147 65.1523Z" fill="#946F25"/>
<path fill-rule="evenodd" clip-rule="evenodd" d="M253.069 52.9343H252.137C251.901 52.9343 251.671 52.9501 251.446 52.9796C253.999 53.3182 255.969 55.5031 255.969 58.1487V62.8217C255.969 63.5136 255.503 64.1179 254.832 64.2921L251.54 65.1484L252.34 65.3472C252.59 65.4102 252.852 65.4082 253.102 65.3433L257.147 64.2921C257.816 64.1179 258.283 63.5136 258.283 62.8217V58.1487C258.283 55.2689 255.949 52.9343 253.069 52.9343Z" fill="#6C4A07"/>
<path fill-rule="evenodd" clip-rule="evenodd" d="M255.213 66.1178C254.825 66.04 254.547 65.7005 254.547 65.3048V63.4368H252.714H250.882V65.3048C250.882 65.7005 250.602 66.04 250.216 66.1178L249.77 66.2073V69.2072H252.714H255.659V66.2073L255.213 66.1178Z" fill="#FFDAB8"/>
<mask id="mask17_5567_145286" style="mask-type:alpha" maskUnits="userSpaceOnUse" x="243" y="65" width="19" height="9">
<path fill-rule="evenodd" clip-rule="evenodd" d="M243.65 65.9634H261.778V73.6028H243.65V65.9634Z" fill="white"/>
</mask>
<g mask="url(#mask17_5567_145286)">
<path fill-rule="evenodd" clip-rule="evenodd" d="M259.029 67.1247L255.353 65.9781C255.238 65.9427 255.113 65.9722 255.027 66.0539L252.714 68.2458L250.401 66.0539C250.314 65.9722 250.19 65.9427 250.075 65.9781L246.399 67.1247C244.769 67.605 243.649 69.101 243.649 70.8008V73.2495C243.649 73.4444 243.808 73.6028 244.003 73.6028H261.425C261.62 73.6028 261.779 73.4444 261.779 73.2495V70.8008C261.779 69.101 260.659 67.605 259.029 67.1247Z" fill="#E79E5C"/>
</g>
<mask id="mask18_5567_145286" style="mask-type:alpha" maskUnits="userSpaceOnUse" x="254" y="65" width="8" height="9">
<path fill-rule="evenodd" clip-rule="evenodd" d="M254.595 65.9634H261.778V73.6028H254.595V65.9634Z" fill="white"/>
</mask>
<g mask="url(#mask18_5567_145286)">
<path fill-rule="evenodd" clip-rule="evenodd" d="M259.029 67.1247L255.353 65.9781C255.238 65.9427 255.114 65.9722 255.027 66.0539L254.595 66.4643L256.715 67.1247C258.346 67.605 259.464 69.101 259.464 70.8008V73.6028H261.425C261.62 73.6028 261.779 73.4444 261.779 73.2495V70.8008C261.779 69.101 260.659 67.605 259.029 67.1247Z" fill="#E07E26"/>
</g>
<path fill-rule="evenodd" clip-rule="evenodd" d="M252.714 64.9904C250.191 64.9904 248.144 62.9442 248.144 60.4207V59.1373C248.144 56.6138 250.191 54.5686 252.714 54.5686C255.237 54.5686 257.284 56.6138 257.284 59.1373V60.4207C257.284 62.9442 255.237 64.9904 252.714 64.9904Z" fill="#FFDAB8"/>
<path fill-rule="evenodd" clip-rule="evenodd" d="M254.969 55.1628V60.4215C254.969 62.5444 253.52 64.3298 251.557 64.8426C251.927 64.939 252.314 64.9902 252.714 64.9902C255.238 64.9902 257.284 62.945 257.284 60.4215V59.1371C257.284 57.4344 256.351 55.9482 254.969 55.1628Z" fill="#FFB490"/>
<path fill-rule="evenodd" clip-rule="evenodd" d="M250.402 66.0539L252.715 68.2458L251.287 68.732C250.938 68.8511 250.551 68.7477 250.308 68.4702L248.543 66.4565L250.076 65.9781C250.19 65.9427 250.314 65.9722 250.402 66.0539Z" fill="#E6F6ED"/>
<path fill-rule="evenodd" clip-rule="evenodd" d="M255.027 66.0539L252.714 68.2458L254.007 68.6867C254.437 68.8333 254.913 68.7054 255.213 68.3639L256.885 66.4565L255.352 65.9781C255.238 65.9427 255.114 65.9722 255.027 66.0539Z" fill="#E6F6ED"/>
<mask id="mask19_5567_145286" style="mask-type:alpha" maskUnits="userSpaceOnUse" x="246" y="52" width="13" height="8">
<path fill-rule="evenodd" clip-rule="evenodd" d="M246.922 52.9343H258.283V59.6162H246.922V52.9343Z" fill="white"/>
</mask>
<g mask="url(#mask19_5567_145286)">
<path fill-rule="evenodd" clip-rule="evenodd" d="M258.283 59.1122C258.283 59.1122 256.311 58.9557 255.637 57.1428C255.637 57.1428 250.873 60.9576 246.922 59.1122V58.1487C246.922 55.2689 249.257 52.9343 252.136 52.9343H253.069C255.948 52.9343 258.283 55.2689 258.283 58.1487V59.1122Z" fill="#946F25"/>
</g>
<path fill-rule="evenodd" clip-rule="evenodd" d="M253.069 52.9343H252.137C251.901 52.9343 251.671 52.9501 251.446 52.9796C253.873 53.3014 255.495 54.8024 255.675 57.2717C256.372 58.9449 258.283 59.1122 258.283 59.1122V58.1487C258.283 55.2689 255.949 52.9343 253.069 52.9343Z" fill="#6C4A07"/>
<path d="M247.195 59.419C247.195 59.419 246.956 52.5096 252.671 52.5296C258.754 52.5505 257.988 59.4181 257.988 59.419" stroke="#00AB4E" stroke-width="0.811" stroke-linecap="round"/>
<path fill-rule="evenodd" clip-rule="evenodd" d="M257.252 64.1379H254.498C254.324 64.1379 254.183 63.9991 254.183 63.8289C254.183 63.6566 254.324 63.5188 254.498 63.5188H257.252C257.426 63.5188 257.567 63.3791 257.567 63.2088V61.0908C257.567 60.9195 257.708 60.7808 257.883 60.7808C258.056 60.7808 258.197 60.9195 258.197 61.0908V63.2088C258.197 63.7216 257.772 64.1379 257.252 64.1379Z" fill="#E6F6ED"/>
<path fill-rule="evenodd" clip-rule="evenodd" d="M252.607 63.8283C252.607 64.1708 252.889 64.4474 253.237 64.4474H254.288C254.637 64.4474 254.919 64.1708 254.919 63.8283C254.919 63.4858 254.637 63.2083 254.288 63.2083H253.237C252.889 63.2083 252.607 63.4858 252.607 63.8283Z" fill="#00883E"/>
<path fill-rule="evenodd" clip-rule="evenodd" d="M247.164 61.404H247.816C248.067 61.404 248.27 61.2003 248.27 60.9503V59.1571C248.27 58.9061 248.067 58.7024 247.816 58.7024H247.164C246.839 58.7024 246.574 58.9662 246.574 59.2919V60.8155C246.574 61.1403 246.839 61.404 247.164 61.404Z" fill="#00AB4E"/>
<path fill-rule="evenodd" clip-rule="evenodd" d="M258.265 61.404H257.612C257.361 61.404 257.158 61.2003 257.158 60.9503V59.1571C257.158 58.9061 257.361 58.7024 257.612 58.7024H258.265C258.589 58.7024 258.854 58.9662 258.854 59.2919V60.8155C258.854 61.1403 258.589 61.404 258.265 61.404Z" fill="#00AB4E"/>
<circle cx="170" cy="91" r="17" fill="#C6E5B4"/>
<path fill-rule="evenodd" clip-rule="evenodd" d="M178.615 96.7048C177.725 97.6384 176.805 98.5443 175.883 99.4461C175.372 99.9454 174.902 99.9947 174.196 99.672C171.542 98.4609 169.258 96.7229 167.172 94.7152C164.766 92.3984 162.663 89.8476 161.245 86.7919C160.846 85.9332 160.916 85.5324 161.592 84.855C162.404 84.0424 163.216 83.2297 164.033 82.422C164.763 81.7001 165.45 81.6938 166.172 82.4044C166.845 83.0666 167.514 83.7334 168.178 84.4047C168.888 85.1232 168.882 85.8077 168.162 86.5368C167.676 87.0295 167.178 87.5113 166.694 88.0058C165.842 88.8747 165.832 89.8457 166.681 90.7048C167.843 91.88 169.013 93.0467 170.191 94.2055C171.054 95.054 172.023 95.0432 172.896 94.1923C173.403 93.698 173.895 93.189 174.402 92.6947C175.092 92.0219 175.79 92.0147 176.471 92.681C177.169 93.3628 177.873 94.0402 178.536 94.7547C178.787 95.0257 179.396 95.8291 178.615 96.7048Z" fill="#63B5FA"/>
<mask id="mask20_5567_145286" style="mask-type:alpha" maskUnits="userSpaceOnUse" x="160" y="81" width="19" height="19">
<path fill-rule="evenodd" clip-rule="evenodd" d="M178.615 96.7048C177.725 97.6384 176.805 98.5443 175.883 99.4461C175.372 99.9454 174.902 99.9947 174.196 99.672C171.542 98.4609 169.258 96.7229 167.172 94.7152C164.766 92.3984 162.663 89.8476 161.245 86.7919C160.846 85.9332 160.916 85.5324 161.592 84.855C162.404 84.0424 163.216 83.2297 164.033 82.422C164.763 81.7001 165.45 81.6938 166.172 82.4044C166.845 83.0666 167.514 83.7334 168.178 84.4047C168.888 85.1232 168.882 85.8077 168.162 86.5368C167.676 87.0295 167.178 87.5113 166.694 88.0058C165.842 88.8747 165.832 89.8457 166.681 90.7048C167.843 91.88 169.013 93.0467 170.191 94.2055C171.054 95.054 172.023 95.0432 172.896 94.1923C173.403 93.698 173.895 93.189 174.402 92.6947C175.092 92.0219 175.79 92.0147 176.471 92.681C177.169 93.3628 177.873 94.0402 178.536 94.7547C178.787 95.0257 179.396 95.8291 178.615 96.7048Z" fill="white"/>
</mask>
<g mask="url(#mask20_5567_145286)">
<rect x="158" y="79" width="24" height="24" fill="#00AB4E"/>
</g>
<path fill-rule="evenodd" clip-rule="evenodd" d="M97.0446 137.714C88.7851 152.019 70.2045 156.755 55.5446 148.291C40.8846 139.827 35.6958 121.368 43.9553 107.062C52.2147 92.7566 70.7954 88.0206 85.4553 96.4845C99.4677 104.575 104.826 121.795 98.0615 135.794C97.7489 136.441 97.41 137.081 97.0446 137.714Z" fill="#40C0A6"/>
<path fill-rule="evenodd" clip-rule="evenodd" d="M98.2592 134.862C89.6967 149.693 70.732 154.774 55.9014 146.212C41.0707 137.649 35.9891 118.684 44.5516 103.854C53.1141 89.0231 72.0788 83.9416 86.9095 92.504C101.085 100.688 106.353 118.375 99.3151 132.872C98.99 133.543 98.638 134.206 98.2592 134.862Z" fill="white"/>
<path fill-rule="evenodd" clip-rule="evenodd" d="M86.4411 133.022H86.4723C87.0495 133.022 87.3375 132.324 86.9295 131.918L86.9079 131.895C86.3007 131.286 85.9203 130.497 85.8183 129.639C88.4199 127.931 89.7159 125.457 89.7159 122.864C89.7159 118.078 85.3179 113.216 78.4299 113.216C71.1339 113.216 67.2207 117.69 67.2207 122.445C67.2207 127.229 71.1747 131.702 78.4299 131.702C79.7019 131.702 81.0267 131.531 82.2123 131.22C83.3319 132.37 84.8511 133.022 86.4411 133.022Z" fill="#BFD730"/>
<mask id="mask21_5567_145286" style="mask-type:alpha" maskUnits="userSpaceOnUse" x="67" y="113" width="23" height="21">
<path fill-rule="evenodd" clip-rule="evenodd" d="M86.4411 133.022H86.4723C87.0495 133.022 87.3375 132.324 86.9295 131.918L86.9079 131.895C86.3007 131.286 85.9203 130.497 85.8183 129.639C88.4199 127.931 89.7159 125.457 89.7159 122.864C89.7159 118.078 85.3179 113.216 78.4299 113.216C71.1339 113.216 67.2207 117.69 67.2207 122.445C67.2207 127.229 71.1747 131.702 78.4299 131.702C79.7019 131.702 81.0267 131.531 82.2123 131.22C83.3319 132.37 84.8511 133.022 86.4411 133.022Z" fill="white"/>
</mask>
<g mask="url(#mask21_5567_145286)">
<path fill-rule="evenodd" clip-rule="evenodd" d="M75.4259 113.349C69.4259 114.093 66.2207 118.149 66.2207 122.445C66.2207 123.011 66.2807 124.138 66.3899 124.689C72.3575 123.941 75.5915 119.321 75.5915 115C75.5915 114.443 75.5327 113.891 75.4259 113.349Z" fill="#98AC26"/>
</g>
<path fill-rule="evenodd" clip-rule="evenodd" d="M83.1552 120.249H73.9764C73.5468 120.249 73.2 119.901 73.2 119.474C73.2 119.045 73.5468 118.697 73.9764 118.697H83.1552C83.5824 118.697 83.9304 119.045 83.9304 119.474C83.9304 119.901 83.5824 120.249 83.1552 120.249Z" fill="white"/>
<path fill-rule="evenodd" clip-rule="evenodd" d="M83.1552 123.869H73.9764C73.5468 123.869 73.2 123.521 73.2 123.094C73.2 122.665 73.5468 122.317 73.9764 122.317H83.1552C83.5824 122.317 83.9304 122.665 83.9304 123.094C83.9304 123.521 83.5824 123.869 83.1552 123.869Z" fill="white"/>
<path fill-rule="evenodd" clip-rule="evenodd" d="M83.1552 127.489H73.9764C73.5468 127.489 73.2 127.141 73.2 126.713C73.2 126.285 73.5468 125.937 73.9764 125.937H83.1552C83.5824 125.937 83.9304 126.285 83.9304 126.713C83.9304 127.141 83.5824 127.489 83.1552 127.489Z" fill="white"/>
<mask id="mask22_5567_145286" style="mask-type:alpha" maskUnits="userSpaceOnUse" x="52" y="104" width="24" height="22">
<path fill-rule="evenodd" clip-rule="evenodd" d="M52 104.6H76V125.6H52V104.6Z" fill="white"/>
</mask>
<g mask="url(#mask22_5567_145286)">
<path fill-rule="evenodd" clip-rule="evenodd" d="M55.2748 125.006H55.2436C54.6664 125.006 54.3784 124.309 54.7864 123.902L54.808 123.879C55.4164 123.272 55.7956 122.481 55.8976 121.623C53.296 119.916 52 117.441 52 114.848C52 110.062 56.398 105.2 63.286 105.2C70.5832 105.2 74.4952 109.675 74.4952 114.429C74.4952 119.214 70.5412 123.686 63.286 123.686C62.014 123.686 60.6892 123.516 59.5036 123.205C58.384 124.354 56.8648 125.006 55.2748 125.006Z" fill="#00AB4E"/>
</g>
<path fill-rule="evenodd" clip-rule="evenodd" d="M61.8994 117.659C61.969 117.527 62.089 117.431 62.2642 117.371C62.4394 117.313 62.7142 117.283 63.0886 117.283C63.4642 117.283 63.7354 117.365 63.901 117.532C64.0678 117.698 64.1506 118.019 64.1506 118.497C64.1506 118.838 64.1086 119.092 64.0234 119.259C63.937 119.425 63.8074 119.535 63.6322 119.59C63.4582 119.647 63.187 119.674 62.821 119.674C62.4538 119.674 62.173 119.584 61.9762 119.405C61.831 119.26 61.759 119.013 61.759 118.664V118.46C61.759 118.263 61.7662 118.113 61.7782 118.011C61.7914 117.909 61.831 117.791 61.8994 117.659ZM61.951 115.377L61.9642 115.275C61.9642 114.909 62.0686 114.619 62.2762 114.405C62.4862 114.193 62.7142 114.052 62.9614 113.984C63.2086 113.915 63.4366 113.8 63.6454 113.637C63.8542 113.476 63.9586 113.257 63.9586 112.979C63.9586 112.702 63.8794 112.486 63.7234 112.334C63.565 112.18 63.3274 112.103 63.013 112.103C62.6974 112.103 62.4646 112.153 62.3158 112.25C62.167 112.348 62.0746 112.449 62.041 112.551L62.0026 112.705C61.9246 112.927 61.8358 113.095 61.7338 113.21C61.6306 113.325 61.4998 113.383 61.3366 113.383C61.1746 113.383 60.9622 113.331 60.6982 113.229C60.1858 113.033 59.9302 112.79 59.9302 112.499C59.9302 112.372 59.9566 112.241 60.0082 112.109C60.0586 111.977 60.1006 111.867 60.1354 111.777C60.1702 111.687 60.2614 111.532 60.4102 111.31C60.559 111.088 60.7294 110.895 60.9226 110.728C61.1134 110.563 61.3834 110.409 61.7338 110.269C62.083 110.128 62.4718 110.057 62.8978 110.057C63.8014 110.057 64.5382 110.347 65.1106 110.927C65.6806 111.507 65.9674 112.18 65.9674 112.947C65.9674 113.314 65.9002 113.653 65.7682 113.963C65.6362 114.275 65.4754 114.52 65.2882 114.699C64.9138 115.058 64.5646 115.297 64.2394 115.415L64.0354 115.479C64.0354 115.624 64.0282 115.735 64.0174 115.811C64.0042 115.888 63.9658 115.972 63.901 116.061C63.8374 116.151 63.7306 116.215 63.5818 116.253C63.4318 116.291 63.2338 116.311 62.9866 116.311C62.7394 116.311 62.5414 116.289 62.3926 116.247C62.2426 116.204 62.1382 116.132 62.0782 116.03C62.0194 115.927 61.9822 115.835 61.9714 115.755C61.9582 115.673 61.951 115.547 61.951 115.377Z" fill="white"/>
<path d="M273.074 79.1367C273.074 83.7127 269.365 87.4223 264.789 87.4223C260.213 87.4223 256.503 83.7127 256.503 79.1367C256.503 74.5611 260.213 70.8511 264.789 70.8511C269.365 70.8511 273.074 74.5611 273.074 79.1367Z" fill="#28D677"/>
<path d="M263.812 83.3411C263.558 83.3411 263.303 83.2535 263.096 83.0771L260.819 81.1359C260.354 80.7411 260.299 80.0443 260.695 79.5815C261.09 79.1163 261.786 79.0619 262.25 79.4567L263.743 80.7287L267.202 77.1847C267.627 76.7483 268.326 76.7407 268.762 77.1651C269.198 77.5903 269.206 78.2899 268.781 78.7255L264.602 83.0075C264.387 83.2291 264.099 83.3411 263.812 83.3411Z" fill="#EDF6FF"/>
</svg>
