<svg width="328" height="164" viewBox="0 0 328 164" fill="none" xmlns="http://www.w3.org/2000/svg">
<path fill-rule="evenodd" clip-rule="evenodd" d="M23.2189 161.504C33.6809 163.667 265.053 165.826 301.876 161.504C312.777 160.224 321.503 148.276 322.776 146.203C330.736 133.238 327.751 53.2794 325.761 26.266C324.69 11.7278 309.838 5.19571 302.871 3.03482C289.548 -1.09779 53.2799 -1.26366 22.2229 4.11573C8.32787 6.52168 3.29087 17.8712 2.29087 24.1796C-0.0421274 38.8847 -1.42113 129.331 2.31887 141.514C5.30487 151.239 12.7689 159.343 23.2189 161.504Z" fill="#EAFFF2"/>
<mask id="mask0_5567_161520" style="mask-type:alpha" maskUnits="userSpaceOnUse" x="0" y="0" width="328" height="164">
<path fill-rule="evenodd" clip-rule="evenodd" d="M23.2189 161.504C33.6809 163.667 265.053 165.826 301.876 161.504C312.777 160.224 321.503 148.276 322.776 146.203C330.736 133.238 327.751 53.2794 325.761 26.266C324.69 11.7278 309.838 5.19571 302.871 3.03482C289.548 -1.09779 53.2799 -1.26366 22.2229 4.11573C8.32787 6.52168 3.29087 17.8712 2.29087 24.1796C-0.0421274 38.8847 -1.42113 129.331 2.31887 141.514C5.30487 151.239 12.7689 159.343 23.2189 161.504Z" fill="white"/>
</mask>
<g mask="url(#mask0_5567_161520)">
<mask id="mask1_5567_161520" style="mask-type:alpha" maskUnits="userSpaceOnUse" x="-27" y="-13" width="381" height="190">
<path fill-rule="evenodd" clip-rule="evenodd" d="M-26.27 -13H353.35V176.81H-26.27V-13Z" fill="white"/>
</mask>
<g mask="url(#mask1_5567_161520)">
<path fill-rule="evenodd" clip-rule="evenodd" d="M0.602995 173.921C12.7116 176.425 280.497 178.924 323.115 173.921C335.731 172.44 345.831 158.612 347.304 156.212C356.517 141.207 353.062 48.6643 350.759 17.3997C349.519 0.573298 332.33 -6.9867 324.266 -9.48762C308.846 -14.2706 35.3952 -14.4625 -0.549726 -8.23662C-16.6316 -5.45202 -22.4611 7.68366 -23.6185 14.9848C-26.3189 32.0045 -27.9148 136.685 -23.5861 150.785C-20.1301 162.04 -11.4916 171.42 0.602995 173.921Z" fill="#EDFFF5"/>
</g>
<path fill-rule="evenodd" clip-rule="evenodd" d="M452.08 356.9C452.08 516.256 322.896 645.44 163.54 645.44C4.18385 645.44 -125 516.256 -125 356.9C-125 197.544 4.18385 68.3601 163.54 68.3601C322.896 68.3601 452.08 197.544 452.08 356.9Z" fill="#BBF0D3"/>
<path fill-rule="evenodd" clip-rule="evenodd" d="M235.9 138.74C235.9 148.184 228.244 155.84 218.8 155.84C209.356 155.84 201.7 148.184 201.7 138.74C201.7 129.296 209.356 121.64 218.8 121.64C228.244 121.64 235.9 129.296 235.9 138.74Z" fill="white"/>
<path fill-rule="evenodd" clip-rule="evenodd" d="M210.488 133.917V132.898C210.488 132.149 211.144 131.54 211.954 131.54H218.549V130.861C218.549 130.111 219.205 129.503 220.014 129.503H228.075C228.884 129.503 229.54 130.111 229.54 130.861V145.801C229.54 146.927 228.556 147.838 227.342 147.838H210.488C209.274 147.838 208.29 146.927 208.29 145.801V135.954C208.291 134.83 209.275 133.919 210.488 133.917Z" fill="#CFE163"/>
<path fill-rule="evenodd" clip-rule="evenodd" d="M211.954 131.54H218.549V130.861C218.549 130.111 219.205 129.503 220.015 129.503H228.075C228.884 129.503 229.541 130.111 229.541 130.861V133.917H210.488V132.899C210.488 132.148 211.145 131.54 211.954 131.54Z" fill="#BFD730"/>
<path fill-rule="evenodd" clip-rule="evenodd" d="M222.579 133.578C222.579 133.39 222.743 133.238 222.946 133.238H224.411C224.613 133.238 224.777 133.39 224.777 133.578C224.777 133.765 224.613 133.917 224.411 133.917H222.946C222.743 133.917 222.579 133.765 222.579 133.578Z" fill="#98AC26"/>
<path fill-rule="evenodd" clip-rule="evenodd" d="M221.114 133.238C221.316 133.238 221.48 133.39 221.48 133.578C221.48 133.765 221.316 133.917 221.114 133.917H210.488V133.238H221.114Z" fill="#98AC26"/>
<path fill-rule="evenodd" clip-rule="evenodd" d="M189.82 26.7571C189.82 29.6655 190.777 32.3561 192.392 34.5273C192.51 34.6925 192.635 34.8477 192.769 35.0068C195.161 37.9153 198.791 39.7815 202.853 39.7815C206.916 39.7815 210.539 37.9153 212.93 35.0068C213.063 34.8477 213.182 34.6925 213.306 34.5273C214.921 32.3561 215.88 29.6655 215.88 26.7571C215.88 19.5657 210.044 13.7305 202.853 13.7305C195.654 13.7305 189.82 19.5657 189.82 26.7571Z" fill="white"/>
<path fill-rule="evenodd" clip-rule="evenodd" d="M197.717 25.3166C197.717 28.152 200.015 30.4506 202.851 30.4506C205.686 30.4506 207.984 28.152 207.984 25.3166C207.984 22.4831 205.686 20.1848 202.851 20.1848C200.015 20.1848 197.717 22.4831 197.717 25.3166Z" fill="#99DDB8"/>
<path fill-rule="evenodd" clip-rule="evenodd" d="M193.177 35.4687C195.554 38.1111 199.01 39.7815 202.853 39.7815C206.696 39.7815 210.147 38.1111 212.523 35.4687C210.39 32.4332 206.854 30.4507 202.853 30.4507C198.854 30.4507 195.31 32.4332 193.177 35.4687Z" fill="#99DDB8"/>
<path fill-rule="evenodd" clip-rule="evenodd" d="M70.2124 117.172C70.2124 126.996 62.2481 134.96 52.4241 134.96C42.6 134.96 34.6357 126.996 34.6357 117.172C34.6357 107.347 42.6 99.3835 52.4241 99.3835C62.2481 99.3835 70.2124 107.347 70.2124 117.172Z" fill="white"/>
<path fill-rule="evenodd" clip-rule="evenodd" d="M57.635 127.666L43.9669 127.772C43.234 127.778 42.6353 127.188 42.6295 126.455L42.479 106.938C42.4733 106.205 43.063 105.607 43.7959 105.601L57.4637 105.495C58.197 105.49 58.7957 106.079 58.8014 106.812L58.9519 126.329C58.9577 127.062 58.368 127.661 57.635 127.666Z" fill="#84D7CC"/>
<path fill-rule="evenodd" clip-rule="evenodd" d="M62.8156 108.442L49.1478 108.548C48.4149 108.553 47.8248 109.152 47.8306 109.885L47.9814 129.402C47.9872 130.135 48.5859 130.724 49.3188 130.719L55.5407 130.671C57.7832 130.381 64.248 122.061 64.2329 120.075L64.153 109.759C64.1472 109.026 63.5486 108.436 62.8156 108.442Z" fill="#EDFFF5"/>
<path fill-rule="evenodd" clip-rule="evenodd" d="M50.103 113.505L57.9244 113.445L50.103 113.505Z" fill="#387942"/>
<path d="M50.103 113.505L57.9244 113.445" stroke="#3392E2" stroke-width="0.5" stroke-linecap="round" stroke-linejoin="round"/>
<path fill-rule="evenodd" clip-rule="evenodd" d="M50.1528 119.966L53.7572 119.938L50.1528 119.966Z" fill="#3392E2"/>
<path d="M50.1528 119.966L53.7572 119.938" stroke="#387942" stroke-width="0.5" stroke-linecap="round" stroke-linejoin="round"/>
<path fill-rule="evenodd" clip-rule="evenodd" d="M50.2041 126.631L52.6525 126.612L50.2041 126.631Z" fill="#387942"/>
<path d="M50.2041 126.631L52.6525 126.612" stroke="#3392E2" stroke-width="0.5" stroke-linecap="round" stroke-linejoin="round"/>
<path fill-rule="evenodd" clip-rule="evenodd" d="M50.127 116.634L55.7037 116.591L50.127 116.634Z" fill="#387942"/>
<path d="M50.127 116.634L55.7037 116.591" stroke="#3392E2" stroke-width="0.5" stroke-linecap="round" stroke-linejoin="round"/>
<path fill-rule="evenodd" clip-rule="evenodd" d="M56.9287 116.649L61.2134 116.616L56.9287 116.649Z" fill="#3392E2"/>
<path d="M56.9287 116.649L61.2134 116.616" stroke="#387942" stroke-width="0.5" stroke-linecap="round" stroke-linejoin="round"/>
<path fill-rule="evenodd" clip-rule="evenodd" d="M50.1787 123.299L55.7555 123.256L50.1787 123.299Z" fill="#3392E2"/>
<path d="M50.1787 123.299L55.7555 123.256" stroke="#387942" stroke-width="0.5" stroke-linecap="round" stroke-linejoin="round"/>
<path d="M56.98 123.314H60.0061" stroke="#3392E2" stroke-width="0.5" stroke-linecap="round" stroke-linejoin="round"/>
<path fill-rule="evenodd" clip-rule="evenodd" d="M54.7773 119.931L61.2383 119.881L54.7773 119.931Z" fill="#3392E2"/>
<path d="M54.7773 119.931L61.2383 119.881" stroke="#387942" stroke-width="0.5" stroke-linecap="round" stroke-linejoin="round"/>
<path fill-rule="evenodd" clip-rule="evenodd" d="M61.0943 123.645C58.2683 126.031 56.5842 126.365 56.5842 126.365C56.5842 126.365 57.5713 127.17 57.4968 128.2C57.4223 129.23 56.6533 130.307 55.9189 130.668C55.9189 130.668 60.9442 129.106 64.2324 120.097C64.2324 120.097 62.6045 122.37 61.0943 123.645Z" fill="#47A99C"/>
<path fill-rule="evenodd" clip-rule="evenodd" d="M202.248 51.4217L164.932 37.6103C164.255 37.3565 163.507 37.3565 162.826 37.6103L125.515 51.4217C124.326 51.8616 123.544 52.9906 123.544 54.2592V86.5339C123.544 123.249 162.716 134.033 163.109 134.139C163.363 134.206 163.625 134.24 163.883 134.24C164.141 134.24 164.403 134.206 164.657 134.139C165.055 134.033 204.222 123.249 204.222 86.5339V54.2592C204.222 52.9906 203.436 51.8616 202.248 51.4217Z" fill="#28D677"/>
<path fill-rule="evenodd" clip-rule="evenodd" d="M198.66 54.6391L164.834 42.1191C164.221 41.889 163.542 41.889 162.925 42.1191L129.103 54.6391C128.026 55.0377 127.316 56.0611 127.316 57.2113V86.4682C127.316 119.75 162.825 129.526 163.182 129.621C163.412 129.683 163.65 129.713 163.883 129.713C164.117 129.713 164.355 129.683 164.585 129.621C164.945 129.526 200.451 119.75 200.451 86.4682V57.2113C200.451 56.0611 199.738 55.0377 198.66 54.6391Z" fill="#00AB4E"/>
<path fill-rule="evenodd" clip-rule="evenodd" d="M159.731 105C158.327 105 156.917 104.513 155.768 103.536L143.153 92.7671C140.578 90.5755 140.269 86.7096 142.462 84.1424C144.651 81.5645 148.507 81.2597 151.075 83.4512L159.35 90.5068L178.514 70.847C180.87 68.4236 184.741 68.3828 187.159 70.7375C189.573 73.0944 189.618 76.9752 187.264 79.3922L164.109 103.148C162.917 104.378 161.324 105 159.731 105Z" fill="#00883E"/>
<path fill-rule="evenodd" clip-rule="evenodd" d="M158.731 101C157.327 101 155.917 100.513 154.768 99.5361L142.153 88.7671C139.578 86.5755 139.269 82.7096 141.462 80.1424C143.651 77.5645 147.507 77.2597 150.075 79.4512L158.35 86.5068L177.514 66.847C179.87 64.4236 183.741 64.3828 186.159 66.7375C188.573 69.0944 188.618 72.9752 186.264 75.3922L163.109 99.1476C161.917 100.378 160.324 101 158.731 101Z" fill="#ECF5FF"/>
<path fill-rule="evenodd" clip-rule="evenodd" d="M304 81.5C304 93.3741 294.374 103 282.5 103C270.626 103 261 93.3741 261 81.5C261 69.6259 270.626 60 282.5 60C294.374 60 304 69.6259 304 81.5Z" fill="white"/>
<path fill-rule="evenodd" clip-rule="evenodd" d="M275.497 69.9623C275.719 68.8218 276.823 68.0769 277.964 68.2986L290.354 70.7072C291.495 70.9289 292.24 72.0332 292.018 73.1737L288.004 93.825C287.782 94.9655 286.678 95.7104 285.537 95.4887L273.147 93.0802C272.006 92.8585 271.261 91.7542 271.483 90.6136L275.497 69.9623Z" fill="#CC9D3F"/>
<mask id="mask2_5567_161520" style="mask-type:alpha" maskUnits="userSpaceOnUse" x="271" y="68" width="22" height="28">
<path fill-rule="evenodd" clip-rule="evenodd" d="M275.497 69.9623C275.719 68.8218 276.823 68.0769 277.964 68.2986L290.354 70.7072C291.495 70.9289 292.24 72.0332 292.018 73.1737L288.004 93.825C287.782 94.9655 286.678 95.7104 285.537 95.4887L273.147 93.0802C272.006 92.8585 271.261 91.7542 271.483 90.6136L275.497 69.9623Z" fill="white"/>
</mask>
<g mask="url(#mask2_5567_161520)">
<rect x="273.833" y="67.4958" width="16.8302" height="25.2454" rx="2.10378" transform="rotate(11 273.833 67.4958)" fill="#FFC54F"/>
<path fill-rule="evenodd" clip-rule="evenodd" d="M281.843 72.8259L278.627 74.3959C278.233 74.5877 277.999 75.0198 278.049 75.4647L278.455 79.0954C278.505 79.5403 278.827 79.8965 279.252 79.9791L282.719 80.6532C283.144 80.7357 283.576 80.5259 283.789 80.1321L285.525 76.9179C285.738 76.5241 285.684 76.0359 285.39 75.7106L282.996 73.0499C282.703 72.7246 282.237 72.6341 281.843 72.8259Z" fill="#CC9D3F"/>
<rect x="276.186" y="82.9553" width="8.41512" height="1.75315" rx="0.876575" transform="rotate(11 276.186 82.9553)" fill="#CC9D3F"/>
<rect x="275.383" y="87.0854" width="8.41512" height="1.75315" rx="0.876575" transform="rotate(11 275.383 87.0854)" fill="#CC9D3F"/>
</g>
<path fill-rule="evenodd" clip-rule="evenodd" d="M295.481 65.5564L294.666 66.5383L293.451 66.9255C293.25 66.9896 293.2 67.25 293.362 67.3846L294.343 68.1988L294.731 69.4144C294.795 69.6151 295.056 69.6658 295.19 69.5036L296.004 68.5217L297.22 68.1346C297.421 68.0704 297.471 67.8101 297.309 67.6754L296.327 66.8612L295.94 65.6455C295.876 65.4448 295.615 65.3941 295.481 65.5564Z" fill="#E8AC00"/>
<path fill-rule="evenodd" clip-rule="evenodd" d="M297.585 69.7639L296.77 70.7458L295.555 71.133C295.354 71.1971 295.304 71.4575 295.466 71.5922L296.447 72.4063L296.835 73.6219C296.899 73.8226 297.16 73.8733 297.294 73.7111L298.108 72.7292L299.324 72.3421C299.525 72.278 299.575 72.0176 299.413 71.8829L298.431 71.0687L298.044 69.853C297.98 69.6524 297.719 69.6016 297.585 69.7639Z" fill="#E8AC00"/>
<path fill-rule="evenodd" clip-rule="evenodd" d="M100.633 55.5055C100.633 65.9848 92.1372 74.48 81.6576 74.48C71.1787 74.48 62.6831 65.9848 62.6831 55.5055C62.6831 45.0263 71.1787 36.531 81.6576 36.531C92.1372 36.531 100.633 45.0263 100.633 55.5055Z" fill="white"/>
<path fill-rule="evenodd" clip-rule="evenodd" d="M91.0577 63.7968L72.4097 63.9656C70.9809 63.9782 69.8123 62.8309 69.7997 61.4024L69.7047 50.912C69.6917 49.4835 70.8394 48.315 72.2679 48.302L90.9159 48.1332C92.3447 48.1206 93.5133 49.2679 93.5259 50.6964L93.6209 61.1868C93.6339 62.6152 92.4862 63.7838 91.0577 63.7968Z" fill="#252528"/>
<path fill-rule="evenodd" clip-rule="evenodd" d="M91.048 62.7089L72.4 62.8777C70.9711 62.8903 69.8026 61.743 69.79 60.3145L69.6949 49.8241C69.682 48.3956 70.8297 47.2271 72.2581 47.2141L90.9061 47.0453C92.335 47.0327 93.5035 48.18 93.5161 49.6085L93.6112 60.0989C93.6241 61.5273 92.4765 62.6959 91.048 62.7089Z" fill="#58585B"/>
<mask id="mask3_5567_161520" style="mask-type:alpha" maskUnits="userSpaceOnUse" x="84" y="59" width="8" height="3">
<path fill-rule="evenodd" clip-rule="evenodd" d="M89.1458 59.3525C88.6119 59.3561 88.2588 59.6337 88.2627 60.0369C88.2732 60.3339 88.5457 60.4916 88.752 60.5963C88.969 60.6903 89.036 60.7645 89.0385 60.8494C89.0436 60.9873 88.8747 61.0517 88.7257 61.0528C88.4586 61.0543 88.2958 60.9808 88.1659 60.9286L88.0863 61.3855C88.2159 61.4377 88.442 61.4891 88.6879 61.4877C89.2642 61.4848 89.6174 61.2069 89.6026 60.7717C89.5832 60.2302 88.824 60.2036 88.8254 59.9599C88.8229 59.8853 88.8952 59.8105 89.0439 59.7881C89.1181 59.7773 89.3312 59.7655 89.5706 59.8807L89.6512 59.4451C89.5227 59.4033 89.3521 59.3525 89.1512 59.3525C89.1494 59.3525 89.1476 59.3525 89.1458 59.3525ZM90.5577 59.386C90.4508 59.3871 90.3676 59.4512 90.3385 59.5361L89.6052 61.451L90.1714 61.4477L90.2672 61.1396L90.9516 61.1353L91.0268 61.4431L91.5193 61.4402L91.0171 59.3831L90.5577 59.386ZM90.6517 59.9375L90.8403 60.7112L90.4022 60.7137L90.6517 59.9375ZM87.5683 59.4058L87.2032 61.4643L87.7368 61.4614L88.1018 59.4019L87.5683 59.4058ZM86.7687 59.4101L86.2636 60.8127L85.9987 59.6272C85.9724 59.4901 85.8637 59.4163 85.7463 59.4166L84.8413 59.4231L84.833 59.4865C85.0152 59.5171 85.2297 59.5793 85.36 59.6528C85.436 59.6949 85.4688 59.7262 85.4947 59.8321L85.9774 61.4719L86.5419 61.4683L87.3336 59.4069L86.7687 59.4101Z" fill="white"/>
</mask>
<g mask="url(#mask3_5567_161520)">
<path fill-rule="evenodd" clip-rule="evenodd" d="M83.5839 57.197L93.3075 58.1341L92.7812 63.5967L83.0576 62.66L83.5839 57.197Z" fill="white"/>
</g>
<path fill-rule="evenodd" clip-rule="evenodd" d="M89.9914 57.1382C89.1814 57.1444 88.7767 57.1472 87.9671 57.1534C87.7648 57.1548 87.5974 56.9917 87.5941 56.789C87.5743 55.492 87.5905 54.8432 87.5704 53.5465C87.5671 53.3442 87.7273 53.1786 87.9289 53.1768C88.7378 53.1685 89.1421 53.1642 89.9503 53.1563C90.1526 53.1541 90.3211 53.3168 90.3244 53.5195C90.3456 54.8188 90.3298 55.4686 90.3514 56.7674C90.3546 56.9708 90.194 57.1368 89.9914 57.1382Z" fill="#D4B16D"/>
<path fill-rule="evenodd" clip-rule="evenodd" d="M90.7776 57.6805C89.3524 57.6906 88.6396 57.6956 87.214 57.7057C86.9181 57.7078 86.6704 57.4688 86.6639 57.1722C86.6297 55.5756 86.6621 54.7771 86.6276 53.1805C86.6214 52.8849 86.8526 52.6426 87.1474 52.6394C88.5705 52.6246 89.2818 52.6171 90.7046 52.6023C91.0016 52.5991 91.2503 52.837 91.2575 53.134C91.295 54.7353 91.2633 55.5363 91.3007 57.1376C91.3076 57.4353 91.075 57.6783 90.7776 57.6805Z" stroke="#D8B56D" stroke-width="0.5"/>
<path fill-rule="evenodd" clip-rule="evenodd" d="M73.7793 54.9375L72.3516 54.9505L72.358 55.6643L73.7858 55.6514L73.7793 54.9375Z" fill="white"/>
<path fill-rule="evenodd" clip-rule="evenodd" d="M75.4176 55.6366L75.4111 54.9227L75.4064 54.4129L75.9162 54.4082L77.242 54.3964L77.2381 53.9615C77.2356 53.6958 77.0163 53.4805 76.7506 53.4827L74.2764 53.5054L74.3077 56.9722L75.4294 56.9621L75.4222 56.1463L75.4176 55.6366Z" fill="white"/>
<path fill-rule="evenodd" clip-rule="evenodd" d="M72.3628 56.1741L72.3657 56.5067C72.3682 56.7724 72.5878 56.9881 72.8535 56.9855L73.7978 56.9769L73.7906 56.1611L72.3628 56.1741Z" fill="white"/>
<path fill-rule="evenodd" clip-rule="evenodd" d="M73.7664 53.5098L72.8217 53.5184C72.5564 53.5206 72.3408 53.7402 72.3433 54.0058L72.3472 54.4404L73.7746 54.4274L73.7664 53.5098Z" fill="white"/>
<path fill-rule="evenodd" clip-rule="evenodd" d="M75.9392 56.9575L76.7816 56.95C77.0473 56.9474 77.2629 56.7282 77.2604 56.4625L77.2575 56.1299L75.9316 56.1418L75.9392 56.9575Z" fill="white"/>
<path fill-rule="evenodd" clip-rule="evenodd" d="M75.9209 54.9182L75.9274 55.6318L77.2529 55.6199L77.2464 54.906L75.9209 54.9182Z" fill="white"/>
<path fill-rule="evenodd" clip-rule="evenodd" d="M108.28 87.7999C108.064 87.7999 107.873 87.6872 107.769 87.4979L107.134 86.3369C107.113 86.298 107.082 86.2663 107.043 86.2454L105.882 85.61C105.692 85.5067 105.58 85.3159 105.58 85.1003C105.58 84.8843 105.692 84.6935 105.882 84.5898L107.043 83.9547C107.082 83.9335 107.113 83.9018 107.134 83.8637L107.769 82.7027C107.873 82.5129 108.064 82.3999 108.28 82.3999C108.496 82.3999 108.686 82.5129 108.79 82.7027L109.425 83.8637C109.446 83.9018 109.478 83.9335 109.516 83.9547L110.677 84.5898C110.867 84.6935 110.98 84.8843 110.98 85.1003C110.98 85.3159 110.867 85.5067 110.677 85.61L109.516 86.2454C109.478 86.2663 109.446 86.298 109.425 86.3365L108.79 87.4979C108.686 87.6872 108.496 87.7999 108.28 87.7999Z" fill="#FFF9ED"/>
<path fill-rule="evenodd" clip-rule="evenodd" d="M216.28 105.44C216.064 105.44 215.873 105.327 215.769 105.138L215.134 103.977C215.113 103.938 215.082 103.906 215.043 103.885L213.882 103.25C213.692 103.147 213.58 102.956 213.58 102.74C213.58 102.524 213.692 102.333 213.882 102.23L215.043 101.595C215.082 101.573 215.113 101.542 215.134 101.504L215.769 100.343C215.873 100.153 216.064 100.04 216.28 100.04C216.496 100.04 216.686 100.153 216.79 100.343L217.425 101.504C217.446 101.542 217.478 101.573 217.516 101.595L218.677 102.23C218.867 102.333 218.98 102.524 218.98 102.74C218.98 102.956 218.867 103.147 218.677 103.25L217.516 103.885C217.478 103.906 217.446 103.938 217.425 103.976L216.79 105.138C216.686 105.327 216.496 105.44 216.28 105.44Z" fill="#FFF9ED"/>
<path fill-rule="evenodd" clip-rule="evenodd" d="M123.4 138.56C123.04 138.56 122.722 138.372 122.55 138.057L121.491 136.121C121.456 136.056 121.403 136.003 121.339 135.969L119.404 134.91C119.088 134.738 118.9 134.42 118.9 134.061C118.9 133.7 119.088 133.382 119.404 133.21L121.339 132.151C121.403 132.116 121.456 132.063 121.491 132L122.55 130.064C122.722 129.748 123.04 129.56 123.4 129.56C123.76 129.56 124.077 129.748 124.25 130.064L125.309 132C125.344 132.063 125.396 132.116 125.461 132.151L127.396 133.21C127.712 133.382 127.9 133.7 127.9 134.061C127.9 134.42 127.712 134.738 127.396 134.91L125.461 135.969C125.396 136.003 125.344 136.056 125.309 136.121L124.25 138.057C124.077 138.372 123.76 138.56 123.4 138.56Z" fill="#FFF9ED"/>
</g>
</svg>
