<svg width="100" height="100" viewBox="0 0 100 100" fill="none" xmlns="http://www.w3.org/2000/svg">
<circle cx="50" cy="50" r="50" fill="#E6F6EA"/>
<mask id="mask0_5567_148449" style="mask-type:alpha" maskUnits="userSpaceOnUse" x="0" y="0" width="100" height="100">
<circle cx="50" cy="50" r="50" fill="#E6F6EA"/>
</mask>
<g mask="url(#mask0_5567_148449)">
<rect width="8.63161" height="48.1583" rx="2.89836" transform="matrix(0.919463 -0.393177 0.386764 0.922179 50.7957 60.5894)" fill="#99B7B3"/>
<path d="M57.2503 60.5741V47.4054L55.1349 46.4048L54.5607 43.3257H47.0789L46.5047 46.4048L44.4575 47.3732V60.5741H57.2503Z" fill="#ECB17D"/>
<path d="M66.0539 62.0134L65.5073 54.9594C65.4184 53.8097 65.0291 52.7044 64.3793 51.7561C63.7295 50.8078 62.8423 50.0503 61.8081 49.561L55.9371 46.7837V48.4991H55.268V49.3995H45.4191V46.9182L39.8314 49.561C38.7971 50.0502 37.9097 50.8076 37.2598 51.7559C36.6098 52.7042 36.2204 53.8096 36.1314 54.9594L35.5857 62.0134H66.0539Z" fill="#99B7B3"/>
<path d="M65.5076 54.9593C65.4186 53.8096 65.0294 52.7042 64.3795 51.7559C63.7296 50.8076 62.8423 50.0502 61.8081 49.5609L56.4578 47.0293C56.0214 49.5383 54.9853 51.8375 53.8594 54.1019C53.3373 55.1522 52.848 56.1987 52.3875 57.2757C52.1306 57.8726 50.8198 61.3601 50.8198 61.3601C50.8198 61.3601 48.6946 56.0186 48.3077 55.0061C47.7833 53.6328 47.3797 52.2038 46.6848 50.9046C46.5657 50.6818 46.44 50.4628 46.3108 50.2452C45.1286 49.7764 44.5208 48.7639 44.5432 47.3317L39.8314 49.5609C38.7971 50.0501 37.9097 50.8075 37.2598 51.7558C36.6098 52.7041 36.2204 53.8095 36.1314 54.9593L35.5857 62.0133H66.0539L65.5076 54.9593Z" fill="#707583"/>
<path d="M65.5076 54.9593C65.4186 53.8096 65.0294 52.7042 64.3795 51.7559C63.7296 50.8076 62.8423 50.0502 61.8081 49.5609L56.4578 47.0293C56.0214 49.5383 54.9853 51.8375 53.8594 54.1019C53.3373 55.1522 52.848 56.1987 52.3875 57.2757C52.1306 57.8726 50.8198 61.3601 50.8198 61.3601C50.8198 61.3601 48.6946 56.0186 48.3077 55.0061C47.7833 53.6328 47.3797 52.2038 46.6848 50.9046C46.5657 50.6818 46.44 50.4628 46.3108 50.2452C45.1286 49.7764 44.5208 48.7639 44.5432 47.3317L39.8314 49.5609C38.7971 50.0501 37.9097 50.8075 37.2598 51.7558C36.6098 52.7041 36.2204 53.8095 36.1314 54.9593L35.5857 62.0133H66.0539L65.5076 54.9593Z" fill="#004D43"/>
<path d="M57.8918 40.2244C58.1567 39.0816 57.8581 38.0339 57.2249 37.8842C56.5916 37.7345 55.8635 38.5396 55.5986 39.6823C55.3337 40.8251 55.6322 41.8728 56.2655 42.0225C56.8988 42.1722 57.6269 41.3671 57.8918 40.2244Z" fill="#ECB17D"/>
<path d="M45.3296 42.0318C45.9629 41.8821 46.2614 40.8344 45.9965 39.6916C45.7316 38.5489 45.0035 37.7439 44.3702 37.8935C43.737 38.0432 43.4384 39.0909 43.7033 40.2337C43.9682 41.3764 44.6963 42.1815 45.3296 42.0318Z" fill="#ECB17D"/>
<path d="M50.7927 45.963C54.0771 45.963 56.7396 42.2576 56.7396 37.6866C56.7396 33.1156 54.0771 29.4102 50.7927 29.4102C47.5082 29.4102 44.8457 33.1156 44.8457 37.6866C44.8457 42.2576 47.5082 45.963 50.7927 45.963Z" fill="#F5D5B9"/>
<path fill-rule="evenodd" clip-rule="evenodd" d="M50.3988 41.1137C50.43 41.13 50.4664 41.1364 50.5035 41.1299C50.8665 41.0675 51.1289 40.8829 51.2827 40.5821C51.7914 39.5876 50.8678 37.6234 50.828 37.5403C50.7876 37.456 50.6871 37.4205 50.6039 37.4616C50.5203 37.5028 50.4849 37.6046 50.5251 37.6891C50.7744 38.2131 51.3425 39.7266 50.9843 40.4266C50.8802 40.6298 50.705 40.7502 50.4485 40.7944C50.3569 40.8102 50.2949 40.8981 50.3103 40.9907C50.3192 41.0458 50.3534 41.09 50.3988 41.1137Z" fill="#ECB17D"/>
<path d="M56.3666 40.5417C56.3666 40.5417 58.4667 36.7528 58.0117 33.748C57.5568 30.7431 55.552 29.7946 54.3608 29.7946C54.3608 29.7946 52.7531 27.3908 48.7802 28.3713C44.8073 29.3519 43.2098 33.7571 43.9615 36.5361C44.7132 39.3152 45.2585 40.438 45.2585 40.438C45.2585 40.438 45.0344 38.1054 45.5982 36.1435C46.1619 34.1817 46.782 31.9515 47.4399 32.4888C48.0977 33.0261 53.0453 32.4623 53.7344 31.2716C54.6396 31.9414 55.2456 32.9458 55.4197 34.0653C55.6443 35.8681 56.6474 36.9751 56.5535 38.2716C56.4597 39.5682 56.3666 40.5417 56.3666 40.5417Z" fill="#864B16"/>
<path fill-rule="evenodd" clip-rule="evenodd" d="M55.8458 32.0834C55.8458 32.0834 53.4535 25.0222 45.8878 29.6271C45.8878 29.6271 44.8911 30.288 44.1258 30.4777C43.8852 30.5373 43.8107 30.8893 43.9957 31.1024C44.9928 32.2521 47.7463 34.5316 53.2744 33.3767C53.2744 33.3767 55.6922 32.8716 55.8458 32.0834Z" fill="#864B16"/>
<path d="M54.9376 45.3364L50.8198 49.3993L54.4954 51.9498L56.2156 46.9101L54.9376 45.3364Z" fill="#E6EDEC"/>
<path d="M45.4241 46.9101L47.2875 51.8322L50.8199 49.3993L46.7021 45.3364L45.4241 46.9101Z" fill="#E6EDEC"/>
<path d="M57.2875 47.4228L54.9376 45.3365L54.9327 45.3315C54.9327 45.3315 54.8899 51.5647 50.8193 61.2337C46.7479 51.5647 46.7059 45.3315 46.7059 45.3315L46.701 45.3365L44.3514 47.4228L43.9375 50.9498L45.8858 50.6353L44.4248 52.8718C45.2719 54.9555 50.8199 61.4617 50.8199 61.4617C51.6929 60.4884 56.4987 54.8704 57.2469 53.0289L55.7525 50.6353L57.9332 50.698L57.2875 47.4228Z" fill="#407972"/>
<path fill-rule="evenodd" clip-rule="evenodd" d="M48.9057 42.712C48.9685 42.628 49.0867 42.6113 49.1699 42.6747C49.6746 43.0593 50.9778 43.5873 52.1756 42.6747C52.2587 42.6113 52.377 42.628 52.4397 42.712C52.5025 42.7959 52.4859 42.9153 52.4028 42.9787C51.0142 44.0367 49.5156 43.4152 48.9427 42.9787C48.8595 42.9153 48.843 42.7959 48.9057 42.712Z" fill="#ECB17D"/>
<rect x="18.9541" y="57" width="19.6204" height="24.348" rx="2.31111" fill="#95CF72"/>
<path d="M16.0001 64.5402L17.852 63.3726V82.8689C17.852 83.5557 18.4034 84.1124 19.0835 84.1124H17.2315C16.5514 84.1124 16 83.5557 16 82.8689V64.5402H16.0001Z" fill="#C6E5B4"/>
<path d="M17.5794 63.7787L19.7453 62.4623L21.1332 59.3921H34.4658C35.1712 59.3921 35.7432 59.9488 35.7432 60.6356V82.8688C35.7432 83.5555 35.1712 84.1123 34.4658 84.1123H17.6042C17.5958 84.1123 17.5877 84.1112 17.5794 84.111V63.7787Z" fill="#C6E5B4"/>
<path d="M19.8669 64.5401H16.0001L21.0984 59.3921V63.2966C21.0984 63.9833 20.547 64.5401 19.8669 64.5401Z" fill="#72BF44"/>
<rect x="19.1589" y="66.5688" width="13.2324" height="1.73914" rx="0.869572" fill="#95CF72"/>
<rect x="19.1589" y="72.2954" width="13.2324" height="1.73914" rx="0.869572" fill="#95CF72"/>
<rect x="19.1589" y="78.0215" width="13.2324" height="1.73914" rx="0.869572" fill="#95CF72"/>
<path fill-rule="evenodd" clip-rule="evenodd" d="M58.1412 66.4287C71.3233 61.8851 78.3616 47.4114 73.8618 34.1009C69.362 20.7904 55.0281 13.6835 41.846 18.2271C28.664 22.7708 21.6256 37.2444 26.1254 50.5549C30.6252 63.8654 44.9592 70.9723 58.1412 66.4287ZM56.2789 60.9199C66.4479 57.4148 71.8775 46.2494 68.4062 35.9813C64.935 25.7132 53.8773 20.2307 43.7083 23.7358C33.5393 27.2409 28.1097 38.4063 31.581 48.6744C35.0523 58.9425 46.1099 64.425 56.2789 60.9199Z" fill="#407972"/>
<path d="M89.6941 53.7637C89.6941 59.3767 85.189 63.9189 79.6415 63.9189C74.094 63.9189 69.5889 59.3767 69.5889 53.7637C69.5889 48.1507 74.094 43.6084 79.6415 43.6084C85.189 43.6084 89.6941 48.1507 89.6941 53.7637Z" stroke="#CACCCF" stroke-width="0.962963"/>
<mask id="mask1_5567_148449" style="mask-type:alpha" maskUnits="userSpaceOnUse" x="69" y="43" width="22" height="22">
<path d="M89.6941 53.7637C89.6941 59.3767 85.189 63.9189 79.6415 63.9189C74.094 63.9189 69.5889 59.3767 69.5889 53.7637C69.5889 48.1507 74.094 43.6084 79.6415 43.6084C85.189 43.6084 89.6941 48.1507 89.6941 53.7637Z" fill="white" stroke="white" stroke-width="0.962963"/>
</mask>
<g mask="url(#mask1_5567_148449)">
<rect x="67" y="41" width="105.341" height="106.367" fill="#00AB4E"/>
</g>
<path fill-rule="evenodd" clip-rule="evenodd" d="M85.2991 49.3356L85.2035 49.2365C84.6774 48.7411 83.9017 48.7741 83.4089 49.3356L77.8819 55.6322L75.5911 53.0223C75.0674 52.4257 74.2244 52.4257 73.7008 53.0223C73.17 53.627 73.17 54.6128 73.7008 55.2175L76.5773 58.4946C77.2995 59.3173 78.4644 59.3173 79.1866 58.4946L85.2991 51.5308C85.7967 50.9639 85.8278 50.062 85.3924 49.4533L85.2991 49.3356Z" fill="#009E3D"/>
<mask id="mask2_5567_148449" style="mask-type:alpha" maskUnits="userSpaceOnUse" x="73" y="48" width="13" height="12">
<path fill-rule="evenodd" clip-rule="evenodd" d="M85.2991 49.3356L85.2035 49.2365C84.6774 48.7411 83.9017 48.7741 83.4089 49.3356L77.8819 55.6322L75.5911 53.0223C75.0674 52.4257 74.2244 52.4257 73.7008 53.0223C73.17 53.627 73.17 54.6128 73.7008 55.2175L76.5773 58.4946C77.2995 59.3173 78.4644 59.3173 79.1866 58.4946L85.2991 51.5308C85.7967 50.9639 85.8278 50.062 85.3924 49.4533L85.2991 49.3356Z" fill="white"/>
</mask>
<g mask="url(#mask2_5567_148449)">
<rect width="16.5259" height="17.5259" transform="translate(71.2371 45.2368)" fill="white"/>
<rect x="71.2371" y="45.2368" width="16.5259" height="17.5259" fill="white"/>
</g>
</g>
</svg>
