<svg width="328" height="164" viewBox="0 0 328 164" fill="none" xmlns="http://www.w3.org/2000/svg">
<path d="M23.2189 161.504C33.6809 163.667 265.053 165.826 301.876 161.504C312.777 160.224 321.503 148.276 322.776 146.203C330.736 133.238 327.751 53.2794 325.761 26.266C324.69 11.7278 309.838 5.19571 302.871 3.03482C289.548 -1.09779 53.2799 -1.26366 22.2229 4.11573C8.32787 6.52168 3.29087 17.8712 2.29087 24.1796C-0.0421274 38.8847 -1.42113 129.331 2.31887 141.514C5.30487 151.239 12.7689 159.343 23.2189 161.504Z" fill="#EDFFF5"/>
<mask id="mask0_5567_163579" style="mask-type:alpha" maskUnits="userSpaceOnUse" x="0" y="0" width="328" height="164">
<path fill-rule="evenodd" clip-rule="evenodd" d="M23.2189 161.504C33.6809 163.667 265.053 165.826 301.876 161.504C312.777 160.224 321.503 148.276 322.776 146.203C330.736 133.238 327.751 53.2794 325.761 26.266C324.69 11.7278 309.838 5.19571 302.871 3.03482C289.548 -1.09779 53.2799 -1.26366 22.2229 4.11573C8.32787 6.52168 3.29087 17.8712 2.29087 24.1796C-0.0421274 38.8847 -1.42113 129.331 2.31887 141.514C5.30487 151.239 12.7689 159.343 23.2189 161.504Z" fill="white"/>
</mask>
<g mask="url(#mask0_5567_163579)">
<path d="M332.487 45.2799C332.128 39.1259 331.945 32.9618 331.621 26.8056C331.537 25.2104 331.318 23.6073 330.993 22.0424C329.777 16.1932 326.544 11.6334 321.83 8.06307C316.621 4.11851 310.919 1.10869 304.374 0.391445C297.99 -0.308392 291.552 -0.597674 285.129 -0.843273C277.881 -1.12034 270.622 -1.14783 263.368 -1.28407C260.284 -1.37327 257.198 -1.51134 254.118 -1.62192C243.567 -2.00101 232.997 -1.94022 222.444 -1.98055C192.826 -2.09265 163.202 -2.58691 133.584 -1.72487C122.827 -1.41176 112.066 -1.72578 101.299 -1.43619C90.4806 -1.14569 79.6495 -0.7666 68.8177 -0.893676C68.0769 -0.902229 67.3363 -0.89276 66.5951 -0.890621C66.1238 -0.889094 65.6433 -0.917503 65.2894 -0.511225C58.3705 -0.514891 51.4705 -0.0658474 44.5623 0.244207C37.1263 0.577783 29.704 0.960539 22.3245 1.94141C14.857 2.9345 8.98311 6.55159 4.70989 12.7756C1.71884 17.1319 0.640832 22.0946 0.288423 27.2119C-0.245539 34.9675 -0.582666 42.7375 -0.945467 50.5038C-1.17409 55.3999 -1.20649 60.3128 -1.25509 65.2031C-1.45528 85.379 -1.6674 105.562 -0.938131 125.734C-0.805175 129.411 -0.547822 133.096 -0.0997463 136.747C0.189394 139.101 0.309207 141.542 1.43673 143.732C3.38522 149.813 7.07222 154.614 12.1838 158.382C15.7241 160.992 19.6975 162.565 24.0309 163.07C27.4514 163.467 30.8942 163.51 34.337 163.602V163.88H40.3013C45.3876 164.204 50.501 163.886 55.6123 164.232C60.8422 164.587 66.1146 164.31 71.368 164.31C71.4817 164.168 71.5523 164.024 71.5945 163.88H127.186C127.167 163.889 127.148 163.894 127.13 163.903C126.275 164.002 125.715 164.593 125.112 165.112C136.071 165.356 147.034 165.245 157.994 165.39C176.422 165.634 194.861 165.743 213.301 165.213C229.031 164.76 244.786 165.282 260.524 164.719C260.659 164.718 260.794 164.717 260.929 164.716C265.358 164.551 269.784 164.674 274.224 164.432C279.847 164.124 285.501 164.055 291.143 163.946C294.367 163.884 297.574 163.558 300.787 163.395C303.424 163.26 306.17 163.303 308.732 162.44C320.006 158.643 328.005 151.644 330.827 139.648C331.368 135.818 332.118 132.003 332.406 128.154C332.961 120.743 333.542 113.314 333.591 105.889C333.665 94.5385 333.862 83.1872 333.382 71.8273C333.009 62.9851 333.003 54.1243 332.487 45.2799Z" fill="#BBF0D3"/>
<path d="M353 211.607C353 316.206 268.158 401 163.5 401C58.8419 401 -26 316.206 -26 211.607C-26 107.008 58.8419 22.2146 163.5 22.2146C268.158 22.2146 353 107.008 353 211.607Z" fill="#EBFFE0"/>
<path d="M181.304 77.0563C175.464 79.9247 168.403 77.5182 165.533 71.6812C162.663 65.8443 165.071 58.7869 170.911 55.9186C176.751 53.0502 183.812 55.4567 186.683 61.2937C189.553 67.1306 187.145 74.1879 181.304 77.0563Z" fill="#E28F4F"/>
<g opacity="0.7">
<path d="M311.503 106.111C302.168 99.633 292.912 93.0305 283.505 86.6568C281.715 85.4438 279.807 83.8385 277.573 83.6247C274.104 83.2927 270.725 85.1429 267.611 86.4262C263.378 88.1698 259.164 89.959 254.971 91.793C246.353 95.5625 237.821 99.5254 229.382 103.678C227.358 104.674 225.007 106.261 222.663 105.598C220.468 104.977 218.612 102.984 216.879 101.606C213.38 98.8244 209.834 96.1014 206.243 93.4398C198.866 87.9716 191.295 82.7636 183.549 77.8308C181.731 76.6731 179.921 75.3754 177.88 74.638C175.813 73.8908 173.693 74.0616 171.631 74.7388C169.22 75.5303 166.918 76.7161 164.602 77.7447C162.093 78.8587 159.584 79.9725 157.076 81.0865L126.97 94.4537C127.34 94.5016 127.711 94.5493 128.081 94.597C112.248 77.7318 95.9621 61.2929 79.2335 45.3142C77.1612 43.3345 75.0819 41.362 72.9959 39.3963C71.4004 37.8931 69.7341 35.9934 67.52 35.4362C65.2316 34.8601 63.0313 36.0639 61.0207 36.9978C58.5016 38.1677 55.9922 39.3591 53.4933 40.5712C43.407 45.463 33.4867 50.6966 23.754 56.2584C12.8147 62.5096 2.11923 69.1805 -8.31764 76.2372C-9.28989 76.8942 -8.37326 78.483 -7.39214 77.8195C10.5239 65.7063 29.2119 54.7435 48.5467 45.05C53.3319 42.6508 58.1434 40.2742 63.0267 38.0797C64.3697 37.4764 65.7787 36.8545 67.2678 37.2757C68.5793 37.6466 69.6139 38.7334 70.581 39.6401C72.5973 41.5303 74.6024 43.4325 76.6034 45.3387C84.6825 53.0332 92.6602 60.8343 100.533 68.7394C109.418 77.6601 118.167 86.7142 126.785 95.8931C127.086 96.2147 127.527 96.2001 127.896 96.0363C136.676 92.1376 145.457 88.2389 154.238 84.3398C158.58 82.412 162.922 80.4838 167.265 78.556C169.365 77.6234 171.533 76.4372 173.824 76.0588C176.4 75.6332 178.491 76.816 180.599 78.1326C188.216 82.8916 195.649 87.9563 202.905 93.2486C206.552 95.908 210.152 98.6307 213.703 101.417C215.382 102.736 217.027 104.1 218.715 105.407C220.088 106.47 221.613 107.458 223.396 107.582C225.278 107.713 227.012 106.881 228.658 106.076C230.769 105.042 232.877 103.999 234.995 102.978C239.14 100.981 243.306 99.03 247.494 97.1247C251.774 95.1773 256.076 93.2776 260.4 91.4268C264.604 89.6266 268.819 87.6954 273.133 86.1696C274.573 85.6604 276.005 85.3305 277.539 85.4542C277.706 85.4679 278.015 85.5302 277.713 85.4688C277.969 85.5211 278.208 85.5831 278.455 85.6723C278.224 85.5889 278.611 85.7428 278.767 85.8256C279.002 85.9503 279.234 86.0798 279.464 86.2148C280.112 86.5954 280.74 87.0106 281.367 87.4254C291.243 93.9658 300.847 100.941 310.577 107.693C311.549 108.368 312.466 106.779 311.503 106.111Z" fill="#28D677"/>
<path d="M312.173 98.5908L312.639 108.355" stroke="#28D677" stroke-width="2" stroke-linecap="round" stroke-linejoin="round"/>
<path d="M302.564 108.835L312.639 108.355" stroke="#28D677" stroke-width="2" stroke-linecap="round" stroke-linejoin="round"/>
</g>
<path d="M303.022 116.289C303.936 115.907 304.966 115.904 305.882 116.279L333.298 127.483C334.702 128.057 335.614 129.419 335.604 130.926L335.334 170.843C335.323 172.492 334.214 173.933 332.614 174.378L305.679 181.863C305.074 182.032 304.434 182.045 303.822 181.902L276.475 175.516C274.784 175.121 273.593 173.617 273.604 171.894L273.875 130.872C273.884 129.392 274.782 128.061 276.156 127.488L303.022 116.289Z" fill="#47A99C"/>
<path d="M333.292 127.5L305.798 116.279C304.878 115.904 303.846 115.907 302.929 116.289L275.986 127.504C274.608 128.078 273.708 129.411 273.698 130.893L273.604 145L304.668 134.015L335.515 144.208L335.604 130.947C335.615 129.438 334.7 128.074 333.292 127.5Z" fill="#84D7CC"/>
<path d="M335.558 138L335.604 131.043C335.615 129.524 334.699 128.151 333.29 127.573L305.775 116.281C304.854 115.903 303.821 115.907 302.904 116.291L275.94 127.578C274.56 128.156 273.66 129.497 273.65 130.989L273.604 137.895L304.644 127.352L335.558 138Z" fill="#D4F7E4"/>
<path d="M326.604 145.725V150.661C326.604 150.991 326.838 151.279 327.172 151.362L329.66 151.977C330.138 152.095 330.604 151.749 330.604 151.276V146.52C330.604 146.209 330.396 145.931 330.087 145.833L327.6 145.038C327.11 144.882 326.604 145.23 326.604 145.725Z" fill="#FFE7B8"/>
<path d="M274.639 148.707L274.605 154.203C274.601 154.735 275.085 155.119 275.566 154.967L278.072 154.171C278.388 154.071 278.605 153.763 278.605 153.414V147.792C278.605 147.247 278.096 146.865 277.61 147.046L275.137 147.966C274.84 148.077 274.64 148.374 274.639 148.707Z" fill="#117367"/>
<path d="M281.604 145.632V151.243C281.604 151.75 282.093 152.113 282.577 151.968L285.065 151.222C285.385 151.126 285.604 150.832 285.604 150.497V144.757C285.604 144.236 285.089 143.87 284.598 144.044L282.11 144.919C281.807 145.025 281.604 145.312 281.604 145.632Z" fill="#D4F7E4"/>
<path d="M319.604 143.676V148.751C319.604 149.059 319.838 149.328 320.172 149.406L322.66 149.978C323.138 150.089 323.604 149.766 323.604 149.325V144.417C323.604 144.126 323.396 143.869 323.087 143.777L320.6 143.035C320.11 142.89 319.604 143.215 319.604 143.676Z" fill="#117367"/>
<path d="M312.604 140.724V146.663C312.604 146.993 312.838 147.281 313.172 147.364L315.66 147.977C316.138 148.095 316.604 147.749 316.604 147.277V141.517C316.604 141.206 316.396 140.93 316.087 140.831L313.6 140.038C313.11 139.882 312.604 140.23 312.604 140.724Z" fill="#D4F7E4"/>
<path d="M288.604 143.756V150.186C288.604 150.731 289.093 151.122 289.577 150.965L292.065 150.163C292.385 150.06 292.604 149.743 292.604 149.383V142.815C292.604 142.254 292.089 141.861 291.598 142.047L289.11 142.988C288.807 143.103 288.604 143.411 288.604 143.756Z" fill="#117367"/>
<path d="M295.604 140.683V147.22C295.604 147.742 296.093 148.117 296.577 147.967L299.065 147.198C299.385 147.099 299.604 146.795 299.604 146.451V139.781C299.604 139.244 299.089 138.867 298.598 139.045L296.11 139.947C295.807 140.057 295.604 140.353 295.604 140.683Z" fill="#D4F7E4"/>
<path d="M319.91 163.782L313.779 163.015C312.625 162.871 311.604 163.772 311.604 164.936V181L321.604 178.199V165.703C321.604 164.727 320.878 163.903 319.91 163.782Z" fill="#EDFFF5"/>
<path d="M19.968 133.676C19.9823 133.672 19.998 133.669 20.0123 133.662C20.0524 133.646 20.0853 133.617 20.1239 133.597C20.4842 133.327 21.132 131.065 21.132 131.065C22.143 127.966 20.6229 125.705 18.2763 123.941C15.7323 122.027 13.2556 120.07 11.3151 116.992C11.0277 116.537 10.367 116.556 10.0967 117.022C8.0604 120.533 4.82574 122.415 2.1402 124.871C0.36128 126.497 -0.43523 128.514 0.23687 130.895C0.39703 131.468 0.51429 131.929 0.60152 132.299C0.79886 133.151 1.55962 133.748 2.43335 133.748H18.3593C18.3593 133.748 18.9899 133.746 19.8322 133.7C19.8765 133.69 19.9251 133.69 19.968 133.676Z" fill="#84D7CC"/>
<path d="M51.586 129.041C51.6074 129.035 51.6289 129.03 51.6503 129.021C51.7089 128.998 51.7576 128.955 51.8133 128.928C52.3381 128.535 53.2791 125.246 53.2791 125.246C54.7491 120.741 52.5383 117.455 49.1278 114.89C45.4298 112.107 41.8291 109.261 39.0077 104.79C38.5901 104.128 37.6292 104.155 37.2373 104.831C34.2772 109.935 29.5754 112.672 25.6701 116.241C23.0832 118.606 21.9263 121.535 22.9016 124.998C23.1361 125.831 23.3091 126.501 23.4335 127.04C23.7195 128.277 24.8264 129.145 26.0962 129.145H49.2479C49.2479 129.145 50.166 129.144 51.3886 129.075C51.4544 129.061 51.5245 129.062 51.586 129.041Z" fill="#BBF0D3"/>
<path d="M18.8411 175.17H3.34852C1.90708 175.17 0.73877 174.001 0.73877 172.56V138.657C0.73877 137.216 1.90708 136.049 3.34852 136.049H18.8411C20.2826 136.049 21.4509 137.216 21.4509 138.657V172.56C21.4509 174.001 20.2826 175.17 18.8411 175.17Z" fill="#D4F7E4"/>
<path d="M72.8411 175.17H57.3485C55.9071 175.17 54.7388 174.001 54.7388 172.56V138.657C54.7388 137.216 55.9071 136.049 57.3485 136.049H72.8411C74.2826 136.049 75.4509 137.216 75.4509 138.657V172.56C75.4509 174.001 74.2826 175.17 72.8411 175.17Z" fill="#D4F7E4"/>
<path d="M48.7309 176.32H27.5698C25.788 176.32 24.3423 174.876 24.3423 173.094V134.673C24.3423 132.89 25.788 131.446 27.5698 131.446H48.7309C50.5127 131.446 51.957 132.89 51.957 134.673V173.094C51.957 174.876 50.5127 176.32 48.7309 176.32Z" fill="#84D7CC"/>
<path d="M74.0476 133.676C74.0619 133.672 74.0776 133.669 74.0905 133.662C74.132 133.646 74.1649 133.617 74.2035 133.597C74.5638 133.327 75.2116 131.065 75.2116 131.065C76.2226 127.966 74.7025 125.705 72.3559 123.941C69.8119 122.027 67.3352 120.07 65.3947 116.992C65.1072 116.537 64.4466 116.556 64.1763 117.022C62.14 120.533 58.9053 122.415 56.2198 124.871C54.4409 126.497 53.6444 128.514 54.3165 130.895C54.4766 131.468 54.5939 131.929 54.6811 132.299C54.8785 133.151 55.6392 133.748 56.5129 133.748H72.4389C72.4389 133.748 73.0695 133.746 73.9118 133.7C73.9561 133.69 74.0047 133.69 74.0476 133.676Z" fill="#84D7CC"/>
<path d="M68.6216 168.381H61.6804C61.044 168.381 60.5264 167.863 60.5264 167.225V155.315C60.5264 155.007 60.6479 154.714 60.8653 154.498L64.3345 151.028C64.7863 150.576 65.5171 150.576 65.9689 151.028L69.4381 154.498C69.6555 154.714 69.777 155.007 69.777 155.315V167.225C69.777 167.863 69.2594 168.381 68.6216 168.381Z" fill="#EDFFF5"/>
<path d="M14.6216 168.381H7.68038C7.04403 168.381 6.52637 167.863 6.52637 167.225V155.315C6.52637 155.007 6.64792 154.714 6.86528 154.498L10.3345 151.028C10.7863 150.576 11.5171 150.576 11.9689 151.028L15.4381 154.498C15.6555 154.714 15.777 155.007 15.777 155.315V167.225C15.777 167.863 15.2594 168.381 14.6216 168.381Z" fill="#EDFFF5"/>
<path d="M43.1138 182.365H33.1853C32.273 182.365 31.5337 181.792 31.5337 181.084V156.678C31.5337 156.338 31.7082 156.012 32.017 155.771L36.982 151.923C37.6269 151.423 38.6737 151.423 39.3186 151.923L44.2821 155.771C44.5925 156.012 44.7655 156.338 44.7655 156.678V181.084C44.7655 181.792 44.0262 182.365 43.1138 182.365Z" fill="#EDFFF5"/>
<path d="M257.695 155.932C257.573 159.505 256.713 162.833 254.11 165.462C251.355 168.245 247.954 168.182 245.201 165.396C240.55 160.688 240.518 150.588 245.139 145.858C247.959 142.972 251.537 142.961 254.317 145.942C256.924 148.738 257.682 152.213 257.695 155.932Z" fill="#BBF0D3"/>
<path d="M263.478 158.276C262.711 161.202 261.942 164.128 261.177 167.054C260.969 167.852 260.478 168.271 259.652 168.06C258.727 167.824 258.315 167.254 258.583 166.242C259.331 163.431 260.009 160.602 260.78 157.799C260.993 157.024 261.338 156.181 262.486 156.66C263.21 156.962 263.681 157.388 263.478 158.276Z" fill="#117367"/>
<path d="M231.604 155.442C232.212 154.417 230.965 151.967 233.096 152.424C234.872 152.804 237.918 153.818 237.765 155.751C237.64 157.352 234.688 158.718 232.794 158.834C230.887 158.951 232.172 156.634 231.604 155.442Z" fill="#84D7CC"/>
<path d="M241.636 163.195C238.699 162.185 236.363 161.381 233.516 160.403C235.894 158.972 237.741 157.862 239.935 156.543C240.482 158.681 240.97 160.589 241.636 163.195Z" fill="#84D7CC"/>
<path d="M233.414 150.75C236.575 149.729 238.903 148.978 241.685 148.08C241.055 150.547 240.561 152.483 240.005 154.665C237.865 153.394 236.006 152.289 233.414 150.75Z" fill="#84D7CC"/>
<path d="M233.389 161.946C235.834 162.575 237.959 163.179 239.996 164.327C236.87 166.308 234.831 165.456 233.389 161.946Z" fill="#84D7CC"/>
<path d="M239.928 146.926C238.023 147.803 236.252 148.813 233.976 148.506C235.478 145.983 237.27 145.053 239.928 146.926Z" fill="#84D7CC"/>
<path d="M244.671 144.036C243.091 146.941 241.354 145.55 239.398 144.872C241.088 143.7 242.669 143.64 244.671 144.036Z" fill="#84D7CC"/>
<path d="M245.55 155.545C245.674 154.488 245.625 153.631 245.892 152.886C246.527 151.12 247.269 149.265 249.542 149.192C251.806 149.117 252.733 150.838 253.397 152.629C254.15 154.661 254.094 156.755 253.333 158.776C252.697 160.466 251.742 161.971 249.666 161.983C247.553 161.994 246.635 160.425 246.06 158.731C245.695 157.655 245.685 156.459 245.55 155.545Z" fill="#EBFFE0"/>
<path d="M264.475 155.836L261.694 155.037C260.415 154.671 259.677 153.338 260.044 152.059L260.842 149.278C261.208 148.001 262.541 147.262 263.82 147.628L266.601 148.426C267.879 148.793 268.617 150.127 268.251 151.405L267.453 154.186C267.086 155.464 265.753 156.202 264.475 155.836Z" fill="#84D7CC"/>
<path d="M108.83 149.048C108.852 149.042 108.874 149.038 108.895 149.03C108.957 149.012 109.006 148.975 109.062 148.951C109.601 148.619 110.567 145.837 110.567 145.837C112.076 142.03 109.807 139.25 106.308 137.082C102.511 134.729 98.817 132.323 95.9214 128.54C95.4924 127.982 94.508 128.005 94.1049 128.577C91.0667 132.892 86.2415 135.207 82.2336 138.225C79.5801 140.224 78.3928 142.702 79.3945 145.629C79.6354 146.333 79.8099 146.901 79.9389 147.355C80.2327 148.402 81.3683 149.135 82.6711 149.135H106.43C106.43 149.135 107.372 149.135 108.627 149.077C108.695 149.065 108.766 149.065 108.83 149.048Z" fill="#D4F7E4"/>
<path d="M108.084 182.734H82.9994C81.3655 182.734 80.0415 181.465 80.0415 179.898V153.371C80.0415 151.804 81.3655 150.534 82.9994 150.534H108.084C109.718 150.534 111.042 151.804 111.042 153.371V179.898C111.042 181.465 109.718 182.734 108.084 182.734Z" fill="#84D7CC"/>
<path fill-rule="evenodd" clip-rule="evenodd" d="M101.418 175.735H91.6646C90.768 175.735 90.0415 175.369 90.0415 174.92V159.396C90.0415 159.18 90.2117 158.973 90.5165 158.821L95.3934 156.373C96.0271 156.055 97.0546 156.055 97.6896 156.373L102.567 158.821C102.871 158.973 103.042 159.18 103.042 159.396V174.92C103.042 175.369 102.315 175.735 101.418 175.735Z" stroke="white" stroke-width="0.8745"/>
<path fill-rule="evenodd" clip-rule="evenodd" d="M83.4184 175.735H73.6646C72.768 175.735 72.0415 175.369 72.0415 174.92V159.396C72.0415 159.18 72.2117 158.973 72.5165 158.821L77.3934 156.373C78.0271 156.055 79.0546 156.055 79.6896 156.373L84.5665 158.821C84.8713 158.973 85.0415 159.18 85.0415 159.396V174.92C85.0415 175.369 84.315 175.735 83.4184 175.735Z" stroke="#EDFFF5" stroke-width="0.8745"/>
<path fill-rule="evenodd" clip-rule="evenodd" d="M119.418 175.735H109.665C108.768 175.735 108.042 175.369 108.042 174.92V159.396C108.042 159.18 108.212 158.973 108.516 158.821L113.393 156.373C114.027 156.055 115.055 156.055 115.69 156.373L120.567 158.821C120.871 158.973 121.042 159.18 121.042 159.396V174.92C121.042 175.369 120.315 175.735 119.418 175.735Z" stroke="#EDFFF5" stroke-width="0.8745"/>
<path d="M185.098 33.4022C184.499 35.729 182.415 37.3682 180.011 37.3932C173.902 37.4574 162.749 37.0499 159.334 33.4242C154.548 28.3433 155.103 14.35 155.103 14.35C155.103 14.35 163.17 9.81644 165.145 23.1387L174.765 26.4173L185.283 32.685L185.098 33.4022Z" fill="#DF9F1C"/>
<path d="M180.545 41.6067L162.016 40.5376C160.13 40.4285 158.489 39.2084 157.843 37.4343L152.374 22.4151C152.374 22.4151 161.008 14.9686 164.798 29.423C165.009 30.2263 165.849 30.6797 166.647 30.4484C167.793 30.1158 169.454 29.8256 171.068 30.23C171.627 30.3702 172.128 29.8396 171.968 29.2864C171.428 27.4163 170.824 23.9486 171.85 19.5532C171.997 18.9242 172.635 18.5396 173.263 18.692C174.244 18.9297 175.714 19.2862 177.026 19.6042C178.96 20.0731 180.826 20.7876 182.579 21.7306C183.363 22.1524 183.898 22.924 184.018 23.8059L184.701 28.8331L185.455 36.4971C185.735 39.3459 183.404 41.772 180.545 41.6067Z" fill="#E79E5C"/>
<path d="M181.304 78.4394C175.464 81.3081 168.403 78.9016 165.533 73.0643C162.663 67.2273 165.071 60.1703 170.911 57.3019C176.751 54.4335 183.812 56.8397 186.683 62.6767C189.553 68.5137 187.145 75.571 181.304 78.4394Z" fill="#FFC54F"/>
<path d="M146.168 -96.7716L158.812 -25.421C158.995 -24.3876 159.512 -23.4424 160.283 -22.7304L194.837 9.16427C197.12 11.2717 198.502 14.178 198.694 17.2779C199.128 24.2815 200.435 44.6946 199.977 48.3576C199.519 52.0202 193.7 68.874 193.106 71.2493C191.732 76.7432 186.693 77.2011 184.86 70.7917C182.597 62.8766 190.031 52.9916 189.675 50.2579C189.622 49.8473 189.516 49.4502 189.359 49.0672C188.29 46.463 183.469 34.9803 182.745 26.9052C182.629 25.606 181.998 24.4134 180.982 23.5936C177.043 20.4099 166.836 13.8918 158.39 23.41C157.467 24.4504 157.054 25.8455 157.237 27.2241C157.361 28.1542 157.619 29.3447 158.131 30.7639C159.476 34.4913 159.256 38.0121 160.208 41.9326C161.16 45.853 169.124 55.1054 167.898 62.5333C167.886 62.6078 167.873 62.6811 167.86 62.7538C166.983 67.5757 160.848 70.266 159.185 65.6555C157.488 60.9512 153.511 51.573 149.426 43.8155C142.102 29.9101 125.05 14.9646 130.972 -13.2146C130.998 -13.3386 131.035 -13.4611 131.072 -13.5818C131.212 -14.0339 131.496 -15.7986 129.898 -20.702C128.197 -25.9223 110.013 -77.1575 105.932 -88.6506C105.405 -90.1352 105.637 -91.7845 106.564 -93.0586C111.192 -99.4158 126.449 -116.783 144.756 -99.4106C145.497 -98.7068 145.99 -97.7775 146.168 -96.7716Z" fill="#FFDAB8"/>
<path opacity="0.7" d="M143.952 28.2202C143.952 28.2202 133.305 10.5346 134.578 -3.74226C135.851 -18.0194 135.465 -18.8045 131.623 -29.5944C127.781 -40.3836 106.801 -92.974 106.801 -92.974L106.681 -93.2178C106.642 -93.1655 106.603 -93.1118 106.565 -93.0608C105.637 -91.7857 105.405 -90.1343 105.933 -88.6479C110.016 -77.1493 128.197 -25.922 129.898 -20.7021C131.495 -15.7986 131.211 -14.0339 131.072 -13.5818C131.035 -13.4612 130.998 -13.3384 130.972 -13.2146C125.05 14.9645 142.101 29.9101 149.425 43.8155C153.511 51.5729 157.488 60.9512 159.185 65.6555C159.536 66.6299 160.114 67.3716 160.814 67.8946C160.814 67.8946 164.309 57.7141 143.952 28.2202Z" fill="#E79E5C"/>
<path d="M155.974 16.9526C155.974 16.9526 158.498 20.1011 157.433 23.856C156.806 26.0676 157.534 28.4509 158.106 30.6778C158.642 32.7675 159.281 35.6634 159.744 39.0407C159.954 40.572 160.3 42.0823 160.814 43.5403C161.597 45.7632 164.562 49.3012 167.832 57.9342" stroke="#E79E5C" stroke-width="0.865" stroke-linecap="round" stroke-linejoin="round"/>
<path d="M183.951 20.2761C182.166 23.5908 182.321 25.3253 182.321 25.3253" stroke="#E79E5C" stroke-width="0.865" stroke-linecap="round" stroke-linejoin="round"/>
<path d="M207.195 126.813L206.285 125.159C202.902 119.012 196.438 115.192 189.418 115.192H151.683C144.663 115.192 138.2 119.012 134.817 125.159L133.907 126.813C118.258 155.249 110.053 187.176 110.053 219.63H231.049C231.049 187.176 222.844 155.249 207.195 126.813Z" fill="#84D653"/>
<path d="M209.05 165.746C209.05 166.67 209.019 167.587 208.95 168.494C208.476 175.233 206.228 181.726 202.433 187.317C199.684 191.369 196.189 194.862 192.134 197.609C186.541 201.402 180.044 203.649 173.301 204.123C172.393 204.192 171.476 204.222 170.551 204.222C169.626 204.222 168.709 204.192 167.801 204.123C161.058 203.649 154.561 201.402 148.968 197.609C144.913 194.862 141.418 191.369 138.669 187.317C134.874 181.726 132.626 175.233 132.152 168.494C132.083 167.587 132.052 166.67 132.052 165.746C132.052 164.821 132.083 163.904 132.152 162.997C132.626 156.258 134.874 149.764 138.669 144.174C141.418 140.122 144.913 136.629 148.968 133.882C154.561 130.089 161.058 127.842 167.801 127.368C168.709 127.299 169.626 127.269 170.551 127.269C171.476 127.269 172.393 127.299 173.301 127.368C180.044 127.842 186.541 130.089 192.134 133.882C196.189 136.629 199.684 140.122 202.433 144.174C206.228 149.764 208.476 156.258 208.95 162.997C209.019 163.904 209.05 164.821 209.05 165.746Z" fill="#F9FFFC"/>
<path d="M142.182 87.5857H121.244C120.278 87.5857 119.487 86.7955 119.487 85.8295V83.5379C119.487 82.572 120.278 81.7817 121.244 81.7817H142.182C143.148 81.7817 143.939 82.572 143.939 83.5379V85.8295C143.939 86.7955 143.148 87.5857 142.182 87.5857Z" fill="#FFC54F"/>
<path d="M172.746 87.5857H151.809C150.842 87.5857 150.052 86.7955 150.052 85.8295V83.5379C150.052 82.572 150.842 81.7817 151.809 81.7817H172.746C173.713 81.7817 174.503 82.572 174.503 83.5379V85.8295C174.503 86.7955 173.713 87.5857 172.746 87.5857Z" fill="#FFC54F"/>
<path d="M227.762 87.5857H206.825C205.858 87.5857 205.068 86.7955 205.068 85.8295V83.5379C205.068 82.572 205.858 81.7817 206.825 81.7817H227.762C228.729 81.7817 229.519 82.572 229.519 83.5379V85.8295C229.519 86.7955 228.729 87.5857 227.762 87.5857Z" fill="#FFC54F"/>
<path d="M229.694 81.804H208.757C207.79 81.804 207 81.0137 207 80.0478V77.7562C207 76.7903 207.79 76 208.757 76H229.694C230.661 76 231.452 76.7903 231.452 77.7562V80.0478C231.452 81.0137 230.661 81.804 229.694 81.804Z" fill="#FFC569"/>
<path d="M222.261 76.5886H201.323C200.357 76.5886 199.566 75.7984 199.566 74.8325V72.5408C199.566 71.5749 200.357 70.7847 201.323 70.7847H222.261C223.227 70.7847 224.018 71.5749 224.018 72.5408V74.8325C224.018 75.7984 223.227 76.5886 222.261 76.5886Z" fill="#FFC54F"/>
<mask id="mask1_5567_163579" style="mask-type:alpha" maskUnits="userSpaceOnUse" x="200" y="71" width="24" height="6">
<path fill-rule="evenodd" clip-rule="evenodd" d="M201.724 71C200.776 71 200 71.8169 200 72.8152V75.1848C200 76.1831 200.776 77 201.724 77H222.276C223.224 77 224 76.1831 224 75.1848V72.8152C224 71.8169 223.224 71 222.276 71H201.724Z" fill="white"/>
</mask>
<g mask="url(#mask1_5567_163579)">
<path d="M198.2 80.7894H226.4V75.1052H198.2V80.7894Z" fill="#E28F4F"/>
</g>
<path d="M104.553 85.3577H236.549C236.549 95.8861 221.775 104.421 203.55 104.421H137.552C119.327 104.421 104.553 95.8861 104.553 85.3577Z" fill="#00AB4E"/>
<path d="M162.302 115.192H178.801V104.266H162.302V115.192Z" fill="#4F9E1F"/>
<path d="M230.513 82.3926H209.576C208.609 82.3926 207.819 81.6023 207.819 80.6364V78.3448C207.819 77.3789 208.609 76.5886 209.576 76.5886H230.513C231.48 76.5886 232.27 77.3789 232.27 78.3448V80.6364C232.27 81.6023 231.48 82.3926 230.513 82.3926Z" fill="#FFC54F"/>
<mask id="mask2_5567_163579" style="mask-type:alpha" maskUnits="userSpaceOnUse" x="207" y="76" width="24" height="6">
<path fill-rule="evenodd" clip-rule="evenodd" d="M208.724 76C207.776 76 207 76.8169 207 77.8152V80.1848C207 81.1831 207.776 82 208.724 82H229.276C230.224 82 231 81.1831 231 80.1848V77.8152C231 76.8169 230.224 76 229.276 76H208.724Z" fill="white"/>
</mask>
<g mask="url(#mask2_5567_163579)">
<path d="M205.2 85.7894H233.4V80.1052H205.2V85.7894Z" fill="#E28F4F"/>
</g>
<path fill-rule="evenodd" clip-rule="evenodd" d="M143.275 83H122.724C121.776 83 121 82.1831 121 81.1845V78.8155C121 77.8169 121.776 77 122.724 77H143.275C144.224 77 145 77.8169 145 78.8155V81.1845C145 82.1831 144.224 83 143.275 83Z" fill="#FFC569"/>
<mask id="mask3_5567_163579" style="mask-type:alpha" maskUnits="userSpaceOnUse" x="121" y="77" width="24" height="6">
<path fill-rule="evenodd" clip-rule="evenodd" d="M122.725 77C121.776 77 121 77.8169 121 78.8152V81.1848C121 82.1831 121.776 83 122.725 83H143.275C144.224 83 145 82.1831 145 81.1848V78.8152C145 77.8169 144.224 77 143.275 77H122.725Z" fill="white"/>
</mask>
<g mask="url(#mask3_5567_163579)">
<path d="M119.2 86.7894H147.4V81.1052H119.2V86.7894Z" fill="#E28F4F"/>
</g>
<mask id="mask4_5567_163579" style="mask-type:alpha" maskUnits="userSpaceOnUse" x="104" y="84" width="132" height="20">
<path fill-rule="evenodd" clip-rule="evenodd" d="M104.042 84.2207C104.042 94.9916 118.72 103.723 136.825 103.723H202.392C220.497 103.723 235.175 94.9916 235.175 84.2207" fill="white"/>
</mask>
<g mask="url(#mask4_5567_163579)">
<path d="M104.042 97.9709H235.175C235.175 108.742 220.497 117.473 202.392 117.473H136.825C118.72 117.473 104.042 108.742 104.042 97.9709Z" fill="#418419"/>
</g>
<path d="M113 26.8131C113 34.585 106.956 40.8853 99.5 40.8853C92.0441 40.8853 86 34.585 86 26.8131C86 19.0413 92.0441 12.741 99.5 12.741C106.956 12.741 113 19.0413 113 26.8131Z" fill="#67C880"/>
<path d="M113 25.0722C113 32.844 106.956 39.1443 99.5 39.1443C92.0441 39.1443 86 32.844 86 25.0722C86 17.3003 92.0441 11 99.5 11C106.956 11 113 17.3003 113 25.0722Z" fill="white"/>
<g clip-path="url(#clip0_5567_163579)">
<path d="M96.328 31.468L95.068 30.748L102.538 17.842L103.798 18.562L96.328 31.468ZM95.014 25.906C94.042 25.906 93.28 25.576 92.728 24.916C92.176 24.256 91.9 23.29 91.9 22.018C91.9 20.746 92.176 19.786 92.728 19.138C93.28 18.478 94.042 18.148 95.014 18.148C95.998 18.148 96.766 18.478 97.318 19.138C97.87 19.786 98.146 20.746 98.146 22.018C98.146 23.302 97.87 24.274 97.318 24.934C96.766 25.582 95.998 25.906 95.014 25.906ZM95.014 24.682C95.542 24.682 95.932 24.472 96.184 24.052C96.436 23.62 96.562 22.942 96.562 22.018C96.562 21.106 96.436 20.44 96.184 20.02C95.932 19.6 95.542 19.39 95.014 19.39C94.486 19.39 94.096 19.6 93.844 20.02C93.604 20.428 93.484 21.094 93.484 22.018C93.484 22.942 93.604 23.62 93.844 24.052C94.096 24.472 94.486 24.682 95.014 24.682ZM103.852 31.126C102.868 31.126 102.1 30.802 101.548 30.154C100.996 29.494 100.72 28.522 100.72 27.238C100.72 25.966 100.996 25.006 101.548 24.358C102.1 23.698 102.868 23.368 103.852 23.368C104.824 23.368 105.586 23.698 106.138 24.358C106.702 25.006 106.984 25.966 106.984 27.238C106.984 28.51 106.708 29.476 106.156 30.136C105.604 30.796 104.836 31.126 103.852 31.126ZM103.852 29.902C104.38 29.902 104.764 29.692 105.004 29.272C105.256 28.84 105.382 28.162 105.382 27.238C105.382 26.326 105.256 25.66 105.004 25.24C104.752 24.808 104.368 24.592 103.852 24.592C103.324 24.592 102.934 24.802 102.682 25.222C102.43 25.642 102.304 26.314 102.304 27.238C102.304 28.162 102.43 28.84 102.682 29.272C102.934 29.692 103.324 29.902 103.852 29.902Z" fill="#004D43"/>
</g>
<path d="M286.967 51.5777C286.967 61.1998 279.14 69.0001 269.484 69.0001C259.828 69.0001 252 61.1998 252 51.5777C252 41.9555 259.828 34.1555 269.484 34.1555C279.14 34.1555 286.967 41.9555 286.967 51.5777Z" fill="#67C880"/>
<path d="M286.967 49.4225C286.967 59.0446 279.14 66.8446 269.484 66.8446C259.828 66.8446 252 59.0446 252 49.4225C252 39.8003 259.828 32 269.484 32C279.14 32 286.967 39.8003 286.967 49.4225Z" fill="white"/>
<path d="M265.696 59.676L263.876 58.636L274.666 39.994L276.486 41.034L265.696 59.676ZM263.798 51.642C262.394 51.642 261.293 51.1653 260.496 50.212C259.699 49.2587 259.3 47.8633 259.3 46.026C259.3 44.1887 259.699 42.802 260.496 41.866C261.293 40.9127 262.394 40.436 263.798 40.436C265.219 40.436 266.329 40.9127 267.126 41.866C267.923 42.802 268.322 44.1887 268.322 46.026C268.322 47.8807 267.923 49.2847 267.126 50.238C266.329 51.174 265.219 51.642 263.798 51.642ZM263.798 49.874C264.561 49.874 265.124 49.5707 265.488 48.964C265.852 48.34 266.034 47.3607 266.034 46.026C266.034 44.7087 265.852 43.7467 265.488 43.14C265.124 42.5333 264.561 42.23 263.798 42.23C263.035 42.23 262.472 42.5333 262.108 43.14C261.761 43.7293 261.588 44.6913 261.588 46.026C261.588 47.3607 261.761 48.34 262.108 48.964C262.472 49.5707 263.035 49.874 263.798 49.874ZM276.564 59.182C275.143 59.182 274.033 58.714 273.236 57.778C272.439 56.8247 272.04 55.4207 272.04 53.566C272.04 51.7287 272.439 50.342 273.236 49.406C274.033 48.4527 275.143 47.976 276.564 47.976C277.968 47.976 279.069 48.4527 279.866 49.406C280.681 50.342 281.088 51.7287 281.088 53.566C281.088 55.4033 280.689 56.7987 279.892 57.752C279.095 58.7053 277.985 59.182 276.564 59.182ZM276.564 57.414C277.327 57.414 277.881 57.1107 278.228 56.504C278.592 55.88 278.774 54.9007 278.774 53.566C278.774 52.2487 278.592 51.2867 278.228 50.68C277.864 50.056 277.309 49.744 276.564 49.744C275.801 49.744 275.238 50.0473 274.874 50.654C274.51 51.2607 274.328 52.2313 274.328 53.566C274.328 54.9007 274.51 55.88 274.874 56.504C275.238 57.1107 275.801 57.414 276.564 57.414Z" fill="#FFC54F"/>
<path d="M55.7463 76.228C55.7463 82.7292 50.4305 88 43.873 88C37.3158 88 32 82.7292 32 76.228C32 69.7268 37.3158 64.4561 43.873 64.4561C50.4305 64.4561 55.7463 69.7268 55.7463 76.228Z" fill="#67C880"/>
<path d="M55.7463 74.7717C55.7463 81.2729 50.4305 86.5437 43.873 86.5437C37.3158 86.5437 32 81.2729 32 74.7717C32 68.2705 37.3158 62.9998 43.873 62.9998C50.4305 62.9998 55.7463 68.2705 55.7463 74.7717Z" fill="white"/>
<path d="M41.144 80.364L40.164 79.804L45.974 69.766L46.954 70.326L41.144 80.364ZM40.122 76.038C39.366 76.038 38.7733 75.7813 38.344 75.268C37.9147 74.7547 37.7 74.0033 37.7 73.014C37.7 72.0247 37.9147 71.278 38.344 70.774C38.7733 70.2607 39.366 70.004 40.122 70.004C40.8873 70.004 41.4847 70.2607 41.914 70.774C42.3433 71.278 42.558 72.0247 42.558 73.014C42.558 74.0127 42.3433 74.7687 41.914 75.282C41.4847 75.786 40.8873 76.038 40.122 76.038ZM40.122 75.086C40.5327 75.086 40.836 74.9227 41.032 74.596C41.228 74.26 41.326 73.7327 41.326 73.014C41.326 72.3047 41.228 71.7867 41.032 71.46C40.836 71.1333 40.5327 70.97 40.122 70.97C39.7113 70.97 39.408 71.1333 39.212 71.46C39.0253 71.7773 38.932 72.2953 38.932 73.014C38.932 73.7327 39.0253 74.26 39.212 74.596C39.408 74.9227 39.7113 75.086 40.122 75.086ZM46.996 80.098C46.2307 80.098 45.6333 79.846 45.204 79.342C44.7747 78.8287 44.56 78.0727 44.56 77.074C44.56 76.0847 44.7747 75.338 45.204 74.834C45.6333 74.3207 46.2307 74.064 46.996 74.064C47.752 74.064 48.3447 74.3207 48.774 74.834C49.2127 75.338 49.432 76.0847 49.432 77.074C49.432 78.0633 49.2173 78.8147 48.788 79.328C48.3587 79.8413 47.7613 80.098 46.996 80.098ZM46.996 79.146C47.4067 79.146 47.7053 78.9827 47.892 78.656C48.088 78.32 48.186 77.7927 48.186 77.074C48.186 76.3647 48.088 75.8467 47.892 75.52C47.696 75.184 47.3973 75.016 46.996 75.016C46.5853 75.016 46.282 75.1793 46.086 75.506C45.89 75.8327 45.792 76.3553 45.792 77.074C45.792 77.7927 45.89 78.32 46.086 78.656C46.282 78.9827 46.5853 79.146 46.996 79.146Z" fill="#00AB4E"/>
<path d="M146.06 150.048L149.064 156.026L152.968 149.93L146.06 150.048Z" fill="#00662E"/>
<path d="M149.987 152.385L175.929 168.813" stroke="#00662E" stroke-width="2"/>
</g>
<path d="M170.5 127.5V134.5" stroke="#9CEABF" stroke-linecap="square"/>
<path d="M132.5 162H140" stroke="#9CEABF" stroke-linecap="square"/>
<path d="M201 162H208.5" stroke="#9CEABF" stroke-linecap="square"/>
<path d="M151 133L155.015 138.734" stroke="#9CEABF" stroke-linecap="square"/>
<path d="M190.015 133L186 138.734" stroke="#9CEABF" stroke-linecap="square"/>
<path d="M138.232 145.479L144.232 149.085" stroke="#9CEABF" stroke-linecap="square"/>
<path d="M203 145.479L197 149.085" stroke="#9CEABF" stroke-linecap="square"/>
<path d="M254.848 120.165C255.341 119.794 254.936 119.287 254.286 119.262C250.695 119.124 245.876 120.897 245.876 126.163C245.876 131.594 250.052 133.202 254.558 133.255C255.185 133.262 255.544 132.686 255.062 132.335C253.064 130.879 250.052 129.012 250.052 126.163C250.052 123.456 252.856 121.664 254.848 120.165Z" fill="#84D7CC"/>
<path d="M260.677 123.453L259.801 125.049L258.199 125.921C257.934 126.066 257.934 126.444 258.199 126.588L259.801 127.461L260.677 129.057C260.822 129.321 261.202 129.321 261.347 129.057L262.223 127.461L263.826 126.588C264.091 126.444 264.091 126.066 263.826 125.921L262.223 125.049L261.347 123.453C261.202 123.189 260.822 123.189 260.677 123.453Z" fill="#84D7CC"/>
<defs>
<clipPath id="clip0_5567_163579">
<rect width="18" height="24" fill="white" transform="translate(90.1982 13)"/>
</clipPath>
</defs>
</svg>
