<svg width="328" height="164" viewBox="0 0 328 164" fill="none" xmlns="http://www.w3.org/2000/svg">
<mask id="mask0_5567_157558" style="mask-type:alpha" maskUnits="userSpaceOnUse" x="0" y="0" width="328" height="164">
<path fill-rule="evenodd" clip-rule="evenodd" d="M23.2189 161.504C33.6809 163.667 265.053 165.826 301.876 161.504C312.777 160.224 321.503 148.276 322.776 146.203C330.736 133.238 327.751 53.2794 325.761 26.266C324.69 11.7278 309.838 5.19571 302.871 3.03482C289.548 -1.09779 53.2799 -1.26366 22.2229 4.11573C8.32787 6.52168 3.29087 17.8712 2.29087 24.1796C-0.0421274 38.8847 -1.42113 129.331 2.31887 141.514C5.30487 151.239 12.7689 159.343 23.2189 161.504Z" fill="white"/>
</mask>
<g mask="url(#mask0_5567_157558)">
<path d="M-15 177H336V-8H-15V177Z" fill="#E6F6ED"/>
<path d="M261.83 23.9712C262.766 27.4495 266.469 29.5214 270.102 28.7126C273.734 27.9038 275.92 24.4788 274.983 20.9442C274.047 17.4097 270.343 15.1441 266.712 16.01C263.08 16.876 260.894 20.4938 261.83 23.9712Z" fill="#BBF0D3"/>
<path d="M206.138 35.1446C207.234 39.0104 211.565 41.3525 215.812 40.4875C220.061 39.6226 222.618 35.8469 221.522 31.9326C220.428 28.0174 216.096 25.4787 211.848 26.3911C207.6 27.3045 205.043 31.2778 206.138 35.1446Z" fill="#BBF0D3"/>
<path d="M152.355 46.8119C153.45 50.5198 157.782 52.7195 162.03 51.8129C166.278 50.9062 168.835 47.209 167.74 43.4575C166.644 39.705 162.312 37.3464 158.065 38.2967C153.817 39.2469 151.26 43.104 152.355 46.8119Z" fill="#BBF0D3"/>
<path d="M239.334 87.4665C240.203 90.229 243.642 91.9289 247.017 91.2509C248.521 90.9487 249.83 90.2019 250.693 89.1577C252.113 93.6618 252.824 95.9207 254.244 100.509C259.756 99.3651 262.512 98.7955 268.024 97.6574C266.421 100.194 267.63 103.371 270.724 104.725C273.818 106.079 277.627 105.067 279.23 102.502C280.711 100.133 279.805 97.2477 277.128 95.7763C282.641 94.6372 285.397 94.0686 290.909 92.9237C287.763 83.0418 284.595 73.1666 281.458 63.2818C275.947 64.3938 273.191 64.941 267.679 66.0298C269.282 63.5278 268.073 60.3846 264.978 59.013C261.884 57.6415 258.076 58.5839 256.472 61.1092C254.993 63.4387 255.899 66.3262 258.574 67.8179C253.062 68.8969 250.306 69.4326 244.794 70.5029C246.214 75.0157 246.925 77.2513 248.346 81.7361C245.251 80.3994 241.445 81.3273 239.841 83.8244C239.127 84.9374 238.947 86.2344 239.334 87.4665Z" fill="#BBF0D3"/>
<path d="M246.133 71.4724C246.144 71.4433 246.14 71.4521 246.15 71.422C242.825 68.3873 239.521 65.3313 236.23 62.2617C234.309 60.4717 232.393 58.6778 230.487 56.8732C227.07 53.64 223.673 50.3863 220.307 47.1046C218.972 45.8028 216.682 46.4072 216.225 48.1837C213.61 58.3465 210.891 68.4842 208.15 78.616C213.832 77.535 216.693 76.9955 222.393 75.9223C219.384 74.2969 218.572 71.0723 220.578 68.7205C222.585 66.3697 226.65 65.7972 229.659 67.439C232.435 68.954 233.375 71.8414 231.839 74.1487C237.558 73.0774 240.418 72.5427 246.133 71.4724Z" fill="#BBF0D3"/>
<path d="M281.459 63.2818C278.544 53.8978 275.716 44.5089 272.97 35.0793C272.583 33.7494 270.832 33.4588 270.047 34.5998C265.17 41.6824 252.362 60.313 245.006 70.4623C250.374 69.4191 253.135 68.8825 258.574 67.8179C255.674 66.2023 254.892 62.9816 256.826 60.6201C258.761 58.2595 262.678 57.6735 265.578 59.3134C268.253 60.8273 269.159 63.7206 267.678 66.0289C273.191 64.9411 275.947 64.3929 281.459 63.2818Z" fill="#BBF0D3"/>
<path d="M171.463 85.0688C176.975 83.9239 179.731 83.3582 185.244 82.2385C183.64 84.7782 184.849 87.9456 187.944 89.3017C191.038 90.6588 194.847 89.6853 196.45 87.1446C197.93 84.7995 197.024 81.9004 194.348 80.4C199.823 79.3016 202.583 78.7534 208.022 77.6792C193.579 70.4706 179.165 63.2088 164.779 55.8879C163.752 55.3659 162.602 56.3316 162.938 57.4329C165.756 66.6523 168.604 75.862 171.463 85.0688Z" fill="#BBF0D3"/>
<path d="M232.488 122.053C233.359 125.08 231.33 128.236 227.956 129.034C226.453 129.39 224.857 129.219 223.477 128.558C224.897 133.645 225.608 136.25 227.029 141.642C239.234 138.569 251.457 135.569 263.694 132.63C262.273 127.479 261.563 124.985 260.143 120.103C263.237 121.529 267.045 120.451 268.649 117.744C270.252 115.037 269.043 111.766 265.949 110.389C263.093 109.118 259.581 109.866 257.795 112.159C256.374 107.417 255.665 105.098 254.244 100.509C248.731 101.654 245.976 102.228 240.464 103.384C242.067 100.796 240.859 97.6293 237.763 96.2761C234.669 94.9239 230.86 95.8799 229.257 98.4429C227.778 100.809 228.682 103.772 231.359 105.302C225.847 106.467 223.091 107.054 217.579 108.239C218.999 112.97 219.71 115.371 221.13 120.293C223.064 117.714 226.981 117.047 229.88 118.77C231.172 119.538 232.102 120.703 232.488 122.053Z" fill="#BBF0D3"/>
<path d="M196.284 154.357C198.574 155.676 201.504 154.927 202.867 152.669C204.204 150.452 205.374 148.559 207.107 145.791C207.11 145.807 207.113 145.823 207.117 145.839C207.844 148.499 210.717 150.142 213.534 149.446C216.353 148.751 218.046 146.009 217.32 143.383C216.593 140.758 213.722 139.211 210.905 139.871C210.888 139.875 210.871 139.88 210.855 139.885C213.255 136.156 214.454 134.335 216.854 130.755C212.328 128.381 210.065 127.208 205.539 124.875C205.557 124.872 205.574 124.87 205.59 124.866C208.409 124.249 210.103 121.782 209.376 119.385C208.649 116.988 205.777 115.547 202.958 116.141C200.142 116.736 198.448 119.154 199.173 121.573C199.177 121.588 199.182 121.602 199.189 121.617C195.121 119.539 193.088 118.507 189.022 116.454C184.274 123.2 179.718 130.061 175.214 136.964C173.793 139.142 174.527 142.055 176.804 143.324C183.326 146.958 189.814 150.633 196.284 154.357Z" fill="#BBF0D3"/>
<path d="M198.284 153.357C200.574 154.676 203.504 153.927 204.867 151.669C206.204 149.452 207.374 147.559 209.107 144.791C209.11 144.807 209.113 144.823 209.117 144.839C209.844 147.499 212.717 149.142 215.534 148.446C218.353 147.751 220.046 145.009 219.32 142.383C218.593 139.758 215.722 138.211 212.905 138.871C212.888 138.875 212.871 138.88 212.855 138.885C215.255 135.156 216.454 133.335 218.854 129.755C214.328 127.381 212.065 126.208 207.539 123.875C207.557 123.872 207.574 123.87 207.59 123.866C210.409 123.249 212.103 120.782 211.376 118.385C210.649 115.988 207.777 114.547 204.958 115.141C202.142 115.736 200.448 118.154 201.173 120.573C201.177 120.588 201.182 120.602 201.189 120.617C197.121 118.539 195.088 117.507 191.022 115.454C186.274 122.2 181.718 129.061 177.214 135.964C175.793 138.142 176.527 141.055 178.804 142.324C185.326 145.958 191.814 149.633 198.284 153.357Z" fill="#FFD37B"/>
<path d="M271.091 113.854C271.961 116.767 269.933 119.796 266.559 120.562C265.055 120.904 263.459 120.739 262.08 120.104C263.5 124.985 264.211 127.479 265.631 132.63C276.506 130.019 287.39 127.452 298.28 124.91C300.458 124.402 301.764 122.162 301.127 120.017C298.438 110.962 295.678 101.94 292.846 92.9238C287.333 94.0687 284.578 94.6373 279.066 95.7764C281.966 97.3708 282.748 100.591 280.814 102.999C278.881 105.405 274.962 106.056 272.063 104.427C269.387 102.924 268.482 99.9987 269.961 97.6565C264.449 98.7956 261.693 99.3652 256.181 100.509C257.601 105.099 258.312 107.416 259.732 112.159C261.666 109.675 265.584 109.032 268.482 110.692C269.775 111.432 270.704 112.554 271.091 113.854Z" fill="#FFD37B"/>
<path d="M241.271 87.4665C242.14 90.229 245.579 91.9289 248.954 91.2509C250.458 90.9487 251.767 90.2019 252.63 89.1577C254.05 93.6618 254.761 95.9207 256.181 100.509C261.693 99.3651 264.449 98.7955 269.961 97.6574C268.358 100.194 269.567 103.371 272.661 104.725C275.755 106.079 279.564 105.067 281.167 102.502C282.648 100.133 281.742 97.2477 279.065 95.7763C284.578 94.6372 287.334 94.0686 292.846 92.9237C289.7 83.0418 286.532 73.1666 283.395 63.2818C277.884 64.3938 275.128 64.941 269.616 66.0298C271.219 63.5278 270.01 60.3846 266.915 59.013C263.821 57.6415 260.013 58.5839 258.409 61.1092C256.93 63.4387 257.836 66.3262 260.511 67.8179C254.999 68.8969 252.243 69.4326 246.731 70.5029C248.151 75.0157 248.862 77.2513 250.283 81.7361C247.188 80.3994 243.382 81.3273 241.778 83.8244C241.064 84.9374 240.884 86.2344 241.271 87.4665Z" fill="#FFE7B8"/>
<path d="M234.425 122.053C235.296 125.08 233.267 128.236 229.893 129.034C228.39 129.39 226.794 129.219 225.414 128.558C226.834 133.645 227.545 136.25 228.966 141.642C241.171 138.569 253.394 135.569 265.631 132.63C264.21 127.479 263.5 124.985 262.08 120.103C265.174 121.529 268.982 120.451 270.586 117.744C272.189 115.037 270.98 111.766 267.886 110.389C265.03 109.118 261.518 109.866 259.732 112.159C258.312 107.417 257.602 105.098 256.181 100.509C250.668 101.654 247.913 102.228 242.401 103.384C244.004 100.796 242.796 97.6293 239.7 96.2761C236.606 94.9239 232.797 95.8799 231.194 98.4429C229.715 100.809 230.619 103.772 233.296 105.302C227.784 106.467 225.028 107.054 219.516 108.239C220.936 112.97 221.647 115.371 223.067 120.293C225.001 117.714 228.918 117.047 231.817 118.77C233.109 119.538 234.039 120.703 234.425 122.053Z" fill="#FFE7B8"/>
<path d="M173.4 85.0692C176.609 95.4713 179.764 105.881 182.851 116.321C188.362 115.073 191.119 114.456 196.63 113.234C193.731 111.531 192.949 108.127 194.883 105.656C196.817 103.185 200.735 102.551 203.635 104.215C206.31 105.749 207.215 108.757 205.737 111.228C211.248 110.022 214.004 109.424 219.516 108.239C218.094 103.508 217.384 101.188 215.964 96.5823C214.03 98.9806 210.111 99.6121 207.213 97.9684C204.313 96.3256 203.53 93.0497 205.464 90.6688C207.249 88.471 210.761 87.7678 213.617 89.0173C212.197 84.4599 211.486 82.1982 210.065 77.6582C204.553 78.7469 201.797 79.2942 196.285 80.4004C199.185 82.0267 199.967 85.2581 198.033 87.636C196.098 90.013 192.182 90.633 189.281 89.0037C186.606 87.5004 185.701 84.5829 187.181 82.2388C181.668 83.3586 178.912 83.9243 173.4 85.0692Z" fill="#FFE7B8"/>
<path d="M173.4 85.0688C178.912 83.9239 181.668 83.3582 187.181 82.2385C185.577 84.7782 186.786 87.9456 189.881 89.3017C192.975 90.6588 196.784 89.6853 198.387 87.1446C199.867 84.7995 198.961 81.9004 196.285 80.4C201.76 79.3016 204.52 78.7534 209.959 77.6792C195.516 70.4706 181.102 63.2088 166.716 55.8879C165.689 55.3659 164.539 56.3316 164.875 57.4329C167.693 66.6523 170.541 75.862 173.4 85.0688Z" fill="#FFD37B"/>
<path d="M246.731 70.5031C246.749 70.4992 246.765 70.4963 246.785 70.4924C246.757 70.4662 246.73 70.4411 246.703 70.4149C246.712 70.4459 246.72 70.4721 246.731 70.5031Z" fill="#F3D084"/>
<path d="M273.907 35.0794C273.456 33.7698 271.77 33.4588 270.984 34.5999C266.107 41.6825 254.299 60.3131 246.943 70.4624C252.311 69.4191 255.072 68.8825 260.511 67.818C257.611 66.2023 256.829 62.9816 258.763 60.6201C260.698 58.2596 264.615 57.6736 267.515 59.3134C270.19 60.8274 271.096 63.7207 269.615 66.0289C275.128 64.9412 277.884 64.3929 283.396 63.2819C280.481 53.8979 277.2 44.6412 273.907 35.0794Z" fill="#FFD37B"/>
<path d="M246.727 70.5036C246.737 70.4746 246.734 70.4833 246.743 70.4533C243.539 67.4186 240.354 64.3625 237.182 61.293C235.331 59.5029 233.484 57.709 231.647 55.9045C228.353 52.6712 225.08 49.4176 221.835 46.1359C220.548 44.834 218.342 45.4385 217.901 47.2149C215.38 57.3778 212.76 67.5154 210.119 77.6473C215.594 76.5663 218.352 76.0268 223.846 74.9535C220.946 73.3282 220.163 70.1036 222.097 67.7518C224.031 65.4009 227.949 64.8285 230.849 66.4703C233.525 67.9852 234.43 70.8727 232.95 73.18C238.462 72.1087 241.218 71.574 246.727 70.5036Z" fill="#FFE7B8"/>
<path d="M195.895 60.4237C195.815 60.5312 195.735 60.6378 195.666 60.7482C195.736 60.6358 195.816 60.5302 195.895 60.4237Z" fill="#F1FEF5"/>
<path d="M195.659 60.7588C195.303 61.3293 195.087 61.9366 195.001 62.5507C195.089 61.9289 195.309 61.3216 195.659 60.7588Z" fill="#F1FEF5"/>
<path d="M197.673 58.8738C197.641 58.8922 197.61 58.9135 197.578 58.9329C197.61 58.9135 197.641 58.8922 197.673 58.8738Z" fill="#F1FEF5"/>
<path d="M199.766 58.1247C199.71 58.1353 199.657 58.1469 199.601 58.1586C199.656 58.1469 199.711 58.1353 199.766 58.1247Z" fill="#F1FEF5"/>
<path d="M198.813 68.0491C198.866 68.0684 198.919 68.0878 198.972 68.1062C198.919 68.0878 198.866 68.0684 198.813 68.0491Z" fill="#F1FEF5"/>
<path d="M195.94 65.9947C196.004 66.0799 196.075 66.1632 196.146 66.2465C196.075 66.1632 196.005 66.0809 195.94 65.9947Z" fill="#F1FEF5"/>
<path d="M195.634 65.5412C195.691 65.6342 195.752 65.7242 195.815 65.8153C195.752 65.7252 195.691 65.6351 195.634 65.5412Z" fill="#F1FEF5"/>
<path d="M202.018 58.0507C201.974 58.0459 201.93 58.0391 201.887 58.0342C201.93 58.0391 201.974 58.0459 202.018 58.0507Z" fill="#F1FEF5"/>
<path d="M196.701 66.8119C196.779 66.8816 196.861 66.9475 196.946 67.0133C196.862 66.9475 196.779 66.8816 196.701 66.8119Z" fill="#F1FEF5"/>
<path d="M194.976 63.5592C195.003 63.8537 195.062 64.1453 195.147 64.432C195.061 64.1433 195.002 63.8518 194.976 63.5592Z" fill="#F1FEF5"/>
<path d="M195.182 64.5492C195.218 64.6645 195.262 64.7769 195.309 64.8902C195.262 64.7778 195.219 64.6655 195.182 64.5492Z" fill="#F1FEF5"/>
<path d="M195.379 65.0579C195.427 65.1606 195.48 65.2623 195.535 65.363C195.48 65.2623 195.427 65.1615 195.379 65.0579Z" fill="#F1FEF5"/>
<path d="M197.154 67.175C197.235 67.2341 197.32 67.2903 197.405 67.3455C197.32 67.2903 197.236 67.2341 197.154 67.175Z" fill="#F1FEF5"/>
<path d="M238.683 50.8339C238.639 50.8281 238.596 50.8213 238.551 50.8165C238.596 50.8213 238.639 50.8281 238.683 50.8339Z" fill="#F1FEF5"/>
<path d="M236.433 50.901C236.376 50.9117 236.321 50.9233 236.265 50.9349C236.321 50.9233 236.376 50.9117 236.433 50.901Z" fill="#F1FEF5"/>
<path d="M234.339 51.6492C234.307 51.6685 234.276 51.6899 234.242 51.7092C234.276 51.6899 234.307 51.6685 234.339 51.6492Z" fill="#F1FEF5"/>
<path d="M235.351 51.1902C235.301 51.2086 235.253 51.2289 235.203 51.2483C235.252 51.2289 235.301 51.2086 235.351 51.1902Z" fill="#F1FEF5"/>
<path d="M239.794 51.0565C239.765 51.0488 239.735 51.0381 239.706 51.0304C239.735 51.0381 239.765 51.0488 239.794 51.0565Z" fill="#F1FEF5"/>
<path d="M246.865 70.5699C246.891 70.534 246.918 70.4982 246.944 70.4624C246.889 70.472 246.839 70.4817 246.785 70.4924C246.811 70.5185 246.839 70.5447 246.865 70.5699Z" fill="#F1FEF5"/>
<path d="M203.13 58.2684C203.099 58.2607 203.07 58.2491 203.04 58.2413C203.07 58.2491 203.099 58.2607 203.13 58.2684Z" fill="#F1FEF5"/>
<path d="M232.516 53.2685C232.464 53.3411 232.406 53.4157 232.363 53.4864C232.411 53.4109 232.464 53.3401 232.516 53.2685Z" fill="#F1FEF5"/>
<path d="M233.406 52.2968C233.416 52.289 233.424 52.2793 233.433 52.2716C233.424 52.2793 233.416 52.289 233.406 52.2968Z" fill="#F1FEF5"/>
<path d="M237.394 50.7871C237.447 50.7842 237.499 50.7832 237.552 50.7813C237.499 50.7832 237.447 50.7842 237.394 50.7871Z" fill="#F1FEF5"/>
<path d="M232.664 53.0589C232.68 53.0395 232.697 53.023 232.713 53.0046C232.702 53.0172 232.688 53.0259 232.68 53.0385C232.674 53.0453 232.67 53.0521 232.664 53.0589Z" fill="#F1FEF5"/>
<path d="M243.179 59.1194C243.018 59.317 242.828 59.4914 242.636 59.6657C242.819 59.5127 242.999 59.3383 243.179 59.1194Z" fill="#F1FEF5"/>
<path d="M232.187 53.8245C232.177 53.8458 232.164 53.869 232.155 53.8904C232.167 53.8681 232.175 53.8458 232.187 53.8245Z" fill="#F1FEF5"/>
<path d="M198.684 58.4158C198.635 58.4342 198.588 58.4535 198.54 58.4729C198.588 58.4535 198.635 58.4332 198.684 58.4158Z" fill="#F1FEF5"/>
<path d="M204.334 67.8682C204.501 67.7936 204.672 67.7258 204.831 67.6377C204.674 67.7248 204.501 67.7936 204.334 67.8682Z" fill="#F1FEF5"/>
<path d="M196.524 66.647C196.447 66.5715 196.369 66.4969 196.296 66.4184C196.369 66.4959 196.447 66.5715 196.524 66.647Z" fill="#F1FEF5"/>
<path d="M201.382 68.499C201.322 68.499 201.261 68.498 201.201 68.4971C201.261 68.498 201.322 68.499 201.382 68.499Z" fill="#F1FEF5"/>
<path d="M205.364 67.289C205.491 67.2008 205.625 67.1243 205.744 67.0265C205.626 67.1224 205.491 67.2008 205.364 67.289Z" fill="#F1FEF5"/>
<path d="M194.972 63.4831C194.95 63.1829 194.955 62.8826 194.995 62.5852C194.955 62.8845 194.95 63.1848 194.972 63.4831Z" fill="#F1FEF5"/>
<path d="M197.835 67.6046C197.775 67.5707 197.714 67.5387 197.654 67.5038C197.692 67.5251 197.725 67.5494 197.762 67.5707C197.785 67.5842 197.812 67.591 197.835 67.6046Z" fill="#F1FEF5"/>
<path d="M209.959 77.6793C210.004 77.7016 210.048 77.7239 210.094 77.7462C210.102 77.7132 210.109 77.6803 210.119 77.6474C210.101 77.6513 210.084 77.6551 210.065 77.658C210.029 77.6648 209.995 77.6716 209.959 77.6793Z" fill="#F1FEF5"/>
<path d="M200.729 58.0088C200.781 58.0059 200.834 58.0039 200.886 58.003C200.834 58.0039 200.782 58.0059 200.729 58.0088Z" fill="#F1FEF5"/>
<path d="M196.742 59.5175C196.751 59.5097 196.759 59.502 196.767 59.4952C196.759 59.502 196.751 59.5097 196.742 59.5175Z" fill="#F1FEF5"/>
<path d="M196 60.2776C196.014 60.2592 196.031 60.2427 196.046 60.2253C196.037 60.2369 196.023 60.2457 196.014 60.2573C196.009 60.2641 196.006 60.2708 196 60.2776Z" fill="#F1FEF5"/>
<path d="M202.4 68.4291C202.469 68.4194 202.537 68.4087 202.606 68.3971C202.537 68.4087 202.469 68.4194 202.4 68.4291Z" fill="#F1FEF5"/>
<path d="M199.99 68.3702C200.048 68.3809 200.104 68.3916 200.162 68.4012C200.105 68.3916 200.048 68.3809 199.99 68.3702Z" fill="#F1FEF5"/>
<path d="M203.238 68.2498C203.427 68.2014 203.616 68.1569 203.798 68.0929C203.618 68.1559 203.427 68.2014 203.238 68.2498Z" fill="#F1FEF5"/>
<path d="M239.503 61.2128C238.721 61.3639 237.938 61.3823 237.182 61.2932C240.34 64.3492 243.512 67.3927 246.704 70.4148C245.301 65.964 244.589 63.6935 243.179 59.1196C242.999 59.3385 242.819 59.5129 242.636 59.6659C241.807 60.4263 240.727 60.9746 239.503 61.2128Z" fill="#F1FEF5"/>
<path d="M195.181 64.5488C195.168 64.5101 195.158 64.4704 195.147 64.4316C195.151 64.4481 195.151 64.4646 195.156 64.4801C195.162 64.5043 195.174 64.5256 195.181 64.5488Z" fill="#F1FEF5"/>
<path d="M194.976 63.5593C194.974 63.5341 194.973 63.5089 194.971 63.4827C194.973 63.5089 194.974 63.5341 194.976 63.5593Z" fill="#F1FEF5"/>
<path d="M200.886 58.003C201.218 57.9913 201.553 58.001 201.887 58.034C201.552 58.001 201.218 57.9913 200.886 58.003Z" fill="#F1FEF5"/>
<path d="M204.167 58.6401C203.828 58.487 203.48 58.3669 203.13 58.2691C203.481 58.3669 203.829 58.487 204.167 58.6401Z" fill="#F1FEF5"/>
<path d="M198.972 68.1056C199.301 68.217 199.641 68.3051 199.99 68.37C199.646 68.3061 199.306 68.2179 198.972 68.1056Z" fill="#F1FEF5"/>
<path d="M195.535 65.363C195.567 65.4231 195.599 65.4831 195.634 65.5413C195.598 65.4831 195.567 65.4231 195.535 65.363Z" fill="#F1FEF5"/>
<path d="M196.046 60.2251C196.257 59.9684 196.488 59.7321 196.742 59.518C196.488 59.7321 196.256 59.9684 196.046 60.2251Z" fill="#F1FEF5"/>
<path d="M196.945 67.0138C197.014 67.0681 197.083 67.1233 197.154 67.1756C197.083 67.1223 197.013 67.0681 196.945 67.0138Z" fill="#F1FEF5"/>
<path d="M197.835 67.6044C198.145 67.7758 198.471 67.924 198.813 68.049C198.478 67.9259 198.151 67.7787 197.835 67.6044Z" fill="#F1FEF5"/>
<path d="M200.162 68.4013C200.503 68.4565 200.85 68.4875 201.2 68.4962C200.855 68.4875 200.507 68.4574 200.162 68.4013Z" fill="#F1FEF5"/>
<path d="M195.659 60.7587C195.662 60.7549 195.663 60.752 195.666 60.7481C195.665 60.7491 195.664 60.75 195.663 60.752C195.662 60.7539 195.661 60.7568 195.659 60.7587Z" fill="#F1FEF5"/>
<path d="M197.405 67.3459C197.487 67.4001 197.569 67.4524 197.655 67.5037C197.569 67.4524 197.486 67.3991 197.405 67.3459Z" fill="#F1FEF5"/>
<path d="M196.296 66.4182C196.243 66.3611 196.195 66.3039 196.147 66.2458C196.195 66.3039 196.243 66.3621 196.296 66.4182Z" fill="#F1FEF5"/>
<path d="M196 60.2779C195.963 60.3244 195.931 60.3758 195.895 60.4232C195.931 60.3758 195.962 60.3254 196 60.2779Z" fill="#F1FEF5"/>
<path d="M206.514 66.2644C206.285 66.5453 206.023 66.7961 205.743 67.0267C206.027 66.7942 206.287 66.5414 206.514 66.2644Z" fill="#F1FEF5"/>
<path d="M203.238 68.2501C203.028 68.3044 202.821 68.3625 202.606 68.3973C202.684 68.3848 202.761 68.377 202.838 68.3625C202.976 68.3344 203.103 68.285 203.238 68.2501Z" fill="#F1FEF5"/>
<path d="M195.814 65.8157C195.856 65.8757 195.896 65.9368 195.94 65.9949C195.895 65.9358 195.856 65.8757 195.814 65.8157Z" fill="#F1FEF5"/>
<path d="M203.799 68.0933C203.985 68.0284 204.157 67.9471 204.334 67.8686C204.157 67.9471 203.983 68.0294 203.799 68.0933Z" fill="#F1FEF5"/>
<path d="M195.308 64.8903C195.332 64.9465 195.354 65.0027 195.379 65.0579C195.354 65.0027 195.331 64.9465 195.308 64.8903Z" fill="#F1FEF5"/>
<path d="M204.831 67.6377C205.019 67.5341 205.19 67.4101 205.364 67.289C205.19 67.4101 205.018 67.5351 204.831 67.6377Z" fill="#F1FEF5"/>
<path d="M195.001 62.5509C195 62.5625 194.997 62.5742 194.995 62.5858C194.997 62.5742 195 62.5625 195.001 62.5509Z" fill="#F1FEF5"/>
<path d="M197.578 58.9325C197.291 59.1001 197.018 59.2851 196.768 59.4953C197.018 59.2851 197.292 59.1001 197.578 58.9325Z" fill="#F1FEF5"/>
<path d="M199.601 58.1588C199.288 58.2246 198.981 58.3099 198.685 58.4155C198.981 58.3099 199.288 58.2246 199.601 58.1588Z" fill="#F1FEF5"/>
<path d="M196.525 66.6472C196.584 66.7024 196.64 66.7586 196.701 66.8118C196.64 66.7586 196.584 66.7024 196.525 66.6472Z" fill="#F1FEF5"/>
<path d="M200.729 58.0088C200.404 58.0272 200.082 58.065 199.767 58.125C200.082 58.0659 200.404 58.0262 200.729 58.0088Z" fill="#F1FEF5"/>
<path d="M203.041 58.2419C202.703 58.1528 202.362 58.0918 202.018 58.0511C202.362 58.0918 202.704 58.1528 203.041 58.2419Z" fill="#F1FEF5"/>
<path d="M202.4 68.4295C202.064 68.475 201.725 68.4992 201.382 68.4992C201.719 68.4992 202.059 68.476 202.4 68.4295Z" fill="#F1FEF5"/>
<path d="M237.394 50.7871C237.069 50.8045 236.748 50.8423 236.433 50.9004C236.748 50.8423 237.069 50.8036 237.394 50.7871Z" fill="#F1FEF5"/>
<path d="M239.706 51.03C239.368 50.9379 239.026 50.8759 238.683 50.8333C239.026 50.8759 239.368 50.9389 239.706 51.03Z" fill="#F1FEF5"/>
<path d="M240.832 51.4355C240.493 51.2795 240.145 51.1565 239.794 51.0567C240.145 51.1565 240.494 51.2795 240.832 51.4355Z" fill="#F1FEF5"/>
<path d="M236.265 50.9351C235.953 51.001 235.647 51.0853 235.351 51.1908C235.647 51.0853 235.954 51.001 236.265 50.9351Z" fill="#F1FEF5"/>
<path d="M232.712 53.0049C232.922 52.7482 233.153 52.5109 233.406 52.2968C233.152 52.5119 232.922 52.7482 232.712 53.0049Z" fill="#F1FEF5"/>
<path d="M232.187 53.8248C232.236 53.7144 232.291 53.603 232.363 53.4867C232.352 53.5032 232.339 53.5187 232.328 53.5352C232.27 53.6282 232.238 53.7289 232.187 53.8248Z" fill="#F1FEF5"/>
<path d="M232.664 53.059C232.611 53.1258 232.565 53.1984 232.516 53.2682C232.565 53.1994 232.607 53.1306 232.664 53.059Z" fill="#F1FEF5"/>
<path d="M235.203 51.2482C234.904 51.3625 234.614 51.4943 234.339 51.6492C234.615 51.4943 234.904 51.3625 235.203 51.2482Z" fill="#F1FEF5"/>
<path d="M234.242 51.7093C233.956 51.8769 233.684 52.0619 233.433 52.2721C233.684 52.0619 233.956 51.8769 234.242 51.7093Z" fill="#F1FEF5"/>
<path d="M263.767 23.0024C264.703 26.4808 268.406 28.5527 272.039 27.7439C275.67 26.9351 277.856 23.51 276.92 19.9755C275.983 16.441 272.28 14.1753 268.648 15.0413C265.016 15.9072 262.83 19.5251 263.767 23.0024Z" fill="#FFE7B8"/>
<path d="M208.075 34.1758C209.171 38.0416 213.502 40.3838 217.749 39.5188C221.998 38.6538 224.555 34.8781 223.459 30.9639C222.365 27.0487 218.033 24.5099 213.785 25.4224C209.537 26.3358 206.98 30.3091 208.075 34.1758Z" fill="#FFD37B"/>
<path d="M154.292 45.8436C155.387 49.5515 159.719 51.7513 163.967 50.8446C168.215 49.938 170.772 46.2407 169.677 42.4892C168.581 38.7368 164.249 36.3782 160.002 37.3284C155.754 38.2786 153.197 42.1357 154.292 45.8436Z" fill="#FFE7B8"/>
<path d="M147.024 85.4835C146.004 88.5182 147.639 91.8048 150.674 92.8247C152.027 93.279 153.5 93.218 154.812 92.6523L151.607 102.206C151.08 103.777 151.926 105.478 153.498 106.005L159.731 108.096C161.072 108.546 162.448 107.63 162.617 106.226C162.854 104.263 164.089 102.474 166.021 101.616C168.819 100.374 172.259 101.63 173.592 104.385C174.458 106.176 174.324 108.194 173.404 109.801C172.693 111.044 173.205 112.616 174.562 113.071L180.792 115.161C182.363 115.688 184.063 114.843 184.59 113.271L187.055 105.92C187.344 105.059 186.697 104.139 185.791 104.185C183.463 104.301 181.2 102.996 180.202 100.745C178.96 97.9478 180.215 94.5072 182.97 93.1734C185.084 92.1506 187.513 92.5215 189.211 93.9338C189.914 94.5198 190.986 94.2021 191.275 93.3342C191.964 91.2817 192.996 88.2053 193.747 85.9668C194.274 84.3957 193.425 82.7006 191.854 82.1737L182.303 78.9695C185.067 77.3974 186.048 73.8958 184.511 71.1197C183.028 68.4424 179.527 67.3692 176.802 68.763C174.068 70.1627 172.91 73.428 174.113 76.2215L164.56 73.0173C162.99 72.4903 161.29 73.3369 160.764 74.908L157.559 84.4606C155.978 81.6778 152.439 80.7033 149.656 82.2851C148.415 82.9902 147.477 84.1294 147.024 85.4835Z" fill="#DF9F1C"/>
<path d="M110.142 82.0145C114.048 82.4697 117.169 85.4851 117.742 89.376C119.199 99.2657 121.008 117.436 115.884 123.777C108.703 132.663 85.8853 134.863 85.8853 134.863C85.8853 134.863 76.7468 122.79 97.9156 116.637L101.102 100.315L108.939 81.874L110.142 82.0145Z" fill="#F9953B"/>
<path d="M124.458 87.5785L126.825 117.853C127.067 120.935 125.451 123.864 122.717 125.306L99.5708 137.502C99.5708 137.502 85.5813 125.154 108.184 115.806C109.441 115.286 109.991 113.823 109.438 112.581C108.645 110.797 107.807 108.17 108.105 105.462C108.209 104.526 107.237 103.831 106.375 104.212C103.461 105.501 97.9709 107.25 90.6164 106.561C89.5637 106.463 88.7986 105.513 88.9061 104.461C89.0746 102.818 89.3274 100.355 89.552 98.1588C89.8842 94.9188 90.6299 91.7359 91.7708 88.6857C92.2812 87.3199 93.4143 86.2825 94.8186 85.8921L102.82 83.6701L115.083 80.7497C119.64 79.6648 124.091 82.9059 124.458 87.5785Z" fill="#FFB490"/>
<path d="M-81.8619 170.15L24.9834 135.793C26.532 135.295 27.8733 134.304 28.805 132.972L70.5101 73.278C73.2654 69.3337 77.4356 66.6051 82.153 65.6597C92.8091 63.5248 123.862 57.2394 129.579 57.1739C135.297 57.1087 162.379 62.501 166.149 62.9146C174.868 63.8706 176.626 71.5044 167.175 75.6598C155.503 80.7906 138.775 71.4589 134.654 72.5796C134.036 72.7471 133.448 72.9922 132.893 73.3138C129.121 75.499 112.509 85.3035 100.269 88.1067C98.2993 88.5571 96.6016 89.7766 95.5557 91.5046C91.4968 98.2162 83.6319 115.241 100.009 126.2C101.799 127.398 104.026 127.739 106.103 127.169C107.505 126.785 109.278 126.139 111.348 125.056C116.786 122.211 122.236 121.81 128.053 119.528C133.87 117.245 146.399 103.088 158.056 103.411C158.173 103.415 158.288 103.418 158.402 103.424C165.986 103.757 171.399 112.604 164.673 116.122C157.81 119.711 144.25 127.779 133.201 135.673C113.397 149.824 94.0342 179.115 49.5486 175.94C49.3539 175.925 49.1583 175.894 48.9646 175.862C48.2421 175.744 45.4742 175.678 38.2843 179.158C30.6296 182.863 -44.1866 221.499 -60.9682 230.169C-63.1366 231.289 -65.7156 231.28 -67.8656 230.125C-78.5904 224.358 -108.44 204.596 -85.6157 172.871C-84.6918 171.586 -83.3689 170.635 -81.8619 170.15Z" fill="#FFDAB8"/>
<path d="M110.416 147.339C110.416 147.339 85.506 167.38 63.33 168.422C41.153 169.462 40.0296 170.22 24.2775 178.375C8.52437 186.53 -67.7851 229.743 -67.7851 229.743L-68.1338 229.978C-68.0457 230.026 -67.9556 230.076 -67.8694 230.121C-65.7175 231.279 -63.1346 231.288 -60.9642 230.167C-44.1739 221.493 30.6306 182.861 38.2844 179.157C45.4743 175.678 48.2422 175.744 48.9647 175.862C49.1584 175.894 49.354 175.926 49.5487 175.939C94.0343 179.114 113.397 149.823 133.201 135.672C144.25 127.778 157.81 119.711 164.672 116.122C166.094 115.379 167.112 114.337 167.768 113.154C167.768 113.154 151.412 109.927 110.416 147.339Z" fill="#FFB490"/>
<path d="M90.606 131.261C90.606 131.261 94.9079 126.728 100.894 127.574C104.419 128.072 107.924 126.456 111.222 125.113C114.316 123.853 118.627 122.265 123.713 120.847C126.018 120.203 128.263 119.354 130.393 118.262C133.641 116.594 138.448 111.303 151.011 104.477" stroke="#FFB490" stroke-width="1.4" stroke-linecap="round" stroke-linejoin="round"/>
<path d="M89.8438 87.6465C95.304 89.6893 97.9343 89.0888 97.9343 89.0888" stroke="#FFB490" stroke-width="1.4" stroke-linecap="round" stroke-linejoin="round"/>
<mask id="mask1_5567_157558" style="mask-type:alpha" maskUnits="userSpaceOnUse" x="25" y="-16" width="50" height="50">
<path fill-rule="evenodd" clip-rule="evenodd" d="M25.4971 -15.1377H74.4599V33.8329H25.4971V-15.1377Z" fill="white"/>
</mask>
<g mask="url(#mask1_5567_157558)">
<path d="M42.2971 12.5462C43.622 15.7271 42.1179 19.3808 38.9375 20.7068C37.5196 21.2977 35.9333 21.3442 34.4825 20.8386L39.8924 33.8327L74.4599 19.435L60.0656 -15.1382L47.0736 -9.72743C50.1833 -8.24059 51.4985 -4.51428 50.0129 -1.40401C48.5263 1.70625 44.7996 3.02261 41.6899 1.53577C38.8203 0.163223 37.4412 -3.14851 38.4891 -6.15223L25.4971 -0.741474L30.9069 12.2527C32.3926 9.14337 36.1183 7.82701 39.227 9.31385C40.6139 9.97639 41.7073 11.1271 42.2971 12.5462Z" fill="#84D7CC"/>
</g>
<path d="M-4.98603 70.7534C-2.00896 72.4883 1.81165 71.4799 3.54521 68.5014C4.31805 67.1734 4.57469 65.6071 4.26478 64.1009L16.4268 71.1816L23.5063 59.0156C24.5697 62.2954 28.0881 64.0922 31.3674 63.0286C34.6466 61.9661 36.4421 58.4461 35.3807 55.1673C34.3996 52.1403 31.2996 50.3357 28.184 50.9779L35.2635 38.813L2.90021 19.9741L-4.1793 32.1401C-5.24267 28.8603 -8.76112 27.0635 -12.0404 28.1271C-15.3196 29.1896 -17.1151 32.7096 -16.0527 35.9884C-15.0717 39.0154 -11.9726 40.82 -8.857 40.1778L-15.9355 52.3427L-3.77254 59.4234C-7.05081 60.485 -8.84635 64.0041 -7.7849 67.2829C-7.31036 68.7445 -6.31477 69.9805 -4.98603 70.7534Z" fill="#BBF0D3"/>
<path d="M297.189 181.795C299.991 183.427 303.585 182.478 305.216 179.675C305.944 178.426 306.184 176.952 305.893 175.536L317.337 182.198L323.997 170.751C324.998 173.836 328.309 175.528 331.394 174.527C334.479 173.526 336.169 170.215 335.17 167.13C334.247 164.282 331.33 162.584 328.399 163.188L335.059 151.742L304.609 134.018L297.949 145.463C296.948 142.378 293.637 140.688 290.551 141.688C287.467 142.687 285.777 146 286.776 149.085C287.699 151.933 290.616 153.631 293.547 153.026L286.887 164.473L298.331 171.134C295.246 172.134 293.557 175.444 294.556 178.529C295.001 179.905 295.94 181.068 297.189 181.795Z" fill="#BBF0D3"/>
</g>
<path d="M127.055 21.5602L124.581 26.0827L120.06 28.555C119.313 28.9642 119.313 30.0358 120.06 30.445L124.581 32.9173L127.055 37.4398C127.462 38.1867 128.536 38.1867 128.943 37.4398L131.417 32.9173L135.94 30.445C136.687 30.0358 136.687 28.9642 135.94 28.555L131.417 26.0827L128.943 21.5602C128.536 20.8133 127.462 20.8133 127.055 21.5602Z" fill="#FFC54F"/>
<path d="M300.5 50.2966L299.19 52.6908L296.797 53.9997C296.401 54.2163 296.401 54.7837 296.797 55.0003L299.19 56.3092L300.5 58.7034C300.715 59.0989 301.284 59.0989 301.499 58.7034L302.809 56.3092L305.203 55.0003C305.599 54.7837 305.599 54.2163 305.203 53.9997L302.809 52.6908L301.499 50.2966C301.284 49.9011 300.715 49.9011 300.5 50.2966Z" fill="#FFD37B"/>
<path d="M163.5 140.297L162.19 142.691L159.797 144C159.401 144.216 159.401 144.784 159.797 145L162.19 146.309L163.5 148.703C163.715 149.099 164.284 149.099 164.499 148.703L165.809 146.309L168.203 145C168.599 144.784 168.599 144.216 168.203 144L165.809 142.691L164.499 140.297C164.284 139.901 163.715 139.901 163.5 140.297Z" fill="#FFD37B"/>
</svg>
