<svg width="328" height="165" viewBox="0 0 328 165" fill="none" xmlns="http://www.w3.org/2000/svg">
<path fill-rule="evenodd" clip-rule="evenodd" d="M23.357 160.854C33.8085 162.999 264.948 165.139 301.735 160.854C312.625 159.586 321.342 147.741 322.614 145.686C330.566 132.833 327.584 53.5663 325.596 26.7867C324.526 12.3743 309.689 5.89879 302.729 3.7566C289.419 -0.340246 53.3878 -0.504674 22.362 4.82816C8.4809 7.21329 3.44895 18.4646 2.44995 24.7184C0.119292 39.2962 -1.25833 128.959 2.47792 141.038C5.46093 150.678 12.9174 158.712 23.357 160.854Z" fill="#F1F8EC"/>
<mask id="mask0_5567_147021" style="mask-type:alpha" maskUnits="userSpaceOnUse" x="0" y="0" width="328" height="164">
<path fill-rule="evenodd" clip-rule="evenodd" d="M23.357 160.854C33.8085 162.999 264.948 165.139 301.735 160.854C312.625 159.586 321.342 147.741 322.614 145.686C330.566 132.833 327.584 53.5663 325.596 26.7867C324.526 12.3743 309.689 5.89879 302.729 3.7566C289.419 -0.340246 53.3878 -0.504674 22.362 4.82816C8.4809 7.21329 3.44895 18.4646 2.44995 24.7184C0.119292 39.2962 -1.25833 128.959 2.47792 141.038C5.46093 150.678 12.9174 158.712 23.357 160.854Z" fill="white"/>
</mask>
<g mask="url(#mask0_5567_147021)">
<path d="M-11.8386 109.248L75.6614 69.748L124.661 91.248L211.161 33.748L261.161 69.748L298.161 49.748L339.661 81.748" stroke="#F2CBA8" stroke-width="2" stroke-linecap="round"/>
<path fill-rule="evenodd" clip-rule="evenodd" d="M232.816 119.803L231.217 122.722L228.295 124.318C227.812 124.582 227.812 125.274 228.295 125.538L231.217 127.133L232.816 130.052C233.079 130.534 233.773 130.534 234.037 130.052L235.636 127.133L238.559 125.538C239.042 125.274 239.042 124.582 238.559 124.318L235.636 122.722L234.037 119.803C233.773 119.321 233.079 119.321 232.816 119.803Z" fill="#FFD37B"/>
<path fill-rule="evenodd" clip-rule="evenodd" d="M95.2876 113.918L93.2518 117.632L89.5329 119.663C88.9184 119.999 88.9184 120.88 89.5329 121.216L93.2518 123.247L95.2876 126.961C95.6224 127.575 96.5058 127.575 96.8407 126.961L98.8764 123.247L102.597 121.216C103.212 120.88 103.212 119.999 102.597 119.663L98.8764 117.632L96.8407 113.918C96.5058 113.304 95.6224 113.304 95.2876 113.918Z" fill="#CC9D3F"/>
<path fill-rule="evenodd" clip-rule="evenodd" d="M125.369 18.0985L123.624 21.2827L120.436 23.0233C119.909 23.3114 119.909 24.0659 120.436 24.354L123.624 26.0947L125.369 29.2788C125.656 29.8047 126.413 29.8047 126.7 29.2788L128.445 26.0947L131.634 24.354C132.161 24.0659 132.161 23.3114 131.634 23.0233L128.445 21.2827L126.7 18.0985C126.413 17.5726 125.656 17.5726 125.369 18.0985Z" fill="#FFD37B"/>
<path fill-rule="evenodd" clip-rule="evenodd" d="M143.536 172.918C139.082 173.432 85.1746 173.432 80.7241 172.918C78.3797 172.648 76.7501 170.741 77.1426 168.694C77.6648 165.993 78.7056 161.403 80.8047 153.873C83.2717 145.014 85.0099 140.809 86.0191 138.849C86.5728 137.775 87.6556 137.002 88.9733 136.771C91.7838 136.274 132.473 136.274 135.283 136.771C136.601 137.002 137.684 137.775 138.237 138.849C139.247 140.809 140.985 145.014 143.452 153.873C145.551 161.403 146.595 165.993 147.114 168.694C147.506 170.741 145.877 172.648 143.536 172.918Z" fill="#CC9D3F"/>
<mask id="mask1_5567_147021" style="mask-type:alpha" maskUnits="userSpaceOnUse" x="77" y="136" width="71" height="38">
<path fill-rule="evenodd" clip-rule="evenodd" d="M143.536 172.918C139.082 173.432 85.1746 173.432 80.7241 172.918C78.3797 172.648 76.7501 170.741 77.1426 168.694C77.6648 165.993 78.7056 161.403 80.8047 153.873C83.2717 145.014 85.0099 140.809 86.0191 138.849C86.5728 137.775 87.6556 137.002 88.9733 136.771C91.7838 136.274 132.473 136.274 135.283 136.771C136.601 137.002 137.684 137.775 138.237 138.849C139.247 140.809 140.985 145.014 143.452 153.873C145.551 161.403 146.595 165.993 147.114 168.694C147.506 170.741 145.877 172.648 143.536 172.918Z" fill="white"/>
</mask>
<g mask="url(#mask1_5567_147021)">
<path fill-rule="evenodd" clip-rule="evenodd" d="M131.854 169.03C127.4 169.544 73.4932 169.544 69.0427 169.03C66.6983 168.76 65.0687 166.854 65.4612 164.807C65.9834 162.106 67.0242 157.515 69.1233 149.986C71.5903 141.127 73.3285 136.921 74.3377 134.962C74.8914 133.888 75.9742 133.114 77.2919 132.883C80.1024 132.387 120.791 132.387 123.602 132.883C124.919 133.114 126.002 133.888 126.556 134.962C127.565 136.921 129.303 141.127 131.77 149.986C133.869 157.515 134.914 162.106 135.432 164.807C135.825 166.854 134.195 168.76 131.854 169.03Z" fill="#FFD37B"/>
</g>
<path fill-rule="evenodd" clip-rule="evenodd" d="M69.6101 187.878C65.156 188.393 11.2488 188.393 6.79828 187.878C4.45387 187.609 2.82435 185.702 3.21684 183.655C3.73899 180.954 4.77978 176.364 6.87887 168.834C9.34593 159.975 11.0841 155.77 12.0933 153.81C12.647 152.736 13.7299 151.963 15.0475 151.732C17.858 151.235 58.5469 151.235 61.3573 151.732C62.675 151.963 63.7578 152.736 64.3115 153.81C65.3207 155.77 67.0589 159.975 69.5259 168.834C71.625 176.364 72.6693 180.954 73.188 183.655C73.5805 185.702 71.951 187.609 69.6101 187.878Z" fill="#EDB647"/>
<mask id="mask2_5567_147021" style="mask-type:alpha" maskUnits="userSpaceOnUse" x="3" y="151" width="71" height="38">
<path fill-rule="evenodd" clip-rule="evenodd" d="M69.6101 187.878C65.156 188.393 11.2488 188.393 6.79828 187.878C4.45387 187.609 2.82435 185.702 3.21684 183.655C3.73899 180.954 4.77978 176.364 6.87887 168.834C9.34593 159.975 11.0841 155.77 12.0933 153.81C12.647 152.736 13.7299 151.963 15.0475 151.732C17.858 151.235 58.5469 151.235 61.3573 151.732C62.675 151.963 63.7578 152.736 64.3115 153.81C65.3207 155.77 67.0589 159.975 69.5259 168.834C71.625 176.364 72.6693 180.954 73.188 183.655C73.5805 185.702 71.951 187.609 69.6101 187.878Z" fill="white"/>
</mask>
<g mask="url(#mask2_5567_147021)">
<path fill-rule="evenodd" clip-rule="evenodd" d="M57.9287 183.991C53.4746 184.505 -0.43261 184.505 -4.88312 183.991C-7.22752 183.721 -8.85704 181.814 -8.46456 179.768C-7.94241 177.067 -6.90162 172.476 -4.80252 164.947C-2.33547 156.088 -0.597313 151.882 0.411937 149.923C0.965622 148.848 2.04846 148.075 3.36609 147.844C6.17657 147.347 46.8655 147.347 49.6759 147.844C50.9936 148.075 52.0764 148.848 52.6301 149.923C53.6393 151.882 55.3775 156.088 57.8446 164.947C59.9437 172.476 60.9879 177.067 61.5066 179.768C61.8991 181.814 60.2696 183.721 57.9287 183.991Z" fill="#FFD37B"/>
</g>
<path fill-rule="evenodd" clip-rule="evenodd" d="M55.624 147.981C51.17 148.496 -2.7373 148.496 -7.18781 147.981C-9.53221 147.712 -11.1617 145.805 -10.7692 143.758C-10.2471 141.057 -9.20631 136.467 -7.10721 128.937C-4.64015 120.078 -2.902 115.873 -1.89275 113.913C-1.33907 112.839 -0.256227 112.066 1.06141 111.835C3.87189 111.338 44.5608 111.338 47.3712 111.835C48.6889 112.066 49.7717 112.839 50.3254 113.913C51.3347 115.873 53.0728 120.078 55.5399 128.937C57.639 136.467 58.6833 141.057 59.2019 143.758C59.5944 145.805 57.9649 147.712 55.624 147.981Z" fill="#EDB647"/>
<mask id="mask3_5567_147021" style="mask-type:alpha" maskUnits="userSpaceOnUse" x="-11" y="111" width="71" height="38">
<path fill-rule="evenodd" clip-rule="evenodd" d="M55.624 147.981C51.17 148.496 -2.7373 148.496 -7.18781 147.981C-9.53221 147.712 -11.1617 145.805 -10.7692 143.758C-10.2471 141.057 -9.20631 136.467 -7.10721 128.937C-4.64015 120.078 -2.902 115.873 -1.89275 113.913C-1.33907 112.839 -0.256227 112.066 1.06141 111.835C3.87189 111.338 44.5608 111.338 47.3712 111.835C48.6889 112.066 49.7717 112.839 50.3254 113.913C51.3347 115.873 53.0728 120.078 55.5399 128.937C57.639 136.467 58.6833 141.057 59.2019 143.758C59.5944 145.805 57.9649 147.712 55.624 147.981Z" fill="white"/>
</mask>
<g mask="url(#mask3_5567_147021)">
<path fill-rule="evenodd" clip-rule="evenodd" d="M43.9426 144.094C39.4886 144.608 -14.4187 144.608 -18.8692 144.094C-21.2136 143.824 -22.8431 141.918 -22.4506 139.871C-21.9285 137.17 -20.8877 132.579 -18.7886 125.05C-16.3216 116.191 -14.5834 111.985 -13.5741 110.026C-13.0205 108.951 -11.9376 108.178 -10.62 107.947C-7.80951 107.45 32.8794 107.45 35.6899 107.947C37.0075 108.178 38.0903 108.951 38.644 110.026C39.6533 111.985 41.3914 116.191 43.8585 125.05C45.9576 132.579 47.0019 137.17 47.5205 139.871C47.913 141.918 46.2835 143.824 43.9426 144.094Z" fill="#FFD37B"/>
</g>
<path fill-rule="evenodd" clip-rule="evenodd" d="M238.44 181.894C233.986 182.408 180.079 182.408 175.629 181.894C173.284 181.625 171.655 179.718 172.047 177.671C172.569 174.97 173.61 170.379 175.709 162.85C178.176 153.991 179.914 149.785 180.924 147.826C181.477 146.752 182.56 145.979 183.878 145.748C186.688 145.251 227.377 145.251 230.188 145.748C231.505 145.979 232.588 146.752 233.142 147.826C234.151 149.785 235.889 153.991 238.356 162.85C240.455 170.379 241.5 174.97 242.018 177.671C242.411 179.718 240.781 181.625 238.44 181.894Z" fill="#EDB647"/>
<mask id="mask4_5567_147021" style="mask-type:alpha" maskUnits="userSpaceOnUse" x="171" y="145" width="72" height="38">
<path fill-rule="evenodd" clip-rule="evenodd" d="M238.44 181.894C233.986 182.408 180.079 182.408 175.629 181.894C173.284 181.625 171.655 179.718 172.047 177.671C172.569 174.97 173.61 170.379 175.709 162.85C178.176 153.991 179.914 149.785 180.924 147.826C181.477 146.752 182.56 145.979 183.878 145.748C186.688 145.251 227.377 145.251 230.188 145.748C231.505 145.979 232.588 146.752 233.142 147.826C234.151 149.785 235.889 153.991 238.356 162.85C240.455 170.379 241.5 174.97 242.018 177.671C242.411 179.718 240.781 181.625 238.44 181.894Z" fill="white"/>
</mask>
<g mask="url(#mask4_5567_147021)">
<path fill-rule="evenodd" clip-rule="evenodd" d="M226.759 178.006C222.305 178.521 168.398 178.521 163.947 178.006C161.603 177.737 159.973 175.83 160.366 173.783C160.888 171.082 161.929 166.492 164.028 158.962C166.495 150.103 168.233 145.898 169.242 143.938C169.796 142.864 170.879 142.091 172.196 141.86C175.007 141.363 215.696 141.363 218.506 141.86C219.824 142.091 220.907 142.864 221.46 143.938C222.47 145.898 224.208 150.103 226.675 158.962C228.774 166.492 229.818 171.082 230.337 173.783C230.729 175.83 229.1 177.737 226.759 178.006Z" fill="#FFD37B"/>
</g>
<path fill-rule="evenodd" clip-rule="evenodd" d="M325.533 190.777C319.996 191.417 252.976 191.417 247.443 190.777C244.528 190.442 242.502 188.071 242.99 185.527C243.639 182.169 244.933 176.462 247.543 167.101C250.61 156.087 252.771 150.858 254.026 148.422C254.714 147.087 256.061 146.125 257.699 145.838C261.193 145.221 311.779 145.221 315.273 145.838C316.911 146.125 318.257 147.087 318.946 148.422C320.201 150.858 322.362 156.087 325.429 167.101C328.038 176.462 329.337 182.169 329.981 185.527C330.469 188.071 328.444 190.442 325.533 190.777Z" fill="#EDB647"/>
<mask id="mask5_5567_147021" style="mask-type:alpha" maskUnits="userSpaceOnUse" x="242" y="145" width="89" height="47">
<path fill-rule="evenodd" clip-rule="evenodd" d="M325.533 190.777C319.996 191.417 252.976 191.417 247.443 190.777C244.528 190.442 242.502 188.071 242.99 185.527C243.639 182.169 244.933 176.462 247.543 167.101C250.61 156.087 252.771 150.858 254.026 148.422C254.714 147.087 256.061 146.125 257.699 145.838C261.193 145.221 311.779 145.221 315.273 145.838C316.911 146.125 318.257 147.087 318.946 148.422C320.201 150.858 322.362 156.087 325.429 167.101C328.038 176.462 329.337 182.169 329.981 185.527C330.469 188.071 328.444 190.442 325.533 190.777Z" fill="white"/>
</mask>
<g mask="url(#mask5_5567_147021)">
<path fill-rule="evenodd" clip-rule="evenodd" d="M311.011 185.944C305.473 186.583 238.453 186.583 232.92 185.944C230.006 185.609 227.98 183.238 228.468 180.693C229.117 177.335 230.411 171.628 233.02 162.267C236.088 151.253 238.249 146.025 239.503 143.589C240.192 142.253 241.538 141.292 243.176 141.005C246.67 140.387 297.256 140.387 300.75 141.005C302.389 141.292 303.735 142.253 304.423 143.589C305.678 146.025 307.839 151.253 310.906 162.267C313.516 171.628 314.814 177.335 315.459 180.693C315.947 183.238 313.921 185.609 311.011 185.944Z" fill="#FFD37B"/>
</g>
<path fill-rule="evenodd" clip-rule="evenodd" d="M320.358 141C315.904 141.514 261.997 141.514 257.547 141C255.202 140.73 253.573 138.823 253.965 136.776C254.487 134.075 255.528 129.485 257.627 121.955C260.094 113.096 261.832 108.891 262.842 106.931C263.395 105.857 264.478 105.084 265.796 104.853C268.606 104.356 309.295 104.356 312.106 104.853C313.423 105.084 314.506 105.857 315.06 106.931C316.069 108.891 317.807 113.096 320.274 121.955C322.373 129.485 323.418 134.075 323.936 136.776C324.329 138.823 322.699 140.73 320.358 141Z" fill="#EDB647"/>
<mask id="mask6_5567_147021" style="mask-type:alpha" maskUnits="userSpaceOnUse" x="253" y="104" width="71" height="38">
<path fill-rule="evenodd" clip-rule="evenodd" d="M320.358 141C315.904 141.514 261.997 141.514 257.547 141C255.202 140.73 253.573 138.823 253.965 136.776C254.487 134.075 255.528 129.485 257.627 121.955C260.094 113.096 261.832 108.891 262.842 106.931C263.395 105.857 264.478 105.084 265.796 104.853C268.606 104.356 309.295 104.356 312.106 104.853C313.423 105.084 314.506 105.857 315.06 106.931C316.069 108.891 317.807 113.096 320.274 121.955C322.373 129.485 323.418 134.075 323.936 136.776C324.329 138.823 322.699 140.73 320.358 141Z" fill="white"/>
</mask>
<g mask="url(#mask6_5567_147021)">
<path fill-rule="evenodd" clip-rule="evenodd" d="M308.677 137.112C304.223 137.626 250.316 137.626 245.865 137.112C243.521 136.842 241.891 134.936 242.284 132.889C242.806 130.188 243.847 125.597 245.946 118.068C248.413 109.209 250.151 105.003 251.16 103.044C251.714 101.97 252.797 101.196 254.114 100.965C256.925 100.469 297.614 100.469 300.424 100.965C301.742 101.196 302.825 101.97 303.378 103.044C304.388 105.003 306.126 109.209 308.593 118.068C310.692 125.597 311.736 130.188 312.255 132.889C312.647 134.936 311.018 136.842 308.677 137.112Z" fill="#FFD37B"/>
</g>
<mask id="mask7_5567_147021" style="mask-type:alpha" maskUnits="userSpaceOnUse" x="127" y="33" width="69" height="111">
<path fill-rule="evenodd" clip-rule="evenodd" d="M174.866 33.8268L134.788 38.9277C134.769 38.9304 134.749 38.9331 134.728 38.9365C130.197 39.5525 127.099 44.3387 127.803 49.6589L138.855 134.678C139.471 139.411 143.41 142.917 148.047 143.185L148.131 143.19C148.708 143.218 149.296 143.196 149.889 143.121L186.935 138.404C191.704 137.797 195.237 133.908 195.523 129.323L195.532 129.156C195.557 128.599 195.534 128.032 195.46 127.46L184.408 42.4542C183.749 37.4663 179.986 33.7686 175.777 33.7686C175.475 33.7686 175.171 33.7875 174.866 33.8268Z" fill="white"/>
</mask>
<g mask="url(#mask7_5567_147021)">
<path d="M124.349 26.5293L205.284 30.8437L198.892 150.383L117.957 146.068L124.349 26.5293Z" fill="#252528"/>
</g>
<mask id="mask8_5567_147021" style="mask-type:alpha" maskUnits="userSpaceOnUse" x="130" y="33" width="68" height="111">
<path fill-rule="evenodd" clip-rule="evenodd" d="M177.369 33.7213L137.459 38.8378C137.438 38.8405 137.418 38.8446 137.399 38.8466C132.886 39.4653 129.802 44.2677 130.502 49.6076L141.513 134.934C142.207 140.304 147.126 144.099 152.502 143.408L189.392 138.676C194.774 137.986 198.575 133.068 197.881 127.693L186.872 42.3792C186.215 37.3744 182.465 33.6631 178.275 33.6631C177.974 33.6631 177.672 33.682 177.369 33.7213Z" fill="white"/>
</mask>
<g mask="url(#mask8_5567_147021)">
<path d="M127.051 26.4351L207.724 30.7353L201.311 150.659L120.638 146.359L127.051 26.4351Z" fill="#58585B"/>
</g>
<mask id="mask9_5567_147021" style="mask-type:alpha" maskUnits="userSpaceOnUse" x="134" y="39" width="61" height="101">
<path fill-rule="evenodd" clip-rule="evenodd" d="M177.663 39.0774L171.268 39.9086C170.449 40.0149 169.713 39.9891 169.645 41.0214L169.57 42.17C169.505 43.2036 168.881 44.003 168.06 44.11L149.875 46.4716C149.055 46.5772 148.249 45.9632 147.921 44.9818L147.557 43.89C147.26 43.0019 146.664 43.0885 145.947 43.1928C145.871 43.2043 145.793 43.2158 145.715 43.2253L139.319 44.0538C139.307 44.0558 139.294 44.0578 139.282 44.0592C136.344 44.4667 134.361 47.801 134.842 51.5278L145.311 133.378C145.843 137.527 149.606 140.456 153.722 139.92L187.854 135.49C191.978 134.953 194.891 131.146 194.361 126.992L183.894 45.1591C183.441 41.6522 180.963 39.0415 178.22 39.0415C178.036 39.0415 177.85 39.053 177.663 39.0774Z" fill="white"/>
</mask>
<g mask="url(#mask9_5567_147021)">
<path d="M131.245 32.0439L203.851 35.9143L197.917 146.889L125.311 143.019L131.245 32.0439Z" fill="white"/>
</g>
<mask id="mask10_5567_147021" style="mask-type:alpha" maskUnits="userSpaceOnUse" x="187" y="53" width="4" height="10">
<path fill-rule="evenodd" clip-rule="evenodd" d="M188.862 53.0767L187.644 53.231L188.938 62.9415L190.155 62.7892C190.537 62.7391 190.808 62.3939 190.757 62.0203L189.646 53.6703C189.599 53.3238 189.298 53.0713 188.951 53.0713C188.921 53.0713 188.892 53.0726 188.862 53.0767Z" fill="white"/>
</mask>
<g mask="url(#mask10_5567_147021)">
<path d="M183.413 48.2871L195.963 48.9559L194.957 67.75L182.409 67.0813L183.413 48.2871Z" fill="#252528"/>
</g>
<mask id="mask11_5567_147021" style="mask-type:alpha" maskUnits="userSpaceOnUse" x="189" y="64" width="4" height="10">
<path fill-rule="evenodd" clip-rule="evenodd" d="M190.485 64.4994C190.482 64.4994 190.481 64.4994 190.478 64.5L189.385 64.6347L190.403 73.361L191.496 73.227C191.841 73.185 192.086 72.8771 192.045 72.5386L191.172 65.0361C191.137 64.7248 190.868 64.4946 190.557 64.4946C190.533 64.4946 190.509 64.496 190.485 64.4994Z" fill="white"/>
</mask>
<g mask="url(#mask11_5567_147021)">
<path d="M193.56 59.1313L182.798 62.4711L187.816 78.5882L198.577 75.2485L193.56 59.1313Z" fill="#252528"/>
</g>
<mask id="mask12_5567_147021" style="mask-type:alpha" maskUnits="userSpaceOnUse" x="151" y="38" width="11" height="5">
<path fill-rule="evenodd" clip-rule="evenodd" d="M160.338 38.9956L152.229 40.0996C152.228 40.0996 152.224 40.1003 152.223 40.101C151.734 40.1707 151.387 40.6377 151.448 41.1494L151.472 41.3315C151.535 41.8419 151.988 42.2027 152.482 42.1356L160.591 41.0296C161.083 40.9619 161.432 40.4922 161.369 39.9805L161.346 39.7997C161.288 39.33 160.904 38.9868 160.46 38.9868C160.42 38.9868 160.379 38.9902 160.338 38.9956Z" fill="white"/>
</mask>
<g mask="url(#mask12_5567_147021)">
<path d="M147.332 33.7988L166.156 34.802L165.486 47.3316L146.662 46.3285L147.332 33.7988Z" fill="#252528"/>
</g>
<mask id="mask13_5567_147021" style="mask-type:alpha" maskUnits="userSpaceOnUse" x="163" y="38" width="3" height="3">
<path fill-rule="evenodd" clip-rule="evenodd" d="M164.374 38.3201C164.37 38.3187 164.368 38.3194 164.366 38.3201C163.633 38.4223 163.118 39.0924 163.213 39.8255C163.309 40.5633 163.985 41.0824 164.722 40.985C165.461 40.8902 165.979 40.216 165.883 39.4796C165.796 38.802 165.217 38.3086 164.55 38.3086C164.492 38.3086 164.433 38.312 164.374 38.3201Z" fill="white"/>
</mask>
<g mask="url(#mask13_5567_147021)">
<path d="M159.033 33.5249L170.685 34.1463L170.064 45.7804L158.41 45.159L159.033 33.5249Z" fill="#252528"/>
</g>
<mask id="mask14_5567_147021" style="mask-type:alpha" maskUnits="userSpaceOnUse" x="134" y="49" width="54" height="92">
<path fill-rule="evenodd" clip-rule="evenodd" d="M134.744 51.7858L145.413 133.472C145.954 137.613 149.769 140.538 153.937 140.006L187.645 135.723C147.639 135.739 135.947 57.919 134.782 49.3599C134.655 50.1301 134.633 50.9471 134.744 51.7858Z" fill="white"/>
</mask>
<g mask="url(#mask14_5567_147021)">
<path d="M130.49 44.6431L196.821 48.1791L191.557 146.625L125.226 143.089L130.49 44.6431Z" fill="#C3DFF8"/>
</g>
<mask id="mask15_5567_147021" style="mask-type:alpha" maskUnits="userSpaceOnUse" x="144" y="115" width="32" height="21">
<path fill-rule="evenodd" clip-rule="evenodd" d="M169.687 116.258C166.527 117.885 156.851 124.656 156.851 124.656L149.446 128.767L145.298 130.308L144.808 135.025L155.374 129.287L175.615 116.777C175.615 116.777 174.159 115.648 172.154 115.648C171.395 115.648 170.555 115.811 169.687 116.258Z" fill="white"/>
</mask>
<g mask="url(#mask15_5567_147021)">
<path d="M143.102 108.859L180.517 112.139L177.409 142.106L139.994 138.826L143.102 108.859Z" fill="#C3E0FF"/>
</g>
<path d="M125.739 114.369C123.714 115.884 122.452 118.21 122.285 120.731L120.409 148.951C120.162 152.661 119.167 156.279 117.483 159.593L112.579 170.26L141.591 178.383L146.936 168.69C149.919 165.855 152.429 162.562 154.374 158.937L161.839 145.026C162.717 143.39 163.801 141.873 165.065 140.513L178.137 126.443C179.322 125.167 179.903 123.444 179.735 121.713C179.446 118.77 177.081 116.459 174.125 116.235L173.661 116.201C172.199 116.09 170.749 116.51 169.574 117.38L154.412 128.598C153.381 129.362 152.254 129.985 151.062 130.452L141.257 134.476C139.001 135.402 138.029 127.58 138.029 127.58L135.317 106.597L125.739 114.369Z" fill="#F2CBA8"/>
<path d="M150.207 158.307C147.875 159.944 145.801 161.915 144.235 164.293C141.975 167.724 139.189 171.884 138.348 172.832C136.861 174.511 121.719 171.54 115.866 166.121C115.866 166.121 118.316 172.314 128.456 175.323C139.081 178.474 144.21 175.28 144.21 175.28L150.081 164.52C150.081 164.52 155.371 161.138 165.284 139.828C165.284 139.828 156.204 154.093 150.207 158.307Z" fill="#E79E5C"/>
<path d="M106.233 171.763L109.055 164.02C109.506 162.784 110.874 162.147 112.111 162.597C112.144 162.609 112.176 162.622 112.208 162.635L143.028 175.386C144.624 176.046 145.4 177.858 144.775 179.467L142.153 186.214C141.565 187.727 139.859 188.478 138.343 187.891C138.328 187.885 138.312 187.879 138.297 187.872L107.888 175.489C106.423 174.893 105.692 173.247 106.233 171.763Z" fill="#00AB4E"/>
</g>
<path d="M282.878 50.9399C282.878 65.7334 270.801 77.7264 255.905 77.7264C241.008 77.7264 228.932 65.7334 228.932 50.9399C228.932 36.1463 241.008 24.1533 255.905 24.1533C270.143 24.1533 281.804 35.1095 282.808 48.9955C282.854 49.6373 282.878 50.2854 282.878 50.9399Z" fill="#84D7CC"/>
<path d="M282.878 47.4833C282.878 62.2768 270.801 74.2698 255.905 74.2698C241.008 74.2698 228.932 62.2768 228.932 47.4833C228.932 32.6898 241.008 20.6968 255.905 20.6968C270.143 20.6968 281.804 31.653 282.808 45.5389C282.854 46.1807 282.878 46.8289 282.878 47.4833Z" fill="white"/>
<path fill-rule="evenodd" clip-rule="evenodd" d="M241.778 62.3218C241.245 62.2401 241.121 62.2073 241.013 62.0972C240.905 61.9871 240.839 61.8281 240.839 61.3653C240.839 50.2537 240.839 42.7679 240.839 39.5937C240.839 39.5549 240.839 39.5095 240.839 39.4608C240.839 39.1597 241.083 38.9155 241.384 38.9155C252.701 41.593 261.695 35.6009 273.012 38.2785C273.509 38.4383 273.614 38.548 273.707 38.6506C273.8 38.7533 273.886 39.0148 273.886 39.243C273.886 48.0099 273.886 55.3466 273.887 61.2264C273.887 61.4471 273.74 61.6637 273.525 61.6137C273.502 61.6084 273.479 61.6017 273.457 61.5931C262.14 58.9143 255.361 64.4031 241.778 62.3218Z" fill="#1868AB"/>
<path fill-rule="evenodd" clip-rule="evenodd" d="M238.889 58.434C238.341 58.3556 238.213 58.324 238.102 58.2183C237.991 58.1125 237.923 57.9598 237.923 57.5153C237.923 46.8419 237.923 39.6514 237.923 36.6024C237.923 36.5751 237.923 36.5444 237.923 36.5115C237.923 36.2019 238.174 35.9509 238.483 35.9509C250.12 38.5228 259.37 32.7671 271.007 35.339C271.518 35.4925 271.625 35.5979 271.721 35.6965C271.817 35.7951 271.906 36.0462 271.906 36.2655C271.905 44.6866 271.905 51.7339 271.906 57.3818C271.906 57.593 271.765 57.7953 271.557 57.7585C271.527 57.753 271.495 57.7451 271.464 57.7341C259.827 55.161 252.856 60.4333 238.889 58.434Z" fill="#5297D1"/>
<path fill-rule="evenodd" clip-rule="evenodd" d="M254.914 53.066C251.471 53.066 248.679 50.2798 248.679 46.8424C248.679 43.4051 251.471 40.6177 254.914 40.6177C258.357 40.6177 261.148 43.4051 261.148 46.8424C261.148 50.2798 258.357 53.066 254.914 53.066Z" fill="white"/>
<path d="M264.275 38.7807H268.668" stroke="white" stroke-width="2.31055" stroke-linecap="round"/>
<path d="M241.04 55.3564H245.432" stroke="white" stroke-width="2.31055" stroke-linecap="round"/>
<path fill-rule="evenodd" clip-rule="evenodd" d="M285.874 33.663C285.874 39.1718 281.402 43.637 275.885 43.637C270.367 43.637 265.895 39.1718 265.895 33.663C265.895 28.1543 270.367 23.689 275.885 23.689C281.402 23.689 285.874 28.1543 285.874 33.663Z" fill="#95CF72"/>
<path fill-rule="evenodd" clip-rule="evenodd" d="M274.809 37.7179C274.503 37.7179 274.196 37.6124 273.946 37.4004L271.201 35.0634C270.64 34.588 270.573 33.7489 271.051 33.1918C271.527 32.6323 272.366 32.5667 272.925 33.042L274.725 34.5733L278.896 30.3067C279.409 29.7814 280.251 29.7723 280.778 30.2829C281.303 30.7949 281.313 31.6368 280.8 32.1616L275.761 37.3162C275.502 37.5829 275.155 37.7179 274.809 37.7179Z" fill="#FDFEFF"/>
<path d="M85.4646 77.1599C85.4646 90.1423 74.8667 100.667 61.794 100.667C48.7213 100.667 38.1233 90.1423 38.1233 77.1599C38.1233 64.1776 48.7213 53.6528 61.794 53.6528C74.2893 53.6528 84.5225 63.2677 85.4034 75.4536C85.4442 76.0169 85.4646 76.5856 85.4646 77.1599Z" fill="#84D7CC"/>
<path d="M85.4646 74.1267C85.4646 87.1091 74.8667 97.6338 61.794 97.6338C48.7213 97.6338 38.1233 87.1091 38.1233 74.1267C38.1233 61.1444 48.7213 50.6196 61.794 50.6196C74.2893 50.6196 84.5225 60.2345 85.4034 72.4204C85.4442 72.9836 85.4646 73.5524 85.4646 74.1267Z" fill="white"/>
<rect x="49.5701" y="63.0342" width="24.572" height="24.572" rx="3.87979" fill="#00883E"/>
<mask id="mask16_5567_147021" style="mask-type:alpha" maskUnits="userSpaceOnUse" x="49" y="63" width="26" height="25">
<rect x="49.5701" y="63.0342" width="24.572" height="24.572" rx="3.87979" fill="white"/>
</mask>
<g mask="url(#mask16_5567_147021)">
<rect x="47.2664" y="62.2661" width="24.572" height="24.572" rx="3.87979" fill="#00AB4E"/>
<path d="M54.5613 78.7758L58.5171 74.8201C58.8774 74.4598 59.4597 74.4598 59.82 74.8201L61.2814 76.2815C61.6417 76.6418 62.2241 76.6418 62.5843 76.2815L66.5401 72.3257" stroke="#00662E" stroke-width="0.969948" stroke-linecap="round" stroke-linejoin="round"/>
<path fill-rule="evenodd" clip-rule="evenodd" d="M69.5348 71.0967C69.5348 72.5814 68.3318 73.7843 66.8472 73.7843C65.3626 73.7843 64.1597 72.5814 64.1597 71.0967C64.1597 69.6121 65.3626 68.4092 66.8472 68.4092C68.3318 68.4092 69.5348 69.6121 69.5348 71.0967Z" fill="#98AC26"/>
<path fill-rule="evenodd" clip-rule="evenodd" d="M68.639 71.0967C68.639 72.5814 67.4361 73.7843 65.9515 73.7843C64.4669 73.7843 63.2639 72.5814 63.2639 71.0967C63.2639 69.6121 64.4669 68.4092 65.9515 68.4092C67.4361 68.4092 68.639 69.6121 68.639 71.0967Z" fill="#BFD730"/>
<path fill-rule="evenodd" clip-rule="evenodd" d="M58.0167 78.7755C58.0167 80.2601 56.8138 81.463 55.3292 81.463C53.8446 81.463 52.6416 80.2601 52.6416 78.7755C52.6416 77.2908 53.8446 76.0879 55.3292 76.0879C56.8138 76.0879 58.0167 77.2908 58.0167 78.7755Z" fill="#98AC26"/>
<path fill-rule="evenodd" clip-rule="evenodd" d="M57.1207 78.7755C57.1207 80.2601 55.9178 81.463 54.4332 81.463C52.9486 81.463 51.7456 80.2601 51.7456 78.7755C51.7456 77.2908 52.9486 76.0879 54.4332 76.0879C55.9178 76.0879 57.1207 77.2908 57.1207 78.7755Z" fill="#BFD730"/>
</g>
<path fill-rule="evenodd" clip-rule="evenodd" d="M87.2182 89.1333C87.2182 93.9676 83.293 97.8863 78.4515 97.8863C73.6095 97.8863 69.6843 93.9676 69.6843 89.1333C69.6843 84.299 73.6095 80.3804 78.4515 80.3804C83.293 80.3804 87.2182 84.299 87.2182 89.1333Z" fill="#95CF72"/>
<path fill-rule="evenodd" clip-rule="evenodd" d="M77.507 92.6917C77.2383 92.6917 76.9692 92.5991 76.7498 92.4131L74.3406 90.3622C73.8488 89.945 73.7899 89.2087 74.2089 88.7197C74.6268 88.2287 75.363 88.1711 75.854 88.5883L77.4338 89.9321L81.0941 86.1878C81.5441 85.7268 82.2833 85.7189 82.745 86.167C83.2059 86.6163 83.2147 87.3551 82.7651 87.8157L78.3426 92.3392C78.1153 92.5733 77.8112 92.6917 77.507 92.6917Z" fill="#FDFEFF"/>
<path fill-rule="evenodd" clip-rule="evenodd" d="M191.24 104.806L145.135 109.253C144.297 109.334 143.556 108.78 143.482 108.016L142.679 99.7176C142.606 98.9541 143.226 98.2688 144.064 98.188L190.169 93.741L191.24 104.806Z" fill="#C4E4FF"/>
<path fill-rule="evenodd" clip-rule="evenodd" d="M156.407 91.562L195.867 86.7246C196.659 86.6274 197.394 87.2931 197.507 88.2129L198.878 99.3589C198.991 100.278 198.439 101.102 197.647 101.199L137.338 108.593C136.545 108.69 135.81 108.023 135.697 107.104L134.327 95.9584C134.214 95.0385 134.765 94.2151 135.558 94.1179L156.624 91.5353" fill="#00AB4E"/>
<path d="M149.686 101.341L149.241 97.7523L147.791 97.9315L147.693 97.1354L151.555 96.6578L151.654 97.4539L150.205 97.6331L150.65 101.222L149.686 101.341ZM153.475 100.942C153.147 100.983 152.853 100.954 152.592 100.856C152.335 100.753 152.126 100.591 151.964 100.371C151.801 100.147 151.7 99.8712 151.659 99.5437C151.619 99.2202 151.651 98.9321 151.754 98.6794C151.857 98.4225 152.021 98.2149 152.245 98.0566C152.474 97.8978 152.752 97.7982 153.08 97.7577C153.407 97.7172 153.699 97.7463 153.956 97.8451C154.216 97.9434 154.428 98.1046 154.59 98.3287C154.756 98.5481 154.86 98.8196 154.9 99.143C154.94 99.4706 154.907 99.7631 154.8 100.02C154.697 100.273 154.531 100.481 154.303 100.644C154.078 100.802 153.802 100.902 153.475 100.942ZM153.387 100.239C153.586 100.215 153.739 100.122 153.846 99.9617C153.956 99.8007 153.992 99.5667 153.954 99.2599C153.917 98.9572 153.825 98.7433 153.679 98.6182C153.536 98.4885 153.366 98.4359 153.167 98.4605C152.968 98.4851 152.815 98.5777 152.709 98.7382C152.602 98.8945 152.567 99.1241 152.604 99.4268C152.643 99.7336 152.733 99.9519 152.875 100.082C153.018 100.211 153.188 100.264 153.387 100.239ZM155.8 101.722L155.282 97.5485L156.203 97.4347L156.259 97.8887C156.322 97.7209 156.433 97.5809 156.592 97.4686C156.754 97.3517 156.943 97.2799 157.159 97.2533C157.424 97.2205 157.665 97.256 157.88 97.36C158.099 97.4634 158.279 97.6263 158.42 97.8488C158.562 98.0714 158.652 98.3464 158.693 98.674C158.734 99.0015 158.713 99.2925 158.631 99.5468C158.548 99.797 158.414 100.001 158.227 100.159C158.044 100.312 157.819 100.405 157.554 100.438C157.351 100.463 157.159 100.442 156.978 100.376C156.801 100.31 156.658 100.21 156.549 100.076L156.739 101.606L155.8 101.722ZM157.187 99.7696C157.386 99.745 157.539 99.6524 157.645 99.4919C157.752 99.3314 157.786 99.0977 157.748 98.7909C157.71 98.4882 157.62 98.274 157.479 98.1484C157.336 98.0187 157.165 97.9661 156.966 97.9907C156.763 98.0158 156.608 98.1087 156.502 98.2692C156.395 98.4255 156.36 98.6551 156.398 98.9577C156.436 99.2646 156.526 99.4829 156.669 99.6126C156.811 99.7424 156.984 99.7947 157.187 99.7696ZM163.156 99.7451C162.534 99.8221 162.04 99.7211 161.673 99.4423C161.309 99.163 161.089 98.7083 161.011 98.078L160.694 95.5279L161.659 95.4087L161.976 97.965C162.02 98.3216 162.134 98.5811 162.318 98.7436C162.502 98.9019 162.748 98.9621 163.054 98.9241C163.681 98.8467 163.949 98.4493 163.86 97.732L163.543 95.1757L164.495 95.058L164.811 97.6081C164.889 98.2384 164.789 98.7329 164.509 99.0917C164.229 99.4504 163.778 99.6682 163.156 99.7451ZM165.95 100.467L165.432 96.2935L166.353 96.1797L166.409 96.6338C166.473 96.4659 166.584 96.3259 166.742 96.2137C166.905 96.0968 167.094 96.025 167.309 95.9983C167.575 95.9655 167.815 96.0011 168.03 96.105C168.249 96.2084 168.429 96.3714 168.57 96.5939C168.712 96.8164 168.803 97.0915 168.843 97.419C168.884 97.7466 168.863 98.0376 168.781 98.2919C168.698 98.5421 168.564 98.7461 168.377 98.9039C168.194 99.0571 167.97 99.15 167.704 99.1829C167.501 99.208 167.309 99.1875 167.128 99.1215C166.952 99.0549 166.809 98.9547 166.699 98.8208L166.889 100.351L165.95 100.467ZM167.337 98.5146C167.536 98.49 167.689 98.3975 167.795 98.2369C167.902 98.0764 167.936 97.8428 167.898 97.5359C167.86 97.2332 167.771 97.0191 167.629 96.8935C167.486 96.7637 167.316 96.7112 167.116 96.7358C166.913 96.7609 166.759 96.8537 166.652 97.0142C166.545 97.1706 166.511 97.4001 166.548 97.7028C166.586 98.0096 166.676 98.2279 166.819 98.3577C166.961 98.4874 167.134 98.5397 167.337 98.5146ZM171.419 98.654L170.876 94.2691L173.88 93.8976L173.973 94.6502L171.89 94.9079L172.017 95.9341L173.964 95.6934L174.058 96.4522L172.111 96.6929L172.247 97.7876L174.33 97.53L174.424 98.2826L171.419 98.654ZM175.117 98.1969L174.738 95.143L175.659 95.0291L175.714 95.4707C175.785 95.3019 175.895 95.1642 176.041 95.0576C176.192 94.9464 176.373 94.8777 176.584 94.8516C176.8 94.8249 176.988 94.85 177.149 94.927C177.315 95.0034 177.449 95.1341 177.552 95.3193C177.624 95.125 177.744 94.9671 177.91 94.8456C178.079 94.7194 178.274 94.6427 178.494 94.6155C178.842 94.5724 179.114 94.6461 179.311 94.8366C179.506 95.0229 179.631 95.3337 179.685 95.7691L179.913 97.6039L178.974 97.7201L178.75 95.9163C178.725 95.7131 178.673 95.57 178.596 95.487C178.522 95.3993 178.408 95.365 178.254 95.384C178.076 95.406 177.945 95.4854 177.861 95.6221C177.777 95.7588 177.749 95.9412 177.777 96.1692L177.985 97.8423L177.045 97.9585L176.822 96.1547C176.796 95.9515 176.745 95.8084 176.667 95.7254C176.589 95.6383 176.475 95.6039 176.326 95.6224C176.148 95.6444 176.017 95.7238 175.933 95.8605C175.848 95.9972 175.821 96.1796 175.849 96.4076L176.056 98.0807L175.117 98.1969ZM181.673 97.4557C181.445 97.4839 181.239 97.4653 181.054 97.3997C180.869 97.3342 180.715 97.2332 180.593 97.0967C180.475 96.9597 180.404 96.798 180.381 96.6114C180.354 96.3916 180.39 96.2082 180.49 96.0612C180.59 95.9141 180.767 95.7975 181.021 95.7113C181.275 95.6209 181.618 95.5491 182.049 95.4958L182.273 95.4681L182.26 95.3624C182.237 95.1799 182.18 95.0565 182.088 94.9921C181.995 94.9236 181.849 94.9016 181.65 94.9262C181.484 94.9467 181.311 94.9955 181.131 95.0725C180.955 95.1448 180.782 95.244 180.613 95.3703L180.28 94.7736C180.379 94.6898 180.501 94.6093 180.648 94.5323C180.798 94.4548 180.956 94.391 181.123 94.341C181.289 94.2868 181.448 94.2502 181.602 94.2312C182.075 94.1728 182.44 94.237 182.699 94.4239C182.958 94.6067 183.115 94.922 183.17 95.3698L183.394 97.1735L182.517 97.282L182.46 96.8217C182.418 96.9911 182.328 97.1327 182.19 97.2465C182.057 97.3599 181.885 97.4296 181.673 97.4557ZM181.807 96.8014C181.981 96.7799 182.121 96.7015 182.226 96.5664C182.331 96.4313 182.372 96.2684 182.349 96.0776L182.333 95.9532L182.116 95.9801C181.796 96.0196 181.574 96.0766 181.448 96.151C181.322 96.2214 181.268 96.3249 181.285 96.4618C181.299 96.5779 181.35 96.6684 181.438 96.7333C181.531 96.7977 181.653 96.8204 181.807 96.8014ZM185.273 97.0107C185.003 97.0441 184.748 97.044 184.508 97.0105C184.268 96.977 184.065 96.9158 183.898 96.827L184.047 96.1898C184.212 96.2662 184.395 96.3214 184.598 96.3553C184.803 96.3846 185.004 96.3872 185.198 96.3631C185.373 96.3416 185.498 96.2987 185.574 96.2346C185.65 96.1663 185.682 96.0865 185.671 95.9953C185.653 95.8502 185.536 95.772 185.32 95.7608L184.652 95.7234C184.385 95.7101 184.174 95.6414 184.02 95.5173C183.866 95.3933 183.774 95.2172 183.746 94.9892C183.72 94.7818 183.756 94.5964 183.854 94.4327C183.951 94.2691 184.097 94.1333 184.29 94.0252C184.483 93.9171 184.712 93.8467 184.977 93.8139C185.197 93.7867 185.414 93.7894 185.629 93.8218C185.843 93.85 186.032 93.9151 186.196 94.0169L186.034 94.6494C185.899 94.5736 185.74 94.5174 185.559 94.4809C185.381 94.4438 185.218 94.4345 185.069 94.453C184.882 94.4761 184.751 94.5238 184.676 94.5963C184.6 94.6646 184.568 94.7444 184.58 94.8356C184.598 94.9807 184.706 95.0599 184.906 95.0731L185.574 95.1105C185.849 95.1228 186.065 95.1887 186.223 95.3081C186.381 95.4233 186.474 95.5971 186.503 95.8293C186.542 96.1485 186.449 96.4127 186.222 96.6218C185.995 96.8308 185.679 96.9605 185.273 97.0107Z" fill="white"/>
<path fill-rule="evenodd" clip-rule="evenodd" d="M161.878 65.5232C165.51 65.1841 168.711 67.8316 169.055 71.4586C169.397 75.0661 166.739 78.2829 163.137 78.6209C159.493 78.9628 156.29 76.3119 155.95 72.6708C155.612 69.0554 158.261 65.8612 161.878 65.5232ZM165.233 69.7056C165.388 69.7753 165.475 69.8117 165.559 69.8529C165.697 69.9201 165.818 69.9448 165.904 69.7733C165.995 69.5912 165.881 69.5328 165.743 69.4707C164.361 68.8494 162.93 68.5976 161.426 68.9041C160.476 69.0976 159.619 69.4939 158.846 70.0738C158.733 70.1586 158.583 70.2395 158.724 70.422C158.867 70.6074 158.986 70.4999 159.112 70.4014C159.182 70.3468 159.259 70.3005 159.377 70.2201C159.339 70.3468 159.319 70.4184 159.296 70.489C158.861 71.817 158.426 73.1449 157.991 74.4725C157.842 74.9274 157.935 75.1571 158.372 75.366C158.502 75.4284 158.642 75.479 158.783 75.5115C159.654 75.7119 160.506 75.6254 161.34 75.3216C161.534 75.2508 161.713 75.1476 161.877 75.0215C162.23 74.7498 162.276 74.4999 162.06 74.109C161.334 72.7955 160.614 71.4785 159.881 70.1688C159.781 69.9894 159.827 69.931 159.99 69.8495C161.451 69.1231 162.961 69.0178 164.523 69.4557C164.738 69.5158 164.76 69.5985 164.694 69.7955C164.237 71.1608 163.792 72.53 163.343 73.8979C163.159 74.4591 163.278 74.7227 163.835 74.9285C164.525 75.1837 165.234 75.1606 165.944 75.0286C166.394 74.9448 166.829 74.8129 167.199 74.5269C167.553 74.2529 167.603 74.0021 167.389 73.6152C167.044 72.9927 166.7 72.3695 166.356 71.7462C165.993 71.0874 165.631 70.4283 165.233 69.7056Z" fill="#02A750"/>
<path fill-rule="evenodd" clip-rule="evenodd" d="M163.552 83.4732C160.271 83.7351 157.369 82.8039 154.896 80.6342C152.907 78.8882 151.685 76.6845 151.217 74.074C151.175 73.8378 151.151 73.5982 151.108 73.3622C151.084 73.2358 151.125 73.1996 151.249 73.191C151.582 73.1679 151.916 73.137 152.248 73.097C152.407 73.0779 152.385 73.1831 152.396 73.2721C152.509 74.1702 152.721 75.0447 153.066 75.8816C153.708 77.4395 154.67 78.7684 155.967 79.8509C157.39 81.0383 159.013 81.8006 160.843 82.0952C162.796 82.4097 164.693 82.1932 166.514 81.4053C168.741 80.4417 170.421 78.8802 171.538 76.7326C172.524 74.8365 172.864 72.8193 172.573 70.6974C172.228 68.1858 171.091 66.0879 169.193 64.4272C167.309 62.778 165.09 61.9323 162.573 61.9142C160.487 61.8993 158.574 62.4689 156.841 63.63C156.707 63.7194 156.622 63.7273 156.524 63.5897C156.356 63.3518 156.184 63.115 155.999 62.8899C155.887 62.7537 155.919 62.6831 156.053 62.5915C156.872 62.0304 157.752 61.5865 158.688 61.2616C160.421 60.6604 162.203 60.4716 164.021 60.7167C166.286 61.0218 168.293 61.9204 170.012 63.4238C172.15 65.293 173.439 67.6376 173.843 70.4517C174.239 73.1992 173.707 75.7689 172.238 78.1169C170.658 80.6427 168.41 82.3107 165.53 83.1173C164.882 83.2988 164.224 83.4105 163.552 83.4732Z" fill="#BAD333"/>
<path fill-rule="evenodd" clip-rule="evenodd" d="M161.692 63.2114C164.962 63.0172 167.625 64.1799 169.655 66.7699C169.768 66.9137 169.758 66.9895 169.608 67.0911C169.395 67.2349 169.188 67.3918 168.999 67.5648C168.828 67.721 168.731 67.7198 168.585 67.5209C167.864 66.543 166.947 65.7948 165.861 65.2501C162.877 63.754 159.134 64.4519 156.896 66.936C155.296 68.7126 154.655 70.7973 154.972 73.1645C155.448 76.7189 158.542 79.5493 162.133 79.6507C165.398 79.743 167.795 78.2845 169.33 75.4112C169.403 75.2751 169.453 75.2372 169.597 75.3213C169.856 75.4729 170.123 75.6125 170.395 75.7393C170.557 75.8147 170.551 75.8963 170.479 76.0355C169.27 78.354 167.429 79.9251 164.904 80.629C160.998 81.7181 156.983 80.106 154.858 76.6422C152.408 72.6471 153.638 67.22 157.572 64.6577C158.826 63.8411 160.191 63.3456 161.692 63.2114Z" fill="#74BC46"/>
<path fill-rule="evenodd" clip-rule="evenodd" d="M165.233 69.7057C165.631 70.4286 165.994 71.0877 166.357 71.7466C166.7 72.3699 167.044 72.9932 167.389 73.6157C167.603 74.0026 167.554 74.2535 167.199 74.5275C166.829 74.8135 166.394 74.9455 165.944 75.0292C165.234 75.1612 164.525 75.1843 163.835 74.9291C163.278 74.7233 163.159 74.4596 163.343 73.8985C163.792 72.5304 164.237 71.1611 164.694 69.7956C164.76 69.5986 164.738 69.5159 164.524 69.4558C162.961 69.0179 161.451 69.1231 159.99 69.8496C159.826 69.9311 159.781 69.9894 159.881 70.169C160.614 71.4788 161.334 72.7959 162.06 74.1095C162.276 74.5005 162.23 74.7504 161.877 75.0221C161.713 75.1483 161.534 75.2514 161.34 75.3223C160.506 75.6261 159.654 75.7126 158.783 75.5121C158.642 75.4797 158.502 75.4291 158.372 75.3667C157.935 75.1578 157.841 74.928 157.99 74.4731C158.426 73.1453 158.861 71.8173 159.295 70.4892C159.318 70.4186 159.339 70.347 159.377 70.2202C159.259 70.3007 159.182 70.347 159.112 70.4015C158.986 70.5001 158.866 70.6076 158.723 70.4222C158.583 70.2397 158.733 70.1588 158.846 70.0739C159.619 69.4939 160.476 69.0977 161.426 68.9041C162.93 68.5976 164.361 68.8494 165.743 69.4708C165.881 69.5328 165.995 69.5913 165.904 69.7734C165.819 69.9449 165.697 69.9202 165.56 69.8531C165.475 69.8119 165.388 69.7754 165.233 69.7057ZM159.695 70.6133C159.664 70.6493 159.647 70.6603 159.642 70.6751C159.255 71.8539 158.87 73.0336 158.479 74.2113C158.42 74.3879 158.511 74.3714 158.629 74.3601C159.466 74.28 160.303 74.2026 161.14 74.1244C161.282 74.111 161.425 74.0977 161.606 74.0808C160.958 72.9054 160.329 71.7642 159.695 70.6133ZM165.023 70.1203C164.992 70.1555 164.967 70.1709 164.96 70.1921C164.577 71.3632 164.196 72.5352 163.811 73.7056C163.758 73.8658 163.822 73.8761 163.955 73.8633C164.877 73.774 165.799 73.6856 166.722 73.6062C166.922 73.5889 166.899 73.5193 166.821 73.3842C166.618 73.0272 166.426 72.6636 166.228 72.3036C165.829 71.5792 165.429 70.8554 165.023 70.1203Z" fill="#F3FAF6"/>
<path fill-rule="evenodd" clip-rule="evenodd" d="M159.695 70.6138C160.329 71.7645 160.958 72.9056 161.606 74.0809C161.424 74.0978 161.282 74.1111 161.139 74.1244C160.302 74.2027 159.465 74.28 158.629 74.3601C158.511 74.3714 158.42 74.3879 158.479 74.2114C158.869 73.0337 159.254 71.8542 159.642 70.6756C159.647 70.6608 159.663 70.6498 159.695 70.6138Z" fill="#04A650"/>
<path fill-rule="evenodd" clip-rule="evenodd" d="M165.024 70.1196C165.429 70.8547 165.829 71.5783 166.228 72.3027C166.427 72.6626 166.618 73.0262 166.822 73.3831C166.899 73.5181 166.923 73.5878 166.723 73.605C165.8 73.6844 164.878 73.7728 163.956 73.8622C163.823 73.875 163.759 73.8646 163.811 73.7045C164.197 72.5342 164.577 71.3624 164.961 70.1914C164.968 70.1702 164.992 70.1548 165.024 70.1196Z" fill="#04A650"/>
</svg>
