<svg width="329" height="165" viewBox="0 0 329 165" fill="none" xmlns="http://www.w3.org/2000/svg">
<g clip-path="url(#clip0_5567_147308)">
<path d="M23.9881 161.836C34.4396 163.994 265.58 166.148 302.366 161.836C313.256 160.56 321.973 148.643 323.245 146.575C331.197 133.643 328.215 53.8904 326.227 26.9465C325.157 12.4456 310.32 5.93039 303.36 3.77506C290.05 -0.346923 54.0189 -0.51236 22.9931 4.85319C9.112 7.25295 4.08005 18.5733 3.08106 24.8655C0.750395 39.5327 -0.627222 129.746 3.10903 141.898C6.09203 151.598 13.5486 159.681 23.9881 161.836Z" fill="#EBFFE0"/>
<mask id="mask0_5567_147308" style="mask-type:alpha" maskUnits="userSpaceOnUse" x="0" y="0" width="329" height="165">
<path d="M23.9881 161.836C34.4396 163.994 265.58 166.148 302.366 161.836C313.256 160.56 321.973 148.643 323.245 146.575C331.197 133.643 328.215 53.8904 326.227 26.9465C325.157 12.4456 310.32 5.93039 303.36 3.77506C290.05 -0.346923 54.0189 -0.51236 22.9931 4.85319C9.112 7.25295 4.08005 18.5733 3.08106 24.8655C0.750395 39.5327 -0.627222 129.746 3.10903 141.898C6.09203 151.598 13.5486 159.681 23.9881 161.836Z" fill="#EBFFE0"/>
</mask>
<g mask="url(#mask0_5567_147308)">
<path d="M327.73 172.484H262.777C259.894 172.484 257.535 170.159 257.535 167.318V113.588C257.535 110.746 259.894 108.422 262.777 108.422H327.73C330.614 108.422 332.973 110.746 332.973 113.588V167.318C332.973 170.159 330.614 172.484 327.73 172.484Z" fill="#BBF0D3"/>
<path d="M322.731 138.972H267.382C265.876 138.972 264.644 137.758 264.644 136.274V120.006C264.644 118.523 265.876 117.309 267.382 117.309H322.731C324.237 117.309 325.469 118.523 325.469 120.006V136.274C325.469 137.758 324.237 138.972 322.731 138.972Z" fill="#EAFFF2"/>
<path d="M322.731 163.782H267.382C265.876 163.782 264.644 162.568 264.644 161.085V144.817C264.644 143.333 265.876 142.12 267.382 142.12H322.731C324.237 142.12 325.469 143.333 325.469 144.817V161.085C325.469 162.568 324.237 163.782 322.731 163.782Z" fill="#EAFFF2"/>
<path d="M310.953 95.726C310.953 95.726 308.199 88.5684 315.965 81.5396C315.965 81.5396 320.397 88.748 310.953 95.726Z" fill="#B3EC91"/>
<path d="M311.369 97.627C311.369 97.627 303.902 95.5133 302.84 85.1768C302.84 85.1768 311.353 85.996 311.369 97.627Z" fill="#B3EC91"/>
<path d="M316.275 95.3931H303.368V101.061C303.368 103.652 305.498 105.752 308.127 105.752H311.515C314.144 105.752 316.275 103.652 316.275 101.061V95.3931Z" fill="#BBF0D3"/>
<path d="M297.993 129.242C297.993 130.84 296.678 132.135 295.057 132.135C293.435 132.135 292.121 130.84 292.121 129.242C292.121 127.644 293.435 126.349 295.057 126.349C296.678 126.349 297.993 127.644 297.993 129.242Z" fill="#DAF6E5"/>
<path d="M298.19 152.831C298.19 154.429 296.876 155.724 295.254 155.724C293.632 155.724 292.318 154.429 292.318 152.831C292.318 151.234 293.632 149.938 295.254 149.938C296.876 149.938 298.19 151.234 298.19 152.831Z" fill="#DAF6E5"/>
<path d="M318.066 108.991H302.256C299.761 108.991 297.738 106.998 297.738 104.54H322.584C322.584 106.998 320.561 108.991 318.066 108.991Z" fill="#DAF6E5"/>
<path d="M-20.2266 96.8644H52.8805V5.46973H-20.2266V96.8644Z" fill="#BBF0D3"/>
<mask id="mask1_5567_147308" style="mask-type:alpha" maskUnits="userSpaceOnUse" x="28" y="12" width="21" height="9">
<path fill-rule="evenodd" clip-rule="evenodd" d="M35.3173 16.9096C34.8 16.7456 34.2501 16.6594 33.6758 16.6594C31.1725 16.6594 29.0681 18.3289 28.4075 20.6093V20.6114H35.3576H38.9379H47.9124C48.0927 20.0067 48.195 19.3638 48.195 18.6979C48.195 15.0823 45.2587 12.1514 41.6305 12.1514C38.6316 12.1514 36.1025 14.1656 35.3173 16.9096Z" fill="white"/>
</mask>
<g mask="url(#mask1_5567_147308)">
<path d="M24.4814 24.5308H52.1214V8.23145H24.4814V24.5308Z" fill="#EDFFF5"/>
</g>
<path d="M-21.4048 101.488H54.0601V95.3071H-21.4048V101.488Z" fill="white"/>
<path d="M-21.4048 51.6823H54.0601V50.6529H-21.4048V51.6823Z" fill="#EDFFF5"/>
<path d="M10.0931 62.4035C9.20344 60.1786 7.02455 58.6113 4.4781 58.6113C1.8864 58.6113 -0.320338 60.2335 -1.18772 62.5133C-1.83442 62.1616 -2.5765 61.9656 -3.36591 61.9656C-5.89705 61.9656 -7.94507 64.0097 -7.94507 66.5299C-7.94507 66.7384 -7.92767 66.9476 -7.90052 67.1499H-1.03318H1.16173H5.65804H9.98241H13.8529C13.8856 66.9476 13.9023 66.7384 13.9023 66.5299C13.9023 64.36 12.2281 62.5737 10.0931 62.4035Z" fill="white"/>
<path d="M-21.8462 8.48295H61.9966V4.91602H-21.8462V8.48295Z" fill="#84D7CC"/>
<path d="M63.4717 10.4347H62.7039C61.8177 10.4347 61.0986 9.71668 61.0986 8.83051V4.34682C61.0986 3.46065 61.8177 2.74268 62.7039 2.74268H63.4717C64.3593 2.74268 65.0777 3.46065 65.0777 4.34682V8.83051C65.0777 9.71668 64.3593 10.4347 63.4717 10.4347Z" fill="#84D7CC"/>
<path d="M58.8634 32.0597C58.8634 33.096 58.0225 33.937 56.9845 33.937C55.9466 33.937 55.105 33.096 55.105 32.0597C55.105 31.0241 55.9466 30.1831 56.9845 30.1831C58.0225 30.1831 58.8634 31.0241 58.8634 32.0597Z" fill="#84D7CC"/>
<path d="M56.8242 6.64307L57.0685 30.5753" stroke="#84D7CC" stroke-width="0.786025"/>
<path d="M28.7702 83.9657C28.7702 83.9657 25.6314 75.6989 34.482 67.5815C34.482 67.5815 39.5338 75.906 28.7702 83.9657Z" fill="#84D7CC"/>
<path d="M29.2433 86.1612C29.2433 86.1612 20.7331 83.7202 19.5239 71.7822C19.5239 71.7822 29.2266 72.7282 29.2433 86.1612Z" fill="#84D7CC"/>
<path d="M34.8359 83.5811H20.1245V90.1269C20.1245 93.1191 22.5533 95.544 25.5495 95.544H29.4102C32.4071 95.544 34.8359 93.1191 34.8359 90.1269V83.5811Z" fill="#DAF6E5"/>
<path d="M24.9862 83.5811L23.8403 82.5587L29.0342 82.9424L29.1295 83.5811H24.9862Z" fill="#EDFFF5"/>
<mask id="mask2_5567_147308" style="mask-type:alpha" maskUnits="userSpaceOnUse" x="23" y="82" width="7" height="2">
<path fill-rule="evenodd" clip-rule="evenodd" d="M24.9861 83.5811H29.1295L29.0334 82.9424L23.8396 82.5587L24.9861 83.5811Z" fill="white"/>
</mask>
<g mask="url(#mask2_5567_147308)">
<path d="M19.2524 95.793H36.2206V67.5571H19.2524V95.793Z" fill="#EDFFF5"/>
</g>
<mask id="mask3_5567_147308" style="mask-type:alpha" maskUnits="userSpaceOnUse" x="23" y="82" width="7" height="2">
<path fill-rule="evenodd" clip-rule="evenodd" d="M24.9861 83.5811H29.1295L29.0334 82.9424L23.8396 82.5587L24.9861 83.5811Z" fill="white"/>
</mask>
<g mask="url(#mask3_5567_147308)">
<path d="M19.7998 87.6151H33.169V78.5254H19.7998V87.6151Z" fill="#EDFFF5"/>
</g>
<path d="M-22.5337 96.8644H52.8806V5.46973H-22.5337V96.8644Z" fill="#BBF0D3"/>
<mask id="mask4_5567_147308" style="mask-type:alpha" maskUnits="userSpaceOnUse" x="28" y="12" width="21" height="9">
<path fill-rule="evenodd" clip-rule="evenodd" d="M35.3173 16.9096C34.8 16.7456 34.2501 16.6594 33.6758 16.6594C31.1725 16.6594 29.0681 18.3289 28.4075 20.6093V20.6114H35.3576H38.9379H47.9124C48.0927 20.0067 48.195 19.3638 48.195 18.6979C48.195 15.0823 45.2587 12.1514 41.6305 12.1514C38.6316 12.1514 36.1025 14.1656 35.3173 16.9096Z" fill="white"/>
</mask>
<g mask="url(#mask4_5567_147308)">
<path d="M24.4814 24.5308H52.1214V8.23145H24.4814V24.5308Z" fill="#EDFFF5"/>
</g>
<path d="M-25.9958 101.099H54.0593V95.3071H-25.9958V101.099Z" fill="white"/>
<path d="M-24.8354 52.9696H54.0595V50.6528H-24.8354V52.9696Z" fill="#EDFFF5"/>
<path d="M10.0926 62.4035C9.20295 60.1786 7.02406 58.6113 4.47761 58.6113C1.88591 58.6113 -0.320827 60.2335 -1.18821 62.5133C-1.83491 62.1616 -2.57699 61.9656 -3.3664 61.9656C-5.89754 61.9656 -7.94556 64.0097 -7.94556 66.5299C-7.94556 66.7384 -7.92815 66.9476 -7.901 67.1499H-1.03367H1.16124H5.65755H9.98192H13.8524C13.8851 66.9476 13.9018 66.7384 13.9018 66.5299C13.9018 64.36 12.2276 62.5737 10.0926 62.4035Z" fill="white"/>
<path d="M-26.1804 8.3912H61.9963V4.91602H-26.1804V8.3912Z" fill="#84D7CC"/>
<path d="M63.4715 10.4347H62.7037C61.8175 10.4347 61.0984 9.71668 61.0984 8.83051V4.34682C61.0984 3.46065 61.8175 2.74268 62.7037 2.74268H63.4715C64.3591 2.74268 65.0775 3.46065 65.0775 4.34682V8.83051C65.0775 9.71668 64.3591 10.4347 63.4715 10.4347Z" fill="#84D7CC"/>
<path d="M58.8632 32.0597C58.8632 33.096 58.0222 33.937 56.9843 33.937C55.9464 33.937 55.1047 33.096 55.1047 32.0597C55.1047 31.0241 55.9464 30.1831 56.9843 30.1831C58.0222 30.1831 58.8632 31.0241 58.8632 32.0597Z" fill="#84D7CC"/>
<path d="M56.8237 6.64307L57.068 30.5753" stroke="#84D7CC" stroke-width="0.786025"/>
</g>
<path d="M46.0882 182.621L122.38 138.59C122.685 138.454 123.02 138.4 123.352 138.433C123.684 138.466 124.001 138.585 124.273 138.778L196.932 180.673C197.715 181.178 198.366 181.862 198.833 182.668C199.299 183.475 199.566 184.38 199.613 185.31V196.497C199.645 196.828 199.589 197.162 199.451 197.465C199.313 197.768 199.097 198.029 198.825 198.222L122.533 242.207C122.23 242.348 121.895 242.406 121.563 242.375C121.23 242.344 120.911 242.225 120.64 242.031L47.9811 200.124C47.1996 199.62 46.5491 198.938 46.083 198.134C45.617 197.329 45.3488 196.426 45.3005 195.499V184.312C45.2742 183.986 45.333 183.659 45.471 183.363C45.6091 183.067 45.8217 182.811 46.0882 182.621Z" fill="#00AB4E"/>
<path d="M41.2794 121.769L107.531 83.5359C107.807 83.4311 108.105 83.3987 108.398 83.4419C108.69 83.4851 108.966 83.6023 109.2 83.7824L118.923 89.3818C120.541 90.4439 121.686 92.0878 122.121 93.9716L131.115 145.786C131.268 146.666 131.115 147.277 130.645 147.523L64.3939 185.744C64.1175 185.855 63.8169 185.892 63.5219 185.851C63.2269 185.809 62.9479 185.692 62.7126 185.509L53.0012 179.91C51.3852 178.846 50.2404 177.203 49.8033 175.32L40.8091 123.506C40.6563 122.614 40.8561 122.015 41.2794 121.769Z" fill="#00AB4E"/>
<path opacity="0.15" d="M64.8762 184.007C65.0173 184.899 64.8762 185.497 64.4059 185.756L130.645 147.523C131.08 147.276 131.269 146.666 131.116 145.797L122.122 93.9713C121.929 93.008 121.528 92.0985 120.946 91.3066L54.6828 129.516C55.2548 130.309 55.6552 131.213 55.8585 132.169L64.8762 184.007Z" fill="black"/>
<path opacity="0.25" d="M62.7132 185.509L53.0018 179.91C51.3858 178.846 50.2409 177.203 49.8039 175.32L40.8097 123.506C40.6568 122.614 40.8097 122.015 41.28 121.768C41.5563 121.657 41.857 121.621 42.1519 121.662C42.4469 121.703 42.726 121.821 42.9612 122.003L52.6726 127.602C54.2947 128.662 55.4446 130.307 55.8823 132.192L64.8647 184.007C65.0176 184.899 64.8647 185.497 64.3944 185.744C64.1181 185.855 63.8174 185.891 63.5224 185.85C63.2275 185.809 62.9485 185.691 62.7132 185.509Z" fill="black"/>
<path d="M135.135 148.509C143.06 153.651 166.092 168.981 177.461 178.325C180.741 181.025 184.633 183.702 183.822 193.503C182.893 204.726 174.604 242.9 174.604 242.9L103.979 167.15L135.135 148.509Z" fill="#0B4270"/>
<path d="M172.076 231.126C161.894 223.566 127.716 175.884 127.716 175.884L129.021 175.532C135.84 171.564 137.251 162.619 137.251 162.619C138.556 166.481 136.734 172.092 134.665 175.379C137.251 177.375 149.949 186.93 160.06 194.055C163.155 195.919 165.396 198.919 166.303 202.413C168.901 212.755 172.182 228.989 172.076 231.126Z" fill="#263238"/>
<path d="M131.889 151.385L76.4194 164.732C79.6056 179.793 82.6154 183.514 85.1079 186.613C88.8232 191.226 94.008 196.004 108.316 202.507C122.86 209.081 135.781 215.29 139.167 216.699C141.718 217.767 143.423 222.967 144.858 229.365C146.362 236.079 146.715 240.411 154.099 254.31C161.317 267.903 163.681 271.037 163.681 271.037C163.681 271.037 173.898 271.612 180.364 265.367C180.364 265.367 168.889 218.084 166.526 209.597C165.197 204.843 165.056 202.319 158.837 197.33C153.511 193.057 128.997 175.555 128.997 175.555C128.997 175.555 138.368 164.251 131.889 151.385Z" fill="#37474F"/>
<path d="M108.858 79.4507C114.455 79.0164 119.028 79.4507 123.602 83.6884C129.68 89.4051 141.99 111.732 149.467 124.116L134.9 140.081L120.686 117.331L108.858 79.4507Z" fill="#E79E5C"/>
<path d="M109.223 79.2865C113.526 78.9108 118.899 78.2535 123.331 82.6085C127.188 86.4236 137.075 102.212 137.075 102.212C135.292 106.028 132.687 109.403 129.445 112.096C126.452 114.2 123.059 115.671 119.475 116.416L108.071 79.3921L109.223 79.2865Z" fill="#1868AB"/>
<path d="M93.9744 81.8691C85.8267 84.3107 79.9482 86.0832 70.7189 93.1264C68.5908 95.615 66.1571 101.343 66.9683 111.544C68.1441 126.934 68.6026 130.937 71.9416 148.791C74.293 161.375 78.1376 174.346 78.1376 174.346C98.4539 178.959 132.22 163.1 137.276 149.577C133.325 144.694 131.068 140.316 126.165 107.635C123.72 91.3186 116.348 82.2212 109.223 79.3218C104.064 79.6258 98.952 80.4798 93.9744 81.8691Z" fill="#5297D1"/>
<path d="M159.544 104.642C159.469 104.604 159.386 104.584 159.302 104.584C159.219 104.584 159.136 104.604 159.061 104.642L141.696 109.467C141.144 109.647 140.673 110.017 140.368 110.511L123.708 140.903C123.579 141.137 123.579 141.325 123.708 141.419L125.46 143.133C125.542 143.215 125.707 143.239 125.942 143.133L143.307 138.308C143.858 138.125 144.328 137.756 144.635 137.264L161.284 106.872C161.413 106.638 161.425 106.45 161.284 106.356L159.544 104.642Z" fill="#004D43"/>
<path d="M142.708 111.533C142.466 111.71 142.262 111.933 142.108 112.19L125.46 142.57C125.33 142.793 125.33 142.969 125.46 143.074L123.72 141.372C123.626 141.278 123.626 141.091 123.72 140.856L140.38 110.464C140.532 110.21 140.732 109.987 140.967 109.807L142.708 111.533Z" fill="#003D35"/>
<path d="M125.907 143.133L143.272 138.308C143.823 138.125 144.293 137.756 144.601 137.263L161.249 106.872C161.496 106.426 161.249 106.18 160.814 106.32L143.437 111.133C142.886 111.324 142.418 111.697 142.108 112.19L125.46 142.569C125.213 143.015 125.413 143.262 125.907 143.133Z" fill="#002E28"/>
<path d="M141.367 117.437L143.06 114.35C143.42 113.795 143.96 113.381 144.589 113.176L145.27 112.988C146.152 112.742 146.517 113.199 146.082 114.009L144.377 117.097C144.022 117.651 143.486 118.066 142.86 118.271L142.178 118.458C141.285 118.705 140.92 118.247 141.367 117.437Z" fill="#003D35"/>
<path d="M139.909 114.256L139.686 114.033C139.652 113.997 139.609 113.97 139.562 113.956C139.514 113.941 139.464 113.939 139.415 113.951L139.074 114.045C139.005 114.071 138.946 114.121 138.91 114.186L137.393 116.944C137.346 117.04 137.33 117.147 137.347 117.252C137.364 117.357 137.413 117.455 137.487 117.531L137.711 117.754C137.744 117.79 137.787 117.817 137.835 117.831C137.882 117.846 137.933 117.847 137.981 117.836L138.31 117.742C138.383 117.717 138.445 117.667 138.486 117.601L140.003 114.843C140.05 114.747 140.066 114.64 140.049 114.535C140.032 114.429 139.983 114.332 139.909 114.256Z" fill="#002E28"/>
<path d="M137.452 118.717L137.217 118.494C137.186 118.457 137.145 118.43 137.099 118.416C137.054 118.401 137.005 118.4 136.958 118.411L136.617 118.505C136.58 118.517 136.546 118.536 136.518 118.563C136.489 118.589 136.467 118.622 136.453 118.658L134.936 121.417C134.891 121.51 134.874 121.614 134.889 121.717C134.903 121.819 134.949 121.915 135.018 121.992L135.254 122.215C135.287 122.252 135.329 122.279 135.377 122.294C135.425 122.308 135.476 122.31 135.524 122.297L135.853 122.203C135.891 122.194 135.927 122.177 135.958 122.153C135.988 122.128 136.013 122.097 136.03 122.062L137.558 119.304C137.603 119.207 137.617 119.098 137.599 118.993C137.58 118.888 137.528 118.792 137.452 118.717Z" fill="#002E28"/>
<path d="M155.922 116.604C157.698 119.28 158.062 121.052 156.616 125.807C155.17 130.561 151.161 135.127 143.801 134.481C140.697 134.211 141.579 120.571 145.306 121.463C150.702 122.755 153.383 121.229 153.383 121.229L155.922 116.604Z" fill="#E79E5C"/>
<path d="M96.0434 139.6L83.7572 114.08C83.7572 114.08 78.6546 97.5872 70.8243 93.9834C64.2051 98.0802 63.3351 102.916 62.806 107.929C62.1124 114.42 64.1346 121.675 70.3893 134.024C76.3502 145.763 80.4064 153.334 83.5808 157.372C87.5077 162.373 92.6456 161.387 101.216 158.405C109.787 155.423 114.02 152.031 125.589 146.878C131.162 144.413 134.76 143.227 139.121 140.339C140.806 139.296 142.317 137.997 143.601 136.489C144.806 135.13 145.661 133.498 146.093 131.735C146.131 131.403 146.218 131.078 146.352 130.772C146.514 130.491 146.695 130.22 146.893 129.962C147.304 129.492 147.641 128.961 147.892 128.389C148.071 127.753 148.186 127.1 148.233 126.441C148.258 126.141 148.301 125.843 148.363 125.549C148.46 125.246 148.581 124.951 148.727 124.668C149.157 123.963 149.459 123.189 149.621 122.379C149.652 122.16 149.625 121.935 149.542 121.73C149.46 121.524 149.325 121.343 149.15 121.205C149.15 121.205 149.762 120.337 149.961 120.031C150.238 119.606 150.463 119.149 150.632 118.67C150.675 118.58 150.698 118.482 150.698 118.382C150.698 118.283 150.675 118.184 150.632 118.095C150.567 117.993 150.473 117.915 150.361 117.871C148.692 117.003 147.081 118.036 145.764 119.045C142.331 121.663 140.732 124.023 137.005 126.265C131.891 129.352 131.338 126.887 131.338 126.887L134.583 121.017L135.359 119.597C135.818 117.167 134.183 115.852 132.596 118.423C131.35 120.477 127.106 123.553 125.801 126.241C124.496 128.929 124.19 131.676 120.498 134.247C116.595 136.959 96.0434 139.6 96.0434 139.6Z" fill="#F2CBA8"/>
<path d="M96.0437 139.599C93.1909 140.156 90.3876 140.941 87.6609 141.947C89.58 139.708 92.1609 138.134 95.0326 137.451L96.0437 139.599Z" fill="#E79E5C"/>
<path d="M149.103 121.463C148.503 122.367 147.833 123.201 147.151 124.046C146.469 124.891 145.776 125.689 145.106 126.523C144.753 126.922 144.435 127.356 144.059 127.767C143.683 128.178 143.319 128.553 142.884 128.941C142.107 129.689 141.291 130.394 140.438 131.054L141.555 129.88C141.931 129.504 142.307 129.117 142.672 128.706C143.036 128.295 143.401 127.931 143.742 127.532C144.083 127.133 144.412 126.711 144.753 126.288C145.447 125.454 146.164 124.656 146.893 123.87L149.103 121.463Z" fill="#E79E5C"/>
<path d="M148.397 125.419C148.076 126.198 147.683 126.945 147.222 127.65C146.763 128.342 146.269 129.011 145.764 129.657C145.258 130.303 144.729 130.948 144.165 131.559C143.619 132.182 143.029 132.767 142.401 133.308C142.919 132.662 143.412 132.005 143.93 131.359L145.446 129.411L146.963 127.462C147.469 126.805 147.939 126.112 148.397 125.419Z" fill="#E79E5C"/>
<path d="M70.7183 93.126C67.1088 95.6498 62.1121 100.38 62.1121 110.675C62.1121 120.97 72.8933 139.541 72.8933 139.541C72.8933 139.541 86.1201 136.7 91.9634 129.445C91.9634 129.445 86.8608 117.707 83.6276 109.994C80.3944 102.282 75.4094 94.4524 70.7183 93.126Z" fill="#1868AB"/>
<path d="M109.907 49.7433C112.061 29.2594 93.8548 31.8708 89.5015 32.3274C85.1482 32.784 73.5897 36.5962 73.8639 44.8961C68.3215 46.9729 69.4346 56.3466 71.8365 59.9024C76.2831 66.4648 77.4661 72.1314 83.7948 78.4502C84.0546 78.1814 99.9264 60.3382 103.724 56.3508L107.976 51.867C108.565 51.115 109.266 50.4432 109.907 49.7433Z" fill="#58585B"/>
<path d="M76.027 71.2541C79.936 73.1448 81.6831 70.2582 81.6831 70.2582L85.0106 87.6478C93.8965 95.4471 112.491 90.2872 102.502 82.6267L101.865 78.4257C111.057 75.0477 113.093 66.9055 111.057 57.0636C110.099 52.0105 109.366 44.8189 107.028 41.7625C103.491 39.6833 95.1704 41.0852 88.0179 44.7228C88.26 46.7834 87.873 48.8689 86.9076 50.7061C86.3198 51.8279 85.4793 52.7982 84.4522 53.5405C84.9576 57.2492 85.0072 58.2678 84.6386 60.0205C84.4338 61.0313 83.9627 62.5762 81.9589 62.2572C81.0095 62.1037 79.9764 60.2795 78.8077 59.1366C77.2438 57.6326 73.2265 57.5594 72.0957 61.7042C71.6023 63.506 71.7205 65.4202 72.4317 67.1479C73.1429 68.8756 74.4072 70.3195 76.027 71.2541Z" fill="#F2CBA8"/>
<path d="M105.364 69.4781C101.128 70.8215 97.633 69.9026 96.1098 69.1321C95.9691 69.0609 95.7994 69.1624 95.8172 69.3191C95.991 70.85 97.0909 73.3193 100.492 73.2473C103.886 73.1753 105.263 71.0199 105.611 69.6964C105.649 69.5512 105.507 69.4327 105.364 69.4781Z" fill="white"/>
<path d="M102.792 55.748C103.792 56.748 107.792 61.248 104.792 64.748" stroke="#E79E5C" stroke-linecap="round"/>
<path d="M101.847 78.4852C97.9613 78.8928 90.857 78.7177 88.4277 76.7638C85.9984 74.8098 83.4234 69.7192 83.4234 69.7192C83.4234 69.7192 85.3583 75.6247 87.3676 77.9678C89.377 80.3108 92.8886 80.7248 95.4406 80.9978C97.6976 81.1166 99.9605 81.0562 102.208 80.8171L101.847 78.4852Z" fill="#E79E5C"/>
<circle cx="182.292" cy="43.248" r="28.5" fill="#99DCAB"/>
<circle cx="180.292" cy="44.248" r="28.5" fill="white"/>
<path fill-rule="evenodd" clip-rule="evenodd" d="M170.05 34.4512L164.261 50.4824V51.8184H175.839V50.4824L170.05 34.4512Z" stroke="#00662E" stroke-width="1.33594" stroke-linecap="round" stroke-linejoin="round"/>
<path d="M176.73 52.2313V50.4824H163.371V52.2313C163.371 52.2313 163.371 57.6074 170.05 57.6074C176.73 57.6074 176.73 52.2313 176.73 52.2313Z" fill="#00883E"/>
<path d="M174.058 52.2314V50.4825H163.371C163.371 50.4825 163.371 49.9722 163.371 52.2314C163.371 54.4905 165.152 57.6077 169.16 57.6075C173.839 57.6078 174.058 53.1546 174.058 52.2314Z" fill="#00AB4E"/>
<path fill-rule="evenodd" clip-rule="evenodd" d="M190.535 34.4512L184.746 50.4824V51.8184H196.324V50.4824L190.535 34.4512Z" stroke="#00662E" stroke-width="1.33594" stroke-linecap="round" stroke-linejoin="round"/>
<path d="M197.214 52.2313V50.4824H183.855V52.2313C183.855 52.2313 183.855 57.6074 190.535 57.6074C197.214 57.6074 197.214 52.2313 197.214 52.2313Z" fill="#00883E"/>
<path d="M194.543 52.2314V50.4825H183.855C183.855 50.4825 183.855 49.9722 183.855 52.2314C183.855 54.4905 185.636 57.6077 189.644 57.6075C194.324 57.6078 194.543 53.1546 194.543 52.2314Z" fill="#00AB4E"/>
<path d="M166.042 35.9056C166.042 35.5613 166.237 35.2502 166.551 35.1097C168.462 34.2551 175.357 31.334 180.292 31.334C185.228 31.334 192.123 34.2551 194.034 35.1097C194.348 35.2502 194.542 35.5613 194.542 35.9056V37.4793C194.542 37.9712 194.144 38.3699 193.652 38.3699H192.14C191.964 38.3699 191.794 38.3172 191.644 38.2243C188.907 36.5211 183.777 35.3418 180.292 35.3418C175.891 35.3418 169.854 37.4392 167.283 38.4154C166.689 38.6411 166.042 38.2023 166.042 37.5662V35.9056Z" fill="#00883E"/>
<path d="M166.042 35.9056C166.042 35.5613 166.237 35.2502 166.551 35.1097C168.462 34.2551 175.357 31.334 180.292 31.334C185.195 31.334 190.751 34.2169 192.325 35.0926C192.599 35.2447 192.761 35.5334 192.761 35.8464V37.4254C192.761 38.0965 192.043 38.5406 191.433 38.2618C189.187 37.2357 184.475 35.3418 180.292 35.3418C175.891 35.3418 169.854 37.4392 167.283 38.4154C166.689 38.6411 166.042 38.2023 166.042 37.5662V35.9056Z" fill="#00AB4E"/>
<path fill-rule="evenodd" clip-rule="evenodd" d="M182.074 33.1148C182.074 34.3452 181.076 35.3418 179.847 35.3418C178.618 35.3418 177.621 34.3452 177.621 33.1148C177.621 31.8853 178.618 30.8887 179.847 30.8887C181.076 30.8887 182.074 31.8853 182.074 33.1148Z" fill="#9BB20E"/>
<path fill-rule="evenodd" clip-rule="evenodd" d="M181.183 33.1148C181.183 34.3452 180.186 35.3418 178.957 35.3418C177.727 35.3418 176.73 34.3452 176.73 33.1148C176.73 31.8853 177.727 30.8887 178.957 30.8887C180.186 30.8887 181.183 31.8853 181.183 33.1148Z" fill="#BFD730"/>
<ellipse cx="269.523" cy="62.5886" rx="20.9789" ry="20.946" fill="#99DCAB"/>
<ellipse cx="268.524" cy="61.591" rx="20.9789" ry="20.946" fill="white"/>
<ellipse cx="216.576" cy="114.455" rx="24.9749" ry="24.9357" fill="#99DCAB"/>
<ellipse cx="215.577" cy="112.46" rx="24.9749" ry="24.9357" fill="white"/>
<path fill-rule="evenodd" clip-rule="evenodd" d="M204.048 124.859C203.619 124.794 203.52 124.767 203.433 124.679C203.346 124.59 203.292 124.462 203.292 124.089C203.292 115.144 203.292 109.118 203.292 106.563C203.292 106.531 203.292 106.495 203.292 106.455C203.292 106.213 203.489 106.017 203.731 106.017C212.827 108.172 220.056 103.349 229.152 105.504C229.552 105.633 229.636 105.721 229.71 105.804C229.785 105.886 229.855 106.097 229.855 106.281C229.854 113.338 229.854 119.244 229.855 123.978C229.855 124.155 229.737 124.33 229.564 124.289C229.546 124.285 229.528 124.28 229.509 124.273C220.414 122.116 214.965 126.535 204.048 124.859Z" fill="#1868AB"/>
<path fill-rule="evenodd" clip-rule="evenodd" d="M201.725 121.73C201.285 121.667 201.182 121.641 201.093 121.556C201.004 121.471 200.949 121.348 200.949 120.99C200.949 112.398 200.949 106.609 200.949 104.155C200.949 104.133 200.949 104.108 200.949 104.081C200.949 103.832 201.15 103.63 201.399 103.63C210.753 105.701 218.187 101.067 227.54 103.138C227.951 103.261 228.038 103.346 228.114 103.426C228.191 103.505 228.263 103.707 228.263 103.884C228.262 110.663 228.262 116.336 228.263 120.883C228.263 121.053 228.15 121.216 227.983 121.186C227.958 121.182 227.933 121.175 227.908 121.166C218.554 119.095 212.951 123.339 201.725 121.73Z" fill="#5297D1"/>
<path fill-rule="evenodd" clip-rule="evenodd" d="M214.606 117.408C211.838 117.408 209.594 115.165 209.594 112.398C209.594 109.631 211.838 107.387 214.606 107.387C217.373 107.387 219.616 109.631 219.616 112.398C219.616 115.165 217.373 117.408 214.606 117.408Z" fill="white"/>
<path d="M222.13 105.909H225.66" stroke="white" stroke-width="1.85526" stroke-linecap="round"/>
<path d="M203.454 119.252H206.985" stroke="white" stroke-width="1.85526" stroke-linecap="round"/>
<circle cx="224.386" cy="122.123" r="5.85938" fill="#E07E26" stroke="white" stroke-width="0.78125"/>
<path d="M225.025 120.365V118.607L227.902 121.537H220.871V120.365H225.025Z" fill="white"/>
<path d="M227.902 122.709V123.881L223.747 123.881L223.747 125.639L220.871 122.709L227.902 122.709Z" fill="white"/>
<path d="M257.072 62.2288C256.742 62.1432 256.541 61.7966 256.624 61.4546C257.313 58.599 259.242 56.2436 261.835 55.0738L262.053 54.9798L261.167 54.52C260.863 54.3623 260.74 53.9788 260.892 53.6635C261.032 53.3744 261.354 53.243 261.641 53.3446L261.718 53.3781L263.828 54.4727L263.873 54.4984L263.933 54.5411L263.99 54.5942L264.044 54.6587L264.082 54.7164L264.107 54.7644L264.14 54.8521L264.158 54.9255L264.168 55.0101L264.167 55.0944L264.156 55.1739L264.128 55.2724L264.104 55.3292L264.079 55.3758L264.037 55.4386L264.001 55.4814L263.937 55.5425L263.857 55.5987L263.804 55.6268L262.545 56.1496C260.192 57.1254 258.434 59.2144 257.818 61.7645C257.736 62.1065 257.402 62.3144 257.072 62.2288Z" fill="#00AB4E"/>
<path d="M279.514 62.9548C279.844 63.0404 280.044 63.387 279.962 63.729C279.273 66.5846 277.344 68.94 274.751 70.1098L274.532 70.2038L275.419 70.6636C275.723 70.8213 275.846 71.2048 275.694 71.5201C275.554 71.8092 275.232 71.9406 274.945 71.839L274.868 71.8055L272.757 70.7109L272.713 70.6852L272.653 70.6425L272.596 70.5894L272.542 70.5249L272.504 70.4672L272.479 70.4192L272.446 70.3315L272.428 70.2581L272.418 70.1735L272.419 70.0892L272.43 70.0097L272.458 69.9112L272.482 69.8544L272.507 69.8078L272.549 69.745L272.585 69.7022L272.649 69.6411L272.729 69.5849L272.782 69.5568L274.041 69.0339C276.394 68.0582 278.152 65.9692 278.768 63.4191C278.85 63.0771 279.184 62.8692 279.514 62.9548Z" fill="#00AB4E"/>
<path fill-rule="evenodd" clip-rule="evenodd" d="M280.607 60.4503C279.689 60.5556 268.585 60.5556 267.668 60.4503C267.185 60.395 266.849 60.0043 266.93 59.5849C267.038 59.0314 267.252 58.0907 267.684 56.5477C268.193 54.7324 268.551 53.8705 268.759 53.469C268.873 53.2489 269.096 53.0905 269.367 53.0432C269.946 52.9413 278.328 52.9413 278.907 53.0432C279.178 53.0905 279.401 53.2489 279.515 53.469C279.723 53.8705 280.081 54.7324 280.589 56.5477C281.022 58.0907 281.237 59.0314 281.344 59.5849C281.425 60.0043 281.089 60.395 280.607 60.4503Z" fill="#CC9D3F"/>
<mask id="mask5_5567_147308" style="mask-type:alpha" maskUnits="userSpaceOnUse" x="266" y="52" width="16" height="9">
<path fill-rule="evenodd" clip-rule="evenodd" d="M280.607 60.4503C279.689 60.5556 268.585 60.5556 267.668 60.4503C267.185 60.395 266.849 60.0043 266.93 59.5849C267.038 59.0314 267.252 58.0907 267.684 56.5477C268.193 54.7324 268.551 53.8705 268.759 53.469C268.873 53.2489 269.096 53.0905 269.367 53.0432C269.946 52.9413 278.328 52.9413 278.907 53.0432C279.178 53.0905 279.401 53.2489 279.515 53.469C279.723 53.8705 280.081 54.7324 280.589 56.5477C281.022 58.0907 281.237 59.0314 281.344 59.5849C281.425 60.0043 281.089 60.395 280.607 60.4503Z" fill="white"/>
</mask>
<g mask="url(#mask5_5567_147308)">
<path fill-rule="evenodd" clip-rule="evenodd" d="M278.544 59.7628C277.627 59.8681 266.522 59.8681 265.605 59.7628C265.122 59.7075 264.787 59.3168 264.867 58.8974C264.975 58.3439 265.189 57.4032 265.622 55.8602C266.13 54.0449 266.488 53.183 266.696 52.7815C266.81 52.5614 267.033 52.403 267.305 52.3557C267.883 52.2538 276.265 52.2538 276.844 52.3557C277.116 52.403 277.339 52.5614 277.453 52.7815C277.661 53.183 278.019 54.0449 278.527 55.8602C278.959 57.4032 279.174 58.3439 279.281 58.8974C279.362 59.3168 279.026 59.7075 278.544 59.7628Z" fill="#FFC54F"/>
</g>
<path fill-rule="evenodd" clip-rule="evenodd" d="M268.919 71.4503C268.002 71.5556 256.897 71.5556 255.98 71.4503C255.497 71.395 255.162 71.0043 255.242 70.5849C255.35 70.0314 255.564 69.0907 255.997 67.5477C256.505 65.7324 256.863 64.8705 257.071 64.469C257.185 64.2489 257.408 64.0905 257.68 64.0432C258.258 63.9413 266.64 63.9413 267.219 64.0432C267.491 64.0905 267.714 64.2489 267.828 64.469C268.036 64.8705 268.394 65.7324 268.902 67.5477C269.334 69.0907 269.549 70.0314 269.656 70.5849C269.737 71.0043 269.401 71.395 268.919 71.4503Z" fill="#CC9D3F"/>
<mask id="mask6_5567_147308" style="mask-type:alpha" maskUnits="userSpaceOnUse" x="255" y="63" width="15" height="9">
<path fill-rule="evenodd" clip-rule="evenodd" d="M268.919 71.4503C268.002 71.5556 256.897 71.5556 255.98 71.4503C255.497 71.395 255.162 71.0043 255.242 70.5849C255.35 70.0314 255.564 69.0907 255.997 67.5477C256.505 65.7324 256.863 64.8705 257.071 64.469C257.185 64.2489 257.408 64.0905 257.68 64.0432C258.258 63.9413 266.64 63.9413 267.219 64.0432C267.491 64.0905 267.714 64.2489 267.828 64.469C268.036 64.8705 268.394 65.7324 268.902 67.5477C269.334 69.0907 269.549 70.0314 269.656 70.5849C269.737 71.0043 269.401 71.395 268.919 71.4503Z" fill="white"/>
</mask>
<g mask="url(#mask6_5567_147308)">
<path fill-rule="evenodd" clip-rule="evenodd" d="M266.857 70.7628C265.939 70.8681 254.835 70.8681 253.918 70.7628C253.435 70.7075 253.099 70.3168 253.18 69.8974C253.288 69.3439 253.502 68.4032 253.934 66.8602C254.443 65.0449 254.801 64.183 255.009 63.7815C255.123 63.5614 255.346 63.403 255.617 63.3557C256.196 63.2538 264.578 63.2538 265.157 63.3557C265.428 63.403 265.651 63.5614 265.765 63.7815C265.973 64.183 266.331 65.0449 266.839 66.8602C267.272 68.4032 267.487 69.3439 267.594 69.8974C267.675 70.3168 267.339 70.7075 266.857 70.7628Z" fill="#FFC54F"/>
</g>
</g>
<defs>
<clipPath id="clip0_5567_147308">
<rect width="327.671" height="163.578" fill="white" transform="translate(0.79248 0.748047)"/>
</clipPath>
</defs>
</svg>
