<svg width="328" height="164" viewBox="0 0 328 164" fill="none" xmlns="http://www.w3.org/2000/svg">
<path d="M23.2189 161.504C33.6809 163.667 265.053 165.826 301.876 161.504C312.777 160.224 321.503 148.276 322.776 146.203C330.736 133.238 327.751 53.2794 325.761 26.266C324.69 11.7278 309.838 5.19571 302.871 3.03482C289.548 -1.09779 53.2799 -1.26366 22.2229 4.11573C8.32787 6.52168 3.29087 17.8712 2.29087 24.1796C-0.0421274 38.8847 -1.42113 129.331 2.31887 141.514C5.30487 151.239 12.7689 159.343 23.2189 161.504Z" fill="#EBFFE0"/>
<mask id="mask0_5567_155584" style="mask-type:alpha" maskUnits="userSpaceOnUse" x="0" y="0" width="328" height="164">
<path fill-rule="evenodd" clip-rule="evenodd" d="M23.2189 161.504C33.6809 163.667 265.053 165.826 301.876 161.504C312.777 160.224 321.503 148.276 322.776 146.203C330.736 133.238 327.751 53.2794 325.761 26.266C324.69 11.7278 309.838 5.19571 302.871 3.03482C289.548 -1.09779 53.2799 -1.26366 22.2229 4.11573C8.32787 6.52168 3.29087 17.8712 2.29087 24.1796C-0.0421274 38.8847 -1.42113 129.331 2.31887 141.514C5.30487 151.239 12.7689 159.343 23.2189 161.504Z" fill="white"/>
</mask>
<g mask="url(#mask0_5567_155584)">
<rect width="353" height="65" transform="matrix(-1 0 0 1 327 130)" fill="#BBF0D3"/>
<path d="M5.89127 142.643H70.9096C73.7958 142.643 76.1572 140.313 76.1572 137.464V83.5952C76.1572 80.7464 73.7958 78.416 70.9096 78.416H5.89127C3.00449 78.416 0.643021 80.7464 0.643021 83.5952V137.464C0.643021 140.313 3.00449 142.643 5.89127 142.643Z" fill="#BBF0D3"/>
<path d="M10.8951 109.044H66.3003C67.8075 109.044 69.0405 107.828 69.0405 106.34V90.0305C69.0405 88.5431 67.8075 87.3257 66.3003 87.3257H10.8951C9.38782 87.3257 8.1548 88.5431 8.1548 90.0305V106.34C8.1548 107.828 9.38782 109.044 10.8951 109.044Z" fill="#EAFFF2"/>
<path d="M10.8951 133.918H66.3003C67.8075 133.918 69.0405 132.702 69.0405 131.214V114.904C69.0405 113.417 67.8075 112.2 66.3003 112.2H10.8951C9.38782 112.2 8.1548 113.417 8.1548 114.904V131.214C8.1548 132.702 9.38782 133.918 10.8951 133.918Z" fill="#EAFFF2"/>
<path d="M22.6853 65.6871C22.6853 65.6871 25.4426 58.5111 17.6687 51.4641C17.6687 51.4641 13.2321 58.6911 22.6853 65.6871Z" fill="#B3EC91"/>
<path d="M22.2692 67.5932C22.2692 67.5932 29.7434 65.474 30.8062 55.1108C30.8062 55.1108 22.2844 55.9322 22.2692 67.5932Z" fill="#B3EC91"/>
<path d="M17.3577 65.3535H30.2783V71.0361C30.2783 73.6335 28.1455 75.7389 25.514 75.7389H22.1232C19.4912 75.7389 17.3577 73.6335 17.3577 71.0361V65.3535Z" fill="#BBF0D3"/>
<path d="M35.6585 99.2896C35.6585 100.892 36.9748 102.19 38.5975 102.19C40.2209 102.19 41.5366 100.892 41.5366 99.2896C41.5366 97.6876 40.2209 96.3892 38.5975 96.3892C36.9748 96.3892 35.6585 97.6876 35.6585 99.2896Z" fill="#DAF6E5"/>
<path d="M35.4607 122.94C35.4607 124.542 36.7764 125.84 38.3998 125.84C40.0232 125.84 41.3389 124.542 41.3389 122.94C41.3389 121.338 40.0232 120.039 38.3998 120.039C36.7764 120.039 35.4607 121.338 35.4607 122.94Z" fill="#DAF6E5"/>
<path d="M15.5645 78.9859H31.3908C33.8884 78.9859 35.9131 76.9879 35.9131 74.5237H11.0428C11.0428 76.9879 13.0675 78.9859 15.5645 78.9859Z" fill="#DAF6E5"/>
<path d="M323.364 100.852H260.352V21.9541H323.364V100.852Z" fill="#BBF0D3"/>
<mask id="mask1_5567_155584" style="mask-type:alpha" maskUnits="userSpaceOnUse" x="264" y="27" width="18" height="9">
<path fill-rule="evenodd" clip-rule="evenodd" d="M275.49 31.8295C275.936 31.6879 276.41 31.6135 276.905 31.6135C279.063 31.6135 280.876 33.0547 281.446 35.0233V35.0251H275.455H272.37H264.634C264.479 34.5031 264.391 33.9481 264.391 33.3733C264.391 30.2521 266.922 27.7219 270.049 27.7219C272.634 27.7219 274.813 29.4607 275.49 31.8295Z" fill="white"/>
</mask>
<g mask="url(#mask1_5567_155584)">
<path d="M284.83 38.4085H261.007V24.3379H284.83V38.4085Z" fill="#EDFFF5"/>
</g>
<path d="M324.379 104.843H259.336V99.5071H324.379V104.843Z" fill="white"/>
<path d="M324.379 61.8476H259.336V60.959H324.379V61.8476Z" fill="#EDFFF5"/>
<path d="M297.231 71.1027C297.998 69.1821 299.876 67.8291 302.071 67.8291C304.305 67.8291 306.207 69.2295 306.954 71.1975C307.512 70.8939 308.151 70.7247 308.832 70.7247C311.013 70.7247 312.778 72.4893 312.778 74.6649C312.778 74.8449 312.763 75.0255 312.74 75.2001H306.821H304.929H301.054H297.327H293.991C293.962 75.0255 293.948 74.8449 293.948 74.6649C293.948 72.7917 295.391 71.2497 297.231 71.1027Z" fill="white"/>
<path d="M324.76 24.5553H252.495V21.4761H324.76V24.5553Z" fill="#84D7CC"/>
<path d="M251.224 26.2401H251.885C252.649 26.2401 253.269 25.6203 253.269 24.8553V20.9847C253.269 20.2197 252.649 19.5999 251.885 19.5999H251.224C250.459 19.5999 249.839 20.2197 249.839 20.9847V24.8553C249.839 25.6203 250.459 26.2401 251.224 26.2401Z" fill="#84D7CC"/>
<path d="M255.196 44.9083C255.196 45.8029 255.92 46.5289 256.815 46.5289C257.71 46.5289 258.435 45.8029 258.435 44.9083C258.435 44.0143 257.71 43.2883 256.815 43.2883C255.92 43.2883 255.196 44.0143 255.196 44.9083Z" fill="#84D7CC"/>
<path d="M256.953 22.967L256.743 43.6268" stroke="#84D7CC" stroke-width="0.6768"/>
<path d="M281.133 89.7168C281.133 89.7168 283.839 82.5804 276.21 75.573C276.21 75.573 271.856 82.7592 281.133 89.7168Z" fill="#84D7CC"/>
<path d="M280.725 91.612C280.725 91.612 288.06 89.5048 289.103 79.1992C289.103 79.1992 280.74 80.0158 280.725 91.612Z" fill="#84D7CC"/>
<path d="M275.905 89.3848H288.585V95.0356C288.585 97.6186 286.492 99.712 283.909 99.712H280.582C277.999 99.712 275.905 97.6186 275.905 95.0356V89.3848Z" fill="#DAF6E5"/>
<path d="M284.395 89.3847L285.382 88.5021L280.906 88.8333L280.824 89.3847H284.395Z" fill="#EDFFF5"/>
<mask id="mask2_5567_155584" style="mask-type:alpha" maskUnits="userSpaceOnUse" x="280" y="88" width="6" height="2">
<path fill-rule="evenodd" clip-rule="evenodd" d="M284.395 89.3847H280.823L280.906 88.8333L285.383 88.5021L284.395 89.3847Z" fill="white"/>
</mask>
<g mask="url(#mask2_5567_155584)">
<path d="M289.336 99.9268H274.711V75.5518H289.336V99.9268Z" fill="#EDFFF5"/>
</g>
<mask id="mask3_5567_155584" style="mask-type:alpha" maskUnits="userSpaceOnUse" x="280" y="88" width="6" height="2">
<path fill-rule="evenodd" clip-rule="evenodd" d="M284.395 89.3847H280.823L280.906 88.8333L285.383 88.5021L284.395 89.3847Z" fill="white"/>
</mask>
<g mask="url(#mask3_5567_155584)">
<path d="M288.865 92.8671H277.342V85.0203H288.865V92.8671Z" fill="#EDFFF5"/>
</g>
<path d="M325.352 100.852H260.352V21.9541H325.352V100.852Z" fill="#BBF0D3"/>
<mask id="mask4_5567_155584" style="mask-type:alpha" maskUnits="userSpaceOnUse" x="264" y="27" width="18" height="9">
<path fill-rule="evenodd" clip-rule="evenodd" d="M275.49 31.8295C275.936 31.6879 276.41 31.6135 276.905 31.6135C279.063 31.6135 280.876 33.0547 281.446 35.0233V35.0251H275.455H272.37H264.634C264.479 34.5031 264.391 33.9481 264.391 33.3733C264.391 30.2521 266.922 27.7219 270.049 27.7219C272.634 27.7219 274.813 29.4607 275.49 31.8295Z" fill="white"/>
</mask>
<g mask="url(#mask4_5567_155584)">
<path d="M284.83 38.4085H261.007V24.3379H284.83V38.4085Z" fill="#EDFFF5"/>
</g>
<path d="M328.336 104.507H259.336V99.5071H328.336V104.507Z" fill="white"/>
<path d="M327.336 62.959H259.336V60.959H327.336V62.959Z" fill="#EDFFF5"/>
<path d="M297.231 71.1027C297.998 69.1821 299.876 67.8291 302.071 67.8291C304.305 67.8291 306.207 69.2295 306.954 71.1975C307.512 70.8939 308.151 70.7247 308.832 70.7247C311.013 70.7247 312.778 72.4893 312.778 74.6649C312.778 74.8449 312.763 75.0255 312.74 75.2001H306.821H304.929H301.054H297.327H293.991C293.962 75.0255 293.948 74.8449 293.948 74.6649C293.948 72.7917 295.391 71.2497 297.231 71.1027Z" fill="white"/>
<path d="M328.495 24.4761H252.495V21.4761H328.495V24.4761Z" fill="#84D7CC"/>
<path d="M251.224 26.2401H251.885C252.649 26.2401 253.269 25.6203 253.269 24.8553V20.9847C253.269 20.2197 252.649 19.5999 251.885 19.5999H251.224C250.459 19.5999 249.839 20.2197 249.839 20.9847V24.8553C249.839 25.6203 250.459 26.2401 251.224 26.2401Z" fill="#84D7CC"/>
<path d="M255.196 44.9083C255.196 45.8029 255.92 46.5289 256.815 46.5289C257.71 46.5289 258.435 45.8029 258.435 44.9083C258.435 44.0143 257.71 43.2883 256.815 43.2883C255.92 43.2883 255.196 44.0143 255.196 44.9083Z" fill="#84D7CC"/>
<path d="M256.953 22.967L256.743 43.6268" stroke="#84D7CC" stroke-width="0.6768"/>
<path d="M242.572 119.642C242.572 134.947 254.976 147.354 270.276 147.354C285.576 147.354 297.979 134.947 297.979 119.642C297.979 104.337 285.576 91.9297 270.276 91.9297C255.651 91.9297 243.675 103.264 242.644 117.63C242.596 118.294 242.572 118.965 242.572 119.642Z" fill="#84D7CC"/>
<path d="M242.572 116.066C242.572 131.371 254.976 143.778 270.276 143.778C285.576 143.778 297.979 131.371 297.979 116.066C297.979 100.761 285.576 88.354 270.276 88.354C255.651 88.354 243.675 99.6888 242.644 114.055C242.596 114.719 242.572 115.389 242.572 116.066Z" fill="white"/>
<path d="M218.147 35.2782C218.147 47.47 228.027 57.3539 240.216 57.3539C252.404 57.3539 262.285 47.47 262.285 35.2782C262.285 23.0863 252.404 13.2024 240.216 13.2024C228.566 13.2024 219.025 22.2318 218.204 33.6757C218.166 34.2047 218.147 34.7388 218.147 35.2782Z" fill="#84D7CC"/>
<path d="M218.147 32.4298C218.147 44.6216 228.027 54.5055 240.216 54.5055C252.404 54.5055 262.285 44.6216 262.285 32.4298C262.285 20.2379 252.404 10.354 240.216 10.354C228.566 10.354 219.025 19.3834 218.204 30.8273C218.166 31.3563 218.147 31.8904 218.147 32.4298Z" fill="white"/>
<path d="M261.87 114.678C262.629 113.669 263.864 113.167 265.091 113.37L276.496 115.245C277.722 115.447 278.73 116.317 279.127 117.516L282.035 126.336C282.21 126.867 282.255 127.44 282.164 127.992L281.852 129.887C281.606 131.378 280.217 132.398 278.753 132.156L257.534 128.666C256.072 128.426 255.081 127.016 255.327 125.523L255.638 123.629C255.729 123.076 255.954 122.547 256.29 122.1L261.87 114.678Z" fill="#00AB4E"/>
<path d="M255.85 108.023C260.714 104.389 266.63 102.919 272.507 103.886C278.384 104.852 283.518 108.14 286.961 113.14C287.568 114.02 287.365 115.257 286.509 115.897L282.884 118.604C282.032 119.239 280.744 119.027 280.14 118.152C279.28 116.904 278.25 115.824 277.08 114.947C276.494 114.514 276.193 113.757 276.304 113.111L276.412 109.548C273.165 107.903 270.561 107.476 266.993 107.999L265.973 111.32C265.852 112.057 265.348 112.662 264.644 112.906C263.25 113.366 261.927 114.06 260.713 114.965C260.288 115.284 259.767 115.412 259.244 115.326C258.723 115.241 258.27 114.953 257.969 114.514L255.396 110.779C254.79 109.898 254.994 108.662 255.85 108.023Z" fill="#00AB4E"/>
<path d="M269.942 117.429C266.969 116.939 264.156 118.958 263.67 121.931C263.179 124.905 265.198 127.714 268.171 128.201C271.144 128.692 273.953 126.676 274.443 123.703C274.93 120.73 272.914 117.916 269.942 117.429Z" fill="#BBF0D3"/>
<path d="M77.4339 39.8029C77.4339 50.9572 86.5151 59.9999 97.7169 59.9999C108.919 59.9999 118 50.9572 118 39.8029C118 28.6487 108.919 19.606 97.7169 19.606C87.0099 19.606 78.2412 27.8669 77.4864 38.3369C77.4514 38.8208 77.4339 39.3095 77.4339 39.8029Z" fill="#84D7CC"/>
<path d="M77.4339 37.197C77.4339 48.3512 86.5151 57.3939 97.7169 57.3939C108.919 57.3939 118 48.3512 118 37.197C118 26.0427 108.919 17 97.7169 17C87.0099 17 78.2412 25.261 77.4864 35.7309C77.4514 36.2148 77.4339 36.7035 77.4339 37.197Z" fill="white"/>
<path d="M128.015 137.91L125.628 149.984L113.778 133.937L108.48 123.342L98.5485 119.369L85.9665 120.031L85.3045 121.356C85.3045 121.356 94.5745 137.91 101.858 137.91L118.413 164.397L121.723 168.37L136.291 166.384L142.251 151.154L140.927 140.559L128.015 137.91Z" fill="#FFDAB8"/>
<mask id="mask5_5567_155584" style="mask-type:alpha" maskUnits="userSpaceOnUse" x="127" y="94" width="85" height="77">
<path fill-rule="evenodd" clip-rule="evenodd" d="M212 94.5293H127.002V170.608H212V94.5293Z" fill="white"/>
</mask>
<g mask="url(#mask5_5567_155584)">
<path d="M168.357 94.5293C168.357 94.5293 186.258 99.0043 191.479 101.242C196.7 103.479 198.938 103.479 201.921 110.938C204.42 117.186 210.06 133.902 211.825 139.164C212.206 140.299 212.24 141.812 211.178 142.45C205.114 146.092 206.788 150.981 192.956 148.768L198.181 168.37L137.776 170.608C137.776 170.608 136.848 152.147 137.776 145.278C137.776 145.278 132.723 145.784 128.457 142.314C127.213 141.303 126.707 139.637 127.173 138.104L135.47 110.844C136.488 107.5 136.666 106.725 139.361 104.499C141.158 103.015 147.467 100.065 158.288 95.6483L168.357 94.5293Z" fill="#63B5FA"/>
</g>
<path d="M207.42 143.749L211.828 164.285L196.318 167.772L189.688 145.613L207.42 143.749Z" fill="#FFDAB8"/>
<path d="M130.239 157.483C130.421 157.458 130.547 157.29 130.521 157.109C129.958 153.103 126.191 149.647 126.032 149.502C125.895 149.379 125.686 149.39 125.564 149.524C125.441 149.66 125.451 149.869 125.587 149.993C125.624 150.026 129.336 153.434 129.866 157.201C129.891 157.383 130.058 157.509 130.239 157.483Z" fill="#F4B696"/>
<path d="M88.1168 103.667L106.585 122.731C107.27 123.438 107.261 124.562 106.565 125.257L99.1938 132.629C98.4768 133.346 97.3108 133.331 96.6138 132.595L75.2458 110.072C74.3608 109.14 74.7098 107.607 75.9108 107.15L86.1818 103.237C86.8548 102.98 87.6158 103.15 88.1168 103.667Z" fill="#00AB4E"/>
<path d="M88.7793 102.343L107.247 121.407C107.931 122.114 107.923 123.239 107.227 123.934L99.8553 131.305C99.1393 132.022 97.9723 132.007 97.2753 131.272L75.9073 108.749C75.0233 107.816 75.3723 106.284 76.5733 105.826L86.8443 101.913C87.5173 101.657 88.2783 101.826 88.7793 102.343Z" fill="#28D677"/>
<path d="M88.3949 103.585L104.102 119.798C104.684 120.399 104.676 121.356 104.084 121.947L97.8149 128.216C97.2059 128.826 96.2139 128.813 95.6209 128.188L77.4479 109.033C76.6959 108.24 76.9929 106.936 78.0149 106.547L86.7489 103.219C87.3219 103.002 87.9689 103.145 88.3949 103.585Z" fill="white"/>
<path d="M100.535 126.322C100.535 127.236 101.276 127.977 102.19 127.977C103.105 127.977 103.846 127.236 103.846 126.322C103.846 125.407 103.105 124.666 102.19 124.666C101.276 124.666 100.535 125.407 100.535 126.322Z" fill="#00AB4E"/>
<path d="M181.783 121.38C182.328 107.746 192.836 105.28 198.45 104.938C199.648 106.156 200.725 107.946 201.922 110.938C204.421 117.186 212.639 140.945 214.404 146.207C214.785 147.342 214.534 148.583 213.757 149.494C211.352 152.313 204.907 157.488 191.075 155.275C190.82 155.275 186.563 153.364 186.376 151.25" fill="#3393E3"/>
<path d="M125.222 145.403C123.978 144.392 123.472 142.726 123.939 141.193L134.273 109.175C134.951 106.945 136.647 105.387 139.361 104.499C137.51 110.101 136.818 146.397 137.637 151.152C132.096 149.544 127.958 147.628 125.222 145.403Z" fill="#3393E3"/>
<path d="M113.116 135.262C113.116 135.262 114.44 129.302 113.778 126.654C113.293 124.715 111.39 120.649 110.404 118.607C110.026 117.824 109.349 117.231 108.524 116.956L103.466 115.27C102.354 114.899 101.214 115.827 101.395 116.986C101.533 117.867 102.14 118.802 103.845 119.369L107.818 120.694C107.818 120.694 106.494 122.68 107.818 126.654" fill="#FFDAB8"/>
<path d="M113.116 135.262C113.116 135.262 114.44 129.302 113.778 126.654C113.293 124.715 111.39 120.649 110.404 118.607C110.026 117.824 109.349 117.231 108.524 116.956L103.466 115.27C102.354 114.899 101.214 115.827 101.395 116.986C101.533 117.867 102.14 118.802 103.845 119.369L107.818 120.694C107.818 120.694 106.494 122.68 107.818 126.654" stroke="#FFB490"/>
</g>
<mask id="mask6_5567_155584" style="mask-type:alpha" maskUnits="userSpaceOnUse" x="0" y="0" width="328" height="164">
<path fill-rule="evenodd" clip-rule="evenodd" d="M23.2189 161.504C33.6809 163.667 265.053 165.826 301.876 161.504C312.777 160.224 321.503 148.276 322.776 146.203C330.736 133.238 327.751 53.2794 325.761 26.266C324.69 11.7278 309.838 5.19571 302.871 3.03482C289.548 -1.09779 53.2799 -1.26366 22.2229 4.11573C8.32787 6.52168 3.29087 17.8712 2.29087 24.1796C-0.0421274 38.8847 -1.42113 129.331 2.31887 141.514C5.30487 151.239 12.7689 159.343 23.2189 161.504Z" fill="white"/>
</mask>
<g mask="url(#mask6_5567_155584)">
<path d="M73.1536 99.2858L69.382 96.2632H53.0944C51.938 96.2632 51 95.3252 51 94.1688V77.0944C51 75.938 51.938 75 53.0944 75H74.464C75.6204 75 76.5584 75.938 76.5584 77.0944V97.6506C76.5584 99.4076 74.5242 100.385 73.1536 99.2858Z" fill="#84D7CC"/>
</g>
<mask id="mask7_5567_155584" style="mask-type:alpha" maskUnits="userSpaceOnUse" x="0" y="0" width="328" height="164">
<path fill-rule="evenodd" clip-rule="evenodd" d="M23.2189 161.504C33.6809 163.667 265.053 165.826 301.876 161.504C312.777 160.224 321.503 148.276 322.776 146.203C330.736 133.238 327.751 53.2794 325.761 26.266C324.69 11.7278 309.838 5.19571 302.871 3.03482C289.548 -1.09779 53.2799 -1.26366 22.2229 4.11573C8.32787 6.52168 3.29087 17.8712 2.29087 24.1796C-0.0421274 38.8847 -1.42113 129.331 2.31887 141.514C5.30487 151.239 12.7689 159.343 23.2189 161.504Z" fill="white"/>
</mask>
<g mask="url(#mask7_5567_155584)">
<path d="M71.1536 97.2858L67.382 94.2632H51.0944C49.938 94.2632 49 93.3252 49 92.1688V75.0944C49 73.938 49.938 73 51.0944 73H72.464C73.6204 73 74.5584 73.938 74.5584 75.0944V95.6506C74.5584 97.4076 72.5242 98.3848 71.1536 97.2858Z" fill="white"/>
</g>
<mask id="mask8_5567_155584" style="mask-type:alpha" maskUnits="userSpaceOnUse" x="0" y="0" width="328" height="164">
<path fill-rule="evenodd" clip-rule="evenodd" d="M23.2189 161.504C33.6809 163.667 265.053 165.826 301.876 161.504C312.777 160.224 321.503 148.276 322.776 146.203C330.736 133.238 327.751 53.2794 325.761 26.266C324.69 11.7278 309.838 5.19571 302.871 3.03482C289.548 -1.09779 53.2799 -1.26366 22.2229 4.11573C8.32787 6.52168 3.29087 17.8712 2.29087 24.1796C-0.0421274 38.8847 -1.42113 129.331 2.31887 141.514C5.30487 151.239 12.7689 159.343 23.2189 161.504Z" fill="white"/>
</mask>
<g mask="url(#mask8_5567_155584)">
<path d="M110.055 82.2636L108.891 84.3918L106.764 85.5553C106.412 85.7479 106.412 86.2521 106.764 86.4447L108.891 87.6082L110.055 89.7364C110.247 90.0879 110.752 90.0879 110.944 89.7364L112.108 87.6082L114.236 86.4447C114.588 86.2521 114.588 85.7479 114.236 85.5553L112.108 84.3918L110.944 82.2636C110.752 81.9121 110.247 81.9121 110.055 82.2636Z" fill="#FFD37B"/>
</g>
<mask id="mask9_5567_155584" style="mask-type:alpha" maskUnits="userSpaceOnUse" x="0" y="0" width="328" height="164">
<path fill-rule="evenodd" clip-rule="evenodd" d="M23.2189 161.504C33.6809 163.667 265.053 165.826 301.876 161.504C312.777 160.224 321.503 148.276 322.776 146.203C330.736 133.238 327.751 53.2794 325.761 26.266C324.69 11.7278 309.838 5.19571 302.871 3.03482C289.548 -1.09779 53.2799 -1.26366 22.2229 4.11573C8.32787 6.52168 3.29087 17.8712 2.29087 24.1796C-0.0421274 38.8847 -1.42113 129.331 2.31887 141.514C5.30487 151.239 12.7689 159.343 23.2189 161.504Z" fill="white"/>
</mask>
<g mask="url(#mask9_5567_155584)">
<path d="M192.889 24.3625L191.287 27.2888L188.362 28.8885C187.879 29.1533 187.879 29.8467 188.362 30.1115L191.287 31.7112L192.889 34.6375C193.152 35.1208 193.847 35.1208 194.11 34.6375L195.711 31.7112L198.638 30.1115C199.121 29.8467 199.121 29.1533 198.638 28.8885L195.711 27.2888L194.11 24.3625C193.847 23.8792 193.152 23.8792 192.889 24.3625Z" fill="#FFC54F"/>
</g>
<mask id="mask10_5567_155584" style="mask-type:alpha" maskUnits="userSpaceOnUse" x="0" y="0" width="328" height="164">
<path fill-rule="evenodd" clip-rule="evenodd" d="M23.2189 161.504C33.6809 163.667 265.053 165.826 301.876 161.504C312.777 160.224 321.503 148.276 322.776 146.203C330.736 133.238 327.751 53.2794 325.761 26.266C324.69 11.7278 309.838 5.19571 302.871 3.03482C289.548 -1.09779 53.2799 -1.26366 22.2229 4.11573C8.32787 6.52168 3.29087 17.8712 2.29087 24.1796C-0.0421274 38.8847 -1.42113 129.331 2.31887 141.514C5.30487 151.239 12.7689 159.343 23.2189 161.504Z" fill="white"/>
</mask>
<g mask="url(#mask10_5567_155584)">
<path d="M226.889 105.362L225.287 108.289L222.362 109.889C221.879 110.153 221.879 110.847 222.362 111.111L225.287 112.711L226.889 115.638C227.152 116.121 227.847 116.121 228.11 115.638L229.711 112.711L232.638 111.111C233.121 110.847 233.121 110.153 232.638 109.889L229.711 108.289L228.11 105.362C227.847 104.879 227.152 104.879 226.889 105.362Z" fill="#FFC54F"/>
</g>
<mask id="mask11_5567_155584" style="mask-type:alpha" maskUnits="userSpaceOnUse" x="0" y="0" width="328" height="164">
<path fill-rule="evenodd" clip-rule="evenodd" d="M23.2189 161.504C33.6809 163.667 265.053 165.826 301.876 161.504C312.777 160.224 321.503 148.276 322.776 146.203C330.736 133.238 327.751 53.2794 325.761 26.266C324.69 11.7278 309.838 5.19571 302.871 3.03482C289.548 -1.09779 53.2799 -1.26366 22.2229 4.11573C8.32787 6.52168 3.29087 17.8712 2.29087 24.1796C-0.0421274 38.8847 -1.42113 129.331 2.31887 141.514C5.30487 151.239 12.7689 159.343 23.2189 161.504Z" fill="white"/>
</mask>
<g mask="url(#mask11_5567_155584)">
<path d="M180.173 51.3805C180.173 51.3805 205.296 65.4407 179.349 85.5346L175.662 88.5078L180.173 51.3805Z" fill="#6C4A07"/>
<path d="M153.032 87.9171C153.032 87.9171 157.219 93.1501 155.125 98.3832C155.125 98.3832 158.265 113.035 177.104 98.3832C177.104 98.3832 176.057 90.0102 177.104 85.824L153.032 87.9171Z" fill="#FFB38F"/>
<path d="M183.826 59.1999C177.57 43.9528 156.491 45.7267 149.322 60.5666C146.466 66.4779 144.429 73.741 145.527 81.571C145.527 81.571 146.268 96.3534 163.734 92.9585C163.734 92.9585 173.179 92.1883 177.518 87.0805C181.856 81.9727 184.139 77.2637 185.195 71.7275C186.251 66.1917 185.852 64.137 183.826 59.1999Z" fill="#FFD9B7"/>
<path d="M151.805 78.2181C151.698 78.239 151.584 78.2263 151.478 78.1749C150.447 77.6755 149.823 76.9034 149.625 75.8828C148.969 72.5087 153.439 67.5189 153.63 67.3082C153.825 67.0948 154.156 67.0772 154.369 67.2709C154.583 67.465 154.6 67.7958 154.406 68.0101C153.206 69.3387 150.19 73.3084 150.652 75.6835C150.787 76.3731 151.206 76.8801 151.934 77.2334C152.194 77.3595 152.304 77.6725 152.177 77.9323C152.102 78.087 151.962 78.1877 151.805 78.2181Z" fill="#FFB38F"/>
<path d="M185.282 55.7183C185.282 55.7183 178.206 35.7703 152.065 49.3808C152.065 49.3808 148.613 51.3281 146.008 51.9188C145.188 52.1042 144.888 53.1114 145.482 53.7061C148.682 56.9138 157.643 63.223 176.435 59.5702C176.435 59.5702 184.654 57.9726 185.282 55.7183Z" fill="#6C4A07"/>
<path d="M175.008 57.7153C175.008 57.7153 173.063 70.8261 172.668 76.2799C172.622 76.9251 173.464 77.2097 173.825 76.6732L176.776 72.2981L177.518 87.0805L187.849 74.4104L185.482 56.7458L175.008 57.7153Z" fill="#6C4A07"/>
<path d="M176.848 72.2979C176.982 71.9108 177.356 71.6645 177.765 71.6954C179.279 71.8098 182.645 72.5767 181.823 77.1957C181.045 81.5637 176.823 82.1858 174.668 82.2123C174.04 82.22 173.596 81.607 173.803 81.0138L176.848 72.2979Z" fill="#FFD9B7"/>
<path d="M157.665 85.0817C156.235 85.3598 154.469 85.4237 152.385 84.9946C152.102 84.9366 151.919 84.6599 151.978 84.377C152.037 84.0939 152.314 83.9116 152.596 83.9698C158.231 85.1274 161.255 82.4165 161.381 82.3012C161.594 82.1053 161.923 82.1192 162.12 82.33C162.316 82.541 162.304 82.8708 162.093 83.0673C162 83.1548 160.482 84.5342 157.665 85.0817Z" fill="#FFB38F"/>
</g>
<mask id="mask12_5567_155584" style="mask-type:alpha" maskUnits="userSpaceOnUse" x="0" y="0" width="328" height="164">
<path fill-rule="evenodd" clip-rule="evenodd" d="M23.2189 161.504C33.6809 163.667 265.053 165.826 301.876 161.504C312.777 160.224 321.503 148.276 322.776 146.203C330.736 133.238 327.751 53.2794 325.761 26.266C324.69 11.7278 309.838 5.19571 302.871 3.03482C289.548 -1.09779 53.2799 -1.26366 22.2229 4.11573C8.32787 6.52168 3.29087 17.8712 2.29087 24.1796C-0.0421274 38.8847 -1.42113 129.331 2.31887 141.514C5.30487 151.239 12.7689 159.343 23.2189 161.504Z" fill="white"/>
</mask>
<g mask="url(#mask12_5567_155584)">
<path fill-rule="evenodd" clip-rule="evenodd" d="M280 137.395C280 143.136 284.654 147.79 290.395 147.79C296.136 147.79 300.79 143.136 300.79 137.395C300.79 131.655 296.136 127 290.395 127C284.654 127 280 131.655 280 137.395Z" fill="#28D677"/>
<path fill-rule="evenodd" clip-rule="evenodd" d="M293.442 134.948L289.165 139.077L287.319 137.595C286.746 137.135 285.886 137.198 285.397 137.74C284.908 138.279 284.976 139.091 285.551 139.551L288.366 141.812C288.622 142.018 288.937 142.12 289.25 142.12C289.606 142.12 289.961 141.989 290.227 141.731L295.393 136.743C295.919 136.235 295.909 135.42 295.37 134.925C295.105 134.681 294.761 134.56 294.417 134.56C294.062 134.56 293.708 134.689 293.442 134.948Z" fill="white"/>
</g>
<mask id="mask13_5567_155584" style="mask-type:alpha" maskUnits="userSpaceOnUse" x="0" y="0" width="328" height="164">
<path fill-rule="evenodd" clip-rule="evenodd" d="M23.2189 161.504C33.6809 163.667 265.053 165.826 301.876 161.504C312.777 160.224 321.503 148.276 322.776 146.203C330.736 133.238 327.751 53.2794 325.761 26.266C324.69 11.7278 309.838 5.19571 302.871 3.03482C289.548 -1.09779 53.2799 -1.26366 22.2229 4.11573C8.32787 6.52168 3.29087 17.8712 2.29087 24.1796C-0.0421274 38.8847 -1.42113 129.331 2.31887 141.514C5.30487 151.239 12.7689 159.343 23.2189 161.504Z" fill="white"/>
</mask>
<g mask="url(#mask13_5567_155584)">
<path fill-rule="evenodd" clip-rule="evenodd" d="M106 28.5C106 32.642 109.358 36 113.5 36C117.642 36 121 32.642 121 28.5C121 24.3584 117.642 21 113.5 21C109.358 21 106 24.3584 106 28.5Z" fill="#28D677"/>
<path fill-rule="evenodd" clip-rule="evenodd" d="M114.471 26.2563L111.676 28.9871L110.47 28.007C110.095 27.7027 109.533 27.7447 109.213 28.1032C108.894 28.4598 108.938 28.9967 109.314 29.3007L111.154 30.7965C111.321 30.9324 111.527 31 111.732 31C111.964 31 112.196 30.9136 112.37 30.7428L115.747 27.4435C116.09 27.1079 116.084 26.5688 115.732 26.2413C115.558 26.0801 115.333 26 115.109 26C114.877 26 114.645 26.0856 114.471 26.2563Z" fill="white"/>
</g>
<mask id="mask14_5567_155584" style="mask-type:alpha" maskUnits="userSpaceOnUse" x="0" y="0" width="328" height="164">
<path fill-rule="evenodd" clip-rule="evenodd" d="M23.2189 161.504C33.6809 163.667 265.053 165.826 301.876 161.504C312.777 160.224 321.503 148.276 322.776 146.203C330.736 133.238 327.751 53.2794 325.761 26.266C324.69 11.7278 309.838 5.19571 302.871 3.03482C289.548 -1.09779 53.2799 -1.26366 22.2229 4.11573C8.32787 6.52168 3.29087 17.8712 2.29087 24.1796C-0.0421274 38.8847 -1.42113 129.331 2.31887 141.514C5.30487 151.239 12.7689 159.343 23.2189 161.504Z" fill="white"/>
</mask>
<g mask="url(#mask14_5567_155584)">
<path fill-rule="evenodd" clip-rule="evenodd" d="M246 46.2765C246 50.2951 249.258 53.553 253.277 53.553C257.295 53.553 260.553 50.2951 260.553 46.2765C260.553 42.2583 257.295 39 253.277 39C249.258 39 246 42.2583 246 46.2765Z" fill="#28D677"/>
<path fill-rule="evenodd" clip-rule="evenodd" d="M255.409 44.5633L252.415 47.4535L251.123 46.4162C250.722 46.0941 250.12 46.1386 249.778 46.518C249.435 46.8955 249.483 47.4637 249.886 47.7854L251.856 49.3686C252.035 49.5124 252.255 49.584 252.475 49.584C252.724 49.584 252.973 49.4925 253.159 49.3118L256.775 45.8198C257.143 45.4645 257.136 44.894 256.759 44.5473C256.573 44.3768 256.332 44.292 256.092 44.292C255.843 44.292 255.596 44.3825 255.409 44.5633Z" fill="white"/>
</g>
<mask id="mask15_5567_155584" style="mask-type:alpha" maskUnits="userSpaceOnUse" x="0" y="0" width="328" height="164">
<path fill-rule="evenodd" clip-rule="evenodd" d="M23.2189 161.504C33.6809 163.667 265.053 165.826 301.876 161.504C312.777 160.224 321.503 148.276 322.776 146.203C330.736 133.238 327.751 53.2794 325.761 26.266C324.69 11.7278 309.838 5.19571 302.871 3.03482C289.548 -1.09779 53.2799 -1.26366 22.2229 4.11573C8.32787 6.52168 3.29087 17.8712 2.29087 24.1796C-0.0421274 38.8847 -1.42113 129.331 2.31887 141.514C5.30487 151.239 12.7689 159.343 23.2189 161.504Z" fill="white"/>
</mask>
<g mask="url(#mask15_5567_155584)">
<path d="M94.9593 27.7299L102.47 28.3869C103.227 28.4532 103.667 29.264 103.301 29.919L99.6766 36.4404C99.312 37.0965 99.752 37.9074 100.509 37.9736L104.164 38.2934C105.023 38.3685 105.433 39.3756 104.864 40.0127L93.539 52.7011L95.5708 44.1032C95.7154 43.4882 95.2748 42.8887 94.6367 42.8328L90.8523 42.5017C90.187 42.4435 89.7423 41.7947 89.9368 41.1643L93.862 28.4582C94.0075 27.9901 94.4648 27.6866 94.9593 27.7299Z" fill="#FFC54F"/>
</g>
<mask id="mask16_5567_155584" style="mask-type:alpha" maskUnits="userSpaceOnUse" x="0" y="0" width="328" height="164">
<path fill-rule="evenodd" clip-rule="evenodd" d="M23.2189 161.504C33.6809 163.667 265.053 165.826 301.876 161.504C312.777 160.224 321.503 148.276 322.776 146.203C330.736 133.238 327.751 53.2794 325.761 26.266C324.69 11.7278 309.838 5.19571 302.871 3.03482C289.548 -1.09779 53.2799 -1.26366 22.2229 4.11573C8.32787 6.52168 3.29087 17.8712 2.29087 24.1796C-0.0421274 38.8847 -1.42113 129.331 2.31887 141.514C5.30487 151.239 12.7689 159.343 23.2189 161.504Z" fill="white"/>
</mask>
<g mask="url(#mask16_5567_155584)">
<path d="M246.623 37.1934C246.291 40.9911 242.974 43.8037 239.216 43.4749C235.458 43.1461 232.68 39.8004 233.013 36.0027C233.345 32.2039 240.364 22.4951 241.046 22.5548C241.729 22.6146 246.955 33.3947 246.623 37.1934Z" fill="#63B5FA"/>
</g>
<mask id="mask17_5567_155584" style="mask-type:alpha" maskUnits="userSpaceOnUse" x="0" y="0" width="328" height="164">
<path fill-rule="evenodd" clip-rule="evenodd" d="M23.2189 161.504C33.6809 163.667 265.053 165.826 301.876 161.504C312.777 160.224 321.503 148.276 322.776 146.203C330.736 133.238 327.751 53.2794 325.761 26.266C324.69 11.7278 309.838 5.19571 302.871 3.03482C289.548 -1.09779 53.2799 -1.26366 22.2229 4.11573C8.32787 6.52168 3.29087 17.8712 2.29087 24.1796C-0.0421274 38.8847 -1.42113 129.331 2.31887 141.514C5.30487 151.239 12.7689 159.343 23.2189 161.504Z" fill="white"/>
</mask>
<g mask="url(#mask17_5567_155584)">
<path fill-rule="evenodd" clip-rule="evenodd" d="M65.9804 84.0047C65.9786 81.5283 63.9827 79.5342 61.5061 79.5342C59.0392 79.5343 57.0448 81.5287 57.0435 83.9969C57.0421 86.4826 59.0382 88.4791 61.5239 88.478C63.9807 88.4769 65.9822 86.4679 65.9804 84.0047ZM63.5991 82.6281C63.573 82.6134 63.5432 82.5967 63.508 82.5767C63.5841 82.7522 63.6579 82.9225 63.7302 83.0892C63.8696 83.4111 64.0035 83.72 64.1376 84.0288C64.3302 84.4723 64.523 84.9159 64.7166 85.359C64.8369 85.6343 64.7873 85.8009 64.5301 85.964C64.2618 86.1342 63.9595 86.196 63.6498 86.2242C63.1617 86.2687 62.681 86.2395 62.2304 86.0232C61.8669 85.8487 61.8031 85.6627 61.9633 85.2946C62.0621 85.0677 62.1607 84.8407 62.2593 84.6137C62.5506 83.943 62.842 83.2723 63.1376 82.6035C63.1947 82.4743 63.1851 82.417 63.0441 82.3628C62.0154 81.9676 60.988 81.9435 59.9545 82.3428C59.8386 82.3876 59.804 82.4242 59.8605 82.5521C60.1396 83.1836 60.4143 83.8171 60.6891 84.4506C60.8201 84.7526 60.9511 85.0546 61.0825 85.3563C61.2037 85.6346 61.1567 85.8008 60.9007 85.9624C60.7819 86.0374 60.6545 86.0959 60.5186 86.1315C59.9355 86.2845 59.3542 86.2892 58.7781 86.0984C58.6849 86.0676 58.5937 86.0245 58.5094 85.974C58.2273 85.805 58.1788 85.6436 58.3086 85.3452C58.6777 84.4969 59.0461 83.6483 59.4146 82.7997L59.4441 82.7317C59.457 82.7021 59.4691 82.6721 59.485 82.6325C59.494 82.6102 59.5042 82.5849 59.5164 82.5549C59.4874 82.5709 59.462 82.5845 59.439 82.5968C59.3945 82.6206 59.3594 82.6394 59.3259 82.6608C59.3219 82.6634 59.3179 82.666 59.3139 82.6685C59.2266 82.7248 59.1429 82.7789 59.0617 82.6502C58.9857 82.5297 59.0672 82.4814 59.1442 82.4357C59.1518 82.4312 59.1593 82.4268 59.1667 82.4223C59.7262 82.0787 60.3308 81.8647 60.9852 81.7937C62.0218 81.6813 62.9726 81.9421 63.8679 82.45C63.9572 82.5007 64.0302 82.5475 63.9572 82.665C63.8885 82.7756 63.8079 82.7512 63.7192 82.6971C63.6838 82.6755 63.6476 82.6552 63.5991 82.6281Z" fill="#02A750"/>
<path d="M61.4956 91.788C59.2609 91.7579 57.3577 90.9442 55.8245 89.3196C54.5907 88.0122 53.9048 86.4435 53.7544 84.6472C53.7407 84.4847 53.7401 84.3211 53.7258 84.1586C53.7181 84.0715 53.7476 84.0495 53.8319 84.0516C54.0591 84.0571 54.2866 84.0573 54.5137 84.0511C54.6221 84.0482 54.6006 84.118 54.6025 84.179C54.6218 84.794 54.7098 85.3992 54.8896 85.9874C55.2244 87.0824 55.7904 88.0426 56.5982 88.8571C57.4843 89.7506 58.5331 90.3691 59.7514 90.6841C61.0519 91.0204 62.3479 90.9938 63.6294 90.5756C65.1966 90.0643 66.4311 89.1136 67.3229 87.7307C68.1101 86.5098 68.4683 85.1661 68.4066 83.7116C68.3337 81.9901 67.698 80.4983 66.5211 79.2545C65.3523 78.0192 63.9055 77.3066 62.2052 77.1353C60.7961 76.9934 59.4662 77.258 58.2209 77.9343C58.125 77.9864 58.0666 77.9863 58.0095 77.887C57.9107 77.7153 57.8098 77.5443 57.699 77.3802C57.632 77.281 57.6578 77.2352 57.754 77.1816C58.3437 76.8536 58.967 76.6089 59.6205 76.4482C60.83 76.1508 62.0465 76.1356 63.2606 76.4164C64.7719 76.766 66.0715 77.501 67.1383 78.6271C68.4646 80.0273 69.1867 81.6955 69.2814 83.6256C69.3738 85.5101 68.8505 87.2156 67.7081 88.7118C66.4792 90.3214 64.8533 91.3082 62.8552 91.6721C62.4059 91.754 61.9534 91.788 61.4956 91.788Z" fill="#BAD333"/>
<path d="M61.5275 77.9573C63.75 78.0325 65.4767 78.9878 66.6843 80.869C66.7513 80.9734 66.7397 81.0241 66.6317 81.0834C66.4789 81.1673 66.3291 81.2603 66.1903 81.3655C66.0649 81.4604 65.9992 81.4535 65.9128 81.3096C65.4879 80.6022 64.9154 80.0378 64.2157 79.6006C62.2937 78.3995 59.7187 78.6352 58.0478 80.175C56.8529 81.2762 56.287 82.6467 56.3509 84.2689C56.4467 86.7045 58.358 88.8156 60.7793 89.1112C62.9809 89.38 64.6943 88.5445 65.9151 86.6968C65.9729 86.6093 66.0093 86.5869 66.101 86.6528C66.2665 86.7718 66.4383 86.8832 66.6142 86.9862C66.7188 87.0475 66.7097 87.1023 66.6517 87.1919C65.6871 88.6847 64.3425 89.6317 62.5909 89.9485C59.8804 90.4387 57.2688 89.0939 56.0528 86.6153C54.6502 83.7566 55.827 80.1613 58.65 78.6758C59.5497 78.2024 60.5037 77.9532 61.5275 77.9573Z" fill="#74BC46"/>
<path fill-rule="evenodd" clip-rule="evenodd" d="M63.508 82.5767L63.704 83.0289L63.7044 83.0297C63.8532 83.3731 63.9953 83.701 64.1376 84.0288C64.3303 84.4723 64.523 84.9158 64.7166 85.3589C64.837 85.6343 64.7874 85.8009 64.5302 85.9639C64.2618 86.1341 63.9595 86.1959 63.6499 86.2241C63.1618 86.2686 62.681 86.2394 62.2305 86.0231C61.867 85.8487 61.8031 85.6627 61.9634 85.2945C62.0621 85.0676 62.1607 84.8406 62.2593 84.6136L62.2594 84.6135C62.5507 83.9429 62.842 83.2722 63.1376 82.6034C63.1947 82.4743 63.1852 82.4169 63.0442 82.3628C62.0155 81.9676 60.9881 81.9434 59.9546 82.3428C59.8386 82.3875 59.8041 82.4241 59.8606 82.552C60.1387 83.1815 60.4126 83.813 60.6864 84.4444C60.8183 84.7484 60.9502 85.0525 61.0826 85.3563C61.2037 85.6345 61.1567 85.8007 60.9007 85.9623C60.7819 86.0373 60.6545 86.0958 60.5186 86.1315C59.9356 86.2844 59.3542 86.2891 58.7781 86.0984C58.6849 86.0675 58.5938 86.0245 58.5095 85.974C58.2273 85.805 58.1788 85.6436 58.3087 85.3452C58.6775 84.4973 59.0457 83.6493 59.414 82.8012L59.4143 82.8005L59.4442 82.7316C59.457 82.702 59.4691 82.672 59.4851 82.6324L59.4851 82.6324L59.5165 82.5548C59.4873 82.5709 59.4617 82.5846 59.4385 82.597C59.3943 82.6207 59.3593 82.6394 59.3259 82.6608L59.314 82.6685C59.2267 82.7248 59.1429 82.7788 59.0618 82.6502C58.9858 82.5296 59.0673 82.4813 59.1443 82.4356L59.1667 82.4222C59.7262 82.0786 60.3309 81.8646 60.9852 81.7937C62.0218 81.6813 62.9726 81.9421 63.8679 82.45C63.9573 82.5007 64.0302 82.5474 63.9573 82.6649C63.8886 82.7756 63.808 82.7512 63.7193 82.697C63.6837 82.6754 63.6474 82.6551 63.5987 82.6278C63.5727 82.6132 63.543 82.5966 63.508 82.5767ZM59.6845 82.8607L59.6845 82.8607C59.6751 82.8687 59.6696 82.8734 59.667 82.8794C59.5586 83.1279 59.4504 83.3766 59.3423 83.6252L59.3422 83.6253C59.1139 84.1501 58.8856 84.6749 58.6556 85.1989C58.6069 85.3098 58.6622 85.3095 58.7374 85.3091L58.7475 85.3091C59.1774 85.3081 59.6074 85.3081 60.0374 85.3082L60.4597 85.3082H60.7778L59.7067 82.8409C59.6976 82.8495 59.6903 82.8557 59.6845 82.8607ZM63.3166 82.8635C63.3234 82.8581 63.3311 82.8519 63.3397 82.844C63.4111 83.0081 63.4821 83.1715 63.553 83.3343C63.708 83.6904 63.8618 84.0439 64.0152 84.3976C64.0546 84.4884 64.0934 84.5794 64.1322 84.6704C64.2029 84.8363 64.2736 85.0021 64.3477 85.1664C64.3912 85.2626 64.4029 85.3113 64.2665 85.3103C63.6375 85.3058 63.0085 85.3073 62.3795 85.3095C62.289 85.3097 62.246 85.2987 62.2919 85.1936C62.5035 84.7089 62.7137 84.2236 62.924 83.7383C63.0467 83.455 63.1694 83.1718 63.2924 82.8886C63.2963 82.8797 63.3048 82.8729 63.3166 82.8635Z" fill="#F3FAF6"/>
<path d="M59.7067 82.8408C60.0622 83.6597 60.4148 84.4717 60.7779 85.3081C60.6544 85.3081 60.557 85.3081 60.4597 85.3081C59.889 85.3082 59.3182 85.3076 58.7475 85.309C58.6672 85.3092 58.6047 85.3146 58.6556 85.1988C58.9947 84.4264 59.3299 83.6525 59.667 82.8793C59.6712 82.8696 59.6832 82.8632 59.7067 82.8408Z" fill="#04A650"/>
<path d="M63.3398 82.844C63.5673 83.3671 63.7917 83.8822 64.0153 84.3976C64.1264 84.6537 64.233 84.912 64.3478 85.1664C64.3912 85.2626 64.403 85.3113 64.2666 85.3103C63.6376 85.3057 63.0086 85.3073 62.3796 85.3095C62.2891 85.3098 62.2461 85.2987 62.292 85.1936C62.6271 84.426 62.9588 83.6569 63.2925 82.8886C63.2986 82.8747 63.3161 82.8658 63.3398 82.844Z" fill="#04A650"/>
</g>
</svg>
