<svg width="328" height="164" viewBox="0 0 328 164" fill="none" xmlns="http://www.w3.org/2000/svg">
<path d="M23.2189 161.504C33.6809 163.667 265.053 165.826 301.876 161.504C312.777 160.224 321.503 148.276 322.776 146.203C330.736 133.238 327.751 53.2794 325.761 26.266C324.69 11.7278 309.838 5.19571 302.871 3.03482C289.548 -1.09779 53.2799 -1.26366 22.2229 4.11573C8.32787 6.52168 3.29087 17.8712 2.29087 24.1796C-0.0421274 38.8847 -1.42113 129.331 2.31887 141.514C5.30487 151.239 12.7689 159.343 23.2189 161.504Z" fill="#BBF0D3"/>
<mask id="mask0_5567_164210" style="mask-type:alpha" maskUnits="userSpaceOnUse" x="0" y="0" width="328" height="164">
<path fill-rule="evenodd" clip-rule="evenodd" d="M23.2189 161.504C33.6809 163.667 265.053 165.826 301.876 161.504C312.777 160.224 321.503 148.276 322.776 146.203C330.736 133.238 327.751 53.2794 325.761 26.266C324.69 11.7278 309.838 5.19571 302.871 3.03482C289.548 -1.09779 53.2799 -1.26366 22.2229 4.11573C8.32787 6.52168 3.29087 17.8712 2.29087 24.1796C-0.0421274 38.8847 -1.42113 129.331 2.31887 141.514C5.30487 151.239 12.7689 159.343 23.2189 161.504Z" fill="white"/>
</mask>
<g mask="url(#mask0_5567_164210)">
<path d="M-15.4404 171.888H365.36V-24.4395H-15.4404V171.888Z" fill="#DDF7E9"/>
<path d="M155.704 100.11C155.704 100.11 153.619 109.62 155.295 125.148C155.692 128.82 161.3 137.354 167.326 144.925C174.554 154.006 183.111 161.92 183.111 161.92L187.508 170.5L197.927 159.982L197.008 154.004C194.755 152.805 193.751 150.082 193.997 145.833C194.242 141.584 191.216 136.938 184.918 131.895L167.326 111.679L160.873 100.98L155.704 100.11Z" fill="#F2CBA8"/>
<path d="M178.491 133.949C178.491 133.949 179.752 135.085 180.858 135.672C181.964 136.26 187.464 133.949 187.464 133.949L183.884 131.086L178.491 133.949Z" fill="#E79E5C"/>
<path d="M210.749 115.695L162.093 143.034C157.916 145.381 152.628 143.898 150.281 139.721L106.532 61.8589C104.185 57.6826 105.668 52.3935 109.845 50.0468L158.501 22.7083C162.677 20.3617 167.966 21.8449 170.313 26.0218L214.062 103.883C216.409 108.061 214.925 113.349 210.749 115.695Z" fill="#00853E"/>
<path d="M211.112 112.863L162.457 140.202C158.28 142.549 152.991 141.065 150.644 136.889L106.895 59.0266C104.548 54.8503 106.031 49.5612 110.208 47.2145L158.864 19.876C163.04 17.5294 168.33 19.0126 170.676 23.1896L214.425 101.051C216.772 105.228 215.289 110.516 211.112 112.863Z" fill="white"/>
<path d="M141.021 101.934L166.08 88.1496" stroke="#F6923B" stroke-width="1.30648" stroke-linecap="round" stroke-linejoin="round"/>
<path d="M170.21 85.8588L180.136 80.4301" stroke="#FFD07B" stroke-width="1.68" stroke-linecap="round" stroke-linejoin="round"/>
<path d="M144.254 107.298L162.756 96.8025" stroke="#F6923B" stroke-width="1.30648" stroke-linecap="round" stroke-linejoin="round"/>
<path d="M166.416 95.0819L184.918 84.5867" stroke="#F6923B" stroke-width="1.30648" stroke-linecap="round" stroke-linejoin="round"/>
<path d="M150.612 119.826L159.797 114.693" stroke="#3390E0" stroke-width="1.288" stroke-linecap="round" stroke-linejoin="round"/>
<path d="M163.031 112.782L179.243 103.79" stroke="#3390E0" stroke-width="1.288" stroke-linecap="round" stroke-linejoin="round"/>
<path d="M153.917 123.989L172.087 113.833" stroke="#FFD07B" stroke-width="1.68" stroke-linecap="round" stroke-linejoin="round"/>
<path d="M156.468 128.88L178.986 116.158" stroke="#FFD07B" stroke-width="1.68" stroke-linecap="round" stroke-linejoin="round"/>
<path d="M181.865 114.754L190.885 109.712" stroke="#FFD07B" stroke-width="1.68" stroke-linecap="round" stroke-linejoin="round"/>
<path d="M193.725 107.75L202.746 102.708" stroke="#FFD07B" stroke-width="1.68" stroke-linecap="round" stroke-linejoin="round"/>
<path fill-rule="evenodd" clip-rule="evenodd" d="M206.492 17.0165C205.224 17.0882 203.995 17.3542 202.806 17.815C201.463 18.3353 200.308 19.0902 199.338 20.0808C198.368 21.0714 197.608 22.1511 197.056 23.3187C196.503 24.4874 196.167 25.6858 196.046 26.9128C195.925 28.1409 196.042 29.2525 196.399 30.2459C196.508 30.5276 196.677 30.7208 196.907 30.8255C197.137 30.9308 197.366 30.9386 197.594 30.8507L200.67 29.6585C200.998 29.5314 201.203 29.3634 201.282 29.1545C201.361 28.9467 201.404 28.6628 201.411 28.3033C201.497 25.5212 202.616 23.7118 204.768 22.878C206.11 22.3578 207.319 22.2855 208.396 22.6607C209.472 23.0365 210.218 23.7578 210.633 24.8262C210.862 25.4176 210.907 26.023 210.769 26.6429C210.63 27.2628 210.404 27.9169 210.088 28.6046C209.773 29.2939 209.421 30.0208 209.033 30.7852C208.645 31.5502 208.32 32.3638 208.057 33.2257C207.795 34.0875 207.64 35.0054 207.595 35.9764C207.549 36.9491 207.714 37.9935 208.089 39.1096C208.183 39.4294 208.381 39.6601 208.684 39.8012C208.986 39.9429 209.276 39.9597 209.555 39.8516L212.441 38.7333C212.719 38.6258 212.904 38.4253 212.994 38.1307C213.083 37.8378 213.094 37.5265 213.024 37.1966C212.861 36.5487 212.872 35.8818 213.057 35.1946C213.242 34.5086 213.499 33.8187 213.827 33.1249C214.155 32.4316 214.503 31.698 214.874 30.9235C215.243 30.1496 215.547 29.3365 215.785 28.4842C216.022 27.6318 216.138 26.7297 216.133 25.7771C216.127 24.8246 215.907 23.7858 215.471 22.6602C214.937 21.2826 214.2 20.1687 213.259 19.3198C212.318 18.4714 211.273 17.8576 210.122 17.4785C208.971 17.0994 207.76 16.9465 206.492 17.0165ZM214.464 41.2494C214.174 41.1032 213.89 41.0836 213.612 41.1911L210.346 42.4567C210.068 42.5648 209.871 42.7703 209.756 43.0738C209.64 43.3779 209.643 43.6842 209.763 43.9934L211.202 47.7062C211.322 48.0164 211.526 48.2443 211.816 48.3899C212.106 48.5372 212.389 48.5557 212.668 48.4482L215.934 47.1826C216.213 47.0745 216.409 46.8695 216.524 46.5654C216.64 46.2625 216.638 45.9556 216.517 45.6459L215.079 41.9331C214.959 41.6234 214.754 41.3961 214.464 41.2494Z" fill="#F9953B"/>
<path d="M169.144 67.7263C167.987 67.2458 166.077 67.3019 165.589 68.5469C164.53 71.2454 162.936 73.7875 160.203 75.2091C155.301 77.7593 149.308 76.1192 146.345 71.5885L147.245 71.1197C147.597 70.9367 147.818 70.5744 147.82 70.1779C147.822 69.7815 147.604 69.4161 147.253 69.2301L144.828 67.9407L141.153 65.9859C140.843 65.8206 140.471 65.8191 140.159 65.9813C140.12 66.0019 140.083 66.0242 140.047 66.0486C140.011 66.0736 139.977 66.1001 139.945 66.1287C139.864 66.1995 139.795 66.2818 139.74 66.3732C139.662 66.501 139.611 66.6455 139.592 66.7978L138.747 73.6556C138.699 74.0492 138.872 74.4373 139.198 74.6632C139.524 74.8891 139.948 74.9161 140.3 74.7333L141.277 74.2248C143.745 78.3091 147.837 81.1066 152.712 81.9136C155.415 82.3601 158.208 82.0969 160.781 81.1613C165.699 79.3713 169.349 75.5385 170.887 70.6644C171.277 69.3129 170.3 68.2068 169.144 67.7263Z" fill="#3390E0"/>
<path fill-rule="evenodd" clip-rule="evenodd" d="M169.144 67.7263C167.987 67.2458 166.077 67.3019 165.589 68.5469C164.53 71.2454 162.936 73.7875 160.203 75.2091C155.301 77.7593 149.308 76.1192 146.345 71.5885L147.245 71.1197C147.597 70.9367 147.818 70.5744 147.82 70.1779C147.822 69.7815 147.604 69.4161 147.253 69.2301L144.828 67.9407L141.153 65.9859C140.843 65.8206 140.471 65.8191 140.159 65.9813C140.12 66.0019 140.083 66.0242 140.047 66.0486C140.011 66.0736 139.977 66.1001 139.945 66.1287C139.864 66.1995 139.795 66.2818 139.74 66.3732C139.662 66.501 139.611 66.6455 139.592 66.7978L138.747 73.6556C138.699 74.0492 138.872 74.4373 139.198 74.6632C139.524 74.8891 139.948 74.9161 140.3 74.7333L141.277 74.2248C143.745 78.3091 147.837 81.1066 152.712 81.9136C155.415 82.3601 158.208 82.0969 160.781 81.1613C165.699 79.3713 169.349 75.5385 170.887 70.6644C171.277 69.3129 170.3 68.2068 169.144 67.7263Z" stroke="white" stroke-width="2.8"/>
<path d="M171.353 56.8136C171.027 56.5878 170.603 56.5607 170.252 56.7436L169.274 57.2515C166.806 53.1683 162.716 50.3708 157.841 49.5637C155.139 49.1166 152.346 49.3798 149.772 50.3148C144.853 52.1043 141.203 55.9377 139.665 60.8124C139.625 63.0539 142.897 64.5715 144.132 63.8772C144.542 63.6464 144.855 63.3259 144.963 62.9299C145.722 60.1323 147.615 57.6893 150.348 56.2677C155.251 53.7176 161.243 55.3571 164.207 59.8889L163.306 60.3572C162.955 60.5401 162.733 60.9025 162.732 61.2989C162.73 61.6954 162.948 62.0608 163.298 62.2468L165.723 63.5362L169.399 65.491C169.476 65.5322 169.557 65.5629 169.64 65.5841C169.891 65.6469 170.158 65.6169 170.393 65.4956C170.704 65.3334 170.916 65.0278 170.959 64.679L171.264 62.2028L171.804 57.8217C171.852 57.4277 171.679 57.0395 171.353 56.8136Z" fill="#3390E0"/>
<path fill-rule="evenodd" clip-rule="evenodd" d="M171.353 56.8136C171.027 56.5878 170.603 56.5607 170.252 56.7436L169.274 57.2515C166.806 53.1683 162.716 50.3708 157.841 49.5637C155.139 49.1166 152.346 49.3798 149.772 50.3148C144.853 52.1043 141.203 55.9377 139.665 60.8124C139.625 63.0539 142.897 64.5715 144.132 63.8772C144.542 63.6464 144.855 63.3259 144.963 62.9299C145.722 60.1323 147.615 57.6893 150.348 56.2677C155.251 53.7176 161.243 55.3571 164.207 59.8889L163.306 60.3572C162.955 60.5401 162.733 60.9025 162.732 61.2989C162.73 61.6954 162.948 62.0608 163.298 62.2468L165.723 63.5362L169.399 65.491C169.476 65.5322 169.557 65.5629 169.64 65.5841C169.891 65.6469 170.158 65.6169 170.393 65.4956C170.704 65.3334 170.916 65.0278 170.959 64.679L171.264 62.2028L171.804 57.8217C171.852 57.4277 171.679 57.0395 171.353 56.8136Z" stroke="white" stroke-width="2.8"/>
<path fill-rule="evenodd" clip-rule="evenodd" d="M156.469 68.1708C156.406 68.0556 156.251 67.8969 156.002 67.696C155.262 67.1257 154.709 66.6923 154.342 66.3963C154.598 65.5757 154.504 64.757 154.061 63.9409C153.807 63.472 153.481 63.0973 153.086 62.8167C152.69 62.5356 152.287 62.3623 151.877 62.2955C151.028 62.159 150.285 62.2626 149.65 62.6073L147.311 63.8773C146.849 64.128 146.621 64.3786 146.626 64.6281C146.626 64.7684 146.644 64.8822 146.678 64.9708C146.713 65.0599 146.775 65.1869 146.864 65.353L150.127 71.3621C150.265 71.6147 150.389 71.7907 150.498 71.8903C150.73 72.1104 151.098 72.083 151.604 71.8085C152.065 71.5573 152.294 71.3072 152.289 71.0577C152.288 70.918 152.271 70.8041 152.237 70.7145C152.203 70.6265 152.14 70.4984 152.05 70.3323L151.385 69.109L152.75 68.3685L153.073 68.1641C154.199 69.0672 154.836 69.5677 154.982 69.6659C155.065 69.7139 155.17 69.7487 155.297 69.7679C155.425 69.7876 155.559 69.7591 155.7 69.683C155.84 69.6059 155.998 69.4544 156.175 69.2288C156.52 68.7977 156.619 68.4455 156.469 68.1708ZM151.731 66.4402L150.345 67.1928L149.304 65.2761L150.668 64.5357C150.892 64.4139 151.153 64.3778 151.45 64.426C151.748 64.4754 151.983 64.6588 152.155 64.9757C152.328 65.2937 152.353 65.5889 152.229 65.8603C152.107 66.1338 151.94 66.3268 151.731 66.4402Z" fill="#3390E0"/>
<path fill-rule="evenodd" clip-rule="evenodd" d="M154.895 63.8529L158.329 70.1758C158.419 70.3418 158.491 70.4614 158.545 70.534C158.599 70.6082 158.68 70.6805 158.789 70.7526C158.899 70.8241 159.031 70.8458 159.188 70.8157C159.345 70.7862 159.536 70.7111 159.76 70.5894C159.983 70.4682 160.148 70.3505 160.255 70.237C160.361 70.1235 160.412 69.9998 160.411 69.8646C160.408 69.7317 160.39 69.6213 160.358 69.5365C160.325 69.4507 160.265 69.3252 160.174 69.1592L158.986 66.9721C159.435 67.1586 159.954 67.0919 160.545 66.7705C161.138 66.4494 161.544 65.8686 161.766 65.0285C161.988 64.1889 161.898 63.4009 161.498 62.6648C161.098 61.9287 160.484 61.426 159.656 61.1555C158.827 60.8862 158.118 60.9105 157.53 61.2301C156.942 61.5497 156.612 61.9718 156.542 62.4955C156.418 62.32 156.264 62.2196 156.077 62.1945C155.89 62.17 155.607 62.2611 155.224 62.4686C154.841 62.6761 154.652 62.9049 154.657 63.1544C154.661 63.2832 154.68 63.3897 154.712 63.4761C154.744 63.5615 154.805 63.6869 154.895 63.8529ZM157.801 64.6866C157.676 64.4551 157.643 64.1969 157.704 63.912C157.764 63.6265 157.933 63.4092 158.211 63.2579C158.489 63.1076 158.767 63.0803 159.043 63.1772C159.321 63.2746 159.523 63.4423 159.653 63.6808C159.782 63.9187 159.806 64.182 159.724 64.469C159.642 64.7571 159.469 64.9719 159.205 65.1155C158.942 65.2585 158.673 65.2807 158.4 65.1813C158.126 65.0826 157.927 64.9169 157.801 64.6866Z" fill="#3390E0"/>
<path d="M179.851 73C179.851 73 176.65 78.8038 177.032 79.7933C177.412 80.7819 179.976 85.0342 185.242 79.4883C185.242 79.4883 184.329 91.2269 186.776 92.4738C189.223 93.7208 189.92 94.0292 189.92 94.0292C189.92 94.0292 189.024 97.4063 192.51 98.9494C192.51 98.9494 193.312 101.929 195.391 102.521C197.469 103.113 202.982 103.911 202.982 103.911C202.982 103.911 205.417 104.824 205.945 100.792C206.473 96.759 203.052 96.886 203.052 96.886L197.503 86.391L192.531 81.8935L187.585 78.0639L182.981 74.2215L179.851 73Z" fill="#F2CBA8"/>
<path d="M171.057 49.1159L168.704 55.3571L134.239 42.3639L136.591 36.1233L171.057 49.1159Z" fill="#EAFFF2"/>
<path d="M173.141 43.5886L172.165 46.1791L137.698 33.186L138.675 30.5955L173.141 43.5886Z" fill="#EAFFF2"/>
<path d="M167.988 60.3279L171.131 57.1213L189.658 75.2771L186.516 78.4842L167.988 60.3279Z" fill="#FFD07B"/>
<path d="M168.434 61.8257L173.123 57.6357L174.32 58.9327C175.218 59.9301 175.118 61.6269 174.12 62.524L173.223 63.3225C172.225 64.2202 170.529 64.1211 169.631 63.1226L168.434 61.8257Z" fill="#F6923B"/>
<path d="M164.741 59.232L170.827 53.8442L173.422 56.8374C174.22 57.7351 174.12 59.1318 173.222 59.9303L170.429 62.4246C169.531 63.2231 168.134 63.1229 167.336 62.2252L164.741 59.232Z" fill="#00662E"/>
<path d="M185 79.1284C185 79.1284 187.301 84.7749 189.431 86.0444C191.56 87.3143 192.958 87.6001 194.847 91.5756C196.735 95.5517 197.747 94.8398 197.747 94.8398C197.747 94.8398 196.775 96.5616 198.918 98.1682C201.06 99.7749 202.472 100.396 202.472 100.396L205 103C205 103 198.089 76.9587 185 79.1284Z" fill="#E79E5C"/>
<path d="M187 92C187 92 195.851 98.3236 198 95.069" stroke="#FFB18D" stroke-width="0.76328" stroke-linecap="round" stroke-linejoin="round"/>
<path d="M193 99.3345C193 99.3345 198.87 102.375 201.093 101.961C201.093 101.961 202.714 102.552 201.622 99" stroke="#FFB18D" stroke-width="0.76328" stroke-linecap="round" stroke-linejoin="round"/>
<path d="M179.106 74L178 76.7896C178 76.7896 183.042 84.0477 185 79.5048L179.106 74Z" fill="#E79E5C"/>
<path d="M178.806 68.4909C176.709 70.091 179.083 75.6985 181.599 77.6659C184.113 79.6338 189.786 82.1707 192.702 85.4984C195.618 88.826 196.192 97.1881 203.788 101.924C219.013 111.415 222.581 110.717 222.238 110.512L230.037 114C230.037 114 242.149 111.827 240.911 97.7822C240.911 97.7822 229.579 93.0516 225.553 88.0474C222.342 84.055 214.016 73.9125 210.779 69.972C209.895 68.8971 208.578 68.2631 207.176 68.2294C206.526 68.2137 188.119 62.3538 185.619 64.4547C182.936 66.7104 183.958 68.7263 183.958 68.7263C183.958 68.7263 181.176 66.6837 178.806 68.4909Z" fill="#F2CBA8"/>
<path d="M332.001 28.6392C332.001 28.6392 320.564 16.1842 319.8 8L288.001 26.1326C288.001 26.1326 295.765 36.7507 295.025 42L331.68 33.9125L332.001 28.6392Z" fill="#F2CBA8"/>
<path d="M250.499 -6.14447C250.499 -6.14447 248.413 15.0497 249.164 16.3232C249.585 17.0365 252.381 17.1171 254.757 17.0495C256.884 16.9886 258.829 18.2322 259.667 20.1706L265.44 33.5207C267.211 37.6156 272.208 39.2365 276.079 36.9723L292.691 27.2565L319.117 8.51588C319.117 8.51588 325.713 -32.9109 302.873 -38.3423C280.032 -43.7738 248.996 -36.5659 250.499 -6.14447Z" fill="#F2CBA8"/>
<path d="M292.001 32.9603C292.001 32.9603 310.257 18.8506 327.004 22.6493L332.001 28.9805L326.965 30.2467L300.945 37H293.06L292.001 32.9603Z" fill="#E79E5C"/>
<mask id="mask1_5567_164210" style="mask-type:alpha" maskUnits="userSpaceOnUse" x="223" y="92" width="88" height="57">
<path fill-rule="evenodd" clip-rule="evenodd" d="M223.215 92.2632H310.024V148.263H223.215V92.2632Z" fill="white"/>
</mask>
<g mask="url(#mask1_5567_164210)">
<path d="M228.053 116.158C230.452 120.901 251.587 132.173 291.456 149.974L312.756 114.145L243.852 93.4843C241.528 92.7998 238.357 91.7475 235.33 93.4843C232.302 95.2211 224.453 109.043 228.053 116.158Z" fill="#00853E"/>
</g>
<mask id="mask2_5567_164210" style="mask-type:alpha" maskUnits="userSpaceOnUse" x="233" y="20" width="128" height="156">
<path fill-rule="evenodd" clip-rule="evenodd" d="M233.119 20.1504H360.43V175.615H233.119V20.1504Z" fill="white"/>
</mask>
<g mask="url(#mask2_5567_164210)">
<path d="M291.874 34.0995C290.205 35.2927 289.2 37.1995 289.2 39.244C289.2 41.3857 288.105 43.3805 286.294 44.5394C286.294 44.5394 278.168 49.9833 273.774 52.4466C272.363 53.238 260.631 60.9244 258.443 73.972C256.014 88.4699 246.461 158.071 245.513 162.052C245.486 162.167 245.456 162.281 245.422 162.395L243.479 172.907C242.272 176.945 251.32 181 255.556 181L342.417 180.615C345.364 180.615 347.92 178.598 348.586 175.743C353.152 156.158 369.398 83.3849 362.927 65.7936C355.429 45.4139 344.432 37.9574 341.933 36.4665C340.449 35.5809 338.701 31.9797 337.525 29.1993C336.602 27.015 334.515 25.5428 332.138 25.3732C323.948 24.7886 305.068 24.6675 291.874 34.0995Z" fill="#00A84E"/>
</g>
<path d="M268.913 60.2339L268.038 61.7163C266.652 64.3915 265.419 68.5749 265.584 74.9266C265.947 88.8034 262.982 160.043 262.982 160.043L261.254 177.58L296.781 170.674L301.551 144.643C301.551 144.643 310.945 94.4679 299.391 73.4692C287.838 52.4704 268.913 60.2339 268.913 60.2339Z" fill="#00662E"/>
<path d="M287.104 55.4505C276.424 49.8478 267.709 55.9438 262.004 68.9718C256.3 81.9999 256.3 161.199 256.3 161.199L252.813 184.765L291.692 178.902L298.888 146.313C298.888 146.313 311.494 92.639 299.969 69.4864C296.309 62.133 291.696 57.8593 287.104 55.4505Z" fill="#00853E"/>
<path d="M270.001 -38.1422L275.459 -6.97192C275.68 -5.70872 276.719 -4.84797 277.884 -4.73825C278.64 -4.66704 279.357 -5.10218 279.694 -5.78201C280.578 -7.57018 283.122 -11.6802 286.875 -9.18405C290.375 -6.85558 289.779 -3.80173 289.743 0.685474C289.727 2.74815 301.207 14.9726 301.639 15.4893C303.191 17.3438 305.612 18.2989 308.038 17.9168C311.634 17.3504 312.203 16.7902 313.898 16.0901L320.758 13.2594C321.913 12.7825 322.357 11.3801 321.686 10.3273L321 9.25165C320.417 8.33748 320.199 7.23949 320.398 6.1742C321.711 -0.894859 325.655 -29.311 307.206 -42.306C286.045 -57.2109 270.001 -38.1422 270.001 -38.1422Z" fill="#864B16"/>
<path d="M208 82C208 82 205.277 81.0709 202.193 79.4652C199.11 77.8601 196.361 76.2422 195.665 75.5793C194.968 74.9159 192.529 72.5952 190.477 71.6398C188.426 70.6849 184 69.1318 184 69.1318C184 69.1318 185.677 69.0665 187.355 69.0012C189.034 68.9355 194.169 71.496 194.169 71.496C194.169 71.496 200.401 76.4295 201.756 76.7215C203.111 77.0134 206.233 79.653 206.233 79.653L208 82Z" fill="#E79E5C"/>
<path d="M173.001 117.033C174.434 115.6 176.032 115.244 177.794 115.964C179.573 116.691 179.853 116.892 178.356 130.485C177.814 135.409 177.999 133.905 181.354 136.425C181.858 136.804 183.359 141.451 184.004 141.899C184.198 142.033 184.18 143.254 184.388 143.385C190.447 147.222 186.551 160.569 186.551 160.569C186.551 160.569 169.485 154.007 169.346 139.841C169.346 139.841 168.624 134.406 170.047 126.768C170.489 124.396 171.474 121.151 173.001 117.033Z" fill="#F2CBA8"/>
<path d="M178.489 134.463C178.489 134.463 186.668 137.071 184.481 148.781" stroke="#FFB18D" stroke-width="0.74984" stroke-linecap="round"/>
<path d="M169.982 127.703C169.982 127.703 168.54 136.317 170.346 139.841" stroke="#FFB18D" stroke-width="0.74984" stroke-linecap="round"/>
<path fill-rule="evenodd" clip-rule="evenodd" d="M172.999 43.204C172.999 53.8743 164.35 62.524 153.679 62.524C143.009 62.524 134.359 53.8743 134.359 43.204C134.359 32.5338 143.009 23.884 153.679 23.884C164.35 23.884 172.999 32.5338 172.999 43.204Z" stroke="#00662E" stroke-width="3.70496"/>
<path d="M-17.7764 125.484H82.5437V-0.127686H-17.7764V125.484Z" fill="#BBF0D3"/>
<path d="M181.633 163.621L277.491 216.257L294.249 186.843L209.365 151.279C198.747 146.829 186.532 151.831 182.082 162.45C181.921 162.836 181.771 163.227 181.633 163.621Z" fill="#00853E"/>
<mask id="mask3_5567_164210" style="mask-type:alpha" maskUnits="userSpaceOnUse" x="32" y="12" width="29" height="12">
<path fill-rule="evenodd" clip-rule="evenodd" d="M42.4413 18.5943C41.7318 18.3681 40.9769 18.251 40.1896 18.251C36.754 18.251 33.8655 20.5453 32.96 23.6797V23.6813H42.4968H47.4091H59.7252C59.9727 22.852 60.1127 21.9672 60.1127 21.0521C60.1127 16.0838 56.0829 12.0552 51.1045 12.0552C46.9902 12.0552 43.5188 14.8233 42.4413 18.5943Z" fill="white"/>
</mask>
<g mask="url(#mask3_5567_164210)">
<path d="M27.5713 29.0686H65.4995V6.66748H27.5713V29.0686Z" fill="#EDFFF5"/>
</g>
<path d="M-19.3945 138.838H84.1612V130.343H-19.3945V138.838Z" fill="white"/>
<path d="M-19.3945 70.3865H84.1612V68.9719H-19.3945V70.3865Z" fill="#EDFFF5"/>
<path d="M27.8278 85.1212C26.607 82.063 23.6166 79.9087 20.1222 79.9087C16.5667 79.9087 13.5377 82.1386 12.3482 85.2724C11.4601 84.7891 10.442 84.5186 9.3584 84.5186C5.88528 84.5186 3.0752 87.3287 3.0752 90.7929C3.0752 91.079 3.09872 91.3663 3.13624 91.6441H12.5594H15.5722H21.7422H27.676H32.987C33.0324 91.3663 33.0548 91.079 33.0548 90.7929C33.0548 87.8109 30.7571 85.3547 27.8278 85.1212Z" fill="white"/>
<path d="M-20 11.0136H95.0526V6.11084H-20V11.0136Z" fill="#84D7CC"/>
<path d="M97.0757 13.6954H96.0218C94.8049 13.6954 93.8193 12.7087 93.8193 11.4907V5.32899C93.8193 4.11155 94.8049 3.12427 96.0218 3.12427H97.0757C98.2932 3.12427 99.2793 4.11155 99.2793 5.32899V11.4907C99.2793 12.7087 98.2932 13.6954 97.0757 13.6954Z" fill="#84D7CC"/>
<path d="M90.7518 43.4175C90.7518 44.8416 89.5976 45.9969 88.1735 45.9969C86.7494 45.9969 85.5947 44.8416 85.5947 43.4175C85.5947 41.994 86.7494 40.8381 88.1735 40.8381C89.5976 40.8381 90.7518 41.994 90.7518 43.4175Z" fill="#84D7CC"/>
<path d="M87.9534 8.48486L88.2888 41.3765" stroke="#84D7CC" stroke-width="1.07744"/>
<path d="M-17.7607 132.524H82.4793" stroke="#84D7CC" stroke-width="1.07744"/>
<path d="M-16.0801 139.244H84.1599" stroke="#BBF0D3" stroke-width="2.24"/>
<path d="M53.4576 114.756C53.4576 114.756 49.1501 103.394 61.2954 92.238C61.2954 92.238 68.227 103.679 53.4576 114.756Z" fill="#84D7CC"/>
<path d="M54.1071 117.774C54.1071 117.774 42.4288 114.419 40.7695 98.011C40.7695 98.011 54.0835 99.3119 54.1071 117.774Z" fill="#84D7CC"/>
<path d="M61.7806 114.228H41.5938V123.224C41.5938 127.337 44.9263 130.67 49.0378 130.67H54.3354C58.4481 130.67 61.7806 127.337 61.7806 123.224V114.228Z" fill="#DAF6E5"/>
<path d="M48.2639 114.227L46.6914 112.823L53.8185 113.35L53.9496 114.227H48.2639Z" fill="#EDFFF5"/>
<mask id="mask4_5567_164210" style="mask-type:alpha" maskUnits="userSpaceOnUse" x="46" y="112" width="8" height="3">
<path fill-rule="evenodd" clip-rule="evenodd" d="M48.2649 114.227H53.9505L53.8195 113.349L46.6924 112.823L48.2649 114.227Z" fill="white"/>
</mask>
<g mask="url(#mask4_5567_164210)">
<path d="M40.3984 131.011H63.6821V92.2041H40.3984V131.011Z" fill="#EDFFF5"/>
</g>
<mask id="mask5_5567_164210" style="mask-type:alpha" maskUnits="userSpaceOnUse" x="46" y="112" width="8" height="3">
<path fill-rule="evenodd" clip-rule="evenodd" d="M48.2649 114.227H53.9505L53.8195 113.349L46.6924 112.823L48.2649 114.227Z" fill="white"/>
</mask>
<g mask="url(#mask5_5567_164210)">
<path d="M41.1494 119.772H59.495V107.279H41.1494V119.772Z" fill="#EDFFF5"/>
</g>
<path d="M77.4 58.0726C77.4 66.1909 70.8183 72.7726 62.7 72.7726C54.5817 72.7726 48 66.1909 48 58.0726C48 49.9537 54.5817 43.3726 62.7 43.3726C70.8183 43.3726 77.4 49.9537 77.4 58.0726Z" fill="#84D7CC"/>
<path d="M77.2136 57.1417C77.2136 64.952 70.8817 71.2834 63.0719 71.2834C55.2616 71.2834 48.9297 64.952 48.9297 57.1417C48.9297 49.3319 55.2616 43 63.0719 43C70.8817 43 77.2136 49.3319 77.2136 57.1417Z" fill="white"/>
<path d="M69.7539 61.6639C69.2521 61.1005 68.201 60.6313 67.6102 61.1789C66.3289 62.3661 64.7984 63.3282 62.9443 63.3842C59.6156 63.4856 56.7932 61.0266 56.3721 57.7926L56.9825 57.7741C57.2216 57.7669 57.4367 57.628 57.5408 57.4129C57.6461 57.1985 57.6231 56.9431 57.482 56.751L56.5037 55.416L55.0203 53.3933C54.8959 53.223 54.6943 53.1245 54.4821 53.1312C54.4563 53.1317 54.43 53.1345 54.4043 53.1379C54.3785 53.1418 54.3527 53.1474 54.3281 53.1547C54.2659 53.1721 54.206 53.1989 54.1528 53.2337C54.0772 53.2829 54.0117 53.3473 53.9613 53.4257L51.7079 56.9257C51.5785 57.1262 51.5712 57.3821 51.6888 57.5905C51.8064 57.7988 52.0299 57.9242 52.2679 57.9169L52.9315 57.8968C53.2019 60.7589 54.6899 63.3478 57.1242 65.0614C58.4732 66.0117 60.0586 66.5997 61.6999 66.7649C64.8371 67.0819 67.8202 65.9569 69.9303 63.7146C70.4959 63.0829 70.2556 62.2273 69.7539 61.6639Z" fill="#FFD07B"/>
<path fill-rule="evenodd" clip-rule="evenodd" d="M69.7539 61.6639C69.2521 61.1005 68.201 60.6313 67.6102 61.1789C66.3289 62.3661 64.7984 63.3282 62.9443 63.3842C59.6156 63.4856 56.7932 61.0266 56.3721 57.7926L56.9825 57.7741C57.2216 57.7669 57.4367 57.628 57.5408 57.4129C57.6461 57.1985 57.6231 56.9431 57.482 56.751L56.5037 55.416L55.0203 53.3933C54.8959 53.223 54.6943 53.1245 54.4821 53.1312C54.4563 53.1317 54.43 53.1345 54.4043 53.1379C54.3785 53.1418 54.3527 53.1474 54.3281 53.1547C54.2659 53.1721 54.206 53.1989 54.1528 53.2337C54.0772 53.2829 54.0117 53.3473 53.9613 53.4257L51.7079 56.9257C51.5785 57.1262 51.5712 57.3821 51.6888 57.5905C51.8064 57.7988 52.0299 57.9242 52.2679 57.9169L52.9315 57.8968C53.2019 60.7589 54.6899 63.3478 57.1242 65.0614C58.4732 66.0117 60.0586 66.5997 61.6999 66.7649C64.8371 67.0819 67.8202 65.9569 69.9303 63.7146C70.4959 63.0829 70.2556 62.2273 69.7539 61.6639Z" stroke="white" stroke-width="1.68672"/>
<path d="M73.8093 56.3209C73.6917 56.1132 73.4688 55.9872 73.2297 55.9944L72.5661 56.0146C72.2961 53.153 70.8088 50.5641 68.3745 48.8505C67.0254 47.9008 65.4412 47.3122 63.7993 47.1464C60.6616 46.8295 57.6779 47.9545 55.5673 50.1968C54.9591 51.403 56.3378 53.083 57.189 53.0292C57.4724 53.0119 57.7261 52.9195 57.8879 52.733C59.032 51.4125 60.6991 50.5832 62.5538 50.5266C65.8819 50.4264 68.7043 52.8848 69.1265 56.1193L68.515 56.1378C68.2765 56.1451 68.0614 56.284 67.9567 56.4979C67.852 56.7129 67.8744 56.9677 68.0161 57.1609L68.9944 58.4954L70.4773 60.5181C70.5081 60.5607 70.5445 60.5988 70.5842 60.6318C70.7035 60.7315 70.8569 60.7858 71.0154 60.7808C71.2271 60.774 71.422 60.6637 71.5362 60.4856L72.3505 59.2223L73.7902 56.9856C73.919 56.7846 73.9269 56.5287 73.8093 56.3209Z" fill="#FFD07B"/>
<path fill-rule="evenodd" clip-rule="evenodd" d="M73.8093 56.3209C73.6917 56.1132 73.4688 55.9872 73.2297 55.9944L72.5661 56.0146C72.2961 53.153 70.8088 50.5641 68.3745 48.8505C67.0254 47.9008 65.4412 47.3122 63.7993 47.1464C60.6616 46.8295 57.6779 47.9545 55.5673 50.1968C54.9591 51.403 56.3378 53.083 57.189 53.0292C57.4724 53.0119 57.7261 52.9195 57.8879 52.733C59.032 51.4125 60.6991 50.5832 62.5538 50.5266C65.8819 50.4264 68.7043 52.8848 69.1265 56.1193L68.515 56.1378C68.2765 56.1451 68.0614 56.284 67.9567 56.4979C67.852 56.7129 67.8744 56.9677 68.0161 57.1609L68.9944 58.4954L70.4773 60.5181C70.5081 60.5607 70.5445 60.5988 70.5842 60.6318C70.7035 60.7315 70.8569 60.7858 71.0154 60.7808C71.2271 60.774 71.422 60.6637 71.5362 60.4856L72.3505 59.2223L73.7902 56.9856C73.919 56.7846 73.9269 56.5287 73.8093 56.3209Z" stroke="white" stroke-width="1.68672"/>
<path fill-rule="evenodd" clip-rule="evenodd" d="M62.7601 58.5878C62.7561 58.5088 62.713 58.3817 62.6307 58.2075C62.3781 57.7046 62.1917 57.325 62.0701 57.0685C62.4235 56.6899 62.587 56.2206 62.5601 55.6623C62.545 55.3409 62.4661 55.0525 62.3249 54.7971C62.1838 54.5406 62.0108 54.3413 61.8058 54.1979C61.3808 53.9011 60.9501 53.7628 60.5156 53.7835L58.914 53.8608C58.5976 53.8759 58.4077 53.9521 58.3461 54.0887C58.3092 54.1649 58.289 54.2315 58.2845 54.2886C58.2801 54.3458 58.2801 54.4314 58.2851 54.5451L58.4833 58.6594C58.4912 58.8325 58.513 58.9607 58.5466 59.043C58.6144 59.2228 58.8216 59.3051 59.1677 59.2883C59.4835 59.2726 59.6733 59.1965 59.7361 59.0598C59.7725 58.9842 59.7926 58.9176 59.7971 58.8599C59.8016 58.8034 59.801 58.7177 59.796 58.604L59.7551 57.7662L60.6897 57.7214L60.9188 57.6957C61.2929 58.4797 61.5079 58.9182 61.5617 59.0094C61.5941 59.057 61.6412 59.1035 61.7061 59.1478C61.77 59.192 61.8501 59.211 61.9464 59.2066C62.0427 59.2015 62.1681 59.1612 62.3233 59.0845C62.6229 58.9411 62.769 58.7759 62.7601 58.5878ZM60.6416 56.4082L59.6924 56.4542L59.6297 55.1415L60.5637 55.0967C60.7166 55.0894 60.8678 55.1376 61.0162 55.2423C61.1646 55.3465 61.2441 55.5083 61.2553 55.725C61.2654 55.9429 61.2016 56.1092 61.0638 56.2246C60.9255 56.3405 60.7844 56.4015 60.6416 56.4082Z" fill="#FFD07B"/>
<path fill-rule="evenodd" clip-rule="evenodd" d="M63.0355 55.833L63.2433 60.1624C63.2489 60.276 63.2567 60.36 63.2674 60.4138C63.2769 60.4676 63.3021 60.5286 63.3424 60.5964C63.3833 60.6636 63.4494 60.71 63.5423 60.7347C63.6353 60.7599 63.7585 60.7688 63.9119 60.7616C64.0648 60.7543 64.1846 60.7336 64.2731 60.6994C64.3599 60.6658 64.4204 60.612 64.4551 60.5387C64.4876 60.4653 64.5072 60.4009 64.5122 60.3466C64.5167 60.2917 64.5167 60.2072 64.5106 60.0935L64.4389 58.596C64.6332 58.8144 64.9322 58.9147 65.3377 58.8951C65.7431 58.8755 66.1161 58.6666 66.4554 58.2684C66.7954 57.8714 66.9538 57.4206 66.9292 56.916C66.9051 56.412 66.703 55.9786 66.325 55.6152C65.9453 55.2523 65.5544 55.0798 65.1512 55.0988C64.748 55.1184 64.4596 55.2612 64.2843 55.5272C64.263 55.3996 64.2054 55.3044 64.1113 55.2422C64.0161 55.18 63.8374 55.1554 63.5759 55.1677C63.3138 55.18 63.1514 55.2551 63.0887 55.3917C63.0574 55.4623 63.0394 55.525 63.035 55.5804C63.0299 55.6348 63.0299 55.7193 63.0355 55.833ZM64.3935 57.0454C64.3868 56.8875 64.4366 56.7385 64.5436 56.5996C64.6506 56.4608 64.8001 56.3868 64.9905 56.3779C65.1803 56.3689 65.3382 56.4266 65.4631 56.552C65.588 56.6775 65.6541 56.8214 65.6619 56.9844C65.6703 57.1479 65.6138 57.2968 65.4939 57.4307C65.3741 57.5662 65.2246 57.6373 65.0437 57.6457C64.8634 57.6547 64.7116 57.5959 64.5895 57.471C64.4669 57.3456 64.4019 57.2039 64.3935 57.0454Z" fill="#FFD07B"/>
<path d="M102.4 111.7C102.4 119.818 95.8183 126.4 87.7 126.4C79.5817 126.4 73 119.818 73 111.7C73 103.581 79.5817 97 87.7 97C95.8183 97 102.4 103.581 102.4 111.7Z" fill="#84D7CC"/>
<path d="M101.84 110.767C101.84 118.268 95.7598 124.347 88.2597 124.347C80.7596 124.347 74.6797 118.268 74.6797 110.767C74.6797 103.267 80.7596 97.1875 88.2597 97.1875C95.7598 97.1875 101.84 103.267 101.84 110.767Z" fill="white"/>
<path d="M80.9287 109.932V107.959C80.9287 107.784 81.0704 107.642 81.2451 107.642H89.8842C90.0595 107.642 90.2012 107.5 90.2012 107.325V105.759C90.2012 105.487 90.5221 105.342 90.7265 105.521L95.4876 109.694C95.7077 109.886 95.571 110.248 95.2793 110.248H81.2451C81.0704 110.248 80.9287 110.106 80.9287 109.932Z" fill="#F67D80"/>
<path d="M96.1204 112.595V114.66C96.1204 114.81 95.9988 114.932 95.8493 114.932H87.1195C86.9694 114.932 86.8479 115.053 86.8479 115.203V116.913C86.8479 117.146 86.5735 117.271 86.3982 117.117L81.4708 112.799C81.2826 112.634 81.3996 112.324 81.65 112.324H95.8493C95.9988 112.324 96.1204 112.445 96.1204 112.595Z" fill="#F67D80"/>
</g>
</svg>
