<svg width="328" height="164" viewBox="0 0 328 164" fill="none" xmlns="http://www.w3.org/2000/svg">
<path d="M23.2189 161.504C33.6809 163.667 265.053 165.826 301.876 161.504C312.777 160.224 321.503 148.276 322.776 146.203C330.736 133.238 327.751 53.2794 325.761 26.266C324.69 11.7278 309.838 5.19571 302.871 3.03482C289.548 -1.09779 53.2799 -1.26366 22.2229 4.11573C8.32787 6.52168 3.29087 17.8712 2.29087 24.1796C-0.0421274 38.8847 -1.42113 129.331 2.31887 141.514C5.30487 151.239 12.7689 159.343 23.2189 161.504Z" fill="#E8FFFC"/>
<mask id="mask0_5567_155747" style="mask-type:alpha" maskUnits="userSpaceOnUse" x="0" y="0" width="328" height="164">
<path fill-rule="evenodd" clip-rule="evenodd" d="M23.2189 161.504C33.6809 163.667 265.053 165.826 301.876 161.504C312.777 160.224 321.503 148.276 322.776 146.203C330.736 133.238 327.751 53.2794 325.761 26.266C324.69 11.7278 309.838 5.19571 302.871 3.03482C289.548 -1.09779 53.2799 -1.26366 22.2229 4.11573C8.32787 6.52168 3.29087 17.8712 2.29087 24.1796C-0.0421274 38.8847 -1.42113 129.331 2.31887 141.514C5.30487 151.239 12.7689 159.343 23.2189 161.504Z" fill="white"/>
</mask>
<g mask="url(#mask0_5567_155747)">
<path d="M193.154 68.2858L189.382 65.2632H173.094C171.938 65.2632 171 64.3252 171 63.1688V46.0944C171 44.938 171.938 44 173.094 44H194.464C195.62 44 196.558 44.938 196.558 46.0944V66.6506C196.558 68.4076 194.524 69.3848 193.154 68.2858Z" fill="#2DCF72"/>
<path d="M182.271 58.9149C181.913 58.9149 181.554 58.7931 181.262 58.5467L178.081 55.8783C177.416 55.3197 177.329 54.3285 177.886 53.6649C178.445 52.9985 179.439 52.9145 180.1 53.4689L182.191 55.2245L187.37 50.1691C187.991 49.5629 188.987 49.5755 189.592 50.1957C190.198 50.8173 190.185 51.8113 189.565 52.4175L183.369 58.4683C183.065 58.7651 182.667 58.9149 182.271 58.9149Z" fill="white"/>
</g>
<mask id="mask1_5567_155747" style="mask-type:alpha" maskUnits="userSpaceOnUse" x="0" y="0" width="328" height="164">
<path fill-rule="evenodd" clip-rule="evenodd" d="M23.2189 161.504C33.6809 163.667 265.053 165.826 301.876 161.504C312.777 160.224 321.503 148.276 322.776 146.203C330.736 133.238 327.751 53.2794 325.761 26.266C324.69 11.7278 309.838 5.19571 302.871 3.03482C289.548 -1.09779 53.2799 -1.26366 22.2229 4.11573C8.32787 6.52168 3.29087 17.8712 2.29087 24.1796C-0.0421274 38.8847 -1.42113 129.331 2.31887 141.514C5.30487 151.239 12.7689 159.343 23.2189 161.504Z" fill="white"/>
</mask>
<g mask="url(#mask1_5567_155747)">
<ellipse cx="164.5" cy="260.5" rx="224.5" ry="174.5" fill="#EBFFE0"/>
</g>
<mask id="mask2_5567_155747" style="mask-type:alpha" maskUnits="userSpaceOnUse" x="0" y="0" width="328" height="164">
<path fill-rule="evenodd" clip-rule="evenodd" d="M23.2189 161.504C33.6809 163.667 265.053 165.826 301.876 161.504C312.777 160.224 321.503 148.276 322.776 146.203C330.736 133.238 327.751 53.2794 325.761 26.266C324.69 11.7278 309.838 5.19571 302.871 3.03482C289.548 -1.09779 53.2799 -1.26366 22.2229 4.11573C8.32787 6.52168 3.29087 17.8712 2.29087 24.1796C-0.0421274 38.8847 -1.42113 129.331 2.31887 141.514C5.30487 151.239 12.7689 159.343 23.2189 161.504Z" fill="white"/>
</mask>
<g mask="url(#mask2_5567_155747)">
<path d="M310.772 40.6799C310.835 36.6884 308.048 32.9165 304.553 32.2001C277.157 26.2727 250.105 18.8621 222.865 12.2255C219.283 11.3759 216.306 13.9436 216.236 17.9297C215.735 46.8386 215.263 75.7475 214.814 104.656H214.811C214.75 108.669 214.719 110.676 214.659 114.689C214.598 118.672 217.221 122.463 220.58 123.22C248.052 129.657 275.237 137.334 302.785 143.427C306.303 144.166 309.176 141.483 309.239 137.499C309.394 127.663 309.549 117.827 309.704 107.99C310.06 85.553 310.415 63.1169 310.772 40.6799Z" fill="#47A99C"/>
<path d="M306.272 35.7869C306.335 31.9763 303.548 28.3745 300.053 27.6905C272.657 22.0313 245.605 14.9555 218.365 8.61769C214.783 7.80679 211.806 10.2584 211.736 14.0645C211.235 41.6666 210.763 69.2696 210.314 96.8726H210.311C210.25 100.705 210.219 102.62 210.159 106.452C210.098 110.255 212.721 113.874 216.08 114.596C243.552 120.744 270.737 128.075 298.285 133.891C301.803 134.598 304.676 132.036 304.739 128.232C304.894 118.84 305.049 109.448 305.204 100.056C305.56 78.6323 305.915 57.2096 306.272 35.7869Z" fill="#F8F8F8"/>
<path d="M306.271 35.7738C306.153 42.8622 306.094 46.4055 305.976 53.493C274.21 47.3073 242.998 38.778 211.417 31.7535C211.543 24.6723 211.607 21.1317 211.737 14.0523C211.806 10.2552 214.779 7.80539 218.355 8.61449C245.602 14.9532 272.66 22.0308 300.062 27.6918C303.552 28.374 306.334 31.9722 306.271 35.7738Z" fill="#84D7CC"/>
<path d="M232.65 13.5595C232.65 11.8252 232.65 10.9585 232.651 9.22416C232.651 8.24047 231.899 7.27926 230.971 7.08486C230.674 7.02186 230.525 6.99036 230.228 6.92826C229.3 6.73296 228.544 7.37646 228.545 8.36106C228.548 12.7981 228.549 15.0175 228.552 19.4563C228.553 20.4409 229.307 21.3976 230.232 21.5911C231.122 21.7783 231.843 22.6972 231.843 23.644C231.843 24.5917 231.122 25.2064 230.233 25.0201C227.532 24.4549 225.327 21.6649 225.322 18.7885C225.315 14.3488 225.311 12.1285 225.304 7.68966C225.3 4.81236 227.515 2.92776 230.228 3.49836C230.525 3.56226 230.674 3.59286 230.971 3.65496C233.681 4.22736 235.877 7.03627 235.875 9.90997C235.874 11.6443 235.873 12.511 235.872 14.2453C234.584 13.9699 233.94 13.8331 232.65 13.5595Z" fill="#47A99C"/>
<path d="M290.582 25.72C290.566 23.9794 290.557 23.11 290.541 21.3694C290.532 20.3812 289.785 19.4407 288.875 19.2706C288.585 19.2148 288.439 19.1878 288.148 19.1338C287.238 18.961 286.506 19.6225 286.514 20.6089C286.551 25.0594 286.57 27.2842 286.606 31.7347C286.615 32.7211 287.364 33.6679 288.276 33.8407C289.154 34.0081 289.873 34.9117 289.881 35.8612C289.89 36.8107 289.184 37.4479 288.307 37.2814C285.639 36.7729 283.451 33.9982 283.429 31.1155C283.394 26.6677 283.378 24.4429 283.344 19.9942C283.321 17.1115 285.463 15.1909 288.118 15.6931C288.408 15.748 288.554 15.775 288.845 15.8308C291.5 16.3285 293.685 19.0636 293.713 21.9499C293.73 23.6905 293.738 24.5608 293.755 26.3014C292.485 26.0728 291.851 25.9567 290.582 25.72Z" fill="#47A99C"/>
<path d="M229.547 57.7156C226.522 56.9992 225.012 56.6473 221.999 55.9588C221.167 55.7689 220.51 54.8842 220.53 53.9815C220.607 50.7118 220.645 49.0774 220.722 45.8086C220.743 44.905 221.437 44.3272 222.274 44.5189C225.303 45.2128 226.819 45.5683 229.852 46.2874C230.689 46.4854 231.348 47.3791 231.325 48.2809C231.236 51.5461 231.193 53.1778 231.104 56.4421C231.08 57.3439 230.383 57.9136 229.547 57.7156Z" fill="#00662E"/>
<path d="M251.208 62.9917C248.164 62.2393 246.643 61.8631 243.602 61.1161C242.764 60.91 242.104 60.0118 242.129 59.1109C242.22 55.8484 242.265 54.2167 242.357 50.9533C242.381 50.0524 243.082 49.4881 243.921 49.6951C246.959 50.4421 248.479 50.8174 251.518 51.568C252.358 51.775 253.018 52.6732 252.994 53.575C252.907 56.8393 252.863 58.4719 252.775 61.7353C252.751 62.6362 252.05 63.1987 251.208 62.9917Z" fill="#47A99C"/>
<path d="M272.942 68.2908C269.897 67.5681 268.373 67.2009 265.326 66.4602C264.485 66.2559 263.82 65.3577 263.843 64.4559C263.923 61.1889 263.963 59.5554 264.043 56.2884C264.065 55.3857 264.763 54.8205 265.602 55.0239C268.64 55.7601 270.159 56.1255 273.194 56.8446C274.033 57.0435 274.696 57.9354 274.677 58.8381C274.606 62.1096 274.571 63.7449 274.5 67.0155C274.48 67.9191 273.782 68.4906 272.942 68.2908Z" fill="#84D7CC"/>
<path d="M294.606 73.1439C291.581 72.5166 290.066 72.1908 287.032 71.523C286.194 71.3385 285.528 70.4547 285.545 69.5502C285.606 66.2751 285.637 64.638 285.7 61.3629C285.717 60.4584 286.408 59.8761 287.244 60.0597C290.271 60.7239 291.783 61.0479 294.803 61.6716C295.637 61.8435 296.301 62.7147 296.285 63.6201C296.23 66.8988 296.202 68.5377 296.146 71.8155C296.131 72.7209 295.441 73.3158 294.606 73.1439Z" fill="#BBF0D3"/>
<path d="M228.94 80.642C225.933 79.9337 224.435 79.5854 221.452 78.9104C220.629 78.7232 219.979 77.843 220 76.9394C220.074 73.6697 220.112 72.0353 220.188 68.7647C220.208 67.862 220.896 67.2806 221.723 67.4687C224.722 68.15 226.226 68.501 229.243 69.2138C230.075 69.4109 230.732 70.3019 230.708 71.2037C230.62 74.468 230.576 76.1006 230.489 79.3649C230.465 80.2667 229.771 80.8382 228.94 80.642Z" fill="#00662E"/>
<path d="M228.941 105.209C225.934 104.5 224.436 104.152 221.453 103.477C220.63 103.29 219.98 102.41 220 101.506C220.075 98.2364 220.113 96.602 220.189 93.3314C220.209 92.4287 220.897 91.8473 221.724 92.0354C224.723 92.7167 226.227 93.0677 229.243 93.7805C230.076 93.9776 230.733 94.8686 230.709 95.7704C230.621 99.0347 230.577 100.667 230.49 103.932C230.466 104.833 229.772 105.405 228.941 105.209Z" fill="#00662E"/>
<path d="M250.585 85.9073C247.53 85.1522 246.006 84.7742 242.964 84.0272C242.123 83.8211 241.463 82.9238 241.488 82.0229C241.579 78.7595 241.625 77.1278 241.716 73.8644C241.741 72.9635 242.442 72.4001 243.282 72.6062C246.323 73.3532 247.846 73.7303 250.896 74.4845C251.738 74.6924 252.401 75.5915 252.377 76.4933C252.288 79.7576 252.244 81.3893 252.156 84.6527C252.132 85.5545 251.428 86.1161 250.585 85.9073Z" fill="#47A99C"/>
<path d="M266.219 91.543C265.567 91.3837 264.943 90.9544 264.492 90.3478C263.297 88.7404 262.7 87.9367 261.508 86.3293C260.897 85.5049 260.924 84.4195 261.569 83.9038C262.212 83.3881 263.23 83.6374 263.84 84.46C264.805 85.7587 265.288 86.4085 266.254 87.7063C268.939 84.9424 270.279 83.5573 272.951 80.7745C273.529 80.1733 274.541 80.3047 275.214 81.0652C275.886 81.8275 275.964 82.9336 275.388 83.5357C272.502 86.5498 271.055 88.0492 268.151 91.0399C267.698 91.5088 267.038 91.7014 266.342 91.5691C266.301 91.5619 266.26 91.5529 266.219 91.543Z" fill="#00AB4E"/>
<path d="M294.2 96.6671C291.165 96.0344 289.643 95.705 286.593 95.03C285.751 94.8437 285.082 93.9572 285.099 93.0527C285.161 89.7785 285.193 88.1405 285.255 84.8663C285.272 83.9627 285.967 83.3813 286.807 83.5667C289.849 84.2381 291.368 84.5657 294.399 85.1957C295.235 85.3694 295.9 86.2415 295.885 87.1469C295.829 90.4247 295.801 92.0645 295.744 95.3414C295.729 96.2468 295.038 96.8408 294.2 96.6671Z" fill="#BBF0D3"/>
<path d="M249.9 110.974C246.836 110.214 245.308 109.835 242.264 109.088C241.423 108.882 240.764 107.986 240.789 107.084C240.881 103.821 240.926 102.189 241.016 98.9255C241.042 98.0246 241.743 97.4612 242.582 97.6673C245.625 98.4152 247.153 98.7932 250.213 99.551C251.058 99.7598 251.723 100.66 251.699 101.562C251.61 104.825 251.566 106.457 251.477 109.721C251.453 110.622 250.746 111.183 249.9 110.974Z" fill="#47A99C"/>
<path d="M271.868 116.363C268.783 115.624 267.239 115.249 264.156 114.494C263.304 114.285 262.632 113.384 262.654 112.483C262.736 109.216 262.777 107.583 262.858 104.316C262.88 103.414 263.587 102.852 264.436 103.06C267.512 103.811 269.051 104.185 272.125 104.919C272.974 105.122 273.647 106.018 273.626 106.921C273.554 110.191 273.518 111.826 273.445 115.096C273.426 116 272.719 116.568 271.868 116.363Z" fill="#84D7CC"/>
<path d="M103.76 76.0797C103.76 76.0797 88.8002 90.1597 87.9202 104.24V106.88L52.7202 89.2797L84.4002 53.1997C84.4002 53.1997 101.12 75.1997 103.76 76.0797Z" fill="#FFB08C"/>
<path d="M237.123 84.713L160.599 97.3894C160.296 97.4396 159.993 97.1351 159.923 96.7101L159.292 92.9014C159.222 92.4755 159.41 92.0901 159.713 92.039L236.237 79.3635C236.298 79.3529 236.362 79.3573 236.425 79.3767L240.608 80.6395C241.137 80.7997 241.299 81.7729 240.85 82.095L237.297 84.64C237.243 84.6778 237.184 84.7025 237.123 84.713Z" fill="#F9953B"/>
<path d="M239.297 84.3023L242.93 81.6995C243.39 81.3701 243.225 80.3747 242.683 80.2109L238.405 78.9194C238.341 78.8996 238.275 78.8951 238.212 78.905L236 79.2713C236.532 80.0309 237.222 81.6617 236.904 84.7442L239.118 84.377C239.182 84.3662 239.242 84.341 239.297 84.3023Z" fill="#FFD6B4"/>
<path d="M242.684 80.2109L240.783 79.6367C241.166 80.2757 241.526 81.2783 241.483 82.7363L242.93 81.6995C243.39 81.3701 243.225 80.3747 242.684 80.2109Z" fill="#554E56"/>
<mask id="mask3_5567_155747" style="mask-type:alpha" maskUnits="userSpaceOnUse" x="117" y="79" width="95" height="107">
<path fill-rule="evenodd" clip-rule="evenodd" d="M117.4 79.7329H211.338V185.16H117.4V79.7329Z" fill="white"/>
</mask>
<g mask="url(#mask3_5567_155747)">
<path d="M157.875 135.455C157.875 135.455 161.625 129.626 162.307 126.62C162.827 124.322 166.143 107.696 167.676 99.9917C168.178 97.4758 169.592 95.2221 171.657 93.6452L185.796 82.8546C187.123 81.8417 188.684 81.1685 190.338 80.894L196.465 79.8793C198.319 79.5722 200.219 79.75 201.974 80.3968L209.775 83.2656C210.682 83.5991 211.035 84.7378 210.393 85.4559C209.708 86.2197 208.488 86.856 206.339 86.3438C206.339 86.3438 213.598 87.4561 210.622 90.8424C210.622 90.8424 209.367 93.9435 202.402 91.0465C202.402 91.0465 199.924 92.0656 196.663 91.9969L202.854 97.3368C202.854 97.3368 204.655 101.088 202.546 102.595C202.546 102.595 204.083 106.371 204.054 109.709C204.044 110.782 203.459 111.819 202.447 112.231C201.549 112.597 200.355 112.505 199.168 110.677C199.168 110.677 198.165 106.021 197.468 105.75C197.197 105.647 196.919 105.508 196.665 105.326C196.055 104.889 195.179 105.056 194.816 105.71C193.9 107.362 192.137 109.527 189.04 110.04C189.04 110.04 190.397 128.91 177.758 134.475L149.671 178.475C149.671 178.475 118.678 193.433 117.4 178.599L157.875 135.455Z" fill="#FFD6B4"/>
</g>
<path d="M147.083 16.1624C145.845 35.9729 145.311 56.7691 136.615 74.612C133.799 80.3901 129.574 88.0707 123.225 89.0783C116.513 90.144 109.299 85.1975 106.123 83.2545C98.1198 78.359 89.9675 73.336 83.9404 66.1473C77.9124 58.9585 74.2745 49.0929 76.8142 40.0614C79.3846 30.9226 87.485 24.569 95.3338 19.2274C108.214 10.4617 123.195 2.30501 138.573 4.81301C141.486 5.28821 144.497 6.24389 146.446 8.45885C148.396 10.6756 148.804 14.4429 146.647 16.4572" fill="#FFD6B4"/>
<path d="M129.8 74.8126C131.44 75.1313 133.479 75.1285 135.913 74.4093C136.244 74.3121 136.47 73.9099 136.417 73.5115C136.364 73.113 136.053 72.869 135.723 72.9665C129.143 74.9073 125.788 71.2208 125.649 71.0639C125.413 70.7971 125.03 70.8344 124.792 71.1439C124.554 71.4536 124.55 71.921 124.784 72.1887C124.887 72.3079 126.57 74.1847 129.8 74.8126Z" fill="#FFB38F"/>
<path d="M41.28 79.5996C41.28 79.5996 90.56 91.0396 102 110.4C113.44 129.76 138.08 173.76 138.08 173.76L-8 167.6C-8 167.6 20.16 98.9596 41.28 79.5996Z" fill="#28D677"/>
<path d="M206.339 86.344L203.909 85.4649C202.624 85.0011 201.237 84.8744 199.883 85.0988L190.942 86.5807C189.887 86.7549 188.884 87.1351 187.982 87.7036C186.324 88.7481 183.457 90.5169 181.276 91.653C179.899 92.3711 178.883 92.7178 178.167 92.8797C177.749 92.9748 177.5 92.4424 177.845 92.1907C180.312 90.3902 186.406 86.0518 189.045 85.1577C191.311 84.3913 196.029 83.7489 198.842 83.4127C200.305 83.2385 201.782 83.3678 203.188 83.7885L209.998 85.8248C209.998 85.8248 208.247 87.1853 206.339 86.344Z" fill="#FFB08C"/>
<path d="M177.712 98.6081C178.86 98.418 179.62 99.4494 182.877 97.7519C186.133 96.0561 191.405 92.2888 194.849 91.7195" stroke="#FFB08C" stroke-width="0.77176" stroke-linecap="round" stroke-linejoin="round"/>
<path d="M184.291 102.726C184.291 102.726 187.253 102.814 194.06 97.6363C194.06 97.6363 196.169 96.1298 198.356 98.6598L202.617 102.38" stroke="#FFB08C" stroke-width="0.77176" stroke-linecap="round" stroke-linejoin="round"/>
<path d="M176.144 131.85L146.292 177.972C148.287 178.412 149.671 178.474 149.671 178.474L177.758 134.475C190.396 128.909 189.039 110.041 189.039 110.041C189.039 110.041 183.897 128.829 176.144 131.85Z" fill="#FFB08C"/>
<path d="M71.2892 120.418C67.6161 131.476 60.591 155.192 62.2586 170.402C62.2692 170.495 62.3466 170.566 62.4399 170.569L70.7277 170.92C70.8421 170.925 70.9354 170.835 70.924 170.721C70.6626 168.076 68.0957 140.726 71.9263 120.586C72.0037 120.178 71.4203 120.024 71.2892 120.418Z" fill="#00AB4E"/>
<path d="M144.647 45.6802C145.959 48.7276 147.27 51.7751 148.581 54.8225C148.847 55.4394 149.118 56.1231 148.919 56.7647C148.751 57.3032 148.288 57.6887 147.848 58.0415L139.39 64.8246C136.639 59.6238 136.869 52.9701 139.972 47.9717C140.715 46.7758 141.916 45.5473 143.298 45.8201" fill="#FFD6B4"/>
<path d="M96.2798 41.3196C96.2798 41.3196 94.4591 82.552 60.1998 109.96C55.7998 113.48 46.8229 110.985 46.1198 109.96C41.6045 103.373 36.4592 83.3246 67.6798 51.4396L72.0798 43.5196L96.2798 41.3196Z" fill="#6C4A07"/>
<path d="M153.04 6.55964C156.083 16.4508 156.496 25.0264 112.748 36.2693C88.3925 42.5279 67.2224 57.9684 54.5891 79.7114C48.5725 90.0655 44.4929 101.741 45.5137 113.686C45.8463 117.587 42.4917 120.853 38.6074 120.357C32.5741 119.588 24.4104 116.319 18.9236 105.31C12.0913 91.5993 14.0774 75.1468 23.4609 63.0398C25.5553 60.3382 28.0043 57.4368 30.8423 54.4422C40.3621 44.3935 47.3564 32.1668 50.5349 18.694C51.0603 16.4693 51.3322 14.1435 51.84 11.8396C57.56 -14.1204 75.6 -25.1204 99.36 -25.1204C123.12 -25.1204 145.85 -16.8105 153.04 6.55964Z" fill="#6C4A07"/>
<path d="M100.889 34.4404C100.889 34.4404 93.7201 24.5369 87.7529 35.7384C81.7856 46.94 95.6139 52.6468 95.6139 52.6468L100.889 34.4404Z" fill="#FFD6B4"/>
<path d="M109.04 31.1996C109.04 31.1996 101.004 43.619 101.573 53.8138C101.618 54.6269 100.515 54.9411 100.129 54.223C98.2505 50.7294 96.1667 43.1077 100.24 28.5596L109.04 31.1996Z" fill="#6C4A07"/>
<path d="M137.581 -12.16C141.169 -6.54821 139.812 0.276187 136.101 5.48755C131.944 11.3246 124.917 14.1661 118.254 16.0326C105.644 19.5675 92.9314 21.8529 80.7803 26.9666C59.1517 36.0684 38.4154 53.3041 34.275 77.6176C32.1313 90.2122 34.6807 103.405 42.503 113.635C43.5211 114.967 45.8153 113.654 44.7822 112.304C27.5667 89.7898 38.4198 60.0132 58.255 43.3751C69.1124 34.2679 82.3115 28.4608 95.7923 24.426C107.452 20.9368 121.004 20.0471 131.436 13.3486C140.078 7.80107 145.926 -4.00589 139.86 -13.4932C138.947 -14.9197 136.662 -13.597 137.581 -12.16Z" fill="#895C00"/>
<path d="M148.091 0.759627C147.128 23.71 116.097 26.6272 101.767 38.1517C100.442 39.2165 102.321 41.0742 103.633 40.0182C118.899 27.7404 149.696 25.4216 150.731 0.759627C150.802 -0.938773 148.162 -0.936133 148.091 0.759627Z" fill="#895C00"/>
</g>
<path d="M62.253 48.5151C62.253 61.4852 51.6817 72 38.6419 72C25.6021 72 15.0308 61.4852 15.0308 48.5151C15.0308 35.545 25.6021 25.0303 38.6419 25.0303C51.1058 25.0303 61.3132 34.636 62.1919 46.8104C62.2326 47.3731 62.253 47.9414 62.253 48.5151Z" fill="#84D7CC"/>
<path d="M62.253 45.4848C62.253 58.4549 51.6817 68.9697 38.6419 68.9697C25.6021 68.9697 15.0308 58.4549 15.0308 45.4848C15.0308 32.5148 25.6021 22 38.6419 22C51.1058 22 61.3132 31.6058 62.1919 43.7801C62.2326 44.3428 62.253 44.9111 62.253 45.4848Z" fill="white"/>
<path d="M306.253 130.515C306.253 143.485 295.682 154 282.642 154C269.602 154 259.031 143.485 259.031 130.515C259.031 117.545 269.602 107.03 282.642 107.03C295.106 107.03 305.313 116.636 306.192 128.81C306.233 129.373 306.253 129.941 306.253 130.515Z" fill="#84D7CC"/>
<path d="M306.253 127.485C306.253 140.455 295.682 150.97 282.642 150.97C269.602 150.97 259.031 140.455 259.031 127.485C259.031 114.515 269.602 104 282.642 104C295.106 104 305.313 113.606 306.192 125.78C306.233 126.343 306.253 126.911 306.253 127.485Z" fill="white"/>
<path fill-rule="evenodd" clip-rule="evenodd" d="M283.364 113.004C287.466 113.004 291.322 114.601 294.222 117.502C297.123 120.402 298.72 124.258 298.72 128.36C298.72 132.462 297.123 136.318 294.222 139.218C291.322 142.119 287.466 143.716 283.364 143.716C279.262 143.716 275.406 142.119 272.506 139.218C269.633 136.345 268.039 132.534 268.01 128.476C268.004 128.436 268 128.394 268 128.352C268 128.31 268.004 128.268 268.01 128.227C268.044 124.175 269.637 120.371 272.506 117.502C275.406 114.601 279.262 113.004 283.364 113.004ZM292.52 136.297L293.557 137.296C295.535 135.046 296.697 132.243 296.89 129.252H293.636C293.139 129.252 292.736 128.849 292.736 128.352C292.736 127.855 293.139 127.452 293.636 127.452H296.889C296.704 124.64 295.664 121.995 293.892 119.82L292.933 120.816C292.756 120.999 292.521 121.092 292.284 121.092C292.06 121.092 291.835 121.008 291.66 120.84C291.302 120.495 291.291 119.925 291.636 119.567L292.665 118.499C290.358 116.32 287.415 115.04 284.264 114.834V118.079C284.264 118.577 283.861 118.98 283.364 118.98C282.867 118.98 282.464 118.577 282.464 118.079V114.834C279.308 115.04 276.36 116.324 274.052 118.51L275.118 119.537C275.476 119.881 275.487 120.451 275.142 120.809C274.965 120.993 274.729 121.085 274.493 121.085C274.269 121.085 274.044 121.001 273.869 120.833L272.828 119.83C271.061 122.004 270.023 124.645 269.839 127.452H273.075C273.573 127.452 273.976 127.855 273.976 128.352C273.976 128.849 273.573 129.253 273.075 129.253H269.838C270.05 132.537 271.43 135.596 273.779 137.945C273.795 137.961 273.81 137.976 273.826 137.991C273.837 138.002 273.848 138.013 273.859 138.024L274.875 136.969C275.22 136.611 275.79 136.6 276.148 136.945C276.506 137.29 276.517 137.86 276.172 138.218L275.224 139.202C277.323 140.784 279.82 141.713 282.464 141.885V138.64C282.464 138.143 282.867 137.74 283.364 137.74C283.861 137.74 284.264 138.143 284.264 138.64V141.885C287.244 141.691 290.037 140.536 292.282 138.568L291.271 137.594C290.913 137.249 290.902 136.679 291.247 136.321C291.592 135.963 292.162 135.952 292.52 136.297Z" fill="#3393E3"/>
<path d="M289.089 131.832L284.264 127.923V121.344C284.264 120.846 283.861 120.443 283.364 120.443C282.867 120.443 282.464 120.846 282.464 121.344V128.36C282.464 128.678 282.629 128.957 282.878 129.117L287.955 133.231C288.122 133.366 288.322 133.432 288.521 133.432C288.783 133.432 289.043 133.318 289.221 133.098C289.534 132.712 289.475 132.145 289.089 131.832Z" fill="#63B5FA"/>
<path d="M52.3514 33L49.6365 36.1715L48.332 45.9632L46.7422 57.8828C46.6606 59.2851 45.4622 60.4265 44.0599 60.4265H27.542L29.3927 45.4822L30.3629 37.6961L30.5993 35.772C30.689 34.2392 31.9935 33 33.5181 33H52.3514Z" fill="#3393E3"/>
<path d="M43.8991 60.4214H27.5419C26.5081 60.4214 25.595 60.004 24.9566 59.3232C24.3166 58.6465 23.9481 57.7106 24.0059 56.6768H41.4035L41.3448 57.7203C41.2625 59.2131 42.4071 60.4214 43.8991 60.4214Z" fill="#1868AB"/>
<mask id="mask4_5567_155747" style="mask-type:alpha" maskUnits="userSpaceOnUse" x="49" y="33" width="6" height="4">
<path fill-rule="evenodd" clip-rule="evenodd" d="M49.6377 33.0022H54.7461V36.1696H49.6377V33.0022Z" fill="white"/>
</mask>
<g mask="url(#mask4_5567_155747)">
<path d="M54.7072 36.1696H49.6377L49.6728 35.5369C49.751 34.1371 50.9495 33.0022 52.3485 33.0022C53.7484 33.0022 54.8205 34.1371 54.7423 35.5369L54.7072 36.1696Z" fill="#1868AB"/>
</g>
<path fill-rule="evenodd" clip-rule="evenodd" d="M38.6616 44.519C38.6746 44.4171 38.6477 44.2508 38.5801 44.0208C38.3681 43.3572 38.2124 42.8558 38.1145 42.5174C38.6518 42.0511 38.9641 41.4584 39.0537 40.736C39.1043 40.321 39.0684 39.9444 38.9445 39.606C38.8206 39.2677 38.6428 38.9995 38.4121 38.8013C37.9327 38.3929 37.4117 38.1882 36.85 38.1882H34.7808C34.3723 38.1882 34.1131 38.2738 34.0022 38.4467C33.9386 38.5421 33.8978 38.6277 33.8799 38.7011C33.8611 38.7744 33.8424 38.8845 33.8244 39.0312L33.1665 44.347C33.1388 44.5704 33.1371 44.7359 33.1624 44.8451C33.2097 45.0815 33.4559 45.1989 33.9035 45.1989C34.312 45.1989 34.5721 45.1133 34.6821 44.9405C34.7457 44.8451 34.7865 44.7603 34.8052 44.6869C34.824 44.6136 34.8427 44.5035 34.8599 44.3559L34.9944 43.274H36.201L36.5002 43.2553C36.8068 44.2891 36.9845 44.8671 37.0326 44.9886C37.0628 45.053 37.115 45.115 37.1875 45.1753C37.2593 45.2356 37.3579 45.2658 37.4819 45.2658C37.6066 45.2658 37.7762 45.2218 37.9922 45.1321C38.4088 44.9658 38.6314 44.7619 38.6616 44.519ZM36.4301 41.579H35.2039L35.4143 39.8832H36.6209C36.8182 39.8832 37.0016 39.9558 37.1688 40.0993C37.3359 40.2428 37.402 40.4548 37.3677 40.736C37.3327 41.0173 37.2144 41.2276 37.0122 41.3679C36.8092 41.5081 36.6152 41.579 36.4301 41.579Z" fill="white"/>
<path fill-rule="evenodd" clip-rule="evenodd" d="M39.6262 40.9852L38.9332 46.5781C38.9152 46.7248 38.9063 46.8341 38.9079 46.9042C38.9087 46.9743 38.9267 47.0534 38.9642 47.1439C39.0008 47.2327 39.0759 47.2963 39.19 47.3355C39.3025 47.3738 39.459 47.3925 39.6563 47.3925C39.8545 47.3925 40.0134 47.3738 40.1333 47.3355C40.2523 47.2963 40.342 47.2311 40.4015 47.139C40.461 47.046 40.4994 46.9645 40.5181 46.8944C40.536 46.8243 40.5548 46.7159 40.5727 46.5683L40.8124 44.6336C41.0122 44.9279 41.3734 45.0747 41.8976 45.0747C42.421 45.0747 42.9444 44.8293 43.4687 44.3368C43.9921 43.846 44.2937 43.2737 44.3753 42.6231C44.456 41.9717 44.2937 41.4001 43.8877 40.9085C43.4825 40.4169 43.0202 40.1707 42.4993 40.1707C41.9799 40.1707 41.5772 40.337 41.2935 40.6688C41.2951 40.5025 41.2421 40.3769 41.1345 40.2905C41.0269 40.2041 40.8035 40.1609 40.4659 40.1609C40.1268 40.1609 39.9026 40.2481 39.7917 40.4193C39.7362 40.5098 39.6996 40.5897 39.6808 40.659C39.6629 40.7291 39.6441 40.8384 39.6262 40.9852ZM41.0986 42.632C41.1239 42.4274 41.2201 42.2399 41.3888 42.067C41.5568 41.895 41.7639 41.8086 42.0101 41.8086C42.2547 41.8086 42.4446 41.8934 42.5767 42.0622C42.7088 42.2317 42.7626 42.4217 42.7357 42.632C42.7104 42.8432 42.6053 43.0315 42.4226 43.1979C42.2384 43.3634 42.0305 43.4465 41.7973 43.4465C41.5641 43.4465 41.3831 43.3617 41.2543 43.193C41.1247 43.0234 41.0725 42.8367 41.0986 42.632Z" fill="white"/>
<path d="M43.9022 50.5544H32.0005C31.6703 50.5544 31.4355 50.2861 31.4763 49.9559C31.5179 49.6249 31.8187 49.3567 32.1489 49.3567H44.0506C44.3808 49.3567 44.6156 49.6249 44.5748 49.9559C44.5332 50.2861 44.2324 50.5544 43.9022 50.5544Z" fill="#1868AB"/>
<path d="M42.1619 53.638H32.9776C32.6474 53.638 32.4126 53.3706 32.4533 53.0404C32.4941 52.7094 32.7958 52.4412 33.1259 52.4412H42.3102C42.6404 52.4412 42.8752 52.7094 42.8345 53.0404C42.7929 53.3706 42.492 53.638 42.1619 53.638Z" fill="#1868AB"/>
<path d="M288 143.395C288 149.136 292.654 153.79 298.395 153.79C304.136 153.79 308.79 149.136 308.79 143.395C308.79 137.655 304.136 133 298.395 133C292.654 133 288 137.655 288 143.395Z" fill="#28D677"/>
<path d="M301.442 140.948L297.165 145.077L295.319 143.595C294.746 143.135 293.886 143.198 293.397 143.74C292.908 144.279 292.976 145.091 293.551 145.551L296.366 147.812C296.622 148.018 296.937 148.12 297.25 148.12C297.606 148.12 297.961 147.989 298.227 147.731L303.393 142.743C303.919 142.235 303.909 141.42 303.37 140.925C303.105 140.681 302.761 140.56 302.417 140.56C302.062 140.56 301.708 140.689 301.442 140.948Z" fill="white"/>
</svg>
