<svg width="328" height="164" viewBox="0 0 328 164" fill="none" xmlns="http://www.w3.org/2000/svg">
<path fill-rule="evenodd" clip-rule="evenodd" d="M304.781 161.504C294.319 163.667 62.9471 165.826 26.1241 161.504C15.2231 160.224 6.49713 148.276 5.22412 146.203C-2.73587 133.238 0.249146 53.2794 2.23914 26.266C3.31015 11.7278 18.1621 5.19571 25.1291 3.03482C38.4521 -1.09779 274.72 -1.26366 305.777 4.11573C319.672 6.52168 324.709 17.8712 325.709 24.1796C328.042 38.8847 329.421 129.331 325.681 141.514C322.695 151.239 315.231 159.343 304.781 161.504Z" fill="#E6F6ED"/>
<mask id="mask0_5567_157363" style="mask-type:alpha" maskUnits="userSpaceOnUse" x="0" y="0" width="328" height="164">
<path fill-rule="evenodd" clip-rule="evenodd" d="M304.781 161.504C294.319 163.667 62.9471 165.826 26.1241 161.504C15.2231 160.224 6.49713 148.276 5.22412 146.203C-2.73587 133.238 0.249146 53.2794 2.23914 26.266C3.31015 11.7278 18.1621 5.19571 25.1291 3.03482C38.4521 -1.09779 274.72 -1.26366 305.777 4.11573C319.672 6.52168 324.709 17.8712 325.709 24.1796C328.042 38.8847 329.421 129.331 325.681 141.514C322.695 151.239 315.231 159.343 304.781 161.504Z" fill="white"/>
</mask>
<g mask="url(#mask0_5567_157363)">
<ellipse rx="241.5" ry="51.5" transform="matrix(-1 0 0 1 241.5 164.5)" fill="#BBF0D3"/>
<mask id="mask1_5567_157363" style="mask-type:alpha" maskUnits="userSpaceOnUse" x="0" y="113" width="483" height="103">
<ellipse rx="241.5" ry="51.5" transform="matrix(-1 0 0 1 241.5 164.5)" fill="white"/>
</mask>
<g mask="url(#mask1_5567_157363)">
</g>
<path fill-rule="evenodd" clip-rule="evenodd" d="M196.105 174.431C196.105 174.431 115.861 106.985 12.8192 128.125C12.8192 128.125 -38.2456 137.185 -77 170.907L196.105 174.431Z" fill="#84D7CC"/>
<mask id="mask2_5567_157363" style="mask-type:alpha" maskUnits="userSpaceOnUse" x="-77" y="124" width="274" height="51">
<path fill-rule="evenodd" clip-rule="evenodd" d="M196.105 174.431C196.105 174.431 115.861 106.985 12.8192 128.125C12.8192 128.125 -38.2456 137.185 -77 170.907L196.105 174.431Z" fill="white"/>
</mask>
<g mask="url(#mask2_5567_157363)">
</g>
<path d="M207.777 131.806H107.354L107.222 49.2303C107.219 47.2633 108.813 45.667 110.78 45.667L204.755 45.667C206.729 45.667 208.326 47.2739 208.313 49.2477L207.777 131.806Z" fill="#00AB4E"/>
<mask id="mask3_5567_157363" style="mask-type:alpha" maskUnits="userSpaceOnUse" x="107" y="45" width="102" height="87">
<path d="M207.777 131.806H107.354L107.222 49.2303C107.219 47.2633 108.813 45.667 110.78 45.667L204.755 45.667C206.729 45.667 208.326 47.2739 208.313 49.2477L207.777 131.806Z" fill="white"/>
</mask>
<g mask="url(#mask3_5567_157363)">
<path d="M104.101 77.9007C104.101 77.9007 140.128 80.3389 158.142 80.3389C176.155 80.3389 211.19 77.9007 211.19 77.9007V64.1612H104.101V77.9007Z" fill="#00883E"/>
</g>
<path fill-rule="evenodd" clip-rule="evenodd" d="M175.154 89.7819C175.154 88.403 176.272 87.2852 177.651 87.2852H198.706C200.085 87.2852 201.203 88.403 201.203 89.7819V131.049H175.154V89.7819Z" fill="#E6F6ED"/>
<mask id="mask4_5567_157363" style="mask-type:alpha" maskUnits="userSpaceOnUse" x="175" y="87" width="27" height="45">
<path fill-rule="evenodd" clip-rule="evenodd" d="M175.154 89.7819C175.154 88.403 176.272 87.2852 177.651 87.2852H198.706C200.085 87.2852 201.203 88.403 201.203 89.7819V131.049H175.154V89.7819Z" fill="white"/>
</mask>
<g mask="url(#mask4_5567_157363)">
<rect x="178.442" y="81.522" width="4.40646" height="54.1365" transform="rotate(-35 178.442 81.522)" fill="#FEFEFE"/>
<rect x="166.876" y="87.2896" width="10.0719" height="59.1725" transform="rotate(-35 166.876 87.2896)" fill="#FEFEFE"/>
</g>
<path d="M148.121 76.93C145.336 76.93 143.079 74.8489 143.079 72.2819V68.1147H153.163V72.2819C153.163 74.8489 150.905 76.93 148.121 76.93Z" fill="#002E28"/>
<path d="M168.289 76.93C165.504 76.93 163.247 74.8489 163.247 72.2819V68.1147H173.331V72.2819C173.33 74.8489 171.073 76.93 168.289 76.93Z" fill="#002E28"/>
<path d="M127.953 76.93C125.169 76.93 122.911 74.8489 122.911 72.2819V68.1147H132.995V72.2819C132.995 74.8489 130.738 76.93 127.953 76.93Z" fill="#002E28"/>
<path d="M107.785 76.93C105.001 76.93 102.743 74.8489 102.743 72.2819C102.743 72.2819 102.743 71.0591 102.743 70.4337C102.743 69.67 102.743 68.1147 102.743 68.1147H112.827V72.2819C112.827 74.8489 110.57 76.93 107.785 76.93Z" fill="#002E28"/>
<path d="M188.456 76.93C185.672 76.93 183.414 74.8489 183.414 72.2819V68.1147H193.498V72.2819C193.498 74.8489 191.241 76.93 188.456 76.93Z" fill="#002E28"/>
<path d="M138.037 76.93C135.252 76.93 132.995 74.8489 132.995 72.2819V68.1147H143.079V72.2819C143.079 74.8489 140.821 76.93 138.037 76.93Z" fill="#C7CFE2"/>
<path d="M178.372 76.93C175.588 76.93 173.33 74.8489 173.33 72.2819V68.1147H183.414V72.2819C183.414 74.8489 181.157 76.93 178.372 76.93Z" fill="#C7CFE2"/>
<path d="M208.624 76.93C205.839 76.93 203.582 74.8489 203.582 72.2819V68.1147H213.666V72.2819C213.666 74.8489 211.409 76.93 208.624 76.93Z" fill="#002E28"/>
<path d="M198.54 76.93C195.755 76.93 193.498 74.8489 193.498 72.2819V68.1147H203.582V72.2819C203.582 74.8489 201.324 76.93 198.54 76.93Z" fill="#C7CFE2"/>
<path d="M117.869 76.93C115.085 76.93 112.827 74.8489 112.827 72.2819V68.1147H122.911V72.2819C122.911 74.8489 120.654 76.93 117.869 76.93Z" fill="#C7CFE2"/>
<path d="M158.205 76.93C155.42 76.93 153.163 74.8489 153.163 72.2819V68.1147H163.247V72.2819C163.247 74.8489 160.989 76.93 158.205 76.93Z" fill="#C7CFE2"/>
<path d="M153.162 68.1147H143.079L144.122 54.0103H153.51L153.162 68.1147Z" fill="#004D43"/>
<path d="M173.33 68.1147H163.246L162.898 54.0103H172.287L173.33 68.1147Z" fill="#004D43"/>
<path d="M132.995 68.1147H122.911L125.345 54.0103H134.733L132.995 68.1147Z" fill="#004D43"/>
<path d="M112.827 68.1147H102.743L106.568 54.0103H115.957L112.827 68.1147Z" fill="#004D43"/>
<path d="M193.498 68.1147H183.414L181.676 54.0103H191.064L193.498 68.1147Z" fill="#004D43"/>
<path d="M143.079 68.1147H132.995L134.733 54.0103H144.122L143.079 68.1147Z" fill="#EFF2FA"/>
<path d="M183.414 68.1147H173.33L172.287 54.0103H181.676L183.414 68.1147Z" fill="#EFF2FA"/>
<path d="M213.666 68.1147H203.582L200.452 54.0103H209.841L213.666 68.1147Z" fill="#004D43"/>
<path d="M203.582 68.1147H193.498L191.064 54.0103H200.452L203.582 68.1147Z" fill="#EFF2FA"/>
<path d="M122.911 68.1147H112.827L115.957 54.0103H125.345L122.911 68.1147Z" fill="#EFF2FA"/>
<path d="M163.246 68.1147H153.162L153.51 54.0103H162.898L163.246 68.1147Z" fill="#EFF2FA"/>
<path d="M188.705 50.1858H127.954C127.413 50.1858 126.975 49.5447 126.975 48.7536V34.4322C126.975 33.6412 127.413 33 127.954 33H188.705C189.246 33 189.684 33.6412 189.684 34.4322V48.7539C189.684 49.5447 189.246 50.1858 188.705 50.1858Z" fill="white"/>
<rect x="114.991" y="87.3647" width="52.1635" height="34.3487" rx="2.49678" fill="#E6F6ED"/>
<mask id="mask5_5567_157363" style="mask-type:alpha" maskUnits="userSpaceOnUse" x="114" y="87" width="54" height="35">
<rect x="114.991" y="87.3647" width="52.1635" height="34.3487" rx="2.49678" fill="white"/>
</mask>
<g mask="url(#mask5_5567_157363)">
<rect x="138.645" y="80.6338" width="4.40646" height="54.1365" transform="rotate(-35 138.645 80.6338)" fill="#FEFEFE"/>
<rect x="127.079" y="86.4014" width="10.0719" height="54.1365" transform="rotate(-35 127.079 86.4014)" fill="#FEFEFE"/>
</g>
<path d="M100.717 115.988C100.718 114.476 99.9023 113.063 98.5412 112.219C100.028 110.505 99.7264 108.006 97.8681 106.635C97.1029 106.071 96.152 105.764 95.1722 105.765C95.1106 105.765 95.049 105.771 94.9874 105.773C95.6772 103.671 94.3883 101.452 92.1085 100.816C89.8286 100.18 87.4212 101.368 86.7313 103.47C86.4849 104.221 86.4849 105.022 86.7313 105.773C86.6697 105.773 86.6081 105.764 86.5465 105.764C84.1666 105.762 82.2355 107.539 82.2333 109.733C82.2324 110.637 82.5655 111.513 83.1775 112.219C80.9191 113.62 80.3204 116.443 81.8403 118.525C82.1956 119.012 82.6497 119.431 83.1775 119.758C81.6909 121.471 81.9923 123.971 83.8506 125.342C84.6158 125.906 85.5667 126.213 86.5465 126.212H95.1722C97.5521 126.214 99.4831 124.437 99.4854 122.243C99.4863 121.34 99.1532 120.463 98.5412 119.758C99.9023 118.914 100.718 117.501 100.717 115.988Z" fill="#72BF44"/>
<path d="M95.6132 113.319C95.376 113.094 94.986 113.089 94.742 113.308L91.4753 116.22V108.037C91.4753 107.723 91.1995 107.469 90.8592 107.469C90.519 107.469 90.2431 107.723 90.2431 108.037V112.062L87.444 109.481C87.1993 109.263 86.8092 109.269 86.5728 109.495C86.3423 109.715 86.3423 110.064 86.5728 110.284L90.2431 113.668V121.433L87.5981 118.995C87.3533 118.777 86.9633 118.783 86.7269 119.009C86.4962 119.229 86.4962 119.578 86.7269 119.798L90.2431 123.04V133.596C90.2431 133.91 90.519 134.164 90.8592 134.164C91.1995 134.164 91.4753 133.91 91.4753 133.596V117.8L95.6034 114.124C95.8472 113.905 95.8524 113.545 95.615 113.321C95.6144 113.32 95.6138 113.32 95.6132 113.319Z" fill="#5B9836"/>
<path fill-rule="evenodd" clip-rule="evenodd" d="M163.321 46.2945C164.148 47.0199 165.119 47.4566 166.192 47.6489C169.476 48.2385 172.586 46.2924 173.493 43.0982C173.583 42.781 173.648 42.4589 173.683 42.1309C173.732 42.0332 173.663 41.9185 173.726 41.8225C173.726 41.5349 173.726 41.2473 173.726 40.9596C173.673 40.8776 173.712 40.7864 173.7 40.6999C173.679 39.5279 173.21 38.5161 172.544 37.5895C171.613 36.2925 170.336 35.4985 168.795 35.1162C168.548 35.0548 168.294 35.0468 168.041 35.047C167.94 35.0339 167.834 35.076 167.737 35.021C167.466 35.021 167.195 35.021 166.925 35.021C166.841 35.0741 166.749 35.035 166.662 35.0472C165.422 35.0823 164.368 35.5958 163.397 36.3193C163.342 36.3599 163.3 36.413 163.291 36.4856C163.312 36.6541 163.448 36.7425 163.556 36.8434C164.631 37.8463 165.258 39.0858 165.452 40.5331C165.65 42.0129 165.37 43.4066 164.581 44.6857C164.305 45.1338 163.978 45.5407 163.592 45.9011C163.488 45.9984 163.375 46.0904 163.306 46.2205C163.296 46.248 163.302 46.2727 163.321 46.2945Z" fill="#BCD430"/>
<path fill-rule="evenodd" clip-rule="evenodd" d="M163.321 46.2945C163.324 46.2788 163.326 46.2632 163.327 46.2473C162.978 45.928 162.651 45.5894 162.364 45.2131C161.626 44.2479 161.212 43.1621 161.096 41.9501C160.986 40.7983 161.197 39.7104 161.683 38.6745C162.03 37.9339 162.507 37.2784 163.126 36.7349C163.202 36.6683 163.289 36.6103 163.293 36.494C163.27 36.3621 163.157 36.3035 163.066 36.2356C162.339 35.6957 161.536 35.3141 160.65 35.1153C160.412 35.0616 160.167 35.0515 159.922 35.0472C159.821 35.0339 159.714 35.076 159.616 35.021C159.362 35.021 159.108 35.021 158.854 35.021C158.757 35.0838 158.641 35.0159 158.541 35.0639C157.238 35.1989 156.086 35.6861 155.095 36.5469C155.077 36.6795 155.179 36.7432 155.258 36.8142C155.963 37.4559 156.512 38.2107 156.849 39.103C157.7 41.3564 157.386 43.448 155.94 45.3722C155.762 45.6097 155.552 45.818 155.344 46.0286C155.27 46.1031 155.164 46.1655 155.187 46.2991C155.941 46.9717 156.83 47.3879 157.806 47.5981C159.756 48.0179 161.535 47.6163 163.129 46.411C163.189 46.3653 163.24 46.3053 163.321 46.2945Z" fill="#74BD45"/>
<path fill-rule="evenodd" clip-rule="evenodd" d="M168.048 35.0636C168.045 35.0495 168.042 35.0351 168.041 35.0205C167.94 35.0205 167.838 35.0205 167.737 35.0205C167.831 35.1036 167.942 35.0676 168.048 35.0636Z" fill="#D9E68B"/>
<path fill-rule="evenodd" clip-rule="evenodd" d="M159.925 35.0646C159.922 35.0502 159.92 35.0356 159.92 35.0208C159.819 35.0208 159.717 35.0208 159.616 35.0208C159.71 35.0978 159.82 35.069 159.925 35.0646Z" fill="#BDDFA8"/>
<path fill-rule="evenodd" clip-rule="evenodd" d="M158.541 35.0639C158.648 35.0689 158.759 35.1062 158.854 35.0209C158.752 35.0209 158.651 35.0209 158.549 35.0209C158.548 35.0355 158.545 35.0497 158.541 35.0639Z" fill="#A7D58A"/>
<path fill-rule="evenodd" clip-rule="evenodd" d="M173.726 41.8223C173.651 41.9164 173.679 42.0253 173.682 42.1306C173.697 42.1306 173.712 42.1294 173.726 42.1268C173.726 42.0253 173.726 41.9238 173.726 41.8223Z" fill="#E5EEB1"/>
<path fill-rule="evenodd" clip-rule="evenodd" d="M166.671 35.0207C166.67 35.0346 166.668 35.0486 166.665 35.0626C166.755 35.0689 166.848 35.0964 166.925 35.0207C166.84 35.0207 166.756 35.0207 166.671 35.0207Z" fill="#E0EBA0"/>
<path fill-rule="evenodd" clip-rule="evenodd" d="M173.726 40.7054C173.713 40.6986 173.7 40.6963 173.686 40.6986C173.678 40.7887 173.65 40.8822 173.726 40.9592C173.726 40.8746 173.726 40.79 173.726 40.7054Z" fill="#DFEBA0"/>
<path fill-rule="evenodd" clip-rule="evenodd" d="M155.188 46.2982C155.599 45.8525 156.034 45.4281 156.359 44.9074C156.904 44.0339 157.242 43.0964 157.339 42.0656C157.504 40.321 157.014 38.7807 155.932 37.4219C155.682 37.1072 155.376 36.8367 155.095 36.5459C154.533 36.1413 153.956 35.7664 153.304 35.5138C149.504 34.0427 145.286 36.4979 144.701 40.5266C144.199 43.9876 146.593 47.2461 150.03 47.7481C151.878 48.018 153.549 47.5679 155.017 46.4007C155.069 46.3595 155.114 46.3043 155.188 46.2982Z" fill="#0AA94E"/>
<path fill-rule="evenodd" clip-rule="evenodd" d="M163.312 36.4956C163.297 36.4935 163.283 36.4948 163.269 36.499C162.766 36.951 162.315 37.4482 161.96 38.0272C161.427 38.8952 161.116 39.8308 161.029 40.8509C160.895 42.411 161.293 43.8181 162.189 45.0885C162.471 45.4871 162.779 45.8682 163.171 46.1703C163.219 46.2068 163.263 46.2443 163.326 46.2474C164.693 45.0475 165.473 43.5541 165.562 41.7249C165.658 39.7414 164.962 38.0742 163.526 36.7101C163.452 36.6403 163.383 36.5671 163.312 36.4956Z" fill="#0AA94E"/>
<path fill-rule="evenodd" clip-rule="evenodd" d="M153.834 39.3633C153.981 39.4515 154.087 39.5027 154.179 39.5714C154.31 39.6695 154.407 39.6484 154.495 39.5166C154.593 39.3709 154.497 39.3015 154.391 39.2351C153.236 38.5173 151.981 38.1876 150.623 38.2889C149.561 38.3682 148.579 38.7098 147.659 39.2408C147.55 39.3039 147.418 39.3523 147.515 39.5257C147.608 39.6903 147.724 39.6632 147.855 39.5854C147.94 39.5352 148.028 39.4904 148.125 39.4375C148.135 39.5441 148.08 39.612 148.048 39.6856C147.512 40.9241 146.974 42.1619 146.436 43.4002C146.274 43.772 146.337 43.9945 146.677 44.2223C146.992 44.4338 147.35 44.5319 147.721 44.5831C148.364 44.6715 149.002 44.6588 149.628 44.4672C149.84 44.4025 150.041 44.3156 150.217 44.1804C150.499 43.9636 150.554 43.7549 150.411 43.4262C149.838 42.1027 149.269 40.7767 148.68 39.4597C148.582 39.2406 148.636 39.1823 148.832 39.1068C150.289 38.5455 151.745 38.5165 153.21 39.0748C153.407 39.1497 153.438 39.2195 153.352 39.4143C152.765 40.7412 152.191 42.074 151.613 43.4047C151.456 43.7663 151.513 43.9861 151.838 44.2109C152.158 44.4325 152.525 44.5325 152.904 44.5844C153.547 44.6721 154.185 44.6586 154.811 44.4663C154.982 44.4141 155.145 44.3452 155.295 44.2502C155.678 44.0095 155.745 43.7917 155.565 43.377C155.027 42.1387 154.49 40.9006 153.953 39.6623C153.918 39.5807 153.887 39.4974 153.834 39.3633Z" fill="#FEFEFE"/>
<path fill-rule="evenodd" clip-rule="evenodd" d="M155.141 43.329C155.11 43.2457 155.095 43.1983 155.076 43.1531C154.589 42.0309 154.102 40.9087 153.615 39.7861C153.553 39.8151 153.542 39.8646 153.522 39.9096C153.059 40.9781 152.598 42.0476 152.128 43.1131C152.053 43.284 152.058 43.3354 152.267 43.3335C153.213 43.3235 154.16 43.329 155.141 43.329Z" fill="#0AA94E"/>
<path fill-rule="evenodd" clip-rule="evenodd" d="M146.865 43.3175C147.913 43.3175 148.923 43.3175 149.967 43.3175C149.453 42.1291 148.948 40.9634 148.418 39.7393C147.892 40.9519 147.386 42.1185 146.865 43.3175Z" fill="#0AA94E"/>
<path d="M105.968 133.054C105.968 131.675 107.086 130.558 108.465 130.558H208.336C209.715 130.558 210.833 131.675 210.833 133.054V135.551H105.968V133.054Z" fill="#004D43"/>
<path fill-rule="evenodd" clip-rule="evenodd" d="M241 130.913C241 144.377 230.085 155.291 216.621 155.291C203.157 155.291 192.242 144.377 192.242 130.913C192.242 117.448 203.157 106.534 216.621 106.534C230.085 106.534 241 117.448 241 130.913Z" fill="#84D7CC"/>
<path fill-rule="evenodd" clip-rule="evenodd" d="M240.502 129.42C240.502 142.609 229.81 153.301 216.621 153.301C203.432 153.301 192.74 142.609 192.74 129.42C192.74 116.231 203.432 105.539 216.621 105.539C229.81 105.539 240.502 116.231 240.502 129.42Z" fill="white"/>
<path fill-rule="evenodd" clip-rule="evenodd" d="M226.812 133.946H207.541C207.032 133.946 206.589 134.197 206.462 134.555L204.22 140.889C204.039 141.403 204.571 141.903 205.299 141.903H224.571C225.079 141.903 225.523 141.653 225.65 141.294L227.891 134.961C228.073 134.447 227.54 133.946 226.812 133.946Z" fill="#BFD730"/>
<path fill-rule="evenodd" clip-rule="evenodd" d="M220.656 137.674C220.887 137.019 220.402 136.333 219.708 136.333H212.152C211.727 136.333 211.347 136.601 211.205 137.003L210.79 138.175C210.558 138.829 211.043 139.516 211.737 139.516H219.293C219.719 139.516 220.098 139.248 220.24 138.846L220.656 137.674Z" fill="#98AC26"/>
<path fill-rule="evenodd" clip-rule="evenodd" d="M210.151 129.458L210.068 129.346C209.146 128.098 208.509 126.594 208.27 124.948C208.201 124.468 208.164 123.977 208.164 123.478C208.164 119.156 214.529 114.054 214.529 114.054H216.916C221.75 114.054 225.669 118.273 225.669 123.478C225.669 123.977 225.632 124.468 225.562 124.948C225.323 126.594 224.687 128.098 223.762 129.346H223.766L223.684 129.455C223.676 129.462 223.669 129.473 223.662 129.482L217.514 137.619C217.36 137.821 217.137 137.923 216.916 137.925C216.693 137.927 214.529 137.925 214.529 137.925L210.167 129.481L210.167 129.481C210.162 129.473 210.156 129.465 210.151 129.458ZM216.916 127.581C219.553 127.581 221.691 125.444 221.691 122.807C221.691 120.17 219.553 118.033 216.916 118.033C214.28 118.033 212.142 120.17 212.142 122.807C212.142 125.444 214.28 127.581 216.916 127.581Z" fill="#00883E"/>
<path fill-rule="evenodd" clip-rule="evenodd" d="M207.68 129.346C206.759 128.098 206.122 126.594 205.883 124.948C205.813 124.468 205.776 123.977 205.776 123.478C205.776 118.273 209.695 114.054 214.529 114.054C219.363 114.054 223.282 118.273 223.282 123.478C223.282 123.977 223.245 124.468 223.175 124.948C222.936 126.594 222.299 128.098 221.375 129.346H221.379L221.297 129.455C221.289 129.462 221.282 129.473 221.274 129.482L215.127 137.619C214.817 138.027 214.238 138.027 213.931 137.619L207.78 129.481C207.775 129.473 207.769 129.465 207.764 129.458L207.679 129.346H207.68ZM214.529 127.581C217.166 127.581 219.304 125.444 219.304 122.807C219.304 120.17 217.166 118.033 214.529 118.033C211.893 118.033 209.755 120.17 209.755 122.807C209.755 125.444 211.893 127.581 214.529 127.581Z" fill="#00AB4E"/>
<path fill-rule="evenodd" clip-rule="evenodd" d="M331.377 17.8979C323.326 17.8979 316.536 23.3137 314.427 30.6923C313.039 30.25 311.562 30.0204 310.021 30.0204C303.298 30.0204 297.647 34.5101 295.876 40.645H314.535H324.146H348.243C348.726 39.0215 349 37.2903 349 35.5005C349 25.7802 341.117 17.8979 331.377 17.8979Z" fill="#C4E4FF"/>
<path fill-rule="evenodd" clip-rule="evenodd" d="M-0.500231 45.8979C7.55117 45.8979 14.341 51.3137 16.4502 58.6923C17.8384 58.25 19.3145 58.0204 20.8558 58.0204C27.5786 58.0204 33.2297 62.5101 35.0006 68.645H16.3416H6.73091H-17.3656C-17.8495 67.0215 -18.1235 65.2903 -18.1235 63.5005C-18.1235 53.7802 -10.2403 45.8979 -0.500231 45.8979Z" fill="#C4E4FF"/>
</g>
</svg>
