<svg width="328" height="164" viewBox="0 0 328 164" fill="none" xmlns="http://www.w3.org/2000/svg">
<mask id="mask0_5567_163038" style="mask-type:alpha" maskUnits="userSpaceOnUse" x="0" y="0" width="328" height="164">
<path d="M304.781 161.504C294.319 163.667 62.9471 165.826 26.1241 161.504C15.2231 160.224 6.49713 148.276 5.22412 146.203C-2.73587 133.238 0.249146 53.2794 2.23914 26.266C3.31015 11.7278 18.1621 5.19571 25.1291 3.03482C38.4521 -1.09779 274.72 -1.26366 305.777 4.11573C319.672 6.52168 324.709 17.8712 325.709 24.1796C328.042 38.8847 329.421 129.331 325.681 141.514C322.695 151.239 315.231 159.343 304.781 161.504Z" fill="white"/>
</mask>
<g mask="url(#mask0_5567_163038)">
<path d="M304.781 161.504C294.319 163.667 62.9471 165.826 26.1241 161.504C15.2231 160.224 6.49713 148.276 5.22412 146.203C-2.73587 133.238 0.249146 53.2794 2.23914 26.266C3.31015 11.7278 18.1621 5.19571 25.1291 3.03482C38.4521 -1.09779 274.72 -1.26366 305.777 4.11573C319.672 6.52168 324.709 17.8712 325.709 24.1796C328.042 38.8847 329.421 129.331 325.681 141.514C322.695 151.239 315.231 159.343 304.781 161.504Z" fill="#E8FFFC"/>
<path d="M241.5 216C108.123 216 0 192.943 0 164.5C0 136.057 108.123 113 241.5 113C374.877 113 483 136.057 483 164.5C483 192.943 374.877 216 241.5 216Z" fill="#BBF0D3"/>
<mask id="mask1_5567_163038" style="mask-type:alpha" maskUnits="userSpaceOnUse" x="-77" y="124" width="274" height="51">
<path d="M196.105 174.431C196.105 174.431 115.861 106.984 12.8192 128.124C12.8192 128.124 -38.2456 137.184 -77 170.907L196.105 174.431Z" fill="white"/>
</mask>
<g mask="url(#mask1_5567_163038)">
<path d="M196.105 174.431C196.105 174.431 115.861 106.984 12.8192 128.124C12.8192 128.124 -38.2456 137.184 -77 170.907L196.105 174.431Z" fill="#84D7CC"/>
</g>
<path fill-rule="evenodd" clip-rule="evenodd" d="M331.377 17.8982C323.326 17.8982 316.536 23.314 314.427 30.6925C313.039 30.2503 311.562 30.0207 310.021 30.0207C303.298 30.0207 297.647 34.5103 295.876 40.6453H314.535H324.146H348.243C348.726 39.0218 349 37.2905 349 35.5007C349 25.7804 341.117 17.8982 331.377 17.8982Z" fill="#C4E4FF"/>
<path fill-rule="evenodd" clip-rule="evenodd" d="M-0.500214 45.8982C7.55119 45.8982 14.341 51.314 16.4503 58.6925C17.8385 58.2503 19.3145 58.0207 20.8558 58.0207C27.5786 58.0207 33.2297 62.5103 35.0006 68.6453H16.3416H6.73093H-17.3656C-17.8495 67.0218 -18.1235 65.2905 -18.1235 63.5007C-18.1235 53.7804 -10.2403 45.8982 -0.500214 45.8982Z" fill="#C4E4FF"/>
<mask id="mask2_5567_163038" style="mask-type:alpha" maskUnits="userSpaceOnUse" x="64" y="47" width="50" height="83">
<path d="M77.7467 47.8504L108.03 50.6409C108.044 50.6424 108.06 50.6439 108.076 50.6459C111.501 50.991 113.957 54.5157 113.567 58.5428L107.49 122.89C107.151 126.473 104.28 129.218 100.799 129.541L100.736 129.547C100.302 129.584 99.8596 129.583 99.4114 129.542L71.4194 126.961C67.8162 126.629 65.0558 123.792 64.7199 120.344L64.7089 120.219C64.6754 119.8 64.6778 119.372 64.7183 118.939L70.7956 54.6014C71.1606 50.826 73.8938 47.9411 77.0598 47.8305C77.2872 47.8226 77.5162 47.8289 77.7467 47.8504Z" fill="white"/>
</mask>
<g mask="url(#mask2_5567_163038)">
<path fill-rule="evenodd" clip-rule="evenodd" d="M115.557 41.0253L54.786 46.4021L62.7394 136.3L123.51 130.924L115.557 41.0253Z" fill="#252528"/>
</g>
<mask id="mask3_5567_163038" style="mask-type:alpha" maskUnits="userSpaceOnUse" x="62" y="47" width="50" height="83">
<path d="M75.8613 47.8367L106.019 50.6433C106.034 50.6448 106.049 50.6473 106.064 50.6484C109.475 50.9959 111.921 54.5333 111.535 58.575L105.497 123.153C105.116 127.217 101.516 130.206 97.4537 129.826L69.5781 127.23C65.5112 126.852 62.5223 123.246 62.9031 119.178L68.9401 54.6096C69.3026 50.8215 72.0257 47.9267 75.1779 47.8166C75.4044 47.8087 75.6318 47.8151 75.8613 47.8367Z" fill="white"/>
</mask>
<g mask="url(#mask3_5567_163038)">
<path fill-rule="evenodd" clip-rule="evenodd" d="M113.522 41.0249L52.9477 46.3841L60.927 136.572L121.501 131.213L113.522 41.0249Z" fill="#58585B"/>
</g>
<mask id="mask4_5567_163038" style="mask-type:alpha" maskUnits="userSpaceOnUse" x="65" y="51" width="44" height="77">
<path d="M75.7804 51.8799L80.613 52.3382C81.2323 52.3967 81.785 52.358 81.8632 53.1339L81.95 53.9974C82.0261 54.7745 82.5164 55.3604 83.1368 55.4194L96.8789 56.721C97.4987 56.779 98.0889 56.2953 98.3094 55.5472L98.5551 54.715C98.7551 54.0381 99.2052 54.0878 99.7475 54.1475C99.8054 54.1541 99.8638 54.1608 99.9232 54.1658L104.756 54.622C104.765 54.6233 104.775 54.6244 104.784 54.6251C107.005 54.855 108.584 57.3151 108.321 60.1357L102.599 122.08C102.308 125.22 99.5541 127.526 96.4439 127.23L70.6509 124.789C67.5345 124.493 65.2429 121.701 65.5324 118.557L71.2536 56.6258C71.502 53.9717 73.2973 51.9395 75.3607 51.8675C75.4994 51.8626 75.639 51.8664 75.7804 51.8799Z" fill="white"/>
</mask>
<g mask="url(#mask4_5567_163038)">
<path fill-rule="evenodd" clip-rule="evenodd" d="M110.514 45.361L55.9971 50.1844L63.3809 133.642L117.898 128.819L110.514 45.361Z" fill="white"/>
</g>
<mask id="mask5_5567_163038" style="mask-type:alpha" maskUnits="userSpaceOnUse" x="66" y="62" width="3" height="9">
<path d="M67.7248 62.7216L68.6453 62.8059L67.9267 70.1562L67.0078 70.0734C66.7189 70.0457 66.5058 69.7928 66.5342 69.5099L67.1509 63.1895C67.1764 62.9272 67.3962 62.729 67.6579 62.7199C67.6798 62.7191 67.7023 62.7194 67.7248 62.7216Z" fill="white"/>
</mask>
<g mask="url(#mask5_5567_163038)">
<path fill-rule="evenodd" clip-rule="evenodd" d="M71.6973 58.97L62.2745 59.8035L63.5253 73.9375L72.9476 73.104L71.6973 58.97Z" fill="#252528"/>
</g>
<mask id="mask6_5567_163038" style="mask-type:alpha" maskUnits="userSpaceOnUse" x="65" y="71" width="3" height="8">
<path d="M66.8043 71.3708C66.8063 71.3708 66.8068 71.3707 66.8094 71.3712L67.635 71.4439L67.0986 78.0455L66.273 77.9732C66.0123 77.9507 65.8201 77.725 65.8418 77.469L66.3013 71.7933C66.3196 71.5578 66.5155 71.3773 66.7496 71.3692C66.7674 71.3685 66.7858 71.3689 66.8043 71.3708Z" fill="white"/>
</mask>
<g mask="url(#mask6_5567_163038)">
<path fill-rule="evenodd" clip-rule="evenodd" d="M64.3497 67.407L72.5332 69.6406L69.1828 81.9157L60.9994 79.6821L64.3497 67.407Z" fill="#252528"/>
</g>
<mask id="mask7_5567_163038" style="mask-type:alpha" maskUnits="userSpaceOnUse" x="88" y="51" width="8" height="3">
<path d="M88.8114 51.3631L94.9404 51.9819C94.9415 51.9819 94.944 51.9823 94.9451 51.9828C95.3151 52.0225 95.588 52.3652 95.5556 52.7524L95.5425 52.8902C95.5085 53.2764 95.1773 53.5601 94.8038 53.5226L88.6747 52.9023C88.3027 52.8642 88.0277 52.5195 88.0616 52.1323L88.0742 51.9955C88.1052 51.6401 88.3853 51.3714 88.7194 51.3597C88.7495 51.3587 88.7807 51.3601 88.8114 51.3631Z" fill="white"/>
</mask>
<g mask="url(#mask7_5567_163038)">
<path fill-rule="evenodd" clip-rule="evenodd" d="M98.4585 47.106L84.3246 48.3563L85.1581 57.7791L99.2921 56.5288L98.4585 47.106Z" fill="#252528"/>
</g>
<mask id="mask8_5567_163038" style="mask-type:alpha" maskUnits="userSpaceOnUse" x="84" y="50" width="3" height="3">
<path d="M85.7579 50.9601C85.7604 50.959 85.7625 50.9594 85.764 50.9599C86.318 51.0177 86.7227 51.509 86.6706 52.0638C86.6176 52.6223 86.1233 53.0312 85.5664 52.9771C85.008 52.9251 84.6001 52.4308 84.6531 51.8734C84.7006 51.3606 85.1231 50.9736 85.625 50.9561C85.6688 50.9545 85.7133 50.9555 85.7579 50.9601Z" fill="white"/>
</mask>
<g mask="url(#mask8_5567_163038)">
<path fill-rule="evenodd" clip-rule="evenodd" d="M89.6495 47.2068L80.9002 47.9811L81.6739 56.7304L90.4238 55.9561L89.6495 47.2068Z" fill="#252528"/>
</g>
<mask id="mask9_5567_163038" style="mask-type:alpha" maskUnits="userSpaceOnUse" x="70" y="58" width="39" height="70">
<path d="M108.402 60.3275L102.525 122.154C102.227 125.288 99.4336 127.592 96.2842 127.301L70.8144 124.959C100.91 123.92 107.658 64.9801 108.309 58.5007C108.425 59.0777 108.463 59.6927 108.402 60.3275Z" fill="white"/>
</mask>
<g mask="url(#mask9_5567_163038)">
<path fill-rule="evenodd" clip-rule="evenodd" d="M111.414 54.8343L61.6086 59.241L68.1589 133.276L117.964 128.869L111.414 54.8343Z" fill="#C3DFF8"/>
</g>
<mask id="mask10_5567_163038" style="mask-type:alpha" maskUnits="userSpaceOnUse" x="80" y="107" width="24" height="15">
<path d="M85.0431 107.712C87.351 108.892 94.4643 113.888 94.4643 113.888L99.8796 116.884L102.893 117.972L103.371 121.61L95.6476 117.434L80.8111 108.263C80.8111 108.263 81.8237 107.353 83.2601 107.303C83.8039 107.284 84.4095 107.389 85.0431 107.712Z" fill="white"/>
</mask>
<g mask="url(#mask10_5567_163038)">
<path fill-rule="evenodd" clip-rule="evenodd" d="M103.912 102.079L77.1951 105.381L80.1766 126.922L106.893 123.62L103.912 102.079Z" fill="#C3DFF8"/>
</g>
<path fill-rule="evenodd" clip-rule="evenodd" d="M116.492 105.745C117.981 106.786 118.944 108.43 119.127 110.242L121.181 130.526C121.451 133.193 122.255 135.774 123.544 138.12L127.325 145.683L106.748 152.261L102.676 145.411C100.468 143.443 98.5872 141.133 97.1028 138.57L91.4059 128.735C90.7359 127.578 89.9212 126.512 88.9814 125.564L79.2641 115.754C78.3831 114.864 77.9241 113.638 78.0005 112.387C78.1338 110.259 79.7695 108.534 81.881 108.299L82.2128 108.263C83.257 108.147 84.3067 108.413 85.1697 109.01L96.3123 116.714C97.0701 117.238 97.8929 117.659 98.7583 117.965L105.883 120.619C107.522 121.23 108.022 115.57 108.022 115.57L109.436 100.385L116.492 105.745Z" fill="#FFDAB8"/>
<path fill-rule="evenodd" clip-rule="evenodd" d="M88.8293 63.8685C85.9468 63.667 83.4617 65.8253 83.2581 68.7073C83.0555 71.5738 85.2215 74.0749 88.0806 74.2761C90.9734 74.4797 93.4591 72.3186 93.6598 69.4255C93.859 66.5528 91.7003 64.0694 88.8293 63.8685ZM86.2517 67.2466C86.1304 67.3047 86.0623 67.3352 85.9961 67.3695C85.8885 67.4252 85.7927 67.4471 85.7218 67.3127C85.6464 67.1701 85.7351 67.1216 85.8432 67.0699C86.9265 66.5516 88.0543 66.3254 89.2516 66.5406C90.0074 66.6764 90.6936 66.9747 91.3169 67.4201C91.4081 67.4853 91.5284 67.5467 91.4204 67.694C91.3108 67.8436 91.214 67.7606 91.1121 67.6848C91.0557 67.6428 90.9942 67.6075 90.899 67.546C90.9318 67.6458 90.9492 67.7022 90.9688 67.7577C91.3382 68.8025 91.7075 69.8472 92.0776 70.8918C92.2044 71.2496 92.1349 71.4335 91.7927 71.6072C91.6905 71.6591 91.5809 71.7018 91.4699 71.7302C90.7839 71.9052 90.1077 71.8525 89.4416 71.627C89.2863 71.5745 89.1428 71.496 89.0107 71.399C88.7259 71.1902 88.6847 70.9929 88.8484 70.679C89.3983 69.6241 89.9433 68.5666 90.4988 67.5147C90.5749 67.3705 90.5377 67.3251 90.4064 67.2635C89.2361 66.7147 88.0384 66.6592 86.809 67.0354C86.6405 67.0869 86.6247 67.1529 86.6807 67.3079C87.0683 68.3819 87.4467 69.4592 87.8283 70.5354C87.9848 70.9769 87.8954 71.1881 87.4582 71.3616C86.9162 71.5767 86.3543 71.5715 85.7898 71.48C85.4318 71.422 85.085 71.3255 84.7865 71.1055C84.5005 70.8949 84.4563 70.6969 84.6188 70.3863C84.8802 69.8863 85.1405 69.3858 85.4008 68.8853C85.6759 68.3562 85.9504 67.827 86.2517 67.2466Z" fill="#02A750"/>
<path fill-rule="evenodd" clip-rule="evenodd" d="M87.8444 78.1309C90.4476 78.2777 92.7288 77.4857 94.6454 75.7196C96.1878 74.2984 97.1136 72.5286 97.4349 70.4503C97.464 70.2622 97.478 70.0718 97.5079 69.8839C97.524 69.7832 97.4915 69.7552 97.3931 69.7507C97.1283 69.7386 96.8635 69.7203 96.5997 69.6947C96.4737 69.6825 96.4931 69.7655 96.4859 69.8363C96.4135 70.5505 96.2618 71.2477 96.0046 71.9176C95.5258 73.1647 94.789 74.2362 93.7826 75.1184C92.6786 76.0862 91.4076 76.7206 89.9641 76.9881C88.4232 77.2737 86.917 77.1372 85.4596 76.5462C83.6773 75.8236 82.3179 74.6166 81.3926 72.9347C80.5758 71.4497 80.2683 69.8567 80.4584 68.1689C80.6834 66.1713 81.5446 64.4869 83.0155 63.1351C84.4763 61.7926 86.2181 61.081 88.211 61.02C89.8624 60.9695 91.3887 61.3856 92.783 62.2741C92.8904 62.3425 92.9583 62.3472 93.0329 62.2363C93.1618 62.0445 93.2932 61.8536 93.4354 61.6717C93.5215 61.5616 93.4952 61.5063 93.3875 61.4361C92.7279 61.0064 92.0225 60.6708 91.275 60.4306C89.8916 59.9861 88.477 59.8694 87.0411 60.0974C85.2539 60.3812 83.6814 61.1309 82.3483 62.3547C80.6908 63.8763 79.7146 65.7591 79.4473 67.9977C79.1864 70.1834 79.6566 72.2108 80.8644 74.0452C82.1636 76.0185 83.9756 77.2993 86.2714 77.8853C86.7877 78.0172 87.3115 78.0936 87.8444 78.1309Z" fill="#BAD333"/>
<path fill-rule="evenodd" clip-rule="evenodd" d="M88.9326 62.0317C86.3399 61.9383 84.2526 62.9096 82.6941 65.0007C82.6076 65.1167 82.6169 65.1767 82.7378 65.2544C82.9089 65.3645 83.0756 65.4851 83.2287 65.6188C83.3669 65.7394 83.4438 65.7367 83.5561 65.5762C84.1082 64.7876 84.8204 64.1773 85.6703 63.7254C88.0049 62.4839 90.9826 62.9678 92.8019 64.8959C94.103 66.2748 94.6501 67.9158 94.4437 69.7985C94.134 72.6254 91.7377 74.9268 88.8957 75.0738C86.3116 75.2074 84.3854 74.0955 83.1151 71.8459C83.0549 71.7393 83.0144 71.7102 82.9022 71.7795C82.7 71.9046 82.491 72.0202 82.2779 72.1258C82.1511 72.1886 82.1573 72.2531 82.2174 72.3621C83.2186 74.1779 84.7065 75.3895 86.7192 75.9007C89.8338 76.6918 92.9827 75.3393 94.5997 72.5536C96.4647 69.3407 95.3877 65.0606 92.2231 63.102C91.2145 62.4779 90.1245 62.1103 88.9326 62.0317Z" fill="#74BC46"/>
<path fill-rule="evenodd" clip-rule="evenodd" d="M86.2516 67.2466C85.9503 67.827 85.6758 68.3562 85.4007 68.8853C85.1404 69.3858 84.88 69.8863 84.6186 70.3862C84.4562 70.6969 84.5003 70.8949 84.7864 71.1055C85.0848 71.3254 85.4316 71.422 85.7897 71.48C86.3541 71.5715 86.916 71.5767 87.458 71.3616C87.8952 71.1881 87.9847 70.9768 87.8282 70.5354C87.4466 69.4592 87.0681 68.3819 86.6805 67.3078C86.6246 67.1529 86.6404 67.0869 86.8089 67.0353C88.0383 66.6591 89.236 66.7146 90.4063 67.2635C90.5376 67.325 90.5748 67.3705 90.4986 67.5147C89.9432 68.5666 89.3982 69.6241 88.8482 70.6789C88.6846 70.9929 88.7258 71.1901 89.0105 71.399C89.1427 71.496 89.2862 71.5744 89.4415 71.627C90.1076 71.8524 90.7838 71.9052 91.4698 71.7301C91.5808 71.7018 91.6904 71.6591 91.7926 71.6072C92.1347 71.4335 92.2043 71.2496 92.0775 70.8917C91.7074 69.8472 91.338 68.8024 90.9686 67.7576C90.949 67.7021 90.9317 67.6457 90.8989 67.5459C90.9941 67.6075 91.0555 67.6428 91.112 67.6848C91.2139 67.7606 91.3106 67.8436 91.4203 67.6939C91.5282 67.5467 91.4079 67.4853 91.3167 67.4201C90.6935 66.9746 90.0072 66.6764 89.2514 66.5406C88.0542 66.3254 86.9264 66.5515 85.8431 67.0698C85.735 67.1215 85.6463 67.17 85.7216 67.3127C85.7925 67.447 85.8883 67.4252 85.996 67.3694C86.0622 67.3352 86.1303 67.3047 86.2516 67.2466ZM90.6542 67.8635C90.6798 67.8914 90.6932 67.8998 90.6973 67.9115C91.0267 68.8387 91.3539 69.7668 91.6856 70.6933C91.7354 70.8322 91.6631 70.8208 91.5697 70.814C90.9056 70.766 90.2413 70.7202 89.5771 70.6736C89.4638 70.6657 89.3505 70.6578 89.2068 70.6478C89.6975 69.704 90.1739 68.7875 90.6542 67.8635ZM86.4258 67.5713C86.4515 67.5987 86.4713 67.6104 86.4772 67.6271C86.803 68.5484 87.1265 69.4705 87.454 70.3912C87.4988 70.5172 87.4479 70.5266 87.3426 70.5189C86.6107 70.4651 85.8788 70.4122 85.1464 70.3663C84.9876 70.3563 85.0052 70.3007 85.0636 70.1922C85.218 69.9054 85.363 69.6135 85.5132 69.3245C85.8153 68.7428 86.1185 68.1617 86.4258 67.5713Z" fill="#F3FAF6"/>
<path fill-rule="evenodd" clip-rule="evenodd" d="M90.6542 67.8636C90.1738 68.7877 89.6975 69.7041 89.2068 70.6479C89.3505 70.658 89.4638 70.6659 89.5771 70.6738C90.2413 70.7204 90.9056 70.7661 91.5697 70.8142C91.6631 70.821 91.7354 70.8323 91.6856 70.6934C91.3539 69.767 91.0267 68.8389 90.6973 67.9116C90.6932 67.9 90.6798 67.8916 90.6542 67.8636Z" fill="#04A650"/>
<path fill-rule="evenodd" clip-rule="evenodd" d="M86.426 67.5714C86.1186 68.1617 85.8155 68.7429 85.5133 69.3246C85.3632 69.6136 85.2182 69.9055 85.0638 70.1922C85.0054 70.3007 84.9878 70.3564 85.1466 70.3664C85.879 70.4122 86.6109 70.4652 87.3428 70.5189C87.4481 70.5267 87.499 70.5173 87.4542 70.3913C87.1267 69.4706 86.8032 68.5485 86.4773 67.6272C86.4714 67.6105 86.4517 67.5987 86.426 67.5714Z" fill="#04A650"/>
<path fill-rule="evenodd" clip-rule="evenodd" d="M100.068 137.886C101.779 138.992 103.313 140.342 104.494 141.994C106.198 144.378 108.297 147.267 108.923 147.92C110.029 149.077 120.802 146.586 124.86 142.585C124.86 142.585 123.258 147.051 116.071 149.445C108.538 151.952 104.785 149.808 104.785 149.808L100.312 142.302C100.312 142.302 96.439 140.029 88.8093 125.12C88.8093 125.12 95.6672 135.039 100.068 137.886Z" fill="#FFB08C"/>
<path fill-rule="evenodd" clip-rule="evenodd" d="M129.675 140.6C129.32 139.708 128.324 139.276 127.45 139.636C127.427 139.645 127.404 139.656 127.381 139.666L105.631 149.757C104.504 150.279 103.995 151.623 104.483 152.783L114.534 173.649C114.994 174.74 116.235 175.246 117.305 174.779C117.316 174.774 117.327 174.77 117.338 174.764L138.804 164.953C139.838 164.481 140.319 163.26 139.894 162.188L129.675 140.6Z" fill="#00AB4E"/>
<path fill-rule="evenodd" clip-rule="evenodd" d="M61.1451 78.5753L115.468 83.6806C117.103 83.8343 118.31 85.2739 118.177 86.9106L117.462 95.7132C117.327 97.3646 115.88 98.5945 114.228 98.4602C114.216 98.4592 114.203 98.4581 114.191 98.4569L59.8679 93.3516C58.2329 93.1979 57.0253 91.7583 57.1584 90.1216L57.8743 81.319C58.0086 79.6676 59.4562 78.4377 61.1076 78.572C61.1201 78.5731 61.1326 78.5741 61.1451 78.5753Z" fill="#00AB4E"/>
<path d="M70.6207 89.8727L70.8137 87.6671L72.8196 90.065L73.8753 90.1574L71.69 87.4863L74.1825 85.4073L73.1469 85.3167L70.8502 87.2502L71.0355 85.132L70.168 85.0561L69.7533 89.7968L70.6207 89.8727ZM75.9521 90.3933C76.2884 90.4227 76.5892 90.379 76.8546 90.2622C77.1201 90.1454 77.3325 89.963 77.492 89.7149C77.6515 89.4669 77.7463 89.1703 77.7765 88.8251C77.8067 88.4799 77.7647 88.1725 77.6505 87.9027C77.5364 87.633 77.3587 87.4176 77.1176 87.2564C76.8765 87.0953 76.5878 87 76.2516 86.9706C75.9154 86.9412 75.6145 86.9849 75.3491 87.1017C75.0837 87.2185 74.8702 87.3997 74.7087 87.6453C74.5471 87.891 74.4513 88.1863 74.4211 88.5315C74.3909 88.8767 74.4339 89.1854 74.5501 89.4575C74.6663 89.7297 74.845 89.9464 75.0861 90.1075C75.3273 90.2686 75.6159 90.3639 75.9521 90.3933ZM76.0025 89.7405C75.7335 89.7169 75.5351 89.6092 75.4074 89.4174C75.2796 89.2255 75.231 88.9547 75.2616 88.6051C75.2918 88.2599 75.3877 88.0029 75.5493 87.8341C75.7109 87.6653 75.9261 87.5926 76.1951 87.6162C76.4641 87.6397 76.6624 87.7485 76.7899 87.9426C76.9175 88.1367 76.9662 88.4064 76.936 88.7516C76.9054 89.1012 76.8105 89.3594 76.6514 89.5262C76.4922 89.693 76.2759 89.7644 76.0025 89.7405ZM79.9703 90.7448C80.2079 90.7656 80.4242 90.7326 80.6193 90.6458C80.8143 90.5589 80.9692 90.428 81.0839 90.2528L81.0374 90.784L81.8713 90.857L82.286 86.1163L81.4455 86.0428L81.276 87.9794C81.1931 87.7914 81.064 87.6401 80.8889 87.5254C80.7137 87.4107 80.5073 87.343 80.2697 87.3222C79.9828 87.2971 79.7235 87.3444 79.4917 87.4641C79.2598 87.5839 79.0711 87.7661 78.9255 88.0109C78.7798 88.2556 78.6921 88.5483 78.6623 88.889C78.6325 89.2297 78.6678 89.5366 78.7681 89.8096C78.8684 90.0827 79.0233 90.3006 79.2326 90.4635C79.442 90.6263 79.6879 90.7201 79.9703 90.7448ZM80.2493 90.112C79.9848 90.0889 79.7868 89.9767 79.6553 89.7755C79.5239 89.5742 79.473 89.3033 79.5028 88.9626C79.5323 88.6264 79.6288 88.3751 79.7924 88.2087C79.956 88.0423 80.1723 87.9709 80.4413 87.9944C80.7058 88.0176 80.9029 88.1263 81.0327 88.3206C81.1626 88.5149 81.2126 88.7824 81.1827 89.1231C81.1529 89.4638 81.0572 89.7197 80.8954 89.8907C80.7336 90.0618 80.5182 90.1355 80.2493 90.112ZM84.6676 91.1558C84.9007 91.1762 85.136 91.1584 85.3736 91.1024C85.6111 91.0464 85.8116 90.9623 85.975 90.8501L85.7835 90.2506C85.4627 90.4574 85.1208 90.545 84.7577 90.5132C84.4663 90.4877 84.2486 90.3941 84.1047 90.2325C83.9607 90.0708 83.8886 89.8364 83.8884 89.5292L86.1276 89.7251L86.1482 89.4898C86.1929 88.9787 86.0969 88.566 85.8601 88.2517C85.6234 87.9374 85.2786 87.7604 84.8258 87.7208C84.5165 87.6937 84.2334 87.7412 83.9766 87.8633C83.7197 87.9854 83.5126 88.1705 83.3554 88.4188C83.1982 88.667 83.1048 88.9592 83.0754 89.2955C83.0292 89.8244 83.1485 90.255 83.4333 90.5871C83.7182 90.9192 84.1297 91.1087 84.6676 91.1558ZM85.4475 89.2116L83.9278 89.0787C83.9827 88.8124 84.0848 88.6136 84.2341 88.4821C84.3834 88.3506 84.5701 88.2947 84.7942 88.3143C85.0184 88.3339 85.187 88.4198 85.3002 88.572C85.4134 88.7242 85.4625 88.9374 85.4475 89.2116ZM91.4324 91.7544C91.8897 91.7944 92.2962 91.7306 92.6519 91.563C93.0076 91.3953 93.2934 91.1358 93.5094 90.7843C93.7253 90.4327 93.8549 90.0104 93.898 89.5173C93.9412 89.0242 93.8879 88.587 93.7384 88.2058C93.5888 87.8245 93.3534 87.5205 93.0322 87.2936C92.711 87.0668 92.3195 86.9331 91.8578 86.8927C91.396 86.8523 90.9862 86.9159 90.6282 87.0833C90.2703 87.2508 89.9845 87.5092 89.771 87.8587C89.5575 88.2081 89.4292 88.6294 89.386 89.1226C89.3429 89.6157 89.3971 90.0541 89.5488 90.4377C89.7004 90.8214 89.9368 91.1267 90.258 91.3535C90.5792 91.5804 90.9707 91.714 91.4324 91.7544ZM91.493 91.0618C91.0537 91.0234 90.725 90.8433 90.507 90.5216C90.2889 90.1998 90.2044 89.7588 90.2535 89.1984C90.3025 88.6381 90.4622 88.2195 90.7326 87.9428C91.003 87.6661 91.3578 87.5469 91.7972 87.5854C92.232 87.6234 92.5585 87.8022 92.7768 88.1216C92.995 88.4411 93.0796 88.8811 93.0306 89.4414C92.9816 90.0018 92.8218 90.4214 92.5512 90.7004C92.2806 90.9794 91.9279 91.0999 91.493 91.0618ZM96.6393 92.149L96.9917 88.1211L98.5383 88.2564L98.6007 87.5437L94.6401 87.1971L94.5777 87.9099L96.1243 88.0452L95.7719 92.0731L96.6393 92.149ZM100.019 92.4446L100.18 90.6022L101.384 90.7075C101.89 90.7518 102.296 90.6586 102.601 90.4277C102.905 90.1969 103.078 89.8529 103.118 89.3956C103.158 88.9384 103.048 88.5708 102.787 88.2928C102.527 88.0148 102.144 87.8536 101.637 87.8093L99.566 87.6281L99.1512 92.3688L100.019 92.4446ZM101.334 90.0324L100.238 89.9365L100.375 88.3764L101.471 88.4723C101.771 88.4986 101.99 88.5821 102.126 88.7228C102.263 88.8635 102.32 89.0661 102.297 89.3306C102.251 89.8506 101.93 90.0845 101.334 90.0324Z" fill="white"/>
<path d="M108.115 38.726C108.437 38.3889 108.971 38.3764 109.308 38.6981C109.614 38.9906 109.653 39.4585 109.415 39.7945L109.336 39.891L104.363 45.1024C104.041 45.4395 103.507 45.452 103.17 45.1303C102.863 44.8379 102.825 44.3699 103.062 44.0339L103.142 43.9374L108.115 38.726Z" fill="#FFD37B"/>
<path d="M76.878 35.8607C77.2306 35.6259 77.6955 35.6914 77.9712 35.9967L78.0479 36.0954L82.0406 42.0912C82.2988 42.479 82.1938 43.0028 81.8059 43.2611C81.4533 43.4959 80.9884 43.4305 80.7127 43.1252L80.636 43.0265L76.6434 37.0307C76.3851 36.6428 76.4901 36.119 76.878 35.8607Z" fill="#FFD37B"/>
<path d="M93.5993 31.4915C94.0249 31.5287 94.3489 31.8757 94.3686 32.2909L94.3663 32.4056L93.5819 41.3713C93.5413 41.8356 93.1321 42.179 92.6679 42.1383C92.2423 42.1011 91.9183 41.7541 91.8985 41.339L91.9008 41.2243L92.6853 32.2585C92.7259 31.7943 93.1351 31.4509 93.5993 31.4915Z" fill="#FFC54F"/>
<mask id="mask11_5567_163038" style="mask-type:alpha" maskUnits="userSpaceOnUse" x="163" y="47" width="81" height="69">
<path d="M243.552 116H163.111L163.005 49.8543C163.002 48.2804 164.276 47.0025 165.85 47C165.852 47 165.853 47 165.855 47H241.132C242.706 47 243.982 48.2759 243.982 49.8497C243.982 49.8559 243.982 49.8621 243.982 49.8682L243.552 116Z" fill="white"/>
</mask>
<g mask="url(#mask11_5567_163038)">
<path d="M243.552 116H163.111L163.005 49.8543C163.002 48.2804 164.276 47.0025 165.85 47C165.852 47 165.853 47 165.855 47H241.132C242.706 47 243.982 48.2759 243.982 49.8497C243.982 49.8559 243.982 49.8621 243.982 49.8682L243.552 116Z" fill="#00AB4E"/>
<path d="M160.505 72.8201C179.744 74.1222 194.174 74.7732 203.793 74.7732C213.413 74.7732 227.577 74.1222 246.287 72.8201V61.8144H160.505V72.8201Z" fill="#00883E"/>
</g>
<mask id="mask12_5567_163038" style="mask-type:alpha" maskUnits="userSpaceOnUse" x="217" y="80" width="22" height="36">
<path d="M219.421 80.3374H236.287C237.391 80.3374 238.287 81.2328 238.287 82.3374V115.394H217.421V82.3374C217.421 81.2328 218.316 80.3374 219.421 80.3374Z" fill="white"/>
</mask>
<g mask="url(#mask12_5567_163038)">
<path d="M219.421 80.3374H236.287C237.391 80.3374 238.287 81.2328 238.287 82.3374V115.394H217.421V82.3374C217.421 81.2328 218.316 80.3374 219.421 80.3374Z" fill="#E6F6ED"/>
<path d="M222.946 73.6964L220.054 75.7209L244.927 111.244L247.819 109.219L222.946 73.6964Z" fill="#FEFEFE"/>
<path d="M217.399 75.7133L210.79 80.3408L237.977 119.168L244.586 114.54L217.399 75.7133Z" fill="#FEFEFE"/>
</g>
<path d="M195.766 72.0425C193.535 72.0425 191.727 70.3755 191.727 68.3192V64.9812H199.805V68.3192C199.805 70.3755 197.996 72.0425 195.766 72.0425Z" fill="#002E28"/>
<path d="M211.921 72.0425C209.69 72.0425 207.882 70.3755 207.882 68.3192V64.9812H215.959V68.3192C215.959 70.3755 214.151 72.0425 211.921 72.0425Z" fill="#002E28"/>
<path d="M179.611 72.0425C177.38 72.0425 175.572 70.3755 175.572 68.3192V64.9812H183.649V68.3192C183.649 70.3755 181.841 72.0425 179.611 72.0425Z" fill="#002E28"/>
<path d="M163.456 72.0425C161.225 72.0425 159.417 70.3755 159.417 68.3192C159.417 67.6662 159.417 67.1727 159.417 66.8388C159.417 66.4309 159.417 65.8117 159.417 64.9812H167.495V68.3192C167.495 70.3755 165.686 72.0425 163.456 72.0425Z" fill="#002E28"/>
<path d="M228.076 72.0425C225.845 72.0425 224.037 70.3755 224.037 68.3192V64.9812H232.115V68.3192C232.115 70.3755 230.307 72.0425 228.076 72.0425Z" fill="#002E28"/>
<path d="M187.688 72.0425C185.458 72.0425 183.649 70.3755 183.649 68.3192V64.9812H191.727V68.3192C191.727 70.3755 189.919 72.0425 187.688 72.0425Z" fill="#C7CFE2"/>
<path d="M219.998 72.0425C217.768 72.0425 215.959 70.3755 215.959 68.3192V64.9812H224.037V68.3192C224.037 70.3755 222.229 72.0425 219.998 72.0425Z" fill="#C7CFE2"/>
<path d="M244.231 72.0425C242 72.0425 240.192 70.3755 240.192 68.3192V64.9812H248.269V68.3192C248.269 70.3755 246.461 72.0425 244.231 72.0425Z" fill="#002E28"/>
<path d="M236.153 72.0425C233.923 72.0425 232.114 70.3755 232.114 68.3192V64.9812H240.192V68.3192C240.192 70.3755 238.383 72.0425 236.153 72.0425Z" fill="#C7CFE2"/>
<path d="M171.533 72.0425C169.303 72.0425 167.495 70.3755 167.495 68.3192V64.9812H175.572V68.3192C175.572 70.3755 173.764 72.0425 171.533 72.0425Z" fill="#C7CFE2"/>
<path d="M203.843 72.0425C201.613 72.0425 199.805 70.3755 199.805 68.3192V64.9812H207.882V68.3192C207.882 70.3755 206.074 72.0425 203.843 72.0425Z" fill="#C7CFE2"/>
<path d="M199.804 64.9812H191.727L192.563 53.6831H200.083L199.804 64.9812Z" fill="#004D43"/>
<path d="M215.96 64.9812H207.882L207.604 53.6831H215.124L215.96 64.9812Z" fill="#004D43"/>
<path d="M183.649 64.9812H175.572L177.521 53.6831H185.042L183.649 64.9812Z" fill="#004D43"/>
<path d="M167.495 64.9812H159.417L162.481 53.6831H170.001L167.495 64.9812Z" fill="#004D43"/>
<path d="M232.115 64.9812H224.037L222.645 53.6831H230.165L232.115 64.9812Z" fill="#004D43"/>
<path d="M191.727 64.9812H183.649L185.042 53.6831H192.563L191.727 64.9812Z" fill="#EFF2FA"/>
<path d="M224.037 64.9812H215.96L215.124 53.6831H222.645L224.037 64.9812Z" fill="#EFF2FA"/>
<path d="M248.269 64.9812H240.192L237.685 53.6831H245.206L248.269 64.9812Z" fill="#004D43"/>
<path d="M240.192 64.9812H232.114L230.165 53.6831H237.685L240.192 64.9812Z" fill="#EFF2FA"/>
<path d="M175.572 64.9812H167.495L170.001 53.6831H177.522L175.572 64.9812Z" fill="#EFF2FA"/>
<path d="M207.882 64.9812H199.805L200.083 53.6831H207.604L207.882 64.9812Z" fill="#EFF2FA"/>
<path d="M228.275 50.6197H179.612C179.179 50.6197 178.827 50.1061 178.827 49.4724V38.0005C178.827 37.3669 179.179 36.8533 179.612 36.8533H228.275C228.708 36.8533 229.06 37.3669 229.06 38.0005V49.4727C229.06 50.1061 228.708 50.6197 228.275 50.6197Z" fill="white"/>
<mask id="mask13_5567_163038" style="mask-type:alpha" maskUnits="userSpaceOnUse" x="169" y="80" width="43" height="28">
<path d="M209.013 80.4011H171.228C170.123 80.4011 169.228 81.2966 169.228 82.4011V105.916C169.228 107.02 170.123 107.916 171.228 107.916H209.013C210.117 107.916 211.013 107.02 211.013 105.916V82.4011C211.013 81.2966 210.117 80.4011 209.013 80.4011Z" fill="white"/>
</mask>
<g mask="url(#mask13_5567_163038)">
<path d="M209.013 80.4011H171.228C170.123 80.4011 169.228 81.2966 169.228 82.4011V105.916C169.228 107.02 170.123 107.916 171.228 107.916H209.013C210.117 107.916 211.013 107.02 211.013 105.916V82.4011C211.013 81.2966 210.117 80.4011 209.013 80.4011Z" fill="#E6F6ED"/>
<path d="M191.066 72.985L188.175 75.0095L213.048 110.532L215.939 108.508L191.066 72.985Z" fill="#FEFEFE"/>
<path d="M185.519 75.0018L178.911 79.6294L203.784 115.152L210.393 110.524L185.519 75.0018Z" fill="#FEFEFE"/>
</g>
<path d="M157.794 103.329C157.795 102.118 157.141 100.986 156.051 100.31C157.242 98.9374 157 96.935 155.512 95.8371C154.899 95.3851 154.137 95.1392 153.352 95.1399C153.303 95.1399 153.254 95.1449 153.204 95.1467C153.757 93.4631 152.724 91.6854 150.898 91.1759C149.072 90.6665 147.144 91.6183 146.591 93.3019C146.394 93.9033 146.394 94.5451 146.591 95.1466C146.542 95.1466 146.492 95.1398 146.443 95.1398C144.537 95.1381 142.99 96.5615 142.988 98.3189C142.987 99.0425 143.254 99.7447 143.744 100.31C141.935 101.432 141.456 103.694 142.673 105.362C142.958 105.751 143.321 106.087 143.744 106.349C142.553 107.721 142.795 109.724 144.283 110.822C144.896 111.274 145.658 111.52 146.443 111.519H153.352C155.259 111.521 156.806 110.097 156.807 108.34C156.808 107.616 156.541 106.914 156.051 106.349C157.141 105.673 157.795 104.541 157.794 103.329Z" fill="#72BF44"/>
<path d="M153.706 101.191C153.516 101.011 153.203 101.007 153.008 101.182L150.391 103.515V96.9599C150.391 96.7086 150.17 96.5049 149.898 96.5049C149.625 96.5049 149.404 96.7086 149.404 96.9599V100.184L147.162 98.1169C146.966 97.9423 146.654 97.9473 146.464 98.1281C146.28 98.3044 146.28 98.5839 146.464 98.7602L149.404 101.47V107.691L147.285 105.738C147.089 105.563 146.777 105.568 146.588 105.749C146.403 105.925 146.403 106.205 146.588 106.381L149.404 108.978V117.434C149.404 117.685 149.625 117.889 149.898 117.889C150.17 117.889 150.391 117.685 150.391 117.434V104.781L153.698 101.836C153.893 101.661 153.897 101.373 153.707 101.192C153.707 101.192 153.706 101.192 153.706 101.191Z" fill="#5B9836"/>
<path fill-rule="evenodd" clip-rule="evenodd" d="M207.942 47.5026C208.605 48.0837 209.383 48.4335 210.242 48.5875C212.873 49.0598 215.364 47.5009 216.09 44.9423C216.162 44.6882 216.214 44.4302 216.242 44.1674C216.281 44.0891 216.226 43.9973 216.277 43.9204C216.277 43.69 216.277 43.4596 216.277 43.2292C216.234 43.1635 216.266 43.0905 216.256 43.0212C216.239 42.0823 215.863 41.2718 215.33 40.5297C214.584 39.4907 213.561 38.8547 212.327 38.5484C212.129 38.4993 211.926 38.4928 211.723 38.493C211.642 38.4825 211.557 38.5162 211.479 38.4722C211.262 38.4722 211.045 38.4722 210.829 38.4722C210.762 38.5147 210.688 38.4833 210.619 38.4932C209.625 38.5213 208.781 38.9326 208.003 39.5122C207.959 39.5447 207.925 39.5872 207.918 39.6453C207.935 39.7804 208.044 39.8512 208.13 39.932C208.991 40.7353 209.493 41.7282 209.649 42.8875C209.808 44.0729 209.583 45.1893 208.952 46.2139C208.73 46.5729 208.468 46.8988 208.159 47.1875C208.076 47.2654 207.985 47.3391 207.93 47.4433C207.922 47.4653 207.926 47.4851 207.942 47.5026Z" fill="#BCD430"/>
<path fill-rule="evenodd" clip-rule="evenodd" d="M207.942 47.5026C207.944 47.49 207.945 47.4775 207.946 47.4648C207.667 47.209 207.405 46.9378 207.175 46.6364C206.584 45.8632 206.253 44.9934 206.16 44.0226C206.072 43.0999 206.24 42.2285 206.629 41.3987C206.908 40.8055 207.289 40.2805 207.785 39.8451C207.846 39.7917 207.916 39.7453 207.92 39.6521C207.901 39.5464 207.811 39.4995 207.738 39.4451C207.155 39.0126 206.512 38.707 205.803 38.5477C205.611 38.5047 205.415 38.4966 205.219 38.4932C205.138 38.4825 205.052 38.5162 204.974 38.4722C204.77 38.4722 204.567 38.4722 204.364 38.4722C204.286 38.5225 204.193 38.4681 204.113 38.5066C203.069 38.6146 202.147 39.005 201.353 39.6945C201.338 39.8007 201.42 39.8517 201.483 39.9086C202.048 40.4226 202.488 41.0272 202.757 41.742C203.439 43.547 203.188 45.2225 202.029 46.7638C201.886 46.954 201.719 47.1209 201.552 47.2896C201.493 47.3493 201.408 47.3992 201.427 47.5063C202.03 48.045 202.742 48.3784 203.524 48.5468C205.086 48.8831 206.511 48.5614 207.788 47.5959C207.836 47.5593 207.877 47.5112 207.942 47.5026Z" fill="#74BD45"/>
<path fill-rule="evenodd" clip-rule="evenodd" d="M211.729 38.5067C211.725 38.4954 211.724 38.4839 211.723 38.4722C211.642 38.4722 211.56 38.4722 211.479 38.4722C211.555 38.5387 211.643 38.5099 211.729 38.5067Z" fill="#D9E68B"/>
<path fill-rule="evenodd" clip-rule="evenodd" d="M205.222 38.5072C205.219 38.4957 205.217 38.484 205.218 38.4722C205.136 38.4722 205.055 38.4722 204.974 38.4722C205.049 38.5338 205.137 38.5108 205.222 38.5072Z" fill="#BDDFA8"/>
<path fill-rule="evenodd" clip-rule="evenodd" d="M204.113 38.5066C204.199 38.5106 204.288 38.5404 204.364 38.4722C204.282 38.4722 204.201 38.4722 204.12 38.4722C204.119 38.4839 204.116 38.4952 204.113 38.5066Z" fill="#A7D58A"/>
<path fill-rule="evenodd" clip-rule="evenodd" d="M216.277 43.9204C216.216 43.9958 216.239 44.083 216.242 44.1674C216.253 44.1674 216.265 44.1664 216.277 44.1644C216.277 44.083 216.277 44.0017 216.277 43.9204Z" fill="#E5EEB1"/>
<path fill-rule="evenodd" clip-rule="evenodd" d="M210.625 38.4722C210.624 38.4833 210.623 38.4945 210.621 38.5057C210.693 38.5108 210.767 38.5328 210.829 38.4722C210.761 38.4722 210.693 38.4722 210.625 38.4722Z" fill="#E0EBA0"/>
<path fill-rule="evenodd" clip-rule="evenodd" d="M216.277 43.0259C216.267 43.0205 216.256 43.0186 216.244 43.0205C216.238 43.0926 216.216 43.1675 216.277 43.2292C216.277 43.1614 216.277 43.0937 216.277 43.0259Z" fill="#DFEBA0"/>
<path fill-rule="evenodd" clip-rule="evenodd" d="M201.427 47.506C201.756 47.149 202.105 46.809 202.365 46.392C202.802 45.6923 203.072 44.9413 203.15 44.1156C203.283 42.7181 202.889 41.4843 202.023 40.3958C201.823 40.1438 201.577 39.9271 201.353 39.6941C200.902 39.3701 200.44 39.0697 199.918 38.8674C196.874 37.689 193.495 39.6557 193.027 42.8828C192.625 45.6552 194.542 48.2653 197.295 48.6675C198.776 48.8836 200.114 48.5231 201.29 47.5882C201.332 47.5551 201.367 47.5109 201.427 47.506Z" fill="#0AA94E"/>
<path fill-rule="evenodd" clip-rule="evenodd" d="M207.935 39.6534C207.924 39.6517 207.912 39.6527 207.901 39.6561C207.498 40.0181 207.136 40.4164 206.852 40.8803C206.425 41.5755 206.176 42.325 206.106 43.1421C205.999 44.3918 206.318 45.5189 207.036 46.5365C207.261 46.8559 207.508 47.1611 207.823 47.4031C207.861 47.4324 207.896 47.4624 207.946 47.4649C209.042 46.5037 209.667 45.3075 209.738 43.8422C209.815 42.2533 209.257 40.9179 208.106 39.8252C208.048 39.7693 207.992 39.7107 207.935 39.6534Z" fill="#0AA94E"/>
<path fill-rule="evenodd" clip-rule="evenodd" d="M200.342 41.9506C200.46 42.0213 200.545 42.0623 200.619 42.1173C200.724 42.196 200.801 42.179 200.872 42.0735C200.951 41.9567 200.874 41.9012 200.788 41.848C199.863 41.273 198.858 41.0089 197.77 41.09C196.92 41.1536 196.133 41.4272 195.396 41.8526C195.309 41.903 195.203 41.9418 195.281 42.0808C195.355 42.2126 195.448 42.1909 195.553 42.1285C195.621 42.0884 195.691 42.0525 195.769 42.0101C195.778 42.0955 195.733 42.1499 195.708 42.2088C195.278 43.2009 194.847 44.1925 194.416 45.1844C194.287 45.4822 194.337 45.6604 194.609 45.8429C194.862 46.0123 195.148 46.0909 195.446 46.1319C195.961 46.2027 196.472 46.1925 196.973 46.039C197.143 45.9872 197.304 45.9176 197.445 45.8093C197.671 45.6357 197.715 45.4685 197.601 45.2052C197.141 44.145 196.686 43.0828 196.214 42.0279C196.136 41.8524 196.178 41.8056 196.336 41.7452C197.503 41.2955 198.669 41.2723 199.843 41.7196C200 41.7795 200.025 41.8354 199.956 41.9915C199.486 43.0544 199.026 44.122 198.563 45.1879C198.437 45.4776 198.483 45.6536 198.744 45.8337C199 46.0112 199.293 46.0914 199.597 46.1329C200.112 46.2032 200.623 46.1923 201.125 46.0384C201.262 45.9965 201.392 45.9413 201.513 45.8652C201.819 45.6724 201.873 45.4979 201.729 45.1657C201.298 44.1738 200.868 43.1821 200.437 42.1902C200.409 42.1248 200.385 42.0581 200.342 41.9506Z" fill="#FEFEFE"/>
<path fill-rule="evenodd" clip-rule="evenodd" d="M201.39 45.1275C201.365 45.0608 201.353 45.0228 201.337 44.9866C200.948 44.0877 200.558 43.1888 200.168 42.2896C200.118 42.3128 200.108 42.3524 200.093 42.3885C199.722 43.2443 199.352 44.1011 198.976 44.9545C198.916 45.0914 198.92 45.1326 199.087 45.1311C199.845 45.1231 200.604 45.1275 201.39 45.1275Z" fill="#0AA94E"/>
<path fill-rule="evenodd" clip-rule="evenodd" d="M194.76 45.1182C195.6 45.1182 196.409 45.1182 197.245 45.1182C196.833 44.1663 196.429 43.2325 196.004 42.252C195.583 43.2234 195.177 44.1578 194.76 45.1182Z" fill="#0AA94E"/>
<path fill-rule="evenodd" clip-rule="evenodd" d="M164 115H244C245.105 115 246 115.895 246 117V119H162V117C162 115.895 162.895 115 164 115Z" fill="#004D43"/>
<path fill-rule="evenodd" clip-rule="evenodd" d="M292.754 113.732C292.754 127.127 281.894 137.987 268.499 137.987C255.103 137.987 244.244 127.127 244.244 113.732C244.244 100.336 255.103 89.4768 268.499 89.4768C281.894 89.4768 292.754 100.336 292.754 113.732Z" fill="#84D7CC"/>
<path fill-rule="evenodd" clip-rule="evenodd" d="M292.259 112.247C292.259 125.369 281.621 136.007 268.499 136.007C255.376 136.007 244.739 125.369 244.739 112.247C244.739 99.1245 255.376 88.4868 268.499 88.4868C281.621 88.4868 292.259 99.1245 292.259 112.247Z" fill="white"/>
<path fill-rule="evenodd" clip-rule="evenodd" d="M278.638 116.75H259.464C258.958 116.75 258.517 116.999 258.391 117.356L256.161 123.657C255.98 124.169 256.509 124.667 257.233 124.667H276.408C276.913 124.667 277.355 124.418 277.481 124.061L279.711 117.76C279.892 117.248 279.362 116.75 278.638 116.75Z" fill="#BFD730"/>
<path fill-rule="evenodd" clip-rule="evenodd" d="M271.852 119.125H263.911C263.572 119.125 263.27 119.339 263.157 119.658L262.602 121.225C262.454 121.641 262.672 122.098 263.089 122.246C263.175 122.276 263.265 122.292 263.356 122.292H271.298C271.637 122.292 271.939 122.078 272.052 121.759L272.606 120.192C272.754 119.775 272.536 119.318 272.119 119.171C272.034 119.141 271.943 119.125 271.852 119.125Z" fill="#98AC26"/>
<path fill-rule="evenodd" clip-rule="evenodd" d="M261.978 112.173L262.061 112.285C262.066 112.291 262.072 112.299 262.077 112.307L266.417 120.708C267.852 120.709 268.644 120.709 268.792 120.708C269.011 120.707 269.234 120.605 269.386 120.404L275.503 112.309C275.51 112.299 275.518 112.289 275.525 112.281L275.607 112.173H275.603C276.523 110.931 277.156 109.435 277.394 107.797C277.463 107.32 277.5 106.831 277.5 106.334C277.5 101.156 273.601 96.9583 268.792 96.9583C268.248 96.9583 267.456 96.9583 266.417 96.9583C262.195 100.342 260.083 103.468 260.083 106.334C260.083 106.831 260.12 107.32 260.19 107.797C260.427 109.435 261.061 110.931 261.978 112.173ZM268.792 110.417C271.415 110.417 273.542 108.29 273.542 105.667C273.542 103.043 271.415 100.917 268.792 100.917C266.168 100.917 264.042 103.043 264.042 105.667C264.042 108.29 266.168 110.417 268.792 110.417Z" fill="#00883E"/>
<path fill-rule="evenodd" clip-rule="evenodd" d="M257.815 107.797C258.052 109.435 258.686 110.931 259.603 112.173H259.602L259.686 112.285C259.691 112.291 259.697 112.299 259.702 112.307L265.822 120.404C266.127 120.81 266.704 120.81 267.011 120.404L273.128 112.309C273.135 112.299 273.143 112.289 273.15 112.281L273.232 112.173H273.228C274.148 110.931 274.781 109.435 275.019 107.797C275.088 107.32 275.125 106.831 275.125 106.334C275.125 101.156 271.226 96.9583 266.417 96.9583C261.608 96.9583 257.708 101.156 257.708 106.334C257.708 106.831 257.745 107.32 257.815 107.797ZM266.417 110.417C269.04 110.417 271.167 108.29 271.167 105.667C271.167 103.043 269.04 100.917 266.417 100.917C263.793 100.917 261.667 103.043 261.667 105.667C261.667 108.29 263.793 110.417 266.417 110.417Z" fill="#00AB4E"/>
</g>
</svg>
