<svg width="328" height="164" viewBox="0 0 328 164" fill="none" xmlns="http://www.w3.org/2000/svg">
<path d="M23.2189 161.504C33.6809 163.667 265.053 165.826 301.876 161.504C312.777 160.224 321.503 148.276 322.776 146.203C330.736 133.238 327.751 53.2794 325.761 26.266C324.69 11.7278 309.838 5.19571 302.871 3.03482C289.548 -1.09779 53.2799 -1.26366 22.2229 4.11573C8.32787 6.52168 3.29087 17.8712 2.29087 24.1796C-0.0421274 38.8847 -1.42113 129.331 2.31887 141.514C5.30487 151.239 12.7689 159.343 23.2189 161.504Z" fill="#E6F6ED"/>
<mask id="mask0_5567_160645" style="mask-type:alpha" maskUnits="userSpaceOnUse" x="0" y="0" width="328" height="164">
<path fill-rule="evenodd" clip-rule="evenodd" d="M23.2189 161.504C33.6809 163.667 265.053 165.826 301.876 161.504C312.777 160.224 321.503 148.276 322.776 146.203C330.736 133.238 327.751 53.2794 325.761 26.266C324.69 11.7278 309.838 5.19571 302.871 3.03482C289.548 -1.09779 53.2799 -1.26366 22.2229 4.11573C8.32787 6.52168 3.29087 17.8712 2.29087 24.1796C-0.0421274 38.8847 -1.42113 129.331 2.31887 141.514C5.30487 151.239 12.7689 159.343 23.2189 161.504Z" fill="white"/>
</mask>
<g mask="url(#mask0_5567_160645)">
<path d="M404 175C404 228.019 296.325 271 163.5 271C30.6753 271 -77 228.019 -77 175C-77 121.981 30.6753 79 163.5 79C296.325 79 404 121.981 404 175Z" fill="#BBF0D3"/>
</g>
<mask id="mask1_5567_160645" style="mask-type:alpha" maskUnits="userSpaceOnUse" x="0" y="0" width="328" height="164">
<path fill-rule="evenodd" clip-rule="evenodd" d="M23.2189 161.504C33.6809 163.667 265.053 165.826 301.876 161.504C312.777 160.224 321.503 148.276 322.776 146.203C330.736 133.238 327.751 53.2794 325.761 26.266C324.69 11.7278 309.838 5.19571 302.871 3.03482C289.548 -1.09779 53.2799 -1.26366 22.2229 4.11573C8.32787 6.52168 3.29087 17.8712 2.29087 24.1796C-0.0421274 38.8847 -1.42113 129.331 2.31887 141.514C5.30487 151.239 12.7689 159.343 23.2189 161.504Z" fill="white"/>
</mask>
<g mask="url(#mask1_5567_160645)">
<path d="M9.22754 145.49H10.7075C10.7075 139.19 10.7075 137.07 10.8575 100.42C11.1275 33.9899 11.6375 29.9399 11.6375 29.9399L8.11754 60.6099C5.86754 94.5699 8.74754 114.81 9.22754 145.49Z" fill="#BBF0D3"/>
<mask id="mask2_5567_160645" style="mask-type:alpha" maskUnits="userSpaceOnUse" x="-14" y="142" width="45" height="24">
<path fill-rule="evenodd" clip-rule="evenodd" d="M-13.0225 142.02H30.7775V165.36H-13.0225V142.02Z" fill="white"/>
</mask>
<g mask="url(#mask2_5567_160645)">
<path d="M14.4275 165.36H-0.673461C-10.2825 165.36 -10.8435 158.61 -12.8225 149.48C-13.2935 147.06 -13.9795 144.687 -14.8725 142.39L-15.0225 142.02H28.7775L28.6275 142.39C27.7555 144.69 27.0865 147.063 26.6275 149.48C24.6075 158.61 24.0365 165.36 14.4275 165.36Z" fill="#84D7CC"/>
</g>
<path d="M29.848 144.24H-16.082C-17.099 144.248 -17.96 143.49 -18.082 142.48L-18.963 135.81C-19.123 134.718 -18.366 133.701 -17.273 133.541C-17.171 133.526 -17.066 133.519 -16.963 133.52H30.728C31.832 133.509 32.738 134.394 32.7491 135.499C32.75 135.603 32.743 135.707 32.728 135.81L31.848 142.48C31.726 143.49 30.866 144.248 29.848 144.24Z" fill="#47A99C"/>
<path d="M7.94803 83.87C16.589 68.81 -5.82197 63.42 -13.052 50C-21.772 60.6 -2.18197 101.51 7.94803 83.87Z" fill="#BBF0D3"/>
<path d="M9.60721 66.8505C6.27721 59.2605 22.3272 50.0495 25.7872 37.7095C32.2272 44.8395 19.4772 89.3205 9.60721 66.8505Z" fill="#BBF0D3"/>
<path d="M10.4775 45.6502C12.6275 28.1502 1.22751 29.6502 -3.52249 19.1902C-10.6025 26.6702 8.80751 59.1602 10.4775 45.6502Z" fill="#BBF0D3"/>
<mask id="mask3_5567_160645" style="mask-type:alpha" maskUnits="userSpaceOnUse" x="9" y="15" width="11" height="29">
<path fill-rule="evenodd" clip-rule="evenodd" d="M9.28125 15H19.8439V43.9119H9.28125V15Z" fill="white"/>
</mask>
<g mask="url(#mask3_5567_160645)">
<path d="M9.82698 39.3905C6.91798 26.0595 16.647 28.1505 15.378 14.9995C26.718 24.9605 13.298 55.2805 9.82698 39.3905Z" fill="#BBF0D3"/>
</g>
<mask id="mask4_5567_160645" style="mask-type:alpha" maskUnits="userSpaceOnUse" x="8" y="73" width="29" height="33">
<path fill-rule="evenodd" clip-rule="evenodd" d="M8.58008 73.1294H36.7889V105.875H8.58008V73.1294Z" fill="white"/>
</mask>
<g mask="url(#mask4_5567_160645)">
<path d="M9.48793 93.7704C12.1979 84.2004 27.7379 91.1004 35.6689 73.1294C44.0979 98.5094 1.94793 120.33 9.48793 93.7704Z" fill="#BBF0D3"/>
</g>
<mask id="mask5_5567_160645" style="mask-type:alpha" maskUnits="userSpaceOnUse" x="-18" y="89" width="29" height="28">
<path fill-rule="evenodd" clip-rule="evenodd" d="M-18 89.4995H10.2343V116.073H-18V89.4995Z" fill="white"/>
</mask>
<g mask="url(#mask5_5567_160645)">
<path d="M10.2282 106.721C9.99824 97.6195 0.178236 105.721 -17.7718 89.4995C-20.9818 106.21 10.7382 129.2 10.2282 106.721Z" fill="#BBF0D3"/>
</g>
</g>
<mask id="mask6_5567_160645" style="mask-type:alpha" maskUnits="userSpaceOnUse" x="0" y="0" width="328" height="164">
<path fill-rule="evenodd" clip-rule="evenodd" d="M23.2189 161.504C33.6809 163.667 265.053 165.826 301.876 161.504C312.777 160.224 321.503 148.276 322.776 146.203C330.736 133.238 327.751 53.2794 325.761 26.266C324.69 11.7278 309.838 5.19571 302.871 3.03482C289.548 -1.09779 53.2799 -1.26366 22.2229 4.11573C8.32787 6.52168 3.29087 17.8712 2.29087 24.1796C-0.0421274 38.8847 -1.42113 129.331 2.31887 141.514C5.30487 151.239 12.7689 159.343 23.2189 161.504Z" fill="white"/>
</mask>
<g mask="url(#mask6_5567_160645)">
<path d="M316.04 110.198C314.315 115.665 306.892 110.513 303.153 116.591C298.239 124.578 306.961 131.779 304.365 136.599C301.549 141.826 289.925 140.719 286.38 150.43C284.584 155.353 284.513 160.812 286.729 166.537H327.312C328.606 164.552 329.606 162.418 330.195 160.148C333.147 148.768 323.083 147.794 325.156 143.812C327.833 138.668 336.746 136.595 337.328 129.215C338.012 120.534 329.175 118.498 329.615 114.187C330.236 108.111 330.847 95.229 325.098 93.6318C324.711 93.5242 324.342 93.4724 323.992 93.4724C318.673 93.4724 317.584 105.299 316.04 110.198Z" fill="#B3EC91"/>
<path d="M303.278 176.632C303.278 176.632 315.898 145.208 324.055 107.472" stroke="white" stroke-width="0.63014"/>
<path d="M319 130L310 120" stroke="white" stroke-width="0.63014" stroke-linecap="round"/>
<path fill-rule="evenodd" clip-rule="evenodd" d="M287.569 182C278.386 176.962 268.356 168.369 265.635 157.234C262.08 142.687 274.2 141.441 271.703 136.35C268.48 129.775 257.746 127.125 257.046 117.691C256.221 106.593 266.864 103.99 266.333 98.4796C265.586 90.7125 264.85 74.245 271.773 72.2033C279.339 69.9714 280.697 86.7056 282.68 93.3794C284.757 100.369 293.696 93.7826 298.198 101.552C304.115 111.764 293.612 120.969 296.739 127.129C300.13 133.811 314.127 132.396 318.396 144.811C321.15 152.823 320.536 161.944 315.159 171.468C306.988 174.991 296.567 178.36 287.569 182Z" fill="#84D7CC"/>
<path d="M293.141 156.2C293.141 156.2 280.481 126.292 272.299 90.3757" stroke="white" stroke-width="0.78057"/>
</g>
<mask id="mask7_5567_160645" style="mask-type:alpha" maskUnits="userSpaceOnUse" x="0" y="0" width="328" height="164">
<path fill-rule="evenodd" clip-rule="evenodd" d="M23.2189 161.504C33.6809 163.667 265.053 165.826 301.876 161.504C312.777 160.224 321.503 148.276 322.776 146.203C330.736 133.238 327.751 53.2794 325.761 26.266C324.69 11.7278 309.838 5.19571 302.871 3.03482C289.548 -1.09779 53.2799 -1.26366 22.2229 4.11573C8.32787 6.52168 3.29087 17.8712 2.29087 24.1796C-0.0421274 38.8847 -1.42113 129.331 2.31887 141.514C5.30487 151.239 12.7689 159.343 23.2189 161.504Z" fill="white"/>
</mask>
<g mask="url(#mask7_5567_160645)">
<path d="M39.8422 59.1113L25.8711 96.2638L61.1338 103.404L71.1042 70.8934L39.8422 59.1113Z" fill="#FFDAB8"/>
<path d="M100.338 42.9063C100.338 42.9063 119.936 29.6183 112.83 16.6317C104.395 1.26031 88.2097 -3.75019 64.7676 -3.28159C53.7973 -3.04839 36.2171 2.26791 28.6359 21.1791C22.7949 35.7926 58.2658 58.8803 53.9846 68.7803L100.338 42.9063Z" fill="#6C4A07"/>
<path d="M101.353 51.8218C101.353 51.8218 102.646 57.06 103.071 60.4898C103.272 62.1035 102.138 63.6314 100.517 63.7524C99.6104 63.8206 98.6985 63.8052 97.791 63.7051L101.353 51.8218Z" fill="#FFB490"/>
<path d="M93.4894 17.5176C98.1028 22.4742 105.979 31.3864 101.052 53.1576C96.0007 75.5173 88.5845 81.2791 84.586 83.0237C81.9592 84.2062 71.5279 81.2747 66.8078 77.7415C60.8821 73.2975 49.0241 61.0688 46.2213 47.6026C42.918 31.7538 47.472 13.8051 59.0462 10.2741C75.4098 5.32298 89.5602 13.3453 93.4894 17.5176Z" fill="#FFDAB8"/>
<path d="M69.3652 79.3148C73.6706 81.6347 78.4259 82.9954 83.3077 83.3023C78.4996 81.7524 74.2327 78.8671 71.002 74.9841L69.3652 79.3148Z" fill="#FFB490"/>
<path d="M84.873 42.9723C93.2264 42.6082 100.7 37.6681 104.306 30.1232C110.92 17.0618 95.6222 5.61743 95.6222 5.61743L84.873 42.9723Z" fill="#6C4A07"/>
<path d="M74.4115 41.5777C79.4121 41.6778 81.3404 45.7577 82.0653 48.3889C82.315 49.3008 83.4755 49.556 84.0805 48.8311C92.3118 38.9619 94.5041 22.0109 94.8022 19.3632C94.8286 19.1245 94.7835 18.8979 94.6691 18.6856C93.2655 16.1061 83.1081 -0.907557 58.9169 -1.42456C44.871 -1.72376 33.9535 9.48634 29.2895 18.9705C25.4463 26.7901 26.9306 47.1984 36.7684 67.6712C37.6417 69.4886 42.4175 71.134 51.0959 72.6074C53.2698 72.9765 55.4844 72.2356 56.9985 70.6326C62.4447 64.8669 65.8016 60.1892 67.069 56.5993C63.9747 50.2105 67.0184 41.4303 74.4115 41.5777Z" fill="#6C4A07"/>
<path d="M63.3719 88.735C98.4267 87.1939 114.382 117.734 114.382 117.734C114.382 117.734 89.0525 213.826 76.0142 233.189L-22.999 220.145C-22.999 220.145 -21.745 157.484 -14.4729 120.745C-14.4729 120.745 -10.4084 84.9268 26.3239 84.2525C33.8545 84.115 42.9108 89.6348 63.3719 88.735Z" fill="#40C07A"/>
<path d="M166.308 148.297C166.143 151.261 164.247 161.842 160.321 171.584C150.55 164.976 137.547 156.463 126.243 149.196C110.434 138.942 107.171 136.774 98.2938 139.529C98.2725 162.039 117.198 178.157 117.198 178.157C117.198 178.157 140.593 192.478 154.488 199.456C167.892 206.192 171.074 204.117 174.427 198.415C177.781 192.714 181.959 154.696 183.7 142.804C185.441 130.913 164.916 132.72 165.618 136.67C166.234 141.898 166.464 145.774 166.308 148.297Z" fill="#FFDAB8"/>
<path d="M76.58 104.717C78.043 98.6757 83.9775 94.928 90.0737 96.1358C93.2395 96.7639 96.6803 97.9948 99.5986 100.327C104.498 104.77 108.948 109.687 112.881 115.004C120.616 125.354 133.146 142.07 139.616 150.697C142.235 154.19 142.331 159.038 139.677 162.504C134.275 169.56 127.106 175.075 118.894 178.487C115.105 180.061 110.737 179.055 107.937 176.056C101.678 169.355 90.3619 156.994 85.1677 149.787C75.0543 135.793 73.5781 117.123 76.58 104.717Z" fill="#00AB4E"/>
<mask id="mask8_5567_160645" style="mask-type:alpha" maskUnits="userSpaceOnUse" x="141" y="63" width="54" height="71">
<path fill-rule="evenodd" clip-rule="evenodd" d="M154.566 63.8608L194.309 72.3084L181.244 133.775L141.501 125.328L154.566 63.8608Z" fill="white"/>
</mask>
<g mask="url(#mask8_5567_160645)">
<path d="M192.026 82.5159L173.492 127.483C172.324 130.313 169.079 131.661 166.241 130.493L146.771 122.478C143.931 121.309 142.574 118.063 143.741 115.231L162.274 70.2698C163.446 67.4447 166.34 65.9538 168.739 66.9406L189.804 75.6112C189.815 75.616 189.825 75.6199 189.836 75.624C192.211 76.6262 193.193 79.7032 192.026 82.5159Z" fill="#252528"/>
</g>
<mask id="mask9_5567_160645" style="mask-type:alpha" maskUnits="userSpaceOnUse" x="139" y="63" width="54" height="71">
<path fill-rule="evenodd" clip-rule="evenodd" d="M153.05 63.2676L192.816 71.7202L179.72 133.331L139.954 124.879L153.05 63.2676Z" fill="white"/>
</mask>
<g mask="url(#mask9_5567_160645)">
<path d="M190.531 81.9393L171.948 127.02C170.777 129.858 167.53 131.211 164.692 130.043L145.222 122.029C142.38 120.86 141.027 117.608 142.197 114.77L160.778 69.694C161.953 66.8617 164.849 65.3647 167.248 66.3531L188.313 75.022C188.324 75.0269 188.334 75.0307 188.345 75.0356C190.721 76.038 191.7 79.1196 190.531 81.9393Z" fill="#58585B"/>
</g>
<path d="M188.2 82.2569L170.444 125.268C169.544 127.449 167.047 128.489 164.867 127.591L146.781 120.149C144.596 119.25 143.555 116.748 144.456 114.565L162.209 71.5622C163.024 69.5963 164.954 68.5262 166.521 69.1694L169.909 70.5649C170.344 70.7437 170.751 70.8379 170.637 71.4093L170.51 72.0464C170.394 72.6184 170.619 73.1456 171.054 73.3243L180.69 77.2896C181.124 77.4682 181.658 77.2526 181.981 76.7667L182.342 76.2262C182.634 75.7867 182.949 75.922 183.327 76.0836C183.367 76.1015 183.409 76.1197 183.45 76.1363L186.839 77.5299C186.846 77.5323 186.853 77.5355 186.859 77.5377C188.411 78.1925 189.011 80.2994 188.2 82.2569Z" fill="white"/>
<path d="M189.667 87.931L187.882 92.2539C187.802 92.4481 187.578 92.5399 187.383 92.46L186.765 92.2046L188.842 87.177L189.461 87.4342L189.464 87.4349C189.656 87.5167 189.747 87.7377 189.667 87.931Z" fill="#58585B"/>
<path d="M156.816 80.4342L156.197 80.1788C156.003 80.0983 155.91 79.8742 155.991 79.6804L157.777 75.3583C157.858 75.1627 158.08 75.0706 158.274 75.1513L158.893 75.4076L156.816 80.4342Z" fill="#252528"/>
<path d="M187.249 93.7848L185.463 98.1067C185.382 98.3015 185.161 98.3946 184.966 98.3139L184.347 98.0583L186.423 93.0306L187.042 93.2861C187.044 93.2873 187.045 93.2875 187.046 93.2878C187.238 93.3689 187.329 93.5916 187.249 93.7848Z" fill="#58585B"/>
<path d="M180.201 74.2752L180.164 74.3631C180.061 74.6129 179.775 74.7316 179.525 74.6289L175.43 72.9363C175.182 72.834 175.063 72.5481 175.166 72.2981L175.203 72.2095C175.306 71.9604 175.592 71.8409 175.841 71.945L179.936 73.6351C179.937 73.6353 179.938 73.6365 179.939 73.6367C180.186 73.7413 180.304 74.026 180.201 74.2752Z" fill="#252528"/>
<path d="M174.214 71.793C174.068 72.1449 173.664 72.3129 173.312 72.1672C172.958 72.0211 172.791 71.6172 172.937 71.2653C173.082 70.9132 173.487 70.7454 173.839 70.8921C173.841 70.8917 173.843 70.892 173.844 70.8932C174.193 71.0408 174.358 71.4426 174.214 71.793Z" fill="#252528"/>
<path d="M188.536 80.9284C188.492 81.366 188.384 81.8158 188.2 82.2571L170.444 125.269C169.544 127.448 167.048 128.489 164.868 127.59L147.231 120.335C168.905 126.181 186.65 85.4273 188.536 80.9284Z" fill="#C3DFF8"/>
<path d="M167.312 115.491L170.641 119.565L172.561 117.686L170.774 116.105L167.165 112.664C167.165 112.664 162.661 107.383 161.101 105.986C160.674 105.603 160.219 105.384 159.785 105.268C158.64 104.961 156.948 105.986 156.948 105.986L167.312 115.491Z" fill="#C4E4FF"/>
<path d="M177.506 117.59C177.506 117.59 175.779 121.859 174.661 120.999L169.795 117.261C169.2 116.82 168.665 116.299 168.206 115.713L161.439 107.114C160.915 106.447 160.169 105.993 159.336 105.837L159.072 105.787C157.388 105.471 156.175 105.925 155.568 107.543C155.374 108.883 155.433 109.853 155.745 110.451L160.914 120.349C161.248 120.986 161.62 121.995 162.032 123.378L164.096 132.346C164.632 134.684 165.079 137.414 166.316 139.461L166.226 144.009L183.7 142.804C183.751 140.246 184.47 134.124 184.894 131.992L187.33 116.079C187.617 114.63 187.265 113.129 186.363 111.971L182.193 106.152L177.506 117.59Z" fill="#FFDAB8"/>
</g>
<path d="M204.914 69.3981C205.471 69.1224 206.146 69.3503 206.422 69.9071C206.672 70.4133 206.507 71.0171 206.056 71.3298L205.913 71.4145L197.305 75.6761C196.749 75.9518 196.074 75.7239 195.798 75.1671C195.547 74.6609 195.713 74.0571 196.163 73.7444L196.307 73.6597L204.914 69.3981Z" fill="#FFD37B"/>
<path d="M167.083 51.5631C167.632 51.4297 168.185 51.7237 168.391 52.2319L168.442 52.3906L170.71 61.7236C170.857 62.3273 170.486 62.9357 169.883 63.0824C169.334 63.2158 168.781 62.9218 168.575 62.4136L168.524 62.2549L166.256 52.9219C166.109 52.3182 166.479 51.7098 167.083 51.5631Z" fill="#FFD37B"/>
<path d="M190.027 53.7145C190.544 53.9552 190.791 54.5377 190.627 55.0668L190.572 55.2095L185.5 66.0852C185.238 66.6483 184.568 66.8919 184.005 66.6293C183.489 66.3886 183.241 65.8061 183.406 65.277L183.461 65.1343L188.532 54.2586C188.795 53.6955 189.464 53.4519 190.027 53.7145Z" fill="#FFC54F"/>
<path d="M235.59 33.8259C235.59 47.0554 224.807 57.7804 211.506 57.7804C198.206 57.7804 187.423 47.0554 187.423 33.8259C187.423 20.5964 198.206 9.87134 211.506 9.87134C224.219 9.87134 234.631 19.6692 235.527 32.0871C235.569 32.661 235.59 33.2406 235.59 33.8259Z" fill="#84D7CC"/>
<path d="M235.59 30.7351C235.59 43.9645 224.807 54.6896 211.506 54.6896C198.206 54.6896 187.423 43.9645 187.423 30.7351C187.423 17.5056 198.206 6.78052 211.506 6.78052C224.219 6.78052 234.631 16.5784 235.527 28.9962C235.569 29.5702 235.59 30.1498 235.59 30.7351Z" fill="white"/>
<path fill-rule="evenodd" clip-rule="evenodd" d="M218.875 46.625H199.625C198.176 46.625 197 45.4499 197 44V18.625C197 17.176 198.176 16 199.625 16H218.875C220.325 16 221.5 17.176 221.5 18.625V44C221.5 45.4499 220.325 46.625 218.875 46.625Z" fill="#3393E3"/>
<path fill-rule="evenodd" clip-rule="evenodd" d="M217.5 45.75H201C199.758 45.75 198.75 44.7438 198.75 43.5004V21.7505C198.75 20.5071 199.758 19.5 201 19.5H217.5C218.743 19.5 219.75 20.5071 219.75 21.7505V43.5004C219.75 44.7438 218.743 45.75 217.5 45.75Z" fill="#1868AB"/>
<path fill-rule="evenodd" clip-rule="evenodd" d="M217.5 44H201C199.758 44 198.75 42.9938 198.75 41.7504V20.0005C198.75 18.7571 199.758 17.75 201 17.75H217.5C218.743 17.75 219.75 18.7571 219.75 20.0005V41.7504C219.75 42.9938 218.743 44 217.5 44Z" fill="white"/>
<path fill-rule="evenodd" clip-rule="evenodd" d="M205.44 25.8367H206.64C207.037 25.8367 207.36 25.5133 207.36 25.1164C207.36 24.7205 207.037 24.3971 206.64 24.3971H205.44V25.8367ZM208.079 29.6765C207.934 29.6765 207.788 29.6335 207.661 29.5421L205.44 27.9556V28.9573C205.44 29.3542 205.117 29.6765 204.719 29.6765C204.322 29.6765 204 29.3542 204 28.9573V26.5654V26.5486V23.6758C204 23.2789 204.322 22.9565 204.719 22.9565H206.64C207.83 22.9565 208.8 23.9267 208.8 25.1164C208.8 26.2073 207.988 27.1103 206.938 27.2573L208.498 28.3714C208.823 28.6024 208.897 29.0528 208.666 29.3752C208.526 29.5726 208.304 29.6765 208.079 29.6765Z" fill="#3393E3"/>
<path fill-rule="evenodd" clip-rule="evenodd" d="M211.084 26.8867H212.284C212.681 26.8867 213.005 26.5633 213.005 26.1664C213.005 25.7706 212.681 25.4472 212.284 25.4472H211.084V26.8867ZM210.364 30.7266C209.967 30.7266 209.644 30.4042 209.644 30.0073V24.7258C209.644 24.3289 209.967 24.0066 210.364 24.0066H212.284C213.475 24.0066 214.444 24.9768 214.444 26.1664C214.444 27.3571 213.475 28.3263 212.284 28.3263H211.084V30.0073C211.084 30.4042 210.762 30.7266 210.364 30.7266Z" fill="#3393E3"/>
<path fill-rule="evenodd" clip-rule="evenodd" d="M204 35.25H202.25C201.767 35.25 201.375 34.8589 201.375 34.375C201.375 33.892 201.767 33.5 202.25 33.5H204C204.484 33.5 204.875 33.892 204.875 34.375C204.875 34.8589 204.484 35.25 204 35.25Z" fill="#BBBDC0"/>
<path fill-rule="evenodd" clip-rule="evenodd" d="M204 40.5H202.25C201.767 40.5 201.375 40.1089 201.375 39.625C201.375 39.142 201.767 38.75 202.25 38.75H204C204.484 38.75 204.875 39.142 204.875 39.625C204.875 40.1089 204.484 40.5 204 40.5Z" fill="#BBBDC0"/>
<path fill-rule="evenodd" clip-rule="evenodd" d="M216.25 35.25H207.5C207.017 35.25 206.625 34.8589 206.625 34.375C206.625 33.892 207.017 33.5 207.5 33.5H216.25C216.734 33.5 217.125 33.892 217.125 34.375C217.125 34.8589 216.734 35.25 216.25 35.25Z" fill="#BBBDC0"/>
<path fill-rule="evenodd" clip-rule="evenodd" d="M216.25 40.5H207.5C207.017 40.5 206.625 40.1089 206.625 39.625C206.625 39.142 207.017 38.75 207.5 38.75H216.25C216.734 38.75 217.125 39.142 217.125 39.625C217.125 40.1089 216.734 40.5 216.25 40.5Z" fill="#BBBDC0"/>
<path fill-rule="evenodd" clip-rule="evenodd" d="M216.51 21.25V19.052H224.329V16.875L229.321 21.25H216.51Z" fill="#FFC54F"/>
<path fill-rule="evenodd" clip-rule="evenodd" d="M229.321 23V25.1989H221.502V27.375L216.51 23H229.321Z" fill="#FFC54F"/>
<path fill-rule="evenodd" clip-rule="evenodd" d="M221.5 22.0422V21.2503H216.51L221.5 22.0422Z" fill="#00883E"/>
<path fill-rule="evenodd" clip-rule="evenodd" d="M216.51 23L221.5 28.488L221.502 27.375L216.51 23Z" fill="#00883E"/>
<path d="M289.555 110.902C289.555 129.06 274.715 143.781 256.409 143.781C238.104 143.781 223.264 129.06 223.264 110.902C223.264 92.7436 238.104 78.0229 256.409 78.0229C273.906 78.0229 288.235 91.471 289.469 108.515C289.526 109.303 289.555 110.098 289.555 110.902Z" fill="#84D7CC"/>
<path d="M289.555 106.659C289.555 124.817 274.715 139.538 256.409 139.538C238.104 139.538 223.264 124.817 223.264 106.659C223.264 88.5012 238.104 73.7805 256.409 73.7805C273.906 73.7805 288.235 87.2286 289.469 104.273C289.526 105.06 289.555 105.856 289.555 106.659Z" fill="white"/>
<path fill-rule="evenodd" clip-rule="evenodd" d="M253.681 114.181C252.316 117.15 250.085 118.634 246.986 118.634C244.191 118.634 242.111 117.42 240.746 114.994C239.609 112.968 239.04 110.249 239.04 106.836C239.04 104.193 239.381 101.923 240.064 100.027C241.342 96.4958 243.655 94.73 247.003 94.73C250.014 94.73 252.192 95.9704 253.535 98.4512C254.575 100.369 255.095 102.996 255.095 106.332C255.095 109.496 254.624 112.112 253.681 114.181ZM242.973 112.67C243.753 114.869 245.085 115.969 246.97 115.969C248.487 115.969 249.695 115.297 250.594 113.954C251.493 112.61 251.943 110.108 251.943 106.446C251.943 103.803 251.618 101.628 250.968 99.9219C250.318 98.2156 249.055 97.3625 247.181 97.3625C245.459 97.3625 244.199 98.1723 243.403 99.7919C242.607 101.411 242.209 103.797 242.209 106.95C242.209 109.322 242.463 111.229 242.973 112.67Z" fill="#00AB4E"/>
<path fill-rule="evenodd" clip-rule="evenodd" d="M263.845 118.38L271.855 103.74H270.745L262.735 118.38H263.845ZM262.375 111.08C263.341 111.08 264.165 110.74 264.845 110.06C265.525 109.38 265.865 108.56 265.865 107.6C265.865 106.64 265.525 105.818 264.845 105.135C264.165 104.452 263.341 104.11 262.375 104.11C261.415 104.11 260.595 104.452 259.915 105.135C259.235 105.818 258.895 106.64 258.895 107.6C258.895 108.56 259.235 109.38 259.915 110.06C260.595 110.74 261.415 111.08 262.375 111.08ZM260.92 109.055C261.323 109.458 261.808 109.66 262.375 109.66C262.948 109.66 263.436 109.458 263.84 109.055C264.243 108.652 264.445 108.167 264.445 107.6C264.445 107.033 264.243 106.548 263.84 106.145C263.436 105.742 262.948 105.54 262.375 105.54C261.808 105.54 261.323 105.74 260.92 106.14C260.516 106.54 260.315 107.027 260.315 107.6C260.315 108.167 260.516 108.652 260.92 109.055ZM272.195 118C273.155 118 273.975 117.66 274.655 116.98C275.335 116.3 275.675 115.48 275.675 114.52C275.675 113.56 275.335 112.74 274.655 112.06C273.975 111.38 273.155 111.04 272.195 111.04C271.228 111.04 270.405 111.38 269.725 112.06C269.045 112.74 268.705 113.56 268.705 114.52C268.705 115.48 269.045 116.3 269.725 116.98C270.405 117.66 271.228 118 272.195 118ZM270.73 115.975C271.133 116.378 271.621 116.58 272.195 116.58C272.761 116.58 273.246 116.378 273.65 115.975C274.053 115.572 274.255 115.087 274.255 114.52C274.255 113.953 274.053 113.468 273.65 113.065C273.246 112.662 272.761 112.46 272.195 112.46C271.621 112.46 271.133 112.662 270.73 113.065C270.326 113.468 270.125 113.953 270.125 114.52C270.125 115.087 270.326 115.572 270.73 115.975Z" fill="#00AB4E"/>
<path fill-rule="evenodd" clip-rule="evenodd" d="M173.051 92.6556C173.661 92.89 173.966 93.575 173.732 94.1856L172.072 98.5095C171.838 99.1201 171.153 99.4251 170.542 99.1907L163.417 96.4558C162.807 96.2214 162.502 95.5364 162.736 94.9258L164.396 90.6019C164.63 89.9913 165.315 89.6863 165.926 89.9207L173.051 92.6556ZM169.006 92.5449C167.92 92.1282 166.695 92.6907 166.268 93.8013C165.842 94.9118 166.377 96.1498 167.462 96.5665C168.548 96.9832 169.773 96.4207 170.199 95.3102C170.626 94.1996 170.091 92.9616 169.006 92.5449Z" fill="#00AB4E"/>
<path d="M176.159 98.473C175.725 98.2977 175.517 97.8047 175.692 97.3725C175.719 97.3051 178.35 90.5727 171.796 87.3899C168.322 85.7089 164.924 87.2436 164.888 87.2616C164.468 87.4566 163.964 87.2742 163.767 86.8526C163.57 86.4287 163.752 85.9251 164.176 85.7275C164.345 85.6504 168.353 83.8252 172.533 85.8696C178.901 88.9607 178.41 95.1597 177.26 98.0059C177.085 98.438 176.593 98.6483 176.159 98.473Z" fill="#28D677"/>
<path d="M175.3 101.634L178.56 99.3672C178.917 99.1177 178.856 98.5731 178.453 98.4105L174.422 96.7819C174.02 96.6192 173.598 96.9686 173.681 97.3961L174.451 101.291C174.526 101.679 174.976 101.861 175.3 101.634Z" fill="#28D677"/>
<path d="M164.781 103.891C164.583 103.812 164.386 103.724 164.188 103.627C157.821 100.537 158.314 94.3399 159.464 91.4938C159.638 91.0616 160.13 90.8514 160.562 91.026C160.996 91.2013 161.204 91.6943 161.03 92.1265C161.002 92.1939 158.374 98.9269 164.924 102.107C168.412 103.803 171.799 102.252 171.832 102.237C172.255 102.041 172.757 102.221 172.954 102.646C173.151 103.068 172.969 103.572 172.545 103.768C172.384 103.844 168.749 105.495 164.781 103.891Z" fill="#28D677"/>
<path d="M161.422 87.8634L158.161 90.1315C157.806 90.3801 157.865 90.924 158.268 91.0866L162.299 92.7152C162.701 92.8779 163.125 92.5292 163.039 92.1027L162.27 88.206C162.195 87.82 161.745 87.6381 161.422 87.8634Z" fill="#28D677"/>
</svg>
