<svg width="328" height="164" viewBox="0 0 328 164" fill="none" xmlns="http://www.w3.org/2000/svg">
<path d="M2.31987 141.514C5.30487 151.239 12.7689 159.343 23.2189 161.504C33.6809 163.667 265.053 165.826 301.876 161.504C312.777 160.224 321.503 148.276 322.776 146.203C330.736 133.238 327.751 53.2794 325.761 26.266C324.69 11.7278 309.838 5.19571 302.871 3.03482C289.548 -1.09779 53.2799 -1.26366 22.2229 4.11573C8.32787 6.52168 3.29087 17.8712 2.29087 24.1796C-0.0421274 38.8847 -1.42113 129.331 2.31887 141.514H2.31987Z" fill="#E6F6ED"/>
<mask id="mask0_5570_165346" style="mask-type:alpha" maskUnits="userSpaceOnUse" x="0" y="0" width="328" height="164">
<path fill-rule="evenodd" clip-rule="evenodd" d="M23.2189 161.504C33.6809 163.667 265.053 165.826 301.876 161.504C312.777 160.224 321.503 148.276 322.776 146.203C330.736 133.238 327.751 53.2794 325.761 26.266C324.69 11.7278 309.838 5.19571 302.871 3.03482C289.548 -1.09779 53.2799 -1.26366 22.2229 4.11573C8.32787 6.52168 3.29087 17.8712 2.29087 24.1796C-0.0421274 38.8847 -1.42113 129.331 2.31887 141.514C5.30487 151.239 12.7689 159.343 23.2189 161.504Z" fill="white"/>
</mask>
<g mask="url(#mask0_5570_165346)">
<path fill-rule="evenodd" clip-rule="evenodd" d="M117.871 83.8651C120.127 77.0071 132.546 68.4857 145.044 71.2749C157.541 74.0641 157.262 87.5222 157.892 92.7972C158.524 98.0732 164.329 132.926 175.342 141.238C185.579 148.962 198.832 147.668 198.832 147.668C198.832 147.668 195.652 154.354 180.881 157.338C166.11 160.324 134.614 160.851 125.991 148.982C118.736 138.995 117.871 116.142 117.871 116.142C117.455 107.958 115.614 90.7211 117.871 83.8651Z" fill="white"/>
<path fill-rule="evenodd" clip-rule="evenodd" d="M136.115 156L124 193.377H127.695L141.245 157.26L136.115 156Z" fill="#AA764B"/>
<path fill-rule="evenodd" clip-rule="evenodd" d="M140.327 159.707L139.008 163.224L134.015 162.477L135.426 158.198L140.327 159.707Z" fill="#77461C"/>
<path fill-rule="evenodd" clip-rule="evenodd" d="M176.618 156L188.733 193.377H185.038L171.488 157.26L176.618 156Z" fill="#AA764B"/>
<path fill-rule="evenodd" clip-rule="evenodd" d="M176.618 156L178.715 162.469L173.849 163.554L171.488 157.26L176.618 156Z" fill="#77461C"/>
<path fill-rule="evenodd" clip-rule="evenodd" d="M181.752 85.5974C184.474 86.5321 187.252 88.9253 187.252 88.9253C187.582 89.2411 187.628 90.7338 185.952 90.3735C184.277 90.0133 182.73 89.9022 182.334 90.5056C182.334 90.5056 184.756 91.0213 184.537 91.7252C184.319 92.429 182.673 91.9414 181.752 92.5239C181.06 92.9615 179.738 91.9335 178.829 91.2687C178.555 91.069 178.32 91.3357 178.15 91.1392L171.165 87.1529C171.165 87.1529 173.908 85.3447 176.056 85.0807C178.203 84.8167 179.03 84.6626 181.752 85.5974Z" fill="#F2CBA8"/>
<path fill-rule="evenodd" clip-rule="evenodd" d="M154.577 65.1779C154.577 65.1779 162.361 64.9172 167.095 73.4061C171.83 81.895 172.535 98.6536 172.535 98.6536C172.535 98.6536 172.289 102.179 177.486 102.69C182.684 103.2 193.469 106.215 193.469 106.215C193.469 106.215 190.462 110.081 187.252 110.547C177.958 111.898 167.571 107.542 166.705 105.696C164.959 101.973 161.468 72.3596 161.468 72.3596L154.577 65.1779Z" fill="#FFC54F"/>
<mask id="mask1_5570_165346" style="mask-type:alpha" maskUnits="userSpaceOnUse" x="154" y="65" width="40" height="46">
<path fill-rule="evenodd" clip-rule="evenodd" d="M154.577 65.1779C154.577 65.1779 162.361 64.9172 167.095 73.4061C171.83 81.895 172.535 98.6536 172.535 98.6536C172.535 98.6536 172.289 102.179 177.486 102.69C182.684 103.2 193.469 106.215 193.469 106.215C193.469 106.215 190.462 110.081 187.252 110.547C177.958 111.898 167.571 107.542 166.705 105.696C164.959 101.973 161.468 72.3596 161.468 72.3596L154.577 65.1779Z" fill="white"/>
</mask>
<g mask="url(#mask1_5570_165346)">
<path fill-rule="evenodd" clip-rule="evenodd" d="M183 103.272C183 103.272 185.703 109.611 188.998 110.803C192.293 111.995 194.997 106.722 194.997 106.722L183 103.272Z" fill="white"/>
</g>
<path fill-rule="evenodd" clip-rule="evenodd" d="M136.175 67.3491C139.576 67.3714 147.86 65.64 154.576 65.178C157.794 64.9567 162.239 70.2693 162.239 70.2693C162.239 70.2693 169.098 80.2092 169.798 86.3433C170.498 92.4773 167.526 100.146 167.095 107.445C166.803 112.395 174.063 130.505 174.063 130.505L139.089 141.376C139.089 141.376 136.717 133.549 133.748 122.685C128.569 103.734 119.738 77.3496 129.179 70.021L136.175 67.3491Z" fill="#FFD37B"/>
<mask id="mask2_5570_165346" style="mask-type:alpha" maskUnits="userSpaceOnUse" x="125" y="65" width="50" height="77">
<path fill-rule="evenodd" clip-rule="evenodd" d="M136.175 67.3491C139.576 67.3714 147.86 65.64 154.576 65.178C157.794 64.9567 162.239 70.2693 162.239 70.2693C162.239 70.2693 169.098 80.2092 169.798 86.3433C170.498 92.4773 167.526 100.146 167.095 107.445C166.803 112.395 174.063 130.505 174.063 130.505L139.089 141.376C139.089 141.376 136.717 133.549 133.748 122.685C128.569 103.734 119.738 77.3496 129.179 70.021L136.175 67.3491Z" fill="white"/>
</mask>
<g mask="url(#mask2_5570_165346)">
<path fill-rule="evenodd" clip-rule="evenodd" d="M133.724 66.1866C133.724 66.1866 138.249 73.0815 142.577 74.2436C146.905 75.4056 153.64 75.4497 155.754 73.3726C157.869 71.2954 152.636 64.3628 152.636 64.3628L133.724 66.1866Z" fill="white"/>
</g>
<path fill-rule="evenodd" clip-rule="evenodd" d="M121.157 79.591C120.267 74.0962 125.278 70.021 129.18 70.021C131.224 70.021 135.917 79.0356 139.09 87.9865C141.971 96.1155 143.919 104.055 145.044 104.055C147.406 104.055 171.286 86.3072 171.286 86.3072L178.15 91.1392C178.15 91.1392 174.428 93.8594 172.813 95.458C154.332 113.747 143.031 118.232 138.105 116.636C130.069 114.032 122.046 85.0858 121.157 79.591Z" fill="#FFC54F"/>
<mask id="mask3_5570_165346" style="mask-type:alpha" maskUnits="userSpaceOnUse" x="121" y="70" width="58" height="47">
<path fill-rule="evenodd" clip-rule="evenodd" d="M121.157 79.591C120.267 74.0962 125.278 70.021 129.18 70.021C131.224 70.021 135.917 79.0356 139.09 87.9865C141.971 96.1155 143.919 104.055 145.044 104.055C147.406 104.055 171.286 86.3072 171.286 86.3072L178.15 91.1392C178.15 91.1392 174.428 93.8594 172.813 95.458C154.332 113.747 143.031 118.232 138.105 116.636C130.069 114.032 122.046 85.0858 121.157 79.591Z" fill="white"/>
</mask>
<g mask="url(#mask3_5570_165346)">
<path fill-rule="evenodd" clip-rule="evenodd" d="M168.96 87.9904L175.502 93.0671L178.15 91.1392L171.286 86.3071L168.96 87.9904Z" fill="white"/>
</g>
<path fill-rule="evenodd" clip-rule="evenodd" d="M154.164 68.9805L154.172 68.9813C154.167 68.9775 154.161 68.9737 154.156 68.9699C153.705 68.3514 153.239 67.8642 153.069 67.6917C152.074 66.0042 151.522 63.4093 151.389 61.7281C151.08 61.6616 150.78 61.5972 150.487 61.5344C145.815 60.5331 143.013 59.9326 139.619 57.583C138.694 63.1218 136.407 67.3314 136.407 67.3314C140.253 74.915 149.714 74.0712 153.601 73.0178C156.075 72.3478 155.158 70.3474 154.164 68.9805Z" fill="#E79E5C"/>
<mask id="mask4_5570_165346" style="mask-type:alpha" maskUnits="userSpaceOnUse" x="136" y="57" width="20" height="17">
<path fill-rule="evenodd" clip-rule="evenodd" d="M154.164 68.9805L154.172 68.9813C154.167 68.9775 154.161 68.9737 154.156 68.9699C153.705 68.3514 153.239 67.8642 153.069 67.6917C152.074 66.0042 151.522 63.4093 151.389 61.7281C151.08 61.6616 150.78 61.5972 150.487 61.5344C145.815 60.5331 143.013 59.9326 139.619 57.583C138.694 63.1218 136.407 67.3314 136.407 67.3314C140.253 74.915 149.714 74.0712 153.601 73.0178C156.075 72.3478 155.158 70.3474 154.164 68.9805Z" fill="white"/>
</mask>
<g mask="url(#mask4_5570_165346)">
<path fill-rule="evenodd" clip-rule="evenodd" d="M151.24 54.1315C151.24 54.1315 150.807 59.0332 152.23 65.7232C144.422 62.8575 143.266 62.234 139.292 59.5535C139.467 56.234 139.746 54.5032 139.09 49.5261L151.24 54.1315Z" fill="#E07E26"/>
</g>
<path fill-rule="evenodd" clip-rule="evenodd" d="M150.94 61.728C151.984 61.8336 153.037 61.17 153.037 61.17C153.037 61.17 157.869 56.3559 157.869 48.4971C157.869 40.6393 157.869 29.355 152.203 29.355C140.155 29.355 133.724 29.4175 133.724 46.9614C133.724 58.6137 146.221 61.2506 150.94 61.728Z" fill="#F2CBA8"/>
<path fill-rule="evenodd" clip-rule="evenodd" d="M150.89 54.307C148.558 54.5293 146.113 54.307 146.113 54.307C146.113 54.307 148.114 58.7356 150.89 58.8939C153.667 59.0521 154.161 53.5398 154.161 53.5398C154.161 53.5398 153.221 54.0848 150.89 54.307Z" fill="#FFFFFE"/>
<path fill-rule="evenodd" clip-rule="evenodd" d="M180.416 104.055L187.515 90.1662L187.252 89.5549L180.162 102.615C179.902 103.096 180.007 103.692 180.416 104.055Z" fill="#252528"/>
<path fill-rule="evenodd" clip-rule="evenodd" d="M187.252 89.5548L196.585 90.1068L197.214 90.5695L187.411 90.2659L187.252 89.5548Z" fill="#252528"/>
<path fill-rule="evenodd" clip-rule="evenodd" d="M196.997 90.4454C197.239 90.4557 197.392 90.711 197.286 90.9291L189.81 106.309C189.694 106.548 189.424 106.67 189.168 106.598L180.658 104.203C180.32 104.107 180.157 103.724 180.323 103.415L187.398 90.2272C187.459 90.1134 187.58 90.0445 187.709 90.05L196.997 90.4454Z" fill="#58585B"/>
<ellipse cx="190.728" cy="95.5764" rx="1.29204" ry="2.02041" transform="rotate(30 190.728 95.5764)" fill="#D8D8D8"/>
<path fill-rule="evenodd" clip-rule="evenodd" d="M194.313 90.0491L161.5 7.05688L129.226 90.7357L180 102.851L187.384 89.6393L194.313 90.0491Z" fill="url(#paint0_linear_5570_165346)"/>
<path fill-rule="evenodd" clip-rule="evenodd" d="M190.974 99.4914C192.374 99.7728 193.575 98.6612 193.881 97.9037C194.188 97.1462 194.869 99.1187 194.989 100.927C195.11 102.734 193.734 107.865 191.292 107.807C188.85 107.749 186.584 106.264 185.887 105.075C185.19 103.886 179.906 100.908 180.283 100.028C180.66 99.1488 184.504 102.231 184.504 102.231C184.504 102.231 180.454 98.463 180.954 97.5581C181.453 96.6532 185.436 100.335 185.436 100.335C185.436 100.335 182.127 96.6227 182.439 96.0936C182.751 95.5646 186.372 98.2819 186.372 98.2819C186.372 98.2819 183.058 95.2894 183.882 94.4442C184.682 93.6238 189.575 99.2101 190.974 99.4914Z" fill="#F2CBA8"/>
<path fill-rule="evenodd" clip-rule="evenodd" d="M174.056 130.421C174.056 130.421 205.029 132.595 214.352 142.611C223.675 152.627 234.479 197.06 234.479 197.06L208.756 200.118L205.603 150.683L139.09 141.375L174.056 130.421Z" fill="#323232"/>
<path fill-rule="evenodd" clip-rule="evenodd" d="M166.697 133.143C166.697 133.143 209.419 129.465 218.742 139.481C228.065 149.497 245.685 173.458 245.685 173.458L226.046 187.805L206.266 152C206.266 152 177.02 156.668 159.081 155.124C141.142 153.58 139.09 141.376 139.09 141.376L166.697 133.143Z" fill="#3A3A3A"/>
<path fill-rule="evenodd" clip-rule="evenodd" d="M131.803 32.7977C131.907 30.6767 129.85 24.3197 124.079 25.1677C118.309 26.0167 116.546 32.9927 118.525 36.3707C121.207 40.9477 131.303 43.0217 131.803 32.7977Z" fill="#946F25"/>
<mask id="mask5_5570_165346" style="mask-type:alpha" maskUnits="userSpaceOnUse" x="117" y="25" width="15" height="16">
<path fill-rule="evenodd" clip-rule="evenodd" d="M131.803 32.7977C131.907 30.6767 129.85 24.3197 124.079 25.1677C118.309 26.0167 116.546 32.9927 118.525 36.3707C121.207 40.9477 131.303 43.0217 131.803 32.7977Z" fill="white"/>
</mask>
<g mask="url(#mask5_5570_165346)">
<path fill-rule="evenodd" clip-rule="evenodd" d="M123.758 40.2153C123.758 40.2153 121.915 36.8752 123.758 32.7595C125.6 28.6439 129.226 28.0002 129.226 28.0002L123.758 40.2153Z" fill="#6C4A07"/>
</g>
<path fill-rule="evenodd" clip-rule="evenodd" d="M132.878 38.9889C136.968 38.0987 136.187 52.0002 136.187 52.0002C136.187 52.0002 137.6 45.9174 137.736 43.3312C137.873 40.745 138.189 39.4111 138.189 39.4111C138.189 39.4111 142.049 40.6641 144.363 38.7703C146.677 36.8764 147.172 34.1077 147.172 34.1077C147.172 34.1077 147.298 35.3977 152.938 38.7703C158.577 42.1429 157.869 45.7604 157.869 45.7604C157.869 45.7604 163.237 35.8271 157.171 28.0002C151.105 20.1734 142.113 21.8601 136.968 22.8334C131.822 23.8066 123.487 30.9202 123.7 40.149C123.784 43.7779 125.728 45.8338 130.26 52.0932C134.792 58.3527 130.801 58.1804 132.878 60.2359C134.955 62.2914 137.436 61.7359 138.487 61.3895C139.538 61.043 139.492 57.9889 139.492 57.9889C139.492 57.9889 137.012 55.9866 135.871 54.3201C134.73 52.6537 134.073 49.9718 134.073 49.9718C134.073 49.9718 130.676 46.7076 130.26 44.1547C129.844 41.6018 131.504 39.2879 132.878 38.9889Z" fill="#946F25"/>
<path fill-rule="evenodd" clip-rule="evenodd" d="M135.763 42.5802C135.763 42.5802 135.409 36.6203 131.14 39.6089C126.872 42.5964 130.776 49.0937 133.407 49.4973C136.036 49.9009 135.434 46.2688 135.434 46.2688" fill="#F2CBA8"/>
<path fill-rule="evenodd" clip-rule="evenodd" d="M132.725 49.127C132.725 49.749 133.229 50.253 133.851 50.253C134.473 50.253 134.978 49.749 134.978 49.127C134.978 48.505 134.473 48 133.851 48C133.229 48 132.725 48.505 132.725 49.127Z" fill="white"/>
<path fill-rule="evenodd" clip-rule="evenodd" d="M110.859 167.253H116.008L123.753 138.473H118.603L110.859 167.253Z" fill="#00AB4E"/>
<path fill-rule="evenodd" clip-rule="evenodd" d="M289.753 167.253H284.604L276.859 138.473H282.009L289.753 167.253Z" fill="#00AB4E"/>
<path fill-rule="evenodd" clip-rule="evenodd" d="M290 138.275H111.339V128.703H290V138.275Z" fill="#28D677"/>
<g opacity="0.4">
<mask id="mask6_5570_165346" style="mask-type:alpha" maskUnits="userSpaceOnUse" x="-10" y="84" width="79" height="84">
<path fill-rule="evenodd" clip-rule="evenodd" d="M68.1787 104.323L13.3011 84.3489L-9.60361 147.279L45.274 167.253L68.1787 104.323Z" fill="white"/>
</mask>
<g mask="url(#mask6_5570_165346)">
<path fill-rule="evenodd" clip-rule="evenodd" d="M44.2311 166.316C44.2311 166.316 57.055 147.589 49.8734 131.549C42.6918 115.508 31.5992 120.194 30.8563 110.281C30.1133 100.368 28.1697 90.671 23.4465 88.16C13.3186 82.7773 0.398987 94.8454 17.7104 120.317C26.8108 133.708 12.0033 135.006 17.527 150.629C21.2697 161.214 44.2311 166.316 44.2311 166.316Z" fill="#BBF0D3"/>
<path fill-rule="evenodd" clip-rule="evenodd" d="M50.8554 134.684C50.8554 134.684 44.7105 134.684 41.1385 139.14C37.5664 143.596 38.2739 149.828 38.2739 149.828L48.4566 150.648L52.8953 140.02L50.8554 134.684Z" fill="#28D677"/>
</g>
<path d="M41.066 165.491C41.066 165.491 31.6442 129.728 20.2646 97.6485" stroke="white" stroke-width="0.678947"/>
<path fill-rule="evenodd" clip-rule="evenodd" d="M62.0227 173.048C68.9977 169.434 76.6165 163.268 78.6829 155.28C81.3833 144.843 72.1777 143.95 74.0737 140.297C76.5224 135.58 84.6751 133.679 85.2073 126.911C85.8336 118.949 77.7497 117.082 78.1526 113.128C78.7198 107.556 79.2793 95.7418 74.0215 94.2768C68.2743 92.6756 67.2427 104.681 65.7362 109.469C64.1588 114.484 57.369 109.758 53.9494 115.332C49.4549 122.659 57.4325 129.262 55.0578 133.682C52.4822 138.476 41.8499 137.461 38.6082 146.367C36.5159 152.116 36.9824 158.66 41.0662 165.492C47.2733 168.019 55.1881 170.436 62.0227 173.048Z" fill="#BBF0D3"/>
<path d="M53.9683 170.116C53.9683 170.116 65.7096 141.585 73.2982 107.322" stroke="white" stroke-width="0.678947"/>
<path d="M57.3416 161.323C57.3416 161.323 65.3558 158.951 71.2593 153.912" stroke="white" stroke-width="0.678947"/>
<path d="M68.1151 127.937L60.1308 118.533" stroke="white" stroke-width="0.678947"/>
</g>
<g opacity="0.4">
<path fill-rule="evenodd" clip-rule="evenodd" d="M254 92.4435H241.611V87.0005H254V92.4435Z" fill="#BBF0D3"/>
<path fill-rule="evenodd" clip-rule="evenodd" d="M236.355 92.4435H223.966V87.0005H236.355V92.4435Z" fill="#BBF0D3"/>
<path fill-rule="evenodd" clip-rule="evenodd" d="M245.553 101.453H233.164V96.0105H245.553V101.453Z" fill="#BBF0D3"/>
</g>
<g opacity="0.4">
<path fill-rule="evenodd" clip-rule="evenodd" d="M330.936 59.054H237.833V-57.522H330.936V59.054Z" fill="#BBF0D3" fill-opacity="0.4"/>
<path fill-rule="evenodd" clip-rule="evenodd" d="M332.437 64.9511H236.331V57.0671H332.437V64.9511Z" fill="white"/>
<path fill-rule="evenodd" clip-rule="evenodd" d="M332.437 64.9512V68.8932L236.331 64.9512H332.437Z" fill="#BBF0D3"/>
<path fill-rule="evenodd" clip-rule="evenodd" d="M332.437 1.42311H236.331V0.110107H332.437V1.42311Z" fill="#EDFFF5"/>
<path fill-rule="evenodd" clip-rule="evenodd" d="M308.221 42.3398C308.221 42.3398 312.106 32.0928 301.152 22.0308C301.152 22.0308 294.9 32.3498 308.221 42.3398Z" fill="#00AB4E" fill-opacity="0.3"/>
<path fill-rule="evenodd" clip-rule="evenodd" d="M308.739 35.8799C308.739 35.8799 307.101 38.5149 306.913 41.3069L307.672 41.9569L308.082 41.8629L309.232 36.9839L308.739 35.8799Z" fill="#BBF0D3"/>
<path fill-rule="evenodd" clip-rule="evenodd" d="M307.636 45.0615C307.636 45.0615 318.168 42.0355 319.665 27.2375C319.665 27.2375 307.657 28.4105 307.636 45.0615Z" fill="#00AB4E" fill-opacity="0.3"/>
<path fill-rule="evenodd" clip-rule="evenodd" d="M300.714 41.8633H318.921V49.9773C318.921 53.6863 315.915 56.6923 312.207 56.6923H307.429C303.72 56.6923 300.714 53.6863 300.714 49.9773V41.8633Z" fill="#28D677"/>
<path fill-rule="evenodd" clip-rule="evenodd" d="M312.905 41.8632L314.323 40.5962L307.895 41.0712L307.777 41.8632H312.905Z" fill="#BBF0D3"/>
<path fill-rule="evenodd" clip-rule="evenodd" d="M259.356 9.66195C260.489 6.82395 263.264 4.82495 266.507 4.82495C269.807 4.82495 272.618 6.89395 273.722 9.80195C274.546 9.35395 275.491 9.10295 276.497 9.10295C279.72 9.10295 282.328 11.711 282.328 14.926C282.328 15.191 282.306 15.458 282.271 15.716H273.526H270.73H265.004H259.497H254.568C254.526 15.458 254.505 15.191 254.505 14.926C254.505 12.158 256.637 9.87895 259.356 9.66195Z" fill="#EDFFF5"/>
</g>
<g opacity="0.5">
<path fill-rule="evenodd" clip-rule="evenodd" d="M111.834 78.5995L109.526 76.7495H99.5589C98.8509 76.7495 98.2759 76.1765 98.2759 75.4685V65.0195C98.2759 64.3115 98.8509 63.7375 99.5589 63.7375H112.636C113.344 63.7375 113.918 64.3115 113.918 65.0195V77.5995C113.918 78.6745 112.673 79.2725 111.834 78.5995Z" fill="#00AB4E"/>
<path fill-rule="evenodd" clip-rule="evenodd" d="M105.175 72.8653C104.955 72.8653 104.736 72.7903 104.557 72.6403L102.61 71.0073C102.203 70.6653 102.15 70.0573 102.491 69.6513C102.833 69.2453 103.441 69.1933 103.846 69.5333L105.126 70.6073L108.295 67.5123C108.676 67.1423 109.284 67.1493 109.654 67.5293C110.026 67.9093 110.018 68.5173 109.638 68.8883L105.846 72.5923C105.66 72.7723 105.417 72.8653 105.175 72.8653Z" fill="white"/>
</g>
<path fill-rule="evenodd" clip-rule="evenodd" d="M253.609 124.98H247.438V120.306H253.609C254.9 120.306 255.946 121.353 255.946 122.643C255.946 123.934 254.9 124.98 253.609 124.98Z" stroke="#00AB4E" stroke-width="2"/>
<path fill-rule="evenodd" clip-rule="evenodd" d="M253.408 119.572C253.027 124.163 249.937 127.742 246.168 127.742C243.027 127.742 240.347 125.262 239.338 121.772C239.128 121.072 238.988 120.333 238.928 119.572C238.887 119.072 239.258 118.642 239.758 118.642H252.568C252.637 118.642 252.708 118.652 252.767 118.673C253.168 118.762 253.437 119.142 253.408 119.572Z" fill="#00AB4E"/>
<path fill-rule="evenodd" clip-rule="evenodd" d="M252.767 118.673C252.197 122.963 249.197 126.233 245.597 126.233C242.927 126.233 240.597 124.443 239.337 121.773C239.127 121.072 238.988 120.333 238.927 119.572C238.887 119.072 239.257 118.643 239.757 118.643H252.568C252.637 118.643 252.707 118.652 252.767 118.673Z" fill="#28D677"/>
<path fill-rule="evenodd" clip-rule="evenodd" d="M251.66 127.739H240.669C239.702 127.739 238.918 128.522 238.918 129.489V129.616H253.41V129.489C253.41 128.522 252.626 127.739 251.66 127.739Z" fill="#00AB4E"/>
<path d="M248.497 109.773C248.497 109.773 247.51 110.243 247.44 111.462C247.371 112.682 249.482 113.246 249.295 114.465C249.107 115.686 248.169 116.578 248.169 116.578" stroke="#BBF0D3" stroke-linecap="round"/>
<path d="M244.447 106.715C244.447 106.715 243.179 107.466 243.18 109.433C243.181 110.821 244.634 111.788 244.447 113.175C244.26 114.562 243.909 115.246 243.909 115.246" stroke="#BBF0D3" stroke-linecap="round"/>
</g>
<defs>
<linearGradient id="paint0_linear_5570_165346" x1="137.121" y1="99.3977" x2="191.205" y2="126.967" gradientUnits="userSpaceOnUse">
<stop stop-color="white" stop-opacity="0.01"/>
<stop offset="1" stop-color="#FFC54F"/>
</linearGradient>
</defs>
</svg>
