<svg width="328" height="164" viewBox="0 0 328 164" fill="none" xmlns="http://www.w3.org/2000/svg">
<mask id="mask0_5567_145492" style="mask-type:alpha" maskUnits="userSpaceOnUse" x="0" y="0" width="328" height="164">
<path d="M23.2189 161.504C33.6809 163.667 265.053 165.826 301.876 161.504C312.777 160.224 321.503 148.276 322.776 146.203C330.736 133.238 327.751 53.2794 325.761 26.266C324.69 11.7278 309.838 5.19571 302.871 3.03482C289.548 -1.09779 53.2799 -1.26366 22.2229 4.11573C8.32787 6.52168 3.29087 17.8712 2.29087 24.1796C-0.0421274 38.8847 -1.42113 129.331 2.31887 141.514C5.30487 151.239 12.7689 159.343 23.2189 161.504Z" fill="white"/>
</mask>
<g mask="url(#mask0_5567_145492)">
<path d="M23.2189 161.504C33.6809 163.667 265.053 165.826 301.876 161.504C312.777 160.224 321.503 148.276 322.776 146.203C330.736 133.238 327.751 53.2794 325.761 26.266C324.69 11.7278 309.838 5.19571 302.871 3.03482C289.548 -1.09779 53.2799 -1.26366 22.2229 4.11573C8.32787 6.52168 3.29087 17.8712 2.29087 24.1796C-0.0421274 38.8847 -1.42113 129.331 2.31887 141.514C5.30487 151.239 12.7689 159.343 23.2189 161.504Z" fill="#E6F6EA"/>
<path d="M0 133H328V164H0V133Z" fill="#C6E5B4"/>
<path fill-rule="evenodd" clip-rule="evenodd" d="M330.444 96.3751H260.22V8.44678H330.444V96.3751Z" fill="#C6E5B4"/>
<mask id="mask1_5567_145492" style="mask-type:alpha" maskUnits="userSpaceOnUse" x="315" y="21" width="20" height="9">
<path d="M328.291 25.9521C328.788 25.7938 329.316 25.7118 329.867 25.7118C332.272 25.7118 334.294 27.3179 334.928 29.5119V29.5131H328.252H324.814H316.192C316.019 28.9325 315.921 28.3132 315.921 27.6726C315.921 24.1948 318.742 21.3748 322.227 21.3748C325.107 21.3748 327.537 23.3124 328.291 25.9521Z" fill="white"/>
</mask>
<g mask="url(#mask1_5567_145492)">
<path d="M328.291 25.9521C328.788 25.7938 329.316 25.7118 329.867 25.7118C332.272 25.7118 334.294 27.3179 334.928 29.5119V29.5131H328.252H324.814H316.192C316.019 28.9325 315.921 28.3132 315.921 27.6726C315.921 24.1948 318.742 21.3748 322.227 21.3748C325.107 21.3748 327.537 23.3124 328.291 25.9521Z" fill="white"/>
</g>
<path fill-rule="evenodd" clip-rule="evenodd" d="M331.576 100.123H259.087V94.1763H331.576V100.123Z" fill="white"/>
<path fill-rule="evenodd" clip-rule="evenodd" d="M331.576 52.2067H259.087V51.2166H331.576V52.2067Z" fill="#EDFFF5"/>
<path fill-rule="evenodd" clip-rule="evenodd" d="M269.52 37.5208C270.375 35.3801 272.468 33.8721 274.914 33.8721C277.403 33.8721 279.523 35.433 280.356 37.6266C280.978 37.2884 281.69 37.099 282.449 37.099C284.88 37.099 286.847 39.0661 286.847 41.491C286.847 41.6913 286.831 41.8924 286.804 42.0868H280.208H278.099H273.78H269.627H265.909C265.877 41.8924 265.861 41.6913 265.861 41.491C265.861 39.4036 267.47 37.6843 269.52 37.5208Z" fill="white"/>
<path fill-rule="evenodd" clip-rule="evenodd" d="M332 10.6456H251.463V7.21362H332V10.6456Z" fill="#99DDCF"/>
<path fill-rule="evenodd" clip-rule="evenodd" d="M250.047 12.5228H250.784C251.636 12.5228 252.326 11.8321 252.326 10.9795V6.66635C252.326 5.81414 251.636 5.12305 250.784 5.12305H250.047C249.194 5.12305 248.504 5.81414 248.504 6.66635V10.9795C248.504 11.8321 249.194 12.5228 250.047 12.5228Z" fill="#99DDCF"/>
<path fill-rule="evenodd" clip-rule="evenodd" d="M254.474 33.3283C254.474 34.3251 255.281 35.1338 256.278 35.1338C257.275 35.1338 258.083 34.3251 258.083 33.3283C258.083 32.3318 257.275 31.5227 256.278 31.5227C255.281 31.5227 254.474 32.3318 254.474 33.3283Z" fill="#99DDCF"/>
<path d="M256.432 8.87549L256.198 31.8996" stroke="#84D7CC" stroke-width="0.754208"/>
<path d="M330.432 95.7031H260.264" stroke="#84D7CC" stroke-width="0.754208"/>
<path d="M329.256 100.407H259.088" stroke="#BBF0D3" stroke-width="1.568"/>
<path fill-rule="evenodd" clip-rule="evenodd" d="M315.276 83.2654C315.276 83.2654 312.26 75.3121 320.762 67.5027C320.762 67.5027 325.614 75.5116 315.276 83.2654Z" fill="#99DDCF"/>
<path fill-rule="evenodd" clip-rule="evenodd" d="M315.73 85.3778C315.73 85.3778 307.556 83.0293 306.394 71.5437C306.394 71.5437 315.714 72.4543 315.73 85.3778Z" fill="#99DDCF"/>
<path fill-rule="evenodd" clip-rule="evenodd" d="M321.102 82.8953H306.971V89.1927C306.971 92.0716 309.303 94.4048 312.182 94.4048H315.89C318.769 94.4048 321.102 92.0716 321.102 89.1927V82.8953Z" fill="#DAF6E5"/>
<mask id="mask2_5567_145492" style="mask-type:alpha" maskUnits="userSpaceOnUse" x="310" y="81" width="6" height="2">
<path d="M311.641 82.8951H315.621L315.529 82.2804L310.54 81.9124L311.641 82.8951Z" fill="white"/>
</mask>
<g mask="url(#mask2_5567_145492)">
<path d="M311.641 82.8951H315.621L315.529 82.2804L310.54 81.9124L311.641 82.8951Z" fill="#47A99C"/>
<path fill-rule="evenodd" clip-rule="evenodd" d="M311.64 82.8952L310.54 81.9121L315.529 82.281L315.62 82.8952H311.64Z" fill="#47A99C"/>
</g>
<mask id="mask3_5567_145492" style="mask-type:alpha" maskUnits="userSpaceOnUse" x="29" y="101" width="50" height="69">
<path d="M58.9933 116.754C57.3763 121.898 50.4176 117.05 46.9131 122.769C42.3066 130.285 50.4825 137.061 48.0492 141.596C45.4092 146.514 34.5127 145.473 31.19 154.61C29.5059 159.243 29.4393 164.379 31.5173 169.767H69.5598C70.7721 167.898 71.7102 165.89 72.262 163.755C75.0291 153.047 65.5949 152.13 67.5381 148.383C70.0478 143.543 78.4027 141.593 78.9486 134.648C79.5902 126.479 71.3055 124.564 71.7183 120.508C72.3004 114.79 72.8733 102.669 67.4846 101.166C67.121 101.065 66.7753 101.016 66.4475 101.016C61.4618 101.016 60.441 112.144 58.9933 116.754Z" fill="white"/>
</mask>
<g mask="url(#mask3_5567_145492)">
<path d="M58.9933 116.754C57.3763 121.898 50.4176 117.05 46.9131 122.769C42.3066 130.285 50.4825 137.061 48.0492 141.596C45.4092 146.514 34.5127 145.473 31.19 154.61C29.5059 159.243 29.4393 164.379 31.5173 169.767H69.5598C70.7721 167.898 71.7102 165.89 72.262 163.755C75.0291 153.047 65.5949 152.13 67.5381 148.383C70.0478 143.543 78.4027 141.593 78.9486 134.648C79.5902 126.479 71.3055 124.564 71.7183 120.508C72.3004 114.79 72.8733 102.669 67.4846 101.166C67.121 101.065 66.7753 101.016 66.4475 101.016C61.4618 101.016 60.441 112.144 58.9933 116.754Z" fill="#CFE163"/>
</g>
<path d="M66.405 114.476L67.0818 114.625C65.1809 123.217 62.9292 131.903 60.3995 140.578C57.5242 150.438 54.4436 159.774 51.3629 168.292L50.569 170.468L50.0569 171.852L49.3164 173.824L48.8422 175.068L48.23 176.651L47.673 178.065L47.2532 179.109L46.6121 178.845L46.9058 178.118L47.5843 176.399L48.4298 174.206L48.911 172.936L49.6613 170.926L50.4436 168.794L50.7111 168.056C53.7871 159.551 56.8631 150.229 59.734 140.384C62.0492 132.444 64.131 124.497 65.9234 116.622L66.405 114.476Z" fill="white"/>
<path d="M53.5128 125.829L61.6957 135.477L61.1671 135.926L52.9841 126.277L53.5128 125.829Z" fill="white"/>
<path fill-rule="evenodd" clip-rule="evenodd" d="M31.6687 184C23.0514 179.283 13.6399 171.236 11.087 160.81C7.75076 147.188 19.1233 146.022 16.7809 141.255C13.7562 135.098 3.68418 132.617 3.02689 123.783C2.25328 113.392 12.2398 110.955 11.7421 105.795C11.041 98.5217 10.3502 83.1022 16.8458 81.1904C23.9457 79.1005 25.2197 94.7697 27.0812 101.019C29.0293 107.564 37.4178 101.396 41.6423 108.671C47.1944 118.233 37.3388 126.852 40.2725 132.621C43.4546 138.878 56.5892 137.553 60.5941 149.178C63.1789 156.68 62.6027 165.22 57.557 174.138C49.8896 177.437 40.1113 180.591 31.6687 184Z" fill="#95CF72"/>
<path d="M18.1601 98.1318C18.9404 102.009 19.8604 106.093 20.9084 110.36C22.4437 116.612 24.2335 123.175 26.227 129.948C28.45 137.5 30.8187 144.956 33.1995 152.041L34.0955 154.688L34.8143 156.784L35.5007 158.762L36.3607 161.205L37.3124 163.852L36.5066 164.148L35.5515 161.492L34.9116 159.678L34.0027 157.065L33.036 154.24C30.434 146.576 27.832 138.442 25.4033 130.191C23.4063 123.406 21.6132 116.83 20.0746 110.565C19.1406 106.762 18.3077 103.103 17.5844 99.6054L17.3184 98.3012L18.1601 98.1318Z" fill="white"/>
<path d="M10.0547 122.057L23.9793 124.664C24.2181 124.708 24.3755 124.938 24.3308 125.177C24.291 125.389 24.105 125.537 23.8964 125.536L23.8173 125.529L9.89281 122.922C9.65396 122.877 9.49657 122.648 9.54128 122.409C9.58102 122.196 9.76707 122.048 9.97568 122.05L10.0547 122.057Z" fill="white"/>
<path d="M19.9757 151.05L20.0547 151.057L33.9793 153.664C34.2181 153.708 34.3755 153.938 34.3308 154.177C34.291 154.389 34.105 154.537 33.8964 154.536L33.8173 154.529L19.8928 151.922C19.654 151.877 19.4966 151.648 19.5413 151.409C19.581 151.196 19.7671 151.048 19.9757 151.05Z" fill="white"/>
<path d="M31.7204 112.683C31.8506 112.478 32.1225 112.417 32.3277 112.547C32.5072 112.661 32.5762 112.884 32.5035 113.075L32.4635 113.154L24.7352 125.339C24.605 125.544 24.3332 125.605 24.128 125.475C23.9484 125.361 23.8794 125.138 23.9521 124.947L23.9921 124.867L31.7204 112.683Z" fill="white"/>
<path d="M40.3264 143.937C40.4697 143.74 40.7449 143.697 40.9412 143.841C41.1129 143.966 41.1673 144.193 41.0822 144.379L41.0372 144.456L33.8972 154.237C33.754 154.434 33.4787 154.477 33.2824 154.333C33.1107 154.208 33.0563 153.982 33.1414 153.795L33.1864 153.719L40.3264 143.937Z" fill="white"/>
<path fill-rule="evenodd" clip-rule="evenodd" d="M234.869 193.59L226.71 152.946C225.715 148.533 221.89 145.34 217.385 145.159H138.947C134.66 145.159 131.885 148.645 132.751 152.946L140.91 193.59C141.902 197.993 145.71 201.184 150.204 201.377H228.673C232.952 201.377 235.728 197.892 234.869 193.59Z" fill="#00AC89"/>
<path fill-rule="evenodd" clip-rule="evenodd" d="M256.087 84.2007H242.284L220.859 189.62H234.662C263.678 189.62 291.997 166.012 297.909 136.902C303.822 107.793 285.104 84.2007 256.087 84.2007Z" fill="#00AC89"/>
<path fill-rule="evenodd" clip-rule="evenodd" d="M274.761 97.8094C257.195 78.2946 223.63 79.9898 199.792 101.596C175.953 123.202 170.869 156.539 188.436 176.053C206.001 195.568 239.567 193.873 263.404 172.267C287.242 150.66 292.327 117.324 274.761 97.8094Z" fill="#4F7AF5"/>
<path fill-rule="evenodd" clip-rule="evenodd" d="M274.761 97.8094C257.195 78.2946 223.63 79.9898 199.792 101.596C175.953 123.202 170.869 156.539 188.436 176.053C206.001 195.568 239.567 193.873 263.404 172.267C287.242 150.66 292.327 117.324 274.761 97.8094Z" fill="#99DDCF"/>
<path fill-rule="evenodd" clip-rule="evenodd" d="M207.092 110.398L201.082 118.209C200.564 118.881 199.6 119.007 198.928 118.49C198.848 118.428 198.774 118.359 198.708 118.284L189.138 107.345L182.621 111.533L197.139 129.039C199.034 131.324 202.424 131.64 204.709 129.745C204.808 129.662 204.905 129.577 204.998 129.487L216.495 118.463L207.092 110.398Z" fill="#F2CBA8"/>
<path fill-rule="evenodd" clip-rule="evenodd" d="M159.805 177.916L154.804 152.946C153.811 148.535 149.99 145.343 145.488 145.159H137.628C133.341 145.159 130.566 148.645 131.424 152.946L139.584 193.59C140.579 198.003 144.402 201.196 148.908 201.377H247.59V177.916H159.805Z" fill="#4F7AF5"/>
<path fill-rule="evenodd" clip-rule="evenodd" d="M159.805 177.916L154.804 152.946C153.811 148.535 149.99 145.343 145.488 145.159H137.628C133.341 145.159 130.566 148.645 131.424 152.946L139.584 193.59C140.579 198.003 144.402 201.196 148.908 201.377H247.59V177.916H159.805Z" fill="#99DDCF"/>
<path fill-rule="evenodd" clip-rule="evenodd" d="M201.394 113.161C202.902 117.997 206.785 121.037 213.042 122.28C213.042 122.28 222.976 107.939 221.948 102.437C220.875 96.7356 223.394 87.8872 218.563 88.6566C214.841 89.287 209.765 96.1112 203.336 109.129C202.702 110.413 201.795 112.273 201.394 113.161Z" fill="#5297D1"/>
<path fill-rule="evenodd" clip-rule="evenodd" d="M184.706 98.1041C184.108 96.6913 182.741 95.8385 182.543 95.5956C182.344 95.352 180.942 93.5111 180.89 93.419C180.839 93.3284 179.493 91.0753 179.299 90.9086C179.106 90.7402 178.674 90.3858 177.846 91.1281C177.017 91.8697 177.903 95.9835 177.903 95.9835L180.665 104.492L180.519 108.341L182.925 112.042C182.925 112.042 188.748 109.053 189.193 107.325C189.193 107.325 185.754 102.529 185.165 101.113C185.1 100.956 185.304 99.5152 184.706 98.1041Z" fill="#F2CBA8"/>
<path fill-rule="evenodd" clip-rule="evenodd" d="M181.982 109.428L184.824 104.24C185.029 103.864 185.012 103.4 184.778 103.041L174.622 87.3973C174.369 87.0071 173.826 86.9585 173.513 87.2982L169.34 91.8135C168.969 92.2161 168.931 92.8333 169.249 93.2816L180.787 109.499C181.093 109.929 181.729 109.891 181.982 109.428Z" fill="#BBBDC0"/>
<path fill-rule="evenodd" clip-rule="evenodd" d="M182.748 109.388L185.589 104.2C185.795 103.824 185.778 103.36 185.544 103L175.388 87.3577C175.134 86.9666 174.592 86.918 174.278 87.2585L170.107 91.7737C169.734 92.1755 169.696 92.7927 170.016 93.241L181.553 109.459C181.858 109.888 182.494 109.851 182.748 109.388Z" fill="#EEEEEF"/>
<path fill-rule="evenodd" clip-rule="evenodd" d="M170.86 92.0674L171.741 91.1262L172.209 91.2096C172.333 91.233 172.459 91.1908 172.546 91.0968L174.201 89.3103C174.274 89.2298 174.309 89.1216 174.299 89.0133L174.24 88.4553L174.677 87.988C174.964 87.6811 175.46 87.7244 175.691 88.0766L185.55 102.868C185.764 103.193 185.78 103.611 185.59 103.952L182.99 108.638C182.757 109.056 182.176 109.09 181.897 108.703L170.776 93.394C170.484 92.9885 170.519 92.4312 170.86 92.0674Z" fill="#00883E"/>
<path fill-rule="evenodd" clip-rule="evenodd" d="M177.914 105.604C177.914 105.604 176.858 106.257 176.346 106.204C175.835 106.152 175.42 105.839 175.097 105.149C174.775 104.459 176.157 100.84 176.842 100.792C177.34 100.758 178.026 100.951 177.971 102.316C177.916 103.682 177.628 105.146 177.628 105.146L177.914 105.604Z" fill="#F2CBA8"/>
<path fill-rule="evenodd" clip-rule="evenodd" d="M175.651 103.166C175.651 103.166 173.55 102.908 173.38 102.198C173.212 101.488 174.618 99.2121 174.852 98.7477C175.086 98.2826 176.358 98.7326 176.319 99.907C176.279 101.081 175.656 102.596 175.656 102.596L175.651 103.166Z" fill="#F2CBA8"/>
<path fill-rule="evenodd" clip-rule="evenodd" d="M173.904 100.092C173.904 100.092 173.775 98.3313 173.247 97.5288C172.72 96.7255 171.769 97.4618 171.713 97.674C171.657 97.8845 171.548 100.222 172.071 100.74C172.593 101.258 174.115 101.706 174.115 101.706L173.904 100.092Z" fill="#F2CBA8"/>
<path fill-rule="evenodd" clip-rule="evenodd" d="M247.384 50.2794C247.384 50.2794 251.265 52.6114 252.601 58.3534C253.171 60.8023 253.065 63.3484 252.481 65.794C251.768 68.7835 251.46 71.9707 253.621 74.9373C256.356 78.6937 254.415 82.3604 254.415 82.3604L249.562 83.7574L248.24 80.118L247.975 84.2828L240.211 84.8934L219.156 85.0725L218.593 81.6177L217.184 84.7186L211.361 83.4964C211.361 83.4964 209.226 78.7079 216.787 69.7261L221.661 49.1008L247.384 50.2794Z" fill="#002E28"/>
<path fill-rule="evenodd" clip-rule="evenodd" d="M180.909 108.367C180.909 108.367 178.356 107.421 177.927 106.727C177.497 106.035 178.827 103.968 179.09 103.786C179.353 103.605 180.456 104.133 180.549 104.784C180.644 105.435 180.093 107.214 180.093 107.214L180.909 108.367Z" fill="#F2CBA8"/>
<mask id="mask4_5567_145492" style="mask-type:alpha" maskUnits="userSpaceOnUse" x="210" y="85" width="47" height="59">
<path d="M215.583 143.943L251.537 143.489C250.562 129.762 253.101 118.368 256.438 94.3523C257.032 90.084 243.68 86.0091 240.965 85.963C234.715 85.8476 229.608 85.7937 224.141 86.4631C222.339 86.6863 220.859 87.2699 219.556 87.9147C213.656 90.8352 210.242 105.953 210.424 112.274C210.429 112.465 211.244 121.551 215.583 143.943Z" fill="white"/>
</mask>
<g mask="url(#mask4_5567_145492)">
<path d="M215.583 143.943L251.537 143.489C250.562 129.762 253.101 118.368 256.438 94.3523C257.032 90.084 243.68 86.0091 240.965 85.963C234.715 85.8476 229.608 85.7937 224.141 86.4631C222.339 86.6863 220.859 87.2699 219.556 87.9147C213.656 90.8352 210.242 105.953 210.424 112.274C210.429 112.465 211.244 121.551 215.583 143.943Z" fill="#5297D1"/>
<path fill-rule="evenodd" clip-rule="evenodd" d="M222.019 85.8925C220.369 90.1799 221.276 92.8014 224.738 93.757C229.932 95.1904 236.619 94.4928 243.614 86.5034C248.277 81.1772 247.857 79.3092 242.355 80.8996L222.779 85.0724L222.019 85.8925Z" fill="#C4E4FF"/>
<path d="M216.853 96.8787C212.718 105.473 211.055 114.403 211.867 123.657L211.931 124.335L212.926 124.235C212.012 115.15 213.521 106.389 217.455 97.945L217.754 97.3122L216.853 96.8787Z" fill="#1868AB"/>
</g>
<path fill-rule="evenodd" clip-rule="evenodd" d="M238.734 67.0032C237.829 72.4665 237.07 82.4467 240.965 85.9632C240.965 85.9632 239.64 87.8336 233.079 91.8588C230.352 93.5324 225.025 92.423 223.773 89.4705C222.894 87.3967 224.141 86.4633 224.141 86.4633C227.706 85.9632 225.322 80.4235 224.141 76.2375L238.734 67.0032Z" fill="#E79E5C"/>
<path fill-rule="evenodd" clip-rule="evenodd" d="M245.717 58.3063C243.928 68.0529 243.38 72.2132 237.778 76.6587C229.342 83.3689 217.716 79.024 216.543 68.942C215.489 59.8749 218.594 45.4563 228.726 42.7052C235.957 40.7005 243.452 44.9028 245.468 52.091C246.036 54.1158 246.121 56.2438 245.717 58.3063Z" fill="#F2CBA8"/>
<path fill-rule="evenodd" clip-rule="evenodd" d="M247.026 67.2229C246.148 69.0338 244.655 70.3851 242.877 70.9806C240.511 71.7439 239.299 69.4121 239.928 66.9293C240.497 64.6898 242.415 61.6031 244.796 61.8967C247.177 62.1903 248.087 64.975 247.026 67.2229Z" fill="#F2CBA8"/>
<path fill-rule="evenodd" clip-rule="evenodd" d="M247.667 51.617C247.667 51.617 241.864 38.6118 227.133 42.9633C222.79 44.2457 218.872 46.7985 216.373 50.5412C216.228 50.7607 216.084 50.9855 215.945 51.2168C215.606 51.7773 215.828 52.5088 216.431 52.7724L221.26 54.8842L223.46 52.4346V55.4296L230.2 57.1982L231.84 54.8777L232.262 57.7436L236.801 59.5133L239.138 55.7018L247.667 51.617Z" fill="#002E28"/>
<path fill-rule="evenodd" clip-rule="evenodd" d="M239.763 55.1421L239.138 65.8755C239.351 66.0094 239.444 66.1133 239.565 66.1203C239.641 66.1248 239.714 66.0893 239.758 66.0266C242.615 61.9254 245.251 60.887 247.666 62.9115C250.275 65.0977 250.496 62.977 248.331 56.5493L245.968 50.793H241.524L239.763 55.1421Z" fill="#002E28"/>
<path fill-rule="evenodd" clip-rule="evenodd" d="M177.317 168.705C179.807 197.522 198.725 237.189 198.725 237.189L209.721 233.088C209.721 233.088 198.062 206.425 198.597 177.893H233.991C247.493 177.893 253.48 162.324 240.336 143.687C232.301 143.694 224.065 151.561 224.065 151.561C224.065 151.561 175.811 151.276 177.317 168.705Z" fill="#0B4270"/>
<path fill-rule="evenodd" clip-rule="evenodd" d="M217.492 146.329H218.498C218.696 146.329 218.842 146.213 218.827 146.083L218.229 141.773C218.229 141.65 218.029 141.55 217.83 141.558H216.825C216.626 141.558 216.48 141.673 216.496 141.797L217.094 146.106C217.109 146.236 217.285 146.329 217.492 146.329Z" fill="#283237"/>
<path fill-rule="evenodd" clip-rule="evenodd" d="M232.446 145.875H233.451C233.657 145.875 233.804 145.76 233.788 145.629L233.189 141.32C233.189 141.197 232.99 141.096 232.791 141.104H231.786C231.587 141.104 231.433 141.22 231.456 141.343L232.055 145.652C232.07 145.76 232.254 145.883 232.446 145.875Z" fill="#283237"/>
<path fill-rule="evenodd" clip-rule="evenodd" d="M229.591 143.728C229.591 143.728 169.947 130 167.364 146.398C162.865 174.93 153.319 211.458 153.319 211.458L162.908 218.514C162.908 218.514 177.856 184.534 186.462 157.571C196.797 161.149 226.843 177.916 238.858 177.916C252.333 177.916 257.437 164.896 251.543 143.482C243.528 143.451 229.591 143.728 229.591 143.728Z" fill="#0F5895"/>
<path fill-rule="evenodd" clip-rule="evenodd" d="M177.319 168.705C177.654 172.08 178.167 175.435 178.855 178.755C181.71 171.691 184.504 164.404 186.868 157.571C180.888 160.087 176.851 163.65 177.319 168.705Z" fill="#135388"/>
<path fill-rule="evenodd" clip-rule="evenodd" d="M235.183 193.59L243.335 152.946C244.33 148.533 248.153 145.34 252.659 145.159H260.519C264.806 145.159 267.582 148.645 266.715 152.946L258.555 193.59C257.562 198.001 253.742 201.194 249.239 201.377H241.379C237.093 201.377 234.317 197.892 235.183 193.59Z" fill="#4F7AF5"/>
<path fill-rule="evenodd" clip-rule="evenodd" d="M252.628 145.159L296.171 144.812C297.949 144.798 299.522 145.959 300.034 147.662C301.719 153.272 301.375 158.718 299 164C296.222 170.179 280.205 171.567 250.949 168.163L252.628 145.159Z" fill="#00AC89"/>
<path fill-rule="evenodd" clip-rule="evenodd" d="M235.183 193.59L243.335 152.946C244.33 148.533 248.153 145.34 252.659 145.159H260.519C264.806 145.159 267.582 148.645 266.715 152.946L258.555 193.59C257.562 198.001 253.742 201.194 249.239 201.377H241.379C237.093 201.377 234.317 197.892 235.183 193.59Z" fill="#99DDCF"/>
<path fill-rule="evenodd" clip-rule="evenodd" d="M247.591 100.675C248.051 103.076 248.541 105.654 248.917 108.155C249.293 110.656 248.672 113.341 248.917 115.849C249.162 118.358 249.283 127.683 248.917 129.973C248.13 131.46 247.433 132.362 246.824 132.678C244.657 133.808 242.415 134.788 240.114 135.61C237.744 136.502 235.306 137.303 232.845 138.072C230.384 138.842 227.875 139.573 225.414 140.281L226.181 144.79C231.566 144.384 236.909 143.548 242.161 142.289C244.903 141.636 247.587 140.764 250.19 139.68C251.662 139.064 253.063 138.29 254.369 137.372C255.196 136.782 255.937 136.081 256.57 135.287C256.984 134.778 257.33 134.216 257.598 133.617C257.761 133.272 257.894 132.914 257.996 132.547L258.15 131.955C258.852 129.082 259.228 126.14 259.269 123.183C259.342 120.4 259.268 117.616 259.047 114.841C258.84 112.102 258.518 109.394 258.111 106.708C257.705 104.023 257.245 101.391 256.578 98.6362L247.591 100.675Z" fill="#F2CBA8"/>
<path fill-rule="evenodd" clip-rule="evenodd" d="M257.887 95.9965C260.963 105.51 263.831 117.133 263.065 120.416C258.912 123.509 253.876 123.974 247.955 121.81C247.955 121.81 240.934 101.784 242.468 96.9589C244.04 91.9342 246.609 89.0623 250.857 90.3242C252.174 90.7146 256.195 90.766 257.887 95.9965Z" fill="#5297D1"/>
<path fill-rule="evenodd" clip-rule="evenodd" d="M214.226 140.265L217.83 138.619C218.727 138.203 219.737 138.103 220.697 138.334L229.187 140.373L230.322 143.243C229.102 146.606 223.42 146.159 223.42 146.159L218.896 147.698C218.156 147.952 217.337 147.73 216.826 147.137L213.536 143.289C212.842 142.493 212.923 141.282 213.717 140.586C213.869 140.452 214.041 140.345 214.226 140.265Z" fill="#F2CBA8"/>
<path d="M246.503 92.2571L247.143 93.0254C244.59 95.1516 243.586 97.8368 244.108 101.146L244.294 102.288L244.684 104.535L245.404 108.464L246.062 111.932L247.151 117.541L247.955 121.616L246.974 121.81L245.548 114.546L244.496 109.046L243.873 105.68L243.538 103.797L243.227 101.966L243.12 101.301C242.562 97.7597 243.61 94.7995 246.243 92.4796L246.503 92.2571Z" fill="#1868AB"/>
<path d="M222.023 72.0679C223.633 74.1727 226.036 74.6989 229.23 73.6465" stroke="#E79E5C" stroke-linecap="round"/>
</g>
<path fill-rule="evenodd" clip-rule="evenodd" d="M142.464 56.6744C142.464 79.5017 123.859 98.0077 100.909 98.0077C77.9585 98.0077 59.353 79.5017 59.353 56.6744C59.353 33.8471 77.9585 15.3411 100.909 15.3411C122.845 15.3411 140.81 32.2472 142.357 53.6741C142.428 54.6645 142.464 55.6646 142.464 56.6744Z" fill="#C6E5B4"/>
<path fill-rule="evenodd" clip-rule="evenodd" d="M142.464 51.3411C142.464 74.1685 123.859 92.6745 100.909 92.6745C77.9585 92.6745 59.353 74.1685 59.353 51.3411C59.353 28.5138 77.9585 10.0078 100.909 10.0078C122.845 10.0078 140.81 26.914 142.357 48.3408C142.428 49.3312 142.464 50.3313 142.464 51.3411Z" fill="white"/>
<mask id="mask5_5567_145492" style="mask-type:alpha" maskUnits="userSpaceOnUse" x="128" y="46" width="2" height="10">
<path d="M129.915 46.9922L129.971 54.7802C129.975 55.1294 129.695 55.4169 129.347 55.4188L128.24 55.4273L128.173 46.3706L129.28 46.3621C129.282 46.3621 129.282 46.3621 129.284 46.3621C129.631 46.3621 129.912 46.6439 129.915 46.9922Z" fill="white"/>
</mask>
<g mask="url(#mask5_5567_145492)">
<path d="M129.915 46.9922L129.971 54.7802C129.975 55.1294 129.695 55.4169 129.347 55.4188L128.24 55.4273L128.173 46.3706L129.28 46.3621C129.282 46.3621 129.282 46.3621 129.284 46.3621C129.631 46.3621 129.912 46.6439 129.915 46.9922Z" fill="#00883E"/>
</g>
<mask id="mask6_5567_145492" style="mask-type:alpha" maskUnits="userSpaceOnUse" x="75" y="28" width="54" height="100">
<path d="M75.6613 37.1782L75.0074 118.364C74.9672 123.474 79.0431 127.653 84.1144 127.696L118.906 128H119.063C124.066 127.959 128.13 123.879 128.172 118.819L128.825 37.6432C128.856 32.5369 125.406 28.3653 121.121 28.3293L83.4797 28C83.4609 28 83.4411 28 83.4222 28C79.1627 28 75.6923 32.0966 75.6613 37.1782Z" fill="white"/>
</mask>
<g mask="url(#mask6_5567_145492)">
<path fill-rule="evenodd" clip-rule="evenodd" d="M132.669 78.2629L132.706 23.3762H71.0529C67.3915 56.169 67.041 74.6506 70.0012 78.821C74.4416 85.0767 87.4445 94.1576 101.129 94.1576C114.82 94.1576 124.663 88.0806 132.669 78.2629Z" fill="#40BD63"/>
</g>
<mask id="mask7_5567_145492" style="mask-type:alpha" maskUnits="userSpaceOnUse" x="78" y="31" width="48" height="64">
<path d="M78.4211 86.72C83.4818 90.4992 90.1688 94.1576 101.129 94.2309C112.089 94.3042 119.79 90.4992 124.863 86.1076V58.5178L125.446 38.6339C125.469 35.0915 123.216 32.1982 120.418 32.1735L114.362 32.1204C113.586 32.1128 112.906 31.9941 112.713 32.9469L112.498 34.0059C112.305 34.9587 111.624 35.622 110.849 35.6153L93.6298 35.4625C92.8538 35.4559 92.1813 34.7803 91.9996 33.8256L91.7971 32.7618C91.6342 31.8993 91.071 31.903 90.392 31.9059C90.3195 31.9059 90.2442 31.9059 90.1688 31.9059L84.1143 31.8518C84.102 31.8518 84.0907 31.8518 84.0794 31.8518C81.2947 31.8518 79.0269 34.6949 79.0053 38.224L78.4211 86.72Z" fill="white"/>
</mask>
<g mask="url(#mask7_5567_145492)">
<path fill-rule="evenodd" clip-rule="evenodd" d="M130.035 82.4425L129.328 26.2231H74.4868C71.7519 59.0624 71.4832 77.9823 73.6806 82.9826C76.9768 90.4832 90.7374 94.231 102.082 94.231C114.649 93.6376 125.157 88.6043 130.035 82.4425Z" fill="#F1F8EC"/>
<path d="M121.421 78.8518H82.4211C81.3166 78.8518 80.4211 79.7472 80.4211 80.8518V97.8518C80.4211 98.9564 81.3166 99.8518 82.4211 99.8518H121.421C122.526 99.8518 123.421 98.9564 123.421 97.8518V80.8518C123.421 79.7472 122.526 78.8518 121.421 78.8518Z" fill="#99DCAB"/>
</g>
<mask id="mask8_5567_145492" style="mask-type:alpha" maskUnits="userSpaceOnUse" x="73" y="46" width="3" height="10">
<path d="M73.8124 46.9922L73.7569 54.7802C73.7531 55.1294 74.0328 55.4169 74.3813 55.4188L75.4878 55.4273L75.5547 46.3706L74.4481 46.3621C74.4462 46.3621 74.4453 46.3621 74.4434 46.3621C74.0968 46.3621 73.8162 46.6439 73.8124 46.9922Z" fill="white"/>
</mask>
<g mask="url(#mask8_5567_145492)">
<path d="M73.8124 46.9922L73.7569 54.7802C73.7531 55.1294 74.0328 55.4169 74.3813 55.4188L75.4878 55.4273L75.5547 46.3706L74.4481 46.3621C74.4462 46.3621 74.4453 46.3621 74.4434 46.3621C74.0968 46.3621 73.8162 46.6439 73.8124 46.9922Z" fill="#00883E"/>
</g>
<mask id="mask9_5567_145492" style="mask-type:alpha" maskUnits="userSpaceOnUse" x="73" y="56" width="3" height="10">
<path d="M73.7363 57.5359L73.6807 65.3248C73.6769 65.675 73.9566 65.9616 74.3041 65.9644L75.4116 65.973L75.4776 56.9153L74.3701 56.9067C74.3691 56.9067 74.3672 56.9067 74.3654 56.9067C74.0207 56.9067 73.7391 57.1876 73.7363 57.5359Z" fill="white"/>
</mask>
<g mask="url(#mask9_5567_145492)">
<path d="M73.7363 57.5359L73.6807 65.3248C73.6769 65.675 73.9566 65.9616 74.3041 65.9644L75.4116 65.973L75.4776 56.9153L74.3701 56.9067C74.3691 56.9067 74.3672 56.9067 74.3654 56.9067C74.0207 56.9067 73.7391 57.1876 73.7363 57.5359Z" fill="#00883E"/>
</g>
<mask id="mask10_5567_145492" style="mask-type:alpha" maskUnits="userSpaceOnUse" x="96" y="31" width="10" height="3">
<path d="M96.3111 32.1022L96.3101 32.2626C96.3054 32.7105 96.6661 33.0787 97.1106 33.0815L104.433 33.1366C104.878 33.1394 105.242 32.7769 105.246 32.3281V32.1677C105.251 31.7179 104.891 31.3516 104.445 31.3478L97.1248 31.2937C97.1229 31.2937 97.121 31.2937 97.1201 31.2937C96.6765 31.2937 96.3139 31.6543 96.3111 32.1022Z" fill="white"/>
</mask>
<g mask="url(#mask10_5567_145492)">
<path d="M96.3111 32.1022L96.3101 32.2626C96.3054 32.7105 96.6661 33.0787 97.1106 33.0815L104.433 33.1366C104.878 33.1394 105.242 32.7769 105.246 32.3281V32.1677C105.251 31.7179 104.891 31.3516 104.445 31.3478L97.1248 31.2937C97.1229 31.2937 97.121 31.2937 97.1201 31.2937C96.6765 31.2937 96.3139 31.6543 96.3111 32.1022Z" fill="#00883E"/>
</g>
<mask id="mask11_5567_145492" style="mask-type:alpha" maskUnits="userSpaceOnUse" x="107" y="31" width="3" height="3">
<path d="M107.023 32.1706C107.017 32.8036 107.524 33.3226 108.154 33.3274C108.785 33.3321 109.298 32.8206 109.303 32.1858C109.307 31.5509 108.801 31.0319 108.171 31.0281C108.168 31.0281 108.165 31.0281 108.161 31.0281C107.535 31.0281 107.025 31.5367 107.023 32.1706Z" fill="white"/>
</mask>
<g mask="url(#mask11_5567_145492)">
<path d="M107.023 32.1706C107.017 32.8036 107.524 33.3226 108.154 33.3274C108.785 33.3321 109.298 32.8206 109.303 32.1858C109.307 31.5509 108.801 31.0319 108.171 31.0281C108.168 31.0281 108.165 31.0281 108.161 31.0281C107.535 31.0281 107.025 31.5367 107.023 32.1706Z" fill="#00883E"/>
</g>
<path fill-rule="evenodd" clip-rule="evenodd" d="M124.83 76.3125H79.969C79.1533 76.3125 78.4912 75.7087 78.4912 74.9646V66.877C78.4912 66.1329 79.1533 65.5291 79.969 65.5291H124.83V76.3125Z" fill="#C4E4FF"/>
<path fill-rule="evenodd" clip-rule="evenodd" d="M92.5154 62.2939H130.614C131.379 62.2939 132 62.9041 132 63.6579V72.7918C132 73.5447 131.379 74.1558 130.614 74.1558H72.3864C71.6211 74.1558 71 73.5447 71 72.7918V63.6579C71 62.9041 71.6211 62.2939 72.3864 62.2939H92.7257" fill="#E07E26"/>
<path fill-rule="evenodd" clip-rule="evenodd" d="M102.007 45.0378C104.759 45.0378 106.976 47.2535 106.978 50.0051C106.98 52.7419 104.756 54.9742 102.027 54.9754C99.2648 54.9766 97.0468 52.7583 97.0483 49.9964C97.0499 47.254 99.2658 45.038 102.007 45.0378ZM104.231 48.4185C104.343 48.4817 104.405 48.5152 104.466 48.5522C104.564 48.6123 104.654 48.6394 104.73 48.5165C104.811 48.386 104.73 48.334 104.631 48.2777C103.636 47.7133 102.58 47.4236 101.428 47.5484C100.701 47.6273 100.029 47.8651 99.4074 48.2468C99.3165 48.3027 99.1981 48.353 99.2909 48.5001C99.3851 48.6496 99.4826 48.5771 99.5844 48.5119C99.6408 48.4757 99.7015 48.4463 99.7961 48.3941C99.7583 48.4868 99.7381 48.5392 99.7157 48.5906C99.2954 49.5587 98.8751 50.5268 98.4541 51.4946C98.3098 51.8261 98.3637 52.0055 98.6772 52.1932C98.7708 52.2493 98.8722 52.2972 98.9757 52.3315C99.6159 52.5434 100.262 52.5382 100.91 52.3682C101.061 52.3286 101.202 52.2636 101.334 52.1803C101.619 52.0008 101.671 51.8161 101.536 51.5069C101.084 50.4682 100.636 49.4273 100.178 48.391C100.116 48.249 100.154 48.2083 100.283 48.1585C101.431 47.7149 102.573 47.7417 103.716 48.1808C103.872 48.241 103.883 48.3047 103.82 48.4482C103.38 49.4428 102.949 50.4412 102.515 51.4383C102.337 51.8473 102.408 52.054 102.812 52.2478C103.312 52.4882 103.846 52.5206 104.389 52.4712C104.733 52.4398 105.069 52.3712 105.367 52.182C105.653 52.0009 105.708 51.8158 105.574 51.5098C105.359 51.0175 105.145 50.5247 104.931 50.0319C104.705 49.511 104.479 48.9899 104.231 48.4185Z" fill="#02A750"/>
<path fill-rule="evenodd" clip-rule="evenodd" d="M101.995 58.6533C99.512 58.6199 97.3974 57.7158 95.6938 55.9106C94.3229 54.458 93.5608 52.7151 93.3937 50.7191C93.3785 50.5385 93.3779 50.3567 93.3619 50.1762C93.3533 50.0794 93.3861 50.0551 93.4798 50.0573C93.7322 50.0634 93.985 50.0636 94.2374 50.0568C94.3579 50.0536 94.3339 50.1312 94.3361 50.1989C94.3574 50.8822 94.4552 51.5547 94.6551 52.2082C95.027 53.4249 95.656 54.4917 96.5535 55.3968C97.538 56.3896 98.7034 57.0768 100.057 57.4268C101.502 57.8005 102.942 57.7709 104.366 57.3063C106.107 56.7381 107.479 55.6817 108.47 54.1452C109.344 52.7887 109.742 51.2956 109.674 49.6795C109.593 47.7667 108.887 46.1092 107.579 44.7272C106.28 43.3547 104.673 42.5629 102.783 42.3726C101.218 42.2149 99.7401 42.5089 98.3565 43.2603C98.2499 43.3182 98.185 43.3181 98.1216 43.2078C98.0118 43.017 97.8997 42.827 97.7766 42.6447C97.7021 42.5344 97.7308 42.4835 97.8377 42.424C98.493 42.0596 99.1855 41.7876 99.9116 41.6091C101.255 41.2786 102.607 41.2617 103.956 41.5738C105.635 41.9622 107.079 42.7789 108.265 44.0301C109.738 45.5859 110.541 47.4395 110.646 49.584C110.749 51.6779 110.167 53.5728 108.898 55.2354C107.532 57.0238 105.726 58.1203 103.506 58.5245C103.006 58.6156 102.504 58.6533 101.995 58.6533Z" fill="#BAD333"/>
<path fill-rule="evenodd" clip-rule="evenodd" d="M102.03 43.2859C104.5 43.3695 106.419 44.4309 107.76 46.5211C107.835 46.6371 107.822 46.6935 107.702 46.7593C107.532 46.8525 107.366 46.956 107.211 47.0728C107.072 47.1783 106.999 47.1706 106.903 47.0107C106.431 46.2247 105.795 45.5976 105.017 45.1118C102.882 43.7772 100.021 44.0392 98.1642 45.75C96.8365 46.9736 96.2077 48.4963 96.2787 50.2988C96.3851 53.0051 98.5088 55.3507 101.199 55.6792C103.645 55.9778 105.549 55.0494 106.906 52.9965C106.97 52.8993 107.01 52.8743 107.112 52.9476C107.296 53.0799 107.487 53.2036 107.682 53.318C107.799 53.3861 107.788 53.447 107.724 53.5466C106.652 55.2052 105.158 56.2574 103.212 56.6094C100.2 57.1541 97.2986 55.6599 95.9474 52.9059C94.389 49.7296 95.6966 45.7348 98.8333 44.0842C99.8329 43.5583 100.893 43.2814 102.03 43.2859Z" fill="#74BC46"/>
<path fill-rule="evenodd" clip-rule="evenodd" d="M104.231 48.4186C104.479 48.99 104.704 49.511 104.931 50.0319C105.145 50.5247 105.359 51.0175 105.574 51.5099C105.708 51.8158 105.653 52.001 105.367 52.1821C105.069 52.3712 104.733 52.4399 104.389 52.4712C103.846 52.5207 103.312 52.4882 102.812 52.2479C102.408 52.054 102.337 51.8474 102.515 51.4384C102.949 50.4412 103.38 49.4429 103.819 48.4482C103.883 48.3047 103.872 48.241 103.716 48.1808C102.573 47.7417 101.431 47.7149 100.283 48.1586C100.154 48.2083 100.116 48.249 100.178 48.3911C100.636 49.4274 101.084 50.4683 101.536 51.507C101.671 51.8161 101.618 52.0008 101.334 52.1803C101.202 52.2636 101.06 52.3287 100.909 52.3683C100.262 52.5382 99.6157 52.5434 98.9756 52.3315C98.872 52.2972 98.7707 52.2494 98.6771 52.1933C98.3636 52.0055 98.3097 51.8262 98.454 51.4946C98.875 50.5268 99.2953 49.5588 99.7156 48.5907C99.738 48.5393 99.7582 48.4868 99.796 48.3942C99.7014 48.4464 99.6407 48.4758 99.5843 48.5119C99.4824 48.5772 99.385 48.6496 99.2908 48.5001C99.198 48.3531 99.3164 48.3028 99.4073 48.2469C100.029 47.8651 100.701 47.6273 101.428 47.5485C102.58 47.4236 103.636 47.7134 104.631 48.2777C104.73 48.334 104.811 48.386 104.73 48.5166C104.654 48.6395 104.564 48.6124 104.466 48.5522C104.405 48.5153 104.342 48.4818 104.231 48.4186ZM100.007 48.7121C99.9812 48.737 99.9679 48.744 99.9632 48.7549C99.5887 49.614 99.2162 50.474 98.8394 51.3321C98.7829 51.4608 98.8524 51.4547 98.9415 51.4545C99.5756 51.453 100.21 51.4536 100.844 51.4535C100.952 51.4535 101.06 51.4535 101.197 51.4535C100.794 50.5243 100.402 49.622 100.007 48.7121ZM104.044 48.7155C104.018 48.7398 103.998 48.7496 103.991 48.7651C103.621 49.6187 103.252 50.4733 102.88 51.3262C102.829 51.4429 102.877 51.4552 102.977 51.4549C103.676 51.4525 104.375 51.4508 105.074 51.4559C105.225 51.457 105.212 51.4029 105.164 51.2959C105.036 51.0132 104.918 50.7263 104.795 50.4418C104.546 49.8691 104.297 49.2968 104.044 48.7155Z" fill="#F3FAF6"/>
<path fill-rule="evenodd" clip-rule="evenodd" d="M100.007 48.7122C100.402 49.622 100.794 50.5243 101.198 51.4536C101.06 51.4536 100.952 51.4536 100.844 51.4536C100.21 51.4536 99.5758 51.453 98.9416 51.4545C98.8525 51.4548 98.783 51.4608 98.8395 51.3321C99.2163 50.4739 99.5888 49.614 99.9633 48.7549C99.968 48.7441 99.9813 48.737 100.007 48.7122Z" fill="#04A650"/>
<path fill-rule="evenodd" clip-rule="evenodd" d="M104.044 48.7156C104.297 49.2968 104.546 49.8691 104.795 50.4418C104.918 50.7264 105.037 51.0133 105.164 51.296C105.212 51.403 105.226 51.4571 105.074 51.4559C104.375 51.4508 103.676 51.4525 102.977 51.455C102.877 51.4553 102.829 51.443 102.88 51.3263C103.252 50.4733 103.621 49.6188 103.992 48.7651C103.998 48.7497 104.018 48.7398 104.044 48.7156Z" fill="#04A650"/>
<path d="M74.426 70V65.77H76.364C76.816 65.77 77.164 65.868 77.408 66.064C77.656 66.26 77.78 66.528 77.78 66.868C77.78 67.092 77.724 67.286 77.612 67.45C77.5 67.61 77.344 67.73 77.144 67.81C77.384 67.878 77.568 67.998 77.696 68.17C77.828 68.342 77.894 68.554 77.894 68.806C77.894 69.182 77.762 69.476 77.498 69.688C77.238 69.896 76.882 70 76.43 70H74.426ZM75.314 67.51H76.202C76.658 67.51 76.886 67.334 76.886 66.982C76.886 66.634 76.658 66.46 76.202 66.46H75.314V67.51ZM75.314 69.31H76.304C76.544 69.31 76.72 69.264 76.832 69.172C76.944 69.08 77 68.94 77 68.752C77 68.568 76.944 68.43 76.832 68.338C76.72 68.246 76.544 68.2 76.304 68.2H75.314V69.31ZM79.5159 70.066C79.2959 70.066 79.1019 70.024 78.9339 69.94C78.7659 69.856 78.6319 69.742 78.5319 69.598C78.4359 69.454 78.3879 69.292 78.3879 69.112C78.3879 68.9 78.4439 68.73 78.5559 68.602C78.6679 68.474 78.8499 68.384 79.1019 68.332C79.3539 68.276 79.6879 68.248 80.1039 68.248H80.3199V68.146C80.3199 67.97 80.2799 67.846 80.1999 67.774C80.1199 67.698 79.9839 67.66 79.7919 67.66C79.6319 67.66 79.4619 67.686 79.2819 67.738C79.1059 67.786 78.9299 67.86 78.7539 67.96L78.5079 67.354C78.6119 67.286 78.7379 67.224 78.8859 67.168C79.0379 67.112 79.1959 67.07 79.3599 67.042C79.5239 67.01 79.6799 66.994 79.8279 66.994C80.2839 66.994 80.6239 67.098 80.8479 67.306C81.0719 67.51 81.1839 67.828 81.1839 68.26V70H80.3379V69.556C80.2779 69.712 80.1759 69.836 80.0319 69.928C79.8919 70.02 79.7199 70.066 79.5159 70.066ZM79.7199 69.46C79.8879 69.46 80.0299 69.402 80.1459 69.286C80.2619 69.17 80.3199 69.02 80.3199 68.836V68.716H80.1099C79.8019 68.716 79.5839 68.744 79.4559 68.8C79.3279 68.852 79.2639 68.944 79.2639 69.076C79.2639 69.188 79.3019 69.28 79.3779 69.352C79.4579 69.424 79.5719 69.46 79.7199 69.46ZM83.3057 70.066C82.4777 70.066 82.0637 69.664 82.0637 68.86V67.732H81.5057V67.054H82.0637V66.19H82.9697V67.054H83.8397V67.732H82.9697V68.824C82.9697 68.992 83.0077 69.118 83.0837 69.202C83.1637 69.286 83.2897 69.328 83.4617 69.328C83.5137 69.328 83.5677 69.322 83.6237 69.31C83.6837 69.298 83.7477 69.282 83.8157 69.262L83.9477 69.922C83.8637 69.966 83.7637 70 83.6477 70.024C83.5317 70.052 83.4177 70.066 83.3057 70.066ZM85.2815 70.066C85.0615 70.066 84.8675 70.024 84.6995 69.94C84.5315 69.856 84.3975 69.742 84.2975 69.598C84.2015 69.454 84.1535 69.292 84.1535 69.112C84.1535 68.9 84.2095 68.73 84.3215 68.602C84.4335 68.474 84.6155 68.384 84.8675 68.332C85.1195 68.276 85.4535 68.248 85.8695 68.248H86.0855V68.146C86.0855 67.97 86.0455 67.846 85.9655 67.774C85.8855 67.698 85.7495 67.66 85.5575 67.66C85.3975 67.66 85.2275 67.686 85.0475 67.738C84.8715 67.786 84.6955 67.86 84.5195 67.96L84.2735 67.354C84.3775 67.286 84.5035 67.224 84.6515 67.168C84.8035 67.112 84.9615 67.07 85.1255 67.042C85.2895 67.01 85.4455 66.994 85.5935 66.994C86.0495 66.994 86.3895 67.098 86.6135 67.306C86.8375 67.51 86.9495 67.828 86.9495 68.26V70H86.1035V69.556C86.0435 69.712 85.9415 69.836 85.7975 69.928C85.6575 70.02 85.4855 70.066 85.2815 70.066ZM85.4855 69.46C85.6535 69.46 85.7955 69.402 85.9115 69.286C86.0275 69.17 86.0855 69.02 86.0855 68.836V68.716H85.8755C85.5675 68.716 85.3495 68.744 85.2215 68.8C85.0935 68.852 85.0295 68.944 85.0295 69.076C85.0295 69.188 85.0675 69.28 85.1435 69.352C85.2235 69.424 85.3375 69.46 85.4855 69.46ZM88.7233 70.066C88.3433 70.066 88.0653 69.968 87.8893 69.772C87.7133 69.572 87.6253 69.276 87.6253 68.884V65.77H88.5313V68.848C88.5313 69.168 88.6733 69.328 88.9573 69.328C89.0013 69.328 89.0433 69.326 89.0833 69.322C89.1273 69.318 89.1693 69.31 89.2093 69.298L89.1973 70C89.0453 70.044 88.8873 70.066 88.7233 70.066ZM89.6234 70V65.77H90.5294V68.272H90.5414L91.6274 67.054H92.7014L91.4534 68.464L92.7614 70H91.6694L90.5414 68.728H90.5294V70H89.6234ZM93.9358 70.066C93.7158 70.066 93.5218 70.024 93.3538 69.94C93.1858 69.856 93.0518 69.742 92.9518 69.598C92.8558 69.454 92.8078 69.292 92.8078 69.112C92.8078 68.9 92.8638 68.73 92.9758 68.602C93.0878 68.474 93.2698 68.384 93.5218 68.332C93.7738 68.276 94.1078 68.248 94.5238 68.248H94.7398V68.146C94.7398 67.97 94.6998 67.846 94.6198 67.774C94.5398 67.698 94.4038 67.66 94.2118 67.66C94.0518 67.66 93.8818 67.686 93.7018 67.738C93.5258 67.786 93.3498 67.86 93.1738 67.96L92.9278 67.354C93.0318 67.286 93.1578 67.224 93.3058 67.168C93.4578 67.112 93.6158 67.07 93.7798 67.042C93.9438 67.01 94.0998 66.994 94.2478 66.994C94.7038 66.994 95.0438 67.098 95.2678 67.306C95.4918 67.51 95.6038 67.828 95.6038 68.26V70H94.7578V69.556C94.6978 69.712 94.5958 69.836 94.4518 69.928C94.3118 70.02 94.1398 70.066 93.9358 70.066ZM94.1398 69.46C94.3078 69.46 94.4498 69.402 94.5658 69.286C94.6818 69.17 94.7398 69.02 94.7398 68.836V68.716H94.5298C94.2218 68.716 94.0038 68.744 93.8758 68.8C93.7478 68.852 93.6838 68.944 93.6838 69.076C93.6838 69.188 93.7218 69.28 93.7978 69.352C93.8778 69.424 93.9918 69.46 94.1398 69.46ZM96.2796 70V67.054H97.1676V67.486C97.2676 67.326 97.4016 67.204 97.5696 67.12C97.7376 67.036 97.9256 66.994 98.1336 66.994C98.4816 66.994 98.7416 67.096 98.9136 67.3C99.0856 67.5 99.1716 67.81 99.1716 68.23V70H98.2656V68.272C98.2656 68.068 98.2276 67.922 98.1516 67.834C98.0756 67.742 97.9636 67.696 97.8156 67.696C97.6236 67.696 97.4696 67.756 97.3536 67.876C97.2416 67.996 97.1856 68.156 97.1856 68.356V70H96.2796ZM102.604 70V66.538H101.206V65.77H104.932V66.538H103.534V70H102.604ZM104.834 70V67.054H105.722V67.564C105.862 67.22 106.162 67.03 106.622 66.994L106.886 66.976L106.94 67.738L106.43 67.792C105.982 67.836 105.758 68.064 105.758 68.476V70H104.834ZM108.274 70.066C108.054 70.066 107.86 70.024 107.692 69.94C107.524 69.856 107.39 69.742 107.29 69.598C107.194 69.454 107.146 69.292 107.146 69.112C107.146 68.9 107.202 68.73 107.314 68.602C107.426 68.474 107.608 68.384 107.86 68.332C108.112 68.276 108.446 68.248 108.862 68.248H109.078V68.146C109.078 67.97 109.038 67.846 108.958 67.774C108.878 67.698 108.742 67.66 108.55 67.66C108.39 67.66 108.22 67.686 108.04 67.738C107.864 67.786 107.688 67.86 107.512 67.96L107.266 67.354C107.37 67.286 107.496 67.224 107.644 67.168C107.796 67.112 107.954 67.07 108.118 67.042C108.282 67.01 108.438 66.994 108.586 66.994C109.042 66.994 109.382 67.098 109.606 67.306C109.83 67.51 109.942 67.828 109.942 68.26V70H109.096V69.556C109.036 69.712 108.934 69.836 108.79 69.928C108.65 70.02 108.478 70.066 108.274 70.066ZM108.478 69.46C108.646 69.46 108.788 69.402 108.904 69.286C109.02 69.17 109.078 69.02 109.078 68.836V68.716H108.868C108.56 68.716 108.342 68.744 108.214 68.8C108.086 68.852 108.022 68.944 108.022 69.076C108.022 69.188 108.06 69.28 108.136 69.352C108.216 69.424 108.33 69.46 108.478 69.46ZM110.618 70V67.054H111.506V67.486C111.606 67.326 111.74 67.204 111.908 67.12C112.076 67.036 112.264 66.994 112.472 66.994C112.82 66.994 113.08 67.096 113.252 67.3C113.424 67.5 113.51 67.81 113.51 68.23V70H112.604V68.272C112.604 68.068 112.566 67.922 112.49 67.834C112.414 67.742 112.302 67.696 112.154 67.696C111.962 67.696 111.808 67.756 111.692 67.876C111.58 67.996 111.524 68.156 111.524 68.356V70H110.618ZM115.314 70.066C115.054 70.066 114.812 70.036 114.588 69.976C114.364 69.916 114.178 69.834 114.03 69.73L114.246 69.142C114.394 69.234 114.562 69.308 114.75 69.364C114.942 69.416 115.132 69.442 115.32 69.442C115.488 69.442 115.612 69.416 115.692 69.364C115.772 69.308 115.812 69.236 115.812 69.148C115.812 69.008 115.71 68.92 115.506 68.884L114.876 68.77C114.624 68.726 114.432 68.636 114.3 68.5C114.168 68.364 114.102 68.186 114.102 67.966C114.102 67.766 114.158 67.594 114.27 67.45C114.382 67.306 114.536 67.194 114.732 67.114C114.928 67.034 115.154 66.994 115.41 66.994C115.622 66.994 115.828 67.022 116.028 67.078C116.228 67.13 116.4 67.214 116.544 67.33L116.316 67.912C116.196 67.824 116.052 67.752 115.884 67.696C115.72 67.64 115.566 67.612 115.422 67.612C115.242 67.612 115.112 67.642 115.032 67.702C114.952 67.758 114.912 67.83 114.912 67.918C114.912 68.058 115.006 68.146 115.194 68.182L115.824 68.296C116.084 68.34 116.282 68.428 116.418 68.56C116.554 68.688 116.622 68.864 116.622 69.088C116.622 69.396 116.502 69.636 116.262 69.808C116.022 69.98 115.706 70.066 115.314 70.066ZM118.135 70.066C117.915 70.066 117.721 70.024 117.553 69.94C117.385 69.856 117.251 69.742 117.151 69.598C117.055 69.454 117.007 69.292 117.007 69.112C117.007 68.9 117.063 68.73 117.175 68.602C117.287 68.474 117.469 68.384 117.721 68.332C117.973 68.276 118.307 68.248 118.723 68.248H118.939V68.146C118.939 67.97 118.899 67.846 118.819 67.774C118.739 67.698 118.603 67.66 118.411 67.66C118.251 67.66 118.081 67.686 117.901 67.738C117.725 67.786 117.549 67.86 117.373 67.96L117.127 67.354C117.231 67.286 117.357 67.224 117.505 67.168C117.657 67.112 117.815 67.07 117.979 67.042C118.143 67.01 118.299 66.994 118.447 66.994C118.903 66.994 119.243 67.098 119.467 67.306C119.691 67.51 119.803 67.828 119.803 68.26V70H118.957V69.556C118.897 69.712 118.795 69.836 118.651 69.928C118.511 70.02 118.339 70.066 118.135 70.066ZM118.339 69.46C118.507 69.46 118.649 69.402 118.765 69.286C118.881 69.17 118.939 69.02 118.939 68.836V68.716H118.729C118.421 68.716 118.203 68.744 118.075 68.8C117.947 68.852 117.883 68.944 117.883 69.076C117.883 69.188 117.921 69.28 117.997 69.352C118.077 69.424 118.191 69.46 118.339 69.46ZM120.479 70V65.77H121.385V68.272H121.397L122.483 67.054H123.557L122.309 68.464L123.617 70H122.525L121.397 68.728H121.385V70H120.479ZM124.912 70.066C124.652 70.066 124.41 70.036 124.186 69.976C123.962 69.916 123.776 69.834 123.628 69.73L123.844 69.142C123.992 69.234 124.16 69.308 124.348 69.364C124.54 69.416 124.73 69.442 124.918 69.442C125.086 69.442 125.21 69.416 125.29 69.364C125.37 69.308 125.41 69.236 125.41 69.148C125.41 69.008 125.308 68.92 125.104 68.884L124.474 68.77C124.222 68.726 124.03 68.636 123.898 68.5C123.766 68.364 123.7 68.186 123.7 67.966C123.7 67.766 123.756 67.594 123.868 67.45C123.98 67.306 124.134 67.194 124.33 67.114C124.526 67.034 124.752 66.994 125.008 66.994C125.22 66.994 125.426 67.022 125.626 67.078C125.826 67.13 125.998 67.214 126.142 67.33L125.914 67.912C125.794 67.824 125.65 67.752 125.482 67.696C125.318 67.64 125.164 67.612 125.02 67.612C124.84 67.612 124.71 67.642 124.63 67.702C124.55 67.758 124.51 67.83 124.51 67.918C124.51 68.058 124.604 68.146 124.792 68.182L125.422 68.296C125.682 68.34 125.88 68.428 126.016 68.56C126.152 68.688 126.22 68.864 126.22 69.088C126.22 69.396 126.1 69.636 125.86 69.808C125.62 69.98 125.304 70.066 124.912 70.066ZM126.701 66.484V65.638H127.679V66.484H126.701ZM126.737 70V67.054H127.643V70H126.737Z" fill="white"/>
<path fill-rule="evenodd" clip-rule="evenodd" d="M172.238 81.8876L168.275 78.7123H151.165C149.95 78.7123 148.965 77.727 148.965 76.5121V58.5752C148.965 57.3604 149.95 56.375 151.165 56.375H173.614C174.829 56.375 175.814 57.3604 175.814 58.5752V80.1698C175.814 82.0156 173.677 83.0422 172.238 81.8876Z" fill="white"/>
<mask id="mask12_5567_145492" style="mask-type:alpha" maskUnits="userSpaceOnUse" x="156" y="61" width="14" height="14">
<path d="M167.412 61.2787C167.887 60.8865 168.591 60.9126 169.035 61.3571C169.508 61.8294 169.508 62.5951 169.035 63.0673L164.6 67.5029L169.035 71.9385C169.508 72.4108 169.508 73.1765 169.035 73.6487C168.591 74.0932 167.887 74.1194 167.412 73.7272L167.325 73.6487L162.89 69.2129L158.454 73.6487L158.368 73.7272C157.893 74.1194 157.188 74.0932 156.744 73.6487C156.272 73.1765 156.272 72.4108 156.744 71.9385L161.18 67.5029L156.744 63.0673C156.272 62.5951 156.272 61.8294 156.744 61.3571C157.188 60.9126 157.893 60.8865 158.368 61.2787L158.454 61.3571L162.89 65.7929L167.325 61.3571L167.412 61.2787Z" fill="white"/>
</mask>
<g mask="url(#mask12_5567_145492)">
<path d="M167.412 61.2787C167.887 60.8865 168.591 60.9126 169.035 61.3571C169.508 61.8294 169.508 62.5951 169.035 63.0673L164.6 67.5029L169.035 71.9385C169.508 72.4108 169.508 73.1765 169.035 73.6487C168.591 74.0932 167.887 74.1194 167.412 73.7272L167.325 73.6487L162.89 69.2129L158.454 73.6487L158.368 73.7272C157.893 74.1194 157.188 74.0932 156.744 73.6487C156.272 73.1765 156.272 72.4108 156.744 71.9385L161.18 67.5029L156.744 63.0673C156.272 62.5951 156.272 61.8294 156.744 61.3571C157.188 60.9126 157.893 60.8865 158.368 61.2787L158.454 61.3571L162.89 65.7929L167.325 61.3571L167.412 61.2787Z" fill="#70717D"/>
<path d="M174.39 55.0029H150.39V79.0029H174.39V55.0029Z" fill="#D44C50"/>
</g>
</svg>
