<svg width="328" height="164" viewBox="0 0 328 164" fill="none" xmlns="http://www.w3.org/2000/svg">
<path fill-rule="evenodd" clip-rule="evenodd" d="M304.781 161.504C294.319 163.667 62.9471 165.826 26.1241 161.504C15.2231 160.224 6.49713 148.276 5.22412 146.203C-2.73587 133.238 0.249146 53.2794 2.23914 26.266C3.31015 11.7278 18.1621 5.19571 25.1291 3.03482C38.4521 -1.09779 274.72 -1.26366 305.777 4.11573C319.672 6.52168 324.709 17.8712 325.709 24.1796C328.042 38.8847 329.421 129.331 325.681 141.514C322.695 151.239 315.231 159.343 304.781 161.504Z" fill="#E6F6ED"/>
<mask id="mask0_5567_157231" style="mask-type:alpha" maskUnits="userSpaceOnUse" x="0" y="0" width="328" height="164">
<path fill-rule="evenodd" clip-rule="evenodd" d="M304.781 161.504C294.319 163.667 62.9471 165.826 26.1241 161.504C15.2231 160.224 6.49713 148.276 5.22412 146.203C-2.73587 133.238 0.249146 53.2794 2.23914 26.266C3.31015 11.7278 18.1621 5.19571 25.1291 3.03482C38.4521 -1.09779 274.72 -1.26366 305.777 4.11573C319.672 6.52168 324.709 17.8712 325.709 24.1796C328.042 38.8847 329.421 129.331 325.681 141.514C322.695 151.239 315.231 159.343 304.781 161.504Z" fill="white"/>
</mask>
<g mask="url(#mask0_5567_157231)">
<ellipse rx="241.5" ry="51.5" transform="matrix(-1 0 0 1 241.5 164.5)" fill="#BBF0D3"/>
<mask id="mask1_5567_157231" style="mask-type:alpha" maskUnits="userSpaceOnUse" x="0" y="113" width="483" height="103">
<ellipse rx="241.5" ry="51.5" transform="matrix(-1 0 0 1 241.5 164.5)" fill="white"/>
</mask>
<g mask="url(#mask1_5567_157231)">
</g>
<path fill-rule="evenodd" clip-rule="evenodd" d="M196.105 174.431C196.105 174.431 115.861 106.985 12.8192 128.125C12.8192 128.125 -38.2456 137.185 -77 170.907L196.105 174.431Z" fill="#84D7CC"/>
<mask id="mask2_5567_157231" style="mask-type:alpha" maskUnits="userSpaceOnUse" x="-77" y="124" width="274" height="51">
<path fill-rule="evenodd" clip-rule="evenodd" d="M196.105 174.431C196.105 174.431 115.861 106.985 12.8192 128.125C12.8192 128.125 -38.2456 137.185 -77 170.907L196.105 174.431Z" fill="white"/>
</mask>
<g mask="url(#mask2_5567_157231)">
</g>
<path d="M279.552 116H199.111L199.005 49.8543C199.002 48.2787 200.279 47 201.854 47L277.132 47C278.713 47 279.992 48.2872 279.981 49.8682L279.552 116Z" fill="#00AB4E"/>
<mask id="mask3_5567_157231" style="mask-type:alpha" maskUnits="userSpaceOnUse" x="199" y="47" width="81" height="69">
<path d="M279.552 116H199.111L199.005 49.8543C199.002 48.2787 200.279 47 201.854 47L277.132 47C278.713 47 279.992 48.2872 279.981 49.8682L279.552 116Z" fill="white"/>
</mask>
<g mask="url(#mask3_5567_157231)">
<path d="M196.504 72.8199C196.504 72.8199 225.363 74.7729 239.793 74.7729C254.222 74.7729 282.286 72.8199 282.286 72.8199V61.8141H196.504V72.8199Z" fill="#00883E"/>
</g>
<path fill-rule="evenodd" clip-rule="evenodd" d="M253.421 82.3374C253.421 81.2328 254.316 80.3374 255.421 80.3374H272.287C273.391 80.3374 274.287 81.2328 274.287 82.3374V115.394H253.421V82.3374Z" fill="#E6F6ED"/>
<mask id="mask4_5567_157231" style="mask-type:alpha" maskUnits="userSpaceOnUse" x="253" y="80" width="22" height="36">
<path fill-rule="evenodd" clip-rule="evenodd" d="M253.421 82.3374C253.421 81.2328 254.316 80.3374 255.421 80.3374H272.287C273.391 80.3374 274.287 81.2328 274.287 82.3374V115.394H253.421V82.3374Z" fill="white"/>
</mask>
<g mask="url(#mask4_5567_157231)">
<rect x="256.054" y="75.7207" width="3.52971" height="43.3651" transform="rotate(-35 256.054 75.7207)" fill="#FEFEFE"/>
<rect x="246.79" y="80.3408" width="8.06792" height="47.399" transform="rotate(-35 246.79 80.3408)" fill="#FEFEFE"/>
</g>
<path d="M231.766 72.0423C229.535 72.0423 227.727 70.3752 227.727 68.319V64.981H235.805V68.319C235.805 70.3752 233.996 72.0423 231.766 72.0423Z" fill="#002E28"/>
<path d="M247.921 72.0423C245.69 72.0423 243.882 70.3752 243.882 68.319V64.981H251.959V68.319C251.959 70.3752 250.151 72.0423 247.921 72.0423Z" fill="#002E28"/>
<path d="M215.611 72.0423C213.38 72.0423 211.572 70.3752 211.572 68.319V64.981H219.649V68.319C219.649 70.3752 217.841 72.0423 215.611 72.0423Z" fill="#002E28"/>
<path d="M199.456 72.0423C197.225 72.0423 195.417 70.3752 195.417 68.319C195.417 68.319 195.417 67.3394 195.417 66.8385C195.417 66.2268 195.417 64.981 195.417 64.981H203.495V68.319C203.495 70.3752 201.686 72.0423 199.456 72.0423Z" fill="#002E28"/>
<path d="M264.076 72.0423C261.845 72.0423 260.037 70.3752 260.037 68.319V64.981H268.115V68.319C268.115 70.3752 266.307 72.0423 264.076 72.0423Z" fill="#002E28"/>
<path d="M223.688 72.0423C221.458 72.0423 219.649 70.3752 219.649 68.319V64.981H227.727V68.319C227.727 70.3752 225.919 72.0423 223.688 72.0423Z" fill="#C7CFE2"/>
<path d="M255.998 72.0423C253.768 72.0423 251.959 70.3752 251.959 68.319V64.981H260.037V68.319C260.037 70.3752 258.229 72.0423 255.998 72.0423Z" fill="#C7CFE2"/>
<path d="M280.231 72.0423C278 72.0423 276.192 70.3752 276.192 68.319V64.981H284.269V68.319C284.269 70.3752 282.461 72.0423 280.231 72.0423Z" fill="#002E28"/>
<path d="M272.153 72.0423C269.923 72.0423 268.114 70.3752 268.114 68.319V64.981H276.192V68.319C276.192 70.3752 274.383 72.0423 272.153 72.0423Z" fill="#C7CFE2"/>
<path d="M207.533 72.0423C205.303 72.0423 203.495 70.3752 203.495 68.319V64.981H211.572V68.319C211.572 70.3752 209.764 72.0423 207.533 72.0423Z" fill="#C7CFE2"/>
<path d="M239.843 72.0423C237.613 72.0423 235.805 70.3752 235.805 68.319V64.981H243.882V68.319C243.882 70.3752 242.074 72.0423 239.843 72.0423Z" fill="#C7CFE2"/>
<path d="M235.804 64.9807H227.727L228.563 53.6826H236.083L235.804 64.9807Z" fill="#004D43"/>
<path d="M251.96 64.9807H243.882L243.604 53.6826H251.124L251.96 64.9807Z" fill="#004D43"/>
<path d="M219.649 64.9807H211.572L213.521 53.6826H221.042L219.649 64.9807Z" fill="#004D43"/>
<path d="M203.495 64.9807H195.417L198.481 53.6826H206.001L203.495 64.9807Z" fill="#004D43"/>
<path d="M268.115 64.9807H260.037L258.645 53.6826H266.165L268.115 64.9807Z" fill="#004D43"/>
<path d="M227.727 64.9807H219.649L221.042 53.6826H228.563L227.727 64.9807Z" fill="#EFF2FA"/>
<path d="M260.037 64.9807H251.96L251.124 53.6826H258.645L260.037 64.9807Z" fill="#EFF2FA"/>
<path d="M284.269 64.9807H276.192L273.685 53.6826H281.206L284.269 64.9807Z" fill="#004D43"/>
<path d="M276.192 64.9807H268.114L266.165 53.6826H273.685L276.192 64.9807Z" fill="#EFF2FA"/>
<path d="M211.572 64.9807H203.495L206.001 53.6826H213.522L211.572 64.9807Z" fill="#EFF2FA"/>
<path d="M243.882 64.9807H235.805L236.083 53.6826H243.604L243.882 64.9807Z" fill="#EFF2FA"/>
<path d="M264.275 50.6194H215.612C215.179 50.6194 214.827 50.1058 214.827 49.4722V38.0003C214.827 37.3666 215.179 36.853 215.612 36.853H264.275C264.708 36.853 265.06 37.3666 265.06 38.0003V49.4724C265.06 50.1058 264.708 50.6194 264.275 50.6194Z" fill="white"/>
<rect x="205.228" y="80.4009" width="41.7846" height="27.5144" rx="2" fill="#E6F6ED"/>
<mask id="mask5_5567_157231" style="mask-type:alpha" maskUnits="userSpaceOnUse" x="205" y="80" width="43" height="28">
<rect x="205.228" y="80.4009" width="41.7846" height="27.5144" rx="2" fill="white"/>
</mask>
<g mask="url(#mask5_5567_157231)">
<rect x="224.175" y="75.0093" width="3.52971" height="43.3651" transform="rotate(-35 224.175 75.0093)" fill="#FEFEFE"/>
<rect x="214.911" y="79.6294" width="8.06792" height="43.3651" transform="rotate(-35 214.911 79.6294)" fill="#FEFEFE"/>
</g>
<path d="M193.794 103.329C193.795 102.118 193.141 100.986 192.051 100.31C193.242 98.9374 193 96.935 191.512 95.8371C190.899 95.3851 190.137 95.1392 189.352 95.1399C189.303 95.1399 189.254 95.1449 189.204 95.1467C189.757 93.4631 188.724 91.6854 186.898 91.1759C185.072 90.6665 183.144 91.6183 182.591 93.3019C182.394 93.9033 182.394 94.5451 182.591 95.1466C182.542 95.1466 182.492 95.1398 182.443 95.1398C180.537 95.1381 178.99 96.5615 178.988 98.3189C178.987 99.0425 179.254 99.7447 179.744 100.31C177.935 101.432 177.456 103.694 178.673 105.362C178.958 105.751 179.321 106.087 179.744 106.349C178.553 107.721 178.795 109.724 180.283 110.822C180.896 111.274 181.658 111.52 182.443 111.519H189.352C191.259 111.521 192.806 110.097 192.807 108.34C192.808 107.616 192.541 106.914 192.051 106.349C193.141 105.673 193.795 104.541 193.794 103.329Z" fill="#72BF44"/>
<path d="M189.706 101.191C189.516 101.011 189.203 101.007 189.008 101.182L186.391 103.515V96.9599C186.391 96.7086 186.17 96.5049 185.898 96.5049C185.625 96.5049 185.404 96.7086 185.404 96.9599V100.184L183.162 98.1169C182.966 97.9423 182.654 97.9473 182.464 98.1281C182.28 98.3044 182.28 98.5839 182.464 98.7602L185.404 101.47V107.691L183.285 105.738C183.089 105.563 182.777 105.568 182.588 105.749C182.403 105.925 182.403 106.205 182.588 106.381L185.404 108.978V117.434C185.404 117.685 185.625 117.889 185.898 117.889C186.17 117.889 186.391 117.685 186.391 117.434V104.781L189.698 101.836C189.893 101.661 189.897 101.373 189.707 101.192C189.707 101.192 189.706 101.192 189.706 101.191Z" fill="#5B9836"/>
<path fill-rule="evenodd" clip-rule="evenodd" d="M243.942 47.5021C244.605 48.0832 245.383 48.433 246.242 48.587C248.873 49.0593 251.364 47.5004 252.09 44.9418C252.162 44.6877 252.214 44.4297 252.242 44.1669C252.281 44.0886 252.226 43.9968 252.277 43.9199C252.277 43.6895 252.277 43.4591 252.277 43.2287C252.234 43.163 252.266 43.09 252.256 43.0207C252.239 42.0818 251.863 41.2714 251.33 40.5292C250.584 39.4902 249.561 38.8542 248.327 38.5479C248.129 38.4988 247.926 38.4923 247.723 38.4925C247.642 38.482 247.557 38.5157 247.479 38.4717C247.262 38.4717 247.045 38.4717 246.829 38.4717C246.762 38.5142 246.688 38.4829 246.619 38.4927C245.625 38.5208 244.781 38.9321 244.003 39.5117C243.959 39.5442 243.925 39.5867 243.918 39.6448C243.935 39.7799 244.044 39.8507 244.13 39.9315C244.991 40.7348 245.493 41.7277 245.649 42.887C245.808 44.0724 245.583 45.1888 244.952 46.2134C244.73 46.5724 244.468 46.8983 244.159 47.187C244.076 47.2649 243.985 47.3386 243.93 47.4428C243.922 47.4648 243.926 47.4846 243.942 47.5021Z" fill="#BCD430"/>
<path fill-rule="evenodd" clip-rule="evenodd" d="M243.942 47.5021C243.944 47.4896 243.945 47.477 243.946 47.4643C243.667 47.2085 243.405 46.9373 243.175 46.6359C242.584 45.8627 242.253 44.993 242.16 44.0221C242.072 43.0995 242.24 42.228 242.629 41.3982C242.908 40.805 243.289 40.28 243.785 39.8446C243.846 39.7912 243.916 39.7448 243.92 39.6516C243.901 39.5459 243.811 39.499 243.738 39.4446C243.155 39.0121 242.512 38.7065 241.803 38.5472C241.611 38.5042 241.415 38.4961 241.219 38.4927C241.138 38.482 241.052 38.5157 240.974 38.4717C240.77 38.4717 240.567 38.4717 240.364 38.4717C240.286 38.522 240.193 38.4676 240.113 38.5061C239.069 38.6142 238.147 39.0045 237.353 39.694C237.338 39.8002 237.42 39.8512 237.483 39.9081C238.048 40.4221 238.488 41.0267 238.757 41.7415C239.439 43.5465 239.188 45.222 238.029 46.7633C237.886 46.9535 237.719 47.1204 237.552 47.2891C237.493 47.3488 237.408 47.3988 237.427 47.5058C238.03 48.0445 238.742 48.3779 239.524 48.5463C241.086 48.8826 242.511 48.5609 243.788 47.5954C243.836 47.5588 243.877 47.5107 243.942 47.5021Z" fill="#74BD45"/>
<path fill-rule="evenodd" clip-rule="evenodd" d="M247.729 38.5062C247.725 38.4949 247.724 38.4833 247.723 38.4716C247.642 38.4716 247.56 38.4716 247.479 38.4716C247.555 38.5382 247.643 38.5094 247.729 38.5062Z" fill="#D9E68B"/>
<path fill-rule="evenodd" clip-rule="evenodd" d="M241.222 38.5069C241.219 38.4954 241.217 38.4837 241.218 38.4718C241.136 38.4718 241.055 38.4718 240.974 38.4718C241.049 38.5335 241.137 38.5104 241.222 38.5069Z" fill="#BDDFA8"/>
<path fill-rule="evenodd" clip-rule="evenodd" d="M240.113 38.5061C240.199 38.5102 240.288 38.54 240.364 38.4717C240.282 38.4717 240.201 38.4717 240.12 38.4717C240.119 38.4834 240.116 38.4947 240.113 38.5061Z" fill="#A7D58A"/>
<path fill-rule="evenodd" clip-rule="evenodd" d="M252.277 43.9199C252.216 43.9953 252.239 44.0826 252.242 44.1669C252.253 44.1669 252.265 44.1659 252.277 44.1639C252.277 44.0826 252.277 44.0012 252.277 43.9199Z" fill="#E5EEB1"/>
<path fill-rule="evenodd" clip-rule="evenodd" d="M246.625 38.4716C246.624 38.4828 246.623 38.494 246.621 38.5052C246.693 38.5102 246.767 38.5323 246.829 38.4716C246.761 38.4716 246.693 38.4716 246.625 38.4716Z" fill="#E0EBA0"/>
<path fill-rule="evenodd" clip-rule="evenodd" d="M252.277 43.0252C252.267 43.0197 252.256 43.0179 252.244 43.0197C252.238 43.0919 252.216 43.1668 252.277 43.2285C252.277 43.1607 252.277 43.0929 252.277 43.0252Z" fill="#DFEBA0"/>
<path fill-rule="evenodd" clip-rule="evenodd" d="M237.427 47.5053C237.756 47.1483 238.105 46.8083 238.365 46.3912C238.802 45.6916 239.072 44.9406 239.15 44.1149C239.283 42.7174 238.889 41.4836 238.023 40.3951C237.823 40.143 237.577 39.9264 237.353 39.6934C236.902 39.3693 236.44 39.069 235.918 38.8667C232.874 37.6883 229.495 39.655 229.027 42.8821C228.625 45.6545 230.542 48.2646 233.295 48.6667C234.776 48.8829 236.114 48.5224 237.29 47.5874C237.332 47.5544 237.367 47.5102 237.427 47.5053Z" fill="#0AA94E"/>
<path fill-rule="evenodd" clip-rule="evenodd" d="M243.935 39.6531C243.923 39.6515 243.912 39.6525 243.9 39.6559C243.497 40.0179 243.136 40.4162 242.852 40.88C242.425 41.5753 242.175 42.3247 242.106 43.1418C241.999 44.3916 242.318 45.5186 243.036 46.5363C243.261 46.8556 243.508 47.1609 243.822 47.4028C243.86 47.4321 243.896 47.4621 243.946 47.4647C245.041 46.5034 245.666 45.3072 245.737 43.842C245.814 42.2531 245.257 40.9176 244.106 39.8249C244.047 39.769 243.992 39.7104 243.935 39.6531Z" fill="#0AA94E"/>
<path fill-rule="evenodd" clip-rule="evenodd" d="M236.342 41.9502C236.46 42.0208 236.545 42.0618 236.619 42.1169C236.724 42.1955 236.801 42.1785 236.872 42.073C236.951 41.9563 236.874 41.9007 236.788 41.8475C235.863 41.2725 234.858 41.0084 233.77 41.0896C232.92 41.1531 232.133 41.4267 231.396 41.8521C231.309 41.9026 231.203 41.9414 231.281 42.0803C231.355 42.2121 231.448 42.1904 231.553 42.128C231.621 42.0879 231.691 42.052 231.769 42.0096C231.778 42.095 231.733 42.1494 231.708 42.2083C231.278 43.2004 230.847 44.192 230.416 45.1839C230.287 45.4817 230.337 45.6599 230.609 45.8424C230.862 46.0118 231.148 46.0904 231.446 46.1314C231.961 46.2022 232.472 46.192 232.973 46.0385C233.143 45.9867 233.304 45.9171 233.445 45.8088C233.671 45.6352 233.715 45.468 233.601 45.2047C233.141 44.1445 232.686 43.0823 232.214 42.0274C232.136 41.8519 232.178 41.8051 232.336 41.7447C233.503 41.2951 234.669 41.2718 235.843 41.7191C236 41.7791 236.025 41.835 235.956 41.991C235.486 43.0539 235.026 44.1215 234.563 45.1874C234.437 45.4771 234.483 45.6531 234.744 45.8332C235 46.0108 235.293 46.0909 235.597 46.1324C236.112 46.2027 236.623 46.1919 237.125 46.0379C237.262 45.996 237.392 45.9408 237.513 45.8647C237.819 45.6719 237.873 45.4974 237.729 45.1652C237.298 44.1733 236.868 43.1816 236.437 42.1897C236.409 42.1243 236.385 42.0576 236.342 41.9502Z" fill="#FEFEFE"/>
<path fill-rule="evenodd" clip-rule="evenodd" d="M237.39 45.127C237.365 45.0603 237.353 45.0223 237.337 44.9861C236.948 44.0872 236.558 43.1883 236.168 42.2891C236.118 42.3123 236.108 42.3519 236.093 42.388C235.722 43.2439 235.352 44.1006 234.976 44.9541C234.916 45.0909 234.92 45.1321 235.087 45.1306C235.845 45.1226 236.604 45.127 237.39 45.127Z" fill="#0AA94E"/>
<path fill-rule="evenodd" clip-rule="evenodd" d="M230.76 45.1177C231.6 45.1177 232.409 45.1177 233.245 45.1177C232.833 44.1658 232.429 43.232 232.004 42.2515C231.583 43.2229 231.177 44.1573 230.76 45.1177Z" fill="#0AA94E"/>
<path d="M198 117C198 115.895 198.895 115 200 115H280C281.105 115 282 115.895 282 117V119H198V117Z" fill="#004D43"/>
<path fill-rule="evenodd" clip-rule="evenodd" d="M310.267 119.732C310.267 133.128 299.408 143.987 286.012 143.987C272.616 143.987 261.757 133.128 261.757 119.732C261.757 106.336 272.616 95.4771 286.012 95.4771C299.408 95.4771 310.267 106.336 310.267 119.732Z" fill="#84D7CC"/>
<path fill-rule="evenodd" clip-rule="evenodd" d="M309.772 118.247C309.772 131.369 299.134 142.007 286.012 142.007C272.89 142.007 262.252 131.369 262.252 118.247C262.252 105.125 272.89 94.4868 286.012 94.4868C299.134 94.4868 309.772 105.125 309.772 118.247Z" fill="white"/>
<path fill-rule="evenodd" clip-rule="evenodd" d="M296.151 122.75H276.977C276.471 122.75 276.03 122.999 275.904 123.356L273.674 129.657C273.493 130.169 274.022 130.667 274.747 130.667H293.921C294.426 130.667 294.868 130.418 294.994 130.061L297.224 123.76C297.405 123.248 296.875 122.75 296.151 122.75Z" fill="#BFD730"/>
<path fill-rule="evenodd" clip-rule="evenodd" d="M290.025 126.459C290.256 125.808 289.773 125.125 289.083 125.125H281.565C281.142 125.125 280.764 125.392 280.623 125.791L280.21 126.958C279.979 127.609 280.462 128.292 281.152 128.292H288.67C289.093 128.292 289.471 128.025 289.612 127.625L290.025 126.459Z" fill="#98AC26"/>
<path fill-rule="evenodd" clip-rule="evenodd" d="M279.574 118.285L279.491 118.173C278.574 116.931 277.94 115.435 277.703 113.797C277.633 113.32 277.597 112.831 277.597 112.335C277.597 108.035 283.93 102.958 283.93 102.958H286.305C291.114 102.958 295.013 107.156 295.013 112.335C295.013 112.831 294.977 113.32 294.907 113.797C294.669 115.435 294.036 116.931 293.116 118.173H293.12L293.038 118.281C293.031 118.289 293.023 118.299 293.016 118.309L286.899 126.404C286.747 126.605 286.524 126.707 286.305 126.708C286.083 126.71 283.93 126.708 283.93 126.708L279.59 118.307L279.59 118.307C279.585 118.299 279.579 118.291 279.574 118.285ZM286.305 116.417C288.928 116.417 291.055 114.29 291.055 111.667C291.055 109.043 288.928 106.917 286.305 106.917C283.682 106.917 281.555 109.043 281.555 111.667C281.555 114.29 283.682 116.417 286.305 116.417Z" fill="#00883E"/>
<path fill-rule="evenodd" clip-rule="evenodd" d="M277.116 118.173C276.199 116.931 275.565 115.435 275.328 113.797C275.258 113.32 275.222 112.831 275.222 112.335C275.222 107.156 279.121 102.958 283.93 102.958C288.739 102.958 292.638 107.156 292.638 112.335C292.638 112.831 292.602 113.32 292.532 113.797C292.294 115.435 291.661 116.931 290.741 118.173H290.745L290.663 118.281C290.656 118.289 290.648 118.299 290.641 118.309L284.524 126.404C284.217 126.81 283.64 126.81 283.335 126.404L277.215 118.307C277.21 118.299 277.204 118.291 277.199 118.285L277.115 118.173H277.116ZM283.93 116.417C286.553 116.417 288.68 114.29 288.68 111.667C288.68 109.043 286.553 106.917 283.93 106.917C281.307 106.917 279.18 109.043 279.18 111.667C279.18 114.29 281.307 116.417 283.93 116.417Z" fill="#00AB4E"/>
<path fill-rule="evenodd" clip-rule="evenodd" d="M50.0616 27.0723C40.2051 40.0923 43.8501 50.5323 42.6831 65.4273C41.7321 77.4273 31.8321 83.4273 28.8351 94.7973C27.1341 101.187 25.4331 113.502 39.2961 121.407C53.1606 129.312 81.8826 128.037 92.8221 117.357C103.76 106.677 106.051 90.5373 97.1451 81.8523C97.1451 81.8523 102.506 74.2023 97.1451 67.8273C91.7826 61.4523 81.9261 63.4473 81.9261 63.4473L69.3021 33.6723L50.0616 27.0723Z" fill="#723520"/>
<path fill-rule="evenodd" clip-rule="evenodd" d="M187.237 50.452C186.125 48.136 181.999 52.1425 178.297 55.7185C174.886 58.9945 170.734 63.2245 169.864 62.926C168.67 62.5285 170.416 57.757 169.54 54.871C168.662 51.9865 166.747 52.1365 166.27 54.748C165.895 56.983 164.107 60.1195 163.466 63.9355C163.142 65.8735 162.938 69.931 161.008 71.5225C159.448 72.7825 130.897 87.1825 130.897 87.1825C130.897 87.1825 109.6 84.289 103.861 83.0365C97.2802 81.6115 94.9192 80.2105 87.1747 79.336C85.6207 81.0835 85.5307 100.081 94.2142 102.787C94.2142 102.787 115.337 105.741 123.368 106.71C131.213 107.662 133.244 107.958 136.606 106.029C142.718 102.498 147.169 97.0345 152.918 92.6605C160.918 86.9905 164.464 84.5605 165.448 84.1165C168.302 82.6495 172.244 84.103 174.524 82.9045C177.133 81.7255 179.546 79.9435 181.619 77.662C182.332 76.993 182.78 76 182.845 74.9485C182.83 74.428 182.647 73.942 182.641 73.3915C182.731 72.5185 182.777 71.6425 182.777 70.768C182.596 69.673 181.384 69.0145 181.267 67.8385C181.21 67.342 181.598 65.8555 181.405 65.428C180.988 64.537 180.572 64.39 180.109 63.6895C179.864 63.3445 179.186 62.8045 179.494 62.248C179.803 61.6915 181.033 60.589 183.415 57.5215C185.795 54.4525 187.981 51.946 187.237 50.452Z" fill="#FFD6B4"/>
<path fill-rule="evenodd" clip-rule="evenodd" d="M87.2642 78.8795C90.0017 78.5345 92.7437 78.587 95.4317 79.0355C99.3047 79.838 103.043 81.8345 107.043 82.7045C111.045 83.573 130.937 86.717 130.937 86.717L142.587 81.221C144.357 83.4275 145.808 85.97 146.894 88.7585C147.86 91.091 148.446 93.638 148.626 96.272C148.71 97.4855 148.166 98.657 147.177 99.368C144.582 101.235 139.31 104.994 136.815 106.505C133.433 108.552 131.981 108.353 128.865 107.982L91.1897 110.37L87.2642 78.8795Z" fill="#F8B142"/>
<path fill-rule="evenodd" clip-rule="evenodd" d="M61.2603 79.1224L46.9353 80.6224C49.3278 96.5074 38.8068 115.287 38.8068 115.287C39.8583 126.762 41.6883 136.947 40.2483 142.287C37.5243 151.767 32.6958 158.412 30.9678 170.607C34.1073 171.957 40.3923 169.662 45.6948 161.607C54.0678 186.732 96.4953 188.742 96.9723 169.662C96.9723 169.662 96.3528 156.447 95.5308 148.662C94.8903 139.509 109.272 100.302 87.2643 78.9268L78.8133 79.1824L61.2603 79.1224Z" fill="#FFBD4F"/>
<path fill-rule="evenodd" clip-rule="evenodd" d="M93.5848 55.0478C92.6488 72.1628 80.7733 74.3228 76.6363 73.7528L76.7233 79.5728C82.3288 88.2728 81.2905 88.1077 80.728 97.7827C72.514 85.2877 67.4413 86.4428 58.7953 80.2178L58.4488 63.9278C58.4488 63.9278 56.1013 66.4478 51.8923 62.8178C48.4198 59.8178 47.1358 54.6578 49.7158 51.7928C52.0468 49.4153 55.7878 49.4543 58.0723 51.8783C58.5118 52.3463 58.8778 52.8848 59.1553 53.4728C59.1553 53.4728 57.2968 36.5978 65.9008 31.3478C74.5033 26.0978 86.0908 34.3628 86.5228 28.9028C89.5933 30.6728 93.5278 38.4728 93.5848 55.0478Z" fill="#FFD6B4"/>
<path fill-rule="evenodd" clip-rule="evenodd" d="M76.6366 73.6623C72.3136 73.1973 63.2926 70.7823 61.8076 67.1523C62.4181 68.9913 63.5551 70.5933 65.0641 71.7423C67.7896 74.0523 76.6801 76.4373 76.6801 76.4373L76.6366 73.6623Z" fill="#FFAC88"/>
<path fill-rule="evenodd" clip-rule="evenodd" d="M85.2566 64.142C85.3502 64.1837 85.4575 64.1956 85.5652 64.1697C86.6167 63.9194 87.3556 63.3311 87.7597 62.4235C89.0956 59.4231 86.0976 53.8573 85.9688 53.6218C85.8379 53.3832 85.5388 53.298 85.3016 53.4339C85.0638 53.5699 84.9755 53.8738 85.1061 54.1133C85.914 55.5974 87.8045 59.9131 86.8637 62.0251C86.5902 62.6382 86.0966 63.0226 85.3535 63.1999C85.0882 63.2631 84.9201 63.5315 84.9792 63.7992C85.0137 63.9585 85.1203 64.0813 85.2566 64.142Z" fill="#FFB38F"/>
<path fill-rule="evenodd" clip-rule="evenodd" d="M91.1931 36.4773C91.1991 36.4218 90.7742 36.4773 90.7742 36.4773C87.4877 45.2373 63.8966 46.927 63.8966 46.927C63.8966 40.732 65.0076 37.7373 65.0076 37.7373C66.2766 48.5823 59.2416 53.5023 59.2416 53.5023C57.8031 50.4543 54.2631 49.1973 51.3336 50.6943C50.7696 50.9823 50.2521 51.3633 49.8021 51.8223C47.2221 54.6873 48.5061 59.8623 51.9786 62.8623C56.1876 66.4773 58.5351 63.9573 58.5351 63.9573L58.7526 74.1123C58.2051 69.3123 44.8881 59.2323 44.1246 45.6123C43.3896 32.3373 46.6611 27.1773 60.2511 21.3123C72.3291 16.0773 89.189 24.2223 92.417 32.2023C94.184 36.2358 94.3911 40.8243 92.9946 45.0123C92.2296 40.5123 91.3806 37.2423 91.1931 36.4773Z" fill="#723520"/>
<path fill-rule="evenodd" clip-rule="evenodd" d="M64.9064 37.6624C63.4064 43.8904 58.6514 48.6994 52.6274 50.0824C55.2614 49.6624 57.8699 50.9974 59.1554 53.4274C59.1554 53.4274 67.7261 49.8915 65.6081 37.2915" fill="#723520"/>
<path fill-rule="evenodd" clip-rule="evenodd" d="M66.2751 95.4876C63.0471 98.8626 62.9166 98.1576 61.8081 95.6976C60.6981 93.2376 55.5231 82.6926 55.4946 79.7526C55.4946 79.7526 56.5326 76.8726 56.8641 75.4326C57.1956 73.9926 57.8151 72.8226 58.6371 72.8826V74.9676C58.6371 74.9676 59.0841 77.4576 62.4846 80.2926C65.8866 83.1276 76.8263 90.6426 80.8328 97.7826C80.8328 97.7826 69.5031 92.1126 66.2751 95.4876Z" fill="white"/>
<path fill-rule="evenodd" clip-rule="evenodd" d="M86.7252 92.0224C88.5987 92.6674 89.5212 94.7974 90.1977 94.3024C90.8757 93.8074 89.2182 88.3024 86.7252 84.5074C84.2322 80.7124 79.4337 75.6424 76.6362 74.8774V79.5424C80.0727 85.0744 79.6977 91.2829 80.7282 97.7824C80.7282 97.7824 84.8517 91.3774 86.7252 92.0224Z" fill="white"/>
<path fill-rule="evenodd" clip-rule="evenodd" d="M31.7746 156.627C21.5416 157.932 19.8421 152.382 20.8216 142.197C22.7521 122.202 24.6826 106.272 27.0331 96.7024C29.8276 85.2424 34.4266 82.9624 47.2816 80.9824C47.2816 80.9824 51.2146 94.8874 45.1336 113.892L41.7901 132.792C41.7901 132.792 46.2571 154.797 31.7746 156.627Z" fill="#FFD6B4"/>
<path fill-rule="evenodd" clip-rule="evenodd" d="M47.5831 80.5928C48.8221 84.1178 50.0041 92.5928 48.3631 102.913C46.7191 113.233 42.5971 132.283 42.5971 132.283L58.5796 129.868C58.5796 129.868 56.6056 133.093 57.6001 139.468C57.9496 142.669 58.8376 145.781 60.2221 148.663C54.6736 151.148 48.9556 153.203 43.1146 154.813C31.5871 158.218 26.7736 158.353 23.8186 156.763C20.8651 155.173 20.2891 152.263 20.0146 146.158C19.7401 140.053 23.5306 111.538 25.7791 100.843C28.0276 90.1478 29.6701 81.9278 47.5831 80.5928Z" fill="#BA68C8"/>
<path fill-rule="evenodd" clip-rule="evenodd" d="M177.401 62.334C175.406 64.752 172.731 66.7965 172.88 68.6775C173.055 70.074 174.153 70.968 175.335 70.6755C175.457 70.6455 175.575 70.6035 175.692 70.5495C175.227 71.3115 175.116 72.2865 175.4 73.116C175.725 73.8975 176.397 74.373 177.146 74.3535C176.799 75.672 177.396 77.013 178.482 77.3475C178.526 77.361 178.571 77.373 178.617 77.3835C177.77 77.697 176.063 77.5785 176.253 75.465C176.253 75.465 173.931 74.649 174.438 72.24C174.438 72.24 173.979 74.976 170.679 76.6125C172.076 75.2775 173.079 73.4385 173.52 71.4015C172.521 70.7595 171.932 69.492 171.983 68.1015C172.131 65.9355 177.401 62.334 177.401 62.334Z" fill="#FFAC88"/>
<path fill-rule="evenodd" clip-rule="evenodd" d="M63.4458 138.44C63.4458 138.44 67.6653 138.44 69.3033 136.565C70.9443 134.69 79.1463 125.552 80.5518 124.615C81.9588 123.677 81.9588 122.272 81.9588 122.272L81.0213 120.163H79.3803L77.0373 118.288L73.7568 118.756L70.4763 124.147L68.1333 131.645L63.4458 138.44Z" fill="#FFAC88"/>
<path fill-rule="evenodd" clip-rule="evenodd" d="M74.46 111.023L79.185 107.62C79.902 107.105 80.811 106.945 81.66 107.183L86.9625 108.674C87.432 108.806 87.6525 109.36 87.384 109.768C86.883 110.53 85.9125 111.463 84.3015 111.023L81.5355 110.332C80.961 110.188 80.3565 110.368 79.944 110.795C79.653 111.098 79.2405 111.491 78.678 111.961C77.271 113.132 74.46 111.023 74.46 111.023Z" fill="#FFD6B4"/>
<path d="M75.3975 110.555C75.3975 110.555 77.388 110.672 79.497 111.61" stroke="#FFAC88" stroke-width="0.75" stroke-linecap="round" stroke-linejoin="round"/>
<path fill-rule="evenodd" clip-rule="evenodd" d="M93.7184 136.972L74.5694 128.896C72.7184 128.116 71.8424 125.961 72.6239 124.108L76.9424 113.866C77.7239 112.015 79.8779 111.138 81.7304 111.919L100.878 119.995C102.73 120.777 103.606 122.931 102.825 124.783L98.5049 135.025C97.7249 136.878 95.5694 137.754 93.7184 136.972Z" fill="#4D8FD9"/>
<path fill-rule="evenodd" clip-rule="evenodd" d="M93.5719 136.043L74.7814 128.118C72.9829 127.361 72.1339 125.27 72.8914 123.473L77.0269 113.669C77.7844 111.872 79.8739 111.021 81.6709 111.779L100.463 119.703C102.26 120.461 103.11 122.552 102.353 124.35L98.2189 134.153C97.4599 135.95 95.3689 136.8 93.5719 136.043Z" fill="#80C5FF"/>
<path fill-rule="evenodd" clip-rule="evenodd" d="M91.026 125.592C90.6495 126.473 90.5925 127.412 90.8025 128.277C90.816 128.342 90.834 128.405 90.8535 128.471C91.203 129.66 92.0595 130.694 93.291 131.219C94.521 131.744 95.859 131.646 96.9585 131.073C97.0185 131.043 97.0755 131.01 97.134 130.977C97.9035 130.529 98.541 129.837 98.9175 128.957C99.8445 126.779 98.8305 124.259 96.654 123.33C94.4745 122.402 91.953 123.414 91.026 125.592Z" fill="#1868AB"/>
<path fill-rule="evenodd" clip-rule="evenodd" d="M93.6026 126.176C93.2366 127.034 93.6356 128.027 94.4951 128.393C95.3531 128.759 96.3446 128.36 96.7106 127.501C97.0766 126.644 96.6791 125.65 95.8196 125.285C94.9601 124.919 93.9686 125.318 93.6026 126.176Z" fill="#EDFAF1"/>
<path fill-rule="evenodd" clip-rule="evenodd" d="M90.9175 128.664C91.2955 129.771 92.128 130.724 93.2905 131.219C94.453 131.715 95.7145 131.655 96.775 131.162C96.5215 129.966 95.7055 128.91 94.495 128.393C93.2845 127.878 91.954 128.019 90.9175 128.664Z" fill="#EDFAF1"/>
<path d="M85.0068 115.924L95.1648 120.208" stroke="#1868AB" stroke-width="1.2075" stroke-linecap="round" stroke-linejoin="round"/>
<path d="M77.4131 117.803L88.8236 122.615" stroke="#FFECDA" stroke-width="0.906" stroke-linecap="round" stroke-linejoin="round"/>
<path d="M76.2397 120.586L80.8327 122.522" stroke="#FFECDA" stroke-width="0.906" stroke-linecap="round" stroke-linejoin="round"/>
<path d="M82.9194 123.403L87.5124 125.339" stroke="#FFC480" stroke-width="0.906" stroke-linecap="round" stroke-linejoin="round"/>
<path d="M75.3008 122.812L78.5018 124.162" stroke="#FFC480" stroke-width="0.906" stroke-linecap="round" stroke-linejoin="round"/>
<path d="M80.728 125.101L87.964 128.152" stroke="#FFECDA" stroke-width="0.906" stroke-linecap="round" stroke-linejoin="round"/>
<path fill-rule="evenodd" clip-rule="evenodd" d="M93.9441 135.1L89.9466 133.414C89.6676 133.297 89.5371 132.973 89.6556 132.694L90.1656 131.481C90.2841 131.202 90.6066 131.07 90.8856 131.188L94.8831 132.874C95.1621 132.991 95.2926 133.315 95.1756 133.594L94.6626 134.808C94.5456 135.085 94.2231 135.217 93.9441 135.1Z" fill="#FFD280"/>
<path fill-rule="evenodd" clip-rule="evenodd" d="M55.4317 130.358C55.4587 130.292 55.5277 130.254 55.5982 130.269C56.2537 130.419 59.4517 130.89 61.3372 126.489C63.4462 121.569 65.0872 115.71 66.9622 114.071C68.3302 112.872 70.9492 111.299 72.2632 110.538C72.7672 110.244 73.3612 110.15 73.9327 110.268L78.6952 111.254C79.4062 111.401 79.9807 111.924 80.1922 112.619L81.4702 116.823C81.4822 116.861 81.4777 116.901 81.4582 116.936C81.2422 117.293 79.9492 119.22 78.4597 116.907C78.4507 116.894 78.4402 116.88 78.4267 116.871C78.3622 116.826 78.1222 116.618 77.9197 115.892C77.7832 115.404 77.3542 115.056 76.8502 115.014C76.3807 114.975 75.7432 114.867 74.9812 114.603C74.4847 114.431 73.9372 114.477 73.4857 114.749L73.3147 114.851C73.2112 114.914 73.2262 115.068 73.3402 115.107L77.1922 116.447C77.9302 116.703 78.4042 117.423 78.3487 118.203L78.2137 120.099C78.2107 120.14 78.2227 120.177 78.2512 120.206C78.4027 120.366 78.9112 120.935 78.9112 121.334C78.9112 121.694 77.3707 124.766 76.9192 126.138C76.7872 126.538 74.1082 128.951 73.7812 128.868C72.8032 128.625 72.8692 127.073 73.3717 126.186L74.8042 123.663C74.8567 123.569 74.7907 123.452 74.6827 123.45C74.2567 123.449 73.3162 123.384 72.1837 122.934C72.0937 122.897 71.9947 122.957 71.9872 123.053C71.8837 124.673 70.9672 135.834 65.3212 138.44C60.0127 140.891 58.0837 141.384 57.6757 141.47C57.6217 141.482 57.5677 141.462 57.5332 141.419C57.0382 140.784 53.3422 135.788 55.4317 130.358Z" fill="#FFD6B4"/>
<path d="M71.6475 118.522C71.6475 118.522 76.4505 119.342 78.3255 120.28" stroke="#FFAC88" stroke-width="0.75" stroke-linecap="round" stroke-linejoin="round"/>
<path fill-rule="evenodd" clip-rule="evenodd" d="M47.5831 80.5928C48.8221 84.1178 50.0041 92.5928 48.3631 102.913C46.7191 113.233 42.5971 132.283 42.5971 132.283L58.5796 129.868C58.5796 129.868 56.6056 133.093 57.6001 139.468C57.9496 142.669 58.8376 145.781 60.2221 148.663C54.6736 151.148 48.9556 153.203 43.1146 154.813C31.5871 158.218 26.7736 158.353 23.8186 156.763C20.8651 155.173 20.2891 152.263 20.0146 146.158C19.7401 140.053 23.5306 111.538 25.7791 100.843C28.0276 90.1478 29.6701 81.9278 47.5831 80.5928Z" fill="#F8B142"/>
<path fill-rule="evenodd" clip-rule="evenodd" d="M42.5543 132.282C36.4868 132.822 31.5728 134.412 28.8353 138.882C28.8353 138.882 28.5608 131.127 43.2458 128.817L42.5543 132.282Z" fill="#DF9F1C"/>
<path fill-rule="evenodd" clip-rule="evenodd" d="M331.377 17.8979C323.326 17.8979 316.536 23.3137 314.427 30.6923C313.039 30.25 311.562 30.0204 310.021 30.0204C303.298 30.0204 297.647 34.5101 295.876 40.645H314.535H324.146H348.243C348.726 39.0215 349 37.2903 349 35.5005C349 25.7802 341.117 17.8979 331.377 17.8979Z" fill="#C4E4FF"/>
<path fill-rule="evenodd" clip-rule="evenodd" d="M-0.500231 45.8979C7.55117 45.8979 14.341 51.3137 16.4502 58.6923C17.8384 58.25 19.3145 58.0204 20.8558 58.0204C27.5786 58.0204 33.2297 62.5101 35.0006 68.645H16.3416H6.73091H-17.3656C-17.8495 67.0215 -18.1235 65.2903 -18.1235 63.5005C-18.1235 53.7802 -10.2403 45.8979 -0.500231 45.8979Z" fill="#C4E4FF"/>
</g>
<path d="M199.807 34.0046C200.252 33.5703 200.964 33.5785 201.398 34.0229C201.793 34.4269 201.822 35.0523 201.49 35.4889L201.38 35.6138L194.511 42.3267C194.066 42.7609 193.354 42.7527 192.92 42.3084C192.525 41.9044 192.496 41.279 192.828 40.8424L192.938 40.7175L199.807 34.0046Z" fill="#FFD37B"/>
<path d="M158.316 28.7332C158.797 28.4367 159.414 28.5456 159.767 28.9652L159.864 29.1003L164.906 37.2756C165.232 37.8045 165.067 38.4975 164.539 38.8237C164.058 39.1201 163.441 39.0113 163.088 38.5917L162.99 38.4566L157.949 30.2813C157.623 29.7524 157.787 29.0593 158.316 28.7332Z" fill="#FFD37B"/>
<path d="M180.801 23.6893C181.366 23.7588 181.782 24.2362 181.789 24.7903L181.781 24.9431L180.318 36.8536C180.243 37.4703 179.681 37.9089 179.065 37.8331C178.499 37.7637 178.084 37.2863 178.077 36.7322L178.085 36.5794L179.547 24.6689C179.623 24.0522 180.184 23.6136 180.801 23.6893Z" fill="#FFC54F"/>
</svg>
