<svg width="328" height="164" viewBox="0 0 328 164" fill="none" xmlns="http://www.w3.org/2000/svg">
<g clip-path="url(#clip0_5567_154637)">
<path fill-rule="evenodd" clip-rule="evenodd" d="M23.2189 161.504C33.6809 163.667 265.053 165.826 301.876 161.504C312.777 160.224 321.503 148.276 322.776 146.203C330.736 133.238 327.751 53.2794 325.761 26.266C324.69 11.7278 309.838 5.19571 302.871 3.03482C289.548 -1.09779 53.2799 -1.26366 22.2229 4.11573C8.32787 6.52168 3.29087 17.8712 2.29087 24.1796C-0.0421274 38.8847 -1.42113 129.331 2.31887 141.514C5.30487 151.239 12.7689 159.343 23.2189 161.504Z" fill="#EBFFE0"/>
<mask id="mask0_5567_154637" style="mask-type:alpha" maskUnits="userSpaceOnUse" x="0" y="0" width="328" height="164">
<path fill-rule="evenodd" clip-rule="evenodd" d="M23.2189 161.504C33.6809 163.667 265.053 165.826 301.876 161.504C312.777 160.224 321.503 148.276 322.776 146.203C330.736 133.238 327.751 53.2794 325.761 26.266C324.69 11.7278 309.838 5.19571 302.871 3.03482C289.548 -1.09779 53.2799 -1.26366 22.2229 4.11573C8.32787 6.52168 3.29087 17.8712 2.29087 24.1796C-0.0421274 38.8847 -1.42113 129.331 2.31887 141.514C5.30487 151.239 12.7689 159.343 23.2189 161.504Z" fill="white"/>
</mask>
<g mask="url(#mask0_5567_154637)">
</g>
<path fill-rule="evenodd" clip-rule="evenodd" d="M6.80458 168.778L300.152 164.995L357.76 75.3866L221.632 74.5407L6.80458 168.778Z" fill="#84D7CC"/>
<path fill-rule="evenodd" clip-rule="evenodd" d="M-9 161.709L284.369 163.046L343.532 74.4564L207.439 71.2349L-9 161.709Z" fill="#BBF0D3"/>
<path fill-rule="evenodd" clip-rule="evenodd" d="M191.645 85.2674L195.896 84.5786C196.708 84.5786 197.49 84.8748 198.099 85.4105L201.234 88.2564L201.287 92.1554L191.645 85.2674Z" fill="#18B724"/>
<path fill-rule="evenodd" clip-rule="evenodd" d="M107.576 141.622C107.247 142.675 106.924 143.834 107.348 144.852C107.685 145.659 108.428 146.211 109.14 146.719C123.187 156.744 159.605 173.282 159.75 172.755C164.77 154.604 165.143 129.694 161.534 111.212C161.253 109.772 160.903 108.274 159.946 107.162C159.108 106.189 157.902 105.626 156.725 105.113C146.839 100.807 136.276 98.0553 125.545 96.9916C123.953 96.8342 123.036 96.778 122.766 98.3543L107.576 141.622Z" fill="#00883E"/>
<path fill-rule="evenodd" clip-rule="evenodd" d="M159.059 108.574C159.372 128.256 160.65 153.091 159.75 172.755C173.507 167.07 229.83 132.915 229.83 132.915C229.83 132.915 210.991 96.9978 198.567 85.6372C184.926 93.1578 171.27 100.687 158.222 109.196" fill="#00AB4E"/>
<path fill-rule="evenodd" clip-rule="evenodd" d="M123.154 97.2129C136.986 91.1107 167.449 77.6812 168.953 77.6428C170.6 77.6016 189.186 82.5883 196.868 84.7003C197.297 84.8179 197.767 84.9705 197.989 85.356C198.394 86.0601 197.696 86.8732 197.06 87.3782C187.651 94.8417 163.215 108.202 161.373 108.412C160.132 108.554 158.877 108.371 157.646 108.157" fill="#00662E"/>
<path fill-rule="evenodd" clip-rule="evenodd" d="M115.189 71.4918C115.189 71.4918 160.253 50.4428 162.421 50.3871C164.339 50.3382 199.59 61.395 199.59 61.395C199.59 61.395 161.702 87.9342 159.696 88.2562" fill="#00662E"/>
<path fill-rule="evenodd" clip-rule="evenodd" d="M191.33 66.7092C182.67 74.3277 173.715 81.6103 164.49 88.5343C163.595 89.2058 162.642 89.8975 161.532 90.0338C160.695 90.1365 159.855 89.9105 159.042 89.6863L126.018 80.5922C124.963 80.3013 123.717 79.8079 123.55 78.7269C123.377 77.609 125.46 76.1786 125.46 76.1786L163.404 59.0935L191.33 66.7092Z" fill="#00441F"/>
<path fill-rule="evenodd" clip-rule="evenodd" d="M199.59 61.395C198.979 64.1128 198.178 74.5182 196.8 76.5846C194.099 80.6368 160.649 98.3545 160.649 98.3545L159.96 83.2014" fill="#00AB4E"/>
<path fill-rule="evenodd" clip-rule="evenodd" d="M115.189 71.4917C116.567 81.8232 116.567 85.2672 126.537 88.5331C135.202 91.3714 160.649 98.3544 160.649 98.3544L161.338 83.2013L115.189 71.4917Z" fill="#00883E"/>
<path fill-rule="evenodd" clip-rule="evenodd" d="M186.071 43.2536C185.96 48.4995 190.102 52.8414 195.324 52.9527C200.545 53.0639 204.868 48.9015 204.978 43.6566C205.089 38.4107 200.946 34.0683 195.725 33.957C190.504 33.8463 186.181 38.0082 186.071 43.2536Z" fill="#C69C45"/>
<path fill-rule="evenodd" clip-rule="evenodd" d="M216.566 26.3225C215.075 27.5155 214.587 29.5343 215.383 31.2468C217.405 35.5993 221.478 43.3722 225.274 44.5972C230.594 46.3128 240.592 41.2992 240.592 41.2992C240.592 41.2992 241.162 34.083 230.795 37.0815L225.15 31.3428L217.026 25.9548L216.566 26.3225Z" fill="#F9953B"/>
<path fill-rule="evenodd" clip-rule="evenodd" d="M212.135 31.6945L219.188 44.9371C219.906 46.2846 221.349 47.0726 222.86 46.9405L235.646 45.8214C235.646 45.8214 238.143 36.9332 226.337 39.0928C225.681 39.2132 225.066 38.7505 224.965 38.085C224.819 37.1301 224.468 35.8109 223.626 34.7635C223.335 34.4014 223.552 33.852 224.008 33.7797C225.553 33.5369 228.282 32.7954 231.134 30.538C231.543 30.2154 231.607 29.6147 231.283 29.206C230.778 28.5667 230.02 27.6086 229.345 26.7543C228.348 25.494 227.196 24.3679 225.916 23.4029C225.343 22.9712 224.601 22.8423 223.918 23.0562L220.027 24.2732L214.192 26.3408C212.023 27.109 211.047 29.651 212.135 31.6945Z" fill="#FFB490"/>
<path fill-rule="evenodd" clip-rule="evenodd" d="M185.063 44.2536C184.953 49.499 189.096 53.8414 194.317 53.9527C199.538 54.0639 203.86 49.9015 203.971 44.6561C204.082 39.4107 199.939 35.0683 194.717 34.957C189.496 34.8457 185.174 39.0077 185.063 44.2536Z" fill="#ECCC8B"/>
<path fill-rule="evenodd" clip-rule="evenodd" d="M324.515 10.2004L268.29 25.1745C267.476 25.3918 266.613 25.3356 265.833 25.016L230.913 10.6806C228.606 9.73302 226.022 9.71288 223.701 10.6228C218.456 12.6801 203.151 18.6454 200.64 20.2193C198.129 21.7933 187.83 31.7375 186.301 32.975C182.767 35.8362 184.14 39.6578 189.427 38.8194C195.955 37.7838 200.635 29.0257 202.746 28.359C203.062 28.2588 203.387 28.2011 203.719 28.1857C205.977 28.0808 215.969 27.6987 222.093 25.4893C223.078 25.1337 224.16 25.1893 225.1 25.6493C228.752 27.4374 236.953 32.6554 232.884 42.0256C232.439 43.0495 231.563 43.8227 230.498 44.1566C229.779 44.3818 228.825 44.5975 227.618 44.7056C224.449 44.9902 221.96 46.3427 218.784 46.9786C215.608 47.6146 206.175 44.9542 201.183 48.3629C201.133 48.3968 201.084 48.4312 201.035 48.4652C197.822 50.7366 197.94 56.1125 201.86 55.7601C205.859 55.4007 214.033 55.1172 221.064 55.4612C233.668 56.0791 250.322 63.4228 268.831 49.5664C268.913 49.5055 268.989 49.4366 269.065 49.3687C269.346 49.1144 270.535 48.3099 274.646 47.8112C279.022 47.2807 322.479 43.1518 332.227 42.2275C333.487 42.1078 334.609 41.3807 335.223 40.2741C338.283 34.7524 345.76 17.7677 326.914 10.334C326.151 10.033 325.308 9.98952 324.515 10.2004Z" fill="#FFDAB8"/>
<path fill-rule="evenodd" clip-rule="evenodd" d="M234.271 54.1228C234.271 54.1228 250.752 55.8953 260.714 50.0754C270.677 44.2554 271.38 44.2699 280.535 43.4013C289.691 42.5327 335.081 39.9548 335.081 39.9548L335.299 39.9597C335.274 40.0057 335.249 40.0533 335.224 40.0983C334.61 41.2168 333.486 41.9521 332.225 42.0725C322.472 43.0069 279.022 47.1758 274.646 47.7115C270.535 48.2151 269.347 49.0275 269.065 49.2844C268.989 49.3529 268.913 49.4225 268.831 49.484C250.322 63.4765 233.668 56.0607 221.065 55.4367C214.034 55.0893 205.86 55.3757 201.861 55.7385C201.032 55.8134 200.296 55.6427 199.679 55.3077C199.679 55.3077 205.907 49.2566 234.271 54.1228Z" fill="#FFB490"/>
<path d="M238.403 41.1053C238.403 41.1053 235.257 40.2885 232.883 42.461C231.486 43.7414 229.504 44.0356 227.69 44.3956C225.986 44.7326 223.662 45.281 221.047 46.1378C219.861 46.5265 218.644 46.8016 217.409 46.9298C215.525 47.1239 211.945 46.1063 204.553 46.6857" stroke="#FFB490" stroke-linecap="round" stroke-linejoin="round"/>
<path d="M226.51 21.9548C224.702 24.4631 223.387 24.9548 223.387 24.9548" stroke="#FFB490" stroke-linecap="round" stroke-linejoin="round"/>
<path fill-rule="evenodd" clip-rule="evenodd" d="M25.374 52.0105C24.1577 64.6359 22.9159 77.259 21.6636 89.8806C21.6103 90.4345 21.8143 90.9318 22.2199 91.2423C22.6255 91.5534 23.1919 91.6465 23.7689 91.4982C25.6227 91.0263 26.5308 90.7863 28.3183 90.3011C27.3382 77.5379 26.3556 64.7742 25.374 52.0105Z" fill="#47A99C"/>
<path fill-rule="evenodd" clip-rule="evenodd" d="M70.1406 39.0335C70.8093 51.8025 71.4673 64.5719 72.1504 77.3409C72.2272 78.7713 71.067 80.2751 69.5872 80.6706C56.4025 84.3369 43.4233 88.6698 30.2733 92.4537C28.7795 92.8698 27.4787 92.0121 27.4014 90.5485C26.6627 76.5316 25.9269 62.5146 25.1891 48.4977C25.1123 47.0413 26.2917 45.6234 27.7854 45.3349C40.9561 42.7295 54.0597 39.8106 67.2054 37.0852C68.7337 36.7737 70.0681 37.6588 70.1406 39.0335Z" fill="#84D7CC"/>
<path fill-rule="evenodd" clip-rule="evenodd" d="M30.6474 48.3115C42.0061 45.971 53.3183 43.4188 64.6607 41.0006C65.6528 40.7947 66.5106 41.3644 66.5634 42.2659C66.6714 44.2286 66.7242 45.1924 66.8293 47.1028C54.285 49.8892 41.7973 52.9171 29.2386 55.6382C29.1282 53.5536 29.073 52.5091 28.9621 50.4144C28.9141 49.451 29.6735 48.5107 30.6474 48.3115Z" fill="#117367"/>
<path fill-rule="evenodd" clip-rule="evenodd" d="M66.8295 47.1033C67.3527 56.6462 67.8749 66.1886 68.4063 75.731C68.4557 76.6641 67.7026 77.6457 66.733 77.9178C57.0581 80.6908 47.473 83.7465 37.8466 86.6793C37.3887 86.8161 36.9375 86.7618 36.5943 86.5276C34.4708 85.0862 33.3989 84.3662 31.2149 82.9046C30.8602 82.6689 30.6466 82.2738 30.6216 81.8092C30.1604 73.0857 29.7 64.3622 29.2388 55.6382C41.7975 52.917 54.2852 49.8897 66.8295 47.1033Z" fill="#ECF0F1"/>
<path fill-rule="evenodd" clip-rule="evenodd" d="M39.3705 80.0521C39.3969 80.5273 39.7991 80.8009 40.2676 80.6612C46.6905 78.722 53.1037 76.754 59.5333 74.8369C60.0023 74.6996 60.3623 74.2158 60.3359 73.7583C60.309 73.3009 59.9053 73.0422 59.4364 73.178C53.0082 75.0769 46.5949 77.0242 40.173 78.9423C39.7045 79.081 39.3445 79.5774 39.3705 80.0521Z" fill="#35495E"/>
<path fill-rule="evenodd" clip-rule="evenodd" d="M35.0707 81.3017C36.0307 81.0305 36.841 81.5791 36.8957 82.5353C36.9864 84.2076 37.0315 85.0471 37.1232 86.7348C36.9293 86.7036 36.7498 86.6331 36.5942 86.5275C34.4707 85.086 33.3989 84.366 31.2149 82.9044C31.0546 82.7974 30.9206 82.6567 30.8213 82.4902C32.5454 82.0183 33.3931 81.7803 35.0707 81.3017Z" fill="#D1D4D1"/>
<path fill-rule="evenodd" clip-rule="evenodd" d="M49.3176 40.8734C49.3113 40.7769 49.3229 40.677 49.3507 40.5791C50.1677 37.4778 52.9872 35.1398 55.9852 35.2146C58.9833 35.2895 61.1971 37.7169 61.0156 40.7524C60.8347 43.7874 58.3493 46.5244 55.3387 47.206C54.8717 47.3116 54.4732 47.0284 54.4464 46.5724C54.4195 46.1159 54.7752 45.6604 55.2422 45.5558C57.3556 45.0897 59.0985 43.1802 59.2771 41.0404C59.4557 38.9001 57.9998 37.1582 55.9181 37.0036C53.8363 36.85 51.7776 38.3538 51.0581 40.4985C50.3606 40.6482 50.0126 40.7236 49.3176 40.8734Z" fill="#95A5A5"/>
<path fill-rule="evenodd" clip-rule="evenodd" d="M33.4146 43.9303C34.2806 40.7844 37.1913 38.465 40.1308 38.5677C43.0703 38.6705 45.1482 41.1338 44.9874 44.2322C44.8271 47.3311 42.477 50.1377 39.4799 50.8029C39.0148 50.9061 38.6154 50.6076 38.5895 50.1357C38.5636 49.6634 38.9207 49.1978 39.3854 49.0961C41.4887 48.6415 43.1615 46.6913 43.3286 44.5058C43.4951 42.3204 42.1084 40.5444 40.0631 40.3687C38.0174 40.193 35.9231 41.6892 35.1762 43.8641C34.461 44.0105 34.1015 44.0834 33.3782 44.2293C33.3729 44.1309 33.3849 44.0297 33.4146 43.9303Z" fill="#95A5A5"/>
<path fill-rule="evenodd" clip-rule="evenodd" d="M46.3569 68.7379C46.8926 68.58 47.279 68.5291 47.5161 68.5853C47.7528 68.6409 47.9193 68.783 48.0153 69.012C48.1108 69.2419 48.1728 69.5606 48.2016 69.9686C48.2294 70.3776 48.2097 70.7184 48.142 70.991C48.0744 71.2641 47.9462 71.4753 47.7566 71.6261C47.4796 71.8694 47.0803 72.071 46.5571 72.2294C43.4899 73.1611 41.9568 73.6277 38.8204 74.5512C38.3395 74.6933 37.9113 74.6347 37.5379 74.3755C37.1644 74.1158 36.9614 73.7448 36.9292 73.2633C36.8817 72.5405 37.0905 71.8041 37.5542 71.0549C38.0174 70.307 38.5881 69.6182 39.2654 68.9889C39.9422 68.3601 40.6161 67.74 41.2886 67.1285C41.9606 66.5179 42.5241 65.8824 42.9816 65.2224C43.4385 64.5629 43.6464 63.9403 43.6065 63.3542C43.5984 63.2366 43.5412 63.0835 43.4347 62.8929C43.3281 62.7033 43.2144 62.5545 43.0934 62.448C42.9724 62.3414 42.79 62.2608 42.5457 62.207C42.3009 62.1528 41.9683 62.1825 41.5468 62.2949C41.1249 62.4077 40.7688 62.6601 40.4788 63.0518C40.1889 63.4449 40.0339 63.7982 40.0142 64.1121C39.995 64.3027 39.9849 64.3977 39.9657 64.5878C39.9686 64.6358 39.97 64.6593 39.9734 64.7073C39.9926 64.9968 39.9974 65.2171 39.9868 65.3678C39.9768 65.5185 39.9249 65.7005 39.8313 65.9136C39.6537 66.2851 39.1468 66.5865 38.3054 66.8165C37.3704 67.0723 36.7939 66.971 36.5856 66.5117C36.504 66.3168 36.4478 65.9865 36.4171 65.52C36.3254 64.1352 36.7468 62.7609 37.6699 61.4093C38.5929 60.059 39.8529 59.1864 41.4398 58.7774C43.0267 58.3685 44.3409 58.584 45.395 59.4062C46.4491 60.2285 47.0232 61.3219 47.1187 62.7014C47.1696 63.4363 47.0544 64.1784 46.774 64.9296C46.4928 65.6817 46.1376 66.3254 45.7075 66.8592C44.7988 67.9949 43.9732 68.8291 43.2316 69.3528C43.0401 69.4886 42.9441 69.5568 42.7516 69.6926C42.7545 69.7325 42.756 69.7521 42.7584 69.7915C44.2036 69.3705 44.9217 69.1598 46.3569 68.7379Z" fill="#117367"/>
<path fill-rule="evenodd" clip-rule="evenodd" d="M55.2279 55.8636C55.321 55.6596 55.4943 55.4897 55.7477 55.3539C56.0012 55.2175 56.3377 55.0951 56.7567 54.9881C57.1762 54.8801 57.5161 54.8345 57.7762 54.8513C58.0354 54.8676 58.226 54.9531 58.3465 55.1067C58.4665 55.2603 58.5418 55.4091 58.5725 55.5535C58.6033 55.6985 58.6287 55.914 58.6493 56.2006C58.9445 60.3607 59.0905 62.4147 59.3885 66.6156C59.4231 67.1071 59.3852 67.4892 59.2748 67.7595C59.1644 68.0302 58.982 68.2419 58.7271 68.3935C58.4727 68.5462 58.1521 68.6791 57.7671 68.7929C57.3817 68.9067 57.0745 68.9647 56.8455 68.9676C56.6161 68.9705 56.4385 68.9451 56.3132 68.8918C56.1879 68.8375 56.0953 68.73 56.0285 68.5855C55.9412 68.395 55.8711 68.0734 55.8394 67.6284C55.7737 66.6982 55.7405 66.2345 55.6753 65.3095C53.5282 65.9263 52.4669 66.2364 50.3429 66.8566C49.4285 67.1239 48.8703 67.0375 48.6668 66.5974C48.5871 66.4107 48.5353 66.1423 48.5113 65.7948C48.4868 65.4473 48.4887 65.1843 48.5161 65.0062C48.986 62.2351 49.2212 60.8619 49.6916 58.1158C49.7492 57.8009 49.802 57.5585 49.85 57.3895C49.898 57.2206 50.0055 57.0425 50.1721 56.8553C50.3386 56.6686 50.5589 56.539 50.8335 56.4675C51.1081 56.3955 51.4124 56.3619 51.746 56.3652C52.6796 56.3676 53.1692 56.6527 53.2095 57.2225C53.2239 57.4255 53.1965 57.7035 53.1279 58.0572C53.1164 58.086 53.1116 58.1071 53.1121 58.1191C52.7626 60.1015 52.5879 61.0937 52.2394 63.0891C53.5205 62.7286 54.1623 62.5481 55.454 62.1886C55.3081 60.1265 55.2351 59.0988 55.0887 57.0358C55.0681 56.7459 55.0628 56.5294 55.0729 56.3854C55.0829 56.2414 55.1343 56.0676 55.2279 55.8636Z" fill="#117367"/>
<path fill-rule="evenodd" clip-rule="evenodd" d="M140.24 29.3669C140.24 38.2036 133.076 45.3672 124.24 45.3672C115.403 45.3672 108.24 38.2036 108.24 29.3669C108.24 20.5308 115.403 13.3672 124.24 13.3672C133.076 13.3672 140.24 20.5308 140.24 29.3669Z" fill="#67C380"/>
<path fill-rule="evenodd" clip-rule="evenodd" d="M140.24 27.3669C140.24 36.2036 133.076 43.3672 124.24 43.3672C115.403 43.3672 108.24 36.2036 108.24 27.3669C108.24 18.5301 115.403 11.3672 124.24 11.3672C133.076 11.3672 140.24 18.5301 140.24 27.3669Z" fill="white"/>
<path d="M117.515 36.7911L130.873 18.9885H132.637L119.291 36.7911H117.515ZM120.929 27.8898C119.852 27.8898 118.989 27.5041 118.34 26.7328C117.698 25.9614 117.378 24.9304 117.378 23.6397C117.378 22.3413 117.702 21.3141 118.351 20.558C119.001 19.7943 119.879 19.4124 120.986 19.4124C122.086 19.4124 122.961 19.7943 123.61 20.558C124.259 21.3141 124.583 22.3375 124.583 23.6282C124.583 24.9494 124.259 25.9919 123.61 26.7557C122.961 27.5118 122.067 27.8898 120.929 27.8898ZM120.963 26.7557C122.246 26.7557 122.888 25.7132 122.888 23.6282C122.888 22.6888 122.716 21.9404 122.372 21.3828C122.029 20.8177 121.567 20.5351 120.986 20.5351C120.398 20.5351 119.932 20.8177 119.589 21.3828C119.245 21.9404 119.073 22.6926 119.073 23.6397C119.073 24.5867 119.245 25.3428 119.589 25.9079C119.932 26.4731 120.391 26.7557 120.963 26.7557ZM129.131 36.3672C128.047 36.3672 127.184 35.9853 126.542 35.2216C125.901 34.4502 125.58 33.4192 125.58 32.1285C125.58 30.8302 125.905 29.7991 126.554 29.0354C127.203 28.2717 128.078 27.8898 129.177 27.8898C130.277 27.8898 131.152 28.2717 131.801 29.0354C132.458 29.7915 132.786 30.8149 132.786 32.1056C132.786 33.4345 132.461 34.477 131.812 35.2331C131.163 35.9891 130.269 36.3672 129.131 36.3672ZM129.154 35.2331C130.445 35.2331 131.09 34.1906 131.09 32.1056C131.09 31.1662 130.915 30.4177 130.563 29.8602C130.22 29.2951 129.758 29.0125 129.177 29.0125C128.597 29.0125 128.135 29.2951 127.791 29.8602C127.447 30.4177 127.276 31.1738 127.276 32.1285C127.276 33.0679 127.444 33.8202 127.78 34.3853C128.123 34.9505 128.582 35.2331 129.154 35.2331Z" fill="#014C43"/>
<path fill-rule="evenodd" clip-rule="evenodd" d="M277.923 90.751C277.923 97.8233 272.189 103.557 265.116 103.557C258.044 103.557 252.311 97.8233 252.311 90.751C252.311 83.6782 258.044 77.9446 265.116 77.9446C272.189 77.9446 277.923 83.6782 277.923 90.751Z" fill="#67C380"/>
<path fill-rule="evenodd" clip-rule="evenodd" d="M277.923 89.1665C277.923 96.2393 272.189 101.973 265.116 101.973C258.044 101.973 252.311 96.2393 252.311 89.1665C252.311 82.0942 258.044 76.3601 265.116 76.3601C272.189 76.3601 277.923 82.0942 277.923 89.1665Z" fill="white"/>
<path d="M259.503 96.1516L269.714 82.5432H271.062L260.86 96.1516H259.503ZM262.113 89.3474C261.29 89.3474 260.63 89.0526 260.134 88.463C259.643 87.8733 259.398 87.0852 259.398 86.0986C259.398 85.1061 259.646 84.3209 260.142 83.7429C260.639 83.1591 261.31 82.8672 262.157 82.8672C262.997 82.8672 263.666 83.1591 264.162 83.7429C264.658 84.3209 264.906 85.1032 264.906 86.0898C264.906 87.0998 264.658 87.8967 264.162 88.4805C263.666 89.0585 262.983 89.3474 262.113 89.3474ZM262.139 88.4805C263.12 88.4805 263.61 87.6836 263.61 86.0898C263.61 85.3718 263.479 84.7996 263.216 84.3735C262.953 83.9414 262.6 83.7254 262.157 83.7254C261.707 83.7254 261.351 83.9414 261.088 84.3735C260.825 84.7996 260.694 85.3747 260.694 86.0986C260.694 86.8225 260.825 87.4005 261.088 87.8325C261.351 88.2645 261.701 88.4805 262.139 88.4805ZM268.383 95.8276C267.554 95.8276 266.894 95.5357 266.404 94.9519C265.913 94.3623 265.668 93.5742 265.668 92.5875C265.668 91.5951 265.916 90.8069 266.412 90.2231C266.909 89.6393 267.577 89.3474 268.418 89.3474C269.258 89.3474 269.927 89.6393 270.423 90.2231C270.925 90.8011 271.176 91.5834 271.176 92.57C271.176 93.5858 270.928 94.3827 270.432 94.9607C269.936 95.5387 269.253 95.8276 268.383 95.8276ZM268.4 94.9607C269.387 94.9607 269.88 94.1638 269.88 92.57C269.88 91.8519 269.746 91.2798 269.477 90.8536C269.215 90.4216 268.861 90.2056 268.418 90.2056C267.974 90.2056 267.621 90.4216 267.358 90.8536C267.095 91.2798 266.964 91.8578 266.964 92.5875C266.964 93.3056 267.093 93.8807 267.349 94.3127C267.612 94.7447 267.962 94.9607 268.4 94.9607Z" fill="#FFC069"/>
<path fill-rule="evenodd" clip-rule="evenodd" d="M92.1809 120.729C92.1809 126.758 87.2936 131.646 81.2643 131.646C75.235 131.646 70.3477 126.758 70.3477 120.729C70.3477 114.7 75.235 109.812 81.2643 109.812C87.2936 109.812 92.1809 114.7 92.1809 120.729Z" fill="#67C380"/>
<path fill-rule="evenodd" clip-rule="evenodd" d="M92.1809 119.378C92.1809 125.408 87.2936 130.295 81.2643 130.295C75.235 130.295 70.3477 125.408 70.3477 119.378C70.3477 113.349 75.235 108.462 81.2643 108.462C87.2936 108.462 92.1809 113.349 92.1809 119.378Z" fill="white"/>
<path d="M76.6264 125.578L85.3306 113.978H86.4802L77.7835 125.578H76.6264ZM78.851 119.778C78.1493 119.778 77.5869 119.527 77.1639 119.024C76.7459 118.522 76.5368 117.85 76.5368 117.009C76.5368 116.163 76.7484 115.493 77.1714 115.001C77.5944 114.503 78.1667 114.254 78.8883 114.254C79.605 114.254 80.1748 114.503 80.5978 115.001C81.0208 115.493 81.2323 116.16 81.2323 117.001C81.2323 117.862 81.0208 118.541 80.5978 119.039C80.1748 119.532 79.5925 119.778 78.851 119.778ZM78.8734 119.039C79.7095 119.039 80.1275 118.36 80.1275 117.001C80.1275 116.389 80.0155 115.901 79.7916 115.538C79.5676 115.17 79.2666 114.986 78.8883 114.986C78.5051 114.986 78.2015 115.17 77.9776 115.538C77.7536 115.901 77.6417 116.392 77.6417 117.009C77.6417 117.626 77.7536 118.118 77.9776 118.487C78.2015 118.855 78.5001 119.039 78.8734 119.039ZM84.1959 125.302C83.4893 125.302 82.9269 125.053 82.5089 124.556C82.0908 124.053 81.8818 123.381 81.8818 122.54C81.8818 121.694 82.0933 121.022 82.5163 120.525C82.9393 120.027 83.5092 119.778 84.2258 119.778C84.9424 119.778 85.5123 120.027 85.9353 120.525C86.3633 121.017 86.5773 121.684 86.5773 122.525C86.5773 123.391 86.3658 124.071 85.9428 124.563C85.5197 125.056 84.9375 125.302 84.1959 125.302ZM84.2109 124.563C85.0519 124.563 85.4725 123.884 85.4725 122.525C85.4725 121.913 85.358 121.425 85.1291 121.062C84.9051 120.694 84.604 120.51 84.2258 120.51C83.8476 120.51 83.5465 120.694 83.3225 121.062C83.0986 121.425 82.9866 121.918 82.9866 122.54C82.9866 123.152 83.0961 123.643 83.3151 124.011C83.539 124.379 83.8376 124.563 84.2109 124.563Z" fill="#DD8A4F"/>
<path fill-rule="evenodd" clip-rule="evenodd" d="M207.516 118.261C208.45 130.257 201.439 143.089 190.486 148.257C179.632 153.379 167.741 147.937 166.445 135.547C165.155 123.221 173.064 108.709 184.69 103.839C195.817 99.1793 206.6 106.499 207.516 118.261Z" fill="#E8FFFC"/>
<path d="M190.184 142.313C190.455 144.452 190.582 145.496 190.805 147.508" stroke="#52C655" stroke-width="1.5" stroke-linecap="round" stroke-linejoin="round"/>
<path d="M184.904 105.393C185.175 107.532 185.302 108.576 185.524 110.588" stroke="#DB4D51" stroke-width="1.96" stroke-linecap="round" stroke-linejoin="round"/>
<path d="M172.969 132.818C170.765 133.742 169.647 134.208 167.367 135.155" stroke="#52C655" stroke-width="0.96" stroke-linecap="round" stroke-linejoin="round"/>
<path d="M174.925 122.071C173.211 121.039 172.355 120.524 170.645 119.502" stroke="#52C655" stroke-width="0.96" stroke-linecap="round" stroke-linejoin="round"/>
<path d="M188.4 127.796C188.176 123.065 187.929 118.335 187.637 113.608" stroke="#117367" stroke-width="1.44" stroke-linecap="round" stroke-linejoin="round"/>
<path d="M202.219 137.499C200.743 136.638 199.977 136.185 198.41 135.254" stroke="#52C655" stroke-width="0.96" stroke-linecap="round" stroke-linejoin="round"/>
<path d="M207.439 118.125C205.406 118.968 204.394 119.39 202.373 120.237" stroke="#52C655" stroke-width="0.96" stroke-linecap="round" stroke-linejoin="round"/>
<path d="M180.139 142.706C178.808 144.951 178.129 146.073 176.733 148.32" stroke="#52C655" stroke-width="0.96" stroke-linecap="round" stroke-linejoin="round"/>
<path d="M200.916 106.324C199.548 108.589 198.892 109.727 197.607 112.003" stroke="#52C655" stroke-width="0.96" stroke-linecap="round" stroke-linejoin="round"/>
<path fill-rule="evenodd" clip-rule="evenodd" d="M189.43 113.342C189.636 113.589 189.489 113.873 189.181 113.826C187.733 113.604 187.335 113.588 185.897 113.365C185.591 113.318 185.384 112.981 185.545 112.791C186.178 112.042 186.494 111.669 187.126 110.925C187.257 110.771 187.559 110.816 187.727 111.016C188.536 111.978 188.62 112.368 189.43 113.342Z" fill="#117367"/>
<path fill-rule="evenodd" clip-rule="evenodd" d="M153.03 72.195C153.03 74.4481 150.129 76.275 146.55 76.275C142.971 76.275 140.07 74.4481 140.07 72.195C140.07 69.9419 142.971 68.115 146.55 68.115C150.129 68.115 153.03 69.9419 153.03 72.195Z" fill="#C69C45"/>
<path fill-rule="evenodd" clip-rule="evenodd" d="M152.326 72.9149H140.775C140.386 72.9149 140.07 72.5995 140.07 72.2103V71.2195C140.07 70.8303 140.386 70.5149 140.775 70.5149H152.326C152.715 70.5149 153.03 70.8303 153.03 71.2195V72.2103C153.03 72.5995 152.715 72.9149 152.326 72.9149Z" fill="#DD8A4F"/>
<path fill-rule="evenodd" clip-rule="evenodd" d="M153.03 71.235C153.03 73.4881 150.129 75.315 146.55 75.315C142.971 75.315 140.07 73.4881 140.07 71.235C140.07 68.9819 142.971 67.155 146.55 67.155C150.129 67.155 153.03 68.9819 153.03 71.235Z" fill="#ECCC8B"/>
<path fill-rule="evenodd" clip-rule="evenodd" d="M164.07 69.7948C164.07 72.048 161.169 73.8748 157.59 73.8748C154.011 73.8748 151.11 72.048 151.11 69.7948C151.11 67.5417 154.011 65.7148 157.59 65.7148C161.169 65.7148 164.07 67.5417 164.07 69.7948Z" fill="#C69C45"/>
<path fill-rule="evenodd" clip-rule="evenodd" d="M163.366 70.515H151.815C151.426 70.515 151.11 70.1996 151.11 69.8104V68.8196C151.11 68.4304 151.426 68.115 151.815 68.115H163.366C163.755 68.115 164.07 68.4304 164.07 68.8196V69.8104C164.07 70.1996 163.755 70.515 163.366 70.515Z" fill="#DD8A4F"/>
<path fill-rule="evenodd" clip-rule="evenodd" d="M164.07 68.8349C164.07 71.088 161.169 72.9149 157.59 72.9149C154.011 72.9149 151.11 71.088 151.11 68.8349C151.11 66.5818 154.011 64.7549 157.59 64.7549C161.169 64.7549 164.07 66.5818 164.07 68.8349Z" fill="#ECCC8B"/>
<path fill-rule="evenodd" clip-rule="evenodd" d="M164.55 76.995C164.55 79.2482 161.649 81.075 158.07 81.075C154.491 81.075 151.59 79.2482 151.59 76.995C151.59 74.7419 154.491 72.915 158.07 72.915C161.649 72.915 164.55 74.7419 164.55 76.995Z" fill="#C69C45"/>
<path fill-rule="evenodd" clip-rule="evenodd" d="M163.846 77.7149H152.295C151.906 77.7149 151.59 77.3996 151.59 77.0103V76.0196C151.59 75.6303 151.906 75.3149 152.295 75.3149H163.846C164.235 75.3149 164.55 75.6303 164.55 76.0196V77.0103C164.55 77.3996 164.235 77.7149 163.846 77.7149Z" fill="#DD8A4F"/>
<path fill-rule="evenodd" clip-rule="evenodd" d="M164.55 76.0348C164.55 78.288 161.649 80.1148 158.07 80.1148C154.491 80.1148 151.59 78.288 151.59 76.0348C151.59 73.7817 154.491 71.9548 158.07 71.9548C161.649 71.9548 164.55 73.7817 164.55 76.0348Z" fill="#ECCC8B"/>
<path fill-rule="evenodd" clip-rule="evenodd" d="M180.39 68.3549C180.39 70.608 177.489 72.4349 173.91 72.4349C170.331 72.4349 167.43 70.608 167.43 68.3549C167.43 66.1018 170.331 64.2749 173.91 64.2749C177.489 64.2749 180.39 66.1018 180.39 68.3549Z" fill="#C69C45"/>
<path fill-rule="evenodd" clip-rule="evenodd" d="M179.686 69.075H168.135C167.746 69.075 167.43 68.7597 167.43 68.3704V67.3797C167.43 66.9904 167.746 66.675 168.135 66.675H179.686C180.075 66.675 180.39 66.9904 180.39 67.3797V68.3704C180.39 68.7597 180.075 69.075 179.686 69.075Z" fill="#DD8A4F"/>
<path fill-rule="evenodd" clip-rule="evenodd" d="M180.39 67.3949C180.39 69.6481 177.489 71.4749 173.91 71.4749C170.331 71.4749 167.43 69.6481 167.43 67.3949C167.43 65.1418 170.331 63.3149 173.91 63.3149C177.489 63.3149 180.39 65.1418 180.39 67.3949Z" fill="#ECCC8B"/>
</g>
<defs>
<clipPath id="clip0_5567_154637">
<rect width="328" height="164" fill="white"/>
</clipPath>
</defs>
</svg>
