<svg width="328" height="164" viewBox="0 0 328 164" fill="none" xmlns="http://www.w3.org/2000/svg">
<path d="M23.2189 161.504C33.6809 163.667 265.053 165.826 301.876 161.504C312.777 160.224 321.503 148.276 322.776 146.203C330.736 133.238 327.751 53.2794 325.761 26.266C324.69 11.7278 309.838 5.19571 302.871 3.03482C289.548 -1.09779 53.2799 -1.26366 22.2229 4.11573C8.32787 6.52168 3.29087 17.8712 2.29087 24.1796C-0.0421274 38.8847 -1.42113 129.331 2.31887 141.514C5.30487 151.239 12.7689 159.343 23.2189 161.504Z" fill="#BBF0D3"/>
<mask id="mask0_5570_165347" style="mask-type:alpha" maskUnits="userSpaceOnUse" x="0" y="0" width="328" height="164">
<path fill-rule="evenodd" clip-rule="evenodd" d="M23.2189 161.504C33.6809 163.667 265.053 165.826 301.876 161.504C312.777 160.224 321.503 148.276 322.776 146.203C330.736 133.238 327.751 53.2794 325.761 26.266C324.69 11.7278 309.838 5.19571 302.871 3.03482C289.548 -1.09779 53.2799 -1.26366 22.2229 4.11573C8.32787 6.52168 3.29087 17.8712 2.29087 24.1796C-0.0421274 38.8847 -1.42113 129.331 2.31887 141.514C5.30487 151.239 12.7689 159.343 23.2189 161.504Z" fill="white"/>
</mask>
<g mask="url(#mask0_5570_165347)">
<path d="M-53 152.15H350.92V-46.46H-53V152.15Z" fill="#EAFFF2"/>
<path d="M350.92 227.294V124.042C301.741 91.1254 239.341 58.4775 171.439 58.4775C80.6317 58.4775 -0.33596 84.3009 -53 139.274V227.294H350.92Z" fill="#EAFFF2"/>
<path d="M341.953 126.668H264.308C260.86 126.668 258.04 123.847 258.04 120.4V55.2116C258.04 51.7648 260.86 48.9438 264.308 48.9438H341.953C345.4 48.9438 348.22 51.7648 348.22 55.2116V120.4C348.22 123.847 345.4 126.668 341.953 126.668Z" fill="#BBF0D3"/>
<path d="M335.977 86.0086H269.812C268.012 86.0086 266.539 84.536 266.539 82.7362V62.9992C266.539 61.1994 268.012 59.7268 269.812 59.7268H335.977C337.776 59.7268 339.25 61.1994 339.25 62.9992V82.7362C339.25 84.536 337.776 86.0086 335.977 86.0086Z" fill="#EDFFF5"/>
<path d="M335.977 116.11H269.812C268.012 116.11 266.539 114.637 266.539 112.837V93.1003C266.539 91.3005 268.012 89.8279 269.812 89.8279H335.977C337.776 89.8279 339.25 91.3005 339.25 93.1003V112.837C339.25 114.637 337.776 116.11 335.977 116.11Z" fill="#EDFFF5"/>
<path d="M283.658 156.554H-28.69C-37.8976 156.554 -44.167 147.566 -40.6845 139.359L-8.64954 63.8711C-6.65856 59.1796 -1.91844 56.114 3.34494 56.114H246.144C251.133 56.114 255.679 58.8718 257.832 63.2048L295.346 138.694C299.461 146.974 293.192 156.554 283.658 156.554Z" fill="#BBF0D3"/>
<path d="M-28.6899 156.554H283.658C291.746 156.554 297.481 149.661 296.523 142.514H-41.5527C-42.5199 149.711 -36.7246 156.554 -28.6899 156.554Z" fill="#84D7CC"/>
<path d="M256.96 171.134H278.56V149.534H256.96V171.134Z" fill="#84D7CC"/>
<path d="M-20.0601 171.134H1.53994V149.534H-20.0601V171.134Z" fill="#84D7CC"/>
<path d="M13.8373 21.2481L17.222 22.1445C17.593 22.2422 17.8371 22.5976 17.789 22.9788C17.4936 25.3586 18.9943 27.6514 21.3773 28.2821C23.7603 28.9134 26.1995 27.6633 27.1191 25.4482C27.2665 25.0945 27.6553 24.9066 28.0258 25.0038L31.4105 25.9002C32.2777 26.1302 32.7951 27.0191 32.5656 27.8869L24.4234 58.6426C24.1934 59.5103 23.304 60.0277 22.4362 59.7976L4.86355 55.145C3.99523 54.9155 3.47845 54.0261 3.70849 53.1578L11.8506 22.4032C12.0796 21.5348 12.9695 21.0186 13.8373 21.2481Z" fill="white"/>
<path d="M9.87402 29.3604L10.8935 25.6074L21.5629 46.6345L18.642 48.0633L9.87402 29.3604Z" fill="#DAF6E5"/>
<path d="M-12.8977 27.1315L-9.7641 25.5703C-9.42174 25.3991 -9.0027 25.505 -8.78724 25.822C-7.43832 27.8054 -4.79826 28.5365 -2.5902 27.4371C-0.384296 26.3377 0.622264 23.7894 -0.148856 21.5182C-0.271436 21.1547 -0.104576 20.7578 0.239404 20.5856L3.37302 19.025C4.17546 18.6248 5.15232 18.9521 5.55192 19.7551L19.7388 48.2309C20.1395 49.035 19.8128 50.0102 19.0087 50.4114L2.73852 58.5173C1.93554 58.917 0.959764 58.5908 0.559084 57.7878L-13.6283 29.3104C-14.0279 28.5074 -13.7012 27.5316 -12.8977 27.1315Z" fill="#BBF0D3"/>
<path d="M40.1976 67.6618C41.2274 67.6618 42.0622 67.0149 42.0622 66.2167V43.0588H43.1746C44.2044 43.0588 45.0387 43.7058 45.0387 44.5039V68.5236C45.0387 69.3212 44.2044 69.9681 43.1746 69.9681H-5.68133C-6.71111 69.9681 -7.54541 69.3212 -7.54541 68.5236V67.6618H40.1976Z" fill="#47A99C"/>
<path d="M-6.22931 69.316H42.5359C43.3249 69.316 43.9642 68.8203 43.9642 68.2079V44.0062C43.9642 43.3944 43.3249 42.8987 42.5359 42.8987H-6.22931C-7.01825 42.8987 -7.65869 43.3944 -7.65869 44.0062V68.2079C-7.65869 68.8203 -7.01825 69.316 -6.22931 69.316Z" fill="#84D7CC"/>
<path d="M55.9222 66.9215L58.8641 65.4468C59.369 65.1951 59.5742 64.5817 59.3226 64.0773L37.8101 20.9022C38.5828 20.7839 40.26 20.7294 40.6272 21.4665L62.2159 64.8133C62.6706 65.7265 62.2991 66.8362 61.3859 67.2909L58.3004 68.8277C57.3861 69.2829 56.2764 68.9119 55.8212 67.9977L55.3779 67.0862C55.562 67.0576 55.7467 67.009 55.9222 66.9215Z" fill="#47A99C"/>
<path d="M56.3802 55.6582L39.6661 22.0394C39.2104 21.1257 38.1007 20.7526 37.1865 21.2083L34.0993 22.7452C33.1856 23.2009 32.8141 24.3112 33.2688 25.2248L54.8661 68.589C55.3213 69.5032 56.431 69.8753 57.3452 69.4195L60.4318 67.8821C61.3461 67.4269 61.7187 66.3172 61.2624 65.4035L59.8465 62.6209" fill="#84D7CC"/>
<path d="M283.682 37.1714C283.682 37.1714 280.39 28.4871 289.673 19.96C289.673 19.96 294.971 28.7053 283.682 37.1714Z" fill="#84D7CC"/>
<path d="M284.179 39.478C284.179 39.478 275.253 36.9135 273.984 24.3726C273.984 24.3726 284.161 25.3667 284.179 39.478Z" fill="#84D7CC"/>
<path d="M290.044 36.7673H274.614V43.6437C274.614 46.787 277.162 49.3348 280.304 49.3348H284.354C287.496 49.3348 290.044 46.787 290.044 43.6437V36.7673Z" fill="#BBF0D3"/>
<path d="M279.713 36.7674L278.511 35.6938L283.959 36.0961L284.059 36.7674H279.713Z" fill="#EAFFF2"/>
<mask id="mask1_5570_165347" style="mask-type:alpha" maskUnits="userSpaceOnUse" x="278" y="35" width="7" height="2">
<path fill-rule="evenodd" clip-rule="evenodd" d="M279.713 36.7676H284.059L283.959 36.0964L278.511 35.6941L279.713 36.7676Z" fill="white"/>
</mask>
<g mask="url(#mask1_5570_165347)">
<path d="M273.7 49.5957H291.496V19.9341H273.7V49.5957Z" fill="#EAFFF2"/>
</g>
<mask id="mask2_5570_165347" style="mask-type:alpha" maskUnits="userSpaceOnUse" x="278" y="35" width="7" height="2">
<path fill-rule="evenodd" clip-rule="evenodd" d="M279.713 36.7676H284.059L283.959 36.0964L278.511 35.6941L279.713 36.7676Z" fill="white"/>
</mask>
<g mask="url(#mask2_5570_165347)">
<path d="M274.273 41.0049H288.296V31.4561H274.273V41.0049Z" fill="#EAFFF2"/>
</g>
<path d="M330.4 49.6341H311.5C308.518 49.6341 306.1 47.2166 306.1 44.2341H335.8C335.8 47.2166 333.382 49.6341 330.4 49.6341Z" fill="#84D7CC"/>
<path d="M306.404 74.2041C306.404 76.1427 304.832 77.7141 302.894 77.7141C300.955 77.7141 299.384 76.1427 299.384 74.2041C299.384 72.2655 300.955 70.6941 302.894 70.6941C304.832 70.6941 306.404 72.2655 306.404 74.2041Z" fill="#BBF0D3"/>
<path d="M306.64 102.824C306.64 104.763 305.069 106.334 303.13 106.334C301.192 106.334 299.62 104.763 299.62 102.824C299.62 100.885 301.192 99.314 303.13 99.314C305.069 99.314 306.64 100.885 306.64 102.824Z" fill="#BBF0D3"/>
<path fill-rule="evenodd" clip-rule="evenodd" d="M220.473 51.5217L219.404 53.4751L217.452 54.543C217.129 54.7197 217.129 55.1825 217.452 55.3593L219.404 56.4271L220.473 58.3805C220.649 58.7031 221.113 58.7031 221.289 58.3805L222.357 56.4271L224.311 55.3593C224.633 55.1825 224.633 54.7197 224.311 54.543L222.357 53.4751L221.289 51.5217C221.113 51.1991 220.649 51.1991 220.473 51.5217Z" fill="#FFC54F"/>
<path fill-rule="evenodd" clip-rule="evenodd" d="M228.55 47.8503L227.481 49.8037L225.529 50.8716C225.206 51.0483 225.206 51.5112 225.529 51.6879L227.481 52.7557L228.55 54.7091C228.726 55.0317 229.189 55.0317 229.365 54.7091L230.434 52.7557L232.387 51.6879C232.71 51.5112 232.71 51.0483 232.387 50.8716L230.434 49.8037L229.365 47.8503C229.189 47.5277 228.726 47.5277 228.55 47.8503Z" fill="#FFC54F"/>
<path fill-rule="evenodd" clip-rule="evenodd" d="M224.145 41.242L223.076 43.1953L221.123 44.2632C220.801 44.4399 220.801 44.9028 221.123 45.0795L223.076 46.1473L224.145 48.1007C224.32 48.4233 224.784 48.4233 224.96 48.1007L226.029 46.1473L227.982 45.0795C228.305 44.9028 228.305 44.4399 227.982 44.2632L226.029 43.1953L224.96 41.242C224.784 40.9193 224.32 40.9193 224.145 41.242Z" fill="#FFC54F"/>
<path fill-rule="evenodd" clip-rule="evenodd" d="M78.6826 48.6616L77.6138 50.615L75.6614 51.6828C75.3388 51.8596 75.3388 52.3224 75.6614 52.4992L77.6138 53.567L78.6826 55.5204C78.8584 55.843 79.3222 55.843 79.498 55.5204L80.5668 53.567L82.5201 52.4992C82.8427 52.3224 82.8427 51.8596 82.5201 51.6828L80.5668 50.615L79.498 48.6616C79.3222 48.339 78.8584 48.339 78.6826 48.6616Z" fill="#FFC54F"/>
<path fill-rule="evenodd" clip-rule="evenodd" d="M71.3403 53.8013L70.2715 55.7546L68.3191 56.8225C67.9965 56.9992 67.9965 57.4621 68.3191 57.6388L70.2715 58.7067L71.3403 60.66C71.5161 60.9826 71.9799 60.9826 72.1557 60.66L73.2245 58.7067L75.1779 57.6388C75.5005 57.4621 75.5005 56.9992 75.1779 56.8225L73.2245 55.7546L72.1557 53.8013C71.9799 53.4787 71.5161 53.4787 71.3403 53.8013Z" fill="#FFC54F"/>
<path fill-rule="evenodd" clip-rule="evenodd" d="M65.5474 42.9567L63.7304 46.2774L60.4113 48.0928C59.8629 48.3932 59.8629 49.1801 60.4113 49.4805L63.7304 51.2959L65.5474 54.6166C65.8462 55.165 66.6347 55.165 66.9335 54.6166L68.7505 51.2959L72.0712 49.4805C72.6196 49.1801 72.6196 48.3932 72.0712 48.0928L68.7505 46.2774L66.9335 42.9567C66.6347 42.4083 65.8462 42.4083 65.5474 42.9567Z" fill="#FFC54F"/>
<path fill-rule="evenodd" clip-rule="evenodd" d="M108.464 100.8C106.671 98.3866 107.705 94.928 110.527 93.8932L185.24 66.503C186.907 65.8921 188.777 66.3896 189.92 67.7477L221.498 105.28C223.145 107.237 222.406 110.232 220.037 111.198L149.409 139.995C144.061 142.176 137.915 140.459 134.472 135.822L108.464 100.8Z" fill="#99DDB8"/>
<path fill-rule="evenodd" clip-rule="evenodd" d="M201.939 86.1394C200.682 84.0363 201.785 81.3145 204.152 80.6803L223.813 75.4119C225.405 74.9855 227.086 75.6655 227.934 77.0783L245.941 107.095C247.18 109.162 246.14 111.842 243.83 112.531L224.419 118.319C222.801 118.802 221.062 118.125 220.196 116.676L201.939 86.1394Z" fill="#99DDB8"/>
<path fill-rule="evenodd" clip-rule="evenodd" d="M67.2379 74.5784C66.0157 71.8931 67.6654 68.778 70.5735 68.2799L145.838 55.3887C147.57 55.0921 149.304 55.9 150.191 57.4166L175.474 100.642C176.788 102.888 175.486 105.758 172.93 106.248L98.7586 120.477C93.0215 121.578 87.2766 118.609 84.8568 113.292L67.2379 74.5784Z" fill="#99DDB8"/>
<path fill-rule="evenodd" clip-rule="evenodd" d="M69.0089 72.2598C67.7867 69.5745 69.4364 66.4594 72.3444 65.9613L147.609 53.0701C149.341 52.7735 151.075 53.5814 151.962 55.098L177.245 98.3235C178.559 100.569 177.257 103.439 174.701 103.929L100.53 118.159C94.7925 119.259 89.0476 116.29 86.6278 110.973L69.0089 72.2598Z" fill="#99762F"/>
<mask id="mask3_5570_165347" style="mask-type:alpha" maskUnits="userSpaceOnUse" x="68" y="53" width="110" height="66">
<path fill-rule="evenodd" clip-rule="evenodd" d="M69.0089 72.2598C67.7867 69.5745 69.4364 66.4594 72.3444 65.9613L147.609 53.0701C149.341 52.7735 151.075 53.5814 151.962 55.098L177.245 98.3235C178.559 100.569 177.257 103.439 174.701 103.929L100.53 118.159C94.7925 119.259 89.0476 116.29 86.6278 110.973L69.0089 72.2598Z" fill="white"/>
</mask>
<g mask="url(#mask3_5570_165347)">
<path fill-rule="evenodd" clip-rule="evenodd" d="M70.1736 82.6185L171.924 64.5529L172.667 68.7977L70.9165 86.8633L70.1736 82.6185Z" fill="#D8B56D"/>
<path fill-rule="evenodd" clip-rule="evenodd" d="M67.8732 70.0295C67.5051 67.6667 69.1001 65.4452 71.4567 65.0388L150.481 51.4081L153.709 55.6336L67.8732 70.0295Z" fill="#D8B56D"/>
<path fill-rule="evenodd" clip-rule="evenodd" d="M64.1444 79.7411C63.7767 77.3789 65.3729 75.1588 67.7292 74.7551L155.18 59.7739L158.661 63.9591L64.1444 79.7411Z" fill="#D8B56D"/>
<rect x="93.0303" y="94.9048" width="83.3079" height="4.21812" transform="rotate(-11 93.0303 94.9048)" fill="#E6CE5A"/>
<rect x="93.2734" y="87.4521" width="83.3079" height="4.21812" transform="rotate(-11 93.2734 87.4521)" fill="#D8B56D"/>
<rect x="93.8257" y="102.541" width="83.3079" height="4.21812" transform="rotate(-11 93.8257 102.541)" fill="#E6CE5A"/>
<rect x="95.4761" y="111.398" width="83.3079" height="4.21812" transform="rotate(-11 95.4761 111.398)" fill="#E6CE5A"/>
<path d="M110.628 115.476C123.066 111.673 129.648 97.6994 125.584 84.4053C121.519 71.1112 108.248 63.2071 95.8108 67.0096C83.3736 70.812 76.791 84.7861 80.8554 98.0801C84.9198 111.374 98.1912 119.278 110.628 115.476Z" fill="#D8B56D" stroke="#99762F" stroke-width="2.3113"/>
<path fill-rule="evenodd" clip-rule="evenodd" d="M157.663 92.7512C157.579 92.767 157.497 92.8059 157.408 92.7637C157.49 92.7506 157.572 92.7376 157.655 92.7246C157.656 92.734 157.659 92.7427 157.663 92.7512Z" fill="#A7D589"/>
<path fill-rule="evenodd" clip-rule="evenodd" d="M156.724 92.8997C156.725 92.8905 156.724 92.8813 156.723 92.8722C156.796 92.8606 156.869 92.849 156.942 92.8375C156.881 92.9031 156.799 92.8899 156.724 92.8997Z" fill="#B2DA99"/>
<path fill-rule="evenodd" clip-rule="evenodd" d="M94.8352 82.6261C94.7761 82.3729 94.8924 82.1126 95.1242 81.9948C96.1709 81.4631 99.1832 80.0187 102.363 79.2925C105.548 78.5652 108.9 78.5581 110.072 78.5822C110.33 78.5876 110.547 78.7688 110.606 79.0202L110.82 79.9366C110.908 80.3138 110.609 80.6735 110.222 80.6649C108.824 80.6338 105.757 80.6605 102.838 81.327C99.9163 81.9944 97.144 83.3031 95.9043 83.936C95.5612 84.1112 95.1376 83.9207 95.05 83.5456L94.8352 82.6261Z" fill="#99762F"/>
<path fill-rule="evenodd" clip-rule="evenodd" d="M155.862 101.082C155.47 101.583 154.965 101.937 154.376 102.164C152.571 102.86 150.587 102.106 149.72 100.404C149.634 100.235 149.562 100.061 149.506 99.8796C149.468 99.8299 149.494 99.7576 149.448 99.7104C149.416 99.5481 149.385 99.3858 149.353 99.2235C149.374 99.1713 149.342 99.1242 149.339 99.0741C149.223 98.4104 149.379 97.7876 149.656 97.1911C150.044 96.3562 150.684 95.7669 151.519 95.3806C151.653 95.3186 151.797 95.286 151.941 95.2581C151.997 95.2396 152.062 95.2516 152.111 95.2098C152.265 95.1799 152.419 95.1499 152.574 95.1199C152.627 95.1407 152.675 95.1084 152.726 95.1057C153.436 94.9883 154.092 95.1615 154.724 95.4622C154.76 95.4791 154.79 95.5043 154.803 95.5443C154.809 95.6417 154.742 95.7066 154.691 95.7755C154.189 96.4604 153.968 97.2291 154.017 98.0672C154.066 98.9242 154.378 99.6796 154.968 100.314C155.174 100.536 155.405 100.73 155.664 100.89C155.734 100.934 155.808 100.973 155.862 101.039C155.87 101.053 155.87 101.068 155.862 101.082Z" fill="#BCD430"/>
<path fill-rule="evenodd" clip-rule="evenodd" d="M155.862 101.082C155.859 101.074 155.856 101.065 155.853 101.057C156.017 100.838 156.166 100.61 156.288 100.366C156.602 99.7402 156.719 99.0817 156.652 98.385C156.588 97.7229 156.349 97.1323 155.959 96.6015C155.679 96.2221 155.337 95.905 154.924 95.6668C154.874 95.6376 154.818 95.6146 154.803 95.5494C154.801 95.4724 154.859 95.4268 154.904 95.3784C155.258 94.9933 155.674 94.6892 156.156 94.479C156.286 94.4223 156.424 94.3895 156.563 94.36C156.619 94.3412 156.685 94.3532 156.735 94.3113C156.879 94.2832 157.024 94.2551 157.168 94.227C157.231 94.2517 157.289 94.2006 157.351 94.2166C158.108 94.1485 158.817 94.2961 159.475 94.6721C159.5 94.7449 159.449 94.7921 159.412 94.8409C159.081 95.2811 158.851 95.7677 158.757 96.3084C158.52 97.6741 158.928 98.8196 159.962 99.7454C160.09 99.8596 160.232 99.954 160.374 100.05C160.424 100.084 160.491 100.107 160.492 100.185C160.137 100.648 159.677 100.981 159.144 101.208C158.08 101.661 157.023 101.631 155.984 101.127C155.945 101.108 155.909 101.08 155.862 101.082Z" fill="#74BD45"/>
<path fill-rule="evenodd" clip-rule="evenodd" d="M151.939 95.2686C151.939 95.2602 151.939 95.2519 151.938 95.2435C151.996 95.2323 152.053 95.2211 152.111 95.2098C152.067 95.2672 152 95.2592 151.939 95.2686Z" fill="#D9E68B"/>
<path fill-rule="evenodd" clip-rule="evenodd" d="M156.563 94.37C156.564 94.3615 156.563 94.3531 156.561 94.3448C156.619 94.3336 156.677 94.3223 156.735 94.3111C156.689 94.365 156.624 94.3608 156.563 94.37Z" fill="#BDDFA8"/>
<path fill-rule="evenodd" clip-rule="evenodd" d="M157.351 94.2165C157.29 94.2312 157.231 94.2645 157.168 94.2269C157.226 94.2157 157.283 94.2044 157.341 94.1932C157.343 94.2013 157.347 94.209 157.351 94.2165Z" fill="#A7D58A"/>
<path fill-rule="evenodd" clip-rule="evenodd" d="M149.448 99.7104C149.501 99.7551 149.497 99.8198 149.507 99.8795C149.498 99.8812 149.49 99.8821 149.481 99.8822C149.47 99.825 149.459 99.7677 149.448 99.7104Z" fill="#E5EEB1"/>
<path fill-rule="evenodd" clip-rule="evenodd" d="M152.718 95.0919C152.721 95.0996 152.723 95.1073 152.726 95.1149C152.676 95.1284 152.626 95.1542 152.574 95.12C152.622 95.1106 152.67 95.1012 152.718 95.0919Z" fill="#E0EBA0"/>
<path fill-rule="evenodd" clip-rule="evenodd" d="M149.325 99.0804C149.332 99.0752 149.339 99.0724 149.348 99.0721C149.362 99.1221 149.388 99.1718 149.353 99.2236C149.344 99.1759 149.334 99.1282 149.325 99.0804Z" fill="#DFEBA0"/>
<path fill-rule="evenodd" clip-rule="evenodd" d="M160.492 100.185C160.209 99.979 159.915 99.7876 159.673 99.5297C159.267 99.0972 158.972 98.6055 158.803 98.0347C158.518 97.0685 158.628 96.1451 159.095 95.2587C159.203 95.0534 159.347 94.8669 159.475 94.6718C159.751 94.3813 160.038 94.1059 160.382 93.8912C162.384 92.6406 165.054 93.5593 165.829 95.7678C166.494 97.6652 165.489 99.7686 163.588 100.432C162.565 100.789 161.565 100.72 160.601 100.224C160.566 100.206 160.535 100.18 160.492 100.185Z" fill="#0AA94E"/>
<path fill-rule="evenodd" clip-rule="evenodd" d="M154.792 95.5524C154.8 95.5496 154.808 95.5487 154.817 95.5495C155.153 95.7488 155.464 95.9795 155.73 96.267C156.128 96.6978 156.408 97.1913 156.569 97.7572C156.816 98.6228 156.744 99.4608 156.373 100.277C156.257 100.533 156.123 100.782 155.933 100.996C155.91 101.022 155.889 101.048 155.853 101.057C154.943 100.531 154.336 99.7744 154.085 98.7521C153.812 97.6434 154.026 96.6257 154.694 95.697C154.728 95.6495 154.759 95.6006 154.792 95.5524Z" fill="#0AA94E"/>
<path fill-rule="evenodd" clip-rule="evenodd" d="M160.502 96.1217C160.428 96.1879 160.374 96.2284 160.329 96.2774C160.265 96.3473 160.207 96.3461 160.142 96.2815C160.071 96.2101 160.118 96.1604 160.171 96.1111C160.75 95.5783 161.428 95.2534 162.212 95.1603C162.825 95.0875 163.422 95.1715 164.004 95.3694C164.073 95.3929 164.154 95.4056 164.117 95.5142C164.082 95.6173 164.013 95.6149 163.93 95.5855C163.876 95.5666 163.821 95.551 163.76 95.532C163.766 95.5933 163.805 95.6254 163.831 95.6634C164.272 96.3029 164.715 96.9418 165.156 97.581C165.289 97.773 165.278 97.9054 165.11 98.0715C164.953 98.2258 164.76 98.3207 164.555 98.3907C164.198 98.5117 163.834 98.5751 163.456 98.5363C163.329 98.5232 163.205 98.4964 163.09 98.4397C162.905 98.3486 162.851 98.2368 162.896 98.0356C163.078 97.2253 163.256 96.4142 163.447 95.6059C163.478 95.4715 163.442 95.4444 163.321 95.4236C162.43 95.2681 161.599 95.4128 160.826 95.89C160.722 95.954 160.712 95.9969 160.782 96.0972C161.262 96.781 161.735 97.4695 162.21 98.1564C162.339 98.3431 162.33 98.4735 162.17 98.6362C162.012 98.7967 161.815 98.8937 161.604 98.9649C161.248 99.0856 160.883 99.1486 160.505 99.1094C160.403 99.0988 160.302 99.0779 160.206 99.041C159.962 98.9475 159.9 98.832 159.957 98.5781C160.127 97.8199 160.297 97.0618 160.467 96.3037C160.478 96.2537 160.487 96.2033 160.502 96.1217Z" fill="#FEFEFE"/>
<path fill-rule="evenodd" clip-rule="evenodd" d="M160.193 98.5042C160.201 98.4538 160.204 98.4254 160.211 98.3977C160.365 97.7107 160.519 97.0236 160.673 96.3363C160.711 96.3458 160.723 96.3724 160.739 96.3957C161.12 96.9473 161.5 97.4998 161.884 98.049C161.946 98.1371 161.949 98.1666 161.83 98.1887C161.29 98.2878 160.751 98.3957 160.193 98.5042Z" fill="#0AA94E"/>
<path fill-rule="evenodd" clip-rule="evenodd" d="M164.903 97.5818C164.306 97.6978 163.732 97.8095 163.137 97.9251C163.3 97.1976 163.459 96.4839 163.627 95.7346C164.059 96.3606 164.475 96.9629 164.903 97.5818Z" fill="#0AA94E"/>
</g>
<path opacity="0.3" fill-rule="evenodd" clip-rule="evenodd" d="M106.859 97.0063C105.179 94.5583 106.289 91.183 109.094 90.2099L184.177 64.1613C185.957 63.5439 187.93 64.1813 189.012 65.723L205.124 88.6764C206.652 90.8536 205.506 93.8862 202.92 94.5079L118.989 114.683L106.859 97.0063Z" fill="#CC9D3F"/>
<path fill-rule="evenodd" clip-rule="evenodd" d="M110.544 96.4865C108.874 94.0542 109.957 90.6999 112.735 89.7045L184.617 63.9396C186.271 63.3467 188.12 63.8412 189.256 65.1807L221.662 103.359C223.345 105.343 222.561 108.395 220.13 109.322L149.556 136.215C144.097 138.295 137.924 136.368 134.617 131.552L110.544 96.4865Z" fill="#99762F"/>
<mask id="mask4_5570_165347" style="mask-type:alpha" maskUnits="userSpaceOnUse" x="109" y="63" width="114" height="75">
<path fill-rule="evenodd" clip-rule="evenodd" d="M110.544 96.4865C108.874 94.0542 109.957 90.6999 112.735 89.7045L184.617 63.9396C186.271 63.3467 188.12 63.8412 189.256 65.1807L221.662 103.359C223.345 105.343 222.561 108.395 220.13 109.322L149.556 136.215C144.097 138.295 137.924 136.368 134.617 131.552L110.544 96.4865Z" fill="white"/>
</mask>
<g mask="url(#mask4_5570_165347)">
<path fill-rule="evenodd" clip-rule="evenodd" d="M113.489 106.486L210.557 71.0257L212.026 75.077L114.958 110.537L113.489 106.486Z" fill="#D8B56D"/>
<path fill-rule="evenodd" clip-rule="evenodd" d="M109.038 94.4874C108.265 92.2243 109.45 89.7597 111.7 88.9501L187.157 61.8042L191.07 65.405L109.038 94.4874Z" fill="#D8B56D"/>
<path fill-rule="evenodd" clip-rule="evenodd" d="M107.052 104.699C106.28 102.437 107.466 99.9732 109.717 99.1665L193.238 69.2272L197.392 72.7444L107.052 104.699Z" fill="#D8B56D"/>
<rect x="138.132" y="114.616" width="83.3079" height="4.21812" transform="rotate(-21 138.132 114.616)" fill="#D8B56D"/>
<rect x="137.078" y="107.234" width="83.3079" height="4.21812" transform="rotate(-21 137.078 107.234)" fill="#D8B56D"/>
<rect x="140.241" y="121.998" width="83.3079" height="4.21812" transform="rotate(-21 140.241 121.998)" fill="#D8B56D"/>
<rect x="143.405" y="130.434" width="83.3079" height="4.21812" transform="rotate(-21 143.405 130.434)" fill="#D8B56D"/>
<path d="M159.035 131.819C170.623 125.915 174.679 111.01 168.368 98.6236C162.057 86.2372 147.615 80.7578 136.027 86.6621C124.439 92.5665 120.383 107.471 126.694 119.858C133.005 132.244 147.448 137.723 159.035 131.819Z" fill="#D8B56D" stroke="#99762F" stroke-width="2.3113"/>
<path fill-rule="evenodd" clip-rule="evenodd" d="M201.41 101.272C201.329 101.302 201.255 101.355 201.161 101.329C201.239 101.302 201.318 101.275 201.397 101.247C201.4 101.256 201.404 101.265 201.41 101.272Z" fill="#A7D589"/>
<path fill-rule="evenodd" clip-rule="evenodd" d="M200.51 101.581C200.509 101.572 200.508 101.563 200.505 101.554C200.575 101.53 200.645 101.506 200.715 101.482C200.665 101.557 200.583 101.559 200.51 101.581Z" fill="#B2DA99"/>
<path fill-rule="evenodd" clip-rule="evenodd" d="M137.778 102.211C137.676 101.972 137.745 101.695 137.953 101.539C138.891 100.833 141.607 98.8878 144.613 97.6204C147.622 96.3512 150.923 95.762 152.081 95.5823C152.336 95.5427 152.582 95.6836 152.683 95.9209L153.053 96.7862C153.205 97.1424 152.973 97.5486 152.59 97.6074C151.209 97.8194 148.192 98.3784 145.434 99.5416C142.672 100.706 140.169 102.476 139.058 103.315C138.751 103.547 138.301 103.433 138.149 103.079L137.778 102.211Z" fill="#99762F"/>
<path fill-rule="evenodd" clip-rule="evenodd" d="M201.081 109.79C200.783 110.351 200.347 110.787 199.806 111.113C198.149 112.112 196.064 111.714 194.916 110.189C194.802 110.037 194.7 109.878 194.614 109.709C194.567 109.667 194.581 109.591 194.527 109.552C194.467 109.398 194.408 109.244 194.349 109.089C194.361 109.034 194.321 108.993 194.31 108.944C194.08 108.311 194.125 107.671 194.294 107.035C194.532 106.145 195.059 105.454 195.815 104.929C195.936 104.844 196.072 104.787 196.209 104.735C196.261 104.707 196.327 104.707 196.368 104.658C196.515 104.601 196.661 104.545 196.808 104.489C196.864 104.5 196.906 104.46 196.955 104.448C197.634 104.209 198.31 104.266 198.985 104.452C199.023 104.463 199.057 104.482 199.077 104.52C199.1 104.614 199.045 104.69 199.007 104.767C198.632 105.528 198.548 106.324 198.741 107.141C198.938 107.976 199.377 108.666 200.067 109.188C200.309 109.371 200.57 109.522 200.853 109.635C200.93 109.666 201.01 109.691 201.074 109.747C201.085 109.76 201.087 109.774 201.081 109.79Z" fill="#BCD430"/>
<path fill-rule="evenodd" clip-rule="evenodd" d="M201.081 109.789C201.077 109.782 201.072 109.774 201.068 109.765C201.191 109.522 201.299 109.272 201.377 109.01C201.577 108.339 201.578 107.67 201.391 106.996C201.213 106.355 200.875 105.815 200.398 105.36C200.058 105.035 199.665 104.782 199.218 104.619C199.163 104.599 199.104 104.586 199.077 104.524C199.063 104.449 199.112 104.394 199.147 104.338C199.43 103.897 199.786 103.526 200.224 103.235C200.342 103.157 200.473 103.1 200.604 103.047C200.657 103.019 200.723 103.019 200.765 102.969C200.902 102.917 201.04 102.864 201.177 102.811C201.243 102.825 201.292 102.764 201.356 102.769C202.089 102.571 202.813 102.593 203.527 102.849C203.564 102.916 203.522 102.972 203.494 103.026C203.244 103.517 203.102 104.036 203.104 104.585C203.107 105.971 203.708 107.028 204.887 107.761C205.033 107.851 205.189 107.919 205.345 107.989C205.4 108.014 205.471 108.025 205.486 108.102C205.216 108.619 204.821 109.027 204.336 109.343C203.366 109.973 202.32 110.128 201.209 109.812C201.167 109.8 201.127 109.778 201.081 109.789Z" fill="#74BD45"/>
<path fill-rule="evenodd" clip-rule="evenodd" d="M196.209 104.746C196.208 104.737 196.206 104.729 196.204 104.721C196.259 104.7 196.313 104.679 196.368 104.658C196.334 104.722 196.267 104.726 196.209 104.746Z" fill="#D9E68B"/>
<path fill-rule="evenodd" clip-rule="evenodd" d="M200.607 103.057C200.606 103.049 200.604 103.041 200.601 103.033C200.655 103.012 200.71 102.991 200.765 102.97C200.73 103.03 200.665 103.038 200.607 103.057Z" fill="#BDDFA8"/>
<path fill-rule="evenodd" clip-rule="evenodd" d="M201.356 102.769C201.299 102.794 201.246 102.837 201.177 102.811C201.232 102.79 201.287 102.769 201.342 102.748C201.346 102.756 201.35 102.763 201.356 102.769Z" fill="#A7D58A"/>
<path fill-rule="evenodd" clip-rule="evenodd" d="M194.527 109.552C194.587 109.587 194.594 109.651 194.614 109.709C194.606 109.712 194.598 109.714 194.589 109.716C194.569 109.661 194.548 109.607 194.527 109.552Z" fill="#E5EEB1"/>
<path fill-rule="evenodd" clip-rule="evenodd" d="M196.945 104.436C196.949 104.443 196.953 104.45 196.957 104.457C196.91 104.479 196.865 104.513 196.808 104.489C196.854 104.471 196.9 104.453 196.945 104.436Z" fill="#E0EBA0"/>
<path fill-rule="evenodd" clip-rule="evenodd" d="M194.297 108.953C194.302 108.947 194.309 108.942 194.317 108.941C194.34 108.988 194.374 109.032 194.349 109.089C194.332 109.044 194.314 108.998 194.297 108.953Z" fill="#DFEBA0"/>
<path fill-rule="evenodd" clip-rule="evenodd" d="M205.486 108.101C205.171 107.948 204.848 107.81 204.565 107.598C204.09 107.243 203.714 106.81 203.449 106.277C203 105.375 202.949 104.447 203.254 103.493C203.325 103.272 203.435 103.063 203.527 102.849C203.748 102.515 203.983 102.193 204.284 101.922C206.038 100.343 208.828 100.784 209.974 102.825C210.959 104.578 210.334 106.824 208.577 107.807C207.632 108.336 206.635 108.442 205.599 108.121C205.562 108.11 205.527 108.089 205.486 108.101Z" fill="#0AA94E"/>
<path fill-rule="evenodd" clip-rule="evenodd" d="M199.067 104.529C199.075 104.525 199.083 104.523 199.091 104.522C199.457 104.66 199.803 104.833 200.115 105.07C200.582 105.425 200.944 105.863 201.201 106.392C201.594 107.201 201.669 108.039 201.445 108.907C201.375 109.18 201.287 109.448 201.136 109.692C201.118 109.721 201.102 109.751 201.069 109.765C200.081 109.406 199.351 108.766 198.926 107.803C198.466 106.759 198.499 105.719 198.996 104.689C199.021 104.636 199.044 104.582 199.067 104.529Z" fill="#0AA94E"/>
<path fill-rule="evenodd" clip-rule="evenodd" d="M204.79 104.098C204.728 104.176 204.682 104.226 204.646 104.282C204.595 104.362 204.538 104.37 204.463 104.318C204.38 104.26 204.418 104.203 204.462 104.145C204.939 103.52 205.551 103.082 206.307 102.854C206.898 102.676 207.501 102.655 208.108 102.749C208.18 102.76 208.261 102.759 208.244 102.872C208.228 102.98 208.16 102.989 208.072 102.975C208.016 102.966 207.96 102.96 207.896 102.952C207.912 103.011 207.956 103.036 207.989 103.069C208.534 103.622 209.081 104.174 209.627 104.727C209.791 104.893 209.803 105.025 209.666 105.218C209.539 105.397 209.365 105.524 209.175 105.629C208.845 105.81 208.497 105.936 208.118 105.963C207.99 105.972 207.864 105.968 207.74 105.932C207.543 105.874 207.47 105.773 207.48 105.567C207.518 104.738 207.553 103.908 207.6 103.079C207.608 102.941 207.567 102.921 207.445 102.921C206.541 102.923 205.747 103.21 205.068 103.814C204.977 103.895 204.974 103.939 205.061 104.025C205.652 104.616 206.238 105.211 206.825 105.805C206.985 105.967 206.999 106.097 206.869 106.285C206.742 106.47 206.564 106.6 206.369 106.707C206.039 106.888 205.691 107.013 205.312 107.04C205.209 107.047 205.107 107.044 205.005 107.025C204.749 106.975 204.668 106.872 204.68 106.612C204.715 105.836 204.751 105.06 204.787 104.283C204.789 104.232 204.789 104.181 204.79 104.098Z" fill="#FEFEFE"/>
<path fill-rule="evenodd" clip-rule="evenodd" d="M204.899 106.498C204.899 106.447 204.897 106.419 204.898 106.39C204.931 105.687 204.963 104.984 204.995 104.28C205.035 104.283 205.052 104.307 205.071 104.327C205.542 104.804 206.012 105.282 206.486 105.756C206.562 105.832 206.57 105.861 206.456 105.903C205.942 106.095 205.43 106.295 204.899 106.498Z" fill="#0AA94E"/>
<path fill-rule="evenodd" clip-rule="evenodd" d="M209.378 104.772C208.81 104.99 208.263 105.2 207.698 105.417C207.732 104.672 207.765 103.942 207.8 103.175C208.334 103.716 208.849 104.237 209.378 104.772Z" fill="#0AA94E"/>
</g>
<path opacity="0.30299" fill-rule="evenodd" clip-rule="evenodd" d="M195.638 79.1056C193.643 77.6918 193.549 74.7647 195.449 73.2261L211.23 60.4469C212.535 59.3902 214.389 59.3475 215.741 60.343L244.89 81.8022C246.767 83.1839 246.909 85.9379 245.185 87.5056L230.865 100.523C229.582 101.689 227.661 101.805 226.248 100.803L195.638 79.1056Z" fill="#CC9D3F"/>
<path fill-rule="evenodd" clip-rule="evenodd" d="M196.527 76.9489C194.59 75.5742 194.437 72.7557 196.223 71.1895C198.493 69.198 201.285 66.7713 202.68 65.6415C204.387 64.2597 208.29 61.347 210.74 59.5317C212.012 58.5893 213.742 58.5704 215.038 59.4783L245.483 80.7963C247.384 82.1271 247.6 84.8592 245.925 86.4641C243.528 88.7596 240.452 91.6835 239.12 92.856C237.616 94.1796 234.142 96.9623 231.859 98.7762C230.578 99.7937 228.782 99.8364 227.448 98.8897L196.527 76.9489Z" fill="#CC9D3F"/>
<mask id="mask5_5570_165347" style="mask-type:alpha" maskUnits="userSpaceOnUse" x="194" y="58" width="54" height="42">
<path fill-rule="evenodd" clip-rule="evenodd" d="M196.527 76.9489C194.59 75.5742 194.437 72.7557 196.223 71.1895C198.493 69.198 201.285 66.7713 202.68 65.6415C204.387 64.2597 208.29 61.347 210.74 59.5317C212.012 58.5893 213.742 58.5704 215.038 59.4783L245.483 80.7963C247.384 82.1271 247.6 84.8592 245.925 86.4641C243.528 88.7596 240.452 91.6835 239.12 92.856C237.616 94.1796 234.142 96.9623 231.859 98.7762C230.578 99.7937 228.782 99.8364 227.448 98.8897L196.527 76.9489Z" fill="white"/>
</mask>
<g mask="url(#mask5_5570_165347)">
<path fill-rule="evenodd" clip-rule="evenodd" d="M197.291 75.3298C195.244 73.8922 195.189 70.8778 197.183 69.3674L211.296 58.6758C212.591 57.6953 214.374 57.6759 215.689 58.628L244.406 79.4145C246.322 80.8007 246.458 83.6048 244.686 85.1701L232.084 96.3048C230.805 97.4355 228.917 97.5407 227.519 96.5594L197.291 75.3298Z" fill="#FFC54F"/>
<path fill-rule="evenodd" clip-rule="evenodd" d="M208.893 69.0435L208.102 73.7197C208.049 74.486 208.5 75.22 209.22 75.5344L214.488 78.8688C215.208 79.1832 216.031 79.0069 216.529 78.434L222.412 73.3636C222.91 72.7907 222.97 71.9508 222.558 71.2817L218.482 67.4888C218.07 66.8197 217.28 66.4747 216.529 66.6346L210.245 67.4888C209.493 67.6487 208.947 68.2772 208.893 69.0435Z" fill="#CC9D3F"/>
<rect x="218.315" y="85.4209" width="16.8725" height="3.07571" rx="1.53786" transform="rotate(-40 218.315 85.4209)" fill="#CC9D3F"/>
<rect x="223.105" y="88.8823" width="17.927" height="3.07571" rx="1.53786" transform="rotate(-41 223.105 88.8823)" fill="#CC9D3F"/>
</g>
<path opacity="0.197684" fill-rule="evenodd" clip-rule="evenodd" d="M200.702 82.9446C199.496 80.8206 200.649 78.1322 203.019 77.5414L222.707 72.6326C224.347 72.2237 226.055 72.9809 226.853 74.4706L239.777 98.5904C240.87 100.63 239.838 103.161 237.63 103.855L216.364 110.537L200.702 82.9446Z" fill="#CC9D3F"/>
<path fill-rule="evenodd" clip-rule="evenodd" d="M202.624 81.6938C201.449 79.6292 202.501 77.0099 204.782 76.3452C207.682 75.5 211.237 74.4805 212.979 74.0462C215.11 73.515 219.879 72.5249 222.866 71.915C224.417 71.5983 225.993 72.3122 226.784 73.683L245.367 105.87C246.528 107.88 245.569 110.447 243.372 111.194C240.23 112.261 236.206 113.611 234.503 114.111C232.581 114.675 228.257 115.729 225.421 116.408C223.83 116.789 222.184 116.068 221.375 114.646L202.624 81.6938Z" fill="#CC9D3F"/>
<mask id="mask6_5570_165347" style="mask-type:alpha" maskUnits="userSpaceOnUse" x="202" y="71" width="44" height="46">
<path fill-rule="evenodd" clip-rule="evenodd" d="M202.624 81.6938C201.449 79.6292 202.501 77.0099 204.782 76.3452C207.682 75.5 211.237 74.4805 212.979 74.0462C215.11 73.515 219.879 72.5249 222.866 71.915C224.417 71.5983 225.993 72.3122 226.784 73.683L245.367 105.87C246.528 107.88 245.569 110.447 243.372 111.194C240.23 112.261 236.206 113.611 234.503 114.111C232.581 114.675 228.257 115.729 225.421 116.408C223.83 116.789 222.184 116.068 221.375 114.646L202.624 81.6938Z" fill="white"/>
</mask>
<g mask="url(#mask6_5570_165347)">
<path fill-rule="evenodd" clip-rule="evenodd" d="M204 80.5489C202.753 78.381 203.977 75.626 206.423 75.0997L223.732 71.3744C225.319 71.0327 226.944 71.7687 227.733 73.1875L244.975 104.163C246.125 106.229 245.064 108.828 242.796 109.498L226.669 114.263C225.032 114.747 223.276 114.045 222.424 112.565L204 80.5489Z" fill="#FFC54F"/>
<path fill-rule="evenodd" clip-rule="evenodd" d="M217.173 79.755L214.48 83.659C214.107 84.3307 214.206 85.1868 214.726 85.776L218.825 91.0242C219.345 91.6134 220.165 91.8016 220.859 91.4928L227.041 89.9103C227.734 89.6016 228.144 88.8657 228.054 88.0854L226.52 82.3983C226.43 81.6179 225.86 80.9715 225.111 80.7989L219.055 78.9172C218.306 78.7446 217.545 79.0833 217.173 79.755Z" fill="#CC9D3F"/>
<rect x="218.791" y="98.5801" width="16.8725" height="3.07571" rx="1.53786" transform="rotate(-15 218.791 98.5801)" fill="#CC9D3F"/>
<rect x="221.669" y="103.741" width="17.927" height="3.07571" rx="1.53786" transform="rotate(-16 221.669 103.741)" fill="#CC9D3F"/>
</g>
</g>
</svg>
