<svg width="328" height="164" viewBox="0 0 328 164" fill="none" xmlns="http://www.w3.org/2000/svg">
<path d="M23.2189 161.504C33.6809 163.667 265.053 165.826 301.876 161.504C312.777 160.224 321.503 148.276 322.776 146.203C330.736 133.238 327.751 53.2794 325.761 26.266C324.69 11.7278 309.838 5.19571 302.871 3.03482C289.548 -1.09779 53.2799 -1.26366 22.2229 4.11573C8.32787 6.52168 3.29087 17.8712 2.29087 24.1796C-0.0421274 38.8847 -1.42113 129.331 2.31887 141.514C5.30487 151.239 12.7689 159.343 23.2189 161.504Z" fill="#E6F6ED"/>
<mask id="mask0_5567_160530" style="mask-type:alpha" maskUnits="userSpaceOnUse" x="0" y="0" width="328" height="164">
<path fill-rule="evenodd" clip-rule="evenodd" d="M23.2189 161.504C33.6809 163.667 265.053 165.826 301.876 161.504C312.777 160.224 321.503 148.276 322.776 146.203C330.736 133.238 327.751 53.2794 325.761 26.266C324.69 11.7278 309.838 5.19571 302.871 3.03482C289.548 -1.09779 53.2799 -1.26366 22.2229 4.11573C8.32787 6.52168 3.29087 17.8712 2.29087 24.1796C-0.0421274 38.8847 -1.42113 129.331 2.31887 141.514C5.30487 151.239 12.7689 159.343 23.2189 161.504Z" fill="white"/>
</mask>
<g mask="url(#mask0_5567_160530)">
<path fill-rule="evenodd" clip-rule="evenodd" d="M-158 176C-158 176 -57.8066 99.7344 70.8513 123.639C70.8513 123.639 134.611 133.883 183 172.016L-158 176Z" fill="#BBF0D3"/>
<mask id="mask1_5567_160530" style="mask-type:alpha" maskUnits="userSpaceOnUse" x="216" y="119" width="199" height="53">
<path fill-rule="evenodd" clip-rule="evenodd" d="M216.299 119.19H414.373V171.002H216.299V119.19Z" fill="white"/>
</mask>
<g mask="url(#mask1_5567_160530)">
<path d="M216.299 171.002C216.299 171.002 274.498 101.678 349.23 123.406C349.23 123.406 386.265 132.719 414.373 167.381L216.299 171.002Z" fill="#BBF0D3"/>
</g>
<path fill-rule="evenodd" clip-rule="evenodd" d="M-9.27051 188C-9.27051 188 91.6696 111.734 221.286 135.639C221.286 135.639 285.521 145.883 334.27 184.016L-9.27051 188Z" fill="#84D7CC"/>
<path opacity="0.498605" fill-rule="evenodd" clip-rule="evenodd" d="M193.977 142.729C194.037 143.192 193.977 143.643 193.819 144.058C204.285 143.281 226.889 150.671 209.823 155.126C191.951 159.792 182.214 154.513 180.41 152.569C179.227 151.294 180.615 148.811 184.426 146.788L132.881 151.98C130.968 152.172 129.241 150.96 129.023 149.271C128.805 147.582 130.178 146.057 132.091 145.865L190.119 140.02C192.032 139.828 193.759 141.04 193.977 142.729Z" fill="#47A99C"/>
<path fill-rule="evenodd" clip-rule="evenodd" d="M119.11 54.3978L130.774 140.429C131.509 145.843 136.52 149.641 141.97 148.91L179.362 143.898C184.817 143.167 188.645 138.179 187.91 132.76L176.247 46.7413C175.502 41.3326 171.163 37.4471 166.557 38.0645L126.103 43.4854C126.083 43.4884 126.063 43.491 126.042 43.4939C121.469 44.1473 118.368 49.0136 119.11 54.3978Z" fill="#252528"/>
<path fill-rule="evenodd" clip-rule="evenodd" d="M122.11 53.5294L133.8 140.348C134.537 145.811 139.548 149.645 144.995 148.91L182.37 143.865C187.822 143.129 191.646 138.097 190.909 132.629L179.221 45.8235C178.474 40.3654 174.136 36.443 169.532 37.0648L129.097 42.52L129.036 42.529C124.464 43.1863 121.367 48.0959 122.11 53.5294Z" fill="#58585B"/>
<path fill-rule="evenodd" clip-rule="evenodd" d="M126.08 55.8436L137.237 138.377C137.803 142.56 141.639 145.494 145.808 144.931L180.389 140.268C184.567 139.703 187.496 135.846 186.93 131.657L175.776 49.1416C175.26 45.3676 172.415 42.6365 169.419 43.0394L162.939 43.9146C162.109 44.0255 161.363 44.0039 161.302 45.0461L161.233 46.2063C161.173 47.2496 160.546 48.0596 159.715 48.1724L141.291 50.6571C140.46 50.7695 139.639 50.1537 139.3 49.1651L138.922 48.0652C138.616 47.1714 138.013 47.2626 137.286 47.3709C137.209 47.3835 137.13 47.3947 137.05 47.4047L130.571 48.2773C130.559 48.2788 130.545 48.2806 130.533 48.2825C127.558 48.7104 125.568 52.086 126.08 55.8436Z" fill="white"/>
<path d="M126.099 55C125.98 55.7658 125.963 56.5773 126.076 57.4104L136.914 138.493C137.464 142.603 141.19 145.486 145.241 144.932L178 140.465C139.092 140.731 127.28 63.4957 126.099 55Z" fill="#EEEEEF"/>
<path fill-rule="evenodd" clip-rule="evenodd" d="M121.006 64.947L122.101 73.3982C122.148 73.7781 122.484 74.0446 122.848 73.9938L124 73.8293L122.727 64L121.573 64.1649C121.571 64.1653 121.569 64.1657 121.566 64.166C121.207 64.2203 120.957 64.5686 121.006 64.947Z" fill="#58585B"/>
<path fill-rule="evenodd" clip-rule="evenodd" d="M122.006 75.9473L123.102 84.3974C123.152 84.7787 123.483 85.0452 123.846 84.9936L125 84.8283L123.728 75L122.574 75.1638C122.572 75.1641 122.57 75.1645 122.568 75.1649C122.209 75.2187 121.956 75.569 122.006 75.9473Z" fill="#58585B"/>
<path fill-rule="evenodd" clip-rule="evenodd" d="M143.008 45.0693L143.033 45.24C143.1 45.7193 143.559 46.057 144.056 45.992L152.215 44.9198C152.711 44.8537 153.059 44.4114 152.992 43.9302L152.966 43.7599C152.899 43.2791 152.442 42.941 151.945 43.0086L143.786 44.0785C143.785 44.0785 143.782 44.0789 143.78 44.0793C143.288 44.1476 142.942 44.5881 143.008 45.0693Z" fill="#252528"/>
<path fill-rule="evenodd" clip-rule="evenodd" d="M154.514 43.702C154.627 44.5229 155.382 45.0984 156.203 44.986C157.025 44.8744 157.598 44.1185 157.486 43.2977C157.377 42.4763 156.619 41.9012 155.797 42.0142C155.794 42.0128 155.79 42.0133 155.787 42.0137C154.972 42.1321 154.403 42.8843 154.514 43.702Z" fill="#252528"/>
<path d="M173.157 79.7131L155.406 75.5689C155.084 75.4921 154.744 75.534 154.448 75.6866L138.229 84.0018C137.713 84.2664 137.419 84.8193 137.489 85.3919L139.277 99.9498C141.31 116.511 159.738 119.186 159.923 119.211C160.042 119.228 160.164 119.228 160.281 119.214C160.398 119.199 160.516 119.169 160.627 119.125C160.803 119.055 178.034 112.002 176.001 95.4406L174.213 80.8827C174.143 80.3102 173.723 79.8449 173.157 79.7131Z" fill="#28D677"/>
<path d="M171.554 82.0584L156.203 78.4818C155.925 78.4156 155.63 78.4517 155.374 78.5836L141.346 85.7674C140.899 85.9963 140.645 86.4738 140.706 86.968L142.25 99.5407C144.006 113.843 159.943 116.151 160.103 116.173C160.206 116.187 160.311 116.187 160.412 116.175C160.513 116.163 160.615 116.137 160.712 116.098C160.863 116.038 175.767 109.944 174.011 95.6409L172.467 83.0682C172.407 82.574 172.043 82.1724 171.554 82.0584Z" fill="#00AB4E"/>
<path d="M82.7316 57.2165L81.1629 61.1615L77.7161 63.636C77.1467 64.0454 77.2542 64.9214 77.9058 65.1809L81.8488 66.7481L84.3254 70.1964C84.733 70.766 85.6107 70.6583 85.8684 70.0069L87.4372 66.0619L90.8857 63.5871C91.4551 63.1777 91.3476 62.3018 90.696 62.0423L86.7512 60.4753L84.2747 57.027C83.8671 56.4574 82.9893 56.5651 82.7316 57.2165Z" fill="#FFD37B"/>
<path d="M187.629 14.1046L186.396 17.2042L183.688 19.1485C183.241 19.4702 183.325 20.1584 183.837 20.3623L186.935 21.5937L188.881 24.3031C189.201 24.7506 189.891 24.666 190.093 24.1542L191.326 21.0545L194.035 19.1101C194.483 18.7884 194.398 18.1002 193.886 17.8963L190.787 16.6651L188.841 13.9557C188.521 13.5081 187.831 13.5928 187.629 14.1046Z" fill="#FFC54F"/>
<path d="M242.025 104.389L240.793 107.489L238.084 109.433C237.637 109.755 237.722 110.443 238.233 110.647L241.332 111.878L243.277 114.588C243.598 115.035 244.287 114.951 244.49 114.439L245.722 111.339L248.432 109.395C248.879 109.073 248.795 108.385 248.283 108.181L245.183 106.95L243.238 104.24C242.917 103.793 242.228 103.877 242.025 104.389Z" fill="#FFC54F"/>
<path d="M156.796 106.544C156.157 106.622 155.489 106.486 154.914 106.119L148.591 102.073C147.301 101.25 146.952 99.5625 147.811 98.307C148.667 97.0472 150.404 96.698 151.692 97.5215L155.838 100.172L163.491 90.4281C164.432 89.2285 166.19 88.9935 167.418 89.8969C168.643 90.8027 168.875 92.5123 167.934 93.7097L158.687 105.482C158.212 106.091 157.521 106.455 156.796 106.544Z" fill="white"/>
<path d="M194.281 144.618L200.996 152.202C201.458 152.724 201.671 153.454 201.454 154.117C201.197 154.896 200.356 155.54 197.881 154.55C193.381 152.75 190.681 150.05 191.581 145.55L194.281 144.618Z" fill="#DF9F1C"/>
<mask id="mask2_5567_160530" style="mask-type:alpha" maskUnits="userSpaceOnUse" x="196" y="141" width="12" height="10">
<path fill-rule="evenodd" clip-rule="evenodd" d="M196.755 141.9H207.434V150.524H196.755V141.9Z" fill="white"/>
</mask>
<g mask="url(#mask2_5567_160530)">
<path d="M197.88 141.9L200.58 142.85L206.648 147.4C207.324 147.908 207.6 148.79 207.333 149.593L207.284 149.737C207.068 150.386 206.338 150.703 205.716 150.421L197.611 146.736C197.152 146.528 196.83 146.099 196.777 145.598C196.693 144.795 196.806 143.481 197.88 141.9Z" fill="#DF9F1C"/>
</g>
<path d="M189.78 138.35L191.58 145.55C191.58 145.55 192.48 147.35 194.28 145.55L193.38 137.45L189.78 138.35Z" fill="#FFDAB8"/>
<path d="M202.38 134.75L200.58 142.85C200.58 142.85 198.78 144.65 197.88 142.85L198.78 133.85L202.38 134.75Z" fill="#FFDAB8"/>
<path d="M199.086 81.3765L198.367 99.2388L195.181 97.8501V81.6501L199.086 81.3765Z" fill="#F4B795"/>
<path d="M188.881 138.35L185.281 121.25C185.281 121.25 178.081 103.25 180.781 94.25H196.081L205.588 114.993C205.845 115.553 205.937 116.173 205.853 116.783L203.281 135.65C203.281 135.65 199.681 137.45 197.881 135.65L198.746 118.326C198.769 117.883 198.676 117.442 198.478 117.044L191.581 103.25L193.381 120.35L194.281 138.35C194.281 138.35 191.581 141.05 188.881 138.35Z" fill="#464649"/>
<mask id="mask3_5567_160530" style="mask-type:alpha" maskUnits="userSpaceOnUse" x="178" y="47" width="27" height="27">
<path fill-rule="evenodd" clip-rule="evenodd" d="M178.534 47.8999H204.63V73.3076H178.534V47.8999Z" fill="white"/>
</mask>
<g mask="url(#mask3_5567_160530)">
<path d="M193.663 48.3789C193.663 48.3789 189.931 47.8974 187.632 53.1561C186.313 56.1738 184.513 59.0106 182.081 61.3992C179.428 64.0038 176.987 67.6308 179.757 70.5504C183.782 74.7939 195.511 73.0713 199.599 72.3144C200.261 72.1911 200.608 71.4711 200.299 70.8735C199.65 69.6207 198.876 67.4193 199.389 64.6374C199.879 61.977 201.79 59.7981 203.24 58.4796C204.389 57.4356 204.893 55.9398 204.495 54.5115C203.59 51.2598 200.993 46.3413 193.663 48.3789Z" fill="#6C4A07"/>
</g>
<path d="M189.78 64.5498L183.104 66.9771C181.082 67.7133 179.544 69.3837 178.978 71.4591L176.28 79.8498C176.28 79.8498 178.08 82.5498 181.68 81.6498C181.68 81.6498 178.98 92.4498 180.78 96.0498C180.78 96.0498 190.68 101.45 197.88 95.1498C197.88 95.1498 196.08 86.1498 196.98 81.6498C196.98 81.6498 200.58 81.6498 201.48 79.8498L199.35 72.0378C198.979 70.6788 198.2 69.4665 197.118 68.5647L193.38 65.4498L189.78 64.5498Z" fill="#FFC54F"/>
<path d="M201.282 79.1239L199.35 72.0382C198.979 70.6783 198.2 69.4669 197.118 68.5651L196.08 67.7002V69.1645C196.08 70.5847 196.307 71.9959 196.794 73.3306C197.441 75.1045 198.132 78.1933 196.98 81.6502C196.98 81.6502 199.48 81.6502 200.834 80.608C201.278 80.2678 201.43 79.6639 201.282 79.1239Z" fill="#DF9F1C"/>
<path d="M191.58 103.7C191.331 103.7 191.13 103.498 191.13 103.25C191.13 101.149 194.015 100.164 194.138 100.122C194.374 100.043 194.627 100.171 194.706 100.408C194.786 100.643 194.658 100.898 194.423 100.977C193.757 101.201 192.03 102.045 192.03 103.25C192.03 103.498 191.828 103.7 191.58 103.7Z" fill="#252528"/>
<path d="M203.115 78.4788L205.855 79.512C206.622 79.8027 206.964 80.6307 206.594 81.3066L201.635 90.3858C201.307 90.987 200.529 91.2516 199.847 90.9942L197.107 89.961C196.34 89.6721 195.998 88.8432 196.367 88.1673L201.328 79.0872C201.655 78.486 202.433 78.2214 203.115 78.4788Z" fill="#58585B"/>
<path d="M196.08 64.5499C196.08 64.5499 194.28 66.3499 194.28 68.1499C194.28 68.1499 188.88 69.0499 188.88 65.4499L191.58 61.8499L196.08 64.5499Z" fill="#F4B795"/>
<path d="M202.66 57.987C202.66 57.987 200.206 65.3769 196.116 65.3769C192.027 65.3769 190.391 63.8982 190.391 60.9426C190.391 57.987 193.663 52.0749 197.753 53.5518C201.842 55.0305 202.66 57.987 202.66 57.987Z" fill="#FFDAB8"/>
<path d="M196.117 53.5522C196.117 53.5522 195.299 57.2476 192.028 57.9874C188.755 58.7254 190.391 57.9874 190.391 57.9874C190.391 57.9874 190.391 50.5966 196.117 53.5522Z" fill="#6C4A07"/>
<path d="M194.481 52.0748C194.481 52.0748 195.716 57.0932 201.937 57.9275C203.59 58.1489 204.973 56.8043 204.545 55.3445C203.976 53.3996 202.905 51.0209 201.025 50.5961C197.753 49.8572 194.481 52.0748 194.481 52.0748Z" fill="#6C4A07"/>
<path d="M178.162 79.8262L177.4 86.1262C177.278 87.1396 177.988 88.0648 178.999 88.2097L196.08 90.6496L200.049 89.9881C200.906 89.8459 201.576 89.1754 201.718 88.3195L202.039 86.3962C202.208 85.3828 201.343 84.4981 200.326 84.6439L196.957 85.1245C196.388 85.2064 195.86 85.4701 195.454 85.8769L194.28 87.0496L182.58 84.3496L183.48 80.7496L178.162 79.8262Z" fill="#FFDAB8"/>
<path d="M184.38 70.85C184.028 69.0914 182.575 68.4398 180.937 68.2886C180.008 69.1274 179.316 70.2182 178.978 71.4593L176.28 79.85C176.435 80.0561 176.601 80.2415 176.773 80.4134C176.828 80.4683 176.891 80.525 176.957 80.5826C177.007 80.6285 177.061 80.6645 177.108 80.7113C178.763 82.343 181.755 82.1252 183.335 81.866C183.961 81.7634 184.436 81.2549 184.504 80.624C184.714 78.6557 185.059 74.2421 184.38 70.85Z" fill="#DF9F1C"/>
<path fill-rule="evenodd" clip-rule="evenodd" d="M3.77246 39.3953C3.77246 41.0477 4.03553 42.6458 4.50098 44.144H27.6332H36.8599H54.7725V44.1427C53.0723 38.4796 47.6465 34.3348 41.1926 34.3348C39.7138 34.3348 38.297 34.5472 36.9632 34.9557C34.9393 28.1439 28.4205 23.144 20.692 23.144C11.3416 23.144 3.77246 30.4212 3.77246 39.3953Z" fill="#BBF0D3"/>
<path fill-rule="evenodd" clip-rule="evenodd" d="M329.772 70.3953C329.772 72.0477 329.509 73.6458 329.044 75.144H305.912H296.685H278.772V75.1427C280.473 69.4796 285.898 65.3348 292.352 65.3348C293.831 65.3348 295.248 65.5472 296.582 65.9557C298.606 59.1439 305.124 54.144 312.853 54.144C322.203 54.144 329.772 61.4212 329.772 70.3953Z" fill="#BBF0D3"/>
</g>
<path d="M274.249 48.2352C274.249 60.6864 264.073 70.7806 251.52 70.7806C238.968 70.7806 228.792 60.6864 228.792 48.2352C228.792 35.7839 238.968 25.6897 251.52 25.6897C263.518 25.6897 273.344 34.9112 274.19 46.5986C274.229 47.1388 274.249 47.6843 274.249 48.2352Z" fill="#84D7CC"/>
<path d="M274.249 45.326C274.249 57.7773 264.073 67.8714 251.52 67.8714C238.968 67.8714 228.792 57.7773 228.792 45.326C228.792 32.8747 238.968 22.7805 251.52 22.7805C263.518 22.7805 273.344 32.0021 274.19 43.6894C274.229 44.2296 274.249 44.7752 274.249 45.326Z" fill="white"/>
<path d="M259.688 60.5625H242.362C241.058 60.5625 240 59.5049 240 58.2V35.3625C240 34.0584 241.058 33 242.362 33H259.688C260.992 33 262.05 34.0584 262.05 35.3625V58.2C262.05 59.5049 260.992 60.5625 259.688 60.5625Z" fill="#3393E3"/>
<path d="M258.451 59.7749H243.601C242.482 59.7749 241.575 58.8693 241.575 57.7502V38.1754C241.575 37.0563 242.482 36.1499 243.601 36.1499H258.451C259.569 36.1499 260.475 37.0563 260.475 38.1754V57.7502C260.475 58.8693 259.569 59.7749 258.451 59.7749Z" fill="#1868AB"/>
<path d="M258.451 58.2H243.601C242.482 58.2 241.575 57.2943 241.575 56.1753V36.6004C241.575 35.4814 242.482 34.575 243.601 34.575H258.451C259.569 34.575 260.475 35.4814 260.475 36.6004V56.1753C260.475 57.2943 259.569 58.2 258.451 58.2Z" fill="white"/>
<path fill-rule="evenodd" clip-rule="evenodd" d="M249.596 45.188C249.71 45.2702 249.842 45.309 249.972 45.309C250.174 45.309 250.374 45.2154 250.5 45.0378C250.708 44.7477 250.641 44.3423 250.349 44.1344L248.945 43.1317C249.89 42.9994 250.62 42.1867 250.62 41.2049C250.62 40.1342 249.748 39.261 248.677 39.261H246.948C246.591 39.261 246.301 39.5511 246.301 39.9083V42.4938V42.509V44.6617C246.301 45.0189 246.591 45.309 246.948 45.309C247.306 45.309 247.596 45.0189 247.596 44.6617V43.7601L249.596 45.188ZM248.677 41.8531H247.596V40.5575H248.677C249.034 40.5575 249.325 40.8486 249.325 41.2049C249.325 41.5621 249.034 41.8531 248.677 41.8531Z" fill="#3393E3"/>
<path fill-rule="evenodd" clip-rule="evenodd" d="M251.379 45.6067C251.379 45.9639 251.67 46.2541 252.027 46.2541C252.385 46.2541 252.675 45.9639 252.675 45.6067V44.0938H253.756C254.827 44.0938 255.699 43.2215 255.699 42.1499C255.699 41.0792 254.827 40.2061 253.756 40.2061H252.027C251.67 40.2061 251.379 40.4962 251.379 40.8534V45.6067ZM253.756 42.7982H252.675V41.5026H253.756C254.113 41.5026 254.404 41.7937 254.404 42.1499C254.404 42.5071 254.113 42.7982 253.756 42.7982Z" fill="#3393E3"/>
<path d="M246.3 50.325H244.725C244.29 50.325 243.938 49.973 243.938 49.5375C243.938 49.1028 244.29 48.75 244.725 48.75H246.3C246.735 48.75 247.088 49.1028 247.088 49.5375C247.088 49.973 246.735 50.325 246.3 50.325Z" fill="#BBBDC0"/>
<path d="M246.3 55.0501H244.725C244.29 55.0501 243.938 54.6981 243.938 54.2626C243.938 53.8279 244.29 53.4751 244.725 53.4751H246.3C246.735 53.4751 247.088 53.8279 247.088 54.2626C247.088 54.6981 246.735 55.0501 246.3 55.0501Z" fill="#BBBDC0"/>
<path d="M257.325 50.325H249.45C249.015 50.325 248.662 49.973 248.662 49.5375C248.662 49.1028 249.015 48.75 249.45 48.75H257.325C257.76 48.75 258.112 49.1028 258.112 49.5375C258.112 49.973 257.76 50.325 257.325 50.325Z" fill="#BBBDC0"/>
<path d="M257.325 55.0501H249.45C249.015 55.0501 248.662 54.6981 248.662 54.2626C248.662 53.8279 249.015 53.4751 249.45 53.4751H257.325C257.76 53.4751 258.112 53.8279 258.112 54.2626C258.112 54.6981 257.76 55.0501 257.325 55.0501Z" fill="#BBBDC0"/>
<path d="M257.559 37.7251V35.7469H264.596V33.7876L269.088 37.7251H257.559Z" fill="#FFC54F"/>
<path d="M269.088 39.3V41.279H262.051V43.2375L257.559 39.3H269.088Z" fill="#FFC54F"/>
<path d="M262.05 38.4379V37.7252H257.559L262.05 38.4379Z" fill="#00883E"/>
<path d="M257.559 39.3L262.05 44.2392L262.051 43.2375L257.559 39.3Z" fill="#00883E"/>
<path d="M97.6542 116.826C97.6542 130.055 86.8421 140.78 73.5053 140.78C60.1685 140.78 49.3564 130.055 49.3564 116.826C49.3564 103.596 60.1685 92.8713 73.5053 92.8713C86.2531 92.8713 96.693 102.669 97.5917 115.087C97.6333 115.661 97.6542 116.241 97.6542 116.826Z" fill="#84D7CC"/>
<path d="M97.6542 113.735C97.6542 126.965 86.8421 137.69 73.5053 137.69C60.1685 137.69 49.3564 126.965 49.3564 113.735C49.3564 100.506 60.1685 89.7805 73.5053 89.7805C86.2531 89.7805 96.693 99.5784 97.5917 111.996C97.6333 112.57 97.6542 113.15 97.6542 113.735Z" fill="white"/>
<path fill-rule="evenodd" clip-rule="evenodd" d="M86.209 103.42L85.2171 101.779L75.6234 99.6929L74.6882 101.732C71.8739 107.866 69.734 114.288 68.3071 120.885L67.8936 122.796L78.307 125.06C78.307 125.06 80.0827 118.041 81.8077 112.983C83.5327 107.926 86.209 103.42 86.209 103.42Z" fill="#00AB4E"/>
<path fill-rule="evenodd" clip-rule="evenodd" d="M85.219 101.782L84.2851 103.817C81.4628 109.954 79.3289 116.371 77.9007 122.968L77.4878 124.882L65.3066 122.234L65.7209 120.32C66.9009 114.876 68.5686 109.547 70.6965 104.404C70.7238 104.337 70.7505 104.27 70.7772 104.204C71.1968 103.183 71.6437 102.176 72.1046 101.168L73.0385 99.1272L75.5126 99.6675L76.0063 99.7742L85.219 101.782Z" fill="#28D677"/>
<path fill-rule="evenodd" clip-rule="evenodd" d="M78.2201 111.817C77.6965 114.227 75.6373 115.826 73.6214 115.387C71.6062 114.948 70.3969 112.639 70.9212 110.229C71.4455 107.819 73.5047 106.22 75.5199 106.659C77.5357 107.097 78.7444 109.407 78.2201 111.817Z" fill="#00AB4E"/>
<path fill-rule="evenodd" clip-rule="evenodd" d="M81.1006 105.934C80.7224 105.779 80.5416 105.346 80.6977 104.968L81.5489 102.897C81.7043 102.518 82.1372 102.338 82.5155 102.494C82.8937 102.649 83.0744 103.082 82.919 103.46L82.0665 105.531C81.9111 105.91 81.4782 106.09 81.1006 105.934Z" fill="#28D677"/>
<path fill-rule="evenodd" clip-rule="evenodd" d="M67.7504 121.298C67.3501 121.211 67.0973 120.817 67.184 120.417L67.6596 118.228C67.747 117.829 68.1413 117.575 68.5415 117.662C68.9404 117.749 69.1939 118.144 69.1072 118.543L68.6309 120.731C68.5442 121.131 68.1499 121.385 67.7504 121.298Z" fill="#28D677"/>
<path fill-rule="evenodd" clip-rule="evenodd" d="M59.2659 126.3C59.4018 127.171 60.1352 127.844 61.0701 127.961C62.4339 128.134 64.9271 128.316 69.3706 128.316C73.8508 128.316 76.3479 128.131 77.7046 127.957C78.6302 127.839 79.3667 127.176 79.5065 126.316C79.6987 125.126 79.915 123.062 79.915 119.787C79.915 116.812 79.7362 115.003 79.5597 113.94C79.4175 113.087 78.6856 112.43 77.7694 112.311C76.3666 112.127 73.7852 111.913 69.3706 111.913C64.9974 111.913 62.4229 112.124 61.0115 112.306C60.086 112.425 59.3619 113.093 59.2182 113.955C59.03 115.084 58.8261 116.959 58.8261 119.787C58.8261 122.855 59.0667 125.025 59.2659 126.3Z" fill="#3393E3"/>
<path fill-rule="evenodd" clip-rule="evenodd" d="M59.487 117.08H64.5335C66.1261 117.08 67.418 118.372 67.418 119.964C67.418 121.557 66.1261 122.849 64.5335 122.849H59.487C58.6903 122.849 58.0451 122.203 58.0451 121.407V118.523C58.0451 117.726 58.6903 117.08 59.487 117.08Z" fill="#FFC54F"/>
<path fill-rule="evenodd" clip-rule="evenodd" d="M62.732 119.724C62.732 119.077 63.2561 118.553 63.9036 118.553C64.5511 118.553 65.0752 119.077 65.0752 119.724C65.0752 120.371 64.5511 120.896 63.9036 120.896C63.2561 120.896 62.732 120.371 62.732 119.724Z" fill="white"/>
<path fill-rule="evenodd" clip-rule="evenodd" d="M76.1507 121.91C77.123 119.265 80.055 117.91 82.6995 118.882C85.3439 119.854 86.6995 122.786 85.7272 125.431C84.7548 128.075 81.8228 129.431 79.1784 128.458C76.5339 127.486 75.1784 124.554 76.1507 121.91Z" fill="#FFC54F"/>
<path fill-rule="evenodd" clip-rule="evenodd" d="M82.6406 119.949C80.5112 119.227 78.2035 120.333 77.4864 122.419C76.8309 124.326 77.7287 126.426 79.5796 127.315C77.4502 126.593 76.3053 124.316 77.0225 122.23C77.7397 120.144 80.0474 119.038 82.1767 119.76C82.3351 119.814 82.49 119.877 82.6406 119.949Z" fill="#CC9D3F"/>
<path fill-rule="evenodd" clip-rule="evenodd" d="M79.8252 123.751V124.997H79.4316V122.092H80.7764C80.9979 122.092 81.1804 122.124 81.3241 122.189C81.597 122.313 81.7335 122.542 81.7335 122.875C81.7335 123.049 81.6976 123.192 81.6257 123.302C81.5539 123.413 81.4533 123.502 81.3241 123.569C81.4375 123.615 81.5229 123.676 81.5802 123.751C81.6376 123.826 81.6696 123.948 81.6761 124.117L81.69 124.507C81.6939 124.617 81.7032 124.7 81.7177 124.754C81.7414 124.846 81.7836 124.905 81.8442 124.932V124.997H81.3617C81.3485 124.972 81.338 124.94 81.3301 124.9C81.3222 124.861 81.3156 124.784 81.3103 124.671L81.2866 124.186C81.2773 123.996 81.2068 123.869 81.075 123.805C80.9998 123.769 80.8818 123.751 80.721 123.751H79.8252ZM79.8252 123.423H80.7348C80.9194 123.423 81.0654 123.386 81.1729 123.312C81.2803 123.238 81.334 123.105 81.334 122.913C81.334 122.706 81.2589 122.565 81.1086 122.49C81.0282 122.45 80.9207 122.43 80.7863 122.43H79.8252V123.423ZM82.5898 125.841V124.76C82.6676 124.856 82.7381 124.924 82.8014 124.963C82.9095 125.033 83.0433 125.068 83.2028 125.068C83.4058 125.068 83.5838 125.006 83.7367 124.88C83.978 124.683 84.0986 124.353 84.0986 123.892C84.0986 123.55 84.0149 123.287 83.8475 123.104C83.6801 122.92 83.4764 122.828 83.2364 122.828C83.0743 122.828 82.9332 122.867 82.8132 122.946C82.7289 122.999 82.6511 123.074 82.5799 123.17V122.889H82.2338V125.841H82.5898ZM82.6491 124.429C82.7414 124.648 82.9101 124.758 83.1553 124.758C83.3215 124.758 83.4596 124.688 83.5696 124.549C83.6797 124.41 83.7348 124.202 83.7348 123.925C83.7348 123.756 83.7104 123.611 83.6616 123.49C83.5693 123.257 83.4006 123.14 83.1553 123.14C82.9088 123.14 82.7401 123.263 82.6491 123.51C82.6003 123.642 82.5759 123.809 82.5759 124.012C82.5759 124.176 82.6003 124.315 82.6491 124.429Z" fill="#CC9D3F"/>
<path fill-rule="evenodd" clip-rule="evenodd" d="M159.505 60.0077C159.377 58.969 158.432 58.2304 157.393 58.3579L146.266 59.7242C145.228 59.8517 144.489 60.7971 144.617 61.8357L145.495 68.9925C145.623 70.0311 146.568 70.7697 147.607 70.6422L158.734 69.276C159.773 69.1484 160.511 68.2031 160.384 67.1644L159.505 60.0077ZM149.366 64.8849C149.138 63.0296 150.357 61.3532 152.088 61.1407C153.819 60.9281 155.407 62.2599 155.634 64.1152C155.862 65.9705 154.644 67.6469 152.913 67.8594C151.182 68.072 149.594 66.7403 149.366 64.8849Z" fill="#00AB4E"/>
</svg>
