<svg width="329" height="165" viewBox="0 0 329 165" fill="none" xmlns="http://www.w3.org/2000/svg">
<path d="M3.11027 141.59C6.09228 151.29 13.5488 159.373 23.9883 161.528C34.4398 163.686 265.58 165.84 302.366 161.528C313.256 160.252 321.973 148.335 323.245 146.267C331.197 133.335 328.215 53.5827 326.227 26.6388C325.157 12.138 310.32 5.62276 303.36 3.46744C290.05 -0.654539 54.0192 -0.819975 22.9933 4.54557C9.11225 6.94533 4.0803 18.2657 3.0813 24.5578C0.750639 39.225 -0.626978 129.438 3.10927 141.59H3.11027Z" fill="#E6F6ED"/>
<mask id="mask0_5567_150487" style="mask-type:alpha" maskUnits="userSpaceOnUse" x="0" y="0" width="329" height="165">
<path fill-rule="evenodd" clip-rule="evenodd" d="M23.9883 161.528C34.4398 163.686 265.58 165.84 302.366 161.528C313.256 160.252 321.973 148.335 323.245 146.267C331.197 133.335 328.215 53.5827 326.227 26.6388C325.157 12.138 310.32 5.62276 303.36 3.46744C290.05 -0.654539 54.0192 -0.819975 22.9933 4.54557C9.11225 6.94533 4.0803 18.2657 3.0813 24.5578C0.750639 39.225 -0.626978 129.438 3.10927 141.59C6.09228 151.29 13.5488 159.373 23.9883 161.528Z" fill="white"/>
</mask>
<g mask="url(#mask0_5567_150487)">
<path opacity="0.5" fill-rule="evenodd" clip-rule="evenodd" d="M80.8926 184.964L22.2891 -7.53906H302.775L257.046 184.964H80.8926Z" fill="#99DDB8"/>
<path d="M137.336 118.68L132.477 83.0059" stroke="white" stroke-linecap="round"/>
<path d="M96.3095 64.6672L89.5869 29.2964" stroke="white" stroke-linecap="round"/>
<path d="M80.2491 82.4208L71.6816 47.4497" stroke="white" stroke-linecap="round"/>
<path d="M24.3051 66.4624L20.273 50.8106" stroke="white" stroke-linecap="round"/>
<path d="M53.2759 144.262L44.7085 109.291" stroke="white" stroke-linecap="round"/>
<path d="M217.452 52.0562L228.259 8.17529" stroke="white" stroke-linecap="round"/>
<path d="M266.403 148.807L273.019 126.615" stroke="white" stroke-linecap="round"/>
<path d="M297.372 80.9815L308.179 37.1006" stroke="white" stroke-linecap="round"/>
<path d="M186.655 68.2655L195.146 23.8801" stroke="white" stroke-linecap="round"/>
<path d="M202.837 109.059L194.94 138.948" stroke="white" stroke-linecap="round"/>
<path d="M234.805 61.1821L226.908 91.0718" stroke="white" stroke-linecap="round"/>
<path fill-rule="evenodd" clip-rule="evenodd" d="M188.047 44.5883L193.811 45.4551C196.475 45.8555 198.294 48.4445 197.872 51.238L195.425 67.4606C196.128 66.8715 197.24 65.9353 198.359 64.9736C199.204 64.2471 200.055 63.5061 200.736 62.889C205.101 58.9399 211.904 63.3786 205.987 70.5144C201.831 75.5256 195.155 83.4317 192.552 86.5106L192.147 89.192C193.484 86.7479 195.653 85.8026 197.942 85.9338C201.069 86.113 204.143 89.8452 203.529 93.4787C203.052 96.2885 200.98 99.4047 197.946 99.9967C198.078 100.111 198.199 100.227 198.307 100.341C198.518 100.557 198.703 100.792 198.864 101.041C198.96 101.185 199.022 101.298 199.054 101.359C200.059 103.202 199.869 105.632 199.079 107C198.133 108.638 196.868 110.219 194.651 111.336C197.113 112.353 199.603 113.866 200.563 116.009C202.732 120.858 198.236 124.841 193.531 127.598C192.433 128.242 191.752 128.848 191.206 129.334L191.206 129.335C190.186 130.243 189.636 130.733 187.704 130.268C187.138 130.131 186.574 129.919 186.048 129.627L185.4 133.926C185.235 135.018 184.753 135.979 184.067 136.721C183.003 142.579 179.881 152.431 170.724 159.831L166.533 173.462L166.926 173.711L166.518 173.51L166.516 173.516L167.361 173.933C168.62 174.555 169.255 175.987 168.871 177.337L164.627 192.273L148.412 186.162C146.373 186.343 144.165 186.312 141.8 185.979C134.757 184.989 130.871 181.784 128.735 178.745L117.657 174.57L125.293 155.766C125.77 154.592 127.144 154.07 128.28 154.631L131.379 156.162L131.38 156.158L130.816 155.879L132.05 151.594L132.703 152.008L141.74 123.669L153.668 44.5912C154.089 41.7977 156.591 39.8579 159.255 40.2591L165.019 41.1252C165.758 41.2369 166.322 41.8615 166.387 42.6398L166.459 43.5052C166.523 44.2843 167.088 44.9089 167.826 45.0199L184.215 47.4848C184.954 47.5958 185.678 47.1642 185.969 46.4395L186.293 45.6328C186.585 44.9082 187.308 44.4773 188.047 44.5883ZM190.504 100.085L191.201 95.4673C191.55 96.8271 192.297 98.1769 193.563 99.0653C192.496 99.2835 191.622 99.6436 191.482 99.7024C191.154 99.8164 190.827 99.9445 190.504 100.085ZM187.762 118.267L188.339 114.437C189.183 114.471 190.024 114.184 190.807 113.777L190.201 116.79L190.175 116.923C190.175 116.923 189.04 117.488 187.762 118.267ZM172.365 43.5719C172.055 43.5255 171.84 43.2361 171.887 42.9263L171.904 42.8146C171.951 42.5048 172.24 42.2916 172.551 42.338L177.65 43.1048C177.961 43.1512 178.176 43.4413 178.128 43.7511L178.112 43.8621C178.064 44.1725 177.775 44.3851 177.464 44.3387L172.365 43.5719ZM180.04 44.8419C180.48 44.9086 180.889 44.6061 180.955 44.168C181.021 43.7298 180.719 43.3214 180.279 43.2554C179.841 43.1887 179.432 43.4904 179.365 43.9293C179.3 44.3667 179.602 44.7759 180.04 44.8419ZM148.278 63.1778L147.537 63.0668C147.263 63.0255 147.076 62.7709 147.117 62.4981L148.141 55.7106C148.182 55.4378 148.437 55.2492 148.711 55.2905L149.45 55.4015L148.278 63.1778ZM146.172 72.1202L146.912 72.2312L148.085 64.4549L147.345 64.3439C147.072 64.3026 146.817 64.4904 146.776 64.7632L145.752 71.5515C145.711 71.8235 145.898 72.0789 146.172 72.1202Z" fill="#99DDB8"/>
<path d="M182.952 129.89C182.952 129.89 182.658 146.761 168.57 157.745L162.445 176.49C162.445 176.49 153.68 185.681 139.193 183.385C124.708 181.09 123.807 169.614 123.807 169.614L141.149 118.342L182.952 129.89Z" fill="#F2CBA8"/>
<path d="M150.848 137.149C150.848 137.149 162.727 141.301 177.649 139.468L151.368 133.244L150.848 137.149Z" fill="#E79E5C"/>
<path d="M194.128 66.4266C194.128 66.4266 198.065 63.2688 200.272 61.3404C204.705 57.468 211.429 62.0246 205.389 69.0562C200.028 75.295 190.564 86.0839 190.564 86.0839L194.128 66.4266Z" fill="#F2CBA8"/>
<path fill-rule="evenodd" clip-rule="evenodd" d="M177.649 139.468L142.908 133.623C138.951 132.957 136.284 129.215 136.951 125.264L151.205 40.8055C151.872 36.8551 155.619 34.1918 159.576 34.8571L194.318 40.7022C198.275 41.3682 200.942 45.1105 200.275 49.0609L186.021 133.52C185.355 137.471 181.607 140.133 177.649 139.468Z" fill="#58585B"/>
<path fill-rule="evenodd" clip-rule="evenodd" d="M193.652 43.7882L187.904 42.8211C187.168 42.6972 186.437 43.1154 186.133 43.8349L185.795 44.6358C185.491 45.3553 184.759 45.7742 184.023 45.6504L167.679 42.9003C166.943 42.7764 166.389 42.1421 166.339 41.362L166.281 40.4955C166.23 39.7161 165.678 39.0818 164.94 38.9573L159.192 37.9908C156.536 37.5433 154.001 39.4392 153.53 42.2249L139.614 124.683C139.144 127.468 140.917 130.089 143.574 130.536L178.033 136.334C180.69 136.78 183.226 134.885 183.696 132.1L197.612 49.641C198.082 46.8553 196.309 44.235 193.652 43.7882Z" fill="white"/>
<path fill-rule="evenodd" clip-rule="evenodd" d="M170.332 75.612C174.261 76.093 177.038 79.6398 176.558 83.5635C176.08 87.4661 172.513 90.2602 168.616 89.7848C164.673 89.3037 161.896 85.7531 162.383 81.8153C162.867 77.9053 166.419 75.1331 170.332 75.612ZM172.914 80.8209C173.062 80.9306 173.146 80.9893 173.226 81.0526C173.356 81.1556 173.479 81.2099 173.61 81.048C173.748 80.876 173.642 80.7878 173.51 80.6901C172.189 79.7115 170.731 79.1136 169.065 79.0903C168.013 79.0756 167.013 79.2973 166.058 79.7329C165.918 79.7967 165.74 79.8478 165.847 80.0737C165.955 80.3033 166.107 80.217 166.264 80.1418C166.351 80.1001 166.443 80.0688 166.587 80.0109C166.517 80.1364 166.479 80.2076 166.438 80.2771C165.668 81.584 164.898 82.8909 164.127 84.1973C163.862 84.6448 163.908 84.91 164.323 85.2325C164.446 85.3288 164.583 85.4148 164.724 85.4818C165.601 85.8959 166.524 86.0014 167.479 85.8723C167.701 85.8422 167.915 85.7743 168.118 85.6785C168.556 85.4723 168.663 85.2181 168.525 84.7537C168.061 83.1935 167.605 81.6311 167.133 80.0733C167.069 79.8598 167.131 79.8085 167.323 79.7601C169.04 79.3282 170.666 79.566 172.22 80.3919C172.433 80.5051 172.437 80.5978 172.322 80.7914C171.519 82.1328 170.729 83.481 169.934 84.8269C169.608 85.3791 169.673 85.6861 170.215 86.0331C170.888 86.4634 171.645 86.603 172.428 86.6273C172.925 86.6428 173.416 86.6035 173.875 86.386C174.315 86.1777 174.426 85.9233 174.289 85.4637C174.068 84.7241 173.849 83.9839 173.63 83.2438C173.398 82.4615 173.168 81.679 172.914 80.8209Z" fill="#02A750"/>
<path fill-rule="evenodd" clip-rule="evenodd" d="M167.927 95.0214C164.388 94.5391 161.527 92.8802 159.411 90.0085C157.708 87.6976 156.926 85.0796 157.037 82.205C157.047 81.9448 157.078 81.6855 157.087 81.4254C157.092 81.286 157.143 81.2569 157.276 81.2765C157.635 81.3294 157.996 81.3739 158.358 81.4084C158.53 81.4249 158.483 81.5313 158.474 81.6283C158.385 82.6061 158.406 83.5819 158.577 84.5486C158.895 86.3481 159.606 87.9791 160.729 89.4264C161.96 91.0141 163.504 92.1977 165.375 92.9337C167.373 93.7193 169.434 93.9292 171.549 93.5161C174.135 93.0109 176.278 91.7451 177.963 89.7281C179.449 87.9473 180.279 85.8885 180.465 83.5726C180.684 80.8315 179.966 78.345 178.342 76.1459C176.728 73.962 174.572 72.5518 171.907 71.9498C169.7 71.451 167.538 71.6114 165.431 72.4404C165.268 72.5043 165.176 72.4928 165.104 72.3244C164.981 72.0333 164.854 71.7427 164.711 71.4613C164.624 71.291 164.674 71.2235 164.837 71.1575C165.836 70.7526 166.873 70.4861 167.941 70.3586C169.917 70.1228 171.85 70.3353 173.722 71.0163C176.051 71.8639 177.97 73.281 179.443 75.2722C181.274 77.748 182.095 80.5309 181.869 83.6065C181.649 86.6096 180.487 89.2092 178.383 91.3571C176.119 93.6677 173.348 94.9145 170.107 95.1023C169.378 95.1446 168.654 95.1103 167.927 95.0214Z" fill="#BAD333"/>
<path fill-rule="evenodd" clip-rule="evenodd" d="M170.672 73.12C174.184 73.6713 176.737 75.5202 178.286 78.7349C178.372 78.9133 178.344 78.9914 178.161 79.0642C177.902 79.1674 177.646 79.2857 177.406 79.4253C177.188 79.5512 177.085 79.5275 176.976 79.2827C176.44 78.0797 175.642 77.0744 174.617 76.2456C171.802 73.9693 167.67 73.8419 164.72 75.956C162.609 77.4679 161.445 79.5286 161.23 82.1105C160.908 85.9872 163.529 89.7029 167.312 90.642C170.753 91.496 173.634 90.5057 175.931 87.8165C176.039 87.6891 176.101 87.6607 176.234 87.783C176.473 88.0037 176.724 88.2135 176.983 88.4108C177.137 88.5283 177.112 88.6133 177.003 88.744C175.182 90.9209 172.864 92.1594 170.023 92.3205C165.628 92.5698 161.746 89.9319 160.3 85.7693C158.632 80.9683 161.199 75.5023 165.967 73.6983C167.487 73.1235 169.049 72.9143 170.672 73.12Z" fill="#74BC46"/>
<path fill-rule="evenodd" clip-rule="evenodd" d="M172.914 80.8212C173.168 81.6794 173.398 82.4618 173.63 83.2441C173.849 83.9842 174.068 84.7243 174.289 85.464C174.426 85.9236 174.315 86.178 173.875 86.3863C173.416 86.6038 172.925 86.643 172.428 86.6276C171.645 86.6033 170.888 86.4637 170.215 86.0334C169.673 85.6864 169.608 85.3793 169.934 84.8272C170.729 83.4813 171.519 82.133 172.322 80.7916C172.437 80.5981 172.433 80.5054 172.22 80.3921C170.666 79.5663 169.04 79.3284 167.323 79.7603C167.131 79.8087 167.069 79.8601 167.133 80.0736C167.605 81.6313 168.061 83.1938 168.525 84.7539C168.663 85.2183 168.556 85.4725 168.118 85.6788C167.915 85.7745 167.701 85.8425 167.479 85.8726C166.524 86.0016 165.601 85.8961 164.724 85.4821C164.583 85.4151 164.446 85.3291 164.322 85.2328C163.908 84.9103 163.862 84.6451 164.127 84.1976C164.898 82.8912 165.668 81.5843 166.438 80.2773C166.479 80.2079 166.517 80.1367 166.587 80.0112C166.443 80.0691 166.351 80.1005 166.264 80.1421C166.107 80.2173 165.955 80.3036 165.847 80.074C165.74 79.8481 165.918 79.797 166.058 79.7332C167.012 79.2975 168.013 79.0759 169.065 79.0906C170.731 79.1139 172.189 79.7117 173.51 80.6904C173.642 80.788 173.748 80.8762 173.61 81.0483C173.479 81.2102 173.356 81.1559 173.226 81.0529C173.146 80.9897 173.062 80.9309 172.914 80.8212ZM166.832 80.5012C166.791 80.5321 166.771 80.5398 166.762 80.5544C166.076 81.7138 165.394 82.8749 164.705 84.0326C164.602 84.2062 164.702 84.2097 164.829 84.2249C165.735 84.3336 166.64 84.4454 167.546 84.5561C167.7 84.575 167.854 84.5939 168.05 84.6179C167.637 83.2224 167.237 81.8675 166.832 80.5012ZM172.596 81.2126C172.554 81.2426 172.524 81.2532 172.512 81.2741C171.833 82.4264 171.156 83.5803 170.475 84.7314C170.382 84.8889 170.448 84.9148 170.592 84.9319C171.59 85.0506 172.588 85.1704 173.585 85.2998C173.801 85.3278 173.792 85.2485 173.741 85.0875C173.609 84.6621 173.49 84.2324 173.364 83.8051C173.11 82.9451 172.854 82.0855 172.596 81.2126Z" fill="#F3FAF6"/>
<path fill-rule="evenodd" clip-rule="evenodd" d="M166.832 80.5015C167.237 81.8677 167.638 83.2225 168.051 84.6179C167.855 84.5939 167.701 84.5749 167.546 84.556C166.641 84.4451 165.735 84.3332 164.83 84.2244C164.702 84.2091 164.602 84.2055 164.705 84.032C165.394 82.8746 166.076 81.7138 166.762 80.5546C166.77 80.5401 166.791 80.5323 166.832 80.5015Z" fill="#04A650"/>
<path fill-rule="evenodd" clip-rule="evenodd" d="M172.595 81.2128C172.854 82.0856 173.11 82.9451 173.364 83.8051C173.491 84.2323 173.609 84.6621 173.742 85.0874C173.792 85.2484 173.801 85.3278 173.585 85.2996C172.588 85.17 171.59 85.0501 170.592 84.9313C170.448 84.9142 170.382 84.8883 170.475 84.7308C171.156 83.58 171.833 82.4262 172.512 81.2742C172.524 81.2534 172.554 81.2427 172.595 81.2128Z" fill="#04A650"/>
<path fill-rule="evenodd" clip-rule="evenodd" d="M172.242 41.5317C171.933 41.4799 171.724 41.1868 171.775 40.8779L171.795 40.7665C171.847 40.4576 172.14 40.2494 172.45 40.3012L177.535 41.1567C177.845 41.2086 178.054 41.5024 178.002 41.8113L177.983 41.922C177.931 42.2316 177.638 42.439 177.328 42.3872L172.242 41.5317Z" fill="#252528"/>
<path fill-rule="evenodd" clip-rule="evenodd" d="M180.821 42.2772C180.747 42.7141 180.333 43.0094 179.895 42.935C179.458 42.8614 179.163 42.447 179.236 42.0108C179.309 41.5732 179.724 41.2786 180.161 41.353C180.6 41.4266 180.895 41.8402 180.821 42.2772Z" fill="#252528"/>
<path fill-rule="evenodd" clip-rule="evenodd" d="M147.816 60.7148L147.077 60.5909C146.805 60.5448 146.622 60.287 146.667 60.015L147.81 53.2463C147.856 52.9743 148.114 52.7902 148.387 52.8363L149.125 52.9602L147.816 60.7148Z" fill="#252528"/>
<path fill-rule="evenodd" clip-rule="evenodd" d="M146.292 69.7432L145.554 69.6193C145.282 69.5732 145.099 69.3146 145.144 69.0433L146.287 62.2739C146.332 62.0019 146.591 61.8185 146.863 61.8646L147.601 61.9885L146.292 69.7432Z" fill="#252528"/>
<path d="M122.974 172.457L130.638 146.263C130.638 146.263 123.915 118.681 126.033 110.955C127.087 107.11 142.679 90.8185 144.32 90.5743C145.961 90.3309 162.443 88.7114 164.285 90.1053C166.127 91.4992 167.989 98.1701 159.93 100.822C154.69 102.545 152.032 102.012 151.338 102.681C150.644 103.35 145.457 111.43 145.457 111.43C145.457 111.43 154.454 119.486 150.573 138.619" fill="#F2CBA8"/>
<path d="M188.767 115.182C188.767 115.182 183.661 117.613 182.846 119.335C180.229 124.87 183.11 127.715 186.063 128.482C189.016 129.248 188.752 127.707 191.937 125.914C196.689 123.239 201.254 119.335 199.17 114.45C197.837 111.327 193.282 109.468 190.223 108.542L188.767 115.182Z" fill="#F2CBA8"/>
<path d="M188.767 115.182C188.767 115.182 191.007 113.401 191.599 112.747C192.537 111.713 194.558 110.264 193.34 109.674C192.124 109.084 189.353 112.512 189.353 112.512L188.767 115.182Z" fill="#E79E5C"/>
<path d="M197.844 105.416C198.83 103.774 198.963 100.557 197.129 98.6821C194.776 96.276 189.432 97.6244 186.205 100.226C181.906 103.693 180.813 109.13 185.395 112.137C188.225 113.993 191.557 110.451 192.883 109.882C195.404 108.802 196.804 107.145 197.844 105.416Z" fill="#F2CBA8"/>
<path d="M190.356 97.9946C190.356 97.9946 192.988 101.087 197.942 99.826C197.942 99.826 197.191 98.145 195.259 97.454C193.328 96.7623 190.356 97.9946 190.356 97.9946Z" fill="#E79E5C"/>
<path d="M190.069 90.7679C191.022 85.8757 193.953 84.0992 197.075 84.3328C200.199 84.5664 203.207 88.3516 202.529 91.9739C201.849 95.5954 198.495 99.6825 193.938 98.1427C190.494 96.9798 189.615 93.0968 190.069 90.7679Z" fill="#F2CBA8"/>
<path d="M197.858 63.3833L197.168 78.5323L194.854 81.1822L197.858 63.3833Z" fill="#E79E5C"/>
<path fill-rule="evenodd" clip-rule="evenodd" d="M115.253 171.556L123.216 152.889C123.714 151.723 125.097 151.225 126.223 151.806L164.961 171.786C166.208 172.43 166.818 173.872 166.411 175.216L161.906 190.075L115.253 171.556Z" fill="#014F43"/>
<path d="M128.737 153.098L130.046 148.834L164.529 171.557L128.737 153.098Z" fill="#E79E5C"/>
<path fill-rule="evenodd" clip-rule="evenodd" d="M105.161 21.7894C104.916 19.8912 106.241 18.1487 108.135 17.8778L126.838 15.2048C128.731 14.9342 130.492 16.2334 130.792 18.1223L136.216 52.2971C136.522 54.2241 135.193 56.0285 133.262 56.308L113.573 59.1579C111.639 59.4379 109.85 58.0795 109.599 56.1412L105.161 21.7894Z" fill="#99DDB8"/>
<path fill-rule="evenodd" clip-rule="evenodd" d="M101.394 22.0122C101.124 20.0981 102.458 18.3286 104.372 18.06L125.139 15.1459C127.054 14.8773 128.824 16.2113 129.093 18.1254L133.957 52.6779C134.226 54.5921 132.893 56.3615 130.979 56.6301L110.211 59.5442C108.297 59.8128 106.527 58.4789 106.257 56.5648L101.394 22.0122Z" fill="#CC9D3F"/>
<mask id="mask1_5567_150487" style="mask-type:alpha" maskUnits="userSpaceOnUse" x="101" y="15" width="33" height="45">
<path fill-rule="evenodd" clip-rule="evenodd" d="M101.394 22.0122C101.124 20.0981 102.458 18.3286 104.372 18.06L125.139 15.1459C127.054 14.8773 128.824 16.2113 129.093 18.1254L133.957 52.6779C134.226 54.5921 132.893 56.3615 130.979 56.6301L110.211 59.5442C108.297 59.8128 106.527 58.4789 106.257 56.5648L101.394 22.0122Z" fill="white"/>
</mask>
<g mask="url(#mask1_5567_150487)">
<rect width="27.9711" height="41.8932" rx="3.5" transform="matrix(0.990298 -0.138958 0.139388 0.990238 97.4434 19.0322)" fill="#FFC54F"/>
<path fill-rule="evenodd" clip-rule="evenodd" d="M112.915 23.068L108.709 27.2691C108.195 27.7827 108.061 28.5869 108.381 29.2581L110.983 34.7351C111.302 35.4063 112 35.7914 112.713 35.6915L118.527 34.8756C119.239 34.7757 119.804 34.2133 119.925 33.4803L120.915 27.4992C121.036 26.7662 120.686 26.0299 120.05 25.6779L114.847 22.7968C114.211 22.4448 113.43 22.5544 112.915 23.068Z" fill="#CC9D3F"/>
<rect width="13.9855" height="2.90925" rx="1.45462" transform="matrix(0.990298 -0.138958 0.139388 0.990238 109.506 42.0166)" fill="#CC9D3F"/>
<rect width="13.9855" height="2.90925" rx="1.45462" transform="matrix(0.990298 -0.138958 0.139388 0.990238 110.479 48.9307)" fill="#CC9D3F"/>
</g>
<path fill-rule="evenodd" clip-rule="evenodd" d="M40.3303 76.4563C40.0351 74.8425 41.0912 73.2917 42.7009 72.975L58.5894 69.8493C60.1979 69.5329 61.7633 70.566 62.1047 72.1694L68.2831 101.179C68.6315 102.815 67.575 104.419 65.9347 104.745L49.2103 108.066C47.5671 108.392 45.9743 107.31 45.6729 105.662L40.3303 76.4563Z" fill="#99DDB8"/>
<path fill-rule="evenodd" clip-rule="evenodd" d="M37.1158 76.8158C36.7992 75.1895 37.861 73.6152 39.4875 73.2995L57.1329 69.875C58.7594 69.5594 60.3346 70.6219 60.6512 72.2482L66.3668 101.606C66.6835 103.233 65.6216 104.807 63.9951 105.123L46.3498 108.547C44.7233 108.863 43.148 107.8 42.8314 106.174L37.1158 76.8158Z" fill="#CC9D3F"/>
<mask id="mask2_5567_150487" style="mask-type:alpha" maskUnits="userSpaceOnUse" x="37" y="69" width="30" height="40">
<path fill-rule="evenodd" clip-rule="evenodd" d="M37.1158 76.8158C36.7992 75.1895 37.861 73.6152 39.4875 73.2995L57.1329 69.875C58.7594 69.5594 60.3346 70.6219 60.6512 72.2482L66.3668 101.606C66.6835 103.233 65.6216 104.807 63.9951 105.123L46.3498 108.547C44.7233 108.863 43.148 107.8 42.8314 106.174L37.1158 76.8158Z" fill="white"/>
</mask>
<g mask="url(#mask2_5567_150487)">
<rect width="23.9746" height="35.9094" rx="3" transform="matrix(0.981683 -0.19052 0.191099 0.981571 33.6006 74.4419)" fill="#FFC54F"/>
<path fill-rule="evenodd" clip-rule="evenodd" d="M47.0249 77.2034L43.6139 80.9877C43.1964 81.4504 43.1184 82.1447 43.4218 82.7049L45.8955 87.2765C46.1989 87.8367 46.8139 88.1351 47.419 88.0177L52.359 87.0589C52.9641 86.9415 53.4224 86.4348 53.4935 85.802L54.0718 80.638C54.1429 80.0051 53.8101 79.3906 53.2494 79.1177L48.6669 76.8847C48.1062 76.6118 47.4424 76.7407 47.0249 77.2034Z" fill="#CC9D3F"/>
<rect width="11.9873" height="2.49371" rx="1.24685" transform="matrix(0.981683 -0.19052 0.191098 0.981571 44.9583 93.5757)" fill="#CC9D3F"/>
<rect width="11.9873" height="2.49371" rx="1.24686" transform="matrix(0.981683 -0.19052 0.191098 0.981571 46.1021 99.4502)" fill="#CC9D3F"/>
</g>
<path fill-rule="evenodd" clip-rule="evenodd" d="M220.781 133.375C221.306 131.821 222.983 130.976 224.545 131.478L239.959 136.435C241.519 136.937 242.387 138.598 241.907 140.165L233.224 168.529C232.735 170.128 231.032 171.02 229.439 170.51L213.199 165.32C211.603 164.81 210.736 163.092 211.272 161.505L220.781 133.375Z" fill="#99DDB8"/>
<path fill-rule="evenodd" clip-rule="evenodd" d="M217.795 132.134C218.308 130.558 220.001 129.695 221.577 130.206L238.672 135.752C240.248 136.264 241.11 137.955 240.597 139.531L231.341 167.975C230.828 169.551 229.135 170.414 227.559 169.902L210.464 164.356C208.888 163.845 208.026 162.153 208.538 160.578L217.795 132.134Z" fill="#CC9D3F"/>
<mask id="mask3_5567_150487" style="mask-type:alpha" maskUnits="userSpaceOnUse" x="208" y="130" width="33" height="41">
<path fill-rule="evenodd" clip-rule="evenodd" d="M217.795 132.134C218.308 130.558 220.001 129.695 221.577 130.206L238.672 135.752C240.248 136.264 241.11 137.955 240.597 139.531L231.341 167.975C230.828 169.551 229.135 170.414 227.559 169.902L210.464 164.356C208.888 163.845 208.026 162.153 208.538 160.578L217.795 132.134Z" fill="white"/>
</mask>
<g mask="url(#mask3_5567_150487)">
<rect width="23.9723" height="35.9127" rx="3" transform="matrix(0.951199 0.308577 -0.309457 0.950913 215.873 128.356)" fill="#FFC54F"/>
<path fill-rule="evenodd" clip-rule="evenodd" d="M226.274 137.269L221.453 138.928C220.863 139.131 220.457 139.7 220.451 140.337L220.395 145.533C220.388 146.17 220.781 146.728 221.367 146.919L226.153 148.471C226.74 148.661 227.386 148.44 227.756 147.921L230.769 143.684C231.139 143.165 231.146 142.467 230.788 141.957L227.864 137.785C227.507 137.275 226.863 137.067 226.274 137.269Z" fill="#CC9D3F"/>
<rect width="11.9862" height="2.49394" rx="1.24697" transform="matrix(0.951199 0.308578 -0.309457 0.950913 216.516 150.588)" fill="#CC9D3F"/>
<rect width="11.9862" height="2.49394" rx="1.24697" transform="matrix(0.951199 0.308577 -0.309458 0.950913 214.664 156.28)" fill="#CC9D3F"/>
</g>
<path fill-rule="evenodd" clip-rule="evenodd" d="M79.1493 141.241C78.8798 139.9 79.7371 138.593 81.0738 138.306L94.2666 135.471C95.6022 135.184 96.9216 136.022 97.2294 137.353L102.8 161.434C103.114 162.792 102.257 164.144 100.895 164.439L87.0086 167.449C85.6443 167.745 84.3014 166.866 84.0262 165.497L79.1493 141.241Z" fill="#99DDB8"/>
<path fill-rule="evenodd" clip-rule="evenodd" d="M76.4761 141.587C76.1886 140.236 77.0505 138.909 78.4011 138.623L93.0534 135.513C94.404 135.226 95.732 136.089 96.0195 137.439L101.209 161.818C101.497 163.168 100.635 164.495 99.2845 164.782L84.6322 167.892C83.2816 168.178 81.9536 167.316 81.6661 165.965L76.4761 141.587Z" fill="#CC9D3F"/>
<mask id="mask4_5567_150487" style="mask-type:alpha" maskUnits="userSpaceOnUse" x="76" y="135" width="26" height="33">
<path fill-rule="evenodd" clip-rule="evenodd" d="M76.4761 141.587C76.1886 140.236 77.0505 138.909 78.4011 138.623L93.0534 135.513C94.404 135.226 95.732 136.089 96.0195 137.439L101.209 161.818C101.497 163.168 100.635 164.495 99.2845 164.782L84.6322 167.892C83.2816 168.178 81.9536 167.316 81.6661 165.965L76.4761 141.587Z" fill="white"/>
</mask>
<g mask="url(#mask4_5567_150487)">
<rect width="19.9786" height="29.9248" rx="2.5" transform="matrix(0.978214 -0.207599 0.208225 0.978081 73.5127 139.66)" fill="#FFC54F"/>
<path fill-rule="evenodd" clip-rule="evenodd" d="M84.7383 141.766L81.9514 144.969C81.6102 145.36 81.5553 145.94 81.8163 146.402L83.944 150.175C84.2049 150.638 84.7217 150.877 85.2242 150.771L89.3262 149.9C89.8287 149.794 90.2031 149.365 90.2532 148.837L90.6598 144.525C90.7099 143.997 90.4236 143.49 89.9524 143.271L86.1018 141.477C85.6306 141.257 85.0794 141.374 84.7383 141.766Z" fill="#CC9D3F"/>
<rect width="9.98929" height="2.0781" rx="1.03905" transform="matrix(0.978214 -0.207598 0.208226 0.978081 83.2546 155.438)" fill="#CC9D3F"/>
<rect width="9.98929" height="2.07811" rx="1.03906" transform="matrix(0.978214 -0.207599 0.208225 0.978081 84.2932 160.315)" fill="#CC9D3F"/>
</g>
<path fill-rule="evenodd" clip-rule="evenodd" d="M98.9626 127.679L98.5277 129.128L97.3796 130.113C97.1899 130.276 97.2554 130.583 97.4951 130.655L98.9452 131.089L99.9327 132.236C100.095 132.425 100.404 132.36 100.475 132.12L100.91 130.672L102.059 129.687C102.249 129.524 102.183 129.216 101.943 129.144L100.493 128.711L99.5052 127.564C99.3426 127.374 99.034 127.44 98.9626 127.679Z" fill="#E8AC00"/>
<path fill-rule="evenodd" clip-rule="evenodd" d="M101.195 132.79L100.76 134.238L99.6123 135.224C99.4226 135.387 99.4881 135.694 99.7277 135.766L101.178 136.2L102.165 137.346C102.328 137.536 102.637 137.47 102.708 137.231L103.143 135.783L104.292 134.797C104.481 134.634 104.416 134.327 104.176 134.255L102.725 133.821L101.738 132.675C101.575 132.485 101.267 132.551 101.195 132.79Z" fill="#E8AC00"/>
<path fill-rule="evenodd" clip-rule="evenodd" d="M257.734 46.1868C258.066 44.5801 259.627 43.5371 261.239 43.8456L277.143 46.8901C278.753 47.1983 279.817 48.7417 279.532 50.356L274.376 79.5643C274.085 81.2112 272.504 82.3032 270.861 81.9917L254.108 78.8159C252.462 78.5038 251.391 76.9044 251.73 75.2638L257.734 46.1868Z" fill="#99DDB8"/>
<path fill-rule="evenodd" clip-rule="evenodd" d="M254.619 45.3178C254.936 43.6914 256.511 42.6289 258.137 42.9446L275.783 46.3691C277.409 46.6848 278.471 48.2591 278.155 49.8854L272.439 79.2436C272.122 80.8699 270.547 81.9324 268.921 81.6167L251.275 78.1922C249.649 77.8766 248.587 76.3023 248.903 74.676L254.619 45.3178Z" fill="#CC9D3F"/>
<mask id="mask5_5567_150487" style="mask-type:alpha" maskUnits="userSpaceOnUse" x="248" y="42" width="31" height="40">
<path fill-rule="evenodd" clip-rule="evenodd" d="M254.619 45.3178C254.936 43.6914 256.511 42.6289 258.137 42.9446L275.783 46.3691C277.409 46.6848 278.471 48.2591 278.155 49.8854L272.439 79.2436C272.122 80.8699 270.547 81.9324 268.921 81.6167L251.275 78.1922C249.649 77.8766 248.587 76.3023 248.903 74.676L254.619 45.3178Z" fill="white"/>
</mask>
<g mask="url(#mask5_5567_150487)">
<rect width="23.9746" height="35.9094" rx="3" transform="matrix(0.981683 0.19052 -0.191099 0.981571 252.25 41.8022)" fill="#FFC54F"/>
<path fill-rule="evenodd" clip-rule="evenodd" d="M263.661 49.3834L259.079 51.6165C258.518 51.8893 258.185 52.5039 258.257 53.1368L258.835 58.3007C258.906 58.9336 259.364 59.4403 259.969 59.5577L264.909 60.5164C265.514 60.6339 266.129 60.3355 266.433 59.7753L268.907 55.2037C269.21 54.6435 269.132 53.9492 268.714 53.4865L265.303 49.7021C264.886 49.2394 264.222 49.1106 263.661 49.3834Z" fill="#CC9D3F"/>
<rect width="11.9873" height="2.49371" rx="1.24686" transform="matrix(0.981683 0.19052 -0.191098 0.981571 255.602 63.7905)" fill="#CC9D3F"/>
<rect width="11.9873" height="2.49371" rx="1.24685" transform="matrix(0.981683 0.190519 -0.191099 0.981571 254.458 69.6655)" fill="#CC9D3F"/>
</g>
<path fill-rule="evenodd" clip-rule="evenodd" d="M283.089 39.0438L281.928 40.4404L280.198 40.9911C279.912 41.0824 279.839 41.4527 280.07 41.6443L281.469 42.8022L282.021 44.5313C282.111 44.8167 282.483 44.8888 282.674 44.6581L283.835 43.2615L285.567 42.7109C285.853 42.6197 285.925 42.2494 285.694 42.0578L284.295 40.8997L283.743 39.1706C283.652 38.8852 283.28 38.8131 283.089 39.0438Z" fill="#E8AC00"/>
<path fill-rule="evenodd" clip-rule="evenodd" d="M286.086 45.0282L284.925 46.4248L283.194 46.9755C282.908 47.0667 282.836 47.4371 283.067 47.6286L284.465 48.7866L285.018 50.5157C285.108 50.8011 285.48 50.8732 285.671 50.6425L286.832 49.2459L288.563 48.6953C288.849 48.6041 288.921 48.2337 288.691 48.0422L287.292 46.884L286.739 45.155C286.649 44.8696 286.277 44.7974 286.086 45.0282Z" fill="#E8AC00"/>
<path fill-rule="evenodd" clip-rule="evenodd" d="M198.393 140.788L196.939 143.442L194.283 144.892C193.844 145.132 193.844 145.761 194.283 146.001L196.939 147.452L198.393 150.105C198.632 150.543 199.263 150.543 199.503 150.105L200.957 147.452L203.614 146.001C204.053 145.761 204.053 145.132 203.614 144.892L200.957 143.442L199.503 140.788C199.263 140.35 198.632 140.35 198.393 140.788Z" fill="white"/>
<path fill-rule="evenodd" clip-rule="evenodd" d="M190.401 151.76L188.947 154.413L186.291 155.864C185.852 156.104 185.852 156.733 186.291 156.973L188.947 158.423L190.401 161.077C190.641 161.515 191.272 161.515 191.511 161.077L192.965 158.423L195.622 156.973C196.061 156.733 196.061 156.104 195.622 155.864L192.965 154.413L191.511 151.76C191.272 151.322 190.641 151.322 190.401 151.76Z" fill="white"/>
<path fill-rule="evenodd" clip-rule="evenodd" d="M72.5197 126.824L71.0656 129.478L68.4093 130.928C67.9704 131.168 67.9704 131.797 68.4093 132.037L71.0656 133.488L72.5197 136.141C72.7589 136.579 73.3899 136.579 73.6291 136.141L75.0832 133.488L77.7409 132.037C78.1798 131.797 78.1798 131.168 77.7409 130.928L75.0832 129.478L73.6291 126.824C73.3899 126.386 72.7589 126.386 72.5197 126.824Z" fill="white"/>
</g>
</svg>
