<svg width="329" height="165" viewBox="0 0 329 165" fill="none" xmlns="http://www.w3.org/2000/svg">
<path fill-rule="evenodd" clip-rule="evenodd" d="M305.392 161.549C294.941 163.707 63.8006 165.861 27.0145 161.549C16.1245 160.273 7.40723 148.356 6.1355 146.288C-1.81653 133.356 1.1655 53.6033 3.1535 26.6594C4.22345 12.1585 19.0605 5.64328 26.0205 3.48795C39.3302 -0.634032 275.361 -0.799469 306.387 4.56608C320.268 6.96585 325.3 18.2862 326.299 24.5784C328.63 39.2456 330.007 129.459 326.271 141.611C323.288 151.311 315.832 159.394 305.392 161.549Z" fill="#E6F6ED"/>
<mask id="mask0_5567_145781" style="mask-type:alpha" maskUnits="userSpaceOnUse" x="0" y="0" width="329" height="165">
<path fill-rule="evenodd" clip-rule="evenodd" d="M305.392 161.549C294.941 163.707 63.8006 165.861 27.0145 161.549C16.1245 160.273 7.40723 148.356 6.1355 146.288C-1.81653 133.356 1.1655 53.6033 3.1535 26.6594C4.22345 12.1585 19.0605 5.64328 26.0205 3.48795C39.3302 -0.634032 275.361 -0.799469 306.387 4.56608C320.268 6.96585 325.3 18.2862 326.299 24.5784C328.63 39.2456 330.007 129.459 326.271 141.611C323.288 151.311 315.832 159.394 305.392 161.549Z" fill="white"/>
</mask>
<g mask="url(#mask0_5567_145781)">
<ellipse rx="241.258" ry="51.3675" transform="matrix(-1 0 0 1 242.174 164.538)" fill="#BBF0D3"/>
<mask id="mask1_5567_145781" style="mask-type:alpha" maskUnits="userSpaceOnUse" x="0" y="113" width="484" height="103">
<ellipse rx="241.258" ry="51.3675" transform="matrix(-1 0 0 1 242.174 164.538)" fill="white"/>
</mask>
<g mask="url(#mask1_5567_145781)">
</g>
<path fill-rule="evenodd" clip-rule="evenodd" d="M196.825 174.443C196.825 174.443 116.661 107.17 13.723 128.256C13.723 128.256 -37.2905 137.292 -76.0061 170.928L196.825 174.443Z" fill="#84D7CC"/>
<mask id="mask2_5567_145781" style="mask-type:alpha" maskUnits="userSpaceOnUse" x="-77" y="124" width="274" height="51">
<path fill-rule="evenodd" clip-rule="evenodd" d="M196.825 174.443C196.825 174.443 116.661 107.17 13.723 128.256C13.723 128.256 -37.2905 137.292 -76.0061 170.928L196.825 174.443Z" fill="white"/>
</mask>
<g mask="url(#mask2_5567_145781)">
</g>
<path d="M208.485 131.928H108.163L108.031 49.5738C108.028 47.6068 109.621 46.0105 111.588 46.0105L205.463 46.0105C207.436 46.0105 209.033 47.6174 209.02 49.5912L208.485 131.928Z" fill="#00AB4E"/>
<mask id="mask3_5567_145781" style="mask-type:alpha" maskUnits="userSpaceOnUse" x="108" y="46" width="102" height="86">
<path d="M208.485 131.928H108.163L108.031 49.5738C108.028 47.6068 109.621 46.0105 111.588 46.0105L205.463 46.0105C207.436 46.0105 209.033 47.6174 209.02 49.5912L208.485 131.928Z" fill="white"/>
</mask>
<g mask="url(#mask3_5567_145781)">
<path d="M104.913 78.1611C104.913 78.1611 140.904 80.593 158.899 80.593C176.895 80.593 211.895 78.1611 211.895 78.1611V64.457H104.913V78.1611Z" fill="#00883E"/>
</g>
<path fill-rule="evenodd" clip-rule="evenodd" d="M175.895 90.0185C175.895 88.6396 177.013 87.5217 178.392 87.5217H199.421C200.8 87.5217 201.918 88.6396 201.918 90.0185V131.173H175.895V90.0185Z" fill="#E6F6ED"/>
<mask id="mask4_5567_145781" style="mask-type:alpha" maskUnits="userSpaceOnUse" x="175" y="87" width="27" height="45">
<path fill-rule="evenodd" clip-rule="evenodd" d="M175.895 90.0185C175.895 88.6396 177.013 87.5217 178.392 87.5217H199.421C200.8 87.5217 201.918 88.6396 201.918 90.0185V131.173H175.895V90.0185Z" fill="white"/>
</mask>
<g mask="url(#mask4_5567_145781)">
<rect width="4.39977" height="54.0252" transform="matrix(0.819576 -0.572971 0.574182 0.818728 179.179 81.7734)" fill="#FEFEFE"/>
<rect width="10.0566" height="59.0508" transform="matrix(0.819575 -0.572971 0.574181 0.818728 167.626 87.5261)" fill="#FEFEFE"/>
</g>
<path d="M148.888 77.1927C146.107 77.1927 143.851 75.117 143.851 72.5566V68.4001H153.925V72.5566C153.925 75.117 151.67 77.1927 148.888 77.1927Z" fill="#002E28"/>
<path d="M169.036 77.1927C166.254 77.1927 163.999 75.117 163.999 72.5566V68.4001H174.073V72.5566C174.073 75.117 171.818 77.1927 169.036 77.1927Z" fill="#002E28"/>
<path d="M128.741 77.1927C125.959 77.1927 123.704 75.117 123.704 72.5566V68.4001H133.778V72.5566C133.778 75.117 131.523 77.1927 128.741 77.1927Z" fill="#002E28"/>
<path d="M108.593 77.1927C105.812 77.1927 103.556 75.117 103.556 72.5566C103.556 72.5566 103.556 71.3369 103.556 70.7131C103.556 69.9514 103.556 68.4001 103.556 68.4001H113.63V72.5566C113.63 75.117 111.375 77.1927 108.593 77.1927Z" fill="#002E28"/>
<path d="M189.183 77.1927C186.401 77.1927 184.146 75.117 184.146 72.5566V68.4001H194.22V72.5566C194.22 75.117 191.965 77.1927 189.183 77.1927Z" fill="#002E28"/>
<path d="M138.815 77.1927C136.033 77.1927 133.778 75.117 133.778 72.5566V68.4001H143.851V72.5566C143.851 75.117 141.596 77.1927 138.815 77.1927Z" fill="#C7CFE2"/>
<path d="M179.11 77.1927C176.328 77.1927 174.073 75.117 174.073 72.5566V68.4001H184.147V72.5566C184.147 75.117 181.891 77.1927 179.11 77.1927Z" fill="#C7CFE2"/>
<path d="M209.331 77.1927C206.549 77.1927 204.294 75.117 204.294 72.5566V68.4001H214.368V72.5566C214.368 75.117 212.113 77.1927 209.331 77.1927Z" fill="#002E28"/>
<path d="M199.257 77.1927C196.475 77.1927 194.22 75.117 194.22 72.5566V68.4001H204.294V72.5566C204.294 75.117 202.039 77.1927 199.257 77.1927Z" fill="#C7CFE2"/>
<path d="M118.667 77.1927C115.885 77.1927 113.63 75.117 113.63 72.5566V68.4001H123.704V72.5566C123.704 75.117 121.449 77.1927 118.667 77.1927Z" fill="#C7CFE2"/>
<path d="M158.962 77.1927C156.18 77.1927 153.925 75.117 153.925 72.5566V68.4001H163.999V72.5566C163.999 75.117 161.744 77.1927 158.962 77.1927Z" fill="#C7CFE2"/>
<path d="M153.925 68.4002H143.852L144.894 54.332H154.273L153.925 68.4002Z" fill="#004D43"/>
<path d="M174.073 68.4002H163.999L163.652 54.332H173.031L174.073 68.4002Z" fill="#004D43"/>
<path d="M133.778 68.4002H123.704L126.136 54.332H135.515L133.778 68.4002Z" fill="#004D43"/>
<path d="M113.63 68.4002H103.556L107.377 54.332H116.757L113.63 68.4002Z" fill="#004D43"/>
<path d="M194.22 68.4002H184.147L182.41 54.332H191.789L194.22 68.4002Z" fill="#004D43"/>
<path d="M143.851 68.4002H133.778L135.514 54.332H144.894L143.851 68.4002Z" fill="#EFF2FA"/>
<path d="M184.147 68.4002H174.073L173.031 54.332H182.41L184.147 68.4002Z" fill="#EFF2FA"/>
<path d="M214.368 68.4002H204.294L201.167 54.332H210.547L214.368 68.4002Z" fill="#004D43"/>
<path d="M204.294 68.4002H194.22L191.789 54.332H201.168L204.294 68.4002Z" fill="#EFF2FA"/>
<path d="M123.704 68.4002H113.63L116.757 54.332H126.136L123.704 68.4002Z" fill="#EFF2FA"/>
<path d="M163.999 68.4002H153.925L154.273 54.332H163.651L163.999 68.4002Z" fill="#EFF2FA"/>
<path d="M189.432 50.5176H128.742C128.202 50.5176 127.763 49.8781 127.763 49.0891V34.8045C127.763 34.0155 128.202 33.376 128.742 33.376H189.431C189.972 33.376 190.41 34.0155 190.41 34.8045V49.0894C190.41 49.8781 189.972 50.5176 189.432 50.5176Z" fill="white"/>
<rect x="115.792" y="87.6011" width="52.1112" height="34.2603" rx="2.49678" fill="#E6F6ED"/>
<mask id="mask5_5567_145781" style="mask-type:alpha" maskUnits="userSpaceOnUse" x="115" y="87" width="53" height="35">
<rect x="115.792" y="87.6011" width="52.1112" height="34.2603" rx="2.49678" fill="white"/>
</mask>
<g mask="url(#mask5_5567_145781)">
<rect width="4.39977" height="54.0252" transform="matrix(0.819575 -0.572972 0.574181 0.818728 139.422 80.8875)" fill="#FEFEFE"/>
<rect width="10.0566" height="54.0252" transform="matrix(0.819575 -0.572971 0.574182 0.818728 127.868 86.6401)" fill="#FEFEFE"/>
</g>
<path d="M101.533 116.151C101.534 114.642 100.719 113.233 99.3588 112.391C100.844 110.682 100.543 108.188 98.6863 106.821C97.922 106.259 96.972 105.952 95.9932 105.953C95.9316 105.953 95.8701 105.959 95.8085 105.962C96.4977 103.865 95.21 101.652 92.9325 101.017C90.655 100.383 88.25 101.568 87.5608 103.665C87.3146 104.414 87.3146 105.213 87.5608 105.962C87.4992 105.962 87.4377 105.953 87.3761 105.953C84.9987 105.951 83.0695 107.723 83.0673 109.912C83.0664 110.813 83.3991 111.687 84.0105 112.391C81.7544 113.788 81.1563 116.604 82.6747 118.681C83.0296 119.167 83.4832 119.584 84.0105 119.911C82.5254 121.62 82.8265 124.113 84.683 125.48C85.4474 126.043 86.3973 126.349 87.3761 126.348H95.9932C98.3707 126.35 100.3 124.578 100.302 122.39C100.303 121.489 99.9702 120.614 99.3588 119.911C100.719 119.069 101.534 117.659 101.533 116.151Z" fill="#72BF44"/>
<path d="M96.4338 113.488C96.1968 113.264 95.8072 113.259 95.5635 113.477L92.3001 116.382V108.219C92.3001 107.906 92.0245 107.653 91.6846 107.653C91.3447 107.653 91.0691 107.906 91.0691 108.219V112.234L88.2728 109.66C88.0283 109.443 87.6386 109.449 87.4025 109.674C87.1721 109.894 87.1721 110.242 87.4025 110.461L91.0691 113.836V121.581L88.4267 119.149C88.1822 118.932 87.7926 118.938 87.5564 119.163C87.3259 119.383 87.3259 119.731 87.5564 119.95L91.0691 123.184V133.713C91.0691 134.026 91.3447 134.28 91.6846 134.28C92.0245 134.28 92.3001 134.026 92.3001 133.713V117.958L96.424 114.291C96.6675 114.073 96.6727 113.714 96.4356 113.49C96.435 113.489 96.4343 113.489 96.4338 113.488Z" fill="#5B9836"/>
<path fill-rule="evenodd" clip-rule="evenodd" d="M164.073 46.6361C164.9 47.3596 165.87 47.7952 166.942 47.987C170.223 48.5751 173.33 46.634 174.236 43.4481C174.325 43.1316 174.39 42.8104 174.425 42.4832C174.474 42.3857 174.405 42.2714 174.469 42.1756C174.469 41.8887 174.469 41.6019 174.469 41.315C174.415 41.2331 174.455 41.1422 174.442 41.0559C174.421 39.8869 173.953 38.8777 173.288 37.9535C172.357 36.6598 171.082 35.8679 169.542 35.4865C169.295 35.4254 169.042 35.4173 168.789 35.4175C168.688 35.4045 168.582 35.4464 168.485 35.3916C168.215 35.3916 167.944 35.3916 167.674 35.3916C167.591 35.4445 167.499 35.4055 167.412 35.4178C166.173 35.4528 165.12 35.965 164.15 36.6866C164.095 36.7271 164.052 36.7801 164.044 36.8524C164.065 37.0205 164.2 37.1087 164.308 37.2093C165.382 38.2096 166.009 39.446 166.202 40.8895C166.401 42.3655 166.121 43.7556 165.333 45.0314C165.057 45.4784 164.73 45.8843 164.345 46.2437C164.241 46.3408 164.128 46.4325 164.059 46.5623C164.049 46.5897 164.054 46.6144 164.073 46.6361Z" fill="#BCD430"/>
<path fill-rule="evenodd" clip-rule="evenodd" d="M164.073 46.6361C164.076 46.6205 164.078 46.6049 164.079 46.5891C163.731 46.2705 163.404 45.9328 163.117 45.5575C162.381 44.5948 161.967 43.5118 161.851 42.3028C161.741 41.154 161.951 40.0689 162.437 39.0357C162.784 38.297 163.26 37.6432 163.879 37.1011C163.954 37.0347 164.042 36.9769 164.046 36.8608C164.023 36.7292 163.91 36.6708 163.819 36.6031C163.092 36.0645 162.29 35.684 161.406 35.4857C161.168 35.4321 160.923 35.422 160.678 35.4178C160.577 35.4045 160.47 35.4464 160.372 35.3916C160.119 35.3916 159.865 35.3916 159.611 35.3916C159.514 35.4543 159.398 35.3865 159.299 35.4344C157.997 35.569 156.846 36.055 155.856 36.9136C155.838 37.0458 155.94 37.1093 156.018 37.1802C156.723 37.8202 157.272 38.5731 157.608 39.4631C158.458 41.7107 158.145 43.797 156.7 45.7162C156.522 45.953 156.313 46.1608 156.105 46.3709C156.031 46.4452 155.925 46.5074 155.948 46.6407C156.702 47.3115 157.589 47.7267 158.564 47.9364C160.513 48.3551 162.29 47.9545 163.882 46.7523C163.942 46.7068 163.993 46.6469 164.073 46.6361Z" fill="#74BD45"/>
<path fill-rule="evenodd" clip-rule="evenodd" d="M168.796 35.4347C168.792 35.4205 168.79 35.4062 168.789 35.3916C168.688 35.3916 168.586 35.3916 168.485 35.3916C168.579 35.4745 168.69 35.4387 168.796 35.4347Z" fill="#D9E68B"/>
<path fill-rule="evenodd" clip-rule="evenodd" d="M160.681 35.4354C160.678 35.421 160.676 35.4065 160.676 35.3917C160.575 35.3917 160.473 35.3917 160.372 35.3917C160.466 35.4685 160.576 35.4398 160.681 35.4354Z" fill="#BDDFA8"/>
<path fill-rule="evenodd" clip-rule="evenodd" d="M159.299 35.4344C159.406 35.4395 159.517 35.4766 159.611 35.3916C159.51 35.3916 159.408 35.3916 159.307 35.3916C159.306 35.4061 159.303 35.4203 159.299 35.4344Z" fill="#A7D58A"/>
<path fill-rule="evenodd" clip-rule="evenodd" d="M174.468 42.1755C174.393 42.2694 174.422 42.378 174.425 42.4831C174.439 42.4831 174.454 42.4818 174.468 42.4793C174.468 42.378 174.468 42.2768 174.468 42.1755Z" fill="#E5EEB1"/>
<path fill-rule="evenodd" clip-rule="evenodd" d="M167.42 35.3916C167.419 35.4055 167.417 35.4194 167.414 35.4333C167.504 35.4397 167.597 35.4671 167.674 35.3916C167.589 35.3916 167.505 35.3916 167.42 35.3916Z" fill="#E0EBA0"/>
<path fill-rule="evenodd" clip-rule="evenodd" d="M174.468 41.0618C174.456 41.0551 174.442 41.0528 174.428 41.0551C174.42 41.1449 174.393 41.2382 174.468 41.315C174.468 41.2306 174.468 41.1462 174.468 41.0618Z" fill="#DFEBA0"/>
<path fill-rule="evenodd" clip-rule="evenodd" d="M155.948 46.6404C156.36 46.1959 156.794 45.7726 157.119 45.2532C157.663 44.382 158 43.4469 158.098 42.4187C158.263 40.6786 157.772 39.1423 156.692 37.787C156.442 37.4731 156.136 37.2033 155.856 36.9132C155.294 36.5097 154.718 36.1357 154.066 35.8838C150.27 34.4165 146.057 36.8654 145.473 40.8837C144.971 44.3358 147.362 47.5859 150.796 48.0866C152.642 48.3558 154.311 47.9069 155.778 46.7427C155.83 46.7016 155.875 46.6465 155.948 46.6404Z" fill="#0AA94E"/>
<path fill-rule="evenodd" clip-rule="evenodd" d="M164.065 36.8626C164.051 36.8605 164.036 36.8617 164.022 36.8659C163.519 37.3167 163.069 37.8127 162.714 38.3902C162.182 39.256 161.871 40.1892 161.784 41.2066C161.651 42.7627 162.049 44.1662 162.944 45.4333C163.225 45.831 163.533 46.2111 163.925 46.5123C163.973 46.5488 164.016 46.5861 164.079 46.5893C165.445 45.3924 166.225 43.9029 166.313 42.0784C166.409 40.1 165.714 38.4371 164.279 37.0765C164.206 37.0069 164.136 36.9339 164.065 36.8626Z" fill="#0AA94E"/>
<path fill-rule="evenodd" clip-rule="evenodd" d="M154.595 39.723C154.743 39.811 154.848 39.862 154.94 39.9306C155.071 40.0285 155.168 40.0074 155.257 39.876C155.354 39.7306 155.259 39.6614 155.152 39.5952C153.998 38.8792 152.745 38.5504 151.388 38.6514C150.327 38.7305 149.346 39.0712 148.427 39.6009C148.318 39.6638 148.186 39.7121 148.283 39.885C148.376 40.0492 148.492 40.0222 148.623 39.9445C148.708 39.8945 148.795 39.8498 148.893 39.7971C148.903 39.9034 148.848 39.9711 148.816 40.0445C148.28 41.2798 147.742 42.5145 147.205 43.7496C147.044 44.1204 147.106 44.3423 147.446 44.5695C147.761 44.7805 148.118 44.8784 148.489 44.9294C149.131 45.0176 149.768 45.0049 150.394 44.8138C150.605 44.7493 150.806 44.6626 150.982 44.5278C151.265 44.3115 151.319 44.1033 151.177 43.7755C150.603 42.4554 150.035 41.1328 149.447 39.8192C149.349 39.6007 149.403 39.5425 149.599 39.4672C151.054 38.9073 152.508 38.8784 153.973 39.4353C154.169 39.51 154.201 39.5796 154.114 39.7739C153.528 41.0973 152.954 42.4267 152.377 43.754C152.22 44.1147 152.278 44.3339 152.602 44.5581C152.922 44.7792 153.288 44.879 153.667 44.9307C154.309 45.0182 154.946 45.0047 155.572 44.813C155.742 44.7609 155.905 44.6921 156.056 44.5974C156.438 44.3573 156.505 44.14 156.325 43.7264C155.788 42.4913 155.251 41.2564 154.714 40.0213C154.679 39.9399 154.649 39.8568 154.595 39.723Z" fill="#FEFEFE"/>
<path fill-rule="evenodd" clip-rule="evenodd" d="M155.902 43.6788C155.871 43.5957 155.856 43.5484 155.837 43.5033C155.351 42.384 154.865 41.2647 154.378 40.145C154.316 40.1739 154.304 40.2233 154.285 40.2682C153.822 41.3339 153.361 42.4007 152.892 43.4634C152.817 43.6339 152.822 43.6851 153.03 43.6832C153.976 43.6733 154.922 43.6788 155.902 43.6788Z" fill="#0AA94E"/>
<path fill-rule="evenodd" clip-rule="evenodd" d="M147.634 43.6669C148.681 43.6669 149.69 43.6669 150.733 43.6669C150.219 42.4816 149.715 41.3189 149.186 40.0979C148.66 41.3075 148.154 42.471 147.634 43.6669Z" fill="#0AA94E"/>
<path d="M106.778 133.179C106.778 131.8 107.896 130.683 109.275 130.683H209.041C210.42 130.683 211.538 131.8 211.538 133.179V135.663H106.778V133.179Z" fill="#004D43"/>
<path fill-rule="evenodd" clip-rule="evenodd" d="M241.675 131.036C241.675 144.466 230.771 155.352 217.32 155.352C203.87 155.352 192.966 144.466 192.966 131.036C192.966 117.607 203.87 106.72 217.32 106.72C230.771 106.72 241.675 117.607 241.675 131.036Z" fill="#84D7CC"/>
<path fill-rule="evenodd" clip-rule="evenodd" d="M241.178 129.548C241.178 142.703 230.497 153.368 217.32 153.368C204.144 153.368 193.463 142.703 193.463 129.548C193.463 116.392 204.144 105.728 217.32 105.728C230.497 105.728 241.178 116.392 241.178 129.548Z" fill="white"/>
<path fill-rule="evenodd" clip-rule="evenodd" d="M227.501 134.062H208.249C207.741 134.062 207.298 134.312 207.171 134.669L204.932 140.987C204.751 141.499 205.282 141.999 206.01 141.999H225.262C225.77 141.999 226.213 141.749 226.34 141.391L228.579 135.074C228.761 134.561 228.229 134.062 227.501 134.062Z" fill="#BFD730"/>
<path fill-rule="evenodd" clip-rule="evenodd" d="M221.349 137.784C221.581 137.13 221.096 136.443 220.402 136.443H212.856C212.431 136.443 212.051 136.711 211.909 137.112L211.496 138.276C211.264 138.931 211.749 139.618 212.443 139.618H219.989C220.415 139.618 220.794 139.349 220.936 138.948L221.349 137.784Z" fill="#98AC26"/>
<path fill-rule="evenodd" clip-rule="evenodd" d="M210.857 129.585L210.773 129.473C209.853 128.228 209.216 126.728 208.978 125.087C208.908 124.608 208.871 124.118 208.871 123.62C208.871 119.309 215.23 114.22 215.23 114.22H217.615C222.444 114.22 226.359 118.429 226.359 123.62C226.359 124.118 226.322 124.608 226.252 125.087C226.013 126.728 225.377 128.228 224.454 129.473H224.458L224.376 129.582C224.37 129.588 224.364 129.596 224.358 129.604C224.357 129.606 224.355 129.607 224.354 129.609L218.212 137.725C218.059 137.927 217.835 138.029 217.615 138.03C217.392 138.032 215.23 138.03 215.23 138.03L210.873 129.608L210.873 129.608C210.867 129.6 210.862 129.592 210.857 129.585ZM217.615 127.713C220.249 127.713 222.385 125.581 222.385 122.951C222.385 120.321 220.249 118.189 217.615 118.189C214.981 118.189 212.846 120.321 212.846 122.951C212.846 125.581 214.981 127.713 217.615 127.713Z" fill="#00883E"/>
<path fill-rule="evenodd" clip-rule="evenodd" d="M208.388 129.473C207.468 128.228 206.831 126.728 206.593 125.087C206.523 124.608 206.486 124.118 206.486 123.62C206.486 118.429 210.401 114.22 215.23 114.22C220.059 114.22 223.974 118.429 223.974 123.62C223.974 124.118 223.937 124.608 223.868 125.087C223.629 126.728 222.993 128.228 222.07 129.473H222.074L221.991 129.582C221.985 129.588 221.979 129.596 221.973 129.604C221.972 129.606 221.97 129.607 221.969 129.609L215.827 137.725C215.518 138.132 214.94 138.132 214.633 137.725L208.488 129.608L208.488 129.608C208.482 129.6 208.477 129.592 208.472 129.585L208.387 129.473H208.388ZM215.23 127.713C217.864 127.713 220 125.581 220 122.951C220 120.321 217.864 118.189 215.23 118.189C212.596 118.189 210.461 120.321 210.461 122.951C210.461 125.581 212.596 127.713 215.23 127.713Z" fill="#00AB4E"/>
<path fill-rule="evenodd" clip-rule="evenodd" d="M331.962 18.313C323.918 18.313 317.135 23.7149 315.028 31.0744C313.641 30.6333 312.167 30.4043 310.627 30.4043C303.911 30.4043 298.265 34.8824 296.496 41.0016H315.137H324.738H348.81C349.293 39.3822 349.567 37.6554 349.567 35.8702C349.567 26.175 341.692 18.313 331.962 18.313Z" fill="#C4E4FF"/>
<path fill-rule="evenodd" clip-rule="evenodd" d="M0.416906 46.241C8.46023 46.241 15.2432 51.6428 17.3504 59.0024C18.7372 58.5613 20.2118 58.3322 21.7515 58.3322C28.4675 58.3322 34.113 62.8104 35.8821 68.9295H17.2418H7.64079H-16.4316C-16.9149 67.3102 -17.1887 65.5834 -17.1887 63.7982C-17.1887 54.1029 -9.31344 46.241 0.416906 46.241Z" fill="#C4E4FF"/>
</g>
<path d="M87.3944 59.7678L85.6265 63.3022L82.2417 65.3187C81.6824 65.6524 81.7112 66.4743 82.2924 66.7682L85.8098 68.5441L87.8204 71.9467C88.1511 72.5087 88.971 72.4802 89.2617 71.8965L91.0296 68.3621L94.4161 66.3455C94.9753 66.0118 94.9466 65.1899 94.3654 64.896L90.8462 63.1202L88.8357 59.7176C88.5049 59.1556 87.6851 59.1842 87.3944 59.7678Z" fill="#FFC54F"/>
<path d="M223.962 37.4239L223.546 41.0469L221.248 43.863C220.868 44.3287 221.153 45.0326 221.75 45.1043L225.362 45.536L228.182 47.8537C228.647 48.2369 229.349 47.9537 229.417 47.3558L229.833 43.7328L232.132 40.9161C232.512 40.4504 232.227 39.7465 231.63 39.6748L228.016 39.2437L225.196 36.926C224.732 36.5428 224.029 36.826 223.962 37.4239Z" fill="#FFC54F"/>
<path d="M157.759 18.7122L156.45 21.1149L154.059 22.4285C153.664 22.6458 153.664 23.2152 154.059 23.4326L156.45 24.7461L157.759 27.1489C157.974 27.5457 158.542 27.5457 158.757 27.1489L160.066 24.7461L162.458 23.4326C162.853 23.2152 162.853 22.6458 162.458 22.4285L160.066 21.1149L158.757 18.7122C158.542 18.3153 157.974 18.3153 157.759 18.7122Z" fill="#FFC54F"/>
</svg>
