<svg width="140" height="148" viewBox="0 0 140 148" fill="none" xmlns="http://www.w3.org/2000/svg">
<ellipse cx="73.8571" cy="131.428" rx="64.5714" ry="16.5714" fill="#00883E"/>
<path fill-rule="evenodd" clip-rule="evenodd" d="M32.3723 4.37747L32.8601 4.52738C36.3791 5.61475 39.2148 6.61096 41.547 7.52385C42.8579 8.05112 43.6402 9.32506 43.4095 10.5849C43.3432 10.9626 43.2595 11.3875 43.1594 11.8525L42.997 12.579C42.8169 13.3618 42.0539 13.8543 41.1825 13.821L40.9963 13.8206C40.0113 13.8533 39.1643 14.4461 38.8928 15.3341C38.6044 16.2775 39.0409 17.308 39.9451 17.8688L40.0794 17.9593C40.7281 18.4325 41.0252 19.2103 40.755 19.9124C40.5698 20.3952 40.3917 20.8389 40.2249 21.235L39.9836 21.7924C39.4684 22.9704 38.1075 23.5891 36.7178 23.2915C34.4616 22.7862 31.8081 22.0991 28.6504 21.1603L27.3603 20.7713C23.5526 19.6072 20.4719 18.5278 18.1452 17.6026C16.8333 17.0821 16.0544 15.7962 16.2891 14.5296C16.3626 14.1322 16.4563 13.6838 16.5716 13.1808L16.7207 12.551C16.9083 11.7755 17.6697 11.2888 18.5363 11.3254L18.724 11.3269C19.7167 11.2991 20.5682 10.7067 20.8408 9.815C21.1304 8.86761 20.6894 7.83457 19.7757 7.27355L19.6416 7.1844C18.994 6.71766 18.6941 5.9444 18.9547 5.24357C19.1505 4.71514 19.3335 4.24587 19.5044 3.83187L19.7036 3.36135C20.2173 2.17985 21.5822 1.54937 22.9597 1.85114C25.389 2.38011 28.5572 3.21106 32.3723 4.37747ZM34.7736 9.1898C35.1616 8.99261 35.6475 9.14116 35.8589 9.5216C36.0511 9.86745 35.9502 10.2859 35.6388 10.5073L35.5391 10.5675L24.9418 15.9537C24.5538 16.1509 24.068 16.0024 23.8566 15.6219C23.6644 15.2761 23.7653 14.8576 24.0767 14.6362L24.1763 14.576L34.7736 9.1898ZM28.3574 8.87826C28.6485 7.92599 28.0768 6.90551 27.0817 6.60127C26.0865 6.29703 25.0419 6.82333 24.7508 7.7756C24.4596 8.72787 25.0314 9.74836 26.0265 10.0526C27.0216 10.3568 28.0663 9.83053 28.3574 8.87826ZM35.0142 17.2033C35.3054 16.2511 34.7336 15.2306 33.7385 14.9263C32.7434 14.6221 31.6988 15.1484 31.4076 16.1007C31.1165 17.053 31.6882 18.0734 32.6833 18.3777C33.6785 18.6819 34.7231 18.1556 35.0142 17.2033Z" fill="#BBF0D3"/>
<path fill-rule="evenodd" clip-rule="evenodd" d="M121.442 25.8002L121.762 25.7443C124.071 25.3445 125.968 25.0938 127.555 24.9434C128.451 24.8672 129.268 25.3931 129.508 26.212C129.581 26.4567 129.659 26.7347 129.739 27.0414L129.86 27.5224C129.989 28.0422 129.702 28.5626 129.2 28.8021L129.094 28.8572C128.547 29.1699 128.242 29.775 128.35 30.3847C128.464 31.0324 129.014 31.5162 129.69 31.581L129.792 31.5949C130.298 31.6837 130.695 32.0584 130.748 32.557C130.785 32.8997 130.815 33.2169 130.837 33.5025L130.865 33.9062C130.92 34.7611 130.332 35.5346 129.459 35.771C128.034 36.1415 126.332 36.5221 124.27 36.9029L123.426 37.0552C120.931 37.4951 118.872 37.7693 117.284 37.9108C116.389 37.9912 115.571 37.4572 115.332 36.6331C115.256 36.3745 115.177 36.0796 115.095 35.7457L114.994 35.3263C114.872 34.8086 115.16 34.2921 115.66 34.056L115.767 34.001C116.32 33.689 116.627 33.0828 116.52 32.4706C116.405 31.8202 115.852 31.3362 115.17 31.2741L115.068 31.2609C114.565 31.1757 114.168 30.8044 114.109 30.3095C114.065 29.9365 114.03 29.6026 114.005 29.3052L113.98 28.9656C113.923 28.1091 114.509 27.3274 115.377 27.0971C116.906 26.6891 118.942 26.2411 121.442 25.8002ZM120.383 29.7534C120.271 29.1178 119.61 28.7021 118.908 28.826C118.205 28.9498 117.726 29.5666 117.838 30.2022C117.95 30.8378 118.611 31.2534 119.314 31.1296C120.016 31.0058 120.495 30.389 120.383 29.7534ZM126.999 32.5455C126.887 31.9099 126.226 31.4943 125.524 31.6181C124.821 31.742 124.342 32.3588 124.454 32.9944C124.566 33.63 125.228 34.0456 125.93 33.9218C126.632 33.7979 127.112 33.1812 126.999 32.5455ZM124.408 28.0051C124.586 27.775 124.929 27.7146 125.174 27.8701C125.397 28.0114 125.463 28.2826 125.34 28.5036L125.297 28.5682L120.449 34.8522C120.271 35.0823 119.929 35.1428 119.683 34.9873C119.46 34.8459 119.394 34.5748 119.517 34.3538L119.56 34.2892L124.408 28.0051Z" fill="#BBF0D3"/>
<path fill-rule="evenodd" clip-rule="evenodd" d="M64.1345 55.9897L69.2725 57.739C69.8344 57.93 70.174 58.5071 70.0596 59.091C69.3472 62.7427 71.4215 66.4531 75.0372 67.6848C78.6554 68.9169 82.5599 67.2432 84.2195 63.9131C84.4854 63.3815 85.1073 63.1311 85.668 63.322L90.806 65.0712C92.1221 65.5205 92.8264 66.9524 92.3785 68.2704L76.4892 115.005C76.0411 116.324 74.6094 117.03 73.293 116.581L46.6233 107.498C45.3056 107.049 44.6026 105.618 45.0507 104.299L60.9401 57.5639C61.3879 56.2459 62.8169 55.5415 64.1345 55.9897Z" fill="#84D653"/>
<path fill-rule="evenodd" clip-rule="evenodd" d="M74.9852 40.7499C74.1017 40.3587 74.156 39.0876 75.0693 38.7857C76.789 38.2185 78.0364 37.5922 78.8118 36.9054C79.6273 36.1834 80.4469 34.9343 81.2687 33.154C81.6725 32.2801 82.944 32.3365 83.2754 33.2436C83.9667 35.1364 84.6617 36.4839 85.3626 37.2878C86.0318 38.0567 87.1393 38.8272 88.6855 39.5968C89.5291 40.0156 89.4916 41.2272 88.603 41.5326C87.0173 42.0802 85.8442 42.6935 85.08 43.3706C84.2911 44.0717 83.4804 45.2546 82.6481 46.9179C82.2226 47.7667 80.9829 47.6903 80.6542 46.7968C80.0173 45.0687 79.3099 43.7985 78.5317 42.9888C77.7891 42.2147 76.6064 41.4688 74.9852 40.7499Z" fill="#FFE7B8"/>
<path fill-rule="evenodd" clip-rule="evenodd" d="M128.528 74.8047C127.917 74.5338 127.954 73.6539 128.587 73.4448C129.777 73.0521 130.641 72.6185 131.178 72.1431C131.742 71.6432 132.31 70.7785 132.878 69.546C133.158 68.9409 134.038 68.98 134.268 69.608C134.746 70.9184 135.227 71.8513 135.713 72.4078C136.176 72.9402 136.943 73.4736 138.013 74.0064C138.597 74.2963 138.571 75.1351 137.956 75.3465C136.858 75.7256 136.046 76.1502 135.517 76.619C134.971 77.1044 134.41 77.9233 133.833 79.0748C133.539 79.6624 132.681 79.6096 132.453 78.991C132.012 77.7946 131.522 76.9152 130.984 76.3546C130.47 75.8188 129.651 75.3023 128.528 74.8047Z" fill="#FFE7B8"/>
<path fill-rule="evenodd" clip-rule="evenodd" d="M57.3755 68.332L59.3793 62.6531L73.9737 96.2795L69.2182 98.1618L57.3755 68.332Z" fill="#72BF44"/>
<path fill-rule="evenodd" clip-rule="evenodd" d="M21.6837 62.0179L26.7301 59.9479C27.2817 59.7201 27.9217 59.9293 28.2241 60.4421C30.1141 63.6495 34.1455 65.0645 37.7012 63.6073C41.2533 62.1482 43.0914 58.3238 42.1336 54.734C41.9809 54.1596 42.2825 53.5657 42.8368 53.3371L47.882 51.2668C49.1745 50.7363 50.6606 51.3476 51.198 52.6301L70.2556 98.1245C70.7938 99.4097 70.1817 100.88 68.8865 101.411L42.6896 112.161C41.3959 112.692 39.912 112.082 39.3734 110.799L20.315 65.3022C19.7788 64.0199 20.3899 62.5483 21.6837 62.0179Z" fill="#63B5FA"/>
<path fill-rule="evenodd" clip-rule="evenodd" d="M104.077 127.821C105.673 127.821 106.964 126.825 106.963 125.597L106.917 89.9471L108.639 89.9474C110.234 89.947 111.527 90.9434 111.529 92.1718L111.577 129.148C111.578 130.376 110.287 131.372 108.691 131.372L33.0287 131.372C31.4332 131.372 30.1394 130.376 30.1372 129.148L30.1365 127.821L104.077 127.821Z" fill="#DF9F1C"/>
<path fill-rule="evenodd" clip-rule="evenodd" d="M31.5273 130.436L107.028 130.305C108.25 130.304 109.24 129.527 109.24 128.57L109.258 90.7212C109.257 89.7652 108.266 88.9905 107.045 88.9922L31.5433 89.1226C30.3232 89.1244 29.3305 89.9021 29.3308 90.8594L29.3143 128.708C29.3148 129.664 30.3045 130.439 31.5273 130.436Z" fill="#FFC54F"/>
<path fill-rule="evenodd" clip-rule="evenodd" d="M51.2812 103.278C49.8677 103.278 48.7238 104.409 48.7293 105.804L48.7473 111.25C48.7509 111.848 49.1942 112.358 49.7944 112.438C53.5398 112.94 56.4364 116.112 56.4484 119.947C56.461 123.781 53.5851 126.95 49.8443 127.451C49.2438 127.531 48.8034 128.039 48.8053 128.637L48.8236 134.084C48.8285 135.48 49.9786 136.611 51.3927 136.612L102.134 136.74C103.548 136.747 104.694 135.621 104.698 134.225L104.703 128.778C104.705 128.181 104.262 127.671 103.662 127.588C99.9196 127.066 97.0374 123.884 97.041 120.049C97.0463 116.214 99.9364 113.057 103.681 112.574C104.281 112.496 104.724 111.989 104.725 111.392L104.73 105.946C104.734 104.55 103.588 103.413 102.174 103.405" fill="#28D677"/>
<path fill-rule="evenodd" clip-rule="evenodd" d="M60.7448 108.737L60.8877 104.304C60.9054 103.756 61.3245 103.314 61.8238 103.317C62.323 103.32 62.7135 103.766 62.6958 104.314L62.5529 108.747C62.5352 109.295 62.1161 109.737 61.6168 109.734C61.1175 109.732 60.7271 109.285 60.7448 108.737ZM60.4304 118.487L60.5733 114.054C60.591 113.506 61.0101 113.064 61.5093 113.067C62.0086 113.07 62.399 113.517 62.3814 114.065L62.2384 118.497C62.2208 119.045 61.8017 119.488 61.3024 119.485C60.8031 119.482 60.4127 119.035 60.4304 118.487ZM60.2589 123.805L60.1159 128.237C60.0983 128.785 60.4887 129.232 60.988 129.235C61.4873 129.238 61.9063 128.796 61.924 128.248L62.067 123.815C62.0846 123.267 61.6942 122.82 61.1949 122.817C60.6956 122.815 60.2766 123.257 60.2589 123.805ZM59.8758 135.685L59.9445 133.555C59.9621 133.007 60.3812 132.565 60.8805 132.568C61.3798 132.57 61.7702 133.017 61.7525 133.565L61.6838 135.696C61.6662 136.244 61.2471 136.686 60.7478 136.683C60.2485 136.68 59.8581 136.234 59.8758 135.685Z" fill="#FFF9ED"/>
<path d="M74.714 123.25V125H67.924V123.39L71.214 119.904C71.9047 119.176 72.25 118.504 72.25 117.888C72.25 117.104 71.802 116.712 70.906 116.712C70.4953 116.712 70.066 116.796 69.618 116.964C69.17 117.123 68.7313 117.356 68.302 117.664L67.616 116.11C68.008 115.774 68.512 115.508 69.128 115.312C69.744 115.107 70.374 115.004 71.018 115.004C72.0447 115.004 72.8613 115.251 73.468 115.746C74.084 116.241 74.392 116.903 74.392 117.734C74.392 118.303 74.2707 118.831 74.028 119.316C73.7947 119.801 73.398 120.343 72.838 120.94L70.64 123.25H74.714ZM80.2102 118.616C80.8169 118.616 81.3582 118.751 81.8342 119.022C82.3102 119.283 82.6789 119.652 82.9402 120.128C83.2015 120.604 83.3322 121.155 83.3322 121.78C83.3322 122.443 83.1735 123.026 82.8562 123.53C82.5482 124.034 82.1049 124.426 81.5262 124.706C80.9569 124.977 80.2895 125.112 79.5242 125.112C78.8989 125.112 78.2782 125.014 77.6622 124.818C77.0462 124.613 76.5469 124.342 76.1642 124.006L76.8502 122.452C77.7555 123.087 78.6562 123.404 79.5522 123.404C80.1215 123.404 80.5509 123.273 80.8402 123.012C81.1389 122.751 81.2882 122.363 81.2882 121.85C81.2882 121.365 81.1342 120.982 80.8262 120.702C80.5275 120.422 80.1169 120.282 79.5942 120.282C79.2675 120.282 78.9409 120.343 78.6142 120.464C78.2969 120.585 78.0075 120.753 77.7462 120.968H76.5002V115.13H82.8562V116.796H78.6282V118.994C79.0762 118.742 79.6035 118.616 80.2102 118.616ZM91.9507 125H89.3607L86.7287 121.934V125H84.6147V115.13H86.7287V121.066L89.2627 118.14H91.7827L88.8987 121.416L91.9507 125Z" fill="white"/>
<path fill-rule="evenodd" clip-rule="evenodd" d="M127.641 126.775L132.014 124.711C132.765 124.359 133.07 123.501 132.696 122.795L100.714 62.3838C101.863 62.2183 104.357 62.142 104.903 63.1733L136.997 123.825C137.673 125.103 137.121 126.656 135.763 127.292L131.176 129.442C129.817 130.079 128.167 129.56 127.491 128.281L126.832 127.005C127.105 126.965 127.38 126.897 127.641 126.775Z" fill="#DF9F1C"/>
<path d="M27.0687 81.0859L57.7887 69.7716" stroke="#C4E4FF" stroke-width="1.88571" stroke-linecap="round" stroke-dasharray="4.4"/>
<path fill-rule="evenodd" clip-rule="evenodd" d="M127.436 111.981L102.535 63.7566C101.856 62.446 100.202 61.9108 98.8403 62.5645L94.2408 64.769C92.8796 65.4228 92.3261 67.0154 93.0035 68.326L125.18 130.529C125.858 131.841 127.512 132.375 128.874 131.721L133.472 129.515C134.834 128.862 135.39 127.271 134.71 125.96L132.6 121.969" fill="#FFC54F"/>
<path fill-rule="evenodd" clip-rule="evenodd" d="M1.67093 96.519C1.05928 96.2482 1.09691 95.3682 1.72916 95.1592C2.91971 94.7665 3.78331 94.3329 4.32013 93.8575C4.8847 93.3576 5.4521 92.4929 6.02108 91.2603C6.30062 90.6553 7.18091 90.6943 7.41031 91.3223C7.8889 92.6328 8.37003 93.5656 8.85531 94.1222C9.3186 94.6545 10.0853 95.1879 11.1558 95.7207C11.7398 96.0106 11.7139 96.8495 11.0986 97.0609C10.0009 97.44 9.18872 97.8646 8.65963 98.3334C8.11352 98.8187 7.55227 99.6376 6.97604 100.789C6.68148 101.377 5.82319 101.324 5.59564 100.705C5.15469 99.509 4.665 98.6296 4.12623 98.069C3.6121 97.5331 2.79331 97.0167 1.67093 96.519Z" fill="#FFF9ED"/>
<path d="M86.3765 82.2141L60.1947 73.2141" stroke="#BBF0D3" stroke-width="1.88571" stroke-linecap="round" stroke-dasharray="4.4"/>
</svg>
