<svg width="328" height="165" viewBox="0 0 328 165" fill="none" xmlns="http://www.w3.org/2000/svg">
<path fill-rule="evenodd" clip-rule="evenodd" d="M23.3169 162.074C33.7684 164.232 264.908 166.385 301.694 162.074C312.585 160.798 321.302 148.881 322.573 146.813C330.526 133.881 327.543 54.128 325.555 27.184C324.486 12.6832 309.648 6.16794 302.688 4.01261C289.379 -0.109375 53.3478 -0.274812 22.3219 5.09074C8.44086 7.49051 3.40891 18.8109 2.40991 25.1031C0.0792528 39.7703 -1.29836 129.984 2.43788 142.136C5.42089 151.835 12.8774 159.919 23.3169 162.074Z" fill="#BBF0D3"/>
<mask id="mask0_5567_144971" style="mask-type:alpha" maskUnits="userSpaceOnUse" x="0" y="0" width="328" height="165">
<path fill-rule="evenodd" clip-rule="evenodd" d="M23.3169 162.074C33.7684 164.232 264.908 166.385 301.694 162.074C312.585 160.798 321.302 148.881 322.573 146.813C330.526 133.881 327.543 54.128 325.555 27.184C324.486 12.6832 309.648 6.16794 302.688 4.01261C289.379 -0.109375 53.3478 -0.274812 22.3219 5.09074C8.44086 7.49051 3.40891 18.8109 2.40991 25.1031C0.0792528 39.7703 -1.29836 129.984 2.43788 142.136C5.42089 151.835 12.8774 159.919 23.3169 162.074Z" fill="white"/>
</mask>
<g mask="url(#mask0_5567_144971)">
<path fill-rule="evenodd" clip-rule="evenodd" d="M-50.8274 197.479H335.784V-23.9502H-50.8274V197.479Z" fill="#BBF0D3"/>
<path fill-rule="evenodd" clip-rule="evenodd" d="M336.121 213.143V80.1403C289.008 42.4691 229.23 19.9368 164.181 19.9368C77.1889 19.9368 -0.375698 60.2308 -50.8274 123.146V213.143H336.121Z" fill="#D3F7E4"/>
<path fill-rule="evenodd" clip-rule="evenodd" d="M179.42 -31.6234C179.42 -31.6234 170.144 -28.9767 139.665 -22.3601C109.186 -15.7434 57.5049 55.7163 44.9158 69.6112C32.3268 83.5062 -1.46494 135.778 7.14863 154.966C15.7622 174.154 38.29 192.019 58.1675 186.726C78.045 181.432 124.426 162.244 124.426 162.244L128.401 194.666L284.771 196.651L336.452 194.666C336.452 194.666 331.152 52.408 328.501 43.1447C325.851 33.8814 329.164 12.0465 294.047 -6.48014C258.93 -25.0067 256.28 -33.6084 239.715 -36.255C223.151 -38.9017 179.42 -31.6234 179.42 -31.6234Z" fill="#28D677"/>
<path fill-rule="evenodd" clip-rule="evenodd" d="M158.861 135.165C157.088 123.403 152.733 108.435 150.929 102.695C149.503 98.1576 146.291 94.093 140.99 93.4314C136.073 92.8173 121.856 98.6903 121.993 98.6327C121.811 96.252 120.707 87.4552 116.475 59.0248C111.965 28.7259 113.036 5.52599 114.509 -7.76221C86.3422 15.6395 54.4409 59.0983 44.9156 69.6115C32.3265 83.5064 -1.46518 135.778 7.14839 154.966C15.762 174.154 38.2898 192.019 58.1672 186.726C78.0447 181.433 124.426 162.244 124.426 162.244L148.45 153.017C155.684 150.239 160.015 142.817 158.861 135.165Z" fill="#00AB4E"/>
<path fill-rule="evenodd" clip-rule="evenodd" d="M211.015 97.3327C209.518 101.653 200.491 128.813 201.219 153.884C201.236 154.473 201.991 154.711 202.351 154.244L207.298 147.823C207.582 147.454 208.153 147.509 208.362 147.925L212.89 156.968C213.173 157.534 214.019 157.383 214.08 156.755C214.956 147.77 218.59 113.561 224.163 101.993C224.324 101.657 224.15 101.258 223.799 101.135L211.818 96.9469C211.489 96.8318 211.129 97.0032 211.015 97.3327Z" fill="#3393E3"/>
<path fill-rule="evenodd" clip-rule="evenodd" d="M158.88 132.469C158.88 132.469 170.807 132.469 175.445 127.176C180.083 121.883 203.273 96.0777 207.249 93.4311C211.224 90.7844 211.224 86.8145 211.224 86.8145L208.574 80.8595H203.936L197.31 75.5662L188.034 76.8895L178.758 92.1078L172.132 113.281L158.88 132.469Z" fill="#E79E5C"/>
<path fill-rule="evenodd" clip-rule="evenodd" d="M237.83 96.6781C239.335 101.02 248.347 128.149 247.625 153.201C247.608 153.797 246.843 154.038 246.479 153.565L241.553 147.171C241.266 146.798 240.687 146.853 240.476 147.274L235.966 156.283C235.679 156.854 234.823 156.703 234.76 156.066C233.88 147.043 230.249 112.903 224.684 101.338C224.521 100.999 224.696 100.594 225.052 100.47L237.017 96.2877C237.351 96.1712 237.715 96.3446 237.83 96.6781Z" fill="#3393E3"/>
<path fill-rule="evenodd" clip-rule="evenodd" d="M225.052 100.47L227.772 99.5196C228.053 99.4211 228.364 99.5256 228.522 99.777C230.873 103.52 235.455 115.232 238.407 151.198C238.416 151.315 238.394 151.433 238.342 151.538L235.966 156.283C235.679 156.855 234.823 156.703 234.76 156.066C233.88 147.043 230.249 112.902 224.684 101.339C224.521 101 224.696 100.594 225.052 100.47Z" fill="#FFC54F"/>
<path fill-rule="evenodd" clip-rule="evenodd" d="M254.955 76.5587C254.955 91.724 242.644 104.018 227.457 104.018C212.271 104.018 199.96 91.724 199.96 76.5587C199.96 61.3933 212.271 49.0996 227.457 49.0996C242.644 49.0996 254.955 61.3933 254.955 76.5587Z" fill="#BBF0D3"/>
<path fill-rule="evenodd" clip-rule="evenodd" d="M223.799 101.135L221.065 100.179C220.788 100.082 220.481 100.185 220.324 100.433C217.974 104.171 213.389 115.877 210.437 151.862C210.427 151.977 210.449 152.095 210.501 152.198L212.89 156.969C213.172 157.534 214.019 157.383 214.08 156.755C214.956 147.769 218.59 113.561 224.163 101.993C224.324 101.657 224.15 101.258 223.799 101.135Z" fill="#FFC54F"/>
<path fill-rule="evenodd" clip-rule="evenodd" d="M250.979 77.5513C250.979 92.1688 239.113 104.018 224.476 104.018C209.839 104.018 197.972 92.1688 197.972 77.5513C197.972 62.9345 209.839 51.0847 224.476 51.0847C239.113 51.0847 250.979 62.9345 250.979 77.5513Z" fill="white"/>
<path fill-rule="evenodd" clip-rule="evenodd" d="M190.021 55.0547L203.386 45.446C205.408 43.9916 207.983 43.5371 210.382 44.2106L225.375 48.4221C226.704 48.7953 227.324 50.3549 226.566 51.5075C225.149 53.6592 222.405 56.2953 217.85 55.0547L210.029 53.1021C208.404 52.6965 206.693 53.204 205.531 54.4089C204.704 55.2664 203.538 56.378 201.948 57.7013C197.972 61.0096 190.021 55.0547 190.021 55.0547Z" fill="#F2CBA8"/>
<path fill-rule="evenodd" clip-rule="evenodd" d="M225.827 60.4998C226.641 60.5818 227.233 61.307 227.151 62.1189C227.069 62.9307 226.343 63.5229 225.53 63.4409C224.717 63.3588 224.124 62.6343 224.206 61.8218C224.288 61.0099 225.014 60.4177 225.827 60.4998Z" fill="#FFC54F"/>
<path fill-rule="evenodd" clip-rule="evenodd" d="M241.282 69.4866C242.095 69.5686 242.688 70.2932 242.606 71.1057C242.523 71.9176 241.797 72.5097 240.984 72.4277C240.171 72.3457 239.578 71.6205 239.66 70.8086C239.743 69.9967 240.468 69.4046 241.282 69.4866Z" fill="#FFC54F"/>
<path fill-rule="evenodd" clip-rule="evenodd" d="M208.885 66.2185C209.698 66.3006 210.291 67.0258 210.209 67.8376C210.126 68.6501 209.4 69.2417 208.587 69.1596C207.774 69.0776 207.181 68.3531 207.263 67.5405C207.346 66.7287 208.071 66.1365 208.885 66.2185Z" fill="#FFC54F"/>
<path fill-rule="evenodd" clip-rule="evenodd" d="M210.009 84.1587L236.589 86.8398L240.768 74.2133C241.025 73.4384 240.604 72.6021 239.827 72.346C239.444 72.2197 239.026 72.2547 238.67 72.4433L230.72 76.6502L226.616 65.8571C226.325 65.0942 225.471 64.7104 224.707 65.0002C224.407 65.114 224.153 65.3212 223.982 65.5911L217.799 75.3467L210.851 69.6378C210.221 69.1191 209.288 69.2091 208.768 69.8397C208.512 70.1506 208.394 70.5529 208.442 70.9526L210.009 84.1587Z" fill="#FFC54F"/>
<path fill-rule="evenodd" clip-rule="evenodd" d="M209.896 85.6328L209.599 88.5739C209.517 89.3864 210.11 90.1116 210.923 90.1937L234.484 92.5697C235.298 92.6517 236.023 92.0602 236.106 91.2477L236.403 88.3066L209.896 85.6328Z" fill="#FFC54F"/>
<path d="M192.672 53.7312C192.672 53.7312 198.304 54.062 204.267 56.7087" stroke="#E79E5C" stroke-width="2" stroke-linecap="round" stroke-linejoin="round"/>
<path fill-rule="evenodd" clip-rule="evenodd" d="M331.151 194.376C331.151 194.376 325.851 55.0722 323.2 46.0008C320.995 38.4525 322.915 22.3787 303.385 6.74097C291.624 8.17479 278.701 14.1734 270.194 31.0988C270.194 31.0988 258.93 60.9035 264.231 101.723C268.187 132.188 273.25 176.001 275.563 196.271L279.47 196.32L331.151 194.376Z" fill="#00662E"/>
<path fill-rule="evenodd" clip-rule="evenodd" d="M136.22 109.648C136.292 109.46 136.493 109.353 136.69 109.398C138.542 109.819 147.584 111.15 152.917 98.7244C158.88 84.8295 163.518 68.2879 168.819 63.6562C172.69 60.2738 180.095 55.8327 183.808 53.6829C185.236 52.8559 186.914 52.5872 188.531 52.9214L201.999 55.7043C204.01 56.1199 205.633 57.5987 206.231 59.5605L209.848 71.4281C209.88 71.5366 209.869 71.6518 209.81 71.749C209.201 72.7547 205.544 78.1983 201.331 71.6683C201.307 71.6299 201.276 71.5929 201.238 71.5671C201.056 71.44 200.38 70.8505 199.805 68.8026C199.419 67.425 198.208 66.4398 196.781 66.3227C195.453 66.2122 193.651 65.9085 191.498 65.1635C190.091 64.6765 188.544 64.8062 187.267 65.5711L186.783 65.8615C186.491 66.0369 186.535 66.4729 186.857 66.5847L197.748 70.3675C199.835 71.0926 201.176 73.1259 201.018 75.3266L200.635 80.6815C200.628 80.794 200.665 80.9012 200.741 80.9832C201.171 81.4358 202.611 83.0416 202.611 84.1678C202.611 85.1808 198.253 93.8579 196.979 97.7319C196.606 98.8647 189.028 105.672 188.105 105.444C185.339 104.757 185.523 100.371 186.944 97.8695L190.994 90.7427C191.145 90.4761 190.959 90.1446 190.652 90.1433C189.447 90.1386 186.786 89.9567 183.587 88.6843C183.331 88.5831 183.05 88.7498 183.032 89.0231C182.738 93.5972 180.146 125.11 164.181 132.469C149.169 139.388 143.716 140.78 142.563 141.024C142.411 141.056 142.258 141.001 142.163 140.88C140.761 139.088 130.313 124.978 136.22 109.648Z" fill="#F2CBA8"/>
<path fill-rule="evenodd" clip-rule="evenodd" d="M255.511 112.575C254.942 112.573 254.688 112.122 254.522 111.658C253.775 109.565 252.278 108.269 250.307 107.323C248.883 106.639 248.883 106.029 250.306 105.345C252.275 104.399 253.692 103.069 254.546 101.021C255.102 99.6882 255.786 99.6756 256.434 100.984C257.451 103.041 258.825 104.593 261.013 105.444C261.914 105.794 262.205 106.687 261.15 107.121C258.817 108.084 257.301 109.732 256.277 111.969C256.024 112.522 255.818 112.548 255.511 112.575Z" fill="#FFC54F"/>
<path fill-rule="evenodd" clip-rule="evenodd" d="M195.387 124.421C194.848 124.347 194.704 123.963 194.563 123.615C194.151 122.603 193.513 121.862 192.457 121.44C191.513 121.064 191.381 120.501 192.413 120.011C193.398 119.545 194.132 118.872 194.56 117.845C194.991 116.811 195.557 116.658 196.073 117.79C196.532 118.795 197.305 119.452 198.24 119.971C199.118 120.459 199.258 120.964 198.234 121.442C197.237 121.907 196.561 122.674 196.087 123.643C195.919 123.986 195.761 124.345 195.387 124.421Z" fill="white"/>
<path fill-rule="evenodd" clip-rule="evenodd" d="M251.579 47.6592C251.569 47.8128 251.586 47.8955 251.558 47.9166C250.264 48.8807 249.12 49.9731 248.206 51.3282C248.016 51.61 247.526 51.137 247.368 50.7783C246.907 49.7296 246.185 48.9687 245.13 48.4837C244.113 48.0159 244.23 47.4727 245.171 47.0459C246.171 46.592 246.866 45.8721 247.317 44.8816C247.571 44.3251 248.036 43.8044 248.511 44.5223C249.245 45.6326 250 46.6482 251.243 47.2252C251.41 47.3033 251.499 47.5507 251.579 47.6592Z" fill="white"/>
<path fill-rule="evenodd" clip-rule="evenodd" d="M102.561 92.1078C93.2844 96.0778 30.3391 108.649 27.6887 122.544C27.6887 122.544 29.6765 115.266 58.1675 111.296C86.6586 107.326 121.824 98.704 121.903 98.6702L121.952 98.1482C121.671 95.1574 120.46 85.7922 116.475 59.0246C115.792 54.4386 115.237 50.0154 114.793 45.7642V45.7636V45.7629C114.141 39.5313 113.726 33.6723 113.489 28.2116V28.2109C113.489 28.2109 111.837 88.1378 102.561 92.1078Z" fill="#00662E"/>
<path fill-rule="evenodd" clip-rule="evenodd" d="M335.903 194.862C335.903 194.862 331.426 52.5754 328.829 43.2968C326.668 35.5759 328.683 19.1726 309.246 3.09082C297.476 4.48693 284.519 10.5379 275.911 27.7729C275.911 27.7729 264.471 58.1439 269.531 99.8585C273.307 130.992 278.11 175.763 280.305 196.475L284.211 196.548L335.903 194.862Z" fill="#00AB4E"/>
<path fill-rule="evenodd" clip-rule="evenodd" d="M152.917 145.041C136.352 127.838 142.978 101.371 142.978 101.371L127.076 104.018L109.849 115.928L113.162 141.071L121.775 150.334L134.364 152.981L144.303 149.673L152.917 145.041Z" fill="#00AB4E"/>
<path d="M182.07 76.2278C182.07 76.2278 195.653 78.5436 200.954 81.1903" stroke="#E79E5C" stroke-width="2" stroke-linecap="round" stroke-linejoin="round"/>
</g>
</svg>
