<svg width="328" height="164" viewBox="0 0 328 164" fill="none" xmlns="http://www.w3.org/2000/svg">
<path d="M23.2189 161.504C33.6809 163.667 265.053 165.826 301.876 161.504C312.777 160.224 321.503 148.276 322.776 146.203C330.736 133.238 327.751 53.2794 325.761 26.266C324.69 11.7278 309.838 5.19571 302.871 3.03482C289.548 -1.09779 53.2799 -1.26366 22.2229 4.11573C8.32787 6.52168 3.29087 17.8712 2.29087 24.1796C-0.0421274 38.8847 -1.42113 129.331 2.31887 141.514C5.30487 151.239 12.7689 159.343 23.2189 161.504Z" fill="#EDFFF5"/>
<mask id="mask0_5567_154710" style="mask-type:alpha" maskUnits="userSpaceOnUse" x="0" y="0" width="328" height="164">
<path fill-rule="evenodd" clip-rule="evenodd" d="M23.2189 161.504C33.6809 163.667 265.053 165.826 301.876 161.504C312.777 160.224 321.503 148.276 322.776 146.203C330.736 133.238 327.751 53.2794 325.761 26.266C324.69 11.7278 309.838 5.19571 302.871 3.03482C289.548 -1.09779 53.2799 -1.26366 22.2229 4.11573C8.32787 6.52168 3.29087 17.8712 2.29087 24.1796C-0.0421274 38.8847 -1.42113 129.331 2.31887 141.514C5.30487 151.239 12.7689 159.343 23.2189 161.504Z" fill="white"/>
</mask>
<g mask="url(#mask0_5567_154710)">
<path d="M-26 239.46H367.984V92.5796H-26V239.46Z" fill="#84D7CC"/>
<path d="M36.1523 103.437L119.317 98.1793V18.6008L36.1523 25.5507V103.437Z" fill="#58585B"/>
<path d="M111.302 20.7668V97.7252L167.113 123.619L167.91 31.9291L111.302 20.7668Z" fill="#BBBDC0"/>
<path d="M111.302 97.7251L34.7925 104.513L77.7345 134.249L166.512 115.987L111.302 97.7251Z" fill="#939597"/>
<path fill-rule="evenodd" clip-rule="evenodd" d="M113.997 87.9502L101.933 89.0893L99.687 99.8309L92.8395 100.477L90.5935 111.219L99.2894 116.837L117.817 115.088L116.956 113.02L119.858 114.895L138.385 113.146L134.168 103.014L125.473 97.396L125.472 97.3964L124.331 97.5036L122.693 93.5684L122.693 93.5683L122.693 93.5682L117.725 90.357L113.998 87.9504L113.997 87.9502Z" stroke="#F1E1BD" stroke-linecap="round" stroke-linejoin="round" stroke-dasharray="4"/>
<mask id="mask1_5567_154710" style="mask-type:alpha" maskUnits="userSpaceOnUse" x="25" y="9" width="211" height="132">
<path fill-rule="evenodd" clip-rule="evenodd" d="M104.915 10.0519L32.5781 15.4645C28.6377 15.7594 25.5918 19.0426 25.5918 22.9934V101.877C25.5918 103.645 26.4397 105.306 27.871 106.342L70.8147 138.015C73.9407 140.279 77.8488 141.183 81.6516 140.524L132.152 131.764L169.016 130.036C169.016 130.036 232.376 123.7 231.8 122.548C231.224 121.396 235.832 77.0435 235.832 77.0435L227.768 41.3315H169.016V34.4311C169.016 30.99 166.798 27.9418 163.525 26.8832L115.367 11.3029C112.646 10.4222 109.807 9.97583 106.955 9.97583C106.276 9.97583 105.595 10.0012 104.915 10.0519Z" fill="white"/>
</mask>
<g mask="url(#mask1_5567_154710)">
<path fill-rule="evenodd" clip-rule="evenodd" d="M75.71 141.558L75.585 28.656H169.119L169.029 125.129L75.71 141.558ZM156.382 115.487C158.663 115.085 160.327 113.105 160.329 110.789L160.391 44.7592C160.393 41.9414 157.968 39.7342 155.163 40.0009L92.0482 46.004C89.6019 46.2367 87.7322 48.2867 87.7247 50.7433L87.5145 121.909C87.5059 124.883 90.1883 127.141 93.1172 126.626L156.382 115.487Z" fill="#BBBDC0"/>
</g>
<mask id="mask2_5567_154710" style="mask-type:alpha" maskUnits="userSpaceOnUse" x="25" y="9" width="211" height="132">
<path fill-rule="evenodd" clip-rule="evenodd" d="M104.915 10.0519L32.5781 15.4645C28.6377 15.7594 25.5918 19.0426 25.5918 22.9934V101.877C25.5918 103.645 26.4397 105.306 27.871 106.342L70.8147 138.015C73.9407 140.279 77.8488 141.183 81.6516 140.524L132.152 131.764L169.016 130.036C169.016 130.036 232.376 123.7 231.8 122.548C231.224 121.396 235.832 77.0435 235.832 77.0435L227.768 41.3315H169.016V34.4311C169.016 30.99 166.798 27.9418 163.525 26.8832L115.367 11.3029C112.646 10.4222 109.807 9.97583 106.955 9.97583C106.276 9.97583 105.595 10.0012 104.915 10.0519Z" fill="white"/>
</mask>
<g mask="url(#mask2_5567_154710)">
<path d="M111.19 44.5318L151.878 40.2973C153.82 40.0953 155.557 41.5054 155.759 43.4468C155.772 43.5684 155.778 43.6905 155.778 43.8127V43.8127V43.8127" stroke="#939597"/>
</g>
<mask id="mask3_5567_154710" style="mask-type:alpha" maskUnits="userSpaceOnUse" x="25" y="9" width="211" height="132">
<path fill-rule="evenodd" clip-rule="evenodd" d="M104.915 10.0519L32.5781 15.4645C28.6377 15.7594 25.5918 19.0426 25.5918 22.9934V101.877C25.5918 103.645 26.4397 105.306 27.871 106.342L70.8147 138.015C73.9407 140.279 77.8488 141.183 81.6516 140.524L132.152 131.764L169.016 130.036C169.016 130.036 232.376 123.7 231.8 122.548C231.224 121.396 235.832 77.0435 235.832 77.0435L227.768 41.3315H169.016V34.4311C169.016 30.99 166.798 27.9418 163.525 26.8832L115.367 11.3029C112.646 10.4222 109.807 9.97583 106.955 9.97583C106.276 9.97583 105.595 10.0012 104.915 10.0519Z" fill="white"/>
</mask>
<g mask="url(#mask3_5567_154710)">
<path d="M25.4072 104.825L75.7099 141.558V28.6561L25.4072 16.2571V104.825Z" fill="#58585B"/>
</g>
<mask id="mask4_5567_154710" style="mask-type:alpha" maskUnits="userSpaceOnUse" x="25" y="9" width="211" height="132">
<path fill-rule="evenodd" clip-rule="evenodd" d="M104.915 10.0519L32.5781 15.4645C28.6377 15.7594 25.5918 19.0426 25.5918 22.9934V101.877C25.5918 103.645 26.4397 105.306 27.871 106.342L70.8147 138.015C73.9407 140.279 77.8488 141.183 81.6516 140.524L132.152 131.764L169.016 130.036C169.016 130.036 232.376 123.7 231.8 122.548C231.224 121.396 235.832 77.0435 235.832 77.0435L227.768 41.3315H169.016V34.4311C169.016 30.99 166.798 27.9418 163.525 26.8832L115.367 11.3029C112.646 10.4222 109.807 9.97583 106.955 9.97583C106.276 9.97583 105.595 10.0012 104.915 10.0519Z" fill="white"/>
</mask>
<g mask="url(#mask4_5567_154710)">
<path d="M169.119 28.7088L81.9146 36.9479C78.06 37.3125 74.1748 36.7193 70.6042 35.2211L25.4072 16.2574L110.107 9.57642L169.119 28.7088Z" fill="#939597"/>
</g>
<path d="M220.167 121.068C198.984 118.754 177.693 117.724 156.544 115.072C155.63 114.946 154.951 114.162 154.951 113.239V42.0432C154.951 40.9131 155.952 40.0457 157.07 40.1971C178.653 42.864 200.381 43.8835 221.986 46.3419C225.153 46.7359 227.505 49.4546 227.505 52.6543V114.612C227.505 118.524 224.04 121.528 220.167 121.068Z" fill="#484943"/>
<path d="M155.778 40.5081C155.286 40.8404 154.951 41.3945 154.951 42.0431V113.173C166.915 102.884 178.587 92.2824 190.219 81.6218C178.618 68.0155 167.075 54.3678 155.778 40.5081Z" fill="#58585B"/>
<path d="M156.545 115.072C177.693 117.725 198.984 118.754 220.167 121.068C221.202 121.191 222.206 121.059 223.124 120.735C212.301 107.573 201.277 94.5856 190.219 81.6216C178.587 92.2822 166.915 102.885 154.951 113.173V113.238C154.951 114.163 155.63 114.947 156.545 115.072Z" fill="#939597"/>
<path d="M227.506 114.611V52.654C227.506 51.3568 227.113 50.142 226.442 49.126C214.162 59.7319 202.177 70.6557 190.219 81.6216C201.277 94.5856 212.301 107.573 223.124 120.734C225.643 119.847 227.506 117.478 227.506 114.611Z" fill="#58585B"/>
<path d="M226.443 49.1257C225.459 47.6356 223.868 46.5758 221.985 46.3419C200.381 43.883 178.653 42.864 157.07 40.1972C156.593 40.1321 156.144 40.2611 155.778 40.5082C167.075 54.3679 178.618 68.0151 190.219 81.6219C202.177 70.6555 214.162 59.7322 226.443 49.1257Z" fill="#939597"/>
<path d="M210.945 109.894C197.156 108.645 183.342 107.708 169.558 106.412C167.81 106.237 166.512 104.784 166.512 103.019V59.1232C166.512 56.9644 168.424 55.2393 170.561 55.4495C184.426 56.7271 198.319 57.6677 212.184 58.9522C214.342 59.1659 215.945 60.9589 215.945 63.1391V105.352C215.945 108.018 213.584 110.148 210.945 109.894Z" fill="#BBBDC0"/>
</g>
<mask id="mask5_5567_154710" style="mask-type:alpha" maskUnits="userSpaceOnUse" x="0" y="0" width="328" height="164">
<path fill-rule="evenodd" clip-rule="evenodd" d="M23.2189 161.504C33.6809 163.667 265.053 165.826 301.876 161.504C312.777 160.224 321.503 148.276 322.776 146.203C330.736 133.238 327.751 53.2794 325.761 26.266C324.69 11.7278 309.838 5.19571 302.871 3.03482C289.548 -1.09779 53.2799 -1.26366 22.2229 4.11573C8.32787 6.52168 3.29087 17.8712 2.29087 24.1796C-0.0421274 38.8847 -1.42113 129.331 2.31887 141.514C5.30487 151.239 12.7689 159.343 23.2189 161.504Z" fill="white"/>
</mask>
<g mask="url(#mask5_5567_154710)">
<path d="M284.961 49.5569L301.422 93.3293L259.876 101.742L248.129 63.4383L284.961 49.5569Z" fill="#FFDAB8"/>
<path d="M212.49 40.9683C212.49 40.9683 210.966 47.1398 210.466 51.1807C210.229 53.082 211.565 54.8821 213.475 55.0247C214.543 55.105 215.617 55.0869 216.687 54.9689L212.49 40.9683Z" fill="#FFB490"/>
<path d="M221.755 0.551896C216.319 6.39167 207.04 16.8919 212.845 42.5423C218.796 68.8861 227.534 75.6745 232.245 77.73C235.339 79.1232 247.629 75.6693 253.191 71.5066C260.172 66.2708 274.143 51.8631 277.445 35.9975C281.337 17.3247 275.972 -3.8221 262.335 -7.98226C243.056 -13.8156 226.384 -4.36383 221.755 0.551896Z" fill="#FFDAB8"/>
<path d="M250.177 73.3602C245.104 76.0934 239.502 77.6966 233.75 78.0582C239.415 76.2321 244.442 72.8327 248.248 68.2578L250.177 73.3602Z" fill="#FFB490"/>
<path d="M231.906 30.5421C222.064 30.1131 213.259 24.2928 209.011 15.4035C201.218 0.0148335 219.242 -13.4688 219.242 -13.4688L231.906 30.5421Z" fill="#6C4A07"/>
<path d="M244.232 28.899C238.34 29.0169 236.068 33.8238 235.214 36.9238C234.92 37.9982 233.553 38.2989 232.84 37.4448C223.142 25.8171 220.559 5.84573 220.208 2.72626C220.177 2.44502 220.23 2.17805 220.365 1.92792C222.018 -1.1112 233.986 -21.1564 262.487 -21.7656C279.036 -22.1181 291.899 -8.91053 297.394 2.26358C301.922 11.4765 300.173 35.5211 288.582 59.6418C287.553 61.783 281.927 63.7216 271.702 65.4576H271.702C269.141 65.8924 266.531 65.0195 264.748 63.1309C258.331 56.3379 254.376 50.8266 252.883 46.5972C256.528 39.07 252.942 28.7253 244.232 28.899Z" fill="#6C4A07"/>
<path d="M257.238 84.4587C215.937 82.643 210.439 115.775 210.439 115.775C210.439 115.775 226.982 231.839 242.343 254.652L358.999 239.284C358.999 239.284 357.522 165.457 348.954 122.172C348.954 122.172 344.165 79.972 300.888 79.1775C292.015 79.0155 281.345 85.5189 257.238 84.4587Z" fill="#1868AB"/>
<path d="M241.983 97.4949C237.823 91.4677 229.714 89.8512 223.518 93.7536C220.301 95.7812 217.036 98.5878 214.811 102.385C211.298 109.341 208.48 116.628 206.398 124.137C202.26 138.787 195.536 162.464 192.063 174.685C190.657 179.633 192.597 185.006 196.98 187.698C205.901 193.177 216.115 196.217 226.589 196.503C231.421 196.635 235.8 193.683 237.615 189.202C241.67 179.189 248.897 160.815 251.567 150.695C256.783 131.032 250.523 109.873 241.983 97.4949Z" fill="#3393E3"/>
</g>
<mask id="mask6_5567_154710" style="mask-type:alpha" maskUnits="userSpaceOnUse" x="0" y="0" width="328" height="164">
<path fill-rule="evenodd" clip-rule="evenodd" d="M23.2189 161.504C33.6809 163.667 265.053 165.826 301.876 161.504C312.777 160.224 321.503 148.276 322.776 146.203C330.736 133.238 327.751 53.2794 325.761 26.266C324.69 11.7278 309.838 5.19571 302.871 3.03482C289.548 -1.09779 53.2799 -1.26366 22.2229 4.11573C8.32787 6.52168 3.29087 17.8712 2.29087 24.1796C-0.0421274 38.8847 -1.42113 129.331 2.31887 141.514C5.30487 151.239 12.7689 159.343 23.2189 161.504Z" fill="white"/>
</mask>
<g mask="url(#mask6_5567_154710)">
<path d="M15.3422 125.636C15.3422 141.928 28.4949 155.136 44.7201 155.136C60.9454 155.136 74.0986 141.928 74.0986 125.636C74.0986 109.343 60.9454 96.1357 44.7201 96.1357C28.4949 96.1357 15.3422 109.343 15.3422 125.636Z" fill="#47A99C"/>
<path d="M15.3422 122.636C15.3422 138.928 28.4949 152.136 44.7201 152.136C60.9454 152.136 74.0986 138.928 74.0986 122.636C74.0986 106.343 60.9454 93.1357 44.7201 93.1357C28.4949 93.1357 15.3422 106.343 15.3422 122.636Z" fill="white"/>
<path d="M49.8752 134.175L59.1122 127.537L60.1963 127.511L59.9922 126.904L64.9795 123.321L56.6968 117.11L44.5822 117.404L41.5924 127.963L49.8752 134.175Z" fill="#C69C45"/>
<path d="M52.865 123.616L64.9795 123.321L68.479 133.722L49.8752 134.175L52.865 123.616Z" fill="#D8B56D"/>
<path d="M64.9795 123.321L56.6973 117.11L44.5822 117.405L52.865 123.616L64.9795 123.321Z" fill="#ECCC8B"/>
<path d="M29.2214 134.677L38.4584 128.04L39.543 128.013L39.3389 127.407L44.3257 123.823L36.0429 117.613L23.9284 117.907L20.9386 128.465L29.2214 134.677Z" fill="#C69C45"/>
<path d="M32.2116 124.118L44.3261 123.823L47.8262 134.225L29.2218 134.677L32.2116 124.118Z" fill="#D8B56D"/>
<path d="M44.3262 123.823L36.0434 117.613L23.9289 117.907L32.2116 124.118L44.3262 123.823Z" fill="#ECCC8B"/>
<path d="M39.0871 123.951L48.3241 117.314L49.4088 117.288L49.2046 116.681L54.1914 113.097L45.9087 106.886L33.7941 107.181L30.8044 117.74L39.0871 123.951Z" fill="#C69C45"/>
<path d="M42.0773 113.392L54.1918 113.098L57.6919 123.499L39.0875 123.951L42.0773 113.392Z" fill="#D8B56D"/>
<path d="M54.1914 113.098L45.9092 106.887L33.7941 107.181L42.0769 113.392L54.1914 113.098Z" fill="#ECCC8B"/>
<path d="M65.2957 107.297L66.6057 109.691L68.9988 111C69.3943 111.216 69.3943 111.784 68.9988 112L66.6057 113.309L65.2957 115.703C65.0802 116.099 64.5117 116.099 64.2963 115.703L62.9862 113.309L60.592 112C60.1966 111.784 60.1966 111.216 60.592 111L62.9862 109.691L64.2963 107.297C64.5117 106.901 65.0802 106.901 65.2957 107.297Z" fill="#FFC54F"/>
<path d="M34.2401 134.264L35.4046 136.392L37.5318 137.555C37.8833 137.748 37.8833 138.252 37.5318 138.445L35.4046 139.608L34.2401 141.736C34.0486 142.088 33.5433 142.088 33.3517 141.736L32.1873 139.608L30.059 138.445C29.7075 138.252 29.7075 137.748 30.059 137.555L32.1873 136.392L33.3517 134.264C33.5433 133.912 34.0486 133.912 34.2401 134.264Z" fill="#FFD37B"/>
</g>
<mask id="mask7_5567_154710" style="mask-type:alpha" maskUnits="userSpaceOnUse" x="0" y="0" width="328" height="164">
<path fill-rule="evenodd" clip-rule="evenodd" d="M23.2189 161.504C33.6809 163.667 265.053 165.826 301.876 161.504C312.777 160.224 321.503 148.276 322.776 146.203C330.736 133.238 327.751 53.2794 325.761 26.266C324.69 11.7278 309.838 5.19571 302.871 3.03482C289.548 -1.09779 53.2799 -1.26366 22.2229 4.11573C8.32787 6.52168 3.29087 17.8712 2.29087 24.1796C-0.0421274 38.8847 -1.42113 129.331 2.31887 141.514C5.30487 151.239 12.7689 159.343 23.2189 161.504Z" fill="white"/>
</mask>
<g mask="url(#mask7_5567_154710)">
<path fill-rule="evenodd" clip-rule="evenodd" d="M186.248 6.32152C185.212 6.56689 184.217 6.95967 183.292 7.48777C182.272 8.06124 181.374 8.83021 180.648 9.75096C179.964 10.6055 179.42 11.5636 179.036 12.59C178.691 13.5272 178.51 14.5168 178.502 15.515C178.482 16.3878 178.676 17.2508 179.066 18.029C179.159 18.2152 179.329 18.3498 179.53 18.3989C179.72 18.4475 179.922 18.4181 180.091 18.3171L182.509 16.9441C182.721 16.8534 182.886 16.6801 182.968 16.4639C183.023 16.2434 183.036 16.0147 183.008 15.7898C182.853 13.6297 183.622 12.0673 185.315 11.1029C186.196 10.5408 187.237 10.2908 188.273 10.3929C189.122 10.4745 189.875 10.9713 190.286 11.7222C190.523 12.1383 190.617 12.6223 190.554 13.099C190.479 13.6497 190.345 14.1912 190.157 14.7136C189.956 15.2969 189.726 15.9103 189.467 16.554C189.21 17.2127 189.01 17.8928 188.87 18.5861C188.722 19.3059 188.669 20.0425 188.714 20.7753C188.773 21.5911 188.997 22.3855 189.371 23.1102C189.471 23.3375 189.675 23.5013 189.917 23.5495C190.158 23.6177 190.416 23.5858 190.636 23.4613L192.909 22.1666C193.122 22.0573 193.27 21.8535 193.311 21.6175C193.363 21.3757 193.346 21.125 193.262 20.8937C193.076 20.401 193.03 19.8664 193.127 19.3476C193.229 18.7636 193.384 18.1895 193.59 17.6331C193.687 17.3653 193.788 17.0925 193.892 16.8116C194.014 16.4795 194.142 16.136 194.271 15.776C194.514 15.1225 194.696 14.4479 194.817 13.7613C194.944 13.0545 194.968 12.3331 194.883 11.6205C194.599 9.76388 193.555 8.11496 192.005 7.07294C191.173 6.56589 190.242 6.24387 189.275 6.12792C188.263 6.01117 187.238 6.0771 186.248 6.32152ZM195.315 24.2493C195.062 23.8064 194.504 23.6452 194.054 23.8858L191.489 25.3568C191.041 25.6105 190.879 26.1787 191.124 26.6322L192.608 29.2757C192.862 29.7221 193.423 29.884 193.875 29.6382L196.446 28.1732C196.662 28.0503 196.819 27.8451 196.882 27.6047C196.952 27.3682 196.922 27.1133 196.8 26.8999L195.315 24.2493Z" fill="#00AB4E"/>
</g>
<path d="M96 81L91.5 72.5" stroke="#28D677" stroke-width="2" stroke-linecap="round"/>
<path d="M115.5 78.5V64.5" stroke="#28D677" stroke-width="2" stroke-linecap="round"/>
<path d="M132 85L139.5 77.5" stroke="#28D677" stroke-width="2" stroke-linecap="round"/>
</svg>
