<svg width="328" height="164" viewBox="0 0 328 164" fill="none" xmlns="http://www.w3.org/2000/svg">
<path d="M23.2189 161.504C33.6809 163.667 265.053 165.826 301.876 161.504C312.777 160.224 321.503 148.276 322.776 146.203C330.736 133.238 327.751 53.2794 325.761 26.266C324.69 11.7278 309.838 5.19571 302.871 3.03482C289.548 -1.09779 53.2799 -1.26366 22.2229 4.11573C8.32787 6.52168 3.29087 17.8712 2.29087 24.1796C-0.0421274 38.8847 -1.42113 129.331 2.31887 141.514C5.30487 151.239 12.7689 159.343 23.2189 161.504Z" fill="#BBF0D3"/>
<mask id="mask0_5567_164326" style="mask-type:alpha" maskUnits="userSpaceOnUse" x="0" y="0" width="328" height="164">
<path fill-rule="evenodd" clip-rule="evenodd" d="M23.2189 161.504C33.6809 163.667 265.053 165.826 301.876 161.504C312.777 160.224 321.503 148.276 322.776 146.203C330.736 133.238 327.751 53.2794 325.761 26.266C324.69 11.7278 309.838 5.19571 302.871 3.03482C289.548 -1.09779 53.2799 -1.26366 22.2229 4.11573C8.32787 6.52168 3.29087 17.8712 2.29087 24.1796C-0.0421274 38.8847 -1.42113 129.331 2.31887 141.514C5.30487 151.239 12.7689 159.343 23.2189 161.504Z" fill="white"/>
</mask>
<g mask="url(#mask0_5567_164326)">
<path d="M-53 152.15H350.92V-46.46H-53V152.15Z" fill="#EAFFF2"/>
<path d="M350.92 227.294V124.042C301.741 91.1256 239.341 58.4778 171.439 58.4778C80.6317 58.4778 -0.33596 84.3011 -53 139.274V227.294H350.92Z" fill="#EAFFF2"/>
<path d="M341.953 126.668H264.308C260.86 126.668 258.04 123.847 258.04 120.4V55.2116C258.04 51.7648 260.86 48.9438 264.308 48.9438H341.953C345.4 48.9438 348.22 51.7648 348.22 55.2116V120.4C348.22 123.847 345.4 126.668 341.953 126.668Z" fill="#BBF0D3"/>
<path d="M335.977 86.0089H269.812C268.012 86.0089 266.539 84.5363 266.539 82.7365V62.9995C266.539 61.1996 268.012 59.7271 269.812 59.7271H335.977C337.777 59.7271 339.25 61.1996 339.25 62.9995V82.7365C339.25 84.5363 337.777 86.0089 335.977 86.0089Z" fill="#EDFFF5"/>
<path d="M335.977 116.11H269.812C268.012 116.11 266.539 114.637 266.539 112.837V93.1003C266.539 91.3005 268.012 89.8279 269.812 89.8279H335.977C337.777 89.8279 339.25 91.3005 339.25 93.1003V112.837C339.25 114.637 337.777 116.11 335.977 116.11Z" fill="#EDFFF5"/>
<path d="M283.658 156.554H-28.69C-37.8976 156.554 -44.167 147.566 -40.6845 139.359L-8.64954 63.8711C-6.65856 59.1796 -1.91844 56.114 3.34494 56.114H246.144C251.133 56.114 255.679 58.8718 257.832 63.2048L295.346 138.694C299.461 146.974 293.192 156.554 283.658 156.554Z" fill="#BBF0D3"/>
<path d="M115.009 98.9606C115.293 95.8005 118.384 93.7323 121.458 94.2108C121.727 94.2524 121.913 94.0871 121.878 93.8123C121.738 92.7333 121.664 92.1901 121.52 91.0858C121.403 90.1916 120.705 89.3081 119.889 89.1364C104.15 85.9817 87.8582 85.3785 71.852 85.311C70.7499 85.324 69.5101 86.1723 69.1261 87.1546C68.6536 88.3631 68.4581 88.9485 68.1206 90.0976C68.0375 90.3811 68.2313 90.6263 68.5678 90.6446C70.2779 90.7386 72.0103 91.3326 73.7032 93.12C75.497 95.0127 76.1656 97.6031 74.7864 99.8468C73.2728 102.309 69.8438 103.922 66.472 103.53C66.1081 103.487 65.7835 103.664 65.7344 103.959C65.5616 105.004 65.4649 105.535 65.2295 106.627C64.9627 107.866 65.6453 108.892 66.803 109.098C84.4384 111.425 102.228 109.547 119.856 111.844C120.936 112.039 121.948 111.398 122.108 110.41C122.34 108.967 122.42 108.271 122.525 106.908C122.316 106.868 122.104 106.824 121.889 106.768C117.918 105.735 114.704 102.358 115.009 98.9606Z" fill="#D84D51"/>
<path d="M143.153 115.042C140.984 112.29 141.072 109.034 143.01 107.42C143.18 107.279 143.193 107.017 143.028 106.818C142.377 106.033 142.063 105.66 141.472 104.979C140.993 104.427 140.169 104.362 139.584 104.781C131.034 110.954 122.899 117.763 115.084 124.841C114.588 125.289 114.549 126.031 115.106 126.57C115.79 127.232 116.193 127.591 117.069 128.342C117.286 128.528 117.591 128.585 117.75 128.458C118.556 127.814 119.785 127.409 122.104 127.849C124.562 128.317 127.285 129.864 128.909 131.948C130.691 134.232 130.911 136.582 129.619 137.943C129.479 138.089 129.538 138.352 129.767 138.547C130.575 139.236 130.949 139.567 131.603 140.186C132.343 140.886 133.07 140.917 133.547 140.475C140.24 134.15 146.414 127.301 153.152 121.024C153.629 120.582 153.664 119.84 153.188 119.293C152.492 118.493 152.117 118.047 151.341 117.107C151.241 117.201 151.138 117.292 151.026 117.375C148.963 118.917 145.483 118.001 143.153 115.042Z" fill="#F9953B"/>
<path d="M214.225 110.6L158.534 131.118C156.87 131.731 155 131.23 153.865 129.868L105.945 72.3655C104.036 70.0738 105.064 66.5773 107.909 65.6825L158.986 49.6299C160.483 49.1596 162.117 49.5646 163.221 50.6791L215.754 103.717C217.9 105.884 217.087 109.546 214.225 110.6Z" fill="#00A84E"/>
<path d="M67.6912 112.174C69.477 108.881 73.2651 107.119 75.9084 107.555C76.14 107.593 76.4009 107.422 76.5045 107.151C76.9122 106.085 77.1034 105.563 77.4355 104.559C77.705 103.746 77.3734 103 76.6908 102.832C64.1331 99.664 51.698 95.6804 38.88 93.657C38.0954 93.5431 36.9792 94.0259 36.3561 94.736C35.5887 95.6102 35.2113 96.059 34.478 96.9759C34.2965 97.2021 34.3349 97.4235 34.5768 97.4694C35.8058 97.7027 36.8675 98.3669 37.4285 100.132C38.0231 102.003 37.4625 104.47 35.5774 106.37C33.5097 108.454 30.435 109.507 27.6923 109.046C27.3964 108.997 27.074 109.153 26.9639 109.422C26.5729 110.374 26.3942 110.853 26.0766 111.812C25.7165 112.899 26.3051 113.756 27.2609 113.975C40.9871 117.39 54.4391 121.755 68.1405 125.259C69.0299 125.47 69.8744 124.932 70.1034 124.049C70.4371 122.759 70.6439 122.096 71.0997 120.757C70.9226 120.721 70.746 120.681 70.5705 120.626C67.3305 119.623 65.772 115.714 67.6912 112.174Z" fill="#FFD37B"/>
<path d="M253.707 106.657C255.318 103.684 258.923 102.068 261.8 102.998C262.052 103.079 262.352 102.944 262.483 102.67C263.002 101.592 263.257 101.044 263.748 99.9442C264.145 99.0543 263.786 98.0656 262.947 97.7356C251.38 93.2601 239.14 88.1085 226.587 87.4454C225.852 87.4206 225.282 87.9595 225.2 88.6339C225.098 89.4634 225.006 89.8873 224.771 90.7464C224.714 90.9581 224.821 91.1547 225.027 91.186C226.077 91.3442 227.165 91.9236 227.893 93.6133C228.663 95.4028 228.352 97.7999 226.949 99.4896C225.412 101.343 223.123 102.058 221.151 101.492C220.937 101.431 220.718 101.545 220.657 101.767C220.438 102.551 220.349 102.939 220.238 103.699C220.111 104.561 220.639 105.29 221.304 105.553C231.851 109.774 242.479 114.276 253.584 116.824C254.276 116.973 255.009 116.71 255.289 116.196C255.698 115.443 255.932 115.024 256.435 114.118C256.286 114.081 256.137 114.04 255.99 113.99C253.273 113.053 251.975 109.853 253.707 106.657Z" fill="#FFD37B"/>
<path d="M218.769 80.3276C218.22 77.8122 219.711 75.7008 222.043 75.5934C222.247 75.5837 222.365 75.4168 222.305 75.1959C222.066 74.3276 221.952 73.8886 221.748 72.9965C221.583 72.274 220.943 71.6746 220.288 71.68C210.156 72.0591 200.372 73.3923 190.4 75.2418C189.643 75.393 189.02 76.0513 189.062 76.7258C189.113 77.5552 189.163 77.9796 189.287 78.8382C189.318 79.0505 189.522 79.2044 189.75 79.1774C190.906 79.0391 192.178 79.2497 193.643 80.4172C195.195 81.6538 196.165 83.6318 195.849 85.5461C195.503 87.6451 193.841 89.2494 191.844 89.4465C191.629 89.4681 191.482 89.6458 191.515 89.8677C191.632 90.6529 191.68 91.0412 191.738 91.8026C191.804 92.6655 192.32 93.1958 192.989 93.1747C203.512 92.7378 213.649 89.3391 224.166 88.7786C224.835 88.7575 225.366 88.2288 225.324 87.5744C225.262 86.6196 225.198 86.1434 225.03 85.187C224.894 85.1903 224.755 85.1908 224.612 85.1832C221.978 85.0434 219.359 83.0313 218.769 80.3276Z" fill="#F9953B"/>
<path d="M230.031 96.1967C229.337 93.0123 231.225 90.3388 234.176 90.2027C234.434 90.1908 234.585 89.9791 234.508 89.6994C234.206 88.6 234.061 88.0438 233.803 86.9146C233.594 86.0004 232.785 85.2406 231.955 85.2476C219.187 85.38 206.625 87.3866 194.112 89.7577C193.152 89.9494 192.365 90.7827 192.418 91.6364C192.482 92.6867 192.544 93.224 192.703 94.3116C192.742 94.5799 193 94.7749 193.289 94.7403C194.753 94.5654 196.363 94.8321 198.218 96.3101C200.183 97.8756 201.411 100.381 201.011 102.804C200.573 105.462 198.468 107.493 195.94 107.743C195.667 107.77 195.482 107.996 195.524 108.276C195.672 109.27 195.733 109.762 195.806 110.725C195.889 111.819 196.543 112.49 197.39 112.464C210.714 111.821 223.541 107.548 236.864 106.897C237.712 106.87 238.383 106.201 238.33 105.373C238.253 104.163 238.172 103.56 237.959 102.35C237.786 102.354 237.61 102.354 237.43 102.345C234.094 102.168 230.778 99.6203 230.031 96.1967Z" fill="#3393E3"/>
<path d="M215.357 108.901L159.666 129.419C158.003 130.031 156.133 129.531 154.998 128.168L107.078 70.6661C105.169 68.3743 106.196 64.8778 109.042 63.983L160.119 47.9304C161.616 47.4601 163.25 47.8651 164.354 48.9797L216.886 102.017C219.034 104.185 218.22 107.846 215.357 108.901Z" fill="white"/>
<path d="M119.219 71.2409L162.273 57.6448" stroke="#00662E" stroke-width="1.13292"/>
<path d="M124.316 78.0392L167.371 64.4431" stroke="#00662E" stroke-width="1.13292"/>
<path d="M129.982 87.1032L173.037 73.5071" stroke="#00A84E" stroke-width="1.13292"/>
<path d="M145.845 104.099L188.899 90.5024" stroke="#00A84E" stroke-width="1.13292"/>
<path fill-rule="evenodd" clip-rule="evenodd" d="M148.134 9.16836C147.039 8.89998 145.928 8.80602 144.799 8.88864C143.525 8.98152 142.349 9.3228 141.269 9.9114C140.19 10.5 139.264 11.2187 138.492 12.066C137.721 12.9143 137.125 13.8437 136.704 14.8535C136.282 15.8644 136.093 16.8369 136.138 17.7727C136.158 18.04 136.251 18.2479 136.419 18.3959C136.587 18.5449 136.779 18.6113 136.995 18.5957L139.914 18.3824C140.226 18.3597 140.443 18.2706 140.565 18.1135C140.686 17.9574 140.796 17.7284 140.895 17.4255C141.689 15.0868 143.108 13.8421 145.15 13.693C146.423 13.6001 147.467 13.8523 148.285 14.4501C149.101 15.0484 149.546 15.8541 149.62 16.8682C149.662 17.4287 149.542 17.9547 149.265 18.4439C148.986 18.9343 148.624 19.4305 148.178 19.9322C147.732 20.4344 147.244 20.9603 146.717 21.5079C146.189 22.0565 145.702 22.6624 145.256 23.3255C144.809 23.9887 144.44 24.7274 144.15 25.5395C143.859 26.3522 143.728 27.281 143.756 28.3254C143.753 28.6213 143.862 28.8681 144.082 29.0663C144.301 29.2655 144.543 29.3546 144.808 29.3352L147.546 29.1354C147.81 29.116 148.019 28.9939 148.171 28.7677C148.323 28.5419 148.413 28.2811 148.44 27.983C148.469 27.3912 148.651 26.8274 148.987 26.2928C149.322 25.7593 149.718 25.2404 150.177 24.7371C150.635 24.2344 151.121 23.7019 151.636 23.1414C152.15 22.5803 152.619 21.9691 153.042 21.3076C153.465 20.6466 153.797 19.9111 154.04 19.1011C154.282 18.2927 154.365 17.3537 154.287 16.2861C154.192 14.9782 153.855 13.8421 153.277 12.8776C152.7 11.9137 151.972 11.1215 151.093 10.5016C150.214 9.8817 149.228 9.43728 148.134 9.16836ZM148.61 31.7944C148.402 31.5951 148.166 31.5049 147.902 31.5244L144.803 31.7506C144.538 31.7701 144.318 31.8937 144.142 32.1211C143.965 32.3489 143.887 32.6098 143.909 32.903L144.166 36.4259C144.188 36.7202 144.302 36.9665 144.51 37.1657C144.718 37.3655 144.954 37.4552 145.218 37.4363L148.317 37.2095C148.582 37.1906 148.801 37.0675 148.978 36.8396C149.154 36.6122 149.233 36.3514 149.211 36.0577L148.954 32.5347C148.932 32.2409 148.817 31.9947 148.61 31.7944Z" fill="#00A84E"/>
<path d="M171.521 98.5329L162.034 96.725L172.017 44.3347L181.503 46.1416L171.521 98.5329Z" fill="white"/>
<path d="M179.923 100.133L175.985 99.3833L185.968 46.9919L189.905 47.7425L179.923 100.133Z" fill="white"/>
<path d="M124.666 116.636L126.236 117.847" stroke="#FFD07B" stroke-width="0.56646"/>
<path d="M129.349 120.247L140.242 128.647" stroke="#FFD07B" stroke-width="0.56646" stroke-dasharray="3.93 3.93"/>
<path d="M141.798 129.847L143.368 131.058" stroke="#FFD07B" stroke-width="0.56646"/>
<path d="M-28.6899 156.554H283.658C291.746 156.554 297.481 149.661 296.523 142.514H-41.5527C-42.5199 149.711 -36.7246 156.554 -28.6899 156.554Z" fill="#84D7CC"/>
<path d="M102.622 86.7017L102.454 88.677" stroke="#F6923B" stroke-width="0.56646" stroke-linecap="round" stroke-linejoin="round"/>
<path d="M102.119 92.593L100.947 106.299" stroke="#F6923B" stroke-width="0.56646" stroke-linecap="round" stroke-linejoin="round" stroke-dasharray="3.93 3.93"/>
<path d="M100.781 108.257L100.612 110.232" stroke="#F6923B" stroke-width="0.56646" stroke-linecap="round" stroke-linejoin="round"/>
<path d="M196.849 114.847C196.849 114.847 190.175 122.844 190.438 124.493C190.701 126.143 193.229 133.519 202.944 126.559C202.944 126.559 197.847 144.452 201.15 147.138C204.453 149.825 205.409 150.518 205.409 150.518C205.409 150.518 202.985 155.471 207.766 158.937C207.766 158.937 208.033 163.798 210.987 165.357C213.941 166.915 222.02 169.856 222.02 169.856C222.02 169.856 225.41 172.022 227.484 165.941C229.559 159.86 224.349 158.999 224.349 158.999L219.287 141.035L213.197 132.535L206.935 125.077L201.194 117.706L196.849 114.847Z" fill="#F2CBA8"/>
<path d="M187.938 98.5044L193.196 94.8896L214.081 125.274L208.823 128.889L187.938 98.5044Z" fill="#FFD07B"/>
<path d="M188.148 100.715L195.834 96.1506L197.15 98.2863C198.13 99.9236 197.528 102.262 195.89 103.242L194.42 104.111C192.783 105.091 190.445 104.488 189.465 102.851L188.148 100.715Z" fill="#F6923B"/>
<path d="M183.707 96.089L193.667 90.2354L196.469 95.1191C197.337 96.5895 196.816 98.5103 195.346 99.3786L190.768 102.095C189.298 102.963 187.376 102.443 186.508 100.972L183.707 96.089Z" fill="#00662E"/>
<path d="M202.943 126.559C202.943 126.559 204.606 135.933 207.388 138.534C210.171 141.135 212.169 142 213.741 148.683C215.314 155.366 217.049 154.582 217.049 154.582C217.049 154.582 215.056 156.929 217.751 160.051C220.447 163.173 222.36 164.559 222.36 164.559L225.319 169.33C225.319 169.33 223.174 127.224 202.943 126.559Z" fill="#E79E5C"/>
<path d="M201.367 147.442C201.367 147.442 213.017 157.931 217.049 154.583" stroke="#E79E5C" stroke-width="1.05624" stroke-linecap="round" stroke-linejoin="round"/>
<path d="M207.983 159.24C207.983 159.24 216.501 166.001 220.235 166.082C220.235 166.082 222.668 167.554 222.052 161.564" stroke="#E79E5C" stroke-width="1.05624" stroke-linecap="round" stroke-linejoin="round"/>
<path d="M256.96 171.134H278.56V149.534H256.96V171.134Z" fill="#84D7CC"/>
<path d="M195.198 116.656L192.611 120.343C192.611 120.343 198.481 132.513 202.944 126.559L195.198 116.656Z" fill="#E79E5C"/>
<path d="M196.839 108.422C193.229 110.195 195.031 119.364 198.163 123.093C201.294 126.822 208.942 132.367 212.25 138.267C215.558 144.166 213.836 156.939 223.664 166.381C243.366 185.306 248.882 185.339 248.436 184.924L258.952 192.55C258.952 192.55 277.62 192.956 280.106 171.422C280.106 171.422 264.723 160.851 260.283 152.089C256.74 145.098 247.492 127.288 243.895 120.369C242.913 118.48 241.152 117.125 239.078 116.648C238.116 116.428 212.532 101.938 208.207 104.412C202.96 107.414 204.58 110.114 204.58 110.114C204.58 110.114 200.917 106.419 196.839 108.422Z" fill="#F2CBA8"/>
<path d="M237.601 137.101C237.601 137.101 233.69 134.849 229.431 131.47C225.172 128.09 221.434 124.796 220.564 123.582C219.694 122.367 216.649 118.118 213.781 116.038C210.913 113.959 204.569 110.234 204.569 110.234C204.569 110.234 207.174 110.665 209.78 111.095C212.385 111.525 219.513 116.985 219.513 116.985C219.513 116.985 227.6 126.35 229.599 127.215C231.597 128.081 235.598 133.024 235.598 133.024L237.601 137.101Z" fill="#E79E5C"/>
<path d="M61.2207 98.9128L60.543 100.438" stroke="#F6923B" stroke-width="0.5" stroke-linecap="round" stroke-linejoin="round"/>
<path d="M59.3739 103.068L52.9463 117.531" stroke="#F6923B" stroke-width="0.5" stroke-linecap="round" stroke-linejoin="round" stroke-dasharray="2.88 2.88"/>
<path d="M52.3613 118.846L51.6836 120.371" stroke="#F6923B" stroke-width="0.5" stroke-linecap="round" stroke-linejoin="round"/>
<path d="M215.241 86.2534L221.085 107.958" stroke="#F6923B" stroke-width="0.56646" stroke-linecap="round" stroke-linejoin="round" stroke-dasharray="3.97"/>
<path d="M204.478 72.6575L208.443 86.8201" stroke="#FFD07B" stroke-width="0.56646" stroke-dasharray="3.97"/>
<path d="M247.532 92.4851L237.335 111.746" stroke="#3390E0" stroke-width="0.56646" stroke-linecap="round" stroke-linejoin="round" stroke-dasharray="3.97"/>
<path d="M104.454 22.4768L117.91 34.7845" stroke="#F6923B" stroke-width="1.62" stroke-linecap="round" stroke-linejoin="round"/>
<path d="M85.5742 51.0505L97.9305 55.8441" stroke="#F6923B" stroke-width="1.62" stroke-linecap="round" stroke-linejoin="round"/>
<path d="M186.392 15.927L179.47 29.9238" stroke="#F6923B" stroke-width="1.62" stroke-linecap="round" stroke-linejoin="round"/>
<path d="M211.87 40.1841L202.15 45.5841" stroke="#F6923B" stroke-width="1.62" stroke-linecap="round" stroke-linejoin="round"/>
<path d="M-20.0596 171.134H1.54043V149.534H-20.0596V171.134Z" fill="#84D7CC"/>
<path fill-rule="evenodd" clip-rule="evenodd" d="M200.53 70.424C200.53 85.6342 188.2 97.964 172.99 97.964C157.78 97.964 145.45 85.6342 145.45 70.424C145.45 55.2139 157.78 42.884 172.99 42.884C188.2 42.884 200.53 55.2139 200.53 70.424Z" stroke="#00662E" stroke-width="5.28174"/>
<path d="M13.8368 21.2483L17.2215 22.1447C17.5925 22.2425 17.8366 22.5978 17.7885 22.979C17.4931 25.3588 18.9938 27.6517 21.3768 28.2824C23.7598 28.9136 26.199 27.6635 27.1186 25.4485C27.266 25.0948 27.6548 24.9068 28.0253 25.004L31.41 25.9004C32.2772 26.1305 32.7946 27.0193 32.5651 27.8871L24.4229 58.6428C24.1929 59.5106 23.3035 60.0279 22.4357 59.7979L4.86306 55.1452C3.99474 54.9157 3.47796 54.0263 3.708 53.158L11.8501 22.4034C12.0791 21.5351 12.969 21.0188 13.8368 21.2483Z" fill="white"/>
<path d="M9.87402 29.3604L10.8935 25.6074L21.5629 46.6345L18.642 48.0633L9.87402 29.3604Z" fill="#DAF6E5"/>
<path d="M-12.8977 27.1315L-9.7641 25.5703C-9.42174 25.3991 -9.0027 25.505 -8.78724 25.822C-7.43832 27.8054 -4.79826 28.5365 -2.5902 27.4371C-0.384296 26.3377 0.622264 23.7894 -0.148856 21.5182C-0.271436 21.1547 -0.104576 20.7578 0.239404 20.5856L3.37302 19.025C4.17546 18.6248 5.15232 18.9521 5.55192 19.7551L19.7388 48.2309C20.1395 49.035 19.8128 50.0102 19.0087 50.4114L2.73852 58.5173C1.93554 58.917 0.959764 58.5908 0.559084 57.7878L-13.6283 29.3104C-14.0279 28.5074 -13.7012 27.5316 -12.8977 27.1315Z" fill="#BBF0D3"/>
<path d="M40.1971 67.662C41.2269 67.662 42.0617 67.0151 42.0617 66.217V43.0591H43.1741C44.2039 43.0591 45.0382 43.706 45.0382 44.5041V68.5239C45.0382 69.3214 44.2039 69.9684 43.1741 69.9684H-5.68182C-6.7116 69.9684 -7.5459 69.3214 -7.5459 68.5239V67.662H40.1971Z" fill="#47A99C"/>
<path d="M-6.2298 69.3163H42.5354C43.3244 69.3163 43.9637 68.8205 43.9637 68.2082V44.0065C43.9637 43.3946 43.3244 42.8989 42.5354 42.8989H-6.2298C-7.01874 42.8989 -7.65918 43.3946 -7.65918 44.0065V68.2082C-7.65918 68.8205 -7.01874 69.3163 -6.2298 69.3163Z" fill="#84D7CC"/>
<path d="M55.9227 66.9215L58.8646 65.4468C59.3695 65.1951 59.5747 64.5817 59.3231 64.0773L37.8105 20.9022C38.5833 20.7839 40.2605 20.7294 40.6277 21.4665L62.2164 64.8133C62.6711 65.7265 62.2995 66.8362 61.3864 67.2909L58.3008 68.8277C57.3866 69.2829 56.2769 68.9119 55.8217 67.9977L55.3784 67.0862C55.5625 67.0576 55.7472 67.009 55.9227 66.9215Z" fill="#47A99C"/>
<path d="M56.3797 55.6582L39.6656 22.0394C39.2099 21.1257 38.1002 20.7526 37.186 21.2083L34.0988 22.7452C33.1851 23.2009 32.8136 24.3112 33.2683 25.2248L54.8656 68.589C55.3208 69.5032 56.4305 69.8753 57.3447 69.4195L60.4313 67.8821C61.3456 67.4269 61.7182 66.3172 61.2619 65.4035L59.846 62.6209" fill="#84D7CC"/>
<path d="M283.682 37.1714C283.682 37.1714 280.39 28.4871 289.673 19.96C289.673 19.96 294.971 28.7053 283.682 37.1714Z" fill="#84D7CC"/>
<path d="M284.179 39.478C284.179 39.478 275.253 36.9135 273.984 24.3726C273.984 24.3726 284.161 25.3667 284.179 39.478Z" fill="#84D7CC"/>
<path d="M290.044 36.7676H274.614V43.6439C274.614 46.7873 277.162 49.335 280.304 49.335H284.354C287.496 49.335 290.044 46.7873 290.044 43.6439V36.7676Z" fill="#BBF0D3"/>
<path d="M279.713 36.7674L278.512 35.6938L283.959 36.0961L284.06 36.7674H279.713Z" fill="#EAFFF2"/>
<mask id="mask1_5567_164326" style="mask-type:alpha" maskUnits="userSpaceOnUse" x="278" y="35" width="7" height="2">
<path fill-rule="evenodd" clip-rule="evenodd" d="M279.713 36.7676H284.059L283.959 36.0964L278.512 35.6941L279.713 36.7676Z" fill="white"/>
</mask>
<g mask="url(#mask1_5567_164326)">
<path d="M273.7 49.5957H291.497V19.9341H273.7V49.5957Z" fill="#EAFFF2"/>
</g>
<mask id="mask2_5567_164326" style="mask-type:alpha" maskUnits="userSpaceOnUse" x="278" y="35" width="7" height="2">
<path fill-rule="evenodd" clip-rule="evenodd" d="M279.713 36.7676H284.059L283.959 36.0964L278.512 35.6941L279.713 36.7676Z" fill="white"/>
</mask>
<g mask="url(#mask2_5567_164326)">
<path d="M274.273 41.0049H288.296V31.4561H274.273V41.0049Z" fill="#EAFFF2"/>
</g>
<path d="M330.4 49.6341H311.5C308.518 49.6341 306.1 47.2166 306.1 44.2341H335.8C335.8 47.2166 333.381 49.6341 330.4 49.6341Z" fill="#84D7CC"/>
<path d="M306.404 74.2041C306.404 76.1427 304.832 77.7141 302.894 77.7141C300.955 77.7141 299.384 76.1427 299.384 74.2041C299.384 72.2655 300.955 70.6941 302.894 70.6941C304.832 70.6941 306.404 72.2655 306.404 74.2041Z" fill="#BBF0D3"/>
<path d="M306.64 102.824C306.64 104.763 305.069 106.334 303.13 106.334C301.192 106.334 299.62 104.763 299.62 102.824C299.62 100.886 301.192 99.3142 303.13 99.3142C305.069 99.3142 306.64 100.886 306.64 102.824Z" fill="#BBF0D3"/>
</g>
</svg>
