<svg width="328" height="164" viewBox="0 0 328 164" fill="none" xmlns="http://www.w3.org/2000/svg">
<path fill-rule="evenodd" clip-rule="evenodd" d="M23.2189 161.504C33.6809 163.667 265.053 165.826 301.876 161.504C312.777 160.224 321.503 148.276 322.776 146.203C330.736 133.238 327.751 53.2794 325.761 26.266C324.69 11.7278 309.838 5.19571 302.871 3.03482C289.548 -1.09779 53.2799 -1.26366 22.2229 4.11573C8.32787 6.52168 3.29087 17.8712 2.29087 24.1796C-0.0421274 38.8847 -1.42113 129.331 2.31887 141.514C5.30487 151.239 12.7689 159.343 23.2189 161.504Z" fill="#EBFFE0"/>
<mask id="mask0_5567_154100" style="mask-type:alpha" maskUnits="userSpaceOnUse" x="0" y="0" width="328" height="164">
<path fill-rule="evenodd" clip-rule="evenodd" d="M23.2189 161.504C33.6809 163.667 265.053 165.826 301.876 161.504C312.777 160.224 321.503 148.276 322.776 146.203C330.736 133.238 327.751 53.2794 325.761 26.266C324.69 11.7278 309.838 5.19571 302.871 3.03482C289.548 -1.09779 53.2799 -1.26366 22.2229 4.11573C8.32787 6.52168 3.29087 17.8712 2.29087 24.1796C-0.0421274 38.8847 -1.42113 129.331 2.31887 141.514C5.30487 151.239 12.7689 159.343 23.2189 161.504Z" fill="white"/>
</mask>
<g mask="url(#mask0_5567_154100)">
<path fill-rule="evenodd" clip-rule="evenodd" d="M-26 239.46H367.984V92.5796H-26V239.46Z" fill="#BBF0D3"/>
<path fill-rule="evenodd" clip-rule="evenodd" d="M59.1528 111.66L158.816 88.5381V20.7671L59.1528 25.5508V111.66Z" fill="#484943"/>
<path fill-rule="evenodd" clip-rule="evenodd" d="M133.302 20.7668V101.295L189.113 123.619L189.91 31.9291L133.302 20.7668Z" fill="#3F3F3A"/>
<path fill-rule="evenodd" clip-rule="evenodd" d="M150.376 124.752L161.293 113.501L162.721 113.278L162.333 112.429L168.227 106.355L156.063 98.7166L140.103 101.215L138.211 117.114L150.376 124.752Z" fill="#C69C45"/>
<path fill-rule="evenodd" clip-rule="evenodd" d="M152.267 108.853L168.227 106.354L174.886 120.915L150.376 124.752L152.267 108.853Z" fill="#D8B56D"/>
<path fill-rule="evenodd" clip-rule="evenodd" d="M168.227 106.355L156.063 98.7168L140.103 101.215L152.267 108.853L168.227 106.355Z" fill="#ECCC8B"/>
<path fill-rule="evenodd" clip-rule="evenodd" d="M123.166 129.01L134.082 117.76L135.511 117.537L135.123 116.688L141.017 110.614L128.853 102.976L112.892 105.474L111.001 121.373L123.166 129.01Z" fill="#E1A020"/>
<path fill-rule="evenodd" clip-rule="evenodd" d="M125.057 113.112L141.017 110.614L147.676 125.174L123.166 129.01L125.057 113.112Z" fill="#F6B421"/>
<path fill-rule="evenodd" clip-rule="evenodd" d="M141.017 110.614L128.852 102.976L112.892 105.474L125.057 113.112L141.017 110.614Z" fill="#FFC843"/>
<path fill-rule="evenodd" clip-rule="evenodd" d="M134.116 111.694L145.033 100.443L146.461 100.22L146.073 99.3706L151.967 93.2967L139.803 85.6589L123.843 88.157L121.951 104.056L134.116 111.694Z" fill="#C69C45"/>
<path fill-rule="evenodd" clip-rule="evenodd" d="M136.007 95.7947L151.967 93.2966L158.626 107.857L134.115 111.694L136.007 95.7947Z" fill="#D8B56D"/>
<path fill-rule="evenodd" clip-rule="evenodd" d="M151.967 93.2967L139.803 85.6589L123.842 88.157L136.007 95.7948L151.967 93.2967Z" fill="#ECCC8B"/>
<path fill-rule="evenodd" clip-rule="evenodd" d="M306.218 80.7202H259.754C258.934 80.7202 258.269 80.0555 258.269 79.2358V75.8265C258.269 75.0068 258.934 74.3416 259.754 74.3416H306.218C307.038 74.3416 307.703 75.0068 307.703 75.8265V79.2358C307.703 80.0555 307.038 80.7202 306.218 80.7202Z" fill="#84D7CC"/>
<path fill-rule="evenodd" clip-rule="evenodd" d="M307.702 75.8265C307.702 75.0068 307.038 74.3416 306.217 74.3416H259.754C258.934 74.3416 258.27 75.0068 258.27 75.8265V75.9365H307.702V75.8265Z" fill="#47A99C"/>
<path fill-rule="evenodd" clip-rule="evenodd" d="M266.243 75.9367H270.229V74.3418H266.243V75.9367Z" fill="#BBF0D3"/>
<path fill-rule="evenodd" clip-rule="evenodd" d="M266.243 80.7204H270.229V75.9368H266.243V80.7204Z" fill="#BBF0D3"/>
<path fill-rule="evenodd" clip-rule="evenodd" d="M263.053 80.7204H265.445V75.9368H263.053V80.7204Z" fill="#BBF0D3"/>
<path fill-rule="evenodd" clip-rule="evenodd" d="M263.053 75.936H265.445V74.3411H263.053V75.936Z" fill="#BBF0D3"/>
<path fill-rule="evenodd" clip-rule="evenodd" d="M250.187 87.0986H296.65C297.47 87.0986 298.135 86.4339 298.135 85.6137V82.2049C298.135 81.3847 297.47 80.72 296.65 80.72H250.187C249.366 80.72 248.702 81.3847 248.702 82.2049V85.6137C248.702 86.4339 249.366 87.0986 250.187 87.0986Z" fill="#84D7CC"/>
<path fill-rule="evenodd" clip-rule="evenodd" d="M248.702 82.2049C248.702 81.3853 249.366 80.72 250.187 80.72H296.65C297.47 80.72 298.135 81.3853 298.135 82.2049V82.3149H248.702V82.2049Z" fill="#47A99C"/>
<path fill-rule="evenodd" clip-rule="evenodd" d="M286.175 82.3154H290.162V80.7205H286.175V82.3154Z" fill="#BBF0D3"/>
<path fill-rule="evenodd" clip-rule="evenodd" d="M286.175 87.0984H290.162V82.3147H286.175V87.0984Z" fill="#BBF0D3"/>
<path fill-rule="evenodd" clip-rule="evenodd" d="M290.959 87.0984H293.351V82.3147H290.959V87.0984Z" fill="#BBF0D3"/>
<path fill-rule="evenodd" clip-rule="evenodd" d="M290.959 82.3147H293.351V80.7197H290.959V82.3147Z" fill="#BBF0D3"/>
<path fill-rule="evenodd" clip-rule="evenodd" d="M307.015 93.477H260.551C259.732 93.477 259.066 92.8123 259.066 91.9921V88.5833C259.066 87.7631 259.732 87.0984 260.551 87.0984H307.015C307.835 87.0984 308.5 87.7631 308.5 88.5833V91.9921C308.5 92.8123 307.835 93.477 307.015 93.477Z" fill="#84D7CC"/>
<path fill-rule="evenodd" clip-rule="evenodd" d="M308.5 88.5833C308.5 87.7631 307.835 87.0984 307.015 87.0984H260.551C259.732 87.0984 259.067 87.7631 259.067 88.5833V88.6933H308.5V88.5833Z" fill="#47A99C"/>
<path fill-rule="evenodd" clip-rule="evenodd" d="M267.04 88.6933H271.027V87.0984H267.04V88.6933Z" fill="#BBF0D3"/>
<path fill-rule="evenodd" clip-rule="evenodd" d="M267.04 93.477H271.027V88.6934H267.04V93.477Z" fill="#BBF0D3"/>
<path fill-rule="evenodd" clip-rule="evenodd" d="M263.851 93.477H266.243V88.6934H263.851V93.477Z" fill="#BBF0D3"/>
<path fill-rule="evenodd" clip-rule="evenodd" d="M263.851 88.6933H266.243V87.0984H263.851V88.6933Z" fill="#BBF0D3"/>
<path fill-rule="evenodd" clip-rule="evenodd" d="M254.97 99.8554H301.434C302.254 99.8554 302.919 99.1907 302.919 98.3705V94.9612C302.919 94.1415 302.254 93.4768 301.434 93.4768H254.97C254.15 93.4768 253.485 94.1415 253.485 94.9612V98.3705C253.485 99.1907 254.15 99.8554 254.97 99.8554Z" fill="#84D7CC"/>
<path fill-rule="evenodd" clip-rule="evenodd" d="M253.486 94.9614C253.486 94.1418 254.151 93.4771 254.971 93.4771H301.434C302.254 93.4771 302.919 94.1418 302.919 94.9614V95.0714H253.486V94.9614Z" fill="#47A99C"/>
<path fill-rule="evenodd" clip-rule="evenodd" d="M290.959 95.072H294.945V93.4771H290.959V95.072Z" fill="#F4C158"/>
<path fill-rule="evenodd" clip-rule="evenodd" d="M290.959 99.8557H294.945V95.072H290.959V99.8557Z" fill="#FAD262"/>
<path fill-rule="evenodd" clip-rule="evenodd" d="M295.743 99.8557H298.135V95.072H295.743V99.8557Z" fill="#FAD262"/>
<path fill-rule="evenodd" clip-rule="evenodd" d="M295.743 95.072H298.135V93.4771H295.743V95.072Z" fill="#F4C158"/>
<path fill-rule="evenodd" clip-rule="evenodd" d="M259.754 106.234H306.218C307.038 106.234 307.703 105.569 307.703 104.749V101.34C307.703 100.52 307.038 99.8555 306.218 99.8555H259.754C258.934 99.8555 258.269 100.52 258.269 101.34V104.749C258.269 105.569 258.934 106.234 259.754 106.234Z" fill="#84D7CC"/>
<path fill-rule="evenodd" clip-rule="evenodd" d="M258.27 101.34C258.27 100.52 258.934 99.8557 259.754 99.8557H306.218C307.038 99.8557 307.702 100.52 307.702 101.34V101.45H258.27V101.34Z" fill="#47A99C"/>
<path fill-rule="evenodd" clip-rule="evenodd" d="M295.743 101.451H299.73V99.8557H295.743V101.451Z" fill="#F4C158"/>
<path fill-rule="evenodd" clip-rule="evenodd" d="M294.686 112.265C300.361 102.976 306.035 93.6858 311.71 84.3961C313.605 81.2943 312.254 77.6914 309.897 76.8493C307.119 75.8574 306.349 75.6172 303.366 74.5828C300.834 73.7049 296.077 75.062 294.182 78.1632C288.508 87.4529 283.867 95.0492 278.193 104.339C276.298 107.441 277.37 113.021 280.02 113.848C283.141 114.821 283.794 114.87 286.355 115.797C288.53 116.585 292.792 115.367 294.686 112.265Z" fill="#47A99C"/>
<path fill-rule="evenodd" clip-rule="evenodd" d="M293.247 109.381C298.659 100.522 304.071 91.6623 309.482 82.8028C311.289 79.8451 310.27 76.5728 308.238 75.9018C305.845 75.1115 305.18 74.9249 302.608 74.1052C300.424 73.4094 296.184 74.8851 294.377 77.8429C288.966 86.7023 283.554 95.5618 278.142 104.421C276.335 107.379 278.005 110.879 280.294 111.522C282.99 112.279 283.562 112.295 285.768 113.034C287.642 113.663 291.44 112.339 293.247 109.381Z" fill="#84D7CC"/>
<path fill-rule="evenodd" clip-rule="evenodd" d="M292.111 107.749L307.026 83.3314C308.686 80.6139 307.959 77.7356 306.261 77.2224C304.262 76.6187 303.705 76.4799 301.555 75.8567C299.731 75.3285 296.066 76.8249 294.406 79.5425C289.435 87.6814 284.463 95.8208 279.491 103.96C277.831 106.677 279.101 109.731 281.019 110.208C283.277 110.77 283.761 110.76 285.604 111.327C287.169 111.808 290.451 110.466 292.111 107.749Z" fill="#84D7CC"/>
<path fill-rule="evenodd" clip-rule="evenodd" d="M286.867 103.237C288.368 104.154 290.329 103.681 291.247 102.179C292.164 100.677 291.69 98.716 290.188 97.799C288.687 96.8815 286.726 97.3555 285.809 98.8571C284.891 100.359 285.365 102.319 286.867 103.237Z" fill="#BBF0D3"/>
<path d="M293.164 86.8154L298.774 88.1091" stroke="#BBF0D3" stroke-width="1.82074" stroke-linecap="round" stroke-linejoin="round"/>
<path d="M296.011 82.1543L301.621 83.448" stroke="#BBF0D3" stroke-width="1.82074" stroke-linecap="round" stroke-linejoin="round"/>
<path fill-rule="evenodd" clip-rule="evenodd" d="M127.609 125.549L138.308 112.906L139.736 112.682L139.327 111.701L145.104 104.874L132.721 95.8433L116.761 98.3414L115.226 116.518L127.609 125.549Z" fill="#C69C45"/>
<path fill-rule="evenodd" clip-rule="evenodd" d="M129.143 107.372L145.104 104.874L152.119 121.713L127.609 125.549L129.143 107.372Z" fill="#D8B56D"/>
<path fill-rule="evenodd" clip-rule="evenodd" d="M145.104 104.874L132.721 95.8428L116.761 98.3409L129.144 107.372L145.104 104.874Z" fill="#ECCC8B"/>
<path fill-rule="evenodd" clip-rule="evenodd" d="M100.399 129.808L111.098 117.164L112.526 116.94L112.117 115.959L117.894 109.133L105.511 100.102L89.5512 102.6L88.0161 120.776L100.399 129.808Z" fill="#E1A020"/>
<path fill-rule="evenodd" clip-rule="evenodd" d="M101.933 111.631L117.894 109.133L124.909 125.971L100.399 129.808L101.933 111.631Z" fill="#D8B56D"/>
<path fill-rule="evenodd" clip-rule="evenodd" d="M117.894 109.133L105.511 100.102L89.5508 102.6L101.934 111.63L117.894 109.133Z" fill="#FFC843"/>
<path fill-rule="evenodd" clip-rule="evenodd" d="M110.992 110.213L121.691 97.5696L123.12 97.3461L122.71 96.364L128.486 89.5379L116.104 80.5073L100.144 83.0054L98.6094 101.182L110.992 110.213Z" fill="#C69C45"/>
<path fill-rule="evenodd" clip-rule="evenodd" d="M112.527 92.0362L128.487 89.5381L135.502 106.376L110.992 110.213L112.527 92.0362Z" fill="#D8B56D"/>
<path fill-rule="evenodd" clip-rule="evenodd" d="M128.487 89.5382L116.104 80.5071L100.144 83.0052L112.527 92.0363L128.487 89.5382Z" fill="#ECCC8B"/>
<mask id="mask1_5567_154100" style="mask-type:alpha" maskUnits="userSpaceOnUse" x="48" y="9" width="211" height="132">
<path fill-rule="evenodd" clip-rule="evenodd" d="M127.915 10.0519L55.5781 15.4645C51.6377 15.7594 48.5918 19.0426 48.5918 22.9934V101.877C48.5918 103.645 49.4397 105.306 50.871 106.342L93.8147 138.015C96.9407 140.279 100.849 141.183 104.652 140.524L155.152 131.764L192.016 130.036C192.016 130.036 255.376 123.7 254.8 122.548C254.224 121.396 258.832 77.0435 258.832 77.0435L250.768 41.3315H192.016V34.4311C192.016 30.99 189.798 27.9418 186.525 26.8832L138.367 11.3029C135.646 10.4222 132.807 9.97583 129.955 9.97583C129.276 9.97583 128.595 10.0012 127.915 10.0519Z" fill="white"/>
</mask>
<g mask="url(#mask1_5567_154100)">
<path fill-rule="evenodd" clip-rule="evenodd" d="M183.329 110.789C183.327 113.105 181.663 115.085 179.382 115.487L116.117 126.626C113.188 127.141 110.506 124.883 110.514 121.909L110.725 50.7433C110.732 48.2867 112.602 46.2367 115.048 46.004L178.163 40.0009C180.968 39.7342 183.393 41.9414 183.391 44.7592L183.329 110.789ZM98.585 28.656L98.71 141.558L192.029 125.129L192.119 28.656H98.585Z" fill="#73756E"/>
</g>
<mask id="mask2_5567_154100" style="mask-type:alpha" maskUnits="userSpaceOnUse" x="48" y="9" width="211" height="132">
<path fill-rule="evenodd" clip-rule="evenodd" d="M127.915 10.0519L55.5781 15.4645C51.6377 15.7594 48.5918 19.0426 48.5918 22.9934V101.877C48.5918 103.645 49.4397 105.306 50.871 106.342L93.8147 138.015C96.9407 140.279 100.849 141.183 104.652 140.524L155.152 131.764L192.016 130.036C192.016 130.036 255.376 123.7 254.8 122.548C254.224 121.396 258.832 77.0435 258.832 77.0435L250.768 41.3315H192.016V34.4311C192.016 30.99 189.798 27.9418 186.525 26.8832L138.367 11.3029C135.646 10.4222 132.807 9.97583 129.955 9.97583C129.276 9.97583 128.595 10.0012 127.915 10.0519Z" fill="white"/>
</mask>
<g mask="url(#mask2_5567_154100)">
<path fill-rule="evenodd" clip-rule="evenodd" d="M48.4072 104.825L98.7099 141.558V28.6561L48.4072 16.2571V104.825Z" fill="#65685E"/>
</g>
<mask id="mask3_5567_154100" style="mask-type:alpha" maskUnits="userSpaceOnUse" x="48" y="9" width="211" height="132">
<path fill-rule="evenodd" clip-rule="evenodd" d="M127.915 10.0519L55.5781 15.4645C51.6377 15.7594 48.5918 19.0426 48.5918 22.9934V101.877C48.5918 103.645 49.4397 105.306 50.871 106.342L93.8147 138.015C96.9407 140.279 100.849 141.183 104.652 140.524L155.152 131.764L192.016 130.036C192.016 130.036 255.376 123.7 254.8 122.548C254.224 121.396 258.832 77.0435 258.832 77.0435L250.768 41.3315H192.016V34.4311C192.016 30.99 189.798 27.9418 186.525 26.8832L138.367 11.3029C135.646 10.4222 132.807 9.97583 129.955 9.97583C129.276 9.97583 128.595 10.0012 127.915 10.0519Z" fill="white"/>
</mask>
<g mask="url(#mask3_5567_154100)">
<path fill-rule="evenodd" clip-rule="evenodd" d="M192.119 28.7088L104.915 36.9479C101.06 37.3125 97.1748 36.7193 93.6042 35.2211L48.4072 16.2574L133.107 9.57642L192.119 28.7088Z" fill="#4F5149"/>
</g>
<path fill-rule="evenodd" clip-rule="evenodd" d="M243.168 121.068C221.985 118.754 200.694 117.724 179.545 115.072C178.631 114.946 177.951 114.162 177.951 113.239V42.0432C177.951 40.9131 178.952 40.0457 180.07 40.1971C201.654 42.864 223.381 43.8835 244.986 46.3419C248.153 46.7359 250.506 49.4546 250.506 52.6543V114.612C250.506 118.524 247.041 121.528 243.168 121.068Z" fill="#484943"/>
<path fill-rule="evenodd" clip-rule="evenodd" d="M178.779 40.5081C178.287 40.8404 177.951 41.3945 177.951 42.0431V113.173C189.915 102.884 201.587 92.2824 213.219 81.6218C201.618 68.0155 190.076 54.3678 178.779 40.5081Z" fill="#484943"/>
<path fill-rule="evenodd" clip-rule="evenodd" d="M179.546 115.072C200.694 117.725 221.985 118.754 243.168 121.068C244.203 121.191 245.206 121.059 246.125 120.735C235.302 107.573 224.278 94.5856 213.219 81.6216C201.587 92.2822 189.915 102.885 177.951 113.173V113.238C177.951 114.163 178.631 114.947 179.546 115.072Z" fill="#65685E"/>
<path fill-rule="evenodd" clip-rule="evenodd" d="M250.506 114.611V52.654C250.506 51.3568 250.114 50.142 249.443 49.126C237.162 59.7319 225.178 70.6557 213.219 81.6216C224.277 94.5856 235.302 107.573 246.125 120.734C248.643 119.847 250.506 117.478 250.506 114.611Z" fill="#484943"/>
<path fill-rule="evenodd" clip-rule="evenodd" d="M249.443 49.1257C248.459 47.6356 246.868 46.5758 244.985 46.3419C223.381 43.883 201.653 42.864 180.07 40.1972C179.593 40.1321 179.144 40.2611 178.778 40.5082C190.075 54.3679 201.618 68.0151 213.219 81.6219C225.177 70.6555 237.162 59.7322 249.443 49.1257Z" fill="#65685E"/>
<path fill-rule="evenodd" clip-rule="evenodd" d="M233.945 109.894C220.156 108.645 206.342 107.708 192.558 106.412C190.81 106.237 189.512 104.784 189.512 103.019V59.1232C189.512 56.9644 191.424 55.2393 193.561 55.4495C207.426 56.7271 221.319 57.6677 235.184 58.9522C237.342 59.1659 238.945 60.9589 238.945 63.1391V105.352C238.945 108.018 236.584 110.148 233.945 109.894Z" fill="#73756E"/>
<path fill-rule="evenodd" clip-rule="evenodd" d="M215.938 109.993C215.938 109.993 205.738 107.677 201.281 106.182C200.45 105.904 199.55 105.957 198.752 106.321C196.891 107.168 193.257 108.725 189.594 109.744C188.484 110.053 187.531 110.847 187.161 111.938C186.784 113.052 186.952 114.497 189.134 115.819C193.497 118.465 200.334 116.046 200.334 116.046L207.672 118.705C207.672 118.705 214.963 129.907 223.335 134.402C224.459 135.006 225.35 135.969 225.897 137.121C226.54 138.474 227.558 140.317 228.905 141.826C230.057 143.117 231.624 143.956 233.31 144.346C235.065 144.752 237.797 145.533 239.044 146.677C240.961 148.437 271.722 195.132 271.722 195.132L289.944 190.666L278.579 150.361C278.579 150.361 241.586 126.738 234.29 115.154L226.279 102.434C225.203 100.728 223.355 99.6615 221.341 99.5854L206.446 100.061L215.938 109.993Z" fill="#FFD7B5"/>
<path fill-rule="evenodd" clip-rule="evenodd" d="M210.888 104.545C211.589 104.373 215.965 104.043 216.838 104.572C217.71 105.101 217.855 111.753 215.938 109.993C214.021 108.235 210.888 104.545 210.888 104.545Z" fill="#FFB08C"/>
<path fill-rule="evenodd" clip-rule="evenodd" d="M175.886 85.8817L172.494 91.5732C171.966 92.4591 171.903 93.5477 172.327 94.4877L195.399 145.676C195.58 146.076 196.175 145.973 196.211 145.535L197.376 131.259L177.286 85.6628L176.726 85.528C176.399 85.4491 176.059 85.5926 175.886 85.8817Z" fill="#D8B56D"/>
<path fill-rule="evenodd" clip-rule="evenodd" d="M196.331 130.029L222.118 117.022L229.917 133.685L197.291 146.695C196.714 146.925 196.087 146.494 196.096 145.871L196.331 130.029Z" fill="#C69C45"/>
<path fill-rule="evenodd" clip-rule="evenodd" d="M191.585 79.7556L176.297 85.4269C175.838 85.5974 175.619 86.1215 175.82 86.5679L195.351 129.839C196.04 131.367 197.807 132.083 199.365 131.466L224.381 121.567L194.146 80.5211C193.559 79.7227 192.514 79.4105 191.585 79.7556Z" fill="#ECCC8B"/>
<path d="M235.818 144.125C235.647 143.425 230.768 138.677 234.114 134.141" stroke="#FFB08C" stroke-width="1.14682" stroke-linecap="round" stroke-linejoin="round"/>
<path fill-rule="evenodd" clip-rule="evenodd" d="M230.823 126.776L215.938 109.993C215.938 109.993 205.739 107.677 201.281 106.183C200.45 105.904 199.55 105.957 198.752 106.32C196.891 107.168 193.257 108.726 189.594 109.745C188.484 110.053 187.531 110.847 187.161 111.939C186.784 113.053 186.952 114.497 189.134 115.82C193.497 118.465 200.333 116.047 200.333 116.047L207.672 118.705C207.672 118.705 214.963 129.908 223.335 134.403C224.459 135.006 225.35 135.969 225.897 137.121C226.07 137.485 226.273 137.887 226.499 138.306L230.267 133.599L230.823 126.776Z" fill="#FFD7B5"/>
<path d="M200.334 116.047C200.334 116.047 198.589 114.989 198.946 113.415" stroke="#FFB08C" stroke-width="1.14682" stroke-linecap="round" stroke-linejoin="round"/>
<path fill-rule="evenodd" clip-rule="evenodd" d="M55.9978 141.228L67.6007 131.467L69.0396 131.321L68.7067 130.536L74.9718 125.266L63.3309 117.852L47.2582 119.475L44.3574 133.814L55.9978 141.228Z" fill="#47A99C"/>
<path fill-rule="evenodd" clip-rule="evenodd" d="M20.2717 125.359L28.9543 118.261L30.031 118.155L29.7818 117.584L34.4701 113.751L25.7591 108.359L13.7317 109.54L11.561 119.967L20.2717 125.359Z" fill="#47A99C"/>
<path fill-rule="evenodd" clip-rule="evenodd" d="M58.8988 126.889L74.9721 125.267L80.6808 138.735L55.998 141.228L58.8988 126.889Z" fill="#84D7CC"/>
<path fill-rule="evenodd" clip-rule="evenodd" d="M22.1399 114.579L33.743 113.359L37.8641 123.485L20.0459 125.359L22.1399 114.579Z" fill="#84D7CC"/>
<path fill-rule="evenodd" clip-rule="evenodd" d="M74.972 125.266L63.331 117.852L47.2583 119.475L58.8987 126.889L74.972 125.266Z" fill="#EDFFF5"/>
<path fill-rule="evenodd" clip-rule="evenodd" d="M34.4701 113.282L25.9165 108.359L14.1064 109.437L22.6596 114.359L34.4701 113.282Z" fill="#EDFFF5"/>
<path fill-rule="evenodd" clip-rule="evenodd" d="M28.596 143.995L40.199 134.233L41.6378 134.088L41.3049 133.303L47.5695 128.033L35.9291 120.619L19.8564 122.242L16.9551 136.581L28.596 143.995Z" fill="#47A99C"/>
<path fill-rule="evenodd" clip-rule="evenodd" d="M31.4969 129.656L47.5696 128.033L53.2789 141.502L28.5962 143.995L31.4969 129.656Z" fill="#84D7CC"/>
<path fill-rule="evenodd" clip-rule="evenodd" d="M2.62477 116.579L14.2275 115.359L18.3489 125.485L0.530762 127.359L2.62477 116.579Z" fill="#84D7CC"/>
<path fill-rule="evenodd" clip-rule="evenodd" d="M47.5696 128.033L35.9292 120.619L19.856 122.242L31.4969 129.656L47.5696 128.033Z" fill="#EDFFF5"/>
<path fill-rule="evenodd" clip-rule="evenodd" d="M40.6194 128.735L52.2223 118.974L53.6618 118.828L53.3283 118.043L59.5928 112.773L47.9524 105.359L31.8797 106.982L28.979 121.321L40.6194 128.735Z" fill="#47A99C"/>
<path fill-rule="evenodd" clip-rule="evenodd" d="M8.91893 116.359L17.2801 109.261L18.3174 109.155L18.0771 108.584L22.5914 104.751L14.2032 99.3591L2.62106 100.54L0.530762 110.967L8.91893 116.359Z" fill="#47A99C"/>
<path fill-rule="evenodd" clip-rule="evenodd" d="M43.52 114.396L59.5927 112.774L65.302 126.242L40.6187 128.735L43.52 114.396Z" fill="#84D7CC"/>
<path fill-rule="evenodd" clip-rule="evenodd" d="M11.11 105.579L22.7124 104.359L26.8338 114.485L9.01562 116.359L11.11 105.579Z" fill="#84D7CC"/>
<path fill-rule="evenodd" clip-rule="evenodd" d="M59.593 112.773L47.9526 105.359L31.8799 106.982L43.5203 114.396L59.593 112.773Z" fill="#EDFFF5"/>
<path fill-rule="evenodd" clip-rule="evenodd" d="M22.5913 105.102L14.3943 99.3591L3.07617 100.616L11.2732 106.359L22.5913 105.102Z" fill="#EDFFF5"/>
<path fill-rule="evenodd" clip-rule="evenodd" d="M39.2036 131.533L41.2012 132.417L42.4332 134.279L43.2679 132.209L45.0483 130.943L43.0507 130.059L41.8192 128.198L40.984 130.268L39.2036 131.533Z" fill="white"/>
<path fill-rule="evenodd" clip-rule="evenodd" d="M239.984 151.099C240.376 146.973 242.833 135.845 257.852 132.662C258.925 132.435 260.047 132.698 260.926 133.354L302.698 164.536C304.519 165.895 304.777 168.525 303.255 170.213L279.084 197.011C277.46 198.813 274.596 198.686 273.137 196.749L240.746 153.758C240.172 152.996 239.894 152.049 239.984 151.099Z" fill="white"/>
<path fill-rule="evenodd" clip-rule="evenodd" d="M241.598 154.645C241.983 150.22 244.571 137.639 261.47 134.143C262.538 133.922 263.654 134.179 264.528 134.832L311.042 169.553C312.853 170.905 313.109 173.521 311.596 175.198L284.338 205.419C282.723 207.209 279.876 207.084 278.424 205.158L242.357 157.287C241.786 156.529 241.517 155.591 241.598 154.645Z" fill="#00883E"/>
<path fill-rule="evenodd" clip-rule="evenodd" d="M0.434324 127.359L8.79536 120.26L9.83218 120.155L9.59228 119.584L14.1065 115.751L5.71849 110.359L-5.86343 111.54L-7.9541 121.967L0.434324 127.359Z" fill="#47A99C"/>
<path fill-rule="evenodd" clip-rule="evenodd" d="M14.1063 116.102L5.55311 110.359L-6.25732 111.616L2.2963 117.359L14.1063 116.102Z" fill="#EDFFF5"/>
</g>
<path fill-rule="evenodd" clip-rule="evenodd" d="M139.5 65.2966L138.19 67.6908L135.797 68.9997C135.401 69.2163 135.401 69.7837 135.797 70.0003L138.19 71.3092L139.5 73.7034C139.715 74.0989 140.284 74.0989 140.499 73.7034L141.809 71.3092L144.203 70.0003C144.599 69.7837 144.599 69.2163 144.203 68.9997L141.809 67.6908L140.499 65.2966C140.284 64.9011 139.715 64.9011 139.5 65.2966Z" fill="#FFE7B8"/>
<path fill-rule="evenodd" clip-rule="evenodd" d="M206.5 82.2966L205.19 84.6908L202.797 85.9997C202.401 86.2163 202.401 86.7837 202.797 87.0003L205.19 88.3092L206.5 90.7034C206.715 91.0989 207.284 91.0989 207.499 90.7034L208.809 88.3092L211.203 87.0003C211.599 86.7837 211.599 86.2163 211.203 85.9997L208.809 84.6908L207.499 82.2966C207.284 81.9011 206.715 81.9011 206.5 82.2966Z" fill="#FFE7B8"/>
<path fill-rule="evenodd" clip-rule="evenodd" d="M181.5 130.297L180.19 132.691L177.797 134C177.401 134.216 177.401 134.784 177.797 135L180.19 136.309L181.5 138.703C181.715 139.099 182.284 139.099 182.499 138.703L183.809 136.309L186.203 135C186.599 134.784 186.599 134.216 186.203 134L183.809 132.691L182.499 130.297C182.284 129.901 181.715 129.901 181.5 130.297Z" fill="#FFC54F"/>
<path fill-rule="evenodd" clip-rule="evenodd" d="M229.611 21.2307L228.592 23.0929L226.731 24.1109C226.423 24.2794 226.423 24.7206 226.731 24.8891L228.592 25.9071L229.611 27.7693C229.778 28.0769 230.221 28.0769 230.388 27.7693L231.407 25.9071L233.269 24.8891C233.577 24.7206 233.577 24.2794 233.269 24.1109L231.407 23.0929L230.388 21.2307C230.221 20.9231 229.778 20.9231 229.611 21.2307Z" fill="#FFC54F"/>
<path fill-rule="evenodd" clip-rule="evenodd" d="M31.9997 69.2966L30.6897 71.6908L28.2966 72.9997C27.9011 73.2163 27.9011 73.7837 28.2966 74.0003L30.6897 75.3092L31.9997 77.7034C32.2152 78.0989 32.7837 78.0989 32.9991 77.7034L34.3092 75.3092L36.7034 74.0003C37.0989 73.7837 37.0989 73.2163 36.7034 72.9997L34.3092 71.6908L32.9991 69.2966C32.7837 68.9011 32.2152 68.9011 31.9997 69.2966Z" fill="#FFD37B"/>
<path fill-rule="evenodd" clip-rule="evenodd" d="M300.5 50.2966L299.19 52.6908L296.797 53.9997C296.401 54.2163 296.401 54.7837 296.797 55.0003L299.19 56.3092L300.5 58.7034C300.715 59.0989 301.284 59.0989 301.499 58.7034L302.809 56.3092L305.203 55.0003C305.599 54.7837 305.599 54.2163 305.203 53.9997L302.809 52.6908L301.499 50.2966C301.284 49.9011 300.715 49.9011 300.5 50.2966Z" fill="#FFD37B"/>
</svg>
