<svg width="121" height="121" viewBox="0 0 121 121" fill="none" xmlns="http://www.w3.org/2000/svg">
<ellipse cx="60.6922" cy="60.8312" rx="56.5147" ry="56.426" fill="#BBF0D3"/>
<path fill-rule="evenodd" clip-rule="evenodd" d="M104.363 62.1136C104.363 86.4305 84.6195 106.143 60.2645 106.143C35.9094 106.143 16.1655 86.4305 16.1655 62.1136C16.1655 37.7966 35.9094 18.0842 60.2645 18.0842C84.6195 18.0842 104.363 37.7966 104.363 62.1136Z" fill="#00883E"/>
<path fill-rule="evenodd" clip-rule="evenodd" d="M104.085 57.7001C104.085 81.94 84.4038 101.59 60.125 101.59C35.847 101.59 16.1655 81.94 16.1655 57.7001C16.1655 33.4602 35.847 13.8096 60.125 13.8096C84.4038 13.8096 104.085 33.4602 104.085 57.7001Z" fill="#00AB4E"/>
<mask id="mask0_5567_145121" style="mask-type:alpha" maskUnits="userSpaceOnUse" x="16" y="13" width="89" height="89">
<path fill-rule="evenodd" clip-rule="evenodd" d="M104.085 57.7001C104.085 81.94 84.4038 101.59 60.125 101.59C35.847 101.59 16.1655 81.94 16.1655 57.7001C16.1655 33.4602 35.847 13.8096 60.125 13.8096C84.4038 13.8096 104.085 33.4602 104.085 57.7001Z" fill="white"/>
</mask>
<g mask="url(#mask0_5567_145121)">
<path fill-rule="evenodd" clip-rule="evenodd" d="M72.9454 49.8344C66.4401 55.8176 60.0627 61.9264 53.7538 68.0981L48.3583 62.9498C45.7141 60.4273 41.3781 60.3038 38.7294 62.8219C38.6974 62.8533 38.6632 62.8825 38.6335 62.9139C35.9939 65.4387 36.1218 69.5726 38.7591 72.0974L49.0844 81.9698C51.7399 84.5103 56.0532 84.5731 58.7635 82.091C66.9242 74.6176 74.9228 66.9872 82.7569 59.1997C85.3577 56.6143 85.2915 52.5028 82.6359 49.9713L82.6062 49.9444C79.953 47.4107 75.6489 47.3501 72.9454 49.8344Z" fill="#00883E"/>
<path fill-rule="evenodd" clip-rule="evenodd" d="M72.9454 42.9951C66.4401 48.9782 60.0627 55.0871 53.7538 61.2588L48.3583 56.1105C45.7141 53.5879 41.3781 53.4645 38.7294 55.9825C38.6974 56.014 38.6632 56.0431 38.6335 56.0745C35.9939 58.5993 36.1218 62.7332 38.7591 65.258L49.0844 75.1304C51.7399 77.6709 56.0532 77.7338 58.7635 75.2516C66.9242 67.7783 74.9228 60.1479 82.7569 52.3603C85.3577 49.775 85.2915 45.6635 82.6359 43.132L82.6062 43.1051C79.953 40.5713 75.6489 40.5107 72.9454 42.9951Z" fill="white"/>
</g>
<path fill-rule="evenodd" clip-rule="evenodd" d="M10.3856 84.7695L13.7919 90.9866L20.0197 94.3876L13.7919 97.7885L10.3856 104.006L6.97933 97.7885L0.752441 94.3876L6.97933 90.9866L10.3856 84.7695Z" fill="#FFC54F"/>
<path fill-rule="evenodd" clip-rule="evenodd" d="M107.147 10.3899L111.764 18.8179L120.205 23.4277L111.764 28.0375L107.147 36.4655L102.529 28.0375L94.0874 23.4277L102.529 18.8179L107.147 10.3899Z" fill="#FFC54F"/>
</svg>
