<svg width="328" height="164" viewBox="0 0 328 164" fill="none" xmlns="http://www.w3.org/2000/svg">
<mask id="mask0_5567_152901" style="mask-type:alpha" maskUnits="userSpaceOnUse" x="0" y="0" width="328" height="164">
<path fill-rule="evenodd" clip-rule="evenodd" d="M23.2189 161.504C33.6809 163.667 265.053 165.826 301.876 161.504C312.777 160.224 321.503 148.276 322.776 146.203C330.736 133.238 327.751 53.2794 325.761 26.266C324.69 11.7278 309.838 5.19571 302.871 3.03482C289.548 -1.09779 53.2799 -1.26366 22.2229 4.11573C8.32787 6.52168 3.29087 17.8712 2.29087 24.1796C-0.0421274 38.8847 -1.42113 129.331 2.31887 141.514C5.30487 151.239 12.7689 159.343 23.2189 161.504Z" fill="white"/>
</mask>
<g mask="url(#mask0_5567_152901)">
<path fill-rule="evenodd" clip-rule="evenodd" d="M-8.31299 173.818H329.687V-0.181885H-8.31299V173.818Z" fill="#E6F6ED"/>
<path fill-rule="evenodd" clip-rule="evenodd" d="M-25 183.469C-25 183.469 86.209 68.4025 229.011 104.468C229.011 104.468 299.781 119.925 353.49 177.459L-25 183.469Z" fill="#80D3C8"/>
<path fill-rule="evenodd" clip-rule="evenodd" d="M137.182 126.984C138.02 127.005 138.682 127.703 138.661 128.54C138.651 128.942 138.481 129.324 138.188 129.602L135.076 132.56C134.458 133.127 133.498 133.085 132.93 132.466C132.378 131.863 132.402 130.931 132.984 130.358L136.098 127.401C136.39 127.123 136.78 126.973 137.182 126.984Z" fill="#E9FFF1"/>
<path fill-rule="evenodd" clip-rule="evenodd" d="M153.102 98.5378C153.939 98.5588 154.602 99.2568 154.58 100.094C154.57 100.496 154.4 100.878 154.108 101.156L146.324 108.549C145.707 109.117 144.747 109.075 144.18 108.456C143.627 107.853 143.651 106.921 144.234 106.349L152.018 98.9548C152.31 98.6768 152.7 98.5278 153.102 98.5378Z" fill="white"/>
<path fill-rule="evenodd" clip-rule="evenodd" d="M150.3 89.3538C151.137 89.3748 151.8 90.0728 151.779 90.9098C151.768 91.3118 151.599 91.6938 151.306 91.9718L145.079 97.8868C144.462 98.4538 143.502 98.4128 142.934 97.7928C142.382 97.1898 142.406 96.2578 142.988 95.6858L149.216 89.7708C149.508 89.4928 149.897 89.3428 150.3 89.3538Z" fill="white"/>
<path fill-rule="evenodd" clip-rule="evenodd" d="M150.381 69.322C150.892 69.322 151.305 69.736 151.305 70.246C151.306 70.491 151.208 70.726 151.035 70.9L148.677 73.258C148.316 73.619 147.731 73.619 147.37 73.258C147.008 72.897 147.008 72.312 147.369 71.95L149.727 69.593C149.901 69.419 150.136 69.322 150.381 69.322Z" fill="white"/>
<path fill-rule="evenodd" clip-rule="evenodd" d="M159.726 126.377C160.237 126.377 160.65 126.791 160.65 127.301C160.65 127.546 160.553 127.782 160.38 127.955L158.975 129.359C158.614 129.721 158.029 129.721 157.668 129.36C157.307 128.999 157.307 128.414 157.668 128.052L159.072 126.648C159.246 126.474 159.481 126.377 159.726 126.377Z" fill="white"/>
<path fill-rule="evenodd" clip-rule="evenodd" d="M73.687 52.8542C73.687 66.9372 62.27 78.3542 48.187 78.3542C34.104 78.3542 22.687 66.9372 22.687 52.8542C22.687 38.7712 34.104 27.3542 48.187 27.3542C61.648 27.3542 72.672 37.7842 73.621 51.0032C73.665 51.6142 73.687 52.2312 73.687 52.8542Z" fill="#4CBFA9"/>
<mask id="mask1_5567_152901" style="mask-type:alpha" maskUnits="userSpaceOnUse" x="269" y="48" width="33" height="34">
<path fill-rule="evenodd" clip-rule="evenodd" d="M269.829 64.8414C269.829 68.5248 271.004 71.9336 272.988 74.6841C273.133 74.8937 273.285 75.0908 273.45 75.2914C276.387 78.9757 280.845 81.3401 285.832 81.3401C290.821 81.3401 295.27 78.9757 298.207 75.2914C298.37 75.0908 298.517 74.8937 298.668 74.6841C300.651 71.9336 301.829 68.5248 301.829 64.8414C301.829 55.7319 294.663 48.3401 285.832 48.3401C276.993 48.3401 269.829 55.7319 269.829 64.8414Z" fill="white"/>
</mask>
<g mask="url(#mask1_5567_152901)">
<path fill-rule="evenodd" clip-rule="evenodd" d="M266.829 85.3401H307.829V44.3401H266.829V85.3401Z" fill="#84D7CC"/>
</g>
<mask id="mask2_5567_152901" style="mask-type:alpha" maskUnits="userSpaceOnUse" x="269" y="46" width="33" height="34">
<path fill-rule="evenodd" clip-rule="evenodd" d="M269.829 62.8419C269.829 66.5263 271.004 69.9342 272.988 72.6848C273.133 72.8944 273.285 73.0915 273.45 73.2931C276.387 76.9766 280.845 79.3401 285.832 79.3401C290.821 79.3401 295.27 76.9766 298.207 73.2931C298.37 73.0915 298.517 72.8944 298.668 72.6848C300.651 69.9342 301.829 66.5263 301.829 62.8419C301.829 53.7321 294.663 46.3401 285.832 46.3401C276.993 46.3401 269.829 53.7321 269.829 62.8419Z" fill="white"/>
</mask>
<g mask="url(#mask2_5567_152901)">
<path fill-rule="evenodd" clip-rule="evenodd" d="M266.829 83.3401H307.829V42.3401H266.829V83.3401Z" fill="white"/>
</g>
<mask id="mask3_5567_152901" style="mask-type:alpha" maskUnits="userSpaceOnUse" x="278" y="54" width="15" height="15">
<path fill-rule="evenodd" clip-rule="evenodd" d="M278.829 61.3387C278.829 65.2052 281.963 68.3401 285.83 68.3401C289.696 68.3401 292.829 65.2052 292.829 61.3387C292.829 57.4749 289.696 54.3401 285.83 54.3401C281.963 54.3401 278.829 57.4749 278.829 61.3387Z" fill="white"/>
</mask>
<g mask="url(#mask3_5567_152901)">
<path fill-rule="evenodd" clip-rule="evenodd" d="M276.829 72.3401H298.829V50.3401H276.829V72.3401Z" fill="#407972"/>
</g>
<mask id="mask4_5567_152901" style="mask-type:alpha" maskUnits="userSpaceOnUse" x="273" y="68" width="25" height="12">
<path fill-rule="evenodd" clip-rule="evenodd" d="M273.829 74.256C276.778 77.3718 281.065 79.3401 285.832 79.3401C290.6 79.3401 294.881 77.3718 297.829 74.256C295.183 70.6773 290.795 68.3401 285.832 68.3401C280.872 68.3401 276.474 70.6773 273.829 74.256Z" fill="white"/>
</mask>
<g mask="url(#mask4_5567_152901)">
<path fill-rule="evenodd" clip-rule="evenodd" d="M270.829 83.3401H303.829V63.3401H270.829V83.3401Z" fill="#407972"/>
</g>
<mask id="mask5_5567_152901" style="mask-type:alpha" maskUnits="userSpaceOnUse" x="288" y="69" width="21" height="21">
<path fill-rule="evenodd" clip-rule="evenodd" d="M288 79.5009C288 85.2996 292.701 90 298.499 90C304.298 90 309 85.2996 309 79.5009C309 73.7022 304.298 69 298.499 69C292.701 69 288 73.7022 288 79.5009Z" fill="white"/>
</mask>
<g mask="url(#mask5_5567_152901)">
<path fill-rule="evenodd" clip-rule="evenodd" d="M286 92H312V66H286V92Z" fill="#00AB4E"/>
</g>
<mask id="mask6_5567_152901" style="mask-type:alpha" maskUnits="userSpaceOnUse" x="294" y="76" width="10" height="8">
<path fill-rule="evenodd" clip-rule="evenodd" d="M301.815 76.4102L297.823 80.78L296.1 79.2113C295.564 78.7244 294.761 78.7915 294.305 79.3646C293.848 79.9351 293.911 80.7948 294.449 81.2817L297.077 83.6743C297.315 83.892 297.609 84 297.902 84C298.235 84 298.566 83.8615 298.814 83.588L303.638 78.3099C304.129 77.7725 304.119 76.9102 303.617 76.3858C303.369 76.1289 303.048 76 302.727 76C302.395 76 302.065 76.1376 301.815 76.4102Z" fill="white"/>
</mask>
<g mask="url(#mask6_5567_152901)">
<path fill-rule="evenodd" clip-rule="evenodd" d="M292 86H307V73H292V86Z" fill="#EDF6FF"/>
</g>
<mask id="mask7_5567_152901" style="mask-type:alpha" maskUnits="userSpaceOnUse" x="224" y="161" width="14" height="5">
<path fill-rule="evenodd" clip-rule="evenodd" d="M233.03 161.255C233 161.269 232.969 161.283 232.939 161.3L224.09 165.819H237.679L236.122 162.408C235.73 161.551 234.883 161.044 233.998 161.044C233.674 161.044 233.344 161.112 233.03 161.255Z" fill="white"/>
</mask>
<g mask="url(#mask7_5567_152901)">
<path fill-rule="evenodd" clip-rule="evenodd" d="M244.474 155.86L196.785 156.693L197.427 193.473L245.116 192.64L244.474 155.86Z" fill="#00883E"/>
</g>
<path fill-rule="evenodd" clip-rule="evenodd" d="M73.687 50.8542C73.687 64.9372 62.27 76.3542 48.187 76.3542C34.104 76.3542 22.687 64.9372 22.687 50.8542C22.687 36.7712 34.104 25.3542 48.187 25.3542C61.648 25.3542 72.672 35.7842 73.621 49.0032C73.665 49.6142 73.687 50.2312 73.687 50.8542Z" fill="white"/>
<path fill-rule="evenodd" clip-rule="evenodd" d="M44.2504 65.661H36.1124C35.5124 65.661 35.0254 65.18 35.0254 64.586C35.0254 63.993 35.5124 63.512 36.1124 63.512H44.2504C44.8504 63.512 45.3374 63.993 45.3374 64.586C45.3374 65.18 44.8504 65.661 44.2504 65.661Z" fill="#407972"/>
<path fill-rule="evenodd" clip-rule="evenodd" d="M42.0764 62.4366H32.8224C32.2224 62.4366 31.7354 61.9556 31.7354 61.3616C31.7354 60.7686 32.2224 60.2876 32.8224 60.2876H42.0764C42.6774 60.2876 43.1634 60.7686 43.1634 61.3616C43.1634 61.9556 42.6774 62.4366 42.0764 62.4366Z" fill="#407972"/>
<path fill-rule="evenodd" clip-rule="evenodd" d="M37.7283 59.2127H29.5323C28.9313 59.2127 28.4453 58.7317 28.4453 58.1377C28.4453 57.5447 28.9313 57.0637 29.5323 57.0637H37.7283C38.3293 57.0637 38.8153 57.5447 38.8153 58.1377C38.8153 58.7317 38.3293 59.2127 37.7283 59.2127Z" fill="#407972"/>
<path fill-rule="evenodd" clip-rule="evenodd" d="M49.6849 35.6247V34.4957H50.7719C51.3719 34.4957 51.8589 34.0147 51.8589 33.4207C51.8589 32.8277 51.3719 32.3467 50.7719 32.3467H46.4239C45.8239 32.3467 45.3369 32.8277 45.3369 33.4207C45.3369 34.0147 45.8239 34.4957 46.4239 34.4957H47.5109V35.6247C39.6269 36.1797 33.3799 42.6817 33.3799 50.6157C33.3799 51.2087 33.8669 51.6897 34.4669 51.6897C35.0679 51.6897 35.5549 51.2087 35.5549 50.6157C35.5549 43.5047 41.4059 37.7197 48.5979 37.7197C55.7899 37.7197 61.6419 43.5047 61.6419 50.6157C61.6419 57.7267 55.7899 63.5117 48.5979 63.5117C47.9979 63.5117 47.5109 63.9927 47.5109 64.5857C47.5109 65.1797 47.9979 65.6607 48.5979 65.6607C56.9889 65.6607 63.8159 58.9117 63.8159 50.6157C63.8159 42.6817 57.5689 36.1797 49.6849 35.6247Z" fill="#407972"/>
<path fill-rule="evenodd" clip-rule="evenodd" d="M48.8162 52.5482C49.3992 52.5192 49.9452 52.2462 50.3142 51.8002L56.5432 44.2732C56.8972 43.8452 56.8652 43.2232 56.4702 42.8322C56.0742 42.4402 55.4452 42.4102 55.0132 42.7602L47.4002 48.9192C46.9492 49.2842 46.6732 49.8232 46.6432 50.4002C46.6142 50.9772 46.8342 51.5422 47.2462 51.9502C47.2472 51.9512 47.2472 51.9512 47.2482 51.9512C47.6362 52.3362 48.1652 52.5512 48.7122 52.5512C48.7472 52.5502 48.7812 52.5492 48.8162 52.5482Z" fill="#407972"/>
<path d="M224.395 76.9573C224.362 76.7164 223.364 71.2091 223.374 69.4905C223.385 67.7714 219.792 64.8269 219.453 64.1375C219.193 63.6107 214.905 59.7727 212.891 57.9872C212.218 57.3902 211.172 57.4707 210.623 58.1828C209.86 59.1717 209.343 60.7905 211.191 62.902C214.384 66.5484 218.536 73.5871 218.536 73.5871L221.504 77.3525L224.395 76.9573Z" fill="#E79E5C"/>
<path fill-rule="evenodd" clip-rule="evenodd" d="M271.113 145.64C277.899 154.981 283.141 162.196 284.022 163.664C284.349 164.208 240.926 163.686 240.026 163.349C238.227 162.675 235.779 154.999 233.118 146.658C229.888 136.53 226.345 125.422 223.272 124.683C196.173 118.171 190.376 113.203 189.035 112.054C188.895 111.934 188.803 111.856 188.741 111.822C188.72 111.81 188.698 111.799 188.676 111.789C187.308 111.159 186.181 110.102 185.466 108.775L183.742 105.58C183.661 105.429 183.551 105.295 183.422 105.183C179.987 102.184 180.317 99.9294 180.756 98.9196C180.891 98.61 181.147 98.3815 181.447 98.2256C181.832 98.0254 182.068 97.599 182.006 97.1449C181.904 96.401 183.204 88.8349 184.179 87.5994C184.3 87.4452 184.489 87.2086 184.724 86.9131C185.921 85.4097 188.334 82.3797 189.379 80.889C190.281 79.6008 191.762 78.8444 193.335 78.8676C196.054 78.9084 200.47 79.044 204.129 79.4828C207.894 79.9341 208.202 79.0615 207.97 78.4083C207.842 78.0494 207.547 77.7756 207.194 77.6299C201.817 75.4038 197.774 71.3849 196.72 70.2736C196.543 70.0865 196.316 69.9566 196.068 69.8892C191.621 68.6847 178.66 61.1382 175.127 59.081C174.889 58.9428 174.694 58.8293 174.548 58.7442C172.149 57.3545 171.556 53.0187 173.593 51.7588C175.629 50.4995 188.278 56.8675 188.278 56.8675C186.729 56.0232 185.894 54.9663 185.479 53.906C184.487 51.3749 187.048 48.9238 189.57 49.9387C191.089 50.5502 192.606 51.4271 194.129 52.3075C195.24 52.9495 196.354 53.5933 197.474 54.1373C199.569 55.1557 202.593 56.8782 204.967 58.2691C208.06 60.0818 210.84 62.381 213.198 65.0827C214.528 66.6085 215.999 68.4586 217.386 70.5543C219.954 74.4359 222.133 75.4662 223.371 75.7043C224.09 75.8421 225.284 76.2985 225.788 76.6172C227.095 77.4434 227.757 79.0168 228.953 81.8623C230.125 84.6505 231.811 88.6601 235.12 94.3847C239.976 102.783 258.297 128.001 271.113 145.64ZM200.809 105.455C201.707 104.842 207.925 100.066 209.106 97.9415C209.106 97.9415 209.85 94.4046 209.477 93.4741C209.105 92.5431 204.262 85.8446 194.278 88.1908C194.278 88.1908 190.403 92.1558 189.232 92.5612C189.232 92.5612 189.409 97.4448 186.102 98.3877C186.102 98.3877 190.767 100.203 192.367 102.929C192.367 102.929 199.912 106.069 200.809 105.455Z" fill="#F2CBA8"/>
<path d="M208.536 78.5122C208.536 78.5122 218.307 77.2988 220.739 78.9295C223.17 80.5602 225.383 84.1833 225.383 84.1833" stroke="#E79E5C" stroke-width="0.5" stroke-linecap="round" stroke-linejoin="round"/>
<path d="M188.277 56.8672C188.277 56.8672 200.662 61.3085 202.24 62.0739C203.817 62.84 212.984 70.6651 212.984 70.6651C212.984 70.6651 207.922 60.5612 188.277 56.8672Z" fill="#E79E5C"/>
<path d="M205.785 101.463C205.785 101.463 212.522 96.002 213.671 93.6365" stroke="#E79E5C" stroke-width="0.5" stroke-linecap="round" stroke-linejoin="round"/>
<path d="M194.278 88.191C194.278 88.191 192.295 86.2536 191.999 84.0859" stroke="#E79E5C" stroke-width="0.5" stroke-linecap="round" stroke-linejoin="round"/>
<path d="M191.573 103.406C191.573 103.406 189.64 104.528 189.871 106.215" stroke="#E79E5C" stroke-width="0.5" stroke-linecap="round" stroke-linejoin="round"/>
<path d="M231.219 129.384C229.182 124.518 224.503 121.338 219.233 121.079C208.53 120.552 194.237 115.308 194.237 115.308C198.888 117.605 207.447 120.881 223.272 124.683C228.875 126.03 236.042 161.857 240.027 163.349C240.258 163.436 242.331 162.247 245.273 160.427C244.495 160.749 236.256 141.412 231.219 129.384Z" fill="#E79E5C"/>
<mask id="mask8_5567_152901" style="mask-type:alpha" maskUnits="userSpaceOnUse" x="101" y="45" width="58" height="93">
<path fill-rule="evenodd" clip-rule="evenodd" d="M141.329 46.006L107.81 50.2789C107.794 50.2812 107.777 50.2835 107.76 50.2863C103.97 50.8023 101.379 54.8115 101.968 59.2682L111.211 130.486C111.726 134.451 115.021 137.388 118.899 137.612L118.969 137.616C119.452 137.64 119.944 137.622 120.44 137.559L151.423 133.608C155.411 133.099 158.367 129.842 158.606 126L158.613 125.861C158.634 125.394 158.615 124.919 158.553 124.44L149.31 53.233C148.758 49.0548 145.611 45.9573 142.091 45.9573C141.839 45.9573 141.584 45.9732 141.329 46.006Z" fill="white"/>
</mask>
<g mask="url(#mask8_5567_152901)">
<path d="M99.0786 39.8933L166.769 43.5074L161.424 143.642L93.7329 140.028L99.0786 39.8933Z" fill="#252528"/>
</g>
<mask id="mask9_5567_152901" style="mask-type:alpha" maskUnits="userSpaceOnUse" x="104" y="45" width="57" height="93">
<path fill-rule="evenodd" clip-rule="evenodd" d="M143.422 45.9174L110.043 50.2034C110.026 50.2056 110.009 50.209 109.994 50.2107C106.219 50.729 103.64 54.7518 104.226 59.2249L113.434 130.7C114.015 135.199 118.128 138.378 122.625 137.799L153.478 133.835C157.979 133.257 161.159 129.137 160.578 124.635L151.37 53.1699C150.821 48.9775 147.685 45.8687 144.18 45.8687C143.929 45.8687 143.676 45.8845 143.422 45.9174Z" fill="white"/>
</mask>
<g mask="url(#mask9_5567_152901)">
<path d="M101.339 39.814L168.81 43.4161L163.447 143.873L95.9756 140.271L101.339 39.814Z" fill="#58585B"/>
</g>
<mask id="mask10_5567_152901" style="mask-type:alpha" maskUnits="userSpaceOnUse" x="107" y="50" width="51" height="85">
<path fill-rule="evenodd" clip-rule="evenodd" d="M143.668 50.4041L138.32 51.1004C137.634 51.1894 137.019 51.1678 136.963 52.0325L136.9 52.9947C136.845 53.8605 136.324 54.5301 135.637 54.6197L120.428 56.598C119.742 56.6864 119.067 56.1722 118.794 55.35L118.489 54.4354C118.24 53.6915 117.742 53.7641 117.143 53.8514C117.078 53.8611 117.014 53.8707 116.948 53.8787L111.599 54.5727C111.589 54.5744 111.578 54.5761 111.568 54.5772C109.111 54.9185 107.452 57.7116 107.854 60.8335L116.61 129.397C117.055 132.873 120.203 135.326 123.645 134.877L152.192 131.166C155.641 130.716 158.077 127.527 157.634 124.048L148.879 55.4986C148.5 52.5609 146.428 50.374 144.134 50.374C143.98 50.374 143.825 50.3837 143.668 50.4041Z" fill="white"/>
</mask>
<g mask="url(#mask10_5567_152901)">
<path d="M104.846 44.5122L165.571 47.7543L160.608 140.715L99.8833 137.473L104.846 44.5122Z" fill="white"/>
</g>
<mask id="mask11_5567_152901" style="mask-type:alpha" maskUnits="userSpaceOnUse" x="152" y="62" width="3" height="9">
<path fill-rule="evenodd" clip-rule="evenodd" d="M153.035 62.1308L152.016 62.26L153.099 70.3942L154.116 70.2666C154.436 70.2247 154.662 69.9355 154.62 69.6225L153.69 62.628C153.651 62.3377 153.4 62.1262 153.109 62.1262C153.084 62.1262 153.059 62.1274 153.035 62.1308Z" fill="white"/>
</mask>
<g mask="url(#mask11_5567_152901)">
<path d="M148.478 58.1189L158.973 58.6791L158.132 74.4224L147.637 73.8622L148.478 58.1189Z" fill="#252528"/>
</g>
<mask id="mask12_5567_152901" style="mask-type:alpha" maskUnits="userSpaceOnUse" x="153" y="71" width="3" height="9">
<path fill-rule="evenodd" clip-rule="evenodd" d="M154.392 71.6995C154.39 71.6995 154.389 71.6995 154.386 71.7001L153.472 71.8129L154.324 79.1227L155.238 79.0104C155.526 78.9753 155.731 78.7173 155.697 78.4338L154.967 72.1492C154.937 71.8883 154.713 71.6956 154.453 71.6956C154.433 71.6956 154.412 71.6967 154.392 71.6995Z" fill="white"/>
</mask>
<g mask="url(#mask12_5567_152901)">
<path d="M156.964 67.2029L147.963 70.0005L152.16 83.5013L161.16 80.7037L156.964 67.2029Z" fill="#252528"/>
</g>
<mask id="mask13_5567_152901" style="mask-type:alpha" maskUnits="userSpaceOnUse" x="121" y="50" width="10" height="3">
<path fill-rule="evenodd" clip-rule="evenodd" d="M129.178 50.3355L122.396 51.2603C122.395 51.2603 122.392 51.2608 122.391 51.2614C121.982 51.3198 121.692 51.711 121.743 52.1397L121.763 52.2922C121.816 52.7197 122.194 53.0219 122.608 52.9658L129.39 52.0393C129.801 51.9826 130.093 51.5891 130.041 51.1605L130.021 51.0091C129.973 50.6156 129.652 50.3281 129.28 50.3281C129.247 50.3281 129.212 50.331 129.178 50.3355Z" fill="white"/>
</mask>
<g mask="url(#mask13_5567_152901)">
<path d="M118.3 45.9822L134.044 46.8225L133.484 57.3182L117.74 56.4779L118.3 45.9822Z" fill="#252528"/>
</g>
<mask id="mask14_5567_152901" style="mask-type:alpha" maskUnits="userSpaceOnUse" x="131" y="49" width="3" height="4">
<path fill-rule="evenodd" clip-rule="evenodd" d="M132.554 49.7696C132.551 49.7685 132.549 49.7691 132.547 49.7696C131.934 49.8553 131.504 50.4166 131.583 51.0307C131.664 51.6487 132.228 52.0836 132.845 52.0019C133.463 51.9225 133.897 51.3578 133.816 50.7409C133.743 50.1734 133.259 49.76 132.701 49.76C132.653 49.76 132.603 49.7628 132.554 49.7696Z" fill="white"/>
</mask>
<g mask="url(#mask14_5567_152901)">
<path d="M128.087 45.7527L137.833 46.2732L137.313 56.0188L127.566 55.4983L128.087 45.7527Z" fill="#252528"/>
</g>
<mask id="mask15_5567_152901" style="mask-type:alpha" maskUnits="userSpaceOnUse" x="107" y="59" width="46" height="77">
<path fill-rule="evenodd" clip-rule="evenodd" d="M107.772 61.0497L116.696 129.476C117.148 132.945 120.339 135.395 123.825 134.95L152.017 131.361C118.558 131.375 108.779 66.1873 107.804 59.0176C107.699 59.6628 107.68 60.3472 107.772 61.0497Z" fill="white"/>
</mask>
<g mask="url(#mask15_5567_152901)">
<path d="M104.215 55.0667L159.691 58.0287L155.288 140.494L99.812 137.532L104.215 55.0667Z" fill="#C3DFF8"/>
</g>
<mask id="mask16_5567_152901" style="mask-type:alpha" maskUnits="userSpaceOnUse" x="116" y="114" width="26" height="17">
<path fill-rule="evenodd" clip-rule="evenodd" d="M136.998 115.056C134.354 116.419 126.262 122.09 126.262 122.09L120.069 125.534L116.599 126.825L116.19 130.777L125.027 125.97L141.956 115.491C141.956 115.491 140.738 114.545 139.06 114.545C138.425 114.545 137.723 114.681 136.998 115.056Z" fill="white"/>
</mask>
<g mask="url(#mask16_5567_152901)">
<path d="M114.763 108.858L146.055 111.606L143.456 136.708L112.164 133.96L114.763 108.858Z" fill="#C3E0FF"/>
</g>
<mask id="mask17_5567_152901" style="mask-type:alpha" maskUnits="userSpaceOnUse" x="120" y="77" width="11" height="10">
<path fill-rule="evenodd" clip-rule="evenodd" d="M128.502 77.239L121.322 78.2487C121.035 78.2885 120.835 78.5541 120.875 78.8406L121.884 86.0208C121.925 86.3082 122.191 86.5075 122.476 86.4674L129.656 85.4578C129.944 85.418 130.144 85.1532 130.103 84.8658L129.911 83.5037C129.871 83.2173 129.606 83.0181 129.32 83.058C129.033 83.0989 128.832 83.3635 128.874 83.6501L128.992 84.4927L122.85 85.3561L121.987 79.2137L128.128 78.3503L128.305 79.6009C128.345 79.8873 128.61 80.0874 128.897 80.0475C129.183 80.0075 129.383 79.7411 129.343 79.4545L129.094 77.6857C129.061 77.4458 128.869 77.2667 128.639 77.2385C128.595 77.2331 128.549 77.2327 128.502 77.239Z" fill="white"/>
</mask>
<g mask="url(#mask17_5567_152901)">
<path fill-rule="evenodd" clip-rule="evenodd" d="M116.736 75.2572L132.085 73.1002L134.243 88.4493L118.893 90.6062L116.736 75.2572Z" fill="#117367"/>
</g>
<mask id="mask18_5567_152901" style="mask-type:alpha" maskUnits="userSpaceOnUse" x="123" y="80" width="5" height="4">
<path fill-rule="evenodd" clip-rule="evenodd" d="M126.342 80.1061L124.188 80.409C123.901 80.4497 123.701 80.7137 123.741 81.001L124.044 83.1548C124.084 83.4413 124.35 83.6414 124.636 83.6014L126.791 83.2986C127.077 83.2578 127.277 82.993 127.237 82.7057L126.934 80.5519C126.9 80.3128 126.709 80.1339 126.479 80.1057C126.435 80.1003 126.388 80.0997 126.342 80.1061ZM124.853 81.3741L125.969 81.2175L126.125 82.3326L125.009 82.4901L124.853 81.3741Z" fill="white"/>
</mask>
<g mask="url(#mask18_5567_152901)">
<path fill-rule="evenodd" clip-rule="evenodd" d="M119.602 77.4173L129.926 75.9672L131.376 86.2897L121.053 87.7408L119.602 77.4173Z" fill="#117367"/>
</g>
<mask id="mask19_5567_152901" style="mask-type:alpha" maskUnits="userSpaceOnUse" x="122" y="89" width="10" height="10">
<path fill-rule="evenodd" clip-rule="evenodd" d="M130.178 89.1661L122.998 90.1749C122.711 90.2156 122.511 90.4804 122.552 90.7678L123.56 97.9479C123.601 98.2345 123.866 98.4337 124.152 98.3937L131.333 97.3841C131.62 97.3442 131.819 97.0794 131.779 96.7921L130.771 89.6119C130.736 89.3719 130.545 89.193 130.315 89.1648C130.27 89.1593 130.224 89.1597 130.178 89.1661ZM123.663 91.14L129.805 90.2766L130.668 96.419L124.526 97.2824L123.663 91.14Z" fill="white"/>
</mask>
<g mask="url(#mask19_5567_152901)">
<path fill-rule="evenodd" clip-rule="evenodd" d="M118.412 87.1837L133.761 85.0267L135.918 100.376L120.569 102.533L118.412 87.1837Z" fill="#117367"/>
</g>
<mask id="mask20_5567_152901" style="mask-type:alpha" maskUnits="userSpaceOnUse" x="132" y="75" width="11" height="10">
<path fill-rule="evenodd" clip-rule="evenodd" d="M140.464 75.5582L133.283 76.567C132.997 76.607 132.798 76.8727 132.838 77.1599L133.847 84.3394C133.887 84.6267 134.153 84.8259 134.439 84.786L141.62 83.7764C141.906 83.7364 142.105 83.4716 142.065 83.1851L141.057 76.0041C141.023 75.7642 140.832 75.5861 140.602 75.5579C140.556 75.5523 140.51 75.5519 140.464 75.5582ZM133.949 77.533L140.091 76.6697L140.955 82.8113L134.811 83.6745L133.949 77.533Z" fill="white"/>
</mask>
<g mask="url(#mask20_5567_152901)">
<path fill-rule="evenodd" clip-rule="evenodd" d="M128.698 73.576L144.047 71.4191L146.204 86.7681L130.855 88.925L128.698 73.576Z" fill="#117367"/>
</g>
<mask id="mask21_5567_152901" style="mask-type:alpha" maskUnits="userSpaceOnUse" x="134" y="87" width="10" height="10">
<path fill-rule="evenodd" clip-rule="evenodd" d="M142.14 87.4845L134.96 88.4932C134.673 88.534 134.473 88.7988 134.513 89.0852L135.523 96.2664C135.563 96.5528 135.828 96.7521 136.116 96.7122L143.296 95.7035C143.582 95.6635 143.782 95.3978 143.742 95.1105L142.732 87.9303C142.699 87.6912 142.507 87.5114 142.278 87.4832C142.232 87.4777 142.187 87.4773 142.14 87.4845ZM135.625 89.4592L141.767 88.5959L142.63 94.7383L136.488 95.6016L135.625 89.4592Z" fill="white"/>
</mask>
<g mask="url(#mask21_5567_152901)">
<path fill-rule="evenodd" clip-rule="evenodd" d="M130.375 85.5026L145.724 83.3449L147.881 98.6947L132.532 100.852L130.375 85.5026Z" fill="#117367"/>
</g>
<mask id="mask22_5567_152901" style="mask-type:alpha" maskUnits="userSpaceOnUse" x="124" y="76" width="19" height="22">
<path fill-rule="evenodd" clip-rule="evenodd" d="M130.834 76.8537C130.547 76.8935 130.348 77.1584 130.388 77.4448L131.67 86.5688L124.779 87.5371C124.493 87.577 124.293 87.8427 124.333 88.1283C124.373 88.4156 124.639 88.6149 124.925 88.5749L131.816 87.6075L133.082 96.6094C133.122 96.8959 133.387 97.0959 133.674 97.0551C133.96 97.0152 134.16 96.7496 134.119 96.4639L132.854 87.4603L141.957 86.1816C142.244 86.1416 142.444 85.876 142.403 85.5886C142.363 85.3031 142.097 85.1029 141.811 85.1437L132.709 86.4226L131.427 77.2995C131.393 77.0596 131.201 76.8797 130.972 76.8516C130.927 76.846 130.881 76.8465 130.834 76.8537Z" fill="white"/>
</mask>
<g mask="url(#mask22_5567_152901)">
<path fill-rule="evenodd" clip-rule="evenodd" d="M118.838 74.9032L144.039 71.3617L147.881 98.6942L122.68 102.236L118.838 74.9032Z" fill="#117367"/>
</g>
<mask id="mask23_5567_152901" style="mask-type:alpha" maskUnits="userSpaceOnUse" x="125" y="92" width="4" height="4">
<path fill-rule="evenodd" clip-rule="evenodd" d="M128.024 92.0701L125.87 92.3729C125.583 92.4145 125.383 92.6784 125.423 92.9649L125.727 95.1196C125.766 95.4069 126.031 95.6061 126.318 95.5662L128.472 95.2633C128.76 95.2226 128.959 94.9578 128.918 94.6713L128.616 92.5167C128.583 92.2768 128.39 92.0978 128.161 92.0696C128.116 92.0641 128.071 92.0637 128.024 92.0701ZM126.535 93.3389L127.65 93.1813L127.808 94.2974L126.692 94.4549L126.535 93.3389Z" fill="white"/>
</mask>
<g mask="url(#mask23_5567_152901)">
<path fill-rule="evenodd" clip-rule="evenodd" d="M121.284 89.3823L131.607 87.9313L133.058 98.2547L122.735 99.7049L121.284 89.3823Z" fill="#117367"/>
</g>
<mask id="mask24_5567_152901" style="mask-type:alpha" maskUnits="userSpaceOnUse" x="135" y="78" width="5" height="4">
<path fill-rule="evenodd" clip-rule="evenodd" d="M138.304 78.4254L136.15 78.7274C135.864 78.7683 135.664 79.033 135.704 79.3195L136.007 81.4741C136.048 81.7607 136.312 81.9598 136.599 81.9199L138.754 81.618C139.04 81.5771 139.24 81.3116 139.2 81.0251L138.897 78.8713C138.863 78.6313 138.672 78.4515 138.442 78.4233C138.398 78.4179 138.351 78.4182 138.304 78.4254ZM136.815 79.6926L137.93 79.5367L138.088 80.6519L136.973 80.8095L136.815 79.6926Z" fill="white"/>
</mask>
<g mask="url(#mask24_5567_152901)">
<path fill-rule="evenodd" clip-rule="evenodd" d="M131.565 75.7363L141.888 74.2853L143.339 84.6088L133.015 86.0597L131.565 75.7363Z" fill="#117367"/>
</g>
<mask id="mask25_5567_152901" style="mask-type:alpha" maskUnits="userSpaceOnUse" x="137" y="90" width="4" height="4">
<path fill-rule="evenodd" clip-rule="evenodd" d="M139.985 90.3903L137.832 90.6924C137.545 90.7323 137.346 90.998 137.386 91.2844L137.688 93.439C137.728 93.7255 137.993 93.9247 138.281 93.8849L140.435 93.582C140.721 93.542 140.921 93.2764 140.88 92.9899L140.577 90.8361C140.544 90.5953 140.353 90.4173 140.124 90.3891C140.079 90.3836 140.033 90.3832 139.985 90.3903ZM138.496 91.6583L139.612 91.5008L139.769 92.6168L138.653 92.7734L138.496 91.6583Z" fill="white"/>
</mask>
<g mask="url(#mask25_5567_152901)">
<path fill-rule="evenodd" clip-rule="evenodd" d="M133.246 87.7014L143.569 86.2504L145.019 96.5738L134.696 98.0239L133.246 87.7014Z" fill="#117367"/>
</g>
<mask id="mask26_5567_152901" style="mask-type:alpha" maskUnits="userSpaceOnUse" x="122" y="87" width="2" height="2">
<path fill-rule="evenodd" clip-rule="evenodd" d="M122.564 87.8503L122.537 87.86C122.267 87.9659 122.133 88.269 122.238 88.5392C122.328 88.7705 122.564 88.9022 122.8 88.869C122.839 88.8635 122.879 88.8527 122.917 88.8384L122.944 88.8271C123.214 88.7221 123.347 88.4181 123.242 88.1487C123.17 87.9619 123.003 87.8412 122.817 87.8184C122.735 87.8083 122.647 87.8183 122.564 87.8503Z" fill="white"/>
</mask>
<g mask="url(#mask26_5567_152901)">
<path fill-rule="evenodd" clip-rule="evenodd" d="M118.067 84.8322L126.264 83.6797L127.413 91.8564L119.217 93.008L118.067 84.8322Z" fill="#117367"/>
</g>
<mask id="mask27_5567_152901" style="mask-type:alpha" maskUnits="userSpaceOnUse" x="128" y="81" width="2" height="2">
<path fill-rule="evenodd" clip-rule="evenodd" d="M128.931 81.049L128.903 81.0595C128.633 81.1645 128.499 81.4676 128.605 81.7379C128.694 81.9699 128.93 82.1008 129.166 82.0675C129.205 82.0629 129.243 82.0529 129.283 82.037L129.309 82.0264C129.579 81.9223 129.714 81.6184 129.608 81.3481C129.537 81.1623 129.369 81.0406 129.183 81.0178C129.1 81.0076 129.014 81.0161 128.931 81.049Z" fill="white"/>
</mask>
<g mask="url(#mask27_5567_152901)">
<path fill-rule="evenodd" clip-rule="evenodd" d="M124.434 78.0314L132.631 76.8789L133.78 85.0548L125.583 86.2073L124.434 78.0314Z" fill="#117367"/>
</g>
<path d="M137.422 71.187L144.373 70.3479L145.212 77.2983" stroke="#F2C263" stroke-width="1.71429" stroke-linecap="round" stroke-linejoin="round"/>
<path d="M125.704 102.538L118.753 103.377L117.914 96.4265" stroke="#F2C263" stroke-width="1.71429" stroke-linecap="round" stroke-linejoin="round"/>
<path d="M148.089 92.825L148.928 99.7763L141.977 100.615" stroke="#F2C263" stroke-width="1.71429" stroke-linecap="round" stroke-linejoin="round"/>
<path d="M116.738 81.1082L115.899 74.1578L122.85 73.3179" stroke="#F2C263" stroke-width="1.71429" stroke-linecap="round" stroke-linejoin="round"/>
<path d="M100.242 113.474C98.5478 114.743 97.4926 116.691 97.3525 118.803L95.7836 142.442C95.5772 145.55 94.7449 148.58 93.337 151.356L89.2354 160.292L113.5 167.097L117.97 158.977C120.465 156.602 122.564 153.844 124.191 150.807L130.434 139.154C131.168 137.784 132.075 136.513 133.132 135.374L144.065 123.587C145.056 122.519 145.542 121.076 145.402 119.626C145.16 117.161 143.182 115.224 140.71 115.037L140.321 115.008C139.099 114.916 137.886 115.267 136.904 115.996L124.223 125.393C123.36 126.033 122.418 126.555 121.421 126.946L113.22 130.317C111.334 131.092 110.521 124.541 110.521 124.541L108.253 106.964L100.242 113.474Z" fill="#F2CBA8"/>
<path d="M120.705 150.279C118.755 151.651 117.021 153.302 115.71 155.294C113.821 158.167 111.49 161.652 110.787 162.447C109.544 163.853 96.8793 161.365 91.9844 156.825C91.9844 156.825 94.0335 162.013 102.514 164.533C111.4 167.173 115.69 164.497 115.69 164.497L120.6 155.484C120.6 155.484 125.025 152.651 133.315 134.8C133.315 134.8 125.721 146.749 120.705 150.279Z" fill="#E79E5C"/>
<path d="M83.9278 161.551L86.2877 155.065C86.6647 154.03 87.8089 153.496 88.8437 153.873C88.8709 153.883 88.8981 153.894 88.9248 153.905L114.701 164.586C116.036 165.139 116.685 166.657 116.162 168.004L113.969 173.657C113.478 174.924 112.051 175.553 110.783 175.061C110.77 175.056 110.757 175.051 110.744 175.045L85.3113 164.673C84.0866 164.173 83.4753 162.795 83.9278 161.551Z" fill="#00AB4E"/>
<path opacity="0.5" d="M142.333 28.3954L140.586 31.5878L137.395 33.333C136.868 33.6218 136.868 34.3782 137.395 34.667L140.586 36.4122L142.333 39.6046C142.62 40.1318 143.378 40.1318 143.666 39.6046L145.412 36.4122L148.605 34.667C149.132 34.3782 149.132 33.6218 148.605 33.333L145.412 31.5878L143.666 28.3954C143.378 27.8682 142.62 27.8682 142.333 28.3954Z" fill="#E8AC00"/>
<path d="M165.5 91.2966L164.19 93.6908L161.797 94.9997C161.401 95.2163 161.401 95.7837 161.797 96.0003L164.19 97.3092L165.5 99.7034C165.715 100.099 166.284 100.099 166.499 99.7034L167.809 97.3092L170.203 96.0003C170.599 95.7837 170.599 95.2163 170.203 94.9997L167.809 93.6908L166.499 91.2966C166.284 90.9011 165.715 90.9011 165.5 91.2966Z" fill="#E8AC00"/>
<path d="M84.1662 76.4943L81.9828 80.4847L77.9943 82.6662C77.3352 83.0272 77.3352 83.9728 77.9943 84.3338L81.9828 86.5153L84.1662 90.5057C84.5253 91.1648 85.4728 91.1648 85.8319 90.5057L88.0153 86.5153L92.0057 84.3338C92.6648 83.9728 92.6648 83.0272 92.0057 82.6662L88.0153 80.4847L85.8319 76.4943C85.4728 75.8352 84.5253 75.8352 84.1662 76.4943Z" fill="#E8AC00"/>
<path fill-rule="evenodd" clip-rule="evenodd" d="M99.5553 44.2636L98.3908 46.3918L96.2636 47.5553C95.9121 47.7479 95.9121 48.2521 96.2636 48.4447L98.3908 49.6082L99.5553 51.7364C99.7468 52.0879 100.252 52.0879 100.444 51.7364L101.608 49.6082L103.736 48.4447C104.088 48.2521 104.088 47.7479 103.736 47.5553L101.608 46.3918L100.444 44.2636C100.252 43.9121 99.7468 43.9121 99.5553 44.2636Z" fill="#FFD37B"/>
</g>
</svg>
