<svg width="100" height="100" viewBox="0 0 100 100" fill="none" xmlns="http://www.w3.org/2000/svg">
<circle cx="50" cy="50" r="50" fill="#E6F6EA"/>
<mask id="mask0_5567_148443" style="mask-type:alpha" maskUnits="userSpaceOnUse" x="0" y="0" width="100" height="100">
<circle cx="50" cy="50" r="50" fill="#E6F6EA"/>
</mask>
<g mask="url(#mask0_5567_148443)">
<rect x="26" y="17" width="48" height="65" rx="4.11859" fill="#407972"/>
<path d="M29 21.3729C29 20.6147 29.6147 20 30.3729 20H68.6271C69.3853 20 70 20.6147 70 21.3729V75.8814C70 78.156 68.156 80 65.8814 80H30.3729C29.6147 80 29 79.3853 29 78.6271V21.3729Z" fill="white"/>
<path d="M36 17.3729C36 16.6147 36.6147 16 37.3729 16H62.6271C63.3853 16 64 16.6147 64 17.3729V18.8814C64 21.156 62.156 23 59.8814 23H40.1186C37.844 23 36 21.156 36 18.8814V17.3729Z" fill="#004D43"/>
<path fill-rule="evenodd" clip-rule="evenodd" d="M19 75.8794C19 78.1541 20.844 79.998 23.1186 79.998H70L65.096 79.9991C62.8211 79.9996 60.9766 78.1555 60.9766 75.8805V71.6864C60.9766 71.3073 60.6692 71 60.2901 71H19.6864C19.3073 71 19 71.3073 19 71.6864V75.8794Z" fill="#BBBDC0"/>
<path fill-rule="evenodd" clip-rule="evenodd" d="M47.9828 37.0389C51.4142 37.0389 54.5662 38.6012 55.9292 40.8911C56.7204 42.2209 55.8074 43.9382 54.2718 44.0494L53.7509 44.0839C52.483 44.1604 50.8463 44.2084 48.7941 44.2184L47.6162 44.22L46.3165 44.2118C44.3828 44.1912 42.8572 44.1339 41.6939 44.0494C40.1581 43.9382 39.2452 42.2209 40.0364 40.891C41.3993 38.6012 44.5513 37.0389 47.9828 37.0389ZM47.9829 27.7456C50.2166 27.7456 51.9956 29.7469 51.9956 32.1812C51.9956 34.6155 50.2166 36.6168 47.9829 36.6168C45.7491 36.6168 43.9701 34.6155 43.9701 32.1812C43.9701 29.7469 45.7491 27.7456 47.9829 27.7456Z" fill="#AE1E22"/>
<mask id="mask1_5567_148443" style="mask-type:alpha" maskUnits="userSpaceOnUse" x="39" y="27" width="18" height="18">
<path fill-rule="evenodd" clip-rule="evenodd" d="M47.9828 37.0389C51.4142 37.0389 54.5662 38.6012 55.9292 40.8911C56.7204 42.2209 55.8074 43.9382 54.2718 44.0494L53.7509 44.0839C52.483 44.1604 50.8463 44.2084 48.7941 44.2184L47.6162 44.22L46.3165 44.2118C44.3828 44.1912 42.8572 44.1339 41.6939 44.0494C40.1581 43.9382 39.2452 42.2209 40.0364 40.891C41.3993 38.6012 44.5513 37.0389 47.9828 37.0389ZM47.9829 27.7456C50.2166 27.7456 51.9956 29.7469 51.9956 32.1812C51.9956 34.6155 50.2166 36.6168 47.9829 36.6168C45.7491 36.6168 43.9701 34.6155 43.9701 32.1812C43.9701 29.7469 45.7491 27.7456 47.9829 27.7456Z" fill="white"/>
</mask>
<g mask="url(#mask1_5567_148443)">
<rect x="37" y="25" width="21.9658" height="21.9658" fill="#95CF72"/>
</g>
<rect x="34.7878" y="49.3213" width="14.4151" height="2.74573" rx="1.37286" fill="#99DCAB"/>
<rect x="53.5759" y="49.3213" width="10.2965" height="2.74573" rx="1.37286" fill="#99DCAB"/>
<rect x="34.7878" y="56.186" width="26.0844" height="2.74573" rx="1.37286" fill="#99DCAB"/>
<rect x="34.7878" y="63.0503" width="7.55075" height="2.74573" rx="1.37286" fill="#99DCAB"/>
<rect x="46.7114" y="63.0503" width="17.1608" height="2.74573" rx="1.37286" fill="#99DCAB"/>
<circle cx="58.0001" cy="38.9998" r="5.56818" stroke="#CACCCF" stroke-width="0.530303"/>
<mask id="mask2_5567_148443" style="mask-type:alpha" maskUnits="userSpaceOnUse" x="52" y="33" width="12" height="12">
<circle cx="58.0001" cy="38.9998" r="5.56818" fill="white" stroke="white" stroke-width="0.530303"/>
</mask>
<g mask="url(#mask2_5567_148443)">
<rect x="51" y="32" width="58.3333" height="58.3333" fill="#00AB4E"/>
</g>
<path fill-rule="evenodd" clip-rule="evenodd" d="M61.2752 36.5161L61.2212 36.4633C60.9241 36.1995 60.486 36.2171 60.2076 36.5161L57.0862 39.8693L55.7924 38.4794C55.4966 38.1617 55.0205 38.1617 54.7248 38.4794C54.4251 38.8014 54.4251 39.3265 54.7248 39.6485L56.3494 41.3937C56.7572 41.8318 57.4152 41.8318 57.823 41.3937L61.2752 37.6852C61.5562 37.3833 61.5738 36.903 61.3279 36.5788L61.2752 36.5161Z" fill="#009E3D"/>
<mask id="mask3_5567_148443" style="mask-type:alpha" maskUnits="userSpaceOnUse" x="54" y="36" width="8" height="6">
<path fill-rule="evenodd" clip-rule="evenodd" d="M61.2752 36.5161L61.2212 36.4633C60.9241 36.1995 60.486 36.2171 60.2076 36.5161L57.0862 39.8693L55.7924 38.4794C55.4966 38.1617 55.0205 38.1617 54.7248 38.4794C54.4251 38.8014 54.4251 39.3265 54.7248 39.6485L56.3494 41.3937C56.7572 41.8318 57.4152 41.8318 57.823 41.3937L61.2752 37.6852C61.5562 37.3833 61.5738 36.903 61.3279 36.5788L61.2752 36.5161Z" fill="white"/>
</mask>
<g mask="url(#mask3_5567_148443)">
<rect width="9.33333" height="9.33333" transform="translate(53.3333 34.3335)" fill="white"/>
<rect x="53.3333" y="34.3335" width="9.33333" height="9.33333" fill="white"/>
</g>
</g>
</svg>
