<svg width="328" height="164" viewBox="0 0 328 164" fill="none" xmlns="http://www.w3.org/2000/svg">
<path fill-rule="evenodd" clip-rule="evenodd" d="M23.2189 161.504C33.6809 163.667 265.053 165.826 301.876 161.504C312.777 160.224 321.503 148.276 322.776 146.203C330.736 133.238 327.751 53.2794 325.761 26.266C324.69 11.7278 309.838 5.19571 302.871 3.03482C289.548 -1.09779 53.2799 -1.26366 22.2229 4.11573C8.32787 6.52168 3.29087 17.8712 2.29087 24.1796C-0.0421274 38.8847 -1.42113 129.331 2.31887 141.514C5.30487 151.239 12.7689 159.343 23.2189 161.504Z" fill="#EDFFF5"/>
<mask id="mask0_5567_159220" style="mask-type:alpha" maskUnits="userSpaceOnUse" x="0" y="0" width="328" height="164">
<path fill-rule="evenodd" clip-rule="evenodd" d="M23.2189 161.504C33.6809 163.667 265.053 165.826 301.876 161.504C312.777 160.224 321.503 148.276 322.776 146.203C330.736 133.238 327.751 53.2794 325.761 26.266C324.69 11.7278 309.838 5.19571 302.871 3.03482C289.548 -1.09779 53.2799 -1.26366 22.2229 4.11573C8.32787 6.52168 3.29087 17.8712 2.29087 24.1796C-0.0421274 38.8847 -1.42113 129.331 2.31887 141.514C5.30487 151.239 12.7689 159.343 23.2189 161.504Z" fill="white"/>
</mask>
<g mask="url(#mask0_5567_159220)">
<rect y="139.86" width="347" height="46" fill="#EBFFE0"/>
<path d="M27.7446 115.204C27.7446 115.204 28.1596 103.149 38.1366 103.149C48.1116 103.149 47.6956 115.204 47.6956 115.204" stroke="#BBF0D3" stroke-width="2.91"/>
<path fill-rule="evenodd" clip-rule="evenodd" d="M136.035 143.375L129.541 128.053L116.299 119.619L114.569 119.793L112.047 113.841L98.8055 105.408L80.5205 107.254L77.2215 123.565L66.8445 124.613L63.5435 140.924L76.7855 149.358L77.5125 148.748L104.588 147.119L103.074 143.1L107.957 146.21L136.035 143.375Z" fill="#BBF0D3"/>
<path fill-rule="evenodd" clip-rule="evenodd" d="M315.925 141.36L310.458 128.461L299.311 121.361L297.854 121.507L295.731 116.497L284.583 109.396L269.191 110.951L266.413 124.683L257.677 125.565L254.899 139.296L266.047 146.396L266.658 145.882L289.452 144.512L288.177 141.128L292.288 143.746L315.925 141.36Z" fill="#BBF0D3"/>
<path fill-rule="evenodd" clip-rule="evenodd" d="M264.978 102.365C264.721 101.504 264.253 100.719 263.607 100.074C263.478 99.9448 263.343 99.8228 263.204 99.7078C262.924 99.4778 262.624 99.2768 262.31 99.1058C261.836 98.8488 261.328 98.6618 260.795 98.5518C260.441 98.4778 260.076 98.4388 259.705 98.4358L253.331 98.4058C253.348 98.3748 253.368 98.3458 253.385 98.3158C254.698 95.8938 254.571 92.9378 253.043 90.6408C251.6 88.4698 249.168 87.2388 246.514 87.3358C243.906 87.4538 241.572 88.8788 240.337 91.1928L237.598 96.1548L234.906 91.1578C233.657 88.8778 231.372 87.3988 228.71 87.2638C228.2 87.2528 227.702 87.2758 227.228 87.3678C225.193 87.6708 223.373 88.7928 222.207 90.5368C220.648 92.8138 220.496 95.7528 221.759 98.1838C221.779 98.2198 221.801 98.2548 221.822 98.2908L215.707 98.2678C214.222 98.2568 212.832 98.8338 211.8 99.8678C210.768 100.902 210.173 102.285 210.197 103.758L210.147 111.105C210.147 112.08 210.956 112.92 211.977 112.942L213.927 112.949V136.797C213.927 139.842 216.385 142.301 219.43 142.301H232.271H237.774H243.277H256.118C259.163 142.301 261.621 139.842 261.621 136.797V136.779V113.159C261.621 113.141 261.617 113.124 261.617 113.106L263.343 113.112C263.541 113.119 263.76 113.079 263.967 113.005C264.658 112.757 265.165 112.106 265.193 111.317L265.207 103.982C265.211 103.425 265.133 102.882 264.978 102.365Z" fill="#BBF0D3"/>
<path fill-rule="evenodd" clip-rule="evenodd" d="M49.646 145.963H22.515C19.205 145.963 16.521 143.279 16.521 139.969V117.872C16.521 114.562 19.205 111.878 22.515 111.878H49.646C52.957 111.878 55.64 114.562 55.64 117.872V139.969C55.64 143.279 52.957 145.963 49.646 145.963Z" fill="#BBF0D3"/>
<path fill-rule="evenodd" clip-rule="evenodd" d="M183.334 139.39H152.063C147.843 139.39 144.422 135.969 144.422 131.748V100.478C144.422 96.2574 147.843 92.8364 152.063 92.8364H183.334C187.555 92.8364 190.976 96.2574 190.976 100.478V131.748C190.976 135.969 187.555 139.39 183.334 139.39Z" fill="#BBF0D3"/>
<path fill-rule="evenodd" clip-rule="evenodd" d="M266.641 126.64L262.142 125.065C262.003 125.012 261.837 124.986 261.671 124.988L232.978 125.346C232.203 125.356 231.603 125.972 231.613 126.745L231.855 146.188C231.884 148.482 233.759 150.311 236.053 150.283L263.697 149.938C265.992 149.909 267.821 148.034 267.791 145.74L267.57 127.928C267.562 127.348 267.197 126.827 266.641 126.64Z" fill="#FFC54F"/>
<path fill-rule="evenodd" clip-rule="evenodd" d="M267.791 145.739C267.82 148.029 265.986 149.908 263.696 149.937L249.875 150.11L249.563 125.138L265.916 124.853C266.709 124.839 267.436 125.396 267.537 126.182C267.545 126.243 267.791 145.739 267.791 145.739Z" fill="#DF9F1C"/>
<path fill-rule="evenodd" clip-rule="evenodd" d="M245.417 125.19L245.729 150.161L254.021 150.058L253.71 125.086L245.417 125.19Z" fill="#3393E3"/>
<path fill-rule="evenodd" clip-rule="evenodd" d="M266.87 111.725C266.377 109.823 264.948 108.348 263.033 107.764C261.146 107.206 259.133 107.646 257.684 108.992L254.513 111.851L253.824 107.63C253.496 105.699 252.232 104.083 250.37 103.332C250.01 103.199 249.648 103.092 249.288 103.041C247.765 102.756 246.192 103.108 244.932 104.064C243.262 105.301 242.431 107.357 242.732 109.399C243.061 111.441 244.466 113.165 246.437 113.832L249.436 114.873L253.13 116.182H253.157L259.572 118.451C260.211 118.664 260.876 118.767 261.512 118.759C262.866 118.742 264.186 118.228 265.225 117.275C266.756 115.873 267.392 113.736 266.87 111.725Z" fill="#3393E3"/>
<path fill-rule="evenodd" clip-rule="evenodd" d="M272.252 124.219L270.437 129.44C270.223 129.995 269.701 130.334 269.148 130.341C268.982 130.343 268.816 130.317 268.678 130.263L254.321 125.245L252.969 120.976L249.522 121.793L246.49 122.523L232.134 117.504C231.411 117.237 231.042 116.439 231.282 115.745L233.125 110.525C233.471 109.469 234.235 108.63 235.225 108.148C236.214 107.666 237.346 107.596 238.401 107.97L249.398 111.814L250.147 112.081C250.147 112.081 253.201 117.462 253.284 117.461C253.34 117.461 254.52 116.782 255.673 116.132C256.825 115.482 257.979 114.803 257.979 114.803L269.697 118.915C270.752 119.289 271.592 120.052 272.073 121.042C272.556 122.031 272.625 123.164 272.252 124.219Z" fill="#FFD37B"/>
<path fill-rule="evenodd" clip-rule="evenodd" d="M272.251 124.219L270.436 129.44C270.222 129.995 269.7 130.334 269.147 130.341C268.981 130.343 268.815 130.317 268.677 130.263L254.32 125.245L252.968 120.976L249.521 121.793L249.396 111.814L250.146 112.081C250.146 112.081 253.2 117.462 253.283 117.461C253.338 117.461 254.519 116.782 255.672 116.132C256.824 115.482 257.978 114.803 257.978 114.803L269.696 118.915C270.751 119.289 271.591 120.052 272.072 121.042C272.555 122.031 272.624 123.164 272.251 124.219Z" fill="#FFC54F"/>
<path fill-rule="evenodd" clip-rule="evenodd" d="M250.147 112.082L249.426 114.137L246.49 122.523L249.544 123.591L253.015 124.792L254.321 125.246L257.978 114.804L250.147 112.082Z" fill="#3393E3"/>
<path fill-rule="evenodd" clip-rule="evenodd" d="M175.007 110.101C174.285 109.933 174.14 108.952 174.783 108.585C175.994 107.895 176.841 107.23 177.324 106.589C177.832 105.915 178.266 104.837 178.624 103.352C178.8 102.623 179.765 102.477 180.147 103.122C180.944 104.468 181.664 105.396 182.309 105.907C182.925 106.396 183.871 106.821 185.147 107.18C185.843 107.375 185.992 108.308 185.368 108.674C184.255 109.329 183.462 109.973 182.986 110.605C182.495 111.259 182.058 112.285 181.675 113.682C181.479 114.395 180.535 114.521 180.157 113.886C179.425 112.658 178.707 111.791 178.003 111.287C177.331 110.805 176.332 110.41 175.007 110.101Z" fill="#FFD37B"/>
<path fill-rule="evenodd" clip-rule="evenodd" d="M194.392 93.3813L187.377 137.653C186.936 140.439 188.835 143.057 191.621 143.5L210.737 146.539C213.526 146.983 216.146 145.08 216.587 142.292L223.602 98.0273C224.037 95.2413 222.481 92.6793 220.126 92.3053L199.446 89.0163C199.435 89.0143 199.425 89.0133 199.414 89.0113C197.071 88.6593 194.826 90.6093 194.392 93.3813Z" fill="#3393E3"/>
<path fill-rule="evenodd" clip-rule="evenodd" d="M196.068 94.7474L189.396 136.999C189.058 139.141 190.518 141.152 192.659 141.492L210.414 144.318C212.559 144.659 214.574 143.195 214.914 141.05L221.585 98.8074C221.886 96.8744 220.885 95.1094 219.347 94.8644L216.02 94.3354C215.593 94.2674 215.229 94.1464 215.045 94.6494L214.839 95.2104C214.656 95.7144 214.227 96.0204 213.8 95.9534L204.34 94.4474C203.915 94.3804 203.599 93.9554 203.578 93.4184L203.554 92.8224C203.535 92.3364 203.223 92.2924 202.849 92.2384C202.809 92.2324 202.768 92.2264 202.727 92.2204L199.401 91.6894C199.395 91.6884 199.388 91.6874 199.381 91.6864C197.85 91.4564 196.37 92.8234 196.068 94.7474Z" fill="#EDFFF5"/>
<path fill-rule="evenodd" clip-rule="evenodd" d="M192.749 98.6613L192.079 102.908C192.048 103.098 192.18 103.278 192.371 103.309L192.978 103.404L193.757 98.4653L193.148 98.3693C193.148 98.3693 193.146 98.3693 193.145 98.3693C192.956 98.3403 192.778 98.4713 192.749 98.6613Z" fill="#3392E2"/>
<path fill-rule="evenodd" clip-rule="evenodd" d="M221.566 108.351L222.173 108.447C222.365 108.476 222.545 108.346 222.574 108.155L223.244 103.909C223.274 103.717 223.144 103.538 222.953 103.507L222.344 103.412L221.566 108.351Z" fill="#3392E2"/>
<path fill-rule="evenodd" clip-rule="evenodd" d="M191.842 104.412L191.173 108.659C191.143 108.85 191.272 109.03 191.463 109.06L192.071 109.156L192.851 104.216L192.243 104.12C192.241 104.12 192.24 104.12 192.239 104.12C192.05 104.091 191.871 104.222 191.842 104.412Z" fill="#3392E2"/>
<path fill-rule="evenodd" clip-rule="evenodd" d="M206.167 92.3167L206.154 92.4037C206.115 92.6487 206.283 92.8787 206.528 92.9177L210.552 93.5517C210.796 93.5897 211.026 93.4227 211.065 93.1777L211.078 93.0897C211.117 92.8447 210.95 92.6147 210.704 92.5767L206.682 91.9417C206.681 91.9417 206.68 91.9417 206.679 91.9417C206.436 91.9047 206.207 92.0717 206.167 92.3167Z" fill="#1868A7"/>
<path fill-rule="evenodd" clip-rule="evenodd" d="M212.055 93.2376C212 93.5836 212.237 93.9086 212.583 93.9636C212.93 94.0176 213.254 93.7816 213.309 93.4356C213.365 93.0896 213.127 92.7636 212.781 92.7096C212.779 92.7086 212.778 92.7086 212.776 92.7086C212.431 92.6576 212.11 92.8926 212.055 93.2376Z" fill="#1868A7"/>
<path fill-rule="evenodd" clip-rule="evenodd" d="M196.442 93.5435C196.267 93.9095 196.136 94.3125 196.068 94.7475L189.396 136.999C189.058 139.14 190.518 141.152 192.659 141.492L209.972 144.247C190.167 138.452 195.766 97.9775 196.442 93.5435Z" fill="#C4E4FF"/>
<path fill-rule="evenodd" clip-rule="evenodd" d="M231.086 8.28418C231.086 8.28418 231.337 23.3196 233.134 23.5446C235.451 23.8338 245.284 12.9606 245.284 12.9606C245.284 12.9606 232.335 8.74138 231.086 8.28418Z" fill="#97D4CC"/>
<path fill-rule="evenodd" clip-rule="evenodd" d="M246.688 13.4229C246.688 13.4229 248.271 28.3689 250.075 28.4277C252.408 28.5099 261.23 16.8027 261.23 16.8027C261.23 16.8027 247.975 13.7679 246.688 13.4229Z" fill="#BBF0D3"/>
<path fill-rule="evenodd" clip-rule="evenodd" d="M262.685 17.0591C262.685 17.0591 265.614 31.8077 267.421 31.7075C269.752 31.5875 277.487 19.1237 277.487 19.1237C277.487 19.1237 264.008 17.2949 262.685 17.0591Z" fill="#97D4CC"/>
<path fill-rule="evenodd" clip-rule="evenodd" d="M278.157 19.2603C278.157 19.2603 281.944 33.8145 283.736 33.6057C286.059 33.3387 293.047 20.4549 293.047 20.4549C293.047 20.4549 279.479 19.4127 278.157 19.2603Z" fill="#BBF0D3"/>
<path fill-rule="evenodd" clip-rule="evenodd" d="M294.025 20.2151C294.025 20.2151 299.287 34.3157 301.071 33.9005C303.357 33.3971 308.972 19.8569 308.972 19.8569C308.972 19.8569 295.357 20.2307 294.025 20.2151Z" fill="#97D4CC"/>
<path fill-rule="evenodd" clip-rule="evenodd" d="M309.844 19.7716C309.844 19.7716 316.169 33.4132 317.917 32.8954C320.152 32.2222 324.733 18.2944 324.733 18.2944C324.733 18.2944 311.176 19.6858 309.844 19.7716Z" fill="#BBF0D3"/>
<path fill-rule="evenodd" clip-rule="evenodd" d="M216.15 1.91162C216.15 1.91162 215.218 16.92 216.992 17.289C219.281 17.76 229.937 7.69262 229.937 7.69262C229.937 7.69262 217.357 2.47442 216.15 1.91162Z" fill="#BBF0D3"/>
<path fill-rule="evenodd" clip-rule="evenodd" d="M339.356 15.8622L338.985 15.9468L337.9 16.188L336.13 16.5696L335.001 16.8156L333.705 17.067L330.668 17.637L327.036 18.2274C326.385 18.336 325.707 18.429 325.014 18.5142L322.848 18.8118C322.478 18.8598 322.104 18.9156 321.721 18.9618L320.558 19.0926L318.123 19.3542C310.379 20.145 302.594 20.4654 294.812 20.313C290.419 20.2044 285.818 19.9734 281.046 19.5456C276.274 19.1172 271.376 18.465 266.381 17.6094L262.659 16.953L258.999 16.2162L258.094 16.0308L257.198 15.828L255.411 15.4248L253.641 15.0222L251.892 14.58C250.735 14.2824 249.581 14.0136 248.45 13.6938L245.092 12.756C243.984 12.4434 242.901 12.0942 241.823 11.7702L240.22 11.2782L238.664 10.761C234.474 9.42178 230.568 7.89958 226.95 6.46378C223.337 4.97578 220.005 3.50218 217.025 2.03398L214.843 0.973185C214.112 0.625185 213.455 0.262184 212.786 -0.0804157C211.469 -0.789616 210.201 -1.40822 209.066 -2.08502C207.929 -2.76122 206.833 -3.31502 205.854 -3.88382L203.2 -5.46542C202.791 -5.68562 202.419 -5.92322 202.069 -6.14342L201.094 -6.76082L199.571 -7.73282L198.632 -8.33102L198.318 -8.54102L198.648 -8.36282L199.594 -7.77542L201.128 -6.81542L202.107 -6.20522C202.449 -5.98862 202.838 -5.77142 203.237 -5.53322L205.902 -3.96362C206.882 -3.39902 207.962 -2.82182 209.115 -2.17742C210.269 -1.53302 211.519 -0.882015 212.85 -0.201015C213.509 0.152985 214.188 0.518984 214.907 0.846584L217.09 1.90378C220.075 3.35638 223.413 4.81078 227.019 6.30898C230.649 7.74118 234.547 9.24479 238.73 10.5858L240.287 11.103L241.892 11.5914C242.967 11.9136 244.049 12.2628 245.157 12.5754L248.512 13.5114C249.641 13.8258 250.795 14.0946 251.952 14.3916L253.697 14.832L255.453 15.2868L257.237 15.6882L258.137 15.8934L259.042 16.0782L262.698 16.8132L266.414 17.4714C271.415 18.3072 276.321 18.9366 281.072 19.4034C285.822 19.8702 290.435 20.0658 294.825 20.178C302.603 20.3388 310.382 20.0304 318.122 19.2528L320.538 18.9852L321.713 18.8652L322.841 18.7158L325 18.429C325.693 18.3438 326.375 18.2526 327.022 18.1422L330.657 17.5626L333.709 17.0088L334.995 16.7844C335.396 16.6974 335.772 16.62 336.123 16.548L337.896 16.1772L338.987 15.9522C339.227 15.8802 339.356 15.8622 339.356 15.8622Z" fill="#E9FFF1"/>
<path fill-rule="evenodd" clip-rule="evenodd" d="M209.958 -1.20436L208.892 -1.77916L207.7 -2.42116C206.989 -2.80456 206.309 -3.19396 205.673 -3.56416L202.595 -5.39716C202.338 -5.53516 202.093 -5.66716 201.881 -5.82736L198.44 -8.01676C198.212 -8.13916 198.101 -8.24056 198.101 -8.24056L198.409 -8.72656L198.737 -8.52616L202.199 -6.36676C202.427 -6.24436 202.657 -6.09256 202.893 -5.95216L205.981 -4.13656C206.599 -3.77596 207.266 -3.41236 207.966 -3.02596L209.193 -2.36476C210.085 -1.85656 211.043 -1.36816 212.039 -0.831762L212.899 -0.367963L213.611 0.0154371C214.037 0.245237 214.475 0.481038 214.937 0.688638L217.121 1.74584C219.825 3.06104 222.981 4.44464 227.032 6.14144C230.44 7.48184 234.458 9.04544 238.723 10.4122L241.895 11.4238L243.038 11.773C243.734 11.9878 244.44 12.2026 245.153 12.4036L248.508 13.3396C249.234 13.5424 249.97 13.7272 250.71 13.9108L251.943 14.2216L255.45 15.061L259.031 15.8518L262.687 16.5874L266.399 17.2432C271.185 18.0454 276.11 18.6898 281.036 19.1638C285.446 19.5568 290.066 19.8208 294.77 19.9414C302.535 20.0962 310.302 19.7872 318.03 19.015L323.374 18.3886L325.17 18.1486C325.769 18.0676 326.346 17.9932 326.903 17.8948L330.54 17.3206L335.988 16.2868L338.852 15.6916L339.233 15.6214L339.354 16.1824L338.975 16.2718L333.69 17.3842L330.65 17.9584L327.01 18.5482C326.448 18.6454 325.859 18.7264 325.254 18.8092L322.426 19.195C322.181 19.2322 321.93 19.2628 321.684 19.2952L318.105 19.6936C310.347 20.4862 302.548 20.8078 294.751 20.6566C290.033 20.5378 285.396 20.2786 280.969 19.8844C276.021 19.417 271.077 18.7726 266.271 17.9674L262.545 17.3092L253.592 15.3346L251.839 14.8906L250.599 14.5762C249.855 14.3908 249.118 14.209 248.388 14.0044L245.03 13.0666C244.31 12.862 243.599 12.64 242.889 12.4228L241.76 12.0754L238.571 11.0596C234.276 9.66344 230.269 8.11484 226.844 6.75524C222.776 5.06384 219.616 3.65504 216.9 2.31584L214.719 1.25504C214.251 1.03124 213.801 0.793037 213.359 0.559037L212.648 0.175637L211.801 -0.280362C211.16 -0.571362 210.549 -0.886363 209.958 -1.20436Z" fill="#84D7CC"/>
<path fill-rule="evenodd" clip-rule="evenodd" d="M130.717 116.256L130.127 108.94C130.077 108.319 129.534 107.858 128.915 107.908L125.176 108.209C124.557 108.259 124.095 108.802 124.145 109.422L124.734 116.738" fill="#84D7CC"/>
<path fill-rule="evenodd" clip-rule="evenodd" d="M127.452 116.52L126.772 108.082L125.177 108.21C124.557 108.26 124.096 108.803 124.145 109.422L124.734 116.739" fill="#47A99C"/>
<path fill-rule="evenodd" clip-rule="evenodd" d="M164.339 144.268L127.463 147.239C124.682 147.463 122.235 145.382 122.012 142.601L120.09 118.75C119.866 115.969 121.946 113.523 124.729 113.299L133.919 112.558L134.597 109.805C135.024 108.071 136.506 106.81 138.285 106.667L147.161 105.952C148.941 105.809 150.606 106.816 151.305 108.459L152.414 111.068L161.605 110.328C164.387 110.103 166.832 112.184 167.056 114.966L168.978 138.816C169.202 141.599 167.121 144.044 164.339 144.268Z" fill="#28D677"/>
<path fill-rule="evenodd" clip-rule="evenodd" d="M161.605 110.328L152.415 111.069L151.305 108.459C150.606 106.816 148.941 105.809 147.162 105.952L138.286 106.667C136.506 106.811 135.024 108.072 134.597 109.806L133.919 112.558L124.729 113.299C121.947 113.523 119.867 115.969 120.09 118.751L120.55 124.464L167.517 120.68L167.056 114.967C166.833 112.185 164.387 110.104 161.605 110.328Z" fill="#00AB4E"/>
<path fill-rule="evenodd" clip-rule="evenodd" d="M140.005 113.134L145.53 112.689C146.257 112.631 146.799 111.994 146.74 111.268L146.623 109.821C146.565 109.094 145.929 108.552 145.202 108.611L139.677 109.056C138.95 109.114 138.409 109.751 138.468 110.477L138.584 111.925C138.643 112.651 139.279 113.193 140.005 113.134Z" fill="#EDFFF5"/>
<path fill-rule="evenodd" clip-rule="evenodd" d="M139.733 109.759C139.395 109.786 139.143 110.083 139.171 110.42L139.287 111.867C139.314 112.205 139.611 112.458 139.948 112.43L145.473 111.985C145.811 111.958 146.064 111.661 146.037 111.324L145.92 109.877C145.892 109.539 145.596 109.286 145.258 109.314L139.733 109.759ZM145.587 113.392L140.061 113.837C138.949 113.926 137.97 113.094 137.88 111.981L137.764 110.534C137.674 109.421 138.506 108.442 139.62 108.353L145.145 107.907C146.258 107.818 147.237 108.65 147.326 109.763L147.443 111.211C147.533 112.323 146.7 113.302 145.587 113.392Z" fill="#00883E"/>
<path fill-rule="evenodd" clip-rule="evenodd" d="M128.32 138.748C129.885 138.622 131.257 139.789 131.383 141.354C131.508 142.919 130.342 144.29 128.777 144.416C127.212 144.542 125.841 143.376 125.715 141.811C125.589 140.245 126.755 138.874 128.32 138.748Z" fill="#00AB4E"/>
<path fill-rule="evenodd" clip-rule="evenodd" d="M161.039 115.913C161.799 115.851 162.465 116.418 162.525 117.178C162.587 117.938 162.02 118.603 161.261 118.665C160.501 118.726 159.835 118.16 159.773 117.4C159.713 116.64 160.279 115.974 161.039 115.913Z" fill="#00883E"/>
<path fill-rule="evenodd" clip-rule="evenodd" d="M128.238 121.326L125.486 121.548C124.726 121.609 124.06 121.042 124 120.283C123.938 119.522 124.505 118.857 125.264 118.796L128.016 118.574C128.776 118.513 129.442 119.079 129.504 119.839C129.564 120.599 128.998 121.264 128.238 121.326Z" fill="#FFE7B8"/>
<path fill-rule="evenodd" clip-rule="evenodd" d="M157.835 127.712C157.244 120.378 150.796 114.892 143.462 115.482L145.606 142.085C152.939 141.494 158.426 135.046 157.835 127.712Z" fill="#00337A"/>
<path fill-rule="evenodd" clip-rule="evenodd" d="M145.606 142.085C138.272 142.676 131.825 137.19 131.233 129.856C130.642 122.522 136.128 116.074 143.462 115.483C150.796 114.892 157.245 120.378 157.835 127.712C158.426 135.046 152.94 141.494 145.606 142.085Z" fill="#00883E"/>
<path fill-rule="evenodd" clip-rule="evenodd" d="M145.347 138.874C139.784 139.322 134.892 135.16 134.444 129.597C133.995 124.033 138.158 119.141 143.721 118.693C149.285 118.245 154.176 122.407 154.624 127.971C155.073 133.534 150.91 138.426 145.347 138.874Z" fill="#00AB4E"/>
<path fill-rule="evenodd" clip-rule="evenodd" d="M155.165 144.801L169.456 137.557C172.333 136.099 176.562 136.154 178.901 137.68L183.652 140.78C184.855 141.564 185.324 142.585 185.105 143.59C185.105 143.59 184.997 146.262 184.994 146.306C184.928 147.369 184.087 148.447 182.522 149.24L168.231 156.484C165.354 157.943 161.126 157.887 158.786 156.361L154.035 153.262C152.938 152.546 152.451 151.634 152.541 150.716L152.691 147.997C152.625 146.851 153.472 145.659 155.165 144.801Z" fill="#C69C45"/>
<path fill-rule="evenodd" clip-rule="evenodd" d="M169.456 137.558L155.165 144.802C152.288 146.26 151.852 148.68 154.192 150.206L158.943 153.305C161.283 154.831 165.512 154.887 168.389 153.428L182.68 146.184C185.557 144.726 185.992 142.307 183.652 140.78L178.901 137.681C176.562 136.155 172.333 136.1 169.456 137.558Z" fill="#D8B56D"/>
<path fill-rule="evenodd" clip-rule="evenodd" d="M194.796 153.405C186.289 151.719 177.783 150.034 169.276 148.348C166.437 147.786 165.053 145.051 165.831 143.214C166.748 141.051 167.023 140.47 168.026 138.164C168.878 136.206 172.239 134.15 175.079 134.712C183.586 136.398 190.542 137.776 199.048 139.462C201.888 140.025 204.581 143.662 203.636 145.662C202.523 148.016 202.199 148.426 201.36 150.427C200.649 152.127 197.636 153.968 194.796 153.405Z" fill="#C69C45"/>
<path fill-rule="evenodd" clip-rule="evenodd" d="M193.882 151.006L169.545 146.184C166.836 145.647 165.468 143.284 166.171 141.731C166.999 139.902 167.248 139.412 168.155 137.462C168.926 135.807 172.078 134.117 174.786 134.654C182.899 136.261 191.011 137.869 199.123 139.477C201.832 140.013 202.983 142.88 202.124 144.569C201.113 146.557 200.815 146.901 200.058 148.593C199.415 150.03 196.59 151.543 193.882 151.006Z" fill="#D8B56D"/>
<path fill-rule="evenodd" clip-rule="evenodd" d="M193.538 149.459C186.086 147.982 178.633 146.505 171.181 145.029C168.692 144.536 167.397 142.557 168.012 141.285C168.736 139.787 168.956 139.386 169.751 137.79C170.426 136.435 173.279 135.095 175.767 135.587C183.221 137.064 190.673 138.541 198.126 140.018C200.614 140.511 201.72 142.903 200.965 144.284C200.075 145.911 199.809 146.189 199.146 147.575C198.585 148.752 196.026 149.952 193.538 149.459Z" fill="#C69C45"/>
<path fill-rule="evenodd" clip-rule="evenodd" d="M193.723 143.951C193.451 145.326 192.115 146.22 190.74 145.947C189.365 145.675 188.471 144.339 188.744 142.964C189.016 141.589 190.352 140.695 191.727 140.968C193.102 141.24 193.995 142.576 193.723 143.951Z" fill="#ECCC8B"/>
<path d="M180.701 138.783L178.432 142.769" stroke="#ECCC8B" stroke-width="1.45" stroke-linecap="round" stroke-linejoin="round"/>
<path d="M176.432 137.938L174.163 141.924" stroke="#ECCC8B" stroke-width="1.45" stroke-linecap="round" stroke-linejoin="round"/>
<path fill-rule="evenodd" clip-rule="evenodd" d="M103.12 101.771C102.268 101.766 58.2533 101.51 58.0063 101.509C55.6563 101.495 53.7333 103.396 53.7203 105.746L53.5333 137.712C53.5213 139.79 55.0513 141.6 57.0993 141.94L57.8633 142.558L102.123 142.815L103.557 142.211C105.608 141.894 107.159 140.102 107.171 138.023C107.177 136.96 107.351 107.02 107.356 106.058C107.37 103.708 105.47 101.785 103.12 101.771Z" fill="#63B5FA"/>
<path fill-rule="evenodd" clip-rule="evenodd" d="M57.5988 137.735L57.7858 105.769C57.7988 103.419 59.7218 101.518 62.0718 101.532C59.5898 101.518 58.0518 101.508 58.0058 101.508C55.6568 101.495 53.7338 103.395 53.7198 105.745L53.5338 137.712C53.5218 139.79 55.0508 141.6 57.0988 141.94L57.8638 142.558L61.9278 142.581L61.1638 141.964C59.1168 141.624 57.5868 139.814 57.5988 137.735Z" fill="#3393E3"/>
<path fill-rule="evenodd" clip-rule="evenodd" d="M62.3343 137.412L62.4943 109.87L63.2723 109.067L58.3023 109.038L57.5243 109.841L57.3643 137.383C57.3613 137.806 57.7023 138.15 58.1243 138.152L63.0953 138.182C62.6723 138.179 62.3323 137.834 62.3343 137.412Z" fill="#D3EFFB"/>
<path fill-rule="evenodd" clip-rule="evenodd" d="M102.767 105.569C100.792 105.557 64.0858 105.344 62.5208 105.335L58.3158 105.311C57.8928 105.308 57.5488 105.649 57.5458 106.071L57.5248 109.841L57.3648 137.383C57.3618 137.806 57.7028 138.15 58.1238 138.153L102.576 138.411C102.997 138.414 103.342 138.073 103.345 137.651C103.349 136.929 103.5 110.944 103.505 110.108L103.527 106.338C103.53 105.916 103.189 105.571 102.767 105.569Z" fill="#EDFFF5"/>
<path fill-rule="evenodd" clip-rule="evenodd" d="M110 142.248L50.6563 141.903C50.2633 141.901 49.9423 142.221 49.9403 142.618L49.9263 145.089C49.9153 146.923 51.3933 148.432 53.2083 148.442L107.371 148.757C109.188 148.768 110.682 147.276 110.692 145.442L110.707 142.971C110.709 142.574 110.393 142.25 110 142.248Z" fill="#63B5FA"/>
<path fill-rule="evenodd" clip-rule="evenodd" d="M57.3198 145.131L57.3338 142.66C57.3368 142.263 57.6568 141.943 58.0488 141.945L50.6568 141.902C50.2628 141.9 49.9428 142.22 49.9408 142.617L49.9258 145.088C49.9158 146.922 51.3928 148.431 53.2088 148.441L60.6018 148.484C58.7858 148.474 57.3088 146.965 57.3198 145.131Z" fill="#3393E3"/>
<path fill-rule="evenodd" clip-rule="evenodd" d="M71.4641 142.023L71.4551 143.681C71.4501 144.496 72.1071 145.167 72.9131 145.171L87.7061 145.257C88.5131 145.262 89.1771 144.599 89.1821 143.784L89.1921 142.127L71.4641 142.023Z" fill="#3393E3"/>
<path fill-rule="evenodd" clip-rule="evenodd" d="M78.8481 143.725L78.8581 142.067L71.4641 142.024L71.4551 143.682C71.4511 144.497 72.1071 145.167 72.9131 145.172L80.3071 145.215C79.4991 145.211 78.8431 144.54 78.8481 143.725Z" fill="#1868AB"/>
<path fill-rule="evenodd" clip-rule="evenodd" d="M57.5363 107.772L57.5243 109.84L57.3643 137.383C57.3613 137.805 57.7023 138.149 58.1243 138.152L84.7143 138.307C61.1013 137.366 57.9473 113.198 57.5363 107.772Z" fill="#C4E4FF"/>
<mask id="mask1_5567_159220" style="mask-type:alpha" maskUnits="userSpaceOnUse" x="15" y="14" width="273" height="82">
<path fill-rule="evenodd" clip-rule="evenodd" d="M15 14H288V96H15V14Z" fill="white"/>
</mask>
<g mask="url(#mask1_5567_159220)">
<path fill-rule="evenodd" clip-rule="evenodd" d="M287.938 57.9924L285.38 39.201C284.883 35.5489 281.52 32.9915 277.871 33.4897L228.382 40.2404C226.918 40.4402 225.569 39.4142 225.369 37.9484L222.894 19.7741C222.398 16.122 219.036 13.5647 215.386 14.0618L20.7681 40.6114C17.1193 41.1096 14.5643 44.4746 15.062 48.1267L17.4654 65.7742C17.9621 69.4273 21.3231 71.9847 24.9729 71.4865L46.0144 68.6165C47.4778 68.4167 48.8275 69.4427 49.0272 70.9084L51.657 90.2256C52.1547 93.8787 55.5167 96.4361 59.1655 95.938L282.232 65.5077C285.881 65.0095 288.436 61.6455 287.938 57.9924Z" fill="#CFE163"/>
</g>
<path fill-rule="evenodd" clip-rule="evenodd" d="M69.9386 79.849C69.9036 79.601 69.8206 79.361 69.6906 79.127C69.5606 78.893 69.3976 78.691 69.2016 78.521C69.0046 78.352 68.7796 78.222 68.5266 78.131C68.2736 78.04 68.0106 78.015 67.7386 78.053L64.4656 78.514L65.0476 82.644L68.3196 82.183C68.5926 82.145 68.8366 82.051 69.0506 81.904C69.2666 81.755 69.4476 81.572 69.5936 81.354C69.7396 81.136 69.8426 80.897 69.9036 80.636C69.9626 80.375 69.9756 80.113 69.9386 79.849ZM68.2706 72.757C68.2356 72.509 68.1576 72.286 68.0376 72.083C67.9156 71.882 67.7606 71.711 67.5726 71.569C67.3836 71.428 67.1676 71.326 66.9216 71.264C66.6776 71.201 66.4186 71.189 66.1456 71.228L63.4926 71.601L63.9976 75.187L66.6136 74.819C66.8946 74.779 67.1466 74.7 67.3706 74.58C67.5936 74.46 67.7766 74.308 67.9196 74.124C68.0626 73.94 68.1666 73.732 68.2296 73.5C68.2946 73.269 68.3076 73.021 68.2706 72.757ZM58.2736 69.196C58.2496 69.023 58.2766 68.878 58.3576 68.762C58.4376 68.646 58.5636 68.575 58.7376 68.551L66.9476 67.394C67.6726 67.292 68.3766 67.334 69.0596 67.52C69.7416 67.705 70.3566 68.005 70.9076 68.42C71.4576 68.834 71.9176 69.345 72.2906 69.953C72.6606 70.56 72.8986 71.235 73.0026 71.977C73.0896 72.595 73.0746 73.184 72.9566 73.743C72.8366 74.302 72.6296 74.817 72.3346 75.287C73.0046 75.747 73.5656 76.328 74.0176 77.03C74.4696 77.731 74.7546 78.502 74.8736 79.343C74.9796 80.094 74.9346 80.825 74.7406 81.537C74.5466 82.25 74.2406 82.894 73.8216 83.47C73.4026 84.046 72.8856 84.529 72.2726 84.918C71.6586 85.307 70.9896 85.553 70.2636 85.655L61.3236 86.914C61.1586 86.937 61.0206 86.912 60.9096 86.84C60.7976 86.767 60.7296 86.641 60.7046 86.459L58.2736 69.196Z" fill="#167C23"/>
<path fill-rule="evenodd" clip-rule="evenodd" d="M83.9602 70.8877C83.8622 71.3297 83.7682 71.8057 83.6762 72.3147C83.5832 72.8247 83.4932 73.3367 83.4072 73.8537C83.3192 74.3697 83.2302 74.8817 83.1372 75.3867C83.0442 75.8907 82.9482 76.3647 82.8522 76.8067L86.6482 76.2727L83.9602 70.8877ZM80.9642 65.9117C80.9652 65.8617 80.9842 65.8047 81.0222 65.7407C81.0592 65.6767 81.1062 65.6147 81.1662 65.5557C81.2262 65.4977 81.2902 65.4487 81.3592 65.4087C81.4302 65.3697 81.4972 65.3457 81.5642 65.3357L84.7302 64.8897C84.8692 64.8697 84.9952 64.8967 85.1062 64.9697C85.2182 65.0417 85.3032 65.1077 85.3612 65.1667L85.7702 65.8277L94.6202 81.6567C94.7092 81.8127 94.7152 81.9487 94.6402 82.0637C94.5632 82.1797 94.4142 82.2537 94.1912 82.2847L90.6432 82.7847C90.4522 82.8117 90.3012 82.7967 90.1892 82.7417C90.0752 82.6857 89.9792 82.5797 89.8972 82.4227C89.6732 82.0257 89.4542 81.6297 89.2382 81.2357C89.0222 80.8417 88.8082 80.4457 88.5922 80.0467L82.0252 80.9707C81.9282 81.4137 81.8282 81.8547 81.7272 82.2937C81.6242 82.7327 81.5242 83.1737 81.4282 83.6157C81.3622 83.9357 81.1742 84.1177 80.8612 84.1617L77.2132 84.6767C77.0572 84.6987 76.9202 84.6757 76.8062 84.6067C76.6912 84.5397 76.6552 84.4187 76.6982 84.2437L80.9642 65.9117Z" fill="#167C23"/>
<path fill-rule="evenodd" clip-rule="evenodd" d="M94.6983 64.0408C94.6773 63.8928 94.7043 63.7578 94.7793 63.6378C94.8553 63.5188 94.9843 63.4458 95.1653 63.4198L99.2093 62.8508C99.3243 62.8338 99.4483 62.8468 99.5793 62.8868C99.7113 62.9268 99.8333 63.0108 99.9433 63.1378C101.228 64.6808 102.502 66.1998 103.763 67.6948C105.024 69.1898 106.302 70.7088 107.594 72.2498L106.2 62.3458C106.212 62.1918 106.261 62.0678 106.348 61.9708C106.436 61.8748 106.546 61.8168 106.677 61.7988L110.202 61.3018C110.375 61.2778 110.526 61.3058 110.655 61.3838C110.783 61.4618 110.86 61.5878 110.885 61.7608L113.327 79.0978C113.349 79.2628 113.317 79.3918 113.229 79.4828C113.141 79.5758 113.01 79.6338 112.838 79.6588L108.893 80.2138C108.786 80.2288 108.685 80.2048 108.593 80.1428C108.5 80.0798 108.399 79.9928 108.292 79.8828C106.939 78.2238 105.603 76.5828 104.282 74.9608C102.961 73.3398 101.62 71.6998 100.26 70.0418L101.756 80.6648C101.781 80.8458 101.759 80.9868 101.689 81.0898C101.62 81.1918 101.478 81.2578 101.263 81.2888L97.7523 81.7828C97.5623 81.8098 97.4173 81.7778 97.3153 81.6868C97.2153 81.5958 97.1543 81.4768 97.1333 81.3278L94.6983 64.0408Z" fill="#167C23"/>
<path fill-rule="evenodd" clip-rule="evenodd" d="M122.527 66.4774L124.613 59.6634C124.648 59.5584 124.679 59.4794 124.707 59.4304C124.733 59.3804 124.761 59.3424 124.791 59.3164C124.821 59.2914 124.855 59.2744 124.891 59.2654C124.928 59.2554 124.969 59.2394 125.016 59.2164L129.777 58.5454C129.835 58.5374 129.885 58.5494 129.927 58.5814C129.969 58.6124 129.995 58.6534 130.002 58.7034C130.014 58.7934 129.97 58.9044 129.872 59.0364L125.472 70.2364L126.445 77.1484C126.5 77.5364 126.338 77.7574 125.961 77.8104L122.259 78.3314C122.095 78.3544 121.961 78.3204 121.855 78.2304C121.751 78.1404 121.685 78.0044 121.66 77.8234L120.682 70.8864L113.376 61.3594C113.254 61.2684 113.185 61.1724 113.172 61.0734C113.165 61.0234 113.174 60.9784 113.203 60.9364C113.23 60.8944 113.273 60.8704 113.331 60.8614L118.091 60.1914C118.152 60.1994 118.199 60.2034 118.232 60.2034C118.266 60.2024 118.3 60.2104 118.337 60.2264C118.372 60.2424 118.41 60.2704 118.449 60.3114C118.488 60.3524 118.544 60.4174 118.616 60.5084L122.527 66.4774Z" fill="#167C23"/>
<path fill-rule="evenodd" clip-rule="evenodd" d="M137.242 63.3828C137.145 63.8258 137.05 64.3018 136.958 64.8108C136.866 65.3198 136.775 65.8328 136.689 66.3488C136.601 66.8658 136.513 67.3768 136.419 67.8818C136.326 68.3858 136.231 68.8608 136.134 69.3028L139.93 68.7678L137.242 63.3828ZM134.246 58.4078C134.248 58.3568 134.266 58.2998 134.304 58.2358C134.342 58.1718 134.388 58.1098 134.448 58.0508C134.508 57.9928 134.572 57.9438 134.642 57.9038C134.712 57.8648 134.78 57.8408 134.846 57.8318L138.012 57.3858C138.151 57.3658 138.277 57.3928 138.388 57.4648C138.5 57.5378 138.585 57.6038 138.643 57.6618L139.052 58.3238L147.902 74.1528C147.991 74.3078 147.997 74.4438 147.922 74.5598C147.846 74.6748 147.696 74.7488 147.473 74.7798L143.925 75.2798C143.735 75.3068 143.584 75.2928 143.471 75.2368C143.357 75.1818 143.261 75.0748 143.179 74.9178C142.955 74.5208 142.736 74.1258 142.52 73.7308C142.305 73.3368 142.09 72.9408 141.874 72.5418L135.307 73.4668C135.211 73.9088 135.111 74.3508 135.009 74.7888C134.907 75.2278 134.806 75.6688 134.71 76.1118C134.645 76.4318 134.457 76.6138 134.143 76.6578L130.495 77.1718C130.339 77.1938 130.203 77.1708 130.089 77.1028C129.973 77.0348 129.937 76.9138 129.98 76.7398L134.246 58.4078Z" fill="#167C23"/>
<path fill-rule="evenodd" clip-rule="evenodd" d="M147.906 56.5467C147.885 56.3987 147.915 56.2637 147.994 56.1437C148.074 56.0237 148.2 55.9507 148.373 55.9257L152.023 55.4117C152.146 55.3947 152.283 55.4257 152.432 55.5057C152.582 55.5857 152.669 55.7077 152.692 55.8727L153.641 62.6117C154.377 61.3317 155.099 60.0687 155.806 58.8267C156.514 57.5837 157.232 56.3217 157.96 55.0427C158.031 54.8897 158.133 54.7597 158.264 54.6527C158.396 54.5457 158.533 54.4827 158.673 54.4627L163.372 53.8007C163.57 53.7727 163.677 53.8207 163.695 53.9447C163.707 54.0267 163.675 54.1327 163.6 54.2607L158.858 62.7597L166.666 71.5467C166.776 71.6747 166.838 71.7797 166.849 71.8617C166.866 71.9857 166.784 72.0607 166.602 72.0857L161.928 72.7447C161.788 72.7637 161.644 72.7417 161.497 72.6787C161.349 72.6157 161.22 72.5207 161.11 72.3927C160.589 71.8607 160.112 71.3477 159.677 70.8547C159.241 70.3607 158.816 69.8677 158.403 69.3757C157.988 68.8837 157.569 68.3847 157.145 67.8817C156.721 67.3787 156.26 66.8507 155.761 66.2977L154.446 68.3247L155.125 73.1477C155.176 73.5097 155.005 73.7187 154.61 73.7747L150.971 74.2867C150.601 74.3397 150.39 74.1847 150.34 73.8217L147.906 56.5467Z" fill="#167C23"/>
<path fill-rule="evenodd" clip-rule="evenodd" d="M174.641 52.7816C174.629 52.6396 174.663 52.5076 174.743 52.3826C174.822 52.2576 174.94 52.1846 175.096 52.1626L178.769 51.6456C178.892 51.6276 179.027 51.6616 179.173 51.7456C179.32 51.8306 179.405 51.9506 179.427 52.1086L180.253 57.9816L186.4 57.1156L185.573 51.2426C185.551 51.0946 185.584 50.9586 185.672 50.8366C185.76 50.7156 185.886 50.6426 186.051 50.6196L189.664 50.1106C189.829 50.0876 189.979 50.1086 190.114 50.1736C190.248 50.2386 190.329 50.3616 190.355 50.5436L192.791 67.8426C192.817 68.0246 192.782 68.1676 192.689 68.2726C192.593 68.3786 192.46 68.4436 192.288 68.4686L188.637 68.9826C188.472 69.0056 188.332 68.9796 188.217 68.9036C188.102 68.8266 188.031 68.6986 188.005 68.5166L187.016 61.4926L180.87 62.3586L181.86 69.3826C181.884 69.5556 181.847 69.6976 181.749 69.8076C181.651 69.9176 181.507 69.9866 181.318 70.0126L177.683 70.5256C177.336 70.5736 177.136 70.4386 177.083 70.1176L174.641 52.7816Z" fill="#167C23"/>
<path fill-rule="evenodd" clip-rule="evenodd" d="M202.644 54.1719C202.546 54.6139 202.452 55.0899 202.359 55.5989C202.267 56.1079 202.177 56.6209 202.091 57.1379C202.003 57.6539 201.914 58.1649 201.821 58.6709C201.728 59.1749 201.632 59.6489 201.536 60.0909L205.332 59.5559L202.644 54.1719ZM199.648 49.1959C199.649 49.1459 199.668 49.0889 199.706 49.0249C199.743 48.9599 199.79 48.8989 199.85 48.8399C199.909 48.7819 199.973 48.7329 200.043 48.6929C200.114 48.6539 200.181 48.6299 200.248 48.6199L203.413 48.1739C203.553 48.1539 203.679 48.1809 203.79 48.2539C203.901 48.3259 203.986 48.3919 204.045 48.4509L204.454 49.1119L213.304 64.9409C213.393 65.0959 213.4 65.2329 213.323 65.3479C213.247 65.4639 213.098 65.5369 212.875 65.5689L209.326 66.0689C209.136 66.0949 208.986 66.0809 208.873 66.0259C208.759 65.9699 208.663 65.8639 208.581 65.7069C208.357 65.3099 208.137 64.9139 207.922 64.5199C207.707 64.1259 207.492 63.7299 207.276 63.3309L200.709 64.2549C200.613 64.6979 200.512 65.1389 200.41 65.5779C200.308 66.0169 200.208 66.4579 200.111 66.8999C200.047 67.2199 199.858 67.4019 199.545 67.4459L195.897 67.9609C195.741 67.9819 195.605 67.9599 195.49 67.8909C195.375 67.8229 195.339 67.7029 195.382 67.5279L199.648 49.1959Z" fill="#167C23"/>
<path fill-rule="evenodd" clip-rule="evenodd" d="M218.467 50.5685L219.807 60.0775L220.845 59.9315C221.034 59.9045 221.219 59.8725 221.399 59.8345C221.578 59.7965 221.758 59.7565 221.937 59.7145C222.548 59.5775 223.104 59.3465 223.604 59.0195C224.105 58.6925 224.526 58.2965 224.868 57.8325C225.211 57.3675 225.456 56.8435 225.606 56.2585C225.754 55.6745 225.782 55.0575 225.691 54.4055C225.594 53.7135 225.374 53.0945 225.032 52.5505C224.692 52.0055 224.268 51.5525 223.763 51.1905C223.258 50.8285 222.69 50.5725 222.059 50.4225C221.429 50.2715 220.775 50.2435 220.099 50.3385L218.467 50.5685ZM230.453 53.7485C230.576 54.6225 230.582 55.4675 230.471 56.2865C230.36 57.1055 230.146 57.8835 229.829 58.6215C229.512 59.3605 229.107 60.0455 228.612 60.6785C228.116 61.3115 227.548 61.8715 226.905 62.3565C226.263 62.8425 225.553 63.2465 224.775 63.5705C223.996 63.8955 223.175 64.1175 222.309 64.2395L216.213 65.0985C216.065 65.1195 215.928 65.1055 215.803 65.0555C215.679 65.0055 215.602 64.8735 215.571 64.6585L213.138 47.3835C213.113 47.2115 213.141 47.0645 213.221 46.9435C213.301 46.8235 213.436 46.7495 213.625 46.7225L219.721 45.8645C220.587 45.7425 221.436 45.7325 222.271 45.8335C223.105 45.9345 223.898 46.1335 224.65 46.4315C225.402 46.7285 226.106 47.1135 226.761 47.5845C227.415 48.0545 227.995 48.6045 228.499 49.2315C229.004 49.8575 229.426 50.5505 229.764 51.3105C230.102 52.0695 230.331 52.8825 230.453 53.7485Z" fill="#167C23"/>
<path fill-rule="evenodd" clip-rule="evenodd" d="M232.512 44.6301C232.491 44.4821 232.518 44.3481 232.593 44.2281C232.669 44.1081 232.797 44.0351 232.979 44.0091L236.615 43.4981C236.739 43.4801 236.877 43.5111 237.032 43.5901C237.185 43.6701 237.274 43.7921 237.297 43.9561L239.731 61.2311C239.782 61.5941 239.605 61.8041 239.201 61.8601L235.566 62.3731C235.202 62.4241 234.996 62.2681 234.945 61.9051L232.512 44.6301Z" fill="#167C23"/>
<path fill-rule="evenodd" clip-rule="evenodd" d="M249.521 47.5694C249.424 48.0114 249.33 48.4884 249.237 48.9964C249.145 49.5064 249.055 50.0184 248.968 50.5354C248.881 51.0514 248.792 51.5624 248.699 52.0674C248.606 52.5724 248.51 53.0464 248.414 53.4884L252.209 52.9544L249.521 47.5694ZM246.526 42.5944C246.527 42.5434 246.546 42.4864 246.583 42.4224C246.621 42.3584 246.668 42.2964 246.728 42.2374C246.787 42.1784 246.851 42.1304 246.921 42.0904C246.992 42.0514 247.059 42.0274 247.125 42.0174L250.292 41.5714C250.431 41.5524 250.556 41.5784 250.667 41.6514C250.779 41.7234 250.864 41.7894 250.922 41.8484L251.332 42.5094L260.181 58.3384C260.27 58.4944 260.277 58.6304 260.201 58.7454C260.125 58.8614 259.976 58.9354 259.752 58.9664L256.205 59.4664C256.014 59.4934 255.863 59.4784 255.75 59.4234C255.637 59.3674 255.541 59.2614 255.459 59.1044C255.235 58.7074 255.015 58.3114 254.8 57.9174C254.584 57.5234 254.37 57.1264 254.154 56.7284L247.587 57.6524C247.49 58.0954 247.39 58.5364 247.289 58.9754C247.186 59.4144 247.085 59.8554 246.989 60.2974C246.924 60.6174 246.736 60.7994 246.422 60.8434L242.775 61.3574C242.618 61.3804 242.482 61.3564 242.368 61.2894C242.253 61.2214 242.217 61.1004 242.26 60.9254L246.526 42.5944Z" fill="#167C23"/>
<path fill-rule="evenodd" clip-rule="evenodd" d="M260.259 40.7225C260.247 40.5805 260.282 40.4475 260.361 40.3235C260.44 40.1995 260.558 40.1255 260.714 40.1035L264.387 39.5855C264.511 39.5695 264.646 39.6025 264.792 39.6865C264.939 39.7715 265.024 39.8925 265.046 40.0495L265.872 45.9225L272.018 45.0565L271.191 39.1835C271.17 39.0355 271.203 38.9005 271.291 38.7785C271.378 38.6565 271.504 38.5835 271.669 38.5605L275.282 38.0515C275.447 38.0285 275.597 38.0495 275.732 38.1145C275.866 38.1795 275.947 38.3035 275.973 38.4835L278.409 55.7835C278.435 55.9655 278.401 56.1085 278.307 56.2145C278.212 56.3205 278.079 56.3855 277.906 56.4095L274.256 56.9235C274.091 56.9465 273.95 56.9205 273.835 56.8445C273.72 56.7675 273.65 56.6395 273.623 56.4575L272.634 49.4335L266.489 50.2995L267.479 57.3235C267.503 57.4955 267.466 57.6385 267.367 57.7485C267.27 57.8595 267.126 57.9275 266.937 57.9545L263.301 58.4665C262.954 58.5145 262.755 58.3795 262.701 58.0585L260.259 40.7225Z" fill="#167C23"/>
<path fill-rule="evenodd" clip-rule="evenodd" d="M35.2424 59.5365C35.2154 59.3415 35.1494 59.1515 35.0474 58.9665C34.9444 58.7825 34.8164 58.6225 34.6604 58.4895C34.5064 58.3545 34.3274 58.2515 34.1284 58.1805C33.9284 58.1095 33.7214 58.0885 33.5064 58.1195L30.9244 58.4825L31.3834 61.7425L33.9654 61.3785C34.1804 61.3485 34.3734 61.2745 34.5434 61.1575C34.7124 61.0405 34.8554 60.8965 34.9704 60.7235C35.0864 60.5525 35.1674 60.3635 35.2154 60.1575C35.2634 59.9515 35.2714 59.7445 35.2424 59.5365ZM33.9274 53.9395C33.8994 53.7445 33.8374 53.5675 33.7424 53.4085C33.6464 53.2495 33.5244 53.1145 33.3754 53.0025C33.2264 52.8905 33.0554 52.8105 32.8624 52.7615C32.6694 52.7115 32.4654 52.7025 32.2504 52.7325L30.1554 53.0275L30.5544 55.8575L32.6194 55.5665C32.8414 55.5355 33.0404 55.4725 33.2164 55.3785C33.3914 55.2845 33.5374 55.1635 33.6494 55.0185C33.7624 54.8735 33.8444 54.7095 33.8944 54.5265C33.9454 54.3435 33.9564 54.1475 33.9274 53.9395ZM26.0374 51.1295C26.0174 50.9935 26.0394 50.8785 26.1024 50.7865C26.1664 50.6955 26.2664 50.6395 26.4034 50.6205L32.8834 49.7075C33.4554 49.6265 34.0114 49.6605 34.5494 49.8065C35.0874 49.9535 35.5734 50.1895 36.0074 50.5165C36.4414 50.8435 36.8044 51.2465 37.0974 51.7265C37.3914 52.2065 37.5794 52.7385 37.6614 53.3245C37.7294 53.8115 37.7184 54.2765 37.6244 54.7175C37.5304 55.1595 37.3674 55.5645 37.1344 55.9365C37.6624 56.2995 38.1054 56.7585 38.4624 57.3115C38.8184 57.8655 39.0434 58.4735 39.1374 59.1375C39.2204 59.7295 39.1854 60.3075 39.0324 60.8685C38.8794 61.4315 38.6384 61.9395 38.3064 62.3935C37.9754 62.8485 37.5694 63.2295 37.0844 63.5365C36.5994 63.8435 36.0714 64.0375 35.4994 64.1185L28.4444 65.1115C28.3134 65.1305 28.2054 65.1105 28.1174 65.0535C28.0294 64.9955 27.9754 64.8965 27.9554 64.7525L26.0374 51.1295Z" fill="#4CA757"/>
<path fill-rule="evenodd" clip-rule="evenodd" d="M46.3078 52.4643C46.2308 52.8133 46.1568 53.1893 46.0838 53.5903C46.0108 53.9923 45.9398 54.3973 45.8708 54.8043C45.8028 55.2123 45.7328 55.6153 45.6588 56.0143C45.5858 56.4123 45.5098 56.7863 45.4328 57.1353L48.4288 56.7133L46.3078 52.4643ZM43.9438 48.5373C43.9448 48.4973 43.9598 48.4523 43.9898 48.4023C44.0188 48.3513 44.0568 48.3023 44.1038 48.2563C44.1498 48.2103 44.2008 48.1723 44.2558 48.1403C44.3118 48.1093 44.3658 48.0903 44.4168 48.0833L46.9148 47.7313C47.0258 47.7153 47.1248 47.7363 47.2128 47.7933C47.2998 47.8513 47.3678 47.9023 47.4138 47.9493L47.7368 48.4703L54.7208 60.9633C54.7908 61.0863 54.7958 61.1923 54.7358 61.2843C54.6758 61.3753 54.5578 61.4333 54.3818 61.4583L51.5808 61.8533C51.4318 61.8733 51.3118 61.8623 51.2228 61.8183C51.1338 61.7753 51.0578 61.6913 50.9938 61.5673C50.8168 61.2543 50.6438 60.9413 50.4738 60.6303C50.3038 60.3193 50.1328 60.0063 49.9628 59.6923L44.7818 60.4223C44.7038 60.7713 44.6258 61.1193 44.5448 61.4653C44.4648 61.8113 44.3858 62.1593 44.3098 62.5083C44.2578 62.7613 44.1098 62.9053 43.8628 62.9403L40.9838 63.3453C40.8598 63.3633 40.7528 63.3443 40.6618 63.2913C40.5728 63.2373 40.5438 63.1423 40.5778 63.0043L43.9438 48.5373Z" fill="#4CA757"/>
<path fill-rule="evenodd" clip-rule="evenodd" d="M54.7824 47.0608C54.7654 46.9438 54.7874 46.8378 54.8464 46.7438C54.9064 46.6488 55.0084 46.5918 55.1514 46.5708L58.3424 46.1218C58.4324 46.1088 58.5314 46.1188 58.6354 46.1498C58.7384 46.1828 58.8344 46.2488 58.9214 46.3488C59.9354 47.5658 60.9404 48.7648 61.9354 49.9448C62.9304 51.1248 63.9384 52.3238 64.9604 53.5398L63.8594 45.7228C63.8694 45.6028 63.9074 45.5038 63.9764 45.4278C64.0454 45.3528 64.1324 45.3068 64.2364 45.2918L67.0174 44.8998C67.1544 44.8808 67.2734 44.9018 67.3754 44.9638C67.4764 45.0258 67.5364 45.1258 67.5554 45.2618L69.4824 58.9438C69.5014 59.0738 69.4754 59.1748 69.4064 59.2478C69.3374 59.3208 69.2344 59.3668 69.0974 59.3858L65.9844 59.8248C65.9004 59.8358 65.8204 59.8178 65.7484 59.7678C65.6744 59.7188 65.5954 59.6498 65.5104 59.5628C64.4424 58.2538 63.3874 56.9588 62.3454 55.6788C61.3034 54.3998 60.2444 53.1058 59.1714 51.7968L60.3514 60.1798C60.3724 60.3228 60.3544 60.4348 60.3004 60.5158C60.2444 60.5958 60.1334 60.6488 59.9634 60.6728L57.1924 61.0628C57.0424 61.0838 56.9284 61.0588 56.8484 60.9868C56.7684 60.9148 56.7194 60.8208 56.7034 60.7038L54.7824 47.0608Z" fill="#4CA757"/>
<path fill-rule="evenodd" clip-rule="evenodd" d="M76.7433 48.9834L78.3893 43.6074C78.4183 43.5234 78.4423 43.4614 78.4633 43.4214C78.4843 43.3824 78.5063 43.3534 78.5303 43.3324C78.5543 43.3134 78.5803 43.2994 78.6083 43.2924C78.6383 43.2844 78.6713 43.2724 78.7083 43.2534L82.4653 42.7234C82.5113 42.7174 82.5503 42.7274 82.5833 42.7524C82.6163 42.7764 82.6373 42.8094 82.6423 42.8484C82.6523 42.9204 82.6183 43.0074 82.5393 43.1114L79.0663 51.9504L79.8353 57.4054C79.8783 57.7114 79.7513 57.8854 79.4523 57.9274L76.5323 58.3384C76.4023 58.3574 76.2963 58.3304 76.2143 58.2584C76.1303 58.1884 76.0793 58.0804 76.0583 57.9374L75.2883 52.4624L69.5213 44.9454C69.4263 44.8724 69.3723 44.7964 69.3603 44.7184C69.3553 44.6804 69.3633 44.6444 69.3853 44.6104C69.4063 44.5784 69.4403 44.5584 69.4863 44.5514L73.2433 44.0234C73.2913 44.0294 73.3273 44.0324 73.3533 44.0324C73.3803 44.0314 73.4083 44.0384 73.4353 44.0504C73.4643 44.0634 73.4943 44.0854 73.5253 44.1174C73.5563 44.1494 73.6003 44.2014 73.6563 44.2734L76.7433 48.9834Z" fill="#4CA757"/>
<path fill-rule="evenodd" clip-rule="evenodd" d="M88.3566 46.5419C88.2806 46.8909 88.2056 47.2669 88.1326 47.6679C88.0596 48.0699 87.9886 48.4749 87.9206 48.8819C87.8516 49.2899 87.7816 49.6929 87.7076 50.0919C87.6346 50.4899 87.5586 50.8639 87.4816 51.2129L90.4786 50.7909L88.3566 46.5419ZM85.9936 42.6159C85.9936 42.5749 86.0086 42.5299 86.0386 42.4799C86.0676 42.4289 86.1056 42.3799 86.1516 42.3339C86.1986 42.2879 86.2506 42.2499 86.3046 42.2179C86.3606 42.1869 86.4146 42.1679 86.4656 42.1609L88.9636 41.8089C89.0756 41.7929 89.1736 41.8139 89.2616 41.8709C89.3496 41.9289 89.4166 41.9799 89.4626 42.0269L89.7856 42.5489L96.7696 55.0409C96.8396 55.1639 96.8446 55.2699 96.7856 55.3619C96.7246 55.4529 96.6066 55.5109 96.4306 55.5359L93.6296 55.9309C93.4806 55.9519 93.3616 55.9399 93.2726 55.8959C93.1826 55.8529 93.1066 55.7689 93.0436 55.6449C92.8666 55.3319 92.6926 55.0189 92.5226 54.7079C92.3526 54.3969 92.1826 54.0839 92.0116 53.7699L86.8306 54.4999C86.7536 54.8489 86.6746 55.1969 86.5946 55.5429C86.5136 55.8889 86.4346 56.2369 86.3586 56.5859C86.3066 56.8389 86.1586 56.9829 85.9116 57.0179L83.0326 57.4229C82.9086 57.4399 82.8016 57.4219 82.7106 57.3679C82.6216 57.3149 82.5926 57.2199 82.6266 57.0819L85.9936 42.6159Z" fill="#4CA757"/>
<path fill-rule="evenodd" clip-rule="evenodd" d="M96.7729 41.1472C96.7559 41.0302 96.7799 40.9242 96.8419 40.8292C96.9049 40.7332 97.0039 40.6762 97.1409 40.6572L100.022 40.2512C100.119 40.2382 100.226 40.2622 100.344 40.3252C100.463 40.3882 100.532 40.4852 100.549 40.6152L101.298 45.9332C101.879 44.9232 102.45 43.9272 103.007 42.9462C103.566 41.9652 104.132 40.9692 104.707 39.9602C104.763 39.8392 104.843 39.7362 104.947 39.6522C105.051 39.5682 105.159 39.5182 105.269 39.5022L108.978 38.9802C109.133 38.9582 109.218 38.9962 109.232 39.0932C109.242 39.1582 109.217 39.2422 109.158 39.3432L105.415 46.0502L111.578 52.9852C111.665 53.0852 111.712 53.1682 111.721 53.2332C111.735 53.3312 111.67 53.3902 111.528 53.4102L107.838 53.9292C107.728 53.9452 107.615 53.9282 107.498 53.8772C107.381 53.8282 107.28 53.7522 107.193 53.6522C106.782 53.2322 106.405 52.8272 106.062 52.4382C105.717 52.0482 105.382 51.6602 105.056 51.2712C104.729 50.8822 104.399 50.4892 104.064 50.0922C103.729 49.6952 103.365 49.2782 102.972 48.8422L101.933 50.4422L102.469 54.2482C102.51 54.5342 102.375 54.6992 102.063 54.7432L99.1909 55.1472C98.8999 55.1892 98.7329 55.0662 98.6929 54.7792L96.7729 41.1472Z" fill="#4CA757"/>
<path fill-rule="evenodd" clip-rule="evenodd" d="M120.978 47.3013C121.101 47.3773 121.26 47.4793 121.454 47.6083C121.647 47.7373 121.865 47.8603 122.108 47.9783C122.47 48.1533 122.824 48.2793 123.166 48.3573C123.509 48.4343 123.859 48.4483 124.217 48.3983C124.548 48.3513 124.822 48.2743 125.036 48.1683C125.249 48.0623 125.413 47.9383 125.526 47.7963C125.638 47.6543 125.71 47.4983 125.743 47.3273C125.776 47.1573 125.779 46.9813 125.753 46.7993C125.725 46.5983 125.623 46.4283 125.448 46.2903C125.272 46.1533 125.065 46.0373 124.827 45.9463C124.588 45.8533 124.342 45.7803 124.089 45.7263C123.836 45.6723 123.618 45.6293 123.434 45.5943C122.615 45.4313 121.89 45.2343 121.26 45.0013C120.63 44.7683 120.093 44.4863 119.648 44.1543C119.204 43.8223 118.85 43.4383 118.59 43.0003C118.33 42.5633 118.159 42.0583 118.079 41.4873C117.994 40.8823 118.038 40.3153 118.212 39.7873C118.386 39.2593 118.675 38.7873 119.078 38.3723C119.48 37.9583 119.987 37.6103 120.597 37.3283C121.208 37.0473 121.908 36.8503 122.695 36.7393C123.287 36.6563 123.864 36.6433 124.425 36.7003C124.988 36.7573 125.552 36.8943 126.121 37.1133C126.36 37.2123 126.588 37.3173 126.807 37.4293C127.026 37.5413 127.218 37.6523 127.386 37.7603C127.554 37.8693 127.691 37.9763 127.794 38.0813C127.899 38.1863 127.957 38.2803 127.969 38.3653C127.981 38.4493 127.97 38.5313 127.939 38.6083C127.907 38.6863 127.854 38.7763 127.783 38.8793L126.513 40.6803C126.418 40.8063 126.316 40.8773 126.206 40.8923C126.115 40.9053 126.028 40.8913 125.946 40.8493C125.863 40.8083 125.771 40.7553 125.669 40.6893L125.571 40.6243C125.424 40.5313 125.263 40.4383 125.087 40.3433C124.912 40.2493 124.726 40.1673 124.531 40.0983C124.335 40.0303 124.132 39.9783 123.922 39.9453C123.712 39.9123 123.502 39.9103 123.294 39.9393C123.08 39.9693 122.88 40.0163 122.697 40.0783C122.513 40.1403 122.355 40.2213 122.223 40.3193C122.091 40.4173 121.992 40.5353 121.924 40.6743C121.858 40.8133 121.837 40.9743 121.864 41.1553C121.889 41.3383 121.957 41.4893 122.066 41.6093C122.176 41.7303 122.331 41.8353 122.529 41.9233C122.727 42.0113 122.968 42.0863 123.252 42.1493C123.537 42.2123 123.866 42.2773 124.24 42.3433C124.961 42.4743 125.631 42.6243 126.249 42.7923C126.867 42.9613 127.411 43.1863 127.881 43.4683C128.352 43.7503 128.741 44.1123 129.044 44.5523C129.349 44.9943 129.548 45.5543 129.644 46.2303C129.745 46.9463 129.69 47.6153 129.479 48.2393C129.268 48.8633 128.936 49.4153 128.483 49.8973C128.031 50.3793 127.475 50.7803 126.817 51.1013C126.159 51.4243 125.433 51.6403 124.639 51.7523C123.891 51.8573 123.137 51.8273 122.377 51.6613C121.618 51.4963 120.894 51.2313 120.207 50.8693C119.919 50.7173 119.673 50.5623 119.468 50.4043C119.264 50.2473 119.102 50.1203 118.982 50.0233L118.949 49.9983C118.94 49.9863 118.933 49.9793 118.926 49.9773C118.918 49.9743 118.912 49.9703 118.904 49.9653C118.896 49.9523 118.888 49.9453 118.881 49.9433C118.874 49.9413 118.867 49.9363 118.86 49.9313C118.687 49.7893 118.593 49.6693 118.58 49.5713C118.565 49.4603 118.622 49.3253 118.752 49.1673L120.213 47.3203C120.336 47.2023 120.44 47.1383 120.525 47.1263C120.583 47.1183 120.648 47.1293 120.718 47.1593C120.789 47.1893 120.875 47.2363 120.978 47.3013Z" fill="#4CA757"/>
<path fill-rule="evenodd" clip-rule="evenodd" d="M137.139 39.6712C137.063 40.0202 136.988 40.3962 136.915 40.7972C136.842 41.1992 136.771 41.6042 136.703 42.0112C136.634 42.4192 136.564 42.8222 136.49 43.2212C136.417 43.6192 136.341 43.9932 136.264 44.3422L139.26 43.9202L137.139 39.6712ZM134.776 35.7442C134.776 35.7042 134.791 35.6592 134.821 35.6092C134.85 35.5582 134.888 35.5092 134.935 35.4632C134.981 35.4172 135.033 35.3792 135.087 35.3472C135.143 35.3162 135.197 35.2962 135.248 35.2902L137.746 34.9382C137.858 34.9212 137.956 34.9432 138.044 35.0002C138.132 35.0582 138.199 35.1092 138.245 35.1562L138.568 35.6782L145.552 48.1702C145.622 48.2932 145.627 48.3992 145.567 48.4912C145.507 48.5822 145.389 48.6402 145.213 48.6652L142.412 49.0602C142.263 49.0802 142.144 49.0692 142.055 49.0252C141.965 48.9812 141.889 48.8982 141.826 48.7742C141.649 48.4612 141.475 48.1482 141.305 47.8372C141.135 47.5262 140.965 47.2132 140.794 46.8992L135.613 47.6282C135.536 47.9782 135.457 48.3262 135.377 48.6722C135.296 49.0182 135.217 49.3662 135.141 49.7152C135.089 49.9682 134.941 50.1122 134.694 50.1472L131.815 50.5522C131.691 50.5692 131.584 50.5512 131.493 50.4972C131.404 50.4442 131.375 50.3492 131.409 50.2112L134.776 35.7442Z" fill="#4CA757"/>
<path fill-rule="evenodd" clip-rule="evenodd" d="M145.614 34.2678C145.604 34.1568 145.631 34.0518 145.694 33.9538C145.756 33.8548 145.848 33.7968 145.972 33.7788L148.871 33.3718C148.968 33.3578 149.075 33.3838 149.19 33.4508C149.306 33.5178 149.373 33.6128 149.39 33.7368L150.043 38.3718L154.892 37.6878L154.24 33.0538C154.223 32.9358 154.25 32.8298 154.319 32.7338C154.388 32.6378 154.488 32.5808 154.618 32.5618L157.469 32.1598C157.599 32.1418 157.718 32.1588 157.823 32.2098C157.929 32.2618 157.994 32.3588 158.013 32.5008L159.936 46.1538C159.957 46.2968 159.929 46.4108 159.855 46.4938C159.781 46.5768 159.676 46.6288 159.54 46.6478L156.659 47.0538C156.528 47.0718 156.419 47.0508 156.327 46.9908C156.236 46.9308 156.18 46.8288 156.16 46.6848L155.38 41.1428L150.529 41.8258L151.31 47.3688C151.329 47.5058 151.301 47.6178 151.223 47.7048C151.145 47.7918 151.032 47.8458 150.883 47.8668L148.013 48.2708C147.74 48.3098 147.583 48.2028 147.541 47.9498L145.614 34.2678Z" fill="#4CA757"/>
<path fill-rule="evenodd" clip-rule="evenodd" d="M167.712 35.3652C167.636 35.7142 167.561 36.0902 167.488 36.4912C167.415 36.8932 167.344 37.2982 167.276 37.7052C167.207 38.1132 167.137 38.5162 167.063 38.9152C166.99 39.3132 166.914 39.6872 166.837 40.0362L169.833 39.6152L167.712 35.3652ZM165.349 31.4382C165.349 31.3982 165.364 31.3532 165.394 31.3032C165.423 31.2522 165.461 31.2032 165.508 31.1572C165.554 31.1112 165.605 31.0722 165.66 31.0412C165.716 31.0102 165.77 30.9912 165.821 30.9842L168.319 30.6322C168.43 30.6162 168.529 30.6372 168.617 30.6942C168.704 30.7512 168.772 30.8032 168.818 30.8502L169.141 31.3712L176.125 43.8642C176.195 43.9872 176.2 44.0932 176.141 44.1842C176.08 44.2762 175.962 44.3342 175.786 44.3592L172.985 44.7542C172.836 44.7742 172.717 44.7632 172.628 44.7192C172.538 44.6762 172.462 44.5922 172.399 44.4682C172.221 44.1552 172.048 43.8422 171.878 43.5312C171.708 43.2202 171.537 42.9072 171.367 42.5932L166.186 43.3232C166.108 43.6722 166.03 44.0202 165.95 44.3662C165.869 44.7122 165.79 45.0602 165.714 45.4092C165.662 45.6622 165.514 45.8062 165.267 45.8412L162.388 46.2462C162.264 46.2642 162.157 46.2452 162.066 46.1922C161.977 46.1382 161.948 46.0432 161.982 45.9052L165.349 31.4382Z" fill="#4CA757"/>
<path fill-rule="evenodd" clip-rule="evenodd" d="M185.346 38.3944C185.319 38.1994 185.254 38.0094 185.152 37.8254C185.049 37.6404 184.92 37.4814 184.765 37.3474C184.61 37.2124 184.432 37.1104 184.233 37.0394C184.033 36.9674 183.825 36.9474 183.611 36.9774L181.029 37.3414L181.487 40.6004L184.07 40.2364C184.284 40.2064 184.477 40.1324 184.647 40.0164C184.817 39.8994 184.959 39.7544 185.075 39.5824C185.19 39.4104 185.272 39.2214 185.32 39.0154C185.367 38.8104 185.375 38.6034 185.346 38.3944ZM184.032 32.7974C184.003 32.6024 183.942 32.4254 183.846 32.2674C183.75 32.1074 183.628 31.9724 183.48 31.8604C183.33 31.7484 183.16 31.6674 182.966 31.6194C182.774 31.5704 182.569 31.5604 182.355 31.5904L180.26 31.8864L180.659 34.7164L182.723 34.4254C182.945 34.3944 183.144 34.3314 183.32 34.2364C183.496 34.1424 183.641 34.0224 183.754 33.8764C183.866 33.7314 183.948 33.5674 183.998 33.3844C184.049 33.2014 184.061 33.0054 184.032 32.7974ZM176.141 29.9874C176.121 29.8514 176.143 29.7374 176.207 29.6444C176.271 29.5534 176.37 29.4974 176.507 29.4784L182.987 28.5654C183.559 28.4854 184.115 28.5184 184.653 28.6644C185.192 28.8114 185.677 29.0474 186.112 29.3744C186.545 29.7014 186.909 30.1054 187.202 30.5844C187.495 31.0644 187.683 31.5964 187.766 32.1824C187.834 32.6704 187.822 33.1344 187.729 33.5764C187.634 34.0174 187.471 34.4234 187.238 34.7944C187.767 35.1574 188.209 35.6164 188.566 36.1694C188.923 36.7234 189.148 37.3324 189.242 37.9954C189.325 38.5874 189.29 39.1654 189.137 39.7274C188.984 40.2894 188.742 40.7974 188.411 41.2524C188.08 41.7074 187.673 42.0874 187.189 42.3944C186.704 42.7024 186.176 42.8954 185.604 42.9764L178.548 43.9704C178.418 43.9884 178.309 43.9684 178.221 43.9114C178.134 43.8544 178.079 43.7534 178.059 43.6104L176.141 29.9874Z" fill="#4CA757"/>
<path fill-rule="evenodd" clip-rule="evenodd" d="M196.411 31.3233C196.335 31.6723 196.26 32.0483 196.187 32.4493C196.115 32.8513 196.044 33.2563 195.975 33.6633C195.906 34.0713 195.836 34.4743 195.763 34.8733C195.689 35.2713 195.614 35.6453 195.537 35.9943L198.533 35.5723L196.411 31.3233ZM194.048 27.3963C194.049 27.3563 194.063 27.3113 194.094 27.2613C194.122 27.2103 194.16 27.1613 194.207 27.1153C194.254 27.0693 194.305 27.0303 194.36 26.9993C194.415 26.9683 194.469 26.9493 194.521 26.9413L197.019 26.5903C197.13 26.5743 197.229 26.5943 197.316 26.6523C197.404 26.7093 197.472 26.7613 197.517 26.8083L197.84 27.3293L204.824 39.8213C204.894 39.9443 204.899 40.0513 204.84 40.1423C204.779 40.2343 204.661 40.2923 204.485 40.3173L201.684 40.7113C201.535 40.7323 201.416 40.7213 201.327 40.6773C201.238 40.6333 201.161 40.5503 201.098 40.4263C200.921 40.1133 200.748 39.8003 200.577 39.4893C200.408 39.1783 200.238 38.8653 200.067 38.5513L194.886 39.2803C194.808 39.6303 194.729 39.9783 194.649 40.3243C194.568 40.6703 194.49 41.0183 194.413 41.3673C194.362 41.6193 194.214 41.7633 193.966 41.7993L191.088 42.2043C190.964 42.2213 190.856 42.2033 190.765 42.1493C190.676 42.0963 190.647 42.0013 190.682 41.8633L194.048 27.3963Z" fill="#4CA757"/>
<path fill-rule="evenodd" clip-rule="evenodd" d="M201.617 26.3786C201.598 26.2496 201.628 26.1396 201.705 26.0486C201.781 25.9596 201.885 25.9036 202.015 25.8856L212.515 24.4076C212.632 24.3906 212.741 24.4116 212.843 24.4706C212.944 24.5286 213.011 24.6286 213.044 24.7696L213.386 27.1916C213.402 27.3086 213.377 27.4266 213.31 27.5456C213.244 27.6636 213.137 27.7336 212.986 27.7546L209.62 28.2296L211.125 38.9146C211.141 39.0306 211.114 39.1426 211.043 39.2486C210.971 39.3556 210.868 39.4186 210.732 39.4376L207.871 39.8406C207.761 39.8566 207.65 39.8266 207.54 39.7526C207.431 39.6786 207.367 39.5766 207.348 39.4456L205.844 28.7606L202.486 29.2336C202.356 29.2516 202.241 29.2256 202.141 29.1526C202.042 29.0806 201.98 28.9636 201.958 28.8016L201.617 26.3786Z" fill="#4CA757"/>
<path fill-rule="evenodd" clip-rule="evenodd" d="M216.746 35.724C216.728 35.594 216.75 35.485 216.809 35.397C216.87 35.309 216.973 35.254 217.115 35.235L219.691 34.871C219.802 34.856 219.911 34.88 220.02 34.945C220.129 35.009 220.192 35.106 220.211 35.236L220.605 38.037C220.691 38.648 220.613 39.248 220.371 39.836C220.129 40.424 219.734 40.927 219.189 41.342C219.173 41.364 219.129 41.38 219.057 41.39C218.966 41.403 218.891 41.402 218.833 41.387C218.773 41.372 218.725 41.344 218.686 41.303L217.934 40.842C217.856 40.799 217.801 40.752 217.77 40.7C217.74 40.648 217.722 40.596 217.714 40.544C217.702 40.46 217.734 40.369 217.809 40.272C217.886 40.175 217.97 40.065 218.061 39.943C218.154 39.82 218.234 39.683 218.302 39.531C218.371 39.378 218.391 39.205 218.363 39.01L218.303 38.58C218.285 38.457 218.217 38.396 218.099 38.4L217.542 38.478C217.273 38.503 217.12 38.378 217.082 38.105L216.746 35.724Z" fill="#4CA757"/>
<path fill-rule="evenodd" clip-rule="evenodd" d="M84.7777 101.821C84.0737 101.591 84.0147 100.601 84.6877 100.292C85.9547 99.7096 86.8557 99.1206 87.3937 98.5246C87.9587 97.8986 88.4847 96.8616 88.9707 95.4136C89.2107 94.7036 90.1837 94.6426 90.5077 95.3186C91.1847 96.7286 91.8217 97.7166 92.4187 98.2816C92.9897 98.8226 93.8947 99.3286 95.1337 99.7976C95.8107 100.054 95.8777 100.995 95.2247 101.306C94.0587 101.861 93.2117 102.433 92.6827 103.021C92.1357 103.63 91.6107 104.613 91.1067 105.971C90.8487 106.665 89.8987 106.708 89.5777 106.042C88.9557 104.754 88.3157 103.828 87.6587 103.264C87.0317 102.726 86.0717 102.245 84.7777 101.821Z" fill="#FFD37B"/>
<path fill-rule="evenodd" clip-rule="evenodd" d="M234.746 83.5825C234.228 83.4135 234.185 82.6855 234.68 82.4575C235.612 82.0295 236.275 81.5965 236.671 81.1585C237.086 80.6975 237.474 79.9345 237.831 78.8695C238.008 78.3475 238.724 78.3025 238.962 78.7995C239.46 79.8365 239.928 80.5635 240.367 80.9795C240.787 81.3775 241.453 81.7495 242.365 82.0945C242.863 82.2825 242.912 82.9755 242.432 83.2035C241.573 83.6125 240.95 84.0325 240.561 84.4655C240.16 84.9135 239.773 85.6365 239.402 86.6355C239.213 87.1455 238.514 87.1775 238.277 86.6875C237.819 85.7405 237.35 85.0595 236.866 84.6445C236.404 84.2485 235.698 83.8945 234.746 83.5825Z" fill="#F1C163"/>
<path fill-rule="evenodd" clip-rule="evenodd" d="M282.746 133.583C282.228 133.414 282.185 132.686 282.68 132.458C283.612 132.03 284.275 131.597 284.671 131.159C285.086 130.698 285.474 129.935 285.831 128.87C286.008 128.348 286.724 128.303 286.962 128.8C287.46 129.837 287.928 130.564 288.367 130.98C288.787 131.378 289.453 131.75 290.365 132.095C290.863 132.283 290.912 132.976 290.432 133.204C289.573 133.613 288.95 134.033 288.561 134.466C288.16 134.914 287.773 135.637 287.402 136.636C287.213 137.146 286.514 137.178 286.277 136.688C285.819 135.741 285.35 135.06 284.866 134.645C284.404 134.249 283.698 133.895 282.746 133.583Z" fill="#FFD37B"/>
<path fill-rule="evenodd" clip-rule="evenodd" d="M33.1488 126.396C32.6308 126.227 32.5878 125.499 33.0828 125.271C34.0138 124.843 34.6778 124.41 35.0738 123.972C35.4888 123.511 35.8758 122.748 36.2338 121.683C36.4098 121.161 37.1268 121.116 37.3648 121.613C37.8618 122.65 38.3308 123.377 38.7698 123.793C39.1898 124.191 39.8558 124.562 40.7678 124.908C41.2648 125.096 41.3148 125.789 40.8348 126.017C39.9758 126.426 39.3528 126.846 38.9638 127.279C38.5618 127.727 38.1758 128.45 37.8048 129.449C37.6158 129.959 36.9168 129.991 36.6798 129.501C36.2218 128.554 35.7528 127.873 35.2688 127.458C34.8068 127.062 34.1008 126.708 33.1488 126.396Z" fill="#FFD37B"/>
<path fill-rule="evenodd" clip-rule="evenodd" d="M132.909 153.415C132.391 153.245 132.348 152.517 132.843 152.29C133.774 151.862 134.438 151.429 134.834 150.99C135.249 150.53 135.636 149.767 135.994 148.702C136.17 148.179 136.887 148.134 137.125 148.632C137.622 149.669 138.091 150.395 138.53 150.811C138.95 151.21 139.616 151.582 140.528 151.927C141.025 152.115 141.075 152.807 140.595 153.036C139.736 153.444 139.113 153.865 138.724 154.298C138.322 154.746 137.936 155.469 137.565 156.468C137.376 156.978 136.677 157.01 136.44 156.52C135.982 155.573 135.513 154.892 135.029 154.477C134.567 154.081 133.861 153.727 132.909 153.415Z" fill="#FFD37B"/>
<path d="M157.307 94.9144C157.307 94.9144 157.723 82.8604 167.7 82.8604C177.675 82.8604 177.259 94.9144 177.259 94.9144" stroke="#BBF0D3" stroke-width="2.91"/>
<path d="M19.2621 35.3721L8.4541 26.2271" stroke="#FFE7B8" stroke-width="2.91" stroke-linecap="round"/>
<path d="M37.9669 29.1372L31.7319 12.0952" stroke="#FFD37B" stroke-width="2.91" stroke-linecap="round"/>
<path d="M57.0874 26.6432L60.2054 12.3032" stroke="#FFE7B8" stroke-width="2.91" stroke-linecap="round"/>
</g>
</svg>
