<svg width="328" height="164" viewBox="0 0 328 164" fill="none" xmlns="http://www.w3.org/2000/svg">
<path d="M23.2189 161.504C33.6809 163.667 265.053 165.826 301.876 161.504C312.777 160.224 321.503 148.276 322.776 146.203C330.736 133.238 327.751 53.2794 325.761 26.266C324.69 11.7278 309.838 5.19571 302.871 3.03482C289.548 -1.09779 53.2799 -1.26366 22.2229 4.11573C8.32787 6.52168 3.29087 17.8712 2.29087 24.1796C-0.0421274 38.8847 -1.42113 129.331 2.31887 141.514C5.30487 151.239 12.7689 159.343 23.2189 161.504Z" fill="#EDFFF5"/>
<mask id="mask0_5567_161962" style="mask-type:alpha" maskUnits="userSpaceOnUse" x="0" y="0" width="328" height="164">
<path d="M23.2189 161.504C33.6809 163.667 265.053 165.826 301.876 161.504C312.777 160.224 321.503 148.276 322.776 146.203C330.736 133.238 327.751 53.2794 325.761 26.266C324.69 11.7278 309.838 5.19571 302.871 3.03482C289.548 -1.09779 53.2799 -1.26366 22.2229 4.11573C8.32787 6.52168 3.29087 17.8712 2.29087 24.1796C-0.0421274 38.8847 -1.42113 129.331 2.31887 141.514C5.30487 151.239 12.7689 159.343 23.2189 161.504Z" fill="white"/>
</mask>
<g mask="url(#mask0_5567_161962)">
<circle cx="54.1538" cy="103.074" r="22.1538" fill="#84D7CC"/>
<circle cx="54.1538" cy="101.432" r="22.1538" fill="white"/>
<mask id="mask1_5567_161962" style="mask-type:alpha" maskUnits="userSpaceOnUse" x="36" y="95" width="14" height="12">
<path fill-rule="evenodd" clip-rule="evenodd" d="M36.3379 97.7951V102.32C36.3379 103.129 36.9065 103.852 37.759 104.12L44.2829 106.185C44.7252 106.325 45.1937 106.324 45.6236 106.203V98.7732L49.8517 95.9309L36.3379 97.7951Z" fill="white"/>
</mask>
<g mask="url(#mask1_5567_161962)">
<path fill-rule="evenodd" clip-rule="evenodd" d="M34.0859 108.544H52.1044V93.6787H34.0859V108.544Z" fill="#1868AB"/>
</g>
<mask id="mask2_5567_161962" style="mask-type:alpha" maskUnits="userSpaceOnUse" x="45" y="95" width="6" height="12">
<path fill-rule="evenodd" clip-rule="evenodd" d="M49.6092 96.0261L45.3467 98.8667V106.292C45.7085 106.191 46.0417 106.012 46.3059 105.75L49.7512 102.347C50.1057 101.998 50.3018 101.542 50.3018 101.071V95.9309L49.6092 96.0261Z" fill="white"/>
</mask>
<g mask="url(#mask2_5567_161962)">
<path fill-rule="evenodd" clip-rule="evenodd" d="M43.0947 108.544H52.5552V93.6787H43.0947V108.544Z" fill="#135388"/>
</g>
<mask id="mask3_5567_161962" style="mask-type:alpha" maskUnits="userSpaceOnUse" x="36" y="93" width="15" height="7">
<path fill-rule="evenodd" clip-rule="evenodd" d="M41.5711 94.0013L36.3379 97.856L44.0269 99.8925C44.9164 100.128 45.8764 99.9073 46.5311 99.3174L50.3022 95.9213L43.0727 93.751C42.9094 93.7026 42.7412 93.678 42.5738 93.678C42.2136 93.678 41.8583 93.7896 41.5711 94.0013Z" fill="white"/>
</mask>
<g mask="url(#mask3_5567_161962)">
<path fill-rule="evenodd" clip-rule="evenodd" d="M34.0859 102.238H52.5557V91.4265H34.0859V102.238Z" fill="#63B5FA"/>
</g>
<mask id="mask4_5567_161962" style="mask-type:alpha" maskUnits="userSpaceOnUse" x="41" y="90" width="7" height="10">
<path fill-rule="evenodd" clip-rule="evenodd" d="M42.8919 90.7044C42.2354 91.049 41.9015 91.2172 41.2295 91.5479C41.9442 91.1975 42.8311 91.2525 43.7033 91.7784C45.4363 92.8229 46.224 95.1031 45.6898 97.1011C45.424 98.0923 44.9095 98.8545 44.2227 99.2188C44.8775 98.8709 45.209 98.7019 45.8793 98.3704C46.5825 98.0225 47.1331 97.2956 47.4227 96.3273C47.5409 95.931 47.6 95.5175 47.6049 95.1023V95.0088C47.5885 93.4137 46.7663 91.7973 45.3764 90.944C44.8545 90.6256 44.3351 90.4722 43.8551 90.4722C43.5089 90.4722 43.1831 90.5518 42.8919 90.7044Z" fill="white"/>
</mask>
<g mask="url(#mask4_5567_161962)">
<path fill-rule="evenodd" clip-rule="evenodd" d="M38.9775 101.47H49.8575V88.219H38.9775V101.47Z" fill="#ECCC8B"/>
</g>
<mask id="mask5_5567_161962" style="mask-type:alpha" maskUnits="userSpaceOnUse" x="40" y="91" width="6" height="8">
<path fill-rule="evenodd" clip-rule="evenodd" d="M41.6239 92.5177C41.0807 92.7679 40.6426 93.293 40.4153 94.0135C39.9607 95.4633 40.6081 97.2414 41.9127 98.0274C42.5708 98.4237 43.2387 98.4623 43.7786 98.1989C44.3259 97.933 44.6024 97.8026 45.1579 97.5441C44.6098 97.7993 43.9435 97.7616 43.2986 97.3776C42.0161 96.6137 41.3999 94.8684 41.8348 93.3981C42.0514 92.667 42.4748 92.1279 43.0114 91.8711C42.46 92.1328 42.1827 92.2633 41.6239 92.5177Z" fill="white"/>
</mask>
<g mask="url(#mask5_5567_161962)">
<path fill-rule="evenodd" clip-rule="evenodd" d="M38.0186 100.619H47.411V89.6179H38.0186V100.619Z" fill="#C69C45"/>
</g>
<mask id="mask6_5567_161962" style="mask-type:alpha" maskUnits="userSpaceOnUse" x="39" y="91" width="7" height="9">
<path fill-rule="evenodd" clip-rule="evenodd" d="M39.6741 93.5794C39.0874 95.5215 39.9489 97.8813 41.7352 98.9784C43.5206 100.078 45.1575 99.0965 45.6909 97.101C46.2242 95.1055 45.4349 92.818 43.7028 91.7726C43.2055 91.474 42.7108 91.3345 42.2439 91.3345C41.0821 91.3345 40.0925 92.1935 39.6741 93.5794ZM41.9132 98.0274C40.6078 97.2413 39.9604 95.4633 40.4158 94.0134C40.8712 92.562 42.2078 91.9269 43.4821 92.6834C44.7571 93.4391 45.3635 95.1753 44.9393 96.6571C44.6365 97.7123 43.8915 98.3589 43.016 98.3589C42.6632 98.3589 42.289 98.2539 41.9132 98.0274Z" fill="white"/>
</mask>
<g mask="url(#mask6_5567_161962)">
<path fill-rule="evenodd" clip-rule="evenodd" d="M37.2393 101.689H48.1086V89.0823H37.2393V101.689Z" fill="#D8B56D"/>
</g>
<mask id="mask7_5567_161962" style="mask-type:alpha" maskUnits="userSpaceOnUse" x="42" y="90" width="3" height="2">
<path fill-rule="evenodd" clip-rule="evenodd" d="M43.9997 90.0996C43.6444 90.2014 43.4648 90.2522 43.1062 90.3515C43.0102 90.5665 42.961 90.6715 42.8584 90.8799C43.1201 90.9915 43.2498 91.0465 43.5099 91.1573C43.8734 91.0613 44.0555 91.0112 44.4182 90.9144C44.5199 90.706 44.5708 90.6001 44.6668 90.386C44.4042 90.2727 44.2705 90.2153 44.0088 90.0996H43.9997Z" fill="white"/>
</mask>
<g mask="url(#mask7_5567_161962)">
<path fill-rule="evenodd" clip-rule="evenodd" d="M40.6064 93.4088H46.9187V87.8457H40.6064V93.4088Z" fill="#FF728C"/>
</g>
<mask id="mask8_5567_161962" style="mask-type:alpha" maskUnits="userSpaceOnUse" x="42" y="90" width="2" height="2">
<path fill-rule="evenodd" clip-rule="evenodd" d="M42.6787 91.3181C42.9839 91.447 43.1357 91.5101 43.4401 91.6373C43.4697 91.447 43.4845 91.3501 43.5099 91.1573C43.2498 91.0465 43.1201 90.9916 42.8584 90.88C42.7887 91.0572 42.7526 91.145 42.6787 91.3181Z" fill="white"/>
</mask>
<g mask="url(#mask8_5567_161962)">
<path fill-rule="evenodd" clip-rule="evenodd" d="M40.4268 93.8896H45.7626V88.6277H40.4268V93.8896Z" fill="#FF3E61"/>
</g>
<mask id="mask9_5567_161962" style="mask-type:alpha" maskUnits="userSpaceOnUse" x="43" y="90" width="2" height="2">
<path fill-rule="evenodd" clip-rule="evenodd" d="M43.5102 91.1573C43.4839 91.3502 43.4708 91.447 43.4404 91.6373C43.872 91.5266 44.0886 91.47 44.5194 91.3575C44.4808 91.1811 44.4603 91.0933 44.4185 90.9136C44.0558 91.0113 43.8737 91.0613 43.5102 91.1573Z" fill="white"/>
</mask>
<g mask="url(#mask9_5567_161962)">
<path fill-rule="evenodd" clip-rule="evenodd" d="M41.1885 93.8897H46.7721V88.6614H41.1885V93.8897Z" fill="#FE0B37"/>
</g>
<mask id="mask10_5567_161962" style="mask-type:alpha" maskUnits="userSpaceOnUse" x="44" y="90" width="1" height="2">
<path fill-rule="evenodd" clip-rule="evenodd" d="M44.4181 90.9144C44.46 91.0933 44.4805 91.1811 44.519 91.3575C44.6446 91.1154 44.7053 90.9932 44.8243 90.7446C44.7627 90.6026 44.7307 90.5304 44.6667 90.386C44.5707 90.6001 44.5199 90.706 44.4181 90.9144Z" fill="white"/>
</mask>
<g mask="url(#mask10_5567_161962)">
<path fill-rule="evenodd" clip-rule="evenodd" d="M42.166 93.6099H47.0768V88.1338H42.166V93.6099Z" fill="#FF3E61"/>
</g>
<mask id="mask11_5567_161962" style="mask-type:alpha" maskUnits="userSpaceOnUse" x="39" y="95" width="9" height="5">
<path fill-rule="evenodd" clip-rule="evenodd" d="M39.041 96.1739V98.5862L42.351 99.5683C44.1159 100.091 46.0211 99.4781 47.1493 98.0233C45.4172 96.3109 43.1067 95.9302 41.3959 95.9302C40.0273 95.9302 39.041 96.1739 39.041 96.1739Z" fill="white"/>
</mask>
<g mask="url(#mask11_5567_161962)">
<path fill-rule="evenodd" clip-rule="evenodd" d="M36.7891 102.004H49.4028V93.6787H36.7891V102.004Z" fill="#63B5FA"/>
</g>
<mask id="mask12_5567_161962" style="mask-type:alpha" maskUnits="userSpaceOnUse" x="50" y="95" width="23" height="18">
<path fill-rule="evenodd" clip-rule="evenodd" d="M62.8171 95.4444C62.7145 95.4477 62.6185 95.4969 62.5537 95.5757C62.488 95.6545 62.4601 95.7587 62.4766 95.8596L63.0361 99.3435C63.0681 99.5248 63.2322 99.6537 63.416 99.6422C66.6366 99.4412 69.4443 100.214 70.9689 101.692C70.04 104.285 66.6915 106.748 62.3305 107.755C57.9678 108.763 53.8784 108.017 51.9075 106.092C52.6296 104.095 54.8146 102.17 57.7972 100.938C57.9678 100.869 58.0581 100.682 58.0072 100.505L56.984 97.1273C56.9529 97.0297 56.8831 96.9493 56.7896 96.9066C56.6977 96.8639 56.5894 96.8631 56.4958 96.9033C52.5959 98.6149 50.1648 101.524 50.7711 104.154L51.741 108.35C52.5024 111.649 57.6774 113.268 63.3028 111.97C68.376 110.8 72.0774 107.656 72.1988 104.632V104.326C72.1898 104.098 72.1602 103.873 72.1086 103.649L71.1346 99.4354C70.5471 96.946 67.3996 95.4321 63.4489 95.4321C63.2404 95.4321 63.0296 95.4354 62.8171 95.4444Z" fill="white"/>
</mask>
<g mask="url(#mask12_5567_161962)">
<path fill-rule="evenodd" clip-rule="evenodd" d="M49.2314 96.0109L73.988 90.2952L78.6501 110.486L53.8928 116.201L49.2314 96.0109Z" fill="#ECCC8B"/>
</g>
<mask id="mask13_5567_161962" style="mask-type:alpha" maskUnits="userSpaceOnUse" x="52" y="104" width="20" height="7">
<path fill-rule="evenodd" clip-rule="evenodd" d="M70.9158 104.533C70.7927 104.533 70.677 104.597 70.6114 104.702C69.2559 106.86 66.2381 108.703 62.7353 109.511C59.2325 110.32 55.7125 109.987 53.548 108.642C53.379 108.536 53.1574 108.587 53.0524 108.756C52.9474 108.925 52.9991 109.148 53.1681 109.253C55.523 110.718 59.1603 111.077 62.8978 110.214C66.6352 109.35 69.7466 107.434 71.2227 105.085C71.2908 104.977 71.2957 104.839 71.235 104.725C71.1751 104.611 71.0594 104.538 70.9306 104.533C70.9256 104.533 70.9207 104.533 70.9158 104.533Z" fill="white"/>
</mask>
<g mask="url(#mask13_5567_161962)">
<mask id="mask14_5567_161962" style="mask-type:alpha" maskUnits="userSpaceOnUse" x="50" y="96" width="9" height="11">
<path fill-rule="evenodd" clip-rule="evenodd" d="M56.4962 96.9033C52.5971 98.6133 50.1651 101.524 50.7723 104.155C50.8133 104.332 50.8683 104.506 50.9372 104.674C50.9717 104.762 51.0111 104.851 51.0521 104.934C51.1128 105.062 51.1826 105.187 51.2605 105.306C51.3393 105.425 51.423 105.543 51.5108 105.656C51.6338 105.811 51.7659 105.957 51.9079 106.094C52.6299 104.095 54.8158 102.17 57.7975 100.938C57.9682 100.869 58.0593 100.683 58.0076 100.505L56.9836 97.1273C56.9532 97.0289 56.8835 96.9493 56.7899 96.9066C56.7423 96.8853 56.6915 96.8738 56.6398 96.8738C56.5906 96.8738 56.5421 96.8844 56.4962 96.9033Z" fill="white"/>
</mask>
<g mask="url(#mask14_5567_161962)">
<path fill-rule="evenodd" clip-rule="evenodd" d="M49.2314 96.0109L61.2905 93.2261L64.0868 105.341L52.0278 108.125L49.2314 96.0109Z" fill="#C69C45"/>
</g>
<path fill-rule="evenodd" clip-rule="evenodd" d="M52.6855 106.169L75.3358 100.94L77.1902 108.973L54.5407 114.202L52.6855 106.169Z" fill="#C69C45"/>
</g>
<path fill-rule="evenodd" clip-rule="evenodd" d="M63.5894 78.2433L62.5145 80.2079L60.5509 81.2818C60.2265 81.4596 60.2265 81.9251 60.5509 82.1028L62.5145 83.1768L63.5894 85.1413C63.7662 85.4657 64.2327 85.4657 64.4095 85.1413L65.4844 83.1768L67.4489 82.1028C67.7733 81.9251 67.7733 81.4596 67.4489 81.2818L65.4844 80.2079L64.4095 78.2433C64.2327 77.9189 63.7662 77.9189 63.5894 78.2433Z" fill="#FFD37B"/>
<path fill-rule="evenodd" clip-rule="evenodd" d="M37.7437 110.243L36.6688 112.208L34.7052 113.282C34.3808 113.46 34.3808 113.925 34.7052 114.103L36.6688 115.177L37.7437 117.141C37.9205 117.466 38.387 117.466 38.5638 117.141L39.6387 115.177L41.6032 114.103C41.9276 113.925 41.9276 113.46 41.6032 113.282L39.6387 112.208L38.5638 110.243C38.387 109.919 37.9205 109.919 37.7437 110.243Z" fill="#FFD37B"/>
<path d="M253.064 60.874H368.134V70.1541H253.064V60.874Z" fill="#BBF0D3"/>
<path d="M297.266 -0.371094H307.024V61.559H297.266V-0.371094Z" fill="#BBF0D3"/>
<path d="M307.024 61.5586H316.785V21.8113H307.024V61.5586Z" fill="#84D7CC"/>
<path d="M326.542 61.5585H336.302V10.5662H326.542V61.5585Z" fill="#84D7CC"/>
<path d="M316.785 6.54614H326.544V61.5589H316.785V6.54614Z" fill="#BBF0D3"/>
<path d="M273.479 58.9048L282.845 61.6502L297.266 12.4488L287.901 9.70386L273.479 58.9048Z" fill="#BBF0D3"/>
<path d="M323.456 129.211C321.991 133.865 315.688 129.479 312.514 134.653C308.342 141.453 315.747 147.584 313.543 151.687C311.152 156.137 301.282 155.195 298.273 163.462C296.747 167.654 296.687 172.301 298.569 177.175H333.026C334.125 175.485 334.974 173.668 335.474 171.736C337.98 162.047 329.435 161.218 331.195 157.828C333.468 153.448 341.036 151.684 341.53 145.401C342.112 138.01 334.608 136.277 334.982 132.607C335.509 127.434 336.028 116.467 331.147 115.107C330.818 115.015 330.504 114.971 330.207 114.971C325.692 114.971 324.767 125.04 323.456 129.211Z" fill="#BBF0D3"/>
<path d="M312.531 185.508C312.531 185.508 323.43 159.023 330.475 127.217" stroke="white" stroke-width="0.63014"/>
<path d="M325.664 146.354L318.252 137.624" stroke="white" stroke-width="0.63014"/>
<path d="M298.706 190.053C290.901 185.785 282.376 178.505 280.064 169.071C277.042 156.747 287.343 155.692 285.221 151.379C282.482 145.808 273.359 143.564 272.763 135.571C272.063 126.169 281.108 123.964 280.657 119.295C280.022 112.715 279.396 98.7633 285.28 97.0336C291.711 95.1427 292.865 109.32 294.551 114.974C296.315 120.896 303.913 115.316 307.74 121.898C312.768 130.549 303.842 138.347 306.499 143.567C309.381 149.228 321.278 148.029 324.905 158.547C327.246 165.335 326.725 173.062 322.154 181.13C315.21 184.115 306.353 186.969 298.706 190.053Z" fill="#84D7CC"/>
<path d="M299.089 159.438C299.089 159.438 291.192 138.084 286.089 112.438" stroke="white" stroke-width="0.78057"/>
<path d="M243.395 77.9573C243.362 77.7164 242.364 72.2091 242.374 70.4905C242.385 68.7714 238.792 65.8269 238.453 65.1375C238.193 64.6107 233.905 60.7727 231.891 58.9872C231.218 58.3902 230.172 58.4707 229.623 59.1828C228.86 60.1717 228.343 61.7905 230.191 63.902C233.384 67.5484 237.536 74.5871 237.536 74.5871L240.504 78.3525L243.395 77.9573Z" fill="#FFB38F"/>
<path fill-rule="evenodd" clip-rule="evenodd" d="M290.113 146.64C296.899 155.981 302.142 163.196 303.023 164.664C303.35 165.208 259.926 164.686 259.027 164.349C257.228 163.675 254.779 155.999 252.119 147.658C248.888 137.53 245.345 126.422 242.273 125.683C215.173 119.171 209.376 114.203 208.036 113.054C207.895 112.934 207.804 112.856 207.742 112.822C207.72 112.81 207.699 112.799 207.677 112.789C206.308 112.159 205.181 111.102 204.466 109.775L202.743 106.58C202.661 106.429 202.551 106.295 202.423 106.183C198.987 103.184 199.318 100.929 199.757 99.9196C199.891 99.61 200.147 99.3815 200.447 99.2256C200.832 99.0254 201.069 98.599 201.007 98.1449C200.905 97.401 202.204 89.8349 203.179 88.5994C203.301 88.4452 203.489 88.2086 203.725 87.9131C204.922 86.4097 207.334 83.3797 208.379 81.889C209.281 80.6008 210.763 79.8444 212.335 79.8676C215.054 79.9084 219.471 80.044 223.13 80.4828C226.895 80.9341 227.203 80.0615 226.97 79.4083C226.842 79.0494 226.548 78.7756 226.195 78.6299C220.818 76.4038 216.774 72.3849 215.721 71.2736C215.543 71.0865 215.317 70.9566 215.068 70.8892C210.622 69.6847 197.661 62.1382 194.127 60.081C193.89 59.9428 193.695 59.8293 193.548 59.7442C191.15 58.3545 190.557 54.0187 192.593 52.7588C194.629 51.4995 207.278 57.8675 207.278 57.8675C205.73 57.0232 204.894 55.9663 204.479 54.906C203.488 52.3749 206.049 49.9238 208.57 50.9387C210.089 51.5502 211.606 52.4271 213.129 53.3075C214.24 53.9495 215.354 54.5933 216.474 55.1373C218.57 56.1557 221.594 57.8782 223.967 59.2691C227.061 61.0818 229.841 63.381 232.198 66.0827C233.529 67.6085 234.999 69.4586 236.386 71.5543C238.955 75.4359 241.134 76.4662 242.372 76.7043C243.091 76.8421 244.284 77.2985 244.788 77.6172C246.095 78.4434 246.757 80.0168 247.953 82.8623C249.125 85.6505 250.811 89.6601 254.121 95.3847C258.977 103.783 277.298 129.001 290.113 146.64ZM219.81 106.455C220.707 105.842 226.925 101.066 228.107 98.9415C228.107 98.9415 228.85 95.4046 228.478 94.4741C228.105 93.5431 223.263 86.8446 213.278 89.1908C213.278 89.1908 209.404 93.1558 208.232 93.5612C208.232 93.5612 208.409 98.4448 205.102 99.3877C205.102 99.3877 209.768 101.203 211.367 103.929C211.367 103.929 218.912 107.069 219.81 106.455Z" fill="#FFDAB8"/>
<path d="M227.536 79.5119C227.536 79.5119 237.308 78.2986 239.739 79.9292C242.17 81.5599 244.383 85.1831 244.383 85.1831" stroke="#FFB38F" stroke-width="0.5" stroke-linecap="round" stroke-linejoin="round"/>
<path d="M207.277 57.8672C207.277 57.8672 219.662 62.3085 221.24 63.0739C222.817 63.84 231.984 71.6651 231.984 71.6651C231.984 71.6651 226.922 61.5612 207.277 57.8672Z" fill="#FFB38F"/>
<path d="M224.785 102.463C224.785 102.463 231.522 97.002 232.672 94.6365" stroke="#FFB38F" stroke-width="0.5" stroke-linecap="round" stroke-linejoin="round"/>
<path d="M213.278 89.191C213.278 89.191 211.295 87.2536 210.999 85.0859" stroke="#FFB38F" stroke-width="0.5" stroke-linecap="round" stroke-linejoin="round"/>
<path d="M210.573 104.406C210.573 104.406 208.641 105.528 208.872 107.215" stroke="#FFB38F" stroke-width="0.5" stroke-linecap="round" stroke-linejoin="round"/>
<path d="M250.22 130.384C248.182 125.518 243.503 122.338 238.233 122.079C227.53 121.552 213.237 116.308 213.237 116.308C217.889 118.605 226.448 121.881 242.273 125.683C247.876 127.03 255.043 162.857 259.027 164.349C259.258 164.436 261.332 163.247 264.274 161.427C263.496 161.749 255.257 142.412 250.22 130.384Z" fill="#FFB38F"/>
<mask id="mask15_5567_161962" style="mask-type:alpha" maskUnits="userSpaceOnUse" x="122" y="42" width="58" height="93">
<path fill-rule="evenodd" clip-rule="evenodd" d="M162.33 43.0058L128.81 47.2787C128.795 47.281 128.778 47.2832 128.76 47.2861C124.97 47.802 122.38 51.8113 122.968 56.2679L132.211 127.486C132.727 131.451 136.021 134.387 139.9 134.612L139.97 134.616C140.453 134.64 140.944 134.622 141.44 134.559L172.424 130.607C176.412 130.099 179.367 126.841 179.606 123L179.614 122.86C179.635 122.394 179.615 121.919 179.554 121.439L170.31 50.2328C169.759 46.0546 166.612 42.957 163.092 42.957C162.839 42.957 162.585 42.9729 162.33 43.0058Z" fill="white"/>
</mask>
<g mask="url(#mask15_5567_161962)">
<path d="M120.079 36.8931L187.77 40.5071L182.424 140.642L114.733 137.028L120.079 36.8931Z" fill="#252528"/>
</g>
<mask id="mask16_5567_161962" style="mask-type:alpha" maskUnits="userSpaceOnUse" x="125" y="42" width="57" height="93">
<path fill-rule="evenodd" clip-rule="evenodd" d="M164.422 42.9174L131.043 47.2034C131.026 47.2056 131.009 47.209 130.994 47.2107C127.219 47.729 124.64 51.7518 125.226 56.2249L134.434 127.7C135.015 132.199 139.128 135.378 143.625 134.799L174.478 130.835C178.979 130.257 182.159 126.137 181.578 121.635L172.37 50.1699C171.821 45.9775 168.685 42.8687 165.18 42.8687C164.929 42.8687 164.676 42.8845 164.422 42.9174Z" fill="white"/>
</mask>
<g mask="url(#mask16_5567_161962)">
<path d="M122.339 36.814L189.81 40.4161L184.447 140.873L116.976 137.271L122.339 36.814Z" fill="#58585B"/>
</g>
<mask id="mask17_5567_161962" style="mask-type:alpha" maskUnits="userSpaceOnUse" x="128" y="47" width="51" height="85">
<path fill-rule="evenodd" clip-rule="evenodd" d="M164.669 47.4041L159.32 48.1004C158.635 48.1894 158.02 48.1678 157.963 49.0325L157.9 49.9947C157.846 50.8605 157.324 51.5301 156.637 51.6197L141.428 53.598C140.742 53.6864 140.068 53.1722 139.794 52.35L139.489 51.4354C139.241 50.6915 138.743 50.7641 138.143 50.8514C138.079 50.8611 138.014 50.8707 137.949 50.8787L132.599 51.5727C132.59 51.5744 132.578 51.5761 132.568 51.5772C130.111 51.9185 128.453 54.7116 128.855 57.8335L137.611 126.397C138.056 129.873 141.203 132.326 144.645 131.877L173.192 128.166C176.641 127.716 179.078 124.527 178.634 121.048L169.88 52.4986C169.501 49.5609 167.429 47.374 165.134 47.374C164.98 47.374 164.825 47.3837 164.669 47.4041Z" fill="white"/>
</mask>
<g mask="url(#mask17_5567_161962)">
<path d="M125.847 41.5122L186.571 44.7543L181.608 137.715L120.884 134.473L125.847 41.5122Z" fill="white"/>
</g>
<mask id="mask18_5567_161962" style="mask-type:alpha" maskUnits="userSpaceOnUse" x="173" y="59" width="3" height="9">
<path fill-rule="evenodd" clip-rule="evenodd" d="M174.035 59.1308L173.016 59.26L174.099 67.3942L175.116 67.2666C175.436 67.2247 175.662 66.9355 175.62 66.6225L174.69 59.628C174.651 59.3377 174.4 59.1262 174.109 59.1262C174.084 59.1262 174.059 59.1274 174.035 59.1308Z" fill="white"/>
</mask>
<g mask="url(#mask18_5567_161962)">
<path d="M169.478 55.1189L179.974 55.6791L179.133 71.4224L168.638 70.8622L169.478 55.1189Z" fill="#252528"/>
</g>
<mask id="mask19_5567_161962" style="mask-type:alpha" maskUnits="userSpaceOnUse" x="174" y="68" width="3" height="9">
<path fill-rule="evenodd" clip-rule="evenodd" d="M175.392 68.6995C175.39 68.6995 175.389 68.6995 175.387 68.7001L174.473 68.8129L175.324 76.1227L176.238 76.0104C176.527 75.9753 176.732 75.7173 176.698 75.4338L175.967 69.1492C175.938 68.8883 175.713 68.6956 175.453 68.6956C175.433 68.6956 175.413 68.6967 175.392 68.6995Z" fill="white"/>
</mask>
<g mask="url(#mask19_5567_161962)">
<path d="M177.964 64.2029L168.964 67.0005L173.16 80.5013L182.161 77.7037L177.964 64.2029Z" fill="#252528"/>
</g>
<mask id="mask20_5567_161962" style="mask-type:alpha" maskUnits="userSpaceOnUse" x="142" y="47" width="10" height="3">
<path fill-rule="evenodd" clip-rule="evenodd" d="M150.179 47.3355L143.397 48.2603C143.396 48.2603 143.393 48.2608 143.392 48.2614C142.983 48.3198 142.693 48.711 142.744 49.1397L142.764 49.2922C142.817 49.7197 143.195 50.0219 143.609 49.9658L150.391 49.0393C150.802 48.9826 151.094 48.5891 151.042 48.1605L151.022 48.0091C150.974 47.6156 150.653 47.3281 150.281 47.3281C150.248 47.3281 150.213 47.331 150.179 47.3355Z" fill="white"/>
</mask>
<g mask="url(#mask20_5567_161962)">
<path d="M139.301 42.9822L155.045 43.8225L154.485 54.3182L138.741 53.4779L139.301 42.9822Z" fill="#252528"/>
</g>
<mask id="mask21_5567_161962" style="mask-type:alpha" maskUnits="userSpaceOnUse" x="152" y="46" width="3" height="4">
<path fill-rule="evenodd" clip-rule="evenodd" d="M153.554 46.7696C153.552 46.7685 153.549 46.7691 153.548 46.7696C152.935 46.8553 152.504 47.4166 152.584 48.0307C152.664 48.6487 153.229 49.0836 153.845 49.0019C154.463 48.9225 154.897 48.3578 154.816 47.7409C154.744 47.1734 154.26 46.76 153.702 46.76C153.653 46.76 153.604 46.7628 153.554 46.7696Z" fill="white"/>
</mask>
<g mask="url(#mask21_5567_161962)">
<path d="M149.088 42.7527L158.833 43.2732L158.314 53.0188L148.567 52.4983L149.088 42.7527Z" fill="#252528"/>
</g>
<mask id="mask22_5567_161962" style="mask-type:alpha" maskUnits="userSpaceOnUse" x="128" y="56" width="46" height="77">
<path fill-rule="evenodd" clip-rule="evenodd" d="M128.773 58.0495L137.697 126.476C138.149 129.944 141.34 132.395 144.826 131.949L173.018 128.361C139.559 128.374 129.78 63.187 128.805 56.0173C128.7 56.6626 128.681 57.3469 128.773 58.0495Z" fill="white"/>
</mask>
<g mask="url(#mask22_5567_161962)">
<path d="M125.215 52.0664L180.692 55.0284L176.289 137.493L120.812 134.531L125.215 52.0664Z" fill="#C3DFF8"/>
</g>
<mask id="mask23_5567_161962" style="mask-type:alpha" maskUnits="userSpaceOnUse" x="137" y="111" width="26" height="17">
<path fill-rule="evenodd" clip-rule="evenodd" d="M157.998 112.056C155.355 113.419 147.263 119.09 147.263 119.09L141.069 122.534L137.6 123.825L137.19 127.777L146.027 122.97L162.956 112.491C162.956 112.491 161.738 111.545 160.061 111.545C159.426 111.545 158.724 111.681 157.998 112.056Z" fill="white"/>
</mask>
<g mask="url(#mask23_5567_161962)">
<path d="M135.763 105.858L167.055 108.606L164.456 133.708L133.164 130.96L135.763 105.858Z" fill="#C3E0FF"/>
</g>
<path d="M121.242 110.474C119.548 111.743 118.493 113.691 118.353 115.803L116.784 139.442C116.578 142.55 115.745 145.58 114.337 148.356L102.235 167.676L134.5 164.097L138.97 155.977C141.465 153.602 143.564 150.844 145.191 147.807L151.434 136.154C152.169 134.784 153.075 133.513 154.133 132.374L165.066 120.587C166.057 119.519 166.542 118.076 166.402 116.626C166.16 114.161 164.182 112.224 161.71 112.037L161.322 112.008C160.099 111.916 158.886 112.267 157.904 112.996L145.223 122.393C144.361 123.033 143.418 123.555 142.421 123.946L134.22 127.317C132.334 128.092 131.521 121.541 131.521 121.541L129.253 103.964L121.242 110.474Z" fill="#FFDAB8"/>
<path d="M136.711 152.294C134.821 155.167 125.846 167.465 125.143 168.26C123.899 169.666 111.235 167.178 106.34 162.638C106.34 162.638 108.389 167.826 116.869 170.346C125.756 172.986 130.045 170.31 130.045 170.31L141.601 152.484C141.601 152.484 146.025 149.651 154.316 131.8C154.316 131.8 146.722 143.749 141.706 147.279C139.756 148.651 138.021 150.302 136.711 152.294Z" fill="#FFB08C"/>
<rect x="125.857" y="106.916" width="62.04" height="13.2" transform="rotate(-8 125.857 106.916)" fill="#00AB4E"/>
<g clip-path="url(#clip0_5567_161962)">
<path d="M143.613 107.954L146.053 107.611C146.65 107.527 147.136 107.612 147.511 107.866C147.885 108.115 148.11 108.509 148.186 109.048C148.262 109.587 148.154 110.03 147.864 110.378C147.573 110.725 147.13 110.941 146.533 111.025L145.115 111.224L145.42 113.395L144.398 113.539L143.613 107.954ZM146.296 110.259C146.998 110.16 147.307 109.804 147.221 109.192C147.177 108.88 147.057 108.662 146.862 108.539C146.666 108.41 146.392 108.371 146.038 108.421L144.746 108.602L145.005 110.44L146.296 110.259ZM149.541 112.816L148.996 108.942L149.987 108.803L150.531 112.677L149.541 112.816ZM148.688 107.151L149.781 106.998L149.918 107.972L148.825 108.126L148.688 107.151ZM153.328 112.348C152.921 112.405 152.556 112.373 152.232 112.252C151.913 112.13 151.653 111.929 151.452 111.651C151.252 111.372 151.123 111.032 151.067 110.63C151.01 110.229 151.042 109.864 151.163 109.534C151.288 109.199 151.492 108.925 151.775 108.713C152.057 108.501 152.399 108.367 152.801 108.31C153.075 108.272 153.348 108.279 153.62 108.333C153.896 108.38 154.123 108.467 154.303 108.592L154.115 109.329C153.933 109.22 153.745 109.144 153.55 109.102C153.361 109.058 153.177 109.049 152.997 109.075C152.654 109.123 152.402 109.269 152.242 109.512C152.082 109.75 152.03 110.069 152.086 110.471C152.142 110.867 152.28 111.16 152.501 111.35C152.721 111.534 153.002 111.602 153.345 111.554C153.525 111.529 153.7 111.469 153.87 111.375C154.045 111.281 154.205 111.156 154.35 111.001L154.732 111.65C154.585 111.827 154.385 111.979 154.134 112.106C153.882 112.227 153.613 112.308 153.328 112.348ZM159.302 111.444L158.074 111.617L156.162 110.084L156.411 111.85L155.421 111.99L154.636 106.404L155.626 106.265L156.105 109.672L157.428 107.765L158.632 107.596L157.15 109.695L159.302 111.444ZM159.279 109.686L159.168 108.902L161.529 108.57L161.639 109.354L159.279 109.686ZM165.945 106.56L166.49 110.434L165.523 110.57L165.44 109.976C165.348 110.204 165.207 110.391 165.018 110.536C164.827 110.676 164.603 110.764 164.344 110.8C163.393 110.934 162.843 110.467 162.693 109.4L162.364 107.063L163.355 106.924L163.684 109.269C163.723 109.544 163.807 109.739 163.936 109.856C164.066 109.972 164.249 110.014 164.487 109.98C164.762 109.942 164.968 109.821 165.107 109.618C165.25 109.41 165.3 109.155 165.258 108.854L164.955 106.699L165.945 106.56ZM169.189 106.007C169.521 105.96 169.829 106.003 170.112 106.136C170.399 106.268 170.637 106.48 170.823 106.771C171.014 107.057 171.137 107.4 171.194 107.802C171.25 108.203 171.226 108.565 171.12 108.886C171.02 109.208 170.852 109.468 170.616 109.668C170.38 109.868 170.093 109.992 169.755 110.04C169.481 110.078 169.227 110.055 168.994 109.969C168.761 109.883 168.572 109.745 168.427 109.556L168.711 111.576L167.721 111.715L166.976 106.415L167.95 106.278L168.033 106.864C168.118 106.632 168.261 106.442 168.462 106.295C168.666 106.143 168.909 106.047 169.189 106.007ZM169.386 109.308C169.698 109.264 169.926 109.124 170.07 108.889C170.214 108.648 170.259 108.332 170.204 107.941C170.147 107.539 170.016 107.24 169.811 107.043C169.605 106.845 169.347 106.769 169.035 106.812C168.718 106.857 168.488 107 168.344 107.241C168.206 107.481 168.164 107.802 168.221 108.203C168.277 108.599 168.404 108.894 168.604 109.087C168.808 109.279 169.069 109.352 169.386 109.308Z" fill="white"/>
</g>
<mask id="mask24_5567_161962" style="mask-type:alpha" maskUnits="userSpaceOnUse" x="144" y="80" width="23" height="17">
<path fill-rule="evenodd" clip-rule="evenodd" d="M144.905 82.8125L164.081 80.1175L166.073 94.2897L146.897 96.9847L144.905 82.8125Z" fill="white"/>
</mask>
<g mask="url(#mask24_5567_161962)">
<path d="M164.763 85.1651L164.95 86.299L164.635 84.0579C164.512 83.1859 163.782 82.549 162.933 82.5152L161.328 82.3114C159.578 82.011 157.691 81.2636 155.933 81.5107L152.549 81.7383L146.918 84.2469C145.937 84.3848 145.254 85.2916 145.392 86.2726L145.52 85.4406L145.575 85.4969L151.818 84.6196C151.891 84.6094 151.958 84.6599 151.968 84.7327L152.709 90.001L154.644 89.729C154.752 89.7138 154.852 89.7891 154.868 89.8974L155.678 95.6649L155.753 95.7402L166.066 94.2863L164.763 85.1651Z" fill="#00AB4E"/>
</g>
<path d="M155.933 81.5107L152.549 81.7383L146.918 84.2469C145.937 84.3848 145.254 85.2916 145.392 86.2726L145.52 85.4406L145.575 85.4969L151.789 84.6237L151.839 84.6003C152.877 84.4226 153.694 84.6667 154.29 85.3327L155.753 95.7402L157.501 95.4938L156.051 85.1781L156.098 85.0928C156.649 84.0981 157.763 83.5558 158.886 83.736L164.721 84.6728L164.635 84.0579C164.512 83.1859 163.782 82.549 162.933 82.5152C159.438 81.6808 157.105 81.346 155.933 81.5107Z" fill="#00782E"/>
<path d="M153.188 71.3069C155.133 71.0335 157.066 71.4999 158.662 72.6205L158.469 71.2467C158.096 68.5906 155.639 66.7397 152.983 67.1131L152.229 67.219C149.572 67.5924 147.722 70.0485 148.095 72.7047L148.288 74.0785C149.513 72.5615 151.242 71.5803 153.188 71.3069Z" fill="#00AB4E"/>
<path d="M150.261 72.3485C149.95 69.9523 151.443 67.7292 153.7 67.0654C153.463 67.0638 153.224 67.0792 152.984 67.1131L152.23 67.219C149.573 67.5924 147.723 70.0483 148.096 72.7047L148.289 74.0785C148.85 73.3838 149.516 72.8018 150.261 72.3485Z" fill="#00883E"/>
<path d="M155.769 79.5498L152.98 79.9418C152.745 79.9749 152.512 79.9834 152.283 79.9702L152.529 81.7186C152.553 81.8884 152.643 82.0423 152.779 82.1466L154.792 83.6909C154.877 83.7554 154.998 83.7384 155.061 83.6531L156.571 81.6136C156.673 81.4759 156.717 81.3032 156.693 81.1334L156.447 79.3848C156.231 79.4607 156.004 79.5168 155.769 79.5498Z" fill="#FFB490"/>
<path d="M150.137 77.9887L149.706 74.9277L149.6 74.9427C149.522 75.0342 149.447 75.1278 149.374 75.2239C149.249 75.3907 149.066 75.4984 148.859 75.5275C148.692 75.551 148.525 75.5194 148.379 75.44C148.129 75.7234 148 76.1098 148.057 76.513L148.126 77.0072C148.229 77.7403 148.907 78.2509 149.64 78.1479L150.151 78.0761C150.146 78.0471 150.141 78.0182 150.137 77.9887Z" fill="#FFB490"/>
<path d="M158.951 73.9543C158.832 74.0709 158.681 74.1472 158.513 74.1708C158.307 74.1998 158.101 74.1467 157.935 74.021C157.838 73.9483 157.74 73.8794 157.64 73.8128L157.533 73.8278L157.964 76.8888C157.968 76.9184 157.971 76.9476 157.974 76.9768L158.485 76.9049C159.218 76.8019 159.729 76.1243 159.626 75.3914L159.556 74.8969C159.5 74.4937 159.269 74.1579 158.951 73.9543Z" fill="#FFB490"/>
<path d="M153.406 72.8524C151.933 73.0594 150.614 73.7761 149.65 74.8851L150.087 77.9958C150.308 79.5679 151.761 80.663 153.333 80.4421L155.568 80.128C157.14 79.9071 158.235 78.4539 158.014 76.8817L157.577 73.771C156.344 72.9709 154.879 72.6454 153.406 72.8524Z" fill="#FFDAB8"/>
<path d="M152.772 89.992L152.031 84.7237C152.016 84.6163 151.917 84.5416 151.81 84.5567L142.598 85.8514C142.49 85.8664 142.416 85.9656 142.431 86.0729L143.171 91.3412L152.772 89.992Z" fill="#84D653"/>
<path d="M155.753 95.7397L142.149 97.6517C142.006 97.6718 141.874 97.5724 141.854 97.4292L141.068 91.837C141.048 91.6939 141.147 91.5616 141.29 91.5415L154.636 89.6659C154.779 89.6458 154.911 89.7455 154.931 89.8886L155.753 95.7397Z" fill="#BBF0D3"/>
<path d="M158.52 74.2212C158.31 74.2508 158.087 74.2 157.904 74.0617C155.235 72.0503 151.427 72.5857 149.415 75.2547C149.139 75.6217 148.617 75.695 148.25 75.4184C147.884 75.142 147.81 74.6205 148.087 74.2537C150.65 70.8521 155.503 70.1701 158.905 72.7334C159.272 73.0097 159.345 73.5313 159.069 73.898C158.93 74.0815 158.731 74.1916 158.52 74.2212Z" fill="#00883E"/>
<path d="M150.261 73.948C151.305 72.5627 152.729 71.6284 154.28 71.1808C151.93 71.1767 149.606 72.2372 148.087 74.2536C147.81 74.6206 147.884 75.1421 148.251 75.4185C148.617 75.6946 149.139 75.6213 149.415 75.2548C149.624 74.9779 149.852 74.7247 150.095 74.4943C150.085 74.305 150.138 74.1112 150.261 73.948Z" fill="#00662E"/>
<path fill-rule="evenodd" clip-rule="evenodd" d="M165.049 119.637C165.964 118.502 166.347 117.029 166.106 115.592C165.693 113.15 163.585 111.356 161.106 111.341L160.716 111.34C159.49 111.333 158.304 111.768 157.375 112.564L145.381 122.823C144.837 123.288 151.393 122.226 165.049 119.637Z" fill="#FFDAB8"/>
</g>
<path d="M193.5 37.5L188 29" stroke="#F9953B" stroke-width="2" stroke-linecap="round"/>
<path d="M213.5 34.5L215 20" stroke="#F9953B" stroke-width="2" stroke-linecap="round"/>
<path d="M232.5 37.5L240 29" stroke="#F9953B" stroke-width="2" stroke-linecap="round"/>
<path d="M102.919 46.2872C102.919 59.2955 92.3736 69.841 79.3653 69.841C66.357 69.841 55.8115 59.2955 55.8115 46.2872C55.8115 33.2788 66.357 22.7334 79.3653 22.7334C92.3736 22.7334 102.919 33.2788 102.919 46.2872Z" fill="#84D7CC"/>
<path d="M102.919 44.5538C102.919 57.5621 92.3736 68.1076 79.3653 68.1076C66.357 68.1076 55.8115 57.5621 55.8115 44.5538C55.8115 31.5454 66.357 21 79.3653 21C92.3736 21 102.919 31.5454 102.919 44.5538Z" fill="white"/>
<rect x="74.1006" y="32.4568" width="19.0667" height="27.7333" rx="2.6" fill="#CC9D3F"/>
<mask id="mask25_5567_161962" style="mask-type:alpha" maskUnits="userSpaceOnUse" x="74" y="32" width="20" height="29">
<rect x="74.1006" y="32.4568" width="19.0667" height="27.7333" rx="2.6" fill="white"/>
</mask>
<g mask="url(#mask25_5567_161962)">
<rect x="71.501" y="32.4568" width="19.0667" height="27.7333" rx="2.6" fill="#FFC54F"/>
<path fill-rule="evenodd" clip-rule="evenodd" d="M81.7399 36.9898L78.85 39.1688C78.4963 39.4351 78.3477 39.9091 78.4831 40.3411L79.5866 43.8665C79.722 44.2985 80.11 44.59 80.5476 44.59H84.1196C84.5572 44.59 84.9452 44.2985 85.0806 43.8665L86.184 40.3411C86.3194 39.9091 86.1709 39.4351 85.8172 39.1688L82.9273 36.9898C82.5736 36.7235 82.0936 36.7235 81.7399 36.9898Z" fill="#CC9D3F"/>
<rect x="78.001" y="53.2568" width="8.66667" height="1.73333" rx="0.866667" fill="#CC9D3F"/>
<rect x="78.001" y="48.9233" width="8.66667" height="1.73333" rx="0.866667" fill="#CC9D3F"/>
</g>
<path opacity="0.5" fill-rule="evenodd" clip-rule="evenodd" d="M81.9011 32.4607L85.3678 32.4568V55.8568C85.3678 57.2927 84.2037 58.4568 82.7678 58.4568H74.9678V55.5683L81.9011 32.4607Z" fill="#CC9D3F"/>
<rect x="64.5674" y="29.8567" width="19.0667" height="27.7333" rx="2.6" fill="#CC9D3F"/>
<mask id="mask26_5567_161962" style="mask-type:alpha" maskUnits="userSpaceOnUse" x="64" y="29" width="20" height="29">
<rect x="64.5674" y="29.8567" width="19.0667" height="27.7333" rx="2.6" fill="white"/>
</mask>
<g mask="url(#mask26_5567_161962)">
<rect x="61.9678" y="29.8567" width="19.0667" height="27.7333" rx="2.6" fill="#FFC54F"/>
<path fill-rule="evenodd" clip-rule="evenodd" d="M72.2067 34.3897L69.3167 36.5687C68.9631 36.835 68.8145 37.309 68.9499 37.741L70.0534 41.2664C70.1888 41.6984 70.5768 41.9899 71.0144 41.9899H74.5864C75.024 41.9899 75.412 41.6984 75.5474 41.2664L76.6508 37.741C76.7862 37.309 76.6377 36.835 76.284 36.5687L73.394 34.3897C73.0404 34.1234 72.5604 34.1234 72.2067 34.3897Z" fill="#CC9D3F"/>
<rect x="68.4678" y="50.6567" width="8.66667" height="1.73333" rx="0.866667" fill="#CC9D3F"/>
<rect x="68.4678" y="46.3232" width="8.66667" height="1.73333" rx="0.866667" fill="#CC9D3F"/>
</g>
<path fill-rule="evenodd" clip-rule="evenodd" d="M55.4664 30.1137L54.3311 32.1887L52.257 33.3231C51.9143 33.5108 51.9143 34.0025 52.257 34.1903L54.3311 35.3246L55.4664 37.3997C55.6532 37.7424 56.1458 37.7424 56.3326 37.3997L57.4679 35.3246L59.543 34.1903C59.8857 34.0025 59.8857 33.5108 59.543 33.3231L57.4679 32.1887L56.3326 30.1137C56.1458 29.771 55.6532 29.771 55.4664 30.1137Z" fill="#FFD37B"/>
<path fill-rule="evenodd" clip-rule="evenodd" d="M97.066 24.0471L95.9307 26.1221L93.8566 27.2565C93.5139 27.4442 93.5139 27.9359 93.8566 28.1236L95.9307 29.258L97.066 31.333C97.2528 31.6757 97.7455 31.6757 97.9322 31.333L99.0676 29.258L101.143 28.1236C101.485 27.9359 101.485 27.4442 101.143 27.2565L99.0676 26.1221L97.9322 24.0471C97.7455 23.7044 97.2528 23.7044 97.066 24.0471Z" fill="#FFD37B"/>
<path fill-rule="evenodd" clip-rule="evenodd" d="M85.7994 65.6469L84.6641 67.7219L82.59 68.8563C82.2473 69.044 82.2473 69.5357 82.59 69.7235L84.6641 70.8578L85.7994 72.9329C85.9862 73.2756 86.4789 73.2756 86.6656 72.9329L87.801 70.8578L89.876 69.7235C90.2187 69.5357 90.2187 69.044 89.876 68.8563L87.801 67.7219L86.6656 65.6469C86.4789 65.3042 85.9862 65.3042 85.7994 65.6469Z" fill="#FFD37B"/>
<defs>
<clipPath id="clip0_5567_161962">
<rect width="30" height="12" fill="white" transform="translate(141.752 105.045) rotate(-8)"/>
</clipPath>
</defs>
</svg>
