<svg width="328" height="164" viewBox="0 0 328 164" fill="none" xmlns="http://www.w3.org/2000/svg">
<path d="M23.2189 161.504C33.6809 163.667 265.053 165.826 301.876 161.504C312.777 160.224 321.503 148.276 322.776 146.203C330.736 133.238 327.751 53.2794 325.761 26.266C324.69 11.7278 309.838 5.19571 302.871 3.03482C289.548 -1.09779 53.2799 -1.26366 22.2229 4.11573C8.32787 6.52168 3.29087 17.8712 2.29087 24.1796C-0.0421274 38.8847 -1.42113 129.331 2.31887 141.514C5.30487 151.239 12.7689 159.343 23.2189 161.504Z" fill="#EBFFE0"/>
<mask id="mask0_5567_163338" style="mask-type:alpha" maskUnits="userSpaceOnUse" x="0" y="0" width="328" height="164">
<path fill-rule="evenodd" clip-rule="evenodd" d="M23.2189 161.504C33.6809 163.667 265.053 165.826 301.876 161.504C312.777 160.224 321.503 148.276 322.776 146.203C330.736 133.238 327.751 53.2794 325.761 26.266C324.69 11.7278 309.838 5.19571 302.871 3.03482C289.548 -1.09779 53.2799 -1.26366 22.2229 4.11573C8.32787 6.52168 3.29087 17.8712 2.29087 24.1796C-0.0421274 38.8847 -1.42113 129.331 2.31887 141.514C5.30487 151.239 12.7689 159.343 23.2189 161.504Z" fill="white"/>
</mask>
<g mask="url(#mask0_5567_163338)">
<path d="M410 281C410 403.607 299.638 503 163.5 503C27.3616 503 -83 403.607 -83 281C-83 158.393 27.3616 59 163.5 59C299.638 59 410 158.393 410 281Z" fill="#B3EC91"/>
</g>
<mask id="mask1_5567_163338" style="mask-type:alpha" maskUnits="userSpaceOnUse" x="0" y="0" width="328" height="164">
<path fill-rule="evenodd" clip-rule="evenodd" d="M23.2189 161.504C33.6809 163.667 265.053 165.826 301.876 161.504C312.777 160.224 321.503 148.276 322.776 146.203C330.736 133.238 327.751 53.2794 325.761 26.266C324.69 11.7278 309.838 5.19571 302.871 3.03482C289.548 -1.09779 53.2799 -1.26366 22.2229 4.11573C8.32787 6.52168 3.29087 17.8712 2.29087 24.1796C-0.0421274 38.8847 -1.42113 129.331 2.31887 141.514C5.30487 151.239 12.7689 159.343 23.2189 161.504Z" fill="white"/>
</mask>
<g mask="url(#mask1_5567_163338)">
<mask id="mask2_5567_163338" style="mask-type:alpha" maskUnits="userSpaceOnUse" x="57" y="132" width="87" height="57">
<path fill-rule="evenodd" clip-rule="evenodd" d="M57 132.6H143.257V188.507H57V132.6Z" fill="white"/>
</mask>
<g mask="url(#mask2_5567_163338)">
<path d="M57 188.507C57 188.507 78.9636 159.355 78.9636 152.167C78.9636 152.167 72.9738 141.784 73.7724 134.197L143.257 132.6C143.257 132.6 136.867 157.359 121.293 164.547C121.293 164.547 109.712 186.111 109.313 187.309C108.914 188.507 57 188.507 57 188.507Z" fill="#F2CBA8"/>
</g>
<path d="M81.7588 156.56C81.7588 156.56 96.5344 151.768 110.91 163.348" stroke="#E79E5C" stroke-width="0.7986" stroke-linecap="round" stroke-linejoin="round"/>
<mask id="mask3_5567_163338" style="mask-type:alpha" maskUnits="userSpaceOnUse" x="73" y="132" width="71" height="14">
<path fill-rule="evenodd" clip-rule="evenodd" d="M73.772 132.6H143.256V145.943H73.772V132.6Z" fill="white"/>
</mask>
<g mask="url(#mask3_5567_163338)">
<path d="M75.3722 144.143C75.3722 144.143 118.072 149.304 139.849 142.15L143.257 132.6L73.772 134.197C73.772 134.197 74.177 140.91 75.3722 144.143Z" fill="#E79E5C"/>
</g>
<path d="M298.666 142.114H32.7519C24.9132 142.114 19.5758 134.06 22.5406 126.707L49.8131 59.0648C51.5081 54.8609 55.5436 52.114 60.0245 52.114H266.728C270.976 52.114 274.846 54.5851 276.679 58.4677L308.616 126.11C312.119 133.53 306.782 142.114 298.666 142.114Z" fill="#84D7CC"/>
<path d="M32.7505 142.114H298.669C305.553 142.114 310.436 135.731 309.621 129.114H21.7997C20.9764 135.778 25.9102 142.114 32.7505 142.114Z" fill="#47A99C"/>
<path d="M186.445 113.513C159.706 109.586 132.93 105.972 106.154 102.354C100.006 101.52 96.3924 98.5366 98.0731 95.6491C103.008 87.1696 105.373 83.2231 111.104 70.3216C113.056 65.9281 119.722 62.6236 125.861 63.6571C152.643 68.1826 179.536 71.9056 206.424 75.5716C212.608 76.4191 216.025 80.5396 214.146 84.3286C208.629 95.4616 206.188 99.4531 200.875 109.085C199.066 112.364 192.586 114.417 186.445 113.513Z" fill="#004D43"/>
<path d="M107.156 100.141C101.01 99.3268 97.3903 96.3703 99.0738 93.4348C104.016 84.8113 106.423 80.6098 112.311 66.8713C114.315 62.1913 121.019 58.6543 127.139 59.7448C153.84 64.5208 180.669 68.4238 207.493 72.2293C213.663 73.1083 217.036 77.4298 215.129 81.3823C209.527 92.9968 207.075 97.0858 201.808 106.605C200.015 109.845 193.56 111.843 187.419 110.97C160.686 107.175 133.918 103.681 107.156 100.141Z" fill="#117367"/>
<path d="M179.678 103.489C179.157 103.818 178.587 104.025 177.985 104.139C174.879 104.727 171.974 102.532 171.681 99.3798C171.402 96.3703 173.763 93.6905 176.779 93.5906C177.006 93.583 177.232 93.6078 177.458 93.5967C177.701 93.6351 177.943 93.6735 178.186 93.7119C178.451 93.7799 178.721 93.829 178.976 93.9354C179.723 94.2463 180.377 94.6902 180.924 95.2874C180.948 95.3131 180.972 95.3389 180.988 95.3704C180.993 95.384 180.993 95.3975 180.988 95.4111C180.951 95.4685 180.893 95.5002 180.838 95.5357C179.757 96.2346 179.027 97.2019 178.648 98.4287C178.314 99.5076 178.335 100.587 178.69 101.659C178.831 102.085 179.035 102.481 179.272 102.863C179.399 103.069 179.578 103.235 179.689 103.45C179.691 103.464 179.687 103.477 179.678 103.489Z" fill="#BCD430"/>
<path d="M179.678 103.489C179.677 103.478 179.677 103.468 179.676 103.457C179.999 103.241 180.321 103.022 180.605 102.754C181.302 102.095 181.78 101.305 182.051 100.385C182.362 99.3265 182.327 98.2762 181.99 97.2335C181.852 96.8075 181.655 96.4073 181.407 96.032C181.306 95.8784 181.205 95.7259 181.083 95.5874C181.038 95.5362 180.987 95.4837 180.98 95.4085C180.979 95.4036 180.98 95.3987 180.982 95.3941C180.999 95.3366 181.053 95.3197 181.097 95.295C181.695 94.9595 182.337 94.7528 183.015 94.6606C183.372 94.6121 183.728 94.598 184.085 94.6603C184.154 94.6634 184.22 94.6979 184.291 94.679C184.438 94.7023 184.585 94.7257 184.732 94.749C184.803 94.7956 184.893 94.7695 184.966 94.8089C186.028 95.0648 186.918 95.6086 187.653 96.4128C187.685 96.4482 187.72 96.4817 187.753 96.5162C187.749 96.5677 187.709 96.5889 187.672 96.612C187.062 96.9927 186.55 97.4784 186.135 98.0646C185.77 98.5811 185.512 99.1485 185.354 99.7621C185.091 100.782 185.118 101.792 185.452 102.791C185.654 103.395 185.962 103.943 186.358 104.442C186.387 104.478 186.432 104.507 186.422 104.564C186.367 104.57 186.325 104.605 186.28 104.63C185.151 105.248 183.951 105.442 182.689 105.201C181.541 104.982 180.57 104.43 179.775 103.571C179.747 103.54 179.728 103.495 179.678 103.489Z" fill="#74BD45"/>
<path d="M184.965 94.8186C184.884 94.8081 184.799 94.8191 184.731 94.7551C184.809 94.7674 184.887 94.7798 184.965 94.7921C184.964 94.8011 184.964 94.8098 184.965 94.8186Z" fill="#A7D589"/>
<path d="M184.074 94.6775C184.078 94.6694 184.08 94.6611 184.082 94.6525C184.151 94.6634 184.22 94.6744 184.29 94.6854C184.215 94.7265 184.145 94.6908 184.074 94.6775Z" fill="#B2DA99"/>
<path d="M186.422 104.564C185.847 103.89 185.463 103.12 185.267 102.255C185.09 101.474 185.099 100.692 185.276 99.9164C185.519 98.8537 186.044 97.9463 186.844 97.2014C187.123 96.9412 187.431 96.7193 187.753 96.5161C188.427 96.1321 189.144 95.8859 189.919 95.8059C192.962 95.4915 195.654 97.8199 195.776 100.874C195.891 103.756 193.741 106.197 190.858 106.406C189.086 106.535 187.602 105.898 186.422 104.564Z" fill="#0AA94E"/>
<path d="M180.98 95.4085C181.672 96.2047 182.095 97.1245 182.245 98.169C182.302 98.5671 182.306 98.9656 182.274 99.3677C182.195 100.365 181.844 101.257 181.263 102.065C180.87 102.611 180.37 103.046 179.811 103.415C179.77 103.441 179.728 103.464 179.676 103.457C178.814 102.442 178.363 101.267 178.382 99.9371C178.406 98.2967 179.058 96.9374 180.314 95.8741C180.521 95.698 180.741 95.5401 180.98 95.4085Z" fill="#0AA94E"/>
<path d="M188.411 99.0023C188.28 99.0548 188.18 99.0933 188.081 99.1346C187.942 99.1928 187.895 99.1759 187.835 99.0424C187.783 98.9268 187.848 98.8746 187.944 98.8333C188.545 98.5742 189.172 98.4272 189.827 98.4053C191.253 98.3577 192.479 98.8673 193.568 99.7556C193.64 99.8141 193.67 99.8712 193.604 99.9544C193.536 100.04 193.466 100.091 193.362 100.011C193.273 99.9425 193.185 99.8742 193.07 99.7852C193.142 100.066 193.205 100.314 193.269 100.562C193.51 101.498 193.752 102.433 193.993 103.369C194.053 103.599 194.002 103.743 193.803 103.878C193.559 104.043 193.279 104.092 192.992 104.108C192.332 104.145 191.702 104.031 191.112 103.721C190.964 103.644 190.829 103.546 190.721 103.417C190.555 103.217 190.544 103.048 190.682 102.831C191.349 101.783 192.014 100.735 192.684 99.6889C192.742 99.5981 192.745 99.5552 192.643 99.4945C191.476 98.7967 190.233 98.5618 188.896 98.8636C188.776 98.8909 188.746 98.9226 188.78 99.0502C189.096 100.255 189.404 101.463 189.715 102.669C189.784 102.938 189.718 103.101 189.476 103.239C189.242 103.371 188.984 103.418 188.719 103.432C188.064 103.467 187.437 103.356 186.851 103.05C186.699 102.971 186.56 102.872 186.449 102.739C186.281 102.535 186.27 102.373 186.411 102.152C187.049 101.148 187.688 100.145 188.326 99.1416C188.349 99.1059 188.37 99.0695 188.411 99.0023Z" fill="#FEFEFE"/>
<path d="M191.075 102.776C191.658 101.857 192.234 100.951 192.823 100.023C193.098 101.091 193.365 102.13 193.635 103.182C192.775 103.046 191.933 102.912 191.075 102.776Z" fill="#0AA94E"/>
<path d="M188.551 99.3469C188.826 100.415 189.093 101.455 189.364 102.506C188.508 102.37 187.666 102.237 186.803 102.1C187.383 101.187 187.958 100.281 188.551 99.3469Z" fill="#0AA94E"/>
<path d="M148.107 43.6311L131.74 41.9646L110.107 60.2578L126.878 61.9646L148.107 43.6311Z" fill="#D8B56D"/>
<path d="M148.035 43.5L157 54.538L128.866 77.5L127 61.7285L148.035 43.5Z" fill="#FFC54F"/>
<path d="M127.23 61.7134L110.513 59.9646L103.107 73.9216L129.107 77.9646L127.23 61.7134Z" fill="#C69C45"/>
<path d="M186.107 45.9641L166.725 43.9646L141.107 65.9156L160.968 67.9646L186.107 45.9641Z" fill="#D8B56D"/>
<path d="M185.931 45.9646L194.7 56.6599L162.937 86.9646L160.7 67.9467L185.931 45.9646Z" fill="#FFC54F"/>
<path d="M160.87 68.0055L140.937 65.9646L132.107 82.2483L163.107 86.9646L160.87 68.0055Z" fill="#C69C45"/>
<path d="M95 52.5061L65 56.6439V66.6895C65 68.4859 66.2634 70.0887 68.1537 70.6863L82.636 75.2686C83.6181 75.5806 84.6597 75.5758 85.6127 75.3093V58.8167L95 52.5061Z" fill="#1868AB"/>
<path d="M94.7766 66.7509C95.5649 65.9745 96 64.964 96 63.9177V52.5061L94.4624 52.7175L85 59.0241V75.5061C85.8018 75.2839 86.5424 74.8838 87.1279 74.3045L94.7766 66.7509Z" fill="#135388"/>
<path d="M76.6167 48.221L65 56.7803L82.0691 61.3001C84.0423 61.8231 86.1742 61.3332 87.6276 60.0241L96 52.4847L79.9515 47.6686C78.8081 47.3251 77.549 47.534 76.6167 48.221Z" fill="#63B5FA"/>
<mask id="mask4_5567_163338" style="mask-type:alpha" maskUnits="userSpaceOnUse" x="75" y="40" width="16" height="20">
<path fill-rule="evenodd" clip-rule="evenodd" d="M75.8599 40.3882H90.0117V59.8051H75.8599V40.3882Z" fill="white"/>
</mask>
<g mask="url(#mask4_5567_163338)">
<path d="M82.5043 59.8051C83.9575 59.0334 84.6939 58.6577 86.1823 57.9213C87.7431 57.149 88.9644 55.5362 89.6073 53.387C90.9003 49.0615 89.0154 43.8614 85.064 41.4377C83.0755 40.218 81.0987 40.0903 79.5497 40.9046C78.0915 41.6712 77.3523 42.0447 75.8599 42.7772C77.4458 41.9994 79.4147 42.1198 81.3507 43.2874C85.199 45.6069 86.9451 50.6693 85.7601 55.1028C85.1715 57.3053 84.028 58.9965 82.5043 59.8051Z" fill="#FFD37B"/>
</g>
<path d="M81.5168 57.5421C82.732 56.9508 83.3452 56.6607 84.5789 56.0872C83.362 56.6551 81.8825 56.5716 80.45 55.7182C77.6035 54.0225 76.236 50.1484 77.2025 46.8836C77.6825 45.2619 78.6227 44.064 79.8133 43.4934C78.5902 44.0769 77.9737 44.3642 76.7338 44.9309C75.5276 45.4853 74.5537 46.6501 74.0514 48.2495C73.0412 51.47 74.4793 55.4147 77.3761 57.1613C78.8344 58.0405 80.3178 58.1273 81.5168 57.5421Z" fill="#DF9F1C"/>
<path fill-rule="evenodd" clip-rule="evenodd" d="M81.3484 43.2772C77.5023 40.9583 73.7089 42.9748 72.4063 47.2863C71.1032 51.5983 73.0156 56.836 76.9804 59.2736C80.9452 61.7119 84.5785 59.5352 85.7623 55.1039C86.9462 50.6737 85.1939 45.5956 81.3484 43.2772ZM74.0522 48.2495C75.0624 45.0295 78.0293 43.6177 80.859 45.2966C83.6892 46.976 85.036 50.8294 84.093 54.1172C83.1499 57.4049 80.2743 58.9085 77.3769 57.1619C74.4794 55.4147 73.0414 51.47 74.0522 48.2495Z" fill="#FFC54F"/>
<mask id="mask5_5567_163338" style="mask-type:alpha" maskUnits="userSpaceOnUse" x="79" y="39" width="5" height="3">
<path fill-rule="evenodd" clip-rule="evenodd" d="M79.4756 39.5601H83.4885V41.9094H79.4756V39.5601Z" fill="white"/>
</mask>
<g mask="url(#mask5_5567_163338)">
<path d="M83.4885 40.1969C83.2746 40.6729 83.1637 40.9075 82.9375 41.3706C82.1322 41.5868 81.7285 41.6949 80.9209 41.9093C80.3441 41.6652 80.0552 41.5425 79.4756 41.2956C79.7013 40.8319 79.811 40.5973 80.0244 40.1207C80.8241 39.8978 81.2228 39.7858 82.0191 39.5596C82.6088 39.8166 82.9028 39.9443 83.4885 40.1969Z" fill="#FF728C"/>
</g>
<path d="M79.4762 41.2957C79.3199 41.6882 79.2393 41.8825 79.0752 42.2667C79.7534 42.5523 80.0916 42.694 80.7664 42.9757C80.8325 42.5534 80.8638 42.3401 80.921 41.9094C80.3447 41.6653 80.0558 41.5426 79.4762 41.2957Z" fill="#FF3E61"/>
<path d="M82.9378 41.3706C83.0313 41.7676 83.0761 41.9642 83.1612 42.3528C82.2048 42.6037 81.7254 42.728 80.7661 42.9756C80.8328 42.5533 80.8636 42.34 80.9207 41.9093C81.7288 41.6948 82.1325 41.5873 82.9378 41.3706Z" fill="#FE0B37"/>
<path d="M83.4887 40.197C83.6315 40.519 83.7015 40.6781 83.8387 40.9945C83.5755 41.5455 83.44 41.8177 83.1611 42.353C83.076 41.9638 83.0312 41.7678 82.9377 41.3708C83.1639 40.9077 83.2748 40.673 83.4887 40.197Z" fill="#FF3E61"/>
<path d="M71 53.0466C71 53.0466 82.0771 50.3103 89 57.1511C86.4951 60.38 82.2659 61.7413 78.3478 60.5798L71 58.4016V53.0466Z" fill="#63B5FA"/>
<path d="M106.458 81.7061L105.931 89.5226C105.908 89.9306 106.199 90.2906 106.603 90.3551C113.667 91.5311 119.355 94.6046 121.916 98.5631C118.611 103.708 110.138 107.364 100.202 107.364C90.2645 107.364 81.7925 103.708 78.488 98.5631C81.0485 94.6046 86.7365 91.5311 93.8015 90.3551C94.205 90.2906 94.4945 89.9306 94.4735 89.5226L93.9455 81.7061C93.9275 81.4796 93.8165 81.2711 93.6365 81.1316C93.4565 80.9921 93.2255 80.9366 93.0005 80.9786C83.7125 82.7306 77 87.8096 77 93.8021V103.363C77 110.877 87.3845 116.965 100.202 116.965C113.02 116.965 123.403 110.877 123.403 103.363V93.7631C123.371 87.7871 116.667 82.7306 107.402 80.9786C107.179 80.9366 106.948 80.9921 106.767 81.1316C106.587 81.2711 106.475 81.4796 106.458 81.7061Z" fill="#FFD37B"/>
<path d="M107.402 80.978C116.667 82.73 123.371 87.7865 123.402 93.7625V93.803C123.404 94.208 123.371 94.6115 123.308 95.0105C123.276 95.219 123.236 95.4275 123.186 95.6285C123.12 95.9375 123.032 96.242 122.924 96.539C122.811 96.8345 122.691 97.1315 122.555 97.4195C122.367 97.814 122.153 98.1965 121.916 98.564C119.355 94.6025 113.667 91.5305 106.602 90.3545C106.199 90.29 105.908 89.9315 105.93 89.522L106.458 81.7055C106.475 81.479 106.587 81.269 106.767 81.1325C106.947 80.993 107.178 80.9375 107.402 80.978Z" fill="#DF9F1C"/>
<path d="M93.001 80.978C93.2245 80.9375 93.4555 80.993 93.6355 81.1325C93.8155 81.2705 93.928 81.479 93.9445 81.7055L94.4725 89.522C94.495 89.9315 94.2055 90.29 93.802 90.3545C86.737 91.5305 81.049 94.604 78.4885 98.564C78.25 98.1965 78.037 97.8155 77.848 97.4195C77.713 97.1315 77.593 96.8345 77.4805 96.539C77.3725 96.242 77.2825 95.9375 77.2165 95.6285C77.1685 95.4275 77.128 95.219 77.0965 95.0105C77.032 94.6115 77.0005 94.208 77.0005 93.803C77.0005 87.8105 83.713 82.73 93.001 80.978Z" fill="#DF9F1C"/>
<path d="M100.201 111.365C92.2215 111.365 84.774 108.885 80.7645 104.895C80.451 104.583 79.9455 104.583 79.6335 104.897C79.3215 105.209 79.323 105.716 79.6365 106.028C83.9985 110.372 91.6875 112.964 100.201 112.964C108.715 112.964 116.404 110.372 120.768 106.028C120.97 105.828 121.05 105.533 120.976 105.257C120.903 104.979 120.688 104.763 120.412 104.69C120.136 104.615 119.841 104.693 119.638 104.895C115.629 108.885 108.181 111.365 100.201 111.365Z" fill="#DF9F1C"/>
<path d="M269.981 60C269.981 59.6626 269.639 51.9061 269.981 49.5458C270.323 47.1847 265.88 42.4633 265.538 41.4511C265.276 40.6789 260.034 34.5978 257.569 31.7652C256.745 30.8185 255.272 30.732 254.371 31.6078C253.12 32.8242 252.092 34.9515 254.264 38.2009C258.017 43.813 262.462 54.2672 262.462 54.2672L265.88 60H269.981Z" fill="#E79E5C"/>
<path fill-rule="evenodd" clip-rule="evenodd" d="M307.062 139.58C311.83 148.698 315.523 155.759 316.428 157.862C316.766 158.648 274.968 178.6 273.824 177.986C271.535 176.758 269.66 166.061 267.622 154.439C265.148 140.325 262.435 124.847 258.451 123.3C223.313 109.656 216.455 101.964 214.87 100.186C214.704 100 214.596 99.879 214.52 99.8225C214.493 99.8036 214.466 99.7846 214.437 99.7672C212.719 98.6771 211.402 97.0586 210.686 95.157L208.961 90.5749C208.88 90.3591 208.757 90.1608 208.605 89.9867C204.55 85.356 205.406 82.406 206.179 81.138C206.416 80.7481 206.802 80.4907 207.233 80.3371C207.785 80.1395 208.18 79.6141 208.18 78.9964C208.18 77.9843 211.309 68.1189 212.842 66.6473C213.034 66.4632 213.33 66.1811 213.701 65.8287C215.582 64.0392 219.369 60.4358 221.042 58.6359C222.488 57.0802 224.612 56.3414 226.716 56.6601C230.354 57.2104 236.249 58.1983 241.073 59.4512C246.038 60.7411 246.611 59.6329 246.419 58.7176C246.313 58.215 245.968 57.7964 245.522 57.5375C238.722 53.5836 234.038 47.4791 232.829 45.8023C232.627 45.5199 232.347 45.3065 232.025 45.1702C226.273 42.7451 210.22 30.2511 205.905 26.8923C205.625 26.6749 205.395 26.4957 205.22 26.36C202.26 24.067 202.26 18.1699 205.22 16.8596C208.18 15.5484 223.969 26.36 223.969 26.36C222.049 24.9512 221.122 23.3873 220.76 21.8959C219.895 18.335 223.777 15.5303 226.972 17.3456C228.894 18.4383 230.766 19.8851 232.645 21.3378C234.017 22.399 235.394 23.4633 236.797 24.3948C239.42 26.136 243.158 28.9891 246.085 31.2791C249.899 34.2647 253.204 37.8416 255.87 41.8795C257.374 44.1596 259.005 46.8992 260.481 49.95C263.212 55.6018 265.943 57.3755 267.561 57.919C268.499 58.2347 270.015 59.0621 270.633 59.5791C272.233 60.9212 272.832 63.1431 273.914 67.1612C274.975 71.0981 276.5 76.7593 279.887 85.0071C284.879 97.1625 297.939 122.134 307.062 139.58ZM231.863 93.5257C233.179 92.8701 242.389 87.6278 244.362 85.0071C244.362 85.0071 246.007 80.4196 245.678 79.1092C245.35 77.7996 240.087 67.9698 226.271 69.2809C226.271 69.2809 220.351 73.8669 218.706 74.1954C218.706 74.1954 218.048 80.7474 213.443 81.4029C213.443 81.4029 219.364 84.6793 221.008 88.6112C221.008 88.6112 230.548 94.1805 231.863 93.5257Z" fill="#F2CBA8"/>
<path d="M248 59C248 59 261.603 59.1697 264.626 61.8779C267.649 64.5852 270 70 270 70" stroke="#E79E5C" stroke-width="0.866" stroke-linecap="round" stroke-linejoin="round"/>
<path d="M225 27C225 27 240.484 35.2143 242.419 36.5292C244.355 37.8433 255 50 255 50C255 50 250.161 35.543 225 27Z" fill="#E79E5C"/>
<path d="M208 81C208 81 209.277 82.8309 214 82.028C214 82.028 210.096 84.7911 208 81Z" fill="#E79E5C"/>
<path d="M240 89C240 89 250.027 82.2726 252 79" stroke="#E79E5C" stroke-width="0.866" stroke-linecap="round" stroke-linejoin="round"/>
<path d="M226 70C226 70 224 66.9992 224 64" stroke="#E79E5C" stroke-width="0.866" stroke-linecap="round" stroke-linejoin="round"/>
<path d="M220 89C220 89 218 90.3336 218 93" stroke="#E79E5C" stroke-width="0.866" stroke-linecap="round" stroke-linejoin="round"/>
<path d="M268.882 131.716C267.047 124.8 261.372 119.666 254.372 118.35C240.154 115.676 222 106 222 106C227.8 109.942 238.647 115.918 259.114 123.937C266.36 126.777 269.395 176.249 274.45 178.986C274.744 179.145 277.734 177.928 282 176.023C280.901 176.313 273.418 148.809 268.882 131.716Z" fill="#E79E5C"/>
</g>
<path d="M114.833 13.3954L113.086 16.5878L109.895 18.333C109.368 18.6218 109.368 19.3782 109.895 19.667L113.086 21.4122L114.833 24.6046C115.12 25.1318 115.878 25.1318 116.166 24.6046L117.912 21.4122L121.105 19.667C121.632 19.3782 121.632 18.6218 121.105 18.333L117.912 16.5878L116.166 13.3954C115.878 12.8682 115.12 12.8682 114.833 13.3954Z" fill="#FFD37B"/>
<path d="M180.333 29.3954L178.586 32.5878L175.395 34.333C174.868 34.6218 174.868 35.3782 175.395 35.667L178.586 37.4122L180.333 40.6046C180.62 41.1318 181.378 41.1318 181.666 40.6046L183.412 37.4122L186.605 35.667C187.132 35.3782 187.132 34.6218 186.605 34.333L183.412 32.5878L181.666 29.3954C181.378 28.8682 180.62 28.8682 180.333 29.3954Z" fill="#FFE7B8"/>
<path d="M57.5553 33.2636L56.3908 35.3918L54.2636 36.5553C53.9121 36.7479 53.9121 37.2521 54.2636 37.4447L56.3908 38.6082L57.5553 40.7364C57.7468 41.0879 58.2521 41.0879 58.4437 40.7364L59.6082 38.6082L61.7364 37.4447C62.0879 37.2521 62.0879 36.7479 61.7364 36.5553L59.6082 35.3918L58.4437 33.2636C58.2521 32.9121 57.7468 32.9121 57.5553 33.2636Z" fill="#FFE7B8"/>
<path d="M147.555 111.264L146.391 113.392L144.264 114.555C143.912 114.748 143.912 115.252 144.264 115.445L146.391 116.608L147.555 118.736C147.747 119.088 148.252 119.088 148.444 118.736L149.608 116.608L151.736 115.445C152.088 115.252 152.088 114.748 151.736 114.555L149.608 113.392L148.444 111.264C148.252 110.912 147.747 110.912 147.555 111.264Z" fill="#FFE7B8"/>
</svg>
