<svg width="120" height="120" viewBox="0 0 120 120" fill="none" xmlns="http://www.w3.org/2000/svg">
<circle cx="60" cy="60" r="60" fill="#FFF9ED"/>
<circle cx="60" cy="61" r="49" fill="#CC9D3F"/>
<circle cx="60" cy="58" r="48" fill="#FFC54F"/>
<rect x="42.1052" y="31" width="35.3684" height="5.89474" rx="2" fill="#864B16"/>
<rect x="42.1052" y="81.1052" width="35.3684" height="5.89474" rx="2" fill="#864B16"/>
<path d="M46.5261 36.8948H73.0524V48.787C73.0524 51.0303 71.7792 53.0791 69.7678 54.0724L63.2939 57.2694C62.9527 57.4379 62.7367 57.7855 62.7367 58.166V59.8341C62.7367 60.2146 62.9527 60.5622 63.2939 60.7307L69.7678 63.9277C71.7792 64.921 73.0524 66.9698 73.0524 69.2131V81.1053H46.5261V69.2131C46.5261 66.9698 47.7994 64.921 49.8108 63.9277L56.2847 60.7307C56.6259 60.5622 56.8419 60.2146 56.8419 59.8341V58.166C56.8419 57.7855 56.6259 57.4379 56.2847 57.2694L49.8108 54.0724C47.7994 53.0791 46.5261 51.0303 46.5261 48.787V36.8948Z" fill="#F1F8EC"/>
<mask id="mask0_5567_145491" style="mask-type:alpha" maskUnits="userSpaceOnUse" x="48" y="38" width="24" height="44">
<path d="M71.579 49.4845C71.579 50.8004 70.8355 52.0034 69.6585 52.5918L61.2632 56.7895V61.5L69.6585 65.6977C70.8355 66.2862 71.579 67.4891 71.579 68.805V81.1053H48V68.805C48 67.4891 48.7435 66.2862 49.9205 65.6977L58.3158 61.5V56.7895L49.9205 52.5918C48.7435 52.0034 48 50.8004 48 49.4845V38H71.579V49.4845Z" fill="#72BF44"/>
</mask>
<g mask="url(#mask0_5567_145491)">
<path d="M71.579 49.4844C71.579 50.8003 70.8355 52.0032 69.6585 52.5917L61.2632 56.7894V71.5262L69.6585 75.7239C70.8355 76.3124 71.579 77.5154 71.579 78.8313V81.1052H48V78.8313C48 77.5154 48.7435 76.3124 49.9205 75.7239L58.3158 71.5262V56.7894L49.9205 52.5917C48.7435 52.0032 48 50.8003 48 49.4844V47.2104H71.579V49.4844Z" fill="#E07E26"/>
</g>
</svg>
