<svg width="328" height="164" viewBox="0 0 328 164" fill="none" xmlns="http://www.w3.org/2000/svg">
<path d="M2.31987 141.514C5.30487 151.239 12.7689 159.343 23.2189 161.504C33.6809 163.667 265.053 165.826 301.876 161.504C312.777 160.224 321.503 148.276 322.776 146.203C330.736 133.238 327.751 53.2794 325.761 26.266C324.69 11.7278 309.838 5.19571 302.871 3.03482C289.548 -1.09779 53.2799 -1.26366 22.2229 4.11573C8.32787 6.52168 3.29087 17.8712 2.29087 24.1796C-0.0421274 38.8847 -1.42113 129.331 2.31887 141.514H2.31987Z" fill="#E6F6ED"/>
<mask id="mask0_5567_152581" style="mask-type:alpha" maskUnits="userSpaceOnUse" x="0" y="0" width="328" height="164">
<path fill-rule="evenodd" clip-rule="evenodd" d="M23.2189 161.504C33.6809 163.667 265.053 165.826 301.876 161.504C312.777 160.224 321.503 148.276 322.776 146.203C330.736 133.238 327.751 53.2794 325.761 26.266C324.69 11.7278 309.838 5.19571 302.871 3.03482C289.548 -1.09779 53.2799 -1.26366 22.2229 4.11573C8.32787 6.52168 3.29087 17.8712 2.29087 24.1796C-0.0421274 38.8847 -1.42113 129.331 2.31887 141.514C5.30487 151.239 12.7689 159.343 23.2189 161.504Z" fill="white"/>
</mask>
<g mask="url(#mask0_5567_152581)">
<path opacity="0.5" fill-rule="evenodd" clip-rule="evenodd" d="M80.1804 185L21.5181 -8H302.286L256.51 185H80.1804Z" fill="#99DDB8"/>
<path d="M136.68 118.544L131.816 82.7786" stroke="white" stroke-linecap="round"/>
<path d="M95.6126 64.3926L88.8833 28.9304" stroke="white" stroke-linecap="round"/>
<path d="M79.536 82.1922L70.96 47.1309" stroke="white" stroke-linecap="round"/>
<path d="M23.536 66.1922L19.4999 50.5" stroke="white" stroke-linecap="round"/>
<path d="M52.536 144.192L43.96 109.131" stroke="white" stroke-linecap="round"/>
<path d="M216.877 51.749L227.694 7.75488" stroke="white" stroke-linecap="round"/>
<path d="M265.877 148.749L272.5 126.5" stroke="white" stroke-linecap="round"/>
<path d="M296.877 80.749L307.694 36.7549" stroke="white" stroke-linecap="round"/>
<path d="M186.049 68L194.549 23.5" stroke="white" stroke-linecap="round"/>
<path d="M202.247 108.898L194.342 138.865" stroke="white" stroke-linecap="round"/>
<path d="M234.247 60.8984L226.342 90.8652" stroke="white" stroke-linecap="round"/>
<path fill-rule="evenodd" clip-rule="evenodd" d="M187.442 44.2614L193.212 45.1305C195.879 45.532 197.699 48.1276 197.277 50.9283L194.828 67.1928C195.531 66.6021 196.644 65.6636 197.764 64.6994C198.611 63.971 199.462 63.2281 200.144 62.6094C204.513 58.6501 211.323 63.1003 205.4 70.2545C201.24 75.2786 194.557 83.2051 191.951 86.292L191.547 88.9803C192.885 86.5298 195.055 85.5821 197.347 85.7137C200.477 85.8933 203.554 89.6351 202.939 93.278C202.462 96.0951 200.388 99.2193 197.351 99.8129C197.484 99.9277 197.604 100.044 197.712 100.158C197.923 100.375 198.109 100.61 198.27 100.859C198.366 101.005 198.428 101.118 198.46 101.179C199.466 103.027 199.276 105.463 198.485 106.834C197.538 108.477 196.272 110.061 194.053 111.181C196.517 112.201 199.01 113.718 199.97 115.867C202.142 120.728 197.642 124.721 192.932 127.486C191.832 128.131 191.151 128.739 190.605 129.226C189.583 130.138 189.033 130.629 187.098 130.162C186.532 130.025 185.967 129.813 185.441 129.52L184.792 133.83C184.627 134.925 184.144 135.888 183.458 136.632C182.393 142.505 179.268 152.383 170.102 159.802L165.906 173.468L166.3 173.718L165.891 173.516L165.89 173.522L166.741 173.943C167.998 174.565 168.632 175.995 168.25 177.344L163.998 192.327L147.767 186.2C145.726 186.382 143.516 186.351 141.149 186.018C134.099 185.025 130.208 181.811 128.071 178.765L116.981 174.578L124.626 155.724C125.103 154.548 126.478 154.026 127.615 154.588L130.717 156.123L130.718 156.119L130.154 155.84L131.389 151.543L132.043 151.958L141.089 123.546L153.028 44.2643C153.45 41.4636 155.954 39.5189 158.621 39.9211L164.391 40.7894C165.131 40.9014 165.695 41.5276 165.76 42.308L165.833 43.1756C165.897 43.9567 166.462 44.5829 167.201 44.6942L183.607 47.1654C184.346 47.2767 185.071 46.844 185.362 46.1174L185.687 45.3087C185.978 44.5822 186.703 44.1502 187.442 44.2614ZM189.902 99.9019L190.599 95.2718C190.949 96.6351 191.696 97.9884 192.963 98.879C191.896 99.0978 191.02 99.4588 190.881 99.5178C190.552 99.6321 190.225 99.7606 189.902 99.9019ZM187.157 118.13L187.735 114.291C188.579 114.324 189.421 114.037 190.205 113.629L189.572 116.783C189.572 116.783 188.436 117.349 187.157 118.13ZM171.744 43.2425C171.434 43.1959 171.219 42.9057 171.266 42.5952L171.283 42.4832C171.33 42.1726 171.62 41.9588 171.93 42.0054L177.035 42.7741C177.346 42.8206 177.561 43.1115 177.514 43.4221L177.497 43.5334C177.45 43.8446 177.16 44.0577 176.849 44.0112L171.744 43.2425ZM179.428 44.5157C179.868 44.5826 180.277 44.2793 180.343 43.8401C180.409 43.4008 180.107 42.9913 179.667 42.9251C179.228 42.8582 178.818 43.1608 178.752 43.6008C178.686 44.0393 178.989 44.4495 179.428 44.5157ZM147.633 62.899L146.891 62.7877C146.618 62.7462 146.43 62.491 146.471 62.2175L147.496 55.4124C147.537 55.139 147.792 54.9499 148.066 54.9913L148.807 55.1026L147.633 62.899ZM145.525 71.8644L146.266 71.9757L147.44 64.1793L146.699 64.0681C146.426 64.0266 146.17 64.215 146.13 64.4884L145.104 71.2942C145.064 71.567 145.251 71.823 145.525 71.8644Z" fill="#99DDB8"/>
<path d="M182.343 129.783C182.343 129.783 182.047 146.697 167.945 157.71L161.815 176.503C161.815 176.503 153.041 185.719 138.54 183.416C124.039 181.116 123.138 169.609 123.138 169.609L140.498 118.205L182.343 129.783Z" fill="#F2CBA8"/>
<path d="M150.206 137.061C150.206 137.061 162.097 141.224 177.034 139.386L150.726 133.146L150.206 137.061Z" fill="#E79E5C"/>
<path d="M193.53 66.1561C193.53 66.1561 197.471 62.9902 199.68 61.0568C204.117 57.1744 210.849 61.7427 204.802 68.7925C199.436 75.0474 189.963 85.8641 189.963 85.8641L193.53 66.1561Z" fill="#F2CBA8"/>
<path fill-rule="evenodd" clip-rule="evenodd" d="M177.034 139.386L142.258 133.526C138.297 132.859 135.627 129.106 136.295 125.145L150.563 40.4687C151.231 36.5081 154.982 33.8379 158.943 34.505L193.72 40.3652C197.681 41.0329 200.351 44.7848 199.683 48.7454L185.415 133.423C184.748 137.383 180.996 140.053 177.034 139.386Z" fill="#58585B"/>
<path fill-rule="evenodd" clip-rule="evenodd" d="M193.054 43.4596L187.3 42.49C186.563 42.3658 185.831 42.7851 185.526 43.5065L185.188 44.3094C184.884 45.0308 184.152 45.4508 183.414 45.3266L167.054 42.5694C166.317 42.4452 165.763 41.8093 165.713 41.0272L165.655 40.1584C165.604 39.3771 165.051 38.7411 164.313 38.6162L158.559 37.6473C155.9 37.1986 153.362 39.0994 152.892 41.8923L138.961 124.564C138.491 127.356 140.266 129.984 142.925 130.431L177.419 136.244C180.078 136.692 182.617 134.792 183.087 131.999L197.017 49.3275C197.488 46.5346 195.713 43.9076 193.054 43.4596Z" fill="white"/>
<path fill-rule="evenodd" clip-rule="evenodd" d="M169.709 75.3665C173.642 75.8493 176.422 79.4054 175.942 83.3385C175.465 87.2505 171.895 90.0508 167.993 89.5734C164.045 89.0905 161.264 85.5307 161.751 81.5834C162.235 77.664 165.791 74.8857 169.709 75.3665ZM172.295 80.5887C172.443 80.6986 172.526 80.7575 172.606 80.821C172.737 80.9242 172.86 80.9787 172.991 80.8164C173.129 80.6441 173.023 80.5556 172.891 80.4576C171.568 79.4764 170.109 78.8769 168.441 78.8532C167.388 78.8383 166.386 79.0603 165.43 79.4968C165.29 79.5607 165.112 79.6119 165.219 79.8384C165.328 80.0685 165.48 79.9821 165.637 79.9067C165.724 79.865 165.816 79.8336 165.96 79.7756C165.89 79.9014 165.851 79.9727 165.811 80.0423C165.04 81.3522 164.269 82.6621 163.498 83.9714C163.233 84.42 163.279 84.6858 163.694 85.0091C163.818 85.1057 163.954 85.1919 164.096 85.2591C164.974 85.6743 165.898 85.7802 166.854 85.651C167.077 85.6209 167.29 85.5528 167.494 85.4569C167.932 85.2502 168.039 84.9955 167.901 84.5299C167.436 82.966 166.979 81.3997 166.507 79.8382C166.442 79.6242 166.504 79.5728 166.697 79.5243C168.416 79.0917 170.043 79.3304 171.6 80.1585C171.813 80.272 171.817 80.365 171.701 80.5589C170.898 81.9034 170.107 83.2547 169.311 84.6036C168.985 85.157 169.05 85.4648 169.594 85.8128C170.267 86.2441 171.025 86.3842 171.809 86.4088C172.306 86.4243 172.798 86.3851 173.257 86.1671C173.697 85.9584 173.809 85.7035 173.671 85.2427C173.45 84.5013 173.231 83.7594 173.011 83.0175C172.779 82.2332 172.548 81.4488 172.295 80.5887Z" fill="#02A750"/>
<path fill-rule="evenodd" clip-rule="evenodd" d="M167.302 94.8246C163.759 94.341 160.896 92.6778 158.778 89.7987C157.073 87.4819 156.29 84.8571 156.401 81.975C156.411 81.7142 156.442 81.4543 156.451 81.1934C156.456 81.0537 156.507 81.0245 156.64 81.0442C157 81.0972 157.361 81.1419 157.723 81.1764C157.896 81.193 157.848 81.2997 157.839 81.3969C157.75 82.3772 157.772 83.3556 157.943 84.3247C158.261 86.1289 158.972 87.7641 160.096 89.2151C161.329 90.8069 162.874 91.9936 164.748 92.7314C166.747 93.5191 168.811 93.7295 170.927 93.3153C173.516 92.8088 175.662 91.5398 177.348 89.5176C178.836 87.7322 179.667 85.6681 179.852 83.3462C180.072 80.5981 179.354 78.1051 177.727 75.9003C176.112 73.7108 173.953 72.297 171.286 71.6934C169.076 71.1933 166.913 71.3541 164.803 72.1853C164.641 72.2493 164.548 72.2378 164.477 72.069C164.353 71.7771 164.226 71.4858 164.083 71.2036C163.995 71.0329 164.045 70.9653 164.209 70.899C165.209 70.4931 166.247 70.2259 167.316 70.0981C169.294 69.8617 171.229 70.0748 173.103 70.7575C175.434 71.6073 177.355 73.028 178.83 75.0244C180.663 77.5066 181.484 80.2967 181.258 83.3802C181.038 86.391 179.874 88.9973 177.768 91.1508C175.503 93.4673 172.728 94.7174 169.484 94.9056C168.755 94.9481 168.029 94.9136 167.302 94.8246Z" fill="#BAD333"/>
<path fill-rule="evenodd" clip-rule="evenodd" d="M170.05 72.8667C173.565 73.4194 176.121 75.2731 177.672 78.4961C177.758 78.675 177.729 78.7532 177.546 78.8263C177.287 78.9297 177.031 79.0483 176.79 79.1882C176.573 79.3145 176.47 79.2907 176.36 79.0453C175.824 77.8391 175.025 76.8313 173.999 76.0004C171.181 73.7182 167.045 73.5904 164.092 75.71C161.979 77.2258 160.813 79.2918 160.598 81.8804C160.276 85.7671 162.899 89.4924 166.687 90.4339C170.131 91.2901 173.015 90.2973 175.314 87.6011C175.423 87.4734 175.485 87.4449 175.618 87.5675C175.857 87.7888 176.108 87.9991 176.367 88.197C176.522 88.3147 176.496 88.4 176.387 88.531C174.564 90.7135 172.244 91.9552 169.4 92.1168C165.001 92.3667 161.115 89.7219 159.667 85.5486C157.997 80.7353 160.567 75.2551 165.34 73.4465C166.861 72.8702 168.425 72.6605 170.05 72.8667Z" fill="#74BC46"/>
<path fill-rule="evenodd" clip-rule="evenodd" d="M172.294 80.5886C172.548 81.4488 172.779 82.2332 173.011 83.0173C173.231 83.7593 173.45 84.5012 173.671 85.2426C173.809 85.7034 173.697 85.9583 173.257 86.167C172.798 86.3849 172.306 86.4242 171.808 86.4086C171.025 86.3841 170.267 86.244 169.593 85.8126C169.05 85.4647 168.985 85.1569 169.311 84.6035C170.107 83.2545 170.898 81.9033 171.701 80.5588C171.817 80.3649 171.813 80.2719 171.599 80.1584C170.043 79.3302 168.416 79.0915 166.697 79.5242C166.504 79.5726 166.442 79.6241 166.507 79.8381C166.979 81.3996 167.436 82.9659 167.901 84.5298C168.039 84.9953 167.932 85.2501 167.494 85.4568C167.29 85.5527 167.077 85.6208 166.854 85.6509C165.898 85.78 164.974 85.6742 164.096 85.259C163.954 85.1918 163.818 85.1056 163.694 85.009C163.279 84.6857 163.233 84.4199 163.498 83.9713C164.269 82.662 165.04 81.3521 165.81 80.0422C165.851 79.9726 165.889 79.9013 165.96 79.7755C165.815 79.8335 165.723 79.8649 165.636 79.9066C165.479 79.982 165.328 80.0684 165.219 79.8383C165.112 79.6118 165.29 79.5606 165.43 79.4967C166.386 79.0602 167.388 78.8382 168.441 78.8531C170.109 78.8768 171.568 79.4763 172.891 80.4575C173.023 80.5554 173.129 80.6439 172.991 80.8163C172.86 80.9786 172.737 80.9241 172.606 80.8209C172.526 80.7575 172.442 80.6985 172.294 80.5886ZM166.206 80.267C166.164 80.2979 166.144 80.3057 166.135 80.3203C165.449 81.4825 164.766 82.6463 164.077 83.8067C163.974 83.9807 164.074 83.9842 164.201 83.9995C165.108 84.1087 166.014 84.2208 166.921 84.332C167.075 84.351 167.23 84.37 167.426 84.3941C167.012 82.9951 166.611 81.6367 166.206 80.267ZM171.975 80.9802C171.933 81.0103 171.903 81.021 171.891 81.0419C171.211 82.1969 170.535 83.3535 169.853 84.5073C169.759 84.6652 169.826 84.6912 169.969 84.7084C170.969 84.8275 171.968 84.9478 172.966 85.0776C173.182 85.1058 173.173 85.0263 173.123 84.8649C172.99 84.4384 172.871 84.0076 172.745 83.5793C172.49 82.7171 172.234 81.8553 171.975 80.9802Z" fill="#F3FAF6"/>
<path fill-rule="evenodd" clip-rule="evenodd" d="M166.206 80.2671C166.611 81.6369 167.013 82.9952 167.426 84.3942C167.23 84.3701 167.076 84.3511 166.921 84.3322C166.015 84.221 165.108 84.1088 164.202 83.9997C164.074 83.9844 163.974 83.9807 164.077 83.8068C164.766 82.6464 165.45 81.4826 166.136 80.3205C166.144 80.3059 166.164 80.2981 166.206 80.2671Z" fill="#04A650"/>
<path fill-rule="evenodd" clip-rule="evenodd" d="M171.975 80.9804C172.234 81.8555 172.49 82.7172 172.745 83.5794C172.871 84.0078 172.99 84.4386 173.123 84.8651C173.173 85.0264 173.182 85.106 172.966 85.0778C171.968 84.9479 170.969 84.8277 169.97 84.7085C169.826 84.6914 169.76 84.6654 169.853 84.5075C170.535 83.3537 171.212 82.197 171.891 81.042C171.904 81.0211 171.933 81.0104 171.975 80.9804Z" fill="#04A650"/>
<path fill-rule="evenodd" clip-rule="evenodd" d="M171.622 41.197C171.312 41.1451 171.103 40.8512 171.155 40.5415L171.174 40.4298C171.226 40.1201 171.52 39.9114 171.83 39.9634L176.92 40.8211C177.23 40.8731 177.44 41.1677 177.387 41.4773L177.369 41.5883C177.316 41.8987 177.023 42.1067 176.712 42.0547L171.622 41.197Z" fill="#252528"/>
<path fill-rule="evenodd" clip-rule="evenodd" d="M180.209 41.9446C180.135 42.3827 179.721 42.6788 179.282 42.6042C178.845 42.5304 178.549 42.115 178.622 41.6776C178.696 41.2389 179.112 40.9435 179.549 41.0181C179.988 41.0919 180.283 41.5066 180.209 41.9446Z" fill="#252528"/>
<path fill-rule="evenodd" clip-rule="evenodd" d="M147.172 60.4298L146.432 60.3056C146.159 60.2594 145.976 60.0009 146.021 59.7282L147.165 52.942C147.211 52.6693 147.47 52.4847 147.743 52.531L148.481 52.6551L147.172 60.4298Z" fill="#252528"/>
<path fill-rule="evenodd" clip-rule="evenodd" d="M145.646 69.4813L144.907 69.3572C144.634 69.3109 144.451 69.0517 144.497 68.7797L145.641 61.9928C145.686 61.7201 145.945 61.5363 146.217 61.5825L146.956 61.7067L145.646 69.4813Z" fill="#252528"/>
<path d="M122.305 172.46L129.976 146.198C129.976 146.198 123.246 118.545 125.366 110.8C126.421 106.945 142.029 90.611 143.672 90.3662C145.315 90.1221 161.813 88.4985 163.657 89.896C165.501 91.2935 167.364 97.9815 159.297 100.64C154.052 102.368 151.391 101.834 150.697 102.504C150.002 103.175 144.809 111.276 144.809 111.276C144.809 111.276 153.816 119.352 149.931 138.535" fill="#F2CBA8"/>
<path d="M188.163 115.038C188.163 115.038 183.052 117.475 182.237 119.201C179.616 124.75 182.5 127.603 185.457 128.372C188.412 129.14 188.149 127.594 191.336 125.797C196.093 123.116 200.663 119.201 198.576 114.303C197.242 111.172 192.683 109.309 189.621 108.38L188.163 115.038Z" fill="#F2CBA8"/>
<path d="M188.163 115.038C188.163 115.038 190.406 113.252 190.998 112.597C191.937 111.559 193.96 110.107 192.741 109.516C191.524 108.924 188.75 112.36 188.75 112.36L188.163 115.038Z" fill="#E79E5C"/>
<path d="M197.249 105.246C198.236 103.601 198.369 100.375 196.533 98.4952C194.178 96.0828 188.828 97.4347 185.598 100.044C181.296 103.519 180.201 108.97 184.788 111.985C187.62 113.846 190.956 110.294 192.283 109.724C194.807 108.641 196.208 106.98 197.249 105.246Z" fill="#F2CBA8"/>
<path d="M189.754 97.8058C189.754 97.8058 192.389 100.906 197.347 99.6419C197.347 99.6419 196.596 97.9565 194.662 97.2638C192.729 96.5703 189.754 97.8058 189.754 97.8058Z" fill="#E79E5C"/>
<path d="M189.466 90.5605C190.421 85.6556 193.355 83.8746 196.48 84.1088C199.606 84.343 202.618 88.138 201.939 91.7696C201.259 95.4005 197.901 99.4981 193.339 97.9543C189.892 96.7885 189.012 92.8954 189.466 90.5605Z" fill="#F2CBA8"/>
<path d="M197.264 63.1049L196.572 78.293L194.257 80.9497L197.264 63.1049Z" fill="#E79E5C"/>
<path fill-rule="evenodd" clip-rule="evenodd" d="M114.575 171.557L122.548 152.839C123.045 151.672 124.429 151.173 125.556 151.756L164.338 171.79C165.584 172.434 166.194 173.875 165.787 175.218L161.275 190.124L114.575 171.557Z" fill="#014F43"/>
<path d="M128.073 153.051L129.383 148.777L163.901 171.557L128.073 153.051Z" fill="#E79E5C"/>
<mask id="mask1_5567_152581" style="mask-type:alpha" maskUnits="userSpaceOnUse" x="72" y="44" width="17" height="13">
<path fill-rule="evenodd" clip-rule="evenodd" d="M72.1103 46.1286L72.014 51.6427C71.9968 52.6286 72.6743 53.5216 73.7074 53.8666L81.6133 56.521C82.1493 56.7014 82.7202 56.7094 83.2467 56.5715L83.4047 47.5179L88.6174 44.1444L72.1103 46.1286Z" fill="white"/>
</mask>
<g mask="url(#mask1_5567_152581)">
<path fill-rule="evenodd" clip-rule="evenodd" d="M69.1369 59.1787L91.0936 59.5619L91.4098 41.4477L69.4531 41.0645L69.1369 59.1787Z" fill="#1868AB"/>
</g>
<mask id="mask2_5567_152581" style="mask-type:alpha" maskUnits="userSpaceOnUse" x="82" y="44" width="8" height="13">
<path fill-rule="evenodd" clip-rule="evenodd" d="M88.3206 44.2552L83.066 47.626L82.908 56.6737C83.3511 56.5594 83.7609 56.3475 84.0884 56.0342L88.3591 51.9611C88.7985 51.5427 89.0471 50.9919 89.0572 50.417L89.1665 44.154L88.3206 44.2552Z" fill="white"/>
</mask>
<g mask="url(#mask2_5567_152581)">
<path fill-rule="evenodd" clip-rule="evenodd" d="M80.1155 59.3703L91.6437 59.5716L91.9599 41.4573L80.4316 41.2561L80.1155 59.3703Z" fill="#135388"/>
</g>
<mask id="mask3_5567_152581" style="mask-type:alpha" maskUnits="userSpaceOnUse" x="72" y="41" width="18" height="8">
<path fill-rule="evenodd" clip-rule="evenodd" d="M78.5679 41.6166L72.1089 46.2026L81.4351 48.8477C82.514 49.1536 83.6885 48.9051 84.4989 48.2001L89.1664 44.1419L80.403 41.3436C80.205 41.2811 80.0006 41.2475 79.7966 41.244C79.3577 41.2363 78.9224 41.3647 78.5679 41.6166Z" fill="white"/>
</mask>
<g mask="url(#mask3_5567_152581)">
<path fill-rule="evenodd" clip-rule="evenodd" d="M69.271 51.4948L91.7776 51.8877L92.0075 38.7127L69.501 38.3198L69.271 51.4948Z" fill="#63B5FA"/>
</g>
<mask id="mask4_5567_152581" style="mask-type:alpha" maskUnits="userSpaceOnUse" x="78" y="37" width="8" height="12">
<path fill-rule="evenodd" clip-rule="evenodd" d="M80.2478 37.6272C79.4406 38.0331 79.0301 38.231 78.2042 38.6196C79.0825 38.2079 80.1622 38.2938 81.2138 38.9532C83.3033 40.2629 84.2146 43.0582 83.5212 45.4815C83.1762 46.6836 82.5331 47.6016 81.6885 48.0309C82.4937 47.6209 82.9013 47.422 83.7252 47.0323C84.5895 46.6233 85.2758 45.7491 85.6494 44.5755C85.8018 44.0951 85.8826 43.5924 85.8974 43.0866L85.8994 42.9726C85.9133 41.0285 84.9458 39.0414 83.2702 37.972C82.6411 37.5729 82.0115 37.3749 81.4266 37.3647C81.0046 37.3573 80.606 37.4474 80.2478 37.6272Z" fill="white"/>
</mask>
<g mask="url(#mask4_5567_152581)">
<path fill-rule="evenodd" clip-rule="evenodd" d="M75.2484 50.6629L88.5064 50.8943L88.7883 34.7468L75.5303 34.5154L75.2484 50.6629Z" fill="#ECCC8B"/>
</g>
<mask id="mask5_5567_152581" style="mask-type:alpha" maskUnits="userSpaceOnUse" x="76" y="39" width="7" height="8">
<path fill-rule="evenodd" clip-rule="evenodd" d="M78.6633 39.8101C77.9961 40.1035 77.451 40.7341 77.1587 41.6071C76.574 43.3642 77.325 45.5446 78.8981 46.5302C79.6915 47.0271 80.5046 47.0883 81.1681 46.7789C81.8406 46.4665 82.1803 46.3134 82.8627 46.0103C82.1894 46.3096 81.3783 46.2494 80.6006 45.7678C79.0541 44.8097 78.3403 42.6699 78.9015 40.8874C79.1811 40.0011 79.7084 39.3532 80.3678 39.0517C79.6903 39.3589 79.3496 39.512 78.6633 39.8101Z" fill="white"/>
</mask>
<g mask="url(#mask5_5567_152581)">
<path fill-rule="evenodd" clip-rule="evenodd" d="M74.0975 49.6059L85.5428 49.8057L85.7768 36.3997L74.3315 36.2L74.0975 49.6059Z" fill="#C69C45"/>
</g>
<mask id="mask6_5567_152581" style="mask-type:alpha" maskUnits="userSpaceOnUse" x="76" y="38" width="8" height="11">
<path fill-rule="evenodd" clip-rule="evenodd" d="M76.2654 41.0622C75.5092 43.4164 76.5088 46.3103 78.6622 47.6851C80.8145 49.0628 82.83 47.9018 83.5224 45.4816C84.2147 43.0613 83.3015 40.2569 81.2131 38.9463C80.6135 38.5717 80.0136 38.3912 79.4447 38.3813C78.0289 38.3566 76.8048 39.3824 76.2654 41.0622ZM78.8994 46.53C77.3253 45.5444 76.5743 43.364 77.16 41.6069C77.7458 39.8479 79.3881 39.1024 80.9248 40.0514C82.4624 40.9994 83.1644 43.1279 82.616 44.9246C82.2246 46.204 81.303 46.976 80.2361 46.9574C79.8062 46.9499 79.3525 46.814 78.8994 46.53Z" fill="white"/>
</mask>
<g mask="url(#mask6_5567_152581)">
<path fill-rule="evenodd" clip-rule="evenodd" d="M73.1254 50.8919L86.3704 51.1231L86.6385 35.7615L73.3936 35.5303L73.1254 50.8919Z" fill="#D8B56D"/>
</g>
<mask id="mask7_5567_152581" style="mask-type:alpha" maskUnits="userSpaceOnUse" x="80" y="36" width="3" height="3">
<path fill-rule="evenodd" clip-rule="evenodd" d="M81.6105 36.9139C81.1754 37.0303 80.9554 37.0885 80.5163 37.2019C80.3948 37.4618 80.3325 37.5887 80.2031 37.8405C80.5197 37.9821 80.6765 38.0518 80.9911 38.1923C81.4361 38.0831 81.6591 38.0259 82.1031 37.9157C82.2315 37.6639 82.2958 37.536 82.4173 37.2771C82.0998 37.1335 81.938 37.0607 81.6215 36.9141L81.6105 36.9139Z" fill="white"/>
</mask>
<g mask="url(#mask7_5567_152581)">
<path fill-rule="evenodd" clip-rule="evenodd" d="M77.4046 40.8742L85.0965 41.0084L85.2148 34.2295L77.5229 34.0952L77.4046 40.8742Z" fill="#FF728C"/>
</g>
<mask id="mask8_5567_152581" style="mask-type:alpha" maskUnits="userSpaceOnUse" x="79" y="37" width="2" height="2">
<path fill-rule="evenodd" clip-rule="evenodd" d="M79.9749 38.3705C80.3441 38.534 80.5277 38.6142 80.8959 38.7756C80.936 38.5443 80.956 38.4266 80.9911 38.1922C80.6765 38.0517 80.5197 37.982 80.2032 37.8404C80.1144 38.0549 80.0685 38.1611 79.9749 38.3705Z" fill="white"/>
</mask>
<g mask="url(#mask8_5567_152581)">
<path fill-rule="evenodd" clip-rule="evenodd" d="M77.1757 41.4562L83.6777 41.5697L83.7896 35.1577L77.2876 35.0442L77.1757 41.4562Z" fill="#FF3E61"/>
</g>
<mask id="mask9_5567_152581" style="mask-type:alpha" maskUnits="userSpaceOnUse" x="80" y="37" width="3" height="2">
<path fill-rule="evenodd" clip-rule="evenodd" d="M80.9909 38.1924C80.9548 38.4268 80.9367 38.5445 80.8957 38.7758C81.424 38.65 81.6891 38.5856 82.2164 38.4578C82.1732 38.242 82.1501 38.1346 82.1029 37.9148C81.6589 38.026 81.4359 38.0831 80.9909 38.1924Z" fill="white"/>
</mask>
<g mask="url(#mask9_5567_152581)">
<path fill-rule="evenodd" clip-rule="evenodd" d="M78.1031 41.4726L84.9071 41.5914L85.0183 35.2203L78.2144 35.1016L78.1031 41.4726Z" fill="#FE0B37"/>
</g>
<mask id="mask10_5567_152581" style="mask-type:alpha" maskUnits="userSpaceOnUse" x="82" y="37" width="1" height="2">
<path fill-rule="evenodd" clip-rule="evenodd" d="M82.103 37.9156C82.1502 38.1345 82.1734 38.2419 82.2166 38.4577C82.3747 38.1654 82.4513 38.0177 82.6016 37.7173C82.5296 37.543 82.4921 37.4544 82.4172 37.277C82.2957 37.5359 82.2315 37.6638 82.103 37.9156Z" fill="white"/>
</mask>
<g mask="url(#mask10_5567_152581)">
<path fill-rule="evenodd" clip-rule="evenodd" d="M79.301 41.1522L85.2851 41.2567L85.4016 34.5837L79.4175 34.4792L79.301 41.1522Z" fill="#FF3E61"/>
</g>
<mask id="mask11_5567_152581" style="mask-type:alpha" maskUnits="userSpaceOnUse" x="75" y="43" width="11" height="6">
<path fill-rule="evenodd" clip-rule="evenodd" d="M75.4382 44.2103L75.3869 47.1498L79.3994 48.4171C81.5389 49.0915 83.8736 48.3851 85.2793 46.6364C83.2051 44.5129 80.3976 43.9998 78.3129 43.9634C76.6452 43.9343 75.4382 44.2103 75.4382 44.2103Z" fill="white"/>
</mask>
<g mask="url(#mask11_5567_152581)">
<path fill-rule="evenodd" clip-rule="evenodd" d="M72.5695 51.2673L87.9402 51.5356L88.1172 41.3901L72.7466 41.1218L72.5695 51.2673Z" fill="#63B5FA"/>
</g>
<mask id="mask12_5567_152581" style="mask-type:alpha" maskUnits="userSpaceOnUse" x="62" y="122" width="26" height="22">
<path fill-rule="evenodd" clip-rule="evenodd" d="M62.4795 129.336L63.525 137.851C63.712 139.374 64.9489 140.603 66.6151 140.911L79.3681 143.288C80.2327 143.45 81.1139 143.338 81.8951 143.012L80.1785 129.031L87.4779 122.706L62.4795 129.336Z" fill="white"/>
</mask>
<g mask="url(#mask12_5567_152581)">
<path fill-rule="evenodd" clip-rule="evenodd" d="M60.7246 150.083L94.6299 145.92L91.1954 117.948L57.29 122.111L60.7246 150.083Z" fill="#1868AB"/>
</g>
<mask id="mask13_5567_152581" style="mask-type:alpha" maskUnits="userSpaceOnUse" x="79" y="122" width="11" height="22">
<path fill-rule="evenodd" clip-rule="evenodd" d="M87.0443 122.941L79.6798 129.271L81.3952 143.243C82.053 142.971 82.6383 142.556 83.075 142.002L88.7719 134.803C89.3582 134.064 89.6219 133.161 89.5129 132.274L88.3254 122.602L87.0443 122.941Z" fill="white"/>
</mask>
<g mask="url(#mask13_5567_152581)">
<path fill-rule="evenodd" clip-rule="evenodd" d="M77.6772 148.001L95.4791 145.815L92.0445 117.844L74.2427 120.029L77.6772 148.001Z" fill="#135388"/>
</g>
<mask id="mask14_5567_152581" style="mask-type:alpha" maskUnits="userSpaceOnUse" x="62" y="120" width="27" height="12">
<path fill-rule="evenodd" clip-rule="evenodd" d="M71.4504 120.988L62.4936 129.451L77.4326 131.506C79.1607 131.744 80.9161 131.107 82.0119 129.845L88.3233 122.584L74.218 120.17C73.8996 120.117 73.5774 120.109 73.2624 120.148C72.5846 120.231 71.9419 120.523 71.4504 120.988Z" fill="white"/>
</mask>
<g mask="url(#mask14_5567_152581)">
<path fill-rule="evenodd" clip-rule="evenodd" d="M59.268 138.217L94.0226 133.95L91.5246 113.605L56.77 117.873L59.268 138.217Z" fill="#63B5FA"/>
</g>
<mask id="mask15_5567_152581" style="mask-type:alpha" maskUnits="userSpaceOnUse" x="70" y="113" width="14" height="18">
<path fill-rule="evenodd" clip-rule="evenodd" d="M73.1744 114.479C72.0188 115.279 71.4293 115.673 70.2412 116.451C71.505 115.626 73.1868 115.525 74.9495 116.313C78.4517 117.878 80.4607 121.987 79.9172 125.87C79.646 127.796 78.854 129.349 77.6459 130.194C78.7976 129.388 79.3823 128.993 80.5671 128.214C81.8099 127.397 82.678 125.902 82.9993 124.013C83.1301 123.24 83.1457 122.448 83.059 121.666L83.0374 121.49C82.638 118.492 80.7175 115.641 77.9049 114.356C76.8493 113.878 75.8366 113.709 74.9334 113.82C74.2818 113.9 73.6872 114.125 73.1744 114.479Z" fill="white"/>
</mask>
<g mask="url(#mask15_5567_152581)">
<path fill-rule="evenodd" clip-rule="evenodd" d="M68.2955 135.642L88.7684 133.128L85.7068 108.194L65.2339 110.707L68.2955 135.642Z" fill="#ECCC8B"/>
</g>
<mask id="mask16_5567_152581" style="mask-type:alpha" maskUnits="userSpaceOnUse" x="69" y="116" width="11" height="13">
<path fill-rule="evenodd" clip-rule="evenodd" d="M71.2064 118.184C70.2421 118.781 69.5389 119.87 69.2777 121.278C68.7573 124.112 70.3863 127.308 73.0228 128.485C74.3527 129.079 75.6183 128.997 76.5734 128.377C77.5418 127.75 78.032 127.441 79.0175 126.826C78.0451 127.433 76.7827 127.516 75.4804 126.942C72.8907 125.801 71.328 122.66 71.8066 119.792C72.0453 118.367 72.7174 117.254 73.6678 116.647C72.6908 117.267 72.199 117.577 71.2064 118.184Z" fill="white"/>
</mask>
<g mask="url(#mask16_5567_152581)">
<path fill-rule="evenodd" clip-rule="evenodd" d="M66.2943 134.262L83.968 132.092L81.4262 111.391L63.7524 113.561L66.2943 134.262Z" fill="#C69C45"/>
</g>
<mask id="mask17_5567_152581" style="mask-type:alpha" maskUnits="userSpaceOnUse" x="67" y="115" width="14" height="16">
<path fill-rule="evenodd" clip-rule="evenodd" d="M67.7832 120.633C67.1279 124.423 69.2943 128.664 72.909 130.316C76.5227 131.972 79.3761 129.748 79.9187 125.869C80.4612 121.991 78.4474 117.869 74.9466 116.302C73.9419 115.855 72.9787 115.707 72.1002 115.815C69.9139 116.083 68.2504 117.929 67.7832 120.633ZM73.0243 128.485C70.3863 127.308 68.7573 124.112 69.2792 121.278C69.8007 118.442 72.1691 116.938 74.7417 118.067C77.3156 119.195 78.8577 122.321 78.4018 125.208C78.0759 127.263 76.8234 128.652 75.176 128.854C74.5121 128.936 73.7838 128.825 73.0243 128.485Z" fill="white"/>
</mask>
<g mask="url(#mask17_5567_152581)">
<path fill-rule="evenodd" clip-rule="evenodd" d="M65.0742 136.455L85.5271 133.943L82.6145 110.222L62.1616 112.733L65.0742 136.455Z" fill="#D8B56D"/>
</g>
<mask id="mask18_5567_152581" style="mask-type:alpha" maskUnits="userSpaceOnUse" x="73" y="113" width="4" height="3">
<path fill-rule="evenodd" clip-rule="evenodd" d="M75.1193 113.085C74.4743 113.359 74.1479 113.496 73.4962 113.766C73.3652 114.193 73.2968 114.402 73.152 114.817C73.6703 114.967 73.9269 115.04 74.4419 115.189C75.1037 114.924 75.4349 114.788 76.095 114.522C76.2383 114.106 76.3096 113.895 76.4407 113.47C75.9205 113.318 75.6556 113.241 75.1363 113.083L75.1193 113.085Z" fill="white"/>
</mask>
<g mask="url(#mask18_5567_152581)">
<path fill-rule="evenodd" clip-rule="evenodd" d="M69.4982 120.096L81.3759 118.638L80.0906 108.17L68.2129 109.628L69.4982 120.096Z" fill="#FF728C"/>
</g>
<mask id="mask19_5567_152581" style="mask-type:alpha" maskUnits="userSpaceOnUse" x="72" y="114" width="3" height="3">
<path fill-rule="evenodd" clip-rule="evenodd" d="M72.9147 115.683C73.5188 115.855 73.819 115.939 74.4212 116.108C74.4328 115.743 74.4382 115.558 74.4416 115.189C73.9265 115.04 73.6699 114.967 73.1516 114.817C73.0613 115.167 73.0136 115.341 72.9147 115.683Z" fill="white"/>
</mask>
<g mask="url(#mask19_5567_152581)">
<path fill-rule="evenodd" clip-rule="evenodd" d="M69.2704 121.043L79.3108 119.81L78.0951 109.908L68.0547 111.141L69.2704 121.043Z" fill="#FF3E61"/>
</g>
<mask id="mask20_5567_152581" style="mask-type:alpha" maskUnits="userSpaceOnUse" x="74" y="114" width="3" height="3">
<path fill-rule="evenodd" clip-rule="evenodd" d="M74.4419 115.189C74.437 115.558 74.4347 115.743 74.4216 116.108C75.2081 115.8 75.6026 115.643 76.3872 115.332C76.2739 115.009 76.215 114.849 76.0948 114.52C75.4349 114.788 75.1037 114.924 74.4419 115.189Z" fill="white"/>
</mask>
<g mask="url(#mask20_5567_152581)">
<path fill-rule="evenodd" clip-rule="evenodd" d="M70.7036 120.867L81.2102 119.577L80.0023 109.739L69.4956 111.029L70.7036 120.867Z" fill="#FE0B37"/>
</g>
<mask id="mask21_5567_152581" style="mask-type:alpha" maskUnits="userSpaceOnUse" x="76" y="113" width="1" height="3">
<path fill-rule="evenodd" clip-rule="evenodd" d="M76.0949 114.522C76.215 114.849 76.2739 115.009 76.3872 115.332C76.5675 114.848 76.6535 114.604 76.82 114.108C76.6714 113.856 76.5945 113.727 76.4407 113.47C76.3095 113.895 76.2382 114.106 76.0949 114.522Z" fill="white"/>
</mask>
<g mask="url(#mask21_5567_152581)">
<path fill-rule="evenodd" clip-rule="evenodd" d="M72.4796 120.114L81.7202 118.98L80.455 108.675L71.2144 109.81L72.4796 120.114Z" fill="#FF3E61"/>
</g>
<mask id="mask22_5567_152581" style="mask-type:alpha" maskUnits="userSpaceOnUse" x="67" y="124" width="16" height="8">
<path fill-rule="evenodd" clip-rule="evenodd" d="M67.1911 125.661L67.7484 130.2L74.2037 131.284C77.6455 131.86 81.089 130.266 82.8758 127.268C79.2208 124.446 74.7851 124.263 71.5659 124.659C68.9906 124.975 67.1911 125.661 67.1911 125.661Z" fill="white"/>
</mask>
<g mask="url(#mask22_5567_152581)">
<path fill-rule="evenodd" clip-rule="evenodd" d="M64.3001 137.153L88.0354 134.239L86.1118 118.572L62.3765 121.486L64.3001 137.153Z" fill="#63B5FA"/>
</g>
<mask id="mask23_5567_152581" style="mask-type:alpha" maskUnits="userSpaceOnUse" x="209" y="79" width="27" height="22">
<path fill-rule="evenodd" clip-rule="evenodd" d="M224.426 79.8271C224.301 79.829 224.183 79.8869 224.103 79.9815C224.021 80.0761 223.985 80.2025 224.003 80.3258L224.61 84.5831C224.646 84.8047 224.843 84.9652 225.067 84.9551C228.996 84.7786 232.401 85.7802 234.227 87.6134C233.04 90.7541 228.907 93.6834 223.572 94.8185C218.234 95.9535 213.267 94.9577 210.906 92.5701C211.828 90.1518 214.532 87.8527 218.192 86.4143C218.402 86.334 218.516 86.1079 218.458 85.8909L217.283 81.7538C217.247 81.6341 217.163 81.5346 217.05 81.4807C216.939 81.4267 216.807 81.4234 216.693 81.4704C211.904 83.4731 208.879 86.9659 209.562 90.1843L210.655 95.3182C211.513 99.3537 217.784 101.438 224.667 99.9744C230.874 98.6565 235.451 94.9048 235.663 91.222L235.67 90.849C235.664 90.5719 235.632 90.2963 235.574 90.0222L234.477 84.8673C233.814 81.8213 230.011 79.9096 225.197 79.8256C224.943 79.8211 224.686 79.8207 224.426 79.8271Z" fill="white"/>
</mask>
<g mask="url(#mask23_5567_152581)">
<path fill-rule="evenodd" clip-rule="evenodd" d="M207.859 80.2284L238.148 73.79L243.4 98.4934L213.11 104.931L207.859 80.2284Z" fill="#ECCC8B"/>
</g>
<mask id="mask24_5567_152581" style="mask-type:alpha" maskUnits="userSpaceOnUse" x="212" y="91" width="23" height="8">
<path fill-rule="evenodd" clip-rule="evenodd" d="M234.102 91.0747C233.952 91.0721 233.809 91.1476 233.727 91.2742C232.029 93.875 228.313 96.0564 224.027 96.9668C219.742 97.8781 215.459 97.3973 212.85 95.7115C212.647 95.58 212.376 95.6372 212.244 95.841C212.112 96.0447 212.171 96.3168 212.374 96.4483C215.213 98.2842 219.638 98.7985 224.21 97.8261C228.783 96.8538 232.615 94.5843 234.464 91.7531C234.549 91.6236 234.558 91.4557 234.486 91.3155C234.416 91.1752 234.276 91.0838 234.12 91.075C234.114 91.0749 234.108 91.0748 234.102 91.0747Z" fill="white"/>
</mask>
<g mask="url(#mask24_5567_152581)">
<mask id="mask25_5567_152581" style="mask-type:alpha" maskUnits="userSpaceOnUse" x="209" y="81" width="10" height="12">
<path fill-rule="evenodd" clip-rule="evenodd" d="M216.693 81.4705C211.905 83.4713 208.88 86.966 209.563 90.1854C209.61 90.4022 209.673 90.6154 209.753 90.8218C209.793 90.9295 209.84 91.0384 209.888 91.1402C209.959 91.2985 210.041 91.4519 210.134 91.5986C210.227 91.7452 210.327 91.891 210.431 92.0298C210.578 92.2214 210.736 92.4022 210.906 92.5722C211.828 90.1519 214.533 87.8528 218.193 86.4144C218.402 86.3341 218.517 86.109 218.458 85.891L217.282 81.7538C217.247 81.6332 217.164 81.5347 217.051 81.4808C216.993 81.4537 216.931 81.4387 216.868 81.4376C216.808 81.4365 216.749 81.4485 216.693 81.4705Z" fill="white"/>
</mask>
<g mask="url(#mask25_5567_152581)">
<path fill-rule="evenodd" clip-rule="evenodd" d="M207.859 80.2284L222.613 77.0915L225.763 91.9137L211.009 95.0497L207.859 80.2284Z" fill="#C69C45"/>
</g>
<path fill-rule="evenodd" clip-rule="evenodd" d="M211.853 92.6799L239.565 86.7896L241.653 96.6186L213.942 102.509L211.853 92.6799Z" fill="#C69C45"/>
</g>
<path fill-rule="evenodd" clip-rule="evenodd" d="M222.211 125.271C222.736 123.716 224.412 122.872 225.973 123.375L241.409 128.346C242.969 128.849 243.837 130.511 243.358 132.079L234.662 160.53C234.174 162.129 232.471 163.02 230.879 162.51L214.616 157.304C213.021 156.793 212.153 155.075 212.688 153.487L222.211 125.271Z" fill="#99DDB8"/>
<path fill-rule="evenodd" clip-rule="evenodd" d="M219.222 124.026C219.734 122.45 221.427 121.588 223.003 122.1L240.122 127.662C241.697 128.174 242.56 129.866 242.048 131.442L232.777 159.974C232.265 161.55 230.573 162.412 228.997 161.9L211.878 156.338C210.302 155.826 209.44 154.133 209.952 152.557L219.222 124.026Z" fill="#CC9D3F"/>
<mask id="mask26_5567_152581" style="mask-type:alpha" maskUnits="userSpaceOnUse" x="209" y="121" width="34" height="42">
<path fill-rule="evenodd" clip-rule="evenodd" d="M219.222 124.026C219.734 122.45 221.427 121.588 223.003 122.1L240.122 127.662C241.697 128.174 242.56 129.866 242.048 131.442L232.777 159.974C232.265 161.55 230.573 162.412 228.997 161.9L211.878 156.338C210.302 155.826 209.44 154.133 209.952 152.557L219.222 124.026Z" fill="white"/>
</mask>
<g mask="url(#mask26_5567_152581)">
<rect x="217.296" y="120.246" width="24" height="36" rx="3" transform="rotate(18 217.296 120.246)" fill="#FFC54F"/>
<path fill-rule="evenodd" clip-rule="evenodd" d="M227.707 129.182L222.881 130.845C222.291 131.048 221.885 131.619 221.878 132.257L221.822 137.467C221.815 138.105 222.209 138.665 222.796 138.856L227.586 140.412C228.173 140.603 228.821 140.381 229.191 139.861L232.207 135.613C232.577 135.093 232.584 134.392 232.226 133.881L229.299 129.699C228.941 129.188 228.297 128.979 227.707 129.182Z" fill="#CC9D3F"/>
<rect x="217.94" y="142.535" width="12" height="2.5" rx="1.25" transform="rotate(18 217.94 142.535)" fill="#CC9D3F"/>
<rect x="216.086" y="148.242" width="12" height="2.5" rx="1.25" transform="rotate(18 216.086 148.242)" fill="#CC9D3F"/>
</g>
<path fill-rule="evenodd" clip-rule="evenodd" d="M92.8006 77.0074C92.5341 75.3886 93.6173 73.8559 95.2323 73.5669L111.195 70.7101C112.809 70.4213 114.355 71.4813 114.668 73.0905L120.347 102.294C120.667 103.935 119.582 105.521 117.936 105.818L101.133 108.857C99.4846 109.155 97.9114 108.045 97.6392 106.392L92.8006 77.0074Z" fill="#99DDB8"/>
<path fill-rule="evenodd" clip-rule="evenodd" d="M89.5771 77.3114C89.2894 75.6797 90.3789 74.1237 92.0106 73.836L109.737 70.7103C111.369 70.4226 112.925 71.5121 113.212 73.1438L118.422 102.688C118.71 104.32 117.62 105.876 115.988 106.163L98.2619 109.289C96.6302 109.577 95.0743 108.487 94.7865 106.856L89.5771 77.3114Z" fill="#CC9D3F"/>
<mask id="mask27_5567_152581" style="mask-type:alpha" maskUnits="userSpaceOnUse" x="89" y="70" width="30" height="40">
<path fill-rule="evenodd" clip-rule="evenodd" d="M89.5771 77.3114C89.2894 75.6797 90.3789 74.1237 92.0106 73.836L109.737 70.7103C111.369 70.4226 112.925 71.5121 113.212 73.1438L118.422 102.688C118.71 104.32 117.62 105.876 115.988 106.163L98.2619 109.289C96.6302 109.577 95.0743 108.487 94.7865 106.856L89.5771 77.3114Z" fill="white"/>
</mask>
<g mask="url(#mask27_5567_152581)">
<rect x="86.1016" y="74.8779" width="24" height="36" rx="3" transform="rotate(-10 86.1016 74.8779)" fill="#FFC54F"/>
<path fill-rule="evenodd" clip-rule="evenodd" d="M99.4895 77.8806L96.0094 81.6146C95.5834 82.0711 95.4932 82.7657 95.7871 83.3326L98.1829 87.9585C98.4768 88.5254 99.087 88.8352 99.6947 88.728L104.656 87.8533C105.263 87.7461 105.731 87.2463 105.813 86.6131L106.482 81.4467C106.565 80.8135 106.242 80.1916 105.686 79.9084L101.138 77.5898C100.582 77.3065 99.9155 77.4241 99.4895 77.8806Z" fill="#CC9D3F"/>
<rect x="97.1343" y="94.2566" width="12" height="2.5" rx="1.25" transform="rotate(-10 97.1343 94.2566)" fill="#CC9D3F"/>
<rect x="98.1763" y="100.165" width="12" height="2.5" rx="1.25" transform="rotate(-10 98.1763 100.165)" fill="#CC9D3F"/>
</g>
<path fill-rule="evenodd" clip-rule="evenodd" d="M253.242 46.5792C253.505 45.3071 254.74 44.4817 256.016 44.7262L268.624 47.1436C269.899 47.388 270.741 48.6102 270.516 49.8883L266.428 73.083C266.198 74.3868 264.947 75.2511 263.646 75.0041L250.365 72.4824C249.062 72.2351 248.214 70.9685 248.482 69.6696L253.242 46.5792Z" fill="#99DDB8"/>
<path fill-rule="evenodd" clip-rule="evenodd" d="M250.773 45.8892C251.024 44.6016 252.27 43.7608 253.558 44.011L267.546 46.7301C268.834 46.9803 269.675 48.227 269.424 49.5146L264.893 72.8282C264.642 74.1158 263.396 74.9567 262.108 74.7064L248.12 71.9874C246.832 71.7371 245.991 70.4904 246.242 69.2029L250.773 45.8892Z" fill="#CC9D3F"/>
<mask id="mask28_5567_152581" style="mask-type:alpha" maskUnits="userSpaceOnUse" x="246" y="43" width="24" height="32">
<path fill-rule="evenodd" clip-rule="evenodd" d="M250.773 45.8892C251.024 44.6016 252.27 43.7608 253.558 44.011L267.546 46.7301C268.834 46.9803 269.675 48.227 269.424 49.5146L264.893 72.8282C264.642 74.1158 263.396 74.9567 262.108 74.7064L248.12 71.9874C246.832 71.7371 245.991 70.4904 246.242 69.2029L250.773 45.8892Z" fill="white"/>
</mask>
<g mask="url(#mask28_5567_152581)">
<rect x="248.895" y="43.1047" width="19" height="28.5" rx="2.375" transform="rotate(11 248.895 43.1047)" fill="#FFC54F"/>
<path fill-rule="evenodd" clip-rule="evenodd" d="M257.938 49.122L254.306 50.8944C253.862 51.1109 253.598 51.5987 253.655 52.1011L254.113 56.1997C254.169 56.7021 254.533 57.1042 255.012 57.1974L258.927 57.9584C259.406 58.0516 259.894 57.8147 260.134 57.3701L262.094 53.7416C262.335 53.2969 262.273 52.7459 261.942 52.3786L259.239 49.3749C258.908 49.0077 258.382 48.9054 257.938 49.122Z" fill="#CC9D3F"/>
<rect x="251.551" y="60.5571" width="9.5" height="1.97917" rx="0.989583" transform="rotate(11 251.551 60.5571)" fill="#CC9D3F"/>
<rect x="250.645" y="65.22" width="9.5" height="1.97917" rx="0.989583" transform="rotate(11 250.645 65.22)" fill="#CC9D3F"/>
</g>
<path fill-rule="evenodd" clip-rule="evenodd" d="M273.334 40.9151L272.414 42.0236L271.042 42.4607C270.816 42.5331 270.759 42.827 270.942 42.9791L272.05 43.8982L272.487 45.2705C272.559 45.4971 272.854 45.5543 273.005 45.3712L273.925 44.2627L275.297 43.8257C275.524 43.7533 275.581 43.4593 275.398 43.3073L274.289 42.3881L273.852 41.0157C273.78 40.7892 273.485 40.7319 273.334 40.9151Z" fill="#E8AC00"/>
<path fill-rule="evenodd" clip-rule="evenodd" d="M275.709 45.6651L274.789 46.7736L273.417 47.2107C273.191 47.2831 273.134 47.577 273.317 47.7291L274.425 48.6482L274.862 50.0205C274.934 50.2471 275.229 50.3043 275.38 50.1212L276.3 49.0127L277.672 48.5757C277.899 48.5033 277.956 48.2093 277.773 48.0573L276.664 47.1381L276.227 45.7657C276.155 45.5392 275.86 45.4819 275.709 45.6651Z" fill="#E8AC00"/>
<path fill-rule="evenodd" clip-rule="evenodd" d="M197.799 140.71L196.344 143.37L193.684 144.824C193.245 145.065 193.245 145.696 193.684 145.936L196.344 147.391L197.799 150.051C198.039 150.49 198.67 150.49 198.91 150.051L200.365 147.391L203.025 145.936C203.465 145.696 203.465 145.065 203.025 144.824L200.365 143.37L198.91 140.71C198.67 140.271 198.039 140.271 197.799 140.71Z" fill="white"/>
<path fill-rule="evenodd" clip-rule="evenodd" d="M189.799 151.71L188.344 154.37L185.684 155.824C185.245 156.065 185.245 156.696 185.684 156.936L188.344 158.391L189.799 161.051C190.039 161.49 190.67 161.49 190.91 161.051L192.365 158.391L195.025 156.936C195.465 156.696 195.465 156.065 195.025 155.824L192.365 154.37L190.91 151.71C190.67 151.271 190.039 151.271 189.799 151.71Z" fill="white"/>
<path fill-rule="evenodd" clip-rule="evenodd" d="M63.7991 150.71L62.3435 153.37L59.6845 154.824C59.2451 155.065 59.2451 155.696 59.6845 155.936L62.3435 157.391L63.7991 160.051C64.0385 160.49 64.6702 160.49 64.9096 160.051L66.3652 157.391L69.0255 155.936C69.4648 155.696 69.4648 155.065 69.0255 154.824L66.3652 153.37L64.9096 150.71C64.6702 150.271 64.0385 150.271 63.7991 150.71Z" fill="white"/>
</g>
</svg>
