<svg width="328" height="164" viewBox="0 0 328 164" fill="none" xmlns="http://www.w3.org/2000/svg">
<path d="M23.2189 160.519C33.6809 162.669 265.053 164.815 301.876 160.519C312.777 159.247 321.503 147.372 322.776 145.312C330.736 132.425 327.751 52.9545 325.761 26.1058C324.69 11.6562 309.838 5.16403 302.871 3.01632C289.548 -1.0911 53.2799 -1.25595 22.2229 4.09063C8.32787 6.48192 3.29087 17.7623 2.29087 24.0322C-0.0421274 38.6476 -1.42113 128.542 2.31887 140.651C5.30487 150.316 12.7689 158.371 23.2189 160.519Z" fill="#E8FFFC"/>
<mask id="mask0_5567_161792" style="mask-type:alpha" maskUnits="userSpaceOnUse" x="0" y="0" width="328" height="163">
<path fill-rule="evenodd" clip-rule="evenodd" d="M23.2189 160.519C33.6809 162.669 265.053 164.815 301.876 160.519C312.777 159.247 321.503 147.372 322.776 145.312C330.736 132.425 327.751 52.9545 325.761 26.1058C324.69 11.6562 309.838 5.16403 302.871 3.01632C289.548 -1.0911 53.2799 -1.25595 22.2229 4.09063C8.32787 6.48192 3.29087 17.7623 2.29087 24.0322C-0.0421274 38.6476 -1.42113 128.542 2.31887 140.651C5.30487 150.316 12.7689 158.371 23.2189 160.519Z" fill="white"/>
</mask>
<g mask="url(#mask0_5567_161792)">
<path d="M11.5738 63.7944C12.962 63.3521 14.4381 63.1225 15.9794 63.1225C22.7021 63.1225 28.3532 67.6122 30.1241 73.7471H11.4651H1.85444H-22.2421C-22.726 72.1236 -23 70.3923 -23 68.6025C-23 58.8822 -15.1168 51 -5.3767 51C2.67471 51 9.46453 56.4158 11.5738 63.7944Z" fill="#BFF6CB"/>
</g>
<mask id="mask1_5567_161792" style="mask-type:alpha" maskUnits="userSpaceOnUse" x="0" y="0" width="328" height="163">
<path fill-rule="evenodd" clip-rule="evenodd" d="M23.2189 160.519C33.6809 162.669 265.053 164.815 301.876 160.519C312.777 159.247 321.503 147.372 322.776 145.312C330.736 132.425 327.751 52.9545 325.761 26.1058C324.69 11.6562 309.838 5.16403 302.871 3.01632C289.548 -1.0911 53.2799 -1.25595 22.2229 4.09063C8.32787 6.48192 3.29087 17.7623 2.29087 24.0322C-0.0421274 38.6476 -1.42113 128.542 2.31887 140.651C5.30487 150.316 12.7689 158.371 23.2189 160.519Z" fill="white"/>
</mask>
<g mask="url(#mask1_5567_161792)">
<path d="M308.555 22.2461C307.091 21.7795 305.535 21.5372 303.91 21.5372C296.824 21.5372 290.867 26.2742 289 32.7471H308.669H318.8H344.201C344.711 31.0341 345 29.2075 345 27.3191C345 17.0635 336.69 8.74707 326.423 8.74707C317.935 8.74707 310.778 14.4612 308.555 22.2461Z" fill="#BFF6CB"/>
</g>
<mask id="mask2_5567_161792" style="mask-type:alpha" maskUnits="userSpaceOnUse" x="0" y="0" width="328" height="164">
<path fill-rule="evenodd" clip-rule="evenodd" d="M23.2189 161.504C33.6809 163.667 265.053 165.826 301.876 161.504C312.777 160.224 321.503 148.276 322.776 146.203C330.736 133.238 327.751 53.2794 325.761 26.266C324.69 11.7278 309.838 5.19571 302.871 3.03482C289.548 -1.09779 53.2799 -1.26366 22.2229 4.11573C8.32787 6.52168 3.29087 17.8712 2.29087 24.1796C-0.0421274 38.8847 -1.42113 129.331 2.31887 141.514C5.30487 151.239 12.7689 159.343 23.2189 161.504Z" fill="white"/>
</mask>
<g mask="url(#mask2_5567_161792)">
<path d="M132.922 94.2552C132.922 94.2552 -38.1699 85.057 -23.7229 120.241C-20.1247 129.003 -27.4932 155.234 -14.3268 159.572C20.3489 171 221.984 188.672 323.011 174.98C411.366 163.005 347.409 56.4675 254.66 62.7966C161.911 69.1256 132.922 94.2552 132.922 94.2552Z" fill="#BBF0D3"/>
<path d="M240.943 77.99H246.239C236.229 82.9141 211.644 83.436 203.982 92.3865C197.117 100.407 235.57 101.574 252.282 108.034C268.775 114.411 265.775 123.118 260.563 129.173C256.98 133.334 252.256 136.371 247.047 138.108C156.746 168.241 -25 163.5 -25 163.5C-25 163.5 -23.4642 150.743 -20.3926 125.229C-20.3926 125.229 91.3807 122.827 123.62 125.229C123.62 125.229 245.573 120.661 226.458 114.705C203.086 107.422 184.911 102.972 192.062 91.1538C197.124 82.7885 240.943 77.99 240.943 77.99Z" fill="#84D7CC"/>
<path d="M243.357 20.8841L242.953 21.2883V20.8841H243.357Z" fill="white"/>
<path d="M255.168 20.8841L254.764 21.2883V20.8841H255.168Z" fill="white"/>
<path d="M266.981 20.8841L266.577 21.2883V20.8841H266.981Z" fill="white"/>
<path d="M276.502 71.0497V71.0821H276.47L276.502 71.0497Z" fill="white"/>
<path d="M240.644 35.5788C240.648 35.5644 240.65 35.5497 240.651 35.5348C240.755 35.5348 240.858 35.5348 240.962 35.5348C240.865 35.6195 240.752 35.5829 240.644 35.5788Z" fill="#D9E68B"/>
<path d="M248.924 35.5795C248.928 35.5649 248.93 35.55 248.929 35.5349C249.033 35.5349 249.136 35.5349 249.24 35.5349C249.144 35.6134 249.032 35.5841 248.924 35.5795Z" fill="#BDDFA8"/>
<path d="M250.334 35.5788C250.225 35.584 250.112 35.6219 250.015 35.535C250.119 35.535 250.222 35.535 250.326 35.535C250.327 35.5499 250.33 35.5643 250.334 35.5788Z" fill="#A7D58A"/>
<path d="M234.857 42.4681C234.933 42.564 234.904 42.675 234.901 42.7824C234.886 42.7824 234.871 42.7811 234.857 42.7785C234.857 42.675 234.857 42.5716 234.857 42.4681Z" fill="#E5EEB1"/>
<path d="M242.048 35.535C242.05 35.5493 242.052 35.5635 242.054 35.5777C241.963 35.5842 241.868 35.6122 241.79 35.535C241.876 35.535 241.962 35.535 242.048 35.535Z" fill="#E0EBA0"/>
<path d="M234.856 41.3296C234.869 41.3227 234.883 41.3204 234.898 41.3227C234.906 41.4146 234.934 41.5099 234.856 41.5883C234.856 41.5021 234.856 41.4159 234.856 41.3296Z" fill="#DFEBA0"/>
<path d="M225.915 77.5454H272.717L272.779 39.0606C272.78 38.1438 272.037 37.3999 271.121 37.3999L227.323 37.3999C226.403 37.3999 225.659 38.1488 225.665 39.0687L225.915 77.5454Z" fill="#00AB4E"/>
<mask id="mask3_5567_161792" style="mask-type:alpha" maskUnits="userSpaceOnUse" x="225" y="37" width="48" height="41">
<path d="M225.915 77.5454H272.717L272.779 39.0606C272.78 38.1438 272.037 37.3999 271.121 37.3999L227.323 37.3999C226.403 37.3999 225.659 38.1488 225.665 39.0687L225.915 77.5454Z" fill="white"/>
</mask>
<g mask="url(#mask3_5567_161792)">
<path d="M274.233 52.4225C274.233 52.4225 257.443 53.5588 249.047 53.5588C240.652 53.5588 224.324 52.4225 224.324 52.4225V46.0192H274.233V52.4225Z" fill="#00883E"/>
</g>
<path fill-rule="evenodd" clip-rule="evenodd" d="M241.118 57.96C241.118 57.3174 240.597 56.7964 239.955 56.7964H230.142C229.499 56.7964 228.978 57.3174 228.978 57.96V77.1929H241.118V57.96Z" fill="#E6F6ED"/>
<mask id="mask4_5567_161792" style="mask-type:alpha" maskUnits="userSpaceOnUse" x="228" y="56" width="14" height="22">
<path fill-rule="evenodd" clip-rule="evenodd" d="M241.118 57.96C241.118 57.3174 240.597 56.7964 239.955 56.7964H230.142C229.499 56.7964 228.978 57.3174 228.978 57.96V77.1929H241.118V57.96Z" fill="white"/>
</mask>
<g mask="url(#mask4_5567_161792)">
<rect width="2.05365" height="25.2306" transform="matrix(-0.819152 -0.573576 -0.573576 0.819152 239.586 54.1104)" fill="#FEFEFE"/>
<rect width="4.69406" height="27.5776" transform="matrix(-0.819152 -0.573576 -0.573576 0.819152 244.977 56.7983)" fill="#FEFEFE"/>
</g>
<path d="M253.718 51.97C255.015 51.97 256.067 51.0001 256.067 49.8037V47.8616H251.368V49.8037C251.368 51.0001 252.42 51.97 253.718 51.97Z" fill="#002E28"/>
<path d="M244.318 51.97C245.616 51.97 246.668 51.0001 246.668 49.8037V47.8616H241.968V49.8037C241.968 51.0001 243.02 51.97 244.318 51.97Z" fill="#002E28"/>
<path d="M263.117 51.97C264.415 51.97 265.467 51.0001 265.467 49.8037V47.8616H260.767V49.8037C260.767 51.0001 261.819 51.97 263.117 51.97Z" fill="#002E28"/>
<path d="M272.516 51.97C273.814 51.97 274.866 51.0001 274.866 49.8037C274.866 49.8037 274.866 49.2338 274.866 48.9423C274.866 48.5864 274.866 47.8616 274.866 47.8616H270.167V49.8037C270.167 51.0001 271.219 51.97 272.516 51.97Z" fill="#002E28"/>
<path d="M234.92 51.97C236.217 51.97 237.27 51.0001 237.27 49.8037V47.8616H232.57V49.8037C232.57 51.0001 233.622 51.97 234.92 51.97Z" fill="#002E28"/>
<path d="M258.418 51.97C259.715 51.97 260.768 51.0001 260.768 49.8037V47.8616H256.068V49.8037C256.068 51.0001 257.12 51.97 258.418 51.97Z" fill="#C7CFE2"/>
<path d="M239.619 51.97C240.917 51.97 241.969 51.0001 241.969 49.8037V47.8616H237.269V49.8037C237.269 51.0001 238.321 51.97 239.619 51.97Z" fill="#C7CFE2"/>
<path d="M225.52 51.97C226.818 51.97 227.87 51.0001 227.87 49.8037V47.8616H223.17V49.8037C223.17 51.0001 224.223 51.97 225.52 51.97Z" fill="#002E28"/>
<path d="M230.219 51.97C231.517 51.97 232.569 51.0001 232.569 49.8037V47.8616H227.87V49.8037C227.87 51.0001 228.922 51.97 230.219 51.97Z" fill="#C7CFE2"/>
<path d="M267.817 51.97C269.115 51.97 270.167 51.0001 270.167 49.8037V47.8616H265.467V49.8037C265.467 51.0001 266.519 51.97 267.817 51.97Z" fill="#C7CFE2"/>
<path d="M249.018 51.97C250.316 51.97 251.368 51.0001 251.368 49.8037V47.8616H246.668V49.8037C246.668 51.0001 247.721 51.97 249.018 51.97Z" fill="#C7CFE2"/>
<path d="M251.368 47.8615H256.067L255.581 41.2881H251.206L251.368 47.8615Z" fill="#004D43"/>
<path d="M241.968 47.8615H246.668L246.83 41.2881H242.454L241.968 47.8615Z" fill="#004D43"/>
<path d="M260.767 47.8615H265.467L264.332 41.2881H259.957L260.767 47.8615Z" fill="#004D43"/>
<path d="M270.167 47.8615H274.866L273.084 41.2881H268.708L270.167 47.8615Z" fill="#004D43"/>
<path d="M232.569 47.8615H237.269L238.079 41.2881H233.704L232.569 47.8615Z" fill="#004D43"/>
<path d="M256.068 47.8615H260.768L259.957 41.2881H255.582L256.068 47.8615Z" fill="#EFF2FA"/>
<path d="M237.269 47.8615H241.969L242.455 41.2881H238.079L237.269 47.8615Z" fill="#EFF2FA"/>
<path d="M223.17 47.8615H227.87L229.328 41.2881H224.953L223.17 47.8615Z" fill="#004D43"/>
<path d="M227.87 47.8615H232.57L233.704 41.2881H229.329L227.87 47.8615Z" fill="#EFF2FA"/>
<path d="M265.467 47.8615H270.167L268.708 41.2881H264.333L265.467 47.8615Z" fill="#EFF2FA"/>
<path d="M246.668 47.8615H251.368L251.206 41.2881H246.831L246.668 47.8615Z" fill="#EFF2FA"/>
<path d="M234.804 39.5059H263.117C263.369 39.5059 263.573 39.2071 263.573 38.8384V32.1638C263.573 31.7952 263.369 31.4963 263.117 31.4963H234.804C234.551 31.4963 234.347 31.7952 234.347 32.1638V38.8385C234.347 39.2071 234.551 39.5059 234.804 39.5059Z" fill="white"/>
<rect width="24.311" height="16.0084" rx="1.16364" transform="matrix(-1 0 0 1 269.158 56.8333)" fill="#E6F6ED"/>
<mask id="mask5_5567_161792" style="mask-type:alpha" maskUnits="userSpaceOnUse" x="244" y="56" width="26" height="17">
<rect width="24.311" height="16.0084" rx="1.16364" transform="matrix(-1 0 0 1 269.158 56.8333)" fill="white"/>
</mask>
<g mask="url(#mask5_5567_161792)">
<rect width="2.05365" height="25.2306" transform="matrix(-0.819152 -0.573576 -0.573576 0.819152 258.135 53.6963)" fill="#FEFEFE"/>
<rect width="4.69406" height="25.2306" transform="matrix(-0.819152 -0.573576 -0.573576 0.819152 263.524 56.3843)" fill="#FEFEFE"/>
</g>
<path d="M275.811 70.1735C275.81 69.4687 276.19 68.81 276.825 68.4166C276.132 67.6182 276.272 66.4531 277.139 65.8143C277.495 65.5513 277.938 65.4083 278.395 65.4087C278.424 65.4087 278.452 65.4116 278.481 65.4126C278.16 64.4331 278.76 63.3988 279.823 63.1024C280.885 62.806 282.007 63.3598 282.329 64.3393C282.444 64.6892 282.444 65.0626 282.329 65.4126C282.358 65.4126 282.386 65.4086 282.415 65.4086C283.524 65.4077 284.424 66.2358 284.425 67.2583C284.426 67.6793 284.27 68.0878 283.985 68.4166C285.038 69.0696 285.317 70.3855 284.608 71.3558C284.443 71.5826 284.231 71.7778 283.985 71.9304C284.678 72.7288 284.538 73.8939 283.671 74.5326C283.315 74.7956 282.872 74.9387 282.415 74.9383H278.395C277.286 74.9393 276.386 74.1112 276.385 73.0886C276.384 72.6676 276.54 72.2591 276.825 71.9304C276.19 71.537 275.81 70.8783 275.811 70.1735Z" fill="#72BF44"/>
<path d="M278.189 68.9294C278.3 68.8246 278.482 68.8223 278.596 68.9241L280.118 70.2816V66.4676C280.118 66.3214 280.247 66.2029 280.405 66.2029C280.564 66.2029 280.692 66.3214 280.692 66.4676V68.3434L281.997 67.1408C282.111 67.0392 282.293 67.0421 282.403 67.1473C282.51 67.2499 282.51 67.4125 282.403 67.5151L280.692 69.092V72.7111L281.925 71.5747C282.039 71.4731 282.221 71.476 282.331 71.5812C282.439 71.6838 282.439 71.8464 282.331 71.949L280.692 73.4597V78.3797C280.692 78.5259 280.564 78.6444 280.405 78.6444C280.247 78.6444 280.118 78.5259 280.118 78.3797V71.018L278.194 69.3045C278.08 69.2026 278.078 69.035 278.189 68.9302C278.189 68.93 278.189 68.9297 278.189 68.9294Z" fill="#5B9836"/>
<path d="M212.811 69.1735C212.81 68.4687 213.19 67.81 213.825 67.4166C213.132 66.6182 213.272 65.4531 214.139 64.8143C214.495 64.5513 214.938 64.4083 215.395 64.4087C215.424 64.4087 215.452 64.4116 215.481 64.4126C215.16 63.4331 215.76 62.3988 216.823 62.1024C217.885 61.806 219.007 62.3598 219.329 63.3393C219.444 63.6892 219.444 64.0626 219.329 64.4126C219.358 64.4126 219.386 64.4086 219.415 64.4086C220.524 64.4077 221.424 65.2358 221.425 66.2583C221.426 66.6793 221.27 67.0878 220.985 67.4166C222.038 68.0696 222.317 69.3855 221.608 70.3558C221.443 70.5826 221.231 70.7778 220.985 70.9304C221.678 71.7288 221.538 72.8939 220.671 73.5326C220.315 73.7956 219.872 73.9387 219.415 73.9383H215.395C214.286 73.9393 213.386 73.1112 213.385 72.0886C213.384 71.6676 213.54 71.2591 213.825 70.9304C213.19 70.537 212.81 69.8783 212.811 69.1735Z" fill="#72BF44"/>
<path d="M215.189 68.6648C215.3 68.56 215.482 68.5576 215.596 68.6595L217.118 70.0169V66.2029C217.118 66.0568 217.247 65.9382 217.405 65.9382C217.564 65.9382 217.692 66.0568 217.692 66.2029V68.0787L218.997 66.8761C219.111 66.7746 219.293 66.7775 219.403 66.8826C219.51 66.9852 219.51 67.1478 219.403 67.2504L217.692 68.8273V72.4465L218.925 71.3101C219.039 71.2085 219.221 71.2114 219.331 71.3166C219.439 71.4191 219.439 71.5818 219.331 71.6844L217.692 73.1951V78.1151C217.692 78.2612 217.564 78.3798 217.405 78.3798C217.247 78.3798 217.118 78.2612 217.118 78.1151V70.7534L215.194 69.0399C215.08 68.9379 215.078 68.7703 215.189 68.6655C215.189 68.6653 215.189 68.665 215.189 68.6648Z" fill="#5B9836"/>
<path fill-rule="evenodd" clip-rule="evenodd" d="M246.634 37.6923C246.248 38.0304 245.795 38.2339 245.296 38.3235C243.765 38.5983 242.315 37.6913 241.893 36.2027C241.851 36.0548 241.821 35.9047 241.804 35.7518C241.782 35.7063 241.814 35.6529 241.784 35.6081C241.784 35.4741 241.784 35.34 241.784 35.206C241.809 35.1677 241.791 35.1252 241.796 35.0849C241.806 34.5387 242.025 34.0671 242.335 33.6353C242.769 33.0308 243.364 32.6608 244.083 32.4826C244.198 32.454 244.316 32.4503 244.434 32.4504C244.481 32.4442 244.53 32.4639 244.576 32.4382C244.702 32.4382 244.828 32.4382 244.954 32.4382C244.993 32.463 245.036 32.4447 245.076 32.4505C245.654 32.4668 246.145 32.7061 246.598 33.0433C246.624 33.0623 246.643 33.087 246.648 33.1208C246.638 33.1994 246.574 33.2406 246.524 33.2876C246.023 33.755 245.731 34.3327 245.64 35.0072C245.548 35.6968 245.679 36.3464 246.046 36.9425C246.175 37.1514 246.327 37.341 246.507 37.509C246.556 37.5543 246.608 37.5972 246.64 37.6578C246.645 37.6706 246.643 37.6821 246.634 37.6923Z" fill="#BCD430"/>
<path fill-rule="evenodd" clip-rule="evenodd" d="M246.634 37.6923C246.632 37.685 246.631 37.6777 246.631 37.6703C246.793 37.5215 246.946 37.3637 247.08 37.1883C247.423 36.7385 247.616 36.2324 247.67 35.6676C247.722 35.1308 247.624 34.6237 247.397 34.141C247.235 33.7958 247.013 33.4903 246.724 33.237C246.689 33.206 246.648 33.179 246.646 33.1247C246.657 33.0632 246.71 33.0359 246.752 33.0043C247.091 32.7527 247.465 32.5748 247.878 32.4822C247.989 32.4572 248.104 32.4524 248.217 32.4505C248.265 32.4442 248.315 32.4639 248.36 32.4382C248.479 32.4382 248.597 32.4382 248.715 32.4382C248.761 32.4675 248.815 32.4359 248.861 32.4582C249.469 32.5211 250.005 32.7482 250.467 33.1494C250.476 33.2112 250.428 33.2409 250.391 33.274C250.063 33.573 249.807 33.9248 249.65 34.3407C249.253 35.3909 249.399 36.3657 250.073 37.2624C250.157 37.3731 250.254 37.4702 250.351 37.5684C250.386 37.6031 250.435 37.6322 250.424 37.6945C250.073 38.0079 249.659 38.2019 249.204 38.2999C248.295 38.4955 247.466 38.3083 246.723 37.7466C246.695 37.7253 246.671 37.6973 246.634 37.6923Z" fill="#74BD45"/>
<path fill-rule="evenodd" clip-rule="evenodd" d="M244.431 32.4583C244.432 32.4517 244.433 32.445 244.434 32.4382C244.481 32.4382 244.529 32.4382 244.576 32.4382C244.532 32.477 244.48 32.4602 244.431 32.4583Z" fill="#D9E68B"/>
<path fill-rule="evenodd" clip-rule="evenodd" d="M248.217 32.4588C248.218 32.4521 248.219 32.4453 248.219 32.4384C248.266 32.4384 248.314 32.4384 248.361 32.4384C248.317 32.4742 248.266 32.4608 248.217 32.4588Z" fill="#BDDFA8"/>
<path fill-rule="evenodd" clip-rule="evenodd" d="M248.862 32.4582C248.812 32.4606 248.76 32.478 248.716 32.4382C248.763 32.4382 248.81 32.4382 248.858 32.4382C248.858 32.445 248.86 32.4516 248.862 32.4582Z" fill="#A7D58A"/>
<path fill-rule="evenodd" clip-rule="evenodd" d="M241.784 35.6082C241.82 35.652 241.806 35.7028 241.805 35.7519C241.798 35.7519 241.791 35.7513 241.784 35.7501C241.784 35.7028 241.784 35.6555 241.784 35.6082Z" fill="#E5EEB1"/>
<path fill-rule="evenodd" clip-rule="evenodd" d="M245.072 32.4383C245.073 32.4448 245.074 32.4513 245.075 32.4578C245.033 32.4608 244.99 32.4736 244.954 32.4383C244.994 32.4383 245.033 32.4383 245.072 32.4383Z" fill="#E0EBA0"/>
<path fill-rule="evenodd" clip-rule="evenodd" d="M241.784 35.0878C241.79 35.0846 241.797 35.0836 241.803 35.0846C241.807 35.1266 241.82 35.1702 241.784 35.2061C241.784 35.1666 241.784 35.1272 241.784 35.0878Z" fill="#DFEBA0"/>
<path fill-rule="evenodd" clip-rule="evenodd" d="M250.425 37.6944C250.233 37.4867 250.03 37.2889 249.879 37.0462C249.625 36.6392 249.467 36.2022 249.422 35.7218C249.345 34.9087 249.574 34.1909 250.078 33.5576C250.194 33.4109 250.337 33.2849 250.468 33.1493C250.73 32.9608 250.999 32.786 251.303 32.6683C253.074 31.9827 255.039 33.127 255.312 35.0045C255.546 36.6176 254.43 38.1362 252.828 38.3702C251.967 38.496 251.189 38.2862 250.504 37.7422C250.48 37.723 250.459 37.6973 250.425 37.6944Z" fill="#0AA94E"/>
<path fill-rule="evenodd" clip-rule="evenodd" d="M246.638 33.1257C246.644 33.1247 246.651 33.1253 246.658 33.1273C246.892 33.3379 247.102 33.5697 247.268 33.8395C247.516 34.244 247.661 34.6801 247.702 35.1555C247.764 35.8826 247.578 36.5384 247.161 37.1304C247.03 37.3162 246.886 37.4939 246.703 37.6346C246.681 37.6517 246.66 37.6691 246.631 37.6706C245.994 37.1113 245.63 36.4154 245.589 35.5629C245.544 34.6384 245.869 33.8614 246.538 33.2257C246.572 33.1931 246.605 33.159 246.638 33.1257Z" fill="#0AA94E"/>
<path fill-rule="evenodd" clip-rule="evenodd" d="M251.055 34.4622C250.986 34.5033 250.937 34.5272 250.895 34.5592C250.833 34.6049 250.788 34.5951 250.747 34.5337C250.701 34.4657 250.746 34.4334 250.796 34.4025C251.334 34.0679 251.919 33.9143 252.552 33.9615C253.046 33.9984 253.505 34.1576 253.933 34.4051C253.984 34.4345 254.046 34.4571 254 34.5379C253.957 34.6146 253.903 34.602 253.842 34.5657C253.802 34.5423 253.761 34.5214 253.716 34.4968C253.711 34.5465 253.737 34.5781 253.752 34.6124C254.002 35.1896 254.253 35.7665 254.503 36.3436C254.578 36.5169 254.549 36.6206 254.391 36.7268C254.244 36.8253 254.077 36.8711 253.904 36.8949C253.605 36.9361 253.307 36.9302 253.015 36.8409C252.917 36.8107 252.823 36.7702 252.741 36.7072C252.609 36.6062 252.584 36.5089 252.65 36.3557C252.918 35.7389 253.183 35.1209 253.457 34.5071C253.503 34.405 253.478 34.3778 253.386 34.3426C252.707 34.081 252.029 34.0675 251.346 34.3278C251.254 34.3626 251.24 34.3952 251.28 34.486C251.553 35.1044 251.821 35.7255 252.09 36.3457C252.164 36.5142 252.137 36.6167 251.985 36.7214C251.836 36.8247 251.665 36.8713 251.489 36.8955C251.189 36.9364 250.892 36.9301 250.6 36.8405C250.52 36.8162 250.444 36.784 250.374 36.7398C250.196 36.6276 250.165 36.5261 250.249 36.3328C250.499 35.7557 250.75 35.1787 251 34.6016C251.016 34.5635 251.031 34.5247 251.055 34.4622Z" fill="#FEFEFE"/>
<path fill-rule="evenodd" clip-rule="evenodd" d="M250.446 36.3106C250.461 36.2718 250.468 36.2497 250.477 36.2286C250.703 35.7056 250.93 35.1826 251.157 34.6594C251.186 34.6729 251.192 34.696 251.201 34.717C251.417 35.2149 251.632 35.7134 251.85 36.21C251.886 36.2896 251.883 36.3136 251.786 36.3127C251.345 36.308 250.903 36.3106 250.446 36.3106Z" fill="#0AA94E"/>
<path fill-rule="evenodd" clip-rule="evenodd" d="M254.303 36.3051C253.815 36.3051 253.344 36.3051 252.857 36.3051C253.097 35.7512 253.332 35.208 253.579 34.6375C253.825 35.2026 254.061 35.7463 254.303 36.3051Z" fill="#0AA94E"/>
<path d="M273.363 78.1273C273.363 77.4846 272.842 76.9636 272.2 76.9636H225.654C225.012 76.9636 224.491 77.4846 224.491 78.1273V79.2909H273.363V78.1273Z" fill="#004D43"/>
</g>
<path d="M151.5 69.8239L148 69.5L148.33 73.7L151.185 73.4415L151.5 69.8239Z" fill="#F4C594"/>
<mask id="mask6_5567_161792" style="mask-type:alpha" maskUnits="userSpaceOnUse" x="166" y="109" width="33" height="34">
<path fill-rule="evenodd" clip-rule="evenodd" d="M166.818 109.525H198.739V142.128H166.818V109.525Z" fill="white"/>
</mask>
<g mask="url(#mask6_5567_161792)">
<path d="M198.739 125.827C198.739 134.83 191.594 142.128 182.779 142.128C173.964 142.128 166.818 134.83 166.818 125.827C166.818 116.824 173.964 109.525 182.779 109.525C191.594 109.525 198.739 116.824 198.739 125.827Z" fill="#00662E"/>
</g>
<path d="M194.603 125.827C194.603 132.497 189.309 137.904 182.779 137.904C176.249 137.904 170.955 132.497 170.955 125.827C170.955 119.157 176.249 113.75 182.779 113.75C189.309 113.75 194.603 119.157 194.603 125.827Z" fill="#28D677"/>
<path d="M189.484 125.827C189.484 129.609 186.482 132.675 182.779 132.675C179.076 132.675 176.074 129.609 176.074 125.827C176.074 122.045 179.076 118.979 182.779 118.979C186.482 118.979 189.484 122.045 189.484 125.827Z" fill="#E8FFFC"/>
<mask id="mask7_5567_161792" style="mask-type:alpha" maskUnits="userSpaceOnUse" x="161" y="107" width="40" height="22">
<path fill-rule="evenodd" clip-rule="evenodd" d="M161.288 107.442H200.266V128.229H161.288V107.442Z" fill="white"/>
</mask>
<g mask="url(#mask7_5567_161792)">
<path d="M200.266 119.869C196.58 106.166 181.346 107.476 181.346 107.476L171.451 107.468L163.874 119.869L161.288 128.229H171.451L175.939 119.869H200.266Z" fill="#00AB4E"/>
</g>
<path d="M60.3955 94.297H88.1065V65.6765H60.3955V94.297Z" fill="#B3EC91"/>
<path d="M71.3053 84.9218C70.7187 85.4359 70.0307 85.7454 69.2707 85.8816C66.9431 86.2994 64.7393 84.9203 64.0968 82.6569C64.0331 82.4321 63.9871 82.2038 63.9625 81.9714C63.9276 81.9021 63.9765 81.8209 63.9316 81.7529C63.9316 81.549 63.9316 81.3452 63.9316 81.1414C63.9693 81.0833 63.9415 81.0187 63.9502 80.9574C63.9652 80.1268 64.2976 79.4098 64.7691 78.7533C65.4291 77.8341 66.3342 77.2715 67.4263 77.0005C67.6012 76.9571 67.781 76.9514 67.9605 76.9515C68.032 76.9422 68.107 76.9721 68.1759 76.9331C68.3677 76.9331 68.5596 76.9331 68.7514 76.9331C68.8103 76.9707 68.8755 76.943 68.9372 76.9517C69.8161 76.9766 70.5627 77.3404 71.2512 77.8531C71.2899 77.8819 71.3201 77.9195 71.3263 77.9709C71.3116 78.0904 71.2152 78.153 71.1388 78.2245C70.3767 78.9352 69.9325 79.8136 69.7951 80.8391C69.6545 81.8877 69.8529 82.8754 70.4119 83.7818C70.6077 84.0994 70.8397 84.3877 71.1127 84.6431C71.1865 84.712 71.2666 84.7772 71.3155 84.8694C71.3224 84.8889 71.3188 84.9064 71.3053 84.9218Z" fill="#BCD430"/>
<path d="M71.306 84.9218C71.3039 84.9107 71.3025 84.8997 71.3018 84.8884C71.5486 84.6621 71.7807 84.4222 71.9843 84.1556C72.5067 83.4716 72.8 82.7021 72.8821 81.8432C72.9602 81.0271 72.8112 80.2561 72.4667 79.5221C72.2203 78.9972 71.8829 78.5328 71.4441 78.1476C71.3903 78.1004 71.3284 78.0594 71.3254 77.9769C71.3419 77.8834 71.4218 77.8419 71.4864 77.7938C72.0018 77.4112 72.5707 77.1408 73.1982 76.9999C73.3672 76.9619 73.5409 76.9547 73.7142 76.9517C73.7863 76.9422 73.8618 76.9721 73.9315 76.9331C74.1113 76.9331 74.2912 76.9331 74.471 76.9331C74.5403 76.9776 74.6221 76.9295 74.6928 76.9635C75.6165 77.0591 76.4325 77.4044 77.1348 78.0144C77.1475 78.1084 77.0753 78.1535 77.0197 78.2038C76.5196 78.6585 76.1308 79.1934 75.8921 79.8257C75.289 81.4226 75.5114 82.9048 76.5361 84.2683C76.6625 84.4366 76.8111 84.5842 76.9585 84.7334C77.0107 84.7862 77.0861 84.8304 77.0694 84.9251C76.5352 85.4017 75.9054 85.6967 75.2138 85.8456C73.8318 86.1431 72.5713 85.8585 71.4419 85.0044C71.3995 84.972 71.3632 84.9295 71.306 84.9218Z" fill="#74BD45"/>
<path d="M67.956 76.9635C67.9587 76.9534 67.9602 76.9432 67.961 76.9329C68.0329 76.9329 68.1048 76.9329 68.1768 76.9329C68.1098 76.9918 68.0313 76.9663 67.956 76.9635Z" fill="#D9E68B"/>
<path d="M73.7117 76.964C73.7142 76.9538 73.7154 76.9435 73.7151 76.933C73.787 76.933 73.859 76.933 73.9309 76.933C73.8641 76.9875 73.7866 76.9672 73.7117 76.964Z" fill="#BDDFA8"/>
<path d="M74.6929 76.9634C74.6171 76.967 74.5383 76.9934 74.4711 76.933C74.5431 76.933 74.615 76.933 74.6869 76.933C74.6878 76.9434 74.6899 76.9534 74.6929 76.9634Z" fill="#A7D58A"/>
<path d="M63.9319 81.7528C63.9854 81.8195 63.965 81.8967 63.9629 81.9713C63.9526 81.9713 63.9423 81.9704 63.9319 81.9686C63.9319 81.8967 63.9319 81.8247 63.9319 81.7528Z" fill="#E5EEB1"/>
<path d="M68.9316 76.933C68.9326 76.9429 68.934 76.9528 68.9358 76.9627C68.8721 76.9672 68.806 76.9867 68.7517 76.933C68.8117 76.933 68.8716 76.933 68.9316 76.933Z" fill="#E0EBA0"/>
<path d="M63.9318 80.9614C63.9409 80.9566 63.9505 80.9549 63.9607 80.9566C63.9661 81.0204 63.9856 81.0867 63.9318 81.1412C63.9318 81.0813 63.9318 81.0213 63.9318 80.9614Z" fill="#DFEBA0"/>
<path d="M77.0694 84.9248C76.7776 84.609 76.4693 84.3083 76.2391 83.9393C75.8531 83.3203 75.6139 82.656 75.5447 81.9255C75.4276 80.6892 75.7755 79.5978 76.5417 78.6349C76.7192 78.4118 76.936 78.2202 77.1349 78.0141C77.5333 77.7274 77.9421 77.4617 78.4044 77.2827C81.0971 76.2403 84.0861 77.9801 84.5003 80.8349C84.8561 83.2875 83.1601 85.5965 80.7244 85.9523C79.4147 86.1435 78.2309 85.8246 77.1902 84.9975C77.1532 84.9683 77.1217 84.9292 77.0694 84.9248Z" fill="#0AA94E"/>
<path d="M71.3117 77.978C71.3219 77.9765 71.3321 77.9774 71.342 77.9804C71.6988 78.3007 72.0182 78.653 72.2698 79.0634C72.6472 79.6784 72.868 80.3414 72.9297 81.0642C73.0241 82.1698 72.7421 83.1669 72.1071 84.0672C71.9078 84.3497 71.6892 84.6197 71.4112 84.8337C71.3774 84.8597 71.3462 84.8862 71.3017 84.8884C70.3326 84.0381 69.7799 82.9799 69.7171 81.6836C69.6491 80.278 70.1422 79.0966 71.1602 78.13C71.2121 78.0805 71.2612 78.0287 71.3117 77.978Z" fill="#0AA94E"/>
<path d="M78.0287 80.0104C77.924 80.0729 77.8493 80.1091 77.7841 80.1578C77.6911 80.2274 77.6224 80.2124 77.5598 80.119C77.4904 80.0158 77.5583 79.9666 77.634 79.9195C78.4522 79.4109 79.3416 79.1772 80.3037 79.249C81.0562 79.3052 81.7526 79.5473 82.4041 79.9236C82.4813 79.9682 82.5753 80.0026 82.5062 80.1255C82.4405 80.2421 82.3584 80.2229 82.265 80.1677C82.2051 80.1322 82.1429 80.1004 82.074 80.063C82.0666 80.1385 82.1059 80.1866 82.1285 80.2388C82.5087 81.1164 82.89 81.9936 83.271 82.871C83.3855 83.1345 83.3412 83.2922 83.1004 83.4536C82.8769 83.6035 82.6234 83.673 82.3604 83.7093C81.9048 83.7719 81.4527 83.7629 81.0088 83.6271C80.859 83.5813 80.7164 83.5197 80.5916 83.4239C80.3914 83.2703 80.3529 83.1224 80.4539 82.8895C80.8605 81.9516 81.2635 81.0119 81.6805 80.0787C81.7499 79.9234 81.7122 79.8821 81.5729 79.8286C80.5405 79.4308 79.5091 79.4103 78.4705 79.8059C78.331 79.859 78.3088 79.9085 78.37 80.0465C78.7858 80.9868 79.1927 81.9312 79.6025 82.8742C79.7138 83.1305 79.6729 83.2862 79.4429 83.4455C79.2161 83.6026 78.9564 83.6734 78.6875 83.7102C78.2319 83.7724 77.7798 83.7628 77.3359 83.6265C77.2151 83.5895 77.0997 83.5407 76.9928 83.4734C76.7219 83.3028 76.6744 83.1485 76.8019 82.8546C77.1827 81.9771 77.5637 81.0998 77.9443 80.2223C77.9692 80.1644 77.9909 80.1054 78.0287 80.0104Z" fill="#FEFEFE"/>
<path d="M77.1016 82.8207C77.1234 82.7616 77.1339 82.728 77.1479 82.696C77.4926 81.9008 77.8376 81.1056 78.1827 80.3101C78.2266 80.3306 78.235 80.3657 78.2488 80.3976C78.5772 81.1547 78.9037 81.9126 79.2366 82.6676C79.2899 82.7887 79.2865 82.8251 79.1386 82.8238C78.4676 82.8168 77.7965 82.8207 77.1016 82.8207Z" fill="#0AA94E"/>
<path d="M82.9668 82.8122C82.2241 82.8122 81.5086 82.8122 80.7686 82.8122C81.1332 81.9701 81.4908 81.144 81.8663 80.2766C82.2392 81.136 82.598 81.9626 82.9668 82.8122Z" fill="#0AA94E"/>
<path d="M58.2266 72.2353H90.2761V65.6765H58.2266V72.2353Z" fill="#00AB4E"/>
<path d="M60.3955 74.0254H88.1065V72.2351H60.3955V74.0254Z" fill="#47CF66"/>
<path d="M95.9923 93.6641V94.9295H57V93.6641H95.9923Z" fill="#117367"/>
<path d="M73.5425 93.8599L89.0514 110.45L88.1553 111.323L72.6465 94.7337L73.5425 93.8599Z" fill="#117367"/>
<path d="M162.111 67.064L160.748 57.2988C160.669 56.734 160.226 56.304 159.669 56.2533L157.005 56.0098L157.071 55.2593L159.735 55.5024C160.634 55.5848 161.351 56.2794 161.479 57.1925L162.842 66.9578L162.111 67.064Z" fill="#117367"/>
<path d="M155.76 50.5072V59.4677C155.76 59.4677 157.62 59.175 157.62 54.4895C157.62 49.8041 155.76 50.5072 155.76 50.5072Z" fill="#47CF66"/>
<path d="M92.006 97.2553C92.006 97.2553 91.9135 97.1615 91.7631 96.9825C87.3994 91.7979 91.1403 86.0117 97.8342 86.0117H127.255C132.881 86.0117 136.873 89.6657 134.558 94.9024C134.218 95.6697 133.764 96.4562 133.17 97.2553H92.006Z" fill="#00662E"/>
<path d="M125.381 121.714H152.967L164.127 104.725L167.616 111.466L156.69 129.047L134.195 131.306L125.381 121.714Z" fill="#47CF66"/>
<path d="M181.345 107.476C181.345 107.476 180.065 100.363 173.417 92.0803C168.959 86.5274 165.291 81.0618 162.404 78.0546H165.368V65.6765H160.599C159.366 65.6765 158.227 66.3689 157.652 67.4832C156.169 70.3573 155.713 73.6694 156.363 76.8491L164.277 108.731C164.543 110.03 164.339 111.383 163.704 112.541L157.608 123.65C156.552 125.574 154.562 126.765 152.403 126.765H136.654C133.653 126.765 129.686 124.489 129.303 121.449L128.385 114.171C127.835 109.807 130.467 105.401 133.144 101.953L133.17 101.921V97.2554H92.0052L82.1855 108.655L114.674 121.41L122.042 129.737C124.451 132.802 128.013 134.758 131.858 134.915C132.034 134.923 132.21 134.926 132.384 134.926H155.496C157.687 134.926 159.699 133.691 160.728 131.716L169.913 115.171C170.907 113.264 172.521 111.772 174.477 110.952L181.345 107.476Z" fill="#28D677"/>
<path d="M165.368 78.0361V65.6765C167.084 65.6765 168.475 67.097 168.475 68.8495V74.8631C168.475 76.6156 167.084 78.0361 165.368 78.0361Z" fill="#00AB4E"/>
<path d="M158.877 69.4824L156.378 60.5615C156.064 59.4137 155.03 58.6115 153.863 58.6115H151.574V57.9141H153.863C155.335 57.9141 156.64 58.9256 157.036 60.3743L159.535 69.2949L158.877 69.4824Z" fill="#117367"/>
<path d="M152.478 57.8981C152.478 60.931 151.671 63.3894 150.675 63.3894C149.678 63.3894 148.871 60.931 148.871 57.8981C148.871 54.8649 149.678 52.4065 150.675 52.4065C151.671 52.4065 152.478 54.8649 152.478 57.8981Z" fill="#47CF66"/>
<path d="M111.622 125.827C111.622 134.83 104.476 142.128 95.6614 142.128C86.8468 142.128 79.7012 134.83 79.7012 125.827C79.7012 116.824 86.8468 109.525 95.6614 109.525C104.476 109.525 111.622 116.824 111.622 125.827Z" fill="#00662E"/>
<path d="M107.486 125.827C107.486 132.497 102.192 137.904 95.6617 137.904C89.1315 137.904 83.8379 132.497 83.8379 125.827C83.8379 119.157 89.1315 113.75 95.6617 113.75C102.192 113.75 107.486 119.157 107.486 125.827Z" fill="#28D677"/>
<path d="M102.367 125.827C102.367 129.609 99.3645 132.675 95.6617 132.675C91.9589 132.675 88.957 129.609 88.957 125.827C88.957 122.045 91.9589 118.979 95.6617 118.979C99.3645 118.979 102.367 122.045 102.367 125.827Z" fill="#E8FFFC"/>
<path d="M138.292 34.949C138.292 34.949 141.948 37.2933 140.958 40.9155C139.968 44.5385 137.43 51.2085 134.937 50.1164C132.445 49.025 130.842 47.5692 130.842 47.5692L129.329 42.0266L138.292 34.949Z" fill="#F4C594"/>
<path d="M133.132 48.2772L128.249 53.8237L124.737 46.7879L130.799 41.9712L133.132 48.2772Z" fill="#F4C594"/>
<path d="M132.61 48.8654C132.61 48.8654 131.01 47.4043 130.564 46.7864L130.912 50.7783L132.61 48.8654Z" fill="#EFAF70"/>
<path d="M131.681 41.234L133.094 42.207L133.192 40.9487C133.192 40.9487 139.141 40.7359 138.309 35.942C138.494 37.0092 133.377 32.4824 130.71 33.4886C128.933 34.1585 126.545 36.4351 126.289 38.353C126.089 39.8456 126.992 41.6219 127.83 44.3314L131.681 41.234Z" fill="#915D00"/>
<path d="M125.775 41.6842C125.775 41.6842 129.597 44.8215 132.513 43.094L135.233 39.4789L143.44 41.6349C143.44 41.6349 143.228 41.2745 142.731 38.9194C142.233 36.5648 141.248 31.9314 133.444 31.3612C125.713 30.7957 125.271 39.9773 125.775 41.6842Z" fill="#00AB4E"/>
<path d="M135.233 39.479L143.026 40.2306L146.513 42.1528C146.924 42.3796 146.671 42.9857 146.223 42.8481L135.233 39.479Z" fill="#00883E"/>
<path d="M130.618 64.25L132.502 70.3349C133.15 72.8151 133.708 74.441 131.354 75.3374C128.738 76.3329 125.84 74.8853 125.001 72.1644L123.232 66.6286L130.618 64.25Z" fill="#EECDB8"/>
<path d="M150.891 70.2529L157.68 67.0264C158.346 66.7102 159.136 66.8756 159.626 67.4347L161.633 70.0279C162.119 70.5806 162.246 71.3703 161.962 72.0535L161.647 72.8065C161.505 73.1477 161.268 73.4394 160.967 73.6458L160.034 74.2841C159.526 74.6306 158.851 74.57 158.411 74.1379L157.734 73.4733L154.797 74.529C154.797 74.529 152.601 75.624 150.059 73.7724L150.891 70.2529Z" fill="#F4C594"/>
<path d="M156.417 70.8655L154.645 71.9651C153.59 72.9022 153.56 74.5658 154.579 75.5424C155.537 76.4598 157.043 76.4017 157.931 75.4137L159.576 74.1815C160.428 73.233 160.36 71.7565 159.425 70.894C158.574 70.1093 157.283 70.0968 156.417 70.8655Z" fill="#186623"/>
<path d="M105.989 76.5156C105.989 76.5156 97.5245 90.6665 115.76 92.4675L145.538 92.5049C148.481 92.4938 150.367 88.5953 150.035 85.607C149.766 83.1903 147.85 81.3123 145.475 81.1398L105.989 76.5156Z" fill="#003D35"/>
<path d="M137.871 108.104L136.835 117.444L143.881 117.101L145.199 106.674L137.871 108.104Z" fill="#EECDB8"/>
<path d="M144.062 115.663L153.757 120.792C154.478 121.161 154.856 121.987 154.672 122.788L135.377 122.502L136.897 115.585L144.062 115.663Z" fill="#004D43"/>
<path d="M135.377 122.502L135.334 123.892L153.097 123.98C153.821 123.982 154.462 123.498 154.672 122.789L135.377 122.502Z" fill="#009138"/>
<path d="M138.899 83.4385L136.106 110.493C136.043 111.098 136.508 111.627 137.104 111.627L145.484 111.634C145.982 111.634 146.405 111.262 146.479 110.76L150.072 86.3151L138.899 83.4385Z" fill="#003D35"/>
<path d="M125.727 45.8786L126.386 44.9658C126.509 44.7957 126.752 44.7815 126.892 44.9376C128.02 46.1966 132.145 51.142 129.362 53.2532L125.727 45.8786Z" fill="#009138"/>
<path d="M149.032 73.6457L148.443 70.0805C148.326 69.4491 147.838 68.9581 147.218 68.8483L132.887 66.3107C132.078 66.1249 131.458 65.4628 131.31 64.6299L129.235 52.5096C129.277 50.6552 125.727 45.8784 125.727 45.8784C125.727 45.8784 120.95 46.3469 115.925 53.4366C113.163 57.332 107.41 71.8836 106.065 75.3276C105.875 75.8136 105.916 76.3602 106.18 76.8083C107.2 78.5387 110.312 82.8637 117.047 85.366C118.436 85.8823 119.989 85.28 120.713 83.9633C121.912 81.7848 123.769 78.0509 125.444 73.1786L125.56 73.4464C126.195 74.9079 127.665 75.7993 129.224 75.6684L148.341 74.5317C148.783 74.5054 149.106 74.0925 149.032 73.6457Z" fill="#00AB4E"/>
<path d="M118.844 57.9735C118.916 57.9411 118.998 57.9647 119.043 58.0259L119.063 58.0595L125.712 73.3781C125.75 73.4634 125.712 73.5633 125.628 73.6011C125.557 73.6336 125.475 73.6099 125.429 73.5488L125.41 73.5152L118.76 58.1966C118.723 58.1112 118.761 58.0114 118.844 57.9735Z" fill="#017A30"/>
<path d="M117.056 54.5705C117.592 55.1752 118.562 55.0411 118.911 54.307C119.347 53.3896 120.095 52.3192 121.363 51.5843C121.8 51.3308 122.357 51.5547 122.529 52.0372L127.911 67.1418C128.712 69.3899 130.765 70.9195 133.104 71.0115L148.698 71.6266L148.443 70.0805C148.325 69.4491 147.838 68.9581 147.218 68.8483L132.886 66.3107C132.079 66.1249 131.457 65.4628 131.31 64.6299L129.235 52.5096C129.277 50.6555 125.727 45.8784 125.727 45.8784C125.727 45.8784 120.95 46.3469 115.925 53.4366C115.925 53.4366 116.306 53.7251 117.056 54.5705Z" fill="#00883E"/>
<path d="M90.796 100.773C80.0426 103.963 74.1645 116.185 72.7629 121.235C72.4336 122.421 73.2521 123.614 74.4073 123.614H116.502C121.367 118.009 118.585 110.47 117.062 107.257C115.776 104.546 110.404 99.2554 100.516 99.2554C97.657 99.2554 94.4204 99.6976 90.796 100.773Z" fill="#00AB4E"/>
<path d="M89.0714 34.4319C89.0714 45.4046 80.1009 54.3001 69.0357 54.3001C57.9705 54.3001 49 45.4046 49 34.4319C49 23.4592 57.9705 14.5637 69.0357 14.5637C79.6122 14.5637 88.2739 22.6902 89.0196 32.9897C89.0541 33.4658 89.0714 33.9465 89.0714 34.4319Z" fill="#84D7CC"/>
<path d="M89.0714 31.8682C89.0714 42.8409 80.1009 51.7364 69.0357 51.7364C57.9705 51.7364 49 42.8409 49 31.8682C49 20.8955 57.9705 12 69.0357 12C79.6122 12 88.2739 20.1265 89.0196 30.426C89.0541 30.902 89.0714 31.3828 89.0714 31.8682Z" fill="white"/>
<path d="M78.7903 23.7653L68.9328 20.15C68.7542 20.0835 68.5565 20.0835 68.3766 20.15L58.5204 23.7653C58.2067 23.8803 58 24.1758 58 24.5081V32.9564C58 42.5673 68.3477 45.39 68.4515 45.4176C68.5186 45.4353 68.5878 45.4441 68.6558 45.4441C68.7242 45.4441 68.7932 45.4353 68.8603 45.4176C68.9654 45.39 79.312 42.5673 79.312 32.9564V24.5081C79.312 24.1758 79.1042 23.8803 78.7903 23.7653Z" fill="#63B5FA"/>
<path d="M77.7081 24.9935L69.183 21.8712C69.0285 21.8138 68.8577 21.8138 68.7019 21.8712L60.1779 24.9935C59.9063 25.093 59.7275 25.3481 59.7275 25.635V32.9312C59.7275 41.2315 68.677 43.6693 68.7668 43.6932C68.8246 43.7085 68.8848 43.7161 68.9434 43.7161C69.0023 43.7161 69.0625 43.7085 69.1203 43.6932C69.2112 43.6693 78.1595 41.2315 78.1595 32.9312V25.635C78.1595 25.3481 77.9797 25.093 77.7081 24.9935Z" fill="#3393E3"/>
<path d="M67.5535 37.956C67.1825 37.956 66.8102 37.8314 66.5069 37.5811L63.1765 34.8242C62.4968 34.2632 62.4155 33.2737 62.9948 32.6163C63.5723 31.9561 64.59 31.8784 65.2684 32.4396L67.4528 34.2458L72.5123 29.2125C73.1342 28.5927 74.156 28.5819 74.7943 29.1845C75.4315 29.7884 75.4438 30.782 74.8219 31.4005L68.7089 37.4819C68.3946 37.7967 67.974 37.956 67.5535 37.956Z" fill="white"/>
<path d="M276.619 115.151C276.619 125.009 268.645 133 258.81 133C248.974 133 241 125.009 241 115.151C241 105.294 248.974 97.303 258.81 97.303C268.211 97.303 275.91 104.603 276.573 113.856C276.604 114.284 276.619 114.715 276.619 115.151Z" fill="#84D7CC"/>
<path d="M276.619 112.848C276.619 122.706 268.645 130.697 258.81 130.697C248.974 130.697 241 122.706 241 112.848C241 102.991 248.974 95 258.81 95C268.211 95 275.91 102.3 276.573 111.553C276.604 111.981 276.619 112.412 276.619 112.848Z" fill="white"/>
<path d="M244.142 112.385C244.142 115.676 245.224 118.721 247.053 121.178C247.186 121.365 247.327 121.541 247.479 121.721C250.186 125.012 254.294 127.124 258.89 127.124C263.488 127.124 267.588 125.012 270.294 121.721C270.445 121.541 270.58 121.365 270.72 121.178C272.548 118.721 273.633 115.676 273.633 112.385C273.633 104.247 267.028 97.6433 258.89 97.6433C250.744 97.6433 244.142 104.247 244.142 112.385Z" fill="white"/>
<path d="M253.078 110.755C253.078 113.963 255.679 116.565 258.888 116.565C262.097 116.565 264.697 113.963 264.697 110.755C264.697 107.548 262.097 104.947 258.888 104.947C255.679 104.947 253.078 107.548 253.078 110.755Z" fill="#47A99C"/>
<path d="M247.94 122.243C250.63 125.234 254.542 127.124 258.89 127.124C263.24 127.124 267.144 125.234 269.834 122.243C267.42 118.808 263.417 116.565 258.89 116.565C254.365 116.565 250.353 118.808 247.94 122.243Z" fill="#47A99C"/>
<path d="M279.074 127.137C279.074 131.713 275.365 135.422 270.789 135.422C266.213 135.422 262.503 131.713 262.503 127.137C262.503 122.561 266.213 118.851 270.789 118.851C275.365 118.851 279.074 122.561 279.074 127.137Z" fill="#28D677"/>
<path d="M269.812 131.341C269.558 131.341 269.303 131.254 269.096 131.077L266.819 129.136C266.354 128.741 266.299 128.044 266.695 127.582C267.09 127.116 267.786 127.062 268.25 127.457L269.743 128.729L273.202 125.185C273.627 124.748 274.326 124.741 274.762 125.165C275.198 125.59 275.206 126.29 274.781 126.726L270.602 131.008C270.387 131.229 270.099 131.341 269.812 131.341Z" fill="#EDF6FF"/>
</svg>
