<svg width="329" height="165" viewBox="0 0 329 165" fill="none" xmlns="http://www.w3.org/2000/svg">
<path d="M23.7261 161.528C34.1776 163.686 265.318 165.84 302.104 161.528C312.994 160.252 321.711 148.335 322.983 146.267C330.935 133.335 327.953 53.5827 325.965 26.6388C324.895 12.138 310.058 5.62276 303.098 3.46744C289.788 -0.654539 53.757 -0.819975 22.7311 4.54557C8.85004 6.94533 3.81809 18.2657 2.81909 24.5578C0.488432 39.225 -0.889184 129.438 2.84706 141.59C5.83007 151.29 13.2866 159.373 23.7261 161.528Z" fill="#E6F6ED"/>
<mask id="mask0_5567_150835" style="mask-type:alpha" maskUnits="userSpaceOnUse" x="0" y="0" width="329" height="165">
<path fill-rule="evenodd" clip-rule="evenodd" d="M23.7261 161.528C34.1776 163.686 265.318 165.84 302.104 161.528C312.994 160.252 321.711 148.335 322.983 146.267C330.935 133.335 327.953 53.5827 325.965 26.6388C324.895 12.138 310.058 5.62276 303.098 3.46744C289.788 -0.654539 53.757 -0.819975 22.7311 4.54557C8.85004 6.94533 3.81809 18.2657 2.81909 24.5578C0.488432 39.225 -0.889184 129.438 2.84706 141.59C5.83007 151.29 13.2866 159.373 23.7261 161.528Z" fill="white"/>
</mask>
<g mask="url(#mask0_5567_150835)">
<path d="M289.554 175.493H310.702V116.506H289.554V175.493Z" fill="#84D7CC"/>
<path d="M310.702 120.358L289.554 124.21V116.505H310.702V120.358Z" fill="#47A699"/>
<path d="M253.325 108.315C251.061 108.315 249.224 110.15 249.224 112.409C249.224 114.671 251.061 116.506 253.325 116.506H346.942C349.206 116.506 351.043 114.671 351.043 112.409C351.043 110.15 349.206 108.315 346.942 108.315H253.325Z" fill="#84D7CC"/>
<path d="M-12.3926 64.1499H102.561V73.4061H-12.3926V64.1499Z" fill="#BBF0D3"/>
<path d="M31.7644 3.0625H41.513V64.8332H31.7644V3.0625Z" fill="#BBF0D3"/>
<path d="M41.5137 64.8325H51.2642V25.1875H41.5137V64.8325Z" fill="#84D7CC"/>
<path d="M61.0112 64.8328H70.7617V13.9717H61.0112V64.8328Z" fill="#84D7CC"/>
<path d="M51.2642 9.96191H61.0132V64.8331H51.2642V9.96191Z" fill="#BBF0D3"/>
<path d="M8.0022 62.1856L17.3582 64.924L31.7644 15.8492L22.4089 13.1113L8.0022 62.1856Z" fill="#BBF0D3"/>
<path d="M53.9316 132.311C52.4684 136.953 46.1719 132.578 43.0008 137.739C38.8327 144.522 46.2306 150.636 44.0288 154.729C41.64 159.168 31.7803 158.228 28.7738 166.474C27.2499 170.655 27.1897 175.29 29.0699 180.152H63.4927C64.5896 178.466 65.4385 176.653 65.9378 174.726C68.4416 165.063 59.905 164.236 61.6634 160.854C63.9342 156.486 71.4942 154.726 71.9881 148.459C72.5686 141.087 65.0723 139.359 65.4458 135.698C65.9725 130.538 66.4909 119.6 61.6149 118.243C61.286 118.152 60.9732 118.108 60.6765 118.108C56.1652 118.108 55.2415 128.151 53.9316 132.311Z" fill="#BBF0D3"/>
<path d="M43.0183 188.464C43.0183 188.464 53.9064 162.046 60.9441 130.322" stroke="white" stroke-width="0.63014"/>
<path d="M56.1375 149.41L48.7332 140.703" stroke="white" stroke-width="0.63014"/>
<path d="M29.2069 192.997C21.4096 188.74 12.8936 181.478 10.5836 172.069C7.56479 159.776 17.8552 158.724 15.7357 154.422C12.9988 148.866 3.88515 146.627 3.2904 138.655C2.5904 129.277 11.6267 127.077 11.1764 122.421C10.542 115.857 9.91688 101.942 15.7944 100.217C22.2187 98.3307 23.3715 112.471 25.0559 118.111C26.8186 124.017 34.4089 118.452 38.2315 125.017C43.2553 133.646 34.3375 141.424 36.9921 146.63C39.8714 152.277 51.7561 151.081 55.38 161.572C57.7188 168.342 57.1975 176.049 52.6319 184.097C45.6941 187.074 36.8462 189.921 29.2069 192.997Z" fill="#84D7CC"/>
<path d="M29.5897 162.461C29.5897 162.461 21.7012 141.161 16.6028 115.582" stroke="white" stroke-width="0.78057"/>
<path d="M307.474 36.3057C307.474 51.2767 295.319 63.4132 280.325 63.4132C265.33 63.4132 253.174 51.2767 253.174 36.3057C253.174 21.3347 265.33 9.19824 280.325 9.19824C295.319 9.19824 307.474 21.3347 307.474 36.3057Z" fill="#84D7CC"/>
<path d="M307.474 34.3111C307.474 49.2821 295.319 61.4186 280.325 61.4186C265.33 61.4186 253.174 49.2821 253.174 34.3111C253.174 19.3401 265.33 7.20361 280.325 7.20361C295.319 7.20361 307.474 19.3401 307.474 34.3111Z" fill="white"/>
<rect x="274.256" y="20.3887" width="21.9779" height="31.9176" rx="3" fill="#CC9D3F"/>
<mask id="mask1_5567_150835" style="mask-type:alpha" maskUnits="userSpaceOnUse" x="274" y="20" width="23" height="33">
<rect x="274.256" y="20.3887" width="21.9779" height="31.9176" rx="3" fill="white"/>
</mask>
<g mask="url(#mask1_5567_150835)">
<rect x="271.259" y="20.3887" width="21.9779" height="31.9176" rx="3" fill="#FFC54F"/>
<path fill-rule="evenodd" clip-rule="evenodd" d="M283.062 25.6059L279.73 28.1136C279.323 28.4201 279.152 28.9656 279.308 29.4628L280.58 33.5201C280.736 34.0173 281.183 34.3528 281.687 34.3528H285.805C286.309 34.3528 286.756 34.0173 286.912 33.5201L288.184 29.4628C288.34 28.9656 288.169 28.4201 287.762 28.1136L284.43 25.6059C284.023 25.2993 283.469 25.2993 283.062 25.6059Z" fill="#CC9D3F"/>
<rect x="278.751" y="44.3267" width="9.98996" height="1.99485" rx="0.997427" fill="#CC9D3F"/>
<rect x="278.751" y="39.3398" width="9.98996" height="1.99485" rx="0.997427" fill="#CC9D3F"/>
</g>
<path opacity="0.5" fill-rule="evenodd" clip-rule="evenodd" d="M283.247 20.3931L287.243 20.3887V47.3115C287.243 48.9683 285.899 50.3115 284.243 50.3115H275.255V46.9872L283.247 20.3931Z" fill="#CC9D3F"/>
<rect x="263.267" y="17.3965" width="21.9779" height="31.9176" rx="3" fill="#CC9D3F"/>
<mask id="mask2_5567_150835" style="mask-type:alpha" maskUnits="userSpaceOnUse" x="263" y="17" width="23" height="33">
<rect x="263.267" y="17.3965" width="21.9779" height="31.9176" rx="3" fill="white"/>
</mask>
<g mask="url(#mask2_5567_150835)">
<rect x="260.27" y="17.3965" width="21.9779" height="31.9176" rx="3" fill="#FFC54F"/>
<path fill-rule="evenodd" clip-rule="evenodd" d="M272.073 22.6137L268.742 25.1214C268.334 25.428 268.163 25.9734 268.319 26.4706L269.591 30.5279C269.747 31.0251 270.194 31.3606 270.698 31.3606H274.816C275.32 31.3606 275.768 31.0251 275.924 30.5279L277.196 26.4706C277.352 25.9734 277.18 25.428 276.773 25.1214L273.442 22.6137C273.034 22.3072 272.481 22.3072 272.073 22.6137Z" fill="#CC9D3F"/>
<rect x="267.762" y="41.3345" width="9.98999" height="1.99485" rx="0.997425" fill="#CC9D3F"/>
<rect x="267.762" y="36.3477" width="9.98999" height="1.99485" rx="0.997425" fill="#CC9D3F"/>
</g>
<path d="M255.67 77.1992C255.637 76.9589 254.639 71.4658 254.649 69.7516C254.66 68.0369 251.071 65.1001 250.732 64.4124C250.473 63.887 246.189 60.0588 244.177 58.2779C243.505 57.6824 242.46 57.7627 241.911 58.4731C241.149 59.4594 240.633 61.074 242.479 63.18C245.668 66.817 249.817 73.8377 249.817 73.8377L252.782 77.5934L255.67 77.1992Z" fill="#E79E5C"/>
<path fill-rule="evenodd" clip-rule="evenodd" d="M302.34 145.705C309.12 155.022 314.357 162.219 315.237 163.683C315.564 164.225 272.184 163.705 271.285 163.369C269.488 162.697 267.042 155.04 264.384 146.721C261.157 136.619 257.617 125.539 254.548 124.803C227.475 118.307 221.684 113.352 220.345 112.206C220.205 112.086 220.113 112.008 220.052 111.974C220.03 111.962 220.009 111.951 219.986 111.941C218.62 111.313 217.494 110.259 216.779 108.935L215.057 105.748C214.976 105.598 214.866 105.465 214.738 105.352C211.306 102.361 211.636 100.112 212.075 99.1052C212.209 98.7964 212.465 98.5685 212.764 98.4129C213.149 98.2133 213.385 97.788 213.323 97.335C213.222 96.593 214.52 89.0465 215.493 87.8141C215.615 87.6603 215.803 87.4243 216.038 87.1295C217.234 85.63 219.644 82.6078 220.688 81.121C221.589 79.8361 223.069 79.0816 224.64 79.1048C227.357 79.1455 231.769 79.2807 235.424 79.7184C239.185 80.1686 239.493 79.2982 239.261 78.6467C239.133 78.2887 238.838 78.0156 238.486 77.8702C233.115 75.6499 229.075 71.6414 228.022 70.5329C227.845 70.3463 227.619 70.2168 227.37 70.1495C222.928 68.9481 209.98 61.4211 206.451 59.3691C206.213 59.2312 206.019 59.1181 205.872 59.0332C203.476 57.6471 202.884 53.3224 204.918 52.0658C206.952 50.8097 219.588 57.1613 219.588 57.1613C218.041 56.3192 217.207 55.265 216.792 54.2075C215.802 51.6829 218.36 49.238 220.879 50.2504C222.397 50.8603 223.912 51.7349 225.434 52.613C226.543 53.2534 227.656 53.8956 228.775 54.4382C230.869 55.4539 233.889 57.172 236.261 58.5593C239.351 60.3673 242.128 62.6606 244.483 65.3554C245.813 66.8773 247.282 68.7226 248.667 70.8129C251.233 74.6845 253.41 75.7121 254.647 75.9497C255.365 76.0871 256.557 76.5423 257.061 76.8602C258.367 77.6843 259.028 79.2537 260.223 82.0918C261.394 84.8728 263.078 88.8721 266.384 94.582C271.235 102.959 289.538 128.112 302.34 145.705ZM232.107 105.624C233.004 105.012 239.216 100.249 240.396 98.1296C240.396 98.1296 241.139 94.6018 240.767 93.6737C240.394 92.7451 235.557 86.0638 225.582 88.404C225.582 88.404 221.712 92.3588 220.542 92.7632C220.542 92.7632 220.718 97.6342 217.415 98.5747C217.415 98.5747 222.075 100.386 223.673 103.105C223.673 103.105 231.211 106.236 232.107 105.624Z" fill="#F2CBA8"/>
<path d="M239.826 78.7503C239.826 78.7503 249.588 77.5401 252.017 79.1666C254.446 80.7931 256.656 84.4069 256.656 84.4069" stroke="#E79E5C" stroke-width="0.5" stroke-linecap="round" stroke-linejoin="round"/>
<path d="M219.588 57.1611C219.588 57.1611 231.96 61.591 233.536 62.3545C235.112 63.1185 244.27 70.9236 244.27 70.9236C244.27 70.9236 239.212 60.8456 219.588 57.1611Z" fill="#E79E5C"/>
<path d="M237.078 101.642C237.078 101.642 243.808 96.1954 244.956 93.8359" stroke="#E79E5C" stroke-width="0.5" stroke-linecap="round" stroke-linejoin="round"/>
<path d="M225.582 88.4041C225.582 88.4041 223.601 86.4716 223.306 84.3096" stroke="#E79E5C" stroke-width="0.5" stroke-linecap="round" stroke-linejoin="round"/>
<path d="M222.88 103.58C222.88 103.58 220.95 104.7 221.18 106.382" stroke="#E79E5C" stroke-width="0.5" stroke-linecap="round" stroke-linejoin="round"/>
<path d="M262.487 129.492C260.451 124.638 255.777 121.466 250.513 121.208C239.82 120.682 225.542 115.452 225.542 115.452C230.189 117.743 238.739 121.01 254.548 124.802C260.145 126.145 267.305 161.881 271.285 163.369C271.516 163.455 273.588 162.269 276.527 160.454C275.749 160.775 267.519 141.489 262.487 129.492Z" fill="#E79E5C"/>
<mask id="mask3_5567_150835" style="mask-type:alpha" maskUnits="userSpaceOnUse" x="133" y="46" width="57" height="92">
<path fill-rule="evenodd" clip-rule="evenodd" d="M172.687 46.3279L139.201 50.5898C139.185 50.5921 139.168 50.5944 139.151 50.5972C135.365 51.1118 132.777 55.1108 133.365 59.5559L142.599 130.591C143.114 134.545 146.405 137.474 150.28 137.698L150.349 137.702C150.832 137.726 151.323 137.708 151.819 137.645L182.771 133.704C186.755 133.197 189.707 129.948 189.946 126.116L189.954 125.977C189.974 125.512 189.955 125.038 189.893 124.56L180.66 53.5363C180.108 49.3688 176.965 46.2793 173.448 46.2793C173.196 46.2793 172.942 46.2951 172.687 46.3279Z" fill="white"/>
</mask>
<g mask="url(#mask3_5567_150835)">
<path d="M130.479 40.231L198.102 43.8357L192.761 143.712L125.138 140.108L130.479 40.231Z" fill="#252528"/>
</g>
<mask id="mask4_5567_150835" style="mask-type:alpha" maskUnits="userSpaceOnUse" x="135" y="46" width="57" height="92">
<path fill-rule="evenodd" clip-rule="evenodd" d="M174.778 46.2396L141.432 50.5145C141.415 50.5167 141.398 50.5201 141.383 50.5218C137.612 51.0387 135.035 55.0512 135.62 59.5128L144.82 130.804C145.4 135.291 149.509 138.462 154.001 137.884L184.823 133.931C189.32 133.354 192.496 129.245 191.916 124.755L182.718 53.4734C182.169 49.2918 179.036 46.1909 175.535 46.1909C175.283 46.1909 175.031 46.2068 174.778 46.2396Z" fill="white"/>
</mask>
<g mask="url(#mask4_5567_150835)">
<path d="M132.736 40.1519L200.14 43.7447L194.782 143.943L127.378 140.35L132.736 40.1519Z" fill="#58585B"/>
</g>
<mask id="mask5_5567_150835" style="mask-type:alpha" maskUnits="userSpaceOnUse" x="139" y="50" width="51" height="86">
<path fill-rule="evenodd" clip-rule="evenodd" d="M175.024 50.7145L169.681 51.409C168.996 51.4978 168.382 51.4763 168.325 52.3388L168.262 53.2985C168.208 54.1621 167.687 54.83 167.001 54.9193L151.807 56.8925C151.121 56.9807 150.448 56.4678 150.174 55.6478L149.869 54.7355C149.621 53.9935 149.124 54.0659 148.525 54.153C148.461 54.1626 148.396 54.1723 148.33 54.1802L142.987 54.8724C142.977 54.8741 142.966 54.8758 142.956 54.8769C140.501 55.2174 138.844 58.0032 139.246 61.1171L147.993 129.504C148.438 132.971 151.582 135.418 155.021 134.97L183.539 131.268C186.984 130.82 189.418 127.639 188.975 124.169L180.23 55.7959C179.851 52.8659 177.781 50.6846 175.489 50.6846C175.335 50.6846 175.18 50.6942 175.024 50.7145Z" fill="white"/>
</mask>
<g mask="url(#mask5_5567_150835)">
<path d="M136.241 44.8379L196.905 48.0717L191.947 140.793L131.283 137.559L136.241 44.8379Z" fill="white"/>
</g>
<mask id="mask6_5567_150835" style="mask-type:alpha" maskUnits="userSpaceOnUse" x="183" y="62" width="3" height="9">
<path fill-rule="evenodd" clip-rule="evenodd" d="M184.38 62.4113L183.363 62.5402L184.444 70.6535L185.461 70.5262C185.78 70.4844 186.007 70.1959 185.964 69.8838L185.035 62.9072C184.997 62.6177 184.745 62.4067 184.455 62.4067C184.43 62.4067 184.405 62.4079 184.38 62.4113Z" fill="white"/>
</mask>
<g mask="url(#mask6_5567_150835)">
<path d="M179.828 58.4097L190.313 58.9684L189.473 74.6712L178.989 74.1125L179.828 58.4097Z" fill="#252528"/>
</g>
<mask id="mask7_5567_150835" style="mask-type:alpha" maskUnits="userSpaceOnUse" x="184" y="71" width="4" height="9">
<path fill-rule="evenodd" clip-rule="evenodd" d="M185.736 71.9551C185.734 71.9551 185.734 71.9551 185.731 71.9557L184.818 72.0682L185.668 79.3592L186.581 79.2472C186.87 79.2122 187.074 78.9548 187.04 78.6721L186.311 72.4036C186.281 72.1435 186.057 71.9512 185.797 71.9512C185.777 71.9512 185.757 71.9523 185.736 71.9551Z" fill="white"/>
</mask>
<g mask="url(#mask7_5567_150835)">
<path d="M188.306 67.4697L179.314 70.2601L183.507 83.7262L192.498 80.9358L188.306 67.4697Z" fill="#252528"/>
</g>
<mask id="mask8_5567_150835" style="mask-type:alpha" maskUnits="userSpaceOnUse" x="153" y="50" width="9" height="4">
<path fill-rule="evenodd" clip-rule="evenodd" d="M160.548 50.6465L153.773 51.5689C153.772 51.5689 153.769 51.5695 153.768 51.57C153.359 51.6283 153.07 52.0185 153.121 52.4461L153.141 52.5982C153.193 53.0246 153.572 53.326 153.985 53.2701L160.76 52.346C161.171 52.2894 161.463 51.8969 161.41 51.4694L161.391 51.3184C161.343 50.9259 161.021 50.6392 160.65 50.6392C160.617 50.6392 160.582 50.642 160.548 50.6465Z" fill="white"/>
</mask>
<g mask="url(#mask8_5567_150835)">
<path d="M149.682 46.3047L165.409 47.1428L164.85 57.6115L149.122 56.7734L149.682 46.3047Z" fill="#252528"/>
</g>
<mask id="mask9_5567_150835" style="mask-type:alpha" maskUnits="userSpaceOnUse" x="162" y="50" width="4" height="3">
<path fill-rule="evenodd" clip-rule="evenodd" d="M163.92 50.0819C163.917 50.0807 163.915 50.0813 163.914 50.0819C163.301 50.1673 162.871 50.7272 162.951 51.3396C163.031 51.9561 163.595 52.3898 164.211 52.3084C164.828 52.2292 165.262 51.666 165.181 51.0507C165.109 50.4845 164.625 50.0723 164.068 50.0723C164.019 50.0723 163.97 50.0751 163.92 50.0819Z" fill="white"/>
</mask>
<g mask="url(#mask9_5567_150835)">
<path d="M159.458 46.0752L169.194 46.5944L168.674 56.3149L158.938 55.7957L159.458 46.0752Z" fill="#252528"/>
</g>
<mask id="mask10_5567_150835" style="mask-type:alpha" maskUnits="userSpaceOnUse" x="139" y="59" width="45" height="77">
<path fill-rule="evenodd" clip-rule="evenodd" d="M139.164 61.3326L148.078 129.583C148.53 133.043 151.718 135.487 155.201 135.042L183.364 131.463C149.939 131.477 140.169 66.4569 139.196 59.3057C139.09 59.9492 139.072 60.6319 139.164 61.3326Z" fill="white"/>
</mask>
<g mask="url(#mask10_5567_150835)">
<path d="M135.61 55.3647L191.031 58.3191L186.632 140.572L131.211 137.618L135.61 55.3647Z" fill="#C3DFF8"/>
</g>
<mask id="mask11_5567_150835" style="mask-type:alpha" maskUnits="userSpaceOnUse" x="147" y="114" width="27" height="17">
<path fill-rule="evenodd" clip-rule="evenodd" d="M168.36 115.2C165.719 116.559 157.635 122.217 157.635 122.217L151.448 125.652L147.982 126.939L147.573 130.881L156.401 126.086L173.313 115.634C173.313 115.634 172.096 114.691 170.421 114.691C169.786 114.691 169.085 114.827 168.36 115.2Z" fill="white"/>
</mask>
<g mask="url(#mask11_5567_150835)">
<path d="M146.148 109.018L177.408 111.759L174.811 136.796L143.551 134.056L146.148 109.018Z" fill="#C3E0FF"/>
</g>
<path d="M131.641 113.622C129.948 114.888 128.894 116.831 128.754 118.937L127.187 142.515C126.981 145.615 126.149 148.638 124.743 151.407L120.645 160.32L144.885 167.107L149.351 159.008C151.843 156.639 153.941 153.888 155.566 150.859L161.803 139.236C162.536 137.87 163.442 136.602 164.498 135.465L175.42 123.71C176.41 122.643 176.895 121.204 176.755 119.758C176.514 117.299 174.538 115.368 172.068 115.181L171.68 115.152C170.459 115.06 169.247 115.411 168.266 116.137L155.597 125.511C154.736 126.149 153.795 126.67 152.799 127.059L144.606 130.422C142.721 131.195 141.909 124.66 141.909 124.66L139.643 107.128L131.641 113.622Z" fill="#F2CBA8"/>
<path fill-rule="evenodd" clip-rule="evenodd" d="M171.514 88.758C171.094 84.8 167.563 81.9475 163.6 82.3629C159.652 82.7769 156.796 86.2992 157.209 90.2446C157.626 94.2181 161.157 97.0744 165.135 96.6557C169.067 96.2419 171.932 92.6948 171.514 88.758ZM167.471 86.957C167.426 86.9379 167.376 86.9162 167.316 86.8902C167.467 87.1575 167.614 87.4167 167.757 87.6707C168.035 88.1623 168.302 88.6341 168.569 89.1057C168.952 89.7824 169.335 90.459 169.719 91.1348C169.958 91.5548 169.907 91.8294 169.523 92.1332C169.122 92.4502 168.649 92.5997 168.158 92.6968C167.384 92.8498 166.61 92.8838 165.852 92.6136C165.241 92.3956 165.108 92.1091 165.302 91.4938C165.422 91.1144 165.541 90.735 165.661 90.3556C166.014 89.2346 166.368 88.1137 166.728 86.9951C166.798 86.7791 166.773 86.689 166.538 86.626C164.825 86.1669 163.176 86.3007 161.59 87.1123C161.412 87.2034 161.362 87.2677 161.474 87.4626C162.027 88.4254 162.574 89.3919 163.12 90.3584C163.381 90.8192 163.641 91.2799 163.903 91.7402C164.143 92.1647 164.096 92.4383 163.714 92.7394C163.536 92.8793 163.342 92.9942 163.131 93.0739C162.223 93.4162 161.294 93.5212 160.339 93.313C160.185 93.2793 160.032 93.2257 159.888 93.1592C159.408 92.9364 159.304 92.6866 159.461 92.1878C159.909 90.7697 160.356 89.3514 160.802 87.9329L160.838 87.8196C160.854 87.7701 160.868 87.7201 160.887 87.6541C160.897 87.617 160.909 87.5748 160.924 87.5248C160.88 87.5552 160.842 87.5813 160.807 87.6048C160.74 87.6503 160.687 87.6862 160.637 87.7261C160.631 87.7309 160.625 87.7357 160.619 87.7404C160.489 87.8451 160.364 87.9455 160.212 87.7535C160.07 87.5736 160.193 87.4826 160.308 87.3968C160.32 87.3883 160.331 87.3799 160.342 87.3715C161.18 86.7285 162.111 86.2849 163.147 86.0617C164.787 85.7082 166.352 85.9656 167.871 86.6273C168.022 86.6934 168.147 86.7558 168.05 86.9559C167.959 87.1442 167.826 87.1188 167.675 87.0471C167.614 87.0186 167.553 86.9922 167.471 86.957Z" fill="#02A750"/>
<path d="M165.645 101.949C162.063 102.277 158.88 101.296 156.152 98.957C153.957 97.0749 152.596 94.6832 152.053 91.8376C152.004 91.5801 151.975 91.3187 151.925 91.0615C151.898 90.9236 151.941 90.8836 152.077 90.8726C152.441 90.8433 152.805 90.8054 153.168 90.7574C153.341 90.7345 153.318 90.8498 153.332 90.9469C153.466 91.9265 153.708 92.879 154.095 93.7888C154.815 95.4824 155.883 96.9219 157.313 98.088C158.882 99.3671 160.665 100.179 162.668 100.478C164.806 100.797 166.876 100.537 168.857 99.6534C171.279 98.573 173.095 96.8462 174.29 94.4864C175.345 92.4029 175.692 90.1953 175.349 87.8811C174.942 85.1421 173.674 82.8648 171.581 81.0747C169.502 79.2969 167.066 78.401 164.316 78.4129C162.037 78.4227 159.952 79.069 158.073 80.359C157.928 80.4584 157.835 80.468 157.726 80.3189C157.539 80.0612 157.349 79.8047 157.144 79.5611C157.02 79.4138 157.054 79.3363 157.199 79.2346C158.088 78.6113 159.044 78.1154 160.063 77.7488C161.949 77.0704 163.894 76.8418 165.884 77.0866C168.362 77.3914 170.566 78.3478 172.463 79.9683C174.822 81.9833 176.258 84.5281 176.735 87.5968C177.2 90.593 176.649 93.4065 175.072 95.9896C173.376 98.7685 170.939 100.619 167.802 101.536C167.097 101.742 166.378 101.873 165.645 101.949Z" fill="#BAD333"/>
<path d="M163.37 79.8403C166.94 79.5872 169.864 80.8238 172.114 83.6275C172.239 83.783 172.229 83.866 172.066 83.9789C171.835 84.1386 171.611 84.3126 171.407 84.5039C171.222 84.6767 171.116 84.6766 170.953 84.4612C170.154 83.4021 169.143 82.5963 167.949 82.015C164.67 80.4183 160.588 81.2276 158.173 83.9691C156.445 85.9297 155.77 88.215 156.145 90.7967C156.708 94.6732 160.123 97.726 164.048 97.7917C167.618 97.8515 170.22 96.2283 171.863 93.0705C171.941 92.9209 171.995 92.8789 172.153 92.9689C172.438 93.1313 172.732 93.2805 173.031 93.4155C173.209 93.4959 173.203 93.585 173.125 93.7379C171.833 96.2857 169.84 98.025 167.089 98.8255C162.833 100.064 158.426 98.3537 156.063 94.5968C153.337 90.2637 154.616 84.3202 158.885 81.4719C160.245 80.5642 161.73 80.0058 163.37 79.8403Z" fill="#74BC46"/>
<path fill-rule="evenodd" clip-rule="evenodd" d="M167.316 86.8902L167.706 87.5804C168.002 88.1047 168.285 88.6053 168.568 89.1057C168.951 89.7823 169.335 90.459 169.719 91.1348C169.958 91.5547 169.907 91.8294 169.523 92.1331C169.122 92.4501 168.648 92.5997 168.158 92.6968C167.384 92.8497 166.61 92.8838 165.852 92.6136C165.241 92.3957 165.107 92.1091 165.302 91.4937C165.422 91.1146 165.541 90.7354 165.661 90.3562L165.661 90.3557L165.661 90.3556C166.014 89.2347 166.367 88.1137 166.728 86.9951C166.797 86.779 166.772 86.6889 166.538 86.626C164.825 86.1669 163.176 86.3006 161.589 87.1123C161.411 87.2033 161.362 87.2677 161.474 87.4626C162.025 88.4222 162.57 89.3855 163.115 90.3489L163.115 90.349C163.377 90.8129 163.639 91.2767 163.902 91.7402C164.143 92.1646 164.096 92.4382 163.713 92.7394C163.536 92.8792 163.342 92.9941 163.13 93.0739C162.223 93.4161 161.293 93.5212 160.339 93.313C160.185 93.2793 160.032 93.2257 159.888 93.1592C159.408 92.9364 159.303 92.6865 159.461 92.1878C159.909 90.7702 160.355 89.3523 160.802 87.9344L160.802 87.9343L160.838 87.8196C160.854 87.7701 160.868 87.7201 160.887 87.6541C160.897 87.617 160.909 87.5748 160.924 87.5248C160.88 87.5554 160.841 87.5817 160.806 87.6053L160.806 87.6053C160.739 87.6506 160.687 87.6864 160.637 87.7261L160.619 87.7404C160.489 87.8451 160.364 87.9455 160.212 87.7535C160.07 87.5736 160.193 87.4826 160.308 87.3967C160.32 87.3883 160.331 87.3799 160.342 87.3715C161.179 86.7284 162.111 86.2849 163.146 86.0617C164.787 85.7082 166.352 85.9655 167.871 86.6273C168.022 86.6933 168.147 86.7558 168.05 86.9559C167.959 87.1442 167.826 87.1187 167.674 87.0471C167.614 87.0185 167.552 86.9921 167.47 86.9567L167.47 86.9566L167.47 86.9566C167.426 86.9376 167.375 86.916 167.316 86.8902ZM161.276 87.9508C161.263 87.966 161.253 87.9772 161.244 87.9861L161.244 87.9861C161.23 88.0004 161.222 88.0089 161.219 88.0189C161.088 88.4343 160.956 88.8498 160.825 89.2653L160.825 89.2655C160.548 90.1426 160.271 91.0198 159.991 91.896C159.932 92.0814 160.02 92.0717 160.141 92.0584L160.157 92.0566C160.845 91.9829 161.533 91.9108 162.221 91.8388L162.897 91.768L163.406 91.7147L161.276 87.9508ZM167.058 87.3804C167.068 87.3707 167.08 87.3595 167.092 87.3454C167.234 87.5959 167.375 87.8452 167.516 88.0937C167.824 88.6367 168.13 89.1759 168.435 89.7154C168.513 89.8538 168.591 89.9928 168.668 90.1318C168.809 90.385 168.95 90.6382 169.096 90.8883C169.182 91.0349 169.209 91.1107 168.991 91.132C167.983 91.2302 166.977 91.3381 165.971 91.4472C165.826 91.4628 165.755 91.4523 165.811 91.2767C166.068 90.4664 166.323 89.6555 166.577 88.8445C166.726 88.3711 166.875 87.8978 167.024 87.4246C167.029 87.4098 167.041 87.3975 167.058 87.3804Z" fill="#F3FAF6"/>
<path d="M161.277 87.9507C161.983 89.1997 162.684 90.4382 163.406 91.7139C163.209 91.7346 163.053 91.751 162.897 91.7673C161.983 91.8633 161.07 91.9583 160.156 92.0563C160.028 92.0701 159.929 92.0893 159.991 91.8957C160.404 90.6044 160.81 89.3112 161.219 88.0188C161.225 88.0026 161.243 87.9904 161.277 87.9507Z" fill="#04A650"/>
<path d="M167.092 87.3458C167.545 88.1436 167.99 88.9291 168.435 89.7153C168.656 90.1059 168.87 90.5007 169.097 90.888C169.182 91.0346 169.209 91.1104 168.991 91.1317C167.983 91.23 166.977 91.3381 165.97 91.4473C165.825 91.463 165.755 91.4525 165.81 91.2769C166.218 89.9937 166.619 88.7089 167.024 87.425C167.032 87.4018 167.058 87.3846 167.092 87.3458Z" fill="#04A650"/>
<path d="M152.084 150.333C150.136 151.701 148.403 153.348 147.094 155.334C145.206 158.201 142.878 161.676 142.176 162.469C140.934 163.871 128.282 161.39 123.392 156.861C123.392 156.861 125.439 162.036 133.91 164.55C142.788 167.183 147.073 164.514 147.073 164.514L151.979 155.524C151.979 155.524 156.399 152.698 164.681 134.894C164.681 134.894 157.095 146.812 152.084 150.333Z" fill="#E79E5C"/>
<path d="M115.343 161.576L117.701 155.107C118.077 154.074 119.22 153.542 120.254 153.917C120.281 153.927 120.309 153.938 120.335 153.949L146.086 164.603C147.419 165.155 148.068 166.669 147.545 168.012L145.354 173.65C144.863 174.914 143.438 175.541 142.172 175.051C142.159 175.046 142.146 175.041 142.133 175.035L116.725 164.689C115.502 164.191 114.891 162.816 115.343 161.576Z" fill="#00AB4E"/>
<path d="M55.6772 61.187C55.6772 72.9972 65.2669 82.5718 77.0957 82.5718C88.9245 82.5718 98.5136 72.9972 98.5136 61.187C98.5136 49.378 88.9245 39.8022 77.0957 39.8022C65.2669 39.8022 55.6772 49.378 55.6772 61.187Z" fill="#00AB4E"/>
<path d="M83.3729 55.2624L74.5615 64.3778L70.7579 61.1061C69.5763 60.0904 67.804 60.2307 66.798 61.4274C65.7897 62.6178 65.9296 64.41 67.1152 65.4246L72.9143 70.4178C73.4422 70.8713 74.0902 71.097 74.7371 71.097C75.4695 71.097 76.2013 70.8085 76.749 70.2385L87.394 59.2251C88.477 58.1048 88.456 56.3053 87.3464 55.2121C86.7992 54.6742 86.0906 54.4067 85.3826 54.4067C84.6519 54.4067 83.9223 54.6923 83.3729 55.2624Z" fill="white"/>
</g>
<path opacity="0.5" d="M173.69 28.7626L171.945 31.9467L168.757 33.6874C168.23 33.9755 168.23 34.73 168.757 35.0181L171.945 36.7587L173.69 39.9429C173.977 40.4687 174.734 40.4687 175.021 39.9429L176.766 36.7587L179.955 35.0181C180.482 34.73 180.482 33.9755 179.955 33.6874L176.766 31.9467L175.021 28.7626C174.734 28.2367 173.977 28.2367 173.69 28.7626Z" fill="#E8AC00"/>
<path d="M196.833 91.5019L195.524 93.89L193.134 95.1955C192.739 95.4115 192.739 95.9774 193.134 96.1935L195.524 97.499L196.833 99.8871C197.048 100.281 197.616 100.281 197.832 99.8871L199.14 97.499L201.532 96.1935C201.927 95.9774 201.927 95.4115 201.532 95.1955L199.14 93.89L197.832 91.5019C197.616 91.1075 197.048 91.1075 196.833 91.5019Z" fill="#E8AC00"/>
<path d="M115.581 76.7376L113.4 80.7178L109.415 82.8937C108.757 83.2538 108.757 84.1969 109.415 84.557L113.4 86.7328L115.581 90.713C115.94 91.3704 116.886 91.3704 117.245 90.713L119.426 86.7328L123.413 84.557C124.071 84.1969 124.071 83.2538 123.413 82.8937L119.426 80.7178L117.245 76.7376C116.886 76.0803 115.94 76.0803 115.581 76.7376Z" fill="#E8AC00"/>
<path d="M256.773 12.7055L255.464 15.0936L253.074 16.3991C252.679 16.6151 252.679 17.181 253.074 17.3971L255.464 18.7026L256.773 21.0907C256.988 21.4851 257.556 21.4851 257.771 21.0907L259.08 18.7026L261.472 17.3971C261.867 17.181 261.867 16.6151 261.472 16.3991L259.08 15.0936L257.771 12.7055C257.556 12.3111 256.988 12.3111 256.773 12.7055Z" fill="#E8AC00"/>
<path d="M304.78 56.5593L303.617 58.6821L301.492 59.8425C301.141 60.0346 301.141 60.5376 301.492 60.7296L303.617 61.8901L304.78 64.0129C304.972 64.3634 305.476 64.3634 305.668 64.0129L306.831 61.8901L308.957 60.7296C309.308 60.5376 309.308 60.0346 308.957 59.8425L306.831 58.6821L305.668 56.5593C305.476 56.2087 304.972 56.2087 304.78 56.5593Z" fill="#E8AC00"/>
</svg>
