<svg width="328" height="164" viewBox="0 0 328 164" fill="none" xmlns="http://www.w3.org/2000/svg">
<path d="M2.31987 141.514C5.30487 151.239 12.7689 159.343 23.2189 161.504C33.6809 163.667 265.053 165.826 301.876 161.504C312.777 160.224 321.503 148.276 322.776 146.203C330.736 133.238 327.751 53.2794 325.761 26.266C324.69 11.7278 309.838 5.19571 302.871 3.03482C289.548 -1.09779 53.2799 -1.26366 22.2229 4.11573C8.32787 6.52168 3.29087 17.8712 2.29087 24.1796C-0.0421274 38.8847 -1.42113 129.331 2.31887 141.514H2.31987Z" fill="#E6F6ED"/>
<mask id="mask0_5570_165345" style="mask-type:alpha" maskUnits="userSpaceOnUse" x="0" y="0" width="328" height="164">
<path fill-rule="evenodd" clip-rule="evenodd" d="M23.2189 161.504C33.6809 163.667 265.053 165.826 301.876 161.504C312.777 160.224 321.503 148.276 322.776 146.203C330.736 133.238 327.751 53.2794 325.761 26.266C324.69 11.7278 309.838 5.19571 302.871 3.03482C289.548 -1.09779 53.2799 -1.26366 22.2229 4.11573C8.32787 6.52168 3.29087 17.8712 2.29087 24.1796C-0.0421274 38.8847 -1.42113 129.331 2.31887 141.514C5.30487 151.239 12.7689 159.343 23.2189 161.504Z" fill="white"/>
</mask>
<g mask="url(#mask0_5570_165345)">
<path opacity="0.5" fill-rule="evenodd" clip-rule="evenodd" d="M80.1804 185L21.5181 -8H302.286L256.51 185H80.1804Z" fill="#99DDB8"/>
<path d="M136.68 118.544L131.816 82.7786" stroke="white" stroke-linecap="round"/>
<path d="M95.6126 64.3926L88.8833 28.9304" stroke="white" stroke-linecap="round"/>
<path d="M79.536 82.1922L70.96 47.1309" stroke="white" stroke-linecap="round"/>
<path d="M23.536 66.1922L19.4999 50.5" stroke="white" stroke-linecap="round"/>
<path d="M52.536 144.192L43.96 109.131" stroke="white" stroke-linecap="round"/>
<path d="M216.877 51.749L227.694 7.75488" stroke="white" stroke-linecap="round"/>
<path d="M265.877 148.749L272.5 126.5" stroke="white" stroke-linecap="round"/>
<path d="M296.877 80.749L307.694 36.7549" stroke="white" stroke-linecap="round"/>
<path d="M186.049 68L194.549 23.5" stroke="white" stroke-linecap="round"/>
<path d="M202.247 108.898L194.342 138.865" stroke="white" stroke-linecap="round"/>
<path d="M234.247 60.8984L226.342 90.8652" stroke="white" stroke-linecap="round"/>
<path fill-rule="evenodd" clip-rule="evenodd" d="M187.442 44.2614L193.212 45.1305C195.879 45.532 197.699 48.1276 197.277 50.9283L194.828 67.1928C195.531 66.6021 196.644 65.6636 197.764 64.6994C198.611 63.971 199.462 63.2281 200.144 62.6094C204.513 58.6501 211.323 63.1003 205.4 70.2545C201.24 75.2786 194.557 83.2051 191.951 86.292L191.547 88.9803C192.885 86.5298 195.055 85.5821 197.347 85.7137C200.477 85.8933 203.554 89.6351 202.939 93.278C202.462 96.0951 200.388 99.2193 197.351 99.8129C197.484 99.9277 197.604 100.044 197.712 100.158C197.923 100.375 198.109 100.61 198.27 100.859C198.366 101.005 198.428 101.118 198.46 101.179C199.466 103.027 199.276 105.463 198.485 106.834C197.538 108.477 196.272 110.061 194.053 111.181C196.517 112.201 199.01 113.718 199.97 115.867C202.142 120.728 197.642 124.721 192.932 127.486C191.832 128.131 191.151 128.739 190.605 129.226C189.583 130.138 189.033 130.629 187.098 130.162C186.532 130.025 185.967 129.813 185.441 129.52L184.792 133.83C184.627 134.925 184.144 135.888 183.458 136.632C182.393 142.505 179.268 152.383 170.102 159.802L165.906 173.468L166.3 173.718L165.891 173.516L165.89 173.522L166.741 173.943C167.998 174.565 168.632 175.995 168.25 177.344L163.998 192.327L147.767 186.2C145.726 186.382 143.516 186.351 141.149 186.018C134.099 185.025 130.208 181.811 128.071 178.765L116.981 174.578L124.626 155.724C125.103 154.548 126.478 154.026 127.615 154.588L130.717 156.123L130.718 156.119L130.154 155.84L131.389 151.543L132.043 151.958L141.089 123.546L153.028 44.2643C153.45 41.4636 155.954 39.5189 158.621 39.9211L164.391 40.7894C165.131 40.9014 165.695 41.5276 165.76 42.308L165.833 43.1756C165.897 43.9567 166.462 44.5829 167.201 44.6942L183.607 47.1654C184.346 47.2767 185.071 46.844 185.362 46.1174L185.687 45.3087C185.978 44.5822 186.703 44.1502 187.442 44.2614ZM189.902 99.9019L190.599 95.2718C190.949 96.6351 191.696 97.9884 192.963 98.879C191.896 99.0978 191.02 99.4588 190.881 99.5178C190.552 99.6321 190.225 99.7606 189.902 99.9019ZM187.157 118.13L187.735 114.291C188.579 114.324 189.421 114.037 190.205 113.629L189.572 116.783C189.572 116.783 188.436 117.349 187.157 118.13ZM171.744 43.2425C171.434 43.1959 171.219 42.9057 171.266 42.5952L171.283 42.4832C171.33 42.1726 171.62 41.9588 171.93 42.0054L177.035 42.7741C177.346 42.8206 177.561 43.1115 177.514 43.4221L177.497 43.5334C177.45 43.8446 177.16 44.0577 176.849 44.0112L171.744 43.2425ZM179.428 44.5157C179.868 44.5826 180.277 44.2793 180.343 43.8401C180.409 43.4008 180.107 42.9913 179.667 42.9251C179.228 42.8582 178.818 43.1608 178.752 43.6008C178.686 44.0393 178.989 44.4495 179.428 44.5157ZM147.633 62.899L146.891 62.7877C146.618 62.7462 146.43 62.491 146.471 62.2175L147.496 55.4124C147.537 55.139 147.792 54.9499 148.066 54.9913L148.807 55.1026L147.633 62.899ZM145.525 71.8644L146.266 71.9757L147.44 64.1793L146.699 64.0681C146.426 64.0266 146.17 64.215 146.13 64.4884L145.104 71.2942C145.064 71.567 145.251 71.823 145.525 71.8644Z" fill="#99DDB8"/>
<path d="M182.342 129.783C182.342 129.783 182.047 146.698 167.945 157.71L161.815 176.503C161.815 176.503 153.041 185.719 138.539 183.417C124.039 181.116 123.138 169.61 123.138 169.61L140.497 118.205L182.342 129.783Z" fill="#F2CBA8"/>
<path d="M150.206 137.062C150.206 137.062 162.097 141.224 177.033 139.386L150.726 133.147L150.206 137.062Z" fill="#E79E5C"/>
<path d="M193.529 66.1563C193.529 66.1563 197.47 62.9904 199.679 61.0571C204.117 57.1746 210.848 61.743 204.801 68.7927C199.435 75.0476 189.962 85.8643 189.962 85.8643L193.529 66.1563Z" fill="#F2CBA8"/>
<path fill-rule="evenodd" clip-rule="evenodd" d="M177.034 139.386L142.257 133.526C138.297 132.859 135.627 129.106 136.294 125.146L150.563 40.469C151.231 36.5084 154.982 33.8382 158.942 34.5052L193.72 40.3654C197.68 41.0332 200.35 44.7851 199.683 48.7457L185.414 133.423C184.747 137.384 180.995 140.053 177.034 139.386Z" fill="#58585B"/>
<path fill-rule="evenodd" clip-rule="evenodd" d="M193.053 43.4599L187.3 42.4902C186.562 42.3661 185.83 42.7854 185.526 43.5067L185.188 44.3097C184.883 45.031 184.151 45.451 183.414 45.3269L167.054 42.5696C166.317 42.4455 165.763 41.8095 165.712 41.0275L165.655 40.1587C165.604 39.3773 165.05 38.7414 164.312 38.6165L158.559 37.6475C155.899 37.1989 153.362 39.0996 152.891 41.8925L138.961 124.564C138.49 127.356 140.265 129.984 142.925 130.432L177.418 136.244C180.078 136.692 182.616 134.792 183.087 131.999L197.017 49.3278C197.487 46.5348 195.713 43.9078 193.053 43.4599Z" fill="white"/>
<path fill-rule="evenodd" clip-rule="evenodd" d="M169.708 75.3667C173.641 75.8496 176.422 79.4056 175.942 83.3387C175.465 87.2508 171.894 90.051 167.992 89.5737C164.045 89.0907 161.264 85.531 161.751 81.5837C162.234 77.6643 165.79 74.8859 169.708 75.3667ZM172.294 80.5889C172.442 80.6989 172.526 80.7578 172.606 80.8212C172.736 80.9245 172.86 80.979 172.99 80.8167C173.129 80.6443 173.022 80.5558 172.89 80.4579C171.567 79.4767 170.108 78.8771 168.44 78.8535C167.387 78.8386 166.385 79.0606 165.43 79.4971C165.29 79.561 165.112 79.6121 165.219 79.8386C165.327 80.0688 165.479 79.9823 165.636 79.907C165.723 79.8652 165.815 79.8338 165.959 79.7758C165.889 79.9016 165.851 79.973 165.81 80.0426C165.039 81.3525 164.269 82.6623 163.497 83.9717C163.233 84.4202 163.278 84.686 163.693 85.0094C163.817 85.1059 163.954 85.1922 164.096 85.2593C164.974 85.6746 165.898 85.7805 166.853 85.6513C167.076 85.6212 167.29 85.5531 167.493 85.4571C167.931 85.2505 168.038 84.9957 167.9 84.5302C167.436 82.9662 166.979 81.4 166.506 79.8385C166.442 79.6245 166.504 79.5731 166.696 79.5245C168.415 79.0919 170.042 79.3306 171.599 80.1587C171.812 80.2723 171.816 80.3652 171.701 80.5592C170.898 81.9036 170.106 83.2549 169.311 84.6039C168.985 85.1573 169.05 85.465 169.593 85.813C170.266 86.2444 171.024 86.3845 171.808 86.409C172.305 86.4246 172.797 86.3853 173.257 86.1674C173.697 85.9587 173.808 85.7037 173.671 85.243C173.45 84.5015 173.23 83.7596 173.011 83.0177C172.779 82.2335 172.548 81.4491 172.294 80.5889Z" fill="#02A750"/>
<path fill-rule="evenodd" clip-rule="evenodd" d="M167.302 94.8248C163.759 94.3412 160.895 92.678 158.777 89.7989C157.073 87.4821 156.289 84.8573 156.401 81.9753C156.411 81.7145 156.442 81.4545 156.451 81.1937C156.455 81.0539 156.506 81.0248 156.64 81.0445C157 81.0975 157.361 81.1421 157.723 81.1767C157.896 81.1932 157.848 81.2999 157.839 81.3971C157.749 82.3775 157.771 83.3558 157.942 84.325C158.26 86.1291 158.972 87.7643 160.096 89.2154C161.329 90.8071 162.874 91.9938 164.747 92.7317C166.747 93.5193 168.81 93.7298 170.927 93.3156C173.515 92.8091 175.661 91.54 177.347 89.5178C178.835 87.7324 179.666 85.6683 179.852 83.3464C180.072 80.5983 179.353 78.1053 177.727 75.9006C176.111 73.711 173.953 72.2972 171.286 71.6937C169.076 71.1935 166.912 71.3544 164.803 72.1855C164.64 72.2496 164.548 72.238 164.476 72.0692C164.353 71.7774 164.226 71.486 164.082 71.2039C163.995 71.0332 164.045 70.9655 164.208 70.8993C165.209 70.4934 166.246 70.2262 167.315 70.0984C169.294 69.862 171.229 70.075 173.102 70.7577C175.434 71.6075 177.355 73.0282 178.829 75.0246C180.662 77.5068 181.484 80.2969 181.258 83.3805C181.037 86.3912 179.874 88.9976 177.768 91.151C175.502 93.4676 172.728 94.7176 169.484 94.9059C168.754 94.9483 168.029 94.9139 167.302 94.8248Z" fill="#BAD333"/>
<path fill-rule="evenodd" clip-rule="evenodd" d="M170.049 72.8669C173.564 73.4197 176.12 75.2734 177.671 78.4963C177.757 78.6752 177.729 78.7535 177.546 78.8265C177.287 78.9299 177.031 79.0486 176.79 79.1885C176.572 79.3148 176.469 79.2909 176.36 79.0456C175.823 77.8394 175.024 76.8315 173.998 76.0006C171.18 73.7184 167.045 73.5907 164.091 75.7102C161.979 77.226 160.813 79.2921 160.598 81.8807C160.275 85.7674 162.899 89.4926 166.686 90.4342C170.13 91.2903 173.014 90.2975 175.313 87.6014C175.422 87.4737 175.484 87.4451 175.617 87.5677C175.857 87.789 176.108 87.9994 176.367 88.1972C176.521 88.315 176.496 88.4002 176.386 88.5312C174.563 90.7138 172.243 91.9555 169.4 92.117C165 92.367 161.115 89.7222 159.667 85.5488C157.997 80.7355 160.567 75.2554 165.34 73.4468C166.861 72.8704 168.424 72.6607 170.049 72.8669Z" fill="#74BC46"/>
<path fill-rule="evenodd" clip-rule="evenodd" d="M172.294 80.5889C172.548 81.4491 172.779 82.2334 173.011 83.0176C173.23 83.7595 173.45 84.5014 173.671 85.2429C173.808 85.7036 173.697 85.9585 173.257 86.1673C172.797 86.3852 172.305 86.4244 171.808 86.4089C171.024 86.3843 170.266 86.2443 169.593 85.8129C169.05 85.465 168.985 85.1571 169.311 84.6038C170.106 83.2548 170.898 81.9035 171.7 80.5591C171.816 80.3651 171.812 80.2721 171.599 80.1586C170.042 79.3305 168.415 79.0918 166.696 79.5244C166.503 79.5729 166.441 79.6243 166.506 79.8384C166.979 81.3999 167.436 82.9661 167.9 84.5301C168.038 84.9955 167.931 85.2503 167.493 85.457C167.29 85.553 167.076 85.6211 166.853 85.6512C165.898 85.7803 164.973 85.6744 164.096 85.2592C163.954 85.1921 163.817 85.1059 163.693 85.0093C163.278 84.6859 163.233 84.4201 163.497 83.9716C164.269 82.6622 165.039 81.3524 165.81 80.0425C165.851 79.9729 165.889 79.9015 165.959 79.7757C165.815 79.8338 165.723 79.8652 165.636 79.9069C165.479 79.9823 165.327 80.0687 165.219 79.8385C165.112 79.6121 165.29 79.5609 165.43 79.497C166.385 79.0604 167.387 78.8385 168.44 78.8534C170.108 78.877 171.567 79.4766 172.89 80.4578C173.022 80.5557 173.129 80.6441 172.99 80.8166C172.859 80.9788 172.736 80.9244 172.606 80.8211C172.526 80.7577 172.442 80.6988 172.294 80.5889ZM166.205 80.2672C166.164 80.2982 166.144 80.3059 166.135 80.3206C165.449 81.4827 164.766 82.6465 164.076 83.8069C163.973 83.9809 164.073 83.9845 164.201 83.9998C165.108 84.1089 166.014 84.2211 166.92 84.3323C167.075 84.3512 167.229 84.3702 167.426 84.3943C167.012 82.9953 166.61 81.637 166.205 80.2672ZM171.974 80.9805C171.933 81.0105 171.903 81.0212 171.891 81.0421C171.211 82.1971 170.534 83.3538 169.852 84.5076C169.759 84.6655 169.825 84.6914 169.969 84.7086C170.968 84.8278 171.967 84.948 172.965 85.0779C173.182 85.106 173.173 85.0265 173.122 84.8652C172.99 84.4387 172.871 84.0079 172.744 83.5795C172.49 82.7173 172.234 81.8556 171.974 80.9805Z" fill="#F3FAF6"/>
<path fill-rule="evenodd" clip-rule="evenodd" d="M166.206 80.2674C166.611 81.6371 167.012 82.9954 167.426 84.3944C167.23 84.3704 167.075 84.3514 166.92 84.3324C166.014 84.2212 165.108 84.109 164.201 83.9999C164.074 83.9846 163.973 83.981 164.077 83.807C164.766 82.6466 165.449 81.4829 166.135 80.3207C166.144 80.3061 166.164 80.2983 166.206 80.2674Z" fill="#04A650"/>
<path fill-rule="evenodd" clip-rule="evenodd" d="M171.975 80.9806C172.234 81.8557 172.49 82.7175 172.745 83.5796C172.871 84.008 172.99 84.4389 173.123 84.8653C173.173 85.0267 173.182 85.1062 172.966 85.078C171.968 84.9481 170.968 84.8279 169.969 84.7088C169.825 84.6916 169.759 84.6656 169.853 84.5077C170.534 83.3539 171.211 82.1972 171.891 81.0423C171.903 81.0214 171.933 81.0107 171.975 80.9806Z" fill="#04A650"/>
<path fill-rule="evenodd" clip-rule="evenodd" d="M171.621 41.1973C171.312 41.1453 171.102 40.8514 171.154 40.5418L171.174 40.4301C171.226 40.1204 171.519 39.9117 171.829 39.9636L176.92 40.8213C177.23 40.8733 177.439 41.1679 177.387 41.4776L177.368 41.5885C177.315 41.8989 177.022 42.107 176.712 42.055L171.621 41.1973Z" fill="#252528"/>
<path fill-rule="evenodd" clip-rule="evenodd" d="M180.209 41.9449C180.135 42.3829 179.72 42.679 179.282 42.6044C178.844 42.5306 178.549 42.1152 178.622 41.6779C178.696 41.2391 179.111 40.9438 179.549 41.0183C179.987 41.0922 180.283 41.5068 180.209 41.9449Z" fill="#252528"/>
<path fill-rule="evenodd" clip-rule="evenodd" d="M147.171 60.4301L146.431 60.3059C146.159 60.2596 145.975 60.0011 146.021 59.7284L147.165 52.9423C147.21 52.6696 147.469 52.485 147.742 52.5312L148.481 52.6554L147.171 60.4301Z" fill="#252528"/>
<path fill-rule="evenodd" clip-rule="evenodd" d="M145.645 69.4816L144.906 69.3574C144.634 69.3112 144.451 69.0519 144.496 68.78L145.64 61.9931C145.686 61.7204 145.944 61.5365 146.217 61.5827L146.955 61.7069L145.645 69.4816Z" fill="#252528"/>
<path d="M122.304 172.461L129.975 146.198C129.975 146.198 123.245 118.545 125.366 110.8C126.421 106.945 142.029 90.6112 143.671 90.3664C145.314 90.1223 161.812 88.4987 163.656 89.8962C165.501 91.2937 167.364 97.9818 159.296 100.641C154.052 102.368 151.391 101.834 150.696 102.505C150.001 103.175 144.809 111.276 144.809 111.276C144.809 111.276 153.816 119.352 149.93 138.535" fill="#F2CBA8"/>
<path d="M188.163 115.038C188.163 115.038 183.051 117.475 182.236 119.201C179.616 124.75 182.5 127.603 185.456 128.372C188.412 129.14 188.148 127.594 191.336 125.797C196.093 123.116 200.662 119.201 198.576 114.303C197.242 111.172 192.682 109.309 189.62 108.38L188.163 115.038Z" fill="#F2CBA8"/>
<path d="M188.163 115.038C188.163 115.038 190.405 113.252 190.998 112.597C191.937 111.559 193.96 110.107 192.741 109.516C191.523 108.924 188.749 112.361 188.749 112.361L188.163 115.038Z" fill="#E79E5C"/>
<path d="M197.248 105.246C198.236 103.601 198.369 100.375 196.533 98.4954C194.177 96.0831 188.828 97.435 185.598 100.044C181.295 103.519 180.2 108.971 184.787 111.985C187.62 113.846 190.956 110.294 192.282 109.724C194.806 108.641 196.208 106.98 197.248 105.246Z" fill="#F2CBA8"/>
<path d="M189.754 97.8061C189.754 97.8061 192.388 100.906 197.347 99.6421C197.347 99.6421 196.595 97.9568 194.661 97.264C192.729 96.5705 189.754 97.8061 189.754 97.8061Z" fill="#E79E5C"/>
<path d="M189.466 90.5607C190.42 85.6559 193.354 83.8748 196.479 84.109C199.606 84.3433 202.617 88.1382 201.938 91.7698C201.258 95.4007 197.9 99.4984 193.339 97.9545C189.891 96.7887 189.011 92.8957 189.466 90.5607Z" fill="#F2CBA8"/>
<path d="M197.263 63.1051L196.572 78.2932L194.256 80.9499L197.263 63.1051Z" fill="#E79E5C"/>
<path fill-rule="evenodd" clip-rule="evenodd" d="M114.575 171.558L122.547 152.84C123.044 151.672 124.429 151.174 125.556 151.756L164.338 171.791C165.584 172.435 166.193 173.876 165.787 175.218L161.275 190.125L114.575 171.558Z" fill="#014F43"/>
<path d="M128.072 153.051L129.383 148.777L163.901 171.558L128.072 153.051Z" fill="#E79E5C"/>
<path fill-rule="evenodd" clip-rule="evenodd" d="M104.472 21.3953C104.227 19.497 105.552 17.754 107.447 17.4828L126.175 14.8019C128.068 14.5309 129.829 15.8298 130.128 17.7188L135.56 51.9995C135.866 53.9265 134.536 55.7311 132.606 56.0111L112.89 58.8694C110.956 59.1498 109.167 57.7918 108.917 55.8534L104.472 21.3953Z" fill="#99DDB8"/>
<path fill-rule="evenodd" clip-rule="evenodd" d="M100.7 21.6185C100.431 19.7043 101.765 17.9345 103.679 17.6655L124.475 14.7428C126.389 14.4738 128.159 15.8075 128.428 17.7217L133.299 52.3811C133.568 54.2952 132.234 56.0651 130.32 56.3341L109.525 59.2567C107.61 59.5258 105.841 58.1921 105.572 56.2779L100.7 21.6185Z" fill="#CC9D3F"/>
<mask id="mask1_5570_165345" style="mask-type:alpha" maskUnits="userSpaceOnUse" x="100" y="14" width="34" height="46">
<path fill-rule="evenodd" clip-rule="evenodd" d="M100.7 21.6185C100.431 19.7043 101.765 17.9345 103.679 17.6655L124.475 14.7428C126.389 14.4738 128.159 15.8075 128.428 17.7217L133.299 52.3811C133.568 54.2952 132.234 56.0651 130.32 56.3341L109.525 59.2567C107.61 59.5258 105.841 58.1921 105.572 56.2779L100.7 21.6185Z" fill="white"/>
</mask>
<g mask="url(#mask1_5570_165345)">
<rect x="96.7476" y="18.6396" width="28" height="42" rx="3.5" transform="rotate(-8 96.7476 18.6396)" fill="#FFC54F"/>
<path fill-rule="evenodd" clip-rule="evenodd" d="M112.234 22.6856L108.025 26.8975C107.51 27.4124 107.376 28.2187 107.696 28.8916L110.301 34.3828C110.62 35.0557 111.319 35.4418 112.032 35.3416L117.852 34.5236C118.565 34.4234 119.13 33.8596 119.252 33.1247L120.243 27.1282C120.364 26.3933 120.014 25.6551 119.377 25.3021L114.169 22.4137C113.532 22.0607 112.75 22.1706 112.234 22.6856Z" fill="#CC9D3F"/>
<rect x="108.822" y="41.6836" width="14" height="2.91667" rx="1.45833" transform="rotate(-8 108.822 41.6836)" fill="#CC9D3F"/>
<rect x="109.796" y="48.6155" width="14" height="2.91667" rx="1.45833" transform="rotate(-8 109.796 48.6155)" fill="#CC9D3F"/>
</g>
<path fill-rule="evenodd" clip-rule="evenodd" d="M39.5758 76.205C39.281 74.5911 40.3374 73.0398 41.947 72.7226L57.8575 69.5877C59.4659 69.2708 61.0309 70.3036 61.3718 71.9071L67.5596 101.007C67.9074 102.642 66.8506 104.247 65.2104 104.573L48.4628 107.904C46.8198 108.231 45.2274 107.149 44.9264 105.501L39.5758 76.205Z" fill="#99DDB8"/>
<path fill-rule="evenodd" clip-rule="evenodd" d="M36.3581 76.5652C36.0419 74.9388 37.1041 73.3641 38.7305 73.0479L56.3998 69.6134C58.0262 69.2972 59.601 70.3594 59.9171 71.9858L65.6414 101.435C65.9575 103.061 64.8954 104.636 63.2689 104.952L45.5996 108.387C43.9732 108.703 42.3985 107.64 42.0823 106.014L36.3581 76.5652Z" fill="#CC9D3F"/>
<mask id="mask2_5570_165345" style="mask-type:alpha" maskUnits="userSpaceOnUse" x="36" y="69" width="30" height="40">
<path fill-rule="evenodd" clip-rule="evenodd" d="M36.3581 76.5652C36.0419 74.9388 37.1041 73.3641 38.7305 73.0479L56.3998 69.6134C58.0262 69.2972 59.601 70.3594 59.9171 71.9858L65.6414 101.435C65.9575 103.061 64.8954 104.636 63.2689 104.952L45.5996 108.387C43.9732 108.703 42.3985 107.64 42.0823 106.014L36.3581 76.5652Z" fill="white"/>
</mask>
<g mask="url(#mask2_5570_165345)">
<rect x="32.8408" y="74.1929" width="24" height="36" rx="3" transform="rotate(-11 32.8408 74.1929)" fill="#FFC54F"/>
<path fill-rule="evenodd" clip-rule="evenodd" d="M46.2788 76.9613L42.8644 80.7554C42.4465 81.2193 42.3684 81.9154 42.6721 82.4771L45.1483 87.0605C45.452 87.6221 46.0676 87.9213 46.6733 87.8035L51.6183 86.8423C52.224 86.7246 52.6827 86.2166 52.7539 85.5821L53.3328 80.4048C53.404 79.7703 53.0708 79.1542 52.5096 78.8806L47.9225 76.6418C47.3612 76.3683 46.6968 76.4974 46.2788 76.9613Z" fill="#CC9D3F"/>
<rect x="44.21" y="93.376" width="12" height="2.5" rx="1.25" transform="rotate(-11 44.21 93.376)" fill="#CC9D3F"/>
<rect x="45.355" y="99.2656" width="12" height="2.5" rx="1.25" transform="rotate(-11 45.355 99.2656)" fill="#CC9D3F"/>
</g>
<path fill-rule="evenodd" clip-rule="evenodd" d="M220.211 133.271C220.736 131.717 222.412 130.872 223.973 131.375L239.409 136.346C240.969 136.849 241.837 138.511 241.358 140.079L232.662 168.53C232.174 170.129 230.471 171.02 228.879 170.51L212.616 165.304C211.021 164.793 210.153 163.075 210.688 161.488L220.211 133.271Z" fill="#99DDB8"/>
<path fill-rule="evenodd" clip-rule="evenodd" d="M217.222 132.026C217.734 130.45 219.427 129.588 221.003 130.1L238.122 135.662C239.697 136.174 240.56 137.867 240.048 139.442L230.777 167.974C230.265 169.55 228.573 170.412 226.997 169.9L209.878 164.338C208.302 163.826 207.44 162.133 207.952 160.558L217.222 132.026Z" fill="#CC9D3F"/>
<mask id="mask3_5570_165345" style="mask-type:alpha" maskUnits="userSpaceOnUse" x="207" y="129" width="34" height="42">
<path fill-rule="evenodd" clip-rule="evenodd" d="M217.222 132.026C217.734 130.45 219.427 129.588 221.003 130.1L238.122 135.662C239.697 136.174 240.56 137.867 240.048 139.442L230.777 167.974C230.265 169.55 228.573 170.412 226.997 169.9L209.878 164.338C208.302 163.826 207.44 162.133 207.952 160.558L217.222 132.026Z" fill="white"/>
</mask>
<g mask="url(#mask3_5570_165345)">
<rect x="215.296" y="128.246" width="24" height="36" rx="3" transform="rotate(18 215.296 128.246)" fill="#FFC54F"/>
<path fill-rule="evenodd" clip-rule="evenodd" d="M225.707 137.182L220.881 138.845C220.291 139.048 219.885 139.619 219.878 140.258L219.822 145.467C219.815 146.105 220.209 146.665 220.796 146.856L225.586 148.413C226.173 148.603 226.821 148.381 227.191 147.861L230.207 143.614C230.577 143.093 230.584 142.393 230.226 141.881L227.299 137.699C226.941 137.188 226.297 136.979 225.707 137.182Z" fill="#CC9D3F"/>
<rect x="215.94" y="150.536" width="12" height="2.5" rx="1.25" transform="rotate(18 215.94 150.536)" fill="#CC9D3F"/>
<rect x="214.086" y="156.242" width="12" height="2.5" rx="1.25" transform="rotate(18 214.086 156.242)" fill="#CC9D3F"/>
</g>
<path fill-rule="evenodd" clip-rule="evenodd" d="M78.4341 141.157C78.165 139.817 79.0226 138.509 80.3592 138.221L93.5703 135.378C94.9058 135.09 96.2248 135.928 96.5322 137.259L102.111 161.415C102.425 162.773 101.567 164.125 100.206 164.421L86.2998 167.44C84.9356 167.736 83.5931 166.858 83.3183 165.489L78.4341 141.157Z" fill="#99DDB8"/>
<path fill-rule="evenodd" clip-rule="evenodd" d="M75.7581 141.504C75.471 140.154 76.3331 138.826 77.6837 138.539L92.3559 135.421C93.7064 135.134 95.0339 135.996 95.321 137.346L100.519 161.8C100.806 163.15 99.9438 164.478 98.5932 164.765L83.921 167.884C82.5705 168.171 81.2429 167.309 80.9559 165.958L75.7581 141.504Z" fill="#CC9D3F"/>
<mask id="mask4_5570_165345" style="mask-type:alpha" maskUnits="userSpaceOnUse" x="75" y="135" width="26" height="33">
<path fill-rule="evenodd" clip-rule="evenodd" d="M75.7581 141.504C75.471 140.154 76.3331 138.826 77.6837 138.539L92.3559 135.421C93.7064 135.134 95.0339 135.996 95.321 137.346L100.519 161.8C100.806 163.15 99.9438 164.478 98.5932 164.765L83.921 167.884C82.5705 168.171 81.2429 167.309 80.9559 165.958L75.7581 141.504Z" fill="white"/>
</mask>
<g mask="url(#mask4_5570_165345)">
<rect x="72.793" y="139.579" width="20" height="30" rx="2.5" transform="rotate(-12 72.793 139.579)" fill="#FFC54F"/>
<path fill-rule="evenodd" clip-rule="evenodd" d="M84.0297 141.69L81.24 144.901C80.8985 145.294 80.8436 145.875 81.1048 146.339L83.2347 150.121C83.4959 150.585 84.0131 150.825 84.5161 150.718L88.6223 149.846C89.1253 149.739 89.5001 149.309 89.5502 148.779L89.9572 144.457C90.0073 143.927 89.7208 143.419 89.2491 143.199L85.3946 141.4C84.923 141.18 84.3712 141.298 84.0297 141.69Z" fill="#CC9D3F"/>
<rect x="82.5449" y="155.397" width="10" height="2.08333" rx="1.04167" transform="rotate(-12 82.5449 155.397)" fill="#CC9D3F"/>
<rect x="83.5845" y="160.288" width="10" height="2.08333" rx="1.04167" transform="rotate(-12 83.5845 160.288)" fill="#CC9D3F"/>
</g>
<path fill-rule="evenodd" clip-rule="evenodd" d="M98.2688 127.567L97.8335 129.019L96.6842 130.007C96.4943 130.17 96.5599 130.479 96.7998 130.551L98.2514 130.985L99.2398 132.135C99.4026 132.325 99.7115 132.26 99.7829 132.02L100.218 130.567L101.368 129.58C101.558 129.416 101.493 129.108 101.253 129.036L99.8003 128.601L98.8119 127.451C98.6491 127.261 98.3402 127.327 98.2688 127.567Z" fill="#E8AC00"/>
<path fill-rule="evenodd" clip-rule="evenodd" d="M100.504 132.691L100.068 134.143L98.919 135.131C98.7292 135.294 98.7947 135.603 99.0346 135.675L100.486 136.11L101.475 137.259C101.637 137.449 101.946 137.384 102.018 137.144L102.453 135.691L103.603 134.704C103.793 134.54 103.727 134.232 103.487 134.16L102.035 133.725L101.047 132.575C100.884 132.385 100.575 132.451 100.504 132.691Z" fill="#E8AC00"/>
<path fill-rule="evenodd" clip-rule="evenodd" d="M257.201 45.857C257.532 44.2502 259.093 43.2075 260.704 43.5165L276.63 46.57C278.241 46.8787 279.305 48.4226 279.02 50.037L273.856 79.3356C273.566 80.9825 271.985 82.0742 270.342 81.7622L253.566 78.577C251.921 78.2645 250.85 76.6646 251.188 75.0239L257.201 45.857Z" fill="#99DDB8"/>
<path fill-rule="evenodd" clip-rule="evenodd" d="M254.083 44.9857C254.399 43.3592 255.974 42.2971 257.6 42.6132L275.269 46.0478C276.896 46.3639 277.958 47.9387 277.642 49.5651L271.918 79.0139C271.601 80.6403 270.027 81.7025 268.4 81.3863L250.731 77.9518C249.105 77.6356 248.042 76.0609 248.359 74.4345L254.083 44.9857Z" fill="#CC9D3F"/>
<mask id="mask5_5570_165345" style="mask-type:alpha" maskUnits="userSpaceOnUse" x="248" y="42" width="30" height="40">
<path fill-rule="evenodd" clip-rule="evenodd" d="M254.083 44.9857C254.399 43.3592 255.974 42.2971 257.6 42.6132L275.269 46.0478C276.896 46.3639 277.958 47.9387 277.642 49.5651L271.918 79.0139C271.601 80.6403 270.027 81.7025 268.4 81.3863L250.731 77.9518C249.105 77.6356 248.042 76.0609 248.359 74.4345L254.083 44.9857Z" fill="white"/>
</mask>
<g mask="url(#mask5_5570_165345)">
<rect x="251.71" y="41.4683" width="24" height="36" rx="3" transform="rotate(11 251.71 41.4683)" fill="#FFC54F"/>
<path fill-rule="evenodd" clip-rule="evenodd" d="M263.133 49.0691L258.546 51.3079C257.984 51.5814 257.651 52.1976 257.722 52.8321L258.301 58.0094C258.373 58.6439 258.831 59.1518 259.437 59.2696L264.382 60.2308C264.988 60.3485 265.603 60.0494 265.907 59.4877L268.383 54.9043C268.687 54.3427 268.609 53.6466 268.191 53.1827L264.776 49.3886C264.358 48.9247 263.694 48.7955 263.133 49.0691Z" fill="#CC9D3F"/>
<rect x="255.065" y="63.5137" width="12" height="2.5" rx="1.25" transform="rotate(11 255.065 63.5137)" fill="#CC9D3F"/>
<rect x="253.921" y="69.4033" width="12" height="2.5" rx="1.25" transform="rotate(11 253.921 69.4033)" fill="#CC9D3F"/>
</g>
<path fill-rule="evenodd" clip-rule="evenodd" d="M282.58 38.7029L281.418 40.1031L279.685 40.6552C279.399 40.7467 279.327 41.1179 279.558 41.31L280.958 42.471L281.51 44.2045C281.601 44.4907 281.973 44.563 282.164 44.3316L283.326 42.9314L285.06 42.3794C285.346 42.2879 285.418 41.9167 285.187 41.7246L283.787 40.5635L283.234 38.83C283.143 38.5438 282.771 38.4715 282.58 38.7029Z" fill="#E8AC00"/>
<path fill-rule="evenodd" clip-rule="evenodd" d="M285.58 44.7029L284.418 46.1031L282.685 46.6552C282.399 46.7467 282.327 47.1179 282.558 47.31L283.958 48.471L284.51 50.2045C284.601 50.4907 284.973 50.563 285.164 50.3316L286.326 48.9314L288.06 48.3794C288.346 48.2879 288.418 47.9167 288.187 47.7246L286.787 46.5635L286.234 44.83C286.143 44.5438 285.771 44.4715 285.58 44.7029Z" fill="#E8AC00"/>
<path fill-rule="evenodd" clip-rule="evenodd" d="M197.799 140.71L196.344 143.37L193.684 144.824C193.245 145.065 193.245 145.696 193.684 145.936L196.344 147.391L197.799 150.051C198.039 150.49 198.67 150.49 198.91 150.051L200.365 147.391L203.025 145.936C203.465 145.696 203.465 145.065 203.025 144.824L200.365 143.37L198.91 140.71C198.67 140.271 198.039 140.271 197.799 140.71Z" fill="white"/>
<path fill-rule="evenodd" clip-rule="evenodd" d="M189.799 151.71L188.344 154.37L185.684 155.824C185.245 156.065 185.245 156.696 185.684 156.936L188.344 158.391L189.799 161.051C190.039 161.49 190.67 161.49 190.91 161.051L192.365 158.391L195.025 156.936C195.465 156.696 195.465 156.065 195.025 155.824L192.365 154.37L190.91 151.71C190.67 151.271 190.039 151.271 189.799 151.71Z" fill="white"/>
<path fill-rule="evenodd" clip-rule="evenodd" d="M71.7991 126.71L70.3435 129.37L67.6845 130.824C67.2451 131.065 67.2451 131.696 67.6845 131.936L70.3435 133.391L71.7991 136.051C72.0385 136.49 72.6702 136.49 72.9096 136.051L74.3652 133.391L77.0255 131.936C77.4648 131.696 77.4648 131.065 77.0255 130.824L74.3652 129.37L72.9096 126.71C72.6702 126.271 72.0385 126.271 71.7991 126.71Z" fill="white"/>
</g>
</svg>
