<svg width="100" height="100" viewBox="0 0 100 100" fill="none" xmlns="http://www.w3.org/2000/svg">
<circle cx="50" cy="50" r="50" fill="#E6F6EA"/>
<mask id="mask0_5567_148445" style="mask-type:alpha" maskUnits="userSpaceOnUse" x="0" y="0" width="100" height="100">
<circle cx="50" cy="50" r="50" fill="#E6F6EA"/>
</mask>
<g mask="url(#mask0_5567_148445)">
<path d="M36.9009 68.2444C37.6342 73.1107 38.1288 81.482 38.1288 81.482L49.7721 84.0386L49.0017 85.8933L52.7566 85.098L54.1531 87.2168C54.1531 87.2168 46.9983 90.9593 44.556 89.9219C38.7673 88.4748 37.8025 88.4748 33.6336 87.4152C31.4579 86.2848 31.5173 85.7967 31.0449 82.9785C30.3667 78.9139 29.3432 69.439 29.3432 69.439L30.8953 60.9786C33.9271 61.5691 36.1182 62.9906 36.9009 68.2444Z" fill="#FFDAB8"/>
<path d="M30.4897 72.9994L31.5315 60.4962C35.0001 61.5 36.6009 64.9406 37.0001 66.4999L38.2429 80.7566C38.2661 81.0227 38.0675 81.2564 37.802 81.2856C32.4045 81.8803 30.8441 84.5898 30.0316 86.6445C28.614 84.0071 29.0966 76.427 30.4897 72.9994Z" fill="#BFD730"/>
<path d="M35.4999 90.9998C36.4999 96.9998 37.8216 100.114 35.9999 100.5C29.9904 101.771 13.6829 87.9923 13.6829 87.9923L15.8691 70.7559C15.8691 70.7559 20.1381 66.3811 16.6433 60.885L22.3044 60.5211L28.3632 60.4915L31.4603 60.4365C33.6392 62.0358 35.8018 67.7058 36.4999 69.4998C37.7712 77.2011 35.8553 84.5484 35.4999 90.9998Z" fill="#CFE163"/>
<path d="M29.9115 65.156C27.5565 64.6754 22.3996 63.2336 21.8614 60.4942L21.7893 58.9995C20.8761 58.9995 20.458 60.0232 20.0062 61.4842C19.8188 65.329 23.8799 68.847 27.9602 69.7938C27.9602 69.7938 27.8545 67.7945 28.5465 66.7516C28.9194 66.1547 29.3795 65.6169 29.9115 65.156Z" fill="#EEEEEF"/>
<path d="M28.3941 59.9995C29.0109 60.1839 29.5746 60.5135 30.0378 60.9607C33.0944 64.1231 31.3498 68.2659 31.3498 68.2659C31.3498 68.2659 31.2152 66.454 30.3261 65.8629C29.618 65.4618 28.8135 65.2623 28 65.2861C28.7497 64.4883 28.8651 63.8443 28.4806 62.5948L28.3941 59.9995Z" fill="#EEEEEF"/>
<path d="M32.535 55.1059C32.535 55.1059 21.856 59.2692 21.856 57.4076C19.8547 53.697 15.8099 52.4996 15.8099 46.0135C15.8099 39.2439 21.4371 35.9268 27.0643 35.9268C28.8247 35.9201 30.557 36.368 32.0936 37.2271C33.6302 38.0862 34.9189 39.3274 35.8352 40.8305C39.0465 41.6767 38.2257 46.1108 35.0101 46.9062L32.535 55.1059Z" fill="#816C41"/>
<path d="M13.5997 37.3352C17.8307 34.2889 21.1449 36.7711 22.2732 38.393C22.5553 40.3675 22.6117 46.0511 20.5808 52.9899C18.0422 61.6634 10.8495 60.8172 13.5997 58.0671C16.3498 55.3169 8.31095 41.1431 13.5997 37.3352Z" fill="#816C41"/>
<path d="M21.8561 60.5759V52.3508C21.8561 52.3508 20.7983 53.4044 19.2455 52.2662C17.8535 51.2466 17.2697 49.0591 18.247 47.9295C18.9367 47.1298 21.0776 46.6898 21.9111 48.4118C21.9111 48.4118 24.3904 48.2933 27.6271 45.9959C30.8638 43.6985 31.6296 41.6718 33.614 41.4434C34.5448 42.1542 35.4502 44.2485 35.3529 49.7699C35.281 53.8571 33.4532 55.8076 32.5181 56.5099C31.7566 57.0811 30.7834 57.1615 29.1334 56.8907V60.7663C29.1334 60.7663 32 64.9995 29.1334 65.4995C23.2311 65.1356 21.8561 60.5759 21.8561 60.5759Z" fill="#FFDAB8"/>
<path fill-rule="evenodd" clip-rule="evenodd" d="M29.0381 53.0757C29.1008 52.9918 29.2191 52.9751 29.3022 53.0384C29.8069 53.423 31.1102 53.9511 32.3079 53.0384C32.3911 52.9751 32.5093 52.9918 32.5721 53.0757C32.6348 53.1597 32.6183 53.2791 32.5351 53.3424C31.1465 54.4005 29.6479 53.779 29.075 53.3424C28.9919 53.2791 28.9753 53.1597 29.0381 53.0757Z" fill="#ECB17D"/>
<path fill-rule="evenodd" clip-rule="evenodd" d="M33.0069 48.0242C33.1224 48.01 33.2276 48.0914 33.242 48.2059L33.5529 50.6855C33.5896 50.9786 33.4705 51.2696 33.2381 51.4542L32.5955 51.9644C32.5047 52.0365 32.3721 52.0219 32.2994 51.9318C32.2267 51.8416 32.2413 51.7101 32.3321 51.6379L32.9746 51.1277C33.0928 51.0339 33.1534 50.8859 33.1347 50.7368L32.8238 48.2573C32.8095 48.1428 32.8914 48.0384 33.0069 48.0242Z" fill="#ECB17D"/>
<path d="M21.9109 48.0311V50.2989C22.3354 50.3023 22.744 50.1372 23.047 49.8398C23.35 49.5423 23.5226 49.1369 23.5271 48.7123V46.5249L21.9109 48.0311Z" fill="#816C41"/>
<path d="M29.1332 56.8906C27.3985 56.6706 23.8233 55.6636 23.2691 54.2759C23.4986 54.9828 23.9421 55.6008 24.5384 56.0444C25.6046 56.9414 29.1501 57.9526 29.1501 57.9526L29.1332 56.8906Z" fill="#ECB17D"/>
<path d="M7.05176 96.9074C6.56942 92.5156 5.87977 84.2737 6.09979 82.9028C6.43826 80.8254 10.0219 68.9406 11.2574 65.3188C12.4378 61.8917 14.2191 60.8467 17.2527 60.8467C17.2527 60.8467 19.3682 61.7944 19.3682 65.1623C19.3682 67.7263 18.0989 70.3537 18.0989 70.3537L12.7763 85.4626L12.4632 95.9596C12.4329 96.9894 12.7291 98.0024 13.3094 98.8536C13.7527 99.4364 14.1583 100.047 14.5237 100.681C15.0314 101.735 15.2176 102.657 15.793 103.605C16.3684 104.553 16.0807 104.608 15.4883 104.667C14.896 104.726 14.1387 103.927 13.5929 102.975C13.4194 102.683 13.2544 102.433 13.1021 102.226C13.1231 104.115 13.4798 105.986 14.1556 107.751C14.7479 109.152 14.7268 110.197 13.2628 110.218C11.4308 110.248 9.24341 109.511 8.11374 108.056C6.98407 106.601 6.84444 104.333 6.84444 102.497C6.84444 100.66 7.28023 98.7352 7.05176 96.9074Z" fill="#FFDAB8"/>
<path d="M9.86563 68.0098C11.558 60.394 16.3531 60.0414 18.5392 60.8171C20.57 62.5095 19.9495 67.4456 19.3854 69.7021L14.3082 87.2607C7.70783 88.7839 5.35258 86.0619 5 84.5106L9.86563 68.0098Z" fill="#BFD730"/>
<path d="M65.9157 82.6128L65.6914 78.3057C65.6914 78.3057 64.4221 64.8342 64.4221 62.2279C64.4221 59.3043 65.2218 57.9969 66.2965 57.4892C67.3711 56.9815 68.4331 56.7657 70.8617 56.3638C74.183 58.4412 74.0053 68.0201 74.1069 73.7785C74.2084 79.5369 74.4623 82.4097 73.5991 84.2121C72.736 86.0145 68.1666 96.7274 68.1666 96.7274C66.2654 96.5092 64.216 100.464 62.8867 99.0877L65.9157 82.6128Z" fill="#EEEEEF"/>
<path d="M81.4519 56.0416C82.3954 56.2659 85.3825 57.0698 87.7984 57.9287C89.0231 58.396 90.0858 59.2088 90.8574 60.2684C92.6217 62.8451 91.0309 68.5569 89.7362 79.3078C89.8335 86.2636 90.0324 93.6255 90.0324 93.6255C86.838 95.9525 72.1438 102.552 65.4165 97.6401C65.4165 97.6401 64.9722 67.808 65.4165 64.4148C66.2627 57.9244 68.8013 56.1855 74.0604 55.8809L81.4519 56.0416Z" fill="#BBBDC0"/>
<path d="M72.2877 63.6619C71.8138 65.2866 69.1737 76.0121 69.3683 80.0485C69.5164 83.2048 70.7011 84.7407 71.3357 85.4134C71.9704 86.0861 73.0662 86.4415 73.7686 85.333C74.5573 84.1402 75.0571 82.7799 75.2283 81.3601C75.4483 79.2023 74.2594 71.7388 74.5894 64.0554C74.4642 63.8783 74.3053 63.7276 74.1218 63.612C73.9383 63.4964 73.7339 63.4181 73.5201 63.3815C73.3063 63.345 73.0875 63.3509 72.876 63.399C72.6645 63.4471 72.4646 63.5365 72.2877 63.6619Z" fill="#407972"/>
<path d="M72.1818 59.9977C71.0776 60.9454 72.2876 63.6617 72.2876 63.6617C73.0769 63.4921 73.9012 63.633 74.5893 64.0552C74.5893 64.0552 76.7936 63.1159 76.7979 61.4828C76.7979 59.9977 75.2197 60.4758 74.0985 60.2812C72.9096 60.0739 72.313 59.2023 72.1818 59.9977Z" fill="#407972"/>
<path d="M79.8781 40.9458C79.8451 42.2892 79.4145 43.5925 78.6408 44.6912C77.8671 45.7899 76.785 46.6345 75.5314 47.1182C74.2777 47.602 72.9088 47.7032 71.5976 47.409C70.2865 47.1148 69.092 46.4385 68.1652 45.4656C67.2383 44.4926 66.6208 43.2667 66.3906 41.9428C66.1605 40.6189 66.328 39.2565 66.872 38.0278C67.416 36.7991 68.3122 35.7593 69.4471 35.0399C70.582 34.3204 71.9048 33.9536 73.2481 33.9858C74.1405 34.0072 75.02 34.2043 75.8362 34.5657C76.6524 34.9271 77.3895 35.4458 78.0052 36.0921C78.6209 36.7385 79.1032 37.4998 79.4245 38.3326C79.7459 39.1654 79.9 40.0534 79.8781 40.9458Z" fill="#263238"/>
<path d="M84.7141 45.8916C84.7141 45.8916 83.4914 51.0407 83.0217 51.8784C82.7145 52.3948 82.2208 52.7734 81.6424 52.9362L81.8243 49.3018L84.7141 45.8916Z" fill="#263238"/>
<path d="M83.5165 38.4705C83.9063 38.4302 84.3001 38.4806 84.6671 38.6179C85.0341 38.7551 85.3644 38.9755 85.632 39.2617C86.5163 40.2137 85.9409 43.0992 84.7435 45.9128L82.6619 46.1032L83.5165 38.4705Z" fill="#263238"/>
<path d="M82.0103 46.0866C82.4334 46.3447 83.0342 45.5578 83.5589 45.0331C84.0835 44.5085 85.2557 43.7046 86.0511 45.4816C86.4742 47.5971 85.4672 48.9383 84.1471 49.3191C81.8582 49.9792 81.8115 49.3191 81.8115 49.3191L81.4222 58.5934C79.8017 60.5693 76.345 60.032 74.4622 59.647C72.9518 59.3423 72.5625 58.9192 74.0391 57.2776L74.1068 54.6205C69.9999 54.5002 68.376 51.5002 67.9999 50.0002C67.3018 47.2162 67.0242 45.3589 67.7223 40.2733C68.5685 34.0241 75.9135 34.1383 79.7848 36.7066C83.6562 39.2748 82.0103 46.0866 82.0103 46.0866Z" fill="#ECB17D"/>
<path d="M76.0574 50.4059C75.3444 50.9753 73.1362 50.7973 72.1213 50.6371C72.3979 51.0956 73.2126 52.008 74.2577 51.9888C75.3027 51.9696 75.893 50.9255 76.0574 50.4059Z" fill="white"/>
<path fill-rule="evenodd" clip-rule="evenodd" d="M71.6323 45.0247C71.5168 45.0105 71.4115 45.0919 71.3972 45.2064L71.0863 47.6859C71.0495 47.9791 71.1687 48.2701 71.4011 48.4547L72.0436 48.9649C72.1344 49.037 72.267 49.0224 72.3398 48.9322C72.4125 48.8421 72.3979 48.7106 72.307 48.6384L71.6645 48.1282C71.5463 48.0344 71.4857 47.8864 71.5044 47.7373L71.8153 45.2578C71.8297 45.1432 71.7477 45.0389 71.6323 45.0247Z" fill="#D39660"/>
<path d="M81.9977 46.7676C82.205 46.7676 83.03 45.4983 83.5589 45.016C84.2951 44.394 83.5166 38.4707 83.5166 38.4707C83.7754 37.9559 83.8734 37.3753 83.7979 36.8041C83.7225 36.233 83.477 35.6977 83.0935 35.2678C82.1331 34.1635 80.7961 32.8096 76.3239 33.2327C73.138 33.5289 69.6559 34.4385 66.8931 33C66.6164 33.9032 66.6147 34.8682 66.8882 35.7724C67.1617 36.6765 67.698 37.4788 68.4289 38.0772C68.4289 38.0772 69.4232 38.7499 72.076 39.1392C74.7288 39.5284 78.8837 39.2407 79.4506 39.1772C80.2249 39.0884 80.373 39.8415 80.7411 41.8935C81.0626 43.6917 81.2911 46.738 81.9977 46.7676Z" fill="#263238"/>
<path d="M74.1238 54.6033C74.1238 54.6033 77.8724 53.939 79.2009 53.279C79.975 52.8956 80.6173 52.2902 81.0457 51.54C80.8305 52.2976 80.465 53.0041 79.971 53.6175C78.9852 54.8148 74.1068 55.6695 74.1068 55.6695L74.1238 54.6033Z" fill="#D39660"/>
<path d="M74.4624 59.6255C76.5356 59.2024 81.0755 57.9331 81.5493 55.5214L81.6128 54.2056C82.4167 54.2056 82.7848 55.1068 83.1825 56.393C83.3475 59.7778 79.7723 62.8749 76.1802 63.7084C76.1802 63.7084 76.2733 61.9483 75.664 61.0301C75.3357 60.5046 74.9307 60.0312 74.4624 59.6255Z" fill="#EEEEEF"/>
<path d="M74.1155 54.9717C73.5724 55.134 73.0762 55.4242 72.6685 55.8179C69.9776 58.6019 71.5134 62.249 71.5134 62.249C71.5134 62.249 71.6319 60.6539 72.4146 60.1335C73.038 59.7804 73.7462 59.6048 74.4624 59.6258C73.8024 58.9234 73.7008 58.3565 74.0393 57.2564L74.1155 54.9717Z" fill="#EEEEEF"/>
<path d="M57.4795 89.9402C58.0565 89.8319 59.1103 89.6687 59.8067 89.5912C61.8028 89.3694 64.404 89.1444 64.404 89.1444L63.6161 82.8377L59.8449 83.4785C58.6826 83.6763 57.4954 83.6789 56.3322 83.4862C54.7983 83.2599 53.4465 82.2288 51.8942 82.2696C51.0949 82.2906 50.6388 82.8147 50.1816 83.4532C49.8666 83.8335 49.5828 84.2387 49.3331 84.6648C48.241 86.5939 46.5974 89.1173 45.9557 89.5024C45.2013 89.9454 44.7558 89.7413 44.7558 89.7413C43.9274 91.2359 47.0472 91.5772 48.3971 91.8888C49.8457 92.1786 51.343 92.1117 52.7599 91.6937C53.8336 91.3226 56.9025 90.0484 57.4795 89.9402Z" fill="#ECB17D"/>
<path d="M87.8858 57.9703C89.4685 58.1984 90.9737 58.8021 92.2754 59.7309C94.2083 61.1423 94.7307 63.9427 94.331 66.8998C93.9314 69.8568 88.617 83.6132 87.8438 85.7121C86.8344 88.4387 86.0109 88.5671 83.6781 89.2049C80.7612 90.0238 60.5793 89.4399 60.5793 89.4399C59.5064 89.3973 58.1347 84.28 59.0276 83.1687L79.8883 81.844L84.0661 67.0873C84.0661 67.0873 84.5536 58.9823 87.8858 57.9703Z" fill="#EEEEEF"/>
<path d="M44.4411 83.498C45.6554 83.8046 46.5802 83.3994 47.905 82.9202C49.2971 82.4223 49.638 82.3498 50.7212 82.66C51.7277 82.9509 52.8842 83.1491 53.31 83.7304C53.4374 83.9091 53.8761 85.1419 54.2176 86.0556C54.2042 86.513 53.1172 86.7024 52.6218 86.051C52.184 85.4953 52.0991 85.1632 51.9118 84.9607C51.1854 84.9153 50.4565 84.9345 49.7335 85.018L44.7887 87.3827L44.4411 83.498Z" fill="#FFDAB8"/>
<path d="M56.4555 90.7605C56.2839 90.5333 56.0597 90.3512 55.8022 90.2297C55.5447 90.1082 55.2615 90.0509 54.977 90.0629C54.3473 90.0549 53.7182 90.104 53.0974 90.2097C52.5367 90.2921 51.971 90.3493 51.4103 90.4318C51.1237 90.4774 50.8413 90.5229 50.5678 90.5851C50.3826 90.6239 50.1492 90.7612 50.1552 90.9896C49.9189 90.8943 49.6687 90.838 49.4144 90.8228C49.2874 90.8151 49.1601 90.8326 49.0399 90.8742C48.9197 90.9159 48.8089 90.9809 48.7139 91.0656C48.3011 91.4616 48.6085 92.046 48.8891 92.4154C49.1936 92.8631 49.6551 93.1802 50.1822 93.304C51.163 93.421 52.1573 93.346 53.1095 93.0832C54.0462 92.8131 57.3764 91.659 56.4555 90.7605Z" fill="#FFDAB8"/>
<path fill-rule="evenodd" clip-rule="evenodd" d="M65 23.5C65 31.5088 58.5088 38 50.5 38C42.4912 38 36 31.5088 36 23.5C36 15.4912 42.4912 9 50.5 9C58.5088 9 65 15.4912 65 23.5Z" fill="#00AB4E"/>
<path fill-rule="evenodd" clip-rule="evenodd" d="M40.5313 24.9309C40.5311 24.8685 40.5403 24.8059 40.5594 24.7445L40.6064 24.6323L44.1667 17.9547L44.2354 17.8498L44.3188 17.7627L44.4032 17.6917C44.6701 17.476 45.1218 17.2144 45.7852 16.9655C46.9844 16.5157 48.5426 16.25 50.5 16.25C52.4574 16.25 54.0156 16.5157 55.2148 16.9655C55.8783 17.2144 56.3299 17.476 56.5968 17.6917L56.6649 17.7486C56.701 17.7783 56.7345 17.812 56.7646 17.8498L56.8333 17.9547L60.3936 24.6323C60.4277 24.6962 60.4498 24.7628 60.4607 24.8299L60.4688 24.9309C60.4688 27.1439 58.5562 28.9375 56.1964 28.9375C53.9393 28.9375 52.0913 27.2965 51.9348 25.2172L51.9241 24.9309C51.9239 24.8685 51.9332 24.8059 51.9523 24.7445L51.9993 24.6323L55.2885 18.4678L55.0211 18.3413C54.9208 18.2973 54.8092 18.2518 54.6859 18.2055C53.6599 17.8206 52.2809 17.5855 50.5 17.5855C48.7191 17.5855 47.3401 17.8206 46.3141 18.2055C46.0674 18.2981 45.8678 18.3876 45.7115 18.4678L49.0007 24.6323C49.0348 24.6962 49.0569 24.7628 49.0679 24.8299L49.0759 24.9309C49.0759 27.1439 47.1633 28.9375 44.8036 28.9375C42.5465 28.9375 40.6985 27.2965 40.542 25.2172L40.5313 24.9309ZM44.8036 19.7464L42.0394 24.9296H47.5663L44.8036 19.7464ZM56.1964 19.7464L53.4322 24.9296H58.9592L56.1964 19.7464Z" fill="white"/>
<path fill-rule="evenodd" clip-rule="evenodd" d="M26.1109 24.2307L25.092 26.0929L23.2307 27.1109C22.9231 27.2794 22.9231 27.7206 23.2307 27.8891L25.092 28.9071L26.1109 30.7693C26.2785 31.0769 26.7206 31.0769 26.8882 30.7693L27.9071 28.9071L29.7693 27.8891C30.0769 27.7206 30.0769 27.2794 29.7693 27.1109L27.9071 26.0929L26.8882 24.2307C26.7206 23.9231 26.2785 23.9231 26.1109 24.2307Z" fill="#FFC54F"/>
<path fill-rule="evenodd" clip-rule="evenodd" d="M71.6665 11.1977L70.7931 12.7939L69.1977 13.6665C68.9341 13.8109 68.9341 14.1891 69.1977 14.3335L70.7931 15.2061L71.6665 16.8023C71.8101 17.0659 72.1891 17.0659 72.3328 16.8023L73.2061 15.2061L74.8023 14.3335C75.0659 14.1891 75.0659 13.8109 74.8023 13.6665L73.2061 12.7939L72.3328 11.1977C72.1891 10.9341 71.8101 10.9341 71.6665 11.1977Z" fill="#FFD37B"/>
<path fill-rule="evenodd" clip-rule="evenodd" d="M58.2221 44.1648L57.4943 45.4949L56.1648 46.2221C55.9451 46.3424 55.9451 46.6576 56.1648 46.7779L57.4943 47.5051L58.2221 48.8352C58.3418 49.0549 58.6576 49.0549 58.7773 48.8352L59.5051 47.5051L60.8352 46.7779C61.0549 46.6576 61.0549 46.3424 60.8352 46.2221L59.5051 45.4949L58.7773 44.1648C58.6576 43.9451 58.3418 43.9451 58.2221 44.1648Z" fill="#FFD37B"/>
</g>
</svg>
