<svg width="328" height="164" viewBox="0 0 328 164" fill="none" xmlns="http://www.w3.org/2000/svg">
<path fill-rule="evenodd" clip-rule="evenodd" d="M23.2189 161.504C33.6809 163.667 265.053 165.826 301.876 161.504C312.777 160.224 321.503 148.276 322.776 146.203C330.736 133.238 327.751 53.2794 325.761 26.266C324.69 11.7278 309.838 5.19571 302.871 3.03482C289.548 -1.09779 53.2799 -1.26366 22.2229 4.11573C8.32787 6.52168 3.29087 17.8712 2.29087 24.1796C-0.0421274 38.8847 -1.42113 129.331 2.31887 141.514C5.30487 151.239 12.7689 159.343 23.2189 161.504Z" fill="#EDFFF5"/>
<mask id="mask0_5567_154440" style="mask-type:alpha" maskUnits="userSpaceOnUse" x="0" y="0" width="328" height="164">
<path fill-rule="evenodd" clip-rule="evenodd" d="M23.2189 161.504C33.6809 163.667 265.053 165.826 301.876 161.504C312.777 160.224 321.503 148.276 322.776 146.203C330.736 133.238 327.751 53.2794 325.761 26.266C324.69 11.7278 309.838 5.19571 302.871 3.03482C289.548 -1.09779 53.2799 -1.26366 22.2229 4.11573C8.32787 6.52168 3.29087 17.8712 2.29087 24.1796C-0.0421274 38.8847 -1.42113 129.331 2.31887 141.514C5.30487 151.239 12.7689 159.343 23.2189 161.504Z" fill="white"/>
</mask>
<g mask="url(#mask0_5567_154440)">
<path fill-rule="evenodd" clip-rule="evenodd" d="M311.109 120.643H246.09C243.204 120.643 240.843 118.313 240.843 115.464V61.5955C240.843 58.7467 243.204 56.4163 246.09 56.4163H311.109C313.996 56.4163 316.357 58.7467 316.357 61.5955V115.464C316.357 118.313 313.996 120.643 311.109 120.643Z" fill="#C6EED5"/>
<path fill-rule="evenodd" clip-rule="evenodd" d="M306.104 87.0447H250.699C249.192 87.0447 247.959 85.8279 247.959 84.3405V68.0307C247.959 66.5433 249.192 65.3259 250.699 65.3259H306.104C307.612 65.3259 308.845 66.5433 308.845 68.0307V84.3405C308.845 85.8279 307.612 87.0447 306.104 87.0447Z" fill="#EAFFF2"/>
<path fill-rule="evenodd" clip-rule="evenodd" d="M306.104 111.919H250.699C249.192 111.919 247.959 110.702 247.959 109.214V92.9046C247.959 91.4172 249.192 90.2004 250.699 90.2004H306.104C307.612 90.2004 308.845 91.4172 308.845 92.9046V109.214C308.845 110.702 307.612 111.919 306.104 111.919Z" fill="#EAFFF2"/>
<path fill-rule="evenodd" clip-rule="evenodd" d="M262.315 46.6874C262.315 46.6874 259.557 39.5114 267.331 32.4644C267.331 32.4644 271.768 39.6914 262.315 46.6874Z" fill="#C6EED5"/>
<path fill-rule="evenodd" clip-rule="evenodd" d="M262.731 48.5935C262.731 48.5935 255.257 46.4743 254.194 36.1111C254.194 36.1111 262.716 36.9325 262.731 48.5935Z" fill="#C6EED5"/>
<path fill-rule="evenodd" clip-rule="evenodd" d="M267.642 46.3538H254.722V52.0364C254.722 54.6338 256.855 56.7392 259.486 56.7392H262.877C265.509 56.7392 267.642 54.6338 267.642 52.0364V46.3538Z" fill="#DAF6E5"/>
<path fill-rule="evenodd" clip-rule="evenodd" d="M258.991 46.3537L257.984 45.4663L262.546 45.7993L262.629 46.3537H258.991Z" fill="#EAFFF2"/>
<path fill-rule="evenodd" clip-rule="evenodd" d="M281.342 77.2898C281.342 78.8918 280.025 80.1902 278.402 80.1902C276.779 80.1902 275.463 78.8918 275.463 77.2898C275.463 75.6878 276.779 74.3894 278.402 74.3894C280.025 74.3894 281.342 75.6878 281.342 77.2898Z" fill="#DAF6E5"/>
<path fill-rule="evenodd" clip-rule="evenodd" d="M281.539 100.94C281.539 102.542 280.223 103.84 278.6 103.84C276.976 103.84 275.661 102.542 275.661 100.94C275.661 99.338 276.976 98.0396 278.6 98.0396C280.223 98.0396 281.539 99.338 281.539 100.94Z" fill="#DAF6E5"/>
<path fill-rule="evenodd" clip-rule="evenodd" d="M301.435 56.9861H285.609C283.111 56.9861 281.086 54.9881 281.086 52.5239H305.957C305.957 54.9881 303.932 56.9861 301.435 56.9861Z" fill="#DAF6E5"/>
<rect x="-10" y="104" width="353" height="65" fill="#BBF0D3"/>
<mask id="mask1_5567_154440" style="mask-type:alpha" maskUnits="userSpaceOnUse" x="257" y="45" width="6" height="2">
<path fill-rule="evenodd" clip-rule="evenodd" d="M258.749 46.3537H262.34L262.258 45.7987L257.756 45.4663L258.749 46.3537Z" fill="white"/>
</mask>
<g mask="url(#mask1_5567_154440)">
<path fill-rule="evenodd" clip-rule="evenodd" d="M253.78 56.9546H268.487V32.4434H253.78V56.9546Z" fill="#EAFFF2"/>
<path fill-rule="evenodd" clip-rule="evenodd" d="M254.255 49.8552H265.842V41.9646H254.255V49.8552Z" fill="#EAFFF2"/>
</g>
<path fill-rule="evenodd" clip-rule="evenodd" d="M198.966 126.939H116.369C115.062 126.939 113.972 125.831 113.871 124.401L108.176 44.6013H110.906L128.033 112.733C128.335 113.928 129.323 114.756 130.45 114.756H200.807L201.464 123.969C201.578 125.571 200.426 126.939 198.966 126.939Z" fill="#84D7CC"/>
<path fill-rule="evenodd" clip-rule="evenodd" d="M201.382 122.826H128.364C124.991 122.826 122.012 120.331 121.115 116.762L110.239 73.4875L108.176 44.5981H110.906L128.033 112.733C128.335 113.928 129.323 114.756 130.45 114.756H200.807L201.382 122.826Z" fill="#47A99C"/>
<path fill-rule="evenodd" clip-rule="evenodd" d="M109.332 58.6981L105.643 120.443L103.719 119.202L96.608 118.214C95.1524 118.01 94.1642 116.482 94.4732 114.905L108.176 44.6011L109.332 58.6981Z" fill="#84D7CC"/>
<path fill-rule="evenodd" clip-rule="evenodd" d="M108.175 44.5999L114.886 126.402L103.717 119.203L108.175 44.5999Z" fill="#47A99C"/>
<path fill-rule="evenodd" clip-rule="evenodd" d="M214.705 117.318H128.365C127.235 117.318 126.247 116.49 125.948 115.298L112.361 61.2498H203.902L217.121 113.83C217.561 115.583 216.36 117.318 214.705 117.318Z" fill="#E9F5FF"/>
<path fill-rule="evenodd" clip-rule="evenodd" d="M217.12 113.831L200.225 46.6207C199.925 45.4267 198.936 44.5999 197.809 44.5999H108.175L125.947 115.297C126.247 116.491 127.236 117.318 128.363 117.318H214.705C216.36 117.318 217.561 115.585 217.12 113.831Z" fill="#E8FFFC"/>
<path fill-rule="evenodd" clip-rule="evenodd" d="M214.704 117.318H205.52C207.176 117.318 208.377 115.583 207.937 113.83L194.718 61.2498H203.902L217.12 113.83C217.56 115.583 216.36 117.318 214.704 117.318Z" fill="#84D7CC"/>
<path fill-rule="evenodd" clip-rule="evenodd" d="M204.244 62.608L200.225 46.6204C199.925 45.4264 198.936 44.5996 197.809 44.5996H108.175L112.702 62.608H204.244Z" fill="#117367"/>
<path fill-rule="evenodd" clip-rule="evenodd" d="M191.042 46.6205L195.06 62.6081H204.245L200.226 46.6205C199.925 45.4283 198.938 44.5991 197.81 44.5991H188.625C189.753 44.5991 190.741 45.4283 191.042 46.6205Z" fill="#004D43"/>
<path fill-rule="evenodd" clip-rule="evenodd" d="M188.972 38.4431C187.134 38.4431 185.482 39.2573 184.357 40.5431C183.232 39.2573 181.581 38.4431 179.743 38.4431C177.904 38.4431 176.253 39.2573 175.128 40.5431C174.003 39.2573 172.352 38.4431 170.514 38.4431C168.675 38.4431 167.024 39.2573 165.899 40.5431C164.773 39.2573 163.123 38.4431 161.284 38.4431C159.446 38.4431 157.795 39.2573 156.67 40.5431C155.545 39.2573 153.894 38.4431 152.055 38.4431C150.217 38.4431 148.566 39.2573 147.441 40.5431C146.315 39.2573 144.664 38.4431 142.826 38.4431C140.987 38.4431 139.336 39.2573 138.211 40.5431C137.086 39.2573 135.435 38.4431 133.597 38.4431C131.758 38.4431 130.107 39.2573 128.982 40.5431C127.857 39.2573 126.206 38.4431 124.367 38.4431C120.985 38.4431 118.234 41.1947 118.234 44.5769C118.234 45.4163 118.914 46.0961 119.752 46.0961C120.592 46.0961 121.272 45.4163 121.272 44.5769C121.272 42.8699 122.66 41.4815 124.367 41.4815C126.074 41.4815 127.462 42.8699 127.462 44.5769C127.462 46.2839 126.074 47.6723 124.367 47.6723C123.528 47.6723 122.848 48.3527 122.848 49.1915C122.848 50.0303 123.528 50.7107 124.367 50.7107C127.749 50.7107 130.501 47.9585 130.501 44.5769C130.501 42.8699 131.889 41.4815 133.596 41.4815C135.303 41.4815 136.692 42.8699 136.692 44.5769C136.692 46.2833 135.303 47.6717 133.596 47.6717C132.757 47.6717 132.077 48.3521 132.077 49.1915C132.077 50.0303 132.757 50.7101 133.596 50.7101C136.978 50.7101 139.73 47.9585 139.73 44.5769C139.73 42.8699 141.118 41.4809 142.825 41.4809C144.532 41.4809 145.921 42.8699 145.921 44.5769C145.921 46.2833 144.532 47.6717 142.825 47.6717C141.986 47.6717 141.306 48.3521 141.306 49.1909C141.306 50.0303 141.986 50.7101 142.825 50.7101C146.208 50.7101 148.959 47.9585 148.959 44.5763C148.959 42.8693 150.348 41.4809 152.054 41.4809C153.761 41.4809 155.149 42.8693 155.149 44.5763C155.149 46.2833 153.761 47.6717 152.054 47.6717C151.215 47.6717 150.535 48.3521 150.535 49.1909C150.535 50.0303 151.215 50.7101 152.054 50.7101C155.436 50.7101 158.188 47.9579 158.188 44.5763C158.188 42.8693 159.576 41.4809 161.283 41.4809C162.99 41.4809 164.379 42.8693 164.379 44.5763C164.379 46.2827 162.99 47.6711 161.283 47.6711C160.444 47.6711 159.764 48.3515 159.764 49.1909C159.764 50.0297 160.444 50.7095 161.283 50.7095C164.665 50.7095 167.417 47.9579 167.417 44.5757C167.417 42.8693 168.805 41.4803 170.512 41.4803C172.219 41.4803 173.608 42.8693 173.608 44.5757C173.608 46.2827 172.219 47.6711 170.512 47.6711C169.673 47.6711 168.993 48.3515 168.993 49.1903C168.993 50.0297 169.673 50.7095 170.512 50.7095C173.895 50.7095 176.646 47.9579 176.646 44.5757C176.646 42.8687 178.035 41.4803 179.742 41.4803C181.448 41.4803 182.836 42.8687 182.836 44.5757C182.836 46.2827 181.448 47.6711 179.742 47.6711C178.902 47.6711 178.222 48.3509 178.222 49.1903C178.222 50.0297 178.902 50.7095 179.742 50.7095C183.124 50.7095 185.875 47.9573 185.875 44.5757C185.875 42.8687 187.264 41.4803 188.971 41.4803C190.677 41.4803 192.066 42.8687 192.066 44.5757C192.066 46.2821 190.677 47.6705 188.971 47.6705C188.131 47.6705 187.451 48.3509 187.451 49.1903C187.451 50.0291 188.131 50.7089 188.971 50.7089C192.353 50.7089 195.105 47.9573 195.105 44.5751C195.105 41.1929 192.354 38.4431 188.972 38.4431Z" fill="#BBF0D3"/>
<path fill-rule="evenodd" clip-rule="evenodd" d="M122.982 44.5039C122.77 45.9025 121.564 46.9717 120.109 46.9717C118.654 46.9717 117.449 45.9019 117.238 44.5039H122.982Z" fill="#117367"/>
<path fill-rule="evenodd" clip-rule="evenodd" d="M146.406 85.067L142.9 74.1362C142.534 72.9962 141.474 72.2234 140.278 72.2234H132.206C130.34 72.2234 129.014 74.0414 129.584 75.818L133.09 86.7494C133.456 87.8894 134.516 88.6622 135.713 88.6622H143.783C145.65 88.6622 146.976 86.8448 146.406 85.067Z" fill="#84D7CC"/>
<path fill-rule="evenodd" clip-rule="evenodd" d="M157 75.0855H153.242C152.117 75.0855 151.206 74.1741 151.206 73.0497C151.206 71.9247 152.117 71.0139 153.242 71.0139H157C158.125 71.0139 159.036 71.9253 159.036 73.0497C159.037 74.1741 158.125 75.0855 157 75.0855Z" fill="#FFD8D9"/>
<path fill-rule="evenodd" clip-rule="evenodd" d="M169.71 75.0855H165.952C164.827 75.0855 163.916 74.1741 163.916 73.0497C163.916 71.9247 164.827 71.0139 165.952 71.0139H169.71C170.835 71.0139 171.746 71.9253 171.746 73.0497C171.746 74.1741 170.835 75.0855 169.71 75.0855Z" fill="#BBF0D3"/>
<path fill-rule="evenodd" clip-rule="evenodd" d="M182.42 75.0855H178.661C177.537 75.0855 176.625 74.1741 176.625 73.0497C176.625 71.9247 177.537 71.0139 178.661 71.0139H182.42C183.544 71.0139 184.455 71.9253 184.455 73.0497C184.455 74.1741 183.544 75.0855 182.42 75.0855Z" fill="#BBF0D3"/>
<path fill-rule="evenodd" clip-rule="evenodd" d="M195.13 75.0855H191.371C190.247 75.0855 189.335 74.1741 189.335 73.0497C189.335 71.9247 190.247 71.0139 191.371 71.0139H195.13C196.254 71.0139 197.165 71.9253 197.165 73.0497C197.166 74.1741 196.254 75.0855 195.13 75.0855Z" fill="#BBF0D3"/>
<path fill-rule="evenodd" clip-rule="evenodd" d="M159.706 86.1852H155.948C154.824 86.1852 153.912 85.2732 153.912 84.1494C153.912 83.025 154.824 82.113 155.948 82.113H159.706C160.831 82.113 161.742 83.025 161.742 84.1494C161.742 85.2732 160.831 86.1852 159.706 86.1852Z" fill="#FFD8D9"/>
<path fill-rule="evenodd" clip-rule="evenodd" d="M185.125 86.1852H181.366C180.242 86.1852 179.331 85.2732 179.331 84.1494C179.331 83.025 180.242 82.113 181.366 82.113H185.125C186.249 82.113 187.161 83.025 187.161 84.1494C187.161 85.2732 186.249 86.1852 185.125 86.1852Z" fill="#BBF0D3"/>
<path fill-rule="evenodd" clip-rule="evenodd" d="M198.037 86.1852H194.278C193.154 86.1852 192.243 85.2732 192.243 84.1494C192.243 83.025 193.154 82.113 194.278 82.113H198.037C199.161 82.113 200.073 83.025 200.073 84.1494C200.073 85.2732 199.161 86.1852 198.037 86.1852Z" fill="#BBF0D3"/>
<path fill-rule="evenodd" clip-rule="evenodd" d="M162.411 97.285H158.652C157.528 97.285 156.617 96.3736 156.617 95.2492C156.617 94.1248 157.528 93.2134 158.652 93.2134H162.411C163.535 93.2134 164.447 94.1248 164.447 95.2492C164.447 96.3736 163.535 97.285 162.411 97.285Z" fill="#FFD8D9"/>
<path fill-rule="evenodd" clip-rule="evenodd" d="M175.121 97.285H171.362C170.238 97.285 169.327 96.3736 169.327 95.2492C169.327 94.1248 170.238 93.2134 171.362 93.2134H175.121C176.245 93.2134 177.157 94.1248 177.157 95.2492C177.157 96.3736 176.245 97.285 175.121 97.285Z" fill="#BBF0D3"/>
<path fill-rule="evenodd" clip-rule="evenodd" d="M187.83 97.285H184.072C182.948 97.285 182.036 96.3736 182.036 95.2492C182.036 94.1248 182.948 93.2134 184.072 93.2134H187.83C188.955 93.2134 189.866 94.1248 189.866 95.2492C189.866 96.3736 188.955 97.285 187.83 97.285Z" fill="#BBF0D3"/>
<path fill-rule="evenodd" clip-rule="evenodd" d="M200.54 97.285H196.781C195.657 97.285 194.746 96.3736 194.746 95.2492C194.746 94.1248 195.657 93.2134 196.781 93.2134H200.54C201.664 93.2134 202.576 94.1248 202.576 95.2492C202.576 96.3736 201.665 97.285 200.54 97.285Z" fill="#C5D553"/>
<path fill-rule="evenodd" clip-rule="evenodd" d="M164.29 108.385H160.532C159.407 108.385 158.496 107.473 158.496 106.349C158.496 105.225 159.407 104.313 160.532 104.313H164.29C165.415 104.313 166.327 105.225 166.327 106.349C166.327 107.473 165.415 108.385 164.29 108.385Z" fill="#FFD8D9"/>
<path fill-rule="evenodd" clip-rule="evenodd" d="M177 108.385H173.241C172.117 108.385 171.206 107.473 171.206 106.349C171.206 105.225 172.117 104.313 173.241 104.313H177C178.124 104.313 179.036 105.225 179.036 106.349C179.036 107.473 178.124 108.385 177 108.385Z" fill="#BBF0D3"/>
<path fill-rule="evenodd" clip-rule="evenodd" d="M189.71 108.385H185.951C184.827 108.385 183.916 107.473 183.916 106.349C183.916 105.225 184.827 104.313 185.951 104.313H189.71C190.834 104.313 191.746 105.225 191.746 106.349C191.746 107.473 190.834 108.385 189.71 108.385Z" fill="#BBF0D3"/>
<path fill-rule="evenodd" clip-rule="evenodd" d="M202.419 108.385H198.661C197.536 108.385 196.625 107.473 196.625 106.349C196.625 105.225 197.536 104.313 198.661 104.313H202.419C203.544 104.313 204.455 105.225 204.455 106.349C204.455 107.473 203.544 108.385 202.419 108.385Z" fill="#C5D553"/>
<path fill-rule="evenodd" clip-rule="evenodd" d="M141.37 108.561C140.477 108.561 139.658 107.969 139.408 107.066L136.897 97.9726C136.597 96.8884 137.233 95.767 138.318 95.4676C139.401 95.1682 140.523 95.8042 140.822 96.8878L143.334 105.982C143.633 107.066 142.997 108.187 141.913 108.486C141.732 108.537 141.55 108.561 141.37 108.561Z" fill="#BBF0D3"/>
<path fill-rule="evenodd" clip-rule="evenodd" d="M148.298 108.561C147.405 108.561 146.586 107.969 146.337 107.066L145.081 102.519C144.781 101.435 145.417 100.314 146.501 100.014C147.585 99.7138 148.707 100.351 149.006 101.435L150.262 105.982C150.561 107.066 149.925 108.187 148.841 108.486C148.66 108.537 148.477 108.561 148.298 108.561Z" fill="#BBF0D3"/>
<path fill-rule="evenodd" clip-rule="evenodd" d="M57.5591 144.193C57.5591 144.193 105.701 124.424 109.31 123.649C111.61 123.155 143.369 106.43 148.01 108.266C150.353 109.193 151.497 110.137 152.055 110.843C152.619 111.558 153.399 112.061 154.289 112.252C155.439 112.498 156.929 112.979 157.961 113.906C158.886 114.739 159.914 115.459 161.084 115.881C162.851 116.518 165.153 117.878 165.619 120.691C165.908 122.437 166.561 124.1 167.387 125.665C168.569 127.906 170 130.6 170.414 131.302C170.414 131.302 178.151 140.968 169.128 142.904L166.062 142.564C165.487 142.5 164.984 142.979 165.046 143.554C165.199 144.985 164.817 147.437 160.977 148.9C158.052 150.014 154.767 151.206 152.271 152.099C149.662 153.032 146.884 153.388 144.123 153.142L135.403 152.366C131.795 152.044 128.305 150.998 125.026 149.458C123.164 148.583 120.387 147.921 116.535 148.526C108.318 149.818 66.0437 174.935 66.0437 174.935L57.5591 144.193Z" fill="#FFD5B3"/>
<path fill-rule="evenodd" clip-rule="evenodd" d="M146.915 146.747C150.731 144.759 158.232 141.54 165.908 142.113C166.04 142.123 166.15 142.22 166.178 142.349L166.5 143.85C166.547 144.071 166.343 144.259 166.127 144.196C164.729 143.791 159.962 143.192 147.145 147.291C146.8 147.4 146.594 146.914 146.915 146.747Z" fill="#FFAF8B"/>
<path d="M147.27 113.615C147.27 113.615 152.039 111.649 154.037 112.163" stroke="#FFAF8B" stroke-width="0.9228" stroke-linecap="round" stroke-linejoin="round"/>
<path d="M154.748 117.674C154.748 117.674 159.517 115.706 161.515 116.222" stroke="#FFAF8B" stroke-width="0.9228" stroke-linecap="round" stroke-linejoin="round"/>
<path d="M160.229 127.824C160.229 127.824 164.998 125.856 166.997 126.372" stroke="#FFAF8B" stroke-width="0.9228" stroke-linecap="round" stroke-linejoin="round"/>
<path fill-rule="evenodd" clip-rule="evenodd" d="M183.317 83.2733C172.45 80.5565 180.212 87.1547 180.212 87.1547L196.793 96.3269L205.916 94.5725L183.317 83.2733Z" fill="#135388"/>
<path fill-rule="evenodd" clip-rule="evenodd" d="M218.673 112.548C216.021 112.82 213.449 111.537 211.934 109.344C209.473 105.782 204.016 98.2331 200.784 96.4703C200.784 96.4703 207.382 95.6939 214.757 94.1411C214.757 94.1411 219.802 99.1871 226.012 99.1871C226.012 99.1871 226.401 101.904 228.73 105.785C228.73 105.785 224.382 111.964 218.673 112.548ZM273.754 143.823L272.007 144.017C272.007 144.017 253.765 131.597 252.988 122.281C252.416 115.415 251.634 101.592 251.261 94.7969C251.129 92.3879 249.596 90.2837 247.344 89.4179L223.438 80.2229C221.705 79.5563 219.807 79.4519 218.011 79.9241L193.151 86.4665C192.206 86.7155 191.835 87.8639 192.464 88.6127C193.077 89.3429 193.846 90.0779 194.573 90.2597L192.251 92.1173C191.122 93.0209 191.135 94.7777 192.319 95.6081C192.631 95.8265 192.994 95.9987 193.409 96.0821C193.409 96.0821 191.469 97.6343 193.409 101.127C194.946 103.893 197.455 106.902 199.204 110.346C200.39 112.682 201.807 114.89 203.362 116.998C205.133 119.399 207.34 122.592 208.935 125.58C212.04 131.402 227.565 140.718 235.716 144.211C243.867 147.704 261.333 168.663 261.333 168.663H275.694L273.754 143.823Z" fill="#FFD5B3"/>
<path d="M244.643 92.9767C244.643 92.9767 232.829 89.6011 219.903 84.1093C218.057 83.3251 215.989 83.2375 214.08 83.8513L195.35 89.8717" stroke="#FFAF8B" stroke-width="0.7764" stroke-linecap="round" stroke-linejoin="round"/>
<path fill-rule="evenodd" clip-rule="evenodd" d="M193.021 94.9173L206.606 103.456V101.128L194.185 94.5291L193.021 94.9173Z" fill="#FFAF8B"/>
<path d="M214.757 94.1412C214.757 94.1412 212.816 92.2002 213.592 90.2598" stroke="#FFAF8B" stroke-width="0.7764" stroke-linecap="round" stroke-linejoin="round"/>
<path d="M228.73 105.785C228.73 105.785 228.341 101.516 228.73 100.351" stroke="#FFAF8B" stroke-width="0.7764" stroke-linecap="round" stroke-linejoin="round"/>
<path fill-rule="evenodd" clip-rule="evenodd" d="M238.433 110.831L205.915 94.5723L196.793 96.3267L234.94 117.429C242.314 117.041 238.433 110.831 238.433 110.831Z" fill="#135388"/>
<path fill-rule="evenodd" clip-rule="evenodd" d="M208.158 95.3054L207.382 93.7532L191.469 94.529C191.469 94.529 191.469 98.7986 208.158 95.3054Z" fill="#FFD5B3"/>
<path fill-rule="evenodd" clip-rule="evenodd" d="M94.3538 127.843L101.132 125.162C102.319 124.693 103.674 125.116 104.383 126.178L110.179 134.866C110.375 135.158 110.511 135.487 110.581 135.833L113.163 148.612C113.41 149.839 112.785 151.077 111.65 151.605L105.472 154.48C104.231 155.058 102.754 154.619 102.03 153.458L95.675 143.275C95.5154 143.019 95.399 142.739 95.3318 142.444L92.7086 130.967C92.4104 129.662 93.1088 128.335 94.3538 127.843Z" fill="#00AB4E"/>
<path fill-rule="evenodd" clip-rule="evenodd" d="M98.8973 128.806C104.999 126.567 111.761 129.699 113.999 135.801C116.239 141.903 113.107 148.664 107.005 150.903C100.903 153.142 94.1417 150.01 91.9025 143.908C89.6639 137.806 92.7953 131.045 98.8973 128.806Z" fill="#FFC54F"/>
<path fill-rule="evenodd" clip-rule="evenodd" d="M98.8971 128.806C98.6997 128.879 98.5059 128.956 98.3145 129.037C104.256 127.205 110.657 130.328 112.824 136.232C114.99 142.137 112.128 148.659 106.411 151.103C106.609 151.042 106.807 150.975 107.005 150.903C113.107 148.664 116.238 141.903 113.999 135.801C111.76 129.699 104.998 126.567 98.8971 128.806Z" fill="#E49542"/>
<path fill-rule="evenodd" clip-rule="evenodd" d="M99.7921 131.245C104.547 129.5 109.816 131.941 111.56 136.696C113.305 141.451 110.865 146.72 106.11 148.464C101.355 150.209 96.0865 147.769 94.3417 143.014C92.5969 138.259 95.0371 132.99 99.7921 131.245Z" fill="#F4FBFF"/>
<path fill-rule="evenodd" clip-rule="evenodd" d="M99.7919 131.245C99.5537 131.333 99.3209 131.429 99.0947 131.534C103.651 130.271 108.487 132.699 110.144 137.215C111.802 141.732 109.682 146.711 105.391 148.695C105.632 148.628 105.871 148.552 106.11 148.464C110.865 146.72 113.305 141.451 111.56 136.696C109.816 131.941 104.547 129.5 99.7919 131.245Z" fill="#DAF1F4"/>
<path fill-rule="evenodd" clip-rule="evenodd" d="M100.764 133.895C100.58 133.962 100.376 133.868 100.308 133.684L100.129 133.195C100.061 133.01 100.156 132.807 100.34 132.739C100.524 132.671 100.728 132.766 100.796 132.949L100.975 133.439C101.042 133.623 100.948 133.827 100.764 133.895Z" fill="#2B4D66"/>
<path fill-rule="evenodd" clip-rule="evenodd" d="M105.875 134.12C105.789 134.151 105.692 134.15 105.603 134.108C105.425 134.026 105.348 133.815 105.43 133.637L105.649 133.164C105.732 132.986 105.943 132.908 106.121 132.991C106.299 133.073 106.377 133.285 106.294 133.462L106.075 133.936C106.033 134.024 105.96 134.089 105.875 134.12Z" fill="#2B4D66"/>
<path fill-rule="evenodd" clip-rule="evenodd" d="M109.82 137.713L109.33 137.892C109.146 137.96 108.942 137.865 108.874 137.681C108.807 137.497 108.901 137.293 109.085 137.225L109.575 137.046C109.759 136.978 109.963 137.073 110.031 137.257C110.098 137.441 110.004 137.645 109.82 137.713Z" fill="#2B4D66"/>
<path fill-rule="evenodd" clip-rule="evenodd" d="M109.579 143.222C109.494 143.254 109.396 143.252 109.307 143.211L108.834 142.992C108.656 142.91 108.579 142.699 108.661 142.52C108.744 142.343 108.954 142.265 109.132 142.348L109.606 142.567C109.783 142.649 109.861 142.86 109.779 143.038C109.738 143.127 109.664 143.191 109.579 143.222Z" fill="#2B4D66"/>
<path fill-rule="evenodd" clip-rule="evenodd" d="M105.512 146.948C105.328 147.015 105.124 146.921 105.057 146.736L104.877 146.247C104.809 146.063 104.904 145.859 105.088 145.791C105.272 145.724 105.476 145.818 105.544 146.003L105.723 146.492C105.791 146.676 105.696 146.88 105.512 146.948Z" fill="#2B4D66"/>
<path fill-rule="evenodd" clip-rule="evenodd" d="M100.002 146.706C99.9171 146.738 99.8199 146.736 99.7305 146.695C99.5529 146.613 99.4755 146.402 99.5577 146.223L99.7773 145.751C99.8595 145.572 100.071 145.495 100.248 145.578C100.427 145.66 100.504 145.871 100.422 146.049L100.202 146.522C100.161 146.611 100.088 146.675 100.002 146.706Z" fill="#2B4D66"/>
<path fill-rule="evenodd" clip-rule="evenodd" d="M96.7667 142.461L96.2777 142.64C96.0929 142.708 95.8895 142.613 95.8217 142.429C95.7539 142.245 95.8487 142.041 96.0323 141.974L96.5219 141.794C96.7061 141.726 96.9101 141.821 96.9779 142.005C97.0457 142.189 96.9509 142.393 96.7667 142.461Z" fill="#2B4D66"/>
<path fill-rule="evenodd" clip-rule="evenodd" d="M96.9916 137.35C96.9064 137.381 96.8092 137.38 96.7198 137.339L96.247 137.12C96.0688 137.037 95.9914 136.826 96.0742 136.648C96.1564 136.47 96.3676 136.392 96.5452 136.475L97.0186 136.694C97.1968 136.776 97.2742 136.988 97.1914 137.166C97.1506 137.255 97.0768 137.319 96.9916 137.35Z" fill="#2B4D66"/>
<path fill-rule="evenodd" clip-rule="evenodd" d="M103.073 140.188L100.241 141.227C100.057 141.295 99.8529 141.2 99.7857 141.016C99.7179 140.832 99.8121 140.628 99.9963 140.561L102.495 139.644L100.938 135.401C100.871 135.217 100.965 135.013 101.149 134.945C101.334 134.878 101.538 134.972 101.605 135.156L103.284 139.732C103.351 139.916 103.257 140.121 103.073 140.188Z" fill="#2B4D66"/>
<path fill-rule="evenodd" clip-rule="evenodd" d="M107.14 140.692C107.088 140.711 107.032 140.718 106.974 140.711L102.907 140.207C102.712 140.183 102.574 140.005 102.598 139.811C102.622 139.616 102.8 139.478 102.994 139.502L107.061 140.006C107.256 140.03 107.394 140.207 107.37 140.402C107.353 140.539 107.261 140.648 107.14 140.692Z" fill="#DA4A54"/>
<path fill-rule="evenodd" clip-rule="evenodd" d="M102.624 138.965C103.116 138.785 103.66 139.037 103.841 139.528C104.021 140.019 103.769 140.564 103.277 140.745C102.786 140.925 102.241 140.673 102.061 140.181C101.88 139.689 102.133 139.145 102.624 138.965Z" fill="#365E7D"/>
<mask id="mask2_5567_154440" style="mask-type:alpha" maskUnits="userSpaceOnUse" x="245" y="134" width="78" height="49">
<path fill-rule="evenodd" clip-rule="evenodd" d="M245.158 134.524H322.2V182.831H245.158V134.524Z" fill="white"/>
</mask>
<g mask="url(#mask2_5567_154440)">
<path fill-rule="evenodd" clip-rule="evenodd" d="M262.065 135.845C256.746 138.81 249.14 144.284 245.885 152.585C244.656 155.716 245.001 159.247 246.804 162.086L259.975 182.831H303.058L322.2 164.443L272.551 136.006C269.331 134.095 265.335 134.022 262.065 135.845Z" fill="#3393E3"/>
</g>
<mask id="mask3_5567_154440" style="mask-type:alpha" maskUnits="userSpaceOnUse" x="-30" y="132" width="123" height="83">
<path fill-rule="evenodd" clip-rule="evenodd" d="M-30 132.401H92.6812V214.243H-30V132.401Z" fill="white"/>
</mask>
<g mask="url(#mask3_5567_154440)">
<path fill-rule="evenodd" clip-rule="evenodd" d="M79.476 134.275C85.5012 138.367 94.2222 147.296 92.4474 164.09C92.1372 167.027 90.6474 169.716 88.3236 171.541L33.9306 214.243L-30 173.443L69.5334 133.094C72.8448 131.858 76.5522 132.289 79.476 134.275Z" fill="#3393E3"/>
</g>
<path fill-rule="evenodd" clip-rule="evenodd" d="M-6.36377 78.8519H56.6476V-0.0456543H-6.36377V78.8519Z" fill="#BBF0D3"/>
<mask id="mask4_5567_154440" style="mask-type:alpha" maskUnits="userSpaceOnUse" x="35" y="5" width="18" height="9">
<path fill-rule="evenodd" clip-rule="evenodd" d="M41.5098 9.82977C41.064 9.68817 40.59 9.61377 40.095 9.61377C37.9374 9.61377 36.1236 11.055 35.5542 13.0236V13.0254H41.5446H44.6304H52.3656C52.521 12.5034 52.6092 11.9484 52.6092 11.3736C52.6092 8.25237 50.0784 5.72217 46.9512 5.72217C44.3664 5.72217 42.1866 7.46097 41.5098 9.82977Z" fill="white"/>
</mask>
<g mask="url(#mask4_5567_154440)">
<path fill-rule="evenodd" clip-rule="evenodd" d="M32.1704 16.4087H55.9934V2.33813H32.1704V16.4087Z" fill="#EDFFF5"/>
</g>
<path fill-rule="evenodd" clip-rule="evenodd" d="M-7.37939 82.8431H57.6642V77.5073H-7.37939V82.8431Z" fill="white"/>
<path fill-rule="evenodd" clip-rule="evenodd" d="M-7.37939 39.8478H57.6642V38.9592H-7.37939V39.8478Z" fill="#EDFFF5"/>
<path fill-rule="evenodd" clip-rule="evenodd" d="M19.7689 49.1029C19.0021 47.1823 17.1241 45.8293 14.9293 45.8293C12.6955 45.8293 10.7935 47.2297 10.0459 49.1977C9.48848 48.8941 8.84888 48.7249 8.16848 48.7249C5.98688 48.7249 4.22168 50.4895 4.22168 52.6651C4.22168 52.8451 4.23668 53.0257 4.26008 53.2003H10.1791H12.0709H15.9463H19.6735H23.0095C23.0377 53.0257 23.0521 52.8451 23.0521 52.6651C23.0521 50.7919 21.6091 49.2499 19.7689 49.1029Z" fill="white"/>
<path fill-rule="evenodd" clip-rule="evenodd" d="M-7.75977 2.55552H64.5048V-0.523682H-7.75977V2.55552Z" fill="#84D7CC"/>
<path fill-rule="evenodd" clip-rule="evenodd" d="M65.7764 4.2403H65.1146C64.3508 4.2403 63.731 3.6205 63.731 2.8555V-1.0151C63.731 -1.7801 64.3508 -2.3999 65.1146 -2.3999H65.7764C66.5414 -2.3999 67.1606 -1.7801 67.1606 -1.0151V2.8555C67.1606 3.6205 66.5414 4.2403 65.7764 4.2403Z" fill="#84D7CC"/>
<path fill-rule="evenodd" clip-rule="evenodd" d="M61.8043 22.9086C61.8043 23.8032 61.0795 24.5292 60.1849 24.5292C59.2903 24.5292 58.5649 23.8032 58.5649 22.9086C58.5649 22.0146 59.2903 21.2886 60.1849 21.2886C61.0795 21.2886 61.8043 22.0146 61.8043 22.9086Z" fill="#84D7CC"/>
<path d="M60.0468 0.967285L60.2574 21.6271" stroke="#84D7CC" stroke-width="0.6768"/>
<path fill-rule="evenodd" clip-rule="evenodd" d="M35.8667 67.717C35.8667 67.717 33.1613 60.5806 40.7897 53.5732C40.7897 53.5732 45.1439 60.7594 35.8667 67.717Z" fill="#84D7CC"/>
<path fill-rule="evenodd" clip-rule="evenodd" d="M36.2747 69.6123C36.2747 69.6123 28.9397 67.5051 27.8975 57.1995C27.8975 57.1995 36.2603 58.0161 36.2747 69.6123Z" fill="#84D7CC"/>
<path fill-rule="evenodd" clip-rule="evenodd" d="M41.0948 67.385H28.415V73.0358C28.415 75.6188 30.5084 77.7122 33.0908 77.7122H36.4184C39.0014 77.7122 41.0948 75.6188 41.0948 73.0358V67.385Z" fill="#DAF6E5"/>
<path fill-rule="evenodd" clip-rule="evenodd" d="M32.6053 67.385L31.6177 66.5024L36.0943 66.8336L36.1765 67.385H32.6053Z" fill="#EDFFF5"/>
<mask id="mask5_5567_154440" style="mask-type:alpha" maskUnits="userSpaceOnUse" x="31" y="66" width="6" height="2">
<path fill-rule="evenodd" clip-rule="evenodd" d="M32.6054 67.3848H36.1766L36.0938 66.8334L31.6172 66.5022L32.6054 67.3848Z" fill="white"/>
</mask>
<g mask="url(#mask5_5567_154440)">
<path fill-rule="evenodd" clip-rule="evenodd" d="M27.6636 77.9268H42.2886V53.5518H27.6636V77.9268Z" fill="#EDFFF5"/>
<path fill-rule="evenodd" clip-rule="evenodd" d="M28.1353 70.8673H39.6583V63.0205H28.1353V70.8673Z" fill="#EDFFF5"/>
</g>
<path fill-rule="evenodd" clip-rule="evenodd" d="M66.4878 106.691H92.4744V101.8H66.4878V106.691Z" fill="#FFC843"/>
<path fill-rule="evenodd" clip-rule="evenodd" d="M66.4878 102.356H92.4744V101.8H66.4878V102.356Z" fill="#C69C45"/>
<path fill-rule="evenodd" clip-rule="evenodd" d="M89.5474 106.691H90.5716V101.8H89.5474V106.691Z" fill="#D8B56D"/>
<path fill-rule="evenodd" clip-rule="evenodd" d="M87.1997 106.691H88.2239V101.8H87.1997V106.691Z" fill="#D8B56D"/>
<path fill-rule="evenodd" clip-rule="evenodd" d="M84.8472 106.691H85.8714V101.8H84.8472V106.691Z" fill="#D8B56D"/>
<path fill-rule="evenodd" clip-rule="evenodd" d="M82.4946 106.691H83.5188V101.8H82.4946V106.691Z" fill="#D8B56D"/>
<path fill-rule="evenodd" clip-rule="evenodd" d="M80.1465 106.691H81.1707V101.8H80.1465V106.691Z" fill="#D8B56D"/>
<path fill-rule="evenodd" clip-rule="evenodd" d="M77.7939 106.691H78.8181V101.8H77.7939V106.691Z" fill="#D8B56D"/>
<path fill-rule="evenodd" clip-rule="evenodd" d="M75.4409 106.691H76.4651V101.8H75.4409V106.691Z" fill="#D8B56D"/>
<path fill-rule="evenodd" clip-rule="evenodd" d="M73.0938 106.691H74.1179V101.8H73.0938V106.691Z" fill="#D8B56D"/>
<path fill-rule="evenodd" clip-rule="evenodd" d="M70.7412 106.691H71.7654V101.8H70.7412V106.691Z" fill="#D8B56D"/>
<path fill-rule="evenodd" clip-rule="evenodd" d="M68.3877 106.691H69.4119V101.8H68.3877V106.691Z" fill="#D8B56D"/>
<path fill-rule="evenodd" clip-rule="evenodd" d="M63.0474 101.927H89.034V97.0361H63.0474V101.927Z" fill="#FFC843"/>
<path fill-rule="evenodd" clip-rule="evenodd" d="M63.0474 97.5917H89.034V97.0361H63.0474V97.5917Z" fill="#C69C45"/>
<path fill-rule="evenodd" clip-rule="evenodd" d="M86.1064 101.927H87.1306V97.0361H86.1064V101.927Z" fill="#D8B56D"/>
<path fill-rule="evenodd" clip-rule="evenodd" d="M83.7593 101.927H84.7835V97.0361H83.7593V101.927Z" fill="#D8B56D"/>
<path fill-rule="evenodd" clip-rule="evenodd" d="M81.4067 101.927H82.4309V97.0361H81.4067V101.927Z" fill="#D8B56D"/>
<path fill-rule="evenodd" clip-rule="evenodd" d="M79.0532 101.927H80.0774V97.0361H79.0532V101.927Z" fill="#D8B56D"/>
<path fill-rule="evenodd" clip-rule="evenodd" d="M76.7061 101.927H77.7303V97.0361H76.7061V101.927Z" fill="#D8B56D"/>
<path fill-rule="evenodd" clip-rule="evenodd" d="M74.3535 101.927H75.3777V97.0361H74.3535V101.927Z" fill="#D8B56D"/>
<path fill-rule="evenodd" clip-rule="evenodd" d="M72.0005 101.927H73.0247V97.0361H72.0005V101.927Z" fill="#D8B56D"/>
<path fill-rule="evenodd" clip-rule="evenodd" d="M69.6533 101.927H70.6775V97.0361H69.6533V101.927Z" fill="#D8B56D"/>
<path fill-rule="evenodd" clip-rule="evenodd" d="M67.3008 101.927H68.325V97.0361H67.3008V101.927Z" fill="#D8B56D"/>
<path fill-rule="evenodd" clip-rule="evenodd" d="M64.9473 101.927H65.9715V97.0361H64.9473V101.927Z" fill="#D8B56D"/>
<path fill-rule="evenodd" clip-rule="evenodd" d="M65.6938 97.1628H91.6804V92.2722H65.6938V97.1628Z" fill="#FFC843"/>
<path fill-rule="evenodd" clip-rule="evenodd" d="M65.6938 92.8278H91.6804V92.2722H65.6938V92.8278Z" fill="#C69C45"/>
<path fill-rule="evenodd" clip-rule="evenodd" d="M88.7529 97.1628H89.7771V92.2722H88.7529V97.1628Z" fill="#D8B56D"/>
<path fill-rule="evenodd" clip-rule="evenodd" d="M86.4058 97.1628H87.43V92.2722H86.4058V97.1628Z" fill="#D8B56D"/>
<path fill-rule="evenodd" clip-rule="evenodd" d="M84.0527 97.1628H85.0769V92.2722H84.0527V97.1628Z" fill="#D8B56D"/>
<path fill-rule="evenodd" clip-rule="evenodd" d="M81.7007 97.1628H82.7249V92.2722H81.7007V97.1628Z" fill="#D8B56D"/>
<path fill-rule="evenodd" clip-rule="evenodd" d="M79.353 97.1628H80.3772V92.2722H79.353V97.1628Z" fill="#D8B56D"/>
<path fill-rule="evenodd" clip-rule="evenodd" d="M77 97.1628H78.0242V92.2722H77V97.1628Z" fill="#D8B56D"/>
<path fill-rule="evenodd" clip-rule="evenodd" d="M74.647 97.1628H75.6712V92.2722H74.647V97.1628Z" fill="#D8B56D"/>
<path fill-rule="evenodd" clip-rule="evenodd" d="M72.2998 97.1628H73.324V92.2722H72.2998V97.1628Z" fill="#D8B56D"/>
<path fill-rule="evenodd" clip-rule="evenodd" d="M69.9473 97.1628H70.9715V92.2722H69.9473V97.1628Z" fill="#D8B56D"/>
<path fill-rule="evenodd" clip-rule="evenodd" d="M67.5942 97.1628H68.6184V92.2722H67.5942V97.1628Z" fill="#D8B56D"/>
<path fill-rule="evenodd" clip-rule="evenodd" d="M34.7998 118.408H60.7864V113.518H34.7998V118.408Z" fill="#FFC843"/>
<path fill-rule="evenodd" clip-rule="evenodd" d="M34.7998 114.073H60.7864V113.518H34.7998V114.073Z" fill="#C69C45"/>
<path fill-rule="evenodd" clip-rule="evenodd" d="M57.8589 118.408H58.8831V113.518H57.8589V118.408Z" fill="#D8B56D"/>
<path fill-rule="evenodd" clip-rule="evenodd" d="M55.5117 118.408H56.5359V113.518H55.5117V118.408Z" fill="#D8B56D"/>
<path fill-rule="evenodd" clip-rule="evenodd" d="M53.1587 118.408H54.1829V113.518H53.1587V118.408Z" fill="#D8B56D"/>
<path fill-rule="evenodd" clip-rule="evenodd" d="M50.8062 118.408H51.8304V113.518H50.8062V118.408Z" fill="#D8B56D"/>
<path fill-rule="evenodd" clip-rule="evenodd" d="M48.459 118.408H49.4832V113.518H48.459V118.408Z" fill="#D8B56D"/>
<path fill-rule="evenodd" clip-rule="evenodd" d="M46.1055 118.408H47.1297V113.518H46.1055V118.408Z" fill="#D8B56D"/>
<path fill-rule="evenodd" clip-rule="evenodd" d="M43.7529 118.408H44.7771V113.518H43.7529V118.408Z" fill="#D8B56D"/>
<path fill-rule="evenodd" clip-rule="evenodd" d="M41.4058 118.408H42.43V113.518H41.4058V118.408Z" fill="#D8B56D"/>
<path fill-rule="evenodd" clip-rule="evenodd" d="M39.0527 118.408H40.0769V113.518H39.0527V118.408Z" fill="#D8B56D"/>
<path fill-rule="evenodd" clip-rule="evenodd" d="M36.7002 118.408H37.7244V113.518H36.7002V118.408Z" fill="#D8B56D"/>
<path fill-rule="evenodd" clip-rule="evenodd" d="M63.0474 116.218H89.034V111.328H63.0474V116.218Z" fill="#FFC843"/>
<path fill-rule="evenodd" clip-rule="evenodd" d="M63.0474 111.882H89.034V111.327H63.0474V111.882Z" fill="#C69C45"/>
<path fill-rule="evenodd" clip-rule="evenodd" d="M86.1064 116.218H87.1306V111.328H86.1064V116.218Z" fill="#D8B56D"/>
<path fill-rule="evenodd" clip-rule="evenodd" d="M83.7593 116.218H84.7835V111.328H83.7593V116.218Z" fill="#D8B56D"/>
<path fill-rule="evenodd" clip-rule="evenodd" d="M81.4067 116.218H82.4309V111.328H81.4067V116.218Z" fill="#D8B56D"/>
<path fill-rule="evenodd" clip-rule="evenodd" d="M79.0532 116.218H80.0774V111.328H79.0532V116.218Z" fill="#D8B56D"/>
<path fill-rule="evenodd" clip-rule="evenodd" d="M76.7061 116.218H77.7303V111.328H76.7061V116.218Z" fill="#D8B56D"/>
<path fill-rule="evenodd" clip-rule="evenodd" d="M74.3535 116.218H75.3777V111.328H74.3535V116.218Z" fill="#D8B56D"/>
<path fill-rule="evenodd" clip-rule="evenodd" d="M72.0005 116.218H73.0247V111.328H72.0005V116.218Z" fill="#D8B56D"/>
<path fill-rule="evenodd" clip-rule="evenodd" d="M69.6533 116.218H70.6775V111.328H69.6533V116.218Z" fill="#D8B56D"/>
<path fill-rule="evenodd" clip-rule="evenodd" d="M67.3008 116.218H68.325V111.328H67.3008V116.218Z" fill="#D8B56D"/>
<path fill-rule="evenodd" clip-rule="evenodd" d="M64.9473 116.218H65.9715V111.328H64.9473V116.218Z" fill="#D8B56D"/>
<path fill-rule="evenodd" clip-rule="evenodd" d="M65.6938 111.454H91.6804V106.564H65.6938V111.454Z" fill="#FFC843"/>
<path fill-rule="evenodd" clip-rule="evenodd" d="M65.6938 107.119H91.6804V106.564H65.6938V107.119Z" fill="#C69C45"/>
<path fill-rule="evenodd" clip-rule="evenodd" d="M88.7529 111.454H89.7771V106.564H88.7529V111.454Z" fill="#D8B56D"/>
<path fill-rule="evenodd" clip-rule="evenodd" d="M86.4058 111.454H87.43V106.564H86.4058V111.454Z" fill="#D8B56D"/>
<path fill-rule="evenodd" clip-rule="evenodd" d="M84.0527 111.454H85.0769V106.564H84.0527V111.454Z" fill="#D8B56D"/>
<path fill-rule="evenodd" clip-rule="evenodd" d="M81.7007 111.454H82.7249V106.564H81.7007V111.454Z" fill="#D8B56D"/>
<path fill-rule="evenodd" clip-rule="evenodd" d="M79.353 111.454H80.3772V106.564H79.353V111.454Z" fill="#D8B56D"/>
<path fill-rule="evenodd" clip-rule="evenodd" d="M77 111.454H78.0242V106.564H77V111.454Z" fill="#D8B56D"/>
<path fill-rule="evenodd" clip-rule="evenodd" d="M74.647 111.454H75.6712V106.564H74.647V111.454Z" fill="#D8B56D"/>
<path fill-rule="evenodd" clip-rule="evenodd" d="M72.2998 111.454H73.324V106.564H72.2998V111.454Z" fill="#D8B56D"/>
<path fill-rule="evenodd" clip-rule="evenodd" d="M69.9473 111.454H70.9715V106.564H69.9473V111.454Z" fill="#D8B56D"/>
<path fill-rule="evenodd" clip-rule="evenodd" d="M67.5942 111.454H68.6184V106.564H67.5942V111.454Z" fill="#D8B56D"/>
<path fill-rule="evenodd" clip-rule="evenodd" d="M38.3447 113.948H64.3313V109.057H38.3447V113.948Z" fill="#FFC843"/>
<path fill-rule="evenodd" clip-rule="evenodd" d="M38.3447 109.613H64.3313V109.057H38.3447V109.613Z" fill="#C69C45"/>
<path fill-rule="evenodd" clip-rule="evenodd" d="M61.4043 113.948H62.4285V109.057H61.4043V113.948Z" fill="#D8B56D"/>
<path fill-rule="evenodd" clip-rule="evenodd" d="M59.0566 113.948H60.0808V109.057H59.0566V113.948Z" fill="#D8B56D"/>
<path fill-rule="evenodd" clip-rule="evenodd" d="M56.7041 113.948H57.7283V109.057H56.7041V113.948Z" fill="#D8B56D"/>
<path fill-rule="evenodd" clip-rule="evenodd" d="M54.3516 113.948H55.3758V109.057H54.3516V113.948Z" fill="#D8B56D"/>
<path fill-rule="evenodd" clip-rule="evenodd" d="M52.0034 113.948H53.0276V109.057H52.0034V113.948Z" fill="#D8B56D"/>
<path fill-rule="evenodd" clip-rule="evenodd" d="M49.6509 113.948H50.6751V109.057H49.6509V113.948Z" fill="#D8B56D"/>
<path fill-rule="evenodd" clip-rule="evenodd" d="M47.2983 113.948H48.3225V109.057H47.2983V113.948Z" fill="#D8B56D"/>
<path fill-rule="evenodd" clip-rule="evenodd" d="M44.9507 113.948H45.9749V109.057H44.9507V113.948Z" fill="#D8B56D"/>
<path fill-rule="evenodd" clip-rule="evenodd" d="M42.5981 113.948H43.6223V109.057H42.5981V113.948Z" fill="#D8B56D"/>
<path fill-rule="evenodd" clip-rule="evenodd" d="M40.2456 113.948H41.2698V109.057H40.2456V113.948Z" fill="#D8B56D"/>
</g>
<path fill-rule="evenodd" clip-rule="evenodd" d="M174.379 78.3824L169.588 83.3938L167.519 81.5954C166.877 81.037 165.912 81.1139 165.366 81.7713C164.817 82.4257 164.894 83.4118 165.538 83.9702L168.691 86.7147C168.978 86.9645 169.331 87.0883 169.683 87.0883C170.081 87.0883 170.48 86.9295 170.777 86.6158L176.565 80.5614C177.155 79.945 177.143 78.9559 176.54 78.3545C176.243 78.0597 175.857 77.9119 175.472 77.9119C175.074 77.9119 174.677 78.0697 174.379 78.3824Z" fill="#00AB4E"/>
<mask id="mask6_5567_154440" style="mask-type:alpha" maskUnits="userSpaceOnUse" x="165" y="77" width="12" height="11">
<path fill-rule="evenodd" clip-rule="evenodd" d="M174.379 78.3824L169.588 83.3938L167.519 81.5954C166.877 81.037 165.912 81.1139 165.366 81.7713C164.817 82.4257 164.894 83.4118 165.538 83.9702L168.691 86.7147C168.978 86.9645 169.331 87.0883 169.683 87.0883C170.081 87.0883 170.48 86.9295 170.777 86.6158L176.565 80.5614C177.155 79.945 177.143 78.9559 176.54 78.3545C176.243 78.0597 175.857 77.9119 175.472 77.9119C175.074 77.9119 174.677 78.0697 174.379 78.3824Z" fill="white"/>
</mask>
<g mask="url(#mask6_5567_154440)">
</g>
</svg>
