<svg width="328" height="164" viewBox="0 0 328 164" fill="none" xmlns="http://www.w3.org/2000/svg">
<path d="M23.2189 161.504C33.6809 163.667 265.053 165.826 301.876 161.504C312.777 160.224 321.503 148.276 322.776 146.203C330.736 133.238 327.751 53.2794 325.761 26.266C324.69 11.7278 309.838 5.19571 302.871 3.03482C289.548 -1.09779 53.2799 -1.26366 22.2229 4.11573C8.32787 6.52168 3.29087 17.8712 2.29087 24.1796C-0.0421274 38.8847 -1.42113 129.331 2.31887 141.514C5.30487 151.239 12.7689 159.343 23.2189 161.504Z" fill="#BBF0D3"/>
<mask id="mask0_5567_164411" style="mask-type:alpha" maskUnits="userSpaceOnUse" x="0" y="0" width="328" height="164">
<path fill-rule="evenodd" clip-rule="evenodd" d="M23.2189 161.504C33.6809 163.667 265.053 165.826 301.876 161.504C312.777 160.224 321.503 148.276 322.776 146.203C330.736 133.238 327.751 53.2794 325.761 26.266C324.69 11.7278 309.838 5.19571 302.871 3.03482C289.548 -1.09779 53.2799 -1.26366 22.2229 4.11573C8.32787 6.52168 3.29087 17.8712 2.29087 24.1796C-0.0421274 38.8847 -1.42113 129.331 2.31887 141.514C5.30487 151.239 12.7689 159.343 23.2189 161.504Z" fill="white"/>
</mask>
<g mask="url(#mask0_5567_164411)">
<path d="M-8.87402 188.614H361.126V-42.8335H-8.87402V188.614Z" fill="#D4F7E4"/>
<path d="M319.09 206.119V118.81C276.28 84.5321 221.962 64.0295 162.854 64.0295C83.8074 64.0295 13.3268 100.694 -32.5166 157.942V206.119H319.09Z" fill="#EAFFF2"/>
<path d="M246.05 118.153H339.759C342.026 118.153 343.864 119.992 343.864 122.258C343.864 124.525 342.026 126.365 339.759 126.365H246.05C243.782 126.365 241.944 124.525 241.944 122.258C241.944 119.992 243.782 118.153 246.05 118.153Z" fill="#84D7CC"/>
<mask id="mask1_5567_164411" style="mask-type:alpha" maskUnits="userSpaceOnUse" x="241" y="118" width="103" height="9">
<path fill-rule="evenodd" clip-rule="evenodd" d="M246.049 118.153C243.782 118.153 241.943 119.993 241.943 122.258C241.943 124.525 243.782 126.365 246.049 126.365H339.759C342.026 126.365 343.864 124.525 343.864 122.258C343.864 119.993 342.026 118.153 339.759 118.153H246.049Z" fill="white"/>
</mask>
<g mask="url(#mask1_5567_164411)">
<path d="M-47.1035 185.504H343.862V-76.8096H-47.1035V185.504Z" fill="#84D7CC"/>
</g>
<mask id="mask2_5567_164411" style="mask-type:alpha" maskUnits="userSpaceOnUse" x="241" y="118" width="103" height="9">
<path fill-rule="evenodd" clip-rule="evenodd" d="M246.049 118.153C243.782 118.153 241.943 119.993 241.943 122.258C241.943 124.525 243.782 126.365 246.049 126.365H339.759C341.98 126.365 343.79 124.598 343.862 122.394V122.123C343.79 119.92 341.98 118.153 339.759 118.153H246.049Z" fill="white"/>
</mask>
<g mask="url(#mask2_5567_164411)">
<path d="M233.59 134.719H352.218V109.799H233.59V134.719Z" fill="#84D7CC"/>
</g>
<mask id="mask3_5567_164411" style="mask-type:alpha" maskUnits="userSpaceOnUse" x="11" y="110" width="45" height="64">
<path fill-rule="evenodd" clip-rule="evenodd" d="M37.4548 125.211C35.9902 129.865 29.6873 125.479 26.5131 130.653C22.3407 137.453 29.7461 143.584 27.5421 147.687C25.1509 152.137 15.2813 151.195 12.2717 159.462C10.7464 163.654 10.6861 168.301 12.5682 173.175H47.0255C48.1236 171.485 48.9732 169.668 49.473 167.736C51.9794 158.047 43.4343 157.218 45.1943 153.828C47.4675 149.448 55.035 147.684 55.5294 141.401C56.1106 134.01 48.6067 132.277 48.9806 128.607C49.5078 123.434 50.0267 112.467 45.1458 111.107C44.8166 111.015 44.5034 110.971 44.2065 110.971C39.6907 110.971 38.766 121.04 37.4548 125.211Z" fill="white"/>
</mask>
<g mask="url(#mask3_5567_164411)">
<path d="M73.9741 115.999L28.5231 99.4561L0.0761719 177.614L45.5266 194.157L73.9741 115.999Z" fill="#BBF0D3"/>
</g>
<mask id="mask4_5567_164411" style="mask-type:alpha" maskUnits="userSpaceOnUse" x="26" y="123" width="19" height="51">
<path fill-rule="evenodd" clip-rule="evenodd" d="M26.5303 123.217H44.4741V173.175H26.5303V123.217Z" fill="white"/>
</mask>
<g mask="url(#mask4_5567_164411)">
<path d="M26.5303 181.508C26.5303 181.508 37.4293 155.023 44.4741 123.217" stroke="white" stroke-width="0.63014"/>
</g>
<path d="M39.6627 142.354L32.251 133.624" stroke="white" stroke-width="0.63014"/>
<path d="M282.313 185.504H303.482V126.365H282.313V185.504Z" fill="#84D7CC"/>
<path d="M303.482 130.227L282.313 134.09V126.364H303.482V130.227Z" fill="#47A699"/>
<mask id="mask5_5567_164411" style="mask-type:alpha" maskUnits="userSpaceOnUse" x="-9" y="70" width="116" height="11">
<path fill-rule="evenodd" clip-rule="evenodd" d="M-8.93555 70.874H106.134V80.1541H-8.93555V70.874Z" fill="white"/>
</mask>
<g mask="url(#mask5_5567_164411)">
<path d="M-18.2158 89.4338H132.117V61.5945H-18.2158V89.4338Z" fill="#BBF0D3"/>
</g>
<mask id="mask6_5567_164411" style="mask-type:alpha" maskUnits="userSpaceOnUse" x="35" y="9" width="11" height="63">
<path fill-rule="evenodd" clip-rule="evenodd" d="M35.2656 9.62891H45.024V71.559H35.2656V9.62891Z" fill="white"/>
</mask>
<g mask="url(#mask6_5567_164411)">
<path d="M25.9854 80.8387H54.3039V0.349365H25.9854V80.8387Z" fill="#BBF0D3"/>
</g>
<path d="M45.0244 71.5586H54.7847V31.8113H45.0244V71.5586Z" fill="#84D7CC"/>
<path d="M64.542 71.5585H74.3023V20.5662H64.542V71.5585Z" fill="#84D7CC"/>
<mask id="mask7_5567_164411" style="mask-type:alpha" maskUnits="userSpaceOnUse" x="54" y="16" width="11" height="56">
<path fill-rule="evenodd" clip-rule="evenodd" d="M54.7842 16.5461H64.543V71.5589H54.7842V16.5461Z" fill="white"/>
</mask>
<g mask="url(#mask7_5567_164411)">
<path d="M45.5039 80.8381H73.8225V7.26611H45.5039V80.8381Z" fill="#BBF0D3"/>
</g>
<mask id="mask8_5567_164411" style="mask-type:alpha" maskUnits="userSpaceOnUse" x="11" y="19" width="25" height="53">
<path fill-rule="evenodd" clip-rule="evenodd" d="M11.4795 68.9045L20.8449 71.65L35.2656 22.4486L25.9007 19.7036L11.4795 68.9045Z" fill="white"/>
</mask>
<g mask="url(#mask8_5567_164411)">
<path d="M1.37402 10.9332L43.7076 9.93359L45.3721 80.4201L3.03806 81.4197L1.37402 10.9332Z" fill="#BBF0D3"/>
</g>
<path d="M12.7049 186.053C4.89971 181.785 -3.62482 174.505 -5.93713 165.071C-8.95896 152.747 1.34182 151.692 -0.77988 147.379C-3.51947 141.808 -12.6423 139.564 -13.2376 131.571C-13.9383 122.169 -4.89294 119.964 -5.34374 115.295C-5.97878 108.715 -6.60451 94.7633 -0.721079 93.0336C5.70968 91.1427 6.86363 105.32 8.54972 110.974C10.3142 116.896 17.9121 111.316 21.7386 117.898C26.7674 126.549 17.8406 134.347 20.4979 139.567C23.3801 145.228 35.2768 144.029 38.9042 154.547C41.2455 161.335 40.7236 169.062 36.1534 177.13C29.2086 180.115 20.3519 182.969 12.7049 186.053Z" fill="#84D7CC"/>
<path d="M168.803 87.0073L107.723 112.466L108.761 115.063L168.803 147.792L229.806 112.984L170.023 91.6829L168.803 87.0073Z" fill="#00662E"/>
<path d="M90.789 143.234C90.8728 143.117 90.9649 143.011 91.0693 142.911C91.6945 142.314 96.8126 140 100.449 138.441C103.633 137.076 114.995 131.687 119.67 129.61C123.285 128.002 131.161 126.157 131.76 125.731C131.82 125.688 131.884 125.62 131.951 125.532C133.011 124.136 132.119 122.104 130.392 121.812L127.183 121.271C126.883 121.221 126.597 121.114 126.337 120.956L108.896 110.32C108.116 109.845 107.133 109.856 106.364 110.35L94.7002 117.839C94.6492 117.872 94.5963 117.903 94.5424 117.932L79.2402 126.172C79.0662 126.266 78.8805 126.338 78.6884 126.386L70.8494 128.349C70.4104 128.459 69.9478 128.442 69.5181 128.299L66.6687 127.353C66.0161 127.136 65.3021 127.212 64.7087 127.56L43.1884 140.191C42.3216 140.7 1.18965 162.011 1.3717 162.999L50.5698 188.587C50.7369 189.487 51.4043 190.212 52.2872 190.453L54.2864 191C55.2454 191.261 56.2656 190.902 56.8482 190.098L90.789 143.234Z" fill="#F2CBA8"/>
<path d="M106.683 108.829L96.7389 122.299C96.2705 122.683 98.2143 123.895 105.125 123.895C112.918 123.895 115.742 119.414 116.555 118.7L113.437 115.063L106.683 108.829Z" fill="#E79E5C"/>
<path d="M92.9082 121.814C92.9082 121.814 97.2472 130.448 93.7299 138.811" stroke="#E79E5C" stroke-width="0.5194" stroke-linecap="round" stroke-linejoin="round"/>
<path d="M170.024 91.6832L106.58 115.581L104.141 89.6051L169.519 71.0503L170.024 91.6832Z" fill="#00853E"/>
<path d="M229.806 112.984L170.023 91.6832L169.519 71.0498L229.806 91.6832V112.984Z" fill="#00853E"/>
<path d="M75.7725 66.4895L87.679 71.1656" stroke="#F6923B" stroke-width="1.55869" stroke-linecap="round" stroke-linejoin="round"/>
<path d="M106.996 37.8223L118.821 53.7135" stroke="#F6923B" stroke-width="1.55869" stroke-linecap="round" stroke-linejoin="round"/>
<path d="M197.207 36.842L188.008 50.4631" stroke="#F6923B" stroke-width="1.55869" stroke-linecap="round" stroke-linejoin="round"/>
<path fill-rule="evenodd" clip-rule="evenodd" d="M159.144 11.8267C157.642 11.5268 156.128 11.4651 154.6 11.6434C152.877 11.8448 151.301 12.3769 149.869 13.2389C148.438 14.1022 147.224 15.1317 146.227 16.3278C145.23 17.5244 144.474 18.8204 143.963 20.2165C143.45 21.613 143.251 22.9448 143.367 24.2124C143.409 24.574 143.548 24.8504 143.785 25.042C144.021 25.2341 144.286 25.3129 144.578 25.2791L148.528 24.818C148.95 24.7686 149.239 24.6343 149.395 24.4143C149.55 24.1957 149.686 23.8777 149.803 23.4607C150.743 20.2395 152.596 18.4667 155.359 18.1442C157.082 17.9429 158.515 18.2246 159.659 18.9875C160.802 19.7514 161.454 20.8192 161.614 22.1912C161.703 22.9497 161.572 23.6705 161.224 24.3511C160.875 25.0332 160.413 25.728 159.836 26.4355C159.26 27.1436 158.63 27.8854 157.946 28.6606C157.262 29.4363 156.637 30.2874 156.07 31.213C155.502 32.1401 155.045 33.1637 154.699 34.2839C154.352 35.4045 154.228 36.6726 154.327 38.0887C154.341 38.4905 154.503 38.8188 154.813 39.0756C155.123 39.3328 155.457 39.4396 155.814 39.398L159.52 38.9653C159.878 38.9237 160.153 38.7453 160.347 38.4293C160.541 38.1137 160.647 37.754 160.665 37.3483C160.671 36.5433 160.885 35.7676 161.308 35.0223C161.732 34.2775 162.24 33.5503 162.833 32.8398C163.425 32.1308 164.053 31.3791 164.72 30.5878C165.385 29.796 165.985 28.9389 166.52 28.0163C167.055 27.0941 167.462 26.0759 167.745 24.9626C168.026 23.8503 168.084 22.5714 167.915 21.1264C167.708 19.3575 167.184 17.8346 166.343 16.5596C165.503 15.2851 164.468 14.2527 163.239 13.4628C162.011 12.6729 160.644 12.1275 159.144 11.8267ZM161.12 42.5124C160.826 42.2542 160.501 42.1454 160.144 42.1871L155.95 42.6771C155.593 42.7182 155.3 42.8995 155.075 43.218C154.848 43.538 154.759 43.8962 154.805 44.2931L155.362 49.0608C155.408 49.4587 155.578 49.7865 155.872 50.0447C156.165 50.3034 156.491 50.4117 156.848 50.3696L161.042 49.8801C161.4 49.8384 161.691 49.6586 161.917 49.3386C162.144 49.0196 162.234 48.6614 162.188 48.2636L161.631 43.4964C161.584 43.0995 161.414 42.7716 161.12 42.5124Z" fill="#1868AB"/>
<path d="M229.806 112.984L168.803 147.792L170.045 118.176L229.806 91.6831V112.984Z" fill="#00AB4E"/>
<path d="M249.783 -15.8123L224.143 -12.6194L219.347 -1.1348L214.663 31.1528L215.888 40.1335L240.356 51.6019L280.939 66.6944L293.484 64.6952L315.984 18.0232L249.783 -15.8123Z" fill="#00662E"/>
<path d="M202.364 47.9312L217.41 -16.5195L235.004 -15.5665L221.355 36.9811L202.364 47.9312Z" fill="#00853E"/>
<path d="M332.22 134.284C332.135 134.089 332.04 133.901 331.931 133.717C330.557 131.391 320.841 114.929 319.545 112.677C317.478 109.085 310.853 100.707 308.982 97.6525C307.11 94.5978 304.364 71.0415 304.251 70.8313C303.408 69.2673 302.098 68.0089 300.539 67.1568C298.402 65.9901 294.932 64.33 293.683 65.0856L291.221 68.7606C290.429 69.2398 289.521 69.4956 288.595 69.5L277.261 69.5534C277.109 69.5539 276.958 69.5617 276.806 69.5755L275.914 69.6593C272.709 69.9606 270.468 73.1422 271.478 76.1988C271.621 76.631 271.823 77.0362 272.101 77.3934C273.715 79.4715 277.152 82.558 278.264 83.5395C278.508 83.7551 278.727 83.9888 278.925 84.2466C279.989 85.6288 283.105 88.9275 283.404 90.6553C283.785 92.8559 284.372 96.4157 291.931 103.568C298.525 109.807 310.523 168.634 313.481 183.566C313.892 185.638 315.532 187.242 317.613 187.61L322.64 188.498C324.242 188.781 325.882 188.287 327.061 187.167L335.196 179.434C336.169 178.509 336.74 177.239 336.786 175.898L337.735 148.263C337.761 147.504 337.618 146.749 337.316 146.051L332.22 134.284Z" fill="#F2CBA8"/>
<path d="M278.347 77.05C278.347 77.05 285.656 82.1607 285.906 84.2031C286.206 86.6462 285.865 90.4658 288.743 92.2371C291.642 94.0207 296.169 96.7706 298.047 90.8034C299.924 84.8366 295.762 82.0578 295.762 82.0578L285.424 79.0674L278.347 77.05Z" fill="#E79E5C"/>
<path d="M298.333 66.0234L299.538 66.6188C300.011 66.8525 300.18 67.4415 299.904 67.8903L296.751 73.0265C296.545 73.3626 296.142 73.5243 295.761 73.4244C295.258 73.2926 294.973 72.7614 295.139 72.2694L297.089 66.5379C297.263 66.0254 297.848 65.7833 298.333 66.0234Z" fill="#E79E5C"/>
<path d="M320.864 7.90137L293.484 64.6953L290.21 84.5124L318.22 24.8906L320.864 7.90137Z" fill="#00853E"/>
<path d="M272.102 77.3932C272.102 77.3932 273.061 78.3124 274.002 78.873C274.944 79.433 287.363 84.2747 287.363 84.2747L287.018 82.2838L272.68 76.8105L272.102 77.3932Z" fill="#E79E5C"/>
<path d="M290.21 84.5122L202.364 47.9312L221.355 36.9812L293.484 64.6956L290.21 84.5122Z" fill="#00AB4E"/>
<path d="M290.279 84.5698L295.414 73.6419L292.247 72.6624L290.279 84.5698Z" fill="#00853E"/>
<path d="M303.471 79.089C303.196 78.3059 302.712 77.6165 302.069 77.0917C300.432 75.756 295.353 71.8561 290.772 72.4083C286.192 72.9605 282.585 70.2518 281.405 70.6673C280.658 70.9305 279.02 72.0129 281.957 75.2483C285.424 79.0674 289.935 79.0698 289.935 79.0698C289.935 79.0698 288.613 85.1066 292.496 90.1056C293.502 91.4007 295.583 93.3313 297.54 92.8825C301.057 92.0754 302.577 85.2252 303.561 81.8222C303.82 80.926 303.781 79.9685 303.471 79.089Z" fill="#F2CBA8"/>
<path d="M292.504 76.5735C292.504 76.5735 290.698 77.4746 289.935 79.07" stroke="#E79E5C" stroke-width="0.76244" stroke-linecap="round" stroke-linejoin="round"/>
<path d="M318.219 24.8909L215.693 -15.9884L237.462 -24.0366L320.864 7.90158L318.219 24.8909Z" fill="#00AB4E"/>
<path d="M231.024 65.1736L219.063 72.3707" stroke="#F6923B" stroke-width="1.55869" stroke-linecap="round" stroke-linejoin="round"/>
<path d="M182.453 83.9405C183.45 82.8488 184.762 82.0231 186.288 81.6179L184.566 75.7761L180.21 77.0604" stroke="#FFD07B" stroke-width="1.93795" stroke-linecap="round" stroke-linejoin="round"/>
<path d="M172.199 79.4226L144.16 87.6904" stroke="#FFD07B" stroke-width="1.93795" stroke-linecap="round" stroke-linejoin="round" stroke-dasharray="8.35 8.35"/>
<path d="M140.155 88.8718L135.799 90.1561L137.52 95.9925C137.768 95.9097 138.021 95.8372 138.281 95.7774C139.551 95.4868 140.818 95.5172 142 95.8146" stroke="#FFD07B" stroke-width="1.93795" stroke-linecap="round" stroke-linejoin="round"/>
<path d="M146.488 98.833C147.113 99.6841 147.578 100.674 147.828 101.769C148.22 103.482 148.028 105.191 147.382 106.689" stroke="#FFD07B" stroke-width="1.93795" stroke-linecap="round" stroke-linejoin="round" stroke-dasharray="5.51 5.51"/>
<path d="M145.883 108.982C144.874 110.062 143.555 110.874 142.022 111.264L143.746 117.107L148.101 115.822" stroke="#FFD07B" stroke-width="1.93795" stroke-linecap="round" stroke-linejoin="round"/>
<path d="M156.113 113.46L184.152 105.191" stroke="#FFD07B" stroke-width="1.93795" stroke-linecap="round" stroke-linejoin="round" stroke-dasharray="8.35 8.35"/>
<path d="M188.157 104.011L192.513 102.726L190.792 96.8892C190.57 96.9607 190.345 97.0283 190.112 97.0812C188.813 97.3782 187.516 97.34 186.312 97.0224" stroke="#FFD07B" stroke-width="1.93795" stroke-linecap="round" stroke-linejoin="round"/>
<path d="M181.888 94.0031C181.271 93.1569 180.813 92.1749 180.564 91.0896C180.177 89.3966 180.361 87.7076 180.989 86.2229" stroke="#FFD07B" stroke-width="1.93795" stroke-linecap="round" stroke-linejoin="round" stroke-dasharray="5.46 5.46"/>
<path d="M168.802 147.792L106.58 115.581L104.14 89.605L170.023 118.179L168.802 147.792Z" fill="#00AB4E"/>
<path d="M63.4229 128.417C63.4229 128.417 80.9658 115.054 87.0257 106.792C91.5444 100.631 96.3215 94.7868 98.4588 92.2128C99.3369 91.1554 100.551 90.4282 101.905 90.1886C102.793 90.0313 103.962 89.898 105.453 89.8633L111.66 89.7187C113.067 89.6864 114.451 90.0651 115.646 90.808C117.273 91.8203 119.654 93.281 121.321 94.2189C122.085 94.6481 122.478 95.5737 122.153 96.3876C121.803 97.2657 120.794 98.208 118.157 98.4623C118.157 98.4623 114.486 98.6122 111.954 97.8331C111.954 97.8331 110.816 98.7621 108.748 98.5524C108.748 98.5524 108.689 104.29 106.561 109.818C104.434 115.346 92.2692 127.166 92.2692 127.166L84.4566 132.118L73.655 130.5L63.4229 128.417Z" fill="#F2CBA8"/>
<path d="M108.981 98.837C108.981 98.837 109.55 98.3725 107.071 97.0764C104.591 95.7809 103.558 95.676 103.558 95.676" stroke="#E79E5C" stroke-width="0.5194" stroke-linecap="round" stroke-linejoin="round"/>
<path d="M112.474 97.8331C112.474 97.8331 113.2 95.8182 112.272 94.6794" stroke="#E79E5C" stroke-width="0.5194" stroke-linecap="round" stroke-linejoin="round"/>
<path d="M205.549 112.841C205.475 111.071 206.562 109.043 208.105 108.38C208.013 107.371 207.975 106.844 207.93 105.705C202.276 108.388 197.03 111.806 191.507 114.735C191.505 115.761 191.53 116.313 191.6 117.447C191.697 117.394 191.796 117.345 191.895 117.303C193.53 116.606 194.802 117.735 194.947 119.849C195.09 121.932 193.989 124.214 192.207 125.096C192.278 126.233 192.304 126.788 192.303 127.819C198.063 124.307 203.405 120.272 209.132 116.712C209.043 115.771 208.986 115.322 208.868 114.426C208.775 114.479 208.682 114.53 208.587 114.576C206.842 115.423 205.623 114.649 205.549 112.841Z" fill="#FFD07B"/>
<path d="M202.071 108.566L202.9 120.595" stroke="#3390E0" stroke-width="0.5" stroke-linecap="round" stroke-linejoin="round" stroke-dasharray="2.49"/>
<mask id="mask9_5567_164411" style="mask-type:alpha" maskUnits="userSpaceOnUse" x="0" y="108" width="22" height="64">
<path fill-rule="evenodd" clip-rule="evenodd" d="M0.0888672 108.438H21.718V171.992H0.0888672V108.438Z" fill="white"/>
</mask>
<g mask="url(#mask9_5567_164411)">
<path d="M21.718 182.591C21.718 182.591 8.58008 148.899 0.0888672 108.438" stroke="white" stroke-width="0.78057"/>
</g>
<mask id="mask10_5567_164411" style="mask-type:alpha" maskUnits="userSpaceOnUse" x="2" y="163" width="16" height="9">
<path fill-rule="evenodd" clip-rule="evenodd" d="M2.37012 163.456H17.9428V171.992H2.37012V163.456Z" fill="white"/>
</mask>
<g mask="url(#mask10_5567_164411)">
<path d="M17.9428 172.208C17.9428 172.208 8.97532 169.407 2.37012 163.456" stroke="white" stroke-width="0.78057"/>
</g>
</g>
</svg>
