<svg width="328" height="164" viewBox="0 0 328 164" fill="none" xmlns="http://www.w3.org/2000/svg">
<path fill-rule="evenodd" clip-rule="evenodd" d="M23.2189 161.504C33.6809 163.667 265.053 165.826 301.876 161.504C312.777 160.224 321.503 148.276 322.776 146.203C330.736 133.238 327.751 53.2794 325.761 26.266C324.69 11.7278 309.838 5.19571 302.871 3.03482C289.548 -1.09779 53.2799 -1.26366 22.2229 4.11573C8.32787 6.52168 3.29087 17.8712 2.29087 24.1796C-0.0421274 38.8847 -1.42113 129.331 2.31887 141.514C5.30487 151.239 12.7689 159.343 23.2189 161.504Z" fill="#E6F6ED"/>
<mask id="mask0_5567_153090" style="mask-type:alpha" maskUnits="userSpaceOnUse" x="0" y="0" width="328" height="164">
<path fill-rule="evenodd" clip-rule="evenodd" d="M23.2189 161.504C33.6809 163.667 265.053 165.826 301.876 161.504C312.777 160.224 321.503 148.276 322.776 146.203C330.736 133.238 327.751 53.2794 325.761 26.266C324.69 11.7278 309.838 5.19571 302.871 3.03482C289.548 -1.09779 53.2799 -1.26366 22.2229 4.11573C8.32787 6.52168 3.29087 17.8712 2.29087 24.1796C-0.0421274 38.8847 -1.42113 129.331 2.31887 141.514C5.30487 151.239 12.7689 159.343 23.2189 161.504Z" fill="white"/>
</mask>
<g mask="url(#mask0_5567_153090)">
<path d="M307.252 44.9582C307.252 59.9678 295.085 72.1357 280.075 72.1357C265.065 72.1357 252.897 59.9678 252.897 44.9582C252.897 29.9486 265.065 17.7808 280.075 17.7808C295.085 17.7808 307.252 29.9486 307.252 44.9582Z" fill="#84D7CC"/>
<path d="M307.252 42.9582C307.252 57.9678 295.085 70.1357 280.075 70.1357C265.065 70.1357 252.897 57.9678 252.897 42.9582C252.897 27.9486 265.065 15.7808 280.075 15.7808C295.085 15.7808 307.252 27.9486 307.252 42.9582Z" fill="white"/>
<rect x="274" y="29" width="22" height="32" rx="3" fill="#CC9D3F"/>
<mask id="mask1_5567_153090" style="mask-type:alpha" maskUnits="userSpaceOnUse" x="274" y="29" width="22" height="32">
<rect x="274" y="29" width="22" height="32" rx="3" fill="white"/>
</mask>
<g mask="url(#mask1_5567_153090)">
<rect x="271" y="29" width="22" height="32" rx="3" fill="#FFC54F"/>
<path fill-rule="evenodd" clip-rule="evenodd" d="M282.815 34.2305L279.48 36.7447C279.072 37.052 278.901 37.5989 279.057 38.0974L280.33 42.1652C280.487 42.6636 280.934 43 281.439 43H285.561C286.066 43 286.513 42.6636 286.67 42.1652L287.943 38.0974C288.099 37.5989 287.928 37.052 287.52 36.7447L284.185 34.2305C283.777 33.9232 283.223 33.9232 282.815 34.2305Z" fill="#CC9D3F"/>
<rect x="278.5" y="53" width="10" height="2" rx="1" fill="#CC9D3F"/>
<rect x="278.5" y="48" width="10" height="2" rx="1" fill="#CC9D3F"/>
</g>
<path opacity="0.5" fill-rule="evenodd" clip-rule="evenodd" d="M283 29.0045L287 29V56C287 57.6569 285.657 59 284 59H275V55.6672L283 29.0045Z" fill="#CC9D3F"/>
<rect x="263" y="26" width="22" height="32" rx="3" fill="#CC9D3F"/>
<mask id="mask2_5567_153090" style="mask-type:alpha" maskUnits="userSpaceOnUse" x="263" y="26" width="22" height="32">
<rect x="263" y="26" width="22" height="32" rx="3" fill="white"/>
</mask>
<g mask="url(#mask2_5567_153090)">
<rect x="260" y="26" width="22" height="32" rx="3" fill="#FFC54F"/>
<path fill-rule="evenodd" clip-rule="evenodd" d="M271.815 31.2305L268.48 33.7447C268.072 34.052 267.901 34.5989 268.057 35.0974L269.33 39.1652C269.487 39.6636 269.934 40 270.439 40H274.561C275.066 40 275.513 39.6636 275.67 39.1652L276.943 35.0974C277.099 34.5989 276.928 34.052 276.52 33.7447L273.185 31.2305C272.777 30.9232 272.223 30.9232 271.815 31.2305Z" fill="#CC9D3F"/>
<rect x="267.5" y="50" width="10" height="2" rx="1" fill="#CC9D3F"/>
<rect x="267.5" y="45" width="10" height="2" rx="1" fill="#CC9D3F"/>
</g>
<path fill-rule="evenodd" clip-rule="evenodd" d="M-12.7769 135.612H87.5432V10H-12.7769V135.612Z" fill="#BBF0D3"/>
<mask id="mask3_5567_153090" style="mask-type:alpha" maskUnits="userSpaceOnUse" x="37" y="14" width="29" height="12">
<path fill-rule="evenodd" clip-rule="evenodd" d="M47.4413 20.722C46.7318 20.4957 45.9769 20.3787 45.1896 20.3787C41.754 20.3787 38.8655 22.673 37.96 25.8073V25.809H47.4968H52.4091H64.7252C64.9727 24.9797 65.1127 24.0949 65.1127 23.1798C65.1127 18.2115 61.0829 14.1829 56.1045 14.1829C51.9902 14.1829 48.5188 16.9509 47.4413 20.722Z" fill="white"/>
</mask>
<g mask="url(#mask3_5567_153090)">
<path fill-rule="evenodd" clip-rule="evenodd" d="M32.5718 31.1963H70.5V8.79517H32.5718V31.1963Z" fill="#EDFFF5"/>
</g>
<path fill-rule="evenodd" clip-rule="evenodd" d="M-14.3945 140.966H89.1612V132.47H-14.3945V140.966Z" fill="white"/>
<path fill-rule="evenodd" clip-rule="evenodd" d="M-14.3945 72.5139H89.1612V71.0994H-14.3945V72.5139Z" fill="#EDFFF5"/>
<path fill-rule="evenodd" clip-rule="evenodd" d="M32.8282 87.2486C31.6074 84.1905 28.617 82.0361 25.1226 82.0361C21.5672 82.0361 18.5382 84.2661 17.3487 87.3998C16.4606 86.9165 15.4425 86.6461 14.3589 86.6461C10.8858 86.6461 8.07568 89.4561 8.07568 92.9203C8.07568 93.2065 8.0992 93.4937 8.13672 93.7715H17.5598H20.5726H26.7427H32.6765H37.9875C38.0329 93.4937 38.0553 93.2065 38.0553 92.9203C38.0553 89.9383 35.7576 87.4821 32.8282 87.2486Z" fill="white"/>
<path fill-rule="evenodd" clip-rule="evenodd" d="M-15 13.1411H100.053V8.23828H-15V13.1411Z" fill="#84D7CC"/>
<path fill-rule="evenodd" clip-rule="evenodd" d="M102.076 15.8228H101.022C99.8054 15.8228 98.8198 14.8361 98.8198 13.6181V7.45643C98.8198 6.23899 99.8054 5.25171 101.022 5.25171H102.076C103.294 5.25171 104.28 6.23899 104.28 7.45643V13.6181C104.28 14.8361 103.294 15.8228 102.076 15.8228Z" fill="#84D7CC"/>
<path fill-rule="evenodd" clip-rule="evenodd" d="M95.7523 45.5449C95.7523 46.969 94.5981 48.1243 93.174 48.1243C91.7499 48.1243 90.5952 46.969 90.5952 45.5449C90.5952 44.1214 91.7499 42.9656 93.174 42.9656C94.5981 42.9656 95.7523 44.1214 95.7523 45.5449Z" fill="#84D7CC"/>
<path d="M92.9536 10.6123L93.289 43.5039" stroke="#84D7CC" stroke-width="1.07744"/>
<path d="M-12.7607 134.652H87.4793" stroke="#84D7CC" stroke-width="1.07744"/>
<path d="M-11.0806 141.372H89.1594" stroke="#BBF0D3" stroke-width="2.24"/>
<path fill-rule="evenodd" clip-rule="evenodd" d="M66.4576 116.884C66.4576 116.884 62.1501 105.522 74.2954 94.3655C74.2954 94.3655 81.227 105.807 66.4576 116.884Z" fill="#84D7CC"/>
<path fill-rule="evenodd" clip-rule="evenodd" d="M67.1071 119.901C67.1071 119.901 55.4288 116.546 53.7695 100.138C53.7695 100.138 67.0835 101.439 67.1071 119.901Z" fill="#84D7CC"/>
<path fill-rule="evenodd" clip-rule="evenodd" d="M74.7801 116.355H54.5933V125.351C54.5933 129.464 57.9258 132.797 62.0373 132.797H67.3349C71.4476 132.797 74.7801 129.464 74.7801 125.351V116.355Z" fill="#DAF6E5"/>
<path fill-rule="evenodd" clip-rule="evenodd" d="M61.2644 116.355L59.6919 114.95L66.819 115.477L66.9501 116.355H61.2644Z" fill="#EDFFF5"/>
<mask id="mask4_5567_153090" style="mask-type:alpha" maskUnits="userSpaceOnUse" x="59" y="114" width="8" height="3">
<path fill-rule="evenodd" clip-rule="evenodd" d="M61.2644 116.355H66.9501L66.819 115.477L59.6919 114.951L61.2644 116.355Z" fill="white"/>
</mask>
<g mask="url(#mask4_5567_153090)">
<path fill-rule="evenodd" clip-rule="evenodd" d="M53.3975 133.139H76.6811V94.3318H53.3975V133.139Z" fill="#EDFFF5"/>
<path fill-rule="evenodd" clip-rule="evenodd" d="M54.1484 121.899H72.494V109.406H54.1484V121.899Z" fill="#EDFFF5"/>
</g>
<path fill-rule="evenodd" clip-rule="evenodd" d="M289.553 171.371C289.553 171.371 284.564 151.944 295.376 140.794C306.188 129.644 313.984 136.888 317.597 128.881C321.21 120.873 325.755 113.408 330.436 112.75C340.474 111.342 347.555 125.268 325.48 141.188C313.876 149.557 325.78 155.112 316.471 166.416C310.163 174.074 289.553 171.371 289.553 171.371Z" fill="#BBF0D3"/>
<path fill-rule="evenodd" clip-rule="evenodd" d="M294.913 141.614C294.913 141.614 300.016 143.471 301.635 148.251C303.254 153.031 300.783 157.993 300.783 157.993L292.079 155.596L291.606 145.428L294.913 141.614Z" fill="#84D7CC"/>
<path d="M295.246 169.726C295.246 169.726 313.879 142.875 333.025 119.675" stroke="white" stroke-width="0.6"/>
<circle cx="43" cy="73.5581" r="27" fill="#84D7CC"/>
<circle cx="43" cy="71.5581" r="27" fill="white"/>
<path fill-rule="evenodd" clip-rule="evenodd" d="M174.999 24.5078C174.999 24.5078 177.777 23.4908 182.463 26.4725C187.148 29.4542 222.924 38.4173 225.054 43.955C227.184 49.4918 242.092 101.884 244.221 103.588C246.352 105.293 252.315 122.756 253.167 129.998C254.019 137.239 253.593 145.332 249.333 149.166C245.074 152.999 238.258 158.537 221.646 152.999L213.766 150.656C213.766 150.656 215.896 164.287 213.766 167.695C213.766 167.695 159.822 180.628 109.986 169.128C109.986 169.128 111.505 137.214 113.025 126.576C113.025 126.576 97.4 46.9061 111.111 39.9077C124.423 33.1136 142.976 26.9144 151.709 26.2754C157.408 25.8578 174.999 24.5078 174.999 24.5078Z" fill="#3393E3"/>
<path fill-rule="evenodd" clip-rule="evenodd" d="M185.212 134.891L209.293 123.608L210.997 112.534C204.211 73.5123 210.187 40.4157 224.102 42.9708C229.937 44.0427 251.888 115.09 253.166 129.998C253.789 137.262 253.593 145.332 249.333 149.165C247.442 150.868 245.043 152.905 241.509 154.16C234.658 156.063 229.882 155.566 225.1 154.027C223.997 153.737 215.092 151.006 213.889 150.604L185.212 134.891Z" fill="#1868AB"/>
<path fill-rule="evenodd" clip-rule="evenodd" d="M246.99 125.951C246.99 125.951 230.866 118.445 215.895 122.544C200.925 126.642 215.895 119.135 215.895 119.135C215.895 119.135 233.785 111.468 246.99 125.951Z" fill="#135388"/>
<path fill-rule="evenodd" clip-rule="evenodd" d="M116.433 121.512C126.63 83.2414 124.378 39.532 110.292 40.8514C104.384 41.4049 76.5068 98.8222 73.9211 113.56C72.6611 120.742 72.1463 128.797 76.0514 132.991C76.0685 133.01 84.3503 139.271 93.0785 136.455C108.375 131.519 116.433 121.512 116.433 121.512Z" fill="#1868AB"/>
<path fill-rule="evenodd" clip-rule="evenodd" d="M78.5146 109.341C78.5146 109.341 93.9172 100.447 109.189 103.216C124.462 105.984 108.891 99.821 108.891 99.821C108.891 99.821 90.3964 93.755 78.5146 109.341Z" fill="#135388"/>
<path fill-rule="evenodd" clip-rule="evenodd" d="M214.674 108.965C216.393 108.229 223.211 105.695 229.505 107.214C229.801 107.286 230.082 107.409 230.335 107.579C231.327 108.245 233.099 110.066 227.727 112.415C220.966 115.374 213.785 115.816 212.424 126.64C212.405 126.797 212.4 126.955 212.408 127.113C212.473 128.409 212.475 135.062 205.396 133.349C205.236 133.31 205.076 133.252 204.925 133.184L202.507 132.084C201.535 131.643 200.405 131.835 199.608 132.545C198.69 133.362 196.803 134.16 192.942 133.729C192.849 133.719 192.753 133.713 192.659 133.713H190.482C189.853 133.713 189.239 133.927 188.765 134.34C187.582 135.369 184.763 137.162 180.619 135.654C180.248 135.519 179.909 135.305 179.63 135.026L172.964 128.36C172.847 128.244 172.743 128.116 172.649 127.98C172.128 127.228 170.041 124.464 166.391 122.638C162.574 120.73 169.015 117.113 174.073 120.363C175.073 121.004 176.371 120.993 177.287 120.237C178.692 119.076 181.031 117.712 184.162 117.861C184.776 117.889 185.386 117.733 185.881 117.369C188.199 115.666 195.615 110.993 204.026 113.712C204.758 113.949 205.553 113.883 206.219 113.499C208.239 112.334 212.6 109.854 214.674 108.965Z" fill="#F2CBA8"/>
<path d="M208.56 123.064C208.56 123.064 208.133 126.046 205.578 124.341C203.242 122.784 196.28 116.601 191.848 122.054C191.084 122.992 191.267 124.384 192.219 125.129L200.466 131.583" stroke="#E79E5C" stroke-width="0.5"/>
<path d="M191.948 122.212C191.948 122.212 187.489 118.097 183.189 121.559C182.291 122.283 182.192 123.621 182.934 124.504L190.67 133.713" stroke="#E79E5C" stroke-width="0.5"/>
<path d="M185.984 127.75C185.132 127.75 184.28 127.75 183.428 128.601C183.428 128.601 177.882 118.574 170.006 125.079" stroke="#E79E5C" stroke-width="0.5"/>
<path fill-rule="evenodd" clip-rule="evenodd" d="M182.608 7.32251C182.608 7.32251 180.81 20.5003 181.737 27.7696C182.051 30.2266 180.865 32.6251 178.707 33.8401C173.452 36.7984 163.456 40.3192 152.252 33.4729C150.253 32.2516 149.134 29.9899 149.386 27.6616C149.984 22.141 150.802 11.6263 148.958 7.32251H182.608Z" fill="#E79E5C"/>
<path fill-rule="evenodd" clip-rule="evenodd" d="M181.484 21.4609C181.484 21.4609 174.015 28.2352 149.917 21.4609V11.8669H181.484V21.4609Z" fill="#E79E5C"/>
<mask id="mask5_5567_153090" style="mask-type:alpha" maskUnits="userSpaceOnUse" x="137" y="-10" width="58" height="30">
<path fill-rule="evenodd" clip-rule="evenodd" d="M137.447 -9.1001H194.535V19.6749H137.447V-9.1001Z" fill="white"/>
</mask>
<g mask="url(#mask5_5567_153090)">
<path fill-rule="evenodd" clip-rule="evenodd" d="M194.535 0.933358C194.535 0.933358 189.354 19.4365 171.464 19.4365L158.328 19.675C158.328 19.675 151.087 18.8236 141.716 7.32246C141.716 7.32246 138.308 1.35906 137.457 -5.88234C136.604 -13.1228 194.535 -5.88234 194.535 -5.88234V0.933358Z" fill="#F2CBA8"/>
</g>
<path fill-rule="evenodd" clip-rule="evenodd" d="M115.964 121.46C115.964 121.46 122.948 122.079 125.939 119.214C128.93 116.35 143.849 102.418 146.314 101.072C148.779 99.7264 148.985 97.3981 148.985 97.3981L147.742 93.7684L145.026 93.5281L141.421 90.0811L135.919 90.3763L129.698 98.821L124.72 110.894L115.964 121.46Z" fill="#E79E5C"/>
<path fill-rule="evenodd" clip-rule="evenodd" d="M138.216 77.6746L146.541 72.7318C147.8 71.9839 149.332 71.8507 150.702 72.37L159.263 75.6154C160.022 75.9034 160.305 76.8502 159.801 77.4874C158.859 78.6754 157.116 80.0794 154.512 79.1164L150.034 77.5657C149.103 77.2435 148.075 77.4523 147.332 78.0994C146.804 78.5593 146.063 79.1506 145.063 79.8445C142.563 81.5788 138.216 77.6746 138.216 77.6746Z" fill="#F2CBA8"/>
<path fill-rule="evenodd" clip-rule="evenodd" d="M186.085 111.893L140.602 115.986C137.635 116.254 135.02 114.075 134.762 111.122L132.122 80.9336L186.924 76.0026C187.71 75.9312 188.403 76.5082 188.472 77.2907L190.989 106.062C191.246 109.016 189.05 111.626 186.085 111.893Z" fill="#D8B56D"/>
<path d="M144.408 92.4619L189.592 88.5376" stroke="#99762F" stroke-width="2"/>
<path d="M144.408 100.462L189.592 96.5376" stroke="#99762F" stroke-width="2"/>
<path d="M145.408 108.462L190.592 104.538" stroke="#99762F" stroke-width="2"/>
<path d="M143.408 85.4619L188.592 81.5376" stroke="#99762F" stroke-width="2"/>
<mask id="mask6_5567_153090" style="mask-type:alpha" maskUnits="userSpaceOnUse" x="131" y="75" width="60" height="40">
<path fill-rule="evenodd" clip-rule="evenodd" d="M134.558 110.032C134.811 112.945 137.396 115.089 140.331 114.822L185.521 110.708C188.457 110.441 190.633 107.863 190.382 104.95L187.939 76.6843C187.93 76.5737 187.908 76.4674 187.875 76.3667L187.863 76.3319C187.652 75.7449 187.062 75.3524 186.406 75.4119L131.996 80.3641" fill="white"/>
</mask>
<g mask="url(#mask6_5567_153090)">
<path fill-rule="evenodd" clip-rule="evenodd" d="M154.173 85.9119L154.191 85.771C154.227 85.4892 154.401 85.2422 154.655 85.1131C155.698 84.585 156.284 84.0126 156.237 83.4568C156.107 81.9652 151.455 81.1702 145.844 81.6806C140.233 82.191 135.788 83.8153 135.918 85.3071C135.967 85.8884 136.702 86.3637 137.913 86.6969C138.211 86.7789 138.443 87.0115 138.518 87.3084C138.611 87.6724 138.449 88.0481 138.128 88.2507C132.491 91.8013 129.025 98.3181 129.786 105.37C130.837 115.103 139.419 122.062 149.256 121.167C159.178 120.263 166.533 111.553 165.682 101.713C165.09 94.8536 160.667 89.2556 154.682 86.7986C154.33 86.6549 154.126 86.2877 154.173 85.9119Z" fill="#D8B56D"/>
</g>
<mask id="mask7_5567_153090" style="mask-type:alpha" maskUnits="userSpaceOnUse" x="131" y="75" width="60" height="40">
<path fill-rule="evenodd" clip-rule="evenodd" d="M134.558 110.032C134.811 112.945 137.396 115.089 140.331 114.822L185.521 110.708C188.457 110.441 190.633 107.863 190.382 104.95L187.939 76.6843C187.93 76.5737 187.908 76.4674 187.875 76.3667L187.863 76.3319C187.652 75.7449 187.062 75.3524 186.406 75.4119L131.996 80.3641L134.558 110.032Z" fill="white"/>
</mask>
<g mask="url(#mask7_5567_153090)">
<path fill-rule="evenodd" clip-rule="evenodd" d="M136.268 82.1867C133.495 83.1417 132.147 84.3113 132.262 85.6601C132.352 86.6992 133.278 87.4786 135.017 87.9771C131.862 89.9851 129.314 92.8036 127.647 96.1345C125.911 99.5978 125.213 103.466 125.628 107.321C126.2 112.652 128.793 117.432 132.929 120.781C137.064 124.128 142.313 125.699 147.71 125.205C149.375 125.053 151.015 124.702 152.584 124.162C161.498 121.092 167.166 112.453 166.366 103.152C165.722 95.6374 160.964 89.1788 153.946 86.2857L153.956 86.2021C155.517 85.4066 156.263 84.4891 156.175 83.4727C156.064 82.176 154.651 81.2885 151.976 80.8338C149.773 80.4599 146.9 80.4057 143.885 80.6807C141.037 80.9412 138.332 81.4761 136.268 82.1867ZM136.586 83.1093C138.502 82.4496 141.093 81.916 143.968 81.6528C150.03 81.0985 155.055 81.9524 155.194 83.562C155.245 84.1602 154.611 84.779 153.484 85.3484C153.21 85.4878 153.021 85.7543 152.983 86.058L152.962 86.2102C152.912 86.6164 153.132 87.0114 153.511 87.1661C159.976 89.8114 164.749 95.8456 165.385 103.242C166.158 112.254 160.542 120.39 152.267 123.24C150.797 123.746 149.242 124.085 147.627 124.233C137.002 125.205 127.735 117.707 126.608 107.211C125.79 99.6065 129.539 92.5759 135.63 88.7434C135.976 88.5247 136.152 88.1191 136.053 87.7266C135.971 87.4068 135.72 87.1561 135.399 87.0679C134.092 86.7091 133.298 86.197 133.244 85.5705C133.172 84.7252 134.464 83.8399 136.586 83.1093Z" fill="#99762F"/>
</g>
<path d="M140.449 92.095C140.449 92.095 146.728 88.8728 151.587 91.2433" stroke="#99762F" stroke-width="3" stroke-linecap="round"/>
<path fill-rule="evenodd" clip-rule="evenodd" d="M103.878 106.904C103.93 106.797 104.053 106.745 104.166 106.782C105.229 107.124 110.455 108.374 114.222 101.363C118.435 93.5227 122.009 84.0628 125.354 81.6211C127.796 79.8373 132.363 77.6161 134.648 76.5478C135.527 76.1374 136.524 76.0672 137.454 76.3462L145.197 78.6754C146.352 79.0237 147.226 79.975 147.475 81.1567L148.978 88.3036C148.991 88.3684 148.978 88.435 148.939 88.4899C148.529 89.0479 146.106 92.0512 143.978 88.003C143.966 87.9796 143.949 87.9562 143.929 87.9391C143.829 87.8545 143.462 87.4738 143.233 86.2435C143.078 85.4164 142.419 84.7756 141.59 84.6325C140.818 84.4993 139.779 84.2275 138.557 83.6794C137.758 83.3203 136.845 83.3167 136.057 83.6992L135.758 83.8441C135.578 83.9323 135.583 84.1906 135.766 84.2725L141.947 87.0544C143.131 87.5881 143.812 88.8499 143.605 90.1324L143.102 93.2527C143.093 93.3184 143.108 93.3832 143.149 93.4354C143.377 93.7225 144.137 94.7386 144.078 95.3992C144.026 95.9932 141.024 100.856 140.077 103.062C139.8 103.707 135.009 107.307 134.48 107.125C132.896 106.579 133.231 104.017 134.193 102.624L136.935 98.6536C137.037 98.5051 136.946 98.3008 136.766 98.2846C136.06 98.2189 134.512 97.975 132.704 97.0624C132.56 96.9904 132.386 97.0732 132.361 97.2325C131.952 99.9001 128.801 118.247 119.069 121.735C109.919 125.016 106.653 125.549 105.965 125.632C105.875 125.643 105.788 125.603 105.738 125.527C105.011 124.404 99.6234 115.588 103.878 106.904Z" fill="#F2CBA8"/>
<path d="M132.461 89.6797C132.461 89.6797 140.296 91.7416 143.262 93.5677" stroke="#E79E5C" stroke-width="0.7794" stroke-linecap="round" stroke-linejoin="round"/>
<path fill-rule="evenodd" clip-rule="evenodd" d="M110.27 104.948C110.27 104.948 99.8487 119.283 112.247 125.72L105.034 129.659C105.034 129.659 92.0709 119.276 101.12 104.902L110.27 104.948Z" fill="#1868AB"/>
<path fill-rule="evenodd" clip-rule="evenodd" d="M273.64 173.488C268.941 168.378 264.477 160.956 265.176 153.698C266.088 144.215 274.002 146.255 273.532 142.649C272.924 137.991 266.728 133.949 268.332 128.167C270.219 121.366 277.496 122.259 278.356 118.854C279.57 114.055 282.676 104.075 287.485 104.448C292.741 104.855 289.969 115.137 289.773 119.568C289.567 124.209 296.634 122.337 297.789 128C299.307 135.442 290.686 138.515 291.322 142.903C292.012 147.662 301.148 150.033 301.148 158.409C301.148 163.815 298.783 169.108 293.327 173.547C287.409 173.77 280.105 173.385 273.64 173.488Z" fill="#BBF0D3"/>
<path fill-rule="evenodd" clip-rule="evenodd" d="M179.408 109.722C179.091 110.039 178.706 110.244 178.274 110.352C176.949 110.685 175.624 109.986 175.164 108.719C175.118 108.593 175.082 108.464 175.059 108.332C175.036 108.294 175.061 108.246 175.032 108.209C175.024 108.092 175.016 107.976 175.008 107.86C175.027 107.825 175.009 107.789 175.011 107.754C174.987 107.279 175.15 106.856 175.395 106.462C175.739 105.91 176.238 105.552 176.856 105.354C176.955 105.322 177.059 105.311 177.162 105.304C177.203 105.296 177.247 105.31 177.286 105.285C177.396 105.277 177.507 105.269 177.617 105.262C177.653 105.281 177.689 105.262 177.725 105.265C178.233 105.244 178.677 105.421 179.095 105.686C179.118 105.701 179.137 105.722 179.143 105.751C179.139 105.819 179.086 105.859 179.045 105.903C178.634 106.34 178.413 106.859 178.375 107.451C178.336 108.055 178.489 108.611 178.848 109.107C178.973 109.28 179.118 109.436 179.286 109.57C179.331 109.607 179.38 109.641 179.412 109.691C179.417 109.702 179.415 109.712 179.408 109.722Z" fill="#BCD430"/>
<path fill-rule="evenodd" clip-rule="evenodd" d="M179.408 109.722C179.407 109.716 179.406 109.709 179.405 109.703C179.538 109.564 179.662 109.417 179.769 109.257C180.042 108.845 180.181 108.394 180.194 107.9C180.206 107.431 180.09 106.996 179.862 106.591C179.699 106.301 179.486 106.049 179.217 105.847C179.185 105.822 179.147 105.801 179.142 105.754C179.148 105.7 179.192 105.673 179.228 105.643C179.509 105.404 179.826 105.226 180.182 105.121C180.278 105.092 180.378 105.081 180.478 105.072C180.519 105.064 180.564 105.078 180.602 105.053C180.706 105.046 180.81 105.038 180.913 105.031C180.955 105.054 181 105.023 181.042 105.04C181.578 105.057 182.062 105.221 182.491 105.542C182.503 105.595 182.463 105.623 182.433 105.654C182.163 105.934 181.96 106.255 181.848 106.626C181.564 107.563 181.751 108.4 182.396 109.138C182.476 109.229 182.567 109.307 182.658 109.387C182.69 109.415 182.736 109.437 182.73 109.492C182.441 109.785 182.09 109.979 181.697 110.092C180.913 110.318 180.175 110.206 179.49 109.764C179.464 109.747 179.442 109.724 179.408 109.722Z" fill="#74BD45"/>
<path fill-rule="evenodd" clip-rule="evenodd" d="M177.161 105.319C177.162 105.312 177.162 105.306 177.162 105.299C177.204 105.296 177.245 105.293 177.287 105.29C177.251 105.332 177.204 105.318 177.161 105.319Z" fill="#D9E68B"/>
<path fill-rule="evenodd" clip-rule="evenodd" d="M180.478 105.088C180.479 105.081 180.479 105.074 180.478 105.067C180.52 105.064 180.561 105.061 180.603 105.058C180.567 105.097 180.521 105.087 180.478 105.088Z" fill="#BDDFA8"/>
<path fill-rule="evenodd" clip-rule="evenodd" d="M181.043 105.048C180.999 105.053 180.955 105.074 180.914 105.036C180.955 105.033 180.997 105.031 181.038 105.028C181.039 105.034 181.041 105.041 181.043 105.048Z" fill="#A7D58A"/>
<path fill-rule="evenodd" clip-rule="evenodd" d="M175.038 108.209C175.076 108.244 175.066 108.289 175.067 108.332C175.06 108.332 175.053 108.332 175.046 108.332C175.043 108.291 175.041 108.25 175.038 108.209Z" fill="#E5EEB1"/>
<path fill-rule="evenodd" clip-rule="evenodd" d="M177.722 105.26C177.723 105.266 177.724 105.273 177.725 105.279C177.689 105.285 177.652 105.3 177.618 105.267C177.652 105.264 177.687 105.262 177.722 105.26Z" fill="#E0EBA0"/>
<path fill-rule="evenodd" clip-rule="evenodd" d="M175.006 107.757C175.012 107.753 175.018 107.752 175.025 107.752C175.031 107.789 175.047 107.826 175.013 107.859C175.011 107.825 175.009 107.791 175.006 107.757Z" fill="#DFEBA0"/>
<path fill-rule="evenodd" clip-rule="evenodd" d="M182.73 109.491C182.549 109.323 182.359 109.163 182.212 108.962C181.965 108.624 181.8 108.254 181.731 107.839C181.615 107.138 181.771 106.5 182.175 105.92C182.268 105.785 182.385 105.667 182.492 105.541C182.71 105.361 182.935 105.193 183.194 105.072C184.704 104.368 186.496 105.242 186.849 106.856C187.152 108.242 186.267 109.629 184.877 109.931C184.13 110.093 183.435 109.958 182.802 109.528C182.78 109.513 182.76 109.492 182.73 109.491Z" fill="#0AA94E"/>
<path fill-rule="evenodd" clip-rule="evenodd" d="M179.134 105.755C179.14 105.754 179.146 105.754 179.152 105.755C179.37 105.924 179.569 106.112 179.73 106.337C179.972 106.673 180.126 107.043 180.19 107.453C180.289 108.081 180.166 108.661 179.836 109.201C179.732 109.371 179.617 109.534 179.466 109.667C179.447 109.683 179.43 109.7 179.405 109.703C178.812 109.256 178.451 108.674 178.364 107.936C178.268 107.136 178.505 106.441 179.053 105.848C179.081 105.818 179.107 105.786 179.134 105.755Z" fill="#0AA94E"/>
<path fill-rule="evenodd" clip-rule="evenodd" d="M183.086 106.645C183.028 106.685 182.987 106.709 182.951 106.739C182.9 106.783 182.86 106.777 182.82 106.726C182.776 106.67 182.814 106.639 182.855 106.609C183.306 106.286 183.81 106.117 184.367 106.119C184.803 106.121 185.214 106.231 185.604 106.419C185.651 106.442 185.706 106.458 185.671 106.531C185.638 106.6 185.59 106.592 185.534 106.565C185.498 106.547 185.461 106.531 185.42 106.512C185.418 106.556 185.443 106.582 185.458 106.611C185.712 107.097 185.967 107.582 186.222 108.068C186.298 108.214 186.279 108.306 186.147 108.408C186.024 108.502 185.88 108.552 185.73 108.584C185.47 108.638 185.209 108.651 184.948 108.591C184.86 108.571 184.775 108.542 184.7 108.492C184.578 108.412 184.55 108.329 184.599 108.192C184.796 107.64 184.99 107.087 185.194 106.537C185.227 106.446 185.204 106.424 185.122 106.399C184.511 106.213 183.916 106.243 183.333 106.511C183.255 106.547 183.244 106.576 183.284 106.652C183.562 107.173 183.834 107.696 184.108 108.218C184.182 108.36 184.165 108.45 184.039 108.551C183.914 108.649 183.767 108.7 183.614 108.732C183.354 108.786 183.093 108.799 182.832 108.739C182.76 108.723 182.692 108.699 182.628 108.665C182.465 108.579 182.431 108.492 182.493 108.319C182.677 107.803 182.862 107.286 183.046 106.77C183.058 106.736 183.068 106.701 183.086 106.645Z" fill="#FEFEFE"/>
<path fill-rule="evenodd" clip-rule="evenodd" d="M182.665 108.288C182.675 108.253 182.68 108.234 182.686 108.215C182.853 107.747 183.02 107.279 183.187 106.81C183.214 106.82 183.22 106.84 183.229 106.858C183.449 107.277 183.667 107.697 183.889 108.115C183.925 108.182 183.924 108.203 183.839 108.208C183.452 108.231 183.065 108.26 182.665 108.288Z" fill="#0AA94E"/>
<path fill-rule="evenodd" clip-rule="evenodd" d="M186.044 108.047C185.616 108.077 185.204 108.106 184.777 108.136C184.954 107.64 185.127 107.154 185.308 106.643C185.558 107.119 185.797 107.577 186.044 108.047Z" fill="#0AA94E"/>
<path d="M284.138 167.341C284.138 167.341 283.011 140.099 287.065 109.353" stroke="white" stroke-width="0.6"/>
<path d="M292.999 162.836C292.999 162.836 287.061 158.444 283.682 152.475" stroke="white" stroke-width="0.6"/>
<path d="M285.615 134.846L295.088 129.45" stroke="white" stroke-width="0.6"/>
</g>
<mask id="mask8_5567_153090" style="mask-type:alpha" maskUnits="userSpaceOnUse" x="21" y="64" width="17" height="14">
<path fill-rule="evenodd" clip-rule="evenodd" d="M21.2871 67.1253V72.6403C21.2871 73.6263 21.9801 74.5073 23.0191 74.8343L30.9701 77.3503C31.5091 77.5213 32.0801 77.5193 32.6041 77.3723V68.3173L37.7571 64.8533L21.2871 67.1253Z" fill="white"/>
</mask>
<g mask="url(#mask8_5567_153090)">
<path fill-rule="evenodd" clip-rule="evenodd" d="M18.542 80.2252H40.502V62.1082H18.542V80.2252Z" fill="#1868AB"/>
</g>
<mask id="mask9_5567_153090" style="mask-type:alpha" maskUnits="userSpaceOnUse" x="32" y="64" width="7" height="14">
<path fill-rule="evenodd" clip-rule="evenodd" d="M37.4621 64.9693L32.2671 68.4313V77.4803C32.7081 77.3583 33.1141 77.1393 33.4361 76.8203L37.6351 72.6733C38.0671 72.2473 38.3061 71.6923 38.3061 71.1173V64.8533L37.4621 64.9693Z" fill="white"/>
</mask>
<g mask="url(#mask9_5567_153090)">
<path fill-rule="evenodd" clip-rule="evenodd" d="M29.522 80.2252H41.052V62.1082H29.522V80.2252Z" fill="#135388"/>
</g>
<mask id="mask10_5567_153090" style="mask-type:alpha" maskUnits="userSpaceOnUse" x="21" y="62" width="18" height="8">
<path fill-rule="evenodd" clip-rule="evenodd" d="M27.6651 62.5014L21.2871 67.1994L30.6581 69.6814C31.7421 69.9684 32.9121 69.6994 33.7101 68.9804L38.3061 64.8414L29.4951 62.1964C29.2961 62.1374 29.0911 62.1074 28.8871 62.1074C28.4481 62.1074 28.0151 62.2434 27.6651 62.5014Z" fill="white"/>
</mask>
<g mask="url(#mask10_5567_153090)">
<path fill-rule="evenodd" clip-rule="evenodd" d="M18.542 72.5405H41.052V59.3635H18.542V72.5405Z" fill="#63B5FA"/>
</g>
<mask id="mask11_5567_153090" style="mask-type:alpha" maskUnits="userSpaceOnUse" x="27" y="58" width="9" height="11">
<path fill-rule="evenodd" clip-rule="evenodd" d="M29.275 58.4834C28.475 58.9034 28.068 59.1084 27.249 59.5114C28.12 59.0844 29.201 59.1514 30.264 59.7924C32.376 61.0654 33.336 63.8444 32.685 66.2794C32.361 67.4874 31.734 68.4164 30.897 68.8604C31.695 68.4364 32.099 68.2304 32.916 67.8264C33.773 67.4024 34.444 66.5164 34.797 65.3364C34.941 64.8534 35.013 64.3494 35.019 63.8434V63.7294C34.999 61.7854 33.997 59.8154 32.303 58.7754C31.667 58.3874 31.034 58.2004 30.449 58.2004C30.027 58.2004 29.63 58.2974 29.275 58.4834Z" fill="white"/>
</mask>
<g mask="url(#mask11_5567_153090)">
<path fill-rule="evenodd" clip-rule="evenodd" d="M24.5039 71.6043H37.7639V55.4543H24.5039V71.6043Z" fill="#ECCC8B"/>
</g>
<mask id="mask12_5567_153090" style="mask-type:alpha" maskUnits="userSpaceOnUse" x="26" y="59" width="7" height="9">
<path fill-rule="evenodd" clip-rule="evenodd" d="M27.7291 60.6933C27.0671 60.9983 26.5331 61.6383 26.2561 62.5163C25.7021 64.2833 26.4911 66.4503 28.0811 67.4083C28.8831 67.8913 29.6971 67.9383 30.3551 67.6173C31.0221 67.2933 31.3591 67.1343 32.0361 66.8193C31.3681 67.1303 30.5561 67.0843 29.7701 66.6163C28.2071 65.6853 27.4561 63.5583 27.9861 61.7663C28.2501 60.8753 28.7661 60.2183 29.4201 59.9053C28.7481 60.2243 28.4101 60.3833 27.7291 60.6933Z" fill="white"/>
</mask>
<g mask="url(#mask12_5567_153090)">
<path fill-rule="evenodd" clip-rule="evenodd" d="M23.335 70.5672H34.782V57.1592H23.335V70.5672Z" fill="#C69C45"/>
</g>
<mask id="mask13_5567_153090" style="mask-type:alpha" maskUnits="userSpaceOnUse" x="25" y="59" width="8" height="11">
<path fill-rule="evenodd" clip-rule="evenodd" d="M25.3532 61.9872C24.6382 64.3542 25.6882 67.2302 27.8652 68.5672C30.0412 69.9072 32.0362 68.7112 32.6862 66.2792C33.3362 63.8472 32.3742 61.0592 30.2632 59.7852C29.6572 59.4212 29.0542 59.2512 28.4852 59.2512C27.0692 59.2512 25.8632 60.2982 25.3532 61.9872ZM28.0822 67.4082C26.4912 66.4502 25.7022 64.2832 26.2572 62.5162C26.8122 60.7472 28.4412 59.9732 29.9942 60.8952C31.5482 61.8162 32.2872 63.9322 31.7702 65.7382C31.4012 67.0242 30.4932 67.8122 29.4262 67.8122C28.9962 67.8122 28.5402 67.6842 28.0822 67.4082Z" fill="white"/>
</mask>
<g mask="url(#mask13_5567_153090)">
<path fill-rule="evenodd" clip-rule="evenodd" d="M22.3853 71.8701H35.6323V56.5061H22.3853V71.8701Z" fill="#D8B56D"/>
</g>
<mask id="mask14_5567_153090" style="mask-type:alpha" maskUnits="userSpaceOnUse" x="29" y="57" width="3" height="3">
<path fill-rule="evenodd" clip-rule="evenodd" d="M30.6249 57.7463C30.1919 57.8703 29.9729 57.9323 29.5359 58.0533C29.4189 58.3153 29.3589 58.4433 29.2339 58.6973C29.5529 58.8333 29.7109 58.9003 30.0279 59.0353C30.4709 58.9183 30.6929 58.8573 31.1349 58.7393C31.2589 58.4853 31.3209 58.3563 31.4379 58.0953C31.1179 57.9573 30.9549 57.8873 30.6359 57.7463H30.6249Z" fill="white"/>
</mask>
<g mask="url(#mask14_5567_153090)">
<path fill-rule="evenodd" clip-rule="evenodd" d="M26.4888 61.7793H34.1818V54.9993H26.4888V61.7793Z" fill="#FF728C"/>
</g>
<mask id="mask15_5567_153090" style="mask-type:alpha" maskUnits="userSpaceOnUse" x="29" y="58" width="2" height="2">
<path fill-rule="evenodd" clip-rule="evenodd" d="M29.0151 59.2314C29.3871 59.3884 29.5721 59.4654 29.9431 59.6204C29.9791 59.3884 29.9971 59.2704 30.0281 59.0354C29.7111 58.9004 29.5531 58.8334 29.2341 58.6974C29.1491 58.9134 29.1051 59.0204 29.0151 59.2314Z" fill="white"/>
</mask>
<g mask="url(#mask15_5567_153090)">
<path fill-rule="evenodd" clip-rule="evenodd" d="M26.27 62.3654H32.773V55.9524H26.27V62.3654Z" fill="#FF3E61"/>
</g>
<mask id="mask16_5567_153090" style="mask-type:alpha" maskUnits="userSpaceOnUse" x="29" y="58" width="3" height="2">
<path fill-rule="evenodd" clip-rule="evenodd" d="M30.0279 59.0354C29.9959 59.2704 29.9799 59.3884 29.9429 59.6204C30.4689 59.4854 30.7329 59.4164 31.2579 59.2794C31.2109 59.0644 31.1859 58.9574 31.1349 58.7384C30.6929 58.8574 30.4709 58.9184 30.0279 59.0354Z" fill="white"/>
</mask>
<g mask="url(#mask16_5567_153090)">
<path fill-rule="evenodd" clip-rule="evenodd" d="M27.1978 62.3654H34.0028V55.9934H27.1978V62.3654Z" fill="#FE0B37"/>
</g>
<mask id="mask17_5567_153090" style="mask-type:alpha" maskUnits="userSpaceOnUse" x="31" y="58" width="1" height="2">
<path fill-rule="evenodd" clip-rule="evenodd" d="M31.1353 58.7395C31.1863 58.9575 31.2113 59.0645 31.2583 59.2795C31.4113 58.9845 31.4853 58.8355 31.6303 58.5325C31.5553 58.3595 31.5163 58.2715 31.4383 58.0955C31.3213 58.3565 31.2593 58.4855 31.1353 58.7395Z" fill="white"/>
</mask>
<g mask="url(#mask17_5567_153090)">
<path fill-rule="evenodd" clip-rule="evenodd" d="M28.3901 62.0243H34.3751V55.3503H28.3901V62.0243Z" fill="#FF3E61"/>
</g>
<mask id="mask18_5567_153090" style="mask-type:alpha" maskUnits="userSpaceOnUse" x="24" y="64" width="11" height="6">
<path fill-rule="evenodd" clip-rule="evenodd" d="M24.5811 65.1493V68.0893L28.6151 69.2863C30.7661 69.9233 33.0881 69.1763 34.4631 67.4033C32.3521 65.3163 29.5361 64.8523 27.4511 64.8523C25.7831 64.8523 24.5811 65.1493 24.5811 65.1493Z" fill="white"/>
</mask>
<g mask="url(#mask18_5567_153090)">
<path fill-rule="evenodd" clip-rule="evenodd" d="M21.8359 72.2554H37.2089V62.1084H21.8359V72.2554Z" fill="#63B5FA"/>
</g>
<mask id="mask19_5567_153090" style="mask-type:alpha" maskUnits="userSpaceOnUse" x="38" y="64" width="27" height="21">
<path fill-rule="evenodd" clip-rule="evenodd" d="M53.5583 64.2604C53.4333 64.2644 53.3163 64.3244 53.2373 64.4204C53.1573 64.5164 53.1233 64.6434 53.1433 64.7664L53.8253 69.0124C53.8643 69.2334 54.0643 69.3904 54.2883 69.3764C58.2133 69.1314 61.6353 70.0734 63.4933 71.8744C62.3613 75.0354 58.2803 78.0364 52.9653 79.2644C47.6483 80.4924 42.6643 79.5834 40.2623 77.2374C41.1423 74.8034 43.8053 72.4574 47.4403 70.9554C47.6483 70.8714 47.7583 70.6434 47.6963 70.4274L46.4493 66.3114C46.4113 66.1924 46.3263 66.0944 46.2123 66.0424C46.1003 65.9904 45.9683 65.9894 45.8543 66.0384C41.1013 68.1244 38.1383 71.6694 38.8773 74.8754L40.0593 79.9894C40.9873 84.0094 47.2943 85.9834 54.1503 84.4004C60.3333 82.9744 64.8443 79.1434 64.9923 75.4574V75.0844C64.9813 74.8074 64.9453 74.5324 64.8823 74.2594L63.6953 69.1244C62.9793 66.0904 59.1433 64.2454 54.3283 64.2454C54.0743 64.2454 53.8173 64.2494 53.5583 64.2604Z" fill="white"/>
</mask>
<g mask="url(#mask19_5567_153090)">
<path fill-rule="evenodd" clip-rule="evenodd" d="M37.0005 64.9509L67.1725 57.9849L72.8545 82.5929L42.6815 89.5579L37.0005 64.9509Z" fill="#ECCC8B"/>
</g>
<mask id="mask20_5567_153090" style="mask-type:alpha" maskUnits="userSpaceOnUse" x="41" y="75" width="23" height="8">
<path fill-rule="evenodd" clip-rule="evenodd" d="M63.4281 75.3374C63.2781 75.3374 63.1371 75.4154 63.0571 75.5434C61.4051 78.1734 57.7271 80.4194 53.4581 81.4044C49.1891 82.3904 44.8991 81.9844 42.2611 80.3444C42.0551 80.2164 41.7851 80.2784 41.6571 80.4844C41.5291 80.6904 41.5921 80.9614 41.7981 81.0894C44.6681 82.8754 49.1011 83.3124 53.6561 82.2604C58.2111 81.2084 62.0031 78.8724 63.8021 76.0094C63.8851 75.8784 63.8911 75.7104 63.8171 75.5714C63.7441 75.4324 63.6031 75.3434 63.4461 75.3374C63.4401 75.3374 63.4341 75.3374 63.4281 75.3374Z" fill="white"/>
</mask>
<g mask="url(#mask20_5567_153090)">
<mask id="mask21_5567_153090" style="mask-type:alpha" maskUnits="userSpaceOnUse" x="38" y="66" width="10" height="12">
<path fill-rule="evenodd" clip-rule="evenodd" d="M45.8545 66.0384C41.1025 68.1224 38.1385 71.6694 38.8785 74.8764C38.9285 75.0924 38.9955 75.3044 39.0795 75.5094C39.1215 75.6164 39.1695 75.7244 39.2195 75.8254C39.2935 75.9824 39.3785 76.1344 39.4735 76.2794C39.5695 76.4244 39.6715 76.5684 39.7785 76.7054C39.9285 76.8944 40.0895 77.0724 40.2625 77.2394C41.1425 74.8034 43.8065 72.4574 47.4405 70.9554C47.6485 70.8714 47.7595 70.6444 47.6965 70.4274L46.4485 66.3114C46.4115 66.1914 46.3265 66.0944 46.2125 66.0424C46.1545 66.0164 46.0925 66.0024 46.0295 66.0024C45.9695 66.0024 45.9105 66.0154 45.8545 66.0384Z" fill="white"/>
</mask>
<g mask="url(#mask21_5567_153090)">
<path fill-rule="evenodd" clip-rule="evenodd" d="M37.001 64.9509L51.698 61.5569L55.106 76.3219L40.409 79.7149L37.001 64.9509Z" fill="#C69C45"/>
</g>
<path fill-rule="evenodd" clip-rule="evenodd" d="M41.2109 77.3308L68.8159 70.9578L71.0759 80.7488L43.4719 87.1218L41.2109 77.3308Z" fill="#C69C45"/>
</g>
<path fill-rule="evenodd" clip-rule="evenodd" d="M54.4997 43.2966L53.1897 45.6908L50.7966 46.9997C50.4011 47.2163 50.4011 47.7837 50.7966 48.0003L53.1897 49.3092L54.4997 51.7034C54.7152 52.0989 55.2837 52.0989 55.4991 51.7034L56.8092 49.3092L59.2034 48.0003C59.5989 47.7837 59.5989 47.2163 59.2034 46.9997L56.8092 45.6908L55.4991 43.2966C55.2837 42.9011 54.7152 42.9011 54.4997 43.2966Z" fill="#FFD37B"/>
<path fill-rule="evenodd" clip-rule="evenodd" d="M252.5 26.2966L251.19 28.6908L248.797 29.9997C248.401 30.2163 248.401 30.7837 248.797 31.0003L251.19 32.3092L252.5 34.7034C252.715 35.0989 253.284 35.0989 253.499 34.7034L254.809 32.3092L257.203 31.0003C257.599 30.7837 257.599 30.2163 257.203 29.9997L254.809 28.6908L253.499 26.2966C253.284 25.9011 252.715 25.9011 252.5 26.2966Z" fill="#FFC54F"/>
<path fill-rule="evenodd" clip-rule="evenodd" d="M300.5 19.2966L299.19 21.6908L296.797 22.9997C296.401 23.2163 296.401 23.7837 296.797 24.0003L299.19 25.3092L300.5 27.7034C300.715 28.0989 301.284 28.0989 301.499 27.7034L302.809 25.3092L305.203 24.0003C305.599 23.7837 305.599 23.2163 305.203 22.9997L302.809 21.6908L301.499 19.2966C301.284 18.9011 300.715 18.9011 300.5 19.2966Z" fill="#FFC54F"/>
<path fill-rule="evenodd" clip-rule="evenodd" d="M287.5 67.2966L286.19 69.6908L283.797 70.9997C283.401 71.2163 283.401 71.7837 283.797 72.0003L286.19 73.3092L287.5 75.7034C287.715 76.0989 288.284 76.0989 288.499 75.7034L289.809 73.3092L292.203 72.0003C292.599 71.7837 292.599 71.2163 292.203 70.9997L289.809 69.6908L288.499 67.2966C288.284 66.9011 287.715 66.9011 287.5 67.2966Z" fill="#ECCC8B"/>
<path fill-rule="evenodd" clip-rule="evenodd" d="M22.9997 82.2966L21.6897 84.6908L19.2966 85.9997C18.9011 86.2163 18.9011 86.7837 19.2966 87.0003L21.6897 88.3092L22.9997 90.7034C23.2152 91.0989 23.7837 91.0989 23.9991 90.7034L25.3092 88.3092L27.7034 87.0003C28.0989 86.7837 28.0989 86.2163 27.7034 85.9997L25.3092 84.6908L23.9991 82.2966C23.7837 81.9011 23.2152 81.9011 22.9997 82.2966Z" fill="#FFD37B"/>
</svg>
