<svg width="328" height="164" viewBox="0 0 328 164" fill="none" xmlns="http://www.w3.org/2000/svg">
<path d="M23.2189 161.504C33.6809 163.667 265.053 165.826 301.876 161.504C312.777 160.224 321.503 148.276 322.776 146.203C330.736 133.238 327.751 53.2794 325.761 26.266C324.69 11.7278 309.838 5.19571 302.871 3.03482C289.548 -1.09779 53.2799 -1.26366 22.2229 4.11573C8.32787 6.52168 3.29087 17.8712 2.29087 24.1796C-0.0421274 38.8847 -1.42113 129.331 2.31887 141.514C5.30487 151.239 12.7689 159.343 23.2189 161.504Z" fill="#E8FFFC"/>
<mask id="mask0_5567_162169" style="mask-type:alpha" maskUnits="userSpaceOnUse" x="0" y="0" width="328" height="164">
<path d="M23.2189 161.504C33.6809 163.667 265.053 165.826 301.876 161.504C312.777 160.224 321.503 148.276 322.776 146.203C330.736 133.238 327.751 53.2794 325.761 26.266C324.69 11.7278 309.838 5.19571 302.871 3.03482C289.548 -1.09779 53.2799 -1.26366 22.2229 4.11573C8.32787 6.52168 3.29087 17.8712 2.29087 24.1796C-0.0421274 38.8847 -1.42113 129.331 2.31887 141.514C5.30487 151.239 12.7689 159.343 23.2189 161.504Z" fill="white"/>
</mask>
<g mask="url(#mask0_5567_162169)">
<path d="M59.0925 140H-14.0932C-17.3419 140 -20 137.351 -20 134.113V72.8866C-20 69.6487 -17.3419 67 -14.0932 67H59.0925C62.3419 67 65 69.6487 65 72.8866V134.113C65 137.351 62.3419 140 59.0925 140Z" fill="#84D7CC"/>
<path d="M52.8945 102H-9.89455C-11.6027 102 -13 100.599 -13 98.8873V80.1134C-13 78.4013 -11.6027 77 -9.89455 77H52.8945C54.6026 77 56 78.4013 56 80.1134V98.8873C56 100.599 54.6026 102 52.8945 102Z" fill="#EDFFF5"/>
<path d="M52.8945 130H-9.89455C-11.6027 130 -13 128.599 -13 126.887V108.113C-13 106.401 -11.6027 105 -9.89455 105H52.8945C54.6026 105 56 106.401 56 108.113V126.887C56 128.599 54.6026 130 52.8945 130Z" fill="#EDFFF5"/>
<path d="M25 90.5C25 92.4332 23.4325 94 21.5 94C19.5668 94 18 92.4332 18 90.5C18 88.5668 19.5668 87 21.5 87C23.4325 87 25 88.5668 25 90.5Z" fill="#BBF0D3"/>
<path d="M26 117.5C26 119.433 24.4332 121 22.5 121C20.5668 121 19 119.433 19 117.5C19 115.567 20.5668 114 22.5 114C24.4332 114 26 115.567 26 117.5Z" fill="#DAF6E5"/>
<path d="M47.9093 67H30.0914C27.2794 67 25 64.7612 25 62H53C53 64.7612 50.7206 67 47.9093 67Z" fill="#BBF0D3"/>
<path d="M193.542 71.8874L197.504 68.7121H214.614C215.829 68.7121 216.814 67.7267 216.814 66.5119V48.575C216.814 47.3601 215.829 46.3748 214.614 46.3748H192.165C190.95 46.3748 189.965 47.3601 189.965 48.575V70.1696C189.965 72.0153 192.102 73.0419 193.542 71.8874Z" fill="#00AB4E"/>
<path d="M201.805 62.3748C201.429 62.3748 201.052 62.2423 200.745 61.9742L197.404 59.0714C196.705 58.4637 196.614 57.3855 197.199 56.6636C197.786 55.9387 198.83 55.8473 199.524 56.4504L201.722 58.3602L207.162 52.8607C207.815 52.2013 208.86 52.215 209.496 52.8897C210.133 53.5659 210.119 54.6472 209.468 55.3066L202.958 61.8889C202.639 62.2118 202.222 62.3748 201.805 62.3748Z" fill="white"/>
<rect x="-6" y="139" width="360" height="49" fill="#BBF0D3"/>
<path d="M147.568 35.5278C155.193 38.3026 157.18 46.3202 155.193 54.9212C152.897 64.8659 158.178 65.2242 155.331 69.7382C152.482 74.2522 134.606 76.7366 122.128 69.7382C114.619 65.5392 122.964 56.2534 122.635 50.4002C122.128 41.3598 128.647 34.527 137.809 36.4104C137.809 36.4104 139.943 32.753 147.568 35.5278Z" fill="#864B16"/>
<path d="M136.303 174.178L143.75 137.212C144.658 133.199 148.148 130.294 152.26 130.13H223.846C227.759 130.13 230.292 133.3 229.501 137.212L222.055 174.178C221.149 178.182 217.675 181.084 213.573 181.26H141.958C138.053 181.26 135.52 178.09 136.303 174.178Z" fill="#00AB4E"/>
<path d="M116.939 74.6885H129.536L149.09 170.567H136.492C110.011 170.567 84.1655 149.095 78.7697 122.621C73.3739 96.1456 90.457 74.6885 116.939 74.6885Z" fill="#00AB4E"/>
<path d="M99.8965 87.0653C115.928 69.3167 146.561 70.8584 168.317 90.5092C190.073 110.16 194.713 140.479 178.681 158.228C162.65 175.976 132.016 174.435 110.261 154.784C88.5052 135.133 83.8653 104.814 99.8965 87.0653Z" fill="#4F7AF5"/>
<path d="M99.8965 87.0653C115.928 69.3167 146.561 70.8584 168.317 90.5092C190.073 110.16 194.713 140.479 178.681 158.228C162.65 175.976 132.016 174.435 110.261 154.784C88.5052 135.133 83.8653 104.814 99.8965 87.0653Z" fill="#28D677"/>
<path d="M162.882 96.6674L167.403 104.606C167.786 105.278 168.64 105.512 169.312 105.13C169.438 105.058 169.552 104.968 169.65 104.861L178.04 95.738L183.988 99.5473L171.259 114.842C169.529 116.921 166.44 117.204 164.36 115.473C164.091 115.25 163.847 114.998 163.632 114.722L155.472 104.266L162.882 96.6674Z" fill="#FFDAB8"/>
<path d="M204.811 159.922L209.375 137.212C210.282 133.201 213.769 130.297 217.877 130.13H225.051C228.963 130.13 231.496 133.3 230.713 137.212L223.266 174.178C222.358 178.191 218.868 181.095 214.756 181.26H124.694V159.922H204.811Z" fill="#4F7AF5"/>
<path d="M204.811 159.922L209.375 137.212C210.282 133.201 213.769 130.297 217.877 130.13H225.051C228.963 130.13 231.496 133.3 230.713 137.212L223.266 174.178C222.358 178.191 218.868 181.095 214.756 181.26H124.694V159.922H204.811Z" fill="#28D677"/>
<path d="M167.416 102.822L156.783 111.145C156.783 111.145 147.158 96.2785 148.096 91.2746C149.075 86.0888 146.776 78.0412 151.185 78.741C156.783 79.6858 167.548 103.179 167.416 102.822Z" fill="#FFC54F"/>
<path d="M182.085 87.3334C182.63 86.0485 183.877 85.2729 184.059 85.052C184.24 84.8304 185.52 83.1562 185.567 83.0723C185.614 82.99 186.842 80.9408 187.019 80.7892C187.195 80.6361 187.59 80.3137 188.345 80.9889C189.102 81.6633 188.293 85.4048 188.293 85.4048L185.772 93.1433L185.905 96.6439L183.71 100.01C183.71 100.01 178.396 97.2918 177.989 95.7201C177.989 95.7201 181.128 91.3576 181.665 90.0701C181.724 89.9276 181.538 88.6168 182.085 87.3334Z" fill="#FFDAB8"/>
<path d="M181.978 92.9143C181.79 92.5717 181.806 92.1502 182.02 91.8235L190.864 77.3173C191.095 76.9624 192.014 77.1965 192.301 77.5054L196.109 81.6121C196.448 81.9782 196.483 82.5396 196.192 82.9474L185.662 97.697C185.383 98.0883 184.802 98.0534 184.571 97.6324L181.978 92.9143Z" fill="#252528"/>
<path d="M183.872 97.5961L181.279 92.8772C181.091 92.5354 181.107 92.114 181.32 91.7864L190.59 77.5595C190.821 77.2038 191.316 77.1596 191.602 77.4693L195.409 81.5759C195.749 81.9413 195.784 82.5027 195.492 82.9104L184.963 97.6607C184.684 98.0512 184.104 98.017 183.872 97.5961Z" fill="#58585B"/>
<path d="M193.918 80.9871L193.491 81.063C193.378 81.0842 193.262 81.0459 193.183 80.9603L191.673 79.3355C191.606 79.2623 191.574 79.1639 191.583 79.0654L191.637 78.5579L191.238 78.1329C190.976 77.8538 190.524 77.8931 190.313 78.2135L181.564 91.7314C181.369 92.027 181.276 92.4598 181.449 92.7695L183.743 96.9728C183.956 97.3527 184.374 97.3253 184.629 96.9728L194.799 83.0497C195.065 82.6809 195.033 82.174 194.722 81.8432L193.918 80.9871Z" fill="white"/>
<path d="M188.284 94.1547C188.284 94.1547 189.247 94.7488 189.715 94.7004C190.181 94.6528 190.56 94.3686 190.854 93.7404C191.148 93.1129 189.887 89.8216 189.261 89.778C188.807 89.7472 188.182 89.923 188.232 91.1641C188.282 92.4067 188.544 93.738 188.544 93.738L188.284 94.1547Z" fill="#FFDAB8"/>
<path d="M190.349 91.9371C190.349 91.9371 192.267 91.7024 192.421 91.0569C192.575 90.4113 191.292 88.341 191.078 87.9186C190.865 87.4956 189.704 87.905 189.739 88.973C189.775 90.0411 190.344 91.4189 190.344 91.4189L190.349 91.9371Z" fill="#FFDAB8"/>
<path d="M191.943 89.1415C191.943 89.1415 192.061 87.54 192.542 86.8101C193.024 86.0795 193.891 86.7492 193.943 86.9422C193.994 87.1337 194.094 89.2598 193.616 89.7305C193.14 90.202 191.751 90.6091 191.751 90.6091L191.943 89.1415Z" fill="#FFDAB8"/>
<path d="M185.55 96.6673C185.55 96.6673 187.88 95.8069 188.272 95.1762C188.664 94.5461 187.45 92.6666 187.21 92.501C186.97 92.3363 185.964 92.8164 185.878 93.4084C185.792 94.0004 186.295 95.619 186.295 95.619L185.55 96.6673Z" fill="#FFDAB8"/>
<path d="M153.905 129.024L121.092 128.611C121.982 116.126 120.369 106.629 117.324 84.7874C116.782 80.9054 119.489 77.3194 123.37 76.777C123.454 76.7651 123.539 76.7546 123.623 76.7462C125.793 76.5223 128.263 76.3333 130.74 76.2913C136.444 76.1863 141.105 76.1374 146.095 76.7462C147.739 76.9492 149.09 77.48 150.279 78.0664C155.664 80.7226 158.779 94.4719 158.614 100.221C158.609 100.395 157.865 108.659 153.905 129.024Z" fill="#DF9F1C"/>
<path d="M132.777 59.0471C133.603 64.016 134.295 73.0929 130.74 76.2912C130.74 76.2912 131.95 77.9923 137.937 81.6532C140.427 83.1753 145.288 82.1663 146.431 79.481C147.233 77.595 146.095 76.7461 146.095 76.7461C142.841 76.2912 145.017 71.2529 146.095 67.4457L132.777 59.0471Z" fill="#FFB490"/>
<path d="M127.262 51.7368C128.746 59.8689 129.201 63.3401 133.847 67.0493C140.846 72.648 150.49 69.0228 151.462 60.6107C152.337 53.0455 149.762 41.0152 141.357 38.7197C135.358 37.0471 129.141 40.5533 127.468 46.551C126.997 48.2404 126.927 50.0159 127.262 51.7368Z" fill="#FFDAB8"/>
<path d="M134.254 50.4144C130.656 54.2495 134.023 60.3451 127.989 56.0481C125.113 53.9975 125.232 43.171 126.842 41.1485C128.452 39.1259 135.058 36.3966 138.382 37.7473C149.537 42.2682 138.312 46.0963 134.254 50.4144Z" fill="#864B16"/>
<path d="M125.498 59.1763C126.308 60.6873 127.685 61.8147 129.326 62.3116C131.51 62.9484 132.629 61.0029 132.048 58.9314C131.523 57.0628 129.753 54.4874 127.555 54.7323C125.358 54.9773 124.518 57.3007 125.498 59.1763Z" fill="#FFDAB8"/>
<path d="M188.828 151.545C186.556 177.754 169.29 213.831 169.29 213.831L159.255 210.1C159.255 210.1 169.896 185.851 169.407 159.901H137.105C124.783 159.901 119.318 145.741 131.315 128.791C138.648 128.798 146.164 135.952 146.164 135.952C146.164 135.952 190.202 135.693 188.828 151.545Z" fill="#135388"/>
<path d="M152.162 131.194H151.245C151.063 131.194 150.93 131.089 150.944 130.97L151.49 127.051C151.49 126.939 151.672 126.848 151.854 126.855H152.771C152.953 126.855 153.086 126.96 153.072 127.072L152.526 130.991C152.512 131.11 152.351 131.194 152.162 131.194Z" fill="#283237"/>
<path d="M138.515 130.781H137.597C137.409 130.781 137.275 130.676 137.29 130.557L137.836 126.638C137.836 126.526 138.018 126.435 138.2 126.442H139.117C139.299 126.442 139.439 126.547 139.418 126.659L138.872 130.578C138.858 130.676 138.69 130.788 138.515 130.781Z" fill="#283237"/>
<path d="M141.121 128.828C141.121 128.828 195.554 116.343 197.913 131.257C202.018 157.207 210.73 190.428 210.73 190.428L201.979 196.846C201.979 196.846 188.337 165.941 180.483 141.418C171.05 144.673 143.629 159.922 132.663 159.922C120.365 159.922 115.708 148.081 121.087 128.604C128.401 128.576 141.121 128.828 141.121 128.828Z" fill="#1868AB"/>
<path d="M188.826 151.545C188.52 154.614 188.052 157.665 187.425 160.685C184.818 154.261 182.269 147.633 180.111 141.418C185.569 143.707 189.253 146.947 188.826 151.545Z" fill="#135388"/>
<path d="M136.017 174.178L128.577 137.212C127.669 133.199 124.18 130.294 120.067 130.13H112.894C108.982 130.13 106.448 133.3 107.239 137.212L114.686 174.178C115.593 178.189 119.079 181.093 123.189 181.26H130.362C134.274 181.26 136.808 178.09 136.017 174.178Z" fill="#4F7AF5"/>
<path d="M124.693 89.672C124.273 91.8555 123.825 94.1999 123.482 96.4744C123.139 98.7489 123.706 101.191 123.482 103.473C123.258 105.754 123.149 114.236 123.482 116.318C124.2 117.671 124.837 118.491 125.393 118.778C127.371 119.806 129.416 120.697 131.517 121.445C133.679 122.257 135.905 122.984 138.15 123.684C140.397 124.384 142.686 125.049 144.932 125.693L144.233 129.794C139.318 129.425 134.441 128.664 129.648 127.519C127.146 126.925 124.696 126.132 122.321 125.147C120.977 124.586 119.698 123.882 118.507 123.047C117.752 122.511 117.076 121.873 116.498 121.151C116.12 120.688 115.804 120.177 115.56 119.632C115.411 119.319 115.289 118.993 115.196 118.659L115.056 118.12C114.415 115.508 114.072 112.832 114.035 110.142C113.968 107.612 114.035 105.08 114.237 102.556C114.426 100.065 114.72 97.6011 115.091 95.1587C115.462 92.7163 115.882 90.3228 116.491 87.8174L124.693 89.672Z" fill="#FFDAB8"/>
<path d="M114.01 84.9385C111.202 93.5911 110.57 107.626 110.57 107.626L125.92 108.806C125.92 108.806 130.768 90.6799 129.368 86.2919C127.933 81.7219 124.259 77.096 120.382 78.2437C119.181 78.5987 115.554 80.1814 114.01 84.9385Z" fill="#FFC54F"/>
<path d="M155.144 125.679L151.854 124.181C151.036 123.803 150.114 123.712 149.238 123.922L141.49 125.777L140.454 128.387C141.568 131.446 146.753 131.04 146.753 131.04L150.882 132.439C151.557 132.67 152.304 132.468 152.771 131.928L155.774 128.429C156.407 127.705 156.333 126.603 155.608 125.971C155.47 125.849 155.313 125.751 155.144 125.679Z" fill="#FFDAB8"/>
<path d="M138.753 39.2377C144.156 43.3808 146.123 41.0013 148.831 45.3124C147.809 39.1398 144.051 37.4811 140.433 37.4112C136.815 37.3412 135.71 37.7674 137.082 38.8241" fill="#864B16"/>
<path d="M113.21 130.13H76.0098V163H114.01" fill="#00AB4E"/>
<path d="M136.017 174.178L128.577 137.212C127.669 133.199 124.18 130.294 120.067 130.13H112.894C108.982 130.13 106.448 133.3 107.239 137.212L114.686 174.178C115.593 178.189 119.079 181.093 123.189 181.26H130.362C134.274 181.26 136.808 178.09 136.017 174.178Z" fill="#28D677"/>
<path d="M94.0167 174.178L86.5774 137.212C85.669 133.199 82.1796 130.294 78.0674 130.13H70.894C66.9819 130.13 64.4485 133.3 65.2393 137.212L72.6863 174.178C73.5933 178.189 77.0792 181.093 81.1886 181.26H88.362C92.2741 181.26 94.8075 178.09 94.0167 174.178Z" fill="#00AB4E"/>
<path d="M326.443 101.375H256.219V13.4468H326.443V101.375Z" fill="#BBF0D3"/>
<path d="M324.291 30.9521C324.787 30.7938 325.316 30.7118 325.867 30.7118C328.272 30.7118 330.294 32.3179 330.928 34.5119V34.5131H324.252H320.813H312.192C312.019 33.9325 311.921 33.3132 311.921 32.6726C311.921 29.1948 314.742 26.3748 318.227 26.3748C321.107 26.3748 323.537 28.3124 324.291 30.9521Z" fill="white"/>
<path d="M327.576 105.123H255.087V99.1763H327.576V105.123Z" fill="white"/>
<path d="M327.576 57.2068H255.087V56.2166H327.576V57.2068Z" fill="#EDFFF5"/>
<path d="M265.52 42.5208C266.374 40.3801 268.468 38.8721 270.914 38.8721C273.403 38.8721 275.523 40.433 276.356 42.6266C276.977 42.2884 277.69 42.099 278.448 42.099C280.88 42.099 282.847 44.0661 282.847 46.491C282.847 46.6913 282.83 46.8924 282.804 47.0868H276.208H274.099H269.78H265.626H261.908C261.877 46.8924 261.861 46.6913 261.861 46.491C261.861 44.4036 263.469 42.6843 265.52 42.5208Z" fill="white"/>
<path d="M328 15.6456H247.463V12.2136H328V15.6456Z" fill="#84D7CC"/>
<path d="M246.047 17.5228H246.784C247.636 17.5228 248.326 16.8321 248.326 15.9795V11.6664C248.326 10.8141 247.636 10.123 246.784 10.123H246.047C245.194 10.123 244.504 10.8141 244.504 11.6664V15.9795C244.504 16.8321 245.194 17.5228 246.047 17.5228Z" fill="#84D7CC"/>
<path d="M250.474 38.3283C250.474 39.3251 251.282 40.1338 252.279 40.1338C253.276 40.1338 254.084 39.3251 254.084 38.3283C254.084 37.3318 253.276 36.5227 252.279 36.5227C251.282 36.5227 250.474 37.3318 250.474 38.3283Z" fill="#84D7CC"/>
<path d="M252.433 13.8755L252.198 36.8996" stroke="#84D7CC" stroke-width="0.754208"/>
<path d="M326.433 100.703H256.265" stroke="#84D7CC" stroke-width="0.754208"/>
<path d="M325.257 105.407H255.089" stroke="#BBF0D3" stroke-width="1.568"/>
<path d="M311.275 88.2654C311.275 88.2654 308.26 80.3121 316.762 72.5027C316.762 72.5027 321.614 80.5116 311.275 88.2654Z" fill="#84D7CC"/>
<path d="M311.73 90.3778C311.73 90.3778 303.555 88.0293 302.394 76.5437C302.394 76.5437 311.713 77.4543 311.73 90.3778Z" fill="#84D7CC"/>
<path d="M317.102 87.8953H302.971V94.1927C302.971 97.0716 305.303 99.4048 308.182 99.4048H311.89C314.769 99.4048 317.102 97.0716 317.102 94.1927V87.8953Z" fill="#DAF6E5"/>
<path d="M307.64 87.8952H311.62L311.528 87.2805L306.539 86.9124L307.64 87.8952Z" fill="#47A99C"/>
<mask id="mask1_5567_162169" style="mask-type:alpha" maskUnits="userSpaceOnUse" x="306" y="86" width="6" height="2">
<path fill-rule="evenodd" clip-rule="evenodd" d="M307.64 87.8952H311.62L311.528 87.2805L306.539 86.9124L307.64 87.8952Z" fill="white"/>
</mask>
<g mask="url(#mask1_5567_162169)">
<path d="M307.64 87.8954L306.539 86.9122L311.528 87.2811L311.62 87.8954H307.64Z" fill="#47A99C"/>
</g>
</g>
<path d="M288.361 103.757C288.361 117.855 276.932 129.283 262.835 129.283C248.738 129.283 237.31 117.855 237.31 103.757C237.31 89.6603 248.738 78.2319 262.835 78.2319C276.31 78.2319 287.345 88.6724 288.295 101.905C288.339 102.516 288.361 103.134 288.361 103.757Z" fill="#84D7CC"/>
<path d="M286.051 102.525C286.051 116.623 274.623 128.051 260.525 128.051C246.428 128.051 235 116.623 235 102.525C235 88.4284 246.428 77 260.525 77C274 77 285.035 87.4404 285.985 100.673C286.029 101.284 286.051 101.902 286.051 102.525Z" fill="white"/>
<mask id="mask2_5567_162169" style="mask-type:alpha" maskUnits="userSpaceOnUse" x="252" y="102" width="24" height="18">
<path fill-rule="evenodd" clip-rule="evenodd" d="M252.069 102.311H275.312V119.488H252.069V102.311Z" fill="white"/>
</mask>
<g mask="url(#mask2_5567_162169)">
<path d="M275.279 108.424L275.312 109.803V107.087C275.312 106.03 274.551 105.151 273.546 104.969L271.673 104.459C269.643 103.809 267.525 102.606 265.394 102.606L261.333 102.311L254.222 104.352C253.033 104.352 252.069 105.316 252.069 106.505L252.36 105.537L252.417 105.613H259.984C260.072 105.613 260.144 105.685 260.144 105.773V112.159H262.489C262.621 112.159 262.727 112.265 262.727 112.396V119.387L262.803 119.489L275.304 119.483L275.279 108.424Z" fill="#009E3D"/>
</g>
<path d="M265.394 102.606L261.333 102.311L254.222 104.352C253.033 104.352 252.069 105.316 252.069 106.505L252.36 105.537L252.417 105.613H259.949L260.011 105.594C261.275 105.556 262.206 105.983 262.803 106.874V119.489L264.922 119.488V106.984L264.992 106.891C265.813 105.801 267.228 105.342 268.532 105.744L275.312 107.832V107.087C275.312 106.03 274.551 105.151 273.546 104.969C269.532 103.393 266.815 102.606 265.394 102.606Z" fill="#00782E"/>
<path d="M263.837 90.019C266.195 90.019 268.414 90.8963 270.124 92.4948V90.8296C270.124 87.6102 267.514 85 264.294 85H263.38C260.16 85 257.55 87.6102 257.55 90.8296V92.4948C259.259 90.8963 261.479 90.019 263.837 90.019Z" fill="#47CF66"/>
<path d="M260.183 90.7679C260.213 87.8678 262.36 85.475 265.152 85.0629C264.872 85.0215 264.585 85 264.294 85H263.38C260.16 85 257.55 87.6099 257.55 90.8296V92.4948C258.332 91.7628 259.222 91.1824 260.183 90.7679Z" fill="#009E3D"/>
<path d="M265.527 100.248H262.147C261.862 100.248 261.583 100.219 261.313 100.165V102.284C261.313 102.49 261.394 102.688 261.539 102.835L263.674 105.007C263.764 105.097 263.91 105.097 264 105.007L266.135 102.835C266.279 102.688 266.36 102.49 266.36 102.284V100.165C266.091 100.219 265.812 100.248 265.527 100.248Z" fill="#EFAF70"/>
<path d="M259.094 97.4514V93.7412H258.965C258.857 93.837 258.752 93.9356 258.649 94.0378C258.472 94.2151 258.237 94.3126 257.987 94.3126C257.784 94.3126 257.591 94.2471 257.43 94.1283C257.086 94.4235 256.868 94.8612 256.868 95.3499V95.9489C256.868 96.8375 257.588 97.5576 258.477 97.5576H259.097C259.095 97.5224 259.094 97.4872 259.094 97.4514Z" fill="#EFAF70"/>
<path d="M270.243 94.1283C270.083 94.2471 269.89 94.3126 269.687 94.3126C269.437 94.3126 269.201 94.2151 269.025 94.0378C268.922 93.9353 268.817 93.837 268.709 93.7412H268.58V97.4514C268.58 97.4872 268.578 97.5224 268.577 97.5576H269.197C270.085 97.5576 270.806 96.8375 270.806 95.9492V95.3499C270.806 94.8612 270.587 94.4235 270.243 94.1283Z" fill="#EFAF70"/>
<path d="M263.836 91.8923C262.051 91.8923 260.364 92.5239 259.032 93.6809V97.4513C259.032 99.3569 260.577 100.901 262.482 100.901H265.19C267.096 100.901 268.64 99.3569 268.64 97.4513V93.6809C267.309 92.5239 265.622 91.8923 263.836 91.8923Z" fill="#F4C594"/>
<path d="M260.221 112.158V105.773C260.221 105.643 260.115 105.537 259.985 105.537H248.819C248.689 105.537 248.584 105.643 248.584 105.773V112.158H260.221Z" fill="#47CF66"/>
<path d="M262.803 119.488H246.314C246.14 119.488 246 119.348 246 119.175V112.396C246 112.223 246.14 112.082 246.314 112.082H262.489C262.663 112.082 262.803 112.223 262.803 112.396V119.488Z" fill="#A3E7B2"/>
<path d="M252.125 108.348H250.661C250.345 108.348 250.089 108.092 250.089 107.776C250.089 107.461 250.345 107.205 250.661 107.205H252.125C252.44 107.205 252.696 107.461 252.696 107.776C252.696 108.092 252.44 108.348 252.125 108.348Z" fill="#00782E"/>
<path d="M252.125 110.156H250.661C250.345 110.156 250.089 109.9 250.089 109.585C250.089 109.269 250.345 109.013 250.661 109.013H252.125C252.44 109.013 252.696 109.269 252.696 109.585C252.696 109.9 252.44 110.156 252.125 110.156Z" fill="#00782E"/>
<path d="M269.687 94.3736C269.432 94.3736 269.176 94.2761 268.981 94.0811C266.145 91.2444 261.529 91.2447 258.693 94.0811C258.303 94.4711 257.671 94.4711 257.281 94.0811C256.891 93.6914 256.891 93.0592 257.281 92.6695C260.896 89.0545 266.778 89.0545 270.393 92.6695C270.783 93.0592 270.783 93.6914 270.393 94.0811C270.198 94.2761 269.943 94.3736 269.687 94.3736Z" fill="#009E3D"/>
<path d="M259.916 92.6693C261.389 91.1971 263.237 90.3245 265.155 90.0515C262.363 89.6542 259.424 90.5265 257.281 92.6693C256.891 93.0593 256.891 93.6915 257.281 94.0812C257.671 94.4707 258.303 94.4707 258.692 94.0812C258.986 93.787 259.3 93.5241 259.628 93.291C259.647 93.0643 259.743 92.8428 259.916 92.6693Z" fill="#00782E"/>
<path d="M95 31C95 42.0455 86.0455 51 75 51C63.9545 51 55 42.0455 55 31C55 19.9545 63.9545 11 75 11C85.5576 11 94.2039 19.1804 94.9482 29.5482C94.9827 30.0275 95 30.5114 95 31Z" fill="#84D7CC"/>
<path d="M93 30C93 41.0455 84.0455 50 73 50C61.9545 50 53 41.0455 53 30C53 18.9545 61.9545 10 73 10C83.5576 10 92.2039 18.1804 92.9482 28.5482C92.9827 29.0275 93 29.5114 93 30Z" fill="white"/>
<path fill-rule="evenodd" clip-rule="evenodd" d="M79.9693 30.5068C79.9666 26.7921 76.8618 23.801 73.0092 23.801C69.1718 23.8012 66.0695 26.7928 66.0674 30.4951C66.0652 34.2237 69.1704 37.2184 73.0369 37.2168C76.8586 37.2151 79.9722 34.2015 79.9693 30.5068ZM76.2651 28.4419C76.2244 28.4199 76.1781 28.3948 76.1234 28.3649C76.2415 28.6275 76.356 28.8823 76.4681 29.1319C76.6854 29.6153 76.8939 30.0792 77.1027 30.543C77.4024 31.2083 77.7021 31.8736 78.0033 32.5382C78.1905 32.9512 78.1134 33.2012 77.7133 33.4457C77.2959 33.701 76.8257 33.7937 76.344 33.836C75.5847 33.9028 74.8368 33.859 74.136 33.5345C73.5706 33.2728 73.4713 32.9938 73.7205 32.4417C73.8741 32.1013 74.0275 31.7608 74.1809 31.4203C74.6341 30.4143 75.0873 29.4082 75.5471 28.405C75.6359 28.2113 75.6211 28.1252 75.4017 28.044C73.8015 27.4512 72.2033 27.415 70.5957 28.014C70.4154 28.0812 70.3616 28.1361 70.4495 28.3278C70.8835 29.2752 71.311 30.2255 71.7384 31.1757C71.9421 31.6286 72.1459 32.0816 72.3503 32.5343C72.5389 32.9517 72.4657 33.201 72.0675 33.4433C71.8827 33.5558 71.6845 33.6436 71.4731 33.6971C70.5662 33.9264 69.6619 33.9335 68.7657 33.6474C68.6207 33.6011 68.4789 33.5365 68.3478 33.4608C67.9088 33.2073 67.8335 32.9652 68.0354 32.5176C68.6093 31.2455 69.1823 29.973 69.7553 28.7004L69.8017 28.5973C69.8217 28.5529 69.8405 28.5079 69.8653 28.4485C69.8793 28.4151 69.8952 28.3771 69.9142 28.332C69.8691 28.356 69.8295 28.3765 69.7938 28.3949C69.7246 28.4306 69.6699 28.4588 69.6178 28.491C69.6116 28.4948 69.6054 28.4987 69.5992 28.5025C69.4634 28.587 69.3331 28.668 69.2069 28.4751C69.0887 28.2943 69.2155 28.2218 69.3353 28.1533C69.347 28.1466 69.3587 28.1399 69.3701 28.1332C70.2405 27.6178 71.1811 27.2967 72.1989 27.1903C73.8114 27.0217 75.2904 27.4129 76.6831 28.1748C76.8221 28.2509 76.9356 28.321 76.8221 28.4972C76.7153 28.6632 76.5899 28.6266 76.4519 28.5454C76.3968 28.513 76.3405 28.4826 76.2651 28.4419Z" fill="#02A750"/>
<path d="M72.9924 42.1819C69.5162 42.1367 66.5558 40.9162 64.1707 38.4792C62.2515 36.5181 61.1846 34.1652 60.9506 31.4707C60.9294 31.2269 60.9285 30.9815 60.9061 30.7377C60.8941 30.6071 60.94 30.5742 61.0712 30.5772C61.4246 30.5855 61.7784 30.5858 62.1318 30.5766C62.3005 30.5722 62.267 30.6769 62.27 30.7684C62.2999 31.6909 62.4368 32.5987 62.7165 33.481C63.2373 35.1234 64.1178 36.5637 65.3743 37.7855C66.7526 39.1258 68.3842 40.0535 70.2793 40.5261C72.3022 41.0305 74.3183 40.9906 76.3118 40.3633C78.7496 39.5963 80.67 38.1702 82.0571 36.096C83.2817 34.2646 83.8389 32.249 83.743 30.0672C83.6295 27.485 82.6407 25.2473 80.8099 23.3816C78.9918 21.5287 76.7413 20.4598 74.0963 20.2029C71.9045 19.99 69.8356 20.3868 67.8985 21.4013C67.7493 21.4795 67.6585 21.4793 67.5696 21.3304C67.416 21.0729 67.259 20.8163 67.0867 20.5702C66.9825 20.4213 67.0225 20.3526 67.1723 20.2723C68.0896 19.7803 69.0591 19.4132 70.0757 19.1721C71.9571 18.726 73.8495 18.7032 75.7381 19.1245C78.0889 19.6488 80.1106 20.7513 81.77 22.4405C83.8332 24.5408 84.9564 27.0432 85.1037 29.9383C85.2475 32.765 84.4335 35.3232 82.6565 37.5676C80.7448 39.982 78.2156 41.4622 75.1075 42.008C74.4085 42.1309 73.7046 42.1819 72.9924 42.1819Z" fill="#BAD333"/>
<path d="M73.0422 21.4359C76.4994 21.5487 79.1854 22.9816 81.0638 25.8034C81.1681 25.96 81.1501 26.036 80.9821 26.1249C80.7442 26.2508 80.5113 26.3904 80.2953 26.5481C80.1003 26.6905 79.9981 26.6801 79.8637 26.4642C79.2028 25.4032 78.3123 24.5566 77.2238 23.9007C74.234 22.0991 70.2284 22.4527 67.6293 24.7624C65.7705 26.4142 64.8902 28.4699 64.9896 30.9032C65.1386 34.5567 68.1118 37.7233 71.8783 38.1667C75.3029 38.5699 77.9683 37.3166 79.8672 34.5451C79.9572 34.4139 80.0138 34.3802 80.1565 34.4791C80.4139 34.6576 80.6811 34.8247 80.9547 34.9792C81.1175 35.0711 81.1033 35.1533 81.0132 35.2877C79.5126 37.5269 77.4209 38.9474 74.6962 39.4226C70.48 40.1579 66.4175 38.1407 64.5259 34.4228C62.344 30.1348 64.1747 24.7418 68.5661 22.5136C69.9656 21.8035 71.4496 21.4297 73.0422 21.4359Z" fill="#74BC46"/>
<path fill-rule="evenodd" clip-rule="evenodd" d="M76.1231 28.365L76.4278 29.0429L76.4289 29.0453C76.6603 29.5601 76.8812 30.0516 77.1025 30.543C77.4021 31.2083 77.7019 31.8736 78.0031 32.5382C78.1903 32.9513 78.1131 33.2012 77.7131 33.4457C77.2956 33.701 76.8254 33.7937 76.3437 33.8361C75.5845 33.9028 74.8366 33.859 74.1357 33.5346C73.5703 33.2729 73.471 32.9939 73.7202 32.4417C73.8739 32.1013 74.0273 31.7608 74.1807 31.4203L74.1807 31.4202C74.6339 30.4142 75.0871 29.4082 75.5469 28.405C75.6357 28.2113 75.6209 28.1253 75.4015 28.044C73.8013 27.4513 72.2031 27.415 70.5955 28.014C70.4151 28.0811 70.3614 28.1361 70.4493 28.3279C70.8819 29.2722 71.3079 30.2193 71.7339 31.1664L71.734 31.1665L71.734 31.1665C71.9391 31.6226 72.1442 32.0786 72.3501 32.5343C72.5386 32.9517 72.4655 33.201 72.0673 33.4433C71.8825 33.5558 71.6843 33.6436 71.4729 33.6971C70.5659 33.9264 69.6616 33.9335 68.7654 33.6475C68.6204 33.6012 68.4786 33.5366 68.3475 33.4608C67.9086 33.2074 67.8332 32.9653 68.0352 32.5177C68.6092 31.2452 69.1823 29.9724 69.7554 28.6996L69.8015 28.5973C69.8215 28.5529 69.8403 28.5079 69.8651 28.4485C69.8791 28.4151 69.8949 28.3771 69.914 28.3321C69.8686 28.3563 69.8287 28.3768 69.7927 28.3954L69.7927 28.3954C69.724 28.4309 69.6695 28.459 69.6176 28.491L69.599 28.5026C69.4632 28.5871 69.3329 28.6681 69.2067 28.4751C69.0884 28.2943 69.2153 28.2218 69.3351 28.1533C69.3468 28.1466 69.3585 28.1399 69.3699 28.1332C70.2403 27.6178 71.1808 27.2968 72.1987 27.1904C73.8112 27.0218 75.2901 27.413 76.6829 28.1749C76.8219 28.2509 76.9353 28.321 76.8219 28.4973C76.715 28.6632 76.5896 28.6266 76.4517 28.5455C76.3964 28.513 76.3399 28.4825 76.2642 28.4416L76.2641 28.4415C76.2235 28.4196 76.1774 28.3947 76.1231 28.365ZM70.2098 28.7613C70.1958 28.7742 70.1844 28.7835 70.1753 28.7909C70.1607 28.8029 70.1521 28.81 70.1481 28.819C69.9795 29.1918 69.8113 29.5647 69.643 29.9376L69.643 29.9377C69.2879 30.7249 68.9327 31.5122 68.5748 32.2982C68.499 32.4646 68.585 32.4642 68.7021 32.4636L68.7177 32.4635C69.3864 32.462 70.0552 32.462 70.724 32.4621H70.7246L71.3812 32.4622H71.8761L70.2098 28.7613ZM75.8253 28.7951C75.8358 28.787 75.8479 28.7777 75.8612 28.7659C75.9722 29.0121 76.0828 29.2571 76.193 29.5013C76.4341 30.0354 76.6734 30.5657 76.912 31.0963C76.9733 31.2324 77.0336 31.369 77.0939 31.5055C77.2039 31.7542 77.3139 32.003 77.4292 32.2494C77.4969 32.3938 77.5151 32.4668 77.3029 32.4654C76.3245 32.4585 75.346 32.4608 74.3676 32.4641C74.2268 32.4645 74.16 32.4479 74.2313 32.2903C74.5604 31.5632 74.8875 30.8352 75.2146 30.1072C75.4055 29.6823 75.5964 29.2575 75.7877 28.8328C75.7937 28.8195 75.807 28.8092 75.8253 28.7951Z" fill="#F3FAF6"/>
<path d="M70.2096 28.7612C70.7626 29.9895 71.311 31.2076 71.8758 32.4621C71.6837 32.4621 71.5323 32.4621 71.3809 32.4621C70.4931 32.4622 69.6053 32.4614 68.7174 32.4634C68.5926 32.4637 68.4954 32.4718 68.5745 32.2982C69.102 31.1396 69.6234 29.9787 70.1478 28.8189C70.1544 28.8044 70.1729 28.7948 70.2096 28.7612Z" fill="#04A650"/>
<path d="M75.8609 28.7659C76.2148 29.5506 76.5639 30.3231 76.9117 31.0963C77.0845 31.4805 77.2503 31.8678 77.4289 32.2494C77.4965 32.3938 77.5148 32.4669 77.3026 32.4654C76.3242 32.4585 75.3457 32.4608 74.3673 32.4641C74.2265 32.4646 74.1597 32.4479 74.231 32.2903C74.7522 31.1388 75.2683 29.9852 75.7874 28.8328C75.7968 28.8119 75.8241 28.7986 75.8609 28.7659Z" fill="#04A650"/>
</svg>
