<svg width="328" height="166" viewBox="0 0 328 166" fill="none" xmlns="http://www.w3.org/2000/svg">
    <mask id="mask0_36604_64140" style="mask-type:luminance" maskUnits="userSpaceOnUse" x="0" y="0" width="328" height="166">
        <path d="M23.2165 163.473C33.6763 165.661 265.047 167.85 301.878 163.473C312.777 162.179 321.496 150.085 322.779 147.984C330.738 134.863 327.749 53.929 325.76 26.5858C324.689 11.8695 309.841 5.2592 302.87 3.07098C289.549 -1.11138 53.2799 -1.27883 22.2201 4.16699C8.33144 6.60257 3.28955 18.0879 2.28944 24.4737C-0.0416338 39.3574 -1.42148 130.905 2.31952 143.239C5.30104 153.084 12.768 161.285 23.2202 163.473H23.2165Z" fill="white"/>
    </mask>
    <g mask="url(#mask0_36604_64140)">
        <path d="M337.956 -10.5723H-10.2988V196.616H337.956V-10.5723Z" fill="#D4F7E4"/>
        <path d="M353.609 246.077C353.609 351.949 268.769 437.777 164.107 437.777C59.4455 437.777 -25.3906 351.949 -25.3906 246.077C-25.3906 140.206 59.4493 54.374 164.111 54.374C268.772 54.374 353.612 140.202 353.612 246.074L353.609 246.077Z" fill="#EDFFF5"/>
    </g>
    <path d="M161.287 103.742C169.335 102.033 177.297 107.92 179.004 116.998C180.71 126.077 175.488 134.765 167.44 136.475C159.392 138.184 151.43 132.297 149.723 123.218C148.017 114.14 153.239 105.452 161.287 103.742Z" fill="#D6A033" stroke="#252528" stroke-width="0.8"/>
    <path d="M122.317 117.152L202.254 100.171C202.254 100.171 198.695 99.9013 193.992 87.3085C187.623 70.2632 191.11 51.7642 178.065 42.9961C167.337 35.7845 157.714 37.3182 157.714 37.3182C157.714 37.3182 156.418 28.8735 147.662 30.4795L147.522 30.5099C138.859 32.6068 140.714 40.9297 140.714 40.9297C140.714 40.9297 131.274 43.4452 123.978 54.4852C115.104 67.9076 125.009 83.56 125.292 101.903C125.5 115.451 122.314 117.152 122.314 117.152" fill="#FFC54F"/>
    <mask id="path-6-inside-1_36604_64140" fill="white">
        <path d="M122.315 117.152L202.252 100.171C202.252 100.171 198.693 99.9013 193.99 87.3085C187.621 70.2632 191.108 51.7642 178.063 42.9961C167.335 35.7845 157.712 37.3182 157.712 37.3182C157.712 37.3182 156.416 28.8735 147.66 30.4795L147.52 30.5099C138.857 32.6068 140.712 40.9297 140.712 40.9297C140.712 40.9297 131.272 43.4452 123.976 54.4852C115.102 67.9076 125.007 83.56 125.29 101.903C125.498 115.451 122.312 117.152 122.312 117.152"/>
    </mask>
    <path d="M122.315 117.152L202.252 100.171C202.252 100.171 198.693 99.9013 193.99 87.3085C187.621 70.2632 191.108 51.7642 178.063 42.9961C167.335 35.7845 157.712 37.3182 157.712 37.3182C157.712 37.3182 156.416 28.8735 147.66 30.4795L147.52 30.5099C138.857 32.6068 140.712 40.9297 140.712 40.9297C140.712 40.9297 131.272 43.4452 123.976 54.4852C115.102 67.9076 125.007 83.56 125.29 101.903C125.498 115.451 122.312 117.152 122.312 117.152" fill="#FFC54F"/>
    <path d="M202.252 100.171L202.418 100.954L202.312 99.3738L202.252 100.171ZM193.99 87.3085L194.739 87.0286L194.739 87.0285L193.99 87.3085ZM178.063 42.9961L177.617 43.66L177.617 43.6601L178.063 42.9961ZM157.712 37.3182L156.921 37.4395L157.043 38.2348L157.838 38.1082L157.712 37.3182ZM147.66 30.4795L147.516 29.6926L147.503 29.695L147.49 29.6979L147.66 30.4795ZM147.52 30.5099L147.35 29.7283L147.341 29.7302L147.332 29.7324L147.52 30.5099ZM140.712 40.9297L140.918 41.7027L141.659 41.505L141.493 40.7557L140.712 40.9297ZM123.976 54.4852L124.644 54.9264L124.644 54.9263L123.976 54.4852ZM125.29 101.903L126.09 101.891L126.09 101.891L125.29 101.903ZM122.315 117.152L122.481 117.935L202.418 100.954L202.252 100.171L202.086 99.3889L122.149 116.37L122.315 117.152ZM202.252 100.171C202.312 99.3738 202.314 99.3739 202.315 99.374C202.315 99.374 202.317 99.3741 202.318 99.3742C202.319 99.3743 202.321 99.3744 202.322 99.3746C202.326 99.3749 202.328 99.3751 202.331 99.3754C202.337 99.376 202.341 99.3765 202.345 99.377C202.352 99.378 202.356 99.3787 202.357 99.3788C202.358 99.379 202.346 99.3768 202.32 99.3691C202.269 99.3537 202.162 99.3158 202.005 99.2302C201.691 99.0588 201.169 98.6931 200.479 97.9271C199.094 96.3885 197.072 93.275 194.739 87.0286L193.99 87.3085L193.24 87.5885C195.611 93.9348 197.72 97.2528 199.29 98.9975C200.078 99.873 200.739 100.362 201.239 100.635C201.489 100.771 201.698 100.853 201.86 100.901C201.94 100.926 202.009 100.942 202.065 100.952C202.092 100.957 202.117 100.961 202.138 100.964C202.149 100.965 202.158 100.966 202.167 100.967C202.172 100.967 202.176 100.968 202.18 100.968C202.182 100.968 202.184 100.969 202.186 100.969C202.187 100.969 202.188 100.969 202.189 100.969C202.19 100.969 202.191 100.969 202.252 100.171ZM193.99 87.3085L194.739 87.0285C191.585 78.5853 190.894 69.8655 189.315 61.8929C187.751 53.998 185.309 46.9028 178.509 42.3322L178.063 42.9961L177.617 43.6601C183.862 47.8575 186.199 54.3959 187.745 62.2038C189.276 69.9341 190.026 78.9864 193.24 87.5885L193.99 87.3085ZM178.063 42.9961L178.509 42.3322C173.028 38.6478 167.821 37.1922 163.974 36.6603C162.051 36.3945 160.468 36.3593 159.36 36.3915C158.806 36.4077 158.37 36.4406 158.068 36.4702C157.918 36.4849 157.801 36.4988 157.72 36.5093C157.679 36.5146 157.648 36.519 157.625 36.5222C157.614 36.5238 157.605 36.5252 157.599 36.5262C157.596 36.5267 157.593 36.5271 157.591 36.5274C157.59 36.5276 157.589 36.5277 157.588 36.5278C157.588 36.5279 157.587 36.528 157.587 36.528C157.587 36.5281 157.586 36.5281 157.712 37.3182C157.838 38.1082 157.838 38.1082 157.837 38.1083C157.837 38.1083 157.837 38.1083 157.837 38.1083C157.837 38.1084 157.837 38.1084 157.837 38.1083C157.837 38.1083 157.838 38.1082 157.839 38.108C157.842 38.1075 157.847 38.1068 157.855 38.1057C157.869 38.1036 157.893 38.1003 157.926 38.0961C157.991 38.0876 158.091 38.0756 158.225 38.0625C158.492 38.0363 158.891 38.0058 159.406 37.9909C160.438 37.9609 161.931 37.993 163.755 38.2452C167.401 38.7494 172.369 40.1328 177.617 43.66L178.063 42.9961ZM157.712 37.3182C158.503 37.1968 158.503 37.1964 158.503 37.1959C158.503 37.1957 158.503 37.1952 158.503 37.1948C158.502 37.194 158.502 37.1931 158.502 37.192C158.502 37.1899 158.501 37.1873 158.501 37.1842C158.5 37.1779 158.498 37.1696 158.497 37.1594C158.493 37.1389 158.488 37.1105 158.481 37.075C158.468 37.0038 158.448 36.9035 158.419 36.7786C158.361 36.5291 158.27 36.1799 158.131 35.7683C157.855 34.9489 157.385 33.8615 156.612 32.8197C155.836 31.774 154.745 30.7647 153.233 30.1325C151.718 29.4988 149.836 29.2671 147.516 29.6926L147.66 30.4795L147.804 31.2664C149.863 30.8889 151.425 31.1105 152.616 31.6086C153.81 32.108 154.685 32.9087 155.327 33.7735C155.972 34.6421 156.374 35.5655 156.615 36.2792C156.734 36.6342 156.812 36.9322 156.86 37.1382C156.884 37.2411 156.9 37.3207 156.909 37.3724C156.914 37.3983 156.918 37.4172 156.92 37.4286C156.92 37.4343 156.921 37.4381 156.921 37.4399C156.922 37.4408 156.922 37.4413 156.922 37.4412C156.922 37.4412 156.922 37.441 156.922 37.4407C156.922 37.4406 156.921 37.4403 156.921 37.4402C156.921 37.4399 156.921 37.4395 157.712 37.3182ZM147.66 30.4795L147.49 29.6979L147.35 29.7283L147.52 30.5099L147.691 31.2916L147.831 31.2611L147.66 30.4795ZM147.52 30.5099L147.332 29.7324C145.037 30.2879 143.389 31.2696 142.228 32.4652C141.069 33.6579 140.431 35.0255 140.094 36.3017C139.758 37.5739 139.717 38.7658 139.758 39.6343C139.779 40.0703 139.82 40.4297 139.857 40.6834C139.876 40.8104 139.893 40.9112 139.907 40.9824C139.913 41.018 139.919 41.0462 139.923 41.0665C139.925 41.0767 139.927 41.0849 139.928 41.0911C139.929 41.0942 139.929 41.0968 139.93 41.0989C139.93 41.1 139.93 41.1009 139.93 41.1017C139.93 41.1021 139.931 41.1025 139.931 41.1027C139.931 41.1032 139.931 41.1036 140.712 40.9297C141.493 40.7557 141.493 40.7561 141.493 40.7564C141.493 40.7565 141.493 40.7568 141.493 40.7569C141.493 40.7572 141.493 40.7574 141.493 40.7574C141.493 40.7575 141.493 40.757 141.493 40.7561C141.492 40.7543 141.491 40.7506 141.49 40.7449C141.488 40.7337 141.484 40.7149 141.479 40.689C141.47 40.6372 141.456 40.5572 141.441 40.4525C141.41 40.2428 141.374 39.9357 141.356 39.5586C141.321 38.8011 141.358 37.7812 141.641 36.7106C141.923 35.6439 142.445 34.5377 143.376 33.5801C144.303 32.6254 145.672 31.7804 147.709 31.2875L147.52 30.5099ZM140.712 40.9297C140.506 40.1566 140.505 40.1567 140.505 40.1569C140.505 40.1569 140.504 40.157 140.504 40.1571C140.503 40.1573 140.502 40.1576 140.501 40.1578C140.499 40.1584 140.497 40.1591 140.493 40.16C140.487 40.1617 140.478 40.1641 140.467 40.1672C140.446 40.1734 140.415 40.1822 140.376 40.1939C140.297 40.2173 140.184 40.2522 140.04 40.3C139.752 40.3957 139.337 40.5433 138.82 40.7547C137.786 41.1774 136.338 41.8559 134.661 42.8857C131.306 44.9459 127.031 48.4122 123.309 54.0442L123.976 54.4852L124.644 54.9263C128.217 49.5181 132.31 46.2067 135.498 44.2492C137.093 43.27 138.462 42.6296 139.425 42.2357C139.907 42.0388 140.287 41.9036 140.544 41.8186C140.672 41.7761 140.769 41.7462 140.832 41.7273C140.864 41.7179 140.887 41.7113 140.901 41.7072C140.909 41.7052 140.914 41.7038 140.916 41.7031C140.918 41.7027 140.918 41.7025 140.919 41.7024C140.919 41.7024 140.919 41.7024 140.919 41.7024C140.919 41.7025 140.918 41.7025 140.918 41.7025C140.918 41.7026 140.918 41.7027 140.712 40.9297ZM123.976 54.4852L123.309 54.044C118.695 61.0223 119 68.5557 120.412 76.489C121.835 84.4936 124.35 92.8279 124.49 101.915L125.29 101.903L126.09 101.891C125.947 92.6351 123.368 83.9717 121.987 76.2088C120.593 68.3745 120.383 61.3704 124.644 54.9264L123.976 54.4852ZM125.29 101.903L124.49 101.915C124.593 108.636 123.852 112.341 123.127 114.335C122.766 115.328 122.413 115.884 122.18 116.176C122.064 116.322 121.977 116.403 121.933 116.44C121.911 116.459 121.899 116.467 121.899 116.467C121.899 116.467 121.902 116.465 121.908 116.462C121.911 116.46 121.914 116.458 121.919 116.455C121.921 116.454 121.924 116.452 121.926 116.451C121.928 116.45 121.929 116.45 121.93 116.449C121.931 116.448 121.932 116.448 121.933 116.448C121.934 116.447 121.935 116.446 122.312 117.152C122.688 117.858 122.69 117.857 122.691 117.857C122.691 117.856 122.692 117.856 122.693 117.855C122.695 117.854 122.696 117.853 122.698 117.852C122.702 117.851 122.705 117.849 122.709 117.846C122.717 117.842 122.725 117.837 122.734 117.832C122.752 117.821 122.773 117.808 122.796 117.792C122.842 117.761 122.899 117.719 122.963 117.665C123.092 117.556 123.253 117.398 123.432 117.173C123.79 116.723 124.221 116.007 124.63 114.881C125.447 112.637 126.195 108.718 126.09 101.891L125.29 101.903Z" fill="#252528" mask="url(#path-6-inside-1_36604_64140)"/>
    <path d="M165.188 120.403C165.188 120.403 203.148 112.339 205.84 111.768C208.532 111.198 213.107 108.724 212.183 103.803C211.081 97.9313 205.16 98.4222 205.16 98.4222L162.75 107.43L162.614 107.46L120.204 116.468C120.204 116.468 114.559 118.432 115.665 124.304C116.589 129.225 121.708 129.636 124.4 129.065C127.092 128.494 165.052 120.43 165.052 120.43L165.188 120.4V120.403Z" fill="#FFD37B"/>
    <path d="M205.421 98.8125C205.574 98.8107 205.798 98.8142 206.07 98.8359C206.617 98.8796 207.353 98.9963 208.117 99.2852C209.629 99.8564 211.269 101.102 211.79 103.877C212.223 106.182 211.376 107.899 210.091 109.128C208.791 110.37 207.047 111.103 205.757 111.377C204.41 111.662 194.247 113.821 184.421 115.908C179.508 116.952 174.679 117.978 171.078 118.743C169.278 119.126 167.784 119.442 166.741 119.664C166.254 119.768 165.864 119.85 165.588 119.908V119.9L165.101 120.009L164.969 120.039H164.967C164.966 120.039 164.964 120.04 164.962 120.04C164.957 120.041 164.95 120.043 164.941 120.045C164.923 120.049 164.895 120.054 164.859 120.062C164.787 120.077 164.681 120.1 164.542 120.13C164.263 120.189 163.854 120.276 163.332 120.387C162.289 120.608 160.795 120.925 158.995 121.308C155.394 122.073 150.565 123.099 145.652 124.143C135.826 126.23 125.662 128.388 124.316 128.674C123.025 128.948 121.152 128.983 119.509 128.369C117.888 127.764 116.491 126.532 116.059 124.23C115.535 121.453 116.601 119.624 117.797 118.473C118.4 117.892 119.04 117.482 119.529 117.219C119.773 117.087 119.978 116.993 120.121 116.932C120.192 116.901 120.248 116.879 120.285 116.865C120.298 116.86 120.307 116.856 120.315 116.853L162.697 107.852L162.701 107.851L162.838 107.82L162.837 107.819L205.214 98.8193C205.222 98.8188 205.233 98.818 205.246 98.8174C205.285 98.8155 205.344 98.8134 205.421 98.8125Z" stroke="#252528" stroke-width="0.8"/>
    <path d="M204.608 30.6123L193.881 39.6392" stroke="#252528" stroke-width="2" stroke-linecap="round" stroke-linejoin="round"/>
    <path d="M209.51 50.5918L199.584 50.9838" stroke="#252528" stroke-width="2" stroke-linecap="round" stroke-linejoin="round"/>
    <path d="M187.158 22.2891L184.244 31.8982" stroke="#252528" stroke-width="2" stroke-linecap="round" stroke-linejoin="round"/>
    <path d="M105.208 45.5371C105.681 45.5372 106.107 45.7843 106.337 46.21L107.299 47.9883L109.067 48.9766L109.066 48.9775C109.489 49.2067 109.733 49.6371 109.733 50.1133C109.733 50.5848 109.493 51.022 109.066 51.249L109.067 51.25L107.299 52.2373L106.338 54.0166L106.337 54.0156C106.108 54.4421 105.681 54.6894 105.208 54.6895C104.735 54.6895 104.307 54.4423 104.077 54.0156V54.0146L103.116 52.2373L101.354 51.2529C100.929 51.0244 100.682 50.5916 100.682 50.1133C100.682 49.6419 100.923 49.2046 101.349 48.9775V48.9766L103.116 47.9883L104.078 46.21C104.308 45.7841 104.735 45.5371 105.208 45.5371Z" fill="#84D7CC" stroke="#252528" stroke-width="0.8"/>
    <path d="M218.562 73.7256C219.196 73.7256 219.756 74.0567 220.06 74.6201H220.061L221.493 77.2656L221.496 77.2725L221.5 77.2783C221.503 77.2837 221.505 77.288 221.508 77.291L221.528 77.3047L221.536 77.3086L221.543 77.3125L224.156 78.7695H224.155C224.712 79.0709 225.041 79.6413 225.041 80.2832C225.041 80.9272 224.71 81.5001 224.15 81.8008L224.149 81.7998L221.543 83.2549L221.535 83.2598L221.534 83.2588C221.508 83.2724 221.501 83.2853 221.5 83.2881L221.496 83.2949L221.493 83.3018L220.061 85.9463L220.06 85.9453C219.756 86.51 219.192 86.8408 218.562 86.8408C217.931 86.8407 217.368 86.5096 217.061 85.9473L217.06 85.9463L215.627 83.3018L215.624 83.2949L215.62 83.2881C215.617 83.2826 215.614 83.2784 215.61 83.2744C215.606 83.2702 215.599 83.2643 215.589 83.2588L215.581 83.2549L212.97 81.8008L212.867 81.7412C212.37 81.4282 212.078 80.8869 212.078 80.2832C212.078 79.6393 212.41 79.0672 212.97 78.7666L215.581 77.3115L215.589 77.3076L215.613 77.291C215.617 77.2876 215.616 77.2874 215.614 77.291L215.62 77.2783L215.627 77.2656L217.06 74.6201C217.364 74.0555 217.928 73.7257 218.562 73.7256Z" fill="#84D7CC" stroke="#252528" stroke-width="0.8"/>
    <path d="M95.2646 118.147C95.997 118.147 96.6474 118.518 97.0332 119.117L97.1074 119.24L97.1094 119.245L98.9629 122.682C98.9778 122.708 98.9964 122.734 99.0156 122.754L99.0527 122.783L99.0762 122.795L102.471 124.679H102.47C103.154 125.052 103.561 125.76 103.561 126.54C103.56 127.322 103.152 128.023 102.47 128.399L102.471 128.4L99.0762 130.284L99.0527 130.296C99.0494 130.297 99.0353 130.305 99.0156 130.325C98.9964 130.345 98.9779 130.371 98.9629 130.397L97.1094 133.835L97.1084 133.836C96.7378 134.516 96.0433 134.932 95.2646 134.932C94.4834 134.932 93.7958 134.51 93.4229 133.839L93.4199 133.835L91.5664 130.397L91.5137 130.325C91.494 130.305 91.4799 130.297 91.4766 130.296L91.4648 130.29L91.4541 130.284L88.0586 128.4V128.399C87.3749 128.026 86.9689 127.319 86.9688 126.54C86.9688 125.758 87.3762 125.055 88.0586 124.679L91.4541 122.795L91.4648 122.789L91.4766 122.783C91.4799 122.782 91.494 122.774 91.5137 122.754C91.5329 122.734 91.5514 122.708 91.5664 122.682L93.4199 119.245L93.4219 119.241C93.7955 118.564 94.4847 118.147 95.2646 118.147Z" fill="#84D7CC" stroke="#252528" stroke-width="0.8"/>
</svg>
