<svg width="240" height="48" viewBox="0 0 240 48" fill="none" xmlns="http://www.w3.org/2000/svg">
<path d="M2.792 10.7174V14.4134H1V4.34744H4.528C5.592 4.34744 6.418 4.59477 7.006 5.08944C7.594 5.5841 7.888 6.30277 7.888 7.24544C7.888 8.3001 7.566 9.14477 6.922 9.77944C6.28733 10.4048 5.42867 10.7174 4.346 10.7174H2.792ZM2.792 9.33144H4.15C4.77533 9.33144 5.24667 9.1681 5.564 8.84144C5.89067 8.50544 6.054 8.0201 6.054 7.38544C6.054 6.27477 5.466 5.71944 4.29 5.71944H2.792V9.33144Z" fill="white"/>
<path d="M14.1077 10.9834H10.1177C10.1271 11.6834 10.2857 12.2201 10.5937 12.5934C10.9017 12.9574 11.3264 13.1394 11.8677 13.1394C12.5304 13.1394 13.1977 12.9528 13.8697 12.5794L13.9677 14.0494C13.3331 14.3948 12.5724 14.5674 11.6857 14.5674C9.45505 14.5674 8.33972 13.2468 8.33972 10.6054C8.33972 9.31744 8.61505 8.36544 9.16572 7.74944C9.72572 7.1241 10.4584 6.81144 11.3637 6.81144C13.1931 6.81144 14.1077 7.9781 14.1077 10.3114V10.9834ZM12.4557 9.89144C12.4557 8.69677 12.0824 8.09944 11.3357 8.09944C10.9344 8.09944 10.6311 8.26744 10.4257 8.60344C10.2297 8.93944 10.1317 9.36877 10.1317 9.89144H12.4557Z" fill="white"/>
<path d="M19.5713 7.42744L19.6413 6.95144H21.2093V14.3014C21.2093 16.4668 20.2107 17.5494 18.2133 17.5494C17.2147 17.5494 16.342 17.3674 15.5953 17.0034L15.8613 15.4774C16.1507 15.6548 16.5007 15.7994 16.9113 15.9114C17.3313 16.0328 17.7187 16.0934 18.0733 16.0934C19.0347 16.0934 19.5153 15.4681 19.5153 14.2174V13.7694C19.058 14.2641 18.47 14.5114 17.7513 14.5114C16.9393 14.5114 16.2907 14.1988 15.8053 13.5734C15.3293 12.9388 15.0913 11.9961 15.0913 10.7454C15.0913 10.0548 15.18 9.42477 15.3573 8.85544C15.544 8.2861 15.852 7.80544 16.2813 7.41344C16.72 7.0121 17.252 6.81144 17.8773 6.81144C18.5027 6.81144 19.0673 7.01677 19.5713 7.42744ZM19.4593 12.5514V8.64544C19.0207 8.3281 18.6287 8.16944 18.2833 8.16944C17.3687 8.16944 16.9113 9.03744 16.9113 10.7734C16.9113 12.3414 17.3547 13.1254 18.2413 13.1254C18.6707 13.1254 19.0767 12.9341 19.4593 12.5514Z" fill="white"/>
<path d="M23.3639 8.44944L23.1539 7.14744C23.8259 6.92344 24.5959 6.81144 25.4639 6.81144C26.4906 6.81144 27.2186 7.04477 27.6479 7.51144C28.0772 7.96877 28.2919 8.80877 28.2919 10.0314V12.6634C28.2919 13.0554 28.4319 13.2514 28.7119 13.2514C28.8426 13.2514 28.9919 13.2188 29.1599 13.1534L29.2859 14.3294C28.9312 14.4788 28.5346 14.5534 28.0959 14.5534C27.4239 14.5534 27.0132 14.2688 26.8639 13.6994C26.2572 14.2688 25.5526 14.5534 24.7499 14.5534C24.0312 14.5534 23.4806 14.3341 23.0979 13.8954C22.7246 13.4568 22.5379 12.8968 22.5379 12.2154C22.5379 10.4888 23.4992 9.62544 25.4219 9.62544C25.8046 9.62544 26.2012 9.6721 26.6119 9.76544V9.44344C26.6119 8.57544 26.1219 8.14144 25.1419 8.14144C24.6099 8.14144 24.0172 8.2441 23.3639 8.44944ZM26.6119 12.5934V10.8714C26.2946 10.7594 25.9959 10.7034 25.7159 10.7034C24.7546 10.7034 24.2739 11.1561 24.2739 12.0614C24.2739 12.4254 24.3579 12.7148 24.5259 12.9294C24.6939 13.1348 24.9412 13.2374 25.2679 13.2374C25.7719 13.2374 26.2199 13.0228 26.6119 12.5934Z" fill="white"/>
<path d="M34.1793 7.28744V4.34744H35.9293V14.4134H34.3613L34.3053 13.7554C33.792 14.2874 33.1807 14.5534 32.4713 14.5534C31.6593 14.5534 31.0107 14.2314 30.5253 13.5874C30.0493 12.9434 29.8113 11.9961 29.8113 10.7454C29.8113 10.0548 29.9047 9.42477 30.0913 8.85544C30.278 8.27677 30.5907 7.79144 31.0293 7.39944C31.468 7.00744 32.0093 6.81144 32.6533 6.81144C33.2133 6.81144 33.722 6.9701 34.1793 7.28744ZM34.1933 12.6074V8.61744C33.7547 8.3001 33.3673 8.14144 33.0313 8.14144C32.098 8.14144 31.6313 9.01877 31.6313 10.7734C31.6313 11.5574 31.748 12.1548 31.9813 12.5654C32.2147 12.9761 32.546 13.1814 32.9753 13.1814C33.4047 13.1814 33.8107 12.9901 34.1933 12.6074Z" fill="white"/>
<path d="M38.0839 8.44944L37.8739 7.14744C38.5459 6.92344 39.3159 6.81144 40.1839 6.81144C41.2106 6.81144 41.9386 7.04477 42.3679 7.51144C42.7973 7.96877 43.0119 8.80877 43.0119 10.0314V12.6634C43.0119 13.0554 43.1519 13.2514 43.4319 13.2514C43.5626 13.2514 43.7119 13.2188 43.8799 13.1534L44.0059 14.3294C43.6513 14.4788 43.2546 14.5534 42.8159 14.5534C42.1439 14.5534 41.7333 14.2688 41.5839 13.6994C40.9773 14.2688 40.2726 14.5534 39.4699 14.5534C38.7513 14.5534 38.2006 14.3341 37.8179 13.8954C37.4446 13.4568 37.2579 12.8968 37.2579 12.2154C37.2579 10.4888 38.2193 9.62544 40.1419 9.62544C40.5246 9.62544 40.9213 9.6721 41.3319 9.76544V9.44344C41.3319 8.57544 40.8419 8.14144 39.8619 8.14144C39.3299 8.14144 38.7373 8.2441 38.0839 8.44944ZM41.3319 12.5934V10.8714C41.0146 10.7594 40.7159 10.7034 40.4359 10.7034C39.4746 10.7034 38.9939 11.1561 38.9939 12.0614C38.9939 12.4254 39.0779 12.7148 39.2459 12.9294C39.4139 13.1348 39.6613 13.2374 39.9879 13.2374C40.4919 13.2374 40.9399 13.0228 41.3319 12.5934Z" fill="white"/>
<path d="M45.0461 6.95144H46.7961V14.4134H45.0461V6.95144ZM44.9061 5.00544C44.9061 4.6881 44.9994 4.44077 45.1861 4.26344C45.3727 4.0861 45.6154 3.99744 45.9141 3.99744C46.2407 3.99744 46.4927 4.0861 46.6701 4.26344C46.8474 4.43144 46.9361 4.67877 46.9361 5.00544C46.9361 5.3321 46.8381 5.5841 46.6421 5.76144C46.4554 5.92944 46.2127 6.01344 45.9141 6.01344C45.6061 6.01344 45.3587 5.92477 45.1721 5.74744C44.9947 5.56077 44.9061 5.31344 44.9061 5.00544Z" fill="white"/>
<path d="M48.9485 8.44944L48.7385 7.14744C49.4105 6.92344 50.1805 6.81144 51.0485 6.81144C52.0751 6.81144 52.8031 7.04477 53.2325 7.51144C53.6618 7.96877 53.8765 8.80877 53.8765 10.0314V12.6634C53.8765 13.0554 54.0165 13.2514 54.2965 13.2514C54.4271 13.2514 54.5765 13.2188 54.7445 13.1534L54.8705 14.3294C54.5158 14.4788 54.1191 14.5534 53.6805 14.5534C53.0085 14.5534 52.5978 14.2688 52.4485 13.6994C51.8418 14.2688 51.1371 14.5534 50.3345 14.5534C49.6158 14.5534 49.0651 14.3341 48.6825 13.8954C48.3091 13.4568 48.1225 12.8968 48.1225 12.2154C48.1225 10.4888 49.0838 9.62544 51.0065 9.62544C51.3891 9.62544 51.7858 9.6721 52.1965 9.76544V9.44344C52.1965 8.57544 51.7065 8.14144 50.7265 8.14144C50.1945 8.14144 49.6018 8.2441 48.9485 8.44944ZM52.1965 12.5934V10.8714C51.8791 10.7594 51.5805 10.7034 51.3005 10.7034C50.3391 10.7034 49.8585 11.1561 49.8585 12.0614C49.8585 12.4254 49.9425 12.7148 50.1105 12.9294C50.2785 13.1348 50.5258 13.2374 50.8525 13.2374C51.3565 13.2374 51.8045 13.0228 52.1965 12.5934Z" fill="white"/>
<path d="M57.5066 6.95144L57.5626 7.69344C58.2346 7.10544 58.972 6.81144 59.7746 6.81144C60.9786 6.81144 61.66 7.32944 61.8186 8.36544C61.856 8.59877 61.8746 8.91144 61.8746 9.30344V14.4134H60.1246V9.52744C60.1246 9.2381 60.12 9.04677 60.1106 8.95344C60.0546 8.4961 59.7466 8.26744 59.1866 8.26744C58.7013 8.26744 58.1973 8.50077 57.6746 8.96744V14.4134H55.9106V6.95144H57.5066Z" fill="white"/>
<path d="M8.35398 31.7454V29.2494H14.958V37.7774C13.138 38.6441 11.1966 39.0774 9.13398 39.0774C6.37798 39.0774 4.34998 38.2714 3.04998 36.6594C1.76731 35.0474 1.12598 32.5081 1.12598 29.0414C1.12598 26.1641 1.72398 23.8761 2.91998 22.1774C4.13331 20.4787 5.99664 19.6294 8.50998 19.6294C10.3646 19.6294 11.7773 20.0627 12.748 20.9294C13.7186 21.7787 14.3686 23.0007 14.698 24.5954L11.604 25.3494C11.3093 24.2921 10.928 23.5207 10.46 23.0354C10.0093 22.5327 9.32464 22.2814 8.40598 22.2814C5.87531 22.2814 4.60998 24.5001 4.60998 28.9374C4.60998 30.1334 4.67064 31.1561 4.79198 32.0054C4.91331 32.8547 5.13864 33.6347 5.46798 34.3454C5.79731 35.0387 6.26531 35.5674 6.87198 35.9314C7.49598 36.2781 8.26731 36.4514 9.18598 36.4514C10.122 36.4514 10.9626 36.2954 11.708 35.9834V31.7454H8.35398Z" fill="#BFD730"/>
<path d="M18.5405 27.6374L18.1505 25.2194C19.3985 24.8034 20.8285 24.5954 22.4405 24.5954C24.3472 24.5954 25.6992 25.0287 26.4965 25.8954C27.2938 26.7447 27.6925 28.3047 27.6925 30.5754V35.4634C27.6925 36.1914 27.9525 36.5554 28.4725 36.5554C28.7152 36.5554 28.9925 36.4947 29.3045 36.3734L29.5385 38.5574C28.8798 38.8347 28.1432 38.9734 27.3285 38.9734C26.0805 38.9734 25.3178 38.4447 25.0405 37.3874C23.9138 38.4447 22.6052 38.9734 21.1145 38.9734C19.7798 38.9734 18.7572 38.5661 18.0465 37.7514C17.3532 36.9367 17.0065 35.8967 17.0065 34.6314C17.0065 31.4247 18.7918 29.8214 22.3625 29.8214C23.0732 29.8214 23.8098 29.9081 24.5725 30.0814V29.4834C24.5725 27.8714 23.6625 27.0654 21.8425 27.0654C20.8545 27.0654 19.7538 27.2561 18.5405 27.6374ZM24.5725 35.3334V32.1354C23.9832 31.9274 23.4285 31.8234 22.9085 31.8234C21.1232 31.8234 20.2305 32.6641 20.2305 34.3454C20.2305 35.0214 20.3865 35.5587 20.6985 35.9574C21.0105 36.3387 21.4698 36.5294 22.0765 36.5294C23.0125 36.5294 23.8445 36.1307 24.5725 35.3334Z" fill="#BFD730"/>
<path d="M38.6003 25.4794V20.0194H41.8503V38.7134H38.9383L38.8343 37.4914C37.881 38.4794 36.7456 38.9734 35.4283 38.9734C33.9203 38.9734 32.7156 38.3754 31.8143 37.1794C30.9303 35.9834 30.4883 34.2241 30.4883 31.9014C30.4883 30.6187 30.6616 29.4487 31.0083 28.3914C31.355 27.3167 31.9356 26.4154 32.7503 25.6874C33.565 24.9594 34.5703 24.5954 35.7663 24.5954C36.8063 24.5954 37.751 24.8901 38.6003 25.4794ZM38.6263 35.3594V27.9494C37.8116 27.3601 37.0923 27.0654 36.4683 27.0654C34.735 27.0654 33.8683 28.6947 33.8683 31.9534C33.8683 33.4094 34.085 34.5187 34.5183 35.2814C34.9516 36.0441 35.567 36.4254 36.3643 36.4254C37.1616 36.4254 37.9156 36.0701 38.6263 35.3594Z" fill="#BFD730"/>
<path d="M45.8257 27.6374L45.4357 25.2194C46.6837 24.8034 48.1137 24.5954 49.7257 24.5954C51.6323 24.5954 52.9843 25.0287 53.7817 25.8954C54.579 26.7447 54.9777 28.3047 54.9777 30.5754V35.4634C54.9777 36.1914 55.2377 36.5554 55.7577 36.5554C56.0003 36.5554 56.2777 36.4947 56.5897 36.3734L56.8237 38.5574C56.165 38.8347 55.4283 38.9734 54.6137 38.9734C53.3657 38.9734 52.603 38.4447 52.3257 37.3874C51.199 38.4447 49.8903 38.9734 48.3997 38.9734C47.065 38.9734 46.0423 38.5661 45.3317 37.7514C44.6383 36.9367 44.2917 35.8967 44.2917 34.6314C44.2917 31.4247 46.077 29.8214 49.6477 29.8214C50.3583 29.8214 51.095 29.9081 51.8577 30.0814V29.4834C51.8577 27.8714 50.9477 27.0654 49.1277 27.0654C48.1397 27.0654 47.039 27.2561 45.8257 27.6374ZM51.8577 35.3334V32.1354C51.2683 31.9274 50.7137 31.8234 50.1937 31.8234C48.4083 31.8234 47.5157 32.6641 47.5157 34.3454C47.5157 35.0214 47.6717 35.5587 47.9837 35.9574C48.2957 36.3387 48.755 36.5294 49.3617 36.5294C50.2977 36.5294 51.1297 36.1307 51.8577 35.3334Z" fill="#BFD730"/>
<path d="M58.7294 24.8554H61.9794V38.7134H58.7294V24.8554ZM58.4694 21.2414C58.4694 20.6521 58.6427 20.1927 58.9894 19.8634C59.3361 19.5341 59.7867 19.3694 60.3414 19.3694C60.9481 19.3694 61.416 19.5341 61.7454 19.8634C62.0747 20.1754 62.2394 20.6347 62.2394 21.2414C62.2394 21.8481 62.0574 22.3161 61.6934 22.6454C61.3467 22.9574 60.896 23.1134 60.3414 23.1134C59.7694 23.1134 59.3101 22.9487 58.9634 22.6194C58.634 22.2727 58.4694 21.8134 58.4694 21.2414Z" fill="#BFD730"/>
<path d="M66.137 26.2304V25.0524H75.941V26.2304H71.685V38.7134H70.374V26.2304H66.137Z" fill="#BFD730"/>
<path d="M75.8771 29.9354L75.7441 28.8144C76.5675 28.5864 77.5238 28.4724 78.6131 28.4724C80.7158 28.4724 81.7671 29.511 81.7671 31.5884V36.9654C81.7671 37.2694 81.8178 37.4847 81.9191 37.6114C82.0331 37.738 82.2168 37.8014 82.4701 37.8014C82.6728 37.8014 82.9451 37.738 83.2871 37.6114L83.4011 38.6564C82.8818 38.821 82.4638 38.9034 82.1471 38.9034C81.7038 38.9034 81.3491 38.7894 81.0831 38.5614C80.8171 38.3207 80.6651 38.0294 80.6271 37.6874C79.7151 38.498 78.7525 38.9034 77.7391 38.9034C76.8145 38.9034 76.1115 38.612 75.6301 38.0294C75.1488 37.4467 74.9081 36.7057 74.9081 35.8064C74.9081 34.6284 75.2438 33.7607 75.9151 33.2034C76.5991 32.6334 77.5491 32.3484 78.7651 32.3484C79.3731 32.3484 79.9558 32.4117 80.5131 32.5384V31.8164C80.5131 31.031 80.3421 30.461 80.0001 30.1064C79.6581 29.7517 79.0628 29.5744 78.2141 29.5744C77.4161 29.5744 76.6371 29.6947 75.8771 29.9354ZM80.5131 36.6804L80.5321 33.5264C79.9748 33.387 79.4555 33.3174 78.9741 33.3174C78.0621 33.3174 77.3781 33.5074 76.9221 33.8874C76.4788 34.2674 76.2571 34.8944 76.2571 35.7684C76.2571 36.351 76.4028 36.8324 76.6941 37.2124C76.9981 37.5924 77.4415 37.7824 78.0241 37.7824C78.8981 37.7824 79.7278 37.415 80.5131 36.6804Z" fill="#BFD730"/>
<path d="M86.6081 29.7834C87.8368 28.922 88.8438 28.4914 89.6291 28.4914C90.5665 28.4914 91.3011 28.8587 91.8331 29.5934C92.3778 30.328 92.6501 31.4237 92.6501 32.8804C92.6501 36.8957 91.2568 38.9034 88.4701 38.9034C87.3301 38.9034 86.2915 38.6184 85.3541 38.0484V25.0524H86.6081V29.7834ZM91.2631 33.3744C91.2631 31.981 91.0921 31.0184 90.7501 30.4864C90.4208 29.9544 89.9395 29.6884 89.3061 29.6884C88.6095 29.6884 87.7101 30.0747 86.6081 30.8474V37.3454C87.1655 37.662 87.7925 37.8204 88.4891 37.8204C89.4771 37.8204 90.1865 37.4024 90.6171 36.5664C91.0478 35.7304 91.2631 34.6664 91.2631 33.3744Z" fill="#BFD730"/>
<path d="M97.8825 38.9034C96.3625 38.9034 95.4886 38.251 95.2605 36.9464C95.2099 36.655 95.1845 36.2434 95.1845 35.7114V28.8524L96.4385 28.6814V35.5404C96.4385 36.0217 96.4639 36.3637 96.5145 36.5664C96.6412 37.377 97.1985 37.7824 98.1866 37.7824C99.1239 37.7824 100.118 37.2884 101.17 36.3004V28.6814H102.462V38.7134H101.17V37.4784C100.068 38.4284 98.9719 38.9034 97.8825 38.9034Z" fill="#BFD730"/>
<path d="M110.287 28.4724C111.795 28.4724 112.675 29.131 112.928 30.4484C112.966 30.6637 112.985 31.0754 112.985 31.6834V38.7134H111.731V31.8544C111.731 31.411 111.712 31.069 111.674 30.8284C111.522 30.0304 110.94 29.6314 109.926 29.6314C109.002 29.6314 108.026 30.119 107 31.0944V38.7134H105.727V28.6814H107V29.9354C108.077 28.96 109.173 28.4724 110.287 28.4724Z" fill="#BFD730"/>
<path d="M119.345 28.4724C120.067 28.4724 120.858 28.7637 121.72 29.3464V28.6814H122.993V38.4284C122.993 38.973 122.967 39.448 122.917 39.8534C122.866 40.2714 122.758 40.6767 122.594 41.0694C122.442 41.462 122.233 41.785 121.967 42.0384C121.701 42.2917 121.346 42.4944 120.903 42.6464C120.459 42.7984 119.934 42.8744 119.326 42.8744C118.122 42.8744 117.071 42.6147 116.172 42.0954L116.4 40.8984C116.754 41.1137 117.217 41.31 117.787 41.4874C118.369 41.6774 118.927 41.7724 119.459 41.7724C119.953 41.7724 120.358 41.6774 120.675 41.4874C121.004 41.31 121.245 41.044 121.397 40.6894C121.549 40.3347 121.65 39.9674 121.701 39.5874C121.764 39.22 121.796 38.7767 121.796 38.2574V37.6684C120.947 38.4917 120.048 38.9034 119.098 38.9034C118.046 38.9034 117.21 38.479 116.59 37.6304C115.969 36.7817 115.659 35.5214 115.659 33.8494C115.659 33.178 115.722 32.5447 115.849 31.9494C115.988 31.3414 116.191 30.7714 116.457 30.2394C116.735 29.6947 117.122 29.264 117.616 28.9474C118.11 28.6307 118.686 28.4724 119.345 28.4724ZM116.989 33.9254C116.989 35.154 117.204 36.104 117.635 36.7754C118.065 37.4467 118.629 37.7824 119.326 37.7824C120.2 37.7824 121.004 37.3517 121.739 36.4904V30.6004C120.89 29.9417 120.13 29.6124 119.459 29.6124C117.812 29.6124 116.989 31.05 116.989 33.9254Z" fill="#BFD730"/>
<path d="M126.457 29.9354L126.324 28.8144C127.148 28.5864 128.104 28.4724 129.193 28.4724C131.296 28.4724 132.347 29.511 132.347 31.5884V36.9654C132.347 37.2694 132.398 37.4847 132.499 37.6114C132.613 37.738 132.797 37.8014 133.05 37.8014C133.253 37.8014 133.525 37.738 133.867 37.6114L133.981 38.6564C133.462 38.821 133.044 38.9034 132.727 38.9034C132.284 38.9034 131.929 38.7894 131.663 38.5614C131.397 38.3207 131.245 38.0294 131.207 37.6874C130.295 38.498 129.333 38.9034 128.319 38.9034C127.395 38.9034 126.692 38.612 126.21 38.0294C125.729 37.4467 125.488 36.7057 125.488 35.8064C125.488 34.6284 125.824 33.7607 126.495 33.2034C127.179 32.6334 128.129 32.3484 129.345 32.3484C129.953 32.3484 130.536 32.4117 131.093 32.5384V31.8164C131.093 31.031 130.922 30.461 130.58 30.1064C130.238 29.7517 129.643 29.5744 128.794 29.5744C127.996 29.5744 127.217 29.6947 126.457 29.9354ZM131.093 36.6804L131.112 33.5264C130.555 33.387 130.036 33.3174 129.554 33.3174C128.642 33.3174 127.958 33.5074 127.502 33.8874C127.059 34.2674 126.837 34.8944 126.837 35.7684C126.837 36.351 126.983 36.8324 127.274 37.2124C127.578 37.5924 128.022 37.7824 128.604 37.7824C129.478 37.7824 130.308 37.415 131.093 36.6804Z" fill="#BFD730"/>
<path d="M140.494 28.4724C142.002 28.4724 142.882 29.131 143.135 30.4484C143.173 30.6637 143.192 31.0754 143.192 31.6834V38.7134H141.938V31.8544C141.938 31.411 141.919 31.069 141.881 30.8284C141.729 30.0304 141.147 29.6314 140.133 29.6314C139.209 29.6314 138.233 30.119 137.207 31.0944V38.7134H135.934V28.6814H137.207V29.9354C138.284 28.96 139.38 28.4724 140.494 28.4724Z" fill="#BFD730"/>
<path d="M148.733 38.7134V25.0524H156.067V26.2304H150.044V31.0184H155.288V32.1964H150.044V37.5164H156.314V38.7134H148.733Z" fill="#BFD730"/>
<path d="M163.177 28.4724C164.355 28.4724 165.128 28.9157 165.495 29.8024C166.521 28.9157 167.566 28.4724 168.63 28.4724C170.15 28.4724 171.024 29.131 171.252 30.4484C171.303 30.7397 171.328 31.1514 171.328 31.6834V38.7134H170.074V31.8544C170.074 31.3857 170.049 31.0437 169.998 30.8284C169.846 30.0304 169.295 29.6314 168.345 29.6314C167.471 29.6314 166.591 30.0494 165.704 30.8854C165.729 31.088 165.742 31.4237 165.742 31.8924V38.7134H164.488V31.8544C164.488 31.3857 164.463 31.0437 164.412 30.8284C164.285 30.0304 163.785 29.6314 162.911 29.6314C161.86 29.6314 160.853 30.1254 159.89 31.1134V38.7134H158.617V28.6814H159.89V29.9164C160.992 28.9537 162.088 28.4724 163.177 28.4724Z" fill="#BFD730"/>
<path d="M174.782 29.9354L174.649 28.8144C175.473 28.5864 176.429 28.4724 177.518 28.4724C179.621 28.4724 180.672 29.511 180.672 31.5884V36.9654C180.672 37.2694 180.723 37.4847 180.824 37.6114C180.938 37.738 181.122 37.8014 181.375 37.8014C181.578 37.8014 181.85 37.738 182.192 37.6114L182.306 38.6564C181.787 38.821 181.369 38.9034 181.052 38.9034C180.609 38.9034 180.254 38.7894 179.988 38.5614C179.722 38.3207 179.57 38.0294 179.532 37.6874C178.62 38.498 177.658 38.9034 176.644 38.9034C175.72 38.9034 175.017 38.612 174.535 38.0294C174.054 37.4467 173.813 36.7057 173.813 35.8064C173.813 34.6284 174.149 33.7607 174.82 33.2034C175.504 32.6334 176.454 32.3484 177.67 32.3484C178.278 32.3484 178.861 32.4117 179.418 32.5384V31.8164C179.418 31.031 179.247 30.461 178.905 30.1064C178.563 29.7517 177.968 29.5744 177.119 29.5744C176.321 29.5744 175.542 29.6947 174.782 29.9354ZM179.418 36.6804L179.437 33.5264C178.88 33.387 178.361 33.3174 177.879 33.3174C176.967 33.3174 176.283 33.5074 175.827 33.8874C175.384 34.2674 175.162 34.8944 175.162 35.7684C175.162 36.351 175.308 36.8324 175.599 37.2124C175.903 37.5924 176.347 37.7824 176.929 37.7824C177.803 37.7824 178.633 37.415 179.418 36.6804Z" fill="#BFD730"/>
<path d="M183.385 37.8774L183.727 36.6994C184.006 36.9527 184.411 37.206 184.943 37.4594C185.475 37.7127 185.982 37.8394 186.463 37.8394C187.084 37.8394 187.584 37.7 187.964 37.4214C188.344 37.1427 188.534 36.7374 188.534 36.2054C188.534 35.7114 188.363 35.3187 188.021 35.0274C187.679 34.736 187.261 34.5144 186.767 34.3624C186.273 34.2104 185.779 34.0457 185.285 33.8684C184.804 33.691 184.392 33.387 184.05 32.9564C183.708 32.5257 183.537 31.962 183.537 31.2654C183.537 30.404 183.848 29.7264 184.468 29.2324C185.089 28.7257 185.849 28.4724 186.748 28.4724C187.673 28.4724 188.395 28.7067 188.914 29.1754C189.446 29.6314 189.769 30.1697 189.883 30.7904L188.857 31.2084C188.705 30.6764 188.439 30.2774 188.059 30.0114C187.679 29.7327 187.236 29.5934 186.729 29.5934C186.197 29.5934 185.748 29.7264 185.38 29.9924C185.013 30.2584 184.829 30.6637 184.829 31.2084C184.829 31.7024 185 32.1014 185.342 32.4054C185.684 32.6967 186.096 32.9184 186.577 33.0704C187.071 33.2224 187.565 33.387 188.059 33.5644C188.553 33.729 188.971 34.014 189.313 34.4194C189.655 34.8247 189.826 35.3504 189.826 35.9964C189.826 36.8577 189.529 37.567 188.933 38.1244C188.351 38.669 187.521 38.9414 186.444 38.9414C185.836 38.9414 185.235 38.8274 184.639 38.5994C184.057 38.3587 183.639 38.118 183.385 37.8774Z" fill="#BFD730"/>
</svg>
