<svg width="48" height="48" viewBox="0 0 48 48" fill="none" xmlns="http://www.w3.org/2000/svg">
<path fill-rule="evenodd" clip-rule="evenodd" d="M23.9937 10.2301C31.6303 10.2299 37.7845 16.3764 37.79 24.0095C37.7956 31.6016 31.6239 37.7941 24.0486 37.7975C16.3843 37.8008 10.2293 31.6472 10.2336 23.9854C10.2378 16.3777 16.3873 10.2305 23.9937 10.2301ZM30.1665 19.6082C30.4756 19.7837 30.6496 19.8766 30.8177 19.9792C31.0913 20.1459 31.3398 20.2212 31.5516 19.8802C31.7765 19.518 31.5516 19.3739 31.2761 19.2176C28.5155 17.6521 25.5838 16.8483 22.3876 17.1946C20.37 17.4133 18.5056 18.0731 16.7803 19.132C16.5279 19.2871 16.1994 19.4266 16.4568 19.8346C16.7183 20.2492 16.9888 20.0482 17.2713 19.8673C17.4279 19.7671 17.5964 19.6855 17.8588 19.5407C17.7539 19.7977 17.6978 19.9431 17.6358 20.0858C16.4693 22.7713 15.3029 25.4568 14.1346 28.1414C13.7343 29.0612 13.8838 29.5587 14.7537 30.0795C15.0137 30.235 15.2948 30.3679 15.5822 30.463C17.3586 31.0508 19.1511 31.0364 20.9489 30.565C21.3679 30.4551 21.7608 30.2748 22.127 30.0436C22.9164 29.5456 23.0614 29.0333 22.6877 28.1757C21.4322 25.2943 20.1903 22.4068 18.9198 19.5321C18.7456 19.1381 18.8522 19.0252 19.2096 18.8871C22.3962 17.6564 25.5642 17.7308 28.7361 18.9488C29.171 19.1157 29.2003 19.2926 29.0243 19.6906C27.8044 22.4498 26.608 25.2193 25.4036 27.9854C24.9095 29.12 25.1064 29.6932 26.2271 30.231C27.6164 30.8978 29.0988 30.9877 30.6038 30.8506C31.5586 30.7636 32.4907 30.5731 33.3181 30.0485C34.1111 29.5461 34.264 29.0325 33.893 28.1838C33.296 26.818 32.7018 25.4509 32.1078 24.0839C31.4802 22.6388 30.854 21.1933 30.1665 19.6082Z" fill="#02A750"/>
<path fill-rule="evenodd" clip-rule="evenodd" d="M23.961 48C17.0705 47.9072 11.2023 45.3993 6.47473 40.3916C2.6704 36.3618 0.555623 31.5269 0.0917436 25.9902C0.0497396 25.4891 0.047904 24.9848 0.00363236 24.484C-0.0201231 24.2156 0.0707956 24.1479 0.330918 24.1542C1.03127 24.1712 1.73271 24.1717 2.43306 24.1528C2.76748 24.1438 2.70107 24.3591 2.70701 24.547C2.76629 26.4425 3.03764 28.308 3.59222 30.121C4.62451 33.4959 6.36978 36.4555 8.86043 38.9661C11.5925 41.7202 14.8266 43.6265 18.5831 44.5975C22.5929 45.6341 26.5893 45.552 30.5407 44.2631C35.3728 42.687 39.1795 39.7567 41.929 35.4943C44.3564 31.7311 45.4608 27.5894 45.2707 23.1062C45.0458 17.8 43.0857 13.202 39.4569 9.36822C35.853 5.56087 31.392 3.3644 26.149 2.83647C21.8045 2.39899 17.7036 3.21448 13.8639 5.299C13.5681 5.45962 13.3881 5.45929 13.212 5.15329C12.9074 4.62417 12.5963 4.09688 12.2548 3.59118C12.0481 3.28528 12.1276 3.14421 12.4244 2.97917C14.2427 1.96821 16.1645 1.21371 18.1796 0.718374C21.9088 -0.198249 25.66 -0.245095 29.4035 0.620472C34.0633 1.69792 38.0707 3.96347 41.3599 7.43448C45.4495 11.7502 47.676 16.8923 47.9679 22.8412C48.253 28.6498 46.6395 33.9064 43.117 38.5184C39.3277 43.4796 34.3143 46.5212 28.1535 47.6427C26.768 47.8952 25.3728 47.9996 23.961 48Z" fill="#BAD333"/>
<path fill-rule="evenodd" clip-rule="evenodd" d="M24.0598 5.37006C30.9127 5.6017 36.2369 8.54607 39.9603 14.3445C40.167 14.6662 40.1313 14.8225 39.7983 15.0052C39.3268 15.2638 38.8652 15.5507 38.437 15.8748C38.0504 16.1674 37.8479 16.146 37.5815 15.7025C36.2713 13.5222 34.5062 11.7826 32.3487 10.4348C26.4223 6.73269 18.4825 7.45934 13.3306 12.2054C9.64608 15.5997 7.90113 19.8238 8.09809 24.8238C8.39352 32.3312 14.2869 38.8381 21.7527 39.7492C28.5411 40.5778 33.8244 38.0023 37.5885 32.3075C37.7667 32.0377 37.8789 31.9685 38.1618 32.1718C38.672 32.5387 39.2017 32.8819 39.7441 33.1994C40.0668 33.3883 40.0385 33.5572 39.8599 33.8334C36.8855 38.4345 32.7394 41.3534 27.3385 42.3299C18.9811 43.8408 10.9286 39.6959 7.17886 32.0562C2.85406 23.2448 6.48272 12.1631 15.1874 7.58444C17.9615 6.12531 20.9031 5.35732 24.0598 5.37006Z" fill="#74BC46"/>
<path fill-rule="evenodd" clip-rule="evenodd" d="M30.1665 19.6081C30.854 21.1933 31.4802 22.6388 32.1079 24.0838C32.7019 25.4508 33.2961 26.8179 33.8931 28.1836C34.2641 29.0323 34.1112 29.5459 33.3182 30.0484C32.4908 30.5729 31.5587 30.7635 30.6039 30.8505C29.0989 30.9876 27.6165 30.8977 26.2272 30.2309C25.1065 29.6932 24.9096 29.1199 25.4036 27.9852C26.608 25.2192 27.8045 22.4497 29.0244 19.6905C29.2004 19.2924 29.171 19.1156 28.7362 18.9486C25.5643 17.7306 22.3964 17.6562 19.2097 18.887C18.8522 19.0249 18.7457 19.1379 18.9199 19.5319C20.1904 22.4067 21.4322 25.2942 22.6877 28.1755C23.0614 29.0331 22.9164 29.5454 22.1271 30.0434C21.7608 30.2746 21.368 30.455 20.949 30.5649C19.1512 31.0361 17.3586 31.0507 15.5823 30.4629C15.2948 30.3678 15.0138 30.235 14.7538 30.0794C13.8839 29.5586 13.7344 29.0611 14.1347 28.1413C15.303 25.4566 16.4694 22.7712 17.6359 20.0857C17.6979 19.943 17.7539 19.7976 17.8589 19.5406C17.5965 19.6854 17.428 19.767 17.2714 19.8672C16.9888 20.0482 16.7184 20.2491 16.4569 19.8345C16.1995 19.4266 16.5279 19.2869 16.7804 19.1319C18.5057 18.0728 20.3701 17.4132 22.3877 17.1945C25.5839 16.8481 28.5155 17.652 31.2762 19.2175C31.5517 19.3737 31.7766 19.5178 31.5517 19.88C31.3399 20.221 31.0914 20.1458 30.8178 19.979C30.6496 19.8766 30.4755 19.7835 30.1665 19.6081ZM18.4453 20.4238C18.3728 20.4928 18.336 20.5123 18.3229 20.5423C17.2836 22.9255 16.2499 25.3112 15.2043 27.6917C15.0476 28.0486 15.2403 28.0319 15.4877 28.0313C17.2474 28.0271 19.0073 28.0288 20.7671 28.0286C21.0673 28.0286 21.3675 28.0286 21.7482 28.0286C20.6285 25.4507 19.5414 22.9477 18.4453 20.4238ZM29.6475 20.4332C29.5746 20.5004 29.5204 20.5279 29.5017 20.5707C28.4728 22.9387 27.4499 25.3093 26.4166 27.6754C26.2753 27.9992 26.4078 28.0333 26.6868 28.0325C28.6263 28.0257 30.5658 28.021 32.5051 28.035C32.9258 28.0381 32.8897 27.8881 32.7556 27.5914C32.4015 26.8071 32.0729 26.0113 31.7304 25.2219C31.0411 23.6332 30.3489 22.0456 29.6475 20.4332Z" fill="#F3FAF6"/>
<path fill-rule="evenodd" clip-rule="evenodd" d="M18.4454 20.4225C19.5416 22.9465 20.6285 25.4494 21.7481 28.0273C21.3674 28.0273 21.0672 28.0273 20.767 28.0273C19.0073 28.0275 17.2474 28.0258 15.4876 28.03C15.2402 28.0307 15.0475 28.0473 15.2042 27.6904C16.2498 25.3098 17.2835 22.9243 18.3228 20.5411C18.3359 20.5112 18.3727 20.4915 18.4454 20.4225Z" fill="#04A650"/>
<path fill-rule="evenodd" clip-rule="evenodd" d="M29.6475 20.4319C30.3489 22.0443 31.041 23.6319 31.7304 25.2207C32.0729 26.01 32.4015 26.806 32.7556 27.5902C32.8896 27.8869 32.9257 28.0369 32.5052 28.0338C30.5658 28.0196 28.6263 28.0244 26.6868 28.0312C26.4078 28.0322 26.2753 27.998 26.4166 27.6741C27.4499 25.308 28.4728 22.9374 29.5017 20.5694C29.5204 20.5266 29.5746 20.4992 29.6475 20.4319Z" fill="#04A650"/>
</svg>
