<svg width="240" height="48" viewBox="0 0 240 48" fill="none" xmlns="http://www.w3.org/2000/svg">
<path d="M2.792 10.7207V14.4167H1V4.35073H4.528C5.592 4.35073 6.418 4.59807 7.006 5.09273C7.594 5.5874 7.888 6.30607 7.888 7.24873C7.888 8.3034 7.566 9.14807 6.922 9.78273C6.28733 10.4081 5.42867 10.7207 4.346 10.7207H2.792ZM2.792 9.33473H4.15C4.77533 9.33473 5.24667 9.1714 5.564 8.84473C5.89067 8.50873 6.054 8.0234 6.054 7.38873C6.054 6.27807 5.466 5.72273 4.29 5.72273H2.792V9.33473Z" fill="white"/>
<path d="M14.1077 10.9867H10.1177C10.1271 11.6867 10.2857 12.2234 10.5937 12.5967C10.9017 12.9607 11.3264 13.1427 11.8677 13.1427C12.5304 13.1427 13.1977 12.9561 13.8697 12.5827L13.9677 14.0527C13.3331 14.3981 12.5724 14.5707 11.6857 14.5707C9.45505 14.5707 8.33972 13.2501 8.33972 10.6087C8.33972 9.32073 8.61505 8.36873 9.16572 7.75273C9.72572 7.1274 10.4584 6.81473 11.3637 6.81473C13.1931 6.81473 14.1077 7.9814 14.1077 10.3147V10.9867ZM12.4557 9.89473C12.4557 8.70007 12.0824 8.10273 11.3357 8.10273C10.9344 8.10273 10.6311 8.27073 10.4257 8.60673C10.2297 8.94273 10.1317 9.37207 10.1317 9.89473H12.4557Z" fill="white"/>
<path d="M19.5713 7.43073L19.6413 6.95473H21.2093V14.3047C21.2093 16.4701 20.2107 17.5527 18.2133 17.5527C17.2147 17.5527 16.342 17.3707 15.5953 17.0067L15.8613 15.4807C16.1507 15.6581 16.5007 15.8027 16.9113 15.9147C17.3313 16.0361 17.7187 16.0967 18.0733 16.0967C19.0347 16.0967 19.5153 15.4714 19.5153 14.2207V13.7727C19.058 14.2674 18.47 14.5147 17.7513 14.5147C16.9393 14.5147 16.2907 14.2021 15.8053 13.5767C15.3293 12.9421 15.0913 11.9994 15.0913 10.7487C15.0913 10.0581 15.18 9.42807 15.3573 8.85873C15.544 8.2894 15.852 7.80873 16.2813 7.41673C16.72 7.0154 17.252 6.81473 17.8773 6.81473C18.5027 6.81473 19.0673 7.02007 19.5713 7.43073ZM19.4593 12.5547V8.64873C19.0207 8.3314 18.6287 8.17273 18.2833 8.17273C17.3687 8.17273 16.9113 9.04073 16.9113 10.7767C16.9113 12.3447 17.3547 13.1287 18.2413 13.1287C18.6707 13.1287 19.0767 12.9374 19.4593 12.5547Z" fill="white"/>
<path d="M23.3639 8.45273L23.1539 7.15073C23.8259 6.92673 24.5959 6.81473 25.4639 6.81473C26.4906 6.81473 27.2186 7.04807 27.6479 7.51473C28.0772 7.97207 28.2919 8.81207 28.2919 10.0347V12.6667C28.2919 13.0587 28.4319 13.2547 28.7119 13.2547C28.8426 13.2547 28.9919 13.2221 29.1599 13.1567L29.2859 14.3327C28.9312 14.4821 28.5346 14.5567 28.0959 14.5567C27.4239 14.5567 27.0132 14.2721 26.8639 13.7027C26.2572 14.2721 25.5526 14.5567 24.7499 14.5567C24.0312 14.5567 23.4806 14.3374 23.0979 13.8987C22.7246 13.4601 22.5379 12.9001 22.5379 12.2187C22.5379 10.4921 23.4992 9.62873 25.4219 9.62873C25.8046 9.62873 26.2012 9.6754 26.6119 9.76873V9.44673C26.6119 8.57873 26.1219 8.14473 25.1419 8.14473C24.6099 8.14473 24.0172 8.2474 23.3639 8.45273ZM26.6119 12.5967V10.8747C26.2946 10.7627 25.9959 10.7067 25.7159 10.7067C24.7546 10.7067 24.2739 11.1594 24.2739 12.0647C24.2739 12.4287 24.3579 12.7181 24.5259 12.9327C24.6939 13.1381 24.9412 13.2407 25.2679 13.2407C25.7719 13.2407 26.2199 13.0261 26.6119 12.5967Z" fill="white"/>
<path d="M34.1793 7.29073V4.35073H35.9293V14.4167H34.3613L34.3053 13.7587C33.792 14.2907 33.1807 14.5567 32.4713 14.5567C31.6593 14.5567 31.0107 14.2347 30.5253 13.5907C30.0493 12.9467 29.8113 11.9994 29.8113 10.7487C29.8113 10.0581 29.9047 9.42807 30.0913 8.85873C30.278 8.28007 30.5907 7.79473 31.0293 7.40273C31.468 7.01073 32.0093 6.81473 32.6533 6.81473C33.2133 6.81473 33.722 6.9734 34.1793 7.29073ZM34.1933 12.6107V8.62073C33.7547 8.3034 33.3673 8.14473 33.0313 8.14473C32.098 8.14473 31.6313 9.02207 31.6313 10.7767C31.6313 11.5607 31.748 12.1581 31.9813 12.5687C32.2147 12.9794 32.546 13.1847 32.9753 13.1847C33.4047 13.1847 33.8107 12.9934 34.1933 12.6107Z" fill="white"/>
<path d="M38.0839 8.45273L37.8739 7.15073C38.5459 6.92673 39.3159 6.81473 40.1839 6.81473C41.2106 6.81473 41.9386 7.04807 42.3679 7.51473C42.7973 7.97207 43.0119 8.81207 43.0119 10.0347V12.6667C43.0119 13.0587 43.1519 13.2547 43.4319 13.2547C43.5626 13.2547 43.7119 13.2221 43.8799 13.1567L44.0059 14.3327C43.6513 14.4821 43.2546 14.5567 42.8159 14.5567C42.1439 14.5567 41.7333 14.2721 41.5839 13.7027C40.9773 14.2721 40.2726 14.5567 39.4699 14.5567C38.7513 14.5567 38.2006 14.3374 37.8179 13.8987C37.4446 13.4601 37.2579 12.9001 37.2579 12.2187C37.2579 10.4921 38.2193 9.62873 40.1419 9.62873C40.5246 9.62873 40.9213 9.6754 41.3319 9.76873V9.44673C41.3319 8.57873 40.8419 8.14473 39.8619 8.14473C39.3299 8.14473 38.7373 8.2474 38.0839 8.45273ZM41.3319 12.5967V10.8747C41.0146 10.7627 40.7159 10.7067 40.4359 10.7067C39.4746 10.7067 38.9939 11.1594 38.9939 12.0647C38.9939 12.4287 39.0779 12.7181 39.2459 12.9327C39.4139 13.1381 39.6613 13.2407 39.9879 13.2407C40.4919 13.2407 40.9399 13.0261 41.3319 12.5967Z" fill="white"/>
<path d="M45.0461 6.95473H46.7961V14.4167H45.0461V6.95473ZM44.9061 5.00873C44.9061 4.6914 44.9994 4.44407 45.1861 4.26673C45.3727 4.0894 45.6154 4.00073 45.9141 4.00073C46.2407 4.00073 46.4927 4.0894 46.6701 4.26673C46.8474 4.43473 46.9361 4.68207 46.9361 5.00873C46.9361 5.3354 46.8381 5.5874 46.6421 5.76473C46.4554 5.93273 46.2127 6.01673 45.9141 6.01673C45.6061 6.01673 45.3587 5.92807 45.1721 5.75073C44.9947 5.56407 44.9061 5.31673 44.9061 5.00873Z" fill="white"/>
<path d="M48.9485 8.45273L48.7385 7.15073C49.4105 6.92673 50.1805 6.81473 51.0485 6.81473C52.0751 6.81473 52.8031 7.04807 53.2325 7.51473C53.6618 7.97207 53.8765 8.81207 53.8765 10.0347V12.6667C53.8765 13.0587 54.0165 13.2547 54.2965 13.2547C54.4271 13.2547 54.5765 13.2221 54.7445 13.1567L54.8705 14.3327C54.5158 14.4821 54.1191 14.5567 53.6805 14.5567C53.0085 14.5567 52.5978 14.2721 52.4485 13.7027C51.8418 14.2721 51.1371 14.5567 50.3345 14.5567C49.6158 14.5567 49.0651 14.3374 48.6825 13.8987C48.3091 13.4601 48.1225 12.9001 48.1225 12.2187C48.1225 10.4921 49.0838 9.62873 51.0065 9.62873C51.3891 9.62873 51.7858 9.6754 52.1965 9.76873V9.44673C52.1965 8.57873 51.7065 8.14473 50.7265 8.14473C50.1945 8.14473 49.6018 8.2474 48.9485 8.45273ZM52.1965 12.5967V10.8747C51.8791 10.7627 51.5805 10.7067 51.3005 10.7067C50.3391 10.7067 49.8585 11.1594 49.8585 12.0647C49.8585 12.4287 49.9425 12.7181 50.1105 12.9327C50.2785 13.1381 50.5258 13.2407 50.8525 13.2407C51.3565 13.2407 51.8045 13.0261 52.1965 12.5967Z" fill="white"/>
<path d="M57.5066 6.95473L57.5626 7.69673C58.2346 7.10873 58.972 6.81473 59.7746 6.81473C60.9786 6.81473 61.66 7.33273 61.8186 8.36873C61.856 8.60207 61.8746 8.91473 61.8746 9.30673V14.4167H60.1246V9.53073C60.1246 9.2414 60.12 9.05007 60.1106 8.95673C60.0546 8.4994 59.7466 8.27073 59.1866 8.27073C58.7013 8.27073 58.1973 8.50407 57.6746 8.97073V14.4167H55.9106V6.95473H57.5066Z" fill="white"/>
<path d="M66.2705 13.7167L66.8585 12.1487C67.7452 12.7647 68.5992 13.0727 69.4205 13.0727C69.8965 13.0727 70.2792 12.9654 70.5685 12.7507C70.8672 12.5267 71.0165 12.1814 71.0165 11.7147C71.0165 11.2107 70.8578 10.8374 70.5405 10.5947C70.2325 10.3521 69.7285 10.1327 69.0285 9.93673C68.7298 9.85273 68.4778 9.77807 68.2725 9.71273C68.0765 9.63807 67.8478 9.52607 67.5865 9.37673C67.3345 9.21807 67.1292 9.0454 66.9705 8.85873C66.8212 8.67207 66.6905 8.42473 66.5785 8.11673C66.4665 7.80873 66.4105 7.4634 66.4105 7.08073C66.4105 6.2034 66.7138 5.49407 67.3205 4.95273C67.9365 4.4114 68.7252 4.14073 69.6865 4.14073C70.6665 4.14073 71.4085 4.37407 71.9125 4.84073C72.4258 5.3074 72.7618 5.87673 72.9205 6.54873L71.2965 7.02473C71.0352 6.0914 70.4845 5.62473 69.6445 5.62473C69.2432 5.62473 68.9118 5.73207 68.6505 5.94673C68.3892 6.1614 68.2585 6.47873 68.2585 6.89873C68.2585 7.34673 68.4032 7.6734 68.6925 7.87873C68.9912 8.08407 69.4672 8.28473 70.1205 8.48073C70.9978 8.74207 71.6698 9.09673 72.1365 9.54473C72.6125 9.99273 72.8505 10.6414 72.8505 11.4907C72.8505 12.4614 72.5332 13.2267 71.8985 13.7867C71.2732 14.3374 70.4425 14.6127 69.4065 14.6127C68.1652 14.6127 67.1198 14.3141 66.2705 13.7167Z" fill="white"/>
<path d="M78.1916 6.95473L79.8996 7.13673C79.125 9.9274 78.3363 12.2607 77.5336 14.1367C77.291 14.7061 77.0763 15.1634 76.8896 15.5087C76.7123 15.8634 76.4883 16.2134 76.2176 16.5587C75.947 16.9041 75.639 17.1561 75.2936 17.3147C74.9576 17.4734 74.575 17.5527 74.1456 17.5527C73.3523 17.5527 72.6196 17.3754 71.9476 17.0207L72.3956 15.5787C73.0396 15.9147 73.5716 16.0827 73.9916 16.0827C74.393 16.0827 74.7056 15.9381 74.9296 15.6487C75.1629 15.3687 75.415 14.8741 75.6856 14.1647L73.0956 7.12273L74.9576 6.95473L76.0076 10.2727C76.297 11.2154 76.5116 11.9201 76.6516 12.3867C77.0343 11.2761 77.5476 9.4654 78.1916 6.95473Z" fill="white"/>
<path d="M81.1069 8.45273L80.8969 7.15073C81.5689 6.92673 82.3389 6.81473 83.2069 6.81473C84.2336 6.81473 84.9616 7.04807 85.3909 7.51473C85.8202 7.97207 86.0349 8.81207 86.0349 10.0347V12.6667C86.0349 13.0587 86.1749 13.2547 86.4549 13.2547C86.5856 13.2547 86.7349 13.2221 86.9029 13.1567L87.0289 14.3327C86.6742 14.4821 86.2776 14.5567 85.8389 14.5567C85.1669 14.5567 84.7562 14.2721 84.6069 13.7027C84.0002 14.2721 83.2956 14.5567 82.4929 14.5567C81.7742 14.5567 81.2236 14.3374 80.8409 13.8987C80.4676 13.4601 80.2809 12.9001 80.2809 12.2187C80.2809 10.4921 81.2422 9.62873 83.1649 9.62873C83.5476 9.62873 83.9442 9.6754 84.3549 9.76873V9.44673C84.3549 8.57873 83.8649 8.14473 82.8849 8.14473C82.3529 8.14473 81.7602 8.2474 81.1069 8.45273ZM84.3549 12.5967V10.8747C84.0376 10.7627 83.7389 10.7067 83.4589 10.7067C82.4976 10.7067 82.0169 11.1594 82.0169 12.0647C82.0169 12.4287 82.1009 12.7181 82.2689 12.9327C82.4369 13.1381 82.6842 13.2407 83.0109 13.2407C83.5149 13.2407 83.9629 13.0261 84.3549 12.5967Z" fill="white"/>
<path d="M91.4291 6.81473C91.9424 6.81473 92.3764 7.0714 92.7311 7.58473L91.9471 8.84473C91.7231 8.56473 91.4571 8.42473 91.1491 8.42473C90.6824 8.42473 90.2437 8.6394 89.8331 9.06873V14.4167H88.0691V6.95473H89.6371L89.7071 7.73873C90.2297 7.12273 90.8037 6.81473 91.4291 6.81473Z" fill="white"/>
<path d="M93.5902 6.95473H95.3402V14.4167H93.5902V6.95473ZM93.4502 5.00873C93.4502 4.6914 93.5435 4.44407 93.7302 4.26673C93.9169 4.0894 94.1595 4.00073 94.4582 4.00073C94.7849 4.00073 95.0369 4.0894 95.2142 4.26673C95.3915 4.43473 95.4802 4.68207 95.4802 5.00873C95.4802 5.3354 95.3822 5.5874 95.1862 5.76473C94.9995 5.93273 94.7569 6.01673 94.4582 6.01673C94.1502 6.01673 93.9029 5.92807 93.7162 5.75073C93.5389 5.56407 93.4502 5.31673 93.4502 5.00873Z" fill="white"/>
<path d="M97.4926 8.45273L97.2826 7.15073C97.9546 6.92673 98.7246 6.81473 99.5926 6.81473C100.619 6.81473 101.347 7.04807 101.777 7.51473C102.206 7.97207 102.421 8.81207 102.421 10.0347V12.6667C102.421 13.0587 102.561 13.2547 102.841 13.2547C102.971 13.2547 103.121 13.2221 103.289 13.1567L103.415 14.3327C103.06 14.4821 102.663 14.5567 102.225 14.5567C101.553 14.5567 101.142 14.2721 100.993 13.7027C100.386 14.2721 99.6813 14.5567 98.8786 14.5567C98.1599 14.5567 97.6093 14.3374 97.2266 13.8987C96.8533 13.4601 96.6666 12.9001 96.6666 12.2187C96.6666 10.4921 97.6279 9.62873 99.5506 9.62873C99.9333 9.62873 100.33 9.6754 100.741 9.76873V9.44673C100.741 8.57873 100.251 8.14473 99.2706 8.14473C98.7386 8.14473 98.1459 8.2474 97.4926 8.45273ZM100.741 12.5967V10.8747C100.423 10.7627 100.125 10.7067 99.8446 10.7067C98.8833 10.7067 98.4026 11.1594 98.4026 12.0647C98.4026 12.4287 98.4866 12.7181 98.6546 12.9327C98.8226 13.1381 99.0699 13.2407 99.3966 13.2407C99.9006 13.2407 100.349 13.0261 100.741 12.5967Z" fill="white"/>
<path d="M108.347 6.81473C109.131 6.81473 109.672 7.02473 109.971 7.44473C110.269 7.8554 110.419 8.47607 110.419 9.30673V14.4167H108.669V9.53073C108.669 9.05473 108.603 8.72807 108.473 8.55073C108.351 8.36407 108.104 8.27073 107.731 8.27073C107.245 8.27073 106.741 8.50407 106.219 8.97073V14.4167H104.455V4.35073H106.219V7.61273C106.872 7.08073 107.581 6.81473 108.347 6.81473Z" fill="white"/>
<path d="M8.35398 31.7488V29.2528H14.958V37.7808C13.138 38.6475 11.1966 39.0808 9.13398 39.0808C6.37798 39.0808 4.34998 38.2748 3.04998 36.6628C1.76731 35.0508 1.12598 32.5115 1.12598 29.0448C1.12598 26.1675 1.72398 23.8795 2.91998 22.1808C4.13331 20.4821 5.99664 19.6328 8.50998 19.6328C10.3646 19.6328 11.7773 20.0661 12.748 20.9328C13.7186 21.7821 14.3686 23.0041 14.698 24.5988L11.604 25.3528C11.3093 24.2955 10.928 23.5241 10.46 23.0388C10.0093 22.5361 9.32464 22.2848 8.40598 22.2848C5.87531 22.2848 4.60998 24.5035 4.60998 28.9408C4.60998 30.1368 4.67064 31.1595 4.79198 32.0088C4.91331 32.8581 5.13864 33.6381 5.46798 34.3488C5.79731 35.0421 6.26531 35.5708 6.87198 35.9348C7.49598 36.2815 8.26731 36.4548 9.18598 36.4548C10.122 36.4548 10.9626 36.2988 11.708 35.9868V31.7488H8.35398Z" fill="#BFD730"/>
<path d="M18.5405 27.6408L18.1505 25.2228C19.3985 24.8068 20.8285 24.5988 22.4405 24.5988C24.3472 24.5988 25.6992 25.0321 26.4965 25.8988C27.2938 26.7481 27.6925 28.3081 27.6925 30.5788V35.4668C27.6925 36.1948 27.9525 36.5588 28.4725 36.5588C28.7152 36.5588 28.9925 36.4981 29.3045 36.3768L29.5385 38.5608C28.8798 38.8381 28.1432 38.9768 27.3285 38.9768C26.0805 38.9768 25.3178 38.4481 25.0405 37.3908C23.9138 38.4481 22.6052 38.9768 21.1145 38.9768C19.7798 38.9768 18.7572 38.5695 18.0465 37.7548C17.3532 36.9401 17.0065 35.9001 17.0065 34.6348C17.0065 31.4281 18.7918 29.8248 22.3625 29.8248C23.0732 29.8248 23.8098 29.9115 24.5725 30.0848V29.4868C24.5725 27.8748 23.6625 27.0688 21.8425 27.0688C20.8545 27.0688 19.7538 27.2595 18.5405 27.6408ZM24.5725 35.3368V32.1388C23.9832 31.9308 23.4285 31.8268 22.9085 31.8268C21.1232 31.8268 20.2305 32.6675 20.2305 34.3488C20.2305 35.0248 20.3865 35.5621 20.6985 35.9608C21.0105 36.3421 21.4698 36.5328 22.0765 36.5328C23.0125 36.5328 23.8445 36.1341 24.5725 35.3368Z" fill="#BFD730"/>
<path d="M38.6003 25.4828V20.0228H41.8503V38.7168H38.9383L38.8343 37.4948C37.881 38.4828 36.7456 38.9768 35.4283 38.9768C33.9203 38.9768 32.7156 38.3788 31.8143 37.1828C30.9303 35.9868 30.4883 34.2275 30.4883 31.9048C30.4883 30.6221 30.6616 29.4521 31.0083 28.3948C31.355 27.3201 31.9356 26.4188 32.7503 25.6908C33.565 24.9628 34.5703 24.5988 35.7663 24.5988C36.8063 24.5988 37.751 24.8935 38.6003 25.4828ZM38.6263 35.3628V27.9528C37.8116 27.3635 37.0923 27.0688 36.4683 27.0688C34.735 27.0688 33.8683 28.6981 33.8683 31.9568C33.8683 33.4128 34.085 34.5221 34.5183 35.2848C34.9516 36.0475 35.567 36.4288 36.3643 36.4288C37.1616 36.4288 37.9156 36.0735 38.6263 35.3628Z" fill="#BFD730"/>
<path d="M45.8257 27.6408L45.4357 25.2228C46.6837 24.8068 48.1137 24.5988 49.7257 24.5988C51.6323 24.5988 52.9843 25.0321 53.7817 25.8988C54.579 26.7481 54.9777 28.3081 54.9777 30.5788V35.4668C54.9777 36.1948 55.2377 36.5588 55.7577 36.5588C56.0003 36.5588 56.2777 36.4981 56.5897 36.3768L56.8237 38.5608C56.165 38.8381 55.4283 38.9768 54.6137 38.9768C53.3657 38.9768 52.603 38.4481 52.3257 37.3908C51.199 38.4481 49.8903 38.9768 48.3997 38.9768C47.065 38.9768 46.0423 38.5695 45.3317 37.7548C44.6383 36.9401 44.2917 35.9001 44.2917 34.6348C44.2917 31.4281 46.077 29.8248 49.6477 29.8248C50.3583 29.8248 51.095 29.9115 51.8577 30.0848V29.4868C51.8577 27.8748 50.9477 27.0688 49.1277 27.0688C48.1397 27.0688 47.039 27.2595 45.8257 27.6408ZM51.8577 35.3368V32.1388C51.2683 31.9308 50.7137 31.8268 50.1937 31.8268C48.4083 31.8268 47.5157 32.6675 47.5157 34.3488C47.5157 35.0248 47.6717 35.5621 47.9837 35.9608C48.2957 36.3421 48.755 36.5328 49.3617 36.5328C50.2977 36.5328 51.1297 36.1341 51.8577 35.3368Z" fill="#BFD730"/>
<path d="M58.7294 24.8588H61.9794V38.7168H58.7294V24.8588ZM58.4694 21.2448C58.4694 20.6555 58.6427 20.1961 58.9894 19.8668C59.3361 19.5375 59.7867 19.3728 60.3414 19.3728C60.9481 19.3728 61.416 19.5375 61.7454 19.8668C62.0747 20.1788 62.2394 20.6381 62.2394 21.2448C62.2394 21.8515 62.0574 22.3195 61.6934 22.6488C61.3467 22.9608 60.896 23.1168 60.3414 23.1168C59.7694 23.1168 59.3101 22.9521 58.9634 22.6228C58.634 22.2761 58.4694 21.8168 58.4694 21.2448Z" fill="#BFD730"/>
<path d="M66.137 26.2337V25.0557H75.941V26.2337H71.685V38.7167H70.374V26.2337H66.137Z" fill="#BFD730"/>
<path d="M75.8771 29.9387L75.7441 28.8177C76.5675 28.5897 77.5238 28.4757 78.6131 28.4757C80.7158 28.4757 81.7671 29.5143 81.7671 31.5917V36.9687C81.7671 37.2727 81.8178 37.488 81.9191 37.6147C82.0331 37.7413 82.2168 37.8047 82.4701 37.8047C82.6728 37.8047 82.9451 37.7413 83.2871 37.6147L83.4011 38.6597C82.8818 38.8243 82.4638 38.9067 82.1471 38.9067C81.7038 38.9067 81.3491 38.7927 81.0831 38.5647C80.8171 38.324 80.6651 38.0327 80.6271 37.6907C79.7151 38.5013 78.7525 38.9067 77.7391 38.9067C76.8145 38.9067 76.1115 38.6153 75.6301 38.0327C75.1488 37.45 74.9081 36.709 74.9081 35.8097C74.9081 34.6317 75.2438 33.764 75.9151 33.2067C76.5991 32.6367 77.5491 32.3517 78.7651 32.3517C79.3731 32.3517 79.9558 32.415 80.5131 32.5417V31.8197C80.5131 31.0343 80.3421 30.4643 80.0001 30.1097C79.6581 29.755 79.0628 29.5777 78.2141 29.5777C77.4161 29.5777 76.6371 29.698 75.8771 29.9387ZM80.5131 36.6837L80.5321 33.5297C79.9748 33.3903 79.4555 33.3207 78.9741 33.3207C78.0621 33.3207 77.3781 33.5107 76.9221 33.8907C76.4788 34.2707 76.2571 34.8977 76.2571 35.7717C76.2571 36.3543 76.4028 36.8357 76.6941 37.2157C76.9981 37.5957 77.4415 37.7857 78.0241 37.7857C78.8981 37.7857 79.7278 37.4183 80.5131 36.6837Z" fill="#BFD730"/>
<path d="M86.6081 29.7867C87.8368 28.9253 88.8438 28.4947 89.6291 28.4947C90.5665 28.4947 91.3011 28.862 91.8331 29.5967C92.3778 30.3313 92.6501 31.427 92.6501 32.8837C92.6501 36.899 91.2568 38.9067 88.4701 38.9067C87.3301 38.9067 86.2915 38.6217 85.3541 38.0517V25.0557H86.6081V29.7867ZM91.2631 33.3777C91.2631 31.9843 91.0921 31.0217 90.7501 30.4897C90.4208 29.9577 89.9395 29.6917 89.3061 29.6917C88.6095 29.6917 87.7101 30.078 86.6081 30.8507V37.3487C87.1655 37.6653 87.7925 37.8237 88.4891 37.8237C89.4771 37.8237 90.1865 37.4057 90.6171 36.5697C91.0478 35.7337 91.2631 34.6697 91.2631 33.3777Z" fill="#BFD730"/>
<path d="M97.8825 38.9067C96.3625 38.9067 95.4886 38.2543 95.2605 36.9497C95.2099 36.6583 95.1845 36.2467 95.1845 35.7147V28.8557L96.4385 28.6847V35.5437C96.4385 36.025 96.4639 36.367 96.5145 36.5697C96.6412 37.3803 97.1985 37.7857 98.1866 37.7857C99.1239 37.7857 100.118 37.2917 101.17 36.3037V28.6847H102.462V38.7167H101.17V37.4817C100.068 38.4317 98.9719 38.9067 97.8825 38.9067Z" fill="#BFD730"/>
<path d="M110.287 28.4757C111.795 28.4757 112.675 29.1343 112.928 30.4517C112.966 30.667 112.985 31.0787 112.985 31.6867V38.7167H111.731V31.8577C111.731 31.4143 111.712 31.0723 111.674 30.8317C111.522 30.0337 110.94 29.6347 109.926 29.6347C109.002 29.6347 108.026 30.1223 107 31.0977V38.7167H105.727V28.6847H107V29.9387C108.077 28.9633 109.173 28.4757 110.287 28.4757Z" fill="#BFD730"/>
<path d="M119.345 28.4757C120.067 28.4757 120.858 28.767 121.72 29.3497V28.6847H122.993V38.4317C122.993 38.9763 122.967 39.4513 122.917 39.8567C122.866 40.2747 122.758 40.68 122.594 41.0727C122.442 41.4653 122.233 41.7883 121.967 42.0417C121.701 42.295 121.346 42.4977 120.903 42.6497C120.459 42.8017 119.934 42.8777 119.326 42.8777C118.122 42.8777 117.071 42.618 116.172 42.0987L116.4 40.9017C116.754 41.117 117.217 41.3133 117.787 41.4907C118.369 41.6807 118.927 41.7757 119.459 41.7757C119.953 41.7757 120.358 41.6807 120.675 41.4907C121.004 41.3133 121.245 41.0473 121.397 40.6927C121.549 40.338 121.65 39.9707 121.701 39.5907C121.764 39.2233 121.796 38.78 121.796 38.2607V37.6717C120.947 38.495 120.048 38.9067 119.098 38.9067C118.046 38.9067 117.21 38.4823 116.59 37.6337C115.969 36.785 115.659 35.5247 115.659 33.8527C115.659 33.1813 115.722 32.548 115.849 31.9527C115.988 31.3447 116.191 30.7747 116.457 30.2427C116.735 29.698 117.122 29.2673 117.616 28.9507C118.11 28.634 118.686 28.4757 119.345 28.4757ZM116.989 33.9287C116.989 35.1573 117.204 36.1073 117.635 36.7787C118.065 37.45 118.629 37.7857 119.326 37.7857C120.2 37.7857 121.004 37.355 121.739 36.4937V30.6037C120.89 29.945 120.13 29.6157 119.459 29.6157C117.812 29.6157 116.989 31.0533 116.989 33.9287Z" fill="#BFD730"/>
<path d="M126.457 29.9387L126.324 28.8177C127.148 28.5897 128.104 28.4757 129.193 28.4757C131.296 28.4757 132.347 29.5143 132.347 31.5917V36.9687C132.347 37.2727 132.398 37.488 132.499 37.6147C132.613 37.7413 132.797 37.8047 133.05 37.8047C133.253 37.8047 133.525 37.7413 133.867 37.6147L133.981 38.6597C133.462 38.8243 133.044 38.9067 132.727 38.9067C132.284 38.9067 131.929 38.7927 131.663 38.5647C131.397 38.324 131.245 38.0327 131.207 37.6907C130.295 38.5013 129.333 38.9067 128.319 38.9067C127.395 38.9067 126.692 38.6153 126.21 38.0327C125.729 37.45 125.488 36.709 125.488 35.8097C125.488 34.6317 125.824 33.764 126.495 33.2067C127.179 32.6367 128.129 32.3517 129.345 32.3517C129.953 32.3517 130.536 32.415 131.093 32.5417V31.8197C131.093 31.0343 130.922 30.4643 130.58 30.1097C130.238 29.755 129.643 29.5777 128.794 29.5777C127.996 29.5777 127.217 29.698 126.457 29.9387ZM131.093 36.6837L131.112 33.5297C130.555 33.3903 130.036 33.3207 129.554 33.3207C128.642 33.3207 127.958 33.5107 127.502 33.8907C127.059 34.2707 126.837 34.8977 126.837 35.7717C126.837 36.3543 126.983 36.8357 127.274 37.2157C127.578 37.5957 128.022 37.7857 128.604 37.7857C129.478 37.7857 130.308 37.4183 131.093 36.6837Z" fill="#BFD730"/>
<path d="M140.494 28.4757C142.002 28.4757 142.882 29.1343 143.135 30.4517C143.173 30.667 143.192 31.0787 143.192 31.6867V38.7167H141.938V31.8577C141.938 31.4143 141.919 31.0723 141.881 30.8317C141.729 30.0337 141.147 29.6347 140.133 29.6347C139.209 29.6347 138.233 30.1223 137.207 31.0977V38.7167H135.934V28.6847H137.207V29.9387C138.284 28.9633 139.38 28.4757 140.494 28.4757Z" fill="#BFD730"/>
<path d="M148.733 38.7167V25.0557H156.067V26.2337H150.044V31.0217H155.288V32.1997H150.044V37.5197H156.314V38.7167H148.733Z" fill="#BFD730"/>
<path d="M163.177 28.4757C164.355 28.4757 165.128 28.919 165.495 29.8057C166.521 28.919 167.566 28.4757 168.63 28.4757C170.15 28.4757 171.024 29.1343 171.252 30.4517C171.303 30.743 171.328 31.1547 171.328 31.6867V38.7167H170.074V31.8577C170.074 31.389 170.049 31.047 169.998 30.8317C169.846 30.0337 169.295 29.6347 168.345 29.6347C167.471 29.6347 166.591 30.0527 165.704 30.8887C165.729 31.0913 165.742 31.427 165.742 31.8957V38.7167H164.488V31.8577C164.488 31.389 164.463 31.047 164.412 30.8317C164.285 30.0337 163.785 29.6347 162.911 29.6347C161.86 29.6347 160.853 30.1287 159.89 31.1167V38.7167H158.617V28.6847H159.89V29.9197C160.992 28.957 162.088 28.4757 163.177 28.4757Z" fill="#BFD730"/>
<path d="M174.782 29.9387L174.649 28.8177C175.473 28.5897 176.429 28.4757 177.518 28.4757C179.621 28.4757 180.672 29.5143 180.672 31.5917V36.9687C180.672 37.2727 180.723 37.488 180.824 37.6147C180.938 37.7413 181.122 37.8047 181.375 37.8047C181.578 37.8047 181.85 37.7413 182.192 37.6147L182.306 38.6597C181.787 38.8243 181.369 38.9067 181.052 38.9067C180.609 38.9067 180.254 38.7927 179.988 38.5647C179.722 38.324 179.57 38.0327 179.532 37.6907C178.62 38.5013 177.658 38.9067 176.644 38.9067C175.72 38.9067 175.017 38.6153 174.535 38.0327C174.054 37.45 173.813 36.709 173.813 35.8097C173.813 34.6317 174.149 33.764 174.82 33.2067C175.504 32.6367 176.454 32.3517 177.67 32.3517C178.278 32.3517 178.861 32.415 179.418 32.5417V31.8197C179.418 31.0343 179.247 30.4643 178.905 30.1097C178.563 29.755 177.968 29.5777 177.119 29.5777C176.321 29.5777 175.542 29.698 174.782 29.9387ZM179.418 36.6837L179.437 33.5297C178.88 33.3903 178.361 33.3207 177.879 33.3207C176.967 33.3207 176.283 33.5107 175.827 33.8907C175.384 34.2707 175.162 34.8977 175.162 35.7717C175.162 36.3543 175.308 36.8357 175.599 37.2157C175.903 37.5957 176.347 37.7857 176.929 37.7857C177.803 37.7857 178.633 37.4183 179.418 36.6837Z" fill="#BFD730"/>
<path d="M183.385 37.8807L183.727 36.7027C184.006 36.956 184.411 37.2093 184.943 37.4627C185.475 37.716 185.982 37.8427 186.463 37.8427C187.084 37.8427 187.584 37.7033 187.964 37.4247C188.344 37.146 188.534 36.7407 188.534 36.2087C188.534 35.7147 188.363 35.322 188.021 35.0307C187.679 34.7393 187.261 34.5177 186.767 34.3657C186.273 34.2137 185.779 34.049 185.285 33.8717C184.804 33.6943 184.392 33.3903 184.05 32.9597C183.708 32.529 183.537 31.9653 183.537 31.2687C183.537 30.4073 183.848 29.7297 184.468 29.2357C185.089 28.729 185.849 28.4757 186.748 28.4757C187.673 28.4757 188.395 28.71 188.914 29.1787C189.446 29.6347 189.769 30.173 189.883 30.7937L188.857 31.2117C188.705 30.6797 188.439 30.2807 188.059 30.0147C187.679 29.736 187.236 29.5967 186.729 29.5967C186.197 29.5967 185.748 29.7297 185.38 29.9957C185.013 30.2617 184.829 30.667 184.829 31.2117C184.829 31.7057 185 32.1047 185.342 32.4087C185.684 32.7 186.096 32.9217 186.577 33.0737C187.071 33.2257 187.565 33.3903 188.059 33.5677C188.553 33.7323 188.971 34.0173 189.313 34.4227C189.655 34.828 189.826 35.3537 189.826 35.9997C189.826 36.861 189.529 37.5703 188.933 38.1277C188.351 38.6723 187.521 38.9447 186.444 38.9447C185.836 38.9447 185.235 38.8307 184.639 38.6027C184.057 38.362 183.639 38.1213 183.385 37.8807Z" fill="#BFD730"/>
</svg>
