<svg width="240" height="48" viewBox="0 0 240 48" fill="none" xmlns="http://www.w3.org/2000/svg">
<path d="M2.792 10.7237V14.4197H1V4.35366H4.528C5.592 4.35366 6.418 4.601 7.006 5.09566C7.594 5.59033 7.888 6.309 7.888 7.25166C7.888 8.30633 7.566 9.151 6.922 9.78566C6.28733 10.411 5.42867 10.7237 4.346 10.7237H2.792ZM2.792 9.33766H4.15C4.77533 9.33766 5.24667 9.17433 5.564 8.84766C5.89067 8.51166 6.054 8.02633 6.054 7.39166C6.054 6.281 5.466 5.72566 4.29 5.72566H2.792V9.33766Z" fill="white"/>
<path d="M14.1077 10.9897H10.1177C10.1271 11.6897 10.2857 12.2263 10.5937 12.5997C10.9017 12.9637 11.3264 13.1457 11.8677 13.1457C12.5304 13.1457 13.1977 12.959 13.8697 12.5857L13.9677 14.0557C13.3331 14.401 12.5724 14.5737 11.6857 14.5737C9.45505 14.5737 8.33972 13.253 8.33972 10.6117C8.33972 9.32366 8.61505 8.37166 9.16572 7.75566C9.72572 7.13033 10.4584 6.81766 11.3637 6.81766C13.1931 6.81766 14.1077 7.98433 14.1077 10.3177V10.9897ZM12.4557 9.89766C12.4557 8.703 12.0824 8.10566 11.3357 8.10566C10.9344 8.10566 10.6311 8.27366 10.4257 8.60966C10.2297 8.94566 10.1317 9.375 10.1317 9.89766H12.4557Z" fill="white"/>
<path d="M19.5713 7.43366L19.6413 6.95766H21.2093V14.3077C21.2093 16.473 20.2107 17.5557 18.2133 17.5557C17.2147 17.5557 16.342 17.3737 15.5953 17.0097L15.8613 15.4837C16.1507 15.661 16.5007 15.8057 16.9113 15.9177C17.3313 16.039 17.7187 16.0997 18.0733 16.0997C19.0347 16.0997 19.5153 15.4743 19.5153 14.2237V13.7757C19.058 14.2703 18.47 14.5177 17.7513 14.5177C16.9393 14.5177 16.2907 14.205 15.8053 13.5797C15.3293 12.945 15.0913 12.0023 15.0913 10.7517C15.0913 10.061 15.18 9.431 15.3573 8.86166C15.544 8.29233 15.852 7.81166 16.2813 7.41966C16.72 7.01833 17.252 6.81766 17.8773 6.81766C18.5027 6.81766 19.0673 7.023 19.5713 7.43366ZM19.4593 12.5577V8.65166C19.0207 8.33433 18.6287 8.17566 18.2833 8.17566C17.3687 8.17566 16.9113 9.04366 16.9113 10.7797C16.9113 12.3477 17.3547 13.1317 18.2413 13.1317C18.6707 13.1317 19.0767 12.9403 19.4593 12.5577Z" fill="white"/>
<path d="M23.3639 8.45566L23.1539 7.15366C23.8259 6.92966 24.5959 6.81766 25.4639 6.81766C26.4906 6.81766 27.2186 7.051 27.6479 7.51766C28.0772 7.975 28.2919 8.815 28.2919 10.0377V12.6697C28.2919 13.0617 28.4319 13.2577 28.7119 13.2577C28.8426 13.2577 28.9919 13.225 29.1599 13.1597L29.2859 14.3357C28.9312 14.485 28.5346 14.5597 28.0959 14.5597C27.4239 14.5597 27.0132 14.275 26.8639 13.7057C26.2572 14.275 25.5526 14.5597 24.7499 14.5597C24.0312 14.5597 23.4806 14.3403 23.0979 13.9017C22.7246 13.463 22.5379 12.903 22.5379 12.2217C22.5379 10.495 23.4992 9.63166 25.4219 9.63166C25.8046 9.63166 26.2012 9.67833 26.6119 9.77166V9.44966C26.6119 8.58166 26.1219 8.14766 25.1419 8.14766C24.6099 8.14766 24.0172 8.25033 23.3639 8.45566ZM26.6119 12.5997V10.8777C26.2946 10.7657 25.9959 10.7097 25.7159 10.7097C24.7546 10.7097 24.2739 11.1623 24.2739 12.0677C24.2739 12.4317 24.3579 12.721 24.5259 12.9357C24.6939 13.141 24.9412 13.2437 25.2679 13.2437C25.7719 13.2437 26.2199 13.029 26.6119 12.5997Z" fill="white"/>
<path d="M34.1793 7.29366V4.35366H35.9293V14.4197H34.3613L34.3053 13.7617C33.792 14.2937 33.1807 14.5597 32.4713 14.5597C31.6593 14.5597 31.0107 14.2377 30.5253 13.5937C30.0493 12.9497 29.8113 12.0023 29.8113 10.7517C29.8113 10.061 29.9047 9.431 30.0913 8.86166C30.278 8.283 30.5907 7.79766 31.0293 7.40566C31.468 7.01366 32.0093 6.81766 32.6533 6.81766C33.2133 6.81766 33.722 6.97633 34.1793 7.29366ZM34.1933 12.6137V8.62366C33.7547 8.30633 33.3673 8.14766 33.0313 8.14766C32.098 8.14766 31.6313 9.025 31.6313 10.7797C31.6313 11.5637 31.748 12.161 31.9813 12.5717C32.2147 12.9823 32.546 13.1877 32.9753 13.1877C33.4047 13.1877 33.8107 12.9963 34.1933 12.6137Z" fill="white"/>
<path d="M38.0839 8.45566L37.8739 7.15366C38.5459 6.92966 39.3159 6.81766 40.1839 6.81766C41.2106 6.81766 41.9386 7.051 42.3679 7.51766C42.7973 7.975 43.0119 8.815 43.0119 10.0377V12.6697C43.0119 13.0617 43.1519 13.2577 43.4319 13.2577C43.5626 13.2577 43.7119 13.225 43.8799 13.1597L44.0059 14.3357C43.6513 14.485 43.2546 14.5597 42.8159 14.5597C42.1439 14.5597 41.7333 14.275 41.5839 13.7057C40.9773 14.275 40.2726 14.5597 39.4699 14.5597C38.7513 14.5597 38.2006 14.3403 37.8179 13.9017C37.4446 13.463 37.2579 12.903 37.2579 12.2217C37.2579 10.495 38.2193 9.63166 40.1419 9.63166C40.5246 9.63166 40.9213 9.67833 41.3319 9.77166V9.44966C41.3319 8.58166 40.8419 8.14766 39.8619 8.14766C39.3299 8.14766 38.7373 8.25033 38.0839 8.45566ZM41.3319 12.5997V10.8777C41.0146 10.7657 40.7159 10.7097 40.4359 10.7097C39.4746 10.7097 38.9939 11.1623 38.9939 12.0677C38.9939 12.4317 39.0779 12.721 39.2459 12.9357C39.4139 13.141 39.6613 13.2437 39.9879 13.2437C40.4919 13.2437 40.9399 13.029 41.3319 12.5997Z" fill="white"/>
<path d="M45.0461 6.95766H46.7961V14.4197H45.0461V6.95766ZM44.9061 5.01166C44.9061 4.69433 44.9994 4.447 45.1861 4.26966C45.3727 4.09233 45.6154 4.00366 45.9141 4.00366C46.2407 4.00366 46.4927 4.09233 46.6701 4.26966C46.8474 4.43766 46.9361 4.685 46.9361 5.01166C46.9361 5.33833 46.8381 5.59033 46.6421 5.76766C46.4554 5.93566 46.2127 6.01966 45.9141 6.01966C45.6061 6.01966 45.3587 5.931 45.1721 5.75366C44.9947 5.56699 44.9061 5.31966 44.9061 5.01166Z" fill="white"/>
<path d="M48.9485 8.45566L48.7385 7.15366C49.4105 6.92966 50.1805 6.81766 51.0485 6.81766C52.0751 6.81766 52.8031 7.051 53.2325 7.51766C53.6618 7.975 53.8765 8.815 53.8765 10.0377V12.6697C53.8765 13.0617 54.0165 13.2577 54.2965 13.2577C54.4271 13.2577 54.5765 13.225 54.7445 13.1597L54.8705 14.3357C54.5158 14.485 54.1191 14.5597 53.6805 14.5597C53.0085 14.5597 52.5978 14.275 52.4485 13.7057C51.8418 14.275 51.1371 14.5597 50.3345 14.5597C49.6158 14.5597 49.0651 14.3403 48.6825 13.9017C48.3091 13.463 48.1225 12.903 48.1225 12.2217C48.1225 10.495 49.0838 9.63166 51.0065 9.63166C51.3891 9.63166 51.7858 9.67833 52.1965 9.77166V9.44966C52.1965 8.58166 51.7065 8.14766 50.7265 8.14766C50.1945 8.14766 49.6018 8.25033 48.9485 8.45566ZM52.1965 12.5997V10.8777C51.8791 10.7657 51.5805 10.7097 51.3005 10.7097C50.3391 10.7097 49.8585 11.1623 49.8585 12.0677C49.8585 12.4317 49.9425 12.721 50.1105 12.9357C50.2785 13.141 50.5258 13.2437 50.8525 13.2437C51.3565 13.2437 51.8045 13.029 52.1965 12.5997Z" fill="white"/>
<path d="M57.5066 6.95766L57.5626 7.69966C58.2346 7.11166 58.972 6.81766 59.7746 6.81766C60.9786 6.81766 61.66 7.33566 61.8186 8.37166C61.856 8.605 61.8746 8.91766 61.8746 9.30966V14.4197H60.1246V9.53366C60.1246 9.24433 60.12 9.053 60.1106 8.95966C60.0546 8.50233 59.7466 8.27366 59.1866 8.27366C58.7013 8.27366 58.1973 8.507 57.6746 8.97366V14.4197H55.9106V6.95766H57.5066Z" fill="white"/>
<path d="M66.2705 13.7197L66.8585 12.1517C67.7452 12.7677 68.5992 13.0757 69.4205 13.0757C69.8965 13.0757 70.2792 12.9683 70.5685 12.7537C70.8672 12.5297 71.0165 12.1843 71.0165 11.7177C71.0165 11.2137 70.8578 10.8403 70.5405 10.5977C70.2325 10.355 69.7285 10.1357 69.0285 9.93966C68.7298 9.85566 68.4778 9.781 68.2725 9.71566C68.0765 9.641 67.8478 9.529 67.5865 9.37966C67.3345 9.221 67.1292 9.04833 66.9705 8.86166C66.8212 8.675 66.6905 8.42766 66.5785 8.11966C66.4665 7.81166 66.4105 7.46633 66.4105 7.08366C66.4105 6.20633 66.7138 5.497 67.3205 4.95566C67.9365 4.41433 68.7252 4.14366 69.6865 4.14366C70.6665 4.14366 71.4085 4.377 71.9125 4.84366C72.4258 5.31033 72.7618 5.87966 72.9205 6.55166L71.2965 7.02766C71.0352 6.09433 70.4845 5.62766 69.6445 5.62766C69.2432 5.62766 68.9118 5.735 68.6505 5.94966C68.3892 6.16433 68.2585 6.48166 68.2585 6.90166C68.2585 7.34966 68.4032 7.67633 68.6925 7.88166C68.9912 8.087 69.4672 8.28766 70.1205 8.48366C70.9978 8.745 71.6698 9.09966 72.1365 9.54766C72.6125 9.99566 72.8505 10.6443 72.8505 11.4937C72.8505 12.4643 72.5332 13.2297 71.8985 13.7897C71.2732 14.3403 70.4425 14.6157 69.4065 14.6157C68.1652 14.6157 67.1198 14.317 66.2705 13.7197Z" fill="white"/>
<path d="M78.1916 6.95766L79.8996 7.13966C79.125 9.93033 78.3363 12.2637 77.5336 14.1397C77.291 14.709 77.0763 15.1663 76.8896 15.5117C76.7123 15.8663 76.4883 16.2163 76.2176 16.5617C75.947 16.907 75.639 17.159 75.2936 17.3177C74.9576 17.4763 74.575 17.5557 74.1456 17.5557C73.3523 17.5557 72.6196 17.3783 71.9476 17.0237L72.3956 15.5817C73.0396 15.9177 73.5716 16.0857 73.9916 16.0857C74.393 16.0857 74.7056 15.941 74.9296 15.6517C75.1629 15.3717 75.415 14.877 75.6856 14.1677L73.0956 7.12566L74.9576 6.95766L76.0076 10.2757C76.297 11.2183 76.5116 11.923 76.6516 12.3897C77.0343 11.279 77.5476 9.46833 78.1916 6.95766Z" fill="white"/>
<path d="M81.1069 8.45566L80.8969 7.15366C81.5689 6.92966 82.3389 6.81766 83.2069 6.81766C84.2336 6.81766 84.9616 7.051 85.3909 7.51766C85.8202 7.975 86.0349 8.815 86.0349 10.0377V12.6697C86.0349 13.0617 86.1749 13.2577 86.4549 13.2577C86.5856 13.2577 86.7349 13.225 86.9029 13.1597L87.0289 14.3357C86.6742 14.485 86.2776 14.5597 85.8389 14.5597C85.1669 14.5597 84.7562 14.275 84.6069 13.7057C84.0002 14.275 83.2956 14.5597 82.4929 14.5597C81.7742 14.5597 81.2236 14.3403 80.8409 13.9017C80.4676 13.463 80.2809 12.903 80.2809 12.2217C80.2809 10.495 81.2422 9.63166 83.1649 9.63166C83.5476 9.63166 83.9442 9.67833 84.3549 9.77166V9.44966C84.3549 8.58166 83.8649 8.14766 82.8849 8.14766C82.3529 8.14766 81.7602 8.25033 81.1069 8.45566ZM84.3549 12.5997V10.8777C84.0376 10.7657 83.7389 10.7097 83.4589 10.7097C82.4976 10.7097 82.0169 11.1623 82.0169 12.0677C82.0169 12.4317 82.1009 12.721 82.2689 12.9357C82.4369 13.141 82.6842 13.2437 83.0109 13.2437C83.5149 13.2437 83.9629 13.029 84.3549 12.5997Z" fill="white"/>
<path d="M91.4291 6.81766C91.9424 6.81766 92.3764 7.07433 92.7311 7.58766L91.9471 8.84766C91.7231 8.56766 91.4571 8.42766 91.1491 8.42766C90.6824 8.42766 90.2437 8.64233 89.8331 9.07166V14.4197H88.0691V6.95766H89.6371L89.7071 7.74166C90.2297 7.12566 90.8037 6.81766 91.4291 6.81766Z" fill="white"/>
<path d="M93.5902 6.95766H95.3402V14.4197H93.5902V6.95766ZM93.4502 5.01166C93.4502 4.69433 93.5435 4.447 93.7302 4.26966C93.9169 4.09233 94.1595 4.00366 94.4582 4.00366C94.7849 4.00366 95.0369 4.09233 95.2142 4.26966C95.3915 4.43766 95.4802 4.685 95.4802 5.01166C95.4802 5.33833 95.3822 5.59033 95.1862 5.76766C94.9995 5.93566 94.7569 6.01966 94.4582 6.01966C94.1502 6.01966 93.9029 5.931 93.7162 5.75366C93.5389 5.56699 93.4502 5.31966 93.4502 5.01166Z" fill="white"/>
<path d="M97.4926 8.45566L97.2826 7.15366C97.9546 6.92966 98.7246 6.81766 99.5926 6.81766C100.619 6.81766 101.347 7.051 101.777 7.51766C102.206 7.975 102.421 8.815 102.421 10.0377V12.6697C102.421 13.0617 102.561 13.2577 102.841 13.2577C102.971 13.2577 103.121 13.225 103.289 13.1597L103.415 14.3357C103.06 14.485 102.663 14.5597 102.225 14.5597C101.553 14.5597 101.142 14.275 100.993 13.7057C100.386 14.275 99.6813 14.5597 98.8786 14.5597C98.1599 14.5597 97.6093 14.3403 97.2266 13.9017C96.8533 13.463 96.6666 12.903 96.6666 12.2217C96.6666 10.495 97.6279 9.63166 99.5506 9.63166C99.9333 9.63166 100.33 9.67833 100.741 9.77166V9.44966C100.741 8.58166 100.251 8.14766 99.2706 8.14766C98.7386 8.14766 98.1459 8.25033 97.4926 8.45566ZM100.741 12.5997V10.8777C100.423 10.7657 100.125 10.7097 99.8446 10.7097C98.8833 10.7097 98.4026 11.1623 98.4026 12.0677C98.4026 12.4317 98.4866 12.721 98.6546 12.9357C98.8226 13.141 99.0699 13.2437 99.3966 13.2437C99.9006 13.2437 100.349 13.029 100.741 12.5997Z" fill="white"/>
<path d="M108.347 6.81766C109.131 6.81766 109.672 7.02766 109.971 7.44766C110.269 7.85833 110.419 8.479 110.419 9.30966V14.4197H108.669V9.53366C108.669 9.05766 108.603 8.731 108.473 8.55366C108.351 8.367 108.104 8.27366 107.731 8.27366C107.245 8.27366 106.741 8.507 106.219 8.97366V14.4197H104.455V4.35366H106.219V7.61566C106.872 7.08366 107.581 6.81766 108.347 6.81766Z" fill="white"/>
<path d="M5.31201 31.8557V38.7197H1.98401V20.0257H8.53601C10.512 20.0257 12.046 20.4851 13.138 21.4037C14.23 22.3224 14.776 23.6571 14.776 25.4077C14.776 27.3664 14.178 28.9351 12.982 30.1137C11.8033 31.2751 10.2087 31.8557 8.19801 31.8557H5.31201ZM5.31201 29.2817H7.83401C8.99534 29.2817 9.87068 28.9784 10.46 28.3717C11.0667 27.7477 11.37 26.8464 11.37 25.6677C11.37 23.6051 10.278 22.5737 8.09401 22.5737H5.31201V29.2817Z" fill="#BFD730"/>
<path d="M26.3009 32.3497H18.8909C18.9082 33.6497 19.2029 34.6464 19.7749 35.3397C20.3469 36.0157 21.1356 36.3537 22.1409 36.3537C23.3716 36.3537 24.6109 36.0071 25.8589 35.3137L26.0409 38.0437C24.8622 38.6851 23.4496 39.0057 21.8029 39.0057C17.6602 39.0057 15.5889 36.5531 15.5889 31.6477C15.5889 29.2557 16.1002 27.4877 17.1229 26.3437C18.1629 25.1824 19.5236 24.6017 21.2049 24.6017C24.6022 24.6017 26.3009 26.7684 26.3009 31.1017V32.3497ZM23.2329 30.3217C23.2329 28.1031 22.5396 26.9937 21.1529 26.9937C20.4076 26.9937 19.8442 27.3057 19.4629 27.9297C19.0989 28.5537 18.9169 29.3511 18.9169 30.3217H23.2329Z" fill="#BFD730"/>
<path d="M35.9796 24.6017C37.5223 24.6017 38.597 25.1304 39.2036 26.1877C40.5036 25.1304 41.9076 24.6017 43.4156 24.6017C44.889 24.6017 45.903 24.9917 46.4576 25.7717C47.0296 26.5344 47.3156 27.6871 47.3156 29.2297V38.7197H44.0656V29.6457C44.0656 29.1951 44.0396 28.8137 43.9876 28.5017C43.8316 27.7044 43.2943 27.3057 42.3756 27.3057C41.5089 27.3057 40.6336 27.6784 39.7496 28.4237C39.767 28.7011 39.7756 29.1777 39.7756 29.8537V38.7197H36.5516V29.6457C36.5516 29.1431 36.5343 28.7964 36.4996 28.6057C36.413 28.1377 36.2483 27.8084 36.0056 27.6177C35.763 27.4097 35.4163 27.3057 34.9656 27.3057C33.9776 27.3057 33.0156 27.7391 32.0796 28.6057V38.7197H28.8036V24.8617H31.7676L31.8716 26.2137C33.1023 25.1391 34.4716 24.6017 35.9796 24.6017Z" fill="#BFD730"/>
<path d="M53.8587 25.9017C55.1933 25.0351 56.3893 24.6017 57.4467 24.6017C58.816 24.6017 59.8993 25.1044 60.6967 26.1097C61.494 27.1151 61.8927 28.6577 61.8927 30.7377C61.8927 33.3031 61.3727 35.3224 60.3327 36.7957C59.2927 38.2517 57.672 38.9797 55.4707 38.9797C53.668 38.9797 52.056 38.5811 50.6347 37.7837V20.0257H53.8587V25.9017ZM58.5387 31.3877C58.5387 29.8451 58.3653 28.7704 58.0187 28.1637C57.672 27.5571 57.1433 27.2537 56.4327 27.2537C55.6527 27.2537 54.7947 27.5744 53.8587 28.2157V35.9897C54.4133 36.3191 55.0373 36.4837 55.7307 36.4837C57.6027 36.4837 58.5387 34.7851 58.5387 31.3877Z" fill="#BFD730"/>
<path d="M64.5185 24.8617H67.7685V38.7197H64.5185V24.8617ZM64.2585 21.2477C64.2585 20.6584 64.4318 20.1991 64.7785 19.8697C65.1251 19.5404 65.5758 19.3757 66.1305 19.3757C66.7371 19.3757 67.2051 19.5404 67.5345 19.8697C67.8638 20.1817 68.0285 20.6411 68.0285 21.2477C68.0285 21.8544 67.8465 22.3224 67.4825 22.6517C67.1358 22.9637 66.6851 23.1197 66.1305 23.1197C65.5585 23.1197 65.0991 22.9551 64.7525 22.6257C64.4231 22.2791 64.2585 21.8197 64.2585 21.2477Z" fill="#BFD730"/>
<path d="M71.7398 27.6437L71.3498 25.2257C72.5978 24.8097 74.0278 24.6017 75.6398 24.6017C77.5464 24.6017 78.8984 25.0351 79.6958 25.9017C80.4931 26.7511 80.8918 28.3111 80.8918 30.5817V35.4697C80.8918 36.1977 81.1518 36.5617 81.6718 36.5617C81.9144 36.5617 82.1918 36.5011 82.5038 36.3797L82.7378 38.5637C82.0791 38.8411 81.3424 38.9797 80.5278 38.9797C79.2798 38.9797 78.5171 38.4511 78.2398 37.3937C77.1131 38.4511 75.8044 38.9797 74.3138 38.9797C72.9791 38.9797 71.9564 38.5724 71.2458 37.7577C70.5524 36.9431 70.2058 35.9031 70.2058 34.6377C70.2058 31.4311 71.9911 29.8277 75.5618 29.8277C76.2724 29.8277 77.0091 29.9144 77.7718 30.0877V29.4897C77.7718 27.8777 76.8618 27.0717 75.0418 27.0717C74.0538 27.0717 72.9531 27.2624 71.7398 27.6437ZM77.7718 35.3397V32.1417C77.1824 31.9337 76.6278 31.8297 76.1078 31.8297C74.3224 31.8297 73.4298 32.6704 73.4298 34.3517C73.4298 35.0277 73.5858 35.5651 73.8978 35.9637C74.2098 36.3451 74.6691 36.5357 75.2758 36.5357C76.2118 36.5357 77.0438 36.1371 77.7718 35.3397Z" fill="#BFD730"/>
<path d="M91.7833 24.8617L94.9553 25.1997C93.5167 30.3824 92.052 34.7157 90.5613 38.1997C90.1107 39.2571 89.712 40.1064 89.3653 40.7477C89.036 41.4064 88.62 42.0564 88.1173 42.6977C87.6147 43.3391 87.0427 43.8071 86.4013 44.1017C85.7773 44.3964 85.0667 44.5437 84.2693 44.5437C82.796 44.5437 81.4353 44.2144 80.1873 43.5557L81.0193 40.8777C82.2153 41.5017 83.2033 41.8137 83.9833 41.8137C84.7287 41.8137 85.3093 41.5451 85.7253 41.0077C86.1587 40.4877 86.6267 39.5691 87.1293 38.2517L82.3193 25.1737L85.7773 24.8617L87.7273 31.0237C88.2647 32.7744 88.6633 34.0831 88.9233 34.9497C89.634 32.8871 90.5873 29.5244 91.7833 24.8617Z" fill="#BFD730"/>
<path d="M97.1714 27.6437L96.7814 25.2257C98.0294 24.8097 99.4594 24.6017 101.071 24.6017C102.978 24.6017 104.33 25.0351 105.127 25.9017C105.925 26.7511 106.323 28.3111 106.323 30.5817V35.4697C106.323 36.1977 106.583 36.5617 107.103 36.5617C107.346 36.5617 107.623 36.5011 107.935 36.3797L108.169 38.5637C107.511 38.8411 106.774 38.9797 105.959 38.9797C104.711 38.9797 103.949 38.4511 103.671 37.3937C102.545 38.4511 101.236 38.9797 99.7454 38.9797C98.4108 38.9797 97.3881 38.5724 96.6774 37.7577C95.9841 36.9431 95.6374 35.9031 95.6374 34.6377C95.6374 31.4311 97.4228 29.8277 100.993 29.8277C101.704 29.8277 102.441 29.9144 103.203 30.0877V29.4897C103.203 27.8777 102.293 27.0717 100.473 27.0717C99.4854 27.0717 98.3848 27.2624 97.1714 27.6437ZM103.203 35.3397V32.1417C102.614 31.9337 102.059 31.8297 101.539 31.8297C99.7541 31.8297 98.8614 32.6704 98.8614 34.3517C98.8614 35.0277 99.0174 35.5651 99.3294 35.9637C99.6414 36.3451 100.101 36.5357 100.707 36.5357C101.643 36.5357 102.475 36.1371 103.203 35.3397Z" fill="#BFD730"/>
<path d="M110.725 27.6437L110.335 25.2257C111.583 24.8097 113.013 24.6017 114.625 24.6017C116.532 24.6017 117.884 25.0351 118.681 25.9017C119.478 26.7511 119.877 28.3111 119.877 30.5817V35.4697C119.877 36.1977 120.137 36.5617 120.657 36.5617C120.9 36.5617 121.177 36.5011 121.489 36.3797L121.723 38.5637C121.064 38.8411 120.328 38.9797 119.513 38.9797C118.265 38.9797 117.502 38.4511 117.225 37.3937C116.098 38.4511 114.79 38.9797 113.299 38.9797C111.964 38.9797 110.942 38.5724 110.231 37.7577C109.538 36.9431 109.191 35.9031 109.191 34.6377C109.191 31.4311 110.976 29.8277 114.547 29.8277C115.258 29.8277 115.994 29.9144 116.757 30.0877V29.4897C116.757 27.8777 115.847 27.0717 114.027 27.0717C113.039 27.0717 111.938 27.2624 110.725 27.6437ZM116.757 35.3397V32.1417C116.168 31.9337 115.613 31.8297 115.093 31.8297C113.308 31.8297 112.415 32.6704 112.415 34.3517C112.415 35.0277 112.571 35.5651 112.883 35.9637C113.195 36.3451 113.654 36.5357 114.261 36.5357C115.197 36.5357 116.029 36.1371 116.757 35.3397Z" fill="#BFD730"/>
<path d="M126.593 24.8617L126.697 26.2397C127.945 25.1477 129.314 24.6017 130.805 24.6017C133.041 24.6017 134.306 25.5637 134.601 27.4877C134.67 27.9211 134.705 28.5017 134.705 29.2297V38.7197H131.455V29.6457C131.455 29.1084 131.446 28.7531 131.429 28.5797C131.325 27.7304 130.753 27.3057 129.713 27.3057C128.812 27.3057 127.876 27.7391 126.905 28.6057V38.7197H123.629V24.8617H126.593Z" fill="#BFD730"/>
<path d="M145.008 33.1716H142.044V38.7196H140.733V25.0586H145.255C146.585 25.0586 147.617 25.3689 148.352 25.9896C149.087 26.5976 149.454 27.4969 149.454 28.6876C149.454 30.0556 149.042 31.1449 148.219 31.9556C147.408 32.7663 146.338 33.1716 145.008 33.1716ZM142.044 32.0126H144.894C145.933 32.0126 146.724 31.7466 147.269 31.2146C147.826 30.6699 148.105 29.8909 148.105 28.8776C148.105 27.9149 147.852 27.2373 147.345 26.8446C146.851 26.4393 146.085 26.2366 145.046 26.2366H142.044V32.0126Z" fill="#BFD730"/>
<path d="M154.42 38.9476C153.711 38.9476 153.097 38.7956 152.577 38.4916C152.071 38.1876 151.684 37.7696 151.418 37.2376C151.152 36.7056 150.962 36.1609 150.848 35.6036C150.734 35.0336 150.677 34.4193 150.677 33.7606C150.677 32.2153 151.007 30.9486 151.665 29.9606C152.337 28.9726 153.331 28.4786 154.648 28.4786C157.106 28.4786 158.334 30.1759 158.334 33.5706C158.334 34.2546 158.265 34.9006 158.125 35.5086C157.986 36.1166 157.771 36.6866 157.479 37.2186C157.188 37.7506 156.776 38.1749 156.244 38.4916C155.725 38.7956 155.117 38.9476 154.42 38.9476ZM154.458 37.8456C154.965 37.8456 155.396 37.7189 155.75 37.4656C156.105 37.2123 156.365 36.8703 156.529 36.4396C156.707 36.0089 156.833 35.5656 156.909 35.1096C156.985 34.6536 157.023 34.1659 157.023 33.6466C157.023 30.9486 156.213 29.5996 154.591 29.5996C154.072 29.5996 153.629 29.7453 153.261 30.0366C152.907 30.3153 152.641 30.6889 152.463 31.1576C152.286 31.6136 152.159 32.0569 152.083 32.4876C152.02 32.9183 151.988 33.3553 151.988 33.7986C151.988 34.5333 152.052 35.1856 152.178 35.7556C152.318 36.3256 152.577 36.8196 152.957 37.2376C153.35 37.6429 153.85 37.8456 154.458 37.8456Z" fill="#BFD730"/>
<path d="M164.637 28.4786C165.549 28.4786 166.188 28.9979 166.556 30.0366L165.511 30.6066C165.359 30.2773 165.2 30.0429 165.036 29.9036C164.871 29.7516 164.63 29.6756 164.314 29.6756C163.718 29.6756 163.041 30.1126 162.281 30.9866V38.7196H161.008V28.6876H162.205V29.8086C163.015 28.9219 163.826 28.4786 164.637 28.4786Z" fill="#BFD730"/>
<path d="M167.407 37.8836L167.749 36.7056C168.028 36.9589 168.433 37.2123 168.965 37.4656C169.497 37.7189 170.004 37.8456 170.485 37.8456C171.106 37.8456 171.606 37.7063 171.986 37.4276C172.366 37.1489 172.556 36.7436 172.556 36.2116C172.556 35.7176 172.385 35.3249 172.043 35.0336C171.701 34.7423 171.283 34.5206 170.789 34.3686C170.295 34.2166 169.801 34.0519 169.307 33.8746C168.826 33.6973 168.414 33.3933 168.072 32.9626C167.73 32.5319 167.559 31.9683 167.559 31.2716C167.559 30.4103 167.869 29.7326 168.49 29.2386C169.111 28.7319 169.871 28.4786 170.77 28.4786C171.695 28.4786 172.417 28.7129 172.936 29.1816C173.468 29.6376 173.791 30.1759 173.905 30.7966L172.879 31.2146C172.727 30.6826 172.461 30.2836 172.081 30.0176C171.701 29.7389 171.258 29.5996 170.751 29.5996C170.219 29.5996 169.769 29.7326 169.402 29.9986C169.035 30.2646 168.851 30.6699 168.851 31.2146C168.851 31.7086 169.022 32.1076 169.364 32.4116C169.706 32.7029 170.118 32.9246 170.599 33.0766C171.093 33.2286 171.587 33.3933 172.081 33.5706C172.575 33.7353 172.993 34.0203 173.335 34.4256C173.677 34.8309 173.848 35.3566 173.848 36.0026C173.848 36.8639 173.55 37.5733 172.955 38.1306C172.372 38.6753 171.543 38.9476 170.466 38.9476C169.858 38.9476 169.256 38.8336 168.661 38.6056C168.078 38.3649 167.66 38.1243 167.407 37.8836Z" fill="#BFD730"/>
<path d="M176.389 28.6876H177.643V38.7196H176.389V28.6876ZM176.18 26.1036C176.18 25.8376 176.256 25.6349 176.408 25.4956C176.56 25.3436 176.757 25.2676 176.997 25.2676C177.555 25.2676 177.833 25.5526 177.833 26.1226C177.833 26.4013 177.757 26.6229 177.605 26.7876C177.453 26.9396 177.251 27.0156 176.997 27.0156C176.757 27.0156 176.56 26.9333 176.408 26.7686C176.256 26.6039 176.18 26.3823 176.18 26.1036Z" fill="#BFD730"/>
<path d="M191.903 25.0586H193.214V38.7196H191.903V32.1646H185.044V38.7196H183.733V25.0586H185.044V30.9866H191.903V25.0586Z" fill="#BFD730"/>
<path d="M196.924 29.9416L196.791 28.8206C197.614 28.5926 198.571 28.4786 199.66 28.4786C201.763 28.4786 202.814 29.5173 202.814 31.5946V36.9716C202.814 37.2756 202.865 37.4909 202.966 37.6176C203.08 37.7443 203.264 37.8076 203.517 37.8076C203.72 37.8076 203.992 37.7443 204.334 37.6176L204.448 38.6626C203.929 38.8273 203.511 38.9096 203.194 38.9096C202.751 38.9096 202.396 38.7956 202.13 38.5676C201.864 38.3269 201.712 38.0356 201.674 37.6936C200.762 38.5043 199.799 38.9096 198.786 38.9096C197.861 38.9096 197.158 38.6183 196.677 38.0356C196.196 37.4529 195.955 36.7119 195.955 35.8126C195.955 34.6346 196.291 33.7669 196.962 33.2096C197.646 32.6396 198.596 32.3546 199.812 32.3546C200.42 32.3546 201.003 32.4179 201.56 32.5446V31.8226C201.56 31.0373 201.389 30.4673 201.047 30.1126C200.705 29.7579 200.11 29.5806 199.261 29.5806C198.463 29.5806 197.684 29.7009 196.924 29.9416ZM201.56 36.6866L201.579 33.5326C201.022 33.3933 200.502 33.3236 200.021 33.3236C199.109 33.3236 198.425 33.5136 197.969 33.8936C197.526 34.2736 197.304 34.9006 197.304 35.7746C197.304 36.3573 197.45 36.8386 197.741 37.2186C198.045 37.5986 198.488 37.7886 199.071 37.7886C199.945 37.7886 200.775 37.4213 201.56 36.6866Z" fill="#BFD730"/>
<path d="M207.674 28.6876V40.1256C207.674 41.0376 207.484 41.7216 207.104 42.1776C206.737 42.6463 206.141 42.8806 205.318 42.8806C204.647 42.8806 204.051 42.7349 203.532 42.4436L203.76 41.2656C204.279 41.5949 204.818 41.7596 205.375 41.7596C205.755 41.7596 206.021 41.6266 206.173 41.3606C206.325 41.0946 206.401 40.6259 206.401 39.9546V28.6876H207.674ZM206.192 26.1036C206.192 25.8376 206.268 25.6349 206.42 25.4956C206.572 25.3436 206.768 25.2676 207.009 25.2676C207.566 25.2676 207.845 25.5526 207.845 26.1226C207.845 26.4013 207.769 26.6229 207.617 26.7876C207.465 26.9396 207.262 27.0156 207.009 27.0156C206.768 27.0156 206.572 26.9333 206.42 26.7686C206.268 26.6039 206.192 26.3823 206.192 26.1036Z" fill="#BFD730"/>
<path d="M210.928 28.6876H212.182V38.7196H210.928V28.6876ZM210.719 26.1036C210.719 25.8376 210.795 25.6349 210.947 25.4956C211.099 25.3436 211.296 25.2676 211.536 25.2676C212.094 25.2676 212.372 25.5526 212.372 26.1226C212.372 26.4013 212.296 26.6229 212.144 26.7876C211.992 26.9396 211.79 27.0156 211.536 27.0156C211.296 27.0156 211.099 26.9333 210.947 26.7686C210.795 26.6039 210.719 26.3823 210.719 26.1036Z" fill="#BFD730"/>
</svg>
