<svg width="240" height="48" viewBox="0 0 240 48" fill="none" xmlns="http://www.w3.org/2000/svg">
<path d="M2.93995 10.72V14.416H1.14795V4.35H4.67595C5.73995 4.35 6.56595 4.59733 7.15395 5.092C7.74195 5.58667 8.03595 6.30533 8.03595 7.248C8.03595 8.30267 7.71395 9.14733 7.06995 9.782C6.43528 10.4073 5.57662 10.72 4.49395 10.72H2.93995ZM2.93995 9.334H4.29795C4.92328 9.334 5.39462 9.17067 5.71195 8.844C6.03862 8.508 6.20195 8.02267 6.20195 7.388C6.20195 6.27733 5.61395 5.722 4.43795 5.722H2.93995V9.334Z" fill="#004D43"/>
<path d="M14.2557 10.986H10.2657C10.275 11.686 10.4337 12.2227 10.7417 12.596C11.0497 12.96 11.4743 13.142 12.0157 13.142C12.6783 13.142 13.3457 12.9553 14.0177 12.582L14.1157 14.052C13.481 14.3973 12.7203 14.57 11.8337 14.57C9.603 14.57 8.48767 13.2493 8.48767 10.608C8.48767 9.32 8.763 8.368 9.31367 7.752C9.87367 7.12667 10.6063 6.814 11.5117 6.814C13.341 6.814 14.2557 7.98067 14.2557 10.314V10.986ZM12.6037 9.894C12.6037 8.69933 12.2303 8.102 11.4837 8.102C11.0823 8.102 10.779 8.27 10.5737 8.606C10.3777 8.942 10.2797 9.37133 10.2797 9.894H12.6037Z" fill="#004D43"/>
<path d="M19.7193 7.43L19.7893 6.954H21.3573V14.304C21.3573 16.4693 20.3586 17.552 18.3613 17.552C17.3626 17.552 16.4899 17.37 15.7433 17.006L16.0093 15.48C16.2986 15.6573 16.6486 15.802 17.0593 15.914C17.4793 16.0353 17.8666 16.096 18.2213 16.096C19.1826 16.096 19.6633 15.4707 19.6633 14.22V13.772C19.2059 14.2667 18.6179 14.514 17.8993 14.514C17.0873 14.514 16.4386 14.2013 15.9533 13.576C15.4773 12.9413 15.2393 11.9987 15.2393 10.748C15.2393 10.0573 15.3279 9.42733 15.5053 8.858C15.6919 8.28867 15.9999 7.808 16.4293 7.416C16.8679 7.01467 17.3999 6.814 18.0253 6.814C18.6506 6.814 19.2153 7.01933 19.7193 7.43ZM19.6073 12.554V8.648C19.1686 8.33067 18.7766 8.172 18.4313 8.172C17.5166 8.172 17.0593 9.04 17.0593 10.776C17.0593 12.344 17.5026 13.128 18.3893 13.128C18.8186 13.128 19.2246 12.9367 19.6073 12.554Z" fill="#004D43"/>
<path d="M23.5119 8.452L23.3019 7.15C23.9739 6.926 24.7439 6.814 25.6119 6.814C26.6385 6.814 27.3665 7.04733 27.7959 7.514C28.2252 7.97133 28.4399 8.81133 28.4399 10.034V12.666C28.4399 13.058 28.5799 13.254 28.8599 13.254C28.9905 13.254 29.1399 13.2213 29.3079 13.156L29.4339 14.332C29.0792 14.4813 28.6825 14.556 28.2439 14.556C27.5719 14.556 27.1612 14.2713 27.0119 13.702C26.4052 14.2713 25.7005 14.556 24.8979 14.556C24.1792 14.556 23.6285 14.3367 23.2459 13.898C22.8725 13.4593 22.6859 12.8993 22.6859 12.218C22.6859 10.4913 23.6472 9.628 25.5699 9.628C25.9525 9.628 26.3492 9.67467 26.7599 9.768V9.446C26.7599 8.578 26.2699 8.144 25.2899 8.144C24.7579 8.144 24.1652 8.24667 23.5119 8.452ZM26.7599 12.596V10.874C26.4425 10.762 26.1439 10.706 25.8639 10.706C24.9025 10.706 24.4219 11.1587 24.4219 12.064C24.4219 12.428 24.5059 12.7173 24.6739 12.932C24.8419 13.1373 25.0892 13.24 25.4159 13.24C25.9199 13.24 26.3679 13.0253 26.7599 12.596Z" fill="#004D43"/>
<path d="M34.3273 7.29V4.35H36.0773V14.416H34.5093L34.4533 13.758C33.94 14.29 33.3286 14.556 32.6193 14.556C31.8073 14.556 31.1586 14.234 30.6733 13.59C30.1973 12.946 29.9593 11.9987 29.9593 10.748C29.9593 10.0573 30.0526 9.42733 30.2393 8.858C30.426 8.27933 30.7386 7.794 31.1773 7.402C31.616 7.01 32.1573 6.814 32.8013 6.814C33.3613 6.814 33.87 6.97267 34.3273 7.29ZM34.3413 12.61V8.62C33.9026 8.30267 33.5153 8.144 33.1793 8.144C32.246 8.144 31.7793 9.02133 31.7793 10.776C31.7793 11.56 31.896 12.1573 32.1293 12.568C32.3626 12.9787 32.694 13.184 33.1233 13.184C33.5526 13.184 33.9586 12.9927 34.3413 12.61Z" fill="#004D43"/>
<path d="M38.2319 8.452L38.0219 7.15C38.6939 6.926 39.4639 6.814 40.3319 6.814C41.3585 6.814 42.0865 7.04733 42.5159 7.514C42.9452 7.97133 43.1599 8.81133 43.1599 10.034V12.666C43.1599 13.058 43.2999 13.254 43.5799 13.254C43.7105 13.254 43.8599 13.2213 44.0279 13.156L44.1539 14.332C43.7992 14.4813 43.4025 14.556 42.9639 14.556C42.2919 14.556 41.8812 14.2713 41.7319 13.702C41.1252 14.2713 40.4205 14.556 39.6179 14.556C38.8992 14.556 38.3485 14.3367 37.9659 13.898C37.5925 13.4593 37.4059 12.8993 37.4059 12.218C37.4059 10.4913 38.3672 9.628 40.2899 9.628C40.6725 9.628 41.0692 9.67467 41.4799 9.768V9.446C41.4799 8.578 40.9899 8.144 40.0099 8.144C39.4779 8.144 38.8852 8.24667 38.2319 8.452ZM41.4799 12.596V10.874C41.1625 10.762 40.8639 10.706 40.5839 10.706C39.6225 10.706 39.1419 11.1587 39.1419 12.064C39.1419 12.428 39.2259 12.7173 39.3939 12.932C39.5619 13.1373 39.8092 13.24 40.1359 13.24C40.6399 13.24 41.0879 13.0253 41.4799 12.596Z" fill="#004D43"/>
<path d="M45.194 6.954H46.944V14.416H45.194V6.954ZM45.054 5.008C45.054 4.69067 45.1474 4.44333 45.334 4.266C45.5207 4.08867 45.7634 4 46.062 4C46.3887 4 46.6407 4.08867 46.818 4.266C46.9954 4.434 47.084 4.68133 47.084 5.008C47.084 5.33467 46.986 5.58667 46.79 5.764C46.6034 5.932 46.3607 6.016 46.062 6.016C45.754 6.016 45.5067 5.92733 45.32 5.75C45.1427 5.56333 45.054 5.316 45.054 5.008Z" fill="#004D43"/>
<path d="M49.0964 8.452L48.8864 7.15C49.5584 6.926 50.3284 6.814 51.1964 6.814C52.2231 6.814 52.9511 7.04733 53.3804 7.514C53.8097 7.97133 54.0244 8.81133 54.0244 10.034V12.666C54.0244 13.058 54.1644 13.254 54.4444 13.254C54.5751 13.254 54.7244 13.2213 54.8924 13.156L55.0184 14.332C54.6637 14.4813 54.2671 14.556 53.8284 14.556C53.1564 14.556 52.7458 14.2713 52.5964 13.702C51.9898 14.2713 51.2851 14.556 50.4824 14.556C49.7638 14.556 49.2131 14.3367 48.8304 13.898C48.4571 13.4593 48.2704 12.8993 48.2704 12.218C48.2704 10.4913 49.2318 9.628 51.1544 9.628C51.5371 9.628 51.9338 9.67467 52.3444 9.768V9.446C52.3444 8.578 51.8544 8.144 50.8744 8.144C50.3424 8.144 49.7497 8.24667 49.0964 8.452ZM52.3444 12.596V10.874C52.0271 10.762 51.7284 10.706 51.4484 10.706C50.4871 10.706 50.0064 11.1587 50.0064 12.064C50.0064 12.428 50.0904 12.7173 50.2584 12.932C50.4264 13.1373 50.6738 13.24 51.0004 13.24C51.5044 13.24 51.9524 13.0253 52.3444 12.596Z" fill="#004D43"/>
<path d="M57.6546 6.954L57.7106 7.696C58.3826 7.108 59.1199 6.814 59.9226 6.814C61.1266 6.814 61.8079 7.332 61.9666 8.368C62.0039 8.60133 62.0226 8.914 62.0226 9.306V14.416H60.2726V9.53C60.2726 9.24067 60.2679 9.04933 60.2586 8.956C60.2026 8.49867 59.8946 8.27 59.3346 8.27C58.8492 8.27 58.3452 8.50333 57.8226 8.97V14.416H56.0586V6.954H57.6546Z" fill="#004D43"/>
<path d="M5.45996 31.8521V38.7161H2.13196V20.0221H8.68396C10.66 20.0221 12.194 20.4814 13.286 21.4001C14.378 22.3187 14.924 23.6534 14.924 25.4041C14.924 27.3627 14.326 28.9314 13.13 30.1101C11.9513 31.2714 10.3566 31.8521 8.34596 31.8521H5.45996ZM5.45996 29.2781H7.98196C9.14329 29.2781 10.0186 28.9747 10.608 28.3681C11.2146 27.7441 11.518 26.8427 11.518 25.6641C11.518 23.6014 10.426 22.5701 8.24196 22.5701H5.45996V29.2781Z" fill="#BFD730"/>
<path d="M17.3529 24.8581H20.6029V38.7161H17.3529V24.8581ZM17.0929 21.2441C17.0929 20.6547 17.2663 20.1954 17.6129 19.8661C17.9596 19.5367 18.4103 19.3721 18.9649 19.3721C19.5716 19.3721 20.0396 19.5367 20.3689 19.8661C20.6983 20.1781 20.8629 20.6374 20.8629 21.2441C20.8629 21.8507 20.6809 22.3187 20.3169 22.6481C19.9703 22.9601 19.5196 23.1161 18.9649 23.1161C18.3929 23.1161 17.9336 22.9514 17.5869 22.6221C17.2576 22.2754 17.0929 21.8161 17.0929 21.2441Z" fill="#BFD730"/>
<path d="M26.8882 24.8581L26.9922 26.2361C28.2402 25.1441 29.6096 24.5981 31.1002 24.5981C33.3362 24.5981 34.6016 25.5601 34.8962 27.4841C34.9656 27.9174 35.0002 28.4981 35.0002 29.2261V38.7161H31.7502V29.6421C31.7502 29.1047 31.7416 28.7494 31.7242 28.5761C31.6202 27.7267 31.0482 27.3021 30.0082 27.3021C29.1069 27.3021 28.1709 27.7354 27.2002 28.6021V38.7161H23.9242V24.8581H26.8882Z" fill="#BFD730"/>
<path d="M41.5918 24.8581V40.1201C41.5918 43.0667 40.2052 44.5401 37.4318 44.5401C36.2185 44.5401 35.1525 44.3234 34.2338 43.8901L34.7278 41.2121C35.5945 41.6281 36.3572 41.8361 37.0158 41.8361C37.4665 41.8361 37.7958 41.6887 38.0038 41.3941C38.2118 41.1167 38.3158 40.6054 38.3158 39.8601V24.8581H41.5918ZM38.0558 21.2441C38.0558 20.6547 38.2292 20.1954 38.5758 19.8661C38.9225 19.5367 39.3732 19.3721 39.9278 19.3721C40.5345 19.3721 41.0025 19.5367 41.3318 19.8661C41.6612 20.1781 41.8258 20.6374 41.8258 21.2441C41.8258 21.8507 41.6438 22.3187 41.2798 22.6481C40.9332 22.9601 40.4825 23.1161 39.9278 23.1161C39.3558 23.1161 38.8965 22.9514 38.5498 22.6221C38.2205 22.2754 38.0558 21.8161 38.0558 21.2441Z" fill="#BFD730"/>
<path d="M45.5625 27.6401L45.1725 25.2221C46.4205 24.8061 47.8505 24.5981 49.4625 24.5981C51.3692 24.5981 52.7212 25.0314 53.5185 25.8981C54.3159 26.7474 54.7145 28.3074 54.7145 30.5781V35.4661C54.7145 36.1941 54.9745 36.5581 55.4945 36.5581C55.7372 36.5581 56.0145 36.4974 56.3265 36.3761L56.5605 38.5601C55.9019 38.8374 55.1652 38.9761 54.3505 38.9761C53.1025 38.9761 52.3399 38.4474 52.0625 37.3901C50.9359 38.4474 49.6272 38.9761 48.1365 38.9761C46.8019 38.9761 45.7792 38.5687 45.0685 37.7541C44.3752 36.9394 44.0285 35.8994 44.0285 34.6341C44.0285 31.4274 45.8139 29.8241 49.3845 29.8241C50.0952 29.8241 50.8319 29.9107 51.5945 30.0841V29.4861C51.5945 27.8741 50.6845 27.0681 48.8645 27.0681C47.8765 27.0681 46.7759 27.2587 45.5625 27.6401ZM51.5945 35.3361V32.1381C51.0052 31.9301 50.4505 31.8261 49.9305 31.8261C48.1452 31.8261 47.2525 32.6667 47.2525 34.3481C47.2525 35.0241 47.4085 35.5614 47.7205 35.9601C48.0325 36.3414 48.4919 36.5321 49.0985 36.5321C50.0345 36.5321 50.8665 36.1334 51.5945 35.3361Z" fill="#BFD730"/>
<path d="M65.6422 24.5981C67.1849 24.5981 68.2596 25.1267 68.8662 26.1841C70.1662 25.1267 71.5702 24.5981 73.0782 24.5981C74.5516 24.5981 75.5656 24.9881 76.1202 25.7681C76.6922 26.5307 76.9782 27.6834 76.9782 29.2261V38.7161H73.7282V29.6421C73.7282 29.1914 73.7022 28.8101 73.6502 28.4981C73.4942 27.7007 72.9569 27.3021 72.0382 27.3021C71.1716 27.3021 70.2962 27.6747 69.4122 28.4201C69.4296 28.6974 69.4382 29.1741 69.4382 29.8501V38.7161H66.2142V29.6421C66.2142 29.1394 66.1969 28.7927 66.1622 28.6021C66.0756 28.1341 65.9109 27.8047 65.6682 27.6141C65.4256 27.4061 65.0789 27.3021 64.6282 27.3021C63.6402 27.3021 62.6782 27.7354 61.7422 28.6021V38.7161H58.4662V24.8581H61.4302L61.5342 26.2101C62.7649 25.1354 64.1342 24.5981 65.6422 24.5981Z" fill="#BFD730"/>
<path d="M80.9473 27.6401L80.5573 25.2221C81.8053 24.8061 83.2353 24.5981 84.8473 24.5981C86.754 24.5981 88.106 25.0314 88.9033 25.8981C89.7006 26.7474 90.0993 28.3074 90.0993 30.5781V35.4661C90.0993 36.1941 90.3593 36.5581 90.8793 36.5581C91.122 36.5581 91.3993 36.4974 91.7113 36.3761L91.9453 38.5601C91.2866 38.8374 90.55 38.9761 89.7353 38.9761C88.4873 38.9761 87.7246 38.4474 87.4473 37.3901C86.3206 38.4474 85.012 38.9761 83.5213 38.9761C82.1866 38.9761 81.164 38.5687 80.4533 37.7541C79.76 36.9394 79.4133 35.8994 79.4133 34.6341C79.4133 31.4274 81.1986 29.8241 84.7693 29.8241C85.48 29.8241 86.2166 29.9107 86.9793 30.0841V29.4861C86.9793 27.8741 86.0693 27.0681 84.2493 27.0681C83.2613 27.0681 82.1606 27.2587 80.9473 27.6401ZM86.9793 35.3361V32.1381C86.39 31.9301 85.8353 31.8261 85.3153 31.8261C83.53 31.8261 82.6373 32.6667 82.6373 34.3481C82.6373 35.0241 82.7933 35.5614 83.1053 35.9601C83.4173 36.3414 83.8766 36.5321 84.4833 36.5321C85.4193 36.5321 86.2513 36.1334 86.9793 35.3361Z" fill="#BFD730"/>
<path d="M96.815 24.8581L96.919 26.2361C98.167 25.1441 99.5364 24.5981 101.027 24.5981C103.263 24.5981 104.528 25.5601 104.823 27.4841C104.892 27.9174 104.927 28.4981 104.927 29.2261V38.7161H101.677V29.6421C101.677 29.1047 101.668 28.7494 101.651 28.5761C101.547 27.7267 100.975 27.3021 99.935 27.3021C99.0337 27.3021 98.0977 27.7354 97.127 28.6021V38.7161H93.851V24.8581H96.815Z" fill="#BFD730"/>
<path d="M120.4 25.0552H121.996L122.623 38.7162H121.35L120.856 27.3162L117.094 37.3482H116.106L112.287 27.2782L111.774 38.7162H110.52L111.147 25.0552H112.876L116.619 35.3532L120.4 25.0552Z" fill="#BFD730"/>
<path d="M128.929 38.9442C128.219 38.9442 127.605 38.7922 127.086 38.4882C126.579 38.1842 126.193 37.7662 125.927 37.2342C125.661 36.7022 125.471 36.1575 125.357 35.6002C125.243 35.0302 125.186 34.4158 125.186 33.7572C125.186 32.2118 125.515 30.9452 126.174 29.9572C126.845 28.9692 127.839 28.4752 129.157 28.4752C131.614 28.4752 132.843 30.1725 132.843 33.5672C132.843 34.2512 132.773 34.8972 132.634 35.5052C132.494 36.1132 132.279 36.6832 131.988 37.2152C131.696 37.7472 131.285 38.1715 130.753 38.4882C130.233 38.7922 129.625 38.9442 128.929 38.9442ZM128.967 37.8422C129.473 37.8422 129.904 37.7155 130.259 37.4622C130.613 37.2088 130.873 36.8668 131.038 36.4362C131.215 36.0055 131.342 35.5622 131.418 35.1062C131.494 34.6502 131.532 34.1625 131.532 33.6432C131.532 30.9452 130.721 29.5962 129.1 29.5962C128.58 29.5962 128.137 29.7418 127.77 30.0332C127.415 30.3118 127.149 30.6855 126.972 31.1542C126.794 31.6102 126.668 32.0535 126.592 32.4842C126.528 32.9148 126.497 33.3518 126.497 33.7952C126.497 34.5298 126.56 35.1822 126.687 35.7522C126.826 36.3222 127.086 36.8162 127.466 37.2342C127.858 37.6395 128.359 37.8422 128.967 37.8422Z" fill="#BFD730"/>
<path d="M138.613 28.4752C139.335 28.4752 140.126 28.7665 140.988 29.3492V25.0552H142.261V38.7162H141.064V37.6712C140.215 38.4945 139.316 38.9062 138.366 38.9062C137.314 38.9062 136.478 38.4818 135.858 37.6332C135.237 36.7845 134.927 35.5242 134.927 33.8522C134.927 33.1808 134.99 32.5475 135.117 31.9522C135.256 31.3442 135.459 30.7742 135.725 30.2422C136.003 29.6975 136.39 29.2668 136.884 28.9502C137.378 28.6335 137.954 28.4752 138.613 28.4752ZM136.257 33.9282C136.257 35.1568 136.472 36.1068 136.903 36.7782C137.333 37.4495 137.897 37.7852 138.594 37.7852C139.468 37.7852 140.272 37.3545 141.007 36.4932V30.6032C140.158 29.9445 139.398 29.6152 138.727 29.6152C137.08 29.6152 136.257 31.0528 136.257 33.9282Z" fill="#BFD730"/>
<path d="M145.725 29.9382L145.592 28.8172C146.416 28.5892 147.372 28.4752 148.461 28.4752C150.564 28.4752 151.615 29.5138 151.615 31.5912V36.9682C151.615 37.2722 151.666 37.4875 151.767 37.6142C151.881 37.7408 152.065 37.8042 152.318 37.8042C152.521 37.8042 152.793 37.7408 153.135 37.6142L153.249 38.6592C152.73 38.8238 152.312 38.9062 151.995 38.9062C151.552 38.9062 151.197 38.7922 150.931 38.5642C150.665 38.3235 150.513 38.0322 150.475 37.6902C149.563 38.5008 148.601 38.9062 147.587 38.9062C146.663 38.9062 145.96 38.6148 145.478 38.0322C144.997 37.4495 144.756 36.7085 144.756 35.8092C144.756 34.6312 145.092 33.7635 145.763 33.2062C146.447 32.6362 147.397 32.3512 148.613 32.3512C149.221 32.3512 149.804 32.4145 150.361 32.5412V31.8192C150.361 31.0338 150.19 30.4638 149.848 30.1092C149.506 29.7545 148.911 29.5772 148.062 29.5772C147.264 29.5772 146.485 29.6975 145.725 29.9382ZM150.361 36.6832L150.38 33.5292C149.823 33.3898 149.304 33.3202 148.822 33.3202C147.91 33.3202 147.226 33.5102 146.77 33.8902C146.327 34.2702 146.105 34.8972 146.105 35.7712C146.105 36.3538 146.251 36.8352 146.542 37.2152C146.846 37.5952 147.29 37.7852 147.872 37.7852C148.746 37.7852 149.576 37.4178 150.361 36.6832Z" fill="#BFD730"/>
<path d="M154.903 36.3222V25.0552H156.176V36.1322C156.176 36.7275 156.258 37.1582 156.423 37.4242C156.587 37.6775 156.885 37.8042 157.316 37.8042C157.759 37.8042 158.272 37.6712 158.855 37.4052L159.007 38.4692C158.449 38.7605 157.81 38.9062 157.088 38.9062C156.264 38.9062 155.694 38.6908 155.378 38.2602C155.061 37.8168 154.903 37.1708 154.903 36.3222Z" fill="#BFD730"/>
<path d="M168.156 33.1681H165.192V38.7161H163.881V25.0551H168.403C169.733 25.0551 170.765 25.3654 171.5 25.9861C172.235 26.5941 172.602 27.4934 172.602 28.6841C172.602 30.0521 172.19 31.1414 171.367 31.9521C170.556 32.7628 169.486 33.1681 168.156 33.1681ZM165.192 32.0091H168.042C169.081 32.0091 169.872 31.7431 170.417 31.2111C170.974 30.6664 171.253 29.8874 171.253 28.8741C171.253 27.9114 171 27.2338 170.493 26.8411C169.999 26.4358 169.233 26.2331 168.194 26.2331H165.192V32.0091Z" fill="#BFD730"/>
<path d="M178.136 28.4751C179.048 28.4751 179.688 28.9944 180.055 30.0331L179.01 30.6031C178.858 30.2738 178.7 30.0394 178.535 29.9001C178.37 29.7481 178.13 29.6721 177.813 29.6721C177.218 29.6721 176.54 30.1091 175.78 30.9831V38.7161H174.507V28.6841H175.704V29.8051C176.515 28.9184 177.325 28.4751 178.136 28.4751Z" fill="#BFD730"/>
<path d="M184.749 38.9441C184.04 38.9441 183.425 38.7921 182.906 38.4881C182.399 38.1841 182.013 37.7661 181.747 37.2341C181.481 36.7021 181.291 36.1574 181.177 35.6001C181.063 35.0301 181.006 34.4158 181.006 33.7571C181.006 32.2118 181.335 30.9451 181.994 29.9571C182.665 28.9691 183.66 28.4751 184.977 28.4751C187.434 28.4751 188.663 30.1724 188.663 33.5671C188.663 34.2511 188.593 34.8971 188.454 35.5051C188.315 36.1131 188.099 36.6831 187.808 37.2151C187.517 37.7471 187.105 38.1714 186.573 38.4881C186.054 38.7921 185.446 38.9441 184.749 38.9441ZM184.787 37.8421C185.294 37.8421 185.724 37.7154 186.079 37.4621C186.434 37.2088 186.693 36.8668 186.858 36.4361C187.035 36.0054 187.162 35.5621 187.238 35.1061C187.314 34.6501 187.352 34.1624 187.352 33.6431C187.352 30.9451 186.541 29.5961 184.92 29.5961C184.401 29.5961 183.957 29.7418 183.59 30.0331C183.235 30.3118 182.969 30.6854 182.792 31.1541C182.615 31.6101 182.488 32.0534 182.412 32.4841C182.349 32.9148 182.317 33.3518 182.317 33.7951C182.317 34.5298 182.38 35.1821 182.507 35.7521C182.646 36.3221 182.906 36.8161 183.286 37.2341C183.679 37.6394 184.179 37.8421 184.787 37.8421Z" fill="#BFD730"/>
<path d="M194.433 28.4751C195.155 28.4751 195.947 28.7664 196.808 29.3491V25.0551H198.081V38.7161H196.884V37.6711C196.035 38.4944 195.136 38.9061 194.186 38.9061C193.135 38.9061 192.299 38.4818 191.678 37.6331C191.057 36.7844 190.747 35.5241 190.747 33.8521C190.747 33.1808 190.81 32.5474 190.937 31.9521C191.076 31.3441 191.279 30.7741 191.545 30.2421C191.824 29.6974 192.21 29.2668 192.704 28.9501C193.198 28.6334 193.774 28.4751 194.433 28.4751ZM192.077 33.9281C192.077 35.1568 192.292 36.1068 192.723 36.7781C193.154 37.4494 193.717 37.7851 194.414 37.7851C195.288 37.7851 196.092 37.3544 196.827 36.4931V30.6031C195.978 29.9444 195.218 29.6151 194.547 29.6151C192.9 29.6151 192.077 31.0528 192.077 33.9281Z" fill="#BFD730"/>
<path d="M203.902 38.9061C202.382 38.9061 201.508 38.2538 201.28 36.9491C201.229 36.6578 201.204 36.2461 201.204 35.7141V28.8551L202.458 28.6841V35.5431C202.458 36.0244 202.483 36.3664 202.534 36.5691C202.66 37.3798 203.218 37.7851 204.206 37.7851C205.143 37.7851 206.137 37.2911 207.189 36.3031V28.6841H208.481V38.7161H207.189V37.4811C206.087 38.4311 204.991 38.9061 203.902 38.9061Z" fill="#BFD730"/>
<path d="M218.548 28.8171L215.793 32.9591L219.023 38.7161H217.579L214.748 33.7191H213.019V38.7161H211.746V25.0551H213.019V32.5601H214.748L217.294 28.6841L218.548 28.8171Z" fill="#BFD730"/>
<path d="M224.901 29.7101H222.279V35.9041C222.279 36.3474 222.292 36.6894 222.317 36.9301C222.355 37.1581 222.457 37.3671 222.621 37.5571C222.786 37.7471 223.033 37.8421 223.362 37.8421C223.73 37.8421 224.205 37.7028 224.787 37.4241L224.92 38.4881C224.312 38.7921 223.717 38.9441 223.134 38.9441C221.728 38.9441 221.025 38.1144 221.025 36.4551V29.7101H219.733V28.6841H221.025V27.0501L222.279 26.3281V28.6841H224.901V29.7101Z" fill="#BFD730"/>
<path d="M227.11 28.6841H228.364V38.7161H227.11V28.6841ZM226.901 26.1001C226.901 25.8341 226.977 25.6314 227.129 25.4921C227.281 25.3401 227.477 25.2641 227.718 25.2641C228.275 25.2641 228.554 25.5491 228.554 26.1191C228.554 26.3978 228.478 26.6194 228.326 26.7841C228.174 26.9361 227.971 27.0121 227.718 27.0121C227.477 27.0121 227.281 26.9298 227.129 26.7651C226.977 26.6004 226.901 26.3788 226.901 26.1001Z" fill="#BFD730"/>
<path d="M235.551 29.7101H232.967V38.7161H231.732V29.7101H230.117V28.6841H231.732V27.7911C231.732 26.8664 231.985 26.1381 232.492 25.6061C232.999 25.0741 233.765 24.8081 234.791 24.8081C235.374 24.8081 235.944 24.8841 236.501 25.0361L236.406 26.1191C235.823 25.9671 235.285 25.8911 234.791 25.8911C234.158 25.8911 233.695 26.0494 233.404 26.3661C233.113 26.6701 232.967 27.1958 232.967 27.9431V28.6841H235.551V29.7101Z" fill="#BFD730"/>
</svg>
