<svg width="240" height="48" viewBox="0 0 240 48" fill="none" xmlns="http://www.w3.org/2000/svg">
<path d="M2.792 10.72V14.416H1V4.35H4.528C5.592 4.35 6.418 4.59733 7.006 5.092C7.594 5.58667 7.888 6.30533 7.888 7.248C7.888 8.30267 7.566 9.14733 6.922 9.782C6.28733 10.4073 5.42867 10.72 4.346 10.72H2.792ZM2.792 9.334H4.15C4.77533 9.334 5.24667 9.17067 5.564 8.844C5.89067 8.508 6.054 8.02267 6.054 7.388C6.054 6.27733 5.466 5.722 4.29 5.722H2.792V9.334Z" fill="white"/>
<path d="M14.1077 10.986H10.1177C10.1271 11.686 10.2857 12.2227 10.5937 12.596C10.9017 12.96 11.3264 13.142 11.8677 13.142C12.5304 13.142 13.1977 12.9553 13.8697 12.582L13.9677 14.052C13.3331 14.3973 12.5724 14.57 11.6857 14.57C9.45505 14.57 8.33972 13.2493 8.33972 10.608C8.33972 9.32 8.61505 8.368 9.16572 7.752C9.72572 7.12667 10.4584 6.814 11.3637 6.814C13.1931 6.814 14.1077 7.98067 14.1077 10.314V10.986ZM12.4557 9.894C12.4557 8.69933 12.0824 8.102 11.3357 8.102C10.9344 8.102 10.6311 8.27 10.4257 8.606C10.2297 8.942 10.1317 9.37133 10.1317 9.894H12.4557Z" fill="white"/>
<path d="M19.5713 7.43L19.6413 6.954H21.2093V14.304C21.2093 16.4693 20.2107 17.552 18.2133 17.552C17.2147 17.552 16.342 17.37 15.5953 17.006L15.8613 15.48C16.1507 15.6573 16.5007 15.802 16.9113 15.914C17.3313 16.0353 17.7187 16.096 18.0733 16.096C19.0347 16.096 19.5153 15.4707 19.5153 14.22V13.772C19.058 14.2667 18.47 14.514 17.7513 14.514C16.9393 14.514 16.2907 14.2013 15.8053 13.576C15.3293 12.9413 15.0913 11.9987 15.0913 10.748C15.0913 10.0573 15.18 9.42733 15.3573 8.858C15.544 8.28867 15.852 7.808 16.2813 7.416C16.72 7.01467 17.252 6.814 17.8773 6.814C18.5027 6.814 19.0673 7.01933 19.5713 7.43ZM19.4593 12.554V8.648C19.0207 8.33067 18.6287 8.172 18.2833 8.172C17.3687 8.172 16.9113 9.04 16.9113 10.776C16.9113 12.344 17.3547 13.128 18.2413 13.128C18.6707 13.128 19.0767 12.9367 19.4593 12.554Z" fill="white"/>
<path d="M23.3639 8.452L23.1539 7.15C23.8259 6.926 24.5959 6.814 25.4639 6.814C26.4906 6.814 27.2186 7.04733 27.6479 7.514C28.0772 7.97133 28.2919 8.81133 28.2919 10.034V12.666C28.2919 13.058 28.4319 13.254 28.7119 13.254C28.8426 13.254 28.9919 13.2213 29.1599 13.156L29.2859 14.332C28.9312 14.4813 28.5346 14.556 28.0959 14.556C27.4239 14.556 27.0132 14.2713 26.8639 13.702C26.2572 14.2713 25.5526 14.556 24.7499 14.556C24.0312 14.556 23.4806 14.3367 23.0979 13.898C22.7246 13.4593 22.5379 12.8993 22.5379 12.218C22.5379 10.4913 23.4992 9.628 25.4219 9.628C25.8046 9.628 26.2012 9.67467 26.6119 9.768V9.446C26.6119 8.578 26.1219 8.144 25.1419 8.144C24.6099 8.144 24.0172 8.24667 23.3639 8.452ZM26.6119 12.596V10.874C26.2946 10.762 25.9959 10.706 25.7159 10.706C24.7546 10.706 24.2739 11.1587 24.2739 12.064C24.2739 12.428 24.3579 12.7173 24.5259 12.932C24.6939 13.1373 24.9412 13.24 25.2679 13.24C25.7719 13.24 26.2199 13.0253 26.6119 12.596Z" fill="white"/>
<path d="M34.1793 7.29V4.35H35.9293V14.416H34.3613L34.3053 13.758C33.792 14.29 33.1807 14.556 32.4713 14.556C31.6593 14.556 31.0107 14.234 30.5253 13.59C30.0493 12.946 29.8113 11.9987 29.8113 10.748C29.8113 10.0573 29.9047 9.42733 30.0913 8.858C30.278 8.27933 30.5907 7.794 31.0293 7.402C31.468 7.01 32.0093 6.814 32.6533 6.814C33.2133 6.814 33.722 6.97267 34.1793 7.29ZM34.1933 12.61V8.62C33.7547 8.30267 33.3673 8.144 33.0313 8.144C32.098 8.144 31.6313 9.02133 31.6313 10.776C31.6313 11.56 31.748 12.1573 31.9813 12.568C32.2147 12.9787 32.546 13.184 32.9753 13.184C33.4047 13.184 33.8107 12.9927 34.1933 12.61Z" fill="white"/>
<path d="M38.0839 8.452L37.8739 7.15C38.5459 6.926 39.3159 6.814 40.1839 6.814C41.2106 6.814 41.9386 7.04733 42.3679 7.514C42.7973 7.97133 43.0119 8.81133 43.0119 10.034V12.666C43.0119 13.058 43.1519 13.254 43.4319 13.254C43.5626 13.254 43.7119 13.2213 43.8799 13.156L44.0059 14.332C43.6513 14.4813 43.2546 14.556 42.8159 14.556C42.1439 14.556 41.7333 14.2713 41.5839 13.702C40.9773 14.2713 40.2726 14.556 39.4699 14.556C38.7513 14.556 38.2006 14.3367 37.8179 13.898C37.4446 13.4593 37.2579 12.8993 37.2579 12.218C37.2579 10.4913 38.2193 9.628 40.1419 9.628C40.5246 9.628 40.9213 9.67467 41.3319 9.768V9.446C41.3319 8.578 40.8419 8.144 39.8619 8.144C39.3299 8.144 38.7373 8.24667 38.0839 8.452ZM41.3319 12.596V10.874C41.0146 10.762 40.7159 10.706 40.4359 10.706C39.4746 10.706 38.9939 11.1587 38.9939 12.064C38.9939 12.428 39.0779 12.7173 39.2459 12.932C39.4139 13.1373 39.6613 13.24 39.9879 13.24C40.4919 13.24 40.9399 13.0253 41.3319 12.596Z" fill="white"/>
<path d="M45.0461 6.954H46.7961V14.416H45.0461V6.954ZM44.9061 5.008C44.9061 4.69067 44.9994 4.44333 45.1861 4.266C45.3727 4.08867 45.6154 4 45.9141 4C46.2407 4 46.4927 4.08867 46.6701 4.266C46.8474 4.434 46.9361 4.68133 46.9361 5.008C46.9361 5.33467 46.8381 5.58667 46.6421 5.764C46.4554 5.932 46.2127 6.016 45.9141 6.016C45.6061 6.016 45.3587 5.92733 45.1721 5.75C44.9947 5.56333 44.9061 5.316 44.9061 5.008Z" fill="white"/>
<path d="M48.9485 8.452L48.7385 7.15C49.4105 6.926 50.1805 6.814 51.0485 6.814C52.0751 6.814 52.8031 7.04733 53.2325 7.514C53.6618 7.97133 53.8765 8.81133 53.8765 10.034V12.666C53.8765 13.058 54.0165 13.254 54.2965 13.254C54.4271 13.254 54.5765 13.2213 54.7445 13.156L54.8705 14.332C54.5158 14.4813 54.1191 14.556 53.6805 14.556C53.0085 14.556 52.5978 14.2713 52.4485 13.702C51.8418 14.2713 51.1371 14.556 50.3345 14.556C49.6158 14.556 49.0651 14.3367 48.6825 13.898C48.3091 13.4593 48.1225 12.8993 48.1225 12.218C48.1225 10.4913 49.0838 9.628 51.0065 9.628C51.3891 9.628 51.7858 9.67467 52.1965 9.768V9.446C52.1965 8.578 51.7065 8.144 50.7265 8.144C50.1945 8.144 49.6018 8.24667 48.9485 8.452ZM52.1965 12.596V10.874C51.8791 10.762 51.5805 10.706 51.3005 10.706C50.3391 10.706 49.8585 11.1587 49.8585 12.064C49.8585 12.428 49.9425 12.7173 50.1105 12.932C50.2785 13.1373 50.5258 13.24 50.8525 13.24C51.3565 13.24 51.8045 13.0253 52.1965 12.596Z" fill="white"/>
<path d="M57.5066 6.954L57.5626 7.696C58.2346 7.108 58.972 6.814 59.7746 6.814C60.9786 6.814 61.66 7.332 61.8186 8.368C61.856 8.60133 61.8746 8.914 61.8746 9.306V14.416H60.1246V9.53C60.1246 9.24067 60.12 9.04933 60.1106 8.956C60.0546 8.49867 59.7466 8.27 59.1866 8.27C58.7013 8.27 58.1973 8.50333 57.6746 8.97V14.416H55.9106V6.954H57.5066Z" fill="white"/>
<path d="M66.2705 13.716L66.8585 12.148C67.7452 12.764 68.5992 13.072 69.4205 13.072C69.8965 13.072 70.2792 12.9647 70.5685 12.75C70.8672 12.526 71.0165 12.1807 71.0165 11.714C71.0165 11.21 70.8578 10.8367 70.5405 10.594C70.2325 10.3513 69.7285 10.132 69.0285 9.936C68.7298 9.852 68.4778 9.77733 68.2725 9.712C68.0765 9.63733 67.8478 9.52533 67.5865 9.376C67.3345 9.21733 67.1292 9.04467 66.9705 8.858C66.8212 8.67133 66.6905 8.424 66.5785 8.116C66.4665 7.808 66.4105 7.46267 66.4105 7.08C66.4105 6.20267 66.7138 5.49333 67.3205 4.952C67.9365 4.41067 68.7252 4.14 69.6865 4.14C70.6665 4.14 71.4085 4.37333 71.9125 4.84C72.4258 5.30667 72.7618 5.876 72.9205 6.548L71.2965 7.024C71.0352 6.09067 70.4845 5.624 69.6445 5.624C69.2432 5.624 68.9118 5.73133 68.6505 5.946C68.3892 6.16067 68.2585 6.478 68.2585 6.898C68.2585 7.346 68.4032 7.67267 68.6925 7.878C68.9912 8.08333 69.4672 8.284 70.1205 8.48C70.9978 8.74133 71.6698 9.096 72.1365 9.544C72.6125 9.992 72.8505 10.6407 72.8505 11.49C72.8505 12.4607 72.5332 13.226 71.8985 13.786C71.2732 14.3367 70.4425 14.612 69.4065 14.612C68.1652 14.612 67.1198 14.3133 66.2705 13.716Z" fill="white"/>
<path d="M78.1916 6.954L79.8996 7.136C79.125 9.92667 78.3363 12.26 77.5336 14.136C77.291 14.7053 77.0763 15.1627 76.8896 15.508C76.7123 15.8627 76.4883 16.2127 76.2176 16.558C75.947 16.9033 75.639 17.1553 75.2936 17.314C74.9576 17.4727 74.575 17.552 74.1456 17.552C73.3523 17.552 72.6196 17.3747 71.9476 17.02L72.3956 15.578C73.0396 15.914 73.5716 16.082 73.9916 16.082C74.393 16.082 74.7056 15.9373 74.9296 15.648C75.1629 15.368 75.415 14.8733 75.6856 14.164L73.0956 7.122L74.9576 6.954L76.0076 10.272C76.297 11.2147 76.5116 11.9193 76.6516 12.386C77.0343 11.2753 77.5476 9.46467 78.1916 6.954Z" fill="white"/>
<path d="M81.1069 8.452L80.8969 7.15C81.5689 6.926 82.3389 6.814 83.2069 6.814C84.2336 6.814 84.9616 7.04733 85.3909 7.514C85.8202 7.97133 86.0349 8.81133 86.0349 10.034V12.666C86.0349 13.058 86.1749 13.254 86.4549 13.254C86.5856 13.254 86.7349 13.2213 86.9029 13.156L87.0289 14.332C86.6742 14.4813 86.2776 14.556 85.8389 14.556C85.1669 14.556 84.7562 14.2713 84.6069 13.702C84.0002 14.2713 83.2956 14.556 82.4929 14.556C81.7742 14.556 81.2236 14.3367 80.8409 13.898C80.4676 13.4593 80.2809 12.8993 80.2809 12.218C80.2809 10.4913 81.2422 9.628 83.1649 9.628C83.5476 9.628 83.9442 9.67467 84.3549 9.768V9.446C84.3549 8.578 83.8649 8.144 82.8849 8.144C82.3529 8.144 81.7602 8.24667 81.1069 8.452ZM84.3549 12.596V10.874C84.0376 10.762 83.7389 10.706 83.4589 10.706C82.4976 10.706 82.0169 11.1587 82.0169 12.064C82.0169 12.428 82.1009 12.7173 82.2689 12.932C82.4369 13.1373 82.6842 13.24 83.0109 13.24C83.5149 13.24 83.9629 13.0253 84.3549 12.596Z" fill="white"/>
<path d="M91.4291 6.814C91.9424 6.814 92.3764 7.07067 92.7311 7.584L91.9471 8.844C91.7231 8.564 91.4571 8.424 91.1491 8.424C90.6824 8.424 90.2437 8.63867 89.8331 9.068V14.416H88.0691V6.954H89.6371L89.7071 7.738C90.2297 7.122 90.8037 6.814 91.4291 6.814Z" fill="white"/>
<path d="M93.5902 6.954H95.3402V14.416H93.5902V6.954ZM93.4502 5.008C93.4502 4.69067 93.5435 4.44333 93.7302 4.266C93.9169 4.08867 94.1595 4 94.4582 4C94.7849 4 95.0369 4.08867 95.2142 4.266C95.3915 4.434 95.4802 4.68133 95.4802 5.008C95.4802 5.33467 95.3822 5.58667 95.1862 5.764C94.9995 5.932 94.7569 6.016 94.4582 6.016C94.1502 6.016 93.9029 5.92733 93.7162 5.75C93.5389 5.56333 93.4502 5.316 93.4502 5.008Z" fill="white"/>
<path d="M97.4926 8.452L97.2826 7.15C97.9546 6.926 98.7246 6.814 99.5926 6.814C100.619 6.814 101.347 7.04733 101.777 7.514C102.206 7.97133 102.421 8.81133 102.421 10.034V12.666C102.421 13.058 102.561 13.254 102.841 13.254C102.971 13.254 103.121 13.2213 103.289 13.156L103.415 14.332C103.06 14.4813 102.663 14.556 102.225 14.556C101.553 14.556 101.142 14.2713 100.993 13.702C100.386 14.2713 99.6813 14.556 98.8786 14.556C98.1599 14.556 97.6093 14.3367 97.2266 13.898C96.8533 13.4593 96.6666 12.8993 96.6666 12.218C96.6666 10.4913 97.6279 9.628 99.5506 9.628C99.9333 9.628 100.33 9.67467 100.741 9.768V9.446C100.741 8.578 100.251 8.144 99.2706 8.144C98.7386 8.144 98.1459 8.24667 97.4926 8.452ZM100.741 12.596V10.874C100.423 10.762 100.125 10.706 99.8446 10.706C98.8833 10.706 98.4026 11.1587 98.4026 12.064C98.4026 12.428 98.4866 12.7173 98.6546 12.932C98.8226 13.1373 99.0699 13.24 99.3966 13.24C99.9006 13.24 100.349 13.0253 100.741 12.596Z" fill="white"/>
<path d="M108.347 6.814C109.131 6.814 109.672 7.024 109.971 7.444C110.269 7.85467 110.419 8.47533 110.419 9.306V14.416H108.669V9.53C108.669 9.054 108.603 8.72733 108.473 8.55C108.351 8.36333 108.104 8.27 107.731 8.27C107.245 8.27 106.741 8.50333 106.219 8.97V14.416H104.455V4.35H106.219V7.612C106.872 7.08 107.581 6.814 108.347 6.814Z" fill="white"/>
<path d="M5.31201 31.8521V38.7161H1.98401V20.0221H8.53601C10.512 20.0221 12.046 20.4814 13.138 21.4001C14.23 22.3187 14.776 23.6534 14.776 25.4041C14.776 27.3627 14.178 28.9314 12.982 30.1101C11.8033 31.2714 10.2087 31.8521 8.19801 31.8521H5.31201ZM5.31201 29.2781H7.83401C8.99534 29.2781 9.87068 28.9747 10.46 28.3681C11.0667 27.7441 11.37 26.8427 11.37 25.6641C11.37 23.6014 10.278 22.5701 8.09401 22.5701H5.31201V29.2781Z" fill="#BFD730"/>
<path d="M26.3009 32.3461H18.8909C18.9082 33.6461 19.2029 34.6427 19.7749 35.3361C20.3469 36.0121 21.1356 36.3501 22.1409 36.3501C23.3716 36.3501 24.6109 36.0034 25.8589 35.3101L26.0409 38.0401C24.8622 38.6814 23.4496 39.0021 21.8029 39.0021C17.6602 39.0021 15.5889 36.5494 15.5889 31.6441C15.5889 29.2521 16.1002 27.4841 17.1229 26.3401C18.1629 25.1787 19.5236 24.5981 21.2049 24.5981C24.6022 24.5981 26.3009 26.7647 26.3009 31.0981V32.3461ZM23.2329 30.3181C23.2329 28.0994 22.5396 26.9901 21.1529 26.9901C20.4076 26.9901 19.8442 27.3021 19.4629 27.9261C19.0989 28.5501 18.9169 29.3474 18.9169 30.3181H23.2329Z" fill="#BFD730"/>
<path d="M35.9796 24.5981C37.5223 24.5981 38.597 25.1267 39.2036 26.1841C40.5036 25.1267 41.9076 24.5981 43.4156 24.5981C44.889 24.5981 45.903 24.9881 46.4576 25.7681C47.0296 26.5307 47.3156 27.6834 47.3156 29.2261V38.7161H44.0656V29.6421C44.0656 29.1914 44.0396 28.8101 43.9876 28.4981C43.8316 27.7007 43.2943 27.3021 42.3756 27.3021C41.5089 27.3021 40.6336 27.6747 39.7496 28.4201C39.767 28.6974 39.7756 29.1741 39.7756 29.8501V38.7161H36.5516V29.6421C36.5516 29.1394 36.5343 28.7927 36.4996 28.6021C36.413 28.1341 36.2483 27.8047 36.0056 27.6141C35.763 27.4061 35.4163 27.3021 34.9656 27.3021C33.9776 27.3021 33.0156 27.7354 32.0796 28.6021V38.7161H28.8036V24.8581H31.7676L31.8716 26.2101C33.1023 25.1354 34.4716 24.5981 35.9796 24.5981Z" fill="#BFD730"/>
<path d="M53.8587 25.8981C55.1933 25.0314 56.3893 24.5981 57.4467 24.5981C58.816 24.5981 59.8993 25.1007 60.6967 26.1061C61.494 27.1114 61.8927 28.6541 61.8927 30.7341C61.8927 33.2994 61.3727 35.3187 60.3327 36.7921C59.2927 38.2481 57.672 38.9761 55.4707 38.9761C53.668 38.9761 52.056 38.5774 50.6347 37.7801V20.0221H53.8587V25.8981ZM58.5387 31.3841C58.5387 29.8414 58.3653 28.7667 58.0187 28.1601C57.672 27.5534 57.1433 27.2501 56.4327 27.2501C55.6527 27.2501 54.7947 27.5707 53.8587 28.2121V35.9861C54.4133 36.3154 55.0373 36.4801 55.7307 36.4801C57.6027 36.4801 58.5387 34.7814 58.5387 31.3841Z" fill="#BFD730"/>
<path d="M64.5185 24.8581H67.7685V38.7161H64.5185V24.8581ZM64.2585 21.2441C64.2585 20.6547 64.4318 20.1954 64.7785 19.8661C65.1251 19.5367 65.5758 19.3721 66.1305 19.3721C66.7371 19.3721 67.2051 19.5367 67.5345 19.8661C67.8638 20.1781 68.0285 20.6374 68.0285 21.2441C68.0285 21.8507 67.8465 22.3187 67.4825 22.6481C67.1358 22.9601 66.6851 23.1161 66.1305 23.1161C65.5585 23.1161 65.0991 22.9514 64.7525 22.6221C64.4231 22.2754 64.2585 21.8161 64.2585 21.2441Z" fill="#BFD730"/>
<path d="M71.7398 27.6401L71.3498 25.2221C72.5978 24.8061 74.0278 24.5981 75.6398 24.5981C77.5464 24.5981 78.8984 25.0314 79.6958 25.8981C80.4931 26.7474 80.8918 28.3074 80.8918 30.5781V35.4661C80.8918 36.1941 81.1518 36.5581 81.6718 36.5581C81.9144 36.5581 82.1918 36.4974 82.5038 36.3761L82.7378 38.5601C82.0791 38.8374 81.3424 38.9761 80.5278 38.9761C79.2798 38.9761 78.5171 38.4474 78.2398 37.3901C77.1131 38.4474 75.8044 38.9761 74.3138 38.9761C72.9791 38.9761 71.9564 38.5687 71.2458 37.7541C70.5524 36.9394 70.2058 35.8994 70.2058 34.6341C70.2058 31.4274 71.9911 29.8241 75.5618 29.8241C76.2724 29.8241 77.0091 29.9107 77.7718 30.0841V29.4861C77.7718 27.8741 76.8618 27.0681 75.0418 27.0681C74.0538 27.0681 72.9531 27.2587 71.7398 27.6401ZM77.7718 35.3361V32.1381C77.1824 31.9301 76.6278 31.8261 76.1078 31.8261C74.3224 31.8261 73.4298 32.6667 73.4298 34.3481C73.4298 35.0241 73.5858 35.5614 73.8978 35.9601C74.2098 36.3414 74.6691 36.5321 75.2758 36.5321C76.2118 36.5321 77.0438 36.1334 77.7718 35.3361Z" fill="#BFD730"/>
<path d="M91.7833 24.8581L94.9553 25.1961C93.5167 30.3787 92.052 34.7121 90.5613 38.1961C90.1107 39.2534 89.712 40.1027 89.3653 40.7441C89.036 41.4027 88.62 42.0527 88.1173 42.6941C87.6147 43.3354 87.0427 43.8034 86.4013 44.0981C85.7773 44.3927 85.0667 44.5401 84.2693 44.5401C82.796 44.5401 81.4353 44.2107 80.1873 43.5521L81.0193 40.8741C82.2153 41.4981 83.2033 41.8101 83.9833 41.8101C84.7287 41.8101 85.3093 41.5414 85.7253 41.0041C86.1587 40.4841 86.6267 39.5654 87.1293 38.2481L82.3193 25.1701L85.7773 24.8581L87.7273 31.0201C88.2647 32.7707 88.6633 34.0794 88.9233 34.9461C89.634 32.8834 90.5873 29.5207 91.7833 24.8581Z" fill="#BFD730"/>
<path d="M97.1714 27.6401L96.7814 25.2221C98.0294 24.8061 99.4594 24.5981 101.071 24.5981C102.978 24.5981 104.33 25.0314 105.127 25.8981C105.925 26.7474 106.323 28.3074 106.323 30.5781V35.4661C106.323 36.1941 106.583 36.5581 107.103 36.5581C107.346 36.5581 107.623 36.4974 107.935 36.3761L108.169 38.5601C107.511 38.8374 106.774 38.9761 105.959 38.9761C104.711 38.9761 103.949 38.4474 103.671 37.3901C102.545 38.4474 101.236 38.9761 99.7454 38.9761C98.4108 38.9761 97.3881 38.5687 96.6774 37.7541C95.9841 36.9394 95.6374 35.8994 95.6374 34.6341C95.6374 31.4274 97.4228 29.8241 100.993 29.8241C101.704 29.8241 102.441 29.9107 103.203 30.0841V29.4861C103.203 27.8741 102.293 27.0681 100.473 27.0681C99.4854 27.0681 98.3848 27.2587 97.1714 27.6401ZM103.203 35.3361V32.1381C102.614 31.9301 102.059 31.8261 101.539 31.8261C99.7541 31.8261 98.8614 32.6667 98.8614 34.3481C98.8614 35.0241 99.0174 35.5614 99.3294 35.9601C99.6414 36.3414 100.101 36.5321 100.707 36.5321C101.643 36.5321 102.475 36.1334 103.203 35.3361Z" fill="#BFD730"/>
<path d="M110.725 27.6401L110.335 25.2221C111.583 24.8061 113.013 24.5981 114.625 24.5981C116.532 24.5981 117.884 25.0314 118.681 25.8981C119.478 26.7474 119.877 28.3074 119.877 30.5781V35.4661C119.877 36.1941 120.137 36.5581 120.657 36.5581C120.9 36.5581 121.177 36.4974 121.489 36.3761L121.723 38.5601C121.064 38.8374 120.328 38.9761 119.513 38.9761C118.265 38.9761 117.502 38.4474 117.225 37.3901C116.098 38.4474 114.79 38.9761 113.299 38.9761C111.964 38.9761 110.942 38.5687 110.231 37.7541C109.538 36.9394 109.191 35.8994 109.191 34.6341C109.191 31.4274 110.976 29.8241 114.547 29.8241C115.258 29.8241 115.994 29.9107 116.757 30.0841V29.4861C116.757 27.8741 115.847 27.0681 114.027 27.0681C113.039 27.0681 111.938 27.2587 110.725 27.6401ZM116.757 35.3361V32.1381C116.168 31.9301 115.613 31.8261 115.093 31.8261C113.308 31.8261 112.415 32.6667 112.415 34.3481C112.415 35.0241 112.571 35.5614 112.883 35.9601C113.195 36.3414 113.654 36.5321 114.261 36.5321C115.197 36.5321 116.029 36.1334 116.757 35.3361Z" fill="#BFD730"/>
<path d="M126.593 24.8581L126.697 26.2361C127.945 25.1441 129.314 24.5981 130.805 24.5981C133.041 24.5981 134.306 25.5601 134.601 27.4841C134.67 27.9174 134.705 28.4981 134.705 29.2261V38.7161H131.455V29.6421C131.455 29.1047 131.446 28.7494 131.429 28.5761C131.325 27.7267 130.753 27.3021 129.713 27.3021C128.812 27.3021 127.876 27.7354 126.905 28.6021V38.7161H123.629V24.8581H126.593Z" fill="#BFD730"/>
<path d="M143.26 38.7159H141.778L139.992 25.0549H141.36L142.785 36.6449L146.319 26.3659H147.307L150.746 36.6449L152.19 25.0549H153.539L151.753 38.7159H150.233L146.794 28.7409L143.26 38.7159Z" fill="#BFD730"/>
<path d="M156.313 28.6839H157.567V38.7159H156.313V28.6839ZM156.104 26.0999C156.104 25.8339 156.18 25.6313 156.332 25.4919C156.484 25.3399 156.68 25.2639 156.921 25.2639C157.478 25.2639 157.757 25.5489 157.757 26.1189C157.757 26.3976 157.681 26.6193 157.529 26.7839C157.377 26.9359 157.174 27.0119 156.921 27.0119C156.68 27.0119 156.484 26.9296 156.332 26.7649C156.18 26.6003 156.104 26.3786 156.104 26.0999Z" fill="#BFD730"/>
<path d="M159.966 37.8799L160.308 36.7019C160.587 36.9553 160.992 37.2086 161.524 37.4619C162.056 37.7153 162.563 37.8419 163.044 37.8419C163.665 37.8419 164.165 37.7026 164.545 37.4239C164.925 37.1453 165.115 36.7399 165.115 36.2079C165.115 35.7139 164.944 35.3213 164.602 35.0299C164.26 34.7386 163.842 34.5169 163.348 34.3649C162.854 34.2129 162.36 34.0483 161.866 33.8709C161.385 33.6936 160.973 33.3896 160.631 32.9589C160.289 32.5283 160.118 31.9646 160.118 31.2679C160.118 30.4066 160.429 29.7289 161.049 29.2349C161.67 28.7283 162.43 28.4749 163.329 28.4749C164.254 28.4749 164.976 28.7093 165.495 29.1779C166.027 29.6339 166.35 30.1723 166.464 30.7929L165.438 31.2109C165.286 30.6789 165.02 30.2799 164.64 30.0139C164.26 29.7353 163.817 29.5959 163.31 29.5959C162.778 29.5959 162.329 29.7289 161.961 29.9949C161.594 30.2609 161.41 30.6663 161.41 31.2109C161.41 31.7049 161.581 32.1039 161.923 32.4079C162.265 32.6993 162.677 32.9209 163.158 33.0729C163.652 33.2249 164.146 33.3896 164.64 33.5669C165.134 33.7316 165.552 34.0166 165.894 34.4219C166.236 34.8273 166.407 35.3529 166.407 35.9989C166.407 36.8603 166.11 37.5696 165.514 38.1269C164.932 38.6716 164.102 38.9439 163.025 38.9439C162.417 38.9439 161.816 38.8299 161.22 38.6019C160.638 38.3613 160.22 38.1206 159.966 37.8799Z" fill="#BFD730"/>
<path d="M169.139 29.9379L169.006 28.8169C169.829 28.5889 170.786 28.4749 171.875 28.4749C173.978 28.4749 175.029 29.5136 175.029 31.5909V36.9679C175.029 37.2719 175.08 37.4873 175.181 37.6139C175.295 37.7406 175.479 37.8039 175.732 37.8039C175.935 37.8039 176.207 37.7406 176.549 37.6139L176.663 38.6589C176.144 38.8236 175.726 38.9059 175.409 38.9059C174.966 38.9059 174.611 38.7919 174.345 38.5639C174.079 38.3233 173.927 38.0319 173.889 37.6899C172.977 38.5006 172.014 38.9059 171.001 38.9059C170.076 38.9059 169.373 38.6146 168.892 38.0319C168.411 37.4493 168.17 36.7083 168.17 35.8089C168.17 34.6309 168.506 33.7633 169.177 33.2059C169.861 32.6359 170.811 32.3509 172.027 32.3509C172.635 32.3509 173.217 32.4143 173.775 32.5409V31.8189C173.775 31.0336 173.604 30.4636 173.262 30.1089C172.92 29.7543 172.325 29.5769 171.476 29.5769C170.678 29.5769 169.899 29.6973 169.139 29.9379ZM173.775 36.6829L173.794 33.5289C173.236 33.3896 172.717 33.3199 172.236 33.3199C171.324 33.3199 170.64 33.5099 170.184 33.8899C169.741 34.2699 169.519 34.8969 169.519 35.7709C169.519 36.3536 169.665 36.8349 169.956 37.2149C170.26 37.5949 170.703 37.7849 171.286 37.7849C172.16 37.7849 172.99 37.4176 173.775 36.6829Z" fill="#BFD730"/>
<path d="M182.382 29.7099H179.76V35.9039C179.76 36.3473 179.773 36.6893 179.798 36.9299C179.836 37.1579 179.938 37.3669 180.102 37.5569C180.267 37.7469 180.514 37.8419 180.843 37.8419C181.211 37.8419 181.686 37.7026 182.268 37.4239L182.401 38.4879C181.793 38.7919 181.198 38.9439 180.615 38.9439C179.209 38.9439 178.506 38.1143 178.506 36.4549V29.7099H177.214V28.6839H178.506V27.0499L179.76 26.3279V28.6839H182.382V29.7099Z" fill="#BFD730"/>
<path d="M184.78 29.9379L184.647 28.8169C185.471 28.5889 186.427 28.4749 187.516 28.4749C189.619 28.4749 190.67 29.5136 190.67 31.5909V36.9679C190.67 37.2719 190.721 37.4873 190.822 37.6139C190.936 37.7406 191.12 37.8039 191.373 37.8039C191.576 37.8039 191.848 37.7406 192.19 37.6139L192.304 38.6589C191.785 38.8236 191.367 38.9059 191.05 38.9059C190.607 38.9059 190.252 38.7919 189.986 38.5639C189.72 38.3233 189.568 38.0319 189.53 37.6899C188.618 38.5006 187.656 38.9059 186.642 38.9059C185.718 38.9059 185.015 38.6146 184.533 38.0319C184.052 37.4493 183.811 36.7083 183.811 35.8089C183.811 34.6309 184.147 33.7633 184.818 33.2059C185.502 32.6359 186.452 32.3509 187.668 32.3509C188.276 32.3509 188.859 32.4143 189.416 32.5409V31.8189C189.416 31.0336 189.245 30.4636 188.903 30.1089C188.561 29.7543 187.966 29.5769 187.117 29.5769C186.319 29.5769 185.54 29.6973 184.78 29.9379ZM189.416 36.6829L189.435 33.5289C188.878 33.3896 188.359 33.3199 187.877 33.3199C186.965 33.3199 186.281 33.5099 185.825 33.8899C185.382 34.2699 185.16 34.8969 185.16 35.7709C185.16 36.3536 185.306 36.8349 185.597 37.2149C185.901 37.5949 186.345 37.7849 186.927 37.7849C187.801 37.7849 188.631 37.4176 189.416 36.6829Z" fill="#BFD730"/>
<path d="M202.965 32.2559L205.378 38.7159H203.953L201.692 32.6739H198.025V38.7159H196.733V25.0549H200.97C202.325 25.0549 203.383 25.3399 204.143 25.9099C204.916 26.4799 205.302 27.3539 205.302 28.5319C205.302 30.2546 204.523 31.4959 202.965 32.2559ZM198.025 31.4959H200.932C201.819 31.4959 202.541 31.2679 203.098 30.8119C203.668 30.3559 203.953 29.7036 203.953 28.8549C203.953 27.8923 203.7 27.2083 203.193 26.8029C202.699 26.3976 201.933 26.1949 200.894 26.1949H198.025V31.4959Z" fill="#BFD730"/>
<path d="M213.913 33.8329H208.118C208.118 36.4929 209.068 37.8229 210.968 37.8229C211.842 37.8229 212.735 37.5823 213.647 37.1009L213.761 38.2409C212.913 38.7096 211.931 38.9439 210.816 38.9439C208.144 38.9439 206.807 37.1643 206.807 33.6049C206.807 31.8443 207.143 30.5523 207.814 29.7289C208.486 28.8929 209.41 28.4749 210.588 28.4749C211.741 28.4749 212.583 28.8739 213.115 29.6719C213.647 30.4573 213.913 31.6226 213.913 33.1679V33.8329ZM212.602 32.8259C212.602 31.7619 212.419 30.9576 212.051 30.4129C211.697 29.8556 211.184 29.5769 210.512 29.5769C209.74 29.5769 209.151 29.9063 208.745 30.5649C208.34 31.2109 208.137 31.9646 208.137 32.8259H212.602Z" fill="#BFD730"/>
<path d="M216.374 36.3219V25.0549H217.647V36.1319C217.647 36.7273 217.729 37.1579 217.894 37.4239C218.059 37.6773 218.356 37.8039 218.787 37.8039C219.23 37.8039 219.743 37.6709 220.326 37.4049L220.478 38.4689C219.921 38.7603 219.281 38.9059 218.559 38.9059C217.736 38.9059 217.166 38.6906 216.849 38.2599C216.532 37.8166 216.374 37.1706 216.374 36.3219Z" fill="#BFD730"/>
<path d="M222.388 28.6839H223.642V38.7159H222.388V28.6839ZM222.179 26.0999C222.179 25.8339 222.255 25.6313 222.407 25.4919C222.559 25.3399 222.756 25.2639 222.996 25.2639C223.554 25.2639 223.832 25.5489 223.832 26.1189C223.832 26.3976 223.756 26.6193 223.604 26.7839C223.452 26.9359 223.25 27.0119 222.996 27.0119C222.756 27.0119 222.559 26.9296 222.407 26.7649C222.255 26.6003 222.179 26.3786 222.179 26.0999Z" fill="#BFD730"/>
<path d="M230.013 28.4749C230.735 28.4749 231.526 28.7663 232.388 29.3489V28.6839H233.661V38.4309C233.661 38.9756 233.635 39.4506 233.585 39.8559C233.534 40.2739 233.426 40.6793 233.262 41.0719C233.11 41.4646 232.901 41.7876 232.635 42.0409C232.369 42.2943 232.014 42.4969 231.571 42.6489C231.127 42.8009 230.602 42.8769 229.994 42.8769C228.79 42.8769 227.739 42.6173 226.84 42.0979L227.068 40.9009C227.422 41.1163 227.885 41.3126 228.455 41.4899C229.037 41.6799 229.595 41.7749 230.127 41.7749C230.621 41.7749 231.026 41.6799 231.343 41.4899C231.672 41.3126 231.913 41.0466 232.065 40.6919C232.217 40.3373 232.318 39.9699 232.369 39.5899C232.432 39.2226 232.464 38.7793 232.464 38.2599V37.6709C231.615 38.4943 230.716 38.9059 229.766 38.9059C228.714 38.9059 227.878 38.4816 227.258 37.6329C226.637 36.7843 226.327 35.5239 226.327 33.8519C226.327 33.1806 226.39 32.5473 226.517 31.9519C226.656 31.3439 226.859 30.7739 227.125 30.2419C227.403 29.6973 227.79 29.2666 228.284 28.9499C228.778 28.6333 229.354 28.4749 230.013 28.4749ZM227.657 33.9279C227.657 35.1566 227.872 36.1066 228.303 36.7779C228.733 37.4493 229.297 37.7849 229.994 37.7849C230.868 37.7849 231.672 37.3543 232.407 36.4929V30.6029C231.558 29.9443 230.798 29.6149 230.127 29.6149C228.48 29.6149 227.657 31.0526 227.657 33.9279Z" fill="#BFD730"/>
<path d="M236.935 28.6839H238.189V38.7159H236.935V28.6839ZM236.726 26.0999C236.726 25.8339 236.802 25.6313 236.954 25.4919C237.106 25.3399 237.303 25.2639 237.543 25.2639C238.101 25.2639 238.379 25.5489 238.379 26.1189C238.379 26.3976 238.303 26.6193 238.151 26.7839C237.999 26.9359 237.797 27.0119 237.543 27.0119C237.303 27.0119 237.106 26.9296 236.954 26.7649C236.802 26.6003 236.726 26.3786 236.726 26.0999Z" fill="#BFD730"/>
</svg>
