<svg width="240" height="48" viewBox="0 0 240 48" fill="none" xmlns="http://www.w3.org/2000/svg">
<path d="M3.16004 10.7153V14.4113H1.36804V4.34533H4.89604C5.96004 4.34533 6.78604 4.59266 7.37404 5.08733C7.96204 5.582 8.25604 6.30066 8.25604 7.24333C8.25604 8.298 7.93404 9.14266 7.29004 9.77733C6.65538 10.4027 5.79671 10.7153 4.71404 10.7153H3.16004ZM3.16004 9.32933H4.51804C5.14338 9.32933 5.61471 9.166 5.93204 8.83933C6.25871 8.50333 6.42204 8.018 6.42204 7.38333C6.42204 6.27266 5.83404 5.71733 4.65804 5.71733H3.16004V9.32933Z" fill="white"/>
<path d="M14.4758 10.9813H10.4858C10.4951 11.6813 10.6538 12.218 10.9618 12.5913C11.2698 12.9553 11.6944 13.1373 12.2358 13.1373C12.8984 13.1373 13.5658 12.9507 14.2378 12.5773L14.3358 14.0473C13.7011 14.3927 12.9404 14.5653 12.0538 14.5653C9.82309 14.5653 8.70776 13.2447 8.70776 10.6033C8.70776 9.31533 8.98309 8.36333 9.53376 7.74733C10.0938 7.122 10.8264 6.80933 11.7318 6.80933C13.5611 6.80933 14.4758 7.976 14.4758 10.3093V10.9813ZM12.8238 9.88933C12.8238 8.69466 12.4504 8.09733 11.7038 8.09733C11.3024 8.09733 10.9991 8.26533 10.7938 8.60133C10.5978 8.93733 10.4998 9.36666 10.4998 9.88933H12.8238Z" fill="white"/>
<path d="M19.9394 7.42533L20.0094 6.94933H21.5774V14.2993C21.5774 16.4647 20.5787 17.5473 18.5814 17.5473C17.5827 17.5473 16.71 17.3653 15.9634 17.0013L16.2294 15.4753C16.5187 15.6527 16.8687 15.7973 17.2794 15.9093C17.6994 16.0307 18.0867 16.0913 18.4414 16.0913C19.4027 16.0913 19.8834 15.466 19.8834 14.2153V13.7673C19.426 14.262 18.838 14.5093 18.1194 14.5093C17.3074 14.5093 16.6587 14.1967 16.1734 13.5713C15.6974 12.9367 15.4594 11.994 15.4594 10.7433C15.4594 10.0527 15.548 9.42266 15.7254 8.85333C15.912 8.284 16.22 7.80333 16.6494 7.41133C17.088 7.01 17.62 6.80933 18.2454 6.80933C18.8707 6.80933 19.4354 7.01466 19.9394 7.42533ZM19.8274 12.5493V8.64333C19.3887 8.326 18.9967 8.16733 18.6514 8.16733C17.7367 8.16733 17.2794 9.03533 17.2794 10.7713C17.2794 12.3393 17.7227 13.1233 18.6094 13.1233C19.0387 13.1233 19.4447 12.932 19.8274 12.5493Z" fill="white"/>
<path d="M23.7319 8.44733L23.5219 7.14533C24.1939 6.92133 24.9639 6.80933 25.8319 6.80933C26.8586 6.80933 27.5866 7.04266 28.0159 7.50933C28.4453 7.96666 28.6599 8.80666 28.6599 10.0293V12.6613C28.6599 13.0533 28.7999 13.2493 29.0799 13.2493C29.2106 13.2493 29.3599 13.2167 29.5279 13.1513L29.6539 14.3273C29.2993 14.4767 28.9026 14.5513 28.4639 14.5513C27.7919 14.5513 27.3813 14.2667 27.2319 13.6973C26.6253 14.2667 25.9206 14.5513 25.1179 14.5513C24.3993 14.5513 23.8486 14.332 23.4659 13.8933C23.0926 13.4547 22.9059 12.8947 22.9059 12.2133C22.9059 10.4867 23.8673 9.62333 25.7899 9.62333C26.1726 9.62333 26.5693 9.67 26.9799 9.76333V9.44133C26.9799 8.57333 26.4899 8.13933 25.5099 8.13933C24.9779 8.13933 24.3853 8.242 23.7319 8.44733ZM26.9799 12.5913V10.8693C26.6626 10.7573 26.3639 10.7013 26.0839 10.7013C25.1226 10.7013 24.6419 11.154 24.6419 12.0593C24.6419 12.4233 24.7259 12.7127 24.8939 12.9273C25.0619 13.1327 25.3093 13.2353 25.6359 13.2353C26.1399 13.2353 26.5879 13.0207 26.9799 12.5913Z" fill="white"/>
<path d="M34.5474 7.28533V4.34533H36.2974V14.4113H34.7294L34.6734 13.7533C34.1601 14.2853 33.5487 14.5513 32.8394 14.5513C32.0274 14.5513 31.3787 14.2293 30.8934 13.5853C30.4174 12.9413 30.1794 11.994 30.1794 10.7433C30.1794 10.0527 30.2727 9.42266 30.4594 8.85333C30.6461 8.27466 30.9587 7.78933 31.3974 7.39733C31.8361 7.00533 32.3774 6.80933 33.0214 6.80933C33.5814 6.80933 34.0901 6.968 34.5474 7.28533ZM34.5614 12.6053V8.61533C34.1227 8.298 33.7354 8.13933 33.3994 8.13933C32.4661 8.13933 31.9994 9.01666 31.9994 10.7713C31.9994 11.5553 32.1161 12.1527 32.3494 12.5633C32.5827 12.974 32.9141 13.1793 33.3434 13.1793C33.7727 13.1793 34.1787 12.988 34.5614 12.6053Z" fill="white"/>
<path d="M38.452 8.44733L38.242 7.14533C38.914 6.92133 39.684 6.80933 40.552 6.80933C41.5786 6.80933 42.3066 7.04266 42.736 7.50933C43.1653 7.96666 43.38 8.80666 43.38 10.0293V12.6613C43.38 13.0533 43.52 13.2493 43.8 13.2493C43.9306 13.2493 44.08 13.2167 44.248 13.1513L44.374 14.3273C44.0193 14.4767 43.6226 14.5513 43.184 14.5513C42.512 14.5513 42.1013 14.2667 41.952 13.6973C41.3453 14.2667 40.6406 14.5513 39.838 14.5513C39.1193 14.5513 38.5686 14.332 38.186 13.8933C37.8126 13.4547 37.626 12.8947 37.626 12.2133C37.626 10.4867 38.5873 9.62333 40.51 9.62333C40.8926 9.62333 41.2893 9.67 41.7 9.76333V9.44133C41.7 8.57333 41.21 8.13933 40.23 8.13933C39.698 8.13933 39.1053 8.242 38.452 8.44733ZM41.7 12.5913V10.8693C41.3826 10.7573 41.084 10.7013 40.804 10.7013C39.8426 10.7013 39.362 11.154 39.362 12.0593C39.362 12.4233 39.446 12.7127 39.614 12.9273C39.782 13.1327 40.0293 13.2353 40.356 13.2353C40.86 13.2353 41.308 13.0207 41.7 12.5913Z" fill="white"/>
<path d="M45.4141 6.94933H47.1641V14.4113H45.4141V6.94933ZM45.2741 5.00333C45.2741 4.686 45.3675 4.43866 45.5541 4.26133C45.7408 4.084 45.9835 3.99533 46.2821 3.99533C46.6088 3.99533 46.8608 4.084 47.0381 4.26133C47.2155 4.42933 47.3041 4.67666 47.3041 5.00333C47.3041 5.33 47.2061 5.582 47.0101 5.75933C46.8235 5.92733 46.5808 6.01133 46.2821 6.01133C45.9741 6.01133 45.7268 5.92266 45.5401 5.74533C45.3628 5.55866 45.2741 5.31133 45.2741 5.00333Z" fill="white"/>
<path d="M49.3165 8.44733L49.1065 7.14533C49.7785 6.92133 50.5485 6.80933 51.4165 6.80933C52.4432 6.80933 53.1712 7.04266 53.6005 7.50933C54.0298 7.96666 54.2445 8.80666 54.2445 10.0293V12.6613C54.2445 13.0533 54.3845 13.2493 54.6645 13.2493C54.7952 13.2493 54.9445 13.2167 55.1125 13.1513L55.2385 14.3273C54.8838 14.4767 54.4872 14.5513 54.0485 14.5513C53.3765 14.5513 52.9658 14.2667 52.8165 13.6973C52.2098 14.2667 51.5052 14.5513 50.7025 14.5513C49.9838 14.5513 49.4332 14.332 49.0505 13.8933C48.6772 13.4547 48.4905 12.8947 48.4905 12.2133C48.4905 10.4867 49.4518 9.62333 51.3745 9.62333C51.7572 9.62333 52.1538 9.67 52.5645 9.76333V9.44133C52.5645 8.57333 52.0745 8.13933 51.0945 8.13933C50.5625 8.13933 49.9698 8.242 49.3165 8.44733ZM52.5645 12.5913V10.8693C52.2472 10.7573 51.9485 10.7013 51.6685 10.7013C50.7072 10.7013 50.2265 11.154 50.2265 12.0593C50.2265 12.4233 50.3105 12.7127 50.4785 12.9273C50.6465 13.1327 50.8938 13.2353 51.2205 13.2353C51.7245 13.2353 52.1725 13.0207 52.5645 12.5913Z" fill="white"/>
<path d="M57.8747 6.94933L57.9307 7.69133C58.6027 7.10333 59.34 6.80933 60.1427 6.80933C61.3467 6.80933 62.028 7.32733 62.1867 8.36333C62.224 8.59666 62.2427 8.90933 62.2427 9.30133V14.4113H60.4927V9.52533C60.4927 9.236 60.488 9.04466 60.4787 8.95133C60.4227 8.494 60.1147 8.26533 59.5547 8.26533C59.0693 8.26533 58.5653 8.49866 58.0427 8.96533V14.4113H56.2787V6.94933H57.8747Z" fill="white"/>
<path d="M1 37.4113L2.092 34.4993C3.73867 35.6433 5.32467 36.2153 6.85 36.2153C7.734 36.2153 8.44467 36.016 8.982 35.6173C9.53667 35.2013 9.814 34.56 9.814 33.6933C9.814 32.7573 9.51933 32.064 8.93 31.6133C8.358 31.1627 7.422 30.7553 6.122 30.3913C5.56733 30.2353 5.09933 30.0967 4.718 29.9753C4.354 29.8367 3.92933 29.6287 3.444 29.3513C2.976 29.0567 2.59467 28.736 2.3 28.3893C2.02267 28.0427 1.78 27.5833 1.572 27.0113C1.364 26.4393 1.26 25.798 1.26 25.0873C1.26 23.458 1.82333 22.1407 2.95 21.1353C4.094 20.13 5.55867 19.6273 7.344 19.6273C9.164 19.6273 10.542 20.0607 11.478 20.9273C12.4313 21.794 13.0553 22.8513 13.35 24.0993L10.334 24.9833C9.84867 23.25 8.826 22.3833 7.266 22.3833C6.52067 22.3833 5.90533 22.5827 5.42 22.9813C4.93467 23.38 4.692 23.9693 4.692 24.7493C4.692 25.5813 4.96067 26.188 5.498 26.5693C6.05267 26.9507 6.93667 27.3233 8.15 27.6873C9.77933 28.1727 11.0273 28.8313 11.894 29.6633C12.778 30.4953 13.22 31.7 13.22 33.2773C13.22 35.08 12.6307 36.5013 11.452 37.5413C10.2907 38.564 8.748 39.0753 6.824 39.0753C4.51867 39.0753 2.57733 38.5207 1 37.4113Z" fill="#00AB4E"/>
<path d="M16.471 27.6353L16.081 25.2173C17.329 24.8013 18.759 24.5933 20.371 24.5933C22.2777 24.5933 23.6297 25.0267 24.427 25.8933C25.2243 26.7427 25.623 28.3027 25.623 30.5733V35.4613C25.623 36.1893 25.883 36.5533 26.403 36.5533C26.6457 36.5533 26.923 36.4927 27.235 36.3713L27.469 38.5553C26.8103 38.8327 26.0737 38.9713 25.259 38.9713C24.011 38.9713 23.2484 38.4427 22.971 37.3853C21.8443 38.4427 20.5357 38.9713 19.045 38.9713C17.7103 38.9713 16.6877 38.564 15.977 37.7493C15.2837 36.9347 14.937 35.8947 14.937 34.6293C14.937 31.4227 16.7223 29.8193 20.293 29.8193C21.0037 29.8193 21.7403 29.906 22.503 30.0793V29.4813C22.503 27.8693 21.593 27.0633 19.773 27.0633C18.785 27.0633 17.6843 27.254 16.471 27.6353ZM22.503 35.3313V32.1333C21.9137 31.9253 21.359 31.8213 20.839 31.8213C19.0537 31.8213 18.161 32.662 18.161 34.3433C18.161 35.0193 18.317 35.5567 18.629 35.9553C18.941 36.3367 19.4003 36.5273 20.007 36.5273C20.943 36.5273 21.775 36.1287 22.503 35.3313Z" fill="#00AB4E"/>
<path d="M36.2907 27.1933H32.9367V38.7113H29.7127V27.1933H27.6847V24.8533H29.7127C29.7127 24.2467 29.7647 23.666 29.8687 23.1113C30.3194 20.8233 31.8621 19.6793 34.4967 19.6793C35.6407 19.6793 36.6287 19.8267 37.4607 20.1213L37.2527 22.4873C36.4381 22.2447 35.6581 22.1233 34.9127 22.1233C34.2194 22.1233 33.7167 22.3053 33.4047 22.6693C33.0927 23.016 32.9367 23.5707 32.9367 24.3333V24.8533H36.2907V27.1933Z" fill="#00AB4E"/>
<path d="M47.6318 32.3413H40.2218C40.2391 33.6413 40.5338 34.638 41.1058 35.3313C41.6778 36.0073 42.4665 36.3453 43.4718 36.3453C44.7025 36.3453 45.9418 35.9987 47.1898 35.3053L47.3718 38.0353C46.1931 38.6767 44.7805 38.9973 43.1338 38.9973C38.9911 38.9973 36.9198 36.5447 36.9198 31.6393C36.9198 29.2473 37.4311 27.4793 38.4538 26.3353C39.4938 25.174 40.8545 24.5933 42.5358 24.5933C45.9331 24.5933 47.6318 26.76 47.6318 31.0933V32.3413ZM44.5638 30.3133C44.5638 28.0947 43.8705 26.9853 42.4838 26.9853C41.7385 26.9853 41.1751 27.2973 40.7938 27.9213C40.4298 28.5453 40.2478 29.3427 40.2478 30.3133H44.5638Z" fill="#00AB4E"/>
<path d="M53.101 38.7113V25.0503H57.091C58.687 25.0503 59.922 25.519 60.796 26.4563C61.67 27.3936 62.107 28.9896 62.107 31.2443C62.107 32.701 61.9613 33.936 61.67 34.9493C61.3913 35.95 60.986 36.7163 60.454 37.2483C59.9346 37.7803 59.3646 38.1603 58.744 38.3883C58.136 38.6036 57.4393 38.7113 56.654 38.7113H53.101ZM54.412 26.1903V37.5333H56.844C58.1613 37.5206 59.1366 37.0456 59.77 36.1083C60.416 35.171 60.739 33.6573 60.739 31.5673C60.739 29.6673 60.435 28.2993 59.827 27.4633C59.2316 26.6146 58.326 26.1903 57.11 26.1903H54.412Z" fill="#00AB4E"/>
<path d="M71.3016 33.8283H65.5066C65.5066 36.4883 66.4566 37.8183 68.3566 37.8183C69.2306 37.8183 70.1236 37.5776 71.0356 37.0963L71.1496 38.2363C70.3009 38.705 69.3193 38.9393 68.2046 38.9393C65.5319 38.9393 64.1956 37.1596 64.1956 33.6003C64.1956 31.8396 64.5313 30.5476 65.2026 29.7243C65.8739 28.8883 66.7986 28.4703 67.9766 28.4703C69.1293 28.4703 69.9716 28.8693 70.5036 29.6673C71.0356 30.4526 71.3016 31.618 71.3016 33.1633V33.8283ZM69.9906 32.8213C69.9906 31.7573 69.8069 30.953 69.4396 30.4083C69.085 29.851 68.5719 29.5723 67.9006 29.5723C67.1279 29.5723 66.5389 29.9016 66.1336 30.5603C65.7283 31.2063 65.5256 31.96 65.5256 32.8213H69.9906Z" fill="#00AB4E"/>
<path d="M73.8764 28.6793H75.1304V29.7623C76.3591 28.901 77.3661 28.4703 78.1514 28.4703C79.0887 28.4703 79.8234 28.844 80.3554 29.5913C80.9001 30.326 81.1724 31.4216 81.1724 32.8783C81.1724 36.8936 79.8867 38.9013 77.3154 38.9013C76.5301 38.9013 75.8081 38.6923 75.1494 38.2743V42.6823H73.8764V28.6793ZM75.1304 30.8263V36.9823C75.8144 37.5143 76.5807 37.7803 77.4294 37.7803C78.0121 37.7803 78.4871 37.546 78.8544 37.0773C79.2217 36.6086 79.4687 36.064 79.5954 35.4433C79.7221 34.8226 79.7854 34.1323 79.7854 33.3723C79.7854 31.979 79.6144 31.0163 79.2724 30.4843C78.9431 29.9396 78.4617 29.6673 77.8284 29.6673C77.1317 29.6673 76.2324 30.0536 75.1304 30.8263Z" fill="#00AB4E"/>
<path d="M87.0128 38.9393C86.3035 38.9393 85.6892 38.7873 85.1698 38.4833C84.6632 38.1793 84.2768 37.7613 84.0108 37.2293C83.7448 36.6973 83.5548 36.1526 83.4408 35.5953C83.3268 35.0253 83.2698 34.411 83.2698 33.7523C83.2698 32.207 83.5992 30.9403 84.2578 29.9523C84.9292 28.9643 85.9235 28.4703 87.2408 28.4703C89.6982 28.4703 90.9268 30.1676 90.9268 33.5623C90.9268 34.2463 90.8572 34.8923 90.7178 35.5003C90.5785 36.1083 90.3632 36.6783 90.0718 37.2103C89.7805 37.7423 89.3688 38.1666 88.8368 38.4833C88.3175 38.7873 87.7095 38.9393 87.0128 38.9393ZM87.0508 37.8373C87.5575 37.8373 87.9882 37.7106 88.3428 37.4573C88.6975 37.204 88.9572 36.862 89.1218 36.4313C89.2992 36.0006 89.4258 35.5573 89.5018 35.1013C89.5778 34.6453 89.6158 34.1576 89.6158 33.6383C89.6158 30.9403 88.8052 29.5913 87.1838 29.5913C86.6645 29.5913 86.2212 29.737 85.8538 30.0283C85.4992 30.307 85.2332 30.6806 85.0558 31.1493C84.8785 31.6053 84.7518 32.0486 84.6758 32.4793C84.6125 32.91 84.5808 33.347 84.5808 33.7903C84.5808 34.525 84.6442 35.1773 84.7708 35.7473C84.9102 36.3173 85.1698 36.8113 85.5498 37.2293C85.9425 37.6346 86.4428 37.8373 87.0508 37.8373Z" fill="#00AB4E"/>
<path d="M92.726 37.8753L93.068 36.6973C93.3467 36.9506 93.752 37.204 94.284 37.4573C94.816 37.7106 95.3227 37.8373 95.804 37.8373C96.4247 37.8373 96.925 37.698 97.305 37.4193C97.685 37.1406 97.875 36.7353 97.875 36.2033C97.875 35.7093 97.704 35.3166 97.362 35.0253C97.02 34.734 96.602 34.5123 96.108 34.3603C95.614 34.2083 95.12 34.0436 94.626 33.8663C94.1447 33.689 93.733 33.385 93.391 32.9543C93.049 32.5236 92.878 31.96 92.878 31.2633C92.878 30.402 93.1884 29.7243 93.809 29.2303C94.4297 28.7236 95.1897 28.4703 96.089 28.4703C97.0137 28.4703 97.7357 28.7046 98.255 29.1733C98.787 29.6293 99.11 30.1676 99.224 30.7883L98.198 31.2063C98.046 30.6743 97.78 30.2753 97.4 30.0093C97.02 29.7306 96.5767 29.5913 96.07 29.5913C95.538 29.5913 95.0884 29.7243 94.721 29.9903C94.3537 30.2563 94.17 30.6616 94.17 31.2063C94.17 31.7003 94.341 32.0993 94.683 32.4033C95.025 32.6946 95.4367 32.9163 95.918 33.0683C96.412 33.2203 96.906 33.385 97.4 33.5623C97.894 33.727 98.312 34.012 98.654 34.4173C98.996 34.8226 99.167 35.3483 99.167 35.9943C99.167 36.8556 98.8694 37.565 98.274 38.1223C97.6914 38.667 96.8617 38.9393 95.785 38.9393C95.177 38.9393 94.5754 38.8253 93.98 38.5973C93.3974 38.3566 92.9794 38.116 92.726 37.8753Z" fill="#00AB4E"/>
<path d="M101.708 28.6793H102.962V38.7113H101.708V28.6793ZM101.499 26.0953C101.499 25.8293 101.575 25.6266 101.727 25.4873C101.879 25.3353 102.076 25.2593 102.316 25.2593C102.874 25.2593 103.152 25.5443 103.152 26.1143C103.152 26.393 103.076 26.6146 102.924 26.7793C102.772 26.9313 102.57 27.0073 102.316 27.0073C102.076 27.0073 101.879 26.925 101.727 26.7603C101.575 26.5956 101.499 26.374 101.499 26.0953Z" fill="#00AB4E"/>
<path d="M110.188 29.7053H107.566V35.8993C107.566 36.3426 107.578 36.6846 107.604 36.9253C107.642 37.1533 107.743 37.3623 107.908 37.5523C108.072 37.7423 108.319 37.8373 108.649 37.8373C109.016 37.8373 109.491 37.698 110.074 37.4193L110.207 38.4833C109.599 38.7873 109.003 38.9393 108.421 38.9393C107.015 38.9393 106.312 38.1096 106.312 36.4503V29.7053H105.02V28.6793H106.312V27.0453L107.566 26.3233V28.6793H110.188V29.7053Z" fill="#00AB4E"/>
<path d="M119.148 38.7113H115.101V25.0503H119.053C120.37 25.0503 121.39 25.3163 122.112 25.8483C122.847 26.3803 123.214 27.1593 123.214 28.1853C123.214 28.9833 123.011 29.68 122.606 30.2753C122.201 30.8706 121.7 31.2886 121.105 31.5293C121.941 31.7066 122.587 32.0803 123.043 32.6503C123.512 33.2203 123.746 33.898 123.746 34.6833C123.746 35.9626 123.334 36.957 122.511 37.6663C121.7 38.363 120.579 38.7113 119.148 38.7113ZM119.414 32.1753H116.374V37.5523H119.338C120.364 37.5523 121.124 37.2926 121.618 36.7733C122.112 36.254 122.359 35.5763 122.359 34.7403C122.359 33.9676 122.106 33.347 121.599 32.8783C121.105 32.4096 120.377 32.1753 119.414 32.1753ZM118.825 26.2093H116.374V31.0733H118.901C119.851 31.0733 120.579 30.8263 121.086 30.3323C121.593 29.8256 121.846 29.1923 121.846 28.4323C121.846 27.647 121.605 27.0833 121.124 26.7413C120.643 26.3866 119.876 26.2093 118.825 26.2093Z" fill="#00AB4E"/>
<path d="M129.382 38.9393C128.673 38.9393 128.058 38.7873 127.539 38.4833C127.032 38.1793 126.646 37.7613 126.38 37.2293C126.114 36.6973 125.924 36.1526 125.81 35.5953C125.696 35.0253 125.639 34.411 125.639 33.7523C125.639 32.207 125.968 30.9403 126.627 29.9523C127.298 28.9643 128.293 28.4703 129.61 28.4703C132.067 28.4703 133.296 30.1676 133.296 33.5623C133.296 34.2463 133.226 34.8923 133.087 35.5003C132.948 36.1083 132.732 36.6783 132.441 37.2103C132.15 37.7423 131.738 38.1666 131.206 38.4833C130.687 38.7873 130.079 38.9393 129.382 38.9393ZM129.42 37.8373C129.927 37.8373 130.357 37.7106 130.712 37.4573C131.067 37.204 131.326 36.862 131.491 36.4313C131.668 36.0006 131.795 35.5573 131.871 35.1013C131.947 34.6453 131.985 34.1576 131.985 33.6383C131.985 30.9403 131.174 29.5913 129.553 29.5913C129.034 29.5913 128.59 29.737 128.223 30.0283C127.868 30.307 127.602 30.6806 127.425 31.1493C127.248 31.6053 127.121 32.0486 127.045 32.4793C126.982 32.91 126.95 33.347 126.95 33.7903C126.95 34.525 127.013 35.1773 127.14 35.7473C127.279 36.3173 127.539 36.8113 127.919 37.2293C128.312 37.6346 128.812 37.8373 129.42 37.8373Z" fill="#00AB4E"/>
<path d="M141.949 28.8123L138.738 33.7713L141.93 38.7113H140.467L137.978 34.8163L135.47 38.7113H133.95L137.275 33.7523L134.102 28.8123L135.565 28.6793L138.035 32.7453L140.581 28.6793L141.949 28.8123Z" fill="#00AB4E"/>
</svg>
