<svg width="240" height="48" viewBox="0 0 240 48" fill="none" xmlns="http://www.w3.org/2000/svg">
<path d="M2.792 10.72V14.416H1V4.35H4.528C5.592 4.35 6.418 4.59733 7.006 5.092C7.594 5.58667 7.888 6.30533 7.888 7.248C7.888 8.30267 7.566 9.14733 6.922 9.782C6.28733 10.4073 5.42867 10.72 4.346 10.72H2.792ZM2.792 9.334H4.15C4.77533 9.334 5.24667 9.17067 5.564 8.844C5.89067 8.508 6.054 8.02267 6.054 7.388C6.054 6.27733 5.466 5.722 4.29 5.722H2.792V9.334Z" fill="#004D43"/>
<path d="M14.1077 10.986H10.1177C10.1271 11.686 10.2857 12.2227 10.5937 12.596C10.9017 12.96 11.3264 13.142 11.8677 13.142C12.5304 13.142 13.1977 12.9553 13.8697 12.582L13.9677 14.052C13.3331 14.3973 12.5724 14.57 11.6857 14.57C9.45505 14.57 8.33972 13.2493 8.33972 10.608C8.33972 9.32 8.61505 8.368 9.16572 7.752C9.72572 7.12667 10.4584 6.814 11.3637 6.814C13.1931 6.814 14.1077 7.98067 14.1077 10.314V10.986ZM12.4557 9.894C12.4557 8.69933 12.0824 8.102 11.3357 8.102C10.9344 8.102 10.6311 8.27 10.4257 8.606C10.2297 8.942 10.1317 9.37133 10.1317 9.894H12.4557Z" fill="#004D43"/>
<path d="M19.5713 7.43L19.6413 6.954H21.2093V14.304C21.2093 16.4693 20.2107 17.552 18.2133 17.552C17.2147 17.552 16.342 17.37 15.5953 17.006L15.8613 15.48C16.1507 15.6573 16.5007 15.802 16.9113 15.914C17.3313 16.0353 17.7187 16.096 18.0733 16.096C19.0347 16.096 19.5153 15.4707 19.5153 14.22V13.772C19.058 14.2667 18.47 14.514 17.7513 14.514C16.9393 14.514 16.2907 14.2013 15.8053 13.576C15.3293 12.9413 15.0913 11.9987 15.0913 10.748C15.0913 10.0573 15.18 9.42733 15.3573 8.858C15.544 8.28867 15.852 7.808 16.2813 7.416C16.72 7.01467 17.252 6.814 17.8773 6.814C18.5027 6.814 19.0673 7.01933 19.5713 7.43ZM19.4593 12.554V8.648C19.0207 8.33067 18.6287 8.172 18.2833 8.172C17.3687 8.172 16.9113 9.04 16.9113 10.776C16.9113 12.344 17.3547 13.128 18.2413 13.128C18.6707 13.128 19.0767 12.9367 19.4593 12.554Z" fill="#004D43"/>
<path d="M23.3639 8.452L23.1539 7.15C23.8259 6.926 24.5959 6.814 25.4639 6.814C26.4906 6.814 27.2186 7.04733 27.6479 7.514C28.0772 7.97133 28.2919 8.81133 28.2919 10.034V12.666C28.2919 13.058 28.4319 13.254 28.7119 13.254C28.8426 13.254 28.9919 13.2213 29.1599 13.156L29.2859 14.332C28.9312 14.4813 28.5346 14.556 28.0959 14.556C27.4239 14.556 27.0132 14.2713 26.8639 13.702C26.2572 14.2713 25.5526 14.556 24.7499 14.556C24.0312 14.556 23.4806 14.3367 23.0979 13.898C22.7246 13.4593 22.5379 12.8993 22.5379 12.218C22.5379 10.4913 23.4992 9.628 25.4219 9.628C25.8046 9.628 26.2012 9.67467 26.6119 9.768V9.446C26.6119 8.578 26.1219 8.144 25.1419 8.144C24.6099 8.144 24.0172 8.24667 23.3639 8.452ZM26.6119 12.596V10.874C26.2946 10.762 25.9959 10.706 25.7159 10.706C24.7546 10.706 24.2739 11.1587 24.2739 12.064C24.2739 12.428 24.3579 12.7173 24.5259 12.932C24.6939 13.1373 24.9412 13.24 25.2679 13.24C25.7719 13.24 26.2199 13.0253 26.6119 12.596Z" fill="#004D43"/>
<path d="M34.1793 7.29V4.35H35.9293V14.416H34.3613L34.3053 13.758C33.792 14.29 33.1807 14.556 32.4713 14.556C31.6593 14.556 31.0107 14.234 30.5253 13.59C30.0493 12.946 29.8113 11.9987 29.8113 10.748C29.8113 10.0573 29.9047 9.42733 30.0913 8.858C30.278 8.27933 30.5907 7.794 31.0293 7.402C31.468 7.01 32.0093 6.814 32.6533 6.814C33.2133 6.814 33.722 6.97267 34.1793 7.29ZM34.1933 12.61V8.62C33.7547 8.30267 33.3673 8.144 33.0313 8.144C32.098 8.144 31.6313 9.02133 31.6313 10.776C31.6313 11.56 31.748 12.1573 31.9813 12.568C32.2147 12.9787 32.546 13.184 32.9753 13.184C33.4047 13.184 33.8107 12.9927 34.1933 12.61Z" fill="#004D43"/>
<path d="M38.0839 8.452L37.8739 7.15C38.5459 6.926 39.3159 6.814 40.1839 6.814C41.2106 6.814 41.9386 7.04733 42.3679 7.514C42.7973 7.97133 43.0119 8.81133 43.0119 10.034V12.666C43.0119 13.058 43.1519 13.254 43.4319 13.254C43.5626 13.254 43.7119 13.2213 43.8799 13.156L44.0059 14.332C43.6513 14.4813 43.2546 14.556 42.8159 14.556C42.1439 14.556 41.7333 14.2713 41.5839 13.702C40.9773 14.2713 40.2726 14.556 39.4699 14.556C38.7513 14.556 38.2006 14.3367 37.8179 13.898C37.4446 13.4593 37.2579 12.8993 37.2579 12.218C37.2579 10.4913 38.2193 9.628 40.1419 9.628C40.5246 9.628 40.9213 9.67467 41.3319 9.768V9.446C41.3319 8.578 40.8419 8.144 39.8619 8.144C39.3299 8.144 38.7373 8.24667 38.0839 8.452ZM41.3319 12.596V10.874C41.0146 10.762 40.7159 10.706 40.4359 10.706C39.4746 10.706 38.9939 11.1587 38.9939 12.064C38.9939 12.428 39.0779 12.7173 39.2459 12.932C39.4139 13.1373 39.6613 13.24 39.9879 13.24C40.4919 13.24 40.9399 13.0253 41.3319 12.596Z" fill="#004D43"/>
<path d="M45.0461 6.954H46.7961V14.416H45.0461V6.954ZM44.9061 5.008C44.9061 4.69067 44.9994 4.44333 45.1861 4.266C45.3727 4.08867 45.6154 4 45.9141 4C46.2407 4 46.4927 4.08867 46.6701 4.266C46.8474 4.434 46.9361 4.68133 46.9361 5.008C46.9361 5.33467 46.8381 5.58667 46.6421 5.764C46.4554 5.932 46.2127 6.016 45.9141 6.016C45.6061 6.016 45.3587 5.92733 45.1721 5.75C44.9947 5.56333 44.9061 5.316 44.9061 5.008Z" fill="#004D43"/>
<path d="M48.9485 8.452L48.7385 7.15C49.4105 6.926 50.1805 6.814 51.0485 6.814C52.0751 6.814 52.8031 7.04733 53.2325 7.514C53.6618 7.97133 53.8765 8.81133 53.8765 10.034V12.666C53.8765 13.058 54.0165 13.254 54.2965 13.254C54.4271 13.254 54.5765 13.2213 54.7445 13.156L54.8705 14.332C54.5158 14.4813 54.1191 14.556 53.6805 14.556C53.0085 14.556 52.5978 14.2713 52.4485 13.702C51.8418 14.2713 51.1371 14.556 50.3345 14.556C49.6158 14.556 49.0651 14.3367 48.6825 13.898C48.3091 13.4593 48.1225 12.8993 48.1225 12.218C48.1225 10.4913 49.0838 9.628 51.0065 9.628C51.3891 9.628 51.7858 9.67467 52.1965 9.768V9.446C52.1965 8.578 51.7065 8.144 50.7265 8.144C50.1945 8.144 49.6018 8.24667 48.9485 8.452ZM52.1965 12.596V10.874C51.8791 10.762 51.5805 10.706 51.3005 10.706C50.3391 10.706 49.8585 11.1587 49.8585 12.064C49.8585 12.428 49.9425 12.7173 50.1105 12.932C50.2785 13.1373 50.5258 13.24 50.8525 13.24C51.3565 13.24 51.8045 13.0253 52.1965 12.596Z" fill="#004D43"/>
<path d="M57.5066 6.954L57.5626 7.696C58.2346 7.108 58.972 6.814 59.7746 6.814C60.9786 6.814 61.66 7.332 61.8186 8.368C61.856 8.60133 61.8746 8.914 61.8746 9.306V14.416H60.1246V9.53C60.1246 9.24067 60.12 9.04933 60.1106 8.956C60.0546 8.49867 59.7466 8.27 59.1866 8.27C58.7013 8.27 58.1973 8.50333 57.6746 8.97V14.416H55.9106V6.954H57.5066Z" fill="#004D43"/>
<path d="M14.958 20.022L10.096 28.836L15.53 38.716H11.838L7.36601 30.5H5.26001V38.716H1.98401V20.022H5.26001V27.848H7.34001L11.5 20.022H14.958Z" fill="#00AB4E"/>
<path d="M17.7026 27.64L17.3126 25.222C18.5606 24.806 19.9906 24.598 21.6026 24.598C23.5093 24.598 24.8613 25.0313 25.6586 25.898C26.456 26.7473 26.8546 28.3073 26.8546 30.578V35.466C26.8546 36.194 27.1146 36.558 27.6346 36.558C27.8773 36.558 28.1546 36.4973 28.4666 36.376L28.7006 38.56C28.042 38.8373 27.3053 38.976 26.4906 38.976C25.2426 38.976 24.48 38.4473 24.2026 37.39C23.076 38.4473 21.7673 38.976 20.2766 38.976C18.942 38.976 17.9193 38.5686 17.2086 37.754C16.5153 36.9393 16.1686 35.8993 16.1686 34.634C16.1686 31.4273 17.954 29.824 21.5246 29.824C22.2353 29.824 22.972 29.9106 23.7346 30.084V29.486C23.7346 27.874 22.8246 27.068 21.0046 27.068C20.0166 27.068 18.916 27.2586 17.7026 27.64ZM23.7346 35.336V32.138C23.1453 31.93 22.5906 31.826 22.0706 31.826C20.2853 31.826 19.3926 32.6666 19.3926 34.348C19.3926 35.024 19.5486 35.5613 19.8606 35.96C20.1726 36.3413 20.632 36.532 21.2386 36.532C22.1746 36.532 23.0066 36.1333 23.7346 35.336Z" fill="#00AB4E"/>
<path d="M36.8464 24.598C37.7997 24.598 38.6057 25.0746 39.2644 26.028L37.8084 28.368C37.3924 27.848 36.8983 27.588 36.3264 27.588C35.4597 27.588 34.645 27.9866 33.8824 28.784V38.716H30.6064V24.858H33.5184L33.6484 26.314C34.619 25.17 35.685 24.598 36.8464 24.598Z" fill="#00AB4E"/>
<path d="M47.9717 27.198H44.8517V34.296C44.8517 34.712 44.869 35.05 44.9037 35.31C44.9557 35.57 45.077 35.804 45.2677 36.012C45.4757 36.22 45.7617 36.324 46.1257 36.324C46.5937 36.324 47.183 36.1593 47.8937 35.83L48.2577 38.326C47.3044 38.7766 46.2817 39.002 45.1897 39.002C42.7804 39.002 41.5757 37.7366 41.5757 35.206V27.198H39.7817V24.858H41.5757V22.544L44.8517 20.958V24.858H47.9717V27.198Z" fill="#00AB4E"/>
<path d="M53.8412 38.976C51.6225 38.976 50.3485 38.0053 50.0192 36.064C49.9499 35.648 49.9152 35.0586 49.9152 34.296V25.196L53.1912 24.858V33.932C53.1912 34.4346 53.2085 34.79 53.2432 34.998C53.3819 35.83 53.9365 36.246 54.9072 36.246C55.7912 36.246 56.7445 35.83 57.7672 34.998V24.858H61.0172V38.716H58.0792L57.9752 37.364C56.6579 38.4386 55.2799 38.976 53.8412 38.976Z" fill="#00AB4E"/>
<path d="M66.733 38.716V25.055H74.067V26.233H68.044V31.021H73.288V32.199H68.044V37.519H74.314V38.716H66.733Z" fill="#00AB4E"/>
<path d="M81.1768 28.475C82.3548 28.475 83.1275 28.9183 83.4948 29.805C84.5208 28.9183 85.5658 28.475 86.6298 28.475C88.1498 28.475 89.0238 29.1337 89.2518 30.451C89.3025 30.7423 89.3278 31.154 89.3278 31.686V38.716H88.0738V31.857C88.0738 31.3883 88.0485 31.0463 87.9978 30.831C87.8458 30.033 87.2948 29.634 86.3448 29.634C85.4708 29.634 84.5905 30.052 83.7038 30.888C83.7292 31.0907 83.7418 31.4263 83.7418 31.895V38.716H82.4878V31.857C82.4878 31.3883 82.4625 31.0463 82.4118 30.831C82.2852 30.033 81.7848 29.634 80.9108 29.634C79.8595 29.634 78.8525 30.128 77.8898 31.116V38.716H76.6168V28.684H77.8898V29.919C78.9918 28.9563 80.0875 28.475 81.1768 28.475Z" fill="#00AB4E"/>
<path d="M92.7824 29.938L92.6494 28.817C93.4727 28.589 94.4291 28.475 95.5184 28.475C97.6211 28.475 98.6724 29.5137 98.6724 31.591V36.968C98.6724 37.272 98.7231 37.4873 98.8244 37.614C98.9384 37.7407 99.1221 37.804 99.3754 37.804C99.5781 37.804 99.8504 37.7407 100.192 37.614L100.306 38.659C99.7871 38.8237 99.3691 38.906 99.0524 38.906C98.6091 38.906 98.2544 38.792 97.9884 38.564C97.7224 38.3233 97.5704 38.032 97.5324 37.69C96.6204 38.5007 95.6578 38.906 94.6444 38.906C93.7197 38.906 93.0167 38.6147 92.5354 38.032C92.0541 37.4493 91.8134 36.7083 91.8134 35.809C91.8134 34.631 92.1491 33.7633 92.8204 33.206C93.5044 32.636 94.4544 32.351 95.6704 32.351C96.2784 32.351 96.8611 32.4143 97.4184 32.541V31.819C97.4184 31.0337 97.2474 30.4637 96.9054 30.109C96.5634 29.7543 95.9681 29.577 95.1194 29.577C94.3214 29.577 93.5424 29.6973 92.7824 29.938ZM97.4184 36.683L97.4374 33.529C96.8801 33.3897 96.3607 33.32 95.8794 33.32C94.9674 33.32 94.2834 33.51 93.8274 33.89C93.3841 34.27 93.1624 34.897 93.1624 35.771C93.1624 36.3537 93.3081 36.835 93.5994 37.215C93.9034 37.595 94.3468 37.785 94.9294 37.785C95.8034 37.785 96.6331 37.4177 97.4184 36.683Z" fill="#00AB4E"/>
<path d="M101.385 37.88L101.727 36.702C102.006 36.9553 102.411 37.2087 102.943 37.462C103.475 37.7153 103.982 37.842 104.463 37.842C105.084 37.842 105.584 37.7027 105.964 37.424C106.344 37.1453 106.534 36.74 106.534 36.208C106.534 35.714 106.363 35.3213 106.021 35.03C105.679 34.7387 105.261 34.517 104.767 34.365C104.273 34.213 103.779 34.0483 103.285 33.871C102.804 33.6937 102.392 33.3897 102.05 32.959C101.708 32.5283 101.537 31.9647 101.537 31.268C101.537 30.4067 101.848 29.729 102.468 29.235C103.089 28.7283 103.849 28.475 104.748 28.475C105.673 28.475 106.395 28.7093 106.914 29.178C107.446 29.634 107.769 30.1723 107.883 30.793L106.857 31.211C106.705 30.679 106.439 30.28 106.059 30.014C105.679 29.7353 105.236 29.596 104.729 29.596C104.197 29.596 103.748 29.729 103.38 29.995C103.013 30.261 102.829 30.6663 102.829 31.211C102.829 31.705 103 32.104 103.342 32.408C103.684 32.6993 104.096 32.921 104.577 33.073C105.071 33.225 105.565 33.3897 106.059 33.567C106.553 33.7317 106.971 34.0167 107.313 34.422C107.655 34.8273 107.826 35.353 107.826 35.999C107.826 36.8603 107.529 37.5697 106.933 38.127C106.351 38.6717 105.521 38.944 104.444 38.944C103.836 38.944 103.235 38.83 102.639 38.602C102.057 38.3613 101.639 38.1207 101.385 37.88Z" fill="#00AB4E"/>
</svg>
