<svg width="240" height="48" viewBox="0 0 240 48" fill="none" xmlns="http://www.w3.org/2000/svg">
<path d="M2.62806 10.72V14.416H0.83606V4.35H4.36406C5.42806 4.35 6.25406 4.59733 6.84206 5.092C7.43006 5.58667 7.72406 6.30533 7.72406 7.248C7.72406 8.30267 7.40206 9.14733 6.75806 9.782C6.12339 10.4073 5.26473 10.72 4.18206 10.72H2.62806ZM2.62806 9.334H3.98606C4.61139 9.334 5.08273 9.17067 5.40006 8.844C5.72673 8.508 5.89006 8.02267 5.89006 7.388C5.89006 6.27733 5.30206 5.722 4.12606 5.722H2.62806V9.334Z" fill="white"/>
<path d="M13.9438 10.986H9.95378C9.96311 11.686 10.1218 12.2227 10.4298 12.596C10.7378 12.96 11.1624 13.142 11.7038 13.142C12.3664 13.142 13.0338 12.9553 13.7058 12.582L13.8038 14.052C13.1691 14.3973 12.4084 14.57 11.5218 14.57C9.29111 14.57 8.17578 13.2493 8.17578 10.608C8.17578 9.32 8.45111 8.368 9.00178 7.752C9.56178 7.12667 10.2944 6.814 11.1998 6.814C13.0291 6.814 13.9438 7.98067 13.9438 10.314V10.986ZM12.2918 9.894C12.2918 8.69933 11.9184 8.102 11.1718 8.102C10.7704 8.102 10.4671 8.27 10.2618 8.606C10.0658 8.942 9.96778 9.37133 9.96778 9.894H12.2918Z" fill="white"/>
<path d="M19.4074 7.43L19.4774 6.954H21.0454V14.304C21.0454 16.4693 20.0467 17.552 18.0494 17.552C17.0507 17.552 16.1781 17.37 15.4314 17.006L15.6974 15.48C15.9867 15.6573 16.3367 15.802 16.7474 15.914C17.1674 16.0353 17.5547 16.096 17.9094 16.096C18.8707 16.096 19.3514 15.4707 19.3514 14.22V13.772C18.8941 14.2667 18.3061 14.514 17.5874 14.514C16.7754 14.514 16.1267 14.2013 15.6414 13.576C15.1654 12.9413 14.9274 11.9987 14.9274 10.748C14.9274 10.0573 15.0161 9.42733 15.1934 8.858C15.3801 8.28867 15.6881 7.808 16.1174 7.416C16.5561 7.01467 17.0881 6.814 17.7134 6.814C18.3387 6.814 18.9034 7.01933 19.4074 7.43ZM19.2954 12.554V8.648C18.8567 8.33067 18.4647 8.172 18.1194 8.172C17.2047 8.172 16.7474 9.04 16.7474 10.776C16.7474 12.344 17.1907 13.128 18.0774 13.128C18.5067 13.128 18.9127 12.9367 19.2954 12.554Z" fill="white"/>
<path d="M23.2 8.452L22.99 7.15C23.662 6.926 24.432 6.814 25.3 6.814C26.3266 6.814 27.0546 7.04733 27.484 7.514C27.9133 7.97133 28.128 8.81133 28.128 10.034V12.666C28.128 13.058 28.268 13.254 28.548 13.254C28.6786 13.254 28.828 13.2213 28.996 13.156L29.122 14.332C28.7673 14.4813 28.3706 14.556 27.932 14.556C27.26 14.556 26.8493 14.2713 26.7 13.702C26.0933 14.2713 25.3886 14.556 24.586 14.556C23.8673 14.556 23.3166 14.3367 22.934 13.898C22.5606 13.4593 22.374 12.8993 22.374 12.218C22.374 10.4913 23.3353 9.628 25.258 9.628C25.6406 9.628 26.0373 9.67467 26.448 9.768V9.446C26.448 8.578 25.958 8.144 24.978 8.144C24.446 8.144 23.8533 8.24667 23.2 8.452ZM26.448 12.596V10.874C26.1306 10.762 25.832 10.706 25.552 10.706C24.5906 10.706 24.11 11.1587 24.11 12.064C24.11 12.428 24.194 12.7173 24.362 12.932C24.53 13.1373 24.7773 13.24 25.104 13.24C25.608 13.24 26.056 13.0253 26.448 12.596Z" fill="white"/>
<path d="M34.0154 7.29V4.35H35.7654V14.416H34.1974L34.1414 13.758C33.6281 14.29 33.0167 14.556 32.3074 14.556C31.4954 14.556 30.8467 14.234 30.3614 13.59C29.8854 12.946 29.6474 11.9987 29.6474 10.748C29.6474 10.0573 29.7407 9.42733 29.9274 8.858C30.1141 8.27933 30.4267 7.794 30.8654 7.402C31.3041 7.01 31.8454 6.814 32.4894 6.814C33.0494 6.814 33.5581 6.97267 34.0154 7.29ZM34.0294 12.61V8.62C33.5907 8.30267 33.2034 8.144 32.8674 8.144C31.9341 8.144 31.4674 9.02133 31.4674 10.776C31.4674 11.56 31.5841 12.1573 31.8174 12.568C32.0507 12.9787 32.3821 13.184 32.8114 13.184C33.2407 13.184 33.6467 12.9927 34.0294 12.61Z" fill="white"/>
<path d="M37.92 8.452L37.71 7.15C38.382 6.926 39.152 6.814 40.02 6.814C41.0466 6.814 41.7746 7.04733 42.204 7.514C42.6333 7.97133 42.848 8.81133 42.848 10.034V12.666C42.848 13.058 42.988 13.254 43.268 13.254C43.3986 13.254 43.548 13.2213 43.716 13.156L43.842 14.332C43.4873 14.4813 43.0906 14.556 42.652 14.556C41.98 14.556 41.5693 14.2713 41.42 13.702C40.8133 14.2713 40.1086 14.556 39.306 14.556C38.5873 14.556 38.0366 14.3367 37.654 13.898C37.2806 13.4593 37.094 12.8993 37.094 12.218C37.094 10.4913 38.0553 9.628 39.978 9.628C40.3606 9.628 40.7573 9.67467 41.168 9.768V9.446C41.168 8.578 40.678 8.144 39.698 8.144C39.166 8.144 38.5733 8.24667 37.92 8.452ZM41.168 12.596V10.874C40.8506 10.762 40.552 10.706 40.272 10.706C39.3106 10.706 38.83 11.1587 38.83 12.064C38.83 12.428 38.914 12.7173 39.082 12.932C39.25 13.1373 39.4973 13.24 39.824 13.24C40.328 13.24 40.776 13.0253 41.168 12.596Z" fill="white"/>
<path d="M44.8821 6.954H46.6321V14.416H44.8821V6.954ZM44.7421 5.008C44.7421 4.69067 44.8355 4.44333 45.0221 4.266C45.2088 4.08867 45.4515 4 45.7501 4C46.0768 4 46.3288 4.08867 46.5061 4.266C46.6835 4.434 46.7721 4.68133 46.7721 5.008C46.7721 5.33467 46.6741 5.58667 46.4781 5.764C46.2915 5.932 46.0488 6.016 45.7501 6.016C45.4421 6.016 45.1948 5.92733 45.0081 5.75C44.8308 5.56333 44.7421 5.316 44.7421 5.008Z" fill="white"/>
<path d="M48.7845 8.452L48.5745 7.15C49.2465 6.926 50.0165 6.814 50.8845 6.814C51.9112 6.814 52.6392 7.04733 53.0685 7.514C53.4979 7.97133 53.7125 8.81133 53.7125 10.034V12.666C53.7125 13.058 53.8525 13.254 54.1325 13.254C54.2632 13.254 54.4125 13.2213 54.5805 13.156L54.7065 14.332C54.3519 14.4813 53.9552 14.556 53.5165 14.556C52.8445 14.556 52.4339 14.2713 52.2845 13.702C51.6779 14.2713 50.9732 14.556 50.1705 14.556C49.4519 14.556 48.9012 14.3367 48.5185 13.898C48.1452 13.4593 47.9585 12.8993 47.9585 12.218C47.9585 10.4913 48.9199 9.628 50.8425 9.628C51.2252 9.628 51.6219 9.67467 52.0325 9.768V9.446C52.0325 8.578 51.5425 8.144 50.5625 8.144C50.0305 8.144 49.4379 8.24667 48.7845 8.452ZM52.0325 12.596V10.874C51.7152 10.762 51.4165 10.706 51.1365 10.706C50.1752 10.706 49.6945 11.1587 49.6945 12.064C49.6945 12.428 49.7785 12.7173 49.9465 12.932C50.1145 13.1373 50.3619 13.24 50.6885 13.24C51.1925 13.24 51.6405 13.0253 52.0325 12.596Z" fill="white"/>
<path d="M57.3427 6.954L57.3987 7.696C58.0707 7.108 58.808 6.814 59.6107 6.814C60.8147 6.814 61.496 7.332 61.6547 8.368C61.692 8.60133 61.7107 8.914 61.7107 9.306V14.416H59.9607V9.53C59.9607 9.24067 59.956 9.04933 59.9467 8.956C59.8907 8.49867 59.5827 8.27 59.0227 8.27C58.5374 8.27 58.0334 8.50333 57.5107 8.97V14.416H55.7467V6.954H57.3427Z" fill="white"/>
<path d="M66.1066 13.716L66.6946 12.148C67.5812 12.764 68.4352 13.072 69.2566 13.072C69.7326 13.072 70.1152 12.9647 70.4046 12.75C70.7032 12.526 70.8526 12.1807 70.8526 11.714C70.8526 11.21 70.6939 10.8367 70.3766 10.594C70.0686 10.3513 69.5646 10.132 68.8646 9.936C68.5659 9.852 68.3139 9.77733 68.1086 9.712C67.9126 9.63733 67.6839 9.52533 67.4226 9.376C67.1706 9.21733 66.9652 9.04467 66.8066 8.858C66.6572 8.67133 66.5266 8.424 66.4146 8.116C66.3026 7.808 66.2466 7.46267 66.2466 7.08C66.2466 6.20267 66.5499 5.49333 67.1566 4.952C67.7726 4.41067 68.5612 4.14 69.5226 4.14C70.5026 4.14 71.2446 4.37333 71.7486 4.84C72.2619 5.30667 72.5979 5.876 72.7566 6.548L71.1326 7.024C70.8712 6.09067 70.3206 5.624 69.4806 5.624C69.0792 5.624 68.7479 5.73133 68.4866 5.946C68.2252 6.16067 68.0946 6.478 68.0946 6.898C68.0946 7.346 68.2392 7.67267 68.5286 7.878C68.8272 8.08333 69.3032 8.284 69.9566 8.48C70.8339 8.74133 71.5059 9.096 71.9726 9.544C72.4486 9.992 72.6866 10.6407 72.6866 11.49C72.6866 12.4607 72.3692 13.226 71.7346 13.786C71.1092 14.3367 70.2786 14.612 69.2426 14.612C68.0012 14.612 66.9559 14.3133 66.1066 13.716Z" fill="white"/>
<path d="M78.0277 6.954L79.7357 7.136C78.961 9.92667 78.1723 12.26 77.3697 14.136C77.127 14.7053 76.9123 15.1627 76.7257 15.508C76.5483 15.8627 76.3243 16.2127 76.0537 16.558C75.783 16.9033 75.475 17.1553 75.1297 17.314C74.7937 17.4727 74.411 17.552 73.9817 17.552C73.1883 17.552 72.4557 17.3747 71.7837 17.02L72.2317 15.578C72.8757 15.914 73.4077 16.082 73.8277 16.082C74.229 16.082 74.5417 15.9373 74.7657 15.648C74.999 15.368 75.251 14.8733 75.5217 14.164L72.9317 7.122L74.7937 6.954L75.8437 10.272C76.133 11.2147 76.3477 11.9193 76.4877 12.386C76.8703 11.2753 77.3837 9.46467 78.0277 6.954Z" fill="white"/>
<path d="M80.943 8.452L80.733 7.15C81.405 6.926 82.175 6.814 83.043 6.814C84.0696 6.814 84.7976 7.04733 85.227 7.514C85.6563 7.97133 85.871 8.81133 85.871 10.034V12.666C85.871 13.058 86.011 13.254 86.291 13.254C86.4216 13.254 86.571 13.2213 86.739 13.156L86.865 14.332C86.5103 14.4813 86.1136 14.556 85.675 14.556C85.003 14.556 84.5923 14.2713 84.443 13.702C83.8363 14.2713 83.1316 14.556 82.329 14.556C81.6103 14.556 81.0596 14.3367 80.677 13.898C80.3036 13.4593 80.117 12.8993 80.117 12.218C80.117 10.4913 81.0783 9.628 83.001 9.628C83.3836 9.628 83.7803 9.67467 84.191 9.768V9.446C84.191 8.578 83.701 8.144 82.721 8.144C82.189 8.144 81.5963 8.24667 80.943 8.452ZM84.191 12.596V10.874C83.8736 10.762 83.575 10.706 83.295 10.706C82.3336 10.706 81.853 11.1587 81.853 12.064C81.853 12.428 81.937 12.7173 82.105 12.932C82.273 13.1373 82.5203 13.24 82.847 13.24C83.351 13.24 83.799 13.0253 84.191 12.596Z" fill="white"/>
<path d="M91.2651 6.814C91.7785 6.814 92.2124 7.07067 92.5671 7.584L91.7831 8.844C91.5591 8.564 91.2931 8.424 90.9851 8.424C90.5184 8.424 90.0798 8.63867 89.6691 9.068V14.416H87.9051V6.954H89.4731L89.5431 7.738C90.0658 7.122 90.6398 6.814 91.2651 6.814Z" fill="white"/>
<path d="M93.4263 6.954H95.1763V14.416H93.4263V6.954ZM93.2863 5.008C93.2863 4.69067 93.3796 4.44333 93.5663 4.266C93.7529 4.08867 93.9956 4 94.2943 4C94.6209 4 94.8729 4.08867 95.0503 4.266C95.2276 4.434 95.3163 4.68133 95.3163 5.008C95.3163 5.33467 95.2183 5.58667 95.0223 5.764C94.8356 5.932 94.5929 6.016 94.2943 6.016C93.9863 6.016 93.7389 5.92733 93.5523 5.75C93.3749 5.56333 93.2863 5.316 93.2863 5.008Z" fill="white"/>
<path d="M97.3287 8.452L97.1187 7.15C97.7906 6.926 98.5606 6.814 99.4286 6.814C100.455 6.814 101.183 7.04733 101.613 7.514C102.042 7.97133 102.257 8.81133 102.257 10.034V12.666C102.257 13.058 102.397 13.254 102.677 13.254C102.807 13.254 102.957 13.2213 103.125 13.156L103.251 14.332C102.896 14.4813 102.499 14.556 102.061 14.556C101.389 14.556 100.978 14.2713 100.829 13.702C100.222 14.2713 99.5173 14.556 98.7147 14.556C97.996 14.556 97.4453 14.3367 97.0627 13.898C96.6893 13.4593 96.5026 12.8993 96.5026 12.218C96.5026 10.4913 97.464 9.628 99.3867 9.628C99.7693 9.628 100.166 9.67467 100.577 9.768V9.446C100.577 8.578 100.087 8.144 99.1067 8.144C98.5747 8.144 97.982 8.24667 97.3287 8.452ZM100.577 12.596V10.874C100.259 10.762 99.9606 10.706 99.6806 10.706C98.7193 10.706 98.2386 11.1587 98.2386 12.064C98.2386 12.428 98.3226 12.7173 98.4906 12.932C98.6586 13.1373 98.906 13.24 99.2327 13.24C99.7366 13.24 100.185 13.0253 100.577 12.596Z" fill="white"/>
<path d="M108.183 6.814C108.967 6.814 109.508 7.024 109.807 7.444C110.105 7.85467 110.255 8.47533 110.255 9.306V14.416H108.505V9.53C108.505 9.054 108.439 8.72733 108.309 8.55C108.187 8.36333 107.94 8.27 107.567 8.27C107.081 8.27 106.577 8.50333 106.055 8.97V14.416H104.291V4.35H106.055V7.612C106.708 7.08 107.417 6.814 108.183 6.814Z" fill="white"/>
<path d="M0 22.648V20.022H14.196V22.648H8.736V38.716H5.408V22.648H0Z" fill="#00AB4E"/>
<path d="M13.73 27.64L13.34 25.222C14.588 24.806 16.018 24.598 17.63 24.598C19.5367 24.598 20.8887 25.0313 21.686 25.898C22.4834 26.7473 22.882 28.3073 22.882 30.578V35.466C22.882 36.194 23.142 36.558 23.662 36.558C23.9047 36.558 24.182 36.4973 24.494 36.376L24.728 38.56C24.0694 38.8373 23.3327 38.976 22.518 38.976C21.27 38.976 20.5074 38.4473 20.23 37.39C19.1034 38.4473 17.7947 38.976 16.304 38.976C14.9694 38.976 13.9467 38.5686 13.236 37.754C12.5427 36.9393 12.196 35.8993 12.196 34.634C12.196 31.4273 13.9814 29.824 17.552 29.824C18.2627 29.824 18.9994 29.9106 19.762 30.084V29.486C19.762 27.874 18.852 27.068 17.032 27.068C16.044 27.068 14.9434 27.2586 13.73 27.64ZM19.762 35.336V32.138C19.1727 31.93 18.618 31.826 18.098 31.826C16.3127 31.826 15.42 32.6666 15.42 34.348C15.42 35.024 15.576 35.5613 15.888 35.96C16.2 36.3413 16.6594 36.532 17.266 36.532C18.202 36.532 19.034 36.1333 19.762 35.336Z" fill="#00AB4E"/>
<path d="M29.8577 25.898C31.1924 25.0313 32.3884 24.598 33.4458 24.598C34.8151 24.598 35.8984 25.1006 36.6958 26.106C37.4931 27.1113 37.8918 28.654 37.8918 30.734C37.8918 33.2993 37.3717 35.3186 36.3317 36.792C35.2917 38.248 33.6711 38.976 31.4697 38.976C29.6671 38.976 28.0551 38.5773 26.6337 37.78V20.022H29.8577V25.898ZM34.5378 31.384C34.5378 29.8413 34.3644 28.7666 34.0177 28.16C33.6711 27.5533 33.1424 27.25 32.4318 27.25C31.6518 27.25 30.7938 27.5706 29.8577 28.212V35.986C30.4124 36.3153 31.0364 36.48 31.7297 36.48C33.6017 36.48 34.5378 34.7813 34.5378 31.384Z" fill="#00AB4E"/>
<path d="M44.2875 38.976C42.0689 38.976 40.7949 38.0053 40.4655 36.064C40.3962 35.648 40.3615 35.0586 40.3615 34.296V25.196L43.6375 24.858V33.932C43.6375 34.4346 43.6549 34.79 43.6895 34.998C43.8282 35.83 44.3829 36.246 45.3535 36.246C46.2375 36.246 47.1909 35.83 48.2135 34.998V24.858H51.4635V38.716H48.5255L48.4215 37.364C47.1042 38.4386 45.7262 38.976 44.2875 38.976Z" fill="#00AB4E"/>
<path d="M57.7462 24.858L57.8502 26.236C59.0982 25.144 60.4675 24.598 61.9582 24.598C64.1942 24.598 65.4595 25.56 65.7542 27.484C65.8235 27.9173 65.8582 28.498 65.8582 29.226V38.716H62.6082V29.642C62.6082 29.1046 62.5995 28.7493 62.5822 28.576C62.4782 27.7266 61.9062 27.302 60.8662 27.302C59.9649 27.302 59.0289 27.7353 58.0582 28.602V38.716H54.7822V24.858H57.7462Z" fill="#00AB4E"/>
<path d="M76.7918 25.742L76.9218 24.858H79.8338V38.508C79.8338 42.5293 77.9791 44.54 74.2698 44.54C72.4151 44.54 70.7945 44.202 69.4078 43.526L69.9018 40.692C70.4391 41.0213 71.0891 41.29 71.8518 41.498C72.6318 41.7233 73.3512 41.836 74.0098 41.836C75.7952 41.836 76.6878 40.6746 76.6878 38.352V37.52C75.8385 38.4386 74.7465 38.898 73.4118 38.898C71.9038 38.898 70.6992 38.3173 69.7978 37.156C68.9138 35.9773 68.4718 34.2266 68.4718 31.904C68.4718 30.6213 68.6365 29.4513 68.9658 28.394C69.3125 27.3366 69.8845 26.444 70.6818 25.716C71.4965 24.9706 72.4845 24.598 73.6458 24.598C74.8071 24.598 75.8558 24.9793 76.7918 25.742ZM76.5838 35.258V28.004C75.7691 27.4146 75.0412 27.12 74.3998 27.12C72.7011 27.12 71.8518 28.732 71.8518 31.956C71.8518 34.868 72.6751 36.324 74.3218 36.324C75.1191 36.324 75.8731 35.9686 76.5838 35.258Z" fill="#00AB4E"/>
<path d="M83.8092 27.64L83.4192 25.222C84.6672 24.806 86.0972 24.598 87.7092 24.598C89.6158 24.598 90.9678 25.0313 91.7652 25.898C92.5625 26.7473 92.9612 28.3073 92.9612 30.578V35.466C92.9612 36.194 93.2212 36.558 93.7412 36.558C93.9838 36.558 94.2612 36.4973 94.5732 36.376L94.8072 38.56C94.1485 38.8373 93.4118 38.976 92.5972 38.976C91.3492 38.976 90.5865 38.4473 90.3092 37.39C89.1825 38.4473 87.8738 38.976 86.3832 38.976C85.0485 38.976 84.0258 38.5686 83.3152 37.754C82.6218 36.9393 82.2752 35.8993 82.2752 34.634C82.2752 31.4273 84.0605 29.824 87.6312 29.824C88.3418 29.824 89.0785 29.9106 89.8412 30.084V29.486C89.8412 27.874 88.9312 27.068 87.1112 27.068C86.1232 27.068 85.0225 27.2586 83.8092 27.64ZM89.8412 35.336V32.138C89.2518 31.93 88.6972 31.826 88.1772 31.826C86.3918 31.826 85.4992 32.6666 85.4992 34.348C85.4992 35.024 85.6552 35.5613 85.9672 35.96C86.2792 36.3413 86.7385 36.532 87.3452 36.532C88.2812 36.532 89.1132 36.1333 89.8412 35.336Z" fill="#00AB4E"/>
<path d="M99.6769 24.858L99.7809 26.236C101.029 25.144 102.398 24.598 103.889 24.598C106.125 24.598 107.39 25.56 107.685 27.484C107.754 27.9173 107.789 28.498 107.789 29.226V38.716H104.539V29.642C104.539 29.1046 104.53 28.7493 104.513 28.576C104.409 27.7266 103.837 27.302 102.797 27.302C101.896 27.302 100.96 27.7353 99.9889 28.602V38.716H96.7129V24.858H99.6769Z" fill="#00AB4E"/>
<path d="M113.569 38.716V25.055H120.903V26.233H114.88V31.021H120.124V32.199H114.88V37.519H121.15V38.716H113.569Z" fill="#00AB4E"/>
<path d="M128.013 28.475C129.191 28.475 129.963 28.9183 130.331 29.805C131.357 28.9183 132.402 28.475 133.466 28.475C134.986 28.475 135.86 29.1337 136.088 30.451C136.138 30.7423 136.164 31.154 136.164 31.686V38.716H134.91V31.857C134.91 31.3883 134.884 31.0463 134.834 30.831C134.682 30.033 134.131 29.634 133.181 29.634C132.307 29.634 131.426 30.052 130.54 30.888C130.565 31.0907 130.578 31.4263 130.578 31.895V38.716H129.324V31.857C129.324 31.3883 129.298 31.0463 129.248 30.831C129.121 30.033 128.621 29.634 127.747 29.634C126.695 29.634 125.688 30.128 124.726 31.116V38.716H123.453V28.684H124.726V29.919C125.828 28.9563 126.923 28.475 128.013 28.475Z" fill="#00AB4E"/>
<path d="M139.618 29.938L139.485 28.817C140.309 28.589 141.265 28.475 142.354 28.475C144.457 28.475 145.508 29.5137 145.508 31.591V36.968C145.508 37.272 145.559 37.4873 145.66 37.614C145.774 37.7407 145.958 37.804 146.211 37.804C146.414 37.804 146.686 37.7407 147.028 37.614L147.142 38.659C146.623 38.8237 146.205 38.906 145.888 38.906C145.445 38.906 145.09 38.792 144.824 38.564C144.558 38.3233 144.406 38.032 144.368 37.69C143.456 38.5007 142.494 38.906 141.48 38.906C140.556 38.906 139.853 38.6147 139.371 38.032C138.89 37.4493 138.649 36.7083 138.649 35.809C138.649 34.631 138.985 33.7633 139.656 33.206C140.34 32.636 141.29 32.351 142.506 32.351C143.114 32.351 143.697 32.4143 144.254 32.541V31.819C144.254 31.0337 144.083 30.4637 143.741 30.109C143.399 29.7543 142.804 29.577 141.955 29.577C141.157 29.577 140.378 29.6973 139.618 29.938ZM144.254 36.683L144.273 33.529C143.716 33.3897 143.197 33.32 142.715 33.32C141.803 33.32 141.119 33.51 140.663 33.89C140.22 34.27 139.998 34.897 139.998 35.771C139.998 36.3537 140.144 36.835 140.435 37.215C140.739 37.595 141.183 37.785 141.765 37.785C142.639 37.785 143.469 37.4177 144.254 36.683Z" fill="#00AB4E"/>
<path d="M148.221 37.88L148.563 36.702C148.842 36.9553 149.247 37.2087 149.779 37.462C150.311 37.7153 150.818 37.842 151.299 37.842C151.92 37.842 152.42 37.7027 152.8 37.424C153.18 37.1453 153.37 36.74 153.37 36.208C153.37 35.714 153.199 35.3213 152.857 35.03C152.515 34.7387 152.097 34.517 151.603 34.365C151.109 34.213 150.615 34.0483 150.121 33.871C149.64 33.6937 149.228 33.3897 148.886 32.959C148.544 32.5283 148.373 31.9647 148.373 31.268C148.373 30.4067 148.684 29.729 149.304 29.235C149.925 28.7283 150.685 28.475 151.584 28.475C152.509 28.475 153.231 28.7093 153.75 29.178C154.282 29.634 154.605 30.1723 154.719 30.793L153.693 31.211C153.541 30.679 153.275 30.28 152.895 30.014C152.515 29.7353 152.072 29.596 151.565 29.596C151.033 29.596 150.584 29.729 150.216 29.995C149.849 30.261 149.665 30.6663 149.665 31.211C149.665 31.705 149.836 32.104 150.178 32.408C150.52 32.6993 150.932 32.921 151.413 33.073C151.907 33.225 152.401 33.3897 152.895 33.567C153.389 33.7317 153.807 34.0167 154.149 34.422C154.491 34.8273 154.662 35.353 154.662 35.999C154.662 36.8603 154.365 37.5697 153.769 38.127C153.187 38.6717 152.357 38.944 151.28 38.944C150.672 38.944 150.071 38.83 149.475 38.602C148.893 38.3613 148.475 38.1207 148.221 37.88Z" fill="#00AB4E"/>
</svg>
