<svg width="240" height="48" viewBox="0 0 240 48" fill="none" xmlns="http://www.w3.org/2000/svg">
<path d="M3.80201 10.72V14.416H2.01001V4.35H5.53801C6.60201 4.35 7.42801 4.59733 8.01601 5.092C8.60401 5.58667 8.89801 6.30533 8.89801 7.248C8.89801 8.30267 8.57601 9.14733 7.93201 9.782C7.29734 10.4073 6.43868 10.72 5.35601 10.72H3.80201ZM3.80201 9.334H5.16001C5.78534 9.334 6.25668 9.17067 6.57401 8.844C6.90068 8.508 7.06401 8.02267 7.06401 7.388C7.06401 6.27733 6.47601 5.722 5.30001 5.722H3.80201V9.334Z" fill="white"/>
<path d="M15.1177 10.986H11.1277C11.1371 11.686 11.2957 12.2227 11.6037 12.596C11.9117 12.96 12.3364 13.142 12.8777 13.142C13.5404 13.142 14.2077 12.9553 14.8797 12.582L14.9777 14.052C14.3431 14.3973 13.5824 14.57 12.6957 14.57C10.4651 14.57 9.34973 13.2493 9.34973 10.608C9.34973 9.32 9.62506 8.368 10.1757 7.752C10.7357 7.12667 11.4684 6.814 12.3737 6.814C14.2031 6.814 15.1177 7.98067 15.1177 10.314V10.986ZM13.4657 9.894C13.4657 8.69933 13.0924 8.102 12.3457 8.102C11.9444 8.102 11.6411 8.27 11.4357 8.606C11.2397 8.942 11.1417 9.37133 11.1417 9.894H13.4657Z" fill="white"/>
<path d="M20.5813 7.43L20.6513 6.954H22.2193V14.304C22.2193 16.4693 21.2207 17.552 19.2233 17.552C18.2247 17.552 17.352 17.37 16.6053 17.006L16.8713 15.48C17.1607 15.6573 17.5107 15.802 17.9213 15.914C18.3413 16.0353 18.7287 16.096 19.0833 16.096C20.0447 16.096 20.5253 15.4707 20.5253 14.22V13.772C20.068 14.2667 19.48 14.514 18.7613 14.514C17.9493 14.514 17.3007 14.2013 16.8153 13.576C16.3393 12.9413 16.1013 11.9987 16.1013 10.748C16.1013 10.0573 16.19 9.42733 16.3673 8.858C16.554 8.28867 16.862 7.808 17.2913 7.416C17.73 7.01467 18.262 6.814 18.8873 6.814C19.5127 6.814 20.0773 7.01933 20.5813 7.43ZM20.4693 12.554V8.648C20.0307 8.33067 19.6387 8.172 19.2933 8.172C18.3787 8.172 17.9213 9.04 17.9213 10.776C17.9213 12.344 18.3647 13.128 19.2513 13.128C19.6807 13.128 20.0867 12.9367 20.4693 12.554Z" fill="white"/>
<path d="M24.3739 8.452L24.1639 7.15C24.8359 6.926 25.6059 6.814 26.4739 6.814C27.5006 6.814 28.2286 7.04733 28.6579 7.514C29.0872 7.97133 29.3019 8.81133 29.3019 10.034V12.666C29.3019 13.058 29.4419 13.254 29.7219 13.254C29.8526 13.254 30.0019 13.2213 30.1699 13.156L30.2959 14.332C29.9412 14.4813 29.5446 14.556 29.1059 14.556C28.4339 14.556 28.0233 14.2713 27.8739 13.702C27.2673 14.2713 26.5626 14.556 25.7599 14.556C25.0413 14.556 24.4906 14.3367 24.1079 13.898C23.7346 13.4593 23.5479 12.8993 23.5479 12.218C23.5479 10.4913 24.5092 9.628 26.4319 9.628C26.8146 9.628 27.2112 9.67467 27.6219 9.768V9.446C27.6219 8.578 27.1319 8.144 26.1519 8.144C25.6199 8.144 25.0272 8.24667 24.3739 8.452ZM27.6219 12.596V10.874C27.3046 10.762 27.0059 10.706 26.7259 10.706C25.7646 10.706 25.2839 11.1587 25.2839 12.064C25.2839 12.428 25.3679 12.7173 25.5359 12.932C25.7039 13.1373 25.9513 13.24 26.2779 13.24C26.7819 13.24 27.2299 13.0253 27.6219 12.596Z" fill="white"/>
<path d="M35.1894 7.29V4.35H36.9394V14.416H35.3714L35.3154 13.758C34.802 14.29 34.1907 14.556 33.4814 14.556C32.6694 14.556 32.0207 14.234 31.5354 13.59C31.0594 12.946 30.8214 11.9987 30.8214 10.748C30.8214 10.0573 30.9147 9.42733 31.1014 8.858C31.288 8.27933 31.6007 7.794 32.0394 7.402C32.478 7.01 33.0194 6.814 33.6634 6.814C34.2234 6.814 34.732 6.97267 35.1894 7.29ZM35.2034 12.61V8.62C34.7647 8.30267 34.3774 8.144 34.0414 8.144C33.108 8.144 32.6414 9.02133 32.6414 10.776C32.6414 11.56 32.758 12.1573 32.9914 12.568C33.2247 12.9787 33.556 13.184 33.9854 13.184C34.4147 13.184 34.8207 12.9927 35.2034 12.61Z" fill="white"/>
<path d="M39.0939 8.452L38.8839 7.15C39.5559 6.926 40.3259 6.814 41.1939 6.814C42.2206 6.814 42.9486 7.04733 43.3779 7.514C43.8073 7.97133 44.0219 8.81133 44.0219 10.034V12.666C44.0219 13.058 44.1619 13.254 44.4419 13.254C44.5726 13.254 44.7219 13.2213 44.8899 13.156L45.0159 14.332C44.6613 14.4813 44.2646 14.556 43.8259 14.556C43.1539 14.556 42.7433 14.2713 42.5939 13.702C41.9873 14.2713 41.2826 14.556 40.4799 14.556C39.7613 14.556 39.2106 14.3367 38.8279 13.898C38.4546 13.4593 38.2679 12.8993 38.2679 12.218C38.2679 10.4913 39.2293 9.628 41.1519 9.628C41.5346 9.628 41.9313 9.67467 42.3419 9.768V9.446C42.3419 8.578 41.8519 8.144 40.8719 8.144C40.3399 8.144 39.7473 8.24667 39.0939 8.452ZM42.3419 12.596V10.874C42.0246 10.762 41.7259 10.706 41.4459 10.706C40.4846 10.706 40.0039 11.1587 40.0039 12.064C40.0039 12.428 40.0879 12.7173 40.2559 12.932C40.4239 13.1373 40.6713 13.24 40.9979 13.24C41.5019 13.24 41.9499 13.0253 42.3419 12.596Z" fill="white"/>
<path d="M46.0561 6.954H47.8061V14.416H46.0561V6.954ZM45.9161 5.008C45.9161 4.69067 46.0094 4.44333 46.1961 4.266C46.3828 4.08867 46.6254 4 46.9241 4C47.2508 4 47.5028 4.08867 47.6801 4.266C47.8574 4.434 47.9461 4.68133 47.9461 5.008C47.9461 5.33467 47.8481 5.58667 47.6521 5.764C47.4654 5.932 47.2228 6.016 46.9241 6.016C46.6161 6.016 46.3688 5.92733 46.1821 5.75C46.0048 5.56333 45.9161 5.316 45.9161 5.008Z" fill="white"/>
<path d="M49.9585 8.452L49.7485 7.15C50.4205 6.926 51.1905 6.814 52.0585 6.814C53.0851 6.814 53.8131 7.04733 54.2425 7.514C54.6718 7.97133 54.8865 8.81133 54.8865 10.034V12.666C54.8865 13.058 55.0265 13.254 55.3065 13.254C55.4371 13.254 55.5865 13.2213 55.7545 13.156L55.8805 14.332C55.5258 14.4813 55.1291 14.556 54.6905 14.556C54.0185 14.556 53.6078 14.2713 53.4585 13.702C52.8518 14.2713 52.1471 14.556 51.3445 14.556C50.6258 14.556 50.0751 14.3367 49.6925 13.898C49.3191 13.4593 49.1325 12.8993 49.1325 12.218C49.1325 10.4913 50.0938 9.628 52.0165 9.628C52.3991 9.628 52.7958 9.67467 53.2065 9.768V9.446C53.2065 8.578 52.7165 8.144 51.7365 8.144C51.2045 8.144 50.6118 8.24667 49.9585 8.452ZM53.2065 12.596V10.874C52.8891 10.762 52.5905 10.706 52.3105 10.706C51.3491 10.706 50.8685 11.1587 50.8685 12.064C50.8685 12.428 50.9525 12.7173 51.1205 12.932C51.2885 13.1373 51.5358 13.24 51.8625 13.24C52.3665 13.24 52.8145 13.0253 53.2065 12.596Z" fill="white"/>
<path d="M58.5166 6.954L58.5726 7.696C59.2446 7.108 59.982 6.814 60.7846 6.814C61.9886 6.814 62.67 7.332 62.8286 8.368C62.866 8.60133 62.8846 8.914 62.8846 9.306V14.416H61.1346V9.53C61.1346 9.24067 61.13 9.04933 61.1206 8.956C61.0646 8.49867 60.7566 8.27 60.1966 8.27C59.7113 8.27 59.2073 8.50333 58.6846 8.97V14.416H56.9206V6.954H58.5166Z" fill="white"/>
<path d="M1.19995 38.144L2.05795 35.44C3.02862 35.908 3.95595 36.142 4.83995 36.142C5.61995 36.142 6.13128 35.908 6.37395 35.44C6.63395 34.972 6.76395 34.218 6.76395 33.178V20.022H10.092V33.256C10.092 35.2666 9.69328 36.74 8.89595 37.676C8.11595 38.5946 6.90262 39.054 5.25595 39.054C3.66128 39.054 2.30928 38.7506 1.19995 38.144Z" fill="#00AB4E"/>
<path d="M13.736 27.64L13.346 25.222C14.594 24.806 16.024 24.598 17.636 24.598C19.5427 24.598 20.8947 25.0313 21.692 25.898C22.4893 26.7473 22.888 28.3073 22.888 30.578V35.466C22.888 36.194 23.148 36.558 23.668 36.558C23.9107 36.558 24.188 36.4973 24.5 36.376L24.734 38.56C24.0753 38.8373 23.3387 38.976 22.524 38.976C21.276 38.976 20.5133 38.4473 20.236 37.39C19.1093 38.4473 17.8007 38.976 16.31 38.976C14.9753 38.976 13.9527 38.5686 13.242 37.754C12.5487 36.9393 12.202 35.8993 12.202 34.634C12.202 31.4273 13.9873 29.824 17.558 29.824C18.2687 29.824 19.0053 29.9106 19.768 30.084V29.486C19.768 27.874 18.858 27.068 17.038 27.068C16.05 27.068 14.9493 27.2586 13.736 27.64ZM19.768 35.336V32.138C19.1787 31.93 18.624 31.826 18.104 31.826C16.3187 31.826 15.426 32.6666 15.426 34.348C15.426 35.024 15.582 35.5613 15.894 35.96C16.206 36.3413 16.6653 36.532 17.272 36.532C18.208 36.532 19.04 36.1333 19.768 35.336Z" fill="#00AB4E"/>
<path d="M25.6517 37.65L26.5357 35.076C27.8357 36.0293 29.1444 36.506 30.4617 36.506C31.6751 36.506 32.2817 35.986 32.2817 34.946C32.2817 34.4606 32.0911 34.0966 31.7097 33.854C31.3457 33.594 30.7824 33.3426 30.0197 33.1C29.5517 32.944 29.2311 32.84 29.0577 32.788C28.9017 32.736 28.6157 32.6233 28.1997 32.45C27.8011 32.2766 27.5064 32.1033 27.3157 31.93C27.1424 31.7566 26.9344 31.5313 26.6917 31.254C26.4491 30.9766 26.2757 30.6473 26.1717 30.266C26.0851 29.8846 26.0417 29.46 26.0417 28.992C26.0417 27.64 26.4924 26.574 27.3937 25.794C28.3124 24.9966 29.5171 24.598 31.0077 24.598C33.5904 24.598 35.1677 25.664 35.7397 27.796L33.2697 28.758C32.8364 27.5966 32.0737 27.016 30.9817 27.016C30.4791 27.016 30.0457 27.146 29.6817 27.406C29.3351 27.6486 29.1617 28.0213 29.1617 28.524C29.1617 28.836 29.2224 29.1046 29.3437 29.33C29.4824 29.538 29.6991 29.7286 29.9937 29.902C30.2884 30.0753 30.5484 30.2053 30.7737 30.292C31.0164 30.3786 31.3717 30.4913 31.8397 30.63C32.3771 30.8033 32.8277 30.968 33.1917 31.124C33.5557 31.28 33.9371 31.514 34.3357 31.826C34.7344 32.1206 35.0377 32.5106 35.2457 32.996C35.4537 33.464 35.5577 34.0186 35.5577 34.66C35.5577 36.012 35.0984 37.078 34.1797 37.858C33.2611 38.638 32.0217 39.028 30.4617 39.028C29.5257 39.028 28.5984 38.8806 27.6797 38.586C26.7784 38.2913 26.1024 37.9793 25.6517 37.65Z" fill="#00AB4E"/>
<path d="M38.7868 27.64L38.3968 25.222C39.6448 24.806 41.0748 24.598 42.6868 24.598C44.5935 24.598 45.9455 25.0313 46.7428 25.898C47.5401 26.7473 47.9388 28.3073 47.9388 30.578V35.466C47.9388 36.194 48.1988 36.558 48.7188 36.558C48.9615 36.558 49.2388 36.4973 49.5508 36.376L49.7848 38.56C49.1261 38.8373 48.3895 38.976 47.5748 38.976C46.3268 38.976 45.5641 38.4473 45.2868 37.39C44.1601 38.4473 42.8515 38.976 41.3608 38.976C40.0261 38.976 39.0035 38.5686 38.2928 37.754C37.5995 36.9393 37.2528 35.8993 37.2528 34.634C37.2528 31.4273 39.0381 29.824 42.6088 29.824C43.3195 29.824 44.0561 29.9106 44.8188 30.084V29.486C44.8188 27.874 43.9088 27.068 42.0888 27.068C41.1008 27.068 40.0001 27.2586 38.7868 27.64ZM44.8188 35.336V32.138C44.2295 31.93 43.6748 31.826 43.1548 31.826C41.3695 31.826 40.4768 32.6666 40.4768 34.348C40.4768 35.024 40.6328 35.5613 40.9448 35.96C41.2568 36.3413 41.7161 36.532 42.3228 36.532C43.2588 36.532 44.0908 36.1333 44.8188 35.336Z" fill="#00AB4E"/>
<path d="M53.147 26.233V25.055H62.951V26.233H58.695V38.716H57.384V26.233H53.147Z" fill="#00AB4E"/>
<path d="M64.868 28.684H66.122V38.716H64.868V28.684ZM64.659 26.1C64.659 25.834 64.735 25.6313 64.887 25.492C65.039 25.34 65.2354 25.264 65.476 25.264C66.0334 25.264 66.312 25.549 66.312 26.119C66.312 26.3977 66.236 26.6193 66.084 26.784C65.932 26.936 65.7294 27.012 65.476 27.012C65.2354 27.012 65.039 26.9297 64.887 26.765C64.735 26.6003 64.659 26.3787 64.659 26.1Z" fill="#00AB4E"/>
<path d="M73.3474 29.71H70.7254V35.904C70.7254 36.3473 70.7381 36.6893 70.7634 36.93C70.8014 37.158 70.9027 37.367 71.0674 37.557C71.2321 37.747 71.4791 37.842 71.8084 37.842C72.1757 37.842 72.6507 37.7027 73.2334 37.424L73.3664 38.488C72.7584 38.792 72.1631 38.944 71.5804 38.944C70.1744 38.944 69.4714 38.1143 69.4714 36.455V29.71H68.1794V28.684H69.4714V27.05L70.7254 26.328V28.684H73.3474V29.71Z" fill="#00AB4E"/>
<path d="M75.5555 28.684H76.8095V38.716H75.5555V28.684ZM75.3465 26.1C75.3465 25.834 75.4225 25.6313 75.5745 25.492C75.7265 25.34 75.9229 25.264 76.1635 25.264C76.7209 25.264 76.9995 25.549 76.9995 26.119C76.9995 26.3977 76.9235 26.6193 76.7715 26.784C76.6195 26.936 76.4169 27.012 76.1635 27.012C75.9229 27.012 75.7265 26.9297 75.5745 26.765C75.4225 26.6003 75.3465 26.3787 75.3465 26.1Z" fill="#00AB4E"/>
<path d="M80.0829 28.684H81.3369V29.767C82.5656 28.9057 83.5726 28.475 84.3579 28.475C85.2952 28.475 86.0299 28.8487 86.5619 29.596C87.1066 30.3307 87.3789 31.4263 87.3789 32.883C87.3789 36.8983 86.0932 38.906 83.5219 38.906C82.7366 38.906 82.0146 38.697 81.3559 38.279V42.687H80.0829V28.684ZM81.3369 30.831V36.987C82.0209 37.519 82.7872 37.785 83.6359 37.785C84.2186 37.785 84.6936 37.5507 85.0609 37.082C85.4282 36.6133 85.6752 36.0687 85.8019 35.448C85.9286 34.8273 85.9919 34.137 85.9919 33.377C85.9919 31.9837 85.8209 31.021 85.4789 30.489C85.1496 29.9443 84.6682 29.672 84.0349 29.672C83.3382 29.672 82.4389 30.0583 81.3369 30.831Z" fill="#00AB4E"/>
<path d="M90.2553 29.938L90.1223 28.817C90.9456 28.589 91.902 28.475 92.9913 28.475C95.094 28.475 96.1453 29.5137 96.1453 31.591V36.968C96.1453 37.272 96.196 37.4873 96.2973 37.614C96.4113 37.7407 96.595 37.804 96.8483 37.804C97.051 37.804 97.3233 37.7407 97.6653 37.614L97.7793 38.659C97.26 38.8237 96.842 38.906 96.5253 38.906C96.082 38.906 95.7273 38.792 95.4613 38.564C95.1953 38.3233 95.0433 38.032 95.0053 37.69C94.0933 38.5007 93.1306 38.906 92.1173 38.906C91.1926 38.906 90.4896 38.6147 90.0083 38.032C89.527 37.4493 89.2863 36.7083 89.2863 35.809C89.2863 34.631 89.622 33.7633 90.2933 33.206C90.9773 32.636 91.9273 32.351 93.1433 32.351C93.7513 32.351 94.334 32.4143 94.8913 32.541V31.819C94.8913 31.0337 94.7203 30.4637 94.3783 30.109C94.0363 29.7543 93.441 29.577 92.5923 29.577C91.7943 29.577 91.0153 29.6973 90.2553 29.938ZM94.8913 36.683L94.9103 33.529C94.353 33.3897 93.8336 33.32 93.3523 33.32C92.4403 33.32 91.7563 33.51 91.3003 33.89C90.857 34.27 90.6353 34.897 90.6353 35.771C90.6353 36.3537 90.781 36.835 91.0723 37.215C91.3763 37.595 91.8196 37.785 92.4023 37.785C93.2763 37.785 94.106 37.4177 94.8913 36.683Z" fill="#00AB4E"/>
<path d="M104.292 28.475C105.8 28.475 106.68 29.1337 106.933 30.451C106.971 30.6663 106.99 31.078 106.99 31.686V38.716H105.736V31.857C105.736 31.4137 105.717 31.0717 105.679 30.831C105.527 30.033 104.945 29.634 103.931 29.634C103.007 29.634 102.031 30.1217 101.005 31.097V38.716H99.7323V28.684H101.005V29.938C102.082 28.9627 103.178 28.475 104.292 28.475Z" fill="#00AB4E"/>
<path d="M112.743 38.716V25.055H120.077V26.233H114.054V31.021H119.298V32.199H114.054V37.519H120.324V38.716H112.743Z" fill="#00AB4E"/>
<path d="M127.187 28.475C128.365 28.475 129.137 28.9183 129.505 29.805C130.531 28.9183 131.576 28.475 132.64 28.475C134.16 28.475 135.034 29.1337 135.262 30.451C135.312 30.7423 135.338 31.154 135.338 31.686V38.716H134.084V31.857C134.084 31.3883 134.058 31.0463 134.008 30.831C133.856 30.033 133.305 29.634 132.355 29.634C131.481 29.634 130.6 30.052 129.714 30.888C129.739 31.0907 129.752 31.4263 129.752 31.895V38.716H128.498V31.857C128.498 31.3883 128.472 31.0463 128.422 30.831C128.295 30.033 127.795 29.634 126.921 29.634C125.869 29.634 124.862 30.128 123.9 31.116V38.716H122.627V28.684H123.9V29.919C125.002 28.9563 126.097 28.475 127.187 28.475Z" fill="#00AB4E"/>
<path d="M138.792 29.938L138.659 28.817C139.483 28.589 140.439 28.475 141.528 28.475C143.631 28.475 144.682 29.5137 144.682 31.591V36.968C144.682 37.272 144.733 37.4873 144.834 37.614C144.948 37.7407 145.132 37.804 145.385 37.804C145.588 37.804 145.86 37.7407 146.202 37.614L146.316 38.659C145.797 38.8237 145.379 38.906 145.062 38.906C144.619 38.906 144.264 38.792 143.998 38.564C143.732 38.3233 143.58 38.032 143.542 37.69C142.63 38.5007 141.668 38.906 140.654 38.906C139.73 38.906 139.027 38.6147 138.545 38.032C138.064 37.4493 137.823 36.7083 137.823 35.809C137.823 34.631 138.159 33.7633 138.83 33.206C139.514 32.636 140.464 32.351 141.68 32.351C142.288 32.351 142.871 32.4143 143.428 32.541V31.819C143.428 31.0337 143.257 30.4637 142.915 30.109C142.573 29.7543 141.978 29.577 141.129 29.577C140.331 29.577 139.552 29.6973 138.792 29.938ZM143.428 36.683L143.447 33.529C142.89 33.3897 142.371 33.32 141.889 33.32C140.977 33.32 140.293 33.51 139.837 33.89C139.394 34.27 139.172 34.897 139.172 35.771C139.172 36.3537 139.318 36.835 139.609 37.215C139.913 37.595 140.357 37.785 140.939 37.785C141.813 37.785 142.643 37.4177 143.428 36.683Z" fill="#00AB4E"/>
<path d="M147.395 37.88L147.737 36.702C148.016 36.9553 148.421 37.2087 148.953 37.462C149.485 37.7153 149.992 37.842 150.473 37.842C151.094 37.842 151.594 37.7027 151.974 37.424C152.354 37.1453 152.544 36.74 152.544 36.208C152.544 35.714 152.373 35.3213 152.031 35.03C151.689 34.7387 151.271 34.517 150.777 34.365C150.283 34.213 149.789 34.0483 149.295 33.871C148.814 33.6937 148.402 33.3897 148.06 32.959C147.718 32.5283 147.547 31.9647 147.547 31.268C147.547 30.4067 147.858 29.729 148.478 29.235C149.099 28.7283 149.859 28.475 150.758 28.475C151.683 28.475 152.405 28.7093 152.924 29.178C153.456 29.634 153.779 30.1723 153.893 30.793L152.867 31.211C152.715 30.679 152.449 30.28 152.069 30.014C151.689 29.7353 151.246 29.596 150.739 29.596C150.207 29.596 149.758 29.729 149.39 29.995C149.023 30.261 148.839 30.6663 148.839 31.211C148.839 31.705 149.01 32.104 149.352 32.408C149.694 32.6993 150.106 32.921 150.587 33.073C151.081 33.225 151.575 33.3897 152.069 33.567C152.563 33.7317 152.981 34.0167 153.323 34.422C153.665 34.8273 153.836 35.353 153.836 35.999C153.836 36.8603 153.539 37.5697 152.943 38.127C152.361 38.6717 151.531 38.944 150.454 38.944C149.846 38.944 149.245 38.83 148.649 38.602C148.067 38.3613 147.649 38.1207 147.395 37.88Z" fill="#00AB4E"/>
<path d="M158.743 25.055H166.381V26.233H160.054V31.021H165.355V32.199H160.054V38.716H158.743V25.055Z" fill="#00AB4E"/>
<path d="M168.293 28.684H169.547V38.716H168.293V28.684ZM168.084 26.1C168.084 25.834 168.16 25.6313 168.312 25.492C168.464 25.34 168.66 25.264 168.901 25.264C169.458 25.264 169.737 25.549 169.737 26.119C169.737 26.3977 169.661 26.6193 169.509 26.784C169.357 26.936 169.154 27.012 168.901 27.012C168.66 27.012 168.464 26.9297 168.312 26.765C168.16 26.6003 168.084 26.3787 168.084 26.1Z" fill="#00AB4E"/>
<path d="M171.946 37.88L172.288 36.702C172.567 36.9553 172.972 37.2087 173.504 37.462C174.036 37.7153 174.543 37.842 175.024 37.842C175.645 37.842 176.145 37.7027 176.525 37.424C176.905 37.1453 177.095 36.74 177.095 36.208C177.095 35.714 176.924 35.3213 176.582 35.03C176.24 34.7387 175.822 34.517 175.328 34.365C174.834 34.213 174.34 34.0483 173.846 33.871C173.365 33.6937 172.953 33.3897 172.611 32.959C172.269 32.5283 172.098 31.9647 172.098 31.268C172.098 30.4067 172.408 29.729 173.029 29.235C173.65 28.7283 174.41 28.475 175.309 28.475C176.234 28.475 176.956 28.7093 177.475 29.178C178.007 29.634 178.33 30.1723 178.444 30.793L177.418 31.211C177.266 30.679 177 30.28 176.62 30.014C176.24 29.7353 175.797 29.596 175.29 29.596C174.758 29.596 174.308 29.729 173.941 29.995C173.574 30.261 173.39 30.6663 173.39 31.211C173.39 31.705 173.561 32.104 173.903 32.408C174.245 32.6993 174.657 32.921 175.138 33.073C175.632 33.225 176.126 33.3897 176.62 33.567C177.114 33.7317 177.532 34.0167 177.874 34.422C178.216 34.8273 178.387 35.353 178.387 35.999C178.387 36.8603 178.089 37.5697 177.494 38.127C176.911 38.6717 176.082 38.944 175.005 38.944C174.397 38.944 173.795 38.83 173.2 38.602C172.617 38.3613 172.199 38.1207 171.946 37.88Z" fill="#00AB4E"/>
<path d="M180.929 28.684H182.183V38.716H180.929V28.684ZM180.72 26.1C180.72 25.834 180.796 25.6313 180.948 25.492C181.1 25.34 181.296 25.264 181.537 25.264C182.094 25.264 182.373 25.549 182.373 26.119C182.373 26.3977 182.297 26.6193 182.145 26.784C181.993 26.936 181.79 27.012 181.537 27.012C181.296 27.012 181.1 26.9297 180.948 26.765C180.796 26.6003 180.72 26.3787 180.72 26.1Z" fill="#00AB4E"/>
<path d="M192.258 28.817L189.503 32.959L192.733 38.716H191.289L188.458 33.719H186.729V38.716H185.456V25.055H186.729V32.56H188.458L191.004 28.684L192.258 28.817Z" fill="#00AB4E"/>
</svg>
