<svg width="60" height="36" viewBox="0 0 60 36" fill="none" xmlns="http://www.w3.org/2000/svg">
<path fill-rule="evenodd" clip-rule="evenodd" d="M15.7241 31.6063C16.2701 31.8565 16.8467 31.9901 17.4424 32.0482C17.4767 32.0629 17.5131 32.0607 17.5495 32.0585C17.5904 32.0561 17.6314 32.0537 17.6695 32.0752H18.2119C18.2445 32.0542 18.2801 32.0563 18.3158 32.0585C18.347 32.0603 18.3781 32.0622 18.4072 32.0486C18.4364 32.0447 18.4658 32.0412 18.4951 32.0377C18.5607 32.0298 18.6264 32.0219 18.6912 32.0098C19.594 31.8404 20.2094 31.3399 20.4869 30.4492C20.6113 30.0498 20.6654 29.6393 20.6662 29.2238C20.6695 27.4582 20.6693 25.6926 20.6691 23.927C20.6691 23.4964 20.669 23.0657 20.669 22.6351C20.6689 22.4452 20.6136 22.3899 20.4203 22.3886C20.1759 22.387 19.9314 22.3874 19.687 22.3877C19.5964 22.3879 19.5059 22.388 19.4153 22.388C19.1654 22.3882 19.1392 22.4098 19.0871 22.6619C19.0721 22.6537 19.0574 22.6456 19.0428 22.6375C19.0059 22.6172 18.9699 22.5974 18.9342 22.5771C18.4391 22.2958 17.906 22.2119 17.3489 22.2956C16.5348 22.4182 15.9662 22.8946 15.6299 23.6187C14.9614 25.0589 14.9232 26.5443 15.5076 28.0123C16.0236 29.3085 17.2331 29.6028 18.2801 29.3279C18.5526 29.2564 18.7962 29.1186 19.0396 28.9511C19.0514 29.2009 19.033 29.4269 18.9867 29.6508C18.8429 30.3467 18.5044 30.6263 17.7999 30.607C17.1902 30.5904 16.6181 30.4213 16.0818 30.1322C15.871 30.0185 15.7693 30.0653 15.7267 30.3016C15.7087 30.4017 15.6909 30.5018 15.673 30.6019C15.633 30.8259 15.593 31.0498 15.5518 31.2736C15.5136 31.4803 15.528 31.5164 15.7241 31.6063ZM19.0097 26.1965C19.0099 26.0664 19.01 25.9363 19.01 25.8061C19.01 25.3865 19.01 24.967 19.0102 24.5471C19.0102 24.0192 18.9902 23.9892 18.5015 23.7836C18.487 23.7775 18.4724 23.7721 18.4577 23.7667C18.4525 23.7648 18.4472 23.7628 18.442 23.7609C17.8325 23.5319 17.3481 23.7379 17.0925 24.3366C17.0571 24.4193 17.025 24.5042 17.0017 24.5908C16.8473 25.1663 16.8197 25.7527 16.8588 26.3441C16.8846 26.7329 16.9441 27.1148 17.1293 27.4643C17.3602 27.9006 17.7419 28.0714 18.2212 27.9628C18.4933 27.9011 18.7155 27.7526 18.9228 27.5736C18.9887 27.5166 19.0125 27.4546 19.0118 27.3677C19.009 26.9773 19.0094 26.5869 19.0097 26.1965Z" fill="#044E45"/>
<path fill-rule="evenodd" clip-rule="evenodd" d="M2.32044 20.0771C2.2085 20.0767 2.12382 20.1069 2.06678 20.2042L2.06665 29.2032C2.12847 29.2944 2.21316 29.3271 2.3239 29.3258C2.59136 29.3225 2.85882 29.3231 3.12628 29.3236C3.24157 29.3238 3.35686 29.324 3.47216 29.3239C3.733 29.3238 3.77527 29.2812 3.77541 29.0163C3.77549 28.3853 3.77547 27.7543 3.77544 27.1234C3.77542 26.8079 3.77541 26.4925 3.77541 26.1771C3.77541 25.9532 3.77553 25.9532 3.98622 25.9484C3.99028 25.9483 3.99441 25.9482 3.99862 25.9481C4.19115 25.9436 4.38404 25.9469 4.57692 25.9502C5.01124 25.9576 5.44557 25.9651 5.87595 25.8835C6.96359 25.6773 7.74797 25.0889 8.14946 24.038C8.35021 23.5124 8.40166 22.9618 8.34702 22.4062C8.24971 21.4162 7.75222 20.7106 6.81681 20.3365C6.36214 20.1549 5.88433 20.0847 5.39828 20.0818C4.80809 20.0782 4.2178 20.0783 3.62751 20.0784C3.19182 20.0785 2.75612 20.0785 2.32044 20.0771ZM4.96058 21.5094C4.86922 21.5102 4.78042 21.5109 4.69526 21.5082C4.60792 21.5082 4.52459 21.5084 4.4441 21.5087C4.24513 21.5092 4.06358 21.5098 3.88203 21.5065C3.7992 21.5049 3.77368 21.53 3.77394 21.6138C3.7766 22.5486 3.7766 23.4836 3.77394 24.4185C3.77368 24.5052 3.80479 24.5254 3.88509 24.5243C4.04921 24.5222 4.21343 24.5223 4.37764 24.5224C4.665 24.5227 4.95234 24.523 5.23914 24.5108C5.97234 24.4797 6.4318 24.0761 6.57591 23.3593C6.62976 23.0918 6.63122 22.8224 6.59971 22.5509C6.53896 22.0278 6.25325 21.7013 5.74101 21.5719C5.47675 21.5052 5.20923 21.5074 4.96058 21.5094Z" fill="#044E45"/>
<path fill-rule="evenodd" clip-rule="evenodd" d="M18.5996 3.47821C18.5011 3.4806 18.4006 3.506 18.3075 3.45082C18.4032 3.45082 18.4989 3.45082 18.5947 3.45082C18.5949 3.46026 18.5965 3.4693 18.5996 3.47821Z" fill="#A7D589"/>
<path fill-rule="evenodd" clip-rule="evenodd" d="M17.5057 3.47795C17.5082 3.46904 17.5095 3.46 17.5099 3.45082C17.595 3.45082 17.6801 3.45082 17.7652 3.45082C17.6834 3.5056 17.5933 3.48007 17.5057 3.47795Z" fill="#B2DA99"/>
<path fill-rule="evenodd" clip-rule="evenodd" d="M17.4424 32.0482C17.52 32.0409 17.598 32.0301 17.6694 32.0752C17.5949 32.0752 17.5205 32.0752 17.446 32.0752C17.4458 32.0662 17.4446 32.0571 17.4424 32.0482Z" fill="#84A8A4"/>
<path fill-rule="evenodd" clip-rule="evenodd" d="M18.2118 32.0754C18.2719 32.0301 18.3398 32.0421 18.4071 32.0488C18.4059 32.0575 18.4047 32.0664 18.4032 32.0754C18.3394 32.0754 18.2756 32.0754 18.2118 32.0754Z" fill="#87AAA5"/>
<path fill-rule="evenodd" clip-rule="evenodd" d="M30.9407 29.4342C31.5606 29.4803 32.117 29.3199 32.6298 28.923C32.632 28.9521 32.6337 28.9732 32.6351 28.9906C32.6362 29.0043 32.6372 29.0158 32.638 29.0273C32.655 29.2888 32.6929 29.3239 32.96 29.3241C33.0491 29.3241 33.1382 29.3242 33.2273 29.3244C33.4679 29.3247 33.7084 29.3251 33.949 29.3235C34.1347 29.3223 34.1955 29.2602 34.1955 29.0724C34.196 26.1581 34.196 23.2435 34.1955 20.3292C34.1955 20.1409 34.1353 20.0802 33.9491 20.0794C33.6908 20.0782 33.4326 20.0785 33.1743 20.0787C33.0709 20.0788 32.9676 20.0788 32.8643 20.0788C32.5498 20.0788 32.5248 20.1033 32.5248 20.411C32.5247 20.571 32.5246 20.731 32.5244 20.891C32.5239 21.4011 32.5234 21.9112 32.5269 22.4213C32.5277 22.5517 32.5168 22.5869 32.3773 22.5187C31.4657 22.0729 30.4051 22.217 29.7059 22.8744C29.3824 23.1785 29.1584 23.5504 28.999 23.9607C28.6523 24.853 28.5865 25.7785 28.6945 26.7209C28.7658 27.3445 28.9233 27.9423 29.2817 28.4694C29.6797 29.0547 30.2297 29.3812 30.9407 29.4342ZM32.5367 26.2192C32.5369 26.0832 32.5371 25.9472 32.5371 25.8112L32.5373 24.5036C32.5373 24.0034 32.5318 23.9949 32.0737 23.7877C31.4374 23.5001 30.8877 23.7139 30.6149 24.3566C30.5818 24.4345 30.5516 24.5143 30.5291 24.5958C30.3677 25.1819 30.3447 25.7798 30.3863 26.3819C30.4124 26.76 30.477 27.1306 30.6562 27.471C30.9111 27.9551 31.3411 28.1282 31.8618 27.9592C32.0777 27.8891 32.2603 27.7643 32.4326 27.6196C32.5073 27.5569 32.5408 27.4917 32.5398 27.39C32.5355 26.9998 32.5361 26.6095 32.5367 26.2192Z" fill="#044E45"/>
<path fill-rule="evenodd" clip-rule="evenodd" d="M40.7365 26.6356C40.7366 26.508 40.7366 26.3803 40.7366 26.2526C40.7363 26.2526 40.7361 26.2526 40.7358 26.253C40.7358 26.1365 40.736 26.0201 40.7361 25.9036C40.7366 25.6318 40.737 25.3601 40.7351 25.0884C40.7326 24.7265 40.7061 24.3663 40.6407 24.0097C40.487 23.1712 40.0405 22.5863 39.1852 22.3862C38.1815 22.1512 37.1897 22.2865 36.206 22.5286C36.0796 22.5597 36.0433 22.6497 36.0573 22.7718C36.0608 22.8026 36.0644 22.8334 36.0679 22.8642C36.0967 23.1131 36.1254 23.3622 36.1482 23.6117C36.17 23.85 36.2361 23.943 36.5233 23.8614C37.1032 23.6967 37.6953 23.6016 38.3023 23.682C38.7667 23.7436 39.0141 23.9792 39.0932 24.4419C39.1015 24.49 39.1034 24.5391 39.1052 24.5883C39.1068 24.6296 39.1084 24.6709 39.1137 24.7116C39.1287 24.8253 39.0825 24.8405 38.9804 24.8235C38.457 24.7364 37.9318 24.7331 37.4101 24.8327C36.5641 24.9941 35.921 25.4195 35.64 26.2711C35.4488 26.8504 35.4388 27.4456 35.6106 28.0303C35.8339 28.7909 36.341 29.2616 37.1292 29.3999C37.9075 29.5363 38.6164 29.3573 39.2484 28.8854C39.3385 28.8182 39.3734 28.8128 39.4253 28.9227C39.5488 29.1838 39.7614 29.3424 40.0443 29.4012C40.5115 29.4981 40.963 29.4148 41.4082 29.2733C41.5184 29.2383 41.5449 29.1508 41.5351 29.0451C41.5294 28.9839 41.5234 28.9228 41.5175 28.8616C41.5009 28.69 41.4843 28.5183 41.4727 28.3464C41.4449 27.9347 41.4272 27.9189 41.0303 28.0048C40.8334 28.0472 40.7677 28.0019 40.7436 27.7999C40.7366 27.7406 40.7367 27.6805 40.7367 27.6206C40.7367 27.6113 40.7367 27.602 40.7367 27.5928C40.7364 27.2737 40.7365 26.9547 40.7365 26.6356ZM39.11 26.9891C39.1113 26.9358 39.1126 26.8825 39.1126 26.8293C39.1126 26.7674 39.1124 26.7055 39.1121 26.6436C39.1113 26.4877 39.1106 26.3317 39.1145 26.1759C39.1166 26.0904 39.0887 26.0586 39.0035 26.04C38.7256 25.9793 38.4458 25.9602 38.1643 25.9871C37.5965 26.0412 37.3026 26.2852 37.2097 26.7776C37.172 26.977 37.1706 27.1807 37.2041 27.3807C37.2858 27.8695 37.5816 28.0984 38.0746 28.0589C38.4028 28.0325 38.6815 27.8852 38.9439 27.6965C39.0637 27.6103 39.1343 27.5169 39.1169 27.3548C39.1039 27.234 39.107 27.1115 39.11 26.9891Z" fill="#044E45"/>
<path fill-rule="evenodd" clip-rule="evenodd" d="M50.7568 26.576C50.7568 26.4644 50.7568 26.3527 50.7568 26.241L50.7561 26.2412C50.7561 26.1247 50.7563 26.0083 50.7564 25.8918C50.7566 25.6201 50.7569 25.3484 50.7557 25.0767C50.7543 24.7146 50.7254 24.3548 50.6602 23.9983C50.488 23.0603 49.9452 22.511 49.0252 22.3432C48.4494 22.2382 47.8721 22.2521 47.2946 22.3247C46.9467 22.3685 46.6014 22.427 46.2616 22.5149C46.1307 22.5486 46.0601 22.6202 46.0778 22.7659C46.0951 22.9094 46.1104 23.0532 46.1256 23.197C46.1406 23.3386 46.1556 23.4801 46.1726 23.6214C46.2062 23.9 46.2643 23.9313 46.5375 23.8595C47.1209 23.7064 47.7101 23.6025 48.3171 23.6815C48.8187 23.7468 49.0962 24.0421 49.128 24.5464C49.1295 24.5702 49.1293 24.5942 49.1291 24.6181C49.1288 24.6529 49.1286 24.6876 49.1335 24.7217C49.1499 24.835 49.0955 24.8387 49.0052 24.8238C48.4763 24.7366 47.9459 24.7322 47.4193 24.8347C46.5402 25.0059 45.8927 25.4633 45.6332 26.3578C45.4778 26.8934 45.4701 27.4393 45.6178 27.9795C45.8347 28.7723 46.3454 29.2604 47.1602 29.4017C47.9322 29.5356 48.6374 29.3576 49.264 28.8883C49.3661 28.8118 49.3978 28.822 49.451 28.9328C49.5705 29.1817 49.7751 29.3364 50.0446 29.3965C50.5166 29.5018 50.9732 29.4162 51.4242 29.2751C51.5178 29.2458 51.5629 29.1781 51.5548 29.0814C51.552 29.0489 51.5493 29.0165 51.5466 28.984C51.5223 28.6935 51.4979 28.4029 51.4678 28.1129C51.4541 27.9814 51.3661 27.9335 51.2399 27.9563C51.2084 27.9619 51.1774 27.9706 51.1464 27.9793C51.1263 27.9849 51.1062 27.9905 51.0859 27.9954C50.8442 28.0529 50.7797 28.0061 50.7604 27.7564C50.7566 27.7075 50.7567 27.6583 50.7569 27.6091C50.7569 27.5998 50.7569 27.5904 50.7569 27.581C50.7567 27.246 50.7568 26.911 50.7568 26.576ZM49.1302 26.9877C49.1314 26.9355 49.1326 26.8833 49.1326 26.8313C49.1326 26.7687 49.1323 26.7061 49.1321 26.6435C49.1314 26.4883 49.1307 26.3331 49.1342 26.178C49.1361 26.0945 49.1128 26.0589 49.0255 26.04C48.7476 25.98 48.4679 25.9606 48.1864 25.9868C47.6706 26.0348 47.3676 26.2505 47.259 26.6518C47.1859 26.9219 47.1804 27.1978 47.246 27.4715C47.3438 27.8797 47.6108 28.0797 48.0294 28.0638C48.3771 28.0508 48.6709 27.902 48.9503 27.7082C49.0834 27.6157 49.153 27.5116 49.1361 27.3409C49.1246 27.224 49.1274 27.1059 49.1302 26.9877Z" fill="#044E45"/>
<path fill-rule="evenodd" clip-rule="evenodd" d="M27.1597 26.3879C27.1597 26.2804 27.1597 26.1694 27.1597 26.0541C27.1561 25.8948 27.1568 25.7279 27.1574 25.5554C27.1592 25.0962 27.1611 24.5981 27.0837 24.1019C26.9384 23.1669 26.4608 22.5871 25.609 22.3859C24.6058 22.149 23.6138 22.2866 22.63 22.5282C22.5095 22.5577 22.4723 22.6414 22.4847 22.7569C22.4958 22.8606 22.5065 22.9644 22.5173 23.0683C22.5399 23.2869 22.5625 23.5055 22.5888 23.7236C22.6057 23.8635 22.7015 23.9203 22.8403 23.8863C22.8743 23.8779 22.908 23.8684 22.9417 23.8588C22.9795 23.8481 23.0173 23.8374 23.0554 23.8284C23.6058 23.6982 24.1593 23.6044 24.7279 23.6816C25.1677 23.7413 25.4313 23.9732 25.5091 24.3793C25.521 24.4413 25.5255 24.5047 25.5299 24.5682C25.5329 24.611 25.5359 24.6538 25.5412 24.6963C25.5552 24.8076 25.5233 24.8436 25.4026 24.8232C24.8794 24.735 24.354 24.7327 23.8325 24.8328C22.9733 24.9977 22.3267 25.4343 22.0542 26.3033C21.8754 26.8734 21.8668 27.4559 22.0372 28.0317C22.2629 28.7946 22.7693 29.2612 23.556 29.3997C24.3405 29.5379 25.0528 29.352 25.6883 28.8757C25.7667 28.8169 25.7954 28.8082 25.8422 28.9082C25.9697 29.1803 26.1888 29.3463 26.4848 29.4044C26.9469 29.4953 27.3933 29.4138 27.833 29.2727C27.943 29.2375 27.9684 29.1513 27.9579 29.0443C27.9316 28.7747 27.9076 28.5046 27.8846 28.2346C27.8604 27.9513 27.8104 27.9154 27.5326 27.9875C27.2424 28.0629 27.1884 28.0238 27.1656 27.7188C27.1609 27.6552 27.16 27.5913 27.16 27.5276C27.1597 27.1647 27.1597 26.8017 27.1597 26.3879ZM25.5413 26.9971C25.5413 26.9362 25.5414 26.8752 25.5414 26.8142C25.5414 26.7526 25.5409 26.6909 25.5405 26.6292C25.5394 26.4836 25.5383 26.3379 25.5432 26.1926C25.5467 26.0924 25.5117 26.0579 25.4141 26.0372C25.1464 25.9803 24.8768 25.9602 24.6062 25.9864C24.2402 26.0218 23.8942 26.1167 23.7275 26.4902C23.5578 26.8702 23.5533 27.265 23.7124 27.6511C23.8191 27.9096 24.0258 28.0465 24.3066 28.0613C24.7712 28.0856 25.1483 27.8862 25.489 27.5941C25.5412 27.5494 25.5419 27.4954 25.5416 27.4361C25.541 27.2898 25.5411 27.1435 25.5413 26.9971Z" fill="#044E45"/>
<path fill-rule="evenodd" clip-rule="evenodd" d="M54.1549 22.9119C54.5261 22.6613 54.8897 22.469 55.2949 22.3632C55.7509 22.244 56.2084 22.2322 56.6667 22.3396C57.4066 22.513 57.8888 23.0683 57.9693 23.8271C57.9911 24.0336 58 24.2404 58 24.4478C57.9996 25.9788 57.9999 27.5099 57.9997 29.041C57.9997 29.2721 57.9493 29.3237 57.722 29.3241C57.3499 29.3247 56.9778 29.325 56.6058 29.3239C56.398 29.3234 56.3414 29.2665 56.3414 29.0593C56.3408 27.5866 56.341 26.1141 56.3407 24.6414C56.3407 24.4978 56.3395 24.3547 56.3109 24.2127C56.2601 23.9601 56.1239 23.8255 55.8686 23.7768C55.3861 23.6848 54.9752 23.8585 54.5749 24.103C54.3281 24.2536 54.2218 24.4286 54.2264 24.7394C54.248 26.1691 54.236 27.5994 54.2359 29.0296C54.2359 29.2793 54.1907 29.3239 53.9384 29.3241C53.5662 29.3243 53.1941 29.3251 52.8221 29.3238C52.624 29.323 52.5682 29.2669 52.5682 29.0669C52.5677 26.9245 52.5677 24.7819 52.5682 22.6395C52.5683 22.4375 52.6181 22.3896 52.8269 22.3886C53.1724 22.3868 53.5178 22.3872 53.8635 22.3884C54.0859 22.3891 54.1319 22.4354 54.1411 22.6581C54.144 22.7312 54.1489 22.8043 54.1549 22.9119Z" fill="#044E45"/>
<path fill-rule="evenodd" clip-rule="evenodd" d="M11.8779 26.2452C12.018 26.2451 12.158 26.2449 12.298 26.2449C12.4444 26.2449 12.5908 26.2448 12.7372 26.2447C13.1275 26.2443 13.518 26.244 13.9083 26.246C14.0513 26.2468 14.1525 26.2025 14.1546 26.0445C14.1635 25.3584 14.1608 24.6725 13.9663 24.0055C13.7537 23.2769 13.36 22.7 12.6154 22.4242C12.2766 22.2987 11.9249 22.2616 11.5664 22.2698C10.3887 22.2968 9.53968 22.8894 9.15281 24.0017C8.75344 25.1503 8.77072 26.3204 9.08766 27.4838C9.31314 28.3113 9.78949 28.9597 10.6211 29.2529C11.7471 29.6498 12.8478 29.4971 13.9129 28.9966C14.0133 28.9495 14.046 28.8715 14.0371 28.7635C14.0105 28.4405 13.9878 28.1173 13.9651 27.7939C13.9463 27.5292 13.8426 27.4719 13.6001 27.5934C13.0557 27.8663 12.4871 28.0382 11.8698 27.9962C11.384 27.9632 11.0309 27.7257 10.8079 27.2937C10.6591 27.0057 10.605 26.6932 10.5634 26.3761C10.549 26.2656 10.5836 26.242 10.6875 26.2429C11.0843 26.2461 11.4811 26.2457 11.8779 26.2452ZM11.3014 25.0193C11.3819 25.0199 11.4625 25.0206 11.543 25.0206C11.616 25.0205 11.6889 25.0204 11.7619 25.0202C11.9809 25.0198 12.1999 25.0194 12.4188 25.0219C12.4955 25.0227 12.5372 25.0122 12.5267 24.919C12.5249 24.9027 12.5231 24.8865 12.5213 24.8702C12.4974 24.6543 12.4735 24.4388 12.3982 24.233C12.2764 23.9007 12.0694 23.6613 11.693 23.6319C11.3269 23.6033 11.0434 23.7545 10.8459 24.062C10.6879 24.308 10.62 24.5839 10.5812 24.8707C10.5655 24.9868 10.5864 25.0288 10.7149 25.0237C10.9102 25.0162 11.1058 25.0178 11.3014 25.0193Z" fill="#044E45"/>
<path fill-rule="evenodd" clip-rule="evenodd" d="M42.5469 25.8508C42.5469 24.7928 42.5467 23.735 42.547 22.677C42.547 22.429 42.5869 22.3887 42.8324 22.3883C43.2046 22.3876 43.5767 22.3868 43.9487 22.3887C44.1497 22.3896 44.205 22.4447 44.2051 22.6464C44.2059 24.7835 44.2059 26.9206 44.2051 29.0579C44.2051 29.2662 44.1471 29.3233 43.9395 29.3239C43.562 29.3251 43.1846 29.3251 42.8072 29.3239C42.5995 29.3233 42.5473 29.2696 42.5471 29.0567C42.5465 27.9879 42.5469 26.9193 42.5469 25.8508Z" fill="#044E45"/>
<path fill-rule="evenodd" clip-rule="evenodd" d="M44.325 20.8587C44.335 21.4521 43.9676 21.841 43.386 21.8519C42.8213 21.8624 42.4118 21.4593 42.4064 20.8873C42.4009 20.3254 42.7853 19.9286 43.3438 19.919C43.9491 19.9087 44.3148 20.2588 44.325 20.8587Z" fill="#044E45"/>
<path fill-rule="evenodd" clip-rule="evenodd" d="M21.5949 14.8987C20.7452 14.1714 20.1158 13.2874 19.7008 12.2483C19.3261 11.3101 19.1832 10.3335 19.2506 9.33239C19.3431 7.96016 19.8179 6.72579 20.668 5.63951C20.9649 5.26009 21.3044 4.92284 21.6657 4.60605C22.4291 3.99461 23.275 3.54605 24.224 3.29356C27.9534 2.30117 31.7679 4.67146 32.5226 8.45325C33.2349 12.0222 31.0379 15.4881 27.4864 16.3184C25.304 16.8286 23.3285 16.3279 21.5949 14.8987Z" fill="#0AA94E"/>
<path fill-rule="evenodd" clip-rule="evenodd" d="M12.9793 14.8893C12.3949 15.4022 11.7263 15.7728 10.9984 16.0337C7.24381 17.3794 3.19167 15.218 2.20453 11.3472C1.26204 7.65195 3.67557 3.84624 7.414 3.12638C7.69535 3.07218 7.9814 3.05849 8.26151 3C8.5712 3 8.88089 3 9.19059 3C9.53471 3.03236 9.88062 3.04024 10.22 3.12237C11.2122 3.36242 12.1137 3.78664 12.9137 4.42284C12.9482 4.45022 12.9834 4.47759 13.0099 4.51368C13.0186 4.52959 13.0212 4.54645 13.0181 4.56429C12.9835 4.64311 12.9169 4.69427 12.8553 4.7493C11.6466 5.83365 10.9276 7.1832 10.697 8.7869C10.4941 10.1973 10.7337 11.5388 11.3875 12.8043C11.6474 13.3076 11.98 13.7598 12.3499 14.1899C12.5491 14.4216 12.8051 14.5927 12.986 14.8391C12.9907 14.8567 12.9885 14.8736 12.9793 14.8893Z" fill="#BCD430"/>
<path fill-rule="evenodd" clip-rule="evenodd" d="M12.9793 14.8893C12.9765 14.8763 12.9736 14.8632 12.971 14.8502C13.3309 14.5164 13.6883 14.1811 13.9894 13.7901C14.7281 12.8314 15.1676 11.7526 15.3234 10.5525C15.5026 9.17241 15.2517 7.87042 14.6255 6.63757C14.3696 6.13384 14.045 5.67408 13.6621 5.25525C13.5055 5.08379 13.35 4.91371 13.1708 4.76507C13.1046 4.71017 13.0306 4.65486 13.0067 4.56263C13.005 4.55655 13.0049 4.55033 13.0061 4.54424C13.0165 4.46916 13.0809 4.43736 13.1307 4.39795C13.8098 3.86172 14.568 3.4776 15.3955 3.2287C15.8301 3.0979 16.2717 3.00996 16.7285 3.01715C16.8149 3.00747 16.9037 3.03747 16.9882 3C17.1762 3 17.3642 3 17.5522 3C17.6503 3.04397 17.757 2.99378 17.856 3.02848C19.2298 3.13772 20.4461 3.63979 21.5203 4.49695C21.5676 4.5347 21.6171 4.56968 21.6656 4.60605C21.6709 4.6709 21.6251 4.70533 21.5835 4.74142C20.8983 5.33628 20.3561 6.04258 19.9549 6.85508C19.6012 7.57092 19.3924 8.3288 19.3165 9.1247C19.1904 10.4476 19.4228 11.7009 20.0361 12.8799C20.4071 13.593 20.8994 14.2148 21.4913 14.7581C21.5343 14.7975 21.5966 14.8253 21.5947 14.8987C21.5275 14.9162 21.4826 14.9679 21.4307 15.0078C20.1459 16.0011 18.6887 16.4806 17.069 16.429C15.5952 16.3821 14.2766 15.8857 13.1167 14.9723C13.0748 14.9393 13.0428 14.8877 12.9793 14.8893Z" fill="#74BD45"/>
<path fill-rule="evenodd" clip-rule="evenodd" d="M13.0069 4.56263C14.0266 5.41827 14.7355 6.48104 15.1283 7.75316C15.278 8.23795 15.3612 8.7338 15.4012 9.24113C15.5002 10.5001 15.2378 11.6812 14.6737 12.8017C14.2915 13.5607 13.7552 14.201 13.1303 14.7707C13.0852 14.8118 13.0367 14.8488 12.9712 14.8503C11.6969 13.7554 10.9027 12.3806 10.6644 10.7189C10.3706 8.66992 10.9138 6.84733 12.2689 5.27433C12.4928 5.01396 12.7359 4.77377 13.0069 4.56263Z" fill="#0AA94E"/>
<path fill-rule="evenodd" clip-rule="evenodd" d="M22.9755 7.57449C22.8227 7.66575 22.7059 7.7335 22.5911 7.80444C22.4292 7.90441 22.3673 7.89266 22.2664 7.73807C22.1789 7.60422 22.2494 7.52637 22.3607 7.45599C23.0586 7.01448 23.8107 6.70751 24.6217 6.55112C26.3896 6.21028 28.0181 6.60325 29.5508 7.49526C29.6518 7.55402 29.7004 7.61929 29.6344 7.73599C29.567 7.8556 29.4888 7.93386 29.3435 7.85422C29.2199 7.78646 29.0966 7.71871 28.9361 7.63049C29.0807 7.96608 29.2082 8.26309 29.3368 8.55969C29.822 9.67805 30.3077 10.7963 30.7933 11.9145C30.9127 12.1897 30.8779 12.3794 30.6568 12.5862C30.3853 12.8402 30.046 12.9569 29.6921 13.0331C28.8768 13.2087 28.0684 13.1916 27.2732 12.9222C27.0734 12.8546 26.8859 12.7599 26.7257 12.6195C26.4793 12.4037 26.432 12.1953 26.5614 11.8969C27.1848 10.4597 27.8074 9.02194 28.4353 7.58679C28.4899 7.46207 28.4851 7.40801 28.3467 7.35242C26.7539 6.71332 25.1587 6.66589 23.5533 7.30582C23.4079 7.36362 23.3775 7.40897 23.4444 7.56135C24.0764 9.00092 24.699 10.4445 25.3244 11.887C25.4635 12.2076 25.4131 12.4247 25.1382 12.6436C24.873 12.8549 24.5609 12.9648 24.2343 13.0342C23.4245 13.2064 22.6215 13.1921 21.8311 12.9271C21.6257 12.8582 21.4328 12.7627 21.2687 12.6179C21.019 12.3978 20.9735 12.1982 21.1054 11.894C21.7023 10.5174 22.3001 9.14113 22.8974 7.76475C22.9185 7.7158 22.9379 7.6663 22.9755 7.57449Z" fill="#FEFEFE"/>
<path fill-rule="evenodd" clip-rule="evenodd" d="M27.0397 11.7522C27.5856 10.4917 28.1237 9.24889 28.675 7.97594C29.2278 9.2529 29.7655 10.4951 30.3097 11.7522C29.2111 11.7522 28.1353 11.7522 27.0397 11.7522Z" fill="#0AA94E"/>
<path fill-rule="evenodd" clip-rule="evenodd" d="M23.218 7.97633C23.7715 9.25329 24.3102 10.4964 24.8546 11.7522C23.7619 11.7522 22.6864 11.7522 21.584 11.7522C22.1258 10.5001 22.6636 9.25744 23.218 7.97633Z" fill="#0AA94E"/>
</svg>
