<svg width="240" height="48" viewBox="0 0 240 48" fill="none" xmlns="http://www.w3.org/2000/svg">
<path d="M2.26494 6.74353V9.35247H1V2.24706H3.49035C4.24141 2.24706 4.82447 2.42164 5.23953 2.77082C5.65459 3.12 5.86212 3.62729 5.86212 4.29271C5.86212 5.03718 5.63482 5.63341 5.18023 6.08141C4.73223 6.52282 4.12612 6.74353 3.36188 6.74353H2.26494ZM2.26494 5.76518H3.22353C3.66494 5.76518 3.99765 5.64988 4.22165 5.41929C4.45224 5.18212 4.56753 4.83953 4.56753 4.39153C4.56753 3.60753 4.15247 3.21553 3.32235 3.21553H2.26494V5.76518ZM10.2525 6.93129H7.43602C7.44266 7.42541 7.55461 7.80424 7.77202 8.06776C7.98944 8.32471 8.28922 8.45318 8.67132 8.45318C9.13911 8.45318 9.61014 8.32139 10.0845 8.05788L10.1537 9.09553C9.70572 9.33927 9.16875 9.46118 8.54285 9.46118C6.96827 9.46118 6.18098 8.52892 6.18098 6.66447C6.18098 5.75529 6.37533 5.08329 6.76404 4.64847C7.15933 4.20706 7.67652 3.98635 8.31555 3.98635C9.60689 3.98635 10.2525 4.80988 10.2525 6.45694V6.93129ZM9.08638 6.16047C9.08638 5.31717 8.82287 4.89553 8.29579 4.89553C8.01252 4.89553 7.79842 5.01412 7.65344 5.25129C7.51508 5.48847 7.44591 5.79153 7.44591 6.16047H9.08638ZM14.1092 4.42118L14.1586 4.08518H15.2654V9.27341C15.2654 10.8019 14.5605 11.5661 13.1506 11.5661C12.4457 11.5661 11.8296 11.4376 11.3026 11.1807L11.4903 10.1035C11.6946 10.2287 11.9417 10.3308 12.2315 10.4099C12.528 10.4955 12.8014 10.5384 13.0517 10.5384C13.7304 10.5384 14.0696 10.097 14.0696 9.21412V8.89788C13.7468 9.24708 13.3318 9.42165 12.8244 9.42165C12.2513 9.42165 11.7934 9.20092 11.4508 8.75953C11.1148 8.31151 10.9468 7.64612 10.9468 6.76329C10.9468 6.27576 11.0094 5.83106 11.1346 5.42918C11.2664 5.0273 11.4838 4.688 11.7868 4.41129C12.0965 4.128 12.472 3.98635 12.9134 3.98635C13.3548 3.98635 13.7534 4.13129 14.1092 4.42118ZM14.0301 8.03812V5.28094C13.7205 5.05694 13.4438 4.94494 13.2 4.94494C12.5544 4.94494 12.2315 5.55765 12.2315 6.78306C12.2315 7.88988 12.5445 8.44329 13.1703 8.44329C13.4734 8.44329 13.76 8.30826 14.0301 8.03812ZM16.7863 5.14259L16.638 4.22353C17.1124 4.06541 17.6559 3.98635 18.2686 3.98635C18.9934 3.98635 19.5072 4.15106 19.8103 4.48047C20.1133 4.80329 20.2649 5.39623 20.2649 6.25929V8.11718C20.2649 8.39388 20.3637 8.53224 20.5613 8.53224C20.6536 8.53224 20.759 8.50915 20.8776 8.46306L20.9665 9.29318C20.7161 9.39856 20.4362 9.45129 20.1265 9.45129C19.6522 9.45129 19.3623 9.25033 19.2569 8.84847C18.8286 9.25033 18.3312 9.45129 17.7646 9.45129C17.2573 9.45129 16.8687 9.29649 16.5985 8.98682C16.335 8.67715 16.2032 8.28186 16.2032 7.80094C16.2032 6.58212 16.8818 5.97271 18.239 5.97271C18.5091 5.97271 18.7891 6.00565 19.079 6.07153V5.84424C19.079 5.23153 18.7331 4.92518 18.0413 4.92518C17.6658 4.92518 17.2474 4.99765 16.7863 5.14259ZM19.079 8.06776V6.85223C18.855 6.77318 18.6442 6.73365 18.4465 6.73365C17.768 6.73365 17.4286 7.05318 17.4286 7.69223C17.4286 7.94918 17.4879 8.15339 17.6065 8.30494C17.7251 8.44986 17.8997 8.52235 18.1303 8.52235C18.486 8.52235 18.8023 8.3708 19.079 8.06776ZM24.4207 4.32235V2.24706H25.656V9.35247H24.5492L24.5096 8.888C24.1473 9.26353 23.7158 9.45129 23.215 9.45129C22.6419 9.45129 22.184 9.224 21.8414 8.76941C21.5054 8.31482 21.3374 7.64612 21.3374 6.76329C21.3374 6.27576 21.4033 5.83106 21.535 5.42918C21.6668 5.0207 21.8876 4.67812 22.1972 4.40141C22.5068 4.12471 22.8889 3.98635 23.3435 3.98635C23.7388 3.98635 24.0979 4.09836 24.4207 4.32235ZM24.4306 8.07765V5.26118C24.121 5.03718 23.8475 4.92518 23.6103 4.92518C22.9515 4.92518 22.6221 5.54447 22.6221 6.78306C22.6221 7.33647 22.7045 7.75812 22.8692 8.048C23.0339 8.33791 23.2678 8.48282 23.5708 8.48282C23.8739 8.48282 24.1605 8.34779 24.4306 8.07765ZM27.1769 5.14259L27.0286 4.22353C27.503 4.06541 28.0465 3.98635 28.6592 3.98635C29.384 3.98635 29.8978 4.15106 30.2009 4.48047C30.504 4.80329 30.6555 5.39623 30.6555 6.25929V8.11718C30.6555 8.39388 30.7543 8.53224 30.9519 8.53224C31.0442 8.53224 31.1496 8.50915 31.2682 8.46306L31.3571 9.29318C31.1068 9.39856 30.8268 9.45129 30.5171 9.45129C30.0428 9.45129 29.7529 9.25033 29.6475 8.84847C29.2193 9.25033 28.7218 9.45129 28.1552 9.45129C27.648 9.45129 27.2592 9.29649 26.9891 8.98682C26.7256 8.67715 26.5938 8.28186 26.5938 7.80094C26.5938 6.58212 27.2724 5.97271 28.6296 5.97271C28.8997 5.97271 29.1797 6.00565 29.4696 6.07153V5.84424C29.4696 5.23153 29.1237 4.92518 28.4319 4.92518C28.0564 4.92518 27.6381 4.99765 27.1769 5.14259ZM29.4696 8.06776V6.85223C29.2456 6.77318 29.0348 6.73365 28.8371 6.73365C28.1585 6.73365 27.8192 7.05318 27.8192 7.69223C27.8192 7.94918 27.8785 8.15339 27.9971 8.30494C28.1157 8.44986 28.2903 8.52235 28.5209 8.52235C28.8766 8.52235 29.1929 8.3708 29.4696 8.06776ZM32.0914 4.08518H33.3267V9.35247H32.0914V4.08518ZM31.9925 2.71153C31.9925 2.48753 32.0584 2.31294 32.1902 2.18776C32.3219 2.06259 32.4932 2 32.7041 2C32.9346 2 33.1125 2.06259 33.2377 2.18776C33.3629 2.30635 33.4255 2.48094 33.4255 2.71153C33.4255 2.94212 33.3563 3.12 33.218 3.24518C33.0862 3.36376 32.9148 3.42306 32.7041 3.42306C32.4867 3.42306 32.312 3.36047 32.1803 3.23529C32.0551 3.10353 31.9925 2.92894 31.9925 2.71153ZM34.846 5.14259L34.6978 4.22353C35.1721 4.06541 35.7156 3.98635 36.3284 3.98635C37.053 3.98635 37.5669 4.15106 37.87 4.48047C38.173 4.80329 38.3246 5.39623 38.3246 6.25929V8.11718C38.3246 8.39388 38.4234 8.53224 38.6211 8.53224C38.7132 8.53224 38.8187 8.50915 38.9373 8.46306L39.0262 9.29318C38.7759 9.39856 38.4958 9.45129 38.1862 9.45129C37.7119 9.45129 37.422 9.25033 37.3166 8.84847C36.8883 9.25033 36.3909 9.45129 35.8244 9.45129C35.317 9.45129 34.9283 9.29649 34.6582 8.98682C34.3947 8.67715 34.2629 8.28186 34.2629 7.80094C34.2629 6.58212 34.9415 5.97271 36.2987 5.97271C36.5688 5.97271 36.8488 6.00565 37.1387 6.07153V5.84424C37.1387 5.23153 36.7928 4.92518 36.1011 4.92518C35.7255 4.92518 35.3072 4.99765 34.846 5.14259ZM37.1387 8.06776V6.85223C36.9147 6.77318 36.7039 6.73365 36.5062 6.73365C35.8276 6.73365 35.4884 7.05318 35.4884 7.69223C35.4884 7.94918 35.5476 8.15339 35.6662 8.30494C35.7848 8.44986 35.9594 8.52235 36.19 8.52235C36.5458 8.52235 36.862 8.3708 37.1387 8.06776ZM40.887 4.08518L40.9265 4.60894C41.4009 4.19388 41.9214 3.98635 42.4879 3.98635C43.3378 3.98635 43.8188 4.352 43.9308 5.08329C43.9572 5.248 43.9703 5.46871 43.9703 5.74541V9.35247H42.735V5.90353C42.735 5.6993 42.7318 5.56423 42.7251 5.49835C42.6856 5.17553 42.4682 5.01412 42.0729 5.01412C41.7303 5.01412 41.3746 5.17882 41.0056 5.50823V9.35247H39.7604V4.08518H40.887Z" fill="#004D43"/>
<path d="M1.69446 26.5054V13.3097H4.04363V24.6334H9.58622V26.5054H1.69446ZM11.607 18.6871L11.3317 16.9802C12.2127 16.6866 13.2221 16.5398 14.36 16.5398C15.7059 16.5398 16.6602 16.8457 17.223 17.4574C17.7859 18.057 18.0673 19.1582 18.0673 20.7609V24.2113C18.0673 24.7252 18.2508 24.9821 18.6178 24.9821C18.7892 24.9821 18.9849 24.9393 19.2051 24.8537L19.3703 26.3953C18.9054 26.5911 18.3854 26.6889 17.8103 26.6889C16.9294 26.6889 16.3911 26.3158 16.1953 25.5694C15.4 26.3158 14.4762 26.6889 13.424 26.6889C12.4819 26.6889 11.76 26.4014 11.2583 25.8264C10.7689 25.2513 10.5242 24.5172 10.5242 23.624C10.5242 21.3605 11.7845 20.2287 14.3049 20.2287C14.8066 20.2287 15.3266 20.2899 15.8649 20.4122V19.9901C15.8649 18.8522 15.2226 18.2833 13.9378 18.2833C13.2404 18.2833 12.4635 18.4179 11.607 18.6871ZM15.8649 24.1195V21.8621C15.4489 21.7153 15.0574 21.6419 14.6903 21.6419C13.4301 21.6419 12.8 22.2353 12.8 23.4221C12.8 23.8993 12.9101 24.2786 13.1303 24.56C13.3506 24.8292 13.6748 24.9638 14.103 24.9638C14.7637 24.9638 15.351 24.6824 15.8649 24.1195ZM25.7554 16.7233L27.9945 16.9619C26.979 20.6203 25.9451 23.6791 24.8929 26.1384C24.5747 26.8848 24.2934 27.4843 24.0486 27.9369C23.8162 28.4019 23.5225 28.8607 23.1677 29.3134C22.8128 29.7662 22.4091 30.0965 21.9564 30.3045C21.5159 30.5125 21.0142 30.6165 20.4514 30.6165C19.4115 30.6165 18.451 30.384 17.57 29.9191L18.1573 28.0287C19.0016 28.4692 19.699 28.6894 20.2496 28.6894C20.7757 28.6894 21.1856 28.4998 21.4792 28.1205C21.7851 27.7534 22.1154 27.105 22.4703 26.1751L19.075 16.9435L21.5159 16.7233L22.8924 21.0729C23.2717 22.3087 23.5531 23.2325 23.7366 23.8442C24.2383 22.3883 24.9112 20.0146 25.7554 16.7233ZM29.5588 18.6871L29.2835 16.9802C30.1645 16.6866 31.1739 16.5398 32.3118 16.5398C33.6577 16.5398 34.612 16.8457 35.1748 17.4574C35.7376 18.057 36.019 19.1582 36.019 20.7609V24.2113C36.019 24.7252 36.2026 24.9821 36.5696 24.9821C36.741 24.9821 36.9367 24.9393 37.1569 24.8537L37.3221 26.3953C36.8571 26.5911 36.3372 26.6889 35.7621 26.6889C34.8812 26.6889 34.3428 26.3158 34.147 25.5694C33.3517 26.3158 32.428 26.6889 31.3758 26.6889C30.4336 26.6889 29.7118 26.4014 29.2101 25.8264C28.7207 25.2513 28.476 24.5172 28.476 23.624C28.476 21.3605 29.7362 20.2287 32.2567 20.2287C32.7584 20.2287 33.2783 20.2899 33.8167 20.4122V19.9901C33.8167 18.8522 33.1743 18.2833 31.8896 18.2833C31.1922 18.2833 30.4153 18.4179 29.5588 18.6871ZM33.8167 24.1195V21.8621C33.4007 21.7153 33.0092 21.6419 32.6421 21.6419C31.3819 21.6419 30.7518 22.2353 30.7518 23.4221C30.7518 23.8993 30.8619 24.2786 31.0821 24.56C31.3023 24.8292 31.6266 24.9638 32.0548 24.9638C32.7155 24.9638 33.3028 24.6824 33.8167 24.1195ZM40.7595 16.7233L40.833 17.696C41.7139 16.9252 42.6805 16.5398 43.7327 16.5398C45.3111 16.5398 46.2043 17.2188 46.4122 18.5769C46.4612 18.8829 46.4857 19.2927 46.4857 19.8066V26.5054H44.1915V20.1002C44.1915 19.721 44.1855 19.4702 44.1732 19.3478C44.0998 18.7483 43.696 18.4485 42.9619 18.4485C42.3257 18.4485 41.665 18.7544 40.9798 19.3661V26.5054H38.6673V16.7233H40.7595ZM49.2849 18.6871L49.0096 16.9802C49.8906 16.6866 50.9 16.5398 52.0378 16.5398C53.3837 16.5398 54.3381 16.8457 54.9009 17.4574C55.4638 18.057 55.7451 19.1582 55.7451 20.7609V24.2113C55.7451 24.7252 55.9287 24.9821 56.2957 24.9821C56.4671 24.9821 56.6628 24.9393 56.883 24.8537L57.0482 26.3953C56.5833 26.5911 56.0633 26.6889 55.4882 26.6889C54.6073 26.6889 54.069 26.3158 53.8731 25.5694C53.0779 26.3158 52.1541 26.6889 51.1019 26.6889C50.1598 26.6889 49.4379 26.4014 48.9362 25.8264C48.4468 25.2513 48.2021 24.5172 48.2021 23.624C48.2021 21.3605 49.4624 20.2287 51.9828 20.2287C52.4845 20.2287 53.0045 20.2899 53.5428 20.4122V19.9901C53.5428 18.8522 52.9004 18.2833 51.6157 18.2833C50.9183 18.2833 50.1414 18.4179 49.2849 18.6871ZM53.5428 24.1195V21.8621C53.1268 21.7153 52.7353 21.6419 52.3682 21.6419C51.108 21.6419 50.4778 22.2353 50.4778 23.4221C50.4778 23.8993 50.588 24.2786 50.8082 24.56C51.0284 24.8292 51.3527 24.9638 51.7809 24.9638C52.4416 24.9638 53.0289 24.6824 53.5428 24.1195ZM60.4856 16.7233L60.559 17.696C61.44 16.9252 62.4066 16.5398 63.4588 16.5398C65.0372 16.5398 65.9304 17.2188 66.1383 18.5769C66.1873 18.8829 66.2118 19.2927 66.2118 19.8066V26.5054H63.9176V20.1002C63.9176 19.721 63.9116 19.4702 63.8993 19.3478C63.8259 18.7483 63.4221 18.4485 62.688 18.4485C62.0518 18.4485 61.3911 18.7544 60.7059 19.3661V26.5054H58.3934V16.7233H60.4856ZM75.241 21.6602V26.5054H72.8919V13.3097H77.5168C78.9116 13.3097 79.9945 13.6339 80.7653 14.2824C81.5361 14.9309 81.9215 15.873 81.9215 17.1087C81.9215 18.4913 81.4994 19.5986 80.6552 20.4306C79.8236 21.2504 78.6978 21.6602 77.2782 21.6602H75.241ZM75.241 19.8433H77.0213C77.8415 19.8433 78.4592 19.6292 78.8749 19.2009C79.3034 18.7605 79.5173 18.1243 79.5173 17.2922C79.5173 15.8363 78.7465 15.1082 77.2048 15.1082H75.241V19.8433ZM87.4853 16.5398C88.1587 16.5398 88.7276 16.8763 89.1921 17.5492L88.1643 19.2009C87.8707 18.8339 87.522 18.6504 87.1182 18.6504C86.5069 18.6504 85.9316 18.9318 85.393 19.4946V26.5054H83.0806V16.7233H85.1361L85.2279 17.7511C85.9133 16.9435 86.6658 16.5398 87.4853 16.5398ZM97.1869 22.0089H91.9563C91.9683 22.9266 92.1766 23.6301 92.5803 24.1195C92.9841 24.5967 93.5411 24.8353 94.2505 24.8353C95.1194 24.8353 95.994 24.5906 96.8749 24.1012L97.0034 26.0282C96.1712 26.481 95.1745 26.7073 94.0119 26.7073C91.0874 26.7073 89.6255 24.9761 89.6255 21.5134C89.6255 19.8249 89.9862 18.5769 90.7083 17.7694C91.4425 16.9497 92.4032 16.5398 93.5898 16.5398C95.9876 16.5398 97.1869 18.0692 97.1869 21.128V22.0089ZM95.0213 20.5774C95.0213 19.0113 94.5321 18.2282 93.553 18.2282C93.0272 18.2282 92.629 18.4485 92.3601 18.8889C92.1032 19.3294 91.9747 19.8923 91.9747 20.5774H95.0213ZM104.019 16.5398C105.108 16.5398 105.866 16.913 106.295 17.6593C107.213 16.913 108.204 16.5398 109.268 16.5398C110.308 16.5398 111.024 16.8151 111.415 17.3657C111.819 17.904 112.021 18.7177 112.021 19.8066V26.5054H109.727V20.1002C109.727 19.7822 109.709 19.5129 109.672 19.2927C109.562 18.7299 109.182 18.4485 108.534 18.4485C107.922 18.4485 107.304 18.7116 106.68 19.2377C106.692 19.4335 106.699 19.7699 106.699 20.2471V26.5054H104.423V20.1002C104.423 19.7455 104.41 19.5007 104.386 19.3661C104.325 19.0358 104.208 18.8033 104.038 18.6687C103.866 18.5219 103.621 18.4485 103.303 18.4485C102.606 18.4485 101.927 18.7544 101.266 19.3661V26.5054H98.9538V16.7233H101.046L101.119 17.6777C101.988 16.9191 102.955 16.5398 104.019 16.5398ZM114.364 16.7233H116.658V26.5054H114.364V16.7233ZM114.18 14.1722C114.18 13.7563 114.302 13.4321 114.547 13.1995C114.792 12.9671 115.11 12.8508 115.502 12.8508C115.93 12.8508 116.26 12.9671 116.493 13.1995C116.725 13.4198 116.842 13.7441 116.842 14.1722C116.842 14.6005 116.713 14.9309 116.456 15.1633C116.211 15.3835 115.893 15.4937 115.502 15.4937C115.098 15.4937 114.773 15.3775 114.529 15.1449C114.296 14.9003 114.18 14.576 114.18 14.1722ZM121.663 26.6889C120.097 26.6889 119.198 26.0038 118.966 24.6334C118.917 24.3398 118.892 23.9238 118.892 23.3854V16.9619L121.205 16.7233V23.1285C121.205 23.4833 121.217 23.7341 121.241 23.8809C121.339 24.4682 121.73 24.7619 122.416 24.7619C123.04 24.7619 123.713 24.4682 124.435 23.8809V16.7233H126.729V26.5054H124.655L124.582 25.5511C123.652 26.3097 122.679 26.6889 121.663 26.6889ZM134.137 16.5398C135.226 16.5398 135.984 16.913 136.413 17.6593C137.33 16.913 138.322 16.5398 139.386 16.5398C140.426 16.5398 141.142 16.8151 141.533 17.3657C141.937 17.904 142.139 18.7177 142.139 19.8066V26.5054H139.845V20.1002C139.845 19.7822 139.826 19.5129 139.79 19.2927C139.68 18.7299 139.3 18.4485 138.652 18.4485C138.04 18.4485 137.422 18.7116 136.798 19.2377C136.81 19.4335 136.817 19.7699 136.817 20.2471V26.5054H134.541V20.1002C134.541 19.7455 134.528 19.5007 134.504 19.3661C134.443 19.0358 134.326 18.8033 134.155 18.6687C133.984 18.5219 133.739 18.4485 133.421 18.4485C132.724 18.4485 132.045 18.7544 131.384 19.3661V26.5054H129.072V16.7233H131.164L131.237 17.6777C132.106 16.9191 133.073 16.5398 134.137 16.5398Z" fill="#BFD730"/>
<path d="M4.44112 38.6796V37.9017H7.59288V42.0996C6.70771 42.5109 5.80017 42.7166 4.87029 42.7166C3.52017 42.7166 2.54112 42.3053 1.93312 41.4827C1.32512 40.6601 1.02112 39.3413 1.02112 37.5262C1.02112 36.0331 1.30277 34.8528 1.86606 33.9855C2.42935 33.1182 3.31453 32.6846 4.52159 32.6846C5.40677 32.6846 6.07735 32.8813 6.53335 33.2747C6.9983 33.6681 7.30679 34.2537 7.45877 35.0316L6.60041 35.2462C6.41265 34.6382 6.1757 34.1957 5.88959 33.9185C5.60347 33.6413 5.13853 33.5027 4.49477 33.5027C3.699 33.5027 3.07759 33.829 2.63053 34.4817C2.19241 35.1255 1.97335 36.1224 1.97335 37.4726C1.97335 38.0269 1.99571 38.5142 2.04041 38.9345C2.08512 39.3547 2.17006 39.7615 2.29524 40.1549C2.42935 40.5394 2.60371 40.8568 2.81829 41.1072C3.03288 41.3486 3.31453 41.5453 3.66324 41.6973C4.01194 41.8404 4.42324 41.9119 4.89712 41.9119C5.59453 41.9119 6.19359 41.7822 6.6943 41.5229V38.6796H4.44112ZM9.62371 36.3326L9.52983 35.5413C10.111 35.3803 10.7861 35.2999 11.555 35.2999C13.0393 35.2999 13.7814 36.0331 13.7814 37.4994V41.2949C13.7814 41.5095 13.8171 41.6615 13.8886 41.7509C13.9691 41.8404 14.0988 41.885 14.2776 41.885C14.4207 41.885 14.6129 41.8404 14.8543 41.7509L14.9348 42.4886C14.5682 42.6048 14.2731 42.6629 14.0496 42.6629C13.7367 42.6629 13.4863 42.5825 13.2985 42.4215C13.1108 42.2516 13.0035 42.046 12.9766 41.8046C12.3329 42.3768 11.6533 42.6629 10.9381 42.6629C10.2853 42.6629 9.78909 42.4573 9.44935 42.046C9.10961 41.6347 8.93971 41.1116 8.93971 40.4768C8.93971 39.6453 9.17667 39.0328 9.65053 38.6394C10.1334 38.237 10.8039 38.0359 11.6623 38.0359C12.0915 38.0359 12.5028 38.0805 12.8962 38.17V37.6603C12.8962 37.106 12.7755 36.7037 12.5341 36.4533C12.2926 36.2029 11.8724 36.0777 11.2734 36.0777C10.7101 36.0777 10.1602 36.1627 9.62371 36.3326ZM12.8962 41.0937L12.9096 38.8674C12.5162 38.7691 12.1496 38.7199 11.8098 38.7199C11.1661 38.7199 10.6832 38.854 10.3614 39.1222C10.0484 39.3905 9.89194 39.833 9.89194 40.45C9.89194 40.8613 9.99479 41.201 10.2004 41.4693C10.415 41.7375 10.7279 41.8716 11.1392 41.8716C11.7562 41.8716 12.3418 41.6124 12.8962 41.0937ZM18.3685 35.2999C18.8782 35.2999 19.437 35.5055 20.045 35.9168V32.8857H20.9436V42.5288H20.0986V41.7912C19.4996 42.3723 18.8648 42.6629 18.1942 42.6629C17.452 42.6629 16.8619 42.3634 16.4238 41.7643C15.9857 41.1653 15.7666 40.2756 15.7666 39.0954C15.7666 38.6215 15.8113 38.1744 15.9008 37.7542C15.9991 37.325 16.1422 36.9227 16.3299 36.5472C16.5266 36.1627 16.7994 35.8587 17.1481 35.6352C17.4968 35.4116 17.9036 35.2999 18.3685 35.2999ZM16.7055 39.149C16.7055 40.0164 16.8574 40.6869 17.1615 41.1608C17.4654 41.6347 17.8633 41.8716 18.3551 41.8716C18.9721 41.8716 19.5398 41.5676 20.0584 40.9596V36.802C19.4593 36.337 18.9229 36.1046 18.449 36.1046C17.2866 36.1046 16.7055 37.1194 16.7055 39.149ZM23.3891 36.3326L23.2952 35.5413C23.8764 35.3803 24.5515 35.2999 25.3204 35.2999C26.8047 35.2999 27.5468 36.0331 27.5468 37.4994V41.2949C27.5468 41.5095 27.5826 41.6615 27.6541 41.7509C27.7345 41.8404 27.8642 41.885 28.043 41.885C28.1861 41.885 28.3783 41.8404 28.6197 41.7509L28.7002 42.4886C28.3336 42.6048 28.0386 42.6629 27.815 42.6629C27.5021 42.6629 27.2517 42.5825 27.0639 42.4215C26.8762 42.2516 26.7689 42.046 26.7421 41.8046C26.0983 42.3768 25.4187 42.6629 24.7035 42.6629C24.0507 42.6629 23.5545 42.4573 23.2148 42.046C22.875 41.6347 22.7051 41.1116 22.7051 40.4768C22.7051 39.6453 22.9421 39.0328 23.4159 38.6394C23.8988 38.237 24.5694 38.0359 25.4277 38.0359C25.8569 38.0359 26.2682 38.0805 26.6616 38.17V37.6603C26.6616 37.106 26.5409 36.7037 26.2995 36.4533C26.0581 36.2029 25.6378 36.0777 25.0388 36.0777C24.4755 36.0777 23.9256 36.1627 23.3891 36.3326ZM26.6616 41.0937L26.675 38.8674C26.2816 38.7691 25.915 38.7199 25.5752 38.7199C24.9315 38.7199 24.4486 38.854 24.1268 39.1222C23.8138 39.3905 23.6574 39.833 23.6574 40.45C23.6574 40.8613 23.7602 41.201 23.9658 41.4693C24.1804 41.7375 24.4933 41.8716 24.9046 41.8716C25.5216 41.8716 26.1073 41.6124 26.6616 41.0937ZM30.0788 35.4474H30.9639V42.5288H30.0788V35.4474ZM29.9312 33.6234C29.9312 33.4356 29.9849 33.2925 30.0922 33.1942C30.1995 33.0869 30.338 33.0333 30.5079 33.0333C30.9013 33.0333 31.0981 33.2345 31.0981 33.6368C31.0981 33.8335 31.0444 33.99 30.9371 34.1062C30.8298 34.2135 30.6867 34.2672 30.5079 34.2672C30.338 34.2672 30.1995 34.2091 30.0922 34.0928C29.9849 33.9765 29.9312 33.8201 29.9312 33.6234Z" fill="#BFD730"/>
<path d="M37.4115 35.3001C37.9211 35.3001 38.4799 35.5057 39.0879 35.917V32.886H39.9865V42.529H39.1416V41.7914C38.5425 42.3726 37.9077 42.6632 37.2371 42.6632C36.495 42.6632 35.9049 42.3637 35.4667 41.7646C35.0286 41.1655 34.8096 40.2759 34.8096 39.0956C34.8096 38.6218 34.8543 38.1747 34.9437 37.7545C35.042 37.3253 35.1851 36.9229 35.3729 36.5474C35.5696 36.1629 35.8423 35.859 36.191 35.6354C36.5397 35.4118 36.9465 35.3001 37.4115 35.3001ZM35.7484 39.1493C35.7484 40.0166 35.9004 40.6872 36.2044 41.161C36.5084 41.6349 36.9063 41.8719 37.398 41.8719C38.015 41.8719 38.5827 41.5678 39.1013 40.9599V36.8022C38.5023 36.3373 37.9658 36.1048 37.4919 36.1048C36.3295 36.1048 35.7484 37.1197 35.7484 39.1493ZM42.432 36.3328L42.3382 35.5415C42.9194 35.3806 43.5944 35.3001 44.3633 35.3001C45.8476 35.3001 46.5897 36.0333 46.5897 37.4996V41.2952C46.5897 41.5098 46.6255 41.6617 46.697 41.7512C46.7775 41.8406 46.9071 41.8853 47.0859 41.8853C47.229 41.8853 47.4212 41.8406 47.6626 41.7512L47.7431 42.4888C47.3765 42.6051 47.0815 42.6632 46.8579 42.6632C46.545 42.6632 46.2946 42.5827 46.1069 42.4218C45.9191 42.2518 45.8118 42.0462 45.785 41.8048C45.1412 42.3771 44.4617 42.6632 43.7464 42.6632C43.0937 42.6632 42.5975 42.4575 42.2577 42.0462C41.9179 41.6349 41.748 41.1118 41.748 40.477C41.748 39.6455 41.985 39.033 42.4589 38.6396C42.9417 38.2373 43.6123 38.0361 44.4706 38.0361C44.8998 38.0361 45.3111 38.0808 45.7045 38.1702V37.6606C45.7045 37.1062 45.5838 36.7039 45.3424 36.4535C45.101 36.2031 44.6808 36.078 44.0817 36.078C43.5184 36.078 42.9685 36.1629 42.432 36.3328ZM45.7045 41.094L45.7179 38.8676C45.3245 38.7693 44.958 38.7201 44.6182 38.7201C43.9744 38.7201 43.4916 38.8542 43.1697 39.1225C42.8568 39.3907 42.7003 39.8333 42.7003 40.4502C42.7003 40.8615 42.8031 41.2013 43.0087 41.4695C43.2233 41.7378 43.5363 41.8719 43.9476 41.8719C44.5645 41.8719 45.1502 41.6126 45.7045 41.094ZM52.3405 35.3001C53.4046 35.3001 54.0259 35.7651 54.2047 36.6949C54.2316 36.8469 54.245 37.1375 54.245 37.5667V42.529H53.3598V37.6874C53.3598 37.3745 53.3464 37.1331 53.3196 36.9632C53.2123 36.3999 52.801 36.1182 52.0857 36.1182C51.433 36.1182 50.7445 36.4625 50.0203 37.1509V42.529H49.1217V35.4476H50.0203V36.3328C50.7803 35.6444 51.5537 35.3001 52.3405 35.3001Z" fill="#BFD730"/>
<path d="M57.5673 33.7175V32.886H64.4877V33.7175H61.4835V42.529H60.5581V33.7175H57.5673ZM65.841 35.4476H66.7262V42.529H65.841V35.4476ZM65.6934 33.6236C65.6934 33.4359 65.7471 33.2928 65.8544 33.1945C65.9617 33.0872 66.1002 33.0335 66.2702 33.0335C66.6635 33.0335 66.8603 33.2347 66.8603 33.637C66.8603 33.8338 66.8066 33.9902 66.6993 34.1065C66.592 34.2138 66.4489 34.2674 66.2702 34.2674C66.1002 34.2674 65.9617 34.2093 65.8544 34.093C65.7471 33.9768 65.6934 33.8204 65.6934 33.6236ZM71.8261 36.1719H69.9755V40.5441C69.9755 40.857 69.9845 41.0984 70.0024 41.2683C70.0292 41.4293 70.1007 41.5768 70.217 41.7109C70.3332 41.845 70.5076 41.9121 70.74 41.9121C70.9995 41.9121 71.3348 41.8138 71.7456 41.617L71.8395 42.3681C71.4103 42.5827 70.9903 42.69 70.5791 42.69C69.5866 42.69 69.0904 42.1043 69.0904 40.933V36.1719H68.1784V35.4476H69.0904V34.2942L69.9755 33.7846V35.4476H71.8261V36.1719ZM73.3854 35.4476H74.2705V42.529H73.3854V35.4476ZM73.2378 33.6236C73.2378 33.4359 73.2915 33.2928 73.3988 33.1945C73.5061 33.0872 73.6444 33.0335 73.8146 33.0335C74.2077 33.0335 74.4047 33.2347 74.4047 33.637C74.4047 33.8338 74.351 33.9902 74.2437 34.1065C74.1364 34.2138 73.9931 34.2674 73.8146 34.2674C73.6444 34.2674 73.5061 34.2093 73.3988 34.093C73.2915 33.9768 73.2378 33.8204 73.2378 33.6236ZM76.5809 35.4476H77.4661V36.2121C78.3336 35.6041 79.0444 35.3001 79.5986 35.3001C80.26 35.3001 80.7788 35.5639 81.1543 36.0914C81.539 36.61 81.731 37.3834 81.731 38.4116C81.731 41.246 80.8233 42.6632 79.0084 42.6632C78.4543 42.6632 77.9447 42.5156 77.4795 42.2206V45.3321H76.5809V35.4476ZM77.4661 36.9632V41.3086C77.9489 41.6841 78.4896 41.8719 79.0889 41.8719C79.5004 41.8719 79.8357 41.7065 80.0948 41.3756C80.3538 41.0448 80.5282 40.6604 80.6178 40.2222C80.7075 39.7841 80.752 39.2968 80.752 38.7603C80.752 37.7768 80.6313 37.0973 80.3898 36.7217C80.1576 36.3373 79.8174 36.145 79.3705 36.145C78.8785 36.145 78.244 36.4177 77.4661 36.9632ZM83.7611 36.3328L83.6673 35.5415C84.2489 35.3806 84.9237 35.3001 85.6924 35.3001C87.1769 35.3001 87.9188 36.0333 87.9188 37.4996V41.2952C87.9188 41.5098 87.9548 41.6617 88.0261 41.7512C88.1065 41.8406 88.2364 41.8853 88.415 41.8853C88.5583 41.8853 88.7503 41.8406 88.9917 41.7512L89.0722 42.4888C88.7058 42.6051 88.4108 42.6632 88.187 42.6632C87.8743 42.6632 87.6237 42.5827 87.436 42.4218C87.2482 42.2518 87.1409 42.0462 87.1141 41.8048C86.4703 42.3771 85.7913 42.6632 85.0755 42.6632C84.4233 42.6632 83.927 42.4575 83.5868 42.0462C83.2473 41.6349 83.0771 41.1118 83.0771 40.477C83.0771 39.6455 83.3143 39.033 83.788 38.6396C84.2708 38.2373 84.9414 38.0361 85.7997 38.0361C86.2289 38.0361 86.6404 38.0808 87.0336 38.1702V37.6606C87.0336 37.1062 86.9129 36.7039 86.6715 36.4535C86.4301 36.2031 86.0101 36.078 85.4108 36.078C84.8475 36.078 84.2976 36.1629 83.7611 36.3328ZM87.0336 41.094L87.047 38.8676C86.6538 38.7693 86.2875 38.7201 85.9473 38.7201C85.3035 38.7201 84.8207 38.8542 84.4988 39.1225C84.1861 39.3907 84.0294 39.8333 84.0294 40.4502C84.0294 40.8615 84.1324 41.2013 84.3378 41.4695C84.5524 41.7378 84.8658 41.8719 85.2767 41.8719C85.8936 41.8719 86.4795 41.6126 87.0336 41.094ZM93.6696 35.3001C94.7341 35.3001 95.3553 35.7651 95.5338 36.6949C95.5607 36.8469 95.5741 37.1375 95.5741 37.5667V42.529H94.6889V37.6874C94.6889 37.3745 94.6755 37.1331 94.6487 36.9632C94.5414 36.3999 94.1306 36.1182 93.4148 36.1182C92.7626 36.1182 92.0736 36.4625 91.3494 37.1509V42.529H90.4508V35.4476H91.3494V36.3328C92.1096 35.6444 92.8833 35.3001 93.6696 35.3001Z" fill="#BFD730"/>
<path d="M99.635 42.529V32.886H104.812V33.7175H100.56V37.0973H104.262V37.9288H100.56V41.6841H104.986V42.529H99.635ZM109.831 35.3001C110.662 35.3001 111.208 35.613 111.467 36.2389C112.191 35.613 112.929 35.3001 113.68 35.3001C114.753 35.3001 115.37 35.7651 115.531 36.6949C115.567 36.9006 115.584 37.1912 115.584 37.5667V42.529H114.699V37.6874C114.699 37.3565 114.682 37.1151 114.646 36.9632C114.538 36.3999 114.149 36.1182 113.479 36.1182C112.862 36.1182 112.241 36.4133 111.615 37.0034C111.632 37.1465 111.641 37.3834 111.641 37.7142V42.529H110.756V37.6874C110.756 37.3565 110.739 37.1151 110.703 36.9632C110.613 36.3999 110.26 36.1182 109.643 36.1182C108.901 36.1182 108.19 36.4669 107.511 37.1643V42.529H106.612V35.4476H107.511V36.3194C108.288 35.6398 109.062 35.3001 109.831 35.3001ZM118.023 36.3328L117.929 35.5415C118.51 35.3806 119.185 35.3001 119.954 35.3001C121.438 35.3001 122.18 36.0333 122.18 37.4996V41.2952C122.18 41.5098 122.216 41.6617 122.287 41.7512C122.368 41.8406 122.498 41.8853 122.676 41.8853C122.82 41.8853 123.012 41.8406 123.253 41.7512L123.334 42.4888C122.967 42.6051 122.672 42.6632 122.448 42.6632C122.136 42.6632 121.885 42.5827 121.697 42.4218C121.51 42.2518 121.402 42.0462 121.375 41.8048C120.732 42.3771 120.053 42.6632 119.337 42.6632C118.685 42.6632 118.188 42.4575 117.848 42.0462C117.509 41.6349 117.339 41.1118 117.339 40.477C117.339 39.6455 117.576 39.033 118.049 38.6396C118.532 38.2373 119.203 38.0361 120.061 38.0361C120.49 38.0361 120.902 38.0808 121.295 38.1702V37.6606C121.295 37.1062 121.174 36.7039 120.933 36.4535C120.691 36.2031 120.271 36.078 119.672 36.078C119.109 36.078 118.559 36.1629 118.023 36.3328ZM121.295 41.094L121.308 38.8676C120.915 38.7693 120.549 38.7201 120.209 38.7201C119.565 38.7201 119.082 38.8542 118.76 39.1225C118.447 39.3907 118.291 39.8333 118.291 40.4502C118.291 40.8615 118.394 41.2013 118.599 41.4695C118.814 41.7378 119.127 41.8719 119.538 41.8719C120.155 41.8719 120.741 41.6126 121.295 41.094ZM124.095 41.9389L124.337 41.1074C124.534 41.2862 124.819 41.4651 125.195 41.6439C125.571 41.8227 125.928 41.9121 126.268 41.9121C126.706 41.9121 127.059 41.8138 127.327 41.617C127.596 41.4203 127.73 41.1342 127.73 40.7587C127.73 40.41 127.609 40.1328 127.368 39.9272C127.126 39.7215 126.831 39.565 126.483 39.4577C126.134 39.3505 125.785 39.2342 125.436 39.109C125.097 38.9839 124.806 38.7693 124.565 38.4653C124.323 38.1613 124.203 37.7634 124.203 37.2716C124.203 36.6637 124.422 36.1853 124.86 35.8366C125.298 35.4789 125.835 35.3001 126.469 35.3001C127.122 35.3001 127.632 35.4655 127.998 35.7963C128.374 36.1182 128.602 36.4982 128.682 36.9363L127.958 37.2314C127.851 36.8559 127.663 36.5742 127.395 36.3865C127.126 36.1897 126.814 36.0914 126.456 36.0914C126.08 36.0914 125.763 36.1853 125.503 36.373C125.244 36.5608 125.115 36.8469 125.115 37.2314C125.115 37.5801 125.235 37.8618 125.477 38.0763C125.718 38.282 126.009 38.4385 126.348 38.5457C126.697 38.653 127.046 38.7693 127.395 38.8945C127.743 39.0107 128.038 39.2119 128.28 39.498C128.521 39.7841 128.642 40.1552 128.642 40.6112C128.642 41.2191 128.432 41.7199 128.011 42.1133C127.601 42.4978 127.015 42.69 126.255 42.69C125.825 42.69 125.401 42.6095 124.98 42.4486C124.57 42.2787 124.275 42.1088 124.095 41.9389Z" fill="#BFD730"/>
</svg>
