<svg width="240" height="48" viewBox="0 0 240 48" fill="none" xmlns="http://www.w3.org/2000/svg">
<path d="M2.792 10.7205V14.4165H1V4.35049H4.528C5.592 4.35049 6.418 4.59782 7.006 5.09249C7.594 5.58715 7.888 6.30582 7.888 7.24849C7.888 8.30315 7.566 9.14782 6.922 9.78249C6.28733 10.4078 5.42867 10.7205 4.346 10.7205H2.792ZM2.792 9.33449H4.15C4.77533 9.33449 5.24667 9.17115 5.564 8.84449C5.89067 8.50849 6.054 8.02316 6.054 7.38849C6.054 6.27782 5.466 5.72249 4.29 5.72249H2.792V9.33449Z" fill="white"/>
<path d="M14.1077 10.9865H10.1177C10.1271 11.6865 10.2857 12.2232 10.5937 12.5965C10.9017 12.9605 11.3264 13.1425 11.8677 13.1425C12.5304 13.1425 13.1977 12.9558 13.8697 12.5825L13.9677 14.0525C13.3331 14.3978 12.5724 14.5705 11.6857 14.5705C9.45505 14.5705 8.33972 13.2498 8.33972 10.6085C8.33972 9.32049 8.61505 8.36849 9.16572 7.75249C9.72572 7.12716 10.4584 6.81449 11.3637 6.81449C13.1931 6.81449 14.1077 7.98115 14.1077 10.3145V10.9865ZM12.4557 9.89449C12.4557 8.69982 12.0824 8.10249 11.3357 8.10249C10.9344 8.10249 10.6311 8.27049 10.4257 8.60649C10.2297 8.94249 10.1317 9.37182 10.1317 9.89449H12.4557Z" fill="white"/>
<path d="M19.5713 7.43049L19.6413 6.95449H21.2093V14.3045C21.2093 16.4698 20.2107 17.5525 18.2133 17.5525C17.2147 17.5525 16.342 17.3705 15.5953 17.0065L15.8613 15.4805C16.1507 15.6578 16.5007 15.8025 16.9113 15.9145C17.3313 16.0358 17.7187 16.0965 18.0733 16.0965C19.0347 16.0965 19.5153 15.4712 19.5153 14.2205V13.7725C19.058 14.2672 18.47 14.5145 17.7513 14.5145C16.9393 14.5145 16.2907 14.2018 15.8053 13.5765C15.3293 12.9418 15.0913 11.9992 15.0913 10.7485C15.0913 10.0578 15.18 9.42782 15.3573 8.85849C15.544 8.28916 15.852 7.80849 16.2813 7.41649C16.72 7.01515 17.252 6.81449 17.8773 6.81449C18.5027 6.81449 19.0673 7.01982 19.5713 7.43049ZM19.4593 12.5545V8.64849C19.0207 8.33115 18.6287 8.17249 18.2833 8.17249C17.3687 8.17249 16.9113 9.04049 16.9113 10.7765C16.9113 12.3445 17.3547 13.1285 18.2413 13.1285C18.6707 13.1285 19.0767 12.9372 19.4593 12.5545Z" fill="white"/>
<path d="M23.3639 8.45249L23.1539 7.15049C23.8259 6.92649 24.5959 6.81449 25.4639 6.81449C26.4906 6.81449 27.2186 7.04782 27.6479 7.51449C28.0772 7.97182 28.2919 8.81182 28.2919 10.0345V12.6665C28.2919 13.0585 28.4319 13.2545 28.7119 13.2545C28.8426 13.2545 28.9919 13.2218 29.1599 13.1565L29.2859 14.3325C28.9312 14.4818 28.5346 14.5565 28.0959 14.5565C27.4239 14.5565 27.0132 14.2718 26.8639 13.7025C26.2572 14.2718 25.5526 14.5565 24.7499 14.5565C24.0312 14.5565 23.4806 14.3372 23.0979 13.8985C22.7246 13.4598 22.5379 12.8998 22.5379 12.2185C22.5379 10.4918 23.4992 9.62849 25.4219 9.62849C25.8046 9.62849 26.2012 9.67516 26.6119 9.76849V9.44649C26.6119 8.57849 26.1219 8.14449 25.1419 8.14449C24.6099 8.14449 24.0172 8.24716 23.3639 8.45249ZM26.6119 12.5965V10.8745C26.2946 10.7625 25.9959 10.7065 25.7159 10.7065C24.7546 10.7065 24.2739 11.1592 24.2739 12.0645C24.2739 12.4285 24.3579 12.7178 24.5259 12.9325C24.6939 13.1378 24.9412 13.2405 25.2679 13.2405C25.7719 13.2405 26.2199 13.0258 26.6119 12.5965Z" fill="white"/>
<path d="M34.1793 7.29049V4.35049H35.9293V14.4165H34.3613L34.3053 13.7585C33.792 14.2905 33.1807 14.5565 32.4713 14.5565C31.6593 14.5565 31.0107 14.2345 30.5253 13.5905C30.0493 12.9465 29.8113 11.9992 29.8113 10.7485C29.8113 10.0578 29.9047 9.42782 30.0913 8.85849C30.278 8.27982 30.5907 7.79449 31.0293 7.40249C31.468 7.01049 32.0093 6.81449 32.6533 6.81449C33.2133 6.81449 33.722 6.97316 34.1793 7.29049ZM34.1933 12.6105V8.62049C33.7547 8.30315 33.3673 8.14449 33.0313 8.14449C32.098 8.14449 31.6313 9.02182 31.6313 10.7765C31.6313 11.5605 31.748 12.1578 31.9813 12.5685C32.2147 12.9792 32.546 13.1845 32.9753 13.1845C33.4047 13.1845 33.8107 12.9932 34.1933 12.6105Z" fill="white"/>
<path d="M38.0839 8.45249L37.8739 7.15049C38.5459 6.92649 39.3159 6.81449 40.1839 6.81449C41.2106 6.81449 41.9386 7.04782 42.3679 7.51449C42.7973 7.97182 43.0119 8.81182 43.0119 10.0345V12.6665C43.0119 13.0585 43.1519 13.2545 43.4319 13.2545C43.5626 13.2545 43.7119 13.2218 43.8799 13.1565L44.0059 14.3325C43.6513 14.4818 43.2546 14.5565 42.8159 14.5565C42.1439 14.5565 41.7333 14.2718 41.5839 13.7025C40.9773 14.2718 40.2726 14.5565 39.4699 14.5565C38.7513 14.5565 38.2006 14.3372 37.8179 13.8985C37.4446 13.4598 37.2579 12.8998 37.2579 12.2185C37.2579 10.4918 38.2193 9.62849 40.1419 9.62849C40.5246 9.62849 40.9213 9.67516 41.3319 9.76849V9.44649C41.3319 8.57849 40.8419 8.14449 39.8619 8.14449C39.3299 8.14449 38.7373 8.24716 38.0839 8.45249ZM41.3319 12.5965V10.8745C41.0146 10.7625 40.7159 10.7065 40.4359 10.7065C39.4746 10.7065 38.9939 11.1592 38.9939 12.0645C38.9939 12.4285 39.0779 12.7178 39.2459 12.9325C39.4139 13.1378 39.6613 13.2405 39.9879 13.2405C40.4919 13.2405 40.9399 13.0258 41.3319 12.5965Z" fill="white"/>
<path d="M45.0461 6.95449H46.7961V14.4165H45.0461V6.95449ZM44.9061 5.00849C44.9061 4.69115 44.9994 4.44382 45.1861 4.26649C45.3727 4.08915 45.6154 4.00049 45.9141 4.00049C46.2407 4.00049 46.4927 4.08915 46.6701 4.26649C46.8474 4.43449 46.9361 4.68182 46.9361 5.00849C46.9361 5.33515 46.8381 5.58715 46.6421 5.76449C46.4554 5.93249 46.2127 6.01649 45.9141 6.01649C45.6061 6.01649 45.3587 5.92782 45.1721 5.75049C44.9947 5.56382 44.9061 5.31649 44.9061 5.00849Z" fill="white"/>
<path d="M48.9485 8.45249L48.7385 7.15049C49.4105 6.92649 50.1805 6.81449 51.0485 6.81449C52.0751 6.81449 52.8031 7.04782 53.2325 7.51449C53.6618 7.97182 53.8765 8.81182 53.8765 10.0345V12.6665C53.8765 13.0585 54.0165 13.2545 54.2965 13.2545C54.4271 13.2545 54.5765 13.2218 54.7445 13.1565L54.8705 14.3325C54.5158 14.4818 54.1191 14.5565 53.6805 14.5565C53.0085 14.5565 52.5978 14.2718 52.4485 13.7025C51.8418 14.2718 51.1371 14.5565 50.3345 14.5565C49.6158 14.5565 49.0651 14.3372 48.6825 13.8985C48.3091 13.4598 48.1225 12.8998 48.1225 12.2185C48.1225 10.4918 49.0838 9.62849 51.0065 9.62849C51.3891 9.62849 51.7858 9.67516 52.1965 9.76849V9.44649C52.1965 8.57849 51.7065 8.14449 50.7265 8.14449C50.1945 8.14449 49.6018 8.24716 48.9485 8.45249ZM52.1965 12.5965V10.8745C51.8791 10.7625 51.5805 10.7065 51.3005 10.7065C50.3391 10.7065 49.8585 11.1592 49.8585 12.0645C49.8585 12.4285 49.9425 12.7178 50.1105 12.9325C50.2785 13.1378 50.5258 13.2405 50.8525 13.2405C51.3565 13.2405 51.8045 13.0258 52.1965 12.5965Z" fill="white"/>
<path d="M57.5066 6.95449L57.5626 7.69649C58.2346 7.10849 58.972 6.81449 59.7746 6.81449C60.9786 6.81449 61.66 7.33249 61.8186 8.36849C61.856 8.60182 61.8746 8.91449 61.8746 9.30649V14.4165H60.1246V9.53049C60.1246 9.24116 60.12 9.04982 60.1106 8.95649C60.0546 8.49916 59.7466 8.27049 59.1866 8.27049C58.7013 8.27049 58.1973 8.50382 57.6746 8.97049V14.4165H55.9106V6.95449H57.5066Z" fill="white"/>
<path d="M66.2705 13.7165L66.8585 12.1485C67.7452 12.7645 68.5992 13.0725 69.4205 13.0725C69.8965 13.0725 70.2792 12.9652 70.5685 12.7505C70.8672 12.5265 71.0165 12.1812 71.0165 11.7145C71.0165 11.2105 70.8578 10.8372 70.5405 10.5945C70.2325 10.3518 69.7285 10.1325 69.0285 9.93649C68.7298 9.85249 68.4778 9.77782 68.2725 9.71249C68.0765 9.63782 67.8478 9.52582 67.5865 9.37649C67.3345 9.21782 67.1292 9.04516 66.9705 8.85849C66.8212 8.67182 66.6905 8.42449 66.5785 8.11649C66.4665 7.80849 66.4105 7.46316 66.4105 7.08049C66.4105 6.20316 66.7138 5.49382 67.3205 4.95249C67.9365 4.41115 68.7252 4.14049 69.6865 4.14049C70.6665 4.14049 71.4085 4.37382 71.9125 4.84049C72.4258 5.30716 72.7618 5.87649 72.9205 6.54849L71.2965 7.02449C71.0352 6.09115 70.4845 5.62449 69.6445 5.62449C69.2432 5.62449 68.9118 5.73182 68.6505 5.94649C68.3892 6.16115 68.2585 6.47849 68.2585 6.89849C68.2585 7.34649 68.4032 7.67316 68.6925 7.87849C68.9912 8.08382 69.4672 8.28449 70.1205 8.48049C70.9978 8.74182 71.6698 9.09649 72.1365 9.54449C72.6125 9.99249 72.8505 10.6412 72.8505 11.4905C72.8505 12.4612 72.5332 13.2265 71.8985 13.7865C71.2732 14.3372 70.4425 14.6125 69.4065 14.6125C68.1652 14.6125 67.1198 14.3138 66.2705 13.7165Z" fill="white"/>
<path d="M78.1916 6.95449L79.8996 7.13649C79.125 9.92715 78.3363 12.2605 77.5336 14.1365C77.291 14.7058 77.0763 15.1632 76.8896 15.5085C76.7123 15.8632 76.4883 16.2132 76.2176 16.5585C75.947 16.9038 75.639 17.1558 75.2936 17.3145C74.9576 17.4732 74.575 17.5525 74.1456 17.5525C73.3523 17.5525 72.6196 17.3752 71.9476 17.0205L72.3956 15.5785C73.0396 15.9145 73.5716 16.0825 73.9916 16.0825C74.393 16.0825 74.7056 15.9378 74.9296 15.6485C75.1629 15.3685 75.415 14.8738 75.6856 14.1645L73.0956 7.12249L74.9576 6.95449L76.0076 10.2725C76.297 11.2152 76.5116 11.9198 76.6516 12.3865C77.0343 11.2758 77.5476 9.46515 78.1916 6.95449Z" fill="white"/>
<path d="M81.1069 8.45249L80.8969 7.15049C81.5689 6.92649 82.3389 6.81449 83.2069 6.81449C84.2336 6.81449 84.9616 7.04782 85.3909 7.51449C85.8202 7.97182 86.0349 8.81182 86.0349 10.0345V12.6665C86.0349 13.0585 86.1749 13.2545 86.4549 13.2545C86.5856 13.2545 86.7349 13.2218 86.9029 13.1565L87.0289 14.3325C86.6742 14.4818 86.2776 14.5565 85.8389 14.5565C85.1669 14.5565 84.7562 14.2718 84.6069 13.7025C84.0002 14.2718 83.2956 14.5565 82.4929 14.5565C81.7742 14.5565 81.2236 14.3372 80.8409 13.8985C80.4676 13.4598 80.2809 12.8998 80.2809 12.2185C80.2809 10.4918 81.2422 9.62849 83.1649 9.62849C83.5476 9.62849 83.9442 9.67516 84.3549 9.76849V9.44649C84.3549 8.57849 83.8649 8.14449 82.8849 8.14449C82.3529 8.14449 81.7602 8.24716 81.1069 8.45249ZM84.3549 12.5965V10.8745C84.0376 10.7625 83.7389 10.7065 83.4589 10.7065C82.4976 10.7065 82.0169 11.1592 82.0169 12.0645C82.0169 12.4285 82.1009 12.7178 82.2689 12.9325C82.4369 13.1378 82.6842 13.2405 83.0109 13.2405C83.5149 13.2405 83.9629 13.0258 84.3549 12.5965Z" fill="white"/>
<path d="M91.4291 6.81449C91.9424 6.81449 92.3764 7.07115 92.7311 7.58449L91.9471 8.84449C91.7231 8.56449 91.4571 8.42449 91.1491 8.42449C90.6824 8.42449 90.2437 8.63915 89.8331 9.06849V14.4165H88.0691V6.95449H89.6371L89.7071 7.73849C90.2297 7.12249 90.8037 6.81449 91.4291 6.81449Z" fill="white"/>
<path d="M93.5902 6.95449H95.3402V14.4165H93.5902V6.95449ZM93.4502 5.00849C93.4502 4.69115 93.5435 4.44382 93.7302 4.26649C93.9169 4.08915 94.1595 4.00049 94.4582 4.00049C94.7849 4.00049 95.0369 4.08915 95.2142 4.26649C95.3915 4.43449 95.4802 4.68182 95.4802 5.00849C95.4802 5.33515 95.3822 5.58715 95.1862 5.76449C94.9995 5.93249 94.7569 6.01649 94.4582 6.01649C94.1502 6.01649 93.9029 5.92782 93.7162 5.75049C93.5389 5.56382 93.4502 5.31649 93.4502 5.00849Z" fill="white"/>
<path d="M97.4926 8.45249L97.2826 7.15049C97.9546 6.92649 98.7246 6.81449 99.5926 6.81449C100.619 6.81449 101.347 7.04782 101.777 7.51449C102.206 7.97182 102.421 8.81182 102.421 10.0345V12.6665C102.421 13.0585 102.561 13.2545 102.841 13.2545C102.971 13.2545 103.121 13.2218 103.289 13.1565L103.415 14.3325C103.06 14.4818 102.663 14.5565 102.225 14.5565C101.553 14.5565 101.142 14.2718 100.993 13.7025C100.386 14.2718 99.6813 14.5565 98.8786 14.5565C98.1599 14.5565 97.6093 14.3372 97.2266 13.8985C96.8533 13.4598 96.6666 12.8998 96.6666 12.2185C96.6666 10.4918 97.6279 9.62849 99.5506 9.62849C99.9333 9.62849 100.33 9.67516 100.741 9.76849V9.44649C100.741 8.57849 100.251 8.14449 99.2706 8.14449C98.7386 8.14449 98.1459 8.24716 97.4926 8.45249ZM100.741 12.5965V10.8745C100.423 10.7625 100.125 10.7065 99.8446 10.7065C98.8833 10.7065 98.4026 11.1592 98.4026 12.0645C98.4026 12.4285 98.4866 12.7178 98.6546 12.9325C98.8226 13.1378 99.0699 13.2405 99.3966 13.2405C99.9006 13.2405 100.349 13.0258 100.741 12.5965Z" fill="white"/>
<path d="M108.347 6.81449C109.131 6.81449 109.672 7.02449 109.971 7.44449C110.269 7.85516 110.419 8.47582 110.419 9.30649V14.4165H108.669V9.53049C108.669 9.05449 108.603 8.72782 108.473 8.55049C108.351 8.36382 108.104 8.27049 107.731 8.27049C107.245 8.27049 106.741 8.50382 106.219 8.97049V14.4165H104.455V4.35049H106.219V7.61249C106.872 7.08049 107.581 6.81449 108.347 6.81449Z" fill="white"/>
<path d="M8.35398 31.7484V29.2524H14.958V37.7804C13.138 38.6471 11.1966 39.0804 9.13398 39.0804C6.37798 39.0804 4.34998 38.2744 3.04998 36.6624C1.76731 35.0504 1.12598 32.5111 1.12598 29.0444C1.12598 26.1671 1.72398 23.8791 2.91998 22.1804C4.13331 20.4818 5.99664 19.6324 8.50998 19.6324C10.3646 19.6324 11.7773 20.0658 12.748 20.9324C13.7186 21.7818 14.3686 23.0038 14.698 24.5984L11.604 25.3524C11.3093 24.2951 10.928 23.5238 10.46 23.0384C10.0093 22.5358 9.32464 22.2844 8.40598 22.2844C5.87531 22.2844 4.60998 24.5031 4.60998 28.9404C4.60998 30.1364 4.67064 31.1591 4.79198 32.0084C4.91331 32.8578 5.13864 33.6378 5.46798 34.3484C5.79731 35.0418 6.26531 35.5704 6.87198 35.9344C7.49598 36.2811 8.26731 36.4544 9.18598 36.4544C10.122 36.4544 10.9626 36.2984 11.708 35.9864V31.7484H8.35398Z" fill="#BFD730"/>
<path d="M18.5405 27.6404L18.1505 25.2224C19.3985 24.8064 20.8285 24.5984 22.4405 24.5984C24.3472 24.5984 25.6992 25.0318 26.4965 25.8984C27.2938 26.7478 27.6925 28.3078 27.6925 30.5784V35.4664C27.6925 36.1944 27.9525 36.5584 28.4725 36.5584C28.7152 36.5584 28.9925 36.4978 29.3045 36.3764L29.5385 38.5604C28.8798 38.8378 28.1432 38.9764 27.3285 38.9764C26.0805 38.9764 25.3178 38.4478 25.0405 37.3904C23.9138 38.4478 22.6052 38.9764 21.1145 38.9764C19.7798 38.9764 18.7572 38.5691 18.0465 37.7544C17.3532 36.9398 17.0065 35.8998 17.0065 34.6344C17.0065 31.4278 18.7918 29.8244 22.3625 29.8244C23.0732 29.8244 23.8098 29.9111 24.5725 30.0844V29.4864C24.5725 27.8744 23.6625 27.0684 21.8425 27.0684C20.8545 27.0684 19.7538 27.2591 18.5405 27.6404ZM24.5725 35.3364V32.1384C23.9832 31.9304 23.4285 31.8264 22.9085 31.8264C21.1232 31.8264 20.2305 32.6671 20.2305 34.3484C20.2305 35.0244 20.3865 35.5618 20.6985 35.9604C21.0105 36.3418 21.4698 36.5324 22.0765 36.5324C23.0125 36.5324 23.8445 36.1338 24.5725 35.3364Z" fill="#BFD730"/>
<path d="M38.6003 25.4824V20.0224H41.8503V38.7164H38.9383L38.8343 37.4944C37.881 38.4824 36.7456 38.9764 35.4283 38.9764C33.9203 38.9764 32.7156 38.3784 31.8143 37.1824C30.9303 35.9864 30.4883 34.2271 30.4883 31.9044C30.4883 30.6218 30.6616 29.4518 31.0083 28.3944C31.355 27.3198 31.9356 26.4184 32.7503 25.6904C33.565 24.9624 34.5703 24.5984 35.7663 24.5984C36.8063 24.5984 37.751 24.8931 38.6003 25.4824ZM38.6263 35.3624V27.9524C37.8116 27.3631 37.0923 27.0684 36.4683 27.0684C34.735 27.0684 33.8683 28.6978 33.8683 31.9564C33.8683 33.4124 34.085 34.5218 34.5183 35.2844C34.9516 36.0471 35.567 36.4284 36.3643 36.4284C37.1616 36.4284 37.9156 36.0731 38.6263 35.3624Z" fill="#BFD730"/>
<path d="M45.8257 27.6404L45.4357 25.2224C46.6837 24.8064 48.1137 24.5984 49.7257 24.5984C51.6323 24.5984 52.9843 25.0318 53.7817 25.8984C54.579 26.7478 54.9777 28.3078 54.9777 30.5784V35.4664C54.9777 36.1944 55.2377 36.5584 55.7577 36.5584C56.0003 36.5584 56.2777 36.4978 56.5897 36.3764L56.8237 38.5604C56.165 38.8378 55.4283 38.9764 54.6137 38.9764C53.3657 38.9764 52.603 38.4478 52.3257 37.3904C51.199 38.4478 49.8903 38.9764 48.3997 38.9764C47.065 38.9764 46.0423 38.5691 45.3317 37.7544C44.6383 36.9398 44.2917 35.8998 44.2917 34.6344C44.2917 31.4278 46.077 29.8244 49.6477 29.8244C50.3583 29.8244 51.095 29.9111 51.8577 30.0844V29.4864C51.8577 27.8744 50.9477 27.0684 49.1277 27.0684C48.1397 27.0684 47.039 27.2591 45.8257 27.6404ZM51.8577 35.3364V32.1384C51.2683 31.9304 50.7137 31.8264 50.1937 31.8264C48.4083 31.8264 47.5157 32.6671 47.5157 34.3484C47.5157 35.0244 47.6717 35.5618 47.9837 35.9604C48.2957 36.3418 48.755 36.5324 49.3617 36.5324C50.2977 36.5324 51.1297 36.1338 51.8577 35.3364Z" fill="#BFD730"/>
<path d="M58.7294 24.8584H61.9794V38.7164H58.7294V24.8584ZM58.4694 21.2444C58.4694 20.6551 58.6427 20.1958 58.9894 19.8664C59.3361 19.5371 59.7867 19.3724 60.3414 19.3724C60.9481 19.3724 61.416 19.5371 61.7454 19.8664C62.0747 20.1784 62.2394 20.6378 62.2394 21.2444C62.2394 21.8511 62.0574 22.3191 61.6934 22.6484C61.3467 22.9604 60.896 23.1164 60.3414 23.1164C59.7694 23.1164 59.3101 22.9518 58.9634 22.6224C58.634 22.2758 58.4694 21.8164 58.4694 21.2444Z" fill="#BFD730"/>
<path d="M67.733 38.7164V25.0554H75.067V26.2334H69.044V31.0214H74.288V32.1994H69.044V37.5194H75.314V38.7164H67.733Z" fill="#BFD730"/>
<path d="M82.1769 28.4754C83.3549 28.4754 84.1276 28.9188 84.4949 29.8054C85.5209 28.9188 86.5659 28.4754 87.6299 28.4754C89.1499 28.4754 90.0239 29.1341 90.2519 30.4514C90.3026 30.7428 90.3279 31.1544 90.3279 31.6864V38.7164H89.0739V31.8574C89.0739 31.3888 89.0486 31.0468 88.9979 30.8314C88.8459 30.0334 88.2949 29.6344 87.3449 29.6344C86.4709 29.6344 85.5906 30.0524 84.7039 30.8884C84.7292 31.0911 84.7419 31.4268 84.7419 31.8954V38.7164H83.4879V31.8574C83.4879 31.3888 83.4626 31.0468 83.4119 30.8314C83.2852 30.0334 82.7849 29.6344 81.9109 29.6344C80.8596 29.6344 79.8526 30.1284 78.8899 31.1164V38.7164H77.6169V28.6844H78.8899V29.9194C79.9919 28.9568 81.0876 28.4754 82.1769 28.4754Z" fill="#BFD730"/>
<path d="M93.7825 29.9384L93.6495 28.8174C94.4728 28.5894 95.4291 28.4754 96.5185 28.4754C98.6211 28.4754 99.6725 29.5141 99.6725 31.5914V36.9684C99.6725 37.2724 99.7231 37.4878 99.8245 37.6144C99.9385 37.7411 100.122 37.8044 100.375 37.8044C100.578 37.8044 100.85 37.7411 101.192 37.6144L101.306 38.6594C100.787 38.8241 100.369 38.9064 100.052 38.9064C99.6091 38.9064 99.2545 38.7924 98.9885 38.5644C98.7225 38.3238 98.5705 38.0324 98.5325 37.6904C97.6205 38.5011 96.6578 38.9064 95.6445 38.9064C94.7198 38.9064 94.0168 38.6151 93.5355 38.0324C93.0541 37.4498 92.8135 36.7088 92.8135 35.8094C92.8135 34.6314 93.1491 33.7638 93.8205 33.2064C94.5045 32.6364 95.4545 32.3514 96.6705 32.3514C97.2785 32.3514 97.8611 32.4148 98.4185 32.5414V31.8194C98.4185 31.0341 98.2475 30.4641 97.9055 30.1094C97.5635 29.7548 96.9681 29.5774 96.1195 29.5774C95.3215 29.5774 94.5425 29.6978 93.7825 29.9384ZM98.4185 36.6834L98.4375 33.5294C97.8801 33.3901 97.3608 33.3204 96.8795 33.3204C95.9675 33.3204 95.2835 33.5104 94.8275 33.8904C94.3841 34.2704 94.1625 34.8974 94.1625 35.7714C94.1625 36.3541 94.3081 36.8354 94.5995 37.2154C94.9035 37.5954 95.3468 37.7854 95.9295 37.7854C96.8035 37.7854 97.6331 37.4181 98.4185 36.6834Z" fill="#BFD730"/>
<path d="M102.385 37.8804L102.727 36.7024C103.006 36.9558 103.411 37.2091 103.943 37.4624C104.475 37.7158 104.982 37.8424 105.463 37.8424C106.084 37.8424 106.584 37.7031 106.964 37.4244C107.344 37.1458 107.534 36.7404 107.534 36.2084C107.534 35.7144 107.363 35.3218 107.021 35.0304C106.679 34.7391 106.261 34.5174 105.767 34.3654C105.273 34.2134 104.779 34.0488 104.285 33.8714C103.804 33.6941 103.392 33.3901 103.05 32.9594C102.708 32.5288 102.537 31.9651 102.537 31.2684C102.537 30.4071 102.848 29.7294 103.468 29.2354C104.089 28.7288 104.849 28.4754 105.748 28.4754C106.673 28.4754 107.395 28.7098 107.914 29.1784C108.446 29.6344 108.769 30.1728 108.883 30.7934L107.857 31.2114C107.705 30.6794 107.439 30.2804 107.059 30.0144C106.679 29.7358 106.236 29.5964 105.729 29.5964C105.197 29.5964 104.748 29.7294 104.38 29.9954C104.013 30.2614 103.829 30.6668 103.829 31.2114C103.829 31.7054 104 32.1044 104.342 32.4084C104.684 32.6998 105.096 32.9214 105.577 33.0734C106.071 33.2254 106.565 33.3901 107.059 33.5674C107.553 33.7321 107.971 34.0171 108.313 34.4224C108.655 34.8278 108.826 35.3534 108.826 35.9994C108.826 36.8608 108.529 37.5701 107.933 38.1274C107.351 38.6721 106.521 38.9444 105.444 38.9444C104.836 38.9444 104.235 38.8304 103.639 38.6024C103.057 38.3618 102.639 38.1211 102.385 37.8804Z" fill="#BFD730"/>
</svg>
