<svg width="240" height="48" viewBox="0 0 240 48" fill="none" xmlns="http://www.w3.org/2000/svg">
<path d="M3.60206 10.716V14.412H1.81006V4.34603H5.33806C6.40206 4.34603 7.22806 4.59337 7.81606 5.08803C8.40406 5.5827 8.69806 6.30137 8.69806 7.24403C8.69806 8.2987 8.37606 9.14337 7.73206 9.77803C7.09739 10.4034 6.23873 10.716 5.15606 10.716H3.60206ZM3.60206 9.33003H4.96006C5.58539 9.33003 6.05673 9.1667 6.37406 8.84003C6.70073 8.50403 6.86406 8.0187 6.86406 7.38403C6.86406 6.27337 6.27606 5.71803 5.10006 5.71803H3.60206V9.33003Z" fill="#004D43"/>
<path d="M14.9178 10.982H10.9278C10.9371 11.682 11.0958 12.2187 11.4038 12.592C11.7118 12.956 12.1364 13.138 12.6778 13.138C13.3404 13.138 14.0078 12.9514 14.6798 12.578L14.7778 14.048C14.1431 14.3934 13.3824 14.566 12.4958 14.566C10.2651 14.566 9.14978 13.2454 9.14978 10.604C9.14978 9.31603 9.42511 8.36403 9.97578 7.74803C10.5358 7.1227 11.2684 6.81003 12.1738 6.81003C14.0031 6.81003 14.9178 7.9767 14.9178 10.31V10.982ZM13.2658 9.89003C13.2658 8.69537 12.8924 8.09803 12.1458 8.09803C11.7444 8.09803 11.4411 8.26603 11.2358 8.60203C11.0398 8.93803 10.9418 9.36737 10.9418 9.89003H13.2658Z" fill="#004D43"/>
<path d="M20.3814 7.42603L20.4514 6.95003H22.0194V14.3C22.0194 16.4654 21.0207 17.548 19.0234 17.548C18.0247 17.548 17.1521 17.366 16.4054 17.002L16.6714 15.476C16.9607 15.6534 17.3107 15.798 17.7214 15.91C18.1414 16.0314 18.5287 16.092 18.8834 16.092C19.8447 16.092 20.3254 15.4667 20.3254 14.216V13.768C19.8681 14.2627 19.2801 14.51 18.5614 14.51C17.7494 14.51 17.1007 14.1974 16.6154 13.572C16.1394 12.9374 15.9014 11.9947 15.9014 10.744C15.9014 10.0534 15.9901 9.42337 16.1674 8.85403C16.3541 8.2847 16.6621 7.80403 17.0914 7.41203C17.5301 7.0107 18.0621 6.81003 18.6874 6.81003C19.3127 6.81003 19.8774 7.01537 20.3814 7.42603ZM20.2694 12.55V8.64403C19.8307 8.3267 19.4387 8.16803 19.0934 8.16803C18.1787 8.16803 17.7214 9.03603 17.7214 10.772C17.7214 12.34 18.1647 13.124 19.0514 13.124C19.4807 13.124 19.8867 12.9327 20.2694 12.55Z" fill="#004D43"/>
<path d="M24.174 8.44803L23.964 7.14603C24.636 6.92203 25.406 6.81003 26.274 6.81003C27.3006 6.81003 28.0286 7.04337 28.458 7.51003C28.8873 7.96737 29.102 8.80737 29.102 10.03V12.662C29.102 13.054 29.242 13.25 29.522 13.25C29.6526 13.25 29.802 13.2174 29.97 13.152L30.096 14.328C29.7413 14.4774 29.3446 14.552 28.906 14.552C28.234 14.552 27.8233 14.2674 27.674 13.698C27.0673 14.2674 26.3626 14.552 25.56 14.552C24.8413 14.552 24.2906 14.3327 23.908 13.894C23.5346 13.4554 23.348 12.8954 23.348 12.214C23.348 10.4874 24.3093 9.62403 26.232 9.62403C26.6146 9.62403 27.0113 9.6707 27.422 9.76403V9.44203C27.422 8.57403 26.932 8.14003 25.952 8.14003C25.42 8.14003 24.8273 8.2427 24.174 8.44803ZM27.422 12.592V10.87C27.1046 10.758 26.806 10.702 26.526 10.702C25.5646 10.702 25.084 11.1547 25.084 12.06C25.084 12.424 25.168 12.7134 25.336 12.928C25.504 13.1334 25.7513 13.236 26.078 13.236C26.582 13.236 27.03 13.0214 27.422 12.592Z" fill="#004D43"/>
<path d="M34.9894 7.28603V4.34603H36.7394V14.412H35.1714L35.1154 13.754C34.6021 14.286 33.9907 14.552 33.2814 14.552C32.4694 14.552 31.8207 14.23 31.3354 13.586C30.8594 12.942 30.6214 11.9947 30.6214 10.744C30.6214 10.0534 30.7147 9.42337 30.9014 8.85403C31.0881 8.27537 31.4007 7.79003 31.8394 7.39803C32.2781 7.00603 32.8194 6.81003 33.4634 6.81003C34.0234 6.81003 34.5321 6.9687 34.9894 7.28603ZM35.0034 12.606V8.61603C34.5647 8.2987 34.1774 8.14003 33.8414 8.14003C32.9081 8.14003 32.4414 9.01737 32.4414 10.772C32.4414 11.556 32.5581 12.1534 32.7914 12.564C33.0247 12.9747 33.3561 13.18 33.7854 13.18C34.2147 13.18 34.6207 12.9887 35.0034 12.606Z" fill="#004D43"/>
<path d="M38.894 8.44803L38.684 7.14603C39.356 6.92203 40.126 6.81003 40.994 6.81003C42.0206 6.81003 42.7486 7.04337 43.178 7.51003C43.6073 7.96737 43.822 8.80737 43.822 10.03V12.662C43.822 13.054 43.962 13.25 44.242 13.25C44.3726 13.25 44.522 13.2174 44.69 13.152L44.816 14.328C44.4613 14.4774 44.0646 14.552 43.626 14.552C42.954 14.552 42.5433 14.2674 42.394 13.698C41.7873 14.2674 41.0826 14.552 40.28 14.552C39.5613 14.552 39.0106 14.3327 38.628 13.894C38.2546 13.4554 38.068 12.8954 38.068 12.214C38.068 10.4874 39.0293 9.62403 40.952 9.62403C41.3346 9.62403 41.7313 9.6707 42.142 9.76403V9.44203C42.142 8.57403 41.652 8.14003 40.672 8.14003C40.14 8.14003 39.5473 8.2427 38.894 8.44803ZM42.142 12.592V10.87C41.8246 10.758 41.526 10.702 41.246 10.702C40.2846 10.702 39.804 11.1547 39.804 12.06C39.804 12.424 39.888 12.7134 40.056 12.928C40.224 13.1334 40.4713 13.236 40.798 13.236C41.302 13.236 41.75 13.0214 42.142 12.592Z" fill="#004D43"/>
<path d="M45.8561 6.95003H47.6061V14.412H45.8561V6.95003ZM45.7161 5.00403C45.7161 4.6867 45.8095 4.43937 45.9961 4.26203C46.1828 4.0847 46.4255 3.99603 46.7241 3.99603C47.0508 3.99603 47.3028 4.0847 47.4801 4.26203C47.6575 4.43003 47.7461 4.67737 47.7461 5.00403C47.7461 5.3307 47.6481 5.5827 47.4521 5.76003C47.2655 5.92803 47.0228 6.01203 46.7241 6.01203C46.4161 6.01203 46.1688 5.92337 45.9821 5.74603C45.8048 5.55937 45.7161 5.31203 45.7161 5.00403Z" fill="#004D43"/>
<path d="M49.7585 8.44803L49.5485 7.14603C50.2205 6.92203 50.9905 6.81003 51.8585 6.81003C52.8852 6.81003 53.6132 7.04337 54.0425 7.51003C54.4719 7.96737 54.6865 8.80737 54.6865 10.03V12.662C54.6865 13.054 54.8265 13.25 55.1065 13.25C55.2372 13.25 55.3865 13.2174 55.5545 13.152L55.6805 14.328C55.3259 14.4774 54.9292 14.552 54.4905 14.552C53.8185 14.552 53.4079 14.2674 53.2585 13.698C52.6519 14.2674 51.9472 14.552 51.1445 14.552C50.4259 14.552 49.8752 14.3327 49.4925 13.894C49.1192 13.4554 48.9325 12.8954 48.9325 12.214C48.9325 10.4874 49.8939 9.62403 51.8165 9.62403C52.1992 9.62403 52.5959 9.6707 53.0065 9.76403V9.44203C53.0065 8.57403 52.5165 8.14003 51.5365 8.14003C51.0045 8.14003 50.4119 8.2427 49.7585 8.44803ZM53.0065 12.592V10.87C52.6892 10.758 52.3905 10.702 52.1105 10.702C51.1492 10.702 50.6685 11.1547 50.6685 12.06C50.6685 12.424 50.7525 12.7134 50.9205 12.928C51.0885 13.1334 51.3359 13.236 51.6625 13.236C52.1665 13.236 52.6145 13.0214 53.0065 12.592Z" fill="#004D43"/>
<path d="M58.3167 6.95003L58.3727 7.69203C59.0447 7.10403 59.782 6.81003 60.5847 6.81003C61.7887 6.81003 62.47 7.32803 62.6287 8.36403C62.666 8.59737 62.6847 8.91003 62.6847 9.30203V14.412H60.9347V9.52603C60.9347 9.2367 60.93 9.04537 60.9207 8.95203C60.8647 8.4947 60.5567 8.26603 59.9967 8.26603C59.5114 8.26603 59.0074 8.49937 58.4847 8.96603V14.412H56.7207V6.95003H58.3167Z" fill="#004D43"/>
<path d="M1 38.14L1.858 35.436C2.82867 35.904 3.756 36.138 4.64 36.138C5.42 36.138 5.93133 35.904 6.174 35.436C6.434 34.968 6.564 34.214 6.564 33.174V20.018H9.892V33.252C9.892 35.2627 9.49333 36.736 8.696 37.672C7.916 38.5907 6.70267 39.05 5.056 39.05C3.46133 39.05 2.10933 38.7467 1 38.14Z" fill="#00AB4E"/>
<path d="M13.5361 27.636L13.1461 25.218C14.3941 24.802 15.8241 24.594 17.4361 24.594C19.3427 24.594 20.6947 25.0274 21.4921 25.894C22.2894 26.7434 22.6881 28.3034 22.6881 30.574V35.462C22.6881 36.19 22.9481 36.554 23.4681 36.554C23.7107 36.554 23.9881 36.4934 24.3001 36.372L24.5341 38.556C23.8754 38.8334 23.1387 38.972 22.3241 38.972C21.0761 38.972 20.3134 38.4434 20.0361 37.386C18.9094 38.4434 17.6007 38.972 16.1101 38.972C14.7754 38.972 13.7527 38.5647 13.0421 37.75C12.3487 36.9354 12.0021 35.8954 12.0021 34.63C12.0021 31.4234 13.7874 29.82 17.3581 29.82C18.0687 29.82 18.8054 29.9067 19.5681 30.08V29.482C19.5681 27.87 18.6581 27.064 16.8381 27.064C15.8501 27.064 14.7494 27.2547 13.5361 27.636ZM19.5681 35.332V32.134C18.9787 31.926 18.4241 31.822 17.9041 31.822C16.1187 31.822 15.2261 32.6627 15.2261 34.344C15.2261 35.02 15.3821 35.5574 15.6941 35.956C16.0061 36.3374 16.4654 36.528 17.0721 36.528C18.0081 36.528 18.8401 36.1294 19.5681 35.332Z" fill="#00AB4E"/>
<path d="M25.4518 37.646L26.3358 35.072C27.6358 36.0254 28.9444 36.502 30.2618 36.502C31.4751 36.502 32.0818 35.982 32.0818 34.942C32.0818 34.4567 31.8911 34.0927 31.5098 33.85C31.1458 33.59 30.5824 33.3387 29.8198 33.096C29.3518 32.94 29.0311 32.836 28.8578 32.784C28.7018 32.732 28.4158 32.6194 27.9998 32.446C27.6011 32.2727 27.3064 32.0994 27.1158 31.926C26.9424 31.7527 26.7344 31.5274 26.4918 31.25C26.2491 30.9727 26.0758 30.6434 25.9718 30.262C25.8851 29.8807 25.8418 29.456 25.8418 28.988C25.8418 27.636 26.2924 26.57 27.1938 25.79C28.1124 24.9927 29.3171 24.594 30.8078 24.594C33.3904 24.594 34.9678 25.66 35.5398 27.792L33.0698 28.754C32.6364 27.5927 31.8738 27.012 30.7818 27.012C30.2791 27.012 29.8458 27.142 29.4818 27.402C29.1351 27.6447 28.9618 28.0174 28.9618 28.52C28.9618 28.832 29.0224 29.1007 29.1438 29.326C29.2824 29.534 29.4991 29.7247 29.7938 29.898C30.0884 30.0714 30.3484 30.2014 30.5738 30.288C30.8164 30.3747 31.1718 30.4874 31.6398 30.626C32.1771 30.7994 32.6278 30.964 32.9918 31.12C33.3558 31.276 33.7371 31.51 34.1358 31.822C34.5344 32.1167 34.8378 32.5067 35.0458 32.992C35.2538 33.46 35.3578 34.0147 35.3578 34.656C35.3578 36.008 34.8984 37.074 33.9798 37.854C33.0611 38.634 31.8218 39.024 30.2618 39.024C29.3258 39.024 28.3984 38.8767 27.4798 38.582C26.5784 38.2874 25.9024 37.9754 25.4518 37.646Z" fill="#00AB4E"/>
<path d="M38.5869 27.636L38.1969 25.218C39.4449 24.802 40.8749 24.594 42.4869 24.594C44.3935 24.594 45.7455 25.0274 46.5429 25.894C47.3402 26.7434 47.7389 28.3034 47.7389 30.574V35.462C47.7389 36.19 47.9989 36.554 48.5189 36.554C48.7615 36.554 49.0389 36.4934 49.3509 36.372L49.5849 38.556C48.9262 38.8334 48.1895 38.972 47.3749 38.972C46.1269 38.972 45.3642 38.4434 45.0869 37.386C43.9602 38.4434 42.6515 38.972 41.1609 38.972C39.8262 38.972 38.8035 38.5647 38.0929 37.75C37.3995 36.9354 37.0529 35.8954 37.0529 34.63C37.0529 31.4234 38.8382 29.82 42.4089 29.82C43.1195 29.82 43.8562 29.9067 44.6189 30.08V29.482C44.6189 27.87 43.7089 27.064 41.8889 27.064C40.9009 27.064 39.8002 27.2547 38.5869 27.636ZM44.6189 35.332V32.134C44.0295 31.926 43.4749 31.822 42.9549 31.822C41.1695 31.822 40.2769 32.6627 40.2769 34.344C40.2769 35.02 40.4329 35.5574 40.7449 35.956C41.0569 36.3374 41.5162 36.528 42.1229 36.528C43.0589 36.528 43.8909 36.1294 44.6189 35.332Z" fill="#00AB4E"/>
<path d="M58.818 33.164H55.854V38.712H54.543V25.051H59.065C60.395 25.051 61.4273 25.3614 62.162 25.982C62.8966 26.59 63.264 27.4894 63.264 28.68C63.264 30.048 62.8523 31.1374 62.029 31.948C61.2183 32.7587 60.148 33.164 58.818 33.164ZM55.854 32.005H58.704C59.7426 32.005 60.5343 31.739 61.079 31.207C61.6363 30.6624 61.915 29.8834 61.915 28.87C61.915 27.9074 61.6616 27.2297 61.155 26.837C60.661 26.4317 59.8946 26.229 58.856 26.229H55.854V32.005Z" fill="#00AB4E"/>
<path d="M71.5932 33.829H65.7982C65.7982 36.489 66.7482 37.819 68.6482 37.819C69.5222 37.819 70.4152 37.5784 71.3272 37.097L71.4412 38.237C70.5926 38.7057 69.6109 38.94 68.4962 38.94C65.8236 38.94 64.4872 37.1604 64.4872 33.601C64.4872 31.8404 64.8229 30.5484 65.4942 29.725C66.1656 28.889 67.0902 28.471 68.2682 28.471C69.4209 28.471 70.2632 28.87 70.7952 29.668C71.3272 30.4534 71.5932 31.6187 71.5932 33.164V33.829ZM70.2822 32.822C70.2822 31.758 70.0986 30.9537 69.7312 30.409C69.3766 29.8517 68.8636 29.573 68.1922 29.573C67.4196 29.573 66.8306 29.9024 66.4252 30.561C66.0199 31.207 65.8172 31.9607 65.8172 32.822H70.2822Z" fill="#00AB4E"/>
<path d="M78.728 28.471C79.906 28.471 80.6787 28.9144 81.046 29.801C82.072 28.9144 83.117 28.471 84.181 28.471C85.701 28.471 86.575 29.1297 86.803 30.447C86.8537 30.7384 86.879 31.15 86.879 31.682V38.712H85.625V31.853C85.625 31.3844 85.5997 31.0424 85.549 30.827C85.397 30.029 84.846 29.63 83.896 29.63C83.022 29.63 82.1417 30.048 81.255 30.884C81.2804 31.0867 81.293 31.4224 81.293 31.891V38.712H80.039V31.853C80.039 31.3844 80.0137 31.0424 79.963 30.827C79.8364 30.029 79.336 29.63 78.462 29.63C77.4107 29.63 76.4037 30.124 75.441 31.112V38.712H74.168V28.68H75.441V29.915C76.543 28.9524 77.6387 28.471 78.728 28.471Z" fill="#00AB4E"/>
<path d="M91.3976 29.782C92.6263 28.9207 93.6333 28.49 94.4186 28.49C95.356 28.49 96.0906 28.8574 96.6226 29.592C97.1673 30.3267 97.4396 31.4224 97.4396 32.879C97.4396 36.8944 96.0463 38.902 93.2596 38.902C92.1196 38.902 91.081 38.617 90.1436 38.047V25.051H91.3976V29.782ZM96.0526 33.373C96.0526 31.9797 95.8816 31.017 95.5396 30.485C95.2103 29.953 94.729 29.687 94.0956 29.687C93.399 29.687 92.4996 30.0734 91.3976 30.846V37.344C91.955 37.6607 92.582 37.819 93.2786 37.819C94.2666 37.819 94.976 37.401 95.4066 36.565C95.8373 35.729 96.0526 34.665 96.0526 33.373Z" fill="#00AB4E"/>
<path d="M100.316 29.934L100.183 28.813C101.006 28.585 101.963 28.471 103.052 28.471C105.155 28.471 106.206 29.5097 106.206 31.587V36.964C106.206 37.268 106.257 37.4834 106.358 37.61C106.472 37.7367 106.656 37.8 106.909 37.8C107.112 37.8 107.384 37.7367 107.726 37.61L107.84 38.655C107.321 38.8197 106.903 38.902 106.586 38.902C106.143 38.902 105.788 38.788 105.522 38.56C105.256 38.3194 105.104 38.028 105.066 37.686C104.154 38.4967 103.191 38.902 102.178 38.902C101.253 38.902 100.55 38.6107 100.069 38.028C99.5877 37.4454 99.347 36.7044 99.347 35.805C99.347 34.627 99.6827 33.7594 100.354 33.202C101.038 32.632 101.988 32.347 103.204 32.347C103.812 32.347 104.395 32.4104 104.952 32.537V31.815C104.952 31.0297 104.781 30.4597 104.439 30.105C104.097 29.7504 103.502 29.573 102.653 29.573C101.855 29.573 101.076 29.6934 100.316 29.934ZM104.952 36.679L104.971 33.525C104.414 33.3857 103.894 33.316 103.413 33.316C102.501 33.316 101.817 33.506 101.361 33.886C100.918 34.266 100.696 34.893 100.696 35.767C100.696 36.3497 100.842 36.831 101.133 37.211C101.437 37.591 101.88 37.781 102.463 37.781C103.337 37.781 104.167 37.4137 104.952 36.679Z" fill="#00AB4E"/>
<path d="M114.745 28.68L115.999 28.813C114.985 32.5624 113.896 35.8304 112.731 38.617C112.097 40.137 111.496 41.2264 110.926 41.885C110.368 42.5437 109.596 42.873 108.608 42.873C107.683 42.873 106.834 42.645 106.062 42.189L106.423 41.03C107.259 41.5114 107.993 41.752 108.627 41.752C109.273 41.752 109.786 41.505 110.166 41.011C110.546 40.517 110.951 39.7 111.382 38.56L107.886 28.813L109.254 28.68L112.123 37.04C112.705 35.6467 113.579 32.86 114.745 28.68Z" fill="#00AB4E"/>
<path d="M117.98 29.934L117.847 28.813C118.67 28.585 119.627 28.471 120.716 28.471C122.819 28.471 123.87 29.5097 123.87 31.587V36.964C123.87 37.268 123.921 37.4834 124.022 37.61C124.136 37.7367 124.32 37.8 124.573 37.8C124.776 37.8 125.048 37.7367 125.39 37.61L125.504 38.655C124.985 38.8197 124.567 38.902 124.25 38.902C123.807 38.902 123.452 38.788 123.186 38.56C122.92 38.3194 122.768 38.028 122.73 37.686C121.818 38.4967 120.855 38.902 119.842 38.902C118.917 38.902 118.214 38.6107 117.733 38.028C117.252 37.4454 117.011 36.7044 117.011 35.805C117.011 34.627 117.347 33.7594 118.018 33.202C118.702 32.632 119.652 32.347 120.868 32.347C121.476 32.347 122.059 32.4104 122.616 32.537V31.815C122.616 31.0297 122.445 30.4597 122.103 30.105C121.761 29.7504 121.166 29.573 120.317 29.573C119.519 29.573 118.74 29.6934 117.98 29.934ZM122.616 36.679L122.635 33.525C122.078 33.3857 121.558 33.316 121.077 33.316C120.165 33.316 119.481 33.506 119.025 33.886C118.582 34.266 118.36 34.893 118.36 35.767C118.36 36.3497 118.506 36.831 118.797 37.211C119.101 37.591 119.544 37.781 120.127 37.781C121.001 37.781 121.831 37.4137 122.616 36.679Z" fill="#00AB4E"/>
<path d="M131.086 28.471C131.998 28.471 132.638 28.9904 133.005 30.029L131.96 30.599C131.808 30.2697 131.65 30.0354 131.485 29.896C131.32 29.744 131.08 29.668 130.763 29.668C130.168 29.668 129.49 30.105 128.73 30.979V38.712H127.457V28.68H128.654V29.801C129.465 28.9144 130.275 28.471 131.086 28.471Z" fill="#00AB4E"/>
<path d="M134.642 29.934L134.509 28.813C135.333 28.585 136.289 28.471 137.378 28.471C139.481 28.471 140.532 29.5097 140.532 31.587V36.964C140.532 37.268 140.583 37.4834 140.684 37.61C140.798 37.7367 140.982 37.8 141.235 37.8C141.438 37.8 141.71 37.7367 142.052 37.61L142.166 38.655C141.647 38.8197 141.229 38.902 140.912 38.902C140.469 38.902 140.114 38.788 139.848 38.56C139.582 38.3194 139.43 38.028 139.392 37.686C138.48 38.4967 137.518 38.902 136.504 38.902C135.58 38.902 134.877 38.6107 134.395 38.028C133.914 37.4454 133.673 36.7044 133.673 35.805C133.673 34.627 134.009 33.7594 134.68 33.202C135.364 32.632 136.314 32.347 137.53 32.347C138.138 32.347 138.721 32.4104 139.278 32.537V31.815C139.278 31.0297 139.107 30.4597 138.765 30.105C138.423 29.7504 137.828 29.573 136.979 29.573C136.181 29.573 135.402 29.6934 134.642 29.934ZM139.278 36.679L139.297 33.525C138.74 33.3857 138.221 33.316 137.739 33.316C136.827 33.316 136.143 33.506 135.687 33.886C135.244 34.266 135.022 34.893 135.022 35.767C135.022 36.3497 135.168 36.831 135.459 37.211C135.763 37.591 136.207 37.781 136.789 37.781C137.663 37.781 138.493 37.4137 139.278 36.679Z" fill="#00AB4E"/>
<path d="M148.679 28.471C150.187 28.471 151.067 29.1297 151.32 30.447C151.358 30.6624 151.377 31.074 151.377 31.682V38.712H150.123V31.853C150.123 31.4097 150.104 31.0677 150.066 30.827C149.914 30.029 149.332 29.63 148.318 29.63C147.394 29.63 146.418 30.1177 145.392 31.093V38.712H144.119V28.68H145.392V29.934C146.469 28.9587 147.565 28.471 148.679 28.471Z" fill="#00AB4E"/>
<path d="M161.837 38.978C158.506 38.978 156.84 36.5397 156.84 31.663C156.84 29.3957 157.296 27.6794 158.208 26.514C159.12 25.3487 160.393 24.766 162.027 24.766C163.699 24.766 164.928 25.317 165.713 26.419C166.511 27.5084 166.91 29.2184 166.91 31.549C166.91 36.5017 165.219 38.978 161.837 38.978ZM165.542 31.568C165.542 29.516 165.232 28.0657 164.611 27.217C163.99 26.3684 163.11 25.944 161.97 25.944C160.83 25.944 159.918 26.3937 159.234 27.293C158.55 28.1924 158.208 29.649 158.208 31.663C158.208 35.767 159.418 37.819 161.837 37.819C162.394 37.819 162.882 37.7304 163.3 37.553C163.718 37.363 164.104 37.0464 164.459 36.603C164.814 36.1597 165.08 35.52 165.257 34.684C165.447 33.8354 165.542 32.7967 165.542 31.568Z" fill="#00AB4E"/>
<path d="M174.288 28.471C175.795 28.471 176.675 29.1297 176.929 30.447C176.967 30.6624 176.986 31.074 176.986 31.682V38.712H175.732V31.853C175.732 31.4097 175.713 31.0677 175.675 30.827C175.523 30.029 174.94 29.63 173.927 29.63C173.002 29.63 172.027 30.1177 171.001 31.093V38.712H169.728V28.68H171.001V29.934C172.077 28.9587 173.173 28.471 174.288 28.471Z" fill="#00AB4E"/>
<path d="M180.134 36.318V25.051H181.407V36.128C181.407 36.7234 181.489 37.154 181.654 37.42C181.819 37.6734 182.116 37.8 182.547 37.8C182.99 37.8 183.503 37.667 184.086 37.401L184.238 38.465C183.681 38.7564 183.041 38.902 182.319 38.902C181.496 38.902 180.926 38.6867 180.609 38.256C180.292 37.8127 180.134 37.1667 180.134 36.318Z" fill="#00AB4E"/>
<path d="M186.149 28.68H187.403V38.712H186.149V28.68ZM185.94 26.096C185.94 25.83 186.016 25.6274 186.168 25.488C186.32 25.336 186.516 25.26 186.757 25.26C187.314 25.26 187.593 25.545 187.593 26.115C187.593 26.3937 187.517 26.6154 187.365 26.78C187.213 26.932 187.01 27.008 186.757 27.008C186.516 27.008 186.32 26.9257 186.168 26.761C186.016 26.5964 185.94 26.3747 185.94 26.096Z" fill="#00AB4E"/>
<path d="M195.236 28.471C196.743 28.471 197.624 29.1297 197.877 30.447C197.915 30.6624 197.934 31.074 197.934 31.682V38.712H196.68V31.853C196.68 31.4097 196.661 31.0677 196.623 30.827C196.471 30.029 195.888 29.63 194.875 29.63C193.95 29.63 192.975 30.1177 191.949 31.093V38.712H190.676V28.68H191.949V29.934C193.026 28.9587 194.121 28.471 195.236 28.471Z" fill="#00AB4E"/>
<path d="M207.713 33.829H201.918C201.918 36.489 202.868 37.819 204.768 37.819C205.642 37.819 206.535 37.5784 207.447 37.097L207.561 38.237C206.713 38.7057 205.731 38.94 204.616 38.94C201.944 38.94 200.607 37.1604 200.607 33.601C200.607 31.8404 200.943 30.5484 201.614 29.725C202.286 28.889 203.21 28.471 204.388 28.471C205.541 28.471 206.383 28.87 206.915 29.668C207.447 30.4534 207.713 31.6187 207.713 33.164V33.829ZM206.402 32.822C206.402 31.758 206.219 30.9537 205.851 30.409C205.497 29.8517 204.984 29.573 204.312 29.573C203.54 29.573 202.951 29.9024 202.545 30.561C202.14 31.207 201.937 31.9607 201.937 32.822H206.402Z" fill="#00AB4E"/>
</svg>
