<svg width="240" height="48" viewBox="0 0 240 48" fill="none" xmlns="http://www.w3.org/2000/svg">
<path d="M2.792 10.719V14.415H1V4.34902H4.528C5.592 4.34902 6.418 4.59636 7.006 5.09102C7.594 5.58569 7.888 6.30436 7.888 7.24702C7.888 8.30169 7.566 9.14636 6.922 9.78102C6.28733 10.4064 5.42867 10.719 4.346 10.719H2.792ZM2.792 9.33302H4.15C4.77533 9.33302 5.24667 9.16969 5.564 8.84302C5.89067 8.50702 6.054 8.02169 6.054 7.38702C6.054 6.27636 5.466 5.72102 4.29 5.72102H2.792V9.33302Z" fill="white"/>
<path d="M14.1077 10.985H10.1177C10.1271 11.685 10.2857 12.2217 10.5937 12.595C10.9017 12.959 11.3264 13.141 11.8677 13.141C12.5304 13.141 13.1977 12.9544 13.8697 12.581L13.9677 14.051C13.3331 14.3964 12.5724 14.569 11.6857 14.569C9.45505 14.569 8.33972 13.2484 8.33972 10.607C8.33972 9.31902 8.61505 8.36702 9.16572 7.75102C9.72572 7.12569 10.4584 6.81302 11.3637 6.81302C13.1931 6.81302 14.1077 7.97969 14.1077 10.313V10.985ZM12.4557 9.89302C12.4557 8.69836 12.0824 8.10102 11.3357 8.10102C10.9344 8.10102 10.6311 8.26902 10.4257 8.60502C10.2297 8.94102 10.1317 9.37036 10.1317 9.89302H12.4557Z" fill="white"/>
<path d="M19.5713 7.42902L19.6413 6.95302H21.2093V14.303C21.2093 16.4684 20.2107 17.551 18.2133 17.551C17.2147 17.551 16.342 17.369 15.5953 17.005L15.8613 15.479C16.1507 15.6564 16.5007 15.801 16.9113 15.913C17.3313 16.0344 17.7187 16.095 18.0733 16.095C19.0347 16.095 19.5153 15.4697 19.5153 14.219V13.771C19.058 14.2657 18.47 14.513 17.7513 14.513C16.9393 14.513 16.2907 14.2004 15.8053 13.575C15.3293 12.9404 15.0913 11.9977 15.0913 10.747C15.0913 10.0564 15.18 9.42636 15.3573 8.85702C15.544 8.28769 15.852 7.80702 16.2813 7.41502C16.72 7.01369 17.252 6.81302 17.8773 6.81302C18.5027 6.81302 19.0673 7.01836 19.5713 7.42902ZM19.4593 12.553V8.64702C19.0207 8.32969 18.6287 8.17102 18.2833 8.17102C17.3687 8.17102 16.9113 9.03902 16.9113 10.775C16.9113 12.343 17.3547 13.127 18.2413 13.127C18.6707 13.127 19.0767 12.9357 19.4593 12.553Z" fill="white"/>
<path d="M23.3639 8.45102L23.1539 7.14902C23.8259 6.92502 24.5959 6.81302 25.4639 6.81302C26.4906 6.81302 27.2186 7.04636 27.6479 7.51302C28.0772 7.97036 28.2919 8.81036 28.2919 10.033V12.665C28.2919 13.057 28.4319 13.253 28.7119 13.253C28.8426 13.253 28.9919 13.2204 29.1599 13.155L29.2859 14.331C28.9312 14.4804 28.5346 14.555 28.0959 14.555C27.4239 14.555 27.0132 14.2704 26.8639 13.701C26.2572 14.2704 25.5526 14.555 24.7499 14.555C24.0312 14.555 23.4806 14.3357 23.0979 13.897C22.7246 13.4584 22.5379 12.8984 22.5379 12.217C22.5379 10.4904 23.4992 9.62702 25.4219 9.62702C25.8046 9.62702 26.2012 9.67369 26.6119 9.76702V9.44502C26.6119 8.57702 26.1219 8.14302 25.1419 8.14302C24.6099 8.14302 24.0172 8.24569 23.3639 8.45102ZM26.6119 12.595V10.873C26.2946 10.761 25.9959 10.705 25.7159 10.705C24.7546 10.705 24.2739 11.1577 24.2739 12.063C24.2739 12.427 24.3579 12.7164 24.5259 12.931C24.6939 13.1364 24.9412 13.239 25.2679 13.239C25.7719 13.239 26.2199 13.0244 26.6119 12.595Z" fill="white"/>
<path d="M34.1793 7.28902V4.34902H35.9293V14.415H34.3613L34.3053 13.757C33.792 14.289 33.1807 14.555 32.4713 14.555C31.6593 14.555 31.0107 14.233 30.5253 13.589C30.0493 12.945 29.8113 11.9977 29.8113 10.747C29.8113 10.0564 29.9047 9.42636 30.0913 8.85702C30.278 8.27836 30.5907 7.79302 31.0293 7.40102C31.468 7.00902 32.0093 6.81302 32.6533 6.81302C33.2133 6.81302 33.722 6.97169 34.1793 7.28902ZM34.1933 12.609V8.61902C33.7547 8.30169 33.3673 8.14302 33.0313 8.14302C32.098 8.14302 31.6313 9.02036 31.6313 10.775C31.6313 11.559 31.748 12.1564 31.9813 12.567C32.2147 12.9777 32.546 13.183 32.9753 13.183C33.4047 13.183 33.8107 12.9917 34.1933 12.609Z" fill="white"/>
<path d="M38.0839 8.45102L37.8739 7.14902C38.5459 6.92502 39.3159 6.81302 40.1839 6.81302C41.2106 6.81302 41.9386 7.04636 42.3679 7.51302C42.7973 7.97036 43.0119 8.81036 43.0119 10.033V12.665C43.0119 13.057 43.1519 13.253 43.4319 13.253C43.5626 13.253 43.7119 13.2204 43.8799 13.155L44.0059 14.331C43.6513 14.4804 43.2546 14.555 42.8159 14.555C42.1439 14.555 41.7333 14.2704 41.5839 13.701C40.9773 14.2704 40.2726 14.555 39.4699 14.555C38.7513 14.555 38.2006 14.3357 37.8179 13.897C37.4446 13.4584 37.2579 12.8984 37.2579 12.217C37.2579 10.4904 38.2193 9.62702 40.1419 9.62702C40.5246 9.62702 40.9213 9.67369 41.3319 9.76702V9.44502C41.3319 8.57702 40.8419 8.14302 39.8619 8.14302C39.3299 8.14302 38.7373 8.24569 38.0839 8.45102ZM41.3319 12.595V10.873C41.0146 10.761 40.7159 10.705 40.4359 10.705C39.4746 10.705 38.9939 11.1577 38.9939 12.063C38.9939 12.427 39.0779 12.7164 39.2459 12.931C39.4139 13.1364 39.6613 13.239 39.9879 13.239C40.4919 13.239 40.9399 13.0244 41.3319 12.595Z" fill="white"/>
<path d="M45.0461 6.95302H46.7961V14.415H45.0461V6.95302ZM44.9061 5.00702C44.9061 4.68969 44.9994 4.44236 45.1861 4.26502C45.3727 4.08769 45.6154 3.99902 45.9141 3.99902C46.2407 3.99902 46.4927 4.08769 46.6701 4.26502C46.8474 4.43302 46.9361 4.68036 46.9361 5.00702C46.9361 5.33369 46.8381 5.58569 46.6421 5.76302C46.4554 5.93102 46.2127 6.01502 45.9141 6.01502C45.6061 6.01502 45.3587 5.92636 45.1721 5.74902C44.9947 5.56236 44.9061 5.31502 44.9061 5.00702Z" fill="white"/>
<path d="M48.9485 8.45102L48.7385 7.14902C49.4105 6.92502 50.1805 6.81302 51.0485 6.81302C52.0751 6.81302 52.8031 7.04636 53.2325 7.51302C53.6618 7.97036 53.8765 8.81036 53.8765 10.033V12.665C53.8765 13.057 54.0165 13.253 54.2965 13.253C54.4271 13.253 54.5765 13.2204 54.7445 13.155L54.8705 14.331C54.5158 14.4804 54.1191 14.555 53.6805 14.555C53.0085 14.555 52.5978 14.2704 52.4485 13.701C51.8418 14.2704 51.1371 14.555 50.3345 14.555C49.6158 14.555 49.0651 14.3357 48.6825 13.897C48.3091 13.4584 48.1225 12.8984 48.1225 12.217C48.1225 10.4904 49.0838 9.62702 51.0065 9.62702C51.3891 9.62702 51.7858 9.67369 52.1965 9.76702V9.44502C52.1965 8.57702 51.7065 8.14302 50.7265 8.14302C50.1945 8.14302 49.6018 8.24569 48.9485 8.45102ZM52.1965 12.595V10.873C51.8791 10.761 51.5805 10.705 51.3005 10.705C50.3391 10.705 49.8585 11.1577 49.8585 12.063C49.8585 12.427 49.9425 12.7164 50.1105 12.931C50.2785 13.1364 50.5258 13.239 50.8525 13.239C51.3565 13.239 51.8045 13.0244 52.1965 12.595Z" fill="white"/>
<path d="M57.5066 6.95302L57.5626 7.69502C58.2346 7.10702 58.972 6.81302 59.7746 6.81302C60.9786 6.81302 61.66 7.33102 61.8186 8.36702C61.856 8.60036 61.8746 8.91302 61.8746 9.30502V14.415H60.1246V9.52902C60.1246 9.23969 60.12 9.04836 60.1106 8.95502C60.0546 8.49769 59.7466 8.26902 59.1866 8.26902C58.7013 8.26902 58.1973 8.50236 57.6746 8.96902V14.415H55.9106V6.95302H57.5066Z" fill="white"/>
<path d="M66.2705 13.715L66.8585 12.147C67.7452 12.763 68.5992 13.071 69.4205 13.071C69.8965 13.071 70.2792 12.9637 70.5685 12.749C70.8672 12.525 71.0165 12.1797 71.0165 11.713C71.0165 11.209 70.8578 10.8357 70.5405 10.593C70.2325 10.3504 69.7285 10.131 69.0285 9.93502C68.7298 9.85102 68.4778 9.77636 68.2725 9.71102C68.0765 9.63636 67.8478 9.52436 67.5865 9.37502C67.3345 9.21636 67.1292 9.04369 66.9705 8.85702C66.8212 8.67036 66.6905 8.42302 66.5785 8.11502C66.4665 7.80702 66.4105 7.46169 66.4105 7.07902C66.4105 6.20169 66.7138 5.49236 67.3205 4.95102C67.9365 4.40969 68.7252 4.13902 69.6865 4.13902C70.6665 4.13902 71.4085 4.37236 71.9125 4.83902C72.4258 5.30569 72.7618 5.87502 72.9205 6.54702L71.2965 7.02302C71.0352 6.08969 70.4845 5.62302 69.6445 5.62302C69.2432 5.62302 68.9118 5.73036 68.6505 5.94502C68.3892 6.15969 68.2585 6.47702 68.2585 6.89702C68.2585 7.34502 68.4032 7.67169 68.6925 7.87702C68.9912 8.08236 69.4672 8.28302 70.1205 8.47902C70.9978 8.74036 71.6698 9.09502 72.1365 9.54302C72.6125 9.99102 72.8505 10.6397 72.8505 11.489C72.8505 12.4597 72.5332 13.225 71.8985 13.785C71.2732 14.3357 70.4425 14.611 69.4065 14.611C68.1652 14.611 67.1198 14.3124 66.2705 13.715Z" fill="white"/>
<path d="M78.1916 6.95302L79.8996 7.13502C79.125 9.92569 78.3363 12.259 77.5336 14.135C77.291 14.7044 77.0763 15.1617 76.8896 15.507C76.7123 15.8617 76.4883 16.2117 76.2176 16.557C75.947 16.9024 75.639 17.1544 75.2936 17.313C74.9576 17.4717 74.575 17.551 74.1456 17.551C73.3523 17.551 72.6196 17.3737 71.9476 17.019L72.3956 15.577C73.0396 15.913 73.5716 16.081 73.9916 16.081C74.393 16.081 74.7056 15.9364 74.9296 15.647C75.1629 15.367 75.415 14.8724 75.6856 14.163L73.0956 7.12102L74.9576 6.95302L76.0076 10.271C76.297 11.2137 76.5116 11.9184 76.6516 12.385C77.0343 11.2744 77.5476 9.46369 78.1916 6.95302Z" fill="white"/>
<path d="M81.1069 8.45102L80.8969 7.14902C81.5689 6.92502 82.3389 6.81302 83.2069 6.81302C84.2336 6.81302 84.9616 7.04636 85.3909 7.51302C85.8202 7.97036 86.0349 8.81036 86.0349 10.033V12.665C86.0349 13.057 86.1749 13.253 86.4549 13.253C86.5856 13.253 86.7349 13.2204 86.9029 13.155L87.0289 14.331C86.6742 14.4804 86.2776 14.555 85.8389 14.555C85.1669 14.555 84.7562 14.2704 84.6069 13.701C84.0002 14.2704 83.2956 14.555 82.4929 14.555C81.7742 14.555 81.2236 14.3357 80.8409 13.897C80.4676 13.4584 80.2809 12.8984 80.2809 12.217C80.2809 10.4904 81.2422 9.62702 83.1649 9.62702C83.5476 9.62702 83.9442 9.67369 84.3549 9.76702V9.44502C84.3549 8.57702 83.8649 8.14302 82.8849 8.14302C82.3529 8.14302 81.7602 8.24569 81.1069 8.45102ZM84.3549 12.595V10.873C84.0376 10.761 83.7389 10.705 83.4589 10.705C82.4976 10.705 82.0169 11.1577 82.0169 12.063C82.0169 12.427 82.1009 12.7164 82.2689 12.931C82.4369 13.1364 82.6842 13.239 83.0109 13.239C83.5149 13.239 83.9629 13.0244 84.3549 12.595Z" fill="white"/>
<path d="M91.4291 6.81302C91.9424 6.81302 92.3764 7.06969 92.7311 7.58302L91.9471 8.84302C91.7231 8.56302 91.4571 8.42302 91.1491 8.42302C90.6824 8.42302 90.2437 8.63769 89.8331 9.06702V14.415H88.0691V6.95302H89.6371L89.7071 7.73702C90.2297 7.12102 90.8037 6.81302 91.4291 6.81302Z" fill="white"/>
<path d="M93.5902 6.95302H95.3402V14.415H93.5902V6.95302ZM93.4502 5.00702C93.4502 4.68969 93.5435 4.44236 93.7302 4.26502C93.9169 4.08769 94.1595 3.99902 94.4582 3.99902C94.7849 3.99902 95.0369 4.08769 95.2142 4.26502C95.3915 4.43302 95.4802 4.68036 95.4802 5.00702C95.4802 5.33369 95.3822 5.58569 95.1862 5.76302C94.9995 5.93102 94.7569 6.01502 94.4582 6.01502C94.1502 6.01502 93.9029 5.92636 93.7162 5.74902C93.5389 5.56236 93.4502 5.31502 93.4502 5.00702Z" fill="white"/>
<path d="M97.4926 8.45102L97.2826 7.14902C97.9546 6.92502 98.7246 6.81302 99.5926 6.81302C100.619 6.81302 101.347 7.04636 101.777 7.51302C102.206 7.97036 102.421 8.81036 102.421 10.033V12.665C102.421 13.057 102.561 13.253 102.841 13.253C102.971 13.253 103.121 13.2204 103.289 13.155L103.415 14.331C103.06 14.4804 102.663 14.555 102.225 14.555C101.553 14.555 101.142 14.2704 100.993 13.701C100.386 14.2704 99.6813 14.555 98.8786 14.555C98.1599 14.555 97.6093 14.3357 97.2266 13.897C96.8533 13.4584 96.6666 12.8984 96.6666 12.217C96.6666 10.4904 97.6279 9.62702 99.5506 9.62702C99.9333 9.62702 100.33 9.67369 100.741 9.76702V9.44502C100.741 8.57702 100.251 8.14302 99.2706 8.14302C98.7386 8.14302 98.1459 8.24569 97.4926 8.45102ZM100.741 12.595V10.873C100.423 10.761 100.125 10.705 99.8446 10.705C98.8833 10.705 98.4026 11.1577 98.4026 12.063C98.4026 12.427 98.4866 12.7164 98.6546 12.931C98.8226 13.1364 99.0699 13.239 99.3966 13.239C99.9006 13.239 100.349 13.0244 100.741 12.595Z" fill="white"/>
<path d="M108.347 6.81302C109.131 6.81302 109.672 7.02302 109.971 7.44302C110.269 7.85369 110.419 8.47436 110.419 9.30502V14.415H108.669V9.52902C108.669 9.05302 108.603 8.72636 108.473 8.54902C108.351 8.36236 108.104 8.26902 107.731 8.26902C107.245 8.26902 106.741 8.50236 106.219 8.96902V14.415H104.455V4.34902H106.219V7.61102C106.872 7.07902 107.581 6.81302 108.347 6.81302Z" fill="white"/>
<path d="M8.35398 31.747V29.251H14.958V37.779C13.138 38.6456 11.1966 39.079 9.13398 39.079C6.37798 39.079 4.34998 38.273 3.04998 36.661C1.76731 35.049 1.12598 32.5096 1.12598 29.043C1.12598 26.1656 1.72398 23.8776 2.91998 22.179C4.13331 20.4803 5.99664 19.631 8.50998 19.631C10.3646 19.631 11.7773 20.0643 12.748 20.931C13.7186 21.7803 14.3686 23.0023 14.698 24.597L11.604 25.351C11.3093 24.2936 10.928 23.5223 10.46 23.037C10.0093 22.5343 9.32464 22.283 8.40598 22.283C5.87531 22.283 4.60998 24.5016 4.60998 28.939C4.60998 30.135 4.67064 31.1576 4.79198 32.007C4.91331 32.8563 5.13864 33.6363 5.46798 34.347C5.79731 35.0403 6.26531 35.569 6.87198 35.933C7.49598 36.2796 8.26731 36.453 9.18598 36.453C10.122 36.453 10.9626 36.297 11.708 35.985V31.747H8.35398Z" fill="#72BF44"/>
<path d="M18.5405 27.639L18.1505 25.221C19.3985 24.805 20.8285 24.597 22.4405 24.597C24.3472 24.597 25.6992 25.0303 26.4965 25.897C27.2938 26.7463 27.6925 28.3063 27.6925 30.577V35.465C27.6925 36.193 27.9525 36.557 28.4725 36.557C28.7152 36.557 28.9925 36.4963 29.3045 36.375L29.5385 38.559C28.8798 38.8363 28.1432 38.975 27.3285 38.975C26.0805 38.975 25.3178 38.4463 25.0405 37.389C23.9138 38.4463 22.6052 38.975 21.1145 38.975C19.7798 38.975 18.7572 38.5676 18.0465 37.753C17.3532 36.9383 17.0065 35.8983 17.0065 34.633C17.0065 31.4263 18.7918 29.823 22.3625 29.823C23.0732 29.823 23.8098 29.9096 24.5725 30.083V29.485C24.5725 27.873 23.6625 27.067 21.8425 27.067C20.8545 27.067 19.7538 27.2576 18.5405 27.639ZM24.5725 35.335V32.137C23.9832 31.929 23.4285 31.825 22.9085 31.825C21.1232 31.825 20.2305 32.6656 20.2305 34.347C20.2305 35.023 20.3865 35.5603 20.6985 35.959C21.0105 36.3403 21.4698 36.531 22.0765 36.531C23.0125 36.531 23.8445 36.1323 24.5725 35.335Z" fill="#72BF44"/>
<path d="M38.6003 25.481V20.021H41.8503V38.715H38.9383L38.8343 37.493C37.881 38.481 36.7456 38.975 35.4283 38.975C33.9203 38.975 32.7156 38.377 31.8143 37.181C30.9303 35.985 30.4883 34.2256 30.4883 31.903C30.4883 30.6203 30.6616 29.4503 31.0083 28.393C31.355 27.3183 31.9356 26.417 32.7503 25.689C33.565 24.961 34.5703 24.597 35.7663 24.597C36.8063 24.597 37.751 24.8916 38.6003 25.481ZM38.6263 35.361V27.951C37.8116 27.3616 37.0923 27.067 36.4683 27.067C34.735 27.067 33.8683 28.6963 33.8683 31.955C33.8683 33.411 34.085 34.5203 34.5183 35.283C34.9516 36.0456 35.567 36.427 36.3643 36.427C37.1616 36.427 37.9156 36.0716 38.6263 35.361Z" fill="#72BF44"/>
<path d="M45.8257 27.639L45.4357 25.221C46.6837 24.805 48.1137 24.597 49.7257 24.597C51.6323 24.597 52.9843 25.0303 53.7817 25.897C54.579 26.7463 54.9777 28.3063 54.9777 30.577V35.465C54.9777 36.193 55.2377 36.557 55.7577 36.557C56.0003 36.557 56.2777 36.4963 56.5897 36.375L56.8237 38.559C56.165 38.8363 55.4283 38.975 54.6137 38.975C53.3657 38.975 52.603 38.4463 52.3257 37.389C51.199 38.4463 49.8903 38.975 48.3997 38.975C47.065 38.975 46.0423 38.5676 45.3317 37.753C44.6383 36.9383 44.2917 35.8983 44.2917 34.633C44.2917 31.4263 46.077 29.823 49.6477 29.823C50.3583 29.823 51.095 29.9096 51.8577 30.083V29.485C51.8577 27.873 50.9477 27.067 49.1277 27.067C48.1397 27.067 47.039 27.2576 45.8257 27.639ZM51.8577 35.335V32.137C51.2683 31.929 50.7137 31.825 50.1937 31.825C48.4083 31.825 47.5157 32.6656 47.5157 34.347C47.5157 35.023 47.6717 35.5603 47.9837 35.959C48.2957 36.3403 48.755 36.531 49.3617 36.531C50.2977 36.531 51.1297 36.1323 51.8577 35.335Z" fill="#72BF44"/>
<path d="M58.7294 24.857H61.9794V38.715H58.7294V24.857ZM58.4694 21.243C58.4694 20.6536 58.6427 20.1943 58.9894 19.865C59.3361 19.5356 59.7867 19.371 60.3414 19.371C60.9481 19.371 61.416 19.5356 61.7454 19.865C62.0747 20.177 62.2394 20.6363 62.2394 21.243C62.2394 21.8496 62.0574 22.3176 61.6934 22.647C61.3467 22.959 60.896 23.115 60.3414 23.115C59.7694 23.115 59.3101 22.9503 58.9634 22.621C58.634 22.2743 58.4694 21.815 58.4694 21.243Z" fill="#72BF44"/>
<path d="M66.6689 37.632L67.2769 36.416C68.2776 37.3154 69.4113 37.765 70.6779 37.765C71.4886 37.765 72.1599 37.5624 72.6919 37.157C73.2239 36.739 73.4899 36.0994 73.4899 35.238C73.4899 34.8327 73.4266 34.478 73.2999 34.174C73.1859 33.8574 73.0529 33.604 72.9009 33.414C72.7616 33.224 72.5209 33.0404 72.1789 32.863C71.8369 32.673 71.5519 32.54 71.3239 32.464C71.0959 32.3754 70.7349 32.2487 70.2409 32.084C69.8356 31.9447 69.5063 31.8244 69.2529 31.723C69.0123 31.6217 68.7273 31.4697 68.3979 31.267C68.0813 31.0644 67.8343 30.849 67.6569 30.621C67.4796 30.3804 67.3213 30.07 67.1819 29.69C67.0553 29.2974 66.9919 28.8604 66.9919 28.379C66.9919 27.277 67.3783 26.403 68.1509 25.757C68.9236 25.0984 69.8989 24.769 71.0769 24.769C72.2803 24.769 73.2113 25.0857 73.8699 25.719C74.5286 26.3524 74.9023 27.0617 74.9909 27.847L73.7939 28.189C73.6293 27.4797 73.2999 26.9477 72.8059 26.593C72.3119 26.2257 71.7166 26.042 71.0199 26.042C70.2979 26.042 69.6836 26.2384 69.1769 26.631C68.6703 27.011 68.4169 27.5937 68.4169 28.379C68.4169 28.6704 68.4423 28.93 68.4929 29.158C68.5563 29.3734 68.6639 29.5697 68.8159 29.747C68.9679 29.9244 69.1009 30.07 69.2149 30.184C69.3289 30.2854 69.5316 30.3994 69.8229 30.526C70.1143 30.6527 70.3233 30.7414 70.4499 30.792C70.5893 30.8427 70.8489 30.9314 71.2289 31.058C71.6596 31.21 71.9636 31.3177 72.1409 31.381C72.3183 31.4444 72.5906 31.5647 72.9579 31.742C73.3253 31.9067 73.5913 32.0777 73.7559 32.255C73.9333 32.4197 74.1233 32.6414 74.3259 32.92C74.5413 33.186 74.6933 33.5027 74.7819 33.87C74.8706 34.2247 74.9149 34.63 74.9149 35.086C74.9149 36.2767 74.5476 37.2267 73.8129 37.936C73.0783 38.6327 72.0206 38.981 70.6399 38.981C69.7279 38.981 68.9236 38.8417 68.2269 38.563C67.5303 38.2717 67.0109 37.9614 66.6689 37.632Z" fill="#72BF44"/>
<path d="M84.1895 33.832H78.3945C78.3945 36.492 79.3445 37.822 81.2445 37.822C82.1185 37.822 83.0115 37.5814 83.9235 37.1L84.0375 38.24C83.1888 38.7087 82.2071 38.943 81.0925 38.943C78.4198 38.943 77.0835 37.1634 77.0835 33.604C77.0835 31.8434 77.4191 30.5514 78.0905 29.728C78.7618 28.892 79.6865 28.474 80.8645 28.474C82.0171 28.474 82.8595 28.873 83.3915 29.671C83.9235 30.4564 84.1895 31.6217 84.1895 33.167V33.832ZM82.8785 32.825C82.8785 31.761 82.6948 30.9567 82.3275 30.412C81.9728 29.8547 81.4598 29.576 80.7885 29.576C80.0158 29.576 79.4268 29.9054 79.0215 30.564C78.6161 31.21 78.4135 31.9637 78.4135 32.825H82.8785Z" fill="#72BF44"/>
<path d="M90.3933 28.474C91.3053 28.474 91.9449 28.9934 92.3123 30.032L91.2673 30.602C91.1153 30.2727 90.9569 30.0384 90.7923 29.899C90.6276 29.747 90.3869 29.671 90.0703 29.671C89.4749 29.671 88.7973 30.108 88.0373 30.982V38.715H86.7643V28.683H87.9613V29.804C88.7719 28.9174 89.5826 28.474 90.3933 28.474Z" fill="#72BF44"/>
<path d="M98.3608 29.709H95.7388V35.903C95.7388 36.3464 95.7515 36.6884 95.7768 36.929C95.8148 37.157 95.9161 37.366 96.0808 37.556C96.2455 37.746 96.4925 37.841 96.8218 37.841C97.1891 37.841 97.6641 37.7017 98.2468 37.423L98.3798 38.487C97.7718 38.791 97.1765 38.943 96.5938 38.943C95.1878 38.943 94.4848 38.1134 94.4848 36.454V29.709H93.1928V28.683H94.4848V27.049L95.7388 26.327V28.683H98.3608V29.709Z" fill="#72BF44"/>
<path d="M100.569 28.683H101.823V38.715H100.569V28.683ZM100.36 26.099C100.36 25.833 100.436 25.6304 100.588 25.491C100.74 25.339 100.936 25.263 101.177 25.263C101.734 25.263 102.013 25.548 102.013 26.118C102.013 26.3967 101.937 26.6184 101.785 26.783C101.633 26.935 101.43 27.011 101.177 27.011C100.936 27.011 100.74 26.9287 100.588 26.764C100.436 26.5994 100.36 26.3777 100.36 26.099Z" fill="#72BF44"/>
<path d="M110.302 29.709H106.426V38.715H105.191V29.709H103.576V28.683H105.191V27.999C105.191 27.0744 105.451 26.3524 105.97 25.833C106.49 25.301 107.275 25.035 108.326 25.035C109.226 25.035 110.017 25.1554 110.701 25.396L110.53 26.498C109.846 26.2574 109.137 26.137 108.402 26.137C107.63 26.137 107.104 26.3144 106.825 26.669C106.559 27.011 106.426 27.5557 106.426 28.303V28.683H111.556V38.715H110.302V29.709Z" fill="#72BF44"/>
<path d="M121.621 28.816L118.866 32.958L122.096 38.715H120.652L117.821 33.718H116.092V38.715H114.819V25.054H116.092V32.559H117.821L120.367 28.683L121.621 28.816Z" fill="#72BF44"/>
<path d="M124.212 29.937L124.079 28.816C124.902 28.588 125.859 28.474 126.948 28.474C129.051 28.474 130.102 29.5127 130.102 31.59V36.967C130.102 37.271 130.153 37.4864 130.254 37.613C130.368 37.7397 130.552 37.803 130.805 37.803C131.008 37.803 131.28 37.7397 131.622 37.613L131.736 38.658C131.217 38.8227 130.799 38.905 130.482 38.905C130.039 38.905 129.684 38.791 129.418 38.563C129.152 38.3224 129 38.031 128.962 37.689C128.05 38.4997 127.087 38.905 126.074 38.905C125.149 38.905 124.446 38.6137 123.965 38.031C123.484 37.4484 123.243 36.7074 123.243 35.808C123.243 34.63 123.579 33.7624 124.25 33.205C124.934 32.635 125.884 32.35 127.1 32.35C127.708 32.35 128.291 32.4134 128.848 32.54V31.818C128.848 31.0327 128.677 30.4627 128.335 30.108C127.993 29.7534 127.398 29.576 126.549 29.576C125.751 29.576 124.972 29.6964 124.212 29.937ZM128.848 36.682L128.867 33.528C128.31 33.3887 127.79 33.319 127.309 33.319C126.397 33.319 125.713 33.509 125.257 33.889C124.814 34.269 124.592 34.896 124.592 35.77C124.592 36.3527 124.738 36.834 125.029 37.214C125.333 37.594 125.776 37.784 126.359 37.784C127.233 37.784 128.063 37.4167 128.848 36.682Z" fill="#72BF44"/>
<path d="M137.456 29.709H134.834V35.903C134.834 36.3464 134.846 36.6884 134.872 36.929C134.91 37.157 135.011 37.366 135.176 37.556C135.34 37.746 135.587 37.841 135.917 37.841C136.284 37.841 136.759 37.7017 137.342 37.423L137.475 38.487C136.867 38.791 136.271 38.943 135.689 38.943C134.283 38.943 133.58 38.1134 133.58 36.454V29.709H132.288V28.683H133.58V27.049L134.834 26.327V28.683H137.456V29.709Z" fill="#72BF44"/>
</svg>
