<svg width="60" height="36" viewBox="0 0 60 36" fill="none" xmlns="http://www.w3.org/2000/svg">
<path fill-rule="evenodd" clip-rule="evenodd" d="M33.04 24.2621C33.1369 24.2784 33.2338 24.2947 33.3232 24.3406L33.3543 24.3405C33.4166 24.315 33.479 24.315 33.5413 24.3405H34.0709C34.084 24.3061 34.1105 24.3069 34.1364 24.3077C34.1461 24.308 34.1558 24.3083 34.1646 24.3067C34.7732 24.1961 35.157 23.8443 35.3055 23.2412C35.3477 23.0695 35.3769 22.8945 35.3772 22.7175C35.3784 22.1234 35.379 21.5293 35.3796 20.9353C35.3803 20.1679 35.3811 19.4006 35.3831 18.6333C35.3834 18.5098 35.3323 18.4677 35.2147 18.4708C35.0228 18.4757 34.8305 18.4755 34.6387 18.4708C34.5247 18.4681 34.4258 18.4744 34.4341 18.6404L34.3343 18.5866C33.5738 18.1767 32.7309 18.4128 32.3486 19.1862C31.9092 20.0752 31.8997 21.0021 32.2729 21.9158C32.5059 22.4862 33.0007 22.756 33.6164 22.7279C33.8979 22.7152 34.1472 22.6142 34.4032 22.449C34.4024 22.4645 34.4017 22.4798 34.4009 22.4948C34.3935 22.6449 34.387 22.7739 34.3579 22.9021C34.2677 23.3001 34.0442 23.4738 33.6354 23.4528C33.2785 23.4344 32.9412 23.3405 32.6239 23.1755C32.4646 23.0929 32.4192 23.115 32.3866 23.2942C32.3764 23.3502 32.3669 23.4065 32.3575 23.4627C32.336 23.5908 32.3145 23.7189 32.2838 23.8448C32.2551 23.962 32.297 24.0185 32.3974 24.0618C32.5452 24.1256 32.6975 24.174 32.8509 24.2216C32.9126 24.2407 32.9763 24.2514 33.04 24.2621ZM34.3801 20.7851C34.3803 20.7017 34.3806 20.6183 34.3806 20.5349C34.3806 20.4583 34.3807 20.3818 34.3807 20.3052C34.3808 20.0755 34.3809 19.8459 34.38 19.6163C34.38 19.608 34.3802 19.5997 34.3805 19.5914C34.3822 19.5456 34.3837 19.501 34.3322 19.464C33.9215 19.1696 33.3559 19.0912 33.1625 19.806C33.0538 20.2078 33.0506 20.6157 33.0915 21.0255C33.1085 21.1962 33.1481 21.3625 33.2256 21.5176C33.3809 21.8283 33.6486 21.9382 33.9764 21.8263C34.0908 21.7871 34.1884 21.721 34.2838 21.6485C34.356 21.5936 34.3846 21.5304 34.3828 21.4376C34.3786 21.2202 34.3793 21.0026 34.3801 20.7851Z" fill="#004D43"/>
<path fill-rule="evenodd" clip-rule="evenodd" d="M33.3545 24.3406C33.4168 24.2797 33.4791 24.3071 33.5414 24.3406C33.479 24.3406 33.4166 24.3406 33.3545 24.3406Z" fill="#004D43"/>
<path fill-rule="evenodd" clip-rule="evenodd" d="M24.1129 19.1279C24.1129 19.3728 24.113 19.6177 24.113 19.8625C24.113 20.1228 24.1129 20.3831 24.1129 20.6434C24.1128 21.2506 24.1127 21.8579 24.1131 22.4651C24.1132 22.6503 24.1331 22.6693 24.3195 22.6702C24.5217 22.6711 24.7241 22.6707 24.9265 22.6703C25.1383 22.6698 25.1516 22.6562 25.1517 22.4368C25.1517 22.3018 25.1519 22.1669 25.1521 22.0319C25.1526 21.6058 25.1532 21.1798 25.1492 20.7538C25.1483 20.6499 25.1788 20.6234 25.2789 20.6263C25.5133 20.6329 25.748 20.6305 25.9825 20.6281L26.0104 20.6278C27.0922 20.6169 27.7936 19.9876 27.9217 18.9145C28.0088 18.1843 27.7078 17.5712 27.1191 17.2834C26.8154 17.1347 26.4906 17.0754 26.1555 17.0734C25.7078 17.0707 25.26 17.0711 24.8122 17.0715C24.653 17.0716 24.4938 17.0718 24.3346 17.0718C24.1278 17.0718 24.1132 17.0855 24.1131 17.2911C24.1128 17.9034 24.1129 18.5157 24.1129 19.1279ZM25.274 17.9345C25.1631 17.9306 25.1483 17.9758 25.1501 18.0695C25.1552 18.3292 25.1533 19.389 25.1512 19.659C25.1505 19.7245 25.1562 19.7658 25.2406 19.7637C25.3492 19.7611 25.458 19.7614 25.5668 19.7617C25.7384 19.7623 25.9099 19.7628 26.0806 19.7515C26.506 19.7232 26.7723 19.466 26.8487 19.0452C26.8713 18.9214 26.8771 18.7975 26.871 18.673C26.8487 18.223 26.6105 17.9722 26.1609 17.9478C25.9981 17.9389 25.835 17.939 25.6719 17.9391C25.5392 17.9392 25.4065 17.9392 25.274 17.9345Z" fill="#004D43"/>
<path fill-rule="evenodd" clip-rule="evenodd" d="M41.955 22.7278C42.2015 22.6901 42.4159 22.5843 42.6209 22.4431C42.639 22.5568 42.6481 22.6136 42.6813 22.6419C42.7145 22.6702 42.7718 22.6702 42.8862 22.6702C42.9234 22.6702 42.9605 22.6703 42.9977 22.6703C43.1216 22.6705 43.2454 22.6707 43.3691 22.6701C43.5607 22.669 43.5751 22.6551 43.5754 22.4686C43.5757 22.2139 43.5757 21.9592 43.5756 21.7045C43.5756 21.5953 43.5755 21.4861 43.5755 21.377C43.5755 21.0353 43.5755 20.6937 43.5755 20.352C43.5756 19.3265 43.5756 18.3009 43.5754 17.2753C43.5754 17.0816 43.5654 17.072 43.3722 17.0716C43.3077 17.0714 43.2431 17.0722 43.1784 17.0729C43.0404 17.0744 42.9024 17.0759 42.7648 17.0689C42.615 17.0613 42.5625 17.1148 42.5652 17.2653C42.5695 17.5036 42.569 17.7419 42.5684 17.9803C42.5681 18.1422 42.5677 18.3042 42.5688 18.4661C42.5695 18.5571 42.5607 18.5844 42.4593 18.5411C41.6293 18.187 40.8627 18.4856 40.4813 19.3042C40.3142 19.663 40.239 20.0437 40.2228 20.4353C40.1999 20.9861 40.252 21.5268 40.5207 22.0227C40.8161 22.5682 41.345 22.8212 41.955 22.7278ZM42.5732 20.8045C42.5735 20.717 42.5738 20.6295 42.5738 20.542L42.5739 19.5919C42.5739 19.5868 42.5739 19.5817 42.574 19.5767C42.5745 19.5317 42.5749 19.4893 42.5273 19.4547C42.112 19.1531 41.5688 19.1084 41.3654 19.779C41.2414 20.1877 41.2428 20.6082 41.2851 21.0288C41.3024 21.1994 41.343 21.3655 41.4198 21.521C41.5827 21.8511 41.8685 21.9628 42.2097 21.8288C42.307 21.7906 42.3911 21.7312 42.475 21.6696C42.5481 21.6159 42.5779 21.5541 42.5761 21.4608C42.5718 21.2422 42.5725 21.0233 42.5732 20.8045Z" fill="#004D43"/>
<path fill-rule="evenodd" clip-rule="evenodd" d="M53.6076 21.0168C53.6079 20.918 53.6082 20.8169 53.6082 20.7126C53.605 20.5989 53.6054 20.4815 53.6058 20.3616C53.6066 20.1084 53.6075 19.8442 53.5749 19.5802C53.499 18.9657 53.2111 18.6022 52.6541 18.4666C52.0584 18.3217 51.4693 18.4133 50.8843 18.5477C50.7914 18.5691 50.764 18.6325 50.7763 18.724C50.7978 18.8835 50.8152 19.0436 50.8316 19.2036C50.8496 19.3805 50.8843 19.4023 51.063 19.3576C51.3958 19.2742 51.7316 19.2096 52.0774 19.2486C52.4444 19.29 52.5879 19.4409 52.6267 19.8033C52.6394 19.9218 52.6126 19.9607 52.4878 19.939C52.2045 19.8896 51.9198 19.8984 51.6358 19.9417C51.0077 20.0375 50.5976 20.4117 50.4726 21.0119C50.4246 21.2427 50.4196 21.4769 50.4623 21.7089C50.5544 22.2101 50.8184 22.5691 51.3299 22.6979C51.8221 22.8219 52.2754 22.716 52.6855 22.4237C52.757 22.3726 52.7867 22.3689 52.8296 22.4538C52.9097 22.6124 53.0496 22.6934 53.223 22.7269C53.4922 22.7789 53.7488 22.7203 54.0041 22.6479C54.0809 22.6262 54.1018 22.5647 54.0937 22.4881C54.0907 22.4604 54.0877 22.4327 54.0847 22.405C54.0699 22.2675 54.055 22.1299 54.0468 21.992C54.0386 21.8566 53.9757 21.8237 53.8514 21.8549C53.6491 21.9058 53.6121 21.8783 53.6092 21.6672C53.6064 21.4544 53.607 21.2415 53.6076 21.0168ZM52.6298 21.1876C52.6295 21.1793 52.6291 21.1711 52.6291 21.1629C52.6291 20.6378 52.6079 20.6231 52.1185 20.6464C51.6113 20.6705 51.3909 20.9499 51.4743 21.4986C51.5226 21.8166 51.7229 21.952 52.0399 21.9039C52.2498 21.8721 52.4387 21.7806 52.5846 21.6282C52.6512 21.5587 52.6417 21.4707 52.6322 21.3821C52.627 21.3342 52.6218 21.2861 52.6286 21.2406C52.6312 21.2232 52.6305 21.2054 52.6298 21.1876Z" fill="#004D43"/>
<path fill-rule="evenodd" clip-rule="evenodd" d="M47.5367 20.9807C47.5369 20.8786 47.5372 20.773 47.5372 20.6622C47.5344 20.5605 47.5347 20.4537 47.5351 20.3435C47.5359 20.0909 47.5367 19.8199 47.5 19.5494C47.4186 18.9523 47.1327 18.6001 46.584 18.4667C45.988 18.322 45.3991 18.4129 44.8141 18.5477C44.7221 18.5689 44.6944 18.6309 44.7074 18.724C44.7234 18.8395 44.7349 18.9556 44.7464 19.0717C44.7508 19.1157 44.7551 19.1598 44.7597 19.2038C44.778 19.3792 44.8153 19.4018 44.993 19.3574C45.3312 19.2732 45.6719 19.2082 46.0232 19.2502C46.3781 19.2926 46.5352 19.4631 46.5589 19.8192C46.5655 19.9189 46.5461 19.9639 46.4342 19.9404C46.2244 19.8963 46.0107 19.9028 45.7984 19.9137C45.026 19.9535 44.5288 20.353 44.3965 21.0414C44.3571 21.2465 44.3598 21.4546 44.3842 21.6623C44.4456 22.1859 44.7675 22.5745 45.2589 22.6979C45.7515 22.8215 46.2045 22.7166 46.6146 22.4242C46.6851 22.374 46.7147 22.3666 46.7587 22.4534C46.8385 22.6113 46.9783 22.6935 47.152 22.727C47.4212 22.779 47.6777 22.7205 47.9332 22.6485C48.0102 22.6268 48.0321 22.566 48.024 22.4893L48.0213 22.4639C48.0041 22.3018 47.987 22.1399 47.9745 21.9776C47.9655 21.8593 47.9062 21.8269 47.7968 21.8503C47.566 21.8997 47.5407 21.8801 47.5381 21.6363C47.5357 21.4238 47.5362 21.2113 47.5367 20.9807ZM46.5598 21.1933C46.5595 21.1851 46.5592 21.177 46.5592 21.1689C46.5592 21.1343 46.5587 21.0998 46.5581 21.0652C46.557 20.9856 46.5558 20.9061 46.5609 20.8271C46.5668 20.7343 46.5419 20.6874 46.442 20.672C46.2509 20.6428 46.0601 20.6334 45.8703 20.6679C45.6444 20.7087 45.4776 20.8283 45.4192 21.0616C45.3837 21.2027 45.373 21.3462 45.4014 21.4928C45.462 21.8042 45.6354 21.942 45.9483 21.9059C46.1656 21.8808 46.3576 21.7862 46.5101 21.6323C46.5793 21.5624 46.5704 21.474 46.5613 21.3852C46.5566 21.3383 46.5518 21.2912 46.5585 21.2466C46.5612 21.2292 46.5605 21.2112 46.5598 21.1933Z" fill="#004D43"/>
<path fill-rule="evenodd" clip-rule="evenodd" d="M39.3133 20.9932C39.3136 20.9003 39.3139 20.8075 39.3139 20.7147C39.3099 20.7147 39.3059 20.7147 39.3017 20.7149C39.3017 20.6322 39.3018 20.5496 39.3019 20.4669C39.3022 20.2327 39.3025 19.9985 39.3004 19.7643C39.3 19.7143 39.292 19.6643 39.2841 19.6144C39.2806 19.5923 39.2771 19.5701 39.2742 19.548C39.1963 18.9495 38.9075 18.5992 38.358 18.4665C37.762 18.3224 37.1729 18.4135 36.5882 18.5487C36.4952 18.5702 36.4721 18.635 36.4848 18.727C36.4991 18.8309 36.5093 18.9354 36.5195 19.0399C36.5249 19.0956 36.5303 19.1513 36.5364 19.207C36.5549 19.378 36.5933 19.4036 36.7572 19.3618C37.1001 19.2742 37.4456 19.2085 37.8023 19.2508C38.1603 19.2931 38.3262 19.4798 38.3363 19.8375C38.3389 19.9271 38.3165 19.9598 38.2245 19.9416C38.0144 19.8999 37.801 19.9036 37.5885 19.9131C36.8087 19.9481 36.3078 20.3475 36.173 21.0434C36.1343 21.2434 36.1377 21.4467 36.1594 21.6489C36.216 22.1804 36.5404 22.5748 37.0372 22.6988C37.5177 22.8187 37.9626 22.7216 38.3671 22.441C38.3705 22.4386 38.3738 22.4363 38.3771 22.434C38.4481 22.3844 38.4901 22.3552 38.5452 22.4681C38.6199 22.6215 38.7631 22.6954 38.9305 22.7275C39.1996 22.7793 39.4563 22.7207 39.7115 22.648C39.7886 22.626 39.8082 22.5633 39.8002 22.4872C39.7821 22.3167 39.7644 22.1463 39.7509 21.9755C39.7415 21.8562 39.6796 21.8272 39.5713 21.8511C39.3462 21.9007 39.3189 21.8818 39.3152 21.6498C39.3118 21.431 39.3125 21.2121 39.3133 20.9932ZM38.3365 21.1835C38.3361 21.1736 38.3357 21.1637 38.3357 21.1538C38.3357 21.1204 38.3348 21.0868 38.334 21.0532C38.3321 20.9777 38.3302 20.9021 38.3379 20.8275C38.3496 20.718 38.2988 20.6841 38.2039 20.6696C38.018 20.6408 37.8321 20.6338 37.6474 20.6675C37.4148 20.7098 37.2475 20.835 37.192 21.0757C37.1606 21.2124 37.1515 21.3507 37.178 21.492C37.235 21.7959 37.4034 21.9344 37.7089 21.9068C37.9333 21.8865 38.1291 21.7887 38.2863 21.6324C38.3564 21.5628 38.3473 21.4742 38.3381 21.3852C38.3332 21.3384 38.3284 21.2914 38.335 21.247C38.3381 21.2262 38.3373 21.2049 38.3365 21.1835Z" fill="#004D43"/>
<path fill-rule="evenodd" clip-rule="evenodd" d="M55.6701 18.7852C55.9928 18.5688 56.3154 18.4239 56.6829 18.4003C56.9081 18.3859 57.131 18.4019 57.3409 18.4856C57.8146 18.6746 57.9872 19.0644 57.9927 19.539C58.0027 20.3963 57.9967 21.2538 57.9975 22.1112C57.9976 22.2358 57.9915 22.361 57.9992 22.4853C58.0073 22.6186 57.9563 22.6755 57.8203 22.6719C57.6076 22.666 57.3946 22.6649 57.182 22.6723C57.0401 22.6774 56.9921 22.6232 56.9929 22.4807C56.9977 21.6233 56.9952 20.7658 56.9955 19.9084C56.9955 19.794 56.9939 19.6799 56.972 19.567C56.9468 19.4363 56.8712 19.3498 56.743 19.3207C56.3481 19.2309 56.0375 19.4074 55.749 19.6463C55.6964 19.6898 55.721 19.7536 55.721 19.8079C55.7194 20.6862 55.7199 21.5643 55.7198 22.4425C55.7197 22.658 55.7075 22.6699 55.4898 22.6702C55.2873 22.6706 55.0849 22.6671 54.8825 22.6715C54.7606 22.6742 54.7008 22.6312 54.7009 22.5008C54.703 21.212 54.7027 19.9234 54.7014 18.6347C54.7013 18.5151 54.7529 18.4674 54.8719 18.4706C55.0639 18.476 55.2559 18.4717 55.448 18.4722C55.6454 18.4726 55.6527 18.4804 55.6626 18.6852C55.6637 18.7106 55.6663 18.7358 55.6701 18.7852Z" fill="#004D43"/>
<path fill-rule="evenodd" clip-rule="evenodd" d="M30.0555 20.8111C30.142 20.8108 30.2286 20.8105 30.3151 20.8105C30.3962 20.8105 30.4773 20.8104 30.5585 20.8103C30.7939 20.8099 31.0294 20.8096 31.2649 20.8113C31.3693 20.8121 31.4353 20.7821 31.4353 20.6634C31.4353 20.6385 31.4354 20.6135 31.4354 20.5885C31.4358 20.2497 31.4363 19.9108 31.3572 19.5781C31.247 19.1148 31.0373 18.7206 30.5755 18.5193C29.6974 18.1365 28.717 18.5502 28.4062 19.4556C28.1506 20.2002 28.1672 20.9587 28.4171 21.7036C28.5722 22.1662 28.8823 22.5038 29.3556 22.6515C30.0091 22.8553 30.6457 22.7701 31.2628 22.4908C31.3476 22.4526 31.3722 22.3937 31.3641 22.305C31.3541 22.1976 31.3471 22.0901 31.3401 21.9826C31.3353 21.9087 31.3305 21.8349 31.3247 21.761C31.3111 21.5862 31.2501 21.55 31.093 21.6285C30.8547 21.7476 30.6055 21.8293 30.341 21.8658C29.7976 21.941 29.4307 21.6923 29.3081 21.1606C29.2991 21.1212 29.2935 21.081 29.288 21.0408C29.2829 21.0038 29.2778 20.9669 29.27 20.9305C29.2491 20.8336 29.2827 20.8063 29.3809 20.8082C29.6058 20.8127 29.8306 20.8119 30.0555 20.8111ZM29.7208 20.0645C29.7679 20.0648 29.815 20.0652 29.8622 20.0652C29.8817 20.0652 29.9013 20.0655 29.9208 20.0658C29.9634 20.0664 30.006 20.0671 30.0484 20.0646C30.0924 20.062 30.1445 20.0675 30.196 20.073C30.3 20.084 30.4017 20.0948 30.4303 20.0379C30.4915 19.9163 30.4306 19.75 30.3774 19.6043C30.3738 19.5945 30.3702 19.5848 30.3667 19.5752C30.366 19.573 30.3654 19.5708 30.3648 19.5686C30.3641 19.5658 30.3634 19.563 30.3623 19.5604C30.289 19.3815 30.1721 19.2511 29.97 19.2272C29.7575 19.2021 29.5847 19.2762 29.4575 19.4513C29.3478 19.6022 29.3049 19.7765 29.2736 19.9564C29.2571 20.0507 29.2955 20.07 29.3809 20.0669C29.4941 20.0627 29.6075 20.0636 29.7208 20.0645Z" fill="#004D43"/>
<path fill-rule="evenodd" clip-rule="evenodd" d="M48.6344 20.563C48.6344 19.9345 48.634 19.306 48.6346 18.6774C48.6349 18.4874 48.6503 18.4729 48.8375 18.4723C49.0451 18.4717 49.2528 18.4775 49.4601 18.4703C49.5955 18.4656 49.6449 18.5197 49.6439 18.653C49.6401 19.1776 49.6423 19.7023 49.6423 20.2268C49.6423 20.9696 49.6426 21.7126 49.6422 22.4554C49.6421 22.6525 49.6251 22.6696 49.4301 22.6703C49.2277 22.6711 49.0253 22.6649 48.8232 22.6724C48.6802 22.6779 48.6314 22.6195 48.6323 22.4797C48.6368 21.8409 48.6344 21.2019 48.6344 20.563Z" fill="#004D43"/>
<path fill-rule="evenodd" clip-rule="evenodd" d="M49.7125 17.5597C49.7107 17.9188 49.4851 18.1435 49.1289 18.1409C48.7824 18.1384 48.5523 17.8993 48.5553 17.545C48.5581 17.2011 48.7885 16.9761 49.1372 16.9762C49.5016 16.9762 49.7142 17.1921 49.7125 17.5597Z" fill="#004D43"/>
<path fill-rule="evenodd" clip-rule="evenodd" d="M8.70955 23.1433C8.17987 23.6081 7.55857 23.8879 6.8723 24.011C4.77048 24.3888 2.78044 23.1419 2.20028 21.0955C2.14277 20.8922 2.10122 20.6859 2.07903 20.4757C2.04749 20.4131 2.09161 20.3397 2.05115 20.2781C2.05115 20.0939 2.05115 19.9096 2.05115 19.7253C2.08512 19.6727 2.06008 19.6143 2.06793 19.5589C2.08146 18.808 2.38163 18.1597 2.80738 17.5661C3.40337 16.7351 4.22063 16.2264 5.20679 15.9814C5.36472 15.9422 5.52712 15.937 5.68924 15.9371C5.7538 15.9287 5.82146 15.9557 5.88371 15.9205C6.05694 15.9205 6.23016 15.9205 6.40338 15.9205C6.45657 15.9545 6.51544 15.9294 6.57119 15.9373C7.36477 15.9598 8.03899 16.2888 8.6607 16.7523C8.69561 16.7783 8.72295 16.8123 8.7285 16.8588C8.71524 16.9668 8.62822 17.0234 8.5592 17.0881C7.87105 17.7306 7.46992 18.5248 7.34583 19.452C7.21889 20.4001 7.39806 21.293 7.90285 22.1125C8.07959 22.3997 8.28908 22.6604 8.53565 22.8913C8.60224 22.9536 8.67464 23.0125 8.71876 23.0959C8.72498 23.1135 8.72173 23.1293 8.70955 23.1433Z" fill="#BCD430"/>
<path fill-rule="evenodd" clip-rule="evenodd" d="M8.70954 23.1433C8.70764 23.1333 8.70643 23.1232 8.70575 23.1131C8.92864 22.9085 9.13827 22.6915 9.32205 22.4505C9.79381 21.8321 10.0587 21.1364 10.1328 20.3599C10.2033 19.6219 10.0688 18.9249 9.75768 18.2612C9.53519 17.7867 9.23056 17.3668 8.83431 17.0186C8.78573 16.9759 8.72984 16.9388 8.72713 16.8642C8.74202 16.7797 8.81415 16.7421 8.87248 16.6986C9.33788 16.3527 9.85159 16.1083 10.4182 15.9809C10.5709 15.9465 10.7277 15.94 10.8842 15.9373C10.9493 15.9287 11.0175 15.9557 11.0804 15.9205C11.2428 15.9205 11.4052 15.9205 11.5676 15.9205C11.6301 15.9607 11.704 15.9172 11.7679 15.948C12.6019 16.0344 13.3388 16.3466 13.973 16.8981C13.9845 16.9831 13.9192 17.0238 13.869 17.0694C13.4174 17.4805 13.0664 17.9641 12.8508 18.5358C12.3062 19.9795 12.5071 21.3196 13.4323 22.5524C13.5465 22.7045 13.6806 22.838 13.8138 22.973C13.8609 23.0207 13.929 23.0606 13.914 23.1463C13.4315 23.5772 12.8628 23.8438 12.2383 23.9785C10.9904 24.2475 9.85214 23.9902 8.83228 23.2179C8.79399 23.1887 8.76124 23.1502 8.70954 23.1433Z" fill="#74BD45"/>
<path fill-rule="evenodd" clip-rule="evenodd" d="M5.68454 15.9481C5.68698 15.939 5.68833 15.9298 5.68901 15.9204C5.75396 15.9204 5.81892 15.9204 5.88388 15.9204C5.82339 15.9737 5.75248 15.9507 5.68454 15.9481Z" fill="#D9E68B"/>
<path fill-rule="evenodd" clip-rule="evenodd" d="M10.8824 15.9485C10.8847 15.9393 10.8858 15.93 10.8855 15.9205C10.9505 15.9205 11.0154 15.9205 11.0804 15.9205C11.02 15.9698 10.9501 15.9514 10.8824 15.9485Z" fill="#BDDFA8"/>
<path fill-rule="evenodd" clip-rule="evenodd" d="M11.7679 15.948C11.6994 15.9512 11.6283 15.9751 11.5676 15.9205C11.6326 15.9205 11.6975 15.9205 11.7625 15.9205C11.7633 15.9298 11.7652 15.9389 11.7679 15.948Z" fill="#A7D58A"/>
<path fill-rule="evenodd" clip-rule="evenodd" d="M2.05116 18.8542C2.09947 18.9145 2.08106 18.9843 2.07917 19.0517C2.06983 19.0517 2.06049 19.0509 2.05116 19.0493C2.05116 18.9843 2.05116 18.9192 2.05116 18.8542Z" fill="#E5EEB1"/>
<path fill-rule="evenodd" clip-rule="evenodd" d="M6.56578 15.9205C6.56673 15.9294 6.56794 15.9383 6.56957 15.9473C6.51205 15.9514 6.45237 15.969 6.40338 15.9205C6.45751 15.9205 6.51165 15.9205 6.56578 15.9205Z" fill="#E0EBA0"/>
<path fill-rule="evenodd" clip-rule="evenodd" d="M2.05117 19.5627C2.05942 19.5583 2.06808 19.5569 2.07729 19.5583C2.08216 19.6161 2.09975 19.676 2.05117 19.7253C2.05117 19.6711 2.05117 19.6169 2.05117 19.5627Z" fill="#DFEBA0"/>
<path fill-rule="evenodd" clip-rule="evenodd" d="M13.914 23.146C13.6505 22.8605 13.3721 22.5885 13.1642 22.2549C12.8156 21.6953 12.5996 21.0947 12.5371 20.4342C12.4314 19.3165 12.7455 18.3296 13.4375 17.4591C13.5977 17.2574 13.7935 17.0841 13.9731 16.8978C14.3328 16.6386 14.702 16.3984 15.1195 16.2366C17.551 15.294 20.25 16.8671 20.6241 19.4482C20.9453 21.6656 19.4138 23.7533 17.2144 24.075C16.0317 24.2479 14.9628 23.9595 14.023 23.2117C13.9896 23.1853 13.9612 23.1499 13.914 23.146Z" fill="#0AA94E"/>
<path fill-rule="evenodd" clip-rule="evenodd" d="M8.71495 16.8653C8.72416 16.864 8.73336 16.8648 8.74229 16.8675C9.06451 17.157 9.3529 17.4756 9.58012 17.8466C9.92089 18.4027 10.1202 19.0021 10.176 19.6557C10.2612 20.6552 10.0065 21.5567 9.43315 22.3707C9.25316 22.6261 9.05585 22.8703 8.80481 23.0638C8.77423 23.0872 8.74608 23.1112 8.70589 23.1132C7.83084 22.3444 7.33174 21.3876 7.27503 20.2157C7.21359 18.9448 7.65883 17.8767 8.57813 17.0027C8.62496 16.958 8.66935 16.9111 8.71495 16.8653Z" fill="#0AA94E"/>
<path fill-rule="evenodd" clip-rule="evenodd" d="M14.7805 18.7027C14.6859 18.7592 14.6185 18.792 14.5596 18.836C14.4756 18.8989 14.4136 18.8853 14.357 18.8009C14.2944 18.7076 14.3557 18.6631 14.424 18.6206C15.1629 18.1607 15.966 17.9494 16.8348 18.0143C17.5143 18.0652 18.1432 18.284 18.7315 18.6242C18.8012 18.6646 18.886 18.6956 18.8236 18.8067C18.7643 18.9122 18.6902 18.8948 18.6059 18.845C18.5517 18.8128 18.4956 18.7841 18.4333 18.7502C18.4267 18.8185 18.4621 18.862 18.4826 18.9092C18.8259 19.7027 19.1702 20.4957 19.5142 21.2891C19.6176 21.5273 19.5777 21.6699 19.3602 21.8158C19.1584 21.9513 18.9294 22.0142 18.6919 22.0469C18.2805 22.1036 17.8724 22.0955 17.4715 21.9727C17.3362 21.9312 17.2075 21.8755 17.0948 21.789C16.914 21.6501 16.8792 21.5163 16.9704 21.3058C17.3375 20.4578 17.7015 19.6082 18.0781 18.7645C18.1407 18.6241 18.1066 18.5867 17.9809 18.5383C17.0486 18.1787 16.1173 18.1601 15.1794 18.5179C15.0534 18.5658 15.0334 18.6105 15.0886 18.7353C15.4642 19.5855 15.8316 20.4394 16.2016 21.2919C16.3021 21.5236 16.2652 21.6644 16.0575 21.8085C15.8527 21.9505 15.6182 22.0146 15.3754 22.0478C14.964 22.104 14.5557 22.0953 14.1548 21.9722C14.0458 21.9387 13.9416 21.8945 13.8451 21.8337C13.6004 21.6795 13.5575 21.5399 13.6727 21.2742C14.0165 20.4808 14.3605 19.6876 14.7043 18.8943C14.7267 18.842 14.7464 18.7886 14.7805 18.7027Z" fill="#FEFEFE"/>
<path fill-rule="evenodd" clip-rule="evenodd" d="M13.9435 21.2437C13.9632 21.1903 13.9727 21.16 13.9853 21.131C14.2966 20.412 14.6081 19.693 14.9198 18.9738C14.9594 18.9924 14.967 19.0241 14.9794 19.0529C15.2759 19.7375 15.5708 20.4227 15.8714 21.1054C15.9196 21.2148 15.9165 21.2478 15.7829 21.2466C15.177 21.2402 14.571 21.2437 13.9435 21.2437Z" fill="#0AA94E"/>
<path fill-rule="evenodd" clip-rule="evenodd" d="M19.2394 21.2361C18.5687 21.2361 17.9226 21.2361 17.2543 21.2361C17.5836 20.4748 17.9065 19.7279 18.2456 18.9436C18.5823 19.7206 18.9063 20.468 19.2394 21.2361Z" fill="#0AA94E"/>
<path d="M24.2191 14.9861L24.4639 14.3334C24.833 14.5898 25.1884 14.718 25.5303 14.718C25.7285 14.718 25.8878 14.6734 26.0082 14.584C26.1325 14.4908 26.1947 14.347 26.1947 14.1528C26.1947 13.943 26.1286 13.7876 25.9965 13.6865C25.8683 13.5855 25.6585 13.4942 25.3672 13.4126C25.2428 13.3777 25.1379 13.3466 25.0525 13.3194C24.9709 13.2883 24.8757 13.2417 24.7669 13.1795C24.662 13.1135 24.5765 13.0416 24.5105 12.9639C24.4483 12.8862 24.3939 12.7833 24.3473 12.6551C24.3007 12.5268 24.2774 12.3831 24.2774 12.2238C24.2774 11.8586 24.4037 11.5633 24.6562 11.338C24.9126 11.1127 25.2409 11 25.6411 11C26.049 11 26.3579 11.0971 26.5677 11.2914C26.7813 11.4856 26.9212 11.7226 26.9872 12.0024L26.3112 12.2005C26.2025 11.812 25.9732 11.6177 25.6236 11.6177C25.4565 11.6177 25.3186 11.6624 25.2098 11.7518C25.101 11.8411 25.0466 11.9732 25.0466 12.148C25.0466 12.3345 25.1069 12.4705 25.2273 12.556C25.3516 12.6415 25.5498 12.725 25.8217 12.8066C26.1869 12.9154 26.4666 13.063 26.6609 13.2495C26.859 13.436 26.9581 13.706 26.9581 14.0595C26.9581 14.4636 26.826 14.7821 26.5618 15.0152C26.3015 15.2445 25.9558 15.3591 25.5245 15.3591C25.0078 15.3591 24.5727 15.2348 24.2191 14.9861Z" fill="#004D43"/>
<path d="M27.7334 12.7949L27.646 12.2529C27.9257 12.1597 28.2462 12.1131 28.6076 12.1131C29.0349 12.1131 29.338 12.2102 29.5167 12.4045C29.6954 12.5948 29.7847 12.9445 29.7847 13.4534V14.549C29.7847 14.7122 29.843 14.7938 29.9596 14.7938C30.014 14.7938 30.0761 14.7802 30.1461 14.753L30.1985 15.2425C30.0509 15.3047 29.8858 15.3358 29.7032 15.3358C29.4234 15.3358 29.2525 15.2173 29.1903 14.9803C28.9378 15.2173 28.6445 15.3358 28.3103 15.3358C28.0112 15.3358 27.782 15.2445 27.6227 15.0619C27.4673 14.8793 27.3896 14.6462 27.3896 14.3625C27.3896 13.6438 27.7897 13.2844 28.5901 13.2844C28.7494 13.2844 28.9145 13.3039 29.0854 13.3427V13.2087C29.0854 12.8474 28.8815 12.6667 28.4735 12.6667C28.2521 12.6667 28.0054 12.7094 27.7334 12.7949ZM29.0854 14.5199V13.8031C28.9533 13.7565 28.829 13.7332 28.7125 13.7332C28.3123 13.7332 28.1122 13.9216 28.1122 14.2984C28.1122 14.45 28.1472 14.5704 28.2171 14.6598C28.287 14.7452 28.39 14.788 28.526 14.788C28.7358 14.788 28.9222 14.6986 29.0854 14.5199Z" fill="#004D43"/>
<path d="M32.2924 12.1131C32.6187 12.1131 32.844 12.2005 32.9684 12.3753C33.0927 12.5463 33.1548 12.8046 33.1548 13.1504V15.2775H32.4264V13.2436C32.4264 13.0455 32.3992 12.9095 32.3448 12.8357C32.2943 12.758 32.1913 12.7192 32.0359 12.7192C31.8339 12.7192 31.6241 12.8163 31.4066 13.0105V15.2775H30.6723V11.0874H31.4066V12.4453C31.6785 12.2238 31.9738 12.1131 32.2924 12.1131Z" fill="#004D43"/>
<path d="M34.0903 12.7949L34.0029 12.2529C34.2826 12.1597 34.6032 12.1131 34.9645 12.1131C35.3918 12.1131 35.6949 12.2102 35.8736 12.4045C36.0523 12.5948 36.1416 12.9445 36.1416 13.4534V14.549C36.1416 14.7122 36.1999 14.7938 36.3165 14.7938C36.3709 14.7938 36.433 14.7802 36.503 14.753L36.5554 15.2425C36.4078 15.3047 36.2427 15.3358 36.0601 15.3358C35.7803 15.3358 35.6094 15.2173 35.5472 14.9803C35.2947 15.2173 35.0014 15.3358 34.6673 15.3358C34.3681 15.3358 34.1389 15.2445 33.9796 15.0619C33.8242 14.8793 33.7465 14.6462 33.7465 14.3625C33.7465 13.6438 34.1467 13.2844 34.947 13.2844C35.1063 13.2844 35.2714 13.3039 35.4423 13.3427V13.2087C35.4423 12.8474 35.2384 12.6667 34.8304 12.6667C34.609 12.6667 34.3623 12.7094 34.0903 12.7949ZM35.4423 14.5199V13.8031C35.3102 13.7565 35.1859 13.7332 35.0694 13.7332C34.6692 13.7332 34.4691 13.9216 34.4691 14.2984C34.4691 14.45 34.5041 14.5704 34.574 14.6598C34.6439 14.7452 34.7469 14.788 34.8829 14.788C35.0927 14.788 35.2792 14.6986 35.4423 14.5199Z" fill="#004D43"/>
<path d="M37.7518 12.4045C38.051 12.2102 38.319 12.1131 38.556 12.1131C38.8629 12.1131 39.1058 12.2257 39.2845 12.4511C39.4632 12.6764 39.5525 13.0222 39.5525 13.4884C39.5525 14.0634 39.436 14.516 39.2029 14.8462C38.9698 15.1726 38.6065 15.3358 38.1131 15.3358C37.7091 15.3358 37.3478 15.2464 37.0292 15.0677V11.0874H37.7518V12.4045ZM38.8008 13.6341C38.8008 13.2883 38.7619 13.0474 38.6842 12.9115C38.6065 12.7755 38.488 12.7075 38.3287 12.7075C38.1539 12.7075 37.9616 12.7794 37.7518 12.9231V14.6656C37.8761 14.7394 38.016 14.7763 38.1714 14.7763C38.591 14.7763 38.8008 14.3956 38.8008 13.6341Z" fill="#004D43"/>
<path d="M40.3334 12.7949L40.246 12.2529C40.5257 12.1597 40.8462 12.1131 41.2076 12.1131C41.6349 12.1131 41.938 12.2102 42.1167 12.4045C42.2954 12.5948 42.3847 12.9445 42.3847 13.4534V14.549C42.3847 14.7122 42.443 14.7938 42.5596 14.7938C42.614 14.7938 42.6761 14.7802 42.7461 14.753L42.7985 15.2425C42.6509 15.3047 42.4858 15.3358 42.3032 15.3358C42.0234 15.3358 41.8525 15.2173 41.7903 14.9803C41.5378 15.2173 41.2445 15.3358 40.9103 15.3358C40.6112 15.3358 40.382 15.2445 40.2227 15.0619C40.0673 14.8793 39.9896 14.6462 39.9896 14.3625C39.9896 13.6438 40.3897 13.2844 41.1901 13.2844C41.3494 13.2844 41.5145 13.3039 41.6854 13.3427V13.2087C41.6854 12.8474 41.4815 12.6667 41.0735 12.6667C40.8521 12.6667 40.6054 12.7094 40.3334 12.7949ZM41.6854 14.5199V13.8031C41.5533 13.7565 41.429 13.7332 41.3125 13.7332C40.9123 13.7332 40.7122 13.9216 40.7122 14.2984C40.7122 14.45 40.7472 14.5704 40.8171 14.6598C40.887 14.7452 40.99 14.788 41.126 14.788C41.3358 14.788 41.5222 14.6986 41.6854 14.5199Z" fill="#004D43"/>
<path d="M44.7014 12.6958H44.0021V14.2868C44.0021 14.38 44.006 14.4558 44.0137 14.5141C44.0254 14.5723 44.0526 14.6248 44.0953 14.6714C44.142 14.718 44.2061 14.7413 44.2876 14.7413C44.3925 14.7413 44.5246 14.7044 44.6839 14.6306L44.7655 15.1901C44.5518 15.2911 44.3226 15.3416 44.0778 15.3416C43.5378 15.3416 43.2678 15.058 43.2678 14.4908V12.6958H42.8657V12.1714H43.2678V11.6527L44.0021 11.2972V12.1714H44.7014V12.6958Z" fill="#004D43"/>
</svg>
