<svg width="240" height="48" viewBox="0 0 240 48" fill="none" xmlns="http://www.w3.org/2000/svg">
<path d="M2.792 10.7206V14.4166H1V4.35061H4.528C5.592 4.35061 6.418 4.59794 7.006 5.09261C7.594 5.58728 7.888 6.30594 7.888 7.24861C7.888 8.30328 7.566 9.14794 6.922 9.78261C6.28733 10.4079 5.42867 10.7206 4.346 10.7206H2.792ZM2.792 9.33461H4.15C4.77533 9.33461 5.24667 9.17128 5.564 8.84461C5.89067 8.50861 6.054 8.02328 6.054 7.38861C6.054 6.27794 5.466 5.72261 4.29 5.72261H2.792V9.33461Z" fill="white"/>
<path d="M14.1077 10.9866H10.1177C10.1271 11.6866 10.2857 12.2233 10.5937 12.5966C10.9017 12.9606 11.3264 13.1426 11.8677 13.1426C12.5304 13.1426 13.1977 12.9559 13.8697 12.5826L13.9677 14.0526C13.3331 14.3979 12.5724 14.5706 11.6857 14.5706C9.45505 14.5706 8.33972 13.2499 8.33972 10.6086C8.33972 9.32061 8.61505 8.36861 9.16572 7.75261C9.72572 7.12728 10.4584 6.81461 11.3637 6.81461C13.1931 6.81461 14.1077 7.98128 14.1077 10.3146V10.9866ZM12.4557 9.89461C12.4557 8.69994 12.0824 8.10261 11.3357 8.10261C10.9344 8.10261 10.6311 8.27061 10.4257 8.60661C10.2297 8.94261 10.1317 9.37194 10.1317 9.89461H12.4557Z" fill="white"/>
<path d="M19.5713 7.43061L19.6413 6.95461H21.2093V14.3046C21.2093 16.4699 20.2107 17.5526 18.2133 17.5526C17.2147 17.5526 16.342 17.3706 15.5953 17.0066L15.8613 15.4806C16.1507 15.6579 16.5007 15.8026 16.9113 15.9146C17.3313 16.0359 17.7187 16.0966 18.0733 16.0966C19.0347 16.0966 19.5153 15.4713 19.5153 14.2206V13.7726C19.058 14.2673 18.47 14.5146 17.7513 14.5146C16.9393 14.5146 16.2907 14.2019 15.8053 13.5766C15.3293 12.9419 15.0913 11.9993 15.0913 10.7486C15.0913 10.0579 15.18 9.42794 15.3573 8.85861C15.544 8.28928 15.852 7.80861 16.2813 7.41661C16.72 7.01528 17.252 6.81461 17.8773 6.81461C18.5027 6.81461 19.0673 7.01994 19.5713 7.43061ZM19.4593 12.5546V8.64861C19.0207 8.33128 18.6287 8.17261 18.2833 8.17261C17.3687 8.17261 16.9113 9.04061 16.9113 10.7766C16.9113 12.3446 17.3547 13.1286 18.2413 13.1286C18.6707 13.1286 19.0767 12.9373 19.4593 12.5546Z" fill="white"/>
<path d="M23.3639 8.45261L23.1539 7.15061C23.8259 6.92661 24.5959 6.81461 25.4639 6.81461C26.4906 6.81461 27.2186 7.04794 27.6479 7.51461C28.0772 7.97194 28.2919 8.81194 28.2919 10.0346V12.6666C28.2919 13.0586 28.4319 13.2546 28.7119 13.2546C28.8426 13.2546 28.9919 13.2219 29.1599 13.1566L29.2859 14.3326C28.9312 14.4819 28.5346 14.5566 28.0959 14.5566C27.4239 14.5566 27.0132 14.2719 26.8639 13.7026C26.2572 14.2719 25.5526 14.5566 24.7499 14.5566C24.0312 14.5566 23.4806 14.3373 23.0979 13.8986C22.7246 13.4599 22.5379 12.8999 22.5379 12.2186C22.5379 10.4919 23.4992 9.62861 25.4219 9.62861C25.8046 9.62861 26.2012 9.67528 26.6119 9.76861V9.44661C26.6119 8.57861 26.1219 8.14461 25.1419 8.14461C24.6099 8.14461 24.0172 8.24728 23.3639 8.45261ZM26.6119 12.5966V10.8746C26.2946 10.7626 25.9959 10.7066 25.7159 10.7066C24.7546 10.7066 24.2739 11.1593 24.2739 12.0646C24.2739 12.4286 24.3579 12.7179 24.5259 12.9326C24.6939 13.1379 24.9412 13.2406 25.2679 13.2406C25.7719 13.2406 26.2199 13.0259 26.6119 12.5966Z" fill="white"/>
<path d="M34.1793 7.29061V4.35061H35.9293V14.4166H34.3613L34.3053 13.7586C33.792 14.2906 33.1807 14.5566 32.4713 14.5566C31.6593 14.5566 31.0107 14.2346 30.5253 13.5906C30.0493 12.9466 29.8113 11.9993 29.8113 10.7486C29.8113 10.0579 29.9047 9.42794 30.0913 8.85861C30.278 8.27994 30.5907 7.79461 31.0293 7.40261C31.468 7.01061 32.0093 6.81461 32.6533 6.81461C33.2133 6.81461 33.722 6.97328 34.1793 7.29061ZM34.1933 12.6106V8.62061C33.7547 8.30328 33.3673 8.14461 33.0313 8.14461C32.098 8.14461 31.6313 9.02194 31.6313 10.7766C31.6313 11.5606 31.748 12.1579 31.9813 12.5686C32.2147 12.9793 32.546 13.1846 32.9753 13.1846C33.4047 13.1846 33.8107 12.9933 34.1933 12.6106Z" fill="white"/>
<path d="M38.0839 8.45261L37.8739 7.15061C38.5459 6.92661 39.3159 6.81461 40.1839 6.81461C41.2106 6.81461 41.9386 7.04794 42.3679 7.51461C42.7973 7.97194 43.0119 8.81194 43.0119 10.0346V12.6666C43.0119 13.0586 43.1519 13.2546 43.4319 13.2546C43.5626 13.2546 43.7119 13.2219 43.8799 13.1566L44.0059 14.3326C43.6513 14.4819 43.2546 14.5566 42.8159 14.5566C42.1439 14.5566 41.7333 14.2719 41.5839 13.7026C40.9773 14.2719 40.2726 14.5566 39.4699 14.5566C38.7513 14.5566 38.2006 14.3373 37.8179 13.8986C37.4446 13.4599 37.2579 12.8999 37.2579 12.2186C37.2579 10.4919 38.2193 9.62861 40.1419 9.62861C40.5246 9.62861 40.9213 9.67528 41.3319 9.76861V9.44661C41.3319 8.57861 40.8419 8.14461 39.8619 8.14461C39.3299 8.14461 38.7373 8.24728 38.0839 8.45261ZM41.3319 12.5966V10.8746C41.0146 10.7626 40.7159 10.7066 40.4359 10.7066C39.4746 10.7066 38.9939 11.1593 38.9939 12.0646C38.9939 12.4286 39.0779 12.7179 39.2459 12.9326C39.4139 13.1379 39.6613 13.2406 39.9879 13.2406C40.4919 13.2406 40.9399 13.0259 41.3319 12.5966Z" fill="white"/>
<path d="M45.0461 6.95461H46.7961V14.4166H45.0461V6.95461ZM44.9061 5.00861C44.9061 4.69128 44.9994 4.44394 45.1861 4.26661C45.3727 4.08928 45.6154 4.00061 45.9141 4.00061C46.2407 4.00061 46.4927 4.08928 46.6701 4.26661C46.8474 4.43461 46.9361 4.68194 46.9361 5.00861C46.9361 5.33528 46.8381 5.58728 46.6421 5.76461C46.4554 5.93261 46.2127 6.01661 45.9141 6.01661C45.6061 6.01661 45.3587 5.92794 45.1721 5.75061C44.9947 5.56394 44.9061 5.31661 44.9061 5.00861Z" fill="white"/>
<path d="M48.9485 8.45261L48.7385 7.15061C49.4105 6.92661 50.1805 6.81461 51.0485 6.81461C52.0751 6.81461 52.8031 7.04794 53.2325 7.51461C53.6618 7.97194 53.8765 8.81194 53.8765 10.0346V12.6666C53.8765 13.0586 54.0165 13.2546 54.2965 13.2546C54.4271 13.2546 54.5765 13.2219 54.7445 13.1566L54.8705 14.3326C54.5158 14.4819 54.1191 14.5566 53.6805 14.5566C53.0085 14.5566 52.5978 14.2719 52.4485 13.7026C51.8418 14.2719 51.1371 14.5566 50.3345 14.5566C49.6158 14.5566 49.0651 14.3373 48.6825 13.8986C48.3091 13.4599 48.1225 12.8999 48.1225 12.2186C48.1225 10.4919 49.0838 9.62861 51.0065 9.62861C51.3891 9.62861 51.7858 9.67528 52.1965 9.76861V9.44661C52.1965 8.57861 51.7065 8.14461 50.7265 8.14461C50.1945 8.14461 49.6018 8.24728 48.9485 8.45261ZM52.1965 12.5966V10.8746C51.8791 10.7626 51.5805 10.7066 51.3005 10.7066C50.3391 10.7066 49.8585 11.1593 49.8585 12.0646C49.8585 12.4286 49.9425 12.7179 50.1105 12.9326C50.2785 13.1379 50.5258 13.2406 50.8525 13.2406C51.3565 13.2406 51.8045 13.0259 52.1965 12.5966Z" fill="white"/>
<path d="M57.5066 6.95461L57.5626 7.69661C58.2346 7.10861 58.972 6.81461 59.7746 6.81461C60.9786 6.81461 61.66 7.33261 61.8186 8.36861C61.856 8.60194 61.8746 8.91461 61.8746 9.30661V14.4166H60.1246V9.53061C60.1246 9.24128 60.12 9.04994 60.1106 8.95661C60.0546 8.49928 59.7466 8.27061 59.1866 8.27061C58.7013 8.27061 58.1973 8.50394 57.6746 8.97061V14.4166H55.9106V6.95461H57.5066Z" fill="white"/>
<path d="M66.2705 13.7166L66.8585 12.1486C67.7452 12.7646 68.5992 13.0726 69.4205 13.0726C69.8965 13.0726 70.2792 12.9653 70.5685 12.7506C70.8672 12.5266 71.0165 12.1813 71.0165 11.7146C71.0165 11.2106 70.8578 10.8373 70.5405 10.5946C70.2325 10.3519 69.7285 10.1326 69.0285 9.93661C68.7298 9.85261 68.4778 9.77794 68.2725 9.71261C68.0765 9.63794 67.8478 9.52594 67.5865 9.37661C67.3345 9.21794 67.1292 9.04528 66.9705 8.85861C66.8212 8.67194 66.6905 8.42461 66.5785 8.11661C66.4665 7.80861 66.4105 7.46328 66.4105 7.08061C66.4105 6.20328 66.7138 5.49394 67.3205 4.95261C67.9365 4.41128 68.7252 4.14061 69.6865 4.14061C70.6665 4.14061 71.4085 4.37394 71.9125 4.84061C72.4258 5.30728 72.7618 5.87661 72.9205 6.54861L71.2965 7.02461C71.0352 6.09128 70.4845 5.62461 69.6445 5.62461C69.2432 5.62461 68.9118 5.73194 68.6505 5.94661C68.3892 6.16128 68.2585 6.47861 68.2585 6.89861C68.2585 7.34661 68.4032 7.67328 68.6925 7.87861C68.9912 8.08394 69.4672 8.28461 70.1205 8.48061C70.9978 8.74194 71.6698 9.09661 72.1365 9.54461C72.6125 9.99261 72.8505 10.6413 72.8505 11.4906C72.8505 12.4613 72.5332 13.2266 71.8985 13.7866C71.2732 14.3373 70.4425 14.6126 69.4065 14.6126C68.1652 14.6126 67.1198 14.3139 66.2705 13.7166Z" fill="white"/>
<path d="M78.1916 6.95461L79.8996 7.13661C79.125 9.92728 78.3363 12.2606 77.5336 14.1366C77.291 14.7059 77.0763 15.1633 76.8896 15.5086C76.7123 15.8633 76.4883 16.2133 76.2176 16.5586C75.947 16.9039 75.639 17.1559 75.2936 17.3146C74.9576 17.4733 74.575 17.5526 74.1456 17.5526C73.3523 17.5526 72.6196 17.3753 71.9476 17.0206L72.3956 15.5786C73.0396 15.9146 73.5716 16.0826 73.9916 16.0826C74.393 16.0826 74.7056 15.9379 74.9296 15.6486C75.1629 15.3686 75.415 14.8739 75.6856 14.1646L73.0956 7.12261L74.9576 6.95461L76.0076 10.2726C76.297 11.2153 76.5116 11.9199 76.6516 12.3866C77.0343 11.2759 77.5476 9.46528 78.1916 6.95461Z" fill="white"/>
<path d="M81.1069 8.45261L80.8969 7.15061C81.5689 6.92661 82.3389 6.81461 83.2069 6.81461C84.2336 6.81461 84.9616 7.04794 85.3909 7.51461C85.8202 7.97194 86.0349 8.81194 86.0349 10.0346V12.6666C86.0349 13.0586 86.1749 13.2546 86.4549 13.2546C86.5856 13.2546 86.7349 13.2219 86.9029 13.1566L87.0289 14.3326C86.6742 14.4819 86.2776 14.5566 85.8389 14.5566C85.1669 14.5566 84.7562 14.2719 84.6069 13.7026C84.0002 14.2719 83.2956 14.5566 82.4929 14.5566C81.7742 14.5566 81.2236 14.3373 80.8409 13.8986C80.4676 13.4599 80.2809 12.8999 80.2809 12.2186C80.2809 10.4919 81.2422 9.62861 83.1649 9.62861C83.5476 9.62861 83.9442 9.67528 84.3549 9.76861V9.44661C84.3549 8.57861 83.8649 8.14461 82.8849 8.14461C82.3529 8.14461 81.7602 8.24728 81.1069 8.45261ZM84.3549 12.5966V10.8746C84.0376 10.7626 83.7389 10.7066 83.4589 10.7066C82.4976 10.7066 82.0169 11.1593 82.0169 12.0646C82.0169 12.4286 82.1009 12.7179 82.2689 12.9326C82.4369 13.1379 82.6842 13.2406 83.0109 13.2406C83.5149 13.2406 83.9629 13.0259 84.3549 12.5966Z" fill="white"/>
<path d="M91.4291 6.81461C91.9424 6.81461 92.3764 7.07128 92.7311 7.58461L91.9471 8.84461C91.7231 8.56461 91.4571 8.42461 91.1491 8.42461C90.6824 8.42461 90.2437 8.63928 89.8331 9.06861V14.4166H88.0691V6.95461H89.6371L89.7071 7.73861C90.2297 7.12261 90.8037 6.81461 91.4291 6.81461Z" fill="white"/>
<path d="M93.5902 6.95461H95.3402V14.4166H93.5902V6.95461ZM93.4502 5.00861C93.4502 4.69128 93.5435 4.44394 93.7302 4.26661C93.9169 4.08928 94.1595 4.00061 94.4582 4.00061C94.7849 4.00061 95.0369 4.08928 95.2142 4.26661C95.3915 4.43461 95.4802 4.68194 95.4802 5.00861C95.4802 5.33528 95.3822 5.58728 95.1862 5.76461C94.9995 5.93261 94.7569 6.01661 94.4582 6.01661C94.1502 6.01661 93.9029 5.92794 93.7162 5.75061C93.5389 5.56394 93.4502 5.31661 93.4502 5.00861Z" fill="white"/>
<path d="M97.4926 8.45261L97.2826 7.15061C97.9546 6.92661 98.7246 6.81461 99.5926 6.81461C100.619 6.81461 101.347 7.04794 101.777 7.51461C102.206 7.97194 102.421 8.81194 102.421 10.0346V12.6666C102.421 13.0586 102.561 13.2546 102.841 13.2546C102.971 13.2546 103.121 13.2219 103.289 13.1566L103.415 14.3326C103.06 14.4819 102.663 14.5566 102.225 14.5566C101.553 14.5566 101.142 14.2719 100.993 13.7026C100.386 14.2719 99.6813 14.5566 98.8786 14.5566C98.1599 14.5566 97.6093 14.3373 97.2266 13.8986C96.8533 13.4599 96.6666 12.8999 96.6666 12.2186C96.6666 10.4919 97.6279 9.62861 99.5506 9.62861C99.9333 9.62861 100.33 9.67528 100.741 9.76861V9.44661C100.741 8.57861 100.251 8.14461 99.2706 8.14461C98.7386 8.14461 98.1459 8.24728 97.4926 8.45261ZM100.741 12.5966V10.8746C100.423 10.7626 100.125 10.7066 99.8446 10.7066C98.8833 10.7066 98.4026 11.1593 98.4026 12.0646C98.4026 12.4286 98.4866 12.7179 98.6546 12.9326C98.8226 13.1379 99.0699 13.2406 99.3966 13.2406C99.9006 13.2406 100.349 13.0259 100.741 12.5966Z" fill="white"/>
<path d="M108.347 6.81461C109.131 6.81461 109.672 7.02461 109.971 7.44461C110.269 7.85528 110.419 8.47594 110.419 9.30661V14.4166H108.669V9.53061C108.669 9.05461 108.603 8.72794 108.473 8.55061C108.351 8.36394 108.104 8.27061 107.731 8.27061C107.245 8.27061 106.741 8.50394 106.219 8.97061V14.4166H104.455V4.35061H106.219V7.61261C106.872 7.08061 107.581 6.81461 108.347 6.81461Z" fill="white"/>
<path d="M8.35398 31.7486V29.2526H14.958V37.7806C13.138 38.6472 11.1966 39.0806 9.13398 39.0806C6.37798 39.0806 4.34998 38.2746 3.04998 36.6626C1.76731 35.0506 1.12598 32.5112 1.12598 29.0446C1.12598 26.1672 1.72398 23.8792 2.91998 22.1806C4.13331 20.4819 5.99664 19.6326 8.50998 19.6326C10.3646 19.6326 11.7773 20.0659 12.748 20.9326C13.7186 21.7819 14.3686 23.0039 14.698 24.5986L11.604 25.3526C11.3093 24.2952 10.928 23.5239 10.46 23.0386C10.0093 22.5359 9.32464 22.2846 8.40598 22.2846C5.87531 22.2846 4.60998 24.5032 4.60998 28.9406C4.60998 30.1366 4.67064 31.1592 4.79198 32.0086C4.91331 32.8579 5.13864 33.6379 5.46798 34.3486C5.79731 35.0419 6.26531 35.5706 6.87198 35.9346C7.49598 36.2812 8.26731 36.4546 9.18598 36.4546C10.122 36.4546 10.9626 36.2986 11.708 35.9866V31.7486H8.35398Z" fill="#BFD730"/>
<path d="M18.5405 27.6406L18.1505 25.2226C19.3985 24.8066 20.8285 24.5986 22.4405 24.5986C24.3472 24.5986 25.6992 25.0319 26.4965 25.8986C27.2938 26.7479 27.6925 28.3079 27.6925 30.5786V35.4666C27.6925 36.1946 27.9525 36.5586 28.4725 36.5586C28.7152 36.5586 28.9925 36.4979 29.3045 36.3766L29.5385 38.5606C28.8798 38.8379 28.1432 38.9766 27.3285 38.9766C26.0805 38.9766 25.3178 38.4479 25.0405 37.3906C23.9138 38.4479 22.6052 38.9766 21.1145 38.9766C19.7798 38.9766 18.7572 38.5692 18.0465 37.7546C17.3532 36.9399 17.0065 35.8999 17.0065 34.6346C17.0065 31.4279 18.7918 29.8246 22.3625 29.8246C23.0732 29.8246 23.8098 29.9112 24.5725 30.0846V29.4866C24.5725 27.8746 23.6625 27.0686 21.8425 27.0686C20.8545 27.0686 19.7538 27.2592 18.5405 27.6406ZM24.5725 35.3366V32.1386C23.9832 31.9306 23.4285 31.8266 22.9085 31.8266C21.1232 31.8266 20.2305 32.6672 20.2305 34.3486C20.2305 35.0246 20.3865 35.5619 20.6985 35.9606C21.0105 36.3419 21.4698 36.5326 22.0765 36.5326C23.0125 36.5326 23.8445 36.1339 24.5725 35.3366Z" fill="#BFD730"/>
<path d="M38.6003 25.4826V20.0226H41.8503V38.7166H38.9383L38.8343 37.4946C37.881 38.4826 36.7456 38.9766 35.4283 38.9766C33.9203 38.9766 32.7156 38.3786 31.8143 37.1826C30.9303 35.9866 30.4883 34.2272 30.4883 31.9046C30.4883 30.6219 30.6616 29.4519 31.0083 28.3946C31.355 27.3199 31.9356 26.4186 32.7503 25.6906C33.565 24.9626 34.5703 24.5986 35.7663 24.5986C36.8063 24.5986 37.751 24.8932 38.6003 25.4826ZM38.6263 35.3626V27.9526C37.8116 27.3632 37.0923 27.0686 36.4683 27.0686C34.735 27.0686 33.8683 28.6979 33.8683 31.9566C33.8683 33.4126 34.085 34.5219 34.5183 35.2846C34.9516 36.0472 35.567 36.4286 36.3643 36.4286C37.1616 36.4286 37.9156 36.0732 38.6263 35.3626Z" fill="#BFD730"/>
<path d="M45.8257 27.6406L45.4357 25.2226C46.6837 24.8066 48.1137 24.5986 49.7257 24.5986C51.6323 24.5986 52.9843 25.0319 53.7817 25.8986C54.579 26.7479 54.9777 28.3079 54.9777 30.5786V35.4666C54.9777 36.1946 55.2377 36.5586 55.7577 36.5586C56.0003 36.5586 56.2777 36.4979 56.5897 36.3766L56.8237 38.5606C56.165 38.8379 55.4283 38.9766 54.6137 38.9766C53.3657 38.9766 52.603 38.4479 52.3257 37.3906C51.199 38.4479 49.8903 38.9766 48.3997 38.9766C47.065 38.9766 46.0423 38.5692 45.3317 37.7546C44.6383 36.9399 44.2917 35.8999 44.2917 34.6346C44.2917 31.4279 46.077 29.8246 49.6477 29.8246C50.3583 29.8246 51.095 29.9112 51.8577 30.0846V29.4866C51.8577 27.8746 50.9477 27.0686 49.1277 27.0686C48.1397 27.0686 47.039 27.2592 45.8257 27.6406ZM51.8577 35.3366V32.1386C51.2683 31.9306 50.7137 31.8266 50.1937 31.8266C48.4083 31.8266 47.5157 32.6672 47.5157 34.3486C47.5157 35.0246 47.6717 35.5619 47.9837 35.9606C48.2957 36.3419 48.755 36.5326 49.3617 36.5326C50.2977 36.5326 51.1297 36.1339 51.8577 35.3366Z" fill="#BFD730"/>
<path d="M58.7294 24.8586H61.9794V38.7166H58.7294V24.8586ZM58.4694 21.2446C58.4694 20.6552 58.6427 20.1959 58.9894 19.8666C59.3361 19.5372 59.7867 19.3726 60.3414 19.3726C60.9481 19.3726 61.416 19.5372 61.7454 19.8666C62.0747 20.1786 62.2394 20.6379 62.2394 21.2446C62.2394 21.8512 62.0574 22.3192 61.6934 22.6486C61.3467 22.9606 60.896 23.1166 60.3414 23.1166C59.7694 23.1166 59.3101 22.9519 58.9634 22.6226C58.634 22.2759 58.4694 21.8166 58.4694 21.2446Z" fill="#BFD730"/>
<path d="M76.112 25.0556L72.597 31.5156L76.397 38.7166H74.915L71.457 32.1996H69.044V38.7166H67.733V25.0366H69.044V31.0216H71.514L74.744 25.0556H76.112Z" fill="#BFD730"/>
<path d="M84.5606 33.8336H78.7656C78.7656 36.4936 79.7156 37.8236 81.6156 37.8236C82.4896 37.8236 83.3826 37.583 84.2946 37.1016L84.4086 38.2416C83.56 38.7103 82.5783 38.9446 81.4636 38.9446C78.791 38.9446 77.4546 37.165 77.4546 33.6056C77.4546 31.845 77.7903 30.553 78.4616 29.7296C79.133 28.8936 80.0576 28.4756 81.2356 28.4756C82.3883 28.4756 83.2306 28.8746 83.7626 29.6726C84.2946 30.458 84.5606 31.6233 84.5606 33.1686V33.8336ZM83.2496 32.8266C83.2496 31.7626 83.066 30.9583 82.6987 30.4136C82.344 29.8563 81.831 29.5776 81.1596 29.5776C80.387 29.5776 79.798 29.907 79.3926 30.5656C78.9873 31.2116 78.7846 31.9653 78.7846 32.8266H83.2496Z" fill="#BFD730"/>
<path d="M91.6954 28.4756C93.2028 28.4756 94.0831 29.1343 94.3364 30.4516C94.3744 30.667 94.3934 31.0786 94.3934 31.6866V38.7166H93.1394V31.8576C93.1394 31.4143 93.1204 31.0723 93.0824 30.8316C92.9304 30.0336 92.3478 29.6346 91.3344 29.6346C90.4098 29.6346 89.4344 30.1223 88.4084 31.0976V38.7166H87.1354V28.6846H88.4084V29.9386C89.4851 28.9633 90.5808 28.4756 91.6954 28.4756Z" fill="#BFD730"/>
<path d="M100.753 28.4756C101.475 28.4756 102.267 28.767 103.128 29.3496V25.0556H104.401V38.7166H103.204V37.6716C102.355 38.495 101.456 38.9066 100.506 38.9066C99.4546 38.9066 98.6186 38.4823 97.998 37.6336C97.3773 36.785 97.067 35.5246 97.067 33.8526C97.067 33.1813 97.1303 32.548 97.257 31.9526C97.3963 31.3446 97.599 30.7746 97.865 30.2426C98.1436 29.698 98.53 29.2673 99.024 28.9506C99.518 28.634 100.094 28.4756 100.753 28.4756ZM98.397 33.9286C98.397 35.1573 98.6123 36.1073 99.043 36.7786C99.4736 37.45 100.037 37.7856 100.734 37.7856C101.608 37.7856 102.412 37.355 103.147 36.4936V30.6036C102.298 29.945 101.538 29.6156 100.867 29.6156C99.2203 29.6156 98.397 31.0533 98.397 33.9286Z" fill="#BFD730"/>
<path d="M107.865 29.9386L107.732 28.8176C108.556 28.5896 109.512 28.4756 110.601 28.4756C112.704 28.4756 113.755 29.5143 113.755 31.5916V36.9686C113.755 37.2726 113.806 37.488 113.907 37.6146C114.021 37.7413 114.205 37.8046 114.458 37.8046C114.661 37.8046 114.933 37.7413 115.275 37.6146L115.389 38.6596C114.87 38.8243 114.452 38.9066 114.135 38.9066C113.692 38.9066 113.337 38.7926 113.071 38.5646C112.805 38.324 112.653 38.0326 112.615 37.6906C111.703 38.5013 110.741 38.9066 109.727 38.9066C108.803 38.9066 108.1 38.6153 107.618 38.0326C107.137 37.45 106.896 36.709 106.896 35.8096C106.896 34.6316 107.232 33.764 107.903 33.2066C108.587 32.6366 109.537 32.3516 110.753 32.3516C111.361 32.3516 111.944 32.415 112.501 32.5416V31.8196C112.501 31.0343 112.33 30.4643 111.988 30.1096C111.646 29.755 111.051 29.5776 110.202 29.5776C109.404 29.5776 108.625 29.698 107.865 29.9386ZM112.501 36.6836L112.52 33.5296C111.963 33.3903 111.444 33.3206 110.962 33.3206C110.05 33.3206 109.366 33.5106 108.91 33.8906C108.467 34.2706 108.245 34.8976 108.245 35.7716C108.245 36.3543 108.391 36.8356 108.682 37.2156C108.986 37.5956 109.43 37.7856 110.012 37.7856C110.886 37.7856 111.716 37.4183 112.501 36.6836Z" fill="#BFD730"/>
<path d="M120.971 28.4756C121.883 28.4756 122.523 28.995 122.89 30.0336L121.845 30.6036C121.693 30.2743 121.535 30.04 121.37 29.9006C121.206 29.7486 120.965 29.6726 120.648 29.6726C120.053 29.6726 119.375 30.1096 118.615 30.9836V38.7166H117.342V28.6846H118.539V29.8056C119.35 28.919 120.161 28.4756 120.971 28.4756Z" fill="#BFD730"/>
<path d="M124.528 29.9386L124.395 28.8176C125.218 28.5896 126.174 28.4756 127.264 28.4756C129.366 28.4756 130.418 29.5143 130.418 31.5916V36.9686C130.418 37.2726 130.468 37.488 130.57 37.6146C130.684 37.7413 130.867 37.8046 131.121 37.8046C131.323 37.8046 131.596 37.7413 131.938 37.6146L132.052 38.6596C131.532 38.8243 131.114 38.9066 130.798 38.9066C130.354 38.9066 130 38.7926 129.734 38.5646C129.468 38.324 129.316 38.0326 129.278 37.6906C128.366 38.5013 127.403 38.9066 126.39 38.9066C125.465 38.9066 124.762 38.6153 124.281 38.0326C123.799 37.45 123.559 36.709 123.559 35.8096C123.559 34.6316 123.894 33.764 124.566 33.2066C125.25 32.6366 126.2 32.3516 127.416 32.3516C128.024 32.3516 128.606 32.415 129.164 32.5416V31.8196C129.164 31.0343 128.993 30.4643 128.651 30.1096C128.309 29.755 127.713 29.5776 126.865 29.5776C126.067 29.5776 125.288 29.698 124.528 29.9386ZM129.164 36.6836L129.183 33.5296C128.625 33.3903 128.106 33.3206 127.625 33.3206C126.713 33.3206 126.029 33.5106 125.573 33.8906C125.129 34.2706 124.908 34.8976 124.908 35.7716C124.908 36.3543 125.053 36.8356 125.345 37.2156C125.649 37.5956 126.092 37.7856 126.675 37.7856C127.549 37.7856 128.378 37.4183 129.164 36.6836Z" fill="#BFD730"/>
<path d="M134.195 29.9386L134.062 28.8176C134.885 28.5896 135.841 28.4756 136.931 28.4756C139.033 28.4756 140.085 29.5143 140.085 31.5916V36.9686C140.085 37.2726 140.135 37.488 140.237 37.6146C140.351 37.7413 140.534 37.8046 140.788 37.8046C140.99 37.8046 141.263 37.7413 141.605 37.6146L141.719 38.6596C141.199 38.8243 140.781 38.9066 140.465 38.9066C140.021 38.9066 139.667 38.7926 139.401 38.5646C139.135 38.324 138.983 38.0326 138.945 37.6906C138.033 38.5013 137.07 38.9066 136.057 38.9066C135.132 38.9066 134.429 38.6153 133.948 38.0326C133.466 37.45 133.226 36.709 133.226 35.8096C133.226 34.6316 133.561 33.764 134.233 33.2066C134.917 32.6366 135.867 32.3516 137.083 32.3516C137.691 32.3516 138.273 32.415 138.831 32.5416V31.8196C138.831 31.0343 138.66 30.4643 138.318 30.1096C137.976 29.755 137.38 29.5776 136.532 29.5776C135.734 29.5776 134.955 29.698 134.195 29.9386ZM138.831 36.6836L138.85 33.5296C138.292 33.3903 137.773 33.3206 137.292 33.3206C136.38 33.3206 135.696 33.5106 135.24 33.8906C134.796 34.2706 134.575 34.8976 134.575 35.7716C134.575 36.3543 134.72 36.8356 135.012 37.2156C135.316 37.5956 135.759 37.7856 136.342 37.7856C137.216 37.7856 138.045 37.4183 138.831 36.6836Z" fill="#BFD730"/>
<path d="M148.232 28.4756C149.739 28.4756 150.619 29.1343 150.873 30.4516C150.911 30.667 150.93 31.0786 150.93 31.6866V38.7166H149.676V31.8576C149.676 31.4143 149.657 31.0723 149.619 30.8316C149.467 30.0336 148.884 29.6346 147.871 29.6346C146.946 29.6346 145.971 30.1223 144.945 31.0976V38.7166H143.672V28.6846H144.945V29.9386C146.021 28.9633 147.117 28.4756 148.232 28.4756Z" fill="#BFD730"/>
</svg>
