<svg width="240" height="48" viewBox="0 0 240 48" fill="none" xmlns="http://www.w3.org/2000/svg">
<path d="M3.62806 10.7193V14.4153H1.83606V4.34927H5.36406C6.42806 4.34927 7.25406 4.5966 7.84206 5.09127C8.43006 5.58593 8.72406 6.3046 8.72406 7.24727C8.72406 8.30193 8.40206 9.1466 7.75806 9.78127C7.12339 10.4066 6.26473 10.7193 5.18206 10.7193H3.62806ZM3.62806 9.33327H4.98606C5.61139 9.33327 6.08273 9.16993 6.40006 8.84327C6.72673 8.50727 6.89006 8.02193 6.89006 7.38727C6.89006 6.2766 6.30206 5.72127 5.12606 5.72127H3.62806V9.33327Z" fill="#004D43"/>
<path d="M14.9438 10.9853H10.9538C10.9631 11.6853 11.1218 12.2219 11.4298 12.5953C11.7378 12.9593 12.1624 13.1413 12.7038 13.1413C13.3664 13.1413 14.0338 12.9546 14.7058 12.5813L14.8038 14.0513C14.1691 14.3966 13.4084 14.5693 12.5218 14.5693C10.2911 14.5693 9.17578 13.2486 9.17578 10.6073C9.17578 9.31927 9.45111 8.36727 10.0018 7.75127C10.5618 7.12593 11.2944 6.81327 12.1998 6.81327C14.0291 6.81327 14.9438 7.97993 14.9438 10.3133V10.9853ZM13.2918 9.89327C13.2918 8.6986 12.9184 8.10127 12.1718 8.10127C11.7704 8.10127 11.4671 8.26927 11.2618 8.60527C11.0658 8.94127 10.9678 9.3706 10.9678 9.89327H13.2918Z" fill="#004D43"/>
<path d="M20.4074 7.42927L20.4774 6.95327H22.0454V14.3033C22.0454 16.4686 21.0467 17.5513 19.0494 17.5513C18.0507 17.5513 17.1781 17.3693 16.4314 17.0053L16.6974 15.4793C16.9867 15.6566 17.3367 15.8013 17.7474 15.9133C18.1674 16.0346 18.5547 16.0953 18.9094 16.0953C19.8707 16.0953 20.3514 15.4699 20.3514 14.2193V13.7713C19.8941 14.2659 19.3061 14.5133 18.5874 14.5133C17.7754 14.5133 17.1267 14.2006 16.6414 13.5753C16.1654 12.9406 15.9274 11.9979 15.9274 10.7473C15.9274 10.0566 16.0161 9.4266 16.1934 8.85727C16.3801 8.28793 16.6881 7.80727 17.1174 7.41527C17.5561 7.01393 18.0881 6.81327 18.7134 6.81327C19.3387 6.81327 19.9034 7.0186 20.4074 7.42927ZM20.2954 12.5533V8.64727C19.8567 8.32993 19.4647 8.17127 19.1194 8.17127C18.2047 8.17127 17.7474 9.03927 17.7474 10.7753C17.7474 12.3433 18.1907 13.1273 19.0774 13.1273C19.5067 13.1273 19.9127 12.9359 20.2954 12.5533Z" fill="#004D43"/>
<path d="M24.2 8.45127L23.99 7.14927C24.662 6.92527 25.432 6.81327 26.3 6.81327C27.3266 6.81327 28.0546 7.0466 28.484 7.51327C28.9133 7.9706 29.128 8.8106 29.128 10.0333V12.6653C29.128 13.0573 29.268 13.2533 29.548 13.2533C29.6786 13.2533 29.828 13.2206 29.996 13.1553L30.122 14.3313C29.7673 14.4806 29.3706 14.5553 28.932 14.5553C28.26 14.5553 27.8493 14.2706 27.7 13.7013C27.0933 14.2706 26.3886 14.5553 25.586 14.5553C24.8673 14.5553 24.3166 14.3359 23.934 13.8973C23.5606 13.4586 23.374 12.8986 23.374 12.2173C23.374 10.4906 24.3353 9.62727 26.258 9.62727C26.6406 9.62727 27.0373 9.67393 27.448 9.76727V9.44527C27.448 8.57727 26.958 8.14327 25.978 8.14327C25.446 8.14327 24.8533 8.24593 24.2 8.45127ZM27.448 12.5953V10.8733C27.1306 10.7613 26.832 10.7053 26.552 10.7053C25.5906 10.7053 25.11 11.1579 25.11 12.0633C25.11 12.4273 25.194 12.7166 25.362 12.9313C25.53 13.1366 25.7773 13.2393 26.104 13.2393C26.608 13.2393 27.056 13.0246 27.448 12.5953Z" fill="#004D43"/>
<path d="M35.0154 7.28927V4.34927H36.7654V14.4153H35.1974L35.1414 13.7573C34.6281 14.2893 34.0167 14.5553 33.3074 14.5553C32.4954 14.5553 31.8467 14.2333 31.3614 13.5893C30.8854 12.9453 30.6474 11.9979 30.6474 10.7473C30.6474 10.0566 30.7407 9.4266 30.9274 8.85727C31.1141 8.2786 31.4267 7.79327 31.8654 7.40127C32.3041 7.00927 32.8454 6.81327 33.4894 6.81327C34.0494 6.81327 34.5581 6.97193 35.0154 7.28927ZM35.0294 12.6093V8.61927C34.5907 8.30193 34.2034 8.14327 33.8674 8.14327C32.9341 8.14327 32.4674 9.0206 32.4674 10.7753C32.4674 11.5593 32.5841 12.1566 32.8174 12.5673C33.0507 12.9779 33.3821 13.1833 33.8114 13.1833C34.2407 13.1833 34.6467 12.9919 35.0294 12.6093Z" fill="#004D43"/>
<path d="M38.92 8.45127L38.71 7.14927C39.382 6.92527 40.152 6.81327 41.02 6.81327C42.0466 6.81327 42.7746 7.0466 43.204 7.51327C43.6333 7.9706 43.848 8.8106 43.848 10.0333V12.6653C43.848 13.0573 43.988 13.2533 44.268 13.2533C44.3986 13.2533 44.548 13.2206 44.716 13.1553L44.842 14.3313C44.4873 14.4806 44.0906 14.5553 43.652 14.5553C42.98 14.5553 42.5693 14.2706 42.42 13.7013C41.8133 14.2706 41.1086 14.5553 40.306 14.5553C39.5873 14.5553 39.0366 14.3359 38.654 13.8973C38.2806 13.4586 38.094 12.8986 38.094 12.2173C38.094 10.4906 39.0553 9.62727 40.978 9.62727C41.3606 9.62727 41.7573 9.67393 42.168 9.76727V9.44527C42.168 8.57727 41.678 8.14327 40.698 8.14327C40.166 8.14327 39.5733 8.24593 38.92 8.45127ZM42.168 12.5953V10.8733C41.8506 10.7613 41.552 10.7053 41.272 10.7053C40.3106 10.7053 39.83 11.1579 39.83 12.0633C39.83 12.4273 39.914 12.7166 40.082 12.9313C40.25 13.1366 40.4973 13.2393 40.824 13.2393C41.328 13.2393 41.776 13.0246 42.168 12.5953Z" fill="#004D43"/>
<path d="M45.8821 6.95327H47.6321V14.4153H45.8821V6.95327ZM45.7421 5.00727C45.7421 4.68993 45.8355 4.4426 46.0221 4.26527C46.2088 4.08793 46.4515 3.99927 46.7501 3.99927C47.0768 3.99927 47.3288 4.08793 47.5061 4.26527C47.6835 4.43327 47.7721 4.6806 47.7721 5.00727C47.7721 5.33393 47.6741 5.58593 47.4781 5.76327C47.2915 5.93127 47.0488 6.01527 46.7501 6.01527C46.4421 6.01527 46.1948 5.9266 46.0081 5.74927C45.8308 5.5626 45.7421 5.31527 45.7421 5.00727Z" fill="#004D43"/>
<path d="M49.7845 8.45127L49.5745 7.14927C50.2465 6.92527 51.0165 6.81327 51.8845 6.81327C52.9112 6.81327 53.6392 7.0466 54.0685 7.51327C54.4979 7.9706 54.7125 8.8106 54.7125 10.0333V12.6653C54.7125 13.0573 54.8525 13.2533 55.1325 13.2533C55.2632 13.2533 55.4125 13.2206 55.5805 13.1553L55.7065 14.3313C55.3519 14.4806 54.9552 14.5553 54.5165 14.5553C53.8445 14.5553 53.4339 14.2706 53.2845 13.7013C52.6779 14.2706 51.9732 14.5553 51.1705 14.5553C50.4519 14.5553 49.9012 14.3359 49.5185 13.8973C49.1452 13.4586 48.9585 12.8986 48.9585 12.2173C48.9585 10.4906 49.9199 9.62727 51.8425 9.62727C52.2252 9.62727 52.6219 9.67393 53.0325 9.76727V9.44527C53.0325 8.57727 52.5425 8.14327 51.5625 8.14327C51.0305 8.14327 50.4379 8.24593 49.7845 8.45127ZM53.0325 12.5953V10.8733C52.7152 10.7613 52.4165 10.7053 52.1365 10.7053C51.1752 10.7053 50.6945 11.1579 50.6945 12.0633C50.6945 12.4273 50.7785 12.7166 50.9465 12.9313C51.1145 13.1366 51.3619 13.2393 51.6885 13.2393C52.1925 13.2393 52.6405 13.0246 53.0325 12.5953Z" fill="#004D43"/>
<path d="M58.3427 6.95327L58.3987 7.69527C59.0707 7.10727 59.808 6.81327 60.6107 6.81327C61.8147 6.81327 62.496 7.33127 62.6547 8.36727C62.692 8.6006 62.7107 8.91327 62.7107 9.30527V14.4153H60.9607V9.52927C60.9607 9.23993 60.956 9.0486 60.9467 8.95527C60.8907 8.49793 60.5827 8.26927 60.0227 8.26927C59.5374 8.26927 59.0334 8.5026 58.5107 8.96927V14.4153H56.7467V6.95327H58.3427Z" fill="#004D43"/>
<path d="M67.1066 13.7153L67.6946 12.1473C68.5812 12.7633 69.4352 13.0713 70.2566 13.0713C70.7326 13.0713 71.1152 12.9639 71.4046 12.7493C71.7032 12.5253 71.8526 12.1799 71.8526 11.7133C71.8526 11.2093 71.6939 10.8359 71.3766 10.5933C71.0686 10.3506 70.5646 10.1313 69.8646 9.93527C69.5659 9.85127 69.3139 9.7766 69.1086 9.71127C68.9126 9.6366 68.6839 9.5246 68.4226 9.37527C68.1706 9.2166 67.9652 9.04393 67.8066 8.85727C67.6572 8.6706 67.5266 8.42327 67.4146 8.11527C67.3026 7.80727 67.2466 7.46193 67.2466 7.07927C67.2466 6.20193 67.5499 5.4926 68.1566 4.95127C68.7726 4.40993 69.5612 4.13927 70.5226 4.13927C71.5026 4.13927 72.2446 4.3726 72.7486 4.83927C73.2619 5.30593 73.5979 5.87527 73.7566 6.54727L72.1326 7.02327C71.8712 6.08993 71.3206 5.62327 70.4806 5.62327C70.0792 5.62327 69.7479 5.7306 69.4866 5.94527C69.2252 6.15993 69.0946 6.47727 69.0946 6.89727C69.0946 7.34527 69.2392 7.67193 69.5286 7.87727C69.8272 8.0826 70.3032 8.28327 70.9566 8.47927C71.8339 8.7406 72.5059 9.09527 72.9726 9.54327C73.4486 9.99127 73.6866 10.6399 73.6866 11.4893C73.6866 12.4599 73.3692 13.2253 72.7346 13.7853C72.1092 14.3359 71.2786 14.6113 70.2426 14.6113C69.0012 14.6113 67.9559 14.3126 67.1066 13.7153Z" fill="#004D43"/>
<path d="M79.0277 6.95327L80.7357 7.13527C79.961 9.92593 79.1723 12.2593 78.3697 14.1353C78.127 14.7046 77.9123 15.1619 77.7257 15.5073C77.5483 15.8619 77.3243 16.2119 77.0537 16.5573C76.783 16.9026 76.475 17.1546 76.1297 17.3133C75.7937 17.4719 75.411 17.5513 74.9817 17.5513C74.1883 17.5513 73.4557 17.3739 72.7837 17.0193L73.2317 15.5773C73.8757 15.9133 74.4077 16.0813 74.8277 16.0813C75.229 16.0813 75.5417 15.9366 75.7657 15.6473C75.999 15.3673 76.251 14.8726 76.5217 14.1633L73.9317 7.12127L75.7937 6.95327L76.8437 10.2713C77.133 11.2139 77.3477 11.9186 77.4877 12.3853C77.8703 11.2746 78.3837 9.46393 79.0277 6.95327Z" fill="#004D43"/>
<path d="M81.943 8.45127L81.733 7.14927C82.405 6.92527 83.175 6.81327 84.043 6.81327C85.0696 6.81327 85.7976 7.0466 86.227 7.51327C86.6563 7.9706 86.871 8.8106 86.871 10.0333V12.6653C86.871 13.0573 87.011 13.2533 87.291 13.2533C87.4216 13.2533 87.571 13.2206 87.739 13.1553L87.865 14.3313C87.5103 14.4806 87.1136 14.5553 86.675 14.5553C86.003 14.5553 85.5923 14.2706 85.443 13.7013C84.8363 14.2706 84.1316 14.5553 83.329 14.5553C82.6103 14.5553 82.0596 14.3359 81.677 13.8973C81.3036 13.4586 81.117 12.8986 81.117 12.2173C81.117 10.4906 82.0783 9.62727 84.001 9.62727C84.3836 9.62727 84.7803 9.67393 85.191 9.76727V9.44527C85.191 8.57727 84.701 8.14327 83.721 8.14327C83.189 8.14327 82.5963 8.24593 81.943 8.45127ZM85.191 12.5953V10.8733C84.8736 10.7613 84.575 10.7053 84.295 10.7053C83.3336 10.7053 82.853 11.1579 82.853 12.0633C82.853 12.4273 82.937 12.7166 83.105 12.9313C83.273 13.1366 83.5203 13.2393 83.847 13.2393C84.351 13.2393 84.799 13.0246 85.191 12.5953Z" fill="#004D43"/>
<path d="M92.2651 6.81327C92.7785 6.81327 93.2124 7.06993 93.5671 7.58327L92.7831 8.84327C92.5591 8.56327 92.2931 8.42327 91.9851 8.42327C91.5184 8.42327 91.0798 8.63793 90.6691 9.06727V14.4153H88.9051V6.95327H90.4731L90.5431 7.73727C91.0658 7.12127 91.6398 6.81327 92.2651 6.81327Z" fill="#004D43"/>
<path d="M94.4263 6.95327H96.1763V14.4153H94.4263V6.95327ZM94.2863 5.00727C94.2863 4.68993 94.3796 4.4426 94.5663 4.26527C94.7529 4.08793 94.9956 3.99927 95.2943 3.99927C95.6209 3.99927 95.8729 4.08793 96.0503 4.26527C96.2276 4.43327 96.3163 4.6806 96.3163 5.00727C96.3163 5.33393 96.2183 5.58593 96.0223 5.76327C95.8356 5.93127 95.5929 6.01527 95.2943 6.01527C94.9863 6.01527 94.7389 5.9266 94.5523 5.74927C94.3749 5.5626 94.2863 5.31527 94.2863 5.00727Z" fill="#004D43"/>
<path d="M98.3287 8.45127L98.1187 7.14927C98.7906 6.92527 99.5606 6.81327 100.429 6.81327C101.455 6.81327 102.183 7.0466 102.613 7.51327C103.042 7.9706 103.257 8.8106 103.257 10.0333V12.6653C103.257 13.0573 103.397 13.2533 103.677 13.2533C103.807 13.2533 103.957 13.2206 104.125 13.1553L104.251 14.3313C103.896 14.4806 103.499 14.5553 103.061 14.5553C102.389 14.5553 101.978 14.2706 101.829 13.7013C101.222 14.2706 100.517 14.5553 99.7147 14.5553C98.996 14.5553 98.4453 14.3359 98.0627 13.8973C97.6893 13.4586 97.5026 12.8986 97.5026 12.2173C97.5026 10.4906 98.464 9.62727 100.387 9.62727C100.769 9.62727 101.166 9.67393 101.577 9.76727V9.44527C101.577 8.57727 101.087 8.14327 100.107 8.14327C99.5747 8.14327 98.982 8.24593 98.3287 8.45127ZM101.577 12.5953V10.8733C101.259 10.7613 100.961 10.7053 100.681 10.7053C99.7193 10.7053 99.2386 11.1579 99.2386 12.0633C99.2386 12.4273 99.3226 12.7166 99.4906 12.9313C99.6586 13.1366 99.906 13.2393 100.233 13.2393C100.737 13.2393 101.185 13.0246 101.577 12.5953Z" fill="#004D43"/>
<path d="M109.183 6.81327C109.967 6.81327 110.508 7.02327 110.807 7.44327C111.105 7.85393 111.255 8.4746 111.255 9.30527V14.4153H109.505V9.52927C109.505 9.05327 109.439 8.7266 109.309 8.54927C109.187 8.3626 108.94 8.26927 108.567 8.26927C108.081 8.26927 107.577 8.5026 107.055 8.96927V14.4153H105.291V4.34927H107.055V7.61127C107.708 7.07927 108.417 6.81327 109.183 6.81327Z" fill="#004D43"/>
<path d="M1 22.6472V20.0212H15.196V22.6472H9.736V38.7152H6.408V22.6472H1Z" fill="#00AB4E"/>
<path d="M14.73 27.6392L14.34 25.2212C15.588 24.8052 17.018 24.5972 18.63 24.5972C20.5367 24.5972 21.8887 25.0306 22.686 25.8972C23.4834 26.7466 23.882 28.3066 23.882 30.5772V35.4652C23.882 36.1932 24.142 36.5572 24.662 36.5572C24.9047 36.5572 25.182 36.4966 25.494 36.3752L25.728 38.5592C25.0694 38.8366 24.3327 38.9752 23.518 38.9752C22.27 38.9752 21.5074 38.4466 21.23 37.3892C20.1034 38.4466 18.7947 38.9752 17.304 38.9752C15.9694 38.9752 14.9467 38.5679 14.236 37.7532C13.5427 36.9386 13.196 35.8986 13.196 34.6332C13.196 31.4266 14.9814 29.8232 18.552 29.8232C19.2627 29.8232 19.9994 29.9099 20.762 30.0832V29.4852C20.762 27.8732 19.852 27.0672 18.032 27.0672C17.044 27.0672 15.9434 27.2579 14.73 27.6392ZM20.762 35.3352V32.1372C20.1727 31.9292 19.618 31.8252 19.098 31.8252C17.3127 31.8252 16.42 32.6659 16.42 34.3472C16.42 35.0232 16.576 35.5606 16.888 35.9592C17.2 36.3406 17.6594 36.5312 18.266 36.5312C19.202 36.5312 20.034 36.1326 20.762 35.3352Z" fill="#00AB4E"/>
<path d="M30.8577 25.8972C32.1924 25.0306 33.3884 24.5972 34.4458 24.5972C35.8151 24.5972 36.8984 25.0999 37.6958 26.1052C38.4931 27.1106 38.8918 28.6532 38.8918 30.7332C38.8918 33.2986 38.3717 35.3179 37.3317 36.7912C36.2917 38.2472 34.6711 38.9752 32.4697 38.9752C30.6671 38.9752 29.0551 38.5766 27.6337 37.7792V20.0212H30.8577V25.8972ZM35.5378 31.3832C35.5378 29.8406 35.3644 28.7659 35.0177 28.1592C34.6711 27.5526 34.1424 27.2492 33.4318 27.2492C32.6518 27.2492 31.7938 27.5699 30.8577 28.2112V35.9852C31.4124 36.3146 32.0364 36.4792 32.7297 36.4792C34.6017 36.4792 35.5378 34.7806 35.5378 31.3832Z" fill="#00AB4E"/>
<path d="M45.2875 38.9752C43.0689 38.9752 41.7949 38.0046 41.4655 36.0632C41.3962 35.6472 41.3615 35.0579 41.3615 34.2952V25.1952L44.6375 24.8572V33.9312C44.6375 34.4339 44.6549 34.7892 44.6895 34.9972C44.8282 35.8292 45.3829 36.2452 46.3535 36.2452C47.2375 36.2452 48.1909 35.8292 49.2135 34.9972V24.8572H52.4635V38.7152H49.5255L49.4215 37.3632C48.1042 38.4379 46.7262 38.9752 45.2875 38.9752Z" fill="#00AB4E"/>
<path d="M58.7462 24.8572L58.8502 26.2352C60.0982 25.1432 61.4675 24.5972 62.9582 24.5972C65.1942 24.5972 66.4595 25.5592 66.7542 27.4832C66.8235 27.9166 66.8582 28.4972 66.8582 29.2252V38.7152H63.6082V29.6412C63.6082 29.1039 63.5995 28.7486 63.5822 28.5752C63.4782 27.7259 62.9062 27.3012 61.8662 27.3012C60.9649 27.3012 60.0289 27.7346 59.0582 28.6012V38.7152H55.7822V24.8572H58.7462Z" fill="#00AB4E"/>
<path d="M77.7918 25.7412L77.9218 24.8572H80.8338V38.5072C80.8338 42.5286 78.9791 44.5392 75.2698 44.5392C73.4151 44.5392 71.7945 44.2012 70.4078 43.5252L70.9018 40.6912C71.4391 41.0206 72.0891 41.2892 72.8518 41.4972C73.6318 41.7226 74.3512 41.8352 75.0098 41.8352C76.7952 41.8352 77.6878 40.6739 77.6878 38.3512V37.5192C76.8385 38.4379 75.7465 38.8972 74.4118 38.8972C72.9038 38.8972 71.6992 38.3166 70.7978 37.1552C69.9138 35.9766 69.4718 34.2259 69.4718 31.9032C69.4718 30.6206 69.6365 29.4506 69.9658 28.3932C70.3125 27.3359 70.8845 26.4432 71.6818 25.7152C72.4965 24.9699 73.4845 24.5972 74.6458 24.5972C75.8071 24.5972 76.8558 24.9786 77.7918 25.7412ZM77.5838 35.2572V28.0032C76.7691 27.4139 76.0412 27.1192 75.3998 27.1192C73.7011 27.1192 72.8518 28.7312 72.8518 31.9552C72.8518 34.8672 73.6751 36.3232 75.3218 36.3232C76.1191 36.3232 76.8731 35.9679 77.5838 35.2572Z" fill="#00AB4E"/>
<path d="M84.8092 27.6392L84.4192 25.2212C85.6672 24.8052 87.0972 24.5972 88.7092 24.5972C90.6158 24.5972 91.9678 25.0306 92.7652 25.8972C93.5625 26.7466 93.9612 28.3066 93.9612 30.5772V35.4652C93.9612 36.1932 94.2212 36.5572 94.7412 36.5572C94.9838 36.5572 95.2612 36.4966 95.5732 36.3752L95.8072 38.5592C95.1485 38.8366 94.4118 38.9752 93.5972 38.9752C92.3492 38.9752 91.5865 38.4466 91.3092 37.3892C90.1825 38.4466 88.8738 38.9752 87.3832 38.9752C86.0485 38.9752 85.0258 38.5679 84.3152 37.7532C83.6218 36.9386 83.2752 35.8986 83.2752 34.6332C83.2752 31.4266 85.0605 29.8232 88.6312 29.8232C89.3418 29.8232 90.0785 29.9099 90.8412 30.0832V29.4852C90.8412 27.8732 89.9312 27.0672 88.1112 27.0672C87.1232 27.0672 86.0225 27.2579 84.8092 27.6392ZM90.8412 35.3352V32.1372C90.2518 31.9292 89.6972 31.8252 89.1772 31.8252C87.3918 31.8252 86.4992 32.6659 86.4992 34.3472C86.4992 35.0232 86.6552 35.5606 86.9672 35.9592C87.2792 36.3406 87.7385 36.5312 88.3452 36.5312C89.2812 36.5312 90.1132 36.1326 90.8412 35.3352Z" fill="#00AB4E"/>
<path d="M100.677 24.8572L100.781 26.2352C102.029 25.1432 103.398 24.5972 104.889 24.5972C107.125 24.5972 108.39 25.5592 108.685 27.4832C108.754 27.9166 108.789 28.4972 108.789 29.2252V38.7152H105.539V29.6412C105.539 29.1039 105.53 28.7486 105.513 28.5752C105.409 27.7259 104.837 27.3012 103.797 27.3012C102.896 27.3012 101.96 27.7346 100.989 28.6012V38.7152H97.7129V24.8572H100.677Z" fill="#00AB4E"/>
<path d="M114.569 38.7153V25.0543H121.903V26.2323H115.88V31.0203H121.124V32.1983H115.88V37.5183H122.15V38.7153H114.569Z" fill="#00AB4E"/>
<path d="M129.013 28.4743C130.191 28.4743 130.963 28.9176 131.331 29.8043C132.357 28.9176 133.402 28.4743 134.466 28.4743C135.986 28.4743 136.86 29.1329 137.088 30.4503C137.138 30.7416 137.164 31.1533 137.164 31.6853V38.7153H135.91V31.8563C135.91 31.3876 135.884 31.0456 135.834 30.8303C135.682 30.0323 135.131 29.6333 134.181 29.6333C133.307 29.6333 132.426 30.0513 131.54 30.8873C131.565 31.0899 131.578 31.4256 131.578 31.8943V38.7153H130.324V31.8563C130.324 31.3876 130.298 31.0456 130.248 30.8303C130.121 30.0323 129.621 29.6333 128.747 29.6333C127.695 29.6333 126.688 30.1273 125.726 31.1153V38.7153H124.453V28.6833H125.726V29.9183C126.828 28.9556 127.923 28.4743 129.013 28.4743Z" fill="#00AB4E"/>
<path d="M140.618 29.9373L140.485 28.8163C141.309 28.5883 142.265 28.4743 143.354 28.4743C145.457 28.4743 146.508 29.5129 146.508 31.5903V36.9673C146.508 37.2713 146.559 37.4866 146.66 37.6133C146.774 37.7399 146.958 37.8033 147.211 37.8033C147.414 37.8033 147.686 37.7399 148.028 37.6133L148.142 38.6583C147.623 38.8229 147.205 38.9053 146.888 38.9053C146.445 38.9053 146.09 38.7913 145.824 38.5633C145.558 38.3226 145.406 38.0313 145.368 37.6893C144.456 38.4999 143.494 38.9053 142.48 38.9053C141.556 38.9053 140.853 38.6139 140.371 38.0313C139.89 37.4486 139.649 36.7076 139.649 35.8083C139.649 34.6303 139.985 33.7626 140.656 33.2053C141.34 32.6353 142.29 32.3503 143.506 32.3503C144.114 32.3503 144.697 32.4136 145.254 32.5403V31.8183C145.254 31.0329 145.083 30.4629 144.741 30.1083C144.399 29.7536 143.804 29.5763 142.955 29.5763C142.157 29.5763 141.378 29.6966 140.618 29.9373ZM145.254 36.6823L145.273 33.5283C144.716 33.3889 144.197 33.3193 143.715 33.3193C142.803 33.3193 142.119 33.5093 141.663 33.8893C141.22 34.2693 140.998 34.8963 140.998 35.7703C140.998 36.3529 141.144 36.8343 141.435 37.2143C141.739 37.5943 142.183 37.7843 142.765 37.7843C143.639 37.7843 144.469 37.4169 145.254 36.6823Z" fill="#00AB4E"/>
<path d="M149.221 37.8793L149.563 36.7013C149.842 36.9546 150.247 37.2079 150.779 37.4613C151.311 37.7146 151.818 37.8413 152.299 37.8413C152.92 37.8413 153.42 37.7019 153.8 37.4233C154.18 37.1446 154.37 36.7393 154.37 36.2073C154.37 35.7133 154.199 35.3206 153.857 35.0293C153.515 34.7379 153.097 34.5163 152.603 34.3643C152.109 34.2123 151.615 34.0476 151.121 33.8703C150.64 33.6929 150.228 33.3889 149.886 32.9583C149.544 32.5276 149.373 31.9639 149.373 31.2673C149.373 30.4059 149.684 29.7283 150.304 29.2343C150.925 28.7276 151.685 28.4743 152.584 28.4743C153.509 28.4743 154.231 28.7086 154.75 29.1773C155.282 29.6333 155.605 30.1716 155.719 30.7923L154.693 31.2103C154.541 30.6783 154.275 30.2793 153.895 30.0133C153.515 29.7346 153.072 29.5953 152.565 29.5953C152.033 29.5953 151.584 29.7283 151.216 29.9943C150.849 30.2603 150.665 30.6656 150.665 31.2103C150.665 31.7043 150.836 32.1033 151.178 32.4073C151.52 32.6986 151.932 32.9203 152.413 33.0723C152.907 33.2243 153.401 33.3889 153.895 33.5663C154.389 33.7309 154.807 34.0159 155.149 34.4213C155.491 34.8266 155.662 35.3523 155.662 35.9983C155.662 36.8596 155.365 37.5689 154.769 38.1263C154.187 38.6709 153.357 38.9433 152.28 38.9433C151.672 38.9433 151.071 38.8293 150.475 38.6013C149.893 38.3606 149.475 38.1199 149.221 37.8793Z" fill="#00AB4E"/>
</svg>
