<svg width="240" height="48" viewBox="0 0 240 48" fill="none" xmlns="http://www.w3.org/2000/svg">
<path d="M2.792 10.72V14.416H1V4.35H4.528C5.592 4.35 6.418 4.59733 7.006 5.092C7.594 5.58667 7.888 6.30533 7.888 7.248C7.888 8.30267 7.566 9.14733 6.922 9.782C6.28733 10.4073 5.42867 10.72 4.346 10.72H2.792ZM2.792 9.334H4.15C4.77533 9.334 5.24667 9.17067 5.564 8.844C5.89067 8.508 6.054 8.02267 6.054 7.388C6.054 6.27733 5.466 5.722 4.29 5.722H2.792V9.334Z" fill="white"/>
<path d="M14.1077 10.986H10.1177C10.1271 11.686 10.2857 12.2227 10.5937 12.596C10.9017 12.96 11.3264 13.142 11.8677 13.142C12.5304 13.142 13.1977 12.9553 13.8697 12.582L13.9677 14.052C13.3331 14.3973 12.5724 14.57 11.6857 14.57C9.45505 14.57 8.33972 13.2493 8.33972 10.608C8.33972 9.32 8.61505 8.368 9.16572 7.752C9.72572 7.12667 10.4584 6.814 11.3637 6.814C13.1931 6.814 14.1077 7.98067 14.1077 10.314V10.986ZM12.4557 9.894C12.4557 8.69933 12.0824 8.102 11.3357 8.102C10.9344 8.102 10.6311 8.27 10.4257 8.606C10.2297 8.942 10.1317 9.37133 10.1317 9.894H12.4557Z" fill="white"/>
<path d="M19.5713 7.43L19.6413 6.954H21.2093V14.304C21.2093 16.4693 20.2107 17.552 18.2133 17.552C17.2147 17.552 16.342 17.37 15.5953 17.006L15.8613 15.48C16.1507 15.6573 16.5007 15.802 16.9113 15.914C17.3313 16.0353 17.7187 16.096 18.0733 16.096C19.0347 16.096 19.5153 15.4707 19.5153 14.22V13.772C19.058 14.2667 18.47 14.514 17.7513 14.514C16.9393 14.514 16.2907 14.2013 15.8053 13.576C15.3293 12.9413 15.0913 11.9987 15.0913 10.748C15.0913 10.0573 15.18 9.42733 15.3573 8.858C15.544 8.28867 15.852 7.808 16.2813 7.416C16.72 7.01467 17.252 6.814 17.8773 6.814C18.5027 6.814 19.0673 7.01933 19.5713 7.43ZM19.4593 12.554V8.648C19.0207 8.33067 18.6287 8.172 18.2833 8.172C17.3687 8.172 16.9113 9.04 16.9113 10.776C16.9113 12.344 17.3547 13.128 18.2413 13.128C18.6707 13.128 19.0767 12.9367 19.4593 12.554Z" fill="white"/>
<path d="M23.3639 8.452L23.1539 7.15C23.8259 6.926 24.5959 6.814 25.4639 6.814C26.4906 6.814 27.2186 7.04733 27.6479 7.514C28.0772 7.97133 28.2919 8.81133 28.2919 10.034V12.666C28.2919 13.058 28.4319 13.254 28.7119 13.254C28.8426 13.254 28.9919 13.2213 29.1599 13.156L29.2859 14.332C28.9312 14.4813 28.5346 14.556 28.0959 14.556C27.4239 14.556 27.0132 14.2713 26.8639 13.702C26.2572 14.2713 25.5526 14.556 24.7499 14.556C24.0312 14.556 23.4806 14.3367 23.0979 13.898C22.7246 13.4593 22.5379 12.8993 22.5379 12.218C22.5379 10.4913 23.4992 9.628 25.4219 9.628C25.8046 9.628 26.2012 9.67467 26.6119 9.768V9.446C26.6119 8.578 26.1219 8.144 25.1419 8.144C24.6099 8.144 24.0172 8.24667 23.3639 8.452ZM26.6119 12.596V10.874C26.2946 10.762 25.9959 10.706 25.7159 10.706C24.7546 10.706 24.2739 11.1587 24.2739 12.064C24.2739 12.428 24.3579 12.7173 24.5259 12.932C24.6939 13.1373 24.9412 13.24 25.2679 13.24C25.7719 13.24 26.2199 13.0253 26.6119 12.596Z" fill="white"/>
<path d="M34.1793 7.29V4.35H35.9293V14.416H34.3613L34.3053 13.758C33.792 14.29 33.1807 14.556 32.4713 14.556C31.6593 14.556 31.0107 14.234 30.5253 13.59C30.0493 12.946 29.8113 11.9987 29.8113 10.748C29.8113 10.0573 29.9047 9.42733 30.0913 8.858C30.278 8.27933 30.5907 7.794 31.0293 7.402C31.468 7.01 32.0093 6.814 32.6533 6.814C33.2133 6.814 33.722 6.97267 34.1793 7.29ZM34.1933 12.61V8.62C33.7547 8.30267 33.3673 8.144 33.0313 8.144C32.098 8.144 31.6313 9.02133 31.6313 10.776C31.6313 11.56 31.748 12.1573 31.9813 12.568C32.2147 12.9787 32.546 13.184 32.9753 13.184C33.4047 13.184 33.8107 12.9927 34.1933 12.61Z" fill="white"/>
<path d="M38.0839 8.452L37.8739 7.15C38.5459 6.926 39.3159 6.814 40.1839 6.814C41.2106 6.814 41.9386 7.04733 42.3679 7.514C42.7973 7.97133 43.0119 8.81133 43.0119 10.034V12.666C43.0119 13.058 43.1519 13.254 43.4319 13.254C43.5626 13.254 43.7119 13.2213 43.8799 13.156L44.0059 14.332C43.6513 14.4813 43.2546 14.556 42.8159 14.556C42.1439 14.556 41.7333 14.2713 41.5839 13.702C40.9773 14.2713 40.2726 14.556 39.4699 14.556C38.7513 14.556 38.2006 14.3367 37.8179 13.898C37.4446 13.4593 37.2579 12.8993 37.2579 12.218C37.2579 10.4913 38.2193 9.628 40.1419 9.628C40.5246 9.628 40.9213 9.67467 41.3319 9.768V9.446C41.3319 8.578 40.8419 8.144 39.8619 8.144C39.3299 8.144 38.7373 8.24667 38.0839 8.452ZM41.3319 12.596V10.874C41.0146 10.762 40.7159 10.706 40.4359 10.706C39.4746 10.706 38.9939 11.1587 38.9939 12.064C38.9939 12.428 39.0779 12.7173 39.2459 12.932C39.4139 13.1373 39.6613 13.24 39.9879 13.24C40.4919 13.24 40.9399 13.0253 41.3319 12.596Z" fill="white"/>
<path d="M45.0461 6.954H46.7961V14.416H45.0461V6.954ZM44.9061 5.008C44.9061 4.69067 44.9994 4.44333 45.1861 4.266C45.3727 4.08867 45.6154 4 45.9141 4C46.2407 4 46.4927 4.08867 46.6701 4.266C46.8474 4.434 46.9361 4.68133 46.9361 5.008C46.9361 5.33467 46.8381 5.58667 46.6421 5.764C46.4554 5.932 46.2127 6.016 45.9141 6.016C45.6061 6.016 45.3587 5.92733 45.1721 5.75C44.9947 5.56333 44.9061 5.316 44.9061 5.008Z" fill="white"/>
<path d="M48.9485 8.452L48.7385 7.15C49.4105 6.926 50.1805 6.814 51.0485 6.814C52.0751 6.814 52.8031 7.04733 53.2325 7.514C53.6618 7.97133 53.8765 8.81133 53.8765 10.034V12.666C53.8765 13.058 54.0165 13.254 54.2965 13.254C54.4271 13.254 54.5765 13.2213 54.7445 13.156L54.8705 14.332C54.5158 14.4813 54.1191 14.556 53.6805 14.556C53.0085 14.556 52.5978 14.2713 52.4485 13.702C51.8418 14.2713 51.1371 14.556 50.3345 14.556C49.6158 14.556 49.0651 14.3367 48.6825 13.898C48.3091 13.4593 48.1225 12.8993 48.1225 12.218C48.1225 10.4913 49.0838 9.628 51.0065 9.628C51.3891 9.628 51.7858 9.67467 52.1965 9.768V9.446C52.1965 8.578 51.7065 8.144 50.7265 8.144C50.1945 8.144 49.6018 8.24667 48.9485 8.452ZM52.1965 12.596V10.874C51.8791 10.762 51.5805 10.706 51.3005 10.706C50.3391 10.706 49.8585 11.1587 49.8585 12.064C49.8585 12.428 49.9425 12.7173 50.1105 12.932C50.2785 13.1373 50.5258 13.24 50.8525 13.24C51.3565 13.24 51.8045 13.0253 52.1965 12.596Z" fill="white"/>
<path d="M57.5066 6.954L57.5626 7.696C58.2346 7.108 58.972 6.814 59.7746 6.814C60.9786 6.814 61.66 7.332 61.8186 8.368C61.856 8.60133 61.8746 8.914 61.8746 9.306V14.416H60.1246V9.53C60.1246 9.24067 60.12 9.04933 60.1106 8.956C60.0546 8.49867 59.7466 8.27 59.1866 8.27C58.7013 8.27 58.1973 8.50333 57.6746 8.97V14.416H55.9106V6.954H57.5066Z" fill="white"/>
<path d="M9.21198 36.2461C10.6506 36.2461 12.1326 35.8041 13.658 34.9201L14.282 37.7021C12.67 38.6207 10.8153 39.0801 8.71798 39.0801C7.55664 39.0801 6.51664 38.8981 5.59798 38.5341C4.69664 38.1527 3.96864 37.6674 3.41398 37.0781C2.85931 36.4714 2.40864 35.7434 2.06198 34.8941C1.71531 34.0274 1.47264 33.1607 1.33398 32.2941C1.19531 31.4274 1.12598 30.5001 1.12598 29.5121C1.12598 28.1601 1.23864 26.9381 1.46398 25.8461C1.68931 24.7367 2.05331 23.6967 2.55598 22.7261C3.07598 21.7554 3.82131 21.0014 4.79198 20.4641C5.77998 19.9094 6.95864 19.6321 8.32798 19.6321C11.8293 19.6321 13.9093 21.2874 14.568 24.5981L11.396 25.3781C11.1706 24.3901 10.824 23.6274 10.356 23.0901C9.88798 22.5527 9.21198 22.2841 8.32798 22.2841C5.86664 22.2841 4.63598 24.6327 4.63598 29.3301C4.63598 31.6181 4.99131 33.3427 5.70198 34.5041C6.42998 35.6654 7.59998 36.2461 9.21198 36.2461Z" fill="#BFD730"/>
<path d="M16.7225 24.8581H19.9725V38.7161H16.7225V24.8581ZM16.4625 21.2441C16.4625 20.6547 16.6359 20.1954 16.9825 19.8661C17.3292 19.5367 17.7799 19.3721 18.3345 19.3721C18.9412 19.3721 19.4092 19.5367 19.7385 19.8661C20.0679 20.1781 20.2325 20.6374 20.2325 21.2441C20.2325 21.8507 20.0505 22.3187 19.6865 22.6481C19.3399 22.9601 18.8892 23.1161 18.3345 23.1161C17.7625 23.1161 17.3032 22.9514 16.9565 22.6221C16.6272 22.2754 16.4625 21.8161 16.4625 21.2441Z" fill="#BFD730"/>
<path d="M29.1178 36.3241C30.2272 36.3241 31.3712 36.0207 32.5498 35.4141L32.8098 38.0921C31.5272 38.7161 30.1578 39.0281 28.7018 39.0281C27.5405 39.0281 26.5352 38.8201 25.6858 38.4041C24.8538 37.9707 24.2212 37.3987 23.7878 36.6881C23.3718 35.9601 23.0685 35.1974 22.8778 34.4001C22.6872 33.6027 22.5918 32.7447 22.5918 31.8261C22.5918 30.8554 22.6872 29.9627 22.8778 29.1481C23.0685 28.3161 23.3718 27.5534 23.7878 26.8601C24.2212 26.1494 24.8278 25.5947 25.6078 25.1961C26.4052 24.7974 27.3412 24.5981 28.4158 24.5981C29.8198 24.5981 30.9032 24.9621 31.6658 25.6901C32.4458 26.4007 32.9485 27.3367 33.1738 28.4981L30.4698 29.3821C30.2965 28.7061 30.0452 28.1774 29.7158 27.7961C29.4038 27.3974 28.9358 27.1981 28.3118 27.1981C26.7345 27.1981 25.9458 28.6887 25.9458 31.6701C25.9458 34.7727 27.0032 36.3241 29.1178 36.3241Z" fill="#BFD730"/>
<path d="M35.121 24.8581H38.371V38.7161H35.121V24.8581ZM34.861 21.2441C34.861 20.6547 35.0343 20.1954 35.381 19.8661C35.7276 19.5367 36.1783 19.3721 36.733 19.3721C37.3396 19.3721 37.8076 19.5367 38.137 19.8661C38.4663 20.1781 38.631 20.6374 38.631 21.2441C38.631 21.8507 38.449 22.3187 38.085 22.6481C37.7383 22.9601 37.2876 23.1161 36.733 23.1161C36.161 23.1161 35.7016 22.9514 35.355 22.6221C35.0256 22.2754 34.861 21.8161 34.861 21.2441Z" fill="#BFD730"/>
<path d="M41.5623 34.9981V20.0221H44.8123V34.5301C44.8123 35.1541 44.9076 35.6047 45.0983 35.8821C45.3063 36.1594 45.6443 36.2981 46.1123 36.2981C46.6496 36.2981 47.2389 36.1421 47.8803 35.8301L48.2703 38.3261C47.3343 38.7767 46.3116 39.0021 45.2023 39.0021C43.8503 39.0021 42.9056 38.6641 42.3683 37.9881C41.8309 37.2947 41.5623 36.2981 41.5623 34.9981Z" fill="#BFD730"/>
<path d="M57.0079 33.1681H54.0439V38.7161H52.7329V25.0551H57.2549C58.5849 25.0551 59.6172 25.3654 60.3519 25.9861C61.0866 26.5941 61.4539 27.4934 61.4539 28.6841C61.4539 30.0521 61.0422 31.1414 60.2189 31.9521C59.4082 32.7627 58.3379 33.1681 57.0079 33.1681ZM54.0439 32.0091H56.8939C57.9326 32.0091 58.7242 31.7431 59.2689 31.2111C59.8262 30.6664 60.1049 29.8874 60.1049 28.8741C60.1049 27.9114 59.8516 27.2337 59.3449 26.8411C58.8509 26.4357 58.0846 26.2331 57.0459 26.2331H54.0439V32.0091Z" fill="#BFD730"/>
<path d="M69.7832 33.8331H63.9882C63.9882 36.4931 64.9382 37.8231 66.8382 37.8231C67.7122 37.8231 68.6052 37.5824 69.5172 37.1011L69.6312 38.2411C68.7825 38.7097 67.8008 38.9441 66.6862 38.9441C64.0135 38.9441 62.6772 37.1644 62.6772 33.6051C62.6772 31.8444 63.0128 30.5524 63.6842 29.7291C64.3555 28.8931 65.2802 28.4751 66.4582 28.4751C67.6109 28.4751 68.4532 28.8741 68.9852 29.6721C69.5172 30.4574 69.7832 31.6227 69.7832 33.1681V33.8331ZM68.4722 32.8261C68.4722 31.7621 68.2885 30.9577 67.9212 30.4131C67.5665 29.8557 67.0535 29.5771 66.3822 29.5771C65.6095 29.5771 65.0205 29.9064 64.6152 30.5651C64.2098 31.2111 64.0072 31.9647 64.0072 32.8261H68.4722Z" fill="#BFD730"/>
<path d="M75.987 28.4751C76.899 28.4751 77.5386 28.9944 77.906 30.0331L76.861 30.6031C76.709 30.2737 76.5506 30.0394 76.386 29.9001C76.2213 29.7481 75.9806 29.6721 75.664 29.6721C75.0686 29.6721 74.391 30.1091 73.631 30.9831V38.7161H72.358V28.6841H73.555V29.8051C74.3656 28.9184 75.1763 28.4751 75.987 28.4751Z" fill="#BFD730"/>
<path d="M84.1914 28.4751C85.6987 28.4751 86.5791 29.1337 86.8324 30.4511C86.8704 30.6664 86.8894 31.0781 86.8894 31.6861V38.7161H85.6354V31.8571C85.6354 31.4137 85.6164 31.0717 85.5784 30.8311C85.4264 30.0331 84.8438 29.6341 83.8304 29.6341C82.9058 29.6341 81.9304 30.1217 80.9044 31.0971V38.7161H79.6314V25.0551H80.9044V29.9381C81.9811 28.9627 83.0768 28.4751 84.1914 28.4751Z" fill="#BFD730"/>
<path d="M90.1519 28.6841H91.4059V38.7161H90.1519V28.6841ZM89.9429 26.1001C89.9429 25.8341 90.0189 25.6314 90.1709 25.4921C90.3229 25.3401 90.5193 25.2641 90.7599 25.2641C91.3173 25.2641 91.5959 25.5491 91.5959 26.1191C91.5959 26.3977 91.5199 26.6194 91.3679 26.7841C91.2159 26.9361 91.0133 27.0121 90.7599 27.0121C90.5193 27.0121 90.3229 26.9297 90.1709 26.7651C90.0189 26.6004 89.9429 26.3787 89.9429 26.1001Z" fill="#BFD730"/>
<path d="M94.8693 29.9381L94.7363 28.8171C95.5596 28.5891 96.5159 28.4751 97.6053 28.4751C99.7079 28.4751 100.759 29.5137 100.759 31.5911V36.9681C100.759 37.2721 100.81 37.4874 100.911 37.6141C101.025 37.7407 101.209 37.8041 101.462 37.8041C101.665 37.8041 101.937 37.7407 102.279 37.6141L102.393 38.6591C101.874 38.8237 101.456 38.9061 101.139 38.9061C100.696 38.9061 100.341 38.7921 100.075 38.5641C99.8093 38.3234 99.6573 38.0321 99.6193 37.6901C98.7073 38.5007 97.7446 38.9061 96.7313 38.9061C95.8066 38.9061 95.1036 38.6147 94.6223 38.0321C94.1409 37.4494 93.9003 36.7084 93.9003 35.8091C93.9003 34.6311 94.2359 33.7634 94.9073 33.2061C95.5913 32.6361 96.5413 32.3511 97.7573 32.3511C98.3653 32.3511 98.9479 32.4144 99.5053 32.5411V31.8191C99.5053 31.0337 99.3343 30.4637 98.9923 30.1091C98.6503 29.7544 98.0549 29.5771 97.2063 29.5771C96.4083 29.5771 95.6293 29.6974 94.8693 29.9381ZM99.5053 36.6831L99.5243 33.5291C98.9669 33.3897 98.4476 33.3201 97.9663 33.3201C97.0543 33.3201 96.3703 33.5101 95.9143 33.8901C95.4709 34.2701 95.2493 34.8971 95.2493 35.7711C95.2493 36.3537 95.3949 36.8351 95.6863 37.2151C95.9903 37.5951 96.4336 37.7851 97.0163 37.7851C97.8903 37.7851 98.7199 37.4177 99.5053 36.6831Z" fill="#BFD730"/>
<path d="M103.472 37.8801L103.814 36.7021C104.093 36.9554 104.498 37.2087 105.03 37.4621C105.562 37.7154 106.069 37.8421 106.55 37.8421C107.171 37.8421 107.671 37.7027 108.051 37.4241C108.431 37.1454 108.621 36.7401 108.621 36.2081C108.621 35.7141 108.45 35.3214 108.108 35.0301C107.766 34.7387 107.348 34.5171 106.854 34.3651C106.36 34.2131 105.866 34.0484 105.372 33.8711C104.891 33.6937 104.479 33.3897 104.137 32.9591C103.795 32.5284 103.624 31.9647 103.624 31.2681C103.624 30.4067 103.935 29.7291 104.555 29.2351C105.176 28.7284 105.936 28.4751 106.835 28.4751C107.76 28.4751 108.482 28.7094 109.001 29.1781C109.533 29.6341 109.856 30.1724 109.97 30.7931L108.944 31.2111C108.792 30.6791 108.526 30.2801 108.146 30.0141C107.766 29.7354 107.323 29.5961 106.816 29.5961C106.284 29.5961 105.835 29.7291 105.467 29.9951C105.1 30.2611 104.916 30.6664 104.916 31.2111C104.916 31.7051 105.087 32.1041 105.429 32.4081C105.771 32.6994 106.183 32.9211 106.664 33.0731C107.158 33.2251 107.652 33.3897 108.146 33.5671C108.64 33.7317 109.058 34.0167 109.4 34.4221C109.742 34.8274 109.913 35.3531 109.913 35.9991C109.913 36.8604 109.616 37.5697 109.02 38.1271C108.438 38.6717 107.608 38.9441 106.531 38.9441C105.923 38.9441 105.322 38.8301 104.726 38.6021C104.144 38.3614 103.726 38.1207 103.472 37.8801Z" fill="#BFD730"/>
<path d="M112.645 29.9381L112.512 28.8171C113.335 28.5891 114.291 28.4751 115.381 28.4751C117.483 28.4751 118.535 29.5137 118.535 31.5911V36.9681C118.535 37.2721 118.585 37.4874 118.687 37.6141C118.801 37.7407 118.984 37.8041 119.238 37.8041C119.44 37.8041 119.713 37.7407 120.055 37.6141L120.169 38.6591C119.649 38.8237 119.231 38.9061 118.915 38.9061C118.471 38.9061 118.117 38.7921 117.851 38.5641C117.585 38.3234 117.433 38.0321 117.395 37.6901C116.483 38.5007 115.52 38.9061 114.507 38.9061C113.582 38.9061 112.879 38.6147 112.398 38.0321C111.916 37.4494 111.676 36.7084 111.676 35.8091C111.676 34.6311 112.011 33.7634 112.683 33.2061C113.367 32.6361 114.317 32.3511 115.533 32.3511C116.141 32.3511 116.723 32.4144 117.281 32.5411V31.8191C117.281 31.0337 117.11 30.4637 116.768 30.1091C116.426 29.7544 115.83 29.5771 114.982 29.5771C114.184 29.5771 113.405 29.6974 112.645 29.9381ZM117.281 36.6831L117.3 33.5291C116.742 33.3897 116.223 33.3201 115.742 33.3201C114.83 33.3201 114.146 33.5101 113.69 33.8901C113.246 34.2701 113.025 34.8971 113.025 35.7711C113.025 36.3537 113.17 36.8351 113.462 37.2151C113.766 37.5951 114.209 37.7851 114.792 37.7851C115.666 37.7851 116.495 37.4177 117.281 36.6831Z" fill="#BFD730"/>
<path d="M126.682 28.4751C128.189 28.4751 129.069 29.1337 129.323 30.4511C129.361 30.6664 129.38 31.0781 129.38 31.6861V38.7161H128.126V31.8571C128.126 31.4137 128.107 31.0717 128.069 30.8311C127.917 30.0331 127.334 29.6341 126.321 29.6341C125.396 29.6341 124.421 30.1217 123.395 31.0971V38.7161H122.122V28.6841H123.395V29.9381C124.471 28.9627 125.567 28.4751 126.682 28.4751Z" fill="#BFD730"/>
<path d="M138.583 28.4751C139.305 28.4751 140.097 28.7664 140.958 29.3491V25.0551H142.231V38.7161H141.034V37.6711C140.185 38.4944 139.286 38.9061 138.336 38.9061C137.285 38.9061 136.449 38.4817 135.828 37.6331C135.207 36.7844 134.897 35.5241 134.897 33.8521C134.897 33.1807 134.96 32.5474 135.087 31.9521C135.226 31.3441 135.429 30.7741 135.695 30.2421C135.974 29.6974 136.36 29.2667 136.854 28.9501C137.348 28.6334 137.924 28.4751 138.583 28.4751ZM136.227 33.9281C136.227 35.1567 136.442 36.1067 136.873 36.7781C137.304 37.4494 137.867 37.7851 138.564 37.7851C139.438 37.7851 140.242 37.3544 140.977 36.4931V30.6031C140.128 29.9444 139.368 29.6151 138.697 29.6151C137.05 29.6151 136.227 31.0527 136.227 33.9281Z" fill="#BFD730"/>
<path d="M145.506 28.6841H146.76V38.7161H145.506V28.6841ZM145.297 26.1001C145.297 25.8341 145.373 25.6314 145.525 25.4921C145.677 25.3401 145.873 25.2641 146.114 25.2641C146.671 25.2641 146.95 25.5491 146.95 26.1191C146.95 26.3977 146.874 26.6194 146.722 26.7841C146.57 26.9361 146.367 27.0121 146.114 27.0121C145.873 27.0121 145.677 26.9297 145.525 26.7651C145.373 26.6004 145.297 26.3787 145.297 26.1001Z" fill="#BFD730"/>
<path d="M162.252 25.0551H163.848L164.475 38.7161H163.202L162.708 27.3161L158.946 37.3481H157.958L154.139 27.2781L153.626 38.7161H152.372L152.999 25.0551H154.728L158.471 35.3531L162.252 25.0551Z" fill="#BFD730"/>
<path d="M174.144 33.8331H168.349C168.349 36.4931 169.299 37.8231 171.199 37.8231C172.073 37.8231 172.966 37.5824 173.878 37.1011L173.992 38.2411C173.143 38.7097 172.161 38.9441 171.047 38.9441C168.374 38.9441 167.038 37.1644 167.038 33.6051C167.038 31.8444 167.373 30.5524 168.045 29.7291C168.716 28.8931 169.641 28.4751 170.819 28.4751C171.971 28.4751 172.814 28.8741 173.346 29.6721C173.878 30.4574 174.144 31.6227 174.144 33.1681V33.8331ZM172.833 32.8261C172.833 31.7621 172.649 30.9577 172.282 30.4131C171.927 29.8557 171.414 29.5771 170.743 29.5771C169.97 29.5771 169.381 29.9064 168.976 30.5651C168.57 31.2111 168.368 31.9647 168.368 32.8261H172.833Z" fill="#BFD730"/>
<path d="M180.347 28.4751C181.259 28.4751 181.899 28.9944 182.266 30.0331L181.221 30.6031C181.069 30.2737 180.911 30.0394 180.746 29.9001C180.582 29.7481 180.341 29.6721 180.024 29.6721C179.429 29.6721 178.751 30.1091 177.991 30.9831V38.7161H176.718V28.6841H177.915V29.8051C178.726 28.9184 179.537 28.4751 180.347 28.4751Z" fill="#BFD730"/>
<path d="M187.264 37.8421C188.1 37.8421 188.955 37.6014 189.829 37.1201L189.981 38.2601C189.12 38.7161 188.195 38.9441 187.207 38.9441C186.435 38.9441 185.77 38.7921 185.212 38.4881C184.668 38.1841 184.256 37.7724 183.977 37.2531C183.699 36.7211 183.502 36.1764 183.388 35.6191C183.274 35.0491 183.217 34.4347 183.217 33.7761C183.217 30.2421 184.465 28.4751 186.96 28.4751C188.696 28.4751 189.747 29.3554 190.114 31.1161L189.012 31.5531C188.658 30.2484 187.948 29.5961 186.884 29.5961C185.314 29.5961 184.528 30.9894 184.528 33.7761C184.528 35.0554 184.75 36.0561 185.193 36.7781C185.649 37.4874 186.34 37.8421 187.264 37.8421Z" fill="#BFD730"/>
<path d="M196.79 28.4751C198.298 28.4751 199.178 29.1337 199.431 30.4511C199.469 30.6664 199.488 31.0781 199.488 31.6861V38.7161H198.234V31.8571C198.234 31.4137 198.215 31.0717 198.177 30.8311C198.025 30.0331 197.443 29.6341 196.429 29.6341C195.505 29.6341 194.529 30.1217 193.503 31.0971V38.7161H192.23V25.0551H193.503V29.9381C194.58 28.9627 195.676 28.4751 196.79 28.4751Z" fill="#BFD730"/>
<path d="M202.941 29.9381L202.808 28.8171C203.631 28.5891 204.587 28.4751 205.677 28.4751C207.779 28.4751 208.831 29.5137 208.831 31.5911V36.9681C208.831 37.2721 208.881 37.4874 208.983 37.6141C209.097 37.7407 209.28 37.8041 209.534 37.8041C209.736 37.8041 210.009 37.7407 210.351 37.6141L210.465 38.6591C209.945 38.8237 209.527 38.9061 209.211 38.9061C208.767 38.9061 208.413 38.7921 208.147 38.5641C207.881 38.3234 207.729 38.0321 207.691 37.6901C206.779 38.5007 205.816 38.9061 204.803 38.9061C203.878 38.9061 203.175 38.6147 202.694 38.0321C202.212 37.4494 201.972 36.7084 201.972 35.8091C201.972 34.6311 202.307 33.7634 202.979 33.2061C203.663 32.6361 204.613 32.3511 205.829 32.3511C206.437 32.3511 207.019 32.4144 207.577 32.5411V31.8191C207.577 31.0337 207.406 30.4637 207.064 30.1091C206.722 29.7544 206.126 29.5771 205.278 29.5771C204.48 29.5771 203.701 29.6974 202.941 29.9381ZM207.577 36.6831L207.596 33.5291C207.038 33.3897 206.519 33.3201 206.038 33.3201C205.126 33.3201 204.442 33.5101 203.986 33.8901C203.542 34.2701 203.321 34.8971 203.321 35.7711C203.321 36.3537 203.466 36.8351 203.758 37.2151C204.062 37.5951 204.505 37.7851 205.088 37.7851C205.962 37.7851 206.791 37.4177 207.577 36.6831Z" fill="#BFD730"/>
<path d="M216.978 28.4751C218.485 28.4751 219.365 29.1337 219.619 30.4511C219.657 30.6664 219.676 31.0781 219.676 31.6861V38.7161H218.422V31.8571C218.422 31.4137 218.403 31.0717 218.365 30.8311C218.213 30.0331 217.63 29.6341 216.617 29.6341C215.692 29.6341 214.717 30.1217 213.691 31.0971V38.7161H212.418V28.6841H213.691V29.9381C214.767 28.9627 215.863 28.4751 216.978 28.4751Z" fill="#BFD730"/>
<path d="M226.89 29.7101H224.268V35.9041C224.268 36.3474 224.281 36.6894 224.306 36.9301C224.344 37.1581 224.446 37.3671 224.61 37.5571C224.775 37.7471 225.022 37.8421 225.351 37.8421C225.719 37.8421 226.194 37.7027 226.776 37.4241L226.909 38.4881C226.301 38.7921 225.706 38.9441 225.123 38.9441C223.717 38.9441 223.014 38.1144 223.014 36.4551V29.7101H221.722V28.6841H223.014V27.0501L224.268 26.3281V28.6841H226.89V29.7101Z" fill="#BFD730"/>
</svg>
