<svg width="59" height="15" viewBox="0 0 59 15" fill="none" xmlns="http://www.w3.org/2000/svg">
<path fill-rule="evenodd" clip-rule="evenodd" d="M7.05855 3.92075C9.30512 3.92068 11.1156 5.71342 11.1172 7.93972C11.1189 10.1541 9.30325 11.9602 7.07472 11.9612C4.82001 11.9622 3.00929 10.1674 3.01056 7.9327C3.0118 5.71379 4.82086 3.92084 7.05855 3.92075ZM8.87451 6.65599C8.96542 6.70718 9.01663 6.73428 9.06609 6.76419C9.14655 6.81283 9.21968 6.83478 9.28197 6.73532C9.34814 6.6297 9.28197 6.58767 9.20093 6.54208C8.38881 6.08546 7.52633 5.85102 6.58606 5.95204C5.99252 6.01583 5.44405 6.20825 4.93649 6.51712C4.86223 6.56233 4.76559 6.60303 4.84132 6.72204C4.91826 6.84296 4.99784 6.78434 5.08093 6.73158C5.127 6.70233 5.17658 6.67853 5.25377 6.63631C5.2229 6.71127 5.20641 6.75368 5.18818 6.7953C4.84501 7.57858 4.50187 8.36183 4.15817 9.14486C4.04041 9.41312 4.08438 9.55822 4.34031 9.71012C4.41677 9.75549 4.49949 9.79425 4.58402 9.82198C5.10663 9.99343 5.63395 9.98922 6.16282 9.85173C6.2861 9.81968 6.40166 9.76708 6.50941 9.69964C6.74162 9.55441 6.78428 9.405 6.67434 9.15484C6.305 8.31445 5.93966 7.47226 5.5659 6.63379C5.51467 6.51888 5.54602 6.48595 5.65116 6.44569C6.58861 6.08672 7.52058 6.10842 8.45371 6.46366C8.58163 6.51237 8.59027 6.56393 8.53849 6.68004C8.1796 7.48479 7.82763 8.29257 7.47332 9.09934C7.32799 9.43028 7.3859 9.59745 7.7156 9.75433C8.12429 9.94879 8.56041 9.97502 9.00316 9.93503C9.28403 9.90966 9.55824 9.85409 9.80166 9.70109C10.0349 9.55454 10.0799 9.40475 9.97078 9.1572C9.79515 8.75885 9.62034 8.36013 9.4456 7.9614C9.26097 7.53992 9.07676 7.11831 8.87451 6.65599Z" fill="#02A750"/>
<path fill-rule="evenodd" clip-rule="evenodd" d="M7.04896 14.937C5.02188 14.9099 3.29554 14.1784 1.90476 12.7178C0.78559 11.5425 0.163456 10.1323 0.0269895 8.51743C0.0146326 8.37129 0.0140926 8.2242 0.00106858 8.07812C-0.0059199 7.99986 0.0208269 7.98012 0.0973509 7.98194C0.303384 7.98689 0.509735 7.98704 0.715769 7.98153C0.814147 7.97892 0.794612 8.0417 0.796359 8.09651C0.813798 8.64937 0.893626 9.19348 1.05678 9.72226C1.36046 10.7066 1.87389 11.5698 2.6066 12.3021C3.41034 13.1054 4.36176 13.6614 5.46686 13.9446C6.64649 14.2469 7.82214 14.223 8.98458 13.847C10.4061 13.3873 11.526 12.5327 12.3349 11.2895C13.049 10.1919 13.3739 8.98387 13.3179 7.67628C13.2518 6.12864 12.6751 4.78755 11.6076 3.66936C10.5474 2.55889 9.23502 1.91825 7.69263 1.76427C6.41453 1.63667 5.20813 1.87452 4.07853 2.48251C3.99153 2.52935 3.93857 2.52926 3.88676 2.44001C3.79715 2.28568 3.70563 2.13189 3.60516 1.98439C3.54436 1.89517 3.56774 1.85403 3.65506 1.80589C4.18997 1.51103 4.75534 1.29096 5.34815 1.14649C6.44522 0.879143 7.54876 0.86548 8.65005 1.11794C10.0209 1.43219 11.1998 2.09298 12.1674 3.10536C13.3705 4.36412 14.0255 5.86387 14.1114 7.59899C14.1953 9.29315 13.7206 10.8263 12.6843 12.1715C11.5696 13.6185 10.0947 14.5057 8.2823 14.8328C7.87471 14.9064 7.46427 14.9368 7.04896 14.937Z" fill="#BAD333"/>
<path fill-rule="evenodd" clip-rule="evenodd" d="M7.07801 2.50323C9.09403 2.57079 10.6603 3.42956 11.7557 5.12077C11.8165 5.21461 11.806 5.2602 11.708 5.31347C11.5693 5.3889 11.4335 5.47258 11.3075 5.56712C11.1938 5.65244 11.1343 5.64621 11.0559 5.51685C10.6704 4.88093 10.1512 4.37356 9.51645 3.98044C7.77301 2.90066 5.43724 3.1126 3.92162 4.49688C2.83771 5.48687 2.32437 6.71891 2.38231 8.17723C2.46922 10.3669 4.20297 12.2647 6.3993 12.5305C8.39632 12.7721 9.95059 12.021 11.0579 10.36C11.1104 10.2813 11.1434 10.2611 11.2266 10.3204C11.3767 10.4274 11.5325 10.5275 11.6921 10.6201C11.787 10.6752 11.7787 10.7245 11.7261 10.805C10.8511 12.147 9.63141 12.9984 8.04254 13.2832C5.58393 13.7239 3.21499 12.5149 2.11189 10.2867C0.839604 7.71671 1.9071 4.48454 4.46787 3.14909C5.28397 2.72351 6.14933 2.49951 7.07801 2.50323Z" fill="#74BC46"/>
<path fill-rule="evenodd" clip-rule="evenodd" d="M8.87451 6.656C9.07676 7.11835 9.26097 7.53993 9.44563 7.96138C9.62037 8.36011 9.79518 8.75883 9.97081 9.15718C10.08 9.40473 10.035 9.55452 9.80169 9.70107C9.55827 9.85404 9.28406 9.90964 9.00319 9.93501C8.56044 9.975 8.12432 9.94877 7.71563 9.75431C7.38593 9.59746 7.32802 9.43026 7.47335 9.09931C7.82766 8.29255 8.17963 7.48477 8.53852 6.68002C8.5903 6.56391 8.58166 6.51235 8.45374 6.46364C7.52061 6.1084 6.58867 6.08667 5.65119 6.44567C5.54602 6.4859 5.5147 6.51883 5.56593 6.63377C5.93969 7.47224 6.305 8.31443 6.67437 9.15482C6.78428 9.40495 6.74165 9.55436 6.50944 9.69962C6.40169 9.76706 6.28613 9.81966 6.16285 9.85171C5.63398 9.98916 5.10663 9.99341 4.58405 9.82196C4.49949 9.79422 4.4168 9.7555 4.34034 9.7101C4.08441 9.5582 4.04044 9.4131 4.1582 9.14484C4.5019 8.36181 4.84504 7.57856 5.18821 6.79528C5.20644 6.75366 5.22293 6.71125 5.2538 6.63629C5.17661 6.67854 5.12703 6.70234 5.08096 6.73156C4.99783 6.78435 4.91829 6.84294 4.84135 6.72202C4.76562 6.60305 4.86226 6.56231 4.93653 6.5171C5.44408 6.20819 5.99255 6.01581 6.58609 5.95202C7.52636 5.851 8.38881 6.08544 9.20096 6.54207C9.282 6.58762 9.34817 6.62965 9.282 6.7353C9.21971 6.83476 9.14658 6.81281 9.06612 6.76417C9.01663 6.7343 8.96542 6.70716 8.87451 6.656ZM5.42633 6.89354C5.40498 6.91366 5.39415 6.91936 5.39031 6.92811C5.08456 7.62321 4.78047 8.31903 4.47288 9.01334C4.42675 9.11746 4.48345 9.11258 4.55623 9.11239C5.07392 9.11116 5.59164 9.11166 6.10936 9.1116C6.19767 9.1116 6.28598 9.1116 6.39798 9.1116C6.06857 8.35974 5.74878 7.62969 5.42633 6.89354ZM8.72182 6.89628C8.70038 6.9159 8.68444 6.92389 8.67894 6.93639C8.37624 7.62705 8.07532 8.31847 7.77136 9.00859C7.72978 9.10304 7.76875 9.11299 7.85084 9.11274C8.42141 9.11075 8.99199 9.1094 9.56251 9.11349C9.68627 9.11437 9.67562 9.07065 9.63617 8.9841C9.53201 8.75535 9.43535 8.52323 9.33459 8.293C9.13179 7.82961 8.92817 7.36657 8.72182 6.89628Z" fill="#F3FAF6"/>
<path fill-rule="evenodd" clip-rule="evenodd" d="M5.42633 6.89353C5.74882 7.62968 6.06857 8.3597 6.39795 9.11159C6.28595 9.11159 6.19764 9.11159 6.10933 9.11159C5.59164 9.11165 5.07392 9.11115 4.5562 9.11238C4.48342 9.11257 4.42672 9.11741 4.47285 9.01333C4.78043 8.31899 5.08453 7.6232 5.39028 6.9281C5.39412 6.91938 5.40495 6.91365 5.42633 6.89353Z" fill="#04A650"/>
<path fill-rule="evenodd" clip-rule="evenodd" d="M8.72182 6.89627C8.92817 7.36655 9.13176 7.8296 9.33458 8.29299C9.43535 8.52322 9.53201 8.75537 9.63617 8.98409C9.67559 9.07063 9.68623 9.11439 9.5625 9.11348C8.99199 9.10936 8.42141 9.11074 7.85083 9.11272C7.76875 9.11301 7.72977 9.10303 7.77135 9.00858C8.07532 8.31846 8.37624 7.62704 8.67894 6.93638C8.68443 6.92388 8.70038 6.91588 8.72182 6.89627Z" fill="#04A650"/>
<path d="M16.8234 8.6162V10.0911H16.1019V6.07425H17.5224C17.9508 6.07425 18.2834 6.17295 18.5201 6.37035C18.7569 6.56774 18.8753 6.85453 18.8753 7.2307C18.8753 7.65156 18.7456 7.98863 18.4863 8.24189C18.2308 8.49143 17.885 8.6162 17.4491 8.6162H16.8234ZM16.8234 8.06312H17.3702C17.622 8.06312 17.8118 7.99794 17.9395 7.86758C18.0711 7.7335 18.1368 7.53983 18.1368 7.28657C18.1368 6.84336 17.9001 6.62175 17.4266 6.62175H16.8234V8.06312Z" fill="#004D43"/>
<path d="M21.4191 8.72235H19.8125C19.8163 9.00168 19.8802 9.21584 20.0042 9.36482C20.1282 9.51007 20.2992 9.5827 20.5171 9.5827C20.784 9.5827 21.0527 9.50821 21.3232 9.35923L21.3627 9.94584C21.1071 10.0836 20.8009 10.1525 20.4439 10.1525C19.5457 10.1525 19.0966 9.62553 19.0966 8.57151C19.0966 8.05753 19.2075 7.67764 19.4292 7.43182C19.6547 7.18228 19.9497 7.05751 20.3142 7.05751C21.0508 7.05751 21.4191 7.52307 21.4191 8.45419V8.72235ZM20.7539 8.28659C20.7539 7.80985 20.6036 7.57149 20.3029 7.57149C20.1413 7.57149 20.0192 7.63853 19.9365 7.77261C19.8576 7.90669 19.8182 8.07802 19.8182 8.28659H20.7539Z" fill="#004D43"/>
<path d="M23.6584 7.30333L23.6866 7.11338H24.3179V10.0464C24.3179 10.9105 23.9158 11.3425 23.1116 11.3425C22.7095 11.3425 22.3581 11.2699 22.0575 11.1246L22.1646 10.5157C22.2811 10.5864 22.422 10.6442 22.5874 10.6889C22.7565 10.7373 22.9124 10.7615 23.0552 10.7615C23.4423 10.7615 23.6359 10.512 23.6359 10.0129V9.8341C23.4517 10.0315 23.215 10.1302 22.9256 10.1302C22.5986 10.1302 22.3375 10.0054 22.1421 9.75589C21.9504 9.50262 21.8546 9.12645 21.8546 8.62737C21.8546 8.35176 21.8903 8.10036 21.9617 7.87317C22.0368 7.64598 22.1608 7.45417 22.3337 7.29774C22.5103 7.13759 22.7245 7.05751 22.9763 7.05751C23.2281 7.05751 23.4555 7.13945 23.6584 7.30333ZM23.6133 9.34806V7.78937C23.4367 7.66274 23.2788 7.59942 23.1398 7.59942C22.7715 7.59942 22.5874 7.9458 22.5874 8.63855C22.5874 9.26426 22.7659 9.57711 23.1229 9.57711C23.2958 9.57711 23.4592 9.50076 23.6133 9.34806Z" fill="#004D43"/>
<path d="M25.2249 7.71116L25.1404 7.19159C25.4109 7.10221 25.721 7.05751 26.0705 7.05751C26.4839 7.05751 26.777 7.15062 26.9498 7.33685C27.1227 7.51935 27.2091 7.85455 27.2091 8.34245V9.39275C27.2091 9.54918 27.2655 9.62739 27.3783 9.62739C27.4309 9.62739 27.491 9.61436 27.5586 9.58829L27.6094 10.0576C27.4666 10.1172 27.3069 10.147 27.1302 10.147C26.8597 10.147 26.6943 10.0334 26.6342 9.80617C26.3899 10.0334 26.1062 10.147 25.783 10.147C25.4936 10.147 25.2719 10.0594 25.1178 9.88438C24.9675 9.70933 24.8923 9.48586 24.8923 9.21398C24.8923 8.52495 25.2794 8.18044 26.0536 8.18044C26.2076 8.18044 26.3674 8.19906 26.5327 8.23631V8.10781C26.5327 7.76144 26.3354 7.58825 25.9408 7.58825C25.7266 7.58825 25.488 7.62922 25.2249 7.71116ZM26.5327 9.36482V8.67766C26.4049 8.63296 26.2847 8.61062 26.1719 8.61062C25.7849 8.61062 25.5913 8.79125 25.5913 9.15252C25.5913 9.29778 25.6251 9.41324 25.6928 9.4989C25.7604 9.58084 25.86 9.62181 25.9916 9.62181C26.1945 9.62181 26.3749 9.53614 26.5327 9.36482Z" fill="#004D43"/>
<path d="M29.6191 7.24746V6.07425H30.3238V10.0911H29.6924L29.6699 9.82852C29.4632 10.0408 29.217 10.147 28.9314 10.147C28.6045 10.147 28.3433 10.0185 28.1479 9.76148C27.9562 9.50449 27.8604 9.12645 27.8604 8.62737C27.8604 8.35176 27.898 8.10036 27.9731 7.87317C28.0483 7.64225 28.1742 7.44858 28.3508 7.29215C28.5274 7.13573 28.7454 7.05751 29.0047 7.05751C29.2302 7.05751 29.435 7.12083 29.6191 7.24746ZM29.6248 9.37041V7.7782C29.4482 7.65156 29.2922 7.58825 29.1569 7.58825C28.7811 7.58825 28.5932 7.93835 28.5932 8.63855C28.5932 8.9514 28.6402 9.18977 28.7341 9.35365C28.8281 9.51752 28.9615 9.59946 29.1344 9.59946C29.3072 9.59946 29.4707 9.52311 29.6248 9.37041Z" fill="#004D43"/>
<path d="M31.2308 7.71116L31.1462 7.19159C31.4168 7.10221 31.7268 7.05751 32.0763 7.05751C32.4897 7.05751 32.7828 7.15062 32.9557 7.33685C33.1286 7.51935 33.215 7.85455 33.215 8.34245V9.39275C33.215 9.54918 33.2714 9.62739 33.3841 9.62739C33.4367 9.62739 33.4968 9.61436 33.5645 9.58829L33.6152 10.0576C33.4724 10.1172 33.3127 10.147 33.1361 10.147C32.8655 10.147 32.7001 10.0334 32.64 9.80617C32.3957 10.0334 32.112 10.147 31.7888 10.147C31.4995 10.147 31.2777 10.0594 31.1237 9.88438C30.9733 9.70933 30.8982 9.48586 30.8982 9.21398C30.8982 8.52495 31.2852 8.18044 32.0594 8.18044C32.2135 8.18044 32.3732 8.19906 32.5385 8.23631V8.10781C32.5385 7.76144 32.3412 7.58825 31.9467 7.58825C31.7325 7.58825 31.4938 7.62922 31.2308 7.71116ZM32.5385 9.36482V8.67766C32.4108 8.63296 32.2905 8.61062 32.1778 8.61062C31.7907 8.61062 31.5972 8.79125 31.5972 9.15252C31.5972 9.29778 31.631 9.41324 31.6986 9.4989C31.7663 9.58084 31.8659 9.62181 31.9974 9.62181C32.2003 9.62181 32.3807 9.53614 32.5385 9.36482Z" fill="#004D43"/>
<path d="M34.0735 7.11338H34.7781V10.0911H34.0735V7.11338ZM34.0171 6.33683C34.0171 6.2102 34.0547 6.1115 34.1299 6.04073C34.205 5.96997 34.3027 5.93459 34.423 5.93459C34.5545 5.93459 34.656 5.96997 34.7274 6.04073C34.7988 6.10777 34.8345 6.20647 34.8345 6.33683C34.8345 6.46718 34.795 6.56774 34.7161 6.63851C34.6409 6.70555 34.5432 6.73907 34.423 6.73907C34.299 6.73907 34.1994 6.70369 34.1242 6.63292C34.0528 6.55843 34.0171 6.45974 34.0171 6.33683Z" fill="#004D43"/>
<path d="M35.6842 7.71116L35.5997 7.19159C35.8702 7.10221 36.1803 7.05751 36.5298 7.05751C36.9431 7.05751 37.2363 7.15062 37.4091 7.33685C37.582 7.51935 37.6684 7.85455 37.6684 8.34245V9.39275C37.6684 9.54918 37.7248 9.62739 37.8375 9.62739C37.8902 9.62739 37.9503 9.61436 38.0179 9.58829L38.0687 10.0576C37.9259 10.1172 37.7661 10.147 37.5895 10.147C37.3189 10.147 37.1536 10.0334 37.0935 9.80617C36.8492 10.0334 36.5655 10.147 36.2423 10.147C35.9529 10.147 35.7312 10.0594 35.5771 9.88438C35.4268 9.70933 35.3516 9.48586 35.3516 9.21398C35.3516 8.52495 35.7387 8.18044 36.5129 8.18044C36.6669 8.18044 36.8266 8.19906 36.992 8.23631V8.10781C36.992 7.76144 36.7947 7.58825 36.4001 7.58825C36.1859 7.58825 35.9473 7.62922 35.6842 7.71116ZM36.992 9.36482V8.67766C36.8642 8.63296 36.744 8.61062 36.6312 8.61062C36.2442 8.61062 36.0506 8.79125 36.0506 9.15252C36.0506 9.29778 36.0844 9.41324 36.1521 9.4989C36.2197 9.58084 36.3193 9.62181 36.4508 9.62181C36.6538 9.62181 36.8342 9.53614 36.992 9.36482Z" fill="#004D43"/>
<path d="M39.1696 7.11338L39.1921 7.40947C39.4627 7.17483 39.7596 7.05751 40.0828 7.05751C40.5675 7.05751 40.8419 7.26422 40.9058 7.67764C40.9208 7.77075 40.9283 7.89552 40.9283 8.05194V10.0911H40.2237V8.14133C40.2237 8.02587 40.2218 7.94952 40.218 7.91228C40.1955 7.72978 40.0715 7.63853 39.846 7.63853C39.6506 7.63853 39.4476 7.73164 39.2372 7.91786V10.0911H38.5269V7.11338H39.1696Z" fill="#004D43"/>
<path d="M43.0703 10.0911V6.07425H44.3668C44.8742 6.07425 45.2706 6.21392 45.5562 6.49326C45.8419 6.77259 45.9847 7.24374 45.9847 7.90669C45.9847 8.24934 45.9527 8.55102 45.8888 8.81174C45.8287 9.06872 45.746 9.27729 45.6408 9.43745C45.5393 9.5976 45.4116 9.72795 45.2575 9.82852C45.1034 9.92908 44.9437 9.99798 44.7783 10.0352C44.613 10.0725 44.427 10.0911 44.2203 10.0911H43.0703ZM43.7919 6.61616V9.54918H44.2654C44.5923 9.54918 44.8328 9.42814 44.9869 9.18604C45.1447 8.94395 45.2237 8.5473 45.2237 7.99608C45.2237 7.50072 45.1523 7.1469 45.0095 6.93461C44.8666 6.72231 44.643 6.61616 44.3386 6.61616H43.7919Z" fill="#004D43"/>
<path d="M46.6356 7.11338H47.3403V10.0911H46.6356V7.11338ZM46.5793 6.33683C46.5793 6.2102 46.6168 6.1115 46.692 6.04073C46.7672 5.96997 46.8649 5.93459 46.9851 5.93459C47.1167 5.93459 47.2181 5.96997 47.2895 6.04073C47.3609 6.10777 47.3966 6.20647 47.3966 6.33683C47.3966 6.46718 47.3572 6.56774 47.2783 6.63851C47.2031 6.70555 47.1054 6.73907 46.9851 6.73907C46.8611 6.73907 46.7615 6.70369 46.6864 6.63292C46.615 6.55843 46.5793 6.45974 46.5793 6.33683Z" fill="#004D43"/>
<path d="M49.7571 7.30333L49.7853 7.11338H50.4166V10.0464C50.4166 10.9105 50.0145 11.3425 49.2103 11.3425C48.8082 11.3425 48.4568 11.2699 48.1562 11.1246L48.2633 10.5157C48.3798 10.5864 48.5207 10.6442 48.6861 10.6889C48.8552 10.7373 49.0111 10.7615 49.1539 10.7615C49.541 10.7615 49.7345 10.512 49.7345 10.0129V9.8341C49.5504 10.0315 49.3136 10.1302 49.0243 10.1302C48.6973 10.1302 48.4361 10.0054 48.2407 9.75589C48.0491 9.50262 47.9532 9.12645 47.9532 8.62737C47.9532 8.35176 47.9889 8.10036 48.0603 7.87317C48.1355 7.64598 48.2595 7.45417 48.4324 7.29774C48.609 7.13759 48.8232 7.05751 49.075 7.05751C49.3268 7.05751 49.5542 7.13945 49.7571 7.30333ZM49.712 9.34806V7.78937C49.5354 7.66274 49.3775 7.59942 49.2385 7.59942C48.8702 7.59942 48.6861 7.9458 48.6861 8.63855C48.6861 9.26426 48.8646 9.57711 49.2216 9.57711C49.3944 9.57711 49.5579 9.50076 49.712 9.34806Z" fill="#004D43"/>
<path d="M51.1827 7.11338H51.8873V10.0911H51.1827V7.11338ZM51.1263 6.33683C51.1263 6.2102 51.1639 6.1115 51.239 6.04073C51.3142 5.96997 51.4119 5.93459 51.5322 5.93459C51.6637 5.93459 51.7652 5.96997 51.8366 6.04073C51.908 6.10777 51.9437 6.20647 51.9437 6.33683C51.9437 6.46718 51.9042 6.56774 51.8253 6.63851C51.7501 6.70555 51.6524 6.73907 51.5322 6.73907C51.4082 6.73907 51.3086 6.70369 51.2334 6.63292C51.162 6.55843 51.1263 6.45974 51.1263 6.33683Z" fill="#004D43"/>
<path d="M54.0899 7.61618H53.4135V9.14135C53.4135 9.23074 53.4172 9.30337 53.4248 9.35923C53.436 9.4151 53.4623 9.46538 53.5037 9.51007C53.5488 9.55477 53.6108 9.57711 53.6897 9.57711C53.7912 9.57711 53.9189 9.54173 54.073 9.47097L54.1519 10.0073C53.9452 10.1041 53.7235 10.1525 53.4868 10.1525C52.9644 10.1525 52.7032 9.88066 52.7032 9.33689V7.61618H52.3143V7.11338H52.7032V6.61616L53.4135 6.27537V7.11338H54.0899V7.61618Z" fill="#004D43"/>
<path d="M54.7862 7.71116L54.7016 7.19159C54.9722 7.10221 55.2822 7.05751 55.6317 7.05751C56.0451 7.05751 56.3382 7.15062 56.5111 7.33685C56.684 7.51935 56.7704 7.85455 56.7704 8.34245V9.39275C56.7704 9.54918 56.8268 9.62739 56.9395 9.62739C56.9921 9.62739 57.0523 9.61436 57.1199 9.58829L57.1706 10.0576C57.0278 10.1172 56.8681 10.147 56.6915 10.147C56.4209 10.147 56.2556 10.0334 56.1954 9.80617C55.9512 10.0334 55.6674 10.147 55.3442 10.147C55.0549 10.147 54.8332 10.0594 54.6791 9.88438C54.5288 9.70933 54.4536 9.48586 54.4536 9.21398C54.4536 8.52495 54.8407 8.18044 55.6148 8.18044C55.7689 8.18044 55.9286 8.19906 56.094 8.23631V8.10781C56.094 7.76144 55.8967 7.58825 55.5021 7.58825C55.2879 7.58825 55.0492 7.62922 54.7862 7.71116ZM56.094 9.36482V8.67766C55.9662 8.63296 55.8459 8.61062 55.7332 8.61062C55.3461 8.61062 55.1526 8.79125 55.1526 9.15252C55.1526 9.29778 55.1864 9.41324 55.2541 9.4989C55.3217 9.58084 55.4213 9.62181 55.5528 9.62181C55.7557 9.62181 55.9361 9.53614 56.094 9.36482Z" fill="#004D43"/>
<path d="M57.5457 9.29219V6.07425H58.2503V9.19163C58.2503 9.32571 58.271 9.42255 58.3123 9.48214C58.3574 9.54173 58.4307 9.57153 58.5321 9.57153C58.6486 9.57153 58.7764 9.53801 58.9155 9.47097L59 10.0073C58.7971 10.1041 58.5754 10.1525 58.3349 10.1525C58.0417 10.1525 57.8369 10.0799 57.7204 9.93466C57.6039 9.78568 57.5457 9.57153 57.5457 9.29219Z" fill="#004D43"/>
</svg>
