<svg width="240" height="48" viewBox="0 0 240 48" fill="none" xmlns="http://www.w3.org/2000/svg">
<path d="M2.792 10.7174V14.4134H1V4.34744H4.528C5.592 4.34744 6.418 4.59477 7.006 5.08944C7.594 5.5841 7.888 6.30277 7.888 7.24544C7.888 8.3001 7.566 9.14477 6.922 9.77944C6.28733 10.4048 5.42867 10.7174 4.346 10.7174H2.792ZM2.792 9.33144H4.15C4.77533 9.33144 5.24667 9.1681 5.564 8.84144C5.89067 8.50544 6.054 8.0201 6.054 7.38544C6.054 6.27477 5.466 5.71944 4.29 5.71944H2.792V9.33144Z" fill="#004D43"/>
<path d="M14.1077 10.9834H10.1177C10.1271 11.6834 10.2857 12.2201 10.5937 12.5934C10.9017 12.9574 11.3264 13.1394 11.8677 13.1394C12.5304 13.1394 13.1977 12.9528 13.8697 12.5794L13.9677 14.0494C13.3331 14.3948 12.5724 14.5674 11.6857 14.5674C9.45505 14.5674 8.33972 13.2468 8.33972 10.6054C8.33972 9.31744 8.61505 8.36544 9.16572 7.74944C9.72572 7.1241 10.4584 6.81144 11.3637 6.81144C13.1931 6.81144 14.1077 7.9781 14.1077 10.3114V10.9834ZM12.4557 9.89144C12.4557 8.69677 12.0824 8.09944 11.3357 8.09944C10.9344 8.09944 10.6311 8.26744 10.4257 8.60344C10.2297 8.93944 10.1317 9.36877 10.1317 9.89144H12.4557Z" fill="#004D43"/>
<path d="M19.5713 7.42744L19.6413 6.95144H21.2093V14.3014C21.2093 16.4668 20.2107 17.5494 18.2133 17.5494C17.2147 17.5494 16.342 17.3674 15.5953 17.0034L15.8613 15.4774C16.1507 15.6548 16.5007 15.7994 16.9113 15.9114C17.3313 16.0328 17.7187 16.0934 18.0733 16.0934C19.0347 16.0934 19.5153 15.4681 19.5153 14.2174V13.7694C19.058 14.2641 18.47 14.5114 17.7513 14.5114C16.9393 14.5114 16.2907 14.1988 15.8053 13.5734C15.3293 12.9388 15.0913 11.9961 15.0913 10.7454C15.0913 10.0548 15.18 9.42477 15.3573 8.85544C15.544 8.2861 15.852 7.80544 16.2813 7.41344C16.72 7.0121 17.252 6.81144 17.8773 6.81144C18.5027 6.81144 19.0673 7.01677 19.5713 7.42744ZM19.4593 12.5514V8.64544C19.0207 8.3281 18.6287 8.16944 18.2833 8.16944C17.3687 8.16944 16.9113 9.03744 16.9113 10.7734C16.9113 12.3414 17.3547 13.1254 18.2413 13.1254C18.6707 13.1254 19.0767 12.9341 19.4593 12.5514Z" fill="#004D43"/>
<path d="M23.3639 8.44944L23.1539 7.14744C23.8259 6.92344 24.5959 6.81144 25.4639 6.81144C26.4906 6.81144 27.2186 7.04477 27.6479 7.51144C28.0772 7.96877 28.2919 8.80877 28.2919 10.0314V12.6634C28.2919 13.0554 28.4319 13.2514 28.7119 13.2514C28.8426 13.2514 28.9919 13.2188 29.1599 13.1534L29.2859 14.3294C28.9312 14.4788 28.5346 14.5534 28.0959 14.5534C27.4239 14.5534 27.0132 14.2688 26.8639 13.6994C26.2572 14.2688 25.5526 14.5534 24.7499 14.5534C24.0312 14.5534 23.4806 14.3341 23.0979 13.8954C22.7246 13.4568 22.5379 12.8968 22.5379 12.2154C22.5379 10.4888 23.4992 9.62544 25.4219 9.62544C25.8046 9.62544 26.2012 9.6721 26.6119 9.76544V9.44344C26.6119 8.57544 26.1219 8.14144 25.1419 8.14144C24.6099 8.14144 24.0172 8.2441 23.3639 8.44944ZM26.6119 12.5934V10.8714C26.2946 10.7594 25.9959 10.7034 25.7159 10.7034C24.7546 10.7034 24.2739 11.1561 24.2739 12.0614C24.2739 12.4254 24.3579 12.7148 24.5259 12.9294C24.6939 13.1348 24.9412 13.2374 25.2679 13.2374C25.7719 13.2374 26.2199 13.0228 26.6119 12.5934Z" fill="#004D43"/>
<path d="M34.1793 7.28744V4.34744H35.9293V14.4134H34.3613L34.3053 13.7554C33.792 14.2874 33.1807 14.5534 32.4713 14.5534C31.6593 14.5534 31.0107 14.2314 30.5253 13.5874C30.0493 12.9434 29.8113 11.9961 29.8113 10.7454C29.8113 10.0548 29.9047 9.42477 30.0913 8.85544C30.278 8.27677 30.5907 7.79144 31.0293 7.39944C31.468 7.00744 32.0093 6.81144 32.6533 6.81144C33.2133 6.81144 33.722 6.9701 34.1793 7.28744ZM34.1933 12.6074V8.61744C33.7547 8.3001 33.3673 8.14144 33.0313 8.14144C32.098 8.14144 31.6313 9.01877 31.6313 10.7734C31.6313 11.5574 31.748 12.1548 31.9813 12.5654C32.2147 12.9761 32.546 13.1814 32.9753 13.1814C33.4047 13.1814 33.8107 12.9901 34.1933 12.6074Z" fill="#004D43"/>
<path d="M38.0839 8.44944L37.8739 7.14744C38.5459 6.92344 39.3159 6.81144 40.1839 6.81144C41.2106 6.81144 41.9386 7.04477 42.3679 7.51144C42.7973 7.96877 43.0119 8.80877 43.0119 10.0314V12.6634C43.0119 13.0554 43.1519 13.2514 43.4319 13.2514C43.5626 13.2514 43.7119 13.2188 43.8799 13.1534L44.0059 14.3294C43.6513 14.4788 43.2546 14.5534 42.8159 14.5534C42.1439 14.5534 41.7333 14.2688 41.5839 13.6994C40.9773 14.2688 40.2726 14.5534 39.4699 14.5534C38.7513 14.5534 38.2006 14.3341 37.8179 13.8954C37.4446 13.4568 37.2579 12.8968 37.2579 12.2154C37.2579 10.4888 38.2193 9.62544 40.1419 9.62544C40.5246 9.62544 40.9213 9.6721 41.3319 9.76544V9.44344C41.3319 8.57544 40.8419 8.14144 39.8619 8.14144C39.3299 8.14144 38.7373 8.2441 38.0839 8.44944ZM41.3319 12.5934V10.8714C41.0146 10.7594 40.7159 10.7034 40.4359 10.7034C39.4746 10.7034 38.9939 11.1561 38.9939 12.0614C38.9939 12.4254 39.0779 12.7148 39.2459 12.9294C39.4139 13.1348 39.6613 13.2374 39.9879 13.2374C40.4919 13.2374 40.9399 13.0228 41.3319 12.5934Z" fill="#004D43"/>
<path d="M45.0461 6.95144H46.7961V14.4134H45.0461V6.95144ZM44.9061 5.00544C44.9061 4.6881 44.9994 4.44077 45.1861 4.26344C45.3727 4.0861 45.6154 3.99744 45.9141 3.99744C46.2407 3.99744 46.4927 4.0861 46.6701 4.26344C46.8474 4.43144 46.9361 4.67877 46.9361 5.00544C46.9361 5.3321 46.8381 5.5841 46.6421 5.76144C46.4554 5.92944 46.2127 6.01344 45.9141 6.01344C45.6061 6.01344 45.3587 5.92477 45.1721 5.74744C44.9947 5.56077 44.9061 5.31344 44.9061 5.00544Z" fill="#004D43"/>
<path d="M48.9485 8.44944L48.7385 7.14744C49.4105 6.92344 50.1805 6.81144 51.0485 6.81144C52.0751 6.81144 52.8031 7.04477 53.2325 7.51144C53.6618 7.96877 53.8765 8.80877 53.8765 10.0314V12.6634C53.8765 13.0554 54.0165 13.2514 54.2965 13.2514C54.4271 13.2514 54.5765 13.2188 54.7445 13.1534L54.8705 14.3294C54.5158 14.4788 54.1191 14.5534 53.6805 14.5534C53.0085 14.5534 52.5978 14.2688 52.4485 13.6994C51.8418 14.2688 51.1371 14.5534 50.3345 14.5534C49.6158 14.5534 49.0651 14.3341 48.6825 13.8954C48.3091 13.4568 48.1225 12.8968 48.1225 12.2154C48.1225 10.4888 49.0838 9.62544 51.0065 9.62544C51.3891 9.62544 51.7858 9.6721 52.1965 9.76544V9.44344C52.1965 8.57544 51.7065 8.14144 50.7265 8.14144C50.1945 8.14144 49.6018 8.2441 48.9485 8.44944ZM52.1965 12.5934V10.8714C51.8791 10.7594 51.5805 10.7034 51.3005 10.7034C50.3391 10.7034 49.8585 11.1561 49.8585 12.0614C49.8585 12.4254 49.9425 12.7148 50.1105 12.9294C50.2785 13.1348 50.5258 13.2374 50.8525 13.2374C51.3565 13.2374 51.8045 13.0228 52.1965 12.5934Z" fill="#004D43"/>
<path d="M57.5066 6.95144L57.5626 7.69344C58.2346 7.10544 58.972 6.81144 59.7746 6.81144C60.9786 6.81144 61.66 7.32944 61.8186 8.36544C61.856 8.59877 61.8746 8.91144 61.8746 9.30344V14.4134H60.1246V9.52744C60.1246 9.2381 60.12 9.04677 60.1106 8.95344C60.0546 8.4961 59.7466 8.26744 59.1866 8.26744C58.7013 8.26744 58.1973 8.50077 57.6746 8.96744V14.4134H55.9106V6.95144H57.5066Z" fill="#004D43"/>
<path d="M8.35398 31.7454V29.2494H14.958V37.7774C13.138 38.6441 11.1966 39.0774 9.13398 39.0774C6.37798 39.0774 4.34998 38.2714 3.04998 36.6594C1.76731 35.0474 1.12598 32.5081 1.12598 29.0414C1.12598 26.1641 1.72398 23.8761 2.91998 22.1774C4.13331 20.4787 5.99664 19.6294 8.50998 19.6294C10.3646 19.6294 11.7773 20.0627 12.748 20.9294C13.7186 21.7787 14.3686 23.0007 14.698 24.5954L11.604 25.3494C11.3093 24.2921 10.928 23.5207 10.46 23.0354C10.0093 22.5327 9.32464 22.2814 8.40598 22.2814C5.87531 22.2814 4.60998 24.5001 4.60998 28.9374C4.60998 30.1334 4.67064 31.1561 4.79198 32.0054C4.91331 32.8547 5.13864 33.6347 5.46798 34.3454C5.79731 35.0387 6.26531 35.5674 6.87198 35.9314C7.49598 36.2781 8.26731 36.4514 9.18598 36.4514C10.122 36.4514 10.9626 36.2954 11.708 35.9834V31.7454H8.35398Z" fill="#BFD730"/>
<path d="M18.5405 27.6374L18.1505 25.2194C19.3985 24.8034 20.8285 24.5954 22.4405 24.5954C24.3472 24.5954 25.6992 25.0287 26.4965 25.8954C27.2938 26.7447 27.6925 28.3047 27.6925 30.5754V35.4634C27.6925 36.1914 27.9525 36.5554 28.4725 36.5554C28.7152 36.5554 28.9925 36.4947 29.3045 36.3734L29.5385 38.5574C28.8798 38.8347 28.1432 38.9734 27.3285 38.9734C26.0805 38.9734 25.3178 38.4447 25.0405 37.3874C23.9138 38.4447 22.6052 38.9734 21.1145 38.9734C19.7798 38.9734 18.7572 38.5661 18.0465 37.7514C17.3532 36.9367 17.0065 35.8967 17.0065 34.6314C17.0065 31.4247 18.7918 29.8214 22.3625 29.8214C23.0732 29.8214 23.8098 29.9081 24.5725 30.0814V29.4834C24.5725 27.8714 23.6625 27.0654 21.8425 27.0654C20.8545 27.0654 19.7538 27.2561 18.5405 27.6374ZM24.5725 35.3334V32.1354C23.9832 31.9274 23.4285 31.8234 22.9085 31.8234C21.1232 31.8234 20.2305 32.6641 20.2305 34.3454C20.2305 35.0214 20.3865 35.5587 20.6985 35.9574C21.0105 36.3387 21.4698 36.5294 22.0765 36.5294C23.0125 36.5294 23.8445 36.1307 24.5725 35.3334Z" fill="#BFD730"/>
<path d="M38.6003 25.4794V20.0194H41.8503V38.7134H38.9383L38.8343 37.4914C37.881 38.4794 36.7456 38.9734 35.4283 38.9734C33.9203 38.9734 32.7156 38.3754 31.8143 37.1794C30.9303 35.9834 30.4883 34.2241 30.4883 31.9014C30.4883 30.6187 30.6616 29.4487 31.0083 28.3914C31.355 27.3167 31.9356 26.4154 32.7503 25.6874C33.565 24.9594 34.5703 24.5954 35.7663 24.5954C36.8063 24.5954 37.751 24.8901 38.6003 25.4794ZM38.6263 35.3594V27.9494C37.8116 27.3601 37.0923 27.0654 36.4683 27.0654C34.735 27.0654 33.8683 28.6947 33.8683 31.9534C33.8683 33.4094 34.085 34.5187 34.5183 35.2814C34.9516 36.0441 35.567 36.4254 36.3643 36.4254C37.1616 36.4254 37.9156 36.0701 38.6263 35.3594Z" fill="#BFD730"/>
<path d="M45.8257 27.6374L45.4357 25.2194C46.6837 24.8034 48.1137 24.5954 49.7257 24.5954C51.6323 24.5954 52.9843 25.0287 53.7817 25.8954C54.579 26.7447 54.9777 28.3047 54.9777 30.5754V35.4634C54.9777 36.1914 55.2377 36.5554 55.7577 36.5554C56.0003 36.5554 56.2777 36.4947 56.5897 36.3734L56.8237 38.5574C56.165 38.8347 55.4283 38.9734 54.6137 38.9734C53.3657 38.9734 52.603 38.4447 52.3257 37.3874C51.199 38.4447 49.8903 38.9734 48.3997 38.9734C47.065 38.9734 46.0423 38.5661 45.3317 37.7514C44.6383 36.9367 44.2917 35.8967 44.2917 34.6314C44.2917 31.4247 46.077 29.8214 49.6477 29.8214C50.3583 29.8214 51.095 29.9081 51.8577 30.0814V29.4834C51.8577 27.8714 50.9477 27.0654 49.1277 27.0654C48.1397 27.0654 47.039 27.2561 45.8257 27.6374ZM51.8577 35.3334V32.1354C51.2683 31.9274 50.7137 31.8234 50.1937 31.8234C48.4083 31.8234 47.5157 32.6641 47.5157 34.3454C47.5157 35.0214 47.6717 35.5587 47.9837 35.9574C48.2957 36.3387 48.755 36.5294 49.3617 36.5294C50.2977 36.5294 51.1297 36.1307 51.8577 35.3334Z" fill="#BFD730"/>
<path d="M58.7294 24.8554H61.9794V38.7134H58.7294V24.8554ZM58.4694 21.2414C58.4694 20.6521 58.6427 20.1927 58.9894 19.8634C59.3361 19.5341 59.7867 19.3694 60.3414 19.3694C60.9481 19.3694 61.416 19.5341 61.7454 19.8634C62.0747 20.1754 62.2394 20.6347 62.2394 21.2414C62.2394 21.8481 62.0574 22.3161 61.6934 22.6454C61.3467 22.9574 60.896 23.1134 60.3414 23.1134C59.7694 23.1134 59.3101 22.9487 58.9634 22.6194C58.634 22.2727 58.4694 21.8134 58.4694 21.2414Z" fill="#BFD730"/>
<path d="M76.112 25.0524L72.597 31.5124L76.397 38.7134H74.915L71.457 32.1964H69.044V38.7134H67.733V25.0334H69.044V31.0184H71.514L74.744 25.0524H76.112Z" fill="#BFD730"/>
<path d="M84.5606 33.8304H78.7656C78.7656 36.4904 79.7156 37.8204 81.6156 37.8204C82.4896 37.8204 83.3826 37.5798 84.2946 37.0984L84.4086 38.2384C83.5599 38.7071 82.5783 38.9414 81.4636 38.9414C78.7909 38.9414 77.4546 37.1618 77.4546 33.6024C77.4546 31.8418 77.7903 30.5498 78.4616 29.7264C79.1329 28.8904 80.0576 28.4724 81.2356 28.4724C82.3883 28.4724 83.2306 28.8714 83.7626 29.6694C84.2946 30.4548 84.5606 31.6201 84.5606 33.1654V33.8304ZM83.2496 32.8234C83.2496 31.7594 83.0659 30.9551 82.6986 30.4104C82.3439 29.8531 81.8309 29.5744 81.1596 29.5744C80.3869 29.5744 79.7979 29.9038 79.3926 30.5624C78.9873 31.2084 78.7846 31.9621 78.7846 32.8234H83.2496Z" fill="#BFD730"/>
<path d="M91.6954 28.4724C93.2027 28.4724 94.0831 29.1311 94.3364 30.4484C94.3744 30.6638 94.3934 31.0754 94.3934 31.6834V38.7134H93.1394V31.8544C93.1394 31.4111 93.1204 31.0691 93.0824 30.8284C92.9304 30.0304 92.3477 29.6314 91.3344 29.6314C90.4097 29.6314 89.4344 30.1191 88.4084 31.0944V38.7134H87.1354V28.6814H88.4084V29.9354C89.4851 28.9601 90.5807 28.4724 91.6954 28.4724Z" fill="#BFD730"/>
<path d="M100.753 28.4724C101.475 28.4724 102.267 28.7638 103.128 29.3464V25.0524H104.401V38.7134H103.204V37.6684C102.355 38.4918 101.456 38.9034 100.506 38.9034C99.4546 38.9034 98.6186 38.4791 97.9979 37.6304C97.3772 36.7818 97.0669 35.5214 97.0669 33.8494C97.0669 33.1781 97.1302 32.5448 97.2569 31.9494C97.3962 31.3414 97.5989 30.7714 97.8649 30.2394C98.1436 29.6948 98.5299 29.2641 99.0239 28.9474C99.5179 28.6308 100.094 28.4724 100.753 28.4724ZM98.3969 33.9254C98.3969 35.1541 98.6122 36.1041 99.0429 36.7754C99.4736 37.4468 100.037 37.7824 100.734 37.7824C101.608 37.7824 102.412 37.3518 103.147 36.4904V30.6004C102.298 29.9418 101.538 29.6124 100.867 29.6124C99.2202 29.6124 98.3969 31.0501 98.3969 33.9254Z" fill="#BFD730"/>
<path d="M107.865 29.9354L107.732 28.8144C108.556 28.5864 109.512 28.4724 110.601 28.4724C112.704 28.4724 113.755 29.5111 113.755 31.5884V36.9654C113.755 37.2694 113.806 37.4848 113.907 37.6114C114.021 37.7381 114.205 37.8014 114.458 37.8014C114.661 37.8014 114.933 37.7381 115.275 37.6114L115.389 38.6564C114.87 38.8211 114.452 38.9034 114.135 38.9034C113.692 38.9034 113.337 38.7894 113.071 38.5614C112.805 38.3208 112.653 38.0294 112.615 37.6874C111.703 38.4981 110.741 38.9034 109.727 38.9034C108.803 38.9034 108.1 38.6121 107.618 38.0294C107.137 37.4468 106.896 36.7058 106.896 35.8064C106.896 34.6284 107.232 33.7608 107.903 33.2034C108.587 32.6334 109.537 32.3484 110.753 32.3484C111.361 32.3484 111.944 32.4118 112.501 32.5384V31.8164C112.501 31.0311 112.33 30.4611 111.988 30.1064C111.646 29.7518 111.051 29.5744 110.202 29.5744C109.404 29.5744 108.625 29.6948 107.865 29.9354ZM112.501 36.6804L112.52 33.5264C111.963 33.3871 111.444 33.3174 110.962 33.3174C110.05 33.3174 109.366 33.5074 108.91 33.8874C108.467 34.2674 108.245 34.8944 108.245 35.7684C108.245 36.3511 108.391 36.8324 108.682 37.2124C108.986 37.5924 109.43 37.7824 110.012 37.7824C110.886 37.7824 111.716 37.4151 112.501 36.6804Z" fill="#BFD730"/>
<path d="M120.971 28.4724C121.883 28.4724 122.523 28.9918 122.89 30.0304L121.845 30.6004C121.693 30.2711 121.535 30.0368 121.37 29.8974C121.206 29.7454 120.965 29.6694 120.648 29.6694C120.053 29.6694 119.375 30.1064 118.615 30.9804V38.7134H117.342V28.6814H118.539V29.8024C119.35 28.9158 120.161 28.4724 120.971 28.4724Z" fill="#BFD730"/>
<path d="M124.528 29.9354L124.395 28.8144C125.218 28.5864 126.174 28.4724 127.264 28.4724C129.366 28.4724 130.418 29.5111 130.418 31.5884V36.9654C130.418 37.2694 130.468 37.4848 130.57 37.6114C130.684 37.7381 130.867 37.8014 131.121 37.8014C131.323 37.8014 131.596 37.7381 131.938 37.6114L132.052 38.6564C131.532 38.8211 131.114 38.9034 130.798 38.9034C130.354 38.9034 130 38.7894 129.734 38.5614C129.468 38.3208 129.316 38.0294 129.278 37.6874C128.366 38.4981 127.403 38.9034 126.39 38.9034C125.465 38.9034 124.762 38.6121 124.281 38.0294C123.799 37.4468 123.559 36.7058 123.559 35.8064C123.559 34.6284 123.894 33.7608 124.566 33.2034C125.25 32.6334 126.2 32.3484 127.416 32.3484C128.024 32.3484 128.606 32.4118 129.164 32.5384V31.8164C129.164 31.0311 128.993 30.4611 128.651 30.1064C128.309 29.7518 127.713 29.5744 126.865 29.5744C126.067 29.5744 125.288 29.6948 124.528 29.9354ZM129.164 36.6804L129.183 33.5264C128.625 33.3871 128.106 33.3174 127.625 33.3174C126.713 33.3174 126.029 33.5074 125.573 33.8874C125.129 34.2674 124.908 34.8944 124.908 35.7684C124.908 36.3511 125.053 36.8324 125.345 37.2124C125.649 37.5924 126.092 37.7824 126.675 37.7824C127.549 37.7824 128.378 37.4151 129.164 36.6804Z" fill="#BFD730"/>
<path d="M134.195 29.9354L134.062 28.8144C134.885 28.5864 135.841 28.4724 136.931 28.4724C139.033 28.4724 140.085 29.5111 140.085 31.5884V36.9654C140.085 37.2694 140.135 37.4848 140.237 37.6114C140.351 37.7381 140.534 37.8014 140.788 37.8014C140.99 37.8014 141.263 37.7381 141.605 37.6114L141.719 38.6564C141.199 38.8211 140.781 38.9034 140.465 38.9034C140.021 38.9034 139.667 38.7894 139.401 38.5614C139.135 38.3208 138.983 38.0294 138.945 37.6874C138.033 38.4981 137.07 38.9034 136.057 38.9034C135.132 38.9034 134.429 38.6121 133.948 38.0294C133.466 37.4468 133.226 36.7058 133.226 35.8064C133.226 34.6284 133.561 33.7608 134.233 33.2034C134.917 32.6334 135.867 32.3484 137.083 32.3484C137.691 32.3484 138.273 32.4118 138.831 32.5384V31.8164C138.831 31.0311 138.66 30.4611 138.318 30.1064C137.976 29.7518 137.38 29.5744 136.532 29.5744C135.734 29.5744 134.955 29.6948 134.195 29.9354ZM138.831 36.6804L138.85 33.5264C138.292 33.3871 137.773 33.3174 137.292 33.3174C136.38 33.3174 135.696 33.5074 135.24 33.8874C134.796 34.2674 134.575 34.8944 134.575 35.7684C134.575 36.3511 134.72 36.8324 135.012 37.2124C135.316 37.5924 135.759 37.7824 136.342 37.7824C137.216 37.7824 138.045 37.4151 138.831 36.6804Z" fill="#BFD730"/>
<path d="M148.232 28.4724C149.739 28.4724 150.619 29.1311 150.873 30.4484C150.911 30.6638 150.93 31.0754 150.93 31.6834V38.7134H149.676V31.8544C149.676 31.4111 149.657 31.0691 149.619 30.8284C149.467 30.0304 148.884 29.6314 147.871 29.6314C146.946 29.6314 145.971 30.1191 144.945 31.0944V38.7134H143.672V28.6814H144.945V29.9354C146.021 28.9601 147.117 28.4724 148.232 28.4724Z" fill="#BFD730"/>
</svg>
