<svg width="240" height="48" viewBox="0 0 240 48" fill="none" xmlns="http://www.w3.org/2000/svg">
<path d="M3.62806 10.7171V14.4131H1.83606V4.34707H5.36406C6.42806 4.34707 7.25406 4.5944 7.84206 5.08907C8.43006 5.58374 8.72406 6.3024 8.72406 7.24507C8.72406 8.29974 8.40206 9.1444 7.75806 9.77907C7.12339 10.4044 6.26473 10.7171 5.18206 10.7171H3.62806ZM3.62806 9.33107H4.98606C5.61139 9.33107 6.08273 9.16774 6.40006 8.84107C6.72673 8.50507 6.89006 8.01974 6.89006 7.38507C6.89006 6.2744 6.30206 5.71907 5.12606 5.71907H3.62806V9.33107Z" fill="white"/>
<path d="M14.9438 10.9831H10.9538C10.9631 11.6831 11.1218 12.2197 11.4298 12.5931C11.7378 12.9571 12.1624 13.1391 12.7038 13.1391C13.3664 13.1391 14.0338 12.9524 14.7058 12.5791L14.8038 14.0491C14.1691 14.3944 13.4084 14.5671 12.5218 14.5671C10.2911 14.5671 9.17578 13.2464 9.17578 10.6051C9.17578 9.31707 9.45111 8.36507 10.0018 7.74907C10.5618 7.12374 11.2944 6.81107 12.1998 6.81107C14.0291 6.81107 14.9438 7.97774 14.9438 10.3111V10.9831ZM13.2918 9.89107C13.2918 8.6964 12.9184 8.09907 12.1718 8.09907C11.7704 8.09907 11.4671 8.26707 11.2618 8.60307C11.0658 8.93907 10.9678 9.3684 10.9678 9.89107H13.2918Z" fill="white"/>
<path d="M20.4074 7.42707L20.4774 6.95107H22.0454V14.3011C22.0454 16.4664 21.0467 17.5491 19.0494 17.5491C18.0507 17.5491 17.1781 17.3671 16.4314 17.0031L16.6974 15.4771C16.9867 15.6544 17.3367 15.7991 17.7474 15.9111C18.1674 16.0324 18.5547 16.0931 18.9094 16.0931C19.8707 16.0931 20.3514 15.4677 20.3514 14.2171V13.7691C19.8941 14.2637 19.3061 14.5111 18.5874 14.5111C17.7754 14.5111 17.1267 14.1984 16.6414 13.5731C16.1654 12.9384 15.9274 11.9957 15.9274 10.7451C15.9274 10.0544 16.0161 9.4244 16.1934 8.85507C16.3801 8.28574 16.6881 7.80507 17.1174 7.41307C17.5561 7.01174 18.0881 6.81107 18.7134 6.81107C19.3387 6.81107 19.9034 7.0164 20.4074 7.42707ZM20.2954 12.5511V8.64507C19.8567 8.32774 19.4647 8.16907 19.1194 8.16907C18.2047 8.16907 17.7474 9.03707 17.7474 10.7731C17.7474 12.3411 18.1907 13.1251 19.0774 13.1251C19.5067 13.1251 19.9127 12.9337 20.2954 12.5511Z" fill="white"/>
<path d="M24.2 8.44907L23.99 7.14707C24.662 6.92307 25.432 6.81107 26.3 6.81107C27.3266 6.81107 28.0546 7.0444 28.484 7.51107C28.9133 7.9684 29.128 8.8084 29.128 10.0311V12.6631C29.128 13.0551 29.268 13.2511 29.548 13.2511C29.6786 13.2511 29.828 13.2184 29.996 13.1531L30.122 14.3291C29.7673 14.4784 29.3706 14.5531 28.932 14.5531C28.26 14.5531 27.8493 14.2684 27.7 13.6991C27.0933 14.2684 26.3886 14.5531 25.586 14.5531C24.8673 14.5531 24.3166 14.3337 23.934 13.8951C23.5606 13.4564 23.374 12.8964 23.374 12.2151C23.374 10.4884 24.3353 9.62507 26.258 9.62507C26.6406 9.62507 27.0373 9.67174 27.448 9.76507V9.44307C27.448 8.57507 26.958 8.14107 25.978 8.14107C25.446 8.14107 24.8533 8.24374 24.2 8.44907ZM27.448 12.5931V10.8711C27.1306 10.7591 26.832 10.7031 26.552 10.7031C25.5906 10.7031 25.11 11.1557 25.11 12.0611C25.11 12.4251 25.194 12.7144 25.362 12.9291C25.53 13.1344 25.7773 13.2371 26.104 13.2371C26.608 13.2371 27.056 13.0224 27.448 12.5931Z" fill="white"/>
<path d="M35.0154 7.28707V4.34707H36.7654V14.4131H35.1974L35.1414 13.7551C34.6281 14.2871 34.0167 14.5531 33.3074 14.5531C32.4954 14.5531 31.8467 14.2311 31.3614 13.5871C30.8854 12.9431 30.6474 11.9957 30.6474 10.7451C30.6474 10.0544 30.7407 9.4244 30.9274 8.85507C31.1141 8.2764 31.4267 7.79107 31.8654 7.39907C32.3041 7.00707 32.8454 6.81107 33.4894 6.81107C34.0494 6.81107 34.5581 6.96974 35.0154 7.28707ZM35.0294 12.6071V8.61707C34.5907 8.29974 34.2034 8.14107 33.8674 8.14107C32.9341 8.14107 32.4674 9.0184 32.4674 10.7731C32.4674 11.5571 32.5841 12.1544 32.8174 12.5651C33.0507 12.9757 33.3821 13.1811 33.8114 13.1811C34.2407 13.1811 34.6467 12.9897 35.0294 12.6071Z" fill="white"/>
<path d="M38.92 8.44907L38.71 7.14707C39.382 6.92307 40.152 6.81107 41.02 6.81107C42.0466 6.81107 42.7746 7.0444 43.204 7.51107C43.6333 7.9684 43.848 8.8084 43.848 10.0311V12.6631C43.848 13.0551 43.988 13.2511 44.268 13.2511C44.3986 13.2511 44.548 13.2184 44.716 13.1531L44.842 14.3291C44.4873 14.4784 44.0906 14.5531 43.652 14.5531C42.98 14.5531 42.5693 14.2684 42.42 13.6991C41.8133 14.2684 41.1086 14.5531 40.306 14.5531C39.5873 14.5531 39.0366 14.3337 38.654 13.8951C38.2806 13.4564 38.094 12.8964 38.094 12.2151C38.094 10.4884 39.0553 9.62507 40.978 9.62507C41.3606 9.62507 41.7573 9.67174 42.168 9.76507V9.44307C42.168 8.57507 41.678 8.14107 40.698 8.14107C40.166 8.14107 39.5733 8.24374 38.92 8.44907ZM42.168 12.5931V10.8711C41.8506 10.7591 41.552 10.7031 41.272 10.7031C40.3106 10.7031 39.83 11.1557 39.83 12.0611C39.83 12.4251 39.914 12.7144 40.082 12.9291C40.25 13.1344 40.4973 13.2371 40.824 13.2371C41.328 13.2371 41.776 13.0224 42.168 12.5931Z" fill="white"/>
<path d="M45.8821 6.95107H47.6321V14.4131H45.8821V6.95107ZM45.7421 5.00507C45.7421 4.68774 45.8355 4.4404 46.0221 4.26307C46.2088 4.08574 46.4515 3.99707 46.7501 3.99707C47.0768 3.99707 47.3288 4.08574 47.5061 4.26307C47.6835 4.43107 47.7721 4.6784 47.7721 5.00507C47.7721 5.33174 47.6741 5.58374 47.4781 5.76107C47.2915 5.92907 47.0488 6.01307 46.7501 6.01307C46.4421 6.01307 46.1948 5.9244 46.0081 5.74707C45.8308 5.5604 45.7421 5.31307 45.7421 5.00507Z" fill="white"/>
<path d="M49.7845 8.44907L49.5745 7.14707C50.2465 6.92307 51.0165 6.81107 51.8845 6.81107C52.9112 6.81107 53.6392 7.0444 54.0685 7.51107C54.4979 7.9684 54.7125 8.8084 54.7125 10.0311V12.6631C54.7125 13.0551 54.8525 13.2511 55.1325 13.2511C55.2632 13.2511 55.4125 13.2184 55.5805 13.1531L55.7065 14.3291C55.3519 14.4784 54.9552 14.5531 54.5165 14.5531C53.8445 14.5531 53.4339 14.2684 53.2845 13.6991C52.6779 14.2684 51.9732 14.5531 51.1705 14.5531C50.4519 14.5531 49.9012 14.3337 49.5185 13.8951C49.1452 13.4564 48.9585 12.8964 48.9585 12.2151C48.9585 10.4884 49.9199 9.62507 51.8425 9.62507C52.2252 9.62507 52.6219 9.67174 53.0325 9.76507V9.44307C53.0325 8.57507 52.5425 8.14107 51.5625 8.14107C51.0305 8.14107 50.4379 8.24374 49.7845 8.44907ZM53.0325 12.5931V10.8711C52.7152 10.7591 52.4165 10.7031 52.1365 10.7031C51.1752 10.7031 50.6945 11.1557 50.6945 12.0611C50.6945 12.4251 50.7785 12.7144 50.9465 12.9291C51.1145 13.1344 51.3619 13.2371 51.6885 13.2371C52.1925 13.2371 52.6405 13.0224 53.0325 12.5931Z" fill="white"/>
<path d="M58.3427 6.95107L58.3987 7.69307C59.0707 7.10507 59.808 6.81107 60.6107 6.81107C61.8147 6.81107 62.496 7.32907 62.6547 8.36507C62.692 8.5984 62.7107 8.91107 62.7107 9.30307V14.4131H60.9607V9.52707C60.9607 9.23774 60.956 9.0464 60.9467 8.95307C60.8907 8.49574 60.5827 8.26707 60.0227 8.26707C59.5374 8.26707 59.0334 8.5004 58.5107 8.96707V14.4131H56.7467V6.95107H58.3427Z" fill="white"/>
<path d="M1 22.645V20.019H15.196V22.645H9.736V38.713H6.408V22.645H1Z" fill="#00AB4E"/>
<path d="M14.73 27.637L14.34 25.219C15.588 24.803 17.018 24.595 18.63 24.595C20.5367 24.595 21.8887 25.0284 22.686 25.895C23.4834 26.7444 23.882 28.3044 23.882 30.575V35.463C23.882 36.191 24.142 36.555 24.662 36.555C24.9047 36.555 25.182 36.4944 25.494 36.373L25.728 38.557C25.0694 38.8344 24.3327 38.973 23.518 38.973C22.27 38.973 21.5074 38.4444 21.23 37.387C20.1034 38.4444 18.7947 38.973 17.304 38.973C15.9694 38.973 14.9467 38.5657 14.236 37.751C13.5427 36.9364 13.196 35.8964 13.196 34.631C13.196 31.4244 14.9814 29.821 18.552 29.821C19.2627 29.821 19.9994 29.9077 20.762 30.081V29.483C20.762 27.871 19.852 27.065 18.032 27.065C17.044 27.065 15.9434 27.2557 14.73 27.637ZM20.762 35.333V32.135C20.1727 31.927 19.618 31.823 19.098 31.823C17.3127 31.823 16.42 32.6637 16.42 34.345C16.42 35.021 16.576 35.5584 16.888 35.957C17.2 36.3384 17.6594 36.529 18.266 36.529C19.202 36.529 20.034 36.1304 20.762 35.333Z" fill="#00AB4E"/>
<path d="M30.8577 25.895C32.1924 25.0284 33.3884 24.595 34.4458 24.595C35.8151 24.595 36.8984 25.0977 37.6958 26.103C38.4931 27.1084 38.8918 28.651 38.8918 30.731C38.8918 33.2964 38.3717 35.3157 37.3317 36.789C36.2917 38.245 34.6711 38.973 32.4697 38.973C30.6671 38.973 29.0551 38.5744 27.6337 37.777V20.019H30.8577V25.895ZM35.5378 31.381C35.5378 29.8384 35.3644 28.7637 35.0177 28.157C34.6711 27.5504 34.1424 27.247 33.4318 27.247C32.6518 27.247 31.7938 27.5677 30.8577 28.209V35.983C31.4124 36.3124 32.0364 36.477 32.7297 36.477C34.6017 36.477 35.5378 34.7784 35.5378 31.381Z" fill="#00AB4E"/>
<path d="M45.2875 38.973C43.0689 38.973 41.7949 38.0024 41.4655 36.061C41.3962 35.645 41.3615 35.0557 41.3615 34.293V25.193L44.6375 24.855V33.929C44.6375 34.4317 44.6549 34.787 44.6895 34.995C44.8282 35.827 45.3829 36.243 46.3535 36.243C47.2375 36.243 48.1909 35.827 49.2135 34.995V24.855H52.4635V38.713H49.5255L49.4215 37.361C48.1042 38.4357 46.7262 38.973 45.2875 38.973Z" fill="#00AB4E"/>
<path d="M58.7462 24.855L58.8502 26.233C60.0982 25.141 61.4675 24.595 62.9582 24.595C65.1942 24.595 66.4595 25.557 66.7542 27.481C66.8235 27.9144 66.8582 28.495 66.8582 29.223V38.713H63.6082V29.639C63.6082 29.1017 63.5995 28.7464 63.5822 28.573C63.4782 27.7237 62.9062 27.299 61.8662 27.299C60.9649 27.299 60.0289 27.7324 59.0582 28.599V38.713H55.7822V24.855H58.7462Z" fill="#00AB4E"/>
<path d="M77.7918 25.739L77.9218 24.855H80.8338V38.505C80.8338 42.5264 78.9791 44.537 75.2698 44.537C73.4151 44.537 71.7945 44.199 70.4078 43.523L70.9018 40.689C71.4391 41.0184 72.0891 41.287 72.8518 41.495C73.6318 41.7204 74.3512 41.833 75.0098 41.833C76.7952 41.833 77.6878 40.6717 77.6878 38.349V37.517C76.8385 38.4357 75.7465 38.895 74.4118 38.895C72.9038 38.895 71.6992 38.3144 70.7978 37.153C69.9138 35.9744 69.4718 34.2237 69.4718 31.901C69.4718 30.6184 69.6365 29.4484 69.9658 28.391C70.3125 27.3337 70.8845 26.441 71.6818 25.713C72.4965 24.9677 73.4845 24.595 74.6458 24.595C75.8071 24.595 76.8558 24.9764 77.7918 25.739ZM77.5838 35.255V28.001C76.7691 27.4117 76.0412 27.117 75.3998 27.117C73.7011 27.117 72.8518 28.729 72.8518 31.953C72.8518 34.865 73.6751 36.321 75.3218 36.321C76.1191 36.321 76.8731 35.9657 77.5838 35.255Z" fill="#00AB4E"/>
<path d="M84.8092 27.637L84.4192 25.219C85.6672 24.803 87.0972 24.595 88.7092 24.595C90.6158 24.595 91.9678 25.0284 92.7652 25.895C93.5625 26.7444 93.9612 28.3044 93.9612 30.575V35.463C93.9612 36.191 94.2212 36.555 94.7412 36.555C94.9838 36.555 95.2612 36.4944 95.5732 36.373L95.8072 38.557C95.1485 38.8344 94.4118 38.973 93.5972 38.973C92.3492 38.973 91.5865 38.4444 91.3092 37.387C90.1825 38.4444 88.8738 38.973 87.3832 38.973C86.0485 38.973 85.0258 38.5657 84.3152 37.751C83.6218 36.9364 83.2752 35.8964 83.2752 34.631C83.2752 31.4244 85.0605 29.821 88.6312 29.821C89.3418 29.821 90.0785 29.9077 90.8412 30.081V29.483C90.8412 27.871 89.9312 27.065 88.1112 27.065C87.1232 27.065 86.0225 27.2557 84.8092 27.637ZM90.8412 35.333V32.135C90.2518 31.927 89.6972 31.823 89.1772 31.823C87.3918 31.823 86.4992 32.6637 86.4992 34.345C86.4992 35.021 86.6552 35.5584 86.9672 35.957C87.2792 36.3384 87.7385 36.529 88.3452 36.529C89.2812 36.529 90.1132 36.1304 90.8412 35.333Z" fill="#00AB4E"/>
<path d="M100.677 24.855L100.781 26.233C102.029 25.141 103.398 24.595 104.889 24.595C107.125 24.595 108.39 25.557 108.685 27.481C108.754 27.9144 108.789 28.495 108.789 29.223V38.713H105.539V29.639C105.539 29.1017 105.53 28.7464 105.513 28.573C105.409 27.7237 104.837 27.299 103.797 27.299C102.896 27.299 101.96 27.7324 100.989 28.599V38.713H97.7129V24.855H100.677Z" fill="#00AB4E"/>
<path d="M114.569 38.7131V25.0521H121.903V26.2301H115.88V31.0181H121.124V32.1961H115.88V37.5161H122.15V38.7131H114.569Z" fill="#00AB4E"/>
<path d="M129.013 28.4721C130.191 28.4721 130.963 28.9154 131.331 29.8021C132.357 28.9154 133.402 28.4721 134.466 28.4721C135.986 28.4721 136.86 29.1307 137.088 30.4481C137.138 30.7394 137.164 31.1511 137.164 31.6831V38.7131H135.91V31.8541C135.91 31.3854 135.884 31.0434 135.834 30.8281C135.682 30.0301 135.131 29.6311 134.181 29.6311C133.307 29.6311 132.426 30.0491 131.54 30.8851C131.565 31.0877 131.578 31.4234 131.578 31.8921V38.7131H130.324V31.8541C130.324 31.3854 130.298 31.0434 130.248 30.8281C130.121 30.0301 129.621 29.6311 128.747 29.6311C127.695 29.6311 126.688 30.1251 125.726 31.1131V38.7131H124.453V28.6811H125.726V29.9161C126.828 28.9534 127.923 28.4721 129.013 28.4721Z" fill="#00AB4E"/>
<path d="M140.618 29.9351L140.485 28.8141C141.309 28.5861 142.265 28.4721 143.354 28.4721C145.457 28.4721 146.508 29.5107 146.508 31.5881V36.9651C146.508 37.2691 146.559 37.4844 146.66 37.6111C146.774 37.7377 146.958 37.8011 147.211 37.8011C147.414 37.8011 147.686 37.7377 148.028 37.6111L148.142 38.6561C147.623 38.8207 147.205 38.9031 146.888 38.9031C146.445 38.9031 146.09 38.7891 145.824 38.5611C145.558 38.3204 145.406 38.0291 145.368 37.6871C144.456 38.4977 143.494 38.9031 142.48 38.9031C141.556 38.9031 140.853 38.6117 140.371 38.0291C139.89 37.4464 139.649 36.7054 139.649 35.8061C139.649 34.6281 139.985 33.7604 140.656 33.2031C141.34 32.6331 142.29 32.3481 143.506 32.3481C144.114 32.3481 144.697 32.4114 145.254 32.5381V31.8161C145.254 31.0307 145.083 30.4607 144.741 30.1061C144.399 29.7514 143.804 29.5741 142.955 29.5741C142.157 29.5741 141.378 29.6944 140.618 29.9351ZM145.254 36.6801L145.273 33.5261C144.716 33.3867 144.197 33.3171 143.715 33.3171C142.803 33.3171 142.119 33.5071 141.663 33.8871C141.22 34.2671 140.998 34.8941 140.998 35.7681C140.998 36.3507 141.144 36.8321 141.435 37.2121C141.739 37.5921 142.183 37.7821 142.765 37.7821C143.639 37.7821 144.469 37.4147 145.254 36.6801Z" fill="#00AB4E"/>
<path d="M149.221 37.8771L149.563 36.6991C149.842 36.9524 150.247 37.2057 150.779 37.4591C151.311 37.7124 151.818 37.8391 152.299 37.8391C152.92 37.8391 153.42 37.6997 153.8 37.4211C154.18 37.1424 154.37 36.7371 154.37 36.2051C154.37 35.7111 154.199 35.3184 153.857 35.0271C153.515 34.7357 153.097 34.5141 152.603 34.3621C152.109 34.2101 151.615 34.0454 151.121 33.8681C150.64 33.6907 150.228 33.3867 149.886 32.9561C149.544 32.5254 149.373 31.9617 149.373 31.2651C149.373 30.4037 149.684 29.7261 150.304 29.2321C150.925 28.7254 151.685 28.4721 152.584 28.4721C153.509 28.4721 154.231 28.7064 154.75 29.1751C155.282 29.6311 155.605 30.1694 155.719 30.7901L154.693 31.2081C154.541 30.6761 154.275 30.2771 153.895 30.0111C153.515 29.7324 153.072 29.5931 152.565 29.5931C152.033 29.5931 151.584 29.7261 151.216 29.9921C150.849 30.2581 150.665 30.6634 150.665 31.2081C150.665 31.7021 150.836 32.1011 151.178 32.4051C151.52 32.6964 151.932 32.9181 152.413 33.0701C152.907 33.2221 153.401 33.3867 153.895 33.5641C154.389 33.7287 154.807 34.0137 155.149 34.4191C155.491 34.8244 155.662 35.3501 155.662 35.9961C155.662 36.8574 155.365 37.5667 154.769 38.1241C154.187 38.6687 153.357 38.9411 152.28 38.9411C151.672 38.9411 151.071 38.8271 150.475 38.5991C149.893 38.3584 149.475 38.1177 149.221 37.8771Z" fill="#00AB4E"/>
</svg>
